<?xml version="1.0" encoding="utf-8"?>
<!-- Generator: Adobe Illustrator 16.0.0, SVG Export Plug-In . SVG Version: 6.00 Build 0)  -->
<!DOCTYPE svg PUBLIC "-//W3C//DTD SVG 1.1//EN" "http://www.w3.org/Graphics/SVG/1.1/DTD/svg11.dtd">
<svg version="1.1" id="Layer_1" xmlns="http://www.w3.org/2000/svg" xmlns:xlink="http://www.w3.org/1999/xlink" x="0px" y="0px"
	 width="651.841px" height="500.32px" viewBox="0 0 651.841 500.32" enable-background="new 0 0 651.841 500.32"
	 xml:space="preserve">
<g>
	<g>
		<path fill-rule="evenodd" clip-rule="evenodd" fill="#FFFFFF" d="M0.75,501.07c0-166.773,0-333.547,0-500.32
			c217.281,0,434.561,0,651.841,0c0,166.773,0,333.547,0,500.32C435.311,501.07,218.031,501.07,0.75,501.07z M489.514,344.742
			c25.934,0,51.072,0,77.28,0c-2.591,2.917-4.523,5.095-6.457,7.271c0.195,0.36,0.391,0.721,0.586,1.082
			c8.98-2.972,17.961-5.943,26.941-8.915c-0.027-0.42-0.055-0.84-0.082-1.26c-8.462-2.933-16.914-5.891-25.404-8.74
			c-0.591-0.199-1.452,0.411-2.187,0.645c-0.334,0.494-0.667,0.989-1,1.484c2.112,1.353,4.225,2.705,6.338,4.057
			c-0.203,0.223-0.406,0.443-0.609,0.665c-15.965,0-31.93,0-48.829,0c2.693-8.701,5.179-16.73,7.665-24.76
			c-0.274-0.232-0.548-0.466-0.82-0.698c-1.858,1.288-3.716,2.576-6.101,4.229c0-8.481,0-16.43,0-24.601
			c2.576,1.305,3.376,5.185,7.793,3.813c-4.899-8.324-5.897-17.982-10.546-26.148c-0.512,0.041-1.023,0.083-1.535,0.125
			c-2.617,8.78-5.233,17.561-7.851,26.342c0.248,0.285,0.495,0.571,0.743,0.856c1.147-0.602,2.467-1.014,3.393-1.858
			c0.91-0.83,1.42-2.1,2.105-3.177c0.369,0.144,0.739,0.286,1.108,0.43c0,7.962,0,15.924,0,24.509
			c-2.278-1.736-4.207-3.205-6.136-4.674c-0.324,0.282-0.648,0.566-0.973,0.85c2.658,8.14,5.314,16.279,8.174,25.036
			c-7.521,0-14.357,0.066-21.188-0.1c-0.716-0.017-1.603-1.306-2.059-2.187c-1.71-3.303-4.382-4.303-7.923-3.865
			c-0.929,0.114-2.254-0.117-2.862-0.725c-4.055-4.054-7.987-8.23-11.915-12.409c-3.792-4.033-7.43-8.216-11.321-12.149
			c-3.854-3.897-8.104-7.408-11.879-11.376c-3.837-4.034-7.291-8.433-10.948-12.641c-0.803-0.925-1.767-1.707-2.631-2.579
			c-4.501-4.547-10.552-7.565-13.473-13.694c-0.241-0.506-1.153-0.71-1.775-1.013c-1.301-0.632-2.857-0.972-3.879-1.902
			c-3.226-2.941-6.186-6.173-9.378-9.153c-3.117-2.909-6.283-5.789-9.628-8.427c-4.312-3.4-8.837-6.525-13.242-9.807
			c-6.063-4.518-11.984-9.238-18.181-13.563c-6.108-4.264-12.435-8.222-18.761-12.16c-3.823-2.379-7.791-4.537-11.767-6.656
			c-2.542-1.355-4.306-2.717-3.987-6.19c0.464-5.055,0.131-5.405-5.021-4.947c-8.866,0.79-16.604-2.061-24.25-6.085
			c-5.187-2.731-10.685-4.912-16.156-7.051c-7.506-2.936-15.12-5.599-22.795-8.419c0.182-1.205,0.227-2.066,0.448-2.881
			c2.915-10.765,5.938-21.501,8.768-32.289c4.574-17.441,9.046-34.909,13.492-52.384c0.493-1.938,2.758-4.222-0.309-5.702
			c-0.271-0.13-2.833,3.218-3.396,5.215c-1.244,4.404-1.641,9.043-2.833,13.465c-2.583,9.584-5.551,19.064-8.173,28.638
			c-3.821,13.949-7.509,27.935-11.172,41.926c-0.646,2.467-1.98,2.938-4.124,2.077c-2.188-0.879-4.307-1.982-6.556-2.649
			c-6.758-2.001-13.542-3.925-20.36-5.715c-8.512-2.236-17.054-4.359-25.608-6.433c-5.168-1.252-10.387-2.296-15.574-3.472
			c-6.148-1.394-12.262-2.951-18.438-4.208c-6.319-1.288-12.71-2.217-19.039-3.458c-4.58-0.898-9.11-2.049-12.851-2.903
			c-0.983-2.69-1.125-5.443-2.5-6.372c-3.35-2.262-3.097-5.258-3.093-8.465c0.029-20.864,0.026-41.729,0.035-62.592
			c0-2.884,0-5.769,0-9.484c2.977,2.33,5.136,4.02,7.294,5.71c0.289-0.161,0.578-0.32,0.867-0.48
			c-0.336-1.482-0.541-3.009-1.029-4.44c-2.356-6.907-4.755-13.801-7.243-20.661c-0.278-0.766-1.224-1.29-1.86-1.926
			c-0.631,0.676-1.579,1.248-1.842,2.046c-2.417,7.328-4.742,14.686-6.996,22.064c-0.192,0.63,0.32,1.474,0.504,2.219
			c0.688-0.293,1.487-0.45,2.041-0.905c1.29-1.06,2.461-2.264,4.335-4.025c0,2.747-0.006,4.216,0.001,5.685
			c0.111,23.096,0.252,46.192,0.257,69.288c0,1.249-0.985,2.599-1.771,3.719c-1.018,1.45-2.795,2.538-3.348,4.1
			c-0.829,2.344-2.21,2.841-4.269,2.443c-4.269-0.826-8.499-1.872-12.786-2.581c-8.359-1.385-16.738-2.669-25.135-3.793
			c-0.991-0.133-2.151,0.999-3.232,1.545c0.902,1.012,1.649,2.658,2.735,2.925c4.093,1.004,8.286,1.625,12.46,2.27
			c9.331,1.438,18.684,2.738,28.008,4.225c6.139,0.979,7.505,2.879,7.47,8.914c-0.08,13.979-0.085,27.959-0.032,41.938
			c0.044,11.604,0.314,23.209,0.302,34.814c-0.016,15.466-0.309,30.932-0.299,46.397c0.014,19.726,0.166,39.451,0.378,59.175
			c0.033,3.052-0.915,4.107-4.057,4.069c-13.372-0.164-26.747-0.082-40.121-0.129c-1.296-0.005-2.592-0.287-4.623-0.527
			c2.814-8.999,5.451-17.43,8.088-25.86c-0.259-0.247-0.519-0.494-0.778-0.741c-0.931,0.649-1.875,1.28-2.789,1.954
			c-1.09,0.804-2.153,1.644-3.614,2.764c0-11.715,0-22.865,0-34.539c2.268,2.048,4.116,3.717,6.32,5.705
			c0.501-1.287,1.229-2.196,1.021-2.766c-3.077-8.433-6.278-16.819-9.45-25.217c-0.505,0.041-1.011,0.082-1.516,0.124
			c-2.605,8.854-5.21,17.709-7.815,26.563c0.407,0.206,0.813,0.412,1.22,0.618c1.561-1.371,3.122-2.742,5.271-4.63
			c0,11.78,0,22.838,0,34.585c-1.964-1.556-3.363-2.709-4.814-3.788c-0.508-0.378-1.147-0.578-1.727-0.859
			c-0.199,0.748-0.541,1.492-0.552,2.243c-0.009,0.579,0.411,1.16,0.617,1.749c2.499,7.171,4.994,14.345,7.915,22.739
			c-9.565,0-17.872,0-26.178,0c-0.013,0.648-0.026,1.298-0.039,1.946c1.905,0.127,3.81,0.343,5.716,0.368
			c17.078,0.221,34.156,0.431,51.234,0.596c6.816,0.064,13.632,0.01,20.623,0.01c0,6.906-0.035,13.139,0.006,19.369
			c0.128,19.461,0.316,38.92,0.42,58.38c0.076,14.303,0.023,28.605,0.145,42.908c0.01,1.095,0.954,2.182,1.464,3.273
			c0.534-1.167,1.49-2.319,1.528-3.502c0.168-5.205,0.073-10.42,0.073-16.666c4.802,1.722,9.121,3.162,13.354,4.817
			c4.161,1.625,8.181,3.728,13.242,3.27c-1.816-2.688-3.26-4.826-4.811-7.121c47.583,0,94.838,0,142.487,0
			c-2.171,2.671-4.028,4.956-5.886,7.241c0.25,0.404,0.5,0.807,0.75,1.211c8.79-3.066,17.579-6.133,26.368-9.199
			c0.018-0.47,0.035-0.938,0.053-1.408c-8.324-2.803-16.642-5.627-24.988-8.368c-0.658-0.216-1.508,0.153-2.874,0.327
			c2.044,2.577,3.683,4.641,5.32,6.705c-0.285,0.244-0.57,0.488-0.854,0.733c-0.799-0.256-1.604-0.75-2.396-0.729
			c-7.203,0.185-14.401,0.557-21.605,0.677c-5.619,0.095-11.244-0.021-16.863-0.17c-5.493-0.146-10.982-0.659-16.472-0.638
			c-6.217,0.025-12.434,0.707-18.647,0.666c-8.204-0.054-16.403-0.702-24.606-0.769c-5.581-0.045-11.167,0.652-16.752,0.683
			c-5.132,0.028-10.266-0.388-15.4-0.613c-2.365-0.104-4.73-0.223-7.849-0.371c2-2.539,3.399-4.313,4.798-6.09
			c-0.152-0.346-0.305-0.691-0.457-1.037c-8.457,2.749-16.915,5.499-25.659,8.343c0-9.706,0-19.171,0-29.036
			c4.462,1.579,8.354,3.083,12.327,4.327c4.009,1.254,8.099,2.249,12.153,3.357c0.148-0.297,0.296-0.593,0.445-0.889
			c-1.434-2.034-2.868-4.067-4.508-6.393c21.445,0,42.42,0,64.366,0c-2.132,2.868-3.751,5.047-6.089,8.192
			c10.358-3.273,19.774-6.242,29.169-9.274c0.136-0.044,0.017-0.871,0.017-1.527c-9.829-1.46-18.502-6.525-28.057-8.377
			c-0.18,0.368-0.361,0.735-0.541,1.103c1.62,2.154,3.24,4.308,5.212,6.932c-21.726,0-42.411,0-63.542,0
			c1.498-2.618,2.788-4.872,4.077-7.126c-0.308-0.314-0.617-0.631-0.925-0.946c-7.752,2.744-15.505,5.488-23.817,8.43
			c-0.304-1.769-0.707-3.029-0.711-4.291c-0.063-20.62,0.038-41.24-0.2-61.857c-0.047-4.068,1.463-4.612,4.992-4.597
			c24.489,0.11,48.984-0.299,73.465,0.149c9.329,0.17,18.862-1.994,28.057,1.431c0.472,0.176,1.167-0.213,1.75-0.372
			c1.382-0.378,2.752-1.079,4.139-1.112c4.564-0.11,9.135,0.048,13.703,0.051c6.874,0.005,13.748-0.054,20.622-0.048
			c6.996,0.005,14.033,0.54,20.975-0.055c6.628-0.568,13.072,1.066,19.763,0.314c8.266-0.928,16.712-0.299,25.079-0.282
			c43.743,0.08,87.486,0.218,131.228,0.201c3.559-0.001,6.523,0.301,8.794,3.412c0.568,0.777,2.112,1.115,3.229,1.163
			c2.745,0.116,4.77,1.144,6.06,3.622c0.452,0.869,1.04,1.697,1.698,2.427c3.579,3.967,7.24,7.861,10.796,11.85
			c4.241,4.76,8.376,9.613,12.61,14.379c3.725,4.191,7.615,8.237,11.263,12.494c4.332,5.055,8.427,10.313,12.779,15.351
			c0.556,0.644,2.046,0.479,3.103,0.688c0.209-1.166,1.017-2.794,0.53-3.424c-3.564-4.626-7.336-9.098-11.144-13.531
			c-6.003-6.99-12.124-13.878-18.119-20.875c-3.976-4.639-7.701-9.495-11.758-14.058c-2.91-3.272-6.248-6.161-9.252-9.355
			C490.447,347.724,490.229,346.403,489.514,344.742z M325.253,176.044c-0.085-0.359-0.17-0.718-0.256-1.078
			c-3.811,0.405-5.041-1.465-4.975-4.697c0.092-4.494,4.06-2.953,6.267-4.001c-0.09-3.636-1.168-4.358-4.186-3.014
			c-1.083,0.482-2.341,1.379-3.307,1.159c-2.3-0.523-4.474-1.602-7.164-2.634c0.36-1.166,0.915-2.887,1.423-4.623
			c0.515-1.758,0.194-3.041-1.995-2.917c-1.2,0.068-2.391,0.321-3.188,0.434c0,2.106,0.067,3.756-0.018,5.397
			c-0.101,1.946-1.018,2.654-3.15,2.617c-6.637-0.115-12.478,7.054-11.401,13.602c0.447,2.716,2.029,3.816,4.646,3.776
			c4.26-0.067,8.535,0.069,12.773-0.269c1.354-0.108,2.688-1.345,3.889-2.253c0.888-0.672,1.546-1.648,1.901-2.042
			c1.385,1.664,2.918,4.338,3.574,4.137C321.998,179.058,323.557,177.326,325.253,176.044z M341.77,92.596
			c1.471,0.599,3.041,1.865,4.175,1.552c1.715-0.473,3.189-1.979,4.559-3.269c0.118-0.112-1.313-1.87-2.109-2.981
			c0.729-2.106,0.84-5.428,2.477-6.578c4.411-3.099,0.914-5.13,0.055-7.713c-1.768,0.965-3.386,1.587-4.649,2.636
			c-0.773,0.642-1.605,2.111-1.377,2.912c1.157,4.044-1.09,7.008-3.021,10.318c-0.787-1.029-1.153-2.106-1.002-3.106
			c0.18-1.198,1.171-2.338,1.145-3.487c-0.042-1.823-0.073-4.301-1.18-5.232c-0.866-0.73-3.382,0.356-5.105,0.841
			c-0.87,0.245-1.609,0.948-2.434,1.459c-1.116-3.68-2.329-4.027-5.865-2.431c-0.735,4.434-1.479,8.314-1.969,12.226
			c-0.168,1.344,0.294,2.768,0.47,4.156c1.104-0.986,2.385-1.839,3.268-2.995c0.966-1.265,1.383-2.955,2.367-4.201
			c1.56-1.973,3.393-3.731,5.109-5.58c0.257,0.214,0.515,0.43,0.771,0.645c-0.531,1.718-1.217,3.407-1.556,5.163
			c-0.428,2.211-0.57,4.477-0.836,6.719C337.322,93.293,339.585,92.939,341.77,92.596z M103.808,355.088
			c-1.734,0.468-3.459,0.972-5.204,1.396c-5.841,1.419-7.759,6.706-9.971,11.103c-3.244,6.444,2.204,13.117,9.337,13.167
			c7.747,0.054,14.342-8.755,14.681-16.104C112.947,358.183,110.429,355.592,103.808,355.088z M395.144,89.327
			c-0.075,4.285,3.089,6.155,7.11,4.395c0.948-0.416,2.251,0.015,3.39-0.006c1.385-0.026,3.111,0.354,4.046-0.327
			c0.785-0.571,0.724-2.401,0.9-3.693c0.28-2.049,0.184-4.186,0.717-6.158c1.1-4.073,2.621-8.033,3.713-12.107
			c0.263-0.976-0.142-2.603-0.855-3.223c-0.582-0.507-2.464-0.361-3.073,0.223c-0.688,0.66-0.696,2.121-0.827,3.253
			c-0.29,2.51,0.355,5.531-3.649,5.663C400.948,77.533,395.245,83.519,395.144,89.327z M322.831,87.837
			c-2.085,1.249-3.424,2.158-4.862,2.864c-0.683,0.336-1.736,0.623-2.297,0.324c-0.635-0.339-1.256-1.376-1.223-2.079
			c0.025-0.542,1.004-1.147,1.67-1.535c2.224-1.294,4.8-2.178,6.632-3.876c0.988-0.917,1.534-3.755,0.854-4.686
			c-1.019-1.395-3.468-2.845-4.997-2.565c-5.126,0.938-9.555,7.329-9.33,12.479c0.178,4.072,1.42,5.381,5.285,5.574
			C318.189,94.517,322.076,91.981,322.831,87.837z M562.225,289.725c1.045-0.278,1.776-0.542,2.529-0.659
			c1.713-0.269,3.437-0.466,5.155-0.691c0.029,1.89,0.704,4.114-0.062,5.595c-1.24,2.403-3.384,4.354-5.222,6.43
			c-2.135,2.409-4.351,4.746-6.898,7.514c11.177,2.113,14.697,1.025,13.962-3.672c-1.965,0.156-3.933,0.311-7.059,0.558
			c1.781-2.116,2.738-3.342,3.789-4.482c1.906-2.069,4.57-3.788,5.604-6.214c0.996-2.34,1.101-5.717,0.119-8.003
			c-0.632-1.472-4.087-2.725-6.004-2.41C565.485,284.123,562.654,285.7,562.225,289.725z M367.16,87.707
			c-0.092,5.236,1.587,6.864,6.934,6.723c5.805-0.152,11.651-7.143,9.797-12.61c-0.731-2.159-3.771-4.612-6.051-4.945
			C373.162,76.192,367.246,82.771,367.16,87.707z M159.051,22.627c-0.068-0.857-0.064-1.729-0.219-2.572
			c-0.404-2.188-0.556-4.502-1.414-6.507c-0.914-2.136-3.103-2.622-5.051-1.445c-2.07,1.25,0.101,2.254,0.412,3.478
			c1.003,3.944,1.702,8.022,1.908,12.08c0.068,1.343-1.768,2.748-2.627,4.188c-0.511,0.857-0.815,1.838-1.506,3.449
			c1.41-0.423,2.173-0.411,2.476-0.778c4.751-5.769,9.481-11.557,14.097-17.433c0.533-0.679,0.813-2.196,0.417-2.821
			c-0.629-0.993-1.851-1.788-2.989-2.17c-0.338-0.114-1.953,1.799-1.766,2.17C164.882,18.415,161.312,20.221,159.051,22.627z
			 M532.098,315.013c0.35,0.194,0.699,0.388,1.049,0.581c2.203-2.271,4.519-4.447,6.582-6.839c2.789-3.233,5.564-6.51,7.97-10.025
			c0.859-1.256,1.065-3.363,0.715-4.885c-0.197-0.852-2.148-1.297-3.309-1.926c-0.254,1.1-0.609,2.188-0.73,3.303
			c-0.105,0.973,0.417,2.163,0.021,2.924c-0.917,1.757-2.222,3.312-3.613,5.296c-0.332-0.811-0.599-1.213-0.654-1.643
			c-0.288-2.202-0.267-4.484-0.87-6.59c-0.355-1.242-1.489-2.518-2.622-3.187c-0.68-0.401-2.033,0.338-3.083,0.564
			c0.29,1.057,0.7,2.098,0.851,3.173c0.829,5.939,3.958,12.165-2.085,17.319C531.956,313.387,532.157,314.354,532.098,315.013z
			 M30.064,292.413c4.259,2.91,3.305,7.228,4.354,10.921c1.463,5.148-3.39,6.915-4.69,10.839c1.427-0.126,2.888-0.394,3.637-1.271
			c4.293-5.028,8.58-10.083,12.472-15.418c0.85-1.164,0.213-3.528-0.081-5.283c-0.042-0.252-2.013-0.183-3.866-0.319
			c2.908,5.133,0.295,7.541-3.246,9.919c-0.278-0.669-0.532-1.069-0.608-1.502c-0.218-1.224-0.393-2.456-0.532-3.691
			C36.908,291.319,36.174,290.836,30.064,292.413z M193.962,392.111c-1.276-2.669-2.173-4.789-5.169-2.244
			c-1.196,1.017-2.59,2.112-4.101,0.179c-2.18-2.786-4.215-1.601-6.429,0.126c5.793,5.221,5.884,8.789,0.632,11.754
			c-0.803,0.453-1.537,1.229-1.966,2.035c-0.149,0.28,0.87,1.647,1.092,1.585c1.086-0.307,2.175-0.802,3.085-1.474
			c0.906-0.668,1.601-1.623,2.33-2.392c1.412,2.014,2.415,3.444,3.862,5.511c1.949-2.332,3.452-4.13,5.72-6.845
			c-3.976,0.659-6.193-0.099-6.264-3.044C186.647,392.801,190.255,392.403,193.962,392.111z M209.301,478.52
			c1.91,1.034,3.411,2.537,4.777,2.424c2.115-0.175,4.019-1.553,3.868-4.597c-3.264,0.687-4.94-0.954-4.951-3.815
			c-0.015-3.867,2.895-4.636,6.66-4.522c-0.516-1.486-0.81-3.416-1.272-3.457c-1.326-0.118-2.711,0.575-4.092,0.856
			c-1.043,0.213-2.725,0.773-3.076,0.337c-2.412-2.999-4.508-1.252-7.173-0.284c6.886,6.035,6.803,6.723-0.553,12.633
			c-0.548,0.44-0.503,1.617-0.734,2.452c0.306,0.315,0.61,0.63,0.916,0.945C205.772,480.381,207.875,479.271,209.301,478.52z
			 M620.057,322.356c-0.091,0.383-0.183,0.765-0.273,1.148c0.334,0.315,0.617,0.725,1.008,0.933c4.239,2.269,4.64,6.041,0.897,8.894
			c-0.776,0.592-1.864,0.905-2.399,1.644c-0.539,0.743-0.57,1.856-0.824,2.807c0.946,0.008,2.112,0.37,2.793-0.052
			c1.418-0.878,2.58-2.171,3.859-3.305c2.14,5.085,3.419,5.438,6.863,1.967c1.744-1.757,1.637-2.856-0.969-3.503
			c-0.76-0.188-1.589-1.005-1.946-1.745c-1.629-3.372,0.009-5.021,3.211-5.95c0.812-0.236,1.396-1.254,2.084-1.911
			c-0.968-0.264-2.041-0.926-2.881-0.703c-1.488,0.395-2.834,1.325-4.239,2.031c0.024-0.416,0.05-0.831,0.076-1.247
			C624.896,323.027,622.477,322.692,620.057,322.356z M303.272,79.913c1.101,1.362,1.922,2.378,2.743,3.395
			c0.887-0.736,2.608-1.647,2.499-2.175c-0.292-1.391-1.099-3.042-2.229-3.784c-1.066-0.701-3.211-1.004-4.174-0.384
			c-2.875,1.853-5.825,3.899-7.959,6.513c-2.735,3.35-1.068,9.435,2.331,10.51c2.522,0.798,8.085-0.76,9.657-2.833
			c0.391-0.517,0.35-1.361,0.508-2.054c-0.779-0.129-1.614-0.491-2.321-0.321c-0.64,0.155-1.119,0.917-1.705,1.363
			c-2.755,2.102-4.6,1.336-5.107-2.104C297.046,84.858,299.739,81.203,303.272,79.913z M352.204,93.315
			c3.27,0.866,3.821,0.419,5.264-2.744c1.568-3.438,1.437-8.584,7.551-8.018c0.448,0.042,1.155-2.696,1.741-4.142
			c-1.267-0.188-2.526-0.47-3.798-0.532c-1.05-0.051-2.645,0.648-3.079,0.173c-2.222-2.423-3.888-0.875-5.771,0.227
			C356.598,83.756,352.085,88.055,352.204,93.315z M388.734,77.39c-0.591,3.217-0.957,5.652-1.503,8.046
			c-0.437,1.908-1.258,3.738-1.58,5.657c-0.153,0.911,0.47,2.796,0.724,2.793c1.637-0.02,3.411-0.145,4.847-0.841
			c0.83-0.403,1.803-2.568,1.531-2.867c-2.686-2.952-0.243-5.483,0.334-8.185c0.318-1.49,0.226-3.067,0.318-4.604
			C391.578,77.39,389.751,77.39,388.734,77.39z M545.682,308.021c0.438,0.397,0.875,0.795,1.313,1.193
			c1.07-0.999,2.478-1.811,3.151-3.028c2.683-4.843,5.239-9.764,7.633-14.756c1.241-2.591,2.044-5.394,3.045-8.1
			c-0.509-0.202-1.02-0.404-1.529-0.606C554.758,291.157,550.22,299.589,545.682,308.021z M30.329,282.001
			c-0.072,0.567-0.146,1.134-0.218,1.701c1.812,0.328,3.616,0.859,5.439,0.94c3.273,0.146,6.567,0.159,9.832-0.064
			c1.129-0.077,2.198-1.023,3.294-1.573c-0.157-0.335-0.313-0.67-0.47-1.004C42.247,282.001,36.288,282.001,30.329,282.001z
			 M195.145,383.606c-3.833-2.442-16.957-2.196-19.5,0.425C182.262,384.632,188.27,385.903,195.145,383.606z M392.952,75.84
			c0.914-1.548,1.907-2.479,1.802-3.263c-0.107-0.802-1.291-1.461-2.004-2.182c-0.643,0.765-1.761,1.51-1.795,2.302
			C390.92,73.505,391.95,74.359,392.952,75.84z M420.051,273.03c0.657-0.09,1.313-0.179,1.97-0.267
			c-0.217-1.356-0.434-2.714-0.65-4.07c-0.75,0.244-2.158,0.547-2.143,0.723C419.336,270.636,419.74,271.828,420.051,273.03z"/>
		<path fill-rule="evenodd" clip-rule="evenodd" d="M489.514,344.742c0.715,1.661,0.934,2.981,1.695,3.792
			c3.004,3.194,6.342,6.083,9.252,9.355c4.057,4.563,7.782,9.419,11.758,14.058c5.995,6.997,12.116,13.885,18.119,20.875
			c3.808,4.434,7.579,8.905,11.144,13.531c0.486,0.63-0.321,2.258-0.53,3.424c-1.057-0.209-2.547-0.044-3.103-0.688
			c-4.353-5.037-8.447-10.296-12.779-15.351c-3.647-4.257-7.538-8.303-11.263-12.494c-4.234-4.766-8.369-9.619-12.61-14.379
			c-3.556-3.988-7.217-7.883-10.796-11.85c-0.658-0.729-1.246-1.558-1.698-2.427c-1.29-2.479-3.314-3.506-6.06-3.622
			c-1.116-0.048-2.66-0.386-3.229-1.163c-2.271-3.111-5.235-3.413-8.794-3.412c-43.741,0.017-87.484-0.121-131.228-0.201
			c-8.367-0.017-16.813-0.646-25.079,0.282c-6.691,0.752-13.135-0.883-19.763-0.314c-6.942,0.595-13.979,0.06-20.975,0.055
			c-6.874-0.006-13.748,0.053-20.622,0.048c-4.568-0.003-9.138-0.161-13.703-0.051c-1.387,0.033-2.757,0.734-4.139,1.112
			c-0.583,0.159-1.278,0.548-1.75,0.372c-9.195-3.425-18.729-1.261-28.057-1.431c-24.481-0.448-48.976-0.039-73.465-0.149
			c-3.529-0.016-5.039,0.528-4.992,4.597c0.238,20.617,0.136,41.237,0.2,61.857c0.004,1.262,0.407,2.522,0.711,4.291
			c8.312-2.941,16.065-5.686,23.817-8.43c0.309,0.315,0.617,0.632,0.925,0.946c-1.289,2.254-2.579,4.508-4.077,7.126
			c21.13,0,41.815,0,63.542,0c-1.973-2.624-3.593-4.777-5.212-6.932c0.18-0.367,0.361-0.734,0.541-1.103
			c9.554,1.852,18.228,6.917,28.057,8.377c0,0.656,0.119,1.483-0.017,1.527c-9.395,3.032-18.811,6.001-29.169,9.274
			c2.337-3.146,3.957-5.324,6.089-8.192c-21.946,0-42.921,0-64.366,0c1.64,2.325,3.074,4.358,4.508,6.393
			c-0.149,0.296-0.297,0.592-0.445,0.889c-4.055-1.108-8.144-2.104-12.153-3.357c-3.973-1.244-7.865-2.748-12.327-4.327
			c0,9.865,0,19.33,0,29.036c8.744-2.844,17.202-5.594,25.659-8.343c0.152,0.346,0.305,0.691,0.457,1.037
			c-1.399,1.776-2.797,3.551-4.798,6.09c3.119,0.148,5.483,0.267,7.849,0.371c5.134,0.226,10.268,0.642,15.4,0.613
			c5.585-0.03,11.171-0.728,16.752-0.683c8.204,0.066,16.403,0.715,24.606,0.769c6.213,0.041,12.43-0.641,18.647-0.666
			c5.49-0.021,10.979,0.491,16.472,0.638c5.619,0.149,11.244,0.265,16.863,0.17c7.204-0.12,14.402-0.492,21.605-0.677
			c0.792-0.021,1.597,0.474,2.396,0.729c0.285-0.245,0.57-0.489,0.854-0.733c-1.638-2.064-3.276-4.128-5.32-6.705
			c1.366-0.174,2.216-0.543,2.874-0.327c8.346,2.741,16.664,5.565,24.988,8.368c-0.018,0.47-0.035,0.938-0.053,1.408
			c-8.789,3.066-17.579,6.133-26.368,9.199c-0.25-0.404-0.5-0.807-0.75-1.211c1.858-2.285,3.715-4.57,5.886-7.241
			c-47.649,0-94.904,0-142.487,0c1.551,2.295,2.995,4.433,4.811,7.121c-5.061,0.458-9.081-1.645-13.242-3.27
			c-4.234-1.655-8.552-3.096-13.354-4.817c0,6.246,0.096,11.461-0.073,16.666c-0.038,1.183-0.994,2.335-1.528,3.502
			c-0.51-1.092-1.454-2.179-1.464-3.273c-0.122-14.303-0.069-28.605-0.145-42.908c-0.104-19.46-0.292-38.919-0.42-58.38
			c-0.041-6.23-0.006-12.463-0.006-19.369c-6.991,0-13.807,0.055-20.623-0.01c-17.078-0.165-34.156-0.375-51.234-0.596
			c-1.907-0.025-3.811-0.241-5.716-0.368c0.013-0.648,0.025-1.298,0.039-1.946c8.307,0,16.613,0,26.178,0
			c-2.921-8.395-5.416-15.568-7.915-22.739c-0.206-0.589-0.625-1.17-0.617-1.749c0.011-0.751,0.353-1.495,0.552-2.243
			c0.58,0.281,1.219,0.481,1.727,0.859c1.451,1.079,2.85,2.232,4.814,3.788c0-11.747,0-22.805,0-34.585
			c-2.15,1.888-3.71,3.259-5.271,4.63c-0.407-0.206-0.813-0.412-1.22-0.618c2.604-8.854,5.209-17.709,7.815-26.563
			c0.505-0.042,1.01-0.083,1.516-0.124c3.171,8.397,6.373,16.784,9.45,25.217c0.208,0.569-0.52,1.479-1.021,2.766
			c-2.204-1.988-4.052-3.657-6.32-5.705c0,11.674,0,22.824,0,34.539c1.46-1.12,2.524-1.96,3.614-2.764
			c0.914-0.674,1.858-1.305,2.789-1.954c0.259,0.247,0.519,0.494,0.778,0.741c-2.637,8.431-5.274,16.861-8.088,25.86
			c2.031,0.24,3.327,0.522,4.623,0.527c13.375,0.047,26.75-0.035,40.121,0.129c3.142,0.038,4.089-1.018,4.057-4.069
			c-0.212-19.724-0.364-39.449-0.378-59.175c-0.01-15.466,0.283-30.932,0.299-46.397c0.012-11.605-0.258-23.209-0.302-34.814
			c-0.053-13.979-0.048-27.959,0.032-41.938c0.035-6.035-1.331-7.935-7.47-8.914c-9.324-1.487-18.677-2.787-28.008-4.225
			c-4.174-0.644-8.367-1.265-12.46-2.27c-1.085-0.267-1.833-1.913-2.735-2.925c1.082-0.546,2.242-1.678,3.232-1.545
			c8.397,1.124,16.776,2.408,25.135,3.793c4.287,0.709,8.517,1.754,12.786,2.581c2.059,0.398,3.44-0.099,4.269-2.443
			c0.552-1.562,2.33-2.65,3.348-4.1c0.786-1.12,1.771-2.471,1.771-3.719c-0.005-23.096-0.146-46.191-0.257-69.288
			c-0.007-1.469-0.001-2.938-0.001-5.685c-1.874,1.761-3.045,2.965-4.335,4.025c-0.554,0.455-1.353,0.612-2.041,0.905
			c-0.185-0.745-0.696-1.589-0.504-2.219c2.254-7.379,4.58-14.737,6.996-22.064c0.263-0.798,1.211-1.37,1.842-2.046
			c0.636,0.636,1.582,1.16,1.86,1.926c2.488,6.86,4.887,13.754,7.243,20.661c0.488,1.431,0.693,2.958,1.029,4.44
			c-0.289,0.16-0.578,0.319-0.867,0.48c-2.159-1.69-4.317-3.38-7.294-5.71c0,3.716,0,6.6,0,9.484
			c-0.008,20.864-0.006,41.729-0.035,62.592c-0.004,3.207-0.257,6.203,3.093,8.465c1.375,0.928,1.517,3.681,2.5,6.372
			c3.74,0.854,8.271,2.005,12.851,2.903c6.329,1.241,12.72,2.17,19.039,3.458c6.175,1.258,12.29,2.815,18.438,4.208
			c5.187,1.175,10.406,2.219,15.574,3.472c8.554,2.073,17.096,4.197,25.608,6.433c6.818,1.79,13.602,3.714,20.36,5.715
			c2.25,0.667,4.368,1.77,6.556,2.649c2.144,0.861,3.478,0.391,4.124-2.077c3.663-13.991,7.351-27.977,11.172-41.926
			c2.622-9.574,5.59-19.054,8.173-28.638c1.192-4.422,1.589-9.062,2.833-13.465c0.563-1.997,3.125-5.345,3.396-5.215
			c3.066,1.48,0.801,3.764,0.309,5.702c-4.445,17.475-8.918,34.943-13.492,52.384c-2.829,10.788-5.853,21.523-8.768,32.289
			c-0.221,0.815-0.266,1.677-0.448,2.881c7.675,2.82,15.289,5.483,22.795,8.419c5.471,2.14,10.969,4.32,16.156,7.051
			c7.646,4.024,15.384,6.875,24.25,6.085c5.152-0.458,5.485-0.108,5.021,4.947c-0.319,3.473,1.445,4.834,3.987,6.19
			c3.976,2.12,7.943,4.277,11.767,6.656c6.326,3.938,12.652,7.896,18.761,12.16c6.196,4.325,12.118,9.044,18.181,13.563
			c4.405,3.282,8.931,6.407,13.242,9.807c3.345,2.638,6.511,5.518,9.628,8.427c3.192,2.98,6.152,6.212,9.378,9.153
			c1.021,0.931,2.578,1.271,3.879,1.902c0.622,0.303,1.534,0.507,1.775,1.013c2.921,6.129,8.972,9.147,13.473,13.694
			c0.864,0.872,1.828,1.654,2.631,2.579c3.657,4.208,7.111,8.606,10.948,12.641c3.775,3.968,8.025,7.479,11.879,11.376
			c3.892,3.934,7.529,8.116,11.321,12.149c3.928,4.179,7.86,8.355,11.915,12.409c0.608,0.607,1.934,0.839,2.862,0.725
			c3.541-0.438,6.213,0.563,7.923,3.865c0.456,0.881,1.343,2.17,2.059,2.187c6.83,0.166,13.667,0.1,21.188,0.1
			c-2.859-8.757-5.516-16.896-8.174-25.036c0.324-0.283,0.648-0.567,0.973-0.85c1.929,1.469,3.857,2.938,6.136,4.674
			c0-8.585,0-16.547,0-24.509c-0.369-0.144-0.739-0.286-1.108-0.43c-0.686,1.077-1.195,2.347-2.105,3.177
			c-0.926,0.845-2.245,1.257-3.393,1.858c-0.248-0.285-0.495-0.571-0.743-0.856c2.617-8.781,5.233-17.562,7.851-26.342
			c0.512-0.042,1.023-0.084,1.535-0.125c4.648,8.166,5.646,17.824,10.546,26.148c-4.417,1.371-5.217-2.509-7.793-3.813
			c0,8.171,0,16.119,0,24.601c2.385-1.653,4.242-2.941,6.101-4.229c0.272,0.232,0.546,0.466,0.82,0.698
			c-2.486,8.029-4.972,16.059-7.665,24.76c16.899,0,32.864,0,48.829,0c0.203-0.222,0.406-0.442,0.609-0.665
			c-2.113-1.352-4.226-2.704-6.338-4.057c0.333-0.495,0.666-0.99,1-1.484c0.734-0.233,1.596-0.844,2.187-0.645
			c8.49,2.85,16.942,5.808,25.404,8.74c0.027,0.42,0.055,0.84,0.082,1.26c-8.98,2.972-17.961,5.943-26.941,8.915
			c-0.195-0.361-0.391-0.722-0.586-1.082c1.934-2.177,3.866-4.354,6.457-7.271C540.586,344.742,515.447,344.742,489.514,344.742z
			 M296.403,194.249c-12.455-4.774-24.946-9.604-37.498-14.27c-0.778-0.29-2.474,0.423-2.974,1.179c-0.86,1.3-1.19,2.98-1.61,4.537
			c-3.178,11.77-6.398,23.53-9.448,35.334c-1.464,5.67-2.587,11.429-3.881,17.219c2.613-0.259,3.822-4.238,7.364-1.879
			c-2.879,4.603-5.799,8.961-8.382,13.511c-1.774,3.125-4.931,5.612-2.677,10.374c2.202,4.653-1.581,8.953-6.75,8.373
			c-2.575-0.288-5.1-1.276-7.555-2.195c-0.536-0.2-1.177-1.834-0.928-2.155c2.782-3.593,3.191-9.578,9.748-9.299
			c-0.722-7.901-1.407-15.396-2.098-22.945c4.882-0.894,3.805,4.819,6.838,5.297c0.757-2.514,1.563-4.953,2.226-7.43
			c2.603-9.729,5.159-19.47,7.736-29.205c1.845-6.969,3.72-13.931,5.529-20.909c0.501-1.935,0.185-3.137-2.313-3.615
			c-4.866-0.932-9.663-2.273-14.423-3.664c-2.226-0.65-4.222-2.121-6.458-2.689c-10.585-2.69-21.219-5.189-31.831-7.773
			c-5.549-1.352-11.064-2.856-16.641-4.084c-8.135-1.791-16.281-3.563-24.478-5.032c-8.219-1.471-16.543-2.364-24.749-3.9
			c-3.763-0.705-4.445,0.511-4.433,3.948c0.137,39.086,0.157,78.172,0.191,117.258c0.02,22.241,0.018,44.482-0.004,66.724
			c-0.002,2.378-0.177,4.281,3.36,4.27c32.123-0.107,64.246-0.038,96.368-0.056c2.184-0.001,5.023,0.947,5.312-2.79
			c1.051,0.096,2.219-0.045,3.103,0.392c0.418,0.205,0.292,1.515,0.399,2.229c20.49,0,40.69,0,60.958,0
			C296.403,292.166,296.403,243.616,296.403,194.249z M476.925,341.075c-1.106-1.943-1.694-3.545-2.758-4.715
			c-1.765-1.942-3.994-3.467-5.747-5.42c-3.63-4.045-6.92-8.402-10.639-12.359c-4.208-4.479-8.81-8.588-13.101-12.995
			c-5.016-5.151-9.771-10.56-14.848-15.649c-3.481-3.49-7.331-6.612-10.99-9.928c-3.71-3.362-7.387-6.76-10.877-9.957
			c-1.271,1.177-2.161,2.072-3.159,2.822c-0.11,0.083-1.279-0.771-1.221-1.014c0.342-1.427,0.902-2.8,1.448-4.361
			c-20.013-19.063-70.8-56.021-78.377-56.357c-0.091,0.589-0.266,1.191-0.265,1.792c0.006,13.357-0.218,26.722,0.172,40.068
			c0.162,5.549-1.79,11.466,1.915,16.71c0.36,0.511-0.356,1.812-0.627,2.729c-0.432,1.468-1.299,2.922-1.308,4.385
			c-0.092,14.611-0.045,29.224-0.039,43.836c0.002,6.709,0,13.419,0,20.412C376.639,341.075,426.302,341.075,476.925,341.075z"/>
		<path fill-rule="evenodd" clip-rule="evenodd" d="M325.253,176.044c-1.696,1.281-3.255,3.014-5.164,3.596
			c-0.656,0.201-2.189-2.473-3.574-4.137c-0.355,0.393-1.014,1.37-1.901,2.042c-1.201,0.908-2.535,2.145-3.889,2.253
			c-4.238,0.338-8.513,0.202-12.773,0.269c-2.618,0.04-4.2-1.061-4.646-3.776c-1.077-6.548,4.764-13.717,11.401-13.602
			c2.132,0.037,3.049-0.671,3.15-2.617c0.085-1.642,0.018-3.292,0.018-5.397c0.798-0.113,1.988-0.365,3.188-0.434
			c2.189-0.124,2.509,1.159,1.995,2.917c-0.508,1.736-1.063,3.458-1.423,4.623c2.69,1.032,4.864,2.11,7.164,2.634
			c0.966,0.22,2.223-0.677,3.307-1.159c3.017-1.344,4.096-0.622,4.186,3.014c-2.207,1.048-6.175-0.493-6.267,4.001
			c-0.066,3.231,1.164,5.102,4.975,4.697C325.083,175.326,325.167,175.685,325.253,176.044z M308.514,174.326
			c3.083,1.387,5.597,1.103,7.196-1.815c1.316-2.403-0.407-4.821-5.271-7.772C309.812,167.864,309.188,170.972,308.514,174.326z
			 M306.087,167.128c-0.87-1.194-1.177-2.048-1.724-2.248c-0.548-0.2-1.682,0.028-1.96,0.457c-1.575,2.424-3.03,4.935-4.373,7.497
			c-0.25,0.479,0.011,1.758,0.36,1.906c0.665,0.284,1.973,0.34,2.299-0.073C302.612,172.23,304.329,169.631,306.087,167.128z"/>
		<path fill-rule="evenodd" clip-rule="evenodd" d="M341.77,92.596c-2.185,0.343-4.447,0.697-6.709,1.052
			c0.266-2.242,0.408-4.508,0.836-6.719c0.339-1.756,1.024-3.444,1.556-5.163c-0.257-0.215-0.515-0.43-0.771-0.645
			c-1.717,1.849-3.55,3.607-5.109,5.58c-0.984,1.246-1.401,2.936-2.367,4.201c-0.883,1.156-2.164,2.009-3.268,2.995
			c-0.175-1.388-0.638-2.812-0.47-4.156c0.491-3.912,1.234-7.792,1.969-12.226c3.536-1.596,4.749-1.249,5.865,2.431
			c0.824-0.511,1.563-1.214,2.434-1.459c1.724-0.485,4.239-1.572,5.105-0.841c1.106,0.932,1.138,3.41,1.18,5.232
			c0.026,1.149-0.965,2.289-1.145,3.487c-0.151,1,0.215,2.077,1.002,3.106c1.932-3.31,4.179-6.273,3.021-10.318
			c-0.229-0.801,0.604-2.27,1.377-2.912c1.264-1.048,2.882-1.67,4.649-2.636c0.859,2.583,4.356,4.614-0.055,7.713
			c-1.637,1.15-1.748,4.472-2.477,6.578c0.796,1.112,2.228,2.869,2.109,2.981c-1.369,1.289-2.844,2.796-4.559,3.269
			C344.811,94.461,343.24,93.195,341.77,92.596z"/>
		<path fill-rule="evenodd" clip-rule="evenodd" d="M103.808,355.088c6.621,0.504,9.14,3.095,8.842,9.562
			c-0.338,7.349-6.934,16.157-14.681,16.104c-7.133-0.05-12.581-6.723-9.337-13.167c2.212-4.396,4.13-9.684,9.971-11.103
			C100.349,356.06,102.074,355.556,103.808,355.088z M108.54,362.894c-0.699-1.235-1.365-3.864-3.024-4.892
			c-1.358-0.841-4.354-0.438-5.831,0.573c-4.581,3.133-6.292,8.066-6.687,13.432c-0.35,4.749,3.745,8.656,6.786,6.365
			C104.477,374.837,107.494,369.942,108.54,362.894z"/>
		<path fill-rule="evenodd" clip-rule="evenodd" d="M395.144,89.327c0.102-5.809,5.805-11.794,11.471-11.98
			c4.005-0.132,3.359-3.153,3.649-5.663c0.131-1.132,0.139-2.593,0.827-3.253c0.609-0.584,2.491-0.73,3.073-0.223
			c0.714,0.621,1.118,2.247,0.855,3.223c-1.092,4.075-2.613,8.035-3.713,12.107c-0.533,1.973-0.437,4.109-0.717,6.158
			c-0.177,1.292-0.115,3.122-0.9,3.693c-0.935,0.68-2.661,0.3-4.046,0.327c-1.139,0.021-2.441-0.41-3.39,0.006
			C398.232,95.482,395.068,93.612,395.144,89.327z M401.174,91.851c2.202-3.074,4.136-5.587,5.832-8.252
			c0.487-0.767,0.294-1.967,0.412-2.969c-1.162-0.038-2.494-0.462-3.457-0.041C400.721,82.004,399.156,87.643,401.174,91.851z"/>
		<path fill-rule="evenodd" clip-rule="evenodd" d="M322.831,87.837c-0.755,4.145-4.641,6.68-8.267,6.5
			c-3.865-0.192-5.106-1.501-5.285-5.574c-0.226-5.15,4.204-11.542,9.33-12.479c1.529-0.28,3.979,1.17,4.997,2.565
			c0.679,0.931,0.134,3.769-0.854,4.686c-1.832,1.698-4.408,2.582-6.632,3.876c-0.666,0.388-1.645,0.993-1.67,1.535
			c-0.033,0.703,0.587,1.74,1.223,2.079c0.561,0.299,1.614,0.012,2.297-0.324C319.407,89.995,320.745,89.086,322.831,87.837z"/>
		<path fill-rule="evenodd" clip-rule="evenodd" d="M562.225,289.725c0.43-4.024,3.261-5.602,5.914-6.036
			c1.917-0.314,5.372,0.938,6.004,2.41c0.981,2.286,0.877,5.663-0.119,8.003c-1.033,2.426-3.697,4.145-5.604,6.214
			c-1.051,1.141-2.008,2.366-3.789,4.482c3.126-0.247,5.094-0.401,7.059-0.558c0.735,4.697-2.785,5.785-13.962,3.672
			c2.548-2.768,4.764-5.104,6.898-7.514c1.838-2.075,3.981-4.026,5.222-6.43c0.766-1.48,0.091-3.705,0.062-5.595
			c-1.719,0.226-3.442,0.423-5.155,0.691C564.001,289.183,563.27,289.446,562.225,289.725z"/>
		<path fill-rule="evenodd" clip-rule="evenodd" d="M367.16,87.707c0.086-4.936,6.002-11.515,10.68-10.832
			c2.279,0.333,5.319,2.786,6.051,4.945c1.854,5.467-3.992,12.458-9.797,12.61C368.747,94.57,367.068,92.943,367.16,87.707z
			 M370.43,88.44c1.257,1.532,1.876,2.952,2.874,3.309c0.907,0.325,2.865-0.166,3.25-0.889c1.319-2.476,2.316-5.167,3.068-7.877
			c0.223-0.801-0.536-2.25-1.286-2.813c-0.508-0.379-2.206-0.052-2.649,0.52C373.851,83.057,372.29,85.638,370.43,88.44z"/>
		<path fill-rule="evenodd" clip-rule="evenodd" d="M159.051,22.627c2.261-2.406,5.831-4.212,3.739-8.361
			c-0.187-0.371,1.428-2.284,1.766-2.17c1.138,0.382,2.359,1.177,2.989,2.17c0.396,0.625,0.116,2.142-0.417,2.821
			c-4.616,5.876-9.346,11.664-14.097,17.433c-0.303,0.368-1.066,0.355-2.476,0.778c0.691-1.61,0.995-2.591,1.506-3.449
			c0.859-1.44,2.695-2.845,2.627-4.188c-0.207-4.058-0.905-8.135-1.908-12.08c-0.311-1.224-2.482-2.228-0.412-3.478
			c1.948-1.177,4.137-0.691,5.051,1.445c0.858,2.005,1.009,4.319,1.414,6.507C158.987,20.898,158.982,21.77,159.051,22.627z"/>
		<path fill-rule="evenodd" clip-rule="evenodd" d="M532.098,315.013c0.06-0.659-0.142-1.626,0.22-1.934
			c6.043-5.154,2.914-11.38,2.085-17.319c-0.15-1.075-0.561-2.116-0.851-3.173c1.05-0.227,2.403-0.966,3.083-0.564
			c1.133,0.669,2.267,1.944,2.622,3.187c0.604,2.105,0.582,4.388,0.87,6.59c0.056,0.43,0.322,0.832,0.654,1.643
			c1.392-1.984,2.696-3.539,3.613-5.296c0.396-0.761-0.126-1.951-0.021-2.924c0.121-1.114,0.477-2.203,0.73-3.303
			c1.16,0.629,3.111,1.074,3.309,1.926c0.351,1.521,0.145,3.629-0.715,4.885c-2.405,3.516-5.181,6.792-7.97,10.025
			c-2.063,2.392-4.379,4.567-6.582,6.839C532.797,315.4,532.447,315.207,532.098,315.013z"/>
		<path fill-rule="evenodd" clip-rule="evenodd" d="M30.064,292.413c6.109-1.577,6.844-1.094,7.439,4.194
			c0.14,1.235,0.314,2.468,0.532,3.691c0.077,0.433,0.33,0.833,0.608,1.502c3.541-2.378,6.153-4.786,3.246-9.919
			c1.853,0.137,3.823,0.067,3.866,0.319c0.294,1.755,0.931,4.119,0.081,5.283c-3.892,5.335-8.179,10.39-12.472,15.418
			c-0.749,0.877-2.21,1.145-3.637,1.271c1.3-3.924,6.154-5.69,4.69-10.839C33.37,299.641,34.324,295.323,30.064,292.413z"/>
		<path fill-rule="evenodd" clip-rule="evenodd" d="M193.962,392.111c-3.707,0.292-7.315,0.689-7.207,5.191
			c0.071,2.945,2.288,3.703,6.264,3.044c-2.269,2.715-3.771,4.513-5.72,6.845c-1.447-2.066-2.45-3.497-3.862-5.511
			c-0.729,0.769-1.424,1.724-2.33,2.392c-0.91,0.672-1.999,1.167-3.085,1.474c-0.222,0.063-1.242-1.305-1.092-1.585
			c0.429-0.806,1.163-1.582,1.966-2.035c5.252-2.965,5.161-6.533-0.632-11.754c2.214-1.727,4.249-2.912,6.429-0.126
			c1.511,1.934,2.905,0.838,4.101-0.179C191.789,387.322,192.686,389.442,193.962,392.111z"/>
		<path fill-rule="evenodd" clip-rule="evenodd" d="M209.301,478.52c-1.426,0.752-3.529,1.861-5.632,2.972
			c-0.305-0.315-0.61-0.63-0.916-0.945c0.23-0.835,0.186-2.012,0.734-2.452c7.356-5.91,7.439-6.598,0.553-12.633
			c2.665-0.968,4.761-2.715,7.173,0.284c0.351,0.437,2.033-0.124,3.076-0.337c1.381-0.281,2.766-0.975,4.092-0.856
			c0.462,0.041,0.756,1.971,1.272,3.457c-3.765-0.113-6.675,0.655-6.66,4.522c0.011,2.861,1.687,4.502,4.951,3.815
			c0.151,3.044-1.753,4.422-3.868,4.597C212.712,481.057,211.211,479.554,209.301,478.52z"/>
		<path fill-rule="evenodd" clip-rule="evenodd" d="M620.057,322.356c2.42,0.336,4.84,0.671,7.26,1.007
			c-0.026,0.416-0.052,0.831-0.076,1.247c1.405-0.706,2.751-1.637,4.239-2.031c0.84-0.223,1.913,0.439,2.881,0.703
			c-0.688,0.657-1.272,1.675-2.084,1.911c-3.202,0.929-4.84,2.578-3.211,5.95c0.357,0.74,1.187,1.557,1.946,1.745
			c2.605,0.646,2.713,1.746,0.969,3.503c-3.444,3.472-4.724,3.118-6.863-1.967c-1.279,1.134-2.441,2.427-3.859,3.305
			c-0.681,0.422-1.847,0.06-2.793,0.052c0.254-0.95,0.285-2.063,0.824-2.807c0.535-0.738,1.623-1.052,2.399-1.644
			c3.742-2.853,3.342-6.625-0.897-8.894c-0.391-0.208-0.674-0.617-1.008-0.933C619.874,323.121,619.966,322.739,620.057,322.356z"/>
		<path fill-rule="evenodd" clip-rule="evenodd" d="M303.272,79.913c-3.534,1.29-6.227,4.945-5.758,8.125
			c0.508,3.441,2.352,4.206,5.107,2.104c0.586-0.447,1.065-1.208,1.705-1.363c0.707-0.17,1.542,0.191,2.321,0.321
			c-0.158,0.693-0.117,1.538-0.508,2.054c-1.572,2.073-7.134,3.632-9.657,2.833c-3.399-1.075-5.066-7.16-2.331-10.51
			c2.134-2.613,5.084-4.66,7.959-6.513c0.962-0.621,3.108-0.317,4.174,0.384c1.13,0.742,1.938,2.393,2.229,3.784
			c0.11,0.527-1.611,1.439-2.499,2.175C305.194,82.291,304.373,81.275,303.272,79.913z"/>
		<path fill-rule="evenodd" clip-rule="evenodd" d="M352.204,93.315c-0.119-5.26,4.394-9.559,1.907-15.035
			c1.884-1.102,3.55-2.65,5.771-0.227c0.435,0.475,2.029-0.224,3.079-0.173c1.271,0.062,2.531,0.344,3.798,0.532
			c-0.586,1.445-1.293,4.184-1.741,4.142c-6.114-0.566-5.982,4.58-7.551,8.018C356.025,93.734,355.474,94.181,352.204,93.315z"/>
		<path fill-rule="evenodd" clip-rule="evenodd" d="M388.734,77.39c1.017,0,2.844,0,4.671,0c-0.093,1.537,0,3.114-0.318,4.604
			c-0.577,2.702-3.02,5.233-0.334,8.185c0.271,0.298-0.701,2.464-1.531,2.867c-1.436,0.696-3.21,0.821-4.847,0.841
			c-0.254,0.003-0.877-1.883-0.724-2.793c0.322-1.919,1.144-3.749,1.58-5.657C387.777,83.042,388.144,80.607,388.734,77.39z"/>
		<path fill-rule="evenodd" clip-rule="evenodd" d="M545.682,308.021c4.538-8.433,9.076-16.864,13.613-25.297
			c0.51,0.202,1.021,0.404,1.529,0.606c-1.001,2.706-1.804,5.509-3.045,8.1c-2.394,4.992-4.95,9.913-7.633,14.756
			c-0.674,1.218-2.081,2.029-3.151,3.028C546.557,308.816,546.119,308.419,545.682,308.021z"/>
		<path fill-rule="evenodd" clip-rule="evenodd" d="M30.329,282.001c5.959,0,11.918,0,17.877,0c0.157,0.334,0.313,0.669,0.47,1.004
			c-1.096,0.55-2.165,1.496-3.294,1.573c-3.265,0.224-6.559,0.21-9.832,0.064c-1.823-0.081-3.627-0.612-5.439-0.94
			C30.183,283.135,30.256,282.568,30.329,282.001z"/>
		<path fill-rule="evenodd" clip-rule="evenodd" d="M195.145,383.606c-6.875,2.297-12.883,1.025-19.5,0.425
			C178.188,381.41,191.312,381.164,195.145,383.606z"/>
		<path fill-rule="evenodd" clip-rule="evenodd" d="M392.952,75.84c-1.002-1.481-2.032-2.335-1.997-3.143
			c0.034-0.792,1.152-1.537,1.795-2.302c0.713,0.721,1.896,1.38,2.004,2.182C394.859,73.361,393.866,74.292,392.952,75.84z"/>
		<path fill-rule="evenodd" clip-rule="evenodd" d="M420.051,273.03c-0.311-1.202-0.715-2.395-0.823-3.614
			c-0.016-0.176,1.393-0.479,2.143-0.723c0.217,1.356,0.434,2.714,0.65,4.07C421.364,272.852,420.708,272.94,420.051,273.03z"/>
		<path fill-rule="evenodd" clip-rule="evenodd" fill="#FFFFFF" d="M296.403,194.249c0,49.367,0,97.917,0,146.751
			c-20.268,0-40.468,0-60.958,0c-0.107-0.714,0.019-2.023-0.399-2.229c-0.884-0.437-2.051-0.296-3.103-0.392
			c-0.289,3.737-3.128,2.789-5.312,2.79c-32.123,0.018-64.246-0.052-96.368,0.056c-3.537,0.012-3.362-1.892-3.36-4.27
			c0.022-22.241,0.024-44.482,0.004-66.724c-0.035-39.086-0.054-78.172-0.191-117.258c-0.012-3.437,0.67-4.652,4.433-3.948
			c8.205,1.536,16.53,2.429,24.749,3.9c8.197,1.468,16.343,3.241,24.478,5.032c5.577,1.228,11.092,2.732,16.641,4.084
			c10.612,2.584,21.246,5.083,31.831,7.773c2.236,0.568,4.232,2.039,6.458,2.689c4.761,1.391,9.558,2.732,14.423,3.664
			c2.498,0.479,2.814,1.681,2.313,3.615c-1.809,6.979-3.684,13.94-5.529,20.909c-2.577,9.735-5.133,19.476-7.736,29.205
			c-0.663,2.477-1.469,4.916-2.226,7.43c-3.033-0.478-1.956-6.19-6.838-5.297c0.69,7.549,1.375,15.044,2.098,22.945
			c-6.557-0.279-6.965,5.706-9.748,9.299c-0.249,0.321,0.393,1.955,0.928,2.155c2.455,0.919,4.98,1.907,7.555,2.195
			c5.168,0.58,8.951-3.72,6.75-8.373c-2.254-4.762,0.903-7.249,2.677-10.374c2.583-4.55,5.503-8.908,8.382-13.511
			c-3.542-2.358-4.751,1.62-7.364,1.879c1.294-5.79,2.417-11.549,3.881-17.219c3.05-11.804,6.271-23.564,9.448-35.334
			c0.42-1.556,0.75-3.236,1.61-4.537c0.5-0.755,2.195-1.468,2.974-1.179C271.457,184.645,283.948,189.475,296.403,194.249z
			 M266.428,266.605c0.387,0.123,0.774,0.246,1.161,0.369c0.328,3.938,0.034,8.061,1.144,11.764
			c1.346,4.502-3.984,6.486-3.286,10.52c1.914-1.265,3.331-2.729,4.639-4.285c3.22-3.834,6.504-7.625,9.515-11.62
			c0.976-1.295,1.56-3.161,1.588-4.778c0.014-0.829-1.595-1.686-2.47-2.529c-0.525,0.975-1.581,2.01-1.48,2.915
			c0.352,3.153-0.199,5.563-4.251,6.972c-0.255-2.487-0.202-4.705-0.786-6.739c-0.406-1.413-1.489-2.843-2.673-3.72
			C269.041,265.112,267.493,266.185,266.428,266.605z M205.438,263.123c1.293,1.797,1.779,3.198,2.509,3.339
			c1.687,0.328,3.515,0.194,5.234-0.078c0.549-0.087,1.167-1.156,1.301-1.861c0.071-0.37-0.81-1.3-1.306-1.335
			C211.032,263.037,208.872,263.123,205.438,263.123z"/>
		<path fill-rule="evenodd" clip-rule="evenodd" fill="#FFFFFF" d="M476.925,341.075c-50.623,0-100.286,0-150.419,0
			c0-6.993,0.002-13.703,0-20.412c-0.006-14.612-0.053-29.225,0.039-43.836c0.009-1.463,0.876-2.917,1.308-4.385
			c0.271-0.918,0.987-2.219,0.627-2.729c-3.705-5.244-1.753-11.161-1.915-16.71c-0.39-13.347-0.166-26.711-0.172-40.068
			c-0.001-0.602,0.174-1.204,0.265-1.792c7.577,0.335,58.364,37.294,78.377,56.357c-0.546,1.562-1.106,2.935-1.448,4.361
			c-0.059,0.242,1.11,1.097,1.221,1.014c0.998-0.75,1.888-1.646,3.159-2.822c3.49,3.197,7.167,6.595,10.877,9.957
			c3.659,3.315,7.509,6.438,10.99,9.928c5.076,5.09,9.832,10.498,14.848,15.649c4.291,4.407,8.893,8.516,13.101,12.995
			c3.719,3.957,7.009,8.314,10.639,12.359c1.753,1.953,3.982,3.478,5.747,5.42C475.23,337.53,475.818,339.132,476.925,341.075z"/>
		<path fill-rule="evenodd" clip-rule="evenodd" fill="#FFFFFF" d="M308.514,174.326c0.673-3.354,1.297-6.462,1.925-9.588
			c4.863,2.951,6.587,5.369,5.271,7.772C314.111,175.429,311.598,175.713,308.514,174.326z"/>
		<path fill-rule="evenodd" clip-rule="evenodd" fill="#FFFFFF" d="M306.087,167.128c-1.758,2.503-3.475,5.102-5.398,7.538
			c-0.326,0.414-1.634,0.357-2.299,0.073c-0.349-0.148-0.611-1.427-0.36-1.906c1.343-2.562,2.798-5.072,4.373-7.497
			c0.278-0.429,1.412-0.656,1.96-0.457C304.91,165.08,305.218,165.934,306.087,167.128z"/>
		<path fill-rule="evenodd" clip-rule="evenodd" fill="#FFFFFF" d="M108.54,362.894c-1.046,7.049-4.063,11.943-8.756,15.479
			c-3.041,2.291-7.135-1.616-6.786-6.365c0.395-5.365,2.106-10.299,6.687-13.432c1.477-1.011,4.472-1.414,5.831-0.573
			C107.174,359.029,107.841,361.658,108.54,362.894z"/>
		<path fill-rule="evenodd" clip-rule="evenodd" fill="#FFFFFF" d="M401.174,91.851c-2.018-4.208-0.453-9.847,2.787-11.262
			c0.963-0.421,2.295,0.003,3.457,0.041c-0.118,1.002,0.075,2.203-0.412,2.969C405.31,86.264,403.376,88.777,401.174,91.851z"/>
		<path fill-rule="evenodd" clip-rule="evenodd" fill="#FFFFFF" d="M370.43,88.44c1.86-2.802,3.421-5.383,5.257-7.751
			c0.443-0.572,2.142-0.899,2.649-0.52c0.75,0.564,1.509,2.013,1.286,2.813c-0.752,2.71-1.749,5.401-3.068,7.877
			c-0.385,0.723-2.343,1.214-3.25,0.889C372.306,91.392,371.687,89.972,370.43,88.44z"/>
		<path fill-rule="evenodd" clip-rule="evenodd" d="M266.428,266.605c1.065-0.421,2.613-1.493,3.1-1.133
			c1.184,0.877,2.268,2.307,2.673,3.72c0.584,2.034,0.531,4.252,0.786,6.739c4.052-1.409,4.603-3.818,4.251-6.972
			c-0.101-0.905,0.955-1.94,1.48-2.915c0.875,0.844,2.484,1.7,2.47,2.529c-0.028,1.617-0.612,3.483-1.588,4.778
			c-3.011,3.995-6.294,7.786-9.515,11.62c-1.308,1.557-2.725,3.021-4.639,4.285c-0.699-4.033,4.632-6.018,3.286-10.52
			c-1.109-3.703-0.815-7.826-1.144-11.764C267.202,266.852,266.814,266.729,266.428,266.605z"/>
		<path fill-rule="evenodd" clip-rule="evenodd" d="M205.438,263.123c3.434,0,5.594-0.086,7.738,0.064
			c0.496,0.035,1.377,0.965,1.306,1.335c-0.134,0.705-0.752,1.774-1.301,1.861c-1.719,0.272-3.547,0.406-5.234,0.078
			C207.217,266.321,206.731,264.92,205.438,263.123z"/>
	</g>
</g>
</svg>
