<?xml version="1.0" encoding="utf-8"?>
<!-- Generator: Adobe Illustrator 16.0.0, SVG Export Plug-In . SVG Version: 6.00 Build 0)  -->
<!DOCTYPE svg PUBLIC "-//W3C//DTD SVG 1.1//EN" "http://www.w3.org/Graphics/SVG/1.1/DTD/svg11.dtd">
<svg version="1.1" id="Layer_1" xmlns="http://www.w3.org/2000/svg" xmlns:xlink="http://www.w3.org/1999/xlink" x="0px" y="0px"
	 width="516.822px" height="280.539px" viewBox="0 0 516.822 280.539" enable-background="new 0 0 516.822 280.539"
	 xml:space="preserve">
<g>
	<g>
		<path fill-rule="evenodd" clip-rule="evenodd" fill="#FFFFFF" d="M0.783,281.13c0-93.31,0-186.779,0-280.314
			c172.156,0,344.346,0,516.662,0c0,93.34,0,186.747,0,280.314C345.32,281.13,173.068,281.13,0.783,281.13z M275.112,51.364
			c-49.905,0-98.628,0-147.351,0c-0.194-0.305-0.388-0.61-0.581-0.915c2.182-2.241,4.363-4.481,6.544-6.722
			c-1.888-0.815-3.359-1.157-4.549-0.725c-1.323,0.48-2.322,2.303-3.579,2.437c-7.211,0.764-13.457,5.708-21.046,4.792
			c-0.556-0.067-1.48,0.708-1.753,1.309c-0.174,0.383,0.396,1.355,0.888,1.731c0.771,0.59,1.721,1.006,2.656,1.311
			c5.789,1.888,11.573,3.795,17.403,5.546c2.965,0.89,6.024,1.466,9.688,2.337c-2.319-2.913-3.947-4.957-5.876-7.379
			c49.441,0,98.31,0,147.98,0c-1.929,2.688-3.418,4.762-4.906,6.837c0.23,0.407,0.46,0.814,0.69,1.222
			c7.796-2.639,15.593-5.277,23.782-8.049c0.263,1.144,0.733,2.279,0.753,3.421c0.144,8.237,0.09,16.478,0.326,24.711
			c0.101,3.523-1.361,4.377-4.681,4.433c-18.834,0.314-37.666,0.774-56.495,1.333c-16.109,0.479-32.262,0.242-48.171,3.761
			c-5.681,1.256-11.619,1.332-17.43,2.023c-4.686,0.557-9.399,1.012-14.028,1.892c-8.693,1.655-17.365,3.451-25.983,5.453
			c-4.587,1.065-9.146,2.427-13.533,4.13c-4.17,1.617-8.101,3.852-12.485,5.984c-0.226,1.194-0.563,2.974-0.833,4.405
			c-2.091,0.133-3.74,0.237-5.389,0.341c0.007,0.575,0.014,1.15,0.021,1.725c1.647,0.101,3.294,0.202,5.518,0.338
			c0,2.347-0.01,4.797,0.002,7.248c0.049,10.108,0.051,20.219,0.189,30.327c0.046,3.405,0.954,6.118,4.98,7.271
			c4.794,1.371,9.327,3.63,14.036,5.331c2.189,0.79,4.498,1.391,6.802,1.699c7.738,1.033,15.488,2.001,23.254,2.802
			c11.482,1.183,22.976,2.272,34.477,3.252c3.975,0.338,8,0.074,11.983,0.355c11.14,0.783,22.259,2.203,33.407,2.468
			c19.981,0.475,39.979,0.42,59.968,0.265c3.988-0.03,4.548,1.627,4.521,4.815c-0.061,6.871,0.002,13.745,0.128,20.616
			c0.014,0.76,0.769,1.507,1.18,2.259c0.574-0.743,1.622-1.471,1.646-2.232c0.158-4.866,0.093-9.741,0.098-14.613
			c0.003-3.454,0-6.908,0-10.781c2.653,0,4.501,0.029,6.347-0.005c24.814-0.466,49.63-0.868,74.44-1.455
			c8.071-0.191,16.135-0.815,24.194-1.351c7.29-0.483,14.582-0.996,21.852-1.717c8.218-0.813,16.433-1.722,24.61-2.864
			c10.948-1.529,22.026-1.886,32.596-6.165c7.933-3.212,10.073-5.093,10.018-13.886c-0.069-10.952,0.241-21.914-0.157-32.852
			c-0.095-2.597-1.699-6.153-3.758-7.46c-4.833-3.068-10.232-5.393-15.645-7.35c-4.451-1.61-9.376-1.884-13.868-3.408
			c-9.686-3.289-19.754-4.273-29.771-5.649c-6.738-0.926-13.499-1.702-20.222-2.733c-3.752-0.576-7.415-1.962-11.174-2.245
			c-10.682-0.801-21.394-1.187-32.089-1.807c-5.57-0.322-11.128-0.909-16.701-1.138c-2.159-0.088-4.345,0.487-6.52,0.747
			c-0.724,0.086-1.474,0.272-2.175,0.167c-2.26-0.338-4.496-1.112-6.75-1.145c-10.49-0.152-20.982-0.133-31.475-0.127
			c-3.181,0.002-4.313-1.381-4.27-4.626c0.175-13.222,0.146-26.447,0.071-39.67c-0.007-1.182-0.896-2.359-1.374-3.54
			c-0.481,0.105-0.963,0.211-1.444,0.315c0,2.413-0.029,4.826,0.009,7.238c0.035,2.325-0.734,3.679-3.344,2.947
			c-6.373-1.787-12.741-3.589-19.113-5.378c-1.172-0.329-2.354-0.622-3.531-0.932c-0.177,0.316-0.354,0.632-0.532,0.948
			C271.24,46.893,272.892,48.799,275.112,51.364z M342.104,51.422c-6.259,0-11.589,0-16.919,0c-0.435-0.565-0.87-1.132-1.305-1.697
			c1.486-0.84,3.162-1.47,4.397-2.587c0.966-0.874,1.384-2.352,2.063-3.593c-8.239,2.419-15.803,4.434-23.196,6.947
			c-1.957,0.666-5.322,0.267-5.81,4.083c10.178,0.904,18.593,7.368,28.525,7.962c0.116-0.318,0.232-0.636,0.349-0.954
			c-1.824-2.025-3.649-4.049-5.815-6.452c6.304,0,11.923,0,18.238,0c-1.397,1.733-2.416,2.906-3.329,4.155
			c-0.846,1.158-1.58,2.398-2.627,4.008c10.368-1.684,18.507-7.128,27.903-8.661c-0.505,1.791-0.823,2.917-1.141,4.042
			c0.805,0.183,1.609,0.366,2.414,0.548c0.109-1.125,0.223-2.251,0.318-3.377c0.01-0.111-0.152-0.25-0.124-0.344
			c1.175-4.01,1.142-4.887-4.202-4.472c-5.433,0.422-11.149-3.076-16.774-4.747c-2.855-0.848-5.783-1.453-8.679-2.167
			c-0.109,0.287-0.219,0.574-0.328,0.861C337.904,46.941,339.745,48.905,342.104,51.422z M38.082,128.513
			c-0.467-0.203-0.933-0.405-1.4-0.607c-2.017,0.378-4.117,0.519-6.034,1.187c-3.549,1.236-8.097,8.734-7.522,12.39
			c0.584,3.717,3.183,6.061,9.457,2.612c0.953,0.509,1.854,1.233,2.871,1.48c2.205,0.536,5.562-2.356,4.424-3.521
			c-3.442-3.519,0.585-6.353,0.462-9.529c-0.075-1.923,1.79-2.638,3.449-1.128c1.816,1.651,2.312,14.434,0.543,16.167
			c-1.063,1.042-2.597,1.647-3.995,2.283c-0.73,0.333-1.625,0.307-2.458,0.445c0.701,3.132,2.393,3.737,4.887,1.939
			c6.053-4.363,10.76-9.983,14.731-16.212c0.882-1.384,1.224-3.288,1.252-4.961c0.012-0.722-1.404-1.468-2.171-2.205
			c-0.511,0.793-1.635,1.819-1.436,2.342c1.679,4.408-1.804,5.946-4.416,9.136c-0.467-2.646-0.985-4.311-1.012-5.983
			c-0.056-3.532-0.719-6.056-5.2-5.735c-2.316,0.166-2.758-1.619-2.109-3.674c0.607-1.923,1.115-3.876,1.667-5.817
			c-0.282-0.226-0.563-0.452-0.844-0.678c-1.544,0.997-4.544-1.812-4.842,2.387C38.203,123.386,38.178,125.952,38.082,128.513z
			 M67.066,159.813c-0.381,0.001-0.762,0.001-1.144,0.001c-2.829,9.942-5.657,19.885-8.486,29.827
			c0.361,0.156,0.722,0.313,1.083,0.468c2.013-1.731,4.026-3.463,6.916-5.949c0,8.118-0.012,14.947,0.005,21.775
			c0.007,2.989-0.029,5.986,0.189,8.962c0.052,0.702,1.053,1.335,1.617,2c0.479-0.617,1.09-1.177,1.394-1.871
			c0.232-0.528,0.092-1.226,0.088-1.848c-0.049-6.859-0.109-13.72-0.155-20.579c-0.016-2.43-0.002-4.859-0.002-8.411
			c2.465,1.957,3.904,3.195,5.448,4.285c0.762,0.538,1.717,0.802,2.585,1.19c-0.008-1.047,0.245-2.18-0.067-3.127
			c-2.59-7.868-5.268-15.707-7.963-23.539C68.195,161.894,67.575,160.872,67.066,159.813z M64.761,94.825
			c-2.864-2.94-4.937-5.067-7.009-7.195c-0.307,0.239-0.614,0.478-0.921,0.716c1.365,10.213,8.144,19.119,7.606,29.904
			c2.27,1.041,3.248,1.028,3.948-2.294c1.424-6.755,3.908-13.282,5.845-19.935c0.743-2.551,1.184-5.191,1.763-7.791
			c-0.444-0.204-0.889-0.408-1.333-0.612c-2.024,2.308-4.048,4.616-6.602,7.527c0-6.619-0.015-12.278,0.004-17.937
			c0.016-4.612,0.149-9.227,0.039-13.834c-0.02-0.851-0.951-1.68-1.462-2.52c-0.515,0.841-1.136,1.639-1.504,2.54
			c-0.219,0.535-0.045,1.232-0.04,1.856c0.068,7.985,0.167,15.971,0.182,23.956C65.28,90.91,64.974,92.614,64.761,94.825z
			 M429.256,245.624c3.264-5.672,1.585-6.585-3.111-6.348c-0.125,0.006-0.26-0.038-0.374-0.005c-1.563,0.453-4.25,0.618-4.465,1.433
			c-0.542,2.059-0.231,4.468,0.246,6.624c0.298,1.347,1.762,2.402,2.247,3.753c0.34,0.944-0.089,2.164-0.175,3.263
			c-1.337-0.501-2.741-0.88-3.976-1.565c-0.446-0.249-0.485-1.231-0.83-2.224c-1.339,0.926-2.378,1.645-3.416,2.363
			c-0.338-0.089-0.677-0.178-1.015-0.266c0.836-4.354,1.671-8.708,2.534-13.215c-1.871,0-2.987,0.044-4.098-0.007
			c-7.869-0.359-13.296,4.163-13.655,11.931c-0.084,1.82,1.125,4.07,2.453,5.421c0.612,0.622,2.94-0.492,4.502-0.74
			c1.033-0.164,2.479-0.664,3.061-0.186c1.695,1.396,3.041,1.667,4.765,0.137c0.418-0.371,1.438-0.215,2.141-0.084
			c2.364,0.442,4.697,1.323,7.065,1.406c3.835,0.135,6.131-2.632,5.223-6.35c-0.471-1.931-1.634-3.88-2.985-5.363
			c-1.92-2.108-1.471-3.325,0.82-4.695C427.222,242.472,428.127,243.876,429.256,245.624z M312.909,239.221
			c0,0.026,0,0.053-0.001,0.08c-1.618,0-3.511-0.536-4.796,0.119c-2.206,1.124-4.502,2.663-5.889,4.641
			c-1.407,2.008-0.694,4.328,1.709,5.867c0.434,0.277,0.445,2.064,0.001,2.699c-1.328,1.9-3.031,3.534-4.492,5.349
			c-1.857,2.309-1.537,3.96,1.219,5.569c4.953,2.893,9.592,1.883,14.124-0.611c2.774-1.526,2.823-5.151,0.146-7.021
			c-1.227-0.857-2.907-1.041-4.333-1.646c-0.803-0.342-1.505-0.923-2.252-1.396c0.621-0.573,1.147-1.403,1.882-1.678
			c3.584-1.338,6.82-2.905,7.046-7.413c0.018-0.346,0.196-0.725,0.404-1.013c0.602-0.83,1.259-1.621,1.894-2.429
			c-1.226-0.318-2.438-0.712-3.68-0.933C314.916,239.233,313.905,239.274,312.909,239.221z M385.718,256.255
			c5.938,0.144,6.8-5.027,9.472-8.041c1.335-1.507,2.344-3.569,2.734-5.532c0.197-0.984-1.318-2.312-2.059-3.483
			c-0.642,1.06-1.806,2.111-1.819,3.178c-0.034,2.591-0.286,4.815-3.629,6.404c-0.396-3.383-0.743-6.355-1.075-9.205
			c-3.286-1.133-3.701,1.543-4.83,3.135c-1.149,1.62-2.209,3.304-3.816,5.725c-2.635-10.015-2.635-10.015-6.7-8.725
			c1.048,5.322,2.078,10.557,3.242,16.475c0.924-0.569,2.046-1.027,2.84-1.815c0.769-0.765,1.078-1.978,1.814-2.789
			c0.665-0.732,1.636-1.187,2.471-1.764c0.333,0.854,0.798,1.684,0.966,2.57C385.572,253.673,385.603,255,385.718,256.255z
			 M445.343,242.356c0.372,0.145,0.742,0.288,1.114,0.433c-0.886,2.489-2.11,4.92-2.556,7.485c-0.391,2.249,0.094,4.649,0.192,6.982
			c1.955-0.967,3.91-1.935,5.866-2.901c-0.46-0.319-0.92-0.639-1.379-0.958c0.106-1.429,0.115-2.873,0.347-4.28
			c0.263-1.593,1.051-3.16,1.012-4.724c-0.041-1.608-0.373-3.65-1.404-4.636c-0.65-0.62-2.841,0.271-4.304,0.635
			c-1.135,0.282-2.212,0.798-3.956,1.449c0.769-3.424,1.515-6.496,2.119-9.597c0.176-0.905,0.098-2.669-0.122-2.712
			c-1.372-0.267-2.834-0.262-4.219-0.043c-0.182,0.028-0.096,1.794-0.121,2.755c-0.021,0.82,0.142,1.685-0.063,2.453
			c-1.688,6.322-3.504,12.612-5.105,18.956c-0.242,0.959,0.428,2.147,0.675,3.229c1.001-0.699,2.076-1.317,2.97-2.135
			c0.406-0.371,0.503-1.123,0.655-1.725C438.279,248.214,441.848,245.316,445.343,242.356z M140.063,230.841
			c-3.273-0.748-5.923-2.169-8.177-1.698c-4.523,0.944-9.167,2.001-12.695,5.656c-7.833,8.118-5.856,18.354,4.407,22
			c3.116,1.106,10.825-1.368,12.658-4.154c0.336-0.511,0.245-1.303,0.417-2.384c-2.398,1.255-4.367,2.318-6.365,3.322
			c-4.686,2.354-10.31-0.447-10.916-5.533c-0.607-5.092,0.937-9.623,4.373-13.373c4.652-5.076,10.796-3.728,12.873,2.694
			c0.146,0.452,0.434,0.859,0.656,1.287c0.417-0.081,0.833-0.162,1.251-0.243C139.065,235.814,139.586,233.215,140.063,230.841z
			 M185.882,243.223c-1.07,3.904-2.198,8.017-3.663,13.358c3.169-0.66,5.178-1.159,7.218-1.468c0.919-0.139,1.896,0.131,2.849,0.167
			c1.773,0.067,3.548,0.098,5.322,0.146c-0.127-1.31-0.337-2.618-0.358-3.929c-0.02-1.178-0.005-2.404,0.296-3.529
			c0.747-2.786,1.666-5.525,2.527-8.324c-3.862-1.181-4.187,1.26-5.183,3.281c-1.722,3.492-3.79,6.815-5.713,10.21
			c-0.573-0.267-1.146-0.533-1.719-0.799c0.881-2.811,1.918-5.584,2.575-8.446c0.308-1.34,0.408-3.402-0.356-4.128
			c-0.805-0.764-2.838-0.649-4.174-0.302c-0.983,0.256-1.708,1.503-2.549,2.309C183.88,242.229,184.804,242.688,185.882,243.223z
			 M230.963,239.226c-2.546,0-4.667,0.216-6.729-0.04c-7.182-0.89-12.321,7.568-12.476,12.541c-0.061,1.974,0.604,3.405,2.892,4.545
			c3.448,1.716,5.057-1.425,7.612-1.269c1.841,0.549,3.697,0.729,5.467,0.417c0.423-0.074,0.71-1.781,0.787-2.759
			c0.122-1.558-0.244-3.186,0.063-4.689C229.139,245.22,230.038,242.536,230.963,239.226z M291.145,255.729
			c6.132,0.32,6.382-0.016,5.551-4.918c-0.129-0.763,0.416-1.631,0.608-2.46c0.444-1.926,0.938-3.843,1.273-5.788
			c0.468-2.705-1.002-3.843-3.422-3.247c-2.017,0.496-3.877,1.625-6.024,2.569c-0.197-0.728-0.452-1.668-0.731-2.697
			c-1.927,0.094-3.587,0.175-5.452,0.267c3.394,6.142-2.669,10.564-1.779,16.081c1.716,0.827,2.771,0.531,3.896-1.53
			c2.038-3.735,4.558-7.215,7.004-10.711c0.402-0.575,1.461-0.691,2.838-1.29C293.541,246.984,292.4,251.146,291.145,255.729z
			 M341.006,239.26c-6.14-0.808-12.261,7.6-10.776,13.458c0.655,2.585,3.652,4.784,6.357,4.548
			c5.925-0.518,10.87-6.124,10.641-12.064C347.057,240.81,345.464,239.287,341.006,239.26z M465.793,253.592
			c-0.132-0.405-0.264-0.811-0.396-1.216c-1.408,0.441-2.793,1.1-4.233,1.258c-1.145,0.126-2.433-0.181-3.505-0.646
			c-0.564-0.245-0.804-1.24-1.189-1.896c0.869-0.455,1.741-0.904,2.607-1.365c2.419-1.287,5.146-2.232,7.122-4.013
			c0.997-0.897,0.979-3.365,0.709-5.007c-0.108-0.658-2.113-1.389-3.274-1.423c-5.177-0.154-9.91,3.34-11.045,8.691
			c-0.491,2.317-0.146,5.283,0.963,7.338c1.177,2.179,4.078,2.91,6.565,1.876C462.156,256.342,463.912,254.816,465.793,253.592z
			 M320.581,18.244c0.828,1.747,0.952,2.399,1.342,2.771c4.959,4.731,4.412,8.04-1.794,11.509c-0.64,0.357-0.793,1.586-1.172,2.41
			c0.294,0.296,0.588,0.593,0.881,0.89c2.246-0.949,4.492-1.896,6.738-2.844c-0.074,0.344-0.148,0.688-0.222,1.031
			c1.693,0.458,3.564,1.57,5.028,1.175c1.273-0.344,2.088-2.39,3.08-3.702c0.009-0.01-0.318-0.274-0.479-0.421
			c-0.987,0.346-1.974,0.692-2.993,1.048c-1.977-8.709-1.969-8.727,4.866-10.654c-0.418-2.828-1.743-3.397-4.442-2.246
			c-1.19,0.508-2.651,0.729-3.935,0.587C325.484,19.578,323.534,18.937,320.581,18.244z M193.435,32.669
			c1.679,0.931,3.384,2.653,4.882,2.49c1.541-0.169,2.88-2.178,4.308-3.382c-0.241-0.33-0.481-0.66-0.721-0.99
			c-1.059,0.338-2.117,0.678-3.159,1.012c-3.365-4.836-1.481-8.832,4.899-10.449c-0.526-3.531-1.759-3.604-7.688-0.401
			c-1.814-3.215-4.426-2.45-7.25-1.616c0.256,0.489,0.32,0.758,0.489,0.908c5.041,4.454,4.519,8.945-1.34,12.257
			c-0.657,0.372-0.944,1.398-1.402,2.121c0.32,0.422,0.64,0.845,0.96,1.267C189.459,34.792,191.507,33.698,193.435,32.669z
			 M208.601,253.271c-2.961-2.778-2.768-2.717-1.486-6.705c1.559-4.847,2.826-9.794,4.024-14.744
			c0.202-0.836-0.334-2.47-0.964-2.746c-1.023-0.448-2.404-0.08-3.635-0.057c0.031,0.972,0.116,1.944,0.079,2.914
			c-0.045,1.187-0.01,2.422-0.328,3.546c-1.639,5.811-3.5,11.562-4.984,17.41c-0.294,1.157,0.73,2.649,1.146,3.987
			c1.075-0.376,2.235-0.606,3.201-1.169C206.669,255.117,207.497,254.207,208.601,253.271z M175.858,241.026
			c1.201,1.812,2.004,3.025,2.807,4.238c1.108-1.183,2.217-2.365,3.325-3.546c-1.305-0.866-2.522-2.279-3.931-2.507
			c-8.088-1.308-11.846,4.858-12.509,10.433c-0.229,1.923,0.928,4.963,2.45,5.942c3.1,1.992,8.451,0.239,10.826-2.842
			c0.412-0.536,0.13-1.608,0.22-3.532c-1.518,1.618-2.09,2.418-2.838,2.988c-1.976,1.508-5.904,1.054-6.596-0.684
			C168.108,247.739,172.304,241.42,175.858,241.026z M467.621,255.414c1.891,1.8,3.168,1.547,4.236-0.763
			c0.951-2.054,2.128-4.01,3.305-5.95c1.225-2.021,2.013-4.652,5.466-3.661c0.509,0.146,1.805-1.398,2.233-2.38
			c0.317-0.728-0.18-1.812-0.314-2.736c-0.981,0.17-1.961,0.364-2.947,0.503c-0.955,0.134-2.04,0.547-2.858,0.254
			c-4.806-1.722-4.485-1.72-5.427,2.984C470.529,247.59,468.932,251.354,467.621,255.414z M350.992,239.13
			c-0.218,3.269-0.144,5.66-0.597,7.946c-0.429,2.163-1.605,4.176-2.059,6.337c-0.185,0.878,0.673,1.974,1.056,2.97
			c0.903-0.556,2.147-0.906,2.635-1.714c0.882-1.463,1.155-3.283,1.967-4.804c1.352-2.528,2.265-5.632,6.42-4.894
			c0.536,0.095,1.59-2.729,2.404-4.2c-1.209-0.446-2.391-1.115-3.635-1.266c-0.921-0.11-1.952,0.75-2.882,0.656
			C354.34,239.963,352.413,239.423,350.992,239.13z M230.839,255.631c3.6,0.087,3.389-0.041,4.799-3.511
			c1.499-3.686,2.38-8.216,7.992-8.2c0.482,0.002,0.97-2.327,1.456-3.574c-1.053-0.246-2.102-0.664-3.16-0.69
			c-1.057-0.027-2.152,0.589-3.181,0.475c-1.703-0.188-3.366-0.737-4.222-0.94C233.211,245.049,232.053,250.217,230.839,255.631z
			 M149.957,255.481c3.504,0.29,3.64,0.17,4.764-4.055c1.257-4.722,4.781-7.705,9.324-7.352c-0.091-1.563-0.177-3.051-0.264-4.538
			c-1.371,0.193-2.74,0.402-4.114,0.574c-0.51,0.063-1.045,0.129-1.543,0.043c-1.979-0.341-3.946-0.74-6.401-1.21
			C154.372,245.422,149.671,249.975,149.957,255.481z M258.414,239.86c-1.157,5.337-2.282,10.527-3.431,15.826
			c1.178,0,2.357,0,2.777,0c2.138-3.811,3.943-7.136,5.878-10.386c0.393-0.661,1.249-1.44,1.928-1.475
			c4.122-0.211,4.125-0.145,3.468-3.966C265.218,239.86,261.47,239.86,258.414,239.86z M204.527,40.984
			c7.716,1.05,8.296,0.801,9.198-3.761c-1.136,0.327-2.147,0.619-3.159,0.91c0.383-1.451,1.216-2.262,1.965-3.145
			c0.873-1.029,1.81-2.042,2.477-3.201c1.653-2.866,0.999-5.783-1.638-6.936c-2.843-1.243-4.804-0.067-6.086,2.479
			c1.899,0.508,3.595,0.962,5.291,1.416c-1.104,2.1-2.11,4.26-3.355,6.272c-0.561,0.906-1.707,1.43-2.388,2.286
			C206.032,38.309,205.448,39.486,204.527,40.984z M147.754,253.555c-4.305-5.152,1.661-9.438,0.911-14.491
			c-2.089,0.136-3.945,0.257-4.958,0.322c-0.279,2.607-0.318,4.569-0.734,6.449c-0.476,2.15-1.445,4.194-1.887,6.35
			c-0.225,1.095-0.059,3.156,0.45,3.34c1.272,0.458,2.882,0.282,4.273-0.022C146.495,255.352,146.994,254.354,147.754,253.555z
			 M279.867,239.452c-2.243,0-4.158,0-5.502,0c-0.294,2.764-0.446,5.282-0.866,7.757c-0.307,1.806-1.21,3.527-1.385,5.332
			c-0.125,1.3,0.513,2.674,0.81,4.015c1.325-0.435,2.718-0.734,3.947-1.357c0.66-0.335,1.04-1.223,1.547-1.86
			c-0.41-0.056-0.82-0.11-1.23-0.165c-0.043-1.789-0.426-3.654-0.049-5.351C277.747,245.085,278.856,242.459,279.867,239.452z
			 M343.214,41.266c0.616-2.861,1.091-5.263,1.656-7.642c0.573-2.412,1.438-4.777,1.736-7.216c0.085-0.7-1.352-1.586-2.09-2.387
			c-0.501,0.84-1.134,1.631-1.461,2.534c-0.277,0.765-0.073,1.697-0.307,2.49c-1.169,3.981-2.411,7.941-3.724,12.22
			C340.588,41.266,342.012,41.266,343.214,41.266z M106.987,107.561c-1.195-1.019-1.943-1.656-2.692-2.293
			c-0.536,0.725-1.489,1.451-1.486,2.176c0.001,0.661,0.96,1.734,1.636,1.856C105.026,109.405,105.802,108.422,106.987,107.561z"/>
		<path fill-rule="evenodd" clip-rule="evenodd" d="M275.112,51.364c-2.221-2.564-3.872-4.471-5.523-6.377
			c0.178-0.316,0.355-0.632,0.532-0.948c1.178,0.31,2.359,0.603,3.531,0.932c6.372,1.789,12.74,3.591,19.113,5.378
			c2.609,0.732,3.379-0.622,3.344-2.947c-0.038-2.412-0.009-4.825-0.009-7.238c0.481-0.104,0.963-0.21,1.444-0.315
			c0.479,1.18,1.367,2.357,1.374,3.54c0.075,13.224,0.104,26.448-0.071,39.67c-0.043,3.245,1.089,4.628,4.27,4.626
			c10.492-0.006,20.984-0.025,31.475,0.127c2.254,0.032,4.49,0.806,6.75,1.145c0.701,0.105,1.451-0.081,2.175-0.167
			c2.175-0.26,4.36-0.835,6.52-0.747c5.573,0.229,11.131,0.816,16.701,1.138c10.695,0.62,21.407,1.006,32.089,1.807
			c3.759,0.282,7.422,1.669,11.174,2.245c6.723,1.031,13.483,1.807,20.222,2.733c10.017,1.376,20.085,2.36,29.771,5.649
			c4.492,1.524,9.417,1.798,13.868,3.408c5.412,1.958,10.812,4.282,15.645,7.35c2.059,1.307,3.663,4.863,3.758,7.46
			c0.398,10.938,0.088,21.9,0.157,32.852c0.056,8.793-2.085,10.674-10.018,13.886c-10.569,4.279-21.647,4.636-32.596,6.165
			c-8.178,1.143-16.393,2.051-24.61,2.864c-7.27,0.721-14.562,1.233-21.852,1.717c-8.06,0.535-16.123,1.159-24.194,1.351
			c-24.811,0.587-49.626,0.989-74.44,1.455c-1.846,0.034-3.693,0.005-6.347,0.005c0,3.873,0.003,7.327,0,10.781
			c-0.005,4.872,0.061,9.747-0.098,14.613c-0.024,0.762-1.072,1.489-1.646,2.232c-0.411-0.752-1.166-1.499-1.18-2.259
			c-0.126-6.871-0.188-13.745-0.128-20.616c0.027-3.188-0.532-4.846-4.521-4.815c-19.988,0.155-39.987,0.21-59.968-0.265
			c-11.148-0.265-22.267-1.685-33.407-2.468c-3.983-0.281-8.008-0.018-11.983-0.355c-11.501-0.979-22.995-2.069-34.477-3.252
			c-7.766-0.801-15.516-1.769-23.254-2.802c-2.305-0.309-4.613-0.909-6.802-1.699c-4.709-1.701-9.242-3.96-14.036-5.331
			c-4.026-1.152-4.934-3.865-4.98-7.271c-0.138-10.107-0.14-20.218-0.189-30.327c-0.012-2.451-0.002-4.901-0.002-7.248
			c-2.223-0.136-3.871-0.237-5.518-0.338c-0.007-0.574-0.014-1.149-0.021-1.725c1.649-0.104,3.298-0.208,5.389-0.341
			c0.271-1.431,0.608-3.211,0.833-4.405c4.384-2.132,8.315-4.367,12.485-5.984c4.388-1.703,8.946-3.065,13.533-4.13
			c8.619-2.002,17.291-3.798,25.983-5.453c4.629-0.88,9.342-1.335,14.028-1.892c5.811-0.691,11.749-0.767,17.43-2.023
			c15.91-3.52,32.062-3.283,48.171-3.761c18.829-0.559,37.661-1.019,56.495-1.333c3.319-0.056,4.781-0.909,4.681-4.433
			c-0.236-8.233-0.183-16.474-0.326-24.711c-0.02-1.143-0.49-2.277-0.753-3.421c-8.189,2.772-15.986,5.41-23.782,8.049
			c-0.23-0.407-0.46-0.814-0.69-1.222c1.488-2.075,2.978-4.149,4.906-6.837c-49.67,0-98.539,0-147.98,0
			c1.929,2.422,3.557,4.466,5.876,7.379c-3.664-0.872-6.723-1.447-9.688-2.337c-5.831-1.75-11.615-3.658-17.403-5.546
			c-0.935-0.305-1.885-0.721-2.656-1.311c-0.492-0.376-1.063-1.348-0.888-1.731c0.272-0.602,1.197-1.376,1.753-1.309
			c7.59,0.917,13.835-4.027,21.046-4.792c1.257-0.133,2.256-1.957,3.579-2.437c1.189-0.432,2.661-0.091,4.549,0.725
			c-2.181,2.241-4.363,4.481-6.544,6.722c0.193,0.305,0.387,0.61,0.581,0.915C176.484,51.364,225.207,51.364,275.112,51.364z
			 M463.89,122.241c-1.683-0.969-3.365-1.938-5.047-2.907c-0.831-0.522-1.663-1.044-2.494-1.567
			c-4.543-2.242-6.482,0.959-8.471,4.051l0.184-0.248c-0.869-1.276-1.739-2.552-2.761-4.051c-3.06,1.002-6.637,2.174-10.54,3.453
			c-0.182-0.453-0.551-1.374-0.615-1.535c-2.7-0.291-4.778-0.684-6.852-0.669c-1.067,0.007-2.556,0.432-3.11,1.204
			c-1.462,2.033-2.19,2.266-3.623-0.106c-0.897-1.487-2.614-2.976-4.761-1.429c-1.439,1.037-2.674,2.845-4.22,3.135
			c-2.594,0.486-5.947-0.969-7.938,0.188c-4.409,2.562-4.763-0.697-6.121-3.708c-0.865,0.922-1.627,1.494-2.068,2.251
			c-1.145,1.965-2.139,2.075-3.631,0.249c-1.797-2.203-8.658-3.523-9.805-1.393c-2.36,4.384-5.725,2.487-8.837,2.665
			c-3.605,0.206-6.926,0.992-9.383,3.987c-0.449,0.548-1.402,0.769-2.168,0.953c-1.93,0.466-3.898,0.769-5.824,1.25
			c-1.053,0.263-2.02,0.962-3.074,1.112c-4.531,0.643-9.081,1.152-13.624,1.713c-11.002,1.357-21.972,3.23-33.016,3.901
			c-7.898,0.48-15.898-0.613-23.848-1.078c-7.063-0.412-14.119-0.917-21.177-1.401c-1.239-0.085-2.482-0.21-3.705-0.422
			c-5.081-0.879-10.169-1.727-15.224-2.742c-1.733-0.348-3.44-1.011-5.047-1.769c-3.944-1.86-7.657-4.883-11.768-5.544
			c-5.213-0.839-10.727,0.194-16.11,0.42c1.496-1.777,1.381-3.587-0.541-4.734c-0.685-0.409-2.738,0.103-3.096,0.769
			c-1.296,2.415,1.091,2.676,2.494,3.449c-1.883-0.984-3.764-1.973-5.648-2.954c-1.166-0.608-2.877-2.023-3.411-1.669
			c-2.325,1.544-4.317,0.228-6.461-0.049c-1.067-0.138-2.193,0.259-3.298,0.32c-2.197,0.122-4.538,0.703-6.569,0.158
			c-5.048-1.355-6.563-0.28-5.741,4.755c0.016,0.096-0.328,0.25-0.795,0.586c-1.275-1.981-2.54-3.944-4.014-6.235
			c-3.245,3.659-6.722,2.211-10.123,1.552c-0.236-0.045-0.471-0.089-0.706-0.133c-2.736,0.008-5.56-2.049-8.218,0.353
			c-0.123,0.111-0.643-0.272-0.995-0.349c-1.524-0.331-3.175-1.161-4.558-0.843c-3.646,0.836-7.177,2.175-10.783,3.323
			c0.642,1.262,1.146,2.256,1.652,3.25c-3.006-2.308-5.822-1.454-8.505-0.146c-3.178,1.548-5.404,1.052-6.499-2.73
			c-2.085,4.248-7.056-0.747-9.397,2.977c6.515,1.866,12.537,3.59,18.559,5.314c1.012-0.138,1.854,0.937,2.861,1.123
			c7.011,1.295,14.306,1.198,20.917,4.441c0.517,0.253,1.232,0.095,1.854,0.146c8.017,0.646,16.035,1.283,24.05,1.95
			c10.209,0.85,20.412,1.807,30.628,2.554c5.338,0.391,10.719,0.228,16.049,0.682c6.233,0.532,12.422,2.004,18.648,2.121
			c20.111,0.38,40.232,0.542,60.347,0.369c15.911-0.138,31.821-0.801,47.725-1.417c6.637-0.257,13.249-1.057,19.88-1.502
			c15.231-1.021,30.472-1.919,45.7-2.989c6.404-0.45,12.787-1.207,19.179-1.832c0.494-0.048,0.985-0.15,1.472-0.255
			c4.307-0.921,8.641-1.743,12.895-2.865c0.859-0.227,1.414-1.601,2.109-2.446c0.285,0.355,0.607,1.042,0.851,1.015
			c4.383-0.483,8.88-0.596,13.097-1.735c4.134-1.116,7.98-3.295,12.31-5.161c-0.629-0.482-1.399-1.495-2.345-1.7
			c-1.445-0.312-3.02-0.148-4.522-0.011c-0.508,0.047-0.968,0.628-1.45,0.966c-0.015-1.376,0.544-3.267-0.147-4.036
			c-2.475-2.756-4.124,0.925-6.444,1.113c-0.904-0.653-1.969-1.422-3.063-2.211C462.773,118.543,461.896,119.999,463.89,122.241z
			 M389.532,162.953c-0.486-2.465-2.464-4.771-0.291-7.535c0.399-0.508-0.983-3.563-1.738-3.645
			c-4.668-0.509-8.312-2.654-11.42-6.336c-1.56,3.185-3.176,4.182-5.454,0.984c-0.407-0.571-1.809-0.73-2.688-0.612
			c-2.495,0.338-5.121,1.696-7.396,1.22c-3.369-0.705-6.436-0.429-9.785-0.154c-7.482,0.613-15.043,0.2-22.565,0.405
			c-4.963,0.135-9.913,0.782-14.876,0.897c-6.235,0.146-12.48,0.096-18.716-0.074c-8.326-0.229-16.647-0.645-24.97-0.994
			c-9.552-0.401-19.095,0.771-28.69-1.161c-5.21-1.05-10.871,0.118-16.327,0.324c-1.272,0.049-2.539,0.258-4.362,0.452
			c0.019,0.023-0.478-0.588-1.377-1.695c-0.626,4.903-3.264,3.402-5.709,2.519c0.714-0.446,1.429-0.892,2.52-1.572
			c-3.934-0.383-3.863-0.349-5.082,2.188c-1.713,3.565-3.543,7.074-5.244,10.448c-0.912-1.34-1.76-2.585-2.355-3.459
			c-1.542,2.821-2.882,5.273-4.226,7.732c1.139,0.432,2.338,0.887,3.679,1.396c-0.849,1.9-1.543,3.454-2.043,4.573
			c-1.665,0.838-3.003,1.511-4.342,2.185c0.127,0.48,0.254,0.961,0.381,1.442c5.796-2.103,11.663,4.414,17.489-0.768
			c2.18,3.431,5.323,2.43,8.465,1.197c0.742,0.776,1.484,1.554,2.332,2.439c0.767-0.704,1.38-1.266,1.719-1.576
			c1.156,0.57,2.126,1.437,3.142,1.493c11.186,0.623,22.377,1.49,33.572,1.578c24.853,0.193,49.709,0.113,74.562-0.13
			c11.424-0.112,22.851-0.711,34.256-1.414c4.711-0.29,9.371-1.435,14.007-2.184c-1.909-0.784-3.93-1.613-5.438-2.232
			c3.184-2.904,6.091-5.557,8.999-8.209c0.194,0.05,0.389,0.1,0.582,0.149C389.939,162.869,389.735,162.91,389.532,162.953z
			 M297.974,125.306c-0.505-0.155-1.01-0.31-1.516-0.464c-0.101-1.188-0.272-2.373-0.291-3.562
			c-0.062-3.994,0.124-8.005-0.219-11.972c-0.1-1.163-1.54-3.012-2.546-3.141c-2.918-0.373-5.94-0.189-8.898,0.065
			c-4.552,0.391-9.071,1.316-13.625,1.493c-11.638,0.452-23.145,1.812-34.292,5.165c-2.367,0.712-4.132,3.422-6.175,5.212
			c1.524,1.598,2.809,4.199,4.61,4.627c9.794,2.327,19.643,4.712,29.613,5.927c10.11,1.231,20.38,1.354,30.587,1.521
			c6.438,0.105,12.91-1.111,19.328-0.833c13.548,0.587,26.527-2.665,39.638-5.073c2.339-0.43,4.628-1.635,6.703-2.877
			c2.533-1.517,2.701-3.781,0.209-5.178c-3.585-2.008-7.36-4.251-11.307-4.925c-9.371-1.599-18.897-2.264-28.344-3.448
			c-4.997-0.626-9.974-1.461-14.93-2.362c-4.557-0.827-7.226,1.243-7.209,5.849c0.013,3.492,0.17,6.989,0.012,10.472
			C299.268,122.989,298.445,124.14,297.974,125.306z M125.958,122.438c2.51-0.929,5.067-1.876,7.625-2.822
			C127.028,118.032,126.51,118.295,125.958,122.438z"/>
		<path fill-rule="evenodd" clip-rule="evenodd" d="M342.104,51.422c-2.359-2.517-4.2-4.481-6.041-6.445
			c0.109-0.287,0.219-0.574,0.328-0.861c2.896,0.715,5.823,1.319,8.679,2.167c5.625,1.671,11.342,5.169,16.774,4.747
			c5.344-0.415,5.377,0.461,4.202,4.472c-0.028,0.094,0.134,0.232,0.124,0.344c-0.096,1.126-0.209,2.252-0.318,3.377
			c-0.805-0.182-1.609-0.365-2.414-0.548c0.317-1.126,0.636-2.251,1.141-4.042c-9.396,1.532-17.535,6.977-27.903,8.661
			c1.047-1.609,1.781-2.85,2.627-4.008c0.913-1.249,1.932-2.422,3.329-4.155c-6.315,0-11.935,0-18.238,0
			c2.166,2.403,3.991,4.427,5.815,6.452c-0.116,0.318-0.232,0.636-0.349,0.954c-9.933-0.595-18.348-7.059-28.525-7.962
			c0.487-3.817,3.853-3.417,5.81-4.083c7.394-2.514,14.957-4.528,23.196-6.947c-0.679,1.241-1.097,2.719-2.063,3.593
			c-1.235,1.117-2.911,1.747-4.397,2.587c0.435,0.565,0.87,1.132,1.305,1.697C330.516,51.422,335.846,51.422,342.104,51.422z"/>
		<path fill-rule="evenodd" clip-rule="evenodd" d="M38.082,128.513c0.096-2.561,0.121-5.127,0.302-7.681
			c0.298-4.198,3.297-1.39,4.842-2.387c0.281,0.226,0.563,0.452,0.844,0.678c-0.551,1.94-1.059,3.894-1.667,5.817
			c-0.648,2.055-0.207,3.839,2.109,3.674c4.481-0.321,5.145,2.203,5.2,5.735c0.027,1.673,0.545,3.338,1.012,5.983
			c2.612-3.19,6.095-4.729,4.416-9.136c-0.199-0.522,0.925-1.548,1.436-2.342c0.767,0.736,2.184,1.482,2.171,2.205
			c-0.028,1.674-0.37,3.578-1.252,4.961c-3.972,6.229-8.678,11.849-14.731,16.212c-2.494,1.798-4.187,1.192-4.887-1.939
			c0.833-0.139,1.728-0.112,2.458-0.445c1.397-0.636,2.932-1.241,3.995-2.283c1.768-1.733,1.272-14.516-0.543-16.167
			c-1.659-1.509-3.524-0.794-3.449,1.128c0.123,3.176-3.904,6.01-0.462,9.529c1.138,1.164-2.219,4.057-4.424,3.521
			c-1.017-0.247-1.917-0.972-2.871-1.479c-6.273,3.447-8.872,1.104-9.456-2.613c-0.575-3.655,3.974-11.153,7.522-12.39
			c1.917-0.667,4.017-0.809,6.034-1.187C37.149,128.108,37.615,128.311,38.082,128.513z M35.743,129.806
			c-2.078,1.177-4.196,1.725-5.206,3.091c-1.779,2.409-3.859,5.083-2.624,8.45c0.19,0.517,2.282,1.025,2.552,0.716
			C33.243,138.883,36.704,135.944,35.743,129.806z"/>
		<path fill-rule="evenodd" clip-rule="evenodd" d="M67.066,159.813c0.509,1.059,1.128,2.08,1.508,3.185
			c2.695,7.832,5.373,15.671,7.963,23.539c0.312,0.947,0.059,2.08,0.067,3.127c-0.868-0.389-1.823-0.652-2.585-1.19
			c-1.544-1.09-2.983-2.328-5.448-4.285c0,3.552-0.014,5.981,0.002,8.411c0.046,6.859,0.106,13.72,0.155,20.579
			c0.004,0.622,0.144,1.319-0.088,1.848c-0.304,0.694-0.915,1.254-1.394,1.871c-0.564-0.665-1.565-1.298-1.617-2
			c-0.218-2.976-0.182-5.973-0.189-8.962c-0.017-6.828-0.005-13.657-0.005-21.775c-2.89,2.486-4.902,4.218-6.916,5.949
			c-0.361-0.155-0.722-0.312-1.083-0.468c2.829-9.942,5.657-19.885,8.486-29.827C66.304,159.814,66.686,159.814,67.066,159.813z"/>
		<path fill-rule="evenodd" clip-rule="evenodd" d="M64.761,94.825c0.213-2.211,0.519-3.915,0.516-5.618
			c-0.015-7.985-0.114-15.971-0.182-23.956c-0.005-0.624-0.179-1.321,0.04-1.856c0.369-0.901,0.99-1.699,1.504-2.54
			c0.511,0.84,1.442,1.669,1.462,2.52c0.11,4.608-0.023,9.222-0.039,13.834c-0.019,5.659-0.004,11.318-0.004,17.937
			c2.553-2.911,4.577-5.219,6.602-7.527c0.444,0.205,0.889,0.409,1.333,0.612c-0.579,2.6-1.02,5.24-1.763,7.791
			c-1.937,6.653-4.421,13.18-5.845,19.935c-0.701,3.322-1.679,3.334-3.948,2.294c0.538-10.785-6.241-19.691-7.606-29.904
			c0.307-0.239,0.614-0.478,0.921-0.716C59.824,89.758,61.896,91.885,64.761,94.825z"/>
		<path fill-rule="evenodd" clip-rule="evenodd" d="M429.256,245.624c-1.129-1.748-2.034-3.152-3.043-4.717
			c-2.291,1.37-2.74,2.587-0.82,4.695c1.352,1.483,2.515,3.433,2.985,5.363c0.908,3.718-1.388,6.484-5.223,6.35
			c-2.368-0.083-4.701-0.964-7.065-1.406c-0.702-0.131-1.723-0.287-2.141,0.084c-1.724,1.53-3.069,1.26-4.765-0.137
			c-0.581-0.479-2.027,0.021-3.061,0.186c-1.562,0.248-3.89,1.362-4.502,0.74c-1.328-1.351-2.537-3.601-2.453-5.421
			c0.359-7.768,5.786-12.29,13.655-11.931c1.11,0.051,2.227,0.007,4.098,0.007c-0.863,4.507-1.698,8.86-2.534,13.215
			c0.338,0.088,0.677,0.177,1.015,0.266c1.038-0.719,2.077-1.438,3.416-2.363c0.345,0.992,0.384,1.975,0.83,2.224
			c1.234,0.686,2.639,1.064,3.976,1.565c0.086-1.099,0.515-2.318,0.175-3.263c-0.485-1.351-1.949-2.406-2.247-3.753
			c-0.478-2.156-0.788-4.565-0.246-6.624c0.215-0.814,2.902-0.979,4.465-1.433c0.114-0.033,0.249,0.011,0.374,0.005
			C430.841,239.039,432.52,239.952,429.256,245.624z M413.233,243.53c-2.073-0.768-3.126-1.526-4.112-1.447
			c-2.17,0.175-5.739,5.063-5.956,7.985c-0.065,0.873,0.18,2.386,0.657,2.557c1.033,0.369,2.906,0.537,3.381-0.056
			C409.199,250.071,410.809,247.264,413.233,243.53z"/>
		<path fill-rule="evenodd" clip-rule="evenodd" d="M312.909,239.221c0.996,0.054,2.007,0.013,2.981,0.185
			c1.242,0.221,2.454,0.614,3.68,0.933c-0.635,0.808-1.292,1.599-1.894,2.429c-0.208,0.288-0.387,0.667-0.404,1.013
			c-0.226,4.508-3.462,6.075-7.046,7.413c-0.734,0.274-1.261,1.104-1.882,1.678c0.747,0.474,1.449,1.055,2.252,1.396
			c1.426,0.605,3.106,0.789,4.333,1.646c2.678,1.869,2.629,5.494-0.146,7.021c-4.532,2.494-9.171,3.504-14.124,0.611
			c-2.756-1.609-3.076-3.261-1.219-5.569c1.461-1.814,3.164-3.448,4.492-5.349c0.444-0.635,0.433-2.422-0.001-2.699
			c-2.403-1.539-3.116-3.859-1.709-5.867c1.387-1.978,3.683-3.517,5.889-4.641c1.285-0.655,3.178-0.119,4.796-0.119
			C312.909,239.273,312.909,239.247,312.909,239.221z M312.55,259.321c-1.69-0.682-3.389-1.913-5.07-1.891
			c-1.659,0.022-4.218,0.911-4.754,2.134c-0.997,2.276,1.517,2.087,2.986,2.443c0.462,0.112,0.838,0.553,1.299,0.689
			C308.907,263.258,312.1,261.288,312.55,259.321z M306.586,247.891c2.673,1.074,4.975,0.625,6.204-2.024
			c0.505-1.089,0.376-2.853-0.191-3.925c-0.372-0.704-2.319-1.299-3.088-0.938C306.696,242.325,306.146,244.915,306.586,247.891z"/>
		<path fill-rule="evenodd" clip-rule="evenodd" d="M385.718,256.255c-0.115-1.255-0.146-2.582-0.39-3.868
			c-0.168-0.887-0.633-1.716-0.966-2.57c-0.835,0.577-1.806,1.031-2.471,1.764c-0.736,0.812-1.046,2.024-1.814,2.789
			c-0.794,0.788-1.916,1.246-2.84,1.815c-1.164-5.918-2.194-11.152-3.242-16.475c4.065-1.29,4.065-1.29,6.7,8.725
			c1.607-2.421,2.667-4.104,3.816-5.725c1.129-1.592,1.544-4.268,4.83-3.135c0.332,2.85,0.68,5.822,1.075,9.205
			c3.343-1.589,3.595-3.813,3.629-6.404c0.014-1.066,1.178-2.118,1.819-3.178c0.74,1.172,2.256,2.499,2.059,3.483
			c-0.391,1.963-1.399,4.025-2.734,5.532C392.518,251.228,391.655,256.398,385.718,256.255z"/>
		<path fill-rule="evenodd" clip-rule="evenodd" d="M445.343,242.356c-3.495,2.96-7.063,5.857-8.278,10.668
			c-0.152,0.602-0.249,1.354-0.655,1.725c-0.894,0.817-1.969,1.436-2.97,2.135c-0.247-1.082-0.917-2.271-0.675-3.229
			c1.602-6.344,3.418-12.634,5.105-18.956c0.204-0.769,0.041-1.633,0.063-2.453c0.025-0.961-0.061-2.727,0.121-2.755
			c1.385-0.219,2.847-0.224,4.219,0.043c0.22,0.043,0.298,1.807,0.122,2.712c-0.604,3.101-1.351,6.173-2.119,9.597
			c1.744-0.651,2.821-1.167,3.956-1.449c1.463-0.363,3.653-1.255,4.304-0.635c1.031,0.985,1.363,3.027,1.404,4.636
			c0.039,1.563-0.749,3.131-1.012,4.724c-0.231,1.407-0.24,2.852-0.347,4.28c0.459,0.319,0.919,0.639,1.379,0.958
			c-1.956,0.967-3.911,1.935-5.866,2.901c-0.099-2.333-0.583-4.733-0.192-6.982c0.445-2.565,1.67-4.996,2.556-7.485
			C446.085,242.645,445.715,242.501,445.343,242.356z"/>
		<path fill-rule="evenodd" clip-rule="evenodd" d="M140.063,230.841c-0.477,2.374-0.997,4.974-1.517,7.574
			c-0.418,0.081-0.834,0.162-1.251,0.243c-0.223-0.428-0.51-0.835-0.656-1.287c-2.076-6.422-8.22-7.771-12.873-2.694
			c-3.436,3.75-4.98,8.281-4.373,13.373c0.606,5.086,6.229,7.888,10.916,5.533c1.998-1.004,3.966-2.067,6.365-3.322
			c-0.173,1.081-0.081,1.873-0.417,2.384c-1.833,2.786-9.542,5.261-12.658,4.154c-10.263-3.646-12.24-13.882-4.407-22
			c3.528-3.655,8.172-4.712,12.695-5.656C134.14,228.672,136.79,230.093,140.063,230.841z"/>
		<path fill-rule="evenodd" clip-rule="evenodd" d="M185.882,243.223c-1.078-0.535-2.002-0.994-2.927-1.454
			c0.84-0.806,1.565-2.053,2.549-2.309c1.336-0.348,3.369-0.462,4.174,0.302c0.765,0.726,0.664,2.788,0.356,4.128
			c-0.657,2.862-1.693,5.636-2.575,8.446c0.573,0.266,1.146,0.532,1.719,0.799c1.923-3.395,3.991-6.718,5.713-10.21
			c0.996-2.021,1.321-4.462,5.183-3.281c-0.861,2.799-1.781,5.538-2.527,8.324c-0.302,1.125-0.316,2.352-0.296,3.529
			c0.021,1.311,0.23,2.619,0.358,3.929c-1.774-0.048-3.549-0.078-5.322-0.146c-0.953-0.036-1.93-0.306-2.849-0.167
			c-2.04,0.309-4.049,0.808-7.218,1.468C183.684,251.239,184.812,247.127,185.882,243.223z"/>
		<path fill-rule="evenodd" clip-rule="evenodd" d="M230.963,239.226c-0.925,3.311-1.824,5.994-2.384,8.746
			c-0.306,1.504,0.059,3.132-0.063,4.689c-0.077,0.978-0.363,2.685-0.787,2.759c-1.77,0.313-3.626,0.132-5.467-0.417
			c-2.556-0.156-4.165,2.984-7.612,1.269c-2.288-1.14-2.953-2.571-2.892-4.545c0.155-4.973,5.293-13.431,12.476-12.541
			C226.296,239.441,228.417,239.226,230.963,239.226z M225.115,241.255c-4.782-0.81-9.766,5.709-8.601,11.247
			C222.048,253.391,225.62,248.719,225.115,241.255z"/>
		<path fill-rule="evenodd" clip-rule="evenodd" d="M291.145,255.729c1.256-4.583,2.396-8.745,3.762-13.725
			c-1.377,0.599-2.436,0.715-2.838,1.29c-2.446,3.496-4.966,6.976-7.004,10.711c-1.125,2.062-2.181,2.357-3.896,1.53
			c-0.89-5.517,5.173-9.939,1.779-16.081c1.865-0.092,3.525-0.173,5.452-0.267c0.279,1.029,0.534,1.97,0.731,2.697
			c2.147-0.944,4.008-2.073,6.024-2.569c2.42-0.596,3.89,0.542,3.422,3.247c-0.335,1.945-0.829,3.862-1.273,5.788
			c-0.192,0.829-0.737,1.697-0.608,2.46C297.526,255.714,297.276,256.05,291.145,255.729z"/>
		<path fill-rule="evenodd" clip-rule="evenodd" d="M341.006,239.26c4.458,0.027,6.051,1.55,6.222,5.941
			c0.229,5.94-4.716,11.547-10.641,12.064c-2.705,0.236-5.702-1.963-6.357-4.548C328.745,246.859,334.866,238.452,341.006,239.26z
			 M344.224,245.311c-1.028-1.705-1.524-3.496-2.639-4.057c-0.849-0.427-3.004,0.327-3.664,1.227
			c-1.639,2.232-3.071,4.743-3.937,7.357c-0.393,1.183,0.4,3.754,1.3,4.122c1.187,0.486,3.594-0.079,4.432-1.073
			C341.525,250.739,342.669,248.032,344.224,245.311z"/>
		<path fill-rule="evenodd" clip-rule="evenodd" d="M465.793,253.592c-1.881,1.225-3.637,2.75-5.676,3.598
			c-2.487,1.034-5.389,0.303-6.565-1.876c-1.109-2.055-1.454-5.021-0.963-7.338c1.135-5.352,5.868-8.846,11.045-8.691
			c1.161,0.034,3.166,0.765,3.274,1.423c0.27,1.642,0.288,4.109-0.709,5.007c-1.976,1.78-4.703,2.726-7.122,4.013
			c-0.866,0.461-1.738,0.91-2.607,1.365c0.386,0.656,0.625,1.651,1.189,1.896c1.072,0.465,2.36,0.771,3.505,0.646
			c1.44-0.158,2.825-0.816,4.233-1.258C465.529,252.781,465.661,253.187,465.793,253.592z M462.72,241.158
			c-0.39-0.12-0.78-0.24-1.17-0.36c-1.559,1.777-3.116,3.556-4.675,5.333c0.302,0.426,0.604,0.851,0.905,1.276
			c1.708-0.932,3.605-1.649,5.027-2.905C463.344,244.028,462.781,242.31,462.72,241.158z"/>
		<path fill-rule="evenodd" clip-rule="evenodd" d="M320.581,18.244c2.953,0.693,4.903,1.334,6.899,1.554
			c1.283,0.142,2.744-0.08,3.935-0.587c2.699-1.151,4.024-0.582,4.442,2.246c-6.835,1.928-6.843,1.945-4.866,10.654
			c1.02-0.356,2.006-0.703,2.988-1.047c0.165,0.146,0.492,0.41,0.483,0.42c-0.992,1.312-1.807,3.358-3.08,3.702
			c-1.464,0.395-3.335-0.717-5.028-1.175c0.073-0.343,0.147-0.688,0.222-1.031c-2.246,0.948-4.492,1.896-6.738,2.844
			c-0.293-0.296-0.587-0.593-0.881-0.89c0.379-0.824,0.532-2.053,1.172-2.41c6.206-3.469,6.753-6.777,1.794-11.509
			C321.533,20.643,321.409,19.991,320.581,18.244z"/>
		<path fill-rule="evenodd" clip-rule="evenodd" d="M193.435,32.669c-1.927,1.029-3.975,2.124-6.024,3.217
			c-0.32-0.422-0.64-0.844-0.96-1.267c0.458-0.723,0.745-1.749,1.402-2.121c5.859-3.313,6.381-7.804,1.34-12.257
			c-0.169-0.149-0.232-0.419-0.489-0.908c2.824-0.834,5.436-1.6,7.25,1.616c5.93-3.203,7.163-3.13,7.688,0.401
			c-6.38,1.617-8.264,5.613-4.899,10.449c1.042-0.334,2.1-0.673,3.159-1.012c0.24,0.33,0.48,0.66,0.721,0.99
			c-1.428,1.204-2.767,3.213-4.308,3.382C196.818,35.322,195.114,33.6,193.435,32.669z"/>
		<path fill-rule="evenodd" clip-rule="evenodd" d="M208.601,253.271c-1.104,0.937-1.932,1.847-2.945,2.437
			c-0.966,0.563-2.126,0.793-3.201,1.169c-0.416-1.338-1.44-2.83-1.146-3.987c1.483-5.849,3.345-11.6,4.984-17.41
			c0.317-1.124,0.282-2.359,0.328-3.546c0.037-0.97-0.048-1.942-0.079-2.914c1.23-0.023,2.611-0.392,3.635,0.057
			c0.629,0.276,1.166,1.91,0.964,2.746c-1.198,4.95-2.465,9.897-4.024,14.744C205.833,250.554,205.64,250.492,208.601,253.271z"/>
		<path fill-rule="evenodd" clip-rule="evenodd" d="M175.858,241.026c-3.555,0.394-7.75,6.713-6.246,10.491
			c0.692,1.737,4.62,2.191,6.596,0.684c0.748-0.57,1.32-1.37,2.838-2.988c-0.09,1.924,0.192,2.996-0.22,3.532
			c-2.375,3.081-7.726,4.834-10.826,2.842c-1.522-0.979-2.68-4.02-2.45-5.942c0.663-5.574,4.421-11.74,12.509-10.433
			c1.409,0.228,2.626,1.641,3.931,2.507c-1.108,1.181-2.216,2.363-3.325,3.546C177.863,244.052,177.059,242.838,175.858,241.026z"/>
		<path fill-rule="evenodd" clip-rule="evenodd" d="M467.621,255.414c1.311-4.061,2.908-7.824,3.693-11.749
			c0.941-4.704,0.621-4.706,5.427-2.984c0.818,0.293,1.903-0.12,2.858-0.254c0.986-0.139,1.966-0.333,2.947-0.503
			c0.135,0.925,0.632,2.009,0.314,2.736c-0.429,0.981-1.725,2.525-2.233,2.38c-3.453-0.991-4.241,1.641-5.466,3.661
			c-1.177,1.94-2.354,3.896-3.305,5.95C470.789,256.961,469.512,257.214,467.621,255.414z"/>
		<path fill-rule="evenodd" clip-rule="evenodd" d="M350.992,239.13c1.421,0.293,3.348,0.833,5.31,1.032
			c0.93,0.094,1.961-0.767,2.882-0.656c1.244,0.15,2.426,0.819,3.635,1.266c-0.814,1.472-1.868,4.295-2.404,4.2
			c-4.155-0.738-5.068,2.365-6.42,4.894c-0.812,1.521-1.085,3.341-1.967,4.804c-0.487,0.808-1.731,1.158-2.635,1.714
			c-0.383-0.996-1.24-2.092-1.056-2.97c0.453-2.161,1.63-4.174,2.059-6.337C350.849,244.79,350.774,242.398,350.992,239.13z"/>
		<path fill-rule="evenodd" clip-rule="evenodd" d="M230.839,255.631c1.214-5.414,2.372-10.582,3.685-16.441
			c0.856,0.203,2.519,0.752,4.222,0.94c1.029,0.114,2.124-0.502,3.181-0.475c1.059,0.026,2.107,0.444,3.16,0.69
			c-0.486,1.247-0.974,3.576-1.456,3.574c-5.612-0.016-6.493,4.515-7.992,8.2C234.228,255.59,234.438,255.718,230.839,255.631z"/>
		<path fill-rule="evenodd" clip-rule="evenodd" d="M149.957,255.481c-0.286-5.507,4.415-10.06,1.766-16.537
			c2.455,0.47,4.422,0.869,6.401,1.21c0.498,0.086,1.033,0.021,1.543-0.043c1.374-0.172,2.743-0.381,4.114-0.574
			c0.086,1.487,0.173,2.976,0.264,4.538c-4.543-0.354-8.067,2.63-9.324,7.352C153.597,255.651,153.461,255.771,149.957,255.481z"/>
		<path fill-rule="evenodd" clip-rule="evenodd" d="M258.414,239.86c3.056,0,6.804,0,10.62,0c0.657,3.821,0.654,3.755-3.468,3.966
			c-0.679,0.034-1.535,0.813-1.928,1.475c-1.935,3.25-3.74,6.575-5.878,10.386c-0.42,0-1.599,0-2.777,0
			C256.132,250.388,257.257,245.197,258.414,239.86z"/>
		<path fill-rule="evenodd" clip-rule="evenodd" d="M204.527,40.984c0.921-1.498,1.504-2.675,2.305-3.681
			c0.681-0.856,1.828-1.379,2.388-2.286c1.245-2.012,2.251-4.172,3.355-6.272c-1.696-0.454-3.392-0.908-5.291-1.416
			c1.282-2.545,3.243-3.722,6.086-2.479c2.636,1.153,3.291,4.07,1.638,6.936c-0.667,1.16-1.604,2.172-2.477,3.201
			c-0.749,0.883-1.582,1.693-1.965,3.145c1.012-0.292,2.022-0.583,3.159-0.91C212.823,41.785,212.243,42.034,204.527,40.984z"/>
		<path fill-rule="evenodd" clip-rule="evenodd" d="M147.754,253.555c-0.76,0.8-1.259,1.797-1.944,1.947
			c-1.391,0.305-3.001,0.48-4.273,0.022c-0.508-0.184-0.675-2.245-0.45-3.34c0.441-2.155,1.411-4.199,1.887-6.35
			c0.416-1.88,0.456-3.842,0.734-6.449c1.012-0.065,2.868-0.187,4.958-0.322C149.415,244.116,143.449,248.402,147.754,253.555z"/>
		<path fill-rule="evenodd" clip-rule="evenodd" d="M279.867,239.452c-1.011,3.007-2.12,5.633-2.729,8.37
			c-0.377,1.696,0.006,3.562,0.049,5.351c0.41,0.055,0.82,0.109,1.23,0.165c-0.507,0.638-0.887,1.525-1.547,1.86
			c-1.229,0.623-2.622,0.923-3.947,1.357c-0.297-1.341-0.935-2.715-0.81-4.015c0.175-1.805,1.078-3.526,1.385-5.332
			c0.42-2.475,0.572-4.993,0.866-7.757C275.709,239.452,277.624,239.452,279.867,239.452z"/>
		<path fill-rule="evenodd" clip-rule="evenodd" d="M343.214,41.266c-1.202,0-2.626,0-4.188,0c1.313-4.279,2.555-8.239,3.724-12.22
			c0.233-0.793,0.029-1.725,0.307-2.49c0.327-0.903,0.96-1.694,1.461-2.534c0.738,0.801,2.175,1.687,2.09,2.387
			c-0.299,2.439-1.163,4.805-1.736,7.216C344.305,36.003,343.83,38.405,343.214,41.266z"/>
		<path fill-rule="evenodd" clip-rule="evenodd" d="M106.987,107.561c-1.185,0.861-1.961,1.844-2.542,1.739
			c-0.675-0.122-1.634-1.195-1.636-1.856c-0.002-0.725,0.95-1.451,1.486-2.176C105.044,105.905,105.792,106.542,106.987,107.561z"/>
		<path fill-rule="evenodd" clip-rule="evenodd" fill="#FFFFFF" d="M389.561,162.677c-2.908,2.652-5.815,5.305-8.999,8.209
			c1.508,0.619,3.528,1.448,5.438,2.232c-4.636,0.749-9.296,1.894-14.007,2.184c-11.405,0.703-22.832,1.302-34.256,1.414
			c-24.853,0.243-49.709,0.323-74.562,0.13c-11.195-0.088-22.386-0.955-33.572-1.578c-1.016-0.057-1.986-0.923-3.142-1.493
			c-0.339,0.311-0.952,0.872-1.719,1.576c-0.848-0.886-1.589-1.663-2.331-2.439c-3.143,1.232-6.286,2.233-8.466-1.197
			c-5.827,5.182-11.693-1.335-17.489,0.768c-0.126-0.481-0.254-0.962-0.381-1.442c1.338-0.674,2.677-1.347,4.342-2.185
			c0.5-1.119,1.195-2.673,2.043-4.573c-1.34-0.509-2.54-0.964-3.679-1.396c1.344-2.459,2.684-4.911,4.226-7.732
			c0.595,0.874,1.443,2.119,2.355,3.459c1.7-3.374,3.531-6.883,5.244-10.448c1.219-2.537,1.148-2.571,5.082-2.188
			c-1.091,0.681-1.805,1.126-2.52,1.572c2.445,0.884,5.083,2.385,5.709-2.519c0.899,1.107,1.396,1.719,1.377,1.695
			c1.823-0.194,3.09-0.403,4.362-0.452c5.456-0.206,11.117-1.374,16.327-0.324c9.595,1.933,19.138,0.76,28.69,1.161
			c8.322,0.35,16.644,0.766,24.97,0.994c6.235,0.17,12.48,0.22,18.716,0.074c4.963-0.115,9.913-0.763,14.876-0.897
			c7.522-0.205,15.083,0.208,22.565-0.405c3.35-0.274,6.416-0.551,9.785,0.154c2.274,0.477,4.9-0.882,7.396-1.22
			c0.879-0.118,2.28,0.041,2.688,0.612c2.278,3.197,3.895,2.2,5.454-0.984c3.108,3.682,6.752,5.827,11.42,6.336
			c0.755,0.082,2.138,3.137,1.738,3.645c-2.173,2.764-0.195,5.07,0.292,7.535C389.535,162.953,389.561,162.677,389.561,162.677z"/>
		<path fill-rule="evenodd" clip-rule="evenodd" fill="#FFFFFF" d="M162.012,118.152c3.401,0.66,6.877,2.107,10.123-1.552
			c1.475,2.291,2.739,4.254,4.014,6.235c0.467-0.336,0.811-0.49,0.795-0.586c-0.822-5.035,0.693-6.11,5.741-4.755
			c2.031,0.545,4.372-0.037,6.569-0.158c1.105-0.062,2.231-0.458,3.298-0.32c2.144,0.277,4.137,1.593,6.461,0.049
			c0.534-0.354,2.245,1.062,3.411,1.669c1.884,0.981,3.765,1.97,5.645,2.954c0.379,0.172,0.762,0.345,1.145,0.517
			c5.383-0.226,10.897-1.259,16.11-0.42c4.111,0.662,7.824,3.684,11.768,5.544c1.606,0.758,3.314,1.42,5.047,1.769
			c5.055,1.015,10.144,1.863,15.224,2.742c1.222,0.212,2.465,0.337,3.705,0.422c7.058,0.484,14.114,0.989,21.177,1.401
			c7.949,0.464,15.949,1.558,23.848,1.078c11.044-0.671,22.014-2.544,33.016-3.901c4.543-0.561,9.093-1.07,13.624-1.713
			c1.055-0.149,2.021-0.849,3.074-1.112c1.926-0.482,3.895-0.785,5.824-1.25c0.766-0.185,1.719-0.405,2.168-0.953
			c2.457-2.995,5.777-3.781,9.383-3.987c3.112-0.178,6.477,1.719,8.837-2.665c1.146-2.13,8.008-0.81,9.805,1.393
			c1.492,1.827,2.486,1.716,3.631-0.249c0.441-0.757,1.203-1.329,2.068-2.251c1.358,3.011,1.712,6.27,6.121,3.708
			c1.99-1.157,5.344,0.298,7.938-0.188c1.546-0.29,2.78-2.098,4.22-3.135c2.146-1.546,3.863-0.058,4.761,1.429
			c1.433,2.373,2.161,2.139,3.623,0.106c0.555-0.771,2.043-1.196,3.11-1.204c2.073-0.015,4.151,0.378,6.852,0.669
			c0.064,0.162,0.434,1.083,0.615,1.535c3.903-1.279,7.48-2.451,10.54-3.453c1.021,1.499,1.892,2.775,2.761,4.054
			c0.419,0.459,0.839,0.915,1.259,1.372c0.359,0.399,0.719,0.798,1.078,1.198c0.15-0.425,0.303-0.85,0.453-1.275
			c-0.382-0.482-0.765-0.965-1.147-1.447c-0.61,0.133-1.221,0.267-1.831,0.399c1.993-3.093,3.933-6.294,8.476-4.052
			c-0.864,0.59-1.729,1.18-3.385,2.311c1.73,1.255,3.163,2.293,4.595,3.332c-0.229,1.946-0.457,3.893-0.686,5.839
			c-0.695,0.846-1.25,2.22-2.109,2.446c-4.254,1.122-8.588,1.943-12.895,2.865c-0.486,0.104-0.978,0.207-1.472,0.255
			c-6.392,0.625-12.774,1.382-19.179,1.832c-15.229,1.07-30.469,1.968-45.7,2.989c-6.631,0.445-13.243,1.245-19.88,1.502
			c-15.903,0.616-31.813,1.279-47.725,1.417c-20.114,0.173-40.235,0.011-60.347-0.369c-6.226-0.117-12.415-1.589-18.648-2.121
			c-5.33-0.454-10.711-0.292-16.049-0.682c-10.216-0.747-20.418-1.705-30.628-2.554c-8.016-0.667-16.034-1.303-24.05-1.95
			c-0.622-0.051-1.337,0.107-1.854-0.146c-6.61-3.244-13.906-3.146-20.917-4.441c-1.007-0.186-1.849-1.261-2.861-1.123
			c-6.022-1.724-12.043-3.449-18.559-5.314c2.342-3.723,7.312,1.271,9.397-2.977c1.095,3.782,3.321,4.278,6.499,2.73
			c2.683-1.307,5.499-2.161,8.505,0.146c-0.506-0.994-1.01-1.988-1.652-3.25c3.605-1.148,7.136-2.487,10.783-3.323
			c1.383-0.317,3.034,0.513,4.558,0.843c0.352,0.077,0.872,0.46,0.995,0.349c2.658-2.402,5.482-0.345,8.217-0.352
			C161.54,118.066,161.776,118.108,162.012,118.152z"/>
		<path fill-rule="evenodd" clip-rule="evenodd" fill="#FFFFFF" d="M297.974,125.306c0.472-1.166,1.294-2.317,1.349-3.502
			c0.158-3.483,0.001-6.98-0.012-10.472c-0.017-4.605,2.652-6.676,7.209-5.849c4.956,0.9,9.933,1.735,14.93,2.362
			c9.446,1.184,18.973,1.849,28.344,3.448c3.946,0.673,7.722,2.917,11.307,4.925c2.492,1.396,2.324,3.661-0.209,5.178
			c-2.075,1.242-4.364,2.447-6.703,2.877c-13.11,2.408-26.09,5.66-39.638,5.073c-6.418-0.278-12.891,0.938-19.328,0.833
			c-10.207-0.168-20.477-0.29-30.587-1.521c-9.971-1.215-19.819-3.6-29.613-5.927c-1.801-0.428-3.086-3.029-4.61-4.627
			c2.043-1.79,3.809-4.5,6.175-5.212c11.147-3.353,22.654-4.713,34.292-5.165c4.554-0.177,9.073-1.102,13.625-1.493
			c2.958-0.254,5.98-0.438,8.898-0.065c1.006,0.129,2.446,1.979,2.546,3.141c0.343,3.967,0.157,7.979,0.219,11.972
			c0.019,1.188,0.19,2.374,0.291,3.562C296.964,124.997,297.469,125.151,297.974,125.306z"/>
		<path fill-rule="evenodd" clip-rule="evenodd" fill="#FFFFFF" d="M456.873,129.249c0.229-1.946,0.457-3.893,0.686-5.839
			c2.972-0.557,2.535-2.188,1.284-4.076c1.682,0.969,3.364,1.938,5.046,2.906c0.613,0.551,1.27,1.618,1.837,1.572
			c3.041-0.244,6.061-0.765,9.087-1.189c0.482-0.338,0.942-0.919,1.45-0.966c1.503-0.138,3.077-0.301,4.522,0.011
			c0.945,0.205,1.716,1.218,2.345,1.7c-4.329,1.866-8.176,4.045-12.31,5.161c-4.217,1.139-8.714,1.252-13.097,1.735
			C457.48,130.291,457.158,129.604,456.873,129.249z"/>
		<path fill-rule="evenodd" clip-rule="evenodd" fill="#FFFFFF" d="M474.813,122.623c-3.026,0.425-6.046,0.945-9.087,1.189
			c-0.567,0.045-1.224-1.021-1.837-1.572c-1.992-2.241-1.115-3.697,1.27-4.751c1.094,0.789,2.158,1.558,3.063,2.211
			c2.32-0.188,3.97-3.869,6.444-1.113C475.356,119.356,474.798,121.247,474.813,122.623z"/>
		<path fill-rule="evenodd" clip-rule="evenodd" d="M458.843,119.334c1.251,1.887,1.688,3.519-1.284,4.076
			c-1.432-1.039-2.864-2.077-4.595-3.332c1.655-1.13,2.521-1.72,3.385-2.311C457.18,118.29,458.012,118.812,458.843,119.334z"/>
		<path fill-rule="evenodd" clip-rule="evenodd" fill="#FFFFFF" d="M209.213,122.204c-0.383-0.172-0.766-0.345-1.145-0.517
			c-1.4-0.772-3.787-1.034-2.491-3.448c0.357-0.667,2.411-1.178,3.096-0.769C210.594,118.617,210.709,120.427,209.213,122.204z"/>
		<path fill-rule="evenodd" clip-rule="evenodd" fill="#FFFFFF" d="M125.958,122.438c0.552-4.142,1.071-4.406,7.625-2.822
			C131.024,120.562,128.467,121.509,125.958,122.438z"/>
		<path fill-rule="evenodd" clip-rule="evenodd" d="M449.32,122.945c-0.42-0.457-0.84-0.912-1.259-1.372
			c0-0.003-0.184,0.245-0.187,0.246c0.608-0.132,1.219-0.265,1.829-0.398c-0.151,0.549-0.302,1.098-0.451,1.646L449.32,122.945z"/>
		<path fill-rule="evenodd" clip-rule="evenodd" fill="#FFFFFF" d="M389.561,162.677c0,0-0.025,0.276-0.027,0.276
			c0.202-0.043,0.406-0.084,0.609-0.127C389.949,162.776,389.755,162.727,389.561,162.677z"/>
		<path fill-rule="evenodd" clip-rule="evenodd" d="M162.012,118.152c-0.236-0.043-0.472-0.086-0.707-0.131
			C161.541,118.063,161.776,118.107,162.012,118.152z"/>
		<path fill-rule="evenodd" clip-rule="evenodd" fill="#FFFFFF" d="M35.743,129.806c0.96,6.138-2.5,9.077-5.277,12.257
			c-0.271,0.31-2.362-0.199-2.552-0.716c-1.235-3.367,0.845-6.042,2.624-8.45C31.547,131.531,33.665,130.983,35.743,129.806z"/>
		<path fill-rule="evenodd" clip-rule="evenodd" fill="#FFFFFF" d="M413.233,243.53c-2.425,3.733-4.034,6.541-6.03,9.039
			c-0.475,0.593-2.348,0.425-3.381,0.056c-0.478-0.171-0.723-1.684-0.657-2.557c0.217-2.923,3.786-7.811,5.956-7.985
			C410.107,242.004,411.16,242.763,413.233,243.53z"/>
		<path fill-rule="evenodd" clip-rule="evenodd" fill="#FFFFFF" d="M312.55,259.322c-0.45,1.966-3.643,3.936-5.539,3.375
			c-0.461-0.137-0.837-0.577-1.299-0.689c-1.47-0.356-3.983-0.167-2.986-2.443c0.536-1.223,3.095-2.111,4.754-2.134
			C309.161,257.408,310.859,258.64,312.55,259.322z"/>
		<path fill-rule="evenodd" clip-rule="evenodd" fill="#FFFFFF" d="M306.586,247.891c-0.439-2.976,0.11-5.565,2.925-6.887
			c0.769-0.361,2.716,0.233,3.088,0.938c0.567,1.072,0.696,2.836,0.191,3.925C311.561,248.516,309.259,248.965,306.586,247.891z"/>
		<path fill-rule="evenodd" clip-rule="evenodd" fill="#FFFFFF" d="M225.115,241.255c0.505,7.464-3.067,12.136-8.601,11.247
			C215.349,246.964,220.333,240.445,225.115,241.255z"/>
		<path fill-rule="evenodd" clip-rule="evenodd" fill="#FFFFFF" d="M344.224,245.311c-1.555,2.722-2.698,5.429-4.508,7.576
			c-0.838,0.994-3.245,1.56-4.432,1.073c-0.899-0.368-1.692-2.939-1.3-4.122c0.865-2.614,2.298-5.125,3.937-7.357
			c0.66-0.899,2.815-1.653,3.664-1.227C342.699,241.814,343.195,243.605,344.224,245.311z"/>
		<path fill-rule="evenodd" clip-rule="evenodd" fill="#FFFFFF" d="M462.72,241.158c0.062,1.151,0.624,2.87,0.088,3.344
			c-1.422,1.256-3.319,1.974-5.027,2.905c-0.302-0.426-0.604-0.851-0.905-1.276c1.559-1.777,3.116-3.556,4.675-5.333
			C461.939,240.918,462.33,241.038,462.72,241.158z"/>
		<path fill-rule="evenodd" clip-rule="evenodd" d="M450.852,122.868c-0.15,0.426-0.303,0.851-0.453,1.275
			c-0.359-0.4-0.719-0.799-1.078-1.198l-0.067,0.122C449.786,123.001,450.319,122.935,450.852,122.868z"/>
		<path fill-rule="evenodd" clip-rule="evenodd" fill="#FFFFFF" d="M450.852,122.868c-0.532,0.067-1.065,0.133-1.599,0.199
			c0.149-0.548,0.3-1.097,0.451-1.646C450.087,121.903,450.47,122.386,450.852,122.868z"/>
	</g>
</g>
</svg>
