<?xml version="1.0" encoding="utf-8"?>
<!-- Generator: Adobe Illustrator 16.0.0, SVG Export Plug-In . SVG Version: 6.00 Build 0)  -->
<!DOCTYPE svg PUBLIC "-//W3C//DTD SVG 1.1//EN" "http://www.w3.org/Graphics/SVG/1.1/DTD/svg11.dtd">
<svg version="1.1" id="Layer_1" xmlns="http://www.w3.org/2000/svg" xmlns:xlink="http://www.w3.org/1999/xlink" x="0px" y="0px"
	 width="545.326px" height="489.818px" viewBox="0 0 545.326 489.818" enable-background="new 0 0 545.326 489.818"
	 xml:space="preserve">
<g>
	<g>
		<path fill-rule="evenodd" clip-rule="evenodd" fill="#FFFFFF" d="M0.75,0.75c181.775,0,363.551,0,545.326,0
			c0,163.273,0,326.545,0,489.818c-181.775,0-363.551,0-545.326,0C0.75,327.295,0.75,164.023,0.75,0.75z M379.293,312.022
			c34.715,0,69.154,0,104.025,0c-1.708,2.456-3.043,4.375-4.726,6.795c1.552,0.115,2.087,0.306,2.509,0.162
			c7.141-2.413,14.278-4.837,21.378-7.367c0.597-0.214,1.34-1.26,1.256-1.802c-0.09-0.587-0.994-1.29-1.677-1.497
			c-2.129-0.646-4.357-0.958-6.479-1.62c-4.573-1.428-9.087-3.045-13.665-4.452c-0.774-0.237-1.752,0.182-2.637,0.297
			c0.387,0.66,0.76,1.328,1.161,1.979c0.654,1.063,1.326,2.115,2.097,3.34c-22.64,0-44.671,0-67.4,0
			c2.347-7.856,4.517-15.122,6.687-22.387c-0.509-0.229-1.019-0.46-1.527-0.688c-1.507,1.557-3.014,3.114-5.066,5.235
			c0-38.993,0-77.02,0-115.045c0.364-0.068,0.729-0.136,1.094-0.203c1.65,1.436,3.301,2.871,4.951,4.307
			c0.449-0.257,0.898-0.513,1.348-0.771c-2.561-7.434-5.09-14.877-7.74-22.278c-0.201-0.561-1.243-1.035-1.939-1.105
			c-0.313-0.031-0.886,0.988-1.083,1.612c-1.242,3.944-2.438,7.905-3.6,11.875c-0.979,3.339-1.893,6.697-2.835,10.047
			c0.564,0.396,1.128,0.793,1.691,1.19c1.298-1.968,2.596-3.936,3.894-5.903c0.269,0.215,0.539,0.431,0.808,0.646
			c0,38.349,0,76.697,0,115.608c-2.498-2.074-4.319-3.588-6.141-5.101c-0.317,0.275-0.635,0.551-0.951,0.826
			c2.389,7.375,4.778,14.751,7.292,22.509c-10.833,0-21.069,0.037-31.305-0.066c-0.854-0.008-2.189-0.781-2.454-1.507
			c-0.713-1.955-1.007-4.069-1.395-6.135c-1.554-8.268-2.73-16.627-4.761-24.774c-1.054-4.226-3.284-8.27-5.56-12.048
			c-2.39-3.966-9.374-3.796-11.793,0.122c-1.67,2.707-3.492,5.572-4.153,8.604c-2.325,10.672-4.342,21.42-6.097,32.201
			c-0.441,2.716-1.205,3.606-3.866,3.597c-24.712-0.093-49.425-0.059-74.137-0.155c-5.976-0.024-11.951-0.584-17.925-0.568
			c-6.603,0.019-13.203,0.601-19.804,0.615c-42.614,0.099-85.229,0.108-127.844,0.146c-5.07,0.005-10.141,0.001-15.434,0.001
			c0-87.499,0-174.377,0-261.874c2.129,1.519,3.965,2.828,6.51,4.644c0-1.244,0.243-2.271-0.039-3.125
			c-2.143-6.484-4.43-12.919-6.543-19.413c-0.253-0.778-0.023-2.042,0.485-2.681c2.08-2.608,4.548-4.921,6.509-7.609
			c2.318-3.177,5.949-5.717,5.8-10.248c-0.032-0.978-0.61-2.06-1.249-2.836c-0.249-0.302-1.875-0.077-1.988,0.233
			c-0.339,0.922-0.492,2.068-0.261,3.014c0.636,2.603-1.012,5.454-4.036,6.131c-0.162-2.003-0.103-4.016-0.553-5.909
			c-0.31-1.298-1.064-3.016-2.098-3.477c-1.117-0.5-2.789,0.243-4.589,0.497c1.283,1.948,2.688,3.109,2.737,4.323
			c0.213,5.314,3.123,11.302-3.168,15.302c-0.28,0.179-0.458,0.601-0.573,0.946c-2.394,7.189-4.788,14.379-7.127,21.586
			c-0.205,0.63-0.027,1.384-0.027,3.106c2.502-1.981,4.422-3.502,6.843-5.418c0,87.825,0,175.158,0,262.799
			c-2.57,0-4.925-0.002-7.28,0c-20.123,0.021-40.246,0.016-60.367,0.141c-1.006,0.006-2.004,1.137-3.006,1.744
			c0.947,0.521,1.883,1.474,2.845,1.499c12.091,0.321,24.185,0.664,36.279,0.679c8.482,0.011,16.964-0.503,25.448-0.709
			c1.964-0.048,3.937,0.201,6.156,0.328c0.62,20.104-0.407,39.933,1.439,59.793c1.257-1.805,1.916-3.693,1.925-5.586
			c0.087-17.096,0.08-34.19,0.043-51.286c-0.004-2.042,0.302-3.262,2.817-3.255c28.853,0.073,57.705,0.06,86.558,0.076
			c26.344,0.015,52.688,0.036,79.031,0.056c25.101,0.021,50.203,0.041,75.304,0.061c4.439,0.003,8.88,0.001,13.521,0.001
			c0,1.497,0.022,2.474-0.004,3.45c-0.347,13.237-0.748,26.474-0.97,39.713c-0.021,1.171,1.12,2.36,1.721,3.542
			c0.76-1.262,2.134-2.5,2.184-3.789c0.51-13.219,0.894-26.445,1.085-39.672c0.036-2.544,0.866-3.303,3.191-3.289
			c7.496,0.045,14.994-0.005,22.49,0.028c0.562,0.002,1.121,0.376,1.562,0.534c0.282,1.803,0.261,3.503,0.839,4.967
			c0.999,2.524-0.312,3.141-2.313,3.33c-1.36,0.128-2.743,0.009-4.109,0.101c-3.185,0.216-4.154,2.1-3.235,4.9
			c1.416,4.315,3.028,8.568,4.595,12.835c2.031,5.535,4.035,11.082,6.196,16.567c0.532,1.351,1.624,2.481,2.458,3.713
			c1.006-1.263,2.504-2.378,2.938-3.813c2.86-9.463,5.446-19.009,8.219-28.499c1.293-4.43,1.006-4.99-3.67-5.568
			c-6.179-0.765-6.18-0.764-6.716-7.153C379.266,313.328,379.293,312.961,379.293,312.022z M357.799,154.958
			c-1.607,0.091-3.088,0.645-4.013,0.154c-8.7-4.614-17.482-9-26.86-12.122c-15.183-5.052-30.198-5.418-45.068,1.18
			c-2.132,0.946-4.766,1.149-6.499,2.533c-5.343,4.262-7.958,3.576-11.609,0.502c-0.751-0.632-2.056-0.973-3.055-0.884
			c-4.768,0.427-10.09,5.717-9.236,10.255c0.834,4.431-1.974,5.306-4.485,6.858c-5.627,3.479-11.287,6.905-16.953,10.321
			c-4.798,2.892-9.421,6.187-14.494,8.477c-4.831,2.179-10.093,3.485-15.256,4.828c-12.085,3.146-22.091-1.797-31.159-8.943
			c-4.083-3.217-7.374-7.448-10.953-11.285c-1.117-1.199-2.192-3.085-3.803-1.211c-1.447,1.684-2.371,4.025-0.258,6.045
			c6.011,5.746,11.005,12.717,18.678,16.493c4.628,2.278,9.394,4.686,14.372,5.755c9.479,2.037,18.548-0.76,27.102-4.656
			c6.669-3.037,13.027-6.775,19.437-10.356c4.611-2.577,9.458-4.948,13.504-8.26c4.021-3.292,8.121-4.82,13.16-4.296
			c3.396,0.353,5.844-1.013,7.824-3.855c2.963-4.25,5.649-8.825,11.04-10.701c5.305-1.846,10.37-4.995,15.796-5.759
			c14.96-2.107,29.409,0.286,42.813,7.683c-0.328,0.835-0.699,1.778-0.846,2.15c3.372,0.623,6.895,0.558,9.694,1.949
			c4.943,2.455,9.386,5.899,14.17,8.705c1.476,0.866,3.499,1.568,5.036,1.242c0.784-0.166,1.04-2.783,1.55-4.287
			c0.26-0.764,0.557-1.516,1.02-2.767C363.85,160.386,358.394,161.825,357.799,154.958z M350.019,102.792
			c-3.124-1.477-5.268-2.679-7.542-3.532c-8.53-3.198-16.897-7.185-25.71-9.184c-11.682-2.652-23.384-0.626-34.344,4.251
			c-6.525,2.904-12.858,6.293-19.087,9.803c-7.686,4.332-15.177,9.009-22.744,13.549c-5.243,3.146-10.333,6.579-15.746,9.397
			c-5.572,2.902-11.796,4.663-17.089,7.958c-4.317,2.688-8.627,2.721-13.198,2.768c-1.374,0.015-2.748-0.037-4.122-0.044
			c-7.886-0.04-14.251-3.596-20.83-8.759c3.053-0.29,5.273-0.5,7.494-0.71c0.116-0.442,0.232-0.886,0.349-1.328
			c-3.744-1.967-7.779-3.535-11.159-6.001c-4.308-3.144-12.317-3.225-10.766-11.831c0.053-0.293-0.978-0.782-1.504-1.179
			c-0.345,0.577-0.999,1.161-0.986,1.73c0.078,3.428,0.309,6.852,0.488,10.289c1.016,0.793,2.564,1.441,3.177,2.589
			c1.798,3.365,3.152,6.964,4.826,10.401c0.994,2.041,2.263,3.949,3.409,5.916c0.36-0.137,0.721-0.274,1.081-0.412
			c0.379-2.198,0.759-4.395,1.065-6.17c4.57,2.297,8.656,5.036,13.159,6.46c7.653,2.422,15.692,3.22,23.586,1.227
			c8.648-2.184,16.683-5.938,24.219-10.795c4.32-2.785,8.982-5.035,13.361-7.734c4.974-3.067,9.728-6.496,14.721-9.532
			c4.925-2.996,10.279-5.337,14.993-8.616c6.532-4.542,13.714-7.939,21.263-9.323c19.625-3.597,38.059,0.234,55.551,12.031
			c-2.849,1.06-5.177,1.926-7.694,2.863c2.768,2.968,25.291,7.435,27.207,6.282c0.266-1.962,0.706-3.417,0.567-4.813
			c-0.094-0.933-1.01-1.784-1.558-2.671c-0.322,0.159-0.645,0.318-0.967,0.477c-0.249,1.132-0.498,2.264-0.943,4.286
			c-5.288-6.207-10.104-11.861-14.921-17.515c-0.396,0.203-0.794,0.406-1.189,0.609C348.923,97.765,349.411,100.001,350.019,102.792
			z M58.86,346.215c2.163-1.31,4.322-2.629,6.492-3.928c5.507-3.295,7.289-8.367,6.693-14.437c-0.346-3.526-2.505-5.083-6.349-5.491
			c-9.686-1.029-14.896,6.676-16.12,13.964C48.742,341.291,53.24,345.687,58.86,346.215z M267.482,68.979
			c-2.516-0.715-4.471-1.365-6.47-1.817c-3.371-0.763-6.086,0.888-7.689,3.427c-0.957,1.515-1.181,4.389-0.361,5.916
			c1.194,2.226,3.932,3.575,5.419,5.71c0.994,1.428,1.343,3.613,1.161,5.374c-0.061,0.587-2.641,1.155-4.111,1.299
			c-2.272,0.223-2.747-1.495-3.182-3.34c-0.232-0.985-1.132-1.813-1.731-2.713c-0.52,0.992-1.255,1.932-1.502,2.988
			c-0.296,1.268-0.176,2.633-0.217,3.543c2.182,0.76,3.897,1.302,5.571,1.95c4.051,1.567,10.459-2.437,9.653-6.597
			c-0.545-2.812-2.873-5.417-4.823-7.765c-1.236-1.489-3.652-2.346-2.451-4.724c0.436-0.864,2.185-1.314,3.399-1.482
			c2.429-0.335,3.236,1.239,3.426,3.402c0.042,0.484,0.621,0.921,1.564,2.226C266.084,73.387,266.782,71.188,267.482,68.979z
			 M443.885,238.875c-8.253,0.612-13.016,5.948-11.979,12.778c0.431,2.844,1.909,3.376,4.416,3.049
			c1.729-0.226,3.543,0.142,5.258-0.138c1.343-0.218,2.688-0.882,3.81-1.666c0.254-0.178-0.416-1.667-0.646-2.556
			c-0.145-0.561-0.49-1.19-0.355-1.684c1.173-4.306,2.478-8.575,3.642-12.883c0.373-1.387,0.439-2.857,0.646-4.289
			c-1.476,0.069-2.95,0.138-3.735,0.174C444.526,234.489,444.22,236.582,443.885,238.875z M539.569,318.571
			c0.178-0.469,0.356-0.937,0.534-1.404c-4.021,1.269-4.384-0.713-4.369-3.114c0.021-3.298,1.975-4.486,5.382-4.342
			c-0.277-1.403-0.479-2.422-0.679-3.441c-2.017,0.555-4.031,1.109-6.047,1.663c0.085-0.242,0.17-0.484,0.255-0.727
			c-2.128-0.391-4.255-0.78-6.382-1.171c4.583,6.724,3.949,11.054-2.32,13.615c0.364,0.932,0.729,1.863,1.222,3.123
			c2.052-1.693,3.716-3.065,5.697-4.7c0.669,1.984,1.089,3.229,1.842,5.464C536.649,321.552,538.109,320.061,539.569,318.571z
			 M440.718,227.989c0-0.016,0-0.032,0-0.048c2.354,0,4.716,0.098,7.059-0.066c0.616-0.043,1.176-0.897,1.761-1.379
			c-0.545-0.558-1.07-1.576-1.641-1.602c-4.449-0.204-8.908-0.297-13.359-0.204c-0.656,0.014-1.288,1.189-1.931,1.827
			c0.72,0.49,1.404,1.326,2.166,1.404C436.736,228.122,438.733,227.989,440.718,227.989z M249.922,260.975
			c-1.25,1.801-2.371,2.848-2.658,4.088c-0.126,0.547,1.689,2.252,2.188,2.091c1.131-0.367,2.553-1.439,2.786-2.467
			C252.425,263.855,251.048,262.67,249.922,260.975z M249.477,274.703c1.146-1.419,2.553-2.49,2.375-3.089
			c-0.306-1.028-1.603-1.764-2.483-2.621c-0.75,0.841-2.014,1.632-2.101,2.537C247.19,272.336,248.414,273.268,249.477,274.703z
			 M271.813,376.342c1.201-1.764,2.348-2.794,2.521-3.969c0.092-0.616-1.52-1.486-2.362-2.241c-0.83,1.085-1.887,2.08-2.37,3.303
			C269.43,373.873,270.643,374.859,271.813,376.342z M254.945,179.063c-0.429,0.026-0.857,0.053-1.285,0.078
			c-0.462,0.931-1.338,1.894-1.271,2.784c0.073,0.955,1.035,1.841,1.609,2.758c0.858-0.861,2.21-1.617,2.424-2.617
			C256.607,181.21,255.487,180.075,254.945,179.063z M261.568,470.115c1.129-1.656,2.37-2.697,2.225-3.483
			c-0.146-0.79-1.761-1.943-2.566-1.823c-1.066,0.159-1.972,1.4-2.947,2.177C259.139,467.803,259.997,468.619,261.568,470.115z
			 M269.907,420.374c-0.446,0.041-0.892,0.082-1.338,0.123c-0.456,0.912-1.484,2.04-1.24,2.69c0.417,1.109,1.631,1.919,2.511,2.855
			c0.562-0.936,1.557-1.867,1.565-2.809C271.414,422.286,270.446,421.327,269.907,420.374z M275.777,265.12
			c-1.543-1.373-2.507-2.886-3.411-2.852c-0.904,0.035-1.747,1.619-2.617,2.523c0.892,0.796,1.687,2.016,2.706,2.247
			C273.193,267.209,274.23,266.07,275.777,265.12z M269.75,175.895c-1.651-1.111-2.678-2.293-3.306-2.11
			c-0.952,0.278-1.625,1.506-2.417,2.33c0.818,0.677,1.587,1.8,2.468,1.895C267.253,178.092,268.139,177.003,269.75,175.895z
			 M266.828,178.191c-1.261,1.811-2.625,3.21-2.399,3.548c0.728,1.09,1.984,1.896,3.185,2.533c0.193,0.103,1.747-1.38,1.621-1.845
			C268.901,181.199,267.99,180.127,266.828,178.191z M255.448,411.047c-1.626-1.098-2.618-2.268-3.292-2.106
			c-1.034,0.247-1.848,1.41-2.756,2.185c0.905,0.78,1.72,1.977,2.747,2.199C252.831,413.472,253.815,412.233,255.448,411.047z
			 M254.635,404.037c-1.686-1.022-2.699-2.105-3.361-1.923c-0.856,0.237-2.007,1.509-1.975,2.292
			c0.035,0.857,1.365,2.404,1.964,2.329C252.219,406.614,253.039,405.402,254.635,404.037z M275.558,271.304
			c-1.438-1.092-2.4-2.376-3.189-2.277c-0.928,0.116-1.707,1.432-2.55,2.228c0.898,0.855,1.683,2.114,2.738,2.411
			C273.157,273.833,274.199,272.427,275.558,271.304z M272.434,356.685c-1.147,1.556-2.325,2.493-2.437,3.544
			c-0.069,0.653,1.688,2.222,2.252,2.062c1-0.284,2.152-1.462,2.401-2.473C274.813,359.151,273.509,358.124,272.434,356.685z
			 M261.332,461.484c-1.487-1.277-2.395-2.058-3.303-2.838c-0.697,0.875-1.965,1.773-1.928,2.616
			c0.035,0.792,1.341,1.841,2.293,2.155C258.922,463.593,259.871,462.494,261.332,461.484z M268.804,455.242
			c-1.379-1.407-2.129-2.174-2.88-2.939c-0.798,0.854-2.069,1.624-2.242,2.59c-0.136,0.764,1.059,2.478,1.7,2.496
			C266.303,457.417,267.258,456.286,268.804,455.242z M252.055,177.182c0.448,0.353,0.897,0.707,1.345,1.06
			c1.634-0.183,3.974,0.471,3.431-2.629c-0.147-0.845-1.417-1.492-2.172-2.229C253.791,174.649,252.923,175.915,252.055,177.182z
			 M268.437,185.907c-0.642-0.335-1.286-0.671-1.928-1.007c-0.323,1.009-1.146,2.208-0.851,2.98
			c0.425,1.108,1.561,2.077,2.627,2.716c0.274,0.164,2.13-1.297,2.03-1.72C270.059,187.799,269.109,186.885,268.437,185.907z
			 M274.84,379.089c-1.542-1.308-2.484-2.106-3.427-2.905c-0.729,0.979-1.806,1.886-2.035,2.971
			c-0.109,0.521,1.357,1.893,2.167,1.942C272.397,381.148,273.316,380.08,274.84,379.089z M252.627,413.451
			c-1.136,1.781-2.251,2.782-2.071,3.415c0.302,1.065,1.428,1.897,2.206,2.827c0.766-0.773,2.128-1.533,2.146-2.324
			C254.93,416.396,253.833,415.396,252.627,413.451z M252.66,419.798c-0.937,1.633-2.023,2.757-1.786,3.275
			c0.488,1.07,1.684,1.817,2.588,2.697c0.634-0.751,1.904-1.658,1.766-2.22C254.957,422.438,253.907,421.514,252.66,419.798z
			 M275.402,277.219c-1.357-1.09-2.169-1.74-2.98-2.392c-0.734,0.96-1.917,1.868-2.036,2.899c-0.073,0.632,1.428,1.917,2.332,2.029
			C273.356,279.835,274.178,278.439,275.402,277.219z M247.269,286.815c1.889-1.149,3.206-1.951,4.522-2.753
			c-0.589-0.814-1.091-2.236-1.782-2.334C247.501,281.373,246.846,283.008,247.269,286.815z M272.945,312.191
			c-1.212,1.823-2.285,2.721-2.223,3.531c0.07,0.924,1.154,1.769,1.796,2.647c0.85-0.684,2.313-1.303,2.395-2.067
			C275.016,315.33,273.998,314.239,272.945,312.191z M249.978,350.354c-1.155,1.674-2.471,2.778-2.288,3.509
			c0.249,0.996,1.64,1.707,2.541,2.54c0.613-0.857,1.691-1.705,1.712-2.578C251.964,352.918,250.963,351.988,249.978,350.354z
			 M253.531,360.044c-1.76-1.213-2.749-2.419-3.638-2.35c-0.799,0.063-2.214,1.706-2.059,2.329c0.239,0.963,1.479,1.999,2.505,2.315
			C250.901,362.512,251.899,361.271,253.531,360.044z M250.152,382.574c1.252-1.795,2.354-2.675,2.313-3.499
			c-0.047-0.95-1.101-1.851-1.718-2.772c-0.797,0.798-2.018,1.486-2.259,2.427C248.287,379.513,249.235,380.591,250.152,382.574z
			 M273.14,404.524c-1.262-1.124-2.087-2.431-2.902-2.424c-0.803,0.007-2.363,1.541-2.231,2.057c0.276,1.079,1.447,1.93,2.25,2.873
			C271.072,406.321,271.888,405.612,273.14,404.524z M264.721,457.548c-1.225,1.628-2.204,2.632-2.714,3.835
			c-0.117,0.274,1.677,1.921,2.08,1.747c1.067-0.458,2.162-1.434,2.617-2.478C266.921,460.152,265.714,459.032,264.721,457.548z
			 M259.875,169.345c-2.104-1.034-3.217-2.051-3.986-1.835c-0.881,0.247-1.759,1.504-2.022,2.488
			c-0.114,0.425,1.397,1.868,2.022,1.781C256.944,171.631,257.881,170.636,259.875,169.345z M276.123,321.306
			c-1.741-1.007-2.828-2.089-3.41-1.863c-0.873,0.335-1.919,1.595-1.911,2.451c0.01,0.844,1.243,1.673,1.938,2.508
			C273.616,323.6,274.491,322.799,276.123,321.306z M252.824,366.827c-0.007-0.438-0.016-0.876-0.023-1.313
			c-1-0.51-2.08-1.523-2.976-1.381c-0.806,0.128-1.41,1.525-2.103,2.362c0.851,0.628,1.661,1.669,2.567,1.762
			C251.077,368.337,251.975,367.346,252.824,366.827z M255.21,207.148c-1.643-0.794-2.659-1.691-3.594-1.612
			c-0.796,0.066-1.499,1.255-2.243,1.946c0.934,0.853,1.76,2.097,2.845,2.395C252.776,210.029,253.797,208.493,255.21,207.148z
			 M269.592,400.975c0.689-0.006,1.378-0.012,2.068-0.018c0.204-1.451,0.409-2.901,0.614-4.352
			c-1.154-0.025-2.308-0.051-3.462-0.075C269.071,398.011,269.332,399.492,269.592,400.975z M248.881,319.042
			c1.264-1.424,2.598-2.289,2.52-3c-0.098-0.896-1.259-2.175-2.129-2.327c-0.666-0.117-2.069,1.149-2.261,2
			C246.846,316.446,247.932,317.459,248.881,319.042z M272.426,362.954c-1.303,1.654-2.063,2.616-2.821,3.58
			c0.853,0.647,1.731,1.832,2.553,1.794c0.858-0.039,2.177-1.16,2.333-1.99C274.635,365.584,273.487,364.586,272.426,362.954z
			 M259.062,448.58c-1.93-0.941-2.873-1.771-3.779-1.731c-0.779,0.033-1.515,1.061-2.271,1.648c0.826,0.803,1.548,2.036,2.51,2.268
			C256.219,450.932,257.235,449.77,259.062,448.58z M275.375,251.663c-1.828-0.796-2.857-1.658-3.586-1.453
			c-0.888,0.249-1.523,1.396-2.269,2.156c0.705,0.675,1.572,2.013,2.08,1.888C272.688,253.986,273.591,252.964,275.375,251.663z
			 M250.71,401.466c0.784-0.203,1.567-0.406,2.351-0.608c-0.29-1.56-0.499-3.146-1-4.633c-0.048-0.145-1.906,0.32-2.924,0.503
			C249.662,398.307,250.186,399.887,250.71,401.466z M273.623,226.731c-1.517-1.195-2.383-2.406-3.263-2.417
			c-0.824-0.01-1.665,1.25-2.499,1.952c0.716,0.831,1.347,2.215,2.17,2.341C270.898,228.74,271.95,227.67,273.623,226.731z
			 M276.031,328.43c-1.603-1.001-2.62-2.122-3.334-1.955c-0.811,0.191-1.35,1.537-2.007,2.381c0.838,0.637,1.621,1.642,2.534,1.779
			C273.834,330.729,274.63,329.587,276.031,328.43z M248.922,318.318c-1.018,1.666-2.09,2.645-1.96,3.421
			c0.139,0.833,1.43,2.065,2.182,2.04c0.782-0.025,2.08-1.313,2.125-2.109C251.317,320.845,250.135,319.948,248.922,318.318z
			 M250.069,368.954c-0.981,1.836-1.965,2.853-1.761,3.481c0.335,1.031,1.442,1.812,2.225,2.698
			c0.649-0.694,1.907-1.481,1.818-2.063C252.181,371.954,251.247,370.954,250.069,368.954z M273.343,410.716
			c-1.794-0.934-2.799-1.897-3.563-1.734c-0.821,0.175-1.417,1.409-2.11,2.182c0.792,0.684,1.56,1.867,2.384,1.907
			C270.846,413.108,271.695,411.964,273.343,410.716z M269.235,446.128c-2.19,1.077-3.651,1.797-5.112,2.516
			c0.499,0.791,0.867,2.122,1.517,2.279C268.405,451.589,268.847,449.625,269.235,446.128z M268.816,169.598
			c-1.509-1.045-2.34-2.07-3.003-1.971c-0.903,0.135-1.679,1.127-2.509,1.751c0.708,0.793,1.33,2.089,2.151,2.233
			C266.212,171.743,267.186,170.638,268.816,169.598z M253.169,258.881c-1.397-1.277-2.186-1.997-2.973-2.717
			c-0.708,0.829-1.936,1.635-1.974,2.492c-0.035,0.815,1.047,2.15,1.878,2.377C250.715,261.2,251.715,259.958,253.169,258.881z
			 M273.595,220.621c-1.765-1.212-2.669-2.226-3.715-2.4c-0.584-0.098-1.4,1.195-2.112,1.862c0.815,0.832,1.507,1.979,2.497,2.371
			C270.813,222.671,271.861,221.625,273.595,220.621z M249.252,274.196c-0.956,1.522-2.115,2.698-1.882,3.137
			c0.52,0.982,1.655,1.771,2.715,2.247c0.282,0.127,1.839-1.395,1.707-1.753C251.385,276.718,250.444,275.804,249.252,274.196z
			 M249.208,325.309c-1.131,1.489-2.258,2.349-2.139,2.965c0.177,0.908,1.243,1.643,1.93,2.451c0.731-0.639,2.021-1.248,2.056-1.922
			C251.101,327.918,250.157,326.982,249.208,325.309z M268.772,419.901c0.396,0.022,0.792,0.044,1.187,0.066
			c0.56-0.913,1.58-1.844,1.544-2.732c-0.034-0.837-1.183-1.627-1.841-2.438c-0.717,0.601-2.005,1.184-2.024,1.807
			C267.604,417.69,268.352,418.801,268.772,419.901z M253.726,233.37c-1.501-1.11-2.3-2.158-3.007-2.1
			c-0.769,0.064-1.923,1.084-2.036,1.821c-0.105,0.687,0.963,2.212,1.469,2.192C251.097,235.246,252.01,234.358,253.726,233.37z
			 M253.472,433.644c-0.563,0.458-1.125,0.918-1.688,1.377c0.78,1.208,1.56,2.417,2.339,3.624c0.781-0.635,1.563-1.271,2.344-1.906
			C255.469,435.707,254.471,434.675,253.472,433.644z M272.771,214.55c-1.354-1.266-2.091-2.488-2.936-2.569
			c-0.632-0.06-1.958,1.347-1.967,2.113c-0.01,0.854,0.979,2.189,1.796,2.434C270.288,216.715,271.323,215.528,272.771,214.55z
			 M251.139,223.624c1.021-1.478,2.065-2.339,1.937-2.959c-0.192-0.93-1.206-1.689-1.87-2.521c-0.768,0.716-2.061,1.371-2.154,2.165
			C248.959,221.1,250.071,222.032,251.139,223.624z M252.351,297.152c-1.484-1.118-2.301-2.187-3.208-2.269
			c-0.694-0.063-1.501,1.118-2.259,1.746c0.733,0.819,1.338,2.024,2.244,2.325C249.74,299.158,250.774,298.086,252.351,297.152z
			 M268.143,439.366c1.059-1.311,1.755-2.173,2.453-3.034c-0.82-0.614-1.612-1.659-2.466-1.712
			c-0.752-0.047-1.574,1.014-2.366,1.585C266.436,437.099,267.108,437.991,268.143,439.366z M259.526,455.037
			c-1.173-0.952-2.253-2.153-2.526-1.991c-1.017,0.602-1.769,1.65-2.621,2.532c0.754,0.659,1.615,1.938,2.238,1.831
			C257.541,457.25,258.297,456.11,259.526,455.037z M252.177,302.795c-1.378-1.001-2.437-2.213-2.908-2.017
			c-0.966,0.402-1.617,1.561-2.397,2.407c0.814,0.589,1.615,1.612,2.446,1.637C250.074,304.845,250.863,303.783,252.177,302.795z
			 M250.244,242.415c1.1-1.51,2.011-2.292,2.211-3.228c0.105-0.493-1.028-1.252-1.603-1.891c-0.797,0.763-1.806,1.415-2.286,2.341
			C248.375,240.009,249.343,240.983,250.244,242.415z M368.015,151.053c-0.888,0.167-2.649,0.264-2.678,0.54
			c-0.228,2.208-0.128,4.45-0.128,6.682c0.599,0.03,1.195,0.06,1.793,0.09C367.305,156.174,367.608,153.983,368.015,151.053z
			 M275.757,354.099c-1.519-1.184-2.388-1.86-3.257-2.538c-0.632,0.883-1.656,1.724-1.759,2.665
			c-0.069,0.64,1.188,2.028,1.791,1.994C273.422,356.17,274.258,355.154,275.757,354.099z M254.86,439.787
			c-1.021,1.211-2.205,2.042-2.091,2.613c0.181,0.908,1.229,1.645,1.909,2.453c0.778-0.76,1.896-1.406,2.2-2.322
			C257.045,442.025,255.847,441.066,254.86,439.787z M251.967,211.267c-1.29,1.392-2.594,2.182-2.632,3.029
			c-0.032,0.716,1.302,1.76,2.238,2.119c0.364,0.14,1.731-1.135,1.849-1.89C253.542,213.741,252.708,212.808,251.967,211.267z
			 M253.159,347.398c-1.521-1.028-2.45-2.11-3.045-1.95c-0.871,0.234-1.848,1.262-2.097,2.144c-0.138,0.488,1.171,1.981,1.733,1.933
			C250.679,349.444,251.532,348.483,253.159,347.398z M265.999,193.83c-0.006,0.715-0.012,1.431-0.018,2.146
			c1.421,0.064,2.843,0.127,4.265,0.192c-0.053-0.813-0.031-2.318-0.168-2.333C268.734,193.69,267.363,193.795,265.999,193.83z
			 M274.784,258.763c-1.139-0.998-2.037-2.306-2.618-2.177c-0.921,0.202-1.631,1.366-2.429,2.123
			c0.782,0.787,1.457,1.951,2.387,2.215C272.661,261.074,273.608,259.767,274.784,258.763z M272.148,200.991
			c-1.482-1.066-2.297-1.996-3.265-2.2c-0.472-0.101-1.868,1.391-1.735,1.747c0.362,0.969,1.182,2.019,2.092,2.423
			C269.686,203.159,270.736,201.991,272.148,200.991z M250.859,229.91c1.095-1.917,2.001-2.804,1.959-3.645
			c-0.037-0.738-1.135-1.425-1.765-2.134c-0.755,0.702-1.97,1.313-2.131,2.132C248.776,227.01,249.771,227.981,250.859,229.91z
			 M274.884,384.929c-1.794-0.877-2.764-1.763-3.42-1.571c-0.894,0.26-1.548,1.342-2.305,2.072c0.718,0.582,1.474,1.674,2.145,1.624
			C272.231,386.983,273.095,386.055,274.884,384.929z M276.162,303.038c-1.655-1.149-2.5-2.171-3.384-2.206
			c-0.656-0.026-1.838,1.182-1.91,1.925c-0.067,0.692,1.007,2.097,1.606,2.111C273.402,304.893,274.354,304.003,276.162,303.038z
			 M274.288,233c-1.796-0.946-2.785-1.876-3.716-1.823c-0.716,0.041-1.987,1.427-1.885,2.022c0.14,0.816,1.336,2.005,2.096,2.018
			C271.671,235.231,272.577,234.151,274.288,233z M269.733,210.596c0.973-1.589,2.013-2.574,1.82-3.135
			c-0.299-0.867-1.352-1.742-2.263-2.011c-0.412-0.123-1.822,1.259-1.763,1.861C267.612,208.205,268.6,209.012,269.733,210.596z
			 M255.833,201.184c-1.67-0.889-2.608-1.756-3.062-1.551c-0.933,0.42-1.812,1.312-2.271,2.229
			c-0.157,0.314,1.252,1.947,1.521,1.846C253.105,203.302,254.022,202.453,255.833,201.184z M254.422,191.923
			c-0.655,0.401-1.309,0.802-1.964,1.204c-0.568,0.735-1.567,1.469-1.57,2.207c-0.003,0.603,1.454,1.841,1.791,1.696
			c0.938-0.403,1.988-1.252,2.31-2.166C255.276,194.051,254.647,192.916,254.422,191.923z M256.983,188.611
			c-1.43-1.159-2.304-2.352-2.875-2.222c-0.9,0.207-1.949,1.186-2.242,2.067c-0.161,0.485,1.076,2.018,1.72,2.042
			C254.463,190.529,255.375,189.57,256.983,188.611z M272.788,344.487c-1.108,1.231-2.213,1.915-2.262,2.668
			c-0.048,0.748,0.963,1.566,1.509,2.354c0.861-0.698,1.995-1.256,2.464-2.159C274.716,346.934,273.637,345.843,272.788,344.487z
			 M275.736,340.661c-1.462-1.049-2.526-2.238-2.966-2.04c-0.908,0.409-1.668,1.479-2.082,2.45
			c-0.122,0.285,1.224,1.718,1.732,1.634C273.376,342.547,274.209,341.665,275.736,340.661z M271.574,429.461
			c-0.509-0.633-1.018-1.265-1.527-1.897c-1.113,0.839-2.227,1.679-3.34,2.518c0.703,0.649,1.75,1.977,2.045,1.825
			C269.828,431.358,270.654,430.316,271.574,429.461z M249.427,338.291c0.894-1.428,1.812-2.26,1.796-3.073
			c-0.013-0.638-1.215-1.79-1.827-1.751c-0.878,0.056-1.7,0.988-2.546,1.547C247.539,335.89,248.228,336.765,249.427,338.291z
			 M251.625,389.129c-1.228,1.51-2.251,2.273-2.458,3.217c-0.114,0.521,1.139,1.342,1.775,2.026c0.742-0.786,1.724-1.47,2.125-2.402
			C253.268,391.506,252.404,390.585,251.625,389.129z M246.952,252.497c1.51,0.97,2.571,2.063,3.018,1.854
			c0.933-0.438,1.797-1.476,2.149-2.459c0.127-0.356-1.369-1.861-1.985-1.78C249.228,250.23,248.446,251.302,246.952,252.497z
			 M274.636,391.607c-1.678-0.798-2.664-1.679-3.323-1.479c-0.867,0.262-1.476,1.375-2.197,2.121c0.722,0.643,1.53,1.88,2.143,1.789
			C272.202,393.898,273.012,392.85,274.636,391.607z M272.827,293.951c1.027-1.807,1.823-2.682,1.939-3.638
			c0.057-0.463-1.229-1.584-1.789-1.511c-0.846,0.11-2.247,1.025-2.231,1.562C270.775,291.281,271.72,292.17,272.827,293.951z
			 M248.92,287.847c-0.958,1.28-2.136,2.333-1.949,2.708c0.445,0.894,1.533,1.468,2.361,2.172c0.626-0.742,1.712-1.466,1.743-2.23
			C251.103,289.806,249.975,289.068,248.92,287.847z M267.624,439.497c-1.096,1.507-1.979,2.328-2.265,3.322
			c-0.103,0.357,1.553,1.75,1.845,1.597c0.934-0.489,1.82-1.379,2.269-2.33C269.644,441.726,268.576,440.779,267.624,439.497z
			 M271.583,248.335c0.844-1.21,1.868-2.101,1.701-2.563c-0.302-0.839-1.31-1.958-2.027-1.96c-0.705-0.003-1.9,1.189-1.971,1.944
			C269.225,246.394,270.466,247.153,271.583,248.335z M273.318,240.74c0.466-0.709,0.932-1.418,1.398-2.127
			c-1.188-0.411-2.362-1.057-3.572-1.136c-0.612-0.04-1.902,1.089-1.82,1.439c0.214,0.907,0.861,1.943,1.643,2.402
			C271.468,241.61,272.516,240.964,273.318,240.74z M275.827,296.652c-1.554-0.901-2.441-1.832-3.194-1.733
			c-0.713,0.093-1.891,1.39-1.778,1.93c0.164,0.78,1.255,1.786,2.05,1.884C273.573,298.814,274.385,297.738,275.827,296.652z
			 M273.609,286.333c0.55-0.591,1.098-1.181,1.647-1.771c-1.039-0.95-2.079-1.901-3.119-2.851c-0.476,0.582-1.454,1.551-1.35,1.686
			C271.613,284.465,272.643,285.375,273.609,286.333z M250.083,248.578c1.119-1.504,2.204-2.33,2.134-3.043
			c-0.073-0.752-1.152-1.662-1.987-1.963c-0.356-0.128-1.665,1.076-1.715,1.737C248.455,246.113,249.264,246.984,250.083,248.578z
			 M250.794,388.087c1.015-1.276,2.076-2.034,2.013-2.683c-0.074-0.761-1.125-1.426-1.753-2.133
			c-0.783,0.707-1.822,1.296-2.229,2.176C248.652,385.822,249.802,386.808,250.794,388.087z M248.679,344.252
			c2.063-1.908,2.722-2.519,3.382-3.129c-0.864-0.687-1.65-1.688-2.623-1.927c-0.501-0.123-1.829,1.067-1.898,1.754
			C247.444,341.902,248.18,342.939,248.679,344.252z M257.041,430.189c-1.664-1.063-2.518-2.042-3.249-1.957
			c-0.733,0.086-1.677,1.149-1.873,1.946c-0.109,0.443,1.088,1.682,1.748,1.721C254.474,431.946,255.332,431.114,257.041,430.189z
			 M272.786,332.568c-0.927,1.198-1.908,1.928-1.961,2.719c-0.038,0.556,1.29,1.763,1.832,1.668c0.868-0.15,1.59-1.14,2.374-1.774
			C274.415,334.464,273.799,333.747,272.786,332.568z"/>
		<path fill-rule="evenodd" clip-rule="evenodd" d="M379.293,312.022c0,0.938-0.027,1.306,0.004,1.669
			c0.536,6.39,0.537,6.389,6.716,7.153c4.676,0.578,4.963,1.139,3.67,5.568c-2.772,9.49-5.358,19.036-8.219,28.499
			c-0.434,1.436-1.932,2.551-2.938,3.813c-0.834-1.231-1.926-2.362-2.458-3.713c-2.161-5.485-4.165-11.032-6.196-16.567
			c-1.566-4.267-3.179-8.52-4.595-12.835c-0.919-2.801,0.051-4.685,3.235-4.9c1.366-0.092,2.749,0.027,4.109-0.101
			c2.002-0.189,3.313-0.806,2.313-3.33c-0.578-1.464-0.557-3.164-0.839-4.967c-0.44-0.158-1-0.532-1.562-0.534
			c-7.496-0.033-14.994,0.017-22.49-0.028c-2.325-0.014-3.155,0.745-3.191,3.289c-0.191,13.227-0.575,26.453-1.085,39.672
			c-0.05,1.289-1.424,2.527-2.184,3.789c-0.601-1.182-1.741-2.371-1.721-3.542c0.222-13.239,0.623-26.476,0.97-39.713
			c0.026-0.977,0.004-1.953,0.004-3.45c-4.642,0-9.082,0.002-13.521-0.001c-25.102-0.02-50.203-0.04-75.304-0.061
			c-26.344-0.02-52.688-0.041-79.031-0.056c-28.853-0.017-57.705-0.003-86.558-0.076c-2.515-0.007-2.822,1.213-2.817,3.255
			c0.036,17.096,0.044,34.19-0.043,51.286c-0.01,1.893-0.668,3.781-1.925,5.586c-1.846-19.86-0.819-39.689-1.439-59.793
			c-2.22-0.127-4.192-0.376-6.156-0.328c-8.484,0.206-16.966,0.72-25.448,0.709c-12.094-0.015-24.188-0.357-36.279-0.679
			c-0.961-0.025-1.897-0.978-2.845-1.499c1.002-0.607,2-1.738,3.006-1.744c20.122-0.125,40.245-0.12,60.367-0.141
			c2.355-0.002,4.71,0,7.28,0c0-87.641,0-174.974,0-262.799c-2.42,1.917-4.341,3.437-6.843,5.418c0-1.722-0.178-2.476,0.027-3.106
			c2.339-7.207,4.733-14.397,7.127-21.586c0.115-0.345,0.293-0.767,0.573-0.946c6.291-4,3.381-9.988,3.168-15.302
			c-0.048-1.214-1.454-2.375-2.737-4.323c1.8-0.253,3.472-0.996,4.589-0.497c1.033,0.461,1.788,2.179,2.098,3.477
			c0.45,1.893,0.391,3.905,0.553,5.909c3.024-0.678,4.672-3.528,4.036-6.131c-0.231-0.945-0.078-2.091,0.261-3.014
			c0.114-0.31,1.739-0.535,1.988-0.233c0.639,0.777,1.217,1.859,1.249,2.836c0.149,4.531-3.482,7.071-5.8,10.248
			c-1.961,2.688-4.429,5-6.509,7.609c-0.509,0.639-0.738,1.903-0.485,2.681c2.113,6.493,4.4,12.929,6.543,19.413
			c0.282,0.854,0.039,1.881,0.039,3.125c-2.544-1.815-4.38-3.125-6.51-4.644c0,87.496,0,174.375,0,261.874
			c5.293,0,10.364,0.004,15.434-0.001c42.615-0.038,85.229-0.048,127.844-0.146c6.602-0.015,13.202-0.597,19.804-0.615
			c5.974-0.016,11.949,0.544,17.925,0.568c24.712,0.097,49.425,0.063,74.137,0.155c2.661,0.01,3.425-0.881,3.866-3.597
			c1.755-10.781,3.771-21.529,6.097-32.201c0.661-3.032,2.483-5.897,4.153-8.604c2.419-3.918,9.403-4.088,11.793-0.122
			c2.275,3.778,4.506,7.822,5.56,12.048c2.03,8.147,3.207,16.507,4.761,24.774c0.388,2.065,0.682,4.18,1.395,6.135
			c0.265,0.726,1.6,1.499,2.454,1.507c10.235,0.104,20.472,0.066,31.305,0.066c-2.514-7.758-4.903-15.134-7.292-22.509
			c0.316-0.275,0.634-0.551,0.951-0.826c1.821,1.513,3.643,3.026,6.141,5.101c0-38.911,0-77.259,0-115.608
			c-0.269-0.215-0.539-0.431-0.808-0.646c-1.298,1.968-2.596,3.935-3.894,5.903c-0.563-0.397-1.127-0.794-1.691-1.19
			c0.942-3.35,1.855-6.708,2.835-10.047c1.162-3.97,2.357-7.931,3.6-11.875c0.197-0.624,0.771-1.643,1.083-1.612
			c0.696,0.07,1.738,0.545,1.939,1.105c2.65,7.401,5.18,14.845,7.74,22.278c-0.449,0.257-0.898,0.514-1.348,0.771
			c-1.65-1.436-3.301-2.871-4.951-4.307c-0.365,0.067-0.729,0.135-1.094,0.203c0,38.026,0,76.052,0,115.045
			c2.053-2.121,3.56-3.679,5.066-5.235c0.509,0.229,1.019,0.459,1.527,0.688c-2.17,7.265-4.34,14.53-6.687,22.387
			c22.729,0,44.761,0,67.4,0c-0.771-1.225-1.442-2.277-2.097-3.34c-0.401-0.651-0.774-1.319-1.161-1.979
			c0.885-0.115,1.862-0.534,2.637-0.297c4.578,1.407,9.092,3.024,13.665,4.452c2.121,0.662,4.35,0.975,6.479,1.62
			c0.683,0.207,1.587,0.91,1.677,1.497c0.084,0.542-0.659,1.588-1.256,1.802c-7.1,2.53-14.237,4.954-21.378,7.367
			c-0.422,0.144-0.957-0.047-2.509-0.162c1.683-2.42,3.018-4.339,4.726-6.795C448.447,312.022,414.008,312.022,379.293,312.022z
			 M373.005,308.184c0.175-1.149,0.376-1.763,0.343-2.363c-0.706-12.905-3.151-25.446-8.327-37.332
			c-0.719-1.649-2.598-2.794-3.939-4.172c-1.184,1.175-2.929,2.142-3.453,3.561c-2.438,6.597-4.988,13.211-6.624,20.029
			c-1.551,6.454-2.014,13.17-2.982,19.961c1.256,0.147,1.975,0.303,2.695,0.305C358.057,308.189,365.396,308.184,373.005,308.184z
			 M386.453,324.346c-6.336,0-11.621,0-17.871,0c3.381,9.218,6.535,17.82,9.689,26.423c0.293-0.134,0.585-0.267,0.876-0.4
			C381.533,341.873,383.918,333.378,386.453,324.346z"/>
		<path fill-rule="evenodd" clip-rule="evenodd" d="M357.799,154.958c0.595,6.867,6.051,5.429,10.648,5.748
			c-0.463,1.251-0.76,2.002-1.02,2.767c-0.51,1.503-0.766,4.121-1.55,4.287c-1.537,0.326-3.561-0.376-5.036-1.242
			c-4.784-2.806-9.227-6.25-14.17-8.705c-2.8-1.391-6.322-1.326-9.694-1.949c0.146-0.372,0.518-1.315,0.846-2.15
			c-13.403-7.397-27.853-9.79-42.813-7.683c-5.426,0.764-10.491,3.913-15.796,5.759c-5.391,1.875-8.077,6.45-11.04,10.701
			c-1.98,2.842-4.428,4.208-7.824,3.855c-5.04-0.524-9.14,1.004-13.16,4.296c-4.046,3.313-8.893,5.683-13.504,8.26
			c-6.41,3.581-12.768,7.319-19.437,10.356c-8.554,3.896-17.623,6.693-27.102,4.656c-4.979-1.069-9.744-3.477-14.372-5.755
			c-7.673-3.775-12.667-10.747-18.678-16.493c-2.113-2.021-1.189-4.361,0.258-6.045c1.61-1.874,2.686,0.012,3.803,1.211
			c3.579,3.837,6.87,8.068,10.953,11.285c9.068,7.146,19.074,12.089,31.159,8.943c5.163-1.343,10.425-2.649,15.256-4.828
			c5.073-2.29,9.696-5.585,14.494-8.477c5.666-3.416,11.326-6.843,16.953-10.321c2.511-1.552,5.319-2.427,4.485-6.858
			c-0.854-4.538,4.468-9.828,9.236-10.255c0.999-0.089,2.304,0.251,3.055,0.884c3.651,3.074,6.267,3.76,11.609-0.502
			c1.733-1.384,4.367-1.587,6.499-2.533c14.87-6.599,29.886-6.232,45.068-1.18c9.378,3.122,18.16,7.508,26.86,12.122
			C354.711,155.602,356.191,155.048,357.799,154.958z"/>
		<path fill-rule="evenodd" clip-rule="evenodd" d="M350.019,102.792c-0.607-2.79-1.096-5.027-1.582-7.263
			c0.396-0.204,0.793-0.406,1.189-0.609c4.816,5.654,9.633,11.308,14.921,17.515c0.445-2.022,0.694-3.154,0.943-4.286
			c0.322-0.159,0.645-0.318,0.967-0.477c0.548,0.888,1.464,1.739,1.558,2.671c0.139,1.397-0.302,2.851-0.567,4.813
			c-1.916,1.153-24.439-3.314-27.207-6.282c2.518-0.937,4.846-1.803,7.694-2.863c-17.492-11.797-35.926-15.628-55.551-12.031
			c-7.549,1.384-14.73,4.781-21.263,9.323c-4.714,3.279-10.068,5.62-14.993,8.616c-4.993,3.036-9.747,6.464-14.721,9.532
			c-4.379,2.7-9.041,4.95-13.361,7.734c-7.536,4.857-15.571,8.612-24.219,10.795c-7.894,1.993-15.933,1.195-23.586-1.227
			c-4.503-1.424-8.589-4.163-13.159-6.46c-0.306,1.775-0.686,3.972-1.065,6.17c-0.36,0.137-0.721,0.275-1.081,0.412
			c-1.146-1.967-2.415-3.875-3.409-5.916c-1.674-3.437-3.027-7.036-4.826-10.401c-0.613-1.148-2.162-1.795-3.177-2.589
			c-0.179-3.438-0.41-6.861-0.488-10.289c-0.013-0.569,0.641-1.153,0.986-1.73c0.526,0.397,1.557,0.886,1.504,1.179
			c-1.551,8.606,6.458,8.687,10.766,11.831c3.38,2.466,7.415,4.035,11.159,6.001c-0.117,0.442-0.232,0.886-0.349,1.328
			c-2.221,0.21-4.441,0.421-7.494,0.71c6.579,5.164,12.944,8.72,20.83,8.759c1.374,0.007,2.748,0.059,4.122,0.044
			c4.571-0.047,8.88-0.08,13.198-2.768c5.293-3.295,11.517-5.055,17.089-7.958c5.412-2.819,10.503-6.251,15.746-9.397
			c7.567-4.54,15.058-9.217,22.744-13.549c6.229-3.51,12.562-6.899,19.087-9.803c10.96-4.878,22.662-6.903,34.344-4.251
			c8.813,2,17.18,5.986,25.71,9.184C344.751,100.113,346.895,101.314,350.019,102.792z"/>
		<path fill-rule="evenodd" clip-rule="evenodd" d="M58.86,346.215c-5.621-0.528-10.118-4.924-9.284-9.892
			c1.224-7.288,6.435-14.993,16.12-13.964c3.843,0.408,6.002,1.965,6.349,5.491c0.596,6.069-1.186,11.142-6.693,14.437
			C63.182,343.586,61.023,344.905,58.86,346.215z M68.558,329.441c-0.968-1.85-1.491-4.348-3.012-5.393
			c-2.15-1.477-4.183,0.176-6.241,1.726c-3.825,2.881-4.515,7.105-5.305,11.106c-0.834,4.228,1.751,6.127,6.103,5.254
			C64.382,341.276,67.572,336.179,68.558,329.441z"/>
		<path fill-rule="evenodd" clip-rule="evenodd" d="M267.482,68.979c-0.7,2.209-1.397,4.408-2.345,7.397
			c-0.943-1.305-1.522-1.742-1.564-2.226c-0.19-2.163-0.997-3.737-3.426-3.402c-1.214,0.167-2.963,0.618-3.399,1.482
			c-1.201,2.378,1.215,3.235,2.451,4.724c1.951,2.348,4.278,4.954,4.823,7.765c0.807,4.16-5.602,8.164-9.653,6.597
			c-1.674-0.648-3.389-1.19-5.571-1.95c0.041-0.91-0.079-2.275,0.217-3.543c0.247-1.056,0.983-1.996,1.502-2.988
			c0.599,0.899,1.499,1.728,1.731,2.713c0.435,1.845,0.909,3.563,3.182,3.34c1.471-0.145,4.051-0.712,4.111-1.299
			c0.182-1.761-0.167-3.946-1.161-5.374c-1.487-2.135-4.225-3.484-5.419-5.71c-0.82-1.527-0.596-4.401,0.361-5.916
			c1.603-2.54,4.318-4.19,7.689-3.427C263.011,67.614,264.966,68.264,267.482,68.979z"/>
		<path fill-rule="evenodd" clip-rule="evenodd" d="M443.885,238.875c0.335-2.292,0.642-4.385,1.055-7.214
			c0.785-0.037,2.26-0.105,3.735-0.174c-0.207,1.432-0.273,2.902-0.646,4.289c-1.164,4.308-2.469,8.577-3.642,12.883
			c-0.135,0.493,0.211,1.123,0.355,1.684c0.23,0.889,0.9,2.378,0.646,2.556c-1.122,0.784-2.467,1.448-3.81,1.666
			c-1.715,0.279-3.528-0.088-5.258,0.138c-2.507,0.327-3.985-0.205-4.416-3.049C430.869,244.823,435.632,239.486,443.885,238.875z
			 M441.497,240.853c-5.033,1.343-5.188,5.683-6.784,9.082C439.675,251.636,442.798,247.57,441.497,240.853z"/>
		<path fill-rule="evenodd" clip-rule="evenodd" d="M539.569,318.571c-1.46,1.489-2.92,2.98-4.865,4.966
			c-0.753-2.235-1.173-3.479-1.842-5.464c-1.981,1.635-3.646,3.007-5.697,4.7c-0.493-1.26-0.857-2.191-1.222-3.123
			c6.27-2.562,6.903-6.892,2.32-13.615c2.127,0.391,4.254,0.78,6.382,1.171c-0.085,0.242-0.17,0.484-0.255,0.727
			c2.016-0.554,4.03-1.108,6.047-1.663c0.2,1.02,0.401,2.038,0.679,3.441c-3.407-0.145-5.361,1.044-5.382,4.342
			c-0.015,2.401,0.349,4.383,4.369,3.114C539.926,317.635,539.747,318.103,539.569,318.571z"/>
		<path fill-rule="evenodd" clip-rule="evenodd" d="M440.718,227.989c-1.984,0-3.981,0.133-5.945-0.067
			c-0.762-0.079-1.446-0.915-2.166-1.404c0.643-0.638,1.274-1.813,1.931-1.827c4.451-0.094,8.91,0,13.359,0.204
			c0.57,0.026,1.096,1.043,1.641,1.602c-0.585,0.482-1.145,1.336-1.761,1.379c-2.343,0.164-4.704,0.066-7.059,0.066
			C440.718,227.957,440.718,227.973,440.718,227.989z"/>
		<path fill-rule="evenodd" clip-rule="evenodd" d="M249.922,260.975c1.126,1.695,2.503,2.881,2.315,3.712
			c-0.232,1.027-1.655,2.1-2.786,2.467c-0.498,0.161-2.314-1.544-2.188-2.091C247.551,263.822,248.672,262.775,249.922,260.975z"/>
		<path fill-rule="evenodd" clip-rule="evenodd" d="M249.477,274.703c-1.063-1.436-2.287-2.367-2.209-3.173
			c0.087-0.905,1.35-1.696,2.101-2.537c0.88,0.857,2.177,1.593,2.483,2.621C252.03,272.213,250.623,273.284,249.477,274.703z"/>
		<path fill-rule="evenodd" clip-rule="evenodd" d="M271.813,376.342c-1.17-1.482-2.383-2.469-2.21-2.907
			c0.483-1.223,1.54-2.218,2.37-3.303c0.842,0.755,2.454,1.625,2.362,2.241C274.16,373.548,273.014,374.578,271.813,376.342z"/>
		<path fill-rule="evenodd" clip-rule="evenodd" d="M254.945,179.063c0.542,1.011,1.662,2.147,1.478,3.002
			c-0.214,1-1.566,1.756-2.424,2.617c-0.574-0.917-1.536-1.803-1.609-2.758c-0.068-0.89,0.809-1.853,1.271-2.784
			C254.088,179.116,254.516,179.09,254.945,179.063z"/>
		<path fill-rule="evenodd" clip-rule="evenodd" d="M261.568,470.115c-1.571-1.496-2.43-2.313-3.288-3.13
			c0.975-0.776,1.88-2.018,2.947-2.177c0.805-0.12,2.42,1.033,2.566,1.823C263.938,467.418,262.698,468.459,261.568,470.115z"/>
		<path fill-rule="evenodd" clip-rule="evenodd" d="M269.907,420.374c0.54,0.953,1.507,1.912,1.498,2.86
			c-0.009,0.941-1.004,1.873-1.565,2.809c-0.88-0.937-2.094-1.746-2.511-2.855c-0.244-0.65,0.785-1.778,1.24-2.69
			C269.015,420.456,269.46,420.415,269.907,420.374z"/>
		<path fill-rule="evenodd" clip-rule="evenodd" d="M275.777,265.12c-1.547,0.95-2.584,2.089-3.322,1.919
			c-1.02-0.231-1.814-1.451-2.706-2.247c0.87-0.904,1.713-2.488,2.617-2.523C273.271,262.234,274.234,263.747,275.777,265.12z"/>
		<path fill-rule="evenodd" clip-rule="evenodd" d="M269.75,175.895c-1.611,1.109-2.497,2.197-3.255,2.115
			c-0.881-0.095-1.65-1.218-2.468-1.895c0.792-0.824,1.466-2.052,2.417-2.33C267.072,173.602,268.099,174.784,269.75,175.895z"/>
		<path fill-rule="evenodd" clip-rule="evenodd" d="M266.828,178.191c1.163,1.936,2.073,3.008,2.407,4.236
			c0.126,0.464-1.428,1.947-1.621,1.845c-1.201-0.638-2.457-1.443-3.185-2.533C264.203,181.401,265.566,180.002,266.828,178.191z"/>
		<path fill-rule="evenodd" clip-rule="evenodd" d="M255.448,411.047c-1.633,1.187-2.618,2.425-3.301,2.277
			c-1.026-0.223-1.842-1.419-2.747-2.199c0.908-0.774,1.722-1.938,2.756-2.185C252.83,408.779,253.822,409.949,255.448,411.047z"/>
		<path fill-rule="evenodd" clip-rule="evenodd" d="M254.635,404.037c-1.596,1.365-2.416,2.577-3.373,2.698
			c-0.599,0.075-1.929-1.472-1.964-2.329c-0.032-0.783,1.119-2.055,1.975-2.292C251.936,401.932,252.949,403.015,254.635,404.037z"
			/>
		<path fill-rule="evenodd" clip-rule="evenodd" d="M275.558,271.304c-1.358,1.123-2.4,2.529-3.001,2.361
			c-1.055-0.297-1.84-1.556-2.738-2.411c0.843-0.796,1.622-2.111,2.55-2.228C273.157,268.928,274.12,270.212,275.558,271.304z"/>
		<path fill-rule="evenodd" clip-rule="evenodd" d="M272.434,356.685c1.075,1.439,2.38,2.467,2.216,3.133
			c-0.249,1.011-1.4,2.188-2.401,2.473c-0.564,0.16-2.321-1.408-2.252-2.062C270.109,359.178,271.286,358.24,272.434,356.685z"/>
		<path fill-rule="evenodd" clip-rule="evenodd" d="M261.332,461.484c-1.46,1.01-2.409,2.108-2.938,1.934
			c-0.952-0.314-2.258-1.363-2.293-2.155c-0.037-0.843,1.231-1.741,1.928-2.616C258.937,459.427,259.845,460.207,261.332,461.484z"
			/>
		<path fill-rule="evenodd" clip-rule="evenodd" d="M268.804,455.242c-1.546,1.044-2.501,2.175-3.422,2.146
			c-0.642-0.019-1.836-1.732-1.7-2.496c0.172-0.966,1.444-1.735,2.242-2.59C266.675,453.068,267.425,453.835,268.804,455.242z"/>
		<path fill-rule="evenodd" clip-rule="evenodd" d="M252.055,177.182c0.868-1.267,1.736-2.533,2.604-3.799
			c0.755,0.737,2.025,1.385,2.172,2.229c0.543,3.1-1.797,2.446-3.431,2.629C252.952,177.888,252.503,177.535,252.055,177.182z"/>
		<path fill-rule="evenodd" clip-rule="evenodd" d="M268.437,185.907c0.672,0.979,1.622,1.892,1.878,2.969
			c0.1,0.423-1.756,1.884-2.03,1.72c-1.066-0.64-2.202-1.608-2.627-2.716c-0.295-0.771,0.527-1.971,0.851-2.98
			C267.151,185.235,267.795,185.571,268.437,185.907z"/>
		<path fill-rule="evenodd" clip-rule="evenodd" d="M274.84,379.089c-1.523,0.991-2.443,2.06-3.294,2.008
			c-0.811-0.05-2.277-1.422-2.167-1.942c0.229-1.085,1.306-1.991,2.035-2.971C272.355,376.982,273.298,377.781,274.84,379.089z"/>
		<path fill-rule="evenodd" clip-rule="evenodd" d="M252.627,413.451c1.206,1.944,2.303,2.944,2.28,3.918
			c-0.018,0.791-1.379,1.551-2.146,2.324c-0.778-0.93-1.904-1.762-2.206-2.827C250.376,416.233,251.491,415.232,252.627,413.451z"/>
		<path fill-rule="evenodd" clip-rule="evenodd" d="M252.66,419.798c1.247,1.716,2.296,2.64,2.568,3.753
			c0.138,0.562-1.132,1.469-1.766,2.22c-0.904-0.88-2.1-1.627-2.588-2.697C250.637,422.555,251.723,421.431,252.66,419.798z"/>
		<path fill-rule="evenodd" clip-rule="evenodd" d="M275.402,277.219c-1.225,1.221-2.046,2.616-2.685,2.537
			c-0.904-0.112-2.405-1.397-2.332-2.029c0.119-1.031,1.302-1.939,2.036-2.899C273.233,275.479,274.045,276.129,275.402,277.219z"/>
		<path fill-rule="evenodd" clip-rule="evenodd" d="M247.269,286.815c-0.422-3.808,0.232-5.442,2.74-5.087
			c0.691,0.098,1.193,1.52,1.782,2.334C250.474,284.864,249.157,285.666,247.269,286.815z"/>
		<path fill-rule="evenodd" clip-rule="evenodd" d="M272.945,312.191c1.053,2.048,2.07,3.139,1.968,4.111
			c-0.081,0.765-1.545,1.384-2.395,2.067c-0.642-0.879-1.726-1.724-1.796-2.647C270.66,314.912,271.733,314.015,272.945,312.191z"/>
		<path fill-rule="evenodd" clip-rule="evenodd" d="M249.978,350.354c0.985,1.635,1.986,2.564,1.965,3.471
			c-0.021,0.873-1.099,1.721-1.712,2.578c-0.901-0.833-2.292-1.544-2.541-2.54C247.507,353.132,248.823,352.027,249.978,350.354z"/>
		<path fill-rule="evenodd" clip-rule="evenodd" d="M253.531,360.044c-1.632,1.228-2.629,2.468-3.191,2.295
			c-1.027-0.316-2.267-1.353-2.505-2.315c-0.155-0.623,1.26-2.267,2.059-2.329C250.782,357.625,251.771,358.831,253.531,360.044z"/>
		<path fill-rule="evenodd" clip-rule="evenodd" d="M250.152,382.574c-0.917-1.983-1.865-3.062-1.664-3.845
			c0.242-0.94,1.462-1.629,2.259-2.427c0.617,0.922,1.671,1.822,1.718,2.772C252.505,379.899,251.404,380.779,250.152,382.574z"/>
		<path fill-rule="evenodd" clip-rule="evenodd" d="M273.14,404.524c-1.251,1.088-2.068,1.797-2.883,2.506
			c-0.804-0.943-1.974-1.794-2.25-2.873c-0.132-0.516,1.428-2.05,2.231-2.057C271.052,402.094,271.878,403.4,273.14,404.524z"/>
		<path fill-rule="evenodd" clip-rule="evenodd" d="M264.721,457.548c0.993,1.484,2.2,2.604,1.982,3.104
			c-0.455,1.044-1.55,2.02-2.617,2.478c-0.403,0.174-2.197-1.473-2.08-1.747C262.518,460.18,263.496,459.176,264.721,457.548z"/>
		<path fill-rule="evenodd" clip-rule="evenodd" d="M259.875,169.345c-1.994,1.291-2.931,2.287-3.986,2.433
			c-0.625,0.087-2.137-1.355-2.022-1.781c0.263-0.983,1.141-2.241,2.022-2.488C256.658,167.294,257.771,168.311,259.875,169.345z"/>
		<path fill-rule="evenodd" clip-rule="evenodd" d="M276.123,321.306c-1.632,1.493-2.507,2.294-3.382,3.096
			c-0.696-0.835-1.929-1.664-1.938-2.508c-0.009-0.856,1.038-2.116,1.911-2.451C273.295,319.217,274.382,320.299,276.123,321.306z"
			/>
		<path fill-rule="evenodd" clip-rule="evenodd" d="M252.824,366.827c-0.849,0.519-1.747,1.51-2.535,1.43
			c-0.906-0.093-1.716-1.134-2.567-1.762c0.693-0.837,1.297-2.234,2.103-2.362c0.896-0.143,1.976,0.871,2.976,1.381
			C252.809,365.951,252.817,366.39,252.824,366.827z"/>
		<path fill-rule="evenodd" clip-rule="evenodd" d="M255.21,207.148c-1.413,1.345-2.434,2.881-2.992,2.729
			c-1.085-0.297-1.911-1.542-2.845-2.395c0.744-0.691,1.447-1.88,2.243-1.946C252.551,205.458,253.567,206.354,255.21,207.148z"/>
		<path fill-rule="evenodd" clip-rule="evenodd" d="M269.592,400.975c-0.26-1.482-0.521-2.964-0.78-4.444
			c1.154,0.024,2.308,0.05,3.462,0.075c-0.205,1.45-0.41,2.9-0.614,4.352C270.97,400.963,270.281,400.969,269.592,400.975z"/>
		<path fill-rule="evenodd" clip-rule="evenodd" d="M248.881,319.042c-0.949-1.583-2.035-2.596-1.871-3.327
			c0.192-0.851,1.595-2.117,2.261-2c0.871,0.152,2.031,1.431,2.129,2.327C251.479,316.753,250.145,317.618,248.881,319.042z"/>
		<path fill-rule="evenodd" clip-rule="evenodd" d="M272.426,362.954c1.061,1.632,2.208,2.63,2.065,3.384
			c-0.156,0.83-1.476,1.951-2.333,1.99c-0.821,0.038-1.7-1.146-2.553-1.794C270.364,365.57,271.123,364.608,272.426,362.954z"/>
		<path fill-rule="evenodd" clip-rule="evenodd" d="M259.062,448.58c-1.826,1.189-2.842,2.352-3.54,2.185
			c-0.962-0.231-1.685-1.465-2.51-2.268c0.755-0.588,1.491-1.615,2.271-1.648C256.188,446.809,257.132,447.639,259.062,448.58z"/>
		<path fill-rule="evenodd" clip-rule="evenodd" d="M275.375,251.663c-1.784,1.301-2.687,2.323-3.775,2.591
			c-0.507,0.125-1.375-1.213-2.08-1.888c0.745-0.76,1.381-1.907,2.269-2.156C272.518,250.005,273.547,250.867,275.375,251.663z"/>
		<path fill-rule="evenodd" clip-rule="evenodd" d="M250.71,401.466c-0.524-1.579-1.048-3.159-1.573-4.738
			c1.018-0.183,2.875-0.647,2.924-0.503c0.501,1.487,0.709,3.073,1,4.633C252.277,401.06,251.494,401.263,250.71,401.466z"/>
		<path fill-rule="evenodd" clip-rule="evenodd" d="M273.623,226.731c-1.673,0.939-2.725,2.009-3.591,1.876
			c-0.823-0.126-1.455-1.51-2.17-2.341c0.833-0.702,1.675-1.962,2.499-1.952C271.24,224.325,272.106,225.536,273.623,226.731z"/>
		<path fill-rule="evenodd" clip-rule="evenodd" d="M276.031,328.43c-1.401,1.157-2.197,2.299-2.808,2.205
			c-0.914-0.138-1.696-1.143-2.534-1.779c0.657-0.844,1.196-2.189,2.007-2.381C273.411,326.308,274.429,327.429,276.031,328.43z"/>
		<path fill-rule="evenodd" clip-rule="evenodd" d="M248.922,318.318c1.213,1.63,2.396,2.526,2.348,3.352
			c-0.045,0.796-1.343,2.084-2.125,2.109c-0.752,0.025-2.043-1.207-2.182-2.04C246.832,320.963,247.904,319.984,248.922,318.318z"/>
		<path fill-rule="evenodd" clip-rule="evenodd" d="M250.069,368.954c1.178,2,2.112,3,2.282,4.116
			c0.088,0.582-1.169,1.369-1.818,2.063c-0.782-0.887-1.89-1.667-2.225-2.698C248.104,371.807,249.087,370.79,250.069,368.954z"/>
		<path fill-rule="evenodd" clip-rule="evenodd" d="M273.343,410.716c-1.647,1.248-2.497,2.393-3.29,2.354
			c-0.824-0.04-1.592-1.224-2.384-1.907c0.693-0.772,1.289-2.007,2.11-2.182C270.544,408.818,271.549,409.782,273.343,410.716z"/>
		<path fill-rule="evenodd" clip-rule="evenodd" d="M269.235,446.128c-0.388,3.497-0.83,5.461-3.595,4.795
			c-0.65-0.157-1.019-1.488-1.517-2.279C265.584,447.925,267.044,447.205,269.235,446.128z"/>
		<path fill-rule="evenodd" clip-rule="evenodd" d="M268.816,169.598c-1.63,1.04-2.604,2.146-3.361,2.014
			c-0.822-0.144-1.443-1.439-2.151-2.233c0.831-0.625,1.606-1.617,2.509-1.751C266.476,167.527,267.308,168.552,268.816,169.598z"/>
		<path fill-rule="evenodd" clip-rule="evenodd" d="M253.169,258.881c-1.454,1.077-2.454,2.319-3.069,2.152
			c-0.831-0.227-1.913-1.562-1.878-2.377c0.038-0.857,1.266-1.663,1.974-2.492C250.983,256.884,251.771,257.604,253.169,258.881z"/>
		<path fill-rule="evenodd" clip-rule="evenodd" d="M273.595,220.621c-1.734,1.003-2.782,2.05-3.331,1.833
			c-0.99-0.391-1.681-1.539-2.497-2.371c0.711-0.667,1.528-1.96,2.112-1.862C270.925,218.396,271.83,219.409,273.595,220.621z"/>
		<path fill-rule="evenodd" clip-rule="evenodd" d="M249.252,274.196c1.192,1.607,2.132,2.521,2.54,3.631
			c0.132,0.358-1.424,1.88-1.707,1.753c-1.061-0.476-2.195-1.265-2.715-2.247C247.138,276.895,248.297,275.719,249.252,274.196z"/>
		<path fill-rule="evenodd" clip-rule="evenodd" d="M249.208,325.309c0.95,1.674,1.893,2.609,1.848,3.494
			c-0.035,0.674-1.325,1.283-2.056,1.922c-0.688-0.809-1.753-1.543-1.93-2.451C246.949,327.657,248.077,326.798,249.208,325.309z"/>
		<path fill-rule="evenodd" clip-rule="evenodd" d="M268.772,419.901c-0.42-1.101-1.168-2.211-1.135-3.297
			c0.02-0.623,1.308-1.206,2.024-1.807c0.658,0.811,1.808,1.601,1.841,2.438c0.036,0.889-0.984,1.819-1.544,2.732
			C269.564,419.945,269.168,419.924,268.772,419.901z"/>
		<path fill-rule="evenodd" clip-rule="evenodd" d="M253.726,233.37c-1.716,0.989-2.629,1.876-3.574,1.914
			c-0.506,0.02-1.574-1.505-1.469-2.192c0.113-0.737,1.267-1.757,2.036-1.821C251.426,231.212,252.224,232.26,253.726,233.37z"/>
		<path fill-rule="evenodd" clip-rule="evenodd" d="M253.472,433.644c0.999,1.031,1.997,2.063,2.996,3.095
			c-0.782,0.636-1.563,1.271-2.344,1.906c-0.779-1.207-1.559-2.416-2.339-3.624C252.347,434.562,252.91,434.102,253.472,433.644z"/>
		<path fill-rule="evenodd" clip-rule="evenodd" d="M272.771,214.55c-1.448,0.978-2.483,2.165-3.107,1.978
			c-0.817-0.245-1.806-1.58-1.796-2.434c0.009-0.767,1.335-2.173,1.967-2.113C270.681,212.062,271.418,213.285,272.771,214.55z"/>
		<path fill-rule="evenodd" clip-rule="evenodd" d="M251.139,223.624c-1.068-1.592-2.18-2.524-2.087-3.315
			c0.093-0.794,1.386-1.449,2.154-2.165c0.664,0.832,1.678,1.592,1.87,2.521C253.204,221.285,252.16,222.146,251.139,223.624z"/>
		<path fill-rule="evenodd" clip-rule="evenodd" d="M252.351,297.152c-1.577,0.934-2.611,2.006-3.223,1.803
			c-0.906-0.301-1.511-1.506-2.244-2.325c0.757-0.628,1.565-1.81,2.259-1.746C250.05,294.966,250.867,296.034,252.351,297.152z"/>
		<path fill-rule="evenodd" clip-rule="evenodd" d="M268.143,439.366c-1.034-1.375-1.707-2.268-2.38-3.161
			c0.792-0.571,1.614-1.632,2.366-1.585c0.854,0.053,1.646,1.098,2.466,1.712C269.898,437.193,269.201,438.056,268.143,439.366z"/>
		<path fill-rule="evenodd" clip-rule="evenodd" d="M259.526,455.037c-1.229,1.073-1.985,2.213-2.91,2.372
			c-0.623,0.107-1.483-1.172-2.238-1.831c0.852-0.882,1.604-1.931,2.621-2.532C257.272,452.884,258.353,454.085,259.526,455.037z"/>
		<path fill-rule="evenodd" clip-rule="evenodd" d="M252.177,302.795c-1.314,0.988-2.103,2.05-2.86,2.027
			c-0.831-0.024-1.632-1.048-2.446-1.637c0.78-0.847,1.431-2.005,2.397-2.407C249.74,300.582,250.799,301.794,252.177,302.795z"/>
		<path fill-rule="evenodd" clip-rule="evenodd" d="M250.244,242.415c-0.901-1.432-1.87-2.406-1.677-2.777
			c0.48-0.926,1.488-1.578,2.286-2.341c0.574,0.639,1.708,1.397,1.603,1.891C252.255,240.123,251.344,240.905,250.244,242.415z"/>
		<path fill-rule="evenodd" clip-rule="evenodd" d="M368.015,151.053c-0.406,2.93-0.71,5.121-1.013,7.312
			c-0.598-0.03-1.194-0.06-1.793-0.09c0-2.232-0.1-4.474,0.128-6.682C365.365,151.317,367.127,151.22,368.015,151.053z"/>
		<path fill-rule="evenodd" clip-rule="evenodd" d="M275.757,354.099c-1.499,1.056-2.335,2.071-3.226,2.121
			c-0.603,0.034-1.859-1.354-1.791-1.994c0.103-0.941,1.127-1.782,1.759-2.665C273.369,352.238,274.238,352.915,275.757,354.099z"/>
		<path fill-rule="evenodd" clip-rule="evenodd" d="M254.86,439.787c0.987,1.279,2.185,2.238,2.017,2.744
			c-0.304,0.916-1.422,1.563-2.2,2.322c-0.68-0.809-1.728-1.545-1.909-2.453C252.655,441.829,253.839,440.998,254.86,439.787z"/>
		<path fill-rule="evenodd" clip-rule="evenodd" d="M251.967,211.267c0.741,1.541,1.576,2.475,1.454,3.258
			c-0.118,0.754-1.484,2.03-1.849,1.89c-0.936-0.359-2.27-1.403-2.238-2.119C249.373,213.448,250.677,212.658,251.967,211.267z"/>
		<path fill-rule="evenodd" clip-rule="evenodd" d="M253.159,347.398c-1.627,1.085-2.479,2.046-3.408,2.126
			c-0.563,0.049-1.871-1.444-1.733-1.933c0.249-0.882,1.226-1.909,2.097-2.144C250.708,345.288,251.637,346.37,253.159,347.398z"/>
		<path fill-rule="evenodd" clip-rule="evenodd" d="M265.999,193.83c1.364-0.035,2.735-0.139,4.08,0.005
			c0.137,0.015,0.115,1.52,0.168,2.333c-1.422-0.064-2.844-0.128-4.265-0.192C265.987,195.26,265.993,194.544,265.999,193.83z"/>
		<path fill-rule="evenodd" clip-rule="evenodd" d="M274.784,258.763c-1.176,1.004-2.124,2.312-2.66,2.161
			c-0.93-0.264-1.605-1.428-2.387-2.215c0.798-0.757,1.508-1.921,2.429-2.123C272.747,256.457,273.646,257.765,274.784,258.763z"/>
		<path fill-rule="evenodd" clip-rule="evenodd" d="M272.148,200.991c-1.412,1-2.462,2.168-2.908,1.97
			c-0.91-0.404-1.73-1.454-2.092-2.423c-0.133-0.356,1.264-1.848,1.735-1.747C269.851,198.995,270.666,199.925,272.148,200.991z"/>
		<path fill-rule="evenodd" clip-rule="evenodd" d="M250.859,229.91c-1.088-1.929-2.083-2.9-1.937-3.646
			c0.162-0.819,1.376-1.43,2.131-2.132c0.63,0.709,1.728,1.396,1.765,2.134C252.861,227.106,251.954,227.993,250.859,229.91z"/>
		<path fill-rule="evenodd" clip-rule="evenodd" d="M274.884,384.929c-1.789,1.126-2.653,2.055-3.58,2.125
			c-0.671,0.05-1.427-1.042-2.145-1.624c0.757-0.73,1.411-1.813,2.305-2.072C272.12,383.166,273.09,384.052,274.884,384.929z"/>
		<path fill-rule="evenodd" clip-rule="evenodd" d="M276.162,303.038c-1.808,0.965-2.76,1.854-3.688,1.83
			c-0.599-0.015-1.673-1.419-1.606-2.111c0.072-0.743,1.253-1.951,1.91-1.925C273.662,300.867,274.507,301.889,276.162,303.038z"/>
		<path fill-rule="evenodd" clip-rule="evenodd" d="M274.288,233c-1.711,1.151-2.617,2.231-3.505,2.217
			c-0.76-0.013-1.956-1.202-2.096-2.018c-0.103-0.595,1.169-1.981,1.885-2.022C271.503,231.124,272.492,232.054,274.288,233z"/>
		<path fill-rule="evenodd" clip-rule="evenodd" d="M269.733,210.596c-1.133-1.584-2.121-2.392-2.207-3.285
			c-0.059-0.602,1.352-1.984,1.763-1.861c0.912,0.27,1.964,1.144,2.263,2.011C271.746,208.022,270.706,209.007,269.733,210.596z"/>
		<path fill-rule="evenodd" clip-rule="evenodd" d="M255.833,201.184c-1.811,1.269-2.728,2.118-3.812,2.524
			c-0.27,0.101-1.679-1.532-1.521-1.846c0.46-0.918,1.339-1.809,2.271-2.229C253.226,199.428,254.163,200.295,255.833,201.184z"/>
		<path fill-rule="evenodd" clip-rule="evenodd" d="M254.422,191.923c0.225,0.993,0.854,2.128,0.567,2.94
			c-0.322,0.914-1.373,1.763-2.31,2.166c-0.337,0.145-1.794-1.093-1.791-1.696c0.003-0.738,1.002-1.472,1.57-2.207
			C253.113,192.726,253.768,192.325,254.422,191.923z"/>
		<path fill-rule="evenodd" clip-rule="evenodd" d="M256.983,188.611c-1.608,0.959-2.521,1.918-3.397,1.887
			c-0.644-0.023-1.88-1.557-1.72-2.042c0.292-0.882,1.341-1.861,2.242-2.067C254.68,186.259,255.554,187.452,256.983,188.611z"/>
		<path fill-rule="evenodd" clip-rule="evenodd" d="M272.788,344.487c0.849,1.355,1.928,2.446,1.711,2.863
			c-0.47,0.903-1.603,1.461-2.464,2.159c-0.546-0.788-1.558-1.606-1.509-2.354C270.575,346.402,271.679,345.719,272.788,344.487z"/>
		<path fill-rule="evenodd" clip-rule="evenodd" d="M275.736,340.661c-1.527,1.004-2.36,1.886-3.315,2.044
			c-0.508,0.084-1.854-1.349-1.732-1.634c0.414-0.972,1.173-2.041,2.082-2.45C273.21,338.423,274.274,339.612,275.736,340.661z"/>
		<path fill-rule="evenodd" clip-rule="evenodd" d="M271.574,429.461c-0.92,0.855-1.746,1.897-2.822,2.445
			c-0.295,0.151-1.343-1.176-2.045-1.825c1.114-0.839,2.227-1.679,3.34-2.518C270.556,428.196,271.064,428.828,271.574,429.461z"/>
		<path fill-rule="evenodd" clip-rule="evenodd" d="M249.427,338.291c-1.2-1.526-1.888-2.401-2.577-3.277
			c0.846-0.559,1.668-1.491,2.546-1.547c0.612-0.039,1.814,1.113,1.827,1.751C251.239,336.031,250.321,336.863,249.427,338.291z"/>
		<path fill-rule="evenodd" clip-rule="evenodd" d="M251.625,389.129c0.779,1.456,1.643,2.377,1.442,2.841
			c-0.401,0.933-1.383,1.616-2.125,2.402c-0.636-0.685-1.89-1.506-1.775-2.026C249.375,391.402,250.397,390.639,251.625,389.129z"/>
		<path fill-rule="evenodd" clip-rule="evenodd" d="M246.952,252.497c1.495-1.195,2.276-2.267,3.181-2.386
			c0.616-0.081,2.113,1.424,1.985,1.78c-0.352,0.983-1.216,2.021-2.149,2.459C249.522,254.561,248.462,253.467,246.952,252.497z"/>
		<path fill-rule="evenodd" clip-rule="evenodd" d="M274.636,391.607c-1.624,1.242-2.434,2.291-3.378,2.431
			c-0.613,0.091-1.421-1.146-2.143-1.789c0.721-0.746,1.331-1.859,2.197-2.121C271.972,389.929,272.958,390.81,274.636,391.607z"/>
		<path fill-rule="evenodd" clip-rule="evenodd" d="M272.827,293.951c-1.107-1.781-2.052-2.67-2.081-3.587
			c-0.016-0.536,1.385-1.451,2.231-1.562c0.561-0.073,1.846,1.048,1.789,1.511C274.65,291.27,273.854,292.145,272.827,293.951z"/>
		<path fill-rule="evenodd" clip-rule="evenodd" d="M248.92,287.847c1.055,1.222,2.182,1.959,2.154,2.649
			c-0.031,0.765-1.116,1.488-1.743,2.23c-0.828-0.704-1.916-1.278-2.361-2.172C246.785,290.18,247.962,289.127,248.92,287.847z"/>
		<path fill-rule="evenodd" clip-rule="evenodd" d="M267.624,439.497c0.952,1.282,2.02,2.229,1.849,2.589
			c-0.449,0.951-1.334,1.841-2.269,2.33c-0.292,0.153-1.948-1.239-1.845-1.597C265.645,441.825,266.528,441.004,267.624,439.497z"/>
		<path fill-rule="evenodd" clip-rule="evenodd" d="M271.583,248.335c-1.116-1.182-2.358-1.941-2.298-2.578
			c0.071-0.755,1.267-1.947,1.971-1.944c0.717,0.002,1.726,1.121,2.027,1.96C273.45,246.234,272.426,247.125,271.583,248.335z"/>
		<path fill-rule="evenodd" clip-rule="evenodd" d="M273.318,240.74c-0.803,0.225-1.851,0.87-2.351,0.578
			c-0.782-0.458-1.429-1.495-1.643-2.402c-0.082-0.35,1.208-1.479,1.82-1.439c1.21,0.079,2.384,0.726,3.572,1.136
			C274.25,239.321,273.784,240.031,273.318,240.74z"/>
		<path fill-rule="evenodd" clip-rule="evenodd" d="M275.827,296.652c-1.442,1.086-2.254,2.162-2.922,2.08
			c-0.795-0.098-1.886-1.104-2.05-1.884c-0.113-0.54,1.064-1.837,1.778-1.93C273.386,294.82,274.273,295.751,275.827,296.652z"/>
		<path fill-rule="evenodd" clip-rule="evenodd" d="M273.609,286.333c-0.967-0.958-1.997-1.868-2.822-2.937
			c-0.104-0.135,0.874-1.104,1.35-1.686c1.04,0.949,2.08,1.9,3.119,2.851C274.707,285.152,274.159,285.742,273.609,286.333z"/>
		<path fill-rule="evenodd" clip-rule="evenodd" d="M250.083,248.578c-0.819-1.594-1.628-2.465-1.568-3.27
			c0.05-0.661,1.358-1.865,1.715-1.737c0.835,0.302,1.914,1.211,1.987,1.963C252.287,246.248,251.202,247.074,250.083,248.578z"/>
		<path fill-rule="evenodd" clip-rule="evenodd" d="M250.794,388.087c-0.992-1.279-2.143-2.265-1.969-2.64
			c0.407-0.88,1.446-1.469,2.229-2.176c0.628,0.707,1.679,1.372,1.753,2.133C252.87,386.053,251.81,386.811,250.794,388.087z"/>
		<path fill-rule="evenodd" clip-rule="evenodd" d="M248.679,344.252c-0.499-1.313-1.234-2.35-1.138-3.302
			c0.069-0.687,1.397-1.877,1.898-1.754c0.973,0.238,1.759,1.24,2.623,1.927C251.401,341.733,250.742,342.344,248.679,344.252z"/>
		<path fill-rule="evenodd" clip-rule="evenodd" d="M257.041,430.189c-1.709,0.925-2.567,1.757-3.374,1.71
			c-0.659-0.039-1.857-1.277-1.748-1.721c0.196-0.797,1.14-1.86,1.873-1.946C254.523,428.147,255.377,429.126,257.041,430.189z"/>
		<path fill-rule="evenodd" clip-rule="evenodd" d="M272.786,332.568c1.013,1.179,1.629,1.896,2.245,2.612
			c-0.784,0.635-1.506,1.624-2.374,1.774c-0.542,0.095-1.87-1.112-1.832-1.668C270.878,334.496,271.859,333.767,272.786,332.568z"/>
		<path fill-rule="evenodd" clip-rule="evenodd" fill="#FFFFFF" d="M373.005,308.184c-7.608,0-14.948,0.006-22.288-0.012
			c-0.721-0.002-1.439-0.157-2.695-0.305c0.969-6.791,1.432-13.507,2.982-19.961c1.636-6.818,4.187-13.433,6.624-20.029
			c0.524-1.419,2.27-2.386,3.453-3.561c1.342,1.378,3.221,2.522,3.939,4.172c5.176,11.886,7.621,24.427,8.327,37.332
			C373.381,306.421,373.18,307.034,373.005,308.184z"/>
		<path fill-rule="evenodd" clip-rule="evenodd" fill="#FFFFFF" d="M386.453,324.346c-2.535,9.032-4.92,17.527-7.306,26.022
			c-0.291,0.134-0.583,0.267-0.876,0.4c-3.154-8.603-6.309-17.205-9.689-26.423C374.832,324.346,380.117,324.346,386.453,324.346z"
			/>
		<path fill-rule="evenodd" clip-rule="evenodd" fill="#FFFFFF" d="M68.558,329.441c-0.986,6.737-4.176,11.835-8.455,12.693
			c-4.352,0.873-6.937-1.026-6.103-5.254c0.79-4.001,1.48-8.226,5.305-11.106c2.058-1.55,4.091-3.202,6.241-1.726
			C67.067,325.094,67.59,327.592,68.558,329.441z"/>
		<path fill-rule="evenodd" clip-rule="evenodd" fill="#FFFFFF" d="M441.497,240.853c1.301,6.718-1.822,10.783-6.784,9.082
			C436.309,246.535,436.464,242.196,441.497,240.853z"/>
	</g>
</g>
</svg>
