<?xml version="1.0" encoding="utf-8"?>
<!-- Generator: Adobe Illustrator 16.0.0, SVG Export Plug-In . SVG Version: 6.00 Build 0)  -->
<!DOCTYPE svg PUBLIC "-//W3C//DTD SVG 1.1//EN" "http://www.w3.org/Graphics/SVG/1.1/DTD/svg11.dtd">
<svg version="1.1" id="Layer_1" xmlns="http://www.w3.org/2000/svg" xmlns:xlink="http://www.w3.org/1999/xlink" x="0px" y="0px"
	 width="413.308px" height="440.312px" viewBox="0 0 413.308 440.312" enable-background="new 0 0 413.308 440.312"
	 xml:space="preserve">
<g>
	<g>
		<path fill-rule="evenodd" clip-rule="evenodd" fill="#FFFFFF" d="M0.75,0.769c137.727,0,275.454,0,413.245,0
			c0,146.678,0,293.374,0,440.182c-137.707,0-275.476,0-413.245,0C0.75,294.263,0.75,147.524,0.75,0.769z M75.147,102.258
			c-7.354,2.882-14.1,5.511-20.834,8.169c-5.386,2.126-7.192,4.659-7.181,10.468c0.044,23.103,0.174,46.204,0.221,69.306
			c0.066,32.607,0.075,65.213,0.153,97.82c0.004,1.712,0.285,3.455,0.668,5.131c1.214,5.322,6.092,7.421,10.063,9.153
			c7.321,3.193,15.144,5.52,22.976,7.18c8.371,1.775,16.985,2.436,25.508,3.447c7.147,0.85,14.312,1.563,21.479,2.232
			c8.661,0.809,17.32,1.783,26.003,2.182c9.482,0.437,18.991,0.323,28.488,0.386c2.702,0.018,4.098,0.843,4.063,3.92
			c-0.126,10.996-0.042,21.995-0.012,32.992c0.013,4.747,0.015,9.497,0.205,14.237c0.034,0.843,0.967,1.649,1.484,2.472
			c0.512-0.838,1.293-1.622,1.473-2.527c0.263-1.324,0.114-2.735,0.11-4.11c-0.048-14.37-0.036-28.741-0.208-43.11
			c-0.036-3.013,0.724-4.235,3.979-4.08c6.234,0.3,12.489,0.317,18.733,0.217c6.737-0.109,13.484-0.311,20.203-0.8
			c6.172-0.45,12.305-1.407,18.467-2.017c8.423-0.835,16.917-1.151,25.269-2.425c9.563-1.458,19.07-3.438,28.471-5.73
			c6.676-1.628,13.813-2.113,19.035-7.982c2.381-2.676,4.195-5.023,4.163-8.587c-0.057-6.124-0.165-12.248-0.179-18.372
			c-0.104-46.222-0.147-92.443-0.325-138.664c-0.028-7.4-0.637-14.797-0.928-21.154c-3.505-1.016-6.134-1.699-8.709-2.543
			c-4.316-1.416-8.584-2.979-12.902-4.386c-2-0.651-4.074-1.081-6.219-1.638c-0.159-1.308-0.305-2.505-0.501-4.128
			c-1.015,0.442-1.728,0.793-2.471,1.069c-1.108,0.412-2.3,1.224-3.348,1.079c-8.002-1.102-15.946-2.678-23.97-3.55
			c-8.43-0.916-16.924-1.268-25.395-1.77c-12.942-0.765-25.89-1.436-38.833-2.171c-5.173-0.294-10.342-0.653-15.518-0.983
			c-0.094-1.341-0.204-2.21-0.207-3.078c-0.081-22.986-0.15-45.971-0.221-68.957c-0.006-2.247,0.104-4.502-0.081-6.732
			c-0.052-0.625-0.965-1.179-1.483-1.766c-0.494,0.596-1.128,1.129-1.435,1.81c-0.233,0.521-0.054,1.229-0.053,1.854
			c0.02,15.118-0.033,30.238,0.12,45.355c0.032,3.173-1.039,4.14-3.953,3.241c-5.087-1.568-10.171-3.145-15.239-4.77
			c-2.484-0.796-4.93-1.709-7.394-2.57c-0.297,0.41-0.593,0.82-0.889,1.23c1.526,2.039,3.052,4.078,4.609,6.159
			c-4.365,1.591-59.719,0.95-61.846-0.621c1.601-2.059,3.201-4.119,4.802-6.178c-0.203-0.296-0.406-0.592-0.609-0.888
			c-1.39,0.244-2.838,0.315-4.159,0.763c-5.518,1.873-10.996,3.867-16.494,5.801c-2.57,0.904-5.205,1.655-7.693,2.742
			c-0.626,0.273-0.804,1.575-1.187,2.404c0.649,0.251,1.282,0.652,1.952,0.729c3.137,0.365,6.396,0.227,9.402,1.04
			c5.356,1.448,10.55,3.49,15.846,5.175c0.677,0.215,1.557-0.21,2.344-0.339c-0.243-0.887-0.252-1.963-0.782-2.618
			c-0.855-1.058-2.053-1.84-3.775-3.309c21.507,0,41.988,0,63.105,0c-2.216,2.747-3.864,4.79-5.511,6.832
			c0.165,0.283,0.33,0.566,0.495,0.849c9.143-1.451,17.114-7.491,26.828-7.858c0,8.111,0,15.802,0,23.79
			c-2.046,0.122-3.883,0.259-5.723,0.334c-10.833,0.441-21.679,0.68-32.498,1.347c-13.059,0.806-26.112,1.792-39.135,3.044
			c-8.53,0.82-16.992,2.321-25.508,3.329c-1.315,0.155-2.923-0.435-4.089-1.167c-1.746-1.095-2.717-1.176-3.044,1.11
			C75.219,101.796,75.109,102.512,75.147,102.258z M355.841,137.131c0.452,0.037,0.903,0.074,1.355,0.11
			c0.564,22.739,0.562,45.491,0.741,68.246c0.181,22.85,0.732,45.699,1.137,69.42c-1.876-1.694-3.019-2.771-4.21-3.791
			c-1.191-1.02-2.431-1.983-3.649-2.972c-0.36,0.279-0.721,0.559-1.082,0.838c3.19,9.234,6.382,18.47,9.703,28.082
			c1.705-1.398,2.612-2.547,3.79-3.021c2.114-0.852,3.008-1.498,1.079-3.63c-0.726-0.802-0.878-2.607-0.571-3.766
			c0.918-3.478,2.204-6.857,3.321-10.283c0.807-2.475,1.573-4.963,2.357-7.444c-0.279-0.192-0.559-0.383-0.839-0.575
			c-1.988,1.512-3.976,3.024-6.692,5.091c-1.87-45.857-0.989-91.159-1.91-137.396c3.038,2.238,5.301,3.907,7.564,5.575
			c0.247-0.176,0.495-0.352,0.741-0.527c-3.135-9.415-6.27-18.831-9.743-29.261c-1.146,1.803-1.996,2.674-2.305,3.707
			c-1.553,5.18-2.937,10.411-4.436,15.607c-0.995,3.444-2.086,6.86-3.133,10.289c0.29,0.159,0.581,0.319,0.872,0.479
			C351.901,140.316,353.871,138.723,355.841,137.131z M313.075,39.412c0.527-2.168,1.082-3.932,1.352-5.737
			c0.201-1.349,0.393-3.796-0.034-3.942c-1.448-0.497-3.172-0.19-5.066-0.19c0.482,1.501,0.93,2.411,1.055,3.364
			c0.52,3.966-0.935,6.197-3.877,6.128c-6.327-0.148-12.983,6.807-12.609,13.173c0.206,3.496,2.763,6.221,5.085,4.748
			c4.115-2.612,7.961,0.211,11.94-0.186c3.038-0.302,4.958-0.438,6.647-2.935c0.237-0.351,1.931-0.125,2.623,0.331
			c1.183,0.778,2.695,2.976,3.04,2.779c1.615-0.924,2.879-2.461,4.269-3.78c-0.147-0.3-0.294-0.599-0.441-0.9
			c-3.679,0.591-4.88-2.065-4.643-4.375c0.163-1.594,2.514-3.011,3.986-4.403c0.813-0.768,1.95-1.216,2.67-2.043
			c0.177-0.204-0.716-1.926-1.106-1.922c-1.211,0.013-2.731,0.169-3.56,0.91c-1.644,1.471-2.765,3.355-4.28-0.149
			c-0.316-0.731-2.084-1.019-3.227-1.157C315.741,38.984,314.53,39.282,313.075,39.412z M268.678,77.448
			c0.201,0.379,0.401,0.758,0.601,1.137c9.71-3.199,19.42-6.398,29.129-9.597c0.042-0.273,0.085-0.546,0.128-0.819
			c-9.972-2.955-19.943-5.91-29.916-8.866c-0.271,0.227-0.541,0.453-0.812,0.679c1.779,1.987,3.559,3.975,5.678,6.344
			c-1.252,0.144-1.938,0.29-2.626,0.291c-8.839,0.008-17.68-0.058-26.518,0.067c-0.934,0.013-1.853,1.113-2.778,1.71
			c0.844,0.593,1.62,1.359,2.554,1.728c0.769,0.303,1.724,0.176,2.596,0.17c6.992-0.042,13.985-0.138,20.977-0.132
			c1.969,0,3.937,0.277,6.817,0.498C272.102,73.459,270.39,75.453,268.678,77.448z M348.205,70.382
			c9.715,0,18.892,0.075,28.065-0.08c1.418-0.023,2.818-1.104,4.228-1.696c-1.313-0.534-2.619-1.508-3.94-1.527
			c-8.478-0.127-16.958-0.024-25.437-0.071c-0.718-0.004-1.434-0.557-2.629-1.054c1.556-1.482,2.836-2.47,3.799-3.707
			c0.581-0.747,0.669-1.878,0.979-2.837c-1.035,0.011-2.162-0.232-3.082,0.098c-1.127,0.404-1.994,1.598-3.124,1.917
			c-6.7,1.892-13.459,3.583-20.161,5.47c-1.003,0.283-1.814,1.247-2.715,1.896c0.959,0.54,1.859,1.273,2.888,1.586
			c4.614,1.402,9.273,2.657,13.9,4.019c3.968,1.168,7.915,2.409,11.871,3.617c0.217-0.324,0.434-0.647,0.65-0.971
			C351.77,74.868,350.044,72.695,348.205,70.382z M171.01,415.215c-0.269-2.715-0.346-5.081-0.765-7.386
			c-0.855-4.699-1.246-4.885-5.992-4.42c-1.099,0.107-2.296,0.142-3.331-0.176c-7.536-2.315-12.635,4.532-13.819,9.666
			c-0.652,2.825-0.474,5.79,2.299,7.776c2.848,2.04,5.59,0.679,8.079-0.63c1.394-0.732,2.312-2.368,3.444-3.597
			c-0.161-0.313-0.322-0.625-0.483-0.938c-1.112,0.35-2.204,0.873-3.342,1.007c-1.632,0.192-3.637,0.664-4.838-0.057
			c-0.89-0.534-1.183-2.838-0.99-4.249c0.529-3.859,3.358-5.721,6.793-7.028c0.861,5.134,0.842,5.11,4.805,1.981
			c1.681-1.327,2.83-0.708,3.104,1.272c0.461,3.323,0.894,6.662,1.073,10.008c0.18,3.356-1.999,5.532-5.207,6.492
			c-1.128,0.338-1.857,2.008-2.769,3.07c1.302,0.328,2.603,0.886,3.906,0.89c0.667,0.002,1.437-0.901,1.991-1.541
			c4.208-4.862,8.637-9.568,12.421-14.743c1.478-2.021,1.624-5.102,2.013-7.752c0.071-0.485-1.61-1.229-2.482-1.853
			c-0.568,1.038-1.814,2.263-1.589,3.081C176.359,409.813,175.265,412.739,171.01,415.215z M37.607,421.466
			c2.311,0,4.179,0.162,5.993-0.083c0.695-0.094,1.84-1.155,1.805-1.713c-0.577-8.935,3.655-16.588,6.148-24.873
			c-2.263,0-4.766,0-6.353,0c-0.525,3.483-0.71,6.603-1.54,9.54c-0.545,1.932-6.342,3.062-8.527,1.747
			c-2.626-1.58-0.964-3.748-0.273-5.608c0.699-1.882,1.679-3.661,2.574-5.566c-2.765,0-5.255,0-7.758,0
			c0.386,1.405,1.121,2.559,0.882,3.452c-1.701,6.359-3.612,12.664-5.427,18.994c-0.314,1.098-0.486,2.236-0.724,3.356
			c1.808,0.157,3.625,0.45,5.415,0.329c0.274-0.02,0.718-1.989,0.576-2.983c-0.837-5.86,2.377-9.719,8.007-9.847
			c3.065-0.07,3.915,1.199,3.003,3.814C40.382,414.969,39.091,417.818,37.607,421.466z M237.309,394.422
			c-0.195,2.875-0.087,4.933-0.579,6.834c-0.21,0.809-1.727,1.894-2.565,1.825c-6.769-0.548-13.481,6.042-13.164,13.146
			c0.231,5.183,3.804,6.995,8.361,4.329c0.708-0.414,2.132-0.757,2.52-0.39c3.513,3.336,4.685-0.14,5.95-1.919
			c-0.536-1.857-0.876-3.593-0.476-5.137c1.489-5.756,3.204-11.453,4.871-17.161c0.725-2.482-0.669-2.944-2.572-2.6
			C238.61,393.539,237.661,394.253,237.309,394.422z M342.431,394.326c0,2.388,0.359,4.121-0.063,5.637
			c-1.694,6.08-3.72,12.066-5.385,18.153c-0.262,0.955,0.706,2.246,1.105,3.383c0.923-0.79,2.08-1.424,2.729-2.397
			c2.235-3.356,4.222-6.878,6.477-10.221c0.471-0.696,1.679-0.896,2.547-1.324c-0.332,3.541-1.504,6.371-2.226,9.312
			c-0.321,1.308,0.064,2.915,0.563,4.22c0.149,0.391,2.08,0.638,2.649,0.216c1.1-0.814,2.331-2.047,2.584-3.294
			c0.649-3.205,0.909-6.508,1.086-9.784c0.075-1.384-0.133-3.807-0.762-4.004c-1.58-0.495-3.553-0.272-5.214,0.205
			c-1.255,0.36-2.271,1.557-3.392,2.381c-0.013-2.936,0.81-5.357,1.377-7.839c0.344-1.5,0.292-3.092,0.418-4.643
			C345.32,394.326,343.716,394.326,342.431,394.326z M122.397,412.917c0.335,0.097,0.669,0.192,1.005,0.288
			c0,1.836-0.12,3.683,0.052,5.501c0.082,0.867,0.719,1.681,1.105,2.519c0.722-0.36,1.699-0.533,2.126-1.111
			c2.635-3.573,5.244-7.176,7.667-10.895c1.578-2.423,1.046-4.677-1.946-7.087c-0.513,1.53-1.466,2.853-1.146,3.686
			c1.374,3.577-1.14,5.569-2.925,8.075c-0.728-2.671-0.81-5.313-1.073-7.937c-0.087-0.872-0.642-1.696-0.982-2.543
			c-0.83,0.524-1.918,0.867-2.439,1.608c-1.577,2.242-2.934,4.639-4.377,6.977c-1.161-1.456-1.492-2.712-1.684-3.988
			c-0.846-5.619-1.425-5.961-6.322-4.134c0.916,3.314,1.895,6.495,2.643,9.729c0.331,1.434,0.028,3.009,0.318,4.459
			c0.233,1.169,0.926,2.247,1.822,4.299c1.334-2.494,2.025-4.053,2.958-5.452C120.141,415.496,121.321,414.241,122.397,412.917z
			 M211.351,421.116c4.598,0.454,8.113-2.117,6.756-4.055c-1.744-2.492-0.161-4.144,0.152-6.162c0.266-1.717,0.725-3.448,0.66-5.157
			c-0.082-2.22-1.312-3.57-3.689-2.547c-1.905,0.819-3.672,1.963-5.479,2.95c-1.474-4.031-2.298-4.263-6.875-1.603
			c1.715,4.524,0.031,8.698-1.381,12.973c-0.334,1.014,0.447,2.395,0.715,3.605c1.082-0.791,2.267-1.479,3.203-2.415
			c0.466-0.467,0.338-1.474,0.714-2.093c2.124-3.498,3.386-7.805,8.549-9.586C213.464,412.161,212.424,416.569,211.351,421.116z
			 M293.846,403.247c-5.32-0.741-11.358,8.704-11.153,13.317c0.207,4.674,2.938,6.302,7.34,4.471
			c0.995-0.414,2.351,0.101,3.535,0.059c1.37-0.048,3.177,0.243,3.983-0.497c0.874-0.801,0.928-2.604,1.121-4.001
			c0.148-1.071-0.254-2.234-0.036-3.278c0.532-2.551,1.44-5.03,1.844-7.595c0.113-0.727-0.88-2.232-1.559-2.361
			C297.138,403.023,295.247,403.247,293.846,403.247z M58.411,421.487c6.708,0.429,11.688-7.434,11.291-12.394
			c-0.419-5.226-4.497-8.01-9.254-5.633c-3.045,1.522-6.067,3.911-7.989,6.682C49.178,414.871,52.979,421.574,58.411,421.487z
			 M98.978,421.688c6.595,0.082,11.777-8.636,10.687-14.04c-0.606-3.006-5.12-6.04-7.633-5.107
			c-5.208,1.933-8.632,5.559-9.691,11.109C91.533,417.878,94.766,421.701,98.978,421.688z M369.565,416.184
			c-2.243,0.437-4.251,1.024-6.282,1.125c-0.798,0.04-1.649-1.011-2.477-1.564c0.783-0.536,1.561-1.521,2.351-1.532
			c3.661-0.05,5.937-2.241,7.807-4.887c1.953-2.763,0.313-5.789-3.03-5.954c-6.503-0.322-13.263,8.48-11.227,14.694
			c1.117,3.407,3.862,3.901,6.941,3.537C367.557,421.142,369.475,419.333,369.565,416.184z M374.95,228.205
			c0.806-0.335,1.831-0.461,2.38-1.039c5.591-5.883,11.38-11.664,14.285-19.477c0.383-1.031-0.275-2.598-0.817-3.745
			c-0.188-0.398-2.125-0.489-2.17-0.355c-0.364,1.092-0.728,2.297-0.607,3.417c0.409,3.806-1.407,6.383-4.383,9.36
			c-0.595-3.48-1.065-6.13-1.499-8.785c-0.789-4.836-1.982-5.442-6.71-3.372C380.574,212.201,381.208,220.064,374.95,228.205z
			 M130.647,52.402c0.754,1.444,1.577,3.023,2.371,4.543c4.23-0.999,5.475-2.265,5.354-4.885c-1.226-0.292-2.848-0.179-3.397-0.892
			c-2.849-3.696-1.087-7.342,3.484-7.919c0.942-0.12,1.767-1.171,2.646-1.792c-0.923-0.798-2.056-2.411-2.731-2.239
			c-1.986,0.508-3.791,1.725-5.972,2.816c-0.372-0.572-0.796-2.029-1.57-2.247c-1.53-0.432-3.254-0.18-4.897-0.211
			c0.092,0.83-0.135,1.979,0.326,2.44c4.677,4.681,4.149,8.005-1.655,10.916c-0.741,0.372-0.893,1.919-1.316,2.922
			c1.03,0.086,2.295,0.59,3.04,0.17C127.793,55.199,128.97,53.86,130.647,52.402z M306.65,394.677
			c0.271,1.788,0.86,3.123,0.568,4.226c-1.045,3.942-2.497,7.776-3.588,11.709c-0.959,3.457-1.64,6.99-2.444,10.489
			c0.52,0.391,1.04,0.78,1.56,1.171c2.317-1.293,4.635-2.586,6.953-3.879c-2.528-1.48-4.052-1.863-2.586-5.053
			c2.292-4.989,3.655-10.414,5.286-15.694c1.006-3.259-0.219-4.476-3.593-3.746C307.983,394.077,307.207,394.472,306.65,394.677z
			 M280.367,415.215c-1.732,0.633-2.653,1.164-3.624,1.281c-1.894,0.229-4.037,0.756-5.63,0.091
			c-0.779-0.326-0.927-3.099-0.715-4.676c0.491-3.652,3.364-5.104,6.689-6.411c0.25,1.422,0.454,2.582,0.657,3.74
			c0.347,0.24,0.693,0.479,1.039,0.719c1.008-1.164,2.886-2.406,2.791-3.473c-0.105-1.19-1.859-2.951-3.144-3.203
			c-7.553-1.481-14.297,7.819-12.443,14.162c0.494,1.692,2.732,3.574,4.521,4.049C274.658,422.596,277.097,420.893,280.367,415.215z
			 M186.049,397.979c-0.358,1.406-0.624,2.616-0.975,3.801c-1.576,5.31-3.284,10.583-4.673,15.938
			c-0.274,1.054,0.646,2.417,1.015,3.638c1.717-0.583,3.584-0.932,5.067-1.88c0.505-0.323,0.115-2.162,0.008-3.298
			c-0.123-1.31-0.817-2.721-0.51-3.89c1.389-5.292,2.938-10.549,4.647-15.746c0.829-2.515-0.181-3.18-2.375-3.208
			C183.905,393.276,185.563,396.017,186.049,397.979z M75.698,396.761c0.348,0.227,0.696,0.453,1.044,0.68
			c-0.274,0.954-0.535,1.913-0.822,2.862c-1.621,5.363-3.401,10.685-4.772,16.111c-0.366,1.449,0.513,3.213,0.82,4.833
			c1.573-0.511,3.486-0.652,4.595-1.669c0.681-0.625,0.146-2.59,0.131-3.953c-0.009-0.788-0.273-1.631-0.078-2.356
			c1.49-5.532,3.115-11.026,4.593-16.561c0.828-3.101-0.076-4.191-3.07-3.311C77.087,393.708,76.499,395.594,75.698,396.761z
			 M334.457,409.754c0.425-2.119,0.777-3.874,1.192-5.943c-1.87-0.144-3.209-0.277-4.552-0.345c-5.572-0.28-7.924,3.214-5.423,8.231
			c0.697,1.398,2.08,2.45,2.805,3.84c0.444,0.853,0.582,2.195,0.214,3.036c-0.292,0.666-1.619,1.306-2.382,1.2
			c-0.597-0.083-1.041-1.32-1.538-2.055c-0.601-0.886-1.186-1.782-1.778-2.674c-0.479,0.138-0.958,0.275-1.437,0.413
			c0.215,1.981,0.385,5.677,0.653,5.684c3.082,0.084,6.655,0.452,9.146-0.947c2.742-1.54,2.027-4.931,0.469-7.645
			c-1.041-1.811-1.997-3.67-2.991-5.508c0.374-0.328,0.748-0.657,1.122-0.986C331.159,407.043,332.36,408.03,334.457,409.754z
			 M92.087,393.667c-5.197-0.579-5.133-0.582-4.932,3.545c0.052,1.075-0.362,2.197-0.68,3.263c-1.672,5.6-3.506,11.155-4.977,16.807
			c-0.297,1.139,0.375,3.33,1.235,3.755c0.942,0.466,2.975-0.176,3.873-1.028c0.867-0.825,1.365-3.627,1.218-3.69
			c-2.306-0.994-0.892-2.484-0.587-3.7c0.875-3.499,1.896-6.961,2.799-10.453C90.759,399.365,91.396,396.542,92.087,393.667z
			 M394.974,394.042c-2.695,0.271-4.484,0.451-5.617,0.565c-0.399,2.477-0.527,4.446-1.052,6.303
			c-1.509,5.344-3.311,10.605-4.692,15.979c-0.349,1.357,0.441,3.008,0.708,4.522c1.561-0.437,3.179-0.737,4.655-1.368
			c0.689-0.295,1.105-1.229,1.645-1.873c-0.337-0.089-0.675-0.178-1.013-0.267C387.78,409.599,392.708,402.422,394.974,394.042z
			 M378.438,394.54c0,2.256,0.363,3.978-0.064,5.473c-1.595,5.578-3.586,11.043-5.109,16.638c-0.394,1.443,0.375,3.203,0.609,4.818
			c1.601-0.444,3.298-0.692,4.764-1.411c0.834-0.408,1.29-1.587,1.551-1.934c-1.029-1.416-2.384-2.482-2.212-3.167
			c1.289-5.15,2.947-10.207,4.331-15.336c0.419-1.55,0.335-3.235,0.481-4.859C381.158,394.678,379.527,394.596,378.438,394.54z
			 M242.018,403.287c0.171,0.416,0.342,0.83,0.513,1.245c-0.244,2.269-0.318,4.572-0.777,6.796
			c-0.522,2.526-1.515,4.956-2.033,7.483c-0.159,0.777,0.567,1.737,0.888,2.614c0.881-0.515,1.847-0.929,2.607-1.582
			c0.416-0.357,0.38-1.193,0.729-1.685c2.6-3.649,2.155-10.078,9.086-9.925c0.446,0.01,1.195-2.221,1.262-3.438
			c0.019-0.354-1.894-1.224-2.832-1.111c-1.066,0.128-2.034,1.091-3.045,1.691c0.055-0.36,0.11-0.721,0.166-1.08
			C246.393,403.959,244.205,403.624,242.018,403.287z M194.211,403.711c-0.208,2.842-0.17,5.104-0.591,7.279
			c-0.444,2.298-1.565,4.474-1.914,6.774c-0.169,1.119,0.57,3.293,1.213,3.423c1.255,0.252,3.032-0.248,4.022-1.1
			c0.833-0.717,1.563-3.023,1.119-3.507c-2.266-2.466-0.144-4.611,0.121-6.836c0.188-1.566,1.019-3.077,1.071-4.629
			c0.023-0.649-1.17-1.823-1.908-1.907C196.098,403.066,194.775,403.602,194.211,403.711z M259.016,403.594
			c-1.063,5.156-2.049,9.381-2.748,13.652c-0.212,1.295,0.363,2.719,0.578,4.084c1.328-0.347,2.786-0.455,3.952-1.097
			c1.574-0.868,2.188-2.19,0.938-4.019c-0.468-0.684-0.466-1.909-0.257-2.788c0.486-2.037,1.306-3.993,1.838-6.021
			c0.296-1.128,0.799-2.753,0.276-3.396c-0.562-0.691-2.211-0.59-3.396-0.649C259.498,403.324,258.78,403.647,259.016,403.594z
			 M260.122,398.079c1.328,1.052,2.339,2.326,2.845,2.15c0.915-0.317,1.529-1.502,2.27-2.324c-0.771-0.654-1.495-1.739-2.327-1.83
			C262.222,396,261.405,397.1,260.122,398.079z M198.73,394.874c-0.88,1.641-1.804,2.577-1.654,3.288
			c0.171,0.813,1.297,1.424,2.008,2.123c0.632-0.773,1.705-1.513,1.766-2.328C200.905,397.225,199.848,396.41,198.73,394.874z"/>
		<path fill-rule="evenodd" clip-rule="evenodd" d="M75.147,102.258c-0.038,0.254,0.072-0.462,0.175-1.18
			c0.328-2.287,1.298-2.206,3.044-1.11c1.167,0.732,2.774,1.322,4.089,1.167c8.516-1.007,16.978-2.509,25.508-3.329
			c13.023-1.252,26.076-2.239,39.135-3.044c10.819-0.667,21.665-0.906,32.498-1.347c1.84-0.075,3.677-0.213,5.723-0.334
			c0-7.988,0-15.678,0-23.79c-9.714,0.367-17.685,6.407-26.828,7.858c-0.165-0.283-0.331-0.566-0.495-0.849
			c1.647-2.042,3.295-4.085,5.511-6.832c-21.117,0-41.599,0-63.105,0c1.722,1.469,2.92,2.25,3.775,3.309
			c0.529,0.655,0.539,1.731,0.782,2.618c-0.787,0.129-1.667,0.554-2.344,0.339c-5.296-1.686-10.49-3.728-15.846-5.175
			c-3.006-0.813-6.266-0.674-9.402-1.04c-0.67-0.078-1.303-0.478-1.952-0.729c0.383-0.829,0.561-2.131,1.187-2.404
			c2.488-1.087,5.123-1.838,7.693-2.742c5.498-1.934,10.976-3.928,16.494-5.801c1.321-0.448,2.769-0.519,4.159-0.763
			c0.203,0.296,0.407,0.592,0.609,0.888c-1.601,2.059-3.201,4.119-4.8,6.177c2.126,1.573,57.48,2.214,61.845,0.623
			c-1.557-2.081-3.083-4.121-4.609-6.159c0.296-0.41,0.592-0.82,0.889-1.23c2.463,0.86,4.909,1.773,7.394,2.57
			c5.068,1.625,10.152,3.202,15.239,4.77c2.914,0.898,3.985-0.068,3.953-3.241c-0.153-15.117-0.101-30.237-0.12-45.355
			c-0.001-0.625-0.18-1.333,0.053-1.854c0.307-0.681,0.941-1.213,1.435-1.81c0.518,0.587,1.431,1.141,1.483,1.766
			c0.185,2.23,0.075,4.486,0.081,6.732c0.071,22.985,0.141,45.971,0.221,68.957c0.003,0.868,0.113,1.737,0.207,3.078
			c5.176,0.33,10.345,0.689,15.518,0.983c12.944,0.735,25.891,1.406,38.833,2.171c8.471,0.502,16.965,0.854,25.395,1.77
			c8.023,0.872,15.968,2.448,23.97,3.55c1.048,0.145,2.239-0.667,3.348-1.079c0.743-0.275,1.456-0.626,2.471-1.069
			c0.196,1.623,0.342,2.82,0.501,4.128c2.145,0.558,4.219,0.987,6.219,1.638c4.318,1.407,8.586,2.971,12.902,4.386
			c2.575,0.844,5.204,1.527,8.709,2.543c0.291,6.357,0.899,13.754,0.928,21.154c0.178,46.221,0.222,92.442,0.325,138.664
			c0.014,6.124,0.122,12.248,0.179,18.372c0.032,3.563-1.782,5.911-4.163,8.587c-5.223,5.869-12.359,6.354-19.035,7.982
			c-9.4,2.292-18.908,4.272-28.471,5.73c-8.352,1.273-16.846,1.59-25.269,2.425c-6.162,0.609-12.295,1.566-18.467,2.017
			c-6.719,0.489-13.466,0.69-20.203,0.8c-6.244,0.101-12.499,0.083-18.733-0.217c-3.255-0.155-4.014,1.067-3.979,4.08
			c0.171,14.369,0.16,28.74,0.208,43.11c0.004,1.375,0.153,2.786-0.11,4.11c-0.18,0.905-0.96,1.689-1.473,2.527
			c-0.517-0.822-1.45-1.629-1.484-2.472c-0.19-4.74-0.192-9.49-0.205-14.237c-0.03-10.997-0.114-21.996,0.012-32.992
			c0.035-3.077-1.36-3.902-4.063-3.92c-9.497-0.063-19.006,0.051-28.488-0.386c-8.683-0.398-17.342-1.373-26.003-2.182
			c-7.167-0.67-14.331-1.383-21.479-2.232c-8.523-1.012-17.137-1.672-25.508-3.447c-7.832-1.66-15.655-3.986-22.976-7.18
			c-3.972-1.732-8.849-3.831-10.063-9.153c-0.383-1.676-0.664-3.419-0.668-5.131c-0.078-32.607-0.087-65.213-0.153-97.82
			c-0.046-23.102-0.176-46.204-0.221-69.306c-0.011-5.809,1.795-8.341,7.181-10.468C61.047,107.769,67.792,105.14,75.147,102.258z
			 M123.162,275.092l0.107,0.161l-0.11,0.141c1.45,4.061,5.667,4.786,9.189,7.609c-2.467,0.396-4.438,0.711-5.771,0.925
			c-0.896,2.641-1.656,4.886-2.474,7.295c-1.317-0.63-2.266-1.084-3.259-1.56c-0.524,0.924-0.936,1.646-1.347,2.37
			c0.333-0.008,0.665-0.016,0.999-0.023c0.2,1.157,0.401,2.314,0.699,4.034c1.122-1.043,2.01-1.869,3.166-2.944
			c0.313,1.196,1.049,2.934,0.773,3.113c-3.06,1.984-1.093,2.598,0.666,3.762c0.864,0.571,1.256,2.026,1.604,3.16
			c0.434,1.414,0.602,2.909,0.884,4.369c-1.401-2.398-2.048-5.66-6.439-5.313c0.218,2.598,0.423,5.03,0.656,7.799
			c2.331,0.384,4.97,0.817,8.551,1.405c-0.899-1.665-1.271-2.354-1.645-3.044c1.706,0.994,3.326,2.626,5.133,2.866
			c5.861,0.783,11.785,1.375,17.694,1.466c16.818,0.261,33.645,0.501,50.461,0.243c13.531-0.206,27.053-1.112,40.574-1.8
			c2.343-0.118,4.746-1.258,6.974-0.929c4.146,0.614,4.499,0.759,5.892-2.496c-3.631,0.588-4.567-1.219-3.253-6.263
			c0.689,0.096,1.379,0.19,2.172,0.299c-0.322-2.062-0.623-3.753-0.841-5.455c-0.178-1.39-0.314-2.791-0.365-4.191
			c-0.104-2.861,0.009-5.739-0.237-8.587c-0.328-3.813,2.398-4.511,5.646-5.134c-2.361-1.767-4.23-3.167-6.101-4.565l0.014-0.012
			c-0.116-1.754-0.233-3.508-0.362-5.448c0.557,0.05,1.36,0.121,2.91,0.259c-2.371-5.141-6.024-6.651-11.048-6.636
			c0.778-0.942,1.44-1.744,1.712-2.072c2.807,0.437,5.054,0.785,7.313,1.136c0.957-5.11,2.756-9.821-0.044-14.526
			c-0.213-0.357-0.146-1.069,0.069-1.465c1.791-3.286,0.228-4.619-4.149-4.846c4.8-2.469,4.851-4.633,1.389-7.063
			c-0.616-0.433-0.563-1.815-0.819-2.759c0.26,0.111,0.521,0.224,0.781,0.335c1.718-3.221,3.436-6.441,5.491-10.295
			c-1.702,0.476-2.747,0.769-3.808,1.065c0.887-2.749,1.24-5.766,2.777-7.95c1.082-1.536,1.36-2.185,0.403-3.681
			c-0.553-0.862-0.738-2.065-0.779-3.127c-0.104-2.721,0.543-5.613-0.177-8.132c-1.031-3.614,0.707-6.937,0.16-10.442
			c-0.655-4.205-0.884-8.476-1.316-12.915c-1.109-0.078-2.666-0.187-4.223-0.295c-0.19-0.247-0.381-0.495-0.571-0.742
			c4.674-2.986,5.075-7.68,5.576-12.349c-1.231-0.845-2.507-1.721-3.46-2.375c0.558-1.237,1.565-2.478,1.276-2.999
			c-1.545-2.782,0.578-3.651,2.504-4.913c-1.061-1.543-2.047-2.979-3.141-4.569c0.883-0.952,1.932-2.084,3.564-3.846
			c-3.816-0.253-7.001-0.774-10.15-0.609c-6.444,0.338-12.86,1.325-19.305,1.527c-8.066,0.255-16.15-0.077-24.226-0.031
			c-10.368,0.06-20.735,0.316-31.103,0.353c-10.637,0.039-21.277,0.175-31.837-1.645c-3.841-0.661-7.473,0.39-10.563,2.924
			c0.482-0.958,0.963-1.914,1.78-3.536c-3.772,0.184-6.654,0.324-9.537,0.464c-0.321,0.38-0.642,0.76-0.964,1.141
			c1.864,1.183,3.728,2.366,5.919,3.757c0.517-0.363,1.706-1.199,2.895-2.035c-1.774,5.076-6.359,6.97-12.097,9.128
			c2.972,2.405,4.91,3.973,6.848,5.542l-0.093-0.028c-0.755,0.718-1.511,1.437-1.865,1.773c1.587,3.348,2.952,6.225,4.347,9.167
			c-0.681-0.115-1.548-0.261-2.77-0.468c0.457,1.07,1.107,1.833,0.99,2.447c-0.524,2.736-1.185,5.454-1.958,8.132
			c-0.763,2.645-0.962,6.219-2.772,7.615c-2.697,2.081-3.081,4.417-3.401,7.183c0.152,0.162,0.304,0.322,0.457,0.483
			c3.688,4.957,6.003,10.17,2.417,16.483c3.399,0.488,6.885-0.019,7.016,4.273c0.787-0.22,1.448-0.404,2.109-0.588
			c0.105,0.288,0.209,0.576,0.314,0.863c-1.792,0.779-3.585,1.559-5.566,2.42c1.399,1.249,2.397,2.14,3.421,3.054
			c-1.782,2.099-3.431,4.04-5.71,6.725c2.235,0.539,3.738,0.901,4.984,1.201c-1.145,2.393-2.507,5.235-3.847,8.036
			c4.216,3.413,4.214,3.412,1.684,9.082c-0.091,0.205-0.028,0.475-0.063,0.71c-0.23,1.522-0.467,3.043-0.731,4.758
			c1.662,0.67,1.494,5.562,5.824,3.563c-1.172,3.828-2.8,6.533-7.211,5.871c-0.096,0.345-0.192,0.689-0.288,1.034
			c2.405,1.079,4.81,2.158,7.341,3.293c-1.527,0.648-2.579,0.777-3.09,1.371c-1.545,1.793-1.722,3.748,0.045,5.604l-0.045-0.127
			C123.988,274.4,123.575,274.746,123.162,275.092z M219.939,97.886c-0.007-0.107-0.016-0.213-0.022-0.319
			c-9.365,0-18.731,0.032-28.098-0.025c-2.01-0.013-3.405,0.697-2.892,2.746c0.279,1.114,1.646,2.727,2.593,2.777
			c6.465,0.346,12.95,0.3,19.428,0.446c23.819,0.541,47.637,1.206,71.02,6.451c4.728,1.061,9.409,2.45,13.975,4.072
			c3.673,1.305,4.215,4.219,1.354,6.827c-1.947,1.772-4.167,3.903-6.571,4.405c-11.206,2.342-22.445,4.93-33.809,6.002
			c-15.387,1.452-30.891,1.905-46.355,2.231c-18.324,0.386-36.671,0.587-54.989,0.121c-18.95-0.482-37.929-1.454-56.579-5.253
			c-6.63-1.35-13.167-3.337-19.555-5.578c-1.712-0.6-3.77-3.214-3.75-4.882c0.018-1.579,2.292-4.039,4.026-4.537
			c8.521-2.447,17.097-5.046,25.838-6.312c11.582-1.679,23.319-2.5,35.02-3.086c12.688-0.636,25.411-0.554,38.118-0.861
			c1.602-0.038,3.33-0.251,4.739-0.926c0.964-0.461,1.475-1.867,2.189-2.851c-0.885-0.615-1.754-1.731-2.657-1.759
			c-3.48-0.105-6.974,0.095-10.458,0.256c-20.44,0.946-40.883,1.855-61.316,2.927c-3.711,0.195-7.412,0.956-11.074,1.678
			c-7.777,1.535-15.461,3.898-23.305,4.649c-8.326,0.797-15.59,3.997-22.911,7.388c-2.733,1.266-3.614,4.4-1.735,6.034
			c2.101,1.826,4.309,4,6.849,4.764c9.241,2.779,18.525,5.702,28.007,7.322c13.351,2.282,26.858,3.846,40.36,4.991
			c14.896,1.262,29.86,2.334,44.797,2.355c23.553,0.032,47.124-0.517,70.655-1.56c11.393-0.505,22.712-2.688,34.063-4.122
			c2.453-0.311,4.931-0.525,7.347-1.027c7.771-1.617,15.581-3.105,23.247-5.131c4.234-1.118,8.472-2.767,12.238-4.975
			c4.865-2.852,4.473-6.611-0.482-9.449c-0.757-0.434-1.521-0.921-2.346-1.164c-7.778-2.283-15.493-4.849-23.379-6.676
			c-8.364-1.938-16.837-3.758-25.363-4.571C252.12,99.736,236.015,98.969,219.939,97.886z M189.549,129.715
			c2.217,0,3.371,0.034,4.521-0.007c1.928-0.069,3.864-0.095,5.78-0.301c3.116-0.335,6.214-1.11,9.326-1.144
			c5.785-0.062,11.587,0.597,17.36,0.385c11.788-0.435,23.555-1.569,35.343-1.81c10.803-0.22,20.874-3.204,30.907-6.638
			c0.877-0.3,1.585-1.092,2.398-1.675c-3.593-4.396-8.477-4.892-12.833-5.503c-14.031-1.97-28.119-3.766-42.246-4.75
			c-13.172-0.918-26.422-0.728-39.639-0.992c-3.354-0.067-6.712-0.01-11.004-0.01c0.442,3.85,0.852,7.409,1.293,11.254
			c1.001,1.056,2.333,2.46,3.591,3.787C192.666,124.905,191.226,127.126,189.549,129.715z M112.408,184.418
			c2.711-0.126,4.237-0.198,6.607-0.309c-1.238-1.171-2.229-2.806-3.082-2.737C114.896,181.455,113.974,182.974,112.408,184.418z"/>
		<path fill-rule="evenodd" clip-rule="evenodd" d="M355.841,137.131c-1.97,1.592-3.939,3.185-5.908,4.777
			c-0.291-0.16-0.582-0.319-0.872-0.479c1.047-3.429,2.138-6.845,3.133-10.289c1.499-5.196,2.883-10.427,4.436-15.607
			c0.309-1.032,1.158-1.903,2.305-3.707c3.474,10.43,6.608,19.846,9.743,29.261c-0.246,0.176-0.494,0.352-0.741,0.527
			c-2.264-1.668-4.526-3.337-7.564-5.575c0.921,46.237,0.04,91.538,1.91,137.396c2.717-2.066,4.704-3.579,6.692-5.091
			c0.28,0.192,0.56,0.383,0.839,0.575c-0.784,2.481-1.551,4.97-2.357,7.444c-1.117,3.426-2.403,6.806-3.321,10.283
			c-0.307,1.158-0.154,2.964,0.571,3.766c1.929,2.132,1.035,2.778-1.079,3.63c-1.178,0.475-2.085,1.623-3.79,3.021
			c-3.321-9.612-6.513-18.848-9.703-28.082c0.361-0.279,0.722-0.559,1.082-0.838c1.219,0.988,2.458,1.952,3.649,2.972
			c1.191,1.021,2.334,2.097,4.21,3.791c-0.404-23.722-0.956-46.57-1.137-69.42c-0.18-22.754-0.177-45.506-0.741-68.246
			C356.744,137.205,356.293,137.167,355.841,137.131z"/>
		<path fill-rule="evenodd" clip-rule="evenodd" d="M313.075,39.412c1.455-0.13,2.666-0.428,3.823-0.287
			c1.143,0.138,2.91,0.426,3.227,1.157c1.516,3.504,2.637,1.62,4.28,0.149c0.828-0.741,2.349-0.897,3.56-0.91
			c0.391-0.003,1.283,1.719,1.106,1.922c-0.72,0.828-1.857,1.276-2.67,2.043c-1.473,1.392-3.823,2.81-3.986,4.403
			c-0.237,2.31,0.964,4.965,4.643,4.375c0.147,0.301,0.294,0.6,0.441,0.9c-1.39,1.318-2.653,2.856-4.269,3.78
			c-0.345,0.197-1.857-2.001-3.04-2.779c-0.692-0.456-2.386-0.682-2.623-0.331c-1.689,2.497-3.609,2.633-6.647,2.935
			c-3.979,0.396-7.825-2.426-11.94,0.186c-2.322,1.474-4.879-1.251-5.085-4.748c-0.374-6.366,6.282-13.321,12.609-13.173
			c2.942,0.069,4.396-2.162,3.877-6.128c-0.125-0.953-0.572-1.863-1.055-3.364c1.895,0,3.618-0.307,5.066,0.19
			c0.427,0.146,0.235,2.593,0.034,3.942C314.157,35.48,313.603,37.244,313.075,39.412z M308.992,52.103
			c0.839,0.155,1.47,0.449,2.027,0.344c1.897-0.358,4.213-0.319,5.55-1.422c2.206-1.822,2.236-4.721,0.599-7.023
			c-0.782-1.099-2.546-1.642-3.975-2.028c-0.326-0.088-1.302,1.44-1.643,2.35C310.646,46.741,309.923,49.227,308.992,52.103z
			 M306.611,43.263c-0.691-0.303-1.843-1.284-2.858-1.158c-2.239,0.279-6.389,6.152-5.798,8.314
			c0.263,0.963,2.044,2.308,2.913,2.162C303.521,52.134,306.778,47.033,306.611,43.263z"/>
		<path fill-rule="evenodd" clip-rule="evenodd" d="M268.678,77.448c1.712-1.995,3.424-3.989,5.829-6.791
			c-2.881-0.221-4.849-0.498-6.817-0.498c-6.991-0.005-13.984,0.09-20.977,0.132c-0.872,0.005-1.827,0.133-2.596-0.17
			c-0.934-0.369-1.71-1.135-2.554-1.728c0.926-0.597,1.845-1.697,2.778-1.71c8.838-0.125,17.679-0.059,26.518-0.067
			c0.688,0,1.374-0.147,2.626-0.291c-2.119-2.369-3.898-4.356-5.678-6.344c0.271-0.226,0.541-0.453,0.812-0.679
			c9.973,2.956,19.944,5.911,29.916,8.866c-0.043,0.273-0.086,0.545-0.128,0.819c-9.709,3.199-19.419,6.398-29.129,9.597
			C269.079,78.206,268.879,77.827,268.678,77.448z"/>
		<path fill-rule="evenodd" clip-rule="evenodd" d="M348.205,70.382c1.839,2.313,3.564,4.486,5.292,6.659
			c-0.217,0.324-0.434,0.647-0.65,0.971c-3.956-1.208-7.903-2.449-11.871-3.617c-4.627-1.362-9.286-2.617-13.9-4.019
			c-1.028-0.313-1.929-1.047-2.888-1.586c0.9-0.649,1.712-1.613,2.715-1.896c6.702-1.888,13.461-3.578,20.161-5.47
			c1.13-0.319,1.997-1.512,3.124-1.917c0.92-0.331,2.047-0.087,3.082-0.098c-0.31,0.959-0.397,2.09-0.979,2.837
			c-0.963,1.237-2.243,2.225-3.799,3.707c1.195,0.498,1.911,1.05,2.629,1.054c8.479,0.047,16.959-0.056,25.437,0.071
			c1.321,0.02,2.627,0.994,3.94,1.527c-1.409,0.592-2.81,1.673-4.228,1.696C367.097,70.457,357.92,70.382,348.205,70.382z"/>
		<path fill-rule="evenodd" clip-rule="evenodd" d="M171.01,415.215c4.255-2.476,5.35-5.402,4.323-9.125
			c-0.226-0.818,1.021-2.043,1.589-3.081c0.873,0.624,2.554,1.367,2.482,1.853c-0.389,2.65-0.535,5.73-2.013,7.752
			c-3.784,5.175-8.213,9.881-12.421,14.743c-0.554,0.64-1.324,1.543-1.991,1.541c-1.303-0.004-2.604-0.562-3.906-0.89
			c0.912-1.063,1.64-2.732,2.769-3.07c3.208-0.96,5.387-3.136,5.207-6.492c-0.179-3.346-0.612-6.685-1.073-10.008
			c-0.274-1.98-1.423-2.6-3.104-1.272c-3.962,3.129-3.943,3.152-4.805-1.981c-3.436,1.308-6.264,3.169-6.793,7.028
			c-0.193,1.411,0.1,3.715,0.99,4.249c1.201,0.721,3.206,0.249,4.838,0.057c1.138-0.134,2.23-0.657,3.342-1.007
			c0.161,0.313,0.322,0.626,0.483,0.938c-1.132,1.229-2.05,2.864-3.444,3.597c-2.488,1.309-5.23,2.67-8.079,0.63
			c-2.773-1.986-2.952-4.951-2.299-7.776c1.184-5.134,6.283-11.981,13.819-9.666c1.034,0.317,2.232,0.283,3.331,0.176
			c4.746-0.465,5.137-0.279,5.992,4.42C170.664,410.134,170.741,412.5,171.01,415.215z"/>
		<path fill-rule="evenodd" clip-rule="evenodd" d="M37.607,421.466c1.483-3.647,2.775-6.497,3.8-9.44
			c0.911-2.615,0.062-3.885-3.003-3.814c-5.629,0.128-8.844,3.986-8.007,9.847c0.142,0.994-0.301,2.964-0.576,2.983
			c-1.789,0.121-3.606-0.172-5.415-0.329c0.238-1.12,0.41-2.259,0.724-3.356c1.814-6.33,3.726-12.635,5.427-18.994
			c0.239-0.894-0.496-2.047-0.882-3.452c2.503,0,4.994,0,7.758,0c-0.896,1.905-1.875,3.685-2.574,5.566
			c-0.691,1.86-2.353,4.028,0.273,5.608c2.185,1.314,7.982,0.185,8.527-1.747c0.83-2.938,1.015-6.057,1.54-9.54
			c1.587,0,4.09,0,6.353,0c-2.493,8.285-6.725,15.938-6.148,24.873c0.036,0.558-1.11,1.619-1.805,1.713
			C41.787,421.628,39.918,421.466,37.607,421.466z"/>
		<path fill-rule="evenodd" clip-rule="evenodd" d="M237.309,394.422c0.353-0.169,1.302-0.883,2.346-1.072
			c1.903-0.345,3.297,0.117,2.572,2.6c-1.667,5.708-3.382,11.405-4.871,17.161c-0.4,1.544-0.061,3.279,0.476,5.137
			c-1.266,1.779-2.438,5.255-5.95,1.919c-0.388-0.367-1.812-0.024-2.52,0.39c-4.558,2.666-8.13,0.854-8.361-4.329
			c-0.317-7.104,6.396-13.693,13.164-13.146c0.839,0.068,2.355-1.017,2.565-1.825C237.222,399.354,237.113,397.297,237.309,394.422z
			 M234.159,408.242c0.11-2.202-0.795-2.783-2.935-1.895c-2.826,1.173-5.996,5.878-5.388,8.932c0.138,0.688,2.641,1.744,3.09,1.393
			C231.626,414.566,234.456,412.351,234.159,408.242z"/>
		<path fill-rule="evenodd" clip-rule="evenodd" d="M342.431,394.326c1.285,0,2.89,0,4.495,0c-0.126,1.551-0.074,3.143-0.418,4.643
			c-0.567,2.481-1.39,4.903-1.377,7.839c1.121-0.824,2.137-2.021,3.392-2.381c1.661-0.478,3.634-0.7,5.214-0.205
			c0.629,0.197,0.837,2.62,0.762,4.004c-0.177,3.276-0.437,6.579-1.086,9.784c-0.253,1.247-1.484,2.479-2.584,3.294
			c-0.569,0.422-2.5,0.175-2.649-0.216c-0.499-1.305-0.885-2.912-0.563-4.22c0.722-2.94,1.894-5.771,2.226-9.312
			c-0.868,0.429-2.076,0.628-2.547,1.324c-2.255,3.343-4.241,6.864-6.477,10.221c-0.648,0.974-1.806,1.607-2.729,2.397
			c-0.399-1.137-1.367-2.428-1.105-3.383c1.665-6.087,3.69-12.073,5.385-18.153C342.79,398.447,342.431,396.714,342.431,394.326z"/>
		<path fill-rule="evenodd" clip-rule="evenodd" d="M122.397,412.917c-1.076,1.324-2.257,2.579-3.199,3.994
			c-0.932,1.399-1.624,2.958-2.958,5.452c-0.896-2.052-1.589-3.13-1.822-4.299c-0.29-1.45,0.013-3.025-0.318-4.459
			c-0.748-3.234-1.728-6.415-2.643-9.729c4.897-1.827,5.476-1.485,6.322,4.134c0.192,1.276,0.523,2.532,1.684,3.988
			c1.443-2.338,2.8-4.734,4.377-6.977c0.521-0.741,1.609-1.084,2.439-1.608c0.34,0.847,0.895,1.671,0.982,2.543
			c0.263,2.624,0.345,5.266,1.073,7.937c1.785-2.506,4.298-4.498,2.925-8.075c-0.319-0.833,0.634-2.155,1.146-3.686
			c2.992,2.41,3.523,4.664,1.946,7.087c-2.422,3.719-5.031,7.321-7.667,10.895c-0.427,0.578-1.404,0.751-2.126,1.111
			c-0.386-0.838-1.023-1.651-1.105-2.519c-0.172-1.818-0.052-3.665-0.052-5.501C123.067,413.109,122.732,413.014,122.397,412.917z"
			/>
		<path fill-rule="evenodd" clip-rule="evenodd" d="M211.351,421.116c1.073-4.547,2.113-8.955,3.324-14.089
			c-5.163,1.781-6.426,6.088-8.549,9.586c-0.375,0.619-0.248,1.626-0.714,2.093c-0.936,0.937-2.121,1.624-3.203,2.415
			c-0.268-1.211-1.049-2.592-0.715-3.605c1.412-4.274,3.096-8.448,1.381-12.973c4.578-2.66,5.402-2.429,6.875,1.603
			c1.807-0.987,3.573-2.131,5.479-2.95c2.378-1.023,3.607,0.327,3.689,2.547c0.064,1.709-0.395,3.44-0.66,5.157
			c-0.313,2.019-1.896,3.67-0.152,6.162C219.464,418.999,215.948,421.57,211.351,421.116z"/>
		<path fill-rule="evenodd" clip-rule="evenodd" d="M293.846,403.247c1.401,0,3.292-0.224,5.075,0.114
			c0.679,0.129,1.672,1.635,1.559,2.361c-0.403,2.564-1.312,5.044-1.844,7.595c-0.218,1.044,0.185,2.207,0.036,3.278
			c-0.193,1.397-0.247,3.2-1.121,4.001c-0.807,0.74-2.613,0.449-3.983,0.497c-1.185,0.042-2.54-0.473-3.535-0.059
			c-4.402,1.831-7.133,0.203-7.34-4.471C282.487,411.951,288.525,402.506,293.846,403.247z M294.652,405.6
			c-5.604,1.134-6.639,4.995-7.589,8.684c-0.196,0.76,1.304,1.957,2.021,2.952c1.956-1.866,4.401-3.452,5.693-5.7
			C295.612,410.084,294.755,407.661,294.652,405.6z"/>
		<path fill-rule="evenodd" clip-rule="evenodd" d="M58.411,421.487c-5.432,0.087-9.232-6.616-5.953-11.345
			c1.922-2.771,4.944-5.159,7.989-6.682c4.757-2.377,8.835,0.407,9.254,5.633C70.099,414.054,65.119,421.916,58.411,421.487z
			 M66.122,409.564c-0.986-1.704-1.388-3.334-2.328-3.75c-0.869-0.385-2.86,0.158-3.402,0.947c-1.639,2.388-3.096,4.997-4.022,7.725
			c-0.342,1.008,0.694,2.933,1.674,3.762c0.522,0.44,2.765-0.19,3.369-0.989C63.19,414.907,64.538,412.229,66.122,409.564z"/>
		<path fill-rule="evenodd" clip-rule="evenodd" d="M98.978,421.688c-4.212,0.014-7.445-3.81-6.638-8.038
			c1.06-5.551,4.484-9.177,9.691-11.109c2.513-0.933,7.026,2.102,7.633,5.107C110.755,413.052,105.573,421.77,98.978,421.688z
			 M106.322,410.057c-1.115-2.064-1.643-3.42-2.533-4.469c-0.283-0.334-1.691-0.104-2.305,0.297
			c-3.251,2.125-4.819,5.373-5.069,9.104c-0.076,1.115,0.888,2.693,1.857,3.345c0.616,0.413,2.563-0.141,3.14-0.871
			C103.247,415.144,104.72,412.536,106.322,410.057z"/>
		<path fill-rule="evenodd" clip-rule="evenodd" d="M369.565,416.184c-0.091,3.149-2.009,4.958-5.917,5.419
			c-3.079,0.364-5.824-0.13-6.941-3.537c-2.036-6.214,4.724-15.017,11.227-14.694c3.344,0.165,4.983,3.191,3.03,5.954
			c-1.87,2.646-4.146,4.837-7.807,4.887c-0.79,0.012-1.567,0.996-2.351,1.532c0.827,0.554,1.679,1.604,2.477,1.564
			C365.314,417.208,367.322,416.62,369.565,416.184z M360.808,411.576c0.456,0.314,0.912,0.628,1.368,0.941
			c2.001-1.612,4.001-3.226,6.002-4.839c-0.131-0.394-0.262-0.787-0.392-1.181c-1.267,0.155-2.913-0.128-3.715,0.565
			C362.704,408.244,361.867,410.039,360.808,411.576z"/>
		<path fill-rule="evenodd" clip-rule="evenodd" d="M374.95,228.205c6.258-8.141,5.624-16.004,0.478-23.997
			c4.729-2.07,5.922-1.464,6.711,3.372c0.434,2.655,0.904,5.305,1.499,8.785c2.976-2.977,4.792-5.554,4.383-9.36
			c-0.12-1.119,0.243-2.325,0.607-3.417c0.045-0.134,1.981-0.043,2.17,0.355c0.542,1.146,1.2,2.714,0.817,3.745
			c-2.905,7.813-8.694,13.594-14.285,19.477C376.781,227.744,375.756,227.87,374.95,228.205z"/>
		<path fill-rule="evenodd" clip-rule="evenodd" d="M130.647,52.402c-1.677,1.458-2.854,2.796-4.319,3.622
			c-0.745,0.419-2.01-0.084-3.04-0.17c0.424-1.002,0.576-2.55,1.316-2.922c5.804-2.911,6.332-6.235,1.655-10.916
			c-0.461-0.461-0.234-1.61-0.326-2.44c1.644,0.031,3.367-0.221,4.897,0.211c0.774,0.218,1.198,1.675,1.57,2.247
			c2.181-1.091,3.986-2.309,5.972-2.816c0.675-0.172,1.808,1.441,2.731,2.239c-0.879,0.621-1.703,1.673-2.646,1.792
			c-4.571,0.577-6.333,4.223-3.484,7.919c0.549,0.713,2.172,0.601,3.397,0.892c0.122,2.62-1.123,3.887-5.354,4.885
			C132.224,55.426,131.401,53.846,130.647,52.402z"/>
		<path fill-rule="evenodd" clip-rule="evenodd" d="M306.65,394.677c0.557-0.205,1.333-0.6,2.156-0.777
			c3.374-0.729,4.599,0.487,3.593,3.746c-1.631,5.28-2.994,10.705-5.286,15.694c-1.466,3.189,0.058,3.572,2.586,5.053
			c-2.318,1.293-4.636,2.586-6.953,3.879c-0.52-0.391-1.04-0.78-1.56-1.171c0.805-3.499,1.485-7.032,2.444-10.489
			c1.091-3.933,2.543-7.767,3.588-11.709C307.511,397.8,306.921,396.465,306.65,394.677z"/>
		<path fill-rule="evenodd" clip-rule="evenodd" d="M280.367,415.215c-3.271,5.678-5.709,7.381-9.858,6.279
			c-1.788-0.475-4.026-2.356-4.521-4.049c-1.854-6.343,4.891-15.644,12.443-14.162c1.284,0.252,3.038,2.013,3.144,3.203
			c0.095,1.066-1.783,2.309-2.791,3.473c-0.346-0.239-0.692-0.479-1.039-0.719c-0.203-1.158-0.407-2.318-0.657-3.74
			c-3.325,1.308-6.198,2.759-6.689,6.411c-0.212,1.577-0.064,4.35,0.715,4.676c1.593,0.665,3.736,0.138,5.63-0.091
			C277.714,416.379,278.635,415.848,280.367,415.215z"/>
		<path fill-rule="evenodd" clip-rule="evenodd" d="M186.049,397.979c-0.486-1.962-2.144-4.702,2.206-4.645
			c2.194,0.028,3.203,0.693,2.375,3.208c-1.71,5.197-3.259,10.454-4.647,15.746c-0.307,1.169,0.387,2.58,0.51,3.89
			c0.107,1.136,0.497,2.975-0.008,3.298c-1.483,0.948-3.351,1.297-5.067,1.88c-0.369-1.221-1.29-2.584-1.015-3.638
			c1.389-5.355,3.098-10.629,4.673-15.938C185.425,400.595,185.69,399.385,186.049,397.979z"/>
		<path fill-rule="evenodd" clip-rule="evenodd" d="M75.698,396.761c0.8-1.167,1.389-3.053,2.441-3.363
			c2.994-0.881,3.898,0.21,3.07,3.311c-1.478,5.534-3.103,11.028-4.593,16.561c-0.195,0.726,0.069,1.568,0.078,2.356
			c0.016,1.363,0.55,3.328-0.131,3.953c-1.109,1.017-3.022,1.158-4.595,1.669c-0.308-1.62-1.186-3.384-0.82-4.833
			c1.371-5.427,3.151-10.748,4.772-16.111c0.288-0.949,0.548-1.908,0.822-2.862C76.394,397.214,76.046,396.987,75.698,396.761z"/>
		<path fill-rule="evenodd" clip-rule="evenodd" d="M334.457,409.754c-2.097-1.724-3.298-2.711-4.499-3.698
			c-0.374,0.329-0.748,0.658-1.122,0.986c0.994,1.838,1.95,3.697,2.991,5.508c1.559,2.714,2.273,6.104-0.469,7.645
			c-2.491,1.399-6.064,1.031-9.146,0.947c-0.269-0.007-0.438-3.702-0.653-5.684c0.479-0.138,0.958-0.275,1.437-0.413
			c0.593,0.892,1.178,1.788,1.778,2.674c0.497,0.734,0.941,1.972,1.538,2.055c0.763,0.105,2.09-0.534,2.382-1.2
			c0.368-0.841,0.23-2.184-0.214-3.036c-0.725-1.39-2.107-2.441-2.805-3.84c-2.501-5.018-0.149-8.512,5.423-8.231
			c1.343,0.067,2.682,0.201,4.552,0.345C335.234,405.88,334.882,407.635,334.457,409.754z"/>
		<path fill-rule="evenodd" clip-rule="evenodd" d="M92.087,393.667c-0.69,2.875-1.328,5.698-2.052,8.497
			c-0.903,3.492-1.924,6.954-2.799,10.453c-0.304,1.216-1.719,2.706,0.587,3.7c0.146,0.063-0.352,2.865-1.218,3.69
			c-0.897,0.853-2.93,1.494-3.873,1.028c-0.859-0.425-1.532-2.616-1.235-3.755c1.471-5.651,3.305-11.207,4.977-16.807
			c0.318-1.065,0.732-2.188,0.68-3.263C86.954,393.085,86.89,393.088,92.087,393.667z"/>
		<path fill-rule="evenodd" clip-rule="evenodd" d="M394.974,394.042c-2.266,8.38-7.193,15.557-5.366,23.861
			c0.338,0.089,0.676,0.178,1.013,0.267c-0.539,0.645-0.955,1.578-1.645,1.873c-1.477,0.631-3.095,0.932-4.655,1.368
			c-0.267-1.515-1.057-3.165-0.708-4.522c1.382-5.373,3.184-10.635,4.692-15.979c0.524-1.856,0.652-3.826,1.052-6.303
			C390.489,394.493,392.278,394.313,394.974,394.042z"/>
		<path fill-rule="evenodd" clip-rule="evenodd" d="M378.438,394.54c1.089,0.056,2.72,0.138,4.351,0.222
			c-0.146,1.624-0.063,3.31-0.481,4.859c-1.384,5.129-3.042,10.186-4.331,15.336c-0.172,0.685,1.183,1.751,2.212,3.167
			c-0.261,0.347-0.717,1.525-1.551,1.934c-1.466,0.719-3.163,0.967-4.764,1.411c-0.234-1.615-1.003-3.375-0.609-4.818
			c1.523-5.595,3.515-11.06,5.109-16.638C378.802,398.518,378.438,396.796,378.438,394.54z"/>
		<path fill-rule="evenodd" clip-rule="evenodd" d="M242.018,403.287c2.188,0.337,4.375,0.672,6.563,1.009
			c-0.056,0.359-0.111,0.72-0.166,1.08c1.011-0.601,1.979-1.563,3.045-1.691c0.938-0.112,2.851,0.758,2.832,1.111
			c-0.066,1.218-0.815,3.448-1.262,3.438c-6.931-0.153-6.486,6.275-9.086,9.925c-0.349,0.491-0.313,1.327-0.729,1.685
			c-0.761,0.653-1.727,1.067-2.607,1.582c-0.32-0.877-1.047-1.837-0.888-2.614c0.519-2.527,1.511-4.957,2.033-7.483
			c0.459-2.224,0.533-4.527,0.777-6.796C242.359,404.117,242.188,403.703,242.018,403.287z"/>
		<path fill-rule="evenodd" clip-rule="evenodd" d="M194.211,403.711c0.564-0.109,1.887-0.645,3.134-0.502
			c0.738,0.084,1.931,1.258,1.908,1.907c-0.053,1.552-0.884,3.063-1.071,4.629c-0.265,2.225-2.387,4.37-0.121,6.836
			c0.444,0.483-0.286,2.79-1.119,3.507c-0.99,0.852-2.767,1.352-4.022,1.1c-0.644-0.13-1.382-2.304-1.213-3.423
			c0.348-2.301,1.47-4.477,1.914-6.774C194.041,408.815,194.002,406.553,194.211,403.711z"/>
		<path fill-rule="evenodd" clip-rule="evenodd" d="M259.016,403.594c-0.235,0.054,0.482-0.27,1.182-0.234
			c1.185,0.06,2.834-0.042,3.396,0.649c0.522,0.644,0.02,2.269-0.276,3.396c-0.532,2.028-1.352,3.984-1.838,6.021
			c-0.209,0.879-0.211,2.104,0.257,2.788c1.25,1.828,0.637,3.15-0.938,4.019c-1.166,0.642-2.624,0.75-3.952,1.097
			c-0.215-1.365-0.79-2.789-0.578-4.084C256.967,412.975,257.952,408.75,259.016,403.594z"/>
		<path fill-rule="evenodd" clip-rule="evenodd" d="M260.122,398.079c1.283-0.979,2.1-2.079,2.787-2.004
			c0.832,0.091,1.557,1.176,2.327,1.83c-0.74,0.822-1.354,2.007-2.27,2.324C262.461,400.405,261.45,399.131,260.122,398.079z"/>
		<path fill-rule="evenodd" clip-rule="evenodd" d="M198.73,394.874c1.118,1.536,2.175,2.351,2.12,3.083
			c-0.061,0.815-1.133,1.555-1.766,2.328c-0.711-0.699-1.837-1.311-2.008-2.123C196.926,397.451,197.85,396.515,198.73,394.874z"/>
		<path fill-rule="evenodd" clip-rule="evenodd" fill="#FFFFFF" d="M122.863,160.125c-1.938-1.568-3.876-3.137-6.848-5.542
			c5.738-2.158,10.323-4.052,12.095-9.124c-0.001,0.003-0.092,0.205-0.092,0.205c3.09-2.534,6.722-3.585,10.563-2.924
			c10.56,1.82,21.2,1.684,31.837,1.645c10.368-0.037,20.735-0.293,31.103-0.353c8.076-0.046,16.16,0.286,24.226,0.031
			c6.444-0.203,12.86-1.189,19.305-1.527c3.149-0.165,6.334,0.356,10.15,0.609c-1.633,1.762-2.682,2.894-3.564,3.846
			c1.094,1.59,2.08,3.025,3.141,4.569c-1.926,1.262-4.049,2.131-2.504,4.913c0.289,0.521-0.719,1.761-1.276,2.999
			c0.953,0.655,2.229,1.53,3.46,2.375c-0.501,4.668-0.902,9.362-5.576,12.349c0.19,0.247,0.381,0.495,0.571,0.742
			c1.557,0.108,3.113,0.217,4.223,0.295c0.433,4.439,0.661,8.71,1.316,12.915c0.547,3.505-1.191,6.828-0.16,10.442
			c0.72,2.52,0.072,5.412,0.177,8.132c0.041,1.062,0.227,2.265,0.779,3.127c0.957,1.496,0.679,2.145-0.403,3.681
			c-1.537,2.184-1.891,5.201-2.777,7.95c1.061-0.297,2.105-0.59,3.808-1.065c-2.056,3.854-3.773,7.074-5.491,10.295
			c-0.261-0.111-0.521-0.224-0.781-0.335c0.256,0.943,0.203,2.326,0.819,2.759c3.462,2.43,3.411,4.594-1.389,7.063
			c4.377,0.227,5.94,1.56,4.149,4.846c-0.215,0.396-0.282,1.107-0.069,1.465c2.8,4.705,1.001,9.416,0.044,14.526
			c-2.259-0.351-4.506-0.699-7.313-1.136c-0.271,0.328-0.934,1.13-1.712,2.072c5.023-0.016,8.677,1.495,11.048,6.636
			c-1.55-0.138-2.354-0.209-2.91-0.259c0.129,1.94,0.246,3.694,0.362,5.447c-0.865-0.992-1.729-1.982-2.967-3.399
			c-0.559,4.834,0.731,6.487,4.555,6.657c-0.555-1.123-1.078-2.185-1.602-3.245c1.87,1.398,3.739,2.799,6.101,4.565
			c-3.248,0.623-5.975,1.32-5.646,5.134c0.246,2.848,0.133,5.726,0.237,8.587c0.051,1.4,0.188,2.802,0.365,4.191
			c0.218,1.702,0.519,3.394,0.841,5.455c-0.793-0.108-1.482-0.203-2.168-0.296c-1.318,5.041-0.382,6.848,3.249,6.26
			c-1.393,3.255-1.746,3.11-5.892,2.496c-2.228-0.329-4.631,0.811-6.974,0.929c-13.521,0.688-27.043,1.594-40.574,1.8
			c-16.816,0.258-33.643,0.018-50.461-0.243c-5.909-0.091-11.833-0.683-17.694-1.466c-1.807-0.24-3.427-1.872-5.128-2.863
			c-0.373-0.28-0.75-0.565-1.128-0.85c-0.283-1.46-0.451-2.955-0.884-4.369c-0.349-1.134-0.741-2.589-1.604-3.16
			c-1.759-1.164-3.726-1.777-0.666-3.762c0.276-0.18-0.459-1.917-0.773-3.113c-1.156,1.075-2.044,1.901-3.166,2.944
			c-0.298-1.72-0.499-2.877-0.699-4.034c-0.333,0.008-0.666,0.016-0.999,0.023c0.411-0.724,0.823-1.446,1.347-2.37
			c0.994,0.476,1.942,0.93,3.259,1.56c0.818-2.409,1.579-4.654,2.474-7.295c1.334-0.214,3.304-0.529,5.771-0.925
			c-3.521-2.823-7.739-3.549-9.186-7.608c0.004,0.002,0.224-0.114,0.224-0.114l-0.224-0.188c0.413-0.346,0.827-0.691,1.242-1.036
			c1.106-0.222,1.551,3.12,3.088,0.574l-0.094,0.094c0.481-0.586,0.96-1.172,1.44-1.758c-0.788-0.275-1.713-0.943-2.33-0.729
			c-0.814,0.285-1.387,1.263-2.064,1.942c-1.764-1.854-1.587-3.809-0.042-5.602c0.511-0.594,1.563-0.723,3.09-1.371
			c-2.532-1.135-4.937-2.214-7.341-3.293c0.096-0.345,0.192-0.689,0.288-1.034c4.411,0.662,6.039-2.043,7.211-5.871
			c-4.331,1.999-4.163-2.893-5.824-3.563c0.265-1.715,0.501-3.235,0.731-4.758c0.035-0.235-0.028-0.505,0.063-0.71
			c2.53-5.67,2.532-5.669-1.684-9.082c1.34-2.801,2.702-5.644,3.847-8.036c-1.246-0.3-2.749-0.662-4.984-1.201
			c2.279-2.685,3.928-4.626,5.71-6.725c-1.024-0.914-2.022-1.806-3.421-3.054c1.981-0.861,3.774-1.641,5.566-2.42
			c-0.105-0.287-0.209-0.575-0.314-0.863c-0.661,0.185-1.323,0.369-2.109,0.588c-0.131-4.292-3.617-3.785-7.016-4.273
			c3.585-6.313,1.271-11.527-2.415-16.481c2.67,2.171,3.581-0.597,4.713-1.92c0.481-0.562-0.075-2.011-0.245-4.094
			c-2.244,2.517-3.585,4.022-4.928,5.528c0.32-2.767,0.704-5.103,3.401-7.183c1.811-1.396,2.009-4.971,2.772-7.615
			c0.773-2.678,1.433-5.396,1.958-8.132c0.118-0.615-0.533-1.377-0.99-2.447c1.221,0.207,2.088,0.353,2.77,0.468
			c-1.395-2.941-2.759-5.819-4.347-9.167c0.354-0.337,1.11-1.056,1.846-1.785c1.413-0.802,2.844-1.592,4.363-2.43
			c-0.854-0.604-1.923-1.678-3.213-2.157c-0.824-0.306-2.055,0.11-2.929,0.547c-0.259,0.129-0.127,1.535,0.187,2.18
			C121.516,158.96,122.277,159.5,122.863,160.125z"/>
		<path fill-rule="evenodd" clip-rule="evenodd" fill="#FFFFFF" d="M219.939,97.886c16.075,1.083,32.181,1.851,48.214,3.379
			c8.526,0.813,16.999,2.633,25.363,4.571c7.886,1.828,15.601,4.394,23.379,6.676c0.825,0.242,1.589,0.73,2.346,1.164
			c4.955,2.838,5.348,6.597,0.482,9.449c-3.767,2.208-8.004,3.857-12.238,4.975c-7.666,2.025-15.477,3.514-23.247,5.131
			c-2.416,0.502-4.894,0.717-7.347,1.027c-11.352,1.435-22.671,3.617-34.063,4.122c-23.531,1.043-47.102,1.591-70.655,1.56
			c-14.937-0.021-29.901-1.093-44.797-2.355c-13.502-1.145-27.009-2.709-40.36-4.991c-9.481-1.621-18.766-4.543-28.007-7.322
			c-2.54-0.764-4.748-2.938-6.849-4.764c-1.879-1.634-0.999-4.768,1.735-6.034c7.321-3.391,14.585-6.591,22.911-7.388
			c7.844-0.751,15.527-3.114,23.305-4.649c3.662-0.722,7.363-1.483,11.074-1.678c20.433-1.072,40.875-1.981,61.316-2.927
			c3.485-0.161,6.978-0.362,10.458-0.256c0.902,0.028,1.772,1.144,2.657,1.759c-0.714,0.984-1.226,2.389-2.189,2.851
			c-1.409,0.675-3.137,0.888-4.739,0.926c-12.707,0.307-25.43,0.225-38.118,0.861c-11.701,0.587-23.438,1.407-35.02,3.086
			c-8.741,1.266-17.317,3.865-25.838,6.312c-1.734,0.498-4.008,2.958-4.026,4.537c-0.019,1.668,2.039,4.282,3.75,4.882
			c6.388,2.241,12.925,4.228,19.555,5.578c18.649,3.799,37.629,4.771,56.579,5.253c18.318,0.466,36.665,0.265,54.989-0.121
			c15.465-0.326,30.969-0.779,46.355-2.231c11.363-1.073,22.603-3.661,33.809-6.002c2.404-0.502,4.624-2.633,6.571-4.405
			c2.861-2.607,2.319-5.521-1.354-6.827c-4.565-1.623-9.247-3.011-13.975-4.072c-23.383-5.246-47.2-5.911-71.02-6.451
			c-6.478-0.146-12.962-0.1-19.428-0.446c-0.947-0.05-2.314-1.663-2.593-2.777c-0.513-2.049,0.882-2.759,2.892-2.746
			c9.366,0.057,18.732,0.025,28.098,0.025C219.924,97.672,219.933,97.779,219.939,97.886z"/>
		<path fill-rule="evenodd" clip-rule="evenodd" fill="#FFFFFF" d="M189.549,129.715c1.677-2.588,3.117-4.81,4.798-7.405
			c-1.258-1.327-2.589-2.731-3.591-3.787c-0.442-3.846-0.851-7.404-1.293-11.254c4.292,0,7.65-0.057,11.004,0.01
			c13.217,0.264,26.467,0.074,39.639,0.992c14.127,0.984,28.215,2.781,42.246,4.75c4.356,0.611,9.24,1.107,12.833,5.503
			c-0.813,0.583-1.521,1.375-2.398,1.675c-10.033,3.434-20.104,6.418-30.907,6.638c-11.788,0.241-23.555,1.375-35.343,1.81
			c-5.773,0.212-11.575-0.446-17.36-0.385c-3.112,0.033-6.209,0.809-9.326,1.144c-1.916,0.207-3.852,0.232-5.78,0.301
			C192.92,129.749,191.766,129.715,189.549,129.715z"/>
		<path fill-rule="evenodd" clip-rule="evenodd" fill="#FFFFFF" d="M128.287,307.504c0.378,0.284,0.756,0.569,1.128,0.85
			c0.368,0.687,0.74,1.376,1.64,3.041c-3.581-0.588-6.22-1.021-8.551-1.405c-0.233-2.769-0.438-5.201-0.656-7.799
			C126.239,301.844,126.886,305.105,128.287,307.504z"/>
		<path fill-rule="evenodd" clip-rule="evenodd" fill="#FFFFFF" d="M128.018,145.664c0,0,0.09-0.202,0.092-0.205
			c-1.188,0.832-2.376,1.668-2.893,2.031c-2.191-1.391-4.055-2.574-5.919-3.757c0.322-0.38,0.643-0.76,0.964-1.141
			c2.883-0.141,5.765-0.28,9.537-0.464C128.981,143.75,128.5,144.707,128.018,145.664z"/>
		<path fill-rule="evenodd" clip-rule="evenodd" d="M115.341,195.946c1.342-1.506,2.684-3.012,4.928-5.528
			c0.169,2.083,0.726,3.532,0.245,4.094c-1.132,1.323-2.043,4.091-4.713,1.92C115.645,196.268,115.493,196.108,115.341,195.946z"/>
		<path fill-rule="evenodd" clip-rule="evenodd" d="M253.159,273.805c0.523,1.061,1.047,2.122,1.602,3.245
			c-3.823-0.17-5.113-1.823-4.555-6.657c1.237,1.417,2.102,2.407,2.967,3.399C253.173,273.793,253.159,273.805,253.159,273.805z"/>
		<path fill-rule="evenodd" clip-rule="evenodd" fill="#FFFFFF" d="M112.408,184.418c1.565-1.444,2.487-2.963,3.525-3.046
			c0.854-0.068,1.844,1.566,3.082,2.737C116.645,184.22,115.119,184.292,112.408,184.418z"/>
		<path fill-rule="evenodd" clip-rule="evenodd" d="M127.491,274.63c-1.537,2.546-1.981-0.796-3.088-0.574
			c-0.001-0.001,0.044,0.126,0.042,0.125c0.675-0.681,1.248-1.658,2.063-1.943c0.616-0.215,1.542,0.453,2.33,0.729
			c-0.48,0.586-0.959,1.172-1.438,1.754c-0.054-0.272-0.111-0.541-0.047-0.243C127.142,274.245,127.317,274.438,127.491,274.63z"/>
		<polygon fill-rule="evenodd" clip-rule="evenodd" points="123.162,275.092 123.386,275.28 123.162,275.395 123.269,275.253 		"/>
		<path fill-rule="evenodd" clip-rule="evenodd" fill="#FFFFFF" d="M308.992,52.103c0.931-2.876,1.653-5.362,2.559-7.779
			c0.341-0.91,1.316-2.438,1.643-2.35c1.429,0.387,3.192,0.93,3.975,2.028c1.638,2.302,1.607,5.201-0.599,7.023
			c-1.337,1.104-3.652,1.064-5.55,1.422C310.462,52.552,309.831,52.258,308.992,52.103z"/>
		<path fill-rule="evenodd" clip-rule="evenodd" fill="#FFFFFF" d="M306.611,43.263c0.167,3.771-3.09,8.872-5.743,9.318
			c-0.869,0.146-2.65-1.198-2.913-2.162c-0.591-2.163,3.559-8.035,5.798-8.314C304.769,41.979,305.92,42.959,306.611,43.263z"/>
		<path fill-rule="evenodd" clip-rule="evenodd" fill="#FFFFFF" d="M234.159,408.242c0.297,4.108-2.533,6.324-5.232,8.43
			c-0.449,0.352-2.952-0.704-3.09-1.393c-0.608-3.054,2.562-7.759,5.388-8.932C233.364,405.459,234.27,406.04,234.159,408.242z"/>
		<path fill-rule="evenodd" clip-rule="evenodd" fill="#FFFFFF" d="M294.652,405.6c0.103,2.062,0.96,4.484,0.126,5.936
			c-1.292,2.248-3.737,3.834-5.693,5.7c-0.718-0.995-2.218-2.192-2.021-2.952C288.014,410.595,289.048,406.733,294.652,405.6z"/>
		<path fill-rule="evenodd" clip-rule="evenodd" fill="#FFFFFF" d="M66.122,409.564c-1.584,2.665-2.932,5.343-4.709,7.694
			c-0.604,0.799-2.846,1.43-3.369,0.989c-0.98-0.829-2.017-2.754-1.674-3.762c0.926-2.728,2.383-5.337,4.022-7.725
			c0.542-0.789,2.533-1.332,3.402-0.947C64.734,406.23,65.136,407.86,66.122,409.564z"/>
		<path fill-rule="evenodd" clip-rule="evenodd" fill="#FFFFFF" d="M106.322,410.057c-1.602,2.479-3.075,5.087-4.91,7.406
			c-0.578,0.73-2.524,1.284-3.14,0.871c-0.969-0.651-1.933-2.229-1.857-3.345c0.25-3.731,1.817-6.979,5.069-9.104
			c0.614-0.4,2.022-0.631,2.305-0.297C104.679,406.637,105.208,407.992,106.322,410.057z"/>
		<path fill-rule="evenodd" clip-rule="evenodd" fill="#FFFFFF" d="M360.808,411.576c1.06-1.537,1.896-3.332,3.264-4.513
			c0.802-0.693,2.448-0.41,3.715-0.565c0.13,0.394,0.261,0.787,0.392,1.181c-2.001,1.613-4.001,3.227-6.002,4.839
			C361.72,412.204,361.264,411.891,360.808,411.576z"/>
		<path fill-rule="evenodd" clip-rule="evenodd" d="M122.863,160.125c-0.586-0.624-1.347-1.164-1.705-1.899
			c-0.314-0.645-0.445-2.05-0.187-2.18c0.875-0.438,2.105-0.853,2.929-0.547c1.29,0.479,2.359,1.552,3.213,2.157
			c-1.519,0.838-2.951,1.628-4.363,2.43C122.771,160.096,122.863,160.125,122.863,160.125z"/>
		<path fill-rule="evenodd" clip-rule="evenodd" fill="#FFFFFF" d="M127.491,274.63c-0.174-0.192-0.349-0.385-0.138-0.153
			c-0.064-0.298-0.007-0.029,0.047,0.243C127.397,274.724,127.491,274.63,127.491,274.63z"/>
	</g>
</g>
</svg>
