<?xml version="1.0" encoding="utf-8"?>
<!-- Generator: Adobe Illustrator 16.0.0, SVG Export Plug-In . SVG Version: 6.00 Build 0)  -->
<!DOCTYPE svg PUBLIC "-//W3C//DTD SVG 1.1//EN" "http://www.w3.org/Graphics/SVG/1.1/DTD/svg11.dtd">
<svg version="1.1" id="Layer_1" xmlns="http://www.w3.org/2000/svg" xmlns:xlink="http://www.w3.org/1999/xlink" x="0px" y="0px"
	 width="666.843px" height="476.316px" viewBox="0 0 666.843 476.316" enable-background="new 0 0 666.843 476.316"
	 xml:space="preserve">
<g>
	<g>
		<path fill-rule="evenodd" clip-rule="evenodd" fill="#FFFFFF" d="M0.75,0.75c222.281,0,444.563,0,666.843,0
			c0,158.772,0,317.544,0,476.316c-222.28,0-444.562,0-666.843,0C0.75,318.294,0.75,159.522,0.75,0.75z M572.515,394.756
			c2.146-0.107,3.861,0.147,5.346-0.325c7.462-2.382,14.872-4.935,22.274-7.5c0.563-0.195,1.119-0.897,1.313-1.486
			c0.103-0.308-0.495-1.123-0.936-1.29c-3.004-1.14-6.033-2.216-9.086-3.219c-4.92-1.617-9.857-3.184-14.805-4.718
			c-1.063-0.33-2.196-0.43-3.298-0.637c0.338,1.194,0.425,2.552,1.073,3.541c0.924,1.41,2.261,2.551,3.813,4.231
			c-1.395,0.319-1.855,0.519-2.317,0.518c-25.121-0.042-50.242-0.055-75.361-0.276c-1.497-0.013-3.308-1.431-4.4-2.691
			c-2.291-2.644-4.5-4.827-8.446-4.188c-1.087,0.176-2.695-0.424-3.482-1.233c-5.933-6.105-11.806-12.274-17.529-18.577
			c-5.357-5.897-10.314-12.165-15.8-17.937c-6.216-6.54-12.68-12.862-19.291-19.004c-11.316-10.514-22.978-20.658-34.178-31.291
			c-3.588-3.404-9.101-5.481-9.559-11.623c-0.044-0.583-1.25-1.603-1.82-1.54c-4.708,0.519-7.402-2.978-10.659-5.227
			c-7.127-4.924-14.105-10.062-21.212-15.015c-1.563-1.089-3.555-1.569-5.089-2.688c-2.042-1.488-3.649-3.605-5.762-4.953
			c-4.348-2.775-8.927-5.186-13.375-7.807c-7.121-4.198-14.034-8.787-21.357-12.592c-11.492-5.973-23.187-11.569-34.924-17.049
			c-5.934-2.771-12.114-5.03-18.246-7.356c-5.84-2.214-11.727-4.316-17.655-6.283c-7.763-2.577-15.579-5-23.388-7.434
			c-6.738-2.101-13.731-2.905-20.437-5.679c-6.923-2.863-14.845-3.269-22.293-4.916c-7.219-1.597-14.394-3.397-21.583-5.125
			c-5.13-1.233-10.212-2.703-15.387-3.693c-8.751-1.674-17.544-3.156-26.354-4.49c-2.467-0.374-2.479-1.648-2.648-3.567
			c-0.158-1.797-0.639-3.809-1.664-5.235c-2.15-2.993-3.317-5.957-3.286-9.8c0.158-19.827,0.011-39.655-0.022-59.482
			c-0.011-6.283-0.002-12.566-0.002-19.371c3.089,1.833,5.594,3.319,8.101,4.806c-2.254-9.482-4.923-18.014-7.78-26.483
			c-0.361-1.072-1.709-1.81-2.6-2.704c-0.843,0.946-2.046,1.757-2.461,2.864c-1.426,3.799-2.619,7.688-3.822,11.568
			c-1.415,4.565-2.747,9.155-4.116,13.735c0.333,0.271,0.666,0.543,0.998,0.814c2.363-1.622,4.727-3.244,7.842-5.382
			c0,29.417,0,57.886,0,86.355c-0.391-0.217-0.781-0.435-1.171-0.652c-1.64,1.864-3.208,3.798-4.947,5.565
			c-1.019,1.036-2.4,2.668-3.459,2.554c-6.256-0.671-12.481-1.686-18.685-2.767c-4.235-0.739-8.4-1.87-12.628-2.655
			c-4.326-0.803-8.689-1.397-12.942-2.067c-1.381,5.029-1.308,4.903,2.848,5.72c7.893,1.553,15.931,1.778,23.754,4.456
			c7.525,2.576,15.723,3.232,23.654,4.553c2.763,0.46,3.777,1.715,3.677,4.488c-0.216,5.975-0.306,11.96-0.248,17.938
			c0.108,11.224,0.521,22.447,0.516,33.67c-0.012,22.462-0.36,44.925-0.307,67.388c0.048,20.577,0.464,41.153,0.669,61.73
			c0.078,7.862,0.012,15.728,0.022,23.592c0.006,4.908-0.388,5.399-5.173,5.411c-18.48,0.05-36.96,0.136-55.439,0.023
			c-6.067-0.038-12.13-0.668-18.198-0.963c-2.69-0.131-4.799,0.666-5.306,4.232c27.984,0,55.676,0,83.452,0
			c0.242,1.057,0.534,1.764,0.545,2.475c0.145,9.237,0.27,18.475,0.358,27.712c0.122,12.714,0.17,25.429,0.382,38.142
			c0.018,1.075,1.04,2.134,1.596,3.2c0.612-1.142,1.752-2.28,1.76-3.426c0.126-20.858,0.116-41.718,0.133-62.577
			c0.004-5.056,0.26-5.319,5.265-5.327c21.995-0.034,43.99-0.105,65.985-0.092c37.729,0.023,75.458,0.1,113.186,0.155
			c22.858,0.034,45.717,0.03,68.574,0.146c4.331,0.021,8.656,0.689,12.989,0.775c5.297,0.104,10.6-0.135,15.9-0.147
			c11.348-0.028,22.695,0.032,34.042-0.016c10.933-0.046,21.866-0.286,32.798-0.249c8.837,0.03,17.671,0.441,26.507,0.485
			c3.017,0.016,5.648,0.202,7.396,3.132c0.439,0.736,1.656,1.563,2.405,1.47c5.34-0.676,7.688,3.457,10.405,6.575
			c10.103,11.591,19.986,23.372,29.949,35.085c5.935,6.977,11.864,13.956,17.795,20.936c1.663,1.956,3.324,3.915,4.959,5.842
			c3.487-2.432,3.612-3.446,0.259-7.72c-6.767-8.624-13.593-17.205-20.585-25.646c-2.906-3.509-6.434-6.496-9.439-9.929
			c-7.218-8.241-14.311-16.592-21.412-24.935c-1.057-1.242-1.888-2.676-3.109-4.431c28.031,0,55.284,0,83.679,0
			C576.721,390.023,574.909,392.062,572.515,394.756z M446.965,287.413c-0.247-1.839-0.432-2.804-0.499-3.775
			c-0.469-6.679-1.304-7.699-7.759-8.826c0.606-2.022,1.228-3.982,1.781-5.96c0.856-3.059-0.255-4.396-3.363-3.828
			c-1.21,0.222-2.318,1.002-3.474,1.527c0.423,0.214,0.846,0.427,1.268,0.641c-0.478,2.729-0.956,5.459-1.425,8.137
			c-8.198-0.401-15.677,6.7-14.747,13.877c0.249,1.924,1.838,4.079,3.45,5.237c0.735,0.528,3.036-1.083,4.603-1.777
			c0.535-0.237,0.996-0.64,1.473-0.953c3.047,3.572,2.968,5.596,9.161-2.641c-4.153,0.186-3.392-1.989-2.289-4.274
			c0.676-1.398,1.323-2.82,2.138-4.136c0.538-0.869,1.349-1.568,2.037-2.342c0.762,0.995,2.026,1.917,2.187,3.001
			c0.419,2.819,0.325,5.711,0.483,8.571c0.319,5.759-0.362,6.66-6.111,7.704c-2.329,0.423-3.308,2.226-1.841,3.6
			c0.938,0.876,4.219,0.739,5.235-0.224c4.151-3.932,8.113-8.144,11.589-12.678c2.128-2.775,3.397-6.266,4.695-9.574
			c0.276-0.706-0.868-2.133-1.625-2.991c-0.275-0.312-1.588-0.189-1.967,0.192c-0.516,0.518-1.044,1.723-0.78,2.204
			C453.726,282.785,449.631,284.352,446.965,287.413z M58.885,415.786c0.053,7.297,8.411,12.751,14.354,9.405
			c6.202-3.493,11.128-7.668,12.417-15.43c1.253-7.554-3.286-12.413-10.363-12.183C66.728,397.858,58.642,408.256,58.885,415.786z
			 M127.226,19.673c4.405,8.487,6.494,16.195-1.305,23.913c1.784-0.174,3.424-0.437,4.29-1.397
			c4.094-4.551,8.321-9.056,11.776-14.076c1.511-2.197,1.694-5.581,1.726-8.435c0.025-2.214-1.948-2.153-3.023-0.683
			c-0.614,0.84,0.027,2.497-0.38,3.609c-0.919,2.51-2.139,4.909-3.236,7.353c-0.618-0.536-1.655-0.992-1.775-1.623
			c-0.418-2.196-0.261-4.517-0.795-6.672C133.442,17.387,130.153,16.731,127.226,19.673z M653.102,365.557
			c-1.273-4.173-2.503-5.047-4.492-3.104c-2.072,2.023-3.475,3.525-5.473-0.136c-0.392-0.716-3.505-0.857-4.535-0.114
			c-1.868,1.347,0.012,2.385,1.137,3.341c3.355,2.852,1.933,9.103-2.328,10.96c-0.82,0.357-1.26,1.589-1.874,2.417
			c1.09,0.229,2.389,0.943,3.228,0.584c1.615-0.688,2.969-1.986,4.432-3.031c1.224,0.269,0.595,4.808,4.319,3.233
			c1.658-0.7,2.955-2.257,4.416-3.425c-0.226-0.324-0.451-0.646-0.678-0.971c-1.188-0.218-2.375-0.435-3.492-0.64
			C645.73,368.475,646.365,367.376,653.102,365.557z"/>
		<path fill-rule="evenodd" clip-rule="evenodd" d="M572.515,394.756c2.395-2.694,4.206-4.732,6.738-7.581
			c-28.395,0-55.647,0-83.679,0c1.222,1.755,2.053,3.188,3.109,4.431c7.102,8.343,14.194,16.693,21.412,24.935
			c3.006,3.433,6.533,6.42,9.439,9.929c6.992,8.441,13.818,17.022,20.585,25.646c3.354,4.273,3.229,5.288-0.259,7.72
			c-1.635-1.927-3.296-3.886-4.959-5.842c-5.931-6.979-11.86-13.959-17.795-20.936c-9.963-11.713-19.847-23.494-29.949-35.085
			c-2.718-3.118-5.065-7.251-10.405-6.575c-0.749,0.094-1.966-0.733-2.405-1.47c-1.748-2.93-4.38-3.116-7.396-3.132
			c-8.836-0.044-17.67-0.455-26.507-0.485c-10.932-0.037-21.865,0.203-32.798,0.249c-11.347,0.048-22.694-0.013-34.042,0.016
			c-5.301,0.013-10.604,0.252-15.9,0.147c-4.333-0.086-8.658-0.754-12.989-0.775c-22.857-0.116-45.716-0.112-68.574-0.146
			c-37.729-0.056-75.457-0.132-113.186-0.155c-21.995-0.014-43.99,0.058-65.985,0.092c-5.005,0.008-5.261,0.271-5.265,5.327
			c-0.017,20.859-0.007,41.719-0.133,62.577c-0.007,1.146-1.147,2.284-1.76,3.426c-0.556-1.066-1.579-2.125-1.596-3.2
			c-0.212-12.713-0.26-25.428-0.382-38.142c-0.089-9.237-0.214-18.475-0.358-27.712c-0.012-0.711-0.304-1.418-0.545-2.475
			c-27.776,0-55.468,0-83.452,0c0.506-3.566,2.615-4.363,5.306-4.232c6.068,0.295,12.131,0.925,18.198,0.963
			c18.479,0.112,36.959,0.026,55.439-0.023c4.785-0.012,5.179-0.503,5.173-5.411c-0.01-7.864,0.056-15.729-0.022-23.592
			c-0.205-20.577-0.621-41.153-0.669-61.73c-0.053-22.463,0.295-44.926,0.307-67.388c0.006-11.223-0.407-22.446-0.516-33.67
			c-0.058-5.979,0.032-11.963,0.248-17.938c0.101-2.773-0.914-4.028-3.677-4.488c-7.932-1.321-16.129-1.977-23.654-4.553
			c-7.823-2.678-15.861-2.902-23.754-4.456c-4.155-0.817-4.229-0.691-2.848-5.72c4.252,0.67,8.616,1.265,12.942,2.067
			c4.228,0.785,8.394,1.916,12.628,2.655c6.204,1.082,12.429,2.096,18.685,2.767c1.059,0.114,2.44-1.519,3.459-2.554
			c1.738-1.768,3.307-3.701,4.947-5.565c0.39,0.217,0.781,0.435,1.171,0.652c0-28.469,0-56.939,0-86.355
			c-3.115,2.138-5.479,3.76-7.842,5.382c-0.332-0.271-0.665-0.542-0.998-0.814c1.369-4.58,2.701-9.17,4.116-13.735
			c1.203-3.879,2.396-7.769,3.822-11.568c0.416-1.107,1.619-1.918,2.461-2.864c0.891,0.894,2.239,1.632,2.6,2.704
			c2.857,8.469,5.525,17,7.78,26.483c-2.506-1.487-5.011-2.973-8.101-4.806c0,6.805-0.009,13.088,0.002,19.371
			c0.034,19.827,0.181,39.656,0.022,59.482c-0.031,3.843,1.136,6.807,3.286,9.8c1.024,1.426,1.505,3.438,1.664,5.235
			c0.168,1.919,0.181,3.194,2.648,3.567c8.81,1.334,17.602,2.816,26.354,4.49c5.175,0.99,10.257,2.46,15.387,3.693
			c7.19,1.728,14.364,3.529,21.583,5.125c7.448,1.647,15.37,2.053,22.293,4.916c6.706,2.773,13.698,3.578,20.437,5.679
			c7.81,2.434,15.625,4.857,23.388,7.434c5.928,1.967,11.815,4.069,17.655,6.283c6.132,2.326,12.313,4.585,18.246,7.356
			c11.737,5.48,23.432,11.076,34.924,17.049c7.323,3.806,14.237,8.395,21.357,12.592c4.448,2.621,9.027,5.031,13.375,7.807
			c2.112,1.348,3.72,3.465,5.762,4.953c1.534,1.118,3.526,1.599,5.089,2.688c7.106,4.953,14.085,10.091,21.212,15.015
			c3.257,2.249,5.951,5.745,10.659,5.227c0.57-0.063,1.776,0.957,1.82,1.54c0.458,6.142,5.971,8.219,9.559,11.623
			c11.2,10.633,22.861,20.777,34.178,31.291c6.611,6.142,13.075,12.464,19.291,19.004c5.485,5.771,10.442,12.039,15.8,17.937
			c5.724,6.303,11.597,12.472,17.529,18.577c0.787,0.81,2.396,1.409,3.482,1.233c3.946-0.639,6.155,1.545,8.446,4.188
			c1.093,1.261,2.903,2.679,4.4,2.691c25.119,0.222,50.24,0.234,75.361,0.276c0.462,0.001,0.923-0.198,2.317-0.518
			c-1.553-1.681-2.89-2.821-3.813-4.231c-0.648-0.989-0.735-2.347-1.073-3.541c1.102,0.207,2.235,0.307,3.298,0.637
			c4.947,1.534,9.885,3.101,14.805,4.718c3.053,1.003,6.082,2.079,9.086,3.219c0.44,0.167,1.038,0.982,0.936,1.29
			c-0.193,0.589-0.749,1.291-1.313,1.486c-7.402,2.565-14.813,5.118-22.274,7.5C576.376,394.903,574.661,394.648,572.515,394.756z
			 M388.662,289.657c0,1.753,0.006,2.935-0.001,4.115c-0.021,3.62-0.033,7.239-0.074,10.858c-0.029,2.602-1.179,3.647-3.961,3.632
			c-17.982-0.101-35.966,0.031-53.949-0.041c-22.25-0.089-44.499-0.341-66.749-0.445c-9.958-0.048-19.917,0.113-29.876,0.142
			c-15.732,0.045-31.465,0.065-47.198,0.084c-15.609,0.02-31.218,0.054-46.827,0.026c-11.852-0.021-23.705-0.048-35.553-0.261
			c-2.398-0.043-3.117,0.602-2.968,2.922c0.199,3.108,0.154,6.235,0.161,9.354c0.04,18.479-0.013,36.959,0.129,55.437
			c0.054,6.99,0.252,6.99,7.303,6.99c20.849-0.001,41.698-0.011,62.547-0.002c24.337,0.011,48.674-0.001,73.011,0.076
			c12.227,0.039,24.452,0.237,36.677,0.394c7.096,0.091,14.192,0.373,21.286,0.322c6.466-0.046,12.929-0.622,19.393-0.609
			c9.954,0.021,19.908,0.446,29.862,0.519c18.836,0.135,37.674,0.146,56.51,0.198c23.45,0.064,46.899,0.125,70.35,0.17
			c2.303,0.005,3.576-1.361,2.352-3.325c-1.526-2.448-3.7-4.512-5.697-6.645c-3.11-3.322-6.363-6.512-9.456-9.851
			c-8.192-8.844-16.241-17.822-24.537-26.566c-2.993-3.154-6.657-5.661-9.79-8.697c-6.048-5.861-11.908-11.918-17.909-17.829
			c-1.655-1.63-3.577-2.986-5.301-4.551c-5.521-5.013-10.986-10.089-16.536-15.07C391.207,290.416,390.159,290.267,388.662,289.657z
			 M371.405,275.337c-0.514-1.292-0.583-2.177-1.052-2.534c-3.977-3.028-7.877-6.194-12.085-8.871
			c-7.572-4.817-15.284-9.318-22.431-14.882c-6.407-4.987-13.905-8.604-21.046-12.605c-5.414-3.034-10.981-5.803-16.554-8.542
			c-6.716-3.3-13.475-6.518-20.278-9.631c-6.313-2.889-12.635-5.788-19.096-8.315c-4.821-1.886-9.914-3.067-14.811-4.778
			c-7.892-2.758-15.619-6.033-23.604-8.469c-9.888-3.017-19.977-5.372-29.964-8.068c-6.497-1.754-12.917-3.823-19.464-5.352
			c-5.98-1.397-12.1-2.189-18.133-3.375c-4.357-0.855-8.678-1.902-13.008-2.894c-3.96-0.908-7.895-1.926-11.867-2.771
			c-7.111-1.513-14.27-2.807-21.352-4.44c-4.088-0.943-5.735-0.083-5.794,4.175c-0.13,9.301-0.13,18.605-0.056,27.906
			c0.047,5.972,0.439,11.942,0.475,17.915c0.1,16.837,0.197,33.675,0.049,50.51c-0.032,3.608,1.517,4.646,4.619,4.652
			c5.999,0.012,11.997,0.038,17.997,0.046c41.371,0.051,82.741,0.093,124.111,0.15c33.745,0.048,67.489,0.116,101.232,0.17
			C356.494,275.347,363.692,275.337,371.405,275.337z"/>
		<path fill-rule="evenodd" clip-rule="evenodd" d="M446.965,287.413c2.666-3.062,6.761-4.628,4.22-9.288
			c-0.264-0.481,0.265-1.687,0.78-2.204c0.379-0.382,1.691-0.504,1.967-0.192c0.757,0.858,1.901,2.285,1.625,2.991
			c-1.298,3.309-2.567,6.799-4.695,9.574c-3.476,4.534-7.438,8.746-11.589,12.678c-1.017,0.963-4.298,1.1-5.235,0.224
			c-1.467-1.374-0.488-3.177,1.841-3.6c5.749-1.044,6.431-1.945,6.111-7.704c-0.158-2.86-0.064-5.752-0.483-8.571
			c-0.16-1.084-1.425-2.006-2.187-3.001c-0.688,0.773-1.499,1.473-2.037,2.342c-0.814,1.315-1.462,2.737-2.138,4.136
			c-1.103,2.285-1.864,4.46,2.289,4.274c-6.193,8.236-6.114,6.213-9.161,2.641c-0.477,0.313-0.938,0.716-1.473,0.953
			c-1.566,0.694-3.867,2.306-4.603,1.777c-1.612-1.158-3.201-3.313-3.45-5.237c-0.93-7.177,6.549-14.278,14.747-13.877
			c0.469-2.678,0.947-5.407,1.425-8.137c-0.422-0.214-0.845-0.427-1.268-0.641c1.155-0.525,2.264-1.306,3.474-1.527
			c3.108-0.568,4.22,0.77,3.363,3.828c-0.554,1.978-1.175,3.938-1.781,5.96c6.455,1.127,7.29,2.147,7.759,8.826
			C446.533,284.609,446.718,285.574,446.965,287.413z M425.149,290.72c2.246-2.842,4.651-5.579,6.627-8.597
			c0.505-0.771,0.039-2.813-0.699-3.562c-0.604-0.612-2.48-0.582-3.439-0.113C425.005,279.733,422.946,286.623,425.149,290.72z"/>
		<path fill-rule="evenodd" clip-rule="evenodd" d="M58.885,415.786c-0.243-7.53,7.843-17.928,16.407-18.207
			c7.078-0.23,11.617,4.629,10.363,12.183c-1.288,7.762-6.214,11.937-12.417,15.43C67.296,428.537,58.938,423.083,58.885,415.786z
			 M80.667,406.279c-0.892-1.423-1.728-4.383-3.481-5.1c-1.801-0.736-5.066,0.02-6.696,1.346c-4.957,4.033-6.298,9.988-6.44,16.057
			c-0.074,3.185,4.236,5.175,7.342,3.674C77.604,419.254,79.171,413.444,80.667,406.279z"/>
		<path fill-rule="evenodd" clip-rule="evenodd" d="M127.226,19.673c2.927-2.942,6.217-2.286,7.277,1.988
			c0.535,2.156,0.377,4.476,0.795,6.672c0.12,0.631,1.157,1.087,1.775,1.623c1.097-2.444,2.317-4.843,3.236-7.353
			c0.407-1.112-0.233-2.769,0.38-3.609c1.075-1.47,3.048-1.531,3.023,0.683c-0.031,2.854-0.214,6.238-1.726,8.435
			c-3.456,5.02-7.682,9.525-11.776,14.076c-0.865,0.96-2.506,1.223-4.29,1.397C133.719,35.869,131.631,28.161,127.226,19.673z"/>
		<path fill-rule="evenodd" clip-rule="evenodd" d="M653.102,365.557c-6.736,1.819-7.371,2.918-5.341,9.115
			c1.117,0.205,2.305,0.422,3.492,0.64c0.227,0.324,0.452,0.646,0.678,0.971c-1.461,1.168-2.758,2.725-4.416,3.425
			c-3.725,1.574-3.096-2.965-4.319-3.233c-1.463,1.045-2.816,2.343-4.432,3.031c-0.839,0.359-2.138-0.354-3.228-0.584
			c0.614-0.828,1.054-2.06,1.874-2.417c4.261-1.857,5.684-8.108,2.328-10.96c-1.125-0.956-3.005-1.994-1.137-3.341
			c1.03-0.743,4.144-0.602,4.535,0.114c1.998,3.661,3.4,2.159,5.473,0.136C650.599,360.51,651.828,361.384,653.102,365.557z"/>
		<path fill-rule="evenodd" clip-rule="evenodd" fill="#FFFFFF" d="M388.662,289.657c1.497,0.609,2.545,0.759,3.199,1.346
			c5.55,4.981,11.015,10.058,16.536,15.07c1.724,1.564,3.646,2.921,5.301,4.551c6.001,5.911,11.861,11.968,17.909,17.829
			c3.133,3.036,6.797,5.543,9.79,8.697c8.296,8.744,16.345,17.723,24.537,26.566c3.093,3.339,6.346,6.528,9.456,9.851
			c1.997,2.133,4.171,4.196,5.697,6.645c1.225,1.964-0.049,3.33-2.352,3.325c-23.45-0.045-46.899-0.105-70.35-0.17
			c-18.836-0.053-37.674-0.063-56.51-0.198c-9.954-0.072-19.908-0.498-29.862-0.519c-6.464-0.013-12.927,0.563-19.393,0.609
			c-7.094,0.051-14.19-0.231-21.286-0.322c-12.225-0.156-24.451-0.354-36.677-0.394c-24.337-0.077-48.674-0.065-73.011-0.076
			c-20.849-0.009-41.698,0.001-62.547,0.002c-7.051,0-7.249,0-7.303-6.99c-0.142-18.478-0.09-36.958-0.129-55.437
			c-0.007-3.118,0.038-6.245-0.161-9.354c-0.149-2.32,0.57-2.965,2.968-2.922c11.849,0.213,23.702,0.24,35.553,0.261
			c15.608,0.027,31.218-0.007,46.827-0.026c15.733-0.019,31.465-0.039,47.198-0.084c9.959-0.028,19.918-0.189,29.876-0.142
			c22.25,0.104,44.499,0.356,66.749,0.445c17.983,0.072,35.967-0.06,53.949,0.041c2.782,0.016,3.932-1.03,3.961-3.632
			c0.041-3.619,0.053-7.238,0.074-10.858C388.668,292.592,388.662,291.41,388.662,289.657z"/>
		<path fill-rule="evenodd" clip-rule="evenodd" fill="#FFFFFF" d="M371.405,275.337c-7.713,0-14.911,0.01-22.11-0.002
			c-33.743-0.054-67.488-0.122-101.232-0.17c-41.371-0.058-82.741-0.1-124.111-0.15c-6-0.008-11.998-0.034-17.997-0.046
			c-3.102-0.006-4.65-1.044-4.619-4.652c0.148-16.835,0.05-33.673-0.049-50.51c-0.036-5.972-0.428-11.942-0.475-17.915
			c-0.075-9.301-0.075-18.605,0.056-27.906c0.059-4.259,1.706-5.118,5.794-4.175c7.082,1.633,14.241,2.927,21.352,4.44
			c3.972,0.845,7.907,1.863,11.867,2.771c4.33,0.992,8.65,2.038,13.008,2.894c6.033,1.185,12.152,1.978,18.133,3.375
			c6.547,1.529,12.967,3.598,19.464,5.352c9.987,2.696,20.076,5.051,29.964,8.068c7.985,2.436,15.712,5.711,23.604,8.469
			c4.897,1.711,9.99,2.892,14.811,4.778c6.461,2.527,12.783,5.427,19.096,8.315c6.804,3.113,13.563,6.332,20.278,9.631
			c5.572,2.738,11.14,5.508,16.554,8.542c7.141,4.001,14.639,7.618,21.046,12.605c7.146,5.563,14.858,10.064,22.431,14.882
			c4.208,2.677,8.108,5.843,12.085,8.871C370.822,273.16,370.892,274.045,371.405,275.337z M193.685,239.22
			c-0.062-0.31-0.122-0.62-0.184-0.931c-1.714-0.505-3.406-1.259-5.153-1.418c-0.988-0.09-2.065,0.796-3.102,1.243
			c0.636,0.733,1.455,1.376,1.871,2.218c0.949,1.92,2.341,3.943,2.316,5.909c-0.017,1.401-1.862,3.723-3.213,3.986
			c-3.836,0.75-3.182,2.936-2.733,5.41c3.919,0.191,4.683-0.298,7.04-4.58c1.042,2.447,1.493,5.972,5.052,4.661
			c2.451-0.902,4.657-2.826,3.475-6.344c-1.146-0.065-2.216-0.126-3.238-0.185c-2.066-6.326-2.066-6.326,5.86-8.419
			c-0.509-1.384-0.61-3.214-1.563-3.97C196.947,234.292,195.816,238.292,193.685,239.22z"/>
		<path fill-rule="evenodd" clip-rule="evenodd" fill="#FFFFFF" d="M425.149,290.72c-2.203-4.097-0.145-10.986,2.488-12.271
			c0.959-0.469,2.835-0.499,3.439,0.113c0.738,0.748,1.204,2.791,0.699,3.562C429.801,285.141,427.396,287.878,425.149,290.72z"/>
		<path fill-rule="evenodd" clip-rule="evenodd" fill="#FFFFFF" d="M80.667,406.279c-1.496,7.165-3.063,12.975-9.276,15.977
			c-3.105,1.501-7.416-0.489-7.342-3.674c0.142-6.068,1.483-12.023,6.44-16.057c1.63-1.326,4.896-2.082,6.696-1.346
			C78.939,401.896,79.775,404.856,80.667,406.279z"/>
		<path fill-rule="evenodd" clip-rule="evenodd" d="M193.685,239.22c2.131-0.928,3.262-4.928,6.427-2.418
			c0.953,0.756,1.055,2.586,1.563,3.97c-7.927,2.093-7.927,2.093-5.86,8.419c1.022,0.059,2.092,0.119,3.238,0.185
			c1.182,3.518-1.024,5.441-3.475,6.344c-3.559,1.311-4.01-2.214-5.052-4.661c-2.356,4.282-3.12,4.771-7.04,4.58
			c-0.449-2.475-1.103-4.66,2.733-5.41c1.351-0.264,3.196-2.585,3.213-3.986c0.025-1.966-1.367-3.989-2.316-5.909
			c-0.416-0.842-1.235-1.484-1.871-2.218c1.037-0.447,2.114-1.333,3.102-1.243c1.747,0.159,3.438,0.913,5.153,1.418
			C193.563,238.6,193.624,238.91,193.685,239.22z"/>
	</g>
</g>
</svg>
