<?xml version="1.0" encoding="utf-8"?>
<!-- Generator: Adobe Illustrator 16.0.0, SVG Export Plug-In . SVG Version: 6.00 Build 0)  -->
<!DOCTYPE svg PUBLIC "-//W3C//DTD SVG 1.1//EN" "http://www.w3.org/Graphics/SVG/1.1/DTD/svg11.dtd">
<svg version="1.1" id="Layer_1" xmlns="http://www.w3.org/2000/svg" xmlns:xlink="http://www.w3.org/1999/xlink" x="0px" y="0px"
	 width="615.836px" height="482.317px" viewBox="0 0 615.836 482.317" enable-background="new 0 0 615.836 482.317"
	 xml:space="preserve">
<g>
	<g>
		<path fill-rule="evenodd" clip-rule="evenodd" fill="#FFFFFF" d="M0.75,483.067c0-160.772,0-321.545,0-482.317
			c205.279,0,410.558,0,615.836,0c0,160.772,0,321.545,0,482.317C411.308,483.067,206.029,483.067,0.75,483.067z M370.452,342.058
			c0.589-0.01,1.178-0.021,1.767-0.03c1.196-3.074,2.285-6.197,3.614-9.214c2.135-4.845,4.112-9.807,6.788-14.347
			c1.359-2.308,1.385-3.859-0.177-5.62c-2.677-3.019-5.466-5.938-8.202-8.904c-4.158-4.508-8.369-8.97-12.449-13.547
			c-3.428-3.845-6.568-7.951-10.104-11.688c-1.461-1.544-1.264-2.619-0.021-3.737c5.541-4.987,11.34-9.702,16.695-14.878
			c8.858-8.563,17.752-17.126,26.065-26.207c8.573-9.365,16.509-19.317,24.652-29.069c6.274-7.515,12.421-15.134,18.661-22.677
			c4.096-4.951,7.23-10.706,13.178-14.105c1.467-0.839,2.393-4.271,2.027-6.224c-0.394-2.109-2.219-4.693-4.11-5.558
			c-1.708-0.78-5.096-0.281-6.417,1.009c-2.465,2.409-3.862,5.751-1.943,9.526c0.558,1.096,0.974,3.019,0.406,3.806
			c-3.519,4.876-7.256,9.604-11.076,14.252c-4.079,4.966-8.375,9.753-12.496,14.685c-4.711,5.639-9.258,11.416-14.018,17.011
			c-3.577,4.204-7.403,8.195-11.074,12.32c-3.95,4.438-7.805,8.961-11.802,13.355c-1.042,1.145-2.549,1.854-3.688,2.926
			c-2.358,2.218-4.557,4.605-6.923,6.813c-3.354,3.126-7.483,5.685-9.996,9.363c-2.157,3.157-5.436,4.454-7.693,6.934
			c-3.706,4.07-6.714,4.817-10.438-0.652c-0.283,0.417-0.566,0.834-0.85,1.251c0.457,2.231,0.915,4.462,1.484,7.241
			c-5.335,3.161-9.454,9.232-17.146,10.471c0.203-1.46,0.23-2.45,0.487-3.379c2.964-10.738,5.941-21.475,8.962-32.198
			c1.721-6.11,3.636-12.168,5.255-18.305c1.173-4.441,1.828-9.021,3.024-13.454c1.937-7.179,4.2-14.268,6.192-21.432
			c2.428-8.734,4.673-17.521,7.138-26.245c0.231-0.822,1.438-1.925,2.223-1.95c8.521-0.269,16.164-2.975,23.596-7.101
			c8.164-4.533,13.016-11.059,13.136-20.284c0.291-22.33,0.153-44.667,0.158-67.001c0.002-9.106-0.028-18.212-0.133-27.317
			c-0.069-6.056,0.165-12.001-2.273-17.962c-2.163-5.288-6.471-7.939-10.421-11.015c-3.312-2.578-7.211-5.136-11.206-5.944
			c-7.144-1.444-14.546-1.968-21.858-2.147c-13.484-0.332-26.981-0.147-40.474-0.154c-28.112-0.013-56.225,0.073-84.337-0.048
			c-13.845-0.06-27.693-0.53-41.393,2.066c-1.785,0.338-3.727,0.614-5.231,1.523c-4.581,2.77-9.243,5.521-13.35,8.913
			c-2.25,1.858-4.389,4.813-4.923,7.593c-1.233,6.4-1.916,12.989-1.995,19.511c-0.195,16.083,0.078,32.173,0.158,48.26
			c0.067,13.205,0.261,26.411,0.145,39.614c-0.078,8.83,2.629,16.274,9.812,21.632c2.09,1.559,5.295,1.841,7.012,3.641
			c4.029,4.225,9.339,5.098,14.337,5.326c14.952,0.68,29.94,0.696,44.914,0.712c19.219,0.022,38.439-0.243,57.659-0.233
			c1.093,0,2.953,1.198,3.157,2.124c1.928,8.753,3.625,17.558,5.285,26.368c1.218,6.465,2.125,12.991,3.444,19.434
			c3.234,15.796,6.668,31.552,9.937,47.341c1.388,6.703,2.333,13.503,3.899,20.159c1.613,6.853,0.475,9.218-6.245,11.804
			c-4.132,1.591-8.363,3.148-12.105,5.446c-2.489,1.528-3.527,0.885-4.715-1.066c-1.221-2.006-2.378-4.051-3.792-6.47
			c-2.076,2.743-1.111,4.525,0.062,6.378c1.183,1.868,1.721,3.943-0.986,4.84c-5.86,1.941-11.717,4.034-17.735,5.323
			c-9.317,1.994-18.737,3.57-28.168,4.945c-8.453,1.231-16.96,2.237-25.479,2.814c-8.08,0.548-16.205,0.48-24.311,0.555
			c-9.094,0.082-18.188,0.019-27.064,0.019c-3.084-7.904-4.442-8.941-9.978-8.203c-3.724,0.498-4.91,3.297-5.297,6.317
			c-0.388,3.03,0.689,5.979,4.004,6.694c2.637,0.568,5.48,0.274,8.228,0.214c22.17-0.48,44.395,0.879,66.501-1.785
			c10.236-1.234,20.457-2.606,30.668-4.034c3.535-0.493,7.105-1.06,10.51-2.087c7.473-2.256,14.852-4.826,22.113-7.217
			c1.539,2.269,2.98,3.96,3.946,5.89c5.268,10.511,10.348,21.115,15.695,31.585c0.68,1.331,2.398,2.572,3.878,2.982
			c7.662,2.125,15.395,4.008,23.128,5.863c1.254,0.301,2.643,0.042,3.866,0.042c-1.299-1.653-2.357-2.858-3.243-4.18
			c-0.609-0.911-0.979-1.983-1.457-2.984c1.023-0.279,2.07-0.49,3.065-0.851c5.169-1.871,10.662-3.186,15.384-5.856
			c4.017-2.273,7.142-6.125,10.871-9.466C369.421,335.672,369.937,338.865,370.452,342.058z M84.228,401.915
			c146.997,0,293.038,0,439.078,0c0.347,0.61,0.693,1.22,1.04,1.829c-1.265,0.757-2.723,1.321-3.739,2.329
			c-0.94,0.931-1.407,2.338-2.083,3.535c0.231,0.274,0.462,0.55,0.692,0.825c8.805-3.154,17.61-6.309,26.416-9.463
			c-0.021-0.371-0.041-0.743-0.062-1.114c-9.156-2.597-17.849-6.799-28.348-8.395c2.271,2.743,3.757,4.537,5.242,6.331
			c-0.169,0.319-0.338,0.639-0.506,0.957c-6.67,0-13.34,0.013-20.009-0.002c-17.215-0.037-34.429-0.073-51.644-0.134
			c-27.86-0.099-55.721-0.265-83.581-0.313c-39.615-0.069-79.231-0.05-118.846-0.083c-53.117-0.046-106.233-0.137-159.349-0.082
			c-3.136,0.003-4.116-0.837-4.093-3.915c0.07-9.239-0.165-18.479-0.173-27.719c-0.022-27.849,0.04-55.697,0.006-83.546
			c-0.06-49.835-0.167-99.671-0.25-149.507c-0.012-6.785-0.002-13.569-0.002-20.7c6.242,4.577,6.602,4.774,8.225,4.433
			c-3.231-8.948-6.451-17.862-9.67-26.776c-0.341-0.037-0.682-0.073-1.023-0.109c-3.905,8.662-5.844,17.995-8.765,26.992
			c0.312,0.29,0.624,0.58,0.935,0.869c2.002-1.836,4.003-3.673,6.46-5.927c0.175,1.36,0.288,1.837,0.291,2.315
			c0.129,17.575,0.284,35.151,0.357,52.727c0.065,15.475,0.034,30.949,0.054,46.424c0.027,21.718,0.054,43.437,0.097,65.154
			c0.043,21.964,0.059,43.928,0.174,65.891c0.084,16.088,0.366,32.175,0.44,48.262c0.022,4.716-0.575,5.093-5.215,5.091
			c-22.87-0.01-45.739-0.011-68.609,0.004c-1.175,0-2.351,0.17-3.527,0.261c-0.109,0.419-0.219,0.837-0.329,1.255
			c1.246,0.518,2.479,1.443,3.739,1.48c4.992,0.146,9.991-0.018,14.988-0.01c18.235,0.027,36.47,0.188,54.703,0.02
			c3.536-0.033,4.345,1.376,4.348,4.346c0.007,10.356,0.082,20.713,0.103,31.069c0.018,8.721-0.046,17.442,0.032,26.162
			c0.014,1.513,0.555,3.021,0.852,4.531c0.516-0.069,1.032-0.138,1.549-0.208C84.228,445.288,84.228,423.571,84.228,401.915z
			 M70.06,421.406c-0.032-6.632-5.13-11.433-10.646-9.376c-6.901,2.574-12.101,7.27-13.535,14.943
			c-1.287,6.886,4.902,12.542,11.705,10.904C64.984,436.097,70.098,429.345,70.06,421.406z M493.503,141.661
			c4.096,3.99,11.541,2.955,14.38-1.831c0.568-0.958,0.925-2.113,1.681-2.878c4.449-4.503,5.647-10.142,4.887-16.018
			c-0.424-3.276-2.354-6.357-3.604-9.526c-0.552,0.2-1.104,0.4-1.656,0.6c0.481,1.913,1.188,3.801,1.404,5.743
			c0.745,6.66-1.881,12.633-4.147,18.646c-1.215,3.223-3.485,4.069-6.658,2.481c0.089-0.43,0.042-0.908,0.256-1.117
			c0.774-0.75,1.655-1.389,2.46-2.109c1.932-1.732,2.69-6.116,1.307-7.434c-1.67-1.593-6.094-1.035-8.105,1.338
			c1.762,0.181,3.269,0.335,4.738,0.486C500.666,132.577,500.666,132.577,493.503,141.661z M190.807,292.917
			c-0.389-0.217-0.777-0.435-1.166-0.652c0-0.602-0.123-1.232,0.02-1.798c0.875-3.469,1.908-6.901,2.658-10.396
			c0.195-0.906-0.19-2.183-0.775-2.918c-0.358-0.451-1.895-0.557-2.378-0.167c-0.602,0.486-0.763,1.621-0.94,2.512
			c-0.311,1.562-0.317,3.2-0.76,4.716c-0.827,2.83-1.875,5.596-2.992,8.859c3.551-0.638,5.921,3.11,9.842-0.217
			c8.296-7.04,12.328-19.835,5.879-29.213c-0.441,5.006-0.4,10.344-1.501,15.436C197.542,284.405,194.319,288.86,190.807,292.917z
			 M168.208,271.809c0.606,4.183,1.291,8.25,1.763,12.343c0.511,4.431-0.599,5.868-4.851,7.436c-0.882,0.325-1.761,1.319-2.096,2.21
			c-0.186,0.496,0.629,1.871,1.215,2.03c0.764,0.207,1.944-0.157,2.608-0.694c6.263-5.056,10.989-11.442,15.204-18.204
			c0.673-1.08,0.681-2.824,0.401-4.135c-0.123-0.578-1.767-1.207-2.653-1.122c-0.625,0.061-1.759,1.705-1.608,1.93
			c2.89,4.289-2.03,5.418-2.835,8.158C172.339,270.708,172.339,270.708,168.208,271.809z M106.513,91.639
			c1.923-0.383,2.501-0.322,2.794-0.582c5.818-5.166,10.874-10.999,14.714-17.776c0.699-1.234,0.401-3.034,0.563-4.572
			c-1.58-0.161-3.16-0.323-4.876-0.498c0.824,6.433,0.391,7.733-3.204,9.927c-0.28-1.933-0.633-3.726-0.785-5.537
			c-0.385-4.58-3.203-5.936-7.341-3.488C113.487,76.561,113.447,83.903,106.513,91.639z M478.276,121.614
			c0.902,2.313,1.922,4.268,2.406,6.349c0.505,2.163,0.521,4.443,0.699,6.677c0.29,3.637-1.311,5.471-5.015,6.386
			c-0.895,0.221-1.537,1.463-2.295,2.235c1.015,0.365,2.02,0.975,3.045,1.009c0.71,0.024,1.602-0.603,2.143-1.188
			c1.965-2.125,3.846-4.332,5.704-6.554c2.56-3.059,5.286-6.015,7.49-9.315c0.831-1.245,0.56-3.341,0.446-5.025
			c-0.029-0.431-1.604-1.256-2.056-1.04c-0.656,0.313-1.514,1.763-1.295,2.119c3.17,5.163-2.644,5.241-3.965,8.864
			c-1.025-4.827-1.795-8.454-2.642-12.438c-1.666,0.765-2.419,1.156-3.207,1.459C478.988,121.438,478.206,121.636,478.276,121.614z
			 M439.793,122.568c-4.648-3.549-4.707-3.555-6.195-1.136c1.14,2.967,3.194,5.628,2.671,7.607
			c-0.711,2.688-2.396,6.052-6.872,5.389c1.061,3.221,3.258,2.746,4.729,1.68c1.96-1.421,3.195-2.833,5.216,0.03
			c0.511,0.723,3.103,0.4,4.505-0.099c0.779-0.277,1.075-1.91,1.59-2.931c-1.005,0-2.011,0-3.52,0c0-2.681,0-5.423,0-8.326
			c1.472-0.093,2.457-0.078,3.415-0.231c2.368-0.38,2.8-3.624,0.506-4.036C444.208,120.224,442.271,121.656,439.793,122.568z
			 M587.157,391.23c-1.634-5.716-1.165-7.196,2.425-8.809c0.893-0.401,1.781-1.053,2.345-1.826c0.225-0.311-0.439-1.83-0.695-1.83
			c-1.303,0.004-2.709,0.089-3.875,0.606c-1.012,0.449-1.751,1.513-2.683,2.372c-2.01-3.719-3.166-4.033-7.425-2.238
			c0.171,0.437,0.223,1.002,0.531,1.3c5.682,5.485,5.423,7.921-1.164,11.933c-0.589,0.358-0.708,1.488-1.045,2.26
			c0.896,0.146,1.999,0.693,2.65,0.359c1.568-0.804,2.927-2.02,4.387-3.082c2.922,4.799,5.147,4.559,8.026-0.635
			C589.48,391.505,588.399,391.377,587.157,391.23z M125.686,284.987c2.158,1.021,3.828,2.27,5.629,2.501
			c1.208,0.155,2.602-1.131,3.913-1.771c-0.441-0.444-0.881-0.888-1.322-1.332c-1.038-0.221-2.074-0.442-3.03-0.646
			c-0.428-3.845-1.875-7.871,3.893-8.71c0.451-0.066,0.662-1.792,0.984-2.746c-0.999-0.245-2.146-0.92-2.96-0.637
			c-1.312,0.457-2.403,1.546-3.707,2.45c-0.737-0.789-1.23-1.793-1.918-1.951c-1.34-0.308-2.789-0.141-4.192-0.171
			c0.468,0.906,1.217,1.772,1.348,2.725c0.321,2.349,0.647,4.765,0.427,7.102c-0.216,2.302-2.103,2.755-4.217,2.598
			c-0.732-0.055-1.505,0.425-2.32,0.68C120.263,289.068,121.894,288.905,125.686,284.987z M123.847,263.47
			c-13.344,6.868-17.833,23.597-8.258,31.939C112.809,282.85,115.606,272.405,123.847,263.47z M434.998,111.974
			c-5.213,2.139-8.826,5.837-11.057,10.528c-3.279,6.896-3.967,14.908,2.178,22.235
			C423.526,131.699,426.528,121.124,434.998,111.974z M454.217,138.617c-0.477-0.335-0.954-0.671-1.432-1.007
			c1.782-1.262,4.308-2.169,5.13-3.89c0.764-1.601,0.447-4.752-0.71-5.996c-1.806-1.941-5.648-0.665-7.183,1.862
			c1.66,0.105,3.203,0.202,4.853,0.306c0.874,5.927-5.864,7.396-6.722,12.566c2.63,0,5.25,0,9.24,0
			C455.904,140.657,455.061,139.637,454.217,138.617z M139.137,293.582c1.747-0.747,3.87-1.025,4.132-1.877
			c1.131-3.674,1.73-7.514,2.499-11.298c0.688-3.388-0.117-4.036-2.91-3.123C141.667,282.501,140.555,287.371,139.137,293.582z
			 M458.541,143.049c2.96-2.223,5.554-3.635,4.806-7.086c-0.152-0.701-1.1-1.521-1.832-1.716c-0.65-0.173-2.116,0.343-2.183,0.731
			C458.928,137.358,458.82,139.788,458.541,143.049z M148.056,293.113c1.382-1.012,3.025-1.592,3.406-2.634
			c0.628-1.717,0.471-3.731,0.509-5.624c0.002-0.094-1.393-0.475-1.936-0.246c-0.519,0.22-0.994,1.023-1.104,1.639
			C148.583,288.182,148.416,290.146,148.056,293.113z"/>
		<path fill-rule="evenodd" clip-rule="evenodd" d="M370.452,342.058c-0.516-3.192-1.031-6.386-1.604-9.932
			c-3.729,3.341-6.854,7.192-10.871,9.466c-4.722,2.671-10.215,3.985-15.384,5.856c-0.995,0.36-2.042,0.571-3.065,0.851
			c0.478,1.001,0.848,2.073,1.457,2.984c0.886,1.321,1.944,2.526,3.243,4.18c-1.224,0-2.612,0.259-3.866-0.042
			c-7.733-1.855-15.466-3.738-23.128-5.863c-1.479-0.41-3.198-1.651-3.878-2.982c-5.347-10.47-10.427-21.074-15.695-31.585
			c-0.966-1.93-2.407-3.621-3.946-5.89c-7.261,2.391-14.64,4.961-22.113,7.217c-3.405,1.027-6.976,1.594-10.51,2.087
			c-10.211,1.428-20.432,2.8-30.668,4.034c-22.107,2.664-44.331,1.305-66.501,1.785c-2.748,0.061-5.591,0.354-8.228-0.214
			c-3.315-0.716-4.393-3.664-4.004-6.694c0.387-3.021,1.573-5.819,5.297-6.317c5.536-0.738,6.894,0.299,9.978,8.203
			c8.876,0,17.97,0.063,27.064-0.019c8.106-0.074,16.231-0.007,24.311-0.555c8.519-0.577,17.027-1.583,25.479-2.814
			c9.431-1.375,18.852-2.951,28.168-4.945c6.018-1.289,11.875-3.382,17.735-5.323c2.707-0.896,2.169-2.972,0.986-4.84
			c-1.173-1.853-2.138-3.635-0.062-6.378c1.414,2.419,2.571,4.464,3.792,6.47c1.188,1.951,2.226,2.595,4.715,1.066
			c3.742-2.298,7.973-3.855,12.105-5.446c6.72-2.586,7.858-4.951,6.245-11.804c-1.566-6.656-2.512-13.456-3.899-20.159
			c-3.269-15.789-6.703-31.545-9.937-47.341c-1.319-6.443-2.226-12.969-3.444-19.434c-1.66-8.81-3.357-17.615-5.285-26.368
			c-0.205-0.926-2.064-2.123-3.157-2.124c-19.22-0.01-38.44,0.255-57.659,0.233c-14.974-0.017-29.962-0.032-44.914-0.712
			c-4.998-0.228-10.308-1.101-14.337-5.326c-1.716-1.8-4.922-2.082-7.012-3.641c-7.183-5.358-9.89-12.802-9.812-21.632
			c0.116-13.204-0.078-26.41-0.145-39.614c-0.081-16.087-0.353-32.177-0.158-48.26c0.079-6.522,0.762-13.111,1.995-19.511
			c0.535-2.779,2.674-5.734,4.923-7.593c4.106-3.392,8.769-6.143,13.35-8.913c1.504-0.909,3.446-1.185,5.231-1.523
			c13.7-2.596,27.547-2.125,41.393-2.066c28.112,0.121,56.225,0.035,84.337,0.048c13.492,0.006,26.989-0.178,40.474,0.154
			c7.313,0.179,14.715,0.704,21.858,2.147c3.995,0.808,7.895,3.366,11.206,5.944c3.95,3.075,8.258,5.727,10.421,11.015
			c2.438,5.961,2.204,11.906,2.273,17.962c0.104,9.105,0.135,18.211,0.133,27.317c-0.005,22.334,0.133,44.671-0.158,67.001
			c-0.12,9.226-4.972,15.751-13.136,20.284c-7.432,4.126-15.075,6.833-23.596,7.101c-0.784,0.025-1.991,1.127-2.223,1.95
			c-2.465,8.724-4.71,17.51-7.138,26.245c-1.992,7.164-4.256,14.253-6.192,21.432c-1.196,4.434-1.852,9.013-3.024,13.454
			c-1.619,6.136-3.534,12.194-5.255,18.305c-3.021,10.724-5.998,21.46-8.962,32.198c-0.257,0.929-0.284,1.919-0.487,3.379
			c7.692-1.238,11.812-7.31,17.146-10.471c-0.569-2.779-1.027-5.01-1.484-7.241c0.283-0.417,0.566-0.834,0.85-1.251
			c3.725,5.47,6.732,4.723,10.438,0.652c2.258-2.479,5.536-3.776,7.693-6.934c2.513-3.679,6.643-6.237,9.996-9.363
			c2.366-2.207,4.564-4.595,6.923-6.813c1.14-1.072,2.646-1.781,3.688-2.926c3.997-4.394,7.852-8.918,11.802-13.355
			c3.671-4.125,7.497-8.116,11.074-12.32c4.76-5.596,9.307-11.373,14.018-17.011c4.121-4.932,8.417-9.719,12.496-14.685
			c3.82-4.648,7.558-9.375,11.076-14.252c0.567-0.788,0.151-2.71-0.406-3.806c-1.919-3.775-0.521-7.117,1.943-9.526
			c1.321-1.291,4.709-1.79,6.417-1.009c1.892,0.865,3.717,3.449,4.11,5.558c0.365,1.952-0.561,5.385-2.027,6.224
			c-5.947,3.399-9.082,9.154-13.178,14.105c-6.24,7.542-12.387,15.162-18.661,22.677c-8.144,9.752-16.079,19.705-24.652,29.069
			c-8.313,9.081-17.207,17.644-26.065,26.207c-5.355,5.176-11.154,9.891-16.695,14.878c-1.243,1.118-1.44,2.193,0.021,3.737
			c3.536,3.736,6.677,7.843,10.104,11.688c4.08,4.577,8.291,9.039,12.449,13.547c2.736,2.967,5.525,5.886,8.202,8.904
			c1.562,1.761,1.536,3.313,0.177,5.62c-2.676,4.54-4.653,9.502-6.788,14.347c-1.329,3.017-2.418,6.14-3.614,9.214
			C371.63,342.037,371.041,342.048,370.452,342.058z M321.601,282.061c0.31-0.05,0.618-0.101,0.927-0.15
			c0.601-2.147,1.254-4.282,1.792-6.445c1.707-6.849,3.252-13.741,5.078-20.558c2.856-10.655,5.955-21.246,8.83-31.896
			c1.979-7.327,3.728-14.716,5.625-22.065c1.863-7.214,3.738-14.426,5.699-21.614c0.977-3.579,1.889-7.221,3.381-10.591
			c0.578-1.308,2.56-2.418,4.103-2.79c3.456-0.833,7.228-0.615,10.527-1.79c6.063-2.16,12.781-2.938,17.495-8.28
			c3.895-4.414,6.803-9.054,6.792-15.122c-0.018-10.233-0.027-20.467-0.049-30.701c-0.052-23.213,0.084-46.43-0.348-69.637
			c-0.073-3.939-2.234-8.014-4.074-11.706c-2.691-5.403-8.242-7.421-13.3-9.894c-7.539-3.686-15.873-3.837-23.857-4.168
			c-16.964-0.704-33.978-0.237-50.97-0.279c-20.989-0.052-41.98-0.284-62.968-0.148c-14.427,0.093-28.854,0.582-43.273,1.085
			c-7.873,0.274-15.143,2.935-21.593,7.318c-5.978,4.061-9.567,10.031-9.988,17.277c-0.332,5.695,0.456,11.445,0.467,17.171
			c0.055,27.595-0.022,55.189,0.036,82.784c0.015,6.807,3.374,11.842,8.224,16.572c3.137,3.059,6.747,4.314,10.446,5.618
			c4.459,1.571,9.136,3.501,13.736,3.546c32.622,0.32,65.248,0.201,97.872,0.211c5.167,0.002,6.734,1.377,7.427,6.649
			c0.489,3.714,0.774,7.466,1.489,11.136c2.521,12.948,5.12,25.882,7.822,38.793c1.935,9.239,4.201,18.41,6.1,27.656
			c1.902,9.267,3.513,18.593,5.303,27.882C320.623,279.333,321.178,280.685,321.601,282.061z M364.563,329.457
			c-1.063,0.349-1.945,0.861-2.835,0.874c-1.121,0.016-2.247-0.377-3.372-0.594c0.65-0.835,1.131-1.946,1.976-2.46
			c5.445-3.318,10.929-6.583,16.492-9.698c2.093-1.171,2.414-2.191,0.731-3.963c-2.544-2.679-4.999-5.444-7.443-8.216
			c-5.687-6.449-11.337-12.931-17.02-19.384c-1.18-1.34-2.813-2.428-3.572-3.961c-1.366-2.76-3.18-3.016-5.387-1.5
			c-1.648,1.132-2.862,2.911-4.534,3.994c-4.893,3.168-9.824,6.299-14.912,9.137c-7.472,4.169-14.974,8.32-22.705,11.964
			c-3.076,1.448-3.217,2.636-1.861,5.302c5.385,10.586,10.857,21.139,15.783,31.938c1.674,3.672,3.623,3.351,6.388,2.313
			c2.205-0.827,4.423-1.63,6.58-2.571c3.579-1.563,7.068-3.344,10.695-4.783c1.115-0.443,2.555-0.074,3.846-0.077
			c-0.444,1.016-0.833,2.062-1.349,3.04c-0.531,1.009-1.188,1.954-1.96,3.202C351.021,342.854,363.505,335.471,364.563,329.457z"/>
		<path fill-rule="evenodd" clip-rule="evenodd" d="M84.228,401.915c0,21.656,0,43.373,0,65.09c-0.517,0.07-1.033,0.139-1.549,0.208
			c-0.297-1.511-0.838-3.019-0.852-4.531c-0.078-8.72-0.014-17.441-0.032-26.162c-0.021-10.356-0.095-20.713-0.103-31.069
			c-0.002-2.97-0.812-4.379-4.348-4.346c-18.233,0.169-36.468,0.008-54.703-0.02c-4.997-0.008-9.997,0.155-14.988,0.01
			c-1.259-0.037-2.493-0.963-3.739-1.48c0.109-0.418,0.219-0.836,0.329-1.255c1.176-0.091,2.352-0.261,3.527-0.261
			c22.87-0.015,45.74-0.014,68.609-0.004c4.64,0.002,5.237-0.375,5.215-5.091c-0.075-16.087-0.356-32.174-0.44-48.262
			c-0.115-21.963-0.131-43.927-0.174-65.891c-0.043-21.718-0.07-43.437-0.097-65.154c-0.02-15.475,0.012-30.949-0.054-46.424
			c-0.073-17.576-0.228-35.152-0.357-52.727c-0.003-0.479-0.116-0.956-0.291-2.315c-2.457,2.254-4.458,4.091-6.46,5.927
			c-0.312-0.289-0.623-0.579-0.935-0.869c2.921-8.998,4.86-18.33,8.765-26.992c0.341,0.036,0.682,0.073,1.023,0.109
			c3.219,8.914,6.438,17.828,9.67,26.776c-1.623,0.341-1.982,0.144-8.225-4.433c0,7.131-0.01,13.915,0.002,20.7
			c0.083,49.835,0.191,99.671,0.25,149.507c0.034,27.849-0.029,55.697-0.006,83.546c0.008,9.239,0.243,18.479,0.173,27.719
			c-0.023,3.078,0.957,3.918,4.093,3.915c53.116-0.055,106.232,0.036,159.349,0.082c39.615,0.033,79.231,0.014,118.846,0.083
			c27.86,0.049,55.721,0.215,83.581,0.313c17.215,0.061,34.429,0.097,51.644,0.134c6.669,0.015,13.339,0.002,20.009,0.002
			c0.168-0.318,0.337-0.638,0.506-0.957c-1.485-1.794-2.971-3.588-5.242-6.331c10.499,1.596,19.191,5.798,28.348,8.395
			c0.021,0.371,0.041,0.743,0.062,1.114c-8.806,3.154-17.611,6.309-26.416,9.463c-0.23-0.275-0.461-0.551-0.692-0.825
			c0.676-1.197,1.143-2.604,2.083-3.535c1.017-1.008,2.475-1.572,3.739-2.329c-0.347-0.609-0.693-1.219-1.04-1.829
			C377.266,401.915,231.224,401.915,84.228,401.915z"/>
		<path fill-rule="evenodd" clip-rule="evenodd" d="M70.06,421.406c0.038,7.938-5.075,14.69-12.476,16.472
			c-6.803,1.638-12.991-4.019-11.705-10.904c1.434-7.674,6.633-12.369,13.535-14.943C64.929,409.974,70.028,414.774,70.06,421.406z
			 M50.49,429.127c0.618,1.775,0.806,4.63,1.95,5.086c1.964,0.782,4.887,0.778,6.755-0.174c3.274-1.67,7.823-9.977,6.698-14.965
			c-0.781-3.466-3.807-4.916-7.008-3.538C52.894,418.113,50.932,422.917,50.49,429.127z"/>
		<path fill-rule="evenodd" clip-rule="evenodd" d="M493.503,141.661c7.163-9.084,7.163-9.084,6.94-11.618
			c-1.47-0.151-2.977-0.306-4.738-0.486c2.012-2.374,6.436-2.931,8.105-1.338c1.384,1.318,0.625,5.702-1.307,7.434
			c-0.805,0.721-1.686,1.359-2.46,2.109c-0.214,0.209-0.167,0.687-0.256,1.117c3.173,1.587,5.443,0.742,6.658-2.481
			c2.267-6.012,4.893-11.985,4.147-18.646c-0.217-1.942-0.923-3.83-1.404-5.743c0.552-0.2,1.104-0.4,1.656-0.6
			c1.251,3.169,3.181,6.25,3.604,9.526c0.761,5.876-0.438,11.515-4.887,16.018c-0.756,0.765-1.112,1.92-1.681,2.878
			C505.044,144.616,497.599,145.651,493.503,141.661z"/>
		<path fill-rule="evenodd" clip-rule="evenodd" d="M190.807,292.917c3.512-4.057,6.735-8.512,7.888-13.839
			c1.101-5.092,1.06-10.43,1.501-15.436c6.448,9.378,2.417,22.173-5.879,29.213c-3.921,3.327-6.292-0.421-9.842,0.217
			c1.117-3.264,2.165-6.029,2.992-8.859c0.442-1.516,0.449-3.154,0.76-4.716c0.177-0.891,0.338-2.025,0.94-2.512
			c0.483-0.39,2.02-0.284,2.378,0.167c0.585,0.735,0.97,2.012,0.775,2.918c-0.75,3.495-1.783,6.928-2.658,10.396
			c-0.143,0.565-0.02,1.196-0.02,1.798C190.029,292.482,190.417,292.7,190.807,292.917z"/>
		<path fill-rule="evenodd" clip-rule="evenodd" d="M168.208,271.809c4.132-1.101,4.132-1.101,7.147,9.951
			c0.805-2.74,5.725-3.869,2.835-8.158c-0.151-0.225,0.983-1.869,1.608-1.93c0.886-0.085,2.53,0.544,2.653,1.122
			c0.28,1.311,0.272,3.055-0.401,4.135c-4.214,6.762-8.94,13.148-15.204,18.204c-0.664,0.537-1.844,0.901-2.608,0.694
			c-0.586-0.159-1.401-1.534-1.215-2.03c0.335-0.891,1.214-1.885,2.096-2.21c4.252-1.567,5.362-3.005,4.851-7.436
			C169.498,280.059,168.814,275.991,168.208,271.809z"/>
		<path fill-rule="evenodd" clip-rule="evenodd" d="M106.513,91.639c6.935-7.735,6.974-15.078,1.864-22.527
			c4.139-2.447,6.956-1.091,7.341,3.488c0.152,1.811,0.505,3.604,0.785,5.537c3.595-2.194,4.027-3.494,3.204-9.927
			c1.716,0.175,3.296,0.337,4.876,0.498c-0.162,1.538,0.136,3.338-0.563,4.572c-3.84,6.777-8.896,12.61-14.714,17.776
			C109.014,91.316,108.436,91.256,106.513,91.639z"/>
		<path fill-rule="evenodd" clip-rule="evenodd" d="M478.276,121.614c-0.07,0.022,0.712-0.175,1.46-0.464
			c0.788-0.303,1.541-0.694,3.207-1.459c0.847,3.984,1.616,7.611,2.642,12.438c1.321-3.624,7.135-3.701,3.965-8.864
			c-0.219-0.356,0.639-1.806,1.295-2.119c0.452-0.216,2.026,0.609,2.056,1.04c0.113,1.684,0.385,3.78-0.446,5.025
			c-2.204,3.301-4.931,6.256-7.49,9.315c-1.858,2.222-3.739,4.428-5.704,6.554c-0.541,0.585-1.433,1.212-2.143,1.188
			c-1.025-0.034-2.03-0.644-3.045-1.009c0.758-0.772,1.4-2.014,2.295-2.235c3.704-0.915,5.305-2.749,5.015-6.386
			c-0.178-2.233-0.194-4.514-0.699-6.677C480.198,125.882,479.179,123.926,478.276,121.614z"/>
		<path fill-rule="evenodd" clip-rule="evenodd" d="M439.793,122.568c2.478-0.912,4.415-2.344,6.044-2.052
			c2.294,0.412,1.862,3.656-0.506,4.036c-0.958,0.153-1.943,0.139-3.415,0.231c0,2.903,0,5.645,0,8.326c1.509,0,2.515,0,3.52,0
			c-0.515,1.021-0.811,2.654-1.59,2.931c-1.402,0.499-3.994,0.822-4.505,0.099c-2.021-2.862-3.256-1.451-5.216-0.03
			c-1.471,1.066-3.668,1.541-4.729-1.68c4.476,0.663,6.161-2.702,6.872-5.389c0.523-1.979-1.531-4.641-2.671-7.607
			C435.086,119.013,435.145,119.019,439.793,122.568z"/>
		<path fill-rule="evenodd" clip-rule="evenodd" d="M587.157,391.23c1.242,0.146,2.323,0.274,3.478,0.41
			c-2.879,5.193-5.104,5.434-8.026,0.635c-1.46,1.063-2.818,2.278-4.387,3.082c-0.651,0.334-1.754-0.213-2.65-0.359
			c0.337-0.771,0.456-1.901,1.045-2.26c6.587-4.012,6.846-6.447,1.164-11.933c-0.309-0.298-0.36-0.863-0.531-1.3
			c4.259-1.795,5.415-1.48,7.425,2.238c0.932-0.859,1.671-1.923,2.683-2.372c1.166-0.518,2.572-0.603,3.875-0.606
			c0.256,0,0.92,1.52,0.695,1.83c-0.563,0.773-1.452,1.425-2.345,1.826C585.992,384.034,585.523,385.515,587.157,391.23z"/>
		<path fill-rule="evenodd" clip-rule="evenodd" d="M125.686,284.987c-3.792,3.918-5.423,4.081-7.474,0.091
			c0.815-0.255,1.588-0.734,2.32-0.68c2.114,0.157,4-0.296,4.217-2.598c0.22-2.337-0.106-4.753-0.427-7.102
			c-0.13-0.952-0.88-1.818-1.348-2.725c1.403,0.03,2.852-0.137,4.192,0.171c0.688,0.158,1.181,1.162,1.918,1.951
			c1.304-0.904,2.396-1.993,3.707-2.45c0.814-0.283,1.962,0.392,2.96,0.637c-0.322,0.954-0.533,2.68-0.984,2.746
			c-5.768,0.839-4.32,4.865-3.893,8.71c0.956,0.203,1.992,0.425,3.03,0.646c0.441,0.444,0.881,0.888,1.322,1.332
			c-1.311,0.641-2.705,1.927-3.913,1.771C129.513,287.257,127.843,286.008,125.686,284.987z"/>
		<path fill-rule="evenodd" clip-rule="evenodd" d="M123.847,263.47c-8.241,8.936-11.039,19.38-8.258,31.939
			C106.015,287.066,110.503,270.338,123.847,263.47z"/>
		<path fill-rule="evenodd" clip-rule="evenodd" d="M434.998,111.974c-8.47,9.15-11.472,19.726-8.879,32.763
			c-6.145-7.327-5.457-15.338-2.178-22.235C426.172,117.811,429.785,114.113,434.998,111.974z"/>
		<path fill-rule="evenodd" clip-rule="evenodd" d="M454.217,138.617c0.844,1.02,1.688,2.04,3.177,3.841c-3.99,0-6.61,0-9.24,0
			c0.857-5.169,7.596-6.639,6.722-12.566c-1.649-0.104-3.192-0.201-4.853-0.306c1.534-2.526,5.377-3.803,7.183-1.862
			c1.157,1.244,1.474,4.395,0.71,5.996c-0.822,1.721-3.348,2.628-5.13,3.89C453.263,137.946,453.74,138.282,454.217,138.617z"/>
		<path fill-rule="evenodd" clip-rule="evenodd" d="M139.137,293.582c1.418-6.211,2.53-11.081,3.721-16.298
			c2.792-0.913,3.597-0.265,2.91,3.123c-0.769,3.784-1.368,7.624-2.499,11.298C143.007,292.557,140.884,292.835,139.137,293.582z"/>
		<path fill-rule="evenodd" clip-rule="evenodd" d="M458.541,143.049c0.279-3.261,0.387-5.691,0.791-8.071
			c0.066-0.389,1.532-0.904,2.183-0.731c0.732,0.195,1.68,1.016,1.832,1.716C464.095,139.415,461.501,140.826,458.541,143.049z"/>
		<path fill-rule="evenodd" clip-rule="evenodd" d="M148.056,293.113c0.36-2.967,0.527-4.932,0.875-6.865
			c0.11-0.615,0.586-1.419,1.104-1.639c0.543-0.229,1.938,0.152,1.936,0.246c-0.038,1.893,0.119,3.907-0.509,5.624
			C151.082,291.521,149.438,292.102,148.056,293.113z"/>
		<path fill-rule="evenodd" clip-rule="evenodd" fill="#FFFFFF" d="M321.601,282.061c-0.423-1.376-0.978-2.728-1.249-4.133
			c-1.79-9.289-3.4-18.615-5.303-27.882c-1.898-9.246-4.165-18.417-6.1-27.656c-2.702-12.912-5.301-25.845-7.822-38.793
			c-0.715-3.67-1-7.422-1.489-11.136c-0.693-5.272-2.26-6.647-7.427-6.649c-32.624-0.01-65.25,0.108-97.872-0.211
			c-4.6-0.045-9.276-1.975-13.736-3.546c-3.699-1.304-7.31-2.559-10.446-5.618c-4.85-4.73-8.209-9.765-8.224-16.572
			c-0.058-27.595,0.019-55.189-0.036-82.784c-0.011-5.726-0.799-11.476-0.467-17.171c0.421-7.246,4.01-13.216,9.988-17.277
			c6.45-4.383,13.72-7.043,21.593-7.318c14.419-0.504,28.846-0.993,43.273-1.085c20.988-0.136,41.979,0.097,62.968,0.148
			c16.992,0.042,34.006-0.424,50.97,0.279c7.984,0.331,16.318,0.482,23.857,4.168c5.058,2.472,10.608,4.49,13.3,9.894
			c1.84,3.692,4.001,7.766,4.074,11.706c0.432,23.207,0.296,46.424,0.348,69.637c0.021,10.234,0.031,20.467,0.049,30.701
			c0.011,6.067-2.897,10.708-6.792,15.122c-4.714,5.342-11.432,6.12-17.495,8.28c-3.3,1.175-7.071,0.956-10.527,1.79
			c-1.543,0.372-3.524,1.482-4.103,2.79c-1.492,3.37-2.404,7.012-3.381,10.591c-1.961,7.188-3.836,14.4-5.699,21.614
			c-1.897,7.35-3.646,14.739-5.625,22.065c-2.875,10.65-5.974,21.241-8.83,31.896c-1.826,6.816-3.371,13.709-5.078,20.558
			c-0.538,2.163-1.191,4.298-1.792,6.445C322.219,281.96,321.91,282.011,321.601,282.061z M316.916,59.439
			c-2.227,0.641-3.669,0.883-4.959,1.462c-3,1.348-5.913,2.886-8.885,4.298c-5.385,2.556-10.877,4.901-16.16,7.653
			c-7.15,3.725-13.89,8.359-21.286,11.455c-5.985,2.503-11.61,5.508-17.324,8.483c-7.757,4.04-15.822,7.484-23.651,11.393
			c-3.992,1.992-7.719,4.512-11.648,6.64c-1.287,0.696-3.844,0.201-2.948,2.638c0.313,0.852,2.572,1.386,3.944,1.391
			c25.496,0.095,50.992,0.089,76.488,0.102c8.714,0.004,17.428,0,26.429,0C316.916,96.415,316.916,78.396,316.916,59.439z
			 M339.189,88.273c-8.423,0.652-13.496,4.284-14.183,10.295c-0.215,1.882,0.189,4.774,1.414,5.638
			c1.473,1.039,4.123,0.445,6.266,0.472c0.578,0.007,1.409-0.633,1.703-0.414c2.702,2.03,4.686,0.986,6.54-1.208
			c-3.324-4.112,1.55-7.386,1.032-11.503c1.277,0.456,2.461,1.133,2.616,1.995c0.662,3.656,1.588,7.421,1.243,11.035
			c-0.167,1.766-2.635,3.846-4.551,4.778c-2.384,1.158-2.786,1.485-0.693,4.06c8.226-4.235,12.602-11.995,17.464-19.276
			c1.581-2.369,0.454-4.142-2.472-5.943c-0.491,1.545-1.264,2.788-1.191,3.979c0.208,3.441-0.677,5.156-4.357,7.032
			c-1.144-4.587,1.694-11.95-7.771-10.662c0.464-1.303,0.766-2.09,1.024-2.892c0.304-0.943,0.603-1.891,0.849-2.85
			c1.033-4.028-0.798-4.698-4.39-2.485C339.526,83.338,339.364,85.711,339.189,88.273z M284.343,133.921
			c-0.294-0.833-0.373-2.178-1.082-2.781c-0.886-0.753-2.329-1.292-3.46-1.185c-1.028,0.097-2.113,1.059-2.835,1.921
			c-0.192,0.23,0.667,1.802,1.368,2.233c2.52,1.554,3.603,3.868,2.442,6.372c-1.299,2.805-3.613,4.708-7.536,2.588
			c1.77-7.022,3.554-14.103,5.485-21.768c-2.31,0.256-3.789,0.42-5.311,0.589c1.283,6.017,0.862,6.5-4.723,8.131
			c-3.362,0.982-10.343,6.919-10.077,12.368c0.148,3.021,2.173,5.793,4.897,5.189c2.538-0.563,4.752-1.64,7.388-0.044
			c0.78,0.473,2.991-1.272,3.659-0.785c2.914,2.126,4.099,0.104,5.77-1.643c0.492-0.514,2.087-0.458,2.895-0.072
			c1.242,0.593,2.781,2.665,3.244,2.406c1.549-0.864,2.676-2.484,3.79-3.634c-1.909-1.205-3.499-1.657-4.094-2.686
			c-1.867-3.224-0.743-4.741,3.099-5.709c1.077-0.271,2.514-2.08,2.486-3.15c-0.058-2.173-1.726-2.487-3.461-1.321
			C286.966,131.829,285.742,132.855,284.343,133.921z M245.699,62.69c2.836,0.688,5.131,1.254,7.431,1.798
			c3.336,0.789,7.049-2.298,6.259-5.571c-0.501-2.081-2.058-3.899-3.061-5.875c-0.316-0.624-0.49-1.379-0.487-2.072
			c0.001-0.265,0.829-0.828,1.022-0.732c0.566,0.279,1.026,0.798,1.483,1.266c0.598,0.613,1.154,1.268,1.727,1.905
			c0.553-0.724,1.529-1.43,1.562-2.176c0.053-1.229-0.139-2.813-0.892-3.65c-1.01-1.125-7.635,0.039-8.74,1.198
			c-1.865,1.956-1.934,5.318,0.378,6.479c2.963,1.489,2.575,3.765,2.718,6.149c-2.656,0.369-2.656,0.369-5.55-2.836
			c-1.021,0.49-2.042,0.98-3.592,1.724c0.268-8.188,6.098-14.727,4.567-22.592c-5.339-0.13-5.423-0.036-4.322,4.295
			c0.688,2.701-1.127,5.077-3.972,5.204c-5.668,0.252-11.562,7.57-10.596,13.157c0.437,2.534,3.846,4.866,5.438,3.362
			c2.854-2.699,4.258-0.602,5.936,1.326C244.211,63.992,245.208,63.12,245.699,62.69z"/>
		<path fill-rule="evenodd" clip-rule="evenodd" fill="#FFFFFF" d="M364.563,329.457c-1.059,6.014-13.543,13.396-24.459,14.557
			c0.772-1.248,1.429-2.193,1.96-3.202c0.516-0.979,0.904-2.024,1.349-3.04c-1.291,0.003-2.73-0.366-3.846,0.077
			c-3.627,1.439-7.116,3.22-10.695,4.783c-2.157,0.941-4.375,1.744-6.58,2.571c-2.765,1.038-4.714,1.359-6.388-2.313
			c-4.926-10.8-10.398-21.353-15.783-31.938c-1.356-2.666-1.215-3.854,1.861-5.302c7.731-3.644,15.233-7.795,22.705-11.964
			c5.088-2.838,10.02-5.969,14.912-9.137c1.672-1.083,2.886-2.862,4.534-3.994c2.207-1.516,4.021-1.26,5.387,1.5
			c0.759,1.533,2.393,2.621,3.572,3.961c5.683,6.453,11.333,12.935,17.02,19.384c2.444,2.771,4.899,5.537,7.443,8.216
			c1.683,1.771,1.361,2.792-0.731,3.963c-5.563,3.115-11.047,6.38-16.492,9.698c-0.845,0.514-1.325,1.625-1.976,2.46
			c1.125,0.217,2.251,0.609,3.372,0.594C362.618,330.318,363.5,329.806,364.563,329.457z M337.326,299.728
			c-4.723-0.595-4.903-0.18-4.899,3.449c0.002,2.122,0.886,5.742-2.892,5.72c-6.146-0.036-9.396,3.313-11.759,8.375
			c-1.293,2.771-1.67,5.54,0.797,7.506c2.318,1.848,5.073,1.501,7.292-0.657c1.031,0.596,1.953,1.574,2.902,1.601
			c4.396,0.121,8.813,0.184,13.193-0.135c3.377-0.246,5.004-3.97,3.288-6.985c-0.797-1.4-1.908-2.628-2.646-4.054
			c-0.529-1.025-0.674-2.25-0.99-3.386c0.331-0.157,0.662-0.313,0.994-0.471c0.6,0.662,1.149,1.383,1.815,1.971
			c0.645,0.569,1.408,1.004,2.12,1.498c0.413-0.855,1.113-1.696,1.158-2.572c0.042-0.798-0.401-2.028-1.021-2.379
			c-2.009-1.136-7.577,0.024-8.671,1.733c-1.768,2.762-0.041,4.95,1.405,7.146c0.589,0.895,1.462,1.756,1.626,2.73
			c0.152,0.91-0.463,1.951-0.74,2.934c-0.928-0.495-2.071-0.797-2.724-1.534c-0.745-0.844-1.051-2.075-1.562-3.168
			c-1.31,0.686-2.3,1.203-4.132,2.162C333.843,313.479,335.579,306.626,337.326,299.728z"/>
		<path fill-rule="evenodd" clip-rule="evenodd" fill="#FFFFFF" d="M50.49,429.127c0.442-6.21,2.404-11.014,8.395-13.591
			c3.202-1.378,6.228,0.072,7.008,3.538c1.125,4.988-3.424,13.295-6.698,14.965c-1.868,0.952-4.791,0.956-6.755,0.174
			C51.296,433.757,51.108,430.902,50.49,429.127z"/>
		<path fill-rule="evenodd" clip-rule="evenodd" d="M316.916,59.439c0,18.956,0,36.976,0,55.515c-9.001,0-17.714,0.004-26.429,0
			c-25.496-0.013-50.992-0.007-76.488-0.102c-1.373-0.005-3.632-0.539-3.944-1.391c-0.896-2.437,1.661-1.942,2.948-2.638
			c3.929-2.128,7.656-4.647,11.648-6.64c7.829-3.908,15.894-7.353,23.651-11.393c5.713-2.975,11.339-5.979,17.324-8.483
			c7.396-3.095,14.135-7.73,21.286-11.455c5.282-2.752,10.775-5.097,16.16-7.653c2.972-1.412,5.885-2.95,8.885-4.298
			C313.247,60.323,314.689,60.08,316.916,59.439z M313.284,64.61c-30.619,15.269-60.419,30.128-90.218,44.987
			c0.122,0.432,0.243,0.865,0.366,1.296c1.296,0.061,2.593,0.171,3.89,0.174c27.465,0.06,54.931,0.064,82.396,0.22
			c3.117,0.018,3.811-1.221,3.77-3.991c-0.149-10.095-0.152-20.192-0.199-30.289C313.27,73.203,313.284,69.398,313.284,64.61z"/>
		<path fill-rule="evenodd" clip-rule="evenodd" d="M339.189,88.273c0.175-2.562,0.337-4.935,0.543-7.95
			c3.592-2.213,5.423-1.542,4.39,2.485c-0.246,0.959-0.545,1.907-0.849,2.85c-0.259,0.802-0.561,1.589-1.024,2.892
			c9.466-1.288,6.628,6.075,7.771,10.662c3.681-1.875,4.565-3.59,4.357-7.032c-0.072-1.191,0.7-2.434,1.191-3.979
			c2.926,1.802,4.053,3.575,2.472,5.943c-4.862,7.281-9.238,15.041-17.464,19.276c-2.093-2.575-1.69-2.902,0.693-4.06
			c1.916-0.932,4.384-3.012,4.551-4.778c0.345-3.613-0.581-7.378-1.243-11.035c-0.155-0.862-1.339-1.539-2.616-1.995
			c0.518,4.117-4.356,7.391-1.032,11.503c-1.854,2.194-3.838,3.238-6.54,1.208c-0.294-0.22-1.125,0.42-1.703,0.414
			c-2.143-0.026-4.793,0.567-6.266-0.472c-1.225-0.864-1.629-3.756-1.414-5.638C325.693,92.557,330.767,88.925,339.189,88.273z
			 M328.098,99.626c0.827,1.318,1.305,2.82,1.92,2.878c0.869,0.083,2.135-0.683,2.713-1.468c1.441-1.962,2.713-4.079,3.794-6.263
			c0.387-0.782,0.031-1.931,0.014-2.912c-1.067,0.055-2.647-0.318-3.113,0.24C331.504,94.401,329.919,96.982,328.098,99.626z"/>
		<path fill-rule="evenodd" clip-rule="evenodd" d="M284.343,133.921c1.398-1.065,2.623-2.092,3.942-2.979
			c1.735-1.166,3.403-0.852,3.461,1.321c0.028,1.07-1.409,2.879-2.486,3.15c-3.841,0.968-4.965,2.485-3.099,5.709
			c0.595,1.028,2.185,1.48,4.094,2.686c-1.114,1.15-2.241,2.77-3.79,3.634c-0.463,0.259-2.002-1.813-3.244-2.406
			c-0.808-0.386-2.403-0.442-2.895,0.072c-1.671,1.747-2.856,3.769-5.77,1.643c-0.668-0.487-2.878,1.258-3.659,0.785
			c-2.636-1.596-4.851-0.52-7.388,0.044c-2.724,0.604-4.749-2.168-4.897-5.189c-0.267-5.448,6.714-11.386,10.077-12.368
			c5.585-1.631,6.006-2.115,4.723-8.131c1.522-0.169,3.001-0.333,5.311-0.589c-1.931,7.665-3.715,14.745-5.485,21.768
			c3.923,2.12,6.237,0.217,7.536-2.588c1.161-2.504,0.078-4.818-2.442-6.372c-0.701-0.432-1.56-2.003-1.368-2.233
			c0.723-0.862,1.808-1.824,2.835-1.921c1.132-0.107,2.574,0.432,3.46,1.185C283.97,131.743,284.049,133.088,284.343,133.921z
			 M272.318,134.751c-2.096-0.95-4.271-2.151-4.4-1.961c-1.878,2.765-3.538,5.689-5.017,8.689c-0.087,0.177,2.594,2.001,2.655,1.93
			C267.697,140.886,269.678,138.229,272.318,134.751z"/>
		<path fill-rule="evenodd" clip-rule="evenodd" d="M245.699,62.69c-0.491,0.43-1.488,1.302-2.692,2.356
			c-1.678-1.927-3.082-4.024-5.936-1.326c-1.591,1.504-5-0.828-5.438-3.362c-0.966-5.587,4.928-12.905,10.596-13.157
			c2.845-0.127,4.659-2.503,3.972-5.204c-1.101-4.332-1.017-4.425,4.322-4.295c1.531,7.866-4.299,14.405-4.567,22.592
			c1.55-0.743,2.571-1.233,3.592-1.719c2.894,3.201,2.894,3.201,5.55,2.832c-0.143-2.384,0.245-4.66-2.718-6.149
			c-2.312-1.161-2.243-4.523-0.378-6.479c1.105-1.159,7.73-2.322,8.74-1.198c0.753,0.838,0.945,2.421,0.892,3.65
			c-0.033,0.746-1.009,1.453-1.562,2.176c-0.573-0.637-1.129-1.292-1.727-1.905c-0.457-0.468-0.917-0.987-1.483-1.266
			c-0.193-0.096-1.021,0.467-1.022,0.732c-0.003,0.693,0.171,1.449,0.487,2.072c1.003,1.976,2.56,3.794,3.061,5.875
			c0.791,3.273-2.923,6.36-6.259,5.571C250.83,63.944,248.535,63.377,245.699,62.69z M234.769,57.86
			c0.721,2.917,2.291,3.542,3.682,2.118c1.787-1.831,2.995-4.277,4.213-6.585c0.425-0.805,0.144-1.984,0.186-2.992
			c-1.156,0.117-2.842-0.206-3.371,0.432C237.688,52.992,236.307,55.491,234.769,57.86z"/>
		<path fill-rule="evenodd" clip-rule="evenodd" d="M337.326,299.728c-1.747,6.898-3.483,13.751-5.442,21.484
			c1.832-0.959,2.822-1.477,4.132-2.162c0.511,1.093,0.816,2.324,1.562,3.168c0.652,0.737,1.796,1.039,2.724,1.534
			c0.277-0.982,0.893-2.023,0.74-2.934c-0.164-0.975-1.037-1.836-1.626-2.73c-1.446-2.196-3.173-4.385-1.405-7.146
			c1.094-1.709,6.662-2.869,8.671-1.733c0.619,0.351,1.063,1.581,1.021,2.379c-0.045,0.876-0.745,1.717-1.158,2.572
			c-0.712-0.494-1.476-0.929-2.12-1.498c-0.666-0.588-1.216-1.309-1.815-1.971c-0.332,0.157-0.663,0.313-0.994,0.471
			c0.316,1.136,0.461,2.36,0.99,3.386c0.737,1.426,1.849,2.653,2.646,4.054c1.716,3.016,0.089,6.739-3.288,6.985
			c-4.38,0.318-8.798,0.256-13.193,0.135c-0.949-0.026-1.871-1.005-2.902-1.601c-2.219,2.158-4.974,2.505-7.292,0.657
			c-2.467-1.966-2.09-4.735-0.797-7.506c2.362-5.062,5.612-8.411,11.759-8.375c3.777,0.022,2.894-3.598,2.892-5.72
			C332.423,299.548,332.604,299.133,337.326,299.728z M322.589,322.414c0.431-0.002,0.861-0.003,1.292-0.004
			c1.744-3.621,6.929-5.585,4.988-11.183c-5.155-0.799-4.906,4.019-6.528,6.568C321.667,318.854,322.462,320.847,322.589,322.414z"
			/>
		<path fill-rule="evenodd" clip-rule="evenodd" fill="#FFFFFF" d="M313.284,64.61c0,4.788-0.015,8.592,0.003,12.397
			c0.047,10.096,0.05,20.193,0.199,30.289c0.041,2.77-0.652,4.009-3.77,3.991c-27.465-0.156-54.93-0.16-82.396-0.22
			c-1.296-0.003-2.593-0.113-3.89-0.174c-0.123-0.431-0.244-0.864-0.366-1.296C252.865,94.738,282.665,79.879,313.284,64.61z"/>
		<path fill-rule="evenodd" clip-rule="evenodd" fill="#FFFFFF" d="M328.098,99.626c1.821-2.644,3.406-5.225,5.327-7.525
			c0.466-0.558,2.046-0.185,3.113-0.24c0.018,0.981,0.373,2.13-0.014,2.912c-1.081,2.184-2.353,4.3-3.794,6.263
			c-0.578,0.786-1.844,1.552-2.713,1.468C329.402,102.446,328.925,100.944,328.098,99.626z"/>
		<path fill-rule="evenodd" clip-rule="evenodd" fill="#FFFFFF" d="M272.318,134.751c-2.64,3.477-4.621,6.135-6.762,8.658
			c-0.062,0.072-2.743-1.752-2.655-1.93c1.479-3,3.139-5.924,5.017-8.689C268.047,132.601,270.222,133.801,272.318,134.751z"/>
		<path fill-rule="evenodd" clip-rule="evenodd" fill="#FFFFFF" d="M234.769,57.86c1.538-2.37,2.919-4.868,4.71-7.027
			c0.529-0.638,2.215-0.314,3.371-0.432c-0.042,1.008,0.239,2.188-0.186,2.992c-1.219,2.308-2.426,4.754-4.213,6.585
			C237.06,61.402,235.49,60.777,234.769,57.86z"/>
		<path fill-rule="evenodd" clip-rule="evenodd" fill="#FFFFFF" d="M322.589,322.414c-0.127-1.567-0.922-3.56-0.248-4.618
			c1.622-2.55,1.373-7.367,6.528-6.568c1.94,5.598-3.244,7.562-4.988,11.183C323.45,322.411,323.02,322.412,322.589,322.414z"/>
	</g>
</g>
</svg>
