<?xml version="1.0" encoding="utf-8"?>
<!-- Generator: Adobe Illustrator 16.0.0, SVG Export Plug-In . SVG Version: 6.00 Build 0)  -->
<!DOCTYPE svg PUBLIC "-//W3C//DTD SVG 1.1//EN" "http://www.w3.org/Graphics/SVG/1.1/DTD/svg11.dtd">
<svg version="1.1" id="Layer_1" xmlns="http://www.w3.org/2000/svg" xmlns:xlink="http://www.w3.org/1999/xlink" x="0px" y="0px"
	 width="690.847px" height="486.818px" viewBox="0 0 690.847 486.818" enable-background="new 0 0 690.847 486.818"
	 xml:space="preserve">
<g>
	<g>
		<path fill-rule="evenodd" clip-rule="evenodd" fill="#FFFFFF" d="M266.287,0.75c141.747,0,283.494,0,425.275,0
			c0,162.224,0,324.448,0,486.745c-230.163,0-460.36,0-690.685,0c0-162.199,0-324.473,0-486.745c86.913,0,173.911,0,260.909,0
			c-0.206,1.736-0.445,3.471-0.53,5.213c-0.005,0.099,1.647,0.585,1.845,0.34c1.233-1.529,2.282-3.208,3.354-4.862
			C266.543,1.305,266.35,0.984,266.287,0.75z M196.298,381.035c-2.921,0.338-5.083,0.804-7.24,0.789
			c-4.34-0.03-8.681-0.517-13.016-0.45c-3.867,0.059-7.724,0.847-11.59,0.896c-10.155,0.126-20.313,0.02-30.469,0.018
			c-6.782-0.002-13.563,0.023-20.345,0.025c-20.624,0.007-41.248,0-61.871,0.019c-7.749,0.007-15.5,0.012-23.246,0.176
			c-0.969,0.021-1.917,1.011-2.875,1.551c0.946,0.774,1.831,1.651,2.866,2.277c0.458,0.276,1.222,0.044,1.847,0.044
			c11.622-0.003,23.244,0.021,34.867-0.012c19.858-0.057,39.716-0.178,59.575-0.211c10.494-0.018,20.988,0.146,31.482,0.132
			c14.731-0.021,29.463-0.172,44.194-0.197c17.116-0.03,34.234,0.174,51.346-0.046c7.637-0.098,7.631-0.454,7.584,6.927
			c-0.004,0.624,0.031,1.249,0.039,1.874c0.281,23.724,0.538,47.447,0.902,71.169c0.019,1.217,0.963,2.419,1.476,3.628
			c0.698-1.232,1.999-2.463,2.002-3.697c0.063-20.365-0.042-40.73-0.1-61.096c-0.017-5.93-0.003-11.861-0.003-17.878
			c111.467-0.487,222.301-0.971,333.871-1.458c-2.358,3.023-4.27,5.474-6.18,7.922c0.142,0.301,0.284,0.601,0.426,0.901
			c10.489-1.685,19.641-7.459,30.308-9.631c-2.227-3.258-27.79-11.827-31.979-11.16c2.218,2.477,4.223,4.717,6.486,7.245
			c-16.631,0-32.493-0.031-48.354,0.008c-18.368,0.045-36.734,0.216-55.101,0.121c-1.673-0.008-3.781-1.156-4.927-2.449
			c-4.026-4.538-7.743-9.354-11.535-14.097c-6.673-8.351-13.317-16.724-19.969-25.09c-7.203-9.06-14.352-18.162-21.618-27.17
			c-5.343-6.622-10.881-13.087-16.252-19.688c-5.331-6.553-10.68-13.099-15.799-19.816c-4.517-5.928-11.37-10.724-9.841-19.772
			c0.512-3.034-1.612-3.936-4.232-3.723c-4.478,0.364-7.677-1.289-9.484-5.522c-0.324-0.761-1.146-1.3-1.697-1.974
			c-4.472-5.469-8.991-10.901-13.386-16.432c-7.261-9.14-14.36-18.41-21.686-27.497c-3.951-4.902-8.355-9.438-12.331-14.322
			c-4.552-5.595-8.75-11.479-13.289-17.086c-9.129-11.277-18.391-22.448-27.589-33.669c-8.326-10.158-16.702-20.275-24.898-30.537
			c-1.409-1.764-2.781-4.126-2.879-6.27c-0.468-10.199-0.545-20.417-0.653-30.63c-0.086-8.16-0.018-16.323-0.018-24.484
			c0.3-0.154,0.6-0.308,0.899-0.462c2.302,2.156,4.604,4.311,6.905,6.466c0.392-0.158,0.785-0.316,1.177-0.475
			c-0.225-1.825-0.167-3.747-0.747-5.451c-0.708-2.075-2.22-3.879-2.913-5.957c-1.957-5.87-3.633-11.833-5.534-17.724
			c-0.256-0.792-1.169-1.372-1.778-2.05c-0.684,0.732-1.724,1.354-1.992,2.214c-1.437,4.625-2.525,9.361-4.042,13.957
			c-1.227,3.716-3.004,7.249-4.279,10.953c-0.307,0.895,0.408,2.141,0.653,3.225c0.906-0.391,1.939-0.618,2.692-1.206
			c1.542-1.208,2.935-2.607,5.004-4.487c0,75.523,0,149.853,0,223.735c-1.334-0.133-2.565-0.587-3.465-0.224
			c-0.569,0.23-0.646,1.682-0.943,2.584c1.552,0.489,3.104,0.978,4.691,1.478c0,2.235-0.021,4.715,0.003,7.193
			c0.325,34.315,0.636,68.632,1.026,102.945c0.03,2.618-0.532,3.87-3.49,3.834c-8.865-0.108-17.732,0.038-26.599,0.086
			c-5.451,0.03-10.901,0.07-16.352,0.091c-3.833,0.015-7.667,0.003-12.281,0.003c2.86-8.846,5.418-16.603,7.84-24.402
			c0.397-1.278,0.192-2.743,0.265-4.122c-0.357-0.058-0.716-0.116-1.073-0.174c-1.932,1.867-3.865,3.735-5.796,5.604
			c-0.271-0.2-0.541-0.4-0.811-0.602c0-22.276,0-44.554,0-66.831c0.268-0.171,0.534-0.342,0.801-0.513
			c2.202,2.238,4.404,4.476,6.605,6.714c0.545-0.325,1.091-0.65,1.636-0.977c-3.664-11.202-7.328-22.403-10.992-33.605
			c-0.376-0.077-0.752-0.154-1.128-0.23c-0.672,1.149-2.014,2.361-1.911,3.436c0.785,8.229-3.421,15.095-5.735,22.48
			c-0.837,2.673-1.25,5.479-1.856,8.224c0.768,0.49,1.537,0.979,2.305,1.47c1.272-2.397,2.545-4.796,3.818-7.193
			c0.518,0.335,1.036,0.67,1.554,1.006c2.178,22.122-0.505,44.271,0.216,66.576c-2.225-1.181-3.69-2.63-5.282-3.923
			c-0.733-0.597-1.713-0.888-2.581-1.318c-0.104,1.018-0.533,2.138-0.25,3.033c0.781,2.486,1.932,4.855,2.805,7.317
			C192.215,369.117,194.169,374.874,196.298,381.035z M224.561,409.627c0.454,5.988,2.728,8.813,6.837,10.131
			c10.31,3.305,20.524-8.211,21.595-15.844c0.895-6.376-3.049-11.403-9.964-12.006c-7.4-0.645-13.315,6.039-16.26,11.095
			C225.622,404.971,225.273,407.405,224.561,409.627z M291.577,31.563c-0.835-4.458-1.25-7.912-2.248-11.187
			c-0.271-0.893-2.264-1.61-3.536-1.741c-1.031-0.106-2.165,0.788-3.252,1.238c0.623,0.932,1.358,1.809,1.837,2.81
			c0.524,1.093,1.028,2.276,1.155,3.462c0.264,2.473,0.022,5.017,0.45,7.451c0.566,3.214-0.348,5.498-2.932,7.46
			c-0.946,0.718-1.297,2.221-1.92,3.366c0.322,0.224,0.644,0.448,0.965,0.672c0.555-0.192,1.227-0.244,1.644-0.597
			c6.028-5.107,11.198-10.973,14.833-18.011c0.914-1.769,1.163-4.059,1.056-6.074c-0.034-0.656-2.134-1.321-3.375-1.673
			c-0.189-0.054-1.463,1.924-1.207,2.367C297.812,25.883,293.1,27.706,291.577,31.563z M153.381,348.693
			c1.889-0.435,2.694-0.368,3.007-0.729c5.467-6.311,10.996-12.578,16.185-19.114c0.96-1.208,0.785-3.586,0.547-5.345
			c-0.092-0.682-1.812-1.143-2.789-1.705c-0.581,1.057-1.798,2.227-1.633,3.15c0.696,3.903-1.091,7.609-4.942,9.123
			c-0.233-2.504-0.229-5.024-0.773-7.421c-0.376-1.654-1.202-4.097-2.378-4.475c-1.882-0.604-4.22,0.211-6.365,0.427
			c-0.16,0.464-0.32,0.929-0.481,1.393c4.292,0.775,4.383,3.92,4.686,6.917c0.188,1.857,0.062,3.773,0.465,5.577
			c0.758,3.393-0.425,5.681-3.166,7.668C154.751,344.879,154.449,346.552,153.381,348.693z M642.207,373.39
			c-0.176-0.466-0.352-0.932-0.528-1.397c-4.044,1.204-4.583-1.242-4.698-3.897c-0.11-2.513,1.2-3.806,3.765-4.139
			c0.939-0.122,2.372-0.992,2.498-1.711c0.174-0.985-0.433-2.806-1.159-3.084c-1.018-0.391-2.87-0.116-3.628,0.626
			c-1.799,1.765-2.967,3.753-4.637-0.18c-0.317-0.747-2.84-0.726-4.344-0.721c-0.622,0.002-1.241,0.891-1.861,1.377
			c0.715,0.858,1.325,1.84,2.161,2.556c3.675,3.141,2.507,8.845-2.155,10.666c-0.92,0.359-1.899,1.087-2.35,1.917
			c-0.244,0.451,0.736,2.168,0.879,2.134c1.605-0.389,3.232-0.859,4.691-1.62c0.845-0.44,1.395-1.448,1.397-1.452
			c2.181,1.582,4.177,3.87,5.064,3.5C639.237,377.157,640.607,374.997,642.207,373.39z M191.762,261.942
			c-1.015,1.316-2.051,2.131-2.233,3.105c-0.101,0.538,1.411,2.015,1.879,1.889c0.954-0.255,2.116-1.188,2.375-2.078
			C193.955,264.26,192.723,263.254,191.762,261.942z M242.672,261.879c-1.024,1.371-2.033,2.205-2.234,3.202
			c-0.104,0.511,1.435,1.982,1.875,1.85c0.981-0.299,2.139-1.204,2.437-2.117C244.934,264.248,243.667,263.212,242.672,261.879z
			 M236.616,261.757c-0.947,1.545-2.071,2.574-1.976,3.477c0.075,0.726,1.585,1.687,2.538,1.787
			c0.555,0.059,1.865-1.458,1.769-2.107C238.806,263.958,237.71,263.145,236.616,261.757z M211.581,264.865
			c-1.289-0.983-2.31-2.231-2.82-2.049c-0.936,0.335-1.568,1.513-2.328,2.339c0.84,0.679,1.618,1.751,2.542,1.898
			C209.581,267.15,210.401,265.91,211.581,264.865z M18.457,354.611c-0.272,0.635-0.545,1.271-0.818,1.906
			c1.193,0.539,2.353,1.229,3.604,1.509c0.312,0.069,0.92-1.181,1.392-1.823C21.242,355.672,19.85,355.142,18.457,354.611z
			 M205.79,265.154c-1.192-1.121-1.908-1.794-2.623-2.466c-0.75,0.805-1.831,1.51-2.119,2.455c-0.159,0.523,1.136,2.135,1.556,2.058
			C203.569,267.024,204.4,266.114,205.79,265.154z M219.736,261.685c-0.928,1.573-1.917,2.503-1.83,3.316
			c0.082,0.761,1.305,1.4,2.024,2.093c0.644-0.743,1.78-1.474,1.799-2.232C221.75,264.034,220.736,263.18,219.736,261.685z
			 M231.392,261.982c-1.09,1.369-2.189,2.146-2.174,2.901c0.015,0.742,1.104,1.966,1.824,2.045c0.655,0.072,1.935-1.032,2.048-1.759
			C233.208,264.418,232.257,263.498,231.392,261.982z M177.618,265.412c-1.357-1.158-2.134-2.323-2.845-2.284
			c-0.713,0.039-1.7,1.192-1.911,2.024c-0.13,0.51,0.951,1.864,1.529,1.89C175.219,267.077,176.084,266.245,177.618,265.412z
			 M177.737,264.764c1.258,1.056,1.937,2.058,2.696,2.123c0.589,0.051,1.866-1.146,1.797-1.646
			c-0.122-0.888-0.882-1.984-1.675-2.361C180.138,262.682,179.084,263.821,177.737,264.764z M189.146,265.02
			c-1.458-1.042-2.368-2.176-3.08-2.063c-0.714,0.112-1.541,1.407-1.713,2.302c-0.092,0.477,1.141,1.737,1.69,1.688
			C186.906,266.868,187.695,265.981,189.146,265.02z M227.743,265.565c0.344-0.605,0.688-1.211,1.033-1.817
			c-1.008-0.354-2.087-1.106-3.002-0.944c-0.85,0.151-1.92,1.179-2.136,2.017c-0.141,0.545,0.979,1.893,1.708,2.046
			C226.025,267.008,226.935,266.043,227.743,265.565z M214.26,268.085c0.963-1.641,1.844-2.515,1.873-3.417
			c0.018-0.581-1.212-1.202-1.883-1.806c-0.576,0.718-1.526,1.392-1.619,2.167C212.547,265.737,213.392,266.555,214.26,268.085z
			 M251.025,265.37c-1.348-1.201-2.157-2.439-2.783-2.353c-0.807,0.112-1.754,1.182-2.066,2.046
			c-0.148,0.411,0.987,1.794,1.621,1.853C248.602,266.989,249.488,266.162,251.025,265.37z"/>
		<path fill-rule="evenodd" clip-rule="evenodd" d="M266.287,0.75c0.063,0.234,0.256,0.555,0.168,0.691
			c-1.072,1.654-2.121,3.333-3.354,4.862c-0.198,0.246-1.851-0.241-1.845-0.34c0.085-1.743,0.324-3.477,0.53-5.213
			C263.287,0.75,264.787,0.75,266.287,0.75z"/>
		<path fill-rule="evenodd" clip-rule="evenodd" d="M196.298,381.035c-2.129-6.161-4.083-11.918-6.115-17.646
			c-0.873-2.462-2.024-4.831-2.805-7.317c-0.282-0.896,0.146-2.016,0.25-3.033c0.868,0.431,1.848,0.722,2.581,1.318
			c1.592,1.293,3.058,2.742,5.282,3.923c-0.721-22.306,1.962-44.454-0.216-66.576c-0.518-0.336-1.036-0.671-1.554-1.006
			c-1.272,2.397-2.545,4.796-3.818,7.193c-0.769-0.49-1.537-0.979-2.305-1.47c0.606-2.745,1.019-5.551,1.856-8.224
			c2.313-7.386,6.52-14.252,5.735-22.48c-0.103-1.074,1.239-2.286,1.911-3.436c0.376,0.076,0.752,0.153,1.128,0.23
			c3.664,11.202,7.328,22.403,10.992,33.605c-0.545,0.326-1.091,0.651-1.636,0.977c-2.201-2.238-4.403-4.476-6.605-6.714
			c-0.267,0.171-0.534,0.342-0.801,0.513c0,22.277,0,44.555,0,66.831c0.271,0.201,0.541,0.401,0.811,0.602
			c1.932-1.868,3.864-3.736,5.796-5.604c0.357,0.058,0.716,0.116,1.073,0.174c-0.073,1.379,0.132,2.844-0.265,4.122
			c-2.422,7.8-4.98,15.557-7.84,24.402c4.614,0,8.447,0.012,12.281-0.003c5.451-0.021,10.901-0.061,16.352-0.091
			c8.866-0.048,17.733-0.194,26.599-0.086c2.958,0.036,3.521-1.216,3.49-3.834c-0.39-34.313-0.701-68.63-1.026-102.945
			c-0.023-2.479-0.003-4.958-0.003-7.193c-1.587-0.5-3.139-0.988-4.691-1.478c0.297-0.902,0.374-2.354,0.943-2.584
			c0.9-0.363,2.131,0.091,3.465,0.224c0-73.882,0-148.212,0-223.735c-2.07,1.879-3.462,3.279-5.004,4.487
			c-0.752,0.587-1.786,0.815-2.692,1.206c-0.245-1.084-0.96-2.33-0.653-3.225c1.274-3.704,3.052-7.237,4.279-10.953
			c1.517-4.596,2.605-9.332,4.042-13.957c0.268-0.86,1.308-1.482,1.992-2.214c0.609,0.678,1.522,1.259,1.778,2.05
			c1.901,5.891,3.577,11.854,5.534,17.724c0.693,2.078,2.205,3.882,2.913,5.957c0.58,1.704,0.521,3.626,0.747,5.451
			c-0.392,0.158-0.785,0.316-1.177,0.475c-2.301-2.155-4.603-4.31-6.905-6.466c-0.3,0.154-0.599,0.308-0.899,0.462
			c0,8.162-0.069,16.324,0.018,24.484c0.108,10.213,0.185,20.432,0.653,30.63c0.098,2.144,1.47,4.506,2.879,6.27
			c8.196,10.262,16.572,20.379,24.898,30.537c9.198,11.222,18.459,22.392,27.589,33.669c4.539,5.606,8.736,11.491,13.289,17.086
			c3.975,4.884,8.379,9.419,12.331,14.322c7.325,9.087,14.425,18.357,21.686,27.497c4.395,5.531,8.914,10.962,13.386,16.432
			c0.552,0.674,1.373,1.213,1.697,1.974c1.808,4.233,5.007,5.887,9.484,5.522c2.62-0.213,4.744,0.688,4.232,3.723
			c-1.529,9.049,5.324,13.845,9.841,19.772c5.119,6.718,10.468,13.264,15.799,19.816c5.371,6.602,10.909,13.066,16.252,19.688
			c7.267,9.008,14.415,18.11,21.618,27.17c6.651,8.366,13.296,16.739,19.969,25.09c3.792,4.743,7.509,9.559,11.535,14.097
			c1.146,1.293,3.254,2.441,4.927,2.449c18.366,0.095,36.732-0.076,55.101-0.121c15.861-0.039,31.724-0.008,48.354-0.008
			c-2.264-2.528-4.269-4.769-6.486-7.245c4.189-0.667,29.753,7.902,31.979,11.16c-10.667,2.172-19.818,7.946-30.308,9.631
			c-0.142-0.301-0.284-0.601-0.426-0.901c1.91-2.448,3.821-4.898,6.18-7.922c-111.57,0.487-222.404,0.971-333.871,1.458
			c0,6.017-0.014,11.948,0.003,17.878c0.058,20.365,0.163,40.73,0.1,61.096c-0.003,1.234-1.304,2.465-2.002,3.697
			c-0.513-1.209-1.458-2.411-1.476-3.628c-0.365-23.722-0.622-47.445-0.902-71.169c-0.007-0.625-0.043-1.25-0.039-1.874
			c0.047-7.381,0.053-7.024-7.584-6.927c-17.112,0.22-34.23,0.016-51.346,0.046c-14.731,0.025-29.462,0.176-44.194,0.197
			c-10.494,0.015-20.988-0.149-31.482-0.132c-19.859,0.033-39.717,0.154-59.575,0.211c-11.623,0.032-23.245,0.009-34.867,0.012
			c-0.625,0-1.39,0.232-1.847-0.044c-1.036-0.626-1.92-1.503-2.866-2.277c0.958-0.54,1.907-1.53,2.875-1.551
			c7.746-0.164,15.497-0.169,23.246-0.176c20.624-0.019,41.248-0.012,61.871-0.019c6.782-0.002,13.563-0.027,20.345-0.025
			c10.157,0.002,20.314,0.108,30.469-0.018c3.867-0.049,7.723-0.837,11.59-0.896c4.334-0.066,8.675,0.42,13.016,0.45
			C191.216,381.839,193.377,381.373,196.298,381.035z M394.569,271.372c-0.331,0.146-0.662,0.29-0.993,0.434
			c0,1.812-0.057,3.626,0.013,5.435c0.13,3.41-1.201,5.08-4.859,4.74c-2.476-0.229-4.993,0.022-7.492,0.023
			c-38.112,0.023-76.224,0.066-114.336,0.009c-2.659-0.004-3.561,0.964-3.534,3.454c0.077,7.239,0.059,14.479,0.101,21.719
			c0.132,22.846,0.382,45.693,0.308,68.539c-0.013,3.717,1.096,4.756,4.565,4.714c13.234-0.162,26.471-0.17,39.707-0.2
			c33.718-0.076,67.437-0.161,101.154-0.19c22.984-0.021,45.969,0.053,68.952,0.053c1.146,0,2.29-0.289,4.016-0.522
			C452.664,343.133,423.616,307.253,394.569,271.372z M263.523,109.547c-0.375,0.135-0.75,0.271-1.125,0.405
			c0,1.822-0.01,3.643,0.001,5.464c0.266,43.274,0.55,86.548,0.758,129.822c0.013,2.705,0.842,3.799,3.657,3.779
			c11.229-0.076,22.46,0.024,33.69,0.043c20.221,0.032,40.441,0.056,60.662,0.079c4.752,0.006,9.504,0.001,14.256,0.001
			c0.083-0.444,0.166-0.89,0.248-1.335C338.289,201.72,300.906,155.633,263.523,109.547z"/>
		<path fill-rule="evenodd" clip-rule="evenodd" d="M224.561,409.627c0.712-2.222,1.061-4.656,2.208-6.624
			c2.945-5.056,8.86-11.739,16.26-11.095c6.915,0.603,10.858,5.63,9.964,12.006c-1.071,7.633-11.286,19.148-21.595,15.844
			C227.288,418.44,225.015,415.615,224.561,409.627z M230.264,410.146c0.094,1.044,0.035,1.827,0.249,2.528
			c1.322,4.349,4.286,6.84,8.73,3.189c4.831-3.968,7.179-8.907,7.333-14.798c0.052-2.007-1.542-4.365-3.029-5.964
			c-0.662-0.71-3.219-0.445-4.401,0.25C233.464,398.692,231.089,404.145,230.264,410.146z"/>
		<path fill-rule="evenodd" clip-rule="evenodd" d="M291.577,31.563c1.523-3.858,6.235-5.681,3.47-10.457
			c-0.256-0.443,1.018-2.421,1.207-2.367c1.242,0.353,3.341,1.017,3.375,1.673c0.106,2.015-0.143,4.305-1.056,6.074
			c-3.636,7.038-8.805,12.904-14.833,18.011c-0.417,0.353-1.089,0.405-1.644,0.597c-0.321-0.224-0.643-0.448-0.965-0.672
			c0.623-1.145,0.974-2.647,1.92-3.366c2.584-1.962,3.498-4.246,2.932-7.46c-0.428-2.434-0.186-4.978-0.45-7.451
			c-0.127-1.186-0.631-2.37-1.155-3.462c-0.479-1.001-1.214-1.878-1.837-2.81c1.088-0.451,2.222-1.344,3.252-1.238
			c1.271,0.131,3.264,0.849,3.536,1.741C290.327,23.652,290.742,27.105,291.577,31.563z"/>
		<path fill-rule="evenodd" clip-rule="evenodd" d="M153.381,348.693c1.068-2.142,1.37-3.814,2.362-4.534
			c2.741-1.987,3.924-4.275,3.166-7.668c-0.403-1.804-0.277-3.72-0.465-5.577c-0.303-2.997-0.394-6.142-4.686-6.917
			c0.161-0.464,0.321-0.929,0.481-1.393c2.146-0.216,4.483-1.031,6.365-0.427c1.176,0.378,2.002,2.82,2.378,4.475
			c0.544,2.396,0.54,4.917,0.773,7.421c3.852-1.514,5.638-5.22,4.942-9.123c-0.165-0.924,1.052-2.094,1.633-3.15
			c0.978,0.563,2.697,1.023,2.789,1.705c0.238,1.759,0.414,4.137-0.547,5.345c-5.189,6.536-10.718,12.804-16.185,19.114
			C156.075,348.325,155.27,348.259,153.381,348.693z"/>
		<path fill-rule="evenodd" clip-rule="evenodd" d="M642.207,373.39c-1.6,1.607-2.97,3.768-4.904,4.574
			c-0.888,0.37-2.884-1.918-5.064-3.5c-0.003,0.004-0.553,1.012-1.397,1.452c-1.459,0.761-3.086,1.231-4.691,1.62
			c-0.143,0.034-1.123-1.683-0.879-2.134c0.45-0.83,1.43-1.558,2.35-1.917c4.662-1.821,5.83-7.525,2.155-10.666
			c-0.836-0.716-1.446-1.697-2.161-2.556c0.62-0.486,1.239-1.375,1.861-1.377c1.504-0.005,4.026-0.026,4.344,0.721
			c1.67,3.933,2.838,1.944,4.637,0.18c0.758-0.742,2.61-1.017,3.628-0.626c0.727,0.278,1.333,2.099,1.159,3.084
			c-0.126,0.719-1.559,1.589-2.498,1.711c-2.564,0.333-3.875,1.626-3.765,4.139c0.115,2.655,0.654,5.102,4.698,3.897
			C641.855,372.458,642.031,372.924,642.207,373.39z"/>
		<path fill-rule="evenodd" clip-rule="evenodd" d="M191.762,261.942c0.961,1.312,2.193,2.317,2.02,2.916
			c-0.258,0.891-1.42,1.823-2.375,2.078c-0.468,0.126-1.98-1.351-1.879-1.889C189.71,264.073,190.747,263.259,191.762,261.942z"/>
		<path fill-rule="evenodd" clip-rule="evenodd" d="M242.672,261.879c0.995,1.333,2.262,2.369,2.078,2.935
			c-0.297,0.913-1.456,1.818-2.437,2.117c-0.44,0.133-1.979-1.339-1.875-1.85C240.639,264.084,241.647,263.25,242.672,261.879z"/>
		<path fill-rule="evenodd" clip-rule="evenodd" d="M236.616,261.757c1.094,1.388,2.189,2.201,2.331,3.156
			c0.096,0.649-1.214,2.166-1.769,2.107c-0.953-0.101-2.463-1.062-2.538-1.787C234.545,264.331,235.669,263.302,236.616,261.757z"/>
		<path fill-rule="evenodd" clip-rule="evenodd" d="M211.581,264.865c-1.18,1.045-2,2.285-2.605,2.188
			c-0.924-0.147-1.702-1.22-2.542-1.898c0.76-0.826,1.393-2.004,2.328-2.339C209.271,262.634,210.292,263.882,211.581,264.865z"/>
		<path fill-rule="evenodd" clip-rule="evenodd" d="M18.457,354.611c1.393,0.53,2.785,1.061,4.178,1.592
			c-0.472,0.643-1.08,1.893-1.392,1.823c-1.251-0.28-2.41-0.97-3.604-1.509C17.912,355.882,18.185,355.246,18.457,354.611z"/>
		<path fill-rule="evenodd" clip-rule="evenodd" d="M205.79,265.154c-1.389,0.96-2.22,1.87-3.186,2.047
			c-0.419,0.077-1.715-1.534-1.556-2.058c0.289-0.945,1.369-1.65,2.119-2.455C203.882,263.36,204.598,264.033,205.79,265.154z"/>
		<path fill-rule="evenodd" clip-rule="evenodd" d="M219.736,261.685c1,1.495,2.015,2.35,1.994,3.177
			c-0.019,0.759-1.155,1.489-1.799,2.232c-0.72-0.692-1.942-1.332-2.024-2.093C217.819,264.188,218.808,263.258,219.736,261.685z"/>
		<path fill-rule="evenodd" clip-rule="evenodd" d="M231.392,261.982c0.865,1.516,1.816,2.436,1.698,3.188
			c-0.113,0.727-1.393,1.831-2.048,1.759c-0.72-0.079-1.81-1.303-1.824-2.045C229.203,264.129,230.302,263.352,231.392,261.982z"/>
		<path fill-rule="evenodd" clip-rule="evenodd" d="M177.618,265.412c-1.534,0.833-2.399,1.665-3.228,1.63
			c-0.578-0.025-1.659-1.38-1.529-1.89c0.211-0.832,1.198-1.985,1.911-2.024C175.484,263.089,176.261,264.254,177.618,265.412z"/>
		<path fill-rule="evenodd" clip-rule="evenodd" d="M177.737,264.764c1.348-0.942,2.401-2.082,2.818-1.884
			c0.793,0.377,1.553,1.474,1.675,2.361c0.069,0.499-1.208,1.696-1.797,1.646C179.673,266.821,178.995,265.819,177.737,264.764z"/>
		<path fill-rule="evenodd" clip-rule="evenodd" d="M189.146,265.02c-1.451,0.962-2.24,1.849-3.103,1.926
			c-0.549,0.05-1.783-1.211-1.69-1.688c0.173-0.895,0.999-2.189,1.713-2.302C186.778,262.844,187.688,263.978,189.146,265.02z"/>
		<path fill-rule="evenodd" clip-rule="evenodd" d="M227.743,265.565c-0.809,0.478-1.718,1.442-2.397,1.301
			c-0.729-0.153-1.849-1.501-1.708-2.046c0.216-0.838,1.287-1.865,2.136-2.017c0.916-0.162,1.995,0.591,3.002,0.944
			C228.432,264.354,228.087,264.96,227.743,265.565z"/>
		<path fill-rule="evenodd" clip-rule="evenodd" d="M214.26,268.085c-0.868-1.53-1.713-2.348-1.628-3.056
			c0.092-0.775,1.042-1.449,1.619-2.167c0.67,0.604,1.901,1.225,1.883,1.806C216.104,265.57,215.223,266.444,214.26,268.085z"/>
		<path fill-rule="evenodd" clip-rule="evenodd" d="M251.025,265.37c-1.537,0.792-2.423,1.619-3.228,1.546
			c-0.634-0.059-1.77-1.441-1.621-1.853c0.312-0.864,1.259-1.934,2.066-2.046C248.868,262.931,249.677,264.169,251.025,265.37z"/>
		<path fill-rule="evenodd" clip-rule="evenodd" fill="#FFFFFF" d="M394.569,271.372c29.047,35.881,58.095,71.761,87.6,108.206
			c-1.726,0.233-2.87,0.522-4.016,0.522c-22.983,0-45.968-0.073-68.952-0.053c-33.718,0.029-67.436,0.114-101.154,0.19
			c-13.235,0.03-26.472,0.038-39.707,0.2c-3.469,0.042-4.578-0.997-4.565-4.714c0.075-22.846-0.175-45.693-0.308-68.539
			c-0.042-7.239-0.024-14.479-0.101-21.719c-0.026-2.49,0.875-3.458,3.534-3.454c38.113,0.058,76.225,0.015,114.336-0.009
			c2.499-0.001,5.017-0.253,7.492-0.023c3.658,0.34,4.989-1.33,4.859-4.74c-0.069-1.809-0.013-3.623-0.013-5.435
			C393.907,271.662,394.238,271.518,394.569,271.372z M327.493,302.308c-1.349-0.38-3.136-0.336-3.909-1.198
			c-2.779-3.104-1.043-7.278,3.01-8.57c1.105-0.352,1.772-2.076,2.64-3.171c-1.349-0.558-2.763-1.676-4.027-1.524
			c-1.404,0.168-2.67,1.493-3.975,2.301c-3.759-3.642-6.439-3.644-8.45-0.385c1.128,1.244,2.725,2.241,3.148,3.603
			c1.901,6.117,1.705,6.095-3.91,9.923c-0.769,0.523-0.546,2.501-0.782,3.806c1.048-0.095,2.277,0.123,3.104-0.355
			c1.345-0.777,2.427-2.009,3.608-3.039C322.818,308.914,325.065,308.567,327.493,302.308z"/>
		<path fill-rule="evenodd" clip-rule="evenodd" fill="#FFFFFF" d="M263.523,109.547c37.383,46.086,74.766,92.173,112.147,138.259
			c-0.082,0.445-0.165,0.891-0.248,1.335c-4.752,0-9.504,0.005-14.256-0.001c-20.221-0.023-40.441-0.047-60.662-0.079
			c-11.23-0.019-22.461-0.119-33.69-0.043c-2.815,0.02-3.644-1.074-3.657-3.779c-0.208-43.274-0.493-86.548-0.758-129.822
			c-0.011-1.822-0.001-3.643-0.001-5.464C262.773,109.818,263.148,109.682,263.523,109.547z"/>
		<path fill-rule="evenodd" clip-rule="evenodd" fill="#FFFFFF" d="M230.264,410.146c0.825-6.002,3.201-11.454,8.881-14.794
			c1.182-0.695,3.739-0.96,4.401-0.25c1.486,1.599,3.081,3.957,3.029,5.964c-0.154,5.891-2.502,10.83-7.333,14.798
			c-4.444,3.65-7.408,1.159-8.73-3.189C230.299,411.974,230.357,411.19,230.264,410.146z"/>
		<path fill-rule="evenodd" clip-rule="evenodd" d="M327.493,302.308c-2.428,6.26-4.675,6.606-9.542,1.389
			c-1.181,1.03-2.263,2.262-3.608,3.039c-0.827,0.479-2.055,0.261-3.104,0.355c0.236-1.305,0.013-3.282,0.782-3.806
			c5.615-3.828,5.811-3.806,3.91-9.923c-0.423-1.361-2.02-2.358-3.148-3.603c2.01-3.259,4.69-3.257,8.45,0.385
			c1.305-0.808,2.571-2.133,3.975-2.301c1.264-0.151,2.678,0.967,4.027,1.524c-0.868,1.095-1.535,2.819-2.64,3.171
			c-4.054,1.292-5.789,5.467-3.01,8.57C324.357,301.972,326.144,301.928,327.493,302.308z"/>
	</g>
</g>
</svg>
