<?xml version="1.0" encoding="utf-8"?>
<!-- Generator: Adobe Illustrator 16.0.0, SVG Export Plug-In . SVG Version: 6.00 Build 0)  -->
<!DOCTYPE svg PUBLIC "-//W3C//DTD SVG 1.1//EN" "http://www.w3.org/Graphics/SVG/1.1/DTD/svg11.dtd">
<svg version="1.1" id="Layer_1" xmlns="http://www.w3.org/2000/svg" xmlns:xlink="http://www.w3.org/1999/xlink" x="0px" y="0px"
	 width="674.344px" height="438.812px" viewBox="0 0 674.344 438.812" enable-background="new 0 0 674.344 438.812"
	 xml:space="preserve">
<g>
	<g>
		<path fill-rule="evenodd" clip-rule="evenodd" fill="#FFFFFF" d="M0.75,0.75c224.782,0,449.563,0,674.344,0
			c0,146.271,0,292.541,0,438.812c-224.781,0-449.562,0-674.344,0C0.75,293.291,0.75,147.021,0.75,0.75z M17.135,353.495
			c-0.093,0.747-0.186,1.494-0.279,2.241c1.732,0.43,3.458,1.19,5.199,1.229c6.243,0.137,12.492,0.016,18.738,0.016
			c18.872,0.002,37.744,0.014,56.616,0.022c2.137,0.002,4.364-0.296,4.343,3.02c-0.055,8.974,0.067,17.949,0.016,26.922
			c-0.076,12.956-0.311,25.911-0.263,38.866c0.005,1.305,1.49,2.604,2.289,3.906c0.682-1.274,1.913-2.531,1.952-3.824
			c0.176-5.738-0.003-11.487-0.029-17.231c-0.07-15.611-0.112-31.224-0.207-46.835c-0.021-3.389,1.21-4.862,4.915-4.784
			c10.607,0.222,21.222,0.079,31.833,0.062c25.118-0.042,50.236-0.155,75.354-0.13c40.482,0.041,80.964,0.129,121.446,0.289
			c11.613,0.046,23.225,0.442,34.838,0.604c2.683,0.037,3.932,1.409,4.835,3.767c0.491,1.281,1.773,2.259,2.699,3.374
			c0.841-1.35,2.257-2.642,2.395-4.06c0.227-2.339,1.105-3.559,3.352-3.581c5.168-0.051,10.342-0.086,15.507,0.072
			c10.452,0.32,20.897,1.034,31.35,1.113c17.349,0.133,34.701-0.249,52.051-0.154c22.46,0.123,44.919,0.519,67.379,0.754
			c3.531,0.036,7.065-0.185,10.599-0.232c3.237-0.043,6.479-0.109,9.712,0.018c2.511,0.099,5.01,0.479,8.518,0.835
			c-2.408,3.152-4.102,5.368-5.796,7.584c0.223,0.358,0.444,0.716,0.665,1.074c1.485-0.229,3.035-0.264,4.439-0.734
			c1.949-0.653,3.741-1.773,5.686-2.446c5.54-1.92,11.149-3.646,16.665-5.634c0.801-0.29,1.454-1.525,1.735-2.456
			c0.11-0.367-0.889-1.4-1.55-1.618c-7.476-2.456-14.971-4.852-22.492-7.161c-1.408-0.433-2.955-0.414-5.35-0.721
			c2.149,3.007,3.645,5.1,5.404,7.563c-1.307,0.076-1.911,0.143-2.518,0.143c-18.977,0.004-37.954,0.021-56.931-0.005
			c-17.474-0.023-34.949-0.021-52.422-0.174c-11.836-0.104-23.669-0.547-35.506-0.685c-16.456-0.191-32.912-0.206-49.367-0.437
			c-0.986-0.014-2.566-1.092-2.833-1.983c-2.035-6.801-3.837-13.672-5.665-20.533c-4.006-15.038-9.756-29.388-17.026-43.132
			c-2.13-4.024-4.286-8.046-6.643-11.938c-6.256-10.339-12.08-21.003-19.11-30.794c-7.089-9.874-15.112-19.137-23.301-28.144
			c-7.329-8.062-15.134-15.759-23.308-22.959c-6.342-5.586-13.479-10.301-20.442-15.144c-6.804-4.73-13.795-9.196-20.796-13.633
			c-1.724-1.092-3.916-1.426-5.703-2.441c-4.998-2.836-9.714-6.225-14.877-8.693c-6.83-3.266-13.931-5.984-21.004-8.708
			c-5.02-1.933-10.157-3.579-15.297-5.174c-3.98-1.235-8.044-2.197-12.073-3.273c-7.14-1.907-14.228-4.047-21.436-5.638
			c-6.008-1.326-12.13-2.292-18.252-2.9c-8.285-0.823-16.612-1.365-24.933-1.625c-6.599-0.207-6.709-0.175-6.692-6.592
			c0.049-19.071-0.025-38.141-0.045-57.211c-0.008-7.31-0.001-14.619-0.001-22.515c3.092,2.066,5.523,3.69,7.955,5.314
			c0.213-0.31,0.427-0.62,0.64-0.929c-2.974-8.813-5.925-17.632-8.967-26.421c-0.231-0.667-1.059-1.177-1.714-1.596
			c-0.108-0.068-0.92,0.648-1.139,1.125c-1.323,2.889-2.749,5.75-3.798,8.741c-1.684,4.798-3.155,9.674-4.59,14.554
			c-0.344,1.17-0.192,2.486-0.268,3.735c1.312-0.504,2.737-0.829,3.905-1.562c1.271-0.798,2.304-1.975,4.209-3.67
			c0,5.571-0.011,9.799,0.002,14.026c0.067,22.112,0.171,44.226,0.2,66.339c0.015,11.419-0.123,22.839-0.153,34.258
			c-0.044,16.684-0.067,33.369-0.073,50.053c-0.007,17.208,0.025,34.417,0.028,51.625c0.002,16.474-0.015,32.946-0.015,49.419
			c0,14.452-0.039,28.904,0.061,43.355c0.021,3.141-0.837,4.612-4.304,4.335c-3.724-0.297-7.492-0.045-11.24-0.057
			c-18.341-0.056-36.683-0.124-55.024-0.181C26.531,353.482,21.833,353.495,17.135,353.495z M73.415,398.359
			c0.477-0.1,1.833-0.258,3.106-0.668c7.396-2.387,11.304-8.013,13.08-15.11c1.319-5.271-2.653-12.672-9.433-13.007
			c-8.323-0.413-18.948,11.353-17.839,19.384C63.147,394.885,65.513,398.286,73.415,398.359z M131.199,73.809
			c1.179,0.172,1.56,0.328,1.649,0.227c5.206-5.934,10.526-11.776,15.459-17.93c1.043-1.301,0.856-3.754,0.799-5.663
			c-0.016-0.523-1.619-0.997-2.494-1.494c-0.531,0.956-1.751,2.216-1.484,2.819c1.975,4.469-2.217,5.81-3.928,8.524
			c-0.769-2.491-0.951-4.905-1.33-7.289c-0.582-3.667-2.121-4.798-5.632-4.194c-0.622,0.107-1.475,0.565-1.652,1.063
			c-0.163,0.459,0.396,1.215,0.714,1.798c0.594,1.088,1.583,2.083,1.803,3.232c0.513,2.676,0.558,5.439,0.997,8.133
			c0.459,2.816-0.199,5.037-2.411,6.962C132.673,70.882,132.141,72.321,131.199,73.809z M640.486,335.04
			c0.59,0.534,0.924,0.841,1.261,1.142c3.716,3.309,5.235,9.315-1.379,11.895c-2.273,0.887-1.879,2.721-0.106,4.651
			c2.051-1.486,3.991-2.893,5.176-3.751c2.165,1.223,4.097,3.211,5.881,3.086c2.064-0.144,3.832-2.231,2.286-4.724
			c-1.537-1.153-3.315-2.458-3.553-3.999c-0.712-4.622,3.008-5.605,6.561-6.268c-1.723-3.756-3.556-3.888-7.786-0.879
			C646.581,333.158,643.85,333.303,640.486,335.04z M336.378,94.851c1.611-1.426,3.294-2.185,3.493-3.227
			c0.615-3.2-2.47-2.775-4.04-2.858c-1.305-0.069-2.691,1.393-4.041,2.177C333.132,92.085,334.474,93.229,336.378,94.851z"/>
		<path fill-rule="evenodd" clip-rule="evenodd" d="M17.135,353.495c4.698,0,9.396-0.013,14.094,0.002
			c18.341,0.057,36.683,0.125,55.024,0.181c3.748,0.012,7.516-0.24,11.24,0.057c3.467,0.277,4.326-1.194,4.304-4.335
			c-0.1-14.451-0.061-28.903-0.061-43.355c0-16.473,0.018-32.945,0.015-49.419c-0.003-17.208-0.035-34.416-0.028-51.625
			c0.006-16.684,0.029-33.369,0.073-50.053c0.03-11.419,0.167-22.839,0.153-34.258c-0.028-22.113-0.132-44.227-0.2-66.339
			c-0.013-4.228-0.002-8.455-0.002-14.026c-1.905,1.695-2.938,2.873-4.209,3.67c-1.168,0.733-2.593,1.058-3.905,1.562
			c0.076-1.249-0.076-2.565,0.268-3.735c1.435-4.88,2.907-9.756,4.59-14.554c1.049-2.991,2.475-5.852,3.798-8.741
			c0.218-0.476,1.031-1.193,1.139-1.125c0.655,0.419,1.483,0.93,1.714,1.596c3.042,8.789,5.993,17.608,8.967,26.421
			c-0.213,0.31-0.427,0.62-0.64,0.929c-2.431-1.625-4.862-3.249-7.955-5.314c0,7.896-0.006,15.205,0.001,22.515
			c0.021,19.07,0.095,38.14,0.045,57.211c-0.017,6.417,0.094,6.386,6.692,6.592c8.321,0.26,16.648,0.802,24.933,1.625
			c6.122,0.608,12.244,1.574,18.252,2.9c7.208,1.591,14.296,3.731,21.436,5.638c4.029,1.076,8.093,2.038,12.073,3.273
			c5.14,1.595,10.277,3.241,15.297,5.174c7.073,2.724,14.175,5.442,21.004,8.708c5.163,2.468,9.879,5.857,14.877,8.693
			c1.787,1.015,3.979,1.349,5.703,2.441c7.001,4.437,13.993,8.902,20.796,13.633c6.964,4.843,14.1,9.558,20.442,15.144
			c8.173,7.201,15.979,14.898,23.308,22.959c8.189,9.007,16.212,18.27,23.301,28.144c7.03,9.791,12.854,20.455,19.11,30.794
			c2.356,3.893,4.513,7.914,6.643,11.938c7.271,13.744,13.021,28.094,17.026,43.132c1.828,6.861,3.63,13.732,5.665,20.533
			c0.267,0.892,1.847,1.97,2.833,1.983c16.455,0.23,32.911,0.245,49.367,0.437c11.837,0.138,23.67,0.58,35.506,0.685
			c17.473,0.153,34.948,0.15,52.422,0.174c18.977,0.026,37.954,0.009,56.931,0.005c0.606,0,1.211-0.066,2.518-0.143
			c-1.76-2.463-3.255-4.556-5.404-7.563c2.395,0.307,3.941,0.288,5.35,0.721c7.521,2.31,15.017,4.705,22.492,7.161
			c0.661,0.218,1.66,1.251,1.55,1.618c-0.281,0.931-0.935,2.166-1.735,2.456c-5.516,1.987-11.125,3.714-16.665,5.634
			c-1.944,0.673-3.736,1.793-5.686,2.446c-1.404,0.471-2.954,0.505-4.439,0.734c-0.221-0.358-0.442-0.716-0.665-1.074
			c1.694-2.216,3.388-4.432,5.796-7.584c-3.508-0.356-6.007-0.736-8.518-0.835c-3.232-0.127-6.475-0.061-9.712-0.018
			c-3.533,0.048-7.067,0.269-10.599,0.232c-22.46-0.235-44.919-0.631-67.379-0.754c-17.35-0.095-34.702,0.287-52.051,0.154
			c-10.452-0.079-20.897-0.793-31.35-1.113c-5.165-0.158-10.339-0.123-15.507-0.072c-2.246,0.022-3.125,1.242-3.352,3.581
			c-0.138,1.418-1.554,2.71-2.395,4.06c-0.926-1.115-2.208-2.093-2.699-3.374c-0.903-2.357-2.152-3.729-4.835-3.767
			c-11.613-0.161-23.225-0.558-34.838-0.604c-40.481-0.16-80.963-0.248-121.446-0.289c-25.118-0.025-50.236,0.088-75.354,0.13
			c-10.611,0.018-21.226,0.16-31.833-0.062c-3.705-0.078-4.935,1.396-4.915,4.784c0.094,15.611,0.136,31.224,0.207,46.835
			c0.026,5.744,0.205,11.493,0.029,17.231c-0.04,1.293-1.271,2.55-1.952,3.824c-0.799-1.302-2.283-2.602-2.289-3.906
			c-0.047-12.955,0.188-25.91,0.263-38.866c0.051-8.973-0.07-17.948-0.016-26.922c0.021-3.315-2.207-3.018-4.343-3.02
			c-18.872-0.009-37.744-0.021-56.616-0.022c-6.247,0-12.495,0.121-18.738-0.016c-1.741-0.039-3.466-0.8-5.199-1.229
			C16.949,354.989,17.042,354.242,17.135,353.495z M111.046,352.403c0.177,0.321,0.354,0.641,0.531,0.962
			c2.338,0.139,4.675,0.397,7.013,0.4c39.36,0.057,78.721,0.056,118.081,0.12c36.606,0.062,73.212,0.192,109.818,0.273
			c9.24,0.021,18.479-0.027,27.72-0.054c1.513-0.003,3.29,0.188,2.772-2.246c-0.511-2.409-1.02-4.834-1.765-7.177
			c-3.14-9.86-6.551-19.639-9.512-29.551c-3.424-11.455-9.702-21.532-15.011-32.07c-3.36-6.67-7.294-13.056-11.067-19.514
			c-2.229-3.813-4.321-7.773-7.045-11.218c-7.287-9.217-14.669-18.374-22.423-27.195c-5.397-6.141-11.431-11.727-17.252-17.488
			c-6.741-6.671-14.223-12.41-21.975-17.878c-5.035-3.551-5.497-3.854-9.386,1.013c-0.152,0.19-0.376,0.321-0.548,0.5
			c-5.789,5.993-11.642,11.926-17.347,17.998c-7.982,8.494-15.851,17.096-23.774,25.646c-3.75,4.047-7.506,8.09-11.271,12.125
			c-7.229,7.747-14.805,15.209-21.503,23.39c-2.184,2.667-7.135,4.397-5.604,9.538c0.078,0.262-1.049,1.275-1.614,1.274
			c-3.715-0.004-5.707,2.288-7.661,5.025c-1.776,2.488-3.919,4.733-6.03,6.964c-5.492,5.804-11.142,11.459-16.57,17.321
			c-9.609,10.375-19.087,20.871-28.649,31.291C117.71,345.411,114.359,348.89,111.046,352.403z M105.558,348.115
			c0.354,0.146,0.709,0.293,1.063,0.439c1.308-1.375,2.811-2.614,3.881-4.155c1.888-2.72,3.338-5.75,5.281-8.425
			c5.368-7.393,11.076-14.542,16.323-22.017c11.655-16.606,23.105-33.355,34.653-50.038c1.906-2.752,3.9-5.444,5.829-8.182
			c3.419-4.851,6.73-9.778,10.25-14.555c4.418-5.996,9.053-11.833,13.496-17.813c4.042-5.438,7.943-10.979,11.922-16.464
			c2.378-3.28,4.869-6.481,7.164-9.818c4.111-5.977,8.073-12.055,12.175-18.038c2.221-3.239,4.667-6.324,6.887-9.564
			c1.544-2.254,0.96-3.554-1.745-4.704c-5.733-2.438-11.169-5.57-16.892-8.036c-7.977-3.437-16.075-6.603-24.185-9.719
			c-2.983-1.146-6.127-1.896-9.231-2.699c-6.538-1.69-13.089-3.336-19.653-4.923c-3.81-0.921-7.66-1.677-11.485-2.536
			c-4.672-1.05-9.289-2.649-14.015-3.086c-9.259-0.857-18.579-1.048-27.871-1.571c-2.822-0.159-3.707,1.198-3.699,3.834
			c0.022,7.962-0.102,15.924-0.146,23.886c-0.066,11.852-0.147,23.702-0.161,35.554c-0.014,13.486,0.052,26.971,0.062,40.457
			c0.013,16.975-0.009,33.95,0.007,50.925c0.013,13.738,0.064,27.477,0.089,41.216C105.568,334.762,105.558,341.438,105.558,348.115
			z M255.32,190.8c1.151-2.103-0.865-7.606-3.094-9.409c-4.272-3.457-8.297-7.218-12.494-10.913
			c-1.445,1.261-1.352,4.852,0.722,6.206c2.859,1.867,6.204,3.273,6.872,7.242c0.053,0.312,0.4,0.612,0.675,0.841
			C250.443,186.796,252.9,188.809,255.32,190.8z M247.775,199.039c1.732-2.326,2.032-4.148,0.062-5.914
			c-1.972-1.769-3.96-3.519-5.946-5.272c-1.275-1.126-2.689-2.129-3.807-3.394c-1.602-1.813-2.99-3.815-4.469-5.735
			c-0.564,0.45-1.129,0.901-1.693,1.351C234.177,188.511,242.687,192.1,247.775,199.039z M227.518,188.486
			c-0.482,0.146-0.964,0.293-1.446,0.439c0.27,1.174,0.179,2.652,0.87,3.47c2.946,3.487,6.108,6.793,9.225,10.135
			c1.044,1.12,2.065,2.35,3.342,3.125c0.505,0.307,1.677-0.485,2.546-0.778c-0.531-1.446-0.725-3.181-1.663-4.277
			c-1.885-2.201-4.169-4.062-6.302-6.047C231.908,192.521,229.709,190.507,227.518,188.486z M225.98,201.458
			c0.087-0.059,0.174-0.117,0.26-0.175c-1.464-1.313-2.927-2.626-4.545-4.077c-2.274,0.981-2.626,2.718-0.396,5
			c3.374,3.452,6.822,6.833,10.327,10.15c0.605,0.574,1.654,0.679,2.498,1c0.146-1.039,0.797-2.495,0.347-3.04
			c-1.664-2.009-3.721-3.688-5.57-5.55C227.866,203.723,226.95,202.563,225.98,201.458z M215.252,205.973
			c-0.537,0.208-1.074,0.415-1.61,0.622c0.271,1.114,0.22,2.491,0.875,3.291c1.745,2.134,3.799,4.015,5.719,6.007
			c1.663,1.725,3.271,3.51,5.047,5.108c0.13,0.117,2.1-1.097,2.078-1.648c-0.097-2.526-2.071-3.59-3.96-5.042
			C220.35,211.965,217.936,208.795,215.252,205.973z M205.862,215.856c4.438,4.67,8.227,8.724,12.141,12.651
			c0.32,0.321,1.499-0.212,2.313-0.354C218.633,222.422,210.85,215.105,205.862,215.856z M202.647,222.559
			c-0.558,0.718-1.407,1.347-1.316,1.78c0.291,1.392,0.612,2.986,1.497,4.004c2.047,2.359,4.373,4.491,6.716,6.568
			c0.674,0.596,1.794,0.687,2.71,1.01c0.042-0.888,0.476-2.089,0.059-2.609c-2.038-2.548-4.296-4.918-6.489-7.34
			C204.847,224.894,203.842,223.84,202.647,222.559z M206.504,241.977c-1.021-1.27-1.788-2.488-2.807-3.433
			c-1.933-1.795-3.951-3.515-6.074-5.075c-0.492-0.362-1.544,0.035-2.339,0.083c0.259,0.849,0.296,1.882,0.818,2.512
			c1.986,2.4,4.029,4.771,6.242,6.959C204.327,244.981,205.808,244.336,206.504,241.977z M192.669,257.472
			c-2.673-2.75-4.705-4.906-6.819-6.977c-0.69-0.677-1.598-1.129-2.407-1.684c-0.463,1.021-1.456,2.161-1.257,3.031
			c0.253,1.11,1.425,2.04,2.28,2.976c0.935,1.024,1.863,2.104,2.978,2.903c0.918,0.658,2.138,1.356,3.161,1.271
			C191.493,258.919,192.292,257.773,192.669,257.472z M187.258,241.88c3.292,3.504,5.407,5.994,7.802,8.178
			c0.838,0.764,2.364,0.773,3.576,1.127c0.085-0.783,0.545-1.907,0.194-2.296c-2.281-2.521-4.624-5.019-7.217-7.2
			C190.952,241.134,189.31,241.748,187.258,241.88z M176.154,258.644c-0.564,3.649,4.405,8.62,7.362,7.798
			c0.359-0.101,0.991-0.221,1.007-0.381c0.082-0.818,0.329-2.135-0.07-2.403C181.881,261.924,179.156,260.417,176.154,258.644z
			 M167.942,283.849c0.409-0.227,0.819-0.452,1.229-0.679c0.338-1.758-2.579-7.086-4.017-7.012c-0.55,0.027-1.608,1.496-1.477,1.703
			C164.985,279.93,166.492,281.871,167.942,283.849z M161.584,291.172c0.967-3.204,0.967-3.204-3.579-5.738
			C156.938,286.93,156.938,286.93,161.584,291.172z M154.586,293.583c-1.764,0.665-2.887,1.088-4.01,1.511
			c1.014,1.556,2.027,3.111,3.041,4.668c0.323-0.094,0.646-0.188,0.969-0.28C154.586,297.835,154.586,296.188,154.586,293.583z
			 M146.577,307.175c0.401-0.048,0.802-0.097,1.203-0.146c-0.132-1.801-0.265-3.604-0.419-5.721
			C144.152,303.115,144.129,303.898,146.577,307.175z"/>
		<path fill-rule="evenodd" clip-rule="evenodd" d="M73.415,398.359c-7.902-0.073-10.268-3.475-11.085-9.401
			c-1.109-8.031,9.516-19.797,17.839-19.384c6.78,0.335,10.751,7.736,9.433,13.007c-1.776,7.098-5.684,12.724-13.08,15.11
			C75.248,398.102,73.892,398.26,73.415,398.359z M67.715,388.587c0.891,2.096,1.339,4.64,2.839,6.117
			c0.888,0.876,4.037,0.794,5.136-0.111c5.25-4.323,8.577-9.854,8.22-16.974c-0.164-3.257-3.408-5.068-6.544-4.033
			C71.372,375.564,68.37,381.655,67.715,388.587z"/>
		<path fill-rule="evenodd" clip-rule="evenodd" d="M131.199,73.809c0.942-1.488,1.475-2.927,2.491-3.811
			c2.211-1.925,2.87-4.146,2.411-6.962c-0.439-2.694-0.484-5.457-0.997-8.133c-0.22-1.149-1.209-2.144-1.803-3.232
			c-0.318-0.583-0.877-1.338-0.714-1.798c0.177-0.498,1.03-0.957,1.652-1.063c3.512-0.604,5.051,0.527,5.632,4.194
			c0.378,2.383,0.561,4.798,1.33,7.289c1.71-2.714,5.902-4.055,3.928-8.524c-0.267-0.604,0.953-1.863,1.484-2.819
			c0.875,0.497,2.478,0.971,2.494,1.494c0.057,1.909,0.245,4.362-0.799,5.663c-4.933,6.154-10.253,11.997-15.459,17.93
			C132.759,74.137,132.378,73.981,131.199,73.809z"/>
		<path fill-rule="evenodd" clip-rule="evenodd" d="M640.486,335.04c3.363-1.737,6.095-1.882,8.34,1.153
			c4.23-3.009,6.063-2.877,7.786,0.879c-3.553,0.662-7.272,1.646-6.561,6.268c0.237,1.541,2.016,2.846,3.553,3.999
			c1.546,2.492-0.222,4.58-2.286,4.724c-1.784,0.125-3.716-1.863-5.881-3.086c-1.185,0.858-3.125,2.265-5.176,3.751
			c-1.772-1.931-2.167-3.765,0.106-4.651c6.614-2.579,5.095-8.586,1.379-11.895C641.41,335.881,641.076,335.574,640.486,335.04z"/>
		<path fill-rule="evenodd" clip-rule="evenodd" d="M336.378,94.851c-1.904-1.623-3.246-2.766-4.587-3.909
			c1.349-0.784,2.736-2.246,4.041-2.177c1.57,0.083,4.655-0.342,4.04,2.858C339.672,92.667,337.989,93.425,336.378,94.851z"/>
		<path fill-rule="evenodd" clip-rule="evenodd" fill="#FFFFFF" d="M111.046,352.403c3.313-3.514,6.664-6.992,9.929-10.549
			c9.562-10.42,19.04-20.916,28.649-31.291c5.429-5.862,11.079-11.518,16.57-17.321c2.111-2.23,4.254-4.476,6.03-6.964
			c1.954-2.737,3.945-5.029,7.661-5.025c0.565,0.001,1.692-1.013,1.614-1.274c-1.532-5.141,3.42-6.871,5.604-9.538
			c6.698-8.181,14.275-15.643,21.503-23.39c3.765-4.035,7.521-8.078,11.271-12.125c7.923-8.551,15.792-17.152,23.774-25.646
			c5.705-6.072,11.558-12.005,17.347-17.998c0.171-0.178,0.396-0.309,0.548-0.5c3.889-4.867,4.351-4.564,9.386-1.013
			c7.752,5.468,15.234,11.207,21.975,17.878c5.821,5.761,11.855,11.347,17.252,17.488c7.754,8.821,15.137,17.979,22.423,27.195
			c2.724,3.444,4.815,7.404,7.045,11.218c3.773,6.458,7.707,12.844,11.067,19.514c5.309,10.538,11.587,20.615,15.011,32.07
			c2.961,9.912,6.372,19.69,9.512,29.551c0.745,2.343,1.254,4.768,1.765,7.177c0.518,2.435-1.26,2.243-2.772,2.246
			c-9.24,0.026-18.479,0.074-27.72,0.054c-36.606-0.081-73.211-0.212-109.818-0.273c-39.36-0.064-78.721-0.063-118.081-0.12
			c-2.338-0.003-4.675-0.262-7.013-0.4C111.4,353.044,111.224,352.725,111.046,352.403z M232.39,275.313
			c-0.037-0.434-0.123-1.304-0.184-2.176c-0.333-4.723-1.581-5.711-6.315-5.685c-4.227,0.022-6.269,2.846-8.225,5.86
			c-3.418,5.265-6.387,10.702-5.908,17.307c0.36,4.959,3.875,7.272,8.572,5.64C226.914,293.969,232.79,283.995,232.39,275.313z
			 M204.935,277.696c-7.68-0.835-12.18,2.966-14.628,9.003c-0.896,2.211-0.295,5.358,0.529,7.769c0.31,0.905,3.298,1.51,4.873,1.216
			c2.156-0.401,3.921-0.996,6.291-0.149c1.524,0.543,3.775-0.952,5.365-1.433c-0.853-2.223-1.941-3.617-1.725-4.765
			c0.642-3.405,1.809-6.709,2.749-10.06c1.038-3.7,2.05-7.407,3.265-11.807c-3.057,0.16-4.944,0.26-6.078,0.319
			C205.342,271.38,205.146,274.423,204.935,277.696z"/>
		<path fill-rule="evenodd" clip-rule="evenodd" fill="#FFFFFF" d="M105.558,348.115c0-6.677,0.01-13.354-0.002-20.031
			c-0.024-13.739-0.076-27.478-0.089-41.216c-0.016-16.975,0.005-33.95-0.007-50.925c-0.009-13.486-0.075-26.971-0.062-40.457
			c0.013-11.852,0.095-23.702,0.161-35.554c0.044-7.962,0.169-15.924,0.146-23.886c-0.007-2.636,0.877-3.993,3.699-3.834
			c9.292,0.523,18.612,0.714,27.871,1.571c4.726,0.438,9.343,2.037,14.015,3.086c3.825,0.859,7.675,1.614,11.485,2.536
			c6.564,1.587,13.115,3.233,19.653,4.923c3.104,0.803,6.248,1.553,9.231,2.699c8.11,3.117,16.208,6.282,24.185,9.719
			c5.723,2.466,11.159,5.598,16.892,8.036c2.705,1.15,3.289,2.45,1.745,4.704c-2.22,3.24-4.666,6.325-6.887,9.564
			c-4.102,5.983-8.064,12.062-12.175,18.038c-2.295,3.337-4.786,6.539-7.164,9.818c-3.979,5.485-7.88,11.026-11.922,16.464
			c-4.443,5.979-9.078,11.816-13.496,17.813c-3.519,4.776-6.831,9.704-10.25,14.555c-1.929,2.737-3.922,5.43-5.829,8.182
			c-11.548,16.683-22.998,33.432-34.653,50.038c-5.247,7.475-10.955,14.624-16.323,22.017c-1.943,2.675-3.393,5.705-5.281,8.425
			c-1.07,1.541-2.574,2.78-3.881,4.155C106.267,348.408,105.913,348.262,105.558,348.115z M159.499,236.079
			c2.477,0.988,4.18,0.827,5.33-2.507c1.32-3.825,2.126-8.552,8.069-8.361c0.65,0.021,1.526-2.508,1.984-3.953
			c0.125-0.392-0.878-1.638-1.395-1.656c-3.876-0.144-7.759-0.079-10.545-0.079C161.7,225.496,160.625,230.663,159.499,236.079z"/>
		<path fill-rule="evenodd" clip-rule="evenodd" fill="#FFFFFF" d="M255.32,190.8c-2.42-1.991-4.877-4.003-7.32-6.033
			c-0.275-0.229-0.622-0.529-0.675-0.841c-0.667-3.969-4.013-5.375-6.872-7.242c-2.074-1.354-2.167-4.945-0.722-6.206
			c4.197,3.695,8.222,7.456,12.494,10.913C254.456,183.194,256.471,188.697,255.32,190.8z"/>
		<path fill-rule="evenodd" clip-rule="evenodd" fill="#FFFFFF" d="M247.775,199.039c-5.088-6.939-13.598-10.528-15.853-18.964
			c0.564-0.45,1.129-0.901,1.693-1.351c1.479,1.92,2.867,3.922,4.469,5.735c1.118,1.265,2.531,2.268,3.807,3.394
			c1.985,1.753,3.974,3.503,5.946,5.272C249.807,194.891,249.507,196.713,247.775,199.039z"/>
		<path fill-rule="evenodd" clip-rule="evenodd" fill="#FFFFFF" d="M227.518,188.486c2.192,2.021,4.391,4.035,6.572,6.067
			c2.133,1.986,4.417,3.846,6.302,6.047c0.938,1.097,1.132,2.832,1.663,4.277c-0.869,0.292-2.042,1.085-2.546,0.778
			c-1.277-0.775-2.297-2.005-3.342-3.125c-3.116-3.342-6.278-6.648-9.225-10.135c-0.691-0.818-0.601-2.295-0.87-3.47
			C226.554,188.779,227.036,188.632,227.518,188.486z"/>
		<path fill-rule="evenodd" clip-rule="evenodd" fill="#FFFFFF" d="M225.98,201.458c0.97,1.106,1.886,2.266,2.92,3.308
			c1.849,1.863,3.907,3.541,5.57,5.55c0.451,0.545-0.201,2.001-0.347,3.04c-0.844-0.321-1.892-0.427-2.498-1
			c-3.505-3.317-6.953-6.699-10.327-10.15c-2.23-2.281-1.878-4.018,0.396-5c1.618,1.451,3.081,2.765,4.545,4.077
			C226.154,201.34,226.067,201.399,225.98,201.458z"/>
		<path fill-rule="evenodd" clip-rule="evenodd" fill="#FFFFFF" d="M215.252,205.973c2.684,2.822,5.098,5.992,8.147,8.337
			c1.889,1.453,3.864,2.516,3.96,5.042c0.021,0.552-1.948,1.766-2.078,1.648c-1.776-1.598-3.384-3.383-5.047-5.108
			c-1.92-1.992-3.974-3.873-5.719-6.007c-0.654-0.8-0.604-2.177-0.875-3.291C214.178,206.388,214.715,206.181,215.252,205.973z"/>
		<path fill-rule="evenodd" clip-rule="evenodd" fill="#FFFFFF" d="M205.862,215.856c4.988-0.751,12.771,6.565,14.454,12.297
			c-0.814,0.143-1.993,0.676-2.313,0.354C214.088,224.58,210.3,220.526,205.862,215.856z"/>
		<path fill-rule="evenodd" clip-rule="evenodd" fill="#FFFFFF" d="M202.647,222.559c1.195,1.281,2.2,2.335,3.176,3.413
			c2.193,2.422,4.452,4.792,6.489,7.34c0.417,0.521-0.017,1.722-0.059,2.609c-0.916-0.323-2.037-0.414-2.71-1.01
			c-2.343-2.077-4.668-4.209-6.716-6.568c-0.884-1.018-1.206-2.612-1.497-4.004C201.24,223.905,202.089,223.276,202.647,222.559z"/>
		<path fill-rule="evenodd" clip-rule="evenodd" fill="#FFFFFF" d="M206.504,241.977c-0.696,2.359-2.177,3.005-4.16,1.046
			c-2.213-2.188-4.256-4.559-6.242-6.959c-0.522-0.63-0.559-1.663-0.818-2.512c0.795-0.048,1.847-0.445,2.339-0.083
			c2.123,1.561,4.141,3.28,6.074,5.075C204.716,239.488,205.482,240.707,206.504,241.977z"/>
		<path fill-rule="evenodd" clip-rule="evenodd" fill="#FFFFFF" d="M192.669,257.472c-0.377,0.302-1.177,1.447-2.065,1.521
			c-1.022,0.086-2.243-0.612-3.161-1.271c-1.114-0.8-2.042-1.879-2.978-2.903c-0.855-0.936-2.027-1.865-2.28-2.976
			c-0.199-0.87,0.794-2.011,1.257-3.031c0.809,0.555,1.717,1.007,2.407,1.684C187.965,252.565,189.996,254.722,192.669,257.472z"/>
		<path fill-rule="evenodd" clip-rule="evenodd" fill="#FFFFFF" d="M187.258,241.88c2.052-0.132,3.694-0.746,4.354-0.191
			c2.594,2.182,4.937,4.679,7.217,7.2c0.352,0.389-0.109,1.513-0.194,2.296c-1.212-0.354-2.738-0.363-3.576-1.127
			C192.665,247.874,190.549,245.384,187.258,241.88z"/>
		<path fill-rule="evenodd" clip-rule="evenodd" fill="#FFFFFF" d="M176.154,258.644c3.002,1.773,5.727,3.28,8.299,5.014
			c0.399,0.269,0.152,1.585,0.07,2.403c-0.016,0.16-0.648,0.28-1.007,0.381C180.559,267.264,175.59,262.293,176.154,258.644z"/>
		<path fill-rule="evenodd" clip-rule="evenodd" fill="#FFFFFF" d="M167.942,283.849c-1.451-1.978-2.958-3.919-4.264-5.987
			c-0.131-0.207,0.927-1.676,1.477-1.703c1.438-0.074,4.355,5.254,4.017,7.012C168.762,283.396,168.352,283.622,167.942,283.849z"/>
		<path fill-rule="evenodd" clip-rule="evenodd" fill="#FFFFFF" d="M161.584,291.172c-4.646-4.242-4.646-4.242-3.579-5.738
			C162.551,287.968,162.551,287.968,161.584,291.172z"/>
		<path fill-rule="evenodd" clip-rule="evenodd" fill="#FFFFFF" d="M154.586,293.583c0,2.605,0,4.252,0,5.898
			c-0.323,0.093-0.646,0.187-0.969,0.28c-1.014-1.557-2.027-3.112-3.041-4.668C151.699,294.671,152.822,294.248,154.586,293.583z"/>
		<path fill-rule="evenodd" clip-rule="evenodd" fill="#FFFFFF" d="M146.577,307.175c-2.448-3.276-2.425-4.06,0.784-5.866
			c0.154,2.117,0.287,3.92,0.419,5.721C147.379,307.078,146.978,307.127,146.577,307.175z"/>
		<path fill-rule="evenodd" clip-rule="evenodd" fill="#FFFFFF" d="M67.715,388.587c0.654-6.932,3.656-13.022,9.651-15.001
			c3.136-1.035,6.38,0.776,6.544,4.033c0.357,7.119-2.97,12.65-8.22,16.974c-1.099,0.905-4.248,0.987-5.136,0.111
			C69.054,393.227,68.606,390.683,67.715,388.587z"/>
		<path fill-rule="evenodd" clip-rule="evenodd" d="M232.39,275.313c0.4,8.683-5.476,18.656-12.061,20.946
			c-4.697,1.633-8.211-0.681-8.572-5.64c-0.479-6.604,2.489-12.042,5.908-17.307c1.957-3.015,3.998-5.838,8.225-5.86
			c4.735-0.026,5.982,0.962,6.315,5.685C232.267,274.009,232.353,274.879,232.39,275.313z M224.674,280.683
			c0.352-0.262,2.314-0.994,2.445-1.973c0.362-2.687-0.045-5.478-0.147-8.228c-0.743,0.068-1.817-0.149-2.169,0.258
			c-1.504,1.737-3.064,3.521-4.103,5.547C218.921,279.753,219.626,280.692,224.674,280.683z M217.672,283.705
			c-0.368,2.367-0.826,4.536-0.984,6.726c-0.064,0.871,0.343,2.375,0.879,2.553c0.852,0.281,2.452,0.04,2.929-0.591
			c1.937-2.557,3.567-5.348,5.719-8.688C222.8,283.705,220.479,283.705,217.672,283.705z"/>
		<path fill-rule="evenodd" clip-rule="evenodd" d="M204.935,277.696c0.211-3.273,0.407-6.316,0.64-9.906
			c1.134-0.06,3.021-0.159,6.078-0.319c-1.215,4.399-2.228,8.106-3.265,11.807c-0.939,3.351-2.107,6.654-2.749,10.06
			c-0.216,1.147,0.872,2.542,1.725,4.765c-1.59,0.48-3.841,1.976-5.365,1.433c-2.37-0.847-4.135-0.252-6.291,0.149
			c-1.574,0.294-4.563-0.311-4.873-1.216c-0.824-2.41-1.425-5.558-0.529-7.769C192.755,280.662,197.255,276.861,204.935,277.696z
			 M201.28,280.126c-0.54-0.037-1.08-0.075-1.621-0.111c-1.272,1.628-2.923,3.093-3.717,4.928c-0.887,2.051-0.997,4.438-1.445,6.679
			c0.868,0.134,2.279,0.665,2.518,0.338c2.008-2.744,3.96-5.562,5.538-8.563C202.911,282.717,201.745,281.237,201.28,280.126z"/>
		<path fill-rule="evenodd" clip-rule="evenodd" d="M159.499,236.079c1.126-5.416,2.201-10.583,3.443-16.557
			c2.786,0,6.669-0.064,10.545,0.079c0.516,0.019,1.519,1.265,1.395,1.656c-0.458,1.445-1.334,3.975-1.984,3.953
			c-5.943-0.19-6.75,4.536-8.069,8.361C163.678,236.906,161.976,237.067,159.499,236.079z"/>
		<path fill-rule="evenodd" clip-rule="evenodd" fill="#FFFFFF" d="M224.674,280.683c-5.048,0.01-5.753-0.93-3.975-4.396
			c1.039-2.025,2.599-3.81,4.103-5.547c0.352-0.407,1.427-0.189,2.169-0.258c0.103,2.75,0.509,5.541,0.147,8.228
			C226.988,279.688,225.025,280.421,224.674,280.683z"/>
		<path fill-rule="evenodd" clip-rule="evenodd" fill="#FFFFFF" d="M217.672,283.705c2.808,0,5.128,0,8.543,0
			c-2.152,3.34-3.782,6.131-5.719,8.688c-0.478,0.631-2.077,0.872-2.929,0.591c-0.536-0.178-0.943-1.682-0.879-2.553
			C216.846,288.241,217.304,286.072,217.672,283.705z"/>
		<path fill-rule="evenodd" clip-rule="evenodd" fill="#FFFFFF" d="M201.28,280.126c0.465,1.111,1.63,2.591,1.273,3.271
			c-1.578,3.001-3.53,5.818-5.538,8.563c-0.239,0.327-1.65-0.204-2.518-0.338c0.448-2.24,0.558-4.628,1.445-6.679
			c0.794-1.835,2.445-3.3,3.717-4.928C200.2,280.051,200.74,280.089,201.28,280.126z"/>
	</g>
</g>
</svg>
