<?xml version="1.0" encoding="utf-8"?>
<!-- Generator: Adobe Illustrator 16.0.0, SVG Export Plug-In . SVG Version: 6.00 Build 0)  -->
<!DOCTYPE svg PUBLIC "-//W3C//DTD SVG 1.1//EN" "http://www.w3.org/Graphics/SVG/1.1/DTD/svg11.dtd">
<svg version="1.1" id="Layer_1" xmlns="http://www.w3.org/2000/svg" xmlns:xlink="http://www.w3.org/1999/xlink" x="0px" y="0px"
	 width="614.336px" height="413.308px" viewBox="0 0 614.336 413.308" enable-background="new 0 0 614.336 413.308"
	 xml:space="preserve">
<g>
	<g>
		<path fill-rule="evenodd" clip-rule="evenodd" fill="#FFFFFF" d="M615.086,414.058c-204.778,0-409.557,0-614.336,0
			c0-137.77,0-275.538,0-413.308c204.779,0,409.558,0,614.336,0C615.086,138.52,615.086,276.288,615.086,414.058z M448.12,105.905
			c0.877,1.173,1.54,1.896,2.017,2.725c2.767,4.814,6.946,7.044,12.448,7.034c17.246-0.032,34.492,0.026,51.737-0.084
			c4.677-0.029,8.64-2.06,10.193-6.63c1.377-4.049,2.55-8.399,2.591-12.628c0.138-14.357-0.272-28.719-0.461-43.079
			c-0.156-11.877-6.491-15.259-15.052-15.537c-16.222-0.525-32.476-0.259-48.711-0.027c-7.827,0.112-15.301,5.203-14.943,14.949
			c0.333,9.109,0.146,18.237,0.098,27.357c-0.009,1.439-0.104,3.119-0.824,4.272c-2.605,4.168-5.464,8.179-8.282,12.212
			c-3.103,4.439-6.348,8.781-9.37,13.272c-1.639,2.436-3.131,2.704-5.384,0.613c-1.243-1.154-2.42-2.69-3.918-3.206
			c-8.835-3.034-17.414-7.204-26.85-6.646c-0.62-1.311-1.138-2.404-1.655-3.498c-0.717,0.949-1.42,1.91-2.16,2.841
			c-0.216,0.271-0.501,0.581-0.813,0.67c-6.645,1.906-13.207,4.513-19.987,5.359c-3.45,0.431-4.675,0.642-4.432,4.079
			c0.041,0.587-0.804,1.367-1.405,1.85c-7.341,5.881-13.465,12.684-16.625,21.749c-0.982,2.815-1.745,5.716-2.903,8.454
			c-0.415,0.98-1.696,1.596-2.587,2.375c-0.587,0.514-1.648,1.007-1.663,1.533c-0.022,0.842,0.539,1.776,1.055,2.535
			c0.488,0.719,1.723,1.216,1.787,1.891c0.337,3.564,0.407,7.155,0.507,9.337c-1.587,2.192-2.519,3.478-3.45,4.765
			c1.414,0.974,2.828,1.948,4.241,2.922c0.249-0.273,0.498-0.546,0.747-0.819c2.735,9.062,6.762,17.425,14.049,24.535
			c-1.424,0.183-1.778,0.252-2.134,0.271c-1.165,0.059-2.335,0.065-3.485,0.223c-0.078,0.01-0.203,1.517,0.027,1.626
			c0.987,0.468,2.102,0.671,3.169,0.977c2.819,0.805,5.666-0.295,8.695,1.802c5.346,3.699,11.548,6.159,17.533,9.211
			c0.421,1.049,1.013,2.521,1.604,3.993c0.354-0.018,0.708-0.035,1.063-0.052c0.57-1.382,1.142-2.763,1.601-3.876
			c1.313,0.573,2.667,1.717,3.891,1.591c3.3-0.341,6.525-1.652,9.814-1.795c6.009-0.262,11.649-1.034,17.21-3.834
			c9.127-4.599,16.978-10.607,22.166-19.317c6.452-10.83,10.682-22.431,8.003-35.475c-1.837-8.94-4.801-17.337-10.662-24.55
			c-0.677-0.833-0.848-3.1-0.23-3.794C440.045,113.956,444.012,110.098,448.12,105.905z M226.094,262.434
			c0-12.528,0.009-24.118-0.003-35.706c-0.008-7.365,0.677-14.825-0.28-22.067c-0.931-7.051,3.866-13.956,0.002-20.87
			c-0.1-0.181,0.046-0.489,0.05-0.737c0.045-3.235-0.106-6.491,0.219-9.697c0.128-1.259,1.291-2.428,2.039-3.602
			c0.479-0.754,1.488-1.445,1.485-2.161c-0.003-0.78-0.857-1.591-1.421-2.326c-0.725-0.944-2.155-1.798-2.198-2.739
			c-0.227-4.981-0.208-9.98-0.032-14.965c0.032-0.907,1.178-1.782,1.828-2.658c0.584-0.784,1.584-1.507,1.672-2.333
			c0.072-0.68-0.937-1.466-1.446-2.218c-0.703-1.038-1.917-2.053-1.988-3.138c-0.292-4.483-0.31-8.989-0.28-13.485
			c0.02-3.034-1.446-6.401,1.833-8.861c0.339-0.254-0.03-1.594-0.225-2.392c-0.529-2.168-1.556-4.3-1.642-6.475
			c-0.282-7.204-0.262-14.42-0.309-21.633c-0.039-5.966-0.008-11.931-0.008-19.015c5.39,1.709,10.232,3.194,15.04,4.788
			c3.018,1,5.983,2.163,8.971,3.252c0.29-0.452,0.579-0.905,0.869-1.357c-1.062-1.793-2.125-3.585-3.339-5.636
			c39.683,0,79.117,0,119.009,0c-1.77,2.521-3.192,4.546-4.614,6.572c0.216,0.339,0.431,0.678,0.646,1.017
			c8.638-2.94,17.275-5.88,26.249-8.934c-4.406-3.23-24.806-9.545-27.417-8.387c1.356,1.75,2.653,3.422,4.305,5.55
			c-39.986,0-79.357,0-118.772,0c1.372-2.354,2.517-4.317,4.238-7.269c-3.717,0.753-6.449,1-8.958,1.883
			c-4.356,1.53-8.534,3.559-12.869,5.155c-1.631,0.601-3.379,0.315-3.388-2.098c-0.026-7.549-0.009-15.097-0.009-23.297
			c2.737,1.747,4.938,3.152,7.139,4.557c0.369-0.214,0.738-0.429,1.107-0.644c-3.11-8.482-6.222-16.964-9.332-25.445
			c-0.462,0.064-0.925,0.128-1.387,0.193c-2.675,8.472-5.349,16.944-8.024,25.417c0.362,0.175,0.724,0.351,1.085,0.526
			c1.945-1.543,3.89-3.085,6.523-5.175c0,2.904-0.007,4.982,0.001,7.06c0.09,21.71,0.214,43.421,0.195,65.131
			c-0.001,1.326-1.19,2.63-1.729,3.984c-0.361,0.909-0.821,2.702-0.777,2.717c3.66,1.216,2.345,4.278,2.395,6.655
			c0.13,6.172,0.044,12.35,0.044,18.525c-0.391-0.195-0.783-0.39-1.174-0.585c-1.146,1.098-2.293,2.196-3.439,3.293
			c1.25,1,2.499,2,4.523,3.622c0,5.272,0,11.701,0,18.205c-0.313,0.14-0.689,0.227-0.96,0.444c-1.128,0.905-2.225,1.849-3.333,2.778
			c1.009,0.629,2.089,1.169,3.002,1.915c0.662,0.542,1.521,1.323,1.574,2.05c0.29,3.972,1.413,8.317,0.221,11.849
			c-1.321,3.911-0.675,7.022-0.253,10.8c0.912,8.178,0.434,16.511,0.51,24.78c0.121,13.116,0.135,26.234,0.417,39.347
			c0.066,3.063-1.32,3.583-3.785,3.563c-6.552-0.054-13.107-0.144-19.658-0.027c-5.336,0.095-10.668,0.699-16,0.661
			c-7.535-0.055-15.067-0.658-22.603-0.707c-5.024-0.033-10.052,0.731-15.076,0.708c-6.877-0.034-13.752-0.483-20.629-0.736
			c-0.618-0.022-1.242,0.079-1.863,0.136c-2.581,0.234-5.167,0.708-7.743,0.662c-5.112-0.091-10.217-0.649-15.328-0.691
			c-13.855-0.112-27.712-0.081-41.567-0.059c-10.17,0.017-20.34,0.068-30.509,0.207c-1.886,0.026-4.405-1.219-5.27,1.875
			c1.758,0.475,3.516,1.362,5.274,1.364c63.624,0.04,127.247,0.014,190.871-0.085c2.702-0.003,3.771,0.643,3.759,3.522
			c-0.054,13.491-0.031,26.984,0.218,40.473c0.064,3.486-1.265,4.14-4.375,4.041c-12.238-0.387-24.484-0.57-36.727-0.804
			c-2.843-0.054-5.688-0.008-8.591-0.008c0.066,2.785,1.041,3.826,3.639,3.901c14.078,0.407,28.148,1.068,42.226,1.469
			c3.167,0.09,4.195,1.304,3.918,4.338c-0.227,2.479-0.067,4.993-0.069,7.492c-0.004,5.448-0.001,10.896-0.001,16.124
			c-2.777,0.522-4.949,1.143-7.142,1.23c-0.782,0.031-1.958-1.077-2.333-1.936c-0.416-0.949-0.093-2.21-0.136-3.334
			c-0.174-4.591-1.278-5.604-5.79-4.338c-4.211,1.181-8.243,2.985-12.393,4.401c-5.976,2.039-11.949,4.098-17.997,5.907
			c-3.309,0.989-4.143,2.321-3.042,5.536c5.229,1.28,10.273,2.342,15.211,3.771c5.218,1.51,10.227,3.974,15.523,4.934
			c7.981,1.445,8.054,1.044,8.469-6.839c0.177-3.36,1.864-4.284,6.787-4.226c3.443,0.04,2.879,2.399,2.902,4.445
			c0.07,6.371,0.042,12.744,0.159,19.115c0.025,1.353,0.498,2.698,0.765,4.047c0.414,0.012,0.827,0.022,1.241,0.033
			c0.282-1.463,0.792-2.924,0.807-4.39c0.066-6.103-0.058-12.206-0.032-18.31c0.022-5.102,0.966-6.038,6.17-6.374
			c1.121-0.072,2.267,0.105,3.371-0.048c4.144-0.577,8.314-1.059,12.399-1.927c4.279-0.909,8.543-2.01,12.683-3.414
			c4.465-1.514,9.352-1.751,12.852-6.021c3.67-4.477,3.393-10.876-2.054-13.092c-6.975-2.839-14.216-5.179-21.526-6.993
			c-6.432-1.597-13.134-2.08-19.681-3.254c-2.228-0.399-4.593-0.829-4.572-4.23c0.088-13.864,0.038-27.73-0.107-41.594
			c-0.029-2.742,0.759-3.714,3.604-3.683c12.748,0.14,25.499,0.084,38.25,0.087c79,0.015,158,0.027,237,0.04
			c6.44,0.001,12.88,0.001,20.194,0.001c-1.996,2.621-3.405,4.472-4.814,6.323c0.304,0.445,0.607,0.891,0.912,1.337
			c8.41-2.84,16.82-5.679,25.23-8.518c-0.044-0.331-0.087-0.663-0.13-0.994c-8.513-2.933-17.025-5.866-25.538-8.799
			c-0.132,0.341-0.264,0.682-0.396,1.023c1.22,2.172,2.439,4.344,3.651,6.502C424.589,262.434,325.719,262.434,226.094,262.434z
			 M72.796,97.939c-2.624-0.522-3.755-1.284-5.065,1.181c-0.995,1.872-3.636,3.928-5.637,4.026
			c-10.251,0.506-18.967,4.78-26.602,10.94c-8.415,6.79-13.99,15.891-17.174,26.271c-3.018,9.838-2.741,19.854,0.465,29.484
			c1.924,5.779,4.642,11.624,8.355,16.384c3.741,4.796,8.19,9.166,13.754,12.502c7.271,4.36,14.812,6.773,23.098,7.725
			c6.616,0.76,13.266-1.645,19.852,0.416c0.465,0.146,1.286-0.663,1.866-1.124c0.548-0.435,0.909-1.155,1.5-1.476
			c5.394-2.928,10.779-5.88,16.272-8.614c1.191-0.593,2.805-0.326,4.221-0.482c1.168-0.129,2.33-0.298,3.495-0.45
			c0.76-0.099,1.933,0.048,2.177-0.36c0.331-0.552,0.225-1.782-0.206-2.258c-0.437-0.482-1.59-0.699-2.259-0.488
			c-0.837,0.262-1.501,1.078-2.271,1.68c-1.677-2.789-1.48-3.337,0.494-5.078c1.443-1.272,2.912-2.72,3.784-4.394
			c2.276-4.364,3.674-9.288,6.473-13.247c2.696-3.814,3.818-7.091,2.163-11.594c-0.708-1.929,0.133-4.4,0.141-6.625
			c0.015-3.999,2.018-8.045-2.104-11.756c-2.036-1.833-2.012-5.789-3.392-8.549c-3.788-7.577-8.464-14.458-15.988-18.961
			c-1.127-0.674-1.792-2.119-2.67-3.207c1.644-0.14,2.492,0.587,3.325,0.57c0.665-0.013,1.311-0.934,1.964-1.451
			c-0.56-0.652-1.049-1.782-1.69-1.876c-3.926-0.579-7.922-0.717-11.828-1.391c-6.626-1.144-13.202-2.577-20.036-3.936
			C70.436,100.527,71.292,99.588,72.796,97.939z M72.225,300.315c9.198,0.71,13.74-6.688,15.572-13.938
			c1.308-5.173-2.246-7.653-5.848-10.017c-3.056-2.005-5.583-0.955-7.869,1.437c-0.233,0.244-0.652,0.343-1.004,0.438
			c-6.224,1.7-8.009,6.824-9.043,12.23C62.87,296.549,66.09,300.198,72.225,300.315z M308.412,58.415
			c0.058-0.151,0.114-0.302,0.172-0.453c1.555,0.473,3.158,1.396,4.646,1.24c0.801-0.083,2.221-2.274,1.969-3.075
			c-1.408-4.474,0.759-8.302,1.754-12.326c0.726-2.936,1.681-5.815,2.74-9.422c-2.481,0.211-4.082,0.346-5.56,0.472
			c0.156,1.981,0.648,3.547,0.272,4.866c-0.325,1.143-1.665,2.882-2.504,2.853c-6.634-0.231-9.148,4.667-11.537,9.294
			c-1.279,2.478-0.839,5.876,1.957,7.222C303.883,59.837,306.353,58.701,308.412,58.415z M587.295,262.827
			c-1.348-1.173-2.298-2.599-2.986-2.481c-1.757,0.297-3.398,1.282-5.086,1.993c0.135-0.223,0.27-0.444,0.404-0.667
			c-2.208-0.601-4.418-1.202-6.626-1.803c-0.237,0.413-0.475,0.826-0.713,1.239c0.578,0.746,1.145,1.501,1.735,2.237
			c0.496,0.616,1.227,1.133,1.494,1.831c1.24,3.229,0.159,5.425-2.949,7.179c-0.924,0.521-1.381,1.871-2.053,2.842
			c1.205-0.029,2.561,0.275,3.572-0.182c1.014-0.458,1.684-1.677,2.511-2.569c4.174,4.609,5.359,4.563,7.892-0.289
			c-1.218-0.096-2.358-0.185-3.433-0.269C579.715,264.822,579.715,264.822,587.295,262.827z M301.443,30.59
			c6.433,0,12.464,0,19.286,0C316.334,27.384,304.37,27.489,301.443,30.59z M310.874,190.415c-0.052-0.508-0.104-1.016-0.155-1.524
			c-2.172-0.282-4.343-0.747-6.515-0.745c-0.728,0-2.178,1.381-2.066,1.811c0.996,3.825,4.638-0.291,6.398,1.903
			C308.606,191.948,310.063,190.922,310.874,190.415z M131.21,164.919c-1.932-1.057-3.093-2.222-3.959-2.033
			c-1.091,0.237-1.943,1.581-2.898,2.447c0.978,0.884,1.927,2.422,2.941,2.465C128.292,167.842,129.354,166.369,131.21,164.919z
			 M127.269,90.647c0.024,0.651,0.048,1.3,0.072,1.95c2.111,0,4.227,0.083,6.331-0.045c0.732-0.044,1.568-0.473,2.087-0.995
			c0.236-0.237-0.029-1.521-0.334-1.639c-0.671-0.259-1.518-0.139-2.282-0.063c-0.945,0.094-1.875,0.321-2.817,0.45
			C129.31,90.445,128.288,90.536,127.269,90.647z M304.861,144.233c-1.992-1.218-3.048-2.381-3.945-2.27
			c-0.951,0.118-2.357,1.392-2.441,2.268c-0.079,0.821,1.328,2.526,2.052,2.51C301.64,146.717,302.728,145.553,304.861,144.233z
			 M324.872,165.054c-1.971-1.16-3.005-2.266-3.883-2.153c-0.949,0.123-1.752,1.383-2.619,2.147
			c0.914,0.936,1.693,2.308,2.791,2.645C321.816,167.894,322.97,166.471,324.872,165.054z M349.358,92.19
			c-1.442-0.518-2.472-0.977-3.549-1.194c-0.205-0.042-0.604,0.871-0.913,1.344c2.022,0.813,4.007,1.769,6.098,2.333
			c0.485,0.131,1.332-1.069,2.012-1.656c-0.79-0.617-1.511-1.412-2.406-1.757C350.268,91.131,349.527,92.054,349.358,92.19z
			 M253.034,114.39c-0.007-0.436-0.015-0.872-0.022-1.309c-2.101-0.411-4.191-0.97-6.312-1.128
			c-0.522-0.039-1.738,1.362-1.623,1.873c0.932,4.121,4.468-0.908,6.064,1.557C251.177,115.437,252.377,114.737,253.034,114.39z
			 M194.517,139.268c-1.5,1.882-2.563,2.836-3.04,4.025c-0.16,0.401,1.258,2.059,1.791,1.984c1.091-0.155,2.657-0.905,2.932-1.762
			C196.475,142.655,195.418,141.368,194.517,139.268z M334.281,142.138c-1.334,1.822-2.62,2.814-2.539,3.676
			c0.091,0.948,1.439,1.776,2.239,2.657c0.901-0.827,2.313-1.534,2.545-2.52C336.712,145.162,335.467,144.036,334.281,142.138z
			 M238.971,114.206c0.304,0.21,0.672,0.664,1.08,0.703c0.743,0.071,1.911,0.158,2.169-0.238c0.368-0.565,0.076-1.561,0.065-2.372
			c-0.74,0.137-1.486,0.412-2.217,0.378c-1.031-0.047-2.046-0.402-3.079-0.475c-0.676-0.048-1.625-0.064-1.987,0.331
			c-0.385,0.421-0.498,1.489-0.224,2.005c0.268,0.503,1.215,0.976,1.792,0.902C237.35,115.341,238.059,114.706,238.971,114.206z
			 M260.63,163.999c-1.217,1.398-2.638,2.601-2.465,2.909c0.613,1.094,1.677,2.408,2.755,2.601c0.71,0.127,2.274-1.437,2.443-2.418
			C263.485,166.387,261.932,165.394,260.63,163.999z M253.836,163.65c-1.108,2.124-2.058,3.137-1.999,4.089
			c0.046,0.735,1.444,2.029,2.083,1.939c1.038-0.144,1.945-1.217,2.909-1.898C256.083,166.751,255.337,165.722,253.836,163.65z
			 M325.648,161.584c-0.587,3.425-1.284,5.615,1.706,5.5c1.005-0.039,1.955-1.5,2.931-2.311
			C328.948,163.854,327.612,162.935,325.648,161.584z M294.056,169.423c1.283-1.302,2.745-2.248,2.605-2.754
			c-0.293-1.063-1.426-1.896-2.214-2.823c-0.884,0.843-2.074,1.554-2.516,2.586C291.73,166.903,293.004,168.005,294.056,169.423z
			 M102.135,92.833c0.716,0.938,1.094,1.83,1.437,1.817c2.261-0.087,4.521-0.321,6.759-0.654c0.252-0.037,0.649-1.113,0.484-1.494
			c-0.257-0.589-1.021-1.471-1.425-1.399C107.125,91.498,104.903,92.142,102.135,92.833z M194.099,171.177
			c1.151-2.061,2.185-3.095,2.12-4.054c-0.051-0.751-1.593-2.081-2.24-1.956c-0.996,0.193-2.383,1.332-2.504,2.22
			C191.362,168.216,192.681,169.242,194.099,171.177z M258.182,143.726c-2.081-1.57-3.077-2.794-4.27-3.033
			c-0.653-0.131-2.091,1.294-2.315,2.224c-0.145,0.605,1.17,2.125,1.989,2.258C254.633,145.345,255.839,144.53,258.182,143.726z
			 M297.288,144.834c0.022-0.469,0.045-0.938,0.068-1.406c-0.962-0.594-1.973-1.719-2.875-1.639
			c-0.984,0.087-1.87,1.291-2.798,2.009c0.739,0.904,1.407,2.459,2.235,2.548C294.974,146.461,296.158,145.393,297.288,144.834z
			 M327.663,141.81c-1.296,1.894-2.422,2.827-2.417,3.755c0.004,0.762,1.454,2.211,2.081,2.119c1.035-0.154,2.433-1.152,2.709-2.082
			C330.244,144.898,328.943,143.746,327.663,141.81z M190.168,167.999c-0.016-0.445-0.031-0.892-0.046-1.337
			c-0.875-0.53-1.85-1.601-2.598-1.46c-1.057,0.199-1.945,1.293-2.906,2.005c0.869,0.797,1.651,2.071,2.631,2.248
			C188.106,169.61,189.187,168.532,190.168,167.999z M118.952,111.602c2.79,0.235,5.14,0.52,7.493,0.545
			c0.386,0.003,1.244-1.475,1.091-1.681c-0.476-0.641-1.338-1.372-2.038-1.359c-0.628,0.011-1.241,0.958-1.875,1.507
			c-0.888-0.781-1.666-1.464-2.658-2.337C120.277,109.415,119.735,110.31,118.952,111.602z M180.383,163.485
			c-1.173,2.105-2.207,3.132-2.102,4.024c0.091,0.781,1.577,2.065,2.245,1.951c0.972-0.167,2.315-1.296,2.466-2.19
			C183.124,166.49,181.827,165.469,180.383,163.485z M270.704,143.084c-1.521-1.069-2.538-1.785-3.555-2.5
			c-0.64,1.021-1.739,2.034-1.759,3.068c-0.014,0.686,1.55,1.997,2.342,1.948C268.605,145.547,269.402,144.259,270.704,143.084z
			 M164.403,143.897c-1.981-1.173-2.972-2.239-3.737-2.096c-1.019,0.19-1.863,1.32-2.782,2.047c0.699,0.844,1.445,2.416,2.088,2.375
			C161.137,146.149,162.24,145.113,164.403,143.897z M160.687,163.888c-1.349,1.363-2.632,2.102-2.846,3.075
			c-0.139,0.637,1.507,2.414,1.942,2.286c1.237-0.365,2.264-1.445,3.374-2.243C162.5,166.177,161.843,165.348,160.687,163.888z
			 M300.906,169.38c1.223-1.31,2.649-2.329,2.488-2.767c-0.381-1.038-1.514-1.8-2.344-2.674c-0.864,0.855-2.004,1.589-2.456,2.623
			C298.417,166.971,299.774,168.049,300.906,169.38z M275.673,90.548c0.161,0.251,0.322,0.502,0.483,0.753
			c0.506-0.646,1.011-1.292,1.517-1.938c-0.693-0.476-1.329-1.195-2.091-1.372c-1.199-0.278-2.49-0.294-3.729-0.215
			c-0.621,0.041-1.376,0.401-1.765,0.869c-0.301,0.363-0.364,1.294-0.1,1.653c0.273,0.372,1.07,0.492,1.636,0.489
			C272.975,90.781,274.324,90.637,275.673,90.548z M165.822,164.364c-0.517,0.621-1.033,1.241-1.549,1.861
			c0.947,1.05,1.894,2.1,2.841,3.149c0.911-0.853,1.822-1.705,2.733-2.558C168.505,165.999,167.164,165.181,165.822,164.364z
			 M287.829,163.882c-1.276,1.266-2.739,2.252-2.592,2.661c0.388,1.08,1.473,1.909,2.281,2.837c0.898-0.858,2.044-1.594,2.561-2.64
			C290.264,166.363,288.934,165.238,287.829,163.882z M186.989,140.146c-1.036,1.448-2.25,2.422-2.12,3.161
			c0.136,0.78,1.574,1.867,2.408,1.837c0.823-0.029,2.244-1.295,2.235-2.003C189.502,142.32,188.22,141.515,186.989,140.146z
			 M147.277,148.163c0.973-1.944,1.925-2.965,1.777-3.789c-0.162-0.901-1.341-1.618-2.078-2.416
			c-0.681,0.841-1.845,1.648-1.905,2.532C145.012,145.35,146.083,146.287,147.277,148.163z M156.825,144.731
			c0.002-0.448,0.005-0.895,0.007-1.343c-1.004-0.551-2.011-1.525-3.012-1.519c-0.794,0.004-2.353,1.497-2.229,1.829
			c0.396,1.067,1.294,2.458,2.232,2.664C154.664,146.548,155.813,145.331,156.825,144.731z M310.895,144.574
			c-1.612-1.214-2.547-2.414-3.596-2.522c-0.624-0.065-2.008,1.601-1.981,2.457c0.024,0.819,1.353,2.1,2.254,2.239
			C308.347,146.867,309.326,145.664,310.895,144.574z M178.702,145.698c1.619-0.9,3.012-1.673,4.405-2.448
			c-0.625-0.894-1.287-2.571-1.87-2.544C178.989,140.81,177.649,142.068,178.702,145.698z M177.061,167.539
			c-1.373-1.123-2.241-2.383-3.056-2.349c-0.873,0.035-1.695,1.29-2.54,2.012c0.922,0.809,1.741,1.884,2.816,2.301
			C174.747,169.685,175.741,168.514,177.061,167.539z M334.381,168.167c1.224-1.902,2.498-3.147,2.251-3.662
			c-0.434-0.903-1.762-1.768-2.786-1.86c-0.678-0.061-2.127,1.313-2.071,1.943C331.854,165.512,332.972,166.346,334.381,168.167z
			 M215.577,145.228c0.289-0.276,0.577-0.553,0.864-0.83c-0.361-1.286-0.463-2.765-1.208-3.764c-0.305-0.41-2.223-0.089-2.989,0.471
			c-0.579,0.423-0.898,2.405-0.634,2.569C212.796,144.411,214.232,144.747,215.577,145.228z M321.154,141.803
			c-1.357,1.601-2.585,2.419-2.621,3.288c-0.031,0.713,1.397,2.123,2.101,2.076c0.945-0.064,2.147-1.076,2.584-1.993
			C323.446,144.695,322.271,143.549,321.154,141.803z M166.777,140.176c-0.994,1.955-1.962,2.977-1.779,3.714
			c0.247,0.994,1.379,1.769,2.131,2.638c0.811-0.911,2.131-1.752,2.268-2.755C169.506,142.976,168.167,141.982,166.777,140.176z
			 M266.45,169.933c0.721,0.429,1.441,0.858,2.162,1.287c0.482-1.264,1.443-2.589,1.294-3.774c-0.117-0.932-1.494-2.002-2.539-2.377
			c-0.441-0.158-1.921,1.217-2.095,2.066C265.104,167.954,266.014,168.992,266.45,169.933z M247.65,171.14
			c0.936-1.816,1.819-2.765,1.767-3.661c-0.046-0.794-1.13-1.529-1.756-2.29c-0.851,0.893-2.056,1.669-2.408,2.728
			C245.07,168.469,246.391,169.52,247.65,171.14z M277.545,167.453c-1.691-1.263-2.573-2.429-3.344-2.36
			c-0.804,0.072-1.896,1.236-2.113,2.109c-0.155,0.622,1.001,2.253,1.443,2.207C274.608,169.294,275.608,168.467,277.545,167.453z
			 M204.01,143.072c-1.548-1.318-2.575-2.714-3.125-2.547c-1.003,0.306-1.722,1.539-2.56,2.385c0.706,0.647,1.375,1.76,2.126,1.817
			C201.327,144.794,202.272,143.938,204.01,143.072z M153.834,169.201c1.16-1.005,1.967-1.705,2.774-2.405
			c-0.781-0.736-1.62-2.115-2.33-2.052c-0.98,0.087-1.863,1.263-2.787,1.972C152.143,167.407,152.795,168.099,153.834,169.201z
			 M260.648,146.362c1.177-1.5,2.451-2.469,2.298-3.087c-0.217-0.879-1.48-2.079-2.297-2.08c-0.91,0-1.822,1.189-2.732,1.861
			C258.65,143.944,259.383,144.831,260.648,146.362z M143.618,143.948c-1.376-0.978-2.514-2.165-2.869-1.964
			c-0.957,0.54-1.979,1.59-2.183,2.599c-0.12,0.589,1.584,2.245,1.933,2.103C141.53,146.267,142.295,145.192,143.618,143.948z
			 M124.733,142.482c-1.026,4.04,0.313,5.128,2.759,4.716c0.754-0.127,1.303-1.472,1.946-2.259
			C127.981,144.179,126.524,143.418,124.733,142.482z M237.152,167.688c-1.389-1.186-2.304-2.515-2.973-2.401
			c-0.842,0.144-1.978,1.425-2.051,2.293c-0.056,0.656,1.262,1.791,2.152,2.033C234.847,169.769,235.75,168.679,237.152,167.688z
			 M215.073,170.384c0.569-0.543,1.138-1.086,1.706-1.628c-0.818-1.178-1.636-2.356-2.454-3.533
			c-0.964,0.801-1.927,1.602-2.892,2.403C212.647,168.545,213.86,169.464,215.073,170.384z M133.394,168.489
			c0.415-0.042,0.83-0.084,1.244-0.126c0.454-0.943,1.475-2.091,1.226-2.78c-0.354-0.979-1.642-1.621-2.531-2.406
			c-0.594,0.797-1.724,1.648-1.652,2.38C131.782,166.581,132.779,167.516,133.394,168.489z M150.37,165.925
			c-1.628-1.171-2.872-2.464-3.238-2.251c-0.965,0.563-1.718,1.709-2.158,2.786c-0.102,0.25,1.396,1.642,2.13,1.618
			C147.954,168.051,148.772,167.042,150.37,165.925z M283.875,166.577c-1.541-0.77-2.489-1.63-3.371-1.564
			c-0.731,0.054-1.382,1.197-2.068,1.857c0.933,0.837,1.78,1.851,2.862,2.386C281.56,169.384,282.604,167.928,283.875,166.577z
			 M237.428,142.826c-1.662-1.239-2.563-2.422-3.329-2.34c-0.794,0.086-1.981,1.373-2.018,2.179
			c-0.033,0.719,1.184,1.958,2.01,2.113C234.813,144.916,235.759,143.864,237.428,142.826z M243.884,142.913
			c-1.546-1.239-2.413-2.459-3.156-2.388c-0.82,0.078-2.026,1.278-2.129,2.106c-0.085,0.684,1.103,2.035,1.889,2.174
			C241.249,144.94,242.216,143.905,243.884,142.913z M207.447,139.25c-1.199,1.639-2.363,2.536-2.321,3.374
			c0.038,0.787,1.249,1.871,2.141,2.12c0.486,0.136,1.914-1.155,1.958-1.863C209.283,141.977,208.373,141.012,207.447,139.25z
			 M240.939,164.046c-1.146,1.737-2.127,2.614-2.222,3.577c-0.064,0.656,1.23,2.097,1.71,2.013c0.93-0.163,2.301-1.071,2.408-1.825
			C242.96,166.929,241.933,165.884,240.939,164.046z M177.141,143.385c-1.753-0.902-2.714-1.784-3.633-1.742
			c-0.685,0.031-1.965,1.441-1.832,1.911c0.259,0.916,1.318,2.218,2.059,2.226C174.615,145.791,175.508,144.608,177.141,143.385z
			 M141.372,168.731c0.621-0.592,1.241-1.184,1.86-1.775c-0.956-1.164-1.912-2.328-2.868-3.492
			c-0.706,0.851-2.166,2.192-1.987,2.466C139.103,167.042,140.33,167.826,141.372,168.731z M317.349,165.692
			c-1.368-1.081-2.232-2.287-3.101-2.289c-0.732-0.001-2.046,1.394-2.044,2.168c0.003,0.816,1.217,2.225,1.981,2.281
			C315.019,167.914,315.944,166.718,317.349,165.692z M290.949,144.196c-1.414-1.076-2.236-2.169-3.13-2.229
			c-0.683-0.047-1.454,1.212-2.187,1.891c0.766,0.804,1.41,1.951,2.343,2.282C288.507,146.328,289.51,145.184,290.949,144.196z
			 M277.213,143.578c-1.51-1.237-2.407-2.475-3.003-2.344c-0.927,0.204-1.812,1.24-2.355,2.141c-0.145,0.24,1.028,1.827,1.576,1.815
			C274.422,145.169,275.397,144.411,277.213,143.578z M317.487,144.628c-1.668-0.85-2.608-1.743-3.29-1.577
			c-0.925,0.226-1.649,1.264-2.461,1.953c0.776,0.743,1.541,2.059,2.33,2.073C314.927,147.094,315.811,145.903,317.487,144.628z
			 M250.491,143.052c-1.562-1.324-2.633-2.704-3.095-2.523c-0.955,0.373-1.804,1.486-2.22,2.491c-0.132,0.32,1.201,1.729,1.94,1.798
			C247.923,144.891,248.819,143.986,250.491,143.052z M310.938,166.157c-1.599-1.169-2.497-2.228-3.562-2.433
			c-0.527-0.103-2.08,1.708-1.915,2.053c0.475,0.991,1.478,1.97,2.499,2.356C308.461,168.322,309.461,167.183,310.938,166.157z
			 M200.821,170.699c1-1.375,2.134-2.288,1.986-2.879c-0.243-0.964-1.321-1.719-2.047-2.562c-0.695,0.837-1.779,1.602-1.952,2.535
			C198.687,168.445,199.816,169.327,200.821,170.699z M236.042,187.198c-0.287,0.616-0.573,1.232-0.86,1.848
			c1.134,0.64,2.219,1.583,3.425,1.775c0.496,0.079,1.249-1.459,1.885-2.262C239.009,188.105,237.526,187.652,236.042,187.198z
			 M382.776,206.408c-1.466-0.7-2.543-1.661-3.318-1.46c-0.791,0.205-1.667,1.508-1.775,2.417c-0.074,0.623,1.102,1.395,1.719,2.1
			C380.118,208.817,380.833,208.169,382.776,206.408z M210.452,167.729c-1.47-1.11-2.351-1.776-3.233-2.441
			c-0.656,0.889-1.598,1.712-1.831,2.701c-0.094,0.398,1.341,1.598,2.12,1.636C208.263,169.661,209.068,168.676,210.452,167.729z
			 M93.862,203.884c-1.082,1.426-2.159,2.222-2.149,3.004c0.011,0.835,1.048,1.657,1.637,2.484c0.793-0.757,1.977-1.396,2.247-2.308
			C95.788,206.417,94.745,205.406,93.862,203.884z M363.697,94.369c-1.032-0.954-1.646-1.966-2.286-1.986
			c-0.632-0.019-1.915,1.129-1.824,1.482c0.243,0.934,1.075,1.714,1.672,2.555C361.926,95.859,362.593,95.298,363.697,94.369z
			 M230.473,86.214c-0.978,1.322-2.123,2.269-1.954,2.779c0.261,0.785,1.397,1.689,2.214,1.743c0.607,0.041,1.777-1.162,1.814-1.859
			C232.584,88.198,231.502,87.458,230.473,86.214z M94.374,97.664c0.813-1.453,1.642-2.26,1.526-2.894
			c-0.154-0.843-1.045-1.552-1.62-2.319c-0.646,0.795-1.616,1.515-1.819,2.41C92.334,95.422,93.357,96.246,94.374,97.664z
			 M106.624,208.117c-1.109-0.873-1.915-1.922-2.393-1.79c-0.803,0.223-1.956,1.208-1.942,1.852
			c0.018,0.802,1.067,1.582,1.671,2.373C104.697,209.879,105.433,209.206,106.624,208.117z M329.651,194.042
			c0.724-1.856,1.438-2.806,1.309-3.622c-0.114-0.716-1.176-1.28-1.819-1.912c-0.553,0.864-1.426,1.687-1.544,2.606
			C327.518,191.733,328.507,192.488,329.651,194.042z M283.201,143.91c-1.082-0.852-2.064-1.979-2.393-1.813
			c-0.806,0.407-1.592,1.34-1.808,2.207c-0.097,0.39,1.193,1.589,1.835,1.575C281.508,145.864,282.159,144.834,283.201,143.91z
			 M351.311,106.056c-0.883,1.722-1.783,2.67-1.626,3.384c0.18,0.81,1.306,1.412,2.021,2.103c0.527-0.87,1.353-1.7,1.477-2.624
			C353.264,108.306,352.342,107.558,351.311,106.056z M346.836,113.176c0.75-1.937,1.429-2.863,1.34-3.711
			c-0.074-0.718-1.036-1.344-1.605-2.011c-0.623,0.768-1.666,1.493-1.748,2.315C344.747,110.521,345.71,111.376,346.836,113.176z
			 M366.277,98.09c0.848-1.921,1.525-2.804,1.523-3.686c-0.002-0.584-0.977-1.166-1.516-1.75c-0.616,0.779-1.53,1.485-1.744,2.362
			C364.401,95.589,365.278,96.409,366.277,98.09z M311.27,92.991c0.892-1.218,1.824-1.947,1.836-2.69
			c0.008-0.552-1.192-1.584-1.827-1.563c-0.689,0.022-1.87,1.003-1.884,1.589C309.377,91.04,310.354,91.776,311.27,92.991z
			 M369.372,205.074c-0.971,1.544-1.923,2.415-1.761,2.942c0.296,0.963,1.252,1.722,1.933,2.566
			c0.553-0.702,1.534-1.396,1.548-2.106C371.107,207.635,370.288,206.777,369.372,205.074z M133.511,148.167
			c1.215-1.432,2.401-2.267,2.281-2.815c-0.192-0.878-1.134-1.864-1.996-2.206c-0.41-0.163-1.889,1.006-1.946,1.653
			C131.777,145.629,132.65,146.542,133.511,148.167z M362.764,105.975c-0.794,0.037-1.588,0.075-2.383,0.112
			c0,1.322,0,2.644,0,3.965c0.911-0.097,2.59-0.118,2.608-0.303C363.111,108.511,362.88,107.237,362.764,105.975z M149.447,190.414
			c-1.022-0.882-1.67-1.443-2.318-2.002c-0.631,0.754-1.643,1.453-1.76,2.28c-0.082,0.575,1.064,1.325,1.662,1.998
			C147.72,192.04,148.409,191.391,149.447,190.414z"/>
		<path fill-rule="evenodd" clip-rule="evenodd" d="M448.12,105.905c-4.108,4.193-8.075,8.051-11.741,12.176
			c-0.617,0.694-0.446,2.961,0.23,3.794c5.861,7.213,8.825,15.61,10.662,24.55c2.679,13.043-1.551,24.645-8.003,35.475
			c-5.188,8.71-13.039,14.719-22.166,19.317c-5.561,2.801-11.201,3.573-17.21,3.834c-3.289,0.144-6.515,1.455-9.814,1.795
			c-1.224,0.126-2.577-1.019-3.891-1.591c-0.459,1.113-1.03,2.495-1.601,3.876c-0.354,0.017-0.708,0.034-1.063,0.052
			c-0.592-1.473-1.184-2.944-1.604-3.993c-5.985-3.052-12.188-5.512-17.533-9.211c-3.029-2.097-5.876-0.997-8.695-1.802
			c-1.067-0.305-2.182-0.509-3.169-0.977c-0.23-0.109-0.105-1.616-0.027-1.626c1.15-0.158,2.32-0.165,3.485-0.223
			c0.355-0.019,0.71-0.087,2.134-0.271c-7.287-7.11-11.313-15.474-14.049-24.535c-0.249,0.272-0.498,0.546-0.747,0.819
			c-1.413-0.974-2.827-1.948-4.241-2.922c0.932-1.287,1.863-2.573,3.45-4.765c-0.1-2.183-0.17-5.773-0.507-9.337
			c-0.064-0.675-1.299-1.171-1.787-1.891c-0.516-0.759-1.077-1.693-1.055-2.535c0.015-0.525,1.076-1.019,1.663-1.533
			c0.891-0.778,2.172-1.394,2.587-2.375c1.158-2.738,1.921-5.639,2.903-8.454c3.16-9.065,9.284-15.868,16.625-21.749
			c0.602-0.482,1.446-1.263,1.405-1.85c-0.243-3.437,0.981-3.648,4.432-4.079c6.78-0.846,13.343-3.453,19.987-5.359
			c0.312-0.089,0.597-0.398,0.813-0.67c0.74-0.931,1.443-1.892,2.16-2.841c0.518,1.094,1.035,2.187,1.655,3.498
			c9.436-0.558,18.015,3.611,26.85,6.646c1.498,0.515,2.675,2.052,3.918,3.206c2.253,2.091,3.745,1.823,5.384-0.613
			c3.022-4.492,6.268-8.833,9.37-13.272c2.818-4.033,5.677-8.044,8.282-12.212c0.72-1.153,0.815-2.833,0.824-4.272
			c0.048-9.12,0.235-18.249-0.098-27.357c-0.357-9.746,7.116-14.837,14.943-14.949c16.235-0.232,32.489-0.498,48.711,0.027
			c8.561,0.278,14.896,3.66,15.052,15.537c0.188,14.36,0.599,28.722,0.461,43.079c-0.041,4.229-1.214,8.579-2.591,12.628
			c-1.554,4.571-5.517,6.601-10.193,6.63c-17.245,0.11-34.491,0.052-51.737,0.084c-5.502,0.01-9.682-2.22-12.448-7.034
			C449.66,107.8,448.997,107.078,448.12,105.905z M424.494,123.153c0.549,0.5,1.098,1.001,1.646,1.502
			c2.559-3.138,4.934-6.451,7.721-9.369c4.104-4.297,8.483-8.332,12.789-12.433c1-0.951,2.177-1.718,3.271-2.569
			c0.807,1.133,1.637,2.25,2.415,3.403c2.296,3.399,3.697,7.976,8.835,8.011c17.497,0.118,34.997,0.185,52.494,0.026
			c5.042-0.045,9.244-4.975,9.188-9.406c-0.208-16.618,0.039-33.24-0.059-49.861c-0.049-8.326-3.923-10.605-10.071-10.833
			c-16.723-0.618-33.487-0.39-50.229-0.103c-6.799,0.116-10.741,5.018-10.682,11.874c0.075,8.615,0.168,17.229,0.157,25.843
			c-0.003,1.716,0.079,3.756-0.762,5.09c-4.333,6.873-8.878,13.615-13.496,20.301C433.402,110.871,428.907,116.984,424.494,123.153z
			"/>
		<path fill-rule="evenodd" clip-rule="evenodd" d="M226.094,262.434c99.625,0,198.495,0,298.193,0
			c-1.212-2.158-2.432-4.33-3.651-6.502c0.132-0.342,0.264-0.683,0.396-1.023c8.513,2.933,17.025,5.866,25.538,8.799
			c0.043,0.331,0.086,0.663,0.13,0.994c-8.41,2.839-16.82,5.678-25.23,8.518c-0.305-0.446-0.608-0.892-0.912-1.337
			c1.409-1.852,2.818-3.702,4.814-6.323c-7.314,0-13.754,0-20.194-0.001c-79-0.013-158.001-0.025-237-0.04
			c-12.75-0.003-25.501,0.053-38.25-0.087c-2.845-0.031-3.634,0.94-3.604,3.683c0.145,13.863,0.195,27.729,0.107,41.594
			c-0.021,3.401,2.344,3.831,4.572,4.23c6.546,1.174,13.249,1.657,19.681,3.254c7.31,1.814,14.551,4.154,21.526,6.993
			c5.447,2.216,5.725,8.615,2.054,13.092c-3.5,4.27-8.387,4.507-12.852,6.021c-4.14,1.404-8.404,2.505-12.683,3.414
			c-4.085,0.868-8.255,1.35-12.399,1.927c-1.104,0.153-2.25-0.024-3.371,0.048c-5.204,0.336-6.148,1.272-6.17,6.374
			c-0.026,6.104,0.098,12.207,0.032,18.31c-0.016,1.466-0.525,2.927-0.807,4.39c-0.414-0.011-0.827-0.021-1.241-0.033
			c-0.267-1.349-0.74-2.694-0.765-4.047c-0.117-6.371-0.089-12.744-0.159-19.115c-0.022-2.046,0.541-4.405-2.902-4.445
			c-4.923-0.059-6.61,0.865-6.787,4.226c-0.415,7.883-0.488,8.284-8.469,6.839c-5.297-0.96-10.305-3.424-15.523-4.934
			c-4.938-1.429-9.982-2.49-15.211-3.771c-1.101-3.215-0.266-4.547,3.042-5.536c6.047-1.81,12.021-3.868,17.997-5.907
			c4.15-1.416,8.182-3.221,12.393-4.401c4.511-1.266,5.615-0.253,5.79,4.338c0.042,1.124-0.28,2.385,0.136,3.334
			c0.375,0.858,1.551,1.967,2.333,1.936c2.193-0.088,4.365-0.708,7.142-1.23c0-5.229-0.003-10.676,0.001-16.124
			c0.002-2.499-0.158-5.014,0.069-7.492c0.277-3.034-0.751-4.248-3.918-4.338c-14.078-0.4-28.148-1.062-42.226-1.469
			c-2.598-0.075-3.573-1.116-3.639-3.901c2.903,0,5.748-0.046,8.591,0.008c12.243,0.233,24.489,0.417,36.727,0.804
			c3.11,0.099,4.44-0.555,4.375-4.041c-0.249-13.488-0.272-26.981-0.218-40.473c0.012-2.88-1.057-3.525-3.759-3.522
			c-63.624,0.099-127.247,0.125-190.871,0.085c-1.758-0.002-3.516-0.89-5.274-1.364c0.865-3.094,3.384-1.849,5.27-1.875
			c10.169-0.139,20.339-0.19,30.509-0.207c13.855-0.022,27.712-0.054,41.567,0.059c5.111,0.042,10.216,0.601,15.328,0.691
			c2.576,0.046,5.162-0.428,7.743-0.662c0.621-0.057,1.245-0.158,1.863-0.136c6.877,0.253,13.752,0.702,20.629,0.736
			c5.024,0.023,10.052-0.741,15.076-0.708c7.535,0.049,15.067,0.652,22.603,0.707c5.332,0.038,10.664-0.566,16-0.661
			c6.55-0.116,13.105-0.026,19.658,0.027c2.465,0.02,3.851-0.501,3.785-3.563c-0.282-13.112-0.296-26.23-0.417-39.347
			c-0.076-8.27,0.401-16.603-0.51-24.78c-0.421-3.778-1.067-6.889,0.253-10.8c1.192-3.532,0.069-7.877-0.221-11.849
			c-0.053-0.727-0.912-1.508-1.574-2.05c-0.914-0.746-1.994-1.286-3.002-1.915c1.108-0.929,2.206-1.874,3.333-2.778
			c0.271-0.217,0.648-0.304,0.96-0.444c0-6.503,0-12.933,0-18.205c-2.024-1.621-3.273-2.621-4.523-3.622
			c1.146-1.097,2.293-2.195,3.439-3.293c0.392,0.196,0.783,0.391,1.174,0.585c0-6.175,0.086-12.353-0.044-18.525
			c-0.05-2.377,1.265-5.439-2.395-6.655c-0.044-0.015,0.416-1.808,0.777-2.717c0.539-1.354,1.729-2.659,1.729-3.984
			c0.02-21.71-0.105-43.42-0.195-65.131c-0.009-2.078-0.001-4.156-0.001-7.06c-2.634,2.089-4.579,3.632-6.523,5.175
			c-0.361-0.175-0.723-0.351-1.085-0.526c2.675-8.473,5.35-16.944,8.024-25.417c0.462-0.064,0.924-0.129,1.387-0.193
			c3.11,8.481,6.221,16.963,9.332,25.445c-0.369,0.214-0.738,0.429-1.107,0.644c-2.201-1.405-4.402-2.811-7.139-4.557
			c0,8.201-0.017,15.749,0.009,23.297c0.009,2.413,1.757,2.699,3.388,2.098c4.335-1.596,8.513-3.625,12.869-5.155
			c2.509-0.882,5.242-1.13,8.958-1.883c-1.721,2.952-2.866,4.915-4.238,7.269c39.415,0,78.786,0,118.772,0
			c-1.651-2.128-2.948-3.8-4.305-5.55c2.611-1.158,23.011,5.156,27.417,8.387c-8.974,3.054-17.611,5.993-26.249,8.934
			c-0.216-0.339-0.431-0.678-0.646-1.017c1.422-2.025,2.845-4.051,4.614-6.572c-39.893,0-79.326,0-119.009,0
			c1.214,2.051,2.277,3.843,3.339,5.636c-0.29,0.452-0.579,0.905-0.869,1.357c-2.988-1.089-5.953-2.252-8.971-3.252
			c-4.807-1.593-9.65-3.078-15.04-4.788c0,7.083-0.031,13.049,0.008,19.015c0.046,7.212,0.026,14.429,0.309,21.633
			c0.086,2.175,1.113,4.307,1.642,6.475c0.194,0.798,0.563,2.138,0.225,2.392c-3.278,2.459-1.813,5.827-1.833,8.861
			c-0.029,4.496-0.012,9.002,0.28,13.485c0.071,1.085,1.285,2.1,1.988,3.138c0.51,0.752,1.518,1.539,1.446,2.218
			c-0.087,0.827-1.088,1.55-1.672,2.333c-0.65,0.875-1.796,1.751-1.828,2.658c-0.176,4.985-0.195,9.984,0.032,14.965
			c0.043,0.941,1.473,1.795,2.198,2.739c0.564,0.734,1.417,1.545,1.421,2.326c0.003,0.716-1.006,1.406-1.485,2.161
			c-0.748,1.174-1.911,2.343-2.039,3.602c-0.325,3.206-0.174,6.461-0.219,9.697c-0.003,0.249-0.15,0.557-0.05,0.737
			c3.864,6.914-0.933,13.819-0.002,20.87c0.957,7.242,0.271,14.702,0.28,22.067C226.103,238.315,226.094,249.905,226.094,262.434z
			 M226.705,333.227c-0.042,0-0.083,0-0.125,0c0,3.246,0.126,6.498-0.041,9.735c-0.132,2.565,0.642,3.769,3.377,3.348
			c5.617-0.863,11.336-1.259,16.848-2.556c7.479-1.761,14.805-4.18,22.194-6.327c2.961-0.86,5.092-4.694,3.284-6.147
			c-2.408-1.935-5.077-3.812-7.947-4.843c-4.354-1.563-8.934-2.601-13.494-3.456c-7.015-1.317-14.091-2.306-21.147-3.401
			c-2.112-0.328-2.963,0.777-2.955,2.783C226.715,325.983,226.705,329.605,226.705,333.227z M183.516,350.212
			c-0.164,0.353-0.326,0.706-0.489,1.059c8.1,4.541,18.137,3.16,26.28,8.802c0-7.026,0-12.778,0-18.764
			C200.326,344.408,191.92,347.311,183.516,350.212z"/>
		<path fill-rule="evenodd" clip-rule="evenodd" d="M72.796,97.939c-1.504,1.648-2.36,2.588-3.522,3.862
			c6.834,1.359,13.41,2.792,20.036,3.936c3.905,0.674,7.901,0.812,11.828,1.391c0.642,0.094,1.131,1.225,1.69,1.876
			c-0.654,0.517-1.3,1.438-1.964,1.451c-0.833,0.017-1.681-0.71-3.325-0.57c0.878,1.088,1.543,2.533,2.67,3.207
			c7.523,4.503,12.2,11.384,15.988,18.961c1.379,2.76,1.356,6.716,3.392,8.549c4.123,3.711,2.119,7.757,2.104,11.756
			c-0.008,2.225-0.849,4.697-0.141,6.625c1.655,4.503,0.533,7.78-2.163,11.594c-2.798,3.958-4.197,8.883-6.473,13.247
			c-0.872,1.673-2.341,3.121-3.784,4.394c-1.974,1.74-2.17,2.289-0.494,5.078c0.771-0.602,1.434-1.418,2.271-1.68
			c0.669-0.21,1.823,0.006,2.259,0.488c0.431,0.476,0.536,1.706,0.206,2.258c-0.244,0.408-1.417,0.261-2.177,0.36
			c-1.165,0.151-2.327,0.321-3.495,0.45c-1.416,0.156-3.03-0.111-4.221,0.482c-5.493,2.734-10.878,5.687-16.272,8.614
			c-0.592,0.321-0.953,1.041-1.5,1.476c-0.58,0.461-1.401,1.27-1.866,1.124c-6.586-2.061-13.236,0.344-19.852-0.416
			c-8.286-0.952-15.827-3.365-23.098-7.725c-5.563-3.336-10.013-7.706-13.754-12.502c-3.713-4.761-6.431-10.605-8.355-16.384
			c-3.207-9.63-3.483-19.646-0.465-29.484c3.184-10.38,8.759-19.481,17.174-26.271c7.635-6.16,16.351-10.434,26.602-10.94
			c2.001-0.099,4.642-2.155,5.637-4.026C69.041,96.656,70.172,97.417,72.796,97.939z M115.194,141.774
			c-2.84-8.079-7.283-16.127-14.525-22.517c-4.893-4.318-10.663-6.847-16.507-9.59c-5.973-2.802-12.018-4.076-18.216-3.361
			c-4.79,0.553-9.577,1.635-14.264,3.767c-12.894,5.864-22.309,14.533-27.259,28.021c-4.644,12.655-3.513,24.978,1.561,37.066
			c2.613,6.226,7.04,11.361,12.121,15.762c2.545,2.205,5.414,4.367,8.519,5.525c6.184,2.307,12.571,4.152,18.99,5.71
			c4.197,1.019,8.273,0.469,10.619-4.105c0.292-0.571,1.363-0.741,2.073-1.098c0.325,0.837,0.712,1.658,0.945,2.52
			c0.093,0.344-0.152,0.781-0.305,1.441c1.346-0.106,2.278-0.179,3.532-0.278c-0.798-1.422-1.418-2.526-2.038-3.631
			c0.282-0.345,0.564-0.69,0.847-1.035c0.759,0.669,1.535,1.32,2.272,2.014c0.598,0.562,1.148,1.175,1.725,1.771
			c0.561-2.206,0.924-3.633,1.288-5.06c1.154,0.898,2.308,1.798,3.521,2.742c0.316-0.989,0.674-2.106,1.054-3.294
			c3.954,0.609,6.378-1.387,9.223-3.571c4.036-3.098,6.956-6.867,9.39-11.089c2.217-3.848,3.967-7.965,5.924-11.964
			c-0.48,0.007-0.96,0.016-1.439,0.023c-0.988-0.989-1.975-1.979-2.962-2.967c1.057-0.708,2.16-1.355,3.153-2.143
			c0.632-0.501,1.544-1.193,1.568-1.828c0.144-3.926,0.072-7.858,0.072-10.671c-2.133-1.696-3.433-2.729-4.733-3.762
			C112.442,144.915,113.542,143.66,115.194,141.774z"/>
		<path fill-rule="evenodd" clip-rule="evenodd" d="M72.225,300.315c-6.134-0.117-9.355-3.767-8.192-9.85
			c1.034-5.406,2.82-10.53,9.043-12.23c0.352-0.096,0.771-0.194,1.004-0.438c2.286-2.392,4.813-3.441,7.869-1.437
			c3.603,2.363,7.156,4.844,5.848,10.017C85.965,293.628,81.423,301.025,72.225,300.315z M82.858,284.81
			c0.207-5.611-2.357-7.316-7.522-5.003c-4.303,1.928-8.366,10.915-7.013,15.516c0.76,2.586,4.153,4.037,6.615,2.757
			C80.297,295.294,82.49,290.59,82.858,284.81z"/>
		<path fill-rule="evenodd" clip-rule="evenodd" d="M308.412,58.415c-2.06,0.286-4.529,1.422-6.089,0.671
			c-2.796-1.346-3.236-4.744-1.957-7.222c2.388-4.628,4.903-9.526,11.537-9.294c0.839,0.029,2.179-1.71,2.504-2.853
			c0.376-1.318-0.116-2.885-0.272-4.866c1.478-0.126,3.078-0.261,5.56-0.472c-1.06,3.607-2.015,6.486-2.74,9.422
			c-0.995,4.024-3.162,7.853-1.754,12.326c0.252,0.801-1.168,2.992-1.969,3.075c-1.488,0.156-3.092-0.767-4.646-1.24
			C308.526,58.113,308.47,58.264,308.412,58.415z M305.934,57.078c2.177-3.438,3.983-6.132,5.568-8.951
			c0.262-0.466-0.298-1.591-0.766-2.184c-0.227-0.288-1.205-0.241-1.696-0.02C305.597,47.47,304.01,51.926,305.934,57.078z"/>
		<path fill-rule="evenodd" clip-rule="evenodd" d="M587.295,262.827c-7.58,1.995-7.58,1.995-6.237,9.062
			c1.074,0.084,2.215,0.173,3.433,0.269c-2.532,4.853-3.718,4.898-7.892,0.289c-0.827,0.893-1.497,2.111-2.511,2.569
			c-1.012,0.457-2.367,0.152-3.572,0.182c0.672-0.971,1.129-2.32,2.053-2.842c3.108-1.754,4.189-3.95,2.949-7.179
			c-0.268-0.698-0.998-1.215-1.494-1.831c-0.591-0.736-1.157-1.491-1.735-2.237c0.238-0.413,0.476-0.826,0.713-1.239
			c2.208,0.601,4.418,1.202,6.626,1.803c-0.135,0.223-0.27,0.444-0.404,0.667c1.688-0.711,3.329-1.696,5.086-1.993
			C584.997,260.229,585.947,261.654,587.295,262.827z"/>
		<path fill-rule="evenodd" clip-rule="evenodd" d="M301.443,30.59c2.926-3.101,14.891-3.207,19.286,0
			C313.907,30.59,307.876,30.59,301.443,30.59z"/>
		<path fill-rule="evenodd" clip-rule="evenodd" d="M310.874,190.415c-0.811,0.507-2.268,1.533-2.338,1.445
			c-1.761-2.194-5.403,1.922-6.398-1.903c-0.111-0.429,1.339-1.81,2.066-1.811c2.171-0.002,4.343,0.463,6.515,0.745
			C310.771,189.399,310.822,189.907,310.874,190.415z"/>
		<path fill-rule="evenodd" clip-rule="evenodd" d="M131.21,164.919c-1.856,1.45-2.918,2.923-3.917,2.879
			c-1.014-0.043-1.963-1.582-2.941-2.465c0.955-0.866,1.807-2.209,2.898-2.447C128.117,162.697,129.278,163.862,131.21,164.919z"/>
		<path fill-rule="evenodd" clip-rule="evenodd" d="M127.269,90.647c1.019-0.111,2.041-0.203,3.056-0.341
			c0.942-0.129,1.873-0.356,2.817-0.45c0.764-0.076,1.611-0.196,2.282,0.063c0.305,0.118,0.57,1.401,0.334,1.639
			c-0.519,0.521-1.355,0.95-2.087,0.995c-2.104,0.128-4.219,0.045-6.331,0.045C127.316,91.948,127.293,91.298,127.269,90.647z"/>
		<path fill-rule="evenodd" clip-rule="evenodd" d="M304.861,144.233c-2.133,1.32-3.221,2.484-4.334,2.508
			c-0.724,0.016-2.131-1.689-2.052-2.51c0.083-0.876,1.49-2.15,2.441-2.268C301.813,141.852,302.87,143.016,304.861,144.233z"/>
		<path fill-rule="evenodd" clip-rule="evenodd" d="M324.872,165.054c-1.902,1.417-3.056,2.84-3.711,2.639
			c-1.098-0.336-1.877-1.708-2.791-2.645c0.867-0.764,1.67-2.024,2.619-2.147C321.867,162.788,322.901,163.894,324.872,165.054z"/>
		<path fill-rule="evenodd" clip-rule="evenodd" d="M349.358,92.19c0.169-0.136,0.909-1.059,1.241-0.93
			c0.896,0.346,1.616,1.14,2.406,1.757c-0.68,0.587-1.526,1.787-2.012,1.656c-2.091-0.565-4.075-1.52-6.098-2.333
			c0.31-0.473,0.708-1.386,0.913-1.344C346.887,91.213,347.916,91.672,349.358,92.19z"/>
		<path fill-rule="evenodd" clip-rule="evenodd" d="M253.034,114.39c-0.657,0.348-1.857,1.047-1.893,0.993
			c-1.596-2.465-5.132,2.564-6.064-1.557c-0.116-0.511,1.1-1.912,1.623-1.873c2.121,0.158,4.211,0.717,6.312,1.128
			C253.02,113.518,253.027,113.954,253.034,114.39z"/>
		<path fill-rule="evenodd" clip-rule="evenodd" d="M194.517,139.268c0.902,2.1,1.958,3.387,1.683,4.247
			c-0.274,0.856-1.841,1.607-2.932,1.762c-0.533,0.075-1.951-1.583-1.791-1.984C191.954,142.104,193.017,141.149,194.517,139.268z"
			/>
		<path fill-rule="evenodd" clip-rule="evenodd" d="M334.281,142.138c1.186,1.898,2.431,3.024,2.245,3.813
			c-0.232,0.985-1.644,1.693-2.545,2.52c-0.8-0.88-2.148-1.709-2.239-2.657C331.661,144.952,332.947,143.96,334.281,142.138z"/>
		<path fill-rule="evenodd" clip-rule="evenodd" d="M238.971,114.206c-0.913,0.5-1.622,1.135-2.399,1.234
			c-0.577,0.074-1.524-0.398-1.792-0.902c-0.274-0.516-0.162-1.584,0.224-2.005c0.362-0.395,1.311-0.379,1.987-0.331
			c1.032,0.073,2.047,0.428,3.079,0.475c0.731,0.034,1.477-0.241,2.217-0.378c0.01,0.812,0.302,1.807-0.065,2.372
			c-0.258,0.396-1.427,0.309-2.169,0.238C239.643,114.869,239.275,114.416,238.971,114.206z"/>
		<path fill-rule="evenodd" clip-rule="evenodd" d="M260.63,163.999c1.302,1.395,2.855,2.388,2.733,3.091
			c-0.169,0.981-1.733,2.545-2.443,2.418c-1.078-0.193-2.142-1.507-2.755-2.601C257.992,166.6,259.413,165.397,260.63,163.999z"/>
		<path fill-rule="evenodd" clip-rule="evenodd" d="M253.836,163.65c1.501,2.071,2.247,3.101,2.993,4.13
			c-0.963,0.681-1.871,1.754-2.909,1.898c-0.639,0.09-2.037-1.204-2.083-1.939C251.779,166.788,252.728,165.774,253.836,163.65z"/>
		<path fill-rule="evenodd" clip-rule="evenodd" d="M325.648,161.584c1.964,1.35,3.3,2.27,4.637,3.189
			c-0.976,0.811-1.926,2.272-2.931,2.311C324.364,167.199,325.062,165.009,325.648,161.584z"/>
		<path fill-rule="evenodd" clip-rule="evenodd" d="M294.056,169.423c-1.051-1.418-2.326-2.521-2.125-2.992
			c0.441-1.032,1.631-1.743,2.516-2.586c0.788,0.928,1.921,1.76,2.214,2.823C296.8,167.175,295.339,168.122,294.056,169.423z"/>
		<path fill-rule="evenodd" clip-rule="evenodd" d="M102.135,92.833c2.768-0.691,4.99-1.335,7.255-1.73
			c0.404-0.071,1.168,0.81,1.425,1.399c0.165,0.38-0.231,1.457-0.484,1.494c-2.239,0.333-4.499,0.566-6.759,0.654
			C103.229,94.664,102.852,93.771,102.135,92.833z"/>
		<path fill-rule="evenodd" clip-rule="evenodd" d="M194.099,171.177c-1.418-1.935-2.737-2.96-2.624-3.79
			c0.121-0.888,1.508-2.027,2.504-2.22c0.647-0.125,2.188,1.205,2.24,1.956C196.284,168.082,195.25,169.116,194.099,171.177z"/>
		<path fill-rule="evenodd" clip-rule="evenodd" d="M258.182,143.726c-2.342,0.804-3.549,1.619-4.595,1.449
			c-0.819-0.133-2.134-1.652-1.989-2.258c0.224-0.93,1.662-2.355,2.315-2.224C255.105,140.932,256.101,142.156,258.182,143.726z"/>
		<path fill-rule="evenodd" clip-rule="evenodd" d="M297.288,144.834c-1.129,0.559-2.314,1.627-3.371,1.512
			c-0.828-0.089-1.496-1.645-2.235-2.548c0.928-0.718,1.814-1.922,2.798-2.009c0.903-0.08,1.913,1.045,2.875,1.639
			C297.333,143.897,297.31,144.366,297.288,144.834z"/>
		<path fill-rule="evenodd" clip-rule="evenodd" d="M327.663,141.81c1.28,1.937,2.581,3.089,2.373,3.793
			c-0.276,0.929-1.674,1.928-2.709,2.082c-0.627,0.092-2.077-1.357-2.081-2.119C325.241,144.637,326.367,143.704,327.663,141.81z"/>
		<path fill-rule="evenodd" clip-rule="evenodd" d="M190.168,167.999c-0.981,0.533-2.062,1.611-2.919,1.456
			c-0.98-0.177-1.762-1.451-2.631-2.248c0.96-0.712,1.849-1.806,2.906-2.005c0.748-0.141,1.724,0.93,2.598,1.46
			C190.138,167.107,190.153,167.553,190.168,167.999z"/>
		<path fill-rule="evenodd" clip-rule="evenodd" d="M118.952,111.602c0.783-1.292,1.325-2.187,2.013-3.325
			c0.992,0.873,1.77,1.556,2.658,2.337c0.634-0.548,1.247-1.496,1.875-1.507c0.7-0.013,1.563,0.718,2.038,1.359
			c0.153,0.206-0.705,1.684-1.091,1.681C124.092,112.122,121.742,111.837,118.952,111.602z"/>
		<path fill-rule="evenodd" clip-rule="evenodd" d="M180.383,163.485c1.444,1.984,2.74,3.005,2.609,3.785
			c-0.151,0.894-1.494,2.023-2.466,2.19c-0.668,0.114-2.154-1.17-2.245-1.951C178.176,166.617,179.21,165.591,180.383,163.485z"/>
		<path fill-rule="evenodd" clip-rule="evenodd" d="M270.704,143.084c-1.301,1.175-2.099,2.463-2.972,2.516
			c-0.792,0.048-2.355-1.262-2.342-1.948c0.02-1.034,1.119-2.046,1.759-3.068C268.166,141.299,269.183,142.015,270.704,143.084z"/>
		<path fill-rule="evenodd" clip-rule="evenodd" d="M164.403,143.897c-2.163,1.216-3.266,2.252-4.43,2.326
			c-0.643,0.041-1.389-1.53-2.088-2.375c0.919-0.727,1.763-1.857,2.782-2.047C161.432,141.658,162.422,142.724,164.403,143.897z"/>
		<path fill-rule="evenodd" clip-rule="evenodd" d="M160.687,163.888c1.156,1.459,1.813,2.289,2.47,3.118
			c-1.11,0.798-2.136,1.878-3.374,2.243c-0.436,0.128-2.082-1.649-1.942-2.286C158.055,165.99,159.338,165.251,160.687,163.888z"/>
		<path fill-rule="evenodd" clip-rule="evenodd" d="M300.906,169.38c-1.132-1.331-2.489-2.409-2.311-2.818
			c0.451-1.034,1.592-1.768,2.456-2.623c0.83,0.874,1.963,1.636,2.344,2.674C303.556,167.051,302.129,168.07,300.906,169.38z"/>
		<path fill-rule="evenodd" clip-rule="evenodd" d="M275.673,90.548c-1.349,0.089-2.698,0.233-4.048,0.24
			c-0.566,0.003-1.363-0.117-1.636-0.489c-0.265-0.359-0.202-1.29,0.1-1.653c0.389-0.468,1.144-0.828,1.765-0.869
			c1.239-0.079,2.53-0.063,3.729,0.215c0.762,0.177,1.398,0.896,2.091,1.372c-0.505,0.646-1.011,1.292-1.517,1.938
			C275.995,91.05,275.834,90.799,275.673,90.548z"/>
		<path fill-rule="evenodd" clip-rule="evenodd" d="M165.822,164.364c1.341,0.817,2.683,1.635,4.024,2.453
			c-0.911,0.853-1.822,1.705-2.733,2.558c-0.947-1.049-1.894-2.099-2.841-3.149C164.79,165.604,165.306,164.984,165.822,164.364z"/>
		<path fill-rule="evenodd" clip-rule="evenodd" d="M287.829,163.882c1.105,1.356,2.436,2.481,2.25,2.858
			c-0.517,1.046-1.663,1.781-2.561,2.64c-0.808-0.929-1.893-1.758-2.281-2.837C285.09,166.134,286.552,165.147,287.829,163.882z"/>
		<path fill-rule="evenodd" clip-rule="evenodd" d="M186.989,140.146c1.23,1.369,2.513,2.174,2.523,2.996
			c0.009,0.708-1.412,1.974-2.235,2.003c-0.834,0.029-2.272-1.058-2.408-1.837C184.74,142.568,185.954,141.594,186.989,140.146z"/>
		<path fill-rule="evenodd" clip-rule="evenodd" d="M147.277,148.163c-1.194-1.876-2.265-2.813-2.206-3.673
			c0.061-0.884,1.224-1.691,1.905-2.532c0.736,0.798,1.916,1.515,2.078,2.416C149.202,145.198,148.25,146.219,147.277,148.163z"/>
		<path fill-rule="evenodd" clip-rule="evenodd" d="M156.825,144.731c-1.013,0.599-2.162,1.816-3.002,1.632
			c-0.938-0.206-1.835-1.597-2.232-2.664c-0.124-0.333,1.435-1.825,2.229-1.829c1.001-0.006,2.008,0.968,3.012,1.519
			C156.831,143.836,156.828,144.284,156.825,144.731z"/>
		<path fill-rule="evenodd" clip-rule="evenodd" d="M310.895,144.574c-1.568,1.09-2.548,2.293-3.323,2.173
			c-0.901-0.139-2.229-1.419-2.254-2.239c-0.026-0.855,1.357-2.522,1.981-2.457C308.348,142.16,309.282,143.359,310.895,144.574z"/>
		<path fill-rule="evenodd" clip-rule="evenodd" d="M178.702,145.698c-1.053-3.63,0.287-4.888,2.536-4.992
			c0.583-0.027,1.244,1.65,1.87,2.544C181.713,144.024,180.32,144.798,178.702,145.698z"/>
		<path fill-rule="evenodd" clip-rule="evenodd" d="M177.061,167.539c-1.32,0.975-2.313,2.146-2.78,1.964
			c-1.075-0.417-1.894-1.493-2.816-2.301c0.845-0.722,1.667-1.977,2.54-2.012C174.82,165.156,175.688,166.416,177.061,167.539z"/>
		<path fill-rule="evenodd" clip-rule="evenodd" d="M334.381,168.167c-1.409-1.821-2.526-2.655-2.606-3.58
			c-0.056-0.63,1.394-2.004,2.071-1.943c1.024,0.092,2.353,0.958,2.786,1.86C336.879,165.02,335.604,166.265,334.381,168.167z"/>
		<path fill-rule="evenodd" clip-rule="evenodd" d="M215.577,145.228c-1.345-0.481-2.781-0.816-3.967-1.554
			c-0.264-0.164,0.055-2.146,0.634-2.569c0.766-0.56,2.684-0.881,2.989-0.471c0.746,0.999,0.848,2.479,1.208,3.764
			C216.153,144.675,215.865,144.951,215.577,145.228z"/>
		<path fill-rule="evenodd" clip-rule="evenodd" d="M321.154,141.803c1.117,1.747,2.292,2.893,2.063,3.371
			c-0.437,0.917-1.639,1.929-2.584,1.993c-0.703,0.047-2.132-1.363-2.101-2.076C318.569,144.222,319.797,143.404,321.154,141.803z"
			/>
		<path fill-rule="evenodd" clip-rule="evenodd" d="M166.777,140.176c1.39,1.807,2.729,2.8,2.62,3.597
			c-0.137,1.003-1.458,1.844-2.268,2.755c-0.751-0.869-1.884-1.644-2.131-2.638C164.815,143.153,165.783,142.13,166.777,140.176z"/>
		<path fill-rule="evenodd" clip-rule="evenodd" d="M266.45,169.933c-0.436-0.941-1.346-1.979-1.179-2.797
			c0.174-0.849,1.654-2.225,2.095-2.066c1.045,0.375,2.422,1.445,2.539,2.377c0.149,1.185-0.812,2.51-1.294,3.774
			C267.891,170.791,267.17,170.362,266.45,169.933z"/>
		<path fill-rule="evenodd" clip-rule="evenodd" d="M247.65,171.14c-1.259-1.62-2.581-2.671-2.397-3.223
			c0.352-1.058,1.557-1.835,2.408-2.728c0.626,0.761,1.71,1.495,1.756,2.29C249.469,168.375,248.586,169.324,247.65,171.14z"/>
		<path fill-rule="evenodd" clip-rule="evenodd" d="M277.545,167.453c-1.937,1.015-2.938,1.842-4.014,1.956
			c-0.442,0.046-1.599-1.585-1.443-2.207c0.218-0.873,1.309-2.037,2.113-2.109C274.973,165.024,275.854,166.189,277.545,167.453z"/>
		<path fill-rule="evenodd" clip-rule="evenodd" d="M204.01,143.072c-1.738,0.865-2.683,1.722-3.559,1.655
			c-0.751-0.057-1.42-1.17-2.126-1.817c0.838-0.846,1.557-2.079,2.56-2.385C201.436,140.358,202.462,141.754,204.01,143.072z"/>
		<path fill-rule="evenodd" clip-rule="evenodd" d="M153.834,169.201c-1.04-1.102-1.691-1.794-2.343-2.485
			c0.924-0.709,1.807-1.885,2.787-1.972c0.71-0.063,1.549,1.315,2.33,2.052C155.801,167.496,154.994,168.196,153.834,169.201z"/>
		<path fill-rule="evenodd" clip-rule="evenodd" d="M260.648,146.362c-1.265-1.531-1.999-2.418-2.731-3.306
			c0.91-0.672,1.822-1.861,2.732-1.861c0.817,0.001,2.081,1.2,2.297,2.08C263.099,143.893,261.825,144.862,260.648,146.362z"/>
		<path fill-rule="evenodd" clip-rule="evenodd" d="M143.618,143.948c-1.323,1.245-2.088,2.319-3.119,2.738
			c-0.349,0.142-2.053-1.514-1.933-2.103c0.205-1.008,1.226-2.059,2.183-2.599C141.104,141.783,142.242,142.97,143.618,143.948z"/>
		<path fill-rule="evenodd" clip-rule="evenodd" d="M124.733,142.482c1.791,0.936,3.248,1.697,4.705,2.458
			c-0.643,0.787-1.192,2.132-1.946,2.259C125.047,147.611,123.707,146.522,124.733,142.482z"/>
		<path fill-rule="evenodd" clip-rule="evenodd" d="M237.152,167.688c-1.401,0.991-2.305,2.081-2.872,1.926
			c-0.891-0.242-2.208-1.377-2.152-2.033c0.073-0.869,1.209-2.15,2.051-2.293C234.848,165.174,235.763,166.503,237.152,167.688z"/>
		<path fill-rule="evenodd" clip-rule="evenodd" d="M215.073,170.384c-1.213-0.919-2.426-1.839-3.639-2.758
			c0.964-0.801,1.927-1.603,2.892-2.403c0.818,1.177,1.636,2.355,2.454,3.533C216.211,169.298,215.642,169.841,215.073,170.384z"/>
		<path fill-rule="evenodd" clip-rule="evenodd" d="M133.394,168.489c-0.614-0.974-1.612-1.909-1.713-2.932
			c-0.072-0.732,1.058-1.583,1.652-2.38c0.889,0.786,2.177,1.427,2.531,2.406c0.249,0.688-0.772,1.837-1.226,2.78
			C134.223,168.405,133.808,168.447,133.394,168.489z"/>
		<path fill-rule="evenodd" clip-rule="evenodd" d="M150.37,165.925c-1.597,1.117-2.416,2.126-3.266,2.153
			c-0.734,0.023-2.232-1.368-2.13-1.618c0.44-1.077,1.193-2.224,2.158-2.786C147.498,163.461,148.741,164.754,150.37,165.925z"/>
		<path fill-rule="evenodd" clip-rule="evenodd" d="M283.875,166.577c-1.271,1.352-2.315,2.808-2.577,2.679
			c-1.083-0.535-1.929-1.548-2.862-2.386c0.686-0.661,1.337-1.803,2.068-1.857C281.385,164.947,282.334,165.807,283.875,166.577z"/>
		<path fill-rule="evenodd" clip-rule="evenodd" d="M237.428,142.826c-1.668,1.038-2.615,2.09-3.336,1.953
			c-0.826-0.156-2.043-1.395-2.01-2.113c0.037-0.806,1.224-2.093,2.018-2.179C234.864,140.404,235.766,141.587,237.428,142.826z"/>
		<path fill-rule="evenodd" clip-rule="evenodd" d="M243.884,142.913c-1.668,0.992-2.636,2.027-3.396,1.892
			c-0.786-0.139-1.974-1.49-1.889-2.174c0.104-0.828,1.309-2.028,2.129-2.106C241.472,140.454,242.338,141.674,243.884,142.913z"/>
		<path fill-rule="evenodd" clip-rule="evenodd" d="M207.447,139.25c0.925,1.761,1.835,2.726,1.778,3.63
			c-0.044,0.708-1.472,1.999-1.958,1.863c-0.893-0.249-2.103-1.333-2.141-2.12C205.084,141.786,206.248,140.889,207.447,139.25z"/>
		<path fill-rule="evenodd" clip-rule="evenodd" d="M240.939,164.046c0.994,1.837,2.021,2.883,1.896,3.765
			c-0.107,0.754-1.478,1.663-2.408,1.825c-0.48,0.084-1.774-1.357-1.71-2.013C238.812,166.66,239.792,165.783,240.939,164.046z"/>
		<path fill-rule="evenodd" clip-rule="evenodd" d="M177.141,143.385c-1.632,1.224-2.526,2.406-3.406,2.396
			c-0.741-0.008-1.799-1.311-2.059-2.226c-0.133-0.47,1.147-1.88,1.832-1.911C174.426,141.601,175.388,142.482,177.141,143.385z"/>
		<path fill-rule="evenodd" clip-rule="evenodd" d="M141.372,168.731c-1.042-0.905-2.27-1.689-2.995-2.802
			c-0.179-0.273,1.281-1.615,1.987-2.466c0.956,1.164,1.912,2.328,2.868,3.492C142.613,167.547,141.993,168.139,141.372,168.731z"/>
		<path fill-rule="evenodd" clip-rule="evenodd" d="M317.349,165.692c-1.404,1.026-2.33,2.222-3.163,2.16
			c-0.765-0.057-1.979-1.465-1.981-2.281c-0.002-0.774,1.312-2.169,2.044-2.168C315.116,163.405,315.98,164.611,317.349,165.692z"/>
		<path fill-rule="evenodd" clip-rule="evenodd" d="M290.949,144.196c-1.439,0.988-2.442,2.132-2.974,1.943
			c-0.933-0.331-1.578-1.478-2.343-2.282c0.732-0.679,1.504-1.938,2.187-1.891C288.713,142.027,289.535,143.12,290.949,144.196z"/>
		<path fill-rule="evenodd" clip-rule="evenodd" d="M277.213,143.578c-1.816,0.833-2.792,1.591-3.783,1.612
			c-0.548,0.012-1.721-1.575-1.576-1.815c0.543-0.9,1.428-1.937,2.355-2.141C274.807,141.103,275.703,142.34,277.213,143.578z"/>
		<path fill-rule="evenodd" clip-rule="evenodd" d="M317.487,144.628c-1.677,1.275-2.561,2.466-3.421,2.449
			c-0.789-0.015-1.554-1.331-2.33-2.073c0.812-0.689,1.536-1.728,2.461-1.953C314.879,142.885,315.819,143.778,317.487,144.628z"/>
		<path fill-rule="evenodd" clip-rule="evenodd" d="M250.491,143.052c-1.672,0.934-2.568,1.839-3.375,1.766
			c-0.74-0.068-2.073-1.478-1.94-1.798c0.416-1.005,1.266-2.118,2.22-2.491C247.858,140.349,248.929,141.729,250.491,143.052z"/>
		<path fill-rule="evenodd" clip-rule="evenodd" d="M310.938,166.157c-1.478,1.026-2.478,2.165-2.978,1.976
			c-1.021-0.386-2.024-1.365-2.499-2.356c-0.165-0.345,1.388-2.156,1.915-2.053C308.441,163.929,309.34,164.988,310.938,166.157z"/>
		<path fill-rule="evenodd" clip-rule="evenodd" d="M200.821,170.699c-1.005-1.372-2.134-2.254-2.013-2.905
			c0.172-0.933,1.256-1.698,1.952-2.535c0.726,0.843,1.805,1.598,2.047,2.562C202.955,168.411,201.821,169.324,200.821,170.699z"/>
		<path fill-rule="evenodd" clip-rule="evenodd" d="M236.042,187.198c1.483,0.454,2.966,0.907,4.45,1.361
			c-0.636,0.802-1.389,2.341-1.885,2.262c-1.206-0.192-2.292-1.135-3.425-1.775C235.469,188.43,235.755,187.814,236.042,187.198z"/>
		<path fill-rule="evenodd" clip-rule="evenodd" d="M382.776,206.408c-1.943,1.761-2.658,2.409-3.375,3.057
			c-0.617-0.705-1.793-1.477-1.719-2.1c0.108-0.909,0.984-2.212,1.775-2.417C380.233,204.747,381.311,205.708,382.776,206.408z"/>
		<path fill-rule="evenodd" clip-rule="evenodd" d="M210.452,167.729c-1.384,0.947-2.189,1.932-2.943,1.895
			c-0.779-0.038-2.214-1.237-2.12-1.636c0.233-0.989,1.174-1.812,1.831-2.701C208.101,165.953,208.982,166.619,210.452,167.729z"/>
		<path fill-rule="evenodd" clip-rule="evenodd" d="M93.862,203.884c0.883,1.521,1.926,2.533,1.735,3.18
			c-0.27,0.911-1.454,1.551-2.247,2.308c-0.589-0.827-1.626-1.648-1.637-2.484C91.703,206.106,92.78,205.311,93.862,203.884z"/>
		<path fill-rule="evenodd" clip-rule="evenodd" d="M363.697,94.369c-1.104,0.93-1.771,1.49-2.438,2.051
			c-0.597-0.841-1.429-1.622-1.672-2.555c-0.091-0.353,1.192-1.501,1.824-1.482C362.052,92.403,362.665,93.415,363.697,94.369z"/>
		<path fill-rule="evenodd" clip-rule="evenodd" d="M230.473,86.214c1.029,1.243,2.111,1.984,2.075,2.664
			c-0.038,0.697-1.207,1.899-1.814,1.859c-0.817-0.054-1.953-0.958-2.214-1.743C228.351,88.483,229.496,87.536,230.473,86.214z"/>
		<path fill-rule="evenodd" clip-rule="evenodd" d="M94.374,97.664c-1.017-1.417-2.04-2.241-1.913-2.804
			c0.203-0.895,1.174-1.615,1.819-2.41c0.575,0.767,1.466,1.476,1.62,2.319C96.016,95.404,95.187,96.211,94.374,97.664z"/>
		<path fill-rule="evenodd" clip-rule="evenodd" d="M106.624,208.117c-1.191,1.089-1.927,1.762-2.664,2.436
			c-0.604-0.791-1.653-1.571-1.671-2.373c-0.014-0.644,1.139-1.629,1.942-1.852C104.709,206.195,105.515,207.244,106.624,208.117z"
			/>
		<path fill-rule="evenodd" clip-rule="evenodd" d="M329.651,194.042c-1.145-1.554-2.134-2.309-2.055-2.928
			c0.118-0.919,0.991-1.742,1.544-2.606c0.644,0.632,1.705,1.196,1.819,1.912C331.09,191.236,330.375,192.186,329.651,194.042z"/>
		<path fill-rule="evenodd" clip-rule="evenodd" d="M283.201,143.91c-1.042,0.924-1.693,1.954-2.366,1.968
			c-0.642,0.014-1.932-1.185-1.835-1.575c0.216-0.866,1.002-1.8,1.808-2.207C281.137,141.931,282.119,143.058,283.201,143.91z"/>
		<path fill-rule="evenodd" clip-rule="evenodd" d="M351.311,106.056c1.031,1.502,1.953,2.25,1.871,2.863
			c-0.124,0.924-0.949,1.754-1.477,2.624c-0.715-0.691-1.841-1.293-2.021-2.103C349.527,108.726,350.428,107.778,351.311,106.056z"
			/>
		<path fill-rule="evenodd" clip-rule="evenodd" d="M346.836,113.176c-1.126-1.8-2.089-2.656-2.014-3.407
			c0.082-0.822,1.125-1.547,1.748-2.315c0.569,0.667,1.531,1.293,1.605,2.011C348.265,110.313,347.586,111.24,346.836,113.176z"/>
		<path fill-rule="evenodd" clip-rule="evenodd" d="M366.277,98.09c-0.999-1.681-1.876-2.501-1.736-3.073
			c0.214-0.877,1.128-1.583,1.744-2.362c0.539,0.583,1.514,1.165,1.516,1.75C367.803,95.286,367.125,96.169,366.277,98.09z"/>
		<path fill-rule="evenodd" clip-rule="evenodd" d="M311.27,92.991c-0.915-1.215-1.893-1.951-1.875-2.663
			c0.014-0.586,1.194-1.567,1.884-1.589c0.635-0.021,1.835,1.01,1.827,1.563C313.094,91.044,312.161,91.773,311.27,92.991z"/>
		<path fill-rule="evenodd" clip-rule="evenodd" d="M369.372,205.074c0.916,1.703,1.735,2.561,1.72,3.402
			c-0.014,0.711-0.995,1.404-1.548,2.106c-0.681-0.845-1.637-1.604-1.933-2.566C367.449,207.488,368.401,206.618,369.372,205.074z"
			/>
		<path fill-rule="evenodd" clip-rule="evenodd" d="M133.511,148.167c-0.861-1.625-1.734-2.538-1.661-3.368
			c0.057-0.647,1.536-1.816,1.946-1.653c0.862,0.342,1.804,1.328,1.996,2.206C135.913,145.9,134.727,146.735,133.511,148.167z"/>
		<path fill-rule="evenodd" clip-rule="evenodd" d="M362.764,105.975c0.116,1.262,0.348,2.536,0.226,3.774
			c-0.019,0.185-1.697,0.206-2.608,0.303c0-1.321,0-2.643,0-3.965C361.176,106.05,361.97,106.012,362.764,105.975z"/>
		<path fill-rule="evenodd" clip-rule="evenodd" d="M149.447,190.414c-1.038,0.978-1.727,1.626-2.416,2.275
			c-0.598-0.672-1.744-1.422-1.662-1.998c0.117-0.827,1.129-1.526,1.76-2.28C147.776,188.971,148.425,189.531,149.447,190.414z"/>
		<path fill-rule="evenodd" clip-rule="evenodd" fill="#FFFFFF" d="M424.494,123.153c4.413-6.169,8.908-12.282,13.219-18.523
			c4.618-6.686,9.163-13.428,13.496-20.301c0.841-1.333,0.759-3.374,0.762-5.09c0.011-8.614-0.082-17.228-0.157-25.843
			c-0.06-6.856,3.883-11.758,10.682-11.874c16.742-0.287,33.507-0.515,50.229,0.103c6.148,0.227,10.022,2.506,10.071,10.833
			c0.098,16.621-0.149,33.243,0.059,49.861c0.056,4.431-4.146,9.36-9.188,9.406c-17.497,0.158-34.997,0.091-52.494-0.026
			c-5.138-0.035-6.539-4.612-8.835-8.011c-0.778-1.153-1.608-2.27-2.415-3.403c-1.095,0.851-2.271,1.618-3.271,2.569
			c-4.306,4.101-8.686,8.136-12.789,12.433c-2.787,2.918-5.162,6.231-7.721,9.369C425.592,124.154,425.043,123.654,424.494,123.153z
			 M487.801,86.877c2.676,0,5.551,0,7.896,0c-0.524-2.293-1.438-4.357-1.368-6.386c0.149-4.348,0.91-8.671,1.198-13.019
			c0.085-1.286-0.575-2.622-0.894-3.935c-1.061,0.696-2.357,1.193-3.14,2.124c-2.825,3.363-5.595,6.787-8.16,10.349
			c-2.407,3.343-4.529,6.892-7.095,10.841c2.22,0,3.728,0,5.21,0c0.577-6.41,2.485-7.774,8.671-5.808
			C489.38,82.905,488.657,84.722,487.801,86.877z"/>
		<path fill-rule="evenodd" clip-rule="evenodd" fill="#FFFFFF" d="M226.705,333.227c0-3.621,0.011-7.243-0.005-10.864
			c-0.009-2.006,0.843-3.111,2.955-2.783c7.056,1.096,14.132,2.084,21.147,3.401c4.56,0.855,9.141,1.894,13.494,3.456
			c2.87,1.031,5.539,2.908,7.947,4.843c1.809,1.453-0.323,5.287-3.284,6.147c-7.389,2.147-14.714,4.566-22.194,6.327
			c-5.511,1.297-11.23,1.692-16.848,2.556c-2.735,0.421-3.509-0.782-3.377-3.348c0.167-3.237,0.041-6.489,0.041-9.735
			C226.622,333.227,226.663,333.227,226.705,333.227z"/>
		<path fill-rule="evenodd" clip-rule="evenodd" fill="#FFFFFF" d="M183.516,350.212c8.405-2.901,16.811-5.804,25.792-8.903
			c0,5.985,0,11.737,0,18.764c-8.144-5.642-18.181-4.261-26.28-8.802C183.189,350.918,183.352,350.564,183.516,350.212z"/>
		<path fill-rule="evenodd" clip-rule="evenodd" fill="#FFFFFF" d="M115.194,141.774c-1.652,1.885-2.752,3.141-3.854,4.397
			c1.3,1.034,2.601,2.066,4.733,3.762c0,2.813,0.072,6.745-0.072,10.671c-0.023,0.634-0.936,1.327-1.568,1.828
			c-0.993,0.788-2.096,1.435-3.153,2.143c0.987,0.989,1.974,1.978,2.962,2.967c0.479-0.008,0.959-0.016,1.439-0.023
			c-1.957,3.999-3.707,8.117-5.924,11.964c-2.434,4.222-5.354,7.991-9.39,11.089c-2.844,2.185-5.269,4.181-9.223,3.571
			c-0.38,1.188-0.738,2.305-1.054,3.294c-1.212-0.944-2.366-1.844-3.521-2.742c-0.363,1.427-0.727,2.854-1.288,5.06
			c-0.577-0.596-1.127-1.208-1.725-1.771c-0.737-0.694-1.513-1.344-2.272-2.014c-0.282,0.345-0.565,0.69-0.847,1.035
			c0.62,1.104,1.24,2.208,2.038,3.631c-1.254,0.099-2.186,0.172-3.532,0.278c0.153-0.661,0.398-1.097,0.305-1.441
			c-0.233-0.862-0.62-1.683-0.945-2.52c-0.71,0.357-1.781,0.527-2.073,1.098c-2.346,4.574-6.421,5.124-10.619,4.105
			c-6.419-1.558-12.807-3.404-18.99-5.71c-3.104-1.158-5.973-3.32-8.519-5.525c-5.082-4.401-9.508-9.536-12.121-15.762
			c-5.074-12.088-6.204-24.411-1.561-37.066c4.95-13.488,14.365-22.156,27.259-28.021c4.687-2.131,9.475-3.214,14.264-3.767
			c6.198-0.715,12.243,0.559,18.216,3.361c5.844,2.743,11.615,5.272,16.507,9.59C107.911,125.647,112.354,133.695,115.194,141.774z
			 M87.87,147.331c-0.203-0.421-0.406-0.841-0.608-1.262c-0.811,0.438-1.912,0.693-2.336,1.372
			c-0.303,0.486,0.076,2.022,0.545,2.239c1.026,0.475,2.592,0.921,3.416,0.455c1.547-0.875,2.671-1.44,4.374-0.296
			c0.488,0.327,2.294-0.357,2.641-1.023c0.39-0.75,0.154-2.343-0.441-2.938c-0.581-0.582-2.035-0.674-2.968-0.437
			C90.894,145.847,89.405,146.678,87.87,147.331z M91.367,161.152c-2.038-0.74-3.172-1.58-3.949-1.326
			c-0.993,0.324-2.149,1.429-2.367,2.393c-0.143,0.631,1.658,2.416,1.895,2.297C88.245,163.866,89.33,162.788,91.367,161.152z
			 M74.396,163.786c1.054-1.819,2.192-2.91,1.995-3.642c-0.322-1.195-1.513-2.157-2.337-3.218c-0.667,0.987-1.829,1.959-1.858,2.965
			C72.167,160.889,73.278,161.921,74.396,163.786z M77.521,150.565c-1.853-1.13-2.786-2.155-3.572-2.053
			c-0.841,0.11-2.283,1.488-2.155,1.949c0.283,1.022,1.268,2.323,2.193,2.539C74.699,153.167,75.756,151.85,77.521,150.565z
			 M61.091,158.354c0.449,0.059,0.896,0.118,1.345,0.177c0.702-1.229,1.606-2.401,1.978-3.723c0.108-0.385-1.236-1.564-2.035-1.707
			c-0.721-0.129-2.317,0.705-2.296,1.038C60.169,155.56,60.713,156.951,61.091,158.354z M68.58,155.371
			c-0.839,0.101-1.679,0.202-2.518,0.304c0.165,1.771,0.33,3.541,0.495,5.311c0.959-0.295,2.739-0.585,2.741-0.887
			C69.306,158.525,68.865,156.948,68.58,155.371z M83.167,161.888c0.324-0.603,0.648-1.206,0.973-1.808
			c-1.08-0.493-2.25-1.506-3.216-1.339c-1.069,0.186-1.952,1.45-2.916,2.244c0.775,0.767,1.459,1.989,2.352,2.168
			C81.179,163.316,82.223,162.354,83.167,161.888z M83.999,149.255c-1.667-1.109-2.663-2.257-3.296-2.083
			c-1.053,0.29-1.873,1.426-2.791,2.207c0.901,0.874,1.691,2.197,2.744,2.458C81.318,152.001,82.375,150.573,83.999,149.255z
			 M71.157,152.278c-1.941-1.157-2.924-2.184-3.878-2.158c-0.636,0.016-1.746,1.561-1.7,2.369c0.043,0.771,1.253,1.979,2.049,2.064
			C68.405,154.635,69.308,153.54,71.157,152.278z M104.279,163.973c1.317,1.067,2.147,2.242,3.068,2.317
			c0.68,0.056,2.084-1.335,2.068-2.058c-0.019-0.898-1.166-2.481-1.831-2.485C106.655,161.743,105.722,162.927,104.279,163.973z
			 M93.865,159.874c-1.13,1.376-2.274,2.196-2.43,3.173c-0.093,0.584,1.722,2.16,2.055,1.999c1.11-0.536,2.025-1.593,2.77-2.628
			C96.361,162.279,95.065,161.133,93.865,159.874z M100.287,150.241c1.191-1.401,2.432-2.253,2.327-2.881
			c-0.158-0.944-1.256-1.732-1.955-2.586c-0.729,0.64-2.013,1.248-2.053,1.928C98.552,147.625,99.45,148.605,100.287,150.241z
			 M107.351,149.564c0.924-1.588,1.854-2.518,1.866-3.459c0.007-0.561-1.618-1.749-2.166-1.574
			c-0.877,0.278-1.866,1.379-2.038,2.279C104.901,147.391,106.165,148.235,107.351,149.564z M98.816,165.46
			c1.408-0.294,2.764-0.3,3.742-0.911c0.432-0.27,0.438-2.365,0.041-2.592c-0.998-0.571-2.334-0.552-3.783-0.815
			C98.816,162.766,98.816,163.821,98.816,165.46z"/>
		<path fill-rule="evenodd" clip-rule="evenodd" fill="#FFFFFF" d="M82.857,284.81c-0.367,5.78-2.561,10.484-7.919,13.27
			c-2.462,1.28-5.855-0.171-6.615-2.757c-1.353-4.601,2.71-13.588,7.013-15.516C80.501,277.493,83.065,279.198,82.857,284.81z"/>
		<path fill-rule="evenodd" clip-rule="evenodd" fill="#FFFFFF" d="M305.934,57.078c-1.924-5.152-0.337-9.608,3.106-11.155
			c0.491-0.221,1.47-0.268,1.696,0.02c0.468,0.593,1.027,1.718,0.766,2.184C309.917,50.946,308.111,53.64,305.934,57.078z"/>
		<path fill-rule="evenodd" clip-rule="evenodd" d="M487.801,86.877c0.856-2.155,1.579-3.973,2.318-5.834
			c-6.186-1.967-8.094-0.602-8.671,5.808c-1.482,0-2.99,0-5.21,0c2.565-3.949,4.688-7.498,7.095-10.841
			c2.565-3.562,5.335-6.986,8.16-10.349c0.782-0.93,2.079-1.428,3.14-2.124c0.318,1.313,0.979,2.649,0.894,3.935
			c-0.288,4.348-1.049,8.671-1.198,13.019c-0.07,2.029,0.844,4.093,1.368,6.386C493.352,86.877,490.477,86.877,487.801,86.877z"/>
		<path fill-rule="evenodd" clip-rule="evenodd" d="M87.87,147.331c1.535-0.653,3.024-1.483,4.622-1.891
			c0.933-0.238,2.387-0.145,2.968,0.437c0.595,0.595,0.831,2.188,0.441,2.938c-0.346,0.666-2.153,1.351-2.641,1.023
			c-1.703-1.144-2.826-0.578-4.374,0.296c-0.823,0.466-2.389,0.021-3.416-0.455c-0.469-0.217-0.848-1.753-0.545-2.239
			c0.424-0.679,1.525-0.935,2.336-1.372C87.464,146.489,87.667,146.91,87.87,147.331z"/>
		<path fill-rule="evenodd" clip-rule="evenodd" d="M91.367,161.152c-2.037,1.636-3.122,2.714-4.421,3.364
			c-0.237,0.119-2.038-1.667-1.895-2.297c0.218-0.964,1.374-2.069,2.367-2.393C88.195,159.572,89.33,160.412,91.367,161.152z"/>
		<path fill-rule="evenodd" clip-rule="evenodd" d="M74.396,163.786c-1.119-1.864-2.229-2.896-2.2-3.895
			c0.029-1.006,1.191-1.979,1.858-2.965c0.824,1.061,2.016,2.022,2.337,3.218C76.588,160.875,75.45,161.966,74.396,163.786z"/>
		<path fill-rule="evenodd" clip-rule="evenodd" d="M77.521,150.565c-1.765,1.285-2.823,2.602-3.534,2.436
			c-0.925-0.216-1.91-1.517-2.193-2.539c-0.128-0.461,1.314-1.839,2.155-1.949C74.735,148.41,75.668,149.436,77.521,150.565z"/>
		<path fill-rule="evenodd" clip-rule="evenodd" d="M61.091,158.354c-0.377-1.402-0.922-2.794-1.009-4.214
			c-0.021-0.333,1.575-1.167,2.296-1.038c0.799,0.143,2.144,1.322,2.035,1.707c-0.372,1.321-1.276,2.493-1.978,3.723
			C61.987,158.471,61.54,158.413,61.091,158.354z"/>
		<path fill-rule="evenodd" clip-rule="evenodd" d="M68.58,155.371c0.285,1.577,0.727,3.154,0.718,4.729
			c-0.002,0.301-1.781,0.591-2.741,0.887c-0.165-1.77-0.33-3.541-0.495-5.311C66.901,155.573,67.74,155.472,68.58,155.371z"/>
		<path fill-rule="evenodd" clip-rule="evenodd" d="M83.167,161.888c-0.944,0.466-1.988,1.429-2.807,1.265
			c-0.893-0.179-1.577-1.401-2.352-2.168c0.964-0.794,1.847-2.058,2.916-2.244c0.966-0.167,2.136,0.846,3.216,1.339
			C83.815,160.682,83.491,161.285,83.167,161.888z"/>
		<path fill-rule="evenodd" clip-rule="evenodd" d="M83.999,149.255c-1.624,1.318-2.681,2.746-3.343,2.582
			c-1.053-0.261-1.843-1.584-2.744-2.458c0.918-0.78,1.738-1.917,2.791-2.207C81.336,146.999,82.332,148.146,83.999,149.255z"/>
		<path fill-rule="evenodd" clip-rule="evenodd" d="M71.157,152.278c-1.85,1.262-2.752,2.357-3.529,2.275
			c-0.796-0.085-2.006-1.293-2.049-2.064c-0.045-0.808,1.064-2.353,1.7-2.369C68.233,150.094,69.216,151.121,71.157,152.278z"/>
		<path fill-rule="evenodd" clip-rule="evenodd" d="M104.279,163.973c1.442-1.046,2.376-2.23,3.305-2.226
			c0.666,0.004,1.812,1.587,1.831,2.485c0.016,0.723-1.389,2.114-2.068,2.058C106.426,166.215,105.596,165.04,104.279,163.973z"/>
		<path fill-rule="evenodd" clip-rule="evenodd" d="M93.865,159.874c1.201,1.259,2.496,2.405,2.395,2.544
			c-0.745,1.035-1.66,2.092-2.77,2.628c-0.333,0.161-2.148-1.415-2.055-1.999C91.59,162.07,92.734,161.25,93.865,159.874z"/>
		<path fill-rule="evenodd" clip-rule="evenodd" d="M100.287,150.241c-0.837-1.636-1.735-2.616-1.681-3.54
			c0.04-0.68,1.324-1.288,2.053-1.928c0.699,0.854,1.797,1.642,1.955,2.586C102.719,147.988,101.478,148.84,100.287,150.241z"/>
		<path fill-rule="evenodd" clip-rule="evenodd" d="M107.351,149.564c-1.186-1.33-2.45-2.173-2.338-2.754
			c0.172-0.9,1.161-2,2.038-2.279c0.548-0.174,2.173,1.013,2.166,1.574C109.204,147.047,108.274,147.977,107.351,149.564z"/>
		<path fill-rule="evenodd" clip-rule="evenodd" d="M98.816,165.46c0-1.64,0-2.694,0-4.317c1.448,0.263,2.785,0.244,3.783,0.815
			c0.396,0.227,0.391,2.322-0.041,2.592C101.58,165.161,100.224,165.166,98.816,165.46z"/>
	</g>
</g>
</svg>
