<?xml version="1.0" encoding="utf-8"?>
<!-- Generator: Adobe Illustrator 16.0.0, SVG Export Plug-In . SVG Version: 6.00 Build 0)  -->
<!DOCTYPE svg PUBLIC "-//W3C//DTD SVG 1.1//EN" "http://www.w3.org/Graphics/SVG/1.1/DTD/svg11.dtd">
<svg version="1.1" id="Layer_1" xmlns="http://www.w3.org/2000/svg" xmlns:xlink="http://www.w3.org/1999/xlink" x="0px" y="0px"
	 width="513.821px" height="462.814px" viewBox="0 0 513.821 462.814" enable-background="new 0 0 513.821 462.814"
	 xml:space="preserve">
<g>
	<g>
		<path fill-rule="evenodd" clip-rule="evenodd" fill="#FFFFFF" d="M514.572,463.564c-171.274,0-342.548,0-513.822,0
			c0-154.271,0-308.542,0-462.814c171.274,0,342.548,0,513.822,0C514.572,155.022,514.572,309.293,514.572,463.564z
			 M201.248,313.899c1.357,4.613,2.373,9.364,4.161,13.804c2.079,5.157,4.565,10.199,7.371,15.002
			c3.191,5.464,6.535,10.929,10.516,15.82c7.079,8.697,14.672,16.859,23.993,23.451c9.923,7.017,18.858,15.429,28.762,22.476
			c12.648,9,25.814,17.272,38.842,25.729c0.718,0.466,2.209-0.26,3.34-0.431c-0.37-0.985-0.446-2.413-1.157-2.888
			c-9.242-6.164-18.768-11.919-27.832-18.328c-10.333-7.306-20.145-15.346-30.422-22.734c-10.771-7.743-20.861-16.221-29.351-26.41
			c-4.589-5.509-8.873-11.349-12.652-17.438c-5.495-8.854-9.542-18.447-11.572-28.723c-1.29-6.529-2.059-13.161-3.091-19.943
			c81.983,0,163.298,0,245.068,0c-1.431,2.123-2.536,3.764-3.642,5.403c0.233,0.327,0.465,0.654,0.697,0.981
			c6.896-2.457,13.792-4.913,20.688-7.369c-0.04-0.344-0.079-0.687-0.12-1.03c-7.193-2.379-14.387-4.76-21.58-7.139
			c-0.181,0.314-0.361,0.629-0.543,0.944c1.359,1.572,2.719,3.146,4.313,4.988c-73.275,0-146.124,0-218.973,0
			c5.646-2.252,11.122-4.572,16.831-5.846c9.842-2.196,17.326-8.593,24.669-14.437c17.114-13.616,28.182-32.234,38.873-50.995
			c1.773-3.112,2.666-7.784,8.1-7.303c0.553,0.049,1.628-1.855,1.871-2.98c0.847-3.926,0.881-8.114,2.263-11.814
			c1.661-4.443,4.558-8.406,6.616-12.722c5.017-10.525,10.027-21.059,14.711-31.735c3.073-7.005,6.201-14.096,8.133-21.456
			c1.641-6.248,4.545-10.266,10.66-12.403c10.216-3.571,20.256-7.643,30.46-11.251c9.02-3.191,18.198-5.934,27.212-9.141
			c1.492-0.531,4.638-0.321,3.771-3.314c-0.14-0.481-3.492-0.49-5.14,0.006c-5.656,1.706-11.196,3.792-16.815,5.625
			c-6.325,2.062-12.689,4.004-19.037,6c-2.349,0.738-4.775,1.293-7.027,2.259c-5.657,2.426-11.229,5.049-16.854,7.553
			c-0.391,0.174-0.927,0.023-1.797,0.023c0.343-1.82,0.579-3.387,0.935-4.926c2.831-12.23,5.707-24.449,8.521-36.683
			c1.384-6.019,2.744-12.046,3.927-18.107c0.203-1.047-0.541-2.279-0.847-3.425c-0.908,0.772-2.422,1.41-2.632,2.34
			c-2.522,11.221-4.722,22.516-7.275,33.729c-2.015,8.85-4.214,17.668-6.763,26.375c-0.598,2.042-2.62,4.117-4.536,5.231
			c-3.978,2.313-8.324,3.992-12.519,5.931c-2.126,0.982-4.559,1.591-6.312,3.027c-3.395,2.781-6.455,5.918-11.531,4.509
			c0.174,5.476-4.899,5.786-7.651,8.057c-3.938,3.247-8.857,5.268-13.145,8.132c-9.066,6.06-18.085,12.199-26.946,18.554
			c-5.697,4.086-11.063,8.633-16.606,12.936c-4.299,3.337-8.433,6.803-14.555,6.291c-4.941-0.413-4.852-0.049-5.153,4.81
			c-0.158,2.548-0.244,5.586-1.625,7.483c-4.747,6.518-10.423,12.37-15.024,18.977c-3.678,5.284-6.615,11.156-9.304,17.033
			c-2.259,4.937-3.687,10.255-5.482,15.404c-0.201-0.007-0.4-0.014-0.601-0.021c0-47.828,0-95.655,0-143.868
			c6.966,2.597,13.464,5.347,21.513,6.23c-2.21-2.401-3.556-3.864-5.34-5.802c28.895,0,56.983,0,85.916,0
			c-1.76,2.212-2.979,3.746-4.647,5.845c1.744,0,2.649,0.212,3.406-0.037c3.136-1.029,6.192-2.311,9.348-3.271
			c1.846-0.561,3.954-2.206,5.597,0.646c0.245,0.425,1.608,0.206,3.051,0.34c-0.732-1.537-1.126-2.364-1.487-3.125
			c0.883-0.67,1.681-1.275,3.069-2.33c-7.787-2.384-14.81-4.533-21.833-6.683c-0.19,0.407-0.381,0.813-0.571,1.218
			c1.092,1.331,2.183,2.661,3.58,4.363c-28.666,0-56.55,0-85.09,0c1.455-1.861,2.52-3.224,3.584-4.586
			c-0.218-0.343-0.436-0.686-0.653-1.028c-6.395,1.924-12.79,3.848-19.364,5.826c0-5.292,0-10.178,0-15.525
			c2.981,0.661,5.473,1.214,8.65,1.918c0.136-1.847-0.092-3.745,0.493-5.346c0.635-1.737,1.834-4.376,3.121-4.585
			c7.219-1.179,14.566-1.553,21.816-2.582c5.259-0.746,10.515-1.795,15.618-3.251c3.388-0.966,6.565-2.77,9.723-4.417
			c2.935-1.529,3.027-8.793,0.126-10.497c-2.745-1.613-5.521-3.506-8.539-4.26c-9.144-2.285-18.352-4.438-27.648-5.935
			c-6.128-0.986-12.452-0.767-18.689-1.061c-5.089-0.24-5.901-1.484-4.099-6.688c1.625,1.042,3.211,2.06,4.797,3.078
			c0.303-0.194,0.606-0.388,0.909-0.582c-2.46-7.139-4.92-14.276-7.381-21.415c-0.41-0.005-0.818-0.011-1.228-0.016
			c-2.344,7.23-4.688,14.459-7.032,21.689c0.334,0.203,0.669,0.405,1.003,0.608c1.516-1.088,3.031-2.176,5.032-3.611
			c0,2.276,0,3.996,0,5.666c-5.744,0-11.222-0.115-16.688,0.1c-1.065,0.041-2.08,1.362-3.118,2.092
			c1.044,0.759,2.052,2.106,3.137,2.173c4.359,0.267,8.745,0.232,13.116,0.119c2.788-0.072,4.062,0.791,3.917,3.833
			c-0.201,4.235-0.108,8.495,0.087,12.733c0.137,2.954-1.318,4.158-3.916,5c-4.764,1.544-9.453,3.333-14.108,5.186
			c-0.866,0.345-1.424,1.464-2.124,2.227c0.768,0.496,1.474,1.198,2.315,1.454c4.821,1.47,9.642,2.958,14.527,4.184
			c2.532,0.635,3.338,1.851,3.297,4.456c-0.179,11.487-0.153,22.977-0.179,34.466c-0.019,8.335-0.004,16.67-0.004,25.559
			c-7.004-2.073-13.4-3.966-19.795-5.859c-0.192,0.367-0.385,0.735-0.577,1.103c0.928,1.357,1.856,2.715,3.345,4.892
			c-7.429,0-13.892-0.052-20.353,0.044c-1.285,0.019-2.561,0.606-3.841,0.933c0.05,0.53,0.101,1.06,0.151,1.589
			c8.102,1.865,16.353,0.696,24.625,0.3c-1.376,1.95-2.708,3.835-4.039,5.721c0.272,0.249,0.544,0.499,0.817,0.748
			c6.366-2.037,12.731-4.073,19.697-6.301c0,44.516,0,88.273,0,132.183c-1.779,0-3.563,0.3-5.21-0.05
			c-8.49-1.805-16.972-3.668-25.398-5.75c-2.716-0.672-5.427-1.773-7.838-3.192c-10.61-6.243-20.957-12.988-29.628-21.768
			c-8.081-8.181-15.781-16.783-23.124-25.637c-8.887-10.715-17.253-21.865-25.78-32.877c-3.104-4.008-5.918-8.245-9.102-12.187
			c-0.736-0.912-2.438-1.044-3.696-1.535c0.229,1.212,0.1,2.675,0.745,3.595c5.24,7.486,10.444,15.008,16.009,22.25
			c7.097,9.235,14.378,18.338,21.851,27.272c5.927,7.085,11.883,14.224,18.527,20.609c5.95,5.719,13.136,10.135,19.268,15.688
			c6.778,6.14,14.958,9.352,23.197,12.538c3.345,1.293,6.972,1.856,10.471,2.752c-0.024,0.411-0.048,0.821-0.072,1.233
			c-48.547,0-97.095,0-145.643,0c-0.004,0.652-0.008,1.306-0.012,1.96c18.281,0.653,36.595,0.183,54.885,0.39
			c18.49,0.211,36.984,0.057,55.477,0.059c18.423,0.002,36.847,0,55.913,0c0,32.25,0,63.806,0,95.361
			c0.655,0.007,1.311,0.015,1.965,0.021C200.742,363.596,200.074,338.771,201.248,313.899z M275.045,153.934
			c0.004-0.633,0.008-1.265,0.012-1.898c-7.499-1.616-15.375,0.257-23.163-1.123c1.123-2.217,1.984-3.917,2.728-5.385
			c-7.281,1.547-13.986,2.922-20.652,4.467c-0.639,0.148-1.397,1.31-1.478,2.067c-0.266,2.49-0.325,5.013-0.269,7.52
			c0.011,0.513,0.861,1.008,1.325,1.511c0.532-0.523,1.444-0.995,1.523-1.579c0.214-1.577,0.073-3.203,0.073-5.465
			c6.914,2.712,13.026,5.149,19.483,6.208c0.125-0.315,0.25-0.63,0.375-0.945c-1.334-1.49-2.669-2.979-4.726-5.274
			c4.968,0,8.911,0.013,12.852-0.004C267.1,154.016,271.072,153.968,275.045,153.934z M341.066,213.828
			c3.099,2.37,4.43,2.094,6.604-0.539c2.318-2.808,4.992-5.355,7.042-8.339c1.454-2.116,2.229-4.734,3.036-7.215
			c0.11-0.34-1.353-1.192-2.087-1.806c-0.479,0.697-1.531,1.662-1.35,2.05c1.76,3.762-0.854,5.295-3.486,7.684
			c-0.441-3.677-0.802-6.684-1.164-9.703c-1.629-0.167-2.822-0.289-4.306-0.441c0.474-2.096,0.894-3.957,1.419-6.283
			c-1.461-0.08-2.68-0.147-3.749-0.206c-0.999,2.645,1.511,6.349-3.261,6.722c-5.346,0.418-9.739,7.002-8.251,12.188
			c0.693,2.414,2.209,3.069,4.605,2.04c0.861-0.37,1.994-0.117,3.003-0.127c0.992-0.01,2.33,0.402,2.896-0.088
			c0.788-0.681,1.313-2.006,1.395-3.098c0.195-2.583,0.063-5.191,0.063-7.789c0.422-0.186,0.843-0.373,1.265-0.559
			c0.846,0.773,2.359,1.491,2.43,2.33C347.622,206.049,349.963,212.381,341.066,213.828z M72.229,324.188
			c7.158-0.839,12.881-6.977,13.312-14.214c0.187-3.146-0.468-6.159-3.367-7.175c-2.313-0.811-5.616-0.837-7.709,0.26
			c-3.009,1.576-6.25,4.039-7.659,6.959c-1.349,2.795-1.191,6.856-0.319,9.975C66.989,321.787,70.224,322.815,72.229,324.188z
			 M204.761,152.254c1.45,1.517,3.036,2.487,3.542,3.855c0.92,2.496-0.343,4.38-2.656,5.749c-0.657,0.388-0.752,1.727-1.105,2.629
			c0.788,0.107,2.018,0.587,2.292,0.262c1.907-2.265,3.419-2.053,5.545-0.11c0.478,0.437,2.91-1.165,4.331-2.013
			c0.139-0.083-0.34-1.593-0.816-2.228c-0.775-1.033-1.785-1.889-2.696-2.819c1.075-1.008,2.182-1.986,3.213-3.037
			c0.523-0.533,0.911-1.2,1.36-1.806c-0.653-0.451-1.584-1.441-1.917-1.27c-2.623,1.352-5.068,0.528-7.647-0.073
			C207.217,151.163,206,151.915,204.761,152.254z M492.232,291.161c-0.736-1.281-1.035-2.488-1.587-2.618
			c-1.231-0.291-2.59-0.044-3.896-0.016c0.116,0.846-0.071,1.948,0.395,2.495c3.06,3.589,2.761,5.543-1.215,8.219
			c-0.626,0.421-0.714,1.641-1.05,2.491c1.046-0.03,2.267,0.263,3.088-0.182c0.802-0.434,1.196-1.62,1.576-2.187
			c1.484,1.081,2.816,2.762,3.75,2.563c1.334-0.283,2.376-1.943,2.732-2.271c-1.277-1.806-2.432-2.867-2.847-4.164
			c-0.568-1.783,0.159-2.982,2.354-3.321c1.078-0.166,1.993-1.393,2.98-2.14c-0.422-0.56-0.874-1.609-1.263-1.586
			c-1.227,0.074-2.466,0.456-3.623,0.916C493.168,289.546,492.915,290.247,492.232,291.161z M246.109,111.601
			c-0.086,0.439-0.173,0.879-0.261,1.319c4.917,5.334,4.765,6.233-0.404,9.652c-0.663,0.438-0.776,1.707-1.144,2.591
			c0.997,0.026,2.149,0.375,2.95-0.009c0.855-0.41,1.381-1.511,2.1-2.369c3.2,4.135,4.613,3.904,7.305-1.077
			c-1.207-0.236-2.343-0.458-3.368-0.659c-0.914-2.76-0.953-4.792,2.406-5.541c0.735-0.164,1.162-1.715,1.729-2.628
			c-1.035-0.278-2.098-0.84-3.097-0.744c-0.823,0.079-1.571,0.939-1.607,0.961C250.128,112.511,248.118,112.056,246.109,111.601z
			 M260.095,120.466c1.193-0.588,2.093-1.032,3.236-1.596c1.354,5.234-4.848,6.296-5.146,10.945c1.675,0,3.173,0.259,4.504-0.101
			c0.745-0.202,1.791-2.043,1.722-2.107c-2.024-1.909-0.076-2.775,0.775-4.156c0.776-1.262,1.141-2.961,1.15-4.471
			c0.017-2.581-1.931-2.954-3.937-2.555C260.429,116.816,258.798,117.696,260.095,120.466z M219.991,169.554
			c1.237-0.349,3.311-0.418,3.521-1.08c1.079-3.391,1.764-6.92,2.352-10.441c0.09-0.539-1.025-1.779-1.618-1.803
			c-0.707-0.028-1.954,0.794-2.098,1.441C221.329,161.349,220.77,165.083,219.991,169.554z"/>
		<path fill-rule="evenodd" clip-rule="evenodd" d="M201.248,313.899c-1.174,24.871-0.506,49.696-0.964,74.491
			c-0.655-0.007-1.311-0.015-1.965-0.021c0-31.556,0-63.111,0-95.361c-19.066,0-37.49,0.002-55.913,0
			c-18.493-0.002-36.987,0.152-55.477-0.059c-18.29-0.207-36.604,0.264-54.885-0.39c0.004-0.654,0.008-1.308,0.012-1.96
			c48.547,0,97.095,0,145.643,0c0.024-0.412,0.048-0.822,0.072-1.233c-3.499-0.896-7.126-1.459-10.471-2.752
			c-8.239-3.187-16.418-6.398-23.197-12.538c-6.132-5.554-13.317-9.97-19.268-15.688c-6.644-6.386-12.6-13.524-18.527-20.609
			c-7.473-8.934-14.754-18.037-21.851-27.272c-5.565-7.242-10.77-14.764-16.009-22.25c-0.645-0.92-0.516-2.383-0.745-3.595
			c1.258,0.491,2.96,0.623,3.696,1.535c3.183,3.942,5.998,8.179,9.102,12.187c8.527,11.012,16.893,22.162,25.78,32.877
			c7.342,8.854,15.042,17.456,23.124,25.637c8.672,8.779,19.018,15.524,29.628,21.768c2.411,1.419,5.123,2.521,7.838,3.192
			c8.426,2.082,16.908,3.945,25.398,5.75c1.647,0.35,3.431,0.05,5.21,0.05c0-43.91,0-87.667,0-132.183
			c-6.966,2.229-13.332,4.265-19.697,6.301c-0.272-0.249-0.544-0.499-0.817-0.748c1.331-1.886,2.662-3.771,4.039-5.721
			c-8.272,0.396-16.524,1.565-24.625-0.3c-0.05-0.529-0.101-1.06-0.151-1.589c1.28-0.326,2.556-0.914,3.841-0.933
			c6.461-0.097,12.924-0.044,20.353-0.044c-1.488-2.177-2.417-3.535-3.345-4.892c0.192-0.368,0.385-0.735,0.577-1.103
			c6.396,1.893,12.791,3.786,19.795,5.859c0-8.889-0.015-17.224,0.004-25.559c0.026-11.489,0-22.979,0.179-34.466
			c0.042-2.605-0.765-3.821-3.297-4.456c-4.886-1.226-9.707-2.713-14.527-4.184c-0.842-0.256-1.547-0.958-2.315-1.454
			c0.7-0.762,1.258-1.882,2.124-2.227c4.655-1.852,9.344-3.642,14.108-5.186c2.598-0.842,4.053-2.045,3.916-5
			c-0.196-4.238-0.288-8.498-0.087-12.733c0.145-3.042-1.129-3.905-3.917-3.833c-4.371,0.113-8.756,0.147-13.116-0.119
			c-1.085-0.067-2.093-1.415-3.137-2.173c1.038-0.73,2.053-2.051,3.118-2.092c5.465-0.215,10.943-0.1,16.688-0.1
			c0-1.67,0-3.39,0-5.666c-2.001,1.436-3.517,2.523-5.032,3.611c-0.334-0.203-0.669-0.405-1.003-0.608
			c2.344-7.23,4.688-14.459,7.032-21.689c0.409,0.005,0.818,0.01,1.228,0.016c2.46,7.138,4.921,14.276,7.381,21.415
			c-0.303,0.194-0.606,0.387-0.909,0.582c-1.586-1.018-3.172-2.035-4.797-3.078c-1.803,5.204-0.991,6.448,4.099,6.688
			c6.237,0.294,12.561,0.075,18.689,1.061c9.296,1.497,18.505,3.649,27.648,5.935c3.017,0.754,5.793,2.647,8.539,4.26
			c2.901,1.704,2.809,8.968-0.126,10.497c-3.158,1.647-6.334,3.45-9.723,4.417c-5.103,1.456-10.359,2.505-15.618,3.251
			c-7.25,1.029-14.597,1.403-21.816,2.582c-1.286,0.209-2.486,2.848-3.121,4.585c-0.585,1.602-0.356,3.5-0.493,5.346
			c-3.177-0.705-5.668-1.258-8.65-1.918c0,5.347,0,10.232,0,15.525c6.574-1.979,12.969-3.902,19.364-5.826
			c0.217,0.343,0.436,0.686,0.653,1.028c-1.065,1.362-2.129,2.725-3.584,4.586c28.54,0,56.424,0,85.09,0
			c-1.397-1.703-2.488-3.033-3.58-4.363c0.19-0.406,0.381-0.812,0.571-1.218c7.023,2.15,14.046,4.299,21.833,6.683
			c-1.389,1.054-2.187,1.66-3.069,2.33c0.361,0.76,0.755,1.587,1.487,3.125c-1.442-0.134-2.806,0.085-3.051-0.34
			c-1.643-2.852-3.751-1.208-5.597-0.646c-3.155,0.959-6.212,2.241-9.348,3.271c-0.757,0.249-1.662,0.037-3.406,0.037
			c1.668-2.099,2.888-3.632,4.647-5.845c-28.933,0-57.021,0-85.916,0c1.784,1.938,3.13,3.401,5.34,5.802
			c-8.049-0.884-14.547-3.633-21.513-6.23c0,48.213,0,96.041,0,143.868c0.2,0.007,0.4,0.014,0.601,0.021
			c1.795-5.149,3.223-10.468,5.482-15.404c2.689-5.876,5.626-11.749,9.304-17.033c4.601-6.607,10.277-12.459,15.024-18.977
			c1.382-1.897,1.467-4.936,1.625-7.483c0.301-4.859,0.211-5.223,5.153-4.81c6.123,0.513,10.256-2.953,14.555-6.291
			c5.543-4.303,10.909-8.85,16.606-12.936c8.861-6.355,17.88-12.495,26.946-18.554c4.287-2.865,9.207-4.885,13.145-8.132
			c2.752-2.271,7.825-2.581,7.651-8.057c5.076,1.409,8.137-1.728,11.531-4.509c1.753-1.437,4.186-2.045,6.312-3.027
			c4.194-1.939,8.541-3.618,12.519-5.931c1.916-1.114,3.938-3.188,4.536-5.231c2.549-8.707,4.748-17.525,6.763-26.375
			c2.554-11.214,4.753-22.509,7.275-33.729c0.21-0.93,1.724-1.568,2.632-2.34c0.306,1.146,1.05,2.378,0.847,3.425
			c-1.183,6.061-2.543,12.088-3.927,18.107c-2.814,12.233-5.69,24.453-8.521,36.683c-0.355,1.539-0.592,3.105-0.935,4.926
			c0.87,0,1.406,0.151,1.797-0.023c5.625-2.504,11.197-5.127,16.854-7.553c2.252-0.965,4.679-1.521,7.027-2.259
			c6.348-1.996,12.712-3.938,19.037-6c5.619-1.832,11.159-3.918,16.815-5.625c1.647-0.497,5-0.488,5.14-0.006
			c0.867,2.994-2.278,2.783-3.771,3.314c-9.014,3.207-18.192,5.95-27.212,9.141c-10.204,3.609-20.244,7.68-30.46,11.251
			c-6.115,2.137-9.02,6.155-10.66,12.403c-1.932,7.36-5.06,14.451-8.133,21.456c-4.684,10.676-9.694,21.21-14.711,31.735
			c-2.059,4.316-4.955,8.279-6.616,12.722c-1.382,3.7-1.416,7.889-2.263,11.814c-0.243,1.125-1.318,3.029-1.871,2.98
			c-5.434-0.48-6.326,4.191-8.1,7.303c-10.691,18.761-21.759,37.379-38.873,50.995c-7.344,5.844-14.827,12.24-24.669,14.437
			c-5.709,1.273-11.185,3.594-16.831,5.846c72.849,0,145.698,0,218.973,0c-1.594-1.843-2.953-3.416-4.313-4.988
			c0.182-0.315,0.362-0.63,0.543-0.944c7.193,2.379,14.387,4.76,21.58,7.139c0.041,0.344,0.08,0.687,0.12,1.03
			c-6.896,2.456-13.792,4.912-20.688,7.369c-0.232-0.327-0.464-0.654-0.697-0.981c1.105-1.64,2.211-3.28,3.642-5.403
			c-81.771,0-163.085,0-245.068,0c1.032,6.782,1.801,13.414,3.091,19.943c2.03,10.275,6.078,19.868,11.572,28.723
			c3.779,6.09,8.063,11.93,12.652,17.438c8.49,10.189,18.58,18.667,29.351,26.41c10.277,7.389,20.089,15.429,30.422,22.734
			c9.064,6.409,18.59,12.164,27.832,18.328c0.711,0.475,0.787,1.902,1.157,2.888c-1.131,0.171-2.622,0.896-3.34,0.431
			c-13.027-8.457-26.193-16.729-38.842-25.729c-9.904-7.047-18.839-15.459-28.762-22.476c-9.321-6.592-16.914-14.754-23.993-23.451
			c-3.981-4.892-7.325-10.356-10.516-15.82c-2.805-4.803-5.292-9.845-7.371-15.002C203.621,323.264,202.605,318.513,201.248,313.899
			z M232.198,205.68c-23.583,22.792-31.146,50.619-30.126,81.9c4.319,0,8.35,0.479,12.216-0.112
			c5.72-0.877,11.263-3.009,16.991-3.724c12.005-1.499,22.011-7.722,31.445-14.176c7.791-5.33,14.384-12.774,20.468-20.141
			c6.604-7.995,12.103-16.918,17.888-25.568c2.485-3.715,4.476-7.76,6.932-12.079c-1.333-0.101-2.03-0.202-2.728-0.201
			c-22.234,0.047-44.469,0.086-66.703,0.171C232.848,211.774,232.848,211.845,232.198,205.68z M320.209,189.219
			c10.199-20.31,20.841-41.578,28.043-64.309c-0.289-0.227-0.578-0.455-0.867-0.683c-10.085,5.681-20.168,11.363-29.767,16.77
			c0.387,1.793,0.62,2.875,0.854,3.956c-1.07-0.523-2.141-1.045-3.855-1.882c-20.867,13.729-42.457,27.791-62.328,44.497
			c5.292,0.511,10.386,0.543,15.478,0.504c12.937-0.1,25.872-0.362,38.807-0.276C310.999,187.824,315.419,188.694,320.209,189.219z
			 M211.43,78.987c4.003-0.639,8.272-1.245,12.512-2.012c9.272-1.677,18.558-3.3,27.771-5.262c2.17-0.462,4.192-2.021,6.029-3.41
			c0.585-0.443,0.809-2.613,0.413-2.896c-2.26-1.617-4.6-3.558-7.202-4.183c-8.999-2.163-17.785-5.595-27.279-5.234
			c-0.591,0.023-1.185-0.403-1.794-0.471c-6.995-0.773-13.994-1.518-21.296-2.303c0,6.443,0,12.454,0,18.54
			c2.899-0.576,6.458-2.356,7.854-1.293C210.248,71.842,210.338,75.481,211.43,78.987z M206.52,73.657
			c-7.187,2.609-13.907,5.049-20.628,7.489c-0.031,0.339-0.062,0.678-0.092,1.018c6.84,1.912,13.681,3.824,20.72,5.791
			C206.52,82.892,206.52,78.506,206.52,73.657z M270.478,207.679c0.275,0.433,0.551,0.865,0.825,1.298
			c7.632-2.621,10.863-10.804,17.196-15.08c0.587-0.396,0.67-1.536,0.988-2.331c-0.394-0.246-0.786-0.491-1.179-0.735
			C282.364,196.447,276.422,202.063,270.478,207.679z M237.092,208.107c5.563,2.181,6.867-3.054,9.443-4.823
			c4.068-2.792,6.723-7.641,9.977-11.619C248.871,195.553,243.703,202.171,237.092,208.107z M281.36,207.649
			c2.846,1.649,2.98,1.579,4.607-0.115c2.485-2.588,5.135-5.021,7.586-7.64c2.453-2.62,4.748-5.387,7.11-8.089
			C292.146,194.644,288.732,203.415,281.36,207.649z M278.655,191.43c-1.412,0-1.934-0.161-2.127,0.023
			c-5.663,5.408-11.293,10.851-16.929,16.289c0.064,0.34,0.128,0.681,0.191,1.022c1.376-0.354,3.106-0.303,4.061-1.139
			c2.681-2.35,5.107-5.006,7.512-7.653C273.725,197.371,275.934,194.632,278.655,191.43z M292.425,207.55
			c0.122,0.476,0.243,0.952,0.366,1.428c1.417-0.357,3.222-0.286,4.177-1.153c2.647-2.4,4.951-5.181,7.37-7.831
			c2.497-2.735,4.971-5.491,7.455-8.238c-0.259-0.258-0.518-0.516-0.775-0.774C303.401,194.865,299.78,203.367,292.425,207.55z
			 M267.498,192.042c-0.254-0.262-0.509-0.522-0.763-0.784c-7.439,4.036-11.537,11.83-18.416,16.702
			c3.12,1.195,2.989,1.077,4.789-0.912c2.195-2.423,4.688-4.572,6.957-6.933C262.599,197.478,265.025,194.737,267.498,192.042z
			 M314.779,197.146c-3.875,3.698-7.488,7.147-11.19,10.68C307.603,209.461,314.673,202.801,314.779,197.146z M245.742,191.507
			c-4.299,0.255-9.908,6.174-9.39,10.143C239.597,198.144,242.522,194.984,245.742,191.507z"/>
		<path fill-rule="evenodd" clip-rule="evenodd" d="M275.045,153.934c-3.973,0.034-7.945,0.082-11.918,0.099
			c-3.941,0.018-7.884,0.004-12.852,0.004c2.057,2.295,3.392,3.784,4.726,5.274c-0.125,0.315-0.25,0.63-0.375,0.945
			c-6.457-1.059-12.569-3.496-19.483-6.208c0,2.262,0.141,3.888-0.073,5.465c-0.08,0.584-0.992,1.056-1.523,1.579
			c-0.464-0.503-1.313-0.999-1.325-1.511c-0.056-2.507,0.003-5.029,0.269-7.52c0.081-0.757,0.839-1.918,1.478-2.067
			c6.666-1.544,13.371-2.92,20.652-4.467c-0.744,1.468-1.604,3.168-2.728,5.385c7.788,1.379,15.664-0.494,23.163,1.123
			C275.053,152.668,275.049,153.3,275.045,153.934z"/>
		<path fill-rule="evenodd" clip-rule="evenodd" d="M341.066,213.828c8.896-1.447,6.556-7.779,6.103-13.177
			c-0.07-0.839-1.584-1.557-2.43-2.33c-0.422,0.186-0.843,0.373-1.265,0.559c0,2.598,0.133,5.206-0.063,7.789
			c-0.082,1.091-0.606,2.417-1.395,3.098c-0.565,0.49-1.903,0.078-2.896,0.088c-1.009,0.01-2.142-0.243-3.003,0.127
			c-2.396,1.03-3.912,0.374-4.605-2.04c-1.488-5.187,2.905-11.77,8.251-12.188c4.771-0.373,2.262-4.077,3.261-6.722
			c1.069,0.059,2.288,0.126,3.749,0.206c-0.525,2.326-0.945,4.188-1.419,6.283c1.483,0.152,2.677,0.274,4.306,0.441
			c0.362,3.019,0.723,6.026,1.164,9.703c2.633-2.389,5.246-3.921,3.486-7.684c-0.182-0.388,0.87-1.353,1.35-2.05
			c0.734,0.614,2.197,1.466,2.087,1.806c-0.807,2.481-1.582,5.099-3.036,7.215c-2.05,2.983-4.724,5.531-7.042,8.339
			C345.496,215.922,344.165,216.198,341.066,213.828z M340.294,198.252c-4.851,0.904-6.455,3.402-5.445,8.145
			C338.844,205.778,340.712,203.091,340.294,198.252z"/>
		<path fill-rule="evenodd" clip-rule="evenodd" d="M72.229,324.188c-2.005-1.373-5.24-2.401-5.742-4.195
			c-0.873-3.118-1.03-7.18,0.319-9.975c1.409-2.92,4.649-5.383,7.659-6.959c2.093-1.097,5.397-1.07,7.709-0.26
			c2.899,1.016,3.554,4.029,3.367,7.175C85.11,317.212,79.387,323.35,72.229,324.188z M69.564,317.556
			c0.266,0.38,0.945,2.406,2.149,2.793c1.426,0.457,3.603-0.051,4.934-0.93c4.4-2.902,5.182-7.534,4.613-12.312
			c-0.393-3.304-4.065-4.611-6.301-2.242C72.001,307.999,69.367,311.504,69.564,317.556z"/>
		<path fill-rule="evenodd" clip-rule="evenodd" d="M204.761,152.254c1.239-0.339,2.457-1.091,3.445-0.86
			c2.579,0.602,5.025,1.425,7.647,0.073c0.333-0.171,1.263,0.818,1.917,1.27c-0.449,0.606-0.836,1.272-1.36,1.806
			c-1.031,1.051-2.138,2.029-3.213,3.037c0.911,0.93,1.92,1.787,2.696,2.819c0.476,0.635,0.955,2.145,0.816,2.228
			c-1.421,0.848-3.853,2.45-4.331,2.013c-2.126-1.943-3.639-2.155-5.545,0.11c-0.274,0.325-1.504-0.155-2.292-0.262
			c0.353-0.902,0.448-2.241,1.105-2.629c2.313-1.369,3.577-3.253,2.656-5.749C207.796,154.741,206.21,153.771,204.761,152.254z"/>
		<path fill-rule="evenodd" clip-rule="evenodd" d="M492.232,291.161c0.683-0.914,0.936-1.615,1.396-1.799
			c1.157-0.46,2.396-0.842,3.623-0.916c0.389-0.023,0.841,1.026,1.263,1.586c-0.987,0.747-1.902,1.974-2.98,2.14
			c-2.195,0.339-2.923,1.538-2.354,3.321c0.415,1.297,1.569,2.358,2.847,4.164c-0.356,0.327-1.398,1.987-2.732,2.271
			c-0.934,0.198-2.266-1.482-3.75-2.563c-0.38,0.566-0.774,1.753-1.576,2.187c-0.821,0.444-2.042,0.151-3.088,0.182
			c0.336-0.851,0.424-2.07,1.05-2.491c3.976-2.676,4.274-4.63,1.215-8.219c-0.466-0.547-0.278-1.649-0.395-2.495
			c1.307-0.028,2.665-0.275,3.896,0.016C491.197,288.673,491.496,289.88,492.232,291.161z"/>
		<path fill-rule="evenodd" clip-rule="evenodd" d="M246.109,111.601c2.009,0.455,4.02,0.911,6.608,1.497
			c0.036-0.022,0.784-0.882,1.607-0.961c0.999-0.096,2.062,0.466,3.097,0.744c-0.568,0.913-0.994,2.464-1.729,2.628
			c-3.359,0.749-3.319,2.781-2.406,5.541c1.025,0.201,2.162,0.423,3.368,0.659c-2.692,4.98-4.104,5.212-7.305,1.077
			c-0.719,0.858-1.244,1.959-2.1,2.369c-0.801,0.384-1.953,0.036-2.95,0.009c0.368-0.884,0.481-2.153,1.144-2.591
			c5.169-3.419,5.322-4.318,0.404-9.652C245.936,112.48,246.022,112.04,246.109,111.601z"/>
		<path fill-rule="evenodd" clip-rule="evenodd" d="M260.095,120.466c-1.297-2.77,0.334-3.649,2.306-4.042
			c2.006-0.398,3.953-0.025,3.937,2.555c-0.01,1.51-0.374,3.209-1.15,4.471c-0.852,1.381-2.8,2.247-0.775,4.156
			c0.069,0.064-0.977,1.905-1.722,2.107c-1.331,0.36-2.829,0.101-4.504,0.101c0.298-4.649,6.5-5.711,5.146-10.945
			C262.188,119.434,261.288,119.877,260.095,120.466z"/>
		<path fill-rule="evenodd" clip-rule="evenodd" d="M219.991,169.554c0.779-4.471,1.338-8.206,2.156-11.883
			c0.144-0.647,1.391-1.469,2.098-1.441c0.593,0.024,1.708,1.264,1.618,1.803c-0.587,3.521-1.273,7.05-2.352,10.441
			C223.301,169.136,221.228,169.205,219.991,169.554z"/>
		<path fill-rule="evenodd" clip-rule="evenodd" fill="#FFFFFF" d="M232.198,205.68c0.65,6.165,0.65,6.094,6.383,6.071
			c22.234-0.085,44.469-0.125,66.703-0.171c0.697-0.001,1.395,0.1,2.728,0.201c-2.456,4.319-4.446,8.364-6.932,12.079
			c-5.785,8.65-11.283,17.573-17.888,25.568c-6.084,7.366-12.677,14.811-20.468,20.141c-9.434,6.454-19.44,12.677-31.445,14.176
			c-5.729,0.715-11.271,2.847-16.991,3.724c-3.866,0.592-7.897,0.112-12.216,0.112C201.053,256.299,208.615,228.472,232.198,205.68z
			 M272.45,228.4c-2.446-0.717-4.087-1.199-5.729-1.68c-0.195,0.834-0.842,2.08-0.515,2.439c3.33,3.653,3.145,5.574-0.689,8.441
			c-0.926,0.692-1.264,2.173-1.871,3.29c0.451,0.333,0.902,0.666,1.354,0.999c1.527-1.334,3.054-2.668,4.683-4.092
			c0.457,1.156,0.933,2.36,1.757,4.442c1.512-1.374,2.734-2.373,3.729-3.563c0.098-0.117-1.467-1.303-1.794-2.169
			c-0.508-1.347-0.849-2.857-0.774-4.273c0.028-0.54,1.403-1,2.154-1.513c0.792-0.539,1.737-0.973,2.279-1.703
			c0.236-0.317-0.347-1.812-0.591-1.821c-1.156-0.041-2.362,0.126-3.468,0.48C272.532,227.82,272.303,228.628,272.45,228.4z"/>
		<path fill-rule="evenodd" clip-rule="evenodd" fill="#FFFFFF" d="M320.209,189.219c-4.79-0.525-9.21-1.395-13.637-1.423
			c-12.935-0.086-25.87,0.176-38.807,0.276c-5.092,0.039-10.186,0.007-15.478-0.504c19.871-16.706,41.461-30.768,62.328-44.497
			c1.715,0.837,2.785,1.359,3.855,1.882c-0.233-1.082-0.467-2.163-0.854-3.956c9.599-5.407,19.682-11.088,29.767-16.77
			c0.289,0.228,0.578,0.456,0.867,0.683C341.05,147.642,330.408,168.91,320.209,189.219z M318.588,150.155
			c0.032-0.442,0.255-1.224,0.077-1.901c-0.112-0.424-0.826-0.69-1.27-1.027c-0.313,1.675-0.724,3.34-0.875,5.029
			c-0.042,0.468,0.688,1.004,1.063,1.51c0.407-0.37,1.067-0.684,1.165-1.123C318.903,151.955,318.678,151.183,318.588,150.155z"/>
		<path fill-rule="evenodd" clip-rule="evenodd" fill="#FFFFFF" d="M211.43,78.987c-1.092-3.505-1.182-7.145-2.993-8.524
			c-1.396-1.063-4.954,0.718-7.854,1.293c0-6.086,0-12.096,0-18.54c7.302,0.785,14.301,1.53,21.296,2.303
			c0.609,0.067,1.204,0.494,1.794,0.471c9.494-0.361,18.28,3.072,27.279,5.234c2.602,0.625,4.941,2.566,7.202,4.183
			c0.396,0.283,0.172,2.453-0.413,2.896c-1.837,1.389-3.859,2.947-6.029,3.41c-9.213,1.962-18.498,3.585-27.771,5.262
			C219.702,77.742,215.433,78.348,211.43,78.987z"/>
		<path fill-rule="evenodd" clip-rule="evenodd" fill="#FFFFFF" d="M206.52,73.657c0,4.849,0,9.235,0,14.297
			c-7.039-1.967-13.879-3.879-20.72-5.791c0.03-0.339,0.061-0.679,0.092-1.018C192.613,78.706,199.333,76.266,206.52,73.657z"/>
		<path fill-rule="evenodd" clip-rule="evenodd" fill="#FFFFFF" d="M270.478,207.679c5.944-5.616,11.887-11.232,17.831-16.848
			c0.393,0.245,0.785,0.49,1.179,0.735c-0.318,0.794-0.401,1.935-0.988,2.331c-6.333,4.276-9.564,12.459-17.196,15.08
			C271.028,208.544,270.753,208.112,270.478,207.679z"/>
		<path fill-rule="evenodd" clip-rule="evenodd" fill="#FFFFFF" d="M237.092,208.107c6.611-5.936,11.779-12.554,19.42-16.442
			c-3.254,3.978-5.909,8.828-9.977,11.619C243.959,205.053,242.655,210.288,237.092,208.107z"/>
		<path fill-rule="evenodd" clip-rule="evenodd" fill="#FFFFFF" d="M281.36,207.649c7.372-4.235,10.785-13.006,19.304-15.845
			c-2.362,2.703-4.657,5.47-7.11,8.089c-2.451,2.619-5.101,5.052-7.586,7.64C284.341,209.229,284.206,209.298,281.36,207.649z"/>
		<path fill-rule="evenodd" clip-rule="evenodd" fill="#FFFFFF" d="M278.655,191.43c-2.722,3.202-4.931,5.941-7.292,8.542
			c-2.404,2.647-4.831,5.304-7.512,7.653c-0.954,0.836-2.685,0.785-4.061,1.139c-0.063-0.341-0.127-0.682-0.191-1.022
			c5.636-5.438,11.266-10.88,16.929-16.289C276.722,191.269,277.243,191.43,278.655,191.43z"/>
		<path fill-rule="evenodd" clip-rule="evenodd" fill="#FFFFFF" d="M292.425,207.55c7.355-4.183,10.977-12.686,18.593-16.568
			c0.258,0.258,0.517,0.516,0.775,0.774c-2.484,2.747-4.958,5.503-7.455,8.238c-2.419,2.649-4.723,5.43-7.37,7.831
			c-0.955,0.867-2.76,0.795-4.177,1.153C292.668,208.502,292.547,208.026,292.425,207.55z"/>
		<path fill-rule="evenodd" clip-rule="evenodd" fill="#FFFFFF" d="M267.498,192.042c-2.473,2.696-4.899,5.437-7.433,8.074
			c-2.269,2.36-4.762,4.509-6.957,6.933c-1.8,1.989-1.669,2.107-4.789,0.912c6.879-4.872,10.976-12.666,18.416-16.702
			C266.989,191.519,267.244,191.78,267.498,192.042z"/>
		<path fill-rule="evenodd" clip-rule="evenodd" fill="#FFFFFF" d="M314.779,197.146c-0.106,5.655-7.177,12.315-11.19,10.68
			C307.291,204.293,310.904,200.843,314.779,197.146z"/>
		<path fill-rule="evenodd" clip-rule="evenodd" fill="#FFFFFF" d="M245.742,191.507c-3.22,3.477-6.146,6.637-9.39,10.143
			C235.834,197.681,241.443,191.762,245.742,191.507z"/>
		<path fill-rule="evenodd" clip-rule="evenodd" fill="#FFFFFF" d="M340.294,198.252c0.418,4.839-1.45,7.526-5.445,8.145
			C333.839,201.654,335.443,199.156,340.294,198.252z"/>
		<path fill-rule="evenodd" clip-rule="evenodd" fill="#FFFFFF" d="M69.564,317.556c-0.197-6.052,2.437-9.557,5.396-12.69
			c2.236-2.369,5.908-1.062,6.301,2.242c0.568,4.777-0.213,9.409-4.613,12.312c-1.331,0.879-3.508,1.387-4.934,0.93
			C70.509,319.962,69.83,317.936,69.564,317.556z"/>
		<path fill-rule="evenodd" clip-rule="evenodd" d="M272.45,228.4c-0.147,0.228,0.082-0.58,0.524-0.721
			c1.105-0.354,2.312-0.521,3.468-0.48c0.244,0.009,0.827,1.504,0.591,1.821c-0.542,0.73-1.487,1.164-2.279,1.703
			c-0.751,0.513-2.126,0.973-2.154,1.513c-0.074,1.416,0.267,2.927,0.774,4.273c0.327,0.866,1.892,2.052,1.794,2.169
			c-0.994,1.189-2.217,2.188-3.729,3.563c-0.824-2.082-1.3-3.286-1.757-4.442c-1.629,1.424-3.155,2.758-4.683,4.092
			c-0.451-0.333-0.902-0.666-1.354-0.999c0.607-1.117,0.945-2.598,1.871-3.29c3.834-2.867,4.02-4.788,0.689-8.441
			c-0.327-0.359,0.319-1.605,0.515-2.439C268.363,227.202,270.004,227.683,272.45,228.4z"/>
		<path fill-rule="evenodd" clip-rule="evenodd" d="M318.588,150.155c0.09,1.028,0.315,1.8,0.161,2.488
			c-0.098,0.439-0.758,0.753-1.165,1.123c-0.375-0.505-1.105-1.042-1.063-1.51c0.151-1.688,0.563-3.354,0.875-5.029
			c0.443,0.337,1.157,0.603,1.27,1.027C318.843,148.931,318.62,149.712,318.588,150.155z"/>
	</g>
</g>
</svg>
