<?xml version="1.0" encoding="utf-8"?>
<!-- Generator: Adobe Illustrator 16.0.0, SVG Export Plug-In . SVG Version: 6.00 Build 0)  -->
<!DOCTYPE svg PUBLIC "-//W3C//DTD SVG 1.1//EN" "http://www.w3.org/Graphics/SVG/1.1/DTD/svg11.dtd">
<svg version="1.1" id="Layer_1" xmlns="http://www.w3.org/2000/svg" xmlns:xlink="http://www.w3.org/1999/xlink" x="0px" y="0px"
	 width="623.337px" height="510.821px" viewBox="0 0 623.337 510.821" enable-background="new 0 0 623.337 510.821"
	 xml:space="preserve">
<g>
	<g>
		<path fill-rule="evenodd" clip-rule="evenodd" fill="#FFFFFF" d="M0.75,0.75c207.779,0,415.558,0,623.337,0
			c0,170.274,0,340.548,0,510.821c-207.779,0-415.558,0-623.337,0C0.75,341.298,0.75,171.024,0.75,0.75z M237.637,366.968
			c0.26,0.014,0.52,0.027,0.779,0.041c1.82,5.497,3.443,11.069,5.499,16.477c5.181,13.623,12.918,25.751,22.438,36.719
			c4.603,5.304,9.366,10.51,14.466,15.326c4.551,4.298,9.613,8.066,14.549,11.94c3.76,2.95,7.657,5.729,11.531,8.531
			c3.273,2.368,6.669,4.572,9.884,7.014c3.616,2.745,7.019,5.771,10.647,8.497c3.246,2.438,6.609,4.735,10.033,6.917
			c5.675,3.614,11.457,7.06,17.16,10.628c3.034,1.898,5.984,3.931,9.001,5.858c3.733,2.388,7.459,4.792,11.27,7.051
			c1.206,0.716,2.652,1.156,4.042,1.352c0.404,0.057,1.541-1.532,1.398-1.75c-0.769-1.174-1.68-2.38-2.823-3.164
			c-5.291-3.626-10.679-7.113-16.028-10.656c-4.328-2.867-8.633-5.772-12.982-8.604c-4.5-2.931-9.116-5.687-13.543-8.721
			c-3.66-2.509-7.042-5.421-10.687-7.955c-4.71-3.274-9.667-6.2-14.312-9.562c-3.451-2.496-6.611-5.403-9.833-8.205
			c-2.646-2.302-5.158-4.758-7.792-7.073c-4.194-3.688-8.692-7.067-12.597-11.034c-4.301-4.368-8.179-9.169-12.049-13.936
			c-3.228-3.977-6.042-8.287-9.28-12.256c-6-7.354-9.154-16.153-11.862-24.923c-3.092-10.016-5.122-20.397-7.03-30.728
			c-1.047-5.666-0.506-5.744,5.087-5.799c1.744-0.018,3.489-0.297,5.23-0.269c11.476,0.187,22.951,0.576,34.427,0.605
			c13.701,0.035,27.403-0.311,41.105-0.336c16.981-0.032,33.963,0.137,50.945,0.142c20.342,0.006,40.686-0.084,61.027-0.106
			c27.6-0.029,55.201-0.034,82.802-0.049c4.673-0.002,9.346-0.001,14.019-0.001c0.194,0.377,0.39,0.754,0.585,1.131
			c-1.43,2.042-2.859,4.084-4.396,6.279c3.744,0.873,23.952-6.6,26.006-9.662c-8.693-1.932-16.266-7.095-25.838-7.312
			c1.639,2.363,2.89,4.169,4.537,6.546c-89.077,0-176.964,0-264.851,0c2.654-1.869,5.452-3.277,8.407-3.812
			c9.919-1.794,18.726-6.043,27.248-11.22c2.851-1.732,6.171-3.046,9.441-3.631c3.386-0.605,6.973-0.13,10.47-0.06
			c6.191,0.123,7.174-0.827,6.687-7.069c-0.495-6.342,0.072-12.266,5.411-16.712c1.038-0.865,2.058-1.839,2.813-2.947
			c7.063-10.367,14.069-20.773,21.081-31.174c1.869-2.772,3.89-5.464,5.505-8.378c2.313-4.173,4.251-8.551,6.47-12.779
			c3.391-6.456,7.026-12.786,10.295-19.301c3.522-7.021,6.709-14.208,10.104-21.293c4.458-9.303,9.391-18.404,13.359-27.909
			c4.378-10.482,7.81-21.354,11.854-31.98c0.869-2.283,2.128-4.979,4.031-6.186c3.672-2.33,7.857-3.932,11.968-5.464
			c4.365-1.628,8.967-2.622,13.328-4.259c6.109-2.295,11.975-5.284,18.156-7.335c9.721-3.225,19.635-5.866,29.433-8.869
			c2.463-0.754,4.87-1.797,7.141-3.012c0.715-0.382,0.899-1.755,1.326-2.675c-1.034-0.479-2.166-1.497-3.083-1.331
			c-2.284,0.416-4.475,1.362-6.699,2.108c-10.526,3.533-21.108,6.91-31.559,10.655c-8.729,3.129-17.273,6.773-25.96,10.027
			c-4.432,1.66-8.996,2.963-13.75,4.508c0.686-3.216,1.239-6.096,1.923-8.946c0.922-3.833,2.016-7.625,2.908-11.463
			c1.737-7.469,3.435-14.948,5.058-22.442c1.124-5.185,2.029-10.417,3.158-15.6c1.111-5.102,2.516-10.145,3.468-15.274
			c0.181-0.973-1.149-2.226-1.782-3.349c-0.918,0.793-2.442,1.45-2.659,2.403c-2.44,10.758-4.721,21.552-6.958,32.354
			c-1.362,6.578-2.267,13.266-3.932,19.762c-2.16,8.431-4.827,16.734-7.409,25.052c-0.273,0.882-1.312,1.743-2.205,2.185
			c-6.409,3.166-13.077,5.862-19.273,9.39c-10.447,5.947-20.668,12.303-30.87,18.668c-7.964,4.969-15.769,10.196-23.619,15.347
			c-3.067,2.013-6.055,4.145-9.098,6.195c-1.831,1.232-3.979,2.135-5.482,3.676c-2.397,2.458-4.965,3.947-8.473,3.87
			c-4.362-0.096-8.73,0.069-13.095-0.004c-2.374-0.04-3.424,0.89-3.318,3.313c0.136,3.116,0.323,6.258,0.05,9.352
			c-0.125,1.416-0.971,3.115-2.046,4.041c-5.307,4.576-10.941,8.777-16.179,13.427c-3.755,3.333-7.06,7.171-10.581,10.771
			c-4.027,4.118-8.63,7.813-11.975,12.423c-4.793,6.61-8.951,13.733-12.843,20.927c-2.557,4.724-4.246,9.928-6.173,14.975
			c-1.456,3.811-2.674,7.713-3.998,11.573c-0.905-3.456-1.545-6.847-1.59-10.247c-0.174-12.978-0.164-25.958-0.209-38.937
			c-0.068-19.364-0.088-38.729-0.254-58.092c-0.015-1.715-1.92-3.977-1.307-5.034c2.437-4.199,1.019-8.542,1.168-12.776
			c0.246-6.944,0.066-13.903,0.066-21.718c8.46,2.665,16.208,5.105,23.957,7.546c0.161-0.312,0.323-0.623,0.485-0.934
			c-1.13-1.927-2.26-3.854-3.66-6.241c8.211,0,16.029,0,24.775,0c-1.91,2.621-3.16,4.338-4.766,6.542
			c1.441,0.156,2.337,0.526,3.014,0.283c4.955-1.782,9.827-3.798,14.804-5.508c2.771-0.952,5.711-1.403,8.54-2.204
			c0.792-0.224,1.46-0.885,2.187-1.346c-0.702-0.473-1.341-1.126-2.113-1.393c-6.769-2.335-13.544-4.651-20.357-6.854
			c-1.792-0.58-3.718-0.745-5.581-1.1c-0.246,0.395-0.49,0.79-0.735,1.185c1.75,2.074,3.5,4.149,5.485,6.502
			c-8.76,0-17.015,0-25.485,0c1.536-2.374,2.833-4.378,4.129-6.383c-0.246-0.445-0.491-0.892-0.736-1.337
			c-7.76,2.754-15.521,5.506-23.767,8.432c0-8.632,0-16.59,0-24.658c1.021,0.076,1.541,0.025,2.005,0.163
			c3.28,0.974,4.726-0.012,4.363-3.617c-0.207-2.061,0.135-4.178,0.222-6.105c5.41-1.112,10.458-2.337,15.571-3.159
			c8.478-1.362,17.079-2.076,25.471-3.817c5.464-1.134,10.833-3.224,15.901-5.612c3.459-1.629,6.333-4.604,5.742-9.105
			c-0.55-4.182-4.034-6.312-7.208-7.843c-4.727-2.28-9.801-4.189-14.936-5.202c-9.978-1.969-20.082-3.34-30.171-4.683
			c-4.565-0.607-9.219-0.742-13.832-0.734c-2.919,0.005-4.212-1.403-4.253-3.928c-0.123-7.695-0.045-15.394-0.045-24.054
			c2.951,2.314,5.073,3.979,7.194,5.644c0.326-0.219,0.652-0.439,0.978-0.659c-2.265-8.885-5.315-17.494-9.77-25.857
			c-2.314,8.852-7.792,16.536-8.047,26.501c2.459-1.797,4.276-3.125,6.919-5.055c0,7.815,0.025,14.415-0.008,21.013
			c-0.028,5.737-0.461,5.771-6.239,5.374c-7.216-0.496-14.474-0.455-21.714-0.446c-0.897,0-1.794,1.221-2.691,1.876
			c0.848,0.69,1.63,1.848,2.556,1.978c2.335,0.327,4.739,0.133,7.11,0.25c6.902,0.339,13.802,0.729,20.968,1.113
			c0,6.588-0.157,12.695,0.074,18.788c0.097,2.571-1.045,3.529-3.153,4.233c-8.024,2.679-16.066,5.317-23.995,8.256
			c-1.447,0.536-2.399,2.404-3.579,3.656c1.366,0.866,2.63,2.126,4.122,2.513c2.869,0.744,5.988,0.617,8.783,1.528
			c5.785,1.883,11.424,4.208,17.588,6.526c0.029,0.26,0.231,1.234,0.236,2.21c0.097,21.071,0.075,42.144,0.276,63.214
			c0.192,20.228,0.743,40.452,0.896,60.68c0.223,29.619,0.172,59.242,0.415,88.861c0.028,3.459-1.351,4.095-4.202,3.734
			c-5.07-0.641-10.133-1.667-15.217-1.789c-10.644-0.253-19.72-5.277-28.891-9.508c-8.284-3.821-16.086-8.815-22.735-15.407
			c-6.363-6.309-13.359-11.981-19.684-18.324c-6.58-6.602-12.753-13.614-18.982-20.557c-4.091-4.56-8.065-9.232-11.911-14
			c-4.812-5.968-9.473-12.058-14.128-18.149c-2.22-2.904-4.189-6-6.429-8.886c-4.36-5.619-8.788-11.188-13.322-16.667
			c-0.462-0.559-2.435-0.775-2.673-0.432c-0.571,0.823-1.077,2.43-0.645,3.094c3.66,5.628,7.36,11.247,11.398,16.606
			c3.862,5.125,8.208,9.882,12.221,14.897c6.153,7.69,12.156,15.499,18.313,23.187c3.614,4.513,7.203,9.074,11.159,13.28
			c7.085,7.536,14.289,14.976,21.741,22.145c3.971,3.82,8.466,7.127,12.912,10.414c4.243,3.138,8.646,6.079,13.125,8.872
			c6.539,4.077,12.688,8.822,20.84,9.802c3.886,0.467,7.583,2.516,11.365,3.847c-0.096,0.345-0.193,0.689-0.289,1.035
			c-58.229,0.519-116.469-0.074-174.696,0.598c-0.012,0.842-0.024,1.685-0.036,2.526c16.455,0.489,32.937,0.155,49.408,0.145
			c16.85-0.01,33.7-0.051,50.55-0.047c16.695,0.004,33.389,0.056,50.084,0.068c16.764,0.013,33.527,0.003,50.401,0.003
			c0.105,0.752,0.264,1.356,0.264,1.962c0.014,21.746-0.022,43.492,0.027,65.239c0.034,14.869,0.152,29.738,0.355,44.606
			c0.015,1.049,1.04,2.085,1.595,3.126c0.641-0.991,1.838-1.98,1.839-2.973c0.018-20.361-0.111-40.725-0.189-61.087
			C237.613,382.349,237.637,374.658,237.637,366.968z M335.527,165.392c-1.606-5.938-1.584-5.902,3.15-8.785
			c0.6-0.365,0.82-1.352,1.216-2.05c-0.691-0.377-1.469-1.171-2.059-1.05c-1.58,0.324-3.079,1.04-3.699,1.266
			c-3.065-0.85-5.405-1.5-7.949-2.206c0.288-1.858,0.734-3.936,0.874-6.035c0.057-0.835-0.489-2.408-0.893-2.452
			c-1.397-0.155-2.885,0.103-4.252,0.501c-0.208,0.061-0.162,1.759,0.114,2.584c0.914,2.729-0.588,5.981-3.092,6.12
			c-4.748,0.261-8.131,1.82-9.64,6.971c-0.861,2.938-2.112,5.984,0.426,7.841c1.731,1.267,4.849,0.641,7.347,0.861
			c5.048,1.273,9.727,1.092,13.844-2.861c1.456,1.919,2.558,4.225,5.173,2.272c1.307-0.977,3.471-1.869,1.591-4.244
			C336.937,164.563,336.326,164.922,335.527,165.392z M82.428,375.202c9.376,0.921,17.139-9.883,15.054-18.98
			c-1.046-4.56-7.743-7.721-11.818-5.563c-4.974,2.634-9.047,6.035-11.074,11.689C72.214,368.977,75.6,374.891,82.428,375.202z
			 M261.169,158.509c-0.161,0.404-0.323,0.809-0.484,1.213c0.536,0.694,1.112,1.362,1.599,2.089c1.022,1.525,3.09,3.411,2.748,4.553
			c-0.59,1.966-2.696,3.477-4.164,5.18c-0.592,0.686-1.178,1.376-1.766,2.065c0.972,0.259,2.145,0.988,2.875,0.678
			c1.525-0.649,2.817-1.847,4.21-2.824c2.875,4.524,4.98,4.338,8.691-0.99c-1.526-0.459-3.131-0.518-4.137-1.325
			c-2.843-2.282-1.548-5.238,2.587-6.757c0.913-0.335,1.46-1.666,2.176-2.538c-1.126-0.439-2.271-1.267-3.371-1.211
			c-1.121,0.056-2.197,0.981-3.292,1.526c0.034-0.309,0.069-0.619,0.104-0.928C266.353,158.996,263.761,158.752,261.169,158.509z
			 M592.171,345.68c-0.436-1.283-1.349-2.575-1.107-3.594c0.353-1.487,1.338-2.968,2.427-4.09c0.809-0.834,2.208-1.097,3.344-1.613
			c-0.619-1.243-1.237-2.486-2.029-4.075c-2.087,1.592-3.684,2.811-5.348,4.081c-0.541-0.745-0.754-1.371-1.134-1.499
			c-1.494-0.503-3.558-1.665-4.464-1.09c-2.072,1.315-0.124,2.513,0.86,3.774c2.422,3.103,1.204,7.377-2.361,9.11
			c-0.668,0.324-1.468,0.886-1.663,1.508c-0.151,0.486,0.403,1.595,0.891,1.78c0.656,0.25,1.884,0.166,2.271-0.286
			c0.862-1.004,1.354-2.326,2-3.523c2.926,2.212,3.784,6.218,6.914,2.981c0.913-0.943,1.792-1.918,2.688-2.879
			c-0.187-0.249-0.372-0.498-0.558-0.747C593.981,345.572,593.061,345.628,592.171,345.68z M302.893,169.382
			c-0.125-0.019-0.25-0.038-0.376-0.057c0.204,1.148,0.448,2.292,0.599,3.446c0.124,0.946-0.141,2.562,0.256,2.729
			c0.951,0.404,2.189,0.13,3.142,0.13c-0.24-4.974-0.442-9.136-0.643-13.298c-0.239,0.015-0.478,0.03-0.717,0.045
			c0.523-0.952,1.046-1.905,1.939-3.531c-1.988,0-3.416,0-4.2,0C302.893,162.8,302.893,166.091,302.893,169.382z M305.648,150.574
			c0.268-2.219,0.62-3.812,0.59-5.396c-0.016-0.878-0.512-1.884-1.103-2.558c-0.31-0.352-1.599-0.403-1.908-0.079
			c-0.612,0.642-1.162,1.634-1.178,2.491c-0.034,1.765,0.301,3.537,0.529,5.747C303.668,150.707,305.005,150.617,305.648,150.574z
			 M304.806,187.697c0.944-1.661,1.927-2.633,1.9-3.576c-0.022-0.786-1.229-1.538-1.911-2.306c-0.792,0.8-2.151,1.555-2.217,2.413
			C302.507,185.106,303.701,186.084,304.806,187.697z"/>
		<path fill-rule="evenodd" clip-rule="evenodd" d="M237.637,366.968c0,7.69-0.024,15.381,0.005,23.072
			c0.078,20.362,0.207,40.726,0.189,61.087c-0.001,0.992-1.198,1.981-1.839,2.973c-0.555-1.041-1.58-2.077-1.595-3.126
			c-0.203-14.868-0.321-29.737-0.355-44.606c-0.05-21.747-0.013-43.493-0.027-65.239c0-0.605-0.159-1.21-0.264-1.962
			c-16.875,0-33.638,0.01-50.401-0.003c-16.695-0.013-33.389-0.064-50.084-0.068c-16.851-0.004-33.7,0.037-50.55,0.047
			c-16.471,0.011-32.953,0.345-49.408-0.145c0.012-0.842,0.024-1.685,0.036-2.526c58.227-0.672,116.467-0.079,174.696-0.598
			c0.096-0.346,0.192-0.69,0.289-1.035c-3.783-1.331-7.479-3.38-11.365-3.847c-8.153-0.979-14.302-5.725-20.84-9.802
			c-4.479-2.793-8.882-5.734-13.125-8.872c-4.445-3.287-8.94-6.594-12.912-10.414c-7.453-7.169-14.656-14.608-21.741-22.145
			c-3.956-4.206-7.544-8.768-11.159-13.28c-6.157-7.688-12.159-15.497-18.313-23.187c-4.013-5.015-8.359-9.771-12.221-14.897
			c-4.038-5.359-7.738-10.978-11.398-16.606c-0.432-0.664,0.073-2.271,0.645-3.094c0.238-0.343,2.21-0.126,2.673,0.432
			c4.534,5.479,8.962,11.047,13.322,16.667c2.239,2.886,4.209,5.982,6.429,8.886c4.656,6.091,9.316,12.181,14.128,18.149
			c3.846,4.768,7.819,9.441,11.911,14c6.229,6.942,12.402,13.955,18.982,20.557c6.325,6.343,13.321,12.016,19.684,18.324
			c6.648,6.592,14.451,11.586,22.735,15.407c9.171,4.23,18.247,9.255,28.891,9.508c5.083,0.122,10.147,1.148,15.217,1.789
			c2.852,0.36,4.23-0.275,4.202-3.734c-0.243-29.619-0.192-59.242-0.415-88.861c-0.153-20.228-0.705-40.453-0.896-60.68
			c-0.201-21.07-0.18-42.143-0.276-63.214c-0.004-0.976-0.207-1.951-0.236-2.21c-6.164-2.317-11.803-4.643-17.588-6.526
			c-2.795-0.911-5.915-0.784-8.783-1.528c-1.491-0.387-2.755-1.647-4.122-2.513c1.18-1.252,2.132-3.121,3.579-3.656
			c7.929-2.938,15.971-5.577,23.995-8.256c2.107-0.704,3.25-1.662,3.153-4.233c-0.231-6.092-0.074-12.199-0.074-18.788
			c-7.166-0.384-14.066-0.773-20.968-1.113c-2.371-0.117-4.774,0.076-7.11-0.25c-0.926-0.129-1.708-1.288-2.556-1.978
			c0.897-0.655,1.794-1.875,2.691-1.876c7.24-0.009,14.498-0.05,21.714,0.446c5.778,0.397,6.211,0.363,6.239-5.374
			c0.034-6.599,0.008-13.198,0.008-21.013c-2.644,1.931-4.46,3.258-6.919,5.055c0.255-9.965,5.733-17.649,8.047-26.501
			c4.455,8.363,7.505,16.973,9.77,25.857c-0.326,0.22-0.652,0.439-0.978,0.659c-2.122-1.664-4.244-3.329-7.194-5.644
			c0,8.66-0.078,16.359,0.045,24.054c0.041,2.525,1.334,3.933,4.253,3.928c4.613-0.008,9.267,0.126,13.832,0.734
			c10.089,1.343,20.194,2.714,30.171,4.683c5.134,1.013,10.208,2.922,14.936,5.202c3.175,1.531,6.659,3.661,7.208,7.843
			c0.591,4.5-2.283,7.476-5.742,9.105c-5.069,2.388-10.437,4.478-15.901,5.612c-8.392,1.741-16.993,2.455-25.471,3.817
			c-5.113,0.822-10.162,2.047-15.571,3.159c-0.087,1.927-0.429,4.044-0.222,6.105c0.363,3.605-1.083,4.591-4.363,3.617
			c-0.464-0.138-0.984-0.087-2.005-0.163c0,8.067,0,16.025,0,24.658c8.246-2.925,16.006-5.678,23.767-8.432
			c0.246,0.445,0.491,0.892,0.736,1.337c-1.296,2.005-2.594,4.009-4.129,6.383c8.47,0,16.725,0,25.485,0
			c-1.985-2.354-3.735-4.428-5.485-6.502c0.245-0.395,0.489-0.79,0.735-1.185c1.863,0.355,3.789,0.521,5.581,1.1
			c6.813,2.203,13.588,4.518,20.357,6.854c0.772,0.267,1.412,0.919,2.113,1.393c-0.726,0.461-1.395,1.122-2.187,1.346
			c-2.829,0.801-5.769,1.252-8.54,2.204c-4.978,1.71-9.85,3.727-14.804,5.508c-0.676,0.243-1.573-0.127-3.014-0.283
			c1.606-2.204,2.856-3.921,4.766-6.542c-8.746,0-16.563,0-24.775,0c1.4,2.387,2.53,4.314,3.66,6.241
			c-0.162,0.311-0.324,0.623-0.485,0.934c-7.749-2.441-15.497-4.881-23.957-7.546c0,7.814,0.179,14.773-0.066,21.718
			c-0.149,4.233,1.268,8.577-1.168,12.776c-0.613,1.057,1.292,3.319,1.307,5.034c0.167,19.363,0.187,38.728,0.254,58.092
			c0.045,12.979,0.035,25.959,0.209,38.937c0.045,3.4,0.685,6.791,1.59,10.247c1.324-3.86,2.542-7.763,3.998-11.573
			c1.927-5.047,3.616-10.251,6.173-14.975c3.893-7.194,8.05-14.316,12.843-20.927c3.344-4.61,7.947-8.306,11.975-12.423
			c3.521-3.599,6.825-7.438,10.581-10.771c5.238-4.65,10.872-8.851,16.179-13.427c1.075-0.926,1.921-2.625,2.046-4.041
			c0.273-3.094,0.086-6.236-0.05-9.352c-0.105-2.423,0.944-3.353,3.318-3.313c4.365,0.073,8.733-0.092,13.095,0.004
			c3.508,0.077,6.075-1.413,8.473-3.87c1.503-1.541,3.651-2.444,5.482-3.676c3.043-2.05,6.03-4.182,9.098-6.195
			c7.851-5.151,15.655-10.378,23.619-15.347c10.202-6.366,20.423-12.721,30.87-18.668c6.196-3.528,12.864-6.224,19.273-9.39
			c0.894-0.442,1.932-1.303,2.205-2.185c2.582-8.317,5.249-16.621,7.409-25.052c1.665-6.497,2.569-13.184,3.932-19.762
			c2.237-10.802,4.518-21.597,6.958-32.354c0.217-0.953,1.741-1.609,2.659-2.403c0.633,1.124,1.963,2.376,1.782,3.349
			c-0.952,5.129-2.356,10.172-3.468,15.274c-1.129,5.183-2.034,10.415-3.158,15.6c-1.623,7.494-3.32,14.973-5.058,22.442
			c-0.893,3.838-1.986,7.63-2.908,11.463c-0.684,2.85-1.237,5.73-1.923,8.946c4.754-1.545,9.318-2.848,13.75-4.508
			c8.687-3.254,17.23-6.897,25.96-10.027c10.45-3.746,21.032-7.123,31.559-10.655c2.225-0.747,4.415-1.693,6.699-2.108
			c0.917-0.166,2.049,0.851,3.083,1.331c-0.427,0.92-0.611,2.292-1.326,2.675c-2.271,1.215-4.678,2.258-7.141,3.012
			c-9.798,3.002-19.712,5.644-29.433,8.869c-6.182,2.051-12.047,5.041-18.156,7.335c-4.361,1.637-8.963,2.631-13.328,4.259
			c-4.11,1.532-8.296,3.135-11.968,5.464c-1.903,1.207-3.162,3.903-4.031,6.186c-4.045,10.626-7.477,21.499-11.854,31.98
			c-3.969,9.505-8.901,18.606-13.359,27.909c-3.395,7.085-6.581,14.272-10.104,21.293c-3.269,6.515-6.904,12.846-10.295,19.301
			c-2.219,4.228-4.156,8.605-6.47,12.779c-1.615,2.914-3.636,5.606-5.505,8.378c-7.012,10.4-14.019,20.807-21.081,31.174
			c-0.755,1.108-1.774,2.082-2.813,2.947c-5.339,4.446-5.906,10.37-5.411,16.712c0.487,6.242-0.495,7.192-6.687,7.069
			c-3.497-0.07-7.084-0.546-10.47,0.06c-3.271,0.585-6.591,1.898-9.441,3.631c-8.521,5.177-17.329,9.426-27.248,11.22
			c-2.956,0.534-5.753,1.942-8.407,3.812c87.887,0,175.774,0,264.851,0c-1.647-2.377-2.898-4.183-4.537-6.546
			c9.572,0.217,17.145,5.38,25.838,7.312c-2.054,3.063-22.262,10.535-26.006,9.662c1.537-2.195,2.967-4.237,4.396-6.279
			c-0.195-0.377-0.391-0.754-0.585-1.131c-4.673,0-9.346-0.001-14.019,0.001c-27.601,0.015-55.202,0.02-82.802,0.049
			c-20.342,0.022-40.686,0.112-61.027,0.106c-16.982-0.005-33.964-0.174-50.945-0.142c-13.702,0.025-27.404,0.371-41.105,0.336
			c-11.476-0.029-22.951-0.419-34.427-0.605c-1.741-0.028-3.486,0.251-5.23,0.269c-5.594,0.055-6.135,0.133-5.087,5.799
			c1.908,10.33,3.938,20.712,7.03,30.728c2.708,8.77,5.862,17.568,11.862,24.923c3.237,3.969,6.052,8.279,9.28,12.256
			c3.871,4.767,7.749,9.567,12.049,13.936c3.905,3.967,8.403,7.347,12.597,11.034c2.634,2.315,5.146,4.771,7.792,7.073
			c3.222,2.802,6.382,5.709,9.833,8.205c4.645,3.361,9.602,6.287,14.312,9.562c3.645,2.534,7.026,5.446,10.687,7.955
			c4.427,3.034,9.043,5.79,13.543,8.721c4.35,2.832,8.654,5.737,12.982,8.604c5.35,3.543,10.737,7.03,16.028,10.656
			c1.144,0.784,2.055,1.99,2.823,3.164c0.143,0.218-0.994,1.807-1.398,1.75c-1.39-0.195-2.836-0.636-4.042-1.352
			c-3.811-2.259-7.536-4.663-11.27-7.051c-3.017-1.928-5.967-3.96-9.001-5.858c-5.703-3.568-11.485-7.014-17.16-10.628
			c-3.424-2.182-6.787-4.479-10.033-6.917c-3.629-2.727-7.031-5.752-10.647-8.497c-3.215-2.441-6.611-4.646-9.884-7.014
			c-3.874-2.803-7.771-5.581-11.531-8.531c-4.937-3.874-9.998-7.643-14.549-11.94c-5.1-4.816-9.863-10.022-14.466-15.326
			c-9.52-10.968-17.257-23.096-22.438-36.719c-2.056-5.407-3.679-10.979-5.499-16.477
			C238.157,366.995,237.897,366.981,237.637,366.968z M415.385,136.857c-1.211,0-1.478-0.077-1.67,0.011
			c-10.334,4.72-20.622,9.452-29.918,16.18c-5.396,3.906-11.538,6.763-17.13,10.421c-11.274,7.376-22.429,14.94-33.545,22.554
			c-0.871,0.596-1.514,2.179-1.513,3.302c0.018,33.21,0.124,66.42,0.268,99.63c0.003,0.573,0.548,1.252,1.029,1.652
			c0.152,0.126,1.095-0.38,1.393-0.798c5.99-8.431,12.192-16.726,17.825-25.39c5.653-8.695,10.869-17.685,16.018-26.693
			c4.961-8.68,9.782-17.453,14.305-26.367c3.776-7.442,7.055-15.138,10.512-22.74c2.951-6.489,6.974-12.373,9.331-19.261
			C406.007,158.493,410.826,148.005,415.385,136.857z M302.396,209.653c-1.806,0.991-3.004,1.391-3.869,2.164
			c-7.133,6.38-14.231,12.802-21.282,19.274c-2.801,2.571-5.788,5.044-8.099,8.02c-3.856,4.967-7.137,10.375-10.846,15.461
			c-3.457,4.741-7.41,9.147-8.246,15.31c-0.178,1.308-0.658,2.673-1.348,3.798c-6.569,10.698-6.674,23.122-8.999,34.878
			c-1.31,6.618-0.354,13.663-0.728,20.499c-0.164,2.998,1.018,3.765,3.635,3.487c7.912-0.837,15.82-1.712,23.74-2.469
			c9.952-0.951,18.716-5.357,27.904-8.782c7.441-2.773,9.408-6.688,8.762-14.108c-0.72-8.274-0.024-16.666-0.097-25.006
			c-0.104-11.924-0.417-23.847-0.508-35.771C302.325,234.439,302.396,222.468,302.396,209.653z M242.639,98.256
			c7.741-0.435,14.889-0.28,21.84-1.369c8.396-1.315,16.693-3.438,24.896-5.71c3.737-1.036,7.281-3.04,10.642-5.055
			c1.841-1.105,2.662-3.544,0.027-4.701c-8.653-3.799-17.001-8.467-26.914-8.672c-4.533-0.094-9.026-1.475-13.565-2.044
			c-7.241-0.907-14.498-1.721-21.77-2.29c-0.86-0.067-2.62,1.622-2.667,2.56c-0.236,4.822-0.007,9.666-0.025,14.501
			c-0.009,2.215,0.541,3.368,3.083,2.55c3.218-1.037,4.358,0.765,4.442,3.643C242.687,93.644,242.639,95.622,242.639,98.256z
			 M210.842,101.526c0.919,1.105,1.254,1.93,1.774,2.07c7.712,2.082,15.46,4.027,23.171,6.113c2.573,0.696,3.101-0.514,3.063-2.671
			c-0.061-3.484,0.009-6.972-0.12-10.453c-0.042-1.146-0.279-3.046-0.875-3.242c-1.062-0.35-2.513,0.195-3.715,0.613
			c-3.651,1.268-7.224,2.765-10.896,3.962C219.334,99.193,215.345,100.229,210.842,101.526z M306.331,258.502
			c0.501,0.509,1.002,1.019,1.503,1.527c0.921-0.793,1.912-1.521,2.744-2.397c0.751-0.791,1.215-1.864,2-2.608
			c4.702-4.448,9.532-8.765,14.125-13.321c0.745-0.738,0.521-2.451,0.745-3.713c-0.396-0.159-0.791-0.318-1.187-0.477
			C319.618,244.509,312.975,251.505,306.331,258.502z M307.093,286.236c0.223,0.264,0.445,0.528,0.668,0.792
			c3.38-3.096,6.85-6.102,10.113-9.317c2.782-2.742,5.033-6.097,8.063-8.49c2.492-1.968,2.069-3.587,1.338-5.702
			C321.006,271.721,311.225,276.524,307.093,286.236z M306.297,232.374c0.46,0.408,0.921,0.817,1.381,1.225
			c3.448-3.477,7.016-6.843,10.31-10.46c3.192-3.507,7.856-5.895,8.929-11.106C318.604,217.495,312.105,224.612,306.297,232.374z
			 M306.405,271.419c0.4,0.525,0.801,1.052,1.201,1.577c0.925-0.528,2.007-0.896,2.75-1.614c4.348-4.197,8.506-8.597,12.947-12.691
			c3.613-3.331,4.514-4.956,3.506-7.925C320.056,257.601,313.23,264.51,306.405,271.419z M307.638,310.777
			c0.342,0.484,0.685,0.968,1.027,1.451c0.782-0.354,1.746-0.529,2.311-1.099c1.669-1.679,3.076-3.624,4.776-5.266
			c3.767-3.638,7.75-7.057,11.41-10.795c0.795-0.811,0.604-2.587,0.867-3.919c-0.366-0.09-0.732-0.18-1.099-0.271
			C320.5,297.513,314.069,304.146,307.638,310.777z M306.323,219.295c0.574,0.517,1.146,1.032,1.72,1.548
			c1.878-2.222,3.688-4.506,5.66-6.641c1.216-1.317,2.805-2.292,4.004-3.621c1.877-2.078,2.899-4.674,5.892-6.052
			c1.931-0.889,4.843-3.021,2.967-6.749C319.524,204.716,311.49,210.71,306.323,219.295z M327.716,277.911
			c-0.341-0.152-0.682-0.305-1.021-0.457c-6.108,7.979-15.258,13.282-19.448,22.98c2.833-2.047,5.302-4.445,7.717-6.896
			c2.325-2.357,4.581-4.784,6.895-7.153c1.826-1.872,3.804-3.609,5.478-5.605C327.858,280.156,327.61,278.886,327.716,277.911z
			 M326.777,224.644c-7.176,6.817-15.016,12.892-19.645,21.915c2.777-1.744,5.032-3.994,7.314-6.216
			c3.03-2.952,6.241-5.739,9.063-8.877C325.139,229.654,328.902,228.682,326.777,224.644z M307.691,206.766
			c4.596-4.69,9.19-9.379,14.232-14.525C317.057,191.737,308.639,200.32,307.691,206.766z M320.043,311.672
			c3.965,1.949,5.144-1.677,7.115-3.136c0.782-0.579,0.552-2.525,0.783-3.848c-0.36-0.076-0.721-0.153-1.081-0.229
			C324.687,306.759,322.513,309.059,320.043,311.672z"/>
		<path fill-rule="evenodd" clip-rule="evenodd" d="M335.527,165.392c0.799-0.47,1.409-0.83,2.151-1.267
			c1.88,2.375-0.284,3.268-1.591,4.244c-2.615,1.952-3.717-0.354-5.173-2.272c-4.117,3.953-8.796,4.134-13.844,2.861
			c-2.498-0.22-5.615,0.406-7.347-0.861c-2.538-1.856-1.287-4.903-0.426-7.841c1.509-5.15,4.892-6.71,9.64-6.971
			c2.504-0.139,4.006-3.391,3.092-6.12c-0.276-0.825-0.322-2.524-0.114-2.584c1.367-0.398,2.854-0.656,4.252-0.501
			c0.403,0.044,0.949,1.617,0.893,2.452c-0.14,2.099-0.586,4.176-0.874,6.035c2.544,0.706,4.884,1.355,7.949,2.206
			c0.62-0.226,2.119-0.942,3.699-1.266c0.59-0.121,1.367,0.673,2.059,1.05c-0.396,0.699-0.616,1.686-1.216,2.05
			C333.943,159.49,333.921,159.454,335.527,165.392z M322.507,164.176c3.552,1.794,5.376,1.134,6.878-2.195
			c0.932-2.065-1.036-5.199-4.228-6.683C324.293,158.195,323.431,161.083,322.507,164.176z M318.65,155.74
			c-2.829,0.637-6.67,5.157-6.356,7.832c0.082,0.699,1.401,1.883,1.978,1.788C317.392,164.844,319.888,159.124,318.65,155.74z"/>
		<path fill-rule="evenodd" clip-rule="evenodd" d="M82.428,375.202c-6.829-0.312-10.214-6.226-7.838-12.854
			c2.027-5.654,6.1-9.056,11.074-11.689c4.076-2.158,10.772,1.003,11.818,5.563C99.567,365.319,91.805,376.123,82.428,375.202z
			 M93.537,360.008c0.137-5.857-3.439-7.804-7.731-5.87c-5.866,2.641-6.543,8.093-7.495,13.277c-0.25,1.367,0.943,3.767,2.162,4.435
			c1.418,0.776,3.965,0.834,5.374,0.046C90.838,369.1,92.591,364.098,93.537,360.008z"/>
		<path fill-rule="evenodd" clip-rule="evenodd" d="M261.169,158.509c2.592,0.244,5.184,0.487,7.776,0.731
			c-0.035,0.309-0.07,0.619-0.104,0.928c1.095-0.544,2.171-1.47,3.292-1.526c1.1-0.056,2.245,0.771,3.371,1.211
			c-0.716,0.872-1.264,2.203-2.176,2.538c-4.135,1.519-5.43,4.476-2.587,6.757c1.005,0.807,2.61,0.865,4.137,1.325
			c-3.711,5.328-5.816,5.514-8.691,0.99c-1.393,0.977-2.685,2.175-4.21,2.824c-0.73,0.311-1.903-0.419-2.875-0.678
			c0.588-0.688,1.174-1.379,1.766-2.065c1.467-1.703,3.573-3.213,4.164-5.18c0.343-1.143-1.726-3.028-2.748-4.553
			c-0.486-0.728-1.063-1.395-1.599-2.089C260.846,159.317,261.008,158.913,261.169,158.509z"/>
		<path fill-rule="evenodd" clip-rule="evenodd" d="M592.171,345.68c0.89-0.052,1.811-0.107,2.73-0.161
			c0.186,0.249,0.371,0.498,0.558,0.747c-0.896,0.961-1.774,1.936-2.688,2.879c-3.13,3.236-3.988-0.77-6.914-2.981
			c-0.646,1.197-1.138,2.52-2,3.523c-0.388,0.452-1.615,0.536-2.271,0.286c-0.487-0.186-1.042-1.294-0.891-1.78
			c0.195-0.622,0.995-1.184,1.663-1.508c3.565-1.733,4.783-6.008,2.361-9.11c-0.984-1.262-2.933-2.459-0.86-3.774
			c0.906-0.575,2.97,0.587,4.464,1.09c0.38,0.128,0.593,0.754,1.134,1.499c1.664-1.271,3.261-2.489,5.348-4.081
			c0.792,1.589,1.41,2.832,2.029,4.075c-1.136,0.517-2.535,0.779-3.344,1.613c-1.089,1.122-2.074,2.603-2.427,4.09
			C590.822,343.104,591.735,344.396,592.171,345.68z"/>
		<path fill-rule="evenodd" clip-rule="evenodd" d="M302.893,169.382c0-3.292,0-6.583,0-10.535c0.784,0,2.212,0,4.2,0
			c-0.893,1.625-1.416,2.579-1.939,3.531c0.239-0.015,0.478-0.031,0.717-0.045c0.201,4.163,0.402,8.325,0.643,13.298
			c-0.952,0-2.19,0.273-3.142-0.13c-0.396-0.167-0.132-1.784-0.256-2.729c-0.151-1.155-0.396-2.298-0.599-3.446
			C302.643,169.344,302.768,169.363,302.893,169.382z"/>
		<path fill-rule="evenodd" clip-rule="evenodd" d="M305.648,150.574c-0.644,0.043-1.98,0.132-3.071,0.205
			c-0.228-2.21-0.563-3.982-0.529-5.747c0.016-0.857,0.566-1.85,1.178-2.491c0.31-0.324,1.598-0.273,1.908,0.079
			c0.591,0.674,1.087,1.68,1.103,2.558C306.269,146.763,305.917,148.355,305.648,150.574z"/>
		<path fill-rule="evenodd" clip-rule="evenodd" d="M304.806,187.697c-1.105-1.612-2.298-2.591-2.229-3.47
			c0.066-0.857,1.425-1.612,2.217-2.413c0.682,0.768,1.889,1.52,1.911,2.306C306.733,185.064,305.75,186.036,304.806,187.697z"/>
		<path fill-rule="evenodd" clip-rule="evenodd" fill="#FFFFFF" d="M415.385,136.857c-4.559,11.148-9.378,21.636-13.096,32.501
			c-2.357,6.889-6.38,12.772-9.331,19.261c-3.457,7.602-6.735,15.298-10.512,22.74c-4.522,8.914-9.344,17.687-14.305,26.367
			c-5.148,9.009-10.364,17.998-16.018,26.693c-5.633,8.664-11.835,16.959-17.825,25.39c-0.298,0.418-1.24,0.924-1.393,0.798
			c-0.481-0.4-1.026-1.079-1.029-1.652c-0.144-33.21-0.25-66.42-0.268-99.63c-0.001-1.124,0.642-2.706,1.513-3.302
			c11.116-7.614,22.271-15.178,33.545-22.554c5.592-3.658,11.733-6.515,17.13-10.421c9.296-6.729,19.584-11.46,29.918-16.18
			C413.907,136.78,414.174,136.857,415.385,136.857z"/>
		<path fill-rule="evenodd" clip-rule="evenodd" fill="#FFFFFF" d="M302.396,209.653c0,12.814-0.071,24.786,0.02,36.756
			c0.091,11.924,0.404,23.847,0.508,35.771c0.072,8.34-0.624,16.731,0.097,25.006c0.646,7.42-1.321,11.335-8.762,14.108
			c-9.188,3.425-17.952,7.831-27.904,8.782c-7.919,0.757-15.828,1.632-23.74,2.469c-2.618,0.277-3.799-0.489-3.635-3.487
			c0.374-6.836-0.583-13.881,0.728-20.499c2.325-11.756,2.43-24.18,8.999-34.878c0.69-1.125,1.169-2.49,1.348-3.798
			c0.836-6.162,4.789-10.568,8.246-15.31c3.709-5.086,6.99-10.495,10.846-15.461c2.312-2.976,5.298-5.449,8.099-8.02
			c7.05-6.473,14.148-12.894,21.282-19.274C299.392,211.044,300.59,210.644,302.396,209.653z M276.864,284.167
			c0.326,0.165,0.652,0.331,0.979,0.495c0.537-0.225,1.251-0.301,1.583-0.697c4.501-5.373,9.072-10.698,13.311-16.275
			c0.886-1.166,0.696-3.315,0.583-4.984c-0.038-0.557-1.63-1.603-2.077-1.411c-0.871,0.372-2.172,1.943-2.016,2.183
			c2.782,4.254-1.872,5.327-3.157,7.904c-0.62-2.017-0.548-4.008-0.984-5.881c-0.362-1.56-0.97-3.737-2.106-4.264
			c-1.29-0.597-3.29,0.339-3.891,0.435c0.826,4.362,1.44,7.989,2.213,11.58c0.681,3.163,0.646,5.745-3.052,7.194
			C277.427,280.768,277.307,282.88,276.864,284.167z"/>
		<path fill-rule="evenodd" clip-rule="evenodd" fill="#FFFFFF" d="M242.639,98.256c0-2.635,0.047-4.613-0.011-6.587
			c-0.084-2.878-1.225-4.68-4.442-3.643c-2.542,0.818-3.091-0.334-3.083-2.55c0.018-4.835-0.21-9.679,0.025-14.501
			c0.046-0.938,1.807-2.627,2.667-2.56c7.272,0.568,14.529,1.383,21.77,2.29c4.54,0.569,9.033,1.951,13.565,2.044
			c9.913,0.205,18.26,4.873,26.914,8.672c2.635,1.157,1.814,3.596-0.027,4.701c-3.361,2.016-6.905,4.019-10.642,5.055
			c-8.202,2.273-16.5,4.395-24.896,5.71C257.528,97.977,250.38,97.822,242.639,98.256z"/>
		<path fill-rule="evenodd" clip-rule="evenodd" fill="#FFFFFF" d="M210.842,101.526c4.502-1.297,8.492-2.333,12.403-3.608
			c3.672-1.198,7.245-2.695,10.896-3.962c1.202-0.417,2.653-0.963,3.715-0.613c0.596,0.196,0.832,2.096,0.875,3.242
			c0.129,3.481,0.059,6.969,0.12,10.453c0.038,2.157-0.49,3.367-3.063,2.671c-7.71-2.085-15.459-4.031-23.171-6.113
			C212.097,103.456,211.762,102.632,210.842,101.526z"/>
		<path fill-rule="evenodd" clip-rule="evenodd" fill="#FFFFFF" d="M306.331,258.502c6.644-6.997,13.288-13.993,19.931-20.99
			c0.396,0.159,0.791,0.318,1.187,0.477c-0.224,1.262,0,2.975-0.745,3.713c-4.593,4.556-9.423,8.873-14.125,13.321
			c-0.785,0.744-1.25,1.817-2,2.608c-0.832,0.877-1.822,1.604-2.744,2.397C307.333,259.521,306.832,259.011,306.331,258.502z"/>
		<path fill-rule="evenodd" clip-rule="evenodd" fill="#FFFFFF" d="M307.093,286.236c4.132-9.712,13.913-14.516,20.182-22.718
			c0.731,2.115,1.154,3.734-1.338,5.702c-3.03,2.394-5.281,5.748-8.063,8.49c-3.263,3.216-6.732,6.222-10.113,9.317
			C307.539,286.765,307.316,286.5,307.093,286.236z"/>
		<path fill-rule="evenodd" clip-rule="evenodd" fill="#FFFFFF" d="M306.297,232.374c5.809-7.762,12.308-14.879,20.62-20.342
			c-1.072,5.212-5.736,7.6-8.929,11.106c-3.294,3.617-6.862,6.984-10.31,10.46C307.218,233.191,306.757,232.782,306.297,232.374z"/>
		<path fill-rule="evenodd" clip-rule="evenodd" fill="#FFFFFF" d="M306.405,271.419c6.825-6.909,13.65-13.818,20.403-20.654
			c1.008,2.969,0.107,4.594-3.506,7.925c-4.44,4.095-8.599,8.494-12.947,12.691c-0.743,0.718-1.825,1.086-2.75,1.614
			C307.206,272.471,306.805,271.944,306.405,271.419z"/>
		<path fill-rule="evenodd" clip-rule="evenodd" fill="#FFFFFF" d="M307.638,310.777c6.431-6.632,12.862-13.265,19.292-19.897
			c0.366,0.091,0.732,0.181,1.099,0.271c-0.263,1.332-0.072,3.108-0.867,3.919c-3.66,3.738-7.644,7.157-11.41,10.795
			c-1.7,1.642-3.106,3.587-4.776,5.266c-0.565,0.569-1.529,0.744-2.311,1.099C308.323,311.745,307.98,311.262,307.638,310.777z"/>
		<path fill-rule="evenodd" clip-rule="evenodd" fill="#FFFFFF" d="M306.323,219.295c5.167-8.585,13.201-14.579,20.242-21.514
			c1.876,3.727-1.036,5.859-2.967,6.749c-2.992,1.378-4.015,3.974-5.892,6.052c-1.199,1.329-2.788,2.304-4.004,3.621
			c-1.972,2.135-3.782,4.419-5.66,6.641C307.47,220.327,306.897,219.812,306.323,219.295z"/>
		<path fill-rule="evenodd" clip-rule="evenodd" fill="#FFFFFF" d="M327.716,277.911c-0.105,0.975,0.143,2.245-0.381,2.869
			c-1.674,1.996-3.651,3.733-5.478,5.605c-2.313,2.369-4.569,4.796-6.895,7.153c-2.415,2.45-4.883,4.849-7.717,6.896
			c4.19-9.698,13.34-15.002,19.448-22.98C327.034,277.606,327.375,277.759,327.716,277.911z"/>
		<path fill-rule="evenodd" clip-rule="evenodd" fill="#FFFFFF" d="M326.777,224.644c2.125,4.038-1.639,5.01-3.267,6.821
			c-2.822,3.139-6.033,5.926-9.063,8.877c-2.282,2.222-4.538,4.472-7.314,6.216C311.762,237.536,319.602,231.461,326.777,224.644z"
			/>
		<path fill-rule="evenodd" clip-rule="evenodd" fill="#FFFFFF" d="M307.691,206.766c0.947-6.446,9.365-15.029,14.232-14.525
			C316.882,197.387,312.287,202.076,307.691,206.766z"/>
		<path fill-rule="evenodd" clip-rule="evenodd" fill="#FFFFFF" d="M320.043,311.672c2.47-2.613,4.644-4.913,6.817-7.213
			c0.36,0.076,0.721,0.153,1.081,0.229c-0.231,1.322-0.001,3.269-0.783,3.848C325.187,309.995,324.008,313.621,320.043,311.672z"/>
		<path fill-rule="evenodd" clip-rule="evenodd" fill="#FFFFFF" d="M322.507,164.176c0.924-3.093,1.786-5.981,2.65-8.878
			c3.191,1.484,5.159,4.618,4.228,6.683C327.883,165.31,326.059,165.97,322.507,164.176z"/>
		<path fill-rule="evenodd" clip-rule="evenodd" fill="#FFFFFF" d="M318.65,155.74c1.237,3.384-1.259,9.104-4.379,9.62
			c-0.576,0.095-1.896-1.089-1.978-1.788C311.98,160.896,315.821,156.376,318.65,155.74z"/>
		<path fill-rule="evenodd" clip-rule="evenodd" fill="#FFFFFF" d="M93.537,360.008c-0.946,4.09-2.699,9.092-7.69,11.888
			c-1.409,0.788-3.956,0.73-5.374-0.046c-1.219-0.668-2.413-3.067-2.162-4.435c0.951-5.185,1.629-10.637,7.495-13.277
			C90.097,352.204,93.674,354.15,93.537,360.008z"/>
		<path fill-rule="evenodd" clip-rule="evenodd" d="M276.864,284.167c0.443-1.287,0.563-3.399,1.384-3.722
			c3.698-1.449,3.733-4.031,3.052-7.194c-0.772-3.591-1.387-7.218-2.213-11.58c0.601-0.096,2.601-1.031,3.891-0.435
			c1.137,0.526,1.745,2.704,2.106,4.264c0.436,1.873,0.364,3.864,0.984,5.881c1.285-2.577,5.939-3.65,3.157-7.904
			c-0.156-0.239,1.145-1.811,2.016-2.183c0.447-0.191,2.039,0.854,2.077,1.411c0.113,1.669,0.304,3.818-0.583,4.984
			c-4.238,5.577-8.809,10.902-13.311,16.275c-0.332,0.396-1.046,0.473-1.583,0.697C277.517,284.498,277.19,284.332,276.864,284.167z
			"/>
	</g>
</g>
</svg>
