<?xml version="1.0" encoding="utf-8"?>
<!-- Generator: Adobe Illustrator 16.0.0, SVG Export Plug-In . SVG Version: 6.00 Build 0)  -->
<!DOCTYPE svg PUBLIC "-//W3C//DTD SVG 1.1//EN" "http://www.w3.org/Graphics/SVG/1.1/DTD/svg11.dtd">
<svg version="1.1" id="Layer_1" xmlns="http://www.w3.org/2000/svg" xmlns:xlink="http://www.w3.org/1999/xlink" x="0px" y="0px"
	 width="620.337px" height="405.807px" viewBox="0 0 620.337 405.807" enable-background="new 0 0 620.337 405.807"
	 xml:space="preserve">
<g>
	<g>
		<path fill-rule="evenodd" clip-rule="evenodd" fill="#FFFFFF" d="M0.75,406.557c0-135.269,0-270.538,0-405.807
			c206.779,0,413.558,0,620.337,0c0,135.269,0,270.538,0,405.807C414.308,406.557,207.529,406.557,0.75,406.557z M92.105,314.736
			c2.223-0.119,4.063-0.302,5.905-0.303c34.369-0.011,68.738-0.024,103.107,0.012c25.62,0.027,51.24,0.181,76.861,0.178
			c30.369-0.003,60.739-0.154,91.108-0.164c21.49-0.006,42.979,0.108,64.47,0.194c1.239,0.005,2.682-0.127,3.681,0.43
			c3.917,2.183,7.89,4.357,11.452,7.052c2.264,1.712,3.785,4.382,5.73,6.54c6.478,7.183,13.149,14.196,19.46,21.521
			c7.949,9.225,15.618,18.689,23.403,28.054c1.235,1.486,2.858,3.282,4.504,1.491c0.776-0.846-0.205-3.365-0.518-5.103
			c-0.072-0.4-0.683-0.693-1.02-1.06c-3.063-3.334-6.255-6.561-9.154-10.031c-11.042-13.229-21.987-26.539-32.984-39.806
			c-0.305-0.367-0.869-0.518-1.175-0.885c-1.927-2.31-3.813-4.653-6.235-7.625c25.755,0,50.128,0,75.122,0
			c-1.967,2.685-3.515,4.799-5.717,7.805c10.523-0.8,18.06-7.224,27.403-8.405c-1.745-3.229-23.202-10.442-27.057-9.42
			c1.567,1.851,3.06,3.613,4.715,5.568c-0.926,0.32-1.267,0.541-1.607,0.541c-22.988-0.009-45.978-0.002-68.966-0.156
			c-1.157-0.008-2.738-1.168-3.367-2.236c-1.303-2.214-2.979-3.48-5.451-3.037c-4.136,0.742-6.371-1.798-8.699-4.458
			c-5.156-5.89-10.223-11.868-15.614-17.535c-4.895-5.145-10.265-9.835-15.256-14.892c-5.597-5.67-10.849-11.686-16.539-17.256
			c-5.283-5.171-10.917-9.987-16.454-14.894c-3.748-3.321-7.61-6.514-11.398-9.79c-4.15-3.59-8.172-7.336-12.439-10.779
			c-4.339-3.501-8.881-6.757-13.389-10.044c-6.345-4.626-12.608-9.381-19.152-13.708c-5.685-3.759-11.691-7.036-17.591-10.462
			c-8.513-4.945-17.026-9.889-25.613-14.701c-1.899-1.065-4.189-1.414-6.162-2.375c-5.683-2.771-11.151-6.032-16.971-8.462
			c-8.216-3.43-16.731-6.137-25.003-9.442c-5.312-2.122-10.449-4.595-16.184-5.541c-3.373-0.556-6.693-1.534-9.972-2.535
			c-7.444-2.273-14.787-4.903-22.289-6.962c-6.164-1.692-12.503-2.737-18.752-4.127c-9.601-2.137-19.178-4.391-28.793-6.459
			c-3.854-0.83-7.81-1.175-11.676-1.958c-6.285-1.271-12.493-2.974-18.816-3.978c-2.681-0.426-3.684-1.078-3.585-3.848
			c0.05-1.44-0.536-3.719-1.541-4.23c-3.299-1.681-3.228-4.464-3.238-7.331c-0.066-18.979-0.104-37.957-0.145-56.936
			c-0.011-5.027-0.002-10.053-0.002-15.08c0.648-0.351,1.296-0.702,1.943-1.052c1.041,1.498,2.002,3.063,3.163,4.462
			c0.465,0.561,1.37,0.755,2.074,1.116c0.211-0.759,0.782-1.637,0.578-2.263c-2.488-7.655-5.048-15.286-7.723-22.877
			c-0.262-0.743-1.403-1.176-2.135-1.752c-0.474,0.625-1.152,1.182-1.388,1.887c-2.017,6.018-3.981,12.054-5.902,18.103
			c-0.722,2.271-1.292,4.592-1.931,6.89c0.364,0.247,0.728,0.493,1.092,0.739c1.968-1.676,3.938-3.354,6.84-5.828
			c0,5.648-0.001,10.104,0,14.56c0.007,18.854-0.01,37.708,0.043,56.562c0.01,3.641,0.635,7.394-3.993,8.979
			c-0.559,0.192-1.079,1.14-1.212,1.816c-0.458,2.334-1.963,2.633-3.898,2.247c-4.466-0.891-8.907-1.924-13.395-2.678
			c-7.901-1.328-15.817-2.596-23.765-3.585c-1.007-0.126-2.85,1.355-3.235,2.465c-0.657,1.887,0.887,2.39,2.652,2.468
			c1.967,0.086,3.937,0.419,5.873,0.809c5.812,1.169,11.571,2.634,17.417,3.576c6.237,1.004,12.534,1.792,18.835,2.192
			c3.871,0.246,4.762,1.975,4.754,5.467c-0.031,12.231,0.202,24.463,0.279,36.696c0.136,21.452,0.28,42.904,0.328,64.355
			c0.042,18.691-0.064,37.384-0.068,56.074c-0.002,8.723-0.04,17.449,0.188,26.167c0.093,3.561-1.401,5.021-4.74,5.042
			c-9.432,0.058-18.863,0.188-28.295,0.143c-13.063-0.063-26.125-0.301-39.188-0.359c-2.123-0.009-4.056,0.664-2.806,3.837
			c1.237,0,2.468,0,3.7,0c22.25,0.006,44.5,0.053,66.75-0.029c2.952-0.012,4.445,0.363,4.472,3.961
			c0.144,19.317,0.543,38.634,0.98,57.947c0.026,1.171,1.146,2.318,1.757,3.477c0.564-1.104,1.614-2.205,1.619-3.312
			c0.066-14.11-0.024-28.221-0.061-42.331C92.091,327.735,92.105,321.394,92.105,314.736z M211.015,111.539
			c0.538-2.214,1.213-4.21,1.435-6.255c0.1-0.925-0.473-2.529-1.143-2.79c-1.002-0.391-2.53-0.166-3.499,0.386
			c-0.536,0.305-0.605,1.832-0.508,2.769c0.28,2.699-0.134,5.105-3.167,5.668c-5.953,1.104-10.529,5.326-11.02,11.266
			c-0.14,1.688,0.978,3.881,2.23,5.129c0.706,0.703,2.864-0.013,4.361-0.158c1.04-0.101,2.236-0.747,3.073-0.417
			c5.486,2.159,8.478,1.649,12.071-2.302c0.291-0.319,0.84-0.403,0.804-0.386c1.422,1.477,2.832,3.862,3.734,3.684
			c1.779-0.353,3.276-2.126,4.89-3.313c-0.542-0.119-1.084-0.236-1.625-0.355c-0.943-1.869-2.466-3.674-2.679-5.623
			c-0.262-2.392,1.405-3.691,4.11-3.366c0.521,0.062,1.809-1.379,1.679-1.778c-0.272-0.829-1.466-2.125-1.911-1.992
			c-1.763,0.527-3.383,1.532-5.257,2.458C217.741,110.353,214.306,111.748,211.015,111.539z M62.215,350.879
			c0.185-0.323,0.369-0.646,0.553-0.971c7.802-0.077,12.022-4.837,15-11.345c1.851-4.045,0.802-7.485-1.901-10.629
			c-2.181-2.537-6.87-3.787-10.129-2.137c-3.218,1.63-6.506,3.564-8.975,6.126c-3.896,4.044-4.234,9.596-2.232,14.359
			C55.463,348.501,59.556,349.389,62.215,350.879z M601.671,387.54c1.322,1.085,2.846,3.12,3.694,2.87
			c1.922-0.567,3.51-2.261,5.234-3.497c-0.221-0.381-0.44-0.762-0.66-1.143c-1.089,0.121-2.177,0.242-3.242,0.36
			c-1.63-5.488-1.557-5.361,3.104-8.059c0.903-0.522,0.981-2.469,1.439-3.759c-1.17-0.209-2.466-0.831-3.479-0.524
			c-1.287,0.389-2.345,1.533-3.512,2.359c-2.691-4.262-4.333-4.478-7.659-0.69c0.413,0.204,0.931,0.349,1.306,0.662
			c5.07,4.233,4.422,7.993-1.742,10.931c-0.591,0.282-0.73,1.511-1.08,2.3c0.802,0.31,1.818,1.091,2.364,0.841
			C599.07,389.444,600.519,388.293,601.671,387.54z M122.627,22.094c-0.289-2.841-0.376-4.843-0.713-6.802
			c-0.941-5.485-1.875-5.893-6.331-3.627c1.012,3.784,1.792,7.411,2.962,10.907c1.618,4.829-2.376,6.999-4.418,10.442
			c1.88-0.221,3.557-0.712,4.654-1.792c2.802-2.758,5.745-5.519,7.872-8.774c1.879-2.876,2.844-6.388,3.913-9.715
			c0.145-0.451-1.453-1.46-2.243-2.212c-0.473,0.968-1.527,2.086-1.321,2.877C128.052,17.423,125.385,19.315,122.627,22.094z"/>
		<path fill-rule="evenodd" clip-rule="evenodd" d="M92.105,314.736c0,6.657-0.014,12.999,0.002,19.342
			c0.037,14.11,0.127,28.221,0.061,42.331c-0.005,1.106-1.055,2.208-1.619,3.312c-0.611-1.158-1.731-2.306-1.757-3.477
			c-0.438-19.313-0.836-38.63-0.98-57.947c-0.027-3.598-1.521-3.973-4.472-3.961c-22.25,0.082-44.5,0.035-66.75,0.029
			c-1.232,0-2.463,0-3.7,0c-1.25-3.173,0.683-3.846,2.806-3.837c13.063,0.059,26.125,0.296,39.188,0.359
			c9.432,0.045,18.863-0.085,28.295-0.143c3.338-0.021,4.833-1.481,4.74-5.042c-0.229-8.718-0.19-17.444-0.188-26.167
			c0.004-18.69,0.11-37.383,0.068-56.074c-0.047-21.452-0.192-42.903-0.328-64.355c-0.078-12.232-0.31-24.464-0.279-36.696
			c0.008-3.492-0.883-5.221-4.754-5.467c-6.301-0.401-12.598-1.188-18.835-2.192c-5.846-0.941-11.606-2.406-17.417-3.576
			c-1.936-0.39-3.906-0.722-5.873-0.809c-1.766-0.078-3.309-0.581-2.652-2.468c0.385-1.109,2.228-2.591,3.235-2.465
			c7.948,0.989,15.864,2.257,23.765,3.585c4.488,0.753,8.929,1.787,13.395,2.678c1.936,0.386,3.44,0.087,3.898-2.247
			c0.133-0.677,0.653-1.625,1.212-1.816c4.627-1.586,4.003-5.339,3.993-8.979c-0.054-18.854-0.037-37.708-0.043-56.562
			c-0.002-4.456,0-8.912,0-14.56c-2.903,2.474-4.872,4.151-6.84,5.828c-0.364-0.246-0.729-0.492-1.092-0.739
			c0.639-2.298,1.208-4.619,1.931-6.89c1.921-6.049,3.885-12.085,5.902-18.103c0.236-0.705,0.915-1.261,1.388-1.887
			c0.732,0.576,1.874,1.009,2.135,1.752c2.675,7.591,5.235,15.223,7.723,22.877c0.204,0.625-0.367,1.503-0.578,2.263
			c-0.705-0.361-1.609-0.556-2.074-1.116c-1.161-1.399-2.122-2.964-3.163-4.462c-0.647,0.35-1.295,0.701-1.943,1.052
			c0,5.027-0.009,10.053,0.002,15.08c0.041,18.979,0.079,37.957,0.145,56.936c0.01,2.866-0.061,5.65,3.238,7.331
			c1.005,0.511,1.591,2.79,1.541,4.23c-0.098,2.771,0.905,3.422,3.585,3.848c6.323,1.003,12.531,2.706,18.816,3.978
			c3.866,0.782,7.822,1.128,11.676,1.958c9.616,2.068,19.192,4.322,28.793,6.459c6.249,1.391,12.588,2.436,18.752,4.127
			c7.502,2.059,14.845,4.688,22.289,6.962c3.279,1.001,6.6,1.979,9.972,2.535c5.735,0.946,10.872,3.419,16.184,5.541
			c8.272,3.305,16.787,6.013,25.003,9.442c5.82,2.43,11.288,5.691,16.971,8.462c1.972,0.961,4.262,1.31,6.162,2.375
			c8.587,4.812,17.101,9.756,25.613,14.701c5.9,3.426,11.907,6.703,17.591,10.462c6.544,4.328,12.808,9.083,19.152,13.708
			c4.508,3.287,9.05,6.543,13.389,10.044c4.268,3.443,8.289,7.189,12.439,10.779c3.788,3.276,7.65,6.469,11.398,9.79
			c5.537,4.906,11.171,9.723,16.454,14.894c5.69,5.57,10.942,11.586,16.539,17.256c4.991,5.057,10.361,9.747,15.256,14.892
			c5.392,5.667,10.458,11.646,15.614,17.535c2.328,2.66,4.563,5.2,8.699,4.458c2.473-0.443,4.148,0.823,5.451,3.037
			c0.629,1.068,2.21,2.229,3.367,2.236c22.988,0.154,45.978,0.147,68.966,0.156c0.341,0,0.682-0.221,1.607-0.541
			c-1.655-1.955-3.147-3.718-4.715-5.568c3.854-1.022,25.312,6.19,27.057,9.42c-9.344,1.182-16.88,7.605-27.403,8.405
			c2.202-3.006,3.75-5.12,5.717-7.805c-24.994,0-49.367,0-75.122,0c2.422,2.972,4.309,5.315,6.235,7.625
			c0.306,0.367,0.87,0.518,1.175,0.885c10.997,13.267,21.942,26.577,32.984,39.806c2.899,3.471,6.092,6.697,9.154,10.031
			c0.337,0.366,0.947,0.659,1.02,1.06c0.313,1.737,1.294,4.257,0.518,5.103c-1.646,1.791-3.269-0.005-4.504-1.491
			c-7.785-9.364-15.454-18.829-23.403-28.054c-6.311-7.324-12.982-14.338-19.46-21.521c-1.945-2.158-3.467-4.828-5.73-6.54
			c-3.563-2.694-7.535-4.869-11.452-7.052c-0.999-0.557-2.441-0.425-3.681-0.43c-21.49-0.086-42.979-0.2-64.47-0.194
			c-30.369,0.01-60.739,0.161-91.108,0.164c-25.621,0.003-51.241-0.15-76.861-0.178c-34.369-0.036-68.738-0.022-103.107-0.012
			C96.168,314.435,94.328,314.617,92.105,314.736z M220.087,149.835c0,5.109-0.02,9.684,0.004,14.256
			c0.139,27.446,0.314,54.892,0.427,82.337c0.083,20.215,0.137,40.431,0.083,60.646c-0.009,3.185,1.282,4.143,4.266,4.055
			c4.991-0.146,9.99-0.032,14.986-0.029c50.22,0.02,100.439,0.028,150.659,0.064c14.605,0.012,29.21,0.079,43.815,0.174
			c2.848,0.019,3.795-0.941,2.26-3.568c-0.434-0.741-0.848-1.526-1.425-2.149c-6.329-6.849-12.62-13.735-19.066-20.474
			c-4.572-4.781-9.365-9.351-14.06-14.015c-5.606-5.568-11.104-11.251-16.848-16.673c-5.58-5.266-11.387-10.293-17.141-15.373
			c-6.936-6.121-13.806-12.326-20.924-18.23c-5.21-4.321-10.768-8.225-16.183-12.297c-3.965-2.981-7.896-6.011-11.943-8.877
			c-3.892-2.756-7.864-5.405-11.894-7.955c-2.568-1.623-5.364-2.885-7.95-4.484c-1.973-1.221-3.641-2.973-5.676-4.049
			c-10.259-5.429-20.57-10.762-30.922-16.009c-2.059-1.043-4.442-1.426-6.569-2.356c-6.746-2.954-13.394-6.134-20.173-9.01
			C230.988,153.77,226.014,152.073,220.087,149.835z M198.113,142.853c-7.238-2.223-13.558-4.499-20.048-6.081
			c-10.654-2.597-21.437-4.662-32.128-7.108c-7.415-1.696-14.714-3.928-22.164-5.427c-8.147-1.64-16.398-2.783-24.626-3.993
			c-2.625-0.386-5.321-0.293-8.353-0.437c0,8.951-0.055,17.295,0.011,25.639c0.171,21.584,0.443,43.167,0.583,64.751
			c0.106,16.336,0.003,32.673,0.116,49.009c0.103,14.85,0.391,29.698,0.556,44.547c0.077,6.903,0.313,7.208,7.458,7.229
			c7.995,0.022,15.99-0.045,23.985-0.037c20.861,0.019,41.724,0.012,62.584,0.134c3.376,0.019,4.668-1.124,4.571-4.59
			c-0.228-8.103-0.172-16.213-0.182-24.32c-0.015-12.066,0.08-24.133,0.007-36.198c-0.105-17.184-0.341-34.365-0.48-51.549
			c-0.123-15.152-0.167-30.306-0.294-45.457c-0.044-5.231,0.212-5.569,5.25-5.708C195.745,143.234,196.526,143.061,198.113,142.853z
			"/>
		<path fill-rule="evenodd" clip-rule="evenodd" d="M211.015,111.539c3.291,0.209,6.727-1.187,7.579,2.628
			c1.875-0.927,3.495-1.932,5.257-2.458c0.445-0.133,1.639,1.163,1.911,1.992c0.13,0.398-1.157,1.84-1.679,1.778
			c-2.706-0.325-4.372,0.974-4.11,3.366c0.213,1.949,1.736,3.754,2.679,5.623c0.542,0.119,1.083,0.236,1.625,0.355
			c-1.614,1.186-3.111,2.96-4.89,3.313c-0.903,0.179-2.313-2.207-3.734-3.684c0.037-0.017-0.513,0.066-0.804,0.386
			c-3.593,3.951-6.585,4.46-12.071,2.302c-0.837-0.33-2.033,0.316-3.073,0.417c-1.497,0.145-3.656,0.861-4.361,0.158
			c-1.252-1.249-2.37-3.441-2.23-5.129c0.491-5.94,5.066-10.162,11.02-11.266c3.033-0.563,3.446-2.969,3.167-5.668
			c-0.097-0.937-0.028-2.464,0.508-2.769c0.969-0.551,2.497-0.776,3.499-0.386c0.67,0.261,1.243,1.865,1.143,2.79
			C212.228,107.329,211.553,109.325,211.015,111.539z M207.359,123.007c3.121,1.169,5.714,1.092,6.946-1.548
			c0.635-1.361,0.073-3.481-0.453-5.095c-0.248-0.759-1.704-1.579-2.58-1.542c-0.749,0.031-1.773,1.113-2.108,1.956
			C208.401,118.697,207.985,120.756,207.359,123.007z M197.242,123.461c5.509,0.007,7.569-2.675,6.723-8.424
			C199.344,115.002,197.049,117.783,197.242,123.461z"/>
		<path fill-rule="evenodd" clip-rule="evenodd" d="M62.215,350.879c-2.66-1.49-6.752-2.378-7.685-4.596
			c-2.002-4.764-1.664-10.315,2.232-14.359c2.468-2.562,5.757-4.496,8.975-6.126c3.259-1.65,7.948-0.4,10.129,2.137
			c2.704,3.144,3.752,6.584,1.901,10.629c-2.978,6.508-7.198,11.268-15,11.345C62.584,350.232,62.4,350.556,62.215,350.879z
			 M73.472,332.996c-0.967-2.951-1.71-5.668-4.958-4.985c-2.296,0.481-4.944,1.878-6.278,3.709
			c-1.757,2.412-2.909,5.578-3.317,8.558c-0.301,2.205,0.356,5.181,1.754,6.813c1.634,1.911,6.758,0.489,8.076-2.163
			C70.646,341.111,71.927,336.988,73.472,332.996z"/>
		<path fill-rule="evenodd" clip-rule="evenodd" d="M601.671,387.54c-1.152,0.753-2.601,1.904-4.232,2.651
			c-0.546,0.25-1.563-0.531-2.364-0.841c0.35-0.789,0.489-2.018,1.08-2.3c6.164-2.938,6.813-6.697,1.742-10.931
			c-0.375-0.313-0.893-0.458-1.306-0.662c3.326-3.787,4.968-3.571,7.659,0.69c1.167-0.826,2.225-1.971,3.512-2.359
			c1.014-0.307,2.31,0.315,3.479,0.524c-0.458,1.29-0.536,3.236-1.439,3.759c-4.661,2.697-4.734,2.57-3.104,8.059
			c1.065-0.118,2.153-0.239,3.242-0.36c0.22,0.381,0.439,0.762,0.66,1.143c-1.725,1.236-3.313,2.93-5.234,3.497
			C604.517,390.66,602.993,388.625,601.671,387.54z"/>
		<path fill-rule="evenodd" clip-rule="evenodd" d="M122.627,22.094c2.758-2.778,5.425-4.671,4.375-8.697
			c-0.207-0.791,0.848-1.909,1.321-2.877c0.79,0.752,2.388,1.762,2.243,2.212c-1.069,3.327-2.034,6.838-3.913,9.715
			c-2.127,3.255-5.07,6.016-7.872,8.774c-1.097,1.081-2.774,1.571-4.654,1.792c2.042-3.443,6.036-5.613,4.418-10.442
			c-1.17-3.496-1.95-7.123-2.962-10.907c4.456-2.266,5.39-1.857,6.331,3.627C122.251,17.251,122.338,19.253,122.627,22.094z"/>
		<path fill-rule="evenodd" clip-rule="evenodd" fill="#FFFFFF" d="M220.087,149.835c5.926,2.237,10.901,3.935,15.728,5.982
			c6.779,2.876,13.427,6.057,20.173,9.01c2.126,0.931,4.51,1.313,6.569,2.356c10.353,5.248,20.664,10.581,30.922,16.009
			c2.036,1.077,3.704,2.828,5.676,4.049c2.585,1.6,5.381,2.861,7.95,4.484c4.03,2.549,8.002,5.199,11.894,7.955
			c4.047,2.866,7.979,5.896,11.943,8.877c5.415,4.072,10.973,7.976,16.183,12.297c7.118,5.904,13.988,12.109,20.924,18.23
			c5.754,5.08,11.561,10.107,17.141,15.373c5.744,5.422,11.241,11.104,16.848,16.673c4.694,4.664,9.487,9.233,14.06,14.015
			c6.446,6.738,12.737,13.625,19.066,20.474c0.577,0.623,0.991,1.408,1.425,2.149c1.535,2.627,0.588,3.587-2.26,3.568
			c-14.605-0.095-29.21-0.162-43.815-0.174c-50.22-0.036-100.439-0.045-150.659-0.064c-4.996-0.003-9.995-0.117-14.986,0.029
			c-2.984,0.088-4.275-0.87-4.266-4.055c0.053-20.215,0-40.431-0.083-60.646c-0.113-27.445-0.288-54.891-0.427-82.337
			C220.068,159.519,220.087,154.944,220.087,149.835z M231.965,252.238c0.469,0.329,0.939,0.658,1.409,0.988
			c2.225-2.245,4.745-4.271,6.609-6.785c2.963-3.999,5.585-8.266,8.118-12.558c0.486-0.822,0.035-2.326-0.299-3.419
			c-0.089-0.293-1.925-0.43-1.971-0.296c-0.361,1.04-0.737,2.19-0.625,3.257c0.362,3.45-1.806,5.073-4.352,7.307
			c-0.462-2.963-0.609-5.211-1.221-7.324c-0.365-1.26-1.246-2.948-2.281-3.298c-1.421-0.479-3.208,0.129-4.839,0.271
			c3.327,3.246,5.636,12.661,3.752,16.353c-0.446,0.874-1.744,1.274-2.381,2.101C233.097,249.855,232.591,251.094,231.965,252.238z"
			/>
		<path fill-rule="evenodd" clip-rule="evenodd" fill="#FFFFFF" d="M198.113,142.853c-1.587,0.208-2.368,0.381-3.153,0.402
			c-5.038,0.139-5.294,0.478-5.25,5.708c0.127,15.151,0.171,30.305,0.294,45.457c0.14,17.184,0.375,34.365,0.48,51.549
			c0.073,12.065-0.021,24.132-0.007,36.198c0.01,8.107-0.046,16.218,0.182,24.32c0.097,3.466-1.195,4.608-4.571,4.59
			c-20.861-0.122-41.723-0.115-62.584-0.134c-7.996-0.008-15.99,0.06-23.985,0.037c-7.146-0.021-7.381-0.325-7.458-7.229
			c-0.166-14.849-0.454-29.697-0.556-44.547c-0.113-16.336-0.01-32.673-0.116-49.009c-0.14-21.584-0.412-43.167-0.583-64.751
			c-0.066-8.344-0.011-16.688-0.011-25.639c3.032,0.144,5.728,0.051,8.353,0.437c8.228,1.21,16.479,2.353,24.626,3.993
			c7.45,1.5,14.75,3.731,22.164,5.427c10.692,2.446,21.475,4.511,32.128,7.108C184.555,138.354,190.875,140.63,198.113,142.853z"/>
		<path fill-rule="evenodd" clip-rule="evenodd" fill="#FFFFFF" d="M207.359,123.007c0.626-2.251,1.042-4.31,1.806-6.229
			c0.334-0.842,1.359-1.925,2.108-1.956c0.875-0.036,2.332,0.783,2.58,1.542c0.526,1.613,1.087,3.734,0.453,5.095
			C213.074,124.099,210.48,124.176,207.359,123.007z"/>
		<path fill-rule="evenodd" clip-rule="evenodd" fill="#FFFFFF" d="M197.242,123.461c-0.193-5.678,2.102-8.459,6.723-8.424
			C204.811,120.786,202.751,123.468,197.242,123.461z"/>
		<path fill-rule="evenodd" clip-rule="evenodd" fill="#FFFFFF" d="M73.472,332.996c-1.544,3.992-2.826,8.115-4.723,11.932
			c-1.317,2.652-6.441,4.074-8.076,2.163c-1.398-1.633-2.056-4.608-1.754-6.813c0.408-2.979,1.56-6.146,3.317-8.558
			c1.334-1.831,3.982-3.228,6.278-3.709C71.761,327.328,72.505,330.045,73.472,332.996z"/>
		<path fill-rule="evenodd" clip-rule="evenodd" d="M231.965,252.238c0.626-1.145,1.132-2.383,1.918-3.403
			c0.637-0.826,1.935-1.227,2.381-2.101c1.883-3.691-0.425-13.106-3.752-16.353c1.631-0.143,3.418-0.75,4.839-0.271
			c1.035,0.35,1.916,2.038,2.281,3.298c0.612,2.113,0.758,4.361,1.221,7.324c2.546-2.233,4.714-3.856,4.352-7.307
			c-0.111-1.066,0.264-2.217,0.625-3.257c0.046-0.134,1.882,0.003,1.971,0.296c0.334,1.093,0.785,2.597,0.299,3.419
			c-2.533,4.292-5.155,8.559-8.118,12.558c-1.864,2.514-4.384,4.54-6.609,6.785C232.904,252.896,232.434,252.567,231.965,252.238z"
			/>
	</g>
</g>
</svg>
