<?xml version="1.0" encoding="utf-8"?>
<!-- Generator: Adobe Illustrator 16.0.0, SVG Export Plug-In . SVG Version: 6.00 Build 0)  -->
<!DOCTYPE svg PUBLIC "-//W3C//DTD SVG 1.1//EN" "http://www.w3.org/Graphics/SVG/1.1/DTD/svg11.dtd">
<svg version="1.1" id="Layer_1" xmlns="http://www.w3.org/2000/svg" xmlns:xlink="http://www.w3.org/1999/xlink" x="0px" y="0px"
	 width="609.835px" height="497.319px" viewBox="0 0 609.835 497.319" enable-background="new 0 0 609.835 497.319"
	 xml:space="preserve">
<g>
	<g>
		<path fill-rule="evenodd" clip-rule="evenodd" fill="#FFFFFF" d="M610.585,498.069c-203.278,0-406.557,0-609.835,0
			c0-165.773,0-331.546,0-497.319c203.278,0,406.557,0,609.835,0C610.585,166.523,610.585,332.296,610.585,498.069z M53.59,251.623
			c3.105,2.765,10.004,2.984,11.016,0.178c0.979,0.771,1.914,1.505,2.896,2.276c1.63-1.001,3.299-2.025,4.968-3.051
			c-0.055,0.384-0.109,0.769-0.164,1.152c5.451,0.931,10.901,1.86,17.076,2.913c-1.134-3.778-1.172-5.923,2.84-5.544
			c2.272,0.214,4.627-0.434,6.945-0.692c0.083,0.384,0.166,0.769,0.248,1.152c-0.929,0.218-1.903,0.73-2.781,0.599
			c-2.76-0.411-4.582,0.307-5.065,3.241c2.744,0,5.394,0.136,8.025-0.031c4.189-0.267,8.818,1.747,12.362-2.217
			c0.076-0.085,0.449,0.097,0.873,0.2c-0.142,0.747-0.273,1.436-0.341,1.793c2.156,0.358,4.009,0.779,5.884,0.945
			c1.724,0.153,3.472,0.033,5.209,0.033c0.284-0.429,0.567-0.857,0.851-1.286c0.193,1.115,0.532,2.228,0.546,3.344
			c0.018,1.473-0.217,2.949-0.29,3.804c1.936-0.431,3.603-0.801,5.26-1.157c-1.656,2.037-3.313,4.074-4.969,6.112
			c0.125,0.297,0.248,0.594,0.373,0.891c1.352-0.241,3.655-0.152,3.875-0.787c0.658-1.895,0.499-4.072,0.659-6.14
			c-0.232-1.354-0.464-2.708-0.734-4.29c1.851-1.263,4.807-0.817,7.029-3.538c2.996-3.669,9.364-2.68,12.126,0.685
			c0.966-0.912,1.959-1.849,2.504-2.363c0.587,1.695,0.799,3.766,1.468,3.926c1.248,0.298,2.761-0.515,4.891-1.046
			c-1.75-1.45-2.521-2.089-3.634-3.012c2.526,0,4.479,0,7.11,0c0.18,1.184,0.428,2.823,0.726,4.786
			c0.674-0.03,1.622-0.039,2.563-0.125c3.047-0.276,6.088-0.649,9.14-0.854c2.021-0.136,4.262,0.482,6.032-0.202
			c2.042-0.789,3.674-2.64,4.72-3.443c2.689,0.631,5.131,1.204,7.768,1.822c-0.395,0.754-0.807,1.541-1.387,2.648
			c5.503,0,10.655,0,16.724,0c1.33,1.753,3.723,2.646,6.527-0.315c0.29-0.306,1.137-0.112,1.725-0.102
			c5.815,0.11,11.794,1.359,17.43-2.957c-0.338,1.396-0.541,2.235-0.939,3.884c2.35-1.961,4.076-3.401,6.518-5.438
			c1.667,1.479,3.735,3.313,5.782,5.127c1.005-0.474,2.027-1.398,2.97-1.322c3.594,0.289,7.153,0.979,10.743,1.342
			c1.03,0.104,2.221-0.185,3.166-0.646c2.978-1.457,5.875-3.081,8.803-4.641c0.169,0.333,0.338,0.665,0.508,0.997
			c-0.695,1.169-1.39,2.338-2.303,3.875c1.729-0.575,3.023-1.505,3.988-1.24c3.729,1.026,4.22-0.633,3.899-3.878
			c0.812,1.401,1.623,2.803,2.434,4.205c0.331,0.018,0.662,0.034,0.993,0.052c0.095-1.138,0.189-2.275,0.331-3.964
			c1.919-0.647,4.365-2.165,6.782-2.121c3.371,0.062,6.721,1.29,9.817,1.963c0.137,0.768,0.357,2.005,0.579,3.24
			c0.975-0.939,1.95-1.879,3.234-3.117c4.452-0.967,9.984,3.983,14.663-1.335c0.336,0.085,0.671,0.171,1.008,0.257
			c-0.428,1.973-0.856,3.944-1.247,5.749c1.114,0.058,2.414,0.123,3.149,0.16c0.181-2.069,0.035-4.257,0.747-6.117
			c0.2-0.522,2.92-0.08,5.46-0.08c-2.102,1.818-3.217,2.783-5.236,4.531c2.072,0.73,3.436,1.399,4.874,1.675
			c2.328,0.447,4.707,0.626,7.062,0.938c1.711,0.226,3.48,0.892,5.109,0.633c2.349-0.372,4.593-1.403,6.958-2.179
			c-0.841-2.121,0.162-3.1,2.821-3.141c3.658-0.056,7.311-0.417,10.97-0.557c2.334-0.089,4.675-0.017,6.961-0.017
			c0.035-0.496,0.082-1.16,0.182-2.586c2.248,2.903,5.686,2.883,7.281,5.97c0.536,1.035,3.483,1.076,5.335,1.105
			c1.938,0.029,3.885-0.501,5.826-0.792c1.743-0.261,3.485-0.53,5.632-0.857c0.961,1.639,3.069,1.999,5.717,1.515
			c1.85-0.339,3.924-0.531,5.689-0.039c4.529,1.261,6.521,0.823,9.544-3.049c0.571,0.604,1.118,1.184,1.485,1.572
			c1.626-1.173,3.206-2.311,4.861-3.504c-0.407,1.95-1.154,3.894-0.8,4.122c1.398,0.9,3.306,1.984,4.727,1.668
			c2.682-0.598,5.006-1.413,6.216,0.87c3.081-0.325,5.77-0.609,7.98-0.843c0.153,2.594,0.279,4.732,0.418,7.063
			c3.105-0.771,4.799-1.996,3.591-5.224c-0.22-0.587-0.198-1.756,0.138-1.961c0.772-0.474,2.189-1.026,2.676-0.659
			c4.315,3.261,8.936,1.333,13.553,0.926c0.21,1.246,0.402,2.389,0.595,3.531c1.433-3.022,2.844-0.778,4.048-0.057
			c1.267-2.542,2.419-4.856,3.652-7.335c1.578,2.601,2.839,4.679,4.138,6.818c1.245-2.154,2.262-3.911,3.276-5.668
			c0.067,0.4,0.135,0.802,0.201,1.202c1.594,0.321,3.176,0.773,4.784,0.922c1.385,0.128,2.833-0.306,4.197-0.107
			c2.319,0.338,4.575,1.133,6.896,1.434c1.482,0.192,3.033-0.199,4.557-0.256c3.514-0.13,7.396,0.683,10.442-0.566
			c3.2-1.312,4.449-0.609,5.877,2.863c1.924-2.159,3.413-3.83,4.413-4.953c2.093-0.601,3.712-1.067,5.543-1.593
			c-0.178,4.349,2.528,4.788,5.914,4.349c2.667-0.346,5.487-1.235,7.988-0.704c3.08,0.655,4.742,0.161,5.396-3.11
			c1.698,2.8,3.353,4.795,6.779,2.795c0.804-0.469,2.424-0.334,3.258,0.184c3.645,2.262,4.947-0.381,6.439-2.791
			c3.342,5.413,3.819,5.49,8.017,2.014c1.92,0.763,3.36,1.804,4.813,1.82c3.428,0.036,6.871-0.689,10.289-0.567
			c2.104,0.076,4.172,1.147,6.298,1.784c0.522-2.203,0.522-2.23,3.987-2.16c2.514,0.05,2.948-1.214,2.439-3.386
			c-0.172-0.732,0.129-1.604,0.317-2.387c0.284-1.187,0.924-2.346,0.948-3.526c0.115-5.555,0.014-11.115,0.104-16.671
			c0.088-5.38-1.102-7.143-6.246-7.278c-7.172-0.19-14.354,0.105-21.533,0.167c-7.855,0.068-15.711,0.143-23.566,0.146
			c-5.711,0.002-11.422-0.159-17.132-0.156c-8.587,0.005-17.173,0.054-25.759,0.153c-9.64,0.111-19.279,0.422-28.918,0.417
			c-7.305-0.003-14.607-0.379-21.911-0.566c-5.185-0.133-10.313-0.487-15.566-0.277c-15.664,0.625-31.376,0.039-47.069-0.029
			c-9.824-0.042-19.647-0.033-29.472,0.005c-13.973,0.055-27.946,0.138-41.918,0.246c-13.873,0.107-27.746,0.394-41.618,0.36
			c-16.269-0.039-32.537-0.394-48.806-0.505c-9.664-0.066-19.329,0.108-28.992,0.107c-9.836-0.002-19.673-0.092-29.51-0.135
			c-3.333-0.014-6.667-0.002-10.25-0.002c1.689-5.95,1.134-6.753-4.027-7.198c-2.364-0.204-3.878-1.08-4.098-3.829
			c-0.195-2.464-0.967-4.885-1.496-7.322c-1.176-5.414-2.485-10.803-3.493-16.248c-0.669-3.615-1.539-7.418,2.104-10.262
			c0.539-0.421,0.824-1.231,1.097-1.914c1.129-2.83,2.313-5.644,3.28-8.529c1.423-4.246,4.402-5.944,8.697-5.728
			c2.538,0.127,4.287-1.339,4.549-3.521c0.183-1.529-0.628-3.859-1.802-4.688c-1.327-0.936-3.561-0.776-5.393-0.74
			c-1.361,0.026-2.711,0.615-4.306,1.013c-1.486-8.057-4.102-15.048-8.981-20.957c-2.445-2.961-0.625-4.956,1.008-7.196
			c0.864-1.184,1.875-2.409,2.245-3.771c0.657-2.429,0.877-4.975,1.407-8.265c2.929,3.433,5.268,2.622,7.341,0.552
			c1.104,0.764,1.973,1.365,2.479,1.715c1.649-1.391,3.021-2.547,4.215-3.553c0.942,1.863,1.457,2.879,1.971,3.896
			c0.458-0.891,0.806-1.866,1.405-2.649c0.588-0.768,1.343-1.731,2.18-1.919c1.935-0.435,3.971-0.39,5.952-0.651
			c5.18-0.686,10.427-1.113,15.496-2.292c2.39-0.555,4.336-1.65,6.432,0.446c0.35,0.35,1.485,0.368,1.958,0.067
			c4.274-2.719,8.788-4.11,13.947-4.641c13.334-1.374,26.601-3.418,39.884-5.264c5.915-0.822,11.792-1.914,17.709-2.699
			c15.292-2.029,30.598-3.948,45.896-5.936c1.601-0.208,3.171-0.636,4.768-0.88c6.901-1.054,13.828-2.936,20.701-2.761
			c3.641,0.093,6.523-0.157,9.973-1.32c5.44-1.834,11.312-2.505,17.05-3.317c10.242-1.449,20.512-2.728,30.789-3.902
			c7.816-0.893,15.663-1.505,23.493-2.271c0.728-0.071,1.495-0.23,2.141-0.553c7.034-3.519,14.661-3.215,22.199-3.592
			c0.919-0.045,1.796-0.916,2.692-1.404c-0.562-0.513-1.134-1.478-1.684-1.465c-2.825,0.063-2.844-1.746-2.856-3.75
			c-0.052-7.863-0.184-15.726-0.214-23.589c-0.039-10.228-0.01-20.457-0.01-30.614c1.88-0.341,3.395-0.615,5.551-1.005
			c-1.173-1.429-1.908-2.324-2.315-2.82c-1.786,0.602-3.022,1.234-4.32,1.411c-3.027,0.412-6.232,0.113-9.098,0.983
			c-6.929,2.104-13.979,3.564-20.662,6.862c-7.682,3.79-16.604,4.281-24.621,8.082c-7.579,3.594-16.12,5.09-23.992,8.497
			c-8.349,3.612-17.287,5.88-26.005,8.616c-7.699,2.416-15.496,4.526-23.166,7.032c-7.843,2.562-15.604,5.378-23.357,8.205
			c-3.662,1.335-7.152,3.16-10.844,4.389c-4.59,1.528-9.657,1.979-13.899,4.121c-8.862,4.474-18.722,5.93-27.685,10.291
			c-7.748,3.771-16.67,4.756-24.794,8.4c-7.546,3.384-15.946,4.915-23.713,8.278c-8.014,3.47-16.46,6.031-24.866,8.477
			c-7.69,2.237-15.58,3.789-23.006,5.553c-1.667-1.917-3.02-4.879-4.768-5.133c-2.244-0.327-4.805,1.52-7.226,2.439
			c-0.23,0.087-0.518,0.186-0.643,0.371c-1.524,2.251-4.808,5.618-4.211,6.588c2.256,3.667,0.19,5.635-1.557,8.084
			c-0.608,0.853-0.933,1.91-1.697,3.531c1.655,0,2.675-0.011,3.695,0.002c1.423,0.018,2.845,0.054,4.267,0.083
			c-0.438,1.549-0.605,3.261-1.407,4.591c-0.535,0.887-1.982,1.212-3.003,1.82c-1.222,0.727-2.746,1.232-3.58,2.278
			c-3.393,4.262-6.344,8.89-9.888,13.013c-4.317,5.023-4.373,5.359-0.295,10.805c1.479,1.976,3.534,5.397,2.785,6.815
			c-2.364,4.473-0.717,7.814,0.742,11.909c1.984,5.567,1.992,11.569-1.528,16.794c-2.186,3.245-5.198,5.946-7.285,9.242
			c-1.742,2.751-2.916,5.938-3.909,9.068c-1.185,3.735,2.584,4.899,4.247,7.17c3.061,4.181,7.133,4.363,12.26,3.081
			c-0.442-1.396-0.488-3.05-1.338-3.878c-1.337-1.304-4.165-1.37-3.305-4.274c0.625-2.107,1.135-4.391,2.343-6.154
			c2.595-3.79,5.48-7.404,8.499-10.873c1.523-1.75,3.593-3.022,5.416-4.511c0.262,0.177,0.525,0.353,0.788,0.53
			c-1.163,2.786,3.465,5.332-0.004,8.264c-0.097,0.082,0.448,0.798,0.533,1.248c0.183,0.969,0.379,1.962,0.353,2.938
			c-0.04,1.504-0.262,3.004-0.406,4.506c-3.951,4.5,0.768,5.574,4.489,7.163c-6.378,1.109-6.485,1.267-3.638,6.265
			c1.311-1.688,2.387-3.076,4.175-5.38c0.477,2.744,0.852,4.901,1.317,7.573c-2.625-0.564-4.431-1.341-6.189-1.242
			c-3.011,0.168-5.977,1.113-8.989,1.322c-5.809,0.404-11.637,0.697-17.458,0.709c-5.098,0.01-10.195-0.556-15.297-0.64
			c-8.959-0.146-17.921-0.133-26.882-0.16c-7.512-0.022-15.024-0.004-23.08-0.004c0.12,10.676-1.441,20.95,3.105,30.974
			c2.151-3.113,8.335-4.378,11.116-2.399c0.638,0.455,0.759,1.635,1.117,2.481C51.316,252.216,52.454,251.92,53.59,251.623z
			 M406.789,280.324c-0.154,0.024-0.603,0.151-1.053,0.155c-9.727,0.096-19.453,0.15-29.18,0.269
			c-14.726,0.179-29.451,0.596-44.177,0.558c-24.59-0.063-49.178-0.53-73.768-0.595c-29.239-0.076-58.48,0.096-87.72,0.155
			c-5.539,0.012-11.076,0.002-16.96,0.002c2.327-3.089,4.118-5.466,5.909-7.845c-0.144-0.374-0.288-0.749-0.431-1.122
			c-2.201,0.314-4.54,0.261-6.57,1.026c-3.484,1.313-6.642,3.587-10.18,4.641c-4.822,1.437-9.882,2.061-14.813,3.151
			c-0.788,0.174-1.934,0.894-2.021,1.492c-0.098,0.674,0.644,1.847,1.325,2.178c1.431,0.695,3.072,0.95,4.608,1.444
			c8.314,2.675,16.615,5.391,24.943,8.019c0.833,0.264,1.82,0.035,2.735,0.035c0.252-0.378,0.505-0.757,0.757-1.135
			c-1.989-2.198-3.978-4.397-6.042-6.68c3.709-1.021,7.201-2.79,11.15-0.67c1.21,0.649,2.968,0.572,4.428,0.409
			c4.558-0.512,9.075-0.349,13.653-0.177c5.429,0.203,10.894-0.882,16.349-0.943c4.315-0.049,8.635,0.837,12.959,0.902
			c11.322,0.175,22.646,0.174,33.971,0.157c17.595-0.026,35.19-0.184,52.786-0.18c32.96,0.009,65.919,0.094,98.879,0.146
			c3.398,0.006,6.797,0.001,11.019,0.001c-6.507,7.228-6.507,7.228-5.991,9.104c1.59-0.283,3.327-0.251,4.752-0.9
			c8.492-3.868,17.074-7.316,26.522-8.122c0.863-0.073,1.759-1.7,2.248-2.782c0.111-0.247-1.319-1.604-2.192-1.813
			c-5.028-1.207-10.122-2.139-15.15-3.349c-1.84-0.442-3.542-1.436-5.336-2.099c-3.798-1.405-7.616-2.76-11.425-4.134
			c-0.285,0.442-0.569,0.885-0.854,1.327C403.535,275.397,405.15,277.844,406.789,280.324z M510.069,79.605
			c-0.34,0.13-0.681,0.26-1.021,0.39c0.229,1.398,0.3,2.845,0.717,4.185c0.956,3.077,2.139,6.082,3.122,9.15
			c2.218,6.927,4.351,13.881,6.587,20.802c0.194,0.602,0.833,1.146,1.399,1.5c0.24,0.15,1.144-0.187,1.202-0.432
			c0.157-0.662,0.113-1.41-0.019-2.091c-0.184-0.949-0.968-2.013-0.721-2.778c2.89-8.955,5.959-17.852,8.882-26.796
			c0.38-1.163,0.203-2.509,0.332-4.526c-3.851,1.936-4.264,7.363-9.082,6.336c0-16.767,0-33.55,0-50.415
			c4.608-0.447,5.383,4.415,8.439,5.879c0.384-0.167,0.767-0.335,1.15-0.503c-3.626-11.047-7.251-22.095-11.009-33.545
			c-0.517,1.001-0.946,1.611-1.162,2.289c-2.23,7-4.417,14.015-6.636,21.019c-0.903,2.852-1.936,5.666-2.727,8.547
			c-0.175,0.64,0.418,1.49,0.658,2.244c0.672-0.395,1.463-0.672,1.994-1.207c1.637-1.648,3.174-3.395,4.751-5.103
			c0.374,0.198,0.747,0.396,1.122,0.594c0,16.831,0,33.661,0,50.491c-0.359,0.178-0.719,0.356-1.078,0.533
			C514.672,83.98,512.37,81.793,510.069,79.605z M274.132,475.917c-0.358,0.111-0.716,0.223-1.074,0.333
			c-0.964-2.317-1.976-4.615-2.884-6.954c-1.793-4.615-4.271-5.525-8.193-2.868c-0.521,0.353-1.223,1.196-1.101,1.572
			c0.21,0.651,0.989,1.128,1.551,1.655c1.043,0.979,2.548,1.749,3.069,2.949c1.617,3.724,2.686,7.689,4.362,11.382
			c0.504,1.108,2.242,2.062,3.537,2.25c0.732,0.106,2.292-1.366,2.492-2.332c2.852-13.749,5.585-27.524,8.238-41.314
			c1.472-7.646,1.381-7.809,9.083-7.807c21.111,0.007,42.222,0.156,63.333,0.222c1.995,0.007,4.02-0.007,5.971-0.35
			c0.874-0.152,1.603-1.142,2.396-1.752c-0.78-0.673-1.495-1.457-2.368-1.974c-0.476-0.282-1.221-0.138-1.844-0.138
			c-24.743-0.014-49.486-0.066-74.229,0.091c-1.45,0.009-3.772,1.437-4.177,2.691c-1.586,4.916-2.795,9.986-3.718,15.075
			C276.932,457.71,275.596,466.825,274.132,475.917z M471.408,145.095c0.488-0.327,0.977-0.654,1.466-0.981
			c-1.441-4.551-2.806-9.127-4.345-13.646c-1.564-4.597-3.299-9.135-4.817-13.308c1.428-1.266,2.44-2.164,3.453-3.062
			c-2.314-0.454-4.617-1.055-6.954-1.252c-0.538-0.045-1.199,1.283-1.785,1.995c-0.05,0.059,0.073,0.236,0.066,0.356
			c-0.152,2.51,0.155,5.164-0.563,7.502c-1.793,5.834-4.136,11.497-6.063,17.293c-0.433,1.299-0.063,2.866-0.063,5.313
			c2.988-2.899,5.099-4.946,7.207-6.992c0.387,0.151,0.772,0.302,1.16,0.453c0,3.674-0.113,7.353,0.066,11.017
			c0.056,1.114,0.918,2.189,1.411,3.282c0.568-1.173,1.554-2.32,1.628-3.524c0.22-3.56,0.078-7.14,0.078-10.712
			c0.298-0.173,0.595-0.347,0.891-0.52C466.633,140.57,469.021,142.833,471.408,145.095z M450.378,35.811
			c-0.553,0.374-1.106,0.749-1.659,1.122c0.323,1.343,0.499,2.744,0.997,4.02c2.969,7.617,5.955,15.229,9.071,22.787
			c0.751,1.822,1.01,3.211-0.665,4.645c-0.441,0.378-0.281,1.458-0.397,2.216c0.785,0.049,1.939,0.448,2.287,0.082
			c1.129-1.189,2.224-2.552,2.837-4.05c0.649-1.582,0.61-3.43,1.082-5.103c2.063-7.328,4.25-14.622,6.267-21.962
			c0.303-1.106-0.059-2.396-0.096-3.208c-2.695,2.437-5.051,4.566-7.728,6.988c-1.347-5.669,0.531-11.058-2.093-15.558
			c-0.524,0.059-1.048,0.117-1.571,0.175c0,5.218,0,10.435,0,15.652c-0.863,0.66-1.728,1.319-2.592,1.979
			C454.205,42.335,452.291,39.073,450.378,35.811z M392.811,397.222c0.78-3.345,1.513-6.35,2.176-9.369
			c0.473-2.151,0.261-3.399-2.656-3.493c-6.285-0.202-12.472,3.478-14.566,9.264c-1.43,3.948,0.082,8.921,3.01,8.588
			c3.884-0.442,7.671-1.081,11.578-0.508c0.978,0.143,1.989,0.18,2.975,0.115c1.479-0.096,3.086-0.012,4.389-0.58
			c1.381-0.602,2.47-1.873,3.928-3.048c0.677,1.159,1.033,2.639,1.821,2.923c1.2,0.433,2.858,0.383,4.003-0.15
			c0.581-0.27,1.025-2.576,0.574-3.049c-3.613-3.786-3.26-6.321,1.174-9.216c0.793-0.52,0.679-2.428,0.982-3.694
			c-1.195,0.033-2.519-0.24-3.548,0.19c-0.881,0.368-1.427,1.542-2.141,2.382c-1.008-0.928-1.782-2.121-2.844-2.493
			c-1.221-0.428-2.696-0.131-4.062-0.147c0.284,1.18,0.225,2.636,0.913,3.49c2.732,3.393,2.926,5.504,0.156,8.973
			C398.148,400.563,395.616,398.559,392.811,397.222z M244.054,384.346c-1.13,6.097-2.137,11.525-3.144,16.955
			c0.547,0.18,1.094,0.359,1.64,0.539c0.921-1.44,2.321-2.773,2.672-4.341c1.058-4.721,4.923-6.526,8.986-9.844
			c-1.054,3.543-2.043,5.961-2.428,8.471c-0.276,1.796,0.257,3.717,0.429,5.582c1.779-0.47,3.558-0.937,5.334-1.412
			c0.239-0.063,0.469-0.168,0.703-0.25c2.91,2.958,8.098,3.13,10.973,0.362c2.56-2.463,2.05-6.077-1.333-9.471
			c-2.203-2.209-2.208-2.403-0.108-4.488c1.228,1.463,2.468,2.94,3.708,4.418c0.43-0.122,0.859-0.243,1.289-0.364
			c0.175-1.594,0.864-3.391,0.343-4.711c-0.351-0.888-2.385-1.195-3.718-1.579c-0.815-0.235-1.845-0.407-2.578-0.111
			c-1.513,0.609-3.781,1.29-4.111,2.418c-0.455,1.558,0.385,3.635,1.048,5.344c0.875,2.252,2.115,4.36,3.198,6.531
			c-0.356,0.352-0.712,0.704-1.067,1.056c-3.219-0.727-6.025-3.681-10.438-1.214c1.006-3.308,1.935-5.259,2.123-7.279
			c0.194-2.095-0.331-4.256-0.541-6.388c-1.939,0.326-3.929,0.484-5.797,1.045c-1.002,0.301-1.797,1.293-2.712,1.993
			c-0.253-1.237-0.489-2.398-0.776-3.808C246.015,384.056,244.602,384.265,244.054,384.346z M308.144,381.608
			c-0.024-4.19-0.848-6.322-4.254-6.685c-2.535-0.27-5.677,0.921-7.865,2.444c-5.896,4.104-5.832,11.468-8.518,17.346
			c-0.325,0.71,0.071,1.961,0.497,2.77c4.032,7.644,7.467,6.372,12.682,1.587C305.44,394.707,308.242,388.535,308.144,381.608z
			 M448,396.156c0.76-2.064,1.973-4.347,2.347-6.759c0.229-1.477-0.378-3.828-1.443-4.54c-0.997-0.668-3.184,0.072-4.674,0.643
			c-1.041,0.398-1.792,1.557-2.699,2.398c-1.643-4.02-2.819-4.438-6.666-2.764c-0.646,0.28-1.615-0.212-2.439-0.305
			c-1.275-0.143-2.72-0.649-3.771-0.22c-0.624,0.256-0.702,2.001-0.902,3.1c-0.241,1.318-0.255,2.683-0.541,3.989
			c-0.534,2.432-1.338,4.813-1.725,7.264c-0.139,0.874,0.607,1.887,0.95,2.836c0.85-0.581,2.036-0.98,2.471-1.786
			c0.689-1.276,0.789-2.855,1.294-4.251c1.046-2.892,3.236-4.679,6.173-6.741c-0.757,3.385-1.428,5.877-1.831,8.411
			c-0.203,1.273,0.08,2.625,0.145,3.941c1.249-0.976,2.595-1.856,3.701-2.975c0.44-0.445,0.219-1.477,0.526-2.135
			c1.213-2.592,2.632-5.017,6.291-6.097c-0.712,3.266-1.494,5.854-1.753,8.491c-0.118,1.213,0.79,2.525,1.233,3.793
			c1.72-0.875,3.488-1.68,5.071-2.756C449.889,399.606,448.762,397.67,448,396.156z M188.726,388.353
			c-0.312,1.517-0.369,2.394-0.676,3.171c-0.706,1.787-1.638,3.488-2.28,5.294c-0.556,1.563-1.645,3.831,1.081,4.046
			c1.114,0.088,2.686-1.845,3.545-3.182c1.344-2.089,2.096-4.561,3.443-6.647c0.497-0.771,1.966-0.913,2.992-1.342
			c-0.106,1.137-0.067,2.311-0.352,3.399c-0.54,2.065-1.581,4.055-1.76,6.131c-0.073,0.834,1.579,1.816,2.445,2.731
			c1.277-1.249,3.86-3.181,3.621-3.639c-1.632-3.125-0.328-5.663,0.536-8.533c0.458-1.525-0.128-3.675-0.973-5.114
			c-0.295-0.503-2.862,0.034-4.23,0.536c-1.3,0.477-2.391,1.526-3.589,2.336c-0.971-3.535-2.43-4.236-5.867-3.023
			c-0.91,0.321-1.941,0.517-2.893,0.445c-1.325-0.101-2.628-0.507-3.707-0.733c-0.197,2.276-0.11,3.76-0.487,5.114
			c-0.79,2.839-1.967,5.575-2.676,8.43c-0.242,0.976,0.441,2.181,0.703,3.281c1.135-0.657,2.586-1.074,3.32-2.038
			c0.763-1.001,0.782-2.548,1.218-3.825C183.148,392.228,184.721,389.762,188.726,388.353z M370.637,389.561
			c-0.796,2.896-1.57,5.117-1.977,7.406c-0.264,1.487,0.011,3.069,0.044,4.61c1.482-0.247,3.033-0.304,4.421-0.807
			c0.926-0.336,1.62-1.307,2.583-2.136c-2.976-1.658-2.136-3.614-1.641-5.947c0.552-2.604,0.103-5.42,0.09-8.144
			c-2.414,0.441-4.827,0.883-7.825,1.431c-0.297-0.215-1.635-1.85-2.395-1.615c-3.487,1.079-6.843,0.425-10.256,0.014
			c-0.183-0.022-0.4,0.252-0.278,0.17c-1.082,5.457-2.108,10.635-3.167,15.981c2.357,1.154,3.761,0.768,4.538-2.027
			c0.651-2.341,1.648-4.639,2.853-6.749c0.604-1.059,2.012-1.658,3.269-2.63c0.905,4.681-2.921,8.385-0.875,13.006
			C364.805,398.634,364.131,391.439,370.637,389.561z M21.184,400.716c0.523,0.23,1.28,0.865,2.006,0.832
			c3.944-0.181,7.915-0.295,11.811-0.871c5.7-0.842,8.088-6.183,4.872-10.984c-1.307-1.95-1.074-2.968,0.608-4.283
			c1.882-1.471,2.89-3.249,1.892-5.849c-1.008-2.624-2.548-4.1-5.477-4.041c-1.987,0.04-3.982-0.287-5.968-0.23
			c-2.075,0.06-3.417-0.105-3.661,3.366C26.737,386.16,24.854,393.599,21.184,400.716z M512.179,400.247
			c-0.541-1.48-1.59-2.852-1.341-3.92c1.374-5.919,3.074-11.762,4.636-17.637c0.203-0.765,0.608-2.025,0.299-2.27
			c-0.805-0.636-1.993-1.188-2.955-1.086c-0.691,0.074-1.607,1.168-1.813,1.963c-0.332,1.291-0.202,2.712-0.195,4.076
			c0.013,2.274-1.027,3.092-3.296,2.803c-3.2-0.408-5.902,0.367-7.294,3.7c-0.221,0.527-0.748,0.971-1.219,1.346
			c-5.546,4.431-5.604,9.602-0.051,14.6c1.12-0.69,2.24-1.462,3.434-2.092c0.836-0.439,2.417-1.157,2.57-0.947
			C507.668,404.478,509.826,401.749,512.179,400.247z M329.026,464.829c-1.311-3.763-2.617-6.732-3.335-9.837
			c-0.536-2.321-1.36-3.977-3.863-3.33c-2.928,0.757-1.428,3.037-0.917,4.584c1.678,5.08,3.595,10.08,5.388,15.123
			c0.984,2.77,0.286,4.542-2.864,5.186c-0.842,0.172-1.855,1.218-2.1,2.062c-0.197,0.684,0.678,2.409,1.019,2.394
			c1.975-0.09,4.638,0.109,5.734-1.051c1.847-1.951,2.948-4.755,3.909-7.366c2.032-5.518,3.895-11.107,5.534-16.753
			c0.348-1.2-0.207-3.715-0.939-3.979c-2.268-0.82-2.537,1.186-3.156,2.954C332.296,458.074,330.673,461.166,329.026,464.829z
			 M286.949,452.196c1.89,5.424,3.505,10.708,5.578,15.806c1.719,4.226,1.413,5.688-2.198,8.613c-0.766,0.62-1.02,2.817-0.542,3.832
			c0.99,2.103,4.5,1.065,5.754-1.671c1.774-3.869,3.66-7.704,5.146-11.687c1.803-4.832,3.238-9.802,4.854-14.776
			c-3.089-1.291-4.351-0.858-5.112,2.067c-0.901,3.47-2.581,6.737-4.042,10.391c-1.425-3.718-3.078-6.729-3.675-9.937
			C292.044,451.255,290.464,450.806,286.949,452.196z M142.238,384.647c0.628,4.557,1.185,8.995,1.888,13.41
			c0.168,1.053,0.662,2.722,1.297,2.873c0.918,0.217,2.425-0.414,3.101-1.188c1.019-1.168,1.481-2.805,2.288-4.18
			c0.494-0.841,1.188-1.564,2.189-2.85c0.277,3.646,0.488,6.411,0.772,10.134c1.788-1.336,2.921-1.873,3.614-2.756
			c2.307-2.941,4.627-5.9,6.58-9.076c0.769-1.25,0.928-3.143,0.694-4.637c-0.137-0.875-1.599-1.541-2.465-2.301
			c-0.508,1.043-1.688,2.333-1.41,3.087c1.219,3.311-0.625,4.902-3.293,7.087c0-3.723,0-6.766,0-10.021
			c-5.937-0.44-3.596,8.572-9.386,7.886C147.662,384.024,146.683,382.915,142.238,384.647z M318.336,384.351
			c-0.821,4.33-1.681,7.921-2.119,11.563c-0.231,1.92,0.271,3.929,0.441,5.896c1.829-0.928,3.656-1.861,5.493-2.776
			c0.21-0.104,0.475-0.098,0.715-0.138c3.409,3.952,8.167,4.823,11.346,2.078c2.838-2.451,2.354-5.361-1.26-10.051
			c-0.753-0.977-0.593-2.657-0.853-4.014c0.332-0.099,0.666-0.196,0.998-0.295c0.574,0.772,1.064,1.631,1.747,2.29
			c0.64,0.618,1.484,1.024,2.238,1.523c0.328-0.763,0.941-1.532,0.925-2.287c-0.034-1.604,0.603-4.063-2.117-3.887
			c-2.693,0.176-6.323-1.826-7.789,2.191c-1.043,2.856-0.543,5.558,1.886,7.863c1.104,1.049,1.582,2.758,2.297,4.081
			c-3.85,2.687-4.347-1.032-5.996-1.373c-1.681,0.297-3.36,0.596-5.041,0.893c-0.28-1.656-0.671-3.305-0.787-4.973
			c-0.047-0.671,0.662-1.365,0.756-2.084c0.279-2.125,0.423-4.269,0.653-6.774C319.836,384.234,318.543,384.334,318.336,384.351z
			 M198.359,452.103c0.671,1.543,0.958,2.956,1.769,3.934c3.322,4.001,3.799,7.726,0.015,11.84
			c-0.962,1.047-1.421,4.313-0.847,4.705c2.222,1.515,3.418-0.395,4.352-2.299c0.185-0.378,0.886-0.466,1.204-0.817
			c2.578-2.86,3.253-2.658,5.125,0.692c0.71,1.271,2.284,2.127,3.613,2.925c0.252,0.152,1.809-1.024,1.732-1.31
			c-0.453-1.678-1.181-3.286-1.9-4.881c-0.109-0.241-0.703-0.219-0.993-0.429c-2.639-1.918-2.551-5.801-0.272-8.023
			c1.747-1.703,2.945-3.969,4.72-6.447c-3.945-0.858-6.21-0.723-7.272,2.64c-0.312,0.983-1.5,1.689-2.286,2.523
			c-0.639-0.785-1.309-1.548-1.91-2.362C203.794,452.611,202.202,450.426,198.359,452.103z M526.336,70.51
			c0.337,0.324,0.674,0.647,1.011,0.971c0.784-0.472,1.718-0.8,2.327-1.438c3.796-3.975,7.911-7.732,11.134-12.136
			c2.326-3.178,3.589-7.193,4.93-10.975c0.223-0.627-1.59-1.976-2.462-2.99c-0.308,1.022-1.021,2.116-0.855,3.055
			c0.752,4.251-1.442,7.707-6.212,8.984c-0.408-3.214-0.636-6.432-1.312-9.552c-0.231-1.072-1.538-2.63-2.429-2.683
			c-1.645-0.097-3.345,0.754-4.21,0.99c1.107,3.011,1.938,5.079,2.623,7.194c0.522,1.615,0.998,3.27,1.246,4.942
			c0.417,2.815,0.785,5.511-1.857,7.85C528.577,66.22,527.622,68.552,526.336,70.51z M233.43,384.216
			c-3.718-0.789-6.382,0.707-8.384,3.867c-1.025,1.618-3.039,2.894-3.404,4.584c-0.565,2.624-0.89,5.821,0.139,8.126
			c1.053,2.354,3.928,1.583,6.322,0.67c1.283-0.489,2.932,0.051,4.408-0.021c1.245-0.061,2.557-0.14,3.689-0.59
			c0.579-0.229,1.338-1.658,1.149-1.921c-2.763-3.83-0.119-7.211,1.016-10.521c1.036-3.021-0.16-3.839-2.656-4.181
			C234.977,384.131,234.217,384.216,233.43,384.216z M356.522,481.81c-0.123-0.414-0.246-0.828-0.369-1.243
			c-0.45-0.163-0.889-0.367-1.351-0.481c-2.008-0.501-4.021-0.975-6.033-1.458c1.518-1.763,2.844-3.751,4.598-5.237
			c2.805-2.378,3.923-6.123,1.26-10.665c-1.029-1.755-4.754-2.487-7.315-2.646c-3.176-0.198-3.853,3.017-4.751,5.367
			c-0.26,0.681,0.487,1.744,0.887,2.99c0.904-0.77,1.314-1.046,1.634-1.404c1.755-1.967,4.302-3.141,6.005-1.166
			c0.815,0.945-0.672,4.063-1.421,6.085c-0.305,0.823-1.383,1.394-2.175,1.993c-1.079,0.817-2.64,1.314-3.238,2.376
			c-0.954,1.691-1.284,3.734-1.879,5.629c1.485,0.353,2.955,0.859,4.461,1.021c1.852,0.198,3.751,0.283,5.595,0.088
			C353.821,482.909,355.16,482.244,356.522,481.81z M457.429,79.138c4.511,3.6,2.782,8.897,3.979,13.415
			c1.446,5.461-3.254,8.507-4.117,13.005c7.465-6.256,13.516-13.451,18.258-21.683c0.588-1.021,0.437-2.785-0.004-3.969
			c-0.306-0.821-1.809-1.823-2.569-1.676c-0.774,0.15-2.039,1.958-1.813,2.44c2.057,4.37-1.751,6.933-2.971,10.248
			c-0.168,0.459-1.193,0.92-1.734,0.833c-0.496-0.08-1.186-0.86-1.251-1.397c-0.286-2.333-0.436-4.686-0.523-7.037
			C464.481,77.932,462.772,76.886,457.429,79.138z M483.812,399.382c-0.314-0.455-0.63-0.91-0.944-1.365
			c1.201-1.216,2.277-2.604,3.644-3.594c1.166-0.845,2.649-1.264,4.018-1.807c2.724-1.08,3.586-3.479,2.597-5.699
			c-0.594-1.332-2.967-2.476-4.63-2.611c-4.488-0.366-10.236,6.057-10.667,11.023c-0.329,3.775,1.486,6.48,4.391,7.929
			c1.223,0.609,3.608-1.091,5.454-1.768c0.684-0.25,1.438-0.457,1.98-0.901c0.705-0.579,1.23-1.375,1.832-2.077
			c-0.971-0.091-1.968-0.367-2.905-0.232C486.972,398.512,485.399,399.001,483.812,399.382z M289.094,320.861
			c1.771,1.689,3.189,4.044,4.344,3.922c2.013-0.214,3.864-1.953,5.784-3.053c-0.246-0.488-0.491-0.975-0.737-1.463
			c-1.415,0.395-2.829,0.79-4.474,1.25c-0.091-1.033-0.105-2.128-0.294-3.189c-1.045-5.862-1.024-5.761,4.769-7.905
			c0.883-0.326,1.245-2.059,1.847-3.141c-1.003-0.408-2.154-1.347-2.982-1.118c-1.952,0.539-3.751,1.634-5.615,2.506
			c-3.397-4.286-5.941-4.511-7.502-1.456c1.667,2.851,4.684,5.783,4.113,7.569c-0.813,2.543-1.628,6.504-5.712,7.15
			c-0.479,0.076-0.759,1.418-1.131,2.173c0.964,0.177,2.214,0.823,2.84,0.442C286.206,323.417,287.824,321.881,289.094,320.861z
			 M467.461,399.199c1.806-3.979,3.557-6.998,7.262-8.66c1.138-0.51,2.259-2.652,2.111-3.896c-0.107-0.904-2.23-1.842-3.606-2.243
			c-1.257-0.366-2.72,0.042-4.086-0.018c-3.436-0.15-5.393,1.258-5.503,5.368c2.365,0,4.606,0,7.492,0
			c-3.171,3.485-5.876,6.316-8.373,9.318c-0.52,0.625-0.729,2.361-0.302,2.771c1.685,1.616,10.541,0.683,11.992-1.171
			c0.521-0.664,0.564-1.7,1.008-3.172C472.515,398.124,470.224,398.611,467.461,399.199z M127.754,396.701
			c1.172-0.892,2.23-1.854,3.433-2.573c2.041-1.222,4.399-2.022,6.184-3.522c1.065-0.896,2.13-3.175,1.686-4.133
			c-0.556-1.201-2.597-2.204-4.106-2.385c-6.076-0.726-9.199,4.325-10.613,10.719c-0.756,3.415,0.332,5.929,3.654,7.181
			c2.361,0.89,7.272-1.477,8.646-4.084C133.754,396.782,130.332,401.401,127.754,396.701z M216.793,397.472
			c-1.379,0.477-2.785,1.395-4.13,1.313c-1.46-0.091-2.863-1.11-4.291-1.726c1.027-1.012,1.906-2.288,3.118-2.974
			c1.674-0.946,4.078-0.996,5.279-2.269c1.165-1.234,1.502-3.516,1.593-5.367c0.038-0.769-1.545-2.336-2.322-2.294
			c-2.374,0.131-5.646,0.08-6.874,1.532c-2.574,3.049-4.078,7.005-5.972,10.614c-0.131,0.249,0.078,0.738,0.232,1.067
			C206.231,403.308,213.145,403.85,216.793,397.472z M57.147,399.482c-0.221-0.6-0.443-1.199-0.664-1.8
			c-1.491,0.398-2.993,1.137-4.469,1.086c-1.182-0.04-2.97-0.767-3.358-1.673c-0.736-1.72,0.169-2.879,2.361-3.134
			c1.79-0.208,3.604-0.935,5.214-1.793c2.426-1.295,3.072-3.785,2.083-6.03c-0.476-1.078-2.611-1.785-4.09-1.995
			c-4.832-0.687-6.242,2.617-8.618,7.084c-0.961,1.806-2.25,4.334-1.653,5.85c0.777,1.976,3.165,4.387,5.071,4.586
			C51.627,401.936,54.43,400.3,57.147,399.482z M72.71,390.641c3.072-5.688,2.573-6.55-3.118-6.54c-0.375,0-0.749-0.014-1.123-0.002
			c-4.391,0.144-6.057,3.154-3.883,7.076c0.957,1.725,2.174,3.33,2.914,5.138c0.297,0.726-0.37,1.847-0.598,2.788
			c-1.055-0.322-2.16-0.539-3.15-1c-0.837-0.391-1.541-1.066-2.303-1.615c-0.495,0.788-1.479,1.654-1.368,2.345
			c0.165,1.021,1.103,2.725,1.719,2.728c2.623,0.015,5.381-0.092,7.837-0.912c2.847-0.951,3.361-5.403,1.249-7.624
			c-1.094-1.15-2.427-2.219-3.075-3.597c-0.461-0.982,0.039-2.418,0.11-3.651c0.343,0.021,0.688,0.043,1.031,0.065
			C70.126,387.34,71.301,388.84,72.71,390.641z M104.943,394.604c-0.812-2.495-1.676-4.409-2.039-6.415
			c-0.759-4.202-1.919-4.896-5.205-3.505c1.233,5.492,2.428,10.812,3.791,16.88c1.661-0.957,3.574-1.48,4.553-2.734
			c2.528-3.236,4.759-6.728,6.818-10.284c0.387-0.668-0.271-2.413-0.984-3.113c-0.724-0.713-2.113-0.748-3.211-1.079
			c-0.153,1.04-0.681,2.2-0.391,3.097C109.267,390.529,107.658,392.327,104.943,394.604z M312.943,468.203
			c0,4.071-0.11,7.786,0.073,11.486c0.05,0.999,0.988,1.953,1.52,2.928c0.823-0.903,2.28-1.757,2.356-2.72
			c0.284-3.578,0.114-7.192,0.114-10.793c0-2.674,0-5.348,0-8.005c-4.128-0.032-8.384,3.892-8.035,6.927
			C310.042,468.074,311.13,468.122,312.943,468.203z M548.828,54.746c0.711,0.075,1.28,0.157,1.852,0.192
			c1.428,0.087,2.858,0.153,4.286,0.228c-0.357,1.749-0.304,3.749-1.18,5.18c-0.985,1.609-3.057,2.523-4.197,4.076
			c-1.128,1.535-1.683,3.489-2.488,5.259c2.295,0.136,4.65,0.626,6.857,0.248c0.988-0.169,1.679-2.078,2.934-3.778
			c-2.189,0.219-3.289,0.329-5.112,0.512c0.906-1.316,1.378-2.575,1.829-2.568c4.011,0.067,3.248-4.056,5.075-5.892
			c0.731-0.735,0.161-3.688-0.75-4.966C555.079,49.231,552.701,49.687,548.828,54.746z M79.178,384.406
			c-0.416,2.35-0.674,4.018-1.01,5.67c-0.617,3.037-1.426,6.048-1.819,9.112c-0.099,0.766,1.031,2.363,1.682,2.411
			c1.321,0.098,2.789-0.431,4.018-1.053c0.528-0.267,0.988-1.975,0.843-2.07c-2.932-1.949-1.21-4.611-0.837-6.778
			c0.407-2.357,1.729-4.557,2.653-6.825c0.246,0.129,0.492,0.258,0.739,0.387c-0.421-1.79-0.843-3.579-1.298-5.514
			C82.117,381.651,80.292,383.361,79.178,384.406z M454.998,404.332c2.094-1.859,3.23-2.657,4.069-3.695
			c0.519-0.642,0.797-1.649,0.806-2.497c0.023-2.031-0.372-4.08-0.227-6.095c0.133-1.832,1.023-3.625,1.042-5.441
			c0.007-0.793-1.408-2.314-2.037-2.244c-1.208,0.133-3.389,1.498-3.303,1.778c1.317,4.288-2.083,7.775-1.821,11.767
			C453.652,399.793,454.359,401.642,454.998,404.332z M121.88,398.771c-3.088-2.238-3.529-5.107-2.169-7.705
			c1.04-1.986,1.564-4.242,2.441-6.728c-2.733,0-4.377,0-5.19,0c-0.444,3.237-0.768,5.989-1.213,8.721
			c-0.339,2.08-1.146,4.141-1.105,6.197c0.017,0.847,1.912,2.492,2.595,2.324C118.786,401.2,120.11,399.917,121.88,398.771z
			 M421.881,399.565c-3.454-2.402-2.383-5.135-1.225-7.993c0.598-1.477,0.949-3.115,1.057-4.704
			c0.054-0.805-0.507-2.184-1.096-2.377c-0.93-0.307-2.232-0.062-3.144,0.406c-0.427,0.219-0.362,1.497-0.424,2.303
			c-0.146,1.903-0.105,3.83-0.378,5.713c-0.319,2.205-1.024,4.357-1.281,6.565c-0.099,0.839,0.367,2.283,0.963,2.533
			c0.813,0.341,2.059-0.032,2.998-0.404C420.111,401.308,420.693,400.556,421.881,399.565z M486.858,87.032
			c-0.419-0.439-0.984-1.301-1.781-1.721c-0.266-0.141-1.479,0.741-1.659,1.336c-1.51,4.964-2.948,9.953-4.217,14.982
			c-0.19,0.754,0.579,2.49,0.961,2.507c1.053,0.046,2.927-0.372,3.082-0.969C484.581,98.033,485.609,92.819,486.858,87.032z
			 M248.709,459.817c0.094-0.514,0.187-1.028,0.28-1.542c-5.711-2.546-12.043-0.17-17.959-1.172
			c-0.852-0.144-1.93,1.043-2.902,1.613c0.138,0.367,0.275,0.734,0.414,1.101C235.264,459.817,241.987,459.817,248.709,459.817z
			 M248.631,466.557c0.031-0.449,0.063-0.899,0.094-1.349c-5.828-2.092-12.116-0.654-18.119-1.395
			c-0.609-0.076-1.41,1.394-2.688,2.743C235.542,466.557,242.087,466.557,248.631,466.557z M514.677,398.705c0,3.668,0,5.96,0,8.464
			c3.8-1.679,5.574-5.027,3.929-7.449C518.039,398.886,516.047,399.02,514.677,398.705z M433.459,120.643
			c0.517-0.008,1.034-0.016,1.551-0.023c2.522-2.667,0.856-5.953,1-8.959c0.015-0.305-0.914-0.936-1.369-0.905
			c-0.489,0.033-1.336,0.664-1.341,1.043C433.26,114.746,433.385,117.695,433.459,120.643z M434.037,272.175
			c0.717,0,1.744,0,2.249,0c0.281-2.784,0.634-5.227,0.694-7.675c0.014-0.542-1.007-1.108-1.552-1.664
			c-0.711,0.847-1.973,1.661-2.021,2.544C433.291,267.457,433.753,269.567,434.037,272.175z M130.112,272.61
			c-1.104-2.288,0.929-5.076-2.637-5.334c-0.655-0.048-1.918,1.668-2.081,2.698C124.902,273.109,127.333,272.299,130.112,272.61z
			 M476.159,147.53c-4.117-0.511-4.394,2.335-5.548,4.967C474.363,152.759,475.897,151.202,476.159,147.53z M130.92,276.443
			c-1.546-1.287-2.334-1.944-3.124-2.601c-0.72,1.012-1.744,1.946-2.024,3.067c-0.13,0.524,1.334,2.094,1.798,1.986
			C128.561,278.668,129.371,277.655,130.92,276.443z M569.681,258.275c-2.323-0.106-4.024-0.184-6.038-0.276
			c-0.303,0.488-0.862,1.397-1.492,2.417C565.657,263.149,567.346,260.424,569.681,258.275z M432.551,278.154
			c0.37,0.473,0.74,0.944,1.11,1.416c1.057-0.623,2.288-1.091,3.066-1.964c0.24-0.27-0.753-1.64-1.182-2.506
			C434.548,276.118,433.55,277.137,432.551,278.154z M435.019,213.029c-0.724,1.624-1.428,2.524-1.428,3.424
			c0.001,0.696,0.883,1.392,1.373,2.088c0.625-0.974,1.448-1.886,1.779-2.952C436.881,215.147,435.968,214.378,435.019,213.029z"/>
		<path fill-rule="evenodd" clip-rule="evenodd" d="M50.18,252.513c-0.358-0.847-0.479-2.026-1.117-2.481
			c-2.78-1.979-8.964-0.714-11.116,2.399c-4.547-10.024-2.986-20.298-3.105-30.974c8.055,0,15.568-0.018,23.08,0.004
			c8.961,0.026,17.923,0.013,26.882,0.16c5.102,0.083,10.199,0.65,15.297,0.64c5.821-0.012,11.649-0.305,17.458-0.709
			c3.013-0.209,5.978-1.154,8.989-1.322c1.758-0.099,3.564,0.678,6.189,1.242c-0.465-2.672-0.84-4.829-1.317-7.573
			c-1.788,2.305-2.864,3.692-4.175,5.38c-2.847-4.998-2.74-5.155,3.638-6.265c-3.721-1.589-8.44-2.663-4.489-7.163
			c0.144-1.502,0.366-3.002,0.406-4.506c0.026-0.977-0.17-1.969-0.353-2.938c-0.085-0.45-0.63-1.166-0.533-1.248
			c3.469-2.932-1.159-5.478,0.004-8.264c-0.262-0.177-0.525-0.353-0.788-0.53c-1.822,1.489-3.893,2.762-5.416,4.511
			c-3.018,3.468-5.904,7.083-8.499,10.873c-1.208,1.763-1.718,4.046-2.343,6.154c-0.86,2.904,1.968,2.97,3.305,4.274
			c0.85,0.828,0.896,2.482,1.338,3.878c-5.127,1.282-9.2,1.1-12.26-3.081c-1.663-2.271-5.432-3.435-4.247-7.17
			c0.993-3.131,2.167-6.317,3.909-9.068c2.087-3.296,5.099-5.997,7.285-9.242c3.52-5.225,3.512-11.227,1.528-16.794
			c-1.458-4.094-3.106-7.436-0.742-11.909c0.749-1.418-1.306-4.839-2.785-6.815c-4.077-5.446-4.022-5.782,0.295-10.805
			c3.544-4.123,6.495-8.751,9.888-13.013c0.833-1.046,2.358-1.551,3.58-2.278c1.021-0.607,2.469-0.933,3.003-1.82
			c0.802-1.33,0.97-3.042,1.407-4.591c-1.422-0.028-2.844-0.064-4.267-0.083c-1.02-0.013-2.04-0.002-3.695-0.002
			c0.765-1.622,1.089-2.678,1.697-3.531c1.747-2.45,3.813-4.418,1.557-8.084c-0.597-0.97,2.687-4.337,4.211-6.588
			c0.125-0.186,0.413-0.284,0.643-0.371c2.421-0.919,4.982-2.766,7.226-2.439c1.748,0.254,3.102,3.216,4.768,5.133
			c7.426-1.764,15.315-3.315,23.006-5.553c8.406-2.445,16.852-5.007,24.866-8.477c7.767-3.363,16.167-4.894,23.713-8.278
			c8.124-3.644,17.046-4.629,24.794-8.4c8.963-4.361,18.823-5.817,27.685-10.291c4.242-2.142,9.309-2.592,13.899-4.121
			c3.692-1.229,7.182-3.054,10.844-4.389c7.753-2.827,15.515-5.643,23.357-8.205c7.67-2.505,15.467-4.616,23.166-7.032
			c8.718-2.736,17.656-5.004,26.005-8.616c7.872-3.406,16.413-4.903,23.992-8.497c8.017-3.801,16.939-4.292,24.621-8.082
			c6.683-3.298,13.733-4.758,20.662-6.862c2.865-0.87,6.07-0.571,9.098-0.983c1.298-0.177,2.534-0.81,4.32-1.411
			c0.407,0.496,1.143,1.391,2.315,2.82c-2.156,0.39-3.671,0.664-5.551,1.005c0,10.158-0.029,20.386,0.01,30.614
			c0.03,7.864,0.162,15.727,0.214,23.589c0.013,2.004,0.031,3.813,2.856,3.75c0.55-0.013,1.122,0.952,1.684,1.465
			c-0.896,0.489-1.773,1.359-2.692,1.404c-7.538,0.376-15.165,0.073-22.199,3.592c-0.646,0.323-1.413,0.482-2.141,0.553
			c-7.83,0.766-15.677,1.378-23.493,2.271c-10.277,1.174-20.547,2.453-30.789,3.902c-5.738,0.812-11.609,1.483-17.05,3.317
			c-3.449,1.163-6.332,1.413-9.973,1.32c-6.873-0.175-13.8,1.707-20.701,2.761c-1.597,0.244-3.167,0.672-4.768,0.88
			c-15.298,1.988-30.604,3.906-45.896,5.936c-5.918,0.785-11.795,1.876-17.709,2.699c-13.284,1.845-26.55,3.89-39.884,5.264
			c-5.159,0.531-9.672,1.922-13.947,4.641c-0.473,0.301-1.608,0.282-1.958-0.067c-2.096-2.096-4.042-1.001-6.432-0.446
			c-5.069,1.179-10.315,1.606-15.496,2.292c-1.981,0.261-4.017,0.217-5.952,0.651c-0.837,0.188-1.592,1.151-2.18,1.919
			c-0.599,0.783-0.947,1.758-1.405,2.649c-0.514-1.017-1.028-2.033-1.971-3.896c-1.194,1.006-2.566,2.162-4.215,3.553
			c-0.506-0.35-1.376-0.952-2.479-1.715c-2.073,2.069-4.412,2.88-7.341-0.552c-0.53,3.291-0.75,5.836-1.407,8.265
			c-0.369,1.362-1.381,2.588-2.245,3.771c-1.633,2.24-3.453,4.235-1.008,7.196c4.879,5.909,7.495,12.9,8.981,20.957
			c1.595-0.398,2.945-0.987,4.306-1.013c1.832-0.036,4.066-0.196,5.393,0.74c1.173,0.829,1.985,3.159,1.802,4.688
			c-0.262,2.182-2.011,3.648-4.549,3.521c-4.295-0.216-7.274,1.482-8.697,5.728c-0.967,2.886-2.151,5.7-3.28,8.529
			c-0.272,0.682-0.558,1.493-1.097,1.914c-3.642,2.843-2.772,6.646-2.104,10.262c1.008,5.445,2.317,10.834,3.493,16.248
			c0.529,2.437,1.3,4.857,1.496,7.322c0.219,2.749,1.733,3.625,4.098,3.829c5.161,0.445,5.716,1.248,4.027,7.198
			c3.583,0,6.917-0.012,10.25,0.002c9.836,0.042,19.674,0.132,29.51,0.135c9.664,0.001,19.329-0.173,28.992-0.107
			c16.269,0.112,32.537,0.466,48.806,0.505c13.872,0.034,27.745-0.253,41.618-0.36c13.972-0.108,27.945-0.191,41.918-0.246
			c9.824-0.038,19.647-0.048,29.472-0.005c15.693,0.067,31.405,0.654,47.069,0.029c5.253-0.209,10.382,0.144,15.566,0.277
			c7.304,0.187,14.606,0.563,21.911,0.566c9.639,0.004,19.278-0.306,28.918-0.417c8.586-0.1,17.172-0.148,25.759-0.153
			c5.71-0.003,11.421,0.158,17.132,0.156c7.855-0.003,15.711-0.078,23.566-0.146c7.179-0.062,14.361-0.357,21.533-0.167
			c5.145,0.135,6.334,1.898,6.246,7.278c-0.091,5.556,0.011,11.116-0.104,16.671c-0.024,1.181-0.664,2.339-0.948,3.526
			c-0.188,0.783-0.489,1.654-0.317,2.387c0.509,2.172,0.074,3.436-2.439,3.386c-3.465-0.07-3.465-0.043-3.987,2.16
			c-2.126-0.637-4.194-1.708-6.298-1.784c-3.418-0.122-6.861,0.604-10.289,0.567c-1.453-0.017-2.894-1.058-4.813-1.82
			c-4.197,3.477-4.675,3.399-8.017-2.014c-1.492,2.41-2.795,5.053-6.439,2.791c-0.834-0.518-2.454-0.652-3.258-0.184
			c-3.427,2-5.081,0.005-6.779-2.795c-0.654,3.271-2.316,3.766-5.396,3.11c-2.501-0.531-5.321,0.358-7.988,0.704
			c-3.386,0.439-6.092,0-5.914-4.349c-1.831,0.525-3.45,0.992-5.543,1.593c-1,1.123-2.489,2.794-4.413,4.953
			c-1.428-3.473-2.677-4.175-5.877-2.863c-3.046,1.249-6.929,0.437-10.442,0.566c-1.523,0.057-3.074,0.448-4.557,0.256
			c-2.321-0.301-4.577-1.096-6.896-1.434c-1.364-0.198-2.813,0.235-4.197,0.107c-1.608-0.148-3.19-0.601-4.784-0.922
			c-0.066-0.4-0.134-0.802-0.201-1.202c-1.015,1.757-2.031,3.514-3.276,5.668c-1.299-2.14-2.56-4.218-4.138-6.818
			c-1.233,2.479-2.386,4.793-3.652,7.335c-1.204-0.722-2.615-2.966-4.048,0.057c-0.192-1.143-0.385-2.285-0.595-3.531
			c-4.617,0.407-9.237,2.335-13.553-0.926c-0.486-0.367-1.903,0.186-2.676,0.659c-0.336,0.205-0.357,1.374-0.138,1.961
			c1.208,3.228-0.485,4.453-3.591,5.224c-0.139-2.331-0.265-4.47-0.418-7.063c-2.211,0.233-4.899,0.518-7.98,0.843
			c-1.21-2.283-3.534-1.468-6.216-0.87c-1.421,0.316-3.328-0.768-4.727-1.668c-0.354-0.229,0.393-2.172,0.8-4.122
			c-1.655,1.193-3.235,2.331-4.861,3.504c-0.367-0.389-0.914-0.968-1.485-1.572c-3.023,3.872-5.015,4.31-9.544,3.049
			c-1.766-0.492-3.84-0.3-5.689,0.039c-2.647,0.484-4.756,0.124-5.717-1.515c-2.146,0.327-3.889,0.597-5.632,0.857
			c-1.941,0.291-3.888,0.821-5.826,0.792c-1.852-0.029-4.799-0.07-5.335-1.105c-1.596-3.087-5.033-3.066-7.281-5.97
			c-0.1,1.426-0.146,2.09-0.182,2.586c-2.286,0-4.627-0.072-6.961,0.017c-3.659,0.14-7.312,0.501-10.97,0.557
			c-2.659,0.041-3.662,1.02-2.821,3.141c-2.365,0.775-4.609,1.807-6.958,2.179c-1.629,0.259-3.398-0.407-5.109-0.633
			c-2.354-0.312-4.733-0.49-7.062-0.938c-1.438-0.275-2.802-0.944-4.874-1.675c2.02-1.748,3.135-2.713,5.236-4.531
			c-2.54,0-5.26-0.442-5.46,0.08c-0.712,1.86-0.566,4.048-0.747,6.117c-0.735-0.037-2.035-0.103-3.149-0.16
			c0.391-1.805,0.819-3.776,1.247-5.749c-0.337-0.085-0.672-0.171-1.008-0.257c-4.679,5.318-10.21,0.368-14.663,1.335
			c-1.284,1.238-2.259,2.178-3.234,3.117c-0.221-1.235-0.441-2.473-0.579-3.24c-3.096-0.673-6.446-1.901-9.817-1.963
			c-2.417-0.044-4.863,1.474-6.782,2.121c-0.142,1.688-0.236,2.826-0.331,3.964c-0.331-0.018-0.662-0.034-0.993-0.052
			c-0.811-1.402-1.622-2.804-2.434-4.205c0.321,3.245-0.17,4.904-3.899,3.878c-0.965-0.265-2.259,0.665-3.988,1.24
			c0.913-1.537,1.607-2.706,2.303-3.875c-0.17-0.332-0.339-0.664-0.508-0.997c-2.929,1.56-5.825,3.184-8.803,4.641
			c-0.945,0.462-2.136,0.75-3.166,0.646c-3.59-0.362-7.149-1.053-10.743-1.342c-0.942-0.076-1.965,0.849-2.97,1.322
			c-2.047-1.814-4.115-3.648-5.782-5.127c-2.442,2.037-4.168,3.478-6.518,5.438c0.398-1.648,0.601-2.487,0.939-3.884
			c-5.636,4.316-11.615,3.067-17.43,2.957c-0.588-0.011-1.435-0.204-1.725,0.102c-2.804,2.962-5.197,2.068-6.527,0.315
			c-6.068,0-11.22,0-16.724,0c0.58-1.107,0.993-1.895,1.387-2.648c-2.636-0.618-5.079-1.191-7.768-1.822
			c-1.046,0.804-2.677,2.654-4.72,3.443c-1.77,0.685-4.01,0.066-6.032,0.202c-3.052,0.205-6.093,0.578-9.14,0.854
			c-0.941,0.086-1.889,0.095-2.563,0.125c-0.297-1.963-0.546-3.603-0.726-4.786c-2.632,0-4.584,0-7.11,0
			c1.113,0.923,1.883,1.562,3.634,3.012c-2.129,0.531-3.643,1.344-4.891,1.046c-0.669-0.16-0.881-2.23-1.468-3.926
			c-0.545,0.515-1.538,1.451-2.504,2.363c-2.762-3.364-9.13-4.354-12.126-0.685c-2.223,2.721-5.178,2.275-7.029,3.538
			c0.27,1.582,0.502,2.936,0.734,4.29l0.073-0.091c-1.668,0.371-3.335,0.741-5.271,1.172c0.073-0.854,0.308-2.331,0.29-3.804
			c-0.014-1.116-0.353-2.229-0.546-3.344c-0.284,0.429-0.567,0.857-0.851,1.286c-1.737,0-3.485,0.12-5.209-0.033
			c-1.875-0.166-3.728-0.587-5.884-0.945c0.068-0.357,0.199-1.046,0.341-1.793c-0.423-0.104-0.797-0.285-0.873-0.2
			c-3.544,3.964-8.173,1.95-12.362,2.217c-2.631,0.167-5.281,0.031-8.025,0.031c0.483-2.935,2.305-3.652,5.065-3.241
			c0.878,0.132,1.852-0.381,2.781-0.599c-0.083-0.384-0.166-0.769-0.248-1.152c-2.318,0.259-4.673,0.906-6.945,0.692
			c-4.012-0.379-3.975,1.766-2.84,5.544c-6.175-1.053-11.625-1.982-17.076-2.913c0.055-0.384,0.109-0.769,0.164-1.152
			c-1.669,1.025-3.338,2.05-4.968,3.051c-0.981-0.771-1.916-1.506-2.896-2.276c-1.012,2.807-7.911,2.587-11.002-0.178
			c2.647,0.208,2.647,0.208,2.836-2.262C53.902,249.571,50.324,247.51,50.18,252.513z M330.217,45.449
			c10.193,9.683,14.453,20.717,12.785,34.158c1.779,0,3.139,0.157,4.453-0.024c14.728-2.022,29.444-4.128,44.171-6.149
			c11.623-1.595,23.246-3.187,34.892-4.588c2.798-0.337,3.819-1.313,3.78-4.188c-0.164-11.965-0.126-23.932-0.152-35.898
			c-0.013-5.701-0.002-11.403-0.002-17.458c-1.345,0.235-2.238,0.208-2.958,0.549c-2.878,1.364-5.574,3.225-8.567,4.209
			c-9.681,3.183-19.457,6.079-29.209,9.044c-3.562,1.083-7.223,1.865-10.73,3.095c-13.032,4.569-26.019,9.269-39.023,13.914
			C336.546,43.224,333.429,44.315,330.217,45.449z M149.761,106.772c0.035,0.403,0.071,0.807,0.107,1.209
			c1.268,0.056,2.571,0.327,3.798,0.128c3.046-0.491,6.032-1.378,9.085-1.784c10.734-1.424,21.499-2.606,32.225-4.083
			c10.194-1.403,20.352-3.066,30.526-4.603c9.712-1.467,19.42-2.951,29.139-4.367c10.427-1.52,20.863-2.987,31.299-4.444
			c9.741-1.361,19.509-2.545,29.225-4.062c7.293-1.138,14.926-0.283,21.797-4.16c2.304-1.3,3.362-2.717,3.42-5.118
			c0.22-9.098-2.887-17.074-9.218-23.422c-2.064-2.069-4.005-5.862-8.251-4.539c-4.204,1.31-8.76,2.009-12.518,4.121
			c-7.266,4.083-15.689,4.429-23.093,8.41c-6.78,3.645-15.028,3.944-22.189,7.677c-6.621,3.452-14.092,5.315-21.26,7.665
			c-11.403,3.738-22.892,7.218-34.292,10.966c-5.95,1.957-11.762,4.333-17.687,6.374c-5.397,1.859-10.882,3.463-16.29,5.292
			c-3.365,1.138-6.624,2.593-9.992,3.72C160.344,103.509,155.041,105.107,149.761,106.772z M124.175,128.705
			c1.545,2.953,3.047,5.687,4.419,8.486c1.536,3.135,3.012,5.975,1.79,10.002c-1.727,5.688-2.406,11.813,2.356,16.783
			c0.604,0.63,2.007,0.804,2.983,0.692c1.482-0.17,2.915-0.776,4.368-1.196c3.664-3.412,2.132-18.316-2.434-23.721
			c-0.287,2.169-0.54,4.09-0.835,6.334c-5.057-3.122-3.508-7.974-4.267-11.818C131.696,129.914,129.988,128.069,124.175,128.705z
			 M206.626,250.561c-0.069-0.333-0.139-0.667-0.209-1c-2.079,0-4.171-0.13-6.226,0.089c-0.539,0.057-0.963,1.197-1.44,1.84
			c0.612,0.449,1.358,1.389,1.813,1.264C202.628,252.187,204.612,251.319,206.626,250.561z"/>
		<path fill-rule="evenodd" clip-rule="evenodd" d="M406.789,280.324c-1.639-2.48-3.254-4.927-4.869-7.373
			c0.284-0.442,0.568-0.885,0.854-1.327c3.809,1.374,7.627,2.729,11.425,4.134c1.794,0.663,3.496,1.656,5.336,2.099
			c5.028,1.21,10.122,2.142,15.15,3.349c0.873,0.209,2.304,1.565,2.192,1.813c-0.489,1.082-1.385,2.709-2.248,2.782
			c-9.448,0.806-18.03,4.254-26.522,8.122c-1.425,0.649-3.162,0.617-4.752,0.9c-0.516-1.876-0.516-1.876,5.991-9.104
			c-4.222,0-7.62,0.005-11.019-0.001c-32.96-0.052-65.919-0.137-98.879-0.146c-17.595-0.004-35.19,0.153-52.786,0.18
			c-11.324,0.017-22.649,0.018-33.971-0.157c-4.324-0.065-8.644-0.951-12.959-0.902c-5.455,0.062-10.92,1.146-16.349,0.943
			c-4.578-0.172-9.096-0.335-13.653,0.177c-1.46,0.163-3.218,0.24-4.428-0.409c-3.949-2.12-7.441-0.351-11.15,0.67
			c2.064,2.282,4.053,4.481,6.042,6.68c-0.252,0.378-0.505,0.757-0.757,1.135c-0.916,0-1.902,0.229-2.735-0.035
			c-8.328-2.628-16.629-5.344-24.943-8.019c-1.536-0.494-3.177-0.749-4.608-1.444c-0.681-0.331-1.423-1.504-1.325-2.178
			c0.087-0.599,1.234-1.318,2.021-1.492c4.931-1.091,9.991-1.715,14.813-3.151c3.538-1.054,6.696-3.327,10.18-4.641
			c2.031-0.766,4.37-0.712,6.57-1.026c0.144,0.373,0.288,0.748,0.431,1.122c-1.792,2.379-3.583,4.756-5.909,7.845
			c5.884,0,11.421,0.01,16.96-0.002c29.24-0.06,58.48-0.231,87.72-0.155c24.589,0.064,49.178,0.532,73.768,0.595
			c14.726,0.038,29.451-0.379,44.177-0.558c9.727-0.118,19.453-0.173,29.18-0.269C406.187,280.476,406.635,280.349,406.789,280.324z
			"/>
		<path fill-rule="evenodd" clip-rule="evenodd" d="M510.069,79.605c2.301,2.188,4.603,4.375,6.903,6.563
			c0.359-0.177,0.719-0.355,1.078-0.533c0-16.83,0-33.66,0-50.491c-0.375-0.198-0.748-0.396-1.122-0.594
			c-1.577,1.708-3.114,3.455-4.751,5.103c-0.531,0.535-1.322,0.813-1.994,1.207c-0.24-0.754-0.833-1.604-0.658-2.244
			c0.791-2.881,1.823-5.695,2.727-8.547c2.219-7.004,4.405-14.019,6.636-21.019c0.216-0.678,0.646-1.287,1.162-2.289
			c3.758,11.45,7.383,22.498,11.009,33.545c-0.384,0.167-0.767,0.335-1.15,0.503c-3.057-1.464-3.831-6.326-8.439-5.879
			c0,16.865,0,33.648,0,50.415c4.818,1.027,5.231-4.4,9.082-6.336c-0.129,2.018,0.048,3.363-0.332,4.526
			c-2.923,8.945-5.992,17.841-8.882,26.796c-0.247,0.765,0.537,1.829,0.721,2.778c0.132,0.681,0.176,1.43,0.019,2.091
			c-0.059,0.245-0.962,0.582-1.202,0.432c-0.566-0.354-1.205-0.899-1.399-1.5c-2.236-6.921-4.369-13.875-6.587-20.802
			c-0.983-3.068-2.166-6.073-3.122-9.15c-0.417-1.34-0.488-2.787-0.717-4.185C509.389,79.865,509.729,79.735,510.069,79.605z"/>
		<path fill-rule="evenodd" clip-rule="evenodd" d="M274.132,475.917c1.464-9.092,2.8-18.207,4.444-27.268
			c0.923-5.089,2.132-10.159,3.718-15.075c0.405-1.255,2.727-2.683,4.177-2.691c24.743-0.157,49.486-0.104,74.229-0.091
			c0.623,0,1.368-0.145,1.844,0.138c0.873,0.517,1.588,1.301,2.368,1.974c-0.794,0.61-1.522,1.6-2.396,1.752
			c-1.951,0.343-3.976,0.356-5.971,0.35c-21.11-0.065-42.222-0.215-63.333-0.222c-7.702-0.002-7.611,0.161-9.083,7.807
			c-2.653,13.79-5.386,27.565-8.238,41.314c-0.2,0.966-1.759,2.438-2.492,2.332c-1.294-0.188-3.033-1.142-3.537-2.25
			c-1.677-3.692-2.745-7.658-4.362-11.382c-0.521-1.2-2.026-1.97-3.069-2.949c-0.562-0.527-1.341-1.004-1.551-1.655
			c-0.123-0.376,0.58-1.22,1.101-1.572c3.921-2.657,6.399-1.747,8.193,2.868c0.909,2.339,1.92,4.637,2.884,6.954
			C273.416,476.14,273.773,476.028,274.132,475.917z"/>
		<path fill-rule="evenodd" clip-rule="evenodd" d="M471.408,145.095c-2.388-2.262-4.775-4.525-7.164-6.787
			c-0.296,0.173-0.593,0.347-0.891,0.52c0,3.572,0.142,7.153-0.078,10.712c-0.074,1.204-1.06,2.351-1.628,3.524
			c-0.493-1.093-1.355-2.167-1.411-3.282c-0.18-3.665-0.066-7.343-0.066-11.017c-0.388-0.151-0.773-0.302-1.16-0.453
			c-2.108,2.046-4.219,4.093-7.207,6.992c0-2.447-0.369-4.013,0.063-5.313c1.927-5.796,4.27-11.459,6.063-17.293
			c0.719-2.338,0.411-4.992,0.563-7.502c0.007-0.12-0.116-0.297-0.066-0.356c0.586-0.711,1.247-2.04,1.785-1.995
			c2.337,0.198,4.64,0.798,6.954,1.252c-1.013,0.898-2.025,1.796-3.453,3.062c1.519,4.172,3.253,8.711,4.817,13.308
			c1.539,4.519,2.903,9.094,4.345,13.646C472.385,144.44,471.896,144.768,471.408,145.095z"/>
		<path fill-rule="evenodd" clip-rule="evenodd" d="M450.378,35.811c1.913,3.262,3.827,6.524,5.74,9.786
			c0.864-0.66,1.729-1.32,2.592-1.979c0-5.218,0-10.435,0-15.652c0.523-0.059,1.047-0.117,1.571-0.175
			c2.624,4.5,0.746,9.889,2.093,15.558c2.677-2.422,5.032-4.551,7.728-6.988c0.037,0.813,0.398,2.102,0.096,3.208
			c-2.017,7.34-4.203,14.634-6.267,21.962c-0.472,1.673-0.433,3.521-1.082,5.103c-0.613,1.498-1.708,2.861-2.837,4.05
			c-0.348,0.366-1.502-0.032-2.287-0.082c0.116-0.757-0.044-1.838,0.397-2.216c1.675-1.434,1.416-2.823,0.665-4.645
			c-3.116-7.558-6.103-15.17-9.071-22.787c-0.498-1.275-0.674-2.677-0.997-4.02C449.271,36.56,449.825,36.185,450.378,35.811z"/>
		<path fill-rule="evenodd" clip-rule="evenodd" d="M392.811,397.222c2.806,1.337,5.338,3.341,7.862,0.177
			c2.77-3.469,2.576-5.58-0.156-8.973c-0.688-0.854-0.629-2.311-0.913-3.49c1.365,0.017,2.841-0.28,4.062,0.147
			c1.062,0.372,1.836,1.565,2.844,2.493c0.714-0.84,1.26-2.014,2.141-2.382c1.029-0.431,2.353-0.157,3.548-0.19
			c-0.304,1.267-0.189,3.175-0.982,3.694c-4.434,2.895-4.787,5.43-1.174,9.216c0.451,0.473,0.007,2.779-0.574,3.049
			c-1.145,0.533-2.803,0.583-4.003,0.15c-0.788-0.284-1.145-1.764-1.821-2.923c-1.458,1.175-2.547,2.446-3.928,3.048
			c-1.303,0.568-2.909,0.484-4.389,0.58c-0.985,0.064-1.997,0.027-2.975-0.115c-3.907-0.573-7.694,0.065-11.578,0.508
			c-2.928,0.333-4.439-4.64-3.01-8.588c2.095-5.786,8.281-9.466,14.566-9.264c2.917,0.094,3.129,1.342,2.656,3.493
			C394.323,390.872,393.591,393.877,392.811,397.222z M388.067,386.144c-2.225,2.853-4.389,5.339-6.173,8.073
			c-0.604,0.926-0.754,2.854-0.176,3.633c0.493,0.666,2.482,0.774,3.532,0.384C389.956,396.483,391.555,390.157,388.067,386.144z"/>
		<path fill-rule="evenodd" clip-rule="evenodd" d="M244.054,384.346c0.548-0.081,1.96-0.29,3.696-0.546
			c0.287,1.409,0.523,2.57,0.776,3.808c0.915-0.7,1.71-1.692,2.712-1.993c1.869-0.561,3.858-0.719,5.797-1.045
			c0.21,2.132,0.735,4.293,0.541,6.388c-0.188,2.021-1.116,3.972-2.123,7.279c4.413-2.467,7.219,0.487,10.438,1.214
			c0.355-0.352,0.711-0.704,1.067-1.056c-1.083-2.171-2.324-4.279-3.198-6.531c-0.663-1.709-1.503-3.786-1.048-5.344
			c0.33-1.128,2.598-1.809,4.111-2.418c0.733-0.296,1.763-0.124,2.578,0.111c1.333,0.384,3.368,0.691,3.718,1.579
			c0.521,1.32-0.168,3.117-0.343,4.711c-0.43,0.121-0.859,0.242-1.289,0.364c-1.24-1.478-2.48-2.955-3.708-4.418
			c-2.1,2.085-2.095,2.279,0.108,4.488c3.383,3.394,3.893,7.008,1.333,9.471c-2.875,2.768-8.063,2.596-10.973-0.363
			c-0.234,0.083-0.464,0.188-0.703,0.251c-1.776,0.476-3.556,0.942-5.334,1.412c-0.172-1.865-0.706-3.786-0.429-5.582
			c0.385-2.51,1.374-4.928,2.428-8.471c-4.063,3.317-7.929,5.123-8.986,9.844c-0.351,1.567-1.751,2.9-2.672,4.341
			c-0.546-0.18-1.093-0.359-1.64-0.539C241.917,395.871,242.924,390.442,244.054,384.346z"/>
		<path fill-rule="evenodd" clip-rule="evenodd" d="M308.147,381.61c0.095,6.925-2.707,13.097-7.462,17.46
			c-5.215,4.785-8.65,6.057-12.682-1.587c-0.426-0.809-0.822-2.06-0.497-2.77c2.686-5.878,2.622-13.242,8.518-17.346
			c2.188-1.523,5.33-2.714,7.865-2.444C307.296,375.286,308.119,377.418,308.147,381.61z M301.177,391.351
			c-7.602-1.658-9.38-0.491-8.85,5.202c0.081,0.862,0.557,2.179,1.159,2.385c0.866,0.296,2.474,0.135,2.96-0.475
			C298.159,396.318,299.527,393.899,301.177,391.351z M294.667,384.571c0.293,0.381,0.586,0.762,0.88,1.143
			c1.707,0.101,3.478,0.515,5.098,0.188c1.009-0.204,2.318-1.401,2.554-2.38c0.376-1.562-0.028-3.312-0.102-4.982
			c-1.334,0.252-3.018,0.086-3.927,0.846C297.437,380.835,296.143,382.813,294.667,384.571z"/>
		<path fill-rule="evenodd" clip-rule="evenodd" d="M448,396.156c0.762,1.514,1.889,3.45,1.758,3.539
			c-1.583,1.076-3.352,1.881-5.071,2.756c-0.443-1.268-1.352-2.58-1.233-3.793c0.259-2.638,1.041-5.226,1.753-8.491
			c-3.659,1.08-5.078,3.505-6.291,6.097c-0.308,0.658-0.086,1.689-0.526,2.135c-1.106,1.118-2.452,1.999-3.701,2.975
			c-0.064-1.316-0.348-2.668-0.145-3.941c0.403-2.534,1.074-5.026,1.831-8.411c-2.937,2.063-5.127,3.85-6.173,6.741
			c-0.505,1.396-0.604,2.975-1.294,4.251c-0.435,0.806-1.621,1.205-2.471,1.786c-0.343-0.949-1.089-1.962-0.95-2.836
			c0.387-2.45,1.19-4.832,1.725-7.264c0.286-1.307,0.3-2.671,0.541-3.989c0.2-1.099,0.278-2.844,0.902-3.1
			c1.051-0.43,2.495,0.077,3.771,0.22c0.824,0.093,1.794,0.585,2.439,0.305c3.847-1.674,5.023-1.256,6.666,2.764
			c0.907-0.842,1.658-2,2.699-2.398c1.49-0.57,3.677-1.311,4.674-0.643c1.065,0.712,1.672,3.063,1.443,4.54
			C449.973,391.81,448.76,394.092,448,396.156z"/>
		<path fill-rule="evenodd" clip-rule="evenodd" d="M188.726,388.353c-4.005,1.409-5.578,3.875-6.586,6.838
			c-0.436,1.277-0.455,2.824-1.218,3.825c-0.734,0.964-2.185,1.381-3.32,2.038c-0.262-1.101-0.945-2.306-0.703-3.281
			c0.709-2.854,1.886-5.591,2.676-8.43c0.376-1.354,0.29-2.838,0.487-5.114c1.079,0.227,2.382,0.633,3.707,0.733
			c0.951,0.071,1.983-0.124,2.893-0.445c3.437-1.213,4.896-0.512,5.867,3.023c1.198-0.81,2.289-1.859,3.589-2.336
			c1.368-0.502,3.935-1.039,4.23-0.536c0.845,1.439,1.431,3.589,0.973,5.114c-0.864,2.87-2.168,5.408-0.536,8.533
			c0.239,0.458-2.344,2.39-3.621,3.639c-0.866-0.915-2.518-1.897-2.445-2.731c0.179-2.076,1.22-4.065,1.76-6.131
			c0.285-1.089,0.245-2.263,0.352-3.399c-1.026,0.429-2.495,0.571-2.992,1.342c-1.347,2.087-2.099,4.559-3.443,6.647
			c-0.86,1.337-2.431,3.27-3.545,3.182c-2.726-0.215-1.637-2.483-1.081-4.046c0.643-1.806,1.574-3.507,2.28-5.294
			C188.357,390.746,188.415,389.869,188.726,388.353z"/>
		<path fill-rule="evenodd" clip-rule="evenodd" d="M370.637,389.561c-6.506,1.879-5.832,9.073-10.616,12.563
			c-2.046-4.621,1.78-8.325,0.875-13.006c-1.257,0.972-2.665,1.571-3.269,2.63c-1.204,2.11-2.201,4.408-2.853,6.749
			c-0.777,2.795-2.181,3.182-4.538,2.027c1.059-5.347,2.085-10.524,3.167-15.981c-0.122,0.082,0.096-0.192,0.278-0.17
			c3.413,0.411,6.769,1.065,10.256-0.014c0.76-0.234,2.098,1.4,2.395,1.615c2.998-0.548,5.411-0.989,7.825-1.431
			c0.013,2.724,0.462,5.54-0.09,8.144c-0.495,2.333-1.335,4.289,1.641,5.947c-0.963,0.829-1.657,1.8-2.583,2.136
			c-1.388,0.503-2.938,0.56-4.421,0.807c-0.033-1.541-0.308-3.123-0.044-4.61C369.066,394.678,369.841,392.456,370.637,389.561z"/>
		<path fill-rule="evenodd" clip-rule="evenodd" d="M21.184,400.716c3.67-7.117,5.554-14.556,6.083-22.061
			c0.245-3.472,1.586-3.307,3.661-3.366c1.986-0.057,3.981,0.271,5.968,0.23c2.929-0.059,4.468,1.417,5.477,4.041
			c0.999,2.6-0.01,4.378-1.892,5.849c-1.683,1.315-1.916,2.333-0.608,4.283c3.216,4.802,0.828,10.143-4.872,10.984
			c-3.896,0.576-7.867,0.69-11.811,0.871C22.463,401.581,21.707,400.946,21.184,400.716z M26.483,398.456
			c4.56,1.429,7.469,0.332,9.699-2.281c1.441-1.689,2.094-4.096-0.365-5.293c-1.735-0.844-5.149-1.438-5.855-0.563
			C28.23,392.463,27.631,395.523,26.483,398.456z M30.726,385.092c0.225,0.368,0.451,0.736,0.676,1.105
			c2.352-0.926,4.817-1.656,6.98-2.906c0.579-0.334,0.708-3.026,0.236-3.314c-1.719-1.05-3.779-1.541-5.782-2.269
			C31.97,380.739,31.348,382.915,30.726,385.092z"/>
		<path fill-rule="evenodd" clip-rule="evenodd" d="M512.179,400.247c-2.353,1.502-4.511,4.23-7.225,0.536
			c-0.153-0.21-1.734,0.508-2.57,0.947c-1.193,0.63-2.313,1.401-3.434,2.092c-5.554-4.998-5.495-10.169,0.051-14.6
			c0.471-0.375,0.998-0.818,1.219-1.346c1.392-3.333,4.094-4.108,7.294-3.7c2.269,0.289,3.309-0.528,3.296-2.803
			c-0.007-1.364-0.137-2.785,0.195-4.076c0.205-0.795,1.121-1.889,1.813-1.963c0.962-0.103,2.15,0.45,2.955,1.086
			c0.31,0.244-0.096,1.505-0.299,2.27c-1.562,5.875-3.262,11.718-4.636,17.637C510.589,397.396,511.638,398.767,512.179,400.247z
			 M507.573,388.032c-5.182,0.013-8.172,4.366-7.559,10.734C504.479,398.759,508.401,393.37,507.573,388.032z"/>
		<path fill-rule="evenodd" clip-rule="evenodd" d="M329.026,464.829c1.646-3.663,3.27-6.755,4.409-10.015
			c0.619-1.769,0.889-3.774,3.156-2.954c0.732,0.265,1.287,2.779,0.939,3.979c-1.64,5.646-3.502,11.235-5.534,16.753
			c-0.961,2.611-2.063,5.415-3.909,7.366c-1.097,1.16-3.76,0.961-5.734,1.051c-0.341,0.016-1.216-1.71-1.019-2.394
			c0.244-0.844,1.258-1.89,2.1-2.062c3.15-0.644,3.849-2.416,2.864-5.186c-1.793-5.043-3.71-10.043-5.388-15.123
			c-0.511-1.547-2.011-3.827,0.917-4.584c2.503-0.646,3.327,1.009,3.863,3.33C326.409,458.097,327.716,461.066,329.026,464.829z"/>
		<path fill-rule="evenodd" clip-rule="evenodd" d="M286.949,452.196c3.515-1.391,5.095-0.941,5.762,2.639
			c0.597,3.208,2.25,6.219,3.675,9.937c1.461-3.653,3.141-6.921,4.042-10.391c0.761-2.926,2.023-3.358,5.112-2.067
			c-1.615,4.975-3.051,9.944-4.854,14.776c-1.485,3.982-3.371,7.817-5.146,11.687c-1.254,2.736-4.764,3.773-5.754,1.671
			c-0.478-1.015-0.224-3.212,0.542-3.832c3.611-2.926,3.917-4.388,2.198-8.613C290.454,462.904,288.839,457.62,286.949,452.196z"/>
		<path fill-rule="evenodd" clip-rule="evenodd" d="M142.238,384.647c4.445-1.732,5.424-0.623,5.868,7.469
			c5.79,0.687,3.45-8.326,9.386-7.886c0,3.256,0,6.299,0,10.021c2.668-2.185,4.512-3.776,3.293-7.087
			c-0.277-0.754,0.902-2.044,1.41-3.087c0.866,0.76,2.328,1.426,2.465,2.301c0.234,1.494,0.075,3.387-0.694,4.637
			c-1.952,3.176-4.273,6.135-6.58,9.076c-0.693,0.883-1.826,1.42-3.614,2.756c-0.284-3.723-0.495-6.488-0.772-10.134
			c-1.001,1.285-1.696,2.009-2.189,2.85c-0.807,1.375-1.27,3.012-2.288,4.18c-0.676,0.773-2.182,1.404-3.101,1.188
			c-0.636-0.151-1.129-1.82-1.297-2.873C143.422,393.643,142.866,389.204,142.238,384.647z"/>
		<path fill-rule="evenodd" clip-rule="evenodd" d="M318.336,384.351c0.207-0.017,1.5-0.116,3.533-0.272
			c-0.23,2.506-0.374,4.649-0.653,6.774c-0.094,0.719-0.803,1.413-0.756,2.084c0.116,1.668,0.507,3.316,0.787,4.973
			c1.681-0.297,3.36-0.596,5.041-0.893c1.649,0.341,2.146,4.06,5.996,1.373c-0.715-1.323-1.192-3.032-2.297-4.081
			c-2.429-2.306-2.929-5.007-1.886-7.863c1.466-4.018,5.096-2.016,7.789-2.191c2.72-0.177,2.083,2.283,2.117,3.887
			c0.017,0.755-0.597,1.524-0.925,2.287c-0.754-0.499-1.599-0.905-2.238-1.523c-0.683-0.659-1.173-1.518-1.747-2.29
			c-0.332,0.099-0.666,0.196-0.998,0.295c0.26,1.356,0.1,3.037,0.853,4.014c3.613,4.689,4.098,7.6,1.26,10.051
			c-3.179,2.745-7.937,1.874-11.346-2.081c-0.24,0.043-0.505,0.036-0.715,0.141c-1.837,0.915-3.664,1.849-5.493,2.776
			c-0.171-1.968-0.673-3.977-0.441-5.896C316.655,392.271,317.515,388.681,318.336,384.351z"/>
		<path fill-rule="evenodd" clip-rule="evenodd" d="M198.359,452.103c3.843-1.677,5.435,0.509,7.048,2.69
			c0.601,0.814,1.271,1.577,1.91,2.362c0.786-0.834,1.974-1.54,2.286-2.523c1.062-3.362,3.328-3.498,7.272-2.64
			c-1.775,2.479-2.973,4.744-4.72,6.447c-2.278,2.223-2.366,6.105,0.272,8.023c0.29,0.21,0.884,0.188,0.993,0.429
			c0.719,1.595,1.447,3.203,1.9,4.881c0.077,0.285-1.48,1.462-1.732,1.31c-1.329-0.798-2.903-1.653-3.613-2.925
			c-1.872-3.351-2.547-3.553-5.125-0.692c-0.318,0.352-1.02,0.439-1.204,0.817c-0.934,1.904-2.129,3.813-4.352,2.299
			c-0.574-0.392-0.115-3.658,0.847-4.705c3.785-4.114,3.307-7.839-0.015-11.84C199.317,455.059,199.03,453.646,198.359,452.103z"/>
		<path fill-rule="evenodd" clip-rule="evenodd" d="M526.336,70.51c1.286-1.958,2.241-4.29,3.934-5.788
			c2.643-2.339,2.274-5.035,1.857-7.85c-0.248-1.673-0.724-3.327-1.246-4.942c-0.685-2.115-1.516-4.183-2.623-7.194
			c0.865-0.235,2.565-1.087,4.21-0.99c0.891,0.053,2.197,1.611,2.429,2.683c0.676,3.121,0.903,6.338,1.312,9.552
			c4.77-1.277,6.964-4.733,6.212-8.984c-0.166-0.939,0.548-2.033,0.855-3.055c0.872,1.015,2.685,2.363,2.462,2.99
			c-1.341,3.782-2.604,7.796-4.93,10.975c-3.223,4.404-7.338,8.161-11.134,12.136c-0.609,0.639-1.543,0.967-2.327,1.438
			C527.01,71.157,526.673,70.833,526.336,70.51z"/>
		<path fill-rule="evenodd" clip-rule="evenodd" d="M233.43,384.216c0.788,0,1.547-0.085,2.28,0.015
			c2.496,0.342,3.691,1.16,2.656,4.181c-1.135,3.31-3.779,6.69-1.016,10.521c0.189,0.263-0.571,1.691-1.149,1.921
			c-1.132,0.45-2.444,0.529-3.689,0.59c-1.476,0.071-3.125-0.469-4.408,0.021c-2.395,0.913-5.27,1.684-6.322-0.67
			c-1.029-2.305-0.705-5.502-0.139-8.126c0.365-1.69,2.378-2.966,3.404-4.584C227.048,384.923,229.711,383.427,233.43,384.216z
			 M225.59,399.765c2.367-1.379,5.28-2.079,6.117-3.793c1.337-2.74,4.281-6.016,0.768-9.278
			C227.298,388.948,224.215,392.438,225.59,399.765z"/>
		<path fill-rule="evenodd" clip-rule="evenodd" d="M356.522,481.81c-1.362,0.435-2.701,1.1-4.094,1.247
			c-1.844,0.195-3.743,0.11-5.595-0.088c-1.506-0.161-2.976-0.668-4.461-1.021c0.595-1.895,0.925-3.938,1.879-5.629
			c0.599-1.062,2.159-1.559,3.238-2.376c0.792-0.6,1.87-1.17,2.175-1.993c0.749-2.021,2.236-5.14,1.421-6.085
			c-1.703-1.975-4.25-0.801-6.005,1.166c-0.319,0.358-0.729,0.635-1.634,1.404c-0.399-1.246-1.146-2.31-0.887-2.99
			c0.898-2.351,1.575-5.565,4.751-5.367c2.562,0.159,6.286,0.892,7.315,2.646c2.663,4.542,1.545,8.287-1.26,10.665
			c-1.754,1.486-3.08,3.475-4.598,5.237c2.012,0.483,4.025,0.957,6.033,1.458c0.462,0.114,0.9,0.318,1.351,0.481
			C356.276,480.981,356.399,481.396,356.522,481.81z"/>
		<path fill-rule="evenodd" clip-rule="evenodd" d="M457.429,79.138c5.344-2.252,7.053-1.207,7.255,4.179
			c0.088,2.351,0.237,4.704,0.523,7.037c0.065,0.538,0.755,1.318,1.251,1.397c0.541,0.086,1.566-0.374,1.734-0.833
			c1.22-3.315,5.027-5.878,2.971-10.248c-0.227-0.482,1.038-2.29,1.813-2.44c0.761-0.147,2.264,0.855,2.569,1.676
			c0.44,1.185,0.592,2.949,0.004,3.969c-4.742,8.232-10.793,15.427-18.258,21.683c0.863-4.499,5.563-7.544,4.117-13.005
			C460.211,88.036,461.939,82.738,457.429,79.138z"/>
		<path fill-rule="evenodd" clip-rule="evenodd" d="M483.812,399.382c1.588-0.381,3.16-0.87,4.769-1.103
			c0.938-0.135,1.935,0.142,2.905,0.232c-0.602,0.702-1.127,1.498-1.832,2.077c-0.543,0.444-1.297,0.651-1.98,0.901
			c-1.846,0.677-4.231,2.377-5.454,1.768c-2.904-1.448-4.72-4.153-4.391-7.929c0.431-4.967,6.179-11.39,10.667-11.023
			c1.663,0.136,4.036,1.279,4.63,2.611c0.989,2.22,0.127,4.619-2.597,5.699c-1.368,0.543-2.852,0.962-4.018,1.807
			c-1.366,0.989-2.442,2.378-3.644,3.594C483.182,398.472,483.497,398.927,483.812,399.382z M483.14,391.143
			c0.39,0.558,0.779,1.117,1.168,1.675c1.632-1.326,3.264-2.653,4.896-3.979c-0.346-0.471-0.691-0.942-1.037-1.413
			C486.49,388.664,484.815,389.902,483.14,391.143z"/>
		<path fill-rule="evenodd" clip-rule="evenodd" d="M289.094,320.861c-1.27,1.02-2.888,2.556-4.752,3.688
			c-0.626,0.381-1.876-0.266-2.84-0.442c0.372-0.755,0.651-2.097,1.131-2.173c4.084-0.646,4.9-4.607,5.712-7.15
			c0.571-1.786-2.447-4.719-4.113-7.569c1.561-3.055,4.104-2.83,7.502,1.456c1.864-0.872,3.663-1.967,5.615-2.506
			c0.829-0.229,1.979,0.71,2.982,1.118c-0.602,1.082-0.964,2.814-1.847,3.141c-5.793,2.145-5.814,2.043-4.769,7.905
			c0.189,1.062,0.203,2.156,0.294,3.189c1.645-0.46,3.06-0.855,4.474-1.25c0.246,0.488,0.492,0.975,0.737,1.463
			c-1.919,1.1-3.771,2.839-5.784,3.053C292.283,324.905,290.866,322.551,289.094,320.861z"/>
		<path fill-rule="evenodd" clip-rule="evenodd" d="M467.461,399.199c2.763-0.588,5.054-1.075,7.995-1.701
			c-0.443,1.472-0.487,2.508-1.008,3.172c-1.451,1.854-10.308,2.787-11.992,1.171c-0.428-0.41-0.218-2.146,0.302-2.771
			c2.497-3.002,5.202-5.833,8.373-9.318c-2.886,0-5.127,0-7.492,0c0.11-4.11,2.067-5.519,5.503-5.368
			c1.366,0.06,2.829-0.349,4.086,0.018c1.376,0.401,3.499,1.339,3.606,2.243c0.147,1.243-0.974,3.386-2.111,3.896
			C471.018,392.201,469.267,395.221,467.461,399.199z"/>
		<path fill-rule="evenodd" clip-rule="evenodd" d="M127.754,396.701c2.578,4.7,6,0.081,8.884,1.202
			c-1.374,2.607-6.285,4.974-8.646,4.084c-3.322-1.252-4.41-3.766-3.654-7.181c1.414-6.394,4.537-11.444,10.613-10.719
			c1.509,0.181,3.551,1.184,4.106,2.385c0.444,0.958-0.621,3.237-1.686,4.133c-1.785,1.5-4.143,2.301-6.184,3.522
			C129.984,394.848,128.926,395.81,127.754,396.701z M129.522,391.414c5.581-1.512,6.138-2.583,3.566-5.096
			C131.881,388.044,130.702,389.729,129.522,391.414z"/>
		<path fill-rule="evenodd" clip-rule="evenodd" d="M216.793,397.472c-3.649,6.378-10.563,5.836-13.365-0.103
			c-0.155-0.329-0.363-0.818-0.232-1.067c1.895-3.609,3.398-7.565,5.972-10.614c1.227-1.452,4.5-1.401,6.874-1.532
			c0.777-0.042,2.36,1.525,2.322,2.294c-0.091,1.852-0.428,4.133-1.593,5.367c-1.201,1.272-3.605,1.322-5.279,2.269
			c-1.212,0.686-2.091,1.962-3.118,2.974c1.428,0.615,2.831,1.635,4.291,1.726C214.008,398.866,215.414,397.948,216.793,397.472z
			 M208.748,391.449c5.444-0.228,6.92-1.916,5.407-6.389C212.099,387.49,210.423,389.47,208.748,391.449z"/>
		<path fill-rule="evenodd" clip-rule="evenodd" d="M57.147,399.482c-2.717,0.817-5.52,2.453-8.123,2.181
			c-1.907-0.199-4.294-2.61-5.071-4.586c-0.597-1.516,0.691-4.044,1.653-5.85c2.376-4.467,3.786-7.771,8.618-7.084
			c1.479,0.21,3.614,0.917,4.09,1.995c0.99,2.245,0.344,4.735-2.083,6.03c-1.61,0.858-3.424,1.585-5.214,1.793
			c-2.192,0.255-3.098,1.414-2.361,3.134c0.388,0.906,2.176,1.633,3.358,1.673c1.476,0.051,2.978-0.688,4.469-1.086
			C56.704,398.283,56.926,398.883,57.147,399.482z M48.685,391.462c0.276,0.27,0.552,0.539,0.827,0.809
			c1.717-0.909,3.604-1.612,5.072-2.823c0.632-0.522,0.396-2.098,0.554-3.193c-0.933-0.098-2.362-0.622-2.713-0.216
			C50.999,387.69,49.902,389.629,48.685,391.462z"/>
		<path fill-rule="evenodd" clip-rule="evenodd" d="M72.71,390.641c-1.409-1.801-2.583-3.301-3.758-4.802
			c-0.343-0.022-0.688-0.044-1.031-0.065c-0.071,1.233-0.571,2.669-0.11,3.651c0.647,1.378,1.981,2.446,3.075,3.597
			c2.112,2.221,1.599,6.673-1.249,7.624c-2.456,0.82-5.214,0.927-7.837,0.912c-0.616-0.003-1.555-1.706-1.719-2.728
			c-0.111-0.69,0.874-1.557,1.368-2.345c0.763,0.549,1.466,1.225,2.303,1.615c0.99,0.461,2.095,0.678,3.15,1
			c0.228-0.941,0.895-2.063,0.598-2.788c-0.74-1.808-1.957-3.413-2.914-5.138c-2.174-3.922-0.508-6.933,3.883-7.076
			c0.374-0.012,0.748,0.002,1.123,0.002C75.283,384.091,75.782,384.952,72.71,390.641z"/>
		<path fill-rule="evenodd" clip-rule="evenodd" d="M104.943,394.604c2.714-2.277,4.324-4.075,3.331-7.154
			c-0.29-0.896,0.238-2.057,0.391-3.097c1.098,0.331,2.488,0.366,3.211,1.079c0.713,0.7,1.371,2.445,0.984,3.113
			c-2.06,3.557-4.29,7.048-6.818,10.284c-0.979,1.254-2.892,1.777-4.553,2.734c-1.362-6.068-2.557-11.388-3.791-16.88
			c3.286-1.392,4.446-0.697,5.205,3.505C103.267,390.195,104.131,392.109,104.943,394.604z"/>
		<path fill-rule="evenodd" clip-rule="evenodd" d="M312.943,468.203c-1.813-0.081-2.901-0.129-3.972-0.177
			c-0.349-3.035,3.907-6.959,8.035-6.927c0,2.657,0,5.331,0,8.005c0,3.601,0.17,7.215-0.114,10.793
			c-0.076,0.963-1.533,1.816-2.356,2.72c-0.531-0.975-1.47-1.929-1.52-2.928C312.833,475.989,312.943,472.274,312.943,468.203z"/>
		<path fill-rule="evenodd" clip-rule="evenodd" d="M548.828,54.746c3.873-5.059,6.251-5.515,9.105-1.509
			c0.911,1.278,1.481,4.23,0.75,4.966c-1.827,1.836-1.064,5.958-5.075,5.892c-0.451-0.007-0.923,1.251-1.829,2.568
			c1.823-0.183,2.923-0.292,5.112-0.512c-1.255,1.7-1.945,3.609-2.934,3.778c-2.207,0.378-4.563-0.111-6.857-0.248
			c0.806-1.77,1.36-3.724,2.488-5.259c1.141-1.553,3.212-2.467,4.197-4.076c0.876-1.431,0.822-3.432,1.18-5.18
			c-1.428-0.075-2.858-0.141-4.286-0.228C550.108,54.903,549.539,54.821,548.828,54.746z"/>
		<path fill-rule="evenodd" clip-rule="evenodd" d="M79.178,384.406c1.114-1.045,2.938-2.755,4.971-4.66
			c0.455,1.935,0.876,3.724,1.298,5.514c-0.247-0.129-0.493-0.258-0.739-0.387c-0.923,2.269-2.246,4.468-2.653,6.825
			c-0.373,2.167-2.095,4.829,0.837,6.778c0.145,0.096-0.315,1.804-0.843,2.07c-1.229,0.622-2.697,1.15-4.018,1.053
			c-0.651-0.048-1.781-1.646-1.682-2.411c0.393-3.064,1.202-6.075,1.819-9.112C78.504,388.424,78.763,386.756,79.178,384.406z"/>
		<path fill-rule="evenodd" clip-rule="evenodd" d="M454.998,404.332c-0.639-2.69-1.346-4.539-1.471-6.428
			c-0.262-3.991,3.139-7.479,1.821-11.767c-0.086-0.28,2.095-1.646,3.303-1.778c0.629-0.07,2.044,1.451,2.037,2.244
			c-0.019,1.816-0.909,3.609-1.042,5.441c-0.146,2.015,0.25,4.063,0.227,6.095c-0.009,0.848-0.287,1.855-0.806,2.497
			C458.229,401.675,457.092,402.473,454.998,404.332z"/>
		<path fill-rule="evenodd" clip-rule="evenodd" d="M121.88,398.771c-1.77,1.146-3.094,2.429-4.641,2.81
			c-0.683,0.168-2.578-1.478-2.595-2.324c-0.041-2.057,0.766-4.117,1.105-6.197c0.445-2.731,0.769-5.483,1.213-8.721
			c0.813,0,2.457,0,5.19,0c-0.877,2.485-1.401,4.741-2.441,6.728C118.351,393.664,118.792,396.533,121.88,398.771z"/>
		<path fill-rule="evenodd" clip-rule="evenodd" d="M421.881,399.565c-1.188,0.99-1.77,1.742-2.529,2.042
			c-0.939,0.372-2.185,0.745-2.998,0.404c-0.596-0.25-1.062-1.694-0.963-2.533c0.257-2.208,0.962-4.36,1.281-6.565
			c0.272-1.883,0.231-3.81,0.378-5.713c0.062-0.806-0.003-2.084,0.424-2.303c0.911-0.468,2.214-0.713,3.144-0.406
			c0.589,0.193,1.149,1.572,1.096,2.377c-0.107,1.589-0.459,3.228-1.057,4.704C419.498,394.431,418.427,397.163,421.881,399.565z"/>
		<path fill-rule="evenodd" clip-rule="evenodd" d="M486.858,87.032c-1.249,5.787-2.277,11.001-3.614,16.135
			c-0.155,0.597-2.029,1.015-3.082,0.969c-0.382-0.017-1.151-1.753-0.961-2.507c1.269-5.029,2.707-10.019,4.217-14.982
			c0.181-0.595,1.394-1.477,1.659-1.336C485.874,85.731,486.439,86.592,486.858,87.032z"/>
		<path fill-rule="evenodd" clip-rule="evenodd" d="M248.709,459.817c-6.722,0-13.445,0-20.168,0
			c-0.138-0.366-0.276-0.733-0.414-1.101c0.973-0.57,2.05-1.757,2.902-1.613c5.916,1.002,12.248-1.374,17.959,1.172
			C248.896,458.789,248.803,459.304,248.709,459.817z"/>
		<path fill-rule="evenodd" clip-rule="evenodd" d="M248.631,466.557c-6.544,0-13.089,0-20.713,0
			c1.278-1.35,2.079-2.819,2.688-2.743c6.003,0.74,12.291-0.697,18.119,1.395C248.694,465.657,248.663,466.107,248.631,466.557z"/>
		<path fill-rule="evenodd" clip-rule="evenodd" d="M514.677,398.705c1.37,0.314,3.362,0.181,3.929,1.015
			c1.646,2.422-0.129,5.771-3.929,7.449C514.677,404.665,514.677,402.373,514.677,398.705z"/>
		<path fill-rule="evenodd" clip-rule="evenodd" d="M433.459,120.643c-0.074-2.948-0.199-5.897-0.159-8.845
			c0.005-0.379,0.852-1.01,1.341-1.043c0.455-0.031,1.384,0.601,1.369,0.905c-0.144,3.006,1.522,6.292-1,8.959
			C434.493,120.627,433.976,120.635,433.459,120.643z"/>
		<path fill-rule="evenodd" clip-rule="evenodd" d="M434.037,272.175c-0.284-2.607-0.746-4.718-0.63-6.795
			c0.049-0.883,1.311-1.697,2.021-2.544c0.545,0.556,1.565,1.122,1.552,1.664c-0.061,2.448-0.413,4.891-0.694,7.675
			C435.781,272.175,434.754,272.175,434.037,272.175z"/>
		<path fill-rule="evenodd" clip-rule="evenodd" d="M130.112,272.61c-2.779-0.312-5.21,0.499-4.718-2.636
			c0.162-1.03,1.426-2.746,2.081-2.698C131.041,267.534,129.008,270.322,130.112,272.61z"/>
		<path fill-rule="evenodd" clip-rule="evenodd" d="M476.159,147.53c-0.262,3.671-1.796,5.229-5.548,4.967
			C471.766,149.866,472.042,147.019,476.159,147.53z"/>
		<path fill-rule="evenodd" clip-rule="evenodd" d="M129.887,259.352c-0.16,2.067,0,4.245-0.659,6.14
			c-0.22,0.635-2.523,0.546-3.875,0.787c-0.125-0.297-0.248-0.594-0.373-0.891c1.656-2.038,3.313-4.075,4.975-6.119
			C129.96,259.261,129.887,259.352,129.887,259.352z"/>
		<path fill-rule="evenodd" clip-rule="evenodd" fill="#FFFFFF" d="M50.18,252.513c0.145-5.003,3.722-2.941,6.26-3.151
			c-0.189,2.47-0.189,2.47-2.836,2.262C52.454,251.92,51.316,252.216,50.18,252.513z"/>
		<path fill-rule="evenodd" clip-rule="evenodd" d="M130.92,276.443c-1.549,1.212-2.359,2.225-3.35,2.453
			c-0.464,0.107-1.929-1.462-1.798-1.986c0.281-1.121,1.305-2.056,2.024-3.067C128.586,274.499,129.375,275.156,130.92,276.443z"/>
		<path fill-rule="evenodd" clip-rule="evenodd" d="M569.681,258.275c-2.335,2.148-4.023,4.874-7.53,2.141
			c0.63-1.02,1.189-1.929,1.492-2.417C565.656,258.092,567.357,258.169,569.681,258.275z"/>
		<path fill-rule="evenodd" clip-rule="evenodd" d="M432.551,278.154c0.999-1.018,1.997-2.036,2.995-3.054
			c0.429,0.866,1.422,2.236,1.182,2.506c-0.778,0.873-2.01,1.341-3.066,1.964C433.291,279.099,432.921,278.627,432.551,278.154z"/>
		<path fill-rule="evenodd" clip-rule="evenodd" d="M435.019,213.029c0.949,1.35,1.862,2.119,1.725,2.56
			c-0.331,1.066-1.154,1.978-1.779,2.952c-0.49-0.696-1.372-1.392-1.373-2.088C433.591,215.553,434.295,214.653,435.019,213.029z"/>
		<path fill-rule="evenodd" clip-rule="evenodd" fill="#FFFFFF" d="M330.217,45.449c3.212-1.134,6.329-2.225,9.438-3.336
			c13.005-4.646,25.991-9.345,39.023-13.914c3.508-1.23,7.169-2.012,10.73-3.095c9.752-2.965,19.528-5.861,29.209-9.044
			c2.993-0.984,5.689-2.845,8.567-4.209c0.72-0.341,1.613-0.314,2.958-0.549c0,6.055-0.011,11.756,0.002,17.458
			c0.026,11.966-0.012,23.934,0.152,35.898c0.039,2.875-0.982,3.851-3.78,4.188c-11.646,1.401-23.269,2.993-34.892,4.588
			c-14.727,2.021-29.443,4.126-44.171,6.149c-1.314,0.181-2.674,0.024-4.453,0.024C344.67,66.167,340.41,55.132,330.217,45.449z"/>
		<path fill-rule="evenodd" clip-rule="evenodd" fill="#FFFFFF" d="M149.761,106.772c5.28-1.665,10.583-3.263,15.833-5.02
			c3.368-1.126,6.626-2.582,9.992-3.72c5.408-1.829,10.893-3.433,16.29-5.292c5.925-2.041,11.736-4.417,17.687-6.374
			c11.4-3.748,22.889-7.228,34.292-10.966c7.167-2.349,14.639-4.213,21.26-7.665c7.161-3.733,15.409-4.032,22.189-7.677
			c7.404-3.981,15.828-4.327,23.093-8.41c3.758-2.112,8.313-2.812,12.518-4.121c4.246-1.324,6.187,2.469,8.251,4.539
			c6.331,6.348,9.438,14.324,9.218,23.422c-0.058,2.4-1.116,3.818-3.42,5.118c-6.871,3.877-14.504,3.022-21.797,4.16
			c-9.716,1.517-19.484,2.701-29.225,4.062c-10.437,1.458-20.872,2.925-31.299,4.444c-9.719,1.417-19.427,2.9-29.139,4.367
			c-10.175,1.537-20.333,3.2-30.526,4.603c-10.726,1.477-21.491,2.659-32.225,4.083c-3.053,0.405-6.04,1.292-9.085,1.784
			c-1.227,0.199-2.53-0.072-3.798-0.128C149.832,107.579,149.796,107.175,149.761,106.772z M315.583,69.707
			c1.525-4.87-2.376-8.088-4.325-11.928c-1.134-2.236-6.095-1.682-7.771,0.3c-4.749,5.607-4.244,12.009-2.762,18.419
			c1.083,4.683,6.528,6.302,10.428,3.685C314.924,77.652,316.135,74.205,315.583,69.707z"/>
		<path fill-rule="evenodd" clip-rule="evenodd" fill="#FFFFFF" d="M124.175,128.705c5.813-0.636,7.521,1.209,8.381,5.562
			c0.759,3.844-0.79,8.696,4.267,11.818c0.295-2.244,0.548-4.165,0.835-6.334c4.566,5.404,6.098,20.309,2.434,23.721
			c-1.454,0.42-2.886,1.026-4.368,1.196c-0.976,0.112-2.379-0.063-2.983-0.692c-4.762-4.97-4.083-11.095-2.356-16.783
			c1.222-4.027-0.254-6.867-1.79-10.002C127.223,134.392,125.72,131.657,124.175,128.705z"/>
		<path fill-rule="evenodd" clip-rule="evenodd" fill="#FFFFFF" d="M206.626,250.561c-2.014,0.759-3.998,1.626-6.063,2.192
			c-0.454,0.125-1.201-0.814-1.813-1.264c0.477-0.643,0.901-1.783,1.44-1.84c2.055-0.219,4.147-0.089,6.226-0.089
			C206.487,249.894,206.557,250.228,206.626,250.561z"/>
		<path fill-rule="evenodd" clip-rule="evenodd" fill="#FFFFFF" d="M388.067,386.144c3.487,4.014,1.889,10.34-2.816,12.09
			c-1.05,0.391-3.039,0.282-3.532-0.384c-0.578-0.778-0.429-2.707,0.176-3.633C383.679,391.482,385.843,388.996,388.067,386.144z"/>
		<path fill-rule="evenodd" clip-rule="evenodd" fill="#FFFFFF" d="M301.177,391.351c-1.65,2.549-3.019,4.968-4.73,7.112
			c-0.486,0.609-2.094,0.771-2.96,0.475c-0.602-0.206-1.079-1.522-1.159-2.385C291.797,390.859,293.575,389.692,301.177,391.351z"/>
		<path fill-rule="evenodd" clip-rule="evenodd" fill="#FFFFFF" d="M294.667,384.571c1.476-1.759,2.77-3.736,4.503-5.187
			c0.909-0.76,2.593-0.594,3.927-0.846c0.074,1.671,0.478,3.421,0.102,4.982c-0.236,0.979-1.545,2.176-2.554,2.38
			c-1.62,0.327-3.392-0.087-5.098-0.188C295.252,385.333,294.959,384.952,294.667,384.571z"/>
		<path fill-rule="evenodd" clip-rule="evenodd" fill="#FFFFFF" d="M26.483,398.456c1.148-2.933,1.748-5.993,3.479-8.138
			c0.706-0.875,4.12-0.28,5.855,0.563c2.459,1.197,1.806,3.604,0.365,5.293C33.952,398.788,31.043,399.885,26.483,398.456z"/>
		<path fill-rule="evenodd" clip-rule="evenodd" fill="#FFFFFF" d="M30.726,385.092c0.622-2.177,1.244-4.353,2.11-7.384
			c2.003,0.728,4.063,1.219,5.782,2.269c0.472,0.288,0.343,2.98-0.236,3.314c-2.164,1.25-4.628,1.98-6.98,2.906
			C31.177,385.828,30.951,385.46,30.726,385.092z"/>
		<path fill-rule="evenodd" clip-rule="evenodd" fill="#FFFFFF" d="M507.573,388.032c0.828,5.338-3.094,10.727-7.559,10.734
			C499.401,392.398,502.392,388.045,507.573,388.032z"/>
		<path fill-rule="evenodd" clip-rule="evenodd" fill="#FFFFFF" d="M225.59,399.765c-1.375-7.327,1.708-10.816,6.885-13.071
			c3.513,3.263,0.569,6.538-0.768,9.278C230.87,397.686,227.957,398.386,225.59,399.765z"/>
		<path fill-rule="evenodd" clip-rule="evenodd" fill="#FFFFFF" d="M483.14,391.143c1.676-1.24,3.351-2.479,5.026-3.718
			c0.346,0.471,0.691,0.942,1.037,1.413c-1.632,1.326-3.264,2.653-4.896,3.979C483.919,392.26,483.529,391.7,483.14,391.143z"/>
		<path fill-rule="evenodd" clip-rule="evenodd" fill="#FFFFFF" d="M129.522,391.414c1.18-1.685,2.358-3.37,3.566-5.096
			C135.661,388.831,135.103,389.902,129.522,391.414z"/>
		<path fill-rule="evenodd" clip-rule="evenodd" fill="#FFFFFF" d="M208.748,391.449c1.675-1.979,3.351-3.959,5.407-6.389
			C215.667,389.533,214.191,391.222,208.748,391.449z"/>
		<path fill-rule="evenodd" clip-rule="evenodd" fill="#FFFFFF" d="M48.685,391.462c1.218-1.833,2.314-3.771,3.74-5.424
			c0.351-0.406,1.78,0.118,2.713,0.216c-0.158,1.096,0.078,2.671-0.554,3.193c-1.467,1.211-3.355,1.914-5.072,2.823
			C49.236,392.001,48.96,391.731,48.685,391.462z"/>
		<path fill-rule="evenodd" clip-rule="evenodd" d="M315.583,69.707c0.552,4.498-0.659,7.945-4.431,10.476
			c-3.899,2.618-9.345,0.999-10.428-3.685c-1.482-6.41-1.987-12.812,2.762-18.419c1.677-1.981,6.638-2.536,7.771-0.3
			C313.207,61.619,317.108,64.837,315.583,69.707z M304.167,68.897c2.406-0.475,4.661-0.921,6.916-1.367
			c-0.46-2.131-0.671-4.372-1.532-6.326c-0.26-0.589-2.665-0.938-3.51-0.432C303.241,62.448,303.563,65.267,304.167,68.897z
			 M310.578,70.458c-2.367,1.059-5.908-1.819-6.664,2.615c-0.489,2.866,1.74,5.817,3.872,5.769
			C310.187,78.787,311.356,75.684,310.578,70.458z"/>
		<path fill-rule="evenodd" clip-rule="evenodd" fill="#FFFFFF" d="M304.167,68.897c-0.604-3.631-0.926-6.45,1.874-8.125
			c0.845-0.505,3.25-0.157,3.51,0.432c0.861,1.954,1.072,4.195,1.532,6.326C308.827,67.976,306.572,68.422,304.167,68.897z"/>
		<path fill-rule="evenodd" clip-rule="evenodd" fill="#FFFFFF" d="M310.578,70.458c0.778,5.225-0.392,8.329-2.792,8.384
			c-2.132,0.048-4.361-2.903-3.872-5.769C304.67,68.64,308.211,71.517,310.578,70.458z"/>
	</g>
</g>
</svg>
