<?xml version="1.0" encoding="utf-8"?>
<!-- Generator: Adobe Illustrator 16.0.0, SVG Export Plug-In . SVG Version: 6.00 Build 0)  -->
<!DOCTYPE svg PUBLIC "-//W3C//DTD SVG 1.1//EN" "http://www.w3.org/Graphics/SVG/1.1/DTD/svg11.dtd">
<svg version="1.1" id="Layer_1" xmlns="http://www.w3.org/2000/svg" xmlns:xlink="http://www.w3.org/1999/xlink" x="0px" y="0px"
	 width="590.332px" height="494.319px" viewBox="0 0 590.332 494.319" enable-background="new 0 0 590.332 494.319"
	 xml:space="preserve">
<g>
	<g>
		<path fill-rule="evenodd" clip-rule="evenodd" fill="#FFFFFF" d="M0.75,0.75c196.777,0,393.556,0,590.332,0
			c0,164.773,0,329.546,0,494.319c-196.776,0-393.555,0-590.332,0C0.75,330.296,0.75,165.523,0.75,0.75z M288.889,325.646
			c0.086,1.28,0.161,1.891,0.163,2.502c0.022,5.746-0.066,11.495,0.134,17.234c0.036,1.032,1.245,2.022,1.913,3.031
			c0.646-1.021,1.523-1.972,1.874-3.087c0.322-1.025,0.054-2.229,0.087-3.353c0.126-4.243,0.297-8.484,0.393-12.728
			c0.041-1.835,0.681-3.019,2.695-2.481c4.06,1.081,8.112,2.205,12.114,3.482c3.691,1.179,7.289,2.654,10.982,3.83
			c0.851,0.271,1.922-0.15,2.891-0.253c0.273-0.484,0.546-0.97,0.819-1.455c-2.267-2.21-4.533-4.419-6.82-6.648
			c18.283,0.272,37.143-0.157,56.759,0.849c-2.24,3.374-3.82,5.754-5.401,8.135c0.255,0.267,0.51,0.534,0.765,0.802
			c4.136-1.157,8.85-1.435,12.272-3.679c5.066-3.321,10.451-4.194,16.079-4.798c2.311-0.247,4.67-0.041,7.008-0.041
			c0.082-0.341,0.166-0.683,0.249-1.024c-3.717-1.632-7.357-3.479-11.171-4.839c-4.033-1.439-8.169-2.942-12.376-3.449
			c-4.191-0.505-6.976-5.596-13.014-2.974c2.018,2.161,3.698,3.906,5.31,5.714c0.578,0.649,0.991,1.446,1.48,2.175
			c-0.774,0.434-1.508,1.103-2.333,1.245c-1.211,0.21-2.491,0.095-3.738,0.033c-11.277-0.552-22.551-1.217-33.833-1.65
			c-5.786-0.222-11.587-0.038-17.381-0.038c-0.154-0.481-0.309-0.963-0.463-1.444c1.288-1.194,2.77-2.245,3.804-3.63
			c0.868-1.161,1.213-2.712,1.79-4.091c-1.236,0.08-2.57-0.11-3.693,0.289c-4.103,1.46-8.061,3.355-12.213,4.631
			c-3.932,1.208-8.039,1.845-12.547,2.839c0-5.443-0.028-10.026,0.006-14.608c0.06-7.992,0.168-15.984,0.237-23.976
			c0.021-2.424,0.937-3.443,3.609-3.497c4.287-0.088,8.558-0.8,12.843-1.177c6.704-0.591,13.42-1.046,20.118-1.698
			c10.418-1.015,20.852-1.94,31.224-3.324c4.588-0.611,9.018-2.339,13.557-3.403c6.794-1.592,13.603-3.133,20.443-4.502
			c1.883-0.377,4.164-1.537,5.662,1.104c0.221,0.39,1.285,0.301,1.959,0.433c0.068-0.741,0.02-1.518,0.231-2.215
			c0.353-1.162,0.781-3.206,1.336-3.261c5.363-0.526,10.433-4.085,16.098-1.698c0.362,0.153,0.936-0.193,1.41-0.307
			c0.735-2.456,1.747-5.109,3.595-5.972c4.423-2.064,8.841-3.871,13.115-6.457c5.166-3.124,10.824-5.432,15.641-9.296
			c4.562-3.66,9.541-6.798,14.079-10.483c2.938-2.384,5.646-5.145,8.035-8.081c3.304-4.062,6.645-8.205,9.186-12.752
			c3.7-6.624,7.255-13.438,9.816-20.551c1.821-5.055,1.947-10.731,2.739-16.143c0.278-1.901,0.902-2.764,3.102-2.674
			c6.113,0.251,12.239,0.169,18.36,0.268c9.612,0.156,19.223,0.417,28.835,0.5c3.737,0.032,4.244-0.893,2.875-4.927
			c-6.931,0-14.01,0-21.985,0c3.082-9.286,5.956-17.948,8.831-26.61c-0.31-0.258-0.618-0.517-0.927-0.776
			c-2.658,1.985-5.315,3.971-7.64,5.707c0-19.308,0-39.186,0-60.115c3.479,2.881,5.997,4.966,9.361,7.751
			c-0.405-2.602-0.439-4.2-0.916-5.652c-2.276-6.929-4.701-13.811-7.012-20.729c-0.707-2.119-1.141-4.331-1.878-6.437
			c-0.184-0.526-1.109-1.17-1.611-1.107c-0.574,0.072-1.359,0.786-1.528,1.373c-0.932,3.228-1.521,6.562-2.569,9.747
			c-1.996,6.064-4.265,12.039-6.316,18.085c-0.338,0.997-0.14,2.175-0.189,3.269c0.327,0.154,0.654,0.308,0.981,0.461
			c2.333-2.053,4.666-4.107,7.634-6.719c0,20.601,0,40.47,0,61.264c-3.637-3.067-6.524-5.502-9.41-7.937
			c-0.333,0.229-0.665,0.457-0.998,0.685c2.998,9.056,5.995,18.113,9.129,27.579c-8.319,0-15.67-0.111-23.015,0.059
			c-2.622,0.06-3.449-0.914-3.758-3.373c-0.496-3.948-0.58-8.25-2.289-11.68c-3.143-6.311-4.2-13.573-9.456-19.007
			c-3.521-3.641-5.72-8.523-8.865-12.575c-2.394-3.083-5.314-5.764-8.061-8.564c-1.785-1.819-3.507-3.768-5.553-5.249
			c-5.742-4.16-11.636-8.107-17.472-12.136c-0.102-0.07-0.228-0.105-0.333-0.171c-5.581-3.475-10.979-7.299-16.79-10.333
			c-6.49-3.389-13.312-6.165-20.081-8.985c-2.129-0.886-4.646-0.811-6.828-1.604c-3.325-1.206-6.394-3.245-9.781-4.124
			c-11.927-3.095-23.942-5.846-35.295-8.577c-0.551-1.667-0.94-2.849-1.429-4.325c-1.602,1.498-2.681,2.506-3.855,3.605
			c-2.393-4.149-2.393-4.149-5.368-1.523c-1.397-0.712-2.808-2.078-4.036-1.933c-3.525,0.418-6.684,0.506-11.448-0.639
			c-0.271-0.065-0.597,0.142-0.902,0.183c-1.42,0.189-2.876,0.651-4.254,0.483c-2.838-0.347-5.614-1.309-8.453-1.524
			c-5.982-0.454-11.985-0.71-17.984-0.8c-2.697-0.041-3.385-1.155-3.303-3.627c0.191-5.731,0.217-11.467,0.251-17.202
			c0.036-5.995,0.084-11.994-0.09-17.984c-0.024-0.838-1.29-1.642-1.979-2.46c-0.497,0.86-1.065,1.689-1.458,2.594
			c-0.182,0.419-0.024,0.986-0.022,1.486c0.024,10.852-0.019,21.704,0.112,32.555c0.039,3.226-0.787,4.82-4.434,4.521
			c-3.594-0.294-7.242,0.018-10.865,0.104c-3.613,0.086-7.271-0.093-10.829,0.412c-4.982,0.706-9.848,2.291-14.837,2.875
			c-12.944,1.52-25.978,2.103-38.492,6.509c-9.025,3.179-18.555,4.419-27.697,7.832c-8.291,3.094-16.541,6.429-24.524,10.082
			c-9.045,4.139-17.384,9.872-25.855,15.189c-3.476,2.182-6.462,5.134-9.737,7.65c-1.36,1.043-3.178,1.601-4.293,2.828
			c-3.85,4.237-7.483,8.671-11.197,13.032c-1.025,1.204-2.286,2.281-3.027,3.641c-3.16,5.786-6.468,11.522-9.133,17.537
			c-2.092,4.722-4.021,9.731-4.71,14.791c-0.559,4.101-2.52,4.721-5.626,4.646c-16.339-0.391-32.677-0.861-49.016-1.263
			c-3.461-0.085-6.934-0.13-10.382,0.103c-0.715,0.048-1.879,1.426-1.858,2.164c0.021,0.729,1.198,1.546,2.025,2.085
			c0.444,0.289,1.217,0.079,1.841,0.085c17.858,0.165,35.716,0.303,53.574,0.519c2.717,0.033,5.863-0.312,7.975,0.934
			c1.197,0.706,0.691,4.293,0.958,6.583c0.058,0.497,0.141,0.99,0.204,1.485c0.377,2.99,1.854,6.436,0.852,8.855
			c-1.299,3.137-1.188,4.662,1.327,5.641c-0.935,1.729-1.74,3.218-2.545,4.707c1.697,0.41,3.395,0.819,5.631,1.36
			c0.355,0.686,0.932,2.074,1.737,3.313c3.599,5.537,7.023,11.212,10.976,16.488c3.355,4.477,7.064,8.779,11.145,12.593
			c3.724,3.479,8.179,6.168,12.271,9.259c4.398,3.32,8.531,7.05,13.177,9.968c5.45,3.422,11.241,6.344,17.049,9.139
			c5.154,2.481,10.494,4.595,15.826,6.682c6.407,2.507,12.809,5.086,19.373,7.119c4.954,1.534,10.161,2.25,15.25,3.351
			c3.517,0.761,7.046,1.476,10.532,2.361c3.227,0.819,6.349,2.188,9.613,2.697c6.65,1.037,13.35,1.818,20.056,2.412
			c9.933,0.881,19.882,1.636,29.838,2.18c4.01,0.219,4.796,0.626,4.772,4.696c-0.063,11.107-0.115,22.216-0.246,33.323
			c-0.028,2.316-0.381,4.629-0.661,7.818c-10.613-3.535-20.766-6.918-31.891-10.625c1.069,2.355,1.473,3.947,2.409,5.111
			c0.935,1.163,2.401,1.899,3.634,2.823c-0.163,0.302-0.327,0.604-0.491,0.905c-47.473-0.472-94.946-0.943-143.702-1.428
			c2.422-3.438,4.159-5.901,6.054-8.592c-1.148-0.12-2.224-0.558-3.036-0.266c-5.39,1.945-10.719,4.059-16.08,6.084
			c-0.684,0.259-1.438,0.347-2.165,0.476c-3.154,0.558-6.375,0.879-9.429,1.773c-1.043,0.305-1.843,1.957-2.378,3.161
			c-0.151,0.342,0.927,1.708,1.61,1.864c5.171,1.177,10.418,2.031,15.574,3.271c3.481,0.835,6.875,2.065,10.262,3.251
			c1.736,0.607,3.372,1.503,5.054,2.269c0.354-0.517,0.71-1.034,1.065-1.551c-2.128-2.187-4.257-4.373-6.386-6.559
			c0.131-0.313,0.26-0.624,0.39-0.937c47.912,0.609,95.824,1.22,144.47,1.84c-2.546,3.119-4.403,5.393-6.259,7.666
			c0.227,0.381,0.454,0.761,0.68,1.141c3.677-0.843,7.441-1.423,11.006-2.603c3.671-1.215,7.072-3.249,10.739-4.482
			C282.668,326.468,285.647,326.247,288.889,325.646z M535.035,200.662c0.262-0.308,0.524-0.614,0.786-0.922
			c-0.053-0.607,0.022-1.263-0.182-1.815c-1.176-3.198-2.626-6.311-3.591-9.569c-1.762-5.951-3.199-11.998-4.919-17.962
			c-0.21-0.73-1.246-1.491-2.033-1.682c-0.441-0.106-1.47,0.821-1.702,1.472c-2.58,7.225-5.118,14.466-7.527,21.749
			c-0.867,2.625-1.355,5.376-2.244,8.993c3.421-2.042,5.752-3.433,8.515-5.082c0.467,12.201,0.905,23.649,1.378,36.02
			c-3.569-2.454-6.115-4.205-9.396-6.46c0,1.746-0.247,2.748,0.041,3.559c1.529,4.296,3.381,8.483,4.761,12.823
			c1.691,5.317,2.938,10.776,4.604,16.103c0.291,0.932,1.707,1.513,2.603,2.254c0.332-0.974,0.776-1.928,0.96-2.93
			c0.147-0.812-0.256-1.758-0.008-2.511c2.218-6.752,4.578-13.457,6.779-20.214c0.86-2.638,1.42-5.375,2.117-8.066
			c-0.378-0.321-0.755-0.643-1.132-0.964c-2.281,1.687-4.563,3.375-7.463,5.52c0-12.123,0-23.536,0-35.792
			C530.392,197.337,532.713,199,535.035,200.662z M426.913,479.286c-1.163-2.671-1.898-4.443-2.699-6.186
			c-1.302-2.829-4.832-3.931-7.371-2.134c-0.763,0.541-1.274,1.729-1.414,2.692c-0.047,0.321,1.413,0.883,2.202,1.299
			c1.008,0.533,2.526,0.771,2.961,1.593c1.313,2.48,1.922,5.357,3.379,7.728c0.8,1.302,2.665,2.216,4.23,2.643
			c0.597,0.162,2.236-1.395,2.486-2.396c2.813-11.293,5.538-22.609,8.065-33.97c0.61-2.741,1.842-3.739,4.547-3.668
			c6.236,0.164,12.481,0.305,18.712,0.104c1.29-0.042,2.53-1.607,3.792-2.472c-1.249-0.804-2.474-2.256-3.751-2.305
			c-7.218-0.271-14.449-0.281-21.673-0.178c-1.153,0.017-2.836,0.771-3.331,1.692c-1.318,2.448-2.451,5.099-3.07,7.805
			c-1.852,8.095-3.394,16.26-5.145,24.38C428.635,476.834,427.877,477.633,426.913,479.286z M218.657,441.702
			c0.074-0.376,0.148-0.752,0.222-1.129c-1.473-0.524-2.934-1.454-4.421-1.502c-6.241-0.199-12.491-0.175-18.737-0.154
			c-5.994,0.021-6.512,0.766-7.724,6.586c-1.891,9.085-4.131,18.097-6.267,27.128c-0.17,0.723-0.675,1.366-0.868,1.742
			c-1.678-2.209-3.283-4.235-4.793-6.33c-2.289-3.174-2.914-3.251-5.567-0.439c-0.72,0.764-1.4,1.564-2.215,2.478
			c1.115,0.444,2.417,0.819,3.566,1.467c0.872,0.491,1.836,1.188,2.258,2.041c1.466,2.962,2.601,6.092,4.122,9.022
			c0.385,0.741,1.716,1.302,2.645,1.352c0.73,0.04,1.958-0.673,2.194-1.329c1.303-3.62,2.519-7.286,3.485-11.009
			c2.326-8.963,4.577-17.947,6.67-26.967c0.508-2.192,1.499-2.776,3.581-2.699c5.862,0.217,11.73,0.318,17.596,0.358
			C215.82,442.326,217.239,441.919,218.657,441.702z M436.112,403.654c0-2.023,0.359-3.715-0.108-5.135
			c-0.413-1.257-1.747-2.212-2.674-3.3c-0.859,1.098-2.405,2.161-2.461,3.298c-0.284,5.729-0.197,11.477-0.201,17.217
			c-0.001,2.361-0.784,5.468,0.402,6.873c1.18,1.397,4.507,0.765,6.675,1.593c3.766,1.438,6.334,0.149,8.771-2.646
			c3.024-3.47,3.374-11.265,0.485-15.82C445.079,402.701,441.775,401.935,436.112,403.654z M448.081,478.665
			c3.711-3.194,6.821-5.615,9.62-8.355c2.684-2.626,2.219-10.726-0.48-12.805c-4.337-3.339-11.167-2.532-14.514,1.932
			c-0.801,1.07-1.547,3.523-1.054,3.983c1.926,1.798,3.646,0.837,5.076-1.233c0.671-0.971,2.043-2.207,2.948-2.097
			c1.48,0.179,4.006,1.325,4.031,2.126c0.072,2.359-0.155,5.356-1.558,7c-3.057,3.582-7.016,6.378-10.374,9.728
			c-0.878,0.875-1.423,2.72-1.157,3.903c0.206,0.917,1.882,2.072,2.957,2.129c4.596,0.244,9.221,0.283,13.81-0.011
			c0.896-0.058,1.678-1.928,2.513-2.963c-0.913-0.725-1.749-1.911-2.754-2.078c-1.938-0.322-3.983,0.058-5.964-0.104
			C450.18,479.738,449.224,479.11,448.081,478.665z M202.458,411.346c0.071-0.004,0.142-0.009,0.213-0.013
			c-0.12-1.865-0.17-3.737-0.374-5.593c-0.634-5.8-6.401-9.5-11.781-7.327c-1.734,0.7-3.283,2.188-4.532,3.646
			c-0.839,0.979-1.004,2.536-1.472,3.834c1.512-0.202,3.06-0.264,4.526-0.642c1.915-0.495,3.735-1.39,5.664-1.771
			c0.467-0.093,1.198,1.151,1.807,1.78c-0.623,0.459-1.183,1.08-1.879,1.348c-2.825,1.085-5.805,1.833-8.488,3.182
			c-1.161,0.583-2.298,2.238-2.489,3.547c-0.745,5.089,5.378,8.948,10.741,6.619c1.848-0.802,2.967-0.795,4.698,0.12
			c2.541,1.343,4.002,0.053,3.729-2.821C202.637,415.291,202.576,413.315,202.458,411.346z M558.532,90.101
			c0,2.797,0.438,5.049-0.093,7.043c-1.041,3.903-2.671,7.645-3.955,11.487c-0.546,1.631-0.674,3.408-1.271,5.015
			c-1.397,3.76,0.316,6.789,4.277,7.285c5.691,0.713,13.521-5.421,14.816-11.607c1.432-6.835-0.99-9.608-7.957-9.124
			c-0.599,0.041-1.202,0.005-2.653,0.005c0.676-1.66,1.367-2.869,1.646-4.165c0.405-1.88,0.512-3.824,0.746-5.741
			c-1.54-0.154-3.079-0.346-4.624-0.437C559.014,89.837,558.545,90.098,558.532,90.101z M197.139,462.025
			c0.881-1.463,1.339-3.289,2.308-3.621c2.365-0.809,4.966-1.095,7.472-1.092c0.287,0.001,1.42,3.858,0.702,4.745
			c-2.464,3.042-5.725,5.423-8.394,8.321c-1.872,2.034-3.584,4.351-4.777,6.824c-0.809,1.68,0.209,3.025,2.478,2.982
			c4.369-0.083,8.743,0.089,13.108-0.054c0.95-0.031,1.872-0.938,2.806-1.442c-0.689-1.076-1.147-2.641-2.126-3.104
			c-1.24-0.586-2.906-0.246-4.384-0.36c-1.326-0.104-2.646-0.284-3.97-0.431c1.911-2.343,4.174-3.476,5.801-5.208
			c1.635-1.741,3.255-3.942,3.749-6.191c0.541-2.467,0.667-5.823-0.62-7.697c-1.725-2.512-4.553-5.084-8.338-4.208
			c-1.741,0.402-3.331,1.492-4.96,2.328C194.32,455.699,193.916,458.508,197.139,462.025z M468.861,440.372
			c0.598-3.26-0.752-3.795-3.061-3.854c-7.966-0.204-15.926-0.68-23.893-0.865c-9.349-0.219-18.703-0.216-28.054-0.37
			c-1.971-0.032-4.13-0.18-4.212,2.403c-0.084,2.667,2.148,2.523,4.076,2.531c10.245,0.036,20.49,0.116,30.736,0.149
			C452.55,440.393,460.646,440.372,468.861,440.372z M357.637,437.826c-0.371-0.231-0.741-0.464-1.112-0.695
			c-0.898-2.971-1.601-6.023-2.795-8.869c-0.463-1.104-2.041-1.738-3.111-2.587c-0.592,1.165-1.908,2.531-1.651,3.462
			c1.182,4.266,2.523,8.535,4.341,12.563c1.91,4.229,1.39,6.502-2.571,8.589c-0.773,0.407-1.382,1.755-1.43,2.7
			c-0.036,0.707,0.863,2.004,1.499,2.109c2.608,0.431,5.169,0.526,6.493-2.676c1.834-4.435,4.111-8.691,5.811-13.173
			c1.307-3.447,2.129-7.097,2.892-10.715c0.16-0.758-0.88-1.77-1.367-2.664c-0.749,0.541-1.804,0.922-2.186,1.653
			c-0.914,1.755-1.434,3.711-2.26,5.518C359.439,434.682,358.495,436.234,357.637,437.826z M208.109,341.069
			c-9.317-0.968-14.667-2.527-19.741,8.501c-1.089,2.367-0.977,6.13,0.182,8.452c1.161,2.327,4.396,2.22,7.021,0.767
			c0.657-0.363,1.927-0.487,2.443-0.097c3.788,2.858,5.707,0.084,7.794-2.034C202.398,350.637,207.789,346.215,208.109,341.069z
			 M120.026,442.797c-1.111-1.615-1.75-2.895-2.702-3.867c-3.691-3.77-3.785-7.208-0.183-11.061
			c0.759-0.813,1.792-1.599,2.061-2.572c0.242-0.876-0.393-1.994-0.64-3.006c-0.819,0.211-1.843,0.181-2.425,0.672
			c-5.17,4.367-5.123,4.365-10.406-0.075c-0.572-0.48-2.202-0.735-2.363-0.479c-0.518,0.823-0.852,1.971-0.726,2.923
			c0.099,0.74,1.175,1.298,1.498,2.069c0.876,2.097,2.338,4.335,2.148,6.385c-0.198,2.138-2.12,4.089-3.151,6.188
			c-0.465,0.947-0.6,2.056-0.884,3.092c1.132-0.233,2.343-0.29,3.369-0.756c0.841-0.383,1.568-1.169,2.157-1.923
			c1.605-2.061,3.114-2.341,4.632,0.032C113.99,442.884,116.084,443.977,120.026,442.797z M550.289,226.134
			c3.546-2.866,6.898-5.458,10.104-8.22c1.436-1.237,2.868-2.647,3.797-4.268c2.063-3.592,3.96-7.302,5.548-11.12
			c0.314-0.755-0.891-2.363-1.729-3.272c-0.355-0.388-2.073-0.272-2.286,0.11c-0.486,0.872-0.718,2.101-0.538,3.092
			c0.863,4.765-0.396,7.485-4.642,9.494c-0.159-0.181-0.436-0.348-0.46-0.545c-0.287-2.347-0.554-4.696-0.794-7.048
			c-0.612-6.003-2.465-7.069-8.609-4.483c4.13,4.095,3.844,9.374,4.332,14.529c0.325,3.423-0.301,5.991-3.25,8.096
			C550.79,223.191,550.68,225.092,550.289,226.134z M341.113,342.546c1.08,1.191,1.518,2.126,2.18,2.33
			c3.603,1.112,3.174,4.454,3.105,6.786c-0.065,2.277-0.75,5.275-4.232,5.728c-3.008,0.392-3.626,2.182-2.359,4.837
			c2.446,0.668,4.33,0.353,5.396-2.331c0.302-0.763,1.353-1.228,2.06-1.829c0.588,0.835,1.232,1.636,1.743,2.517
			c0.289,0.498,0.358,1.124,0.485,1.555c4.563,1.602,5.523-1.794,7.431-4.746c-1.599-0.208-2.729-0.355-3.875-0.505
			c-0.326-1.194-0.498-2.319-0.935-3.329c-1.279-2.957-0.26-5.374,2.724-6.047c0.84-0.189,1.819,0.087,2.588-0.218
			c0.771-0.307,1.863-1.033,1.911-1.646c0.071-0.923-0.667-2.733-1.021-2.724c-1.797,0.051-3.588,0.532-5.367,0.931
			c-1.147,0.257-3.227,1-3.266,0.898C348.055,340.547,344.862,342.336,341.113,342.546z M162.973,433.809
			c0.146,0.416,0.291,0.833,0.436,1.25c1.338,0.06,2.676,0.142,4.014,0.174c14.093,0.344,28.186,0.688,42.279,1.009
			c3.738,0.085,7.479,0.148,11.216,0.076c0.662-0.012,1.309-0.741,1.963-1.14c-0.627-0.586-1.169-1.345-1.906-1.704
			c-0.621-0.304-1.467-0.167-2.215-0.183c-7.837-0.175-15.673-0.339-23.51-0.512c-9.612-0.211-19.225-0.484-28.838-0.563
			C165.27,432.206,164.119,433.252,162.973,433.809z M142.315,438.976c0.001,0.009,0.001,0.018,0.001,0.025
			c2.604,0,5.221,0.137,7.808-0.082c0.793-0.066,1.502-1.109,2.25-1.705c-0.769-0.754-1.504-2.122-2.309-2.162
			c-5.199-0.265-10.415-0.346-15.619-0.217c-0.984,0.024-1.94,1.254-2.908,1.928c0.987,0.738,1.914,1.984,2.975,2.112
			C137.08,439.187,139.71,438.976,142.315,438.976z M132.155,431.872c6.741,0,13.225,0,19.678,0c0.369-2.822-0.772-3.757-3.135-3.73
			c-4.359,0.047-8.72,0.035-13.078-0.065C133.312,428.023,132.128,428.93,132.155,431.872z M400.095,435.127
			c-1.168-1.524-1.659-2.749-2.189-2.767c-5.828-0.19-11.663-0.236-17.494-0.169c-0.495,0.005-0.978,1.105-1.466,1.696
			c0.521,0.413,1.039,1.178,1.566,1.185C386.672,435.156,392.832,435.127,400.095,435.127z M398.822,441.91
			c0.192-0.475,0.385-0.95,0.577-1.426c-0.991-0.529-1.969-1.481-2.976-1.515c-5.097-0.167-10.202-0.153-15.301-0.04
			c-0.726,0.016-1.432,0.92-2.147,1.412c0.663,0.523,1.317,1.486,1.99,1.5C386.916,441.96,392.869,441.91,398.822,441.91z
			 M97.354,247.706c-1.487-1.063-2.49-2.301-3.208-2.153c-0.821,0.168-1.819,1.521-1.924,2.451
			c-0.075,0.668,1.301,2.171,1.837,2.086C95.025,249.938,95.848,248.873,97.354,247.706z M92.204,192.387
			c-0.333,0.575-0.667,1.149-1,1.724c1.102,0.479,2.258,1.413,3.29,1.291c0.831-0.098,1.993-1.415,2.1-2.301
			c0.081-0.672-1.158-1.916-2.015-2.149C93.963,190.784,93.007,191.864,92.204,192.387z M97.862,217.677
			c-1.657-1.124-2.589-2.236-3.291-2.106c-0.827,0.153-1.833,1.297-2.03,2.175c-0.12,0.537,1.13,1.947,1.772,1.952
			C95.2,219.705,96.092,218.754,97.862,217.677z M94.104,257.539c1.138-1.617,2.147-2.452,2.225-3.365
			c0.054-0.636-1.403-2.063-1.784-1.937c-0.923,0.309-1.983,1.201-2.264,2.088C92.091,254.926,93.13,255.915,94.104,257.539z
			 M511.813,55.838c-0.178-0.68-0.355-1.359-0.533-2.039c-1.303,0.214-2.606,0.429-3.909,0.643c0.324,0.851,0.713,2.447,0.963,2.425
			C509.515,56.768,510.657,56.224,511.813,55.838z M96.973,315.544c-1.734-1.031-2.672-2.037-3.479-1.94
			c-0.795,0.095-1.457,1.306-2.177,2.027c0.814,0.643,1.563,1.648,2.462,1.807C94.453,317.556,95.318,316.581,96.973,315.544z
			 M94.578,220.809c-1.015,1.588-1.97,2.421-1.875,3.111c0.103,0.762,1.168,1.393,1.815,2.08c0.671-0.663,1.774-1.26,1.889-2.009
			C96.513,223.292,95.569,222.433,94.578,220.809z M94.237,281.661c-1.068,1.308-2.267,2.131-2.232,2.896
			c0.044,0.94,1.119,1.832,1.748,2.744c0.698-0.895,1.688-1.706,1.982-2.719C95.911,283.977,94.996,283.055,94.237,281.661z
			 M538.538,58.111c0.616,0.124,1.231,0.247,1.848,0.37c0.491-1.16,0.981-2.32,1.472-3.48c-1.012-0.24-2.025-0.48-3.037-0.72
			C538.726,55.558,538.632,56.834,538.538,58.111z M92.793,293.55c0.582,0.035,1.163,0.07,1.745,0.104
			c0.225-1.421,0.449-2.842,0.673-4.264c-0.806-0.004-1.612-0.01-2.418-0.015C92.793,290.768,92.793,292.158,92.793,293.55z
			 M97.007,278.75c-1.49-1.058-2.248-1.973-3.08-2.045c-0.5-0.043-1.527,1.205-1.56,1.907c-0.03,0.665,0.936,1.938,1.454,1.934
			C94.643,280.539,95.456,279.688,97.007,278.75z M404.852,271.083c-1.19-1.206-1.854-1.878-2.518-2.55
			c-0.606,0.745-1.564,1.431-1.705,2.255c-0.104,0.619,0.864,2.019,1.316,2.002C402.751,272.762,403.526,271.923,404.852,271.083z
			 M503.861,57.884c0.402-1.646,0.85-2.68,0.818-3.699c-0.015-0.483-0.942-0.939-1.63-1.564c-0.874,0.916-1.593,1.666-2.402,2.513
			C501.593,55.943,502.331,56.574,503.861,57.884z"/>
		<path fill-rule="evenodd" clip-rule="evenodd" d="M288.889,325.646c-3.242,0.602-6.221,0.822-8.965,1.744
			c-3.667,1.233-7.067,3.268-10.739,4.482c-3.565,1.18-7.33,1.76-11.006,2.603c-0.226-0.38-0.453-0.76-0.68-1.141
			c1.856-2.273,3.713-4.547,6.259-7.666c-48.646-0.62-96.558-1.23-144.47-1.84c-0.13,0.313-0.259,0.624-0.39,0.937
			c2.129,2.186,4.258,4.372,6.386,6.559c-0.355,0.517-0.71,1.034-1.065,1.551c-1.682-0.766-3.317-1.661-5.054-2.269
			c-3.387-1.186-6.781-2.416-10.262-3.251c-5.156-1.239-10.403-2.094-15.574-3.271c-0.683-0.156-1.762-1.522-1.61-1.864
			c0.535-1.204,1.335-2.856,2.378-3.161c3.055-0.895,6.275-1.216,9.429-1.773c0.727-0.129,1.48-0.217,2.165-0.476
			c5.361-2.025,10.69-4.139,16.08-6.084c0.812-0.292,1.887,0.146,3.036,0.266c-1.896,2.69-3.632,5.154-6.054,8.592
			c48.756,0.484,96.229,0.956,143.702,1.428c0.164-0.302,0.328-0.604,0.491-0.905c-1.233-0.924-2.699-1.66-3.634-2.823
			c-0.936-1.164-1.34-2.756-2.409-5.111c11.125,3.707,21.278,7.09,31.891,10.625c0.28-3.189,0.633-5.502,0.661-7.818
			c0.131-11.107,0.183-22.216,0.246-33.323c0.023-4.07-0.762-4.478-4.772-4.696c-9.956-0.544-19.905-1.299-29.838-2.18
			c-6.706-0.594-13.406-1.375-20.056-2.412c-3.264-0.509-6.386-1.878-9.613-2.697c-3.485-0.886-7.015-1.601-10.532-2.361
			c-5.089-1.101-10.296-1.816-15.25-3.351c-6.563-2.033-12.965-4.612-19.373-7.119c-5.332-2.087-10.672-4.2-15.826-6.682
			c-5.808-2.795-11.599-5.717-17.049-9.139c-4.646-2.917-8.779-6.647-13.177-9.968c-4.093-3.091-8.548-5.781-12.271-9.259
			c-4.081-3.813-7.79-8.116-11.145-12.593c-3.953-5.276-7.377-10.951-10.976-16.488c-0.805-1.239-1.382-2.626-1.737-3.313
			c-2.237-0.541-3.934-0.95-5.631-1.36c0.805-1.489,1.61-2.979,2.545-4.707c-2.514-0.979-2.626-2.504-1.327-5.641
			c1.001-2.419-0.475-5.866-0.852-8.855c-0.063-0.496-0.146-0.989-0.204-1.485c-0.266-2.289,0.239-5.876-0.958-6.583
			c-2.112-1.246-5.258-0.901-7.975-0.934c-17.857-0.216-35.715-0.354-53.574-0.519c-0.625-0.006-1.397,0.204-1.841-0.085
			c-0.827-0.539-2.004-1.355-2.025-2.085c-0.021-0.738,1.143-2.116,1.858-2.164c3.448-0.233,6.921-0.188,10.382-0.103
			c16.339,0.402,32.677,0.872,49.016,1.263c3.106,0.074,5.068-0.546,5.626-4.646c0.688-5.06,2.618-10.069,4.71-14.791
			c2.665-6.015,5.973-11.751,9.133-17.537c0.742-1.359,2.002-2.437,3.027-3.641c3.714-4.361,7.347-8.795,11.197-13.032
			c1.116-1.227,2.934-1.785,4.293-2.828c3.275-2.516,6.262-5.468,9.737-7.65c8.471-5.317,16.81-11.05,25.855-15.189
			c7.983-3.652,16.233-6.987,24.524-10.082c9.142-3.412,18.671-4.653,27.697-7.832c12.514-4.407,25.547-4.989,38.492-6.509
			c4.989-0.585,9.855-2.169,14.837-2.875c3.558-0.505,7.215-0.325,10.829-0.412c3.623-0.087,7.271-0.399,10.865-0.104
			c3.647,0.298,4.473-1.295,4.434-4.521c-0.13-10.851-0.088-21.703-0.112-32.555c-0.001-0.5-0.16-1.066,0.022-1.486
			c0.394-0.905,0.962-1.734,1.458-2.594c0.69,0.819,1.955,1.622,1.979,2.46c0.174,5.991,0.126,11.989,0.09,17.984
			c-0.034,5.735-0.06,11.471-0.251,17.202c-0.082,2.472,0.605,3.587,3.303,3.627c5.999,0.089,12.002,0.346,17.984,0.8
			c2.839,0.215,5.615,1.177,8.453,1.524c1.378,0.167,2.834-0.294,4.254-0.483c0.306-0.041,0.632-0.249,0.902-0.183
			c4.765,1.146,7.923,1.058,11.448,0.639c1.229-0.146,2.639,1.221,4.036,1.933c2.976-2.625,2.976-2.625,5.368,1.523
			c1.175-1.1,2.254-2.108,3.855-3.605c0.488,1.476,0.878,2.658,1.429,4.325c11.353,2.731,23.368,5.482,35.295,8.577
			c3.388,0.879,6.456,2.918,9.781,4.124c2.183,0.793,4.699,0.717,6.828,1.604c6.77,2.82,13.591,5.596,20.081,8.985
			c5.812,3.035,11.209,6.859,16.79,10.333c0.105,0.065,0.231,0.101,0.333,0.171c5.836,4.029,11.729,7.976,17.472,12.136
			c2.046,1.481,3.768,3.43,5.553,5.249c2.746,2.8,5.667,5.481,8.061,8.564c3.146,4.052,5.345,8.935,8.865,12.575
			c5.256,5.435,6.313,12.696,9.456,19.007c1.709,3.43,1.793,7.731,2.289,11.68c0.309,2.459,1.136,3.433,3.758,3.373
			c7.345-0.17,14.695-0.059,23.015-0.059c-3.134-9.466-6.131-18.523-9.129-27.579c0.333-0.228,0.665-0.456,0.998-0.685
			c2.886,2.435,5.773,4.869,9.41,7.937c0-20.793,0-40.663,0-61.264c-2.968,2.612-5.301,4.666-7.634,6.719
			c-0.327-0.154-0.654-0.308-0.981-0.461c0.05-1.094-0.148-2.272,0.189-3.269c2.052-6.047,4.32-12.021,6.316-18.085
			c1.049-3.185,1.638-6.52,2.569-9.747c0.169-0.586,0.954-1.3,1.528-1.373c0.502-0.063,1.428,0.581,1.611,1.107
			c0.737,2.106,1.171,4.317,1.878,6.437c2.311,6.918,4.735,13.799,7.012,20.729c0.477,1.452,0.511,3.05,0.916,5.652
			c-3.364-2.786-5.882-4.871-9.361-7.751c0,20.93,0,40.808,0,60.115c2.324-1.735,4.981-3.721,7.64-5.707
			c0.309,0.259,0.617,0.518,0.927,0.776c-2.875,8.662-5.749,17.324-8.831,26.61c7.976,0,15.055,0,21.985,0
			c1.369,4.034,0.862,4.958-2.875,4.927c-9.612-0.083-19.223-0.343-28.835-0.5c-6.121-0.099-12.247-0.017-18.36-0.268
			c-2.199-0.09-2.823,0.773-3.102,2.674c-0.792,5.412-0.918,11.087-2.739,16.143c-2.562,7.113-6.116,13.927-9.816,20.551
			c-2.541,4.547-5.882,8.69-9.186,12.752c-2.389,2.936-5.098,5.697-8.035,8.081c-4.538,3.685-9.518,6.823-14.079,10.483
			c-4.816,3.864-10.475,6.173-15.641,9.296c-4.274,2.585-8.692,4.392-13.115,6.457c-1.848,0.862-2.859,3.516-3.595,5.972
			c-0.475,0.113-1.048,0.46-1.41,0.307c-5.665-2.387-10.734,1.172-16.098,1.698c-0.555,0.055-0.983,2.099-1.336,3.261
			c-0.212,0.697-0.163,1.474-0.231,2.215c-0.674-0.132-1.738-0.043-1.959-0.433c-1.498-2.642-3.779-1.481-5.662-1.104
			c-6.841,1.369-13.649,2.91-20.443,4.502c-4.539,1.064-8.969,2.792-13.557,3.403c-10.372,1.384-20.806,2.31-31.224,3.324
			c-6.698,0.652-13.414,1.107-20.118,1.698c-4.285,0.377-8.556,1.089-12.843,1.177c-2.673,0.054-3.589,1.073-3.609,3.497
			c-0.069,7.991-0.177,15.983-0.237,23.976c-0.034,4.582-0.006,9.165-0.006,14.608c4.508-0.994,8.616-1.631,12.547-2.839
			c4.152-1.275,8.11-3.171,12.213-4.631c1.123-0.399,2.457-0.209,3.693-0.289c-0.577,1.379-0.922,2.93-1.79,4.091
			c-1.034,1.385-2.516,2.436-3.804,3.63c0.154,0.481,0.309,0.963,0.463,1.444c5.794,0,11.595-0.184,17.381,0.038
			c11.282,0.434,22.556,1.099,33.833,1.65c1.247,0.062,2.527,0.177,3.738-0.033c0.825-0.143,1.559-0.812,2.333-1.245
			c-0.489-0.729-0.902-1.525-1.48-2.175c-1.611-1.808-3.292-3.553-5.31-5.714c6.038-2.622,8.822,2.469,13.014,2.974
			c4.207,0.507,8.343,2.01,12.376,3.449c3.813,1.36,7.454,3.207,11.171,4.839c-0.083,0.342-0.167,0.684-0.249,1.024
			c-2.338,0-4.697-0.206-7.008,0.041c-5.628,0.604-11.013,1.477-16.079,4.798c-3.423,2.244-8.137,2.521-12.272,3.679
			c-0.255-0.268-0.51-0.535-0.765-0.802c1.581-2.381,3.161-4.761,5.401-8.135c-19.616-1.006-38.476-0.576-56.759-0.849
			c2.287,2.229,4.554,4.438,6.82,6.648c-0.273,0.485-0.546,0.971-0.819,1.455c-0.969,0.103-2.04,0.523-2.891,0.253
			c-3.693-1.176-7.291-2.651-10.982-3.83c-4.002-1.277-8.055-2.401-12.114-3.482c-2.014-0.537-2.654,0.646-2.695,2.481
			c-0.095,4.243-0.267,8.484-0.393,12.728c-0.033,1.124,0.235,2.327-0.087,3.353c-0.35,1.115-1.227,2.065-1.874,3.087
			c-0.667-1.009-1.877-1.999-1.913-3.031c-0.2-5.739-0.112-11.488-0.134-17.234C289.05,327.536,288.975,326.926,288.889,325.646z
			 M226.259,233.732c0.61-0.838,1.219-1.676,1.83-2.515c-2.114-0.689-4.228-1.379-6.749-2.201c1.101,2.192,1.793,3.572,2.616,5.211
			c0.578-1.309,0.978-2.217,1.378-3.125c0.259,0.029,0.518,0.059,0.775,0.088c0.081,0.88,0.163,1.761,0.261,2.659
			c-0.41,0.595-0.82,1.189-1.23,1.784c1.047,0.427,2.074,1.139,3.144,1.21c1.357,0.091,2.748-0.338,4.501-0.599
			c-1.268-0.603-1.44-3.42-4.05-1.185C228.478,235.282,227.111,234.206,226.259,233.732z M345.76,250.636
			c-0.578-0.279-1.299-0.933-1.713-0.775c-2.396,0.906-3.364-0.382-4.112-2.313c-0.237-0.612-0.732-1.125-1.615-2.434
			c0.208,2.75,0.347,4.581,0.507,6.694c2.19-0.402,4.61-0.847,7.03-1.291c1.472,0.419,2.936,1.141,4.419,1.184
			c2.018,0.059,4.147-0.105,6.044-0.732c1.488-0.493,2.693-1.835,4.482-3.132c-0.278-0.48-0.77-1.331-1.262-2.18
			c-0.876,0.508-1.907,0.863-2.589,1.56c-0.987,1.011-0.993,2.611-3.447,2.21C351.055,249.024,348.354,250.168,345.76,250.636z
			 M183.918,195.862c0.042,0,0.084,0,0.127,0c0-9.963-0.224-19.933,0.1-29.885c0.147-4.54,0.705-4.938-5.15-4.978
			c-12.985-0.086-25.968-0.271-38.952-0.353c-13.073-0.083-26.147-0.142-39.218-0.042c-1.075,0.008-3.112,1.405-3.058,2.012
			c0.524,5.936,0.226,12.334,2.46,17.632c2.948,6.989,4.825,14.557,10.173,20.669c3.36,3.841,5.598,8.76,9.608,12.227
			c8.021,6.932,15.876,14.069,24.154,20.679c3.963,3.165,8.56,5.692,13.176,7.849c7.588,3.543,15.451,6.492,23.145,9.813
			c2.522,1.09,3.217-0.06,3.278-2.206c0.107-3.723,0.146-7.448,0.15-11.173C183.928,224.025,183.918,209.943,183.918,195.862z
			 M405.926,255.923c1.761-0.168,2.967-0.022,3.953-0.421c4.554-1.838,9.093-3.728,13.547-5.792c4.1-1.899,8.154-3.918,12.103-6.113
			c5.549-3.086,11.23-6.03,16.385-9.697c4.486-3.192,8.333-7.289,12.437-11.014c3.452-3.134,7.054-6.133,10.258-9.507
			c5.091-5.36,8.553-11.87,11.981-18.35c1.422-2.687,2.835-5.451,3.694-8.344c1.056-3.551,1.53-7.274,2.251-10.925
			c1.9-9.617,1.898-9.549-7.698-9.653c-24.331-0.263-48.661-0.548-72.989-0.933c-5.177-0.082-5.531,0.13-5.552,5.192
			c-0.089,22.173-0.248,44.346-0.364,66.52C405.898,243.086,405.926,249.287,405.926,255.923z M186.303,72.677
			c-0.381-0.315-0.764-0.63-1.146-0.946c-2.011,1.014-3.959,2.187-6.045,3.012c-5.969,2.363-12.019,4.087-17.822,7.376
			c-6.013,3.408-12.272,6.681-18.128,10.385c-6.087,3.849-11.582,8.691-17.077,13.403c-4.316,3.701-8.936,7.369-12.166,11.938
			c-4.5,6.365-8.202,13.382-11.525,20.459c-2.125,4.524-3.126,9.619-4.292,14.538c-0.685,2.891,0.354,4.528,3.947,4.531
			c26.108,0.017,52.217,0.16,78.323,0.482c3.357,0.041,4.091-1.257,4.089-4.065c-0.011-14.086-0.005-28.173,0.048-42.26
			c0.018-4.752,0.085-9.509,0.322-14.253C185.242,89.073,185.804,80.876,186.303,72.677z M407.892,75.618
			c-0.201,1.431-0.384,2.155-0.393,2.881c-0.32,25.746-0.492,51.494-1.059,77.234c-0.094,4.287,1.354,4.855,5.001,4.899
			c25.827,0.314,51.651,0.817,77.478,1.235c1.411,0.022,2.826-0.171,4.489-0.28c-1.362-8.451-2.662-16.236-6.421-23.589
			c-4.125-8.069-9.224-15.305-15.46-21.771c-3.73-3.867-7.525-7.723-11.662-11.134c-5.336-4.399-10.983-8.431-16.624-12.442
			c-1.788-1.272-4.019-1.906-5.984-2.952c-4.331-2.302-8.621-4.683-12.934-7.022c-0.651-0.354-1.479-0.508-1.977-1.004
			C418.431,77.776,413.146,77.434,407.892,75.618z M393.698,259.104c-0.901-0.087-1.961-0.261-3.021-0.278
			c-20.952-0.325-41.903-0.643-62.856-0.938c-10.09-0.141-20.183-0.19-30.271-0.375c-2.491-0.045-3.786,0.864-3.753,3.418
			c0.038,2.983,0.271,5.981,0.052,8.946c-0.232,3.132,1.157,3.854,3.965,3.724c13.81-0.637,27.629-1.101,41.437-1.787
			c2.44-0.122,4.849-0.988,7.26-1.559c2.147-0.509,4.251-1.264,6.422-1.598c8.222-1.27,16.465-2.387,24.692-3.613
			c2.57-0.383,5.25-0.582,7.639-1.495C388.152,262.445,390.788,260.674,393.698,259.104z M195.53,256.544
			c-0.059,0.262-0.117,0.524-0.176,0.787c2.837,0.729,5.682,1.428,8.508,2.196c7.468,2.031,14.928,4.091,22.39,6.144
			c10.768,2.963,21.998,3.112,32.89,5.978c8.606,2.264,18.09,1.11,27.171,1.688c2.86,0.181,3.482-1.12,3.437-3.483
			c-0.067-3.479,0.046-6.973-0.249-10.431c-0.062-0.716-1.564-1.854-2.422-1.872c-10.112-0.229-20.229-0.257-30.343-0.385
			c-14.828-0.188-29.654-0.433-44.482-0.61C206.68,256.488,201.105,256.544,195.53,256.544z M387.175,69.17
			c0.034-0.346,0.066-0.691,0.101-1.037c-29.599-8.788-59.837-13.343-91.139-13.82c0,4.64,0,8.797,0,13.441
			C326.638,68.229,356.906,68.699,387.175,69.17z M205.252,64.601c0.003,0.393,0.007,0.785,0.011,1.178
			c0.813,0.193,1.62,0.514,2.441,0.558c5.961,0.328,11.924,0.79,17.89,0.854c19.234,0.208,38.47,0.284,57.705,0.365
			c9.204,0.039,9.088-0.007,9.134-9.147c0.016-3.153-1.072-4.183-4.147-4.015c-12.091,0.661-24.211,0.902-36.275,1.863
			c-5.496,0.438-10.86,2.339-16.333,3.305C225.554,61.345,215.395,62.931,205.252,64.601z M342.368,236.535
			c-0.716-2.33-1.359-4.631-2.235-6.841c-0.065-0.166-1.918,0.101-2.725,0.554c-2.962,1.662-1.921,4.256-1.709,6.288
			C337.719,236.535,339.378,236.535,342.368,236.535z M263.027,243.719c-0.317,1.927-1.187,4.509-0.712,4.785
			c2.152,1.255,4.683,1.859,6.15,2.372C266.99,248.936,265.292,246.701,263.027,243.719z M367.774,229.761
			c-0.183-0.271-0.365-0.542-0.547-0.813c-0.93,0.402-1.884,0.754-2.781,1.218c-1.209,0.625-2.373,1.335-3.557,2.009
			c0.723,1.22,1.445,2.439,2.38,4.018C365.062,233.635,366.417,231.698,367.774,229.761z M240.22,234.581
			c0.75-1.273,1.197-2.03,1.812-3.074c0.619,1.022,1.02,1.684,1.226,2.023c1.842-1.115,3.463-2.096,5.085-3.077
			c-2.869,1.311-5.018,0.462-6.608-2.056c-1.063,0.993-1.959,1.832-2.954,2.761C239.129,231.989,239.544,232.976,240.22,234.581z
			 M297.436,251.414c1.31-1.541,2.514-2.45,2.867-3.616c0.147-0.487-1.739-2.306-2.306-2.144c-1.152,0.331-2.319,1.451-2.887,2.552
			C294.892,248.631,296.287,249.888,297.436,251.414z M251.584,250.385c4.779-2.853,4.779-2.853,0.146-5.723
			C249.471,246.51,248.373,248.391,251.584,250.385z M346.777,226.387c2.52,2.484,4.857,4.788,7.193,7.091
			c0.001-1.063-0.229-2.485-1.058-3.093c-2.202-1.614-4.162-3.138-3.361-6.484C348.589,224.764,347.625,225.627,346.777,226.387z
			 M226.102,224.497c1.956,1.391,3.097,2.201,4.602,3.271c0.824-1.251,1.759-2.228,2.067-3.373c0.11-0.412-1.36-1.822-1.975-1.743
			C229.406,222.833,228.101,223.657,226.102,224.497z M379.475,245.722c-0.066,4.662-2.866,4.623-6.356,3.902
			c3.629,2.826,6.442,2.851,8.917,0.71C381.277,248.971,380.561,247.678,379.475,245.722z M195,250.601
			c0.251-0.4,0.502-0.801,0.753-1.201c-1.145-1.366-2.289-2.732-3.434-4.098c-0.354,0.141-0.708,0.281-1.063,0.422
			c-0.139,1.123-0.786,2.846-0.313,3.247C191.998,249.864,193.613,250.099,195,250.601z M217.563,237.271
			c-1.568,2.365-3.018,2.376-4.335-0.373c-0.245,0.356-0.491,0.712-0.737,1.068c0.771,1.418,1.543,2.836,2.314,4.254
			C215.738,240.365,220.313,241.419,217.563,237.271z M305.28,236.276c1.421-2.229,2.314-3.628,3.51-5.503
			c-2.535,0.268-4.152,0.438-6.481,0.684C303.218,232.931,303.976,234.159,305.28,236.276z M372.112,205.915
			c-0.182,0.201-0.363,0.401-0.544,0.602c0.259,0.889,0.406,1.83,0.798,2.656c1.306,2.753,2.764,1.784,3.062-0.325
			C375.542,208.041,373.287,206.902,372.112,205.915z M394.099,249.503c-0.011,0.667-0.021,1.334-0.031,2.001
			c1.512,0,3.025,0.019,4.529-0.084c0.048-0.004,0.011-1.25,0.014-1.917C397.106,249.503,395.603,249.503,394.099,249.503z"/>
		<path fill-rule="evenodd" clip-rule="evenodd" d="M535.035,200.662c-2.322-1.662-4.644-3.324-7.653-5.477
			c0,12.256,0,23.669,0,35.792c2.9-2.145,5.182-3.833,7.463-5.52c0.377,0.321,0.754,0.643,1.132,0.964
			c-0.697,2.691-1.257,5.428-2.117,8.066c-2.201,6.757-4.562,13.462-6.779,20.214c-0.248,0.753,0.155,1.699,0.008,2.511
			c-0.184,1.002-0.628,1.956-0.96,2.93c-0.896-0.741-2.312-1.322-2.603-2.254c-1.666-5.326-2.912-10.785-4.604-16.103
			c-1.38-4.34-3.231-8.527-4.761-12.823c-0.288-0.812-0.041-1.813-0.041-3.559c3.28,2.255,5.826,4.006,9.396,6.46
			c-0.473-12.37-0.911-23.819-1.378-36.02c-2.763,1.649-5.094,3.04-8.515,5.082c0.889-3.617,1.377-6.368,2.244-8.993
			c2.409-7.283,4.947-14.524,7.527-21.749c0.232-0.651,1.261-1.578,1.702-1.472c0.787,0.19,1.823,0.951,2.033,1.682
			c1.72,5.965,3.157,12.011,4.919,17.962c0.965,3.258,2.415,6.371,3.591,9.569c0.204,0.552,0.129,1.208,0.182,1.815
			C535.56,200.047,535.297,200.354,535.035,200.662z"/>
		<path fill-rule="evenodd" clip-rule="evenodd" d="M426.913,479.286c0.964-1.653,1.722-2.452,1.921-3.372
			c1.751-8.12,3.293-16.285,5.145-24.38c0.619-2.706,1.752-5.356,3.07-7.805c0.495-0.921,2.178-1.676,3.331-1.692
			c7.224-0.104,14.455-0.093,21.673,0.178c1.277,0.049,2.502,1.501,3.751,2.305c-1.262,0.864-2.502,2.43-3.792,2.472
			c-6.23,0.201-12.476,0.061-18.712-0.104c-2.705-0.071-3.937,0.927-4.547,3.668c-2.527,11.36-5.253,22.677-8.065,33.97
			c-0.25,1.001-1.89,2.558-2.486,2.396c-1.565-0.427-3.431-1.341-4.23-2.643c-1.457-2.37-2.066-5.247-3.379-7.728
			c-0.435-0.822-1.953-1.06-2.961-1.593c-0.789-0.416-2.249-0.978-2.202-1.299c0.14-0.963,0.651-2.151,1.414-2.692
			c2.539-1.797,6.069-0.695,7.371,2.134C425.015,474.843,425.75,476.615,426.913,479.286z"/>
		<path fill-rule="evenodd" clip-rule="evenodd" d="M218.657,441.702c-1.418,0.217-2.837,0.624-4.254,0.615
			c-5.866-0.04-11.734-0.142-17.596-0.358c-2.083-0.077-3.073,0.507-3.581,2.699c-2.094,9.02-4.345,18.004-6.67,26.967
			c-0.966,3.723-2.182,7.389-3.485,11.009c-0.236,0.656-1.463,1.369-2.194,1.329c-0.929-0.05-2.26-0.61-2.645-1.352
			c-1.521-2.931-2.655-6.061-4.122-9.022c-0.422-0.853-1.387-1.55-2.258-2.041c-1.149-0.647-2.451-1.022-3.566-1.467
			c0.814-0.913,1.495-1.714,2.215-2.478c2.653-2.812,3.279-2.734,5.567,0.439c1.51,2.095,3.115,4.121,4.793,6.33
			c0.192-0.376,0.697-1.02,0.868-1.742c2.136-9.031,4.376-18.043,6.267-27.128c1.211-5.82,1.729-6.565,7.724-6.586
			c6.246-0.021,12.496-0.045,18.737,0.154c1.488,0.048,2.948,0.978,4.421,1.502C218.805,440.95,218.731,441.326,218.657,441.702z"/>
		<path fill-rule="evenodd" clip-rule="evenodd" d="M436.112,403.654c5.663-1.72,8.967-0.953,10.889,2.08
			c2.889,4.556,2.539,12.351-0.485,15.82c-2.437,2.795-5.005,4.084-8.771,2.646c-2.168-0.828-5.495-0.195-6.675-1.593
			c-1.187-1.405-0.403-4.512-0.402-6.873c0.004-5.74-0.083-11.488,0.201-17.217c0.056-1.137,1.602-2.2,2.461-3.298
			c0.927,1.088,2.261,2.043,2.674,3.3C436.472,399.939,436.112,401.631,436.112,403.654z M444.396,414.28
			c0-0.968,0.035-1.591-0.007-2.209c-0.182-2.645-1.018-5.178-4.038-5.177c-2.926,0.001-4.031,2.413-4.339,5.087
			c-0.071,0.615-0.077,1.24-0.074,1.86c0.016,3.835,1.725,6.075,4.664,5.753C443.938,419.229,444.746,416.905,444.396,414.28z"/>
		<path fill-rule="evenodd" clip-rule="evenodd" d="M448.081,478.665c1.143,0.445,2.099,1.073,3.101,1.154
			c1.98,0.162,4.025-0.218,5.964,0.104c1.005,0.167,1.841,1.354,2.754,2.078c-0.835,1.035-1.616,2.905-2.513,2.963
			c-4.589,0.294-9.214,0.255-13.81,0.011c-1.075-0.057-2.751-1.212-2.957-2.129c-0.266-1.184,0.279-3.028,1.157-3.903
			c3.358-3.35,7.317-6.146,10.374-9.728c1.402-1.644,1.63-4.641,1.558-7c-0.025-0.801-2.551-1.947-4.031-2.126
			c-0.905-0.11-2.277,1.126-2.948,2.097c-1.431,2.07-3.15,3.031-5.076,1.233c-0.493-0.46,0.253-2.913,1.054-3.983
			c3.347-4.464,10.177-5.271,14.514-1.932c2.699,2.079,3.164,10.179,0.48,12.805C454.902,473.05,451.792,475.471,448.081,478.665z"
			/>
		<path fill-rule="evenodd" clip-rule="evenodd" d="M202.458,411.346c0.117,1.97,0.178,3.945,0.363,5.909
			c0.273,2.874-1.188,4.164-3.729,2.821c-1.731-0.915-2.85-0.922-4.698-0.12c-5.362,2.329-11.485-1.53-10.741-6.619
			c0.191-1.309,1.328-2.964,2.489-3.547c2.683-1.349,5.663-2.097,8.488-3.182c0.696-0.268,1.256-0.889,1.879-1.348
			c-0.609-0.629-1.34-1.873-1.807-1.78c-1.929,0.381-3.749,1.275-5.664,1.771c-1.466,0.378-3.014,0.439-4.526,0.642
			c0.467-1.298,0.632-2.855,1.472-3.834c1.25-1.457,2.798-2.945,4.532-3.646c5.38-2.173,11.147,1.527,11.781,7.327
			c0.204,1.855,0.253,3.728,0.374,5.593C202.601,411.337,202.53,411.342,202.458,411.346z M192.927,410.636
			c-1.809,1.434-3.054,2.422-4.3,3.408c1.138,0.925,2.446,2.751,3.375,2.574c1.6-0.303,2.964-1.853,4.427-2.879
			C195.445,412.867,194.46,411.995,192.927,410.636z"/>
		<path fill-rule="evenodd" clip-rule="evenodd" d="M558.532,90.101c0.013-0.003,0.481-0.264,0.933-0.238
			c1.545,0.091,3.084,0.283,4.624,0.437c-0.234,1.917-0.341,3.861-0.746,5.741c-0.279,1.296-0.971,2.505-1.646,4.165
			c1.451,0,2.055,0.036,2.653-0.005c6.967-0.484,9.389,2.288,7.957,9.124c-1.295,6.187-9.125,12.321-14.816,11.607
			c-3.961-0.497-5.675-3.525-4.277-7.285c0.598-1.607,0.726-3.383,1.271-5.015c1.284-3.843,2.914-7.584,3.955-11.487
			C558.97,95.15,558.532,92.898,558.532,90.101z M557.521,116.598c3.45,1.208,6.246,0.075,7.643-2.177
			c1.382-2.229,1.951-5.287,1.92-7.97c-0.027-2.268-2.832-2.758-4.936-1.277C558.092,108.029,558.931,112.621,557.521,116.598z"/>
		<path fill-rule="evenodd" clip-rule="evenodd" d="M197.139,462.025c-3.223-3.518-2.819-6.326,0.853-8.208
			c1.629-0.836,3.219-1.926,4.96-2.328c3.786-0.876,6.613,1.696,8.338,4.208c1.287,1.874,1.16,5.23,0.62,7.697
			c-0.493,2.249-2.113,4.45-3.749,6.191c-1.626,1.732-3.89,2.865-5.801,5.208c1.323,0.146,2.644,0.326,3.97,0.431
			c1.478,0.114,3.144-0.226,4.384,0.36c0.979,0.464,1.437,2.028,2.126,3.104c-0.934,0.504-1.855,1.411-2.806,1.442
			c-4.365,0.143-8.74-0.029-13.108,0.054c-2.268,0.043-3.286-1.303-2.478-2.982c1.193-2.474,2.906-4.79,4.777-6.824
			c2.669-2.898,5.93-5.279,8.394-8.321c0.719-0.887-0.415-4.744-0.702-4.745c-2.505-0.003-5.107,0.283-7.472,1.092
			C198.478,458.736,198.021,460.563,197.139,462.025z"/>
		<path fill-rule="evenodd" clip-rule="evenodd" d="M468.861,440.372c-8.216,0-16.312,0.021-24.406-0.005
			c-10.246-0.033-20.491-0.113-30.736-0.149c-1.928-0.008-4.16,0.136-4.076-2.531c0.082-2.583,2.241-2.436,4.212-2.403
			c9.351,0.154,18.705,0.151,28.054,0.37c7.967,0.186,15.927,0.661,23.893,0.865C468.109,436.577,469.459,437.112,468.861,440.372z"
			/>
		<path fill-rule="evenodd" clip-rule="evenodd" d="M357.637,437.826c0.858-1.592,1.803-3.145,2.552-4.785
			c0.826-1.807,1.346-3.763,2.26-5.518c0.382-0.731,1.437-1.112,2.186-1.653c0.487,0.895,1.527,1.906,1.367,2.664
			c-0.763,3.618-1.585,7.268-2.892,10.715c-1.699,4.481-3.977,8.738-5.811,13.173c-1.324,3.202-3.885,3.106-6.493,2.676
			c-0.636-0.105-1.535-1.402-1.499-2.109c0.048-0.945,0.656-2.293,1.43-2.7c3.961-2.087,4.481-4.359,2.571-8.589
			c-1.817-4.027-3.159-8.297-4.341-12.563c-0.257-0.931,1.06-2.297,1.651-3.462c1.07,0.849,2.648,1.483,3.111,2.587
			c1.194,2.846,1.896,5.898,2.795,8.869C356.896,437.362,357.266,437.595,357.637,437.826z"/>
		<path fill-rule="evenodd" clip-rule="evenodd" d="M208.109,341.069c-0.32,5.146-5.711,9.567-2.3,15.589
			c-2.087,2.118-4.007,4.893-7.794,2.034c-0.517-0.391-1.786-0.267-2.443,0.097c-2.625,1.453-5.86,1.561-7.021-0.767
			c-1.158-2.322-1.271-6.085-0.182-8.452C193.443,338.542,198.792,340.102,208.109,341.069z M202.363,346.549
			c-1.025-1.9-1.793-4.094-2.252-4.031c-1.522,0.209-3.447,0.862-4.277,2.019c-1.552,2.164-2.553,4.758-3.555,7.264
			c-0.383,0.959-0.58,2.767-0.086,3.129c0.854,0.624,2.954,0.985,3.409,0.469C198.02,352.655,200.088,349.605,202.363,346.549z"/>
		<path fill-rule="evenodd" clip-rule="evenodd" d="M120.026,442.797c-3.942,1.18-6.036,0.087-7.615-2.379
			c-1.519-2.373-3.027-2.093-4.632-0.032c-0.588,0.754-1.316,1.54-2.157,1.923c-1.025,0.466-2.237,0.522-3.369,0.756
			c0.284-1.036,0.419-2.145,0.884-3.092c1.032-2.099,2.954-4.05,3.151-6.188c0.19-2.05-1.272-4.288-2.148-6.385
			c-0.323-0.771-1.399-1.329-1.498-2.069c-0.126-0.952,0.208-2.1,0.726-2.923c0.161-0.256,1.791-0.001,2.363,0.479
			c5.283,4.44,5.235,4.442,10.406,0.075c0.582-0.491,1.606-0.461,2.425-0.672c0.248,1.012,0.882,2.13,0.64,3.006
			c-0.269,0.974-1.302,1.76-2.061,2.572c-3.602,3.853-3.508,7.291,0.183,11.061C118.276,439.902,118.915,441.182,120.026,442.797z"
			/>
		<path fill-rule="evenodd" clip-rule="evenodd" d="M550.289,226.134c0.391-1.042,0.501-2.942,1.474-3.636
			c2.949-2.104,3.575-4.673,3.25-8.096c-0.488-5.155-0.202-10.434-4.332-14.529c6.145-2.585,7.997-1.52,8.609,4.483
			c0.24,2.352,0.507,4.701,0.794,7.048c0.024,0.197,0.301,0.364,0.463,0.542c4.242-2.006,5.502-4.726,4.639-9.491
			c-0.18-0.991,0.052-2.22,0.538-3.092c0.213-0.382,1.931-0.498,2.286-0.11c0.838,0.909,2.043,2.517,1.729,3.272
			c-1.588,3.818-3.485,7.528-5.548,11.12c-0.929,1.62-2.361,3.031-3.797,4.268C557.188,220.675,553.835,223.268,550.289,226.134z"/>
		<path fill-rule="evenodd" clip-rule="evenodd" d="M341.113,342.546c3.749-0.21,6.941-1.999,8.568,2.207
			c0.039,0.102,2.118-0.642,3.266-0.898c1.779-0.398,3.57-0.88,5.367-0.931c0.354-0.01,1.092,1.801,1.021,2.724
			c-0.048,0.612-1.141,1.339-1.911,1.646c-0.769,0.305-1.748,0.028-2.588,0.218c-2.983,0.673-4.003,3.09-2.724,6.047
			c0.437,1.01,0.608,2.135,0.935,3.329c1.146,0.149,2.276,0.297,3.875,0.505c-1.907,2.952-2.868,6.348-7.431,4.746
			c-0.127-0.431-0.196-1.057-0.485-1.555c-0.511-0.881-1.155-1.682-1.743-2.517c-0.707,0.602-1.758,1.066-2.06,1.829
			c-1.066,2.684-2.95,2.999-5.396,2.331c-1.267-2.655-0.648-4.445,2.359-4.837c3.482-0.452,4.167-3.45,4.232-5.728
			c0.068-2.332,0.497-5.674-3.105-6.786C342.631,344.672,342.193,343.737,341.113,342.546z"/>
		<path fill-rule="evenodd" clip-rule="evenodd" d="M162.973,433.809c1.146-0.557,2.297-1.603,3.439-1.593
			c9.613,0.079,19.226,0.353,28.838,0.563c7.836,0.173,15.673,0.337,23.51,0.512c0.748,0.016,1.594-0.121,2.215,0.183
			c0.737,0.359,1.279,1.118,1.906,1.704c-0.654,0.398-1.302,1.128-1.963,1.14c-3.736,0.072-7.478,0.009-11.216-0.076
			c-14.093-0.32-28.186-0.665-42.279-1.009c-1.338-0.032-2.676-0.114-4.014-0.174C163.264,434.642,163.119,434.225,162.973,433.809z
			"/>
		<path fill-rule="evenodd" clip-rule="evenodd" d="M142.315,438.976c-2.605,0-5.235,0.211-7.802-0.101
			c-1.061-0.128-1.987-1.374-2.975-2.112c0.968-0.674,1.924-1.903,2.908-1.928c5.204-0.129,10.42-0.048,15.619,0.217
			c0.805,0.04,1.541,1.408,2.309,2.162c-0.748,0.596-1.458,1.639-2.25,1.705c-2.586,0.219-5.203,0.082-7.808,0.082
			C142.316,438.993,142.316,438.984,142.315,438.976z"/>
		<path fill-rule="evenodd" clip-rule="evenodd" d="M132.155,431.872c-0.027-2.942,1.157-3.849,3.465-3.796
			c4.358,0.101,8.719,0.112,13.078,0.065c2.362-0.026,3.504,0.908,3.135,3.73C145.38,431.872,138.896,431.872,132.155,431.872z"/>
		<path fill-rule="evenodd" clip-rule="evenodd" d="M400.095,435.127c-7.263,0-13.423,0.029-19.583-0.055
			c-0.527-0.007-1.045-0.771-1.566-1.185c0.488-0.591,0.971-1.691,1.466-1.696c5.831-0.067,11.666-0.021,17.494,0.169
			C398.436,432.378,398.927,433.603,400.095,435.127z"/>
		<path fill-rule="evenodd" clip-rule="evenodd" d="M398.822,441.91c-5.953,0-11.906,0.05-17.856-0.068
			c-0.673-0.014-1.327-0.977-1.99-1.5c0.716-0.492,1.422-1.396,2.147-1.412c5.099-0.113,10.204-0.127,15.301,0.04
			c1.007,0.033,1.984,0.985,2.976,1.515C399.207,440.96,399.015,441.436,398.822,441.91z"/>
		<path fill-rule="evenodd" clip-rule="evenodd" d="M97.354,247.706c-1.507,1.167-2.329,2.231-3.295,2.384
			c-0.536,0.085-1.912-1.418-1.837-2.086c0.104-0.93,1.103-2.282,1.924-2.451C94.865,245.405,95.868,246.644,97.354,247.706z"/>
		<path fill-rule="evenodd" clip-rule="evenodd" d="M92.204,192.387c0.803-0.523,1.759-1.604,2.375-1.436
			c0.857,0.233,2.096,1.477,2.015,2.149c-0.107,0.886-1.269,2.203-2.1,2.301c-1.031,0.123-2.188-0.812-3.29-1.291
			C91.538,193.537,91.871,192.962,92.204,192.387z"/>
		<path fill-rule="evenodd" clip-rule="evenodd" d="M97.862,217.677c-1.771,1.077-2.663,2.028-3.548,2.021
			c-0.642-0.005-1.893-1.415-1.772-1.952c0.197-0.878,1.203-2.022,2.03-2.175C95.273,215.44,96.205,216.553,97.862,217.677z"/>
		<path fill-rule="evenodd" clip-rule="evenodd" d="M94.104,257.539c-0.975-1.624-2.013-2.613-1.823-3.214
			c0.28-0.887,1.34-1.779,2.264-2.088c0.381-0.127,1.838,1.301,1.784,1.937C96.252,255.087,95.243,255.922,94.104,257.539z"/>
		<path fill-rule="evenodd" clip-rule="evenodd" d="M511.813,55.838c-1.156,0.386-2.299,0.93-3.479,1.029
			c-0.25,0.021-0.639-1.575-0.963-2.426c1.303-0.214,2.606-0.428,3.909-0.643C511.458,54.479,511.636,55.158,511.813,55.838z"/>
		<path fill-rule="evenodd" clip-rule="evenodd" d="M96.973,315.544c-1.655,1.037-2.52,2.012-3.193,1.894
			c-0.898-0.158-1.648-1.164-2.462-1.807c0.72-0.722,1.382-1.933,2.177-2.027C94.301,313.507,95.239,314.513,96.973,315.544z"/>
		<path fill-rule="evenodd" clip-rule="evenodd" d="M94.578,220.809c0.992,1.625,1.936,2.484,1.829,3.181
			c-0.115,0.75-1.218,1.346-1.889,2.009c-0.646-0.687-1.712-1.318-1.815-2.08C92.608,223.229,93.563,222.396,94.578,220.809z"/>
		<path fill-rule="evenodd" clip-rule="evenodd" d="M94.237,281.661c0.759,1.394,1.674,2.315,1.498,2.921
			c-0.294,1.013-1.285,1.824-1.982,2.719c-0.629-0.912-1.704-1.804-1.748-2.744C91.97,283.792,93.168,282.969,94.237,281.661z"/>
		<path fill-rule="evenodd" clip-rule="evenodd" d="M538.538,58.111c0.094-1.277,0.188-2.554,0.282-3.831
			c1.012,0.24,2.025,0.48,3.037,0.72c-0.49,1.16-0.98,2.32-1.472,3.48C539.77,58.358,539.154,58.235,538.538,58.111z"/>
		<path fill-rule="evenodd" clip-rule="evenodd" d="M92.793,293.55c0-1.392,0-2.782,0-4.174c0.806,0.005,1.612,0.011,2.418,0.015
			c-0.224,1.422-0.448,2.843-0.673,4.264C93.957,293.62,93.375,293.585,92.793,293.55z"/>
		<path fill-rule="evenodd" clip-rule="evenodd" d="M97.007,278.75c-1.551,0.938-2.364,1.789-3.185,1.796
			c-0.519,0.004-1.484-1.269-1.454-1.934c0.032-0.702,1.06-1.95,1.56-1.907C94.759,276.777,95.518,277.692,97.007,278.75z"/>
		<path fill-rule="evenodd" clip-rule="evenodd" d="M404.852,271.083c-1.325,0.84-2.101,1.679-2.906,1.707
			c-0.452,0.017-1.421-1.383-1.316-2.002c0.141-0.824,1.099-1.51,1.705-2.255C402.997,269.205,403.661,269.877,404.852,271.083z"/>
		<path fill-rule="evenodd" clip-rule="evenodd" d="M503.861,57.884c-1.53-1.31-2.269-1.941-3.214-2.75
			c0.81-0.847,1.528-1.598,2.402-2.513c0.688,0.625,1.615,1.081,1.63,1.564C504.711,55.205,504.264,56.239,503.861,57.884z"/>
		<path fill-rule="evenodd" clip-rule="evenodd" fill="#FFFFFF" d="M183.918,195.862c0,14.081,0.01,28.163-0.006,42.244
			c-0.004,3.725-0.043,7.45-0.15,11.173c-0.061,2.146-0.756,3.296-3.278,2.206c-7.694-3.321-15.557-6.27-23.145-9.813
			c-4.617-2.157-9.213-4.684-13.176-7.849c-8.278-6.61-16.134-13.748-24.154-20.679c-4.011-3.466-6.249-8.385-9.608-12.227
			c-5.348-6.112-7.225-13.68-10.173-20.669c-2.234-5.297-1.937-11.696-2.46-17.632c-0.054-0.606,1.983-2.003,3.058-2.012
			c13.071-0.1,26.146-0.042,39.218,0.042c12.984,0.083,25.967,0.267,38.952,0.353c5.854,0.039,5.297,0.438,5.15,4.978
			c-0.323,9.952-0.1,19.922-0.1,29.885C184.003,195.862,183.961,195.862,183.918,195.862z"/>
		<path fill-rule="evenodd" clip-rule="evenodd" fill="#FFFFFF" d="M405.926,255.923c0-6.636-0.027-12.837,0.005-19.037
			c0.116-22.173,0.275-44.346,0.364-66.52c0.021-5.062,0.375-5.274,5.552-5.192c24.328,0.385,48.658,0.67,72.989,0.933
			c9.597,0.104,9.599,0.037,7.698,9.653c-0.721,3.65-1.195,7.374-2.251,10.925c-0.859,2.894-2.272,5.657-3.694,8.344
			c-3.429,6.479-6.891,12.99-11.981,18.35c-3.204,3.374-6.806,6.373-10.258,9.507c-4.104,3.725-7.95,7.821-12.437,11.014
			c-5.154,3.667-10.836,6.611-16.385,9.697c-3.948,2.195-8.003,4.214-12.103,6.113c-4.454,2.064-8.993,3.954-13.547,5.792
			C408.893,255.9,407.687,255.755,405.926,255.923z"/>
		<path fill-rule="evenodd" clip-rule="evenodd" fill="#FFFFFF" d="M186.303,72.677c-0.499,8.199-1.061,16.396-1.472,24.601
			c-0.237,4.745-0.304,9.501-0.322,14.253c-0.054,14.086-0.06,28.173-0.048,42.26c0.002,2.808-0.732,4.106-4.089,4.065
			c-26.106-0.322-52.215-0.465-78.323-0.482c-3.594-0.002-4.632-1.64-3.947-4.531c1.166-4.919,2.167-10.014,4.292-14.538
			c3.323-7.077,7.025-14.094,11.525-20.459c3.23-4.569,7.85-8.238,12.166-11.938c5.495-4.712,10.989-9.554,17.077-13.403
			c5.856-3.704,12.115-6.977,18.128-10.385c5.803-3.289,11.854-5.013,17.822-7.376c2.086-0.825,4.035-1.998,6.045-3.012
			C185.539,72.047,185.921,72.362,186.303,72.677z"/>
		<path fill-rule="evenodd" clip-rule="evenodd" fill="#FFFFFF" d="M407.892,75.618c5.255,1.816,10.539,2.158,14.455,6.055
			c0.498,0.496,1.325,0.65,1.977,1.004c4.313,2.339,8.603,4.72,12.934,7.022c1.966,1.045,4.196,1.679,5.984,2.952
			c5.641,4.012,11.288,8.043,16.624,12.442c4.137,3.411,7.932,7.267,11.662,11.134c6.236,6.466,11.335,13.701,15.46,21.771
			c3.759,7.353,5.059,15.138,6.421,23.589c-1.663,0.109-3.078,0.302-4.489,0.28c-25.826-0.418-51.65-0.921-77.478-1.235
			c-3.647-0.044-5.095-0.612-5.001-4.899c0.566-25.74,0.738-51.488,1.059-77.234C407.508,77.773,407.69,77.048,407.892,75.618z"/>
		<path fill-rule="evenodd" clip-rule="evenodd" fill="#FFFFFF" d="M393.698,259.104c-2.91,1.57-5.546,3.342-8.437,4.445
			c-2.389,0.913-5.068,1.112-7.639,1.495c-8.228,1.227-16.471,2.344-24.692,3.613c-2.171,0.334-4.274,1.089-6.422,1.598
			c-2.411,0.57-4.819,1.437-7.26,1.559c-13.808,0.687-27.627,1.15-41.437,1.787c-2.808,0.13-4.197-0.592-3.965-3.724
			c0.219-2.965-0.015-5.963-0.052-8.946c-0.032-2.554,1.262-3.463,3.753-3.418c10.089,0.185,20.182,0.234,30.271,0.375
			c20.953,0.295,41.904,0.612,62.856,0.938C391.737,258.843,392.797,259.017,393.698,259.104z"/>
		<path fill-rule="evenodd" clip-rule="evenodd" fill="#FFFFFF" d="M195.53,256.544c5.575,0,11.15-0.056,16.724,0.011
			c14.828,0.178,29.654,0.423,44.482,0.61c10.115,0.128,20.231,0.156,30.343,0.385c0.858,0.019,2.361,1.156,2.422,1.872
			c0.294,3.458,0.181,6.951,0.249,10.431c0.045,2.363-0.577,3.664-3.437,3.483c-9.081-0.577-18.565,0.576-27.171-1.688
			c-10.892-2.865-22.122-3.015-32.89-5.978c-7.462-2.053-14.922-4.112-22.39-6.144c-2.826-0.769-5.671-1.467-8.508-2.196
			C195.413,257.068,195.472,256.806,195.53,256.544z"/>
		<path fill-rule="evenodd" clip-rule="evenodd" fill="#FFFFFF" d="M387.175,69.17c-30.269-0.471-60.537-0.941-91.038-1.416
			c0-4.645,0-8.802,0-13.441c31.302,0.478,61.54,5.033,91.139,13.82C387.241,68.479,387.209,68.824,387.175,69.17z"/>
		<path fill-rule="evenodd" clip-rule="evenodd" fill="#FFFFFF" d="M205.252,64.601c10.143-1.669,20.302-3.255,30.424-5.041
			c5.472-0.966,10.836-2.867,16.333-3.305c12.064-0.96,24.184-1.202,36.275-1.863c3.076-0.167,4.163,0.862,4.147,4.015
			c-0.046,9.14,0.07,9.187-9.134,9.147c-19.235-0.081-38.471-0.157-57.705-0.365c-5.966-0.063-11.928-0.526-17.89-0.854
			c-0.821-0.044-1.628-0.365-2.441-0.558C205.259,65.386,205.255,64.993,205.252,64.601z"/>
		<path fill-rule="evenodd" clip-rule="evenodd" fill="#FFFFFF" d="M342.368,236.535c-2.99,0-4.649,0-6.669,0
			c-0.212-2.031-1.253-4.625,1.709-6.288c0.807-0.453,2.659-0.72,2.725-0.554C341.009,231.904,341.652,234.206,342.368,236.535z"/>
		<path fill-rule="evenodd" clip-rule="evenodd" fill="#FFFFFF" d="M345.763,250.635c2.591-0.467,5.292-1.61,7.741-1.21
			c2.454,0.401,2.46-1.199,3.447-2.21c0.682-0.697,1.713-1.052,2.589-1.56c0.492,0.85,0.983,1.7,1.262,2.18
			c-1.789,1.297-2.994,2.639-4.482,3.132c-1.896,0.627-4.026,0.791-6.044,0.732c-1.483-0.043-2.947-0.765-4.419-1.184
			L345.763,250.635z"/>
		<path fill-rule="evenodd" clip-rule="evenodd" fill="#FFFFFF" d="M263.027,243.719c2.266,2.982,3.963,5.217,5.438,7.157
			c-1.467-0.513-3.998-1.117-6.15-2.372C261.84,248.228,262.709,245.646,263.027,243.719z"/>
		<path fill-rule="evenodd" clip-rule="evenodd" fill="#FFFFFF" d="M367.774,229.761c-1.357,1.937-2.713,3.874-4.505,6.432
			c-0.935-1.578-1.657-2.798-2.38-4.018c1.184-0.674,2.348-1.385,3.557-2.009c0.897-0.464,1.852-0.816,2.781-1.218
			C367.409,229.219,367.592,229.49,367.774,229.761z"/>
		<path fill-rule="evenodd" clip-rule="evenodd" fill="#FFFFFF" d="M240.22,234.581c-0.676-1.605-1.09-2.592-1.439-3.422
			c0.995-0.929,1.891-1.768,2.954-2.761c1.59,2.519,3.739,3.367,6.608,2.056c-1.622,0.981-3.243,1.961-5.085,3.077
			c-0.206-0.34-0.606-1.001-1.226-2.023C241.417,232.551,240.97,233.308,240.22,234.581z"/>
		<path fill-rule="evenodd" clip-rule="evenodd" fill="#FFFFFF" d="M297.436,251.414c-1.148-1.526-2.544-2.783-2.325-3.208
			c0.567-1.101,1.734-2.221,2.887-2.552c0.566-0.163,2.453,1.656,2.306,2.144C299.949,248.964,298.745,249.873,297.436,251.414z"/>
		<path fill-rule="evenodd" clip-rule="evenodd" fill="#FFFFFF" d="M251.584,250.385c-3.211-1.994-2.113-3.875,0.146-5.723
			C256.363,247.532,256.363,247.532,251.584,250.385z"/>
		<path fill-rule="evenodd" clip-rule="evenodd" fill="#FFFFFF" d="M346.777,226.387c0.848-0.76,1.812-1.623,2.774-2.486
			c-0.801,3.346,1.159,4.87,3.361,6.484c0.829,0.607,1.059,2.03,1.058,3.093C351.635,231.174,349.297,228.871,346.777,226.387z"/>
		<path fill-rule="evenodd" clip-rule="evenodd" fill="#FFFFFF" d="M226.102,224.497c1.999-0.839,3.305-1.664,4.693-1.844
			c0.615-0.08,2.085,1.331,1.975,1.743c-0.308,1.145-1.243,2.122-2.067,3.373C229.198,226.698,228.058,225.887,226.102,224.497z"/>
		<path fill-rule="evenodd" clip-rule="evenodd" fill="#FFFFFF" d="M379.475,245.722c1.086,1.956,1.803,3.249,2.561,4.612
			c-2.475,2.141-5.288,2.116-8.917-0.71C376.608,250.345,379.408,250.384,379.475,245.722z"/>
		<path fill-rule="evenodd" clip-rule="evenodd" fill="#FFFFFF" d="M345.856,250.516c-2.42,0.444-4.84,0.889-7.03,1.291
			c-0.16-2.113-0.299-3.944-0.507-6.694c0.883,1.309,1.378,1.822,1.615,2.434c0.748,1.932,1.716,3.22,4.112,2.313
			c0.414-0.157,1.135,0.496,1.715,0.775C345.763,250.635,345.856,250.516,345.856,250.516z"/>
		<path fill-rule="evenodd" clip-rule="evenodd" fill="#FFFFFF" d="M195,250.601c-1.387-0.502-3.001-0.736-4.056-1.63
			c-0.473-0.401,0.174-2.124,0.313-3.247c0.354-0.141,0.709-0.281,1.063-0.422c1.145,1.365,2.29,2.731,3.434,4.098
			C195.502,249.8,195.25,250.2,195,250.601z"/>
		<path fill-rule="evenodd" clip-rule="evenodd" fill="#FFFFFF" d="M217.563,237.271c2.75,4.148-1.826,3.094-2.758,4.95
			c-0.771-1.418-1.543-2.836-2.314-4.254c0.246-0.356,0.492-0.712,0.737-1.068C214.545,239.646,215.995,239.636,217.563,237.271z"/>
		<path fill-rule="evenodd" clip-rule="evenodd" fill="#FFFFFF" d="M226.353,233.833c-0.081-0.88-0.162-1.761-0.243-2.641
			c-0.258-0.029-0.517-0.059-0.775-0.088c-0.4,0.907-0.8,1.816-1.378,3.125c-0.823-1.639-1.515-3.019-2.616-5.211
			c2.521,0.822,4.635,1.511,6.749,2.201c-0.61,0.838-1.22,1.677-1.83,2.515L226.353,233.833z"/>
		<path fill-rule="evenodd" clip-rule="evenodd" fill="#FFFFFF" d="M305.28,236.276c-1.305-2.117-2.063-3.345-2.972-4.819
			c2.329-0.246,3.946-0.416,6.481-0.684C307.595,232.647,306.701,234.047,305.28,236.276z"/>
		<path fill-rule="evenodd" clip-rule="evenodd" fill="#FFFFFF" d="M372.112,205.915c1.175,0.988,3.43,2.126,3.315,2.933
			c-0.298,2.109-1.756,3.078-3.062,0.325c-0.392-0.826-0.539-1.768-0.798-2.656C371.749,206.315,371.931,206.115,372.112,205.915z"
			/>
		<path fill-rule="evenodd" clip-rule="evenodd" fill="#FFFFFF" d="M226.259,233.732c0.852,0.474,2.219,1.549,2.477,1.329
			c2.61-2.235,2.783,0.582,4.05,1.185c-1.753,0.261-3.144,0.689-4.501,0.599c-1.07-0.072-2.097-0.783-3.144-1.21
			c0.41-0.595,0.82-1.188,1.221-1.792C226.353,233.833,226.259,233.732,226.259,233.732z"/>
		<path fill-rule="evenodd" clip-rule="evenodd" fill="#FFFFFF" d="M394.099,249.503c1.504,0,3.008,0,4.512,0
			c-0.003,0.667,0.034,1.913-0.014,1.917c-1.504,0.103-3.018,0.084-4.529,0.084C394.077,250.837,394.088,250.17,394.099,249.503z"/>
		<path fill-rule="evenodd" clip-rule="evenodd" fill="#FFFFFF" d="M444.396,414.28c0.35,2.625-0.459,4.949-3.794,5.314
			c-2.939,0.322-4.648-1.918-4.664-5.753c-0.003-0.62,0.003-1.245,0.074-1.86c0.308-2.674,1.413-5.086,4.339-5.087
			c3.021-0.001,3.856,2.532,4.038,5.177C444.432,412.689,444.396,413.313,444.396,414.28z"/>
		<path fill-rule="evenodd" clip-rule="evenodd" fill="#FFFFFF" d="M192.927,410.636c1.533,1.359,2.518,2.231,3.501,3.104
			c-1.463,1.026-2.827,2.576-4.427,2.879c-0.929,0.177-2.237-1.649-3.375-2.574C189.873,413.058,191.119,412.069,192.927,410.636z"
			/>
		<path fill-rule="evenodd" clip-rule="evenodd" fill="#FFFFFF" d="M557.521,116.598c1.409-3.978,0.57-8.569,4.627-11.424
			c2.104-1.48,4.908-0.991,4.936,1.277c0.031,2.683-0.538,5.74-1.92,7.97C563.768,116.673,560.972,117.807,557.521,116.598z"/>
		<path fill-rule="evenodd" clip-rule="evenodd" fill="#FFFFFF" d="M202.363,346.549c-2.274,3.057-4.343,6.106-6.761,8.849
			c-0.456,0.517-2.556,0.155-3.409-0.469c-0.494-0.362-0.297-2.17,0.086-3.129c1.002-2.506,2.003-5.1,3.555-7.264
			c0.83-1.156,2.754-1.81,4.277-2.019C200.569,342.455,201.337,344.648,202.363,346.549z"/>
	</g>
</g>
</svg>
