<?xml version="1.0" encoding="utf-8"?>
<!-- Generator: Adobe Illustrator 16.0.0, SVG Export Plug-In . SVG Version: 6.00 Build 0)  -->
<!DOCTYPE svg PUBLIC "-//W3C//DTD SVG 1.1//EN" "http://www.w3.org/Graphics/SVG/1.1/DTD/svg11.dtd">
<svg version="1.1" id="Layer_1" xmlns="http://www.w3.org/2000/svg" xmlns:xlink="http://www.w3.org/1999/xlink" x="0px" y="0px"
	 width="620.337px" height="380.303px" viewBox="0 0 620.337 380.303" enable-background="new 0 0 620.337 380.303"
	 xml:space="preserve">
<g>
	<g>
		<path fill-rule="evenodd" clip-rule="evenodd" fill="#FFFFFF" d="M0.75,0.75c206.779,0,413.558,0,620.337,0
			c0,126.768,0,253.535,0,380.303c-206.779,0-413.558,0-620.337,0C0.75,254.285,0.75,127.518,0.75,0.75z M466.821,264.072
			c-3.764-5.355-6.639-9.676-9.754-13.817c-3.777-5.018-7.784-9.861-11.64-14.821c-3.046-3.916-6.004-7.901-9.017-11.844
			c-3.771-4.936-7.568-9.851-11.335-14.787c-4.175-5.47-8.276-10.995-12.509-16.42c-3.128-4.01-6.521-7.816-9.602-11.862
			c-3.271-4.299-6.234-8.832-9.468-13.162c-4.756-6.37-9.616-12.664-14.465-18.965c-2.503-3.252-5.233-6.338-7.572-9.7
			c-2.244-3.227-3.848-6.915-6.211-10.039c-4.003-5.294-8.501-10.211-12.562-15.464c-2.88-3.725-5.259-7.835-8.089-11.601
			c-2.462-3.274-5.357-6.218-7.859-9.464c-5.872-7.616-11.631-15.32-17.419-23c-2.004-2.658-3.974-5.344-5.937-8.033
			c-0.408-0.558-0.644-1.251-1.087-1.773c-3.311-3.9-6.767-7.682-9.954-11.679c-3.067-3.847-5.9-7.883-8.774-11.879
			c-2.323-3.229-6.247-5.491-6.045-10.304c0.029-0.67-1.371-1.933-2.193-2.009c-2.772-0.254-5.582-0.097-8.506-0.097
			c0.079,4.391-1.709,7.045-4.161,9.813c-4.922,5.563-9.249,11.653-13.805,17.538c-1.516,1.958-3.011,3.93-4.465,5.933
			c-2.258,3.11-4.34,6.36-6.736,9.359c-5.325,6.665-10.851,13.168-16.191,19.82c-3.468,4.321-6.702,8.829-10.133,13.179
			c-3.556,4.509-7.274,8.891-10.827,13.404c-2.479,3.147-4.709,6.489-7.205,9.623c-4.484,5.632-9.068,11.187-13.642,16.749
			c-2.945,3.581-5.849,7.203-8.949,10.646c-2.54,2.82-6.481,4.95-7.776,8.194c-2.276,5.703-7.002,9.215-10.242,13.978
			c-2.483,3.652-5.75,6.763-8.584,10.184c-4.115,4.967-8.146,10.004-12.227,15c-3.804,4.657-7.666,9.271-11.424,13.964
			c-1.7,2.123-3.105,4.482-4.832,6.581c-3.712,4.514-7.674,8.826-11.294,13.41c-3.499,4.431-6.624,9.154-10.049,13.645
			c-3.135,4.108-6.436,8.093-9.697,12.104c-1.586,1.951-1.275,2.724,1.335,2.826c4.796,0.188,9.587,0.941,14.372,0.865
			c15.737-0.25,31.458,1.055,47.202,0.366c2.209-0.097,4.463,1.5,6.714,1.553c5.249,0.121,10.496-0.044,15.763,0.08
			c18.954,0.444,37.92,0.363,56.883,0.453c21.346,0.101,42.694,0.08,64.04,0.295c9.846,0.099,19.686,0.857,29.531,0.928
			c37.096,0.267,74.193,0.37,111.29,0.556c0.465,0.002,0.925,0.29,1.393,0.424c1.359,0.39,2.711,1.047,4.085,1.098
			c4.243,0.157,8.505,0.259,12.739,0.021C461.948,265.825,463.916,264.893,466.821,264.072z M124.944,338.262
			c-0.309-0.508-0.619-1.017-0.928-1.525c1.657-1.705,3.374-3.358,4.94-5.145c0.587-0.668,0.822-1.645,1.218-2.479
			c-0.982-0.274-2.095-0.993-2.922-0.747c-4.217,1.252-8.387,2.679-12.519,4.193c-2.951,1.082-5.739,2.658-8.74,3.537
			c-2.817,0.826-5.808,1.239-8.741,1.345c-0.708,0.026-1.486-1.879-2.232-2.896c-0.38-0.059-0.76-0.118-1.141-0.179
			c-0.168,1.364-0.341,2.727-0.504,4.092c-0.122,1.016-0.213,2.035-0.354,3.049c-0.159,1.146-0.833,2.542-0.397,3.355
			c0.377,0.704,1.992,0.746,3.091,1.091c0.942-4.188,3.348-5.031,6.826-3.188c2.359,1.251,4.958,2.05,7.444,3.063
			c5.675,2.313,12.127,2.505,17.261,6.385c0.564,0.426,1.892-0.157,2.866-0.272c-0.171-0.921-0.029-2.135-0.568-2.712
			c-2.042-2.187-4.306-4.168-7.217-6.915c2.327-0.193,3.521-0.383,4.714-0.378c27.62,0.108,55.241,0.171,82.859,0.436
			c4.269,0.04,8.518,1.369,12.794,1.494c8.223,0.241,16.459-0.094,24.686,0.059c29.217,0.543,58.43,1.303,87.649,1.767
			c29.592,0.471,59.187,0.672,88.78,1.038c3.398,0.043,6.794,0.394,11.069,0.655c-2.753,3.178-4.865,5.618-7.396,8.542
			c1.659,0.106,2.689,0.441,3.541,0.185c7.49-2.262,15.083-4.278,22.375-7.075c5.854-2.245,5.688-2.682,9.788,2.961
			c0.519-2.005,0.997-3.246,1.12-4.521c0.104-1.078-0.328-2.198-0.3-3.293c0.029-1.138,0.326-2.269,0.567-3.796
			c-2.643,0.675-4.805,1.9-6.693,1.57c-4.133-0.722-8.118-2.261-12.18-3.414c-4.932-1.4-10.151-1.941-14.355-5.418
			c-0.696-0.576-2.278-0.081-3.451-0.081c-0.228,0.387-0.455,0.773-0.684,1.16c2.05,2.373,4.099,4.747,6.739,7.805
			c-6.66,0-12.378,0.059-18.094-0.011c-32.475-0.39-64.95-0.864-97.426-1.2c-20.864-0.215-41.735-0.041-62.596-0.419
			c-14.281-0.258-28.544-1.433-42.825-1.715c-19.117-0.378-38.244-0.309-57.367-0.393
			C145.409,338.226,135.176,338.262,124.944,338.262z M27.058,227.856c-0.359,0.149-0.718,0.298-1.077,0.446
			c-2.254-2.319-4.458-4.691-6.801-6.917c-0.492-0.468-1.65-0.74-2.207-0.478c-0.447,0.211-0.81,1.509-0.587,2.082
			c1.579,4.05,3.677,7.929,4.925,12.068c2.145,7.115,3.746,14.394,5.712,21.565c0.22,0.801,1.331,1.355,2.029,2.024
			c0.596-0.635,1.704-1.265,1.708-1.903c0.029-4.375,1.832-8.091,3.391-12.075c2.733-6.99,4.385-14.401,6.512-21.716
			c-5.415-2.621-4.981,5.992-10.212,4.808c3.269-58.209-0.205-116.486,3.412-175.13c4.728-1.188,5.272,4.883,9.303,6.897
			c0.152-2.058,0.581-3.636,0.283-5.064c-0.271-1.298-1.446-2.38-2.017-3.649c-1.502-3.336-1.701-6.977-3.529-10.432
			c-2.323-4.391-2.423-9.934-3.651-14.938c-0.52-2.118-1.471-4.129-2.227-6.189c-1.734,3.167-2.742,5.92-3.601,8.719
			c-2.104,6.85-4.122,13.725-6.214,20.578c-0.421,1.38-1.097,2.683-1.515,4.063c-0.57,1.886-1.006,3.812-1.5,5.72
			c0.429,0.159,0.858,0.317,1.288,0.476c2.025-1.873,4.019-3.781,6.1-5.589c0.458-0.397,1.225-0.441,1.849-0.647
			c0.16,0.534,0.465,1.069,0.46,1.602c-0.136,13.984-0.183,27.97-0.499,41.951c-0.373,16.461-1.258,32.914-1.423,49.375
			c-0.221,22.096,0.037,44.198,0.084,66.298C27.067,217.152,27.058,222.505,27.058,227.856z M580.958,84.802
			c1.176-1.256,2.427-2.286,3.284-3.576c1.618-2.435,3.743-2.261,5.87-1.237c3.192,1.539,2.856,7.574-1.06,9.687
			c-4.636,2.5-7.505,6.533-10.713,10.286c-0.925,1.08-1.182,3.316-0.766,4.736c0.25,0.851,2.377,1.56,3.691,1.617
			c4.74,0.206,9.506,0.286,14.235-0.013c1.042-0.066,1.974-1.881,2.956-2.891c-0.951-0.805-1.839-2.193-2.865-2.305
			c-2.909-0.316-5.875-0.111-9.141-0.111c0.198-1.317,0.024-2.448,0.496-2.893c1.813-1.708,3.766-3.292,5.79-4.75
			c6.25-4.501,6.362-13.188,2.796-16.683c-3.141-3.077-11.72-3.002-14.555-0.791C577.304,78.746,577.082,82.234,580.958,84.802z
			 M584.334,23.433c-0.465-2.214-0.708-4.238-1.351-6.126c-0.408-1.201-1.409-2.201-2.145-3.291c-1.072,1.018-3.033,2-3.076,3.06
			c-0.339,8.44-0.396,16.895-0.279,25.342c0.013,0.898,1.644,2.445,2.633,2.538c3.583,0.338,7.214,0.258,10.824,0.198
			c3.529-0.06,6.008-1.938,6.585-5.338c0.572-3.379,0.843-6.927,0.482-10.32C597.44,24.148,590.205,20.631,584.334,23.433z
			 M41.74,117.802c2.711,3.148,2.036,5.688,0.958,8.274c-0.578,1.385-1.149,2.787-1.56,4.227c-0.862,3.027-1.526,6.111-2.442,9.119
			c-0.804,2.641-2,5.168-2.717,7.828c-0.419,1.552,0.033,2.974,2.228,2.935c1.864-0.033,3.038-0.48,3.228-2.669
			c0.101-1.163,0.83-2.343,1.496-3.371c1.953-3.015,3.912-6.038,6.095-8.884c0.745-0.971,2.163-1.425,3.274-2.115
			c0.362,0.356,0.725,0.712,1.087,1.068c-1.41,3.682-2.997,7.311-4.134,11.075c-0.403,1.333,0.292,2.997,0.484,4.509
			c2.215-0.284,4.578-0.214,6.568-1.039c0.714-0.297,0.651-2.746,0.725-4.223c0.064-1.283-0.373-2.6-0.246-3.867
			c0.282-2.821,0.967-5.611,1.103-8.433c0.062-1.287-0.807-3.745-1.223-3.738c-2.059,0.032-4.184,0.508-6.129,1.242
			c-1.07,0.404-1.833,1.625-2.733,2.478c-0.352-0.188-0.703-0.377-1.054-0.565c0.924-4.501,1.849-9.001,2.844-13.851
			C47.013,117.802,44.745,117.802,41.74,117.802z M596.824,215.065c-2.813-0.16-5.767-0.23-8.691-0.552
			c-1.008-0.11-2.16-0.657-2.812-1.391c-0.266-0.299,0.39-1.905,1.026-2.429c2.015-1.654,4.223-3.07,6.347-4.592
			c2.52-1.805,4.352-10.234,3.063-12.808c-3.044-6.08-13.549-7.274-18.34-0.334c-0.708,1.025-0.57,2.857-0.314,4.222
			c0.106,0.569,1.76,1.431,2.327,1.204c1.002-0.4,2.298-1.45,2.433-2.377c0.38-2.626,2.173-2.662,4.039-2.822
			c2.081-0.18,3.833,0.015,4.828,2.395c0.9,2.156-0.431,7.92-3.168,8.803c-5.178,1.67-7.361,6.223-10.661,9.68
			c-0.742,0.776-0.85,2.564-0.579,3.731c0.139,0.598,1.748,1.18,2.709,1.208c4.989,0.147,9.985,0.112,14.979,0.144
			C596.537,219.163,597.813,218.188,596.824,215.065z M270.95,305.929c0,2.298,0.425,4.172-0.075,5.753
			c-2.105,6.666-4.511,13.237-6.754,19.86c-0.819,2.416-1.501,4.454,2.095,5.774c8.62,3.166,13.93-0.934,17.572-7.311
			c0.901-1.577,1.247-3.505,1.678-5.311c1.069-4.473-2.04-8.393-6.658-8.488c-1.095-0.022-2.19-0.004-3.901-0.004
			c0.65-3.579,1.245-6.842,1.925-10.586C274.436,305.744,272.495,305.847,270.95,305.929z M576.911,158.553
			c4.869,0.791,5.112,0.614,5.15-3.487c0.029-3.111-0.043-6.224,0.045-9.333c0.1-3.523,1.67-4.819,5.152-4.726
			c3.697,0.098,3.502,3.083,3.674,5.285c0.318,4.079,0.091,8.202,0.091,12.146c4.143,0.802,4.453,0.754,4.523-1.52
			c0.146-4.717,0.313-9.458,0.005-14.158c-0.327-4.98-2.816-6.988-7.714-6.998c-1.709-0.003-3.418-0.001-5.514-0.001
			c0-1.466,0.009-2.799-0.002-4.131c-0.014-1.716,0.314-3.789-2.234-3.868c-2.431-0.076-2.985,1.668-2.998,3.75
			c-0.039,6.34-0.124,12.679-0.175,19.018C576.894,153.234,576.911,155.938,576.911,158.553z M505.566,190.303
			c0.563,2.823,2.149,3.193,4.438,2.712c5.846-1.229,5.678-7.117,7.906-10.85c2.688-4.504,3.513-10.114,5.206-15.225
			c0.701-2.115,0.962-4.04-1.561-5.864c-1.142,1.419-2.449,2.583-3.165,4.039c-1.173,2.381-1.88,4.989-2.96,7.421
			c-0.324,0.73-1.233,1.201-1.876,1.79c-0.51-0.701-1.255-1.333-1.488-2.115c-0.742-2.498-0.934-5.227-2.052-7.518
			c-0.688-1.409-2.678-2.183-4.083-3.242c-0.292,1.542-1.155,3.245-0.775,4.598c1.428,5.079,3.227,10.056,4.951,15.049
			C511.707,185.727,510.413,188.59,505.566,190.303z M525.04,69.844c-0.9-1.348-1.583-2.613-2.492-3.688
			c-4.16-4.915-4.082-7.521,0.148-12.358c1.086-1.241,1.637-2.949,2.378-4.339c-5.577-2.891-6.781,2.718-10.071,3.963
			c-2.9-1.654-4.28-6.867-9.867-3.811c1.52,2.356,2.892,4.606,4.386,6.772c1.586,2.299,1.956,4.233-0.23,6.61
			c-1.783,1.939-2.851,4.536-4.208,6.792c6.007,3.263,6.408-3.422,9.668-4.163C518.098,67.109,518.803,73.646,525.04,69.844z
			 M603.029,59.389c-10.496,0-20.757,0-31.019,0c-0.192,0.393-0.384,0.786-0.574,1.178c0.938,0.567,1.854,1.583,2.816,1.63
			c8.574,0.408,17.157,0.621,25.736,0.946C602.422,63.236,603.458,62.231,603.029,59.389z M538.1,53.986
			c-0.771,3.593,0.55,4.944,4.607,5c4.619,0.062,9.242,0.195,13.854,0.025c1.413-0.053,2.793-1.003,4.961-1.84
			c-1.834-1.575-2.75-3.046-3.71-3.077C551.223,53.89,544.624,53.986,538.1,53.986z M548.754,61.508c0-0.013,0-0.027,0-0.041
			c-2.358,0-4.741-0.206-7.063,0.079c-1.346,0.165-2.595,1.121-3.887,1.721c1.269,1.072,2.473,2.961,3.817,3.068
			c5.057,0.399,10.165,0.357,15.239,0.134c0.994-0.043,1.921-1.625,2.879-2.498c-0.932-0.82-1.792-2.223-2.81-2.35
			C554.241,61.288,551.483,61.508,548.754,61.508z M571.379,174.186c-0.159,0.362-0.32,0.724-0.479,1.086
			c1.03,0.576,2.011,1.49,3.103,1.651c1.823,0.271,3.719,0.054,5.584,0.053c6.717-0.003,13.434,0.038,20.149-0.062
			c0.779-0.012,1.548-0.788,2.321-1.21c-0.556-0.506-1.106-1.448-1.667-1.454C590.721,174.16,581.05,174.186,571.379,174.186z
			 M537.34,175.506c-0.146,3.82-0.082,3.929,2.863,4.019c1.741,0.053,3.485-0.019,5.229-0.006c3.709,0.025,7.422,0.179,11.122,0.015
			c0.749-0.033,1.446-1.234,2.168-1.898c-0.691-0.71-1.368-2.018-2.076-2.036C550.206,175.44,543.762,175.506,537.34,175.506z
			 M537.572,171.618c7.121,0,14.171,0,21.28,0c-0.052-2.861-1.253-3.655-3.559-3.611c-4.972,0.094-9.949,0.056-14.919-0.081
			C537.658,167.852,536.801,168.918,537.572,171.618z M63.086,25.082c3.861,0.307,4.296-0.548,2.864-5.386
			C62.134,20.082,62.949,22.705,63.086,25.082z M96.452,347.53c-3.838-0.734-4.57,0.979-4.05,3.181
			c0.232,0.983,1.649,1.688,2.529,2.519C95.43,351.358,95.929,349.487,96.452,347.53z M69.692,25.019
			c3.207,0.803,4.685,0.024,4.302-2.456c-0.156-1.015-1.414-1.859-2.17-2.781C71.131,21.482,70.439,23.183,69.692,25.019z
			 M244.972,28.085c1.302-1.423,2.082-2.276,2.861-3.128c-0.766-0.582-1.602-1.707-2.281-1.62c-1.073,0.139-2.041,1.092-3.053,1.7
			C243.146,25.835,243.794,26.634,244.972,28.085z M80.016,25.49c-0.225-2.139-0.415-3.948-0.695-6.618
			C75.451,24.967,75.451,24.967,80.016,25.49z M39.902,19.944c-0.422-0.294-0.844-0.588-1.267-0.882
			c-0.795,0.774-2.245,1.552-2.242,2.323c0.007,1.386,0.885,2.768,1.4,4.151c0.468-0.084,0.937-0.169,1.404-0.254
			C39.432,23.503,39.667,21.724,39.902,19.944z M59.39,20.056c-0.456-0.267-0.913-0.533-1.369-0.8
			c-0.531,1.302-1.353,2.577-1.479,3.918c-0.073,0.772,0.979,1.65,1.524,2.481c0.343-0.179,0.686-0.357,1.028-0.536
			C59.193,23.432,59.291,21.744,59.39,20.056z M464.506,273.854c-0.7-0.034-1.399-0.067-2.1-0.103
			c-0.119,1.674-0.237,3.348-0.356,5.021c0.819,0.047,1.638,0.093,2.456,0.139C464.506,277.227,464.506,275.54,464.506,273.854z
			 M87.259,25.343c-0.469-1.884-0.858-3.447-1.248-5.011c-0.495-0.019-0.989-0.038-1.483-0.058
			c-0.482,1.587-0.965,3.173-1.542,5.069C84.762,25.343,85.702,25.343,87.259,25.343z M43.687,25.056
			c0.399,0.122,0.799,0.245,1.199,0.367c0.692-1.382,1.654-2.715,1.922-4.174c0.086-0.469-1.659-1.274-3.49-2.589
			C43.491,21.667,43.588,23.362,43.687,25.056z M293.301,28.813c0-2.04,0.121-3.354-0.083-4.617
			c-0.053-0.327-1.408-0.863-1.671-0.661c-0.924,0.71-1.634,1.7-2.582,2.76C290.453,27.159,291.364,27.688,293.301,28.813z
			 M175.75,24.263c0.083,0.469,0.167,0.938,0.249,1.406c1.547-0.123,3.094-0.245,4.641-0.367c0.063-0.389,0.124-0.777,0.186-1.166
			c-0.878-0.731-1.757-1.463-2.78-2.314C177.185,22.736,176.468,23.5,175.75,24.263z M263.708,23.539
			c0.076,1.059-0.253,2.612,0.345,3.169c0.635,0.591,2.151,0.236,3.233,0.292C268.076,23.667,266.913,22.728,263.708,23.539z
			 M159.076,21.781c-0.488-0.113-0.975-0.226-1.462-0.34c-0.678,1.182-1.356,2.364-2.034,3.546c1.166,0.19,2.331,0.381,3.496,0.572
			C159.076,24.299,159.076,23.04,159.076,21.781z M270.164,27.529c1.652-0.753,2.969-1.354,4.286-1.954
			c-0.576-0.758-1.031-2.012-1.749-2.187C270.036,22.743,270.017,24.651,270.164,27.529z M98.422,275.791
			c-3.323-0.752-4.992-0.59-4.71,1.946c0.07,0.632,1.402,1.124,2.153,1.68C96.594,278.383,97.323,277.349,98.422,275.791z
			 M49.317,22.529c0.799,1.16,1.365,1.981,1.93,2.802c0.613-1.037,1.574-2.027,1.721-3.128c0.104-0.778-0.891-1.705-1.396-2.565
			C50.856,20.558,50.138,21.477,49.317,22.529z M237.047,26.906c3.053,0.634,4.218-0.34,3.254-3.421
			C237.029,22.644,235.798,23.557,237.047,26.906z M32.717,256.944c0.275,0.606,0.551,1.212,0.826,1.816
			c1.229-0.333,2.457-0.666,3.685-0.999c-0.339-0.923-0.679-1.845-1.018-2.768C35.046,255.645,33.882,256.295,32.717,256.944z
			 M106.016,20.794c-0.326-0.104-0.652-0.21-0.978-0.315c-0.914,1.393-1.828,2.785-3.131,4.771c2.34,0,3.465,0,4.958,0
			C106.536,23.525,106.276,22.16,106.016,20.794z M257.159,23.534c0,1.24,0,2.283,0,3.637c1.382-0.12,2.522-0.218,3.605-0.311
			C261.405,23.597,260.249,22.638,257.159,23.534z M463.264,272.977c1.091-1.74,2.012-2.557,1.945-3.281
			c-0.074-0.801-1.053-1.518-1.637-2.271c-0.636,0.665-1.667,1.264-1.794,2.016C461.651,270.196,462.424,271.104,463.264,272.977z
			 M462.04,338.297c3.592-2.35,3.587-3.116,0-5.38C462.04,334.82,462.04,336.362,462.04,338.297z M233.422,23.469
			c-1.419,0-2.65,0-5.011,0c1.168,1.655,1.698,2.709,2.52,3.43c0.373,0.328,1.325-0.006,2.144-0.047
			C233.199,25.647,233.296,24.697,233.422,23.469z M202.677,23.462c-0.218,0.407-0.437,0.814-0.655,1.221
			c1.026,0.707,2.051,1.413,3.076,2.12c0.557-1.056,1.113-2.112,2.034-3.858C204.841,23.211,203.759,23.337,202.677,23.462z
			 M43.497,255.375c-0.365-0.316-0.73-0.632-1.095-0.947c-0.833,0.931-1.667,1.862-2.5,2.794c0.973,0.674,1.946,1.349,3.595,2.492
			C43.497,257.471,43.497,256.423,43.497,255.375z M53.743,259.687c1.771-1.079,2.888-1.553,3.646-2.361
			c0.198-0.213-0.561-1.648-1.176-2.179c-0.399-0.345-1.334-0.065-2.196-0.065C53.942,256.334,53.884,257.299,53.743,259.687z
			 M70.816,258.896c-0.3-1.643-0.491-2.687-0.681-3.731c-0.356-0.214-0.711-0.428-1.067-0.643c-0.909,1.086-1.816,2.172-3.365,4.022
			C68.138,258.711,69.182,258.783,70.816,258.896z M77.576,258.631c0.288-0.43,0.577-0.858,0.865-1.288
			c-1.092-0.906-2.184-1.812-3.276-2.719c-0.278,0.256-0.557,0.511-0.834,0.766c0,1.052,0,2.103,0,3.431
			C75.507,258.752,76.542,258.69,77.576,258.631z M93.087,262.712c0.758,1.495,1.099,2.682,1.859,3.454
			c0.394,0.4,1.532,0.07,2.617,0.07c-0.062-1.393-0.107-2.424-0.157-3.524C96.081,262.712,95.037,262.712,93.087,262.712z
			 M186.677,22.268c-0.592-0.173-1.184-0.345-1.776-0.518c-0.586,1.211-1.173,2.422-1.76,3.633c0.957,0.268,1.914,0.534,2.87,0.801
			C186.233,24.879,186.455,23.573,186.677,22.268z M162.245,24.658c0.22,0.265,0.439,0.53,0.659,0.795c1.148,0,2.297,0,4.799,0
			c-1.466-1.65-2.245-2.526-3.023-3.402C163.868,22.92,163.056,23.789,162.245,24.658z M122.408,24.453
			c0.291,0.372,0.583,0.743,0.874,1.113c1.143-0.072,2.286-0.145,4.724-0.299c-1.492-1.768-2.282-2.705-3.073-3.642
			C124.091,22.568,123.25,23.511,122.408,24.453z M94.811,281.438c-0.517,0.432-1.034,0.863-1.551,1.296
			c0.672,0.977,1.345,1.953,2.017,2.931c0.673-0.618,1.346-1.234,2.02-1.852C96.467,283.021,95.639,282.229,94.811,281.438z
			 M110.354,20.603c-0.143,2.402-0.211,3.548-0.302,5.068c1.571-0.202,2.693-0.347,3.814-0.491c0.177-0.352,0.354-0.703,0.53-1.055
			C113.299,23.17,112.202,22.214,110.354,20.603z M253.589,23.063c-1.434,0.271-2.684,0.274-3.638,0.806
			c-0.379,0.211-0.423,2.135-0.068,2.344c1.01,0.593,2.303,0.706,3.707,1.064C253.589,25.616,253.589,24.577,253.589,23.063z"/>
		<path fill-rule="evenodd" clip-rule="evenodd" d="M466.821,264.072c-2.905,0.82-4.873,1.753-6.888,1.866
			c-4.234,0.238-8.496,0.137-12.739-0.021c-1.374-0.051-2.726-0.708-4.085-1.098c-0.468-0.134-0.928-0.422-1.393-0.424
			c-37.097-0.186-74.194-0.289-111.29-0.556c-9.845-0.07-19.685-0.829-29.531-0.928c-21.346-0.215-42.694-0.194-64.04-0.295
			c-18.962-0.09-37.929-0.009-56.883-0.453c-5.267-0.124-10.514,0.041-15.763-0.08c-2.251-0.053-4.505-1.649-6.714-1.553
			c-15.744,0.688-31.465-0.616-47.202-0.366c-4.784,0.076-9.576-0.678-14.372-0.865c-2.61-0.103-2.921-0.875-1.335-2.826
			c3.261-4.012,6.562-7.996,9.697-12.104c3.425-4.49,6.55-9.214,10.049-13.645c3.62-4.584,7.582-8.896,11.294-13.41
			c1.727-2.099,3.132-4.458,4.832-6.581c3.758-4.693,7.62-9.307,11.424-13.964c4.081-4.996,8.112-10.033,12.227-15
			c2.834-3.421,6.101-6.532,8.584-10.184c3.239-4.763,7.966-8.275,10.242-13.978c1.295-3.244,5.236-5.374,7.776-8.194
			c3.1-3.444,6.004-7.065,8.949-10.646c4.573-5.562,9.157-11.116,13.642-16.749c2.495-3.134,4.726-6.476,7.205-9.623
			c3.553-4.513,7.271-8.895,10.827-13.404c3.431-4.351,6.666-8.858,10.133-13.179c5.341-6.652,10.867-13.155,16.191-19.82
			c2.396-3,4.478-6.249,6.736-9.359c1.454-2.002,2.95-3.975,4.465-5.933c4.556-5.884,8.883-11.975,13.805-17.538
			c2.451-2.769,4.24-5.423,4.161-9.813c2.924,0,5.734-0.157,8.506,0.097c0.822,0.076,2.222,1.338,2.193,2.009
			c-0.201,4.813,3.723,7.075,6.045,10.304c2.875,3.997,5.708,8.033,8.774,11.879c3.187,3.997,6.643,7.779,9.954,11.679
			c0.443,0.522,0.679,1.215,1.087,1.773c1.963,2.689,3.933,5.375,5.937,8.033c5.788,7.681,11.547,15.385,17.419,23
			c2.502,3.246,5.397,6.19,7.859,9.464c2.83,3.766,5.209,7.876,8.089,11.601c4.061,5.253,8.559,10.17,12.562,15.464
			c2.363,3.124,3.967,6.813,6.211,10.039c2.339,3.362,5.069,6.448,7.572,9.7c4.849,6.301,9.709,12.595,14.465,18.965
			c3.233,4.33,6.197,8.862,9.468,13.162c3.08,4.046,6.474,7.853,9.602,11.862c4.232,5.425,8.334,10.95,12.509,16.42
			c3.767,4.937,7.563,9.852,11.335,14.787c3.013,3.942,5.971,7.928,9.017,11.844c3.855,4.96,7.862,9.804,11.64,14.821
			C460.183,254.396,463.058,258.717,466.821,264.072z M211.455,164.297c-0.29-4.275-3.625-0.169-4.519-1.782
			c0.333,1.818,0.674,3.679,1.014,5.54c-4.507,0.378-9.549-1.537-13.076,3.048c-0.109-2.609,0.649-5.821-0.609-7.633
			c-0.963-1.387-4.473-1.006-8.239-1.647c1.347,3.898,2,6.962,3.536,9.488c0.437,0.719,3.446-0.127,5.276-0.256
			c0.822,0.813,1.533,1.809,2.494,2.395c1.291,0.786,2.775,1.255,4.772,2.119c0.261,3.006,3.022,1.11,4.718,1.248
			c0.069-1.418,0.056-2.598,0.201-3.758c0.21-1.693,0.534-3.372,0.809-5.057c1.236-1.269,2.472-2.537,3.708-3.805
			c0.394,4.611,2.173-0.415,2.913,0.842c1.195,0.576,2.389,1.153,3.92,1.892c0.302-1.58,0.498-2.595,0.896-4.671
			C216.214,163.055,213.834,163.675,211.455,164.297z M182.494,154.979c1.286,0.222,1.648,0.313,2.016,0.344
			c9.323,0.792,18.833-1.54,28.023,1.65c0.274,0.095,0.677-0.231,1.032-0.312c1.641-0.375,3.314-1.137,4.924-1.024
			c4.932,0.345,9.834,1.45,14.757,1.507c23.115,0.27,46.234,0.229,69.35,0.411c19.925,0.157,39.848,0.477,59.771,0.694
			c5.459,0.06,10.918,0.009,16.892,0.009c-0.382-1.294-0.429-2.766-1.159-3.706c-3.171-4.081-6.663-7.914-9.813-12.01
			c-5.113-6.654-10.062-13.433-15.055-20.178c-3.104-4.191-6.089-8.473-9.256-12.616c-5.287-6.915-10.742-13.703-16.006-20.635
			c-4.769-6.28-9.253-12.778-14.084-19.008c-5.826-7.512-11.938-14.803-17.828-22.266c-4.069-5.155-7.908-10.493-12.03-15.602
			c-0.519-0.642-2.73-0.936-3.161-0.469c-3.011,3.256-5.828,6.7-8.576,10.187c-5.544,7.037-11,14.143-16.504,21.212
			c-3.477,4.465-6.968,8.918-10.459,13.372c-3.577,4.563-7.069,9.198-10.771,13.658c-3.678,4.431-7.761,8.536-11.302,13.068
			c-2.484,3.179-4.054,7.076-6.564,10.229c-4.989,6.27-10.393,12.206-15.534,18.356c-5.597,6.693-11.097,13.467-16.621,20.22
			C183.901,152.854,183.372,153.724,182.494,154.979z M171.526,167.411c-23.636,29.538-46.539,58.161-69.442,86.783
			c0.211,0.348,0.422,0.694,0.633,1.041c6.345,0,12.688-0.008,19.032,0.002c9.454,0.015,18.913-0.141,28.36,0.135
			c5.184,0.152,10.334,1.261,15.521,1.528c5.042,0.261,5.82-0.784,5.822-5.832c0.009-19.302,0.05-38.603,0.073-57.904
			C171.533,184.966,171.526,176.769,171.526,167.411z M387.745,168.481c-0.1,0.906-0.312,1.961-0.319,3.019
			c-0.113,14.095-0.133,28.191-0.349,42.284c-0.038,2.512-1.296,5.023-1.227,7.514c0.15,5.327,0.966,10.635,1.197,15.963
			c0.204,4.739,0.011,9.497-0.071,14.245c-0.013,0.704-0.346,1.414-0.593,2.099c-1.169,3.232,0.042,5.086,3.413,5.16
			c20.821,0.46,41.643,0.938,62.465,1.33c1.645,0.031,3.301-0.545,4.952-0.839c-0.793-1.094-1.588-2.187-2.379-3.281
			c-3.917-5.428-7.793-10.885-11.765-16.272c-1.938-2.627-4.026-5.146-6.095-7.675c-2.919-3.567-6.022-6.992-8.787-10.673
			c-2.613-3.481-4.74-7.328-7.358-10.805c-2.815-3.74-6.046-7.166-8.928-10.86c-4.087-5.241-7.971-10.643-12.036-15.903
			C395.918,178.676,391.852,173.656,387.745,168.481z M181.679,183.232c2.261-2.935,4.276-5.55,6.653-8.636
			c-1.688,0.385-2.751,0.627-3.994,0.91c-0.088-1.822-0.162-3.334-0.279-5.752c-1.998,1.458-4.485,2.432-4.497,3.436
			C179.524,176.446,177.701,180.298,181.679,183.232z M194.086,254.063c4.258,0,8.308,0.066,12.354-0.043
			c1.131-0.03,2.561-0.277,3.258-0.999c0.448-0.465-0.19-1.979-0.363-3.173c-4.221,2.758-7.924,1.634-11.59,0.395
			C194.512,249.149,193.652,249.841,194.086,254.063z M255.089,253.422c-0.43-0.532-0.86-1.065-1.29-1.599c-4.05,0-8.1,0-12.15,0
			c-0.05,0.388-0.1,0.776-0.15,1.163c2.984,3.018,7.415-0.298,10.722,1.659C252.75,254.959,254.112,253.865,255.089,253.422z
			 M363.241,164.841c0.439,0.996,0.772,2.168,0.975,2.146c2.447-0.266,4.874-0.708,7.308-1.105
			c-0.053-0.347-0.105-0.693-0.157-1.041C368.876,164.841,366.385,164.841,363.241,164.841z M250.774,164.651
			c4.713,4.409,5.427,4.382,7.639,0C255.955,164.651,253.636,164.651,250.774,164.651z M284.707,255.032
			c2.667-0.644,4.571-1.103,6.476-1.562c-0.194-0.557-0.388-1.112-0.66-1.891c-0.642,0.752-1.101,1.287-1.561,1.825
			C286.23,250.628,286.023,250.66,284.707,255.032z M262.378,168.156c-1.453,2.143-2.419,3.566-3.729,5.497
			c1.394,0.119,2.561,0.218,3.729,0.318C262.378,172.176,262.378,170.382,262.378,168.156z M204.037,163.392
			c-0.44-0.267-0.872-0.478-1.244-0.766c-0.45-0.348-0.849-0.76-1.245-1.121c-3.313,2.61-3.313,2.61-1.809,4.695
			C201.062,165.336,202.387,164.471,204.037,163.392z M180.221,162.111c-0.359,0.514-0.719,1.029-1.078,1.543
			c1.441,1.004,2.882,2.008,4.323,3.013c0.233-0.6,0.808-1.601,0.647-1.737C182.896,163.896,181.536,163.03,180.221,162.111z
			 M276.147,251.585c-0.203,0.659-0.406,1.317-0.61,1.976c1.84,0.258,3.679,0.648,5.521,0.655c0.36,0.002,0.727-1.485,1.09-2.287
			c-0.239-0.128-0.479-0.257-0.719-0.386c-0.665,0.695-1.33,1.391-1.725,1.804C278.294,252.649,277.221,252.117,276.147,251.585z
			 M232.425,251.883c-0.001,0.353-0.002,0.704-0.003,1.056c1.847,0,3.693,0,5.539,0c0.002-0.352,0.002-0.703,0.004-1.056
			C236.118,251.883,234.271,251.883,232.425,251.883z M353.069,180.558c-0.228-0.531-0.455-1.062-0.683-1.592
			c-1.636,0.861-3.272,1.722-4.908,2.582c0.237,0.479,0.476,0.956,0.713,1.435C349.817,182.174,351.443,181.366,353.069,180.558z"/>
		<path fill-rule="evenodd" clip-rule="evenodd" d="M124.944,338.262c10.232,0,20.465-0.036,30.698,0.009
			c19.123,0.084,38.25,0.015,57.367,0.393c14.281,0.282,28.544,1.457,42.825,1.715c20.861,0.378,41.732,0.204,62.596,0.419
			c32.476,0.336,64.951,0.811,97.426,1.2c5.716,0.069,11.434,0.011,18.094,0.011c-2.641-3.058-4.689-5.432-6.739-7.805
			c0.229-0.387,0.456-0.773,0.684-1.16c1.173,0,2.755-0.495,3.451,0.081c4.204,3.477,9.424,4.018,14.355,5.418
			c4.062,1.153,8.047,2.692,12.18,3.414c1.889,0.33,4.051-0.896,6.693-1.57c-0.241,1.527-0.538,2.658-0.567,3.796
			c-0.028,1.095,0.403,2.215,0.3,3.293c-0.123,1.274-0.602,2.516-1.12,4.521c-4.101-5.643-3.934-5.206-9.788-2.961
			c-7.292,2.797-14.885,4.813-22.375,7.075c-0.852,0.257-1.882-0.078-3.541-0.185c2.531-2.924,4.644-5.364,7.396-8.542
			c-4.275-0.262-7.671-0.612-11.069-0.655c-29.594-0.366-59.188-0.567-88.78-1.038c-29.219-0.464-58.432-1.224-87.649-1.767
			c-8.227-0.152-16.463,0.183-24.686-0.059c-4.277-0.125-8.526-1.454-12.794-1.494c-27.618-0.265-55.239-0.327-82.859-0.436
			c-1.193-0.005-2.387,0.185-4.714,0.378c2.911,2.747,5.174,4.729,7.217,6.915c0.539,0.577,0.397,1.791,0.568,2.712
			c-0.974,0.115-2.301,0.698-2.866,0.272c-5.134-3.88-11.586-4.071-17.261-6.385c-2.486-1.013-5.085-1.812-7.444-3.063
			c-3.478-1.843-5.884-1-6.826,3.188c-1.099-0.345-2.714-0.387-3.091-1.091c-0.436-0.813,0.238-2.209,0.397-3.355
			c0.141-1.014,0.232-2.033,0.354-3.049c0.164-1.365,0.336-2.728,0.504-4.092c0.381,0.061,0.761,0.12,1.141,0.179
			c0.746,1.017,1.524,2.922,2.232,2.896c2.933-0.105,5.924-0.519,8.741-1.345c3-0.879,5.789-2.455,8.74-3.537
			c4.131-1.515,8.302-2.941,12.519-4.193c0.827-0.246,1.94,0.473,2.922,0.747c-0.396,0.835-0.631,1.812-1.218,2.479
			c-1.566,1.786-3.283,3.439-4.94,5.145C124.325,337.245,124.635,337.754,124.944,338.262z"/>
		<path fill-rule="evenodd" clip-rule="evenodd" d="M27.058,227.856c0-5.352,0.01-10.704-0.002-16.056
			c-0.047-22.1-0.306-44.202-0.084-66.298c0.165-16.461,1.05-32.915,1.423-49.375c0.316-13.981,0.363-27.967,0.499-41.951
			c0.005-0.533-0.3-1.068-0.46-1.602c-0.625,0.207-1.391,0.25-1.849,0.647c-2.081,1.809-4.075,3.717-6.1,5.589
			c-0.43-0.159-0.859-0.317-1.288-0.476c0.494-1.908,0.93-3.834,1.5-5.72c0.418-1.38,1.093-2.683,1.515-4.063
			c2.092-6.853,4.111-13.729,6.214-20.578c0.859-2.799,1.867-5.552,3.601-8.719c0.755,2.06,1.707,4.071,2.227,6.189
			c1.228,5.004,1.328,10.547,3.651,14.938c1.828,3.455,2.027,7.095,3.529,10.432c0.571,1.27,1.747,2.352,2.017,3.649
			c0.297,1.429-0.131,3.007-0.283,5.064c-4.031-2.014-4.575-8.085-9.303-6.897c-3.617,58.644-0.144,116.921-3.412,175.13
			c5.231,1.185,4.797-7.429,10.212-4.808c-2.127,7.314-3.779,14.726-6.512,21.716c-1.559,3.984-3.361,7.7-3.391,12.075
			c-0.004,0.639-1.111,1.269-1.708,1.903c-0.698-0.669-1.809-1.224-2.029-2.024c-1.967-7.172-3.567-14.45-5.712-21.565
			c-1.248-4.14-3.347-8.019-4.925-12.068c-0.223-0.573,0.14-1.871,0.587-2.082c0.556-0.263,1.714,0.01,2.207,0.478
			c2.342,2.226,4.547,4.598,6.801,6.917C26.34,228.154,26.699,228.006,27.058,227.856z"/>
		<path fill-rule="evenodd" clip-rule="evenodd" d="M580.958,84.802c-3.876-2.568-3.654-6.056,0.021-8.922
			c2.835-2.212,11.414-2.286,14.555,0.791c3.566,3.494,3.454,12.181-2.796,16.683c-2.024,1.458-3.977,3.042-5.79,4.75
			c-0.472,0.445-0.298,1.575-0.496,2.893c3.266,0,6.231-0.206,9.141,0.111c1.026,0.112,1.914,1.5,2.865,2.305
			c-0.982,1.01-1.914,2.825-2.956,2.891c-4.729,0.299-9.495,0.219-14.235,0.013c-1.314-0.058-3.441-0.766-3.691-1.617
			c-0.416-1.42-0.159-3.657,0.766-4.736c3.208-3.753,6.077-7.786,10.713-10.286c3.916-2.112,4.252-8.148,1.06-9.687
			c-2.127-1.024-4.252-1.198-5.87,1.237C583.385,82.517,582.134,83.546,580.958,84.802z"/>
		<path fill-rule="evenodd" clip-rule="evenodd" d="M584.334,23.433c5.871-2.802,13.106,0.716,13.674,6.063
			c0.36,3.393,0.09,6.94-0.482,10.32c-0.577,3.4-3.056,5.278-6.585,5.338c-3.61,0.06-7.241,0.141-10.824-0.198
			c-0.989-0.093-2.62-1.64-2.633-2.538c-0.117-8.447-0.06-16.902,0.279-25.342c0.043-1.059,2.004-2.042,3.076-3.06
			c0.735,1.09,1.736,2.09,2.145,3.291C583.626,19.194,583.869,21.218,584.334,23.433z M593.354,34.799
			c-0.46-2.13-0.65-3.757-1.177-5.266c-0.733-2.103-4.949-3.711-6.2-2.147c-1.426,1.784-2.879,4.438-2.594,6.472
			c0.351,2.508,2.317,4.896,3.989,7.018c0.31,0.392,3.011-0.324,3.757-1.23C592.303,38.222,592.753,36.203,593.354,34.799z"/>
		<path fill-rule="evenodd" clip-rule="evenodd" d="M41.74,117.802c3.005,0,5.273,0,7.852,0c-0.995,4.849-1.92,9.35-2.844,13.851
			c0.351,0.188,0.703,0.377,1.054,0.565c0.901-0.853,1.663-2.074,2.733-2.478c1.946-0.734,4.071-1.209,6.129-1.242
			c0.416-0.006,1.284,2.451,1.223,3.738c-0.136,2.822-0.821,5.612-1.103,8.433c-0.127,1.268,0.31,2.584,0.246,3.867
			c-0.074,1.478-0.011,3.926-0.725,4.223c-1.991,0.825-4.353,0.755-6.568,1.039c-0.193-1.513-0.887-3.176-0.484-4.509
			c1.137-3.764,2.724-7.393,4.134-11.075c-0.362-0.356-0.725-0.712-1.087-1.068c-1.111,0.69-2.529,1.144-3.274,2.115
			c-2.183,2.846-4.142,5.869-6.095,8.884c-0.667,1.028-1.396,2.208-1.496,3.371c-0.19,2.189-1.363,2.636-3.228,2.669
			c-2.195,0.039-2.647-1.383-2.228-2.935c0.717-2.66,1.913-5.187,2.717-7.828c0.917-3.008,1.58-6.092,2.442-9.119
			c0.411-1.44,0.981-2.841,1.56-4.227C43.775,123.49,44.451,120.95,41.74,117.802z"/>
		<path fill-rule="evenodd" clip-rule="evenodd" d="M596.824,215.065c0.988,3.123-0.287,4.098-2.814,4.082
			c-4.993-0.031-9.989,0.004-14.979-0.144c-0.961-0.028-2.57-0.61-2.709-1.208c-0.271-1.167-0.163-2.955,0.579-3.731
			c3.3-3.457,5.483-8.01,10.661-9.68c2.737-0.883,4.068-6.646,3.168-8.803c-0.995-2.38-2.747-2.574-4.828-2.395
			c-1.866,0.16-3.659,0.196-4.039,2.822c-0.135,0.927-1.431,1.977-2.433,2.377c-0.567,0.227-2.221-0.635-2.327-1.204
			c-0.256-1.364-0.394-3.196,0.314-4.222c4.791-6.94,15.296-5.746,18.34,0.334c1.288,2.573-0.544,11.003-3.063,12.808
			c-2.124,1.521-4.332,2.938-6.347,4.592c-0.637,0.523-1.292,2.13-1.026,2.429c0.651,0.733,1.804,1.28,2.812,1.391
			C591.058,214.835,594.011,214.905,596.824,215.065z"/>
		<path fill-rule="evenodd" clip-rule="evenodd" d="M270.95,305.929c1.545-0.082,3.485-0.185,5.883-0.312
			c-0.681,3.744-1.275,7.007-1.925,10.586c1.71,0,2.806-0.019,3.901,0.004c4.618,0.096,7.727,4.016,6.658,8.488
			c-0.432,1.806-0.777,3.733-1.678,5.311c-3.642,6.377-8.952,10.477-17.572,7.311c-3.596-1.32-2.914-3.358-2.095-5.774
			c2.244-6.623,4.649-13.194,6.754-19.86C271.375,310.101,270.95,308.227,270.95,305.929z M269.727,332.182
			c-0.088,3.446,1.104,4.884,3.25,4.119c3.588-1.279,7.94-8.652,7.346-12.445c-0.472-3.021-2.441-3.466-5.097-2.251
			C270.32,323.85,270.191,328.102,269.727,332.182z"/>
		<path fill-rule="evenodd" clip-rule="evenodd" d="M576.911,158.553c0-2.615-0.018-5.318,0.004-8.021
			c0.051-6.339,0.136-12.678,0.175-19.018c0.013-2.083,0.567-3.826,2.998-3.75c2.549,0.079,2.221,2.151,2.234,3.868
			c0.011,1.333,0.002,2.665,0.002,4.131c2.096,0,3.805-0.002,5.514,0.001c4.897,0.009,7.387,2.017,7.714,6.998
			c0.309,4.701,0.141,9.441-0.005,14.158c-0.07,2.274-0.381,2.321-4.523,1.52c0-3.944,0.228-8.067-0.091-12.146
			c-0.172-2.202,0.023-5.187-3.674-5.285c-3.482-0.093-5.053,1.203-5.152,4.726c-0.088,3.109-0.016,6.221-0.045,9.333
			C582.023,159.167,581.78,159.344,576.911,158.553z"/>
		<path fill-rule="evenodd" clip-rule="evenodd" d="M505.566,190.303c4.847-1.712,6.141-4.576,4.541-9.205
			c-1.725-4.993-3.523-9.97-4.951-15.049c-0.38-1.354,0.483-3.056,0.775-4.598c1.405,1.059,3.396,1.833,4.083,3.242
			c1.118,2.292,1.31,5.021,2.052,7.518c0.233,0.783,0.979,1.415,1.488,2.115c0.643-0.589,1.552-1.06,1.876-1.79
			c1.08-2.433,1.787-5.04,2.96-7.421c0.716-1.456,2.023-2.62,3.165-4.039c2.522,1.824,2.262,3.749,1.561,5.864
			c-1.693,5.111-2.518,10.721-5.206,15.225c-2.229,3.733-2.061,9.62-7.906,10.85C507.716,193.496,506.13,193.126,505.566,190.303z"
			/>
		<path fill-rule="evenodd" clip-rule="evenodd" d="M525.04,69.844c-6.237,3.803-6.942-2.734-10.289-4.221
			c-3.26,0.74-3.661,7.425-9.668,4.163c1.357-2.257,2.425-4.854,4.208-6.792c2.187-2.377,1.816-4.311,0.23-6.61
			c-1.494-2.166-2.866-4.416-4.386-6.772c5.587-3.056,6.967,2.157,9.867,3.811c3.29-1.245,4.494-6.854,10.071-3.963
			c-0.741,1.39-1.292,3.098-2.378,4.339c-4.23,4.838-4.309,7.443-0.148,12.358C523.457,67.23,524.14,68.496,525.04,69.844z"/>
		<path fill-rule="evenodd" clip-rule="evenodd" d="M603.029,59.389c0.429,2.842-0.607,3.847-3.04,3.754
			c-8.579-0.325-17.162-0.539-25.736-0.946c-0.963-0.046-1.879-1.063-2.816-1.63c0.19-0.393,0.382-0.785,0.574-1.178
			C582.272,59.389,592.533,59.389,603.029,59.389z"/>
		<path fill-rule="evenodd" clip-rule="evenodd" d="M538.1,53.986c6.524,0,13.123-0.097,19.712,0.107
			c0.96,0.03,1.876,1.502,3.71,3.077c-2.168,0.837-3.548,1.788-4.961,1.84c-4.611,0.17-9.234,0.037-13.854-0.025
			C538.649,58.931,537.329,57.579,538.1,53.986z"/>
		<path fill-rule="evenodd" clip-rule="evenodd" d="M548.754,61.508c2.729,0,5.487-0.22,8.176,0.113
			c1.018,0.127,1.878,1.53,2.81,2.35c-0.958,0.873-1.885,2.455-2.879,2.498c-5.074,0.223-10.183,0.265-15.239-0.134
			c-1.345-0.106-2.549-1.996-3.817-3.068c1.292-0.6,2.541-1.556,3.887-1.721c2.322-0.285,4.705-0.079,7.063-0.079
			C548.754,61.481,548.754,61.495,548.754,61.508z"/>
		<path fill-rule="evenodd" clip-rule="evenodd" d="M571.379,174.186c9.671,0,19.342-0.026,29.011,0.064
			c0.561,0.006,1.111,0.948,1.667,1.453c-0.773,0.423-1.542,1.199-2.321,1.211c-6.716,0.099-13.433,0.058-20.149,0.062
			c-1.865,0.001-3.761,0.218-5.584-0.053c-1.092-0.161-2.072-1.075-3.103-1.651C571.059,174.909,571.22,174.547,571.379,174.186z"/>
		<path fill-rule="evenodd" clip-rule="evenodd" d="M537.34,175.506c6.422,0,12.866-0.066,19.306,0.094
			c0.708,0.018,1.385,1.326,2.076,2.036c-0.722,0.664-1.419,1.865-2.168,1.898c-3.7,0.164-7.413,0.011-11.122-0.015
			c-1.743-0.013-3.487,0.059-5.229,0.006C537.258,179.436,537.194,179.326,537.34,175.506z"/>
		<path fill-rule="evenodd" clip-rule="evenodd" d="M537.572,171.618c-0.771-2.7,0.086-3.766,2.803-3.692
			c4.97,0.137,9.947,0.175,14.919,0.081c2.306-0.044,3.507,0.75,3.559,3.611C551.743,171.618,544.693,171.618,537.572,171.618z"/>
		<path fill-rule="evenodd" clip-rule="evenodd" d="M63.086,25.082c-0.137-2.376-0.952-5,2.864-5.386
			C67.382,24.533,66.947,25.389,63.086,25.082z"/>
		<path fill-rule="evenodd" clip-rule="evenodd" d="M96.452,347.53c-0.522,1.957-1.021,3.828-1.521,5.699
			c-0.88-0.831-2.297-1.535-2.529-2.519C91.882,348.509,92.614,346.796,96.452,347.53z"/>
		<path fill-rule="evenodd" clip-rule="evenodd" d="M69.692,25.019c0.747-1.835,1.439-3.537,2.131-5.237
			c0.756,0.922,2.014,1.767,2.17,2.781C74.377,25.043,72.899,25.821,69.692,25.019z"/>
		<path fill-rule="evenodd" clip-rule="evenodd" d="M244.972,28.085c-1.178-1.451-1.826-2.25-2.473-3.048
			c1.013-0.608,1.98-1.561,3.053-1.7c0.679-0.087,1.516,1.038,2.281,1.62C247.054,25.809,246.274,26.662,244.972,28.085z"/>
		<path fill-rule="evenodd" clip-rule="evenodd" d="M80.016,25.49c-4.564-0.522-4.564-0.522-0.695-6.618
			C79.601,21.542,79.791,23.351,80.016,25.49z"/>
		<path fill-rule="evenodd" clip-rule="evenodd" d="M39.902,19.944c-0.235,1.779-0.47,3.559-0.705,5.338
			c-0.468,0.085-0.937,0.17-1.404,0.254c-0.515-1.383-1.393-2.765-1.4-4.151c-0.003-0.771,1.447-1.548,2.242-2.323
			C39.058,19.356,39.479,19.65,39.902,19.944z"/>
		<path fill-rule="evenodd" clip-rule="evenodd" d="M59.39,20.056c-0.099,1.688-0.197,3.376-0.296,5.064
			c-0.343,0.179-0.686,0.357-1.028,0.536c-0.545-0.831-1.597-1.709-1.524-2.481c0.126-1.341,0.948-2.616,1.479-3.918
			C58.477,19.522,58.934,19.789,59.39,20.056z"/>
		<path fill-rule="evenodd" clip-rule="evenodd" d="M464.506,273.854c0,1.686,0,3.372,0,5.058c-0.818-0.046-1.637-0.092-2.456-0.139
			c0.119-1.674,0.237-3.348,0.356-5.021C463.106,273.787,463.806,273.82,464.506,273.854z"/>
		<path fill-rule="evenodd" clip-rule="evenodd" d="M87.259,25.343c-1.557,0-2.497,0-4.272,0c0.576-1.896,1.059-3.482,1.542-5.069
			c0.495,0.02,0.989,0.039,1.483,0.058C86.4,21.896,86.79,23.459,87.259,25.343z"/>
		<path fill-rule="evenodd" clip-rule="evenodd" d="M43.687,25.056c-0.098-1.694-0.196-3.389-0.37-6.396
			c1.832,1.315,3.576,2.12,3.49,2.589c-0.268,1.459-1.229,2.792-1.922,4.174C44.485,25.301,44.086,25.178,43.687,25.056z"/>
		<path fill-rule="evenodd" clip-rule="evenodd" d="M293.301,28.813c-1.938-1.125-2.848-1.654-4.336-2.518
			c0.948-1.06,1.657-2.05,2.582-2.76c0.264-0.203,1.619,0.334,1.671,0.661C293.422,25.459,293.301,26.773,293.301,28.813z"/>
		<path fill-rule="evenodd" clip-rule="evenodd" d="M175.75,24.263c0.718-0.763,1.435-1.526,2.296-2.441
			c1.022,0.851,1.901,1.583,2.78,2.314c-0.062,0.389-0.124,0.777-0.186,1.166c-1.547,0.123-3.093,0.245-4.641,0.367
			C175.917,25.2,175.833,24.731,175.75,24.263z"/>
		<path fill-rule="evenodd" clip-rule="evenodd" d="M263.708,23.539c3.204-0.811,4.368,0.127,3.579,3.461
			c-1.083-0.056-2.598,0.299-3.233-0.292C263.455,26.151,263.784,24.598,263.708,23.539z"/>
		<path fill-rule="evenodd" clip-rule="evenodd" d="M159.076,21.781c0,1.259,0,2.519,0,3.778c-1.165-0.191-2.331-0.381-3.496-0.572
			c0.678-1.183,1.356-2.364,2.034-3.546C158.102,21.555,158.588,21.667,159.076,21.781z"/>
		<path fill-rule="evenodd" clip-rule="evenodd" d="M270.164,27.529c-0.147-2.878-0.128-4.786,2.538-4.141
			c0.717,0.174,1.173,1.428,1.749,2.187C273.133,26.175,271.815,26.776,270.164,27.529z"/>
		<path fill-rule="evenodd" clip-rule="evenodd" d="M98.422,275.791c-1.099,1.558-1.828,2.592-2.557,3.626
			c-0.751-0.556-2.083-1.048-2.153-1.68C93.43,275.201,95.099,275.039,98.422,275.791z"/>
		<path fill-rule="evenodd" clip-rule="evenodd" d="M49.317,22.529c0.821-1.052,1.539-1.971,2.256-2.891
			c0.505,0.86,1.5,1.787,1.396,2.565c-0.147,1.101-1.108,2.091-1.721,3.128C50.682,24.51,50.116,23.688,49.317,22.529z"/>
		<path fill-rule="evenodd" clip-rule="evenodd" d="M237.047,26.906c-1.249-3.35-0.018-4.263,3.254-3.421
			C241.265,26.566,240.1,27.541,237.047,26.906z"/>
		<path fill-rule="evenodd" clip-rule="evenodd" d="M32.717,256.944c1.165-0.649,2.329-1.3,3.493-1.95
			c0.339,0.923,0.679,1.845,1.018,2.768c-1.228,0.333-2.456,0.666-3.685,0.999C33.269,258.156,32.993,257.551,32.717,256.944z"/>
		<path fill-rule="evenodd" clip-rule="evenodd" d="M106.016,20.794c0.26,1.366,0.52,2.731,0.849,4.456c-1.494,0-2.618,0-4.958,0
			c1.303-1.986,2.217-3.378,3.131-4.771C105.364,20.584,105.69,20.689,106.016,20.794z"/>
		<path fill-rule="evenodd" clip-rule="evenodd" d="M257.159,23.534c3.09-0.896,4.246,0.063,3.605,3.327
			c-1.083,0.093-2.223,0.191-3.605,0.311C257.159,25.816,257.159,24.774,257.159,23.534z"/>
		<path fill-rule="evenodd" clip-rule="evenodd" d="M463.264,272.977c-0.84-1.872-1.612-2.78-1.485-3.537
			c0.127-0.752,1.158-1.351,1.794-2.016c0.584,0.754,1.563,1.471,1.637,2.271C465.275,270.42,464.354,271.236,463.264,272.977z"/>
		<path fill-rule="evenodd" clip-rule="evenodd" d="M462.04,338.297c0-1.935,0-3.477,0-5.38
			C465.627,335.181,465.632,335.947,462.04,338.297z"/>
		<path fill-rule="evenodd" clip-rule="evenodd" d="M233.422,23.469c-0.126,1.229-0.223,2.178-0.347,3.383
			c-0.819,0.041-1.771,0.375-2.144,0.047c-0.822-0.721-1.352-1.775-2.52-3.43C230.772,23.469,232.003,23.469,233.422,23.469z"/>
		<path fill-rule="evenodd" clip-rule="evenodd" d="M202.677,23.462c1.082-0.125,2.164-0.251,4.456-0.518
			c-0.921,1.746-1.478,2.802-2.034,3.858c-1.025-0.707-2.05-1.413-3.076-2.12C202.24,24.276,202.458,23.869,202.677,23.462z"/>
		<path fill-rule="evenodd" clip-rule="evenodd" d="M43.497,255.375c0,1.048,0,2.096,0,4.339c-1.649-1.144-2.622-1.818-3.595-2.492
			c0.833-0.932,1.667-1.863,2.5-2.794C42.767,254.743,43.132,255.059,43.497,255.375z"/>
		<path fill-rule="evenodd" clip-rule="evenodd" d="M53.743,259.687c0.142-2.388,0.199-3.353,0.273-4.605
			c0.861,0,1.797-0.279,2.196,0.065c0.615,0.53,1.375,1.966,1.176,2.179C56.631,258.134,55.514,258.607,53.743,259.687z"/>
		<path fill-rule="evenodd" clip-rule="evenodd" d="M70.816,258.896c-1.635-0.112-2.678-0.185-5.113-0.352
			c1.548-1.851,2.456-2.937,3.365-4.022c0.355,0.215,0.711,0.429,1.067,0.643C70.326,256.209,70.517,257.253,70.816,258.896z"/>
		<path fill-rule="evenodd" clip-rule="evenodd" d="M77.576,258.631c-1.034,0.06-2.069,0.121-3.245,0.189c0-1.328,0-2.379,0-3.431
			c0.278-0.255,0.556-0.51,0.834-0.766c1.092,0.907,2.184,1.813,3.276,2.719C78.153,257.772,77.864,258.201,77.576,258.631z"/>
		<path fill-rule="evenodd" clip-rule="evenodd" d="M93.087,262.712c1.95,0,2.993,0,4.32,0c0.049,1.101,0.095,2.132,0.157,3.524
			c-1.085,0-2.223,0.33-2.617-0.07C94.187,265.394,93.846,264.207,93.087,262.712z"/>
		<path fill-rule="evenodd" clip-rule="evenodd" d="M186.677,22.268c-0.222,1.305-0.444,2.611-0.666,3.917
			c-0.957-0.267-1.913-0.534-2.87-0.801c0.587-1.211,1.174-2.422,1.76-3.633C185.493,21.923,186.085,22.095,186.677,22.268z"/>
		<path fill-rule="evenodd" clip-rule="evenodd" d="M162.245,24.658c0.812-0.869,1.623-1.738,2.435-2.606
			c0.778,0.876,1.557,1.752,3.023,3.402c-2.501,0-3.65,0-4.799,0C162.684,25.188,162.464,24.923,162.245,24.658z"/>
		<path fill-rule="evenodd" clip-rule="evenodd" d="M122.408,24.453c0.842-0.942,1.683-1.885,2.525-2.828
			c0.791,0.937,1.582,1.874,3.073,3.642c-2.438,0.154-3.582,0.227-4.724,0.299C122.99,25.196,122.699,24.825,122.408,24.453z"/>
		<path fill-rule="evenodd" clip-rule="evenodd" d="M94.811,281.438c0.829,0.792,1.656,1.583,2.485,2.375
			c-0.673,0.617-1.347,1.233-2.02,1.852c-0.672-0.978-1.344-1.954-2.017-2.931C93.776,282.301,94.293,281.869,94.811,281.438z"/>
		<path fill-rule="evenodd" clip-rule="evenodd" d="M110.354,20.603c1.849,1.611,2.946,2.567,4.042,3.522
			c-0.176,0.352-0.354,0.704-0.53,1.055c-1.122,0.144-2.244,0.289-3.814,0.491C110.142,24.151,110.21,23.005,110.354,20.603z"/>
		<path fill-rule="evenodd" clip-rule="evenodd" d="M253.589,23.063c0,1.514,0,2.553,0,4.214c-1.403-0.358-2.696-0.471-3.707-1.064
			c-0.354-0.208-0.311-2.133,0.068-2.344C250.906,23.337,252.155,23.334,253.589,23.063z"/>
		<path fill-rule="evenodd" clip-rule="evenodd" fill="#FFFFFF" d="M182.494,154.979c0.878-1.256,1.407-2.126,2.046-2.907
			c5.524-6.752,11.024-13.527,16.621-20.22c5.141-6.15,10.545-12.086,15.534-18.356c2.51-3.153,4.08-7.05,6.564-10.229
			c3.541-4.533,7.624-8.637,11.302-13.068c3.702-4.46,7.193-9.095,10.771-13.658c3.492-4.454,6.983-8.907,10.459-13.372
			c5.503-7.069,10.959-14.175,16.504-21.212c2.748-3.487,5.565-6.931,8.576-10.187c0.431-0.466,2.642-0.173,3.161,0.469
			c4.122,5.109,7.961,10.447,12.03,15.602c5.89,7.463,12.001,14.754,17.828,22.266c4.831,6.23,9.315,12.728,14.084,19.008
			c5.264,6.933,10.719,13.72,16.006,20.635c3.167,4.143,6.152,8.424,9.256,12.616c4.993,6.745,9.941,13.524,15.055,20.178
			c3.149,4.096,6.642,7.929,9.813,12.01c0.73,0.939,0.777,2.411,1.159,3.706c-5.974,0-11.433,0.051-16.892-0.009
			c-19.924-0.217-39.847-0.537-59.771-0.694c-23.116-0.182-46.235-0.142-69.35-0.411c-4.922-0.057-9.825-1.162-14.757-1.507
			c-1.61-0.113-3.284,0.648-4.924,1.024c-0.355,0.081-0.758,0.407-1.032,0.312c-9.19-3.19-18.7-0.858-28.023-1.65
			C184.142,155.292,183.779,155.201,182.494,154.979z M266.612,127.451c5.744,2.844,6.319,7.126,2.431,15.504
			c-5.937,0.684-6.088,0.862-4.073,6.322c2.65-2.109,5.032-4.005,7.892-6.28c1.113,1.85,2.135,3.551,3.691,6.138
			c1.668-1.094,3.629-1.999,5.031-3.445c0.783-0.808,0.639-2.513,0.912-3.813c-1.021,0-2.043,0-3.232,0
			c-0.192-0.462-0.55-1.255-0.859-2.066c-2.234-5.854-1.338-7.212,4.848-7.974c0.854-0.105,2.006-1.282,2.21-2.153
			c0.196-0.834-0.588-2.706-1.066-2.749c-1.747-0.158-3.721-0.136-5.277,0.56c-1.705,0.764-2.825,1.654-4.392-0.289
			c-0.839-1.041-2.449-1.461-3.632-2.118C269.702,125.823,268.335,126.543,266.612,127.451z"/>
		<path fill-rule="evenodd" clip-rule="evenodd" fill="#FFFFFF" d="M171.526,167.411c0,9.357,0.007,17.555-0.001,25.753
			c-0.023,19.302-0.063,38.603-0.073,57.904c-0.002,5.048-0.78,6.093-5.822,5.832c-5.186-0.268-10.336-1.376-15.521-1.528
			c-9.447-0.275-18.906-0.12-28.36-0.135c-6.344-0.01-12.687-0.002-19.032-0.002c-0.211-0.347-0.422-0.693-0.633-1.041
			C124.987,225.572,147.89,196.949,171.526,167.411z"/>
		<path fill-rule="evenodd" clip-rule="evenodd" fill="#FFFFFF" d="M387.745,168.481c4.106,5.174,8.173,10.194,12.121,15.305
			c4.065,5.26,7.949,10.662,12.036,15.903c2.882,3.694,6.112,7.12,8.928,10.86c2.618,3.477,4.745,7.323,7.358,10.805
			c2.765,3.681,5.868,7.105,8.787,10.673c2.068,2.528,4.157,5.048,6.095,7.675c3.972,5.388,7.848,10.845,11.765,16.272
			c0.791,1.095,1.586,2.188,2.379,3.281c-1.651,0.294-3.308,0.87-4.952,0.839c-20.822-0.392-41.644-0.87-62.465-1.33
			c-3.371-0.074-4.582-1.928-3.413-5.16c0.247-0.685,0.58-1.395,0.593-2.099c0.082-4.748,0.275-9.506,0.071-14.245
			c-0.231-5.328-1.047-10.636-1.197-15.963c-0.069-2.49,1.188-5.002,1.227-7.514c0.216-14.093,0.235-28.189,0.349-42.284
			C387.434,170.442,387.646,169.387,387.745,168.481z M406.128,236.378c-0.215-3.109-0.236-6.218-0.689-9.264
			c-0.593-3.978-4.258-5.902-7.777-4.235c-0.532,0.252-1.043,1.076-1.091,1.674c-0.048,0.593,0.448,1.738,0.799,1.775
			c3.588,0.386,2.862,3.109,2.986,5.326c0.104,1.862-0.239,3.797,0.136,5.591c1.11,5.314,1.167,10.006-4.893,12.557
			c-0.575,0.242-0.524,1.976-0.764,3.017c0.941-0.104,2.142,0.131,2.785-0.362c6.263-4.797,10.984-10.961,15.068-17.63
			c1.362-2.225,2.816-4.521,3.491-6.987c0.37-1.349-0.628-3.209-1.384-4.641c-0.2-0.378-2.533-0.242-2.618,0.039
			c-0.393,1.307-0.61,2.79-0.393,4.129C412.406,231.183,410.027,235.219,406.128,236.378z"/>
		<path fill-rule="evenodd" clip-rule="evenodd" fill="#FFFFFF" d="M207.833,168c-0.275,1.685-0.599,3.364-0.809,5.057
			c-0.145,1.16-0.131,2.34-0.201,3.758c-1.696-0.138-4.458,1.759-4.718-1.248c-1.998-0.864-3.482-1.333-4.772-2.119
			c-0.961-0.585-1.672-1.582-2.496-2.393c-0.001,0.001,0.037,0.047,0.037,0.047c3.527-4.584,8.569-2.67,13.081-3.048
			C207.959,168.054,207.833,168,207.833,168z"/>
		<path fill-rule="evenodd" clip-rule="evenodd" fill="#FFFFFF" d="M194.874,171.102c0,0-0.038-0.046-0.037-0.047
			c-1.829,0.127-4.838,0.974-5.275,0.255c-1.536-2.526-2.189-5.59-3.536-9.488c3.766,0.642,7.275,0.261,8.239,1.647
			C195.523,165.281,194.765,168.493,194.874,171.102z"/>
		<path fill-rule="evenodd" clip-rule="evenodd" fill="#FFFFFF" d="M181.679,183.232c-3.979-2.934-2.155-6.786-2.117-10.043
			c0.012-1.003,2.5-1.978,4.497-3.436c0.117,2.418,0.191,3.93,0.279,5.752c1.242-0.283,2.306-0.525,3.994-0.91
			C185.955,177.682,183.94,180.297,181.679,183.232z"/>
		<path fill-rule="evenodd" clip-rule="evenodd" fill="#FFFFFF" d="M194.086,254.063c-0.434-4.222,0.426-4.913,3.659-3.82
			c3.666,1.239,7.369,2.363,11.59-0.395c0.173,1.194,0.811,2.708,0.363,3.173c-0.697,0.722-2.127,0.969-3.258,0.999
			C202.394,254.129,198.344,254.063,194.086,254.063z"/>
		<path fill-rule="evenodd" clip-rule="evenodd" fill="#FFFFFF" d="M255.089,253.422c-0.977,0.443-2.339,1.537-2.868,1.224
			c-3.307-1.957-7.738,1.358-10.722-1.659c0.05-0.387,0.101-0.775,0.15-1.163c4.05,0,8.1,0,12.15,0
			C254.229,252.356,254.659,252.89,255.089,253.422z"/>
		<path fill-rule="evenodd" clip-rule="evenodd" fill="#FFFFFF" d="M211.454,164.295c2.38-0.62,4.76-1.241,7.815-2.037
			c-0.398,2.076-0.594,3.091-0.896,4.671c-1.531-0.739-2.725-1.316-3.92-1.892c-0.74-1.256-2.519,3.77-2.913-0.841
			C211.541,164.197,211.454,164.295,211.454,164.295z"/>
		<path fill-rule="evenodd" clip-rule="evenodd" fill="#FFFFFF" d="M363.241,164.841c3.144,0,5.635,0,8.125,0
			c0.052,0.347,0.104,0.693,0.157,1.041c-2.434,0.397-4.86,0.84-7.308,1.105C364.014,167.009,363.681,165.837,363.241,164.841z"/>
		<path fill-rule="evenodd" clip-rule="evenodd" fill="#FFFFFF" d="M250.774,164.651c2.862,0,5.181,0,7.639,0
			C256.201,169.033,255.487,169.06,250.774,164.651z"/>
		<path fill-rule="evenodd" clip-rule="evenodd" fill="#FFFFFF" d="M207.833,168c0,0,0.126,0.054,0.122,0.054
			c-0.345-1.861-0.686-3.721-1.019-5.54c0.894,1.613,4.229-2.493,4.519,1.782c0-0.001,0.086-0.1,0.086-0.101
			C210.305,165.463,209.069,166.731,207.833,168z"/>
		<path fill-rule="evenodd" clip-rule="evenodd" fill="#FFFFFF" d="M284.707,255.032c1.316-4.372,1.523-4.404,4.255-1.627
			c0.46-0.538,0.918-1.073,1.561-1.825c0.272,0.778,0.466,1.334,0.66,1.891C289.278,253.93,287.374,254.389,284.707,255.032z"/>
		<path fill-rule="evenodd" clip-rule="evenodd" fill="#FFFFFF" d="M262.378,168.156c0,2.226,0,4.02,0,5.814
			c-1.167-0.1-2.334-0.199-3.729-0.318C259.959,171.722,260.925,170.299,262.378,168.156z"/>
		<path fill-rule="evenodd" clip-rule="evenodd" fill="#FFFFFF" d="M204.037,163.392c-1.65,1.079-2.976,1.945-4.297,2.809
			c-1.504-2.085-1.504-2.085,1.809-4.695c0.396,0.361,0.795,0.773,1.245,1.121C203.166,162.914,203.597,163.125,204.037,163.392z"/>
		<path fill-rule="evenodd" clip-rule="evenodd" fill="#FFFFFF" d="M180.221,162.111c1.315,0.918,2.676,1.784,3.893,2.819
			c0.161,0.136-0.414,1.137-0.647,1.737c-1.441-1.004-2.882-2.008-4.323-3.013C179.502,163.141,179.862,162.625,180.221,162.111z"/>
		<path fill-rule="evenodd" clip-rule="evenodd" fill="#FFFFFF" d="M276.147,251.585c1.073,0.532,2.146,1.064,3.557,1.762
			c0.396-0.413,1.061-1.108,1.725-1.804c0.24,0.129,0.48,0.258,0.719,0.386c-0.363,0.802-0.729,2.289-1.09,2.287
			c-1.842-0.007-3.681-0.397-5.521-0.655C275.741,252.902,275.945,252.244,276.147,251.585z"/>
		<path fill-rule="evenodd" clip-rule="evenodd" fill="#FFFFFF" d="M232.425,251.883c1.846,0,3.693,0,5.54,0
			c-0.001,0.353-0.002,0.704-0.004,1.056c-1.846,0-3.692,0-5.539,0C232.423,252.587,232.424,252.235,232.425,251.883z"/>
		<path fill-rule="evenodd" clip-rule="evenodd" fill="#FFFFFF" d="M353.069,180.558c-1.626,0.808-3.252,1.617-4.878,2.425
			c-0.237-0.479-0.476-0.956-0.713-1.435c1.636-0.86,3.272-1.721,4.908-2.582C352.614,179.496,352.842,180.026,353.069,180.558z"/>
		<path fill-rule="evenodd" clip-rule="evenodd" fill="#FFFFFF" d="M593.354,34.799c-0.601,1.403-1.051,3.423-2.225,4.846
			c-0.746,0.906-3.447,1.623-3.757,1.23c-1.672-2.122-3.639-4.509-3.989-7.018c-0.285-2.034,1.168-4.688,2.594-6.472
			c1.251-1.564,5.467,0.044,6.2,2.147C592.703,31.042,592.894,32.669,593.354,34.799z"/>
		<path fill-rule="evenodd" clip-rule="evenodd" fill="#FFFFFF" d="M269.727,332.182c0.464-4.08,0.593-8.332,5.5-10.577
			c2.655-1.215,4.625-0.77,5.097,2.251c0.594,3.793-3.758,11.166-7.346,12.445C270.832,337.065,269.639,335.628,269.727,332.182z"/>
		<path fill-rule="evenodd" clip-rule="evenodd" d="M266.612,127.451c1.723-0.908,3.09-1.628,4.483-2.362
			c1.184,0.656,2.793,1.077,3.632,2.118c1.567,1.943,2.687,1.053,4.392,0.289c1.556-0.696,3.53-0.718,5.277-0.56
			c0.478,0.043,1.263,1.914,1.066,2.749c-0.204,0.871-1.356,2.048-2.21,2.153c-6.186,0.762-7.082,2.121-4.848,7.974
			c0.309,0.811,0.667,1.604,0.859,2.066c1.189,0,2.211,0,3.232,0c-0.273,1.301-0.129,3.006-0.912,3.813
			c-1.402,1.446-3.363,2.351-5.031,3.445c-1.556-2.586-2.579-4.288-3.691-6.138c-2.86,2.275-5.242,4.171-7.892,6.28
			c-2.015-5.459-1.864-5.638,4.073-6.322C272.931,134.578,272.356,130.295,266.612,127.451z"/>
		<path fill-rule="evenodd" clip-rule="evenodd" d="M406.128,236.378c3.899-1.159,6.278-5.195,5.657-9.012
			c-0.218-1.339,0-2.822,0.393-4.129c0.085-0.281,2.418-0.417,2.618-0.039c0.756,1.432,1.754,3.292,1.384,4.641
			c-0.675,2.466-2.129,4.763-3.491,6.987c-4.084,6.669-8.806,12.833-15.068,17.63c-0.644,0.493-1.844,0.259-2.785,0.362
			c0.239-1.041,0.188-2.774,0.764-3.017c6.06-2.551,6.003-7.242,4.893-12.557c-0.375-1.794-0.032-3.729-0.136-5.591
			c-0.124-2.217,0.602-4.94-2.986-5.326c-0.351-0.037-0.847-1.183-0.799-1.775c0.048-0.598,0.559-1.422,1.091-1.674
			c3.52-1.667,7.185,0.258,7.777,4.235C405.892,230.16,405.913,233.269,406.128,236.378z"/>
	</g>
</g>
</svg>
