<?xml version="1.0" encoding="utf-8"?>
<!-- Generator: Adobe Illustrator 16.0.0, SVG Export Plug-In . SVG Version: 6.00 Build 0)  -->
<!DOCTYPE svg PUBLIC "-//W3C//DTD SVG 1.1//EN" "http://www.w3.org/Graphics/SVG/1.1/DTD/svg11.dtd">
<svg version="1.1" id="Layer_1" xmlns="http://www.w3.org/2000/svg" xmlns:xlink="http://www.w3.org/1999/xlink" x="0px" y="0px"
	 width="396.806px" height="417.809px" viewBox="0 0 396.806 417.809" enable-background="new 0 0 396.806 417.809"
	 xml:space="preserve">
<g>
	<g>
		<path fill-rule="evenodd" clip-rule="evenodd" fill="#FFFFFF" d="M0.762,418.559C0.758,279.326,0.758,140.094,0.758,0.806
			c132.193,0,264.394,0,396.696,0c0,139.214,0,278.483,0,417.753C265.242,418.559,133.004,418.559,0.762,418.559z M209.752,241.888
			c-0.276-0.341-0.523-0.713-0.836-1.018c-0.817-0.796-1.663-1.563-2.496-2.341c-0.419,0.756-0.836,1.513-1.255,2.269
			c1.088,0.486,2.15,1.051,3.277,1.419c0.375,0.123,0.914-0.256,1.378-0.405c-1.041,0.646-2.336,1.091-3.053,1.994
			c-0.747,0.94-0.937,2.322-1.37,3.512c1.021-0.036,2.042-0.079,3.063-0.105c1.469-0.037,3.054-0.438,4.387-0.026
			c5.482,1.691,10.862,3.717,16.336,5.439c2.498,0.786,5.127,1.15,7.696,1.707c0.222-0.334,0.444-0.668,0.666-1.002
			c-1.625-2.033-3.25-4.066-5.401-6.759c7.881,0,14.965,0.01,22.047-0.002c7.113-0.013,14.232-0.252,21.336-0.011
			c6.828,0.232,13.758-1.771,20.951,0.246c-2.119,2.635-3.781,4.7-6.063,7.537c2.252-0.13,3.756,0.112,5-0.348
			c4.352-1.608,8.481-4.13,12.952-5.02c4.11-0.818,8.175-4.235,12.795-1.367c0.199,0.123,1.923-1.278,1.889-1.916
			c-0.054-1.044-0.968-2.042-1.269-2.598c0.675-1.552,1.224-2.813,1.767-4.063c-4.204-2.006-3.16,1.451-4.113,3.871
			c-9.409-3.148-18.761-6.277-28.111-9.406c-0.2,0.402-0.4,0.806-0.601,1.208c1.697,2.29,3.394,4.579,5.481,7.397
			c-21.34,0-41.967,0-63.411,0c1.798-2.99,3.233-5.378,5.219-8.68c-2.749,0.506-4.628,0.56-6.271,1.209
			c-4.553,1.799-8.928,4.066-13.529,5.709C215.56,241.287,212.604,241.384,209.752,241.888z M89.853,206.655
			c3.091,1.715,5.836,3.938,8.958,4.815c5.435,1.526,11.095,2.271,16.677,3.254c7.795,1.375,15.561,3.295,23.419,3.861
			c14.552,1.05,29.161,1.38,43.751,1.826c7.226,0.222,14.466,0.039,20.614,0.039c1.74,2.076,2.801,3.34,3.861,4.605
			c0.855-1.333,1.711-2.665,2.527-3.936c12.913-0.578,26.101-1.131,39.283-1.771c10.706-0.521,21.411-1.082,32.107-1.771
			c2.571-0.165,5.101-0.933,7.657-1.375c3.414-0.589,6.852-1.053,10.251-1.715c4.213-0.82,8.435-1.644,12.58-2.742
			c2.758-0.731,5.387-1.948,8.337-3.044c0,1.102-0.208,2.008,0.063,2.738c0.235,0.636,1.011,1.071,1.547,1.595
			c0.589-0.639,1.792-1.672,1.672-1.858c-1.344-2.098-0.338-4.015-0.028-6.085c0.191-1.274-0.54-2.938-1.36-4.061
			c-2.056-2.813-4.489-5.347-6.602-8.123c-4.143-5.44-8.386-10.823-12.197-16.492c-7.262-10.802-14.151-21.854-21.383-32.676
			c-6.183-9.252-12.66-18.306-18.947-27.488c-6.278-9.17-12.479-18.395-18.719-27.591c-3.705-5.459-7.49-10.866-11.113-16.379
			c-3.277-4.989-6.159-10.251-9.621-15.103c-4.527-6.345-9.453-12.405-14.339-18.759c1.955-1.018,3.216-1.675,4.476-2.332
			c-0.396-0.405-0.792-0.81-1.188-1.215c-2.654-0.125-5.309-0.33-7.962-0.308c-0.528,0.004-1.174,0.791-1.558,1.356
			c-5.07,7.47-10.204,14.9-15.118,22.472c-6.332,9.754-12.417,19.667-18.726,29.437c-7.514,11.638-15.092,23.236-22.793,34.75
			c-1.379,2.061-3.375,3.775-5.319,5.365c-0.868,0.709-2.313,0.713-3.495,1.037c0.678,1.057,1.357,2.113,2.094,3.261
			C123.049,156.659,106.709,181.268,89.853,206.655z M346.698,59.872c0,40.31,0,80.285,0,120.954
			c-2.314-1.839-4.422-3.515-6.529-5.19c-0.407,0.157-0.813,0.314-1.221,0.471c3.221,10.097,6.441,20.193,9.867,30.934
			c0.512-0.382,2.191-0.968,2.497-1.973c2.164-7.099,4.059-14.281,6.01-21.445c0.68-2.496,1.277-5.014,1.913-7.522
			c-0.345-0.179-0.688-0.359-1.032-0.539c-2.034,1.796-4.067,3.593-6.101,5.389c-0.35-0.075-0.699-0.151-1.048-0.227
			c0-40.19,0-80.38,0-121.018c2.338,2.138,4.76,4.352,7.181,6.565c0.357-0.228,0.715-0.455,1.072-0.683
			c-3.656-10.799-7.313-21.598-11.233-33.18c-0.809,1.52-1.354,2.201-1.553,2.972c-1.255,4.9-2.299,9.856-3.679,14.719
			c-1.151,4.057-2.743,7.987-3.957,12.027c-0.264,0.877,0.246,1.986,0.399,2.989c0.782-0.405,1.629-0.722,2.334-1.234
			C343.059,62.834,344.421,61.682,346.698,59.872z M66.11,128.602c-0.331-0.24-0.661-0.479-0.991-0.719
			c-0.801,0.696-2.051,1.245-2.334,2.11c-3.005,9.2-5.89,18.439-8.707,27.699c-0.328,1.077-0.044,2.34-0.044,4.185
			c2.655-2.299,4.747-4.111,7.194-6.23c0.597,9.128,1.143,17.487,1.771,27.087c-3.398-2.472-5.831-4.242-8.263-6.012
			c-0.265,0.271-0.531,0.543-0.796,0.814c2.183,10.547,8.261,19.905,8.697,30.984c0.586-0.026,1.172-0.051,1.759-0.078
			c3.267-10.393,6.533-20.785,9.8-31.177c-0.472-0.28-0.944-0.56-1.416-0.839c-1.986,1.75-3.972,3.499-6.444,5.678
			c-0.574-9.107-1.099-17.437-1.701-26.988c3.32,2.261,5.847,3.982,8.874,6.043c0.079-1.557,0.339-2.347,0.115-2.961
			c-1.751-4.804-3.914-9.482-5.321-14.38C66.891,138.903,62.437,134.381,66.11,128.602z M226.636,323.167
			c-0.134-1.932,0.142-3.602-0.457-4.852c-0.509-1.063-2.028-1.64-3.101-2.432c-0.659,0.965-1.636,1.852-1.896,2.914
			c-0.348,1.419-0.163,2.975-0.165,4.473c-0.01,6.687-0.005,13.373-0.005,19.981c5.209,0.438,5.551,0.056,5.423-4.202
			c-0.111-3.689-0.023-7.384-0.023-10.898c5.636-1.117,6.336-0.766,6.965,3.937c0.327,2.444-0.162,5.001,0.191,7.438
			c0.2,1.387,1.358,2.635,2.086,3.945c0.891-1.127,2.414-2.184,2.547-3.395c0.338-3.079,0.574-6.343-0.087-9.324
			c-1.475-6.643-0.465-8.167-8.94-7.592C228.447,323.21,227.715,323.167,226.636,323.167z M376.667,128.991
			c-0.967,3.293-2.113,6.549-2.805,9.899c-0.26,1.259,0.54,2.737,0.856,4.115c1.237-0.369,2.795-0.404,3.629-1.198
			c0.917-0.874,1.4-2.402,1.649-3.725c0.263-1.403-0.107-2.913,0.042-4.352c0.181-1.727,0.747-3.415,0.918-5.143
			c0.33-3.355-1.541-4.871-4.646-3.698c-1.704,0.645-3.257,1.691-5.534,2.905c0.864-3.553,1.716-6.623,2.309-9.743
			c0.183-0.966-0.026-2.674-0.603-2.967c-0.968-0.492-2.53-0.458-3.536,0.01c-0.601,0.28-0.732,1.794-0.872,2.783
			c-0.189,1.34,0.053,2.773-0.303,4.051c-1.568,5.629-3.221,11.238-4.98,16.81c-0.607,1.922-0.671,3.716,1.466,4.136
			c0.728,0.143,2.312-1.645,2.737-2.825C368.745,135.194,371.069,130.912,376.667,128.991z M221.263,372.669
			c2.518,3.005,2.706,2.75,5.559,0.481c1.294-1.028,3.599-0.952,5.452-0.995c0.502-0.012,1.639,1.667,1.445,2.061
			c-0.653,1.33-1.703,2.498-2.737,3.601c-0.799,0.854-1.8,1.518-2.711,2.267c1.032,0.724,1.995,1.917,3.109,2.08
			c2.512,0.368,3.767,1.691,3.188,3.967c-0.361,1.422-1.556,3.247-2.802,3.689c-2.001,0.71-4.1,0.123-5.192-2.35
			c-0.377-0.853-1.591-1.75-2.497-1.835c-0.864-0.082-2.583,0.862-2.587,1.367c-0.01,1.108,0.631,2.386,1.376,3.288
			c0.74,0.897,1.882,1.518,2.939,2.09c3.395,1.834,9.057,1.171,11.438-1.265c2.933-3.001,2.919-5.188,0.396-10.278
			c-0.527-1.065-0.585-2.733-0.143-3.838c1.122-2.798,0.805-5.203-1.443-7.076c-2.61-2.172-5.669-3.351-8.932-1.509
			C225.039,369.592,223.215,371.229,221.263,372.669z M160.376,346.469c-0.505,0.288-1.009,0.575-1.514,0.862
			c1.425,3.986,2.876,7.965,4.264,11.965c0.833,2.404,2.096,4.839,2.123,7.272c0.013,1.202-2.399,2.371-3.575,3.68
			c-0.406,0.451-0.662,1.364-0.492,1.914c0.166,0.537,0.913,1.158,1.489,1.259c3.165,0.558,4.875-1.514,5.95-3.946
			c1.692-3.834,3.128-7.789,4.522-11.745c1.235-3.504,2.264-7.082,3.389-10.646c-2.905-0.984-4.436-0.805-5.156,1.915
			c-0.753,2.847-1.964,5.572-3.229,9.05C164.392,354.185,166.399,347.341,160.376,346.469z M18.31,187.751
			c1.706-0.334,2.933-0.196,3.395-0.725c4.988-5.714,9.976-11.437,14.649-17.404c0.898-1.147,0.723-3.414,0.454-5.068
			c-0.121-0.743-1.694-1.25-2.608-1.863c-0.503,0.969-1.59,2.066-1.411,2.886c0.836,3.832-0.705,7.111-4.802,9.074
			c-0.134-2.171-0.26-4.266-0.394-6.361c-0.326-5.126-2.278-6.234-7.563-3.979c4.673,2.923,2.222,7.882,3.653,11.641
			C25.801,181.514,21.189,183.46,18.31,187.751z M255.791,266.008c-0.906,4.215-1.552,7.425-2.3,10.608
			c-0.365,1.559-1.138,3.048-1.308,4.613c-0.097,0.892,0.647,1.873,1.014,2.814c0.938-0.428,2.256-0.605,2.735-1.335
			c0.92-1.402,1.296-3.149,2.024-4.693c1.537-3.262,2.237-7.327,7.265-7.275c0.606,0.007,1.653-1.627,1.695-2.537
			c0.028-0.598-1.374-1.764-2.151-1.777c-1.091-0.02-2.196,0.795-2.619,0.971C259.555,266.831,257.522,266.386,255.791,266.008z
			 M243.36,356.767c-0.167-0.357-0.334-0.713-0.5-1.069c-8.758,0-17.517,0-26.274,0c-0.15,0.34-0.3,0.681-0.45,1.021
			c0.948,0.551,1.888,1.559,2.848,1.579c7.223,0.156,14.45,0.176,21.674,0.064C241.566,358.348,242.46,357.323,243.36,356.767z
			 M196.634,355.451c0,0.021,0,0.042,0,0.063c2.354,0,4.726,0.164,7.053-0.088c0.832-0.09,1.556-1.187,2.329-1.822
			c-0.766-0.699-1.508-1.97-2.301-2.003c-4.641-0.192-9.296-0.186-13.938-0.011c-0.834,0.032-1.628,1.158-2.44,1.779
			c0.869,0.694,1.673,1.858,2.619,1.987C192.146,355.655,194.404,355.451,196.634,355.451z M206.809,358.678
			c-7.128,0-13.2,0-20.241,0C189.638,360.854,203.822,360.901,206.809,358.678z M132.722,132.06c0.756-1.321,1.63-2.171,1.482-2.769
			c-0.171-0.694-1.24-1.604-1.917-1.601c-0.574,0-1.596,1.167-1.594,1.815C130.695,130.174,131.693,130.84,132.722,132.06z
			 M318.523,215.724c0.322,0.515,0.646,1.029,0.968,1.544c0.658,0.549,1.317,1.099,1.976,1.648c0.588-0.769,1.568-1.503,1.635-2.313
			c0.052-0.615-1.014-1.817-1.666-1.879C320.505,214.636,319.498,215.352,318.523,215.724z M206.036,254.177
			c0.528,0.07,1.058,0.142,1.586,0.213c0.31-1.308,0.62-2.614,0.931-3.922c-0.839,0.011-2.382-0.094-2.406,0.051
			C205.95,251.712,206.036,252.951,206.036,254.177z"/>
		<path fill-rule="evenodd" clip-rule="evenodd" d="M89.853,206.655c16.856-25.387,33.196-49.996,49.407-74.41
			c-0.737-1.148-1.416-2.204-2.094-3.261c1.183-0.324,2.627-0.328,3.495-1.037c1.944-1.589,3.939-3.304,5.319-5.365
			c7.701-11.515,15.279-23.113,22.793-34.75c6.309-9.77,12.394-19.683,18.726-29.437c4.915-7.571,10.048-15.001,15.118-22.472
			c0.384-0.566,1.029-1.352,1.558-1.356c2.653-0.022,5.308,0.182,7.962,0.308c0.396,0.405,0.793,0.81,1.188,1.215
			c-1.26,0.656-2.521,1.313-4.476,2.332c4.886,6.354,9.812,12.414,14.339,18.759c3.462,4.852,6.344,10.113,9.621,15.103
			c3.623,5.513,7.408,10.919,11.113,16.379c6.24,9.196,12.44,18.42,18.719,27.591c6.287,9.182,12.765,18.236,18.947,27.488
			c7.231,10.822,14.121,21.874,21.383,32.676c3.812,5.669,8.055,11.052,12.197,16.492c2.112,2.775,4.546,5.309,6.602,8.123
			c0.82,1.123,1.552,2.787,1.36,4.061c-0.31,2.071-1.315,3.988,0.028,6.085c0.12,0.187-1.083,1.22-1.672,1.858
			c-0.536-0.523-1.312-0.959-1.547-1.595c-0.271-0.729-0.063-1.636-0.063-2.738c-2.95,1.096-5.579,2.313-8.337,3.044
			c-4.146,1.099-8.367,1.922-12.58,2.742c-3.399,0.662-6.837,1.126-10.251,1.715c-2.557,0.442-5.086,1.21-7.657,1.375
			c-10.696,0.688-21.401,1.25-32.107,1.771c-13.183,0.64-26.37,1.192-39.283,1.771c-0.816,1.271-1.672,2.603-2.527,3.936
			c-1.061-1.266-2.121-2.529-3.861-4.605c-6.148,0-13.388,0.183-20.614-0.039c-14.59-0.446-29.199-0.776-43.751-1.826
			c-7.858-0.566-15.624-2.486-23.419-3.861c-5.582-0.983-11.242-1.728-16.677-3.254C95.689,210.593,92.944,208.37,89.853,206.655z
			 M219.604,62.61c-1.143-1.787-2.243-3.604-3.519-5.29c-0.083-0.109-1.503,0.793-2.302,1.226c-0.249-0.657-0.5-1.313-0.75-1.971
			c-3.702,0.166-4.852,2.962-5.969,5.792c-0.598,1.296-1.955,3.496-1.667,3.738c1.45,1.218,3.328,1.925,5.056,2.812
			c-2.085,0.283-2.294,1.539-0.965,2.715c3.052,2.704,2.867,6.14,2.659,9.654c-0.331,4.658,0.103,4.999,4.493,3.533
			c1.447,0.978,2.894,1.957,4.339,2.935c-0.385,1.023-0.771,2.047-1.156,3.07c-0.825,0.377-1.779,0.599-2.45,1.161
			c-1.626,1.36-3.118,2.879-5.018,4.666c0,0.751-0.156,2.144,0.055,3.478c0.139,0.875,0.637,2.194,1.271,2.399
			c2.442,0.791,4.982,1.525,7.526,1.708c5.41,0.388,6.902,1.606,7.706,7.224c-4.041,1.795-4.136-3.094-6.557-3.935
			c-3.368,1.49-4.762,1.237-7.407-1.135c-0.375-0.335-1.213-0.545-1.612-0.352c-0.408,0.197-0.844,1.046-0.731,1.464
			c0.251,0.927,0.648,1.967,1.325,2.594c1.556,1.442,1.849,2.902-0.157,3.754c-0.668,0.284-2.102-1.097-3.113-1.815
			c-0.601-0.425-1.063-1.045-1.588-1.578c-0.387,0.671-0.953,1.303-1.114,2.024c-0.23,1.024-0.164,2.116-0.234,3.361
			c4.113,0.145,8.257,1.52,9.486-4.052c1.604,1.564,2.81,3.766,4.405,4.1c4.582,0.959,9.325,1.135,14,1.671
			c4.052,0.464,8.11,0.907,12.14,1.53c4.194,0.65,8.355,1.504,13.177,2.388c-0.658-1.208-1.068-2.234-1.708-3.088
			c-3.96-5.287-8.248-10.349-11.903-15.834c-6.789-10.186-13.177-20.637-19.844-30.905c-0.92-1.417-2.44-2.58-4.32-1.026
			c0.146-0.662,0.631-1.519,0.382-1.952C222.335,66.59,220.935,64.62,219.604,62.61z M177.343,207.49
			c18.789,3.546,38.281,3.547,57.414,0.136c0.111-1.667,0.234-3.504,0.357-5.361c-3.208-1.129-3.606-2.497-2.031-5.804
			c0.535-1.122,0.425-2.586,0.469-3.898c0.141-4.094,0.214-8.19,0.313-12.285c-0.058,0.017-0.116,0.034-0.173,0.052
			c0-7.847,0-15.693,0-23.385c1.172-0.5,2.651-1.131,4.131-1.762c-4.429-0.27-5.64-2.167-4.7-6.071
			c0.699-2.905,2.623-6.521-1.516-8.5c-1.954,0.13-3.82-0.19-5.694-0.239c-4.35-0.113-8.702-0.111-13.055-0.127
			c-9.8-0.035-19.599-0.035-29.398-0.091c-2.707-0.015-3.39,0.927-2.09,3.422c0.398,0.763,0.35,1.995,0.045,2.849
			c-1.791,5.029-0.746,9.933,0.202,15.057c-1.536,1.325-3.308,2.854-5.294,4.568c0.964,0.676,1.977,1.157,2.659,1.93
			c0.642,0.729,1.169,1.727,1.327,2.676c0.222,1.335,0.057,2.734,0.057,4.105c0.444,0.01,0.889,0.02,1.333,0.029
			c-2.085,2.07-3.841,4.132-0.829,5.497c0.155,2.582,0.273,4.562,0.394,6.542c0.12,1.952,0.579,3.955,0.292,5.845
			c-0.586,3.852-1.481,7.665-2.447,11.443C178.779,205.403,177.857,206.54,177.343,207.49z M145.743,129.182
			c1.653,0.823,2.78,1.707,4.032,1.952c5.835,1.144,11.708,2.091,17.559,3.154c2.063,0.374,4.098,1.257,6.15,1.27
			c18.101,0.116,36.204,0.121,54.306,0.076c3.851-0.009,7.749-0.031,11.539-0.611c6.818-1.044,13.581-2.469,20.346-3.843
			c1.516-0.308,2.939-1.067,5.266-1.942c-2.087-1.35-3.107-2.386-4.322-2.726c-3.549-0.99-7.139-2.097-10.78-2.45
			c-11.979-1.159-23.974-2.338-35.99-2.852c-7.476-0.32-15.006,0.47-22.503,0.905c-7.299,0.423-14.58,1.186-21.882,1.513
			C161.502,123.986,153.814,125.303,145.743,129.182z M271.135,137.1c-0.249,0.132-0.497,0.264-0.745,0.395
			c0,17.541,0,35.082,0,52.62c13.634,1.906,26.947,3.767,40.967,5.728C297.838,176.099,284.486,156.6,271.135,137.1z
			 M176.62,215.393c0.101-0.344,0.202-0.687,0.304-1.029c-1.07-0.347-2.116-0.85-3.213-1.016c-7.416-1.12-14.907-1.853-22.25-3.324
			c-8.599-1.723-9.804-3.399-9.892-11.724c-0.027-2.551-0.993-3.33-3.404-3.005c-7.951,1.068-15.958,1.8-23.854,3.172
			c-5.396,0.937-10.665,2.659-15.942,4.194c-0.922,0.268-1.808,1.239-2.301,2.116c-0.202,0.36,0.53,1.746,1.099,1.957
			c4.399,1.632,8.759,3.761,13.326,4.458c8.586,1.311,17.292,1.965,25.971,2.527c12.657,0.818,25.333,1.321,38.002,1.935
			C175.178,215.688,175.901,215.484,176.62,215.393z M189.427,214.866c-0.016,0.209-0.031,0.418-0.046,0.626
			c5.197,0,10.394,0,15.59,0c-0.005-0.208-0.011-0.417-0.017-0.626C199.778,214.866,194.603,214.866,189.427,214.866z
			 M218.438,215.68c-0.006-0.2-0.011-0.401-0.016-0.604c-2.809,0-5.617,0-8.426,0c0.014,0.343,0.029,0.685,0.043,1.025
			C212.839,215.961,215.638,215.82,218.438,215.68z M205.297,40.948c-3.796,4.006,0.83,3.808,1.606,5.309
			c0.274-0.125,0.548-0.25,0.821-0.375C207.025,44.46,206.326,43.04,205.297,40.948z"/>
		<path fill-rule="evenodd" clip-rule="evenodd" d="M346.698,59.872c-2.277,1.811-3.64,2.963-5.079,4.01
			c-0.705,0.513-1.552,0.829-2.334,1.234c-0.153-1.002-0.663-2.112-0.399-2.989c1.214-4.041,2.806-7.971,3.957-12.027
			c1.38-4.863,2.424-9.819,3.679-14.719c0.198-0.771,0.744-1.452,1.553-2.972c3.921,11.582,7.577,22.38,11.233,33.18
			c-0.357,0.228-0.715,0.455-1.072,0.683c-2.421-2.213-4.843-4.427-7.181-6.565c0,40.638,0,80.828,0,121.018
			c0.349,0.076,0.698,0.152,1.048,0.227c2.033-1.796,4.066-3.593,6.101-5.389c0.344,0.18,0.688,0.36,1.032,0.539
			c-0.636,2.508-1.233,5.027-1.913,7.522c-1.951,7.164-3.846,14.346-6.01,21.445c-0.306,1.005-1.985,1.591-2.497,1.973
			c-3.426-10.74-6.646-20.836-9.867-30.934c0.407-0.157,0.813-0.314,1.221-0.471c2.107,1.675,4.215,3.351,6.529,5.19
			C346.698,140.157,346.698,100.182,346.698,59.872z"/>
		<path fill-rule="evenodd" clip-rule="evenodd" d="M209.782,241.864c2.821-0.48,5.777-0.577,8.432-1.525
			c4.602-1.643,8.977-3.91,13.529-5.709c1.643-0.649,3.521-0.703,6.271-1.209c-1.985,3.302-3.421,5.689-5.219,8.68
			c21.444,0,42.071,0,63.411,0c-2.088-2.818-3.784-5.107-5.481-7.397c0.2-0.402,0.4-0.806,0.601-1.208
			c9.351,3.129,18.702,6.258,28.111,9.406c0.953-2.42-0.091-5.877,4.113-3.871c-0.543,1.251-1.092,2.512-1.767,4.063
			c0.301,0.556,1.215,1.554,1.269,2.598c0.034,0.638-1.689,2.039-1.889,1.916c-4.62-2.868-8.685,0.549-12.795,1.367
			c-4.471,0.89-8.601,3.411-12.952,5.02c-1.244,0.46-2.748,0.218-5,0.348c2.281-2.837,3.943-4.902,6.063-7.537
			c-7.193-2.017-14.123-0.014-20.951-0.246c-7.104-0.241-14.223-0.002-21.336,0.011c-7.082,0.012-14.166,0.002-22.047,0.002
			c2.151,2.692,3.776,4.726,5.401,6.759c-0.222,0.334-0.444,0.668-0.666,1.002c-2.569-0.557-5.198-0.921-7.696-1.707
			c-5.474-1.723-10.854-3.748-16.336-5.439c-1.333-0.411-2.918-0.011-4.387,0.026c-1.021,0.026-2.042,0.069-3.063,0.105
			c0.434-1.189,0.623-2.571,1.37-3.512c0.717-0.903,2.012-1.348,3.053-1.994L209.782,241.864z"/>
		<path fill-rule="evenodd" clip-rule="evenodd" d="M66.11,128.602c-3.674,5.779,0.78,10.301,2.192,15.217
			c1.407,4.897,3.57,9.576,5.321,14.38c0.224,0.614-0.036,1.404-0.115,2.961c-3.026-2.062-5.554-3.783-8.874-6.043
			c0.602,9.551,1.127,17.881,1.701,26.988c2.472-2.179,4.458-3.928,6.444-5.678c0.472,0.28,0.944,0.56,1.416,0.839
			c-3.267,10.393-6.533,20.785-9.8,31.177c-0.586,0.026-1.172,0.052-1.759,0.078c-0.436-11.079-6.515-20.438-8.697-30.984
			c0.265-0.271,0.531-0.543,0.796-0.814c2.433,1.77,4.865,3.54,8.263,6.012c-0.627-9.601-1.174-17.959-1.771-27.087
			c-2.447,2.12-4.539,3.931-7.194,6.23c0-1.845-0.283-3.108,0.044-4.185c2.816-9.26,5.701-18.499,8.707-27.699
			c0.283-0.865,1.533-1.414,2.334-2.11C65.45,128.123,65.78,128.362,66.11,128.602z"/>
		<path fill-rule="evenodd" clip-rule="evenodd" d="M226.636,323.167c1.079,0,1.812,0.043,2.538-0.007
			c8.476-0.575,7.466,0.949,8.94,7.592c0.661,2.981,0.425,6.245,0.087,9.324c-0.133,1.211-1.656,2.268-2.547,3.395
			c-0.728-1.311-1.886-2.559-2.086-3.945c-0.354-2.437,0.136-4.993-0.191-7.438c-0.629-4.702-1.329-5.054-6.965-3.937
			c0,3.515-0.088,7.209,0.023,10.898c0.128,4.258-0.214,4.641-5.423,4.202c0-6.608-0.005-13.295,0.005-19.981
			c0.002-1.498-0.183-3.054,0.165-4.473c0.26-1.063,1.236-1.949,1.896-2.914c1.072,0.792,2.592,1.369,3.101,2.432
			C226.777,319.565,226.502,321.235,226.636,323.167z"/>
		<path fill-rule="evenodd" clip-rule="evenodd" d="M376.667,128.991c-5.598,1.921-7.922,6.203-9.673,11.059
			c-0.426,1.181-2.01,2.968-2.737,2.825c-2.137-0.419-2.073-2.213-1.466-4.136c1.76-5.572,3.412-11.181,4.98-16.81
			c0.355-1.278,0.113-2.711,0.303-4.051c0.14-0.989,0.271-2.503,0.872-2.783c1.006-0.469,2.568-0.502,3.536-0.01
			c0.576,0.293,0.785,2,0.603,2.967c-0.593,3.12-1.444,6.19-2.309,9.743c2.277-1.214,3.83-2.261,5.534-2.905
			c3.105-1.173,4.977,0.343,4.646,3.698c-0.171,1.728-0.737,3.416-0.918,5.143c-0.149,1.439,0.221,2.949-0.042,4.352
			c-0.249,1.323-0.732,2.852-1.649,3.725c-0.834,0.794-2.392,0.829-3.629,1.198c-0.316-1.378-1.116-2.856-0.856-4.115
			C374.554,135.54,375.7,132.284,376.667,128.991z"/>
		<path fill-rule="evenodd" clip-rule="evenodd" d="M221.263,372.669c1.952-1.439,3.776-3.077,5.86-4.255
			c3.263-1.842,6.321-0.663,8.932,1.509c2.248,1.873,2.565,4.278,1.443,7.076c-0.442,1.104-0.385,2.772,0.143,3.838
			c2.522,5.091,2.536,7.277-0.396,10.278c-2.382,2.436-8.044,3.099-11.438,1.265c-1.058-0.572-2.199-1.192-2.939-2.09
			c-0.745-0.902-1.386-2.18-1.376-3.288c0.004-0.505,1.723-1.449,2.587-1.367c0.906,0.085,2.12,0.982,2.497,1.835
			c1.093,2.473,3.191,3.06,5.192,2.35c1.246-0.442,2.44-2.268,2.802-3.689c0.578-2.275-0.677-3.599-3.188-3.967
			c-1.114-0.163-2.077-1.356-3.109-2.081c0.911-0.748,1.912-1.412,2.711-2.266c1.034-1.103,2.084-2.271,2.737-3.601
			c0.193-0.394-0.943-2.072-1.445-2.061c-1.854,0.043-4.158-0.033-5.452,0.995C223.969,375.419,223.78,375.674,221.263,372.669z"/>
		<path fill-rule="evenodd" clip-rule="evenodd" d="M160.376,346.469c6.023,0.872,4.016,7.716,7.771,11.58
			c1.265-3.478,2.476-6.203,3.229-9.05c0.72-2.72,2.25-2.899,5.156-1.915c-1.125,3.563-2.154,7.142-3.389,10.646
			c-1.394,3.956-2.831,7.911-4.522,11.745c-1.075,2.433-2.785,4.504-5.95,3.946c-0.577-0.101-1.324-0.722-1.489-1.259
			c-0.17-0.55,0.086-1.463,0.492-1.914c1.176-1.309,3.588-2.478,3.575-3.68c-0.027-2.434-1.289-4.868-2.123-7.272
			c-1.388-4-2.839-7.979-4.264-11.965C159.367,347.044,159.871,346.757,160.376,346.469z"/>
		<path fill-rule="evenodd" clip-rule="evenodd" d="M18.31,187.751c2.879-4.291,7.491-6.237,5.373-11.8
			c-1.431-3.758,1.02-8.718-3.653-11.641c5.286-2.256,7.237-1.147,7.563,3.979c0.133,2.095,0.259,4.19,0.394,6.361
			c4.097-1.962,5.638-5.242,4.802-9.074c-0.179-0.82,0.908-1.917,1.411-2.886c0.914,0.613,2.487,1.12,2.608,1.863
			c0.27,1.654,0.444,3.921-0.454,5.068c-4.673,5.967-9.661,11.69-14.649,17.404C21.243,187.555,20.016,187.417,18.31,187.751z"/>
		<path fill-rule="evenodd" clip-rule="evenodd" d="M255.791,266.008c1.731,0.378,3.764,0.823,6.355,1.389
			c0.423-0.176,1.528-0.99,2.619-0.971c0.777,0.014,2.18,1.18,2.151,1.777c-0.042,0.91-1.089,2.544-1.695,2.537
			c-5.027-0.052-5.728,4.014-7.265,7.275c-0.729,1.544-1.104,3.291-2.024,4.693c-0.479,0.729-1.797,0.907-2.735,1.335
			c-0.366-0.941-1.11-1.923-1.014-2.814c0.17-1.565,0.942-3.055,1.308-4.613C254.239,273.433,254.885,270.223,255.791,266.008z"/>
		<path fill-rule="evenodd" clip-rule="evenodd" d="M243.36,356.767c-0.9,0.557-1.794,1.581-2.703,1.595
			c-7.224,0.111-14.451,0.092-21.674-0.064c-0.96-0.021-1.899-1.028-2.848-1.579c0.15-0.34,0.3-0.681,0.45-1.021
			c8.758,0,17.517,0,26.274,0C243.026,356.054,243.193,356.409,243.36,356.767z"/>
		<path fill-rule="evenodd" clip-rule="evenodd" d="M196.634,355.451c-2.23,0-4.488,0.204-6.678-0.094
			c-0.946-0.129-1.75-1.293-2.619-1.987c0.812-0.621,1.605-1.747,2.44-1.779c4.642-0.175,9.298-0.182,13.938,0.011
			c0.793,0.033,1.535,1.304,2.301,2.003c-0.773,0.636-1.497,1.732-2.329,1.822c-2.327,0.252-4.699,0.088-7.053,0.088
			C196.634,355.493,196.634,355.473,196.634,355.451z"/>
		<path fill-rule="evenodd" clip-rule="evenodd" d="M206.809,358.678c-2.986,2.224-17.17,2.176-20.241,0
			C193.608,358.678,199.681,358.678,206.809,358.678z"/>
		<path fill-rule="evenodd" clip-rule="evenodd" d="M209.82,241.812c-0.464,0.149-1.003,0.528-1.378,0.405
			c-1.127-0.368-2.189-0.933-3.277-1.419c0.419-0.756,0.836-1.513,1.255-2.269c0.833,0.778,1.679,1.545,2.496,2.341
			c0.313,0.305,0.56,0.677,0.852,1.006C209.782,241.864,209.82,241.812,209.82,241.812z"/>
		<path fill-rule="evenodd" clip-rule="evenodd" d="M132.722,132.06c-1.028-1.22-2.027-1.886-2.028-2.555
			c-0.002-0.649,1.02-1.815,1.594-1.815c0.677-0.002,1.746,0.907,1.917,1.601C134.352,129.888,133.478,130.739,132.722,132.06z"/>
		<path fill-rule="evenodd" clip-rule="evenodd" d="M318.523,215.724c0.975-0.372,1.981-1.088,2.912-1
			c0.652,0.062,1.718,1.264,1.666,1.879c-0.066,0.811-1.047,1.545-1.635,2.313c-0.658-0.55-1.317-1.1-1.976-1.648
			C319.169,216.753,318.846,216.238,318.523,215.724z"/>
		<path fill-rule="evenodd" clip-rule="evenodd" d="M206.036,254.177c0-1.226-0.086-2.465,0.11-3.658
			c0.024-0.145,1.567-0.04,2.406-0.051c-0.311,1.308-0.621,2.614-0.931,3.922C207.094,254.318,206.564,254.247,206.036,254.177z"/>
		<path fill-rule="evenodd" clip-rule="evenodd" fill="#FFFFFF" d="M177.343,207.49c0.514-0.95,1.437-2.086,1.765-3.374
			c0.966-3.778,1.861-7.592,2.447-11.443c0.287-1.89-0.172-3.893-0.292-5.845c-0.121-1.98-0.239-3.96-0.394-6.542
			c-3.013-1.365-1.257-3.427,0.829-5.497c-0.444-0.009-0.889-0.02-1.333-0.029c0-1.371,0.166-2.77-0.057-4.105
			c-0.158-0.949-0.685-1.947-1.327-2.676c-0.682-0.773-1.695-1.254-2.659-1.93c1.986-1.714,3.758-3.243,5.294-4.568
			c-0.948-5.124-1.993-10.028-0.202-15.057c0.305-0.854,0.353-2.086-0.045-2.849c-1.3-2.495-0.617-3.437,2.09-3.422
			c9.799,0.056,19.599,0.056,29.398,0.091c4.353,0.016,8.705,0.014,13.055,0.127c1.874,0.049,3.74,0.37,5.694,0.239
			c4.139,1.979,2.215,5.595,1.516,8.5c-0.939,3.904,0.271,5.801,4.7,6.071c-1.479,0.631-2.959,1.262-4.131,1.762
			c0,7.692,0,15.539,0,23.385c0.057-0.018,0.115-0.035,0.173-0.052c-0.099,4.095-0.172,8.191-0.313,12.285
			c-0.044,1.313,0.066,2.777-0.469,3.898c-1.575,3.307-1.177,4.675,2.031,5.804c-0.123,1.857-0.246,3.695-0.357,5.361
			C215.624,211.037,196.132,211.036,177.343,207.49z"/>
		<path fill-rule="evenodd" clip-rule="evenodd" fill="#FFFFFF" d="M145.743,129.182c8.071-3.879,15.759-5.196,23.72-5.553
			c7.302-0.327,14.583-1.09,21.882-1.513c7.497-0.435,15.027-1.225,22.503-0.905c12.017,0.514,24.012,1.692,35.99,2.852
			c3.642,0.353,7.231,1.46,10.78,2.45c1.215,0.339,2.235,1.376,4.322,2.726c-2.326,0.875-3.75,1.634-5.266,1.942
			c-6.765,1.375-13.527,2.799-20.346,3.843c-3.79,0.58-7.688,0.602-11.539,0.611c-18.103,0.045-36.205,0.04-54.306-0.076
			c-2.052-0.013-4.088-0.896-6.15-1.27c-5.851-1.063-11.724-2.01-17.559-3.154C148.523,130.889,147.396,130.005,145.743,129.182z"/>
		<path fill-rule="evenodd" clip-rule="evenodd" fill="#FFFFFF" d="M220.979,87.753c-1.445-0.978-2.892-1.957-4.318-2.941
			c5.511-0.132,1.676-3.711,2.472-5.662c-3.073-0.889-5.402-0.512-6.985,2.135c0.208-3.514,0.393-6.95-2.659-9.654
			c-1.329-1.176-1.12-2.433,0.941-2.711c0.627-0.665,1.277-1.335,1.927-2.005c0.774-1.453,1.549-2.907,2.32-4.362
			c0.736,0.902,1.475,1.806,2.212,2.71c2.087,1.787,4.174,3.575,6.261,5.362c1.887-1.554,3.407-0.392,4.327,1.026
			c6.667,10.268,13.055,20.719,19.844,30.905c3.655,5.486,7.943,10.548,11.903,15.834c0.64,0.854,1.05,1.88,1.708,3.088
			c-4.821-0.884-8.982-1.738-13.177-2.388c-4.029-0.624-8.088-1.066-12.14-1.53c-4.675-0.536-9.418-0.712-14-1.671
			c-1.596-0.334-2.802-2.536-4.405-4.1c-1.229,5.572-5.373,4.197-9.486,4.052c0.07-1.245,0.004-2.337,0.234-3.361
			c0.161-0.722,0.728-1.353,1.114-2.024c0.524,0.533,0.987,1.153,1.588,1.578c1.012,0.719,2.445,2.099,3.113,1.815
			c2.006-0.852,1.713-2.313,0.157-3.754c-0.677-0.627-1.074-1.667-1.325-2.594c-0.112-0.418,0.323-1.268,0.731-1.464
			c0.399-0.193,1.237,0.016,1.612,0.352c2.646,2.372,4.039,2.625,7.407,1.135c2.421,0.84,2.516,5.73,6.557,3.935
			c-0.804-5.618-2.296-6.836-7.706-7.224c-2.544-0.182-5.084-0.917-7.526-1.708c-0.634-0.205-1.132-1.524-1.271-2.399
			c-0.211-1.334-0.055-2.727-0.055-3.478c1.899-1.787,3.392-3.306,5.018-4.666c0.671-0.562,1.625-0.784,2.451-1.161l-0.102-0.102
			c0.263,0.353,0.526,0.705,0.789,1.058c0.277-0.354,0.555-0.708,0.832-1.063l-0.112,0.101c0.671-0.498,1.341-0.995,2.011-1.493
			c-0.795-0.535-1.591-1.07-2.386-1.604L220.979,87.753z M215.14,96.467c-0.349,0.457-0.698,0.914-1.047,1.371
			c1.038,1.052,2.077,2.105,3.116,3.157c0.597-0.805,1.194-1.61,1.792-2.415C217.714,97.875,216.427,97.171,215.14,96.467z"/>
		<path fill-rule="evenodd" clip-rule="evenodd" fill="#FFFFFF" d="M271.135,137.1c13.352,19.5,26.703,38.999,40.222,58.742
			c-14.02-1.96-27.333-3.822-40.967-5.728c0-17.538,0-35.079,0-52.62C270.638,137.364,270.886,137.232,271.135,137.1z"/>
		<path fill-rule="evenodd" clip-rule="evenodd" fill="#FFFFFF" d="M176.62,215.393c-0.719,0.092-1.441,0.295-2.154,0.261
			c-12.669-0.613-25.346-1.116-38.002-1.935c-8.679-0.563-17.384-1.217-25.971-2.527c-4.567-0.697-8.927-2.826-13.326-4.458
			c-0.569-0.211-1.301-1.597-1.099-1.957c0.493-0.877,1.379-1.848,2.301-2.116c5.278-1.535,10.546-3.257,15.942-4.194
			c7.896-1.372,15.903-2.104,23.854-3.172c2.411-0.325,3.377,0.454,3.404,3.005c0.088,8.325,1.292,10.001,9.892,11.724
			c7.343,1.472,14.834,2.204,22.25,3.324c1.097,0.166,2.143,0.669,3.213,1.016C176.822,214.706,176.721,215.049,176.62,215.393z"/>
		<path fill-rule="evenodd" clip-rule="evenodd" d="M212.147,81.286c1.583-2.647,3.912-3.024,6.985-2.135
			c-0.796,1.951,3.039,5.53-2.472,5.662C212.25,86.285,211.816,85.944,212.147,81.286z"/>
		<path fill-rule="evenodd" clip-rule="evenodd" d="M214.68,62.555c-0.774,1.454-1.549,2.908-2.323,4.361
			c-2.046-0.217-3.862-0.594-3.492-3.405c0.039-0.297-1.17-0.759-1.8-1.144c1.117-2.829,2.267-5.626,5.969-5.792
			c-0.266,1.194-0.531,2.387-0.798,3.582c0.284,0.726,0.567,1.453,0.851,2.178C213.617,62.409,214.148,62.482,214.68,62.555z"/>
		<path fill-rule="evenodd" clip-rule="evenodd" fill="#FFFFFF" d="M216.889,65.264c-0.737-0.904-1.476-1.808-2.212-2.71
			c-0.528-0.072-1.06-0.145-1.588-0.217c0.247-0.896,0.491-1.793,0.735-2.689c-0.014-0.367-0.026-0.734-0.041-1.101
			c0.799-0.432,2.219-1.335,2.302-1.226c1.275,1.686,2.376,3.503,3.519,5.29C218.699,63.495,217.794,64.379,216.889,65.264z"/>
		<path fill-rule="evenodd" clip-rule="evenodd" fill="#FFFFFF" d="M207.064,62.367c0.63,0.385,1.839,0.847,1.8,1.144
			c-0.37,2.811,1.446,3.188,3.492,3.405c-0.649,0.669-1.3,1.34-1.927,2.005c-1.704-0.891-3.582-1.598-5.032-2.816
			C205.109,65.863,206.467,63.664,207.064,62.367z"/>
		<path fill-rule="evenodd" clip-rule="evenodd" fill="#FFFFFF" d="M189.427,214.866c5.175,0,10.351,0,15.527,0
			c0.006,0.209,0.012,0.418,0.017,0.626c-5.196,0-10.393,0-15.59,0C189.396,215.284,189.412,215.075,189.427,214.866z"/>
		<path fill-rule="evenodd" clip-rule="evenodd" fill="#FFFFFF" d="M216.889,65.264c0.905-0.884,1.811-1.769,2.715-2.653
			c1.331,2.01,2.731,3.979,3.935,6.063c0.249,0.433-0.235,1.29-0.386,1.952C221.063,68.838,218.976,67.051,216.889,65.264z"/>
		<path fill-rule="evenodd" clip-rule="evenodd" fill="#FFFFFF" d="M218.438,215.68c-2.8,0.141-5.599,0.281-8.398,0.422
			c-0.014-0.341-0.029-0.683-0.043-1.025c2.809,0,5.617,0,8.426,0C218.427,215.278,218.432,215.479,218.438,215.68z"/>
		<path fill-rule="evenodd" clip-rule="evenodd" fill="#FFFFFF" d="M205.297,40.948c1.029,2.091,1.729,3.512,2.428,4.934
			c-0.273,0.125-0.547,0.25-0.821,0.375C206.127,44.756,201.501,44.954,205.297,40.948z"/>
		<path fill-rule="evenodd" clip-rule="evenodd" fill="#FFFFFF" d="M213.783,58.546c0.015,0.367,0.027,0.734,0.041,1.101
			c-0.529,0.17-1.059,0.34-1.589,0.51c0.267-1.194,0.532-2.388,0.798-3.582C213.283,57.233,213.534,57.889,213.783,58.546z"/>
		<path fill-rule="evenodd" clip-rule="evenodd" fill="#FFFFFF" d="M220.979,87.753l-0.123-0.034
			c0.125,1.033,0.25,2.065,0.375,3.098l0.112-0.101c-0.54,0.001-1.08,0.003-1.621,0.005l0.102,0.102
			C220.209,89.8,220.595,88.777,220.979,87.753z"/>
		<path fill-rule="evenodd" clip-rule="evenodd" d="M215.14,96.467c1.287,0.705,2.574,1.409,3.861,2.113
			c-0.598,0.804-1.195,1.609-1.792,2.415c-1.039-1.052-2.078-2.104-3.116-3.157C214.441,97.381,214.791,96.924,215.14,96.467z"/>
		<path fill-rule="evenodd" clip-rule="evenodd" d="M221.231,90.817c-0.125-1.033-0.25-2.065-0.375-3.098
			c0.795,0.535,1.591,1.069,2.386,1.604C222.572,89.822,221.902,90.319,221.231,90.817z"/>
		<path fill-rule="evenodd" clip-rule="evenodd" d="M219.723,90.722c0.541-0.002,1.081-0.004,1.621-0.005
			c-0.277,0.355-0.555,0.708-0.832,1.063C220.249,91.426,219.985,91.074,219.723,90.722z"/>
		<path fill-rule="evenodd" clip-rule="evenodd" d="M212.235,60.157c0.53-0.17,1.06-0.34,1.589-0.51
			c-0.244,0.896-0.488,1.794-0.735,2.689C212.803,61.61,212.52,60.883,212.235,60.157z"/>
	</g>
</g>
</svg>
