<?xml version="1.0" encoding="utf-8"?>
<!-- Generator: Adobe Illustrator 16.0.0, SVG Export Plug-In . SVG Version: 6.00 Build 0)  -->
<!DOCTYPE svg PUBLIC "-//W3C//DTD SVG 1.1//EN" "http://www.w3.org/Graphics/SVG/1.1/DTD/svg11.dtd">
<svg version="1.1" id="Layer_1" xmlns="http://www.w3.org/2000/svg" xmlns:xlink="http://www.w3.org/1999/xlink" x="0px" y="0px"
	 width="477.066px" height="255.786px" viewBox="0 0 477.066 255.786" enable-background="new 0 0 477.066 255.786"
	 xml:space="preserve">
<g>
	<g>
		<path fill-rule="evenodd" clip-rule="evenodd" fill="#FFFFFF" d="M0.75,256.536c0-85.263,0-170.524,0-255.786
			c159.022,0,318.045,0,477.066,0c0,85.262,0,170.523,0,255.786C318.795,256.536,159.772,256.536,0.75,256.536z M323.67,122.226
			c0.305-0.282,0.608-0.564,0.912-0.846c-1.265,0.101-2.549,0.377-3.791,0.253c-1.222-0.122-3.146-0.327-3.465-1.06
			c-1.084-2.486-1.445-5.278-2.403-7.832c-0.348-0.929-1.827-2.301-2.399-2.134c-3.229,0.941-4.993-0.961-7.148-2.753
			c-5.665-4.708-11.258-9.594-17.403-13.606c-6.063-3.959-12.683-7.115-19.224-10.279c-4.91-2.375-10.025-4.364-15.157-6.226
			c-4.034-1.464-8.254-2.41-12.356-3.699c-5.445-1.71-10.742-4.307-16.308-5.126c-8.855-1.304-17.873-1.814-26.836-2.007
			c-12.732-0.273-25.491-0.263-37.883,3.598c-3.181,0.991-6.678,0.989-9.831,2.04c-4.447,1.482-8.674,3.611-13.06,5.296
			c-5.968,2.292-12.05,4.295-17.975,6.691c-2.398,0.969-4.358,3.107-6.783,3.909c-6.616,2.184-11.806,6.56-17.301,10.49
			c-5.807,4.154-11.568,8.371-17.33,12.588c-0.572,0.418-1.072,0.98-1.489,1.559c-1.976,2.739-3.376,6.244-5.965,8.12
			c-6.456,4.677-10.103,11.531-14.859,17.504c-2.605,3.271-4.681,6.984-6.81,10.608c-3.348,5.699-6.93,11.312-9.682,17.296
			c-2.651,5.766-4.64,11.88-6.434,17.983c-1.805,6.138-3.158,12.423-4.429,18.701c-0.809,3.996-1.119,8.094-1.633,12.148
			c-0.635,5-1.242,10.004-1.876,15.003c-0.269,2.125,0.836,2.878,2.775,3.016c8.531,0.606,17.051,1.468,25.592,1.797
			c4.217,0.163,8.365-0.554,12.729-0.108c8.152,0.832,16.449,0.15,24.679,0.349c13.42,0.321,26.833,0.918,40.252,1.252
			c8.335,0.208,16.678,0.115,25.017,0.208c40.462,0.45,80.925,0.982,121.389,1.354c26.359,0.241,52.722,0.267,79.083,0.368
			c8.092,0.031,8.771-0.754,8.034-8.918c-0.011-0.124-0.063-0.243-0.077-0.367c-1.015-8.383-1.703-16.823-3.143-25.133
			c-1.156-6.68-3.012-13.264-4.95-19.774c-1.61-5.411-3.654-10.709-5.77-15.952c-1.558-3.863-3.504-7.574-5.346-11.319
			c-1.141-2.32-2.164-4.753-3.662-6.83c-5.127-7.106-10.587-13.977-15.585-21.169C324.45,127.317,324.337,124.579,323.67,122.226z
			 M106.99,47.604c5.741,0,10.402-0.069,15.061,0.013c17.461,0.305,34.92,0.749,52.382,0.973c17.865,0.229,35.732,0.284,53.6,0.375
			c12.48,0.063,24.959,0.022,37.439,0.101c5.363,0.034,10.727,0.204,16.084,0.442c0.842,0.037,2.15,0.601,2.348,1.211
			c0.227,0.704-0.359,1.864-0.907,2.587c-1.43,1.883-3.032,3.636-5.077,6.044c2.086-0.189,3.481-0.068,4.705-0.471
			c4.604-1.516,9.125-3.291,13.732-4.798c4.663-1.525,9.391-2.851,14.093-4.255c1.193-0.356,2.713-0.349,3.507-1.109
			c0.79-0.756,0.857-2.268,1.242-3.449c-1.009-0.205-2.016-0.565-3.027-0.58c-1.734-0.025-3.583,0.591-5.187,0.177
			c-3.372-0.871-6.634-2.192-9.911-3.409c-3.911-1.451-7.744-3.134-11.705-4.427c-2.225-0.727-4.64-0.87-6.968-1.277
			c-0.31,0.495-0.618,0.99-0.928,1.485c2.244,2.424,4.487,4.848,6.73,7.272c-0.112,0.375-0.226,0.75-0.338,1.125
			c-58.622-0.867-117.243-1.734-176.473-2.61c2.411-2.944,4.472-5.462,6.893-8.418c-0.807-0.425-1.949-1.552-2.681-1.329
			c-5.03,1.53-9.962,3.379-14.95,5.055c-5.083,1.708-10.113,3.686-15.318,4.886c-4.036,0.93-4.765,1.349-3.979,5.089
			c3.66,0.191,7.276-0.13,10.627,0.667c5.933,1.409,11.719,3.452,17.536,5.328c1.93,0.622,3.721,1.688,5.661,2.257
			c0.754,0.221,1.748-0.372,2.632-0.593c-0.314-0.984-0.366-2.204-0.995-2.905C111.301,51.372,109.513,49.926,106.99,47.604z
			 M404.999,159.371c0.628-0.287,1.256-0.573,1.885-0.859c0.076-1.227,0.519-2.57,0.167-3.658c-1.47-4.552-3.315-8.983-4.765-13.54
			c-1.844-5.794-5.4-11.217-4.042-17.781c0.112-0.542-1.051-1.919-1.214-1.856c-0.952,0.369-2.268,0.866-2.57,1.66
			c-1.35,3.526-2.381,7.172-3.558,10.765c-1.652,5.049-3.318,10.094-5.004,15.132c-0.923,2.756-1.898,5.493-2.851,8.239
			c0.437,0.314,0.873,0.628,1.31,0.941c2.338-2.063,4.675-4.125,7.741-6.832c0.39,1.527,0.826,2.679,0.946,3.863
			c0.12,1.181-0.132,2.395-0.125,3.594c0.014,2.462,0.187,4.926,0.124,7.385c-0.124,4.828-0.543,9.656-0.518,14.482
			c0.047,8.817,0.354,17.633,0.448,26.45c0.006,0.511-0.917,1.031-1.247,1.378c-2.647-1.397-4.026-5.049-7.91-3.592
			c3.679,11.34,7.218,22.247,10.97,33.809c0.826-0.577,2.363-1.062,2.597-1.906c2.272-8.213,4.247-16.506,6.495-24.726
			c0.568-2.076,1.95-3.918,2.68-5.968c0.442-1.241,0.352-2.673,0.499-4.02c-1.156,0.584-2.545,0.934-3.422,1.801
			c-1.894,1.873-3.537,3.983-6.786,3.344c1.811-18.471-0.889-36.79,1.059-54.967c0.677-0.427,1.354-0.854,2.03-1.281
			C401.625,153.943,403.313,156.657,404.999,159.371z M430.573,177.069c-2.875-0.55-4.668-1.215-6.433-1.146
			c-2.114,0.081-4.411,0.375-6.267,1.302c-4.851,2.423-7.322,7.001-8.896,11.871c-0.667,2.065-0.69,5.074,0.396,6.738
			c0.877,1.343,3.842,1.712,5.913,1.804c4.306,0.193,8.646,0.087,12.943-0.263c1.508-0.123,3.279-1.004,4.293-2.118
			c1.093-1.202,1.35-3.129,2.128-4.661c2.59-5.094,5.215-10.173,7.898-15.22c1.504-2.828,3.15-5.581,4.731-8.368
			c-0.299-0.291-0.598-0.582-0.897-0.873c-0.944,0.351-2.343,0.422-2.757,1.098c-2.029,3.305-3.774,6.781-5.661,10.176
			c-2.444,4.399-4.835,8.836-7.477,13.115c-0.479,0.776-2.055,0.875-3.124,1.286c0.036-1.105-0.118-2.259,0.143-3.309
			C428.49,184.549,429.607,180.63,430.573,177.069z M193.326,33.533c-2.775-2.4-2.808-5.015-0.867-7.875
			c0.54-0.795,0.792-1.836,0.993-2.802c1.405-6.774,1.387-6.741-5.554-7.187c-3.991-0.255-7.978-0.124-10.431,3.501
			c-1.829,2.703-3.091,5.821-4.374,8.852c-1.131,2.67-0.959,5.528,1.131,7.586c2.271,2.238,5.121,1.129,7.768,0.362
			c0.74-0.215,1.875-0.751,2.198-0.454C188.127,39.126,190.548,36.199,193.326,33.533z M450.609,172.55
			c1.238-0.316,2.428-0.946,3.542-0.832c1.823,0.186,4.78,0.424,5.142,1.413c0.721,1.968,0.889,5.197-0.28,6.611
			c-4.929,5.959-10.434,11.442-15.73,17.103c2.966,1.912,13.009,2.404,15.794,0.66c2.02-1.263,2.605-3.084,1.665-5.247
			c-2.995,0.557-5.794,1.076-8.594,1.595c-0.152-0.348-0.305-0.695-0.457-1.043c3.518-3.922,6.937-7.937,10.582-11.734
			c2.899-3.021,3.931-9.247,1.737-12.384c-1.342-1.917-8.665-3.084-11.286-1.57C450.758,168.257,449.094,169.817,450.609,172.55z
			 M312.63,56.169c0.64-0.052,1.28-0.104,1.92-0.157c0-1.795,0-3.59,0-5.385c-0.929,0.035-1.857,0.068-2.786,0.102
			C312.053,52.543,312.341,54.356,312.63,56.169z M81.916,87.153c-1.765-1.208-2.637-2.249-3.532-2.269
			c-0.649-0.015-1.738,1.268-1.851,2.08c-0.075,0.542,1.161,1.698,1.918,1.804C79.226,88.877,80.133,88.041,81.916,87.153z
			 M79.971,42.365c0.479-0.492,0.958-0.985,1.437-1.478c-0.771-1.042-1.541-2.085-2.312-3.128c-0.699,0.762-1.398,1.524-2.097,2.286
			C77.99,40.818,78.981,41.592,79.971,42.365z M78.915,51.22c-0.64,0.216-1.279,0.432-1.919,0.647
			c0.332,1.37,0.664,2.74,0.996,4.109c0.866-0.22,1.732-0.439,2.598-0.659C80.032,53.951,79.473,52.586,78.915,51.22z M80.563,108.7
			c0.18-0.276,0.36-0.553,0.54-0.829c-0.807-0.847-1.72-2.458-2.396-2.364c-1.046,0.146-1.932,1.455-2.886,2.271
			c0.187,0.307,0.373,0.614,0.56,0.922C77.774,108.7,79.168,108.7,80.563,108.7z M316.648,86.226
			c-1.794-0.871-2.694-1.69-3.437-1.564c-0.803,0.135-1.457,1.151-2.177,1.784c0.679,0.68,1.366,1.916,2.033,1.904
			C313.968,88.335,314.852,87.361,316.648,86.226z M310.516,100.103c0.395,0.546,0.789,1.093,1.184,1.64
			c1.042-0.625,2.084-1.25,3.126-1.876c-0.448-0.728-0.896-1.454-1.345-2.182C312.492,98.492,311.504,99.297,310.516,100.103z
			 M78.434,97.499c-0.404,0.024-0.809,0.048-1.213,0.072c0,1.341,0,2.682,0,4.022c1.12-0.114,2.24-0.229,3.903-0.399
			C79.862,99.46,79.148,98.479,78.434,97.499z M313.369,56.733c-0.951,1.421-1.906,2.254-1.756,2.756
			c0.248,0.828,1.21,1.442,1.87,2.146c0.582-0.609,1.626-1.216,1.629-1.828C315.116,59.025,314.28,58.239,313.369,56.733z
			 M371.605,238.38c-1.357-1.915-2.225-3.14-3.69-5.206c-0.521,2.42-0.789,3.667-1.121,5.206
			C368.312,238.38,369.367,238.38,371.605,238.38z"/>
		<path fill-rule="evenodd" clip-rule="evenodd" d="M323.67,122.226c0.667,2.353,0.78,5.091,2.1,6.991
			c4.998,7.192,10.458,14.063,15.585,21.169c1.498,2.077,2.521,4.51,3.662,6.83c1.842,3.745,3.788,7.456,5.346,11.319
			c2.115,5.243,4.159,10.541,5.77,15.952c1.938,6.511,3.794,13.095,4.95,19.774c1.439,8.31,2.128,16.75,3.143,25.133
			c0.015,0.124,0.066,0.243,0.077,0.367c0.736,8.164,0.058,8.949-8.034,8.918c-26.361-0.102-52.724-0.127-79.083-0.368
			c-40.464-0.371-80.927-0.903-121.389-1.354c-8.339-0.093-16.682,0-25.017-0.208c-13.42-0.334-26.833-0.931-40.252-1.252
			c-8.23-0.198-16.526,0.483-24.679-0.349c-4.365-0.445-8.513,0.271-12.729,0.108c-8.541-0.329-17.061-1.19-25.592-1.797
			c-1.939-0.138-3.044-0.891-2.775-3.016c0.634-4.999,1.242-10.003,1.876-15.003c0.515-4.055,0.824-8.152,1.633-12.148
			c1.271-6.278,2.624-12.563,4.429-18.701c1.794-6.104,3.783-12.218,6.434-17.983c2.752-5.984,6.334-11.597,9.682-17.296
			c2.128-3.624,4.205-7.338,6.81-10.608c4.756-5.974,8.403-12.828,14.859-17.504c2.589-1.875,3.99-5.38,5.965-8.12
			c0.417-0.579,0.917-1.141,1.489-1.559c5.761-4.217,11.523-8.434,17.33-12.588c5.495-3.931,10.685-8.306,17.301-10.49
			c2.425-0.801,4.385-2.94,6.783-3.909c5.925-2.396,12.007-4.399,17.975-6.691c4.386-1.685,8.612-3.814,13.06-5.296
			c3.153-1.051,6.65-1.049,9.831-2.04c12.392-3.861,25.15-3.871,37.883-3.598c8.963,0.193,17.98,0.703,26.836,2.007
			c5.565,0.819,10.862,3.416,16.308,5.126c4.103,1.29,8.322,2.235,12.356,3.699c5.132,1.862,10.247,3.851,15.157,6.226
			c6.541,3.164,13.16,6.32,19.224,10.279c6.146,4.012,11.738,8.898,17.403,13.606c2.155,1.792,3.919,3.694,7.148,2.753
			c0.572-0.167,2.052,1.205,2.399,2.134c0.958,2.554,1.319,5.346,2.403,7.832c0.319,0.733,2.243,0.938,3.465,1.06
			c1.242,0.124,2.526-0.152,3.791-0.253C324.278,121.662,323.975,121.944,323.67,122.226z M84.796,166.493
			c0.169,0.479,0.339,0.957,0.509,1.435c0.239-0.189,0.478-0.379,0.717-0.568c-0.44-0.261-0.879-0.52-1.319-0.779
			c-0.467-0.769-0.934-1.536-1.401-2.305c-0.29,0.335-0.581,0.671-0.871,1.006C83.22,165.686,84.007,166.09,84.796,166.493z
			 M93.266,219.83c-1.081-0.454-2.161-0.912-3.245-1.361c-1.011-0.418-2.027-0.827-3.041-1.24c-0.24,1.257-0.885,2.602-0.635,3.752
			c0.5,2.291,1.493,4.475,2.282,6.703c-0.325,0.164-0.65,0.328-0.976,0.492c-1.997-1.512-7.25,1.313-5.82-5.282
			c-1.063,1.486-2.062,2.832-1.785,3.823c0.486,1.741,1.739,2.846,4.072,2.808c10.087-0.165,20.179-0.058,30.269-0.05
			c3.158,0.002,6.315,0,9.473,0c-1.861-1.579-3.207-2.54-5.915-1.492c-2.878,1.112-6.614-0.158-9.964-0.045
			c-2.354,0.08-3.876-0.462-4.308-2.942c-0.017-0.097-0.401-0.13-0.796-0.247c-0.283,0.903-0.566,1.801-0.781,2.486
			c-1.319,0-2.381,0.086-3.422-0.019c-1.788-0.181-4.069,0.092-3.371-2.96C94.626,222.78,93.945,221.305,93.266,219.83z
			 M82.359,115.28c1.856,0.192,2.719,0.355,3.583,0.359c12.622,0.057,25.244,0.039,37.865,0.15
			c11.537,0.102,23.075,0.242,34.607,0.558c5.188,0.142,10.362,1.056,15.547,1.1c32.117,0.279,64.235,0.344,96.351,0.626
			c11.606,0.103,23.209,0.637,34.816,0.881c0.896,0.019,1.81-0.704,2.715-1.083c-0.538-0.843-0.956-1.807-1.648-2.497
			c-0.686-0.681-1.886-0.903-2.447-1.642c-4.387-5.763-10.565-9.307-16.428-13.17c-4.508-2.97-8.564-6.467-13.807-8.606
			c-5.695-2.324-10.803-6.203-16.788-8.148c-1.524-0.495-3.194-0.564-4.691-1.117c-5.711-2.112-11.228-4.971-17.098-6.372
			c-7.798-1.861-15.82-3.067-23.815-3.759c-16.4-1.42-32.779-0.912-49,2.261c-3.422,0.669-6.899,1.136-10.25,2.06
			c-4.603,1.271-9.129,2.833-13.655,4.371c-3.967,1.348-8.042,2.516-11.789,4.341c-4.67,2.276-9.084,5.089-13.549,7.772
			c-5.056,3.04-10.231,5.932-15.009,9.369C92.726,106.434,87.982,110.691,82.359,115.28z M314.796,233.352
			c13.657,0,27.021-0.108,40.38,0.073c3.482,0.048,4.803-1.037,4.309-4.465c-1.152-7.991-1.959-16.045-3.443-23.973
			c-1.313-7.013-3.31-13.899-5.078-20.822c-2.963-11.603-9.146-21.789-14.334-32.413c-0.265-0.544-0.503-1.112-0.853-1.6
			c-3.732-5.197-7.346-10.489-11.279-15.53c-2.634-3.376-5.731-6.393-8.622-9.569c-0.359,0.125-0.72,0.249-1.079,0.374
			C314.796,161.183,314.796,196.938,314.796,233.352z M29.034,229.699c14.822,0,28.291-0.021,41.76,0.019
			c2.681,0.007,2.532-1.762,2.543-3.562c0.079-13.104,0.042-26.212,0.299-39.313c0.178-9.045,0.812-18.082,1.13-27.126
			c0.055-1.55-0.634-3.116-0.66-4.681c-0.069-4.104-0.038-8.214,0.098-12.317c0.118-3.57,0.446-7.136,0.658-10.705
			c0.1-1.693,0.185-3.391,0.199-5.086c0.005-0.676-0.064-1.867-0.331-1.937c-0.871-0.227-2.297-0.438-2.714,0.04
			c-2.938,3.37-5.792,6.829-8.449,10.423c-2.574,3.483-4.908,7.146-7.3,10.762c-2.091,3.161-4.438,6.208-6.102,9.586
			c-3.297,6.694-6.562,13.448-9.169,20.429c-2.855,7.645-5.19,15.508-7.287,23.398c-1.172,4.413-1.375,9.08-2.067,13.625
			C30.85,218.453,29.998,223.644,29.034,229.699z M284.668,159.396c2.34,4.19,5.24,3.41,8.247,2.563
			c-1.593-1.355-3.417-2.142-5.169-3.066c-1.706-0.9-3.338-1.944-5.149-3.013c-1.532,2.046-3.076,4.106-4.618,6.165
			C280.163,160.688,283.989,165.44,284.668,159.396z M93.101,163.89c3.733,0.782,4.756-0.168,4.483-4.441
			c0.978-0.215,1.975-0.435,3.509-0.772c-0.947-0.624-1.747-0.856-1.86-1.274c-0.611-2.255-2.384-2.734-3.953-1.896
			c-0.882,0.472-1.08,2.389-1.403,3.699C93.526,160.629,93.386,162.105,93.101,163.89z M80.83,207.171
			c2.741,2.056,4.251,0.365,5.069-1.25c1.524-3.006-0.475-5.089-3.628-7.097C81.775,201.697,81.279,204.571,80.83,207.171z
			 M186.179,158.278c1.896,0.111,3.387,0.19,4.876,0.292c0.775,0.054,1.703,0.438,2.271,0.133c0.453-0.243,0.792-1.428,0.589-1.973
			c-0.24-0.645-1.06-1.369-1.732-1.491c-1.292-0.234-2.656-0.068-3.825-0.068c-0.352-1.638-0.664-3.087-0.976-4.534
			c-0.402,0.062-0.802,0.124-1.204,0.187C186.179,153.456,186.179,156.089,186.179,158.278z M167.461,213.7
			c2.938-4.721,2.771-5.141-2.682-6.755C163.573,212.684,163.7,213.005,167.461,213.7z M102.834,140.758c2.409,0,5.082,0,7.755,0
			c0.081-0.328,0.16-0.657,0.241-0.986c-1.043-0.201-2.193-0.783-3.107-0.525c-1.934,0.545-3.061,0.244-3.719-1.776
			c-0.545-1.676-1.363-3.263-2.062-4.89c-0.276,0.078-0.552,0.155-0.829,0.232C101.654,135.309,102.194,137.805,102.834,140.758z
			 M145.833,139.626c0.193-0.475,0.385-0.949,0.577-1.424c-1.516-1.301-3.031-2.602-4.436-3.809
			c-1.021,1.577-1.943,3.004-3.385,5.232C141.353,139.626,143.593,139.626,145.833,139.626z M300.315,164.481
			c-0.082,1.807-0.176,2.889-0.168,3.97c0.007,1.087,0.114,2.173,0.205,3.742c2.106-2.806,3.67-4.887,5.791-7.712
			C303.943,164.481,302.059,164.481,300.315,164.481z M159.726,192.9c-1.413,0.381-2.818,0.759-5.258,1.416
			c1.824,1.498,3.02,2.942,4.55,3.564c0.927,0.378,2.372-0.518,3.341-0.776C161.378,195.539,160.558,194.229,159.726,192.9z
			 M118.082,126.372c-4.415-3.626-6.566-3.506-9.246,0C112.038,126.372,115.06,126.372,118.082,126.372z M129.03,223.646
			c-0.696,2.082-1.244,3.72-1.798,5.377c0.912,0.43,2.17,1.022,3.509,1.652c0.628-0.548,1.404-1.225,2.114-1.843
			C131.611,227.146,130.408,225.516,129.03,223.646z M109.604,189.919c-2.628,1.278-4.42,2.148-6.886,3.349
			c2.654,0.723,4.77,1.3,6.886,1.875C109.604,193.523,109.604,191.903,109.604,189.919z M97.24,192.574
			c-1.371-0.858-2.765-1.732-4.27-2.676c-0.328,3.206-0.598,5.843-0.974,9.518C93.88,196.957,95.473,194.88,97.24,192.574z
			 M267.722,228.075c-2.743,0.66-5.284,1.271-8.677,2.088C264.063,232.737,267.436,231.863,267.722,228.075z M142.687,187.507
			c2.803,0.168,4.739,0.284,7.162,0.43c-0.297-1.187-0.421-2.959-0.812-3.021c-1.79-0.279-3.688-0.258-5.469,0.073
			C143.117,185.073,142.951,186.692,142.687,187.507z M258.434,171.111c0.297,0.354,0.594,0.708,0.891,1.063
			c1.889-5.377,3.711-3.608,5.434-0.103c1.908-4.896-3.265-4.574-4.315-7.094C259.772,167.022,259.104,169.066,258.434,171.111z
			 M258.191,231.329c0.019-0.437,0.036-0.873,0.054-1.309c-1.709-0.567-3.389-1.323-5.145-1.6c-0.601-0.096-1.391,1.005-2.095,1.56
			c0.618,0.555,1.204,1.532,1.86,1.582C254.625,231.697,256.414,231.434,258.191,231.329z M164.046,186.354
			c0.275,0.268,0.552,0.535,0.827,0.803c0.625,1.549,1.25,3.098,2.264,5.608c0.511-1.868,1.428-3.359,1.014-4.031
			c-1.715-2.787,0.058-3.867,2.186-4.961c-0.254-0.321-0.509-0.644-0.764-0.966C167.73,183.99,165.888,185.172,164.046,186.354z
			 M112.114,151.331c0.436,0.114,0.872,0.229,1.309,0.342c0.673-1.453,1.589-2.857,1.896-4.384c0.121-0.604-1.119-1.479-1.738-2.231
			c-0.638,0.668-1.719,1.275-1.818,2.015C111.578,148.452,111.964,149.907,112.114,151.331z M135.909,198.021
			c1.316-2.731,5.5-0.83,4.424-4.499c-0.269-0.916-2.993-1.112-4.963-1.764C135.577,194.17,135.687,195.448,135.909,198.021z
			 M136.219,229.594c1.675,0.081,3.913,0.188,6.772,0.327c-1.606-2.299-2.503-3.586-3.273-4.688
			C138.577,226.656,137.407,228.114,136.219,229.594z M264.704,183.258c-0.533,0.001-1.067,0.002-1.601,0.003
			c-0.021,1.484-0.041,2.969-0.062,4.454c1.143-0.014,2.762,0.456,3.346-0.122C269.017,184.992,265.098,184.815,264.704,183.258z
			 M128.377,191.956c-0.867,1.006-1.559,1.809-2.215,2.571c1.029,1.313,1.89,2.412,2.745,3.503
			C133.716,195.945,130.745,194.116,128.377,191.956z M177.103,221.969c-2.107-1.286-3.471-2.119-4.798-2.93
			c-3.359,2.26-3.359,2.26-2.035,4.933C172.276,223.383,174.275,222.797,177.103,221.969z M173.735,157.591
			c-1.55,0.649-2.944,1.068-4.143,1.807c-0.596,0.366-1.222,1.381-1.121,1.983c0.097,0.58,1.142,1.433,1.719,1.395
			c0.759-0.051,1.723-0.698,2.142-1.372C172.963,160.386,173.2,159.122,173.735,157.591z M154.215,147.563
			c-2.213-2.927-4.32-0.773-6.414-0.178C149.879,148.77,151.95,151.412,154.215,147.563z M150.724,205.543
			c-0.884-1.288-1.431-2.085-1.978-2.882c-0.886,0.9-2.025,1.684-2.527,2.763c-0.187,0.4,1.14,2.142,1.735,2.12
			C148.796,207.514,149.601,206.418,150.724,205.543z M278.529,184.678c-0.134,0.42-0.266,0.84-0.399,1.26
			c1.849,0.723,3.657,1.663,5.574,2.018c0.482,0.089,1.312-1.695,2.292-3.049c-2.031,0.16-3.14,0.354-4.236,0.303
			C280.678,185.16,279.605,184.865,278.529,184.678z M139.626,146.547c-2.275,2.691-2.275,2.691-0.422,4.682
			c0.871-0.949,1.768-1.926,2.664-2.902c0.257,0.335,0.515,0.671,0.772,1.006C141.7,148.464,140.761,147.596,139.626,146.547z
			 M293.959,184.722c-2.206,0-4.412,0-6.809,0C289.127,188.993,290.35,189.101,293.959,184.722z M235.706,163.822
			c2.343-1.2,3.595-3.063,2.51-4.674c-0.574-0.85-2.046-1.096-2.779-1.451C235.545,160.184,235.624,161.962,235.706,163.822z
			 M199.812,148.942c1.375,4.316,1.706,4.303,5.928,0C203.7,148.942,201.928,148.942,199.812,148.942z M165.039,137.602
			c1.03-1.906,1.786-3.308,2.59-4.796c-0.773-0.656-1.576-1.337-2.562-2.175c-0.792,0.839-1.491,1.579-1.835,1.943
			C163.857,134.317,164.323,135.614,165.039,137.602z M129.519,185.044c1.142,1.604,2.121,2.981,3.526,4.957
			c0.913-1.959,1.554-3.335,2.196-4.711c-0.207-0.706-0.414-1.413-0.621-2.121C132.993,188.681,131.714,184.224,129.519,185.044z
			 M166.046,152.445c-0.576,0.001-1.152,0.003-1.728,0.004c0,1.7-0.026,3.402,0.085,5.095c0.004,0.074,1.262,0.066,1.935,0.096
			C166.241,155.908,166.144,154.177,166.046,152.445z M287.417,230.192c0.031,0.359,0.063,0.719,0.095,1.079
			c2.337,0,4.675,0,7.012,0c-0.003-0.36-0.008-0.72-0.012-1.079C292.146,230.192,289.782,230.192,287.417,230.192z M267.037,193.917
			c-0.384-0.229-0.769-0.458-1.152-0.687c-0.355,0.892-0.711,1.784-1.055,2.648c-0.947-0.898-1.531-1.453-2.114-2.008
			c-0.309,0.34-0.617,0.678-0.926,1.017c1.495,1.275,2.989,2.55,5.247,4.476C267.037,196.783,267.037,195.351,267.037,193.917z
			 M149.464,179.401c-0.085-1.363,0.13-3.228-0.267-3.369c-1.704-0.605-3.163-3.467-5.175-1.475
			C145.725,176.073,147.303,177.479,149.464,179.401z M231.498,176.174c-1.08-0.601-2-1.113-2.832-1.575
			c-0.37,0.695-0.643,1.438-1.113,2.021c-0.374,0.464-0.987,0.734-1.494,1.091c0.327,0.457,0.625,1.268,0.989,1.299
			c0.727,0.062,1.6-0.137,2.208-0.537C230.011,177.976,230.56,177.165,231.498,176.174z M273.327,163.535
			c1.312-1.896,2.232-3.227,3.153-4.558c-1.533,0.139-3.067,0.276-4.977,0.448C272.174,160.937,272.563,161.813,273.327,163.535z
			 M248.237,139.94c-0.763,0.062-1.526,0.123-2.289,0.185c0.115,1.204,0.089,2.453,0.442,3.585c0.093,0.296,1.364,0.223,2.095,0.319
			C248.402,142.667,248.319,141.304,248.237,139.94z M157.705,137.304c-0.846,1.221-1.504,2.17-1.91,2.754
			c0.486,1.09,0.935,2.095,1.434,3.212c1.466-1.26,2.268-1.949,3.216-2.764c-0.557-0.465-1.061-0.785-1.429-1.22
			C158.577,138.766,158.253,138.147,157.705,137.304z M182.377,212.977c2.178,0.644,2.178,0.644,4.026-6.534
			C185.07,208.606,183.736,210.771,182.377,212.977z M133.107,136.766c0.312,0.009,0.624,0.018,0.936,0.027
			c0-0.948,0.366-2.168-0.088-2.778c-0.642-0.863-1.889-1.278-2.878-1.885c-0.086,0.248-0.173,0.496-0.259,0.743
			C131.581,134.171,132.344,135.468,133.107,136.766z M232.324,158.719c-0.368-0.322-0.737-0.645-1.106-0.967
			c-2.349,0.439-3.822,1.484-2.705,5.229C230.091,161.217,231.208,159.968,232.324,158.719z M220.403,182.782
			c-1.705,1.218-2.627,1.875-3.667,2.617c1.046,1.128,1.899,2.048,2.753,2.967c0.305-0.063,0.609-0.127,0.914-0.189
			C220.403,186.601,220.403,185.023,220.403,182.782z M141.07,211.628c0.497-0.281,0.994-0.563,1.491-0.844
			c-0.775-1.354-1.551-2.706-2.326-4.06c-0.511,0.29-1.022,0.58-1.533,0.869C139.492,208.938,140.281,210.283,141.07,211.628z
			 M302.048,126.357c-0.003-0.311-0.006-0.621-0.008-0.93c-1.974,0-3.947,0-5.921,0c0.003,0.31,0.006,0.62,0.009,0.93
			C298.102,126.357,300.075,126.357,302.048,126.357z M266.318,146.421c0.405-0.221,0.703-0.384,0.999-0.546
			c-0.273-0.313-0.516-0.674-0.847-0.902c-0.071-0.048-0.62,0.354-0.678,0.607C265.746,145.792,266.099,146.093,266.318,146.421z"/>
		<path fill-rule="evenodd" clip-rule="evenodd" d="M106.99,47.604c2.523,2.321,4.311,3.768,5.828,5.457
			c0.629,0.701,0.68,1.921,0.995,2.905c-0.884,0.222-1.877,0.814-2.632,0.593c-1.94-0.569-3.731-1.635-5.661-2.257
			c-5.816-1.876-11.603-3.919-17.536-5.328c-3.351-0.796-6.967-0.476-10.627-0.667c-0.786-3.74-0.058-4.159,3.979-5.089
			c5.205-1.201,10.235-3.178,15.318-4.886c4.988-1.675,9.92-3.525,14.95-5.055c0.732-0.223,1.875,0.904,2.681,1.329
			c-2.421,2.956-4.482,5.474-6.893,8.418c59.229,0.876,117.851,1.743,176.473,2.61c0.112-0.375,0.226-0.75,0.338-1.125
			c-2.243-2.424-4.486-4.848-6.73-7.272c0.31-0.495,0.618-0.99,0.928-1.485c2.328,0.407,4.743,0.55,6.968,1.277
			c3.961,1.293,7.794,2.976,11.705,4.427c3.277,1.217,6.539,2.539,9.911,3.409c1.604,0.414,3.452-0.203,5.187-0.177
			c1.012,0.015,2.019,0.375,3.027,0.58c-0.385,1.181-0.452,2.693-1.242,3.449c-0.794,0.76-2.313,0.753-3.507,1.109
			c-4.702,1.404-9.43,2.73-14.093,4.255c-4.607,1.507-9.128,3.282-13.732,4.798c-1.224,0.403-2.619,0.282-4.705,0.471
			c2.045-2.408,3.647-4.161,5.077-6.044c0.548-0.723,1.134-1.883,0.907-2.587c-0.197-0.61-1.506-1.175-2.348-1.211
			c-5.357-0.238-10.721-0.408-16.084-0.442c-12.479-0.079-24.959-0.038-37.439-0.101c-17.867-0.091-35.734-0.145-53.6-0.375
			c-17.462-0.225-34.921-0.668-52.382-0.973C117.392,47.535,112.731,47.604,106.99,47.604z"/>
		<path fill-rule="evenodd" clip-rule="evenodd" d="M404.999,159.371c-1.687-2.714-3.374-5.428-5.061-8.143
			c-0.677,0.428-1.354,0.854-2.03,1.281c-1.947,18.177,0.752,36.496-1.059,54.967c3.249,0.64,4.893-1.471,6.786-3.344
			c0.877-0.867,2.266-1.217,3.422-1.801c-0.147,1.347-0.057,2.778-0.499,4.02c-0.729,2.05-2.111,3.892-2.68,5.968
			c-2.248,8.22-4.223,16.513-6.495,24.726c-0.233,0.845-1.771,1.329-2.597,1.906c-3.752-11.562-7.291-22.469-10.97-33.809
			c3.884-1.457,5.263,2.194,7.91,3.592c0.33-0.347,1.253-0.867,1.247-1.378c-0.094-8.817-0.401-17.633-0.448-26.45
			c-0.025-4.826,0.394-9.654,0.518-14.482c0.063-2.459-0.11-4.923-0.124-7.385c-0.007-1.199,0.245-2.413,0.125-3.594
			c-0.12-1.185-0.557-2.336-0.946-3.863c-3.066,2.707-5.403,4.77-7.741,6.832c-0.437-0.313-0.873-0.627-1.31-0.941
			c0.952-2.746,1.928-5.483,2.851-8.239c1.686-5.038,3.352-10.083,5.004-15.132c1.177-3.593,2.208-7.239,3.558-10.765
			c0.303-0.794,1.618-1.291,2.57-1.66c0.163-0.063,1.326,1.313,1.214,1.856c-1.358,6.564,2.198,11.987,4.042,17.781
			c1.449,4.557,3.295,8.988,4.765,13.54c0.352,1.088-0.091,2.432-0.167,3.658C406.255,158.798,405.627,159.084,404.999,159.371z"/>
		<path fill-rule="evenodd" clip-rule="evenodd" d="M430.573,177.069c-0.966,3.561-2.083,7.479-3.065,11.432
			c-0.261,1.05-0.106,2.203-0.143,3.309c1.069-0.411,2.645-0.51,3.124-1.286c2.642-4.279,5.032-8.716,7.477-13.115
			c1.887-3.395,3.632-6.871,5.661-10.176c0.414-0.676,1.813-0.747,2.757-1.098c0.3,0.291,0.599,0.582,0.897,0.873
			c-1.581,2.787-3.228,5.54-4.731,8.368c-2.684,5.047-5.309,10.126-7.898,15.22c-0.778,1.532-1.035,3.459-2.128,4.661
			c-1.014,1.114-2.785,1.995-4.293,2.118c-4.297,0.35-8.638,0.456-12.943,0.263c-2.071-0.092-5.036-0.461-5.913-1.804
			c-1.087-1.664-1.063-4.673-0.396-6.738c1.574-4.87,4.046-9.448,8.896-11.871c1.855-0.927,4.152-1.221,6.267-1.302
			C425.905,175.854,427.698,176.52,430.573,177.069z M424.225,181.885c-0.666-0.478-2.188-2.413-3.285-2.197
			c-3.548,0.699-8.401,7.17-7.686,11.231c0.362,2.055,1.447,3.174,3.614,2.532C420.099,192.493,424.292,186.611,424.225,181.885z"/>
		<path fill-rule="evenodd" clip-rule="evenodd" d="M193.326,33.533c-2.778,2.667-5.199,5.594-9.136,1.983
			c-0.324-0.297-1.458,0.239-2.198,0.454c-2.647,0.768-5.497,1.876-7.768-0.362c-2.09-2.058-2.262-4.916-1.131-7.586
			c1.283-3.031,2.545-6.149,4.374-8.852c2.453-3.625,6.44-3.757,10.431-3.501c6.94,0.446,6.959,0.412,5.554,7.187
			c-0.201,0.966-0.453,2.007-0.993,2.802C190.519,28.518,190.551,31.133,193.326,33.533z M188.24,20.982
			c-0.167-0.327-0.808-2.516-1.374-2.497c-1.682,0.058-3.96,0.499-4.868,1.671c-1.898,2.45-3.208,5.404-4.457,8.283
			c-0.419,0.965-0.344,2.957,0.261,3.368c0.941,0.641,2.631,0.691,3.822,0.354C184.759,31.275,188.128,25.867,188.24,20.982z"/>
		<path fill-rule="evenodd" clip-rule="evenodd" d="M450.609,172.55c-1.516-2.732,0.148-4.293,2.114-5.429
			c2.621-1.514,9.944-0.347,11.286,1.57c2.193,3.137,1.162,9.363-1.737,12.384c-3.646,3.798-7.064,7.813-10.582,11.734
			c0.152,0.348,0.305,0.695,0.457,1.043c2.8-0.519,5.599-1.038,8.594-1.595c0.94,2.163,0.354,3.984-1.665,5.247
			c-2.785,1.744-12.828,1.252-15.794-0.66c5.297-5.66,10.802-11.144,15.73-17.103c1.169-1.414,1.001-4.644,0.28-6.611
			c-0.361-0.989-3.318-1.228-5.142-1.413C453.037,171.604,451.848,172.233,450.609,172.55z"/>
		<path fill-rule="evenodd" clip-rule="evenodd" d="M312.63,56.169c-0.289-1.813-0.577-3.626-0.866-5.44
			c0.929-0.034,1.857-0.067,2.786-0.102c0,1.795,0,3.59,0,5.385C313.91,56.065,313.27,56.117,312.63,56.169z"/>
		<path fill-rule="evenodd" clip-rule="evenodd" d="M81.916,87.153c-1.782,0.887-2.69,1.724-3.465,1.615
			c-0.757-0.106-1.993-1.262-1.918-1.804c0.113-0.812,1.201-2.094,1.851-2.08C79.278,84.905,80.15,85.946,81.916,87.153z"/>
		<path fill-rule="evenodd" clip-rule="evenodd" d="M79.971,42.365c-0.99-0.773-1.981-1.546-2.972-2.32
			c0.699-0.762,1.398-1.524,2.097-2.286c0.771,1.042,1.541,2.085,2.312,3.128C80.929,41.379,80.45,41.873,79.971,42.365z"/>
		<path fill-rule="evenodd" clip-rule="evenodd" d="M78.915,51.22c0.558,1.366,1.117,2.731,1.674,4.098
			c-0.866,0.22-1.731,0.439-2.598,0.659c-0.332-1.37-0.664-2.74-0.996-4.109C77.636,51.652,78.275,51.436,78.915,51.22z"/>
		<path fill-rule="evenodd" clip-rule="evenodd" d="M80.563,108.7c-1.395,0-2.789,0-4.183,0c-0.187-0.308-0.373-0.615-0.56-0.922
			c0.954-0.816,1.839-2.125,2.886-2.271c0.676-0.094,1.589,1.517,2.396,2.364C80.923,108.147,80.743,108.424,80.563,108.7z"/>
		<path fill-rule="evenodd" clip-rule="evenodd" d="M316.648,86.226c-1.797,1.135-2.681,2.109-3.58,2.124
			c-0.667,0.011-1.354-1.225-2.033-1.904c0.72-0.632,1.374-1.648,2.177-1.784C313.954,84.536,314.854,85.355,316.648,86.226z"/>
		<path fill-rule="evenodd" clip-rule="evenodd" d="M310.516,100.103c0.988-0.806,1.977-1.611,2.965-2.417
			c0.448,0.728,0.896,1.454,1.345,2.182c-1.042,0.625-2.084,1.25-3.126,1.876C311.305,101.196,310.91,100.649,310.516,100.103z"/>
		<path fill-rule="evenodd" clip-rule="evenodd" d="M78.434,97.499c0.714,0.98,1.428,1.961,2.69,3.695
			c-1.664,0.17-2.784,0.285-3.903,0.399c0-1.34,0-2.682,0-4.022C77.625,97.547,78.03,97.523,78.434,97.499z"/>
		<path fill-rule="evenodd" clip-rule="evenodd" d="M313.369,56.733c0.911,1.506,1.747,2.292,1.743,3.074
			c-0.003,0.612-1.047,1.219-1.629,1.828c-0.66-0.704-1.622-1.318-1.87-2.146C311.463,58.987,312.418,58.154,313.369,56.733z"/>
		<path fill-rule="evenodd" clip-rule="evenodd" d="M371.605,238.38c-2.238,0-3.294,0-4.812,0c0.332-1.539,0.601-2.786,1.121-5.206
			C369.381,235.24,370.248,236.465,371.605,238.38z"/>
		<path fill-rule="evenodd" clip-rule="evenodd" fill="#FFFFFF" d="M82.359,115.28c5.623-4.589,10.367-8.846,15.511-12.545
			c4.778-3.437,9.954-6.329,15.009-9.369c4.464-2.684,8.879-5.496,13.549-7.772c3.746-1.825,7.822-2.993,11.789-4.341
			c4.525-1.538,9.052-3.101,13.655-4.371c3.352-0.923,6.829-1.39,10.25-2.06c16.221-3.173,32.6-3.681,49-2.261
			c7.995,0.692,16.017,1.898,23.815,3.759c5.87,1.401,11.387,4.26,17.098,6.372c1.497,0.553,3.167,0.622,4.691,1.117
			c5.985,1.945,11.093,5.824,16.788,8.148c5.242,2.14,9.299,5.637,13.807,8.606c5.862,3.863,12.041,7.407,16.428,13.17
			c0.562,0.738,1.762,0.96,2.447,1.642c0.692,0.69,1.11,1.654,1.648,2.497c-0.905,0.379-1.818,1.101-2.715,1.083
			c-11.607-0.244-23.21-0.778-34.816-0.881c-32.116-0.283-64.234-0.347-96.351-0.626c-5.185-0.044-10.359-0.958-15.547-1.1
			c-11.533-0.316-23.071-0.457-34.607-0.558c-12.621-0.111-25.243-0.093-37.865-0.15C85.078,115.636,84.215,115.472,82.359,115.28z"
			/>
		<path fill-rule="evenodd" clip-rule="evenodd" fill="#FFFFFF" d="M314.796,233.352c0-36.413,0-72.169,0-107.925
			c0.359-0.125,0.72-0.249,1.079-0.374c2.891,3.177,5.988,6.193,8.622,9.569c3.934,5.041,7.547,10.333,11.279,15.53
			c0.35,0.487,0.588,1.056,0.853,1.6c5.188,10.624,11.371,20.811,14.334,32.413c1.769,6.923,3.766,13.81,5.078,20.822
			c1.484,7.928,2.291,15.981,3.443,23.973c0.494,3.428-0.826,4.513-4.309,4.465C341.816,233.243,328.453,233.352,314.796,233.352z"
			/>
		<path fill-rule="evenodd" clip-rule="evenodd" fill="#FFFFFF" d="M29.034,229.699c0.963-6.056,1.815-11.246,2.608-16.445
			c0.693-4.545,0.895-9.212,2.067-13.625c2.097-7.891,4.432-15.754,7.287-23.398c2.607-6.98,5.872-13.734,9.169-20.429
			c1.664-3.378,4.011-6.425,6.102-9.586c2.392-3.615,4.726-7.278,7.3-10.762c2.657-3.595,5.51-7.054,8.449-10.423
			c0.417-0.478,1.843-0.267,2.714-0.04c0.267,0.069,0.336,1.261,0.331,1.937c-0.014,1.696-0.099,3.393-0.199,5.086
			c-0.212,3.569-0.54,7.135-0.658,10.705c-0.136,4.104-0.167,8.214-0.098,12.317c0.026,1.564,0.715,3.131,0.66,4.681
			c-0.318,9.044-0.952,18.081-1.13,27.126c-0.257,13.102-0.22,26.209-0.299,39.313c-0.011,1.8,0.137,3.568-2.543,3.562
			C57.325,229.678,43.856,229.699,29.034,229.699z"/>
		<path fill-rule="evenodd" clip-rule="evenodd" fill="#FFFFFF" d="M95.306,224.256c-0.699,3.052,1.583,2.779,3.371,2.96
			c1.042,0.104,2.103,0.019,3.422,0.019c0.215-0.686,0.498-1.583,0.781-2.486c0.395,0.117,0.779,0.15,0.796,0.247
			c0.431,2.48,1.954,3.022,4.308,2.942c3.35-0.113,7.086,1.157,9.964,0.045c2.708-1.048,4.054-0.087,5.915,1.492
			c-3.158,0-6.315,0.002-9.473,0c-10.09-0.008-20.182-0.115-30.269,0.05c-2.333,0.038-3.586-1.066-4.072-2.808
			c-0.277-0.991,0.722-2.337,1.785-3.823c-1.431,6.596,3.823,3.771,5.82,5.282c0.325-0.164,0.65-0.328,0.976-0.492
			c-0.789-2.229-1.782-4.412-2.282-6.703c-0.25-1.15,0.395-2.495,0.635-3.752c1.014,0.413,2.029,0.822,3.041,1.24
			c1.084,0.449,2.164,0.907,3.23,1.354c-1.167,1.268-2.319,2.543-3.357,3.69c1.014,1.43,1.956,2.76,2.706,3.819
			C93.516,226.291,94.411,225.273,95.306,224.256z"/>
		<path fill-rule="evenodd" clip-rule="evenodd" fill="#FFFFFF" d="M284.668,159.396c-0.679,6.044-4.505,1.291-6.689,2.649
			c1.542-2.059,3.086-4.119,4.618-6.165c1.812,1.068,3.443,2.112,5.149,3.013c1.752,0.925,3.576,1.711,5.169,3.066
			C289.908,162.807,287.008,163.587,284.668,159.396z"/>
		<path fill-rule="evenodd" clip-rule="evenodd" fill="#FFFFFF" d="M93.101,163.89c0.285-1.784,0.425-3.261,0.777-4.686
			c0.323-1.311,0.521-3.228,1.403-3.699c1.568-0.838,3.342-0.358,3.953,1.896c0.113,0.418,0.913,0.65,1.86,1.274
			c-1.535,0.338-2.531,0.558-3.509,0.772C97.856,163.722,96.834,164.672,93.101,163.89z"/>
		<path fill-rule="evenodd" clip-rule="evenodd" fill="#FFFFFF" d="M80.83,207.171c0.449-2.6,0.945-5.474,1.441-8.347
			c3.153,2.008,5.152,4.091,3.628,7.097C85.081,207.536,83.571,209.227,80.83,207.171z"/>
		<path fill-rule="evenodd" clip-rule="evenodd" fill="#FFFFFF" d="M186.179,158.278c0-2.189,0-4.822,0-7.455
			c0.401-0.063,0.802-0.125,1.204-0.187c0.312,1.447,0.624,2.896,0.976,4.534c1.169,0,2.533-0.166,3.825,0.068
			c0.672,0.122,1.492,0.847,1.732,1.491c0.203,0.545-0.136,1.729-0.589,1.973c-0.568,0.306-1.497-0.079-2.271-0.133
			C189.566,158.469,188.076,158.39,186.179,158.278z"/>
		<path fill-rule="evenodd" clip-rule="evenodd" fill="#FFFFFF" d="M167.461,213.7c-3.761-0.695-3.889-1.017-2.682-6.755
			C170.233,208.56,170.4,208.979,167.461,213.7z"/>
		<path fill-rule="evenodd" clip-rule="evenodd" fill="#FFFFFF" d="M102.834,140.758c-0.64-2.953-1.18-5.449-1.721-7.945
			c0.277-0.077,0.553-0.154,0.829-0.232c0.698,1.627,1.517,3.214,2.062,4.89c0.658,2.021,1.785,2.321,3.719,1.776
			c0.915-0.258,2.064,0.324,3.107,0.525c-0.081,0.329-0.16,0.658-0.241,0.986C107.916,140.758,105.243,140.758,102.834,140.758z"/>
		<path fill-rule="evenodd" clip-rule="evenodd" fill="#FFFFFF" d="M145.833,139.626c-2.24,0-4.48,0-7.244,0
			c1.441-2.229,2.364-3.655,3.385-5.232c1.405,1.207,2.92,2.508,4.436,3.809C146.218,138.677,146.026,139.151,145.833,139.626z"/>
		<path fill-rule="evenodd" clip-rule="evenodd" fill="#FFFFFF" d="M300.315,164.481c1.743,0,3.628,0,5.828,0
			c-2.121,2.825-3.685,4.906-5.791,7.712c-0.091-1.569-0.198-2.655-0.205-3.742C300.14,167.37,300.233,166.288,300.315,164.481z"/>
		<path fill-rule="evenodd" clip-rule="evenodd" fill="#FFFFFF" d="M159.726,192.9c0.832,1.328,1.652,2.639,2.633,4.204
			c-0.97,0.259-2.415,1.154-3.341,0.776c-1.53-0.622-2.726-2.066-4.55-3.564C156.907,193.659,158.313,193.281,159.726,192.9z"/>
		<path fill-rule="evenodd" clip-rule="evenodd" fill="#FFFFFF" d="M118.082,126.372c-3.022,0-6.044,0-9.246,0
			C111.515,122.866,113.667,122.746,118.082,126.372z"/>
		<path fill-rule="evenodd" clip-rule="evenodd" fill="#FFFFFF" d="M129.03,223.646c1.378,1.869,2.581,3.499,3.825,5.187
			c-0.71,0.618-1.486,1.295-2.114,1.843c-1.338-0.63-2.597-1.223-3.509-1.652C127.787,227.366,128.334,225.729,129.03,223.646z"/>
		<path fill-rule="evenodd" clip-rule="evenodd" fill="#FFFFFF" d="M109.604,189.919c0,1.984,0,3.604,0,5.224
			c-2.116-0.575-4.232-1.152-6.886-1.875C105.185,192.067,106.977,191.197,109.604,189.919z"/>
		<path fill-rule="evenodd" clip-rule="evenodd" fill="#FFFFFF" d="M97.24,192.574c-1.768,2.306-3.36,4.383-5.244,6.842
			c0.376-3.675,0.646-6.312,0.974-9.518C94.476,190.842,95.87,191.716,97.24,192.574z"/>
		<path fill-rule="evenodd" clip-rule="evenodd" fill="#FFFFFF" d="M267.722,228.075c-0.286,3.788-3.658,4.662-8.677,2.088
			C262.438,229.347,264.979,228.735,267.722,228.075z"/>
		<path fill-rule="evenodd" clip-rule="evenodd" fill="#FFFFFF" d="M142.687,187.507c0.264-0.814,0.43-2.434,0.88-2.518
			c1.782-0.331,3.68-0.353,5.469-0.073c0.391,0.062,0.515,1.834,0.812,3.021C147.426,187.791,145.49,187.675,142.687,187.507z"/>
		<path fill-rule="evenodd" clip-rule="evenodd" fill="#FFFFFF" d="M258.434,171.111c0.67-2.045,1.339-4.089,2.009-6.134
			c1.051,2.52,6.224,2.198,4.315,7.094c-1.723-3.506-3.545-5.274-5.434,0.103C259.027,171.819,258.73,171.465,258.434,171.111z"/>
		<path fill-rule="evenodd" clip-rule="evenodd" fill="#FFFFFF" d="M258.191,231.329c-1.777,0.104-3.566,0.368-5.325,0.233
			c-0.656-0.05-1.242-1.027-1.86-1.582c0.704-0.555,1.494-1.655,2.095-1.56c1.756,0.276,3.436,1.032,5.145,1.6
			C258.228,230.456,258.21,230.893,258.191,231.329z"/>
		<path fill-rule="evenodd" clip-rule="evenodd" fill="#FFFFFF" d="M164.046,186.354c1.842-1.183,3.685-2.364,5.527-3.547
			c0.255,0.322,0.51,0.645,0.764,0.966c-2.128,1.094-3.901,2.174-2.186,4.961c0.414,0.672-0.502,2.163-1.014,4.031
			c-1.014-2.511-1.639-4.06-2.264-5.608C164.598,186.89,164.321,186.622,164.046,186.354z"/>
		<path fill-rule="evenodd" clip-rule="evenodd" d="M95.306,224.256c-0.895,1.018-1.79,2.035-2.705,3.077
			c-0.75-1.06-1.692-2.39-2.706-3.819c1.038-1.147,2.19-2.423,3.357-3.69C93.945,221.305,94.626,222.78,95.306,224.256z"/>
		<path fill-rule="evenodd" clip-rule="evenodd" fill="#FFFFFF" d="M112.114,151.331c-0.15-1.424-0.536-2.879-0.352-4.259
			c0.099-0.739,1.18-1.347,1.818-2.015c0.62,0.752,1.859,1.628,1.738,2.231c-0.307,1.526-1.223,2.931-1.896,4.384
			C112.986,151.56,112.549,151.445,112.114,151.331z"/>
		<path fill-rule="evenodd" clip-rule="evenodd" fill="#FFFFFF" d="M135.909,198.021c-0.222-2.573-0.332-3.852-0.54-6.263
			c1.97,0.651,4.695,0.848,4.963,1.764C141.409,197.191,137.225,195.29,135.909,198.021z"/>
		<path fill-rule="evenodd" clip-rule="evenodd" fill="#FFFFFF" d="M136.219,229.594c1.188-1.479,2.357-2.938,3.5-4.361
			c0.77,1.103,1.667,2.39,3.273,4.688C140.132,229.782,137.894,229.675,136.219,229.594z"/>
		<path fill-rule="evenodd" clip-rule="evenodd" fill="#FFFFFF" d="M264.704,183.258c0.394,1.558,4.313,1.734,1.684,4.335
			c-0.584,0.578-2.203,0.108-3.346,0.122c0.021-1.485,0.041-2.97,0.062-4.454C263.637,183.26,264.171,183.259,264.704,183.258z"/>
		<path fill-rule="evenodd" clip-rule="evenodd" fill="#FFFFFF" d="M128.377,191.956c2.368,2.16,5.339,3.989,0.53,6.074
			c-0.855-1.091-1.716-2.189-2.745-3.503C126.818,193.765,127.51,192.962,128.377,191.956z"/>
		<path fill-rule="evenodd" clip-rule="evenodd" fill="#FFFFFF" d="M177.103,221.969c-2.828,0.828-4.826,1.414-6.833,2.003
			c-1.325-2.673-1.325-2.673,2.035-4.933C173.632,219.85,174.996,220.683,177.103,221.969z"/>
		<path fill-rule="evenodd" clip-rule="evenodd" fill="#FFFFFF" d="M173.735,157.591c-0.535,1.531-0.771,2.795-1.403,3.813
			c-0.419,0.674-1.382,1.321-2.142,1.372c-0.578,0.038-1.623-0.814-1.719-1.395c-0.101-0.603,0.525-1.617,1.121-1.983
			C170.791,158.659,172.185,158.24,173.735,157.591z"/>
		<path fill-rule="evenodd" clip-rule="evenodd" fill="#FFFFFF" d="M154.215,147.563c-2.265,3.849-4.335,1.206-6.414-0.178
			C149.895,146.79,152.001,144.637,154.215,147.563z"/>
		<path fill-rule="evenodd" clip-rule="evenodd" fill="#FFFFFF" d="M150.724,205.543c-1.123,0.875-1.927,1.971-2.77,2.001
			c-0.595,0.021-1.922-1.72-1.735-2.12c0.502-1.079,1.641-1.862,2.527-2.763C149.293,203.458,149.839,204.255,150.724,205.543z"/>
		<path fill-rule="evenodd" clip-rule="evenodd" fill="#FFFFFF" d="M278.529,184.678c1.076,0.188,2.148,0.482,3.23,0.531
			c1.097,0.051,2.205-0.143,4.236-0.303c-0.98,1.354-1.81,3.138-2.292,3.049c-1.917-0.354-3.726-1.295-5.574-2.018
			C278.264,185.518,278.396,185.098,278.529,184.678z"/>
		<path fill-rule="evenodd" clip-rule="evenodd" fill="#FFFFFF" d="M139.626,146.547c1.135,1.049,2.074,1.917,3.014,2.785
			c-0.257-0.335-0.515-0.671-0.772-1.006c-0.896,0.977-1.792,1.953-2.664,2.902C137.351,149.238,137.351,149.238,139.626,146.547z"
			/>
		<path fill-rule="evenodd" clip-rule="evenodd" fill="#FFFFFF" d="M293.959,184.722c-3.609,4.379-4.832,4.271-6.809,0
			C289.547,184.722,291.753,184.722,293.959,184.722z"/>
		<path fill-rule="evenodd" clip-rule="evenodd" fill="#FFFFFF" d="M235.706,163.822c-0.082-1.86-0.16-3.639-0.27-6.125
			c0.733,0.355,2.206,0.602,2.779,1.451C239.301,160.76,238.048,162.622,235.706,163.822z"/>
		<path fill-rule="evenodd" clip-rule="evenodd" fill="#FFFFFF" d="M199.812,148.942c2.116,0,3.888,0,5.928,0
			C201.518,153.245,201.187,153.259,199.812,148.942z"/>
		<path fill-rule="evenodd" clip-rule="evenodd" fill="#FFFFFF" d="M165.039,137.602c-0.715-1.987-1.181-3.284-1.807-5.027
			c0.344-0.364,1.043-1.104,1.835-1.943c0.986,0.838,1.789,1.519,2.562,2.175C166.824,134.294,166.068,135.695,165.039,137.602z"/>
		<path fill-rule="evenodd" clip-rule="evenodd" fill="#FFFFFF" d="M129.519,185.044c2.196-0.82,3.475,3.637,5.101-1.875
			c0.208,0.708,0.414,1.415,0.621,2.121c-0.642,1.376-1.283,2.752-2.196,4.711C131.64,188.025,130.66,186.648,129.519,185.044z"/>
		<path fill-rule="evenodd" clip-rule="evenodd" fill="#FFFFFF" d="M166.046,152.445c0.097,1.731,0.195,3.463,0.292,5.194
			c-0.673-0.029-1.931-0.021-1.935-0.096c-0.111-1.692-0.085-3.395-0.085-5.095C164.894,152.448,165.471,152.446,166.046,152.445z"
			/>
		<path fill-rule="evenodd" clip-rule="evenodd" fill="#FFFFFF" d="M287.417,230.192c2.365,0,4.729,0,7.095,0
			c0.004,0.359,0.009,0.719,0.012,1.079c-2.337,0-4.675,0-7.012,0C287.479,230.911,287.448,230.552,287.417,230.192z"/>
		<path fill-rule="evenodd" clip-rule="evenodd" fill="#FFFFFF" d="M267.037,193.917c0,1.434,0,2.866,0,5.446
			c-2.258-1.926-3.752-3.2-5.247-4.476c0.309-0.339,0.617-0.677,0.926-1.017c0.583,0.555,1.167,1.109,2.114,2.008
			c0.344-0.864,0.699-1.757,1.055-2.648C266.269,193.459,266.653,193.688,267.037,193.917z"/>
		<path fill-rule="evenodd" clip-rule="evenodd" fill="#FFFFFF" d="M149.464,179.401c-2.161-1.923-3.74-3.328-5.441-4.844
			c2.012-1.992,3.471,0.869,5.175,1.475C149.595,176.174,149.379,178.038,149.464,179.401z"/>
		<path fill-rule="evenodd" clip-rule="evenodd" fill="#FFFFFF" d="M231.498,176.174c-0.938,0.991-1.486,1.802-2.242,2.298
			c-0.609,0.4-1.482,0.599-2.208,0.537c-0.363-0.031-0.662-0.842-0.989-1.299c0.507-0.356,1.121-0.627,1.494-1.091
			c0.47-0.583,0.744-1.325,1.113-2.021C229.497,175.061,230.417,175.573,231.498,176.174z"/>
		<path fill-rule="evenodd" clip-rule="evenodd" fill="#FFFFFF" d="M273.327,163.535c-0.765-1.722-1.153-2.599-1.823-4.109
			c1.909-0.172,3.443-0.31,4.977-0.448C275.56,160.309,274.639,161.64,273.327,163.535z"/>
		<path fill-rule="evenodd" clip-rule="evenodd" fill="#FFFFFF" d="M248.237,139.94c0.082,1.363,0.165,2.727,0.248,4.089
			c-0.73-0.097-2.002-0.023-2.095-0.319c-0.354-1.132-0.327-2.381-0.442-3.585C246.711,140.063,247.475,140.002,248.237,139.94z"/>
		<path fill-rule="evenodd" clip-rule="evenodd" fill="#FFFFFF" d="M157.705,137.304c0.548,0.844,0.872,1.462,1.311,1.982
			c0.369,0.435,0.873,0.755,1.429,1.22c-0.948,0.814-1.75,1.504-3.216,2.764c-0.499-1.117-0.947-2.122-1.434-3.212
			C156.201,139.474,156.859,138.524,157.705,137.304z"/>
		<path fill-rule="evenodd" clip-rule="evenodd" fill="#FFFFFF" d="M182.377,212.977c1.359-2.205,2.692-4.37,4.026-6.534
			C184.556,213.62,184.556,213.62,182.377,212.977z"/>
		<path fill-rule="evenodd" clip-rule="evenodd" fill="#FFFFFF" d="M133.107,136.766c-0.763-1.298-1.526-2.595-2.289-3.893
			c0.086-0.247,0.173-0.495,0.259-0.743c0.989,0.606,2.236,1.021,2.878,1.885c0.454,0.61,0.088,1.83,0.088,2.778
			C133.731,136.783,133.419,136.774,133.107,136.766z"/>
		<path fill-rule="evenodd" clip-rule="evenodd" fill="#FFFFFF" d="M232.324,158.719c-1.116,1.249-2.233,2.498-3.811,4.262
			c-1.118-3.744,0.355-4.789,2.705-5.229C231.587,158.074,231.956,158.396,232.324,158.719z"/>
		<path fill-rule="evenodd" clip-rule="evenodd" fill="#FFFFFF" d="M220.403,182.782c0,2.241,0,3.818,0,5.395
			c-0.305,0.063-0.609,0.127-0.914,0.189c-0.854-0.919-1.707-1.839-2.753-2.967C217.776,184.657,218.698,184,220.403,182.782z"/>
		<path fill-rule="evenodd" clip-rule="evenodd" fill="#FFFFFF" d="M141.07,211.628c-0.789-1.345-1.579-2.689-2.368-4.034
			c0.511-0.289,1.022-0.579,1.533-0.869c0.775,1.354,1.551,2.706,2.326,4.06C142.064,211.065,141.567,211.347,141.07,211.628z"/>
		<path fill-rule="evenodd" clip-rule="evenodd" fill="#FFFFFF" d="M302.048,126.357c-1.973,0-3.946,0-5.92,0
			c-0.003-0.311-0.006-0.621-0.009-0.93c1.974,0,3.947,0,5.921,0C302.042,125.737,302.045,126.047,302.048,126.357z"/>
		<path fill-rule="evenodd" clip-rule="evenodd" fill="#FFFFFF" d="M84.795,166.493c-0.788-0.403-1.576-0.808-2.364-1.212
			c0.29-0.335,0.581-0.671,0.871-1.006c0.467,0.769,0.934,1.536,1.401,2.305L84.795,166.493z"/>
		<path fill-rule="evenodd" clip-rule="evenodd" fill="#FFFFFF" d="M266.318,146.421c-0.22-0.328-0.572-0.629-0.525-0.841
			c0.058-0.254,0.606-0.655,0.678-0.607c0.331,0.229,0.573,0.589,0.847,0.902C267.021,146.037,266.724,146.2,266.318,146.421z"/>
		<path fill-rule="evenodd" clip-rule="evenodd" fill="#FFFFFF" d="M84.703,166.58c0.44,0.26,0.879,0.519,1.319,0.779
			c-0.239,0.189-0.478,0.379-0.717,0.568c-0.17-0.478-0.34-0.956-0.509-1.435C84.795,166.493,84.703,166.58,84.703,166.58z"/>
		<path fill-rule="evenodd" clip-rule="evenodd" fill="#FFFFFF" d="M424.225,181.885c0.067,4.727-4.126,10.608-7.356,11.566
			c-2.167,0.642-3.252-0.478-3.614-2.532c-0.716-4.062,4.138-10.532,7.686-11.231C422.036,179.472,423.559,181.407,424.225,181.885z
			"/>
		<path fill-rule="evenodd" clip-rule="evenodd" fill="#FFFFFF" d="M188.24,20.982c-0.112,4.884-3.481,10.292-6.615,11.179
			c-1.191,0.337-2.881,0.286-3.822-0.354c-0.605-0.411-0.68-2.403-0.261-3.368c1.248-2.879,2.559-5.833,4.457-8.283
			c0.908-1.172,3.187-1.613,4.868-1.671C187.433,18.466,188.073,20.656,188.24,20.982z"/>
	</g>
</g>
</svg>
