<?xml version="1.0" encoding="utf-8"?>
<!-- Generator: Adobe Illustrator 16.0.0, SVG Export Plug-In . SVG Version: 6.00 Build 0)  -->
<!DOCTYPE svg PUBLIC "-//W3C//DTD SVG 1.1//EN" "http://www.w3.org/Graphics/SVG/1.1/DTD/svg11.dtd">
<svg version="1.1" id="Layer_1" xmlns="http://www.w3.org/2000/svg" xmlns:xlink="http://www.w3.org/1999/xlink" x="0px" y="0px"
	 width="609.085px" height="324.795px" viewBox="0 0 609.085 324.795" enable-background="new 0 0 609.085 324.795"
	 xml:space="preserve">
<g>
	<g>
		<path fill-rule="evenodd" clip-rule="evenodd" fill="#FFFFFF" d="M609.835,325.545c-203.027,0-406.056,0-609.084,0
			c0-108.265,0-216.529,0-324.795c203.028,0,406.057,0,609.084,0C609.835,109.015,609.835,217.28,609.835,325.545z M34.116,252.254
			c0.268,0.422,0.536,0.844,0.804,1.266c91.437,2.535,182.958,0.622,274.851,5.218c-0.107-1.872,0.266-3.549-0.354-4.685
			c-2.306-4.235-4.988-8.262-7.434-12.423c-2.936-4.997-5.728-10.077-8.664-15.072c-4.126-7.023-8.492-13.91-12.455-21.021
			c-4.641-8.328-8.845-16.898-13.457-25.243c-3.015-5.456-6.308-10.771-9.675-16.021c-3.959-6.173-6.626-12.993-11.205-18.967
			c-4.166-5.435-6.348-12.4-10.418-18.231c-3.292-4.715-5.316-10.3-8.107-15.387c-2.533-4.615-5.346-9.075-8.026-13.609
			c-2.764-4.676-5.632-9.295-8.243-14.055c-2.962-5.401-5.591-10.985-8.561-16.381c-1.564-2.842-3.767-5.336-5.298-8.193
			c-3.043-5.676-5.721-11.547-8.737-17.238c-3.721-7.018-7.574-13.967-11.498-20.873c-1.159-2.04-3.461-2.576-5.102-1.13
			c-1.821,1.603-3.109,3.896-4.355,6.047c-1.756,3.033-3.187,6.256-4.897,9.318c-1.381,2.474-3.061,4.78-4.449,7.249
			c-3.652,6.491-7.072,13.117-10.87,19.52c-2.433,4.103-5.626,7.758-8.027,11.877c-3.469,5.953-6.342,12.254-9.813,18.206
			c-3.728,6.391-7.949,12.492-11.776,18.828c-3.079,5.097-5.901,10.348-8.819,15.542c-1.643,2.923-3.119,5.949-4.897,8.787
			c-3.652,5.825-7.508,11.522-11.179,17.335c-2.41,3.815-4.63,7.75-6.958,11.619c-1.895,3.148-3.88,6.244-5.724,9.424
			c-2.177,3.754-4.139,7.636-6.387,11.345c-2.49,4.11-5.299,8.025-7.778,12.141c-2.043,3.391-3.688,7.021-5.721,10.42
			c-4.261,7.12-8.669,14.152-13,21.231c-0.859,1.404-1.617,2.87-2.461,4.283C41.663,239.676,37.887,245.963,34.116,252.254z
			 M423.913,86.598c0.134-1.337-0.01-2.084,0.292-2.527c1.391-2.044,0.838-3.858-0.729-5.334c-0.571-0.538-2.478-0.738-2.594-0.504
			c-0.834,1.676-1.833,3.484-1.908,5.286c-0.282,6.813-0.047,13.648-0.364,20.458c-0.256,5.479,0.249,6.304,5.537,6.332
			c0.867,0.004,1.736,0.142,2.6,0.252c8.044,1.028,14.753-5.85,13.361-13.858c-0.234-1.354-1.463-2.513-1.846-3.871
			c-1.216-4.311-4.258-6.654-8.798-6.5C427.752,86.39,426.042,86.494,423.913,86.598z M351.215,93.666
			c2.398,0.599,4.315,0.449,6.046-1.958c0.733-1.02,2.979-1.404,4.467-1.273c1.012,0.088,1.9,1.576,3.535,3.068
			c-4.077,0.672-6.992,1.263-9.937,1.605c-3.021,0.351-5.002,2.221-5.445,4.82c-0.355,2.083-0.041,5.349,1.305,6.417
			c2.4,1.907,5.729,2.935,8.823,3.534c1.255,0.243,2.92-2.309,4.388-2.296c1.508,0.013,3.002,1.602,5.067,2.839
			c0.608-1.842,1.53-3.458,1.606-5.113c0.149-3.26-0.321-6.544-0.267-9.814c0.114-6.867-0.863-8.542-7.332-9.839
			c-2.312-0.463-4.893,0.059-7.293,0.467C351.673,86.888,350.407,88.906,351.215,93.666z M564.806,73.402
			c3.421-0.209,6.39-0.421,9.362-0.564c3.436-0.165,5.904-0.909,8.049-4.485c3.105-5.178,0.314-13.461-6.316-14.057
			c-4.704-0.423-9.479-0.208-14.213-0.015c-0.785,0.032-2.143,1.388-2.176,2.176c-0.35,8.476-0.598,16.961-0.565,25.443
			c0.004,1.306,1.404,3.539,2.442,3.721c2.349,0.412,3.471-1.375,3.429-3.779C564.771,79.237,564.806,76.629,564.806,73.402z
			 M560.295,135.592c-0.19,0.459-0.381,0.918-0.57,1.379c2.372,4.975,4.969,9.099,11.807,8.627c5.173-0.356,7.879-2.82,9.334-7.206
			c1.338-4.031,0.209-7.556-2.991-9.991c0.718-1.519,1.61-2.715,1.844-4.028c0.75-4.238-1.165-8.215-4.475-9.839
			c-2.924-1.434-10.673-0.661-12.354,1.88c-1.048,1.584-1.577,4.872-0.641,6.091c1.439,1.874,3.532,0.371,4.674-1.583
			c0.063-0.107,0.102-0.307,0.176-0.319c1.97-0.33,3.943-0.64,5.916-0.954c-0.015,1.598,0.384,3.367-0.178,4.742
			c-0.439,1.076-2.075,1.66-3.171,2.474c-0.85,0.63-1.688,1.28-3.335,2.533c2.396,0.559,3.869,0.563,4.93,1.227
			c1.687,1.055,3.313,2.388,4.493,3.958c0.345,0.459-0.676,2.817-1.49,3.101c-2.059,0.718-4.349,0.855-6.561,0.985
			c-0.532,0.031-1.046-1.072-1.694-1.309C564.138,136.679,562.204,136.169,560.295,135.592z M281.126,119.682
			c0.604,1.715,1.521,3.017,1.357,4.164c-0.239,1.668-1.325,3.199-1.93,4.833c-1.271,3.437-2.517,6.886-3.667,10.364
			c-0.608,1.838-1.007,3.746-1.477,5.629c-0.846,3.389,1.182,6.287,4.726,7.044c9.093,1.941,19.852-8.306,16.581-18.86
			c-0.592-1.911-1.572-3.287-3.866-3.213c-2.295,0.074-4.594,0.016-7.725,0.016c0.888-1.989,1.859-3.397,2.118-4.926
			c0.372-2.201,0.226-4.49,0.302-6.742c-1.687,0.385-3.381,0.748-5.06,1.168C281.908,119.302,281.365,119.587,281.126,119.682z
			 M63.499,127.119c-5.936,0.137-11.102-1.802-15.866,1.434c-3.564,2.422-5.407,6.004-6.738,10.059
			c-0.879,2.679-1.574,5.338,0.604,7.27c2.285,2.024,5.181,2.748,8.237,0.887c0.804-0.49,2.389-0.659,3.094-0.191
			c4.046,2.687,6.308,0.141,8.12-2.503c-0.822-2.132-1.717-4.26-1.306-6.096C60.402,134.599,61.927,131.393,63.499,127.119z
			 M506.678,96.089c-1.357-5.847-4.534-8.996-8.646-8.528c-3.138,0.358-7.049,1.258-8.974,3.396
			c-3.866,4.292-3.374,9.929-1.442,15.167c0.599,1.622,1.744,3.533,3.175,4.27c5.651,2.908,10.957,1.655,14.865-3.324
			c0.72-0.917,0.522-2.552,0.749-3.856c-1.564,0.126-3.606-0.324-4.596,0.496c-2.098,1.738-4.095,3.27-6.848,2.367
			c-2.937-0.962-2.444-3.646-2.471-5.977c-0.005-0.375-0.04-0.749-0.047-1.124c-0.1-5.312,2.328-6.825,7.167-4.733
			C501.576,95.092,503.793,95.358,506.678,96.089z M157.627,285.434c-1.729,0.61-2.827,1.242-3.976,1.354
			c-2.402,0.234-4.856,0.403-7.231,0.119c-0.588-0.07-1.417-2.007-1.344-3.029c0.26-3.645,2.41-6.314,5.423-8.126
			c0.711-0.428,3.021,0.182,3.072,0.533c0.407,2.825,2.608,2.92,4.087,2.108c1.007-0.553,1.344-2.751,1.537-4.271
			c0.309-2.445-1.517-2.727-3.405-2.849c-7.405-0.482-12.396,3.117-15.302,10.546c-2.24,5.729,0.414,10.104,4.263,11.528
			C149.989,295.286,156.209,291.726,157.627,285.434z M570.908,98.936c0-0.064,0-0.129,0-0.194c-4.989,0-9.983-0.115-14.964,0.096
			c-1.008,0.042-1.964,1.313-2.944,2.018c0.965,0.739,1.915,2.097,2.897,2.121c10.116,0.254,20.238,0.347,30.358,0.29
			c0.886-0.005,1.764-1.389,2.646-2.131c-0.874-0.733-1.724-2.064-2.626-2.1C581.16,98.831,576.032,98.936,570.908,98.936z
			 M450.719,101.106c-0.022,0.57-0.044,1.139-0.066,1.709c1.685,0.761,3.332,2.056,5.062,2.178
			c4.845,0.343,9.724,0.225,14.589,0.238c2.03,0.006,4.391,0.034,4.251-2.852c-0.126-2.647-2.326-2.875-4.435-2.858
			c-4.739,0.037-9.484-0.041-14.215,0.19C454.157,99.796,452.445,100.62,450.719,101.106z M384.531,103.499
			c6.275,0,12.474,0.095,18.665-0.084c1.146-0.034,3.122-1.065,3.211-1.815c0.197-1.65-0.873-2.724-3.018-2.683
			c-5.468,0.104-10.94-0.093-16.411-0.183C383.932,98.684,383.344,100.225,384.531,103.499z M535.93,105.899
			c0,0.084,0.002,0.168,0.003,0.252c0.993,0,2.078,0.253,2.957-0.064c1.088-0.393,2.006-1.26,2.996-1.922
			c-0.943-0.729-1.845-2.021-2.837-2.094c-5.395-0.403-10.813-0.637-16.22-0.597c-1.062,0.008-2.113,1.475-3.169,2.27
			c0.958,0.719,1.887,2.008,2.878,2.058C526.992,106.026,531.464,105.899,535.93,105.899z M451.773,94.463
			c-0.09,0.397-0.18,0.794-0.27,1.192c1.607,0.631,3.19,1.717,4.828,1.808c4.6,0.253,9.229,0.238,13.831,0.021
			c1.456-0.069,2.864-1.112,4.295-1.709c-1.404-0.692-2.78-1.904-4.218-1.982c-4.975-0.268-9.972-0.193-14.959-0.124
			C454.108,93.684,452.942,94.185,451.773,94.463z M406.365,95.369c0.105-0.471,0.211-0.943,0.315-1.414
			c-1.263-0.557-2.515-1.562-3.79-1.593c-5.335-0.13-10.679-0.028-16.014,0.146c-0.893,0.029-1.759,0.833-2.638,1.278
			c0.866,0.65,1.707,1.822,2.601,1.864c5.582,0.263,11.175,0.304,16.765,0.335C404.524,95.991,405.444,95.585,406.365,95.369z
			 M535.643,98.18c0,0.041,0,0.083-0.001,0.124c0.619,0.059,1.307,0.319,1.845,0.136c1.492-0.503,2.922-1.191,4.377-1.806
			c-1.413-0.709-2.795-1.946-4.243-2.03c-4.956-0.288-9.939-0.291-14.902-0.108c-1.036,0.038-2.025,1.332-3.036,2.047
			c0.979,0.545,1.941,1.523,2.941,1.563C526.957,98.279,531.302,98.18,535.643,98.18z"/>
		<path fill-rule="evenodd" clip-rule="evenodd" d="M34.116,252.254c3.771-6.291,7.547-12.578,11.309-18.874
			c0.844-1.413,1.602-2.879,2.461-4.283c4.331-7.079,8.738-14.111,13-21.231c2.033-3.398,3.678-7.029,5.721-10.42
			c2.479-4.115,5.288-8.03,7.778-12.141c2.248-3.709,4.21-7.591,6.387-11.345c1.843-3.18,3.829-6.275,5.724-9.424
			c2.328-3.868,4.548-7.803,6.958-11.619c3.671-5.813,7.527-11.51,11.179-17.335c1.778-2.838,3.254-5.864,4.897-8.787
			c2.918-5.194,5.74-10.445,8.819-15.542c3.828-6.336,8.048-12.437,11.776-18.828c3.471-5.952,6.344-12.253,9.813-18.206
			c2.4-4.119,5.594-7.774,8.027-11.877c3.798-6.403,7.218-13.028,10.87-19.52c1.389-2.469,3.068-4.775,4.449-7.249
			c1.71-3.063,3.141-6.285,4.897-9.318c1.246-2.151,2.535-4.444,4.355-6.047c1.641-1.445,3.943-0.909,5.102,1.13
			c3.924,6.905,7.777,13.855,11.498,20.873c3.016,5.691,5.694,11.563,8.737,17.238c1.532,2.857,3.734,5.351,5.298,8.193
			c2.97,5.396,5.599,10.98,8.561,16.381c2.611,4.76,5.479,9.379,8.243,14.055c2.68,4.534,5.494,8.995,8.026,13.609
			c2.792,5.086,4.815,10.671,8.107,15.387c4.071,5.831,6.253,12.796,10.418,18.231c4.579,5.974,7.246,12.793,11.205,18.967
			c3.367,5.25,6.66,10.564,9.675,16.021c4.611,8.345,8.816,16.915,13.457,25.243c3.963,7.111,8.328,13.998,12.455,21.021
			c2.936,4.995,5.728,10.075,8.664,15.072c2.446,4.161,5.128,8.188,7.434,12.423c0.619,1.136,0.246,2.813,0.354,4.685
			c-91.893-4.596-183.415-2.683-274.851-5.218C34.652,253.098,34.384,252.676,34.116,252.254z M44.368,247.206
			c1.987,0.114,2.971,0.217,3.956,0.222c15.118,0.081,30.244-0.134,45.351,0.293c18.4,0.52,36.851-1.222,55.216,1.634
			c5.736,0.892,11.707,0.223,17.567,0.374c11.467,0.295,22.931,0.737,34.398,0.98c10.465,0.223,20.935,0.29,31.403,0.374
			c14.494,0.115,28.987,0.198,43.481,0.262c8.222,0.036,16.443,0.007,25.87,0.007c-1.449-2.079-2.473-3.318-3.242-4.699
			c-1.368-2.461-2.435-5.095-3.89-7.498c-2.864-4.732-6.06-9.269-8.831-14.052c-2.484-4.287-4.496-8.846-6.903-13.18
			c-0.739-1.329-2.375-2.158-3.116-3.486c-2.12-3.797-3.918-7.772-5.983-11.603c-1.812-3.359-3.945-6.549-5.698-9.938
			c-2.446-4.729-4.38-9.742-7.064-14.323c-3.328-5.683-7.4-10.925-10.777-16.582c-3.304-5.537-6.077-11.388-9.215-17.027
			c-0.922-1.656-2.552-2.93-3.399-4.611c-1.431-2.838-2.154-6.067-3.775-8.771c-5.842-9.745-12.106-19.24-17.879-29.024
			c-4.904-8.311-9.406-16.862-13.983-25.362c-3.847-7.144-7.485-14.4-11.332-21.545c-2.93-5.441-5.962-10.833-9.137-16.133
			c-0.664-1.109-2.189-2.427-3.247-2.368c-1.023,0.057-2.081,1.671-2.888,2.775c-0.705,0.964-0.99,2.225-1.618,3.26
			c-2.721,4.483-5.62,8.863-8.221,13.414c-2.025,3.543-3.438,7.453-5.607,10.894c-2.844,4.511-6.407,8.57-9.218,13.098
			c-3.658,5.891-6.796,12.102-10.315,18.083c-4.268,7.252-8.724,14.393-13.05,21.611c-1.998,3.332-3.792,6.787-5.845,10.082
			c-2.207,3.541-4.765,6.867-6.88,10.456c-1.947,3.304-3.4,6.898-5.291,10.24c-0.94,1.662-2.577,2.925-3.542,4.577
			c-2.221,3.799-4.222,7.725-6.316,11.598c-1.272,2.351-2.439,4.766-3.849,7.03c-3.498,5.621-7.211,11.109-10.644,16.769
			c-3.689,6.081-7.113,12.321-10.731,18.446c-4.382,7.418-8.807,14.811-13.292,22.166c-2.495,4.092-5.261,8.021-7.698,12.145
			C47.461,240.622,46.143,243.662,44.368,247.206z"/>
		<path fill-rule="evenodd" clip-rule="evenodd" d="M423.913,86.598c2.129-0.104,3.839-0.208,5.551-0.267
			c4.54-0.154,7.582,2.19,8.798,6.5c0.383,1.358,1.611,2.516,1.846,3.871c1.392,8.008-5.317,14.886-13.361,13.858
			c-0.863-0.11-1.732-0.248-2.6-0.252c-5.288-0.028-5.793-0.854-5.537-6.332c0.317-6.81,0.082-13.645,0.364-20.458
			c0.075-1.802,1.074-3.61,1.908-5.286c0.116-0.234,2.022-0.033,2.594,0.504c1.567,1.476,2.12,3.29,0.729,5.334
			C423.903,84.514,424.047,85.261,423.913,86.598z M430.782,105.265c0.367-0.48,1.228-1.417,1.86-2.489
			c0.548-0.928,0.736-2.065,1.265-3.01c1.062-1.899-0.436-7.492-2.957-8.268c-1.399-0.431-3.66,1.096-5.175,2.222
			c-0.82,0.609-1.004,2.205-1.273,3.4C423.58,101.213,426.242,105.306,430.782,105.265z"/>
		<path fill-rule="evenodd" clip-rule="evenodd" d="M351.215,93.666c-0.808-4.76,0.458-6.778,4.964-7.543
			c2.4-0.408,4.981-0.93,7.293-0.467c6.469,1.297,7.446,2.973,7.332,9.839c-0.055,3.27,0.416,6.555,0.267,9.814
			c-0.076,1.656-0.998,3.271-1.606,5.113c-2.065-1.237-3.56-2.826-5.067-2.839c-1.468-0.012-3.133,2.54-4.388,2.296
			c-3.095-0.599-6.423-1.627-8.823-3.534c-1.346-1.069-1.66-4.335-1.305-6.417c0.443-2.599,2.425-4.469,5.445-4.82
			c2.944-0.342,5.859-0.933,9.937-1.605c-1.635-1.493-2.523-2.98-3.535-3.068c-1.487-0.131-3.733,0.253-4.467,1.273
			C355.53,94.115,353.613,94.265,351.215,93.666z M357.443,105.042c6.501-2.962,6.501-2.962,5.714-6.145
			c-1.986,0.286-4.005,0.576-6.395,0.919C357.004,101.665,357.198,103.165,357.443,105.042z"/>
		<path fill-rule="evenodd" clip-rule="evenodd" d="M564.806,73.402c0,3.227-0.035,5.835,0.012,8.441
			c0.042,2.404-1.08,4.191-3.429,3.779c-1.038-0.182-2.438-2.415-2.442-3.721c-0.032-8.482,0.216-16.967,0.565-25.443
			c0.033-0.788,1.391-2.144,2.176-2.176c4.733-0.193,9.509-0.408,14.213,0.015c6.631,0.596,9.422,8.879,6.316,14.057
			c-2.145,3.576-4.613,4.32-8.049,4.485C571.195,72.981,568.227,73.193,564.806,73.402z M570.262,68.147
			c0.533-0.092,2.112-0.442,3.711-0.625c2.129-0.245,3.936-1.185,3.35-3.45c-0.455-1.757-1.703-3.718-3.188-4.682
			c-1.402-0.91-3.583-0.898-5.404-0.833c-3.971,0.143-4.084,0.731-4.068,6.439C564.672,68.594,566.907,68.211,570.262,68.147z"/>
		<path fill-rule="evenodd" clip-rule="evenodd" d="M560.295,135.592c1.909,0.577,3.843,1.086,5.713,1.771
			c0.648,0.237,1.162,1.34,1.694,1.309c2.212-0.13,4.502-0.268,6.561-0.985c0.814-0.284,1.835-2.642,1.49-3.101
			c-1.18-1.57-2.807-2.903-4.493-3.958c-1.061-0.664-2.534-0.668-4.93-1.227c1.647-1.253,2.485-1.902,3.335-2.533
			c1.096-0.814,2.731-1.398,3.171-2.474c0.562-1.375,0.163-3.144,0.178-4.742c-1.973,0.313-3.946,0.624-5.916,0.954
			c-0.074,0.012-0.113,0.212-0.176,0.319c-1.142,1.953-3.234,3.456-4.674,1.583c-0.937-1.219-0.407-4.507,0.641-6.091
			c1.682-2.542,9.431-3.314,12.354-1.88c3.31,1.624,5.225,5.601,4.475,9.839c-0.233,1.313-1.126,2.509-1.844,4.028
			c3.2,2.436,4.329,5.96,2.991,9.991c-1.455,4.385-4.161,6.85-9.334,7.206c-6.838,0.472-9.435-3.652-11.807-8.627
			C559.914,136.511,560.104,136.052,560.295,135.592z"/>
		<path fill-rule="evenodd" clip-rule="evenodd" d="M281.126,119.682c0.239-0.095,0.782-0.38,1.36-0.524
			c1.679-0.42,3.373-0.783,5.06-1.168c-0.076,2.252,0.07,4.541-0.302,6.742c-0.259,1.529-1.23,2.938-2.118,4.926
			c3.131,0,5.43,0.058,7.725-0.016c2.294-0.074,3.274,1.302,3.866,3.213c3.271,10.554-7.488,20.801-16.581,18.86
			c-3.544-0.757-5.572-3.655-4.726-7.044c0.469-1.883,0.869-3.791,1.477-5.629c1.15-3.479,2.396-6.927,3.667-10.364
			c0.604-1.634,1.691-3.165,1.93-4.833C282.647,122.699,281.73,121.397,281.126,119.682z M280.52,147.572
			c7.509,0.552,11.848-3.352,11.352-9.987c-0.09-1.212-1.198-2.686-2.265-3.37c-0.71-0.455-2.55-0.111-3.251,0.549
			C282.775,138.135,280.693,142.285,280.52,147.572z"/>
		<path fill-rule="evenodd" clip-rule="evenodd" d="M63.499,127.119c-1.571,4.274-3.097,7.48-3.854,10.859
			c-0.411,1.836,0.483,3.964,1.306,6.096c-1.813,2.644-4.074,5.19-8.12,2.503c-0.705-0.468-2.29-0.299-3.094,0.191
			c-3.056,1.861-5.953,1.138-8.237-0.887c-2.178-1.932-1.483-4.591-0.604-7.27c1.331-4.055,3.173-7.637,6.738-10.059
			C52.396,125.316,57.563,127.255,63.499,127.119z M55.798,129.146c-3.734-0.375-5.976,1.254-7.237,4.485
			c-0.631,1.617-1.415,3.186-1.901,4.843c-0.352,1.197-0.328,2.503-0.472,3.761c1.415-0.028,2.992,0.341,4.212-0.16
			C53.777,140.687,56.539,133.985,55.798,129.146z"/>
		<path fill-rule="evenodd" clip-rule="evenodd" d="M506.678,96.089c-2.885-0.73-5.102-0.997-7.067-1.847
			c-4.839-2.091-7.267-0.578-7.167,4.733c0.007,0.375,0.042,0.75,0.047,1.124c0.026,2.332-0.466,5.015,2.471,5.977
			c2.753,0.903,4.75-0.629,6.848-2.367c0.989-0.82,3.031-0.37,4.596-0.496c-0.227,1.304-0.029,2.939-0.749,3.856
			c-3.908,4.979-9.214,6.232-14.865,3.324c-1.431-0.737-2.576-2.648-3.175-4.27c-1.932-5.239-2.424-10.875,1.442-15.167
			c1.925-2.138,5.836-3.038,8.974-3.396C502.144,87.093,505.32,90.242,506.678,96.089z"/>
		<path fill-rule="evenodd" clip-rule="evenodd" d="M157.627,285.434c-1.417,6.292-7.638,9.853-12.875,7.914
			c-3.85-1.424-6.503-5.8-4.263-11.528c2.906-7.429,7.897-11.028,15.302-10.546c1.888,0.122,3.714,0.403,3.405,2.849
			c-0.193,1.52-0.53,3.718-1.537,4.271c-1.479,0.812-3.68,0.717-4.087-2.108c-0.051-0.352-2.36-0.961-3.072-0.533
			c-3.013,1.812-5.163,4.481-5.423,8.126c-0.072,1.022,0.756,2.959,1.344,3.029c2.375,0.284,4.829,0.115,7.231-0.119
			C154.8,286.676,155.897,286.044,157.627,285.434z"/>
		<path fill-rule="evenodd" clip-rule="evenodd" d="M570.908,98.936c5.124,0,10.252-0.105,15.367,0.099
			c0.902,0.036,1.752,1.367,2.626,2.1c-0.882,0.743-1.76,2.126-2.646,2.131c-10.12,0.057-20.242-0.036-30.358-0.29
			c-0.982-0.024-1.933-1.382-2.897-2.121c0.98-0.705,1.937-1.976,2.944-2.018c4.98-0.211,9.975-0.096,14.964-0.096
			C570.908,98.807,570.908,98.872,570.908,98.936z"/>
		<path fill-rule="evenodd" clip-rule="evenodd" d="M450.719,101.106c1.727-0.487,3.438-1.311,5.186-1.396
			c4.73-0.231,9.476-0.154,14.215-0.19c2.108-0.016,4.309,0.211,4.435,2.858c0.14,2.886-2.221,2.858-4.251,2.852
			c-4.865-0.013-9.744,0.105-14.589-0.238c-1.729-0.122-3.377-1.417-5.062-2.178C450.675,102.246,450.696,101.677,450.719,101.106z"
			/>
		<path fill-rule="evenodd" clip-rule="evenodd" d="M384.531,103.499c-1.188-3.274-0.6-4.815,2.447-4.766
			c5.471,0.09,10.943,0.287,16.411,0.183c2.145-0.041,3.215,1.033,3.018,2.683c-0.089,0.75-2.065,1.782-3.211,1.815
			C397.005,103.594,390.807,103.499,384.531,103.499z"/>
		<path fill-rule="evenodd" clip-rule="evenodd" d="M535.93,105.899c-4.466,0-8.938,0.127-13.392-0.098
			c-0.991-0.05-1.92-1.339-2.878-2.058c1.056-0.794,2.107-2.262,3.169-2.27c5.407-0.04,10.825,0.194,16.22,0.597
			c0.992,0.074,1.894,1.365,2.837,2.094c-0.99,0.662-1.908,1.529-2.996,1.922c-0.879,0.318-1.964,0.064-2.957,0.064
			C535.932,106.068,535.93,105.984,535.93,105.899z"/>
		<path fill-rule="evenodd" clip-rule="evenodd" d="M451.773,94.463c1.169-0.278,2.335-0.779,3.508-0.794
			c4.987-0.069,9.984-0.144,14.959,0.124c1.438,0.078,2.813,1.29,4.218,1.982c-1.431,0.597-2.839,1.64-4.295,1.709
			c-4.603,0.218-9.231,0.233-13.831-0.021c-1.638-0.091-3.221-1.176-4.828-1.808C451.594,95.257,451.684,94.86,451.773,94.463z"/>
		<path fill-rule="evenodd" clip-rule="evenodd" d="M406.365,95.369c-0.921,0.216-1.841,0.622-2.761,0.616
			c-5.59-0.032-11.183-0.073-16.765-0.335c-0.894-0.042-1.734-1.214-2.601-1.864c0.879-0.445,1.745-1.25,2.638-1.278
			c5.335-0.173,10.679-0.276,16.014-0.146c1.275,0.031,2.527,1.037,3.79,1.593C406.576,94.426,406.471,94.898,406.365,95.369z"/>
		<path fill-rule="evenodd" clip-rule="evenodd" d="M535.643,98.18c-4.341,0-8.686,0.1-13.02-0.075c-1-0.04-1.963-1.017-2.941-1.563
			c1.011-0.715,2-2.009,3.036-2.047c4.963-0.183,9.946-0.18,14.902,0.108c1.448,0.084,2.83,1.321,4.243,2.03
			c-1.455,0.615-2.885,1.303-4.377,1.806c-0.538,0.183-1.226-0.078-1.845-0.136C535.643,98.262,535.643,98.221,535.643,98.18z"/>
		<path fill-rule="evenodd" clip-rule="evenodd" fill="#FFFFFF" d="M44.368,247.206c1.775-3.544,3.093-6.584,4.766-9.415
			c2.437-4.124,5.203-8.053,7.698-12.145c4.485-7.355,8.91-14.748,13.292-22.166c3.619-6.125,7.042-12.365,10.731-18.446
			c3.433-5.659,7.146-11.147,10.644-16.769c1.41-2.265,2.577-4.68,3.849-7.03c2.094-3.873,4.095-7.799,6.316-11.598
			c0.965-1.652,2.603-2.916,3.542-4.577c1.891-3.341,3.343-6.936,5.291-10.24c2.115-3.589,4.673-6.916,6.88-10.456
			c2.053-3.295,3.847-6.75,5.845-10.082c4.327-7.218,8.783-14.359,13.05-21.611c3.519-5.981,6.657-12.192,10.315-18.083
			c2.812-4.528,6.375-8.587,9.218-13.098c2.169-3.44,3.582-7.35,5.607-10.894c2.601-4.55,5.5-8.931,8.221-13.414
			c0.628-1.035,0.913-2.295,1.618-3.26c0.807-1.104,1.865-2.718,2.888-2.775c1.058-0.059,2.583,1.259,3.247,2.368
			c3.175,5.301,6.207,10.692,9.137,16.133c3.847,7.145,7.484,14.401,11.332,21.545c4.578,8.5,9.08,17.051,13.983,25.362
			c5.773,9.784,12.037,19.279,17.879,29.024c1.621,2.705,2.345,5.933,3.775,8.771c0.847,1.681,2.477,2.956,3.399,4.611
			c3.138,5.64,5.911,11.491,9.215,17.027c3.376,5.657,7.449,10.899,10.777,16.582c2.684,4.581,4.618,9.595,7.064,14.323
			c1.753,3.389,3.887,6.578,5.698,9.938c2.065,3.83,3.863,7.806,5.983,11.603c0.741,1.328,2.377,2.157,3.116,3.486
			c2.408,4.334,4.419,8.893,6.903,13.18c2.771,4.783,5.967,9.319,8.831,14.052c1.455,2.403,2.522,5.037,3.89,7.498
			c0.769,1.381,1.792,2.62,3.242,4.699c-9.427,0-17.648,0.029-25.87-0.007c-14.494-0.063-28.987-0.146-43.481-0.262
			c-10.469-0.084-20.938-0.151-31.403-0.374c-11.468-0.243-22.932-0.686-34.398-0.98c-5.86-0.151-11.831,0.518-17.567-0.374
			c-18.365-2.855-36.816-1.114-55.216-1.634c-15.107-0.427-30.233-0.212-45.351-0.293C47.339,247.423,46.354,247.32,44.368,247.206z
			"/>
		<path fill-rule="evenodd" clip-rule="evenodd" fill="#FFFFFF" d="M430.782,105.265c-4.54,0.041-7.202-4.052-6.28-8.145
			c0.27-1.195,0.453-2.791,1.273-3.4c1.515-1.126,3.775-2.652,5.175-2.222c2.521,0.776,4.019,6.369,2.957,8.268
			c-0.528,0.945-0.717,2.083-1.265,3.01C432.01,103.848,431.149,104.785,430.782,105.265z"/>
		<path fill-rule="evenodd" clip-rule="evenodd" fill="#FFFFFF" d="M357.443,105.042c-0.245-1.877-0.439-3.377-0.681-5.226
			c2.39-0.344,4.408-0.634,6.395-0.919C363.944,102.08,363.944,102.08,357.443,105.042z"/>
		<path fill-rule="evenodd" clip-rule="evenodd" fill="#FFFFFF" d="M570.262,68.147c-3.354,0.063-5.59,0.446-5.6-3.15
			c-0.016-5.708,0.098-6.297,4.068-6.439c1.821-0.066,4.002-0.078,5.404,0.833c1.484,0.963,2.732,2.924,3.188,4.682
			c0.586,2.265-1.221,3.205-3.35,3.45C572.374,67.706,570.795,68.055,570.262,68.147z"/>
		<path fill-rule="evenodd" clip-rule="evenodd" fill="#FFFFFF" d="M280.52,147.572c0.173-5.288,2.255-9.438,5.835-12.808
			c0.701-0.66,2.541-1.004,3.251-0.549c1.067,0.684,2.175,2.157,2.265,3.37C292.368,144.22,288.029,148.125,280.52,147.572z"/>
		<path fill-rule="evenodd" clip-rule="evenodd" fill="#FFFFFF" d="M55.798,129.146c0.741,4.84-2.021,11.542-5.397,12.93
			c-1.22,0.501-2.797,0.132-4.212,0.16c0.144-1.258,0.12-2.564,0.472-3.761c0.486-1.657,1.27-3.226,1.901-4.843
			C49.822,130.399,52.064,128.771,55.798,129.146z"/>
	</g>
</g>
</svg>
