<?xml version="1.0" encoding="utf-8"?>
<!-- Generator: Adobe Illustrator 16.0.0, SVG Export Plug-In . SVG Version: 6.00 Build 0)  -->
<!DOCTYPE svg PUBLIC "-//W3C//DTD SVG 1.1//EN" "http://www.w3.org/Graphics/SVG/1.1/DTD/svg11.dtd">
<svg version="1.1" id="Layer_1" xmlns="http://www.w3.org/2000/svg" xmlns:xlink="http://www.w3.org/1999/xlink" x="0px" y="0px"
	 width="606.835px" height="359.3px" viewBox="0 0 606.835 359.3" enable-background="new 0 0 606.835 359.3" xml:space="preserve">
<g>
	<g>
		<path fill-rule="evenodd" clip-rule="evenodd" fill="#FFFFFF" d="M0.779,359.892c0-119.646,0-239.395,0-359.113
			c202.288,0,404.547,0,606.806,0c0,119.671,0,239.313,0,359.113C405.307,359.892,203.029,359.892,0.779,359.892z M116.11,142.418
			c-0.597,2.446-1.413,4.321-1.461,6.215c-0.5,19.437-0.942,38.876-1.262,58.317c-0.23,13.992-0.232,27.988-0.383,41.982
			c-0.028,2.629,0.982,3.969,3.741,3.898c8.968-0.226,17.94-0.647,26.905-0.536c29.202,0.362,58.401,1.216,87.602,1.281
			c13.144,0.028,26.228,1.485,39.403,0.832c6.67-0.329,13.408,1.158,20.125,1.271c14.352,0.241,28.711,0.049,43.067,0.164
			c41.707,0.336,83.413,0.72,125.12,1.121c19.104,0.184,38.208,0.481,57.312,0.601c1.131,0.007,2.269-1.123,3.402-1.725
			c-0.844-1.165-1.435-2.813-2.574-3.408c-4.14-2.162-8.579-3.757-12.691-5.965c-6.776-3.637-13.341-7.665-20.08-11.373
			c-5.76-3.171-11.626-6.146-17.468-9.166c-2.712-1.403-5.508-2.647-8.21-4.071c-7.611-4.007-15.182-8.092-22.791-12.102
			c-5.866-3.092-11.768-6.115-17.653-9.17c-4.056-2.105-8.104-4.221-12.166-6.315c-5.079-2.621-10.143-5.271-15.256-7.823
			c-7.47-3.727-14.973-7.387-22.475-11.048c-1.311-0.64-3.197-0.765-3.945-1.775c-3.261-4.393-8.666-4.731-12.9-7.235
			c-4.51-2.667-9.308-4.842-13.939-7.31c-6.977-3.718-13.727-7.935-20.932-11.135c-6.735-2.991-13.379-5.982-19.348-10.343
			c-0.673-0.491-1.491-0.792-2.259-1.146c-5.567-2.563-11.288-4.836-16.673-7.737c-8.408-4.529-16.446-9.754-24.907-14.177
			c-8.33-4.354-16.993-8.072-25.503-12.084c-0.886-0.417-1.737-0.913-2.585-1.406c-4.752-2.767-9.405-5.724-14.272-8.27
			c-5.314-2.779-10.901-5.032-16.23-7.784c-6.928-3.578-13.618-7.623-20.602-11.081c-4.851-2.402-9.69-4.57-14.313-7.594
			c-6.852-4.48-14.717-7.415-22.154-10.999c-0.767-0.369-1.588-0.63-2.344-1.019c-4.336-2.236-8.538-4.786-13.021-6.667
			c-4.687-1.966-5.409-1.28-5.57,3.718c-0.599,18.545-1.289,37.088-1.757,55.638c-0.271,10.741-0.238,21.491-0.188,32.237
			C114.879,140.51,115.851,141.785,116.11,142.418z M142.995,318.994c5.082,0,8.673-0.106,12.256,0.018
			c18.658,0.647,37.312,1.443,55.973,2.003c10.111,0.303,20.233,0.227,30.35,0.338c37.462,0.414,74.925,0.697,112.384,1.293
			c33.084,0.525,66.162,1.457,99.245,2.091c9.859,0.188,19.727-0.047,29.59-0.028c1.864,0.004,3.727,0.293,6.528,0.529
			c-2.523,2.688-4.27,4.51-5.968,6.375c-0.566,0.621-1.013,1.351-1.513,2.03c0.853,0.254,1.811,0.891,2.541,0.691
			c2.827-0.771,5.562-1.875,8.37-2.725c2.603-0.787,5.259-1.393,7.885-2.104c5.188-1.406,10.385-2.782,15.541-4.293
			c0.976-0.285,1.784-1.138,2.67-1.728c-0.768-0.713-1.418-1.797-2.32-2.078c-5.026-1.563-10.131-2.873-15.174-4.385
			c-5.413-1.621-10.769-3.439-16.199-4.997c-0.985-0.282-2.211,0.278-3.645,0.498c2.897,2.828,5.188,5.064,7.479,7.301
			c-0.226,0.401-0.451,0.804-0.677,1.207c-1.573,0-3.148,0.063-4.718-0.011c-9.299-0.437-18.609-0.754-27.893-1.419
			c-5.978-0.428-11.851,0.687-17.914,0.103c-10.258-0.985-20.65-0.557-30.987-0.71c-10.101-0.15-20.203-0.248-30.303-0.436
			c-14.98-0.279-29.958-0.689-44.938-0.906c-12.856-0.187-25.721-0.023-38.575-0.3c-16.313-0.351-32.617-1.221-48.931-1.453
			c-31.479-0.451-62.963-0.608-94.444-0.905c-1.514-0.015-3.027-0.197-4.601-0.306c1.855-3.223,3.428-5.956,5.002-8.688
			c-0.324-0.263-0.648-0.524-0.972-0.787c-2.636,0.589-5.455,0.769-7.871,1.849c-6.285,2.81-12.539,5.625-19.377,6.791
			c-2.184,0.373-4.441,0.343-6.609,0.773c-0.781,0.155-1.549,1.03-2.009,1.772c-0.155,0.249,0.529,1.398,1.052,1.626
			c2.511,1.09,5.058,2.13,7.665,2.958c7.575,2.406,15.177,4.73,22.788,7.021c1.363,0.409,2.821,0.503,4.235,0.742
			c0.307-0.352,0.614-0.702,0.921-1.054C147.717,325,145.602,322.31,142.995,318.994z M47.407,220.471
			c-3.076-2.812-5.183-4.835-7.41-6.717c-0.77-0.651-1.839-0.947-2.771-1.406c-0.203,1.149-0.849,2.443-0.529,3.421
			c1.21,3.694,2.436,7.438,4.203,10.884c3.355,6.541,4.628,13.503,4.861,20.702c0.083,2.55,0.795,3.701,3.377,3.177
			c4-12.463,7.954-24.787,11.908-37.111c-0.401-0.22-0.803-0.439-1.205-0.659c-2.506,1.854-5.013,3.708-8.423,6.23
			c0.735-47.961,1.451-94.677,2.179-142.177c1.59,0.922,2.753,1.459,3.754,2.211c1.242,0.934,2.237,2.238,3.557,3.009
			c0.805,0.47,2.02,0.237,3.051,0.321c-0.061-1.053,0.155-2.224-0.231-3.14c-1.585-3.75-3.704-7.305-4.979-11.147
			c-2.342-7.055-4.227-14.262-6.411-21.779c-0.549,0.025-1.591,0.073-1.774,0.082c-1.903,6.355-3.607,12.176-5.393,17.972
			c-1.784,5.791-3.649,11.556-5.531,17.494c2.458,1.69,3.421-0.431,4.822-1.969c1.13-1.24,2.666-2.111,4.022-3.146
			c0.313,0.288,0.627,0.576,0.94,0.864C48.758,124.829,48.091,172.071,47.407,220.471z M577.608,104.534
			c-0.137-0.371-0.274-0.741-0.411-1.113c0.767-0.917,1.482-1.882,2.31-2.74c2.401-2.493,5.034-4.789,7.229-7.447
			c2.793-3.382,1.544-9.982-1.927-12.594c-4.705-3.541-9.403-2.719-13.805,0.203c-1.456,0.966-2.169,3.187-2.937,4.958
			c-0.196,0.455,0.801,2.026,1.066,1.982c1.738-0.291,3.515-0.699,5.094-1.456c0.752-0.36,0.946-2.073,1.659-2.286
			c1.369-0.409,3.479-0.822,4.305-0.106c2.51,2.175,2.386,5.789,0.097,8.274c-1.336,1.45-2.908,2.678-4.299,4.081
			c-2.625,2.649-5.445,5.158-7.717,8.088c-2.239,2.888-1.137,6.604,1.912,6.76c5.194,0.265,10.443,0.079,15.621-0.415
			c1.112-0.106,2.022-2.325,3.026-3.571c-1.149-0.874-2.211-2.306-3.465-2.502C582.837,104.257,580.201,104.534,577.608,104.534z
			 M24.227,141.924c-0.207,8.211-1.884,15.303-5.062,22.111c-1.03,2.207-1.532,4.721-1.886,7.151
			c-0.132,0.906,0.85,1.973,1.323,2.967c1.108-0.564,2.382-0.949,3.261-1.761c0.521-0.481,0.403-1.642,0.597-2.491
			c1.318-5.772,5.704-8.876,10.829-12.826c-0.244,2.603-0.266,4.18-0.562,5.704c-0.542,2.783-1.4,5.513-1.803,8.311
			c-0.15,1.045,0.571,3.15,0.957,3.166c1.312,0.05,3.204-0.214,3.85-1.104c0.98-1.345,3.61-2.638,1.33-5.187
			c-0.525-0.587-0.141-2.5,0.42-3.453c2.148-3.649,2.468-7.399,1.623-10.926c-4.602-2.894-7.644,0.16-11.298,2.06
			c0.419-3.049,1.289-5.686,2.209-8.304c0.755-2.15,2.78-4.743-0.101-6.226C28.448,140.362,25.942,141.627,24.227,141.924z
			 M573.366,28.201c-0.326-2.988-0.533-5.549-0.944-8.078c-0.086-0.528-0.964-1.342-1.411-1.302
			c-0.697,0.063-1.588,0.599-1.943,1.201c-0.483,0.818-0.738,1.888-0.746,2.852c-0.066,8.345-0.092,16.692-0.011,25.038
			c0.008,0.801,0.766,2.246,1.266,2.288c3.76,0.31,7.544,0.449,11.317,0.398c1.139-0.016,2.501-0.527,3.36-1.272
			c5.026-4.361,5.365-9.888,3.663-15.866c-0.871-3.057-2.796-4.983-5.976-5.216C579.15,28.039,576.332,28.201,573.366,28.201z
			 M573.959,217.893c3.413-3.489,5.766-6.343,8.569-8.649c3.782-3.112,5.104-9.517,2.362-13.608
			c-2.124-3.172-10.978-4.91-13.94-2.398c-1.674,1.418-2.832,3.551-3.858,5.549c-0.255,0.496,0.716,2.179,1.461,2.48
			c0.808,0.328,2.167-0.079,2.997-0.615c0.882-0.568,1.255-2.049,2.152-2.444c1.673-0.738,3.857-1.723,5.266-1.17
			c0.979,0.384,1.285,3.146,1.42,4.882c0.308,3.945-2.531,5.808-5.4,7.715c-3.788,2.519-6.869,5.64-8.497,10.125
			c-0.942,2.599-0.295,3.526,2.243,3.554c5.114,0.054,10.233,0.183,15.343,0.014c1.088-0.036,2.137-1.217,3.205-1.869
			c-0.881-1.108-1.566-2.54-2.702-3.224c-0.948-0.569-2.424-0.305-3.668-0.33C578.985,217.863,577.059,217.893,573.959,217.893z
			 M291.165,279.844c0.246,3.191,0.886,5.631,0.49,7.889c-0.45,2.56-1.844,4.95-2.799,7.424c-1.234,3.196-2.29,6.471-3.694,9.589
			c-2.004,4.45-0.027,8.069,4.906,8.589c8.466,0.893,13.691-3.005,15.66-11.271c2.024-8.495-0.492-12.051-9.967-10.945
			c0.698-3.893,1.366-7.621,2.149-11.993C294.916,279.443,292.771,279.672,291.165,279.844z M567.458,148.705
			c-0.101,0-0.2,0-0.301,0c0,4.236-0.109,8.476,0.088,12.702c0.043,0.902,1.202,1.752,1.847,2.627
			c0.861-0.699,1.946-1.253,2.514-2.141c0.482-0.756,0.481-1.892,0.499-2.863c0.056-3.111-0.074-6.227,0.049-9.334
			c0.132-3.337,2.713-3.915,5.267-3.991c2.6-0.077,3.25,1.811,3.24,4.056c-0.014,3.21-0.192,6.436,0.086,9.623
			c0.133,1.536,1.146,2.996,1.762,4.49c1.039-1.247,2.886-2.44,2.973-3.75c0.319-4.824,0.393-9.723-0.097-14.526
			c-0.384-3.777-6.136-6.276-9.476-4.402c-2.515,1.412-3.413,0.56-3.554-1.965c-0.055-0.996,0.217-2.113-0.153-2.962
			c-0.546-1.254-1.53-2.318-2.329-3.463c-0.804,1.063-2.231,2.086-2.304,3.197C567.294,140.221,567.458,144.468,567.458,148.705z
			 M495.08,195.014c2.572,3.336,3.584,3.91,5.463,2.664c1.399-0.929,2.862-2.157,3.603-3.606c1.953-3.827,3.642-7.802,5.222-11.803
			c1.571-3.979,3.025-8.02,4.203-12.128c0.28-0.975-0.748-2.325-1.175-3.502c-1.415,0.602-3.086,0.921-4.158,1.898
			c-0.776,0.708-0.759,2.288-1.096,3.479c-0.437,1.549-0.752,3.149-1.365,4.625c-0.271,0.651-1.168,1.479-1.739,1.448
			c-0.591-0.032-1.426-0.914-1.639-1.587c-0.709-2.243-1.211-4.553-1.747-6.849c-0.591-2.536-2.492-3.648-4.656-3.035
			c-0.81,0.23-1.174,2.698-1.363,4.194c-0.114,0.897,0.435,1.913,0.8,2.831c1.817,4.563,3.622,9.132,5.536,13.655
			c1.067,2.525,0.163,3.9-2.16,4.99C497.441,192.929,496.316,194.086,495.08,195.014z M494.606,53.958
			c1.896,2.542,3.71,4.635,5.095,6.981c0.668,1.132,1.087,2.967,0.637,4.09c-0.946,2.364-2.262,4.718-3.954,6.602
			c-1.444,1.608-2.748,3.012-0.593,4.501c2.137,1.477,4.201,0.911,5.531-1.661c0.865-1.673,2.055-3.179,3.099-4.759
			c-0.193,0.493-0.386,0.985-0.578,1.478c2.029,1.44,3.972,3.033,6.123,4.261c1.157,0.661,2.673,0.695,4.026,1.011
			c-0.273-1.522-0.016-3.563-0.909-4.479c-4.325-4.428-4.687-8.167-0.946-12.935c1.203-1.533,2.042-3.351,3.048-5.039
			c-0.337-0.443-0.675-0.886-1.013-1.33c-1.755,0.653-3.675,1.046-5.218,2.029c-1.677,1.068-3.004,2.686-4.469,4.05
			C500.48,52.285,500.15,52.101,494.606,53.958z M561.572,178.022c-0.162,0.482-0.324,0.963-0.486,1.444
			c1.251,0.828,2.471,2.314,3.758,2.375c7.938,0.371,15.892,0.514,23.84,0.474c1.166-0.006,2.325-1.382,3.489-2.125
			c-1.146-0.68-2.274-1.913-3.44-1.951c-6.973-0.225-13.954-0.177-20.934-0.215C565.724,178.013,563.648,178.022,561.572,178.022z
			 M562.31,64.497c-0.033,0.399-0.065,0.796-0.099,1.194c2.78,0.693,5.535,1.828,8.347,1.991c6.572,0.379,13.173,0.377,19.76,0.303
			c0.991-0.011,1.969-1.238,2.952-1.903c-0.954-0.646-1.891-1.82-2.866-1.854c-8.353-0.287-16.712-0.396-25.071-0.473
			C564.327,63.747,563.317,64.238,562.31,64.497z M538.967,65.888c-2.865,0-5.739-0.11-8.593,0.075
			c-0.737,0.048-1.97,1.004-1.987,1.574c-0.025,0.826,0.649,1.994,1.379,2.45c1.11,0.692,2.515,1.214,3.811,1.254
			c4.53,0.14,9.083,0.233,13.595-0.098c1.126-0.083,2.131-1.822,3.191-2.8c-1.054-0.819-2.034-2.197-3.174-2.344
			C544.489,65.65,541.713,65.887,538.967,65.888z M548.677,182.418c-0.923-0.981-1.683-2.521-2.522-2.566
			c-5.69-0.304-11.397-0.353-17.099-0.297c-0.646,0.006-1.722,1.119-1.803,1.811c-0.082,0.717,0.791,2.216,1.269,2.225
			c6.255,0.12,12.513,0.046,18.77-0.026C547.575,183.561,547.854,183.115,548.677,182.418z M550.141,175.816
			c-1.685-1.009-2.444-1.841-3.247-1.885c-5.72-0.313-11.448-0.542-17.175-0.569c-0.707-0.004-1.42,1.343-2.131,2.065
			c0.733,0.525,1.451,1.48,2.201,1.507c5.365,0.188,10.736,0.247,16.104,0.196C546.995,177.12,548.09,176.475,550.141,175.816z
			 M528.188,60.625c-0.023,0.456-0.047,0.912-0.07,1.367c1.251,0.182,2.5,0.376,3.752,0.545c1.576,0.212,3.149,0.475,4.733,0.594
			c3.688,0.276,7.383,0.638,11.071,0.594c0.847-0.01,1.676-1.518,2.514-2.336c-0.173-0.43-0.346-0.86-0.519-1.291
			C542.51,60.341,535.311,58.957,528.188,60.625z M115.922,259.254c-1.121,1.452-2.356,2.397-2.206,2.999
			c0.276,1.111,1.364,2.021,2.113,3.014c0.803-0.749,2.266-1.513,2.251-2.246C118.059,261.97,116.959,260.939,115.922,259.254z
			 M115.442,272.578c0.553-0.036,1.105-0.071,1.659-0.107c-0.079-1.773-0.158-3.547-0.237-5.32c-0.859,0.113-2.049-0.094-2.52,0.394
			C112.208,269.757,114.123,271.133,115.442,272.578z M119.543,255.408c-1.785-1.003-2.788-2.029-3.564-1.88
			c-0.89,0.172-1.579,1.387-2.355,2.149c0.843,0.707,1.634,1.879,2.546,1.981C116.944,257.746,117.856,256.6,119.543,255.408z
			 M520.209,309.619c-1.291-1.176-2.198-2.002-3.104-2.828c-0.681,1.054-1.792,2.069-1.888,3.173
			c-0.062,0.705,1.417,2.19,2.138,2.149C518.212,312.064,518.996,310.754,520.209,309.619z M112.287,339.199
			c3.729,0.245,4.98-0.819,4.487-3.119c-0.148-0.689-1.5-1.122-2.299-1.671C113.829,335.825,113.182,337.241,112.287,339.199z
			 M519.783,296.106c0.386-0.639,0.771-1.275,1.158-1.914c-1.061-0.313-2.243-1.067-3.146-0.815
			c-0.899,0.249-1.901,1.419-2.118,2.357c-0.129,0.561,1.099,1.955,1.83,2.045C518.187,297.862,519.019,296.713,519.783,296.106z
			 M516.982,346.252c1.048-1.891,1.971-2.822,1.923-3.701c-0.038-0.707-1.446-2.015-1.902-1.88c-0.9,0.265-2.042,1.264-2.179,2.106
			C514.702,343.523,515.809,344.469,516.982,346.252z M113.277,345.967c0.446,0.104,0.893,0.206,1.338,0.309
			c0.705-1.294,1.64-2.535,1.956-3.919c0.081-0.352-1.801-1.151-3.294-2.058C113.277,342.793,113.277,344.38,113.277,345.967z
			 M516.462,271.64c0.719,0.088,1.437,0.175,2.156,0.263c0.287-1.576,0.574-3.151,0.861-4.729c-0.931-0.05-1.862-0.102-2.794-0.152
			C516.611,268.561,516.536,270.101,516.462,271.64z M88.317,246.92c-0.802,1.136-1.41,1.995-2.764,3.911
			c2.575-0.175,4.145-0.282,5.715-0.389c0.077-0.424,0.155-0.848,0.232-1.272C90.494,248.458,89.487,247.747,88.317,246.92z
			 M68.664,46.234c1.266,1.799,1.858,2.908,2.739,3.69c0.202,0.179,1.68-0.598,2.054-1.238c0.327-0.559-0.073-1.543-0.162-2.453
			C72.077,46.234,71.131,46.234,68.664,46.234z M115.46,306.8c-1.199,1.786-2.149,2.607-2.219,3.498
			c-0.053,0.677,1.01,1.442,1.577,2.168c0.734-0.693,1.831-1.277,2.086-2.116C117.108,309.68,116.286,308.698,115.46,306.8z
			 M516.359,264.53c0.749,0.129,1.498,0.257,2.247,0.386c0.291-1.38,0.652-2.753,0.752-4.146c0.009-0.125-1.677-0.371-2.576-0.562
			C516.642,261.648,516.501,263.09,516.359,264.53z M114.82,306.611c1.225-1.603,2.31-2.411,2.216-3.048
			c-0.131-0.896-1.135-1.665-1.766-2.488c-0.721,0.624-1.931,1.176-2.036,1.891C113.112,303.796,113.958,304.769,114.82,306.611z
			 M517.79,299.712c-1.187,1.249-2.528,2.091-2.426,2.684c0.162,0.938,1.29,1.71,2.01,2.553c0.706-0.701,1.85-1.325,1.99-2.126
			C519.497,302.074,518.564,301.14,517.79,299.712z M33.805,246.457c-0.318,0.298-0.635,0.597-0.953,0.895
			c0.095,1.13,0.189,2.26,0.284,3.39c0.375,0.185,0.75,0.369,1.125,0.554c0.811-1.027,1.622-2.054,2.432-3.081
			C35.73,247.628,34.768,247.043,33.805,246.457z M44.375,248.708c-0.196-0.597-0.391-1.194-0.586-1.79
			c-1.193,0.189-2.386,0.379-3.58,0.569c0.207,1.095,0.414,2.189,0.62,3.285C42.011,250.084,43.193,249.396,44.375,248.708z
			 M65.862,249.072c0.173,0.549,0.346,1.098,0.519,1.646c1.15-0.199,2.456-0.149,3.371-0.725c0.349-0.219-0.201-1.868-0.342-2.866
			C68.227,247.775,67.044,248.424,65.862,249.072z M118.086,276.12c-1.27-0.993-2.113-2.115-2.688-1.99
			c-0.774,0.167-1.867,1.305-1.854,2.005c0.016,0.737,1.083,1.856,1.868,2.036C115.97,278.299,116.82,277.144,118.086,276.12z
			 M520.738,289.443c-1.484-1.041-2.474-2.23-3.116-2.065c-0.913,0.233-1.57,1.464-2.337,2.268c0.746,0.509,1.496,1.425,2.237,1.419
			C518.389,291.056,519.249,290.243,520.738,289.443z M55.212,245.862c-0.971,1.525-1.803,2.282-1.834,3.071
			c-0.022,0.55,1.055,1.143,1.64,1.717c0.647-0.676,1.589-1.261,1.832-2.06C57.002,248.091,56.103,247.271,55.212,245.862z
			 M97.124,248.511c-0.52-0.483-1.041-0.966-1.561-1.449c-0.851,0.836-1.702,1.672-2.553,2.509c0.666,0.514,1.759,1.578,1.924,1.45
			C95.793,250.351,96.418,249.378,97.124,248.511z M105.243,250.178c-1.201-1.292-1.812-2.456-2.369-2.431
			c-0.849,0.038-1.662,0.899-2.49,1.411c0.464,0.686,0.832,1.822,1.416,1.946C102.602,251.274,103.567,250.68,105.243,250.178z
			 M77.219,45.765c-0.418,0.328-0.837,0.656-1.256,0.984c0.552,1.081,1.104,2.162,1.656,3.243c0.805-0.679,1.61-1.358,2.415-2.037
			C79.096,47.225,78.158,46.495,77.219,45.765z M118.005,296.325c-1.43-1.063-2.332-2.202-2.939-2.063
			c-0.75,0.173-1.255,1.409-1.867,2.186c0.71,0.514,1.384,1.355,2.142,1.439C115.973,297.957,116.701,297.136,118.005,296.325z
			 M111.618,51.355c0.876-1.628,1.654-2.444,1.63-3.235c-0.018-0.612-1.284-1.795-1.567-1.68c-0.834,0.343-1.872,1.119-2.029,1.889
			C109.524,48.952,110.558,49.813,111.618,51.355z M118.104,323.428c-1.45-0.938-2.233-1.833-2.773-1.703
			c-0.826,0.197-1.484,1.101-2.214,1.704c0.632,0.663,1.213,1.784,1.911,1.862C115.737,325.37,116.561,324.422,118.104,323.428z
			 M115.198,332.767c0.927-1.587,1.882-2.504,1.728-3.155c-0.161-0.675-1.368-1.425-2.177-1.501
			c-0.491-0.046-1.564,1.148-1.532,1.741C113.256,330.604,114.149,331.313,115.198,332.767z M517.387,332.49
			c0.749-1.424,1.565-2.271,1.453-2.968c-0.104-0.638-1.227-1.563-1.87-1.539c-0.688,0.024-1.992,1.232-1.889,1.536
			C515.387,330.417,516.255,331.124,517.387,332.49z M93.428,47.052c-0.474-0.399-0.949-0.798-1.423-1.198
			c-0.935,0.835-1.87,1.67-2.804,2.506c0.714,0.587,1.428,1.174,2.142,1.76C92.038,49.098,92.733,48.075,93.428,47.052z
			 M514.889,348.375c-0.159,0.348-0.319,0.694-0.479,1.041c0.844,0.683,1.695,1.898,2.529,1.887
			c0.735-0.011,1.452-1.392,2.885-2.928C517.435,348.375,516.161,348.375,514.889,348.375z"/>
		<path fill-rule="evenodd" clip-rule="evenodd" d="M116.11,142.418c-0.259-0.633-1.231-1.908-1.237-3.188
			c-0.05-10.746-0.083-21.497,0.188-32.237c0.468-18.549,1.158-37.092,1.757-55.638c0.161-4.998,0.883-5.684,5.57-3.718
			c4.484,1.881,8.686,4.431,13.021,6.667c0.756,0.389,1.577,0.65,2.344,1.019c7.437,3.583,15.302,6.518,22.154,10.999
			c4.623,3.023,9.462,5.191,14.313,7.594c6.984,3.458,13.674,7.503,20.602,11.081c5.329,2.752,10.916,5.005,16.23,7.784
			c4.868,2.546,9.52,5.503,14.272,8.27c0.848,0.494,1.699,0.989,2.585,1.406c8.51,4.012,17.173,7.73,25.503,12.084
			c8.46,4.423,16.499,9.648,24.907,14.177c5.385,2.901,11.105,5.174,16.673,7.737c0.768,0.353,1.586,0.654,2.259,1.146
			c5.969,4.36,12.613,7.352,19.348,10.343c7.205,3.2,13.955,7.417,20.932,11.135c4.632,2.468,9.43,4.644,13.939,7.31
			c4.234,2.504,9.64,2.843,12.9,7.235c0.748,1.01,2.635,1.135,3.945,1.775c7.502,3.661,15.005,7.322,22.475,11.048
			c5.113,2.552,10.177,5.202,15.256,7.823c4.062,2.095,8.11,4.21,12.166,6.315c5.886,3.055,11.787,6.078,17.653,9.17
			c7.609,4.01,15.18,8.095,22.791,12.102c2.702,1.424,5.498,2.668,8.21,4.071c5.842,3.021,11.708,5.995,17.468,9.166
			c6.739,3.708,13.304,7.736,20.08,11.373c4.112,2.208,8.552,3.803,12.691,5.965c1.14,0.596,1.73,2.243,2.574,3.408
			c-1.134,0.602-2.271,1.731-3.402,1.725c-19.104-0.119-38.207-0.417-57.312-0.601c-41.707-0.401-83.413-0.785-125.12-1.121
			c-14.355-0.115-28.715,0.077-43.067-0.164c-6.717-0.112-13.456-1.6-20.125-1.271c-13.175,0.653-26.259-0.804-39.403-0.832
			c-29.201-0.065-58.4-0.919-87.602-1.281c-8.965-0.111-17.937,0.311-26.905,0.536c-2.759,0.07-3.77-1.27-3.741-3.898
			c0.151-13.994,0.153-27.99,0.383-41.982c0.32-19.44,0.763-38.88,1.262-58.317C114.698,146.739,115.513,144.864,116.11,142.418z
			 M157.633,157.226c2.476-1.102,4.952-2.203,7.428-3.304c-0.097-0.4-0.192-0.799-0.289-1.198
			c-3.589,0.718-7.177,1.437-10.765,2.156c0.037,0.711,0.072,1.422,0.109,2.134c1.171,0.09,2.343,0.18,3.515,0.27
			c0.29,1.162,0.58,2.324,0.87,3.485c1.067-0.4,2.134-0.799,3.202-1.199c-0.031-0.546-0.061-1.092-0.091-1.638
			C160.284,157.696,158.958,157.461,157.633,157.226z M321.027,158.471c0,7.353,0.021,14.435-0.004,21.517
			c-0.071,20.972-0.095,41.945-0.282,62.917c-0.062,6.775,0.1,7.303,6.841,7.43c15.108,0.287,30.219,0.451,45.328,0.645
			c38.831,0.495,77.661,0.984,116.491,1.46c4.565,0.056,9.132,0.008,13.697,0.008c-4.206-3.52-8.546-6.223-13-8.723
			c-4.497-2.524-9.108-4.846-13.668-7.259c-2.701-1.43-5.362-2.941-8.107-4.283c-4.811-2.352-9.779-4.4-14.488-6.937
			c-8.7-4.687-17.218-9.714-25.898-14.438c-4.396-2.392-9.021-4.357-13.472-6.654c-4.646-2.396-9.149-5.07-13.816-7.422
			c-6.977-3.517-14.036-6.871-21.074-10.265c-1.542-0.742-3.22-1.226-4.703-2.062c-2.616-1.477-5.036-3.318-7.706-4.678
			c-7.374-3.755-14.856-7.297-22.255-11.005c-6.914-3.465-13.755-7.074-20.689-10.497
			C323.497,157.866,322.36,158.345,321.027,158.471z M302.5,148.231c0.038-0.31,0.076-0.619,0.114-0.929
			c-6.886-3.727-13.781-7.441-20.657-11.188c-3.513-1.914-6.972-3.928-10.5-5.814c-1.593-0.852-3.351-1.399-4.936-2.265
			c-3.538-1.933-6.938-4.128-10.53-5.948c-6.327-3.207-12.792-6.141-19.131-9.325c-6.246-3.137-12.404-6.449-18.613-9.662
			c-1.184-0.614-2.48-1.026-3.627-1.698c-3.005-1.758-5.889-3.733-8.948-5.384c-2.765-1.491-5.786-2.51-8.539-4.02
			c-5.529-3.03-10.874-6.404-16.45-9.339c-3.44-1.809-7.267-2.875-10.744-4.626c-4.632-2.332-9.054-5.081-13.642-7.508
			c-4.066-2.152-8.231-4.12-12.365-6.143c-0.554-0.271-1.224-0.311-1.765-0.6c-6.514-3.478-13.015-6.98-20.371-10.935
			c0,2.021,0.05,3.285-0.016,4.542c-0.051,0.962-0.269,1.914-0.375,2.875c-0.171,1.571-0.393,3.141-0.444,4.716
			c-0.059,1.837,0.167,3.688,0.038,5.517c-0.129,1.841-0.618,3.654-0.813,5.493c-0.658,6.202,0.742,12.314,0.338,18.625
			c-0.901,14.06-0.41,28.208-0.48,42.319c-0.015,2.928-0.002,5.857-0.002,9.034C181.254,146.728,241.877,147.48,302.5,148.231z
			 M139.063,239.689c1.132,2.445,2.209,4.773,3.646,7.879c0.948-1.843,1.447-2.813,2.001-3.894c2.43,2.963,5.448,3.836,8.945,2.872
			c1.42-0.391,2.754-1.097,4.128-1.659c-1.458-0.109-2.915-0.219-4.567-0.343c0.321-0.793,0.708-1.749,1.094-2.706
			c-0.167-0.122-0.335-0.243-0.502-0.366c-0.743,0.589-1.486,1.177-2.741,2.17c-0.536-2.325-0.96-4.165-1.377-5.979
			C147.094,242.492,143.027,239.109,139.063,239.689z M296.324,193.523c2.924-1.104,5.612-2.118,8.275-3.124
			c-2.839-4.259-10.674-2.963-9.746-10.667c-1.098,1.033-2.211,2.479-1.856,3.182c1.238,2.447,0.088,3.543-1.759,4.669
			c-0.466,0.283-0.641,1.045-0.949,1.587c0.559,0.312,1.113,0.88,1.678,0.891C294.591,190.109,296.085,191.301,296.324,193.523z
			 M286.956,242.154c-3.541-2.18-7.013-1.416-8.078,2.344c-0.305,1.076,1.863,2.854,3.153,4.668
			C284.089,246.235,285.521,244.197,286.956,242.154z M163.785,206.308c1.583,0.314,2.514,0.695,3.416,0.634
			c1.603-0.108,3.188-0.484,4.78-0.748c-0.791-0.93-1.585-1.858-2.373-2.791c-0.433-0.515-0.855-1.039-1.408-1.711
			C166.676,203.284,165.363,204.658,163.785,206.308z M130.087,231.248c-1.994-3.858-1.994-3.858-5.313,0.462
			c2.491,0.485,4.917,0.96,7.48,1.459c0-1.463,0-3.495,0-6.354C131.358,228.65,130.868,229.651,130.087,231.248z M200.541,240.142
			c1.279,2.253,2.435,4.291,4.003,7.056c1.519-1.632,3.043-3.27,4.68-5.029C206.29,241.483,203.612,240.858,200.541,240.142z
			 M120.356,244.828c1.733,0.443,3.238,0.828,4.732,1.209c1.219-2.539-1.081-5.784-4.732-6.35
			C120.356,241.404,120.356,243.088,120.356,244.828z M189.053,212.763c-1.56-1.014-3.008-2.094-4.607-2.861
			c-0.282-0.135-1.816,1.357-1.714,1.557c0.883,1.725,2.008,3.324,3.223,5.212C187.118,215.203,187.852,214.278,189.053,212.763z
			 M129.995,238.709c-0.396,0.274-0.792,0.547-1.188,0.82c1.528,1.868,3.056,3.736,4.96,6.063c1.311-1.109,2.263-1.914,3.866-3.271
			C134.305,240.748,132.15,239.729,129.995,238.709z M171.348,240.654c-1.074-0.677-1.465-0.979-1.903-1.187
			c-0.895-0.425-1.813-0.799-2.722-1.193c0.022,1.09-0.277,2.324,0.134,3.238c0.823,1.827,2.036,3.48,3.088,5.206
			c0.381-0.176,0.762-0.352,1.143-0.527c-0.533-1.374-1.067-2.749-1.9-4.896C169.399,241.233,170.254,240.979,171.348,240.654z
			 M153.908,209.529c0.561,1.084,1.693,2.277,1.576,3.33c-0.115,1.024-1.513,1.904-2.582,3.113c1.821,0.72,3.225,1.273,4.033,1.593
			c0.321-1.492,0.453-2.762,0.874-3.926C158.677,211.234,156.847,209.327,153.908,209.529z M224.257,246.943
			c0.252-0.365,0.504-0.731,0.756-1.098c-2.059-1.756-4.118-3.512-7.021-5.988c0.18,2.84,0.302,4.748,0.422,6.632
			c1.252-0.414,2.196-1.033,3.049-0.926C222.437,245.686,223.329,246.455,224.257,246.943z M314.871,178.04
			c-2.112,0.244-3.588,0.415-5.063,0.585c0.75,1.7,1.5,3.4,2.25,5.099c0.406-0.123,0.813-0.247,1.221-0.371
			C313.717,181.893,314.154,180.431,314.871,178.04z M189.19,204.857c-0.31-0.209-0.619-0.417-0.928-0.626
			c-0.813,0.33-1.627,0.661-2.905,1.181c0.589-1.394,0.951-2.251,1.333-3.158c-1.573,0.384-2.844,0.692-4.146,1.01
			c0.631,2.306,1.734,4.405,4.783,3.765C188.067,206.873,188.575,205.61,189.19,204.857z M189.708,231.108c-2.941,0-4.716,0-6.49,0
			c-0.173,0.337-0.346,0.674-0.519,1.011c1.483,0.847,2.901,1.926,4.496,2.376C187.594,234.607,188.565,232.694,189.708,231.108z
			 M128.448,195.155c2.1,1.394,4.074,2.91,6.353,0.138C132.713,193.916,130.83,190.436,128.448,195.155z M193.583,229.622
			c1.122,0.854,1.753,1.336,2.293,1.748c-0.599,0.763-1.192,1.458-1.672,2.223c-0.045,0.072,0.842,0.905,0.921,0.851
			c0.746-0.522,1.496-1.091,2.078-1.785c0.886-1.057,1.64-2.226,2.226-3.036C198.189,229.622,196.271,229.622,193.583,229.622z
			 M314.875,163.568c-3.346-3.571-4.54-3.497-7.823,0C309.67,163.568,311.827,163.568,314.875,163.568z M284.108,235.673
			c1.16-0.73,2.264-1.426,3.622-2.282c-1.474-0.912-2.667-1.65-4.067-2.517c-0.804,0.671-1.687,1.407-2.407,2.009
			c0.149,0.587,0.14,0.756,0.216,0.814C282.326,234.353,283.193,234.991,284.108,235.673z M308.565,241.427
			c3.178,6.5,3.178,6.5,4.524,6.636c-0.239-1.871-0.495-3.876-0.812-6.35C311.602,241.661,310.229,241.555,308.565,241.427z
			 M194.842,172.805c2.07-2.728,2.873-4.507,0.355-6.656C191.794,167.984,194.295,169.938,194.842,172.805z M157.647,240.756
			c0.973-1.369,1.797-2.526,2.621-3.685c-1.546-0.874-3.093-1.749-4.856-2.746C156.237,236.7,156.819,238.376,157.647,240.756z
			 M158.595,199.313c1.601-1.883,2.477-2.912,3.352-3.942c-0.41,0.339-0.819,0.678-1.229,1.015
			c-0.353-1.407-0.705-2.814-1.058-4.222c-0.355,0.22-0.711,0.441-1.066,0.662C158.595,194.612,158.595,196.398,158.595,199.313z
			 M171.01,174.457c0.35-0.281,0.7-0.561,1.05-0.841c-1.011-1.319-1.976-2.68-3.085-3.911c-0.156-0.174-1.014,0.285-1.548,0.451
			c0.777,1.251,1.511,2.534,2.36,3.734C170.012,174.208,170.592,174.274,171.01,174.457z M287.16,209.854
			c0.75-0.369,1.77-0.873,3.249-1.603c-1.863-1.187-3.232-2.059-4.602-2.93c-0.166,0.283-0.331,0.567-0.496,0.852
			C285.851,207.249,286.391,208.324,287.16,209.854z"/>
		<path fill-rule="evenodd" clip-rule="evenodd" d="M142.995,318.994c2.607,3.315,4.723,6.006,6.837,8.696
			c-0.307,0.352-0.614,0.702-0.921,1.054c-1.415-0.239-2.872-0.333-4.235-0.742c-7.611-2.29-15.213-4.614-22.788-7.021
			c-2.606-0.828-5.153-1.868-7.665-2.958c-0.522-0.228-1.207-1.377-1.052-1.626c0.46-0.742,1.229-1.617,2.009-1.772
			c2.168-0.431,4.425-0.4,6.609-0.773c6.838-1.166,13.093-3.981,19.377-6.791c2.416-1.08,5.235-1.26,7.871-1.849
			c0.324,0.263,0.648,0.524,0.972,0.787c-1.574,2.732-3.147,5.466-5.002,8.688c1.574,0.108,3.086,0.291,4.601,0.306
			c31.481,0.297,62.965,0.454,94.444,0.905c16.314,0.232,32.618,1.103,48.931,1.453c12.854,0.276,25.718,0.113,38.575,0.3
			c14.98,0.217,29.958,0.627,44.938,0.906c10.1,0.188,20.202,0.285,30.303,0.436c10.337,0.153,20.729-0.275,30.987,0.71
			c6.063,0.584,11.937-0.53,17.914-0.103c9.283,0.665,18.594,0.982,27.893,1.419c1.569,0.073,3.145,0.011,4.718,0.011
			c0.226-0.403,0.451-0.806,0.677-1.207c-2.291-2.236-4.582-4.473-7.479-7.301c1.434-0.22,2.659-0.78,3.645-0.498
			c5.431,1.558,10.786,3.376,16.199,4.997c5.043,1.512,10.147,2.821,15.174,4.385c0.902,0.281,1.553,1.365,2.32,2.078
			c-0.886,0.59-1.694,1.442-2.67,1.728c-5.156,1.511-10.354,2.887-15.541,4.293c-2.626,0.712-5.282,1.317-7.885,2.104
			c-2.809,0.85-5.543,1.954-8.37,2.725c-0.73,0.199-1.688-0.438-2.541-0.691c0.5-0.68,0.946-1.409,1.513-2.03
			c1.698-1.865,3.444-3.687,5.968-6.375c-2.802-0.236-4.664-0.525-6.528-0.529c-9.863-0.019-19.73,0.217-29.59,0.028
			c-33.083-0.634-66.161-1.565-99.245-2.091c-37.459-0.596-74.922-0.879-112.384-1.293c-10.117-0.111-20.239-0.035-30.35-0.338
			c-18.661-0.56-37.315-1.355-55.973-2.003C151.667,318.888,148.077,318.994,142.995,318.994z"/>
		<path fill-rule="evenodd" clip-rule="evenodd" d="M47.407,220.471c0.684-48.399,1.351-95.642,2.019-142.885
			c-0.313-0.288-0.627-0.576-0.94-0.864c-1.356,1.035-2.892,1.906-4.022,3.146c-1.401,1.539-2.365,3.66-4.822,1.969
			c1.881-5.938,3.747-11.704,5.531-17.494c1.786-5.796,3.489-11.616,5.393-17.972c0.183-0.009,1.226-0.057,1.774-0.082
			c2.184,7.517,4.068,14.724,6.411,21.779c1.275,3.842,3.395,7.398,4.979,11.147c0.387,0.916,0.171,2.086,0.231,3.14
			c-1.031-0.083-2.246,0.149-3.051-0.321c-1.32-0.771-2.315-2.075-3.557-3.009c-1.001-0.752-2.164-1.289-3.754-2.211
			c-0.728,47.5-1.444,94.216-2.179,142.177c3.41-2.522,5.917-4.376,8.423-6.23c0.401,0.22,0.803,0.439,1.205,0.659
			c-3.955,12.324-7.909,24.648-11.908,37.111c-2.582,0.524-3.295-0.627-3.377-3.177c-0.233-7.199-1.506-14.161-4.861-20.702
			c-1.767-3.445-2.993-7.189-4.203-10.884c-0.32-0.978,0.326-2.271,0.529-3.421c0.932,0.459,2.002,0.755,2.771,1.406
			C42.224,215.636,44.331,217.659,47.407,220.471z"/>
		<path fill-rule="evenodd" clip-rule="evenodd" d="M577.608,104.534c2.593,0,5.229-0.277,7.76,0.118
			c1.254,0.196,2.315,1.628,3.465,2.502c-1.004,1.246-1.914,3.465-3.026,3.571c-5.178,0.493-10.427,0.679-15.621,0.415
			c-3.049-0.155-4.151-3.872-1.912-6.76c2.271-2.93,5.092-5.439,7.717-8.088c1.391-1.403,2.963-2.631,4.299-4.081
			c2.289-2.486,2.413-6.1-0.097-8.274c-0.826-0.716-2.936-0.303-4.305,0.106c-0.713,0.213-0.907,1.926-1.659,2.286
			c-1.579,0.756-3.355,1.165-5.094,1.456c-0.266,0.044-1.263-1.527-1.066-1.982c0.768-1.771,1.48-3.992,2.937-4.958
			c4.401-2.922,9.1-3.744,13.805-0.203c3.471,2.612,4.72,9.212,1.927,12.594c-2.195,2.658-4.828,4.954-7.229,7.447
			c-0.827,0.858-1.543,1.823-2.31,2.74C577.334,103.793,577.472,104.164,577.608,104.534z"/>
		<path fill-rule="evenodd" clip-rule="evenodd" d="M24.227,141.924c1.715-0.297,4.221-1.563,5.688-0.808
			c2.881,1.483,0.856,4.076,0.101,6.226c-0.92,2.619-1.79,5.255-2.209,8.304c3.654-1.9,6.696-4.954,11.298-2.06
			c0.845,3.527,0.525,7.277-1.623,10.926c-0.561,0.952-0.945,2.866-0.42,3.453c2.28,2.549-0.35,3.841-1.33,5.187
			c-0.646,0.89-2.539,1.153-3.85,1.104c-0.386-0.016-1.106-2.121-0.957-3.166c0.402-2.798,1.261-5.528,1.803-8.311
			c0.296-1.523,0.318-3.101,0.562-5.704c-5.125,3.95-9.511,7.054-10.829,12.826c-0.194,0.85-0.076,2.01-0.597,2.491
			c-0.879,0.812-2.153,1.196-3.261,1.761c-0.474-0.994-1.455-2.061-1.323-2.967c0.354-2.43,0.856-4.944,1.886-7.151
			C22.343,157.228,24.02,150.136,24.227,141.924z"/>
		<path fill-rule="evenodd" clip-rule="evenodd" d="M573.366,28.201c2.966,0,5.784-0.162,8.575,0.042
			c3.18,0.233,5.104,2.16,5.976,5.216c1.702,5.978,1.363,11.504-3.663,15.866c-0.859,0.746-2.222,1.257-3.36,1.272
			c-3.773,0.05-7.558-0.089-11.317-0.398c-0.5-0.042-1.258-1.486-1.266-2.288c-0.081-8.345-0.056-16.692,0.011-25.038
			c0.008-0.964,0.263-2.034,0.746-2.852c0.355-0.602,1.246-1.138,1.943-1.201c0.447-0.04,1.325,0.774,1.411,1.302
			C572.833,22.651,573.04,25.213,573.366,28.201z M580.879,32.154c-0.145-0.419-0.29-0.839-0.435-1.258
			c-1.69,0.764-3.802,1.129-4.983,2.375c-2.549,2.689-3.512,6.066-1.31,9.488c1.137,1.768,2.084,4.227,5.072,3.462
			c2.93-0.75,5.258-6.24,3.884-9.028C582.296,35.547,581.617,33.836,580.879,32.154z"/>
		<path fill-rule="evenodd" clip-rule="evenodd" d="M573.959,217.893c3.1,0,5.026-0.029,6.952,0.01
			c1.244,0.025,2.72-0.239,3.668,0.33c1.136,0.684,1.821,2.115,2.702,3.224c-1.068,0.652-2.117,1.833-3.205,1.869
			c-5.109,0.169-10.229,0.04-15.343-0.014c-2.538-0.027-3.186-0.955-2.243-3.554c1.628-4.485,4.709-7.606,8.497-10.125
			c2.869-1.907,5.708-3.77,5.4-7.715c-0.135-1.736-0.441-4.498-1.42-4.882c-1.408-0.553-3.593,0.432-5.266,1.17
			c-0.897,0.396-1.271,1.876-2.152,2.444c-0.83,0.536-2.189,0.943-2.997,0.615c-0.745-0.302-1.716-1.984-1.461-2.48
			c1.026-1.998,2.185-4.131,3.858-5.549c2.963-2.512,11.816-0.773,13.94,2.398c2.741,4.092,1.42,10.496-2.362,13.608
			C579.725,211.55,577.372,214.403,573.959,217.893z"/>
		<path fill-rule="evenodd" clip-rule="evenodd" d="M291.165,279.844c1.607-0.172,3.751-0.4,6.744-0.72
			c-0.783,4.372-1.451,8.101-2.149,11.993c9.475-1.105,11.991,2.45,9.967,10.945c-1.969,8.267-7.194,12.164-15.66,11.271
			c-4.933-0.52-6.91-4.139-4.906-8.589c1.405-3.118,2.46-6.393,3.694-9.589c0.956-2.474,2.35-4.864,2.799-7.424
			C292.051,285.475,291.411,283.035,291.165,279.844z M290.98,311.985c0.965-0.56,1.656-1.054,2.417-1.386
			c4.634-2.02,7.506-5.378,7.631-10.551c0.032-1.301-0.637-3.563-1.381-3.744c-1.64-0.398-3.933-0.328-5.247,0.58
			C290.977,299.252,289.25,307.474,290.98,311.985z"/>
		<path fill-rule="evenodd" clip-rule="evenodd" d="M567.458,148.705c0-4.237-0.164-8.484,0.11-12.703
			c0.072-1.111,1.5-2.134,2.304-3.197c0.799,1.145,1.783,2.209,2.329,3.463c0.37,0.849,0.099,1.966,0.153,2.962
			c0.141,2.525,1.039,3.377,3.554,1.965c3.34-1.875,9.092,0.625,9.476,4.402c0.489,4.804,0.416,9.702,0.097,14.526
			c-0.087,1.31-1.934,2.503-2.973,3.75c-0.615-1.495-1.629-2.955-1.762-4.49c-0.278-3.187-0.1-6.413-0.086-9.623
			c0.01-2.245-0.641-4.133-3.24-4.056c-2.554,0.076-5.135,0.653-5.267,3.991c-0.123,3.107,0.007,6.223-0.049,9.334
			c-0.018,0.971-0.017,2.107-0.499,2.863c-0.567,0.887-1.652,1.442-2.514,2.141c-0.645-0.875-1.804-1.725-1.847-2.627
			c-0.197-4.226-0.088-8.466-0.088-12.702C567.258,148.705,567.357,148.705,567.458,148.705z"/>
		<path fill-rule="evenodd" clip-rule="evenodd" d="M495.08,195.014c1.236-0.928,2.361-2.085,3.728-2.727
			c2.323-1.09,3.228-2.465,2.16-4.99c-1.914-4.522-3.719-9.092-5.536-13.655c-0.365-0.917-0.914-1.933-0.8-2.831
			c0.189-1.496,0.554-3.964,1.363-4.194c2.164-0.614,4.065,0.499,4.656,3.035c0.536,2.295,1.038,4.605,1.747,6.849
			c0.213,0.673,1.048,1.556,1.639,1.587c0.571,0.031,1.469-0.797,1.739-1.448c0.613-1.476,0.929-3.076,1.365-4.625
			c0.337-1.191,0.319-2.771,1.096-3.479c1.072-0.977,2.743-1.296,4.158-1.898c0.427,1.177,1.455,2.527,1.175,3.502
			c-1.178,4.108-2.632,8.148-4.203,12.128c-1.58,4.001-3.269,7.976-5.222,11.803c-0.74,1.449-2.203,2.678-3.603,3.606
			C498.664,198.924,497.652,198.35,495.08,195.014z"/>
		<path fill-rule="evenodd" clip-rule="evenodd" d="M494.606,53.958c5.544-1.858,5.874-1.673,9.879,4.801
			c1.465-1.364,2.792-2.981,4.469-4.05c1.543-0.983,3.463-1.376,5.218-2.029c0.338,0.444,0.676,0.887,1.013,1.33
			c-1.006,1.688-1.845,3.506-3.048,5.039c-3.74,4.768-3.379,8.507,0.946,12.935c0.894,0.916,0.636,2.957,0.909,4.479
			c-1.354-0.316-2.869-0.351-4.026-1.011c-2.151-1.228-4.094-2.82-6.123-4.261c0.192-0.493,0.385-0.985,0.578-1.478
			c-1.044,1.58-2.233,3.085-3.099,4.759c-1.33,2.572-3.395,3.137-5.531,1.661c-2.155-1.489-0.852-2.893,0.593-4.501
			c1.692-1.884,3.008-4.238,3.954-6.602c0.45-1.123,0.031-2.958-0.637-4.09C498.316,58.593,496.502,56.501,494.606,53.958z"/>
		<path fill-rule="evenodd" clip-rule="evenodd" d="M561.572,178.022c2.076,0,4.151-0.01,6.227,0.002
			c6.979,0.038,13.961-0.01,20.934,0.215c1.166,0.038,2.294,1.271,3.44,1.951c-1.164,0.743-2.323,2.119-3.489,2.125
			c-7.948,0.04-15.901-0.103-23.84-0.474c-1.287-0.061-2.507-1.547-3.758-2.375C561.248,178.986,561.41,178.504,561.572,178.022z"/>
		<path fill-rule="evenodd" clip-rule="evenodd" d="M562.31,64.497c1.008-0.259,2.018-0.75,3.022-0.741
			c8.359,0.078,16.719,0.186,25.071,0.473c0.976,0.034,1.912,1.208,2.866,1.854c-0.983,0.665-1.961,1.892-2.952,1.903
			c-6.587,0.074-13.188,0.076-19.76-0.303c-2.812-0.163-5.566-1.298-8.347-1.991C562.244,65.293,562.276,64.896,562.31,64.497z"/>
		<path fill-rule="evenodd" clip-rule="evenodd" d="M538.968,65.887c2.745,0,5.521-0.236,8.221,0.111
			c1.14,0.147,2.12,1.525,3.174,2.344c-1.061,0.978-2.065,2.718-3.191,2.8c-4.512,0.331-9.064,0.238-13.595,0.098
			c-1.296-0.04-2.7-0.563-3.811-1.254c-0.729-0.456-1.404-1.624-1.379-2.45c0.018-0.57,1.25-1.526,1.987-1.574
			C533.228,65.778,536.102,65.888,538.968,65.887z"/>
		<path fill-rule="evenodd" clip-rule="evenodd" d="M548.677,182.418c-0.823,0.697-1.102,1.143-1.386,1.146
			c-6.257,0.072-12.515,0.146-18.77,0.026c-0.478-0.009-1.351-1.508-1.269-2.225c0.081-0.691,1.156-1.805,1.803-1.811
			c5.701-0.056,11.408-0.006,17.099,0.297C546.994,179.897,547.754,181.437,548.677,182.418z"/>
		<path fill-rule="evenodd" clip-rule="evenodd" d="M550.141,175.816c-2.051,0.659-3.146,1.304-4.247,1.314
			c-5.368,0.05-10.739-0.009-16.104-0.196c-0.75-0.026-1.468-0.982-2.201-1.507c0.711-0.722,1.424-2.069,2.131-2.065
			c5.727,0.027,11.455,0.256,17.175,0.569C547.696,173.975,548.456,174.807,550.141,175.816z"/>
		<path fill-rule="evenodd" clip-rule="evenodd" d="M528.188,60.625c7.123-1.668,14.322-0.284,21.481-0.526
			c0.173,0.431,0.346,0.86,0.519,1.291c-0.838,0.818-1.667,2.326-2.514,2.336c-3.688,0.044-7.383-0.318-11.071-0.594
			c-1.584-0.119-3.157-0.381-4.733-0.594c-1.252-0.169-2.501-0.363-3.752-0.545C528.141,61.537,528.164,61.081,528.188,60.625z"/>
		<path fill-rule="evenodd" clip-rule="evenodd" d="M115.922,259.254c1.037,1.686,2.137,2.716,2.158,3.767
			c0.015,0.733-1.448,1.497-2.251,2.246c-0.75-0.993-1.837-1.902-2.113-3.014C113.566,261.651,114.801,260.706,115.922,259.254z"/>
		<path fill-rule="evenodd" clip-rule="evenodd" d="M115.442,272.578c-1.319-1.445-3.234-2.821-1.099-5.034
			c0.471-0.487,1.661-0.28,2.52-0.394c0.079,1.773,0.158,3.547,0.237,5.32C116.547,272.507,115.995,272.542,115.442,272.578z"/>
		<path fill-rule="evenodd" clip-rule="evenodd" d="M119.543,255.408c-1.687,1.191-2.599,2.338-3.373,2.251
			c-0.912-0.103-1.703-1.274-2.546-1.981c0.776-0.763,1.465-1.978,2.355-2.149C116.755,253.379,117.758,254.405,119.543,255.408z"/>
		<path fill-rule="evenodd" clip-rule="evenodd" d="M520.209,309.619c-1.213,1.135-1.997,2.445-2.854,2.494
			c-0.721,0.041-2.199-1.444-2.138-2.149c0.096-1.104,1.207-2.119,1.888-3.173C518.011,307.617,518.918,308.443,520.209,309.619z"/>
		<path fill-rule="evenodd" clip-rule="evenodd" d="M112.287,339.199c0.895-1.958,1.542-3.374,2.188-4.79
			c0.8,0.549,2.151,0.981,2.299,1.671C117.268,338.38,116.017,339.444,112.287,339.199z"/>
		<path fill-rule="evenodd" clip-rule="evenodd" d="M519.783,296.106c-0.765,0.606-1.597,1.756-2.276,1.673
			c-0.731-0.09-1.959-1.484-1.83-2.045c0.217-0.938,1.219-2.108,2.118-2.357c0.903-0.252,2.086,0.502,3.146,0.815
			C520.555,294.831,520.169,295.468,519.783,296.106z"/>
		<path fill-rule="evenodd" clip-rule="evenodd" d="M516.982,346.252c-1.174-1.783-2.28-2.729-2.158-3.475
			c0.137-0.843,1.278-1.842,2.179-2.106c0.456-0.135,1.864,1.173,1.902,1.88C518.953,343.43,518.03,344.361,516.982,346.252z"/>
		<path fill-rule="evenodd" clip-rule="evenodd" d="M113.277,345.967c0-1.587,0-3.174,0-5.668c1.494,0.906,3.375,1.706,3.294,2.058
			c-0.316,1.384-1.251,2.625-1.956,3.919C114.17,346.173,113.724,346.07,113.277,345.967z"/>
		<path fill-rule="evenodd" clip-rule="evenodd" d="M516.462,271.64c0.074-1.539,0.149-3.079,0.224-4.618
			c0.932,0.051,1.863,0.103,2.794,0.152c-0.287,1.577-0.574,3.152-0.861,4.729C517.898,271.814,517.181,271.728,516.462,271.64z"/>
		<path fill-rule="evenodd" clip-rule="evenodd" d="M88.317,246.92c1.17,0.827,2.177,1.538,3.184,2.25
			c-0.078,0.425-0.155,0.849-0.232,1.272c-1.57,0.106-3.141,0.214-5.715,0.389C86.907,248.915,87.515,248.056,88.317,246.92z"/>
		<path fill-rule="evenodd" clip-rule="evenodd" d="M68.664,46.234c2.467,0,3.413,0,4.631,0c0.089,0.909,0.489,1.894,0.162,2.453
			c-0.374,0.64-1.853,1.417-2.054,1.238C70.522,49.142,69.93,48.033,68.664,46.234z"/>
		<path fill-rule="evenodd" clip-rule="evenodd" d="M115.46,306.8c0.826,1.898,1.648,2.88,1.444,3.55
			c-0.256,0.839-1.352,1.423-2.086,2.116c-0.567-0.726-1.63-1.491-1.577-2.168C113.311,309.407,114.261,308.586,115.46,306.8z"/>
		<path fill-rule="evenodd" clip-rule="evenodd" d="M516.359,264.53c0.142-1.44,0.282-2.882,0.423-4.322
			c0.899,0.19,2.585,0.437,2.576,0.562c-0.1,1.394-0.461,2.767-0.752,4.146C517.857,264.787,517.108,264.659,516.359,264.53z"/>
		<path fill-rule="evenodd" clip-rule="evenodd" d="M114.82,306.611c-0.862-1.843-1.708-2.815-1.586-3.646
			c0.105-0.715,1.315-1.267,2.036-1.891c0.631,0.823,1.635,1.592,1.766,2.488C117.13,304.2,116.045,305.009,114.82,306.611z"/>
		<path fill-rule="evenodd" clip-rule="evenodd" d="M517.79,299.712c0.774,1.428,1.707,2.362,1.574,3.11
			c-0.141,0.801-1.284,1.425-1.99,2.126c-0.72-0.843-1.848-1.614-2.01-2.553C515.262,301.803,516.604,300.961,517.79,299.712z"/>
		<path fill-rule="evenodd" clip-rule="evenodd" d="M33.805,246.457c0.963,0.586,1.926,1.171,2.888,1.757
			c-0.811,1.027-1.622,2.054-2.432,3.081c-0.375-0.185-0.75-0.369-1.125-0.554c-0.095-1.13-0.189-2.26-0.284-3.39
			C33.169,247.054,33.487,246.755,33.805,246.457z"/>
		<path fill-rule="evenodd" clip-rule="evenodd" d="M44.375,248.708c-1.182,0.688-2.364,1.376-3.546,2.064
			c-0.207-1.096-0.414-2.19-0.62-3.285c1.193-0.19,2.387-0.38,3.58-0.569C43.984,247.514,44.179,248.111,44.375,248.708z"/>
		<path fill-rule="evenodd" clip-rule="evenodd" d="M65.862,249.072c1.183-0.648,2.365-1.297,3.548-1.945
			c0.141,0.998,0.691,2.647,0.342,2.866c-0.915,0.575-2.22,0.525-3.371,0.725C66.208,250.17,66.035,249.621,65.862,249.072z"/>
		<path fill-rule="evenodd" clip-rule="evenodd" d="M118.086,276.12c-1.266,1.023-2.116,2.179-2.674,2.051
			c-0.785-0.18-1.853-1.299-1.868-2.036c-0.014-0.7,1.079-1.838,1.854-2.005C115.973,274.005,116.816,275.127,118.086,276.12z"/>
		<path fill-rule="evenodd" clip-rule="evenodd" d="M520.738,289.443c-1.489,0.8-2.35,1.612-3.216,1.621
			c-0.741,0.006-1.491-0.91-2.237-1.419c0.767-0.804,1.424-2.034,2.337-2.268C518.265,287.213,519.254,288.402,520.738,289.443z"/>
		<path fill-rule="evenodd" clip-rule="evenodd" d="M55.212,245.862c0.891,1.408,1.79,2.229,1.638,2.729
			c-0.243,0.799-1.185,1.384-1.832,2.06c-0.585-0.574-1.662-1.167-1.64-1.717C53.409,248.145,54.241,247.388,55.212,245.862z"/>
		<path fill-rule="evenodd" clip-rule="evenodd" d="M97.124,248.511c-0.706,0.867-1.331,1.84-2.189,2.51
			c-0.165,0.128-1.259-0.937-1.924-1.45c0.851-0.837,1.702-1.673,2.553-2.509C96.083,247.545,96.604,248.027,97.124,248.511z"/>
		<path fill-rule="evenodd" clip-rule="evenodd" d="M105.243,250.178c-1.675,0.502-2.641,1.097-3.443,0.927
			c-0.584-0.124-0.952-1.261-1.416-1.946c0.828-0.512,1.641-1.373,2.49-1.411C103.431,247.722,104.042,248.886,105.243,250.178z"/>
		<path fill-rule="evenodd" clip-rule="evenodd" d="M77.219,45.765c0.938,0.729,1.876,1.46,2.815,2.189
			c-0.805,0.679-1.61,1.358-2.415,2.037c-0.552-1.081-1.104-2.162-1.656-3.243C76.382,46.421,76.801,46.093,77.219,45.765z"/>
		<path fill-rule="evenodd" clip-rule="evenodd" d="M118.005,296.325c-1.304,0.811-2.033,1.632-2.664,1.563
			c-0.758-0.084-1.432-0.926-2.142-1.439c0.611-0.776,1.117-2.013,1.867-2.186C115.674,294.123,116.575,295.263,118.005,296.325z"/>
		<path fill-rule="evenodd" clip-rule="evenodd" d="M111.618,51.355c-1.06-1.542-2.094-2.403-1.966-3.026
			c0.158-0.77,1.195-1.546,2.029-1.889c0.283-0.116,1.549,1.067,1.567,1.68C113.271,48.911,112.494,49.727,111.618,51.355z"/>
		<path fill-rule="evenodd" clip-rule="evenodd" d="M118.104,323.428c-1.543,0.994-2.367,1.942-3.076,1.863
			c-0.698-0.078-1.279-1.199-1.911-1.862c0.73-0.604,1.388-1.507,2.214-1.704C115.87,321.595,116.654,322.49,118.104,323.428z"/>
		<path fill-rule="evenodd" clip-rule="evenodd" d="M115.198,332.767c-1.049-1.454-1.942-2.162-1.981-2.915
			c-0.032-0.593,1.042-1.787,1.532-1.741c0.81,0.076,2.016,0.826,2.177,1.501C117.081,330.263,116.125,331.18,115.198,332.767z"/>
		<path fill-rule="evenodd" clip-rule="evenodd" d="M517.387,332.49c-1.132-1.366-2-2.073-2.306-2.971
			c-0.104-0.304,1.2-1.512,1.889-1.536c0.644-0.023,1.767,0.901,1.87,1.539C518.952,330.22,518.136,331.066,517.387,332.49z"/>
		<path fill-rule="evenodd" clip-rule="evenodd" d="M93.428,47.052c-0.695,1.022-1.39,2.045-2.085,3.068
			c-0.714-0.586-1.428-1.173-2.142-1.76c0.935-0.835,1.87-1.671,2.804-2.506C92.479,46.254,92.954,46.653,93.428,47.052z"/>
		<path fill-rule="evenodd" clip-rule="evenodd" d="M514.889,348.375c1.272,0,2.546,0,4.936,0c-1.433,1.536-2.149,2.917-2.885,2.928
			c-0.834,0.012-1.686-1.204-2.529-1.887C514.569,349.069,514.729,348.723,514.889,348.375z"/>
		<path fill-rule="evenodd" clip-rule="evenodd" fill="#FFFFFF" d="M321.027,158.471c1.333-0.126,2.47-0.605,3.193-0.248
			c6.935,3.423,13.775,7.032,20.689,10.497c7.398,3.708,14.881,7.25,22.255,11.005c2.67,1.36,5.09,3.202,7.706,4.678
			c1.483,0.836,3.161,1.319,4.703,2.062c7.038,3.394,14.098,6.748,21.074,10.265c4.667,2.352,9.171,5.025,13.816,7.422
			c4.45,2.297,9.075,4.263,13.472,6.654c8.681,4.725,17.198,9.752,25.898,14.438c4.709,2.536,9.678,4.585,14.488,6.937
			c2.745,1.342,5.406,2.854,8.107,4.283c4.56,2.413,9.171,4.734,13.668,7.259c4.454,2.5,8.794,5.203,13,8.723
			c-4.565,0-9.132,0.048-13.697-0.008c-38.83-0.476-77.66-0.965-116.491-1.46c-15.109-0.193-30.22-0.357-45.328-0.645
			c-6.741-0.127-6.902-0.654-6.841-7.43c0.188-20.972,0.211-41.944,0.282-62.917C321.048,172.906,321.027,165.824,321.027,158.471z
			 M350.343,192.415c0.184,0.351,0.368,0.7,0.552,1.051c0.587,1.589,2.135,3.822,1.582,4.646c-1.751,2.611-3.393,5.758-7.286,6.815
			c0-1.794,0.022-3.037-0.006-4.28c-0.031-1.37-0.096-2.74-0.172-4.109c-0.258-4.603-2.253-6.128-6.768-5.046
			c-0.696,0.167-1.261,0.888-1.886,1.353c0.438,0.516,0.905,1.008,1.307,1.551c0.726,0.981,1.877,1.929,2.023,3.002
			c0.401,2.931-0.171,6.075,0.623,8.854c1.754,6.133-1.712,9.327-5.945,12.358c-0.151,0.108-0.148,0.433-0.227,0.684
			c1.809,2.041,3.495,1.334,4.981-0.331c2.569-2.879,4.857-6.03,7.601-8.724c3.977-3.905,7.095-8.211,9.205-13.438
			c0.889-2.2,0.808-3.913-0.846-4.775C353.892,191.407,351.95,192.233,350.343,192.415z"/>
		<path fill-rule="evenodd" clip-rule="evenodd" fill="#FFFFFF" d="M302.5,148.231c-60.622-0.751-121.245-1.504-182.458-2.263
			c0-3.177-0.012-6.106,0.002-9.034c0.07-14.111-0.42-28.259,0.48-42.319c0.404-6.311-0.996-12.422-0.338-18.625
			c0.195-1.839,0.684-3.652,0.813-5.493c0.128-1.829-0.097-3.68-0.038-5.517c0.051-1.575,0.272-3.146,0.444-4.716
			c0.105-0.96,0.324-1.913,0.375-2.875c0.066-1.257,0.016-2.521,0.016-4.542c7.356,3.955,13.856,7.458,20.371,10.935
			c0.541,0.289,1.211,0.329,1.765,0.6c4.134,2.023,8.299,3.991,12.365,6.143c4.587,2.428,9.009,5.176,13.642,7.508
			c3.478,1.751,7.304,2.817,10.744,4.626c5.577,2.935,10.921,6.309,16.45,9.339c2.753,1.509,5.774,2.528,8.539,4.02
			c3.06,1.651,5.943,3.626,8.948,5.384c1.147,0.672,2.443,1.084,3.627,1.698c6.209,3.213,12.367,6.525,18.613,9.662
			c6.34,3.184,12.805,6.118,19.131,9.325c3.592,1.82,6.993,4.015,10.53,5.948c1.584,0.866,3.342,1.413,4.936,2.265
			c3.528,1.886,6.987,3.9,10.5,5.814c6.876,3.747,13.771,7.461,20.657,11.188C302.576,147.612,302.538,147.921,302.5,148.231z
			 M203.072,134.106c-4.585,0.457-4.641,0.41-5.026-3.821c-0.323-3.54,1.896-6.457,5.59-7.795c0.852-0.309,1.393-1.478,2.077-2.25
			c-0.877-0.774-1.895-2.31-2.607-2.179c-2.138,0.393-4.157,1.435-7.003,2.522c-1.886-2.059-4.858-4.305-9.363-1.417
			c0.698,0.829,1.192,1.984,2,2.279c3.852,1.403,3.752,5.191,3.444,7.695c-0.31,2.512-2.39,5.214-5.826,5.885
			c-0.956,0.187-2.452,2.156-2.236,2.858c0.491,1.604,2.017,2.488,3.827,1.199c1.834-1.308,3.666-2.618,5.5-3.927
			c-0.126,0.363-0.252,0.727-0.378,1.09c1.967,1.231,3.982,3.501,5.89,3.416C201.084,139.563,203.206,137.389,203.072,134.106z"/>
		<path fill-rule="evenodd" clip-rule="evenodd" fill="#FFFFFF" d="M139.063,239.689c3.964-0.58,8.031,2.803,10.627-2.025
			c0.417,1.813,0.842,3.653,1.377,5.979c1.255-0.993,1.998-1.581,2.741-2.17c0.167,0.123,0.335,0.244,0.502,0.366
			c-0.387,0.957-0.773,1.913-1.094,2.706c1.652,0.124,3.109,0.233,4.567,0.343c-1.374,0.563-2.708,1.269-4.128,1.659
			c-3.497,0.964-6.515,0.091-8.945-2.872c-0.555,1.08-1.053,2.051-2.001,3.894C141.272,244.463,140.195,242.135,139.063,239.689z"/>
		<path fill-rule="evenodd" clip-rule="evenodd" fill="#FFFFFF" d="M296.324,193.523c-0.239-2.223-1.733-3.414-4.357-3.462
			c-0.565-0.011-1.119-0.579-1.678-0.891c0.309-0.542,0.483-1.304,0.949-1.587c1.847-1.126,2.997-2.222,1.759-4.669
			c-0.355-0.703,0.758-2.149,1.856-3.182c-0.928,7.704,6.907,6.408,9.746,10.667C301.936,191.405,299.248,192.42,296.324,193.523z"
			/>
		<path fill-rule="evenodd" clip-rule="evenodd" fill="#FFFFFF" d="M286.956,242.154c-1.435,2.043-2.867,4.081-4.925,7.012
			c-1.29-1.814-3.458-3.592-3.153-4.668C279.943,240.738,283.415,239.975,286.956,242.154z"/>
		<path fill-rule="evenodd" clip-rule="evenodd" fill="#FFFFFF" d="M157.63,157.284c-1.171-0.09-2.343-0.18-3.515-0.27
			c-0.037-0.711-0.072-1.423-0.109-2.134c3.588-0.719,7.176-1.438,10.765-2.156c0.097,0.399,0.192,0.798,0.289,1.198
			c-2.477,1.101-4.953,2.202-7.427,3.303C157.636,157.224,157.63,157.284,157.63,157.284z"/>
		<path fill-rule="evenodd" clip-rule="evenodd" fill="#FFFFFF" d="M163.785,206.308c1.578-1.649,2.891-3.023,4.415-4.616
			c0.553,0.672,0.975,1.196,1.408,1.711c0.788,0.933,1.582,1.861,2.373,2.791c-1.592,0.264-3.177,0.64-4.78,0.748
			C166.299,207.003,165.368,206.622,163.785,206.308z"/>
		<path fill-rule="evenodd" clip-rule="evenodd" fill="#FFFFFF" d="M130.087,231.248c0.781-1.597,1.271-2.598,2.167-4.433
			c0,2.858,0,4.891,0,6.354c-2.563-0.499-4.99-0.974-7.48-1.459C128.094,227.39,128.094,227.39,130.087,231.248z"/>
		<path fill-rule="evenodd" clip-rule="evenodd" fill="#FFFFFF" d="M200.541,240.142c3.071,0.717,5.749,1.342,8.683,2.026
			c-1.637,1.76-3.162,3.397-4.68,5.029C202.976,244.433,201.82,242.395,200.541,240.142z"/>
		<path fill-rule="evenodd" clip-rule="evenodd" fill="#FFFFFF" d="M120.356,244.828c0-1.74,0-3.424,0-5.141
			c3.651,0.565,5.951,3.811,4.736,6.352C123.594,245.656,122.089,245.271,120.356,244.828z"/>
		<path fill-rule="evenodd" clip-rule="evenodd" fill="#FFFFFF" d="M189.053,212.763c-1.201,1.516-1.935,2.44-3.098,3.907
			c-1.215-1.888-2.34-3.487-3.223-5.212c-0.102-0.199,1.432-1.691,1.714-1.557C186.044,210.669,187.493,211.749,189.053,212.763z"/>
		<path fill-rule="evenodd" clip-rule="evenodd" fill="#FFFFFF" d="M129.995,238.709c2.155,1.02,4.31,2.039,7.638,3.612
			c-1.604,1.356-2.555,2.161-3.866,3.271c-1.904-2.326-3.432-4.194-4.96-6.063C129.203,239.256,129.599,238.983,129.995,238.709z"/>
		<path fill-rule="evenodd" clip-rule="evenodd" fill="#FFFFFF" d="M171.348,240.654c-1.094,0.325-1.949,0.579-2.16,0.642
			c0.833,2.146,1.367,3.521,1.9,4.896c-0.381,0.176-0.762,0.352-1.143,0.527c-1.052-1.726-2.265-3.379-3.088-5.206
			c-0.412-0.914-0.112-2.148-0.134-3.238c0.909,0.395,1.828,0.769,2.722,1.193C169.883,239.676,170.274,239.978,171.348,240.654z"/>
		<path fill-rule="evenodd" clip-rule="evenodd" fill="#FFFFFF" d="M153.908,209.529c2.939-0.202,4.77,1.705,3.901,4.11
			c-0.421,1.164-0.553,2.434-0.874,3.926c-0.809-0.319-2.212-0.873-4.033-1.593c1.069-1.209,2.466-2.089,2.582-3.113
			C155.601,211.807,154.468,210.613,153.908,209.529z"/>
		<path fill-rule="evenodd" clip-rule="evenodd" fill="#FFFFFF" d="M224.257,246.943c-0.928-0.488-1.82-1.258-2.795-1.38
			c-0.853-0.107-1.797,0.512-3.049,0.926c-0.12-1.884-0.242-3.792-0.422-6.632c2.904,2.477,4.963,4.232,7.021,5.988
			C224.761,246.212,224.509,246.578,224.257,246.943z"/>
		<path fill-rule="evenodd" clip-rule="evenodd" fill="#FFFFFF" d="M314.871,178.04c-0.717,2.391-1.154,3.853-1.593,5.313
			c-0.407,0.124-0.814,0.248-1.221,0.371c-0.75-1.699-1.5-3.399-2.25-5.099C311.283,178.455,312.759,178.284,314.871,178.04z"/>
		<path fill-rule="evenodd" clip-rule="evenodd" fill="#FFFFFF" d="M189.19,204.857c-0.615,0.753-1.123,2.016-1.862,2.171
			c-3.049,0.641-4.152-1.459-4.783-3.765c1.302-0.317,2.573-0.626,4.146-1.01c-0.382,0.907-0.744,1.765-1.333,3.158
			c1.278-0.52,2.092-0.851,2.905-1.181C188.571,204.44,188.88,204.648,189.19,204.857z"/>
		<path fill-rule="evenodd" clip-rule="evenodd" fill="#FFFFFF" d="M189.708,231.108c-1.144,1.586-2.114,3.499-2.513,3.387
			c-1.595-0.45-3.013-1.529-4.496-2.376c0.173-0.337,0.346-0.674,0.519-1.011C184.992,231.108,186.767,231.108,189.708,231.108z"/>
		<path fill-rule="evenodd" clip-rule="evenodd" fill="#FFFFFF" d="M128.448,195.155c2.381-4.72,4.265-1.239,6.353,0.138
			C132.522,198.065,130.548,196.549,128.448,195.155z"/>
		<path fill-rule="evenodd" clip-rule="evenodd" fill="#FFFFFF" d="M193.583,229.622c2.688,0,4.606,0,5.846,0
			c-0.586,0.811-1.34,1.979-2.226,3.036c-0.582,0.694-1.332,1.263-2.078,1.785c-0.079,0.055-0.966-0.778-0.921-0.851
			c0.48-0.765,1.073-1.46,1.672-2.223C195.335,230.958,194.704,230.477,193.583,229.622z"/>
		<path fill-rule="evenodd" clip-rule="evenodd" fill="#FFFFFF" d="M314.875,163.568c-3.048,0-5.205,0-7.823,0
			C310.335,160.072,311.529,159.997,314.875,163.568z"/>
		<path fill-rule="evenodd" clip-rule="evenodd" fill="#FFFFFF" d="M284.108,235.673c-0.915-0.682-1.782-1.32-2.636-1.976
			c-0.076-0.059-0.067-0.228-0.216-0.814c0.72-0.602,1.604-1.338,2.407-2.009c1.4,0.866,2.593,1.604,4.067,2.517
			C286.372,234.247,285.268,234.942,284.108,235.673z"/>
		<path fill-rule="evenodd" clip-rule="evenodd" fill="#FFFFFF" d="M308.565,241.427c1.664,0.128,3.036,0.234,3.713,0.286
			c0.316,2.474,0.572,4.479,0.812,6.35C311.743,247.927,311.743,247.927,308.565,241.427z"/>
		<path fill-rule="evenodd" clip-rule="evenodd" fill="#FFFFFF" d="M194.842,172.805c-0.546-2.866-3.047-4.821,0.355-6.656
			C197.715,168.297,196.912,170.077,194.842,172.805z"/>
		<path fill-rule="evenodd" clip-rule="evenodd" fill="#FFFFFF" d="M157.63,157.284c0,0,0.005-0.06,0.004-0.059
			c1.324,0.236,2.65,0.471,3.976,0.707c0.031,0.546,0.061,1.092,0.091,1.638c-1.067,0.4-2.134,0.799-3.202,1.199
			C158.21,159.607,157.92,158.446,157.63,157.284z"/>
		<path fill-rule="evenodd" clip-rule="evenodd" fill="#FFFFFF" d="M157.647,240.756c-0.828-2.38-1.41-4.056-2.236-6.431
			c1.764,0.997,3.31,1.872,4.856,2.746C159.445,238.229,158.621,239.387,157.647,240.756z"/>
		<path fill-rule="evenodd" clip-rule="evenodd" fill="#FFFFFF" d="M158.595,199.313c0-2.915,0-4.701,0-6.487
			c0.355-0.221,0.71-0.442,1.066-0.662c0.353,1.407,0.705,2.814,1.058,4.222c0.41-0.337,0.819-0.676,1.229-1.015
			C161.072,196.401,160.196,197.431,158.595,199.313z"/>
		<path fill-rule="evenodd" clip-rule="evenodd" fill="#FFFFFF" d="M171.01,174.457c-0.417-0.183-0.998-0.249-1.223-0.567
			c-0.849-1.2-1.583-2.483-2.36-3.734c0.534-0.166,1.392-0.625,1.548-0.451c1.109,1.231,2.075,2.592,3.085,3.911
			C171.709,173.896,171.36,174.176,171.01,174.457z"/>
		<path fill-rule="evenodd" clip-rule="evenodd" fill="#FFFFFF" d="M287.16,209.854c-0.769-1.53-1.309-2.605-1.849-3.681
			c0.165-0.284,0.33-0.568,0.496-0.852c1.369,0.871,2.738,1.743,4.602,2.93C288.93,208.981,287.91,209.485,287.16,209.854z"/>
		<path fill-rule="evenodd" clip-rule="evenodd" fill="#FFFFFF" d="M580.879,32.154c0.738,1.682,1.417,3.393,2.229,5.039
			c1.374,2.789-0.954,8.278-3.884,9.028c-2.988,0.765-3.936-1.694-5.072-3.462c-2.202-3.422-1.239-6.799,1.31-9.488
			c1.182-1.246,3.293-1.611,4.983-2.375C580.589,31.315,580.734,31.735,580.879,32.154z"/>
		<path fill-rule="evenodd" clip-rule="evenodd" fill="#FFFFFF" d="M290.98,311.985c-1.73-4.512-0.003-12.733,3.42-15.101
			c1.314-0.908,3.607-0.979,5.247-0.58c0.745,0.182,1.413,2.443,1.381,3.744c-0.125,5.173-2.997,8.531-7.631,10.551
			C292.636,310.932,291.945,311.426,290.98,311.985z"/>
		<path fill-rule="evenodd" clip-rule="evenodd" d="M350.343,192.415c1.607-0.182,3.549-1.008,4.739-0.389
			c1.653,0.862,1.734,2.575,0.846,4.775c-2.11,5.227-5.229,9.532-9.205,13.438c-2.743,2.693-5.031,5.845-7.601,8.724
			c-1.486,1.665-3.173,2.372-4.981,0.331c0.078-0.251,0.075-0.575,0.227-0.684c4.233-3.031,7.699-6.226,5.945-12.358
			c-0.794-2.779-0.222-5.924-0.623-8.854c-0.146-1.073-1.298-2.021-2.023-3.002c-0.401-0.543-0.869-1.035-1.307-1.551
			c0.625-0.465,1.189-1.186,1.886-1.353c4.515-1.082,6.51,0.443,6.768,5.046c0.076,1.369,0.141,2.739,0.172,4.109
			c0.028,1.243,0.006,2.486,0.006,4.28c3.894-1.058,5.535-4.204,7.286-6.815c0.553-0.824-0.995-3.058-1.582-4.646
			C350.711,193.115,350.526,192.766,350.343,192.415z"/>
		<path fill-rule="evenodd" clip-rule="evenodd" d="M203.072,134.106c0.134,3.283-1.987,5.457-4.112,5.553
			c-1.908,0.085-3.923-2.185-5.89-3.416c0.126-0.363,0.252-0.727,0.378-1.09c-1.833,1.309-3.666,2.62-5.5,3.927
			c-1.81,1.289-3.335,0.405-3.827-1.199c-0.215-0.702,1.281-2.671,2.236-2.858c3.436-0.67,5.516-3.373,5.826-5.885
			c0.309-2.503,0.408-6.292-3.444-7.695c-0.809-0.294-1.302-1.45-2-2.279c4.504-2.889,7.477-0.642,9.363,1.417
			c2.846-1.087,4.865-2.129,7.003-2.522c0.712-0.13,1.729,1.405,2.607,2.179c-0.684,0.773-1.225,1.942-2.077,2.25
			c-3.694,1.339-5.913,4.256-5.59,7.795C198.431,134.516,198.487,134.563,203.072,134.106z"/>
	</g>
</g>
</svg>
