<?xml version="1.0" encoding="utf-8"?>
<!-- Generator: Adobe Illustrator 16.0.0, SVG Export Plug-In . SVG Version: 6.00 Build 0)  -->
<!DOCTYPE svg PUBLIC "-//W3C//DTD SVG 1.1//EN" "http://www.w3.org/Graphics/SVG/1.1/DTD/svg11.dtd">
<svg version="1.1" id="Layer_1" xmlns="http://www.w3.org/2000/svg" xmlns:xlink="http://www.w3.org/1999/xlink" x="0px" y="0px"
	 width="458.314px" height="422.309px" viewBox="0 0 458.314 422.309" enable-background="new 0 0 458.314 422.309"
	 xml:space="preserve">
<g>
	<g>
		<path fill-rule="evenodd" clip-rule="evenodd" fill="#FFFFFF" d="M459.064,423.059c-152.771,0-305.543,0-458.314,0
			c0-140.77,0-281.539,0-422.309c152.771,0,305.543,0,458.314,0C459.064,141.52,459.064,282.289,459.064,423.059z M366.889,184.786
			c-0.062,0-0.122,0-0.183,0c0-21.233,0.028-42.466-0.084-63.698c-0.006-1.067-0.985-2.513-1.935-3.122
			c-3.354-2.154-7.313-3.532-10.271-6.096c-6.152-5.332-14.147-5.703-21.175-8.584c-5.062-2.075-10.761-2.772-16.249-3.6
			c-13.489-2.034-27.008-3.889-40.542-5.604c-5.069-0.643-10.229-0.543-15.32-1.062c-7.647-0.78-15.252-2.4-22.904-2.613
			c-18.471-0.514-36.957-0.538-55.438-0.535c-15.433,0.002-30.814,0.974-46.139,2.963c-10.543,1.369-21.159,2.165-31.717,3.429
			c-8.02,0.96-16.011,2.179-23.99,3.437c-2.896,0.457-5.693,1.517-8.583,2.036c-9.086,1.628-18.143,3.294-26.441,7.647
			c-3.207,1.683-6.385,3.471-9.736,4.814c-5.263,2.11-9.854,8.444-9.854,14.163c0.001,16.985-0.293,33.978,0.138,50.953
			c0.206,8.112-2.099,16.487,1.741,24.375c0.234,0.482,0.158,1.392-0.158,1.82c-2.267,3.082-0.915,6.708-1.644,9.983
			c-0.885,3.983,3.182,7.636,0.592,11.68c-0.141,0.221,0.727,0.969,0.896,1.539c0.206,0.691,0.336,1.487,0.204,2.182
			c-0.483,2.526-1.751,5.09-1.523,7.526c0.656,7.011-1.368,14.163,1.418,21.108c0.651,1.625-1.391,4.341-0.725,5.946
			c1.595,3.849,0.917,7.132-0.627,10.649c-0.322,0.734,0.438,1.968,0.761,2.951c0.249,0.755,0.846,1.476,0.856,2.217
			c0.061,4.722-0.207,9.456,0.053,14.163c0.182,3.29,0.081,7.222,1.812,9.65c2.463,3.454,6.143,6.466,9.942,8.432
			c4.486,2.322,9.632,3.399,14.535,4.872c2.129,0.641,4.391,0.829,6.549,1.389c6.53,1.693,12.979,3.754,19.571,5.135
			c7.473,1.566,15.044,2.725,22.617,3.734c6.399,0.854,12.854,1.341,19.296,1.81c7.209,0.525,14.443,0.73,21.649,1.293
			c6.883,0.537,13.731,1.592,20.619,1.979c6.476,0.364,12.985,0.255,19.478,0.173c20.484-0.26,41.001,0.625,61.422-1.986
			c4.8-0.613,9.753-0.075,14.541-0.741c11.302-1.571,22.78-0.882,34.011-4.132c8.731-2.526,18.102-2.767,27.126-4.373
			c6.021-1.071,12.163-2.151,17.833-4.32c7.168-2.741,15.104-3.917,21.147-9.294c0.968-0.861,2.48-1.21,3.244-2.184
			c3.186-4.066,4.271-8.651,3.373-13.847c-0.388-2.244,0.16-4.654,0.318-6.985c0.123-1.831,0.435-3.66,0.408-5.486
			c-0.015-1.057-0.776-2.103-0.786-3.158c-0.094-9.642-0.116-19.283-0.122-28.926C366.88,227.253,366.889,206.02,366.889,184.786z
			 M330.602,69.305c0.116,0.337,0.232,0.674,0.35,1.012c1.254-0.256,2.57-0.348,3.752-0.795c3.98-1.507,7.832-3.4,11.883-4.663
			c6.114-1.906,12.368-3.358,18.521-5.145c0.664-0.193,1.341-1.276,1.462-2.035c0.069-0.431-0.898-1.368-1.533-1.52
			c-5.606-1.344-11.28-2.418-16.854-3.88c-2.664-0.699-5.096-2.248-7.737-3.08c-3.086-0.972-6.285-1.583-9.21-2.296
			c-2.084,5.417,4.3,4.856,4.761,8.214c-4.614,2.004-108.225,1.544-109.993-0.214c2.158-2.381,4.309-4.752,7.236-7.98
			c-2.399,0.167-3.779-0.007-4.963,0.394c-5.193,1.756-10.257,3.936-15.51,5.47c-4.979,1.453-10.15,2.233-15.2,3.458
			c-0.894,0.217-1.611,1.163-2.411,1.773c0.734,0.824,1.333,2.151,2.223,2.39c6.039,1.619,12.153,2.95,18.207,4.512
			c1.5,0.387,2.818,1.437,4.306,1.91c3.892,1.236,7.832,2.322,12.123,3.576c-0.641-4.815-5.804-5.942-6.132-10.243
			c37.074,0,73.57,0,110.067,0c0.288,0.322,0.575,0.645,0.863,0.967C334.741,63.854,332.672,66.579,330.602,69.305z
			 M405.666,147.725c0.438,0.313,0.878,0.626,1.317,0.939c0,7.966-0.013,15.932,0.003,23.897c0.025,12.61,0.229,25.223,0.062,37.831
			c-0.168,12.677-0.914,25.349-0.996,38.026c-0.058,8.762,0.612,17.526,0.861,26.293c0.024,0.88-0.452,2.383-0.988,2.529
			c-0.812,0.222-2.03-0.286-2.811-0.85c-2.015-1.46-3.886-3.119-6.357-5.145c0,1.615-0.247,2.638,0.04,3.479
			c2.045,6.005,4.297,11.941,6.268,17.971c0.721,2.205,3.228,4.335,0.747,7.025c-0.297,0.322,0.111,1.724,0.596,2.257
			c1.163,1.277,2.567,2.336,3.562,3.208c1.856-1.097,3.837-2.117,5.593-3.437c0.334-0.25-0.093-1.731-0.396-2.561
			c-0.483-1.315-1.915-2.779-1.62-3.796c1.093-3.771,2.805-7.355,4.121-11.067c0.569-1.605,0.607-3.393,1.123-5.022
			c0.717-2.262,1.655-4.453,2.498-6.674c-0.419-0.254-0.839-0.507-1.258-0.759c-2.493,1.939-4.987,3.879-7.481,5.818
			c-0.336-0.237-0.672-0.475-1.008-0.712c0.408-42.994,0.817-85.987,1.228-129.1c3.198,2.707,5.865,4.963,8.53,7.219
			c0.284-0.159,0.569-0.318,0.854-0.477c-0.241-1.382-0.289-2.835-0.763-4.133c-0.857-2.357-2.14-4.566-2.938-6.94
			c-1.545-4.601-2.491-9.443-4.426-13.862c-1.478-3.376-0.917-5.396,2.169-6.969c-2.972-3.534-7.111-3.515-9.822-0.886
			c0.347,2.826,1.296,5.156,0.74,7.042c-1.744,5.927-4.138,11.659-6.108,17.523c-0.879,2.617-1.349,5.371-2.005,8.063
			c0.373,0.281,0.747,0.563,1.12,0.844C400.635,152.776,403.149,150.25,405.666,147.725z M444.232,218.12
			c-0.212-0.116-0.425-0.233-0.637-0.35c-0.066-1.276-0.381-2.601-0.149-3.82c0.576-3.029,1.706-5.977,2.049-9.021
			c0.438-3.888-1.093-5.212-4.844-3.985c-2.616,0.857-4.905,2.716-7.772,4.378c1.39-5.57,2.77-11.103,4.317-17.308
			c-2.748,0.296-4.276,0.461-5.969,0.644c0,2.313,0.367,4.345-0.069,6.186c-1.243,5.224-2.838,10.363-4.248,15.548
			c-0.609,2.242-1.087,4.517-1.664,6.768c-0.336,1.315-0.815,2.601-1.032,3.933c-0.023,0.149,1.571,0.921,1.847,0.699
			c1.058-0.855,2.332-1.853,2.72-3.057c1.752-5.444,4.938-9.772,9.539-13.055c0.835-0.596,2.081-0.617,3.138-0.902
			c-0.176,1.863-0.887,2.714-1.218,3.692c-1.135,3.368-2.337,6.739-3.063,10.204c-0.208,0.985,0.857,2.694,1.825,3.314
			c0.688,0.44,2.426-0.083,3.263-0.733C443.18,220.544,443.598,219.192,444.232,218.12z M239.551,375.391
			c0-1.595,0.244-3.363-0.082-5.021c-0.233-1.185-1.068-2.995-1.918-3.174c-2.421-0.507-2.268,1.558-2.296,3.201
			c-0.135,7.981-0.325,15.962-0.377,23.944c-0.01,1.637-0.174,3.678,2.563,3.633c2.771-0.046,2.313-1.936,2.344-3.684
			c0.064-3.725,0.082-7.457,0.366-11.168c0.202-2.639,2.022-3.473,4.519-3.233c2.457,0.234,3.878,1.222,3.78,3.975
			c-0.139,3.867-0.244,7.757,0.053,11.604c0.071,0.935,1.662,2.11,2.772,2.445c0.518,0.155,2.228-1.411,2.254-2.235
			c0.158-4.739,0.2-9.507-0.159-14.231c-0.37-4.87-1.372-5.686-6.195-6.026C244.731,375.249,242.267,375.391,239.551,375.391z
			 M268.942,30.768c-0.121,2.515,0.096,4.549-0.374,6.411c-0.954,3.78-2.441,7.428-3.344,11.217
			c-0.249,1.043,0.793,2.394,1.243,3.604c1.121-0.54,3.157-0.992,3.219-1.633c0.451-4.738,2.156-8.675,5.229-12.405
			c1.296-1.575,2.084-1.824,3.778-1.728c1.245,0.07,3.389-0.154,3.611-0.784c0.466-1.322,0.346-3.252-0.371-4.418
			c-0.346-0.562-2.695-0.25-3.945,0.201c-1.362,0.491-2.503,1.601-3.789,2.473c-0.191-1.045-0.398-2.169-0.656-3.568
			C271.85,30.369,270.417,30.565,268.942,30.768z M185.62,375.634c-2.941,0-5.887,0.095-8.822-0.03
			c-2.335-0.098-3.415,0.63-3.354,3.169c0.126,5.339-0.144,10.693,0.139,16.021c0.056,1.061,1.855,2.03,2.85,3.041
			c0.745-1.022,2.049-2.003,2.13-3.075c0.261-3.465,0.169-6.968,0.024-10.448c-0.12-2.878,1.018-4.157,3.938-3.938
			C185.507,380.599,186.668,379.218,185.62,375.634z M210.146,381.162c0,0.027,0,0.054,0,0.081c-2.616,0-5.24-0.117-7.843,0.063
			c-0.908,0.063-1.766,0.854-2.647,1.313c0.803,0.727,1.579,2.046,2.413,2.083c5.474,0.248,10.961,0.289,16.44,0.199
			c0.761-0.014,1.502-1.124,2.253-1.726c-0.798-0.671-1.551-1.842-2.403-1.92C215.641,381.006,212.887,381.162,210.146,381.162z
			 M200.218,388.62c-0.282,0.46-0.564,0.92-0.847,1.38c0.888,0.8,1.75,2.257,2.668,2.292c5.486,0.216,10.987,0.174,16.477,0.018
			c0.73-0.021,1.429-1.179,2.142-1.81c-0.724-0.627-1.435-1.778-2.174-1.797C212.398,388.557,206.307,388.62,200.218,388.62z
			 M371.617,118.716c-0.972,2.052-1.94,3.185-1.889,4.27c0.042,0.908,1.277,1.76,1.984,2.637c0.779-0.949,2.108-1.857,2.183-2.859
			C373.97,121.763,372.788,120.669,371.617,118.716z M380.297,120.288c-0.742-0.164-1.484-0.328-2.227-0.492
			c-0.35,1.458-0.82,2.908-0.928,4.384c-0.019,0.249,1.536,0.612,2.365,0.921C379.771,123.496,380.033,121.892,380.297,120.288z
			 M382.979,124.571c0.647,0.328,1.295,0.655,1.943,0.983c0.646-1.131,1.475-2.211,1.817-3.429c0.091-0.325-1.303-1.069-2.016-1.62
			C384.143,121.86,383.562,123.216,382.979,124.571z M418.597,125.313c0.521-0.188,1.042-0.375,1.563-0.563
			c-0.436-1.429-0.821-2.879-1.396-4.248c-0.049-0.116-1.377,0.307-2.109,0.479C417.302,122.425,417.949,123.869,418.597,125.313z
			 M199.271,64.358c-0.58-0.459-1.159-0.917-1.738-1.377c-0.813,0.936-1.626,1.872-2.439,2.807c0.657,0.568,1.314,1.137,1.971,1.705
			C197.801,66.448,198.536,65.403,199.271,64.358z M371.495,298.272c-0.446,0.3-0.892,0.6-1.338,0.898
			c0.44,1.147,0.881,2.296,1.321,3.443c0.865-0.633,1.731-1.265,2.598-1.897C373.216,299.902,372.355,299.088,371.495,298.272z
			 M199.122,31.118c-0.457-0.449-0.914-0.897-1.371-1.346c-0.877,0.677-1.753,1.354-2.63,2.032c0.697,0.686,1.395,1.371,2.092,2.056
			C197.85,32.946,198.486,32.032,199.122,31.118z"/>
		<path fill-rule="evenodd" clip-rule="evenodd" d="M366.889,184.786c0,21.234-0.009,42.467,0.004,63.702
			c0.006,9.643,0.028,19.284,0.122,28.926c0.01,1.056,0.771,2.102,0.786,3.158c0.026,1.826-0.285,3.655-0.408,5.486
			c-0.158,2.331-0.706,4.741-0.318,6.985c0.897,5.195-0.188,9.78-3.373,13.847c-0.764,0.974-2.276,1.322-3.244,2.184
			c-6.044,5.377-13.979,6.553-21.147,9.294c-5.67,2.169-11.813,3.249-17.833,4.32c-9.024,1.606-18.395,1.847-27.126,4.373
			c-11.23,3.25-22.709,2.561-34.011,4.132c-4.788,0.666-9.741,0.128-14.541,0.741c-20.421,2.611-40.938,1.727-61.422,1.986
			c-6.493,0.082-13.002,0.191-19.478-0.173c-6.888-0.387-13.736-1.441-20.619-1.979c-7.206-0.563-14.439-0.768-21.649-1.293
			c-6.442-0.469-12.897-0.956-19.296-1.81c-7.572-1.01-15.144-2.168-22.617-3.734c-6.593-1.381-13.042-3.441-19.571-5.135
			c-2.159-0.56-4.42-0.748-6.549-1.389c-4.903-1.473-10.049-2.55-14.535-4.872c-3.799-1.966-7.479-4.978-9.942-8.432
			c-1.731-2.429-1.629-6.36-1.812-9.65c-0.26-4.707,0.008-9.441-0.053-14.163c-0.01-0.741-0.607-1.462-0.856-2.217
			c-0.323-0.983-1.083-2.217-0.761-2.951c1.543-3.518,2.222-6.801,0.627-10.649c-0.666-1.605,1.376-4.321,0.725-5.946
			c-2.786-6.945-0.762-14.098-1.418-21.108c-0.228-2.437,1.041-5,1.523-7.526c0.133-0.694,0.002-1.49-0.204-2.182
			c-0.169-0.57-1.037-1.318-0.896-1.539c2.589-4.044-1.478-7.696-0.592-11.68c0.729-3.275-0.623-6.901,1.644-9.983
			c0.315-0.428,0.392-1.338,0.158-1.82c-3.84-7.888-1.536-16.263-1.741-24.375c-0.431-16.975-0.136-33.968-0.138-50.953
			c0-5.719,4.591-12.053,9.854-14.163c3.351-1.344,6.529-3.132,9.736-4.814c8.299-4.353,17.355-6.019,26.441-7.647
			c2.89-0.519,5.688-1.579,8.583-2.036c7.979-1.258,15.97-2.477,23.99-3.437c10.558-1.264,21.174-2.061,31.717-3.429
			c15.325-1.99,30.706-2.961,46.139-2.963c18.481-0.003,36.967,0.021,55.438,0.535c7.652,0.213,15.257,1.833,22.904,2.613
			c5.091,0.519,10.251,0.419,15.32,1.062c13.534,1.715,27.053,3.57,40.542,5.604c5.488,0.828,11.188,1.524,16.249,3.6
			c7.027,2.882,15.022,3.253,21.175,8.584c2.958,2.564,6.918,3.942,10.271,6.096c0.949,0.609,1.929,2.055,1.935,3.122
			c0.112,21.232,0.084,42.465,0.084,63.698C366.767,184.786,366.827,184.786,366.889,184.786z M99.997,291.839
			c0.431,1.376,0.863,2.752,1.295,4.128l0.053-0.09c-0.632,1.329-1.398,2.615-1.858,4.002c-0.422,1.272-0.515,2.653-0.753,3.987
			c1.373,0,2.746,0,4.967,0c-0.971,3.097-1.964,6.27-3.123,9.963c1.317,0.682,3.285,1.699,5.238,2.709
			c-1.328,2.449-6.378,1.136-6.01,5.451c4.806,0.988,9.227,2.168,13.725,2.754c5.109,0.666,10.291,0.761,15.437,1.176
			c9.971,0.804,19.934,1.729,29.909,2.467c7.659,0.568,15.331,1.275,23,1.3c11.146,0.034,22.293-0.495,33.441-0.773
			c5.585-0.14,11.181-0.097,16.753-0.447c2.621-0.165,5.174-1.398,7.798-1.575c14.215-0.955,28.557-0.292,42.578-3.699
			c2.834-0.688,5.862-0.574,8.44-0.799c0.348-1.668,0.611-2.93,0.728-3.485c-1.79-0.47-3.564-0.937-5.619-1.477
			c0.856-1.658,1.837-2.912,1.604-3.205c-3.002-3.79-0.629-5.347,4.138-6.801c-5.058-1.201-2.752-3.639-2.987-5.76
			c-0.368-3.324-1.595-6.336,1.152-9.288c0.474-0.509,0.036-2.566-0.639-3.311c-1.926-2.122-1.565-3.811,0.083-5.84
			c0.573-0.705,0.421-1.998,0.602-3.022c-0.973-0.069-1.945-0.138-3.188-0.225c1.099-1.363,2.096-2.602,3.043-3.776
			c-0.827-0.971-1.723-2.173-2.776-3.216c-1.207-1.193-2.555-2.247-3.842-3.361c0.181-0.268,0.36-0.535,0.541-0.803
			c1.154,0.159,2.309,0.318,3.462,0.477c1.618-2.594,5.312-3.213,9.105-1.529c1.772,0.212,3.308,0.521,3.331,2.931
			c0.006,0.678,1.087,1.527,1.865,1.928c0.333,0.171,1.416-0.459,1.706-0.978c1.134-2.033-1.118-7.455-2.876-8.237
			c-1.005,1.198-1.897,2.261-2.79,3.324c-1.211-2.382-2.422-4.764-3.605-7.094c0.858-0.199,2.269-0.527,3.41-0.792
			c1.456-4.314-1.381-6.207-4.124-8.174c1.312-1.985,2.513-3.803,4.061-6.143c0.004,0.008-0.457-0.724-1.049-1.661
			c1.968-0.317,3.625-0.584,5.253-0.847c-0.267-1.723-0.492-3.173-0.755-4.87c-0.736,0.338-1.552,0.712-2.361,1.084
			c-2.945-4.087-3.682-4.247-8.005-1.763c-0.144-0.188-0.286-0.375-0.43-0.562c-2.092-0.438-4.185-0.876-6.277-1.314
			c0.996-1.507,2.184-2.707,3.205-2.578c2.81,0.354,3.322-1.501,4.036-3.351l-0.145,0.015c1.561,1.271,0.372,5.203,3.434,4.573
			c1.412-2.02,2.409-3.444,3.684-5.266c-2.104-0.744-4.128-1.46-6.15-2.176c1.146-1.023,2.294-2.047,3.565-3.182
			c-1.502-2.821-2.673-3.02-5.92-0.445c-0.428-0.53-0.855-1.059-1.283-1.589c-0.326-2.158-0.653-4.317-0.938-6.2
			c-0.994,0.051-2.305,0.117-3.616,0.183c-0.019-0.25-0.038-0.499-0.058-0.749c0.862-0.554,1.724-1.107,2.435-1.564
			c-1.267-1.374-2.356-2.558-3.447-3.741c1.702-0.627,3.404-1.253,5.197-1.914c2.129-11.1,3.273-9.357,7.496-13.358
			c-3.19,0.264-5.782,0.479-7.781,0.644c-0.152-1.1-0.368-2.24-0.45-3.389c-0.056-0.786-0.217-1.793,0.174-2.342
			c1.808-2.541,0.672-3.529-1.834-4.063c-0.779-0.166-1.504-0.583-2.253-0.886c-0.118-0.397-0.235-0.794-0.354-1.191
			c4.175-2.116,8.349-4.232,12.194-6.182c-0.926-0.776-1.941-1.629-2.958-2.481c1.034-1.026,2.067-2.052,3.289-3.263
			c-0.63-0.54-1.329-1.139-1.196-1.025c0.705-2.049,1.589-3.644,1.709-5.293c0.082-1.154-0.88-2.382-1.5-3.878
			c-1.214,3.043-2.05,5.142-2.887,7.24c-1.214-3.681-2.944-1.225-4.413-0.203c-0.24-3.353-0.24-3.353,3.87-9.563
			c1.678,0,2.902,0.049,4.121-0.014c1.135-0.059,2.263-0.235,3.394-0.36c0.138,0.376,0.274,0.752,0.412,1.129
			c0.873-1.453,1.746-2.904,2.226-3.701c-1.927-0.298-3.733-1.132-4.385-0.586c-3.607,3.018-7.785,0.311-11.422,1.491
			c-2.378,0.771-5.977-1.716-6.823,2.438c-1.121-0.393-1.985-0.863-2.896-0.982c-2.635-0.345-4.884,0.357-7.439,1.47
			c-2.755,1.199-6.403,0.28-9.656,0.415c-9.567,0.398-19.129,1.134-28.697,1.24c-18.236,0.202-36.475,0.141-54.712,0.028
			c-10.576-0.065-21.158-0.27-31.723-0.738c-6.894-0.306-13.813,0.467-20.736-1.573c-1.932-0.569-4.868-0.303-7.359-0.788
			c-0.792-0.155-2.267,0.522-2.608,1.221c-0.995,2.03-1.574,4.263-2.33,6.454c-0.844-0.279-1.729-0.57-2.918-0.963
			c2.446,6.118,1.037,10.739-4.004,14.21c-2.963,2.909-1.882,6.024-0.467,9.156c0.027,0.306,0.055,0.612,0.082,0.917
			c-1.294-0.213-2.588-0.426-3.236-0.533c-1.433,0.71-2.839,1.407-4.483,2.222c2.076,1.521,3.305,2.421,4.534,3.321
			c0.366,1.842,0.732,3.684,1.1,5.525c0.009,0.714,0.019,1.429,0.029,2.143c-0.61,1.602-1.063,3.289-1.865,4.788
			c-1.369,2.558-0.658,3.767,2.509,3.896c0.355,0.678,0.534,1.656,1.095,1.984c3.144,1.843,3.014,3.428,0.664,6.077
			c-1.828,2.062-2.636,5.026-3.898,7.589c0.479,0.4,0.958,0.8,1.436,1.199c1.009-0.641,1.95-1.463,3.046-1.868
			c1.012-0.375,2.19-0.303,3.295-0.428c0.062,0.397,0.124,0.794,0.185,1.189c-0.751,0.622-1.504,1.244-2.279,1.886
			c0.921,0.703,1.628,1.245,2.639,2.017c-3.906,1.855-2.791,4.767-2.168,7.438c0.347,1.491,1.335,2.83,1.711,4.319
			c0.97,3.837-1.502,8.431,2.351,11.244c-1.317,5.182-5.159,6.006-9.753,5.35c1.028,4.964,4.935,2.988,7.97,3.85
			c-1.185,1.125-1.91,1.814-2.586,2.456c0.836,0.739,1.561,1.381,2.285,2.021c-1.045,0.628-1.816,0.775-2.373,0.495
			c-3.205-1.61-3.831-1.091-4.27,2.515c-0.414,3.396-1.403,6.72-2.143,10.085c0.627,0.375,1.256,0.75,1.885,1.125
			c-1.188,3.964-3.056,7.901-0.453,12.009L99.997,291.839z M124.255,98.245c-0.005-0.087-0.01-0.174-0.016-0.262
			c-1.248,0.075-2.525,0.001-3.737,0.249c-5.275,1.08-10.491,2.51-15.803,3.339c-11.15,1.739-22.347,3.178-33.524,4.744
			c-2.594,0.364-5.311,0.373-7.753,1.195c-5.883,1.979-11.719,4.153-17.415,6.617c-4.057,1.753-7.967,3.928-11.699,6.3
			c-1.111,0.706-1.771,2.658-1.99,4.134c-0.668,4.506,3.252,9.568,8.165,11.073c2.089,0.64,4.146,1.412,6.165,2.25
			c3.163,1.315,6.159,3.349,9.44,4.002c10.869,2.162,21.837,3.821,32.759,5.719c5.989,1.041,11.93,2.412,17.949,3.201
			c6.035,0.79,12.144,1.016,18.216,1.536c9.29,0.796,18.563,1.993,27.868,2.358c11.105,0.436,22.239,0.262,33.36,0.197
			c24.901-0.147,49.844,0.987,74.653-2.161c10.847-1.375,21.807-1.236,32.585-3.991c9.108-2.328,18.689-2.762,28.024-4.262
			c5.503-0.885,11.035-1.872,16.368-3.447c4.824-1.425,9.304-3.994,14.103-5.537c4.727-1.52,7.533-4.96,10.224-8.668
			c0.317-0.436,0.107-1.278,0.09-1.93c-0.178-6.542-6.453-7.47-10.261-9.861c-5.676-3.565-12.388-5.724-18.907-7.632
			c-6.388-1.87-13.103-2.601-19.645-3.968c-9.599-2.007-19.42-1.865-29.121-3.921c-11.36-2.407-23.31-2.096-35.015-2.799
			c-13.931-0.836-27.87-2.006-41.812-2.09c-14.682-0.089-29.37,0.942-44.056,1.465c-3.619,0.129-7.247,0.072-10.859,0.288
			C143.156,96.947,133.707,97.617,124.255,98.245z M96.296,264.31c-0.366-0.23-0.731-0.46-1.097-0.689
			c-2.167,0.408-4.333,0.818-6.499,1.227c-0.05,0.407-0.1,0.814-0.149,1.223c1.863,0.397,3.742,1.123,5.581,1.035
			C94.896,267.068,95.578,265.294,96.296,264.31z M105.55,159.786c-1.514-1.974-2.155-2.811-2.959-3.86
			c-1.319,1.806-2.127,2.912-2.935,4.017c0.145,0.361,0.29,0.722,0.435,1.083C101.623,160.678,103.154,160.33,105.55,159.786z
			 M292.664,293.345c-0.184,0.41-0.366,0.821-0.55,1.231c0.864,1.135,1.728,2.269,2.726,3.579c0.877-0.473,1.785-0.962,3.139-1.692
			C295.9,295.244,294.282,294.294,292.664,293.345z M303.625,303.921c1.076-1.627,1.897-2.87,2.961-4.477c-1.633,0-3.008,0-4.57,0
			C302.652,301.215,303.098,302.452,303.625,303.921z M290.132,215.403c0.235,0.084,0.47,0.169,0.705,0.253
			c1.42-1.117,2.839-2.234,5.004-3.939c-1.661-0.18-3.089-0.713-3.456-0.3C291.393,212.531,290.852,214.047,290.132,215.403z"/>
		<path fill-rule="evenodd" clip-rule="evenodd" d="M330.602,69.305c2.07-2.726,4.14-5.451,6.21-8.176
			c-0.288-0.322-0.575-0.645-0.863-0.967c-36.497,0-72.993,0-110.067,0c0.329,4.3,5.492,5.427,6.132,10.243
			c-4.291-1.254-8.231-2.34-12.123-3.576c-1.488-0.473-2.806-1.523-4.306-1.91c-6.054-1.562-12.168-2.893-18.207-4.512
			c-0.891-0.239-1.489-1.566-2.223-2.39c0.799-0.61,1.517-1.556,2.411-1.773c5.05-1.225,10.222-2.005,15.2-3.458
			c5.253-1.534,10.317-3.713,15.51-5.47c1.184-0.401,2.563-0.227,4.963-0.394c-2.927,3.229-5.078,5.6-7.236,7.98
			c1.768,1.759,105.378,2.219,109.993,0.214c-0.461-3.358-6.845-2.797-4.761-8.214c2.925,0.713,6.124,1.324,9.21,2.296
			c2.642,0.832,5.073,2.381,7.737,3.08c5.573,1.462,11.247,2.537,16.854,3.88c0.635,0.151,1.603,1.088,1.533,1.52
			c-0.121,0.758-0.798,1.842-1.462,2.035c-6.153,1.787-12.407,3.239-18.521,5.145c-4.051,1.263-7.902,3.156-11.883,4.663
			c-1.182,0.447-2.498,0.539-3.752,0.795C330.834,69.979,330.718,69.642,330.602,69.305z"/>
		<path fill-rule="evenodd" clip-rule="evenodd" d="M405.666,147.725c-2.517,2.525-5.031,5.051-7.547,7.577
			c-0.373-0.281-0.747-0.563-1.12-0.844c0.656-2.691,1.126-5.446,2.005-8.063c1.971-5.864,4.364-11.596,6.108-17.523
			c0.556-1.887-0.394-4.216-0.74-7.042c2.711-2.629,6.851-2.648,9.822,0.886c-3.086,1.574-3.646,3.593-2.169,6.969
			c1.935,4.418,2.881,9.261,4.426,13.862c0.798,2.374,2.08,4.583,2.938,6.94c0.474,1.298,0.521,2.75,0.763,4.133
			c-0.284,0.159-0.569,0.318-0.854,0.477c-2.665-2.256-5.332-4.512-8.53-7.219c-0.41,43.113-0.819,86.105-1.228,129.1
			c0.336,0.237,0.672,0.475,1.008,0.712c2.494-1.939,4.988-3.879,7.481-5.818c0.419,0.252,0.839,0.505,1.258,0.759
			c-0.843,2.221-1.781,4.412-2.498,6.674c-0.516,1.63-0.554,3.417-1.123,5.022c-1.316,3.712-3.028,7.297-4.121,11.067
			c-0.295,1.017,1.137,2.48,1.62,3.796c0.304,0.829,0.73,2.311,0.396,2.561c-1.756,1.319-3.736,2.34-5.593,3.437
			c-0.994-0.872-2.398-1.931-3.562-3.208c-0.484-0.533-0.893-1.935-0.596-2.257c2.48-2.69-0.026-4.82-0.747-7.025
			c-1.971-6.029-4.223-11.966-6.268-17.971c-0.287-0.841-0.04-1.863-0.04-3.479c2.472,2.025,4.343,3.685,6.357,5.145
			c0.78,0.563,1.999,1.071,2.811,0.85c0.536-0.146,1.013-1.649,0.988-2.529c-0.249-8.767-0.919-17.531-0.861-26.293
			c0.082-12.677,0.828-25.349,0.996-38.026c0.168-12.607-0.036-25.22-0.062-37.831c-0.016-7.965-0.003-15.932-0.003-23.897
			C406.544,148.351,406.104,148.038,405.666,147.725z"/>
		<path fill-rule="evenodd" clip-rule="evenodd" d="M444.232,218.12c-0.635,1.072-1.053,2.424-1.969,3.135
			c-0.837,0.65-2.575,1.174-3.263,0.733c-0.968-0.62-2.033-2.329-1.825-3.314c0.727-3.465,1.929-6.836,3.063-10.204
			c0.331-0.979,1.042-1.829,1.218-3.692c-1.057,0.286-2.303,0.306-3.138,0.902c-4.602,3.282-7.787,7.61-9.539,13.055
			c-0.388,1.204-1.662,2.201-2.72,3.057c-0.275,0.222-1.87-0.55-1.847-0.699c0.217-1.332,0.696-2.617,1.032-3.933
			c0.577-2.251,1.055-4.526,1.664-6.768c1.41-5.185,3.005-10.324,4.248-15.548c0.437-1.841,0.069-3.873,0.069-6.186
			c1.692-0.182,3.221-0.347,5.969-0.644c-1.548,6.205-2.928,11.738-4.317,17.308c2.867-1.662,5.156-3.521,7.772-4.378
			c3.751-1.228,5.282,0.097,4.844,3.985c-0.343,3.044-1.473,5.992-2.049,9.021c-0.231,1.22,0.083,2.544,0.149,3.82
			C443.808,217.887,444.021,218.004,444.232,218.12z"/>
		<path fill-rule="evenodd" clip-rule="evenodd" d="M239.551,375.391c2.716,0,5.181-0.142,7.623,0.03
			c4.823,0.341,5.825,1.156,6.195,6.026c0.359,4.725,0.317,9.492,0.159,14.231c-0.026,0.824-1.736,2.391-2.254,2.235
			c-1.11-0.335-2.701-1.511-2.772-2.445c-0.297-3.848-0.191-7.737-0.053-11.604c0.098-2.753-1.323-3.74-3.78-3.975
			c-2.496-0.239-4.316,0.595-4.519,3.233c-0.284,3.711-0.302,7.443-0.366,11.168c-0.03,1.748,0.427,3.638-2.344,3.684
			c-2.736,0.045-2.572-1.996-2.563-3.633c0.052-7.982,0.242-15.963,0.377-23.944c0.028-1.644-0.125-3.708,2.296-3.201
			c0.85,0.179,1.685,1.989,1.918,3.174C239.795,372.027,239.551,373.796,239.551,375.391z"/>
		<path fill-rule="evenodd" clip-rule="evenodd" d="M268.942,30.768c1.475-0.202,2.907-0.398,4.602-0.631
			c0.258,1.399,0.465,2.523,0.656,3.568c1.286-0.873,2.427-1.982,3.789-2.473c1.25-0.451,3.6-0.763,3.945-0.201
			c0.717,1.166,0.837,3.096,0.371,4.418c-0.223,0.63-2.366,0.854-3.611,0.784c-1.694-0.096-2.482,0.153-3.778,1.728
			c-3.073,3.73-4.778,7.667-5.229,12.405c-0.062,0.641-2.098,1.093-3.219,1.633c-0.45-1.21-1.492-2.56-1.243-3.604
			c0.902-3.789,2.39-7.437,3.344-11.217C269.038,35.316,268.821,33.282,268.942,30.768z"/>
		<path fill-rule="evenodd" clip-rule="evenodd" d="M185.62,375.634c1.048,3.584-0.113,4.965-3.096,4.739
			c-2.92-0.22-4.057,1.06-3.938,3.938c0.145,3.48,0.237,6.983-0.024,10.448c-0.081,1.072-1.385,2.053-2.13,3.075
			c-0.995-1.011-2.794-1.98-2.85-3.041c-0.283-5.327-0.013-10.682-0.139-16.021c-0.06-2.539,1.019-3.267,3.354-3.169
			C179.733,375.729,182.679,375.634,185.62,375.634z"/>
		<path fill-rule="evenodd" clip-rule="evenodd" d="M210.146,381.162c2.74,0,5.495-0.156,8.212,0.093
			c0.853,0.078,1.605,1.249,2.403,1.92c-0.751,0.602-1.493,1.712-2.253,1.726c-5.479,0.09-10.966,0.049-16.44-0.199
			c-0.834-0.037-1.61-1.356-2.413-2.083c0.881-0.458,1.739-1.25,2.647-1.313c2.604-0.18,5.227-0.063,7.843-0.063
			C210.146,381.216,210.146,381.189,210.146,381.162z"/>
		<path fill-rule="evenodd" clip-rule="evenodd" d="M200.218,388.62c6.089,0,12.181-0.063,18.266,0.083
			c0.739,0.019,1.45,1.17,2.174,1.797c-0.713,0.631-1.411,1.789-2.142,1.81c-5.49,0.156-10.991,0.198-16.477-0.018
			c-0.918-0.035-1.78-1.492-2.668-2.292C199.654,389.54,199.936,389.08,200.218,388.62z"/>
		<path fill-rule="evenodd" clip-rule="evenodd" d="M371.617,118.716c1.171,1.954,2.353,3.047,2.278,4.048
			c-0.074,1.001-1.403,1.91-2.183,2.859c-0.707-0.876-1.942-1.729-1.984-2.637C369.677,121.901,370.646,120.768,371.617,118.716z"/>
		<path fill-rule="evenodd" clip-rule="evenodd" d="M380.297,120.288c-0.264,1.604-0.526,3.208-0.789,4.813
			c-0.829-0.31-2.384-0.673-2.365-0.921c0.107-1.476,0.578-2.926,0.928-4.384C378.813,119.959,379.555,120.124,380.297,120.288z"/>
		<path fill-rule="evenodd" clip-rule="evenodd" d="M382.979,124.571c0.582-1.355,1.163-2.71,1.745-4.065
			c0.713,0.551,2.106,1.294,2.016,1.62c-0.343,1.217-1.171,2.297-1.817,3.429C384.274,125.226,383.627,124.898,382.979,124.571z"/>
		<path fill-rule="evenodd" clip-rule="evenodd" d="M418.597,125.313c-0.647-1.444-1.295-2.888-1.942-4.332
			c0.732-0.172,2.061-0.595,2.109-0.479c0.575,1.369,0.961,2.819,1.396,4.248C419.639,124.938,419.117,125.125,418.597,125.313z"/>
		<path fill-rule="evenodd" clip-rule="evenodd" d="M199.271,64.358c-0.735,1.045-1.471,2.09-2.207,3.135
			c-0.657-0.568-1.314-1.136-1.971-1.705c0.813-0.936,1.626-1.872,2.439-2.807C198.113,63.44,198.692,63.899,199.271,64.358z"/>
		<path fill-rule="evenodd" clip-rule="evenodd" d="M371.495,298.272c0.86,0.815,1.721,1.63,2.581,2.444
			c-0.866,0.633-1.732,1.265-2.598,1.897c-0.44-1.147-0.881-2.296-1.321-3.443C370.604,298.872,371.049,298.572,371.495,298.272z"/>
		<path fill-rule="evenodd" clip-rule="evenodd" d="M199.122,31.118c-0.636,0.914-1.272,1.828-1.908,2.742
			c-0.697-0.685-1.395-1.371-2.092-2.056c0.877-0.677,1.753-1.354,2.63-2.032C198.208,30.221,198.666,30.669,199.122,31.118z"/>
		<path fill-rule="evenodd" clip-rule="evenodd" fill="#FFFFFF" d="M100.489,279.754c-0.628-0.375-1.257-0.75-1.883-1.13
			c0.738-3.36,1.728-6.685,2.141-10.08c0.439-3.605,1.065-4.125,4.27-2.515c0.557,0.28,1.327,0.133,2.373-0.495
			c-0.724-0.641-1.448-1.282-2.285-2.021c0.676-0.642,1.401-1.331,2.586-2.456c-3.035-0.861-6.942,1.114-7.97-3.85
			c4.594,0.656,8.436-0.168,9.753-5.35c-3.853-2.813-1.381-7.407-2.351-11.244c-0.376-1.489-1.364-2.828-1.711-4.319
			c-0.623-2.671-1.737-5.582,2.168-7.438c-1.01-0.771-1.718-1.313-2.639-2.017c0.775-0.642,1.527-1.264,2.279-1.886
			c-0.062-0.396-0.124-0.792-0.185-1.189c-1.105,0.125-2.283,0.053-3.295,0.428c-1.096,0.405-2.037,1.228-3.046,1.868
			c-0.479-0.399-0.958-0.799-1.436-1.199c1.262-2.563,2.071-5.527,3.898-7.589c2.35-2.649,2.48-4.234-0.664-6.077
			c-0.561-0.328-0.739-1.306-1.095-1.984c1.282-0.641,2.564-1.282,3.998-1.998c-0.712-1.62-1.292-2.941-1.872-4.262
			c0.357-1.686,0.715-3.371,1.073-5.056c-1.291,0.164-2.581,0.327-3.872,0.49c-0.366-1.842-0.732-3.685-1.099-5.526
			c0.706-0.774,1.413-1.548,2.119-2.323c2.056-1.87,4.164-2.425,6.415-0.026c0.901-1.589,1.722-3.038,2.543-4.486
			c-1.568-0.237-3.136-0.473-4.704-0.708c0.406-1.798,1.044-3.58,1.166-5.396c0.22-3.286-1.223-4.059-3.969-2.144
			c5.041-3.472,6.45-8.092,4.004-14.21c1.189,0.393,2.075,0.684,2.918,0.963c0.755-2.19,1.334-4.424,2.33-6.454
			c0.342-0.699,1.816-1.376,2.608-1.221c2.491,0.485,5.427,0.219,7.359,0.788c6.924,2.04,13.842,1.267,20.736,1.573
			c10.565,0.469,21.147,0.673,31.723,0.738c18.237,0.112,36.476,0.174,54.712-0.028c9.568-0.105,19.13-0.842,28.697-1.24
			c3.253-0.135,6.901,0.784,9.656-0.415c2.556-1.112,4.805-1.814,7.439-1.47c0.91,0.12,1.774,0.59,2.896,0.982
			c0.847-4.154,4.445-1.667,6.823-2.438c3.637-1.18,7.814,1.527,11.422-1.491c0.651-0.545,2.458,0.288,4.385,0.586
			c-0.479,0.797-1.353,2.249-2.226,3.701c-0.138-0.376-0.274-0.753-0.412-1.129c-1.131,0.125-2.259,0.301-3.394,0.36
			c-1.219,0.063-2.443,0.014-4.121,0.014c-4.11,6.21-4.11,6.21-3.87,9.563c1.469-1.022,3.199-3.478,4.413,0.203
			c0.837-2.099,1.673-4.197,2.887-7.24c0.62,1.496,1.582,2.724,1.5,3.878c-0.12,1.65-1.004,3.245-1.709,5.293
			c-0.133-0.114,0.566,0.485,1.196,1.025c-1.222,1.211-2.255,2.237-3.289,3.263c1.017,0.852,2.032,1.705,2.958,2.481
			c-3.846,1.95-8.02,4.066-12.194,6.182c0.118,0.397,0.235,0.794,0.354,1.191c0.749,0.303,1.474,0.72,2.253,0.886
			c2.506,0.534,3.642,1.523,1.834,4.063c-0.391,0.548-0.229,1.556-0.174,2.342c0.082,1.148,0.298,2.289,0.45,3.389
			c1.999-0.166,4.591-0.38,7.781-0.644c-4.223,4.001-5.367,2.258-7.496,13.358c-1.793,0.661-3.495,1.287-5.196,1.914
			c-1.154,1.415-2.31,2.829-3.465,4.243c-0.145,1.175-0.289,2.349-0.44,3.577c1.442,0.665,2.868,1.322,4.293,1.979l-0.094-0.106
			c0.637,3.342,3.236,4.286,6.059,4.96c-0.009,0.725-0.019,1.448-0.027,2.173c-0.262,1.303-0.523,2.607-0.983,4.897
			c1.576-0.807,2.339-1.197,3.102-1.587c-0.719,1.855-1.231,3.711-4.041,3.356c-1.021-0.129-2.209,1.071-3.205,2.578
			c2.093,0.438,4.186,0.876,6.274,1.312c-1.329,0.989-2.654,1.981-4.205,3.142c1.749,1.487,2.603,2.213,3.443,2.929
			c1.809-1.753,3.109-3.33,1.194-5.506c4.323-2.484,5.06-2.324,8.005,1.763c0.81-0.372,1.625-0.746,2.361-1.084
			c0.263,1.697,0.488,3.147,0.755,4.87c-1.628,0.263-3.285,0.529-5.253,0.847c0.592,0.938,1.053,1.669,1.049,1.661
			c-1.548,2.34-2.749,4.157-4.061,6.143c2.743,1.967,5.58,3.859,4.124,8.174c-1.142,0.265-2.552,0.593-3.41,0.792
			c1.184,2.33,2.395,4.712,3.605,7.094c-0.412,0.345-0.824,0.688-1.236,1.032c-3.794-1.684-7.487-1.064-9.104,1.529
			c-1.154-0.158-2.309-0.317-3.463-0.477c-0.181,0.268-0.36,0.535-0.541,0.803c1.287,1.114,2.635,2.168,3.842,3.361
			c1.054,1.043,1.949,2.245,2.776,3.216c-0.947,1.175-1.944,2.413-3.043,3.776c1.242,0.087,2.215,0.155,3.188,0.225
			c-0.181,1.024-0.028,2.317-0.602,3.022c-1.648,2.029-2.009,3.718-0.083,5.84c0.675,0.744,1.112,2.802,0.639,3.311
			c-2.747,2.952-1.521,5.964-1.152,9.288c0.235,2.121-2.07,4.559,2.987,5.76c-4.767,1.454-7.14,3.011-4.138,6.801
			c0.232,0.293-0.748,1.547-1.604,3.205c2.055,0.54,3.829,1.007,5.619,1.477c-0.116,0.556-0.38,1.817-0.728,3.485
			c-2.578,0.225-5.606,0.11-8.44,0.799c-14.021,3.407-28.363,2.744-42.578,3.699c-2.624,0.177-5.177,1.41-7.798,1.575
			c-5.572,0.351-11.167,0.308-16.753,0.447c-11.148,0.278-22.295,0.808-33.441,0.773c-7.669-0.024-15.341-0.731-23-1.3
			c-9.975-0.738-19.938-1.663-29.909-2.467c-5.146-0.415-10.327-0.51-15.437-1.176c-4.499-0.586-8.919-1.766-13.725-2.754
			c-0.368-4.315,4.683-3.002,6.01-5.451c-1.954-1.01-3.921-2.027-5.238-2.709c1.158-3.693,2.152-6.866,3.123-9.963
			c-2.222,0-3.594,0-4.967,0c0.238-1.334,0.331-2.715,0.753-3.987c0.46-1.387,1.227-2.673,1.858-4.001
			c-0.717,3.2,0.418,5.425,3.712,5.877c1.191,0.164,2.54-0.815,3.712-1.235c-1.187-3.613-2.927-5.237-6.125-4.816
			c-0.399,0.052-0.868-0.423-1.305-0.653c1.248-0.817,2.496-1.635,3.743-2.452c0.98-1.296,1.96-2.592,2.94-3.888
			c2.156-3.376,0.09-6.211-1.845-8.38C105.243,279.281,102.443,279.894,100.489,279.754z M107.151,313.075
			c2.557-2.24,4.584-4.017,6.884-6.031c-2.232,0.278-4.129,0.515-6.027,0.752C103.612,310.458,103.632,311.135,107.151,313.075z
			 M279.241,167.678c0.179,1.286,0.047,2.598,0.445,2.786c1.248,0.59,2.687,0.842,4.076,1.018c0.298,0.038,0.706-0.79,1.063-1.218
			c-0.874-0.444-1.738-0.911-2.625-1.325C281.382,168.555,280.538,168.227,279.241,167.678z M278.639,300.459
			c2.828,0,4.954,0,7.08,0C283.545,297.736,281.394,297.037,278.639,300.459z M282.015,188.139
			c-0.328,0.152-0.656,0.303-0.984,0.455c0.833,1.485,1.63,2.993,2.56,4.414c0.082,0.125,1.031-0.317,1.578-0.496
			c-0.831-1.376-1.65-2.759-2.51-4.117C282.558,188.237,282.234,188.221,282.015,188.139z"/>
		<path fill-rule="evenodd" clip-rule="evenodd" fill="#FFFFFF" d="M124.255,98.245c9.452-0.628,18.901-1.297,28.357-1.863
			c3.613-0.216,7.241-0.159,10.859-0.288c14.687-0.522,29.375-1.554,44.056-1.465c13.941,0.084,27.881,1.254,41.812,2.09
			c11.705,0.703,23.654,0.392,35.015,2.799c9.701,2.057,19.522,1.914,29.121,3.921c6.542,1.368,13.257,2.099,19.645,3.968
			c6.52,1.908,13.231,4.067,18.907,7.632c3.808,2.391,10.083,3.318,10.261,9.861c0.018,0.652,0.228,1.494-0.09,1.93
			c-2.69,3.708-5.497,7.148-10.224,8.668c-4.799,1.543-9.278,4.112-14.103,5.537c-5.333,1.575-10.865,2.563-16.368,3.447
			c-9.335,1.5-18.916,1.934-28.024,4.262c-10.778,2.755-21.738,2.616-32.585,3.991c-24.81,3.148-49.752,2.014-74.653,2.161
			c-11.121,0.065-22.255,0.239-33.36-0.197c-9.305-0.365-18.578-1.563-27.868-2.358c-6.073-0.521-12.181-0.746-18.216-1.536
			c-6.019-0.789-11.96-2.161-17.949-3.201c-10.922-1.898-21.89-3.557-32.759-5.719c-3.281-0.653-6.277-2.687-9.44-4.002
			c-2.019-0.839-4.075-1.61-6.165-2.25c-4.913-1.504-8.833-6.566-8.165-11.073c0.219-1.477,0.878-3.428,1.99-4.134
			c3.731-2.372,7.642-4.547,11.699-6.3c5.696-2.464,11.532-4.638,17.415-6.617c2.442-0.822,5.159-0.831,7.753-1.195
			c11.177-1.566,22.375-3.004,33.524-4.744c5.312-0.829,10.528-2.259,15.803-3.339c1.212-0.248,2.489-0.174,3.737-0.249
			C124.245,98.07,124.25,98.158,124.255,98.245z M198.598,98.063c-0.337-0.335-0.674-0.67-1.012-1.004
			c-0.87,0.893-1.74,1.787-2.609,2.68c0.958,0.779,1.914,1.559,3.622,2.948C198.598,100.202,198.598,99.132,198.598,98.063z
			 M198.601,117.257c-1.615,1.256-2.455,1.908-3.293,2.561c0.551,0.687,1.009,1.5,1.694,2.005c0.32,0.236,1.078-0.122,1.599-0.204
			C198.601,120.441,198.601,119.492,198.601,117.257z"/>
		<path fill-rule="evenodd" clip-rule="evenodd" d="M100.489,279.754c1.954,0.14,4.753-0.473,5.688,0.576
			c1.935,2.169,4.001,5.004,1.845,8.375c-1.327-1.918-2.837-3.985-5.373-2.155c-2.195,1.583-1.292,3.629,0.173,5.392
			c-0.711-0.098-1.422-0.195-2.132-0.294c-0.211,0.074-0.428,0.112-0.652,0.114C97.434,287.655,99.302,283.718,100.489,279.754z"/>
		<path fill-rule="evenodd" clip-rule="evenodd" d="M103.197,177.775c2.746-1.915,4.188-1.142,3.969,2.144
			c-0.122,1.816-0.76,3.599-1.133,5.392c-1.08,0.538-2.191,1.079-3.303,1.62C101.315,183.799,100.234,180.684,103.197,177.775z"/>
		<path fill-rule="evenodd" clip-rule="evenodd" fill="#FFFFFF" d="M278.986,212.775c1.155-1.414,2.311-2.828,3.465-4.243
			c1.09,1.183,2.18,2.367,3.446,3.741c-0.711,0.457-1.572,1.011-2.435,1.564c0.02,0.25,0.039,0.499,0.058,0.749
			c1.312-0.065,2.622-0.132,3.616-0.183c0.284,1.883,0.611,4.042,0.938,6.2c-1.776-0.793-3.553-1.586-5.329-2.38l0.094,0.106
			C282.103,216.1,282.305,213.217,278.986,212.775z"/>
		<path fill-rule="evenodd" clip-rule="evenodd" d="M101.339,295.05c0.437,0.23,0.905,0.705,1.305,0.653
			c3.198-0.421,4.938,1.203,6.125,4.816c-1.172,0.42-2.521,1.399-3.712,1.235c-3.293-0.452-4.429-2.677-3.712-5.877
			c0-0.001-0.052,0.089-0.052,0.089C101.308,295.661,101.323,295.355,101.339,295.05z"/>
		<path fill-rule="evenodd" clip-rule="evenodd" fill="#FFFFFF" d="M296.295,267.77c0.412-0.344,0.824-0.688,1.236-1.032
			c0.893-1.063,1.785-2.126,2.79-3.324c1.758,0.782,4.01,6.204,2.876,8.237c-0.29,0.519-1.373,1.148-1.706,0.978
			c-0.778-0.4-1.859-1.25-1.865-1.928C299.603,268.29,298.067,267.981,296.295,267.77z"/>
		<path fill-rule="evenodd" clip-rule="evenodd" fill="#FFFFFF" d="M103.525,202.951c0.58,1.32,1.16,2.642,1.872,4.262
			c-1.434,0.716-2.715,1.357-3.998,1.998c-3.167-0.129-3.878-1.338-2.509-3.896c0.802-1.5,1.255-3.186,1.867-4.777
			C101.681,201.349,102.603,202.149,103.525,202.951z"/>
		<path fill-rule="evenodd" clip-rule="evenodd" d="M102.73,186.931c1.112-0.541,2.223-1.083,3.303-1.62
			c1.536,0.24,3.103,0.476,4.671,0.713c-0.821,1.448-1.642,2.897-2.543,4.486c-2.251-2.399-4.358-1.844-6.403,0.012
			c0.359-0.901,0.707-1.787,1.055-2.673C102.785,187.543,102.757,187.237,102.73,186.931z"/>
		<path fill-rule="evenodd" clip-rule="evenodd" fill="#FFFFFF" d="M291.712,225.82c2.022,0.716,4.047,1.432,6.15,2.176
			c-1.274,1.821-2.271,3.246-3.684,5.266c-3.062,0.63-1.873-3.302-3.431-4.57c1.049,0.214,2.095,0.427,3.855,0.783
			c-1.299-1.753-2.038-2.753-2.778-3.752L291.712,225.82z"/>
		<path fill-rule="evenodd" clip-rule="evenodd" fill="#FFFFFF" d="M102.812,187.849c-0.348,0.886-0.696,1.772-1.055,2.673
			c-0.717,0.789-1.424,1.563-2.13,2.337c-1.229-0.9-2.458-1.8-4.534-3.321c1.645-0.814,3.051-1.511,4.483-2.222
			C100.224,187.423,101.518,187.635,102.812,187.849z"/>
		<path fill-rule="evenodd" clip-rule="evenodd" fill="#FFFFFF" d="M288.776,225.357c0.009-0.725,0.019-1.448,0.027-2.174
			c0.185-0.331,0.369-0.66,0.554-0.99c3.247-2.574,4.418-2.376,5.92,0.445c-1.271,1.135-2.419,2.158-3.565,3.182l0.113-0.098
			C290.81,225.602,289.793,225.479,288.776,225.357z"/>
		<path fill-rule="evenodd" clip-rule="evenodd" fill="#FFFFFF" d="M96.296,264.31c-0.719,0.984-1.4,2.759-2.164,2.795
			c-1.839,0.088-3.718-0.638-5.581-1.035c0.05-0.408,0.1-0.815,0.149-1.223c2.166-0.408,4.333-0.818,6.499-1.227
			C95.565,263.85,95.931,264.079,96.296,264.31z"/>
		<path fill-rule="evenodd" clip-rule="evenodd" d="M290.355,236.479c1.915,2.176,0.614,3.753-1.194,5.506
			c-0.841-0.716-1.694-1.441-3.443-2.929c1.551-1.16,2.876-2.152,4.205-3.142C290.069,236.104,290.212,236.291,290.355,236.479z"/>
		<path fill-rule="evenodd" clip-rule="evenodd" d="M103.525,202.951c-0.922-0.802-1.844-1.602-2.768-2.413
			c-0.012-0.725-0.021-1.44-0.031-2.154c1.29-0.163,2.581-0.326,3.871-0.489C104.24,199.58,103.882,201.266,103.525,202.951z"/>
		<path fill-rule="evenodd" clip-rule="evenodd" d="M288.776,225.357c1.017,0.121,2.033,0.244,3.049,0.365
			c0.74,0.999,1.479,1.999,2.778,3.752c-1.761-0.356-2.807-0.569-3.855-0.783c-0.003-0.003,0.142-0.018,0.144-0.021
			c-0.76,0.387-1.522,0.777-3.099,1.584C288.253,227.965,288.515,226.66,288.776,225.357z"/>
		<path fill-rule="evenodd" clip-rule="evenodd" fill="#FFFFFF" d="M105.55,159.786c-2.396,0.544-3.927,0.892-5.459,1.24
			c-0.145-0.361-0.29-0.722-0.435-1.083c0.807-1.105,1.615-2.211,2.935-4.017C103.395,156.975,104.037,157.812,105.55,159.786z"/>
		<path fill-rule="evenodd" clip-rule="evenodd" d="M289.357,222.193c-0.185,0.33-0.369,0.659-0.554,0.99
			c-2.822-0.673-5.422-1.617-6.059-4.959c1.776,0.794,3.553,1.587,5.329,2.38C288.502,221.135,288.93,221.663,289.357,222.193z"/>
		<path fill-rule="evenodd" clip-rule="evenodd" fill="#FFFFFF" d="M292.664,293.345c1.618,0.949,3.236,1.899,5.314,3.118
			c-1.354,0.73-2.262,1.22-3.139,1.692c-0.998-1.311-1.861-2.444-2.726-3.579C292.298,294.166,292.48,293.755,292.664,293.345z"/>
		<path fill-rule="evenodd" clip-rule="evenodd" fill="#FFFFFF" d="M303.625,303.921c-0.527-1.469-0.973-2.706-1.609-4.477
			c1.563,0,2.938,0,4.57,0C305.522,301.051,304.701,302.294,303.625,303.921z"/>
		<path fill-rule="evenodd" clip-rule="evenodd" fill="#FFFFFF" d="M290.132,215.403c0.72-1.356,1.261-2.872,2.253-3.986
			c0.367-0.413,1.795,0.12,3.456,0.3c-2.165,1.705-3.584,2.822-5.004,3.939C290.602,215.572,290.367,215.487,290.132,215.403z"/>
		<path fill-rule="evenodd" clip-rule="evenodd" fill="#FFFFFF" d="M101.339,295.05c-0.016,0.306-0.031,0.611-0.046,0.917
			c-0.432-1.376-0.864-2.752-1.296-4.127c0.169,0.316,0.339,0.633,0.508,0.948c0.063-0.38,0.124-0.76,0.186-1.141
			c0.71,0.099,1.421,0.196,2.127,0.294c0.751,0.219,1.507,0.438,2.264,0.656C103.834,293.415,102.586,294.232,101.339,295.05z"/>
		<path fill-rule="evenodd" clip-rule="evenodd" d="M100.69,291.647c-0.062,0.381-0.124,0.761-0.186,1.141
			c-0.169-0.315-0.339-0.632-0.508-0.948c0.001-0.001,0.041-0.077,0.041-0.078C100.262,291.76,100.479,291.722,100.69,291.647z"/>
		<path fill-rule="evenodd" clip-rule="evenodd" fill="#FFFFFF" d="M105.082,292.598c-0.757-0.219-1.513-0.438-2.264-0.656
			c-1.461-1.763-2.364-3.809-0.168-5.392c2.536-1.83,4.046,0.237,5.373,2.155C107.042,290.006,106.062,291.302,105.082,292.598z"/>
		<path fill-rule="evenodd" clip-rule="evenodd" d="M107.151,313.075c-3.52-1.94-3.54-2.617,0.857-5.279
			c1.897-0.237,3.794-0.474,6.027-0.752C111.735,309.059,109.708,310.835,107.151,313.075z"/>
		<path fill-rule="evenodd" clip-rule="evenodd" d="M279.241,167.678c1.297,0.549,2.141,0.877,2.96,1.261
			c0.887,0.415,1.751,0.881,2.625,1.325c-0.357,0.428-0.766,1.256-1.063,1.218c-1.39-0.176-2.828-0.428-4.076-1.018
			C279.288,170.275,279.42,168.964,279.241,167.678z"/>
		<path fill-rule="evenodd" clip-rule="evenodd" d="M278.639,300.459c2.755-3.422,4.906-2.723,7.08,0
			C283.593,300.459,281.467,300.459,278.639,300.459z"/>
		<path fill-rule="evenodd" clip-rule="evenodd" d="M278.986,212.775c3.318,0.441,3.116,3.324,3.853,5.556
			c-1.425-0.656-2.851-1.313-4.293-1.979C278.697,215.124,278.842,213.95,278.986,212.775z"/>
		<path fill-rule="evenodd" clip-rule="evenodd" d="M282.015,188.139c0.22,0.082,0.543,0.098,0.644,0.256
			c0.859,1.358,1.679,2.741,2.51,4.117c-0.547,0.179-1.496,0.621-1.578,0.496c-0.93-1.421-1.727-2.929-2.56-4.414
			C281.358,188.442,281.687,188.291,282.015,188.139z"/>
		<path fill-rule="evenodd" clip-rule="evenodd" d="M198.598,98.063c0,1.069,0,2.14,0,4.624c-1.708-1.389-2.664-2.168-3.622-2.948
			c0.87-0.893,1.74-1.787,2.609-2.68C197.924,97.393,198.261,97.728,198.598,98.063z"/>
		<path fill-rule="evenodd" clip-rule="evenodd" d="M198.601,117.257c0,2.235,0,3.184,0,4.362c-0.521,0.083-1.279,0.44-1.599,0.204
			c-0.685-0.506-1.144-1.318-1.694-2.005C196.146,119.166,196.985,118.514,198.601,117.257z"/>
	</g>
</g>
</svg>
