<?xml version="1.0" encoding="utf-8"?>
<!-- Generator: Adobe Illustrator 16.0.0, SVG Export Plug-In . SVG Version: 6.00 Build 0)  -->
<!DOCTYPE svg PUBLIC "-//W3C//DTD SVG 1.1//EN" "http://www.w3.org/Graphics/SVG/1.1/DTD/svg11.dtd">
<svg version="1.1" id="Layer_1" xmlns="http://www.w3.org/2000/svg" xmlns:xlink="http://www.w3.org/1999/xlink" x="0px" y="0px"
	 width="690.847px" height="374.302px" viewBox="0 0 690.847 374.302" enable-background="new 0 0 690.847 374.302"
	 xml:space="preserve">
<g>
	<g>
		<path fill-rule="evenodd" clip-rule="evenodd" fill="#FFFFFF" d="M0.75,375.053c0-124.768,0-249.536,0-374.303
			c230.282,0,460.564,0,690.847,0c0,124.767,0,249.535,0,374.303C461.314,375.053,231.032,375.053,0.75,375.053z M182.955,267.133
			c0.468-0.023,1.571-0.108,2.675-0.126c21.844-0.343,43.718,0.63,65.426-3.343c9.194-1.683,18.675-1.817,28.031-2.597
			c8.076-0.672,16.157-1.256,24.236-1.895c0.738-0.058,1.786,0.037,2.152-0.395c4.86-5.73,12.736-3.664,18.561-7.187
			c1.966-1.189,3.564-1.945,3.9-4.158c0.354-2.332,0-4.348-2.706-5.414c-1.274-0.502-2.476-1.704-3.238-2.893
			c-2.492-3.886-4.656-7.981-7.151-11.866c-3.926-6.112-8.04-12.104-12.035-18.174c-3.906-5.932-7.743-11.908-11.647-17.841
			c-4.024-6.116-8.02-12.251-12.161-18.289c-3.986-5.811-8.217-11.456-12.2-17.27c-3.363-4.908-6.63-9.89-9.743-14.961
			c-2.496-4.067-3.92-9.121-7.211-12.294c-4.852-4.679-7.183-10.81-11.21-15.886c-3.594-4.53-6.764-9.394-10.208-14.046
			c-1.971-2.663-4.388-5.027-6.126-7.823c-3.324-5.346-6.15-11.001-9.479-16.343c-2.863-4.594-6.175-8.905-9.222-13.386
			c-3.872-5.694-7.653-11.45-11.516-17.15c-2.347-3.463-4.925-6.78-7.121-10.334c-2.016-3.263,0.256-4.796,3.986-5.899
			c-3.161-2.389-5.099-1.438-6.996,0.282c-2.309-2.576-4.414-2.44-6.09,0.437c-0.611,1.051-0.978,2.261-1.673,3.246
			c-5.08,7.202-10.25,14.341-15.322,21.548c-4.152,5.899-6.794,12.799-12.092,17.968c-1.042,1.016-1.305,2.837-1.902,4.297
			c-0.318,0.776-0.429,1.68-0.891,2.348c-5.726,8.28-11.58,16.472-17.22,24.809c-2.37,3.503-4.09,7.448-6.492,10.926
			c-5.463,7.916-11.344,15.545-16.72,23.517c-5.281,7.832-10.039,16.015-15.229,23.91c-4.119,6.269-8.597,12.299-12.811,18.507
			c-2.973,4.378-5.766,8.88-8.647,13.321c-3.195,4.924-6.379,9.854-9.604,14.76c-2.729,4.151-5.58,8.223-8.229,12.422
			c-1.09,1.729-1.576,3.85-2.714,5.537c-2.901,4.297-5.975,8.479-9.062,12.646c-1.25,1.687-2.933,3.081-4.014,4.856
			c-0.93,1.526-1.807,3.435-1.708,5.114c0.064,1.089,1.75,2.497,3.016,3.024c5.027,2.094,10.157,3.95,15.286,5.788
			c2.75,0.985,5.523,2.141,8.382,2.551c9.589,1.378,19.198,2.714,28.844,3.57c8.515,0.756,17.049,0.622,25.535,2.461
			c5.9,1.277,12.178,0.973,18.291,1.083c14.86,0.267,29.723,0.358,44.584,0.535c1.075,0.013,2.147,0.146,3.012,0.207
			c0,1.566-0.164,2.877,0.107,4.091c0.073,0.33,1.988,0.722,2.147,0.481C181.53,270.614,182.019,269.219,182.955,267.133z
			 M365.182,217.216c-0.335-0.007-0.669-0.015-1.003-0.022c-0.142-2.027-0.404-4.054-0.405-6.081
			c-0.019-34.21,0.102-68.421-0.057-102.631c-0.054-11.521-0.801-23.039-1.206-34.558c-0.021-0.606,0.208-1.216,0.283-1.829
			c0.267-2.195,0.565-4.389,0.759-6.59c0.158-1.793,0.182-3.598,0.275-5.653c4.801,0.323,6.322,6.609,11.456,5.844
			c-1.959-4.901-3.725-9.14-5.351-13.432c-1.941-5.12-3.845-10.258-5.604-15.441c-0.893-2.633-1.424-5.388-2.139-8.082
			c-0.266-1-0.589-1.983-0.886-2.974c-0.904,0.364-1.81,0.728-2.169,0.873c0.234,2.09,0.848,3.678,0.479,4.989
			c-1.131,4.021-2.593,7.951-4.009,11.887c-1.74,4.835-3.709,9.594-5.295,14.478c-0.918,2.822-1.275,5.826-1.877,8.716
			c5.192-0.619,5.56-7.455,11.341-6.7c0,52.506,0,104.813,0,158.128c-3.974-3.805-7.213-6.907-10.451-10.01
			c-0.329,0.214-0.657,0.428-0.986,0.642c0.167,1.142,0.171,2.338,0.531,3.414c1.126,3.349,2.238,6.716,3.626,9.961
			c3.552,8.306,7.144,16.574,7.858,25.755c0.06,0.77,1.064,1.466,1.63,2.196c0.649-0.63,1.705-1.164,1.881-1.907
			c0.898-3.798,1.315-7.721,2.379-11.464c1.639-5.774,3.752-11.413,5.497-17.16c1.005-3.312,1.682-6.722,2.505-10.088
			c-0.521-0.262-1.044-0.522-1.565-0.783C370.181,211.533,367.681,214.375,365.182,217.216z M295,293.24
			c-0.348,0.356-0.695,0.712-1.043,1.068c-27.363,0-54.727,0-83.266,0c2.075-2.389,3.46-3.883,4.727-5.471
			c1.206-1.513,4.361-2.109,2.449-5.396c-0.901,0.116-1.921,0.063-2.801,0.39c-9.031,3.352-18.042,6.756-27.052,10.166
			c-2.465,0.933-4.958,1.819-7.322,2.968c-0.723,0.352-1.056,1.506-1.567,2.292c0.877,0.229,1.746,0.604,2.635,0.661
			c2.38,0.154,4.777,0.069,7.152,0.269c3.842,0.322,7.581,0.955,10.375,4.089c0.405,0.455,1.429,0.323,2.141,0.544
			c3.868,1.195,7.689,2.566,11.607,3.56c1.665,0.422,3.525,0.07,5.411,0.07c-2.575-3.307-4.654-5.977-7.12-9.141
			c28.515,0,56.101,0,84.755,0c-2.607,2.928-4.538,5.052-6.409,7.225c-0.538,0.624-0.908,1.393-1.354,2.094
			c0.904,0.216,1.913,0.805,2.693,0.585c3.649-1.031,7.246-2.251,10.837-3.473c2.72-0.924,5.386-2.012,8.109-2.925
			c5.034-1.689,9.693-5.512,15.575-2.253c1.753,0.972,2.862-0.504,2.467-2.358c-0.208-0.976-1.081-1.811-1.151-1.922
			c0.466-2.793,0.814-4.885,1.205-7.23c-4.639,0.168-3.642,3.404-4.33,5.792c-2.007-0.369-3.871-0.522-5.611-1.069
			c-5.955-1.868-11.895-3.796-17.783-5.862c-3.217-1.13-6.343-2.534-9.468-3.911c-2.249-0.991-3.11,0.156-3.683,1.713
			C289.935,288.367,292.468,290.804,295,293.24z M589.241,226.54c2.021,0.698,4.571,0.797,5.179,1.935
			c1.859,3.481,2.707,7.495,4.498,11.022c0.776,1.53,2.758,2.811,4.464,3.352c0.814,0.258,2.966-1.265,3.294-2.349
			c1.25-4.133,2.027-8.411,2.936-12.645c0.569-2.651,0.916-5.357,1.617-7.972c1.222-4.556,2.801-9.019,3.922-13.597
			c0.824-3.37,1.029-6.889,1.786-10.279c0.222-0.995,1.211-2.107,2.146-2.608c7.15-3.832,14.921-1.971,22.25-1.325
			c3.134,0.275,5.202,0.858,7.589-2.062c-1.798-0.25-3.317-0.637-4.839-0.645c-7.102-0.035-14.207-0.04-21.307,0.103
			c-2.808,0.057-5.93-0.119-8.28,1.061c-1.28,0.643-1.272,3.897-1.8,5.986c-1.912,7.577-3.844,15.148-5.689,22.742
			c-1.088,4.476-2.029,8.987-3.166,14.063c-1.85-2.978-3.284-5.716-5.158-8.108c-0.868-1.108-2.678-2.269-3.913-2.128
			C592.622,223.334,589.399,222.809,589.241,226.54z M628.11,233.273c-0.017-0.498-0.032-0.996-0.047-1.494
			c1.89-1.532,3.582-3.46,5.707-4.521c5.634-2.813,9.495-12.918,6.686-18.394c-0.253-0.492-0.874-0.786-1.291-1.205
			c-3.23-3.253-7.357-2.233-11.201-2.236c-6.282-0.006-8.7,3.854-6.243,9.784c4.033,0.35,5.216-2.38,5.798-6.111
			c2.388,0.255,5.019-0.175,6.593,0.918c1.385,0.96,2.563,3.913,2.101,5.472c-0.818,2.758-2.405,5.916-4.661,7.473
			c-3.502,2.419-7.232,4.436-9.597,8.086c-1.064,1.643-1.678,3.578-2.935,6.35c2.312,0.569,4.477,1.433,6.688,1.574
			c3.855,0.246,7.746-0.085,11.611,0.08c2.723,0.117,5.01-1.295,5.106-3.44c0.135-3.032-2.938-2.264-4.938-2.313
			C634.363,233.216,631.235,233.273,628.11,233.273z M386.648,131.736c0.225,2.344,0.646,3.98,0.461,5.545
			c-0.196,1.671-1.021,3.26-1.469,4.912c-0.772,2.845-1.364,5.742-2.216,8.561c-1.292,4.277-2.894,8.468-4.013,12.786
			c-0.268,1.038,0.847,2.432,1.324,3.663c1.246-0.979,3.331-1.768,3.602-2.967c1.712-7.585,6.707-12.335,13.771-16.97
			c-0.691,2.578-1.146,4.193-1.557,5.82c-0.98,3.89-2.024,7.767-2.827,11.693c-0.143,0.691,0.625,2.128,1.212,2.277
			c0.858,0.218,2.159-0.149,2.866-0.746c1.273-1.076,2.245-2.508,2.879-3.248c0-2.416-0.191-4.594,0.044-6.725
			c0.352-3.176,1.151-6.302,1.477-9.479c0.216-2.109-1.052-3.038-3.238-3.091c-4.368-0.108-7.718,1.458-10.328,5.218
			c1.592-5.528,3.184-11.056,4.967-17.251C391.258,131.736,388.681,131.736,386.648,131.736z M621.466,145.76
			c0.32,3.56,0.723,7.086,0.929,10.624c0.151,2.609-0.237,5.281,0.199,7.826c0.174,1.01,1.926,1.749,2.958,2.612
			c0.657-0.884,1.865-1.757,1.882-2.653c0.112-5.722,0.221-11.469-0.211-17.167c-0.214-2.818-2.072-5.135-5.353-5.284
			c-2.923-0.134-5.857-0.028-9.084-0.028c0-2.749,0-5.205,0-8.182c-2.111,0-3.919,0-5.811,0c0,10.891,0,21.341,0,31.688
			c4.521,2.337,5.805,1.622,5.791-3.022c-0.01-3.242-0.149-6.487-0.025-9.724C612.98,146.173,614.094,145.254,621.466,145.76z
			 M582.286,181.561c0.953,3.323,3.2,3.453,5.561,3.453c13.588-0.004,27.176,0.047,40.763-0.022
			c3.546-0.019,7.092-0.596,10.635-0.565c3.464,0.031,6.923,0.527,10.386,0.788c2.439,0.184,3.516-0.854,2.808-3.654
			C629.254,181.561,606.007,181.561,582.286,181.561z M238.071,348.178c0.606,0.387,1.213,0.773,1.82,1.16
			c0.939-1.043,2.188-1.942,2.752-3.159c1.238-2.668,2.116-5.502,3.165-8.259c1.348-3.543,4.191-5.654,7.022-5.272
			c1.821,0.245,3.794,0.329,3.873-2.139c0.059-1.827,0.088-4.453-0.998-5.337c-1.798-1.465-3.54,0.398-4.894,1.944
			c-0.837,0.956-1.821,1.782-3.368,3.272c0.37-2.404,0.571-3.714,0.803-5.227c-2.629,0-4.978,0-6.168,0
			c-0.442,3.499-0.689,6.492-1.223,9.432C240.031,339.141,239.009,343.651,238.071,348.178z M529.513,175.469
			c0.435-1.978,0.773-3.518,1.111-5.057c-1.837-0.086-3.691-0.363-5.505-0.195c-1.383,0.127-2.721,1.205-4.064,1.177
			c-2.706-0.056-3.415,1.116-3.369,3.604c0.098,5.362-0.028,10.729-0.048,16.093c-0.02,5.244,0.431,5.569,5.599,4.111
			c1.93-7.066-2.004-14.935,2.911-21.874C527.091,173.927,527.874,174.426,529.513,175.469z M545.555,185.451
			c0.747,3.538,2.42,4.31,5.061,4.22c4.868-0.164,9.747,0.008,14.621,0.005c2.035,0,4.637,0.002,3.991-2.85
			c-0.279-1.233-2.729-2.689-4.275-2.79c-4.972-0.325-9.984-0.167-14.973,0.033C548.517,184.128,547.083,184.951,545.555,185.451z
			 M545.993,177.846c-0.161,0.314-0.323,0.629-0.486,0.943c1.207,0.861,2.38,2.406,3.625,2.468
			c5.691,0.28,11.403,0.168,17.107,0.144c2.172-0.009,3.623-0.789,2.946-3.554C561.444,177.846,553.72,177.846,545.993,177.846z
			 M340.208,251.471c0.982-1.697,1.983-2.658,1.93-3.557c-0.05-0.859-1.198-1.653-1.863-2.477c-0.847,0.88-2.135,1.651-2.385,2.676
			C337.722,248.802,339.026,249.849,340.208,251.471z M367.988,249.979c0.443,0.129,0.888,0.258,1.332,0.386
			c0.825-1.108,1.651-2.217,2.477-3.325c-1.051-0.689-2.103-1.38-3.152-2.07c-0.312,0.239-0.623,0.479-0.935,0.718
			C367.803,247.117,367.896,248.548,367.988,249.979z M180.395,317.145c1.001-1.499,2.058-2.387,1.986-3.171
			c-0.07-0.768-1.289-1.432-2.003-2.141c-0.62,0.632-1.757,1.279-1.738,1.891C178.668,314.641,179.509,315.532,180.395,317.145z
			 M180.764,289.075c-0.625,0.095-1.251,0.189-1.877,0.283c0.12,1.527,0.238,3.054,0.357,4.58c0.848-0.211,2.445-0.513,2.432-0.62
			C181.504,291.888,181.106,290.484,180.764,289.075z M350.22,247.732c-1.345-1.033-2.235-1.718-3.126-2.402
			c-0.472,0.771-1.41,1.622-1.295,2.292c0.14,0.814,1.063,1.844,1.851,2.069C348.151,249.836,349.023,248.692,350.22,247.732z
			 M292.878,27.152c0,0.38,0,0.761,0,1.142c1.419,0,2.838,0,4.256,0c-0.34-1.202-0.682-2.404-1.093-3.854
			C294.647,25.635,293.763,26.394,292.878,27.152z M323.277,253.253c1.123,1.948,1.702,2.955,2.282,3.961
			c0.929-0.924,1.859-1.849,2.789-2.773c-0.195-0.29-0.39-0.581-0.584-0.872C326.736,253.496,325.709,253.424,323.277,253.253z"/>
		<path fill-rule="evenodd" clip-rule="evenodd" d="M182.955,267.133c-0.937,2.086-1.425,3.481-2.217,4.676
			c-0.159,0.24-2.074-0.151-2.147-0.481c-0.271-1.214-0.107-2.524-0.107-4.091c-0.865-0.062-1.937-0.194-3.012-0.207
			c-14.861-0.177-29.724-0.269-44.584-0.535c-6.113-0.11-12.391,0.194-18.291-1.083c-8.486-1.839-17.02-1.705-25.535-2.461
			c-9.646-0.856-19.254-2.192-28.844-3.57c-2.858-0.41-5.631-1.565-8.382-2.551c-5.129-1.838-10.259-3.694-15.286-5.788
			c-1.266-0.527-2.952-1.936-3.016-3.024c-0.1-1.68,0.778-3.588,1.708-5.114c1.082-1.775,2.764-3.17,4.014-4.856
			c3.087-4.167,6.161-8.35,9.062-12.646c1.138-1.688,1.624-3.808,2.714-5.537c2.649-4.199,5.5-8.271,8.229-12.422
			c3.225-4.905,6.409-9.836,9.604-14.76c2.881-4.441,5.675-8.943,8.647-13.321c4.214-6.208,8.692-12.238,12.811-18.507
			c5.189-7.896,9.948-16.078,15.229-23.91c5.375-7.972,11.257-15.601,16.72-23.517c2.401-3.478,4.122-7.423,6.492-10.926
			c5.64-8.337,11.494-16.529,17.22-24.809c0.462-0.668,0.573-1.571,0.891-2.348c0.597-1.46,0.86-3.281,1.902-4.297
			c5.297-5.169,7.94-12.069,12.092-17.968c5.073-7.207,10.242-14.346,15.322-21.548c0.695-0.984,1.062-2.195,1.673-3.246
			c1.676-2.877,3.781-3.013,6.09-0.437c1.897-1.72,3.835-2.67,6.996-0.282c-3.729,1.103-6.001,2.636-3.986,5.899
			c2.196,3.554,4.774,6.871,7.121,10.334c3.863,5.701,7.645,11.456,11.516,17.15c3.046,4.481,6.359,8.792,9.222,13.386
			c3.329,5.342,6.155,10.997,9.479,16.343c1.738,2.795,4.155,5.16,6.126,7.823c3.444,4.652,6.614,9.516,10.208,14.046
			c4.027,5.076,6.359,11.207,11.21,15.886c3.291,3.173,4.715,8.227,7.211,12.294c3.113,5.071,6.38,10.053,9.743,14.961
			c3.983,5.814,8.213,11.459,12.2,17.27c4.141,6.037,8.137,12.172,12.161,18.289c3.904,5.933,7.741,11.909,11.647,17.841
			c3.995,6.069,8.108,12.062,12.035,18.174c2.495,3.885,4.659,7.98,7.151,11.866c0.762,1.188,1.964,2.391,3.238,2.893
			c2.707,1.066,3.06,3.082,2.706,5.414c-0.335,2.213-1.934,2.969-3.9,4.158c-5.825,3.522-13.701,1.456-18.561,7.187
			c-0.366,0.432-1.414,0.337-2.152,0.395c-8.079,0.639-16.16,1.223-24.236,1.895c-9.355,0.779-18.837,0.914-28.031,2.597
			c-21.708,3.973-43.582,3-65.426,3.343C184.526,267.024,183.423,267.109,182.955,267.133z M158.219,104.221
			c-0.746,0.936-1.492,1.872-2.245,2.816c3.277,3.219,6.409,1.923,9.483-0.533c1.346-0.706,2.693-1.41,4.038-2.116
			c0.611,1.33,1.879,2.765,1.685,3.964c-0.321,1.983-1.584,3.813-2.451,5.708c0.023-0.861,0.305-1.833-0.005-2.552
			c-0.318-0.737-1.132-1.424-1.892-1.734c-0.371-0.151-1.592,0.606-1.593,0.954c-0.003,1.004,0.128,2.312,0.763,2.921
			c0.542,0.521,1.853,0.24,2.824,0.314c-0.854,0.868-1.709,1.737-2.564,2.604c-1.27,1.989-3.528,4-3.481,5.958
			c0.034,1.434,3.093,2.796,4.804,4.189c0.319,0.883,1.117,2.374,0.885,2.556c-4.1,3.229,1.654,4.992,1.056,7.624
			c0.58-0.113,1.16-0.226,1.739-0.339c0.315-0.011,0.63-0.022,0.945-0.033c-0.329,2.209-0.659,4.418-1.07,7.183
			c1.693,1.665,1.614,5.483-0.806,7.234c-1.671-1.331-3.342-2.662-5.345-4.258c-0.974,1.099-2.396,2.703-4.463,5.036
			c3.815-0.379,6.813-0.677,9.81-0.975c1.353,0.111,2.707,0.223,5.077,0.417c-1.026,2.195-1.92,4.109-2.814,6.023
			c-0.773,0.404-1.546,0.808-2.319,1.211c1.508,1.003,3.018,2.005,4.665,3.1c-0.683,0.532-2.142,1.194-2.824,2.325
			c-0.809,1.34-1.824,3.811-1.228,4.529c2.826,3.408,2.243,6.911,1.325,9.56c1.422,1.538,2.353,2.544,3.283,3.55
			c-0.006,0.631-0.011,1.262-0.017,1.893c-0.486,1.873-0.971,3.746-1.456,5.611c1.269,0.872,2.735,1.879,4.203,2.887
			c-0.354-0.103-0.703-0.248-1.063-0.301c-4.729-0.691-6.402,1.433-4.737,5.898c0.334,0.896,0.32,1.921,0.466,2.886
			c-1.121-1.031-2.244-2.063-4.096-3.766c-0.61,2.159-1.066,3.772-1.523,5.387c1.435,0.216,2.869,0.432,4.303,0.647
			c-0.127,1.41-0.253,2.819-0.399,4.444c-0.522,0.35-1.329,0.89-2.748,1.84c2.73,0.272,4.616,0.461,6.942,0.692
			c-1.642,1.873-2.867,3.269-4.082,4.653c0.624,0.752,1.19,1.435,1.756,2.118c-0.135,0.352-0.271,0.703-0.407,1.055
			c-1.992-0.427-3.984-0.853-5.977-1.28c1.495-0.661,2.18-1.363,0.237-2.406c-1.112-0.596-2.153-1.326-4-2.479
			c0.312,2.254,0.536,3.871,0.76,5.489c0.892-0.173,1.785-0.347,2.677-0.52c-1.563,2.703-3.127,5.406-5.133,8.874
			c4.111,0,7.281,0.118,10.438-0.03c3.869-0.184,7.724-0.632,11.59-0.884c2.247-0.146,4.521-0.328,6.749-0.12
			c1.552,0.145,6.28,0.369,7.869-0.095c0.456-0.133,0.993-0.11,1.47-0.029c3.006,0.511,5.991,1.375,9.012,1.522
			c5.407,0.266,10.841-0.063,16.251,0.161c8.943,0.372,17.887,0.858,26.811,1.541c6.903,0.527,13.792,1.306,20.658,2.197
			c8.722,1.133,17.421,2.45,26.115,3.789c1.76,0.271,3.419,1.203,5.18,1.464c3.563,0.528,7.164,0.805,10.75,1.186
			c0.185-0.438,0.37-0.876,0.555-1.315c-1.485-1.677-3.23-3.191-4.413-5.062c-5.625-8.896-11.031-17.929-16.651-26.826
			c-2.553-4.044-6.451-6.886-8.871-11.323c-4.014-7.364-9.592-13.863-14.364-20.827c-3.514-5.126-6.71-10.47-10.2-15.615
			c-4.533-6.687-9.211-13.276-13.84-19.898c-1.043-1.492-2.27-2.872-3.183-4.437c-1.851-3.173-3.34-6.569-5.339-9.639
			c-5.808-8.915-11.802-17.708-17.704-26.562c-2.668-4.003-5.237-8.074-7.955-12.043c-1.789-2.612-3.848-5.041-5.635-7.654
			c-2.425-3.545-4.249-7.633-7.183-10.662c-2.758-2.848-5.529-4.954-6.478-9.393c-0.709-3.318-4.078-6.068-6.263-9.072l0.082,0.113
			c0.413-3.332-1.635-4.484-4.417-4.986c-0.396-1.472-0.405-3.29-1.313-4.302c-0.682-0.762-2.724-1.007-3.797-0.577
			c-2.507,1.006-2.43,3.284-1.779,5.544c-2.005,2.661-4.01,5.321-6.771,8.985c-3.681,1.074-6.375,9.03-3.547,12.58
			c-0.945,1.641-1.569,3.123-2.552,4.309c-0.882,1.066-2.159,1.806-3.261,2.69c-0.304-0.36-0.608-0.719-0.912-1.079
			c0.714-0.929,1.561-1.79,2.086-2.816c0.261-0.509-0.069-1.321-0.132-1.996c-0.645,0.166-1.813,0.249-1.854,0.51
			c-0.407,2.568-3.336,4.706-1.272,7.732c0.572,0.839,0.629,2.031,0.905,2.999c-2.388,1.069-4.559,1.858-6.492,3.036
			c-0.47,0.287-0.164,1.849-0.215,2.825c-1.006,1.237-2.574,2.386-2.791,3.749c-0.117,0.735,2.078,1.839,3.22,2.769
			c0.113-1.48,0.176-2.468,0.265-3.453c0.094-1.034,0.214-2.065,0.323-3.097c2.119,1.097,3.675,0.944,4.826-1.538
			c0.329-0.706,2.265-1.398,2.944-1.059c1.576,0.788,2.909,2.137,4.18,3.417c0.386,0.388,0.248,1.296,0.35,1.966
			c-0.429,0.273-0.857,0.545-1.286,0.818c-0.389-1.02-0.779-2.04-1.283-3.358c-1.333,1.736-2.136,2.783-3.071,4.001
			c0.876,0.931,1.691,1.795,2.467,2.619c2.43-0.833,4.577-1.57,7.456-2.557c0.138,0.108,1.038,0.813,1.313,1.027
			c-3.115,3.132-5.756,5.789-8.406,8.439c-2.049,2.05-4.098,4.099-6.424,6.425c0.987,1.072,1.938,2.105,2.89,3.139L158.219,104.221z
			 M215.092,254.604c-0.738,0.697-2.026,1.332-2.115,2.104c-0.301,2.614-2.084,3.231-3.941,2.745c-2.108-0.552-4.007-1.9-5.87-2.838
			c-0.087,0.358-0.382,1.563-0.676,2.768c-0.374,0.02-0.749,0.04-1.124,0.06c-0.312-1.028-0.525-2.101-0.962-3.072
			c-0.435-0.967-1.093-1.831-1.653-2.74c-2.917-0.715-5.963-1.271-6.282-5.153c0.641,0.537,1.224,1.172,1.937,1.582
			c0.715,0.411,2.162,0.969,2.25,0.825c0.668-1.087,1.197-2.307,1.45-3.551c0.038-0.188-1.583-0.712-2.436-1.081
			c3.19-2.651,6.039-5.455,4.53-10.194c1.198,0.56,2.397,1.119,3.596,1.679c0.84,1.697,2.11,2.867,3.605,3.535
			c0.393,0.175,1.48-1.204,2.249-1.87c-1.292-1.182-2.583-2.363-3.904-3.572c0.063-0.473,0.188-1.399,0.312-2.328
			c-0.467,0.003-1.026-0.16-1.386,0.038c-1.529,0.841-3,1.788-4.492,2.696c0-1.605,0-3.212,0-5.839
			c-2.028,1.028-3.421,1.734-4.928,2.498c-0.401-0.562-0.875-1.223-1.347-1.883c-1.401,0.671-2.523,0.496-3.646,0.344
			c-0.858-0.116-1.72-0.297-2.579-0.293c-6.707,0.031-13.413,0.166-20.119,0.136c-5.521-0.024-10.995-0.771-16.575-0.273
			c-5.909,0.527-11.909-0.053-17.849,0.254c-7.494,0.386-14.959,1.314-22.452,1.757c-6.466,0.383-12.964,0.242-19.424,0.684
			c-2.449,0.168-4.846,1.967-7.24,1.912c-11.188-0.257-22.217,0.262-32.917,3.981c-3.939,1.368-8.042,2.272-11.956,3.704
			c-0.962,0.353-1.753,1.857-2.083,2.989c-0.186,0.637,0.542,2.082,1.181,2.33c4.274,1.657,8.534,3.643,12.993,4.465
			c6.335,1.169,12.839,1.417,19.268,2.089c0.979,0.103,1.946,0.344,2.906,0.57c5.012,1.179,9.968,2.998,15.042,3.433
			c10.661,0.913,21.38,1.376,32.083,1.525c17.592,0.246,35.19,0.097,52.786,0.108c0.998,0.001,2.028,0.093,2.981-0.128
			c0.75-0.174,1.716-0.62,1.99-1.219c0.192-0.416-0.809-1.261-0.946-1.977c-0.182-0.945-0.223-2,0.017-2.919
			c0.23-0.875,0.898-1.636,1.375-2.447c0.431,0.007,0.861,0.014,1.292,0.02c6.303,0.375,8.686,2.296,7.363,7.06
			c-1.041-2.023-1.859-3.614-2.678-5.205c-0.449,0.347-0.898,0.693-1.347,1.04c-0.605,1.671-1.211,3.341-1.963,5.413
			c6.025,0.106,12.165,2.454,15.926-4.354c-1.37,4.696-1.034,5.003,3.877,4.493c2.771-0.287,5.581-0.31,8.372-0.285
			c5.06,0.043,5.61-0.478,5.492-5.694c0.69,1.778,1.38,3.557,2.071,5.335c0.384-0.018,0.768-0.035,1.152-0.053
			c0-1.555,0.243-3.175-0.147-4.624C218.037,254.748,216.162,254.784,215.092,254.604z M160.205,136.524
			c-0.431-0.995-0.635-2.598-1.34-2.861c-1.661-0.621-3.562-0.604-5.728-0.893c-0.621,4.827-1.241,9.64-1.896,14.727
			c3.979-0.912,5.825-4.729,4.858-8.776c0.992-0.615,2.02-1.25,3.048-1.886c-1.339,2.887-0.704,5.608-0.016,8.326
			c0.358-0.015,0.716-0.031,1.074-0.045C160.205,142.252,160.205,139.388,160.205,136.524z M165.084,156.22
			c-2.146,2.386-0.881,4.688,0.731,5.45c2.855,1.347,3.015-1.61,3.977-3.421C168.149,157.541,166.737,156.932,165.084,156.22z
			 M157.898,208.213c4.434,1.533,6.657-0.65,8.59-4.693c-1.389-0.076-3-0.622-3.55-0.084c-0.769,0.752-0.747,2.313-1.183,3.99
			C160.918,207.597,159.555,207.875,157.898,208.213z M156.648,219.483c-1.404,0.199-2.93,0.416-4.457,0.633
			c-0.16,0.346-0.319,0.691-0.479,1.038c1.339,1.327,2.678,2.655,4.042,4.007C156.103,222.943,156.341,221.432,156.648,219.483z
			 M168.595,174.161c-1.915-0.899-3.454-1.623-5.733-2.693c1.238,2.407,2.061,4.008,3.037,5.907
			C166.893,176.19,167.635,175.306,168.595,174.161z M166.492,168.208c1.08-1.281,2.138-2.027,2.032-2.525
			c-0.171-0.803-1-1.765-1.767-2.03c-0.461-0.159-1.882,0.864-1.896,1.382C164.838,165.844,165.644,166.676,166.492,168.208z
			 M146.186,105.02c0-1.971,0.146-3.563-0.086-5.098c-0.072-0.481-1.162-0.808-1.786-1.206c-0.245,0.724-0.878,1.609-0.659,2.14
			C144.213,102.199,145.153,103.383,146.186,105.02z M153.746,177.46c-1.367-1.88-2.497-3.435-3.626-4.989
			c-0.205,0.222-0.41,0.444-0.616,0.667C150.767,174.575,150.608,177.605,153.746,177.46z M156.093,211.376
			c-1.292,1.141-2.305,2.032-3.316,2.925c0.393-0.286,0.786-0.572,1.179-0.858c0.618,1.43,1.236,2.858,1.854,4.289
			c0.263-0.139,0.526-0.277,0.789-0.416C156.45,215.571,156.302,213.827,156.093,211.376z"/>
		<path fill-rule="evenodd" clip-rule="evenodd" d="M365.182,217.216c2.499-2.841,4.999-5.683,7.499-8.524
			c0.521,0.261,1.044,0.521,1.565,0.783c-0.823,3.366-1.5,6.776-2.505,10.088c-1.745,5.747-3.858,11.386-5.497,17.16
			c-1.063,3.743-1.48,7.666-2.379,11.464c-0.176,0.743-1.231,1.277-1.881,1.907c-0.565-0.73-1.57-1.427-1.63-2.196
			c-0.715-9.181-4.307-17.449-7.858-25.755c-1.388-3.245-2.5-6.612-3.626-9.961c-0.36-1.076-0.364-2.272-0.531-3.414
			c0.329-0.214,0.657-0.428,0.986-0.642c3.238,3.103,6.478,6.205,10.451,10.01c0-53.315,0-105.622,0-158.128
			c-5.781-0.755-6.148,6.081-11.341,6.7c0.602-2.89,0.959-5.894,1.877-8.716c1.586-4.884,3.555-9.642,5.295-14.478
			c1.416-3.936,2.878-7.867,4.009-11.887c0.368-1.312-0.245-2.899-0.479-4.989c0.359-0.145,1.265-0.509,2.169-0.873
			c0.297,0.991,0.62,1.975,0.886,2.974c0.715,2.694,1.246,5.449,2.139,8.082c1.759,5.184,3.662,10.322,5.604,15.441
			c1.626,4.292,3.392,8.531,5.351,13.432c-5.134,0.766-6.655-5.521-11.456-5.844c-0.094,2.055-0.117,3.86-0.275,5.653
			c-0.193,2.201-0.492,4.395-0.759,6.59c-0.075,0.612-0.305,1.223-0.283,1.829c0.405,11.52,1.152,23.037,1.206,34.558
			c0.158,34.21,0.038,68.421,0.057,102.631c0.001,2.027,0.264,4.054,0.405,6.081C364.513,217.201,364.847,217.209,365.182,217.216z"
			/>
		<path fill-rule="evenodd" clip-rule="evenodd" d="M295,293.24c-2.533-2.437-5.066-4.873-7.824-7.527
			c0.573-1.557,1.434-2.704,3.683-1.713c3.125,1.377,6.25,2.781,9.468,3.911c5.889,2.066,11.829,3.994,17.783,5.862
			c1.741,0.547,3.604,0.7,5.611,1.069c0.688-2.388-0.309-5.624,4.33-5.792c-0.391,2.346-0.739,4.438-1.205,7.23
			c0.071,0.111,0.943,0.946,1.151,1.922c0.395,1.854-0.714,3.33-2.467,2.358c-5.882-3.259-10.541,0.563-15.575,2.253
			c-2.724,0.913-5.389,2.001-8.109,2.925c-3.591,1.222-7.188,2.441-10.837,3.473c-0.78,0.22-1.789-0.369-2.693-0.585
			c0.447-0.701,0.817-1.47,1.354-2.094c1.872-2.173,3.802-4.297,6.409-7.225c-28.654,0-56.24,0-84.755,0
			c2.465,3.164,4.545,5.834,7.12,9.141c-1.886,0-3.746,0.352-5.411-0.07c-3.918-0.993-7.74-2.364-11.607-3.56
			c-0.712-0.221-1.735-0.089-2.141-0.544c-2.793-3.134-6.532-3.767-10.375-4.089c-2.375-0.199-4.771-0.114-7.152-0.269
			c-0.889-0.058-1.757-0.432-2.635-0.661c0.511-0.786,0.844-1.94,1.567-2.292c2.363-1.148,4.857-2.035,7.322-2.968
			c9.009-3.41,18.021-6.814,27.052-10.166c0.88-0.326,1.9-0.273,2.801-0.39c1.912,3.287-1.244,3.884-2.449,5.396
			c-1.267,1.588-2.651,3.082-4.727,5.471c28.539,0,55.903,0,83.266,0C294.306,293.952,294.653,293.597,295,293.24z"/>
		<path fill-rule="evenodd" clip-rule="evenodd" d="M589.241,226.54c0.158-3.731,3.381-3.206,5.527-3.453
			c1.235-0.141,3.045,1.02,3.913,2.128c1.874,2.393,3.309,5.131,5.158,8.108c1.137-5.076,2.078-9.588,3.166-14.063
			c1.846-7.594,3.777-15.165,5.689-22.742c0.527-2.089,0.52-5.344,1.8-5.986c2.351-1.18,5.473-1.004,8.28-1.061
			c7.1-0.143,14.205-0.138,21.307-0.103c1.521,0.008,3.041,0.395,4.839,0.645c-2.387,2.92-4.455,2.337-7.589,2.062
			c-7.329-0.646-15.1-2.507-22.25,1.325c-0.935,0.501-1.924,1.613-2.146,2.608c-0.757,3.391-0.962,6.909-1.786,10.279
			c-1.121,4.578-2.7,9.041-3.922,13.597c-0.701,2.614-1.048,5.32-1.617,7.972c-0.908,4.233-1.686,8.512-2.936,12.645
			c-0.328,1.084-2.479,2.606-3.294,2.349c-1.706-0.541-3.688-1.821-4.464-3.352c-1.791-3.527-2.639-7.541-4.498-11.022
			C593.813,227.337,591.262,227.238,589.241,226.54z"/>
		<path fill-rule="evenodd" clip-rule="evenodd" d="M628.11,233.273c3.125,0,6.253-0.058,9.377,0.021
			c2,0.05,5.072-0.719,4.938,2.313c-0.097,2.146-2.384,3.558-5.106,3.44c-3.865-0.165-7.756,0.166-11.611-0.08
			c-2.211-0.142-4.376-1.005-6.688-1.574c1.257-2.771,1.87-4.707,2.935-6.35c2.364-3.65,6.095-5.667,9.597-8.086
			c2.256-1.557,3.843-4.715,4.661-7.473c0.463-1.559-0.716-4.512-2.101-5.472c-1.574-1.093-4.205-0.663-6.593-0.918
			c-0.582,3.731-1.765,6.461-5.798,6.111c-2.457-5.93-0.039-9.79,6.243-9.784c3.844,0.003,7.971-1.017,11.201,2.236
			c0.417,0.419,1.038,0.713,1.291,1.205c2.81,5.476-1.052,15.58-6.686,18.394c-2.125,1.062-3.817,2.989-5.707,4.521
			C628.078,232.277,628.094,232.775,628.11,233.273z"/>
		<path fill-rule="evenodd" clip-rule="evenodd" d="M386.648,131.736c2.032,0,4.609,0,6.954,0
			c-1.783,6.195-3.375,11.723-4.967,17.251c2.61-3.76,5.96-5.326,10.328-5.218c2.187,0.053,3.454,0.982,3.238,3.091
			c-0.325,3.176-1.125,6.303-1.477,9.479c-0.235,2.131-0.044,4.309-0.044,6.725c-0.634,0.74-1.605,2.172-2.879,3.248
			c-0.707,0.597-2.008,0.964-2.866,0.746c-0.587-0.149-1.354-1.586-1.212-2.277c0.803-3.927,1.847-7.804,2.827-11.693
			c0.41-1.626,0.865-3.242,1.557-5.82c-7.063,4.635-12.059,9.385-13.771,16.97c-0.271,1.199-2.355,1.989-3.602,2.967
			c-0.478-1.23-1.592-2.625-1.324-3.663c1.119-4.318,2.721-8.509,4.013-12.786c0.852-2.819,1.443-5.716,2.216-8.561
			c0.448-1.652,1.272-3.241,1.469-4.912C387.294,135.716,386.873,134.081,386.648,131.736z"/>
		<path fill-rule="evenodd" clip-rule="evenodd" d="M621.466,145.76c-7.372-0.506-8.485,0.413-8.725,6.691
			c-0.124,3.236,0.016,6.482,0.025,9.724c0.014,4.644-1.271,5.36-5.791,3.022c0-10.347,0-20.798,0-31.688c1.892,0,3.699,0,5.811,0
			c0,2.977,0,5.433,0,8.182c3.227,0,6.161-0.105,9.084,0.028c3.28,0.149,5.139,2.466,5.353,5.284
			c0.432,5.698,0.323,11.444,0.211,17.167c-0.017,0.896-1.225,1.769-1.882,2.653c-1.032-0.863-2.784-1.602-2.958-2.612
			c-0.437-2.545-0.048-5.217-0.199-7.826C622.188,152.846,621.786,149.319,621.466,145.76z"/>
		<path fill-rule="evenodd" clip-rule="evenodd" d="M582.286,181.561c23.721,0,46.968,0,70.151,0
			c0.708,2.799-0.368,3.838-2.808,3.654c-3.463-0.261-6.922-0.757-10.386-0.788c-3.543-0.031-7.089,0.546-10.635,0.565
			c-13.587,0.069-27.175,0.018-40.763,0.022C585.486,185.014,583.239,184.884,582.286,181.561z"/>
		<path fill-rule="evenodd" clip-rule="evenodd" d="M238.071,348.178c0.938-4.526,1.959-9.037,2.784-13.584
			c0.534-2.939,0.781-5.933,1.223-9.432c1.19,0,3.539,0,6.168,0c-0.232,1.513-0.434,2.822-0.803,5.227
			c1.547-1.49,2.531-2.316,3.368-3.272c1.354-1.546,3.096-3.409,4.894-1.944c1.086,0.884,1.056,3.51,0.998,5.337
			c-0.079,2.468-2.052,2.384-3.873,2.139c-2.831-0.382-5.674,1.729-7.022,5.272c-1.048,2.757-1.926,5.591-3.165,8.259
			c-0.564,1.217-1.813,2.116-2.752,3.159C239.284,348.951,238.678,348.564,238.071,348.178z"/>
		<path fill-rule="evenodd" clip-rule="evenodd" d="M529.513,175.469c-1.639-1.043-2.422-1.542-3.365-2.142
			c-4.915,6.939-0.981,14.808-2.911,21.874c-5.168,1.458-5.618,1.133-5.599-4.111c0.02-5.364,0.146-10.73,0.048-16.093
			c-0.046-2.488,0.663-3.66,3.369-3.604c1.344,0.028,2.682-1.049,4.064-1.177c1.813-0.168,3.668,0.109,5.505,0.195
			C530.286,171.951,529.947,173.491,529.513,175.469z"/>
		<path fill-rule="evenodd" clip-rule="evenodd" d="M545.555,185.451c1.528-0.5,2.962-1.323,4.425-1.382
			c4.988-0.201,10.001-0.358,14.973-0.033c1.546,0.101,3.996,1.557,4.275,2.79c0.646,2.852-1.956,2.85-3.991,2.85
			c-4.874,0.003-9.753-0.169-14.621-0.005C547.975,189.761,546.302,188.989,545.555,185.451z"/>
		<path fill-rule="evenodd" clip-rule="evenodd" d="M545.993,177.846c7.727,0,15.451,0,23.192,0
			c0.677,2.766-0.774,3.545-2.946,3.554c-5.704,0.025-11.416,0.136-17.107-0.144c-1.245-0.062-2.418-1.606-3.625-2.468
			C545.67,178.475,545.832,178.16,545.993,177.846z"/>
		<path fill-rule="evenodd" clip-rule="evenodd" d="M340.208,251.471c-1.182-1.622-2.486-2.669-2.318-3.357
			c0.25-1.024,1.539-1.796,2.385-2.676c0.665,0.823,1.813,1.617,1.863,2.477C342.19,248.813,341.19,249.773,340.208,251.471z"/>
		<path fill-rule="evenodd" clip-rule="evenodd" d="M367.988,249.979c-0.093-1.431-0.186-2.861-0.278-4.292
			c0.312-0.239,0.623-0.479,0.935-0.718c1.05,0.69,2.102,1.381,3.152,2.07c-0.825,1.108-1.651,2.217-2.477,3.325
			C368.876,250.236,368.432,250.107,367.988,249.979z"/>
		<path fill-rule="evenodd" clip-rule="evenodd" d="M180.395,317.145c-0.886-1.612-1.727-2.504-1.755-3.421
			c-0.019-0.611,1.119-1.259,1.738-1.891c0.714,0.709,1.933,1.373,2.003,2.141C182.452,314.758,181.396,315.646,180.395,317.145z"/>
		<path fill-rule="evenodd" clip-rule="evenodd" d="M180.764,289.075c0.342,1.409,0.74,2.813,0.912,4.243
			c0.013,0.107-1.584,0.409-2.432,0.62c-0.119-1.526-0.238-3.053-0.357-4.58C179.513,289.265,180.139,289.17,180.764,289.075z"/>
		<path fill-rule="evenodd" clip-rule="evenodd" d="M350.22,247.732c-1.196,0.96-2.068,2.104-2.57,1.959
			c-0.788-0.226-1.711-1.255-1.851-2.069c-0.115-0.67,0.823-1.521,1.295-2.292C347.984,246.015,348.875,246.699,350.22,247.732z"/>
		<path fill-rule="evenodd" clip-rule="evenodd" d="M292.878,27.152c0.885-0.759,1.77-1.517,3.164-2.712
			c0.411,1.45,0.752,2.652,1.093,3.854c-1.418,0-2.837,0-4.256,0C292.878,27.914,292.878,27.533,292.878,27.152z"/>
		<path fill-rule="evenodd" clip-rule="evenodd" d="M323.277,253.253c2.432,0.171,3.459,0.243,4.487,0.315
			c0.194,0.291,0.389,0.582,0.584,0.872c-0.93,0.925-1.859,1.85-2.789,2.773C324.979,256.208,324.4,255.201,323.277,253.253z"/>
		<path fill-rule="evenodd" clip-rule="evenodd" fill="#FFFFFF" d="M161.85,94.771c2.643-2.656,5.284-5.313,8.398-8.445
			c-0.274-0.214-1.174-0.918-1.313-1.027c-2.878,0.987-5.026,1.724-7.456,2.557c-0.775-0.824-1.59-1.688-2.467-2.619
			c0.935-1.219,1.738-2.266,3.071-4.001c0.504,1.318,0.894,2.338,1.283,3.358c0.429-0.272,0.857-0.545,1.286-0.818
			c-0.102-0.67,0.036-1.578-0.35-1.966c-1.271-1.28-2.604-2.629-4.18-3.417c-0.68-0.339-2.616,0.354-2.944,1.059
			c-1.151,2.482-2.707,2.634-4.826,1.538c-0.339,0.01-0.679,0.021-1.018,0.032c0.051-0.976-0.255-2.538,0.215-2.825
			c1.934-1.178,4.104-1.967,6.492-3.036c-0.276-0.968-0.333-2.16-0.905-2.999c-2.063-3.026,0.866-5.164,1.272-7.732
			c0.041-0.261,1.209-0.344,1.854-0.51c0.063,0.675,0.393,1.487,0.132,1.996c-0.525,1.026-1.372,1.887-2.086,2.816
			c0.304,0.36,0.608,0.719,0.912,1.079c1.102-0.884,2.378-1.624,3.261-2.69c0.982-1.186,1.606-2.668,2.552-4.309
			c-2.828-3.55-0.133-11.506,3.547-12.58c2.762-3.664,4.767-6.325,6.771-8.984c0.411-0.24,0.822-0.48,1.233-0.721
			c1.92,0.227,3.865,3.051,5.754-0.053l-0.098,0.107c2.782,0.502,4.83,1.654,4.423,4.994c-4.029,0.863-4.129,0.992-2.511,4.833
			c0.808-1.651,1.616-3.302,2.423-4.953c2.185,3.003,5.553,5.753,6.263,9.072c0.948,4.439,3.72,6.545,6.478,9.393
			c2.935,3.029,4.758,7.116,7.183,10.662c1.788,2.613,3.847,5.042,5.635,7.654c2.718,3.969,5.287,8.04,7.955,12.043
			c5.902,8.854,11.896,17.646,17.704,26.562c1.999,3.07,3.489,6.466,5.339,9.639c0.913,1.565,2.14,2.944,3.183,4.437
			c4.629,6.622,9.307,13.211,13.84,19.898c3.489,5.145,6.686,10.488,10.2,15.615c4.772,6.964,10.351,13.463,14.364,20.827
			c2.419,4.438,6.317,7.279,8.871,11.323c5.62,8.897,11.027,17.931,16.651,26.826c1.182,1.87,2.927,3.385,4.413,5.062
			c-0.185,0.439-0.37,0.877-0.555,1.315c-3.585-0.381-7.186-0.657-10.75-1.186c-1.76-0.261-3.419-1.192-5.18-1.464
			c-8.694-1.339-17.393-2.656-26.115-3.789c-6.866-0.892-13.755-1.67-20.658-2.197c-8.924-0.683-17.868-1.169-26.811-1.541
			c-5.41-0.225-10.844,0.104-16.251-0.161c-3.021-0.147-6.006-1.012-9.012-1.522c-0.478-0.081-1.015-0.104-1.47,0.029
			c-1.589,0.464-6.316,0.239-7.869,0.095c-2.228-0.208-4.502-0.026-6.749,0.12c-3.866,0.252-7.721,0.7-11.59,0.884
			c-3.157,0.148-6.327,0.03-10.438,0.03c2.006-3.468,3.57-6.171,5.132-8.874c0.109-0.037,0.218-0.065,0.326-0.084
			c1.993,0.428,3.984,0.854,5.977,1.28c0.136-0.352,0.272-0.703,0.407-1.055c-0.566-0.684-1.133-1.366-1.756-2.118
			c1.214-1.385,2.439-2.78,4.082-4.653c-2.326-0.231-4.211-0.42-6.942-0.692c1.419-0.95,2.226-1.49,2.748-1.84
			c0.146-1.625,0.272-3.034,0.386-4.437c0.434-0.754,0.882-1.515,1.329-2.276c-0.146-0.965-0.132-1.99-0.466-2.886
			c-1.665-4.466,0.008-6.59,4.737-5.898c0.361,0.053,0.709,0.198,1.061,0.302c0.016-0.02,0.104-0.068,0.263-0.145
			c1.876-0.419,3.752-0.839,5.135-1.148c-0.937-2.597-1.97-5.46-3.004-8.324c1.385-0.398,2.771-0.797,4.361-1.255
			c-0.267-0.678-0.324-1.394-0.708-1.702c-2.809-2.255-5.038-1.674-8.775,2.183c-0.931-1.005-1.861-2.012-3.283-3.55
			c0.918-2.649,1.501-6.152-1.325-9.56c-0.596-0.719,0.419-3.189,1.228-4.529c0.683-1.131,2.142-1.792,2.824-2.325
			c-1.647-1.095-3.156-2.097-4.665-3.1c0.773-0.403,1.546-0.807,2.319-1.211c0.895-1.914,1.789-3.828,2.814-6.023
			c-2.371-0.195-3.724-0.306-5.078-0.417c0,0,0,0.197,0,0.197c2.419-1.751,2.499-5.569,0.806-7.234
			c0.412-2.765,0.741-4.973,1.07-7.183c0.404-0.993,0.809-1.986,1.053-2.587c1.928-0.31,3.488-0.561,5.048-0.812
			c-0.041-0.326-0.081-0.652-0.121-0.978c-1.45,0-2.906-0.076-4.35,0.016c-2.965,0.189-4.028,1.576-2.575,4.395
			c-0.579,0.113-1.159,0.226-1.739,0.339c0.598-2.632-5.156-4.395-1.056-7.624c0.232-0.182-0.566-1.673-0.871-2.556
			c0.889-0.563,1.764-1.126,2.639-1.688c0,0,0-0.133,0-0.133c-0.274-1.574-0.94-3.201-0.737-4.711
			c0.371-2.749-0.433-3.949-3.238-3.614c0.855-0.868,1.71-1.737,2.564-2.604l-0.097,0.096c0.867-1.894,2.13-3.724,2.451-5.707
			c0.194-1.199-1.074-2.634-1.685-3.964c-6.163-2.041-7.024-2.982-6.362-6.946C162.705,96.552,162.277,95.661,161.85,94.771z
			 M172.997,71.749c0.214,0.762,0.428,1.523,0.642,2.286c0.833-0.526,1.667-1.052,2.501-1.578c0.027,0.352,0.055,0.703,0.082,1.055
			c1.507-0.116,3.321,0.264,4.467-0.441c3.55-2.187,0.527-4.266-0.375-6.622c-2.315,1.512-4.438,2.898-6.56,4.285
			c0.929-2.777-1.255-2.294-2.698-2.559c-1.833-0.335-3.673-0.639-5.791-1.005c-0.057,0.283-0.415,1.492-0.293,1.542
			C167.614,69.8,170.311,70.763,172.997,71.749z M195.65,152.425c-1.005,0.737-1.946,1.427-2.991,2.193
			c1.159,1.905,2.177,3.576,3.194,5.247C196.372,157.11,199.64,154.524,195.65,152.425z M180.514,165.741
			c-0.432,0.119-0.862,0.237-1.293,0.357c-0.098,1.738-0.197,3.477-0.335,5.912c1.327-0.509,2.97-0.963,2.94-1.157
			C181.556,169.123,180.991,167.439,180.514,165.741z M186.112,151.999c-1.391,1.248-2.397,2.151-3.405,3.053
			c0.168,0.281,0.336,0.562,0.504,0.843c1.498-0.102,2.996-0.203,5.033-0.341C187.361,154.081,186.823,153.183,186.112,151.999z
			 M178.298,78.485c-0.354-0.041-0.708-0.082-1.062-0.123c0,1.651-0.126,3.323,0.138,4.932c0.039,0.236,1.922,0.171,3.15,0.261
			C179.601,81.453,178.949,79.969,178.298,78.485z"/>
		<path fill-rule="evenodd" clip-rule="evenodd" fill="#FFFFFF" d="M197.337,256.012c-3.761,6.808-9.901,4.46-15.926,4.354
			c0.751-2.072,1.357-3.742,1.963-5.413c0.449-0.347,0.897-0.693,1.347-1.04c0.819,1.591,1.637,3.182,2.678,5.205
			c1.323-4.764-1.06-6.685-7.362-7.06c1.669-2.765,3.337-5.529,5.456-9.037c-3.308,0.773-5.937,1.389-9.387,2.195
			c0.848-1.737,1.246-2.554,1.981-4.061c-1.886,1.108-3.093,1.816-3.78,2.22c1.61,3.144,3.023,5.903,4.437,8.663
			c-0.477,0.812-1.145,1.572-1.375,2.447c-0.24,0.919-0.199,1.974-0.017,2.919c0.137,0.716,1.138,1.561,0.946,1.977
			c-0.274,0.599-1.241,1.045-1.99,1.219c-0.953,0.221-1.983,0.129-2.981,0.128c-17.596-0.012-35.194,0.138-52.786-0.108
			c-10.702-0.149-21.422-0.612-32.083-1.525c-5.075-0.435-10.03-2.254-15.042-3.433c-0.96-0.227-1.928-0.468-2.906-0.57
			c-6.429-0.672-12.933-0.92-19.268-2.089c-4.459-0.822-8.719-2.808-12.993-4.465c-0.639-0.248-1.367-1.693-1.181-2.33
			c0.33-1.132,1.12-2.637,2.083-2.989c3.914-1.432,8.017-2.336,11.956-3.704c10.701-3.72,21.73-4.238,32.917-3.981
			c2.395,0.055,4.791-1.744,7.24-1.912c6.46-0.441,12.958-0.301,19.424-0.684c7.493-0.442,14.958-1.371,22.452-1.757
			c5.939-0.307,11.939,0.273,17.849-0.254c5.58-0.497,11.054,0.249,16.575,0.273c6.707,0.03,13.413-0.104,20.119-0.136
			c0.859-0.004,1.721,0.177,2.579,0.293c1.124,0.152,2.245,0.327,3.646-0.344c0.473,0.66,0.946,1.321,1.347,1.883
			c1.507-0.764,2.899-1.47,4.928-2.498c0,2.627,0,4.233,0,5.838c0.001,0,0.019-0.177,0.019-0.177
			c1.509,4.739-1.34,7.543-4.523,10.195c-1.077-0.124-2.162-0.249-3.246-0.373c0.013,0.865,0.026,1.731,0.038,2.597
			c0.319,3.882,3.365,4.438,6.282,5.153C198.28,254.425,197.809,255.219,197.337,256.012z M183.076,233.725
			c0.018,0.32,0.035,0.642,0.053,0.962c2.37,0.747,4.729,1.272,6.917-0.962C187.723,233.725,185.399,233.725,183.076,233.725z
			 M177.971,234.664c-1.83,1.799-3.103,2.806-4.02,4.071c-0.362,0.498,0.068,1.571,0.138,2.382c0.624-0.437,1.49-0.738,1.822-1.337
			C176.601,238.531,177.009,237.126,177.971,234.664z"/>
		<path fill-rule="evenodd" clip-rule="evenodd" fill="#FFFFFF" d="M159.147,136.835c-1.028,0.636-2.056,1.271-3.048,1.886
			c0.967,4.046-0.879,7.864-4.858,8.776c0.656-5.087,1.275-9.9,1.896-14.727c2.166,0.289,4.066,0.271,5.728,0.893
			c0.705,0.264,0.909,1.866,1.34,2.861C159.853,136.628,159.5,136.731,159.147,136.835z"/>
		<path fill-rule="evenodd" clip-rule="evenodd" d="M166.262,116.568c2.806-0.335,3.609,0.865,3.238,3.614
			c-0.203,1.51,0.463,3.137,0.738,4.711c-0.234-0.123-0.469-0.246-0.703-0.369c-0.026,0.199-0.054,0.398-0.08,0.598
			c0.261-0.031,0.522-0.063,0.783-0.095c-0.875,0.563-1.75,1.126-2.639,1.688c-1.725-1.393-4.784-2.756-4.818-4.189
			C162.734,120.568,164.992,118.557,166.262,116.568z"/>
		<path fill-rule="evenodd" clip-rule="evenodd" d="M178.744,252.038c-1.413-2.76-2.826-5.52-4.437-8.663
			c0.687-0.403,1.894-1.111,3.78-2.22c-0.735,1.507-1.134,2.323-1.981,4.061c3.45-0.807,6.079-1.422,9.387-2.195
			c-2.119,3.508-3.787,6.272-5.456,9.037C179.605,252.052,179.175,252.045,178.744,252.038z"/>
		<path fill-rule="evenodd" clip-rule="evenodd" fill="#FFFFFF" d="M197.337,256.012c0.472-0.793,0.943-1.587,1.415-2.381
			c0.56,0.909,1.219,1.773,1.653,2.74c0.437,0.972,0.651,2.044,0.962,3.072c0.375-0.02,0.75-0.04,1.124-0.06
			c0.294-1.205,0.588-2.409,0.676-2.768c1.863,0.938,3.762,2.286,5.87,2.838c1.857,0.486,3.64-0.131,3.941-2.745
			c0.089-0.772,1.376-1.407,2.115-2.104l-0.024-0.109c0.127,5.247-0.423,5.768-5.483,5.725c-2.791-0.024-5.6-0.002-8.372,0.285
			C196.303,261.015,195.967,260.708,197.337,256.012z"/>
		<path fill-rule="evenodd" clip-rule="evenodd" d="M163.133,97.442c-0.662,3.964,0.2,4.905,6.362,6.946
			c-1.345,0.706-2.692,1.41-4.038,2.116c-0.521-0.637-1.042-1.274-1.563-1.911c-0.062,0.238-0.124,0.476-0.186,0.714
			c-1.83-0.363-3.66-0.725-5.49-1.086l0.088,0.108C159.916,102.033,161.524,99.737,163.133,97.442z"/>
		<path fill-rule="evenodd" clip-rule="evenodd" fill="#FFFFFF" d="M200.201,236.059c0,0-0.018,0.177-0.019,0.177
			c1.492-0.907,2.962-1.854,4.491-2.695c0.36-0.198,0.918-0.035,1.386-0.038c-0.125,0.929-0.249,1.855-0.312,2.328
			c1.321,1.209,2.612,2.391,3.904,3.572c-0.769,0.666-1.856,2.045-2.249,1.87c-1.495-0.668-2.765-1.838-3.605-3.535
			C202.599,237.178,201.399,236.618,200.201,236.059z"/>
		<path fill-rule="evenodd" clip-rule="evenodd" d="M175.499,181.457c3.738-3.856,5.966-4.438,8.775-2.183
			c0.384,0.308,0.44,1.024,0.708,1.702c-1.591,0.458-2.976,0.857-4.361,1.255c-0.375,0.101-0.75,0.202-1.124,0.302
			c-1.338,0.272-2.677,0.545-4.015,0.817C175.488,182.719,175.493,182.088,175.499,181.457z"/>
		<path fill-rule="evenodd" clip-rule="evenodd" fill="#FFFFFF" d="M163.133,97.442c-1.609,2.295-3.217,4.591-4.826,6.887
			c-0.952-1.034-1.903-2.067-2.89-3.139c2.327-2.326,4.375-4.375,6.428-6.422C162.277,95.661,162.705,96.552,163.133,97.442z"/>
		<path fill-rule="evenodd" clip-rule="evenodd" fill="#FFFFFF" d="M175.482,183.35c1.338-0.272,2.677-0.544,4.014-0.817
			c0,2.072,0,4.144,0,6.216c0.24-0.015,0.479-0.028,0.718-0.042c-0.575,0.999-1.15,1.998-1.725,2.997
			c-0.159,0.076-0.247,0.125-0.263,0.145c-1.465-1.009-2.931-2.016-4.2-2.888C174.511,187.096,174.996,185.223,175.482,183.35z"/>
		<path fill-rule="evenodd" clip-rule="evenodd" fill="#FFFFFF" d="M158.219,104.221c1.83,0.362,3.661,0.724,5.49,1.086
			c0.062-0.238,0.124-0.476,0.186-0.714c0.521,0.637,1.042,1.273,1.563,1.911c-3.075,2.456-6.206,3.752-9.483,0.533
			C156.727,106.092,157.474,105.156,158.219,104.221z"/>
		<path fill-rule="evenodd" clip-rule="evenodd" fill="#FFFFFF" d="M192.47,248.478c-0.012-0.865-0.025-1.731-0.038-2.597
			c1.084,0.124,2.169,0.249,3.246,0.373c0.847,0.368,2.467,0.893,2.429,1.08c-0.253,1.244-0.781,2.464-1.45,3.551
			c-0.089,0.144-1.536-0.414-2.25-0.825C193.693,249.649,193.11,249.015,192.47,248.478z"/>
		<path fill-rule="evenodd" clip-rule="evenodd" fill="#FFFFFF" d="M176.586,40.528c-0.412,0.24-0.823,0.48-1.233,0.721
			c-0.651-2.261-0.728-4.54,1.779-5.545c1.074-0.43,3.115-0.185,3.797,0.577c0.907,1.013,0.917,2.83,1.313,4.302l0.098-0.107
			C180.407,38.824,178.472,37.063,176.586,40.528z"/>
		<path fill-rule="evenodd" clip-rule="evenodd" fill="#FFFFFF" d="M165.084,156.22c1.653,0.712,3.064,1.321,4.708,2.029
			c-0.962,1.811-1.122,4.768-3.977,3.421C164.203,160.908,162.938,158.606,165.084,156.22z"/>
		<path fill-rule="evenodd" clip-rule="evenodd" fill="#FFFFFF" d="M172.895,200.331c-0.447,0.762-0.895,1.522-1.329,2.276
			c-1.421-0.224-2.855-0.439-4.29-0.655c0.457-1.614,0.913-3.228,1.523-5.387C170.651,198.269,171.773,199.3,172.895,200.331z"/>
		<path fill-rule="evenodd" clip-rule="evenodd" fill="#FFFFFF" d="M170.334,150.939c0,0,0-0.198,0-0.197
			c-2.997,0.298-5.994,0.596-9.809,0.975c2.068-2.333,3.49-3.937,4.463-5.036C166.992,148.277,168.663,149.608,170.334,150.939z"/>
		<path fill-rule="evenodd" clip-rule="evenodd" fill="#FFFFFF" d="M157.898,208.213c1.656-0.338,3.02-0.616,3.857-0.787
			c0.437-1.678,0.415-3.238,1.183-3.99c0.55-0.538,2.161,0.008,3.55,0.084C164.556,207.563,162.333,209.746,157.898,208.213z"/>
		<path fill-rule="evenodd" clip-rule="evenodd" fill="#FFFFFF" d="M166.665,216.122c-0.107,0.019-0.217,0.047-0.326,0.084
			c-0.892,0.173-1.785,0.347-2.677,0.52c-0.224-1.618-0.448-3.235-0.76-5.489c1.847,1.153,2.888,1.884,4,2.479
			C168.845,214.759,168.16,215.461,166.665,216.122z"/>
		<path fill-rule="evenodd" clip-rule="evenodd" d="M171.265,136.555c-1.453-2.819-0.39-4.205,2.575-4.395
			c1.444-0.092,2.9-0.016,4.35-0.016c0.041,0.326,0.081,0.652,0.121,0.978c-1.56,0.251-3.12,0.502-5.048,0.812
			c-0.245,0.602-0.649,1.595-1.053,2.587C171.895,136.533,171.58,136.544,171.265,136.555z"/>
		<path fill-rule="evenodd" clip-rule="evenodd" fill="#FFFFFF" d="M151.334,81.021c0.339-0.011,0.678-0.022,1.018-0.032
			c-0.109,1.032-0.229,2.063-0.323,3.097c-0.089,0.985-0.152,1.973-0.265,3.453c-1.143-0.93-3.337-2.034-3.22-2.769
			C148.76,83.407,150.329,82.259,151.334,81.021z"/>
		<path fill-rule="evenodd" clip-rule="evenodd" fill="#FFFFFF" d="M156.648,219.483c-0.307,1.948-0.545,3.46-0.894,5.678
			c-1.363-1.352-2.703-2.68-4.042-4.007c0.16-0.347,0.319-0.692,0.479-1.038C153.718,219.899,155.244,219.683,156.648,219.483z"/>
		<path fill-rule="evenodd" clip-rule="evenodd" fill="#FFFFFF" d="M159.147,136.835c0.353-0.104,0.706-0.207,1.058-0.311
			c0,2.864,0,5.728,0,8.591c-0.357,0.015-0.715,0.03-1.074,0.045C158.443,142.444,157.809,139.722,159.147,136.835z"/>
		<path fill-rule="evenodd" clip-rule="evenodd" fill="#FFFFFF" d="M168.595,174.161c-0.959,1.145-1.702,2.029-2.696,3.214
			c-0.977-1.899-1.799-3.5-3.037-5.907C165.141,172.539,166.68,173.262,168.595,174.161z"/>
		<path fill-rule="evenodd" clip-rule="evenodd" fill="#FFFFFF" d="M168.826,113.963c-0.971-0.074-2.282,0.207-2.824-0.314
			c-0.634-0.609-0.766-1.917-0.763-2.921c0.001-0.348,1.223-1.105,1.593-0.954c0.76,0.31,1.574,0.997,1.892,1.734
			c0.31,0.718,0.028,1.691,0.005,2.551L168.826,113.963z"/>
		<path fill-rule="evenodd" clip-rule="evenodd" fill="#FFFFFF" d="M166.492,168.208c-0.848-1.532-1.653-2.363-1.63-3.173
			c0.014-0.518,1.434-1.541,1.896-1.382c0.768,0.265,1.596,1.227,1.767,2.03C168.63,166.181,167.571,166.927,166.492,168.208z"/>
		<path fill-rule="evenodd" clip-rule="evenodd" fill="#FFFFFF" d="M146.186,105.02c-1.033-1.636-1.973-2.821-2.531-4.164
			c-0.22-0.531,0.414-1.417,0.659-2.14c0.624,0.397,1.713,0.724,1.786,1.206C146.332,101.456,146.186,103.048,146.186,105.02z"/>
		<path fill-rule="evenodd" clip-rule="evenodd" fill="#FFFFFF" d="M215.092,254.604c1.07,0.18,2.945,0.144,3.062,0.579
			c0.39,1.449,0.147,3.069,0.147,4.624c-0.384,0.018-0.768,0.035-1.152,0.053c-0.691-1.778-1.381-3.557-2.076-5.35
			C215.068,254.495,215.092,254.604,215.092,254.604z"/>
		<path fill-rule="evenodd" clip-rule="evenodd" fill="#FFFFFF" d="M153.746,177.46c-3.138,0.145-2.979-2.885-4.243-4.323
			c0.206-0.223,0.411-0.445,0.616-0.667C151.249,174.025,152.379,175.58,153.746,177.46z"/>
		<path fill-rule="evenodd" clip-rule="evenodd" fill="#FFFFFF" d="M156.093,211.376c0.209,2.451,0.357,4.195,0.506,5.939
			c-0.263,0.139-0.526,0.277-0.789,0.416c-0.618-1.431-1.236-2.859-1.854-4.289c-0.394,0.286-0.786,0.572-1.179,0.858
			C153.788,213.408,154.801,212.517,156.093,211.376z"/>
		<path fill-rule="evenodd" clip-rule="evenodd" d="M173.753,70.732c2.122-1.386,4.245-2.773,6.56-4.285
			c0.902,2.356,3.925,4.436,0.375,6.622c-1.146,0.706-2.959,0.325-4.467,0.441c-0.027-0.352-0.055-0.703-0.082-1.055
			c-0.833,0.526-1.667,1.052-2.501,1.578c-0.214-0.762-0.428-1.524-0.642-2.286C173.249,71.41,173.501,71.071,173.753,70.732z"/>
		<path fill-rule="evenodd" clip-rule="evenodd" d="M173.753,70.732c-0.252,0.339-0.504,0.678-0.757,1.017
			c-2.686-0.986-5.383-1.949-8.025-3.039c-0.121-0.05,0.236-1.259,0.293-1.542c2.118,0.366,3.957,0.669,5.791,1.005
			C172.499,68.438,174.682,67.955,173.753,70.732z"/>
		<path fill-rule="evenodd" clip-rule="evenodd" d="M178.489,191.704c0.575-0.999,1.15-1.998,1.725-2.997
			c-0.239,0.014-0.478,0.027-0.718,0.042c0-2.072,0-4.144,0-6.216c0.375-0.1,0.75-0.201,1.125-0.302
			c1.034,2.864,2.067,5.728,3.004,8.324C182.242,190.865,180.366,191.285,178.489,191.704z"/>
		<path fill-rule="evenodd" clip-rule="evenodd" d="M195.65,152.425c3.99,2.099,0.722,4.685,0.204,7.439
			c-1.018-1.671-2.035-3.342-3.194-5.247C193.704,153.852,194.645,153.162,195.65,152.425z"/>
		<path fill-rule="evenodd" clip-rule="evenodd" d="M180.514,165.741c0.478,1.698,1.042,3.382,1.312,5.112
			c0.03,0.193-1.614,0.648-2.94,1.157c0.138-2.435,0.237-4.174,0.335-5.912C179.651,165.978,180.082,165.859,180.514,165.741z"/>
		<path fill-rule="evenodd" clip-rule="evenodd" d="M186.112,151.999c0.71,1.185,1.249,2.082,2.132,3.556
			c-2.037,0.138-3.535,0.239-5.033,0.341c-0.167-0.281-0.335-0.562-0.504-0.843C183.715,154.149,184.721,153.246,186.112,151.999z"
			/>
		<path fill-rule="evenodd" clip-rule="evenodd" d="M178.298,78.485c0.651,1.484,1.303,2.968,2.226,5.07
			c-1.228-0.089-3.111-0.024-3.15-0.261c-0.264-1.609-0.138-3.281-0.138-4.932C177.589,78.403,177.943,78.444,178.298,78.485z"/>
		<path fill-rule="evenodd" clip-rule="evenodd" d="M186.577,45.456c-0.807,1.651-1.615,3.301-2.423,4.953
			c-1.618-3.841-1.519-3.97,2.511-4.833C186.659,45.569,186.577,45.456,186.577,45.456z"/>
		<path fill-rule="evenodd" clip-rule="evenodd" d="M176.586,40.528c1.886-3.465,3.821-1.704,5.754-0.053
			C180.451,43.579,178.506,40.755,176.586,40.528z"/>
		<path fill-rule="evenodd" clip-rule="evenodd" fill="#FFFFFF" d="M170.238,125.026c-0.261,0.032-0.522,0.064-0.783,0.095
			c0.026-0.199,0.054-0.398,0.08-0.598c0.234,0.123,0.469,0.246,0.703,0.369C170.238,124.893,170.238,125.026,170.238,125.026z"/>
		<path fill-rule="evenodd" clip-rule="evenodd" d="M183.076,233.725c2.323,0,4.646,0,6.97,0c-2.188,2.234-4.547,1.709-6.917,0.962
			C183.111,234.366,183.094,234.045,183.076,233.725z"/>
		<path fill-rule="evenodd" clip-rule="evenodd" d="M177.971,234.664c-0.962,2.462-1.37,3.867-2.06,5.116
			c-0.332,0.599-1.198,0.9-1.822,1.337c-0.07-0.811-0.5-1.884-0.138-2.382C174.869,237.47,176.141,236.463,177.971,234.664z"/>
	</g>
</g>
</svg>
