<?xml version="1.0" encoding="utf-8"?>
<!-- Generator: Adobe Illustrator 16.0.0, SVG Export Plug-In . SVG Version: 6.00 Build 0)  -->
<!DOCTYPE svg PUBLIC "-//W3C//DTD SVG 1.1//EN" "http://www.w3.org/Graphics/SVG/1.1/DTD/svg11.dtd">
<svg version="1.1" id="Layer_1" xmlns="http://www.w3.org/2000/svg" xmlns:xlink="http://www.w3.org/1999/xlink" x="0px" y="0px"
	 width="437.311px" height="458.314px" viewBox="0 0 437.311 458.314" enable-background="new 0 0 437.311 458.314"
	 xml:space="preserve">
<g>
	<g>
		<path fill-rule="evenodd" clip-rule="evenodd" fill="#FFFFFF" d="M0.75,0.75c145.77,0,291.54,0,437.312,0
			c0,152.771,0,305.543,0,458.314c-145.771,0-291.541,0-437.311,0C0.75,306.293,0.75,153.521,0.75,0.75z M162.596,227.046
			c0.988-0.121,1.976-0.242,2.964-0.363c2.019,0.448,5.142,1.935,5.867,1.165c3.11-3.306,5.196-1.911,6.942,0.333
			c2.258-0.337,4.718-1.452,5.616-0.701c2.876,2.411,4.028,0.396,4.767-0.703c4.021,0.5,7.358,0.914,10.504,1.305
			c1.029-1.491,1.896-2.747,2.809-4.069c5.443,4.137,11.063,5.493,17.36,3.436c0.729-0.238,1.66,0.184,2.501,0.231
			c0.713,0.04,1.455,0.096,2.142-0.054c2.592-0.565,5.162-1.231,7.753-1.8c0.298-0.065,0.727,0.176,1.011,0.388
			c2.99,2.231,7.471,2.572,10.1,0.743c3.363-2.34,6.959-1.719,9.316,1.711c1.847-1.228,3.695-2.457,5.953-3.958
			c5.102,5.533,9.189,2.825,12.897-3.158c0.178,2.737,0.297,4.592,0.425,6.567c2.479,0.268,5.155,0.557,7.83,0.845
			c1.775-0.99,3.551-1.979,5.326-2.969c1.128-0.143,2.257-0.286,3.386-0.429c2.535-0.357,4.906-0.814,7.273-0.793
			c0.372,0.004,0.726,2.173,1.099,3.378c1.444-0.373,3.064-0.791,5.342-1.379c0.208,0.165,1.136,0.896,2.414,1.905
			c0.66-1.573,1.237-2.95,1.863-4.439c6.184,1.986,12.242-5.166,18.536,0.324c0.602-1.439,0.956-2.288,1.463-3.5
			c1.975,3.775,4.129,4.44,6.896,1.12c0.319-0.383,1.947,0.314,2.966,0.525c1.736,0.36,3.458,0.81,5.209,1.063
			c0.713,0.103,1.717-0.575,2.196-0.274c4.833,3.034,9.053,0.523,13.548-1.097c1.511,1.715,4.854,1.605,6.276-0.421
			c1.363,4.228,2.851,1.55,4.526-0.533c0.694,2.796,1.247,5.019,1.8,7.241c0.621,0.034,1.243,0.067,1.865,0.101
			c0.842-2.421,1.683-4.843,2.524-7.264c0.752,0.678,1.112,1.599,0.982,2.443c-0.403,2.601,1.696,4.021,3.149,3.515
			c3.688-1.284,7.067-3.45,11.005-5.487c0.236,0.067,1.975,0.969,2.313,0.598c1.89-2.082,3.953-1.167,6.155-1.086
			c4.089,0.151,8.207-0.091,12.283-0.484c0.679-0.065,1.288-1.677,1.761-2.656c0.192-0.4-0.293-1.143-0.086-1.517
			c2.844-5.145,0.487-10.493,0.694-15.733c0.091-2.314-1.256-3.165-3.244-3.163c-6.595,0.005-13.189,0.12-19.785,0.157
			c-5.251,0.029-10.502,0.006-15.383,0.006c-0.464-0.981-0.661-1.204-0.661-1.427c-0.078-16.614-0.141-33.227-0.202-49.84
			c-0.104-27.477-0.168-54.955-0.344-82.431c-0.035-5.599-0.817-11.203-0.662-16.789c0.193-7.005,1-13.993,1.569-21.335
			c1.545,0.38,3.142,0.773,4.234,1.041c2.43-0.888,4.629-1.692,6.309-2.307c3.438-5.545-1.809-7.72-3.902-11.057
			c-1.028,1.033-2.183,2.19-3.799,3.813c-0.387-2.556-0.628-4.151-0.87-5.746c-0.224,0.02-0.448,0.039-0.673,0.058
			c-0.451,1.283-0.902,2.564-1.353,3.847c-0.33-0.006-0.659-0.012-0.989-0.019c-0.182-0.827-0.497-1.651-0.515-2.482
			c-0.034-1.494,0.219-2.995,0.159-4.486c-0.168-4.194-2.205-5.466-5.739-3.245c-2.458,1.544-4.419,3.857-6.741,5.644
			c-7.509,5.774-15.286,11.218-22.579,17.25c-8.976,7.426-17.497,15.401-26.348,22.981c-8.233,7.051-16.587,13.964-24.988,20.815
			c-7.557,6.163-15.249,12.158-22.882,18.227c-2.677,2.127-5.419,4.178-8.013,6.401c-4.298,3.683-8.431,7.56-12.758,11.206
			c-6.401,5.396-12.972,10.59-19.362,15.999c-10.624,8.991-21.09,18.17-31.766,27.099c-6.233,5.212-12.809,10.014-19.118,15.139
			c-7.269,5.908-14.418,11.963-21.608,17.967c-2.274,1.898-4.511,3.842-6.765,5.766c-0.321-0.2-0.641-0.399-0.961-0.599
			c2.068-6.519,4.135-13.038,6.203-19.556c-0.708-0.532-1.414-1.063-2.122-1.595c-1.523,2.479-3.048,4.958-4.571,7.438
			c-0.479-0.193-0.957-0.387-1.436-0.58c-0.171-1.459-0.483-2.919-0.474-4.377c0.009-1.337,0.559-2.676,0.532-4.008
			c-0.174-8.809-0.554-17.616-0.651-26.425c-0.185-16.741-0.198-33.483-0.393-50.224c-0.01-0.895-1.023-1.779-1.57-2.668
			c-0.499,0.802-1.436,1.605-1.431,2.404c0.118,20.599,0.312,41.198,0.545,61.795c0.079,6.976,0.323,13.95,0.424,20.925
			c0.012,0.777-0.418,1.56-0.644,2.34c-0.781-0.4-1.669-0.672-2.322-1.224c-1.651-1.395-3.197-2.915-4.784-4.385
			c-0.333,0.164-0.666,0.328-0.999,0.492c1.635,4.903,3.27,9.806,4.905,14.708c-3.991-3.076-7.316-6.42-10.329-10.025
			c-6.98-8.351-13.747-16.879-20.72-25.234c-4.775-5.721-9.862-11.184-14.61-16.927c-4.039-4.885-7.813-9.991-11.668-15.025
			c-4.81-6.283-9.537-12.631-14.445-18.834c-0.501-0.634-2.005-0.472-3.251-0.722c0.334,2.363,0.862,4.077,0.77,5.756
			c-0.601,10.896-1.353,21.784-2.012,32.678c-0.105,1.728,0.12,3.477-0.004,5.202c-0.812,11.299-1.702,22.591-2.517,33.889
			c-0.492,6.817-0.805,13.647-1.443,20.45c-0.092,0.979-1.479,2.495-2.417,2.617c-3.406,0.444-6.875,0.477-10.323,0.524
			c-5.156,0.069-10.315,0.018-15.794,0.018c0.102,2.134,0.125,3.36,0.224,4.579c0.269,3.283,1.064,6.615,0.735,9.833
			c-0.423,4.133,0.771,7.559,2.852,10.873c0.819,1.305,1.789,2.515,2.689,3.768c-0.032-0.346-0.064-0.692-0.096-1.039
			c2.2,0,4.402,0.05,6.601-0.017c1.597-0.049,3.188-0.35,4.783-0.368c2.864-0.031,5.729,0.086,8.595,0.1
			c1.19,0.007,2.384-0.062,3.572-0.151c1.222-0.093,3.201-0.761,3.516-0.289c0.969,1.451,1.336,3.316,1.862,5.042
			c0.296,0.976,0.259,2.102,0.74,2.949c0.22,0.389,1.741,0.597,1.957,0.322c0.614-0.78,1.094-1.823,1.2-2.81
			c0.185-1.719,0.051-3.471,0.051-4.867c3.315,0,6.128,0.191,8.902-0.052c2.978-0.261,5.92-0.93,8.877-1.42
			c-0.074,1.46-0.148,2.92-0.222,4.379c0.234,0.042,0.467,0.084,0.702,0.126c0.432-0.894,0.864-1.786,1.296-2.679
			c0.122,0.33,0.243,0.659,0.364,0.988c1.821-0.53,3.642-1.06,5.463-1.588c-0.012-0.331-0.024-0.663-0.037-0.994
			c-0.704-0.274-1.409-0.548-2.113-0.822c3.041,0.428,6.074,0.944,9.128,1.224c0.785,0.073,1.761-0.438,2.436-0.956
			c2.075-1.597,3.45-0.983,3.977,0.114c2.352,0.589,3.971,0.896,5.52,1.41c1.631,0.541,3.566,2.204,4.715,1.745
			c2.728-1.089,4.65-0.797,6.546,1.716c0.719-2.085,1.328-3.854,1.75-5.078c4.139-1.29,7.775-1.115,9.263,3.022
			c1.478-0.897,2.75-2.255,3.535-2.016c1.362,0.417,3.249,1.683,3.443,2.839c0.467,2.785,0.027,5.714,0.078,8.583
			c0.014,0.797,0.284,1.746,0.787,2.315c0.284,0.321,1.726,0.236,1.874-0.055c0.404-0.8,0.713-1.905,0.461-2.7
			c-0.235-0.745-1.236-1.249-1.273-1.283c1.381-3.122,2.516-5.686,3.408-7.703c2.17,0.207,4.181,0.49,6.198,0.546
			c0.857,0.023,1.833-0.803,2.572-0.595c2.146,0.606,4.201,1.54,6.561,2.448C159.567,229.571,158.74,225.307,162.596,227.046z
			 M344.749,282.014c0.028,0.301,0.057,0.603,0.085,0.904c-85.796,0-171.592,0-257.301,0c0.415-3.106,8.828-3.174,3.682-8.915
			c0.864-1.054,1.681-2.049,2.702-3.294c0.453,1.105,0.555,2.189,1.132,2.588c1.147,0.791,2.792,1.941,3.805,1.617
			c1.937-0.621,1.257-2.172,0.198-3.521c-0.593-0.756-0.907-1.759-1.234-2.688c-1.305-3.714,0.196-6.07,4.05-6.873
			c0.736-0.153,1.258-1.334,1.88-2.041c-0.934-0.517-2.059-1.645-2.765-1.425c-1.594,0.496-2.981,1.659-4.424,2.533
			c-3.387-3.602-4.356-3.75-8.483-1.249c3.963,0.713,5.401,3.544,4.848,6.839c-0.337,2.007-1.903,4.555-3.637,5.426
			c-3.604,1.81-3.831,1.509-1.01,4.724c-8.92,4.483-19.599,4.587-28.4,11.541c1.652,0.238,2.672,0.673,2.958,0.383
			c2.571-2.6,5.25-1.259,7.904-0.364c4.244,1.429,8.429,3.043,12.712,4.341c3.055,0.925,6.228,1.458,9.348,2.167
			c0.147-0.363,0.294-0.728,0.441-1.091c-1.937-2.034-3.873-4.066-6.601-6.933c86.623,0,172.361,0,258.556,0
			c-1.979,2.481-3.875,4.856-5.771,7.231c0.223,0.367,0.445,0.735,0.668,1.103c9.283-3.285,18.567-6.57,28.115-9.95
			c-0.688-0.934-0.92-1.408-1.293-1.707c-0.369-0.296-0.868-0.456-1.334-0.602c-7.912-2.479-15.819-4.975-23.756-7.374
			c-0.712-0.215-1.616,0.201-2.431,0.324c0.191,0.775,0.136,1.8,0.62,2.28C341.479,279.442,343.155,280.688,344.749,282.014z
			 M137.07,247.783c0.357,0.604,0.48,0.968,0.728,1.202c0.769,0.729,1.583,1.41,2.38,2.11c0.315-0.96,0.779-1.9,0.908-2.885
			c0.144-1.098,0.036-2.239-0.06-3.354c-0.089-1.044-0.307-2.077-0.467-3.114c-1.006,0.257-2.018,0.49-3.015,0.779
			c-0.689,0.2-1.439,0.807-2.021,0.663c-2.494-0.614-4.952-1.39-7.394-2.197c-5.539-1.83-11.059-3.713-16.712-5.617
			c-2.245,5.2,6.128,4.347,5.534,8.813c-10.232,0-20.347,0-31.678,0c3.698-3.359,6.528-5.93,9.358-8.501
			c-0.2-0.34-0.399-0.678-0.598-1.017c-1.363,0.277-2.786,0.394-4.081,0.861c-4.754,1.717-9.442,3.62-14.205,5.313
			c-2.784,0.99-5.899,1.291-8.423,2.696c-1.989,1.106-2.839,1.846-3.734-0.851c-0.163-0.489-1.936-0.443-2.965-0.645
			c-0.007,1.013-0.374,2.242,0.072,2.981c0.512,0.85,1.667,1.502,2.676,1.83c5.731,1.866,11.485,3.668,17.266,5.372
			c3.811,1.122,7.68,2.043,11.523,3.055c0.193-0.376,0.386-0.753,0.579-1.129c-2.173-2.191-4.346-4.383-7-7.059
			c11.06,0,21.104,0,32.247,0c-2.489,3.067-4.438,5.473-6.389,7.876c0.095,0.333,0.189,0.665,0.284,0.997
			C120.285,253.235,128.687,250.507,137.07,247.783z M201.19,398.088c-0.117,0.406-0.233,0.813-0.349,1.22
			c0.915,0.417,1.808,1.131,2.748,1.199c3.848,0.277,7.71,0.505,11.566,0.485c12.201-0.063,24.402-0.231,36.602-0.388
			c6.594-0.085,13.187-0.301,19.779-0.332c11.096-0.052,22.192,0.021,33.288-0.044c0.944-0.005,1.885-0.645,2.826-0.989
			c-0.065-0.384-0.132-0.768-0.198-1.151C272.031,398.088,236.61,398.088,201.19,398.088z M209.918,273.536
			c-0.699-1.505-1.906-2.837-1.646-3.755c1.5-5.307,3.452-10.484,5.007-15.777c0.438-1.489,0.053-3.219,0.045-4.839
			c-1.788,0.182-3.576,0.364-5.796,0.591c0.664,1.334,0.885,1.762,1.092,2.197c1.332,2.811-0.019,6.656-2.458,6.799
			c-8.012,0.47-10.913,4.371-12.417,11.607c-0.385,1.846,1.253,4.33,2.509,6.145c0.309,0.446,2.746-0.665,4.229-0.915
			c1.15-0.193,2.783-0.688,3.436-0.14C207.588,278.535,208.456,275.17,209.918,273.536z M405.865,96.133
			c0.201,0.314,0.402,0.628,0.604,0.942c-0.847,3.11-1.849,6.188-2.457,9.343c-0.218,1.132,0.514,2.448,0.812,3.68
			c1.404-0.586,3.017-0.921,4.137-1.851c0.688-0.57,0.784-2.039,0.856-3.123c0.096-1.425-0.259-2.885-0.115-4.301
			c0.173-1.718,0.88-3.395,0.964-5.108c0.147-2.996-1.994-4.342-4.71-3.076c-1.498,0.698-2.91,1.578-5.212,2.846
			c0.998-4.633,1.791-8.319,2.731-12.691c-2.086,0.104-3.682,0.184-4.808,0.24c-0.25,2.488-0.229,4.417-0.666,6.237
			c-1.392,5.796-3.012,11.537-4.388,17.336c-0.201,0.845,0.445,1.89,0.699,2.843c0.868-0.644,2.031-1.108,2.552-1.962
			c1.908-3.129,3.449-6.49,5.465-9.541C402.966,96.985,404.656,96.719,405.865,96.133z M241.95,367.808
			c-9.334-1.029-12.291,1.558-12.013,9.962c0.22,6.66,1.99,7.785,13.612,7.717c5.507-0.032,1.89-3.76,2.075-5.929
			c0.01-0.123,0.077-0.243,0.077-0.363c0.032-5.404,0.132-10.81-0.012-16.209c-0.017-0.644-1.36-1.253-2.089-1.877
			c-0.55,0.672-1.443,1.284-1.578,2.031C241.77,364.559,241.95,366.056,241.95,367.808z M273.031,417.3
			c0-1.648,0.249-3.032-0.07-4.271c-0.309-1.195-1.202-2.239-1.838-3.35c-0.826,1.165-2.219,2.267-2.359,3.51
			c-0.303,2.679,0.074,5.43,0.105,8.151c0.043,3.709-0.109,7.427,0.117,11.122c0.061,0.984,1.202,1.902,1.848,2.85
			c0.794-0.947,1.86-1.784,2.3-2.874c0.387-0.964,0.067-2.208,0.072-3.329c0.009-1.86-0.487-3.941,0.188-5.521
			c0.676-1.584,2.524-2.666,3.858-3.968c1.03,1.489,2.628,2.863,2.963,4.496c0.543,2.642,0.078,5.476,0.407,8.185
			c0.13,1.063,1.25,2.005,1.919,3.002c0.767-1.001,2.121-1.963,2.192-3.012c0.237-3.469,0.263-6.995-0.101-10.449
			c-0.431-4.086-4.526-6.423-8.557-5.261C275.268,416.815,274.438,416.971,273.031,417.3z M28.256,152.031
			c0.287,0.157,0.574,0.314,0.862,0.471c-0.222,0.855-0.405,1.724-0.674,2.564c-0.745,2.335-1.72,4.619-2.217,7.003
			c-0.273,1.309,0.235,2.78,0.392,4.177c1.467-0.461,3.066-0.707,4.34-1.484c0.571-0.348,0.623-1.755,0.677-2.695
			c0.09-1.567-0.133-3.156,0.008-4.715c0.165-1.83,0.755-3.628,0.842-5.455c0.117-2.473-1.38-3.594-3.603-2.67
			c-2.389,0.992-4.555,2.522-6.846,3.833c0.295-4.292,3.956-8.34,2.567-13.52c-1.725,0.457-3.086,0.817-4.086,1.083
			c-0.141,2.245,0.031,4.097-0.417,5.786c-1.292,4.862-3.065,9.606-4.143,14.508c-0.345,1.57-2.982,4.249,0.543,5.098
			c0.772,0.186,2.898-2.698,3.404-4.455C21.258,156.859,25.277,155,28.256,152.031z M218.28,435.658
			c0.559,0.041,1.119,0.082,1.677,0.122c0.48-1.232,1.313-2.448,1.371-3.701c0.146-3.102-0.041-6.22-0.13-9.331
			c-0.126-4.433-3.323-6.981-7.747-6.213c-1.255,0.219-2.513,0.418-4.045,0.671c0-1.622,0.239-2.805-0.063-3.829
			c-0.347-1.179-1.172-2.217-1.79-3.317c-0.66,1.099-1.871,2.188-1.889,3.297c-0.101,6.186,0.003,12.381,0.25,18.564
			c0.05,1.243,1.021,2.449,1.568,3.673c0.687-1.232,1.769-2.401,1.981-3.71c0.491-3.029,0.504-6.132,0.82-9.194
			c0.275-2.664,2.53-2.818,4.179-2.28c1.088,0.356,2.187,2.134,2.394,3.417c0.372,2.307-0.096,4.736,0.118,7.085
			C217.12,432.52,217.825,434.078,218.28,435.658z M249.682,373.557c0.013,0,0.024,0,0.036,0c0,3.114-0.135,6.239,0.081,9.338
			c0.065,0.942,1.097,1.816,1.686,2.723c0.819-0.862,2.218-1.646,2.347-2.602c0.381-2.827,0.355-5.723,0.305-8.588
			c-0.044-2.417,1.343-3.362,3.383-3.646c2.168-0.301,3.712,0.534,3.9,2.905c0.255,3.214,0.257,6.455,0.689,9.642
			c0.111,0.821,1.424,1.481,2.185,2.216c0.486-0.838,1.343-1.655,1.39-2.517c0.157-2.854,0.025-5.725-0.002-8.589
			c-0.057-5.919-2.645-8.345-8.329-7.062c-3.623,0.818-4.509-0.168-4.091-3.602c0.106-0.873-0.931-1.886-1.441-2.834
			c-0.712,0.839-1.976,1.639-2.04,2.526C249.536,366.815,249.682,370.191,249.682,373.557z M169.236,67.11
			c-4.468-3.767-6.387-0.262-9.084,2.163c1.044-4.185,2.087-8.37,3.229-12.95c-2.15,0-3.879,0-5.809,0
			c0.452,1.744,1.302,3.153,1.023,4.284c-1.051,4.253-2.551,8.395-3.723,12.622c-0.87,3.138-1.491,6.345-2.222,9.521
			c0.51,0.217,1.021,0.434,1.532,0.65c0.784-0.918,1.729-1.744,2.316-2.775c0.868-1.526,1.482-3.197,2.204-4.806
			c0.914,1.458,1.695,3.028,2.783,4.342c0.924,1.117,2.517,2.921,3.254,2.684c1.406-0.453,2.412-2.144,3.183-2.918
			c-1.864-1.221-3.84-1.785-4.201-2.88C162.174,72.355,163.651,69.779,169.236,67.11z M144.986,390.169
			c1.478,2.579,2.989,4.817,4.052,7.253c0.481,1.102,0.376,2.693-0.017,3.88c-0.409,1.233-1.631,2.175-2.222,3.379
			c-0.468,0.954-0.519,2.112-0.756,3.18c1.28-0.363,2.95-0.336,3.771-1.157c3.341-3.347,3.141-3.354,6.382,0.406
			c0.711,0.825,2.449,0.765,3.715,1.112c-0.158-1.182-0.134-2.429-0.533-3.522c-0.32-0.879-1.091-1.629-1.769-2.333
			c-1.898-1.97-1.783-3.714-0.061-5.879c1.449-1.821,2.317-4.107,3.528-6.347c-4.417-1.807-5.874,1.164-7.56,3.449
			C147.916,389.182,147.916,389.182,144.986,390.169z M133.612,77.966c-0.231,4.268,2.712,6.047,6.942,4.56
			c1.499-0.527,3.356,0.037,5.039-0.063c1.088-0.065,2.461-0.113,3.144-0.762c0.567-0.539,0.371-1.94,0.406-2.964
			c0.035-1.044-0.306-2.159-0.049-3.128c0.655-2.463,1.698-4.829,2.258-7.308c0.162-0.717-0.636-2.294-1.247-2.444
			C141.69,63.791,134.072,69.454,133.612,77.966z M184.646,78.399c-1.039,0.148-2.081,0.275-3.116,0.449
			c-1.721,0.289-3.459,0.909-5.146,0.784c-0.819-0.061-1.537-1.492-2.301-2.304c0.862-0.512,1.682-1.122,2.595-1.515
			c2.442-1.054,5.204-1.633,7.287-3.155c1.291-0.944,2.62-3.872,2.066-4.825c-0.807-1.389-3.336-2.583-5.056-2.489
			c-5.956,0.328-8.997,3.96-10.342,9.742c-1.077,4.625,0.371,7.397,4.948,8.09C179.536,83.776,182.173,81.796,184.646,78.399z
			 M293.576,439.866c2.229-2.69,4.612-4.595,5.578-7.055c0.736-1.879,0.415-5.819-0.739-6.447c-2.285-1.244-5.618-1.482-8.239-0.896
			c-2.08,0.465-3.263,2.935-1.543,6.179c1.145-1.027,1.994-2.281,3.143-2.685c1.153-0.404,2.777-0.293,3.844,0.263
			c0.481,0.251,0.577,2.478,0.036,3.207c-1.375,1.858-3.186,3.4-4.862,5.027c-1.952,1.893-4.238,3.646-2.405,6.795
			c3.271,0,6.386,0.134,9.475-0.094c0.783-0.057,1.483-1.262,2.222-1.938c-0.766-0.661-1.435-1.594-2.324-1.914
			C296.666,439.914,295.388,440.027,293.576,439.866z M121.661,67.309c-3.336-2.625-7.868-2.913-9.958-0.322
			c-1.949,2.415-1.053,5.09,0.647,7.505c0.775,1.102,1.53,2.301,1.905,3.572c0.246,0.828-0.208,1.863-0.35,2.805
			c-0.968-0.184-2.166-0.078-2.85-0.621c-0.996-0.79-1.623-2.047-2.904-3.777c-0.569,2.368-0.98,4.077-1.391,5.786
			c1.626,0.359,3.244,0.766,4.881,1.056c0.726,0.128,1.606,0.258,2.219-0.031c1.565-0.738,3.921-1.426,4.309-2.655
			c0.586-1.861,0.139-4.292-0.549-6.241c-0.694-1.968-2.217-3.642-3.404-5.489c3.461-2.424,3.879,0.792,5.22,2.615
			C120.339,69.806,121.014,68.531,121.661,67.309z M129.836,80.106c-1.014-1.483-2.288-2.548-2.105-3.218
			c0.792-2.921,1.304-6.427,3.254-8.395c2.307-2.327,0.982-4.411,0.152-5.519c-1.688-2.252-1.97,0.888-3.011,1.454
			c-0.644,0.351-1.495,0.446-1.982,0.928c-0.597,0.591-1.193,1.432-1.292,2.227c-0.235,1.901,0,3.865-0.287,5.752
			c-0.333,2.198-1.23,4.321-1.459,6.52c-0.104,0.991,0.593,2.729,1.329,2.988c1.093,0.385,2.692,0.046,3.792-0.527
			C129.083,81.869,129.505,80.594,129.836,80.106z M242.489,425.207c-0.056,0.456-0.111,0.913-0.167,1.369
			c1.472,0.355,2.949,1.021,4.413,0.991c2.06-0.041,3.081,0.544,2.965,2.692c-0.041,0.743-0.167,1.579,0.109,2.215
			c0.347,0.797,1.068,1.43,1.627,2.133c0.497-0.705,1.286-1.356,1.427-2.127c0.236-1.307,0.064-2.688,0.064-4.09
			c2.782-0.694,5.311-1.325,7.84-1.956c-0.027-0.374-0.056-0.746-0.084-1.119c-2.485-0.352-4.971-0.703-7.876-1.113
			c0-1.498,0.184-2.99-0.07-4.403c-0.148-0.824-0.996-1.523-1.528-2.279c-0.529,0.8-1.363,1.546-1.52,2.413
			c-0.256,1.416-0.068,2.911-0.068,4.51C246.979,424.726,244.734,424.967,242.489,425.207z M223.573,430.564
			c0.1,0.333,0.199,0.665,0.299,0.997c3.762-0.617,4.373,1.126,4.166,4.203c-0.194,2.897,0.364,5.845,0.592,8.771
			c0.504,0.07,1.009,0.14,1.513,0.21c0.539-0.926,1.526-1.842,1.545-2.778c0.099-4.856,0.003-9.719-0.138-14.576
			c-0.056-1.899-1.27-3.021-2.941-1.817C226.714,426.937,225.233,428.876,223.573,430.564z M181.047,397.99
			c0.003,0.056,0.006,0.112,0.01,0.169c2.614-0.188,5.237-0.306,7.837-0.607c0.728-0.084,1.392-0.711,2.086-1.089
			c-0.444-0.674-0.809-1.854-1.345-1.938c-3.055-0.477-6.148-0.739-9.236-0.977c-1.472-0.112-3.026-0.267-4.423,0.08
			c-1.226,0.305-2.283,1.283-3.416,1.964c0.833,0.799,1.568,2.112,2.517,2.289C177.005,398.242,179.049,397.99,181.047,397.99z
			 M414.948,100.086c-0.045,0.345-0.09,0.689-0.135,1.034c0.831,0.245,1.703,0.788,2.485,0.679c2.415-0.338,3.066,0.839,2.357,2.769
			c-0.543,1.477-1.542,2.829-2.528,4.088c-1.352,1.727-2.977,3.245-4.268,5.01c-0.293,0.401,0.051,1.776,0.531,2.146
			c1.835,1.412,5.821,0.086,7.098-2.296c-1.039-0.446-2.063-0.885-3.373-1.448c1.746-2.016,3.662-3.53,4.593-5.509
			c0.814-1.732,1.228-4.329,0.469-5.886c-0.503-1.032-3.373-0.998-5.21-1.245C416.336,99.343,415.624,99.851,414.948,100.086z
			 M272.875,381.748c0,2.641-0.013,4.976,0.003,7.311c0.029,4.444,0.036,4.444,2.775,5.691c0-6.466,0-12.765,0-19.645
			c-3.602,1.443-6.014,3.038-7.189,6.643C270.062,381.748,271.123,381.748,272.875,381.748z M183.507,404.067
			c0.002-0.051,0.005-0.102,0.007-0.153c1.5,0,3.041,0.214,4.485-0.069c1.097-0.215,2.071-1.06,3.1-1.625
			c-1.13-0.712-2.206-1.892-3.405-2.035c-2.183-0.261-4.438,0.125-6.666,0.182c-1.861,0.047-3.753-0.19-5.572,0.089
			c-0.99,0.151-1.855,1.115-2.776,1.713c0.873,0.491,1.708,1.307,2.625,1.412C178.021,403.893,180.771,403.926,183.507,404.067z
			 M43.767,156.297c-2.296-1.66-3.707-1.476-4.134,0.619c-0.893,4.377-1.931,8.724-2.813,13.103
			c-0.123,0.608,0.105,1.616,0.536,1.918c0.476,0.334,1.719,0.361,2.017,0.008c0.734-0.872,1.334-1.986,1.604-3.096
			C41.984,164.718,42.836,160.549,43.767,156.297z M368.25,230.914c0.249,0.434,0.498,0.867,0.747,1.302
			c0,1.491-0.021,2.983,0.01,4.476c0.016,0.75,0.128,1.499,0.198,2.248c0.787-0.105,1.812,0.048,2.295-0.393
			c0.463-0.422,0.495-1.463,0.48-2.228c-0.023-1.352-0.225-2.7-0.448-5.079C371.163,231.203,369.706,231.059,368.25,230.914z
			 M369.695,271.938c0.454,0.037,0.908,0.072,1.362,0.109c0.179-2.463,0.398-4.924,0.47-7.39c0.008-0.255-0.866-0.535-1.832-1.093
			C369.695,266.726,369.695,269.332,369.695,271.938z"/>
		<path fill-rule="evenodd" clip-rule="evenodd" d="M279.352,228.964c-2.675-0.289-5.351-0.577-7.83-0.845
			c-0.128-1.976-0.247-3.831-0.425-6.567c-3.708,5.983-7.796,8.691-12.897,3.158c-2.258,1.501-4.106,2.73-5.953,3.958
			c-2.357-3.43-5.953-4.051-9.316-1.711c-2.629,1.829-7.109,1.488-10.1-0.743c-0.284-0.212-0.713-0.454-1.011-0.388
			c-2.591,0.569-5.161,1.235-7.753,1.8c-0.687,0.149-1.429,0.094-2.142,0.054c-0.841-0.048-1.771-0.47-2.501-0.231
			c-6.297,2.058-11.917,0.702-17.36-3.436c-0.913,1.322-1.779,2.578-2.809,4.069c-3.146-0.391-6.483-0.806-10.504-1.305
			c-0.739,1.1-1.891,3.114-4.767,0.703c-0.897-0.751-3.358,0.364-5.616,0.701c-1.746-2.244-3.832-3.639-6.942-0.333
			c-0.725,0.77-3.848-0.717-5.865-1.166c0.181-0.67,0.604-1.385,0.491-2.001c-0.266-1.458-0.787-2.869-1.219-4.348
			c-0.98,1.151-2.462,2.695-3.632,4.447c-0.206,0.308,0.896,1.488,1.395,2.266c-3.856-1.739-3.029,2.525-4.276,3.428
			c-2.36-0.908-4.414-1.842-6.561-2.448c-0.739-0.208-1.715,0.618-2.572,0.595c-2.017-0.056-4.027-0.34-6.198-0.546
			c-0.892,2.018-2.026,4.581-3.408,7.703c0.037,0.034,1.038,0.538,1.273,1.283c0.251,0.795-0.058,1.9-0.461,2.7
			c-0.148,0.291-1.589,0.376-1.874,0.055c-0.503-0.569-0.773-1.519-0.787-2.315c-0.051-2.868,0.389-5.798-0.078-8.583
			c-0.194-1.157-2.081-2.422-3.443-2.839c-0.785-0.239-2.058,1.119-3.535,2.016c-1.488-4.137-5.124-4.312-9.263-3.022
			c-0.421,1.224-1.031,2.993-1.75,5.078c-1.896-2.513-3.818-2.805-6.546-1.716c-1.149,0.459-3.084-1.204-4.715-1.745
			c-1.549-0.514-3.168-0.82-5.52-1.41c-0.527-1.098-1.902-1.711-3.977-0.114c-0.674,0.519-1.651,1.029-2.436,0.956
			c-3.054-0.28-6.087-0.796-9.115-1.22c-1.813,0.198-3.64,0.392-5.466,0.586c-2.958,0.491-5.899,1.16-8.877,1.42
			c-2.774,0.243-5.587,0.052-8.902,0.052c0,1.396,0.134,3.148-0.051,4.867c-0.106,0.986-0.586,2.029-1.2,2.81
			c-0.216,0.274-1.737,0.066-1.957-0.322c-0.481-0.848-0.444-1.974-0.74-2.949c-0.526-1.727-0.894-3.592-1.862-5.042
			c-0.315-0.472-2.294,0.196-3.516,0.289c-1.188,0.089-2.382,0.158-3.572,0.151c-2.865-0.014-5.73-0.131-8.595-0.1
			c-1.595,0.018-3.186,0.319-4.783,0.368c-2.199,0.067-4.401,0.017-6.601,0.017c0.032,0.346,0.064,0.693,0.096,1.039
			c-0.901-1.253-1.871-2.463-2.689-3.768c-2.081-3.314-3.275-6.74-2.852-10.873c0.329-3.219-0.466-6.55-0.735-9.833
			c-0.1-1.219-0.123-2.445-0.224-4.579c5.479,0,10.638,0.051,15.794-0.018c3.447-0.047,6.917-0.08,10.323-0.524
			c0.937-0.122,2.324-1.639,2.417-2.617c0.639-6.802,0.951-13.633,1.443-20.45c0.815-11.298,1.706-22.59,2.517-33.889
			c0.125-1.725-0.101-3.474,0.004-5.202c0.66-10.894,1.412-21.782,2.012-32.678c0.092-1.68-0.435-3.393-0.77-5.756
			c1.246,0.25,2.75,0.088,3.251,0.722c4.909,6.203,9.635,12.551,14.445,18.834c3.855,5.035,7.629,10.14,11.668,15.025
			c4.748,5.743,9.834,11.206,14.61,16.927c6.974,8.355,13.74,16.884,20.72,25.234c3.013,3.605,6.338,6.949,10.329,10.025
			c-1.635-4.903-3.27-9.806-4.905-14.708c0.333-0.164,0.666-0.328,0.999-0.492c1.587,1.47,3.133,2.99,4.784,4.385
			c0.653,0.552,1.542,0.824,2.322,1.224c0.226-0.78,0.656-1.563,0.644-2.34c-0.101-6.976-0.345-13.949-0.424-20.925
			c-0.233-20.598-0.427-41.196-0.545-61.795c-0.004-0.798,0.933-1.602,1.431-2.404c0.547,0.889,1.56,1.773,1.57,2.668
			c0.194,16.741,0.208,33.483,0.393,50.224c0.097,8.809,0.477,17.616,0.651,26.425c0.026,1.332-0.523,2.671-0.532,4.008
			c-0.009,1.458,0.303,2.918,0.474,4.377c0.479,0.193,0.958,0.387,1.436,0.58c1.523-2.479,3.048-4.958,4.571-7.438
			c0.708,0.532,1.415,1.063,2.122,1.595c-2.068,6.519-4.135,13.038-6.203,19.556c0.321,0.199,0.641,0.398,0.961,0.599
			c2.254-1.924,4.491-3.867,6.765-5.766c7.189-6.004,14.339-12.06,21.608-17.967c6.309-5.125,12.884-9.927,19.118-15.139
			c10.676-8.929,21.142-18.108,31.766-27.099c6.391-5.408,12.961-10.603,19.362-15.999c4.327-3.646,8.46-7.523,12.758-11.206
			c2.594-2.223,5.336-4.273,8.013-6.401c7.633-6.069,15.325-12.064,22.882-18.227c8.401-6.851,16.755-13.764,24.988-20.815
			c8.851-7.581,17.372-15.555,26.348-22.981c7.293-6.032,15.07-11.476,22.579-17.25c2.322-1.787,4.283-4.1,6.741-5.644
			c3.534-2.221,5.571-0.949,5.739,3.245c0.06,1.491-0.193,2.992-0.159,4.486c0.018,0.832,0.333,1.655,0.515,2.482
			c0.33,0.007,0.659,0.013,0.989,0.019c0.45-1.283,0.901-2.564,1.353-3.847c0.225-0.019,0.449-0.038,0.673-0.058
			c0.242,1.595,0.483,3.189,0.87,5.746c1.616-1.624,2.771-2.781,3.799-3.813c2.094,3.337,7.341,5.511,3.902,11.057
			c-1.68,0.614-3.879,1.419-6.309,2.307c-1.093-0.268-2.689-0.661-4.234-1.041c-0.569,7.343-1.376,14.331-1.569,21.335
			c-0.155,5.585,0.627,11.19,0.662,16.789c0.176,27.477,0.239,54.954,0.344,82.431c0.062,16.614,0.124,33.227,0.202,49.84
			c0,0.223,0.197,0.446,0.661,1.427c4.881,0,10.132,0.023,15.383-0.006c6.596-0.037,13.19-0.151,19.785-0.157
			c1.988-0.001,3.335,0.849,3.244,3.163c-0.207,5.24,2.149,10.588-0.694,15.733c-0.207,0.375,0.278,1.117,0.086,1.517
			c-0.473,0.979-1.082,2.59-1.761,2.656c-4.076,0.393-8.194,0.635-12.283,0.484c-2.202-0.081-4.266-0.996-6.155,1.086
			c-0.338,0.372-2.076-0.53-2.313-0.598c-3.938,2.037-7.317,4.203-11.005,5.487c-1.453,0.506-3.553-0.914-3.149-3.515
			c0.13-0.844-0.23-1.765-0.982-2.443c-0.842,2.421-1.683,4.843-2.524,7.264c-0.622-0.034-1.244-0.067-1.865-0.101
			c-0.553-2.222-1.105-4.445-1.8-7.241c-1.676,2.083-3.163,4.761-4.526,0.533c-1.422,2.026-4.766,2.136-6.276,0.421
			c-4.495,1.62-8.715,4.131-13.548,1.097c-0.479-0.301-1.483,0.377-2.196,0.274c-1.751-0.253-3.473-0.703-5.209-1.063
			c-1.019-0.211-2.646-0.908-2.966-0.525c-2.768,3.321-4.922,2.656-6.896-1.12c-0.507,1.212-0.861,2.061-1.463,3.5
			c-6.294-5.49-12.353,1.663-18.536-0.324c-0.626,1.489-1.203,2.866-1.863,4.439c-1.278-1.009-2.206-1.74-2.414-1.905
			c-2.277,0.588-3.897,1.007-5.342,1.379c-0.373-1.206-0.727-3.375-1.099-3.378c-2.367-0.021-4.738,0.437-7.273,0.793
			c-1.129,0.143-2.258,0.286-3.373,0.422c0.345-1.438,0.677-2.87,1.009-4.302c-1.195-0.116-2.865-0.789-3.496-0.248
			c-2.135,1.828-3.9,4.085-6.046,6.441C277.338,228.28,278.345,228.622,279.352,228.964z M65.216,193.488
			c0.412-0.969,1.447-2.338,1.126-2.838c-1.409-2.199-2.946-4.198-1.224-6.896c-0.463-0.224-0.927-0.448-1.39-0.672
			c0-1.473,0-2.947,0-4.622c-2.086,0-3.871,0-5.5,0c-1.048,6.476-3.563,12.574,0.044,18.616
			C60.632,196.358,65.284,199.566,65.216,193.488z M352.212,22.289c-4.261,2.806-7.76,4.651-10.712,7.144
			c-8.501,7.173-16.669,14.743-25.173,21.912c-16.752,14.123-33.594,28.14-50.494,42.085c-9.306,7.679-18.888,15.024-28.182,22.719
			c-4.911,4.065-9.364,8.679-14.213,12.825c-6.704,5.734-13.613,11.226-20.383,16.883c-6.772,5.66-13.425,11.462-20.236,17.074
			c-4.935,4.065-10.073,7.88-15.064,11.878c-6.516,5.222-13.1,10.371-19.392,15.853c-2.216,1.932-5.757,3.122-5.854,7.765
			c6.132,0,12.013,0.036,17.894-0.01c7.03-0.055,14.059-0.252,21.089-0.255c8.17-0.003,16.341,0.153,24.512,0.212
			c6.589,0.048,13.179,0.009,19.767,0.092c5.271,0.067,10.542,0.386,15.812,0.363c5.723-0.026,11.444-0.416,17.168-0.47
			c5.343-0.05,10.688,0.215,16.031,0.196c13.245-0.048,26.489-0.231,39.734-0.249c5.174-0.007,10.349,0.453,15.521,0.406
			c10.679-0.098,21.356-0.527,32.034-0.534c3.413-0.002,4.557-1.039,4.449-4.468c-0.295-9.466-0.335-18.941-0.401-28.415
			c-0.067-9.596,0.052-19.194-0.089-28.789c-0.168-11.392-0.639-22.779-0.771-34.172c-0.129-11.103,0.029-22.208,0.009-33.313
			c-0.018-9.812-0.133-19.624-0.153-29.437c-0.008-4.017,0.183-8.037,0.121-12.052c-0.009-0.628-0.773-1.407-1.39-1.803
			c-0.356-0.229-1.599,0.129-1.611,0.288c-0.059,0.771,0.069,1.594,0.31,2.341c0.225,0.7,0.673,1.327,1.022,1.986
			c-0.348,0.194-0.693,0.389-1.041,0.583c-0.802-1.229-1.602-2.459-2.588-3.973c-2.44,3.726-2.183-2.301-3.817-1.138
			c-1.443,1.029-2.463,2.655-3.168,3.45C352.755,27.41,352.516,25.156,352.212,22.289z M62.909,107.41
			c-0.415,0.078-0.831,0.155-1.246,0.233c0.663,4.615,1.53,9.21,1.947,13.848c1.127,12.517,2.073,25.051,3.072,37.581
			c0.997,12.51,1.924,25.027,3.064,37.523c0.075,0.822,1.679,2.126,2.602,2.153c9.119,0.267,18.245,0.385,27.369,0.398
			c9.926,0.014,19.855,0.001,29.775-0.284c2.802-0.081,6.523,0.27,6.633-3.559C111.471,165.707,87.19,136.559,62.909,107.41z
			 M57.292,175.169c2.704,0,4.488,0,7.495,0c-1.705-2.875-2.982-5.03-4.734-7.985C58.908,170.497,58.211,172.51,57.292,175.169z
			 M58.401,151.637c1.08,1.142,1.855,1.961,2.63,2.78c0.559-0.614,1.684-1.371,1.572-1.814c-0.357-1.41-1.175-2.702-1.815-4.04
			C60.137,149.401,59.486,150.24,58.401,151.637z M365.381,12.579c-0.506-0.25-1.01-0.499-1.516-0.749
			c-0.557,1.051-1.354,2.057-1.563,3.172c-0.096,0.508,0.972,1.234,1.512,1.862C364.337,15.436,364.858,14.007,365.381,12.579z
			 M240.973,222.222c0.059,0.418,0.117,0.836,0.177,1.254c1.139,0,2.278,0,3.417,0c-0.377-1.178-0.753-2.357-1.228-3.845
			C242.204,220.874,241.588,221.547,240.973,222.222z"/>
		<path fill-rule="evenodd" clip-rule="evenodd" d="M344.749,282.014c-1.594-1.326-3.27-2.571-4.736-4.026
			c-0.484-0.48-0.429-1.505-0.62-2.28c0.814-0.123,1.719-0.539,2.431-0.324c7.937,2.399,15.844,4.895,23.756,7.374
			c0.466,0.146,0.965,0.306,1.334,0.602c0.373,0.299,0.604,0.773,1.293,1.707c-9.548,3.38-18.832,6.665-28.115,9.95
			c-0.223-0.367-0.445-0.735-0.668-1.103c1.896-2.375,3.792-4.75,5.771-7.231c-86.194,0-171.933,0-258.556,0
			c2.729,2.866,4.665,4.898,6.601,6.933c-0.147,0.363-0.294,0.728-0.441,1.091c-3.12-0.709-6.293-1.242-9.348-2.167
			c-4.283-1.298-8.468-2.912-12.712-4.341c-2.655-0.895-5.333-2.235-7.904,0.364c-0.287,0.29-1.306-0.145-2.958-0.383
			c8.801-6.954,19.48-7.058,28.4-11.541c-2.82-3.215-2.594-2.914,1.01-4.724c1.734-0.871,3.3-3.419,3.637-5.426
			c0.553-3.295-0.885-6.126-4.848-6.839c4.127-2.501,5.096-2.353,8.483,1.249c1.443-0.874,2.83-2.037,4.424-2.533
			c0.706-0.22,1.831,0.908,2.765,1.425c-0.622,0.707-1.144,1.888-1.88,2.041c-3.854,0.803-5.355,3.159-4.05,6.873
			c0.327,0.93,0.641,1.933,1.234,2.688c1.059,1.35,1.739,2.9-0.198,3.521c-1.013,0.324-2.658-0.826-3.805-1.617
			c-0.577-0.398-0.679-1.482-1.132-2.588c-1.021,1.245-1.838,2.24-2.702,3.294c5.146,5.741-3.267,5.809-3.682,8.915
			c85.709,0,171.505,0,257.301,0C344.806,282.616,344.777,282.314,344.749,282.014z"/>
		<path fill-rule="evenodd" clip-rule="evenodd" d="M137.07,247.783c-8.383,2.724-16.785,5.452-25.187,8.182
			c-0.095-0.332-0.189-0.664-0.284-0.997c1.95-2.403,3.9-4.809,6.389-7.876c-11.143,0-21.187,0-32.247,0
			c2.654,2.676,4.827,4.867,7,7.059c-0.193,0.376-0.386,0.753-0.579,1.129c-3.843-1.012-7.712-1.933-11.523-3.055
			c-5.781-1.704-11.535-3.506-17.266-5.372c-1.009-0.328-2.164-0.98-2.676-1.83c-0.446-0.739-0.08-1.969-0.072-2.981
			c1.03,0.201,2.803,0.155,2.965,0.645c0.896,2.696,1.746,1.957,3.734,0.851c2.524-1.405,5.639-1.706,8.423-2.696
			c4.763-1.692,9.451-3.596,14.205-5.313c1.295-0.468,2.717-0.584,4.081-0.861c0.199,0.339,0.398,0.677,0.598,1.017
			c-2.831,2.571-5.661,5.142-9.358,8.501c11.332,0,21.446,0,31.678,0c0.594-4.467-7.779-3.613-5.534-8.813
			c5.653,1.904,11.174,3.787,16.712,5.617c2.441,0.808,4.9,1.583,7.394,2.197c0.582,0.144,1.332-0.463,2.021-0.663
			c0.997-0.289,2.009-0.522,3.015-0.779c0.16,1.037,0.378,2.07,0.467,3.114c0.096,1.115,0.204,2.257,0.06,3.354
			c-0.129,0.984-0.593,1.925-0.908,2.885c-0.797-0.7-1.612-1.381-2.38-2.11C137.55,248.751,137.427,248.387,137.07,247.783z"/>
		<path fill-rule="evenodd" clip-rule="evenodd" d="M201.19,398.088c35.42,0,70.841,0,106.262,0
			c0.066,0.384,0.133,0.768,0.198,1.151c-0.941,0.345-1.882,0.984-2.826,0.989c-11.096,0.064-22.192-0.008-33.288,0.044
			c-6.593,0.031-13.186,0.247-19.779,0.332c-12.2,0.156-24.401,0.324-36.602,0.388c-3.856,0.02-7.718-0.208-11.566-0.485
			c-0.94-0.068-1.833-0.782-2.748-1.199C200.957,398.901,201.073,398.494,201.19,398.088z"/>
		<path fill-rule="evenodd" clip-rule="evenodd" d="M209.918,273.536c-1.462,1.634-2.33,4.999-6,1.913
			c-0.653-0.549-2.286-0.054-3.436,0.14c-1.483,0.25-3.92,1.361-4.229,0.915c-1.255-1.814-2.894-4.299-2.509-6.145
			c1.504-7.236,4.405-11.138,12.417-11.607c2.439-0.143,3.79-3.988,2.458-6.799c-0.207-0.436-0.428-0.863-1.092-2.197
			c2.22-0.227,4.008-0.409,5.796-0.591c0.007,1.62,0.392,3.35-0.045,4.839c-1.555,5.293-3.507,10.471-5.007,15.777
			C208.012,270.699,209.219,272.031,209.918,273.536z M206.279,264.574c-0.031-3.576-1.338-4.392-3.718-3.165
			c-2.07,1.066-5.848,7.571-5.147,9.569c0.297,0.847,2.428,1.979,2.921,1.676C203.615,270.639,205.672,267.619,206.279,264.574z"/>
		<path fill-rule="evenodd" clip-rule="evenodd" d="M405.865,96.133c-1.209,0.586-2.899,0.853-3.536,1.816
			c-2.016,3.051-3.557,6.411-5.465,9.541c-0.521,0.854-1.684,1.318-2.552,1.962c-0.254-0.953-0.9-1.999-0.699-2.843
			c1.376-5.799,2.996-11.541,4.388-17.336c0.438-1.82,0.416-3.749,0.666-6.237c1.126-0.057,2.722-0.136,4.808-0.24
			c-0.94,4.372-1.733,8.058-2.731,12.691c2.302-1.268,3.714-2.148,5.212-2.846c2.716-1.267,4.857,0.08,4.71,3.076
			c-0.084,1.714-0.791,3.39-0.964,5.108c-0.144,1.416,0.211,2.876,0.115,4.301c-0.072,1.084-0.168,2.552-0.856,3.123
			c-1.12,0.929-2.732,1.265-4.137,1.851c-0.298-1.232-1.029-2.548-0.812-3.68c0.608-3.155,1.61-6.233,2.457-9.343
			C406.268,96.761,406.066,96.447,405.865,96.133z"/>
		<path fill-rule="evenodd" clip-rule="evenodd" d="M241.95,367.808c0-1.752-0.181-3.249,0.073-4.668
			c0.135-0.747,1.028-1.359,1.578-2.031c0.729,0.624,2.072,1.233,2.089,1.877c0.144,5.399,0.044,10.805,0.012,16.209
			c0,0.12-0.067,0.24-0.077,0.363c-0.186,2.169,3.432,5.896-2.075,5.929c-11.622,0.068-13.393-1.057-13.612-7.717
			C229.659,369.365,232.616,366.778,241.95,367.808z M241.917,377.476c-0.037-4.414-1.659-6.995-4.199-6.804
			c-3.454,0.262-3.921,3.167-4.186,5.67c-0.382,3.604,1.707,6.115,4.52,6.056C241.674,382.32,241.284,379.304,241.917,377.476z"/>
		<path fill-rule="evenodd" clip-rule="evenodd" d="M273.031,417.3c1.406-0.329,2.236-0.484,3.045-0.718
			c4.03-1.162,8.126,1.175,8.557,5.261c0.363,3.454,0.338,6.98,0.101,10.449c-0.071,1.049-1.426,2.011-2.192,3.012
			c-0.669-0.997-1.789-1.939-1.919-3.002c-0.329-2.709,0.136-5.543-0.407-8.185c-0.335-1.633-1.933-3.007-2.963-4.496
			c-1.334,1.302-3.183,2.384-3.858,3.968c-0.675,1.579-0.179,3.66-0.188,5.521c-0.005,1.121,0.314,2.365-0.072,3.329
			c-0.439,1.09-1.506,1.927-2.3,2.874c-0.646-0.947-1.787-1.865-1.848-2.85c-0.227-3.695-0.074-7.413-0.117-11.122
			c-0.031-2.722-0.408-5.473-0.105-8.151c0.141-1.243,1.533-2.345,2.359-3.51c0.636,1.11,1.529,2.154,1.838,3.35
			C273.28,414.268,273.031,415.651,273.031,417.3z"/>
		<path fill-rule="evenodd" clip-rule="evenodd" d="M28.256,152.031c-2.979,2.97-6.998,4.828-8.351,9.529
			c-0.506,1.757-2.632,4.641-3.404,4.455c-3.525-0.849-0.888-3.527-0.543-5.098c1.077-4.902,2.851-9.646,4.143-14.508
			c0.448-1.688,0.276-3.541,0.417-5.786c1-0.265,2.361-0.625,4.086-1.083c1.389,5.18-2.271,9.229-2.567,13.52
			c2.291-1.311,4.457-2.841,6.846-3.833c2.223-0.923,3.72,0.198,3.603,2.67c-0.087,1.827-0.677,3.625-0.842,5.455
			c-0.141,1.559,0.083,3.148-0.008,4.715c-0.054,0.94-0.106,2.347-0.677,2.695c-1.274,0.777-2.874,1.022-4.34,1.484
			c-0.156-1.397-0.665-2.868-0.392-4.177c0.497-2.384,1.472-4.668,2.217-7.003c0.269-0.841,0.452-1.709,0.674-2.564
			C28.83,152.345,28.543,152.188,28.256,152.031z"/>
		<path fill-rule="evenodd" clip-rule="evenodd" d="M218.28,435.658c-0.455-1.58-1.16-3.139-1.305-4.747
			c-0.213-2.349,0.254-4.778-0.118-7.085c-0.207-1.283-1.305-3.061-2.394-3.417c-1.649-0.538-3.904-0.384-4.179,2.28
			c-0.316,3.063-0.329,6.165-0.82,9.194c-0.212,1.309-1.294,2.478-1.981,3.71c-0.546-1.224-1.518-2.43-1.568-3.673
			c-0.247-6.184-0.35-12.379-0.25-18.564c0.018-1.109,1.229-2.198,1.889-3.297c0.618,1.101,1.442,2.139,1.79,3.317
			c0.302,1.024,0.063,2.207,0.063,3.829c1.532-0.253,2.79-0.452,4.045-0.671c4.424-0.769,7.621,1.78,7.747,6.213
			c0.089,3.111,0.276,6.229,0.13,9.331c-0.059,1.253-0.891,2.469-1.371,3.701C219.398,435.74,218.839,435.699,218.28,435.658z"/>
		<path fill-rule="evenodd" clip-rule="evenodd" d="M249.682,373.557c0-3.365-0.146-6.741,0.098-10.089
			c0.064-0.888,1.328-1.688,2.04-2.526c0.511,0.948,1.548,1.961,1.441,2.834c-0.418,3.434,0.468,4.42,4.091,3.602
			c5.685-1.283,8.272,1.143,8.329,7.062c0.027,2.864,0.159,5.734,0.002,8.589c-0.047,0.861-0.903,1.679-1.39,2.517
			c-0.761-0.734-2.073-1.395-2.185-2.216c-0.433-3.187-0.435-6.428-0.689-9.642c-0.188-2.371-1.732-3.206-3.9-2.905
			c-2.04,0.284-3.427,1.229-3.383,3.646c0.051,2.865,0.076,5.761-0.305,8.588c-0.129,0.955-1.527,1.739-2.347,2.602
			c-0.589-0.906-1.62-1.78-1.686-2.723c-0.216-3.099-0.081-6.224-0.081-9.338C249.706,373.557,249.694,373.557,249.682,373.557z"/>
		<path fill-rule="evenodd" clip-rule="evenodd" d="M169.236,67.11c-5.585,2.669-7.062,5.245-5.516,9.937
			c0.361,1.096,2.337,1.659,4.201,2.88c-0.771,0.774-1.777,2.466-3.183,2.918c-0.737,0.237-2.33-1.567-3.254-2.684
			c-1.088-1.314-1.869-2.884-2.783-4.342c-0.722,1.609-1.335,3.28-2.204,4.806c-0.586,1.031-1.532,1.857-2.316,2.775
			c-0.511-0.217-1.021-0.434-1.532-0.65c0.731-3.176,1.352-6.383,2.222-9.521c1.171-4.228,2.671-8.369,3.723-12.622
			c0.279-1.13-0.571-2.54-1.023-4.284c1.93,0,3.659,0,5.809,0c-1.142,4.58-2.185,8.765-3.229,12.95
			C162.85,66.848,164.768,63.344,169.236,67.11z"/>
		<path fill-rule="evenodd" clip-rule="evenodd" d="M144.986,390.169c2.929-0.987,2.929-0.987,8.531,3.421
			c1.687-2.285,3.143-5.256,7.56-3.449c-1.211,2.239-2.079,4.525-3.528,6.347c-1.722,2.165-1.837,3.909,0.061,5.879
			c0.678,0.704,1.449,1.454,1.769,2.333c0.398,1.094,0.375,2.341,0.533,3.522c-1.266-0.348-3.004-0.287-3.715-1.112
			c-3.241-3.76-3.041-3.753-6.382-0.406c-0.82,0.821-2.491,0.794-3.771,1.157c0.237-1.067,0.288-2.226,0.756-3.18
			c0.591-1.204,1.813-2.146,2.222-3.379c0.393-1.187,0.498-2.778,0.017-3.88C147.976,394.986,146.464,392.748,144.986,390.169z"/>
		<path fill-rule="evenodd" clip-rule="evenodd" d="M133.612,77.966c0.46-8.513,8.078-14.176,16.493-12.108
			c0.611,0.15,1.409,1.727,1.247,2.444c-0.561,2.479-1.604,4.844-2.258,7.308c-0.257,0.969,0.084,2.083,0.049,3.128
			c-0.035,1.023,0.161,2.425-0.406,2.964c-0.682,0.648-2.056,0.697-3.144,0.762c-1.683,0.1-3.54-0.464-5.039,0.063
			C136.324,84.013,133.38,82.234,133.612,77.966z M138.547,80.781c2.162-1.325,4.062-2.027,5.27-3.358
			c1.192-1.313,1.924-3.196,2.408-4.953c0.35-1.274-0.034-2.75-0.091-4.136c-1.589,0.226-3.725-0.118-4.664,0.784
			C138.657,71.819,137.351,75.313,138.547,80.781z"/>
		<path fill-rule="evenodd" clip-rule="evenodd" d="M184.646,78.399c-2.473,3.397-5.11,5.377-9.065,4.778
			c-4.577-0.693-6.025-3.465-4.948-8.09c1.346-5.782,4.386-9.414,10.342-9.742c1.72-0.095,4.25,1.1,5.056,2.489
			c0.554,0.953-0.775,3.88-2.066,4.825c-2.083,1.522-4.844,2.101-7.287,3.155c-0.913,0.394-1.732,1.003-2.595,1.515
			c0.764,0.812,1.482,2.243,2.301,2.304c1.687,0.125,3.425-0.495,5.146-0.784C182.565,78.674,183.607,78.547,184.646,78.399z
			 M182.5,69.243c-0.078-0.378-0.155-0.756-0.233-1.135c-0.958-0.184-2.382-0.854-2.792-0.463c-1.519,1.451-4.117,2.583-2.59,6.339
			C178.967,72.228,180.733,70.735,182.5,69.243z"/>
		<path fill-rule="evenodd" clip-rule="evenodd" d="M293.576,439.866c1.812,0.161,3.09,0.048,4.184,0.442
			c0.89,0.32,1.559,1.253,2.324,1.914c-0.738,0.677-1.438,1.882-2.222,1.938c-3.089,0.228-6.203,0.094-9.475,0.094
			c-1.833-3.149,0.453-4.902,2.405-6.795c1.677-1.627,3.487-3.169,4.862-5.027c0.541-0.729,0.445-2.956-0.036-3.207
			c-1.066-0.556-2.69-0.667-3.844-0.263c-1.148,0.403-1.998,1.657-3.143,2.685c-1.72-3.244-0.537-5.714,1.543-6.179
			c2.621-0.587,5.954-0.349,8.239,0.896c1.154,0.628,1.476,4.568,0.739,6.447C298.188,435.271,295.805,437.176,293.576,439.866z"/>
		<path fill-rule="evenodd" clip-rule="evenodd" d="M121.661,67.309c-0.647,1.223-1.322,2.497-2.225,4.202
			c-1.34-1.823-1.759-5.039-5.22-2.615c1.187,1.847,2.709,3.521,3.404,5.489c0.688,1.949,1.135,4.38,0.549,6.241
			c-0.388,1.229-2.744,1.917-4.309,2.655c-0.613,0.289-1.494,0.159-2.219,0.031c-1.638-0.29-3.255-0.697-4.881-1.056
			c0.411-1.709,0.822-3.418,1.391-5.786c1.282,1.729,1.908,2.987,2.904,3.777c0.684,0.543,1.882,0.437,2.85,0.621
			c0.142-0.942,0.596-1.977,0.35-2.805c-0.375-1.271-1.13-2.47-1.905-3.572c-1.7-2.415-2.596-5.09-0.647-7.505
			C113.793,64.396,118.325,64.684,121.661,67.309z"/>
		<path fill-rule="evenodd" clip-rule="evenodd" d="M129.836,80.106c-0.332,0.488-0.753,1.763-1.609,2.209
			c-1.1,0.573-2.699,0.913-3.792,0.527c-0.735-0.259-1.432-1.997-1.329-2.988c0.229-2.199,1.126-4.322,1.459-6.52
			c0.287-1.888,0.051-3.852,0.287-5.752c0.098-0.794,0.694-1.636,1.292-2.227c0.487-0.482,1.338-0.577,1.982-0.928
			c1.041-0.565,1.322-3.706,3.011-1.454c0.831,1.107,2.155,3.192-0.152,5.519c-1.951,1.968-2.462,5.474-3.254,8.395
			C127.548,77.558,128.822,78.623,129.836,80.106z"/>
		<path fill-rule="evenodd" clip-rule="evenodd" d="M242.489,425.207c2.245-0.24,4.49-0.481,7.132-0.765
			c0-1.599-0.188-3.094,0.068-4.51c0.156-0.867,0.99-1.613,1.52-2.413c0.532,0.756,1.38,1.455,1.528,2.279
			c0.254,1.413,0.07,2.905,0.07,4.403c2.905,0.41,5.391,0.762,7.876,1.113c0.028,0.373,0.057,0.745,0.084,1.119
			c-2.529,0.631-5.058,1.262-7.84,1.956c0,1.401,0.172,2.783-0.064,4.09c-0.141,0.771-0.93,1.422-1.427,2.127
			c-0.559-0.703-1.28-1.336-1.627-2.133c-0.276-0.636-0.15-1.472-0.109-2.215c0.116-2.148-0.905-2.733-2.965-2.692
			c-1.464,0.029-2.941-0.636-4.413-0.991C242.378,426.12,242.434,425.663,242.489,425.207z"/>
		<path fill-rule="evenodd" clip-rule="evenodd" d="M223.573,430.564c1.66-1.688,3.141-3.628,5.035-4.991
			c1.672-1.203,2.886-0.082,2.941,1.817c0.141,4.857,0.236,9.72,0.138,14.576c-0.019,0.937-1.006,1.853-1.545,2.778
			c-0.504-0.07-1.009-0.14-1.513-0.21c-0.228-2.926-0.786-5.873-0.592-8.771c0.207-3.077-0.404-4.82-4.166-4.203
			C223.772,431.229,223.673,430.897,223.573,430.564z"/>
		<path fill-rule="evenodd" clip-rule="evenodd" d="M181.047,397.99c-1.998,0-4.042,0.252-5.971-0.108
			c-0.948-0.177-1.684-1.49-2.517-2.289c1.133-0.681,2.19-1.659,3.416-1.964c1.397-0.347,2.951-0.192,4.423-0.08
			c3.088,0.237,6.181,0.5,9.236,0.977c0.536,0.084,0.901,1.264,1.345,1.938c-0.694,0.378-1.358,1.005-2.086,1.089
			c-2.6,0.302-5.223,0.42-7.837,0.607C181.053,398.103,181.05,398.046,181.047,397.99z"/>
		<path fill-rule="evenodd" clip-rule="evenodd" d="M414.948,100.086c0.676-0.236,1.388-0.743,2.02-0.657
			c1.837,0.247,4.707,0.212,5.21,1.245c0.759,1.557,0.346,4.154-0.469,5.886c-0.931,1.979-2.847,3.493-4.593,5.509
			c1.31,0.563,2.334,1.002,3.373,1.448c-1.276,2.382-5.263,3.708-7.098,2.296c-0.48-0.369-0.824-1.744-0.531-2.146
			c1.291-1.765,2.916-3.283,4.268-5.01c0.986-1.259,1.985-2.611,2.528-4.088c0.709-1.929,0.058-3.106-2.357-2.769
			c-0.782,0.109-1.654-0.435-2.485-0.679C414.858,100.775,414.903,100.431,414.948,100.086z"/>
		<path fill-rule="evenodd" clip-rule="evenodd" d="M272.875,381.748c-1.752,0-2.813,0-4.411,0c1.176-3.604,3.588-5.199,7.189-6.643
			c0,6.88,0,13.179,0,19.645c-2.739-1.247-2.746-1.247-2.775-5.691C272.862,386.724,272.875,384.389,272.875,381.748z"/>
		<path fill-rule="evenodd" clip-rule="evenodd" d="M183.507,404.067c-2.736-0.142-5.485-0.175-8.201-0.487
			c-0.917-0.105-1.752-0.921-2.625-1.412c0.921-0.598,1.786-1.562,2.776-1.713c1.819-0.279,3.711-0.042,5.572-0.089
			c2.228-0.057,4.483-0.442,6.666-0.182c1.199,0.144,2.274,1.323,3.405,2.035c-1.029,0.565-2.003,1.41-3.1,1.625
			c-1.445,0.283-2.986,0.069-4.485,0.069C183.512,403.966,183.509,404.017,183.507,404.067z"/>
		<path fill-rule="evenodd" clip-rule="evenodd" d="M43.767,156.297c-0.931,4.251-1.782,8.421-2.789,12.552
			c-0.27,1.11-0.871,2.224-1.604,3.096c-0.298,0.353-1.541,0.326-2.017-0.008c-0.431-0.303-0.659-1.31-0.536-1.918
			c0.881-4.379,1.92-8.726,2.813-13.103C40.06,154.821,41.47,154.637,43.767,156.297z"/>
		<path fill-rule="evenodd" clip-rule="evenodd" fill="#FFFFFF" d="M279.352,228.964c-1.007-0.342-2.014-0.684-3.194-1.085
			c2.146-2.356,3.911-4.613,6.046-6.441c0.631-0.541,2.301,0.132,3.496,0.248c-0.332,1.432-0.664,2.864-1.009,4.302
			C282.902,226.985,281.127,227.975,279.352,228.964z"/>
		<path fill-rule="evenodd" clip-rule="evenodd" d="M81.89,225.488c1.827-0.194,3.653-0.388,5.466-0.586
			c0.691,0.27,1.396,0.544,2.1,0.818c0.013,0.332,0.025,0.663,0.037,0.994c-1.821,0.529-3.642,1.059-5.463,1.588
			c-0.121-0.33-0.243-0.659-0.364-0.988c-0.432,0.893-0.864,1.786-1.296,2.679c-0.234-0.042-0.468-0.084-0.702-0.126
			C81.742,228.408,81.816,226.948,81.89,225.488z"/>
		<path fill-rule="evenodd" clip-rule="evenodd" d="M368.25,230.914c1.456,0.145,2.913,0.289,3.282,0.326
			c0.224,2.379,0.425,3.728,0.448,5.079c0.015,0.765-0.018,1.806-0.48,2.228c-0.483,0.44-1.508,0.287-2.295,0.393
			c-0.07-0.749-0.183-1.498-0.198-2.248c-0.031-1.492-0.01-2.984-0.01-4.476C368.748,231.781,368.499,231.348,368.25,230.914z"/>
		<path fill-rule="evenodd" clip-rule="evenodd" fill="#FFFFFF" d="M162.596,227.046c-0.498-0.777-1.6-1.958-1.395-2.266
			c1.17-1.752,2.652-3.296,3.632-4.447c0.432,1.479,0.953,2.891,1.219,4.348c0.113,0.617-0.31,1.331-0.491,2.001
			C164.572,226.804,163.584,226.925,162.596,227.046z"/>
		<path fill-rule="evenodd" clip-rule="evenodd" d="M369.695,271.938c0-2.606,0-5.213,0-8.373c0.966,0.558,1.84,0.838,1.832,1.093
			c-0.071,2.466-0.291,4.927-0.47,7.39C370.604,272.011,370.149,271.976,369.695,271.938z"/>
		<path fill-rule="evenodd" clip-rule="evenodd" fill="#FFFFFF" d="M352.212,22.289c0.304,2.868,0.543,5.121,0.74,6.979
			c0.705-0.795,1.725-2.421,3.168-3.45c1.635-1.163,1.377,4.863,3.817,1.138c0.986,1.514,1.786,2.744,2.588,3.973
			c0.348-0.194,0.693-0.389,1.041-0.583c-0.35-0.659-0.798-1.286-1.022-1.986c-0.24-0.747-0.368-1.57-0.31-2.341
			c0.013-0.159,1.255-0.517,1.611-0.288c0.616,0.396,1.381,1.174,1.39,1.803c0.062,4.016-0.129,8.035-0.121,12.052
			c0.021,9.813,0.136,19.625,0.153,29.437c0.021,11.104-0.138,22.21-0.009,33.313c0.133,11.393,0.604,22.78,0.771,34.172
			c0.141,9.594,0.021,19.192,0.089,28.789c0.066,9.473,0.106,18.948,0.401,28.415c0.107,3.429-1.036,4.466-4.449,4.468
			c-10.678,0.007-21.355,0.436-32.034,0.534c-5.172,0.047-10.347-0.413-15.521-0.406c-13.245,0.018-26.489,0.201-39.734,0.249
			c-5.344,0.019-10.688-0.246-16.031-0.196c-5.724,0.054-11.445,0.443-17.168,0.47c-5.27,0.023-10.54-0.296-15.812-0.363
			c-6.588-0.083-13.178-0.044-19.767-0.092c-8.17-0.059-16.341-0.216-24.512-0.212c-7.03,0.002-14.06,0.2-21.089,0.255
			c-5.881,0.045-11.762,0.01-17.894,0.01c0.097-4.643,3.638-5.833,5.854-7.765c6.292-5.481,12.876-10.631,19.392-15.853
			c4.991-3.998,10.129-7.813,15.064-11.878c6.811-5.611,13.464-11.414,20.236-17.074c6.77-5.657,13.679-11.149,20.383-16.883
			c4.849-4.146,9.302-8.759,14.213-12.825c9.294-7.694,18.876-15.04,28.182-22.719c16.9-13.946,33.742-27.962,50.494-42.085
			c8.504-7.169,16.672-14.739,25.173-21.912C344.452,26.94,347.951,25.095,352.212,22.289z M343.752,42.061
			c-0.1-0.354-0.199-0.709-0.299-1.064c-4.708,1.163-9.415,2.324-14.123,3.487C334.732,46.263,339.739,46.354,343.752,42.061z"/>
		<path fill-rule="evenodd" clip-rule="evenodd" fill="#FFFFFF" d="M62.909,107.41c24.281,29.148,48.563,58.296,73.217,87.893
			c-0.11,3.828-3.832,3.478-6.633,3.559c-9.92,0.286-19.85,0.298-29.775,0.284c-9.124-0.013-18.25-0.131-27.369-0.398
			c-0.923-0.027-2.527-1.331-2.602-2.153c-1.14-12.497-2.067-25.013-3.064-37.523c-0.999-12.529-1.945-25.063-3.072-37.581
			c-0.417-4.637-1.285-9.233-1.947-13.848C62.078,107.565,62.494,107.488,62.909,107.41z"/>
		<path fill-rule="evenodd" clip-rule="evenodd" fill="#FFFFFF" d="M65.216,193.488c0.068,6.078-4.584,2.87-6.944,3.588
			c-3.607-6.042-1.092-12.14-0.044-18.616c1.629,0,3.414,0,5.5,0c0,1.674,0,3.148,0,4.622l0.083-0.094
			c-1.525,0.224-3.05,0.449-4.686,0.689c0.138,1.839,0.295,3.928,0.45,5.987c1.926,1.311,3.834,2.608,5.743,3.906L65.216,193.488z"
			/>
		<path fill-rule="evenodd" clip-rule="evenodd" fill="#FFFFFF" d="M57.292,175.169c0.919-2.659,1.616-4.673,2.761-7.985
			c1.751,2.955,3.029,5.109,4.734,7.985C61.78,175.169,59.996,175.169,57.292,175.169z"/>
		<path fill-rule="evenodd" clip-rule="evenodd" fill="#FFFFFF" d="M63.729,183.082c0.463,0.224,0.927,0.448,1.39,0.672
			c-1.722,2.698-0.185,4.697,1.224,6.896c0.321,0.5-0.715,1.869-1.126,2.838l0.102,0.083c-2.186-3.288-4.158-6.606-1.507-10.583
			L63.729,183.082z"/>
		<path fill-rule="evenodd" clip-rule="evenodd" fill="#FFFFFF" d="M58.401,151.637c1.085-1.397,1.736-2.235,2.387-3.074
			c0.64,1.338,1.458,2.63,1.815,4.04c0.112,0.444-1.013,1.2-1.572,1.814C60.257,153.598,59.481,152.779,58.401,151.637z"/>
		<path fill-rule="evenodd" clip-rule="evenodd" fill="#FFFFFF" d="M365.381,12.579c-0.522,1.428-1.044,2.856-1.566,4.285
			c-0.54-0.628-1.607-1.354-1.512-1.862c0.208-1.115,1.006-2.121,1.563-3.172C364.371,12.08,364.875,12.329,365.381,12.579z"/>
		<path fill-rule="evenodd" clip-rule="evenodd" fill="#FFFFFF" d="M240.973,222.222c0.615-0.674,1.231-1.348,2.366-2.59
			c0.475,1.488,0.851,2.667,1.228,3.845c-1.139,0-2.278,0-3.417,0C241.09,223.058,241.031,222.64,240.973,222.222z"/>
		<path fill-rule="evenodd" clip-rule="evenodd" fill="#FFFFFF" d="M206.279,264.574c-0.607,3.045-2.664,6.064-5.944,8.08
			c-0.494,0.303-2.624-0.829-2.921-1.676c-0.701-1.998,3.078-8.503,5.147-9.569C204.941,260.183,206.248,260.998,206.279,264.574z"
			/>
		<path fill-rule="evenodd" clip-rule="evenodd" fill="#FFFFFF" d="M241.917,377.476c-0.633,1.828-0.243,4.845-3.865,4.922
			c-2.813,0.06-4.901-2.451-4.52-6.056c0.265-2.503,0.731-5.408,4.186-5.67C240.258,370.48,241.88,373.062,241.917,377.476z"/>
		<path fill-rule="evenodd" clip-rule="evenodd" fill="#FFFFFF" d="M138.547,80.781c-1.196-5.469,0.11-8.962,2.922-11.663
			c0.939-0.902,3.075-0.558,4.664-0.784c0.057,1.386,0.441,2.862,0.091,4.136c-0.483,1.757-1.215,3.64-2.408,4.953
			C142.608,78.754,140.709,79.456,138.547,80.781z"/>
		<path fill-rule="evenodd" clip-rule="evenodd" fill="#FFFFFF" d="M182.5,69.243c-1.767,1.492-3.534,2.984-5.615,4.742
			c-1.527-3.756,1.071-4.888,2.59-6.339c0.41-0.391,1.833,0.279,2.792,0.463C182.345,68.487,182.423,68.865,182.5,69.243z"/>
		<path fill-rule="evenodd" clip-rule="evenodd" d="M343.752,42.061c-4.013,4.293-9.02,4.202-14.422,2.423
			c4.708-1.163,9.415-2.324,14.123-3.487C343.553,41.352,343.652,41.706,343.752,42.061z"/>
		<path fill-rule="evenodd" clip-rule="evenodd" d="M63.811,182.988c-2.651,3.977-0.679,7.295,1.507,10.583
			c-1.908-1.298-3.816-2.596-5.743-3.906c-0.155-2.059-0.312-4.148-0.45-5.987C60.761,183.437,62.286,183.212,63.811,182.988z"/>
	</g>
</g>
</svg>
