<?xml version="1.0" encoding="utf-8"?>
<!-- Generator: Adobe Illustrator 16.0.0, SVG Export Plug-In . SVG Version: 6.00 Build 0)  -->
<!DOCTYPE svg PUBLIC "-//W3C//DTD SVG 1.1//EN" "http://www.w3.org/Graphics/SVG/1.1/DTD/svg11.dtd">
<svg version="1.1" id="Layer_1" xmlns="http://www.w3.org/2000/svg" xmlns:xlink="http://www.w3.org/1999/xlink" x="0px" y="0px"
	 width="657.842px" height="321.795px" viewBox="0 0 657.842 321.795" enable-background="new 0 0 657.842 321.795"
	 xml:space="preserve">
<g>
	<g>
		<path fill-rule="evenodd" clip-rule="evenodd" fill="#FFFFFF" d="M0.75,0.75c219.28,0,438.562,0,657.842,0
			c0,107.265,0,214.53,0,321.795c-219.28,0-438.562,0-657.842,0C0.75,215.28,0.75,108.015,0.75,0.75z M315.311,163.948
			c0.286-23.497-1.393-30.676-10.957-55.691c-6.684-17.485-17.69-32.573-31.366-45.395c-13.928-13.057-29.625-23.577-47.659-30.28
			c-18.31-6.806-37.246-9.788-56.751-8.896C97.778,26.925,33.759,86.188,37.214,169.098c1.943,46.639,24.15,83.788,63.421,109.787
			c23.68,15.677,50.564,23.438,78.43,22.481c46.707-1.603,85.679-20.67,112.688-60.054
			C307.612,218.188,316.368,192.448,315.311,163.948z M483.843,143.472c1.992,0.661,4.083,0.702,4.761,1.702
			c2.025,2.989,3.756,6.25,5.09,9.608c0.793,1.999,1.821,3.72,3.78,3.141c1.522-0.45,3.336-2.17,3.761-3.679
			c1.661-5.911,2.979-11.932,4.127-17.969c1.27-6.667,2.215-13.395,3.304-20.096c0.616-3.788,2.291-5.222,6.054-5.229
			c8.116-0.016,16.231-0.044,24.348-0.063c6.992-0.017,13.987,0.053,20.975-0.13c1.037-0.027,2.045-1.233,3.064-1.893
			c-1.011-0.604-1.985-1.644-3.038-1.73c-2.852-0.232-5.737-0.052-8.608-0.047c-13.739,0.021-27.479-0.026-41.217,0.153
			c-1.385,0.019-3.69,1.134-3.975,2.175c-1.712,6.296-2.935,12.725-4.374,19.098c-1.362,6.037-2.788,12.059-4.187,18.087
			c-1.825-1.563-2.416-3.521-3.688-4.801c-1.53-1.542-3.961-3.782-5.421-3.415C486.616,138.884,482.408,139.352,483.843,143.472z
			 M566.908,100.69c-0.849-0.116-1.701-0.334-2.554-0.333c-28.082,0.015-56.165,0.022-84.247,0.182
			c-1.231,0.007-2.455,1.439-3.683,2.208c1.334,0.766,2.645,2.14,4.006,2.193c6.096,0.239,12.206,0.107,18.312,0.099
			c21.546-0.029,43.091-0.064,64.637-0.094C566.163,104.941,567.593,103.793,566.908,100.69z M407.157,105.209
			c-2.671-0.021-3.111-1.198-3.732-3.336c-1.736-5.98-3.975-11.84-6.467-17.549c-0.445-1.02-3.047-1.157-4.694-1.498
			c-0.156-0.033-1.084,1.604-0.858,2.107c1.591,3.54,3.655,6.883,5.062,10.487c2.104,5.392,3.672,10.994,5.754,16.396
			c0.449,1.165,2.043,2.47,3.237,2.609c1.276,0.149,3.495-0.656,3.935-1.649c2.329-5.268,4.266-10.714,6.256-16.127
			c0.589-1.601,0.8-3.339,1.384-4.942c1.035-2.844,2.225-5.633,3.373-8.501c-4.532-1.105-6.433-0.057-7.611,3.72
			C410.896,93.012,409.035,99.11,407.157,105.209z M521.92,153.253c0-0.05,0-0.102,0-0.152c2.871,0,5.758,0.168,8.603-0.109
			c0.787-0.077,1.777-1.389,2.02-2.308c0.117-0.44-1.223-1.737-2.021-1.855c-1.953-0.289-3.986,0.01-5.963-0.182
			c-1.103-0.107-2.157-0.721-3.233-1.107c0.622-1.078,1.088-2.292,1.893-3.208c2.909-3.312,6.289-6.281,8.743-9.887
			c1.052-1.544,1.163-4.917,0.163-6.463c-4.666-7.221-13.53-7.84-19.47-1.462c-0.837,0.897-0.521,3.119-0.266,4.648
			c0.091,0.544,1.902,1.424,2.375,1.161c1.262-0.704,2.586-1.762,3.221-3.015c1.072-2.12,3.863-3.041,6.86-1.917
			c2.646,0.993,3.031,3.232,2.077,5.161c-1.034,2.09-2.91,3.818-4.604,5.52c-3.065,3.077-6.43,5.872-9.323,9.094
			c-1.018,1.132-1.517,3.262-1.258,4.765c0.114,0.66,2.693,1.103,4.194,1.265C517.906,153.415,519.922,153.253,521.92,153.253z
			 M511.214,78.855c2.951,0,5.918,0.171,8.856-0.048c2.938-0.218,4.456,0.588,4.37,3.827c-0.042,1.576,0.481,3.701,2.715,2.913
			c1.226-0.432,2.393-2.042,2.848-3.373c0.48-1.404-0.196-2.865,2.054-3.688c2.215-0.809,2.138-3.203,0.156-4.342
			c-3.591-2.066-3.265-5.162-2.931-8.405c0.204-1.983,0.829-4.011,0.573-5.926c-0.223-1.677-1.41-3.225-2.172-4.83
			c-1.248,0.844-2.785,1.453-3.691,2.572c-3.527,4.356-6.434,9.308-10.41,13.173C511.1,73.143,510.67,75.242,511.214,78.855z
			 M593.952,108.519c0-2.948-0.108-5.686,0.073-8.403c0.048-0.728,0.857-1.835,1.523-2.018c3.312-0.906,2.614-2.948,1.88-5.272
			c-5.28,0-10.395-0.147-15.494,0.048c-3.878,0.149-5.401,2.223-5.534,7.365c2.309-0.656,4.426-1.257,6.979-1.982
			c-0.2,1.283-0.214,1.783-0.359,2.24c-1.149,3.586-2.458,7.13-3.391,10.771c-0.225,0.876,0.774,2.065,1.211,3.11
			c1.012-0.628,2.697-1.083,2.911-1.917c0.759-2.951,0.901-6.054,1.503-9.054c0.365-1.824,1.145-3.565,1.739-5.345
			c0.494,0.086,0.989,0.173,1.484,0.259c0.152,1.25,0.39,2.497,0.438,3.751c0.086,2.24-0.217,4.533,0.169,6.712
			c0.303,1.712,1.004,3.721,2.228,4.824c2.329,2.1,4.555,0.636,6.511-4.124C596.646,109.191,595.509,108.907,593.952,108.519z
			 M558.403,123.505c-2.967-0.324-5.267-0.708-7.579-0.797c-3.609-0.14-7.247-0.313-10.827,0.019
			c-1.31,0.122-3.338,1.469-3.557,2.556c-0.493,2.451,1.827,2.049,3.355,2.083c2.365,0.055,4.733-0.032,7.101-0.028
			c2.549,0.005,3.447,1.36,2.243,3.473c-1.74,3.05-4.015,5.884-5.231,9.121c-1.366,3.636-1.898,7.603-2.567,11.465
			c-0.11,0.642,0.861,2.026,1.46,2.106c0.894,0.12,2.115-0.395,2.796-1.054c0.646-0.626,0.836-1.766,1.125-2.711
			c1.204-3.946,1.974-8.081,3.651-11.811C552.433,133.344,555.239,129.098,558.403,123.505z M624.617,74.427
			c0.449,0.598,0.898,1.196,1.348,1.795c-0.911,0.87-1.891,1.68-2.712,2.627c-0.749,0.863-1.94,1.97-1.811,2.793
			c0.132,0.845,1.556,1.602,2.544,2.171c1.433,0.826,2.981,1.45,4.617,2.224c-4.549,5.673-4.517,5.646-8.7,0.76
			c-0.495-0.579-1.57-0.66-2.376-0.972c-0.368,1.217-1.099,2.453-1.041,3.65c0.212,4.369,8.567,6.494,12.954,3.066
			c2.509-1.96,4.292-6.683,2.353-8.294c-2.521-2.096-1.895-4.279-1.666-6.723c0.398-4.28-0.889-6.193-4.88-7.485
			c-2.537-0.822-7.565,1.161-8.489,3.803c-0.453,1.298,0.324,3.027,0.526,4.436C620.29,76.7,622.453,75.563,624.617,74.427z
			 M437.368,113.895c1.174-4.047,0.866-6.497-2.167-7.683c-5.419-2.119-10.448,0.5-11.608,6.145
			c-0.418,2.034-0.261,4.239-0.065,6.337c0.545,5.833,5.501,9.06,10.808,6.619c1.902-0.875,3.281-3.306,4.377-5.312
			c0.43-0.785-0.571-2.352-1.171-4.43c-1.624,2.011-2.686,3.246-3.66,4.547c-1.532,2.046-3.819,2.122-4.918-0.248
			c-0.889-1.918-1.325-4.229-1.255-6.342c0.042-1.263,1.231-3.204,2.298-3.522c1.16-0.347,2.839,0.711,4.173,1.39
			C435.172,111.902,435.977,112.78,437.368,113.895z M601.407,91.82c0,6.553-0.065,13.275,0.091,19.993
			c0.018,0.768,1.324,2.153,1.956,2.111c1.012-0.068,2.294-0.887,2.839-1.771c0.521-0.846,0.307-2.182,0.313-3.302
			c0.024-4.7,0.01-9.401,0.01-13.95c2.999-0.562,5.177-0.969,7.354-1.376c0.097-0.561,0.192-1.121,0.288-1.681
			c-1.661-0.75-3.351-2.162-4.978-2.094C606.804,89.854,604.37,90.982,601.407,91.82z M465.499,99.688
			c0.072-0.366,0.144-0.732,0.215-1.099c-1.364-0.67-2.705-1.858-4.095-1.917c-5.473-0.231-10.965-0.214-16.44-0.026
			c-1.07,0.037-2.101,1.245-3.149,1.913c1.041,0.659,2.063,1.852,3.124,1.886c5.728,0.186,11.466,0.125,17.199,0.043
			C463.405,100.474,464.45,99.968,465.499,99.688z M442.218,106.271c7.596,0.906,15.19,2.331,22.727-0.075
			C457.351,103.086,449.773,104.608,442.218,106.271z"/>
		<path fill-rule="evenodd" clip-rule="evenodd" d="M315.308,163.947c1.061,28.501-7.696,54.241-23.554,77.365
			c-27.01,39.384-65.982,58.451-112.688,60.054c-27.866,0.956-54.75-6.805-78.43-22.481
			c-39.271-25.999-61.478-63.148-63.421-109.787C33.759,86.188,97.778,26.925,168.577,23.686c19.505-0.892,38.441,2.09,56.751,8.896
			c18.034,6.703,33.731,17.223,47.659,30.28c13.676,12.821,24.682,27.91,31.366,45.395
			C313.918,133.272,315.596,140.451,315.308,163.947z M130.881,229.59c-2.493-0.384-4.986-0.767-7.479-1.15
			c-0.209,0.521-0.419,1.044-0.628,1.566c2.463,1.726,4.917,3.464,7.428,5.117c0.067,0.045,0.728-0.809,1.111-1.243
			c-1.691,2.333-3.383,4.667-5.114,7.056c1.02,1.393,5.738,0.692,3.936,4.672c-1.573,3.469-3.331,3.558-6.899,1.739
			c0.842,1.193,2.11,1.866,3.155,2.792c0.789,0.699,1.292,1.722,1.922,2.602c-0.846,0.519-1.636,1.284-2.552,1.492
			c-1.151,0.26-2.406,0.062-3.878,0.062c0.649,1.472,1.163,2.635,1.776,4.025c1.271-0.956,2.291-1.724,2.942-2.214
			c1.687,1.07,2.858,2.301,4.231,2.598c5.279,1.141,10.589,2.422,15.95,2.834c8.311,0.637,16.673,0.738,25.015,0.814
			c6.443,0.059,12.892-0.224,19.335-0.437c6.64-0.219,13.295-0.331,19.911-0.885c4.208-0.353,8.338-1.551,12.536-2.123
			c2.865-0.392,5.788-0.359,9.036-0.535c-1.65-0.383-2.956-0.686-4.527-1.05c1.02-2.848-4.437-6.102,1.275-8.5
			c2.612,3.016,3.88-0.087,5.84-1.22c-2.133-2.193-6.563,1.856-7.155-3.121c-0.332-2.794-3.555-5.498-0.431-7.755
			c-1.792-1.337-3.315-2.475-4.541-3.389c2.454-0.959,4.81-1.881,8.251-3.227c-4.976-2.431-5.419-5.852-4.746-9.352
			c0.48-2.495-1.104-6.214,3.25-6.984c-0.286-1.062-0.271-2.373-0.91-3.14c-2.478-2.976-5.162-5.777-7.783-8.658
			c3.472-0.861,7.965,1.449,10.751-3.616c-2.649-0.319-4.634-0.56-7.086-0.855c4.375-2.816,4.332-5.896,0.633-8.111
			c-1.126-0.675-1.784-2.131-2.992-3.652c3.736-0.411,5.462-1.85,4.546-5.185c-0.13-0.475-0.39-0.982-0.321-1.435
			c1.103-7.335,0.371-8.132-6.68-7.245c-0.501,0.063-1.032-0.101-1.549-0.159c-0.05-0.32-0.101-0.641-0.151-0.961
			c3.122-1.047,6.243-2.094,10.338-3.466c-1.276-2.266-2.55-4.528-3.391-6.022c1.037-1.868,2.567-3.396,2.64-4.991
			c0.207-4.476-4.403-3.121-7.654-5.283c3.184-0.275,5.334-0.462,7.545-0.654c-0.453-1.138-1.362-2.689-1.111-2.908
			c2.381-2.075,0.653-3.375-0.977-4.797c1.625-1.466,3.09-2.787,5.015-4.523c-1.726-0.726-4.783,0.375-3.294-2.837
			c-1.655,0.534-2.925,0.943-4.195,1.353c-0.22-0.475-0.439-0.95-0.659-1.425c2.908-1.725,5.815-3.45,9.127-5.414
			c-0.066-0.684-0.188-1.946-0.338-3.481c-1.721,0.779-2.935,1.328-4.2,1.901c-0.193-0.424-0.251-0.876-0.505-1.06
			c-2.378-1.719-3.046-3.056-0.4-5.571c1.008-0.958-0.135-4.181-0.354-7.125c2.429-1.911,2.5-2.601-0.079-6.928
			c-1.541,0.524-3.16,1.636-4.452,1.334c-1.003-0.233-1.596-2.228-2.371-3.44c0.252-0.283,0.505-0.566,0.757-0.85
			c1.7,0.318,3.39,0.713,5.103,0.913c0.642,0.075,1.669-0.103,1.933-0.528c0.452-0.732,0.715-1.794,0.575-2.637
			c-0.408-2.456-1.055-4.871-1.73-7.841c-6.831,0.358-14.331,0.694-21.823,1.17c-3.229,0.206-6.439,0.995-9.661,1.019
			c-16.313,0.118-32.628,0.122-48.942,0.046c-3.802-0.018-7.613-0.396-11.397-0.808c-2.972-0.322-5.91-0.951-9.438-1.541
			c1.038,2.782,1.621,4.344,2.575,6.901c-2.147-1.447-3.273-2.206-4.398-2.964c-0.43,0.281-0.859,0.562-1.288,0.843
			c0.938,1.936,1.703,4.001,2.966,5.694c0.248,0.332,2.434-0.786,3.344-1.102c0.93,1.447,1.961,3.049,3.125,4.86
			c-2.272,0.453-4.953,0.988-7.703,1.536c0,0.534-0.206,1.19,0.034,1.487c1.584,1.97,3.264,3.863,5.222,6.142
			c-1.667,1.168-3.184,2.233-4.702,3.296c-0.001,0.402-0.003,0.804-0.005,1.206c2.115,0.249,4.231,0.499,6.722,0.792
			c0,0.48,0,1.713,0,2.57c-1.345,0.514-2.866,0.656-3.105,1.284c-0.439,1.158-0.125,2.602-0.125,3.888
			c1.268,0.231,2.165,0.396,3.34,0.61c-7.84,5.24-8.504,6.566-6.062,12.032c-3.976,0.763-2.696,2.875-1.163,4.923
			c0.647,0.864,1.548,1.541,2.346,2.288c1.681,1.571,3.369,3.133,5.055,4.699c-0.203,0.365-0.405,0.729-0.608,1.094
			c-1.467-0.619-2.935-1.238-4.514-1.904c-0.601,0.947-1.221,1.926-1.939,3.059c0.535,0.479,1.093,0.962,1.632,1.465
			c1.032,0.961,2.054,1.934,3.08,2.902c-1.53,0.448-3.089,0.818-4.583,1.366c-1.618,0.594-3.176,1.354-4.669,2.002
			c2.185,2.073,3.643,3.457,5.312,5.041c0.262-0.194,0.969-0.719,2.012-1.492c0.422,1.979,0.757,3.546,1.164,5.448
			c0.79-1.297,1.313-2.156,1.836-3.016c0.249,0.066,0.496,0.132,0.745,0.196c0,1.889,0,3.777,0,5.865
			c-1.281-0.529-2.07-0.855-4.136-1.709c2.566,4.176,0.375,5.841-1.622,7.958c-1.059,1.123-0.899,3.395-1.374,5.519
			c2.207-0.597,3.564-0.963,5.292-1.431c-0.708,4.871-1.338,9.206-1.968,13.542c-0.457,0.06-0.913,0.12-1.368,0.18
			c1.69,1.483,3.632,2.771,4.982,4.517c0.922,1.192,1.882,3.7,1.308,4.432c-1.27,1.619-3.241,1.54-4.479-0.766
			c-0.261-0.484-1.23-0.802-1.868-0.794c-0.416,0.004-1.25,0.929-1.168,1.111c0.946,2.096,0.313,5.219,3.685,5.801
			c0.988,0.17,1.93,0.601,2.894,0.912c-0.021,0.25-0.042,0.5-0.062,0.75c-2.12,0.656-4.241,1.311-6.519,2.016
			C126.284,223.173,128.583,226.382,130.881,229.59z M276.036,78.23c-0.76-1.344-1.05-2.589-1.828-3.118
			c-7.21-4.897-15.716-5.927-23.961-7.448c-6.355-1.172-12.893-1.326-19.325-2.125c-7.337-0.912-14.626-2.696-21.975-2.935
			c-15.595-0.507-31.217-0.494-46.821-0.24c-11.202,0.183-22.446,0.614-33.574,1.825c-11.169,1.215-22.233,3.441-33.31,5.41
			c-4.854,0.862-9.659,2.062-14.416,3.365c-1.553,0.425-3.071,1.469-4.234,2.609c-0.553,0.541-0.67,2.588-0.236,2.896
			c2.15,1.524,4.409,3.244,6.89,3.889c7.609,1.977,15.277,3.875,23.034,5.095c10.412,1.638,20.904,2.907,31.408,3.774
			c7.452,0.616,14.991,0.606,22.475,0.354c21.601-0.727,43.199,0.99,64.854-1.955c10.551-1.435,20.957-3.811,31.562-4.848
			c2.692-0.264,5.41-0.892,7.964-1.785C268.245,81.696,271.809,80.006,276.036,78.23z M82.827,65.86
			c0.367,0.383,0.733,0.767,1.101,1.15c5.704-1.567,11.329-3.594,17.131-4.597c9.29-1.606,18.668-2.86,28.062-3.655
			c9.182-0.775,18.446-1.345,27.641-1.031c23.86,0.815,47.807-1.343,71.594,2.287c7.746,1.181,15.642,1.346,23.437,2.254
			c3.02,0.352,5.947,1.479,8.919,2.242c2.233,0.574,4.47,1.131,6.705,1.696c0.209-0.391,0.418-0.783,0.628-1.174
			c-0.904-0.997-1.684-2.158-2.737-2.958c-2.497-1.895-5.124-3.62-7.697-5.414c-6.019-4.193-11.89-8.624-18.112-12.491
			c-3.509-2.182-7.845-3.028-11.362-5.2c-5.482-3.384-11.744-4.113-17.654-5.953c-4.579-1.424-9.458-1.88-14.208-2.75
			c-4.46-0.817-8.896-2.04-13.392-2.326c-8.791-0.56-17.503-0.007-26.19,2.069c-11.853,2.834-24.335,3.15-35.037,10.21
			c-4.356,2.874-9.828,3.576-14.011,7.31c-3.923,3.504-8.822,5.906-13.24,8.871c-2.709,1.818-5.387,3.698-7.949,5.714
			C85.103,63.183,84.027,64.601,82.827,65.86z M268.431,257.95c-5.078,1.488-9.052,3.164-13.184,3.768
			c-11.82,1.728-23.676,3.319-35.571,4.385c-8.671,0.778-17.423,0.781-26.141,0.871c-12.459,0.128-24.926,0.273-37.377-0.07
			c-9.779-0.269-19.542-1.222-29.306-1.953c-8.309-0.622-16.621-1.251-24.906-2.123c-2.141-0.226-4.141-1.568-6.285-2.053
			c-3.461-0.782-6.987-1.279-10.485-1.896c-0.118,0.433-0.236,0.865-0.355,1.298c3.557,3.271,6.754,7.098,10.751,9.69
			c6.622,4.295,14.089,7.313,20.594,11.757c7.642,5.222,16.361,7.814,24.887,9.941c11.625,2.899,23.784,3.746,35.757,5.093
			c3.247,0.365,6.645-0.933,9.977-0.956c11.583-0.084,22.56-3.08,33.471-6.519c2.111-0.665,4.443-0.842,6.372-1.831
			c6.939-3.561,13.543-7.844,20.663-10.962c7.612-3.334,13.248-9.179,19.764-13.889C267.903,261.892,267.845,260.031,268.431,257.95
			z M70.697,82.9c-0.477-0.227-0.954-0.453-1.431-0.679c-3.4,4.247-7.199,8.245-10.083,12.818
			c-2.504,3.973-4.226,8.505-5.844,12.954c-2.863,7.869-5.991,15.721-7.88,23.842c-1.958,8.416-3.075,17.112-3.609,25.745
			c-0.36,5.823,1.334,11.744,1.39,17.629c0.103,10.818,2.887,21.051,6.421,31.055c2.6,7.358,5.887,14.534,9.529,21.443
			c2.529,4.799,6.134,9.041,9.378,13.443c0.522,0.709,1.67,0.958,2.529,1.42c0.234-1.026,0.67-2.052,0.672-3.078
			c0.023-9.96,0.067-19.922-0.075-29.88c-0.226-15.81-0.717-31.615-0.862-47.425c-0.173-18.963-0.105-37.927-0.134-56.892
			C70.688,97.831,70.697,90.366,70.697,82.9z M282.71,242.608c0.43,0.121,0.86,0.243,1.291,0.364
			c8.553-10.808,14.95-22.777,19.632-35.874c4.701-13.152,6.209-26.804,7.394-40.512c2.233-25.816-15.659-77.13-30.012-86.225
			c-0.108,0.831-0.276,1.525-0.275,2.22c0.014,10.484,0.546,21.001-0.127,31.44c-0.34,5.279,3.96,10.388,0.297,15.635
			c-0.172,0.246,0.261,0.9,0.386,1.372c0.522,1.98,1.457,3.958,1.478,5.945c0.101,9.811-0.085,19.624-0.091,29.436
			c-0.014,23.213,0.017,46.426,0.029,69.64C282.711,238.236,282.71,240.423,282.71,242.608z M122.852,131.822
			c0.706-1.631,1.223-2.826,1.786-4.128c-1.889-0.51-3.214-0.867-4.919-1.327C120.752,128.167,121.554,129.564,122.852,131.822z"/>
		<path fill-rule="evenodd" clip-rule="evenodd" d="M483.843,143.472c-1.435-4.12,2.773-4.588,4.755-5.088
			c1.46-0.368,3.891,1.873,5.421,3.415c1.272,1.281,1.863,3.238,3.688,4.801c1.398-6.028,2.824-12.051,4.187-18.087
			c1.439-6.373,2.662-12.801,4.374-19.098c0.284-1.041,2.59-2.156,3.975-2.175c13.737-0.179,27.478-0.132,41.217-0.153
			c2.871-0.004,5.757-0.185,8.608,0.047c1.053,0.086,2.027,1.126,3.038,1.73c-1.02,0.66-2.027,1.866-3.064,1.893
			c-6.987,0.183-13.982,0.113-20.975,0.13c-8.116,0.019-16.231,0.047-24.348,0.063c-3.763,0.007-5.438,1.441-6.054,5.229
			c-1.089,6.701-2.034,13.429-3.304,20.096c-1.148,6.037-2.466,12.058-4.127,17.969c-0.425,1.509-2.238,3.229-3.761,3.679
			c-1.959,0.579-2.987-1.142-3.78-3.141c-1.334-3.358-3.064-6.619-5.09-9.608C487.926,144.174,485.835,144.132,483.843,143.472z"/>
		<path fill-rule="evenodd" clip-rule="evenodd" d="M566.908,100.69c0.685,3.103-0.745,4.251-3.529,4.255
			c-21.546,0.03-43.091,0.065-64.637,0.094c-6.105,0.008-12.216,0.14-18.312-0.099c-1.361-0.053-2.672-1.427-4.006-2.193
			c1.228-0.769,2.451-2.201,3.683-2.208c28.082-0.16,56.165-0.167,84.247-0.182C565.207,100.356,566.06,100.575,566.908,100.69z"/>
		<path fill-rule="evenodd" clip-rule="evenodd" d="M407.157,105.209c1.878-6.099,3.738-12.197,5.637-18.283
			c1.179-3.777,3.079-4.826,7.611-3.72c-1.148,2.869-2.338,5.657-3.373,8.501c-0.584,1.603-0.795,3.341-1.384,4.942
			c-1.99,5.413-3.927,10.859-6.256,16.127c-0.439,0.993-2.658,1.798-3.935,1.649c-1.194-0.14-2.788-1.444-3.237-2.609
			c-2.082-5.403-3.649-11.004-5.754-16.396c-1.406-3.604-3.471-6.947-5.062-10.487c-0.226-0.503,0.702-2.14,0.858-2.107
			c1.647,0.341,4.249,0.479,4.694,1.498c2.492,5.709,4.73,11.569,6.467,17.549C404.046,104.011,404.486,105.188,407.157,105.209z"/>
		<path fill-rule="evenodd" clip-rule="evenodd" d="M521.92,153.253c-1.998,0-4.014,0.161-5.988-0.052
			c-1.501-0.162-4.08-0.605-4.194-1.265c-0.259-1.503,0.24-3.633,1.258-4.765c2.894-3.222,6.258-6.017,9.323-9.094
			c1.693-1.701,3.569-3.429,4.604-5.52c0.954-1.929,0.568-4.168-2.077-5.161c-2.997-1.124-5.788-0.203-6.86,1.917
			c-0.635,1.253-1.959,2.311-3.221,3.015c-0.473,0.264-2.284-0.617-2.375-1.161c-0.255-1.529-0.571-3.751,0.266-4.648
			c5.939-6.377,14.804-5.758,19.47,1.462c1,1.547,0.889,4.919-0.163,6.463c-2.454,3.606-5.834,6.575-8.743,9.887
			c-0.805,0.916-1.271,2.13-1.893,3.208c1.076,0.386,2.131,1,3.233,1.107c1.977,0.191,4.01-0.107,5.963,0.182
			c0.798,0.118,2.138,1.415,2.021,1.855c-0.242,0.918-1.232,2.23-2.02,2.308c-2.845,0.277-5.731,0.109-8.603,0.109
			C521.92,153.152,521.92,153.203,521.92,153.253z"/>
		<path fill-rule="evenodd" clip-rule="evenodd" d="M511.214,78.855c-0.544-3.613-0.114-5.713,2.368-8.126
			c3.977-3.866,6.883-8.817,10.41-13.173c0.906-1.12,2.443-1.729,3.691-2.572c0.762,1.605,1.949,3.153,2.172,4.83
			c0.256,1.916-0.369,3.943-0.573,5.926c-0.334,3.243-0.66,6.338,2.931,8.405c1.981,1.139,2.059,3.533-0.156,4.342
			c-2.25,0.823-1.573,2.284-2.054,3.688c-0.455,1.331-1.622,2.941-2.848,3.373c-2.233,0.788-2.757-1.337-2.715-2.913
			c0.086-3.239-1.432-4.045-4.37-3.827C517.132,79.026,514.165,78.855,511.214,78.855z M520.417,74.049
			c3.143,0.271,4.065-1.838,4.109-4.313c0.014-0.745-1.425-2.132-2.22-2.148C520.588,67.554,519.533,71.388,520.417,74.049z"/>
		<path fill-rule="evenodd" clip-rule="evenodd" d="M593.952,108.519c1.557,0.388,2.694,0.672,3.871,0.966
			c-1.956,4.76-4.182,6.224-6.511,4.124c-1.224-1.103-1.925-3.112-2.228-4.824c-0.386-2.179-0.083-4.472-0.169-6.712
			c-0.049-1.254-0.286-2.501-0.438-3.751c-0.495-0.086-0.99-0.173-1.484-0.259c-0.595,1.779-1.374,3.521-1.739,5.345
			c-0.602,3-0.744,6.103-1.503,9.054c-0.214,0.833-1.899,1.289-2.911,1.917c-0.437-1.045-1.436-2.233-1.211-3.11
			c0.933-3.641,2.241-7.185,3.391-10.771c0.146-0.457,0.159-0.957,0.359-2.24c-2.553,0.725-4.67,1.326-6.979,1.982
			c0.133-5.142,1.656-7.215,5.534-7.365c5.1-0.196,10.214-0.048,15.494-0.048c0.734,2.324,1.432,4.366-1.88,5.272
			c-0.666,0.183-1.476,1.29-1.523,2.018C593.844,102.833,593.952,105.571,593.952,108.519z"/>
		<path fill-rule="evenodd" clip-rule="evenodd" d="M558.403,123.505c-3.164,5.593-5.971,9.839-8.03,14.421
			c-1.678,3.73-2.447,7.865-3.651,11.811c-0.289,0.945-0.479,2.085-1.125,2.711c-0.681,0.659-1.902,1.173-2.796,1.054
			c-0.599-0.08-1.57-1.464-1.46-2.106c0.669-3.862,1.201-7.829,2.567-11.465c1.217-3.237,3.491-6.07,5.231-9.121
			c1.204-2.112,0.306-3.468-2.243-3.473c-2.367-0.004-4.735,0.083-7.101,0.028c-1.528-0.035-3.849,0.368-3.355-2.083
			c0.219-1.087,2.247-2.435,3.557-2.556c3.58-0.331,7.218-0.158,10.827-0.019C553.137,122.797,555.437,123.181,558.403,123.505z"/>
		<path fill-rule="evenodd" clip-rule="evenodd" d="M624.617,74.427c-2.164,1.136-4.327,2.272-7.333,3.851
			c-0.202-1.409-0.979-3.138-0.526-4.436c0.924-2.642,5.952-4.625,8.489-3.803c3.991,1.292,5.278,3.205,4.88,7.485
			c-0.229,2.444-0.855,4.627,1.666,6.723c1.939,1.611,0.156,6.334-2.353,8.294c-4.387,3.428-12.742,1.303-12.954-3.066
			c-0.058-1.197,0.673-2.433,1.041-3.65c0.806,0.312,1.881,0.394,2.376,0.972c4.184,4.886,4.151,4.913,8.7-0.76
			c-1.636-0.774-3.185-1.398-4.617-2.224c-0.988-0.57-2.412-1.327-2.544-2.171c-0.13-0.823,1.062-1.93,1.811-2.793
			c0.821-0.947,1.801-1.758,2.712-2.627C625.516,75.624,625.066,75.025,624.617,74.427z"/>
		<path fill-rule="evenodd" clip-rule="evenodd" d="M437.368,113.895c-1.392-1.115-2.196-1.993-3.189-2.499
			c-1.334-0.678-3.013-1.736-4.173-1.39c-1.066,0.319-2.256,2.26-2.298,3.522c-0.07,2.113,0.366,4.423,1.255,6.342
			c1.099,2.37,3.386,2.294,4.918,0.248c0.975-1.301,2.036-2.537,3.66-4.547c0.6,2.078,1.601,3.645,1.171,4.43
			c-1.096,2.005-2.475,4.436-4.377,5.312c-5.307,2.441-10.263-0.786-10.808-6.619c-0.195-2.099-0.353-4.303,0.065-6.337
			c1.16-5.644,6.189-8.264,11.608-6.145C438.234,107.398,438.542,109.848,437.368,113.895z"/>
		<path fill-rule="evenodd" clip-rule="evenodd" d="M601.407,91.82c2.963-0.838,5.396-1.967,7.873-2.071
			c1.627-0.068,3.316,1.344,4.978,2.094c-0.096,0.56-0.191,1.121-0.288,1.681c-2.178,0.408-4.355,0.815-7.354,1.376
			c0,4.549,0.015,9.25-0.01,13.95c-0.006,1.121,0.208,2.456-0.313,3.302c-0.545,0.884-1.827,1.702-2.839,1.771
			c-0.632,0.042-1.938-1.343-1.956-2.111C601.342,105.095,601.407,98.373,601.407,91.82z"/>
		<path fill-rule="evenodd" clip-rule="evenodd" d="M465.499,99.688c-1.049,0.28-2.094,0.785-3.146,0.801
			c-5.733,0.082-11.472,0.142-17.199-0.043c-1.061-0.034-2.083-1.228-3.124-1.886c1.049-0.668,2.079-1.876,3.149-1.913
			c5.476-0.188,10.968-0.205,16.44,0.026c1.39,0.059,2.73,1.247,4.095,1.917C465.643,98.956,465.571,99.322,465.499,99.688z"/>
		<path fill-rule="evenodd" clip-rule="evenodd" d="M442.218,106.271c7.556-1.664,15.133-3.185,22.727-0.075
			C457.408,108.603,449.813,107.177,442.218,106.271z"/>
		<path fill-rule="evenodd" clip-rule="evenodd" fill="#FFFFFF" d="M130.881,229.59c-2.298-3.208-4.597-6.417-7.288-10.174
			c2.278-0.705,4.399-1.359,6.519-2.016c0.021-0.25,0.042-0.5,0.062-0.75c-0.963-0.312-1.906-0.742-2.894-0.912
			c-3.373-0.582-2.739-3.705-3.685-5.801c-0.082-0.183,0.753-1.107,1.168-1.111c0.638-0.008,1.607,0.31,1.868,0.794
			c1.239,2.306,3.21,2.385,4.479,0.766c0.574-0.731-0.386-3.239-1.308-4.432c-1.35-1.745-3.292-3.033-4.982-4.517
			c0.456-0.06,0.912-0.12,1.368-0.18c0.629-4.336,1.259-8.671,1.968-13.542c-1.728,0.468-3.085,0.834-5.292,1.431
			c0.474-2.124,0.315-4.396,1.374-5.519c1.997-2.117,4.188-3.782,1.622-7.958c2.066,0.854,2.855,1.18,4.136,1.709
			c0-2.088,0-3.977,0-5.865c-0.249-0.064-0.496-0.13-0.745-0.196c-0.523,0.859-1.046,1.719-1.836,3.016
			c-0.406-1.902-0.741-3.469-1.164-5.448c-1.043,0.773-1.75,1.298-2.012,1.492c-1.669-1.584-3.127-2.968-5.312-5.041
			c1.494-0.648,3.051-1.408,4.669-2.002c1.494-0.548,3.052-0.918,4.583-1.366c-1.025-0.969-2.047-1.941-3.08-2.902
			c-0.539-0.502-1.097-0.985-1.632-1.465c0.718-1.133,1.339-2.112,1.939-3.059c1.58,0.667,3.047,1.286,4.514,1.904
			c0.203-0.365,0.405-0.729,0.608-1.094c-1.686-1.566-3.374-3.128-5.055-4.699c-0.798-0.747-1.699-1.424-2.346-2.288
			c-1.534-2.048-2.813-4.161,1.163-4.923c-2.443-5.466-1.778-6.792,6.062-12.032c-1.176-0.215-2.072-0.379-3.34-0.61
			c0-1.286-0.314-2.73,0.125-3.888c0.239-0.628,1.76-0.77,3.105-1.284c0-0.856,0-2.089,0-2.57c-2.491-0.293-4.607-0.543-6.722-0.792
			c0.002-0.402,0.003-0.803,0.005-1.206c1.518-1.063,3.035-2.128,4.702-3.296c-1.958-2.279-3.638-4.172-5.222-6.142
			c-0.239-0.297-0.034-0.954-0.034-1.487c2.75-0.548,5.431-1.083,7.703-1.536c-1.165-1.811-2.195-3.414-3.125-4.86
			c-0.911,0.316-3.096,1.434-3.344,1.102c-1.263-1.693-2.027-3.758-2.966-5.694c0.429-0.281,0.858-0.562,1.288-0.843
			c1.125,0.758,2.251,1.517,4.398,2.964c-0.954-2.557-1.537-4.119-2.575-6.901c3.528,0.589,6.466,1.218,9.438,1.541
			c3.785,0.412,7.595,0.79,11.397,0.808c16.314,0.076,32.628,0.072,48.942-0.046c3.222-0.023,6.432-0.813,9.661-1.019
			c7.492-0.476,14.992-0.812,21.823-1.17c0.675,2.971,1.322,5.386,1.73,7.841c0.14,0.843-0.123,1.905-0.575,2.637
			c-0.264,0.425-1.292,0.603-1.933,0.528c-1.713-0.199-3.403-0.595-5.103-0.913c-0.252,0.283-0.505,0.566-0.757,0.85
			c0.775,1.212,1.368,3.207,2.371,3.44c1.292,0.301,2.911-0.81,4.452-1.334c2.579,4.328,2.508,5.017,0.079,6.928
			c0.219,2.944,1.362,6.167,0.354,7.125c-2.646,2.515-1.978,3.852,0.4,5.571c0.253,0.183,0.312,0.636,0.505,1.06
			c1.266-0.573,2.479-1.122,4.2-1.901c0.149,1.535,0.272,2.797,0.338,3.481c-3.312,1.964-6.219,3.689-9.127,5.414
			c0.22,0.475,0.439,0.95,0.659,1.425c1.27-0.41,2.54-0.819,4.195-1.353c-1.489,3.212,1.568,2.111,3.294,2.837
			c-1.925,1.736-3.39,3.057-5.015,4.523c1.63,1.422,3.358,2.722,0.977,4.797c-0.251,0.218,0.659,1.77,1.111,2.908
			c-2.211,0.191-4.361,0.378-7.545,0.654c3.251,2.162,7.861,0.807,7.654,5.283c-0.073,1.595-1.604,3.123-2.64,4.991
			c0.841,1.494,2.115,3.757,3.391,6.022c-4.095,1.372-7.216,2.419-10.338,3.466c0.05,0.32,0.101,0.641,0.151,0.961
			c0.518,0.059,1.048,0.223,1.549,0.159c7.051-0.887,7.783-0.09,6.68,7.245c-0.068,0.452,0.191,0.96,0.321,1.435
			c0.916,3.335-0.81,4.773-4.546,5.185c1.208,1.521,1.866,2.978,2.992,3.652c3.699,2.216,3.742,5.295-0.633,8.111
			c2.452,0.296,4.437,0.536,7.086,0.855c-2.787,5.065-7.28,2.755-10.751,3.616c2.621,2.881,5.306,5.683,7.783,8.658
			c0.639,0.767,0.624,2.078,0.91,3.14c-4.354,0.771-2.769,4.489-3.25,6.984c-0.674,3.5-0.23,6.921,4.746,9.352
			c-3.441,1.346-5.797,2.268-8.251,3.227c1.226,0.914,2.749,2.052,4.541,3.389c-3.124,2.257,0.099,4.961,0.431,7.755
			c0.591,4.978,5.021,0.928,7.155,3.121c-1.96,1.133-3.229,4.235-5.84,1.22c-5.712,2.398-0.255,5.652-1.275,8.5
			c1.572,0.364,2.877,0.667,4.527,1.05c-3.248,0.176-6.17,0.144-9.036,0.535c-4.198,0.572-8.328,1.771-12.536,2.123
			c-6.616,0.554-13.271,0.666-19.911,0.885c-6.443,0.213-12.892,0.495-19.335,0.437c-8.342-0.076-16.704-0.178-25.015-0.814
			c-5.361-0.412-10.671-1.693-15.95-2.834c-1.373-0.297-2.544-1.527-4.231-2.598c-0.652,0.49-1.671,1.258-2.942,2.214
			c-0.614-1.391-1.127-2.554-1.776-4.025c1.472,0,2.727,0.198,3.878-0.062c0.917-0.208,1.706-0.974,2.552-1.492
			c-0.63-0.88-1.133-1.902-1.922-2.602c-1.044-0.926-2.313-1.599-3.155-2.792c3.569,1.818,5.327,1.729,6.899-1.739
			c1.803-3.979-2.916-3.279-3.936-4.672c1.731-2.389,3.423-4.723,5.118-7.032C131.174,232.481,131.027,231.035,130.881,229.59z
			 M136.833,253.839c-5.496-4.35-5.67-4.354-5.92-0.643C132.898,253.411,134.866,253.625,136.833,253.839z"/>
		<path fill-rule="evenodd" clip-rule="evenodd" fill="#FFFFFF" d="M276.036,78.23c-4.227,1.776-7.791,3.466-11.493,4.762
			c-2.555,0.894-5.272,1.521-7.964,1.785c-10.604,1.038-21.011,3.413-31.562,4.848c-21.655,2.945-43.254,1.228-64.854,1.955
			c-7.483,0.252-15.023,0.262-22.475-0.354c-10.504-0.867-20.996-2.136-31.408-3.774c-7.757-1.22-15.425-3.118-23.034-5.095
			c-2.481-0.645-4.74-2.365-6.89-3.889c-0.434-0.308-0.317-2.354,0.236-2.896c1.163-1.14,2.682-2.185,4.234-2.609
			c4.757-1.303,9.562-2.502,14.416-3.365c11.077-1.968,22.141-4.195,33.31-5.41c11.128-1.211,22.372-1.642,33.574-1.825
			c15.604-0.253,31.226-0.267,46.821,0.24c7.348,0.239,14.637,2.022,21.975,2.935c6.432,0.799,12.97,0.953,19.325,2.125
			c8.245,1.521,16.75,2.551,23.961,7.448C274.985,75.641,275.276,76.886,276.036,78.23z"/>
		<path fill-rule="evenodd" clip-rule="evenodd" fill="#FFFFFF" d="M82.827,65.86c1.201-1.259,2.276-2.678,3.629-3.743
			c2.562-2.017,5.24-3.896,7.949-5.714c4.418-2.964,9.316-5.366,13.24-8.871c4.183-3.734,9.655-4.437,14.011-7.31
			c10.702-7.06,23.184-7.376,35.037-10.21c8.687-2.077,17.399-2.629,26.19-2.069c4.495,0.286,8.932,1.509,13.392,2.326
			c4.75,0.87,9.629,1.326,14.208,2.75c5.911,1.839,12.172,2.568,17.654,5.953c3.517,2.172,7.854,3.019,11.362,5.2
			c6.222,3.867,12.093,8.297,18.112,12.491c2.573,1.794,5.2,3.519,7.697,5.414c1.053,0.8,1.833,1.961,2.737,2.958
			c-0.209,0.391-0.419,0.783-0.628,1.174c-2.235-0.564-4.472-1.122-6.705-1.696c-2.972-0.763-5.899-1.891-8.919-2.242
			c-7.795-0.908-15.691-1.073-23.437-2.254c-23.788-3.63-47.734-1.471-71.594-2.287c-9.195-0.314-18.459,0.255-27.641,1.031
			c-9.393,0.794-18.772,2.048-28.062,3.655c-5.802,1.003-11.427,3.03-17.131,4.597C83.56,66.627,83.193,66.244,82.827,65.86z"/>
		<path fill-rule="evenodd" clip-rule="evenodd" fill="#FFFFFF" d="M268.431,257.95c-0.586,2.081-0.528,3.941-1.374,4.552
			c-6.517,4.71-12.152,10.555-19.764,13.889c-7.12,3.118-13.724,7.401-20.663,10.962c-1.929,0.989-4.261,1.166-6.372,1.831
			c-10.911,3.438-21.888,6.435-33.471,6.519c-3.333,0.023-6.73,1.321-9.977,0.956c-11.973-1.347-24.132-2.193-35.757-5.093
			c-8.525-2.127-17.245-4.72-24.887-9.941c-6.504-4.444-13.972-7.462-20.594-11.757c-3.997-2.593-7.194-6.419-10.751-9.69
			c0.119-0.433,0.237-0.865,0.355-1.298c3.499,0.616,7.024,1.113,10.485,1.896c2.144,0.484,4.144,1.827,6.285,2.053
			c8.285,0.872,16.597,1.501,24.906,2.123c9.764,0.731,19.527,1.685,29.306,1.953c12.451,0.344,24.918,0.198,37.377,0.07
			c8.718-0.09,17.47-0.093,26.141-0.871c11.895-1.065,23.751-2.657,35.571-4.385C259.379,261.114,263.354,259.438,268.431,257.95z"
			/>
		<path fill-rule="evenodd" clip-rule="evenodd" fill="#FFFFFF" d="M70.697,82.9c0,7.466-0.009,14.931,0.002,22.396
			c0.028,18.964-0.04,37.929,0.134,56.892c0.145,15.81,0.636,31.615,0.862,47.425c0.142,9.958,0.099,19.92,0.075,29.88
			c-0.002,1.026-0.438,2.052-0.672,3.078c-0.859-0.462-2.007-0.711-2.529-1.42c-3.244-4.402-6.849-8.645-9.378-13.443
			c-3.642-6.909-6.929-14.085-9.529-21.443c-3.534-10.004-6.318-20.236-6.421-31.055c-0.056-5.885-1.75-11.806-1.39-17.629
			c0.534-8.632,1.65-17.329,3.609-25.745c1.889-8.122,5.017-15.974,7.88-23.842c1.619-4.449,3.34-8.981,5.844-12.954
			c2.884-4.574,6.682-8.571,10.083-12.818C69.744,82.447,70.221,82.673,70.697,82.9z"/>
		<path fill-rule="evenodd" clip-rule="evenodd" fill="#FFFFFF" d="M282.71,242.608c0-2.186,0-4.372,0-6.559
			c-0.013-23.214-0.043-46.427-0.029-69.64c0.006-9.813,0.192-19.625,0.091-29.436c-0.021-1.987-0.956-3.964-1.478-5.945
			c-0.125-0.472-0.558-1.125-0.386-1.372c3.663-5.247-0.637-10.356-0.297-15.635c0.674-10.439,0.142-20.956,0.127-31.44
			c-0.001-0.695,0.167-1.389,0.275-2.22c14.353,9.094,32.245,60.408,30.012,86.225c-1.185,13.708-2.693,27.359-7.394,40.512
			c-4.682,13.097-11.079,25.066-19.632,35.874C283.57,242.852,283.14,242.729,282.71,242.608z"/>
		<path fill-rule="evenodd" clip-rule="evenodd" fill="#FFFFFF" d="M130.881,229.59c0.146,1.445,0.293,2.892,0.436,4.313
			c-0.388,0.411-1.048,1.265-1.115,1.22c-2.51-1.653-4.965-3.392-7.428-5.117c0.209-0.522,0.419-1.045,0.628-1.566
			C125.895,228.823,128.388,229.206,130.881,229.59z"/>
		<path fill-rule="evenodd" clip-rule="evenodd" fill="#FFFFFF" d="M122.852,131.822c-1.297-2.258-2.1-3.655-3.133-5.455
			c1.705,0.46,3.03,0.817,4.919,1.327C124.074,128.996,123.558,130.191,122.852,131.822z"/>
		<path fill-rule="evenodd" clip-rule="evenodd" fill="#FFFFFF" d="M520.417,74.049c-0.884-2.661,0.171-6.495,1.89-6.46
			c0.795,0.016,2.233,1.403,2.22,2.148C524.482,72.211,523.56,74.32,520.417,74.049z"/>
		<path fill-rule="evenodd" clip-rule="evenodd" d="M136.833,253.839c-1.968-0.214-3.936-0.428-5.92-0.643
			C131.164,249.484,131.338,249.489,136.833,253.839z"/>
	</g>
</g>
</svg>
