<?xml version="1.0" encoding="utf-8"?>
<!-- Generator: Adobe Illustrator 16.0.0, SVG Export Plug-In . SVG Version: 6.00 Build 0)  -->
<!DOCTYPE svg PUBLIC "-//W3C//DTD SVG 1.1//EN" "http://www.w3.org/Graphics/SVG/1.1/DTD/svg11.dtd">
<svg version="1.1" id="Layer_1" xmlns="http://www.w3.org/2000/svg" xmlns:xlink="http://www.w3.org/1999/xlink" x="0px" y="0px"
	 width="732.853px" height="339.798px" viewBox="0 0 732.853 339.798" enable-background="new 0 0 732.853 339.798"
	 xml:space="preserve">
<g>
	<g>
		<path fill-rule="evenodd" clip-rule="evenodd" fill="#FFFFFF" d="M733.603,340.548c-244.284,0-488.568,0-732.853,0
			c0-113.267,0-226.532,0-339.798c244.285,0,488.568,0,732.853,0C733.603,114.016,733.603,227.281,733.603,340.548z
			 M163.399,260.788c1.349-1.08,2.513-1.539,2.611-2.166c0.7-4.467,4.138-3.412,6.9-3.521c20.629-0.816,41.257-1.674,61.892-2.317
			c10.103-0.315,20.003-1.471,29.972-3.396c9.384-1.813,19.218-1.11,28.528-4.078c3.858-1.23,7.934-1.86,11.671-3.36
			c2.282-0.916,4.265-2.805,6.101-4.551c2.062-1.96,1.722-4.411-0.158-6.21c-3.074-2.941-6.758-5.31-7.758-9.878
			c-0.152-0.695-0.496-1.623-1.036-1.916c-4.451-2.417-5.061-7.555-7.939-11.118c-3.488-4.317-6-9.409-9.133-14.03
			c-4.101-6.049-8.48-11.907-12.584-17.953c-4.087-6.021-7.899-12.227-11.991-18.244c-2.662-3.916-5.735-7.552-8.394-11.471
			c-3.589-5.289-6.876-10.782-10.445-16.085c-2.787-4.139-5.92-8.045-8.695-12.192c-4.54-6.784-8.854-13.718-13.376-20.515
			c-3.526-5.298-7.276-10.446-10.826-15.729c-3.912-5.823-7.697-11.732-11.561-17.588c-3.404-5.157-6.803-10.317-10.276-15.428
			c-2.366-3.482-4.846-6.887-7.294-10.313c-3.392-4.748-6.777-9.5-10.215-14.213c-1.564-2.144-3.092-4.358-4.969-6.202
			c-0.588-0.577-2.768-0.529-3.339,0.07c-1.458,1.532-2.376,3.566-3.598,5.339c-0.792,1.148-1.723,2.203-2.621,3.275
			c-0.704,0.841-1.623,1.547-2.155,2.479c-2.761,4.833-5.232,9.844-8.188,14.551c-2.646,4.212-5.845,8.073-8.708,12.154
			c-4.977,7.094-9.983,14.172-14.776,21.39c-2.464,3.71-3.852,8.328-6.856,11.446c-6.517,6.761-10.098,15.311-15.308,22.839
			c-2.008,2.901-3.963,5.84-6.022,8.705c-2.618,3.642-5.56,7.072-7.929,10.864c-4.67,7.477-9.036,15.143-13.554,22.715
			c-0.236,0.396-0.789,0.593-1.072,0.973c-3.207,4.306-6.554,8.52-9.537,12.978c-3.424,5.116-6.497,10.466-9.779,15.68
			c-0.693,1.101-1.732,1.981-2.438,3.077c-2.561,3.973-4.906,8.091-7.598,11.97c-3.195,4.607-7.163,8.743-9.895,13.59
			c-3.902,6.923-7.824,13.682-13.835,19.044c-0.92,0.82-1.577,2.334-1.663,3.576c-0.08,1.166,0.398,2.829,1.247,3.528
			c6.27,5.169,14.149,6.858,21.707,8.291c11.173,2.116,22.63,2.455,33.905,4.479c10.246,1.839,20.79,2.204,31.227,2.747
			c11.717,0.61,23.459,0.767,35.193,0.974c7.929,0.14,15.862,0.026,23.577,0.026C162.777,257.19,163.04,258.706,163.399,260.788z
			 M349.647,205.308c-0.407-0.232-0.814-0.465-1.222-0.696c0-51.443,0-102.885,0-154.328c0.532-0.395,1.065-0.79,1.597-1.185
			c1.398,1.921,2.665,3.964,4.253,5.714c0.772,0.851,2.147,1.157,3.249,1.709c0.221-1.1,0.864-2.32,0.59-3.279
			c-1.319-4.613-2.913-9.147-4.355-13.727c-1.947-6.184-3.801-12.398-5.794-18.567c-0.495-1.534-1.373-2.944-2.434-5.163
			c-2.197,7.66-3.944,13.999-5.851,20.29c-0.94,3.099-2.255,6.083-3.256,9.166c-1.012,3.115-1.935,6.27-2.642,9.463
			c-0.086,0.388,1.917,1.745,2.085,1.606c1.401-1.161,2.556-2.611,3.872-3.886c1.102-1.066,2.319-2.014,3.485-3.013
			c0.314,0.289,0.628,0.578,0.942,0.866c0.022,51.86,0.824,103.722-0.227,155.604c-2.253-1.753-3.723-3.73-5.57-5.251
			c-1.105-0.909-2.798-1.104-4.226-1.619c0.07,1.802,0.127,3.604,0.229,5.404c0.012,0.214,0.297,0.397,0.398,0.621
			c1.267,2.831,3.302,5.579,3.633,8.52c0.893,7.92,6.754,14.393,6.269,22.664c-0.04,0.669,1.406,1.426,2.162,2.143
			c0.451-0.656,1.113-1.251,1.322-1.976c2.396-8.328,4.685-16.688,7.085-25.014c0.949-3.295,2.214-6.501,3.121-9.807
			c0.48-1.749-0.242-3.358-2.3-2.345c-1.646,0.811-2.881,2.474-4.263,3.796C351.044,203.743,350.362,204.542,349.647,205.308z
			 M309.409,284.072c0.457-0.25,0.914-0.499,1.371-0.749c0.376-1.767,0.831-3.524,1.045-5.311c0.031-0.257-1.089-0.653-1.677-0.984
			c-0.796,1.735-1.593,3.472-2.728,5.948c-4.553-0.915-10.565-0.664-14.729-3.314c-5.667-3.606-12.248-3.735-17.851-6.831
			c-0.502-0.278-1.724,0.161-2.214,0.659c-0.312,0.314-0.144,1.569,0.248,2.034c1.835,2.181,3.822,4.233,6.083,6.689
			c-28.105,0-55.71,0-83.339,0c2.58-3.06,4.879-5.784,7.177-8.509c-0.094-0.374-0.189-0.748-0.283-1.122
			c-1.92,0.251-3.894,0.303-5.747,0.804c-2.343,0.633-4.566,1.697-6.881,2.45c-1.65,0.537-3.833,0.348-4.975,1.376
			c-5.369,4.835-12.714,4.144-18.76,7.081c-3.064,1.489-3.889,2.312-2.771,4.722c3.392,0,6.403-0.48,9.182,0.119
			c3.663,0.789,7.078,2.667,10.716,3.642c5.469,1.465,11.318,1.641,16.083,5.349c0.516,0.401,1.921-0.338,2.913-0.549
			c-0.304-1.042-0.314-2.355-0.974-3.07c-1.416-1.532-3.208-2.71-4.758-4.13c-0.559-0.512-0.865-1.299-1.287-1.961
			c0.727-0.305,1.454-0.874,2.181-0.874c9.09-0.003,18.179,0.149,27.268,0.12c15.483-0.05,30.967-0.206,46.45-0.303
			c1.87-0.011,3.804-0.191,5.578,0.24c0.668,0.162,1.621,2.222,1.31,2.755c-0.838,1.438-2.077,3.038-3.54,3.632
			c-2.688,1.092-2.352,2.683-1.544,5.375c1.604-0.658,3.016-1.211,4.407-1.814c2.433-1.057,4.8-2.287,7.287-3.192
			c5.152-1.873,10.29-3.875,15.585-5.231c2.681-0.688,5.693-0.117,8.555-0.046c0.94,0.022,1.876,0.264,2.815,0.405
			c0.142-1.152,0.673-2.45,0.312-3.413C311.592,285.211,310.283,284.724,309.409,284.072z M608.892,109.03
			c6.723,0,12.805,0.037,18.886-0.016c2.983-0.025,5.974-0.114,8.939-0.397c0.819-0.079,1.562-0.961,2.34-1.475
			c-0.558-0.842-0.943-1.942-1.718-2.458c-0.936-0.623-2.197-1.03-3.326-1.049c-7.354-0.125-14.713-0.046-22.066-0.19
			c-3.161-0.063-5.339,1.085-6.318,4.117c-1.537,4.753-3.321,9.46-4.406,14.319c-1.681,7.527-2.782,15.182-4.334,22.74
			c-0.254,1.24-1.561,2.263-2.38,3.386c-1.042-0.939-2.388-1.702-3.057-2.857c-1.084-1.874-1.504-4.143-2.651-5.965
			c-0.509-0.808-2.099-1.243-3.213-1.273c-1.019-0.026-2.203,0.531-3.053,1.176c-1.098,0.832-1.934,2.009-2.882,3.037
			c1.043,0.957,2.017,2.619,3.143,2.73c2.771,0.272,3.791,1.938,4.71,4.096c1.191,2.798,2.308,5.663,3.866,8.252
			c0.626,1.041,2.297,1.816,3.574,1.957c0.711,0.078,1.973-1.258,2.324-2.203c0.963-2.587,1.648-5.288,2.31-7.977
			c0.768-3.125,1.239-6.328,2.12-9.417c1.088-3.818,2.775-7.483,3.645-11.342C606.74,122.03,607.678,115.735,608.892,109.03z
			 M663.905,236.051c-1.13-1.133-2.18-1.834-2.735-2.814c-1.159-2.047-1.751-4.486-3.18-6.283c-0.834-1.049-3.47-2.046-4.184-1.529
			c-1.656,1.197-5.229,1.115-4.472,4.933c1.835,0.195,3.532,0.376,4.667,0.497c2.504,5.163,4.729,10,7.269,14.666
			c0.315,0.578,3.153,0.697,3.385,0.263c1.669-3.132,3.32-6.357,4.301-9.749c1.556-5.384,2.67-10.902,3.816-16.396
			c1.372-6.582,2.614-13.193,3.846-19.804c0.577-3.097,2.11-4.749,5.477-4.7c7.115,0.104,14.233,0.048,21.35-0.022
			c1.394-0.015,2.782-0.395,5.009-0.732c-1.285-0.765-1.705-1.231-2.126-1.232c-10.342-0.016-20.686-0.041-31.024,0.166
			c-0.785,0.016-1.991,1.65-2.226,2.705c-1.093,4.922-1.732,9.947-2.873,14.855C668.312,219.018,666.159,227.102,663.905,236.051z
			 M552.636,222.626c0.269,0.707,0.536,1.413,0.806,2.119c1.734-0.206,4.77,0.005,4.991-0.687c1.401-4.366,4.795-2.894,7.44-2.713
			c1.146,0.079,2.173,1.906,3.254,2.939c-1.093,0.757-2.087,1.825-3.298,2.211c-2.87,0.912-5.837,1.527-8.776,2.215
			c-3.855,0.901-4.573,3.689-4.177,7.04c0.354,2.998,1.778,5.763,4.71,6.441c2.68,0.62,5.775,0.476,8.444-0.239
			c2.021-0.541,3.416-1.05,5.442,0.165c2.384,1.429,3.99,0.154,3.922-2.674c-0.095-3.932,0.07-7.908-0.487-11.777
			c-0.442-3.073-0.991-7.731-2.928-8.643c-3.646-1.72-8.417-1.945-12.544-1.417C556.995,217.919,554.892,220.865,552.636,222.626z
			 M687.826,236.413c0.986-1.499,1.458-2.484,2.168-3.248c3.091-3.327,6.305-6.539,9.368-9.891
			c2.274-2.488,1.988-9.091-0.355-11.467c-3.379-3.425-11.229-4.873-14.983-2.161c-1.613,1.164-2.396,3.714-3.087,5.79
			c-0.23,0.693,1,1.872,1.563,2.828c0.962-0.568,2.031-1.018,2.846-1.75c0.501-0.451,0.428-1.573,0.94-1.973
			c1.12-0.872,2.474-2.085,3.687-2.037c1.585,0.064,3.863,0.788,4.548,1.975c2.019,3.497,0.148,9.975-3.866,11.996
			c-5.027,2.532-8.322,6.253-10.831,11.074c-1.39,2.672-0.736,4.591,2.251,4.678c5.358,0.154,10.741,0.252,16.078-0.123
			c1.546-0.108,4.03-1.728,4.244-2.971c0.505-2.938-2.508-2.495-4.231-2.643C694.976,236.219,691.747,236.413,687.826,236.413z
			 M610.146,146.114c1.399,2.605,2.193,6.401,4.002,6.97c3.828,1.205,8.205,1.034,12.313,0.759c1.31-0.088,2.612-2.183,3.685-3.542
			c3.172-4.021,3.594-9.293,0.061-12.468c-2.527-2.27-1.442-3.854-0.517-5.72c1.396-2.814-0.054-10.096-2.869-10.718
			c-3.52-0.78-7.308-0.339-10.98-0.446c-3.516-0.103-2.82,3.266-3.967,5.035c-0.524,0.811,0.108,2.373,0.216,3.594
			c1.452-0.345,3.861-0.298,4.191-1.104c1.383-3.373,3.896-2.73,6.262-2.19c2.877,0.656,3.316,3.097,1.075,5.109
			c-1.722,1.545-3.498,3.031-5.959,5.156c1.579,0.891,2.853,1.734,4.229,2.345c1.089,0.481,2.959,0.336,3.335,1.063
			c0.951,1.838,1.982,4.176,1.57,5.993c-0.292,1.282-2.855,2.764-4.474,2.85c-2.083,0.11-5.126-0.438-6.165-1.862
			C614.223,144.289,612.771,144.101,610.146,146.114z M485.601,226.484c0.313-0.071,0.626-0.144,0.939-0.215
			c-1.1-3.925-2.442-7.803-3.229-11.789c-0.729-3.7-3.472-5.021-6.366-5.582c-5.183-1.004-8.72,1.39-10.191,8.024
			c-1.741,7.849-3.366,16.022,3.033,23.08c2.612,2.882,6.512,3.966,9.794,1.713C484.937,238.041,485.971,232.516,485.601,226.484z
			 M507.212,88.232c-0.166-2.951,0.024-5.28-0.544-7.407c-0.318-1.188-1.757-2.639-2.936-2.91c-2.043-0.471-2.677,1.14-2.595,3.049
			c0.092,2.114,0.056,4.233,0.073,6.351c0.052,6.603-0.123,13.221,0.32,19.797c0.104,1.549,2.154,4.027,3.55,4.207
			c2.874,0.37,1.95-2.324,1.957-4.08c0.015-3.736-0.02-7.477,0.139-11.208c0.187-4.394,0.832-4.92,5.118-4.811
			c3.559,0.092,5.235,1.699,5.275,5.25c0.041,3.739-0.078,7.479-0.048,11.218c0.014,1.718-0.121,4.016,2.391,3.648
			c0.908-0.132,2.083-2.266,2.162-3.547c0.269-4.345,0.353-8.735,0.05-13.076C521.547,86.426,515.063,83.177,507.212,88.232z
			 M373.941,138.373c-0.386-0.159-0.771-0.317-1.158-0.476c1.447-4.19,3.002-8.347,4.28-12.587c0.403-1.341,0.612-3.323-0.094-4.237
			c-0.604-0.782-2.835-0.919-3.976-0.446c-0.693,0.287-0.769,2.259-0.967,3.499c-0.271,1.686-0.162,3.462-0.624,5.082
			c-1.18,4.132-2.658,8.177-3.877,12.298c-0.841,2.84-1.395,5.764-2.185,8.62c-0.354,1.278-1.242,2.457-1.369,3.732
			c-0.074,0.753,0.76,1.713,1.405,2.362c0.242,0.243,1.327,0.078,1.643-0.261c0.994-1.066,2.422-2.225,2.586-3.489
			c0.838-6.48,6.187-9.859,9.612-14.537c0.385-0.525,1.47-0.538,3.412-1.177c-0.862,3.311-1.471,5.716-2.12,8.109
			c-0.736,2.721-1.727,5.396-2.162,8.162c-0.172,1.092,0.691,2.501,1.453,3.479c0.196,0.252,1.855-0.469,2.729-0.949
			c1.588-0.874,3.092-1.902,4.807-2.977c-4.213-4.418-1.828-8.749-0.222-12.665c1.177-2.871,0.223-4.814-1.594-6.048
			c-1.109-0.753-3.511-0.31-4.991,0.354C378.185,135.27,376.124,136.956,373.941,138.373z M574.974,97.554
			c-0.475,3.552,0.859,4.655,3.753,4.25c1.23-0.173,2.488-0.198,3.732-0.195c18.459,0.045,36.917,0.114,55.375,0.146
			c1.24,0.001,2.576-0.009,3.682-0.464c0.66-0.272,1.256-1.398,1.321-2.187c0.048-0.575-0.711-1.595-1.3-1.768
			c-1.291-0.377-2.703-0.47-4.063-0.457c-8.343,0.079-16.686,0.287-25.028,0.324c-9.211,0.04-18.423-0.1-27.633-0.073
			C581.504,97.14,578.196,97.408,574.974,97.554z M579.171,229.56c0,3.115,0.072,6.231-0.025,9.344
			c-0.064,2.037,0.395,3.489,2.76,3.46c2.266-0.029,3.336-1.06,3.229-3.489c-0.169-3.857-0.486-7.781,0.038-11.569
			c0.296-2.13,1.713-4.638,3.418-5.914c2.521-1.885,5.857,0.902,6.018,4.926c0.168,4.229,0.08,8.472,0.046,12.707
			c-0.017,1.924,0.137,3.516,2.726,3.382c2.456-0.126,2.728-1.692,2.669-3.6c-0.161-5.22-0.431-10.44-0.436-15.662
			c-0.003-3.386-1.804-5.116-4.791-5.576c-2.045-0.314-4.193,0.042-6.295,0.097c-1.941,0.05-3.909,0.313-5.82,0.092
			c-2.324-0.27-3.616,0.228-3.555,2.83C579.222,223.576,579.168,226.568,579.171,229.56z M610.578,83.45
			c1.253-0.488,3.112-1.089,4.859-1.924c2.25-1.075,4.563-7.124,3.124-8.709c-2.686-2.958-4.929-6.72-9.962-6.37
			c-0.969,0.067-2.066-1.746-3.105-2.692c1.294-0.556,2.558-1.431,3.893-1.559c0.925-0.088,1.928,0.897,2.93,1.323
			c1.211,0.513,2.457,0.942,3.688,1.409c0.091-1.543,0.728-3.33,0.168-4.584c-1.608-3.611-12.357-4.287-14.727-1.114
			c-3.495,4.682-0.883,11.467,4.821,12.604c1.829,0.364,3.716,0.677,5.397,1.418c0.697,0.307,1.359,1.734,1.246,2.542
			c-0.106,0.771-1.201,1.939-1.931,1.993c-2.433,0.178-4.967,0.444-6.046-2.915c-0.254-0.792-2.664-0.894-4.082-1.312
			c-0.19,1.094-0.738,2.271-0.507,3.267C601.201,80.519,605.642,83.472,610.578,83.45z M544.354,208.298
			c-1.21,2.367-2.198,3.674-2.562,5.134c-0.912,3.67-4.142,7.418-0.024,11.13c0.118,0.105-0.017,0.479-0.016,0.729
			c0.009,3.235-0.187,6.488,0.073,9.704c0.593,7.334,2.288,8.78,9.601,7.29c-0.09-1.032,0.205-2.753-0.337-3.078
			c-4.635-2.779-3.109-7.225-3.496-11.253c-0.338-3.505,0.155-6.386,2.572-7.627c-0.957-3.006-1.607-5.583-2.62-8.009
			C547.036,211.098,545.867,210.154,544.354,208.298z M261.515,103.723c0.514-0.328,1.028-0.657,1.542-0.985
			c-0.353-2.055-0.318-5.682-1.129-5.883c-3.018-0.746-6.521-1.047-9.433-0.164c-1.901,0.577-4.865,2.712-3.508,5.906
			c1.318,3.105,3.351,5.903,4.726,8.989c0.65,1.461,0.796,3.328,0.547,4.913c-0.088,0.562-2.214,1.391-3.067,1.098
			c-1.07-0.367-1.81-1.741-2.647-2.719c-0.798-0.932-1.537-1.914-2.302-2.873c-0.38,0.116-0.761,0.231-1.142,0.347
			c-0.15,2.283-0.627,4.628-0.221,6.808c0.104,0.556,3.011,0.573,4.625,0.875c0.479,0.09,0.977,0.513,1.396,0.43
			c2.416-0.482,5.366-0.387,7.081-1.784c2.582-2.103,3.44-5.273,1.019-8.546c-1.607-2.172-3.074-4.504-4.194-6.952
			c-0.412-0.901,0.35-2.339,0.577-3.532c0.937,0.503,1.922,0.935,2.799,1.528C259.339,101.959,260.409,102.868,261.515,103.723z
			 M224.823,315.044c2.117,2.721,1.902,5.258,0.743,8.1c-1.424,3.491-2.566,7.12-3.479,10.777c-0.192,0.771,1.142,1.921,1.771,2.896
			c1.017-0.816,2.421-1.428,2.982-2.486c2.269-4.282,4.162-8.765,6.506-13c0.353-0.637,2.388-0.58,3.604-0.449
			c2.153,0.229,3.634-0.342,3.309-2.685c-0.235-1.7-1.103-3.313-1.718-5.049c-2.225,1.537-3.617,2.499-5.287,3.652
			C231.383,311.602,228.264,313.079,224.823,315.044z M633.14,221.068c0.579-0.13,1.156-0.259,1.734-0.39c0-8.546,0-17.092,0-26.602
			c-1.785,1.141-2.632,1.565-3.338,2.158c-1.3,1.092-2.669,2.161-3.722,3.47c-0.919,1.141-1.441,2.599-2.14,3.917
			c1.353-0.032,2.706-0.075,4.059-0.088c0.235-0.002,0.472,0.117,1.34,0.35c0,3.775-0.216,7.738,0.093,11.662
			C631.314,217.427,632.451,219.229,633.14,221.068z M512.232,235.762c0-0.047,0-0.094,0-0.141c3.101,0,6.225,0.212,9.289-0.12
			c1.026-0.111,1.901-1.612,2.846-2.478c-0.958-0.809-1.894-2.283-2.879-2.316c-6.075-0.208-12.166-0.204-18.24,0.034
			c-0.952,0.037-1.843,1.623-2.762,2.492c0.936,0.843,1.804,2.299,2.82,2.412C506.25,235.973,509.253,235.762,512.232,235.762z
			 M524.62,226.414c-0.014-0.328-0.027-0.657-0.041-0.986c-0.613-0.356-1.222-1.011-1.841-1.021
			c-6.696-0.12-13.395-0.188-20.091-0.108c-0.655,0.009-1.298,1.093-1.946,1.678c0.797,0.424,1.587,1.196,2.395,1.216
			c6.074,0.148,12.153,0.198,18.229,0.15C522.426,227.334,523.521,226.739,524.62,226.414z M537.332,101.946
			c7.584,4.34,15.159,2.795,22.733,0.93c0-0.311-0.001-0.621-0.001-0.93C552.487,101.946,544.909,101.946,537.332,101.946z
			 M548.268,96.25c0-0.012,0.001-0.023,0.001-0.035c2.863,0,5.733,0.113,8.585-0.07c0.848-0.054,1.643-0.938,2.462-1.44
			c-0.729-0.468-1.451-1.327-2.189-1.34c-5.857-0.103-11.72-0.102-17.577,0.03c-0.852,0.019-1.684,0.902-2.523,1.386
			c0.885,0.49,1.745,1.342,2.658,1.402C542.534,96.366,545.405,96.25,548.268,96.25z M620.769,212.232
			c0.191-0.281,0.384-0.564,0.574-0.848c-1.065-0.721-2.063-1.929-3.208-2.087c-7.914-1.1-12.896-0.17-14.344,2.935
			C609.622,212.232,615.195,212.232,620.769,212.232z M161.451,274.656c1.646-0.116,2.902,0.016,3.964-0.376
			c0.497-0.183,1.067-1.661,0.818-2.058c-0.522-0.828-1.565-1.329-2.546-2.081C162.888,271.756,162.359,272.821,161.451,274.656z
			 M312.06,270.691c-0.768-0.096-1.368-0.232-1.965-0.226c-0.474,0.006-0.945,0.189-1.373,0.284
			c-0.514,4.283-0.48,4.321,3.338,3.652C312.06,273.228,312.06,272.03,312.06,270.691z M354.26,16.06
			c-0.459-0.095-0.919-0.191-1.379-0.287c-0.835,1.084-1.671,2.169-3.019,3.918c1.692,0.341,2.842,0.574,3.993,0.806
			C353.989,19.019,354.124,17.54,354.26,16.06z M310.569,253.637c0.847-1.569,1.707-2.437,1.583-3.127
			c-0.136-0.76-1.179-1.356-1.825-2.023c-0.672,0.764-1.716,1.454-1.886,2.316C308.325,251.385,309.441,252.21,310.569,253.637z
			 M322.246,235.021c-0.167,0.548-0.335,1.096-0.503,1.643c1.326,0.596,2.652,1.191,3.978,1.787
			c0.286-0.883,0.573-1.765,0.859-2.647C325.135,235.542,323.69,235.281,322.246,235.021z M679.488,76.861
			c-0.513,0.244-1.026,0.488-1.539,0.732c-0.469,0.655-1.329,1.326-1.303,1.96c0.029,0.693,1.099,1.994,1.333,1.914
			c1.013-0.346,2.354-0.926,2.667-1.761C680.911,79.001,679.923,77.827,679.488,76.861z M161.782,264.273
			c-0.012,0.813-0.023,1.628-0.035,2.44c1.489-0.082,2.981-0.148,4.458-0.328c0.044-0.006,0.023-1.757-0.107-1.776
			C164.676,264.392,163.226,264.357,161.782,264.273z M326.181,19.845c0.023-0.434,0.047-0.869,0.071-1.303
			c-1.018-0.765-2.034-1.529-3.685-2.771c-0.199,1.699-0.338,2.887-0.478,4.074C323.453,19.845,324.816,19.845,326.181,19.845z
			 M375.653,15.877c-0.36-0.075-0.721-0.15-1.081-0.226c-0.775,1.078-1.551,2.157-2.964,4.125c2.07,0,3.209,0,4.347,0
			C375.854,18.477,375.754,17.177,375.653,15.877z M328.731,18.52c0.095,0.349,0.191,0.697,0.286,1.046c1.459,0,2.918,0,5.124,0
			c-1.276-1.708-1.904-2.549-2.408-3.224C330.644,17.132,329.687,17.826,328.731,18.52z M163.192,297.342
			c0.296,0.133,0.592,0.266,0.888,0.398c0.723-0.96,1.748-1.845,2.016-2.918c0.105-0.419-1.491-1.264-2.904-2.384
			C163.192,294.707,163.192,296.024,163.192,297.342z"/>
		<path fill-rule="evenodd" clip-rule="evenodd" d="M163.399,260.788c-0.359-2.082-0.622-3.598-0.989-5.717
			c-7.715,0-15.648,0.113-23.577-0.026c-11.734-0.207-23.477-0.363-35.193-0.974c-10.437-0.543-20.98-0.908-31.227-2.747
			c-11.275-2.023-22.732-2.362-33.905-4.479c-7.557-1.433-15.437-3.122-21.707-8.291c-0.848-0.699-1.327-2.362-1.247-3.528
			c0.086-1.242,0.743-2.756,1.663-3.576c6.011-5.362,9.933-12.121,13.835-19.044c2.732-4.847,6.7-8.982,9.895-13.59
			c2.691-3.879,5.037-7.997,7.598-11.97c0.705-1.096,1.744-1.977,2.438-3.077c3.282-5.214,6.354-10.564,9.779-15.68
			c2.982-4.458,6.33-8.671,9.537-12.978c0.283-0.38,0.836-0.576,1.072-0.973c4.518-7.572,8.884-15.239,13.554-22.715
			c2.369-3.792,5.312-7.223,7.929-10.864c2.06-2.865,4.015-5.804,6.022-8.705c5.21-7.528,8.791-16.078,15.308-22.839
			c3.005-3.118,4.392-7.736,6.856-11.446c4.793-7.218,9.8-14.295,14.776-21.39c2.863-4.081,6.061-7.942,8.708-12.154
			c2.957-4.707,5.427-9.718,8.188-14.551c0.532-0.932,1.451-1.638,2.155-2.479c0.898-1.072,1.829-2.126,2.621-3.275
			c1.222-1.773,2.14-3.808,3.598-5.339c0.571-0.599,2.751-0.647,3.339-0.07c1.877,1.844,3.405,4.058,4.969,6.202
			c3.438,4.713,6.823,9.466,10.215,14.213c2.448,3.426,4.928,6.831,7.294,10.313c3.473,5.111,6.872,10.271,10.276,15.428
			c3.864,5.856,7.648,11.765,11.561,17.588c3.55,5.283,7.3,10.431,10.826,15.729c4.522,6.796,8.836,13.73,13.376,20.515
			c2.775,4.146,5.909,8.053,8.695,12.192c3.569,5.304,6.856,10.797,10.445,16.085c2.659,3.918,5.732,7.555,8.394,11.471
			c4.091,6.017,7.904,12.224,11.991,18.244c4.104,6.046,8.484,11.904,12.584,17.953c3.133,4.621,5.645,9.713,9.133,14.03
			c2.878,3.563,3.488,8.701,7.939,11.118c0.541,0.293,0.884,1.221,1.036,1.916c1,4.568,4.684,6.937,7.758,9.878
			c1.88,1.799,2.219,4.25,0.158,6.21c-1.836,1.746-3.819,3.635-6.101,4.551c-3.737,1.5-7.813,2.13-11.671,3.36
			c-9.311,2.968-19.145,2.266-28.528,4.078c-9.969,1.926-19.869,3.081-29.972,3.396c-20.635,0.644-41.263,1.501-61.892,2.317
			c-2.763,0.109-6.201-0.945-6.9,3.521C165.912,259.249,164.748,259.708,163.399,260.788z M136.638,102.945
			c-0.098,0.731-0.195,1.463-0.294,2.194c0.688-0.03,1.865,0.156,1.99-0.124c1.578-3.564,2.677-0.856,1.583-2.158
			c1.505-0.372,3.01-0.745,4.515-1.117c0.102-0.135,0.204-0.271,0.305-0.405c-2.739,0.614-5.479,1.228-8.22,1.843
			c-1.666-2.172-3.301-0.589-4.871,0.126c-0.406,0.185-0.883,1.263-0.769,1.378c1.06,1.073,2.242,2.025,3.389,3.012
			c0.212-0.219,0.425-0.438,0.637-0.657c-0.499-0.959-0.998-1.919-1.631-3.138C134.58,103.528,135.608,103.236,136.638,102.945z
			 M139.975,114.856c-0.295,2.691-0.588,5.381-1,9.146c2.603-1.938,4.255-3.167,5.127-3.815c-1.902-2.261-3.15-3.745-4.398-5.228
			c0.476-0.963,0.952-1.927,1.428-2.89c-0.296-0.518-0.593-1.037-0.889-1.555c-1.906,4.692-4.441,1.476-7.543,1.303
			C135.177,114.441,136.798,116.605,139.975,114.856z M153.505,151.457c-0.16-0.598-0.319-1.195-0.479-1.793
			c1.952-0.897,3.878-1.855,5.864-2.667c0.991-0.406,2.078-0.667,3.144-0.775c1.29-0.131,2.604-0.031,4.558-0.031
			c0.089,0.465,0.347,1.638,0.525,2.823c0.119,0.789,0.123,1.595,0.179,2.394c0.776-0.359,1.529-0.788,2.335-1.057
			c0.871-0.289,1.793-0.428,2.693-0.633c-0.204,1.028-0.12,2.291-0.706,3.005c-0.442,0.539-1.736,0.418-2.66,0.513
			c-1.024,0.104-2.058,0.12-2.601,0.149c0,2.234-0.011,3.931,0.002,5.628c0.021,2.615,0.075,5.229,0.079,7.844
			c0,0.539-0.273,1.09-0.226,1.617c0.315,3.508,0.867,7.008,0.928,10.518c0.02,1.137-1.202,2.295-1.962,3.631
			c0.431,0.474,1.141,1.262,1.861,2.041c0.166,0.179,0.358,0.34,0.556,0.485c0.869,0.637,1.745,1.264,2.618,1.895
			c-1,0.757-2.002,1.516-3.142,2.379c-0.193,3.856-0.193,3.856-3.194,7.058c-0.889-0.569-2.33-1.667-2.446-1.54
			c-0.934,1.01-1.618,2.25-2.404,3.462c2.003,0.704,3.588,1.262,5.173,1.819l-0.096-0.104c-0.959,1.738-1.515,4.013-2.963,5.101
			c-2.968,2.23-6.415,3.826-10.156,5.964c0.146-1.433,0.269-2.647,0.434-4.271c-1.227,0-2.412,0-2.9,0
			c-0.689,2.074-1.186,3.57-1.818,5.472c3.157,0,6.484-0.018,9.812,0.003c15.825,0.097,31.65,0.198,47.475,0.317
			c0.73,0.006,1.458,0.212,2.188,0.313c3.457,0.481,6.913,0.971,10.372,1.431c2.318,0.308,4.642,0.57,6.962,0.854
			c1.104,0.551,2.382-0.212,3.567-0.086c2.671,0.282,5.287,1.05,7.94,1.535c5.506,1.007,11.059-0.043,16.69,0.925
			c10.344,1.779,20.897,2.333,31.361,3.427c0.594,0.062,1.153,0.408,1.743,0.566c4.261,1.143,8.526,2.271,12.79,3.402
			c0.148-0.36,0.297-0.721,0.445-1.082c-2.815-4.767-5.458-9.646-8.485-14.274c-4.708-7.194-9.682-14.215-14.529-21.318
			c-0.675-0.988-1.218-2.067-1.907-3.045c-3.028-4.288-6.854-8.219-8.921-12.924c-2.116-4.813-6.694-7.615-8.356-12.869
			c-1.294-4.089-5.134-7.351-7.741-11.05c-4.668-6.625-9.27-13.299-13.881-19.963c-4.569-6.603-9.109-13.225-13.684-19.822
			c-0.544-0.785-1.363-1.397-1.83-2.219c-2.397-4.219-4.722-8.479-7.148-12.864c-2.351,1.378-4.027,2.298-5.638,3.32
			c-3.122,1.979-6.114,4.183-9.334,5.98c-2.949,1.647-6.163,2.813-9.198,4.316c-2.878,1.426-11.766,0.391-14.476-1.516
			c-1.631-1.147-3.624-1.779-6.079-2.937c-0.199,3.33-0.287,5.491-0.474,7.643c-0.106,1.222-0.257,3.435-0.594,3.475
			c-1.765,0.21-3.597-0.131-5.404-0.281c0.334-1.29,0.562-2.625,1.069-3.842c0.152-0.365,1.086-0.404,1.223-0.448
			c-1.423-1.491-3.013-2.522-2.865-3.125c0.364-1.479,1.529-2.759,2.274-3.959c-4.301,1.306-3.875-4.327-7.001-5.353
			c0.031-0.312,0.063-0.623,0.095-0.934c2.523-0.438,5.046-0.875,7.523-1.305c-1.983-1.463-3.754-2.769-6.008-4.432
			c2.991-0.857,5.201-1.688,7.485-2.036c0.779-0.12,1.989,0.797,2.544,1.57c0.43,0.597,0.469,1.885,0.104,2.547
			c-0.517,0.936-1.566,1.579-2.337,2.299c1.39,1.474,2.456,3.014,3.888,4.048c4.987,3.6,10.915,2.53,16.5,2.884
			c6.688,0.424,11.653-4.144,16.985-7.043c5.865-3.188,5.781-5.832,1.597-10.963c-0.229-0.28-0.313-0.674-0.523-0.973
			c-4.157-5.928-8.366-11.819-12.466-17.786c-1.771-2.578-3.184-5.405-5.001-7.945c-2.51-3.508-5.249-6.851-8.02-10.433
			c-0.561,0.751-1.071,1.434-2.238,2.996c0.167-3.069,0.27-4.986,0.375-6.919c-1.295-0.549-2.432-1.03-2.769-1.173
			c-1.154-2.756-1.761-5.05-2.992-6.937c-1.517-2.322-3.341-4.568-5.482-6.289c-0.749-0.601-3.59-0.049-4.182,0.838
			c-4.26,6.394-8.329,12.93-12.042,19.651c-0.473,0.855,1.408,3.081,2.317,4.601c0.507,0.847,1.258,1.548,2.126,2.585
			c-1.68,0.322-2.701,0.517-3.22,0.617c0,1.401-0.006,2.436,0.003,3.47c0.006,0.68-0.226,1.775,0.095,1.978
			c3.228,2.039,0.724,3.332-0.709,4.629c0.647,0.794,1.129,1.387,1.948,2.391c-2,0.617-3.556,1.097-5.46,1.685
			c0.828,0.751,1.399,1.342,2.044,1.837c0.68,0.522,1.43,0.954,2.646,1.751c-4.5,3.42-6.059,6.833-1.568,10.336
			c1.208,0.196,3.238,0.555,3.414,1.333c1.178,5.204-3.864,3.337-6.343,5.132c0.2,1.268-0.087,3.332,0.741,3.987
			c2.854,2.258,1.245,3.99-0.489,5.977c4.118,1.822,3.255,4.925,2.844,6.73c-2.414,1.954-3.982,3.225-5.275,4.272
			c2.125,3.169,3.856,5.75,6.002,8.951c1.216-0.696,2.99-1.71,5.854-3.348c-1.186,2.191-1.966,3.404-2.516,4.713
			c-0.575,1.368-0.93,2.828-1.548,4.78c-1.553-1.062-3.171-2.169-4.444-3.039c-0.473,2.001-0.828,3.499-1.228,5.189
			c1.397,0.743,3.078,1.637,4.758,2.53c-0.091,0.302-0.182,0.604-0.271,0.907c-1.319-0.116-2.636-0.232-4.803-0.423
			c0.651,1.45,1.223,2.354,1.449,3.338c0.208,0.906,0.044,1.897,0.044,2.851c0.142-0.018,0.284-0.036,0.426-0.054
			c0.394,2.818,0.786,5.637,1.22,8.743c-0.871,0.281-1.788,0.577-2.704,0.87c-0.899-3.012-2.486-3.393-6.282-1.512
			c-0.026,0.351-0.053,0.701-0.078,1.051c2.15,0.122,4.302,0.243,6.453,0.365c1.759,2.252,3.519,4.504,5.277,6.756
			c-1.527,1.217-3.053,2.433-5.58,4.447c4.599,0.744,8.111,1.312,12.021,1.944c-0.01-0.045,0.145,0.694,0.323,1.544
			c3.907-2.769,4.676-8.156,1.892-13.843c-0.849,0.792-1.481,1.732-2.357,2.11C156.021,151.231,154.72,151.244,153.505,151.457z
			 M172.961,221.303c-0.316-0.61-0.632-1.221-0.978-1.887c-2.727,2.41-2.616,2.041-5.354,0.657
			c-1.617-0.816-3.948-0.237-5.958-0.253c-1.115-0.01-2.239,0.13-3.346,0.041c-0.709-0.058-1.395-0.409-2.092-0.629
			c-0.177,0.346-0.353,0.691-0.529,1.038c2.994,0.147,2.54,5.536,6.873,3.649c-4.175,5.147-5.838,0.872-7.938-2.229
			c-0.579,0.649-1.13,1.268-1.768,1.983c-0.726-0.879-1.372-1.66-2.009-2.434c-1.076,1.236-1.976,2.269-2.875,3.301
			c-0.27-0.249-0.538-0.498-0.808-0.747c0.677-1.339,1.355-2.678,1.999-3.952c-5.78,0-11.178,0-16.576,0
			c-1.479,0.59-3.026,0.901-4.519,0.73c-1.862-0.214-3.71-1.292-5.51-1.173c-4.888,0.322-9.739,1.179-14.622,1.643
			c-9.482,0.901-18.964-0.085-28.545,1.992c-11.209,2.432-22.919,2.464-34.353,3.979c-6.582,0.872-13.08,2.484-19.536,4.086
			c-1.256,0.312-2.461,1.971-3.042,3.293c-0.229,0.523,1.125,2.12,2.078,2.722c6.984,4.406,15.103,5.482,22.916,7.24
			c5.741,1.293,11.703,1.735,17.595,2.196c8.459,0.662,16.939,1.115,25.419,1.438c8.35,0.317,16.71,0.459,25.068,0.503
			c10.658,0.056,21.284,1.459,31.985,0.247c5.604-0.635,11.316-0.317,16.979-0.426c2.075-0.039,4.379,0.484,6.161-0.256
			c1.816-0.756,3.117-2.749,4.348-3.92c-1.216-2.561-2.273-4.789-3.332-7.017c0.24-0.309,0.48-0.618,0.72-0.927
			c1.605,2.658,3.194,4.371,4.182,1.152c1.751,0.526,3.232,0.972,5.559,1.671c-1.527-3.207-2.479-5.208-3.491-7.332
			c-0.693,1.162-1.324,2.22-2.33,3.905c0-3.77,0-6.674,0-9.576C174.543,224.442,173.752,222.873,172.961,221.303z M160.237,165.033
			c-1.646-0.525-2.721-0.985-3.84-1.188c-1.044-0.188-2.167-0.25-3.188-0.039c-0.285,0.06-0.502,1.297-0.447,1.97
			c0.127,1.551,0.441,3.086,0.718,4.882c0.498-0.204,1.425-0.585,1.36-0.559c2.272,0.637,3.759,1.054,5.247,1.472
			c0.144-0.381,0.289-0.76,0.433-1.14c-0.683-0.769-1.367-1.537-1.934-2.174C159.272,166.917,159.872,165.747,160.237,165.033z
			 M153.173,186.776c0.363-0.027,0.726-0.056,1.089-0.083c0.362-1.048,0.724-2.098,1.017-2.947c1.754,0.48,3.122,0.854,4.491,1.229
			c0.042-0.249,0.085-0.498,0.128-0.748c-2.156-1.674-4.313-3.349-6.725-5.224C153.173,181.866,153.173,184.322,153.173,186.776z
			 M144.834,63.565c-3.393-1.569-1.705-3.465,0.018-5.362c-0.371-0.252-0.743-0.504-1.115-0.756
			c-2.182,2.022-4.362,4.046-7.075,6.562C139.942,63.831,142.05,63.716,144.834,63.565z M142.976,161.051
			c0.213,1.433,0.047,4.492,0.828,4.755c1.934,0.654,4.299,0.031,6.492-0.079c0.095-0.292,0.189-0.585,0.285-0.877
			C148.333,163.727,146.086,162.605,142.976,161.051z M135.351,122.379c0.032-0.45,0.063-0.901,0.094-1.351
			c-1.834-0.089-3.668-0.177-5.502-0.265c0.412,1.677,0.823,3.355,1.343,5.472C133.177,124.44,134.264,123.409,135.351,122.379z
			 M155.699,192.198c0.214,0.151,0.429,0.304,0.643,0.455c1.499-0.817,2.998-1.635,4.828-2.633c-2.182-1.132-3.758-1.95-4.725-2.452
			c-1.423,0.824-2.601,1.507-3.779,2.188c0.216,0.266,0.432,0.531,0.648,0.797c1.054-0.392,2.107-0.784,3.781-1.407
			C156.429,190.603,156.064,191.4,155.699,192.198z M135.888,91.123c1.571-0.542,3.029-0.682,3.926-1.465
			c0.747-0.651,0.917-2.041,1.142-3.144c0.044-0.217-1.06-0.987-1.232-0.877c-0.817,0.524-1.639,1.166-2.185,1.956
			C136.913,88.496,136.578,89.6,135.888,91.123z M133.758,73.513c2.088,0,4.176,0,7.114,0
			C137.625,69.892,137.625,69.892,133.758,73.513z M142.126,158.972c1.072-0.987,2.125-1.956,3.178-2.924
			c-0.115-0.427-0.23-0.854-0.344-1.28c-1.929,0.134-3.857,0.268-5.786,0.402c-0.02,0.341-0.039,0.683-0.059,1.023
			C140.115,157.116,141.115,158.039,142.126,158.972z M130.526,76.877c-0.275-0.24-0.55-0.479-0.826-0.719
			c-1.472,1.056-2.992,2.053-4.381,3.209c-0.331,0.276-0.223,1.081-0.318,1.642c0.558,0.086,1.392,0.45,1.629,0.214
			C128.007,79.853,129.243,78.341,130.526,76.877z"/>
		<path fill-rule="evenodd" clip-rule="evenodd" d="M349.647,205.308c0.715-0.766,1.397-1.564,2.153-2.288
			c1.381-1.322,2.617-2.985,4.263-3.796c2.058-1.014,2.78,0.596,2.3,2.345c-0.907,3.306-2.172,6.512-3.121,9.807
			c-2.4,8.326-4.689,16.686-7.085,25.014c-0.209,0.725-0.871,1.319-1.322,1.975c-0.756-0.716-2.202-1.473-2.162-2.142
			c0.485-8.271-5.376-14.744-6.269-22.664c-0.331-2.94-2.366-5.688-3.633-8.52c-0.101-0.224-0.386-0.407-0.398-0.621
			c-0.101-1.8-0.158-3.603-0.229-5.404c1.428,0.516,3.121,0.71,4.226,1.619c1.847,1.521,3.317,3.498,5.57,5.251
			c1.051-51.882,0.249-103.744,0.227-155.604c-0.314-0.289-0.628-0.578-0.942-0.866c-1.167,1-2.384,1.947-3.485,3.013
			c-1.316,1.275-2.471,2.725-3.872,3.886c-0.168,0.139-2.171-1.218-2.085-1.606c0.708-3.194,1.63-6.348,2.642-9.463
			c1.001-3.083,2.316-6.067,3.256-9.166c1.907-6.291,3.654-12.63,5.851-20.29c1.062,2.219,1.939,3.629,2.434,5.163
			c1.993,6.169,3.847,12.383,5.794,18.567c1.442,4.58,3.037,9.113,4.355,13.727c0.274,0.959-0.369,2.179-0.59,3.279
			c-1.102-0.553-2.476-0.858-3.249-1.709c-1.588-1.75-2.855-3.792-4.253-5.714c-0.532,0.395-1.065,0.791-1.597,1.185
			c0,51.443,0,102.885,0,154.328C348.833,204.843,349.24,205.075,349.647,205.308z"/>
		<path fill-rule="evenodd" clip-rule="evenodd" d="M309.409,284.072c0.874,0.651,2.183,1.139,2.505,1.996
			c0.362,0.963-0.169,2.261-0.312,3.413c-0.938-0.142-1.875-0.383-2.815-0.405c-2.861-0.071-5.874-0.642-8.555,0.046
			c-5.295,1.356-10.433,3.358-15.585,5.231c-2.487,0.905-4.854,2.136-7.287,3.192c-1.391,0.604-2.803,1.156-4.407,1.814
			c-0.808-2.692-1.145-4.283,1.544-5.375c1.463-0.594,2.702-2.194,3.54-3.632c0.311-0.533-0.642-2.593-1.31-2.755
			c-1.774-0.432-3.708-0.251-5.578-0.24c-15.483,0.097-30.967,0.253-46.45,0.303c-9.089,0.029-18.178-0.123-27.268-0.12
			c-0.727,0-1.454,0.569-2.181,0.874c0.422,0.662,0.728,1.449,1.287,1.961c1.55,1.42,3.342,2.598,4.758,4.13
			c0.66,0.715,0.67,2.028,0.974,3.07c-0.992,0.211-2.397,0.95-2.913,0.549c-4.764-3.708-10.614-3.884-16.083-5.349
			c-3.639-0.975-7.054-2.853-10.716-3.642c-2.779-0.6-5.791-0.119-9.182-0.119c-1.118-2.41-0.293-3.232,2.771-4.722
			c6.046-2.938,13.392-2.246,18.76-7.081c1.141-1.028,3.324-0.839,4.975-1.376c2.315-0.753,4.538-1.817,6.881-2.45
			c1.853-0.501,3.827-0.553,5.747-0.804c0.094,0.374,0.189,0.748,0.283,1.122c-2.298,2.725-4.597,5.449-7.177,8.509
			c27.629,0,55.234,0,83.339,0c-2.261-2.456-4.248-4.509-6.083-6.689c-0.391-0.465-0.559-1.72-0.248-2.034
			c0.491-0.498,1.712-0.938,2.214-0.659c5.603,3.096,12.184,3.225,17.851,6.831c4.164,2.65,10.176,2.399,14.729,3.314
			c1.135-2.477,1.932-4.213,2.728-5.948c0.587,0.331,1.708,0.728,1.677,0.984c-0.215,1.786-0.669,3.544-1.045,5.311
			C310.322,283.573,309.866,283.822,309.409,284.072z"/>
		<path fill-rule="evenodd" clip-rule="evenodd" d="M608.892,109.03c-1.214,6.706-2.151,13-3.548,19.19
			c-0.869,3.858-2.557,7.524-3.645,11.342c-0.881,3.09-1.353,6.293-2.12,9.417c-0.661,2.689-1.347,5.39-2.31,7.977
			c-0.352,0.945-1.613,2.281-2.324,2.203c-1.277-0.141-2.948-0.916-3.574-1.957c-1.559-2.589-2.675-5.455-3.866-8.252
			c-0.919-2.158-1.939-3.823-4.71-4.096c-1.126-0.111-2.1-1.773-3.143-2.73c0.948-1.028,1.784-2.205,2.882-3.037
			c0.85-0.645,2.034-1.203,3.053-1.176c1.114,0.03,2.704,0.465,3.213,1.273c1.147,1.822,1.567,4.091,2.651,5.965
			c0.669,1.155,2.015,1.918,3.057,2.857c0.819-1.123,2.126-2.146,2.38-3.386c1.552-7.558,2.653-15.213,4.334-22.74
			c1.085-4.859,2.869-9.566,4.406-14.319c0.979-3.031,3.157-4.179,6.318-4.117c7.354,0.144,14.712,0.066,22.066,0.19
			c1.129,0.02,2.391,0.426,3.326,1.049c0.774,0.516,1.16,1.616,1.718,2.458c-0.778,0.513-1.521,1.396-2.34,1.475
			c-2.966,0.283-5.956,0.372-8.939,0.397C621.696,109.066,615.614,109.03,608.892,109.03z"/>
		<path fill-rule="evenodd" clip-rule="evenodd" d="M663.905,236.051c2.254-8.949,4.406-17.033,6.299-25.179
			c1.141-4.908,1.78-9.934,2.873-14.855c0.234-1.055,1.44-2.689,2.226-2.705c10.339-0.207,20.683-0.182,31.024-0.166
			c0.421,0.001,0.841,0.468,2.126,1.232c-2.227,0.338-3.615,0.718-5.009,0.732c-7.116,0.07-14.234,0.126-21.35,0.022
			c-3.366-0.049-4.899,1.604-5.477,4.7c-1.231,6.61-2.474,13.222-3.846,19.804c-1.146,5.494-2.261,11.013-3.816,16.396
			c-0.98,3.392-2.632,6.617-4.301,9.749c-0.231,0.435-3.069,0.315-3.385-0.263c-2.54-4.666-4.765-9.503-7.269-14.666
			c-1.135-0.121-2.832-0.302-4.667-0.497c-0.758-3.817,2.815-3.735,4.472-4.933c0.714-0.517,3.35,0.48,4.184,1.529
			c1.429,1.797,2.021,4.236,3.18,6.283C661.726,234.217,662.775,234.918,663.905,236.051z"/>
		<path fill-rule="evenodd" clip-rule="evenodd" d="M552.636,222.626c2.256-1.761,4.359-4.707,6.8-5.019
			c4.127-0.528,8.897-0.303,12.544,1.417c1.937,0.911,2.485,5.569,2.928,8.643c0.558,3.869,0.393,7.846,0.487,11.777
			c0.068,2.828-1.538,4.103-3.922,2.674c-2.026-1.215-3.422-0.706-5.442-0.165c-2.669,0.715-5.765,0.859-8.444,0.239
			c-2.932-0.679-4.355-3.443-4.71-6.441c-0.396-3.351,0.321-6.139,4.177-7.04c2.939-0.688,5.906-1.303,8.776-2.215
			c1.211-0.386,2.205-1.454,3.298-2.211c-1.081-1.033-2.107-2.86-3.254-2.939c-2.646-0.181-6.039-1.653-7.44,2.713
			c-0.222,0.691-3.257,0.48-4.991,0.687C553.172,224.039,552.904,223.333,552.636,222.626z M569.04,231.037
			c-5.396-1.384-10.901,0.876-9.718,5.133C566.119,237.752,569.533,235.949,569.04,231.037z"/>
		<path fill-rule="evenodd" clip-rule="evenodd" d="M687.826,236.413c3.921,0,7.149-0.194,10.338,0.078
			c1.724,0.147,4.736-0.296,4.231,2.643c-0.214,1.243-2.698,2.862-4.244,2.971c-5.337,0.375-10.72,0.277-16.078,0.123
			c-2.987-0.087-3.641-2.006-2.251-4.678c2.509-4.821,5.804-8.542,10.831-11.074c4.015-2.021,5.885-8.499,3.866-11.996
			c-0.685-1.187-2.963-1.91-4.548-1.975c-1.213-0.048-2.566,1.165-3.687,2.037c-0.513,0.399-0.439,1.521-0.94,1.973
			c-0.814,0.732-1.884,1.182-2.846,1.75c-0.563-0.956-1.793-2.135-1.563-2.828c0.69-2.076,1.474-4.626,3.087-5.79
			c3.754-2.712,11.604-1.264,14.983,2.161c2.344,2.376,2.63,8.979,0.355,11.467c-3.063,3.352-6.277,6.563-9.368,9.891
			C689.284,233.929,688.813,234.914,687.826,236.413z"/>
		<path fill-rule="evenodd" clip-rule="evenodd" d="M610.146,146.114c2.624-2.014,4.076-1.825,6.009,0.823
			c1.039,1.424,4.082,1.972,6.165,1.862c1.618-0.086,4.182-1.567,4.474-2.85c0.412-1.817-0.619-4.155-1.57-5.993
			c-0.376-0.727-2.246-0.582-3.335-1.063c-1.377-0.61-2.65-1.454-4.229-2.345c2.461-2.125,4.237-3.611,5.959-5.156
			c2.241-2.013,1.802-4.453-1.075-5.109c-2.365-0.54-4.879-1.183-6.262,2.19c-0.33,0.805-2.739,0.758-4.191,1.104
			c-0.107-1.221-0.74-2.783-0.216-3.594c1.146-1.769,0.451-5.137,3.967-5.035c3.673,0.107,7.461-0.334,10.98,0.446
			c2.815,0.623,4.265,7.904,2.869,10.718c-0.926,1.866-2.011,3.45,0.517,5.72c3.533,3.175,3.111,8.447-0.061,12.468
			c-1.072,1.359-2.375,3.455-3.685,3.542c-4.108,0.275-8.485,0.446-12.313-0.759C612.34,152.515,611.546,148.72,610.146,146.114z"/>
		<path fill-rule="evenodd" clip-rule="evenodd" d="M485.601,226.484c0.37,6.031-0.664,11.557-6.02,15.231
			c-3.282,2.253-7.182,1.169-9.794-1.713c-6.399-7.058-4.774-15.231-3.033-23.08c1.472-6.635,5.009-9.028,10.191-8.024
			c2.895,0.561,5.637,1.882,6.366,5.582c0.786,3.986,2.129,7.864,3.229,11.789C486.227,226.341,485.913,226.413,485.601,226.484z
			 M475.362,224.523c5.454,0.19,6.291-0.982,4.395-5.904c-0.391-1.014-0.488-2.204-0.458-3.306c0.085-3.047-2.345-3.593-4.245-3.456
			c-1.076,0.076-2.229,2.096-2.928,3.456c-0.538,1.045-0.261,2.477-0.621,3.651C469.915,224.146,470.019,224.337,475.362,224.523z
			 M481.125,230.004c-1.325-3.792-4.6-3.147-7.448-2.807c-1.115,0.134-2.943,1.705-2.915,2.572c0.077,2.388,0.646,4.898,1.662,7.06
			c0.518,1.101,2.452,2.189,3.673,2.113c1.118-0.07,2.517-1.527,3.11-2.713C480.126,234.388,480.467,232.258,481.125,230.004z"/>
		<path fill-rule="evenodd" clip-rule="evenodd" d="M507.212,88.232c7.851-5.055,14.335-1.806,14.913,6.48
			c0.303,4.341,0.219,8.731-0.05,13.076c-0.079,1.281-1.254,3.415-2.162,3.547c-2.512,0.368-2.377-1.93-2.391-3.648
			c-0.03-3.739,0.089-7.479,0.048-11.218c-0.04-3.551-1.717-5.158-5.275-5.25c-4.286-0.11-4.932,0.417-5.118,4.811
			c-0.158,3.73-0.124,7.471-0.139,11.208c-0.007,1.756,0.917,4.45-1.957,4.08c-1.396-0.179-3.445-2.657-3.55-4.207
			c-0.443-6.576-0.269-13.194-0.32-19.797c-0.018-2.118,0.019-4.237-0.073-6.351c-0.082-1.909,0.552-3.52,2.595-3.049
			c1.179,0.271,2.617,1.722,2.936,2.91C507.236,82.952,507.046,85.281,507.212,88.232z"/>
		<path fill-rule="evenodd" clip-rule="evenodd" d="M373.941,138.373c2.183-1.417,4.243-3.103,6.59-4.153
			c1.48-0.664,3.882-1.107,4.991-0.354c1.816,1.234,2.771,3.177,1.594,6.048c-1.606,3.916-3.991,8.247,0.222,12.665
			c-1.715,1.075-3.219,2.103-4.807,2.977c-0.874,0.48-2.533,1.201-2.729,0.949c-0.762-0.977-1.625-2.386-1.453-3.479
			c0.436-2.766,1.426-5.441,2.162-8.162c0.649-2.393,1.258-4.798,2.12-8.109c-1.942,0.64-3.027,0.652-3.412,1.177
			c-3.426,4.678-8.774,8.057-9.612,14.537c-0.164,1.264-1.592,2.422-2.586,3.489c-0.315,0.338-1.4,0.504-1.643,0.261
			c-0.646-0.649-1.479-1.608-1.405-2.362c0.126-1.275,1.015-2.454,1.369-3.732c0.791-2.856,1.344-5.78,2.185-8.62
			c1.219-4.121,2.697-8.166,3.877-12.298c0.462-1.62,0.354-3.396,0.624-5.082c0.198-1.239,0.273-3.211,0.967-3.499
			c1.141-0.473,3.372-0.335,3.976,0.446c0.706,0.914,0.497,2.896,0.094,4.237c-1.278,4.241-2.833,8.397-4.28,12.587
			C373.17,138.056,373.556,138.214,373.941,138.373z"/>
		<path fill-rule="evenodd" clip-rule="evenodd" d="M574.974,97.554c3.223-0.146,6.53-0.414,9.839-0.423
			c9.21-0.027,18.422,0.113,27.633,0.073c8.343-0.037,16.686-0.245,25.028-0.324c1.36-0.013,2.772,0.079,4.063,0.457
			c0.589,0.173,1.348,1.192,1.3,1.768c-0.065,0.788-0.661,1.914-1.321,2.187c-1.105,0.455-2.441,0.465-3.682,0.464
			c-18.458-0.032-36.916-0.101-55.375-0.146c-1.244-0.003-2.502,0.022-3.732,0.195C575.833,102.208,574.499,101.106,574.974,97.554z
			"/>
		<path fill-rule="evenodd" clip-rule="evenodd" d="M579.17,229.56c-0.002-2.991,0.052-5.983-0.018-8.974
			c-0.062-2.603,1.23-3.1,3.555-2.83c1.911,0.222,3.879-0.042,5.82-0.092c2.102-0.055,4.25-0.411,6.295-0.097
			c2.987,0.46,4.788,2.19,4.791,5.576c0.005,5.222,0.274,10.442,0.436,15.662c0.059,1.907-0.213,3.474-2.669,3.6
			c-2.589,0.134-2.742-1.458-2.726-3.382c0.034-4.235,0.122-8.478-0.046-12.707c-0.16-4.023-3.497-6.811-6.018-4.926
			c-1.705,1.276-3.122,3.784-3.418,5.914c-0.524,3.788-0.207,7.712-0.038,11.569c0.106,2.43-0.964,3.46-3.229,3.489
			c-2.365,0.029-2.824-1.423-2.76-3.46C579.243,235.791,579.171,232.675,579.17,229.56z"/>
		<path fill-rule="evenodd" clip-rule="evenodd" d="M610.578,83.45c-4.937,0.022-9.377-2.931-10.233-6.625
			c-0.231-0.996,0.316-2.173,0.507-3.267c1.418,0.418,3.828,0.52,4.082,1.312c1.079,3.359,3.613,3.093,6.046,2.915
			c0.729-0.054,1.824-1.222,1.931-1.993c0.113-0.808-0.549-2.235-1.246-2.542c-1.682-0.741-3.568-1.054-5.397-1.418
			c-5.704-1.136-8.316-7.922-4.821-12.604c2.369-3.172,13.118-2.497,14.727,1.114c0.56,1.254-0.077,3.041-0.168,4.584
			c-1.23-0.466-2.477-0.896-3.688-1.409c-1.002-0.426-2.005-1.412-2.93-1.323c-1.335,0.128-2.599,1.003-3.893,1.559
			c1.039,0.946,2.137,2.76,3.105,2.692c5.033-0.35,7.276,3.412,9.962,6.37c1.439,1.586-0.874,7.634-3.124,8.709
			C613.69,82.361,611.831,82.961,610.578,83.45z"/>
		<path fill-rule="evenodd" clip-rule="evenodd" d="M544.354,208.298c1.513,1.856,2.682,2.8,3.191,4.02
			c1.013,2.426,1.663,5.003,2.62,8.009c-2.417,1.241-2.91,4.122-2.572,7.627c0.387,4.028-1.139,8.474,3.496,11.253
			c0.542,0.325,0.247,2.046,0.337,3.078c-7.313,1.49-9.008,0.044-9.601-7.29c-0.26-3.216-0.064-6.469-0.073-9.704
			c-0.001-0.249,0.134-0.623,0.016-0.729c-4.117-3.712-0.888-7.46,0.024-11.13C542.156,211.972,543.145,210.665,544.354,208.298z"/>
		<path fill-rule="evenodd" clip-rule="evenodd" d="M261.515,103.723c-1.106-0.854-2.175-1.763-3.331-2.545
			c-0.877-0.593-1.862-1.025-2.799-1.528c-0.227,1.193-0.989,2.631-0.577,3.532c1.12,2.448,2.587,4.779,4.194,6.952
			c2.421,3.273,1.563,6.443-1.019,8.546c-1.715,1.396-4.666,1.302-7.081,1.784c-0.418,0.083-0.916-0.34-1.396-0.43
			c-1.613-0.302-4.521-0.319-4.625-0.875c-0.407-2.18,0.071-4.524,0.221-6.808c0.381-0.116,0.762-0.231,1.142-0.347
			c0.765,0.959,1.504,1.941,2.302,2.873c0.837,0.978,1.578,2.352,2.647,2.719c0.853,0.293,2.979-0.536,3.067-1.098
			c0.249-1.585,0.104-3.452-0.547-4.913c-1.375-3.086-3.407-5.883-4.726-8.989c-1.357-3.194,1.607-5.329,3.508-5.906
			c2.911-0.883,6.415-0.582,9.433,0.164c0.811,0.201,0.776,3.828,1.129,5.883C262.542,103.066,262.029,103.395,261.515,103.723z"/>
		<path fill-rule="evenodd" clip-rule="evenodd" d="M224.823,315.044c3.441-1.965,6.56-3.442,8.43,1.756
			c1.67-1.153,3.062-2.115,5.287-3.652c0.615,1.735,1.483,3.349,1.718,5.049c0.325,2.343-1.156,2.914-3.309,2.685
			c-1.215-0.131-3.251-0.188-3.604,0.449c-2.345,4.235-4.238,8.718-6.506,13c-0.561,1.059-1.965,1.67-2.982,2.486
			c-0.63-0.975-1.963-2.125-1.771-2.896c0.913-3.657,2.056-7.286,3.479-10.777C226.725,320.302,226.94,317.765,224.823,315.044z"/>
		<path fill-rule="evenodd" clip-rule="evenodd" d="M633.14,221.068c-0.688-1.839-1.825-3.642-1.974-5.522
			c-0.309-3.924-0.093-7.887-0.093-11.662c-0.868-0.232-1.104-0.352-1.34-0.35c-1.353,0.013-2.706,0.056-4.059,0.088
			c0.698-1.318,1.221-2.776,2.14-3.917c1.053-1.309,2.422-2.378,3.722-3.47c0.706-0.593,1.553-1.018,3.338-2.158
			c0,9.51,0,18.056,0,26.602C634.296,220.81,633.719,220.938,633.14,221.068z"/>
		<path fill-rule="evenodd" clip-rule="evenodd" d="M512.232,235.762c-2.979,0-5.982,0.211-8.926-0.116
			c-1.017-0.113-1.885-1.569-2.82-2.412c0.919-0.869,1.81-2.455,2.762-2.492c6.074-0.238,12.165-0.242,18.24-0.034
			c0.985,0.033,1.921,1.508,2.879,2.316c-0.944,0.865-1.819,2.366-2.846,2.478c-3.064,0.332-6.188,0.12-9.289,0.12
			C512.232,235.668,512.232,235.715,512.232,235.762z"/>
		<path fill-rule="evenodd" clip-rule="evenodd" d="M524.62,226.414c-1.099,0.325-2.194,0.92-3.295,0.928
			c-6.076,0.048-12.155-0.002-18.229-0.15c-0.808-0.02-1.598-0.792-2.395-1.216c0.648-0.585,1.291-1.669,1.946-1.678
			c6.696-0.079,13.395-0.012,20.091,0.108c0.619,0.011,1.228,0.665,1.841,1.021C524.593,225.757,524.606,226.086,524.62,226.414z"/>
		<path fill-rule="evenodd" clip-rule="evenodd" d="M537.332,101.946c7.577,0,15.155,0,22.732,0c0,0.31,0.001,0.62,0.001,0.93
			C552.491,104.741,544.916,106.286,537.332,101.946z"/>
		<path fill-rule="evenodd" clip-rule="evenodd" d="M548.268,96.25c-2.862,0-5.733,0.116-8.584-0.067
			c-0.913-0.06-1.773-0.912-2.658-1.402c0.84-0.484,1.672-1.367,2.523-1.386c5.857-0.132,11.72-0.132,17.577-0.03
			c0.738,0.013,1.46,0.872,2.189,1.34c-0.819,0.503-1.614,1.386-2.462,1.44c-2.852,0.183-5.722,0.07-8.585,0.07
			C548.269,96.227,548.268,96.238,548.268,96.25z"/>
		<path fill-rule="evenodd" clip-rule="evenodd" d="M620.769,212.232c-5.573,0-11.146,0-16.978,0
			c1.448-3.104,6.43-4.034,14.344-2.935c1.145,0.158,2.143,1.366,3.208,2.087C621.152,211.668,620.96,211.951,620.769,212.232z"/>
		<path fill-rule="evenodd" clip-rule="evenodd" d="M161.451,274.656c0.909-1.835,1.437-2.9,2.237-4.515
			c0.981,0.752,2.024,1.253,2.546,2.081c0.249,0.396-0.322,1.875-0.818,2.058C164.353,274.672,163.097,274.54,161.451,274.656z"/>
		<path fill-rule="evenodd" clip-rule="evenodd" d="M312.06,270.691c0,1.339,0,2.536,0,3.711c-3.818,0.669-3.852,0.631-3.338-3.652
			c0.428-0.095,0.898-0.278,1.373-0.284C310.692,270.459,311.292,270.596,312.06,270.691z"/>
		<path fill-rule="evenodd" clip-rule="evenodd" d="M354.26,16.06c-0.136,1.479-0.271,2.958-0.406,4.438
			c-1.15-0.232-2.3-0.465-3.993-0.806c1.348-1.75,2.184-2.834,3.019-3.918C353.34,15.869,353.8,15.965,354.26,16.06z"/>
		<path fill-rule="evenodd" clip-rule="evenodd" d="M310.569,253.637c-1.127-1.427-2.244-2.252-2.128-2.834
			c0.17-0.862,1.214-1.553,1.886-2.316c0.646,0.667,1.689,1.264,1.825,2.023C312.276,251.2,311.416,252.067,310.569,253.637z"/>
		<path fill-rule="evenodd" clip-rule="evenodd" d="M322.246,235.021c1.444,0.261,2.889,0.521,4.333,0.782
			c-0.286,0.883-0.573,1.765-0.859,2.647c-1.326-0.596-2.652-1.191-3.978-1.787C321.911,236.116,322.079,235.568,322.246,235.021z"
			/>
		<path fill-rule="evenodd" clip-rule="evenodd" d="M679.488,76.861c0.435,0.966,1.423,2.141,1.158,2.844
			c-0.313,0.835-1.654,1.416-2.667,1.761c-0.234,0.081-1.304-1.221-1.333-1.914c-0.026-0.634,0.834-1.305,1.303-1.96
			C678.462,77.349,678.976,77.105,679.488,76.861z"/>
		<path fill-rule="evenodd" clip-rule="evenodd" d="M161.782,264.273c1.443,0.084,2.894,0.118,4.316,0.336
			c0.13,0.02,0.151,1.771,0.107,1.776c-1.477,0.18-2.969,0.246-4.458,0.328C161.759,265.901,161.771,265.087,161.782,264.273z"/>
		<path fill-rule="evenodd" clip-rule="evenodd" d="M326.181,19.845c-1.364,0-2.728,0-4.091,0c0.139-1.188,0.278-2.375,0.478-4.074
			c1.65,1.242,2.667,2.006,3.685,2.771C326.228,18.976,326.204,19.411,326.181,19.845z"/>
		<path fill-rule="evenodd" clip-rule="evenodd" d="M375.653,15.877c0.101,1.3,0.201,2.6,0.302,3.899c-1.138,0-2.276,0-4.347,0
			c1.413-1.967,2.188-3.046,2.964-4.125C374.933,15.727,375.293,15.802,375.653,15.877z"/>
		<path fill-rule="evenodd" clip-rule="evenodd" d="M328.731,18.52c0.956-0.693,1.913-1.387,3.001-2.178
			c0.504,0.675,1.132,1.516,2.408,3.224c-2.205,0-3.664,0-5.124,0C328.922,19.217,328.826,18.868,328.731,18.52z"/>
		<path fill-rule="evenodd" clip-rule="evenodd" d="M163.192,297.342c0-1.317,0-2.635,0-4.903c1.413,1.12,3.01,1.965,2.904,2.384
			c-0.268,1.073-1.293,1.958-2.016,2.918C163.784,297.607,163.488,297.475,163.192,297.342z"/>
		<path fill-rule="evenodd" clip-rule="evenodd" fill="#FFFFFF" d="M145.452,147.897c0.917-0.296,1.835-0.592,2.706-0.873
			c-0.434-3.106-0.826-5.924-1.22-8.743c-0.142,0.018-0.284,0.037-0.426,0.054c0-0.954,0.164-1.945-0.044-2.851
			c-0.227-0.984-0.798-1.889-1.449-3.338c2.167,0.191,3.484,0.307,4.803,0.423c0.09-0.302,0.181-0.605,0.271-0.907
			c-1.68-0.894-3.361-1.787-4.758-2.53c0.4-1.69,0.754-3.188,1.228-5.189c1.272,0.87,2.891,1.977,4.444,3.039
			c0.619-1.952,0.973-3.413,1.548-4.78c0.55-1.309,1.33-2.521,2.516-4.713c-2.864,1.638-4.638,2.652-5.854,3.348
			c-2.146-3.201-3.877-5.782-6.002-8.951c1.293-1.047,2.861-2.318,5.275-4.272c0.411-1.805,1.274-4.909-2.844-6.73
			c1.734-1.987,3.344-3.718,0.489-5.977c-0.829-0.655-0.542-2.719-0.741-3.987c2.479-1.795,7.521,0.072,6.343-5.132
			c-0.176-0.779-2.206-1.138-3.414-1.333c-4.49-3.503-2.931-6.916,1.568-10.336c-1.217-0.798-1.967-1.229-2.646-1.751
			c-0.645-0.495-1.216-1.085-2.044-1.837c1.904-0.588,3.46-1.068,5.46-1.685c-0.819-1.004-1.301-1.597-1.948-2.391
			c1.433-1.298,3.937-2.591,0.709-4.629c-0.321-0.202-0.089-1.297-0.095-1.978c-0.009-1.035-0.003-2.069-0.003-3.47
			c0.52-0.1,1.541-0.295,3.22-0.617c-0.868-1.037-1.62-1.738-2.126-2.585c-0.909-1.52-2.79-3.746-2.317-4.601
			c3.713-6.721,7.782-13.257,12.042-19.651c0.592-0.888,3.433-1.439,4.182-0.838c2.141,1.721,3.965,3.967,5.482,6.289
			c1.231,1.886,1.838,4.181,2.992,6.937c0.337,0.143,1.474,0.624,2.769,1.173c-0.105,1.933-0.208,3.85-0.375,6.919
			c1.167-1.562,1.677-2.244,2.238-2.996c2.771,3.582,5.509,6.925,8.02,10.433c1.817,2.541,3.23,5.367,5.001,7.945
			c4.1,5.966,8.309,11.858,12.466,17.786c0.21,0.299,0.295,0.693,0.523,0.973c4.184,5.131,4.269,7.775-1.597,10.963
			c-5.332,2.899-10.297,7.467-16.985,7.043c-5.585-0.354-11.513,0.715-16.5-2.884c-1.432-1.034-2.498-2.574-3.888-4.048
			c0.771-0.721,1.82-1.363,2.337-2.299c0.365-0.662,0.327-1.95-0.104-2.547c-0.555-0.773-1.765-1.689-2.544-1.57
			c-2.284,0.348-4.494,1.179-7.485,2.036c2.254,1.663,4.025,2.969,6.008,4.432c-2.477,0.43-5,0.868-7.523,1.305
			c-0.032,0.311-0.064,0.623-0.095,0.934c3.127,1.026,2.701,6.659,7.001,5.353c-0.745,1.201-1.911,2.481-2.274,3.959
			c-0.148,0.604,1.441,1.635,2.865,3.125c-0.136,0.044-1.071,0.083-1.223,0.448c-0.507,1.217-0.735,2.552-1.069,3.842
			c1.808,0.149,3.639,0.491,5.404,0.281c0.337-0.04,0.488-2.253,0.594-3.475c0.188-2.151,0.275-4.313,0.474-7.643
			c2.455,1.158,4.448,1.79,6.079,2.937c2.71,1.907,11.598,2.942,14.476,1.516c3.035-1.504,6.249-2.669,9.198-4.316
			c3.221-1.797,6.213-4.001,9.334-5.98c1.611-1.022,3.288-1.941,5.638-3.32c2.426,4.384,4.75,8.645,7.148,12.864
			c0.467,0.821,1.286,1.434,1.83,2.219c4.575,6.598,9.115,13.22,13.684,19.822c4.612,6.665,9.213,13.338,13.881,19.963
			c2.607,3.7,6.447,6.961,7.741,11.05c1.662,5.254,6.241,8.056,8.356,12.869c2.067,4.705,5.893,8.636,8.921,12.924
			c0.689,0.978,1.232,2.057,1.907,3.045c4.847,7.104,9.821,14.124,14.529,21.318c3.027,4.628,5.669,9.508,8.485,14.274
			c-0.148,0.361-0.297,0.722-0.445,1.082c-4.264-1.132-8.529-2.26-12.79-3.402c-0.589-0.158-1.148-0.505-1.743-0.566
			c-10.463-1.094-21.017-1.647-31.361-3.427c-5.631-0.968-11.184,0.082-16.69-0.925c-2.653-0.485-5.269-1.253-7.94-1.535
			c-1.185-0.126-2.463,0.637-3.567,0.086c-2.32-0.283-4.644-0.546-6.962-0.854c-3.459-0.46-6.915-0.949-10.372-1.431
			c-0.729-0.101-1.457-0.307-2.188-0.313c-15.825-0.119-31.649-0.221-47.475-0.317c-3.327-0.021-6.654-0.003-9.812-0.003
			c0.632-1.901,1.129-3.397,1.818-5.472c0.488,0,1.673,0,2.9,0c-0.165,1.624-0.288,2.839-0.434,4.271
			c3.741-2.138,7.188-3.733,10.156-5.964c1.448-1.088,2.003-3.362,2.966-5.097c1.536,0.425,3.083,1.22,4.594,1.152
			c1.248-0.055,2.484-1.077,3.624-1.825c0.124-0.082-0.242-1.477-0.698-1.776c-2.199-1.439-6.392,0.065-7.427,2.549
			c-1.585-0.558-3.169-1.115-5.173-1.819c0.787-1.212,1.47-2.452,2.404-3.462c0.116-0.127,1.557,0.971,2.446,1.54
			c3-3.201,3-3.201,3.194-7.058c1.14-0.863,2.141-1.622,3.142-2.379c-0.873-0.631-1.749-1.258-2.618-1.895
			c-0.198-0.146-0.39-0.307-0.556-0.485c-0.72-0.779-1.431-1.567-1.861-2.041c0.761-1.336,1.982-2.494,1.962-3.631
			c-0.061-3.51-0.612-7.01-0.928-10.518c-0.047-0.527,0.226-1.078,0.226-1.617c-0.004-2.615-0.057-5.229-0.079-7.844
			c-0.013-1.697-0.002-3.395-0.002-5.628c0.543-0.029,1.577-0.045,2.601-0.149c0.924-0.095,2.217,0.026,2.66-0.513
			c0.586-0.714,0.502-1.977,0.706-3.005c-0.899,0.205-1.822,0.344-2.693,0.633c-0.806,0.269-1.559,0.698-2.335,1.057
			c-0.056-0.798-0.06-1.605-0.179-2.394c-0.179-1.186-0.437-2.358-0.525-2.823c-1.954,0-3.268-0.101-4.558,0.031
			c-1.066,0.108-2.153,0.37-3.144,0.775c-1.986,0.813-3.912,1.77-5.864,2.667c-2.269,0.029-2.56,0.625-1.806,3.189
			c0.132,0.451-0.32,1.075-0.503,1.619l0.107,0.083c-1.759-2.252-3.519-4.504-5.278-6.756L145.452,147.897z M164.615,44.07
			c-1.848,1.398-3.696,2.796-5.983,4.527c5.402,2.577,5.834,2.432,9.812-2.528c-1.336-0.654-2.633-1.29-3.929-1.925
			c0.467-1.792,0.935-3.584,1.458-5.591c-0.384-0.329-1.154-0.986-2.09-1.786c0.959-1.005,1.686-1.766,2.442-2.557
			c-0.457-0.863-0.856-1.625-1.262-2.385c-0.366-0.688-0.739-1.373-1.133-2.105c-4.67,3.537-4.842,4.926-1.139,7.172
			c-2.92,2.091-3.042,3.841-0.369,5.811C163.114,43.214,163.892,43.611,164.615,44.07z M164.326,71.987
			c-2.121,0.834-4.241,1.668-5.963,2.345c1.007,1.25,1.776,2.785,3.018,3.614c1.956,1.307,2.815,2.065,0.127,3.504
			c-0.659,0.352-1.202,2.019-0.915,2.719c0.266,0.649,1.861,1.311,2.607,1.087c1.356-0.408,2.516-1.468,3.97-2.391
			c-2.424-1.947-4.865-3.254-0.853-5.353c0.647-0.338,0.034-3.25-0.206-4.942c-0.034-0.246-1.24-0.327-1.903-0.484
			c0.794-1.281,1.589-2.563,1.806-2.912c-0.29-2.207-0.93-3.697-0.514-4.784c0.527-1.376,1.913-2.424,2.903-3.585
			c-0.957-1.134-1.787-2.119-2.291-2.717c-8.186,0.173-4.886,6.266-5.477,10.062C160.47,69.211,163.021,70.697,164.326,71.987z
			 M180.63,141.066c0.237,0.426,1.18,1.563,1.528,2.86c0.854,3.182,1.25,6.492,2.167,9.652c1.42,4.9,5.377,7.473,10.99,7.506
			c3.16,0.019,9.404-4.313,10.042-7.829c1.941-10.692,3.282-21.431-6.596-29.541c-1.686-1.384-3.143-2.466-5.777-1.052
			c-4.58,2.46-7.048,6.683-10.083,10.458c-0.442,0.55-0.024,1.716-0.27,2.515C182.107,137.341,181.408,138.991,180.63,141.066z
			 M164.354,145.489c0.867-2.051,2.369-3.937,2.141-5.581c-0.19-1.373-0.889-2.227,0.225-3.657c0.895-1.148,1.037-2.884,1.378-3.938
			c-1.712-0.467-3.381-0.923-5.052-1.378c4.173-2.512,4.314-3.137,1.409-6.792c1.568-1.956,3.165-3.947,4.718-5.884
			c-6.152-1.502-11.68,1.853-11.34,6.483c1.466-0.443,3.039-0.918,4.61-1.394c0.092,0.338,0.183,0.678,0.276,1.016
			c-2.6,3.916-5.2,7.831-7.8,11.746c3.215-0.933,5.914-1.089,7.795,2.021C159.648,140.628,159.648,140.628,164.354,145.489z
			 M172.494,164.048c-0.406-0.258-0.812-0.516-1.217-0.773c-0.814,1.502-2.343,3.022-2.305,4.501
			c0.105,3.973,0.84,7.935,1.439,11.884c0.081,0.529,0.815,0.96,1.247,1.436c0.339-0.443,0.975-0.891,0.971-1.332
			c-0.036-3.774,1.479-7.819-1.911-11.08c-0.333-0.321,0.076-1.598,0.373-2.339C171.419,165.524,172.015,164.809,172.494,164.048z
			 M166.791,56.078c0.208-0.376,0.414-0.754,0.621-1.131c-0.816-0.982-1.528-2.639-2.474-2.787
			c-1.345-0.209-2.955,0.524-4.245,1.229c-0.34,0.186,0.002,2.553,0.157,2.568C162.817,56.141,164.807,56.078,166.791,56.078z
			 M152.963,144.459c1.444-1.086,2.594-1.771,3.482-2.707c0.359-0.38,0.146-1.304,0.193-1.981c-0.553-0.034-1.183-0.252-1.646-0.064
			c-1.18,0.478-2.285,1.137-3.957,2C151.592,142.503,152.387,143.638,152.963,144.459z"/>
		<path fill-rule="evenodd" clip-rule="evenodd" fill="#FFFFFF" d="M175.333,226.013c0,2.902,0,5.807,0,9.576
			c1.006-1.686,1.637-2.743,2.33-3.905c1.012,2.124,1.964,4.125,3.491,7.332c-2.327-0.699-3.808-1.145-5.559-1.671
			c-0.988,3.219-2.577,1.506-4.182-1.152c-0.24,0.309-0.48,0.618-0.72,0.927c1.058,2.228,2.116,4.456,3.332,7.017
			c-1.231,1.171-2.532,3.164-4.348,3.92c-1.782,0.74-4.086,0.217-6.161,0.256c-5.663,0.108-11.375-0.209-16.979,0.426
			c-10.701,1.212-21.327-0.191-31.985-0.247c-8.357-0.044-16.718-0.186-25.068-0.503c-8.48-0.322-16.96-0.775-25.419-1.438
			c-5.892-0.461-11.854-0.903-17.595-2.196c-7.813-1.758-15.932-2.834-22.916-7.24c-0.953-0.602-2.307-2.198-2.078-2.722
			c0.58-1.322,1.786-2.981,3.042-3.293c6.456-1.602,12.955-3.214,19.536-4.086c11.434-1.515,23.144-1.547,34.353-3.979
			c9.581-2.077,19.063-1.091,28.545-1.992c4.883-0.464,9.733-1.32,14.622-1.643c1.8-0.119,3.648,0.959,5.51,1.173
			c1.493,0.171,3.04-0.141,4.519-0.73c5.398,0,10.796,0,16.576,0c-0.644,1.274-1.322,2.613-1.999,3.952
			c0.27,0.249,0.538,0.498,0.808,0.747c0.899-1.032,1.799-2.064,2.875-3.301c0.637,0.773,1.283,1.555,2.009,2.434
			c0.638-0.716,1.189-1.334,1.768-1.983c2.101,3.102,3.764,7.377,7.937,2.229c1.641,0.25,3.283,0.5,4.925,0.75
			c-0.057,0.655,0.063,1.799-0.197,1.893c-4.044,1.463-0.477,2.417-0.203,2.831c-0.896,2.203-1.564,3.846-2.487,6.112
			c-0.573-1.831-0.942-3.016-1.313-4.198c-0.274-0.025-0.548-0.051-0.822-0.077c-0.595,2.262-1.19,4.522-1.822,6.922
			c1.965,1.151,5.905,1.857,1.296,4.629c-0.321,0.192-0.357,1.59-0.274,1.615c1.472,0.455,3.004,1.104,4.477,1.009
			c0.743-0.048,2.099-1.63,1.971-2.282c-0.687-3.505,2.005-6.907,0.205-10.398c-0.14-0.271,0.277-0.83,0.437-1.255
			c0.488-0.397,0.976-0.794,1.463-1.191c0.706,1.814,1.41,3.629,2.115,5.442c0.562-0.464,1.125-0.929,1.686-1.394
			c-0.74-1.505-1.48-3.009-2.203-4.48C172.289,228.604,173.811,227.309,175.333,226.013z"/>
		<path fill-rule="evenodd" clip-rule="evenodd" d="M175.333,226.013c-1.522,1.296-3.044,2.592-4.503,3.834
			c0.723,1.472,1.463,2.976,2.203,4.48c-0.562,0.465-1.124,0.93-1.686,1.394c-0.705-1.813-1.409-3.628-2.115-5.442
			c-0.487,0.397-0.975,0.794-1.463,1.191c-0.159,0.425-0.577,0.983-0.437,1.255c1.8,3.491-0.892,6.894-0.205,10.398
			c0.127,0.652-1.229,2.234-1.971,2.282c-1.473,0.095-3.005-0.554-4.477-1.009c-0.083-0.025-0.047-1.423,0.274-1.615
			c4.608-2.771,0.669-3.478-1.296-4.629c0.631-2.399,1.227-4.66,1.822-6.922c0.274,0.026,0.548,0.052,0.822,0.077
			c0.37,1.183,0.74,2.367,1.313,4.198c0.922-2.267,1.591-3.909,2.487-6.112c-0.274-0.414-3.842-1.368,0.203-2.831
			c0.26-0.094,0.14-1.237,0.197-1.893c2.154-1.123,4.307-2.245,6.461-3.367C173.752,222.873,174.543,224.442,175.333,226.013z"/>
		<path fill-rule="evenodd" clip-rule="evenodd" fill="#FFFFFF" d="M153.505,151.457c1.215-0.212,2.516-0.226,3.617-0.7
			c0.875-0.378,1.508-1.318,2.357-2.11c2.784,5.687,2.015,11.074-1.892,13.843c-0.178-0.85-0.333-1.589-0.323-1.544
			c-3.91-0.632-7.422-1.2-12.021-1.944c2.527-2.014,4.053-3.23,5.58-4.447c0,0-0.106-0.083-0.106-0.083
			c0.215,0.874,0.43,1.748,0.716,2.912c1.004-1.08,1.672-1.8,2.632-2.833c0.592,1.271,1.04,2.23,1.487,3.192
			c0.53-0.419,1.06-0.838,1.588-1.257C155.93,154.81,154.718,153.133,153.505,151.457z"/>
		<path fill-rule="evenodd" clip-rule="evenodd" fill="#FFFFFF" d="M172.961,221.303c-2.154,1.122-4.307,2.244-6.461,3.367
			c-1.642-0.25-3.284-0.5-4.925-0.75c-4.332,1.887-3.878-3.502-6.872-3.649c0.176-0.347,0.352-0.692,0.529-1.038
			c0.697,0.22,1.382,0.571,2.092,0.629c1.107,0.089,2.231-0.051,3.346-0.041c2.01,0.016,4.341-0.563,5.958,0.253
			c2.739,1.384,2.627,1.753,5.354-0.657C172.329,220.082,172.645,220.692,172.961,221.303z"/>
		<path fill-rule="evenodd" clip-rule="evenodd" fill="#FFFFFF" d="M160.237,165.033c-0.365,0.714-0.965,1.885-1.651,3.225
			c0.567,0.638,1.25,1.405,1.934,2.174c-0.144,0.38-0.289,0.759-0.433,1.14c-1.488-0.418-2.975-0.835-5.247-1.472
			c0.064-0.026-0.863,0.354-1.36,0.559c-0.277-1.796-0.59-3.332-0.718-4.882c-0.055-0.672,0.162-1.91,0.447-1.97
			c1.021-0.211,2.144-0.149,3.188,0.039C157.517,164.047,158.591,164.508,160.237,165.033z"/>
		<path fill-rule="evenodd" clip-rule="evenodd" fill="#FFFFFF" d="M153.173,186.776c0-2.454,0-4.91,0-7.773
			c2.412,1.875,4.569,3.55,6.725,5.224c-0.042,0.25-0.085,0.499-0.128,0.748c-1.369-0.374-2.737-0.748-4.491-1.229
			c-0.293,0.85-0.655,1.899-1.017,2.947C153.899,186.721,153.536,186.749,153.173,186.776z"/>
		<path fill-rule="evenodd" clip-rule="evenodd" fill="#FFFFFF" d="M144.834,63.565c-2.784,0.151-4.892,0.265-8.171,0.443
			c2.712-2.516,4.893-4.539,7.075-6.562c0.372,0.252,0.744,0.504,1.115,0.756C143.129,60.1,141.441,61.997,144.834,63.565z"/>
		<path fill-rule="evenodd" clip-rule="evenodd" d="M153.505,151.457c1.212,1.676,2.424,3.353,3.636,5.029
			c-0.529,0.419-1.059,0.838-1.588,1.257c-0.447-0.961-0.896-1.921-1.487-3.192c-0.96,1.033-1.628,1.752-2.632,2.833
			c-0.286-1.165-0.501-2.039-0.716-2.912c0.183-0.544,0.636-1.168,0.503-1.619c-0.754-2.564-0.463-3.161,1.806-3.189
			C153.186,150.261,153.346,150.859,153.505,151.457z"/>
		<path fill-rule="evenodd" clip-rule="evenodd" fill="#FFFFFF" d="M142.976,161.051c3.111,1.554,5.357,2.676,7.604,3.799
			c-0.096,0.292-0.19,0.585-0.285,0.877c-2.192,0.11-4.558,0.733-6.492,0.079C143.023,165.543,143.188,162.484,142.976,161.051z"/>
		<path fill-rule="evenodd" clip-rule="evenodd" fill="#FFFFFF" d="M139.704,114.958c1.248,1.483,2.496,2.967,4.398,5.228
			c-0.873,0.649-2.524,1.878-5.127,3.815c0.412-3.764,0.705-6.455,0.998-9.144C139.971,114.859,139.704,114.958,139.704,114.958z"/>
		<path fill-rule="evenodd" clip-rule="evenodd" fill="#FFFFFF" d="M135.351,122.379c-1.086,1.03-2.173,2.061-4.066,3.855
			c-0.52-2.116-0.931-3.794-1.343-5.472c1.834,0.088,3.668,0.176,5.502,0.265C135.414,121.478,135.382,121.929,135.351,122.379z"/>
		<path fill-rule="evenodd" clip-rule="evenodd" fill="#FFFFFF" d="M136.517,103.178c2.741-0.615,5.48-1.229,8.22-1.843
			c-0.101,0.135-0.203,0.271-0.305,0.405c-1.504,0.372-3.01,0.745-4.515,1.117c1.093,1.302-0.006-1.406-1.583,2.158
			c-0.125,0.28-1.302,0.094-1.99,0.124c0.099-0.731,0.196-1.463,0.293-2.194C136.636,102.945,136.517,103.178,136.517,103.178z"/>
		<path fill-rule="evenodd" clip-rule="evenodd" fill="#FFFFFF" d="M155.699,192.198c0.365-0.798,0.73-1.596,1.396-3.052
			c-1.674,0.623-2.727,1.016-3.781,1.407c-0.216-0.266-0.432-0.531-0.648-0.797c1.179-0.682,2.356-1.364,3.779-2.188
			c0.967,0.502,2.543,1.32,4.725,2.452c-1.831,0.998-3.329,1.815-4.828,2.633C156.128,192.502,155.914,192.35,155.699,192.198z"/>
		<path fill-rule="evenodd" clip-rule="evenodd" fill="#FFFFFF" d="M135.888,91.123c0.69-1.523,1.025-2.627,1.651-3.531
			c0.546-0.79,1.368-1.432,2.185-1.956c0.173-0.11,1.276,0.66,1.232,0.877c-0.226,1.104-0.396,2.493-1.142,3.144
			C138.917,90.44,137.459,90.58,135.888,91.123z"/>
		<path fill-rule="evenodd" clip-rule="evenodd" fill="#FFFFFF" d="M139.704,114.958c0,0,0.267-0.099,0.268-0.101
			c-3.174,1.748-4.795-0.416-7.272-3.041c3.102,0.172,5.637,3.389,7.543-1.303c0.296,0.518,0.593,1.037,0.889,1.555
			C140.656,113.031,140.18,113.995,139.704,114.958z"/>
		<path fill-rule="evenodd" clip-rule="evenodd" fill="#FFFFFF" d="M133.758,73.513c3.867-3.621,3.867-3.621,7.114,0
			C137.934,73.513,135.847,73.513,133.758,73.513z"/>
		<path fill-rule="evenodd" clip-rule="evenodd" fill="#FFFFFF" d="M142.126,158.972c-1.012-0.934-2.011-1.856-3.011-2.778
			c0.02-0.34,0.039-0.682,0.059-1.023c1.929-0.134,3.857-0.268,5.786-0.402c0.114,0.426,0.229,0.853,0.344,1.28
			C144.251,157.017,143.199,157.985,142.126,158.972z"/>
		<path fill-rule="evenodd" clip-rule="evenodd" fill="#FFFFFF" d="M136.517,103.178c0,0,0.119-0.232,0.121-0.232
			c-1.029,0.291-2.057,0.583-3.366,0.954c0.633,1.219,1.132,2.179,1.631,3.138c-0.212,0.219-0.424,0.438-0.637,0.657
			c-1.146-0.987-2.329-1.939-3.389-3.012c-0.114-0.115,0.363-1.193,0.769-1.378C133.215,102.588,134.851,101.005,136.517,103.178z"
			/>
		<path fill-rule="evenodd" clip-rule="evenodd" fill="#FFFFFF" d="M145.546,147.798c-2.151-0.122-4.302-0.243-6.453-0.365
			c0.025-0.35,0.052-0.7,0.078-1.051c3.795-1.881,5.383-1.5,6.281,1.514C145.452,147.897,145.546,147.798,145.546,147.798z"/>
		<path fill-rule="evenodd" clip-rule="evenodd" fill="#FFFFFF" d="M130.526,76.877c-1.284,1.464-2.519,2.976-3.896,4.346
			c-0.237,0.236-1.071-0.127-1.629-0.214c0.095-0.561-0.013-1.366,0.318-1.642c1.389-1.156,2.91-2.154,4.381-3.209
			C129.976,76.398,130.251,76.637,130.526,76.877z"/>
		<path fill-rule="evenodd" clip-rule="evenodd" fill="#FFFFFF" d="M569.04,231.037c0.493,4.912-2.921,6.715-9.718,5.133
			C558.139,231.913,563.644,229.653,569.04,231.037z"/>
		<path fill-rule="evenodd" clip-rule="evenodd" fill="#FFFFFF" d="M475.362,224.523c-5.344-0.187-5.447-0.378-3.857-5.559
			c0.36-1.175,0.083-2.606,0.621-3.651c0.698-1.36,1.852-3.38,2.928-3.456c1.9-0.137,4.33,0.409,4.245,3.456
			c-0.03,1.102,0.067,2.292,0.458,3.306C481.653,223.541,480.816,224.714,475.362,224.523z"/>
		<path fill-rule="evenodd" clip-rule="evenodd" fill="#FFFFFF" d="M481.125,230.004c-0.658,2.254-0.999,4.384-1.918,6.226
			c-0.594,1.186-1.992,2.643-3.11,2.713c-1.221,0.076-3.155-1.013-3.673-2.113c-1.016-2.161-1.585-4.672-1.662-7.06
			c-0.028-0.867,1.8-2.438,2.915-2.572C476.525,226.856,479.8,226.212,481.125,230.004z"/>
		<path fill-rule="evenodd" clip-rule="evenodd" d="M180.63,141.066c0.778-2.075,1.477-3.725,2.001-5.43
			c0.246-0.798-0.173-1.964,0.27-2.515c3.034-3.775,5.503-7.998,10.083-10.458c2.634-1.415,4.091-0.332,5.777,1.052
			c9.878,8.11,8.538,18.849,6.596,29.541c-0.638,3.516-6.882,7.847-10.042,7.829c-5.612-0.034-9.569-2.606-10.99-7.506
			c-0.917-3.161-1.313-6.47-2.167-9.652C181.81,142.629,180.868,141.492,180.63,141.066z M188.448,138.753
			c1.979,0.173,3.554,0.362,5.136,0.443c6.747,0.344,6.748,0.333,5.543-6.289c-0.044-0.244-0.11-0.499-0.081-0.738
			c0.329-2.709-1.244-4.765-3.496-4.661c-1.684,0.078-3.796,1.938-4.769,3.569C189.556,133.136,189.296,135.769,188.448,138.753z
			 M191.525,154.477c5.51,2.112,8.212,0.422,8.439-5.717c0.078-2.132-0.136-5.328-2.592-4.828c-2.363,0.482-6.084-0.466-7.233,3.237
			c-0.127,0.408-0.353,0.874-0.262,1.247C190.327,150.27,190.868,152.102,191.525,154.477z"/>
		<path fill-rule="evenodd" clip-rule="evenodd" d="M164.354,145.489c-4.706-4.861-4.706-4.861-1.64-7.357
			c-1.882-3.111-4.58-2.954-7.795-2.021c2.6-3.916,5.2-7.831,7.8-11.746c-0.093-0.338-0.184-0.678-0.276-1.016
			c-1.572,0.476-3.145,0.95-4.61,1.394c-0.339-4.63,5.188-7.985,11.34-6.483c-1.553,1.938-3.149,3.928-4.718,5.884
			c2.905,3.655,2.764,4.28-1.409,6.792c1.67,0.456,3.34,0.911,5.052,1.378c-0.341,1.054-0.483,2.789-1.378,3.938
			c-1.114,1.43-0.416,2.284-0.225,3.657C166.723,141.552,165.221,143.438,164.354,145.489z"/>
		<path fill-rule="evenodd" clip-rule="evenodd" d="M164.326,71.987c-1.305-1.291-3.856-2.776-3.69-3.838
			c0.591-3.796-2.709-9.888,5.477-10.062c0.504,0.598,1.334,1.583,2.291,2.717c-0.99,1.161-2.375,2.208-2.903,3.585
			c-0.416,1.086,0.225,2.577,0.514,4.784c-0.217,0.349-1.012,1.63-1.806,2.912L164.326,71.987z"/>
		<path fill-rule="evenodd" clip-rule="evenodd" d="M164.208,72.085c0.663,0.158,1.869,0.238,1.903,0.484
			c0.239,1.693,0.853,4.604,0.206,4.942c-4.012,2.099-1.571,3.406,0.853,5.353c-1.455,0.923-2.614,1.983-3.97,2.391
			c-0.746,0.224-2.341-0.438-2.607-1.087c-0.287-0.701,0.256-2.367,0.915-2.719c2.688-1.439,1.828-2.198-0.127-3.504
			c-1.242-0.829-2.011-2.364-3.018-3.614c1.722-0.677,3.842-1.511,5.963-2.345L164.208,72.085z"/>
		<path fill-rule="evenodd" clip-rule="evenodd" d="M164.631,44.06c-0.739-0.449-1.517-0.846-2.211-1.357
			c-2.673-1.97-2.551-3.72,0.369-5.811c-3.703-2.246-3.531-3.635,1.139-7.172c0.394,0.732,0.767,1.417,1.133,2.105
			c0.406,0.76,0.806,1.522,1.262,2.385c-0.756,0.792-1.483,1.552-2.442,2.557c0.936,0.8,1.706,1.457,2.09,1.786
			c-0.523,2.007-0.99,3.8-1.458,5.591L164.631,44.06z"/>
		<path fill-rule="evenodd" clip-rule="evenodd" d="M172.494,164.048c-0.479,0.761-1.075,1.476-1.404,2.297
			c-0.296,0.741-0.706,2.018-0.373,2.339c3.39,3.26,1.875,7.305,1.911,11.08c0.004,0.441-0.631,0.889-0.971,1.332
			c-0.432-0.476-1.166-0.906-1.247-1.436c-0.599-3.949-1.333-7.911-1.439-11.884c-0.039-1.479,1.49-3,2.305-4.501
			C171.683,163.532,172.088,163.79,172.494,164.048z"/>
		<path fill-rule="evenodd" clip-rule="evenodd" d="M164.515,44.144c1.296,0.636,2.593,1.271,3.929,1.925
			c-3.978,4.96-4.41,5.105-9.812,2.528c2.287-1.731,4.135-3.129,5.991-4.533C164.631,44.06,164.515,44.144,164.515,44.144z"/>
		<path fill-rule="evenodd" clip-rule="evenodd" d="M166.791,56.078c-1.983,0-3.974,0.063-5.941-0.121
			c-0.155-0.015-0.497-2.382-0.157-2.568c1.291-0.705,2.9-1.438,4.245-1.229c0.946,0.148,1.658,1.804,2.474,2.787
			C167.205,55.324,166.998,55.701,166.791,56.078z"/>
		<path fill-rule="evenodd" clip-rule="evenodd" d="M164.199,200.221c1.035-2.483,5.228-3.988,7.427-2.549
			c0.457,0.3,0.822,1.694,0.698,1.776c-1.14,0.748-2.376,1.771-3.624,1.825c-1.51,0.067-3.058-0.728-4.594-1.152
			C164.103,200.117,164.199,200.221,164.199,200.221z"/>
		<path fill-rule="evenodd" clip-rule="evenodd" d="M152.963,144.459c-0.576-0.822-1.371-1.957-1.927-2.751
			c1.672-0.863,2.777-1.522,3.957-2c0.463-0.188,1.093,0.031,1.646,0.064c-0.047,0.677,0.166,1.601-0.193,1.981
			C155.557,142.688,154.407,143.373,152.963,144.459z"/>
		<path fill-rule="evenodd" clip-rule="evenodd" fill="#FFFFFF" d="M188.448,138.753c0.848-2.984,1.108-5.618,2.334-7.676
			c0.972-1.631,3.084-3.491,4.769-3.569c2.251-0.104,3.825,1.952,3.496,4.661c-0.029,0.239,0.036,0.494,0.081,0.738
			c1.205,6.622,1.204,6.633-5.543,6.289C192.002,139.115,190.427,138.927,188.448,138.753z"/>
		<path fill-rule="evenodd" clip-rule="evenodd" fill="#FFFFFF" d="M191.525,154.477c-0.657-2.375-1.198-4.207-1.648-6.061
			c-0.091-0.374,0.135-0.839,0.262-1.247c1.148-3.703,4.87-2.755,7.233-3.237c2.456-0.5,2.67,2.696,2.592,4.828
			C199.737,154.899,197.035,156.589,191.525,154.477z"/>
	</g>
</g>
</svg>
