<?xml version="1.0" encoding="utf-8"?>
<!-- Generator: Adobe Illustrator 16.0.0, SVG Export Plug-In . SVG Version: 6.00 Build 0)  -->
<!DOCTYPE svg PUBLIC "-//W3C//DTD SVG 1.1//EN" "http://www.w3.org/Graphics/SVG/1.1/DTD/svg11.dtd">
<svg version="1.1" id="Layer_1" xmlns="http://www.w3.org/2000/svg" xmlns:xlink="http://www.w3.org/1999/xlink" x="0px" y="0px"
	 width="752.355px" height="500.32px" viewBox="0 0 752.355 500.32" enable-background="new 0 0 752.355 500.32"
	 xml:space="preserve">
<g>
	<g>
		<path fill-rule="evenodd" clip-rule="evenodd" fill="#FFFFFF" d="M753.105,501.07c-250.785,0-501.57,0-752.355,0
			c0-166.773,0-333.546,0-500.319C251.535,0.75,502.319,0.75,753.104,0.75C753.104,167.523,753.104,334.297,753.105,501.07z
			 M362.463,469.743l-0.093-0.099c-0.187,0.682-0.154,1.708-0.596,1.992c-3.771,2.424-6.371,4.757-3.459,9.921
			c1.385,2.457,3.031,3.584,5.217,3.695c5.542,0.278,11.107,0.092,16.526,0.092c0-6.942,0.28-13.652-0.113-20.324
			c-0.21-3.546-2.517-5.731-6.581-5.381c-2.354,0.204-4.767,0.172-7.113-0.106c-3.81-0.45-5.587,2.53-7.284,4.724
			c-1.951,2.521,1.908,2.979,2.792,4.614C361.934,469.194,362.225,469.454,362.463,469.743z M721.497,240.89
			c-1.606-0.072-2.967-0.18-4.328-0.187c-16.872-0.076-33.745-0.078-50.616-0.248c-3.564-0.036-7.116-0.831-10.687-0.976
			c-2.547-0.103-5.197,0.787-7.656,0.374c-6.499-1.093-11.614-5.113-16.846-8.803c-3.312-2.336-6.571-4.768-10.036-6.858
			c-4.594-2.772-9.473-5.076-14.026-7.907c-4.45-2.767-8.561-6.073-12.973-8.906c-5.098-3.273-10.349-6.307-15.559-9.4
			c-1.542-0.915-3.27-1.539-4.746-2.539c-7.249-4.909-14.384-9.986-21.674-14.833c-5.006-3.329-10.169-6.427-15.32-9.532
			c-3.788-2.284-7.799-4.218-11.479-6.656c-5.426-3.593-10.534-7.668-15.986-11.217c-4.852-3.157-10.133-5.407-14.734-9.269
			c-4.025-3.378-9.237-5.51-13.525-8.958c-4.273-3.435-9.129-6.145-13.715-9.192c-4.299-2.857-8.483-5.901-12.894-8.573
			c-7.223-4.378-14.724-8.309-21.857-12.822c-7.449-4.712-14.564-9.952-21.902-14.847c-5.538-3.694-11.211-7.183-16.796-10.808
			c-4.722-3.065-9.361-6.258-14.118-9.266c-2.015-1.274-4.331-2.071-6.346-3.344c-4.567-2.884-8.713-6.76-13.636-8.658
			c-4.256-1.64-5.036-4.197-5.063-7.749c-0.077-10.117-0.123-20.237,0.061-30.352c0.051-2.787-0.75-4.45-4.697-5.671
			c-0.592,36.768-1.292,73.042-1.364,109.091c-8.096,0.808-15.574,1.794-23.085,2.235c-7.228,0.424-14.5,0.069-21.731,0.463
			c-5.197,0.283-10.383,1.074-15.526,1.926c-6.638,1.101-13.218,2.552-19.843,3.734c-8.046,1.436-16.116,2.744-24.17,4.131
			c-0.467,0.081-0.889,0.401-1.348,0.563c-2.759,0.981-5.488,2.065-8.292,2.891c-3.603,1.06-7.388,1.593-10.882,2.916
			c-6.404,2.425-12.682,5.19-18.956,7.946c-6.601,2.899-13.086,6.064-19.716,8.896c-3.608,1.541-6.53,4.122-9.779,5.985
			c-5.331,3.058-10.12,6.708-15.146,10.128c-6.163,4.193-11.456,9.052-16.173,14.771c-5.464,6.625-10.488,13.529-13.644,21.513
			c-2.419,6.123-4.073,12.548-6.206,19.275c-0.358,0.037-1.328,0.229-2.299,0.226c-25.247-0.062-50.493-0.099-75.739-0.249
			c-9.236-0.055-18.469-0.425-27.706-0.538c-0.989-0.013-2.042,0.649-2.938,1.204c-0.207,0.128-0.032,1.54,0.211,1.62
			c1.886,0.622,3.81,1.275,5.768,1.486c1.409,0.152,2.904-0.614,4.335-0.53c3.813,0.227,7.608,0.942,11.418,1.015
			c13.117,0.251,26.237,0.356,39.356,0.434c14.871,0.087,29.743,0.081,44.615,0.126c1.71,0.005,3.36-0.324,3.917,2.269
			c1.234,5.748,3.194,11.352,4.233,17.126c1.558,8.654,7.057,15.332,11.709,22.054c4.746,6.853,11.802,12.173,18.148,17.825
			c3.55,3.159,7.713,5.631,11.6,8.413c3.468,2.482,6.917,4.992,10.418,7.428c1.002,0.697,2.134,1.222,3.245,1.746
			c2.816,1.327,5.714,2.495,8.466,3.942c2.533,1.332,4.82,3.146,7.388,4.392c5.711,2.773,12.884,2.407,17.28,8.096
			c0.321,0.416,1.453,0.141,2.173,0.322c5.654,1.426,11.353,2.704,16.93,4.385c4.979,1.501,9.718,3.867,14.746,5.114
			c6.776,1.681,13.73,2.638,20.603,3.937c3.61,0.683,7.191,1.531,10.815,2.126c8.006,1.313,15.995,2.86,24.055,3.675
			c11.061,1.117,22.181,1.653,33.276,2.421c1.933,0.133,3.872,0.181,5.711,0.265c0,21.19,0.008,41.922-0.033,62.653
			c-0.001,0.787-0.753,1.599-0.684,2.354c0.152,1.653,0.461,3.333,1.022,4.887c0.189,0.523,1.333,0.702,2.04,1.038
			c0.627-1.382,1.775-2.755,1.8-4.147c0.196-10.99,0.198-21.985,0.223-32.979c0.024-11.199,0.005-22.398,0.005-33.748
			c1.577-0.12,2.552-0.214,3.529-0.266c9.148-0.488,18.251,0.005,27.479-1.353c11.937-1.756,24.246-0.594,36.216-3.093
			c3.388-0.706,6.838-1.112,10.215-1.855c1.537-0.339,2.918-1.458,4.455-1.715c5.834-0.974,11.787-1.375,17.535-2.69
			c5.31-1.217,11.036-0.854,15.88-4.247c1.456-1.021,3.94-0.429,5.797-1.05c5.026-1.679,9.982-3.574,14.938-5.46
			c2.476-0.942,4.894-2.041,7.327-3.092c1.167-0.505,2.281-1.14,3.468-1.586c4.1-1.542,8.392-2.684,12.287-4.627
			c4.084-2.038,7.521-5.576,11.734-7.107c6.304-2.292,10.68-7.277,16.424-10.242c1.899-0.98,3.518-2.522,5.228-3.854
			c2.763-2.151,5.67-4.159,8.186-6.573c1.829-1.756,3.132-4.062,4.658-6.131c4.39-5.95,9.38-11.382,12.321-18.443
			c2.789-6.694,5.633-13.216,5.921-20.576c0.123-3.146,1.943-4.189,4.976-4.164c16.118,0.134,32.238,0.063,48.355,0.257
			c5.315,0.064,11.144-1.368,14.516,3.632c2.062-0.934,3.556-2.205,5.039-2.193c18.718,0.147,37.437,0.401,56.149,0.828
			c3.85,0.088,7.694,0.911,11.517,1.545C719.661,247.309,722.049,245.537,721.497,240.89z M426.049,451.762
			c0,10.671-0.064,21.101,0.135,31.524c0.014,0.746,1.875,1.913,3.002,2.092c2.793,0.44,5.931-1.002,8.267,1.875
			c0.282,0.348,1.653-0.025,2.441-0.291c1.193-0.401,2.382-0.897,3.454-1.548c1.219-0.737,2.582-1.483,3.402-2.585
			c3.306-4.441,3.018-9.639,2.233-14.664c-0.709-4.542-7.785-9.111-12.211-8.33c-1.248,0.221-2.434,0.792-4.377,1.447
			c0-3.558,0-6.682,0-10.112C430.021,451.392,428.335,451.549,426.049,451.762z M519.985,87.523c-0.37,0.47-0.74,0.939-1.11,1.408
			c4.539-0.022,3.716,2.439,3.222,4.456c-0.513,2.086-1.844,4.013-2.133,6.103c-0.976,7.032-2.839,13.72-6.632,19.772
			c-1.595,2.547-0.775,3.708,2.025,3.753c4.995,0.081,9.991,0.121,14.987,0.116c5.975-0.006,8.796-3.912,7.118-10.124
			c-5.118,1.037-8.726,9.044-15.439,3.496c1.729-5.94,3.224-12.041,5.321-17.925c1.362-3.821,2.105-8.261,6.362-11.055
			C529.134,87.523,524.559,87.523,519.985,87.523z M289.337,477.96c0-8.615,0.11-16.561-0.085-24.498
			c-0.044-1.774-1.159-3.522-1.678-4.994c-5.452,1.083-4.734,4.476-4.63,7.613c0.041,1.243-0.104,2.491-0.106,3.736
			c-0.012,7.927-0.006,15.852-0.006,24.226c2.761,0,4.98-0.035,7.198,0.008c3.479,0.066,6.956,0.231,10.434,0.258
			c1.322,0.012,3.187,0.234,3.833-0.496c0.795-0.9,1.135-2.966,0.626-4.026c-0.459-0.959-2.299-1.672-3.574-1.746
			C297.513,477.817,293.655,477.96,289.337,477.96z M403.616,460.608c-3.02,1.467-2.712,4.299-2.78,7.048
			c-0.1,3.924-0.459,3.982-4.038,2.537c-1.126-0.455-2.976-0.16-4.006,0.525c-0.808,0.537-1.445,2.46-1.081,3.302
			c0.357,0.826,2.038,1.349,3.202,1.494c1.912,0.238,3.875,0.064,5.527,0.064c1.253,3.614-1.747,8.045,4.509,9.966
			c0.749-3.317,1.456-6.452,2.249-9.967c2.235,0,4.587,0.105,6.919-0.066c0.678-0.05,1.754-0.829,1.829-1.383
			c0.096-0.719-0.506-1.643-1.022-2.311c-2.022-2.614-4.572-2.447-7.189-1.168C404.222,468.105,409.428,462.186,403.616,460.608z
			 M344.084,477.854c0.004-2.436,0.501-4.56-2.443-4.568c-6.621-0.019-13.243-0.064-19.86,0.101
			c-0.859,0.021-1.69,1.226-2.534,1.881c0.813,0.862,1.607,2.45,2.443,2.474C329.025,477.937,336.367,477.854,344.084,477.854z
			 M332.042,469.601c0,0.039,0,0.078,0,0.117c3.104,0,6.221,0.149,9.308-0.086c1.005-0.076,1.935-1.157,2.899-1.778
			c-0.944-0.715-1.872-2.021-2.835-2.049c-6.328-0.177-12.666-0.146-18.996,0.005c-0.955,0.021-1.886,1.025-2.829,1.574
			c0.922,0.738,1.797,2.032,2.775,2.115C325.569,469.77,328.813,469.601,332.042,469.601z"/>
		<path fill-rule="evenodd" clip-rule="evenodd" d="M721.497,240.89c0.552,4.647-1.836,6.419-6.759,5.603
			c-3.822-0.634-7.667-1.457-11.517-1.545c-18.713-0.426-37.432-0.681-56.149-0.828c-1.483-0.012-2.978,1.259-5.039,2.193
			c-3.372-5-9.2-3.568-14.516-3.632c-16.117-0.193-32.237-0.123-48.355-0.257c-3.032-0.026-4.853,1.018-4.976,4.164
			c-0.288,7.36-3.132,13.881-5.921,20.576c-2.941,7.062-7.932,12.493-12.321,18.443c-1.526,2.069-2.829,4.375-4.658,6.131
			c-2.516,2.414-5.423,4.422-8.186,6.573c-1.71,1.331-3.328,2.873-5.228,3.854c-5.744,2.965-10.12,7.95-16.424,10.242
			c-4.213,1.531-7.65,5.069-11.734,7.107c-3.896,1.943-8.188,3.085-12.287,4.627c-1.187,0.446-2.301,1.081-3.468,1.586
			c-2.434,1.051-4.852,2.149-7.327,3.092c-4.956,1.886-9.912,3.781-14.938,5.46c-1.856,0.621-4.341,0.029-5.797,1.05
			c-4.844,3.393-10.57,3.03-15.88,4.247c-5.748,1.315-11.701,1.717-17.535,2.69c-1.537,0.257-2.918,1.376-4.455,1.715
			c-3.377,0.743-6.827,1.149-10.215,1.855c-11.97,2.499-24.279,1.337-36.216,3.093c-9.228,1.357-18.331,0.864-27.479,1.353
			c-0.977,0.052-1.952,0.146-3.529,0.266c0,11.35,0.019,22.549-0.005,33.748c-0.024,10.993-0.026,21.988-0.223,32.979
			c-0.025,1.393-1.172,2.766-1.8,4.147c-0.707-0.336-1.851-0.515-2.04-1.038c-0.561-1.554-0.87-3.233-1.022-4.887
			c-0.069-0.756,0.682-1.567,0.684-2.354c0.041-20.731,0.033-41.463,0.033-62.653c-1.839-0.084-3.778-0.132-5.711-0.265
			c-11.095-0.768-22.215-1.304-33.276-2.421c-8.061-0.814-16.049-2.361-24.055-3.675c-3.624-0.595-7.205-1.443-10.815-2.126
			c-6.873-1.299-13.827-2.256-20.603-3.937c-5.028-1.247-9.767-3.613-14.746-5.114c-5.578-1.681-11.276-2.959-16.93-4.385
			c-0.72-0.182-1.852,0.094-2.173-0.322c-4.396-5.688-11.569-5.322-17.28-8.096c-2.568-1.246-4.855-3.06-7.388-4.392
			c-2.752-1.447-5.65-2.615-8.466-3.942c-1.111-0.524-2.243-1.049-3.245-1.746c-3.501-2.436-6.95-4.945-10.418-7.428
			c-3.887-2.782-8.05-5.254-11.6-8.413c-6.347-5.652-13.402-10.973-18.148-17.825c-4.653-6.722-10.151-13.399-11.709-22.054
			c-1.04-5.774-2.999-11.378-4.233-17.126c-0.557-2.593-2.206-2.264-3.917-2.269c-14.872-0.045-29.744-0.039-44.615-0.126
			c-13.119-0.078-26.239-0.183-39.356-0.434c-3.811-0.073-7.605-0.789-11.418-1.015c-1.431-0.084-2.926,0.682-4.335,0.53
			c-1.958-0.211-3.882-0.865-5.768-1.486c-0.243-0.081-0.417-1.492-0.211-1.62c0.896-0.555,1.95-1.217,2.938-1.204
			c9.236,0.113,18.47,0.483,27.706,0.538c25.246,0.15,50.492,0.187,75.739,0.249c0.971,0.003,1.941-0.189,2.299-0.226
			c2.133-6.727,3.786-13.152,6.206-19.275c3.156-7.984,8.18-14.888,13.644-21.513c4.717-5.719,10.01-10.579,16.173-14.771
			c5.026-3.42,9.815-7.07,15.146-10.128c3.249-1.864,6.171-4.444,9.779-5.985c6.629-2.832,13.115-5.997,19.716-8.896
			c6.273-2.756,12.552-5.521,18.956-7.946c3.494-1.323,7.279-1.855,10.882-2.916c2.805-0.826,5.534-1.91,8.292-2.891
			c0.459-0.163,0.88-0.483,1.348-0.563c8.055-1.387,16.125-2.695,24.17-4.131c6.625-1.183,13.205-2.634,19.843-3.734
			c5.144-0.853,10.33-1.644,15.526-1.926c7.23-0.394,14.503-0.039,21.731-0.463c7.511-0.44,14.99-1.427,23.085-2.235
			c0.072-36.048,0.772-72.323,1.364-109.091c3.947,1.221,4.748,2.884,4.697,5.671c-0.183,10.115-0.138,20.234-0.061,30.352
			c0.027,3.552,0.807,6.109,5.063,7.749c4.923,1.898,9.069,5.774,13.636,8.658c2.015,1.273,4.331,2.07,6.346,3.344
			c4.757,3.008,9.396,6.2,14.118,9.266c5.585,3.625,11.258,7.114,16.796,10.808c7.338,4.895,14.453,10.134,21.902,14.847
			c7.134,4.513,14.635,8.444,21.857,12.822c4.41,2.672,8.595,5.716,12.894,8.573c4.586,3.047,9.441,5.758,13.715,9.192
			c4.288,3.447,9.5,5.579,13.525,8.958c4.602,3.862,9.883,6.112,14.734,9.269c5.452,3.549,10.561,7.624,15.986,11.217
			c3.681,2.438,7.691,4.372,11.479,6.656c5.151,3.105,10.314,6.204,15.32,9.532c7.29,4.847,14.425,9.924,21.674,14.833
			c1.477,1,3.204,1.624,4.746,2.539c5.21,3.093,10.461,6.127,15.559,9.4c4.412,2.833,8.522,6.139,12.973,8.906
			c4.554,2.832,9.433,5.135,14.026,7.907c3.465,2.09,6.725,4.521,10.036,6.858c5.231,3.689,10.347,7.709,16.846,8.803
			c2.459,0.413,5.109-0.477,7.656-0.374c3.57,0.145,7.122,0.94,10.687,0.976c16.871,0.17,33.744,0.172,50.616,0.248
			C718.53,240.709,719.891,240.818,721.497,240.89z M148.451,235.168c0-0.055,0-0.11,0.001-0.165c-4.623,0-9.251,0.129-13.867-0.048
			c-2.744-0.106-3.771,1.08-3.3,3.548c0.852,4.466,1.462,9.049,2.972,13.299c1.756,4.945,4.027,9.787,6.693,14.31
			c3.452,5.857,7.803,11.153,12.83,15.756c4.737,4.336,9.754,8.368,14.699,12.474c4.069,3.378,8.639,6.003,13.083,8.841
			c3.605,2.303,8.726,2.519,10.797,7.155c0.082,0.185,0.733,0.056,1.069,0.194c3.89,1.604,7.834,3.095,11.632,4.897
			c2.814,1.334,5.28,3.505,8.172,4.558c6.468,2.354,13.121,4.198,19.663,6.358c1.415,0.468,2.599,1.682,4.02,2.065
			c5.054,1.364,10.144,2.606,15.257,3.73c6.053,1.331,12.166,2.4,18.208,3.779c1.944,0.444,3.702,2.039,5.622,2.203
			c9.59,0.82,19.092,1.891,28.627,3.481c11.792,1.968,23.927,1.913,35.918,2.665c6.015,0.376,6.054,0.214,6.076-5.688
			c0.057-15.604,0.208-31.209,0.258-46.813c0.038-11.422-0.048-22.844-0.031-34.265c0.006-4.484-0.167-9.001,0.305-13.443
			c0.46-4.331,0.071-5.256-4.293-5.317c-5.87-0.083-11.74-0.022-17.61-0.074c-24.224-0.214-48.45-0.432-72.673-0.692
			c-2.87-0.031-5.738-0.487-8.606-0.479c-5.142,0.015-10.283,0.325-15.424,0.302c-1.39-0.006-2.768-1.096-4.165-1.128
			c-8.233-0.188-16.472-0.135-24.707-0.305C182.602,236.016,165.527,235.574,148.451,235.168z M570.451,238.359
			c-0.899-2.564-1.904-4.455-2.202-6.452c-1.026-6.898-2.938-13.479-6.673-19.39c-3.247-5.141-6.186-10.651-10.287-15.037
			c-6.121-6.543-13.076-12.321-19.84-18.237c-1.418-1.24-3.896-1.279-5.29-2.533c-5.329-4.792-11.148-8.54-17.972-10.942
			c-2.788-0.981-4.913-3.741-7.667-4.942c-5.805-2.529-11.837-4.363-17.631-7.141c-8.274-3.967-17.452-6.076-26.293-8.826
			c-2.832-0.881-5.826-1.234-8.729-1.904c-5.931-1.37-11.85-2.789-17.774-4.191c-1.554-0.368-3.102-0.756-4.657-1.118
			c-6.005-1.399-11.947-3.432-18.033-4.048c-11.535-1.168-23.155-1.502-34.737-2.23c-2.353-0.148-4.688-0.555-7.039-0.752
			c-3.068-0.259-6.177-0.763-9.2-0.463c-1.109,0.11-2.762,2.14-2.886,3.418c-0.409,4.204-0.237,8.464-0.277,12.704
			c-0.237,25.484-0.475,50.968-0.7,76.452c-0.034,3.929-0.004,7.858-0.004,12.085c14.603,0,28.342-0.033,42.083,0.01
			c14.222,0.043,28.445,0.026,42.665,0.286c11.461,0.208,22.913,0.894,34.373,1.172c9.359,0.227,18.731-0.025,28.085,0.296
			c5.939,0.204,11.849,1.217,17.788,1.561c2.261,0.131,4.581-0.936,6.855-0.863c4.564,0.146,9.11,0.961,13.672,1.033
			C548.56,238.473,559.043,238.359,570.451,238.359z M350.763,325.663c0.025,0.001,0.05,0.001,0.075,0.001
			c0,4.247-0.021,8.494,0.005,12.741c0.032,5.391,0.615,6.011,5.893,6.338c0.741,0.046,1.491-0.047,2.236-0.073
			c10.779-0.384,21.519-0.518,32.268-2.293c10.477-1.729,21.213-1.863,31.828-2.779c4.187-0.361,8.352-0.943,12.526-1.433
			c0.492-0.058,1.081-0.016,1.451-0.272c3.896-2.689,8.338-3.223,12.892-3.41c1.357-0.057,2.784-0.075,4.048-0.501
			c3.562-1.198,7.008-2.746,10.587-3.881c4.597-1.459,9.298-2.585,13.909-4.001c1.075-0.33,1.922-1.711,2.958-1.82
			c5.887-0.627,10.99-3.077,15.992-6.051c7.289-4.332,16.388-5.296,22.419-12.001c7.702-0.176,10.725-7.903,17.171-10.67
			c5.243-2.249,9.187-7.88,13.256-12.416c3.865-4.308,7.529-8.684,10.272-14.089c2.004-3.951,4.324-7.627,5.284-12.033
			c0.73-3.35,1.206-6.857,2.59-9.938c1.802-4.012,1.879-4.499-2.61-4.587c-12.096-0.24-24.197-0.264-36.294-0.508
			c-12.337-0.25-24.67-0.73-37.006-0.987c-38.018-0.792-76.08,1.34-114.065-1.89c-6.58-0.56-13.233-0.32-19.852-0.345
			c-6.046-0.023-5.789-0.824-5.968,5.438c-0.042,1.496-0.039,2.995-0.143,4.486c-0.533,7.632,1.152,15.38-1.437,22.934
			c-0.55,1.605,0.228,3.639,0.263,5.478c0.051,2.733,0.047,5.471-0.048,8.202c-0.091,2.615-0.463,5.226-0.477,7.839
			C350.729,303.98,350.763,314.822,350.763,325.663z M346.896,233.97c0.498-3.772,1.304-8.188,1.604-12.639
			c0.278-4.127-0.012-8.291-0.003-12.438c0.058-23.981-0.247-47.972,0.423-71.936c0.206-7.355-2.326-8.04-8.278-7.523
			c-6.921,0.6-13.836,1.282-20.769,1.718c-10.808,0.68-21.652,0.918-32.435,1.863c-6.027,0.528-11.985,1.996-17.933,3.241
			c-7.119,1.492-14.204,3.154-21.284,4.825c-4.511,1.064-9.046,2.094-13.465,3.477c-4.387,1.373-8.523,3.888-12.98,4.622
			c-8.362,1.376-15.479,5.456-22.841,9.063c-4.187,2.053-8.005,4.973-12.327,6.61c-6.868,2.601-12.916,6.327-18.508,10.969
			c-3.417,2.837-7.661,4.497-10.432,8.352c-1.886,2.623-5.137,4.227-7.269,6.721c-3.455,4.043-6.716,8.295-9.635,12.738
			c-2.393,3.642-4.49,7.56-6.123,11.597c-1.51,3.734-2.334,7.763-3.259,11.709c-0.55,2.349,0.323,3.726,3.087,3.722
			c4.591-0.005,9.189,0.152,13.772,0.435c3.333,0.207,6.644,1.036,9.968,1.058c31.49,0.211,62.982,0.451,94.472,0.38
			c16.993-0.038,33.972,0.664,50.965,0.489c3.75-0.039,7.504,0.853,11.261,0.901C325.364,234.057,335.822,233.97,346.896,233.97z
			 M491.443,151.017c0.197-0.413,0.395-0.827,0.593-1.241c-45.367-29.297-90.733-58.593-136.101-87.891
			c-0.408,0.275-0.815,0.55-1.223,0.825c0,2.319,0.014,4.638-0.002,6.956c-0.075,10.488-0.007,20.98-0.298,31.462
			c-0.161,5.823-0.874,11.634-1.448,17.44c-0.248,2.507,0.417,4.589,2.804,5.429c1.913,0.673,4.057,0.844,6.112,0.94
			c13.818,0.644,27.677-0.163,41.317,3.714c7.972,2.266,16.435,3.031,24.736,3.835c7.299,0.707,14.261,2.303,21.108,4.833
			c2.639,0.975,5.611,0.998,8.348,1.757c4.591,1.275,9.149,2.688,13.654,4.242c3.857,1.331,7.609,2.968,11.427,4.419
			C485.446,148.87,488.451,149.927,491.443,151.017z M628.908,238.333c0.095-0.349,0.189-0.698,0.284-1.047
			c-25.504-16.093-51.008-32.186-76.511-48.279c-0.349,0.3-0.697,0.601-1.045,0.9c1.249,1.663,2.396,3.417,3.78,4.958
			c1.043,1.16,2.73,1.829,3.538,3.096c2.693,4.221,5.167,8.587,7.639,12.946c4.117,7.258,7.158,14.914,7.607,23.337
			c0.166,3.108,1.165,4.335,4.455,4.322c15.729-0.063,31.458,0.108,47.188,0.164C626.865,238.733,627.887,238.471,628.908,238.333z"
			/>
		<path fill-rule="evenodd" clip-rule="evenodd" d="M426.049,451.762c2.286-0.213,3.972-0.37,6.347-0.592c0,3.431,0,6.555,0,10.112
			c1.943-0.655,3.129-1.227,4.377-1.447c4.426-0.781,11.502,3.788,12.211,8.33c0.784,5.025,1.072,10.223-2.233,14.664
			c-0.82,1.102-2.184,1.848-3.402,2.585c-1.072,0.65-2.261,1.146-3.454,1.548c-0.788,0.266-2.159,0.639-2.441,0.291
			c-2.336-2.877-5.474-1.435-8.267-1.875c-1.127-0.179-2.988-1.346-3.002-2.092C425.984,472.862,426.049,462.433,426.049,451.762z
			 M442.926,473.294c0.225-5.376-0.848-7.112-4.463-7.232c-2.94-0.097-5.88,2.896-6.04,6.148c-0.259,5.269,1.176,7.251,5.35,7.397
			C442.329,479.768,442.675,479.346,442.926,473.294z"/>
		<path fill-rule="evenodd" clip-rule="evenodd" d="M362.463,469.743c-0.238-0.289-0.529-0.549-0.704-0.872
			c-0.884-1.635-4.743-2.094-2.792-4.614c1.697-2.193,3.475-5.174,7.284-4.724c2.346,0.278,4.759,0.311,7.113,0.106
			c4.064-0.351,6.371,1.835,6.581,5.381c0.394,6.672,0.113,13.382,0.113,20.324c-5.418,0-10.983,0.187-16.526-0.092
			c-2.186-0.111-3.832-1.238-5.217-3.695c-2.912-5.164-0.312-7.497,3.459-9.921c0.442-0.284,0.41-1.311,0.593-1.995
			c3.357-0.004,6.717-0.004,10.203-0.004c0.317-1.36,0.556-2.384,0.893-3.827c-2.318,0-4.361-0.338-6.23,0.091
			C365.191,466.369,362.546,466.621,362.463,469.743z M364.484,476.087c0.34,1.085,0.673,2.863,0.932,2.854
			c2.751-0.113,5.491-0.511,8.967-0.915c-1.104-2.049-1.599-2.968-1.771-3.287C369.908,475.188,367.593,475.571,364.484,476.087z"/>
		<path fill-rule="evenodd" clip-rule="evenodd" d="M519.985,87.523c4.573,0,9.148,0,13.722,0c-4.257,2.794-5,7.234-6.362,11.055
			c-2.098,5.884-3.592,11.985-5.321,17.925c6.714,5.549,10.321-2.459,15.439-3.496c1.678,6.211-1.144,10.117-7.118,10.124
			c-4.996,0.005-9.992-0.035-14.987-0.116c-2.801-0.045-3.62-1.207-2.025-3.753c3.793-6.053,5.656-12.74,6.632-19.772
			c0.289-2.09,1.62-4.017,2.133-6.103c0.494-2.016,1.317-4.478-3.222-4.456C519.245,88.462,519.615,87.993,519.985,87.523z"/>
		<path fill-rule="evenodd" clip-rule="evenodd" d="M289.337,477.96c4.318,0,8.176-0.143,12.013,0.08
			c1.274,0.074,3.114,0.787,3.574,1.746c0.508,1.061,0.168,3.126-0.626,4.026c-0.646,0.73-2.51,0.508-3.833,0.496
			c-3.479-0.026-6.955-0.191-10.434-0.258c-2.218-0.043-4.438-0.008-7.198-0.008c0-8.374-0.006-16.299,0.006-24.226
			c0.001-1.245,0.147-2.493,0.106-3.736c-0.104-3.138-0.822-6.53,4.63-7.613c0.519,1.472,1.634,3.22,1.678,4.994
			C289.447,461.399,289.337,469.345,289.337,477.96z"/>
		<path fill-rule="evenodd" clip-rule="evenodd" d="M403.616,460.608c5.812,1.577,0.605,7.497,4.118,10.042
			c2.617-1.279,5.167-1.446,7.189,1.168c0.517,0.668,1.118,1.592,1.022,2.311c-0.075,0.554-1.151,1.333-1.829,1.383
			c-2.332,0.172-4.684,0.066-6.919,0.066c-0.793,3.515-1.5,6.649-2.249,9.967c-6.256-1.921-3.256-6.352-4.509-9.966
			c-1.652,0-3.615,0.174-5.527-0.064c-1.164-0.146-2.845-0.668-3.202-1.494c-0.364-0.842,0.273-2.765,1.081-3.302
			c1.03-0.686,2.88-0.98,4.006-0.525c3.579,1.445,3.938,1.387,4.038-2.537C400.904,464.907,400.597,462.075,403.616,460.608z"/>
		<path fill-rule="evenodd" clip-rule="evenodd" d="M344.084,477.854c-7.717,0-15.059,0.083-22.394-0.113
			c-0.835-0.023-1.63-1.611-2.443-2.474c0.844-0.655,1.675-1.859,2.534-1.881c6.617-0.165,13.239-0.119,19.86-0.101
			C344.585,473.294,344.088,475.418,344.084,477.854z"/>
		<path fill-rule="evenodd" clip-rule="evenodd" d="M332.042,469.601c-3.229,0-6.473,0.169-9.678-0.102
			c-0.978-0.083-1.853-1.377-2.775-2.115c0.943-0.549,1.875-1.553,2.829-1.574c6.33-0.151,12.667-0.182,18.996-0.005
			c0.964,0.027,1.892,1.334,2.835,2.049c-0.964,0.621-1.894,1.702-2.899,1.778c-3.087,0.235-6.203,0.086-9.308,0.086
			C332.042,469.679,332.042,469.64,332.042,469.601z"/>
		<path fill-rule="evenodd" clip-rule="evenodd" fill="#FFFFFF" d="M148.451,235.168c17.076,0.406,34.151,0.848,51.228,1.202
			c8.234,0.17,16.473,0.117,24.707,0.305c1.397,0.032,2.775,1.122,4.165,1.128c5.141,0.023,10.283-0.288,15.424-0.302
			c2.869-0.008,5.736,0.448,8.606,0.479c24.224,0.26,48.449,0.479,72.673,0.692c5.87,0.052,11.74-0.009,17.61,0.074
			c4.365,0.061,4.753,0.986,4.293,5.317c-0.472,4.442-0.299,8.959-0.305,13.443c-0.017,11.421,0.069,22.843,0.031,34.265
			c-0.05,15.604-0.201,31.208-0.258,46.813c-0.022,5.901-0.061,6.063-6.076,5.688c-11.992-0.752-24.126-0.697-35.918-2.665
			c-9.536-1.591-19.038-2.661-28.627-3.481c-1.92-0.164-3.678-1.759-5.622-2.203c-6.042-1.379-12.155-2.448-18.208-3.779
			c-5.113-1.124-10.204-2.366-15.257-3.73c-1.421-0.384-2.605-1.598-4.02-2.065c-6.542-2.16-13.194-4.004-19.663-6.358
			c-2.892-1.053-5.357-3.224-8.172-4.558c-3.797-1.803-7.742-3.294-11.632-4.897c-0.336-0.139-0.987-0.01-1.069-0.194
			c-2.072-4.637-7.192-4.853-10.797-7.155c-4.445-2.838-9.015-5.463-13.083-8.841c-4.945-4.105-9.962-8.138-14.699-12.474
			c-5.027-4.603-9.378-9.898-12.83-15.756c-2.666-4.522-4.937-9.364-6.693-14.31c-1.509-4.25-2.12-8.833-2.972-13.299
			c-0.471-2.468,0.556-3.655,3.3-3.548c4.616,0.178,9.244,0.048,13.867,0.048C148.452,235.058,148.452,235.113,148.451,235.168z"/>
		<path fill-rule="evenodd" clip-rule="evenodd" fill="#FFFFFF" d="M570.451,238.359c-11.408,0-21.892,0.114-32.37-0.053
			c-4.562-0.072-9.107-0.887-13.672-1.033c-2.274-0.073-4.595,0.994-6.855,0.863c-5.939-0.344-11.849-1.357-17.788-1.561
			c-9.354-0.321-18.726-0.069-28.085-0.296c-11.46-0.278-22.912-0.963-34.373-1.172c-14.22-0.259-28.443-0.243-42.665-0.286
			c-13.74-0.042-27.479-0.01-42.083-0.01c0-4.227-0.03-8.156,0.004-12.085c0.225-25.484,0.463-50.968,0.7-76.452
			c0.04-4.239-0.132-8.5,0.277-12.704c0.124-1.278,1.777-3.308,2.886-3.418c3.022-0.3,6.131,0.204,9.2,0.463
			c2.351,0.198,4.686,0.604,7.039,0.752c11.582,0.728,23.202,1.063,34.737,2.23c6.086,0.616,12.028,2.648,18.033,4.048
			c1.556,0.362,3.104,0.75,4.657,1.118c5.925,1.402,11.844,2.821,17.774,4.191c2.902,0.67,5.896,1.023,8.729,1.904
			c8.841,2.75,18.019,4.858,26.293,8.826c5.794,2.778,11.826,4.612,17.631,7.141c2.754,1.201,4.879,3.96,7.667,4.942
			c6.823,2.403,12.643,6.15,17.972,10.942c1.395,1.254,3.872,1.293,5.29,2.533c6.764,5.916,13.719,11.693,19.84,18.237
			c4.102,4.386,7.04,9.896,10.287,15.037c3.734,5.911,5.646,12.492,6.673,19.39C568.547,233.904,569.552,235.795,570.451,238.359z"
			/>
		<path fill-rule="evenodd" clip-rule="evenodd" fill="#FFFFFF" d="M350.763,325.663c0-10.841-0.033-21.683,0.023-32.523
			c0.014-2.613,0.386-5.224,0.477-7.839c0.095-2.731,0.1-5.469,0.048-8.202c-0.035-1.839-0.813-3.872-0.263-5.478
			c2.589-7.554,0.903-15.302,1.437-22.934c0.104-1.491,0.1-2.99,0.143-4.486c0.18-6.261-0.078-5.46,5.968-5.438
			c6.619,0.025,13.271-0.215,19.852,0.345c37.985,3.23,76.048,1.098,114.065,1.89c12.336,0.257,24.669,0.737,37.006,0.987
			c12.097,0.245,24.198,0.268,36.294,0.508c4.489,0.088,4.412,0.575,2.61,4.587c-1.384,3.081-1.859,6.589-2.59,9.938
			c-0.96,4.406-3.28,8.082-5.284,12.033c-2.743,5.405-6.407,9.781-10.272,14.089c-4.069,4.536-8.013,10.167-13.256,12.416
			c-6.446,2.767-9.469,10.494-17.171,10.67c-6.031,6.705-15.13,7.669-22.419,12.001c-5.002,2.974-10.105,5.424-15.992,6.051
			c-1.036,0.109-1.883,1.49-2.958,1.82c-4.611,1.416-9.313,2.542-13.909,4.001c-3.579,1.135-7.025,2.683-10.587,3.881
			c-1.264,0.426-2.69,0.444-4.048,0.501c-4.554,0.188-8.995,0.721-12.892,3.41c-0.37,0.257-0.959,0.215-1.451,0.272
			c-4.175,0.489-8.34,1.071-12.526,1.433c-10.615,0.916-21.352,1.05-31.828,2.779c-10.749,1.775-21.489,1.909-32.268,2.293
			c-0.746,0.026-1.495,0.119-2.236,0.073c-5.277-0.327-5.86-0.947-5.893-6.338c-0.025-4.247-0.005-8.494-0.005-12.741
			C350.813,325.664,350.788,325.664,350.763,325.663z M449.132,269.38c-4.816-2.16-2.068-5.245-1.406-8.046
			c0.829-3.503,1.782-6.977,2.542-9.919c-3.863-1.104-6.801-2.026-9.789-2.738c-0.699-0.166-1.607,0.282-2.35,0.606
			c-3.495,1.521-5.528,4.643-8.169,7.144c-3.181,3.013-4.664,6.351-4.453,10.241c0.35,6.457,1.894,8.588,7.553,7.837
			c1.655-0.22,3.157-1.597,4.715-2.436C441.52,275.985,442.319,275.819,449.132,269.38z"/>
		<path fill-rule="evenodd" clip-rule="evenodd" fill="#FFFFFF" d="M346.896,233.97c-11.074,0-21.532,0.086-31.987-0.046
			c-3.757-0.048-7.511-0.94-11.261-0.901c-16.993,0.175-33.972-0.527-50.965-0.489c-31.49,0.07-62.982-0.169-94.472-0.38
			c-3.325-0.022-6.636-0.851-9.968-1.058c-4.583-0.283-9.181-0.439-13.772-0.435c-2.765,0.004-3.638-1.373-3.087-3.722
			c0.925-3.946,1.749-7.976,3.259-11.709c1.633-4.037,3.729-7.955,6.123-11.597c2.919-4.443,6.18-8.695,9.635-12.738
			c2.132-2.495,5.383-4.098,7.269-6.721c2.771-3.854,7.015-5.514,10.432-8.352c5.592-4.643,11.64-8.368,18.508-10.969
			c4.322-1.637,8.14-4.557,12.327-6.61c7.362-3.607,14.479-7.687,22.841-9.063c4.457-0.733,8.593-3.249,12.98-4.622
			c4.418-1.382,8.954-2.412,13.465-3.477c7.081-1.671,14.165-3.333,21.284-4.825c5.948-1.245,11.906-2.712,17.933-3.241
			c10.783-0.945,21.626-1.184,32.435-1.863c6.932-0.436,13.848-1.118,20.769-1.718c5.952-0.517,8.484,0.168,8.278,7.523
			c-0.67,23.964-0.365,47.955-0.423,71.936c-0.009,4.146,0.281,8.311,0.003,12.438C348.199,225.782,347.394,230.198,346.896,233.97z
			 M320.975,168.473c0.664-3.108,1.415-5.957,1.823-8.854c0.17-1.212-0.212-3.54-0.644-3.615c-1.589-0.273-3.436-0.124-4.909,0.51
			c-0.642,0.276-0.742,2.099-0.855,3.242c-0.16,1.595,0.271,3.332-0.201,4.799c-2.192,6.805-4.662,13.521-6.922,20.305
			c-1.097,3.292,0.609,7.563,3.496,7.905c4.184,0.498,8.24,0.98,12.307-2.121c3.818-2.91,5.711-6.783,7.782-10.579
			c2.492-4.567-0.16-10.043-5.275-11.506C325.708,168.025,323.56,168.473,320.975,168.473z"/>
		<path fill-rule="evenodd" clip-rule="evenodd" fill="#FFFFFF" d="M491.443,151.017c-2.992-1.09-5.997-2.147-8.973-3.279
			c-3.817-1.452-7.569-3.088-11.427-4.419c-4.505-1.553-9.063-2.966-13.654-4.242c-2.736-0.76-5.709-0.782-8.348-1.757
			c-6.848-2.53-13.81-4.126-21.108-4.833c-8.302-0.804-16.765-1.57-24.736-3.835c-13.641-3.877-27.499-3.07-41.317-3.714
			c-2.055-0.096-4.199-0.267-6.112-0.94c-2.386-0.839-3.051-2.922-2.804-5.429c0.575-5.806,1.287-11.617,1.448-17.44
			c0.292-10.481,0.224-20.974,0.298-31.462c0.016-2.318,0.002-4.637,0.002-6.956c0.407-0.274,0.815-0.55,1.223-0.825
			c45.367,29.297,90.733,58.594,136.101,87.891C491.838,150.19,491.641,150.604,491.443,151.017z"/>
		<path fill-rule="evenodd" clip-rule="evenodd" fill="#FFFFFF" d="M628.908,238.333c-1.021,0.139-2.043,0.401-3.064,0.397
			c-15.729-0.056-31.459-0.227-47.188-0.164c-3.29,0.013-4.289-1.214-4.455-4.322c-0.449-8.423-3.49-16.08-7.607-23.337
			c-2.472-4.358-4.945-8.725-7.639-12.946c-0.808-1.267-2.495-1.936-3.538-3.096c-1.384-1.542-2.531-3.295-3.78-4.958
			c0.348-0.299,0.696-0.6,1.045-0.9c25.503,16.093,51.007,32.186,76.511,48.279C629.098,237.634,629.003,237.984,628.908,238.333z"
			/>
		<path fill-rule="evenodd" clip-rule="evenodd" fill="#FFFFFF" d="M442.926,473.294c-0.251,6.052-0.597,6.474-5.153,6.313
			c-4.174-0.146-5.608-2.129-5.35-7.397c0.16-3.253,3.1-6.245,6.04-6.148C442.078,466.182,443.15,467.918,442.926,473.294z"/>
		<path fill-rule="evenodd" clip-rule="evenodd" fill="#FFFFFF" d="M362.463,469.743c0.083-3.122,2.728-3.374,4.77-3.842
			c1.869-0.429,3.912-0.091,6.23-0.091c-0.337,1.443-0.576,2.467-0.893,3.827c-3.486,0-6.846,0-10.203,0.004
			C362.37,469.645,362.463,469.743,362.463,469.743z"/>
		<path fill-rule="evenodd" clip-rule="evenodd" fill="#FFFFFF" d="M364.484,476.087c3.109-0.516,5.423-0.899,8.127-1.349
			c0.172,0.319,0.667,1.238,1.771,3.287c-3.476,0.404-6.215,0.802-8.967,0.915C365.157,478.95,364.825,477.172,364.484,476.087z"/>
		<path fill-rule="evenodd" clip-rule="evenodd" d="M449.132,269.38c-6.813,6.439-7.612,6.605-11.357,2.689
			c-1.558,0.839-3.06,2.216-4.715,2.436c-5.659,0.751-7.203-1.38-7.553-7.837c-0.211-3.891,1.272-7.229,4.453-10.241
			c2.641-2.501,4.674-5.622,8.169-7.144c0.742-0.324,1.65-0.772,2.35-0.606c2.988,0.712,5.926,1.633,9.789,2.738
			c-0.76,2.942-1.713,6.416-2.542,9.919C447.063,264.135,444.315,267.22,449.132,269.38z M442.133,252.525
			c-1.705,0.6-3.622,0.726-4.666,1.745c-3.104,3.028-6.024,6.347-6.016,11.1c0.002,1.024,0.266,2.823,0.715,2.926
			c1.343,0.307,3.317,0.508,4.192-0.243C440.752,264.282,444.025,259.852,442.133,252.525z"/>
		<path fill-rule="evenodd" clip-rule="evenodd" d="M320.975,168.473c2.584,0,4.733-0.448,6.601,0.086
			c5.116,1.463,7.768,6.939,5.275,11.506c-2.071,3.796-3.964,7.669-7.782,10.579c-4.067,3.101-8.124,2.618-12.307,2.121
			c-2.887-0.342-4.593-4.613-3.496-7.905c2.261-6.784,4.73-13.5,6.922-20.305c0.472-1.467,0.041-3.204,0.201-4.799
			c0.113-1.143,0.213-2.965,0.855-3.242c1.473-0.634,3.32-0.784,4.909-0.51c0.432,0.075,0.814,2.402,0.644,3.615
			C322.39,162.516,321.639,165.365,320.975,168.473z M315.779,188.613c5.218,0.927,6.407,0.447,9.323-5.257
			c1.177-2.3,1.888-5.051,1.985-7.629c0.091-2.398-2.597-3.765-4.559-2.863C318.052,174.921,314.449,183.33,315.779,188.613z"/>
		<path fill-rule="evenodd" clip-rule="evenodd" fill="#FFFFFF" d="M442.133,252.525c1.893,7.326-1.381,11.757-5.774,15.527
			c-0.875,0.751-2.85,0.55-4.192,0.243c-0.449-0.103-0.713-1.901-0.715-2.926c-0.009-4.753,2.911-8.071,6.016-11.1
			C438.511,253.251,440.428,253.125,442.133,252.525z"/>
		<path fill-rule="evenodd" clip-rule="evenodd" fill="#FFFFFF" d="M315.779,188.613c-1.33-5.284,2.272-13.692,6.749-15.749
			c1.962-0.902,4.65,0.464,4.559,2.863c-0.098,2.578-0.809,5.329-1.985,7.629C322.186,189.06,320.997,189.541,315.779,188.613z"/>
	</g>
</g>
</svg>
