<?xml version="1.0" encoding="utf-8"?>
<!-- Generator: Adobe Illustrator 16.0.0, SVG Export Plug-In . SVG Version: 6.00 Build 0)  -->
<!DOCTYPE svg PUBLIC "-//W3C//DTD SVG 1.1//EN" "http://www.w3.org/Graphics/SVG/1.1/DTD/svg11.dtd">
<svg version="1.1" id="Layer_1" xmlns="http://www.w3.org/2000/svg" xmlns:xlink="http://www.w3.org/1999/xlink" x="0px" y="0px"
	 width="524.323px" height="409px" viewBox="0 0 524.323 409" enable-background="new 0 0 524.323 409" xml:space="preserve">
<g>
	<g>
		<path fill-rule="evenodd" clip-rule="evenodd" fill="#FFFFFF" d="M0.75,414.058c0-137.77,0-275.538,0-413.308
			c174.774,0,349.549,0,524.323,0c0,137.77,0,275.538,0,413.308C350.299,414.058,175.524,414.058,0.75,414.058z M74.179,143.808
			c0,1.486,0.002,2.731,0,3.977c-0.044,18.995-0.165,37.991-0.108,56.986c0.042,14.281-0.846,28.538-0.88,42.817
			c-0.01,3.942-0.898,7.88-0.941,11.824c-0.197,18.241-0.145,36.485-0.358,54.726c-0.243,20.72-0.669,41.437-1.027,62.155
			c-0.048,2.806,1.207,3.922,4.081,3.931c30.615,0.088,61.231,0.199,91.845,0.478c5.55,0.05,11.085,1.107,16.641,1.29
			c6.706,0.221,13.428-0.12,20.139,0.003c17.923,0.33,35.843,0.836,53.767,1.165c16.699,0.307,33.403,0.359,50.1,0.796
			c3.635,0.095,4.575-1.355,4.626-4.486c0.127-7.731,0.404-15.461,0.516-23.192c0.582-40.899,1.137-81.8,1.689-122.699
			c0.119-8.846,0.186-17.691,0.285-26.537c0.214-18.862,0.465-37.724,0.617-56.586c0.023-2.911-0.443-5.849,4.292-6.243
			c-2.937-2.712-5.488-4.765-7.666-7.158c-2.444-2.688-4.356-5.866-6.844-8.508c-5.104-5.422-10.346-10.723-15.719-15.878
			c-2.234-2.143-5.235-3.507-7.384-5.715c-4.359-4.479-8.35-9.313-12.539-13.959c-3.97-4.402-7.879-8.868-12.029-13.095
			c-6.941-7.069-14.088-13.936-21.073-20.962c-1.893-1.903-3.385-4.209-5.302-6.084c-2.132-2.087-4.559-3.87-6.821-5.828
			c-2.413-2.089-4.918-4.098-7.141-6.378c-3.277-3.364-6.337-6.938-9.494-10.421c-2.185-2.411-4.524-4.7-6.522-7.256
			c-2.098-2.683-5.836-3.873-7.938-1.977c-2.726,2.456-5.291,5.091-7.903,7.672c-2.049,2.024-3.989,4.163-6.109,6.107
			c-4.102,3.761-8.299,7.42-12.451,11.129c-0.081,0.073-0.056,0.261-0.135,0.343c-3.625,3.812-7.146,7.731-10.914,11.397
			c-4.643,4.518-9.569,8.747-14.229,13.248c-3.753,3.626-7.282,7.484-10.934,11.216c-3.828,3.911-7.719,7.759-11.509,11.705
			c-1.732,1.802-3.169,3.894-4.955,5.634c-1.977,1.927-4.325,3.475-6.287,5.414c-3.969,3.923-7.748,8.038-11.676,12.003
			c-5.067,5.115-10.181,10.185-15.319,15.23c-2.584,2.536-5.3,4.938-7.883,7.475c-0.785,0.771-1.326,1.79-2.149,2.93
			C72.041,143.038,72.955,143.367,74.179,143.808z M482.479,182.12c1.839,4.667,3.518,9.253,5.444,13.732
			c2.516,5.848,2.255,7.452-2.114,11.964c-0.75,0.775-1.198,2.093-1.245,3.184c-0.021,0.473,1.377,1.481,2.05,1.416
			c1.724-0.168,4.086-0.264,4.949-1.364c1.609-2.052,2.438-4.756,3.408-7.259c1.625-4.187,3.043-8.453,4.672-12.639
			c1.179-3.033,2.557-5.988,3.84-8.962c-4.321-1.85-6.926-0.563-7.858,3.324c-0.548,2.286-1.366,4.507-2.262,7.398
			c-4.439-4.098-1.838-11.195-7.991-13.001C484.601,180.501,483.728,181.167,482.479,182.12z M423.971,184.756
			c-1.383-1.604-2.352-3.22-3.758-4.221c-1.356-0.965-3.669-2.237-4.667-1.703c-1.982,1.061-1.243,3.01,0.204,4.663
			c1.426,1.63,2.755,3.431,3.69,5.368c0.407,0.843,0.039,2.405-0.518,3.305c-1.709,2.757-3.679,5.351-5.599,8.082
			c5.836,4.758,7.181-3.15,10.277-3.426c2.089,1.917,3.509,3.6,5.288,4.706c0.997,0.62,2.588,0.286,3.91,0.381
			c-0.289-1.586-0.035-3.696-0.968-4.666c-3.342-3.474-4.049-6.141-1.709-10.366c0.725-1.307,2.12-2.269,2.727-3.606
			c0.521-1.151,0.354-2.613,0.491-3.938c-1.506,0.089-3.346-0.334-4.442,0.382C427.119,180.876,425.826,182.783,423.971,184.756z
			 M259.591,51.539c3.664,2.144,4.746,5.328,4.726,9.051c-0.019,3.65-1.759,5.195-7.97,6.874c0.212,1.663,0.431,3.375,0.754,5.908
			c3.218-2.458,5.706-4.358,8.413-6.427c1.074,1.456,2.138,3.214,3.507,4.689c2.81,3.025,3.574-1.538,5.688-1.82
			c1.437-0.191,2.899-2.334,0.929-4.381c-1.236,0.269-2.414,0.524-3.578,0.778c-2.199-6.859-1.771-7.752,3.852-10.639
			c1.063-0.546,1.523-2.261,2.263-3.437c-1.14-0.412-2.389-1.339-3.397-1.128c-2.175,0.455-4.227,1.496-6.322,2.294
			C266.443,48.96,262.906,51.616,259.591,51.539z M44.147,251.975c-0.398-0.217-0.796-0.436-1.195-0.653
			c0-3.005,0.03-6.011-0.006-9.016c-0.068-5.604-1.619-6.618-7.835-4.592c3.975,3.995,4.02,9.041,4.446,14.057
			c0.415,4.874,0.109,9.183-5.081,11.561c-0.764,0.351-1.183,1.453-2.566,3.256c2.203-0.4,3.714-0.216,4.417-0.885
			c2.453-2.33,4.612-4.968,6.91-7.463c2.928-3.179,6.111-6.155,8.739-9.563c1.528-1.981,2.629-4.546,3.128-7.008
			c0.728-3.588-1.204-5.083-5.182-4.137C51.579,243.9,48.907,248.455,44.147,251.975z M102.47,51.915
			c5.175,1.076,5.853,4.998,5.221,8.795c-0.359,2.157-2.436,4.204-4.137,5.903c-1.165,1.163-3.015,1.641-5.099,2.699
			c5.894,3.43,7.965-0.829,10.466-3.858c1.388,2.733,2.511,4.944,3.685,7.255c6.586-5.738,7.278-6.625,5.657-7.53
			c-0.708,0.177-1.611,0.403-2.585,0.646c-1.993-2.943-2.174-5.944-1.198-9.233c0.99-3.337,3.734-2.399,6.783-2.72
			c-0.644-1.242-0.933-2.708-1.576-2.886c-2.852-0.788-5.317-0.067-6.799,3.576c-1.231-1.704-2.034-3.043-3.074-4.162
			c-0.542-0.583-1.663-1.255-2.243-1.059C105.942,49.89,104.458,50.87,102.47,51.915z M457.792,189.561
			c2.896,2.368,10.295,1.417,12.25-2.622c-1.05-0.733-2.105-2.094-3.223-2.146c-5.586-0.259-11.197-0.345-16.778-0.067
			c-1.122,0.057-2.318,1.855-3.086,3.095c-0.154,0.249,1.448,2.282,2.304,2.328C451.807,190.288,454.386,189.847,457.792,189.561z
			 M470.433,195.309c-0.089-0.52-0.177-1.038-0.266-1.558c-1.432-0.466-2.846-1.265-4.298-1.337
			c-4.967-0.249-9.957-0.445-14.916-0.205c-1.427,0.069-2.779,1.676-4.166,2.577c1.381,0.778,2.729,2.153,4.146,2.228
			c5.334,0.283,10.695,0.252,16.036,0.076C468.143,197.05,469.28,195.931,470.433,195.309z"/>
		<path fill-rule="evenodd" clip-rule="evenodd" d="M74.179,143.808c-1.225-0.441-2.138-0.77-3.643-1.312
			c0.823-1.141,1.364-2.159,2.149-2.93c2.583-2.537,5.299-4.939,7.883-7.475c5.138-5.045,10.252-10.115,15.319-15.23
			c3.928-3.966,7.707-8.081,11.676-12.003c1.961-1.939,4.31-3.487,6.287-5.414c1.785-1.74,3.223-3.833,4.955-5.634
			c3.79-3.946,7.681-7.794,11.509-11.705c3.651-3.731,7.18-7.59,10.934-11.216c4.66-4.501,9.586-8.73,14.229-13.248
			c3.769-3.666,7.29-7.585,10.914-11.397c0.079-0.083,0.054-0.27,0.135-0.343c4.152-3.709,8.349-7.368,12.451-11.129
			c2.121-1.944,4.061-4.083,6.109-6.107c2.612-2.581,5.177-5.216,7.903-7.672c2.102-1.896,5.84-0.706,7.938,1.977
			c1.999,2.556,4.337,4.845,6.522,7.256c3.157,3.482,6.217,7.057,9.494,10.421c2.223,2.28,4.728,4.29,7.141,6.378
			c2.262,1.958,4.688,3.741,6.821,5.828c1.917,1.875,3.409,4.181,5.302,6.084c6.985,7.026,14.132,13.893,21.073,20.962
			c4.15,4.227,8.06,8.693,12.029,13.095c4.189,4.646,8.18,9.48,12.539,13.959c2.148,2.208,5.149,3.572,7.384,5.715
			c5.373,5.156,10.614,10.456,15.719,15.878c2.487,2.642,4.399,5.82,6.844,8.508c2.178,2.394,4.729,4.446,7.666,7.158
			c-4.735,0.394-4.269,3.332-4.292,6.243c-0.152,18.862-0.403,37.724-0.617,56.586c-0.1,8.846-0.166,17.691-0.285,26.537
			c-0.553,40.899-1.107,81.8-1.689,122.699c-0.111,7.731-0.389,15.461-0.516,23.192c-0.051,3.131-0.991,4.581-4.626,4.486
			c-16.696-0.437-33.4-0.489-50.1-0.796c-17.924-0.329-35.843-0.835-53.767-1.165c-6.711-0.123-13.433,0.218-20.139-0.003
			c-5.556-0.183-11.09-1.24-16.641-1.29c-30.614-0.278-61.229-0.39-91.845-0.478c-2.874-0.009-4.129-1.125-4.081-3.931
			c0.357-20.719,0.784-41.436,1.027-62.155c0.214-18.24,0.162-36.484,0.358-54.726c0.042-3.944,0.931-7.882,0.941-11.824
			c0.034-14.279,0.922-28.536,0.88-42.817c-0.057-18.995,0.064-37.991,0.108-56.986C74.182,146.539,74.179,145.293,74.179,143.808z
			 M77.246,374.986c2.187,0,3.792-0.004,5.398,0c8.497,0.02,16.995-0.062,25.489,0.078c20.848,0.345,41.692,0.948,62.542,1.156
			c25.24,0.252,50.485,0.024,75.723,0.345c18.434,0.235,36.862,0.961,55.287,1.614c3.601,0.128,4.601-1.544,4.617-4.689
			c0.056-10.344,0.183-20.687,0.267-31.029c0.202-24.597,0.383-49.193,0.595-73.789c0.085-9.744,0.612-19.502,0.242-29.228
			c-0.369-9.688,1.575-19.276,0.497-29.01c-0.534-4.829,0.694-9.832,0.863-14.764c0.278-8.094,0.42-16.195,0.476-24.294
			c0.051-7.357-0.052-14.717-0.167-22.074c-0.048-3.053-1.712-4.434-4.797-4.298c-2.366,0.105-4.743-0.023-7.115-0.038
			c-37.865-0.239-75.731-0.441-113.596-0.744c-7.438-0.059-14.872-0.696-22.31-0.735c-25.991-0.135-51.983-0.095-77.975-0.214
			c-2.612-0.012-3.517,0.834-3.48,3.449c0.087,6.227-0.094,12.456-0.125,18.685c-0.126,25.992-0.236,51.983-0.356,77.974
			c-0.018,3.864,0.095,7.737-0.119,11.592c-0.306,5.516-1.012,11.012-1.247,16.528c-0.151,3.567,0.788,7.243,0.253,10.719
			c-0.888,5.778-1.759,11.372,0.589,17.027c0.452,1.089-0.047,2.63-0.279,3.932c-0.294,1.658-1.086,3.282-1.104,4.927
			c-0.135,12.246-0.143,24.493-0.167,36.739C77.23,354.691,77.246,364.538,77.246,374.986z M304.172,139.599
			c0.164-0.343,0.329-0.686,0.494-1.028c-1.738-1.716-4.158-3.13-5.084-5.208c-2.556-5.74-10.115-7.13-11.489-13.726
			c-0.047-0.224-0.663-0.287-0.943-0.512c-3.028-2.435-6.271-4.659-9.01-7.387c-4.686-4.665-9.128-9.582-13.534-14.516
			c-5.139-5.755-11.901-10.02-15.658-17.044c-0.102-0.19-0.417-0.254-0.591-0.419c-4.009-3.822-8.08-7.583-11.988-11.504
			c-2.031-2.039-3.579-4.575-5.686-6.517c-4.236-3.904-8.719-7.54-13.057-11.335c-0.428-0.375-0.479-1.15-0.851-1.625
			c-1.275-1.63-2.513-3.308-3.95-4.789c-3.915-4.038-8.056-7.863-11.848-12.011c-2.388-2.611-6-4.035-8.415-2.244
			c-2.429,1.801-4.527,4.054-6.733,6.147c-2.836,2.693-5.637,5.421-8.449,8.14c-1.519,1.468-3.098,2.88-4.521,4.436
			c-2.619,2.862-5.005,5.95-7.745,8.688c-3.095,3.091-6.495,5.875-9.719,8.84c-1.99,1.828-3.962,3.685-5.83,5.636
			c-1.948,2.035-3.646,4.317-5.657,6.282c-3.501,3.42-7.281,6.561-10.722,10.039c-3.725,3.765-7.035,7.945-10.819,11.645
			c-4.042,3.954-8.567,7.412-12.616,11.359c-3.291,3.208-6.163,6.843-9.27,10.242c-1.596,1.747-3.242,3.456-4.968,5.071
			c-2.945,2.757-6.022,5.375-8.91,8.189c-0.458,0.446-0.449,1.692-0.206,2.417c0.147,0.439,1.199,0.887,1.779,0.815
			c2.778-0.347,5.529-0.9,8.299-1.313c1.091-0.163,2.231-0.33,3.308-0.186c3.027,0.406,6.02,1.272,9.052,1.414
			c6.479,0.301,12.975,0.245,19.464,0.359c25.449,0.451,50.895,1.06,76.346,1.325c26.615,0.278,53.233,0.231,79.85,0.316
			C291.054,139.618,297.613,139.599,304.172,139.599z"/>
		<path fill-rule="evenodd" clip-rule="evenodd" d="M482.479,182.12c1.249-0.953,2.122-1.619,2.893-2.207
			c6.153,1.806,3.552,8.904,7.991,13.001c0.896-2.891,1.714-5.112,2.262-7.398c0.933-3.887,3.537-5.174,7.858-3.324
			c-1.283,2.974-2.661,5.929-3.84,8.962c-1.629,4.186-3.047,8.452-4.672,12.639c-0.971,2.503-1.799,5.208-3.408,7.259
			c-0.863,1.101-3.226,1.196-4.949,1.364c-0.673,0.065-2.07-0.943-2.05-1.416c0.047-1.091,0.495-2.408,1.245-3.184
			c4.369-4.512,4.63-6.116,2.114-11.964C485.996,191.374,484.317,186.787,482.479,182.12z"/>
		<path fill-rule="evenodd" clip-rule="evenodd" d="M423.971,184.756c1.855-1.973,3.148-3.879,4.928-5.039
			c1.097-0.716,2.937-0.293,4.442-0.382c-0.137,1.325,0.029,2.787-0.491,3.938c-0.606,1.338-2.002,2.3-2.727,3.606
			c-2.34,4.225-1.633,6.892,1.709,10.366c0.933,0.969,0.679,3.079,0.968,4.666c-1.322-0.096-2.913,0.239-3.91-0.381
			c-1.779-1.106-3.199-2.789-5.288-4.706c-3.097,0.276-4.441,8.185-10.277,3.426c1.92-2.73,3.89-5.324,5.599-8.082
			c0.557-0.9,0.925-2.462,0.518-3.305c-0.936-1.937-2.265-3.737-3.69-5.368c-1.447-1.653-2.187-3.602-0.204-4.663
			c0.998-0.534,3.311,0.738,4.667,1.703C421.619,181.536,422.588,183.151,423.971,184.756z"/>
		<path fill-rule="evenodd" clip-rule="evenodd" d="M259.591,51.539c3.315,0.077,6.852-2.579,8.864,1.762
			c2.096-0.798,4.147-1.839,6.322-2.294c1.009-0.211,2.258,0.716,3.397,1.128c-0.739,1.176-1.2,2.891-2.263,3.437
			c-5.622,2.887-6.051,3.78-3.852,10.639c1.164-0.253,2.342-0.509,3.578-0.778c1.971,2.046,0.508,4.19-0.929,4.381
			c-2.114,0.282-2.879,4.845-5.688,1.82c-1.369-1.475-2.433-3.233-3.507-4.689c-2.707,2.069-5.195,3.969-8.413,6.427
			c-0.323-2.533-0.542-4.245-0.754-5.908c6.211-1.679,7.951-3.224,7.97-6.874C264.337,56.867,263.255,53.683,259.591,51.539z"/>
		<path fill-rule="evenodd" clip-rule="evenodd" d="M44.147,251.975c4.76-3.52,7.432-8.074,5.774-14.442
			c3.979-0.946,5.91,0.549,5.182,4.137c-0.5,2.462-1.6,5.026-3.128,7.008c-2.628,3.407-5.811,6.384-8.739,9.563
			c-2.298,2.495-4.457,5.133-6.91,7.463c-0.703,0.669-2.214,0.484-4.417,0.885c1.383-1.803,1.803-2.905,2.566-3.256
			c5.19-2.378,5.495-6.687,5.081-11.561c-0.427-5.016-0.471-10.062-4.446-14.057c6.217-2.026,7.768-1.012,7.835,4.592
			c0.036,3.005,0.006,6.011,0.006,9.016C43.351,251.539,43.749,251.758,44.147,251.975z"/>
		<path fill-rule="evenodd" clip-rule="evenodd" d="M102.47,51.915c1.989-1.045,3.472-2.024,5.101-2.574
			c0.58-0.196,1.701,0.476,2.243,1.059c1.04,1.119,1.842,2.458,3.074,4.162c1.482-3.644,3.947-4.364,6.799-3.576
			c0.644,0.178,0.932,1.644,1.576,2.886c-3.049,0.321-5.793-0.617-6.783,2.72c-0.977,3.289-0.795,6.29,1.198,9.233
			c0.974-0.243,1.877-0.469,2.585-0.646c1.621,0.906,0.929,1.792-5.657,7.53c-1.173-2.311-2.296-4.522-3.685-7.255
			c-2.501,3.029-4.572,7.288-10.466,3.858c2.084-1.058,3.935-1.536,5.099-2.699c1.701-1.699,3.778-3.746,4.137-5.903
			C108.323,56.913,107.645,52.991,102.47,51.915z"/>
		<path fill-rule="evenodd" clip-rule="evenodd" d="M457.792,189.561c-3.406,0.286-5.985,0.727-8.533,0.589
			c-0.855-0.046-2.458-2.079-2.304-2.328c0.768-1.24,1.964-3.039,3.086-3.095c5.581-0.278,11.192-0.192,16.778,0.067
			c1.117,0.052,2.173,1.412,3.223,2.146C468.087,190.979,460.688,191.929,457.792,189.561z"/>
		<path fill-rule="evenodd" clip-rule="evenodd" d="M470.433,195.309c-1.152,0.622-2.29,1.742-3.463,1.781
			c-5.341,0.176-10.702,0.207-16.036-0.076c-1.417-0.075-2.766-1.45-4.146-2.228c1.387-0.901,2.739-2.508,4.166-2.577
			c4.959-0.24,9.949-0.044,14.916,0.205c1.452,0.073,2.866,0.872,4.298,1.337C470.256,194.271,470.344,194.789,470.433,195.309z"/>
		<path fill-rule="evenodd" clip-rule="evenodd" fill="#FFFFFF" d="M77.246,374.986c0-10.448-0.015-20.295,0.003-30.142
			c0.023-12.246,0.032-24.493,0.167-36.739c0.018-1.645,0.809-3.269,1.104-4.927c0.231-1.302,0.731-2.843,0.279-3.932
			c-2.348-5.655-1.477-11.249-0.589-17.027c0.534-3.476-0.405-7.151-0.253-10.719c0.235-5.517,0.941-11.013,1.247-16.528
			c0.213-3.854,0.101-7.728,0.119-11.592c0.12-25.991,0.23-51.982,0.356-77.974c0.031-6.229,0.211-12.458,0.125-18.685
			c-0.037-2.614,0.868-3.46,3.48-3.449c25.991,0.119,51.983,0.079,77.975,0.214c7.438,0.039,14.872,0.676,22.31,0.735
			c37.865,0.303,75.731,0.505,113.596,0.744c2.372,0.015,4.749,0.143,7.115,0.038c3.085-0.136,4.749,1.245,4.797,4.298
			c0.115,7.357,0.218,14.717,0.167,22.074c-0.056,8.099-0.197,16.2-0.476,24.294c-0.169,4.933-1.397,9.935-0.863,14.764
			c1.078,9.733-0.866,19.321-0.497,29.01c0.37,9.726-0.157,19.483-0.242,29.228c-0.212,24.596-0.393,49.192-0.595,73.789
			c-0.084,10.343-0.211,20.686-0.267,31.029c-0.017,3.146-1.017,4.817-4.617,4.689c-18.425-0.653-36.854-1.379-55.287-1.614
			c-25.238-0.32-50.483-0.093-75.723-0.345c-20.849-0.208-41.694-0.812-62.542-1.156c-8.494-0.14-16.993-0.059-25.489-0.078
			C81.038,374.982,79.432,374.986,77.246,374.986z M196.508,175.263c-1.72-0.547-4.069-0.797-4.167-1.41
			c-0.405-2.522-0.488-5.243,0.118-7.691c0.183-0.739,3.057-0.646,4.536-1.299c0.805-0.355,1.817-1.51,1.774-2.248
			c-0.087-1.491-0.76-2.976-1.404-4.365c-0.067-0.146-1.774,0.118-2.352,0.618c-2.909,2.518-5.673,3.956-8.461-0.118
			c-0.26-0.38-0.761-0.596-1.116-0.862c-1.708,0.816-3.29,1.572-5.092,2.434c0.966,0.861,1.755,1.415,2.357,2.125
			c3.117,3.685,4.221,9.467-0.5,12.177c-1.22,0.701-2.359,1.542-3.535,2.319c-1.656,1.094-2.19,2.436-0.52,3.875
			c1.687,1.454,2.693,0.535,3.889-1.028c1.353-1.77,3.242-3.129,5.146-4.897c2.14,6.574,2.603,7.157,4.908,6.685
			C193.697,181.249,196.714,176.192,196.508,175.263z"/>
		<path fill-rule="evenodd" clip-rule="evenodd" fill="#FFFFFF" d="M304.172,139.599c-6.559,0-13.118,0.019-19.677-0.003
			c-26.617-0.085-53.235-0.039-79.85-0.316c-25.451-0.265-50.897-0.875-76.346-1.325c-6.489-0.114-12.985-0.059-19.464-0.359
			c-3.032-0.142-6.024-1.008-9.052-1.414c-1.077-0.144-2.217,0.023-3.308,0.186c-2.771,0.413-5.521,0.967-8.299,1.313
			c-0.58,0.072-1.631-0.376-1.779-0.815c-0.243-0.725-0.252-1.971,0.206-2.417c2.888-2.814,5.965-5.432,8.91-8.189
			c1.726-1.616,3.372-3.325,4.968-5.071c3.107-3.399,5.979-7.034,9.27-10.242c4.049-3.947,8.574-7.406,12.616-11.359
			c3.784-3.7,7.094-7.879,10.819-11.645c3.44-3.478,7.22-6.619,10.722-10.039c2.012-1.965,3.709-4.247,5.657-6.282
			c1.867-1.951,3.84-3.808,5.83-5.636c3.225-2.965,6.624-5.749,9.719-8.84c2.739-2.737,5.125-5.826,7.745-8.688
			c1.423-1.555,3.003-2.967,4.521-4.436c2.812-2.718,5.612-5.447,8.449-8.14c2.206-2.094,4.304-4.346,6.733-6.147
			c2.416-1.791,6.027-0.368,8.415,2.244c3.792,4.147,7.933,7.973,11.848,12.011c1.437,1.481,2.675,3.159,3.95,4.789
			c0.372,0.476,0.422,1.251,0.851,1.625c4.338,3.795,8.82,7.431,13.057,11.335c2.107,1.942,3.655,4.478,5.686,6.517
			c3.909,3.922,7.979,7.682,11.988,11.504c0.174,0.166,0.489,0.229,0.591,0.419c3.757,7.024,10.519,11.289,15.658,17.044
			c4.406,4.934,8.849,9.851,13.534,14.516c2.739,2.728,5.981,4.952,9.01,7.387c0.28,0.226,0.896,0.288,0.943,0.512
			c1.374,6.596,8.934,7.986,11.489,13.726c0.926,2.078,3.346,3.492,5.084,5.208C304.501,138.914,304.336,139.256,304.172,139.599z"
			/>
		<path fill-rule="evenodd" clip-rule="evenodd" d="M196.508,175.263c0.206,0.929-2.812,5.985-4.42,6.315
			c-2.305,0.472-2.768-0.111-4.908-6.685c-1.904,1.768-3.793,3.127-5.146,4.897c-1.196,1.563-2.202,2.482-3.889,1.028
			c-1.671-1.44-1.137-2.781,0.52-3.875c1.176-0.777,2.315-1.618,3.535-2.319c4.721-2.71,3.617-8.492,0.5-12.177
			c-0.602-0.711-1.391-1.264-2.357-2.125c1.803-0.862,3.384-1.618,5.092-2.434c0.354,0.266,0.855,0.482,1.116,0.862
			c2.788,4.074,5.552,2.636,8.461,0.118c0.578-0.5,2.285-0.763,2.352-0.618c0.644,1.389,1.317,2.875,1.404,4.365
			c0.042,0.738-0.969,1.893-1.774,2.248c-1.479,0.653-4.353,0.56-4.536,1.299c-0.606,2.448-0.523,5.169-0.118,7.691
			C192.439,174.466,194.789,174.716,196.508,175.263z"/>
	</g>
</g>
</svg>
