<?xml version="1.0" encoding="utf-8"?>
<!-- Generator: Adobe Illustrator 16.0.0, SVG Export Plug-In . SVG Version: 6.00 Build 0)  -->
<!DOCTYPE svg PUBLIC "-//W3C//DTD SVG 1.1//EN" "http://www.w3.org/Graphics/SVG/1.1/DTD/svg11.dtd">
<svg version="1.1" id="Layer_1" xmlns="http://www.w3.org/2000/svg" xmlns:xlink="http://www.w3.org/1999/xlink" x="0px" y="0px"
	 width="527.323px" height="428.31px" viewBox="0 0 527.323 428.31" enable-background="new 0 0 527.323 428.31"
	 xml:space="preserve">
<g>
	<g>
		<path fill-rule="evenodd" clip-rule="evenodd" fill="#FFFFFF" d="M0.75,429.06c0-142.77,0-285.54,0-428.31
			c175.774,0,351.549,0,527.323,0c0,142.77,0,285.539,0,428.31C352.3,429.06,176.524,429.06,0.75,429.06z M294.735,280.68
			c0.393-0.528,0.785-1.059,1.179-1.587c1.574-3.383,3.268-6.715,4.701-10.155c6.06-14.548,9.198-29.776,10.266-45.452
			c0.07-1.031-0.703-2.122-1.085-3.186c-0.612,1.011-1.568,1.951-1.786,3.039c-2.361,11.854-4.214,23.826-7.046,35.563
			c-1.483,6.146-4.629,11.89-7.188,18.218c-1.383-1.173-1.985-1.61-2.501-2.134c-9.344-9.47-18.646-18.981-28.02-28.421
			c-15.195-15.301-30.458-30.536-45.638-45.854c-2.165-2.186-5.076-4.147-3.257-8.19c0.394-0.874-0.761-2.483-1.292-3.716
			c-0.337-0.782-1.133-1.462-1.218-2.242c-0.64-5.898-1.465-11.801-1.646-17.72c-0.409-13.353-0.461-26.716-0.72-40.075
			c-0.022-1.18-0.492-2.352-0.754-3.529c-0.525,0.029-1.051,0.057-1.576,0.086c-0.965,5.887-0.225,11.887-0.233,17.837
			c-0.008,6.082-0.001,12.163-0.001,18.245c-6.535-21.945-14.229-42.812-34.8-56.379c10.535-0.602,20.951-0.544,31.365-0.617
			c10.49-0.073,20.978-0.291,31.467-0.416c10.37-0.123,20.739-0.217,31.108-0.308c10.49-0.092,20.982-0.197,31.473-0.234
			c10.216-0.037,20.435,0.052,30.618-0.562c-0.018-0.42-0.034-0.842-0.052-1.262c-52.658,0-105.317,0-158.885,0
			c2.406-0.941,3.976-1.636,5.597-2.176c8.99-2.987,17.991-5.946,26.993-8.896c5.675-1.86,11.345-3.735,17.043-5.523
			c8.57-2.69,17.188-5.226,25.737-7.979c10.38-3.343,20.344-7.132,31.818-6.958c29.465,0.448,58.948-0.495,88.425-0.697
			c8.981-0.062,17.547-2.059,26.025-4.589c5.379-1.605,7.1-4.113,7.097-9.792c-0.003-10.493-0.175-20.986-0.263-31.479
			c-0.05-5.915-1.555-7.657-7.323-9.617c-10.971-3.726-22.46-3.817-33.716-3.947c-26.723-0.309-53.457,0.41-80.187,0.748
			c-24.615,0.311-49.231,0.575-73.843,1.047c-10.351,0.198-20.713,0.618-30.357,5.272c-3.046,1.469-4.722,3.408-4.663,6.889
			c0.19,11.363,0.479,22.729,0.311,34.089c-0.062,4.121,1.651,6.613,5.125,7.669c5.571,1.696,11.264,3.076,16.986,4.158
			c3.928,0.742,7.994,0.752,11.998,1.089c0.103,0.337,0.206,0.676,0.309,1.015c-13.542,9.799-27.085,19.597-40.613,29.386
			c-4.366-3.412-4.926-3.359-9.186,0.039c-0.807,0.644-2.017,1.077-3.05,1.095c-11.105,0.201-22.214,0.314-33.321,0.42
			c-10.611,0.102-21.224,0.139-31.834,0.283c-1.403,0.019-2.801,0.494-4.201,0.759c0.049,0.48,0.099,0.96,0.147,1.441
			c20.963,0,41.926,0,63.466,0c-3.844,3.12-7.245,5.461-10.146,8.312c-9.59,9.424-15.154,21.244-19.237,33.81
			c-5.57,17.148-7.819,34.805-7.398,52.803c0.026,1.14,0.865,2.261,1.326,3.392c0.477-1.107,1.372-2.216,1.368-3.321
			c-0.085-21.685,2.849-42.799,11.463-62.896c4.954-11.555,12.178-21.353,22.693-28.36c3.143-2.093,6.745-4.336,10.868-0.669
			c0.955,0.85,3.965-0.519,5.996-1.008c1.214-0.292,2.512-1.443,3.51-1.187c2.636,0.677,5.366,1.54,7.638,2.989
			c9.379,5.981,16.218,14.347,21.208,24.174c8.078,15.903,12.058,32.978,13.752,50.629c0.136,1.42-0.401,3.155-1.199,4.367
			c-1.836,2.787-2.056,5.181,0.326,7.775c0.837,0.911,1.54,2.332,1.57,3.538c0.356,13.969,0.619,27.942,0.809,41.914
			c0.154,11.363,0.146,22.729,0.292,34.093c0.018,1.395,0.544,2.783,0.835,4.175c0.419-0.059,0.839-0.118,1.26-0.177
			c0-11.707,0-23.415,0-35.123c7.104,22.495,14.61,44.428,36.409,57.579c-0.126,0.279-0.251,0.559-0.376,0.838
			c-41.258,0.381-82.515,0.761-123.772,1.142c0.005,0.705,0.01,1.41,0.016,2.114c42.649,0.096,85.303-0.7,127.993-0.569
			c-0.592,0.803-1.187,1.308-1.867,1.485c-7.357,1.918-14.735,3.752-22.09,5.677c-4.577,1.198-9.116,2.542-13.687,3.768
			c-5.095,1.365-10.199,2.697-15.31,3.999c-11.97,3.049-23.955,6.042-35.919,9.113c-9.839,2.525-19.33,6.135-29.812,6.221
			c-32.978,0.268-65.957,0.84-98.921,1.791c-6.598,0.191-13.216,2.27-19.667,4.049c-4.622,1.275-7.013,4.61-6.81,9.844
			c0.407,10.482,0.432,20.979,0.627,31.471c0.109,5.847,2.378,8.799,8.053,10.341c9.691,2.634,19.521,3.939,29.609,3.703
			c13.241-0.309,26.492-0.177,39.737-0.323c21.358-0.238,42.716-0.566,64.074-0.825c17.224-0.208,34.452-0.208,51.671-0.611
			c9.962-0.234,19.991-0.633,29.432-4.457c3.335-1.351,7.291-2.601,7.299-7.048c0.024-12.238-0.287-24.479-0.468-36.718
			c-0.048-3.257-1.766-5.152-4.66-6.561c-7.015-3.414-14.495-4.402-22.127-4.831c-1.898-0.106-3.797-0.205-5.695-0.308
			c3.185-2.47,6.482-4.105,9.776-5.748c9.342-4.661,18.644-9.405,28.037-13.96c7.474-3.625,14.809-7.854,22.684-10.224
			c5.271-1.586,11.542-1.183,17.038-0.063c2.404,0.49,3.98,5.004,5.948,7.679c0.738,1.001,1.585,1.927,2.274,2.959
			c10.022,15.001,20.041,30.006,30.027,45.031c2.501,3.764,4.885,7.604,7.596,11.836c-3.332,0.223-6.051,0.37-8.764,0.593
			c-7.947,0.651-16,0.69-23.352,4.539c-2.718,1.422-4.112,3.306-4.02,6.507c0.276,9.484,0.483,18.974,0.465,28.461
			c-0.006,2.979,1.127,4.493,3.749,5.674c10.426,4.693,21.583,5.206,32.632,5.173c31.479-0.093,62.955-0.772,94.433-1.109
			c20.865-0.223,41.732-0.275,62.599-0.355c9.583-0.037,18.856-1.759,27.915-4.797c3.309-1.108,5.101-3.058,4.96-6.887
			c-0.289-7.854-0.182-15.721-0.307-23.582c-0.157-9.872-1.349-11.277-11.113-13.433c-0.609-0.135-1.229-0.226-1.847-0.324
			c-19.117-3.032-38.385-2.037-57.603-1.974c-18.1,0.061-36.207,0.323-54.291,1.018c-5.42,0.209-8.715-1.962-12.13-5.59
			c-9.55-10.147-19.337-20.073-29.113-30.006c-9.867-10.021-19.837-19.94-29.738-29.929c-0.464-0.468-0.695-1.168-1.629-2.796
			c17.265,0,33.683,0,50.101,0c0.025-0.516,0.051-1.031,0.076-1.546c-1.316-0.188-2.635-0.542-3.95-0.535
			c-14.092,0.075-28.188,0.414-42.274,0.17c-3.253-0.057-7.096-1.29-9.588-3.313C307.944,293.232,301.45,286.82,294.735,280.68z
			 M366.625,297.787c0.647-1.632,1.158-4.185,1.747-4.202c4.303-0.132,6.219-3.343,7.791-5.355c1.581,1.672,2.823,3.924,4.637,4.569
			c1.209,0.431,3.232-1.427,4.892-2.262c-0.145-0.259-0.288-0.517-0.433-0.776c-1.541,0.088-3.082,0.175-4.623,0.263
			c-0.112-0.427-0.225-0.853-0.338-1.28c1.19-0.535,2.388-1.058,3.571-1.609c2.12-0.991,3.823-2.553,2.607-4.933
			c-1.228-2.402-3.552-1.42-5.208-0.369c-1.446,0.918-2.518,2.429-3.889,3.813c-1.295-4.316-5.657-6.112-9.414-4.194
			c-0.47,0.239-0.918,0.855-1.048,1.379c-1.211,4.873-2.351,9.765-3.585,14.958C364.452,297.787,365.696,297.787,366.625,297.787z
			 M415.647,286.111c0.218,2.988,0.927,5.592,4.078,6.148c2.853,0.504,4.682-1.465,5.596-3.961c0.889-2.43,1.577-4.965,2.042-7.511
			c0.478-2.617-0.627-5.354-3.167-5.49c-1.979-0.106-4.729,1.465-5.946,3.149C416.74,280.538,416.459,283.516,415.647,286.111z
			 M357.837,105.083c-1.428-3.798-0.561-5.23,3.162-5.428c3.45-0.184,6.575-4.609,5.837-7.899c-0.273-1.223-1.797-2.815-2.98-3.041
			c-2.078-0.397-4.333,0.127-6.12,0.241c-1.458,5.477-2.84,10.663-4.295,16.127C354.932,105.083,356.097,105.083,357.837,105.083z
			 M418.336,88.437c-1.295-2-2.113-4.592-3.805-5.434c-1.225-0.61-4.584,0.581-5.273,1.879c-1.58,2.986-2.532,6.486-2.862,9.863
			c-0.133,1.366,1.75,3.647,3.222,4.228c1.206,0.475,3.858-0.48,4.645-1.635C415.95,94.857,416.85,91.839,418.336,88.437z
			 M360.81,281.077c-3.202-0.067-6.707,3.547-6.887,7.1c-0.14,2.747,1.849,5.282,4.14,5.279c3.076-0.003,6.769-4.166,6.86-7.777
			C364.995,282.875,363.811,281.153,360.81,281.077z M370.879,96.884c-0.055-0.27-0.109-0.541-0.165-0.813
			c1.289-0.642,2.921-0.991,3.778-2c1.052-1.235,1.456-3.022,2.14-4.57c-1.614-0.204-3.792-1.157-4.722-0.455
			c-1.845,1.394-3.576,3.524-4.231,5.69c-0.397,1.313,0.89,4.097,2.164,4.736c1.994,1,4.463,0.417,5.763-2.589
			C373.748,96.884,372.313,96.884,370.879,96.884z M354.936,92.567c0.217-2.345-0.935-3.898-3.785-4.036
			c-3.327-0.161-7.202,3.753-7.126,7.313c0.058,2.709,1.521,4.148,4.235,4.174C352.089,100.056,354.826,97.125,354.936,92.567z
			 M345.091,285.352c0.358-0.179,0.716-0.356,1.073-0.535c-0.463-1.143-0.823-3.186-1.411-3.254
			c-1.588-0.184-3.873-0.046-4.738,0.954c-0.732,0.848-0.001,3.104,0.334,4.685c0.255,1.202,0.905,2.321,1.381,3.479
			c-0.264,0.095-0.525,0.19-0.788,0.285c-0.888-0.684-1.775-1.366-2.662-2.05c-0.405,0.204-0.81,0.409-1.215,0.613
			c0.51,1.268,0.88,3.511,1.558,3.608c1.624,0.232,4.101,0,4.913-1.058c0.898-1.17,0.548-3.501,0.304-5.265
			c-0.134-0.961-1.178-1.795-1.811-2.687c0.208-0.159,0.414-0.318,0.621-0.477C343.463,284.218,344.276,284.785,345.091,285.352z
			 M332.977,90.979c0.753,0.524,1.697,1.18,2.641,1.836c0.306-0.117,0.612-0.235,0.918-0.353c-0.211-1.122-0.266-3.14-0.661-3.209
			c-1.741-0.306-3.737-0.439-5.312,0.189c-0.671,0.268-0.954,2.652-0.661,3.899c0.363,1.547,1.506,2.912,2.312,4.354
			c-0.315,0.208-0.629,0.416-0.944,0.623c-0.911-0.659-1.821-1.318-3.124-2.26c-0.449,1.208-0.792,2.129-1.611,4.33
			c3.162-0.595,6.938-0.636,7.12-1.466C334.192,96.468,333.312,93.702,332.977,90.979z M353.432,277.18
			c-0.226-0.313-0.593-1.32-1.257-1.586c-0.508-0.203-1.909,0.403-2.026,0.873c-1.139,4.555-2.153,9.144-3.039,13.754
			c-0.161,0.84,0.26,1.929,0.747,2.686c0.192,0.299,1.688,0.271,1.922-0.068c0.61-0.891,1.001-2.005,1.202-3.083
			c0.216-1.156-0.06-2.41,0.188-3.557C351.77,283.399,352.549,280.638,353.432,277.18z M343.43,84.579
			c-0.091-0.155-0.587-1.372-0.818-1.324c-0.812,0.171-2.045,0.637-2.207,1.238c-1.127,4.177-2.072,8.405-2.952,12.643
			c-0.15,0.725,0.076,1.75,0.534,2.299c0.29,0.348,1.588,0.358,1.974,0.01c0.627-0.567,1.092-1.514,1.238-2.367
			c0.237-1.375-0.01-2.836,0.252-4.203C341.938,90.319,342.646,87.803,343.43,84.579z M407.583,286.498
			c-0.011-0.326-0.022-0.652-0.033-0.979c-3.72,0-7.44,0-11.16,0c0.002,0.326,0.003,0.652,0.005,0.979
			C400.124,286.498,403.854,286.498,407.583,286.498z M407.682,283.176c0-0.34,0-0.682,0-1.022c-3.82,0-7.639,0-11.457,0
			c0,0.341,0,0.683,0,1.022C400.043,283.176,403.861,283.176,407.682,283.176z M398.204,93.933c0.021-0.304,0.041-0.608,0.062-0.911
			c-3.858,0-7.716,0-11.573,0c0.009,0.303,0.02,0.607,0.03,0.911C390.55,93.933,394.377,93.933,398.204,93.933z M386.979,89.123
			c0.001,0.3,0.001,0.599,0.003,0.899c3.577,0,7.153,0,10.729,0c0-0.3-0.001-0.599-0.003-0.899
			C394.133,89.123,390.556,89.123,386.979,89.123z"/>
		<path fill-rule="evenodd" clip-rule="evenodd" d="M294.735,280.68c6.715,6.141,13.209,12.553,20.263,18.275
			c2.492,2.022,6.335,3.256,9.588,3.313c14.086,0.244,28.183-0.095,42.274-0.17c1.315-0.007,2.634,0.348,3.95,0.535
			c-0.025,0.515-0.051,1.03-0.076,1.546c-16.418,0-32.836,0-50.101,0c0.934,1.628,1.165,2.328,1.629,2.796
			c9.901,9.988,19.871,19.907,29.738,29.929c9.776,9.933,19.563,19.858,29.113,30.006c3.415,3.628,6.71,5.799,12.13,5.59
			c18.084-0.694,36.191-0.957,54.291-1.018c19.218-0.063,38.485-1.059,57.603,1.974c0.617,0.099,1.237,0.189,1.847,0.324
			c9.765,2.155,10.956,3.561,11.113,13.433c0.125,7.861,0.018,15.729,0.307,23.582c0.141,3.829-1.651,5.778-4.96,6.887
			c-9.059,3.038-18.332,4.76-27.915,4.797c-20.866,0.08-41.733,0.133-62.599,0.355c-31.478,0.337-62.954,1.017-94.433,1.109
			c-11.049,0.033-22.206-0.479-32.632-5.173c-2.622-1.181-3.755-2.695-3.749-5.674c0.019-9.487-0.188-18.977-0.465-28.461
			c-0.093-3.201,1.302-5.085,4.02-6.507c7.352-3.849,15.404-3.888,23.352-4.539c2.713-0.223,5.432-0.37,8.764-0.593
			c-2.711-4.231-5.095-8.072-7.596-11.836c-9.986-15.025-20.005-30.03-30.027-45.031c-0.689-1.032-1.536-1.958-2.274-2.959
			c-1.968-2.675-3.544-7.188-5.948-7.679c-5.496-1.12-11.768-1.523-17.038,0.063c-7.875,2.369-15.21,6.599-22.684,10.224
			c-9.393,4.555-18.695,9.299-28.037,13.96c-3.293,1.643-6.591,3.278-9.776,5.748c1.898,0.103,3.797,0.201,5.695,0.308
			c7.632,0.429,15.113,1.417,22.127,4.831c2.894,1.408,4.611,3.304,4.66,6.561c0.181,12.239,0.492,24.479,0.468,36.718
			c-0.009,4.447-3.964,5.697-7.299,7.048c-9.441,3.824-19.469,4.223-29.432,4.457c-17.219,0.403-34.447,0.403-51.671,0.611
			c-21.358,0.259-42.716,0.587-64.074,0.825c-13.245,0.146-26.496,0.015-39.737,0.323c-10.088,0.236-19.918-1.069-29.609-3.703
			c-5.675-1.542-7.944-4.494-8.053-10.341c-0.195-10.492-0.22-20.988-0.627-31.471c-0.204-5.233,2.188-8.568,6.81-9.844
			c6.451-1.779,13.069-3.857,19.667-4.049c32.964-0.951,65.944-1.523,98.921-1.791c10.482-0.086,19.972-3.695,29.812-6.221
			c11.964-3.071,23.949-6.064,35.919-9.113c5.111-1.302,10.215-2.634,15.31-3.999c4.57-1.226,9.11-2.569,13.687-3.768
			c7.355-1.925,14.733-3.759,22.09-5.677c0.68-0.178,1.275-0.683,1.867-1.485c-42.689-0.131-85.344,0.665-127.993,0.569
			c-0.006-0.704-0.011-1.409-0.016-2.114c41.257-0.381,82.515-0.761,123.772-1.142c0.125-0.279,0.25-0.559,0.376-0.838
			c-21.798-13.151-29.305-35.084-36.409-57.579c0,11.708,0,23.416,0,35.123c-0.42,0.059-0.84,0.118-1.26,0.177
			c-0.291-1.392-0.817-2.78-0.835-4.175c-0.146-11.364-0.138-22.729-0.292-34.093c-0.19-13.972-0.453-27.944-0.809-41.914
			c-0.031-1.207-0.733-2.627-1.57-3.538c-2.382-2.594-2.163-4.988-0.326-7.775c0.798-1.212,1.335-2.946,1.199-4.367
			c-1.694-17.651-5.675-34.726-13.752-50.629c-4.991-9.827-11.83-18.193-21.208-24.174c-2.272-1.449-5.002-2.312-7.638-2.989
			c-0.998-0.256-2.296,0.896-3.51,1.187c-2.03,0.489-5.041,1.857-5.996,1.008c-4.123-3.667-7.725-1.424-10.868,0.669
			c-10.515,7.007-17.739,16.805-22.693,28.36c-8.614,20.097-11.549,41.211-11.463,62.896c0.004,1.105-0.891,2.214-1.368,3.321
			c-0.46-1.13-1.299-2.252-1.326-3.392c-0.42-17.998,1.829-35.655,7.398-52.803c4.083-12.566,9.646-24.386,19.237-33.81
			c2.901-2.851,6.302-5.192,10.146-8.312c-21.54,0-42.503,0-63.466,0c-0.049-0.481-0.099-0.96-0.147-1.441
			c1.4-0.265,2.798-0.74,4.201-0.759c10.61-0.144,21.223-0.181,31.834-0.283c11.107-0.106,22.215-0.22,33.321-0.42
			c1.034-0.018,2.244-0.451,3.05-1.095c4.26-3.398,4.82-3.451,9.186-0.039c13.528-9.789,27.071-19.587,40.613-29.386
			c-0.103-0.338-0.206-0.677-0.309-1.015c-4.004-0.337-8.07-0.347-11.998-1.089c-5.722-1.082-11.415-2.462-16.986-4.158
			c-3.474-1.057-5.186-3.548-5.125-7.669c0.168-11.359-0.12-22.726-0.311-34.089c-0.059-3.481,1.617-5.42,4.663-6.889
			c9.645-4.654,20.007-5.074,30.357-5.272c24.612-0.473,49.229-0.736,73.843-1.047c26.729-0.338,53.464-1.057,80.187-0.748
			c11.256,0.13,22.745,0.221,33.716,3.947c5.769,1.96,7.273,3.702,7.323,9.617c0.088,10.494,0.26,20.986,0.263,31.479
			c0.003,5.679-1.718,8.188-7.097,9.792c-8.479,2.531-17.044,4.528-26.025,4.589c-29.477,0.203-58.96,1.145-88.425,0.697
			c-11.475-0.174-21.438,3.614-31.818,6.958c-8.549,2.753-17.167,5.29-25.737,7.979c-5.698,1.788-11.368,3.663-17.043,5.523
			c-9.002,2.951-18.002,5.91-26.993,8.896c-1.621,0.54-3.191,1.234-5.597,2.176c53.568,0,106.227,0,158.885,0
			c0.018,0.42,0.034,0.842,0.052,1.262c-10.184,0.614-20.402,0.525-30.618,0.562c-10.49,0.037-20.982,0.143-31.473,0.234
			c-10.369,0.091-20.739,0.185-31.108,0.308c-10.489,0.125-20.978,0.342-31.467,0.416c-10.414,0.072-20.83,0.015-31.365,0.617
			c20.571,13.567,28.265,34.434,34.8,56.379c0-6.082-0.007-12.163,0.001-18.245c0.008-5.95-0.732-11.951,0.233-17.837
			c0.525-0.029,1.051-0.057,1.576-0.086c0.262,1.177,0.732,2.349,0.754,3.529c0.259,13.358,0.312,26.722,0.72,40.075
			c0.181,5.919,1.006,11.822,1.646,17.72c0.085,0.78,0.881,1.46,1.218,2.242c0.531,1.232,1.686,2.842,1.292,3.716
			c-1.819,4.042,1.092,6.004,3.257,8.19c15.18,15.318,30.442,30.553,45.638,45.854c9.374,9.439,18.676,18.951,28.02,28.421
			c0.516,0.523,1.118,0.961,2.501,2.134c2.559-6.328,5.704-12.072,7.188-18.218c2.832-11.737,4.685-23.709,7.046-35.563
			c0.218-1.088,1.174-2.028,1.786-3.039c0.382,1.063,1.155,2.154,1.085,3.186c-1.067,15.676-4.206,30.904-10.266,45.452
			c-1.434,3.44-3.127,6.772-4.701,10.155C295.521,279.621,295.128,280.151,294.735,280.68z M331.418,373.957
			c-0.242,0.383-0.484,0.767-0.728,1.15c-3.956,0.212-7.953,0.139-11.859,0.699c-6.758,0.97-13.488,2.19-20.166,3.607
			c-2.249,0.477-4.542,1.533-4.476,4.693c0.195,9.364,0.313,18.73,0.407,28.096c0.026,2.698,1.024,4.205,3.812,5.113
			c9.123,2.977,18.454,4.161,27.991,4.068c24.978-0.245,49.955-0.544,74.934-0.753c25.485-0.214,50.972-0.419,76.457-0.483
			c10.92-0.028,21.618-1.606,32.229-3.928c4.873-1.066,5.651-2.222,5.596-7.217c-0.087-7.743-0.255-15.486-0.336-23.23
			c-0.063-6.187-1.085-7.696-7.066-9.307c-2.396-0.645-4.904-1.153-7.374-1.213c-17.966-0.436-35.933-0.949-53.901-1.031
			c-19.237-0.088-38.477,0.325-57.714,0.349c-1.931,0.002-4.328-0.659-5.711-1.901c-4.799-4.313-9.311-8.956-13.816-13.585
			c-16.174-16.614-32.266-33.308-48.492-49.869c-1.805-1.842-4.219-4.203-6.449-4.313c-8.59-0.424-17.222-0.04-25.836,0.075
			c-0.774,0.01-1.545,0.252-2.775,0.466C301.421,328.563,316.42,351.26,331.418,373.957z M247.138,310.512
			c-7.126,1.682-13.268,2.981-19.327,4.589c-16.26,4.313-32.492,8.736-48.722,13.162c-8.892,2.424-17.737,5.018-26.644,7.382
			c-3.967,1.053-8.021,2.4-12.056,2.47c-26.472,0.458-52.949,0.656-79.426,0.833c-14.494,0.097-28.951,0.328-43.129,3.927
			c-6.313,1.603-8.383,3.98-8.322,10.216c0.101,10.115,0.376,20.233,0.242,30.345c-0.051,3.81,1.439,6.098,4.894,6.853
			c6.92,1.514,13.893,3.787,20.866,3.872c27.349,0.331,54.707-0.009,82.061-0.209c27.6-0.203,55.198-0.564,82.797-0.795
			c9.672-0.081,19.122-1.42,28.357-4.319c4.824-1.516,6.005-2.834,5.975-8.017c-0.057-9.857-0.398-19.714-0.391-29.572
			c0.006-6.912-0.873-7.873-7.409-9.966c-8.586-2.752-17.347-3.246-26.224-3.266c-1.235-0.003-2.469-0.464-3.704-0.712
			c-0.108-0.465-0.216-0.931-0.325-1.396C212.838,326.981,229.787,319.507,247.138,310.512z M173.681,96.025
			c0.169,0.253,0.338,0.506,0.507,0.759c3.76-1.181,7.529-2.335,11.279-3.547c13.994-4.521,27.987-9.043,41.968-13.603
			c8.054-2.627,16.012-5.579,24.15-7.907c6.192-1.772,12.575-3.826,18.914-3.974c31.192-0.727,62.401-0.642,93.594-1.343
			c8.287-0.186,16.579-1.885,24.782-3.369c5.346-0.967,6.728-3.298,6.668-8.594c-0.11-9.611-0.182-19.221-0.255-28.833
			c-0.052-6.918-0.067-7.096-6.61-9.425c-2.919-1.04-5.965-2.088-9.016-2.317c-8.705-0.653-17.443-1.254-26.167-1.222
			c-29.103,0.109-58.205,0.504-87.307,0.789c-20.729,0.203-41.459,0.373-62.188,0.62c-10.147,0.121-20.143,1.227-29.768,4.773
			c-3.077,1.135-4.125,3.133-4.066,6.27c0.196,10.359,0.25,20.722,0.352,31.083c0.051,5.239,0.902,6.592,5.95,8.05
			c9.016,2.603,18.156,4.496,27.634,4.161c1.369-0.048,2.752,0.357,4.129,0.554c0.193,0.47,0.386,0.94,0.58,1.41
			C197.1,78.916,185.39,87.471,173.681,96.025z M211.289,198.999c-0.322,1.781-0.583,2.583-0.594,3.389
			c-0.176,13.009,0.646,25.949,3.494,38.665c3.84,17.146,8.99,33.735,20.906,47.372c4.688,5.365,9.981,9.751,16.848,11.869
			c1.064,0.328,2.957-0.101,3.672-0.895c3.474-3.854,5.49-3.897,9.091,0.15c0.499,0.561,1.425,1.275,1.987,1.153
			c2.301-0.499,4.623-1.096,6.772-2.035c2.356-1.028,3.613-2.67,1.438-5.187c-0.974-1.127-1.759-2.421-2.587-3.667
			c-9.298-14.008-18.553-28.047-27.895-42.027c-7.82-11.705-15.728-23.352-23.623-35.006
			C217.839,208.411,214.805,204.089,211.289,198.999z M279.539,295.54c4.134-5.275,7.848-9.871,11.334-14.634
			c0.479-0.655,0.244-2.521-0.363-3.174c-4.569-4.913-9.277-9.697-14.011-14.456c-15.705-15.792-31.437-31.557-47.163-47.327
			c-2.158-2.164-4.343-4.301-6.516-6.451c-0.226,0.215-0.451,0.431-0.677,0.646C241.02,238.229,259.895,266.313,279.539,295.54z
			 M281.145,298.027c1.278,3.14,3.372,5.104,7.648,4.782c5.959-0.448,11.974-0.168,17.965-0.192c2.282-0.01,4.564-0.001,7.871-0.001
			c-7.467-7.428-13.998-13.923-20.285-20.177C290.061,287.498,285.759,292.579,281.145,298.027z M280.656,302.55
			c-2.07-3.734-3.73-3.629-6.693,0C276.143,302.55,278.163,302.55,280.656,302.55z"/>
		<path fill-rule="evenodd" clip-rule="evenodd" d="M366.625,297.787c-0.929,0-2.173,0-3.292,0
			c1.234-5.193,2.374-10.085,3.585-14.958c0.13-0.523,0.578-1.14,1.048-1.379c3.757-1.918,8.119-0.122,9.414,4.194
			c1.371-1.384,2.442-2.895,3.889-3.813c1.656-1.051,3.98-2.033,5.208,0.369c1.216,2.38-0.487,3.941-2.607,4.933
			c-1.184,0.552-2.381,1.074-3.571,1.609c0.113,0.428,0.226,0.854,0.338,1.28c1.541-0.088,3.082-0.175,4.623-0.263
			c0.145,0.26,0.288,0.518,0.433,0.776c-1.659,0.835-3.683,2.692-4.892,2.262c-1.813-0.646-3.056-2.897-4.637-4.569
			c-1.572,2.013-3.488,5.224-7.791,5.355C367.783,293.603,367.272,296.155,366.625,297.787z M373.179,283.557
			c-3.883,1.213-4.651,3.832-4.314,7.24C372.921,289.938,374.183,287.857,373.179,283.557z"/>
		<path fill-rule="evenodd" clip-rule="evenodd" d="M415.647,286.111c0.812-2.596,1.093-5.573,2.603-7.664
			c1.217-1.685,3.968-3.256,5.946-3.149c2.54,0.137,3.645,2.873,3.167,5.49c-0.465,2.546-1.153,5.081-2.042,7.511
			c-0.914,2.496-2.743,4.465-5.596,3.961C416.574,291.703,415.865,289.1,415.647,286.111z M423.594,276.933
			c-2.791,1.36-6.165,10.623-4.573,12.952c0.291,0.425,1.859,0.557,2.327,0.183C423.76,288.147,425.073,279.824,423.594,276.933z"/>
		<path fill-rule="evenodd" clip-rule="evenodd" d="M357.837,105.083c-1.74,0-2.905,0-4.396,0c1.455-5.465,2.837-10.65,4.295-16.127
			c1.787-0.114,4.042-0.639,6.12-0.241c1.184,0.226,2.707,1.818,2.98,3.041c0.738,3.291-2.387,7.715-5.837,7.899
			C357.276,99.853,356.409,101.285,357.837,105.083z M362.289,89.369c-1.397,2.749-2.532,4.868-3.468,7.071
			c-0.065,0.154,1.511,1.488,2.041,1.329C363.312,97.033,364.377,92.921,362.289,89.369z"/>
		<path fill-rule="evenodd" clip-rule="evenodd" d="M418.336,88.437c-1.486,3.402-2.386,6.42-4.074,8.9
			c-0.786,1.155-3.438,2.11-4.645,1.635c-1.472-0.58-3.354-2.861-3.222-4.228c0.33-3.377,1.282-6.877,2.862-9.863
			c0.689-1.298,4.049-2.489,5.273-1.879C416.223,83.845,417.041,86.437,418.336,88.437z M413.854,84.164
			c-3.106,1.979-5.969,9.643-4.684,12.596c0.2,0.46,1.966,0.849,2.364,0.511C413.997,95.187,415.291,87.721,413.854,84.164z"/>
		<path fill-rule="evenodd" clip-rule="evenodd" d="M360.812,281.074c2.999,0.079,4.184,1.801,4.111,4.604
			c-0.092,3.611-3.784,7.774-6.86,7.777c-2.291,0.003-4.279-2.532-4.14-5.279C354.103,284.624,357.607,281.01,360.812,281.074z
			 M360.843,283.123c-4.199,3.055-4.666,4.482-2.698,7.731C361.734,289.215,362.632,286.843,360.843,283.123z"/>
		<path fill-rule="evenodd" clip-rule="evenodd" d="M370.879,96.884c1.435,0,2.869,0,4.727,0c-1.3,3.006-3.769,3.589-5.763,2.589
			c-1.274-0.639-2.562-3.422-2.164-4.736c0.655-2.166,2.387-4.297,4.231-5.69c0.93-0.702,3.107,0.251,4.722,0.455
			c-0.684,1.548-1.088,3.335-2.14,4.57c-0.857,1.009-2.489,1.358-3.778,2C370.77,96.343,370.824,96.614,370.879,96.884z"/>
		<path fill-rule="evenodd" clip-rule="evenodd" d="M354.936,92.567c-0.109,4.559-2.847,7.489-6.676,7.452
			c-2.715-0.026-4.178-1.465-4.235-4.174c-0.076-3.56,3.799-7.475,7.126-7.313C354.001,88.669,355.152,90.222,354.936,92.567z
			 M352.913,93.446c-1.062-1.468-1.64-2.266-2.218-3.065c-1.281,1.685-2.724,3.281-3.729,5.117
			c-0.246,0.449,0.937,1.681,1.462,2.554C349.857,96.583,351.287,95.115,352.913,93.446z"/>
		<path fill-rule="evenodd" clip-rule="evenodd" d="M345.091,285.352c-0.814-0.566-1.628-1.134-2.441-1.7
			c-0.207,0.158-0.413,0.317-0.621,0.477c0.633,0.892,1.677,1.726,1.811,2.687c0.244,1.764,0.595,4.095-0.304,5.265
			c-0.813,1.058-3.289,1.29-4.913,1.058c-0.678-0.098-1.048-2.341-1.558-3.608c0.405-0.204,0.81-0.409,1.215-0.613
			c0.887,0.684,1.774,1.366,2.662,2.05c0.263-0.095,0.524-0.19,0.788-0.285c-0.476-1.157-1.126-2.276-1.381-3.479
			c-0.335-1.58-1.066-3.837-0.334-4.685c0.865-1,3.15-1.138,4.738-0.954c0.588,0.068,0.948,2.111,1.411,3.254
			C345.807,284.995,345.449,285.173,345.091,285.352z"/>
		<path fill-rule="evenodd" clip-rule="evenodd" d="M332.977,90.979c0.335,2.722,1.216,5.489,0.677,7.944
			c-0.183,0.83-3.958,0.871-7.12,1.466c0.819-2.201,1.162-3.122,1.611-4.33c1.303,0.942,2.213,1.602,3.124,2.26
			c0.315-0.208,0.629-0.415,0.944-0.623c-0.806-1.443-1.948-2.808-2.312-4.354c-0.293-1.247-0.01-3.631,0.661-3.899
			c1.574-0.628,3.57-0.495,5.312-0.189c0.396,0.069,0.45,2.087,0.661,3.209c-0.306,0.117-0.612,0.235-0.918,0.353
			C334.674,92.16,333.729,91.503,332.977,90.979z"/>
		<path fill-rule="evenodd" clip-rule="evenodd" d="M353.432,277.18c-0.883,3.458-1.662,6.22-2.264,9.019
			c-0.247,1.146,0.028,2.4-0.188,3.557c-0.201,1.078-0.592,2.192-1.202,3.083c-0.233,0.339-1.729,0.367-1.922,0.068
			c-0.487-0.757-0.908-1.846-0.747-2.686c0.886-4.61,1.9-9.199,3.039-13.754c0.117-0.47,1.519-1.076,2.026-0.873
			C352.839,275.859,353.206,276.867,353.432,277.18z"/>
		<path fill-rule="evenodd" clip-rule="evenodd" d="M343.43,84.579c-0.784,3.225-1.491,5.74-1.979,8.297
			c-0.262,1.367-0.015,2.828-0.252,4.203c-0.146,0.853-0.611,1.8-1.238,2.367c-0.386,0.348-1.684,0.338-1.974-0.01
			c-0.458-0.549-0.685-1.574-0.534-2.299c0.88-4.238,1.825-8.466,2.952-12.643c0.162-0.601,1.396-1.067,2.207-1.238
			C342.843,83.207,343.339,84.423,343.43,84.579z"/>
		<path fill-rule="evenodd" clip-rule="evenodd" d="M407.583,286.498c-3.729,0-7.459,0-11.188,0
			c-0.002-0.326-0.003-0.652-0.005-0.979c3.72,0,7.44,0,11.16,0C407.561,285.846,407.572,286.172,407.583,286.498z"/>
		<path fill-rule="evenodd" clip-rule="evenodd" d="M407.682,283.176c-3.82,0-7.639,0-11.457,0c0-0.34,0-0.682,0-1.022
			c3.818,0,7.637,0,11.457,0C407.682,282.494,407.682,282.836,407.682,283.176z"/>
		<path fill-rule="evenodd" clip-rule="evenodd" d="M398.204,93.933c-3.827,0-7.654,0-11.481,0c-0.011-0.304-0.021-0.608-0.03-0.911
			c3.857,0,7.715,0,11.573,0C398.245,93.325,398.225,93.629,398.204,93.933z"/>
		<path fill-rule="evenodd" clip-rule="evenodd" d="M386.979,89.123c3.576,0,7.153,0,10.729,0c0.002,0.3,0.003,0.599,0.003,0.899
			c-3.576,0-7.152,0-10.729,0C386.98,89.722,386.98,89.422,386.979,89.123z"/>
		<path fill-rule="evenodd" clip-rule="evenodd" fill="#FFFFFF" d="M331.418,373.957c-14.998-22.697-29.997-45.395-45.274-68.513
			c1.23-0.214,2.001-0.456,2.775-0.466c8.614-0.115,17.246-0.499,25.836-0.075c2.23,0.109,4.645,2.471,6.449,4.313
			c16.227,16.562,32.318,33.255,48.492,49.869c4.506,4.629,9.018,9.271,13.816,13.585c1.383,1.242,3.78,1.903,5.711,1.901
			c19.237-0.023,38.477-0.437,57.714-0.349c17.969,0.082,35.936,0.596,53.901,1.031c2.47,0.06,4.978,0.568,7.374,1.213
			c5.981,1.61,7.003,3.12,7.066,9.307c0.081,7.744,0.249,15.487,0.336,23.23c0.056,4.995-0.723,6.15-5.596,7.217
			c-10.611,2.321-21.31,3.899-32.229,3.928c-25.485,0.064-50.972,0.27-76.457,0.483c-24.979,0.209-49.956,0.508-74.934,0.753
			c-9.537,0.093-18.868-1.092-27.991-4.068c-2.787-0.908-3.785-2.415-3.812-5.113c-0.095-9.365-0.212-18.731-0.407-28.096
			c-0.066-3.16,2.227-4.217,4.476-4.693c6.678-1.417,13.408-2.638,20.166-3.607c3.906-0.561,7.903-0.487,11.859-0.699
			C330.934,374.724,331.176,374.34,331.418,373.957z M418.456,395.795c2.376,4.378-1.183,7.928-1.739,11.897
			c-0.036,0.262-1.246,0.273-1.827,0.567c-0.639,0.323-1.182,0.837-1.766,1.268c0.683,0.496,1.786,1.55,1.982,1.401
			c1.756-1.325,4.074-2.559,4.849-4.399c1.734-4.115,2.614-8.583,3.983-12.862c0.334-1.043,1.214-1.912,1.842-2.861
			c0.364,0.102,0.728,0.202,1.091,0.302c0,1.096,0.202,2.236-0.037,3.276c-0.726,3.143-1.715,6.225-2.387,9.377
			c-0.169,0.793,0.227,2.005,0.807,2.554c0.382,0.359,1.824,0.156,2.317-0.305c0.632-0.59,1.005-1.667,1.104-2.576
			c0.2-1.85-0.073-3.766,0.243-5.587c0.481-2.78,1.296-5.503,1.947-8.159C423.7,386.206,422.273,393.304,418.456,395.795z
			 M319.419,410.646c2.677-1.37,4.5-2.568,6.499-3.263c2.821-0.979,6.121-5.227,5.384-8.077c-0.315-1.214-1.909-2.746-3.112-2.938
			c-2.093-0.333-4.333,0.263-6.795,0.496C322.319,401.888,317.844,406.236,319.419,410.646z M483.16,397.76
			c0.405,0.187,0.811,0.374,1.215,0.561c-0.461,1.644-1.077,3.265-1.32,4.939c-0.127,0.87,0.245,1.936,0.726,2.704
			c0.175,0.28,1.619,0.223,1.959-0.154c0.678-0.753,1.206-1.791,1.401-2.789c0.22-1.128,0.047-2.343-0.029-3.516
			c-0.105-1.602-0.279-3.197-0.424-4.796c-1.473,0.233-2.944,0.468-4.197,0.666c-1.448-0.304-2.886-0.606-3.861-0.812
			c-0.733,3.482-1.382,6.186-1.827,8.921c-0.126,0.779,0.341,1.653,0.536,2.484c0.698-0.543,1.608-0.951,2.055-1.653
			C480.745,402.191,481.918,399.954,483.16,397.76z M412.13,398.263c0.442,0.271,0.886,0.541,1.329,0.813
			c-0.471,1.643-1.202,3.271-1.302,4.936c-0.05,0.851,1.035,1.768,1.608,2.656c0.862-0.889,2.192-1.649,2.479-2.695
			c0.455-1.661,0.33-3.52,0.224-5.281c-0.071-1.166-0.541-2.309-0.832-3.462c-0.975,0.277-1.949,0.552-2.923,0.832
			c-0.565,0.162-1.391,0.663-1.652,0.454c-4.767-3.82-3.512,0.774-4.068,2.859c-0.353,1.318-0.953,2.601-1.087,3.936
			c-0.104,1.025,0.348,2.106,0.551,3.164c0.735-0.694,1.644-1.278,2.171-2.104C409.891,402.396,410.974,400.306,412.13,398.263z
			 M388.182,396.016c0.221,0.135,0.442,0.27,0.663,0.404c-0.726,2.979-1.393,5.975-2.199,8.932c-0.45,1.647-0.286,4.031-3.274,3.366
			c-0.255-0.058-1.012,0.811-0.993,1.227c0.018,0.41,0.789,1.178,1.11,1.119c1.264-0.227,2.843-0.371,3.63-1.192
			c1.147-1.195,1.927-2.874,2.485-4.479c1.647-4.74,3.11-9.547,4.55-14.032c1.426,0.225,2.389,0.375,3.351,0.527
			c0.061-0.588,0.325-1.605,0.146-1.691c-0.939-0.45-2.179-1.149-2.964-0.849c-1.294,0.495-2.443,1.574-3.425,2.621
			C390.107,393.197,389.197,394.656,388.182,396.016z M434.313,403.769c-0.06-0.241-0.118-0.484-0.177-0.726
			c1.685-1.187,3.541-2.198,4.977-3.633c0.674-0.673,1.044-2.435,0.628-3.199c-0.442-0.813-2.013-1.495-3.032-1.421
			c-3.036,0.219-6.604,4.874-6.179,7.907c0.283,2.022,0.927,3.922,3.592,3.962c2.556,0.04,3.907-0.987,4.367-3.606
			C437.073,403.296,435.693,403.532,434.313,403.769z M476.501,397.69c-0.891-0.751-2.253-2.79-3.973-3.157
			c-3.279-0.701-7.015,3.274-7.32,7.052c-0.212,2.603,1.867,4.816,4.536,4.833C472.852,406.438,476.301,402.62,476.501,397.69z
			 M357.143,398.353c0.395,0.244,0.788,0.49,1.181,0.735c-0.46,1.887-1.117,3.757-1.284,5.67c-0.064,0.739,1.152,2.333,1.496,2.255
			c5.217-1.182,0.158-5.918,2.664-8.26c0.217-0.203-1.032-2.741-1.416-2.694c-2.199,0.27-4.335,1.489-6.575,0.008
			c-0.02-0.013-0.951,0.991-1.104,1.607c-0.535,2.157-1.008,4.338-1.308,6.537c-0.11,0.816,0.322,1.706,0.506,2.563
			c0.67-0.565,1.528-1.011,1.974-1.718C354.65,402.875,355.866,400.594,357.143,398.353z M386.133,399.521
			c-0.138-2.165-1.409-4.094-4.177-4.278c-3.099-0.208-6.781,3.891-6.706,7.352c0.057,2.58,0.997,4.66,4.147,4.632
			C382.854,407.194,386.019,403.835,386.133,399.521z M336.798,407.444c3.618-0.063,6.485-3.255,6.587-7.146
			c0.077-2.974-1.413-4.445-4.213-4.439c-3.388,0.008-6.814,3.996-6.712,7.667C332.537,406.271,334.114,407.511,336.798,407.444z
			 M446.059,396.665c1.997,1.273,2.886,1.84,3.774,2.406c0.332-0.746,1.138-1.764,0.898-2.183c-0.535-0.935-1.521-1.682-2.468-2.276
			c-0.431-0.271-1.349-0.225-1.795,0.064c-2.721,1.762-5.415,3.618-5.592,7.321c-0.112,2.343,0.62,4.353,3.233,4.591
			c2.38,0.217,4.601-0.353,5.024-2.947c-1.844-0.428-3.418-0.791-4.991-1.155C444.775,400.563,445.407,398.643,446.059,396.665z
			 M457.86,393.088c-0.432-0.181-0.862-0.36-1.294-0.541c-0.43,0.196-0.911,0.324-1.281,0.601
			c-3.537,2.637-2.105,7.002-3.517,10.398c-0.277,0.67,0.204,1.989,0.779,2.563c0.396,0.394,1.905,0.335,2.302-0.094
			c0.642-0.691,0.932-1.827,1.093-2.82c0.3-1.855,0.288-3.764,0.619-5.612C456.835,396.056,457.416,394.584,457.86,393.088z
			 M368.415,393.54c-0.475-0.267-0.949-0.531-1.425-0.797c-1.001,1.158-2.555,2.176-2.893,3.503
			c-0.812,3.178-1.104,6.496-1.397,9.775c-0.019,0.209,1.894,1.012,2.622,0.75c0.749-0.271,1.504-1.459,1.629-2.334
			c0.292-2.038,0.076-4.145,0.316-6.194C367.454,396.652,368.019,395.105,368.415,393.54z M460.464,394.796
			c-0.661,3.326-1.273,5.788-1.585,8.289c-0.118,0.949,0.312,2.067,0.805,2.929c0.152,0.266,1.665,0.205,1.994-0.182
			c0.65-0.767,1.137-1.833,1.279-2.833c0.227-1.604,0.129-3.255,0.149-4.886c0.014-1.031,0.393-2.421-0.123-2.991
			C462.48,394.565,461.051,394.846,460.464,394.796z M400.013,405.403c-0.025-0.027,1.04,1.481,1.318,1.349
			c1.104-0.529,2.563-1.438,2.788-2.45c0.503-2.267,0.471-4.683,0.384-7.028c-0.028-0.736-0.833-1.898-1.453-2.025
			c-0.591-0.12-1.915,0.761-2.031,1.37C400.54,399.122,400.399,401.689,400.013,405.403z M349.538,405.529
			c-0.353-0.246-0.706-0.492-1.059-0.737c0.194-2.132,0.5-4.262,0.525-6.396c0.009-0.779-0.647-1.566-1.002-2.35
			c-0.713,0.624-1.799,1.122-2.062,1.898c-0.506,1.49-0.664,3.134-0.741,4.725c-0.071,1.461,0.153,2.938,0.247,4.407
			C346.812,406.562,348.175,406.046,349.538,405.529z"/>
		<path fill-rule="evenodd" clip-rule="evenodd" fill="#FFFFFF" d="M247.138,310.512c-17.351,8.995-34.3,16.47-50.485,25.396
			c0.108,0.465,0.216,0.931,0.325,1.396c1.234,0.248,2.468,0.709,3.704,0.712c8.877,0.02,17.638,0.514,26.224,3.266
			c6.536,2.093,7.415,3.054,7.409,9.966c-0.008,9.858,0.333,19.715,0.391,29.572c0.03,5.183-1.151,6.501-5.975,8.017
			c-9.236,2.899-18.685,4.238-28.357,4.319c-27.6,0.23-55.198,0.592-82.797,0.795c-27.354,0.2-54.712,0.54-82.061,0.209
			c-6.973-0.085-13.946-2.358-20.866-3.872c-3.455-0.755-4.944-3.043-4.894-6.853c0.134-10.111-0.142-20.229-0.242-30.345
			c-0.062-6.235,2.008-8.613,8.322-10.216c14.178-3.599,28.635-3.83,43.129-3.927c26.477-0.177,52.955-0.375,79.426-0.833
			c4.035-0.069,8.089-1.417,12.056-2.47c8.907-2.364,17.752-4.958,26.644-7.382c16.229-4.426,32.461-8.849,48.722-13.162
			C233.871,313.493,240.012,312.193,247.138,310.512z M43.371,374.8c0.428,0.057,0.856,0.113,1.285,0.17
			c2.24-3.146,4.479-6.293,6.72-9.438c0.351,0.173,0.702,0.347,1.054,0.52c-1.133,2.96-2.266,5.92-3.518,9.192
			c1.922-0.137,3.921-0.278,5.574-0.396c-0.143-6.886,2.068-12.6,4.009-18.816c-1.593,0.458-3.265,1.063-4.216,2.248
			c-2.762,3.441-5.234,7.114-8.344,11.421c-0.585-4.042-1.076-7.181-1.483-10.33c-0.375-2.888-1.718-3.95-4.141-2.864
			c-0.068,6.692-2.624,12.434-4.629,18.386c1.352,0,2.642,0,3.347,0c0.703-3.43,1.328-6.48,1.953-9.532
			c0.318,0.049,0.638,0.096,0.956,0.144C42.415,368.603,42.893,371.701,43.371,374.8z M130.365,364.711
			c0.359,0.217,0.719,0.433,1.079,0.648c-0.539,1.901-1.196,3.779-1.561,5.713c-0.164,0.867,0.007,2.032,0.508,2.703
			c0.287,0.386,1.733,0.35,2.305-0.029c0.723-0.479,1.403-1.447,1.544-2.297c0.354-2.121,0.528-4.297,0.505-6.447
			c-0.012-1.157-0.243-2.756-1-3.321c-0.606-0.452-2.178,0.274-3.27,0.633c-0.501,0.164-0.88,0.698-1.315,1.064
			c-0.047-0.366-0.094-0.733-0.141-1.1c-3.393,0-6.786,0-9.8,0c-0.617,4.004-1.202,7.798-1.785,11.592
			c0.498,0.168,0.997,0.335,1.495,0.503c1.779-3.25,3.558-6.499,5.337-9.749c0.342,0.162,0.684,0.324,1.026,0.486
			c-0.574,1.986-1.319,3.946-1.647,5.974c-0.155,0.956,0.487,2.043,0.769,3.071c0.685-0.712,1.539-1.323,2.022-2.151
			C127.826,369.62,129.066,367.148,130.365,364.711z M87.43,361.638c-0.801,3.957-1.504,7.039-2.003,10.153
			c-0.127,0.798,0.389,1.699,0.609,2.553c0.726-0.504,1.703-0.856,2.118-1.547c0.627-1.042,0.737-2.385,1.296-3.483
			c0.689-1.354,1.613-2.588,2.435-3.873c0.347,0.19,0.695,0.382,1.042,0.572c-0.428,1.647-1,3.275-1.232,4.95
			c-0.15,1.085,0.198,2.237,0.324,3.36c0.851-0.84,1.891-1.561,2.515-2.545c1.339-2.11,2.463-4.356,3.675-6.548
			c0.337,0.198,0.674,0.396,1.011,0.594c-0.545,1.892-1.306,3.756-1.542,5.687c-0.112,0.917,0.776,1.956,1.21,2.94
			c1.073-0.857,2.762-1.53,3.087-2.613c0.639-2.126,0.643-4.479,0.654-6.738c0.005-1.012-0.327-2.409-1.025-2.921
			c-0.575-0.42-1.963,0.084-2.903,0.423c-0.627,0.228-1.101,0.883-1.894,1.562c-1.424-3.371-3.307-3.295-4.796-1.422
			C90.03,362.264,88.556,361.908,87.43,361.638z M145.231,379.568c-1.027-3.649-0.009-5.233,3.708-5.515
			c3.952-0.299,7.609-6.544,6.309-10.329c-0.374-1.089-1.702-2.54-2.668-2.602c-2.74-0.173-5.52,0.287-7.097,0.408
			c-1.667,6.444-3.146,12.162-4.72,18.244C142.11,379.713,143.512,379.648,145.231,379.568z M184.592,363.981
			c0.409,0.205,0.818,0.409,1.228,0.614c-0.551,1.979-1.214,3.935-1.601,5.945c-0.188,0.975-0.044,2.133,0.352,3.031
			c0.125,0.284,1.792,0.313,2.318-0.099c0.788-0.615,1.49-1.66,1.693-2.635c0.416-1.991,0.594-4.054,0.635-6.093
			c0.024-1.151-0.084-2.604-0.757-3.373c-0.498-0.568-2.004-0.277-3.063-0.325c-1.194-0.054-2.39-0.095-3.583-0.071
			c-1.143,0.024-2.283,0.14-3.047,0.189c-0.348,2.535-0.528,4.485-0.902,6.397c-0.372,1.899-0.936,3.763-1.417,5.642
			c0.366,0.277,0.731,0.556,1.097,0.834c0.892-0.927,1.943-1.746,2.641-2.8C181.747,368.882,183.134,366.408,184.592,363.981z
			 M110.883,373.463c0.877,0.147,2.26,0.801,3.325,0.46c1.598-0.512,2.151-1.729,0.909-3.499c-0.464-0.662,0.098-2.103,0.304-3.166
			c0.337-1.741,0.765-3.466,1.154-5.197c-0.48-0.22-0.961-0.441-1.441-0.662c-0.934,1.58-1.861,3.164-2.804,4.739
			c-0.965,1.611-1.944,3.214-2.917,4.82c-0.305-0.182-0.609-0.363-0.914-0.545c0.344-1.287,0.901-2.561,0.98-3.864
			c0.096-1.582-0.211-3.189-0.344-4.785c-1.564,0.569-3.127,1.139-4.69,1.708c-0.193,0.314-0.386,0.63-0.579,0.944
			c4.161,1.019,1.855,3.062,1.72,4.814c-0.125,1.628,0.039,3.277,0.075,4.918C107.224,373.943,108.787,373.738,110.883,373.463z
			 M64.654,374.387c0.428,0.208,0.857,0.415,1.286,0.622c2.199-3.329,4.398-6.659,6.598-9.988c0.417,0.242,0.835,0.484,1.252,0.728
			c-0.575,2-1.368,3.972-1.625,6.011c-0.117,0.929,0.828,1.989,1.292,2.99c1.048-0.872,2.692-1.568,3.014-2.655
			c0.584-1.975,0.505-4.186,0.458-6.293c-0.026-1.152-0.213-2.729-0.956-3.307c-0.633-0.494-2.192,0.061-3.289,0.353
			c-0.652,0.175-1.201,0.737-1.797,1.126c0.013-0.383,0.025-0.766,0.037-1.147c-1.514-0.236-3.028-0.473-4.086-0.638
			C66.008,366.816,65.331,370.602,64.654,374.387z M160.042,374.373c5.081,0.063,9.861-5.349,8.681-9.224
			c-0.523-1.718-2.303-3.918-3.875-4.267c-3.02-0.67-5.709,1.323-6.868,4.043c-0.89,2.091-0.99,4.748-0.65,7.034
			C157.496,373.068,159.479,373.906,160.042,374.373z M197.067,358.232c-0.42-0.21-0.842-0.419-1.262-0.629
			c-1.449,1.256-3.708,2.265-4.179,3.817c-1.015,3.344-1.237,6.959-1.455,10.483c-0.035,0.575,2.147,1.951,2.389,1.766
			c1.022-0.786,2.57-2.739,2.37-2.983c-2.155-2.616,0.102-4.731,0.562-6.987C195.87,361.847,196.531,360.053,197.067,358.232z
			 M170.485,372.487c-0.017-0.018,1.102,1.481,1.393,1.335c1.182-0.594,2.747-1.544,3.003-2.636c0.612-2.61,0.681-5.374,0.707-8.079
			c0.008-0.799-0.856-1.606-1.321-2.411c-0.88,0.524-2.398,0.922-2.532,1.596C171.143,365.261,170.951,368.309,170.485,372.487z
			 M80.695,361.938c-0.773,3.787-1.455,6.728-1.931,9.701c-0.14,0.874,0.306,1.843,0.482,2.769c0.91-0.179,1.88-0.219,2.71-0.581
			c0.632-0.275,1.086-0.958,1.62-1.46c-0.338-0.096-0.676-0.192-1.014-0.288c0.339-2.225,0.732-4.442,0.994-6.677
			c0.133-1.14,0.031-2.308,0.036-3.464C82.431,361.938,81.269,361.938,80.695,361.938z M60.474,362.288
			c-0.896,3.589-1.808,6.615-2.327,9.708c-0.148,0.887,0.839,1.963,1.306,2.953c1.093-0.817,3.019-1.537,3.129-2.471
			c0.387-3.28,0.15-6.635,0.15-10.332C62.131,362.184,60.988,362.256,60.474,362.288z"/>
		<path fill-rule="evenodd" clip-rule="evenodd" fill="#FFFFFF" d="M173.681,96.025c11.709-8.554,23.419-17.109,35.13-25.665
			c-0.193-0.47-0.386-0.94-0.58-1.41c-1.377-0.196-2.761-0.602-4.129-0.554c-9.478,0.335-18.618-1.558-27.634-4.161
			c-5.048-1.458-5.898-2.812-5.95-8.05c-0.102-10.361-0.156-20.723-0.352-31.083c-0.06-3.137,0.989-5.135,4.066-6.27
			c9.625-3.547,19.62-4.653,29.768-4.773c20.729-0.247,41.459-0.417,62.188-0.62c29.102-0.285,58.204-0.68,87.307-0.789
			c8.724-0.032,17.462,0.568,26.167,1.222c3.051,0.229,6.097,1.277,9.016,2.317c6.543,2.33,6.559,2.507,6.61,9.425
			c0.073,9.612,0.145,19.222,0.255,28.833c0.06,5.296-1.322,7.627-6.668,8.594c-8.203,1.484-16.495,3.183-24.782,3.369
			c-31.192,0.701-62.401,0.617-93.594,1.343c-6.339,0.147-12.722,2.201-18.914,3.974c-8.138,2.329-16.096,5.28-24.15,7.907
			c-13.981,4.56-27.974,9.081-41.968,13.603c-3.75,1.212-7.519,2.366-11.279,3.547C174.019,96.531,173.85,96.278,173.681,96.025z
			 M215.355,48.42c-0.265-6.536,2.324-12.031,4.258-18.476c-7.054,1.417-7.818,8.781-12.834,12.169
			c-0.557-3.007-1.28-5.747-1.522-8.528c-0.281-3.235-1.804-3.724-3.198-3.213c-1.948,6.577-3.636,12.277-5.408,18.259
			c1.228,0,2.71,0,3.567,0c0.484-3.059,0.915-5.777,1.346-8.496c0.371,0.03,0.742,0.061,1.113,0.09
			c0.243,1.824,0.417,3.661,0.761,5.465c0.15,0.787,0.647,1.506,0.987,2.257c0.818-0.406,1.87-0.614,2.412-1.254
			c1.874-2.209,3.57-4.569,5.333-6.873c0.264,0.142,0.526,0.284,0.79,0.427c-1.052,2.667-2.104,5.334-3.224,8.172
			C211.693,48.42,213.659,48.42,215.355,48.42z M240.801,46.626c-1.11-2.355-2.854-4.549-2.358-5.34
			c0.831-1.326,3.089-1.758,4.942-2.661c-0.781-1.595-1.695-4.526-5.25-1.502c-0.169,0.145-0.474,0.221-0.699,0.194
			c-3.2-0.39-6.385-0.938-9.595-1.179c-5.131-0.384-9.369,3.486-9.606,8.563c-0.141,3.024,1.832,4.52,4.8,3.661
			c0.804-0.233,1.694-0.687,2.437-0.53c3.604,0.764,7.129,1.435,9.891-1.841C238.247,49.168,238.787,49.132,240.801,46.626z
			 M252.459,35.678c-0.616,3.332-1.208,5.962-1.544,8.625c-0.148,1.173,0.221,2.412,0.356,3.621
			c0.968-0.925,2.154-1.711,2.853-2.807c1.132-1.777,1.944-3.758,2.891-5.652c0.336,0.17,0.671,0.341,1.007,0.511
			c-0.379,1.415-0.908,2.809-1.092,4.248c-0.153,1.191,0.098,2.434,0.17,3.654c1.068-0.957,2.338-1.768,3.158-2.903
			c1.253-1.735,2.197-3.693,3.272-5.557c0.284,0.174,0.568,0.347,0.851,0.52c-0.508,1.777-1.249,3.532-1.425,5.342
			c-0.085,0.88,0.883,1.864,1.375,2.801c1.085-0.846,2.718-1.484,3.131-2.582c0.68-1.805,0.712-3.905,0.736-5.883
			c0.015-1.154-0.2-2.604-0.907-3.376c-0.513-0.558-2.008-0.303-3.057-0.251c-0.901,0.044-1.803,0.502-2.685,0.45
			C258.375,36.247,255.208,35.918,252.459,35.678z M288.063,47.806c6.018-0.66,4.358-7.431,8.985-8.921
			c-0.761,2.235-1.576,4.145-2.005,6.136c-0.165,0.764,0.331,1.978,0.942,2.49c0.413,0.346,1.741,0.067,2.319-0.376
			c0.658-0.504,1.167-1.458,1.327-2.296c0.254-1.333,0.223-2.731,0.205-4.101c-0.023-1.648-0.158-3.295-0.246-4.943
			c-1.691,0.165-3.384,0.33-5.076,0.494c0.036-0.065,0.072-0.13,0.107-0.196c-3.408-0.17-6.815-0.34-9.827-0.491
			c-0.798,4.478-1.468,8.239-2.139,12.001c0.48,0.209,0.959,0.417,1.439,0.626c1.843-3.114,3.687-6.228,5.529-9.342
			c0.271,0.129,0.544,0.258,0.814,0.387C289.728,41.833,289.016,44.393,288.063,47.806z M310.934,35.213
			c-1.804,6.627-3.396,12.479-5.099,18.732c1.63-0.132,3.351-0.272,5.449-0.442c-1.838-3.735-1.298-5.39,2.804-5.714
			c3.815-0.302,7.479-5.791,6.68-9.502c-0.253-1.167-1.678-2.75-2.771-2.934C315.427,34.919,312.732,35.213,310.934,35.213z
			 M344.109,34.931c-0.646,3.334-1.279,5.94-1.607,8.583c-0.157,1.261,0.268,2.595,0.429,3.896c0.854-0.922,1.823-1.763,2.54-2.782
			c1.598-2.269,3.07-4.627,4.594-6.948c0.347,0.212,0.693,0.423,1.04,0.636c-0.596,2.13-1.357,4.233-1.698,6.402
			c-0.127,0.807,0.731,1.769,1.141,2.661c1.101-0.665,2.952-1.152,3.158-2.028c0.6-2.542,0.541-5.238,0.736-7.875
			c0.174-2.341-1.222-2.849-3.091-2.408c-1.052,0.248-2,0.935-2.272,1.068C346.9,35.608,345.304,35.221,344.109,34.931z
			 M275.032,44.844c-0.348-0.172-0.695-0.344-1.043-0.516c0.494-2.163,1.11-4.308,1.405-6.498c0.085-0.63-0.744-1.963-1.171-1.971
			c-1.158-0.02-2.395,0.36-3.453,0.881c-0.361,0.177-0.428,1.255-0.378,1.903c0.097,1.25,0.563,2.493,0.52,3.726
			c-0.048,1.343-1.129,2.956-0.674,3.956c2.003,4.401,6.146-1.464,8.617,1.561c0.7-1.003,1.76-1.921,2.021-3.028
			c0.469-1.989,0.523-4.087,0.619-6.146c0.046-0.983-0.212-1.981-0.333-2.972c-0.85,0.659-1.984,1.148-2.495,2.007
			C277.312,40.028,276.226,42.468,275.032,44.844z M321.67,42.523c-0.018,2.816,1.004,4.836,4.09,5.203
			c4.214,0.5,8.146-2.97,8.404-7.621c0.156-2.837-1.204-4.796-4.211-5.11C326.164,34.598,322.078,38.37,321.67,42.523z
			 M362.186,32.485c-0.368-0.164-0.735-0.328-1.103-0.492c-0.604,0.338-1.231,0.639-1.806,1.02
			c-3.652,2.431-1.794,6.867-3.571,10.05c-0.539,0.966,0.202,2.647,0.356,4.001c1.478-0.327,2.955-0.654,5.092-1.126
			c-3.739-3.348-1.031-5.861-0.568-8.4C360.9,35.813,361.638,34.167,362.186,32.485z M245.952,35.901
			c-0.724,3.47-1.391,6.14-1.791,8.85c-0.157,1.06,0.143,2.268,0.563,3.271c0.097,0.232,1.876,0.208,2.289-0.24
			c0.696-0.76,1.093-1.919,1.297-2.973c0.247-1.276,0.074-2.628,0.244-3.926c0.216-1.642,0.595-3.261,0.992-5.36
			C247.746,35.711,246.571,35.835,245.952,35.901z M337.56,35.357c-0.787,3.219-1.603,6.052-2.115,8.939
			c-0.164,0.927,0.189,2.291,0.833,2.896c0.416,0.392,2.068,0.069,2.652-0.481c0.622-0.584,0.756-1.798,0.883-2.767
			c0.135-1.022-0.135-2.104,0.033-3.115c0.294-1.759,0.788-3.484,1.257-5.471C339.461,35.357,338.28,35.357,337.56,35.357z"/>
		<path fill-rule="evenodd" clip-rule="evenodd" fill="#FFFFFF" d="M211.289,198.999c3.517,5.09,6.55,9.412,9.51,13.782
			c7.895,11.655,15.803,23.301,23.623,35.006c9.341,13.98,18.596,28.02,27.895,42.027c0.828,1.246,1.613,2.54,2.587,3.667
			c2.176,2.517,0.919,4.158-1.438,5.187c-2.149,0.939-4.472,1.536-6.772,2.035c-0.563,0.122-1.488-0.593-1.987-1.153
			c-3.601-4.048-5.617-4.004-9.091-0.15c-0.716,0.794-2.608,1.223-3.672,0.895c-6.867-2.118-12.16-6.504-16.848-11.869
			c-11.916-13.637-17.066-30.227-20.906-47.372c-2.849-12.716-3.67-25.656-3.494-38.665
			C210.706,201.583,210.967,200.78,211.289,198.999z"/>
		<path fill-rule="evenodd" clip-rule="evenodd" fill="#FFFFFF" d="M279.539,295.54c-19.644-29.228-38.52-57.312-57.396-85.396
			c0.226-0.216,0.451-0.431,0.677-0.646c2.173,2.15,4.358,4.287,6.516,6.451c15.727,15.771,31.458,31.535,47.163,47.327
			c4.733,4.759,9.441,9.543,14.011,14.456c0.607,0.653,0.842,2.519,0.363,3.174C287.387,285.669,283.673,290.265,279.539,295.54z"/>
		<path fill-rule="evenodd" clip-rule="evenodd" fill="#FFFFFF" d="M281.145,298.027c4.614-5.448,8.916-10.529,13.199-15.588
			c6.287,6.254,12.818,12.749,20.285,20.177c-3.307,0-5.589-0.009-7.871,0.001c-5.991,0.024-12.006-0.256-17.965,0.192
			C284.517,303.131,282.423,301.167,281.145,298.027z"/>
		<path fill-rule="evenodd" clip-rule="evenodd" fill="#FFFFFF" d="M280.656,302.55c-2.493,0-4.514,0-6.693,0
			C276.926,298.921,278.586,298.815,280.656,302.55z"/>
		<path fill-rule="evenodd" clip-rule="evenodd" fill="#FFFFFF" d="M373.179,283.557c1.004,4.301-0.258,6.382-4.314,7.24
			C368.527,287.389,369.296,284.77,373.179,283.557z"/>
		<path fill-rule="evenodd" clip-rule="evenodd" fill="#FFFFFF" d="M423.594,276.933c1.479,2.892,0.166,11.215-2.246,13.135
			c-0.468,0.374-2.036,0.242-2.327-0.183C417.429,287.556,420.803,278.293,423.594,276.933z"/>
		<path fill-rule="evenodd" clip-rule="evenodd" fill="#FFFFFF" d="M362.289,89.369c2.088,3.552,1.022,7.665-1.427,8.4
			c-0.53,0.159-2.106-1.175-2.041-1.329C359.757,94.236,360.892,92.117,362.289,89.369z"/>
		<path fill-rule="evenodd" clip-rule="evenodd" fill="#FFFFFF" d="M413.854,84.164c1.437,3.557,0.143,11.023-2.319,13.107
			c-0.398,0.338-2.164-0.051-2.364-0.511C407.886,93.807,410.748,86.144,413.854,84.164z"/>
		<path fill-rule="evenodd" clip-rule="evenodd" fill="#FFFFFF" d="M360.843,283.123c1.789,3.72,0.892,6.092-2.698,7.731
			C356.177,287.605,356.644,286.178,360.843,283.123z"/>
		<path fill-rule="evenodd" clip-rule="evenodd" fill="#FFFFFF" d="M352.913,93.446c-1.626,1.669-3.056,3.137-4.485,4.605
			c-0.525-0.873-1.708-2.105-1.462-2.554c1.006-1.836,2.448-3.432,3.729-5.117C351.273,91.18,351.852,91.978,352.913,93.446z"/>
		<path fill-rule="evenodd" clip-rule="evenodd" d="M418.456,395.795c3.817-2.491,5.244-9.589,12.409-6.107
			c-0.651,2.656-1.466,5.379-1.947,8.159c-0.316,1.821-0.043,3.737-0.243,5.587c-0.099,0.909-0.472,1.986-1.104,2.576
			c-0.493,0.461-1.936,0.664-2.317,0.305c-0.58-0.549-0.976-1.761-0.807-2.554c0.672-3.152,1.661-6.234,2.387-9.377
			c0.239-1.04,0.037-2.181,0.037-3.276c-0.363-0.1-0.727-0.2-1.091-0.302c-0.628,0.949-1.508,1.818-1.842,2.861
			c-1.369,4.279-2.249,8.747-3.983,12.862c-0.774,1.841-3.093,3.074-4.849,4.399c-0.196,0.148-1.3-0.905-1.982-1.401
			c0.584-0.431,1.127-0.944,1.766-1.268c0.581-0.294,1.791-0.306,1.827-0.567C417.273,403.723,420.832,400.173,418.456,395.795z"/>
		<path fill-rule="evenodd" clip-rule="evenodd" d="M319.419,410.646c-1.575-4.41,2.9-8.759,1.976-13.781
			c2.462-0.233,4.702-0.829,6.795-0.496c1.203,0.191,2.797,1.724,3.112,2.938c0.737,2.851-2.563,7.098-5.384,8.077
			C323.919,408.078,322.096,409.276,319.419,410.646z M322.44,404.928c0.437,0.314,0.874,0.629,1.311,0.943
			c2.64-0.856,4.401-2.64,4.603-5.618c0.126-1.874-1.308-2.752-2.525-1.372C324.333,400.573,323.537,402.885,322.44,404.928z"/>
		<path fill-rule="evenodd" clip-rule="evenodd" d="M483.16,397.76c-1.242,2.194-2.415,4.432-3.768,6.556
			c-0.446,0.702-1.356,1.11-2.055,1.653c-0.195-0.831-0.662-1.705-0.536-2.484c0.445-2.735,1.094-5.438,1.827-8.921
			c0.976,0.205,2.413,0.508,3.861,0.812c1.253-0.198,2.725-0.433,4.197-0.666c0.145,1.599,0.318,3.194,0.424,4.796
			c0.076,1.173,0.249,2.388,0.029,3.516c-0.195,0.998-0.724,2.036-1.401,2.789c-0.34,0.377-1.784,0.435-1.959,0.154
			c-0.48-0.769-0.853-1.834-0.726-2.704c0.243-1.675,0.859-3.296,1.32-4.939C483.971,398.134,483.565,397.946,483.16,397.76z"/>
		<path fill-rule="evenodd" clip-rule="evenodd" d="M412.13,398.263c-1.156,2.043-2.239,4.133-3.502,6.107
			c-0.527,0.825-1.436,1.409-2.171,2.104c-0.203-1.058-0.654-2.139-0.551-3.164c0.134-1.335,0.734-2.617,1.087-3.936
			c0.557-2.085-0.698-6.68,4.068-2.859c0.262,0.209,1.087-0.292,1.652-0.454c0.974-0.28,1.948-0.555,2.923-0.832
			c0.291,1.153,0.761,2.296,0.832,3.462c0.106,1.762,0.231,3.62-0.224,5.281c-0.287,1.046-1.617,1.807-2.479,2.695
			c-0.573-0.889-1.658-1.806-1.608-2.656c0.1-1.665,0.831-3.293,1.302-4.936C413.016,398.804,412.572,398.533,412.13,398.263z"/>
		<path fill-rule="evenodd" clip-rule="evenodd" d="M388.182,396.016c1.016-1.359,1.926-2.818,3.079-4.048
			c0.981-1.047,2.131-2.126,3.425-2.621c0.785-0.301,2.024,0.398,2.964,0.849c0.18,0.086-0.085,1.104-0.146,1.691
			c-0.962-0.152-1.925-0.303-3.351-0.527c-1.439,4.485-2.902,9.292-4.55,14.032c-0.559,1.605-1.338,3.284-2.485,4.479
			c-0.787,0.821-2.366,0.966-3.63,1.192c-0.321,0.059-1.093-0.709-1.11-1.119c-0.019-0.416,0.738-1.284,0.993-1.227
			c2.988,0.665,2.824-1.719,3.274-3.366c0.807-2.957,1.474-5.952,2.199-8.932C388.624,396.285,388.402,396.15,388.182,396.016z"/>
		<path fill-rule="evenodd" clip-rule="evenodd" d="M434.313,403.769c1.38-0.236,2.76-0.473,4.176-0.716
			c-0.46,2.619-1.812,3.646-4.367,3.606c-2.665-0.04-3.309-1.939-3.592-3.962c-0.426-3.033,3.143-7.688,6.179-7.907
			c1.02-0.074,2.59,0.608,3.032,1.421c0.416,0.765,0.046,2.526-0.628,3.199c-1.436,1.435-3.292,2.446-4.977,3.633
			C434.195,403.284,434.254,403.527,434.313,403.769z"/>
		<path fill-rule="evenodd" clip-rule="evenodd" d="M476.501,397.69c-0.2,4.93-3.649,8.748-6.757,8.728
			c-2.669-0.017-4.748-2.23-4.536-4.833c0.306-3.777,4.041-7.753,7.32-7.052C474.248,394.9,475.61,396.939,476.501,397.69z
			 M473.275,397.164c-0.497-0.239-0.995-0.479-1.492-0.717c-1.014,1.139-2.357,2.135-2.932,3.464
			c-0.437,1.011,0.104,2.444,0.211,3.688c1.082-0.562,2.641-0.858,3.134-1.747C472.944,400.505,472.953,398.747,473.275,397.164z"/>
		<path fill-rule="evenodd" clip-rule="evenodd" d="M357.143,398.353c-1.276,2.241-2.492,4.522-3.867,6.703
			c-0.445,0.707-1.304,1.152-1.974,1.718c-0.184-0.856-0.616-1.746-0.506-2.563c0.3-2.199,0.772-4.38,1.308-6.537
			c0.153-0.616,1.085-1.62,1.104-1.607c2.24,1.481,4.376,0.262,6.575-0.008c0.384-0.047,1.633,2.491,1.416,2.694
			c-2.506,2.342,2.553,7.078-2.664,8.26c-0.344,0.078-1.561-1.516-1.496-2.255c0.167-1.913,0.824-3.783,1.284-5.67
			C357.931,398.843,357.537,398.597,357.143,398.353z"/>
		<path fill-rule="evenodd" clip-rule="evenodd" d="M386.133,399.521c-0.114,4.313-3.278,7.673-6.735,7.705
			c-3.15,0.028-4.091-2.052-4.147-4.632c-0.075-3.461,3.607-7.56,6.706-7.352C384.724,395.428,385.995,397.356,386.133,399.521z
			 M379.229,405.269c2.887-1.674,4.414-3.734,3.623-6.857c-0.083-0.327-1.549-0.689-2.11-0.441
			C378.33,399.033,377.704,401.976,379.229,405.269z"/>
		<path fill-rule="evenodd" clip-rule="evenodd" d="M336.798,407.444c-2.684,0.066-4.261-1.173-4.338-3.918
			c-0.103-3.671,3.324-7.659,6.712-7.667c2.8-0.006,4.29,1.466,4.213,4.439C343.283,404.189,340.416,407.382,336.798,407.444z
			 M337.332,406.652c1.22-2.602,2.271-4.623,3.076-6.736c0.177-0.465-0.445-1.737-0.839-1.803c-0.71-0.12-1.885,0.154-2.232,0.682
			C335.951,400.895,334.232,403.104,337.332,406.652z"/>
		<path fill-rule="evenodd" clip-rule="evenodd" d="M446.059,396.665c-0.651,1.978-1.283,3.898-1.915,5.821
			c1.573,0.364,3.147,0.728,4.991,1.155c-0.424,2.595-2.645,3.164-5.024,2.947c-2.613-0.238-3.346-2.248-3.233-4.591
			c0.177-3.703,2.871-5.56,5.592-7.321c0.446-0.289,1.364-0.335,1.795-0.064c0.946,0.595,1.933,1.342,2.468,2.276
			c0.239,0.419-0.566,1.437-0.898,2.183C448.944,398.505,448.056,397.938,446.059,396.665z"/>
		<path fill-rule="evenodd" clip-rule="evenodd" d="M457.86,393.088c-0.444,1.496-1.025,2.968-1.299,4.495
			c-0.331,1.849-0.319,3.757-0.619,5.612c-0.161,0.993-0.451,2.129-1.093,2.82c-0.396,0.429-1.906,0.487-2.302,0.094
			c-0.575-0.574-1.057-1.894-0.779-2.563c1.411-3.396-0.021-7.762,3.517-10.398c0.37-0.276,0.852-0.404,1.281-0.601
			C456.998,392.728,457.429,392.907,457.86,393.088z"/>
		<path fill-rule="evenodd" clip-rule="evenodd" d="M368.415,393.54c-0.396,1.565-0.961,3.112-1.147,4.703
			c-0.24,2.05-0.024,4.156-0.316,6.194c-0.125,0.875-0.88,2.063-1.629,2.334c-0.729,0.262-2.641-0.541-2.622-0.75
			c0.294-3.279,0.586-6.598,1.397-9.775c0.338-1.327,1.892-2.345,2.893-3.503C367.466,393.009,367.94,393.273,368.415,393.54z"/>
		<path fill-rule="evenodd" clip-rule="evenodd" d="M460.464,394.796c0.587,0.05,2.017-0.23,2.52,0.326
			c0.516,0.57,0.137,1.96,0.123,2.991c-0.021,1.631,0.077,3.282-0.149,4.886c-0.143,1-0.629,2.066-1.279,2.833
			c-0.329,0.387-1.842,0.447-1.994,0.182c-0.493-0.861-0.923-1.979-0.805-2.929C459.19,400.584,459.803,398.122,460.464,394.796z"/>
		<path fill-rule="evenodd" clip-rule="evenodd" d="M400.013,405.403c0.387-3.714,0.527-6.281,1.006-8.785
			c0.116-0.609,1.44-1.49,2.031-1.37c0.62,0.127,1.425,1.289,1.453,2.025c0.087,2.346,0.119,4.762-0.384,7.028
			c-0.225,1.013-1.685,1.921-2.788,2.45C401.053,406.885,399.987,405.376,400.013,405.403z"/>
		<path fill-rule="evenodd" clip-rule="evenodd" d="M349.538,405.529c-1.363,0.517-2.727,1.032-4.091,1.548
			c-0.094-1.47-0.318-2.946-0.247-4.407c0.077-1.591,0.235-3.234,0.741-4.725c0.263-0.776,1.349-1.274,2.062-1.898
			c0.354,0.783,1.011,1.57,1.002,2.35c-0.025,2.134-0.331,4.264-0.525,6.396C348.832,405.037,349.186,405.283,349.538,405.529z"/>
		<path fill-rule="evenodd" clip-rule="evenodd" d="M43.371,374.8c-0.478-3.099-0.956-6.197-1.434-9.297
			c-0.318-0.048-0.638-0.095-0.956-0.144c-0.625,3.052-1.25,6.103-1.953,9.532c-0.705,0-1.996,0-3.347,0
			c2.005-5.952,4.561-11.693,4.629-18.386c2.423-1.086,3.767-0.023,4.141,2.864c0.408,3.149,0.898,6.288,1.483,10.33
			c3.109-4.307,5.582-7.979,8.344-11.421c0.951-1.185,2.623-1.79,4.216-2.248c-1.941,6.217-4.152,11.931-4.009,18.816
			c-1.653,0.117-3.652,0.259-5.574,0.396c1.252-3.272,2.385-6.232,3.518-9.192c-0.352-0.173-0.703-0.347-1.054-0.52
			c-2.24,3.146-4.48,6.292-6.72,9.438C44.227,374.913,43.799,374.856,43.371,374.8z"/>
		<path fill-rule="evenodd" clip-rule="evenodd" d="M130.365,364.711c-1.299,2.438-2.539,4.909-3.929,7.293
			c-0.483,0.828-1.337,1.439-2.022,2.151c-0.281-1.028-0.924-2.115-0.769-3.071c0.328-2.027,1.073-3.987,1.647-5.974
			c-0.342-0.162-0.684-0.324-1.026-0.486c-1.779,3.25-3.558,6.499-5.337,9.749c-0.498-0.168-0.997-0.335-1.495-0.503
			c0.583-3.794,1.168-7.588,1.785-11.592c3.015,0,6.408,0,9.8,0c0.047,0.366,0.094,0.733,0.141,1.1
			c0.435-0.366,0.814-0.9,1.315-1.064c1.092-0.358,2.664-1.085,3.27-0.633c0.757,0.565,0.988,2.164,1,3.321
			c0.023,2.15-0.151,4.326-0.505,6.447c-0.141,0.85-0.821,1.818-1.544,2.297c-0.572,0.379-2.018,0.415-2.305,0.029
			c-0.501-0.671-0.672-1.836-0.508-2.703c0.365-1.934,1.022-3.812,1.561-5.713C131.084,365.144,130.725,364.928,130.365,364.711z"/>
		<path fill-rule="evenodd" clip-rule="evenodd" d="M87.43,361.638c1.126,0.271,2.6,0.626,4.582,1.104
			c1.489-1.873,3.372-1.949,4.796,1.422c0.792-0.679,1.266-1.334,1.894-1.562c0.94-0.339,2.329-0.843,2.903-0.423
			c0.699,0.512,1.03,1.909,1.025,2.921c-0.011,2.26-0.016,4.612-0.654,6.738c-0.325,1.083-2.014,1.756-3.087,2.613
			c-0.435-0.984-1.322-2.023-1.21-2.94c0.236-1.931,0.997-3.795,1.542-5.687c-0.337-0.198-0.674-0.396-1.011-0.594
			c-1.212,2.191-2.336,4.438-3.675,6.548c-0.624,0.984-1.664,1.705-2.515,2.545c-0.125-1.123-0.474-2.275-0.324-3.36
			c0.232-1.675,0.804-3.303,1.232-4.95c-0.347-0.19-0.695-0.382-1.042-0.572c-0.822,1.285-1.746,2.52-2.435,3.873
			c-0.559,1.099-0.669,2.441-1.296,3.483c-0.415,0.69-1.392,1.043-2.118,1.547c-0.22-0.854-0.736-1.755-0.609-2.553
			C85.926,368.677,86.629,365.595,87.43,361.638z"/>
		<path fill-rule="evenodd" clip-rule="evenodd" d="M145.231,379.568c-1.72,0.08-3.121,0.145-4.469,0.207
			c1.573-6.082,3.053-11.8,4.72-18.244c1.578-0.121,4.357-0.581,7.097-0.408c0.967,0.062,2.295,1.513,2.668,2.602
			c1.3,3.785-2.357,10.03-6.309,10.329C145.222,374.335,144.204,375.919,145.231,379.568z M151.8,364.138
			c-3.95,0.809-5.654,3.798-4.635,8.13C151.238,370.801,152.591,368.427,151.8,364.138z"/>
		<path fill-rule="evenodd" clip-rule="evenodd" d="M184.592,363.981c-1.458,2.427-2.845,4.9-4.407,7.258
			c-0.698,1.054-1.749,1.873-2.641,2.8c-0.365-0.278-0.731-0.557-1.097-0.834c0.481-1.879,1.045-3.742,1.417-5.642
			c0.374-1.912,0.554-3.862,0.902-6.397c0.764-0.05,1.904-0.165,3.047-0.189c1.193-0.023,2.39,0.018,3.583,0.071
			c1.059,0.048,2.565-0.243,3.063,0.325c0.673,0.77,0.782,2.222,0.757,3.373c-0.042,2.039-0.22,4.102-0.635,6.093
			c-0.204,0.975-0.906,2.02-1.693,2.635c-0.526,0.412-2.193,0.383-2.318,0.099c-0.396-0.898-0.539-2.057-0.352-3.031
			c0.387-2.011,1.05-3.967,1.601-5.945C185.41,364.391,185.001,364.187,184.592,363.981z"/>
		<path fill-rule="evenodd" clip-rule="evenodd" d="M110.883,373.463c-2.096,0.275-3.659,0.48-5.222,0.686
			c-0.037-1.641-0.2-3.29-0.075-4.918c0.135-1.753,2.44-3.796-1.72-4.814c0.193-0.314,0.385-0.63,0.579-0.944
			c1.563-0.569,3.126-1.139,4.69-1.708c0.133,1.596,0.44,3.203,0.344,4.785c-0.079,1.304-0.636,2.577-0.98,3.864
			c0.305,0.182,0.609,0.363,0.914,0.545c0.973-1.606,1.952-3.209,2.917-4.82c0.943-1.575,1.87-3.159,2.804-4.739
			c0.48,0.221,0.961,0.442,1.441,0.662c-0.39,1.731-0.817,3.456-1.154,5.197c-0.206,1.063-0.769,2.504-0.304,3.166
			c1.243,1.771,0.689,2.987-0.909,3.499C113.143,374.264,111.76,373.61,110.883,373.463z"/>
		<path fill-rule="evenodd" clip-rule="evenodd" d="M64.654,374.387c0.677-3.785,1.354-7.57,2.183-12.199
			c1.058,0.165,2.572,0.401,4.086,0.638c-0.012,0.382-0.024,0.765-0.037,1.147c0.596-0.389,1.145-0.951,1.797-1.126
			c1.096-0.292,2.655-0.847,3.289-0.353c0.743,0.578,0.93,2.154,0.956,3.307c0.047,2.107,0.126,4.318-0.458,6.293
			c-0.321,1.087-1.966,1.783-3.014,2.655c-0.463-1.001-1.408-2.062-1.292-2.99c0.257-2.039,1.051-4.011,1.625-6.011
			c-0.417-0.243-0.835-0.485-1.252-0.728c-2.199,3.329-4.398,6.659-6.598,9.988C65.511,374.802,65.082,374.595,64.654,374.387z"/>
		<path fill-rule="evenodd" clip-rule="evenodd" d="M160.042,374.373c-0.563-0.467-2.546-1.305-2.711-2.413
			c-0.34-2.286-0.24-4.943,0.65-7.034c1.159-2.72,3.849-4.713,6.868-4.043c1.571,0.349,3.352,2.549,3.875,4.267
			C169.903,369.024,165.123,374.436,160.042,374.373z M160.8,372.386c3.126-1.49,4.714-3.635,4.806-6.626
			c0.023-0.747-0.301-1.881-0.83-2.169c-0.578-0.314-1.71-0.079-2.371,0.308C159.97,365.329,159.283,368.922,160.8,372.386z"/>
		<path fill-rule="evenodd" clip-rule="evenodd" d="M197.067,358.232c-0.536,1.82-1.198,3.614-1.576,5.467
			c-0.46,2.256-2.717,4.371-0.562,6.987c0.201,0.244-1.347,2.197-2.37,2.983c-0.242,0.186-2.424-1.19-2.389-1.766
			c0.217-3.524,0.44-7.14,1.455-10.483c0.471-1.553,2.73-2.562,4.179-3.817C196.226,357.813,196.647,358.022,197.067,358.232z"/>
		<path fill-rule="evenodd" clip-rule="evenodd" d="M170.485,372.487c0.466-4.179,0.658-7.227,1.25-10.195
			c0.134-0.674,1.652-1.071,2.532-1.596c0.465,0.805,1.329,1.612,1.321,2.411c-0.026,2.705-0.095,5.469-0.707,8.079
			c-0.256,1.092-1.822,2.042-3.003,2.636C171.586,373.969,170.468,372.47,170.485,372.487z"/>
		<path fill-rule="evenodd" clip-rule="evenodd" d="M80.695,361.938c0.574,0,1.735,0,2.897,0c-0.004,1.156,0.098,2.324-0.036,3.464
			c-0.262,2.234-0.655,4.452-0.994,6.677c0.338,0.096,0.676,0.192,1.014,0.288c-0.534,0.502-0.988,1.185-1.62,1.46
			c-0.83,0.362-1.8,0.402-2.71,0.581c-0.177-0.926-0.623-1.895-0.482-2.769C79.24,368.666,79.922,365.726,80.695,361.938z"/>
		<path fill-rule="evenodd" clip-rule="evenodd" d="M60.474,362.288c0.514-0.032,1.657-0.104,2.259-0.142
			c0,3.697,0.237,7.052-0.15,10.332c-0.11,0.934-2.036,1.653-3.129,2.471c-0.467-0.99-1.455-2.066-1.306-2.953
			C58.667,368.903,59.578,365.877,60.474,362.288z"/>
		<path fill-rule="evenodd" clip-rule="evenodd" d="M215.355,48.42c-1.696,0-3.662,0-5.62,0c1.12-2.838,2.172-5.505,3.224-8.172
			c-0.263-0.143-0.526-0.285-0.79-0.427c-1.763,2.303-3.459,4.663-5.333,6.873c-0.542,0.64-1.594,0.848-2.412,1.254
			c-0.34-0.751-0.837-1.471-0.987-2.257c-0.344-1.804-0.518-3.641-0.761-5.465c-0.372-0.03-0.742-0.06-1.113-0.09
			c-0.431,2.719-0.862,5.437-1.346,8.496c-0.856,0-2.339,0-3.567,0c1.772-5.982,3.46-11.682,5.408-18.259
			c1.394-0.511,2.917-0.022,3.198,3.213c0.242,2.781,0.965,5.521,1.522,8.528c5.017-3.388,5.78-10.752,12.834-12.169
			C217.679,36.39,215.09,41.885,215.355,48.42z"/>
		<path fill-rule="evenodd" clip-rule="evenodd" d="M240.801,46.626c-2.015,2.505-2.554,2.542-5.437-0.634
			c-2.762,3.275-6.287,2.605-9.891,1.841c-0.743-0.157-1.633,0.297-2.437,0.53c-2.968,0.858-4.941-0.637-4.8-3.661
			c0.237-5.077,4.475-8.946,9.606-8.563c3.21,0.24,6.396,0.789,9.595,1.179c0.225,0.027,0.529-0.05,0.699-0.194
			c3.554-3.024,4.468-0.093,5.25,1.502c-1.854,0.903-4.111,1.335-4.942,2.661C237.947,42.077,239.691,44.271,240.801,46.626z
			 M235.661,41.819c-1.589-1.611-2.592-2.631-3.597-3.65c-0.868,1.903-1.843,3.771-2.497,5.744
			c-0.107,0.322,1.614,1.714,1.791,1.593C232.72,44.57,233.91,43.382,235.661,41.819z M226.674,37.488
			c-4.393,2.283-5.689,5.59-3.538,8.445C225.942,43.94,227.492,41.549,226.674,37.488z"/>
		<path fill-rule="evenodd" clip-rule="evenodd" d="M252.459,35.678c2.749,0.24,5.916,0.569,9.09,0.759
			c0.882,0.053,1.784-0.406,2.685-0.45c1.049-0.052,2.544-0.306,3.057,0.251c0.707,0.771,0.922,2.222,0.907,3.376
			c-0.024,1.979-0.057,4.079-0.736,5.883c-0.413,1.098-2.046,1.736-3.131,2.582c-0.492-0.937-1.461-1.921-1.375-2.801
			c0.177-1.81,0.917-3.564,1.425-5.342c-0.283-0.173-0.567-0.346-0.851-0.52c-1.075,1.864-2.019,3.822-3.272,5.557
			c-0.82,1.135-2.09,1.946-3.158,2.903c-0.072-1.22-0.324-2.463-0.17-3.654c0.185-1.439,0.713-2.833,1.092-4.248
			c-0.335-0.17-0.671-0.341-1.007-0.511c-0.947,1.895-1.759,3.875-2.891,5.652c-0.699,1.096-1.885,1.882-2.853,2.807
			c-0.135-1.209-0.504-2.448-0.356-3.621C251.252,41.64,251.844,39.01,252.459,35.678z"/>
		<path fill-rule="evenodd" clip-rule="evenodd" d="M288.063,47.806c0.952-3.414,1.664-5.973,2.377-8.53
			c-0.271-0.129-0.543-0.258-0.814-0.387c-1.843,3.114-3.687,6.228-5.529,9.342c-0.48-0.209-0.959-0.417-1.439-0.626
			c0.671-3.762,1.341-7.524,2.139-12.001c3.012,0.151,6.419,0.321,9.827,0.491c-0.035,0.066-0.071,0.131-0.107,0.196
			c1.692-0.165,3.385-0.33,5.076-0.494c0.088,1.647,0.223,3.295,0.246,4.943c0.018,1.369,0.049,2.768-0.205,4.101
			c-0.16,0.837-0.669,1.792-1.327,2.296c-0.578,0.443-1.906,0.722-2.319,0.376c-0.611-0.512-1.107-1.727-0.942-2.49
			c0.429-1.992,1.244-3.901,2.005-6.136C292.422,40.375,294.081,47.146,288.063,47.806z"/>
		<path fill-rule="evenodd" clip-rule="evenodd" d="M310.934,35.213c1.799,0,4.493-0.294,7.063,0.139
			c1.093,0.184,2.518,1.767,2.771,2.934c0.8,3.711-2.864,9.201-6.68,9.502c-4.102,0.325-4.642,1.979-2.804,5.714
			c-2.099,0.17-3.819,0.31-5.449,0.442C307.537,47.692,309.13,41.841,310.934,35.213z M312.302,45.851
			c4.225-1.195,5.532-3.471,4.711-7.8C313.346,38.698,312.035,40.783,312.302,45.851z"/>
		<path fill-rule="evenodd" clip-rule="evenodd" d="M344.109,34.931c1.194,0.29,2.791,0.677,4.969,1.206
			c0.272-0.134,1.221-0.821,2.272-1.068c1.869-0.44,3.265,0.067,3.091,2.408c-0.195,2.636-0.137,5.333-0.736,7.875
			c-0.206,0.875-2.058,1.363-3.158,2.028c-0.409-0.892-1.268-1.854-1.141-2.661c0.341-2.169,1.103-4.272,1.698-6.402
			c-0.347-0.212-0.693-0.424-1.04-0.636c-1.523,2.321-2.996,4.68-4.594,6.948c-0.717,1.019-1.687,1.86-2.54,2.782
			c-0.161-1.301-0.586-2.635-0.429-3.896C342.83,40.871,343.463,38.266,344.109,34.931z"/>
		<path fill-rule="evenodd" clip-rule="evenodd" d="M275.032,44.844c1.193-2.375,2.279-4.816,3.635-7.095
			c0.511-0.859,1.646-1.349,2.495-2.007c0.121,0.991,0.379,1.989,0.333,2.972c-0.096,2.058-0.15,4.157-0.619,6.146
			c-0.261,1.107-1.32,2.025-2.021,3.028c-2.471-3.025-6.614,2.84-8.617-1.561c-0.455-1,0.626-2.613,0.674-3.956
			c0.044-1.233-0.423-2.477-0.52-3.726c-0.05-0.648,0.017-1.726,0.378-1.903c1.059-0.521,2.295-0.901,3.453-0.881
			c0.427,0.007,1.256,1.341,1.171,1.971c-0.295,2.189-0.911,4.335-1.405,6.498C274.337,44.5,274.685,44.671,275.032,44.844z"/>
		<path fill-rule="evenodd" clip-rule="evenodd" d="M321.675,42.52c0.403-4.15,4.489-7.922,8.278-7.525
			c3.007,0.314,4.367,2.273,4.211,5.11c-0.258,4.651-4.19,8.121-8.404,7.621C322.674,47.359,321.652,45.339,321.675,42.52z
			 M331.721,40.005c-1.186-1.446-1.68-2.648-2.458-2.875c-1.642-0.478-4.697,3.604-4.409,6.097c0.105,0.917,1.294,1.71,1.988,2.56
			C328.407,43.932,329.974,42.075,331.721,40.005z"/>
		<path fill-rule="evenodd" clip-rule="evenodd" d="M362.186,32.485c-0.548,1.681-1.285,3.328-1.6,5.052
			c-0.463,2.54-3.171,5.053,0.568,8.4c-2.137,0.473-3.614,0.799-5.092,1.126c-0.154-1.354-0.896-3.035-0.356-4.001
			c1.777-3.183-0.081-7.619,3.571-10.05c0.574-0.381,1.202-0.682,1.806-1.02C361.45,32.157,361.817,32.321,362.186,32.485z"/>
		<path fill-rule="evenodd" clip-rule="evenodd" d="M245.952,35.901c0.62-0.066,1.794-0.189,3.594-0.378
			c-0.397,2.099-0.775,3.718-0.992,5.36c-0.17,1.298,0.003,2.65-0.244,3.926c-0.204,1.053-0.601,2.213-1.297,2.973
			c-0.413,0.449-2.191,0.472-2.289,0.24c-0.42-1.003-0.72-2.211-0.563-3.271C244.561,42.041,245.228,39.371,245.952,35.901z"/>
		<path fill-rule="evenodd" clip-rule="evenodd" d="M337.56,35.357c0.721,0,1.901,0,3.543,0c-0.469,1.987-0.963,3.712-1.257,5.471
			c-0.168,1.011,0.102,2.093-0.033,3.115c-0.127,0.968-0.261,2.182-0.883,2.767c-0.584,0.55-2.236,0.874-2.652,0.481
			c-0.644-0.605-0.997-1.968-0.833-2.896C335.957,41.409,336.772,38.576,337.56,35.357z"/>
		<path fill-rule="evenodd" clip-rule="evenodd" fill="#FFFFFF" d="M322.44,404.928c1.097-2.043,1.893-4.354,3.388-6.047
			c1.218-1.38,2.651-0.502,2.525,1.372c-0.201,2.979-1.963,4.762-4.603,5.618C323.314,405.557,322.877,405.242,322.44,404.928z"/>
		<path fill-rule="evenodd" clip-rule="evenodd" fill="#FFFFFF" d="M473.275,397.164c-0.322,1.583-0.331,3.341-1.079,4.688
			c-0.493,0.889-2.052,1.186-3.133,1.747c-0.107-1.244-0.648-2.678-0.212-3.688c0.574-1.329,1.918-2.325,2.932-3.464
			C472.28,396.686,472.778,396.925,473.275,397.164z"/>
		<path fill-rule="evenodd" clip-rule="evenodd" fill="#FFFFFF" d="M379.229,405.269c-1.525-3.293-0.899-6.235,1.513-7.299
			c0.562-0.248,2.027,0.114,2.11,0.441C383.644,401.534,382.116,403.595,379.229,405.269z"/>
		<path fill-rule="evenodd" clip-rule="evenodd" fill="#FFFFFF" d="M337.332,406.652c-3.1-3.549-1.381-5.758,0.005-7.857
			c0.348-0.527,1.522-0.802,2.232-0.682c0.394,0.065,1.016,1.338,0.839,1.803C339.604,402.029,338.552,404.051,337.332,406.652z"/>
		<path fill-rule="evenodd" clip-rule="evenodd" fill="#FFFFFF" d="M151.8,364.138c0.791,4.289-0.563,6.663-4.635,8.13
			C146.146,367.936,147.851,364.946,151.8,364.138z"/>
		<path fill-rule="evenodd" clip-rule="evenodd" fill="#FFFFFF" d="M160.8,372.386c-1.517-3.464-0.83-7.057,1.606-8.487
			c0.661-0.387,1.792-0.622,2.371-0.308c0.529,0.288,0.853,1.422,0.83,2.169C165.514,368.751,163.926,370.896,160.8,372.386z"/>
		<path fill-rule="evenodd" clip-rule="evenodd" fill="#FFFFFF" d="M235.661,41.819c-1.751,1.563-2.941,2.751-4.303,3.687
			c-0.177,0.121-1.898-1.271-1.791-1.593c0.654-1.973,1.629-3.841,2.497-5.744C233.069,39.188,234.072,40.208,235.661,41.819z"/>
		<path fill-rule="evenodd" clip-rule="evenodd" fill="#FFFFFF" d="M226.674,37.488c0.818,4.061-0.732,6.452-3.538,8.445
			C220.985,43.078,222.282,39.771,226.674,37.488z"/>
		<path fill-rule="evenodd" clip-rule="evenodd" fill="#FFFFFF" d="M312.302,45.851c-0.267-5.068,1.044-7.153,4.711-7.8
			C317.834,42.38,316.526,44.656,312.302,45.851z"/>
		<path fill-rule="evenodd" clip-rule="evenodd" fill="#FFFFFF" d="M331.721,40.005c-1.747,2.07-3.313,3.926-4.879,5.782
			c-0.694-0.85-1.883-1.642-1.988-2.56c-0.288-2.493,2.768-6.574,4.409-6.097C330.041,37.357,330.535,38.56,331.721,40.005z"/>
	</g>
</g>
</svg>
