<?xml version="1.0" encoding="utf-8"?>
<!-- Generator: Adobe Illustrator 16.0.0, SVG Export Plug-In . SVG Version: 6.00 Build 0)  -->
<!DOCTYPE svg PUBLIC "-//W3C//DTD SVG 1.1//EN" "http://www.w3.org/Graphics/SVG/1.1/DTD/svg11.dtd">
<svg version="1.1" id="Layer_1" xmlns="http://www.w3.org/2000/svg" xmlns:xlink="http://www.w3.org/1999/xlink" x="0px" y="0px"
	 width="593.333px" height="420.809px" viewBox="0 0 593.333 420.809" enable-background="new 0 0 593.333 420.809"
	 xml:space="preserve">
<g>
	<g>
		<path fill-rule="evenodd" clip-rule="evenodd" fill="#FFFFFF" d="M0.75,421.559c0-140.27,0-280.539,0-420.809
			c197.778,0,395.555,0,593.333,0c0,140.27,0,280.539,0,420.809C396.305,421.559,198.528,421.559,0.75,421.559z M163.904,42.631
			c-1.233,1.091-2.384,1.787-3.083,2.796c-1.366,1.972-2.469,4.125-3.699,6.192c-6.105,10.266-12.281,20.489-18.305,30.803
			c-4.667,7.989-9.038,16.152-13.738,24.122c-5.53,9.376-11.298,18.61-16.912,27.937c-2.997,4.978-5.91,10.006-8.805,15.044
			c-0.792,1.377-1.248,2.954-2.084,4.298c-4.921,7.915-10.025,15.718-14.841,23.696c-4.307,7.135-8.299,14.458-12.471,21.674
			c-2.758,4.772-6.02,9.313-8.217,14.324c-1.238,2.824-4.412,4.257-4.248,8.202c0.448,10.72,0.263,21.473,0.141,32.21
			c-0.302,26.428-0.72,52.853-1.067,79.279c-0.091,6.947-0.21,13.898-0.014,20.84c0.031,1.095,1.525,2.844,2.599,3.069
			c2.267,0.476,4.706,0.081,7.071,0.152c21.299,0.637,42.595,1.325,63.894,1.94c16.094,0.465,32.187,1.038,48.284,1.218
			c27.482,0.309,54.968,0.282,82.451,0.575c3.449,0.038,4.198-1.213,4.221-4.298c0.116-15.729,0.467-31.456,0.592-47.185
			c0.214-26.859-0.166-53.736,0.756-80.57c0.296-8.63-4.967-14.13-7.753-20.956c-2.439-5.977-6.823-11.142-10.177-16.767
			c-2.064-3.46-3.716-7.165-5.721-10.664c-3.613-6.303-7.393-12.511-11.024-18.805c-2.411-4.178-4.614-8.477-7.039-12.647
			c-3.632-6.246-7.416-12.404-11.061-18.643c-2.972-5.088-5.89-10.209-8.734-15.37c-4.211-7.639-8.335-15.326-12.847-23.638
			c10.728-5.187,21.004-10.155,31.245-15.106c-1.517-5.955-6.81-1.009-9.682-3.791c0.217-0.737,0.192-2.051,0.792-2.469
			c4.52-3.144,8.67-6.558,12.002-11.071c1.991-2.696,4.944-4.673,7.408-7.034c2.681-2.567,5.269-5.232,7.947-7.803
			c4.642-4.458,9.655-8.587,13.836-13.438c1.888-2.19,3.567-3.143,6.177-3.119c18.743,0.169,37.485,0.337,56.229,0.498
			c2.567,0.022,5.136,0.003,7.757,0.003c-0.315-3.882-0.438-4.066-3.518-4.081c-4.498-0.021-8.996,0.111-13.494,0.094
			c-16.621-0.065-33.242-0.198-49.862-0.201c-1.677,0-3.85,0.167-4.951,1.176c-6.281,5.755-12.399,11.697-18.395,17.752
			c-6.667,6.734-13.069,13.73-19.745,20.455c-2.068,2.083-4.651,3.654-6.999,5.458c-0.373-0.124-0.747-0.248-1.12-0.372
			c-0.107-2.368-0.119-4.745-0.369-7.097c-0.091-0.858-0.747-1.657-1.145-2.483c-0.803,0.468-2.017,0.742-2.345,1.435
			c-2.807,5.929-5.365,11.976-8.184,17.9c-1.586,3.333-3.522,6.5-5.573,10.237C181.083,72.667,172.637,57.899,163.904,42.631z
			 M555.619,263.664c0.127-0.697,0.255-1.395,0.382-2.092c-1.835-0.605-3.661-1.705-5.507-1.739
			c-16.816-0.313-33.638-0.369-50.455-0.649c-11.345-0.19-22.686-0.688-34.03-0.918c-7.991-0.163-15.987-0.165-23.979-0.07
			c-0.953,0.011-1.894,1.08-2.839,1.659c0.75,0.698,1.394,1.776,2.271,2.021c2.099,0.585,4.298,1.022,6.47,1.081
			c6.352,0.175,12.71,0.134,19.066,0.179c24.98,0.176,49.961,0.357,74.941,0.524C546.499,263.69,551.059,263.664,555.619,263.664z
			 M538.437,273.08c-2.262,1.215-4.739,2.154-6.733,3.712c-2.851,2.227-3.074,6.824-1.317,10.093c0.463,0.86-0.103,2.414-0.48,3.556
			c-0.814,2.466-2.707,4.93-2.551,7.287c0.313,4.728,5.075,8.567,9.841,9.064c4.276,0.446,7.698-1.65,9.908-4.715
			c2.621-3.634,1.463-7.797-0.545-11.639c-0.522-1.001-1.158-2.868-0.724-3.291c2.564-2.491,2.286-5.587,0.756-7.791
			C544.825,276.813,543.276,273.008,538.437,273.08z M510.143,286.131c-0.313-0.219-0.625-0.438-0.938-0.657
			c0.54-1.38,0.741-3.08,1.685-4.079c2.374-2.514,5.832-2.066,8.563,0.165c1.129,0.923,3.077,0.924,4.681,1.118
			c0.291,0.035,1.155-1.316,1.01-1.535c-1.592-2.403-2.865-5.649-5.157-6.784c-2.404-1.191-6.568-1.46-8.62-0.102
			c-2.91,1.926-5.745,5.439-6.521,8.764c-1.094,4.678-0.578,9.828-0.176,14.729c0.348,4.248,7.393,9.401,11.383,8.894
			c3.533-0.45,8.641-5.261,9.593-9.036c1.264-5.013-1.103-8.8-5.353-11.386C516.633,283.997,513.559,284.801,510.143,286.131z
			 M464.959,92.82c0.114-0.386,0.228-0.771,0.342-1.158c0.939-0.202,1.87-0.495,2.82-0.591c3.638-0.367,6.369-1.605,7.145-5.734
			c0.38-2.022,0.841-4.146,3.646-4.984c1.4-0.418,1.732-3.594-0.424-3.512c-6.473,0.244-13.856-3.882-19.128,3.523
			c-1.301,1.829-2.436,6.39-1.275,8.253c2.32,3.729,1.873,6.898-1.801,9.11c-2.752,1.657-2.979,4.123-2.14,6.366
			c0.559,1.494,2.637,3.276,4.155,3.395c4.423,0.346,8.937,0.188,13.358-0.287c3.453-0.371,3.478-3.808,3.47-6.158
			c-0.006-1.431-1.835-3.156-3.247-4.21C469.759,95.247,467.284,94.134,464.959,92.82z M388.438,77.948
			c-1.044-3.169-1.044-3.169-5.507-2.633c-5.039,0.605-4.98,0.601-4.934-4.066c0.008-0.797-0.626-2.02-1.273-2.285
			c-0.615-0.251-1.895,0.261-2.436,0.848c-1.922,2.083-3.654,4.343-4.564,5.449c-0.638,3.994-0.977,6.953-1.611,9.846
			c-0.622,2.836-1.809,5.565-2.248,8.419c-0.322,2.086,1.006,3.339,3.305,3.684c2.956,0.445,4.574-1.068,5.151-3.508
			c0.278-1.177-0.696-2.65-1.104-3.989c-0.305-1.407-0.005-2.992,0.275-4.58c0.594-3.372,1.995-6.182,5.18-7.875
			c1.753-0.931,2.972-0.7,3.144,1.417c0.13,1.598,0.21,3.327-0.255,4.822c-1.051,3.384-2.505,6.641-3.687,9.989
			c-0.556,1.573-0.993,3.396,1.446,3.775c1.854,0.288,2.937-0.264,3.761-2.481c1.463-3.936,3.865-7.515,5.738-11.311
			c0.918-1.859,2.171-1.822,3.969-1.641c1.021,0.103,2.776-0.816,3.111-1.692c0.466-1.213,0.41-3.282-0.361-4.121
			c-0.708-0.768-2.74-0.719-4.042-0.412C390.435,75.855,389.588,77.021,388.438,77.948z M464.254,298.545
			c3.043-1.354,3.597-3.694,1.818-6.268c-0.952-1.378-1.746-3.125-1.866-4.76c-0.243-3.344,0.163-6.73-0.001-10.084
			c-0.063-1.283-0.952-2.525-1.464-3.787c-1.534,0.735-3.512,1.092-4.522,2.274c-3.851,4.505-7.02,9.644-11.176,13.816
			c-2.716,2.729-2.618,4.932-1.177,8.313c3.841,0,7.755,0,11.581,0c0.817,2.946-1.027,7.161,4.155,6.619
			C466.041,304.205,463.678,300.729,464.254,298.545z M481.973,283.648c2.037-1.004,3.612-2.014,5.335-2.567
			c1.966-0.631,4.062-1.117,6.103-1.126c0.805-0.003,2.438,1.721,2.282,2.2c-0.756,2.328-1.557,4.894-3.143,6.652
			c-3.574,3.964-7.851,7.297-11.395,11.285c-2.424,2.729-1.365,4.53,2.331,4.646c4.489,0.141,8.984,0.155,13.478,0.17
			c1.54,0.006,3.081-0.148,4.532-0.226c0.6-4.208-0.754-5.857-4.639-5.443c-2.591,0.276-5.234,0.053-8.612,0.053
			c1.979-1.688,2.978-3.146,4.304-3.563c4.283-1.348,6.006-5.297,7.519-8.488c3.6-7.597-1.213-13.924-9.639-13.676
			C485.111,273.723,481.816,277.167,481.973,283.648z M403.565,50.706c-2.707-2.152-1.694-4.761-0.825-7.319
			c0.981-2.888,2.06-5.743,3.064-8.623c0.317-0.908,0.519-1.857,0.801-2.778c0.969-3.162,2.074-6.289,2.88-9.492
			c0.484-1.925-0.513-3.173-2.443-2.04c-1.935,1.136-3.427,0.759-5.15-0.212c-2.575-1.451-4.705-0.4-6.664,1.394
			c-0.805,0.736-1.709,1.361-2.534,2.077c-3.636,3.156-6.306,6.903-6.367,11.903c-0.067,5.481,4.35,8.119,9.423,5.837
			c0.888-0.398,1.886-0.552,2.833-0.818c0.313,0.331,0.626,0.663,0.938,0.995c-1.772,3.163-3.545,6.325-5.36,9.563
			C396.911,51.454,400.143,54.586,403.565,50.706z M491.118,245.56c0-2.09-0.02-3.57,0.003-5.051
			c0.116-7.618,0.129-7.88,7.666-7.604c8.689,0.318,11.165-5.351,10.23-12.052c-0.585-4.198-2.556-6.14-6.798-6.391
			c-3.23-0.191-6.479-0.199-9.718-0.164c-6.259,0.068-6.419,0.103-6.546,6.364c-0.164,8.078-0.04,16.163-0.04,24.626
			C487.381,245.365,488.926,245.445,491.118,245.56z M421.35,40.091c0.328,0.43,0.584,0.852,0.924,1.189
			c2.363,2.337,5.051,1.35,7.188,0.041c2.211-1.354,2.403-3.493,0.256-5.582c-0.461-0.449-0.159-1.874,0.052-2.788
			c0.672-2.895,1.688-5.729,2.106-8.653c0.166-1.162-0.888-2.498-1.387-3.755c-1.121,0.781-2.672,1.32-3.274,2.393
			c-1.374,2.442-1.96,5.355-3.472,7.685c-1.49,2.297-2.35,5.589-6.666,6.236c0.902-2.202,1.716-3.708,2.134-5.316
			c0.708-2.714,1.432-5.475,1.643-8.254c0.168-2.207-1.532-3.84-3.604-2.912c-2.406,1.078-4.391,3.097-6.559,4.708
			c1.131,0.796,2.263,1.592,3.954,2.783c-1.183,2.987-2.705,6.3-3.738,9.76c-0.314,1.056,0.333,2.986,1.207,3.702
			C415.228,43.88,418.158,42.17,421.35,40.091z M443.26,78.82c-0.651-1.125-1.286-3.263-2.022-3.298
			c-2.017-0.096-4.091,0.636-6.099,1.199c-0.258,0.072-0.551,1.401-0.325,1.611c2.545,2.376,0.989,4.791,0.215,7.218
			c-0.92,2.884-1.99,5.739-2.606,8.688c-0.199,0.96,0.822,2.174,1.286,3.272c1.427-0.678,3.014-1.157,4.217-2.116
			c0.626-0.499,0.454-1.899,0.848-2.803c2.077-4.766,4.718-9.071,9.962-11.341c-0.71,3.511-2.225,6.663-3.136,9.981
			c-0.52,1.892-0.592,4.304,0.189,5.993c0.413,0.893,3.377,1.42,4.661,0.874c1.374-0.584,3.255-2.968,2.952-3.974
			c-1.24-4.113-0.11-7.79,0.7-11.699c1.261-6.071-0.625-7.659-6.595-5.891C445.938,77.001,444.558,78.104,443.26,78.82z
			 M423.525,75.463c-6.412-0.711-14.657,9.637-13.923,17.356c0.413,4.348,2.587,6.139,6.94,5.205
			c1.093-0.235,2.143-0.729,3.241-0.851c1.021-0.114,2.253-0.209,3.09,0.244c3.286,1.78,7.532-0.277,6.98-3.905
			c-0.806-5.293,0.479-10.002,2.193-14.824c0.291-0.819-0.69-2.978-1.312-3.076C428.383,75.241,425.937,75.463,423.525,75.463z
			 M474.342,43.902c1.337-0.54,2.856-0.694,3.514-1.529c0.937-1.188,2.136-3.343,1.654-4.268c-1.993-3.823,0.319-6.889,1.152-10.197
			c0.321-1.274,1.396-2.398,1.552-3.662c0.094-0.761-1.298-2.426-1.384-2.384c-2.917,1.432-5.458,0.483-8.075-0.867
			c-0.538-0.277-1.582,0.373-2.373,0.654c-5.666,2.012-8.438,6.687-9.896,11.956c-0.691,2.501-0.492,6,0.822,8.095
			c1.32,2.106,4.577,2.26,7.203,0.738C470.928,41.038,472.959,41.464,474.342,43.902z M533.861,38.581
			c0.925,1.938,1.443,5.018,2.876,5.527c1.858,0.661,4.43-0.82,6.725-1.19c1.159-0.188,2.412-0.1,3.577,0.113
			c1.513,0.277,3.764,1.597,4.312,1.059c1.228-1.208,2.511-3.512,2.149-4.966c-1.073-4.319,0.7-7.774,2.175-11.456
			c0.425-1.059,0.7-2.488,0.313-3.453c-0.258-0.639-1.796-0.852-2.802-1.072c-0.707-0.154-1.49,0.076-2.227,0.001
			C541.944,22.22,534.301,29.212,533.861,38.581z M382.851,253.086c-1.343-1.664-2.697-3.775-4.505-5.376
			c-0.78-0.691-2.496-0.327-3.785-0.442c-0.093,1.139-0.521,2.389-0.191,3.387c0.409,1.237,1.38,2.321,2.227,3.376
			c3.399,4.232,2.918,7.284-1.329,10.898c-1.065,0.905-1.398,2.735-1.87,4.205c-0.064,0.203,1.1,1.191,1.54,1.097
			c1.43-0.309,3-0.674,4.117-1.533c1.492-1.148,2.611-2.78,3.984-4.309c3.192,2.07,3.657,8.751,9.869,4.881
			c-0.973-1.814-1.652-3.863-2.96-5.364c-2.873-3.297-3.34-6.188,0.105-9.406c1.115-1.041,1.825-2.69,2.285-4.194
			c0.266-0.872-0.336-2.009-0.547-3.025c-0.866,0.222-1.899,0.217-2.568,0.707C386.98,249.629,384.869,251.448,382.851,253.086z
			 M371.122,35.468c5.003-2.738,8.716-4.759,12.42-6.799c3.188-1.756,3.257-4.582,1.973-7.346c-1.251-2.691-4.694-2.982-8.273-1.411
			c-5.237,2.299-8.589,6.002-9.731,11.706c-0.329,1.64-2.307,2.906-0.364,4.925c1.298,1.35,1.584,3.865,3.018,4.855
			c4.268,2.949,11.883-0.426,13.373-6.483c-2.316,0.757-4.112,1.756-5.946,1.833C375.665,36.828,373.704,36.023,371.122,35.468z
			 M506.165,76.5c-3.638-1.34-5.417,1.954-7.98,3.632c-3.73,2.442-6.676,8.566-5.606,12.848c0.806,3.229,2.612,6.573,6.31,6.28
			c3.335-0.265,6.589-2.026,9.757-3.408c0.489-0.213,0.322-1.929,0.459-2.95c-0.872-0.01-1.78-0.18-2.61,0.003
			c-1.68,0.371-3.356,1.403-4.959,1.265c-1.271-0.108-2.428-1.552-3.636-2.403c1.044-0.63,2.086-1.792,3.133-1.797
			c4.184-0.017,7.145-2.063,9.214-5.342c0.838-1.326,1.195-3.31,0.961-4.874C510.838,77.3,509.212,75.781,506.165,76.5z
			 M250.736,134.314c-0.326-0.434-0.652-0.869-0.978-1.303c-1.673,0-3.346,0-5.22,0c-0.113-2.288-0.236-4.263-0.3-6.24
			c-0.071-2.187,1.155-3.371,3.207-3.139c2.148,0.243,4.157-0.145,4.333-2.295c0.124-1.517-1.294-3.159-2.143-5.005
			c-2.791,1.792-4.798,3.08-6.909,4.434c-1.518-1.41-2.833-3.423-4.655-4.131c-2.384-0.927-4.642-0.05-4.819,3.232
			c0.387,0.265,0.759,0.667,1.211,0.805c4.231,1.286,3.788,5.17,3.524,7.991c-0.178,1.903-2.605,4.809-4.394,5.115
			c-4.751,0.813-3.458,3.47-2.783,7.564c2.505-1.816,4.84-2.875,6.223-4.668c1.792-2.324,2.45-4.302,3.67,0.32
			c0.335,1.27,3.672,3.07,4.585,2.599C247.441,138.484,248.961,136.152,250.736,134.314z M33.131,299.076
			c0-1.596,0.016-3.042-0.004-4.487c-0.021-1.497-0.03-2.997-0.126-4.49c-0.276-4.29-2.754-6.176-6.778-5.082
			c-0.747,0.203-1.84,0.821-1.921,1.372c-0.111,0.761,0.525,1.674,0.952,2.463c0.5,0.922,1.478,1.725,1.624,2.676
			c0.648,4.23,1.101,8.492,1.546,12.751c0.059,0.565-0.192,1.282-0.539,1.75c-1.825,2.463-3.729,4.869-5.761,7.496
			c0.506,0.297,1.4,0.82,2.167,1.27c1.785-1.466,3.604-2.569,4.912-4.108c3.969-4.67,7.551-9.678,11.659-14.216
			c2.417-2.67,3.101-5.566,2.812-8.845c-0.081-0.908-0.888-2.064-1.69-2.49c-0.572-0.306-2.014,0.162-2.485,0.751
			c-0.584,0.729-1,2.074-0.739,2.922C40.298,293.816,38.863,296.76,33.131,299.076z M69.902,134.403
			c1.735,4.176,3.699,6.286,5.533,5.764c2.34-0.665,4.135-4.298,3.452-7.228c-3.718,0.92-4.25-1.3-4.608-4.338
			c-0.39-3.305,1.065-4.578,3.96-4.969c0.616-0.083,1.426,0.15,1.829-0.167c1.021-0.803,2.348-1.713,2.623-2.813
			c0.217-0.869-0.703-2.494-1.576-3.016c-0.722-0.431-2.263-0.001-3.178,0.515c-1.642,0.924-3.085,2.198-4.282,3.083
			c-1.549-1.64-2.615-3.582-4.194-4.188c-1.286-0.494-3.719,0.102-4.693,1.122c-1.604,1.68,0.084,2.609,1.695,3.41
			c0.854,0.424,1.627,1.492,1.945,2.435c1.837,5.448,0.327,8.193-5.063,10.353c-0.95,0.38-1.396,2.022-2.074,3.083
			c1.112,0.413,2.578,1.486,3.269,1.114C66.454,137.535,68.044,135.907,69.902,134.403z M501.393,35.943
			c3.222-1.189,6.155-2.279,9.094-3.355c3.42-1.252,4.135-4.133,3.836-7.192c-0.102-1.044-1.574-2.601-2.636-2.808
			c-10.938-2.122-17.382,8.378-15.328,17.021c0.29,1.219,1.607,2.392,2.733,3.177c3.571,2.486,11.447,0.979,13.654-2.582
			c0.374-0.603,0.319-1.824-0.061-2.436c-0.332-0.536-1.472-0.958-2.121-0.817c-0.894,0.195-1.741,0.876-2.471,1.508
			C505.259,40.919,502.691,40.014,501.393,35.943z M149.871,384.968c-1.706-2.446-2.648-5.241-4.164-5.599
			c-1.831-0.432-4.15,1.203-6.589,2.06c1.297,1.536,1.787,2.575,2.598,2.998c3.588,1.867,3.318,5.325,2.68,8.137
			c-0.52,2.292-1.671,5.24-5.353,5.104c-0.844-0.03-1.739,1.331-2.606,2.048c3.005,3.505,2.998,3.498,5.882,0.133
			c0.482-0.563,1.05-1.057,1.602-1.557c1.394-1.261,2.356-1.386,3.402,0.618c2.361,4.525,2.47,4.465,6.335,0.919
			c0.26-0.238,0.732-0.318,0.878-0.593c0.548-1.03,1.002-2.11,1.492-3.171c-0.384-0.179-0.768-0.357-1.151-0.536
			c-0.734,0.57-1.468,1.142-3.131,2.435c-0.247-4.031-1.568-7.771-0.294-10.076c1.155-2.089,5.137-2.616,8.594-4.152
			c-1.158-1.069-1.991-2.414-3.141-2.792C153.335,379.77,151.02,381.747,149.871,384.968z M455.985,37.479
			c-3.133-0.601-3.622-2.105-2.572-4.859c1.438-3.773,2.351-7.745,3.523-11.622c0.574-1.896,1.319-3.746,1.817-5.66
			c0.439-1.693,0.642-3.447,0.949-5.174c-1.552-0.172-3.102-0.454-4.654-0.471c-0.78-0.009-1.566,0.462-1.308,0.378
			c-0.646,3.696-0.938,6.689-1.712,9.552c-1.673,6.182-3.459,12.343-5.469,18.423c-0.865,2.615-0.041,4.534,2.751,4.68
			C452.78,42.908,454.926,41.19,455.985,37.479z M482.62,98.767c4.292-0.127,5.752-2.595,4.057-6.475
			c-0.438-1.002-0.337-2.428-0.031-3.535c1.832-6.643,3.86-13.231,5.651-19.884c0.274-1.019,0.037-2.664-0.641-3.315
			c-0.686-0.659-2.506-0.946-3.293-0.483c-0.921,0.542-1.486,2.009-1.805,3.184c-0.439,1.622-0.28,3.414-0.767,5.014
			c-2.005,6.583-4.191,13.111-6.24,19.682C478.333,96.859,479.443,98.861,482.62,98.767z M570.426,12.955
			c-0.496-0.643-1.138-2.238-1.896-2.295c-1.607-0.122-3.313,0.458-4.875,1.03c-0.203,0.074,0.161,1.809,0.334,2.76
			c0.123,0.674,0.662,1.403,0.513,1.976c-1.586,6.06-3.252,12.1-4.945,18.131c-0.681,2.43-1.665,4.792-2.125,7.255
			c-0.146,0.781,0.761,2.317,1.528,2.61c2.887,1.102,4.341-1.517,6.095-3.009c0.354-0.299-0.362-1.881-0.618-2.863
			c-0.351-1.34-1.342-2.864-0.992-3.973c1.321-4.194,3.202-8.209,4.621-12.377C569.023,19.383,569.558,16.424,570.426,12.955z
			 M495.414,23.923c-0.386-1.684-0.716-3.139-1.054-4.591c-0.223-0.959-0.459-1.915-0.688-2.872
			c-1.002,0.352-2.189,0.476-2.962,1.107c-1.213,0.99-2.142,2.325-3.198,3.507c-1.126,1.26-1.955,2.231-1.271,4.402
			c0.55,1.745-0.595,4.068-1.131,6.098c-0.679,2.573-1.641,5.077-2.215,7.669c-0.4,1.804-0.067,4.065,2.297,3.682
			c2.235-0.362,4.281-1.891,6.41-2.908c-0.757-1.291-1.515-2.583-2.696-4.598C492.385,33.024,488.771,25.611,495.414,23.923z
			 M516.419,44.135c0.43,0.132,0.86,0.264,1.29,0.397c2.675-4.678,5.492-9.282,7.949-14.071c0.889-1.732,1.58-2.527,3.616-2.121
			c0.985,0.196,2.969-0.303,3.066-0.78c0.273-1.334,0.138-3.019-0.529-4.161c-0.32-0.549-2.202-0.253-3.374-0.218
			c-0.974,0.029-1.962,0.42-2.91,0.324c-2.37-0.242-4.722-0.671-7.646-1.109C520.949,30.649,513.821,37.037,516.419,44.135z
			 M437.271,22.427c0.521,2.005,1.527,4.207,1.105,4.526c-3.549,2.695-1.878,6.956-3.279,10.267c-0.56,1.32,0.267,4.549,1.246,4.938
			c2.456,0.975,5.203,0.294,6.676-2.429c0.343-0.635,0.219-1.593,0.122-2.379c-0.201-1.649-0.906-3.329-0.719-4.914
			c0.336-2.826,1.271-5.573,1.786-8.385c0.579-3.158-0.558-4.244-3.688-3.407C439.21,20.994,438.067,21.974,437.271,22.427z
			 M405.484,75.175c-5.08,0.002-5.448,0.515-4.754,4.437c0.206,1.161,0.009,2.452-0.255,3.627c-0.729,3.254-1.848,6.444-2.286,9.73
			c-0.199,1.497,0.841,3.159,1.319,4.746c1.729-0.818,3.868-1.272,5.042-2.587c0.746-0.835-0.205-3,0.07-4.481
			c0.613-3.3,1.542-6.541,2.298-9.816c0.349-1.51,0.936-3.093,0.728-4.544C407.557,75.662,405.723,75.287,405.484,75.175z
			 M417.352,258.104c0,0.019,0,0.036,0,0.055c2.861,0,5.732,0.125,8.579-0.077c0.853-0.061,1.64-1.037,2.457-1.594
			c-0.851-0.73-1.68-2.063-2.557-2.094c-5.715-0.208-11.443-0.215-17.161-0.068c-0.886,0.022-1.744,1.165-2.615,1.789
			c0.904,0.663,1.765,1.812,2.72,1.898C411.614,258.268,414.49,258.104,417.352,258.104z M427.928,265.061
			c0.223-0.525,0.445-1.05,0.668-1.574c-0.857-0.803-1.692-2.271-2.576-2.301c-5.988-0.2-11.989-0.164-17.981-0.006
			c-0.743,0.021-1.454,1.217-2.181,1.869c0.794,0.615,1.551,1.697,2.388,1.764c3.231,0.259,6.488,0.215,9.735,0.242
			C421.296,265.081,424.612,265.061,427.928,265.061z M478.065,302.262c-2.17-1.523-3.286-2.906-4.37-2.882
			c-0.906,0.019-1.777,1.685-2.664,2.621c1.037,0.918,1.952,2.208,3.16,2.606C474.863,304.827,476.025,303.559,478.065,302.262z
			 M410.129,68.562c-1.604-1.021-2.616-2.151-3.646-2.166c-0.807-0.011-2.437,1.839-2.318,2.037
			c0.737,1.233,1.862,2.235,2.859,3.313C407.88,70.87,408.734,69.993,410.129,68.562z M447.257,15.409
			c-1.905-2.271-2.629-3.133-3.351-3.994c-0.744,0.968-1.932,1.876-2.072,2.926c-0.09,0.677,1.247,2.002,2.145,2.222
			C444.83,16.771,445.94,15.919,447.257,15.409z"/>
		<path fill-rule="evenodd" clip-rule="evenodd" d="M163.904,42.631c8.733,15.268,17.18,30.035,26.181,45.772
			c2.05-3.737,3.987-6.904,5.573-10.237c2.819-5.924,5.377-11.971,8.184-17.9c0.328-0.693,1.542-0.967,2.345-1.435
			c0.398,0.827,1.054,1.625,1.145,2.483c0.25,2.352,0.262,4.729,0.369,7.097c0.373,0.124,0.747,0.249,1.12,0.372
			c2.348-1.805,4.931-3.375,6.999-5.458c6.676-6.725,13.078-13.72,19.745-20.455c5.995-6.055,12.114-11.997,18.395-17.752
			c1.101-1.009,3.274-1.176,4.951-1.176c16.62,0.003,33.241,0.136,49.862,0.201c4.498,0.018,8.996-0.115,13.494-0.094
			c3.079,0.015,3.202,0.199,3.518,4.081c-2.621,0-5.189,0.019-7.757-0.003c-18.743-0.161-37.485-0.328-56.229-0.498
			c-2.61-0.023-4.29,0.929-6.177,3.119c-4.181,4.851-9.194,8.981-13.836,13.438c-2.678,2.57-5.266,5.235-7.947,7.803
			c-2.463,2.36-5.417,4.337-7.408,7.034c-3.333,4.514-7.483,7.927-12.002,11.071c-0.6,0.417-0.576,1.732-0.792,2.469
			c2.872,2.781,8.165-2.165,9.682,3.791c-10.241,4.951-20.517,9.92-31.245,15.106c4.512,8.313,8.636,15.999,12.847,23.638
			c2.844,5.161,5.762,10.282,8.734,15.37c3.645,6.239,7.429,12.396,11.061,18.643c2.424,4.17,4.627,8.469,7.039,12.647
			c3.631,6.293,7.411,12.501,11.024,18.805c2.005,3.499,3.657,7.203,5.721,10.664c3.354,5.625,7.738,10.791,10.177,16.767
			c2.786,6.826,8.049,12.326,7.753,20.956c-0.922,26.834-0.542,53.711-0.756,80.57c-0.125,15.729-0.476,31.455-0.592,47.185
			c-0.022,3.085-0.772,4.336-4.221,4.298c-27.483-0.293-54.969-0.267-82.451-0.575c-16.097-0.18-32.19-0.753-48.284-1.218
			c-21.299-0.615-42.595-1.304-63.894-1.94c-2.365-0.071-4.804,0.323-7.071-0.152c-1.074-0.226-2.568-1.975-2.599-3.069
			c-0.196-6.941-0.077-13.893,0.014-20.84c0.347-26.427,0.765-52.852,1.067-79.279c0.123-10.737,0.308-21.49-0.141-32.21
			c-0.165-3.945,3.01-5.378,4.248-8.202c2.197-5.011,5.459-9.552,8.217-14.324c4.172-7.217,8.165-14.54,12.471-21.674
			c4.816-7.978,9.919-15.781,14.841-23.696c0.836-1.344,1.292-2.92,2.084-4.298c2.895-5.038,5.808-10.066,8.805-15.044
			c5.614-9.327,11.382-18.561,16.912-27.937c4.701-7.97,9.071-16.132,13.738-24.122c6.024-10.313,12.2-20.537,18.305-30.803
			c1.23-2.067,2.333-4.22,3.699-6.192C161.52,44.418,162.671,43.722,163.904,42.631z M63.604,351.531
			c0.852,0.197,1.206,0.345,1.563,0.353c13.081,0.262,26.164,0.428,39.241,0.801c5.717,0.163,11.417,0.925,17.135,1.099
			c7.242,0.221,14.496,0.082,21.744,0.165c37.178,0.424,74.355,0.86,111.533,1.326c3.018,0.037,4.775-0.724,4.337-4.294
			c-0.286-2.33,0.113-4.737,0.127-7.111c0.215-37.69,0.419-75.381,0.623-113.071c0.025-4.625-0.779-5.444-5.362-5.46
			c-7.346-0.026-14.691-0.005-22.037-0.073c-37.206-0.352-74.413-0.741-111.62-1.086c-16.977-0.157-33.954-0.269-50.931-0.35
			c-5.643-0.027-6.029,0.466-6.047,6.147c-0.094,30.987-0.21,61.974-0.302,92.962C63.58,332.408,63.604,341.879,63.604,351.531z
			 M66.84,215.794c1.998,0.252,2.852,0.44,3.709,0.457c18.102,0.34,36.203,0.81,54.306,0.95
			c33.485,0.262,66.973,0.229,100.457,0.541c9.224,0.086,18.439,0.976,27.661,1.452c1.022,0.053,2.588,0.167,2.957-0.382
			c0.486-0.723,0.336-2.212-0.081-3.125c-0.758-1.664-2.011-3.097-2.885-4.719c-2.36-4.374-4.539-8.847-6.96-13.186
			c-2.453-4.394-5.147-8.652-7.656-13.016c-0.728-1.267-1.029-2.785-1.791-4.025c-1.948-3.17-4.131-6.197-6.061-9.378
			c-2.791-4.601-5.504-9.251-8.135-13.945c-3.392-6.052-6.663-12.171-9.999-18.255c-2.103-3.834-4.159-7.698-6.36-11.475
			c-3.154-5.408-6.566-10.667-9.605-16.136c-3.926-7.067-7.438-14.364-11.421-21.397c-2.915-5.15-6.505-9.918-9.423-15.067
			c-3.964-6.993-7.572-14.188-11.705-22c-1.081,1.129-2.096,1.87-2.684,2.863c-1.968,3.32-3.706,6.777-5.675,10.097
			c-3.522,5.938-7.213,11.778-10.711,17.731c-2.567,4.368-4.848,8.905-7.423,13.268c-2.643,4.479-5.591,8.779-8.219,13.267
			c-3.323,5.673-6.361,11.514-9.713,17.168c-1.571,2.651-3.761,4.932-5.37,7.565c-3.128,5.117-6.041,10.367-9.053,15.555
			c-4.333,7.464-8.68,14.921-13.016,22.384c-2.46,4.234-4.889,8.487-7.369,12.709c-2.209,3.761-4.476,7.486-6.705,11.235
			c-1.045,1.757-2.055,3.535-3.091,5.298C72.3,206.519,69.777,210.802,66.84,215.794z"/>
		<path fill-rule="evenodd" clip-rule="evenodd" d="M555.619,263.664c-4.561,0-9.12,0.026-13.68-0.005
			c-24.98-0.167-49.961-0.349-74.941-0.524c-6.356-0.045-12.715-0.004-19.066-0.179c-2.172-0.059-4.371-0.496-6.47-1.081
			c-0.877-0.244-1.521-1.322-2.271-2.021c0.945-0.579,1.886-1.648,2.839-1.659c7.991-0.095,15.987-0.093,23.979,0.07
			c11.345,0.229,22.686,0.728,34.03,0.918c16.817,0.28,33.639,0.336,50.455,0.649c1.846,0.034,3.672,1.134,5.507,1.739
			C555.874,262.27,555.746,262.967,555.619,263.664z"/>
		<path fill-rule="evenodd" clip-rule="evenodd" d="M538.437,273.08c4.84-0.072,6.389,3.732,8.154,6.276
			c1.53,2.204,1.809,5.3-0.756,7.791c-0.435,0.423,0.201,2.29,0.724,3.291c2.008,3.842,3.166,8.005,0.545,11.639
			c-2.21,3.064-5.632,5.161-9.908,4.715c-4.766-0.497-9.528-4.337-9.841-9.064c-0.156-2.357,1.736-4.821,2.551-7.287
			c0.378-1.142,0.943-2.695,0.48-3.556c-1.757-3.269-1.533-7.866,1.317-10.093C533.697,275.234,536.175,274.295,538.437,273.08z
			 M542.951,296.879c0.051-2.859-2.624-6.221-4.885-6.141c-1.639,0.058-6.04,4.515-5.293,5.784c1.143,1.938,2.979,3.781,4.965,4.805
			C539.31,302.137,542.919,298.686,542.951,296.879z M541.81,283.985c-0.547-2.981-1.338-4.258-3.846-4.168
			c-2.108,0.076-3.238,0.804-3.287,3.033c-0.055,2.495,1.146,3.939,3.54,3.523C539.514,286.148,540.619,284.817,541.81,283.985z"/>
		<path fill-rule="evenodd" clip-rule="evenodd" d="M510.143,286.131c3.416-1.33,6.49-2.134,10.148,0.091
			c4.25,2.586,6.616,6.373,5.353,11.386c-0.952,3.775-6.06,8.586-9.593,9.036c-3.99,0.508-11.035-4.646-11.383-8.894
			c-0.402-4.901-0.918-10.052,0.176-14.729c0.776-3.324,3.611-6.838,6.521-8.764c2.052-1.358,6.216-1.09,8.62,0.102
			c2.292,1.135,3.565,4.381,5.157,6.784c0.146,0.219-0.719,1.57-1.01,1.535c-1.604-0.194-3.552-0.195-4.681-1.118
			c-2.731-2.231-6.189-2.679-8.563-0.165c-0.943,0.999-1.145,2.699-1.685,4.079C509.518,285.693,509.83,285.912,510.143,286.131z
			 M515.434,299.737c2.416,0.164,4.509-0.687,4.432-4.241c-0.078-3.659-1.993-6.077-4.963-6.095
			c-3.563-0.02-5.298,1.777-5.393,5.591C509.419,298.627,510.593,299.67,515.434,299.737z"/>
		<path fill-rule="evenodd" clip-rule="evenodd" d="M464.959,92.82c2.325,1.314,4.8,2.427,6.922,4.013
			c1.412,1.055,3.241,2.78,3.247,4.21c0.008,2.35-0.017,5.787-3.47,6.158c-4.422,0.475-8.936,0.633-13.358,0.287
			c-1.519-0.119-3.597-1.901-4.155-3.395c-0.84-2.243-0.612-4.709,2.14-6.366c3.674-2.212,4.121-5.382,1.801-9.11
			c-1.16-1.864-0.025-6.425,1.275-8.253c5.271-7.406,12.655-3.28,19.128-3.523c2.156-0.082,1.824,3.094,0.424,3.512
			c-2.806,0.838-3.267,2.962-3.646,4.984c-0.775,4.129-3.507,5.368-7.145,5.734c-0.95,0.096-1.881,0.389-2.82,0.591
			C465.187,92.048,465.073,92.434,464.959,92.82z M458.846,101.709c1.717,2.794,3.99,5.299,7.837,3.818
			c1.543-0.595,2.666-2.281,3.981-3.47c-0.219-0.309-0.438-0.617-0.655-0.927C466.231,101.063,462.369,94.817,458.846,101.709z
			 M472.186,82.521c-2.174-1.401-3.374-2.832-4.481-2.763c-3.043,0.187-4.107,2.794-4.011,5.306c0.052,1.327,1.721,2.59,2.658,3.882
			C468.052,87.073,469.752,85.201,472.186,82.521z"/>
		<path fill-rule="evenodd" clip-rule="evenodd" d="M388.438,77.948c1.149-0.927,1.996-2.093,3.059-2.345
			c1.302-0.308,3.334-0.356,4.042,0.412c0.771,0.839,0.827,2.908,0.361,4.121c-0.335,0.876-2.091,1.795-3.111,1.692
			c-1.798-0.182-3.051-0.218-3.969,1.641c-1.873,3.795-4.275,7.375-5.738,11.311c-0.824,2.217-1.907,2.769-3.761,2.481
			c-2.439-0.379-2.002-2.203-1.446-3.775c1.182-3.348,2.636-6.604,3.687-9.989c0.465-1.495,0.385-3.224,0.255-4.822
			c-0.172-2.116-1.391-2.348-3.144-1.417c-3.185,1.693-4.586,4.503-5.18,7.875c-0.28,1.588-0.58,3.173-0.275,4.58
			c0.407,1.339,1.382,2.812,1.104,3.989c-0.577,2.44-2.195,3.953-5.151,3.508c-2.299-0.345-3.627-1.598-3.305-3.684
			c0.439-2.854,1.626-5.583,2.248-8.419c0.635-2.894,0.974-5.852,1.611-9.846c0.91-1.106,2.643-3.366,4.564-5.449
			c0.541-0.587,1.82-1.099,2.436-0.848c0.647,0.265,1.281,1.487,1.273,2.285c-0.047,4.667-0.105,4.671,4.934,4.066
			C387.395,74.778,387.395,74.778,388.438,77.948z"/>
		<path fill-rule="evenodd" clip-rule="evenodd" d="M464.254,298.545c-0.576,2.185,1.787,5.66-2.651,6.124
			c-5.183,0.542-3.338-3.673-4.155-6.619c-3.826,0-7.74,0-11.581,0c-1.441-3.381-1.539-5.584,1.177-8.313
			c4.156-4.173,7.325-9.312,11.176-13.816c1.011-1.183,2.988-1.539,4.522-2.274c0.512,1.262,1.401,2.504,1.464,3.787
			c0.164,3.354-0.242,6.74,0.001,10.084c0.12,1.635,0.914,3.382,1.866,4.76C467.851,294.851,467.297,297.19,464.254,298.545z
			 M452.536,291.715c2.281,0,3.583,0,5.081,0c0-2.088,0-3.951,0-6.848C455.692,287.462,454.4,289.202,452.536,291.715z"/>
		<path fill-rule="evenodd" clip-rule="evenodd" d="M481.973,283.648c-0.156-6.481,3.139-9.926,8.456-10.082
			c8.426-0.248,13.238,6.079,9.639,13.676c-1.513,3.191-3.235,7.141-7.519,8.488c-1.326,0.417-2.325,1.874-4.304,3.563
			c3.378,0,6.021,0.224,8.612-0.053c3.885-0.414,5.238,1.235,4.639,5.443c-1.451,0.077-2.992,0.231-4.532,0.226
			c-4.493-0.015-8.988-0.029-13.478-0.17c-3.696-0.116-4.755-1.917-2.331-4.646c3.544-3.988,7.82-7.321,11.395-11.285
			c1.586-1.759,2.387-4.324,3.143-6.652c0.155-0.479-1.478-2.203-2.282-2.2c-2.041,0.009-4.137,0.495-6.103,1.126
			C485.585,281.635,484.01,282.645,481.973,283.648z"/>
		<path fill-rule="evenodd" clip-rule="evenodd" d="M403.565,50.706c-3.423,3.88-6.654,0.748-9.405,0.485
			c1.815-3.238,3.588-6.4,5.36-9.563c-0.313-0.332-0.626-0.664-0.938-0.995c-0.947,0.267-1.945,0.42-2.833,0.818
			c-5.073,2.282-9.49-0.356-9.423-5.837c0.062-5,2.731-8.748,6.367-11.903c0.825-0.716,1.729-1.341,2.534-2.077
			c1.959-1.793,4.089-2.845,6.664-1.394c1.724,0.972,3.216,1.349,5.15,0.212c1.931-1.133,2.928,0.115,2.443,2.04
			c-0.806,3.203-1.911,6.33-2.88,9.492c-0.282,0.921-0.483,1.87-0.801,2.778c-1.005,2.88-2.083,5.735-3.064,8.623
			C401.871,45.945,400.858,48.554,403.565,50.706z M401.983,27.111c-0.539-1.258,0.825-4.352-2.861-3.378
			c-2.938,0.776-7.9,7.623-7.793,10.629c0.08,2.265,1.402,2.947,3.507,2.728C399.497,36.603,401.757,33.575,401.983,27.111z"/>
		<path fill-rule="evenodd" clip-rule="evenodd" d="M491.118,245.56c-2.192-0.114-3.737-0.194-5.202-0.271
			c0-8.463-0.124-16.548,0.04-24.626c0.127-6.262,0.287-6.296,6.546-6.364c3.239-0.035,6.487-0.027,9.718,0.164
			c4.242,0.251,6.213,2.192,6.798,6.391c0.935,6.701-1.541,12.37-10.23,12.052c-7.537-0.276-7.55-0.015-7.666,7.604
			C491.099,241.989,491.118,243.47,491.118,245.56z M491.584,217.932c-1.552,10.395-0.935,11.264,7.377,10.729
			c0.124-0.008,0.25,0.004,0.374-0.011c3.038-0.343,4.132-2.491,4.358-5.105c0.234-2.711-0.697-5.148-3.711-5.537
			C497.21,217.65,494.354,217.932,491.584,217.932z"/>
		<path fill-rule="evenodd" clip-rule="evenodd" d="M421.35,40.091c-3.191,2.079-6.122,3.79-9.236,1.237
			c-0.874-0.716-1.521-2.646-1.207-3.702c1.033-3.46,2.556-6.773,3.738-9.76c-1.691-1.191-2.823-1.987-3.954-2.783
			c2.168-1.611,4.152-3.63,6.559-4.708c2.071-0.928,3.771,0.705,3.604,2.912c-0.211,2.779-0.935,5.54-1.643,8.254
			c-0.418,1.609-1.231,3.114-2.134,5.316c4.316-0.647,5.176-3.939,6.666-6.236c1.512-2.329,2.098-5.243,3.472-7.685
			c0.603-1.073,2.153-1.612,3.274-2.393c0.499,1.257,1.553,2.593,1.387,3.755c-0.418,2.924-1.435,5.758-2.106,8.653
			c-0.211,0.914-0.513,2.339-0.052,2.788c2.147,2.088,1.955,4.227-0.256,5.582c-2.137,1.309-4.824,2.296-7.188-0.041
			C421.934,40.943,421.678,40.521,421.35,40.091z"/>
		<path fill-rule="evenodd" clip-rule="evenodd" d="M443.26,78.82c1.298-0.716,2.678-1.819,4.247-2.285
			c5.97-1.768,7.855-0.18,6.595,5.891c-0.811,3.909-1.94,7.586-0.7,11.699c0.303,1.006-1.578,3.39-2.952,3.974
			c-1.284,0.546-4.248,0.019-4.661-0.874c-0.781-1.689-0.709-4.101-0.189-5.993c0.911-3.318,2.426-6.47,3.136-9.981
			c-5.244,2.27-7.885,6.575-9.962,11.341c-0.394,0.903-0.222,2.304-0.848,2.803c-1.203,0.959-2.79,1.438-4.217,2.116
			c-0.464-1.098-1.485-2.313-1.286-3.272c0.616-2.948,1.687-5.804,2.606-8.688c0.774-2.427,2.33-4.842-0.215-7.218
			c-0.226-0.21,0.067-1.539,0.325-1.611c2.008-0.563,4.082-1.295,6.099-1.199C441.974,75.558,442.608,77.695,443.26,78.82z"/>
		<path fill-rule="evenodd" clip-rule="evenodd" d="M423.525,75.463c2.411,0,4.857-0.222,7.211,0.149
			c0.621,0.098,1.603,2.257,1.312,3.076c-1.714,4.822-2.999,9.531-2.193,14.824c0.552,3.627-3.694,5.685-6.98,3.905
			c-0.837-0.453-2.069-0.357-3.09-0.244c-1.099,0.122-2.148,0.616-3.241,0.851c-4.354,0.935-6.527-0.856-6.94-5.205
			C408.868,85.1,417.113,74.752,423.525,75.463z M424.882,79.209c-0.228-0.086-0.464-0.265-0.68-0.243
			c-4.816,0.493-9.782,6.698-9.301,11.43c0.19,1.877,1.017,2.967,2.835,2.384C421.939,91.437,426.564,83.88,424.882,79.209z"/>
		<path fill-rule="evenodd" clip-rule="evenodd" d="M474.342,43.902c-1.383-2.438-3.414-2.864-5.83-1.463
			c-2.626,1.522-5.883,1.368-7.203-0.738c-1.314-2.096-1.514-5.594-0.822-8.095c1.457-5.27,4.229-9.944,9.896-11.956
			c0.791-0.281,1.835-0.931,2.373-0.654c2.617,1.35,5.158,2.299,8.075,0.867c0.086-0.042,1.478,1.624,1.384,2.384
			c-0.156,1.264-1.23,2.388-1.552,3.662c-0.833,3.308-3.146,6.374-1.152,10.197c0.481,0.924-0.718,3.08-1.654,4.268
			C477.198,43.208,475.679,43.362,474.342,43.902z M465.498,36.805c0.609,0.207,1.938,1.174,2.861,0.88
			c3.727-1.189,6.766-5.744,6.625-9.754c-0.038-1.083-0.748-2.312-1.518-3.127c-0.367-0.389-1.866-0.291-2.39,0.144
			C467.753,27.708,465.258,30.999,465.498,36.805z"/>
		<path fill-rule="evenodd" clip-rule="evenodd" d="M533.861,38.581c0.439-9.369,8.083-16.361,17.099-15.438
			c0.736,0.075,1.52-0.155,2.227-0.001c1.006,0.221,2.544,0.433,2.802,1.072c0.387,0.965,0.111,2.394-0.313,3.453
			c-1.475,3.682-3.248,7.137-2.175,11.456c0.361,1.454-0.922,3.758-2.149,4.966c-0.548,0.538-2.799-0.782-4.312-1.059
			c-1.165-0.212-2.418-0.3-3.577-0.113c-2.295,0.371-4.866,1.851-6.725,1.19C535.305,43.599,534.786,40.519,533.861,38.581z
			 M547.847,24.98c-5.617,3.062-8.615,7.053-8.263,11.329c0.109,1.337,0.988,2.612,1.517,3.916c1.054-0.632,2.121-1.244,3.157-1.904
			c0.516-0.329,0.964-0.763,1.463-1.119C549.388,34.592,550.451,28.96,547.847,24.98z"/>
		<path fill-rule="evenodd" clip-rule="evenodd" d="M382.851,253.086c2.019-1.638,4.13-3.457,6.372-5.1
			c0.669-0.49,1.702-0.485,2.568-0.707c0.211,1.017,0.813,2.153,0.547,3.025c-0.46,1.504-1.17,3.153-2.285,4.194
			c-3.445,3.219-2.979,6.109-0.105,9.406c1.308,1.501,1.987,3.55,2.96,5.364c-6.212,3.87-6.677-2.811-9.869-4.881
			c-1.373,1.528-2.492,3.16-3.984,4.309c-1.117,0.859-2.688,1.225-4.117,1.533c-0.44,0.095-1.604-0.894-1.54-1.097
			c0.472-1.47,0.805-3.3,1.87-4.205c4.247-3.614,4.729-6.666,1.329-10.898c-0.847-1.055-1.817-2.139-2.227-3.376
			c-0.33-0.998,0.099-2.248,0.191-3.387c1.289,0.115,3.005-0.249,3.785,0.442C380.153,249.311,381.508,251.422,382.851,253.086z"/>
		<path fill-rule="evenodd" clip-rule="evenodd" d="M371.122,35.468c2.582,0.555,4.543,1.36,6.468,1.28
			c1.834-0.076,3.63-1.075,5.946-1.833c-1.49,6.057-9.105,9.433-13.373,6.483c-1.434-0.99-1.72-3.506-3.018-4.855
			c-1.942-2.02,0.035-3.285,0.364-4.925c1.143-5.704,4.494-9.406,9.731-11.706c3.579-1.571,7.022-1.281,8.273,1.411
			c1.284,2.764,1.216,5.59-1.973,7.346C379.838,30.709,376.125,32.73,371.122,35.468z M373.386,29.56
			c6.128-1.666,7.143-2.745,6.002-6.113C375.955,23.838,373.895,25.591,373.386,29.56z"/>
		<path fill-rule="evenodd" clip-rule="evenodd" d="M506.165,76.5c3.047-0.718,4.673,0.8,5.041,3.255
			c0.234,1.563-0.123,3.548-0.961,4.874c-2.069,3.279-5.03,5.326-9.214,5.342c-1.047,0.004-2.089,1.167-3.133,1.797
			c1.208,0.851,2.364,2.294,3.636,2.403c1.603,0.138,3.279-0.895,4.959-1.265c0.83-0.183,1.738-0.014,2.61-0.003
			c-0.137,1.021,0.03,2.736-0.459,2.95c-3.168,1.381-6.422,3.143-9.757,3.408c-3.697,0.293-5.504-3.051-6.31-6.28
			c-1.069-4.282,1.876-10.406,5.606-12.848C500.748,78.453,502.527,75.159,506.165,76.5z M500.243,86.311
			c2.292-1.588,4.585-3.177,7.618-5.278C502.304,80.106,500.866,81.038,500.243,86.311z"/>
		<path fill-rule="evenodd" clip-rule="evenodd" d="M250.736,134.314c-1.775,1.838-3.295,4.17-5.446,5.28
			c-0.913,0.471-4.25-1.33-4.585-2.599c-1.22-4.622-1.878-2.644-3.67-0.32c-1.383,1.792-3.718,2.852-6.223,4.668
			c-0.675-4.095-1.968-6.751,2.783-7.564c1.789-0.306,4.215-3.212,4.394-5.115c0.264-2.821,0.707-6.705-3.524-7.991
			c-0.453-0.138-0.825-0.541-1.211-0.805c0.177-3.282,2.435-4.159,4.819-3.232c1.822,0.708,3.137,2.721,4.655,4.131
			c2.11-1.354,4.118-2.643,6.909-4.434c0.849,1.847,2.267,3.489,2.143,5.005c-0.176,2.15-2.184,2.538-4.333,2.295
			c-2.052-0.232-3.277,0.952-3.207,3.139c0.064,1.977,0.187,3.953,0.3,6.24c1.874,0,3.547,0,5.22,0
			C250.084,133.445,250.411,133.88,250.736,134.314z"/>
		<path fill-rule="evenodd" clip-rule="evenodd" d="M33.131,299.076c5.732-2.316,7.167-5.26,5.626-10.269
			c-0.261-0.848,0.154-2.192,0.739-2.922c0.472-0.589,1.914-1.057,2.485-0.751c0.802,0.426,1.609,1.582,1.69,2.49
			c0.289,3.278-0.395,6.175-2.812,8.845c-4.107,4.538-7.69,9.546-11.659,14.216c-1.308,1.539-3.127,2.643-4.912,4.108
			c-0.767-0.449-1.661-0.973-2.167-1.27c2.032-2.627,3.936-5.033,5.761-7.496c0.347-0.468,0.598-1.185,0.539-1.75
			c-0.445-4.259-0.898-8.521-1.546-12.751c-0.146-0.951-1.124-1.754-1.624-2.676c-0.427-0.789-1.063-1.702-0.952-2.463
			c0.081-0.551,1.174-1.169,1.921-1.372c4.024-1.094,6.501,0.792,6.778,5.082c0.096,1.493,0.105,2.993,0.126,4.49
			C33.146,296.034,33.131,297.48,33.131,299.076z"/>
		<path fill-rule="evenodd" clip-rule="evenodd" d="M69.902,134.403c-1.858,1.504-3.449,3.132-5.362,4.159
			c-0.691,0.372-2.156-0.701-3.269-1.114c0.678-1.06,1.124-2.702,2.074-3.083c5.391-2.159,6.9-4.905,5.063-10.353
			c-0.318-0.943-1.091-2.011-1.945-2.435c-1.611-0.8-3.299-1.73-1.695-3.41c0.974-1.02,3.407-1.615,4.693-1.122
			c1.579,0.606,2.645,2.548,4.194,4.188c1.197-0.885,2.64-2.16,4.282-3.083c0.915-0.516,2.456-0.946,3.178-0.515
			c0.873,0.521,1.792,2.147,1.576,3.016c-0.275,1.1-1.602,2.011-2.623,2.813c-0.403,0.317-1.213,0.083-1.829,0.167
			c-2.895,0.391-4.35,1.664-3.96,4.969c0.358,3.038,0.89,5.258,4.608,4.338c0.683,2.93-1.112,6.563-3.452,7.228
			C73.601,140.688,71.638,138.579,69.902,134.403z"/>
		<path fill-rule="evenodd" clip-rule="evenodd" d="M501.393,35.943c1.299,4.071,3.866,4.976,6.701,2.517
			c0.729-0.632,1.577-1.313,2.471-1.508c0.649-0.142,1.789,0.281,2.121,0.817c0.38,0.612,0.435,1.833,0.061,2.436
			c-2.207,3.562-10.083,5.068-13.654,2.582c-1.126-0.785-2.443-1.958-2.733-3.177c-2.054-8.643,4.39-19.143,15.328-17.021
			c1.062,0.207,2.534,1.763,2.636,2.808c0.299,3.059-0.416,5.94-3.836,7.192C507.548,33.664,504.614,34.754,501.393,35.943z
			 M501.068,30.756c4.396,1.327,8.27-0.881,8.725-4.262c0.071-0.53-0.109-1.32-0.476-1.62c-0.375-0.306-1.358-0.433-1.669-0.166
			C505.505,26.554,503.468,28.522,501.068,30.756z"/>
		<path fill-rule="evenodd" clip-rule="evenodd" d="M149.871,384.968c1.149-3.221,3.464-5.198,7.036-4.024
			c1.15,0.378,1.983,1.723,3.141,2.792c-3.457,1.536-7.439,2.063-8.594,4.152c-1.274,2.306,0.047,6.045,0.294,10.076
			c1.663-1.293,2.397-1.864,3.131-2.435c0.383,0.179,0.767,0.357,1.151,0.536c-0.49,1.061-0.944,2.141-1.492,3.171
			c-0.146,0.274-0.619,0.354-0.878,0.593c-3.865,3.546-3.975,3.606-6.335-0.919c-1.045-2.004-2.008-1.879-3.402-0.618
			c-0.552,0.5-1.12,0.994-1.602,1.557c-2.885,3.365-2.877,3.372-5.882-0.133c0.867-0.717,1.762-2.078,2.606-2.048
			c3.682,0.136,4.833-2.813,5.353-5.104c0.638-2.812,0.908-6.27-2.68-8.137c-0.811-0.423-1.301-1.462-2.598-2.998
			c2.439-0.856,4.758-2.491,6.589-2.06C147.223,379.727,148.165,382.521,149.871,384.968z"/>
		<path fill-rule="evenodd" clip-rule="evenodd" d="M455.985,37.479c-1.06,3.711-3.205,5.429-6.674,5.247
			c-2.792-0.146-3.616-2.065-2.751-4.68c2.01-6.08,3.796-12.241,5.469-18.423c0.773-2.863,1.066-5.856,1.712-9.552
			c-0.259,0.084,0.527-0.387,1.308-0.378c1.553,0.018,3.103,0.299,4.654,0.471c-0.308,1.727-0.51,3.481-0.949,5.174
			c-0.498,1.915-1.243,3.764-1.817,5.66c-1.173,3.876-2.085,7.848-3.523,11.622C452.363,35.374,452.853,36.878,455.985,37.479z"/>
		<path fill-rule="evenodd" clip-rule="evenodd" d="M482.62,98.767c-3.177,0.094-4.287-1.908-3.068-5.814
			c2.049-6.571,4.235-13.099,6.24-19.682c0.486-1.601,0.327-3.393,0.767-5.014c0.318-1.174,0.884-2.642,1.805-3.184
			c0.787-0.462,2.607-0.176,3.293,0.483c0.678,0.651,0.915,2.296,0.641,3.315c-1.791,6.653-3.819,13.242-5.651,19.884
			c-0.306,1.107-0.407,2.533,0.031,3.535C488.372,96.172,486.912,98.64,482.62,98.767z"/>
		<path fill-rule="evenodd" clip-rule="evenodd" d="M570.426,12.955c-0.868,3.469-1.402,6.429-2.361,9.245
			c-1.419,4.168-3.3,8.183-4.621,12.377c-0.35,1.109,0.642,2.633,0.992,3.973c0.256,0.982,0.972,2.564,0.618,2.863
			c-1.754,1.492-3.208,4.11-6.095,3.009c-0.768-0.293-1.674-1.829-1.528-2.61c0.46-2.464,1.444-4.826,2.125-7.255
			c1.693-6.031,3.359-12.071,4.945-18.131c0.149-0.573-0.39-1.302-0.513-1.976c-0.173-0.952-0.537-2.687-0.334-2.76
			c1.563-0.571,3.268-1.152,4.875-1.03C569.288,10.717,569.93,12.312,570.426,12.955z"/>
		<path fill-rule="evenodd" clip-rule="evenodd" d="M495.414,23.923c-6.644,1.688-3.029,9.101-6.509,11.497
			c1.182,2.015,1.939,3.307,2.696,4.598c-2.129,1.017-4.175,2.546-6.41,2.908c-2.364,0.384-2.697-1.877-2.297-3.682
			c0.574-2.592,1.536-5.096,2.215-7.669c0.536-2.03,1.681-4.353,1.131-6.098c-0.684-2.171,0.146-3.143,1.271-4.402
			c1.057-1.182,1.985-2.518,3.198-3.507c0.772-0.631,1.96-0.755,2.962-1.107c0.229,0.957,0.466,1.913,0.688,2.872
			C494.698,20.785,495.028,22.239,495.414,23.923z"/>
		<path fill-rule="evenodd" clip-rule="evenodd" d="M516.419,44.135c-2.598-7.098,4.53-13.486,1.463-21.739
			c2.924,0.438,5.275,0.867,7.646,1.109c0.948,0.097,1.937-0.295,2.91-0.324c1.172-0.035,3.054-0.331,3.374,0.218
			c0.667,1.143,0.803,2.827,0.529,4.161c-0.098,0.478-2.081,0.977-3.066,0.78c-2.036-0.406-2.728,0.388-3.616,2.121
			c-2.457,4.79-5.274,9.393-7.949,14.071C517.279,44.399,516.849,44.267,516.419,44.135z"/>
		<path fill-rule="evenodd" clip-rule="evenodd" d="M437.271,22.427c0.796-0.453,1.938-1.433,3.249-1.783
			c3.131-0.837,4.268,0.249,3.688,3.407c-0.516,2.812-1.45,5.559-1.786,8.385c-0.188,1.585,0.518,3.264,0.719,4.914
			c0.097,0.786,0.221,1.744-0.122,2.379c-1.473,2.724-4.22,3.404-6.676,2.429c-0.979-0.389-1.806-3.618-1.246-4.938
			c1.401-3.311-0.27-7.572,3.279-10.267C438.799,26.633,437.792,24.432,437.271,22.427z"/>
		<path fill-rule="evenodd" clip-rule="evenodd" d="M405.484,75.175c0.238,0.112,2.072,0.486,2.162,1.112
			c0.208,1.451-0.379,3.034-0.728,4.544c-0.756,3.275-1.685,6.516-2.298,9.816c-0.275,1.482,0.676,3.646-0.07,4.481
			c-1.174,1.315-3.313,1.769-5.042,2.587c-0.479-1.587-1.519-3.25-1.319-4.746c0.438-3.286,1.557-6.476,2.286-9.73
			c0.264-1.175,0.461-2.466,0.255-3.627C400.036,75.69,400.404,75.178,405.484,75.175z"/>
		<path fill-rule="evenodd" clip-rule="evenodd" d="M417.352,258.104c-2.861,0-5.737,0.164-8.577-0.091
			c-0.955-0.087-1.815-1.235-2.72-1.898c0.871-0.624,1.729-1.767,2.615-1.789c5.718-0.146,11.446-0.14,17.161,0.068
			c0.877,0.031,1.706,1.363,2.557,2.094c-0.817,0.557-1.604,1.533-2.457,1.594c-2.847,0.202-5.718,0.077-8.579,0.077
			C417.352,258.14,417.352,258.122,417.352,258.104z"/>
		<path fill-rule="evenodd" clip-rule="evenodd" d="M427.928,265.061c-3.315,0-6.632,0.021-9.947-0.006
			c-3.247-0.027-6.504,0.017-9.735-0.242c-0.837-0.066-1.594-1.148-2.388-1.765c0.727-0.651,1.438-1.848,2.181-1.868
			c5.992-0.158,11.993-0.194,17.981,0.006c0.884,0.029,1.719,1.498,2.576,2.301C428.373,264.011,428.15,264.535,427.928,265.061z"/>
		<path fill-rule="evenodd" clip-rule="evenodd" d="M478.065,302.262c-2.04,1.297-3.202,2.565-3.874,2.346
			c-1.208-0.398-2.123-1.688-3.16-2.606c0.887-0.937,1.758-2.603,2.664-2.621C474.779,299.355,475.896,300.738,478.065,302.262z"/>
		<path fill-rule="evenodd" clip-rule="evenodd" d="M410.129,68.562c-1.395,1.431-2.249,2.308-3.104,3.185
			c-0.997-1.078-2.122-2.08-2.859-3.313c-0.118-0.198,1.512-2.048,2.318-2.037C407.513,66.41,408.525,67.54,410.129,68.562z"/>
		<path fill-rule="evenodd" clip-rule="evenodd" d="M447.257,15.409c-1.316,0.51-2.427,1.362-3.278,1.154
			c-0.897-0.22-2.234-1.545-2.145-2.222c0.141-1.049,1.328-1.958,2.072-2.926C444.628,12.276,445.352,13.138,447.257,15.409z"/>
		<path fill-rule="evenodd" clip-rule="evenodd" fill="#FFFFFF" d="M63.604,351.531c0-9.652-0.023-19.123,0.004-28.593
			c0.092-30.988,0.208-61.975,0.302-92.962c0.018-5.682,0.404-6.175,6.047-6.147c16.977,0.081,33.954,0.192,50.931,0.35
			c37.207,0.345,74.414,0.734,111.62,1.086c7.345,0.068,14.691,0.047,22.037,0.073c4.583,0.016,5.387,0.835,5.362,5.46
			c-0.204,37.69-0.407,75.381-0.623,113.071c-0.014,2.374-0.413,4.781-0.127,7.111c0.438,3.57-1.32,4.331-4.337,4.294
			c-37.178-0.466-74.355-0.902-111.533-1.326c-7.249-0.083-14.502,0.056-21.744-0.165c-5.717-0.174-11.417-0.936-17.135-1.099
			c-13.077-0.373-26.16-0.539-39.241-0.801C64.81,351.876,64.456,351.729,63.604,351.531z"/>
		<path fill-rule="evenodd" clip-rule="evenodd" fill="#FFFFFF" d="M66.84,215.794c2.937-4.992,5.46-9.275,7.978-13.562
			c1.036-1.763,2.046-3.541,3.091-5.298c2.229-3.749,4.496-7.475,6.705-11.235c2.48-4.222,4.909-8.475,7.369-12.709
			c4.335-7.463,8.682-14.92,13.016-22.384c3.012-5.188,5.924-10.438,9.053-15.555c1.609-2.633,3.799-4.914,5.37-7.565
			c3.352-5.655,6.391-11.495,9.713-17.168c2.627-4.488,5.576-8.788,8.219-13.267c2.575-4.363,4.856-8.9,7.423-13.268
			c3.498-5.953,7.189-11.793,10.711-17.731c1.969-3.32,3.707-6.777,5.675-10.097c0.588-0.993,1.603-1.734,2.684-2.863
			c4.133,7.812,7.741,15.006,11.705,22c2.917,5.149,6.508,9.917,9.423,15.067c3.982,7.033,7.495,14.33,11.421,21.397
			c3.039,5.469,6.451,10.729,9.605,16.136c2.202,3.777,4.257,7.64,6.36,11.475c3.336,6.084,6.607,12.203,9.999,18.255
			c2.631,4.694,5.345,9.345,8.135,13.945c1.93,3.181,4.113,6.208,6.061,9.378c0.762,1.24,1.063,2.759,1.791,4.025
			c2.509,4.364,5.203,8.622,7.656,13.016c2.422,4.338,4.6,8.812,6.96,13.186c0.875,1.622,2.127,3.055,2.885,4.719
			c0.417,0.913,0.566,2.402,0.081,3.125c-0.368,0.549-1.935,0.435-2.957,0.382c-9.222-0.477-18.437-1.366-27.661-1.452
			c-33.484-0.313-66.972-0.279-100.457-0.541c-18.103-0.141-36.204-0.61-54.306-0.95C69.692,216.234,68.838,216.046,66.84,215.794z"
			/>
		<path fill-rule="evenodd" clip-rule="evenodd" fill="#FFFFFF" d="M542.951,296.879c-0.032,1.807-3.642,5.258-5.213,4.448
			c-1.985-1.023-3.822-2.867-4.965-4.805c-0.747-1.27,3.654-5.727,5.293-5.784C540.327,290.658,543.002,294.02,542.951,296.879z"/>
		<path fill-rule="evenodd" clip-rule="evenodd" fill="#FFFFFF" d="M541.81,283.985c-1.19,0.832-2.296,2.163-3.593,2.389
			c-2.395,0.416-3.595-1.028-3.54-3.523c0.049-2.229,1.179-2.957,3.287-3.033C540.472,279.728,541.263,281.004,541.81,283.985z"/>
		<path fill-rule="evenodd" clip-rule="evenodd" fill="#FFFFFF" d="M515.434,299.737c-4.841-0.067-6.015-1.11-5.924-4.745
			c0.095-3.813,1.829-5.61,5.393-5.591c2.97,0.018,4.885,2.436,4.963,6.095C519.942,299.051,517.85,299.901,515.434,299.737z"/>
		<path fill-rule="evenodd" clip-rule="evenodd" fill="#FFFFFF" d="M458.846,101.709c3.523-6.892,7.386-0.646,11.163-0.579
			c0.218,0.31,0.437,0.618,0.655,0.927c-1.315,1.189-2.438,2.875-3.981,3.47C462.836,107.008,460.563,104.503,458.846,101.709z"/>
		<path fill-rule="evenodd" clip-rule="evenodd" fill="#FFFFFF" d="M472.186,82.521c-2.434,2.68-4.134,4.552-5.834,6.425
			c-0.938-1.292-2.606-2.556-2.658-3.882c-0.097-2.512,0.968-5.119,4.011-5.306C468.812,79.689,470.012,81.119,472.186,82.521z"/>
		<path fill-rule="evenodd" clip-rule="evenodd" fill="#FFFFFF" d="M452.536,291.715c1.864-2.513,3.156-4.253,5.081-6.848
			c0,2.896,0,4.76,0,6.848C456.119,291.715,454.817,291.715,452.536,291.715z"/>
		<path fill-rule="evenodd" clip-rule="evenodd" fill="#FFFFFF" d="M401.983,27.111c-0.227,6.463-2.486,9.491-7.147,9.978
			c-2.104,0.22-3.427-0.462-3.507-2.728c-0.107-3.006,4.855-9.853,7.793-10.629C402.809,22.76,401.444,25.853,401.983,27.111z"/>
		<path fill-rule="evenodd" clip-rule="evenodd" fill="#FFFFFF" d="M491.584,217.932c2.771,0,5.626-0.281,8.398,0.076
			c3.014,0.389,3.945,2.826,3.711,5.537c-0.227,2.614-1.32,4.763-4.358,5.105c-0.124,0.015-0.25,0.003-0.374,0.011
			C490.649,229.195,490.032,228.326,491.584,217.932z"/>
		<path fill-rule="evenodd" clip-rule="evenodd" fill="#FFFFFF" d="M424.881,79.211c1.684,4.669-2.941,12.225-7.145,13.57
			c-1.818,0.583-2.645-0.507-2.835-2.384c-0.481-4.732,4.484-10.937,9.301-11.43C424.418,78.944,424.654,79.124,424.881,79.211z"/>
		<path fill-rule="evenodd" clip-rule="evenodd" fill="#FFFFFF" d="M465.498,36.805c-0.24-5.806,2.255-9.096,5.579-11.858
			c0.523-0.434,2.022-0.533,2.39-0.144c0.77,0.815,1.479,2.044,1.518,3.127c0.141,4.01-2.898,8.564-6.625,9.754
			C467.436,37.979,466.107,37.012,465.498,36.805z"/>
		<path fill-rule="evenodd" clip-rule="evenodd" fill="#FFFFFF" d="M547.847,24.98c2.604,3.98,1.541,9.612-2.126,12.223
			c-0.499,0.356-0.947,0.79-1.463,1.119c-1.036,0.66-2.104,1.271-3.157,1.904c-0.528-1.304-1.407-2.579-1.517-3.916
			C539.231,32.033,542.229,28.042,547.847,24.98z"/>
		<path fill-rule="evenodd" clip-rule="evenodd" fill="#FFFFFF" d="M373.386,29.56c0.509-3.969,2.569-5.722,6.002-6.113
			C380.528,26.815,379.514,27.895,373.386,29.56z"/>
		<path fill-rule="evenodd" clip-rule="evenodd" fill="#FFFFFF" d="M500.243,86.311c0.623-5.273,2.061-6.205,7.618-5.278
			C504.828,83.134,502.535,84.723,500.243,86.311z"/>
		<path fill-rule="evenodd" clip-rule="evenodd" fill="#FFFFFF" d="M501.068,30.756c2.399-2.233,4.437-4.202,6.58-6.047
			c0.311-0.268,1.294-0.141,1.669,0.166c0.366,0.299,0.547,1.09,0.476,1.62C509.338,29.875,505.465,32.083,501.068,30.756z"/>
	</g>
</g>
</svg>
