<?xml version="1.0" encoding="utf-8"?>
<!-- Generator: Adobe Illustrator 16.0.0, SVG Export Plug-In . SVG Version: 6.00 Build 0)  -->
<!DOCTYPE svg PUBLIC "-//W3C//DTD SVG 1.1//EN" "http://www.w3.org/Graphics/SVG/1.1/DTD/svg11.dtd">
<svg version="1.1" id="Layer_1" xmlns="http://www.w3.org/2000/svg" xmlns:xlink="http://www.w3.org/1999/xlink" x="0px" y="0px"
	 width="677.345px" height="423.81px" viewBox="0 0 677.345 423.81" enable-background="new 0 0 677.345 423.81"
	 xml:space="preserve">
<g>
	<g>
		<path fill-rule="evenodd" clip-rule="evenodd" fill="#FFFFFF" d="M0.907,0.78c225.665,0,451.427,0,677.157,0
			c0,141.28,0,282.529,0,423.779c-225.687,0-451.343,0-677.157,0C0.907,283.29,0.907,142.02,0.907,0.78z M210.643,43.701
			c-2.8,1.33-5.52,2.613-8.23,3.915c-0.772,0.371-1.478,1.018-2.282,1.16c-8.853,1.565-15.825,7.041-23.462,11.144
			c-2.391,1.284-5.241,1.898-7.328,3.526c-3.979,3.104-7.624,6.65-11.289,10.138c-4.91,4.672-9.903,9.282-14.485,14.264
			c-3.267,3.551-5.937,7.655-8.835,11.542c-6.331,8.49-10.115,18.328-14.236,27.919c-2.474,5.761-4.167,11.982-5.287,18.165
			c-1.218,6.728-1.765,13.641-1.902,20.487c-0.316,15.721-0.125,31.452-0.303,47.177c-0.089,7.773-0.578,15.541-0.817,23.313
			c-0.345,11.175-0.735,22.351-0.906,33.529c-0.188,12.237-0.114,24.479-0.255,36.718c-0.015,1.246-0.39,2.763-1.166,3.671
			c-1.835,2.149-1.448,3.757,0.963,4.592c1.998,0.692,4.231,0.966,6.355,0.943c1.544-0.016,3.091-1.232,4.62-1.194
			c5.568,0.144,11.125,0.778,16.693,0.885c18.104,0.343,36.209,0.599,54.316,0.77c29.347,0.276,58.694,0.399,88.04,0.699
			c22.107,0.226,44.213,0.633,66.319,0.945c5.902,0.084,11.822-0.111,17.695,0.327c1.665,0.124,3.211,2.011,4.783,3.13
			c0.815,0.58,1.67,1.849,2.325,1.737c0.969-0.165,2.013-1.127,2.599-2.028c0.817-1.259,1.24-2.772,1.584-3.588
			c2.229,0.243,4.164,1.028,4.979,0.389c0.878-0.688,0.705-2.716,0.99-4.158c-0.354-0.224-0.707-0.446-1.06-0.669
			c-1.404,0.85-2.809,1.7-4.316,2.613c-0.064-0.897-0.204-1.748-0.173-2.593c0.404-11.266,0.934-22.527,1.225-33.796
			c0.222-8.616,0.167-17.24,0.204-25.861c0.116-27.11,0.209-54.222,0.355-81.333c0.006-1.065,0.145-2.779,0.768-3.087
			c4.194-2.071,1.675-4.01,0.139-6.089c-0.549-0.743-1.093-1.617-1.25-2.5c-1.007-5.625-1.543-11.36-2.935-16.884
			c-1.604-6.369-3.858-12.579-5.974-18.811c-1.095-3.227-2.234-6.489-3.822-9.486c-2.367-4.465-5.076-8.757-7.775-13.037
			c-2.317-3.674-4.496-7.512-7.322-10.768c-4.586-5.282-8.558-11.188-14.546-15.17c-1.899-1.264-3.518-2.954-5.239-4.478
			c-3.393-3.005-6.761-6.038-10.162-9.034c-0.258-0.227-0.718-0.207-1.046-0.375c-4.767-2.456-9.748-4.582-14.23-7.48
			c-4.973-3.217-10.358-5.039-15.982-6.397c-3.876-0.935-6.123-3.336-6.408-7.137c-3.306-2.806-4.633,0.609-6.666,2.492
			c-1.529-3.204-3.331-4.67-6.078-1.592c-0.266,0.298-1.432,0.276-1.758-0.038c-3.421-3.282-7.785-1.446-11.43-1.51
			c-10.593-0.185-21.257-1.395-31.837,0.441c-0.35,0.061-0.893,0.051-1.081-0.161c-2.913-3.293-4.512-0.371-5.914,1.111
			c-1.939-1.056-3.616-1.968-5.292-2.881C211.883,40.795,211.248,42.282,210.643,43.701z M40.981,73.224
			c0.111,1.215,0.252,1.934,0.232,2.647c-0.428,15.546-0.923,31.091-1.261,46.64c-0.05,2.307,0.957,4.637,0.906,6.943
			c-0.106,4.803-0.836,9.596-0.876,14.397c-0.105,12.716-0.059,25.435,0.096,38.15c0.059,4.836,1.576,9.868,0.646,14.449
			c-1.267,6.244-0.863,12.306-0.867,18.505c-0.012,16.859-0.449,33.719-0.677,50.579c-0.07,5.196-0.011,10.394-0.011,15.591
			c-0.405,0.234-0.811,0.469-1.216,0.703c-1.891-1.594-3.664-3.371-5.721-4.709c-1.109-0.722-2.706-0.692-4.083-1.002
			c-0.014,1.13-0.349,2.375,0.01,3.371c3.154,8.77,6.478,17.479,9.605,26.257c0.319,0.895-0.084,2.242-0.546,3.187
			c-1.985,4.056-1.568,4.872,2.896,5.074c1.249,0.056,2.502,0.123,3.749,0.07c3.645-0.154,3.824-0.757,2.243-4.18
			c-0.687-1.487-1.014-3.443-0.698-5.024c0.576-2.874,1.73-5.637,2.687-8.431c2.206-6.44,4.438-12.871,6.775-19.643
			c-5.489-2.16-6.145,5.162-10.495,5.046c0.346-69.338,0.693-138.849,1.042-208.673c5.066,1.693,6.174,7.779,12.034,7.125
			c-0.321-1.55-0.423-2.776-0.832-3.891c-1.985-5.416-4.099-10.786-6.071-16.206c-0.928-2.551-1.798-5.143-2.412-7.782
			c-0.985-4.239-1.655-8.553-2.657-12.788c-0.192-0.815-1.301-1.414-1.986-2.112c-0.673,0.744-2.014,1.601-1.911,2.214
			c0.729,4.33-0.774,8.035-2.263,11.989c-3.333,8.857-6.099,17.927-9.179,27.159c0.546,0.218,1.471,0.896,1.809,0.674
			C34.862,77.648,37.67,75.58,40.981,73.224z M341.526,373.602c-2.801,0.221-4.604,0.5-6.402,0.482
			c-11.117-0.113-22.234-0.254-33.35-0.457c-29.064-0.532-58.128-1.118-87.192-1.646c-12.109-0.22-24.221-0.368-36.332-0.511
			c-9.61-0.111-19.223-0.144-28.833-0.286c-0.706-0.01-1.643-0.469-2.024-1.026c-0.272-0.397-0.007-1.489,0.387-1.961
			c1.542-1.841,3.315-3.49,4.82-5.357c0.538-0.668,0.558-1.752,0.814-2.646c-0.908-0.242-1.941-0.894-2.702-0.658
			c-3.743,1.157-7.417,2.536-11.106,3.862c-3.953,1.422-7.823,3.14-11.864,4.23c-3.706,1.001-7.695,0.995-11.349,2.118
			c-1.77,0.543-3.058,2.658-4.563,4.062c1.488,0.465,2.957,1.009,4.468,1.377c4.552,1.112,9.208,1.882,13.656,3.309
			c3.816,1.224,7.344,3.314,11.104,4.744c3.167,1.204,6.467,2.085,9.755,2.927c0.663,0.169,1.536-0.478,2.312-0.748
			c-0.309-0.697-0.476-1.517-0.952-2.071c-2.07-2.417-4.229-4.757-7.328-8.206c65.951,1.034,130.916,2.053,196.86,3.087
			c-2.465,2.822-4.471,4.935-6.226,7.24c-0.552,0.726-0.896,2.301-0.482,2.882c0.45,0.632,1.986,0.949,2.882,0.729
			c3.785-0.938,7.56-1.981,11.239-3.269c3.404-1.19,6.63-2.894,10.034-4.082c2.655-0.928,5.453-1.798,8.21-1.874
			c0.887-0.023,2.1,2.469,2.674,3.995c0.34,0.899-0.468,2.172-0.403,3.256c0.045,0.743,0.562,1.631,1.15,2.092
			c0.271,0.213,1.312-0.325,1.841-0.733c0.639-0.493,1.105-1.209,1.753-1.95c-2.582-1.673-3.626-3.376-0.896-5.648
			c0.535-0.445,0.981-1.82,0.693-2.29c-1.265-2.057-0.491-3.801-0.02-5.851c0.224-0.968-1.676-2.424-2.613-3.658
			c-0.891,0.889-1.766,1.792-2.677,2.659c-0.75,0.713-1.68,2.068-2.294,1.947c-2.293-0.454-4.514-1.337-6.715-2.18
			c-1.694-0.649-3.283-1.576-4.98-2.215c-5.58-2.1-11.154-4.227-16.81-6.102c-1.406-0.466-3.112-0.025-4.68,0
			c-0.112,0.479-0.224,0.959-0.336,1.438C335.584,367.301,338.121,369.99,341.526,373.602z M433.887,207.994
			c-0.388-1.41-0.581-2.616-1.045-3.707c-1.521-3.579-3.426-7.021-4.661-10.691c-2.305-6.852-4.189-13.845-6.393-20.733
			c-0.337-1.052-1.447-1.859-2.2-2.779c-0.59,1.027-1.316,2.004-1.734,3.099c-0.436,1.14-0.455,2.436-0.865,3.591
			c-1.663,4.675-3.483,9.296-5.095,13.989c-1.437,4.18-2.607,8.45-4.034,12.634c-0.493,1.445-1.404,2.746-2.299,4.445
			c6.395,1.259,7.34-5.699,12.095-6.142c0,2.863,0.024,5.714-0.005,8.564c-0.129,13.188-0.267,26.378-0.413,39.565
			c-0.103,9.232-0.168,18.466-0.381,27.695c-0.05,2.139-0.635,4.265-0.974,6.396c-1.673-1.428-3.347-2.853-5.016-4.285
			c-0.088-0.077-0.103-0.264-0.194-0.309c-1.417-0.698-2.842-1.381-4.264-2.066c-0.188,1.258-0.833,2.661-0.484,3.748
			c1.568,4.895,3.474,9.681,5.141,14.545c0.712,2.077,0.866,4.374,1.754,6.356c2.012,4.498,4.554,8.776,3.496,14.057
			c-0.222,1.111,0.204,2.353,0.332,3.533c0.367,0.188,0.735,0.377,1.103,0.565c0.839-1.039,1.934-1.969,2.441-3.149
			c0.516-1.202,0.279-2.706,0.672-3.986c2.035-6.644,4.119-13.273,6.288-19.874c0.858-2.61,2.029-5.115,2.968-7.701
			c0.874-2.41,1.629-4.863,2.495-7.474c-4.854-1.01-6.053,2.604-8.381,4.307c-0.761,0.555-1.416,1.255-2.119,1.889
			c-0.356-1.062-1.022-2.125-1.015-3.185c0.029-3.987,0.403-7.972,0.424-11.959c0.111-21.472,0.148-42.943,0.242-64.415
			c0.004-0.784,0.327-1.566,0.514-2.401C426.857,202.833,427.768,209.511,433.887,207.994z M433.912,123.102
			c-6.368-0.151-7.066,6.231-12.105,8.517c0.288-19.276-0.647-37.92,0.227-57.016c4.137,2.962,7.455,5.338,10.773,7.714
			c0.266-0.229,0.53-0.457,0.795-0.684c-0.226-1.033-0.351-2.1-0.693-3.092c-1.961-5.681-3.962-11.349-5.975-17.012
			c-0.805-2.264-1.8-4.468-2.484-6.766c-1.066-3.58-1.941-7.218-3.063-11.453c-0.488,0.046-1.853,0.174-3.216,0.303
			c0.29,0.215,0.58,0.431,0.87,0.646c-4.15,11.99-8.301,23.98-12.848,37.117c2.186-0.766,4.094-1.095,5.605-2.05
			c1.871-1.182,3.412-2.885,5.771-4.954c0,19.634,0,38.176,0,57.064c-4.852-1.414-5.435-8.314-11.767-8.315
			c0.355,1.806,0.437,3.494,1.035,4.972c0.964,2.376,2.612,4.506,3.366,6.929c2.396,7.69,4.484,15.475,6.758,23.203
			c0.423,1.44,1.148,2.791,1.734,4.183c0.479,0.046,0.959,0.092,1.438,0.139C424.675,149.548,429.215,136.548,433.912,123.102z
			 M619.023,206.493c-0.167-0.509-0.334-1.018-0.502-1.526c1.651-1.149,3.473-2.12,4.906-3.495c1.556-1.493,2.619-3.49,4.127-5.044
			c3.543-3.655,4.971-9.237,2.909-13.709c-0.773-1.678-2.149-3.688-3.727-4.283c-7.382-2.784-12.268-1.057-16.38,5.445
			c-0.633,1-1.112,3.167-0.63,3.578c0.968,0.822,2.681,1.124,4.024,0.994c0.69-0.066,1.094-1.745,1.897-2.304
			c1.641-1.14,3.393-2.568,5.236-2.806c1.234-0.159,3.921,1.629,3.858,2.371c-0.247,2.961-0.565,6.433-2.262,8.633
			c-2.361,3.062-6.052,5.072-9.044,7.681c-3.067,2.673-5.478,5.722-3.873,11.027c5.917,0,12.01-0.117,18.096,0.056
			c2.684,0.076,4.775-1.034,4.905-3.356c0.056-1.002-2.717-2.822-4.406-3.115C625.197,206.121,622.078,206.493,619.023,206.493z
			 M470.066,114.592c1.843-1.41,3.428-2.083,4.142-3.277c1.611-2.694,2.591-5.764,4.186-8.469
			c3.646-6.186,7.573-12.208,11.235-18.386c0.852-1.437,1.245-3.203,1.56-4.872c0.125-0.663-0.404-1.979-0.872-2.102
			c-0.753-0.198-2.142,0.065-2.496,0.622c-2.188,3.439-4.267,6.959-6.183,10.558c-3.352,6.294-6.559,12.665-9.918,19.182
			c-1.929-1.041-2.827-3.201-4.583-1.295c-0.208,0.226-1.824-0.243-1.926-0.621c-0.622-2.326-1.652-4.848-1.223-7.044
			c0.282-1.442,2.651-3.179,4.336-3.509c4.981-0.976,5.13-0.907,3.011-7.198c-2.926,1.311-5.757,2.581-9.009,4.038
			c-2.046-2.193-4.716-4.559-8.675-3.017c-0.681,0.266-1.616,0.936-1.666,1.488c-0.056,0.637,0.58,1.596,1.189,1.991
			c5.918,3.831,6.149,12.02-0.169,14.322c-4.087,1.489-3.328,3.298-2.782,5.847c5.542,2.151,4.814-5.896,9.359-5.458
			c0.682,2.398-0.109,6.016,3.779,5.735c2.086-0.151,4.086-1.484,6.085-2.269C469.476,111.031,469.655,112.117,470.066,114.592z
			 M66.413,160.164c-0.46-0.226-0.921-0.452-1.381-0.678c0.872-2.971,1.921-5.905,2.554-8.926c0.431-2.057,0.28-4.236,0.389-6.36
			c-2.355,0.223-4.712,0.436-7.064,0.69c-0.175,0.019-0.318,0.338-0.477,0.519c0.803,2.875,1.423,5.898,0.685,8.542
			c-2.075,7.426-4.76,14.68-7.075,22.043c-0.381,1.212-0.419,2.744,0.008,3.898c0.179,0.484,2.361,0.872,2.963,0.416
			c1.143-0.864,1.981-2.284,2.608-3.63c0.503-1.081,0.135-2.672,0.797-3.554c2.61-3.478,5.417-6.815,8.3-10.072
			c0.471-0.533,1.695-0.398,3.012-0.66c-0.201,2.174-0.126,3.822-0.539,5.335c-0.838,3.069-2.103,6.026-2.846,9.112
			c-0.263,1.09,0.27,3.345,0.807,3.468c1.541,0.355,3.482,0.312,4.86-0.382c1.106-0.557,1.62-2.291,2.327-3.394
			c-0.18-1.339-0.988-3.438-0.591-5.278c0.689-3.196,2.189-6.209,3.189-9.351c0.21-0.663-0.055-1.699-0.475-2.303
			c-2.226-3.202-4.902-3.645-8.26-1.565C68.973,158.796,67.679,159.457,66.413,160.164z M537.938,244.285
			c-2.861-0.03-5.801-1.086-5.88,2.925c-0.19,9.716-0.19,19.436-0.245,29.153c-0.014,2.452,1.121,3.519,3.708,3.461
			c2.745-0.062,2.534-1.92,2.571-3.602c0.096-4.238-0.028-8.483,0.121-12.72c0.105-2.963,2.277-4.771,5.247-4.295
			c2.527,0.406,4.285,1.715,4.123,4.765c-0.198,3.73-0.175,7.474-0.172,11.212c0.001,1.926-0.495,4.515,2.439,4.525
			c2.849,0.011,3.885-2.063,3.834-4.805c-0.069-3.74-0.032-7.483,0.018-11.225c0.091-6.973-5.362-11.404-12.133-9.867
			c-1.016,0.23-2.085,0.224-3.632,0.375C537.938,250.674,537.938,247.623,537.938,244.285z M645.992,201.487
			c-1.199-3.875-2.145-7.072-3.189-10.236c-0.384-1.161-0.713-2.725-1.583-3.25c-1.297-0.784-3.052-0.811-4.611-1.158
			c-0.08,1.184-0.524,2.488-0.18,3.532c1.918,5.798,4.034,11.53,6.067,17.29c1.359,3.85,0.272,8.012-2.391,8.646
			c-1.79,0.427-3.998,0.781-3.037,3.016c0.607,1.413,2.75,2.844,4.341,3.018c3.516,0.383,6.263-2.763,7.479-7.263
			c0.7-2.591,1.791-5.075,2.688-7.613c1.942-5.5,4.017-10.961,5.685-16.543c0.318-1.065-0.987-2.616-1.543-3.942
			c-1.55,1.172-3.705,2.029-4.515,3.586c-1.384,2.66-1.842,5.788-2.875,8.652C648.063,199.957,647.104,200.443,645.992,201.487z
			 M497.916,108.196c-0.223-0.28-0.445-0.562-0.668-0.842c0.34-0.78,0.457-1.894,1.052-2.288c5.515-3.658,9.413-8.748,12.817-14.262
			c2.689-4.355-0.158-10.999-5.223-11.812c-2.524-0.405-5.281-0.325-7.773,0.24c-4.442,1.008-5.358,3.031-3.589,7.043
			c1.48-0.456,3.176-0.644,4.487-1.453c2.787-1.718,4.791,0.412,6.028,1.785c0.897,0.998,0.538,3.932-0.255,5.5
			c-2.74,5.43-7.56,9.069-12.101,12.92c-2.395,2.031-4.645,4.234-7.388,6.751c1.725,0.826,2.574,1.553,3.46,1.601
			c4.351,0.237,8.721,0.53,13.064,0.347c3.977-0.168,6.703-5.111,5.145-8.268C503.934,106.377,500.925,107.287,497.916,108.196z
			 M544.947,204.676c1.77,2.007,3.305,4.04,5.156,5.722c0.948,0.86,2.465,1.094,3.725,1.611c0.349-1.465,1.002-2.945,0.936-4.392
			c-0.043-0.938-1.02-1.943-1.781-2.718c-3.686-3.751-4.072-6.562-1.329-10.957c0.911-1.461,1.999-2.819,2.813-4.329
			c0.426-0.79,0.864-2.065,0.513-2.649c-0.379-0.628-1.87-1.192-2.532-0.927c-1.633,0.654-3.245,1.606-4.543,2.792
			c-1.897,1.736-3.615,2.056-5.58,0.293c-1.756-1.573-3.521-3.137-5.332-4.749c-1.441,1.211-2.44,2.051-4.17,3.504
			c0.801,0.323,1.445,0.376,1.711,0.722c5.463,7.097,6.71,8.885,3.246,14.186c-0.841,1.287-2.177,2.271-2.911,3.601
			c-0.646,1.168-0.771,2.625-1.125,3.955c1.766-0.01,3.898,0.605,5.214-0.17C541.156,208.877,542.831,206.695,544.947,204.676z
			 M625.62,281.278c1.576-0.887,2.679-1.509,3.781-2.129c-0.673-0.932-1.175-2.085-2.048-2.757c-4.481-3.449-5.521-9.66-2.09-13.814
			c0.984-1.19,2.376-2.043,3.381-3.221c0.491-0.576,0.876-1.663,0.659-2.3c-0.196-0.58-1.426-1.353-1.927-1.191
			c-2.118,0.682-4.506,1.258-6.104,2.659c-2.549,2.234-4.836,2.51-6.078-0.071c-0.948-1.971-5.221-3.998-6.651-2.904
			c-2.623,2.004,0.896,3.317,0.873,5.122c-0.006,0.484,0.996,0.947,1.472,1.478c3.813,4.246,3.865,5.013,0.731,9.466
			c-1.224,1.738-2.607,3.389-3.617,5.244c-1.007,1.852-0.732,3.77,1.872,3.4c1.706-0.241,3.623-1.262,4.795-2.533
			c2.395-2.598,4.647-2.444,6.667,0.483C622.248,279.532,624.082,280.219,625.62,281.278z M244.057,396.823
			c-1.5,0.161-2.863,0.308-4.226,0.455c-0.277-2.791-1.054-5.667-0.594-8.331c0.194-1.123,2.959-1.874,4.625-2.646
			c1.239-0.575,3.487-0.661,3.694-1.408c0.38-1.368,0.042-3.471-0.866-4.489c-0.704-0.788-2.897-0.842-4.135-0.399
			c-1.378,0.492-2.299,2.17-3.661,2.84c-0.862,0.423-3.091,0.107-3.135-0.15c-0.785-4.513-3.995-3.254-6.687-2.829
			c-0.892,0.141-1.653,1.11-2.475,1.702c0.584,0.772,1.292,1.481,1.729,2.33c1.423,2.755,4.28,5.963,3.683,8.235
			c-0.609,2.318-1.847,6.593-6.365,6.588c-0.711,0-1.424,2.108-2.137,3.242c0.984,0.534,2.218,1.729,2.901,1.47
			c1.671-0.634,3.114-1.903,4.597-2.986c1.019-0.744,1.952-1.606,3.241-2.681c1.176,3.364,1.09,7.916,5.646,6.661
			C244.631,403.122,245.696,400.162,244.057,396.823z M461.453,252.588c-0.375,0.005-0.75,0.009-1.125,0.014
			c-0.161-1.084-0.286-2.175-0.488-3.251c-0.658-3.493-1.016-7.097-2.186-10.412c-0.451-1.283-2.675-2.294-4.271-2.679
			c-0.862-0.207-3.07,1.325-2.993,1.804c0.215,1.335,1.313,2.523,2.044,3.781c0.46,0.789,1.233,1.583,1.27,2.402
			c0.211,4.731,0.753,9.538,0.137,14.18c-0.345,2.596-2.652,4.963-4.198,7.354c-0.811,1.253-1.884,2.336-3.093,3.804
			c4.206,1.789,5.624-1.332,7.049-2.869c5.221-5.625,10.267-11.459,14.837-17.616c1.871-2.521,2.495-6.03,3.354-9.182
			c0.139-0.51-1.407-2.03-2.279-2.125c-1.137-0.123-2.378,0.71-3.574,1.131c0.457,1.019,0.889,2.048,1.383,3.049
			c0.197,0.397,0.528,0.73,0.724,0.991C465.757,246.301,463.605,249.444,461.453,252.588z M593.808,263.971
			c-2.632-3.355-5.274-2.939-8.145-2.894c-4.811,0.076-9.636-0.835-14.447-0.772c-1.332,0.018-3.468,1.81-3.778,3.131
			c-0.602,2.556,1.929,2.392,3.57,2.425c5.867,0.119,11.743,0.243,17.604,0.046C590.279,265.851,591.909,264.712,593.808,263.971z
			 M592.56,271.962c-0.21-0.451-0.419-0.901-0.629-1.353c-0.784-0.287-1.555-0.771-2.354-0.829
			c-5.535-0.404-11.073-0.78-16.617-1.016c-1.155-0.049-2.504,0.271-3.459,0.891c-0.941,0.611-1.496,1.819-2.22,2.767
			c1.073,0.591,2.128,1.646,3.226,1.693c5.834,0.259,11.686,0.439,17.516,0.239C589.561,274.302,591.049,272.799,592.56,271.962z
			 M569.748,202.162c0.044,0.62,0.088,1.239,0.133,1.858c2.023,0.27,4.039,0.65,6.071,0.791c5.199,0.357,10.404,0.772,15.608,0.784
			c1.28,0.003,2.563-1.448,3.846-2.229c-1.04-0.666-2.038-1.821-3.125-1.912c-4.939-0.413-9.906-0.72-14.859-0.666
			C574.859,200.815,572.306,201.677,569.748,202.162z M595.258,196.583c0.151-0.461,0.303-0.922,0.454-1.384
			c-1.64-0.867-3.245-2.39-4.927-2.48c-5.941-0.318-11.911-0.217-17.865-0.077c-0.853,0.02-1.68,1.131-2.519,1.737
			c0.874,0.693,1.712,1.925,2.627,1.985c3.967,0.259,7.956,0.19,11.938,0.214C588.396,196.599,591.827,196.583,595.258,196.583z
			 M376.213,364.433c-2.419-1.319-3.664-2.475-4.948-2.52c-0.771-0.027-2.389,1.839-2.236,2.564
			c0.265,1.268,1.634,3.257,2.479,3.227C372.758,367.658,373.953,366.113,376.213,364.433z M428.446,316.556
			c-1.487-1.333-2.349-2.106-3.211-2.879c-1.109,1.261-2.22,2.522-3.328,3.784c0.942,0.791,2.046,2.353,2.792,2.197
			C425.87,319.414,426.799,318.012,428.446,316.556z M372.361,331.938c-0.816,0.083-1.633,0.166-2.448,0.249
			c-0.197,1.77-0.395,3.538-0.591,5.307c1.592-0.068,3.185-0.137,4.777-0.206C373.521,335.505,372.94,333.722,372.361,331.938z
			 M371.973,324.104c-1.392,1.811-2.715,2.787-2.627,3.617c0.097,0.917,1.588,2.456,2.284,2.36c1.052-0.146,2.343-1.318,2.742-2.358
			C374.598,327.134,373.247,325.939,371.973,324.104z M144.581,38.826c0.486,1.69,0.7,3.077,1.336,4.231
			c0.18,0.327,2.046,0.295,2.354-0.134c0.747-1.042,1.034-2.414,1.674-4.097C147.859,38.826,146.568,38.826,144.581,38.826z
			 M402.464,319.771c0.684-0.17,1.367-0.338,2.05-0.507c-0.133-1.805-0.266-3.61-0.397-5.415c-1.216,0.354-2.433,0.707-3.648,1.062
			C401.133,316.529,401.799,318.149,402.464,319.771z M385.386,316.236c1.253,1.446,1.962,2.265,2.671,3.083
			c0.759-0.948,1.931-1.815,2.137-2.872c0.146-0.746-1.017-1.748-1.595-2.636C387.696,314.493,386.794,315.174,385.386,316.236z
			 M59.532,315.175c1.22-1.512,2.403-2.343,2.341-3.066c-0.072-0.835-1.414-2.313-1.901-2.201c-1.023,0.237-2.13,1.187-2.62,2.143
			C57.145,312.455,58.4,313.612,59.532,315.175z M198.549,44.793c1.383-1.595,2.864-2.667,2.691-3.244
			c-0.318-1.061-1.607-1.829-2.493-2.72c-0.753,0.884-1.862,1.674-2.131,2.687C196.445,42.161,197.518,43.137,198.549,44.793z
			 M113.154,339.71c0.673,0.05,1.346,0.098,2.019,0.146c0.477-1.701,0.953-3.402,1.43-5.104c-1.354,0.062-2.707,0.124-4.06,0.187
			C112.747,336.529,112.95,338.12,113.154,339.71z M374.238,352.276c0.686-4.074-0.818-5.064-3.094-4.697
			c-0.728,0.117-1.223,1.668-1.824,2.563C370.815,350.79,372.31,351.438,374.238,352.276z M53.679,308.906
			c-0.778-0.061-1.555-0.122-2.333-0.183c-0.366,1.65-0.732,3.301-1.098,4.951c1.143-0.053,3.199,0.115,3.274-0.196
			C53.875,312.026,53.679,310.443,53.679,308.906z M171.124,43.506c0-1.612,0-3.019,0-4.665c-1.95,0.11-4.057-0.949-4.313,2.134
			C166.549,44.116,168.717,43.469,171.124,43.506z M410.689,164.584c-0.755-0.208-1.511-0.416-2.267-0.623
			c-0.711,1.407-1.422,2.813-2.134,4.22c1.224,0.328,2.447,0.656,3.671,0.984C410.203,167.638,410.446,166.111,410.689,164.584z
			 M398.537,316.216c-1.405-0.93-2.517-1.745-3.73-2.361c-0.142-0.072-1.214,0.953-1.208,1.462c0.016,1.467,0.364,2.929,0.725,5.351
			C396.138,318.75,397.037,317.801,398.537,316.216z M412.466,314.194c-3.767-0.641-4.704,0.875-4.172,3.214
			c0.193,0.849,1.607,1.419,2.465,2.116C411.313,317.798,411.865,316.069,412.466,314.194z M375.583,342.878
			c-1.897-1.324-2.974-2.661-3.955-2.596c-0.956,0.064-1.816,1.564-2.718,2.434c0.781,0.661,1.555,1.845,2.348,1.856
			C372.381,344.591,373.518,343.746,375.583,342.878z M118.449,321.386c-1.861-0.829-2.846-1.676-3.575-1.495
			c-0.998,0.249-1.802,1.276-2.69,1.971c0.894,0.639,1.767,1.741,2.686,1.78C115.734,323.678,116.644,322.591,118.449,321.386z
			 M445.726,42.966c-2.309,0.583-3.732,0.943-5.156,1.304c0.651,1.363,1.303,2.727,1.954,4.09c0.361-0.084,0.722-0.168,1.083-0.251
			C444.146,46.796,444.688,45.484,445.726,42.966z M394.077,163.939c-0.657,0.262-1.315,0.524-1.973,0.785
			c0.226,1.285,0.451,2.57,0.677,3.855c1.18-0.338,2.359-0.676,3.539-1.014C395.572,166.357,394.824,165.148,394.077,163.939z
			 M423.6,169.972c1.184-1.382,1.93-2.253,2.675-3.122c-1.012-0.717-1.961-1.798-3.063-1.988c-0.504-0.087-1.639,1.507-1.851,2.478
			C421.244,167.87,422.458,168.69,423.6,169.972z M401.364,163.491c-0.923,1.654-1.831,2.598-1.84,3.549
			c-0.004,0.586,1.437,1.731,2.101,1.645c0.953-0.124,1.789-1.142,2.675-1.778C403.498,165.975,402.698,165.043,401.364,163.491z
			 M140.247,37.576c-1.253,1.321-2.584,2.175-2.468,2.717c0.235,1.097,1.257,2.025,1.954,3.022c0.654-0.847,1.641-1.619,1.853-2.565
			C141.747,40.026,140.929,39.083,140.247,37.576z M115.32,38.727c-0.232,0.315-0.464,0.63-0.697,0.944
			c0.728,1.034,1.324,2.218,2.251,3.02c0.329,0.284,1.896-0.15,2.135-0.632c0.426-0.865,0.272-2.015,0.361-3.045
			C118.02,38.918,116.67,38.823,115.32,38.727z M152.733,43.195c0.601,0.192,1.201,0.384,1.801,0.577
			c0.641-1.24,1.282-2.48,1.923-3.72c-1.066-0.391-2.132-0.781-3.199-1.172C153.083,40.317,152.909,41.756,152.733,43.195z
			 M106.163,314.148c0.168-0.815,0.335-1.63,0.503-2.444c-1.344-0.33-2.696-0.886-4.029-0.846c-0.385,0.011-0.719,1.733-1.075,2.672
			C103.095,313.735,104.629,313.941,106.163,314.148z M209.153,41.616c-1.243-1.3-2.029-2.121-2.816-2.942
			c-0.736,1.016-1.713,1.955-2.072,3.089c-0.119,0.375,1.329,1.711,2.12,1.768C207.12,43.583,207.934,42.516,209.153,41.616z
			 M115.37,355.365c-2.173,1.367-3.293,2.073-4.875,3.069c1.715,1.031,2.79,1.678,4.875,2.932
			C115.37,359.148,115.37,357.701,115.37,355.365z M374.707,358.407c-0.009-0.44-0.018-0.88-0.026-1.32
			c-1.044-0.477-2.114-1.356-3.125-1.292c-0.698,0.044-1.683,1.33-1.826,2.181c-0.084,0.496,1.243,1.743,1.925,1.736
			C372.677,359.699,373.689,358.882,374.707,358.407z M284.721,41.266c-0.146,0.332-0.292,0.665-0.439,0.996
			c0.888,0.818,1.895,2.4,2.637,2.284c1.272-0.197,2.38-1.456,3.557-2.269c-0.132-0.338-0.264-0.675-0.395-1.012
			C288.294,41.266,286.508,41.266,284.721,41.266z M434.083,320.677c-0.263-3.119-0.413-4.911-0.564-6.703
			c-0.457-0.074-0.914-0.147-1.371-0.221c-0.64,1.575-1.466,3.115-1.77,4.752C430.313,318.859,432.129,319.562,434.083,320.677z
			 M438.401,44.977c-0.278-0.681-0.557-1.361-0.835-2.042c-1.374,0.387-2.747,0.772-4.121,1.16c0.404,1.034,0.809,2.068,1.214,3.102
			C435.906,46.458,437.153,45.718,438.401,44.977z M124.885,36.984c-0.994,1.854-1.87,2.736-1.766,3.481
			c0.138,0.99,1.039,1.875,1.612,2.805c0.691-0.823,1.814-1.583,1.95-2.488C126.807,39.942,125.874,38.947,124.885,36.984z
			 M194.435,41.875c-1.311-1.365-2.135-2.223-2.959-3.08c-0.724,0.836-1.913,1.617-2.019,2.525
			c-0.079,0.678,1.121,1.896,1.974,2.163C192.039,43.674,193.017,42.684,194.435,41.875z M179.651,41.105
			c-1.542-1.206-2.292-2.193-3.159-2.309c-0.478-0.064-1.589,1.315-1.62,2.075c-0.031,0.807,0.88,1.651,1.379,2.479
			C177.12,42.777,177.988,42.205,179.651,41.105z M181.465,41.832c0.098,0.425,0.197,0.85,0.296,1.275
			c1.61-0.124,3.22-0.248,5.755-0.442c-1.586-2.047-2.417-3.118-3.485-4.497C182.942,39.724,182.204,40.778,181.465,41.832z
			 M65.366,42.312c1.186-1.053,1.976-1.754,2.767-2.456c-0.675-0.718-1.5-2.122-1.993-2.014c-1.104,0.242-2.042,1.237-3.046,1.925
			C63.72,40.47,64.348,41.171,65.366,42.312z M334.019,45.037c0.283-0.647,0.566-1.294,0.849-1.941
			c-1.249-0.674-2.498-1.349-3.748-2.024c-0.36,0.955-0.721,1.909-1.082,2.864C331.366,44.303,332.693,44.67,334.019,45.037z
			 M427.351,167.439c1.728,0.94,2.866,1.56,4.071,2.215c0.815-0.915,1.504-1.685,2.123-2.38
			C431.385,163.627,429.706,166.051,427.351,167.439z M113.714,368.462c0.659-0.263,1.316-0.525,1.975-0.788
			c-0.319-1.495-0.639-2.99-0.958-4.485c-0.937,0.64-2.63,1.266-2.64,1.921C112.073,366.218,113.116,367.344,113.714,368.462z
			 M117.077,329.416c-1.058-1.234-1.959-2.285-3.514-4.101c0,2.59,0,4.493,0,7.447C115.357,331.054,116.215,330.236,117.077,329.416
			z M300.262,44.708c2.553,0.125,4.859,0.419,4.157-3.247C301.678,40.582,299.519,40.323,300.262,44.708z M161.801,44.721
			c0.978-1.911,1.849-2.823,1.719-3.56c-0.164-0.93-1.144-1.717-1.771-2.565c-0.599,0.73-1.652,1.442-1.683,2.197
			C160.027,41.72,160.842,42.684,161.801,44.721z M48.424,38.841c0.155,0.736,0.31,1.472,0.464,2.208
			c1.413-0.211,2.825-0.422,4.238-0.633c-0.23-0.862-0.541-2.483-0.68-2.469C51.089,38.088,49.761,38.504,48.424,38.841z
			 M85.166,38.913c-0.14,0.37-0.28,0.74-0.421,1.11c1.155,0.99,2.311,1.98,4.296,3.682c0.207-2.323,0.316-3.557,0.426-4.792
			C88.034,38.913,86.6,38.913,85.166,38.913z M80.493,37.25c-1.008,0.92-1.869,1.707-2.876,2.626
			c1.207,1.001,2.118,1.756,3.05,2.529c0.977-0.879,1.85-1.664,2.988-2.688C82.467,38.79,81.545,38.071,80.493,37.25z
			 M99.969,39.008c1.042,1.873,1.652,2.969,2.39,4.295c1.129-1.321,2.022-2.366,3.67-4.295
			C103.509,39.008,102.022,39.008,99.969,39.008z M71.427,42.046c0.765,0.218,1.531,0.436,2.296,0.653
			c0.435-1.429,0.87-2.858,1.304-4.288c-0.865-0.146-2.404-0.582-2.486-0.39C71.995,39.288,71.762,40.689,71.427,42.046z
			 M89.246,315.172c0.866-1.437,1.84-2.349,1.68-2.967c-0.201-0.777-1.444-1.921-2.027-1.809c-0.782,0.148-1.769,1.289-1.894,2.12
			C86.917,313.106,88.106,313.89,89.246,315.172z M93.952,312.392c0.119,0.514,0.238,1.029,0.357,1.543
			c1.542-0.22,3.085-0.439,4.628-0.66c-0.711-1.178-1.423-2.355-2.348-3.885C95.353,310.798,94.652,311.595,93.952,312.392z
			 M356.552,41.735c-0.317-0.314-0.634-0.629-0.95-0.943c-1.188,0.49-2.499,0.814-3.504,1.555c-0.379,0.28-0.206,2.168-0.017,2.214
			c0.954,0.23,2.26,0.469,2.942-0.009C355.807,44.004,356.065,42.707,356.552,41.735z M84.691,312.463
			c-1.259-1.094-2.135-2.354-2.696-2.226c-0.827,0.188-1.428,1.364-2.125,2.119c0.745,0.638,1.413,1.59,2.265,1.801
			C82.67,314.289,83.479,313.311,84.691,312.463z M387.312,44.006c1.776,0.992,2.88,1.607,4.749,2.649c0-1.938,0-3.258,0-4.963
			C390.264,42.568,389.194,43.089,387.312,44.006z M388.338,165.181c-0.561-0.342-1.12-0.685-1.68-1.027
			c-0.868,1.114-1.736,2.227-2.604,3.34c0.919,0.382,2.473,1.277,2.647,1.06C387.467,167.605,387.829,166.334,388.338,165.181z
			 M66.924,315.169c1.163-1.521,2.3-2.389,2.171-2.979c-0.211-0.965-1.249-1.749-1.938-2.609c-0.659,0.675-1.801,1.313-1.854,2.031
			C65.237,312.495,66.081,313.445,66.924,315.169z M71.321,311.953c0.258,0.497,0.517,0.995,0.775,1.492c1.567,0,3.134,0,5.536,0
			c-1.389-1.738-2.125-2.661-2.865-3.587C73.511,310.622,72.416,311.287,71.321,311.953z M425.928,43.28
			c0.306,1.463,0.537,2.573,0.768,3.683c0.377,0.137,0.753,0.274,1.129,0.411c0.795-1.175,1.59-2.35,2.959-4.374
			C428.423,43.136,427.374,43.196,425.928,43.28z M112.258,39.947c-0.942-0.692-1.667-1.636-2.267-1.563
			c-0.751,0.092-2.068,1.208-1.97,1.547c0.283,0.993,1.148,1.821,1.785,2.714C110.493,41.89,111.18,41.133,112.258,39.947z
			 M336.258,43.309c0.145,0.415,0.291,0.83,0.436,1.245c1.334,0,2.744,0.233,3.955-0.154c0.326-0.104,0.049-2.093,0.049-3.216
			c-0.319-0.19-0.639-0.381-0.958-0.571C338.579,41.511,337.419,42.41,336.258,43.309z M382.009,46.667
			c2.021-1.319,3.08-2.01,4.304-2.81c-1.143-0.991-2.104-1.824-3.964-3.438C382.217,42.847,382.135,44.346,382.009,46.667z
			 M98.312,41.428c-0.357-0.623-0.713-1.247-1.069-1.871c-0.884-0.38-1.804-1.107-2.639-1.02c-0.572,0.059-1.53,1.357-1.415,1.916
			c0.182,0.885,1.102,2.254,1.737,2.269C96.044,42.748,97.182,41.906,98.312,41.428z M417.035,169.415
			c0.515-0.467,1.029-0.935,1.543-1.402c-0.781-1.024-1.563-2.047-2.345-3.071c-0.716,0.662-1.432,1.324-2.146,1.986
			C415.069,167.757,416.053,168.586,417.035,169.415z M295.237,45.121c0.554-0.385,1.107-0.769,1.661-1.153
			c-0.519-1.127-1.037-2.254-1.557-3.381c-0.8,0.589-1.601,1.18-2.402,1.77C293.706,43.277,294.471,44.199,295.237,45.121z
			 M312.792,42.864c-1.459-1.047-2.196-1.929-3.03-2.033c-0.46-0.058-1.497,1.177-1.519,1.854c-0.023,0.71,0.917,2.083,1.328,2.044
			C310.441,44.645,311.239,43.831,312.792,42.864z M59.546,42.84c-0.152-2.339-0.25-3.841-0.404-6.215
			C55.838,39.077,55.464,40.589,59.546,42.84z"/>
		<path fill-rule="evenodd" clip-rule="evenodd" d="M210.643,43.701c0.605-1.419,1.24-2.906,1.874-4.393
			c1.677,0.913,3.354,1.825,5.292,2.881c1.401-1.482,3.001-4.405,5.914-1.111c0.188,0.212,0.731,0.222,1.081,0.161
			c10.58-1.835,21.244-0.626,31.837-0.441c3.645,0.064,8.009-1.772,11.43,1.51c0.327,0.313,1.492,0.335,1.758,0.038
			c2.748-3.078,4.549-1.612,6.078,1.592c2.032-1.883,3.359-5.298,6.666-2.492c0.286,3.8,2.532,6.202,6.408,7.137
			c5.624,1.358,11.009,3.181,15.982,6.397c4.482,2.898,9.463,5.025,14.23,7.48c0.328,0.169,0.788,0.148,1.046,0.375
			c3.401,2.996,6.769,6.029,10.162,9.034c1.721,1.524,3.339,3.214,5.239,4.478c5.989,3.982,9.96,9.888,14.546,15.17
			c2.826,3.256,5.005,7.094,7.322,10.768c2.699,4.28,5.408,8.572,7.775,13.037c1.588,2.998,2.728,6.26,3.822,9.486
			c2.115,6.231,4.369,12.442,5.974,18.811c1.392,5.523,1.928,11.259,2.935,16.884c0.157,0.884,0.701,1.757,1.25,2.5
			c1.536,2.08,4.056,4.019-0.139,6.089c-0.623,0.308-0.762,2.021-0.768,3.087c-0.146,27.111-0.239,54.223-0.355,81.333
			c-0.037,8.621,0.018,17.245-0.204,25.861c-0.291,11.269-0.82,22.53-1.225,33.796c-0.031,0.845,0.108,1.695,0.173,2.593
			c1.508-0.913,2.912-1.764,4.316-2.613c0.353,0.223,0.706,0.445,1.06,0.669c-0.285,1.442-0.112,3.47-0.99,4.158
			c-0.815,0.64-2.751-0.146-4.979-0.389c-0.344,0.815-0.767,2.329-1.584,3.588c-0.586,0.901-1.63,1.863-2.599,2.028
			c-0.655,0.111-1.51-1.157-2.325-1.737c-1.572-1.119-3.118-3.006-4.783-3.13c-5.873-0.438-11.793-0.243-17.695-0.327
			c-22.106-0.313-44.212-0.72-66.319-0.945c-29.346-0.3-58.693-0.423-88.04-0.699c-18.106-0.171-36.212-0.427-54.316-0.77
			c-5.568-0.106-11.125-0.741-16.693-0.885c-1.528-0.038-3.075,1.179-4.62,1.194c-2.124,0.022-4.357-0.251-6.355-0.943
			c-2.411-0.835-2.798-2.442-0.963-4.592c0.775-0.908,1.151-2.425,1.166-3.671c0.141-12.239,0.067-24.48,0.255-36.718
			c0.171-11.179,0.561-22.354,0.906-33.529c0.239-7.772,0.729-15.54,0.817-23.313c0.179-15.725-0.013-31.456,0.303-47.177
			c0.138-6.846,0.684-13.76,1.902-20.487c1.12-6.183,2.813-12.404,5.287-18.165c4.121-9.592,7.905-19.43,14.236-27.919
			c2.898-3.886,5.568-7.99,8.835-11.542c4.582-4.982,9.575-9.592,14.485-14.264c3.665-3.487,7.311-7.033,11.289-10.138
			c2.087-1.628,4.937-2.242,7.328-3.526c7.637-4.103,14.609-9.578,23.462-11.144c0.804-0.142,1.51-0.79,2.282-1.16
			C205.124,46.314,207.843,45.031,210.643,43.701z M369.854,311.454c0.091-1.603,0.222-2.83,0.221-4.058
			c-0.008-8.494-0.019-16.989-0.072-25.483c-0.13-20.059,0.759-40.106,0.595-60.166c-0.021-2.445,1.125-4.738,0.062-7.406
			c-0.529-1.332,1.168-3.389,1.186-5.125c0.118-11.244-0.143-22.495,0.153-33.732c0.098-3.684-1.22-4.479-4.442-4.491
			c-21.607-0.074-43.214-0.458-64.818-0.309c-10.86,0.075-21.646-1.472-32.543-0.722c-5.721,0.393-11.534-0.834-17.311-0.899
			c-23.737-0.265-47.475-0.351-71.212-0.531c-18.87-0.144-37.74-0.323-56.61-0.5c-2.901-0.027-5.321-0.11-5.332,4.164
			c-0.082,32.481-0.323,64.96-0.615,97.441c-0.053,5.955-0.603,11.903-0.846,17.857c-0.128,3.155-0.646,6.447,0.059,9.43
			c0.505,2.137,1.164,3.697-0.039,5.866c-1.205,2.174,0.422,4.472,2.958,4.772c1.237,0.147,2.496,0.136,3.745,0.163
			c26.5,0.585,52.999,1.192,79.499,1.737c26.605,0.549,53.21,1.135,79.819,1.516c21.368,0.305,42.74,0.339,64.11,0.468
			C355.398,311.49,362.381,311.454,369.854,311.454z M371.266,161.916c-0.587-3.367-0.91-5.764-1.432-8.119
			c-1.466-6.62-2.521-13.388-4.677-19.782c-1.915-5.683-4.156-11.301-6.758-16.815c-3.247-6.877-7.423-13.038-11.587-19.169
			c-3.74-5.508-8.882-10.073-13.471-14.994c-7.038-7.547-16.719-11.89-23.749-19.467c-0.292-0.314-0.939-0.277-1.399-0.46
			c-4.869-1.936-9.741-3.863-14.597-5.832c-4.989-2.022-9.803-4.759-14.979-5.979c-8.034-1.894-16.269-3.234-24.492-3.918
			c-5.976-0.497-12.078,0.356-18.113,0.772c-5.047,0.349-10.092,0.818-15.109,1.461c-3.431,0.439-6.965,0.85-10.182,2.021
			c-5.661,2.061-10.963,5.169-16.688,6.977c-9.044,2.857-16.574,8.019-23.811,13.834c-1.919,1.542-4.008,2.898-5.796,4.577
			c-5.654,5.31-11.635,10.361-16.67,16.217c-5.105,5.936-10.107,12.068-13.033,19.637c-1.96,5.073-5.984,9.512-7.186,14.677
			c-2.257,9.695-7.006,18.803-6.915,29.088c0.022,2.577,0.427,3.585,3.146,3.654c15.559,0.401,31.112,1.151,46.673,1.379
			c22.469,0.329,44.943,0.307,67.414,0.444c17.816,0.11,35.634,0.126,53.447,0.417c5.761,0.094,11.504,1.198,17.266,1.328
			c3.724,0.085,7.466-0.788,11.205-1.18c4.985-0.523,9.952,1.333,14.959,0.146c0.353-0.083,0.813,0.48,1.253,0.547
			c1.255,0.192,2.532,0.418,3.791,0.37c0.924-0.036,2.069-0.968,2.706-0.659c2.277,1.105,4.235,0.42,6.533,0.177
			c2.395-0.254,5.058,0.89,7.612-0.397c0.218-0.109,0.785,0.145,0.991,0.395c2.255,2.73,5.128,0.665,7.611,1.12
			C368.533,164.988,370.213,163.598,371.266,161.916z"/>
		<path fill-rule="evenodd" clip-rule="evenodd" d="M40.981,73.224c-3.311,2.356-6.119,4.425-9.033,6.331
			c-0.337,0.221-1.263-0.456-1.809-0.674c3.08-9.232,5.846-18.302,9.179-27.159c1.488-3.954,2.991-7.659,2.263-11.989
			c-0.104-0.614,1.238-1.47,1.911-2.214c0.686,0.698,1.794,1.296,1.986,2.112c1.002,4.234,1.672,8.548,2.657,12.788
			c0.614,2.639,1.484,5.231,2.412,7.782c1.972,5.42,4.086,10.79,6.071,16.206c0.409,1.114,0.511,2.341,0.832,3.891
			c-5.859,0.654-6.968-5.431-12.034-7.125c-0.348,69.824-0.695,139.335-1.042,208.673c4.35,0.116,5.006-7.206,10.495-5.046
			c-2.337,6.771-4.569,13.202-6.775,19.643c-0.957,2.794-2.111,5.557-2.687,8.431c-0.316,1.581,0.011,3.537,0.698,5.024
			c1.581,3.423,1.402,4.025-2.243,4.18c-1.247,0.053-2.5-0.015-3.749-0.07c-4.464-0.202-4.882-1.019-2.896-5.074
			c0.462-0.944,0.865-2.292,0.546-3.187c-3.128-8.778-6.451-17.487-9.605-26.257c-0.358-0.996-0.023-2.241-0.01-3.371
			c1.376,0.31,2.974,0.28,4.083,1.002c2.057,1.338,3.83,3.115,5.721,4.709c0.405-0.234,0.811-0.469,1.216-0.703
			c0-5.197-0.06-10.395,0.011-15.591c0.229-16.86,0.666-33.72,0.677-50.579c0.004-6.199-0.4-12.261,0.867-18.505
			c0.93-4.582-0.587-9.613-0.646-14.449c-0.154-12.715-0.201-25.434-0.096-38.15c0.04-4.801,0.77-9.594,0.876-14.397
			c0.051-2.306-0.956-4.636-0.906-6.943c0.337-15.548,0.833-31.093,1.261-46.64C41.233,75.157,41.092,74.439,40.981,73.224z"/>
		<path fill-rule="evenodd" clip-rule="evenodd" d="M341.526,373.602c-3.406-3.611-5.942-6.301-8.477-8.989
			c0.112-0.479,0.224-0.96,0.336-1.438c1.568-0.025,3.274-0.466,4.68,0c5.656,1.875,11.23,4.002,16.81,6.102
			c1.697,0.639,3.286,1.565,4.98,2.215c2.201,0.843,4.422,1.726,6.715,2.18c0.614,0.121,1.544-1.234,2.294-1.947
			c0.911-0.867,1.786-1.771,2.677-2.659c0.938,1.234,2.837,2.69,2.613,3.658c-0.472,2.05-1.245,3.794,0.02,5.851
			c0.288,0.47-0.158,1.845-0.693,2.29c-2.729,2.272-1.686,3.976,0.896,5.648c-0.647,0.741-1.114,1.457-1.753,1.95
			c-0.529,0.408-1.569,0.946-1.841,0.733c-0.589-0.461-1.105-1.349-1.15-2.092c-0.064-1.084,0.743-2.356,0.403-3.256
			c-0.574-1.526-1.787-4.019-2.674-3.995c-2.757,0.076-5.555,0.946-8.21,1.874c-3.404,1.188-6.63,2.892-10.034,4.082
			c-3.68,1.287-7.454,2.33-11.239,3.269c-0.896,0.221-2.432-0.097-2.882-0.729c-0.413-0.581-0.07-2.156,0.482-2.882
			c1.754-2.306,3.761-4.418,6.226-7.24c-65.944-1.034-130.91-2.053-196.86-3.087c3.099,3.449,5.258,5.789,7.328,8.206
			c0.476,0.555,0.643,1.374,0.952,2.071c-0.776,0.271-1.649,0.917-2.312,0.748c-3.288-0.842-6.587-1.723-9.755-2.927
			c-3.761-1.43-7.289-3.521-11.104-4.744c-4.448-1.427-9.104-2.196-13.656-3.309c-1.511-0.368-2.98-0.912-4.468-1.377
			c1.505-1.403,2.793-3.519,4.563-4.062c3.654-1.123,7.644-1.117,11.349-2.118c4.041-1.091,7.911-2.809,11.864-4.23
			c3.689-1.326,7.364-2.705,11.106-3.862c0.76-0.235,1.794,0.416,2.702,0.658c-0.256,0.895-0.277,1.979-0.814,2.646
			c-1.505,1.867-3.278,3.517-4.82,5.357c-0.395,0.472-0.66,1.563-0.387,1.961c0.381,0.558,1.318,1.017,2.024,1.026
			c9.611,0.143,19.223,0.175,28.833,0.286c12.111,0.143,24.223,0.291,36.332,0.511c29.064,0.527,58.128,1.113,87.192,1.646
			c11.116,0.203,22.233,0.344,33.35,0.457C336.923,374.102,338.725,373.822,341.526,373.602z"/>
		<path fill-rule="evenodd" clip-rule="evenodd" d="M433.887,207.994c-6.119,1.517-7.029-5.161-11.607-5.877
			c-0.187,0.835-0.51,1.617-0.514,2.401c-0.094,21.472-0.131,42.943-0.242,64.415c-0.021,3.987-0.395,7.972-0.424,11.959
			c-0.008,1.06,0.658,2.123,1.015,3.185c0.703-0.634,1.358-1.334,2.119-1.889c2.328-1.702,3.526-5.316,8.381-4.307
			c-0.866,2.61-1.621,5.063-2.495,7.474c-0.938,2.586-2.109,5.091-2.968,7.701c-2.169,6.601-4.253,13.23-6.288,19.874
			c-0.393,1.28-0.156,2.784-0.672,3.986c-0.508,1.181-1.603,2.11-2.441,3.149c-0.367-0.188-0.735-0.377-1.103-0.565
			c-0.128-1.181-0.554-2.422-0.332-3.533c1.058-5.28-1.484-9.559-3.496-14.057c-0.888-1.982-1.042-4.279-1.754-6.356
			c-1.667-4.864-3.572-9.65-5.141-14.545c-0.349-1.087,0.297-2.49,0.484-3.748c1.422,0.686,2.847,1.368,4.264,2.066
			c0.092,0.045,0.106,0.231,0.194,0.309c1.669,1.433,3.343,2.857,5.016,4.285c0.339-2.132,0.924-4.258,0.974-6.396
			c0.213-9.229,0.278-18.463,0.381-27.695c0.146-13.188,0.284-26.377,0.413-39.565c0.029-2.85,0.005-5.701,0.005-8.564
			c-4.755,0.443-5.7,7.401-12.095,6.142c0.895-1.699,1.806-3,2.299-4.445c1.427-4.184,2.598-8.454,4.034-12.634
			c1.611-4.692,3.432-9.313,5.095-13.989c0.41-1.155,0.43-2.451,0.865-3.591c0.418-1.095,1.145-2.071,1.734-3.099
			c0.753,0.92,1.863,1.727,2.2,2.779c2.203,6.888,4.088,13.881,6.393,20.733c1.235,3.67,3.14,7.112,4.661,10.691
			C433.306,205.378,433.499,206.584,433.887,207.994z"/>
		<path fill-rule="evenodd" clip-rule="evenodd" d="M433.912,123.102c-4.697,13.446-9.237,26.446-13.778,39.446
			c-0.479-0.046-0.959-0.092-1.438-0.139c-0.586-1.392-1.312-2.742-1.734-4.183c-2.273-7.729-4.362-15.513-6.758-23.203
			c-0.754-2.423-2.402-4.553-3.366-6.929c-0.599-1.478-0.68-3.166-1.035-4.972c6.332,0,6.915,6.901,11.767,8.315
			c0-18.888,0-37.43,0-57.064c-2.358,2.069-3.899,3.772-5.771,4.954c-1.512,0.955-3.42,1.284-5.605,2.05
			c4.547-13.137,8.697-25.127,12.848-37.117c-0.29-0.215-0.58-0.431-0.87-0.646c1.363-0.128,2.728-0.256,3.216-0.303
			c1.122,4.235,1.997,7.873,3.063,11.453c0.685,2.298,1.68,4.502,2.484,6.766c2.013,5.663,4.014,11.331,5.975,17.012
			c0.343,0.992,0.468,2.06,0.693,3.092c-0.265,0.228-0.529,0.456-0.795,0.684c-3.318-2.376-6.637-4.752-10.773-7.714
			c-0.874,19.096,0.062,37.739-0.227,57.016C426.846,129.333,427.544,122.951,433.912,123.102z"/>
		<path fill-rule="evenodd" clip-rule="evenodd" d="M619.023,206.493c3.055,0,6.174-0.372,9.137,0.145
			c1.689,0.293,4.462,2.113,4.406,3.115c-0.13,2.322-2.222,3.432-4.905,3.356c-6.086-0.173-12.179-0.056-18.096-0.056
			c-1.604-5.305,0.806-8.354,3.873-11.027c2.992-2.609,6.683-4.619,9.044-7.681c1.696-2.2,2.015-5.671,2.262-8.633
			c0.063-0.741-2.624-2.529-3.858-2.371c-1.844,0.237-3.596,1.666-5.236,2.806c-0.804,0.559-1.207,2.237-1.897,2.304
			c-1.344,0.13-3.057-0.172-4.024-0.994c-0.482-0.411-0.003-2.578,0.63-3.578c4.112-6.502,8.998-8.229,16.38-5.445
			c1.577,0.596,2.953,2.605,3.727,4.283c2.062,4.473,0.634,10.055-2.909,13.709c-1.508,1.554-2.571,3.551-4.127,5.044
			c-1.434,1.375-3.255,2.346-4.906,3.495C618.689,205.475,618.856,205.983,619.023,206.493z"/>
		<path fill-rule="evenodd" clip-rule="evenodd" d="M470.066,114.592c-0.411-2.475-0.591-3.561-0.619-3.734
			c-1.999,0.785-3.999,2.118-6.085,2.269c-3.889,0.281-3.098-3.337-3.779-5.735c-4.545-0.438-3.817,7.61-9.359,5.458
			c-0.546-2.549-1.305-4.357,2.782-5.847c6.318-2.303,6.087-10.491,0.169-14.322c-0.609-0.395-1.245-1.354-1.189-1.991
			c0.05-0.552,0.985-1.222,1.666-1.488c3.959-1.542,6.629,0.824,8.675,3.017c3.252-1.458,6.083-2.727,9.009-4.038
			c2.119,6.291,1.971,6.222-3.011,7.198c-1.685,0.33-4.054,2.067-4.336,3.509c-0.43,2.197,0.601,4.718,1.223,7.044
			c0.102,0.378,1.718,0.847,1.926,0.621c1.756-1.905,2.654,0.255,4.583,1.295c3.359-6.518,6.566-12.888,9.918-19.182
			c1.916-3.599,3.995-7.119,6.183-10.558c0.354-0.557,1.743-0.82,2.496-0.622c0.468,0.123,0.997,1.439,0.872,2.102
			c-0.314,1.669-0.708,3.436-1.56,4.872c-3.662,6.178-7.589,12.2-11.235,18.386c-1.595,2.705-2.574,5.775-4.186,8.469
			C473.494,112.509,471.909,113.182,470.066,114.592z"/>
		<path fill-rule="evenodd" clip-rule="evenodd" d="M66.413,160.164c1.266-0.707,2.56-1.368,3.79-2.13
			c3.357-2.08,6.034-1.636,8.26,1.565c0.42,0.604,0.686,1.64,0.475,2.303c-1,3.142-2.5,6.155-3.189,9.351
			c-0.396,1.839,0.412,3.939,0.591,5.278c-0.707,1.104-1.221,2.837-2.327,3.394c-1.378,0.694-3.319,0.738-4.86,0.382
			c-0.538-0.124-1.07-2.378-0.807-3.468c0.743-3.086,2.008-6.043,2.846-9.112c0.413-1.513,0.338-3.161,0.539-5.335
			c-1.317,0.262-2.541,0.127-3.012,0.66c-2.883,3.257-5.69,6.595-8.3,10.072c-0.662,0.882-0.294,2.474-0.797,3.554
			c-0.627,1.346-1.465,2.766-2.608,3.63c-0.602,0.456-2.784,0.068-2.963-0.416c-0.427-1.154-0.39-2.686-0.008-3.898
			c2.315-7.363,5-14.617,7.075-22.043c0.739-2.644,0.118-5.667-0.685-8.542c0.158-0.181,0.301-0.5,0.477-0.519
			c2.352-0.255,4.708-0.467,7.064-0.69c-0.109,2.124,0.042,4.303-0.389,6.36c-0.633,3.021-1.682,5.955-2.554,8.926
			C65.492,159.711,65.953,159.938,66.413,160.164z"/>
		<path fill-rule="evenodd" clip-rule="evenodd" d="M537.938,244.285c0,3.338,0,6.389,0,9.903c1.547-0.151,2.616-0.145,3.632-0.375
			c6.771-1.537,12.224,2.895,12.133,9.867c-0.05,3.741-0.087,7.484-0.018,11.225c0.051,2.742-0.985,4.815-3.834,4.805
			c-2.935-0.011-2.438-2.6-2.439-4.525c-0.003-3.738-0.026-7.481,0.172-11.212c0.162-3.05-1.596-4.358-4.123-4.765
			c-2.97-0.477-5.142,1.332-5.247,4.295c-0.149,4.236-0.025,8.481-0.121,12.72c-0.037,1.682,0.174,3.54-2.571,3.602
			c-2.587,0.058-3.722-1.009-3.708-3.461c0.055-9.718,0.055-19.438,0.245-29.153C532.137,243.199,535.076,244.255,537.938,244.285z"
			/>
		<path fill-rule="evenodd" clip-rule="evenodd" d="M645.992,201.487c1.112-1.044,2.071-1.53,2.336-2.267
			c1.033-2.864,1.491-5.992,2.875-8.652c0.81-1.558,2.965-2.415,4.515-3.586c0.556,1.327,1.861,2.877,1.543,3.942
			c-1.668,5.583-3.742,11.043-5.685,16.543c-0.896,2.538-1.987,5.022-2.688,7.613c-1.217,4.5-3.964,7.646-7.479,7.263
			c-1.591-0.174-3.733-1.604-4.341-3.018c-0.961-2.234,1.247-2.589,3.037-3.016c2.663-0.634,3.75-4.796,2.391-8.646
			c-2.033-5.76-4.149-11.492-6.067-17.29c-0.345-1.044,0.1-2.349,0.18-3.533c1.56,0.349,3.314,0.375,4.611,1.159
			c0.87,0.525,1.199,2.089,1.583,3.25C643.848,194.415,644.793,197.611,645.992,201.487z"/>
		<path fill-rule="evenodd" clip-rule="evenodd" d="M497.916,108.196c3.009-0.909,6.018-1.819,9.058-2.737
			c1.559,3.157-1.168,8.1-5.145,8.268c-4.344,0.183-8.714-0.109-13.064-0.347c-0.886-0.048-1.735-0.775-3.46-1.601
			c2.743-2.518,4.993-4.72,7.388-6.751c4.541-3.851,9.36-7.49,12.101-12.92c0.793-1.569,1.152-4.502,0.255-5.5
			c-1.237-1.374-3.241-3.503-6.028-1.785c-1.312,0.809-3.007,0.997-4.487,1.453c-1.77-4.012-0.854-6.035,3.589-7.043
			c2.492-0.565,5.249-0.645,7.773-0.24c5.064,0.813,7.912,7.457,5.223,11.812c-3.404,5.515-7.303,10.604-12.817,14.262
			c-0.595,0.394-0.712,1.507-1.052,2.288C497.471,107.634,497.693,107.916,497.916,108.196z"/>
		<path fill-rule="evenodd" clip-rule="evenodd" d="M544.947,204.676c-2.116,2.019-3.791,4.201-5.99,5.497
			c-1.315,0.775-3.448,0.16-5.214,0.17c0.354-1.33,0.479-2.787,1.125-3.955c0.734-1.33,2.07-2.314,2.911-3.601
			c3.464-5.301,2.217-7.089-3.246-14.186c-0.266-0.345-0.91-0.398-1.711-0.722c1.729-1.453,2.729-2.293,4.17-3.504
			c1.811,1.612,3.576,3.176,5.332,4.749c1.965,1.763,3.683,1.443,5.58-0.293c1.298-1.186,2.91-2.138,4.543-2.792
			c0.662-0.265,2.153,0.299,2.532,0.927c0.352,0.584-0.087,1.859-0.513,2.649c-0.814,1.509-1.902,2.868-2.813,4.329
			c-2.743,4.395-2.356,7.206,1.329,10.957c0.762,0.775,1.738,1.781,1.781,2.718c0.066,1.447-0.587,2.926-0.936,4.392
			c-1.26-0.517-2.776-0.75-3.725-1.611C548.252,208.715,546.717,206.683,544.947,204.676z"/>
		<path fill-rule="evenodd" clip-rule="evenodd" d="M625.62,281.278c-1.538-1.06-3.372-1.746-4.284-3.068
			c-2.02-2.928-4.272-3.081-6.667-0.483c-1.172,1.271-3.089,2.292-4.795,2.533c-2.604,0.369-2.879-1.549-1.872-3.4
			c1.01-1.855,2.394-3.506,3.617-5.244c3.134-4.453,3.081-5.22-0.731-9.466c-0.476-0.53-1.478-0.993-1.472-1.478
			c0.022-1.805-3.496-3.118-0.873-5.122c1.431-1.094,5.703,0.934,6.651,2.904c1.242,2.581,3.529,2.306,6.078,0.071
			c1.599-1.401,3.986-1.978,6.104-2.659c0.501-0.161,1.73,0.611,1.927,1.191c0.217,0.637-0.168,1.724-0.659,2.3
			c-1.005,1.178-2.396,2.03-3.381,3.221c-3.432,4.154-2.392,10.365,2.09,13.814c0.873,0.672,1.375,1.825,2.048,2.757
			C628.299,279.77,627.196,280.392,625.62,281.278z"/>
		<path fill-rule="evenodd" clip-rule="evenodd" d="M244.057,396.823c1.639,3.339,0.574,6.299-4.164,7.603
			c-4.557,1.255-4.471-3.297-5.646-6.661c-1.289,1.074-2.222,1.937-3.241,2.681c-1.483,1.083-2.926,2.353-4.597,2.986
			c-0.683,0.259-1.917-0.936-2.901-1.47c0.713-1.134,1.425-3.242,2.137-3.242c4.518,0.005,5.755-4.27,6.365-6.588
			c0.597-2.272-2.26-5.48-3.683-8.235c-0.438-0.849-1.146-1.558-1.729-2.33c0.821-0.592,1.583-1.562,2.475-1.702
			c2.692-0.425,5.901-1.684,6.687,2.829c0.044,0.258,2.273,0.573,3.135,0.15c1.362-0.67,2.283-2.348,3.661-2.84
			c1.238-0.442,3.431-0.389,4.135,0.399c0.909,1.019,1.247,3.121,0.866,4.489c-0.207,0.747-2.455,0.833-3.694,1.408
			c-1.665,0.772-4.431,1.523-4.625,2.646c-0.46,2.664,0.317,5.54,0.594,8.331C241.194,397.131,242.558,396.984,244.057,396.823z"/>
		<path fill-rule="evenodd" clip-rule="evenodd" d="M461.453,252.588c2.152-3.144,4.304-6.287,6.588-9.624
			c-0.195-0.261-0.526-0.594-0.724-0.991c-0.494-1.001-0.926-2.03-1.383-3.049c1.196-0.421,2.438-1.254,3.574-1.131
			c0.872,0.095,2.418,1.615,2.279,2.125c-0.858,3.151-1.482,6.66-3.354,9.182c-4.57,6.157-9.616,11.991-14.837,17.616
			c-1.425,1.537-2.843,4.658-7.049,2.869c1.209-1.468,2.282-2.551,3.093-3.804c1.546-2.392,3.854-4.759,4.198-7.354
			c0.616-4.642,0.074-9.448-0.137-14.18c-0.036-0.819-0.81-1.613-1.27-2.402c-0.73-1.258-1.829-2.446-2.044-3.781
			c-0.077-0.479,2.131-2.011,2.993-1.804c1.597,0.385,3.82,1.396,4.271,2.679c1.17,3.315,1.527,6.919,2.186,10.412
			c0.202,1.076,0.327,2.167,0.488,3.251C460.703,252.597,461.078,252.593,461.453,252.588z"/>
		<path fill-rule="evenodd" clip-rule="evenodd" d="M593.808,263.971c-1.898,0.741-3.528,1.88-5.196,1.936
			c-5.86,0.197-11.736,0.073-17.604-0.046c-1.642-0.033-4.172,0.131-3.57-2.425c0.311-1.321,2.446-3.113,3.778-3.131
			c4.812-0.063,9.637,0.849,14.447,0.772C588.533,261.031,591.176,260.615,593.808,263.971z"/>
		<path fill-rule="evenodd" clip-rule="evenodd" d="M592.56,271.962c-1.511,0.837-2.999,2.34-4.538,2.393
			c-5.83,0.2-11.682,0.02-17.516-0.239c-1.098-0.048-2.152-1.103-3.226-1.694c0.724-0.946,1.278-2.154,2.22-2.766
			c0.955-0.62,2.304-0.939,3.459-0.891c5.544,0.235,11.082,0.611,16.617,1.016c0.8,0.059,1.57,0.542,2.354,0.829
			C592.141,271.061,592.35,271.511,592.56,271.962z"/>
		<path fill-rule="evenodd" clip-rule="evenodd" d="M569.748,202.162c2.558-0.485,5.111-1.347,7.674-1.375
			c4.953-0.054,9.92,0.253,14.859,0.666c1.087,0.091,2.085,1.246,3.125,1.912c-1.282,0.781-2.565,2.232-3.846,2.229
			c-5.204-0.012-10.409-0.426-15.608-0.784c-2.032-0.14-4.048-0.521-6.071-0.791C569.836,203.401,569.792,202.782,569.748,202.162z"
			/>
		<path fill-rule="evenodd" clip-rule="evenodd" d="M595.258,196.583c-3.431,0-6.861,0.016-10.292-0.004
			c-3.981-0.023-7.971,0.045-11.938-0.214c-0.915-0.06-1.753-1.292-2.627-1.985c0.839-0.606,1.666-1.718,2.519-1.737
			c5.954-0.141,11.924-0.241,17.865,0.077c1.682,0.09,3.287,1.614,4.927,2.48C595.561,195.66,595.409,196.122,595.258,196.583z"/>
		<path fill-rule="evenodd" clip-rule="evenodd" d="M376.213,364.433c-2.26,1.681-3.455,3.226-4.706,3.271
			c-0.845,0.03-2.214-1.959-2.479-3.227c-0.152-0.726,1.465-2.592,2.236-2.564C372.549,361.958,373.794,363.113,376.213,364.433z"/>
		<path fill-rule="evenodd" clip-rule="evenodd" d="M428.446,316.556c-1.647,1.456-2.576,2.858-3.747,3.103
			c-0.746,0.155-1.85-1.406-2.792-2.197c1.108-1.262,2.219-2.523,3.328-3.784C426.098,314.449,426.959,315.223,428.446,316.556z"/>
		<path fill-rule="evenodd" clip-rule="evenodd" d="M372.361,331.938c0.579,1.783,1.159,3.566,1.738,5.35
			c-1.593,0.069-3.186,0.138-4.777,0.206c0.196-1.769,0.394-3.537,0.591-5.307C370.729,332.104,371.545,332.021,372.361,331.938z"/>
		<path fill-rule="evenodd" clip-rule="evenodd" d="M371.973,324.104c1.274,1.836,2.625,3.03,2.399,3.619
			c-0.399,1.04-1.69,2.213-2.742,2.358c-0.696,0.096-2.188-1.443-2.284-2.36C369.258,326.891,370.581,325.914,371.973,324.104z"/>
		<path fill-rule="evenodd" clip-rule="evenodd" d="M144.581,38.826c1.987,0,3.278,0,5.364,0c-0.64,1.683-0.927,3.055-1.674,4.097
			c-0.308,0.429-2.173,0.461-2.354,0.134C145.281,41.903,145.067,40.517,144.581,38.826z"/>
		<path fill-rule="evenodd" clip-rule="evenodd" d="M402.464,319.771c-0.665-1.621-1.331-3.241-1.996-4.86
			c1.216-0.354,2.433-0.708,3.648-1.062c0.132,1.805,0.265,3.61,0.397,5.415C403.831,319.433,403.147,319.601,402.464,319.771z"/>
		<path fill-rule="evenodd" clip-rule="evenodd" d="M385.386,316.236c1.408-1.063,2.311-1.743,3.213-2.425
			c0.578,0.888,1.74,1.89,1.595,2.636c-0.206,1.057-1.378,1.924-2.137,2.872C387.348,318.501,386.639,317.683,385.386,316.236z"/>
		<path fill-rule="evenodd" clip-rule="evenodd" d="M59.532,315.175c-1.132-1.563-2.388-2.72-2.18-3.125
			c0.49-0.956,1.597-1.905,2.62-2.143c0.487-0.112,1.829,1.366,1.901,2.201C61.935,312.832,60.752,313.663,59.532,315.175z"/>
		<path fill-rule="evenodd" clip-rule="evenodd" d="M198.549,44.793c-1.032-1.656-2.104-2.632-1.933-3.276
			c0.27-1.013,1.378-1.803,2.131-2.687c0.885,0.891,2.175,1.659,2.493,2.72C201.414,42.125,199.932,43.198,198.549,44.793z"/>
		<path fill-rule="evenodd" clip-rule="evenodd" d="M113.154,339.71c-0.204-1.59-0.408-3.181-0.611-4.771
			c1.353-0.063,2.707-0.125,4.06-0.187c-0.477,1.701-0.953,3.402-1.43,5.104C114.5,339.808,113.828,339.76,113.154,339.71z"/>
		<path fill-rule="evenodd" clip-rule="evenodd" d="M374.238,352.276c-1.929-0.838-3.423-1.486-4.918-2.135
			c0.602-0.895,1.097-2.445,1.824-2.563C373.42,347.212,374.924,348.202,374.238,352.276z"/>
		<path fill-rule="evenodd" clip-rule="evenodd" d="M53.679,308.906c0,1.537,0.196,3.12-0.156,4.572
			c-0.075,0.312-2.131,0.144-3.274,0.196c0.366-1.65,0.732-3.301,1.098-4.951C52.124,308.784,52.901,308.846,53.679,308.906z"/>
		<path fill-rule="evenodd" clip-rule="evenodd" d="M171.124,43.506c-2.407-0.037-4.575,0.61-4.313-2.531
			c0.257-3.083,2.364-2.024,4.313-2.134C171.124,40.487,171.124,41.894,171.124,43.506z"/>
		<path fill-rule="evenodd" clip-rule="evenodd" d="M410.689,164.584c-0.243,1.526-0.486,3.054-0.729,4.58
			c-1.224-0.327-2.447-0.655-3.671-0.983c0.712-1.407,1.423-2.813,2.134-4.22C409.179,164.169,409.935,164.377,410.689,164.584z"/>
		<path fill-rule="evenodd" clip-rule="evenodd" d="M398.537,316.216c-1.5,1.585-2.399,2.534-4.214,4.451
			c-0.36-2.422-0.709-3.884-0.725-5.351c-0.006-0.509,1.066-1.534,1.208-1.462C396.021,314.471,397.132,315.286,398.537,316.216z"/>
		<path fill-rule="evenodd" clip-rule="evenodd" d="M412.466,314.194c-0.601,1.875-1.153,3.604-1.707,5.33
			c-0.857-0.697-2.271-1.268-2.465-2.116C407.762,315.069,408.699,313.554,412.466,314.194z"/>
		<path fill-rule="evenodd" clip-rule="evenodd" d="M375.583,342.878c-2.065,0.868-3.202,1.713-4.325,1.694
			c-0.793-0.012-1.566-1.195-2.348-1.856c0.901-0.869,1.762-2.369,2.718-2.434C372.609,340.217,373.686,341.554,375.583,342.878z"/>
		<path fill-rule="evenodd" clip-rule="evenodd" d="M118.449,321.386c-1.805,1.205-2.715,2.292-3.579,2.256
			c-0.919-0.039-1.792-1.142-2.686-1.78c0.888-0.694,1.692-1.722,2.69-1.971C115.604,319.71,116.588,320.557,118.449,321.386z"/>
		<path fill-rule="evenodd" clip-rule="evenodd" d="M445.726,42.966c-1.038,2.518-1.579,3.83-2.119,5.142
			c-0.361,0.083-0.722,0.167-1.083,0.251c-0.651-1.363-1.303-2.727-1.954-4.09C441.993,43.91,443.417,43.55,445.726,42.966z"/>
		<path fill-rule="evenodd" clip-rule="evenodd" d="M394.077,163.939c0.747,1.209,1.495,2.418,2.243,3.626
			c-1.18,0.338-2.359,0.676-3.539,1.014c-0.226-1.285-0.451-2.571-0.677-3.855C392.762,164.463,393.42,164.201,394.077,163.939z"/>
		<path fill-rule="evenodd" clip-rule="evenodd" d="M423.6,169.972c-1.142-1.282-2.355-2.103-2.239-2.632
			c0.212-0.971,1.347-2.565,1.851-2.478c1.103,0.19,2.052,1.271,3.063,1.988C425.529,167.719,424.783,168.59,423.6,169.972z"/>
		<path fill-rule="evenodd" clip-rule="evenodd" d="M401.364,163.491c1.334,1.552,2.134,2.483,2.936,3.416
			c-0.886,0.636-1.722,1.655-2.675,1.778c-0.664,0.086-2.104-1.059-2.101-1.645C399.533,166.089,400.441,165.146,401.364,163.491z"
			/>
		<path fill-rule="evenodd" clip-rule="evenodd" d="M140.247,37.576c0.682,1.507,1.5,2.451,1.338,3.175
			c-0.211,0.946-1.198,1.718-1.853,2.565c-0.696-0.998-1.718-1.926-1.954-3.022C137.663,39.75,138.994,38.897,140.247,37.576z"/>
		<path fill-rule="evenodd" clip-rule="evenodd" d="M115.32,38.727c1.35,0.096,2.7,0.191,4.05,0.287
			c-0.089,1.031,0.065,2.181-0.361,3.045c-0.238,0.482-1.806,0.916-2.135,0.632c-0.927-0.802-1.523-1.986-2.251-3.02
			C114.855,39.357,115.087,39.042,115.32,38.727z"/>
		<path fill-rule="evenodd" clip-rule="evenodd" d="M152.733,43.195c0.175-1.439,0.35-2.877,0.525-4.316
			c1.066,0.391,2.133,0.781,3.199,1.172c-0.641,1.24-1.282,2.48-1.923,3.72C153.934,43.579,153.334,43.387,152.733,43.195z"/>
		<path fill-rule="evenodd" clip-rule="evenodd" d="M106.163,314.148c-1.534-0.207-3.068-0.413-4.601-0.618
			c0.356-0.938,0.69-2.661,1.075-2.672c1.333-0.04,2.685,0.516,4.029,0.846C106.499,312.519,106.331,313.333,106.163,314.148z"/>
		<path fill-rule="evenodd" clip-rule="evenodd" d="M209.153,41.616c-1.219,0.899-2.034,1.967-2.768,1.915
			c-0.791-0.056-2.239-1.393-2.12-1.768c0.358-1.134,1.335-2.074,2.072-3.089C207.124,39.496,207.91,40.316,209.153,41.616z"/>
		<path fill-rule="evenodd" clip-rule="evenodd" d="M115.37,355.365c0,2.336,0,3.783,0,6.001c-2.085-1.254-3.16-1.9-4.875-2.932
			C112.076,357.438,113.196,356.732,115.37,355.365z"/>
		<path fill-rule="evenodd" clip-rule="evenodd" d="M374.707,358.407c-1.018,0.475-2.03,1.292-3.053,1.305
			c-0.682,0.007-2.009-1.24-1.925-1.736c0.144-0.851,1.128-2.137,1.826-2.181c1.011-0.064,2.081,0.815,3.125,1.292
			C374.689,357.527,374.698,357.967,374.707,358.407z"/>
		<path fill-rule="evenodd" clip-rule="evenodd" d="M284.721,41.266c1.787,0,3.573,0,5.36,0c0.131,0.337,0.263,0.674,0.395,1.012
			c-1.177,0.813-2.285,2.071-3.557,2.269c-0.743,0.116-1.75-1.466-2.637-2.284C284.429,41.931,284.575,41.598,284.721,41.266z"/>
		<path fill-rule="evenodd" clip-rule="evenodd" d="M434.083,320.677c-1.954-1.115-3.771-1.817-3.705-2.172
			c0.304-1.637,1.13-3.177,1.77-4.752c0.457,0.073,0.914,0.146,1.371,0.221C433.67,315.766,433.82,317.558,434.083,320.677z"/>
		<path fill-rule="evenodd" clip-rule="evenodd" d="M438.401,44.977c-1.248,0.741-2.495,1.48-3.742,2.22
			c-0.405-1.034-0.81-2.068-1.214-3.102c1.374-0.387,2.747-0.773,4.121-1.16C437.845,43.616,438.123,44.296,438.401,44.977z"/>
		<path fill-rule="evenodd" clip-rule="evenodd" d="M124.885,36.984c0.989,1.963,1.921,2.958,1.797,3.797
			c-0.136,0.906-1.259,1.665-1.95,2.488c-0.574-0.93-1.475-1.814-1.612-2.805C123.016,39.72,123.892,38.838,124.885,36.984z"/>
		<path fill-rule="evenodd" clip-rule="evenodd" d="M194.435,41.875c-1.418,0.809-2.396,1.798-3.004,1.608
			c-0.854-0.267-2.053-1.485-1.974-2.163c0.106-0.908,1.295-1.689,2.019-2.525C192.299,39.653,193.124,40.511,194.435,41.875z"/>
		<path fill-rule="evenodd" clip-rule="evenodd" d="M179.651,41.105c-1.664,1.099-2.531,1.672-3.399,2.245
			c-0.5-0.828-1.41-1.671-1.379-2.479c0.03-0.76,1.142-2.14,1.62-2.075C177.359,38.913,178.109,39.9,179.651,41.105z"/>
		<path fill-rule="evenodd" clip-rule="evenodd" d="M181.465,41.832c0.738-1.054,1.477-2.108,2.566-3.664
			c1.069,1.379,1.899,2.45,3.485,4.497c-2.535,0.194-4.146,0.318-5.755,0.442C181.662,42.682,181.563,42.257,181.465,41.832z"/>
		<path fill-rule="evenodd" clip-rule="evenodd" d="M65.366,42.312c-1.019-1.141-1.646-1.842-2.272-2.545
			c1.005-0.688,1.943-1.683,3.046-1.925c0.494-0.108,1.318,1.296,1.993,2.014C67.342,40.558,66.552,41.259,65.366,42.312z"/>
		<path fill-rule="evenodd" clip-rule="evenodd" d="M334.019,45.037c-1.326-0.367-2.653-0.734-3.98-1.101
			c0.361-0.955,0.722-1.91,1.082-2.864c1.25,0.675,2.499,1.35,3.748,2.024C334.585,43.743,334.302,44.39,334.019,45.037z"/>
		<path fill-rule="evenodd" clip-rule="evenodd" d="M427.351,167.439c2.355-1.388,4.034-3.812,6.194-0.165
			c-0.619,0.695-1.308,1.465-2.123,2.38C430.217,168.999,429.078,168.379,427.351,167.439z"/>
		<path fill-rule="evenodd" clip-rule="evenodd" d="M113.714,368.462c-0.598-1.118-1.641-2.244-1.623-3.353
			c0.01-0.655,1.703-1.281,2.64-1.921c0.319,1.495,0.639,2.99,0.958,4.485C115.03,367.937,114.373,368.199,113.714,368.462z"/>
		<path fill-rule="evenodd" clip-rule="evenodd" d="M117.077,329.416c-0.862,0.82-1.72,1.638-3.514,3.347c0-2.954,0-4.857,0-7.447
			C115.118,327.131,116.02,328.182,117.077,329.416z"/>
		<path fill-rule="evenodd" clip-rule="evenodd" d="M300.262,44.708c-0.743-4.385,1.417-4.126,4.157-3.247
			C305.121,45.127,302.814,44.833,300.262,44.708z"/>
		<path fill-rule="evenodd" clip-rule="evenodd" d="M161.801,44.721c-0.959-2.037-1.773-3-1.735-3.928
			c0.031-0.755,1.084-1.467,1.683-2.197c0.628,0.849,1.607,1.635,1.771,2.565C163.649,41.897,162.779,42.81,161.801,44.721z"/>
		<path fill-rule="evenodd" clip-rule="evenodd" d="M48.424,38.841c1.337-0.337,2.666-0.752,4.022-0.895
			c0.139-0.015,0.449,1.606,0.68,2.469c-1.413,0.211-2.825,0.422-4.238,0.633C48.733,40.313,48.579,39.577,48.424,38.841z"/>
		<path fill-rule="evenodd" clip-rule="evenodd" d="M85.166,38.913c1.434,0,2.868,0,4.301,0c-0.109,1.234-0.219,2.469-0.426,4.792
			c-1.986-1.702-3.141-2.692-4.296-3.682C84.886,39.653,85.026,39.283,85.166,38.913z"/>
		<path fill-rule="evenodd" clip-rule="evenodd" d="M80.493,37.25c1.053,0.821,1.975,1.541,3.162,2.467
			c-1.138,1.023-2.011,1.809-2.988,2.688c-0.932-0.773-1.843-1.528-3.05-2.529C78.624,38.957,79.485,38.169,80.493,37.25z"/>
		<path fill-rule="evenodd" clip-rule="evenodd" d="M99.969,39.008c2.053,0,3.54,0,6.061,0c-1.648,1.93-2.541,2.974-3.67,4.295
			C101.621,41.978,101.011,40.881,99.969,39.008z"/>
		<path fill-rule="evenodd" clip-rule="evenodd" d="M71.427,42.046c0.335-1.357,0.568-2.758,1.114-4.025
			c0.083-0.191,1.621,0.245,2.486,0.39c-0.435,1.429-0.87,2.858-1.304,4.288C72.958,42.481,72.192,42.264,71.427,42.046z"/>
		<path fill-rule="evenodd" clip-rule="evenodd" d="M89.246,315.172c-1.14-1.282-2.329-2.065-2.241-2.655
			c0.125-0.831,1.111-1.972,1.894-2.12c0.583-0.112,1.827,1.031,2.027,1.809C91.086,312.823,90.112,313.735,89.246,315.172z"/>
		<path fill-rule="evenodd" clip-rule="evenodd" d="M93.952,312.392c0.7-0.797,1.4-1.594,2.638-3.002
			c0.924,1.529,1.637,2.707,2.348,3.885c-1.542,0.221-3.085,0.44-4.628,0.66C94.19,313.421,94.071,312.905,93.952,312.392z"/>
		<path fill-rule="evenodd" clip-rule="evenodd" d="M356.552,41.735c-0.486,0.972-0.745,2.269-1.528,2.817
			c-0.683,0.478-1.988,0.239-2.942,0.009c-0.189-0.046-0.362-1.935,0.017-2.214c1.005-0.741,2.315-1.064,3.504-1.555
			C355.918,41.106,356.234,41.421,356.552,41.735z"/>
		<path fill-rule="evenodd" clip-rule="evenodd" d="M84.691,312.463c-1.211,0.848-2.021,1.826-2.556,1.694
			c-0.852-0.211-1.52-1.163-2.265-1.801c0.697-0.755,1.298-1.931,2.125-2.119C82.556,310.109,83.432,311.369,84.691,312.463z"/>
		<path fill-rule="evenodd" clip-rule="evenodd" d="M387.312,44.006c1.883-0.917,2.952-1.438,4.749-2.314c0,1.705,0,3.026,0,4.963
			C390.191,45.613,389.088,44.998,387.312,44.006z"/>
		<path fill-rule="evenodd" clip-rule="evenodd" d="M388.338,165.181c-0.509,1.154-0.871,2.424-1.636,3.373
			c-0.175,0.217-1.729-0.677-2.647-1.06c0.867-1.113,1.735-2.227,2.604-3.34C387.218,164.496,387.777,164.838,388.338,165.181z"/>
		<path fill-rule="evenodd" clip-rule="evenodd" d="M66.924,315.169c-0.843-1.724-1.687-2.674-1.621-3.557
			c0.053-0.719,1.195-1.356,1.854-2.031c0.689,0.86,1.726,1.645,1.938,2.609C69.224,312.78,68.086,313.648,66.924,315.169z"/>
		<path fill-rule="evenodd" clip-rule="evenodd" d="M71.321,311.953c1.095-0.666,2.189-1.331,3.446-2.095
			c0.739,0.926,1.476,1.849,2.865,3.587c-2.401,0-3.968,0-5.536,0C71.838,312.948,71.58,312.45,71.321,311.953z"/>
		<path fill-rule="evenodd" clip-rule="evenodd" d="M425.928,43.28c1.446-0.083,2.495-0.144,4.855-0.28
			c-1.369,2.024-2.164,3.199-2.959,4.374c-0.376-0.137-0.752-0.274-1.129-0.411C426.465,45.853,426.233,44.743,425.928,43.28z"/>
		<path fill-rule="evenodd" clip-rule="evenodd" d="M112.258,39.947c-1.078,1.186-1.765,1.942-2.452,2.699
			c-0.637-0.893-1.502-1.721-1.785-2.714c-0.098-0.34,1.219-1.456,1.97-1.547C110.591,38.312,111.316,39.255,112.258,39.947z"/>
		<path fill-rule="evenodd" clip-rule="evenodd" d="M336.258,43.309c1.161-0.899,2.321-1.798,3.481-2.696
			c0.319,0.19,0.639,0.38,0.958,0.571c0,1.123,0.277,3.112-0.049,3.216c-1.211,0.387-2.62,0.154-3.955,0.154
			C336.549,44.139,336.403,43.724,336.258,43.309z"/>
		<path fill-rule="evenodd" clip-rule="evenodd" d="M382.009,46.667c0.126-2.321,0.208-3.82,0.34-6.248
			c1.86,1.614,2.821,2.447,3.964,3.438C385.089,44.657,384.03,45.348,382.009,46.667z"/>
		<path fill-rule="evenodd" clip-rule="evenodd" d="M98.312,41.428c-1.13,0.479-2.268,1.32-3.385,1.294
			c-0.635-0.015-1.556-1.384-1.737-2.269c-0.115-0.559,0.843-1.857,1.415-1.916c0.835-0.087,1.755,0.64,2.639,1.02
			C97.599,40.181,97.955,40.805,98.312,41.428z"/>
		<path fill-rule="evenodd" clip-rule="evenodd" d="M417.035,169.415c-0.982-0.829-1.966-1.658-2.948-2.487
			c0.715-0.662,1.431-1.324,2.146-1.986c0.781,1.024,1.563,2.047,2.345,3.071C418.064,168.48,417.55,168.948,417.035,169.415z"/>
		<path fill-rule="evenodd" clip-rule="evenodd" d="M295.237,45.121c-0.766-0.921-1.532-1.843-2.297-2.765
			c0.801-0.59,1.602-1.18,2.402-1.77c0.52,1.127,1.038,2.254,1.557,3.381C296.345,44.352,295.791,44.736,295.237,45.121z"/>
		<path fill-rule="evenodd" clip-rule="evenodd" d="M312.792,42.864c-1.552,0.966-2.351,1.781-3.22,1.865
			c-0.411,0.04-1.352-1.334-1.328-2.044c0.022-0.677,1.059-1.912,1.519-1.854C310.595,40.936,311.332,41.817,312.792,42.864z"/>
		<path fill-rule="evenodd" clip-rule="evenodd" d="M59.546,42.84c-4.082-2.251-3.708-3.764-0.404-6.215
			C59.296,39,59.394,40.501,59.546,42.84z"/>
		<path fill-rule="evenodd" clip-rule="evenodd" fill="#FFFFFF" d="M369.854,311.454c-7.473,0-14.455,0.036-21.437-0.007
			c-21.371-0.129-42.743-0.163-64.11-0.468c-26.608-0.381-53.213-0.967-79.819-1.516c-26.5-0.545-52.999-1.152-79.499-1.737
			c-1.249-0.027-2.508-0.016-3.745-0.163c-2.536-0.301-4.163-2.599-2.958-4.772c1.203-2.169,0.544-3.729,0.039-5.866
			c-0.705-2.982-0.187-6.274-0.059-9.43c0.243-5.954,0.793-11.902,0.846-17.857c0.292-32.48,0.533-64.96,0.615-97.441
			c0.011-4.274,2.431-4.191,5.332-4.164c18.87,0.176,37.74,0.356,56.61,0.5c23.738,0.18,47.476,0.266,71.212,0.531
			c5.777,0.064,11.59,1.292,17.311,0.899c10.897-0.75,21.684,0.797,32.543,0.722c21.604-0.15,43.211,0.234,64.818,0.309
			c3.223,0.012,4.54,0.807,4.442,4.491c-0.296,11.237-0.035,22.488-0.153,33.732c-0.018,1.736-1.715,3.792-1.186,5.125
			c1.063,2.668-0.082,4.961-0.062,7.406c0.164,20.06-0.725,40.107-0.595,60.166c0.054,8.494,0.064,16.989,0.072,25.483
			C370.075,308.624,369.944,309.852,369.854,311.454z"/>
		<path fill-rule="evenodd" clip-rule="evenodd" fill="#FFFFFF" d="M371.266,161.916c-1.053,1.683-2.732,3.072-6.034,2.467
			c-2.483-0.455-5.356,1.61-7.611-1.12c-0.206-0.25-0.773-0.504-0.991-0.395c-2.555,1.287-5.218,0.143-7.612,0.397
			c-2.298,0.244-4.256,0.929-6.533-0.177c-0.637-0.309-1.782,0.624-2.706,0.659c-1.259,0.048-2.535-0.178-3.791-0.37
			c-0.44-0.067-0.901-0.63-1.253-0.547c-5.007,1.187-9.974-0.669-14.959-0.146c-3.739,0.392-7.48,1.265-11.205,1.18
			c-5.762-0.13-11.505-1.234-17.266-1.328c-17.813-0.291-35.631-0.307-53.447-0.417c-22.471-0.138-44.945-0.116-67.414-0.444
			c-15.561-0.228-31.114-0.978-46.673-1.379c-2.719-0.069-3.124-1.077-3.146-3.654c-0.091-10.285,4.658-19.393,6.915-29.088
			c1.202-5.165,5.226-9.604,7.186-14.677c2.926-7.568,7.928-13.701,13.033-19.637c5.035-5.856,11.016-10.907,16.67-16.217
			c1.788-1.679,3.876-3.034,5.796-4.577c7.237-5.815,14.767-10.977,23.811-13.834c5.725-1.808,11.028-4.916,16.688-6.977
			c3.217-1.171,6.751-1.581,10.182-2.021c5.017-0.644,10.062-1.113,15.109-1.461c6.035-0.417,12.137-1.27,18.113-0.772
			c8.223,0.684,16.458,2.024,24.492,3.918c5.175,1.22,9.989,3.957,14.979,5.979c4.856,1.968,9.728,3.896,14.597,5.832
			c0.46,0.183,1.107,0.146,1.399,0.46c7.03,7.577,16.71,11.92,23.749,19.467c4.588,4.921,9.73,9.486,13.471,14.994
			c4.164,6.131,8.34,12.292,11.587,19.169c2.602,5.514,4.843,11.132,6.758,16.815c2.156,6.394,3.211,13.162,4.677,19.782
			C370.355,156.151,370.679,158.549,371.266,161.916z"/>
	</g>
</g>
</svg>
