<?xml version="1.0" encoding="utf-8"?>
<!-- Generator: Adobe Illustrator 16.0.0, SVG Export Plug-In . SVG Version: 6.00 Build 0)  -->
<!DOCTYPE svg PUBLIC "-//W3C//DTD SVG 1.1//EN" "http://www.w3.org/Graphics/SVG/1.1/DTD/svg11.dtd">
<svg version="1.1" id="Layer_1" xmlns="http://www.w3.org/2000/svg" xmlns:xlink="http://www.w3.org/1999/xlink" x="0px" y="0px"
	 width="576.83px" height="446.313px" viewBox="0 0 576.83 446.313" enable-background="new 0 0 576.83 446.313"
	 xml:space="preserve">
<g>
	<g>
		<path fill-rule="evenodd" clip-rule="evenodd" fill="#FFFFFF" d="M0.75,0.75c192.277,0,384.554,0,576.83,0
			c0,148.771,0,297.542,0,446.313c-192.276,0-384.553,0-576.83,0C0.75,298.292,0.75,149.521,0.75,0.75z M528.393,168.681
			c1.953,3.58,4.313-1.229,6.007,0.43c0.6-2.411,1.145-4.605,1.688-6.799c-0.205-0.267-0.41-0.534-0.615-0.801
			c-0.915,0.717-2.079,1.271-2.677,2.193c-0.68,1.048-0.852,2.425-1.244,3.66c-1.136-0.555-2.273-1.11-3.92-1.914
			c0.258,1.224,0.444,2.109,0.63,2.993c-2.011,0.026-4.025,0.137-6.03,0.039c-0.887-0.044-1.753-0.513-2.628-0.788
			c0.576-0.86,0.998-1.913,1.768-2.532c1.019-0.82,2.464-1.123,3.44-1.974c1.015-0.885,1.501-2.82,2.554-3.12
			c1.925-0.546,2.271-5.164,5.607-2.247c0.193,0.169,2.782-1.437,2.788-2.228c0.012-1.481-1.054-2.971-1.752-4.653
			c3.419-3.089,3.027-9.552-0.7-13.92c0.455-2.627,1.027-4.626,1.07-6.638c0.03-1.423-0.526-2.913-1.062-4.278
			c-0.51-1.298-1.333-2.473-2.02-3.702c-0.733,0.826-1.92,1.555-2.122,2.497c-0.756,3.506-1.216,7.078-1.729,10.632
			c-0.16,1.103-0.144,2.23-0.224,3.639c-1.812-0.886-2.751-1.346-3.689-1.806c-1.85-2.061-3.697-4.123-5.594-6.237
			c-0.988,1.809-1.775,3.248-2.562,4.687c-1.896-1.357-3.792-2.715-5.626-4.028c-0.753,0.577-1.514,1.503-2.467,1.788
			c-0.839,0.25-2.108,0.053-2.768-0.473c-0.363-0.29-0.157-1.88,0.303-2.511c1.685-2.307,3.566-4.472,5.41-6.66
			c0.501-0.595,1.039-1.346,1.714-1.576c3.088-1.049,6.23-1.937,8.765-2.704c-1.169-2.801-2.028-4.86-2.889-6.919
			c1.379-0.292,2.758-0.584,4.133-0.877c0.53-0.029,1.061-0.058,1.591-0.086c0.808,1.958,1.616,3.916,2.664,6.458
			c0.795-1.559,1.295-2.541,1.291-2.532c2.521,0.761,4.857,2.279,6.678,1.808c2.231-0.579,2.638-3.053,1.621-5.537
			c-0.752-1.839-0.938-3.917-1.297-5.903c-0.091-0.501-0.037-1.152,0.218-1.574c2.606-4.328,2.467-7.093-0.836-11.038
			c0.821-0.132,1.472-0.237,1.654-0.267c-0.646-1.771-1.836-3.398-1.659-4.861c0.468-3.902,1.532-7.731,2.342-11.594
			c0.554-2.64-0.563-3.671-3.21-3.505c-2.258,0.141-4.531,0.028-7.4,0.028c0.891-1.589,1.403-2.505,1.898-3.386
			c1.281,0.434,2.354,0.797,3.426,1.16c0.086-0.176,0.172-0.353,0.258-0.529c-1.19-0.986-2.382-1.972-3.563-2.951
			c0.694-3.218,2.838-2.402,4.982-2.133c1.142,0.144,3.41-0.448,3.409-0.695c-0.024-3.49,0.722-7.604-0.861-10.317
			c-2.288-3.923-2.564-7.289,0.632-9.649c-0.563-3.207-1.401-6.124-1.46-9.057c-0.03-1.546,1.839-3.094,1.914-4.686
			c0.257-5.434,0.099-10.887,0.099-16.159c-1.854-0.566-3.034-0.927-4.101-1.253c0.879-1.42,1.554-2.509,2.229-3.6
			c-1.464-0.78-3.002-2.297-4.373-2.159c-1.867,0.188-3.724,1.469-5.367,2.597c-1.66,1.139-2.934,2.054-4.68,0.076
			c-2.035-2.308-3.243-1.708-4.887,0.981c-1.359,2.224,0.078,6.944-5.411,6.031c0.152,0.391,0.305,0.781,0.458,1.171
			c1.628,0,3.256,0,5.941,0c-1.576,1.213-2.268,1.745-2.735,2.104c0.63,0.82,1.22,1.591,1.81,2.361
			c-0.963,0.555-1.924,1.109-2.89,1.665c0.433,0.503,0.855,0.997,1.458,1.699c-4.017,1.182-4.471-1.916-5.447-3.583
			c-1.091,0.298-2.235,1.002-2.852,0.684c-0.821-0.426-1.231-1.646-1.819-2.524c0.202-0.175,0.404-0.35,0.607-0.524
			c0.794,0.281,1.588,0.563,2.382,0.844c0.142-0.248,0.283-0.496,0.424-0.744c-1.136-0.913-2.273-1.825-3.559-2.856
			c1.301-2.373,7.648-1.545,5.136-5.844c-2.96-1.24-5.252-1.945-7.283-3.107c-3.778-2.161-9.033-1.859-10.346,0.757
			c-1.617,3.224-2.925,6.754-5.202,9.443c-1.598,1.886-1.68,3.448-1.428,5.455c-0.24,1.236-0.48,2.472-0.721,3.709
			c-0.293,0.543-0.587,1.087-0.88,1.632c-1.164-0.917-3.109-1.684-3.318-2.782c-0.357-1.875-0.906-2.436-2.71-3.208
			c-2.465-1.057-5.31-2.665-4.548-6.607c-3.037,1.28-4.733-0.806-5.679-2.782c-1.368-2.86-3.004-2.858-5.316-1.623
			c1.297-2.239,0.51-3.621-1.75-4.312c-3.969-1.212-7.722-1.788-11.771,1.618c0.469,1.142,1.063,2.591,1.658,4.042
			c-1.883,0.699-3.767,1.398-5.775,2.144c0.398,2.908,0.898,5.837,1.164,8.789c0.15,1.661-0.17,2.837-2.457,3.328
			c-3.163,0.679-6.155,2.215-9.168,3.509c-2.453,1.053-4.796,2.366-7.247,3.424c-2.686,1.158-6.139,1.458-8.035,3.354
			c-5.635,5.637-13.971,5.846-19.997,11.092c-4.281,3.727-10.846,4.425-15.938,8.095c-4.007,2.888-9.391,3.951-13.868,6.916
			c-5.051,3.345-11.215,4.657-16.481,8.237c-5.856,3.982-12.927,6.181-19.475,9.144c-2.224,1.006-4.52,1.867-6.687,2.983
			c-4.004,2.063-7.879,4.381-11.915,6.379c-3.723,1.843-7.613,3.342-11.377,5.106c-5.604,2.627-11.153,5.37-16.743,8.03
			c-1.094,0.521-2.342,0.746-3.379,1.348c-6.483,3.761-12.767,7.904-19.429,11.308c-6.788,3.468-13.999,6.102-20.902,9.356
			c-3.649,1.721-6.951,4.165-10.567,5.967c-7.278,3.627-14.677,7.007-21.999,10.547c-5.723,2.767-11.423,5.583-17.098,8.447
			c-4.479,2.261-8.732,5.124-13.42,6.755c-2.602,0.905-7.534,0.901-8.506-0.59c-1.694-2.597,1.563-4.616,4.15-5.97
			c2.983-1.562,5.88-3.293,8.762-5.041c1.339-0.813,2.421-2.232,3.843-2.695c5.663-1.845,8.814-6.562,12.319-10.739
			c0.937-1.116,0.895-3.97,0.129-5.396c-1.329-2.475-3.187-5.079-5.51-6.527c-5.983-3.729-12.204-7.151-18.592-10.134
			c-6.038-2.818-12.438-4.852-18.628-7.357c-4.986-2.018-9.819-4.439-14.875-6.245c-1.981-0.707-4.797-2.705-6.517,0.896
			c2.403,1.382,4.568,3.022,7.003,3.948c5.237,1.989,10.723,3.339,15.906,5.445c8.103,3.293,16.579,5.745,24.068,10.496
			c2.324,1.474,5.054,2.306,7.386,3.769c1.449,0.909,2.58,2.385,3.708,3.729c1.233,1.469,3.316,3.18,3.176,4.603
			c-0.173,1.756-2.144,3.429-3.549,4.94c-1.211,1.303-2.76,2.285-4.075,3.5c-0.502,0.464-0.625,1.438-1.167,1.746
			c-6.103,3.458-12.53,6.423-18.316,10.338c-6.363,4.307-6.275,6.747-0.878,10.854c0.315,0.239,0.732,0.344,0.889,0.415
			c-2.665,1.619-5.152,3.259-7.756,4.683c-5.313,2.907-10.632,5.813-16.056,8.504c-6.733,3.34-13.735,6.17-20.313,9.781
			c-4.393,2.411-10.109,2.331-13.31,7.037c-0.397,0.585-1.531,0.66-2.314,0.991c-3.478,1.472-6.997,2.855-10.412,4.462
			c-2.367,1.115-4.542,2.632-6.886,3.807c-3.359,1.684-6.842,3.125-10.175,4.857c-1.592,0.827-2.822,2.426-4.454,3.084
			c-5.257,2.121-5.645,2.714-2.8,7.316c1.473,2.385,3.345,3.943,6.426,1.828c2.338-1.605,4.948-2.848,7.527-4.061
			c6.244-2.933,12.607-5.425,18.516-9.258c5.264-3.415,11.563-5.15,17.127-8.524c7.371-4.469,15.721-7.291,23.487-11.148
			c8.552-4.248,16.906-8.891,25.372-13.313c3.23-1.687,6.495-3.318,9.81-4.831c3.191-1.457,6.394-3.653,9.718-3.914
			c11.555-0.908,23.164-1.129,34.753-1.58c2.046-0.08,4.098-0.011,7.198-0.011c-2.555,3.596-4.481,6.309-6.839,9.627
			c1.746-0.176,3.248,0.013,4.443-0.506c5.409-2.354,10.629-5.171,16.121-7.295c3.43-1.327,7.22-1.719,11.188-2.607
			c0,3.505-0.06,6.079,0.016,8.649c0.077,2.607,0.247,5.214,0.457,7.814c0.079,0.98,0.066,2.245,0.646,2.859
			c1.987,2.101,1.253,3.978,0.06,6.038c-0.393,0.677-0.392,1.582-0.573,2.389c0.591,0.235,0.956,0.33,1.268,0.515
			c0.946,0.562,1.872,1.159,2.805,1.743c-0.82,0.762-1.749,1.438-2.427,2.311c-0.68,0.874-1.412,1.894-1.578,2.938
			c-0.292,1.833,0.136,3.804-0.287,5.586c-0.805,3.383-1.012,6.224,4.187,6.888c-4.951,1.28-5.446,2.251-4.036,6.398
			c0.159,0.467,0.358,0.927,0.452,1.407c0.463,2.385-1.865,5.651-3.944,5.624c-3.861-0.05-7.722-0.083-11.583-0.086
			c-17.099-0.011-34.198-0.01-51.296-0.011c-13.876-0.001-27.753,0.051-41.629-0.019c-5.584-0.028-11.168-0.509-16.748-0.452
			c-8.754,0.092-17.504,0.622-26.258,0.682c-11.615,0.082-23.231-0.098-34.847-0.189c-5.609-0.043-11.216-0.181-16.825-0.204
			c-13.352-0.055-26.704-0.064-40.056-0.099c-2.818-0.007-4.151,1.291-3.837,4.178c0.105,0.973,0.015,1.965,0.072,2.945
			c0.207,3.596,0.398,7.193,0.679,10.783c0.115,1.465,0.601,2.908,0.644,4.369c0.074,2.523-0.08,4.792,3.746,4.26
			c1.829-0.255,4.337,0.008,5.606,1.108c1.916,1.662,2.428,1.085,4.141-0.24c1.724-1.333,4.399-1.437,7.111-2.207
			c-0.68,1.479-1.051,2.287-1.422,3.094c2.767,2.061,4.828,1.835,6.311-2.138c0.508,1.854,0.779,2.844,1.053,3.844
			c5.029-0.377,10.061-1.669,12.234,1.061c1.926-0.926,4.23-1.318,5.243-2.675c1.945-2.604,4.254-1.687,5.067-0.158
			c1.419,2.666,3.09,2.301,5.382,1.913c-0.094-0.641-0.253-1.119-0.207-1.577c0.054-0.548,0.284-1.077,0.471-1.728
			c3.263,2.779,3.25,2.765,6.768,0.045c2.211-1.71,3.939-0.986,5.582,1.02c2.282,2.785,7.251,2.82,9.762,0.311
			c0.538-0.538,1.487-0.663,2.246-0.979c0.1,3.505,4.232,2.49,5.021,4.328c1.313-1.523,2.705-3.138,4.791-5.557
			c0.002,3.649,0.484,6.62,3.46,6.708c1.667,0.049,3.398-2.024,5.41-3.346c0.385,0.361,1.039,1.037,1.759,1.633
			c0.932,0.771,1.917,1.478,2.88,2.211c0.387-1.18,0.773-2.36,1.428-4.358c2.198,0.469,4.817,0.784,7.264,1.61
			c3.061,1.033,5.866,3.282,9.041,0.011c0.675-0.695,2.666,0.084,3.804-0.399c2.858-1.214,7.711,3.244,8.671-4.817
			c3.456,8.456,10.517,3.288,14.87,6.541c3.09-2.98,6.043-3.037,9.308-0.323c0.573,0.477,1.201,0.886,1.804,1.325
			c1.711-2.999,3.745,0.229,6.011-0.407c-0.715-1.06-1.351-2.002-1.966-2.914c0.486-0.565,1.028-1.197,1.167-1.359
			c3.955,0.768,7.567,1.47,11.57,2.247c0.353-0.786,0.931-2.075,1.705-3.798c1.609,1.137,2.867,2.265,4.323,2.998
			c1.961,0.988,4.738,2.262,5.708-0.53c1.359-3.912,5.075-2.797,5.928-1.925c2.74,2.805,6.098,0.841,8.899,2.092
			c2.176,0.972,4.54,1.521,6.687,2.216c1.164-0.697,2.722-1.631,4.997-2.993c-0.357,1.716-0.498,2.393-0.445,2.138
			c2.431-0.067,4.762,0.012,7.052-0.256c1.142-0.134,2.21-0.899,3.522-1.471c2.329,0.519,5.116,1.202,7.931,1.735
			c1.136,0.217,2.334,0.091,3.503,0.149c1.09,0.056,2.399,0.571,3.225,0.141c1.822-0.948,3.401-2.364,5.261-3.723
			c2.76,4.689,7.726,2.058,12.386,3.596c-0.884-1.515-1.37-2.347-1.855-3.18c0.205-0.229,0.409-0.457,0.613-0.686
			c1.021,0.658,2.041,1.316,3.028,1.954c0.488-0.691,0.981-1.39,1.565-2.218c3.285,5.38,3.957,5.382,13.236,0.393
			c0.498,4.825,0.994,9.644,1.493,14.494c2.063,0.422,2.024,0.416,2.579-3.584c0.57-4.104,1.227-8.199,2.001-13.334
			c1.131,1.702,2.213,3.328,3.438,5.17c0.906-1.421,1.363-2.137,2.136-3.348c0.342,1.548,0.546,2.471,0.949,4.298
			c2.267-1.563,4.097-2.823,6.792-4.68c1.565,0.648,4.434,2.016,7.433,2.974c0.941,0.302,2.22-0.592,3.37-0.761
			c1.062-0.156,2.172-0.187,3.233-0.054c0.661,0.082,1.328,0.914,1.896,0.82c2.837-0.466,5.395-1.425,8.593-0.627
			c2.107,0.526,4.88-1.617,7.872-2.765c0.295,1.305,0.632,2.791,1.143,5.047c2.226,2.653,5.366,1.206,8.514-0.147
			c0.839-0.361,1.702-0.876,2.571-0.913c1.354-0.059,2.722,0.232,3.543,0.318c2.954,1.257,5.542,2.358,8.954,3.811
			c-1.067-1.889-1.611-2.851-2.617-4.632c3.962,1.184,7.011,2.094,10.319,3.082c0.592-0.665,1.69-1.898,2.824-3.172
			c1.843,1.288,3.333,2.328,4.947,3.457c1.696-1.899,3.298-3.691,4.834-5.411c1.392,1.062,2.765,2.11,4.15,3.168
			c-0.697,0.88-1.383,1.747-2.068,2.612c1.521,0.069,2.615-0.921,3.607-0.829c4.228,0.396,9.088-1.738,10.39-4.259
			c2.791,1.09,5.74,1.707,8.04,3.276c2.882,1.966,4.963,1.548,6.833-0.572c1.847,1.169,3.53,2.235,5.214,3.302
			c0.013-0.356,0.025-0.713,0.039-1.07c2.547-1.069,5.087-2.157,7.652-3.184c0.283-0.113,0.71,0.124,1.068,0.206
			c3.564,0.813,6.783-0.001,8.437-0.707c1.109,0.694,2.874,0.81,3.703,1.75c0.787,0.891,0.338,2.766,0.907,3.986
			c0.517,1.104,1.674,1.908,2.549,2.846c0.638-1.315,1.407-2.587,1.861-3.962c0.262-0.792-0.364-2.08,0.065-2.574
			c1.229-1.413,2.792-2.535,4.91-4.364c-0.336,1.611-0.911,2.727-0.669,3.622c0.296,1.097,1.274,2.01,2.546,3.856
			c-0.214-2.2-0.313-3.219-0.398-4.084c4.653,0.507,9.063,0.987,13.545,1.476c-0.172-1.472-0.305-2.613-0.483-4.133
			c2.059,1.692,3.702,3.045,5.792,4.765c1.143-1.483,2.211-2.87,3.142-4.08c0.418,1.647,0.88,3.466,1.341,5.284
			c0.264-0.329,0.527-0.658,0.791-0.987c1.352,0.211,2.718,0.662,4.052,0.577c2.007-0.127,4.21-0.205,5.924-1.089
			c1.822-0.94,3.171-2.798,4.775-4.299c1.064,1.4-2.201,5.13,1.537,5.692c0.466-1.249,1.064-3.044,1.137-3.022
			c2.407,0.696,4.764,1.567,7.107,2.404c2.935-5.999,6.058,0.399,9.479,0.863c-0.853-1.533-1.383-2.486-1.902-3.422
			c2.604-0.848,4.829-1.571,7.198-2.342c1.893,3.712,4.826,3.543,8.216-1.09c0.34,2.391,0.652,4.592,0.964,6.791
			c0.404,0.011,0.808,0.021,1.211,0.03c2.014-2.115,4.025-4.23,6.012-6.318c2.691,5.495,5.398,5.651,7.993-0.226
			c0.628,0.851,1.161,1.571,1.834,2.482c0.958-1.011,1.67-1.765,2.37-2.503c0.79,0.958,1.416,1.719,2.146,2.605
			c0.843-1.157,1.394-1.914,2.409-3.31c0,1.79,0,2.703,0,3.448c3.524,2.046,5.812,0.151,8.058-3.182
			c0.038,7.256,5.479,3.212,8.335,5.063c0.442-1.192,1.189-2.312,1.225-3.452c0.23-7.559,0.299-15.123,0.44-22.684
			c0.09-4.752-0.299-5.054-5.04-4.997c-7.736,0.093-15.475,0.005-23.211,0.08c-2.178,0.021-3.064-0.651-3.094-3.015
			c-0.092-7.272-0.852-14.558-0.526-21.802c0.168-3.75-1.148-4.341-4.188-4.547c-2.98-0.203-2.195-1.911-0.79-3.683
			c0.6,0.887,1.198,1.773,1.857,2.75c5.237-5.46,4.13-11.697,3.019-17.856c-0.114-0.636-1.572-1.059-2.437-1.525
			C531.564,171.88,528.234,172.396,528.393,168.681z M411.799,293.267c1.771,0,2.85,0.284,3.686-0.047
			c4.614-1.83,9.085-4.058,13.771-5.663c4.171-1.429,8.549-2.272,12.856-3.287c2.469-0.582,2.286-2.244,1.196-3.594
			c-0.745-0.924-2.287-1.388-3.559-1.668c-3.503-0.771-7.073-1.24-10.572-2.024c-1.789-0.401-4.246-0.709-5.079-1.947
			c-2.597-3.864-7.058-2.406-10.279-4.242c-0.462-0.264-1.391,0.292-2.438,0.552c2.127,2.75,3.928,5.076,6.434,8.315
			c-33.843,0-66.775,0-100.71,0c2.712-3.143,4.94-5.727,7.171-8.31c-0.216-0.391-0.432-0.781-0.647-1.172
			c-3.228,0.9-6.511,1.644-9.67,2.742c-3.907,1.36-7.675,3.119-11.571,4.514c-2.871,1.027-5.91,1.601-8.752,2.693
			c-0.881,0.339-1.361,1.72-2.025,2.622c0.979,0.519,1.907,1.213,2.949,1.524c5.252,1.574,10.538,3.034,15.804,4.562
			c4.117,1.195,8.099,3.144,12.496,2.731c0.532-0.68,1.063-1.359,1.595-2.038c-2.522-1.408-5.046-2.815-7.569-4.223
			c0.3-0.242,0.601-0.484,0.901-0.728c33.438,0,66.876,0,100.788,0C416.229,287.585,414.291,290.071,411.799,293.267z
			 M445.615,346.626c0.073-0.541,0.146-1.083,0.22-1.625c-1.099-0.399-2.181-1.083-3.298-1.145c-3.112-0.172-6.24-0.097-9.362-0.102
			c-46.124-0.064-92.249-0.135-138.373-0.184c-20.372-0.021-40.744,0.014-61.116-0.018c-2.199-0.004-3.951,0.277-4.353,2.93
			c-0.834,5.509-1.939,10.983-2.613,16.51c-1.536,12.611-2.879,25.245-4.303,37.87c-0.135,1.199-0.284,2.397-0.533,4.484
			c-1.331-1.188-2.44-1.703-2.709-2.502c-1.069-3.172-1.79-6.459-2.819-9.646c-0.45-1.392-1.293-3.722-2.023-3.747
			c-1.832-0.063-3.953,0.577-5.482,1.628c-1.518,1.042-1.66,3.355,0.61,3.57c3.721,0.353,3.897,3.185,4.509,5.51
			c1.328,5.041,2.1,10.23,3.458,15.263c0.403,1.493,1.82,3.544,3.088,3.802c2.716,0.556,2.481-2.184,2.742-3.881
			c1.974-12.905,3.944-25.813,5.754-38.743c1.228-8.771,2.351-17.562,3.188-26.374c0.277-2.919,1.23-3.754,4.072-3.736
			c17.5,0.1,35,0.023,52.5,0.032c50.126,0.027,100.253,0.068,150.38,0.104C441.306,346.628,443.46,346.626,445.615,346.626z
			 M425.587,372.495c-5.281-15.416-6.743-17.982-10.325-17.735c9.128,22.559,9.477,45.2,0.864,68.014
			c11.702-12.387,9.985-28.04,10.585-43.246c3.231-0.419,6.436-0.718,9.581-1.321c0.812-0.155,1.439-1.269,2.151-1.941
			c-0.807-0.631-1.528-1.57-2.439-1.821c-1.495-0.413-3.113-0.379-5.052-0.569c1.968-2.457,3.612-4.54,5.289-6.598
			c4.108-5.041,2.88-9.453-3.497-10.584c-2.259-0.4-5.202,1.072-7.269,2.505c-0.906,0.627-0.398,3.295-0.532,5.036
			c0.352,0.038,0.702,0.077,1.054,0.116c1.917-1.546,3.835-3.092,5.707-4.602C435.878,363.737,434.544,366.391,425.587,372.495z
			 M245.439,353.767c-0.352-0.106-0.705-0.212-1.056-0.318c-5.298,4.778-7.174,11.688-8.59,18.023
			c-3.559,15.937-1.417,31.658,5.238,46.624c0.873,1.964,2.001,4.5,4.657,4.119c-1.746-5.845-3.927-11.354-4.948-17.072
			c-1.018-5.708-1.176-11.626-1.155-17.45c0.021-5.949,0.248-11.978,1.253-17.821C241.78,364.401,243.86,359.127,245.439,353.767z
			 M347.27,392.741c-0.022,0-0.045,0-0.067,0.001c0,3.477,0.061,6.954-0.021,10.43c-0.055,2.346,0.75,3.559,3.286,3.211
			c0.828-0.113,1.729-0.094,2.535,0.107c7.185,1.78,11.267-0.971,12.476-8.465c1.16-7.197-4.188-12.438-11.094-10.846
			c-2.149,0.495-3.439-0.063-3.37-2.498c0.024-0.867,0.334-1.83,0.056-2.579c-0.37-0.997-1.188-1.827-1.813-2.729
			c-0.662,0.853-1.843,1.672-1.896,2.562C347.141,385.525,347.27,389.138,347.27,392.741z M246.075,394.753
			c2.503-5.044,4.903-6.219,8.158-4.422c0.789,0.436,1.73,1.632,1.63,2.341c-0.096,0.681-1.374,1.469-2.27,1.713
			c-2.512,0.687-5.121,1.02-7.642,1.68c-2.433,0.636-3.737,2.247-3.752,4.898c-0.024,4.333,5.377,7.674,9.913,6.349
			c1.953-0.57,4.181-0.14,6.203-0.557c0.991-0.205,2.565-1.321,2.557-2.007c-0.056-4.305-0.305-8.63-0.887-12.893
			c-0.202-1.478-1.226-3.212-2.415-4.115c-3.871-2.938-7.973-2.09-11.79,0.252c-1.063,0.652-2.328,2.093-2.287,3.124
			C243.537,392.245,244.984,393.32,246.075,394.753z M78.524,107c-0.869-1.297-2.486-2.645-2.293-3.642
			c0.43-2.223,2.148-4.193,2.6-6.417c0.325-1.602-0.142-4.651-0.97-4.929c-1.631-0.548-3.85,0.128-5.651,0.779
			c-1.482,0.535-2.713,1.764-4.456,2.958c-0.25-1.847-0.407-3.013-0.595-4.398c-1.959,0.126-3.66,0.236-6.145,0.397
			c3.197,4.454,1.333,8.618-0.373,12.151c-1.188,2.461-1.79,4.381-1.167,6.782c3.282,1.07,3.431-1.553,4.413-3.317
			c1.753-3.151,3.478-6.349,5.594-9.25c0.893-1.224,2.748-1.747,4.165-2.589c0.307,2.081-0.117,3.357-0.42,4.661
			c-0.67,2.889-1.581,5.768-1.817,8.697c-0.191,2.367,1.586,2.666,3.289,1.505C76.146,109.402,77.35,108.061,78.524,107z
			 M246.145,64.638c-1.304-2.662-6.862-3.764-8.5-1.874c-0.305,0.352-0.705,1.012-0.57,1.292c1.892,3.925-0.578,7.175-1.63,10.602
			c-1.517,4.938-3.313,9.792-4.773,14.747c-0.179,0.605,0.952,2.294,1.515,2.313c4.859,0.167,9.734,0.202,14.593-0.01
			c2.873-0.125,4.448-4.868,2.541-7.575c-0.522,0.748-1.001,1.452-1.499,2.143c-1.701,2.365-6.837,3.929-8.958,2.478
			c-2.885-1.973-0.955-4.381-0.321-6.684c0.853-3.104,1.727-6.22,2.279-9.386C241.439,69.145,242.389,65.97,246.145,64.638z
			 M374.576,296.292c-0.494,0.035-0.987,0.07-1.481,0.106c-1.851-0.251-3.696-0.571-5.556-0.727
			c-1.076-0.09-2.219-0.086-3.256,0.174c-7.058,1.773-8.543,7.727-9.536,13.606c-0.769,4.553,2.401,6.666,6.725,5.149
			c1.337-0.47,3.365-1.348,4.087-0.78c3.051,2.398,4.855,0.453,7.064-1.162c-2.9-2.586-2.65-3.421-1.044-6.692
			C373.049,302.973,373.613,299.534,374.576,296.292z M45.411,103.989c3.477-1.553,6.835-2.438,9.354-4.402
			c1.568-1.221,2.146-4.026,2.503-6.229c0.072-0.445-2.788-1.816-4.384-2.002c-5.38-0.629-8.626,3.428-10.974,6.967
			c-1.924,2.902-1.707,7.178,0.57,10.832c1.821,2.922,4.401,1.765,6.643,1.775c3.321,0.013,6.822-3.756,6.365-6.292
			c-1.26,0.363-2.564,0.62-3.767,1.119c-1.173,0.487-2.242,1.223-3.612,1.992C47.159,106.425,46.177,105.057,45.411,103.989z
			 M395.622,381.641c-1.269,4.784,1.096,8.092,5.227,8.854c3.483,0.643,7.645-2.028,7.58-5.41
			c-0.082-4.335-0.491-8.739-1.436-12.963c-0.909-4.071-5.517-5.162-9.377-2.354c-1.271,0.924-3.009,3.327-2.634,4.012
			c1.313,2.393,3.004,0.524,4.605-0.331c0.94-0.502,2.156-0.487,4.3-0.915c-1.052,1.631-1.455,2.3-1.902,2.938
			c-0.707,1.012-2.131,2.12-1.984,2.972c0.158,0.921,1.823,1.534,2.729,2.39c0.857,0.811,2.393,2.03,2.205,2.598
			c-0.458,1.382-1.571,2.75-2.794,3.559c-0.39,0.257-2.012-1.2-2.969-1.995C398.063,384.072,397.066,383.017,395.622,381.641z
			 M107.888,107.286c-0.534-0.427-1.305-0.847-1.784-1.485c-0.451-0.601-0.836-1.456-0.769-2.153
			c0.033-0.342,1.147-0.602,1.788-0.861c2.629-1.063,5.729-1.585,7.737-3.352c1.382-1.216,1.58-4.151,1.576-6.316
			c-0.001-0.57-2.712-1.594-4.192-1.62c-5.852-0.102-11.388,5.838-11.983,11.834c-0.524,5.288,4.036,9.086,9.069,7.496
			c1.533-0.484,2.918-1.66,4.16-2.757c0.87-0.767,1.382-1.938,2.054-2.928c-0.325-0.246-0.649-0.492-0.974-0.738
			C112.363,105.357,110.157,106.308,107.888,107.286z M382.479,388.166c-1.141-0.406-1.702-0.643-2.285-0.808
			c-1.826-0.519-3.66-1.011-5.49-1.513c1.346-1.639,2.691-3.279,4.043-4.913c0.075-0.092,0.201-0.146,0.313-0.205
			c3.385-1.772,2.913-4.793,2.607-7.823c-0.364-3.608-3.711-4.636-5.944-5.013c-2.013-0.34-4.692,1.644-6.615,3.181
			c-0.803,0.642-0.407,2.781-0.662,5.268c2.157-1.506,3.065-2.46,4.168-2.826c1.308-0.435,2.977-0.813,4.11-0.328
			c0.606,0.26,1.004,2.764,0.469,3.591c-1.372,2.117-3.36,3.827-5.021,5.769c-1.392,1.627-2.829,3.257-3.898,5.089
			c-0.322,0.554,0.484,2.572,0.832,2.588c3.958,0.172,7.929,0.136,11.89-0.005C381.407,390.202,381.784,389.163,382.479,388.166z
			 M299.052,372.525c0.147,0.382,0.294,0.763,0.441,1.143c-0.315,0.489-0.533,1.098-0.963,1.447
			c-3.001,2.439-2.932,3.092,0.177,5.07c0.933,0.594,2.169,1.905,2.045,2.697c-0.217,1.397-1.372,2.649-2.135,3.962
			c-1.25-0.771-2.525-1.506-3.744-2.324c-0.914-0.613-1.757-1.334-2.632-2.008c-0.345,0.973-1.046,1.973-0.97,2.911
			c0.304,3.758,3.504,4.669,6.178,4.437c2.415-0.21,5.2-1.655,6.829-3.453c1.076-1.187,1.293-4.835,0.312-5.848
			c-2.045-2.111-1.758-3.9-1.303-6.27c0.479-2.491-2.192-5.965-4.802-6.56c-2.895-0.659-5.095,0.791-6.639,2.975
			c-0.556,0.784-0.106,2.279-0.116,3.45c0.909-0.141,1.83-0.227,2.724-0.435C295.996,373.362,297.521,372.929,299.052,372.525z
			 M48.096,83.918c0.152-0.533,0.304-1.066,0.456-1.599c-1.121-0.862-2.139-2.167-3.391-2.455c-1.139-0.262-2.911,0.194-3.745,1.009
			c-2.783,2.719-5.206,5.802-7.903,8.616c-1.028,1.072-3.025,1.571-3.457,2.746c-0.324,0.878,1.245,2.381,1.779,3.685
			c0.203,0.495-0.082,1.223-0.229,1.824c-1.264,5.149-2.603,10.28-3.776,15.45c-0.223,0.982,0.184,2.107,0.3,3.167
			c0.687-0.631,1.709-1.135,2.003-1.914c1.543-4.084,2.787-8.284,4.366-12.354c1.002-2.582,1.868-5.628,3.801-7.31
			c1.575-1.371,2.233-1.631,0.941-3.485c-1.917-2.75,0.578-4.622,1.755-6.687c1.231-2.162,2.558-1.399,4.18-0.256
			C45.757,84.765,47.1,84.095,48.096,83.918z M278.755,389.101c-0.006-0.549-0.012-1.098-0.019-1.646
			c-1.917,0-3.84,0.092-5.747-0.046c-0.763-0.055-2.038-0.526-2.11-0.968c-0.128-0.779,0.275-1.87,0.833-2.492
			c1.314-1.469,2.919-2.672,4.285-4.1c4.159-4.348,3.522-8.963-1.776-11.808c-3.14-1.686-5.917,0.047-7.965,2.146
			c-1.031,1.057-0.856,3.288-1.226,4.988c0.35,0.13,0.7,0.259,1.051,0.388c2.24-2.013,4.41-4.293,7.702-2.366
			c0.935,3.842-0.689,6.53-3.922,8.037c-3.526,1.644-4.95,4.412-5.769,8.661C269.234,389.631,274.107,391.806,278.755,389.101z
			 M165.197,403.958c-4.387-0.34-7.727-0.733-11.073-0.814c-2.7-0.065-4.124-0.83-4.058-3.89c0.119-5.606,0-11.224-0.223-16.828
			c-0.042-1.064-1.027-2.091-1.577-3.135c-0.703,0.918-1.99,1.821-2.015,2.759c-0.195,7.328-0.204,14.663-0.105,21.993
			c0.013,0.941,0.941,2.653,1.505,2.678c4.951,0.219,9.918,0.198,14.875,0.063C163.109,406.767,163.661,405.632,165.197,403.958z
			 M207.707,378.697c1.339,5.123,5.347,8.314,8.168,7.554c5.319-1.434,7.553-6.741,5.021-11.764
			c-0.334-0.663-0.506-1.63-0.293-2.313c1.237-3.956,0.605-5.411-3.4-7.287c-2.568-1.202-7.729-0.168-8.853,1.993
			c-0.432,0.832-0.104,2.058-0.123,3.104c0.84,0.009,1.745,0.219,2.5-0.029c0.841-0.276,1.496-1.267,2.322-1.404
			c0.934-0.155,1.967,0.293,2.957,0.478c-0.63,1.595-1.262,3.19-2.161,5.46c-0.051-0.033,1.114,0.339,1.605,1.13
			c0.915,1.472,1.437,3.188,2.123,4.802c-1.639,0.168-3.317,0.63-4.905,0.416C211.258,380.646,209.947,379.705,207.707,378.697z
			 M93.453,94.485c1.207,1.343,1.965,2.847,2.704,2.838c0.872-0.012,2.354-1.271,2.434-2.1c0.109-1.125-0.745-3.294-1.389-3.373
			c-2.649-0.328-5.992-1.003-7.939,0.239c-3.669,2.339-8.015,5.046-7.709,10.38c0.15,2.631,0.718,5.874,2.386,7.575
			c1.256,1.281,4.982,1.405,6.851,0.492c2.203-1.076,5.691-2.157,5.311-5.695c-2.767,0.377-5.32,0.886-7.888,0.973
			c-0.727,0.024-1.997-1.075-2.164-1.844C84.968,98.983,88.852,94.407,93.453,94.485z M317.791,396.067
			c1.74,4.435,5.778,1.271,8.268,3.609c0,1.099-0.229,2.626,0.08,4.036c0.206,0.938,1.181,1.705,1.811,2.548
			c0.624-0.86,1.291-1.695,1.847-2.599c0.165-0.27,0.057-0.738,0.006-1.107c-0.434-3.176,0.999-4.176,4.074-3.985
			c1.419,0.088,2.896-0.773,4.345-1.205c-0.118-0.444-0.237-0.889-0.356-1.333c-2.55-0.198-5.1-0.396-8.051-0.626
			c0-1.977,0.224-3.749-0.091-5.421c-0.169-0.899-1.259-1.626-1.934-2.431c-0.619,0.868-1.621,1.674-1.775,2.618
			c-0.288,1.758-0.083,3.596-0.083,5.441C322.957,395.779,320.544,395.914,317.791,396.067z M196.627,400.469
			c-0.113-0.53-0.228-1.06-0.341-1.59c-0.998-0.358-1.987-0.998-2.995-1.026c-4.719-0.132-9.449-0.23-14.161-0.023
			c-1.131,0.049-2.209,1.311-3.312,2.014c1.108,0.874,2.169,2.42,3.333,2.502c4.202,0.295,8.45,0.274,12.656-0.005
			C193.448,402.231,195.023,401.122,196.627,400.469z M185.812,390.912c0-0.037,0-0.075,0-0.112c-2.603,0-5.22-0.152-7.799,0.096
			c-0.734,0.07-1.863,1.278-1.893,2.002c-0.032,0.781,0.983,2.281,1.592,2.308c5.315,0.229,10.644,0.304,15.961,0.145
			c0.875-0.027,1.709-1.414,2.562-2.173c-0.994-0.755-1.92-2.017-2.996-2.161C190.802,390.688,188.292,390.912,185.812,390.912z
			 M393.841,366.813c-0.423-0.182-0.845-0.363-1.268-0.545c-2.921,1.193-10.93,26.646-8.923,31.09
			C387.048,387.176,390.444,376.993,393.841,366.813z M485.01,17.286c0.528-2.617,0.926-4.581,1.381-6.836
			c0.127,0.091-0.254-0.237-0.684-0.48c-4.538-2.581-10.123-0.435-10.396,3.985c-0.182,2.938,1.359,4.383,4.291,4.017
			C481.596,17.723,483.59,17.466,485.01,17.286z M278.395,396.361c0.507,0.201,1.014,0.402,1.521,0.604
			c0.576-0.996,1.384-1.927,1.688-2.999c1.179-4.182,2.077-8.444,3.312-12.607c1.215-4.093,2.823-8.07,3.996-12.174
			c0.249-0.87-0.639-2.065-1.003-3.11c-0.769,0.772-1.958,1.418-2.236,2.339c-1.397,4.629-2.583,9.324-3.79,14.009
			C280.687,387.06,279.555,391.714,278.395,396.361z M444.801,266.058c-0.647,0.894-1.085,1.245-1.17,1.666
			c-0.193,0.97-0.447,2.039-0.196,2.933c0.108,0.384,1.413,0.43,2.175,0.629c0.119-0.998,0.29-1.992,0.346-2.993
			c0.064-1.164,0.129-2.344,0.003-3.497c-0.117-1.093-0.434-2.177-0.817-3.207c-0.033-0.088-1.723,0.125-1.809,0.433
			c-0.272,0.967-0.301,2.075-0.101,3.063C443.313,265.487,444.224,265.722,444.801,266.058z M290.124,275.219
			c-0.302,0.102-0.603,0.203-0.904,0.305c0.396,0.667,0.688,1.456,1.245,1.939c0.21,0.184,1.339-0.193,1.517-0.568
			c0.431-0.909,1.074-2.329,0.687-2.892c-0.912-1.323-2.031-2.197-0.196-3.673c0.364-0.293,0.191-1.666-0.173-2.279
			c-0.183-0.307-1.569-0.297-2.027,0.062c-0.564,0.442-1.045,1.415-1,2.122C289.379,271.908,289.818,273.559,290.124,275.219z
			 M521.629,256.595c-1.375-0.843-2.399-1.477-3.434-2.091c-0.053-0.031-0.198,0.096-0.781,0.401
			c0.477,1.427,0.994,2.979,1.512,4.53C519.783,258.534,520.641,257.634,521.629,256.595z M442.77,276.543
			c0.129,0.436,0.257,0.871,0.384,1.307c1.267-0.205,2.533-0.41,3.987-0.645c-0.849-1.753-1.308-2.701-2.035-4.203
			C444.146,274.458,443.458,275.5,442.77,276.543z"/>
		<path fill-rule="evenodd" clip-rule="evenodd" d="M523.533,137.363c0.938,0.46,1.878,0.919,3.689,1.806
			c0.08-1.409,0.063-2.537,0.224-3.639c0.514-3.555,0.974-7.126,1.729-10.632c0.202-0.941,1.389-1.67,2.122-2.497
			c0.687,1.229,1.51,2.404,2.02,3.702c0.535,1.365,1.092,2.854,1.062,4.278c-0.043,2.012-0.615,4.011-1.07,6.638
			c3.728,4.368,4.119,10.831,0.7,13.92c0.698,1.682,1.764,3.172,1.752,4.653c-0.006,0.791-2.595,2.397-2.788,2.228
			c-3.336-2.917-3.683,1.7-5.607,2.247c-1.053,0.3-1.539,2.235-2.554,3.12c-0.977,0.851-2.422,1.154-3.44,1.974
			c-0.77,0.62-1.191,1.672-1.768,2.532c0.875,0.275,1.741,0.744,2.628,0.788c2.005,0.098,4.02-0.012,6.03-0.039
			c0.044,0.075,0.088,0.154,0.131,0.239c-0.158,3.716,3.172,3.2,5.188,4.287c0.864,0.467,2.322,0.89,2.437,1.525
			c1.111,6.159,2.219,12.396-3.019,17.856c-0.659-0.977-1.258-1.863-1.857-2.75c-1.405,1.772-2.19,3.479,0.79,3.683
			c3.04,0.207,4.356,0.797,4.188,4.547c-0.325,7.244,0.435,14.53,0.526,21.802c0.029,2.364,0.916,3.036,3.094,3.015
			c7.736-0.075,15.475,0.013,23.211-0.08c4.741-0.057,5.13,0.245,5.04,4.997c-0.142,7.561-0.21,15.125-0.44,22.684
			c-0.035,1.141-0.782,2.26-1.225,3.452c-2.856-1.852-8.297,2.192-8.335-5.063c-2.246,3.333-4.533,5.228-8.058,3.182
			c0-0.745,0-1.658,0-3.448c-1.016,1.396-1.566,2.152-2.409,3.31c-0.73-0.887-1.356-1.647-2.146-2.605
			c-0.7,0.738-1.412,1.492-2.37,2.503c-0.673-0.911-1.206-1.632-1.834-2.482c-2.595,5.877-5.302,5.721-7.993,0.226
			c-1.986,2.088-3.998,4.203-6.012,6.318c-0.403-0.01-0.807-0.02-1.211-0.03c-0.312-2.199-0.624-4.4-0.964-6.791
			c-3.39,4.633-6.323,4.802-8.216,1.09c-2.369,0.771-4.594,1.494-7.198,2.342c0.52,0.936,1.05,1.889,1.902,3.422
			c-3.422-0.464-6.545-6.862-9.479-0.863c-2.344-0.837-4.7-1.708-7.107-2.404c-0.072-0.021-0.671,1.773-1.137,3.022
			c-3.738-0.563-0.473-4.292-1.537-5.692c-1.604,1.501-2.953,3.358-4.775,4.299c-1.714,0.884-3.917,0.962-5.924,1.089
			c-1.334,0.085-2.7-0.366-4.052-0.577c-0.264,0.329-0.527,0.658-0.791,0.987c-0.461-1.818-0.923-3.637-1.341-5.284
			c-0.931,1.21-1.999,2.597-3.142,4.08c-2.09-1.72-3.733-3.072-5.792-4.765c0.179,1.52,0.312,2.661,0.483,4.133
			c-4.481-0.488-8.892-0.969-13.545-1.476c0.085,0.865,0.185,1.884,0.398,4.084c-1.271-1.847-2.25-2.76-2.546-3.856
			c-0.242-0.896,0.333-2.011,0.669-3.622c-2.118,1.829-3.682,2.951-4.91,4.364c-0.43,0.494,0.196,1.782-0.065,2.574
			c-0.454,1.375-1.224,2.646-1.861,3.962c-0.875-0.938-2.032-1.741-2.549-2.846c-0.569-1.221-0.12-3.096-0.907-3.986
			c-0.829-0.94-2.594-1.056-3.703-1.75c-1.653,0.706-4.872,1.521-8.437,0.707c-0.358-0.082-0.785-0.319-1.068-0.206
			c-2.565,1.026-5.105,2.114-7.652,3.184c-0.014,0.357-0.026,0.714-0.039,1.07c-1.684-1.066-3.367-2.133-5.214-3.302
			c-1.87,2.12-3.951,2.538-6.833,0.572c-2.3-1.569-5.249-2.187-8.04-3.276c-1.302,2.521-6.162,4.654-10.39,4.259
			c-0.992-0.092-2.086,0.898-3.607,0.829c0.686-0.865,1.371-1.732,2.068-2.612c-1.386-1.058-2.759-2.106-4.15-3.168
			c-1.536,1.72-3.138,3.512-4.834,5.411c-1.614-1.129-3.104-2.169-4.947-3.457c-1.134,1.273-2.232,2.507-2.824,3.172
			c-3.309-0.988-6.357-1.898-10.319-3.082c1.006,1.781,1.55,2.743,2.617,4.632c-3.412-1.452-6-2.554-8.954-3.811
			c-0.821-0.086-2.189-0.377-3.543-0.318c-0.869,0.037-1.732,0.552-2.571,0.913c-3.147,1.354-6.288,2.801-8.514,0.147
			c-0.511-2.256-0.848-3.742-1.143-5.047c-2.992,1.147-5.765,3.291-7.872,2.765c-3.198-0.798-5.756,0.161-8.593,0.627
			c-0.567,0.094-1.234-0.738-1.896-0.82c-1.062-0.133-2.172-0.103-3.233,0.054c-1.15,0.169-2.429,1.063-3.37,0.761
			c-2.999-0.958-5.867-2.325-7.433-2.974c-2.695,1.856-4.525,3.117-6.792,4.68c-0.403-1.827-0.607-2.75-0.949-4.298
			c-0.772,1.211-1.229,1.927-2.136,3.348c-1.225-1.842-2.307-3.468-3.438-5.17c-0.774,5.135-1.431,9.229-2.001,13.334
			c-0.555,4-0.516,4.006-2.579,3.584c-0.499-4.851-0.995-9.669-1.493-14.494c-9.279,4.989-9.951,4.987-13.236-0.393
			c-0.584,0.828-1.078,1.526-1.565,2.218c-0.987-0.638-2.008-1.296-3.028-1.954c-0.204,0.229-0.409,0.457-0.613,0.686
			c0.486,0.833,0.972,1.665,1.855,3.18c-4.661-1.538-9.626,1.094-12.386-3.596c-1.86,1.358-3.439,2.774-5.261,3.723
			c-0.826,0.431-2.135-0.085-3.225-0.141c-1.168-0.059-2.367,0.067-3.503-0.149c-2.815-0.533-5.602-1.217-7.931-1.735
			c-1.312,0.571-2.38,1.337-3.522,1.471c-2.291,0.268-4.622,0.188-7.052,0.256c-0.053,0.255,0.088-0.422,0.445-2.138
			c-2.274,1.362-3.833,2.296-4.997,2.993c-2.146-0.694-4.511-1.244-6.687-2.216c-2.801-1.251-6.159,0.713-8.899-2.092
			c-0.853-0.872-4.569-1.987-5.928,1.925c-0.97,2.792-3.748,1.519-5.708,0.53c-1.456-0.733-2.714-1.861-4.323-2.998
			c-0.773,1.723-1.352,3.012-1.705,3.798c-4.003-0.777-7.615-1.479-11.57-2.247c-0.139,0.162-0.681,0.794-1.167,1.359
			c0.615,0.912,1.251,1.854,1.966,2.914c-2.267,0.636-4.3-2.592-6.011,0.407c-0.603-0.439-1.231-0.849-1.804-1.325
			c-3.265-2.714-6.218-2.657-9.308,0.323c-4.353-3.253-11.414,1.915-14.87-6.541c-0.959,8.062-5.813,3.604-8.671,4.817
			c-1.138,0.483-3.128-0.296-3.804,0.399c-3.175,3.271-5.98,1.022-9.041-0.011c-2.447-0.826-5.065-1.142-7.264-1.61
			c-0.655,1.998-1.042,3.179-1.428,4.358c-0.963-0.733-1.948-1.44-2.88-2.211c-0.72-0.596-1.374-1.271-1.759-1.633
			c-2.011,1.321-3.742,3.395-5.41,3.346c-2.976-0.088-3.458-3.059-3.46-6.708c-2.085,2.419-3.477,4.033-4.791,5.557
			c-0.789-1.838-4.921-0.823-5.021-4.328c-0.759,0.315-1.708,0.44-2.246,0.979c-2.511,2.51-7.479,2.475-9.762-0.311
			c-1.642-2.006-3.37-2.729-5.582-1.02c-3.517,2.72-3.505,2.734-6.768-0.045c-0.187,0.65-0.417,1.18-0.471,1.728
			c-0.046,0.458,0.113,0.937,0.207,1.577c-2.292,0.388-3.963,0.753-5.382-1.913c-0.813-1.528-3.122-2.446-5.067,0.158
			c-1.013,1.356-3.317,1.749-5.243,2.675c-2.173-2.729-7.205-1.438-12.234-1.061c-0.274-1-0.545-1.989-1.053-3.844
			c-1.483,3.973-3.544,4.198-6.311,2.138c0.371-0.807,0.742-1.614,1.422-3.094c-2.712,0.771-5.388,0.874-7.111,2.207
			c-1.712,1.325-2.225,1.902-4.141,0.24c-1.27-1.101-3.777-1.363-5.606-1.108c-3.826,0.532-3.672-1.736-3.746-4.26
			c-0.043-1.461-0.528-2.904-0.644-4.369c-0.281-3.59-0.473-7.188-0.679-10.783c-0.057-0.98,0.034-1.973-0.072-2.945
			c-0.314-2.887,1.019-4.185,3.837-4.178c13.352,0.035,26.704,0.044,40.056,0.099c5.609,0.023,11.216,0.161,16.825,0.204
			c11.616,0.091,23.232,0.271,34.847,0.189c8.754-0.061,17.504-0.59,26.258-0.682c5.58-0.058,11.164,0.424,16.748,0.452
			c13.875,0.07,27.752,0.018,41.629,0.019c17.099,0,34.197,0,51.296,0.011c3.86,0.003,7.722,0.036,11.583,0.086
			c2.079,0.027,4.407-3.238,3.944-5.624c-0.093-0.48-0.292-0.94-0.452-1.407c-1.411-4.147-0.916-5.118,4.036-6.398
			c-5.198-0.665-4.991-3.505-4.187-6.888c0.423-1.782-0.004-3.753,0.287-5.586c0.167-1.043,0.898-2.063,1.578-2.938
			c0.678-0.873,1.607-1.549,2.427-2.311c-0.933-0.584-1.858-1.181-2.805-1.743c-0.312-0.186-0.676-0.28-1.268-0.515
			c0.181-0.807,0.18-1.712,0.573-2.389c1.194-2.06,1.927-3.937-0.06-6.038c-0.58-0.614-0.567-1.879-0.646-2.859
			c-0.21-2.601-0.38-5.208-0.457-7.814c-0.076-2.57-0.016-5.144-0.016-8.649c-3.968,0.888-7.758,1.28-11.188,2.607
			c-5.491,2.124-10.712,4.941-16.121,7.295c-1.195,0.52-2.697,0.331-4.443,0.506c2.357-3.318,4.284-6.031,6.839-9.627
			c-3.1,0-5.152-0.069-7.198,0.011c-11.589,0.451-23.199,0.672-34.753,1.58c-3.324,0.261-6.527,2.457-9.718,3.914
			c-3.314,1.513-6.58,3.144-9.81,4.831c-8.466,4.422-16.82,9.065-25.372,13.313c-7.766,3.857-16.116,6.679-23.487,11.148
			c-5.563,3.374-11.863,5.109-17.127,8.524c-5.909,3.833-12.272,6.325-18.516,9.258c-2.579,1.212-5.189,2.456-7.527,4.061
			c-3.081,2.115-4.953,0.557-6.426-1.828c-2.844-4.602-2.457-5.195,2.8-7.316c1.632-0.658,2.862-2.257,4.454-3.084
			c3.333-1.732,6.816-3.173,10.175-4.857c2.344-1.174,4.519-2.692,6.886-3.807c3.415-1.606,6.934-2.99,10.412-4.462
			c0.784-0.331,1.917-0.406,2.314-0.991c3.201-4.706,8.917-4.626,13.31-7.037c6.578-3.611,13.58-6.44,20.313-9.781
			c5.424-2.69,10.743-5.597,16.056-8.504c2.604-1.424,5.092-3.064,7.756-4.683c-0.157-0.071-0.574-0.176-0.889-0.415
			c-5.396-4.108-5.485-6.547,0.878-10.854c5.786-3.916,12.213-6.88,18.316-10.338c0.542-0.308,0.665-1.281,1.167-1.746
			c1.315-1.215,2.864-2.197,4.075-3.5c1.406-1.511,3.376-3.184,3.549-4.94c0.14-1.423-1.943-3.134-3.176-4.603
			c-1.128-1.344-2.259-2.82-3.708-3.729c-2.333-1.463-5.063-2.295-7.386-3.769c-7.489-4.751-15.965-7.202-24.068-10.496
			c-5.183-2.106-10.669-3.457-15.906-5.445c-2.435-0.926-4.6-2.565-7.003-3.948c1.72-3.602,4.536-1.604,6.517-0.896
			c5.057,1.806,9.89,4.227,14.875,6.245c6.189,2.506,12.59,4.54,18.628,7.357c6.388,2.982,12.609,6.405,18.592,10.134
			c2.323,1.448,4.181,4.052,5.51,6.527c0.766,1.426,0.808,4.28-0.129,5.396c-3.505,4.177-6.657,8.894-12.319,10.739
			c-1.421,0.463-2.504,1.882-3.843,2.695c-2.881,1.747-5.778,3.479-8.762,5.041c-2.586,1.354-5.844,3.373-4.15,5.97
			c0.973,1.491,5.905,1.495,8.506,0.59c4.688-1.631,8.942-4.494,13.42-6.755c5.675-2.864,11.375-5.68,17.098-8.447
			c7.322-3.54,14.721-6.92,21.999-10.547c3.616-1.802,6.918-4.246,10.567-5.967c6.904-3.255,14.114-5.888,20.902-9.356
			c6.662-3.404,12.945-7.547,19.429-11.308c1.037-0.602,2.286-0.827,3.379-1.348c5.589-2.66,11.139-5.402,16.743-8.03
			c3.764-1.765,7.654-3.263,11.377-5.106c4.036-1.998,7.911-4.315,11.915-6.379c2.167-1.116,4.463-1.977,6.687-2.983
			c6.548-2.963,13.618-5.162,19.475-9.144c5.267-3.58,11.431-4.892,16.481-8.237c4.478-2.965,9.861-4.028,13.868-6.916
			c5.092-3.67,11.656-4.369,15.938-8.095c6.026-5.246,14.362-5.455,19.997-11.092c1.896-1.896,5.35-2.196,8.035-3.354
			c2.451-1.058,4.794-2.371,7.247-3.424c3.013-1.293,6.005-2.83,9.168-3.509c2.287-0.491,2.607-1.667,2.457-3.328
			c-0.266-2.952-0.766-5.881-1.164-8.789c2.009-0.746,3.893-1.445,5.775-2.145l-0.115,0.079c1.044,1.914-0.823,8.67-3.502,11.002
			c1.625,0.53,3.132,0.737,4.285,1.487c0.944,0.614,2.034,1.855,2.07,2.854c0.107,2.934,0.785,6.276-2.838,7.969
			c-0.094,0.044-0.01,0.467-0.009,0.714l0.125-0.114c-3.167,0.791-6.284-0.393-9.709,1.924c-6.425,4.346-13.771,7.355-20.808,10.764
			c-3.052,1.478-6.377,2.396-9.409,3.906c-1.639,0.817-2.753,2.697-4.396,3.495c-6.772,3.288-13.728,6.202-20.471,9.547
			c-3.299,1.636-6.659,2.872-9.813,5.299c-5.146,3.961-11.851,5.868-17.827,8.788c-6.232,3.046-12.362,6.299-18.568,9.4
			c-7.608,3.802-15.206,7.633-22.89,11.277c-7.015,3.327-14.174,6.348-21.204,9.644c-6.393,2.998-12.739,6.106-19.021,9.329
			c-2.675,1.372-5.192,3.079-7.642,4.83c-0.485,0.347-0.334,1.584-0.406,2.005c4.091-0.388,7.731-0.788,11.381-1.025
			c0.568-0.037,1.157,0.726,1.79,0.991c0.385,0.163,1.063,0.287,1.283,0.081c2.552-2.4,4.271-0.999,5.564,1.124
			c1.443-0.9,2.717-1.693,4.419-2.753c-0.785,3.233-1.219,5.407-1.877,7.51c-0.229,0.733-0.941,1.378-1.563,1.913
			c-2.637,2.268-2.826,4.532,0.08,6.591c2.104,1.492,2.454,3.126,2.042,5.333c-0.205,1.103-0.769,2.393-0.413,3.301
			c1.878,4.805-0.954,6.838-5.277,8.473c1.769,2.643,3.355,4.972,4.885,7.338c0.325,0.503,0.602,1.139,0.622,1.724
			c0.173,5.042,0.536,10.097,0.335,15.128c-0.191,4.812-1.01,9.597-1.488,14.4c-0.054,0.536,0.188,1.212,0.52,1.654
			c2.019,2.689,1.46,4.722-1.375,6.382c-2.088,1.222-1.859,2.715-0.574,4.561c1.325,1.903,2.362,4.019,3.419,6.095
			c1.143,2.248,0.768,5.481,4.879,5.416c12.185-0.192,24.373-0.054,36.561-0.119c13.625-0.073,27.251-0.354,40.875-0.319
			c22.181,0.056,44.359,0.309,66.539,0.404c0.926,0.003,2.132-0.517,2.734-1.207c2.142-2.456,4.229-4.251,7.967-3.425
			c2.235,0.494,4.731-0.19,7.362-0.36c1.624,1.457,3.592,3.223,5.56,4.989c0.321-0.247,0.642-0.494,0.963-0.741
			c-0.699-1.103-1.414-2.197-2.095-3.311c-1.469-2.403-6.401-2.466-4.556-6.675c-1.832-0.672-3.409-1.19-4.939-1.823
			c-2.707-1.119-4.303-0.316-4.846,2.594c-0.114,0.615-0.435,1.191-0.835,2.246c-3.548-4.826-1.287-8.813,0.604-12.702
			c-3.258-2.178-3.659-5.316-1.105-7.317c3.792-2.972,3.565-5.329-0.801-8.091c-2.942-1.859-1.844-4.84-1.318-7.075
			c0.264-1.126,3.024-1.741,4.72-2.427c0.87-0.352,2.161-0.05,2.752-0.595c0.571-0.528,0.882-2.42,0.625-2.574
			c-0.977-0.585-2.237-0.681-3.376-1.013c-1.303-0.381-3.123-0.416-3.791-1.301c-2.596-3.438-1.271-12.86,1.711-15.671
			c-0.808-2.933-1.576-5.725-2.442-8.87c1.695,0,2.907,0,4.119,0c-0.274,0.322-0.548,0.645-0.82,0.967
			c1.443,2.303,2.887,4.605,4.52,7.211c1.773-1.228,3.174-2.198,4.575-3.169c-0.306-0.396-0.612-0.793-0.917-1.189
			c-1.143-0.218-2.286-0.437-4.59-0.877c1.773-2.157,3.179-3.674,4.358-5.352c1.378-1.959,2.559-4.058,3.824-6.097
			c1.172,0.609,2.346,1.219,3.519,1.829c-0.688,0.333-1.374,0.667-2.063,1c-0.386,1.636-0.771,3.273-1.087,4.607
			c2.204,0,3.776,0,5.139,0c1.866-1.626,3.882-3.348,5.852-5.12c0.537-0.484,0.941-1.116,1.406-1.681
			c-0.844-0.083-1.708-0.308-2.525-0.196c-0.464,0.064-0.851,0.681-1.323,1.093c-0.411-1.691-0.761-3.125-1.109-4.56
			c-0.393-0.014-0.784-0.027-1.176-0.041c-0.396,1.667-0.793,3.333-1.203,5.062c-1.081-0.886-2.214-1.966-3.518-2.767
			c-0.308-0.189-1.194,0.565-1.814,0.886c-1.021,0.586-2.042,1.174-3.003,1.727c-0.186-4.363,0.366-5.42,4.897-7.166
			c1.06-0.408,2.601,0.435,4.524,0.825c0.151-0.72,0.854-2.121,0.614-3.336c-0.51-2.591-2.702-5.452-2.063-7.547
			c1.372-4.486-2.237-3.731-4.528-5.725c0,4.189,0,7.649,0,10.487c-1.772,0.464-3.989,0.442-5.199,1.534
			c-1.16,1.047-1.276,3.251-1.975,5.313c-1.326-0.698-3.129-1.306-4.431-2.474c-0.646-0.58-0.051-2.364-0.57-3.297
			c-1.993-3.583-4.165-7.054-3.29-11.246c1.054-0.566,2.008-1.079,2.961-1.591c-0.596-0.881-1.239-1.735-1.774-2.652
			c-0.604-1.034-1.466-2.084-1.591-3.197c-0.326-2.908-0.891-5.984-0.275-8.751c0.657-2.951,2.558-5.625,4.086-8.771
			c-5.018-1.744-4.241-6.624-4.123-11.217c0.155-6.025,0.39-12.05,0.536-18.076c0.069-2.833,0.012-5.669,0.012-8.333
			c1.486-0.56,2.506-0.944,3.524-1.328c0.322,2.511,0.474,5.066,1.098,7.5c0.146,0.57,1.891,0.731,2.899,1.08
			c-0.093-0.937,0.023-1.959-0.32-2.792c-0.691-1.67-1.635-3.235-2.474-4.844c0.921,0.647,1.843,1.295,2.111,1.484
			c2.599-1.001,4.945-1.906,7.548-2.909c0-0.679,0-2.015,0-3.351l-0.122,0.111c1.79-1.911,3.578-3.822,5.368-5.733
			c0.725-1.219,1.449-2.437,2.173-3.655c1.885-1.125,3.768-2.25,5.852-3.494c-1.919-0.984-3.506-1.8-5.092-2.614
			c-0.85-0.85-1.698-1.699-2.548-2.548c-1.132-1.989-2.266-3.978-3.084-5.414c0.892-1.492,2.22-2.769,2.371-4.171
			c0.279-2.593-2.124-1.962-3.688-2.431c-1.742-0.523-3.356-1.478-4.925-2.198c0.862-1.664,1.526-2.946,2.191-4.228
			c1.21-0.326,2.421-0.652,3.632-0.979c2.313-1.235,3.948-1.237,5.316,1.623c0.945,1.977,2.642,4.063,5.679,2.782
			c-0.762,3.942,2.083,5.551,4.548,6.607c1.804,0.772,2.353,1.333,2.71,3.208c0.209,1.098,2.154,1.866,3.318,2.782
			c0.293-0.544,0.587-1.088,0.88-1.632c1.372,0.661,2.744,1.323,3.487,1.681c0.551-2.902,0.961-5.062,1.329-6.997
			c-1.337,0.525-2.716,1.065-4.096,1.607c-0.252-2.006-0.17-3.569,1.428-5.455c2.277-2.689,3.585-6.22,5.202-9.443
			c1.313-2.617,6.567-2.918,10.346-0.757c2.031,1.162,4.323,1.867,7.283,3.107c2.513,4.299-3.835,3.472-5.136,5.844
			c1.285,1.031,2.423,1.943,3.559,2.856c-0.141,0.248-0.282,0.496-0.424,0.744c-0.794-0.281-1.588-0.563-2.382-0.844
			c-0.203,0.175-0.405,0.349-0.607,0.524c0.588,0.878,0.998,2.098,1.819,2.524c0.616,0.318,1.761-0.385,2.852-0.684
			c0.977,1.668,1.431,4.765,5.447,3.583c-0.603-0.702-1.025-1.195-1.458-1.699c0.966-0.556,1.927-1.11,2.89-1.665
			c-0.59-0.77-1.18-1.541-1.81-2.361c0.468-0.36,1.159-0.892,2.735-2.104c-2.686,0-4.313,0-5.941,0
			c-0.153-0.391-0.306-0.781-0.458-1.171c5.489,0.914,4.052-3.807,5.411-6.031c1.644-2.688,2.852-3.289,4.887-0.981
			c1.746,1.978,3.02,1.063,4.68-0.076c1.644-1.128,3.5-2.409,5.367-2.597c1.371-0.138,2.909,1.379,4.373,2.159
			c-0.675,1.09-1.35,2.179-2.229,3.6c1.066,0.327,2.247,0.688,4.101,1.253c0,5.272,0.158,10.725-0.099,16.159
			c-0.075,1.592-1.944,3.14-1.914,4.686c0.059,2.933,0.896,5.85,1.46,9.057c-3.196,2.361-2.92,5.727-0.632,9.649
			c1.583,2.713,0.837,6.827,0.861,10.317c0.001,0.248-2.268,0.839-3.409,0.695c-2.145-0.27-4.288-1.085-4.982,2.133
			c1.182,0.979,2.373,1.965,3.563,2.951c-0.086,0.176-0.172,0.353-0.258,0.529c-1.072-0.363-2.145-0.727-3.426-1.16
			c-0.495,0.881-1.008,1.797-1.898,3.386c2.869,0,5.143,0.113,7.4-0.028c2.647-0.167,3.764,0.865,3.21,3.505
			c-0.81,3.863-1.874,7.692-2.342,11.594c-0.177,1.463,1.013,3.09,1.659,4.861c-0.183,0.03-0.833,0.135-1.654,0.267
			c3.303,3.945,3.442,6.71,0.836,11.038c-0.255,0.422-0.309,1.073-0.218,1.574c0.358,1.986,0.545,4.064,1.297,5.903
			c1.017,2.484,0.61,4.958-1.621,5.537c-1.82,0.471-4.157-1.047-6.678-1.808c0.004-0.009-0.496,0.973-1.291,2.532
			c-1.048-2.542-1.856-4.5-2.664-6.458c0.555-2.755-1.869-5.486-0.069-8.251c1.464-1.773,2.928-3.546,4.391-5.32
			c-1.899-0.24-3.89-0.015-5.059,1.084c-0.868,0.816-3.117,2.53-0.536,4.25c-3.316,0.655-3.996,2.452-2.267,5.271
			c0.631,1.029,1.301,2.036,1.952,3.053c-1.378,0.292-2.757,0.584-4.136,0.876c0.86,2.06,1.72,4.119,2.889,6.919
			c-2.534,0.768-5.677,1.655-8.765,2.704c-0.675,0.229-1.213,0.981-1.714,1.576c-1.844,2.188-3.726,4.353-5.41,6.66
			c-0.46,0.631-0.666,2.221-0.303,2.511c0.659,0.526,1.929,0.724,2.768,0.473c0.953-0.285,1.714-1.211,2.467-1.788
			c1.834,1.313,3.729,2.671,5.626,4.028l-0.093-0.101c-0.725,2.131-1.451,4.262-2.227,6.542c-4.035-0.517-4.275,1.753-3.697,4.947
			c0.211,1.168-0.457,2.496-0.725,3.752c-0.089,0.274-0.178,0.548-0.268,0.822c-0.541,1.08-1.226,2.113-1.589,3.249
			c-0.509,1.586-0.947,3.238-1.058,4.887c-0.04,0.598,0.848,1.594,1.501,1.794c0.51,0.157,1.396-0.536,1.967-1.025
			c1.946-1.667,3.977-3.273,5.693-5.16c1.872-2.055,3.457-4.375,5.093-6.632c0.234-0.324,0.181-0.989,0.042-1.427
			c-1.22-3.873-1.258-7.245,3.394-8.897c0.203-0.072,0.146-0.878,0.211-1.342L523.533,137.363z M524.892,51.995
			c0.055-2.808-2.036-3.921-3.95-5.767c-0.493,3.914-0.493,3.914,4.054,5.658c1.874,2.255,3.75,4.51,5.624,6.764
			c0.326-0.168,0.651-0.337,0.977-0.505c-0.263-1.914-0.525-3.828-0.9-6.564C529.133,51.693,527.009,51.848,524.892,51.995z
			 M493.053,210.432c-2.796,0.645-4.778,3.696-3.682,6.029c0.828,1.759,1.983,2.859,3.817,0.596c1.96-2.42,1.224-4.515-0.194-6.744
			c2.792-2.071,4.168-4.682,2.288-8.523C493.698,204.362,493.006,207.261,493.053,210.432z M506.819,53.43
			c0.686,1.702,1.371,3.402,2.057,5.104c0.48-0.111,0.96-0.222,1.439-0.333c0.203-2.022,0.406-4.043,0.661-6.577
			c-2.164,0.956-3.22,1.422-4.277,1.89c-0.739-1.594-0.67-4.588-3.613-2.916c-1.61,0.916-2.652,2.83-3.95,4.294
			c-1.3,1.504-2.601,3.01-3.984,4.613c1.771,1.206,3.251,2.214,4.311,2.935c3.144-0.963,1.758-2.466,0.86-3.926
			c0.682-0.651,1.309-1.373,2.056-1.938C503.814,55.487,505.318,54.487,506.819,53.43z M497.814,78.727
			c-0.969-0.467-1.936-0.935-1.968-0.95c2.603-2.243,5.379-4.636,8.154-7.028c-0.59-0.658-1.181-1.316-1.771-1.974
			c-0.779-0.686-1.56-1.371-1.602-1.408c-3.366,1.393-6.134,2.537-9.411,3.892c-0.15,0.235-0.657,1.428-1.508,2.278
			c-2.821,2.822-2.817,3.232,0.573,5.145c-0.214,0.861-0.425,1.715-0.637,2.57c0.25,0.302,0.501,0.605,0.751,0.907
			c2.439-1.149,4.881-2.298,7.32-3.448c-1.055,1.768-2.11,3.535-3.286,5.503c6.111,0.011,6.111,0.011,6.986-7.072
			C498.215,77.151,498.215,77.151,497.814,78.727z M482.086,162.485c3.188-2.179,0.475-5.165,1.052-7.7
			c2.054-0.938,4.138-1.823,6.133-2.873c0.296-0.156,0.394-1.191,0.191-1.643c-0.193-0.429-0.867-0.796-1.388-0.898
			c-3.354-0.661-5.083,1.381-4.798,5.59c-1.673-2.028-3.768-3.708-5.916-1.131c-2.561,3.071-5.618,3.409-9.136,3.033
			c-0.718-0.077-1.519,0.026-2.199,0.271c-2.384,0.859-4.732,1.815-7.709,2.974c-0.857,0.969-2.315,2.618-3.149,3.56
			c0.428,2.414,0.925,4.376,1.088,6.366c0.177,2.158,0.04,4.341,0.04,7.026c2.228-2.431,3.867-4.219,5.583-6.091
			c-5.354-3.54,1.847-3.547,1.809-5.855c0.555,0.678,1.108,1.356,1.717,2.098c0.672-0.733,1.175-1.283,1.784-1.949
			c2.294,6.72,2.294,6.72,5.406,7.739c-0.55-0.922-0.919-1.541-1.626-2.729c1.687-0.311,3.472-0.138,4.535-0.931
			c3.069-2.288,5.716-1.91,8.343,0.496c0.679,0.621,1.218,1.396,1.82,2.1c-0.879,0.226-1.759,0.452-2.539,0.652
			c0,1.229,0,2.465,0,3.7c-0.82,2.133-1.988,4.216-2.304,6.421c-0.144,0.999,1.189,2.775,2.253,3.203
			c0.875,0.352,2.508-0.562,3.461-1.337c0.367-0.298-0.089-2.533-0.381-2.58c-4.081-0.656-2.26-3.151-1.763-5.238
			c0.823-0.561,2.162-0.968,2.384-1.708c1.365-4.562-1.831-7.715-6.563-10.512C480.838,163.854,481.462,163.17,482.086,162.485z
			 M258.813,157.928c0.431-1.698,1.562-3.758,1.316-5.638c-0.722-5.515,1.879-10.97,0.039-16.454
			c-0.541-1.61-0.826-3.306-1.229-4.962c-1.062,0.599-2.057,1.419-3.196,1.759c-6.997,2.08-13.36,5.456-19.61,9.14
			c-2.079,1.226-4.491,1.87-6.672,2.939c-7.147,3.503-14.36,6.896-21.325,10.736c-2.179,1.201-6.348,0.029-6.347,4.907
			c10.291-0.549,20.474-1.092,30.655-1.636c0.19-0.351,0.381-0.703,0.572-1.054c-2.384-2.015-4.768-4.03-7.151-6.045
			c0.248-0.435,0.496-0.869,0.743-1.303C237.031,152.779,247.453,155.242,258.813,157.928z M502.71,187.676
			c-0.526-0.755-1.616-1.783-1.43-2.134c2.194-4.139-2.007-5.18-3.601-7.37c-0.385-0.53-2.654-0.564-3.007-0.074
			c-0.933,1.302-1.995,3.165-1.708,4.53c0.398,1.886,1.987,3.521,2.921,5.029c-0.731,0.694-3.091,1.974-3.017,3.093
			c0.102,1.531,1.922,3.074,3.245,4.365c1.526,1.488,3.563,2.497,4.922,4.101c1.629,1.918,2.401,0.901,3.407-0.402
			c0.084-0.109,0.432-0.015,0.733-0.015c0.302,0.734,0.615,1.497,1.092,2.658c2.886-2.13,3.65-7.14,8.784-5.581
			c-1.246-1.095-2.4-2.162-3.338-1.996c-4.867,0.863-8.862,0.281-10.66-5.242C501.554,188.349,502.164,187.994,502.71,187.676z
			 M522.896,193.785c0.307-0.186,0.613-0.372,0.92-0.558c0-1.619-0.368-3.347,0.07-4.837c1.235-4.193-1.021-7.482-2.404-11.015
			c-0.406-1.036-0.831-2.081-1.399-3.032c-0.813-1.36-1.765-2.638-2.657-3.951c-1.4,1.439-4.077,3.042-3.919,4.282
			c0.28,2.205-0.884,2.035-1.969,2.684c-2.755,1.644-3.679,5.016-1.718,6.867c1.65,1.557,3.629,3.365,5.701,3.74
			C519.079,188.606,522.454,188.785,522.896,193.785z M492.134,99.281c-2.17,0.825-4.099,1.557-6.027,2.291
			c-0.32-1.451-0.47-2.97-1.004-4.337c-0.736-1.881,1.921-4.8-2.292-5.952c-0.408,5.613-5.972,0.632-8.409,4.487
			c2.131,0.306,3.795,0.546,4.955,0.712c-0.933,3.034-1.805,5.874-2.725,8.867c2.641-0.215,4.853-0.395,7.324-0.596
			c0.033,0.053,0.281,0.474,0.558,0.875c1.694,2.46,3.292,3.443,5.46,0.27c0.787-1.151,2.524-1.652,4.47-2.842
			C493.621,101.712,492.664,100.148,492.134,99.281z M531.729,76.401c-1.897,0.095-4.619-0.295-4.882,0.338
			c-0.917,2.204-0.982,4.762-1.488,7.915c-2.294,0.42-6.494-0.331-7.253,3.25c1.633,2.362,2.852,4.125,4.278,6.189
			c0.157-0.223,0.885-0.776,0.896-1.342c0.087-4.601,2.388-7.195,6.813-8.242c0.675-0.16,1.452-1.334,1.563-2.126
			C531.896,80.681,531.729,78.921,531.729,76.401z M475.531,113.141c-1.748,0.422-3.297,0.796-4.671,1.128
			c-0.884,1.57-1.707,3.034-2.598,4.616c1.191,0.918,2.4,1.85,2.914,2.248c0,1.709,0,2.888,0,4.067
			c-0.248-0.468-0.497-0.936-0.745-1.403c2.516-1.966,5.033-3.932,7.042-5.502C476.857,116.657,476.159,114.806,475.531,113.141z
			 M477.707,65.473c0-0.024,0-0.048,0-0.073c-2.617,0-5.238-0.091-7.845,0.069c-0.597,0.037-1.141,0.94-1.708,1.445
			c0.785,0.369,1.928,1.266,2.296,1.017c1.673-1.13,2.836-0.725,4.643,0.031c2.651,1.111,5.719,1.41,8.639,1.596
			c0.906,0.058,1.908-1.373,2.867-2.121c-0.848-0.655-1.633-1.75-2.552-1.875C481.968,65.278,479.824,65.473,477.707,65.473z
			 M499.545,175.612c1.601-2.061,2.817-3.618,4.024-5.183c0.594-0.768,1.791-2.083,1.656-2.239
			c-1.071-1.245-2.264-2.542-3.701-3.247c-0.697-0.342-2.179,0.319-2.979,0.945c-0.861,0.673-1.341,1.835-2.412,3.41
			C496.991,170.885,498.275,173.262,499.545,175.612z M481.935,195.411c0.794,2.426-3.196,5.611,1.51,7.416
			c4.706-2.907,5.897-4.944,4.879-8.498C486.298,194.672,484.262,195.017,481.935,195.411z M477.652,212.293
			c-1.336,3.134-2.56,6.007-3.991,9.37c3.445-0.174,5.642-0.286,7.838-0.397c-3.521-2.938,0.7-4.155,0.677-5.839
			C480.812,214.481,479.529,213.593,477.652,212.293z M465.429,204.328c-2.58-2.02-4.948-3.872-7.698-6.024
			c-0.194,2.901-0.404,6.036-0.669,9.989c0.529,0.335,1.71,1.081,2.821,1.782c0.177-2.156,0.282-3.449,0.389-4.742
			c1.168,0.167,2.337,0.333,3.708,0.527C464.407,205.409,465.062,204.716,465.429,204.328z M501.415,31.654
			c-1.023-2.43-2.701-4.642-2.718-6.867c-0.024-3.369-0.504-4.329-3.663-3.839c1.281,4.067-0.639,9.197,3.672,12.527
			C499.648,32.841,500.64,32.175,501.415,31.654z M506.9,88.547c2.375,0.736,3.704,4.567,6.158,2.938
			c0.651-2.807,1.065-4.588,1.469-6.322C509.078,84.436,508.987,84.473,506.9,88.547z M498.928,151.742
			c0.938-3.923,1.695-7.096,2.524-10.57c-0.289-0.201-1.011-0.702-1.535-1.065c-1.263,2.143-2.429,4.123-3.595,6.103
			c-0.479-0.431-0.959-0.86-1.438-1.292c0.606,0.366,1.212,0.731,1.823,1.101c-0.571,0.762-1.116,1.486-1.794,2.386
			C496.093,149.384,497.096,150.218,498.928,151.742z M526.294,214.648c-0.372,2.486-0.668,4.45-1.028,6.852
			c2.314-0.18,4.098-0.318,7.465-0.579c-5.592-2.329-1.732-3.94-0.686-6.579C529.709,214.467,527.976,214.559,526.294,214.648z
			 M516.275,79.715c1.414-1.321,2.682-2.192,3.467-3.384c0.347-0.525-0.025-1.92-0.537-2.528c-0.973-1.154-2.281-2.026-3.544-3.094
			c-4.633,2.413,0.854,4.252,1.24,6.657c-1.043-0.268-1.825-0.468-3.554-0.912C514.704,77.964,515.392,78.729,516.275,79.715z
			 M493.836,138.21c-0.259-0.16-0.518-0.32-0.777-0.48c-0.084-1.146-0.168-2.292-0.255-3.484c-3.506,0-6.969,0-10.432,0
			c-0.016,0.365-0.032,0.73-0.048,1.095c2.381,0.295,4.761,0.59,6.66,0.826c0.843,1.826,1.578,3.42,2.526,5.475
			C492.518,140.155,493.177,139.183,493.836,138.21z M499.164,99.127c3.103,0.141,5.975,0.271,8.847,0.403
			c0.048-0.441,0.095-0.882,0.143-1.323c-1.432-0.347-2.863-0.693-4.261-1.031c-0.065-0.916-0.121-1.708-0.173-2.433
			c-1.366,0.201-2.591,0.381-3.898,0.574C499.656,96.277,499.416,97.665,499.164,99.127z M517.572,212.224
			c-0.925,4.785-0.33,5.569,4.566,5.445c-0.3-1.327-0.584-2.583-0.885-3.907c0.795-0.46,1.639-0.949,2.482-1.438
			c-0.072-0.305-0.146-0.611-0.218-0.917C521.631,211.666,519.745,211.925,517.572,212.224z M509.65,210.333
			c1.589-4.044-1.723-5.036-3.113-7.872c-0.979,1.901-2.479,3.993-2.155,4.328C505.729,208.189,507.625,209.061,509.65,210.333z
			 M528.827,150.648c0.292,0.347,0.584,0.694,0.876,1.04c-1.996-1.296-3.993-2.592-6.56-4.259c-0.921,3.329,1.62,5.294,2.161,6.634
			C526.523,152.882,527.675,151.765,528.827,150.648z M482.435,77.453c-0.245-0.369-0.491-0.737-0.736-1.106
			c-2.281,0.606-4.563,1.213-7.321,1.947c1.602,1.865,2.566,2.99,3.583,4.174C479.703,80.515,481.068,78.984,482.435,77.453z
			 M280.495,134.381c-0.316-0.65-0.631-1.301-0.947-1.951c-1.615,0.677-3.263,1.289-4.818,2.082
			c-0.337,0.172-0.59,1.092-0.434,1.494c0.176,0.451,1.037,1.095,1.292,0.979C277.269,136.218,278.868,135.27,280.495,134.381z
			 M500.64,127.414c0.043-0.212,0.085-0.425,0.128-0.636c-1.217-1.274-2.351-2.648-3.698-3.761
			c-0.419-0.345-1.889-0.218-2.056,0.112c-0.313,0.614-0.281,2.075,0.058,2.236C496.85,126.211,498.77,126.76,500.64,127.414z
			 M484.878,47.184c1.904-1.02,3.741-2.003,5.626-3.012c-2.184-1.536-6.453-0.507-6.793,0.871
			C484.247,46.027,484.605,46.684,484.878,47.184z M521.094,204.778c-1.107,0.848-2.344,1.796-3.581,2.744
			c0.049,0.369,0.099,0.738,0.148,1.107c1.829,0.498,3.659,0.997,5.871,1.6C522.502,207.926,521.918,206.62,521.094,204.778z
			 M266.72,194.954c-0.277-0.097-0.554-0.193-0.831-0.29c-0.786,1.476-1.572,2.953-2.51,4.714c0.907,0.755,1.768,1.471,3.34,2.779
			C266.72,199.162,266.72,197.059,266.72,194.954z M467.817,89.916c-2.653,0-4.555,0-6.841,0c1.79,1.711,3.124,2.988,4.762,4.554
			C466.383,93.058,467.049,91.597,467.817,89.916z M283.387,136.494c-0.385-0.111-0.77-0.224-1.155-0.335
			c-1.138,1.191-2.276,2.382-3.506,3.67c1.806,0.458,2.896,0.734,4.445,1.126C283.247,139.394,283.316,137.944,283.387,136.494z
			 M527.531,32.298c-0.276,0.441-0.553,0.883-0.829,1.325c1.224,0.75,2.371,1.776,3.7,2.144c0.746,0.206,1.793-0.678,3.316-1.335
			C531.036,33.506,529.284,32.902,527.531,32.298z"/>
		<path fill-rule="evenodd" clip-rule="evenodd" d="M411.799,293.267c2.492-3.195,4.43-5.682,6.774-8.687
			c-33.912,0-67.35,0-100.788,0c-0.301,0.243-0.602,0.485-0.901,0.728c2.523,1.407,5.047,2.814,7.569,4.223
			c-0.531,0.679-1.063,1.358-1.595,2.038c-4.397,0.412-8.379-1.536-12.496-2.731c-5.266-1.527-10.552-2.987-15.804-4.562
			c-1.042-0.312-1.97-1.006-2.949-1.524c0.664-0.902,1.145-2.283,2.025-2.622c2.842-1.093,5.881-1.666,8.752-2.693
			c3.896-1.395,7.664-3.153,11.571-4.514c3.159-1.099,6.442-1.842,9.67-2.742c0.216,0.391,0.432,0.781,0.647,1.172
			c-2.23,2.583-4.459,5.167-7.171,8.31c33.935,0,66.867,0,100.71,0c-2.506-3.239-4.307-5.565-6.434-8.315
			c1.048-0.26,1.977-0.815,2.438-0.552c3.222,1.836,7.683,0.378,10.279,4.242c0.833,1.238,3.29,1.546,5.079,1.947
			c3.499,0.784,7.069,1.253,10.572,2.024c1.271,0.28,2.813,0.744,3.559,1.668c1.09,1.35,1.272,3.012-1.196,3.594
			c-4.308,1.015-8.686,1.858-12.856,3.287c-4.687,1.605-9.157,3.833-13.771,5.663C414.648,293.551,413.57,293.267,411.799,293.267z"
			/>
		<path fill-rule="evenodd" clip-rule="evenodd" d="M445.615,346.626c-2.155,0-4.31,0.002-6.464,0
			c-50.127-0.035-100.254-0.076-150.38-0.104c-17.5-0.009-35,0.067-52.5-0.032c-2.842-0.018-3.795,0.817-4.072,3.736
			c-0.837,8.813-1.96,17.604-3.188,26.374c-1.81,12.93-3.78,25.838-5.754,38.743c-0.26,1.697-0.026,4.437-2.742,3.881
			c-1.268-0.258-2.685-2.309-3.088-3.802c-1.357-5.032-2.13-10.222-3.458-15.263c-0.612-2.325-0.788-5.157-4.509-5.51
			c-2.27-0.215-2.128-2.528-0.61-3.57c1.53-1.051,3.65-1.69,5.482-1.628c0.729,0.025,1.573,2.355,2.023,3.747
			c1.029,3.188,1.75,6.475,2.819,9.646c0.269,0.799,1.378,1.314,2.709,2.502c0.249-2.087,0.398-3.285,0.533-4.484
			c1.424-12.625,2.767-25.259,4.303-37.87c0.674-5.526,1.779-11.001,2.613-16.51c0.401-2.652,2.153-2.934,4.353-2.93
			c20.372,0.031,40.744-0.004,61.116,0.018c46.124,0.049,92.249,0.119,138.373,0.184c3.122,0.005,6.25-0.07,9.362,0.102
			c1.117,0.062,2.199,0.745,3.298,1.145C445.762,345.543,445.688,346.085,445.615,346.626z"/>
		<path fill-rule="evenodd" clip-rule="evenodd" d="M425.587,372.495c8.957-6.104,10.291-8.758,6.117-12.747
			c-1.872,1.51-3.79,3.056-5.707,4.602c-0.352-0.039-0.702-0.078-1.054-0.116c0.134-1.741-0.374-4.409,0.532-5.036
			c2.066-1.433,5.01-2.905,7.269-2.505c6.377,1.131,7.605,5.543,3.497,10.584c-1.677,2.058-3.321,4.141-5.289,6.598
			c1.938,0.19,3.557,0.156,5.052,0.569c0.911,0.251,1.633,1.19,2.439,1.821c-0.712,0.673-1.34,1.786-2.151,1.941
			c-3.146,0.604-6.35,0.902-9.581,1.321c-0.6,15.206,1.117,30.859-10.585,43.246c8.612-22.813,8.264-45.455-0.864-68.014
			C418.844,354.513,420.306,357.079,425.587,372.495z"/>
		<path fill-rule="evenodd" clip-rule="evenodd" d="M245.439,353.767c-1.579,5.36-3.66,10.635-4.601,16.104
			c-1.005,5.844-1.233,11.872-1.253,17.821c-0.021,5.824,0.137,11.742,1.155,17.45c1.021,5.718,3.202,11.228,4.948,17.072
			c-2.656,0.381-3.784-2.155-4.657-4.119c-6.654-14.966-8.797-30.688-5.238-46.624c1.416-6.336,3.292-13.245,8.59-18.023
			C244.735,353.555,245.087,353.66,245.439,353.767z"/>
		<path fill-rule="evenodd" clip-rule="evenodd" d="M347.27,392.741c0-3.604-0.129-7.216,0.091-10.807
			c0.054-0.89,1.234-1.709,1.896-2.562c0.626,0.902,1.443,1.732,1.813,2.729c0.278,0.749-0.031,1.712-0.056,2.579
			c-0.069,2.436,1.221,2.993,3.37,2.498c6.906-1.592,12.254,3.648,11.094,10.846c-1.209,7.494-5.291,10.245-12.476,8.465
			c-0.807-0.201-1.707-0.221-2.535-0.107c-2.536,0.348-3.341-0.865-3.286-3.211c0.081-3.476,0.021-6.953,0.021-10.43
			C347.225,392.741,347.247,392.741,347.27,392.741z M360.52,396.852c0.049-4.16-1.773-7.101-4.344-7.008
			c-3.109,0.112-5.021,2.714-5.008,6.815c0.013,3.943,2.37,7.135,5.355,7.248C358.825,403.995,360.469,401.092,360.52,396.852z"/>
		<path fill-rule="evenodd" clip-rule="evenodd" d="M246.075,394.753c-1.09-1.433-2.538-2.508-2.582-3.637
			c-0.041-1.031,1.224-2.472,2.287-3.124c3.817-2.342,7.919-3.189,11.79-0.252c1.189,0.903,2.213,2.638,2.415,4.115
			c0.583,4.263,0.831,8.588,0.887,12.893c0.009,0.686-1.566,1.802-2.557,2.007c-2.021,0.417-4.25-0.014-6.203,0.557
			c-4.535,1.325-9.937-2.016-9.913-6.349c0.015-2.651,1.319-4.263,3.752-4.898c2.521-0.66,5.13-0.993,7.642-1.68
			c0.896-0.244,2.174-1.032,2.27-1.713c0.1-0.709-0.842-1.905-1.63-2.341C250.978,388.534,248.578,389.709,246.075,394.753z
			 M250.793,404.551c1.794-1.143,3.408-1.831,4.499-3.005c0.566-0.608,0.208-2.075,0.267-3.155c-1.47,0.055-2.941,0.098-4.411,0.173
			c-0.366,0.019-0.724,0.19-1.091,0.209c-1.612,0.085-3.35,0.465-2.634,2.465C247.863,402.467,249.447,403.287,250.793,404.551z"/>
		<path fill-rule="evenodd" clip-rule="evenodd" d="M78.524,107c-1.174,1.06-2.378,2.401-3.824,3.387
			c-1.703,1.161-3.48,0.862-3.289-1.505c0.236-2.929,1.147-5.808,1.817-8.697c0.303-1.304,0.727-2.58,0.42-4.661
			c-1.417,0.842-3.272,1.365-4.165,2.589c-2.116,2.901-3.841,6.1-5.594,9.25c-0.981,1.765-1.131,4.388-4.413,3.317
			c-0.624-2.4-0.022-4.32,1.167-6.782c1.706-3.533,3.57-7.697,0.373-12.151c2.485-0.161,4.186-0.271,6.145-0.397
			c0.188,1.386,0.345,2.552,0.595,4.398c1.742-1.195,2.974-2.424,4.456-2.958c1.802-0.65,4.021-1.327,5.651-0.779
			c0.828,0.278,1.295,3.327,0.97,4.929c-0.452,2.224-2.17,4.194-2.6,6.417C76.038,104.356,77.655,105.703,78.524,107z"/>
		<path fill-rule="evenodd" clip-rule="evenodd" d="M246.145,64.638c-3.756,1.332-4.706,4.507-5.324,8.046
			c-0.552,3.166-1.426,6.282-2.279,9.386c-0.633,2.303-2.563,4.71,0.321,6.684c2.121,1.451,7.257-0.113,8.958-2.478
			c0.498-0.691,0.977-1.396,1.499-2.143c1.907,2.707,0.332,7.45-2.541,7.575c-4.858,0.212-9.733,0.177-14.593,0.01
			c-0.563-0.019-1.694-1.708-1.515-2.313c1.461-4.954,3.257-9.808,4.773-14.747c1.053-3.427,3.522-6.677,1.63-10.602
			c-0.135-0.28,0.265-0.94,0.57-1.292C239.283,60.874,244.841,61.976,246.145,64.638z"/>
		<path fill-rule="evenodd" clip-rule="evenodd" d="M374.576,296.292c-0.963,3.242-1.527,6.681-2.997,9.675
			c-1.606,3.271-1.856,4.106,1.044,6.692c-2.209,1.615-4.014,3.561-7.064,1.162c-0.722-0.567-2.75,0.311-4.087,0.78
			c-4.323,1.517-7.493-0.597-6.725-5.149c0.993-5.88,2.479-11.833,9.536-13.606c1.037-0.26,2.18-0.264,3.256-0.174
			c1.859,0.155,3.705,0.476,5.556,0.727C373.589,296.362,374.082,296.327,374.576,296.292z M367.86,298.865
			c-5.21-1.045-9.654,3.959-9.068,10.324c0.082,0.894,0.572,2.383,1.079,2.477c1.105,0.203,2.976,0.092,3.425-0.605
			C365.679,307.362,369.671,304.151,367.86,298.865z"/>
		<path fill-rule="evenodd" clip-rule="evenodd" d="M45.411,103.989c0.766,1.067,1.749,2.436,2.698,3.76
			c1.37-0.769,2.439-1.504,3.612-1.992c1.203-0.5,2.507-0.756,3.767-1.119c0.457,2.536-3.044,6.306-6.365,6.292
			c-2.241-0.01-4.822,1.147-6.643-1.775c-2.277-3.654-2.495-7.93-0.57-10.832c2.347-3.539,5.593-7.596,10.974-6.967
			c1.596,0.186,4.456,1.557,4.384,2.002c-0.357,2.203-0.935,5.007-2.503,6.229C52.246,101.551,48.888,102.436,45.411,103.989z
			 M46.465,99.244c0.251,0.366,0.503,0.733,0.754,1.099c2.293-1.58,4.587-3.16,7.01-4.828
			C51.145,92.826,47.823,94.679,46.465,99.244z"/>
		<path fill-rule="evenodd" clip-rule="evenodd" d="M395.622,381.641c1.444,1.376,2.441,2.432,3.55,3.354
			c0.957,0.795,2.579,2.252,2.969,1.995c1.223-0.809,2.336-2.177,2.794-3.559c0.188-0.567-1.348-1.787-2.205-2.598
			c-0.905-0.855-2.57-1.469-2.729-2.39c-0.146-0.852,1.277-1.96,1.984-2.972c0.447-0.639,0.851-1.308,1.902-2.938
			c-2.144,0.428-3.359,0.413-4.3,0.915c-1.602,0.855-3.293,2.724-4.605,0.331c-0.375-0.685,1.362-3.088,2.634-4.012
			c3.86-2.808,8.468-1.717,9.377,2.354c0.944,4.224,1.354,8.628,1.436,12.963c0.064,3.382-4.097,6.053-7.58,5.41
			C396.718,389.732,394.354,386.425,395.622,381.641z"/>
		<path fill-rule="evenodd" clip-rule="evenodd" d="M107.888,107.286c2.269-0.978,4.475-1.929,6.682-2.879
			c0.324,0.246,0.649,0.492,0.974,0.738c-0.672,0.99-1.185,2.161-2.054,2.928c-1.242,1.097-2.627,2.272-4.16,2.757
			c-5.033,1.59-9.594-2.208-9.069-7.496c0.596-5.996,6.132-11.936,11.983-11.834c1.48,0.026,4.191,1.05,4.192,1.62
			c0.004,2.166-0.193,5.101-1.576,6.316c-2.007,1.766-5.107,2.288-7.737,3.352c-0.641,0.259-1.754,0.519-1.788,0.861
			c-0.067,0.697,0.318,1.552,0.769,2.153C106.583,106.439,107.354,106.859,107.888,107.286z M113.277,94.812
			c-5.251-0.845-6.997,0.354-7.34,4.71C109.916,100.609,111.612,98.103,113.277,94.812z"/>
		<path fill-rule="evenodd" clip-rule="evenodd" d="M382.479,388.166c-0.695,0.997-1.072,2.036-1.485,2.051
			c-3.961,0.141-7.932,0.177-11.89,0.005c-0.348-0.016-1.154-2.034-0.832-2.588c1.069-1.832,2.507-3.462,3.898-5.089
			c1.661-1.941,3.649-3.651,5.021-5.769c0.535-0.827,0.138-3.331-0.469-3.591c-1.134-0.484-2.803-0.106-4.11,0.328
			c-1.103,0.366-2.011,1.32-4.168,2.826c0.255-2.486-0.141-4.626,0.662-5.268c1.923-1.537,4.603-3.521,6.615-3.181
			c2.233,0.377,5.58,1.404,5.944,5.013c0.306,3.03,0.777,6.051-2.607,7.823c-0.111,0.059-0.237,0.113-0.313,0.205
			c-1.352,1.634-2.697,3.274-4.043,4.913c1.83,0.502,3.664,0.994,5.49,1.513C380.777,387.523,381.339,387.76,382.479,388.166z"/>
		<path fill-rule="evenodd" clip-rule="evenodd" d="M299.052,372.525c-1.531,0.403-3.056,0.837-4.598,1.195
			c-0.894,0.208-1.814,0.294-2.724,0.435c0.01-1.171-0.439-2.666,0.116-3.45c1.544-2.184,3.744-3.634,6.639-2.975
			c2.609,0.595,5.28,4.068,4.802,6.56c-0.455,2.369-0.742,4.158,1.303,6.27c0.981,1.013,0.765,4.661-0.312,5.848
			c-1.629,1.798-4.414,3.243-6.829,3.453c-2.674,0.232-5.874-0.679-6.178-4.437c-0.076-0.938,0.625-1.938,0.97-2.911
			c0.875,0.674,1.718,1.395,2.632,2.008c1.219,0.818,2.494,1.554,3.744,2.324c0.763-1.313,1.918-2.564,2.135-3.962
			c0.124-0.792-1.112-2.104-2.045-2.697c-3.108-1.979-3.178-2.631-0.177-5.07c0.43-0.35,0.647-0.958,0.963-1.447
			C299.346,373.288,299.199,372.907,299.052,372.525z"/>
		<path fill-rule="evenodd" clip-rule="evenodd" d="M48.096,83.918c-0.996,0.177-2.339,0.847-2.921,0.437
			c-1.622-1.144-2.948-1.906-4.18,0.256c-1.177,2.065-3.671,3.937-1.755,6.687c1.292,1.854,0.634,2.114-0.941,3.485
			c-1.933,1.681-2.799,4.728-3.801,7.31c-1.579,4.07-2.823,8.269-4.366,12.354c-0.294,0.779-1.316,1.283-2.003,1.914
			c-0.116-1.06-0.523-2.185-0.3-3.167c1.173-5.169,2.512-10.301,3.776-15.45c0.147-0.601,0.432-1.329,0.229-1.824
			c-0.534-1.303-2.103-2.806-1.779-3.685c0.432-1.174,2.429-1.673,3.457-2.746c2.697-2.813,5.12-5.897,7.903-8.616
			c0.834-0.815,2.606-1.271,3.745-1.009c1.252,0.288,2.271,1.593,3.391,2.455C48.4,82.852,48.248,83.385,48.096,83.918z"/>
		<path fill-rule="evenodd" clip-rule="evenodd" d="M278.755,389.101c-4.648,2.705-9.521,0.53-14.662,0.796
			c0.819-4.249,2.242-7.018,5.769-8.661c3.233-1.507,4.857-4.195,3.922-8.037c-3.292-1.927-5.462,0.354-7.702,2.366
			c-0.351-0.129-0.701-0.258-1.051-0.388c0.37-1.7,0.195-3.932,1.226-4.988c2.047-2.1,4.825-3.832,7.965-2.146
			c5.298,2.845,5.935,7.46,1.776,11.808c-1.366,1.428-2.97,2.631-4.285,4.1c-0.558,0.622-0.962,1.713-0.833,2.492
			c0.072,0.441,1.347,0.913,2.11,0.968c1.907,0.138,3.83,0.046,5.747,0.046C278.743,388.003,278.749,388.552,278.755,389.101z"/>
		<path fill-rule="evenodd" clip-rule="evenodd" d="M165.197,403.958c-1.536,1.674-2.088,2.809-2.67,2.825
			c-4.957,0.136-9.924,0.156-14.875-0.063c-0.563-0.024-1.492-1.736-1.505-2.678c-0.099-7.33-0.09-14.665,0.105-21.993
			c0.025-0.938,1.313-1.841,2.015-2.759c0.55,1.044,1.535,2.07,1.577,3.135c0.223,5.604,0.342,11.222,0.223,16.828
			c-0.066,3.06,1.357,3.824,4.058,3.89C157.47,403.225,160.81,403.618,165.197,403.958z"/>
		<path fill-rule="evenodd" clip-rule="evenodd" d="M207.707,378.697c2.241,1.008,3.551,1.948,4.963,2.139
			c1.587,0.214,3.266-0.248,4.905-0.416c-0.686-1.614-1.208-3.33-2.123-4.802c-0.491-0.791-1.656-1.163-1.605-1.13
			c0.898-2.27,1.53-3.865,2.161-5.46c-0.99-0.185-2.023-0.633-2.957-0.478c-0.826,0.138-1.481,1.128-2.322,1.404
			c-0.755,0.248-1.661,0.038-2.5,0.029c0.019-1.047-0.31-2.272,0.123-3.104c1.123-2.161,6.284-3.195,8.853-1.993
			c4.005,1.876,4.637,3.331,3.4,7.287c-0.213,0.684-0.041,1.65,0.293,2.313c2.531,5.022,0.297,10.33-5.021,11.764
			C213.054,387.012,209.045,383.82,207.707,378.697z"/>
		<path fill-rule="evenodd" clip-rule="evenodd" d="M93.453,94.485c-4.601-0.078-8.485,4.498-7.405,9.485
			c0.167,0.769,1.437,1.868,2.164,1.844c2.568-0.086,5.121-0.595,7.888-0.973c0.38,3.539-3.108,4.619-5.311,5.695
			c-1.869,0.913-5.594,0.789-6.851-0.492c-1.668-1.702-2.235-4.944-2.386-7.575c-0.306-5.334,4.04-8.041,7.709-10.38
			c1.947-1.242,5.29-0.567,7.939-0.239c0.644,0.079,1.498,2.248,1.389,3.373c-0.08,0.829-1.562,2.088-2.434,2.1
			C95.418,97.333,94.66,95.829,93.453,94.485z"/>
		<path fill-rule="evenodd" clip-rule="evenodd" d="M317.791,396.067c2.753-0.153,5.166-0.288,8.14-0.454
			c0-1.846-0.205-3.684,0.083-5.441c0.154-0.944,1.156-1.75,1.775-2.618c0.675,0.805,1.765,1.531,1.934,2.431
			c0.314,1.672,0.091,3.444,0.091,5.421c2.951,0.229,5.501,0.428,8.051,0.626c0.119,0.444,0.238,0.889,0.356,1.333
			c-1.449,0.432-2.926,1.293-4.345,1.205c-3.075-0.19-4.508,0.81-4.074,3.985c0.051,0.369,0.159,0.838-0.006,1.107
			c-0.556,0.903-1.223,1.738-1.847,2.599c-0.63-0.843-1.604-1.61-1.811-2.548c-0.309-1.41-0.08-2.938-0.08-4.036
			C323.569,397.339,319.531,400.502,317.791,396.067z"/>
		<path fill-rule="evenodd" clip-rule="evenodd" d="M196.627,400.469c-1.604,0.653-3.179,1.763-4.82,1.871
			c-4.206,0.279-8.454,0.3-12.656,0.005c-1.164-0.082-2.225-1.628-3.333-2.502c1.103-0.703,2.181-1.965,3.312-2.014
			c4.712-0.207,9.442-0.108,14.161,0.023c1.007,0.028,1.997,0.668,2.995,1.026C196.399,399.409,196.514,399.938,196.627,400.469z"/>
		<path fill-rule="evenodd" clip-rule="evenodd" d="M185.812,390.912c2.479,0,4.99-0.224,7.426,0.104
			c1.076,0.145,2.002,1.406,2.996,2.161c-0.853,0.759-1.687,2.146-2.562,2.173c-5.317,0.159-10.646,0.085-15.961-0.145
			c-0.609-0.026-1.624-1.526-1.592-2.308c0.03-0.724,1.159-1.932,1.893-2.002c2.58-0.248,5.197-0.096,7.799-0.096
			C185.812,390.837,185.812,390.875,185.812,390.912z"/>
		<path fill-rule="evenodd" clip-rule="evenodd" d="M393.841,366.813c-3.396,10.181-6.793,20.363-10.19,30.545
			c-2.007-4.444,6.002-29.896,8.923-31.09C392.996,366.449,393.418,366.631,393.841,366.813z"/>
		<path fill-rule="evenodd" clip-rule="evenodd" d="M485.01,17.286c-1.42,0.18-3.414,0.437-5.408,0.686
			c-2.932,0.366-4.473-1.079-4.291-4.017c0.273-4.42,5.858-6.565,10.396-3.985c0.43,0.243,0.811,0.571,0.684,0.48
			C485.936,12.705,485.538,14.669,485.01,17.286z"/>
		<path fill-rule="evenodd" clip-rule="evenodd" d="M278.395,396.361c1.16-4.647,2.292-9.302,3.487-13.939
			c1.207-4.685,2.393-9.38,3.79-14.009c0.278-0.921,1.467-1.566,2.236-2.339c0.364,1.045,1.252,2.24,1.003,3.11
			c-1.173,4.104-2.781,8.081-3.996,12.174c-1.235,4.163-2.132,8.426-3.312,12.607c-0.303,1.072-1.111,2.003-1.688,2.999
			C279.409,396.764,278.902,396.563,278.395,396.361z"/>
		<path fill-rule="evenodd" clip-rule="evenodd" d="M461.236,12.857c-1.211,0.327-2.422,0.652-3.633,0.979
			c-1.028-0.306-2.232-0.372-3.054-0.965c-2.327-1.682-4.445-1.201-5.291,1.413l0.115-0.079c-0.595-1.45-1.189-2.899-1.658-4.041
			c4.049-3.406,7.802-2.83,11.771-1.618C461.746,9.236,462.533,10.618,461.236,12.857z"/>
		<path fill-rule="evenodd" clip-rule="evenodd" d="M528.393,168.681c-0.043-0.084-0.087-0.164-0.131-0.239
			c-0.186-0.884-0.372-1.769-0.63-2.993c1.646,0.804,2.784,1.359,3.92,1.914c0.393-1.234,0.564-2.611,1.244-3.66
			c0.598-0.922,1.762-1.476,2.677-2.193c0.205,0.268,0.41,0.535,0.615,0.801c-0.544,2.194-1.089,4.388-1.688,6.799
			C532.705,167.452,530.346,172.26,528.393,168.681z"/>
		<path fill-rule="evenodd" clip-rule="evenodd" fill="#FFFFFF" d="M523.475,103.515c-1.8,2.765,0.624,5.496,0.069,8.251
			c-0.53,0.028-1.061,0.058-1.589,0.086c-0.65-1.017-1.32-2.023-1.951-3.052c-1.729-2.818-1.05-4.616,2.266-5.271
			C522.671,103.524,523.072,103.519,523.475,103.515z"/>
		<path fill-rule="evenodd" clip-rule="evenodd" d="M444.801,266.058c-0.577-0.336-1.487-0.57-1.569-0.974
			c-0.2-0.988-0.172-2.097,0.101-3.063c0.086-0.308,1.775-0.521,1.809-0.433c0.384,1.03,0.7,2.114,0.817,3.207
			c0.126,1.153,0.062,2.333-0.003,3.497c-0.056,1.001-0.227,1.995-0.346,2.993c-0.762-0.199-2.066-0.245-2.175-0.629
			c-0.251-0.894,0.003-1.963,0.196-2.933C443.716,267.303,444.153,266.951,444.801,266.058z"/>
		<path fill-rule="evenodd" clip-rule="evenodd" d="M515.378,135.813c0.786-1.439,1.573-2.878,2.562-4.687
			c1.896,2.114,3.744,4.176,5.594,6.237l0.09-0.141c-2.925,0.299-5.977,1.303-8.338-1.51L515.378,135.813z"/>
		<path fill-rule="evenodd" clip-rule="evenodd" d="M290.124,275.219c-0.306-1.66-0.745-3.311-0.853-4.984
			c-0.045-0.707,0.436-1.68,1-2.122c0.458-0.358,1.845-0.368,2.027-0.062c0.364,0.613,0.537,1.986,0.173,2.279
			c-1.835,1.476-0.716,2.35,0.196,3.673c0.388,0.563-0.256,1.982-0.687,2.892c-0.178,0.375-1.307,0.752-1.517,0.568
			c-0.557-0.483-0.849-1.272-1.245-1.939C289.521,275.422,289.822,275.32,290.124,275.219z"/>
		<path fill-rule="evenodd" clip-rule="evenodd" fill="#FFFFFF" d="M484.408,24.519c1.38-0.542,2.759-1.082,4.096-1.607
			c-0.368,1.935-0.778,4.095-1.329,6.997c-0.743-0.358-2.115-1.02-3.487-1.681C483.928,26.991,484.168,25.755,484.408,24.519z"/>
		<path fill-rule="evenodd" clip-rule="evenodd" d="M521.629,256.595c-0.988,1.039-1.846,1.939-2.703,2.841
			c-0.518-1.552-1.035-3.104-1.512-4.53c0.583-0.306,0.729-0.433,0.781-0.401C519.229,255.118,520.254,255.752,521.629,256.595z"/>
		<path fill-rule="evenodd" clip-rule="evenodd" d="M442.77,276.543c0.688-1.043,1.376-2.085,2.336-3.541
			c0.728,1.502,1.187,2.45,2.035,4.203c-1.454,0.234-2.721,0.439-3.987,0.645C443.026,277.414,442.898,276.979,442.77,276.543z"/>
		<path fill-rule="evenodd" clip-rule="evenodd" fill="#FFFFFF" d="M459.817,138.751c-1.267,2.039-2.447,4.137-3.825,6.097
			c-1.18,1.678-2.585,3.195-4.358,5.352c2.304,0.441,3.447,0.659,4.59,0.877c0.305,0.396,0.611,0.793,0.917,1.189
			c-1.401,0.971-2.802,1.941-4.575,3.169c-1.633-2.605-3.076-4.908-4.52-7.211c0.272-0.323,0.546-0.645,0.82-0.967
			c-1.212,0-2.424,0-4.119,0c0.866,3.145,1.635,5.937,2.442,8.87c-2.981,2.811-4.307,12.232-1.711,15.671
			c0.668,0.885,2.488,0.92,3.791,1.301c1.139,0.332,2.399,0.428,3.376,1.013c0.257,0.154-0.054,2.045-0.625,2.574
			c-0.591,0.545-1.882,0.243-2.752,0.595c-1.695,0.686-4.456,1.3-4.72,2.427c-0.525,2.234-1.624,5.215,1.318,7.075
			c4.366,2.762,4.593,5.119,0.801,8.091c-2.554,2.001-2.152,5.139,1.105,7.317c-1.892,3.889-4.152,7.876-0.604,12.702
			c0.4-1.055,0.721-1.631,0.835-2.246c0.543-2.91,2.139-3.712,4.846-2.594c1.53,0.633,3.107,1.151,4.939,1.823
			c-1.846,4.209,3.087,4.272,4.556,6.675c0.681,1.114,1.396,2.208,2.095,3.311c-0.321,0.247-0.642,0.494-0.963,0.741
			c-1.968-1.766-3.936-3.532-5.56-4.989c-2.631,0.17-5.127,0.854-7.362,0.36c-3.737-0.826-5.825,0.97-7.967,3.425
			c-0.603,0.69-1.809,1.21-2.734,1.207c-22.18-0.095-44.358-0.348-66.539-0.404c-13.624-0.035-27.25,0.246-40.875,0.319
			c-12.188,0.065-24.376-0.073-36.561,0.119c-4.111,0.065-3.736-3.168-4.879-5.416c-1.057-2.077-2.094-4.192-3.419-6.095
			c-1.285-1.845-1.514-3.338,0.574-4.561c2.835-1.66,3.394-3.693,1.375-6.382c-0.331-0.442-0.573-1.119-0.52-1.654
			c0.479-4.803,1.297-9.588,1.488-14.4c0.201-5.031-0.162-10.085-0.335-15.128c-0.021-0.584-0.297-1.221-0.622-1.724
			c-1.529-2.367-3.116-4.696-4.885-7.338c4.323-1.634,7.155-3.668,5.277-8.473c-0.355-0.909,0.208-2.199,0.413-3.301
			c0.412-2.207,0.062-3.841-2.042-5.333c-2.906-2.059-2.717-4.323-0.08-6.591c0.621-0.535,1.333-1.18,1.563-1.913
			c0.658-2.104,1.092-4.277,1.877-7.51c-1.702,1.06-2.976,1.853-4.419,2.753c-1.293-2.123-3.012-3.524-5.564-1.124
			c-0.22,0.207-0.898,0.082-1.283-0.081c-0.632-0.266-1.221-1.028-1.79-0.991c-3.65,0.237-7.29,0.637-11.381,1.025
			c0.072-0.42-0.079-1.658,0.406-2.005c2.449-1.75,4.967-3.458,7.642-4.83c6.282-3.223,12.628-6.331,19.021-9.329
			c7.03-3.296,14.189-6.317,21.204-9.644c7.684-3.644,15.281-7.475,22.89-11.277c6.206-3.101,12.336-6.354,18.568-9.4
			c5.977-2.92,12.681-4.827,17.827-8.788c3.154-2.428,6.515-3.664,9.813-5.299c6.743-3.345,13.698-6.26,20.471-9.547
			c1.643-0.798,2.757-2.678,4.396-3.495c3.032-1.51,6.357-2.428,9.409-3.906c7.037-3.408,14.383-6.417,20.808-10.764
			c3.425-2.317,6.542-1.133,9.709-1.924c-0.888,2.253-1.047,5.022-4.303,5.526c-0.498,0.077-1.076,1.061-1.229,1.717
			c-0.647,2.777,1.976,7.209,4.691,8.13c-0.013,0.13-0.024,0.261-0.037,0.39l-0.268,0.085c-1.019,0.384-2.038,0.768-3.524,1.328
			c0,2.664,0.058,5.499-0.012,8.333c-0.146,6.026-0.381,12.05-0.536,18.076c-0.118,4.594-0.895,9.473,4.123,11.217
			c-1.528,3.146-3.429,5.82-4.086,8.771c-0.615,2.768-0.051,5.843,0.275,8.751c0.125,1.113,0.987,2.163,1.591,3.197
			c0.535,0.917,1.179,1.771,1.774,2.652c-0.953,0.513-1.907,1.025-2.961,1.591c-0.875,4.191,1.297,7.663,3.29,11.246
			c0.52,0.933-0.076,2.717,0.57,3.297c1.302,1.168,3.104,1.776,4.431,2.474c0.698-2.062,0.814-4.266,1.975-5.313
			c1.21-1.092,3.427-1.07,5.199-1.534c0-2.838,0-6.298,0-10.487c2.291,1.993,5.9,1.238,4.528,5.725
			c-0.64,2.095,1.553,4.956,2.063,7.547c0.24,1.215-0.463,2.616-0.614,3.336c-1.924-0.39-3.465-1.233-4.524-0.825
			c-4.531,1.746-5.083,2.803-4.897,7.166c0.961-0.553,1.981-1.141,3.003-1.727L459.817,138.751z M318.201,154.884
			c0.287,0.189,0.575,0.377,0.863,0.566c0,13.092,0,26.184,0,39.276c-0.312,0.121-0.623,0.243-0.935,0.364
			c-1.268-1.687-2.413-3.491-3.854-5.014c-0.735-0.777-2.001-1.053-3.026-1.557c-0.212,1.13-0.854,2.403-0.539,3.358
			c0.517,1.564,1.995,2.819,2.477,4.386c2.106,6.865,4.087,13.773,5.918,20.717c0.543,2.061,1.256,3.17,3.391,2.54
			c3.281-10.283,6.529-20.462,9.777-30.641c-0.475-0.243-0.949-0.487-1.424-0.73c-2.281,2.295-4.562,4.591-7.388,7.436
			c0-14.035,0-27.108,0-41.236c3.38,2.946,6.024,5.251,8.668,7.556c0.34-0.127,0.679-0.254,1.018-0.381
			c-1.247-3.737-2.104-7.667-3.825-11.172c-3.203-6.521-5.145-13.369-6.17-20.474c-0.418-2.9-1.614-2.808-3.302-2.165
			c-0.497,2.8-0.665,5.312-1.407,7.64c-2.35,7.372-4.979,14.654-7.332,22.024c-0.427,1.336-0.061,2.925-0.061,4.397
			c0.364,0.033,0.728,0.065,1.092,0.098C314.162,159.543,316.182,157.213,318.201,154.884z M348.261,153.87
			c-0.459,3.569-0.552,6.724-1.322,9.704c-1.194,4.617-2.775,9.142-4.344,13.653c-0.94,2.706-0.396,5.348,1.874,6.44
			c2.062,0.99,5.392,1.498,7.152,0.478c3.091-1.791,6.129-4.496,7.909-7.561c4.273-7.357,0.967-12.75-7.365-12.962
			c-0.226-0.006-0.446-0.171-0.997-0.396c0.599-2.934,1.21-5.929,1.908-9.356C351.104,153.87,349.253,153.87,348.261,153.87z
			 M452.203,140.545c0.856-3.616-0.149-4.772-3.841-4.547c0.152,1.536,0.3,3.019,0.419,4.207
			C449.947,140.321,451.07,140.432,452.203,140.545z"/>
		<path fill-rule="evenodd" clip-rule="evenodd" fill="#FFFFFF" d="M258.813,157.928c-11.36-2.686-21.782-5.149-32.205-7.612
			c-0.248,0.435-0.495,0.869-0.743,1.303c2.383,2.015,4.767,4.03,7.151,6.045c-0.19,0.352-0.381,0.703-0.572,1.054
			c-10.182,0.543-20.365,1.087-30.655,1.636c-0.001-4.878,4.168-3.707,6.347-4.907c6.965-3.839,14.177-7.233,21.325-10.736
			c2.181-1.069,4.593-1.713,6.672-2.939c6.25-3.684,12.613-7.06,19.61-9.14c1.139-0.339,2.134-1.16,3.196-1.759
			c0.403,1.656,0.688,3.352,1.229,4.962c1.84,5.484-0.76,10.939-0.039,16.454C260.375,154.169,259.244,156.23,258.813,157.928z"/>
		<path fill-rule="evenodd" clip-rule="evenodd" fill="#FFFFFF" d="M480.215,164.539c4.731,2.796,7.928,5.95,6.563,10.512
			c-0.222,0.74-1.561,1.147-2.384,1.708c-0.422-0.156-0.844-0.312-1.267-0.469c0-1.235,0-2.471,0-3.7
			c0.78-0.201,1.66-0.426,2.539-0.652c-0.603-0.704-1.142-1.479-1.82-2.1c-2.627-2.406-5.273-2.784-8.343-0.496
			c-1.063,0.793-2.849,0.62-4.535,0.931c0.707,1.188,1.076,1.806,1.626,2.729c-3.112-1.02-3.112-1.02-5.406-7.739
			c-0.609,0.666-1.112,1.215-1.784,1.949c-0.608-0.742-1.162-1.42-1.717-2.098c0.038,2.308-7.163,2.315-1.809,5.855
			c-1.716,1.873-3.355,3.661-5.583,6.091c0-2.686,0.137-4.869-0.04-7.026c-0.163-1.99-0.66-3.952-1.088-6.366
			c0.834-0.942,2.292-2.59,3.149-3.56c2.977-1.159,5.325-2.115,7.709-2.974c0.681-0.245,1.481-0.348,2.199-0.271
			c3.518,0.376,6.575,0.038,9.136-3.033c2.148-2.577,4.243-0.897,5.915,1.13c-0.001,0-0.138-0.175-0.138-0.175
			c-0.577,2.536,2.137,5.521-1.052,7.7c1.329-2.623-0.85-3.931-2.095-5.588c-0.856,0.982-1.653,2.024-2.583,2.931
			c-0.949,0.924-2.028,1.716-2.782,2.344C475.93,165.425,477.857,165.652,480.215,164.539z"/>
		<path fill-rule="evenodd" clip-rule="evenodd" d="M448.551,53.569c-2.716-0.921-5.339-5.354-4.691-8.13
			c0.152-0.656,0.73-1.64,1.229-1.717c3.256-0.503,3.415-3.273,4.303-5.526l-0.125,0.114c3.169-0.32,6.338-0.641,9.121-0.922
			c0.463-1.485,0.973-3.12,1.481-4.755c0.278,0.356,0.557,0.712,0.835,1.068c1.346-0.474,2.69-0.949,4.036-1.422
			c0.85,0.849,1.698,1.699,2.548,2.548c-0.254,2.036-0.507,4.073-0.76,6.108c-0.724,1.218-1.448,2.437-2.173,3.655
			c-3.587,0.227-5.39,2.126-5.368,5.733l0.122-0.111c-0.706-0.621-1.413-1.241-2.277-2.002c0,1.138,0,2.151,0,2.929
			C453.981,51.976,451.266,52.772,448.551,53.569z"/>
		<path fill-rule="evenodd" clip-rule="evenodd" fill="#FFFFFF" d="M464.739,32.279c-1.346,0.474-2.69,0.949-4.036,1.422
			c-0.278-0.356-0.557-0.712-0.835-1.068c-0.509,1.635-1.019,3.27-1.481,4.755c-2.783,0.281-5.952,0.602-9.121,0.922
			c-0.001-0.247-0.085-0.67,0.009-0.714c3.623-1.693,2.945-5.036,2.838-7.969c-0.036-0.999-1.126-2.24-2.07-2.854
			c-1.153-0.75-2.66-0.957-4.285-1.487c2.679-2.333,4.546-9.088,3.502-11.002c0.846-2.614,2.964-3.094,5.291-1.413
			c0.821,0.593,2.025,0.659,3.055,0.965c-0.665,1.282-1.329,2.564-2.191,4.228c1.568,0.72,3.183,1.675,4.925,2.198
			c1.564,0.469,3.968-0.162,3.688,2.431c-0.151,1.403-1.479,2.679-2.371,4.171C462.474,28.301,463.607,30.29,464.739,32.279z"/>
		<path fill-rule="evenodd" clip-rule="evenodd" fill="#FFFFFF" d="M502.71,187.676c-0.546,0.317-1.156,0.672-1.655,0.962
			c1.798,5.523,5.793,6.105,10.66,5.242c0.938-0.166,2.092,0.901,3.338,1.996c-5.134-1.559-5.898,3.45-8.784,5.581
			c-0.477-1.161-0.79-1.923-1.092-2.658c-0.302,0-0.649-0.094-0.733,0.015c-1.006,1.303-1.778,2.321-3.407,0.402
			c-1.359-1.604-3.396-2.612-4.922-4.101c-1.323-1.292-3.144-2.834-3.245-4.365c-0.074-1.119,2.285-2.399,3.017-3.093
			c-0.934-1.507-2.522-3.143-2.921-5.029c-0.287-1.365,0.775-3.228,1.708-4.53c0.353-0.491,2.622-0.457,3.007,0.074
			c1.594,2.19,5.795,3.23,3.601,7.37C501.094,185.894,502.184,186.921,502.71,187.676z"/>
		<path fill-rule="evenodd" clip-rule="evenodd" fill="#FFFFFF" d="M522.896,193.785c-0.442-5-3.817-5.178-7.375-5.82
			c-2.072-0.375-4.051-2.183-5.701-3.74c-1.961-1.852-1.037-5.224,1.718-6.867c1.085-0.648,2.249-0.479,1.969-2.684
			c-0.158-1.241,2.519-2.843,3.919-4.282c0.893,1.313,1.845,2.591,2.657,3.951c0.568,0.951,0.993,1.996,1.399,3.032
			c1.383,3.533,3.64,6.822,2.404,11.015c-0.438,1.49-0.07,3.218-0.07,4.837C523.51,193.413,523.203,193.599,522.896,193.785z"/>
		<path fill-rule="evenodd" clip-rule="evenodd" fill="#FFFFFF" d="M515.285,135.712c2.361,2.813,5.413,1.809,8.338,1.51
			c-0.064,0.463-0.008,1.27-0.211,1.342c-4.651,1.653-4.613,5.024-3.394,8.897c0.139,0.438,0.192,1.103-0.042,1.427
			c-1.636,2.258-3.221,4.578-5.093,6.632c-1.717,1.886-3.747,3.493-5.693,5.16c-0.57,0.489-1.457,1.182-1.967,1.025
			c-0.653-0.201-1.541-1.196-1.501-1.794c0.11-1.648,0.549-3.3,1.058-4.887c0.363-1.136,1.048-2.169,1.586-3.235
			c1.131,2.479,4.075,4.143,5.156,2.669c-0.517-0.486-1.056-0.992-1.648-1.549c0.876-0.505,1.534-0.884,2.193-1.264
			c-0.069-0.418-0.138-0.836-0.206-1.253c-1.741,0.187-3.483,0.374-5.225,0.561c0.268-1.256,0.936-2.584,0.725-3.752
			c-0.578-3.194-0.338-5.464,3.697-4.947C513.834,139.974,514.561,137.843,515.285,135.712z"/>
		<path fill-rule="evenodd" clip-rule="evenodd" fill="#FFFFFF" d="M492.134,99.281c0.53,0.867,1.487,2.431,2.31,3.776
			c-1.945,1.19-3.683,1.691-4.47,2.842c-2.168,3.173-3.766,2.19-5.46-0.27c-0.276-0.401-0.524-0.822-0.558-0.875
			c-2.472,0.201-4.684,0.381-7.324,0.596c0.92-2.993,1.792-5.833,2.725-8.867c-1.16-0.167-2.824-0.406-4.955-0.712
			c2.438-3.855,8.001,1.126,8.409-4.487c4.213,1.151,1.556,4.071,2.292,5.952c0.534,1.368,0.684,2.886,1.004,4.337
			C488.035,100.838,489.964,100.106,492.134,99.281z"/>
		<path fill-rule="evenodd" clip-rule="evenodd" fill="#FFFFFF" d="M497.718,78.711c-2.439,1.149-4.881,2.298-7.32,3.447
			c-0.25-0.302-0.501-0.605-0.751-0.907c0.212-0.855,0.423-1.709,0.637-2.57c-3.391-1.913-3.395-2.322-0.573-5.145
			c0.851-0.851,1.357-2.043,1.508-2.278c3.277-1.355,6.045-2.499,9.411-3.892c0.042,0.037,0.822,0.722,1.602,1.408
			c0.59,0.658,1.181,1.315,1.771,1.974c-2.775,2.392-5.552,4.786-8.154,7.028c0.032,0.016,0.999,0.483,1.967,0.948
			C497.813,78.723,497.718,78.711,497.718,78.711z"/>
		<path fill-rule="evenodd" clip-rule="evenodd" fill="#FFFFFF" d="M531.729,76.401c0,2.52,0.166,4.28-0.072,5.982
			c-0.111,0.792-0.889,1.967-1.563,2.126c-4.425,1.047-6.726,3.642-6.813,8.242c-0.012,0.566-0.739,1.12-0.896,1.342
			c-1.427-2.064-2.646-3.827-4.278-6.189c0.759-3.582,4.959-2.83,7.253-3.25c0.506-3.153,0.571-5.711,1.488-7.915
			C527.11,76.106,529.832,76.496,531.729,76.401z"/>
		<path fill-rule="evenodd" clip-rule="evenodd" fill="#FFFFFF" d="M459.913,138.863c0.62-0.321,1.507-1.075,1.814-0.886
			c1.304,0.801,2.437,1.881,3.518,2.767c0.41-1.728,0.807-3.395,1.203-5.062c0.392,0.014,0.783,0.027,1.176,0.041
			c0.349,1.435,0.698,2.869,1.109,4.56c0.473-0.413,0.859-1.029,1.323-1.093c0.817-0.112,1.682,0.113,2.525,0.196
			c-0.465,0.565-0.869,1.197-1.406,1.681c-1.97,1.771-3.985,3.494-5.852,5.12c-1.362,0-2.935,0-5.139,0
			c0.315-1.334,0.701-2.971,1.087-4.607c0.688-0.333,1.375-0.667,2.063-1c-1.173-0.61-2.347-1.22-3.519-1.829
			C459.817,138.751,459.913,138.863,459.913,138.863z"/>
		<path fill-rule="evenodd" clip-rule="evenodd" fill="#FFFFFF" d="M475.531,113.141c0.628,1.666,1.326,3.517,1.942,5.153
			c-2.009,1.57-4.526,3.536-7.042,5.502c0.248,0.467,0.497,0.936,0.745,1.403c0-1.179,0-2.358,0-4.067
			c-0.514-0.397-1.723-1.329-2.914-2.248c0.891-1.582,1.714-3.046,2.598-4.616C472.234,113.937,473.783,113.563,475.531,113.141z"/>
		<path fill-rule="evenodd" clip-rule="evenodd" fill="#FFFFFF" d="M477.707,65.473c2.117,0,4.261-0.195,6.34,0.089
			c0.919,0.125,1.704,1.22,2.552,1.875c-0.959,0.749-1.961,2.179-2.867,2.121c-2.92-0.186-5.987-0.485-8.639-1.596
			c-1.807-0.756-2.97-1.162-4.643-0.031c-0.368,0.249-1.511-0.647-2.296-1.017c0.567-0.505,1.111-1.408,1.708-1.445
			c2.606-0.16,5.228-0.069,7.845-0.069C477.707,65.425,477.707,65.449,477.707,65.473z"/>
		<path fill-rule="evenodd" clip-rule="evenodd" fill="#FFFFFF" d="M499.545,175.612c-1.27-2.35-2.554-4.727-3.411-6.314
			c1.071-1.574,1.551-2.736,2.412-3.41c0.8-0.625,2.281-1.287,2.979-0.945c1.438,0.705,2.63,2.002,3.701,3.247
			c0.135,0.156-1.063,1.471-1.656,2.239C502.362,171.994,501.146,173.551,499.545,175.612z"/>
		<path fill-rule="evenodd" clip-rule="evenodd" fill="#FFFFFF" d="M481.935,195.411c2.327-0.394,4.363-0.739,6.389-1.082
			c1.019,3.554-0.173,5.591-4.879,8.498C478.738,201.022,482.729,197.837,481.935,195.411z"/>
		<path fill-rule="evenodd" clip-rule="evenodd" fill="#FFFFFF" d="M477.652,212.293c1.877,1.3,3.159,2.188,4.523,3.134
			c0.023,1.684-4.198,2.902-0.677,5.839c-2.196,0.111-4.393,0.223-7.838,0.397C475.093,218.3,476.316,215.427,477.652,212.293z"/>
		<path fill-rule="evenodd" clip-rule="evenodd" fill="#FFFFFF" d="M465.429,204.328c-0.367,0.388-1.021,1.081-1.449,1.532
			c-1.371-0.195-2.54-0.361-3.708-0.527c-0.106,1.293-0.212,2.586-0.389,4.742c-1.111-0.702-2.292-1.447-2.821-1.782
			c0.265-3.953,0.475-7.088,0.669-9.989C460.48,200.456,462.849,202.309,465.429,204.328z"/>
		<path fill-rule="evenodd" clip-rule="evenodd" fill="#FFFFFF" d="M501.415,31.654c-0.775,0.521-1.767,1.188-2.709,1.821
			c-4.311-3.33-2.391-8.46-3.672-12.527c3.159-0.49,3.639,0.47,3.663,3.839C498.714,27.012,500.392,29.224,501.415,31.654z"/>
		<path fill-rule="evenodd" clip-rule="evenodd" d="M480.215,164.539c-2.357,1.113-4.285,0.886-5.589-2.368
			c0.754-0.628,1.833-1.42,2.782-2.344c0.93-0.907,1.727-1.948,2.583-2.931c1.245,1.658,3.424,2.966,2.095,5.588
			C481.462,163.17,480.838,163.854,480.215,164.539z"/>
		<path fill-rule="evenodd" clip-rule="evenodd" fill="#FFFFFF" d="M506.9,88.547c2.087-4.074,2.178-4.111,7.627-3.385
			c-0.403,1.734-0.817,3.515-1.469,6.322C510.604,93.114,509.275,89.283,506.9,88.547z"/>
		<path fill-rule="evenodd" clip-rule="evenodd" fill="#FFFFFF" d="M498.928,151.742c-1.832-1.524-2.835-2.357-4.014-3.337
			c0.678-0.9,1.223-1.625,1.794-2.386c-0.611-0.369-1.217-0.735-1.823-1.101c0.479,0.431,0.958,0.861,1.438,1.292
			c1.166-1.98,2.332-3.96,3.595-6.103c0.524,0.364,1.246,0.865,1.535,1.065C500.623,144.646,499.865,147.818,498.928,151.742z"/>
		<path fill-rule="evenodd" clip-rule="evenodd" fill="#FFFFFF" d="M497.718,78.711c0,0,0.096,0.012,0.096,0.014
			c0.401-1.574,0.401-1.574,3.604-1.583c-0.875,7.083-0.875,7.083-6.986,7.072C495.607,82.245,496.663,80.478,497.718,78.711z"/>
		<path fill-rule="evenodd" clip-rule="evenodd" fill="#FFFFFF" d="M448.551,53.569c2.715-0.796,5.431-1.593,8.28-2.43
			c0-0.777,0-1.791,0-2.929c0.864,0.761,1.571,1.381,2.277,2.002c0,1.335,0,2.672,0,3.351c-2.603,1.003-4.949,1.908-7.548,2.909
			c-0.269-0.189-1.19-0.837-2.111-1.484c-0.312-0.343-0.624-0.687-0.936-1.029C448.526,53.83,448.538,53.699,448.551,53.569z"/>
		<path fill-rule="evenodd" clip-rule="evenodd" fill="#FFFFFF" d="M526.294,214.648c1.682-0.089,3.415-0.182,5.751-0.306
			c-1.047,2.639-4.906,4.25,0.686,6.579c-3.367,0.261-5.15,0.399-7.465,0.579C525.626,219.099,525.922,217.134,526.294,214.648z"/>
		<path fill-rule="evenodd" clip-rule="evenodd" fill="#FFFFFF" d="M483.127,176.29c0.423,0.157,0.845,0.313,1.267,0.469
			c-0.497,2.087-2.318,4.583,1.763,5.238c0.292,0.047,0.748,2.282,0.381,2.58c-0.953,0.775-2.586,1.688-3.461,1.337
			c-1.063-0.427-2.396-2.204-2.253-3.203C481.139,180.506,482.307,178.423,483.127,176.29z"/>
		<path fill-rule="evenodd" clip-rule="evenodd" fill="#FFFFFF" d="M516.275,79.715c-0.884-0.985-1.571-1.751-2.928-3.261
			c1.729,0.444,2.511,0.645,3.554,0.912c-0.387-2.405-5.873-4.244-1.24-6.657c1.263,1.068,2.571,1.94,3.544,3.094
			c0.512,0.607,0.884,2.003,0.537,2.528C518.957,77.522,517.689,78.394,516.275,79.715z"/>
		<path fill-rule="evenodd" clip-rule="evenodd" fill="#FFFFFF" d="M493.836,138.21c-0.659,0.973-1.318,1.945-2.325,3.432
			c-0.948-2.055-1.684-3.648-2.526-5.475c-1.899-0.236-4.279-0.531-6.66-0.826c0.016-0.365,0.032-0.73,0.048-1.095
			c3.463,0,6.926,0,10.432,0c0.087,1.192,0.171,2.338,0.255,3.484C493.318,137.89,493.577,138.051,493.836,138.21z"/>
		<path fill-rule="evenodd" clip-rule="evenodd" fill="#FFFFFF" d="M499.136,54.893c1.298-1.464,2.34-3.378,3.95-4.294
			c2.943-1.673,2.874,1.322,3.613,2.916l0.096-0.064c-1.477,1.038-2.98,2.038-4.417,3.127c-0.747,0.565-1.374,1.287-2.056,1.938
			C499.927,57.307,499.531,56.1,499.136,54.893z"/>
		<path fill-rule="evenodd" clip-rule="evenodd" fill="#FFFFFF" d="M493.014,210.342c1.398,2.2,2.135,4.294,0.175,6.714
			c-1.834,2.263-2.989,1.163-3.817-0.596c-1.097-2.333,0.886-5.384,3.682-6.029L493.014,210.342z"/>
		<path fill-rule="evenodd" clip-rule="evenodd" fill="#FFFFFF" d="M499.164,99.127c0.252-1.462,0.492-2.85,0.657-3.809
			c1.308-0.193,2.532-0.373,3.898-0.574c0.052,0.725,0.107,1.517,0.173,2.433c1.397,0.337,2.829,0.684,4.261,1.031
			c-0.048,0.441-0.095,0.882-0.143,1.323C505.139,99.399,502.267,99.269,499.164,99.127z"/>
		<path fill-rule="evenodd" clip-rule="evenodd" fill="#FFFFFF" d="M517.572,212.224c2.173-0.299,4.059-0.558,5.946-0.817
			c0.072,0.306,0.146,0.612,0.218,0.917c-0.844,0.489-1.688,0.977-2.482,1.438c0.301,1.324,0.585,2.581,0.885,3.907
			C517.242,217.793,516.647,217.009,517.572,212.224z"/>
		<path fill-rule="evenodd" clip-rule="evenodd" fill="#FFFFFF" d="M509.65,210.333c-2.025-1.272-3.922-2.144-5.269-3.544
			c-0.324-0.335,1.177-2.427,2.155-4.328C507.928,205.298,511.239,206.289,509.65,210.333z"/>
		<path fill-rule="evenodd" clip-rule="evenodd" fill="#FFFFFF" d="M528.827,150.648c-1.152,1.117-2.304,2.234-3.522,3.415
			c-0.541-1.34-3.082-3.305-2.161-6.634c2.566,1.667,4.563,2.962,6.56,4.259C529.411,151.342,529.119,150.995,528.827,150.648z"/>
		<path fill-rule="evenodd" clip-rule="evenodd" fill="#FFFFFF" d="M524.885,52.002c2.124-0.154,4.248-0.309,5.811-0.422
			c0.375,2.736,0.638,4.65,0.9,6.564c-0.325,0.168-0.65,0.337-0.977,0.505c-1.874-2.254-3.75-4.509-5.624-6.764L524.885,52.002z"/>
		<path fill-rule="evenodd" clip-rule="evenodd" fill="#FFFFFF" d="M499.136,54.893c0.396,1.207,0.791,2.414,1.187,3.622
			c0.897,1.46,2.283,2.963-0.86,3.926c-1.06-0.721-2.54-1.729-4.311-2.935C496.535,57.902,497.836,56.397,499.136,54.893z"/>
		<path fill-rule="evenodd" clip-rule="evenodd" fill="#FFFFFF" d="M483.138,154.785c0,0,0.137,0.174,0.138,0.175
			c-0.284-4.208,1.444-6.25,4.799-5.589c0.521,0.102,1.194,0.469,1.388,0.898c0.202,0.452,0.104,1.487-0.191,1.643
			C487.275,152.962,485.191,153.846,483.138,154.785z"/>
		<path fill-rule="evenodd" clip-rule="evenodd" fill="#FFFFFF" d="M482.435,77.453c-1.366,1.531-2.731,3.062-4.475,5.015
			c-1.017-1.184-1.981-2.309-3.583-4.174c2.759-0.734,5.04-1.34,7.321-1.947C481.943,76.716,482.189,77.084,482.435,77.453z"/>
		<path fill-rule="evenodd" clip-rule="evenodd" fill="#FFFFFF" d="M448.514,53.959c0.312,0.343,0.624,0.687,0.936,1.029
			c0.839,1.609,1.782,3.174,2.474,4.844c0.344,0.832,0.228,1.855,0.32,2.792c-1.009-0.349-2.754-0.51-2.899-1.08
			c-0.624-2.434-0.775-4.989-1.098-7.5L448.514,53.959z"/>
		<path fill-rule="evenodd" clip-rule="evenodd" d="M508.637,150.952c1.741-0.187,3.483-0.374,5.225-0.561
			c0.068,0.417,0.137,0.835,0.206,1.253c-0.659,0.379-1.317,0.759-2.193,1.264c0.593,0.557,1.132,1.063,1.648,1.549
			c-1.081,1.474-4.025-0.19-5.156-2.669C508.459,151.5,508.548,151.226,508.637,150.952z"/>
		<path fill-rule="evenodd" clip-rule="evenodd" fill="#FFFFFF" d="M523.475,103.515c-0.402,0.004-0.804,0.009-1.205,0.015
			c-2.58-1.72-0.331-3.434,0.537-4.25c1.169-1.099,3.159-1.324,5.059-1.084C526.402,99.968,524.938,101.741,523.475,103.515z"/>
		<path fill-rule="evenodd" clip-rule="evenodd" fill="#FFFFFF" d="M280.495,134.381c-1.626,0.889-3.226,1.836-4.907,2.603
			c-0.255,0.116-1.116-0.528-1.292-0.979c-0.156-0.401,0.097-1.321,0.434-1.494c1.555-0.793,3.203-1.405,4.818-2.082
			C279.863,133.081,280.179,133.731,280.495,134.381z"/>
		<path fill-rule="evenodd" clip-rule="evenodd" fill="#FFFFFF" d="M506.699,53.514c1.058-0.467,2.113-0.934,4.277-1.89
			c-0.255,2.533-0.458,4.555-0.661,6.577c-0.479,0.11-0.959,0.222-1.439,0.333c-0.686-1.701-1.371-3.402-2.069-5.093
			C506.795,53.449,506.699,53.514,506.699,53.514z"/>
		<path fill-rule="evenodd" clip-rule="evenodd" fill="#FFFFFF" d="M466.527,40.936c0.253-2.036,0.506-4.072,0.76-6.108
			c1.586,0.814,3.173,1.63,5.092,2.614C470.295,38.686,468.412,39.811,466.527,40.936z"/>
		<path fill-rule="evenodd" clip-rule="evenodd" fill="#FFFFFF" d="M500.64,127.414c-1.87-0.653-3.79-1.203-5.568-2.049
			c-0.339-0.162-0.371-1.623-0.058-2.236c0.167-0.33,1.637-0.457,2.056-0.112c1.348,1.112,2.481,2.487,3.698,3.761
			C500.725,126.989,500.683,127.201,500.64,127.414z"/>
		<path fill-rule="evenodd" clip-rule="evenodd" fill="#FFFFFF" d="M493.053,210.432c-0.047-3.171,0.646-6.07,2.229-8.642
			c1.88,3.841,0.504,6.452-2.278,8.538C493.014,210.342,493.053,210.432,493.053,210.432z"/>
		<path fill-rule="evenodd" clip-rule="evenodd" fill="#FFFFFF" d="M484.878,47.184c-0.272-0.5-0.631-1.156-1.167-2.142
			c0.34-1.378,4.609-2.406,6.793-0.871C488.619,45.181,486.782,46.164,484.878,47.184z"/>
		<path fill-rule="evenodd" clip-rule="evenodd" fill="#FFFFFF" d="M521.094,204.778c0.824,1.842,1.408,3.148,2.438,5.452
			c-2.212-0.603-4.042-1.102-5.871-1.6c-0.05-0.369-0.1-0.738-0.148-1.107C518.75,206.574,519.986,205.626,521.094,204.778z"/>
		<path fill-rule="evenodd" clip-rule="evenodd" fill="#FFFFFF" d="M266.72,194.954c0,2.104,0,4.208,0,7.204
			c-1.572-1.308-2.433-2.023-3.34-2.779c0.938-1.762,1.724-3.238,2.51-4.714C266.167,194.761,266.443,194.857,266.72,194.954z"/>
		<path fill-rule="evenodd" clip-rule="evenodd" fill="#FFFFFF" d="M467.817,89.916c-0.769,1.681-1.435,3.142-2.079,4.554
			c-1.638-1.566-2.972-2.843-4.762-4.554C463.263,89.916,465.164,89.916,467.817,89.916z"/>
		<path fill-rule="evenodd" clip-rule="evenodd" fill="#FFFFFF" d="M283.387,136.494c-0.071,1.45-0.14,2.9-0.216,4.461
			c-1.549-0.393-2.639-0.668-4.445-1.126c1.23-1.288,2.368-2.479,3.506-3.67C282.617,136.271,283.002,136.383,283.387,136.494z"/>
		<path fill-rule="evenodd" clip-rule="evenodd" fill="#FFFFFF" d="M458.986,50.324c-0.021-3.607,1.781-5.506,5.368-5.733
			C462.564,46.501,460.776,48.413,458.986,50.324z"/>
		<path fill-rule="evenodd" clip-rule="evenodd" fill="#FFFFFF" d="M527.531,32.298c1.753,0.604,3.505,1.208,6.188,2.134
			c-1.523,0.657-2.57,1.541-3.316,1.335c-1.329-0.368-2.477-1.394-3.7-2.144C526.979,33.181,527.255,32.739,527.531,32.298z"/>
		<path fill-rule="evenodd" clip-rule="evenodd" fill="#FFFFFF" d="M524.995,51.885c-4.547-1.744-4.547-1.744-4.054-5.658
			c1.914,1.846,4.005,2.959,3.946,5.771C524.885,52.002,524.995,51.885,524.995,51.885z"/>
		<path fill-rule="evenodd" clip-rule="evenodd" fill="#FFFFFF" d="M360.52,396.852c-0.051,4.24-1.694,7.144-3.996,7.056
			c-2.985-0.113-5.343-3.305-5.355-7.248c-0.013-4.102,1.898-6.703,5.008-6.815C358.746,389.751,360.568,392.691,360.52,396.852z"/>
		<path fill-rule="evenodd" clip-rule="evenodd" fill="#FFFFFF" d="M250.793,404.551c-1.346-1.264-2.93-2.084-3.37-3.313
			c-0.716-2,1.022-2.38,2.634-2.465c0.367-0.019,0.725-0.19,1.091-0.209c1.47-0.075,2.94-0.118,4.411-0.173
			c-0.059,1.08,0.3,2.547-0.267,3.155C254.201,402.72,252.587,403.408,250.793,404.551z"/>
		<path fill-rule="evenodd" clip-rule="evenodd" fill="#FFFFFF" d="M367.86,298.865c1.811,5.286-2.182,8.497-4.564,12.195
			c-0.449,0.697-2.319,0.809-3.425,0.605c-0.507-0.094-0.997-1.583-1.079-2.477C358.206,302.824,362.65,297.82,367.86,298.865z"/>
		<path fill-rule="evenodd" clip-rule="evenodd" fill="#FFFFFF" d="M46.465,99.244c1.358-4.565,4.68-6.418,7.764-3.729
			c-2.423,1.668-4.717,3.249-7.01,4.828C46.968,99.977,46.716,99.61,46.465,99.244z"/>
		<path fill-rule="evenodd" clip-rule="evenodd" fill="#FFFFFF" d="M113.277,94.812c-1.665,3.291-3.361,5.797-7.34,4.71
			C106.28,95.166,108.026,93.967,113.277,94.812z"/>
		<path fill-rule="evenodd" clip-rule="evenodd" d="M318.201,154.884c-2.02,2.329-4.039,4.659-6.06,6.989
			c-0.364-0.033-0.728-0.065-1.092-0.098c0-1.472-0.366-3.061,0.061-4.397c2.354-7.371,4.982-14.652,7.332-22.024
			c0.742-2.328,0.91-4.839,1.407-7.64c1.688-0.643,2.884-0.735,3.302,2.165c1.025,7.105,2.967,13.953,6.17,20.474
			c1.721,3.505,2.578,7.435,3.825,11.172c-0.339,0.126-0.678,0.254-1.018,0.381c-2.644-2.305-5.288-4.61-8.668-7.556
			c0,14.127,0,27.201,0,41.236c2.826-2.844,5.106-5.14,7.388-7.436c0.475,0.243,0.949,0.487,1.424,0.73
			c-3.248,10.179-6.496,20.358-9.777,30.641c-2.135,0.63-2.848-0.479-3.391-2.54c-1.831-6.944-3.812-13.852-5.918-20.717
			c-0.481-1.567-1.96-2.822-2.477-4.386c-0.315-0.955,0.327-2.228,0.539-3.358c1.025,0.503,2.291,0.779,3.026,1.557
			c1.441,1.523,2.587,3.327,3.854,5.014c0.312-0.122,0.623-0.243,0.935-0.364c0-13.092,0-26.184,0-39.276
			C318.776,155.261,318.488,155.073,318.201,154.884z"/>
		<path fill-rule="evenodd" clip-rule="evenodd" d="M348.261,153.87c0.992,0,2.844,0,4.815,0c-0.698,3.427-1.31,6.422-1.908,9.356
			c0.551,0.224,0.771,0.39,0.997,0.396c8.332,0.212,11.639,5.604,7.365,12.962c-1.78,3.065-4.818,5.77-7.909,7.561
			c-1.761,1.02-5.091,0.513-7.152-0.478c-2.271-1.092-2.814-3.734-1.874-6.44c1.568-4.511,3.149-9.036,4.344-13.653
			C347.709,160.593,347.802,157.438,348.261,153.87z M357.441,170.845c-0.456-0.688-1.107-2.786-2.345-3.222
			c-1.17-0.413-3.703,0.488-4.324,1.567c-1.679,2.916-3.036,6.145-3.802,9.418c-0.669,2.857,1.671,3.293,3.834,2.704
			C354.568,180.287,357.472,175.959,357.441,170.845z"/>
		<path fill-rule="evenodd" clip-rule="evenodd" d="M452.203,140.545c-1.133-0.113-2.256-0.224-3.422-0.34
			c-0.119-1.188-0.267-2.671-0.419-4.207C452.054,135.772,453.06,136.929,452.203,140.545z"/>
		<path fill-rule="evenodd" clip-rule="evenodd" fill="#FFFFFF" d="M357.441,170.845c0.03,5.114-2.873,9.441-6.637,10.467
			c-2.163,0.59-4.503,0.153-3.834-2.704c0.766-3.273,2.123-6.502,3.802-9.418c0.621-1.079,3.154-1.979,4.324-1.567
			C356.334,168.06,356.985,170.157,357.441,170.845z"/>
	</g>
</g>
</svg>
