<?xml version="1.0" encoding="utf-8"?>
<!-- Generator: Adobe Illustrator 16.0.0, SVG Export Plug-In . SVG Version: 6.00 Build 0)  -->
<!DOCTYPE svg PUBLIC "-//W3C//DTD SVG 1.1//EN" "http://www.w3.org/Graphics/SVG/1.1/DTD/svg11.dtd">
<svg version="1.1" id="Layer_1" xmlns="http://www.w3.org/2000/svg" xmlns:xlink="http://www.w3.org/1999/xlink" x="0px" y="0px"
	 width="471.815px" height="479.316px" viewBox="0 0 471.815 479.316" enable-background="new 0 0 471.815 479.316"
	 xml:space="preserve">
<g>
	<g>
		<path fill-rule="evenodd" clip-rule="evenodd" fill="#FFFFFF" d="M0.75,480.067c0-159.772,0-319.545,0-479.317
			c157.272,0,314.544,0,471.816,0c0,159.772,0,319.545,0,479.317C315.294,480.067,158.022,480.067,0.75,480.067z M379.063,109.798
			c-1.999-0.748-3.524-0.846-4.212-1.655c-3.268-3.849-7.975-5.084-12.263-6.991c-5.463-2.43-10.945-5.104-16.703-6.514
			c-8.896-2.179-18.028-3.395-27.066-4.982c-8.267-1.451-16.492-3.477-24.824-4.145c-18.22-1.458-36.549-1.039-54.732-3.652
			c-7.938-1.141-16.122-1.081-24.173-0.837c-14.764,0.446-29.513,1.4-44.266,2.204c-9.708,0.529-19.416,1.103-29.115,1.772
			c-7.774,0.537-15.585,0.89-23.292,1.961c-12.778,1.775-25.504,3.949-38.212,6.186c-5.478,0.964-11.003,2.073-16.235,3.896
			c-5.692,1.983-11.438,4.297-16.479,7.529c-4.938,3.166-9.488,7.224-9.101,14.323c0.435,7.961,0.515,15.947,0.543,23.923
			c0.087,24.424,0.043,48.848,0.112,73.271c0.049,17.383,0.161,34.767,0.34,52.148c0.033,3.218,1.278,6.596,0.621,9.605
			c-0.929,4.252,0.847,7.951,1.104,11.913c0.069,1.069,0.965,2.3,1.828,3.067c4.358,3.877,8.6,7.686,14.687,9.166
			c6.777,1.65,13.201,4.71,19.94,6.566c6.056,1.668,12.299,2.748,18.518,3.713c9.561,1.482,19.155,2.783,28.767,3.885
			c4.675,0.537,9.441,0.239,14.131,0.691c8.122,0.783,16.197,2.086,24.328,2.733c6.454,0.514,12.965,0.602,19.443,0.485
			c27.175-0.483,54.403,1.808,81.525-1.923c7.513-1.032,15.201-0.738,22.801-1.198c5.48-0.331,11.001-0.561,16.403-1.445
			c8.521-1.397,16.942-3.393,25.437-4.969c5.016-0.93,10.219-1.073,15.106-2.411c6.457-1.768,12.574-4.806,19.052-6.454
			c5.04-1.282,8.44-4.394,12.22-7.456c2.112-1.712,3.569-3.344,3.821-5.969c0.261-2.725,0.438-5.458,0.61-8.189
			c0.347-5.452,0.923-10.908,0.911-16.361c-0.008-4.076-1.117-8.146-1.17-12.226c-0.242-18.944-0.351-37.891-0.389-56.837
			C379.021,166.295,379.063,137.968,379.063,109.798z M422.135,137.178c2.708,2.88,4.75,5.122,6.89,7.266
			c0.423,0.423,1.409,0.814,1.808,0.603c0.517-0.275,1.126-1.309,0.971-1.773c-1.792-5.369-3.415-10.827-5.708-15.984
			c-1.988-4.47-4.358-8.625-1.811-13.626c0.293-0.574,0.039-1.426,0.039-2.441c-2.009-0.136-3.851-0.23-5.686-0.389
			c-2.95-0.256-4.013,0.549-3.235,3.86c1.288,5.486-0.687,10.654-2.541,15.765c-1.571,4.33-2.998,8.711-4.509,13.128
			c5.162,1.405,5.604-4.507,9.269-5.535c0.182,1.042,0.371,1.637,0.378,2.234c0.219,18.233,0.53,36.466,0.587,54.7
			c0.043,14.231-0.29,28.462-0.349,42.694c-0.033,8.231,0.185,16.462,0.183,24.694c0,1.3-0.565,2.601-0.782,3.529
			c-2.883-2.486-5.452-4.703-8.022-6.921c-0.357,0.253-0.713,0.505-1.069,0.758c0,1.152-0.273,2.39,0.057,3.438
			c0.692,2.196,1.856,4.243,2.553,6.438c1.776,5.591,3.805,11.148,4.932,16.878c0.658,3.344,2.554,4.959,4.554,6.793
			c2.256-1.99,4.147-3.66,5.689-5.021c-0.785-1.434-2.026-2.648-1.946-3.767c0.176-2.433,0.851-4.876,1.639-7.208
			c1.686-4.992,3.65-9.892,5.306-14.894c0.278-0.842-0.426-2.009-0.677-3.025c-0.936,0.363-2.121,0.485-2.754,1.141
			c-1.321,1.368-2.323,3.041-3.515,4.541c-0.433,0.545-1.035,0.955-2.248,2.044C422.135,223.462,422.135,180.831,422.135,137.178z
			 M236.08,54.121c0.387-0.439,0.772-0.877,1.159-1.316c36.917,0,73.834,0,111.459,0c-2.695,3.162-4.837,5.675-6.979,8.188
			c4.522-0.067,8.821-0.873,13.086-1.829c1.782-0.399,3.626-0.875,5.212-1.737c4.629-2.518,9.21-4.957,14.692-5.107
			c1.078-0.029,2.125-1.212,3.188-1.863c-0.989-0.813-1.863-2.085-2.984-2.364c-7.937-1.968-15.942-3.656-23.885-5.604
			c-2.445-0.6-4.723-1.864-7.153-2.549c-0.839-0.237-1.912,0.359-2.879,0.575c0.476,0.872,0.802,1.881,1.457,2.585
			c1.478,1.59,3.119,3.031,4.693,4.532c-0.187,0.277-0.373,0.554-0.56,0.831c-36.235,0-72.472,0-108.706,0
			c-0.236-0.359-0.472-0.719-0.708-1.078c2.413-2.296,4.826-4.593,7.239-6.889c-1.616-0.857-2.876-1.139-3.945-0.808
			c-4.327,1.341-8.548,3.037-12.898,4.293c-6.149,1.776-12.397,3.206-18.547,4.979c-0.938,0.27-1.575,1.587-2.962,3.075
			c3.538,0.294,5.885,0.076,7.949,0.737c6.391,2.049,12.629,4.578,19.02,6.629c3.362,1.079,6.919,1.55,10.388,2.295
			c0.22-0.475,0.438-0.949,0.656-1.422C241.408,58.223,238.744,56.172,236.08,54.121z M228.332,437.42
			c-0.357,0.125-0.714,0.25-1.071,0.376c-0.534-1.238-1.279-2.429-1.565-3.721c-1.379-6.237-2.543-12.523-4.025-18.734
			c-0.23-0.964-1.983-2.466-2.547-2.276c-1.596,0.535-3.288,1.579-4.222,2.923c-0.404,0.581,0.7,3.21,1.567,3.483
			c2.26,0.711,2.23,2.205,2.545,3.981c1.853,10.474,3.795,20.932,5.839,31.368c0.161,0.824,1.311,2.013,2.027,2.031
			c0.942,0.023,2.254-0.725,2.778-1.543c0.694-1.084,0.971-2.538,1.097-3.864c1.749-18.448,3.412-36.904,5.158-55.353
			c1.356-14.335,2.865-28.655,4.142-42.998c0.22-2.473,1.37-2.775,3.373-2.771c15.606,0.034,31.214,0.014,46.82,0.007
			c2.498-0.001,5.018,0.171,7.483-0.114c0.904-0.104,1.683-1.303,2.518-2.002c-0.758-0.617-1.453-1.644-2.286-1.771
			c-2.082-0.32-4.228-0.29-6.349-0.301c-15.967-0.074-31.935-0.056-47.899-0.226c-4.687-0.051-6.741,0.757-7.132,4.022
			c-0.902,7.516-1.687,15.047-2.439,22.579c-0.496,4.961-0.82,9.938-1.277,14.903c-1.071,11.625-2.191,23.245-3.26,34.869
			C229.142,427.329,228.754,432.375,228.332,437.42z M268.513,384.55c-0.815-1.155-1.371-1.67-1.594-2.302
			c-2.213-6.276-4.257-12.615-6.637-18.827c-0.493-1.286-2.1-2.235-3.372-3.065c-0.277-0.18-1.863,0.771-1.911,1.286
			c-0.125,1.375,0.042,2.872,0.503,4.177c0.438,1.241,1.596,2.22,2.085,3.453c2.661,6.709,5.123,13.498,7.89,20.161
			c0.467,1.126,1.991,2.267,3.19,2.478c0.842,0.148,2.455-1.054,2.876-2.022c3.496-8.036,6.8-16.157,10.142-24.261
			c0.187-0.45,0.404-1.042,0.261-1.443c-0.407-1.144-0.993-2.223-1.509-3.326c-1.006,0.729-2.528,1.244-2.933,2.222
			c-2.575,6.211-4.889,12.53-7.333,18.795C269.877,382.63,269.312,383.279,268.513,384.55z M444.754,194.054
			c0.425-2.234,0.565-3.644,0.973-4.972c0.828-2.697,2.138-5.298,2.559-8.045c0.188-1.229-1.287-2.714-2.008-4.082
			c-1.024,1.198-2.398,2.252-2.971,3.638c-0.533,1.291,0.086,3.023-0.321,4.41c-2.2,7.483-4.611,14.905-6.791,22.395
			c-0.223,0.766,0.609,1.837,0.951,2.767c1.106-0.553,3.12-1.036,3.169-1.668c0.297-3.928,2.662-6.783,4.815-9.61
			c1.735-2.279,4.25-3.965,6.419-5.914c0.384,0.299,0.768,0.598,1.151,0.897c-1.122,5.171-2.243,10.343-3.391,15.629
			c2.14,1.354,6.655,0.231,7.611-2.322c0.245-0.657-0.149-2.03-0.707-2.421c-1.544-1.082-1.852-1.901-0.752-3.636
			c1.02-1.606,1.923-3.627,1.906-5.457c-0.019-2.057-1.126-4.103-1.76-6.154c-1.601,0.543-3.235,1.002-4.792,1.652
			C449.049,191.896,447.351,192.803,444.754,194.054z M253.332,445.885c0.927-1.401,0.971-1.55,1.067-1.601
			c0.433-0.228,0.893-0.405,1.321-0.642c5.445-3.005,9.94-6.765,10.572-13.525c0.409-4.363-3.133-8.825-7.54-9.547
			c-4.109-0.673-10.002,2.785-10.811,6.484c-0.179,0.82,0.287,1.78,0.456,2.676c0.948-0.229,1.947-0.341,2.828-0.727
			c0.649-0.284,1.212-0.864,1.695-1.417c1.938-2.221,5.716-2.952,7.389-1.382c2.18,2.045,1.982,6.163-0.451,8.28
			c-3.473,3.022-7.234,5.768-10.36,9.11c-1.338,1.431-1.476,4.049-1.92,6.178c-0.065,0.313,1.191,1.294,1.848,1.306
			c5.811,0.104,11.624,0.061,17.426,0.061c0.774-3.608-0.348-4.825-3.575-4.718C260.229,446.524,257.164,446.115,253.332,445.885z
			 M270.236,437.921c0.842-0.145,1.537-0.087,2.026-0.377c3.582-2.121,3.516,0.058,2.967,2.55c-0.503,2.279-1.357,4.481-1.817,6.767
			c-0.314,1.555-0.217,3.193-0.305,4.794c0.534,0.195,1.068,0.392,1.603,0.587c0.94-1.433,2.352-2.754,2.72-4.321
			c0.705-3.001,0.711-6.159,1.247-9.211c0.138-0.785,1.17-1.414,1.791-2.114c0.63,0.792,1.744,1.55,1.801,2.381
			c0.197,2.847-0.196,5.737,0.049,8.575c0.274,3.179,4.702,4.978,7.148,2.979c0.656-0.535,1.091-1.707,1.062-2.568
			c-0.015-0.467-1.204-0.923-1.896-1.329c-0.79-0.465-2.259-0.799-2.315-1.313c-0.257-2.333-0.355-4.746,0.009-7.05
			c0.12-0.759,1.925-1.145,2.735-1.932c0.729-0.709,1.153-1.735,1.914-2.94c-1.233-0.334-2.028-0.729-2.823-0.732
			c-4.607-0.019-9.215,0.065-13.822,0.096C271.171,432.782,269.808,434.335,270.236,437.921z M294.859,408.775
			c0.748-2.703-0.223-3.629-2.715-3.535c-5.836,0.22-11.676,0.463-17.514,0.449c-10.202-0.024-20.404-0.213-30.605-0.386
			c-2.262-0.039-3.278,0.792-2.706,3.472C259.146,408.775,276.999,408.775,294.859,408.775z M222.89,390.636
			c0.275,0.319,0.551,0.641,0.825,0.961c-0.292,0.936-0.289,2.243-0.923,2.744c-3.651,2.884-3.627,2.782,0.063,5.313
			c1.011,0.693,2.162,2.407,1.946,3.358c-0.265,1.172-1.778,2.61-2.967,2.847c-0.924,0.184-2.172-1.311-3.29-2.037
			c-1.005-0.653-2.028-1.278-3.043-1.915c-0.286,1.124-1.068,2.429-0.741,3.332c0.498,1.379,1.52,2.9,2.752,3.611
			c2.667,1.538,8.981,1.057,9.75-1.017c1.051-2.832,0.936-6.134,1.084-9.245c0.054-1.137-0.938-2.342-0.827-3.453
			c0.599-6.014-0.411-7.85-6.226-8.547c-1.85-0.221-4.236,1.047-5.773,2.348c-0.898,0.759-0.602,2.931-0.919,4.952
			C217.965,392.567,220.428,391.602,222.89,390.636z M280.484,23.315c-0.374,2.487-0.533,4.148-0.887,5.767
			c-0.899,4.124-1.979,8.209-2.75,12.355c-0.141,0.755,0.844,1.719,1.309,2.586c0.935-0.607,2.2-1.012,2.722-1.87
			c0.679-1.119,0.597-2.669,1.14-3.904c1.974-4.496,2.615-10.372,9.853-9.686c0.58,0.055,1.684-1.62,1.896-2.627
			c0.185-0.875-0.285-2.425-0.953-2.793c-0.709-0.391-2.078,0.073-3.001,0.503c-1.001,0.467-1.819,1.324-2.962,2.198
			C285.196,21.396,282.429,22.69,280.484,23.315z M157.652,417.744c0-3.789,0.075-7.37-0.019-10.948
			c-0.125-4.761,0.766-5.914,4.994-6.827c0.916-0.197,1.619-1.377,2.419-2.104c-0.855-0.673-1.659-1.82-2.578-1.922
			c-2.072-0.228-4.211,0.223-6.305,0.098c-2.223-0.133-3.271,0.642-3.256,2.903c0.035,5.206,0.094,10.414-0.006,15.618
			C152.838,417.927,154.424,418.69,157.652,417.744z M189.469,404.945c0.001,0.045,0.001,0.091,0.001,0.136
			c2.609,0,5.238,0.182,7.818-0.087c1.063-0.111,2.025-1.192,3.034-1.833c-0.912-0.594-1.807-1.671-2.737-1.703
			c-5.467-0.186-10.945-0.198-16.414-0.07c-0.757,0.018-1.489,1.129-2.233,1.735c0.773,0.606,1.511,1.672,2.328,1.738
			C183.985,405.083,186.733,404.945,189.469,404.945z M189.6,412.471c0,0.01,0,0.02,0,0.029c2.744,0,5.507,0.179,8.223-0.101
			c0.908-0.093,1.696-1.356,2.538-2.086c-0.743-0.488-1.479-1.387-2.231-1.401c-5.616-0.103-11.236-0.088-16.85,0.056
			c-0.701,0.018-1.378,1.004-2.066,1.542c0.716,0.654,1.391,1.806,2.158,1.871C184.098,412.611,186.855,412.471,189.6,412.471z
			 M377.697,60.191c0-2.2,0-3.605,0-5.01c-0.854,0.096-2.018-0.128-2.507,0.345C373.327,57.327,374.509,58.516,377.697,60.191z
			 M412.329,112.238c-1.089-0.603-2.043-1.392-2.279-1.216c-0.832,0.619-1.658,1.488-1.977,2.434
			c-0.13,0.385,1.048,1.21,1.631,1.835C410.454,114.419,411.204,113.547,412.329,112.238z M379.808,70.373
			c-1.507-1.013-2.302-1.971-2.929-1.871c-1.015,0.163-1.919,1.02-2.87,1.584c0.639,0.676,1.266,1.89,1.917,1.904
			C376.929,72.01,377.948,71.207,379.808,70.373z M206.083,22.911c0.055,0.827,0.11,1.654,0.165,2.481
			c1.365-0.141,2.731-0.281,4.096-0.422c-0.078-0.753-0.11-2.149-0.243-2.159C208.771,22.714,207.424,22.845,206.083,22.911z
			 M207.065,59.131c0.633,0.263,1.265,0.526,1.897,0.79c0.571-1.319,1.144-2.638,1.715-3.957c-0.846-0.255-1.691-0.51-2.538-0.766
			C207.782,56.509,207.424,57.819,207.065,59.131z M375.466,26.626c0.71-0.113,1.419-0.227,2.13-0.34
			c-0.24-1.441-0.48-2.883-0.722-4.324c-0.714,0.316-2.029,0.623-2.036,0.953C374.814,24.147,375.221,25.389,375.466,26.626z
			 M395.729,115.863c0.662-0.004,1.323-0.008,1.985-0.012c0-1.533,0.033-3.068-0.1-4.589c-0.007-0.075-1.47-0.021-2.254-0.027
			C395.484,112.778,395.607,114.321,395.729,115.863z M385.414,112.034c-0.557-0.511-1.112-1.022-1.668-1.532
			c-0.825,0.904-1.714,1.765-2.385,2.772c-0.073,0.11,1.116,1.059,1.721,1.62C383.858,113.94,384.636,112.987,385.414,112.034z
			 M373.698,88.819c1.229,1.886,1.859,2.854,2.489,3.821c0.334-0.008,0.669-0.016,1.003-0.024c0.183-1.333,0.365-2.665,0.549-3.999
			C376.635,88.673,375.529,88.728,373.698,88.819z M376.236,39.43c0.396-0.082,0.792-0.162,1.189-0.243
			c0.082-1.06,0.165-2.119,0.247-3.179c-1.252,0-2.503,0-3.755,0c-0.079,0.375-0.156,0.75-0.234,1.124
			C374.534,37.898,375.385,38.664,376.236,39.43z"/>
		<path fill-rule="evenodd" clip-rule="evenodd" d="M379.063,109.798c0,28.17-0.041,56.497,0.016,84.824
			c0.038,18.947,0.146,37.893,0.389,56.837c0.053,4.08,1.162,8.149,1.17,12.226c0.012,5.453-0.564,10.909-0.911,16.361
			c-0.173,2.731-0.35,5.465-0.61,8.189c-0.252,2.625-1.709,4.257-3.821,5.969c-3.779,3.063-7.18,6.174-12.22,7.456
			c-6.478,1.648-12.595,4.687-19.052,6.454c-4.888,1.338-10.091,1.481-15.106,2.411c-8.494,1.576-16.915,3.571-25.437,4.969
			c-5.402,0.885-10.923,1.114-16.403,1.445c-7.6,0.46-15.288,0.166-22.801,1.198c-27.122,3.73-54.351,1.439-81.525,1.923
			c-6.479,0.116-12.989,0.028-19.443-0.485c-8.13-0.647-16.206-1.95-24.328-2.733c-4.69-0.452-9.457-0.154-14.131-0.691
			c-9.612-1.102-19.207-2.402-28.767-3.885c-6.219-0.965-12.462-2.045-18.518-3.713c-6.74-1.856-13.164-4.916-19.94-6.566
			c-6.086-1.48-10.328-5.289-14.687-9.166c-0.863-0.768-1.758-1.998-1.828-3.067c-0.257-3.962-2.033-7.661-1.104-11.913
			c0.658-3.01-0.587-6.388-0.621-9.605c-0.179-17.382-0.291-34.766-0.34-52.148c-0.069-24.424-0.025-48.848-0.112-73.271
			c-0.028-7.976-0.108-15.962-0.543-23.923c-0.387-7.1,4.162-11.158,9.101-14.323c5.042-3.232,10.787-5.546,16.479-7.529
			c5.232-1.823,10.758-2.932,16.235-3.896c12.708-2.236,25.434-4.411,38.212-6.186c7.707-1.071,15.518-1.424,23.292-1.961
			c9.7-0.669,19.407-1.243,29.115-1.772c14.752-0.804,29.501-1.757,44.266-2.204c8.051-0.243,16.234-0.304,24.173,0.837
			c18.184,2.614,36.513,2.194,54.732,3.652c8.332,0.667,16.558,2.693,24.824,4.145c9.038,1.587,18.171,2.803,27.066,4.982
			c5.758,1.41,11.24,4.084,16.703,6.514c4.288,1.907,8.995,3.142,12.263,6.991C375.538,108.952,377.063,109.05,379.063,109.798z
			 M309.733,201.091c0.26-1.602,0.52-3.204,0.779-4.805c-0.385-0.204-0.769-0.407-1.153-0.609c-0.878,1.202-1.757,2.405-2.636,3.607
			c1.037,0.57,2.075,1.141,3.112,1.71c-0.343,1.581-0.686,3.162-1.101,5.07c0.906,0.573,2.188,1.382,4.187,2.646
			c-0.652-2.053-1.571-3.578-1.204-4.011C314.447,201.479,312.021,201.378,309.733,201.091z M115.295,279.525
			c2.223,0.57,1.358,4.846,4.777,3.979c-1.419,1.268-2.837,2.536-4.077,3.645c0.963,1.567,1.697,2.76,2.349,3.821
			c1.158-0.936,2.27-1.834,3.172-2.563c0.324,1.872,0.581,3.354,0.941,5.439c-0.268,0.281-1.138,1.197-2.025,2.132
			c-0.793-0.957-1.412-1.703-2.107-2.543c-2.001,2.5-3.708,4.631-5.981,7.471c2.236-0.456,3.534-0.72,4.831-0.984
			c0.131,0.259,0.26,0.519,0.39,0.777c-2.824,1.941-5.647,3.883-9.092,6.25c0.339-1.425,0.514-2.156,0.79-3.315
			c-3.586,2.761-5.08-0.729-7.479-2.447c-1.144,1.596-2.146,2.993-3.099,4.323c1.63,1.008,2.869,2.365,4.236,2.51
			c4.359,0.46,8.726-0.109,13.125,1.261c3.449,1.074,7.324,0.722,10.984,1.199c2.52,0.329,4.973,1.239,7.494,1.462
			c8.024,0.711,16.078,1.107,24.1,1.844c6.796,0.624,13.552,2.084,20.347,2.237c16.981,0.386,33.974,0.275,50.962,0.292
			c10.672,0.011,21.285-0.709,31.848-2.406c8.736-1.404,17.506-2.839,26.433-2.078c0.703,0.06,1.449-0.226,2.156-0.42
			c1.966-0.539,4.047-1.854,5.858-1.544c6.341,1.081,11.985-3.439,18.33-1.945c0.76,0.179,1.846-0.966,2.757-1.534
			c0.261-0.163,0.439-0.456,0.667-0.701c-0.694-0.546-1.273-1-1.807-1.42c-0.511,0.811-1.015,1.608-1.628,2.582
			c-1.427-1.534-2.143-2.406-2.963-3.165c-2.195-2.029-5.749-2.844-5.898-6.759c-0.01-0.25-1.692-0.521-2.615-0.633
			c-1.474-0.181-2.964-0.235-4.446-0.343c-0.056-0.438-0.11-0.874-0.165-1.312c0.986-0.855,2.135-1.586,2.916-2.6
			c1.009-1.31,2.313-2.804,2.418-4.294c0.136-1.93-0.886-3.919-1.189-5.917c-0.088-0.576,0.433-1.43,0.928-1.871
			c1.295-1.154,2.73-2.151,4.25-3.318c-0.838-0.622-1.309-1.014-1.82-1.343c-3.711-2.396-3.726-2.582-0.503-5.839
			c0.254-0.256,0.38-0.638,0.563-0.962c1.308-0.808,2.614-1.615,3.922-2.423c-0.193-0.32-0.387-0.641-0.579-0.961
			c-1.606,0-3.212,0-5.244,0c0.842,1.456,1.428,2.47,2.014,3.483c-2.874-0.628-5.778-1.155-8.579-2.021
			c-0.321-0.1-0.426-2.88-0.011-3.071c3.717-1.712,2.729-3.503,0.377-5.507c-2.157-1.84-1.93-3.195,0.716-4.368
			c4.118-1.826,4.358-2.882,1.839-6.281c1.217-1.272,2.428-2.54,3.796-3.972c-0.722-0.473-1.098-0.78-1.522-0.988
			c-4.096-2.008-4.059-1.961-0.718-5.138c0.76-0.722,1.85-2.336,1.594-2.701c-2.901-4.131,0.727-5.636,3.424-8.037
			c-2.4-0.535-4.365-0.974-6.494-1.449c-1.349-3.683,0.747-6.572,3.611-9.179c-2.221-1.68-4.021-3.043-5.27-3.988
			c0.492-2.239,1.196-3.723,1.041-5.109c-0.305-2.726,0.756-3.961,3.324-3.475c2.809-5.683-2.516-7.563-4.825-10.295
			c0.524-3.093,6.229-4.073,2.397-8.033c1.402-1.54,2.771-3.04,4.081-4.48c0.24-0.011,0.404-0.071,0.483-0.013
			c0.581,0.42,1.146,0.864,1.706,1.293c2.996-2.269,2.996-2.269,2.107-4.021c-3.468,0.272-6.747,0.53-10.026,0.789
			c-0.155-0.202-0.311-0.403-0.466-0.604c2.54-1.787,5.081-3.574,7.8-5.487c2.985,2.293,2.985,2.293,4.616,1.435
			c-2.778-1.958-5.393-3.8-8.589-6.052c2.226-1.063,4.479-2.14,6.989-3.34c-3.038-4.817,6.21-4.292,5.456-8.03
			c-2.77-0.583-4.722-0.995-6.675-1.406c-0.148-0.492-0.298-0.985-0.447-1.478c0.904-0.377,1.808-0.755,3.154-1.318
			c-3.369-2.031-2.656-3.913-0.702-5.736c-1.113-0.987-2.013-1.785-2.911-2.583c-0.1,0.333-0.2,0.665-0.3,0.998
			c-1.485-0.13-2.971-0.259-4.609-0.402c-0.088,0.47-0.221,1.187-0.354,1.903l0.12-0.114c-2.208-0.4-3.96-1.678-6.735-0.924
			c-4.368,1.188-9.221,0.48-13.704,1.386c-8.545,1.725-17.263,1.159-25.881,2.902c-7.677,1.552-15.895,0.504-23.874,0.475
			c-23.087-0.084-46.176-0.164-69.262-0.431c-3.648-0.042-7.451-1.999-10.888-1.394c-5.585,0.981-10.488-1.646-15.767-1.593
			c-2.837,0.028-5.672,0.403-8.508,0.622c-0.037,0.392-0.075,0.783-0.113,1.175c-0.616-0.809-1.232-1.617-2.071-2.716
			c-0.561,0.92-0.922,1.512-1.274,2.11c-1.892-2.335-1.92-2.27-3.578,0.012c-0.538,0.74-1.665,1.053-2.523,1.561
			c-0.161-0.239-0.321-0.478-0.482-0.716c0.341-0.769,0.682-1.537,1.264-2.851c-3.819,0.231-3.951,7.426-8.721,3.434
			c-1.649,5.166,1.742,8.595,4.468,10.441c3.699,2.504-0.109,2.643-0.398,3.888c2.007,1.586,2.653,3.32,0.248,5.48
			c1.891-0.533,3.396-1.497,5.039-2.046c0.963-0.322,2.147,0.016,3.231,0.058c-0.376,0.833-0.528,2.064-1.17,2.425
			c-2.044,1.15-4.271,1.977-6.502,2.961c0.111,0.294,0.454,1.203,0.71,1.88c-1.685,0.335-3.554,0.168-4.409,1.021
			c-0.924,0.921-0.901,2.793-1.381,4.581c-0.849-0.931-1.601-1.755-2.352-2.579c-0.27,0.153-0.54,0.306-0.81,0.459
			c0.673,1.266,1.064,2.997,2.118,3.635c0.703,0.426,2.516-0.467,3.538-1.188c2.047-1.447,3.619-1.352,6.286,2.106
			c-2.206,1.376-4.411,2.75-6.616,4.125c3.371-0.248,6.349,2.037,7.955,6.452c-3.73-1.189-6.255,0.152-7.816,3.431
			c0.753,1.476,1.497,2.932,2.287,4.48c1.276-1.418,2.339-2.6,3.402-3.781c0.187,0.164,0.374,0.327,0.56,0.489
			c-0.181,0.888-0.362,1.776-0.542,2.663c0.315,0.228,0.63,0.456,0.945,0.683c1.088-1.22,2.176-2.44,3.263-3.66
			c0.339,0.089,0.678,0.179,1.017,0.268c-0.818,2.585-1.636,5.171-2.502,7.907c-2.162-1.141-4.136-2.181-6.109-3.221
			c-0.372,0.189-0.743,0.378-1.114,0.568c0.754,2.116,1.653,4.196,2.19,6.365c0.212,0.859-0.052,2.354-0.661,2.811
			c-3.042,2.285-3.325,4.964-0.59,8.287c-4.375-3.291-4.23,1.771-6.345,3.123c1.106,1.032,1.971,1.838,3.091,2.883
			c1.333-1.096,2.593-2.133,3.854-3.17c-0.006,0.728-0.011,1.457-0.016,2.185c0.784-0.251,1.953-0.263,2.284-0.795
			c1.453-2.334,2.905-2.203,4.631-0.408c0.091,0.094,0.449-0.069,0.912-0.155c0.092-0.843,0.19-1.74,0.275-2.518
			c-2.109-0.396-3.907-0.735-6.121-1.151c3.378-3.439,6.026-2.706,7.622,1.252c0.592,1.467,1.564,2.781,2.73,4.802
			c-1.609,0-3.387-0.337-4.927,0.124c-0.952,0.285-1.877,1.685-2.196,2.767c-0.299,1.014,0.215,2.269,0.309,2.957
			c-1.412-0.157-2.689-0.299-3.687-0.411c0.64,2.083,1.03,3.354,1.42,4.625c-0.047,0.122-0.044,0.238,0.009,0.35
			c2.975,4.081-0.726,4.958-3.22,6.453c0.676,0.812,1.302,1.563,2.225,2.67c-6.18,1.081,0.648,5.234-2.158,7.558
			c3.017-0.552,6.033-1.104,8.476-1.551c-0.51,2.301-0.999,4.51-1.505,6.792c-6.691-0.805-8.072-0.102-9.229,5.18
			c1.609,0.235,3.976-3.06,4.759,1.021l0.089-0.111c-0.996,0.566-1.992,1.132-2.036,1.157c0.903,3.468,1.528,5.869,2.317,8.897
			c1.476-1.763,2.485-2.969,3.495-4.174l-0.09-0.115c0.063,2.325,0.124,4.65,0.186,6.976c-2.109,0.552-5.074-1.508-6.187,2.05
			c-3.675,1.216-2.36,4.141-2.61,6.89C115.977,284.197,115.977,284.197,115.295,279.525z M138.679,89.03
			c-0.007,0.047-0.016,0.095-0.023,0.142c-2.33,0.297-4.66,0.59-6.988,0.893c-6.848,0.893-13.687,1.86-20.545,2.666
			c-6.308,0.742-12.727,0.847-18.932,2.073C84.51,96.322,77,98.71,69.415,100.714c-2.015,0.532-4.166,0.75-6.033,1.6
			c-5.156,2.345-10.209,4.922-15.276,7.46c-3.752,1.879-4.666,6.733-2.103,10.017c3.435,4.402,7.737,7.135,13.375,7.607
			c0.608,0.051,1.234,0.196,1.798,0.428c4.182,1.713,8.206,4.213,12.551,5.051c11.681,2.252,23.493,3.823,35.262,5.608
			c2.833,0.429,5.719,0.516,8.546,0.973c5.349,0.865,10.64,2.195,16.016,2.766c7.3,0.773,14.657,1.024,21.99,1.483
			c9.396,0.588,18.787,1.274,28.19,1.695c4.913,0.22,9.847-0.06,14.771-0.08c13.634-0.054,27.254-0.08,40.88-1.002
			c15.433-1.044,30.909-1.428,46.365-2.128c1.491-0.067,2.988-0.243,4.454-0.521c5.213-0.988,10.384-2.237,15.624-3.025
			c7.217-1.083,14.488-1.783,21.722-2.755c3.322-0.446,6.601-1.204,9.914-1.723c4.771-0.747,9.147-2.398,13.644-4.259
			c6.995-2.897,14.783-3.771,20.466-9.647c2.341-2.421,3.207-6.578,0.661-8.769c-2.482-2.136-5.161-4.276-8.122-5.572
			c-4.673-2.044-9.638-3.439-14.516-4.995c-2.007-0.64-4.131-0.906-6.165-1.474c-5.685-1.587-11.26-3.768-17.043-4.755
			c-9.753-1.667-19.612-2.816-29.466-3.78c-12.626-1.235-25.293-2.039-37.937-3.089c-7.403-0.615-14.795-1.841-22.193-1.856
			c-5.119-0.01-10.093,0.848-15.373-0.118c-5.561-1.017-11.453-0.418-17.19-0.216c-6.066,0.213-12.116,0.846-18.179,1.186
			c-2.977,0.167-5.872-0.322-8.974-0.018C164.325,88.055,151.485,88.371,138.679,89.03z M109.556,236.518
			c-1.927,1.135-3.443,2.026-4.958,2.918c0.326,0.575,0.653,1.15,0.979,1.726c2.071-0.136,4.142-0.271,6.212-0.406
			C110.975,239.21,110.161,237.665,109.556,236.518z M99.529,273.654c0.744,0.469,1.717,1.081,3.216,2.025
			c0.489-1.749,1.404-3.224,1.074-4.327c-0.35-1.167-1.884-1.979-3.054-3.093C100.249,270.513,99.93,271.906,99.529,273.654z
			 M103.787,154.547c-1.1,5.354,2.558,5.578,5.517,7.708c-0.54-2.728-0.9-4.549-1.376-6.958c-0.983,1.201-1.498,1.829-2.175,2.657
			C105.202,157.001,104.75,156.217,103.787,154.547z M307.352,297.337c1.104,0.928,2.027,2.026,3.205,2.533
			c0.467,0.202,2.209-1.019,2.149-1.398c-0.243-1.528-0.962-2.981-1.517-4.494C309.775,295.215,308.831,296.042,307.352,297.337z
			 M315.84,202.432c-0.956,1.019-1.814,1.932-2.002,2.132c1.049,1.203,1.893,2.17,2.685,3.077c0.729-0.557,1.927-1.469,3.084-2.354
			C318.443,204.405,317.256,203.505,315.84,202.432z M302.156,208.448c1.451,1.48,2.448,2.497,3.444,3.513
			c0.825-0.993,1.65-1.984,2.921-3.513C306.051,208.448,304.536,208.448,302.156,208.448z M304.249,187.709
			c1.65-0.129,2.654-0.231,3.66-0.277c0.631-0.029,1.265,0.028,1.898,0.045c-0.299-0.681-0.41-1.603-0.927-2
			C306.323,183.504,305.452,185.428,304.249,187.709z M106.28,227.963c-0.385,0.246-0.769,0.491-1.153,0.735
			c2.468,1.706,3.447,3.604,1.502,6.164c1.095-0.922,2.584-2.22,2.4-3.2C108.772,230.304,107.256,229.185,106.28,227.963z"/>
		<path fill-rule="evenodd" clip-rule="evenodd" d="M422.135,137.178c0,43.653,0,86.284,0,129.918
			c1.213-1.089,1.815-1.499,2.248-2.044c1.191-1.5,2.193-3.173,3.515-4.541c0.633-0.655,1.818-0.777,2.754-1.141
			c0.251,1.017,0.955,2.184,0.677,3.025c-1.655,5.002-3.62,9.901-5.306,14.894c-0.788,2.332-1.463,4.775-1.639,7.208
			c-0.08,1.118,1.161,2.333,1.946,3.767c-1.542,1.361-3.434,3.031-5.689,5.021c-2-1.834-3.896-3.449-4.554-6.793
			c-1.127-5.729-3.155-11.287-4.932-16.878c-0.696-2.195-1.86-4.242-2.553-6.438c-0.33-1.048-0.057-2.285-0.057-3.438
			c0.356-0.253,0.712-0.505,1.069-0.758c2.57,2.218,5.14,4.435,8.022,6.921c0.217-0.929,0.782-2.229,0.782-3.529
			c0.002-8.231-0.216-16.463-0.183-24.694c0.059-14.231,0.392-28.463,0.349-42.694c-0.057-18.234-0.368-36.466-0.587-54.7
			c-0.007-0.597-0.196-1.192-0.378-2.234c-3.664,1.027-4.106,6.939-9.269,5.535c1.511-4.417,2.938-8.798,4.509-13.128
			c1.854-5.111,3.829-10.279,2.541-15.765c-0.777-3.311,0.285-4.116,3.235-3.86c1.835,0.159,3.677,0.253,5.686,0.389
			c0,1.015,0.254,1.867-0.039,2.441c-2.548,5.001-0.178,9.156,1.811,13.626c2.293,5.157,3.916,10.616,5.708,15.984
			c0.155,0.465-0.454,1.498-0.971,1.773c-0.398,0.212-1.385-0.179-1.808-0.603C426.885,142.3,424.843,140.059,422.135,137.178z"/>
		<path fill-rule="evenodd" clip-rule="evenodd" d="M236.08,54.121c2.664,2.051,5.328,4.102,7.992,6.153
			c-0.218,0.474-0.437,0.948-0.656,1.422c-3.469-0.746-7.026-1.217-10.388-2.295c-6.391-2.051-12.628-4.58-19.02-6.629
			c-2.064-0.662-4.411-0.443-7.949-0.737c1.387-1.488,2.023-2.805,2.962-3.075c6.15-1.772,12.398-3.202,18.547-4.979
			c4.35-1.256,8.571-2.952,12.898-4.293c1.069-0.332,2.329-0.05,3.945,0.808c-2.413,2.296-4.826,4.593-7.239,6.889
			c0.236,0.359,0.472,0.719,0.708,1.078c36.234,0,72.471,0,108.706,0c0.187-0.277,0.373-0.554,0.56-0.831
			c-1.574-1.501-3.216-2.941-4.693-4.532c-0.655-0.705-0.981-1.714-1.457-2.585c0.967-0.216,2.04-0.812,2.879-0.575
			c2.431,0.686,4.708,1.949,7.153,2.549c7.942,1.948,15.948,3.637,23.885,5.604c1.121,0.278,1.995,1.551,2.984,2.364
			c-1.063,0.65-2.109,1.833-3.188,1.863c-5.482,0.15-10.063,2.589-14.692,5.107c-1.586,0.862-3.43,1.338-5.212,1.737
			c-4.265,0.956-8.563,1.761-13.086,1.829c2.142-2.513,4.283-5.026,6.979-8.188c-37.625,0-74.542,0-111.459,0
			C236.853,53.244,236.467,53.682,236.08,54.121z"/>
		<path fill-rule="evenodd" clip-rule="evenodd" d="M228.332,437.42c0.422-5.045,0.81-10.091,1.274-15.131
			c1.068-11.624,2.188-23.244,3.26-34.869c0.458-4.965,0.781-9.942,1.277-14.903c0.752-7.532,1.538-15.063,2.439-22.579
			c0.391-3.266,2.445-4.073,7.132-4.022c15.965,0.17,31.933,0.151,47.899,0.226c2.121,0.011,4.267-0.02,6.349,0.301
			c0.833,0.128,1.528,1.154,2.286,1.771c-0.835,0.699-1.613,1.897-2.518,2.002c-2.466,0.285-4.985,0.113-7.483,0.114
			c-15.606,0.007-31.214,0.027-46.82-0.007c-2.003-0.004-3.153,0.299-3.373,2.771c-1.276,14.343-2.785,28.663-4.142,42.998
			c-1.746,18.448-3.409,36.904-5.158,55.353c-0.126,1.326-0.403,2.78-1.097,3.864c-0.524,0.818-1.836,1.566-2.778,1.543
			c-0.716-0.019-1.866-1.207-2.027-2.031c-2.044-10.437-3.986-20.895-5.839-31.368c-0.314-1.776-0.285-3.271-2.545-3.981
			c-0.867-0.273-1.971-2.902-1.567-3.483c0.935-1.344,2.626-2.388,4.222-2.923c0.564-0.189,2.317,1.313,2.547,2.276
			c1.481,6.211,2.646,12.497,4.025,18.734c0.286,1.292,1.031,2.482,1.565,3.721C227.617,437.67,227.975,437.545,228.332,437.42z"/>
		<path fill-rule="evenodd" clip-rule="evenodd" d="M268.513,384.55c0.799-1.271,1.364-1.92,1.658-2.676
			c2.444-6.265,4.758-12.584,7.333-18.795c0.404-0.978,1.927-1.493,2.933-2.222c0.516,1.104,1.102,2.183,1.509,3.326
			c0.144,0.401-0.074,0.993-0.261,1.443c-3.342,8.104-6.646,16.225-10.142,24.261c-0.421,0.969-2.034,2.171-2.876,2.022
			c-1.199-0.211-2.724-1.352-3.19-2.478c-2.767-6.663-5.229-13.452-7.89-20.161c-0.489-1.233-1.647-2.212-2.085-3.453
			c-0.461-1.305-0.628-2.802-0.503-4.177c0.048-0.516,1.634-1.466,1.911-1.286c1.272,0.83,2.879,1.779,3.372,3.065
			c2.38,6.212,4.424,12.551,6.637,18.827C267.142,382.88,267.697,383.395,268.513,384.55z"/>
		<path fill-rule="evenodd" clip-rule="evenodd" d="M444.754,194.054c2.597-1.251,4.295-2.157,6.063-2.894
			c1.557-0.649,3.191-1.108,4.792-1.652c0.634,2.051,1.741,4.097,1.76,6.154c0.017,1.829-0.887,3.85-1.906,5.457
			c-1.1,1.734-0.792,2.554,0.752,3.636c0.558,0.391,0.952,1.765,0.707,2.421c-0.956,2.554-5.472,3.676-7.611,2.322
			c1.147-5.287,2.269-10.458,3.391-15.629c-0.384-0.299-0.768-0.598-1.151-0.897c-2.169,1.949-4.684,3.635-6.419,5.914
			c-2.153,2.828-4.519,5.682-4.815,9.61c-0.049,0.632-2.063,1.115-3.169,1.668c-0.342-0.93-1.174-2.001-0.951-2.767
			c2.18-7.489,4.591-14.911,6.791-22.395c0.407-1.386-0.212-3.119,0.321-4.41c0.572-1.385,1.946-2.439,2.971-3.638
			c0.721,1.368,2.196,2.853,2.008,4.082c-0.421,2.747-1.73,5.348-2.559,8.045C445.319,190.41,445.179,191.819,444.754,194.054z"/>
		<path fill-rule="evenodd" clip-rule="evenodd" d="M253.332,445.885c3.832,0.23,6.897,0.64,9.945,0.537
			c3.228-0.107,4.35,1.109,3.575,4.718c-5.802,0-11.615,0.044-17.426-0.061c-0.656-0.012-1.913-0.992-1.848-1.306
			c0.444-2.129,0.582-4.747,1.92-6.178c3.126-3.343,6.888-6.088,10.36-9.11c2.434-2.117,2.631-6.235,0.451-8.28
			c-1.673-1.57-5.45-0.839-7.389,1.382c-0.483,0.553-1.046,1.133-1.695,1.417c-0.881,0.386-1.88,0.497-2.828,0.727
			c-0.169-0.896-0.635-1.855-0.456-2.676c0.809-3.699,6.701-7.157,10.811-6.484c4.407,0.722,7.949,5.184,7.54,9.547
			c-0.632,6.761-5.127,10.521-10.572,13.525c-0.429,0.236-0.889,0.414-1.321,0.642C254.303,444.335,254.259,444.483,253.332,445.885
			z"/>
		<path fill-rule="evenodd" clip-rule="evenodd" d="M270.236,437.921c-0.429-3.586,0.935-5.139,4.092-5.16
			c4.607-0.03,9.215-0.114,13.822-0.096c0.795,0.003,1.59,0.398,2.823,0.732c-0.761,1.205-1.185,2.231-1.914,2.94
			c-0.811,0.787-2.615,1.173-2.735,1.932c-0.364,2.304-0.266,4.717-0.009,7.05c0.057,0.514,1.525,0.848,2.315,1.313
			c0.692,0.406,1.882,0.862,1.896,1.329c0.029,0.861-0.405,2.033-1.062,2.568c-2.446,1.999-6.874,0.2-7.148-2.979
			c-0.245-2.838,0.148-5.729-0.049-8.575c-0.057-0.831-1.171-1.589-1.801-2.381c-0.621,0.7-1.653,1.329-1.791,2.114
			c-0.536,3.052-0.542,6.21-1.247,9.211c-0.368,1.567-1.779,2.889-2.72,4.321c-0.534-0.195-1.068-0.392-1.603-0.587
			c0.088-1.601-0.01-3.239,0.305-4.794c0.46-2.285,1.314-4.487,1.817-6.767c0.549-2.492,0.615-4.671-2.967-2.55
			C271.773,437.834,271.078,437.776,270.236,437.921z"/>
		<path fill-rule="evenodd" clip-rule="evenodd" d="M294.859,408.775c-17.86,0-35.714,0-53.54,0
			c-0.572-2.68,0.444-3.511,2.706-3.472c10.201,0.173,20.403,0.361,30.605,0.386c5.838,0.014,11.678-0.229,17.514-0.449
			C294.637,405.146,295.607,406.072,294.859,408.775z"/>
		<path fill-rule="evenodd" clip-rule="evenodd" d="M222.89,390.636c-2.462,0.966-4.924,1.932-8.29,3.252
			c0.317-2.021,0.021-4.193,0.919-4.952c1.537-1.301,3.923-2.568,5.773-2.348c5.815,0.697,6.825,2.533,6.226,8.547
			c-0.111,1.111,0.88,2.316,0.827,3.453c-0.148,3.111-0.033,6.413-1.084,9.245c-0.769,2.073-7.083,2.555-9.75,1.017
			c-1.232-0.711-2.254-2.232-2.752-3.611c-0.327-0.903,0.456-2.208,0.741-3.332c1.015,0.637,2.039,1.262,3.043,1.915
			c1.118,0.727,2.366,2.221,3.29,2.037c1.189-0.236,2.702-1.675,2.967-2.847c0.215-0.951-0.935-2.665-1.946-3.358
			c-3.69-2.53-3.714-2.429-0.063-5.313c0.635-0.501,0.632-1.809,0.923-2.744C223.44,391.276,223.165,390.955,222.89,390.636z"/>
		<path fill-rule="evenodd" clip-rule="evenodd" d="M280.484,23.315c1.944-0.625,4.712-1.919,6.365,2.529
			c1.143-0.874,1.961-1.731,2.962-2.198c0.923-0.43,2.292-0.894,3.001-0.503c0.668,0.368,1.138,1.918,0.953,2.793
			c-0.212,1.007-1.315,2.683-1.896,2.627c-7.237-0.687-7.879,5.189-9.853,9.686c-0.543,1.235-0.461,2.786-1.14,3.904
			c-0.521,0.858-1.787,1.263-2.722,1.87c-0.465-0.867-1.449-1.831-1.309-2.586c0.771-4.146,1.851-8.231,2.75-12.355
			C279.951,27.464,280.11,25.802,280.484,23.315z"/>
		<path fill-rule="evenodd" clip-rule="evenodd" d="M157.652,417.744c-3.228,0.946-4.813,0.183-4.75-3.183
			c0.1-5.204,0.041-10.412,0.006-15.618c-0.015-2.262,1.034-3.036,3.256-2.903c2.093,0.125,4.232-0.325,6.305-0.098
			c0.918,0.102,1.722,1.249,2.578,1.922c-0.801,0.728-1.504,1.907-2.419,2.104c-4.228,0.913-5.119,2.066-4.994,6.827
			C157.727,410.374,157.652,413.955,157.652,417.744z"/>
		<path fill-rule="evenodd" clip-rule="evenodd" d="M189.469,404.945c-2.736,0-5.483,0.138-8.201-0.084
			c-0.817-0.066-1.555-1.132-2.328-1.738c0.744-0.606,1.476-1.718,2.233-1.735c5.469-0.128,10.947-0.115,16.414,0.07
			c0.93,0.032,1.825,1.109,2.737,1.703c-1.009,0.641-1.971,1.722-3.034,1.833c-2.581,0.269-5.209,0.087-7.818,0.087
			C189.47,405.036,189.47,404.99,189.469,404.945z"/>
		<path fill-rule="evenodd" clip-rule="evenodd" d="M189.6,412.471c-2.745,0-5.502,0.141-8.227-0.09
			c-0.767-0.065-1.442-1.217-2.158-1.871c0.688-0.538,1.365-1.524,2.066-1.542c5.614-0.144,11.234-0.158,16.85-0.056
			c0.752,0.015,1.488,0.913,2.231,1.402c-0.842,0.729-1.63,1.992-2.538,2.085c-2.715,0.279-5.479,0.101-8.223,0.101
			C189.6,412.49,189.6,412.48,189.6,412.471z"/>
		<path fill-rule="evenodd" clip-rule="evenodd" d="M377.697,60.191c-3.188-1.675-4.37-2.864-2.507-4.665
			c0.489-0.473,1.653-0.249,2.507-0.345C377.697,56.586,377.697,57.991,377.697,60.191z"/>
		<path fill-rule="evenodd" clip-rule="evenodd" d="M412.329,112.238c-1.125,1.309-1.875,2.181-2.625,3.053
			c-0.583-0.625-1.761-1.45-1.631-1.835c0.318-0.946,1.145-1.815,1.977-2.434C410.286,110.846,411.24,111.635,412.329,112.238z"/>
		<path fill-rule="evenodd" clip-rule="evenodd" d="M379.808,70.373c-1.859,0.833-2.879,1.637-3.882,1.617
			c-0.651-0.014-1.278-1.228-1.917-1.904c0.951-0.564,1.855-1.421,2.87-1.584C377.506,68.402,378.301,69.36,379.808,70.373z"/>
		<path fill-rule="evenodd" clip-rule="evenodd" d="M206.083,22.911c1.341-0.066,2.688-0.197,4.018-0.1
			c0.133,0.01,0.165,1.406,0.243,2.159c-1.365,0.141-2.731,0.281-4.096,0.422C206.193,24.565,206.138,23.738,206.083,22.911z"/>
		<path fill-rule="evenodd" clip-rule="evenodd" d="M207.065,59.131c0.358-1.312,0.716-2.622,1.075-3.933
			c0.846,0.256,1.691,0.511,2.538,0.766c-0.571,1.319-1.144,2.637-1.715,3.957C208.331,59.657,207.698,59.394,207.065,59.131z"/>
		<path fill-rule="evenodd" clip-rule="evenodd" d="M375.466,26.626c-0.245-1.237-0.651-2.479-0.628-3.71
			c0.007-0.331,1.322-0.637,2.036-0.953c0.241,1.441,0.481,2.883,0.722,4.324C376.885,26.399,376.176,26.513,375.466,26.626z"/>
		<path fill-rule="evenodd" clip-rule="evenodd" d="M395.729,115.863c-0.122-1.542-0.245-3.085-0.368-4.628
			c0.784,0.006,2.247-0.048,2.254,0.027c0.133,1.521,0.1,3.056,0.1,4.589C397.053,115.855,396.392,115.859,395.729,115.863z"/>
		<path fill-rule="evenodd" clip-rule="evenodd" d="M385.414,112.034c-0.778,0.954-1.556,1.907-2.332,2.86
			c-0.604-0.561-1.794-1.51-1.721-1.62c0.671-1.007,1.56-1.869,2.385-2.772C384.302,111.012,384.857,111.523,385.414,112.034z"/>
		<path fill-rule="evenodd" clip-rule="evenodd" d="M373.698,88.819c1.831-0.092,2.937-0.146,4.041-0.202
			c-0.184,1.333-0.366,2.666-0.549,3.999c-0.334,0.009-0.669,0.017-1.003,0.024C375.558,91.673,374.927,90.706,373.698,88.819z"/>
		<path fill-rule="evenodd" clip-rule="evenodd" d="M376.236,39.43c-0.852-0.766-1.702-1.532-2.553-2.298
			c0.078-0.375,0.155-0.749,0.234-1.124c1.252,0,2.503,0,3.755,0c-0.082,1.06-0.165,2.119-0.247,3.179
			C377.028,39.268,376.633,39.348,376.236,39.43z"/>
		<path fill-rule="evenodd" clip-rule="evenodd" fill="#FFFFFF" d="M121.588,277.59c-0.062-2.325-0.124-4.65-0.184-6.972
			c0.839,1.109,1.677,2.216,3.023,3.995c0.204-2.516,0.344-4.254,0.484-5.992c-0.395-0.217-0.791-0.434-1.186-0.649
			c-0.744,0.919-1.489,1.838-2.233,2.758c-1.01,1.205-2.019,2.411-3.495,4.174c-0.789-3.028-1.415-5.43-2.317-8.897
			c0.044-0.025,1.04-0.591,2.039-1.161c0.802,1.025,1.602,2.055,2.356,3.026c4.797-2.385,4.809-2.919,0.502-6.057
			c-0.988,1.054-1.97,2.1-2.951,3.146c-0.784-4.081-3.15-0.786-4.759-1.021c1.157-5.281,2.538-5.984,9.229-5.18
			c0.506-2.282,0.996-4.491,1.505-6.792c-2.443,0.447-5.459,0.999-8.476,1.551c2.807-2.323-4.022-6.477,2.158-7.558
			c-0.923-1.107-1.548-1.858-2.225-2.67c2.494-1.495,6.195-2.372,3.219-6.453c1.583,1.099,3.166,2.198,4.683,3.252
			c0.328-0.771,1.036-2.443,2.192-5.169c-2.952,0.672-4.917,1.12-6.883,1.567c-0.391-1.271-0.78-2.542-1.42-4.625
			c0.997,0.111,2.274,0.253,3.687,0.411c-0.094-0.688-0.608-1.943-0.309-2.957c0.319-1.082,1.244-2.482,2.196-2.767
			c1.54-0.461,3.317-0.124,4.927-0.124c-1.166-2.021-2.139-3.335-2.73-4.802c-1.596-3.958-4.244-4.691-7.622-1.252
			c2.213,0.416,4.012,0.754,6.121,1.151c-0.085,0.778-0.183,1.674-0.275,2.518c-0.462,0.086-0.821,0.249-0.912,0.155
			c-1.727-1.795-3.178-1.927-4.631,0.408c-0.332,0.533-1.5,0.544-2.284,0.795c0.005-0.728,0.01-1.457,0.006-2.165
			c-0.203-0.939-0.396-1.898-0.59-2.857c-2.734-3.322-2.451-6.001,0.59-8.287c0.609-0.458,0.874-1.952,0.661-2.811
			c-0.537-2.169-1.436-4.249-2.19-6.365c0.372-0.189,0.743-0.379,1.114-0.568c1.973,1.04,3.947,2.08,6.109,3.221
			c0.866-2.736,1.684-5.322,2.502-7.907c-0.339-0.089-0.678-0.179-1.017-0.268c-1.087,1.22-2.175,2.44-3.263,3.66
			c-0.315-0.228-0.63-0.456-0.945-0.683c0.181-0.887,0.362-1.775,0.542-2.663c-0.187-0.163-0.374-0.326-0.56-0.489
			c-1.063,1.182-2.126,2.363-3.402,3.781c-0.791-1.548-1.534-3.004-2.287-4.48c1.561-3.278,4.085-4.62,7.816-3.431
			c-1.606-4.416-4.584-6.7-7.955-6.452c2.206-1.375,4.411-2.75,6.616-4.125c-2.667-3.458-4.238-3.553-6.286-2.106
			c-1.021,0.721-2.834,1.614-3.538,1.188c-1.053-0.638-1.444-2.369-2.118-3.635c0.27-0.153,0.54-0.306,0.81-0.459
			c0.751,0.824,1.503,1.648,2.352,2.579c0.48-1.788,0.457-3.66,1.381-4.581c0.855-0.852,2.724-0.686,4.409-1.021
			c-0.256-0.677-0.599-1.586-0.71-1.88c2.232-0.985,4.458-1.812,6.502-2.961c0.642-0.361,0.794-1.592,1.17-2.425
			c-1.084-0.042-2.268-0.38-3.231-0.058c-1.643,0.549-3.148,1.513-5.039,2.046c2.406-2.161,1.76-3.895-0.248-5.48
			c0.29-1.245,4.098-1.383,0.398-3.888c-2.727-1.847-6.117-5.275-4.468-10.441c4.77,3.992,4.902-3.203,8.721-3.434
			c-0.583,1.313-0.923,2.082-1.264,2.851c0.161,0.239,0.321,0.478,0.482,0.716c0.858-0.508,1.985-0.821,2.523-1.561
			c1.658-2.282,1.686-2.347,3.574-0.015c0.356-0.595,0.717-1.187,1.278-2.107c0.838,1.1,1.455,1.908,2.071,2.716
			c0.038-0.392,0.076-0.783,0.113-1.175c2.836-0.219,5.671-0.594,8.508-0.622c5.279-0.052,10.182,2.574,15.767,1.593
			c3.437-0.604,7.24,1.352,10.888,1.394c23.086,0.267,46.175,0.347,69.262,0.431c7.979,0.029,16.197,1.077,23.874-0.475
			c8.618-1.743,17.336-1.177,25.881-2.902c4.483-0.905,9.336-0.198,13.704-1.386c2.775-0.754,4.527,0.524,6.736,0.921
			c-0.759,0.839-1.521,1.68-2.83,3.126c1.89,1.947,3.817,3.934,5.847,6.025c2.629-4.377,1.239-7.881-3.138-9.034
			c0.134-0.716,0.267-1.433,0.354-1.903c1.639,0.143,3.124,0.272,4.609,0.402c0.1-0.333,0.2-0.665,0.3-0.998
			c0.898,0.797,1.798,1.595,2.911,2.583c-1.954,1.823-2.667,3.705,0.702,5.736c-1.347,0.563-2.25,0.94-3.154,1.318
			c0.149,0.492,0.299,0.985,0.447,1.478c1.953,0.412,3.905,0.823,6.675,1.406c0.754,3.738-8.494,3.212-5.456,8.03
			c-2.511,1.2-4.764,2.277-6.989,3.34c3.196,2.252,5.811,4.094,8.589,6.052c-1.631,0.859-1.631,0.859-4.616-1.435
			c-2.719,1.913-5.26,3.7-7.8,5.487c0.155,0.201,0.311,0.403,0.466,0.604c3.279-0.258,6.559-0.516,10.026-0.789
			c0.889,1.753,0.889,1.753-2.107,4.021c-0.561-0.43-1.125-0.873-1.706-1.293c-0.079-0.058-0.243,0.002-0.483,0.013
			c-1.311,1.44-2.679,2.94-4.081,4.48c3.832,3.96-1.873,4.94-2.397,8.033c2.31,2.733,7.634,4.612,4.825,10.295
			c-2.568-0.486-3.629,0.75-3.324,3.475c0.155,1.387-0.549,2.87-1.041,5.109c1.249,0.945,3.049,2.308,5.27,3.988
			c-2.864,2.606-4.96,5.496-3.611,9.179c2.129,0.475,4.094,0.914,6.494,1.449c-2.697,2.4-6.325,3.905-3.424,8.037
			c0.256,0.365-0.834,1.979-1.594,2.701c-3.341,3.177-3.378,3.13,0.718,5.138c0.425,0.208,0.801,0.516,1.522,0.988
			c-1.368,1.432-2.579,2.699-3.796,3.972c2.52,3.399,2.279,4.455-1.839,6.281c-2.646,1.173-2.873,2.528-0.716,4.368
			c2.352,2.004,3.34,3.795-0.377,5.507c-0.415,0.191-0.311,2.972,0.011,3.071c2.801,0.866,5.705,1.394,8.579,2.021l-0.11-0.099
			c-0.186,0.323-0.312,0.705-0.565,0.961c-3.223,3.257-3.208,3.443,0.503,5.839c0.512,0.329,0.982,0.721,1.82,1.343
			c-1.52,1.167-2.955,2.164-4.25,3.318c-0.495,0.441-1.016,1.295-0.928,1.871c0.304,1.998,1.325,3.987,1.189,5.917
			c-0.104,1.49-1.409,2.984-2.418,4.294c-0.781,1.014-1.93,1.744-2.916,2.6c0.055,0.438,0.109,0.874,0.165,1.312
			c1.482,0.107,2.973,0.162,4.446,0.343c0.923,0.112,2.605,0.383,2.615,0.633c0.149,3.915,3.703,4.729,5.898,6.759
			c0.82,0.759,1.536,1.631,2.963,3.165c0.613-0.974,1.117-1.771,1.628-2.582c0.533,0.42,1.112,0.874,1.807,1.42
			c-0.228,0.245-0.406,0.538-0.667,0.701c-0.911,0.568-1.997,1.713-2.757,1.534c-6.345-1.494-11.989,3.026-18.33,1.945
			c-1.812-0.31-3.893,1.005-5.858,1.544c-0.707,0.194-1.453,0.479-2.156,0.42c-8.927-0.761-17.696,0.674-26.433,2.078
			c-10.563,1.697-21.176,2.417-31.848,2.406c-16.988-0.017-33.981,0.094-50.962-0.292c-6.795-0.153-13.551-1.613-20.347-2.237
			c-8.022-0.736-16.075-1.133-24.1-1.844c-2.521-0.223-4.974-1.133-7.494-1.462c-3.66-0.478-7.535-0.125-10.984-1.199
			c-4.399-1.37-8.766-0.801-13.125-1.261c-1.367-0.145-2.605-1.502-4.236-2.51c0.954-1.33,1.955-2.728,3.099-4.323
			c2.398,1.719,3.892,5.208,7.479,2.447c-0.276,1.159-0.451,1.891-0.79,3.315c3.444-2.367,6.268-4.309,9.092-6.25
			c-0.13-0.259-0.259-0.519-0.39-0.777c-1.297,0.265-2.594,0.528-4.831,0.984c2.273-2.84,3.979-4.971,5.981-7.471
			c0.696,0.84,1.314,1.586,2.107,2.543c0.888-0.935,1.758-1.851,2.025-2.132c-0.36-2.085-0.618-3.567-0.941-5.439
			c-0.902,0.729-2.014,1.627-3.172,2.563c-0.652-1.062-1.386-2.254-2.349-3.821c1.24-1.108,2.658-2.377,4.077-3.645l-0.097,0.087
			c5.32-0.443,6.171-1.931,4.328-7.457c-0.941,0.451-1.885,0.904-2.829,1.358L121.588,277.59z M299.019,226.721
			c-0.69,1.544-1.293,2.593-1.616,3.723c-0.215,0.75-0.262,1.726,0.057,2.391c0.215,0.449,1.278,0.832,1.805,0.684
			c0.407-0.114,0.53-1.12,0.853-1.689c0.583-1.031,1.222-2.031,1.959-3.245C301.08,227.978,299.896,227.255,299.019,226.721z
			 M298.614,300.545c1.84,1.271,3.908,2.698,6.376,4.401C303.856,301.264,303.112,297.869,298.614,300.545z"/>
		<path fill-rule="evenodd" clip-rule="evenodd" fill="#FFFFFF" d="M138.679,89.03c12.807-0.659,25.646-0.976,38.396-2.223
			c3.102-0.304,5.997,0.185,8.974,0.018c6.063-0.34,12.113-0.973,18.179-1.186c5.737-0.202,11.63-0.801,17.19,0.216
			c5.28,0.966,10.254,0.107,15.373,0.118c7.398,0.015,14.79,1.241,22.193,1.856c12.644,1.05,25.311,1.854,37.937,3.089
			c9.854,0.964,19.713,2.114,29.466,3.78c5.783,0.988,11.358,3.168,17.043,4.755c2.034,0.568,4.158,0.833,6.165,1.474
			c4.878,1.555,9.843,2.951,14.516,4.995c2.961,1.296,5.64,3.436,8.122,5.572c2.546,2.191,1.68,6.348-0.661,8.769
			c-5.683,5.877-13.471,6.75-20.466,9.647c-4.496,1.861-8.872,3.512-13.644,4.259c-3.313,0.52-6.592,1.277-9.914,1.723
			c-7.233,0.972-14.505,1.671-21.722,2.755c-5.24,0.788-10.411,2.037-15.624,3.025c-1.466,0.277-2.963,0.453-4.454,0.521
			c-15.456,0.7-30.933,1.083-46.365,2.128c-13.626,0.923-27.247,0.948-40.88,1.002c-4.924,0.02-9.858,0.299-14.771,0.08
			c-9.403-0.42-18.795-1.107-28.19-1.695c-7.333-0.459-14.69-0.71-21.99-1.483c-5.376-0.57-10.667-1.9-16.016-2.766
			c-2.828-0.457-5.714-0.544-8.546-0.973c-11.769-1.785-23.582-3.356-35.262-5.608c-4.346-0.838-8.369-3.338-12.551-5.051
			c-0.564-0.231-1.19-0.376-1.798-0.428c-5.638-0.473-9.94-3.206-13.375-7.607c-2.563-3.284-1.649-8.138,2.103-10.017
			c5.067-2.538,10.12-5.115,15.276-7.46c1.867-0.85,4.019-1.068,6.033-1.6C77,98.71,84.51,96.322,92.191,94.805
			c6.205-1.226,12.624-1.332,18.932-2.073c6.858-0.806,13.697-1.773,20.545-2.666c2.329-0.303,4.659-0.596,6.988-0.893
			C138.663,89.125,138.671,89.078,138.679,89.03z M209.077,100.842c0.673-2.362,1.149-4.033,1.626-5.704
			c-0.771-0.029-1.79-0.39-2.269-0.03C206.599,96.484,206.191,98.17,209.077,100.842z M206.761,92.371
			c0.655,0.284,1.31,0.569,1.965,0.854c0.736-1.27,1.472-2.539,2.208-3.809c-1.041-0.385-2.083-0.769-3.125-1.152
			C207.46,89.633,207.11,91.002,206.761,92.371z"/>
		<path fill-rule="evenodd" clip-rule="evenodd" fill="#FFFFFF" d="M114.433,220.376c0.193,0.959,0.387,1.918,0.59,2.857
			c-1.25,1.016-2.511,2.053-3.844,3.149c-1.121-1.045-1.985-1.851-3.091-2.883C110.202,222.146,110.057,217.085,114.433,220.376z"/>
		<path fill-rule="evenodd" clip-rule="evenodd" fill="#FFFFFF" d="M109.556,236.518c0.604,1.147,1.419,2.692,2.233,4.238
			c-2.071,0.136-4.142,0.271-6.212,0.406c-0.326-0.575-0.653-1.15-0.979-1.726C106.113,238.544,107.629,237.653,109.556,236.518z"/>
		<path fill-rule="evenodd" clip-rule="evenodd" fill="#FFFFFF" d="M115.387,279.625c1.126-3.543,4.092-1.483,6.201-2.035
			l-0.113-0.098c-0.5,2.032-1,4.065-1.499,6.099l0.097-0.087c-3.419,0.867-2.555-3.408-4.777-3.979L115.387,279.625z"/>
		<path fill-rule="evenodd" clip-rule="evenodd" fill="#FFFFFF" d="M99.529,273.654c0.401-1.748,0.72-3.142,1.236-5.395
			c1.17,1.113,2.705,1.926,3.054,3.093c0.33,1.104-0.585,2.578-1.074,4.327C101.246,274.735,100.273,274.123,99.529,273.654z"/>
		<path fill-rule="evenodd" clip-rule="evenodd" fill="#FFFFFF" d="M103.787,154.547c0.963,1.67,1.415,2.454,1.965,3.407
			c0.677-0.828,1.192-1.456,2.175-2.657c0.477,2.409,0.836,4.23,1.376,6.958C106.345,160.125,102.688,159.902,103.787,154.547z"/>
		<path fill-rule="evenodd" clip-rule="evenodd" fill="#FFFFFF" d="M307.352,297.337c1.479-1.295,2.424-2.122,3.838-3.359
			c0.555,1.513,1.273,2.966,1.517,4.494c0.06,0.38-1.683,1.601-2.149,1.398C309.379,299.363,308.456,298.265,307.352,297.337z"/>
		<path fill-rule="evenodd" clip-rule="evenodd" d="M118.271,236.487c1.965-0.448,3.931-0.895,6.883-1.567
			c-1.156,2.726-1.864,4.398-2.192,5.169c-1.518-1.054-3.1-2.153-4.683-3.252C118.227,236.726,118.224,236.609,118.271,236.487z"/>
		<path fill-rule="evenodd" clip-rule="evenodd" fill="#FFFFFF" d="M315.84,202.432c1.416,1.073,2.604,1.973,3.767,2.856
			c-1.157,0.884-2.354,1.797-3.084,2.354c-0.792-0.907-1.636-1.875-2.685-3.077C314.025,204.364,314.884,203.451,315.84,202.432z"/>
		<path fill-rule="evenodd" clip-rule="evenodd" fill="#FFFFFF" d="M309.732,201.092c2.289,0.287,4.715,0.388,1.985,3.607
			c-0.367,0.433,0.552,1.958,1.204,4.011c-1.999-1.263-3.28-2.072-4.187-2.646c0.415-1.909,0.758-3.49,1.101-5.07L309.732,201.092z"
			/>
		<path fill-rule="evenodd" clip-rule="evenodd" fill="#FFFFFF" d="M306.134,268.593c-0.586-1.014-1.172-2.027-2.014-3.483
			c2.032,0,3.638,0,5.244,0c0.192,0.32,0.386,0.641,0.579,0.961c-1.308,0.808-2.614,1.615-3.921,2.423
			C306.023,268.494,306.134,268.593,306.134,268.593z"/>
		<path fill-rule="evenodd" clip-rule="evenodd" fill="#FFFFFF" d="M309.836,200.994c-1.037-0.57-2.075-1.141-3.112-1.71
			c0.879-1.202,1.758-2.405,2.636-3.607c0.385,0.203,0.769,0.406,1.153,0.609c-0.26,1.602-0.52,3.204-0.779,4.806
			C309.732,201.092,309.836,200.994,309.836,200.994z"/>
		<path fill-rule="evenodd" clip-rule="evenodd" fill="#FFFFFF" d="M115.295,279.525c0.682,4.672,0.682,4.672-2.504,7.004
			c0.25-2.749-1.064-5.674,2.603-6.897C115.387,279.625,115.295,279.525,115.295,279.525z"/>
		<path fill-rule="evenodd" clip-rule="evenodd" fill="#FFFFFF" d="M302.156,208.448c2.38,0,3.895,0,6.365,0
			c-1.271,1.529-2.096,2.521-2.921,3.513C304.604,210.945,303.607,209.928,302.156,208.448z"/>
		<path fill-rule="evenodd" clip-rule="evenodd" fill="#FFFFFF" d="M304.249,187.709c1.203-2.281,2.074-4.205,4.632-2.232
			c0.517,0.397,0.628,1.32,0.927,2c-0.634-0.018-1.268-0.074-1.898-0.045C306.903,187.479,305.899,187.581,304.249,187.709z"/>
		<path fill-rule="evenodd" clip-rule="evenodd" fill="#FFFFFF" d="M106.28,227.963c0.977,1.222,2.493,2.341,2.749,3.699
			c0.185,0.98-1.305,2.278-2.4,3.2c1.945-2.56,0.966-4.458-1.502-6.164C105.511,228.454,105.895,228.208,106.28,227.963z"/>
		<path fill-rule="evenodd" clip-rule="evenodd" d="M302.147,146.448c4.377,1.153,5.767,4.657,3.138,9.034
			c-2.029-2.091-3.957-4.078-5.847-6.025c1.309-1.446,2.071-2.287,2.83-3.126C302.268,146.334,302.147,146.448,302.147,146.448z"/>
		<path fill-rule="evenodd" clip-rule="evenodd" d="M119.976,283.591c0.5-2.033,1-4.066,1.499-6.099
			c0.944-0.454,1.888-0.907,2.829-1.358C126.146,281.66,125.296,283.147,119.976,283.591z"/>
		<path fill-rule="evenodd" clip-rule="evenodd" d="M117.626,264.96c0.981-1.046,1.962-2.092,2.951-3.146
			c4.307,3.138,4.295,3.672-0.502,6.057c-0.754-0.972-1.554-2.001-2.356-3.026C117.716,264.849,117.626,264.96,117.626,264.96z"/>
		<path fill-rule="evenodd" clip-rule="evenodd" d="M299.019,226.721c0.877,0.534,2.062,1.256,3.057,1.864
			c-0.737,1.214-1.376,2.214-1.959,3.245c-0.322,0.569-0.445,1.575-0.853,1.689c-0.526,0.148-1.59-0.235-1.805-0.684
			c-0.318-0.665-0.271-1.641-0.057-2.391C297.726,229.314,298.328,228.266,299.019,226.721z"/>
		<path fill-rule="evenodd" clip-rule="evenodd" d="M298.614,300.545c4.498-2.676,5.242,0.719,6.376,4.401
			C302.522,303.243,300.454,301.815,298.614,300.545z"/>
		<path fill-rule="evenodd" clip-rule="evenodd" d="M121.492,270.729c0.744-0.92,1.489-1.839,2.233-2.758
			c0.396,0.216,0.791,0.433,1.186,0.649c-0.14,1.738-0.281,3.477-0.484,5.992c-1.346-1.779-2.184-2.886-3.023-3.995
			C121.402,270.614,121.492,270.729,121.492,270.729z"/>
		<path fill-rule="evenodd" clip-rule="evenodd" d="M209.077,100.842c-2.886-2.672-2.478-4.358-0.643-5.734
			c0.479-0.359,1.498,0.001,2.269,0.03C210.227,96.809,209.75,98.48,209.077,100.842z"/>
		<path fill-rule="evenodd" clip-rule="evenodd" d="M206.761,92.371c0.35-1.369,0.7-2.738,1.049-4.106
			c1.042,0.384,2.083,0.768,3.125,1.152c-0.736,1.27-1.473,2.539-2.208,3.809C208.07,92.94,207.416,92.655,206.761,92.371z"/>
	</g>
</g>
</svg>
