<?xml version="1.0" encoding="utf-8"?>
<!-- Generator: Adobe Illustrator 16.0.0, SVG Export Plug-In . SVG Version: 6.00 Build 0)  -->
<!DOCTYPE svg PUBLIC "-//W3C//DTD SVG 1.1//EN" "http://www.w3.org/Graphics/SVG/1.1/DTD/svg11.dtd">
<svg version="1.1" id="Layer_1" xmlns="http://www.w3.org/2000/svg" xmlns:xlink="http://www.w3.org/1999/xlink" x="0px" y="0px"
	 width="441.812px" height="474.816px" viewBox="0 0 441.812 474.816" enable-background="new 0 0 441.812 474.816"
	 xml:space="preserve">
<g>
	<g>
		<path fill-rule="evenodd" clip-rule="evenodd" fill="#FFFFFF" d="M442.562,475.566c-147.271,0-294.541,0-441.812,0
			c0-158.272,0-316.544,0-474.816c147.271,0,294.541,0,441.812,0C442.562,159.022,442.562,317.294,442.562,475.566z
			 M270.542,247.905c0.507-1.107,1.247-1.927,1.093-2.506c-1.942-7.273-3.861-14.561-6.127-21.736
			c-0.896-2.834-0.254-3.575,2.521-3.505c3.572,0.091,7.151-0.122,10.728-0.095c8.148,0.062,16.298,0.266,24.444,0.209
			c1.274-0.009,2.975-0.758,3.717-1.74c1.366-1.806,2.026-4.126,3.233-6.076c2.509-4.055,5.336-7.916,7.756-12.02
			c5.747-9.747,11.292-19.61,16.993-29.384c6.238-10.693,12.757-21.227,18.785-32.034c4.894-8.772,10.224-17.294,14.804-26.25
			c2.573-5.033,5.763-9.748,8.573-14.665c2.033-3.556,1.198-4.969-2.882-5.122c-1.872-0.071-3.748-0.068-5.623-0.068
			c-39.973,0.002-79.945,0.034-119.918,0.007c-48.854-0.032-97.707-0.108-146.559-0.186c-2.213-0.004-4.425-0.237-6.638-0.304
			c-0.845-0.025-2.009-0.194-2.461,0.262c-0.563,0.569-0.91,1.819-0.697,2.596c0.451,1.645,1.204,3.243,2.045,4.741
			c6.009,10.691,12.08,21.347,18.113,32.025c5.674,10.043,11.229,20.157,17.021,30.132c3.738,6.439,7.957,12.6,11.694,19.041
			c6.649,11.461,13.101,23.037,19.622,34.572c1.432,2.534,3.096,4.158,6.479,3.686c3.301-0.461,6.713-0.223,10.073-0.143
			c12.304,0.292,24.604,0.857,36.909,0.917c12.194,0.059,24.389-0.442,36.585-0.531c3.144-0.022,6.292,0.582,10.201,0.975
			c-3.432,8.865-6.604,17.057-9.775,25.25c0.226,0.181,0.451,0.362,0.677,0.544c2.487-1.693,4.976-3.385,8.162-5.553
			c-0.503,8.422-1.33,15.857-1.305,23.291c0.043,12.508-1.895,25.226,2.944,37.35c0.537,1.346,1.678,3.405,2.597,3.437
			c1.73,0.06,4.17-0.603,5.149-1.868c5.767-7.443,11.43-14.992,16.667-22.814c4.265-6.367,14.904-9.93,21.819-7.936
			c3.085,0.891,6.3,1.459,9.495,1.778c1.106,0.109,2.331-0.974,3.503-1.512c-0.088-0.441-0.175-0.883-0.263-1.323
			c-4.511-0.645-9.154-0.817-13.497-2.052c-5.444-1.546-10.505-0.208-15.059,1.873c-7.107,3.249-11.061,10.054-15.411,16.259
			c-2.731,3.894-5.688,7.632-8.625,11.375c-1.64,2.09-3.303,1.932-3.813-0.744c-0.969-5.105-2.231-10.276-2.232-15.42
			c-0.003-11.962,0.659-23.924,1.083-35.885c0.059-1.649,0.293-3.293,0.551-6.07C266.352,243.485,268.181,245.415,270.542,247.905z
			 M124.53,48.041c-1.95-0.208-3.084-0.667-3.96-0.367c-3.939,1.351-7.704,3.353-11.725,4.294
			c-5.001,1.172-9.757,5.597-15.384,1.774c-0.185-0.126-0.787,0.363-1.195,0.565c0.311,0.13,0.622,0.259,0.933,0.388
			c-0.244,1.605-0.534,3.206-0.708,4.818c-0.06,0.549-0.016,1.352,0.321,1.638c0.389,0.33,1.49,0.503,1.704,0.252
			c2.599-3.063,5.494-1.175,8.147-0.408c5.996,1.735,11.896,3.797,17.874,5.596c0.848,0.255,1.914-0.216,3.471-0.434
			c-2.5-2.735-4.226-4.625-6.219-6.805c78.492,0,156.281,0,234.577,0c-2.18,2.827-4.049,5.251-5.918,7.675
			c1.877,0.485,3.318,0.341,4.649-0.124c5.046-1.76,10.028-3.704,15.09-5.418c3.17-1.073,6.47-1.767,9.64-2.841
			c0.72-0.244,1.143-1.362,1.702-2.078c-0.79-0.431-1.548-1.136-2.377-1.235c-1.589-0.19-3.352,0.376-4.809-0.095
			c-6.735-2.181-13.375-4.657-20.091-6.905c-1.177-0.393-2.549-0.203-3.831-0.282c-0.186,0.327-0.371,0.654-0.557,0.981
			c1.885,2.001,3.77,4.001,5.852,6.211c-78.003,0-155.499,0-233.708,0C120.2,52.824,121.898,50.948,124.53,48.041z M229.88,397.29
			c6.296,0,12.029-0.297,17.715,0.105c3.671,0.26,6.795,0.515,8.451-3.612c0.07-0.176,2.609,0.085,3.255,0.807
			c1.542,1.728,2.588,4.495,5.367,2.579c0.505-0.349-0.481-3.835-1.558-5.302c-2.248-3.063-3.016-5.766-0.099-8.749
			c0.59-0.603,1.129-1.35,1.414-2.13c0.351-0.961,0.411-2.028,0.597-3.049c-1.085,0.172-2.228,0.188-3.233,0.566
			c-0.735,0.278-1.421,0.94-1.902,1.596c-1.626,2.216-2.955,2.007-4.617-0.076c-1.323-1.658-2.771-3.708-6.11-2.031
			c0.834,1.401,1.731,2.639,2.344,4.005c0.854,1.901,2.404,4.109,2.013,5.807c-0.576,2.498-2.603,4.662-3.567,6.239
			c-2.781-0.444-4.51-0.841-6.257-0.968c-1.923-0.14-3.865-0.031-6.183-0.031c0.84-1.602,1.215-2.786,1.964-3.645
			c1.449-1.663,3.164-3.092,4.67-4.709c3.324-3.568,3.978-9.297,1.397-11.642c-2.181-1.983-9.69-2.975-12.013-1.226
			c-1.366,1.029-2.348,2.717-3.131,4.293c-0.276,0.556,0.424,2.286,0.902,2.384c1.03,0.209,2.281-0.119,3.29-0.57
			c0.566-0.253,0.696-1.53,1.255-1.748c1.537-0.598,3.196-0.879,4.808-1.286c0.423,1.683,1.662,3.752,1.088,4.963
			c-0.971,2.047-2.864,3.861-4.767,5.221C232.732,388.114,230.4,392.029,229.88,397.29z M269.276,324.959
			c-0.162,0.663-0.476,1.371-0.484,2.082c-0.059,4.725-0.161,9.455,0.017,14.173c0.04,1.072,1.123,2.104,1.726,3.153
			c0.845-1.019,2.247-1.948,2.428-3.073c0.491-3.065,0.471-6.213,0.641-9.328c0.116-2.132,0.495-4.139,3.229-4.084
			c3.02,0.059,2.647,2.474,2.689,4.386c0.087,3.936,0.026,7.873,0.026,11.723c3.565,0.787,4.569-0.701,4.593-3.284
			c0.03-3.239-0.276-6.525,0.199-9.696c0.179-1.197,2.134-2.13,3.28-3.184c0.778,1.049,2.122,2.041,2.23,3.154
			c0.338,3.465,0.05,6.99,0.358,10.46c0.09,1.014,1.363,1.923,2.095,2.88c0.825-0.987,2.297-1.935,2.36-2.969
			c0.234-3.85,0.174-7.741-0.103-11.593c-0.199-2.758-1.263-5.207-4.71-5.148c-2.489,0.043-4.976,0.3-7.465,0.334
			C278.066,325.001,273.745,324.959,269.276,324.959z M389.947,269.308c0.28-0.261,0.56-0.522,0.84-0.783
			c0.747,0.54,1.427,1.247,2.258,1.581c1.041,0.418,2.205,0.53,3.316,0.773c-0.086-1.472-0.095-4.216-0.271-4.227
			c-2.554-0.157-5.413-0.607-7.631,0.341c-2.781,1.189-2.348,4.022-1.038,6.434c0.763,1.404,1.852,2.66,2.422,4.127
			c0.285,0.735-0.263,1.795-0.434,2.709c-0.789-0.345-1.912-0.473-2.303-1.074c-1.042-1.608-1.927-2.533-3.87-1.122
			c-0.273,0.198-2.19-0.943-2.276-1.604c-0.187-1.424,0.355-2.934,0.541-4.414c0.246-1.955,0.436-3.918,0.649-5.877
			c-2.358-0.162-5.139-1.203-6.993-0.314c-4.922,2.359-8.438,6.343-9.08,12.103c-0.436,3.908,2.591,5.901,6.491,4.561
			c1.178-0.404,2.48-0.536,3.735-0.599c1.926-0.097,3.861-0.025,5.793-0.025c0.533-0.427,1.018-0.021,1.567,0.254
			c3.28,1.639,8.376,1.424,9.779-0.766c2.013-3.137,0.247-5.877-1.536-8.516C391.152,271.75,390.595,270.498,389.947,269.308z
			 M14.967,377.92c1.525,5.628,2.941,11.283,4.665,16.843c0.349,1.126,1.86,2.61,2.844,2.616c0.967,0.006,2.389-1.487,2.825-2.625
			c1.021-2.655,1.57-5.493,2.574-9.24c0.701,2.07,1.147,3.281,1.52,4.516c0.568,1.888,0.847,3.911,1.721,5.638
			c0.457,0.902,1.92,1.754,2.933,1.758c0.687,0.003,1.655-1.4,2.019-2.357c1.02-2.681,1.896-5.428,2.632-8.201
			c0.801-3.024,1.381-6.106,2.162-9.636c-6.798,0.325-4.641,6.511-7.754,9.609c-0.603-1.146-1.188-2.036-1.556-3.008
			c-0.508-1.339-0.654-2.851-1.333-4.079c-0.542-0.98-1.649-1.649-2.506-2.458c-0.799,1.102-1.858,2.1-2.342,3.325
			c-0.867,2.197-1.388,4.532-2.053,6.81c-0.317,0.011-0.634,0.021-0.952,0.032c-0.473-1.721-1.033-3.423-1.401-5.166
			C19.948,377.493,19.29,376.924,14.967,377.92z M241.399,443.405c-0.687-3.258-1.043-6.634-2.146-9.744
			c-1.366-3.852-4.656-5.777-8.521-4.498c-2.683,0.888-6.114,2.74-7.047,5.04c-2.084,5.139-2.612,10.752-0.371,16.328
			c2.029,5.048,8.433,7.245,13.094,4.403C240.913,452.188,240.736,447.848,241.399,443.405z M27.502,333.553
			c0.292-0.119,0.584-0.238,0.875-0.357c0.556,2.184,0.91,4.447,1.738,6.522c0.539,1.349,1.586,2.684,2.767,3.503
			c0.528,0.366,2.645-0.313,2.85-0.919c1.905-5.638,3.551-11.362,5.317-17.209c-3.494-0.92-5.044-0.327-5.253,3.026
			c-0.123,1.97-1.165,3.883-1.794,5.821c-0.307,0.052-0.614,0.103-0.921,0.155c-0.542-1.361-1.163-2.696-1.601-4.089
			c-0.364-1.157-0.232-2.555-0.833-3.527c-0.638-1.03-1.882-1.685-2.861-2.504c-0.793,1.093-1.859,2.083-2.32,3.301
			c-0.871,2.3-1.394,4.732-2.061,7.109c-1.488-1.977-2.24-3.896-2.548-5.886c-0.636-4.099-1.549-4.714-6.092-3.189
			c1.904,5.509,3.747,11.051,5.783,16.521c0.346,0.932,1.527,1.553,2.323,2.316c0.861-0.948,2.093-1.759,2.507-2.874
			C26.302,338.78,26.819,336.136,27.502,333.553z M175.854,395.047c0.077,0.004,0.154,0.009,0.231,0.013
			c-0.117,1.854-0.605,3.784-0.24,5.537c0.322,1.553,1.593,2.908,2.446,4.351c0.639-1.243,1.543-2.425,1.85-3.744
			c0.38-1.641-0.222-3.533,2.588-3.552c6.486-0.042,8.614-1.499,10.147-7.49c1.732-6.77-1.614-15.246-11.434-12.396
			c-0.565,0.164-1.279-0.093-1.904-0.238c-2.546-0.594-3.746,0.306-3.705,3.007C175.907,385.371,175.854,390.209,175.854,395.047z
			 M190.88,20.196c-2.595,0.21-4.603-0.179-5.969,0.583c-5.101,2.844-8.608,7.202-9.183,13.117
			c-0.182,1.869,1.115,4.281,2.487,5.735c0.711,0.752,3.067-0.129,4.68-0.129c1.598,0,3.222,0.405,4.783,0.217
			c1.558-0.187,3.324-0.555,4.477-1.489c0.733-0.592,0.703-2.367,0.676-3.603c-0.041-1.837-0.887-3.786-0.493-5.477
			c0.915-3.915,2.471-7.675,3.558-11.557c0.54-1.927,0.619-3.983,0.905-5.972c-2.185,0-3.712,0-4.816,0
			C191.585,14.724,191.232,17.463,190.88,20.196z M62.469,376.92c-3.315,0.438-6.161,0.278-8.554,1.243
			c-4.826,1.944-4.8,6.325-4.453,10.72c0.487,6.167,4.106,9.315,10.17,8.718c1.471-0.145,3.059,0.16,4.404-0.298
			c1.097-0.374,2.694-1.551,2.725-2.419c0.252-7.223,0.263-14.458,0.141-21.687c-0.016-0.938-1.202-1.855-1.847-2.784
			c-0.862,0.883-2.101,1.628-2.488,2.685C62.134,374.285,62.469,375.754,62.469,376.92z M309.33,47.909
			c-0.318-1.844-0.951-3.351-0.685-4.677c0.199-0.991,1.62-2.548,2.391-2.488c8.326,0.647,11.415-4.449,13.658-11.299
			c1.186-3.624,0.517-6.441-2.31-8.065c-1.592-0.914-4.279,0.08-7.03,0.249c-0.849-2.246-3.545-1.24-5.737-0.543
			c-2.969,0.944-0.497,2.747-0.273,4.197c0.074,0.48,0.088,1.019-0.054,1.474c-2.188,6.992-4.405,13.974-6.677,21.153
			C304.574,47.909,306.839,47.909,309.33,47.909z M127.209,442.13c0.261,0.111,0.523,0.223,0.785,0.334
			c0.103,1.989,0.075,3.996,0.34,5.963c0.519,3.865,3.795,7.513,6.851,7.554c3.723,0.049,7.294-1.404,9.015-6.258
			c1.848-5.213,1.575-10.103-0.424-14.716c-1.056-2.436-3.868-4.527-6.38-5.806c-2.945-1.498-5.298,0.91-6.547,3.27
			C129.252,435.487,128.389,438.892,127.209,442.13z M216.657,11.061c-2.614,0.308-4.371,0.515-5.156,0.607
			c-0.42,3.273-0.49,5.891-1.128,8.363c-1.453,5.624-3.266,11.155-4.717,16.781c-0.226,0.876,0.689,2.046,1.077,3.079
			c1.027-0.522,2.44-0.79,2.99-1.625c0.85-1.291,1.086-2.979,1.622-4.486c1.341-3.77,3.723-6.621,7.595-8.359
			c-0.368,3.682-1.322,7.142-1.879,10.664c-0.2,1.264,0.56,2.679,0.881,4.025c1.218-0.372,2.777-0.406,3.569-1.202
			c0.993-0.999,2.177-3.544,1.858-3.827c-2.187-1.946-0.961-3.563-0.218-5.528c0.599-1.588,0.782-3.463,0.627-5.162
			c-0.108-1.182-0.838-2.759-1.778-3.28c-0.855-0.475-2.429,0.067-3.576,0.473c-1.24,0.439-2.353,1.238-4.536,2.437
			C214.925,19.171,215.708,15.504,216.657,11.061z M209.842,451.521c0.542-1.371,0.633-2.159,1.069-2.617
			c2.255-2.371,4.68-4.583,6.889-6.994c2.154-2.351,1.993-7.732-0.126-10.122c-4.018-4.528-9.645-3.938-13.931,1.195
			c-1.603,1.92-1.46,3.523,0.3,4.702c1.687,1.13,2.636,0.166,3.418-1.783c0.917-2.281,3.494-3.499,5.45-1.993
			c1.158,0.891,1.813,4.163,1.079,5.43c-1.616,2.789-4.271,4.973-6.471,7.43c-1.576,1.759-3.374,3.408-4.504,5.425
			c-0.401,0.715,0.887,3.438,1.385,3.433c4.775-0.05,9.551-0.434,14.31-0.889c0.549-0.052,1-1.112,1.497-1.705
			c-0.742-0.504-1.457-1.382-2.233-1.44C215.504,451.404,213.012,451.521,209.842,451.521z M154.902,20.552
			c-0.399,0.009-0.799,0.017-1.199,0.025c-2.318,3.142-3.89,6.971-7.561,9.712c-0.35-3.106-0.158-5.388-0.974-7.221
			c-0.529-1.187-2.45-1.988-3.909-2.425c-0.719-0.216-1.804,0.785-2.722,1.236c0.684,1.074,1.465,2.099,2.029,3.232
			c0.689,1.384,1.539,2.819,1.706,4.301c0.293,2.593,0.009,5.246,0.205,7.857c0.058,0.777,0.91,1.495,1.398,2.241
			c0.623-0.438,1.425-0.752,1.838-1.339c1.661-2.356,3.2-4.797,4.785-7.207c0.889,1.971,0.883,3.802,1.204,5.574
			c0.197,1.091,0.894,2.092,1.365,3.134c1.008-0.497,2.38-0.732,2.959-1.538c2.241-3.115,4.418-6.31,6.228-9.685
			c0.872-1.625,1.125-3.714,1.147-5.599c0.009-0.77-1.34-1.553-2.071-2.331c-0.656,1.044-2.115,2.442-1.837,3.075
			c1.708,3.875-1.039,5.849-2.91,8.999C155.951,28.057,155.426,24.304,154.902,20.552z M62.488,323.327
			c-3.392,0.68-6.109,0.768-8.414,1.789c-3.855,1.707-5.957,8.602-4.289,12.66c2.129,5.18,6.342,7.06,11.688,5.306
			c0.629-0.207,1.541-0.162,2.107,0.151c2.499,1.386,3.183-0.237,3.209-2.092c0.109-7.802,0.046-15.605,0.046-23.381
			C64.089,317.356,64.089,317.356,62.488,323.327z M380.109,344.299c0.991,0,2.001-0.118,2.973,0.021
			c3.235,0.467,3.745-1.242,3.648-3.981c-0.218-6.175-0.135-12.361-0.341-18.537c-0.049-1.437-0.649-2.904-1.261-4.236
			c-0.139-0.304-1.947-0.305-2.02-0.103c-0.46,1.303-0.999,2.737-0.855,4.059c0.271,2.516-0.461,3.249-3.042,3.183
			c-2.232-0.059-4.948,0.113-6.633,1.322c-3.18,2.284-4.017,9.678-2.191,13.517C372.099,343.143,375.141,344.631,380.109,344.299z
			 M118.919,383.479c-1.665,0.443-3.306,1.132-4.997,1.285c-5.604,0.51-8.481,4.512-6.535,9.753
			c0.462,1.245,2.021,2.838,3.186,2.933c4.295,0.351,8.635,0.14,12.966,0.14c0-4.548-0.14-8.645,0.044-12.726
			c0.147-3.257-0.691-6.026-3.678-7.407c-3.184-1.474-9.988,0.007-11.627,2.396c-0.576,0.841-0.236,2.31-0.314,3.491
			c1.098-0.15,2.751,0.103,3.202-0.519C113.638,379.425,116.066,380.41,118.919,383.479z M119.057,330.496
			c-1.896,0.56-3.742,1.396-5.655,1.601c-2.953,0.317-5.173,1.28-6.203,4.287c-1.137,3.318,0.693,5.968,3.007,7.118
			c1.861,0.925,4.727-0.197,7.15-0.372c1.109-0.08,2.585-0.54,3.275-0.014c2.942,2.237,3.131,0.126,3.194-1.897
			c0.092-2.98,0.021-5.971-0.123-8.949c-0.076-1.567-0.144-3.256-0.754-4.653c-2.365-5.41-10.496-4.611-13.782-1.761
			c-0.957,0.83-1.622,3.665-1.047,4.263c1.509,1.572,2.786,0.487,3.976-1.313C113.708,326.367,117.763,327.346,119.057,330.496z
			 M84.83,377.298c0-1.229-0.054-2.092,0.011-2.945c0.141-1.848,0.027-3.898-2.252-3.864c-2.252,0.035-2.222,2.182-2.215,3.945
			c0.023,6.358,0.029,12.717,0.069,19.075c0.005,0.741-0.057,1.665,0.337,2.178c0.599,0.78,1.57,1.275,2.383,1.893
			c0.56-0.786,1.56-1.548,1.604-2.362c0.183-3.356,0.274-6.745,0.019-10.093c-0.25-3.272,2.042-4.233,4.237-4.466
			c2.475-0.261,3.101,1.978,3.136,4.11c0.056,3.367-0.16,6.758,0.194,10.089c0.105,0.993,1.734,1.825,2.664,2.73
			c0.589-0.898,1.653-1.779,1.687-2.697c0.145-4.109,0.103-8.233-0.08-12.343c-0.137-3.093-1.976-4.927-5.046-5.212
			C89.497,377.143,87.383,377.298,84.83,377.298z M176.365,324.957c0,7.833-0.064,15.63,0.1,23.422
			c0.017,0.778,1.422,1.528,2.184,2.291c0.55-0.903,1.552-1.802,1.56-2.709c0.02-2.269,0.088-3.87,3.131-3.736
			c4.926,0.216,8.489-2.655,9.817-7.446c1.464-5.286-1.534-11.784-6.174-12.365C183.787,324.013,180.455,324.703,176.365,324.957z
			 M407.792,337.978c-2.274,0.293-3.648,0.423-5.006,0.653c-1.952,0.332-3.904,1.051-5.831,0.974
			c-0.919-0.038-1.78-1.527-2.667-2.36c1.018-0.563,2.01-1.541,3.061-1.609c3.241-0.214,6.504-0.078,9.664-0.078
			c0.569-4.795-1.275-9.308-3.991-10.61c-3.294-1.579-10.6,0.016-12.467,2.997c-1.725,2.754-2.57,10.21,0.779,13.596
			C396.313,346.572,402.597,345.634,407.792,337.978z M81.063,343.959c0.797,0.089,1.594,0.178,2.391,0.267
			c0.469-1.539,1.159-3.05,1.361-4.624c0.423-3.29,0.258-6.698,1.061-9.874c0.239-0.948,2.865-1.603,4.452-1.732
			c0.554-0.046,1.748,1.852,1.826,2.922c0.245,3.348-0.105,6.744,0.217,10.079c0.107,1.102,1.559,2.073,2.396,3.104
			c0.669-1.02,1.854-2.008,1.915-3.062c0.22-3.728,0.081-7.477,0.029-11.217c-0.041-2.913-1.333-5.159-4.285-5.633
			c-2.401-0.385-4.912-0.078-7.669-0.078c0-1.967,0-4.299,0-6.618c-3.698-0.088-4.344,0.64-4.284,3.984
			c0.077,4.311-0.063,8.625,0.031,12.935C80.574,337.597,80.869,340.776,81.063,343.959z M254.269,20.417
			c-1.555,0.538-3.012,1.491-3.483,1.136c-3.906-2.944-6.434-0.048-8.994,2.033c-3.859,3.136-6.055,7.211-5.551,12.34
			c0.357,3.654,3.501,5.493,6.633,3.884c1.665-0.855,2.803-1.219,4.67,0.061c0.943,0.647,3.556-0.382,4.884-1.366
			c0.703-0.521,0.331-2.57,0.34-3.93c0.006-1.053-0.384-2.153-0.19-3.153c0.495-2.545,1.307-5.029,1.81-7.574
			C254.591,22.807,254.326,21.675,254.269,20.417z M155.806,387.127c0.054,7.168,2.708,10.621,8.118,10.562
			c6.306-0.067,10.107-3.839,9.773-10.625c-0.277-5.64-2.059-10.398-9.936-9.868C158.229,377.567,155.754,380.362,155.806,387.127z
			 M303.457,334.552c0.391,7.192,3.68,10.003,10.69,9.926c3.68-0.041,8.268-5.758,7.833-10.411
			c-0.591-6.329-4.089-10.635-8.802-10.506C306.532,323.74,303.083,327.641,303.457,334.552z M242.152,339.158
			c-3.475,0.953-5.685,0.927-7.656-1.316c-0.548-0.623-2.112-0.352-3.21-0.491c0.074,0.939-0.146,2.046,0.272,2.79
			c2.309,4.092,4.967,5.573,9.333,3.969c2.143-0.788,4.242-3.323,5.077-5.549c0.731-1.944-0.324-4.478-3.162-5.298
			c-1.795-0.52-3.574-1.275-5.157-2.254c-0.691-0.427-0.876-1.677-1.29-2.554c1.171-0.107,2.354-0.349,3.507-0.245
			c0.393,0.034,0.612,1.231,1.078,1.382c1.096,0.354,2.291,0.396,3.445,0.563c0.008-1.216,0.512-3.073-0.073-3.525
			c-1.599-1.238-3.652-2.577-5.53-2.585c-2.253-0.009-5.272,0.699-6.538,2.254c-1.106,1.359-1.145,5.061-0.042,6.402
			c1.635,1.991,4.72,2.77,7.134,4.156C240.191,337.347,240.887,338.106,242.152,339.158z M354.973,338.757
			c-0.245,0.548-0.49,1.095-0.735,1.643c-2.026-0.719-4.05-1.447-6.079-2.154c-1.034-0.36-2.08-0.685-3.12-1.024
			c0.049,1.336-0.321,2.883,0.225,3.969c1.713,3.404,4.953,3.477,8.245,3.184c2.336-0.207,6.12-3.767,6.249-5.936
			c0.152-2.541-2.528-5.569-5.398-6.201c-1.178-0.259-2.428-0.51-3.437-1.113c-0.745-0.445-1.153-1.456-1.712-2.214
			c0.922-0.346,1.879-1.027,2.756-0.938c0.798,0.081,1.439,1.191,2.279,1.505c1.212,0.453,2.539,0.596,3.816,0.87
			c-0.23-1.327-0.146-3.625-0.743-3.819c-2.814-0.915-5.822-1.656-8.748-1.61c-1.287,0.02-3.435,1.942-3.601,3.211
			c-0.244,1.856,0.39,4.447,1.657,5.728c1.571,1.588,4.2,2.102,6.312,3.195C353.706,337.448,354.3,338.179,354.973,338.757z
			 M412.13,337.109c-2.693,0.932-2.895,2.211-1.245,4.389c3.304,4.359,9.952,4.235,13.01-0.372c1.273-1.918,2.107-4.061,0.133-5.693
			c-1.73-1.433-4.065-2.121-6.093-3.216c-1.119-0.604-2.198-1.314-3.165-2.131c-0.112-0.095,0.665-1.738,0.944-1.712
			c1.198,0.108,2.397,0.484,3.531,0.93c1.316,0.517,2.563,1.207,4.04,1.919c0.687-4.383-0.615-6.278-3.996-6.566
			c-1.606-0.137-3.235-0.007-4.854-0.007c-2.99,0.001-4.156,1.761-4.34,4.48c-0.323,4.789,1.642,5.052,7.4,7.752
			c0.995,0.467,1.875,1.178,3.238,2.051C416.474,341.327,414.396,338.725,412.13,337.109z M265.025,325.429
			c-3.904-1.39-4.446-0.974-4.465,2.791c-0.016,2.982-0.128,5.982-0.496,8.938c-0.285,2.282-2.158,3.198-4.106,2.504
			c-1.012-0.36-2.109-2.015-2.194-3.156c-0.274-3.743-0.104-7.52-0.104-11.48c-2.048-0.015-4.748-1.738-4.88,1.807
			c-0.149,4.064,0.388,8.156,0.688,12.232c0.267,3.635,2.105,5.392,5.726,5.31c2.018-0.044,4.192-1.021,6.004-0.52
			c3.299,0.912,3.773-0.772,3.807-3.166C265.075,335.588,265.025,330.487,265.025,325.429z M155.882,334.245
			c-0.1,5.092,3.784,9.975,8.015,10.075c5.162,0.123,9.806-4.526,9.844-9.857c0.042-6.012-4.072-10.968-9.074-10.929
			C159.51,323.575,156.008,327.845,155.882,334.245z M356.958,266.518c0.149-1.583,0.211-3.031,0.44-4.453
			c0.219-1.352,0.614-2.676,1.065-4.574c-2.164,0.343-3.582,0.567-4.128,0.654c-0.96,4.351-1.735,8.108-2.625,11.838
			c-0.922,3.866-1.954,7.706-3.097,12.177c3.274,0.407,5.925,1.512,8.001,0.838c4.604-1.492,7.274-5.171,7.959-10.065
			C365.322,267.592,362.392,264.972,356.958,266.518z M287.157,33.425c-0.026,5.495,4.748,8.523,9.947,6.557
			c5.4-2.042,6.802-6.952,7.881-11.546c1.062-4.521-4.264-9.253-8.215-7.78C292.358,22.303,286.713,26.726,287.157,33.425z
			 M410.328,278.662c-2.148,0.205-3.82,0.522-5.477,0.454c-0.738-0.031-1.444-0.841-2.165-1.296c0.627-0.56,1.2-1.197,1.891-1.662
			c2.083-1.401,4.473-2.475,6.205-4.212c0.811-0.812,1.02-3.309,0.361-4.225c-0.803-1.119-2.887-2.063-4.268-1.892
			c-5.079,0.634-9.851,8.405-8.46,13.361c0.683,2.43,2.139,4.378,4.882,4.263C406.239,283.331,408.994,282.489,410.328,278.662z
			 M330.881,316.473c-1.659,1.177-3.474,2.06-4.718,3.453c-1.371,1.535-2.329,3.485-3.224,5.37c-0.275,0.58,0.156,1.571,0.422,2.317
			c0.653,1.84,1.803,3.602,2.011,5.478c0.313,2.825-0.21,5.739,0.057,8.574c0.091,0.957,1.502,1.788,2.31,2.678
			c0.738-0.887,2.055-1.736,2.115-2.666c0.229-3.597-0.068-7.227,0.118-10.83c0.055-1.039,1.026-2.06,1.669-3.028
			c0.426-0.643,1.16-1.118,1.439-1.798c0.086-0.208-0.918-0.811-1.349-1.299c-0.583-0.659-1.581-1.437-1.512-2.063
			c0.085-0.772,1.037-1.495,1.708-2.143c0.786-0.757,1.673-1.409,2.517-2.106C333.479,317.886,332.516,317.361,330.881,316.473z
			 M202.271,231.394c0.288,0.645,0.333,0.915,0.491,1.074c5.667,5.696,5.247,8.662-1.614,12.352
			c-0.707,0.381-1.313,1.551-1.349,2.38c-0.025,0.611,0.893,1.698,1.508,1.79c0.76,0.113,1.809-0.399,2.435-0.97
			c1.118-1.02,2.012-2.284,2.914-3.344c2.758,0.921,2.241,6.066,6.002,4.04c1.498-0.808,2.282-2.937,3.881-5.138
			c-2.382,0.495-3.477,0.723-4.596,0.955c-1.193-8.168-1.193-8.168,5.345-9.551c0-1.27,0-2.561,0-5.015
			c-2.817,1.236-4.984,2.187-7.363,3.231C208.485,230.563,205.838,230.005,202.271,231.394z M191.545,437.536
			c0,5.412-0.158,9.956,0.099,14.478c0.074,1.305,1.341,2.541,2.061,3.809c0.852-1.229,2.394-2.434,2.438-3.69
			c0.236-6.877,0.126-13.768,0.088-20.653c-0.014-2.536-1.816-3.237-3.497-2.103c-2.568,1.735-4.781,4.036-6.962,6.274
			c-0.445,0.457-0.404,1.911-0.003,2.525c0.41,0.629,1.534,1.064,2.351,1.072C188.845,439.257,189.579,438.565,191.545,437.536z
			 M78.865,397.288c-0.217-0.901-0.173-1.983-0.682-2.625c-3.371-4.256-3.56-10.381-0.425-14.437
			c0.401-0.519,0.408-2.102,0.329-2.121c-3-0.753-1.802-3.249-2.355-5.061c-0.209-0.686-1.845-0.936-2.83-1.384
			c-1.118,2.793-3.848,6.271-3.014,8.234c1.69,3.976,1.022,7.773,1.262,11.614C71.523,397.498,72.381,398.333,78.865,397.288z
			 M95.208,148.233c1.293,1.486,2.578,2.488,3.233,3.804c1.904,3.826,0.305,7.389-3.746,9.266c-0.755,0.349-1.358,1.252-1.746,2.04
			c-0.138,0.28,0.542,1.375,0.904,1.404c0.851,0.068,1.904-0.042,2.568-0.515c1.358-0.964,2.515-2.215,3.034-2.689
			c2.246,1.159,3.944,2.752,5.508,2.63c1.401-0.109,2.655-2.107,3.84-3.154c-1.915-0.482-3.845-0.427-4.201-1.147
			c-2.05-4.159-0.284-7.689,4.005-9.149c0.751-0.256,1.162-1.507,1.729-2.299c-1.052-0.466-2.094-1.258-3.159-1.292
			c-0.825-0.026-1.627,1.096-2.539,1.341c-0.954,0.257-2.623,0.492-2.95,0.022C99.371,145.152,97.278,146.454,95.208,148.233z
			 M154.888,397.232c-0.448-1.13-0.609-2.272-1.242-3.006c-2.878-3.33-2.974-10.192-0.205-13.861
			c0.408-0.54,0.374-2.223,0.104-2.338c-2.015-0.854-1.96-2.318-1.916-4.158c0.047-1.957-1.417-3.527-2.95-1.602
			c-1.646,2.067-3.835,5.729-3.039,7.316c1.982,3.955,0.958,7.771,1.216,11.604C147.246,396.991,149.353,398.705,154.888,397.232z
			 M150.229,319.033c-1.743-0.163-5.586,5.753-4.556,8.34c0.646,1.621,1.121,3.353,1.373,5.079
			c0.563,3.854,0.938,7.735,1.375,11.487c1.46,0.184,2.105,0.422,2.678,0.305c1.107-0.227,2.174-0.653,3.258-0.996
			c-0.523-1.203-0.766-2.684-1.625-3.553c-1.935-1.956-1.727-10.291,0.361-12.062c0.609-0.517,1.109-1.962,0.817-2.59
			C153.008,323.106,151.699,321.358,150.229,319.033z M75.743,328.45c0.211,0.092,0.422,0.185,0.634,0.275
			c0.656-1.096,2.097-2.479,1.82-3.233c-0.803-2.188-2.294-4.124-3.743-6.538c-1.714-0.03-5.434,5.41-4.794,7.884
			c0.705,2.725,1.061,5.538,1.592,8.31c0.494,2.579,0.792,5.233,1.662,7.683c0.276,0.779,2.08,1.275,3.236,1.394
			c0.778,0.08,1.648-0.729,2.478-1.142c-0.505-1.007-1.008-2.016-1.518-3.02c-0.452-0.891-1.253-1.758-1.304-2.669
			C75.638,334.421,75.743,331.432,75.743,328.45z M199.635,35.063c2.113-4.18,0.629-9.818,6.005-12.374
			c-0.755-2.196-1.498-4.351-2.169-6.304c-2.27,1.579-4.361,2.906-6.269,4.457c-0.455,0.37-0.417,1.492-0.4,2.264
			c0.029,1.297,0.514,2.644,0.289,3.875c-0.51,2.79-1.713,5.497-1.888,8.285c-0.103,1.645,1.223,3.377,1.905,5.071
			c1.782-0.926,3.705-1.67,5.267-2.881c0.529-0.409,0.144-1.998,0.176-3.046C201.678,34.606,200.802,34.801,199.635,35.063z
			 M260.625,32.213c1.313-2.75,3.006-6.299,5.027-10.534c-0.236-0.747-0.779-2.469-1.575-4.996
			c-2.315,1.716-4.476,3.273-6.564,4.922c-0.252,0.199-0.331,1.1-0.117,1.333c2.851,3.122-0.689,5.746-0.681,8.657
			c0.007,2.011-1.053,4.012-1.151,6.041c-0.104,2.141,1.479,3.429,3.424,2.627c1.57-0.647,3.177-2.096,3.876-3.603
			C263.23,35.872,261.684,34.193,260.625,32.213z M361.438,163.571c0.303,0.425,0.604,0.849,0.907,1.274
			c2.399-1.146,4.799-2.291,7.17-3.422c1.53,3.053,2.854,3.994,4.833,2.916c1.003-0.546,1.543-1.945,2.293-2.958
			c-0.971-0.198-1.94-0.397-3.018-0.618c-0.111-0.667-0.122-1.571-0.418-2.37c-1.738-4.688-0.749-6.517,4.019-7.572
			c0.686-0.151,1.23-0.94,1.84-1.434c-0.667-0.549-1.346-1.558-1.999-1.543c-1.113,0.026-2.269,0.588-3.3,1.13
			c-0.926,0.485-1.708,1.245-2.623,1.938c-1.771-3.892-3.57-4.412-6.769-2.282c5.807,4.709,5.206,9.756-1.452,12.879
			C362.252,161.822,361.925,162.866,361.438,163.571z M275.667,37.132c0.512,0.922,1.233,3.153,1.825,3.119
			c1.718-0.099,3.633-0.797,4.973-1.878c0.748-0.604,1.044-3.302,0.619-3.565c-2.115-1.311-2.041-2.733-1.163-4.679
			c0.801-1.775,0.828-4.508,2.132-5.322c2.969-1.857,1.389-4.152,1.34-6.255c-0.011-0.433-1.513-0.832-2.326-1.247
			c-1.071,2.802-6.7,2.986-4.438,7.758c0.206,0.432-0.245,1.177-0.395,1.776C277.431,30.063,276.626,33.289,275.667,37.132z
			 M134.813,397.263c-0.415-1.128-0.583-2.305-1.202-3.15c-2.65-3.614-2.692-10.075-0.047-13.604
			c0.45-0.599,0.906-1.712,0.647-2.234c-1.122-2.267-2.507-4.401-3.929-6.807c-0.468,0.322-1.577,0.769-1.546,1.115
			c0.295,3.366-6.226,6.031-1.037,9.938c0.462,0.349,0.254,1.661,0.263,2.527c0.024,2.36-0.025,4.722-0.004,7.083
			C128.005,397.398,128.97,398.19,134.813,397.263z M125.771,326.135c0.675,1.249,1.959,2.702,2.221,4.32
			c0.414,2.56-0.056,5.252,0.231,7.846c0.192,1.729,0.691,3.672,1.738,4.966c0.664,0.821,2.584,0.626,3.941,0.887
			c0.062-1.257,0.662-2.88,0.098-3.713c-3.184-4.696-3.257-8.049-0.063-12.983c0.401-0.621,0.265-1.873-0.072-2.634
			c-0.842-1.908-1.943-3.702-3.348-6.294c-0.602,0.515-1.765,1.127-2.338,2.089C127.23,322.21,126.662,324.027,125.771,326.135z
			 M165.707,36.894c0.774,0.823,1.887,2.991,2.968,2.974c3.38-0.052,4.597-3.128,2.9-6.186c-0.326-0.587-0.563-1.442-0.394-2.049
			c0.678-2.438,1.688-4.79,2.245-7.249c0.221-0.977-0.094-2.737-0.741-3.09c-0.943-0.517-2.522-0.378-3.599,0.057
			c-0.596,0.241-0.88,1.629-1.016,2.542c-0.177,1.204,0.114,2.485-0.122,3.667C167.398,30.311,166.653,33.021,165.707,36.894z
			 M210.955,387.746c0,0.005,0,0.011,0,0.017c-2.373,0-4.78-0.232-7.103,0.106c-1.017,0.148-2.592,1.459-2.599,2.254
			c-0.008,0.952,1.348,2.706,2.18,2.747c4.731,0.234,9.494,0.222,14.217-0.108c0.967-0.067,1.813-1.851,2.715-2.843
			c-1.014-0.724-1.955-1.897-3.057-2.076C215.24,387.508,213.078,387.746,210.955,387.746z M46.55,397.19
			c0-5.533,0.103-11.101-0.088-16.657c-0.037-1.089-1.209-2.139-1.858-3.206c-0.871,1.126-2.421,2.208-2.494,3.383
			c-0.284,4.584-0.058,9.196-0.106,13.798C41.971,397.601,43.578,398.022,46.55,397.19z M254.572,436.974
			c0.045-3.652-2.271-6.202-5.758-6.341c-3.052-0.121-6.463,2.957-6.461,5.829c0.001,3.151,3.217,6.181,6.518,6.14
			C251.982,442.564,254.535,440.044,254.572,436.974z M42.136,324.832c0,4.102-0.014,7.696,0.006,11.291
			c0.01,1.743-0.216,3.568,0.23,5.202c0.292,1.066,1.599,1.856,2.452,2.771c0.592-0.959,1.666-1.903,1.696-2.879
			c0.167-5.439,0.08-10.887,0.08-16.618C44.907,324.687,43.711,324.749,42.136,324.832z M220.504,384.607
			c0.032-0.51,0.064-1.019,0.095-1.529c-1.248-0.426-2.482-1.169-3.746-1.22c-4.102-0.165-8.222-0.215-12.318,0.004
			c-1.16,0.062-2.262,1.193-3.391,1.835c1.19,0.843,2.329,2.31,3.58,2.412c3.958,0.322,7.964,0.269,11.938,0.068
			C217.966,386.112,219.225,385.156,220.504,384.607z M175.705,449.875c-2.205-3.026-11.108-3.77-19.51-2.454
			c-0.552,2.818,1.064,3.787,3.471,3.882c3.495,0.138,7.004,0.297,10.491,0.119C171.862,451.335,173.529,450.51,175.705,449.875z
			 M362.495,325.21c0,5.214-0.106,10.622,0.091,16.019c0.038,1.053,1.252,2.063,1.923,3.095c0.765-1.038,2.129-2.043,2.188-3.119
			c0.24-4.43,0.052-8.881,0.087-13.323C366.804,325.256,365.751,324.17,362.495,325.21z M174.194,441.26c-6.177,0-12.061,0-17.981,0
			c-0.456,2.873,0.994,3.342,3.143,3.386c2.414,0.049,4.875,0.109,7.222,0.606C171.705,446.34,174.068,445.277,174.194,441.26z
			 M201.385,338.182c7.098,0,12.956,0,18.813,0c0.029-0.374,0.059-0.75,0.089-1.124c-5.103-3.361-11.021-0.895-16.507-1.479
			C203.235,335.521,202.539,336.884,201.385,338.182z M201.549,331.979c6.928,0,12.712,0,18.496,0
			c0.043-0.529,0.085-1.057,0.129-1.585c-5.234-2.161-10.961-0.648-16.428-0.975C203.205,329.387,202.582,330.732,201.549,331.979z
			 M172.959,19.799c1.186-1.859,2.413-2.94,2.331-3.911c-0.069-0.82-1.656-1.512-2.571-2.261c-0.604,0.864-1.651,1.708-1.689,2.596
			C170.991,17.116,171.957,18.052,172.959,19.799z M366.777,318.064c-0.454-0.376-0.907-0.753-1.36-1.128
			c-0.996,0.812-1.992,1.624-2.987,2.436c0.75,0.791,1.5,1.581,2.25,2.372C365.379,320.518,366.078,319.291,366.777,318.064z
			 M46.969,318.203c-0.46-0.493-0.92-0.985-1.379-1.479c-1.109,0.77-2.219,1.538-3.328,2.308c0.811,0.585,1.888,1.818,2.376,1.618
			C45.589,320.258,46.211,319.064,46.969,318.203z"/>
		<path fill-rule="evenodd" clip-rule="evenodd" d="M270.542,247.905c-2.361-2.49-4.19-4.42-6.848-7.222
			c-0.258,2.777-0.492,4.421-0.551,6.07c-0.424,11.961-1.086,23.923-1.083,35.885c0.001,5.144,1.264,10.314,2.232,15.42
			c0.51,2.676,2.173,2.834,3.813,0.744c2.938-3.743,5.894-7.481,8.625-11.375c4.351-6.205,8.304-13.01,15.411-16.259
			c4.554-2.081,9.614-3.419,15.059-1.873c4.343,1.234,8.986,1.407,13.497,2.052c0.088,0.44,0.175,0.882,0.263,1.323
			c-1.172,0.538-2.396,1.621-3.503,1.512c-3.195-0.319-6.41-0.888-9.495-1.778c-6.915-1.994-17.555,1.568-21.819,7.936
			c-5.237,7.822-10.9,15.371-16.667,22.814c-0.979,1.266-3.419,1.928-5.149,1.868c-0.919-0.031-2.06-2.091-2.597-3.437
			c-4.839-12.124-2.901-24.842-2.944-37.35c-0.025-7.434,0.802-14.869,1.305-23.291c-3.187,2.168-5.675,3.859-8.162,5.553
			c-0.226-0.182-0.451-0.363-0.677-0.544c3.172-8.193,6.344-16.385,9.775-25.25c-3.909-0.394-7.058-0.998-10.201-0.975
			c-12.196,0.089-24.392,0.59-36.585,0.531c-12.304-0.06-24.604-0.625-36.909-0.917c-3.36-0.08-6.772-0.318-10.073,0.143
			c-3.383,0.472-5.047-1.152-6.479-3.686c-6.521-11.536-12.973-23.111-19.622-34.572c-3.737-6.441-7.956-12.602-11.694-19.041
			c-5.792-9.976-11.346-20.089-17.021-30.132c-6.033-10.678-12.104-21.334-18.113-32.025c-0.841-1.498-1.594-3.096-2.045-4.741
			c-0.213-0.776,0.133-2.026,0.697-2.596c0.452-0.456,1.616-0.288,2.461-0.262c2.213,0.067,4.425,0.3,6.638,0.304
			c48.853,0.078,97.706,0.154,146.559,0.186c39.973,0.026,79.945-0.005,119.918-0.007c1.875,0,3.751-0.003,5.623,0.068
			c4.08,0.153,4.915,1.566,2.882,5.122c-2.811,4.917-6,9.631-8.573,14.665c-4.58,8.956-9.91,17.478-14.804,26.25
			c-6.028,10.808-12.547,21.341-18.785,32.034c-5.701,9.773-11.246,19.637-16.993,29.384c-2.42,4.104-5.247,7.965-7.756,12.02
			c-1.207,1.95-1.867,4.271-3.233,6.076c-0.742,0.982-2.442,1.731-3.717,1.74c-8.146,0.057-16.296-0.148-24.444-0.209
			c-3.576-0.027-7.155,0.186-10.728,0.095c-2.774-0.07-3.416,0.67-2.521,3.505c2.266,7.175,4.185,14.462,6.127,21.736
			C271.789,245.979,271.049,246.798,270.542,247.905z M372.241,96.354c-91.737,0-182.735,0-273.85,0c0,0.921-0.221,1.646,0.033,2.11
			c5.203,9.503,10.426,18.995,15.718,28.448c4.137,7.389,8.387,14.715,12.562,22.082c3.679,6.494,7.235,13.059,11.041,19.477
			c1.082,1.823,2.593,3.745,4.396,4.653c1.062,0.536,3.129-0.722,4.665-1.363c5.711-2.387,11.369-4.899,17.095-7.248
			c1.179-0.483,2.564-0.464,3.854-0.677c0.287,0.347,0.575,0.694,0.862,1.041c-1.675,2.12-3.351,4.24-5.683,7.191
			c14.344,3.853,27.296,9.627,35.866,23.083c1.457-3.984,2.599-7.104,3.74-10.225c0.404,0.114,0.808,0.229,1.212,0.343
			c1.117,7.298,2.427,14.573,3.296,21.9c0.863,7.268,2.092,8.573,9.39,8.518c11.209-0.084,22.419-0.22,33.628-0.188
			c14.978,0.042,29.957,0.077,44.929,0.424c5.444,0.126,9.719,0.191,12.304-6.276c2.415-6.04,6.979-11.195,10.344-16.888
			c4.642-7.854,8.99-15.879,13.567-23.772c5.865-10.115,11.919-20.123,17.731-30.267c4.896-8.545,9.582-17.212,14.331-25.842
			C366.166,107.616,369.004,102.323,372.241,96.354z M145.898,177.712c-0.276,0.267-0.552,0.535-0.83,0.803
			c1.868,3.625,3.587,7.338,5.634,10.859c4.483,7.71,9.345,15.209,13.591,23.044c1.366,2.521,2.798,3.339,5.379,3.324
			c8.48-0.047,16.961,0.016,25.442,0.024c2.244,0.002,4.502,0.1,6.727-0.122c0.855-0.085,2.009-0.773,2.321-1.492
			c0.231-0.533-0.507-1.726-1.105-2.343c-5.29-5.458-10.664-10.834-15.954-16.292c-0.603-0.622-0.844-1.595-1.251-2.405
			c0.195-0.286,0.389-0.571,0.583-0.856c2.241,0.643,4.481,1.287,7.464,2.144c-7.812-9.958-17.556-14.883-28.835-17.368
			c1.583,1.934,3.165,3.867,4.747,5.801c-0.298,0.298-0.597,0.597-0.896,0.896C161.244,181.723,153.571,179.717,145.898,177.712z"/>
		<path fill-rule="evenodd" clip-rule="evenodd" d="M124.53,48.041c-2.631,2.907-4.33,4.783-6.521,7.204
			c78.209,0,155.705,0,233.708,0c-2.082-2.21-3.967-4.21-5.852-6.211c0.186-0.327,0.371-0.654,0.557-0.981
			c1.282,0.079,2.654-0.111,3.831,0.282c6.716,2.248,13.355,4.724,20.091,6.905c1.457,0.471,3.22-0.095,4.809,0.095
			c0.829,0.099,1.587,0.804,2.377,1.235c-0.56,0.716-0.982,1.833-1.702,2.078c-3.17,1.075-6.47,1.768-9.64,2.841
			c-5.062,1.714-10.044,3.658-15.09,5.418c-1.331,0.464-2.772,0.608-4.649,0.124c1.869-2.424,3.738-4.849,5.918-7.675
			c-78.296,0-156.085,0-234.577,0c1.993,2.181,3.719,4.07,6.219,6.805c-1.557,0.218-2.623,0.689-3.471,0.434
			c-5.978-1.799-11.878-3.86-17.874-5.596c-2.653-0.768-5.548-2.655-8.147,0.408c-0.213,0.25-1.315,0.078-1.704-0.252
			c-0.337-0.286-0.381-1.088-0.321-1.638c0.173-1.612,0.463-3.213,0.708-4.818c-0.311-0.129-0.622-0.258-0.933-0.388
			c0.408-0.202,1.01-0.691,1.195-0.565c5.627,3.822,10.383-0.602,15.384-1.774c4.021-0.942,7.785-2.943,11.725-4.294
			C121.445,47.375,122.58,47.833,124.53,48.041z"/>
		<path fill-rule="evenodd" clip-rule="evenodd" d="M229.88,397.29c0.521-5.261,2.853-9.176,7.093-12.209
			c1.902-1.359,3.796-3.174,4.767-5.221c0.574-1.211-0.665-3.28-1.088-4.963c-1.611,0.407-3.271,0.688-4.808,1.286
			c-0.559,0.218-0.688,1.495-1.255,1.748c-1.009,0.451-2.26,0.779-3.29,0.57c-0.479-0.098-1.179-1.828-0.902-2.384
			c0.783-1.576,1.765-3.264,3.131-4.293c2.322-1.749,9.832-0.758,12.013,1.226c2.58,2.345,1.927,8.073-1.397,11.642
			c-1.506,1.617-3.221,3.046-4.67,4.709c-0.749,0.858-1.124,2.043-1.964,3.645c2.317,0,4.26-0.108,6.183,0.031
			c1.747,0.127,3.476,0.523,6.257,0.968c0.965-1.577,2.991-3.741,3.567-6.239c0.392-1.697-1.158-3.905-2.013-5.807
			c-0.612-1.366-1.51-2.604-2.344-4.005c3.34-1.677,4.787,0.373,6.11,2.031c1.662,2.083,2.991,2.292,4.617,0.076
			c0.481-0.655,1.167-1.317,1.902-1.596c1.006-0.379,2.148-0.395,3.233-0.566c-0.186,1.021-0.246,2.088-0.597,3.049
			c-0.285,0.78-0.824,1.527-1.414,2.13c-2.917,2.983-2.149,5.687,0.099,8.749c1.076,1.467,2.063,4.953,1.558,5.302
			c-2.779,1.916-3.825-0.852-5.367-2.579c-0.646-0.722-3.185-0.982-3.255-0.807c-1.656,4.127-4.78,3.872-8.451,3.612
			C241.909,396.993,236.176,397.29,229.88,397.29z"/>
		<path fill-rule="evenodd" clip-rule="evenodd" d="M269.276,324.959c4.469,0,8.79,0.042,13.11-0.015
			c2.489-0.034,4.976-0.291,7.465-0.334c3.447-0.059,4.511,2.391,4.71,5.148c0.276,3.852,0.337,7.743,0.103,11.593
			c-0.063,1.034-1.535,1.981-2.36,2.969c-0.731-0.957-2.005-1.866-2.095-2.88c-0.309-3.47-0.021-6.995-0.358-10.46
			c-0.108-1.113-1.452-2.105-2.23-3.154c-1.146,1.054-3.102,1.986-3.28,3.184c-0.476,3.171-0.169,6.457-0.199,9.696
			c-0.023,2.583-1.027,4.071-4.593,3.284c0-3.85,0.061-7.787-0.026-11.723c-0.042-1.912,0.33-4.327-2.689-4.386
			c-2.734-0.055-3.113,1.952-3.229,4.084c-0.17,3.115-0.149,6.263-0.641,9.328c-0.181,1.125-1.583,2.055-2.428,3.073
			c-0.603-1.05-1.686-2.081-1.726-3.153c-0.178-4.718-0.075-9.448-0.017-14.173C268.801,326.33,269.114,325.622,269.276,324.959z"/>
		<path fill-rule="evenodd" clip-rule="evenodd" d="M389.947,269.308c0.647,1.19,1.205,2.442,1.961,3.562
			c1.783,2.639,3.549,5.379,1.536,8.516c-1.403,2.189-6.499,2.404-9.779,0.766c-0.55-0.275-1.034-0.681-1.567-0.254
			c-1.932,0-3.867-0.071-5.793,0.025c-1.255,0.063-2.558,0.194-3.735,0.599c-3.9,1.341-6.927-0.652-6.491-4.561
			c0.642-5.76,4.158-9.743,9.08-12.103c1.854-0.889,4.635,0.152,6.993,0.314c-0.214,1.959-0.403,3.922-0.649,5.877
			c-0.186,1.48-0.728,2.99-0.541,4.414c0.086,0.66,2.003,1.802,2.276,1.604c1.943-1.411,2.828-0.486,3.87,1.122
			c0.391,0.602,1.514,0.729,2.303,1.074c0.171-0.914,0.719-1.974,0.434-2.709c-0.57-1.467-1.659-2.723-2.422-4.127
			c-1.31-2.411-1.743-5.244,1.038-6.434c2.218-0.948,5.077-0.498,7.631-0.341c0.176,0.011,0.185,2.755,0.271,4.227
			c-1.111-0.243-2.275-0.355-3.316-0.773c-0.831-0.334-1.511-1.041-2.258-1.581C390.507,268.785,390.228,269.047,389.947,269.308z
			 M370.673,278.849c4.334,0.253,8.377-4.341,7.131-8.36c-0.201-0.649-2.147-1.452-2.811-1.147
			C371.283,271.046,369.841,274.513,370.673,278.849z"/>
		<path fill-rule="evenodd" clip-rule="evenodd" d="M14.967,377.92c4.323-0.996,4.981-0.427,5.996,4.376
			c0.368,1.743,0.929,3.445,1.401,5.166c0.317-0.011,0.634-0.021,0.952-0.032c0.666-2.277,1.186-4.612,2.053-6.81
			c0.483-1.226,1.542-2.224,2.342-3.325c0.857,0.809,1.964,1.478,2.506,2.458c0.679,1.229,0.825,2.74,1.333,4.079
			c0.369,0.972,0.953,1.861,1.556,3.008c3.113-3.099,0.957-9.284,7.754-9.609c-0.781,3.529-1.36,6.611-2.162,9.636
			c-0.736,2.773-1.612,5.521-2.632,8.201c-0.364,0.957-1.332,2.36-2.019,2.357c-1.013-0.004-2.476-0.855-2.933-1.758
			c-0.875-1.727-1.153-3.75-1.721-5.638c-0.372-1.234-0.819-2.445-1.52-4.516c-1.004,3.747-1.553,6.585-2.574,9.24
			c-0.437,1.138-1.858,2.631-2.825,2.625c-0.983-0.006-2.495-1.49-2.844-2.616C17.908,389.203,16.492,383.548,14.967,377.92z"/>
		<path fill-rule="evenodd" clip-rule="evenodd" d="M241.399,443.405c-0.663,4.442-0.486,8.782-4.992,11.529
			c-4.661,2.842-11.064,0.645-13.094-4.403c-2.241-5.576-1.713-11.189,0.371-16.328c0.933-2.3,4.364-4.152,7.047-5.04
			c3.865-1.279,7.155,0.646,8.521,4.498C240.356,436.771,240.713,440.147,241.399,443.405z M229.691,452.202
			c1.862-0.746,5.02-1.064,5.511-2.379c1.756-4.695,1.87-9.771-0.322-14.464c-0.437-0.935-2.463-1.614-3.694-1.529
			c-0.926,0.063-2.075,1.388-2.569,2.417C226.255,441.166,227.231,446.084,229.691,452.202z"/>
		<path fill-rule="evenodd" clip-rule="evenodd" d="M27.502,333.553c-0.683,2.583-1.2,5.228-2.125,7.721
			c-0.414,1.115-1.646,1.926-2.507,2.874c-0.796-0.764-1.977-1.385-2.323-2.316c-2.037-5.47-3.879-11.012-5.783-16.521
			c4.542-1.524,5.456-0.909,6.092,3.189c0.309,1.989,1.06,3.909,2.548,5.886c0.667-2.377,1.19-4.81,2.061-7.109
			c0.461-1.218,1.527-2.208,2.32-3.301c0.979,0.819,2.223,1.474,2.861,2.504c0.602,0.973,0.47,2.37,0.833,3.527
			c0.438,1.393,1.059,2.728,1.601,4.089c0.307-0.053,0.614-0.104,0.921-0.155c0.629-1.938,1.672-3.852,1.794-5.821
			c0.208-3.354,1.759-3.946,5.253-3.026c-1.766,5.847-3.412,11.571-5.317,17.209c-0.205,0.606-2.322,1.285-2.85,0.919
			c-1.181-0.819-2.229-2.154-2.767-3.503c-0.828-2.075-1.182-4.339-1.738-6.522C28.086,333.314,27.794,333.434,27.502,333.553z"/>
		<path fill-rule="evenodd" clip-rule="evenodd" d="M175.854,395.047c0-4.838,0.053-9.676-0.021-14.513
			c-0.041-2.701,1.159-3.601,3.705-3.007c0.625,0.146,1.339,0.402,1.904,0.238c9.82-2.851,13.166,5.626,11.434,12.396
			c-1.533,5.991-3.661,7.448-10.147,7.49c-2.81,0.019-2.208,1.911-2.588,3.552c-0.306,1.319-1.21,2.501-1.85,3.744
			c-0.853-1.442-2.124-2.798-2.446-4.351c-0.365-1.753,0.123-3.684,0.24-5.537C176.008,395.056,175.931,395.051,175.854,395.047z
			 M185.03,380.616c-5.292,2.624-5.794,4.704-2.937,12.177c4.301,0.648,5.128,0.395,6.001-1.844
			C189.785,386.609,188.899,383.624,185.03,380.616z"/>
		<path fill-rule="evenodd" clip-rule="evenodd" d="M190.88,20.196c0.352-2.733,0.705-5.473,1.105-8.576c1.104,0,2.631,0,4.816,0
			c-0.286,1.989-0.365,4.045-0.905,5.972c-1.087,3.882-2.644,7.642-3.558,11.557c-0.395,1.691,0.452,3.639,0.493,5.477
			c0.027,1.236,0.057,3.011-0.676,3.603c-1.153,0.934-2.919,1.302-4.477,1.489c-1.562,0.188-3.186-0.217-4.783-0.217
			c-1.612,0-3.969,0.881-4.68,0.129c-1.372-1.454-2.668-3.866-2.487-5.735c0.575-5.915,4.083-10.272,9.183-13.117
			C186.277,20.017,188.285,20.407,190.88,20.196z M179.776,33.846c0.426,0.74,0.746,1.632,1.358,2.219
			c0.292,0.281,1.478,0.212,1.681-0.088c2.067-3.06,4.1-6.152,5.912-9.365c0.306-0.542-0.291-1.873-0.85-2.502
			c-0.262-0.293-1.459,0.123-2.177,0.375C181.354,26.012,181.044,30.047,179.776,33.846z"/>
		<path fill-rule="evenodd" clip-rule="evenodd" d="M62.469,376.92c0-1.166-0.334-2.635,0.1-3.822
			c0.387-1.057,1.625-1.802,2.488-2.685c0.645,0.929,1.831,1.846,1.847,2.784c0.122,7.229,0.111,14.464-0.141,21.687
			c-0.031,0.868-1.628,2.045-2.725,2.419c-1.345,0.458-2.933,0.153-4.404,0.298c-6.064,0.598-9.684-2.551-10.17-8.718
			c-0.347-4.395-0.373-8.775,4.453-10.72C56.308,377.198,59.153,377.357,62.469,376.92z M63.105,387.745
			c-0.196-0.116-0.393-0.232-0.589-0.349c-0.164-1.363,0.042-2.94-0.592-4.029c-0.697-1.199-2.405-2.904-3.25-2.693
			c-1.667,0.415-4.107,1.834-4.313,3.139c-0.4,2.547,0.082,5.486,1.102,7.877c0.408,0.957,3.761,1.751,4.78,1.09
			C61.681,391.846,62.196,389.492,63.105,387.745z"/>
		<path fill-rule="evenodd" clip-rule="evenodd" d="M309.33,47.909c-2.491,0-4.756,0-6.717,0c2.271-7.179,4.489-14.161,6.677-21.153
			c0.142-0.455,0.128-0.994,0.054-1.474c-0.224-1.45-2.695-3.253,0.273-4.197c2.192-0.697,4.889-1.703,5.737,0.543
			c2.751-0.168,5.438-1.162,7.03-0.249c2.826,1.624,3.495,4.441,2.31,8.065c-2.243,6.851-5.332,11.947-13.658,11.299
			c-0.771-0.06-2.191,1.498-2.391,2.488C308.379,44.558,309.012,46.065,309.33,47.909z M320.638,25.109
			c-5.865-0.511-9.771,5.324-8.248,12.325C317.943,37.723,321.415,32.534,320.638,25.109z"/>
		<path fill-rule="evenodd" clip-rule="evenodd" d="M127.209,442.13c1.179-3.238,2.043-6.643,3.64-9.659
			c1.249-2.359,3.602-4.768,6.547-3.27c2.512,1.278,5.325,3.37,6.38,5.806c1.999,4.613,2.272,9.503,0.424,14.716
			c-1.721,4.854-5.292,6.307-9.015,6.258c-3.056-0.041-6.332-3.688-6.851-7.554c-0.265-1.967-0.237-3.974-0.34-5.963
			C127.732,442.353,127.471,442.241,127.209,442.13z M140.271,440.806c1.636-3.806-0.566-5.976-2.888-7.956
			c-0.579-0.494-2.453-0.583-2.534-0.378c-1.04,2.596-1.86,5.279-2.866,8.334C135.482,440.806,137.898,440.806,140.271,440.806z
			 M132.568,444.453c0.185,2.052,0.037,3.994,0.625,5.682c0.399,1.148,1.705,2.167,2.852,2.785c0.499,0.268,2.1-0.408,2.37-1.021
			c0.944-2.15,1.527-4.459,2.248-6.707c-2.179-0.376-4.356-0.768-6.541-1.106C133.796,444.034,133.432,444.238,132.568,444.453z"/>
		<path fill-rule="evenodd" clip-rule="evenodd" d="M216.657,11.061c-0.949,4.443-1.732,8.11-2.769,12.96
			c2.183-1.199,3.296-1.998,4.536-2.437c1.147-0.406,2.721-0.948,3.576-0.473c0.94,0.521,1.67,2.098,1.778,3.28
			c0.155,1.699-0.028,3.574-0.627,5.162c-0.743,1.965-1.969,3.582,0.218,5.528c0.318,0.283-0.865,2.828-1.858,3.827
			c-0.792,0.796-2.351,0.83-3.569,1.202c-0.321-1.346-1.081-2.762-0.881-4.025c0.557-3.522,1.512-6.982,1.879-10.664
			c-3.872,1.738-6.253,4.589-7.595,8.359c-0.536,1.506-0.772,3.195-1.622,4.486c-0.549,0.836-1.963,1.104-2.99,1.625
			c-0.388-1.033-1.303-2.203-1.077-3.079c1.451-5.625,3.264-11.157,4.717-16.781c0.638-2.472,0.708-5.09,1.128-8.363
			C212.286,11.576,214.043,11.369,216.657,11.061z"/>
		<path fill-rule="evenodd" clip-rule="evenodd" d="M209.842,451.521c3.17,0,5.663-0.117,8.131,0.07
			c0.776,0.059,1.491,0.937,2.233,1.44c-0.496,0.593-0.948,1.653-1.497,1.705c-4.759,0.455-9.535,0.839-14.31,0.889
			c-0.498,0.006-1.787-2.718-1.385-3.433c1.13-2.017,2.929-3.666,4.504-5.425c2.201-2.457,4.855-4.641,6.471-7.43
			c0.733-1.267,0.079-4.539-1.079-5.43c-1.956-1.506-4.533-0.288-5.45,1.993c-0.782,1.949-1.731,2.913-3.418,1.783
			c-1.76-1.179-1.902-2.782-0.3-4.702c4.286-5.133,9.914-5.724,13.931-1.195c2.119,2.39,2.28,7.771,0.126,10.122
			c-2.208,2.411-4.633,4.623-6.889,6.994C210.475,449.362,210.383,450.15,209.842,451.521z"/>
		<path fill-rule="evenodd" clip-rule="evenodd" d="M154.902,20.552c0.524,3.752,1.049,7.505,1.683,12.042
			c1.871-3.15,4.618-5.124,2.91-8.999c-0.278-0.632,1.181-2.031,1.837-3.075c0.731,0.777,2.08,1.561,2.071,2.331
			c-0.022,1.885-0.275,3.974-1.147,5.599c-1.81,3.375-3.987,6.569-6.228,9.685c-0.58,0.805-1.951,1.041-2.959,1.538
			c-0.472-1.042-1.168-2.043-1.365-3.134c-0.321-1.772-0.315-3.603-1.204-5.574c-1.584,2.409-3.124,4.851-4.785,7.207
			c-0.413,0.587-1.215,0.9-1.838,1.339c-0.489-0.746-1.341-1.463-1.398-2.241c-0.196-2.611,0.088-5.264-0.205-7.857
			c-0.167-1.482-1.017-2.917-1.706-4.301c-0.564-1.133-1.345-2.158-2.029-3.232c0.918-0.451,2.003-1.452,2.722-1.236
			c1.458,0.438,3.38,1.239,3.909,2.425c0.816,1.833,0.624,4.115,0.974,7.221c3.671-2.741,5.243-6.57,7.561-9.712
			C154.103,20.568,154.502,20.561,154.902,20.552z"/>
		<path fill-rule="evenodd" clip-rule="evenodd" d="M62.488,323.327c1.602-5.971,1.602-5.971,4.349-5.566
			c0,7.775,0.063,15.579-0.046,23.381c-0.026,1.854-0.71,3.478-3.209,2.092c-0.566-0.313-1.478-0.358-2.107-0.151
			c-5.347,1.754-9.56-0.126-11.688-5.306c-1.668-4.059,0.434-10.953,4.289-12.66C56.379,324.095,59.096,324.007,62.488,323.327z
			 M53.872,333.882c-0.046,3.403,2.078,6.125,4.862,5.971c3.793-0.212,3.88-3.296,4.108-5.95c0.328-3.804-1.436-6.185-4.227-6.187
			C55.507,327.713,53.928,329.767,53.872,333.882z"/>
		<path fill-rule="evenodd" clip-rule="evenodd" d="M380.109,344.299c-4.969,0.332-8.011-1.156-9.722-4.756
			c-1.825-3.839-0.988-11.232,2.191-13.517c1.685-1.209,4.4-1.381,6.633-1.322c2.581,0.066,3.313-0.667,3.042-3.183
			c-0.144-1.321,0.396-2.756,0.855-4.059c0.072-0.202,1.881-0.201,2.02,0.103c0.611,1.332,1.212,2.8,1.261,4.236
			c0.206,6.176,0.123,12.362,0.341,18.537c0.097,2.739-0.413,4.448-3.648,3.981C382.11,344.181,381.101,344.299,380.109,344.299z
			 M373.722,334.196c-0.056,2.549-0.057,5.21,3.279,5.527c1.248,0.118,3.022-0.454,3.813-1.359c1.741-1.995,2.257-4.574,0.511-6.868
			c-1.067-1.403-2.66-2.406-4.018-3.589c-1.195,1.722-2.412,3.431-3.562,5.184C373.574,333.352,373.722,333.823,373.722,334.196z"/>
		<path fill-rule="evenodd" clip-rule="evenodd" d="M118.919,383.479c-2.853-3.068-5.282-4.054-7.752-0.654
			c-0.45,0.621-2.104,0.368-3.202,0.519c0.078-1.182-0.262-2.65,0.314-3.491c1.639-2.389,8.443-3.869,11.627-2.396
			c2.986,1.381,3.825,4.15,3.678,7.407c-0.184,4.081-0.044,8.178-0.044,12.726c-4.331,0-8.671,0.211-12.966-0.14
			c-1.164-0.095-2.724-1.688-3.186-2.933c-1.946-5.241,0.931-9.243,6.535-9.753C115.614,384.61,117.255,383.922,118.919,383.479z
			 M118.625,388.134c-6.252-0.563-7.181,0.127-6.517,4.63C117.717,393.588,119.109,392.646,118.625,388.134z"/>
		<path fill-rule="evenodd" clip-rule="evenodd" d="M119.057,330.496c-1.294-3.15-5.349-4.129-6.962-1.69
			c-1.19,1.8-2.467,2.885-3.976,1.313c-0.574-0.598,0.091-3.433,1.047-4.263c3.286-2.851,11.417-3.649,13.782,1.761
			c0.611,1.397,0.678,3.086,0.754,4.653c0.145,2.979,0.215,5.969,0.123,8.949c-0.063,2.023-0.252,4.135-3.194,1.897
			c-0.69-0.526-2.167-0.066-3.275,0.014c-2.423,0.175-5.29,1.297-7.15,0.372c-2.313-1.15-4.144-3.8-3.007-7.118
			c1.03-3.007,3.25-3.97,6.203-4.287C115.315,331.893,117.161,331.056,119.057,330.496z M111.75,337.318
			c0.863,2.951,3.713,3.497,6.08,1.224c0.597-0.573,0.751-1.607,1.11-2.429c-0.871-0.225-1.82-0.782-2.596-0.602
			C114.84,335.862,113.433,336.628,111.75,337.318z"/>
		<path fill-rule="evenodd" clip-rule="evenodd" d="M84.83,377.298c2.553,0,4.667-0.155,6.749,0.038
			c3.07,0.285,4.91,2.119,5.046,5.212c0.183,4.109,0.225,8.233,0.08,12.343c-0.033,0.918-1.098,1.799-1.687,2.697
			c-0.93-0.905-2.559-1.737-2.664-2.73c-0.354-3.331-0.138-6.722-0.194-10.089c-0.035-2.133-0.661-4.371-3.136-4.11
			c-2.196,0.232-4.487,1.193-4.237,4.466c0.255,3.348,0.164,6.736-0.019,10.093c-0.044,0.814-1.044,1.576-1.604,2.362
			c-0.813-0.617-1.784-1.112-2.383-1.893c-0.394-0.513-0.332-1.437-0.337-2.178c-0.04-6.358-0.046-12.717-0.069-19.075
			c-0.007-1.764-0.037-3.91,2.215-3.945c2.279-0.034,2.393,2.017,2.252,3.864C84.776,375.206,84.83,376.069,84.83,377.298z"/>
		<path fill-rule="evenodd" clip-rule="evenodd" d="M176.365,324.957c4.09-0.254,7.422-0.944,10.617-0.544
			c4.641,0.581,7.639,7.079,6.174,12.365c-1.328,4.791-4.892,7.662-9.817,7.446c-3.042-0.134-3.111,1.468-3.131,3.736
			c-0.008,0.907-1.01,1.806-1.56,2.709c-0.761-0.763-2.167-1.513-2.184-2.291C176.3,340.587,176.365,332.79,176.365,324.957z
			 M189.446,334.591c-0.729-2.029-1.104-3.874-2.01-5.404c-1.166-1.969-5.042-1.958-5.499-0.006
			c-0.634,2.713-2.497,5.39-0.522,8.461c1.171,1.821,3.833,3.146,5.316,1.646C187.936,338.068,188.528,336.244,189.446,334.591z"/>
		<path fill-rule="evenodd" clip-rule="evenodd" d="M407.792,337.978c-5.195,7.656-11.479,8.595-16.458,3.562
			c-3.35-3.386-2.504-10.842-0.779-13.596c1.867-2.981,9.173-4.576,12.467-2.997c2.716,1.303,4.561,5.815,3.991,10.61
			c-3.16,0-6.423-0.136-9.664,0.078c-1.051,0.068-2.043,1.047-3.061,1.609c0.887,0.833,1.748,2.322,2.667,2.36
			c1.927,0.077,3.879-0.642,5.831-0.974C404.144,338.4,405.518,338.271,407.792,337.978z M403.043,331.058
			c-2.021-3.248-5.428-4.1-7.5-2.399c-0.549,0.451-0.95,1.404-0.925,2.109c0.017,0.441,0.985,1.238,1.479,1.203
			C398.302,331.815,400.489,331.418,403.043,331.058z"/>
		<path fill-rule="evenodd" clip-rule="evenodd" d="M81.063,343.959c-0.195-3.183-0.489-6.362-0.559-9.547
			c-0.094-4.31,0.046-8.624-0.031-12.935c-0.06-3.345,0.586-4.072,4.284-3.984c0,2.319,0,4.651,0,6.618
			c2.757,0,5.268-0.307,7.669,0.078c2.952,0.474,4.244,2.72,4.285,5.633c0.052,3.74,0.19,7.489-0.029,11.217
			c-0.062,1.054-1.246,2.042-1.915,3.062c-0.837-1.031-2.29-2.003-2.396-3.104c-0.323-3.335,0.028-6.731-0.217-10.079
			c-0.078-1.07-1.272-2.968-1.826-2.922c-1.586,0.13-4.212,0.784-4.452,1.732c-0.803,3.176-0.638,6.584-1.061,9.874
			c-0.202,1.574-0.892,3.085-1.361,4.624C82.658,344.137,81.86,344.048,81.063,343.959z"/>
		<path fill-rule="evenodd" clip-rule="evenodd" d="M254.269,20.417c0.058,1.258,0.322,2.39,0.117,3.43
			c-0.503,2.544-1.314,5.028-1.81,7.574c-0.193,1,0.196,2.1,0.19,3.153c-0.009,1.36,0.363,3.409-0.34,3.93
			c-1.328,0.984-3.94,2.013-4.884,1.366c-1.867-1.28-3.005-0.917-4.67-0.061c-3.132,1.609-6.275-0.23-6.633-3.884
			c-0.504-5.129,1.691-9.204,5.551-12.34c2.561-2.081,5.088-4.977,8.994-2.033C251.257,21.908,252.714,20.955,254.269,20.417z
			 M250.56,26.678c-2.171-1.346-3.512-2.837-4.378-2.599c-3.481,0.958-6.438,7.256-5.155,10.643
			c0.238,0.631,2.157,1.352,2.299,1.185C245.582,33.238,247.676,30.432,250.56,26.678z"/>
		<path fill-rule="evenodd" clip-rule="evenodd" d="M155.806,387.127c-0.051-6.765,2.424-9.56,7.955-9.932
			c7.877-0.53,9.659,4.229,9.936,9.868c0.333,6.786-3.468,10.558-9.773,10.625C158.514,397.748,155.859,394.295,155.806,387.127z
			 M160.315,385.913c-0.128,5.714,0.845,7.258,4.194,7.274c3,0.015,4.828-1.819,4.698-5.269c-0.182-4.876-1.592-6.618-4.489-6.611
			C160.868,381.317,160.136,383.395,160.315,385.913z"/>
		<path fill-rule="evenodd" clip-rule="evenodd" d="M303.457,334.552c-0.374-6.911,3.075-10.812,9.722-10.991
			c4.713-0.129,8.211,4.177,8.802,10.506c0.435,4.653-4.153,10.37-7.833,10.411C307.137,344.555,303.848,341.744,303.457,334.552z
			 M312.425,339.759c3.398,0.086,4.981-1.576,5.076-5.324c0.089-3.562-1.932-6.554-4.452-6.591
			c-3.521-0.053-5.283,2.007-5.481,6.408C307.409,337.766,309.095,339.675,312.425,339.759z"/>
		<path fill-rule="evenodd" clip-rule="evenodd" d="M242.152,339.158c-1.266-1.052-1.961-1.812-2.813-2.301
			c-2.414-1.387-5.499-2.165-7.134-4.156c-1.103-1.342-1.064-5.043,0.042-6.402c1.266-1.555,4.285-2.263,6.538-2.254
			c1.878,0.008,3.932,1.347,5.53,2.585c0.585,0.452,0.081,2.31,0.073,3.525c-1.154-0.168-2.35-0.21-3.445-0.563
			c-0.466-0.15-0.686-1.348-1.078-1.382c-1.152-0.104-2.336,0.138-3.507,0.245c0.414,0.877,0.599,2.127,1.29,2.554
			c1.583,0.979,3.362,1.734,5.157,2.254c2.838,0.82,3.894,3.354,3.162,5.298c-0.835,2.226-2.935,4.761-5.077,5.549
			c-4.366,1.604-7.024,0.123-9.333-3.969c-0.419-0.744-0.198-1.851-0.272-2.79c1.098,0.14,2.662-0.132,3.21,0.491
			C236.468,340.085,238.678,340.111,242.152,339.158z"/>
		<path fill-rule="evenodd" clip-rule="evenodd" d="M354.973,338.757c-0.673-0.578-1.267-1.309-2.034-1.706
			c-2.111-1.094-4.74-1.607-6.312-3.195c-1.268-1.28-1.901-3.871-1.657-5.728c0.166-1.269,2.313-3.191,3.601-3.211
			c2.926-0.046,5.934,0.695,8.748,1.61c0.598,0.194,0.513,2.492,0.743,3.819c-1.277-0.274-2.604-0.417-3.816-0.87
			c-0.84-0.313-1.481-1.424-2.279-1.505c-0.877-0.09-1.834,0.592-2.756,0.938c0.559,0.758,0.967,1.769,1.712,2.214
			c1.009,0.604,2.259,0.854,3.437,1.113c2.87,0.632,5.551,3.66,5.398,6.201c-0.129,2.169-3.913,5.729-6.249,5.936
			c-3.292,0.293-6.532,0.221-8.245-3.184c-0.546-1.086-0.176-2.633-0.225-3.969c1.04,0.34,2.086,0.664,3.12,1.024
			c2.029,0.707,4.053,1.436,6.079,2.154C354.482,339.852,354.728,339.305,354.973,338.757z"/>
		<path fill-rule="evenodd" clip-rule="evenodd" d="M412.13,337.109c2.267,1.615,4.344,4.218,8.604,1.823
			c-1.363-0.873-2.243-1.584-3.238-2.051c-5.759-2.7-7.724-2.963-7.4-7.752c0.184-2.72,1.35-4.479,4.34-4.48
			c1.618,0,3.247-0.13,4.854,0.007c3.381,0.288,4.683,2.184,3.996,6.566c-1.477-0.712-2.724-1.402-4.04-1.919
			c-1.134-0.445-2.333-0.821-3.531-0.93c-0.279-0.026-1.057,1.617-0.944,1.712c0.967,0.816,2.046,1.526,3.165,2.131
			c2.027,1.095,4.362,1.783,6.093,3.216c1.975,1.633,1.141,3.775-0.133,5.693c-3.058,4.607-9.706,4.731-13.01,0.372
			C409.235,339.32,409.437,338.041,412.13,337.109z"/>
		<path fill-rule="evenodd" clip-rule="evenodd" d="M265.025,325.429c0,5.059,0.05,10.159-0.021,15.259
			c-0.033,2.394-0.508,4.078-3.807,3.166c-1.812-0.501-3.986,0.476-6.004,0.52c-3.62,0.082-5.459-1.675-5.726-5.31
			c-0.3-4.076-0.837-8.168-0.688-12.232c0.132-3.545,2.832-1.821,4.88-1.807c0,3.961-0.171,7.737,0.104,11.48
			c0.085,1.142,1.183,2.796,2.194,3.156c1.948,0.694,3.821-0.222,4.106-2.504c0.368-2.955,0.48-5.955,0.496-8.938
			C260.579,324.455,261.121,324.039,265.025,325.429z"/>
		<path fill-rule="evenodd" clip-rule="evenodd" d="M155.882,334.245c0.126-6.4,3.628-10.67,8.785-10.711
			c5.002-0.039,9.116,4.917,9.074,10.929c-0.038,5.331-4.682,9.98-9.844,9.857C159.666,344.22,155.782,339.337,155.882,334.245z
			 M160.283,333.973c-0.069,4.333,1.051,5.8,4.444,5.814c3.274,0.015,4.607-1.481,4.693-5.267c0.103-4.546-1.31-6.74-4.382-6.807
			C161.343,327.635,160.363,328.923,160.283,333.973z"/>
		<path fill-rule="evenodd" clip-rule="evenodd" d="M356.958,266.518c5.434-1.546,8.364,1.074,7.616,6.414
			c-0.685,4.895-3.354,8.573-7.959,10.065c-2.076,0.674-4.727-0.431-8.001-0.838c1.143-4.471,2.175-8.311,3.097-12.177
			c0.89-3.729,1.665-7.487,2.625-11.838c0.546-0.087,1.964-0.312,4.128-0.654c-0.451,1.898-0.847,3.223-1.065,4.574
			C357.169,263.486,357.107,264.935,356.958,266.518z M362.498,273.112c-1.813-1.576-2.704-2.997-3.773-3.147
			c-2.195-0.31-4.084,0.648-4.561,3.175c-0.269,1.422-0.445,2.861-0.671,4.293c-0.135,0.857-0.282,1.714-0.426,2.57
			c0.944,0.113,2.315,0.679,2.761,0.261C358.016,278.21,359.959,275.894,362.498,273.112z"/>
		<path fill-rule="evenodd" clip-rule="evenodd" d="M287.157,33.425c-0.444-6.7,5.201-11.122,9.613-12.769
			c3.951-1.474,9.276,3.259,8.215,7.78c-1.079,4.594-2.48,9.504-7.881,11.546C291.905,41.949,287.131,38.92,287.157,33.425z
			 M291.111,32.903c0.519,1.523,0.753,3.27,1.691,4.465c0.404,0.517,2.923,0.344,3.349-0.284c2.215-3.267,5.363-6.244,4.555-10.818
			c-0.468-2.65-2.149-3.492-4.537-2.057C292.987,26.122,291.22,28.882,291.111,32.903z"/>
		<path fill-rule="evenodd" clip-rule="evenodd" d="M410.328,278.662c-1.334,3.827-4.089,4.669-7.03,4.792
			c-2.743,0.115-4.199-1.833-4.882-4.263c-1.391-4.956,3.381-12.728,8.46-13.361c1.381-0.172,3.465,0.772,4.268,1.892
			c0.658,0.916,0.449,3.413-0.361,4.225c-1.732,1.737-4.122,2.811-6.205,4.212c-0.69,0.465-1.264,1.103-1.891,1.662
			c0.721,0.455,1.427,1.265,2.165,1.296C406.508,279.185,408.18,278.867,410.328,278.662z"/>
		<path fill-rule="evenodd" clip-rule="evenodd" d="M330.881,316.473c1.635,0.889,2.599,1.413,3.563,1.937
			c-0.844,0.697-1.73,1.35-2.517,2.106c-0.671,0.647-1.623,1.37-1.708,2.143c-0.069,0.627,0.929,1.404,1.512,2.063
			c0.431,0.488,1.435,1.091,1.349,1.299c-0.279,0.68-1.014,1.155-1.439,1.798c-0.643,0.969-1.614,1.989-1.669,3.028
			c-0.187,3.604,0.111,7.233-0.118,10.83c-0.061,0.93-1.377,1.779-2.115,2.666c-0.808-0.89-2.219-1.721-2.31-2.678
			c-0.267-2.835,0.257-5.749-0.057-8.574c-0.208-1.876-1.357-3.638-2.011-5.478c-0.266-0.746-0.697-1.737-0.422-2.317
			c0.895-1.885,1.853-3.835,3.224-5.37C327.407,318.532,329.222,317.649,330.881,316.473z"/>
		<path fill-rule="evenodd" clip-rule="evenodd" d="M202.271,231.394c3.567-1.388,6.214-0.83,7.653,1.805
			c2.378-1.044,4.546-1.995,7.363-3.231c0,2.454,0,3.745,0,5.015c-6.538,1.383-6.538,1.383-5.345,9.551
			c1.119-0.232,2.214-0.46,4.596-0.955c-1.599,2.201-2.383,4.33-3.881,5.138c-3.761,2.026-3.244-3.119-6.002-4.04
			c-0.901,1.06-1.795,2.324-2.914,3.344c-0.625,0.57-1.674,1.083-2.435,0.97c-0.615-0.092-1.533-1.179-1.508-1.79
			c0.035-0.829,0.642-1.999,1.349-2.38c6.861-3.69,7.281-6.656,1.614-12.352C202.604,232.308,202.559,232.038,202.271,231.394z"/>
		<path fill-rule="evenodd" clip-rule="evenodd" d="M191.545,437.536c-1.966,1.029-2.7,1.721-3.427,1.712
			c-0.817-0.008-1.94-0.443-2.351-1.072c-0.401-0.614-0.442-2.068,0.003-2.525c2.181-2.238,4.394-4.539,6.962-6.274
			c1.681-1.135,3.483-0.434,3.497,2.103c0.038,6.886,0.148,13.776-0.088,20.653c-0.043,1.257-1.586,2.462-2.438,3.69
			c-0.719-1.268-1.986-2.504-2.061-3.809C191.387,447.492,191.545,442.948,191.545,437.536z"/>
		<path fill-rule="evenodd" clip-rule="evenodd" d="M78.865,397.288c-6.484,1.045-7.342,0.21-7.715-5.778
			c-0.24-3.841,0.428-7.639-1.262-11.614c-0.834-1.964,1.896-5.441,3.014-8.234c0.985,0.448,2.621,0.698,2.83,1.384
			c0.553,1.812-0.645,4.308,2.355,5.061c0.079,0.02,0.072,1.603-0.329,2.121c-3.135,4.056-2.946,10.181,0.425,14.437
			C78.692,395.305,78.648,396.387,78.865,397.288z"/>
		<path fill-rule="evenodd" clip-rule="evenodd" d="M95.208,148.233c2.069-1.779,4.162-3.081,6.482,0.262
			c0.327,0.47,1.996,0.235,2.95-0.022c0.912-0.246,1.713-1.368,2.539-1.341c1.065,0.034,2.107,0.826,3.159,1.292
			c-0.568,0.792-0.979,2.043-1.729,2.299c-4.289,1.46-6.055,4.99-4.005,9.149c0.355,0.721,2.286,0.666,4.201,1.147
			c-1.186,1.047-2.439,3.044-3.84,3.154c-1.563,0.122-3.262-1.471-5.508-2.63c-0.519,0.475-1.675,1.725-3.034,2.689
			c-0.664,0.472-1.718,0.583-2.568,0.515c-0.362-0.029-1.042-1.125-0.904-1.404c0.388-0.788,0.991-1.691,1.746-2.04
			c4.051-1.877,5.65-5.44,3.746-9.266C97.787,150.721,96.502,149.719,95.208,148.233z"/>
		<path fill-rule="evenodd" clip-rule="evenodd" d="M154.888,397.232c-5.535,1.473-7.642-0.241-8.032-6.045
			c-0.258-3.833,0.767-7.648-1.216-11.604c-0.796-1.588,1.393-5.249,3.039-7.316c1.533-1.926,2.998-0.355,2.95,1.602
			c-0.045,1.84-0.1,3.304,1.916,4.158c0.27,0.115,0.304,1.798-0.104,2.338c-2.769,3.669-2.673,10.531,0.205,13.861
			C154.278,394.96,154.439,396.103,154.888,397.232z"/>
		<path fill-rule="evenodd" clip-rule="evenodd" d="M150.229,319.033c1.47,2.325,2.779,4.073,3.681,6.011
			c0.292,0.628-0.208,2.073-0.817,2.59c-2.087,1.771-2.295,10.105-0.361,12.062c0.86,0.869,1.102,2.35,1.625,3.553
			c-1.084,0.343-2.151,0.77-3.258,0.996c-0.573,0.117-1.218-0.121-2.678-0.305c-0.438-3.752-0.813-7.633-1.375-11.487
			c-0.252-1.727-0.728-3.458-1.373-5.079C144.644,324.786,148.486,318.87,150.229,319.033z"/>
		<path fill-rule="evenodd" clip-rule="evenodd" d="M75.743,328.45c0,2.981-0.105,5.971,0.063,8.943
			c0.051,0.911,0.853,1.778,1.304,2.669c0.509,1.004,1.012,2.013,1.518,3.02c-0.83,0.412-1.7,1.222-2.478,1.142
			c-1.157-0.118-2.96-0.614-3.236-1.394c-0.869-2.449-1.167-5.104-1.662-7.683c-0.531-2.771-0.887-5.585-1.592-8.31
			c-0.64-2.474,3.08-7.914,4.794-7.884c1.449,2.414,2.94,4.351,3.743,6.538c0.277,0.754-1.164,2.138-1.82,3.233
			C76.166,328.635,75.954,328.542,75.743,328.45z"/>
		<path fill-rule="evenodd" clip-rule="evenodd" d="M199.635,35.063c1.167-0.262,2.043-0.458,2.917-0.654
			c-0.033,1.049,0.353,2.637-0.176,3.046c-1.562,1.21-3.485,1.955-5.267,2.881c-0.683-1.693-2.008-3.426-1.905-5.071
			c0.174-2.788,1.378-5.496,1.888-8.285c0.225-1.231-0.26-2.579-0.289-3.875c-0.017-0.771-0.055-1.894,0.4-2.264
			c1.908-1.551,3.999-2.877,6.269-4.457c0.671,1.954,1.414,4.108,2.169,6.304C200.264,25.246,201.748,30.884,199.635,35.063z"/>
		<path fill-rule="evenodd" clip-rule="evenodd" d="M260.625,32.213c1.059,1.98,2.605,3.658,2.238,4.449
			c-0.699,1.507-2.306,2.956-3.876,3.603c-1.944,0.801-3.528-0.486-3.424-2.627c0.099-2.028,1.158-4.03,1.151-6.041
			c-0.009-2.911,3.531-5.535,0.681-8.657c-0.214-0.234-0.135-1.134,0.117-1.333c2.089-1.649,4.249-3.206,6.564-4.922
			c0.796,2.526,1.339,4.249,1.575,4.996C263.631,25.915,261.938,29.463,260.625,32.213z"/>
		<path fill-rule="evenodd" clip-rule="evenodd" d="M361.438,163.571c0.486-0.706,0.813-1.75,1.483-2.063
			c6.658-3.124,7.259-8.17,1.452-12.879c3.198-2.13,4.998-1.61,6.769,2.282c0.915-0.692,1.697-1.452,2.623-1.938
			c1.031-0.542,2.187-1.104,3.3-1.13c0.653-0.015,1.332,0.994,1.999,1.543c-0.609,0.494-1.154,1.283-1.84,1.434
			c-4.768,1.056-5.757,2.884-4.019,7.572c0.296,0.798,0.307,1.702,0.418,2.37c1.077,0.221,2.047,0.42,3.018,0.618
			c-0.75,1.013-1.29,2.412-2.293,2.958c-1.979,1.078-3.303,0.137-4.833-2.916c-2.371,1.131-4.771,2.276-7.17,3.422
			C362.043,164.42,361.741,163.996,361.438,163.571z"/>
		<path fill-rule="evenodd" clip-rule="evenodd" d="M275.667,37.132c0.959-3.843,1.764-7.069,2.567-10.294
			c0.149-0.599,0.601-1.344,0.395-1.776c-2.263-4.772,3.366-4.957,4.438-7.758c0.813,0.415,2.315,0.814,2.326,1.247
			c0.049,2.103,1.629,4.398-1.34,6.255c-1.304,0.814-1.331,3.547-2.132,5.322c-0.878,1.946-0.952,3.368,1.163,4.679
			c0.425,0.263,0.129,2.962-0.619,3.565c-1.34,1.081-3.255,1.779-4.973,1.878C276.9,40.285,276.179,38.055,275.667,37.132z"/>
		<path fill-rule="evenodd" clip-rule="evenodd" d="M134.813,397.263c-5.843,0.928-6.808,0.136-6.855-5.132
			c-0.021-2.361,0.028-4.723,0.004-7.083c-0.009-0.866,0.2-2.179-0.263-2.527c-5.189-3.906,1.332-6.571,1.037-9.938
			c-0.031-0.347,1.078-0.793,1.546-1.115c1.422,2.405,2.808,4.54,3.929,6.807c0.259,0.522-0.197,1.636-0.647,2.234
			c-2.645,3.528-2.604,9.989,0.047,13.604C134.23,394.958,134.398,396.135,134.813,397.263z"/>
		<path fill-rule="evenodd" clip-rule="evenodd" d="M125.771,326.135c0.892-2.107,1.46-3.925,2.409-5.517
			c0.574-0.962,1.736-1.574,2.338-2.089c1.405,2.592,2.506,4.386,3.348,6.294c0.336,0.761,0.473,2.013,0.072,2.634
			c-3.194,4.935-3.121,8.287,0.063,12.983c0.564,0.833-0.036,2.456-0.098,3.713c-1.357-0.261-3.277-0.065-3.941-0.887
			c-1.047-1.294-1.546-3.237-1.738-4.966c-0.287-2.594,0.182-5.286-0.231-7.846C127.729,328.837,126.445,327.384,125.771,326.135z"
			/>
		<path fill-rule="evenodd" clip-rule="evenodd" d="M165.707,36.894c0.946-3.872,1.691-6.583,2.241-9.333
			c0.236-1.182-0.055-2.464,0.122-3.667c0.136-0.914,0.42-2.302,1.016-2.542c1.076-0.435,2.655-0.573,3.599-0.057
			c0.646,0.353,0.962,2.113,0.741,3.09c-0.558,2.459-1.567,4.811-2.245,7.249c-0.169,0.607,0.068,1.462,0.394,2.049
			c1.697,3.058,0.48,6.133-2.9,6.186C167.594,39.884,166.481,37.717,165.707,36.894z"/>
		<path fill-rule="evenodd" clip-rule="evenodd" d="M210.955,387.746c2.124,0,4.285-0.238,6.354,0.097
			c1.102,0.179,2.043,1.353,3.057,2.076c-0.902,0.992-1.748,2.775-2.715,2.843c-4.723,0.33-9.486,0.343-14.217,0.108
			c-0.833-0.041-2.188-1.795-2.18-2.747c0.007-0.795,1.582-2.105,2.599-2.254c2.323-0.339,4.73-0.106,7.103-0.106
			C210.955,387.757,210.955,387.751,210.955,387.746z"/>
		<path fill-rule="evenodd" clip-rule="evenodd" d="M46.55,397.19c-2.973,0.832-4.579,0.41-4.546-2.683
			c0.049-4.602-0.178-9.214,0.106-13.798c0.073-1.175,1.623-2.257,2.494-3.383c0.649,1.067,1.821,2.117,1.858,3.206
			C46.653,386.09,46.55,391.657,46.55,397.19z"/>
		<path fill-rule="evenodd" clip-rule="evenodd" d="M254.572,436.974c-0.037,3.07-2.59,5.591-5.701,5.628
			c-3.301,0.041-6.517-2.988-6.518-6.14c-0.002-2.872,3.409-5.95,6.461-5.829C252.301,430.771,254.617,433.321,254.572,436.974z
			 M248.305,440.845c1.337-1.935,2.73-3.075,2.738-4.226c0.006-0.989-1.568-1.988-2.444-2.984c-0.928,1.088-2.261,2.056-2.629,3.307
			C245.752,437.683,247.061,438.871,248.305,440.845z"/>
		<path fill-rule="evenodd" clip-rule="evenodd" d="M42.136,324.832c1.575-0.083,2.771-0.146,4.463-0.233
			c0,5.731,0.087,11.179-0.08,16.618c-0.03,0.976-1.104,1.92-1.696,2.879c-0.853-0.914-2.16-1.704-2.452-2.771
			c-0.446-1.634-0.22-3.459-0.23-5.202C42.123,332.528,42.136,328.934,42.136,324.832z"/>
		<path fill-rule="evenodd" clip-rule="evenodd" d="M220.504,384.607c-1.28,0.549-2.538,1.505-3.842,1.57
			c-3.973,0.2-7.979,0.254-11.938-0.068c-1.25-0.103-2.389-1.569-3.58-2.412c1.129-0.642,2.231-1.773,3.391-1.835
			c4.096-0.219,8.216-0.169,12.318-0.004c1.263,0.051,2.498,0.794,3.746,1.22C220.568,383.589,220.536,384.098,220.504,384.607z"/>
		<path fill-rule="evenodd" clip-rule="evenodd" d="M175.705,449.875c-2.175,0.635-3.843,1.46-5.547,1.547
			c-3.487,0.178-6.996,0.019-10.491-0.119c-2.407-0.095-4.023-1.063-3.471-3.882C164.597,446.105,173.5,446.849,175.705,449.875z"/>
		<path fill-rule="evenodd" clip-rule="evenodd" d="M362.495,325.21c3.256-1.04,4.309,0.046,4.288,2.671
			c-0.035,4.442,0.153,8.894-0.087,13.323c-0.059,1.076-1.423,2.081-2.188,3.119c-0.671-1.031-1.885-2.042-1.923-3.095
			C362.389,335.832,362.495,330.424,362.495,325.21z"/>
		<path fill-rule="evenodd" clip-rule="evenodd" d="M174.194,441.26c-0.126,4.018-2.49,5.08-7.617,3.992
			c-2.347-0.497-4.809-0.558-7.222-0.606c-2.148-0.044-3.598-0.513-3.143-3.386C162.133,441.26,168.018,441.26,174.194,441.26z"/>
		<path fill-rule="evenodd" clip-rule="evenodd" d="M201.385,338.182c1.154-1.298,1.851-2.661,2.395-2.603
			c5.485,0.584,11.404-1.883,16.507,1.479c-0.03,0.374-0.06,0.75-0.089,1.124C214.34,338.182,208.483,338.182,201.385,338.182z"/>
		<path fill-rule="evenodd" clip-rule="evenodd" d="M201.549,331.979c1.033-1.246,1.656-2.592,2.197-2.56
			c5.466,0.326,11.194-1.187,16.428,0.975c-0.043,0.528-0.086,1.056-0.129,1.585C214.261,331.979,208.477,331.979,201.549,331.979z"
			/>
		<path fill-rule="evenodd" clip-rule="evenodd" d="M172.959,19.799c-1.002-1.747-1.968-2.683-1.929-3.576
			c0.038-0.888,1.085-1.732,1.689-2.596c0.915,0.749,2.502,1.44,2.571,2.261C175.372,16.858,174.145,17.939,172.959,19.799z"/>
		<path fill-rule="evenodd" clip-rule="evenodd" d="M366.777,318.064c-0.699,1.227-1.398,2.453-2.098,3.68
			c-0.75-0.791-1.5-1.581-2.25-2.372c0.995-0.812,1.991-1.624,2.987-2.436C365.87,317.312,366.323,317.688,366.777,318.064z"/>
		<path fill-rule="evenodd" clip-rule="evenodd" d="M46.969,318.203c-0.758,0.861-1.38,2.055-2.332,2.446
			c-0.488,0.2-1.565-1.033-2.376-1.618c1.109-0.77,2.219-1.538,3.328-2.308C46.049,317.218,46.509,317.71,46.969,318.203z"/>
		<path fill-rule="evenodd" clip-rule="evenodd" fill="#FFFFFF" d="M372.241,96.354c-3.237,5.968-6.075,11.261-8.97,16.523
			c-4.749,8.63-9.435,17.297-14.331,25.842c-5.813,10.145-11.866,20.152-17.731,30.267c-4.577,7.893-8.926,15.919-13.567,23.772
			c-3.365,5.693-7.929,10.848-10.344,16.888c-2.585,6.467-6.859,6.402-12.304,6.276c-14.972-0.347-29.951-0.382-44.929-0.424
			c-11.209-0.032-22.419,0.104-33.628,0.188c-7.298,0.055-8.527-1.25-9.39-8.518c-0.869-7.328-2.179-14.602-3.296-21.9
			c-0.404-0.114-0.808-0.229-1.212-0.343c-1.141,3.121-2.283,6.241-3.74,10.225c-8.57-13.456-21.522-19.23-35.866-23.083
			c2.333-2.951,4.008-5.071,5.683-7.191c-0.287-0.347-0.575-0.694-0.862-1.041c-1.29,0.212-2.675,0.193-3.854,0.677
			c-5.726,2.349-11.384,4.861-17.095,7.248c-1.536,0.642-3.603,1.899-4.665,1.363c-1.803-0.908-3.314-2.83-4.396-4.653
			c-3.806-6.418-7.362-12.983-11.041-19.477c-4.175-7.367-8.425-14.693-12.562-22.082c-5.292-9.453-10.515-18.945-15.718-28.448
			c-0.254-0.463-0.033-1.189-0.033-2.11C189.506,96.354,280.504,96.354,372.241,96.354z M202.647,147.497
			c0.062-2.99,0.565-6.635-2.982-7.558c-2.204-0.573-5.387,0.198-7.341,1.527c-7.177,4.882-9.885,12.202-9.419,20.643
			c0.101,1.831,1.261,4.751,2.528,5.117c2.3,0.666,5.852,0.747,7.46-0.611C198.686,161.724,202.675,155.529,202.647,147.497z"/>
		<path fill-rule="evenodd" clip-rule="evenodd" fill="#FFFFFF" d="M145.898,177.712c7.673,2.005,15.346,4.011,23.019,6.017
			c0.298-0.299,0.597-0.598,0.896-0.896c-1.583-1.934-3.165-3.867-4.747-5.801c11.279,2.485,21.023,7.411,28.835,17.368
			c-2.983-0.856-5.224-1.5-7.464-2.144c-0.195,0.286-0.389,0.571-0.583,0.856c0.408,0.81,0.649,1.783,1.251,2.405
			c5.291,5.458,10.665,10.834,15.954,16.292c0.598,0.617,1.336,1.81,1.105,2.343c-0.312,0.719-1.466,1.407-2.321,1.492
			c-2.225,0.221-4.482,0.124-6.727,0.122c-8.481-0.009-16.962-0.071-25.442-0.024c-2.581,0.015-4.013-0.804-5.379-3.324
			c-4.246-7.835-9.108-15.334-13.591-23.044c-2.047-3.521-3.766-7.233-5.634-10.859
			C145.346,178.247,145.622,177.979,145.898,177.712z"/>
		<path fill-rule="evenodd" clip-rule="evenodd" fill="#FFFFFF" d="M370.673,278.849c-0.832-4.336,0.61-7.803,4.32-9.508
			c0.663-0.305,2.609,0.498,2.811,1.147C379.05,274.508,375.007,279.102,370.673,278.849z"/>
		<path fill-rule="evenodd" clip-rule="evenodd" fill="#FFFFFF" d="M229.691,452.202c-2.46-6.118-3.437-11.036-1.075-15.955
			c0.494-1.029,1.644-2.354,2.569-2.417c1.231-0.085,3.258,0.595,3.694,1.529c2.192,4.692,2.078,9.769,0.322,14.464
			C234.711,451.138,231.554,451.456,229.691,452.202z"/>
		<path fill-rule="evenodd" clip-rule="evenodd" fill="#FFFFFF" d="M185.03,380.616c3.869,3.008,4.755,5.993,3.064,10.333
			c-0.873,2.238-1.7,2.492-6.001,1.844C179.236,385.32,179.738,383.24,185.03,380.616z"/>
		<path fill-rule="evenodd" clip-rule="evenodd" fill="#FFFFFF" d="M179.776,33.846c1.268-3.798,1.578-7.834,5.925-9.362
			c0.718-0.252,1.916-0.668,2.177-0.375c0.559,0.629,1.156,1.959,0.85,2.502c-1.813,3.213-3.845,6.305-5.912,9.365
			c-0.203,0.301-1.39,0.369-1.681,0.088C180.522,35.478,180.202,34.586,179.776,33.846z"/>
		<path fill-rule="evenodd" clip-rule="evenodd" fill="#FFFFFF" d="M63.105,387.745c-0.909,1.747-1.424,4.101-2.862,5.034
			c-1.019,0.661-4.372-0.133-4.78-1.09c-1.021-2.391-1.502-5.33-1.102-7.877c0.205-1.305,2.646-2.724,4.313-3.139
			c0.845-0.211,2.553,1.494,3.25,2.693c0.634,1.089,0.428,2.666,0.592,4.029C62.713,387.513,62.909,387.629,63.105,387.745z"/>
		<path fill-rule="evenodd" clip-rule="evenodd" fill="#FFFFFF" d="M320.638,25.109c0.777,7.425-2.694,12.614-8.248,12.325
			C310.867,30.433,314.772,24.598,320.638,25.109z"/>
		<path fill-rule="evenodd" clip-rule="evenodd" fill="#FFFFFF" d="M140.271,440.806c-2.372,0-4.789,0-8.287,0
			c1.006-3.055,1.826-5.738,2.866-8.334c0.081-0.205,1.955-0.116,2.534,0.378C139.705,434.83,141.907,437,140.271,440.806z"/>
		<path fill-rule="evenodd" clip-rule="evenodd" fill="#FFFFFF" d="M132.568,444.453c0.863-0.215,1.228-0.419,1.554-0.368
			c2.185,0.339,4.362,0.73,6.541,1.106c-0.721,2.248-1.304,4.557-2.248,6.707c-0.27,0.613-1.871,1.289-2.37,1.021
			c-1.147-0.618-2.453-1.637-2.852-2.785C132.605,448.447,132.753,446.505,132.568,444.453z"/>
		<path fill-rule="evenodd" clip-rule="evenodd" fill="#FFFFFF" d="M53.872,333.882c0.056-4.115,1.635-6.169,4.744-6.166
			c2.791,0.002,4.555,2.383,4.227,6.187c-0.229,2.654-0.315,5.738-4.108,5.95C55.95,340.007,53.826,337.285,53.872,333.882z"/>
		<path fill-rule="evenodd" clip-rule="evenodd" fill="#FFFFFF" d="M373.722,334.196c0-0.373-0.147-0.845,0.023-1.105
			c1.149-1.753,2.366-3.462,3.562-5.184c1.357,1.183,2.95,2.186,4.018,3.589c1.746,2.294,1.23,4.873-0.511,6.868
			c-0.79,0.905-2.564,1.478-3.813,1.359C373.665,339.406,373.666,336.745,373.722,334.196z"/>
		<path fill-rule="evenodd" clip-rule="evenodd" fill="#FFFFFF" d="M118.625,388.134c0.484,4.513-0.909,5.454-6.517,4.63
			C111.445,388.261,112.373,387.57,118.625,388.134z"/>
		<path fill-rule="evenodd" clip-rule="evenodd" fill="#FFFFFF" d="M111.75,337.318c1.683-0.69,3.09-1.456,4.594-1.807
			c0.776-0.181,1.725,0.377,2.596,0.602c-0.358,0.821-0.513,1.855-1.11,2.429C115.463,340.815,112.613,340.27,111.75,337.318z"/>
		<path fill-rule="evenodd" clip-rule="evenodd" fill="#FFFFFF" d="M189.446,334.591c-0.918,1.653-1.511,3.478-2.716,4.696
			c-1.482,1.5-4.145,0.176-5.316-1.646c-1.974-3.071-0.112-5.748,0.522-8.461c0.457-1.952,4.333-1.963,5.499,0.006
			C188.342,330.717,188.718,332.562,189.446,334.591z"/>
		<path fill-rule="evenodd" clip-rule="evenodd" fill="#FFFFFF" d="M403.043,331.058c-2.554,0.36-4.741,0.758-6.945,0.913
			c-0.494,0.035-1.463-0.762-1.479-1.203c-0.025-0.705,0.376-1.658,0.925-2.109C397.615,326.958,401.021,327.81,403.043,331.058z"/>
		<path fill-rule="evenodd" clip-rule="evenodd" fill="#FFFFFF" d="M250.56,26.678c-2.884,3.754-4.978,6.561-7.234,9.229
			c-0.142,0.167-2.061-0.554-2.299-1.185c-1.283-3.387,1.674-9.686,5.155-10.643C247.048,23.841,248.389,25.332,250.56,26.678z"/>
		<path fill-rule="evenodd" clip-rule="evenodd" fill="#FFFFFF" d="M160.315,385.913c-0.179-2.519,0.553-4.596,4.403-4.605
			c2.896-0.007,4.307,1.735,4.489,6.611c0.13,3.449-1.698,5.283-4.698,5.269C161.16,393.171,160.187,391.627,160.315,385.913z"/>
		<path fill-rule="evenodd" clip-rule="evenodd" fill="#FFFFFF" d="M312.425,339.759c-3.33-0.084-5.016-1.993-4.857-5.507
			c0.198-4.401,1.961-6.461,5.481-6.408c2.521,0.037,4.541,3.029,4.452,6.591C317.406,338.183,315.823,339.845,312.425,339.759z"/>
		<path fill-rule="evenodd" clip-rule="evenodd" fill="#FFFFFF" d="M160.283,333.973c0.081-5.05,1.06-6.338,4.756-6.259
			c3.072,0.066,4.485,2.261,4.382,6.807c-0.086,3.785-1.419,5.281-4.693,5.267C161.334,339.772,160.213,338.306,160.283,333.973z"/>
		<path fill-rule="evenodd" clip-rule="evenodd" fill="#FFFFFF" d="M362.498,273.112c-2.539,2.781-4.482,5.098-6.67,7.151
			c-0.445,0.418-1.816-0.147-2.761-0.261c0.144-0.856,0.291-1.713,0.426-2.57c0.226-1.432,0.402-2.871,0.671-4.293
			c0.477-2.526,2.365-3.484,4.561-3.175C359.794,270.115,360.686,271.536,362.498,273.112z"/>
		<path fill-rule="evenodd" clip-rule="evenodd" fill="#FFFFFF" d="M291.111,32.903c0.108-4.021,1.876-6.781,5.058-8.694
			c2.388-1.436,4.069-0.594,4.537,2.057c0.809,4.574-2.34,7.551-4.555,10.818c-0.426,0.628-2.944,0.801-3.349,0.284
			C291.864,36.173,291.63,34.426,291.111,32.903z"/>
		<path fill-rule="evenodd" clip-rule="evenodd" fill="#FFFFFF" d="M248.305,440.845c-1.244-1.974-2.553-3.162-2.335-3.903
			c0.368-1.251,1.701-2.219,2.629-3.307c0.876,0.996,2.45,1.995,2.444,2.984C251.035,437.77,249.642,438.91,248.305,440.845z"/>
		<path fill-rule="evenodd" clip-rule="evenodd" d="M202.647,147.497c0.027,8.033-3.962,14.227-9.755,19.118
			c-1.608,1.358-5.16,1.277-7.46,0.611c-1.267-0.366-2.427-3.287-2.528-5.117c-0.466-8.44,2.243-15.76,9.419-20.643
			c1.954-1.33,5.137-2.1,7.341-1.527C203.212,140.861,202.709,144.506,202.647,147.497z M195.305,152.208
			c0.231-0.119,2.096-0.493,2.293-1.283c0.614-2.467,0.679-5.091,0.68-7.655c0-0.214-2.557-0.995-3.083-0.539
			c-1.47,1.273-2.687,2.95-3.662,4.661C189.172,151.531,189.449,151.929,195.305,152.208z M195.123,155.27
			c-1.177-0.134-2.027-0.311-2.878-0.314c-3.914-0.018-6.186,2.478-5.912,6.438c0.184,2.663,2.518,3.803,4.731,2.179
			C193.688,161.647,195.168,159.046,195.123,155.27z"/>
		<path fill-rule="evenodd" clip-rule="evenodd" fill="#FFFFFF" d="M195.305,152.208c-5.855-0.278-6.132-0.677-3.772-4.816
			c0.976-1.711,2.192-3.388,3.662-4.661c0.526-0.456,3.083,0.325,3.083,0.539c0,2.564-0.066,5.188-0.68,7.655
			C197.4,151.714,195.536,152.089,195.305,152.208z"/>
		<path fill-rule="evenodd" clip-rule="evenodd" fill="#FFFFFF" d="M195.123,155.27c0.045,3.776-1.435,6.377-4.059,8.303
			c-2.214,1.624-4.548,0.483-4.731-2.179c-0.273-3.959,1.998-6.455,5.912-6.438C193.096,154.959,193.946,155.136,195.123,155.27z"/>
	</g>
</g>
</svg>
