<?xml version="1.0" encoding="utf-8"?>
<!-- Generator: Adobe Illustrator 16.0.0, SVG Export Plug-In . SVG Version: 6.00 Build 0)  -->
<!DOCTYPE svg PUBLIC "-//W3C//DTD SVG 1.1//EN" "http://www.w3.org/Graphics/SVG/1.1/DTD/svg11.dtd">
<svg version="1.1" id="Layer_1" xmlns="http://www.w3.org/2000/svg" xmlns:xlink="http://www.w3.org/1999/xlink" x="0px" y="0px"
	 width="672.844px" height="356.3px" viewBox="0 0 672.844 356.3" enable-background="new 0 0 672.844 356.3" xml:space="preserve">
<g>
	<g>
		<path fill-rule="evenodd" clip-rule="evenodd" fill="#FFFFFF" d="M0.75,0.75c224.281,0,448.563,0,672.844,0
			c0,118.767,0,237.533,0,356.3c-224.281,0-448.563,0-672.844,0C0.75,238.283,0.75,119.517,0.75,0.75z M125.539,283.516
			c0,0.041,0,0.081,0,0.122c27.244,0,54.487-0.056,81.729,0.066c3.595,0.017,5.848-1.527,7.727-4.225
			c0.547-0.783,1.118-1.568,1.788-2.244c4.194-4.234,8.449-8.409,12.627-12.659c4.573-4.653,9.03-9.422,13.648-14.029
			c2.111-2.104,4.647-3.789,6.711-5.934c4.446-4.62,8.46-9.687,13.15-14.031c2.666-2.47,4.407-4.73,4.391-8.5
			c-0.078-17.849-0.01-35.697,0.053-53.546c0.056-15.595,0.229-31.188,0.248-46.783c0.018-15.286-0.052-30.572-0.164-45.859
			c-0.047-6.357-0.14-12.724-0.527-19.067c-0.22-3.613-2.98-4.864-6.232-3.574c-1.087,0.431-2.54-0.098-3.827-0.123
			c-2.14-0.042-4.281-0.081-6.419-0.031c-3.077,0.071-6.151,0.225-9.228,0.329c-0.078,0.002-0.15-0.239-0.245-0.256
			c-1.054-0.186-2.109-0.461-3.169-0.488c-1.045-0.025-2.109,0.372-3.144,0.297c-3.701-0.267-7.483-1.313-11.065-0.826
			c-4.182,0.571-8.136,0.174-12.265-0.002c-12.336-0.529-24.713-0.075-37.074-0.093c-17.581-0.025-35.162-0.14-52.743-0.196
			c-7.121-0.022-14.255-0.228-21.354,0.164c-1.963,0.108-3.884,1.978-5.707,3.211c-0.849,0.575-1.345,1.643-2.128,2.347
			c-2.571,2.311-5.397,4.37-7.758,6.873c-3.292,3.489-6.054,7.485-9.398,10.918c-6.469,6.641-13.172,13.056-19.807,19.534
			c-3.778,3.689-7.645,7.289-11.414,10.988c-3.193,3.133-5.774,6.845-5.831,11.368c-0.25,19.696-0.262,39.396-0.286,59.095
			c-0.042,33.47-0.029,66.94-0.037,100.411c-0.001,5.412,1.225,6.719,6.769,6.726C71.551,283.533,98.546,283.516,125.539,283.516z
			 M603.104,221.875c3.466,3.291,12.54,1.698,13.992-3.118c1.84-6.107,3.047-12.363-0.306-18.503
			c-0.881-1.612-1.334-3.35-3.677-3.453c-2.671-0.118-5.333-0.717-7.995-0.688c-2.386,0.024-3.506-0.626-3.302-3.154
			c0.145-1.787,0.028-3.595,0.028-5.328c-4.943-0.473-5.691,0.271-5.721,4.731c-0.056,8.356,0.006,16.72-0.381,25.063
			c-0.118,2.561,0.779,4.394,2.571,5.324C599.392,223.307,601.305,222.258,603.104,221.875z M498.256,202.566
			c1.825,3.659,3.559,3.964,6.044,1.013c2.028-2.408,4.705-1.94,7.183-1.522c0.987,0.166,1.753,1.644,2.373,2.272
			c-3.985,1.355-7.387,2.367-10.677,3.664c-4.772,1.882-6.477,5.787-4.934,10.778c0.683,2.203,7.724,5.232,10.441,4.493
			c0.237-0.064,0.552-0.045,0.705-0.193c3.201-3.107,6.353-2.133,9.901,0.538c0.424-1.473,1.069-2.688,1.068-3.901
			c-0.006-4.849,0.103-9.734-0.466-14.531c-0.322-2.72-1.129-6.271-3.033-7.724c-3.648-2.781-8.257-1.926-12.742-0.992
			C500.388,197.237,500.635,200.999,498.256,202.566z M644.786,211.517c0.602-4.589-0.355-8.148-2.896-11.548
			c-3.163-4.234-12.541-5.864-16.188-2.25c-4.199,4.163-4.665,9.598-3.728,14.979c0.619,3.562,0.44,7.454,5.584,9.281
			c4.989,1.772,11.736,2.134,15.171-2.002c1.06-1.275,0.625-3.79,0.874-5.737c-1.755,0.284-3.528,0.492-5.253,0.903
			c-0.475,0.114-0.749,1.147-1.208,1.227c-2.083,0.359-4.416,1.174-6.231,0.561c-1.416-0.479-2.203-2.818-3.269-4.331
			c0.288-0.361,0.578-0.722,0.866-1.083C633.93,211.517,639.348,211.517,644.786,211.517z M543.987,126.225
			c-6.187-0.535-6.176-0.534-4.238,4.863c0.246,0.688,0.112,1.507,0.326,2.214c1.391,4.604,2.138,9.592,4.473,13.663
			c1.81,3.154,1.325,5.677,1.031,8.642c-0.827,0.138-1.438,0.334-2.046,0.323c-1.985-0.037-3.731,0.415-3.292,2.834
			c0.358,1.964,1.277,3.598,3.97,3.289c4.578-0.527,6.331-4.115,7.646-7.486c2.568-6.581,4.411-13.442,6.681-20.145
			c0.697-2.061,1.804-3.983,3.104-6.79c-1.415-0.476-3.37-1.844-4.697-1.387c-1.427,0.491-2.599,2.551-3.289,4.179
			c-1.35,3.181-1.015,7.237-4.919,9.316C547.052,134.948,545.49,130.503,543.987,126.225z M592.021,220.893
			c0-7.135-0.12-14.232,0.064-21.323c0.066-2.504-1.526-3.128-3.143-3.189c-1.677-0.064-3.337,0.647-3.236,3.065
			c0.149,3.612,0.117,7.233,0.104,10.851c-0.012,3.244-3.368,7.171-5.933,7.023c-2.149-0.123-4.354-3.642-4.36-6.958
			c-0.005-2.866-0.022-5.731-0.009-8.597c0.031-6.087-0.494-6.435-6.158-3.763c1.037,6.397-1.261,13.047,1.762,19.545
			c1.434,3.081,3.604,6.27,7.024,5.915C582.622,222.999,587.037,221.85,592.021,220.893z M546.102,210.14
			c0,0.281-0.089,1.659,0.015,3.022c0.513,6.678,4.411,10.563,11.086,10.132c2.828-0.184,5.538-2.033,8.323-3.068
			c3.205-1.189,2.515-4.011,2.28-6.245c-0.193-1.843-1.565-3.335-3.54-1.172c-2.746,3.008-6.304,2.936-9.869,2.569
			c-0.761-0.077-1.937-0.974-2.047-1.639c-0.356-2.144-0.354-4.353-0.396-6.538c-0.045-2.385,0.66-4.533,3.229-5.117
			c2.705-0.615,5.182-0.336,7.035,2.404c0.546,0.808,2.568,0.875,3.881,0.786c0.587-0.04,1.697-1.531,1.531-1.968
			c-0.775-2.036-1.543-5.207-2.997-5.631c-3.75-1.095-8.195-2.089-11.752-1.043C547.335,198.265,545.458,203.321,546.102,210.14z
			 M638.047,128.449c-1.826-1.022-3.021-2.235-4.269-2.294c-5.102-0.24-10.229-0.293-15.323,0.011
			c-0.905,0.054-2.187,2.066-2.347,3.297c-0.098,0.748,1.52,2.315,2.543,2.493c2.231,0.386,4.576,0.119,7.265,0.119
			c-1.51,2.763-2.164,5.905-4.011,6.961c-4.917,2.813-6.481,6.898-6.82,12.537c6.815,0,13.391,0.11,19.954-0.115
			c1.021-0.035,1.988-1.603,2.98-2.462c-0.208-0.423-0.416-0.845-0.624-1.267c-4.525,0-9.051,0-13.576,0
			c-0.229-0.35-0.459-0.699-0.688-1.048C627.948,140.792,632.766,134.905,638.047,128.449z M473.088,143.063
			c0.954,1.876,1.37,2.744,1.831,3.586c0.459,0.84,0.979,1.646,1.445,2.483c1.17,2.102,5.589,3.631,6.517,1.989
			c0.675-1.192-0.336-3.361-0.68-5.079c-0.051-0.257-0.638-0.364-0.847-0.639c-1.243-1.64-3.003-3.147-3.547-5.004
			c-1.018-3.467,0.375-6.214,3.497-8.405c1.26-0.885,1.553-3.147,2.286-4.783c-1.563-0.377-3.343-1.386-4.623-0.945
			c-1.163,0.401-1.926,2.307-2.611,3.677c-1.335,2.667-3.652,2.995-5.475,0.604c-0.816-1.071-1.272-2.72-2.321-3.238
			c-1.576-0.779-3.524-0.907-5.33-0.996c-0.237-0.013-1.107,2.132-0.757,2.76c1.248,2.236,2.652,4.492,4.453,6.283
			c2.392,2.38,1.657,4.066-0.084,6.398c-2.063,2.761-3.565,5.94-5.413,9.115C468.854,153.115,470.246,147.582,473.088,143.063z
			 M246.586,295.108c-0.437-0.154-0.872-0.31-1.309-0.464c-0.243-0.895-0.609-1.775-0.708-2.686
			c-0.337-3.088-0.58-6.187-0.858-9.281c-0.314-3.477-2.405-5.042-5.692-4.804c-1.269,0.092-2.476,1.027-3.71,1.579
			c0.65,1.33,1.229,2.701,1.972,3.978c0.579,0.994,1.903,1.838,1.961,2.805c0.313,5.223,0.466,10.467,0.354,15.696
			c-0.025,1.171-1.304,2.334-2.058,3.465c-0.659,0.989-1.545,1.855-2.047,2.912c-0.436,0.917-0.473,2.023-0.687,3.047
			c1.274-0.383,3.217-0.369,3.714-1.21c3.455-5.848,9.958-9.03,12.963-15.283c1.65-3.433,4.061-6.494,5.898-9.849
			c0.535-0.977,0.625-2.494,0.294-3.57c-0.359-1.169-1.259-2.594-2.28-2.995c-0.75-0.294-2.555,0.621-3.02,1.472
			c-0.532,0.975-0.203,2.487-0.046,3.74c0.082,0.653,1.036,1.49,0.848,1.837C250.404,288.751,248.472,291.917,246.586,295.108z
			 M118.14,302.222c-1.791-3.557-3.641-4.078-10.061-2.185c3.803,2.641,5.743,6.206,6.848,10.411
			c-2.343,2.759-3.52,7.184-8.337,7.956c-0.526,0.084-1.287,1.583-1.144,2.255c0.193,0.902,1.022,2.063,1.834,2.33
			c0.825,0.271,2.236-0.114,2.908-0.734c1.647-1.521,3.018-3.342,4.248-4.753c2.554,2.093,4.682,5.203,6.818,5.209
			c2.19,0.006,4.389-3.024,6.584-4.726c-0.134-0.262-0.267-0.524-0.4-0.785c-1.67,0-3.341,0-4.914,0
			c-0.633-2.037-1.27-3.748-1.673-5.512c-0.254-1.109-0.512-2.43-0.144-3.424c0.801-2.163,2.117-3.558,4.953-3.58
			c1.246-0.01,3.275-2.135,3.529-3.554c0.426-2.377-2.07-2.253-3.474-1.877C123.22,299.925,120.865,301.12,118.14,302.222z
			 M307.972,153.868c-3.229,0.931-6.283,1.813-9.338,2.693c-0.346-0.539-0.691-1.077-1.037-1.616
			c1.14-1.292,2.274-2.589,3.421-3.875c2.759-3.096,5.288-6.455,8.373-9.184c2.035-1.801,2.19-2.823,0.285-4.57
			c-2.951-2.708-6.382-1.204-9.592-1.151c-3.806,0.061-6.692,3.328-7.016,8.313c3.109-0.848,5.878-1.602,9.5-2.589
			c-0.895,2.37-1.167,4.271-2.193,5.577c-2.621,3.338-5.704,6.312-8.359,9.625c-1.903,2.374-0.823,4.595,2.094,4.706
			c2.243,0.085,4.5,0.113,6.739-0.036C305.785,161.43,308.146,158.884,307.972,153.868z M524.33,144.271
			c-2.051-3.866-4-4.841-6.932-4.617c-3.827,0.293-7.64,0.887-11.555,0.137c-2.828-0.542-5.941-0.479-6.913,3.883
			C507.17,147.278,515.349,144.052,524.33,144.271z M599.425,133.476c-2.107-0.169-4.174-0.477-6.241-0.473
			c-5.503,0.01-11.008,0.12-16.509,0.302c-0.477,0.016-1.042,0.785-1.334,1.33c-0.121,0.226,0.29,1.048,0.598,1.141
			c2.421,0.731,4.847,1.737,7.326,1.919c4.203,0.308,8.446,0.055,12.672,0.079C598.69,137.79,599.656,136.346,599.425,133.476z
			 M498.242,133.948c0.072,0.505,0.146,1.01,0.219,1.514c2.245,0.215,4.486,0.476,6.735,0.634c4.619,0.326,9.378-1.252,13.875,1.358
			c0.738,0.428,2.586-0.737,3.726-1.469c0.492-0.316,0.859-1.895,0.645-2.057c-1.011-0.764-2.228-1.7-3.396-1.734
			c-5.596-0.166-11.205-0.194-16.798,0.034C501.559,132.297,499.909,133.347,498.242,133.948z M575.282,141.538
			c-0.075,3.274,1.566,3.816,3.611,3.82c5.482,0.009,10.966-0.007,16.448-0.048c0.737-0.006,1.637,0.013,2.17-0.377
			c0.803-0.586,1.348-1.524,2.001-2.313c-0.809-0.366-1.607-0.759-2.43-1.093c-3.567-1.446-7.138,0.019-10.708,0.013
			C582.78,141.533,579.185,141.538,575.282,141.538z M476.8,197.787c-0.406-0.355-0.813-0.71-1.22-1.064
			c-1.651,0.65-3.653,0.948-4.814,2.096c-0.617,0.61-0.27,3.271,0.535,3.956c0.875,0.743,3.604,0.854,4.076,0.199
			C476.357,201.609,476.383,199.558,476.8,197.787z M485.783,221.142c-0.01-4.948-1.428-6.195-5.446-5.164
			c-0.1,1.585-0.205,3.246-0.327,5.164C482.106,221.142,483.859,221.142,485.783,221.142z M466.677,215.823
			c-0.502-0.354-1.005-0.709-1.507-1.063c-1.045,0.677-2.774,1.192-2.98,2.067c-0.349,1.471,0.2,3.188,0.604,4.743
			c0.037,0.146,2.383,0.118,2.53-0.263C465.994,219.563,466.264,217.666,466.677,215.823z"/>
		<path fill-rule="evenodd" clip-rule="evenodd" d="M125.539,283.516c-26.993,0-53.988,0.018-80.981-0.016
			c-5.543-0.007-6.77-1.313-6.769-6.726c0.008-33.471-0.005-66.941,0.037-100.411c0.024-19.699,0.037-39.399,0.286-59.095
			c0.057-4.523,2.638-8.235,5.831-11.368c3.77-3.699,7.636-7.298,11.414-10.988c6.635-6.479,13.337-12.894,19.807-19.534
			c3.344-3.433,6.105-7.429,9.398-10.918c2.361-2.503,5.188-4.563,7.758-6.873c0.783-0.704,1.28-1.772,2.128-2.347
			c1.823-1.233,3.744-3.103,5.707-3.211c7.1-0.392,14.234-0.187,21.354-0.164c17.581,0.057,35.162,0.171,52.743,0.196
			c12.36,0.019,24.737-0.436,37.074,0.093c4.128,0.176,8.083,0.573,12.265,0.002c3.583-0.488,7.365,0.559,11.065,0.826
			c1.035,0.075,2.099-0.323,3.144-0.297c1.06,0.026,2.115,0.302,3.169,0.488c0.094,0.017,0.167,0.259,0.245,0.256
			c3.077-0.104,6.151-0.258,9.228-0.329c2.138-0.05,4.279-0.011,6.419,0.031c1.287,0.025,2.74,0.554,3.827,0.123
			c3.252-1.29,6.012-0.039,6.232,3.574c0.387,6.343,0.48,12.709,0.527,19.067c0.112,15.287,0.182,30.573,0.164,45.859
			c-0.02,15.594-0.192,31.188-0.248,46.783c-0.063,17.849-0.131,35.697-0.053,53.546c0.017,3.77-1.725,6.03-4.391,8.5
			c-4.69,4.345-8.704,9.411-13.15,14.031c-2.063,2.145-4.6,3.829-6.711,5.934c-4.618,4.607-9.075,9.376-13.648,14.029
			c-4.179,4.25-8.433,8.425-12.627,12.659c-0.669,0.676-1.241,1.461-1.788,2.244c-1.879,2.697-4.131,4.241-7.727,4.225
			c-27.242-0.122-54.485-0.066-81.729-0.066C125.539,283.597,125.539,283.557,125.539,283.516z M221.328,114.192
			c-0.313-0.788-0.627-1.576-0.941-2.364c-0.434,0.756-0.868,1.512-1.302,2.268c-2.463,0.417-5.403,0.029-6.013,3.568
			c-0.064,2.622-0.196,5.246-0.112,7.863c0.01,0.336,1.473,1.06,1.685,0.888c1.791-1.447,3.449-3.06,5.146-4.623
			c-0.01-2.09-0.019-4.18-0.028-6.271C220.283,115.079,220.806,114.636,221.328,114.192z M217.611,173.238
			c-0.219,0.749-0.438,1.498-0.657,2.248c0.7,0.786,1.258,1.911,2.134,2.278c1.275,0.535,2.779,0.523,4.186,0.746
			c-1.109,1.852,1.112,5.451-2.81,5.479c-0.245,2.056-0.457,3.827-0.667,5.6c-1.904-1.548-3.808-3.096-5.712-4.643
			c-0.339,0.266-0.679,0.53-1.019,0.795c0.322,1.611,0.645,3.223,0.966,4.835c0.251,2.162-4.904,3.367-0.924,6.039
			c-2.573,1.87-2.567,2.437-0.108,5.92c-0.567,0.664-1.134,1.327-1.344,1.572c1.01,2.075,1.633,3.744,2.587,5.197
			c0.842,1.281,2.053,2.321,3.103,3.468c-0.332,0.298-0.663,0.596-0.994,0.895c-0.574-0.678-1.147-1.354-1.722-2.032
			c-1.239,1.073-2.338,2.025-3.463,2.998c3.129,1.941,2.195,3.984,0.372,5.767c0.974,1.373,1.836,2.59,2.699,3.806
			c-0.275,1.656-1.119,4.584-0.732,4.757c2.151,0.962,4.596,1.279,6.966,1.663c0.078,0.013,0.787-1.736,0.575-2.487
			c-0.595-2.106-1.518-4.12-2.312-6.172c0.479-0.523,0.957-1.047,1.417-1.551c2.396,1.113,4.556,0.285,5.153-2.43
			c0.473-2.147,1.545-2.849,3.509-2.768c0.561,2.257,1.123,4.513,1.684,6.769c-0.33,0.486-0.684,1.409-0.987,1.394
			c-3.521-0.192-4.699,2.159-5.408,4.776c-1.051,4.022,6.965,0.83,4.532,6.167c-3.265-2.749-3.49,1.175-5.824,2.229
			c3.368,3.06,6.393,5.809,8.734,7.935c2.224-1.056,4.279-2.928,5.667-2.522c4.242,1.238,5.468,0.75,6.184-3.783
			c-0.958-0.936-1.801-1.759-2.644-2.583c0.018-1.378,0.035-2.755,0.054-4.132c0.507-2.458,1.014-4.915,1.56-7.563
			c-0.79-0.202-1.938-0.496-3.085-0.789l0.001-0.158c0-1.41-0.001-2.819-0.001-4.229c0.815,3.966,3.403,2.391,5.671,1.816
			c1.845,0.282,3.688,0.565,5.533,0.849c1.271,0.509,2.542,1.02,3.99,1.6c0.362-0.343,1.038-1.097,1.825-1.705
			c1.536-1.188,4.093-2.03,4.498-3.494c0.725-2.62-1.911-4.082-3.845-5.517c1.823-1.852,4.989-2.962,3.424-7.539
			c-1.716,1.381-3.076,2.475-3.578,2.878c-2.06-0.868-3.786-1.596-5.512-2.322c0-0.598,0-1.194-0.001-1.791
			c0.596-0.854,1.209-1.696,1.784-2.563c0.979-1.475,1.934-2.963,2.898-4.443c-1.104,4.28-1.078,4.314,5.009,6.006
			c-0.887-2.15-1.675-4.063-2.464-5.976c0.011-1.499,0.021-3,0.032-4.5c0.808-2.126,1.616-4.251,2.424-6.377
			c-0.226-0.297-0.452-0.594-0.677-0.891c-2.373,3.835-4.448,1.894-6.64,0.393c-0.938-0.642-2.093-0.967-3.149-1.437
			c-0.229-1.141-0.457-2.28-0.686-3.42c0.729-0.883,1.46-1.766,2.189-2.648c2.851-3.643,5.937,0.081,8.939,0.072
			c-0.146-2.219-0.268-4.082-0.402-6.13c-0.494,0.124-1.103,0.088-1.352,0.369c-1.922,2.174-2.744,1.641-3.718-0.939
			c-0.556-1.473-2.298-2.529-3.586-3.683c-1.191-1.067-2.488-2.016-3.74-3.017c0.14-0.224,0.28-0.447,0.421-0.67
			c-2.273,0-4.545,0-6.249,0c0.685-2.275,1.135-3.767,1.583-5.259c1.746,1.833,3.321,4.614,6.292,3.362
			c2.128-0.897,3.674-2.968,2.533-5.758c1.153-0.492,2.391-0.846,3.439-1.504c1.794-1.126,2.946-0.655,3.21,1.298
			c0.176,1.298-0.378,2.68-0.35,4.019c0.022,1.059,0.433,2.108,0.672,3.163c0.332-0.094,0.665-0.187,0.996-0.281
			c0-6.888,0-13.775,0-20.196c-2.937,1.319-5.714,2.566-8.491,3.813c2.839-2.905,6.435-5.529,3.893-10.441
			c1.263,1.276,2.526,2.551,3.788,3.827c0.487-0.364,0.974-0.728,1.46-1.093c-1.224-2.157-2.448-4.315-3.673-6.474
			c-1.079,0.805-2.159,1.609-3.238,2.414c-0.65-0.063-1.299-0.128-1.948-0.192c0.705-2.62,1.409-5.24,2.157-8.022
			c-0.964-0.063-2.148-0.141-3.333-0.218c-0.009-0.72-0.017-1.439-0.026-2.158c0.542-1.236,1.27-2.428,1.581-3.719
			c0.523-2.171,1.409-3.045,3.427-1.572c4.368-0.837,2.522-4.323,2.92-6.852c0.372-1.813,0.742-3.626,1.167-5.705
			c-0.611-0.316-1.597-0.825-3.245-1.676c1.736-0.437,2.73-0.686,4.479-1.126c-1.043-2.034-1.92-3.745-2.797-5.457
			c-0.029-1.294-0.454-2.75-0.008-3.852c1.01-2.494-0.52-2.984-2.238-3.54c0.315-1.712,0.631-3.423,0.946-5.135l0.162-0.11
			c2.671-0.766,3.486-2.552,3.375-5.264c-0.186-4.573-0.051-9.16-0.051-13.741c-4.403,4.694-12.178,6.628-10.489,13.543
			c1.446,2.039,2.27,3.198,3.092,4.358c-0.935,0.29-1.885,0.542-2.802,0.88c-0.989,0.364-2.528,1.41-2.828,1.121
			c-2.123-2.047-3.233,0.016-5.26,0.865c1.647,2.212,3.083,4.138,4.517,6.063c-3.001-1.788-4.931,1.024-7.367,1.707
			c-3.481,2.781-1.445,5.991-0.709,9.1c-1.142,0-2.285,0-2.918,0c-0.979,1.683-1.72,2.957-2.461,4.229l0.096-0.066
			c-1.083,0.252-2.167,0.504-3.25,0.756c-1.563,2.463-1.595,4.84,0.395,7.106c-0.496,0.698-0.991,1.396-1.486,2.096
			c-1.193,0.119-2.387,0.237-4.262,0.424c1.146,1.451,1.835,2.142,2.301,2.96c0.499,0.875,0.788,1.87,1.168,2.813
			c-2.244,2.479-4.487,4.958-6.731,7.437c-0.742,0.893-1.483,1.786-2.225,2.679c-2.091,0.68-4.181,1.36-6.361,2.069
			c-1.156,2.49,0.995,3.542,2.627,4.245c1.158,0.498,2.805-0.138,4.233-0.268c-2.954,3.077,1.346,3.655,1.902,5.522
			c-1.39,0.558-2.791,1.575-4.167,1.542c-1.317-0.031-2.608-1.154-3.936-1.809c-1.405,4.461-1.172,4.903,2.722,6.016
			c0.659,0.189,1.431,0.578,1.789,1.116c1.076,1.62-0.213,8.561-1.363,10.403c-0.515,0.825-0.017,2.283,0.021,3.453
			c-2.85,0.604-3.187,2.232-1.85,4.542c-0.679,0.249-1.357,0.499-2.036,0.748c0.242,0.448,0.484,0.896,0.727,1.343
			c0.479-0.571,0.959-1.143,1.439-1.714C216.225,172.065,216.918,172.651,217.611,173.238z M220.913,243.349
			c0.75,1.05,1.428,2.163,2.281,3.122c0.387,0.435,1.121,0.562,1.697,0.828c-0.092-0.693-0.072-1.428-0.311-2.065
			c-0.175-0.465-0.691-0.802-1.025-1.165c0.764-0.819,1.328-1.424,1.893-2.029c-0.182-0.262-0.363-0.523-0.545-0.786
			c-1.359,0.725-2.717,1.448-4.075,2.173c0.464-1.109,0.928-2.219,1.203-2.877c-1.235-1.222-2.704-2.006-3.046-3.133
			c-1.306-4.297-2.293-4.879-6.995-3.456c0.454,2.999,0.903,5.969,1.512,9.989C216.161,240.396,218.594,240.839,220.913,243.349z
			 M205.118,115.579c-2.39-0.115-4.238-0.28-6.085-0.282c-18.236-0.016-36.473-0.003-54.708-0.003
			c-13.154,0-26.31,0.114-39.461-0.045c-13.969-0.168-27.936-0.611-41.905-0.898c-1.609-0.033-3.223,0.228-4.836,0.253
			c-2.809,0.044-5.674,0.358-8.417-0.073c-3.896-0.613-5.877,0.654-5.892,4.673c-0.112,30.584-0.232,61.169-0.267,91.754
			c-0.023,20.487,0.11,40.975,0.128,61.462c0.004,4.691,0.217,5.004,5.09,5.009c20.501,0.021,41.002,0.038,61.503,0.044
			c30.498,0.007,60.995-0.018,91.493,0.044c2.582,0.006,3.743-0.428,3.708-3.482c-0.226-20.205-0.282-40.415-0.23-60.623
			c0.006-2.206,2.211-5.064,1.402-6.491c-2.311-4.076-1.431-8.186-1.448-12.284c-0.086-20.808-0.062-41.616-0.075-62.424
			C205.116,126.763,205.118,121.316,205.118,115.579z M257.639,57.974c-2.842,0-4.188,0-5.533,0
			c-28.481-0.012-56.961-0.029-85.442-0.035c-21.105-0.005-42.212-0.088-63.316,0.128c-2.549,0.025-5.654,1.062-7.514,2.73
			c-5.469,4.91-10.481,10.334-15.599,15.628c-6.8,7.038-13.518,14.156-20.298,21.213c-2.643,2.75-5.396,5.394-8.016,8.165
			c-0.635,0.672-0.942,1.655-1.4,2.494c0.866,0.312,1.726,0.874,2.597,0.893c5.493,0.12,10.989,0.149,16.484,0.155
			c28.218,0.028,56.437,0.03,84.656,0.063c16.611,0.02,33.222,0.145,49.832,0.047c2.201-0.013,4.854-0.476,6.502-1.757
			c3.775-2.932,7.068-6.49,10.54-9.812c2.061-1.971,4.796-3.629,5.979-6.041c2.264-4.61,6.827-6.729,9.842-10.448
			c2.415-2.979,5.113-5.736,7.79-8.492c3.209-3.302,6.606-6.424,9.759-9.777C255.611,61.953,256.24,60.323,257.639,57.974z
			 M210.761,253.78c1.724,1.546,2.86,2.564,3.997,3.583c0.35-0.098,0.7-0.193,1.05-0.291c-0.233-1.914-0.467-3.828-0.701-5.742
			C213.742,252.1,212.376,252.869,210.761,253.78z M226.915,249.792c4.784,2.566,6.448,1.894,6.317-2.393
			C231.247,248.151,229.414,248.846,226.915,249.792z M213.803,271.896c0.62-0.283,1.239-0.566,1.858-0.85
			c-0.46-1.371-0.725-2.873-1.501-4.033c-0.227-0.34-1.909,0.294-2.924,0.482C212.092,268.962,212.948,270.428,213.803,271.896z
			 M245.508,234.036c0.327,0.521,0.653,1.044,0.979,1.565c1.544-1.094,3.087-2.188,4.631-3.282c-0.385-0.539-0.77-1.077-1.155-1.616
			C248.479,231.814,246.993,232.925,245.508,234.036z"/>
		<path fill-rule="evenodd" clip-rule="evenodd" d="M603.104,221.875c-1.799,0.383-3.712,1.432-4.789,0.873
			c-1.792-0.931-2.689-2.764-2.571-5.324c0.387-8.343,0.325-16.706,0.381-25.063c0.029-4.46,0.777-5.204,5.721-4.731
			c0,1.733,0.116,3.541-0.028,5.328c-0.204,2.528,0.916,3.179,3.302,3.154c2.662-0.028,5.324,0.57,7.995,0.688
			c2.343,0.104,2.796,1.841,3.677,3.453c3.353,6.14,2.146,12.396,0.306,18.503C615.644,223.573,606.569,225.166,603.104,221.875z
			 M601.773,210.032c-0.038,2.745,3.642,7.546,5.789,7.555c2.134,0.01,5.83-4.537,5.899-7.256c0.11-4.357-2.654-8.22-5.943-8.302
			C604.524,201.955,601.832,205.706,601.773,210.032z"/>
		<path fill-rule="evenodd" clip-rule="evenodd" d="M498.256,202.566c2.379-1.567,2.132-5.329,5.864-6.105
			c4.485-0.934,9.094-1.789,12.742,0.992c1.904,1.452,2.711,5.004,3.033,7.724c0.568,4.797,0.46,9.683,0.466,14.531
			c0.001,1.214-0.645,2.429-1.068,3.901c-3.549-2.671-6.7-3.646-9.901-0.538c-0.153,0.148-0.468,0.129-0.705,0.193
			c-2.718,0.739-9.759-2.29-10.441-4.493c-1.543-4.991,0.161-8.896,4.934-10.778c3.29-1.297,6.691-2.309,10.677-3.664
			c-0.62-0.629-1.386-2.106-2.373-2.272c-2.478-0.418-5.154-0.886-7.183,1.522C501.814,206.53,500.081,206.226,498.256,202.566z
			 M504.48,214.05c-0.201,0.397-0.402,0.795-0.604,1.192c1.406,0.686,3.094,2.231,4.162,1.883c2.409-0.787,4.968-2.051,6.16-5.994
			C510.378,212.278,507.429,213.164,504.48,214.05z"/>
		<path fill-rule="evenodd" clip-rule="evenodd" d="M644.786,211.517c-5.438,0-10.856,0-16.276,0
			c-0.288,0.361-0.578,0.722-0.866,1.083c1.065,1.513,1.853,3.852,3.269,4.331c1.815,0.613,4.148-0.201,6.231-0.561
			c0.459-0.079,0.733-1.112,1.208-1.227c1.725-0.411,3.498-0.619,5.253-0.903c-0.249,1.947,0.186,4.462-0.874,5.737
			c-3.435,4.136-10.182,3.774-15.171,2.002c-5.144-1.827-4.965-5.72-5.584-9.281c-0.938-5.382-0.472-10.816,3.728-14.979
			c3.646-3.614,13.024-1.984,16.188,2.25C644.431,203.368,645.388,206.928,644.786,211.517z M628.271,205.06
			c3.096,0,6.192,0,9.439,0C635.542,201.088,633.618,200.97,628.271,205.06z"/>
		<path fill-rule="evenodd" clip-rule="evenodd" d="M543.987,126.225c1.503,4.278,3.064,8.723,4.749,13.516
			c3.904-2.079,3.569-6.136,4.919-9.316c0.69-1.627,1.862-3.688,3.289-4.179c1.327-0.457,3.282,0.911,4.697,1.387
			c-1.3,2.806-2.406,4.729-3.104,6.79c-2.27,6.703-4.112,13.563-6.681,20.145c-1.315,3.371-3.068,6.959-7.646,7.486
			c-2.692,0.309-3.611-1.325-3.97-3.289c-0.439-2.419,1.307-2.871,3.292-2.834c0.607,0.011,1.219-0.186,2.046-0.323
			c0.294-2.964,0.778-5.487-1.031-8.642c-2.335-4.071-3.082-9.059-4.473-13.663c-0.214-0.707-0.08-1.526-0.326-2.214
			C537.812,125.691,537.801,125.69,543.987,126.225z"/>
		<path fill-rule="evenodd" clip-rule="evenodd" d="M592.021,220.893c-4.983,0.957-9.398,2.106-13.885,2.569
			c-3.421,0.354-5.591-2.834-7.024-5.915c-3.022-6.498-0.725-13.147-1.762-19.545c5.664-2.672,6.189-2.324,6.158,3.763
			c-0.014,2.865,0.004,5.73,0.009,8.597c0.006,3.316,2.211,6.835,4.36,6.958c2.564,0.147,5.921-3.779,5.933-7.023
			c0.014-3.617,0.046-7.238-0.104-10.851c-0.101-2.418,1.56-3.13,3.236-3.065c1.616,0.062,3.209,0.686,3.143,3.189
			C591.9,206.66,592.021,213.758,592.021,220.893z"/>
		<path fill-rule="evenodd" clip-rule="evenodd" d="M546.102,210.14c-0.644-6.818,1.233-11.875,6.779-13.507
			c3.557-1.046,8.002-0.052,11.752,1.043c1.454,0.424,2.222,3.595,2.997,5.631c0.166,0.437-0.944,1.928-1.531,1.968
			c-1.313,0.089-3.335,0.021-3.881-0.786c-1.854-2.74-4.33-3.02-7.035-2.404c-2.568,0.584-3.273,2.732-3.229,5.117
			c0.042,2.186,0.039,4.395,0.396,6.538c0.11,0.665,1.286,1.562,2.047,1.639c3.565,0.366,7.123,0.438,9.869-2.569
			c1.975-2.163,3.347-0.671,3.54,1.172c0.234,2.234,0.925,5.056-2.28,6.245c-2.785,1.035-5.495,2.885-8.323,3.068
			c-6.675,0.431-10.573-3.454-11.086-10.132C546.013,211.799,546.102,210.421,546.102,210.14z"/>
		<path fill-rule="evenodd" clip-rule="evenodd" d="M638.047,128.449c-5.281,6.456-10.099,12.344-14.916,18.232
			c0.229,0.349,0.459,0.698,0.688,1.048c4.525,0,9.051,0,13.576,0c0.208,0.422,0.416,0.844,0.624,1.267
			c-0.992,0.859-1.96,2.427-2.98,2.462c-6.563,0.226-13.139,0.115-19.954,0.115c0.339-5.639,1.903-9.724,6.82-12.537
			c1.847-1.057,2.501-4.199,4.011-6.961c-2.688,0-5.033,0.267-7.265-0.119c-1.023-0.177-2.641-1.745-2.543-2.493
			c0.16-1.231,1.441-3.243,2.347-3.297c5.094-0.304,10.222-0.25,15.323-0.011C635.026,126.213,636.221,127.426,638.047,128.449z"/>
		<path fill-rule="evenodd" clip-rule="evenodd" d="M473.088,143.063c-2.842,4.519-4.233,10.053-11.658,7.806
			c1.848-3.175,3.351-6.354,5.413-9.115c1.741-2.332,2.476-4.018,0.084-6.398c-1.801-1.791-3.205-4.047-4.453-6.283
			c-0.351-0.627,0.52-2.772,0.757-2.76c1.806,0.089,3.754,0.217,5.33,0.996c1.049,0.519,1.505,2.167,2.321,3.238
			c1.822,2.391,4.14,2.063,5.475-0.604c0.686-1.37,1.448-3.276,2.611-3.677c1.28-0.441,3.061,0.568,4.623,0.945
			c-0.733,1.636-1.026,3.898-2.286,4.783c-3.122,2.191-4.515,4.938-3.497,8.405c0.544,1.857,2.304,3.364,3.547,5.004
			c0.209,0.275,0.796,0.382,0.847,0.639c0.344,1.717,1.354,3.887,0.68,5.079c-0.928,1.642-5.347,0.113-6.517-1.989
			c-0.466-0.837-0.986-1.643-1.445-2.483C474.458,145.806,474.042,144.938,473.088,143.063z"/>
		<path fill-rule="evenodd" clip-rule="evenodd" d="M246.586,295.108c1.886-3.191,3.817-6.357,5.588-9.611
			c0.188-0.347-0.766-1.184-0.848-1.837c-0.157-1.253-0.485-2.766,0.046-3.74c0.464-0.851,2.27-1.766,3.02-1.472
			c1.021,0.401,1.921,1.826,2.28,2.995c0.331,1.076,0.241,2.594-0.294,3.57c-1.838,3.354-4.248,6.416-5.898,9.849
			c-3.005,6.253-9.508,9.436-12.963,15.283c-0.497,0.841-2.44,0.827-3.714,1.21c0.214-1.023,0.251-2.13,0.687-3.047
			c0.502-1.057,1.388-1.923,2.047-2.912c0.754-1.131,2.033-2.294,2.058-3.465c0.113-5.229-0.041-10.474-0.354-15.696
			c-0.058-0.967-1.382-1.811-1.961-2.805c-0.743-1.276-1.322-2.647-1.972-3.978c1.235-0.552,2.441-1.487,3.71-1.579
			c3.287-0.238,5.378,1.327,5.692,4.804c0.279,3.095,0.521,6.193,0.858,9.281c0.1,0.91,0.465,1.791,0.708,2.686
			C245.714,294.799,246.15,294.954,246.586,295.108z"/>
		<path fill-rule="evenodd" clip-rule="evenodd" d="M118.14,302.222c2.725-1.102,5.08-2.297,7.576-2.968
			c1.404-0.376,3.9-0.5,3.474,1.877c-0.254,1.419-2.284,3.544-3.529,3.554c-2.836,0.022-4.152,1.417-4.953,3.58
			c-0.368,0.994-0.11,2.314,0.144,3.424c0.403,1.764,1.04,3.475,1.673,5.512c1.573,0,3.244,0,4.914,0
			c0.133,0.261,0.267,0.523,0.4,0.785c-2.195,1.701-4.394,4.731-6.584,4.726c-2.137-0.006-4.264-3.116-6.818-5.209
			c-1.23,1.411-2.6,3.232-4.248,4.753c-0.671,0.62-2.083,1.005-2.908,0.734c-0.813-0.267-1.642-1.428-1.834-2.33
			c-0.144-0.672,0.618-2.171,1.144-2.255c4.817-0.772,5.994-5.197,8.337-7.956c-1.104-4.205-3.044-7.771-6.848-10.411
			C114.5,298.144,116.349,298.665,118.14,302.222z"/>
		<path fill-rule="evenodd" clip-rule="evenodd" d="M307.972,153.868c0.175,5.016-2.187,7.562-7.123,7.892
			c-2.238,0.149-4.496,0.121-6.739,0.036c-2.917-0.111-3.998-2.333-2.094-4.706c2.655-3.313,5.738-6.286,8.359-9.625
			c1.026-1.307,1.298-3.207,2.193-5.577c-3.622,0.987-6.391,1.742-9.5,2.589c0.324-4.986,3.21-8.253,7.016-8.313
			c3.21-0.052,6.642-1.556,9.592,1.151c1.905,1.747,1.75,2.769-0.285,4.57c-3.084,2.729-5.613,6.088-8.373,9.184
			c-1.147,1.286-2.281,2.583-3.421,3.875c0.346,0.539,0.691,1.078,1.037,1.616C301.688,155.681,304.743,154.799,307.972,153.868z"/>
		<path fill-rule="evenodd" clip-rule="evenodd" d="M524.33,144.271c-8.981-0.219-17.16,3.008-25.399-0.597
			c0.972-4.362,4.085-4.425,6.913-3.883c3.915,0.75,7.728,0.156,11.555-0.137C520.33,139.429,522.279,140.404,524.33,144.271z"/>
		<path fill-rule="evenodd" clip-rule="evenodd" d="M599.425,133.476c0.231,2.87-0.734,4.314-3.488,4.298
			c-4.226-0.024-8.469,0.229-12.672-0.079c-2.479-0.183-4.905-1.188-7.326-1.919c-0.308-0.093-0.719-0.916-0.598-1.141
			c0.292-0.544,0.857-1.314,1.334-1.33c5.501-0.182,11.006-0.292,16.509-0.302C595.251,132.999,597.317,133.307,599.425,133.476z"/>
		<path fill-rule="evenodd" clip-rule="evenodd" d="M498.242,133.948c1.667-0.601,3.316-1.65,5.005-1.719
			c5.593-0.229,11.202-0.2,16.798-0.034c1.169,0.034,2.386,0.971,3.396,1.734c0.215,0.163-0.152,1.741-0.645,2.057
			c-1.14,0.732-2.987,1.896-3.726,1.469c-4.497-2.611-9.256-1.033-13.875-1.358c-2.249-0.159-4.49-0.419-6.735-0.634
			C498.388,134.958,498.314,134.453,498.242,133.948z"/>
		<path fill-rule="evenodd" clip-rule="evenodd" d="M575.282,141.538c3.902,0,7.498-0.005,11.093,0.001
			c3.57,0.006,7.141-1.459,10.708-0.013c0.822,0.334,1.621,0.728,2.43,1.093c-0.653,0.789-1.198,1.727-2.001,2.313
			c-0.533,0.39-1.433,0.372-2.17,0.377c-5.482,0.041-10.966,0.057-16.448,0.048C576.849,145.354,575.207,144.812,575.282,141.538z"
			/>
		<path fill-rule="evenodd" clip-rule="evenodd" d="M476.8,197.787c-0.417,1.771-0.442,3.822-1.423,5.187
			c-0.472,0.655-3.201,0.544-4.076-0.199c-0.805-0.685-1.152-3.346-0.535-3.956c1.161-1.147,3.163-1.445,4.814-2.096
			C475.986,197.077,476.394,197.432,476.8,197.787z"/>
		<path fill-rule="evenodd" clip-rule="evenodd" d="M485.783,221.142c-1.924,0-3.677,0-5.773,0c0.122-1.918,0.228-3.579,0.327-5.164
			C484.355,214.946,485.773,216.193,485.783,221.142z"/>
		<path fill-rule="evenodd" clip-rule="evenodd" d="M466.677,215.823c-0.413,1.843-0.683,3.74-1.354,5.484
			c-0.147,0.381-2.493,0.408-2.53,0.263c-0.403-1.555-0.952-3.272-0.604-4.743c0.206-0.875,1.936-1.391,2.98-2.067
			C465.672,215.114,466.175,215.469,466.677,215.823z"/>
		<path fill-rule="evenodd" clip-rule="evenodd" fill="#FFFFFF" d="M205.118,115.579c0,5.738-0.002,11.185,0.001,16.632
			c0.013,20.808-0.011,41.616,0.075,62.424c0.017,4.099-0.863,8.208,1.448,12.284c0.809,1.427-1.396,4.285-1.402,6.491
			c-0.052,20.208,0.004,40.418,0.23,60.623c0.035,3.055-1.126,3.488-3.708,3.482c-30.498-0.062-60.995-0.037-91.493-0.044
			c-20.501-0.006-41.002-0.022-61.503-0.044c-4.873-0.005-5.086-0.317-5.09-5.009c-0.018-20.487-0.151-40.975-0.128-61.462
			c0.034-30.585,0.154-61.17,0.267-91.754c0.015-4.019,1.996-5.286,5.892-4.673c2.742,0.431,5.607,0.117,8.417,0.073
			c1.613-0.025,3.227-0.286,4.836-0.253c13.969,0.287,27.936,0.729,41.905,0.898c13.152,0.159,26.307,0.045,39.461,0.045
			c18.236,0,36.472-0.013,54.708,0.003C200.88,115.298,202.728,115.463,205.118,115.579z"/>
		<path fill-rule="evenodd" clip-rule="evenodd" fill="#FFFFFF" d="M257.639,57.974c-1.399,2.35-2.028,3.979-3.136,5.157
			c-3.153,3.353-6.55,6.475-9.759,9.777c-2.677,2.755-5.375,5.513-7.79,8.492c-3.015,3.719-7.578,5.837-9.842,10.448
			c-1.184,2.412-3.919,4.07-5.979,6.041c-3.471,3.321-6.764,6.879-10.54,9.812c-1.648,1.281-4.301,1.744-6.502,1.757
			c-16.61,0.098-33.221-0.027-49.832-0.047c-28.219-0.033-56.438-0.035-84.656-0.063c-5.495-0.006-10.991-0.035-16.484-0.155
			c-0.872-0.019-1.731-0.582-2.597-0.893c0.458-0.839,0.765-1.822,1.4-2.494c2.62-2.771,5.374-5.415,8.016-8.165
			c6.78-7.057,13.498-14.175,20.298-21.213c5.117-5.294,10.129-10.719,15.599-15.628c1.86-1.668,4.964-2.705,7.514-2.73
			c21.104-0.216,42.211-0.133,63.316-0.128c28.48,0.006,56.961,0.023,85.442,0.035C253.452,57.974,254.797,57.974,257.639,57.974z"
			/>
		<path fill-rule="evenodd" clip-rule="evenodd" fill="#FFFFFF" d="M243.903,158.387c-0.449,1.492-0.899,2.984-1.583,5.259
			c1.703,0,3.975,0,6.249,0c-0.141,0.224-0.281,0.447-0.421,0.67c1.251,1,2.549,1.949,3.74,3.017c1.289,1.154,3.03,2.21,3.586,3.683
			c0.974,2.58,1.796,3.113,3.718,0.939c0.249-0.281,0.858-0.245,1.352-0.369c0.134,2.048,0.257,3.911,0.402,6.13
			c-3.002,0.008-6.088-3.715-8.939-0.072c-1.014-1.4-1.868-2.962-3.083-4.158c-1.399-1.377-3.27-1.774-4.336,0.326
			c-1.05,2.069-1.945,4.346-2.232,6.618c-0.129,1.015,1.395,2.239,2.169,3.369c1.141,0.306,2.276,0.822,3.422,0.849
			c0.845,0.02,1.703-0.601,2.556-0.936c1.055,0.47,2.21,0.795,3.148,1.437c2.192,1.501,4.267,3.442,6.64-0.393
			c0.226,0.297,0.451,0.594,0.677,0.891c-0.808,2.126-1.616,4.251-2.424,6.377c-3.197-1.856-6.013-0.647-8.765,1.088
			c-0.344,0.388-0.688,0.774-1.033,1.161c-0.85-0.009-1.699-0.018-2.549-0.025c-0.541-1.048-1.081-2.095-1.86-3.603
			c-1.674,1.477-2.944,2.596-4.213,3.715c-0.458-0.259-0.916-0.52-1.374-0.779c-1.463-3.042-3.22-5.758-6.971-6.247
			c-0.277-0.697-0.555-1.393-0.833-2.09c-0.045-0.646-0.089-1.291-0.134-1.938c0.876-0.368,2.287-0.519,2.542-1.141
			c1.855-4.535,1.036-5.885-3.864-6.96c0.03-0.364,0.059-0.727,0.088-1.09c0.462-0.594,1.403-1.283,1.308-1.768
			c-0.557-2.828-1.356-5.607-2.075-8.403c-1.071-0.605-2.085-1.533-3.228-1.737c-1.602-0.286-3.01-0.333-2.533-2.528
			c-0.104-1.08-0.209-2.159-0.314-3.239c2.062-1.088,4.124-2.176,6.038-3.187c-1.409-2.112-2.553-3.829-3.698-5.546l-0.086,0.114
			c1.154,0.126,2.307,0.252,3.695,0.404c0.521-0.915,1.233-2.162,1.438-2.521c-0.591-1.971-0.936-3.117-1.279-4.262
			c3.705-2.777,3.79-3.88,0.586-7.48c0.831-1.48,1.664-2.961,3.014-5.366c1.188,3.138,1.907,5.039,2.774,7.33
			c1.011-0.68,1.842-1.238,2.195-1.476c1.517,0.43,2.65,0.751,3.784,1.072c0.478,2.489,0.956,4.979,1.6,8.334
			c1.728,0.143,4.374,0.363,7.019,0.583c0.796,0.622,1.591,1.243,2.387,1.864c2.777-1.247,5.555-2.494,8.491-3.813
			c0,6.421,0,13.309,0,20.196c-0.332,0.094-0.664,0.187-0.996,0.281c-0.239-1.054-0.649-2.104-0.672-3.163
			c-0.028-1.339,0.525-2.721,0.35-4.019c-0.264-1.953-1.416-2.424-3.21-1.298c-1.048,0.658-2.286,1.012-3.439,1.504l0.097,0.078
			c0.398-3.473-1.184-4.398-4.589-4.675c-4.13-0.336-3.125,2.822-4.129,4.662C244.04,156.833,243.972,157.61,243.903,158.387z"/>
		<path fill-rule="evenodd" clip-rule="evenodd" fill="#FFFFFF" d="M214.237,224.204c-0.863-1.216-1.726-2.433-2.699-3.806
			c1.824-1.782,2.758-3.825-0.372-5.767c1.125-0.973,2.224-1.925,3.463-2.998c0.575,0.678,1.148,1.354,1.722,2.032
			c0.331-0.299,0.662-0.597,0.994-0.895c-1.049-1.146-2.26-2.187-3.103-3.468c-0.955-1.453-1.577-3.122-2.587-5.197
			c0.21-0.245,0.777-0.908,1.344-1.57c-2.459-3.485-2.465-4.052,0.108-5.922c-3.98-2.672,1.175-3.877,0.924-6.039
			c1.97,0.815,3.956,2.234,5.84-0.157c0.979,1.06,1.959,2.119,2.939,3.179c0.781,0.698,1.484,1.848,2.362,2.003
			c1.895,0.335,3.88,0.16,5.828,0.193c1.641,1.75,3.779,3.322,2.226,6.216c-1.228,1.035-2.456,2.069-3.683,3.104
			c-1.346-0.316-2.867-0.339-4.001-1.013c-2.423-1.439-3.371-0.703-3.553,1.845c0.79,2.178,1.58,4.354,2.37,6.532
			c-1.397,2.64-2.794,5.278-4.19,7.918c-0.479,0.523-0.958,1.047-1.436,1.57C217.236,222.712,215.736,223.458,214.237,224.204z"/>
		<path fill-rule="evenodd" clip-rule="evenodd" fill="#FFFFFF" d="M229.544,205.112c1.227-1.034,2.455-2.068,3.683-3.104
			c0.644-1.29,1.762-2.56,1.823-3.878c0.097-2.088-0.514-4.209-0.793-6.089c1.616,0.555,3.056,1.047,4.494,1.54
			c0.458,0.26,0.916,0.521,1.374,0.779c-0.001,1.255-0.188,2.545,0.043,3.755c0.322,1.688,0.772,3.412,1.563,4.913
			c0.266,0.504,1.739,0.372,2.66,0.531c0.925,0.096,1.849,0.19,3.188,0.328c-1.155,1.467-1.823,2.314-2.49,3.162
			c0.216,0.325,0.432,0.649,0.648,0.974c1.06-0.46,2.136-0.888,3.174-1.393c0.816-0.396,1.586-0.89,2.376-1.34
			c1.727,0.727,3.453,1.454,5.512,2.322c0.502-0.403,1.861-1.497,3.578-2.878c1.565,4.577-1.601,5.688-3.405,7.538
			c-1.529,0.501-3.077,1.002-4.625,1.502c-0.852-1.381-1.703-2.762-2.813-4.563c-0.646,0.257-1.704,0.454-2.491,1.025
			c-3.815,2.763-2.489,6.642-2.091,10.304c-2.269,0.574-4.857,2.149-5.672-1.786c-0.001-0.996-0.003-2.022-0.004-3.048
			c0-0.785,0-1.57,0-2.355c-2.237-1.095-4.778-1.733-5.503-4.741c-0.164-0.682-1.519-1.075-2.326-1.602
			C230.813,206.378,230.178,205.745,229.544,205.112z"/>
		<path fill-rule="evenodd" clip-rule="evenodd" fill="#FFFFFF" d="M256.342,118.652c-2.067-1.471-2.952-0.597-3.476,1.574
			c-0.312,1.292-1.04,2.483-1.581,3.719c-1.498-0.331-2.997-0.66-4.491-0.987c-1.771-0.089-3.546-0.18-5.322-0.271
			c-1.12,0.022-2.263,0.195-3.354,0.026c-1.277-0.197-2.509-0.69-3.761-1.056c0.356-3.777,3.138-4.269,7.08-4.289
			c-0.835-2.318-1.491-4.138-2.147-5.958c0.797-2.351,1.594-4.703,2.391-7.055c0.42-0.059,0.841-0.117,1.261-0.175
			c2.955-1.535,5.229,0.271,7.61,1.551c1.404,2.473,2.808,4.945,4.295,7.564C252.862,115.377,255.768,116.777,256.342,118.652z"/>
		<path fill-rule="evenodd" clip-rule="evenodd" fill="#FFFFFF" d="M240.752,235.598c0.843,0.824,1.687,1.647,2.644,2.583
			c-0.716,4.533-1.941,5.021-6.184,3.783c-1.389-0.405-3.443,1.467-5.667,2.522c-2.341-2.126-5.366-4.875-8.734-7.935
			c2.334-1.055,2.559-4.979,5.824-2.229c2.433-5.337-5.583-2.145-4.532-6.167c0.709-2.617,1.888-4.969,5.408-4.776
			c0.303,0.016,0.657-0.907,0.987-1.394c1.407-0.322,2.814-0.645,4.222-0.967c-0.754,5.167-1.508,10.332-2.348,16.086
			c0.115,0.104,1.054,0.958,1.571,1.428C236.395,237.475,238.574,236.536,240.752,235.598z"/>
		<path fill-rule="evenodd" clip-rule="evenodd" d="M234.358,121.658c1.252,0.365,2.483,0.858,3.761,1.056
			c1.091,0.168,2.234-0.004,3.354-0.026c-1.771,2.893-3.542,5.785-5.282,8.626c1.852,0.495,3.956,1.057,6.061,1.619
			c-0.351,0.864-0.701,1.728-1.051,2.592c-1.134-0.321-2.267-0.642-3.784-1.072c-0.353,0.238-1.184,0.796-2.195,1.476
			c-0.867-2.291-1.586-4.192-2.774-7.33c-1.351,2.405-2.183,3.886-3.014,5.366c-2.476-0.791-4.949-1.582-7.424-2.373
			c2.244-2.479,4.488-4.958,6.731-7.437c1.884-0.729,3.17-1.694,1.526-3.829c1.399,0.413,2.798,0.826,4.196,1.239L234.358,121.658z"
			/>
		<path fill-rule="evenodd" clip-rule="evenodd" fill="#FFFFFF" d="M222.739,156.441c0.104,1.08,0.209,2.16,0.313,3.239
			c-0.065,1.971-0.13,3.94-0.193,5.911c-0.123,0.564-0.244,1.128-0.366,1.692c-1.747-0.241-3.494-0.482-5.241-0.723
			c-0.038-1.17-0.536-2.628-0.021-3.453c1.15-1.843,2.439-8.784,1.363-10.403c-0.357-0.538-1.129-0.927-1.789-1.116
			c-3.894-1.113-4.127-1.555-2.722-6.016c1.328,0.655,2.619,1.777,3.936,1.809c1.375,0.032,2.776-0.984,4.163-1.542
			c-0.024-0.101,0.032-0.202,0.166-0.302c0.882,0.762,1.763,1.524,2.645,2.286l0.086-0.114c-0.474,0.658-1.48,1.732-1.341,1.91
			C225.839,152.306,223.167,154.205,222.739,156.441z"/>
		<path fill-rule="evenodd" clip-rule="evenodd" fill="#FFFFFF" d="M217.252,166.561c1.747,0.241,3.494,0.482,5.239,0.722
			c2.361,2.277,4.726,4.556,7.09,6.833c-0.029,0.363-0.059,0.727-0.088,1.09c-0.188,1.38-0.377,2.761-0.565,4.141
			c-1.312-0.163-2.625-0.326-3.937-0.488c-0.572-0.116-1.145-0.232-1.718-0.349c-1.407-0.223-2.911-0.211-4.186-0.746
			c-0.875-0.367-1.434-1.492-2.134-2.278c0.551-0.335,1.101-0.669,1.651-1.004c-0.332-0.415-0.664-0.829-0.995-1.244
			c-0.693-0.587-1.386-1.173-2.078-1.759c-0.05-0.127-0.094-0.253-0.131-0.377C214.065,168.792,214.402,167.165,217.252,166.561z"/>
		<path fill-rule="evenodd" clip-rule="evenodd" fill="#FFFFFF" d="M252.205,146.304c-0.795-0.621-1.591-1.243-2.387-1.864
			c-0.441-0.853-0.705-1.896-1.364-2.517c-1.215-1.143-2.766-1.926-3.992-3.059c-2.189-2.023-1.763-4.543,0.895-6.098
			c0.429,0.045,0.858,0.091,1.287,0.136c1.434,0.374,2.867,0.748,4.3,1.122c0.514,0.107,1.028,0.214,1.542,0.321
			c0.65,0.064,1.299,0.128,1.948,0.191c0.554,0.442,1.109,0.884,1.664,1.327C258.64,140.775,255.044,143.399,252.205,146.304z"/>
		<path fill-rule="evenodd" clip-rule="evenodd" fill="#FFFFFF" d="M234.719,221.019c-1.407,0.322-2.814,0.645-4.222,0.967
			c-0.561-2.256-1.123-4.512-1.684-6.769c-0.281-0.909-0.563-1.818-0.843-2.727c0.524-0.967,1.049-1.933,1.574-2.899
			c0.634-0.86,1.269-1.721,1.904-2.581c0.806,0.526,2.161,0.92,2.325,1.602c0.725,3.008,3.266,3.646,5.503,4.741
			c0,0.785,0,1.57,0,2.355c0.001,1.025,0.002,2.052,0.004,3.048c0,1.38,0.001,2.789,0.002,4.199
			C237.761,222.309,236.24,221.664,234.719,221.019z"/>
		<path fill-rule="evenodd" clip-rule="evenodd" fill="#FFFFFF" d="M253.607,84.1c-0.822-1.16-1.646-2.319-3.092-4.358
			c-1.689-6.915,6.086-8.85,10.489-13.543c0,4.581-0.135,9.167,0.051,13.741c0.11,2.712-0.704,4.498-3.374,5.262
			c0.214-2.973,0.735-5.974,0.446-8.894c-0.085-0.853-2.483-1.475-3.821-2.203c-0.293,0.329-0.586,0.658-0.878,0.986
			c3.553,0.843,4.582,2.839,2.954,5.691c-0.696,1.219-1.918,2.138-2.901,3.193L253.607,84.1z"/>
		<path fill-rule="evenodd" clip-rule="evenodd" d="M250.553,105.731c-2.381-1.28-4.655-3.085-7.589-1.556
			c2.28-1.911,4.65-3.705,6.736-5.785c0.706-0.703,1.216-2.348,0.871-3.163c-0.407-0.965-1.836-1.498-2.823-2.217
			c1.51-0.407,3.025-0.792,4.527-1.229c1.44-0.417,2.865-0.887,4.297-1.334c1.718,0.555,3.248,1.046,2.238,3.54
			c-0.446,1.102-0.021,2.557,0.008,3.852c-2.945,0.797-5.506,2.01-5.956,5.506C252.092,104.14,251.322,104.936,250.553,105.731z"/>
		<path fill-rule="evenodd" clip-rule="evenodd" fill="#FFFFFF" d="M222.348,145.537c-0.134,0.1-0.19,0.201-0.166,0.302
			c-0.552-1.868-4.853-2.446-1.917-5.509c2.511-2.215,1.673-4.187-0.481-6.06c0.742-0.893,1.483-1.786,2.225-2.679
			c2.475,0.791,4.948,1.582,7.424,2.373c3.204,3.601,3.118,4.703-0.586,7.482C226.68,142.811,224.514,144.174,222.348,145.537z"/>
		<path fill-rule="evenodd" clip-rule="evenodd" d="M234.719,221.019c1.521,0.646,3.042,1.29,4.563,1.937
			c0,0-0.001,0.158-0.001,0.158c-0.986,0.36-1.972,0.72-3.373,1.231c1.741,2.532,3.32,4.827,4.898,7.121
			c-0.019,1.377-0.036,2.754-0.054,4.132c-2.178,0.938-4.357,1.877-6.81,2.935c-0.517-0.47-1.456-1.323-1.571-1.428
			C233.211,231.351,233.965,226.186,234.719,221.019z"/>
		<path fill-rule="evenodd" clip-rule="evenodd" fill="#FFFFFF" d="M223.273,178.51c0.573,0.116,1.146,0.232,1.718,0.349
			c-0.106,4.079,1.879,6.208,5.957,6.386c0.277,0.697,0.555,1.393,0.833,2.09c-2.104,0.862-3.502,2.038-1.993,4.5
			c-2.326,0.588-4.651,1.175-6.977,1.763c-0.979-1.06-1.959-2.119-2.94-3.18c-0.025-0.276-0.05-0.553-0.075-0.829
			c0.211-1.772,0.423-3.544,0.667-5.6C224.385,183.961,222.164,180.361,223.273,178.51z"/>
		<path fill-rule="evenodd" clip-rule="evenodd" fill="#FFFFFF" d="M252.347,213.775c1.548-0.5,3.096-1.001,4.625-1.502
			c1.916,1.436,4.551,2.897,3.826,5.518c-0.405,1.464-2.962,2.306-4.498,3.494c-0.787,0.608-1.463,1.362-1.825,1.705
			c-1.448-0.58-2.719-1.091-3.99-1.6C251.105,218.852,251.726,216.313,252.347,213.775z"/>
		<path fill-rule="evenodd" clip-rule="evenodd" fill="#FFFFFF" d="M247.748,93.011c0.987,0.719,2.416,1.252,2.823,2.217
			c0.345,0.815-0.166,2.46-0.871,3.163c-2.086,2.08-4.457,3.874-6.736,5.785c-0.441,0.063-0.861,0.122-1.282,0.18
			c-0.119-0.092-0.233-0.186-0.346-0.284c-0.486-3.109-0.972-6.219-1.458-9.328c2.424-0.691,4.354-3.502,7.344-1.716
			C247.365,93.014,247.544,93.008,247.748,93.011z"/>
		<path fill-rule="evenodd" clip-rule="evenodd" fill="#FFFFFF" d="M247.748,93.011c-0.204-0.003-0.383,0.003-0.525,0.018
			c-1.423-1.925-2.858-3.851-4.506-6.063c2.027-0.849,3.137-2.912,5.26-0.865c0.299,0.289,1.838-0.757,2.828-1.121
			c0.917-0.338,1.867-0.59,2.802-0.88l-0.125-0.124c0.343,3.474,2.259,2.195,4.036,1.337c-0.315,1.712-0.631,3.423-0.946,5.135
			c-1.432,0.447-2.857,0.917-4.297,1.334C250.773,92.218,249.257,92.604,247.748,93.011z"/>
		<path fill-rule="evenodd" clip-rule="evenodd" d="M252.347,213.775c-0.621,2.538-1.242,5.076-1.862,7.615
			c-1.844-0.283-3.688-0.566-5.532-0.849c-0.398-3.662-1.725-7.541,2.091-10.304c0.788-0.571,1.845-0.769,2.491-1.025
			C250.644,211.014,251.495,212.395,252.347,213.775z"/>
		<path fill-rule="evenodd" clip-rule="evenodd" fill="#FFFFFF" d="M220.883,243.371c-2.29-2.532-4.722-2.975-7.38,0.578
			c-0.609-4.021-1.058-6.99-1.512-9.989c4.702-1.423,5.688-0.841,6.995,3.456c0.342,1.127,1.812,1.911,3.046,3.133
			c-0.275,0.658-0.739,1.768-1.203,2.877L220.883,243.371z"/>
		<path fill-rule="evenodd" clip-rule="evenodd" d="M250.553,105.731c0.77-0.795,1.54-1.591,2.31-2.386
			c3.112,0.174,3.712,2.393,3.627,4.828c-0.074,2.109,0.616,3.317,2.724,3.629c-0.398,2.529,1.447,6.014-2.896,6.85
			c-0.55-1.875-3.456-3.276-1.47-5.358C253.36,110.676,251.957,108.204,250.553,105.731z"/>
		<path fill-rule="evenodd" clip-rule="evenodd" d="M234.358,121.658l0.105-0.094c0-1.842,0-3.685,0-6.026
			c-0.951,0.089-2.198,0.206-3.444,0.323c-1.99-2.266-1.958-4.644-0.395-7.106c0.013,2.595,1.552,3.363,3.854,3.219l-0.102,0.003
			c1.638-0.188,3.277-0.377,4.915-0.566c0.656,1.82,1.312,3.64,2.147,5.958C237.496,117.389,234.714,117.881,234.358,121.658z"/>
		<path fill-rule="evenodd" clip-rule="evenodd" fill="#FFFFFF" d="M244.526,183.8c-0.774-1.13-2.298-2.354-2.169-3.369
			c0.287-2.272,1.182-4.549,2.232-6.618c1.066-2.1,2.937-1.703,4.336-0.326c1.214,1.196,2.069,2.758,3.083,4.158
			c-0.729,0.883-1.46,1.766-2.189,2.637C247.109,178.959,245.551,179.999,244.526,183.8z"/>
		<path fill-rule="evenodd" clip-rule="evenodd" fill="#FFFFFF" d="M259.214,111.803c-2.108-0.313-2.798-1.521-2.724-3.629
			c0.085-2.435-0.515-4.654-3.627-4.828c0.45-3.496,3.011-4.709,5.956-5.506c0.877,1.712,1.754,3.423,2.797,5.457
			c-1.749,0.44-2.743,0.689-4.479,1.126c1.648,0.852,2.634,1.36,3.245,1.676C259.956,108.176,259.585,109.989,259.214,111.803z"/>
		<path fill-rule="evenodd" clip-rule="evenodd" fill="#FFFFFF" d="M214.237,224.204c1.5-0.746,2.999-1.492,4.498-2.239
			c0.793,2.052,1.717,4.065,2.312,6.172c0.211,0.751-0.498,2.5-0.575,2.487c-2.37-0.384-4.815-0.701-6.966-1.663
			C213.118,228.788,213.961,225.86,214.237,224.204z"/>
		<path fill-rule="evenodd" clip-rule="evenodd" fill="#FFFFFF" d="M219.784,134.27c2.154,1.873,2.992,3.844,0.481,6.06
			c-1.41,0.117-3.057,0.753-4.215,0.255c-1.632-0.703-3.783-1.755-2.627-4.245C215.603,135.63,217.693,134.95,219.784,134.27z"/>
		<path fill-rule="evenodd" clip-rule="evenodd" fill="#FFFFFF" d="M243.903,158.387c0.068-0.777,0.136-1.555,0.205-2.331
			c2.906,0.004,5.812,0.009,8.718,0.013l-0.097-0.078c1.141,2.79-0.405,4.861-2.533,5.758
			C247.224,163.001,245.649,160.22,243.903,158.387z"/>
		<path fill-rule="evenodd" clip-rule="evenodd" fill="#FFFFFF" d="M239.291,111.41c-1.638,0.189-3.276,0.378-4.915,0.564
			c-0.732-1.224,2.76-3.091-0.598-3.909c0.741-1.273,1.481-2.547,2.461-4.229c0.633,0,1.776,0,2.918,0
			c0.726,0.079,1.452,0.158,2.179,0.236c0.112,0.098,0.227,0.192,0.346,0.284C240.885,106.707,240.088,109.059,239.291,111.41z"/>
		<path fill-rule="evenodd" clip-rule="evenodd" d="M219.79,121.792c-1.697,1.563-3.355,3.176-5.146,4.623
			c-0.212,0.171-1.675-0.552-1.685-0.888c-0.083-2.617,0.048-5.241,0.112-7.863c0.86,0.309,2.443,0.57,2.466,0.932
			C215.723,121.459,218.235,120.952,219.79,121.792z"/>
		<path fill-rule="evenodd" clip-rule="evenodd" d="M250.944,134.023c-1.433-0.374-2.866-0.748-4.3-1.122
			c0.022-3.142-1.388-6.379,0.615-9.401c0.036-0.055-0.304-0.358-0.469-0.545c1.498,0.33,2.997,0.66,4.495,0.99
			c0.009,0.719,0.017,1.438,0.026,2.158C251.189,128.743,251.067,131.383,250.944,134.023z"/>
		<path fill-rule="evenodd" clip-rule="evenodd" fill="#FFFFFF" d="M255.967,196.492c-0.964,1.482-1.919,2.971-2.898,4.445
			c-0.575,0.866-1.188,1.709-1.784,2.563c-2.644-0.356-2.366-2.216-2.097-4.072c0.199-1.137,0.397-2.273,0.595-3.41
			c0.368-0.581,0.736-1.162,1.104-1.743c1.706,0.716,3.411,1.433,5.116,2.148L255.967,196.492z"/>
		<path fill-rule="evenodd" clip-rule="evenodd" fill="#FFFFFF" d="M219.79,121.792c-1.555-0.841-4.067-0.333-4.252-3.196
			c-0.023-0.362-1.606-0.623-2.466-0.932c0.61-3.539,3.55-3.151,6.013-3.568l-0.103-0.136c0.261,0.521,0.521,1.042,0.781,1.562
			C219.771,117.613,219.78,119.703,219.79,121.792z"/>
		<path fill-rule="evenodd" clip-rule="evenodd" fill="#FFFFFF" d="M227.97,212.49c0.281,0.908,0.562,1.817,0.843,2.727
			c-1.963-0.081-3.036,0.62-3.509,2.768c-0.598,2.715-2.758,3.543-5.144,2.42c1.406-2.649,2.803-5.288,4.199-7.927
			C225.563,212.481,226.767,212.485,227.97,212.49z"/>
		<path fill-rule="evenodd" clip-rule="evenodd" d="M257.518,85.313c-1.777,0.858-3.693,2.137-4.036-1.337
			c0.983-1.055,2.206-1.974,2.901-3.193c1.628-2.853,0.599-4.849-2.954-5.691c0.292-0.329,0.585-0.658,0.878-0.986
			c1.337,0.728,3.736,1.35,3.821,2.203c0.289,2.92-0.232,5.921-0.446,8.894C257.68,85.203,257.518,85.313,257.518,85.313z"/>
		<path fill-rule="evenodd" clip-rule="evenodd" fill="#FFFFFF" d="M219.796,189.588c0.025,0.276,0.05,0.553,0.075,0.829
			c-1.883,2.393-3.87,0.974-5.839,0.158c-0.322-1.612-0.644-3.224-0.966-4.835c0.34-0.265,0.68-0.529,1.019-0.795
			C215.988,186.492,217.892,188.04,219.796,189.588z"/>
		<path fill-rule="evenodd" clip-rule="evenodd" fill="#FFFFFF" d="M256.003,196.423c-1.706-0.716-3.411-1.433-5.117-2.148
			c-0.369-0.388-0.738-0.775-1.106-1.163c2.751-1.734,5.568-2.943,8.765-1.087c-0.011,1.5-0.021,3.001-0.032,4.5
			C257.676,196.491,256.84,196.457,256.003,196.423z"/>
		<path fill-rule="evenodd" clip-rule="evenodd" fill="#FFFFFF" d="M241.336,104.072c-0.727-0.078-1.453-0.157-2.179-0.236
			c-0.735-3.109-2.771-6.319,0.715-9.096C240.364,97.853,240.85,100.962,241.336,104.072z"/>
		<path fill-rule="evenodd" clip-rule="evenodd" fill="#FFFFFF" d="M240.806,231.466c-1.578-2.294-3.157-4.589-4.898-7.121
			c1.401-0.512,2.387-0.871,3.373-1.231c1.147,0.293,2.295,0.587,3.085,0.789C241.819,226.551,241.313,229.008,240.806,231.466z"/>
		<path fill-rule="evenodd" clip-rule="evenodd" d="M249.188,199.428c-0.269,1.856-0.546,3.716,2.097,4.072
			c0.001,0.597,0.001,1.193,0.001,1.791c-0.79,0.45-1.56,0.943-2.376,1.34c-1.038,0.505-2.115,0.933-3.174,1.393
			c-0.216-0.324-0.432-0.648-0.648-0.974c0.667-0.848,1.335-1.695,2.49-3.162c-1.339-0.138-2.263-0.232-3.188-0.328
			c0.049-1.346,0.098-2.692,0.146-4.037c0.05,2.83,1.189,2.793,2.986,1.154C248.033,200.212,248.631,199.842,249.188,199.428z"/>
		<path fill-rule="evenodd" clip-rule="evenodd" fill="#FFFFFF" d="M256.098,135.863c-0.554-0.442-1.11-0.885-1.664-1.327
			c1.081-0.804,2.16-1.608,3.239-2.413c1.225,2.158,2.449,4.316,3.673,6.474c-0.486,0.365-0.974,0.729-1.46,1.093
			C258.624,138.414,257.361,137.139,256.098,135.863z"/>
		<path fill-rule="evenodd" clip-rule="evenodd" fill="#FFFFFF" d="M256.003,196.423c0.836,0.034,1.673,0.068,2.509,0.102
			c0.789,1.913,1.577,3.825,2.464,5.976c-6.087-1.691-6.113-1.726-5.009-6.006C255.967,196.492,256.003,196.423,256.003,196.423z"/>
		<path fill-rule="evenodd" clip-rule="evenodd" fill="#FFFFFF" d="M231.019,115.861c1.246-0.117,2.493-0.234,3.444-0.323
			c0,2.341,0,4.184,0,6.026c-1.398-0.413-2.797-0.826-4.177-1.212c-0.238-0.78-0.496-1.587-0.753-2.395
			C230.028,117.258,230.523,116.559,231.019,115.861z"/>
		<path fill-rule="evenodd" clip-rule="evenodd" d="M244.526,183.8c1.025-3.801,2.583-4.841,5.292-3.519
			c0.229,1.151,0.457,2.291,0.687,3.432c-0.853,0.335-1.711,0.955-2.556,0.936C246.802,184.622,245.667,184.105,244.526,183.8z"/>
		<path fill-rule="evenodd" clip-rule="evenodd" fill="#FFFFFF" d="M250.944,134.023c0.123-2.64,0.245-5.28,0.367-7.92
			c1.185,0.078,2.369,0.155,3.333,0.218c-0.749,2.783-1.453,5.403-2.157,8.022C251.972,134.238,251.458,134.131,250.944,134.023z"/>
		<path fill-rule="evenodd" clip-rule="evenodd" fill="#FFFFFF" d="M210.761,253.78c1.615-0.911,2.98-1.681,4.346-2.45
			c0.234,1.914,0.468,3.828,0.701,5.742c-0.35,0.098-0.7,0.193-1.05,0.291C213.622,256.345,212.485,255.326,210.761,253.78z"/>
		<path fill-rule="evenodd" clip-rule="evenodd" fill="#FFFFFF" d="M229.533,117.957c0.257,0.807,0.515,1.614,0.753,2.395
			c1.625,2.108,0.338,3.074-1.545,3.803c-0.381-0.943-0.669-1.938-1.168-2.813c-0.466-0.818-1.154-1.51-2.301-2.96
			C227.146,118.194,228.339,118.076,229.533,117.957z"/>
		<path fill-rule="evenodd" clip-rule="evenodd" fill="#FFFFFF" d="M226.915,249.792c2.5-0.946,4.333-1.641,6.317-2.393
			C233.362,251.686,231.699,252.358,226.915,249.792z"/>
		<path fill-rule="evenodd" clip-rule="evenodd" fill="#FFFFFF" d="M220.829,243.426c1.358-0.725,2.716-1.448,4.075-2.173
			c0.182,0.263,0.363,0.524,0.545,0.786c-0.564,0.605-1.128,1.21-1.893,2.029c0.334,0.363,0.85,0.7,1.025,1.165
			c0.239,0.638,0.219,1.372,0.311,2.065c-0.577-0.267-1.311-0.394-1.697-0.828c-0.854-0.959-1.531-2.072-2.296-3.11
			C220.883,243.371,220.829,243.426,220.829,243.426z"/>
		<path fill-rule="evenodd" clip-rule="evenodd" fill="#FFFFFF" d="M213.803,271.896c-0.855-1.468-1.711-2.934-2.567-4.4
			c1.015-0.188,2.697-0.822,2.924-0.482c0.776,1.16,1.042,2.662,1.501,4.033C215.042,271.329,214.423,271.612,213.803,271.896z"/>
		<path fill-rule="evenodd" clip-rule="evenodd" fill="#FFFFFF" d="M245.508,234.036c1.485-1.111,2.97-2.222,4.455-3.333
			c0.386,0.539,0.77,1.077,1.155,1.616c-1.543,1.094-3.087,2.188-4.631,3.282C246.162,235.08,245.835,234.558,245.508,234.036z"/>
		<path fill-rule="evenodd" clip-rule="evenodd" fill="#FFFFFF" d="M234.478,111.974c-2.301,0.145-3.841-0.624-3.854-3.219
			c1.083-0.252,2.167-0.504,3.25-0.757C234.076,109.323,234.276,110.648,234.478,111.974z"/>
		<path fill-rule="evenodd" clip-rule="evenodd" fill="#FFFFFF" d="M215.402,171.102c0.037,0.124,0.081,0.25,0.131,0.377
			c-0.48,0.571-0.96,1.142-1.44,1.713c-0.243-0.448-0.485-0.895-0.727-1.343C214.044,171.601,214.723,171.351,215.402,171.102z"/>
		<path fill-rule="evenodd" clip-rule="evenodd" fill="#FFFFFF" d="M217.611,173.238c0.331,0.415,0.663,0.829,0.995,1.244
			c-0.551,0.335-1.101,0.669-1.651,1.004C217.173,174.736,217.392,173.987,217.611,173.238z"/>
		<path fill-rule="evenodd" clip-rule="evenodd" fill="#FFFFFF" d="M219.084,114.097c0.435-0.756,0.869-1.512,1.302-2.268
			c0.314,0.788,0.628,1.576,0.941,2.364c-0.782-0.078-1.564-0.154-2.347-0.232L219.084,114.097z"/>
		<path fill-rule="evenodd" clip-rule="evenodd" d="M234.478,111.974c-0.201-1.325-0.402-2.65-0.603-3.976
			c0,0.001-0.096,0.067-0.096,0.067c3.358,0.818-0.135,2.686,0.598,3.909C234.376,111.977,234.478,111.974,234.478,111.974z"/>
		<path fill-rule="evenodd" clip-rule="evenodd" d="M218.981,113.96c0.782,0.078,1.564,0.154,2.347,0.232
			c-0.522,0.443-1.044,0.886-1.566,1.33C219.501,115.002,219.242,114.481,218.981,113.96z"/>
		<path fill-rule="evenodd" clip-rule="evenodd" fill="#FFFFFF" d="M601.773,210.032c0.059-4.326,2.751-8.077,5.745-8.003
			c3.289,0.082,6.054,3.944,5.943,8.302c-0.069,2.719-3.766,7.266-5.899,7.256C605.415,217.578,601.735,212.777,601.773,210.032z"/>
		<path fill-rule="evenodd" clip-rule="evenodd" fill="#FFFFFF" d="M504.48,214.05c2.948-0.886,5.897-1.771,9.718-2.919
			c-1.192,3.943-3.751,5.207-6.16,5.994c-1.068,0.349-2.756-1.197-4.162-1.883C504.078,214.845,504.279,214.447,504.48,214.05z"/>
		<path fill-rule="evenodd" clip-rule="evenodd" fill="#FFFFFF" d="M628.271,205.06c5.347-4.09,7.271-3.972,9.439,0
			C634.464,205.06,631.367,205.06,628.271,205.06z"/>
		<path fill-rule="evenodd" clip-rule="evenodd" d="M229.788,191.834c-1.509-2.462-0.11-3.638,1.993-4.5
			c3.75,0.489,5.507,3.205,6.971,6.247c-1.438-0.493-2.878-0.985-4.494-1.54c0.279,1.88,0.89,4.001,0.793,6.089
			c-0.061,1.318-1.18,2.588-1.823,3.878c1.553-2.893-0.585-4.465-2.226-6.215C230.596,194.474,230.192,193.154,229.788,191.834z"/>
		<path fill-rule="evenodd" clip-rule="evenodd" fill="#FFFFFF" d="M244.537,199.522c-0.048,1.345-0.097,2.691-0.146,4.037
			c-0.921-0.159-2.395-0.027-2.66-0.531c-0.791-1.501-1.24-3.226-1.563-4.913c-0.231-1.21-0.045-2.5-0.043-3.755
			c1.27-1.119,2.539-2.238,4.213-3.715c0.779,1.508,1.319,2.555,1.859,3.603C245.644,196.006,245.091,197.764,244.537,199.522z"/>
		<path fill-rule="evenodd" clip-rule="evenodd" fill="#FFFFFF" d="M229.581,174.116c-2.364-2.277-4.729-4.556-7.09-6.833
			c0.124-0.563,0.245-1.127,0.368-1.691c0.765-0.247,1.522-0.523,2.298-0.733c1.212-0.328,2.438-0.611,3.657-0.913
			c0.718,2.795,1.518,5.575,2.075,8.403C230.984,172.833,230.043,173.522,229.581,174.116z"/>
		<path fill-rule="evenodd" clip-rule="evenodd" d="M245.357,132.766c-2.658,1.555-3.084,4.075-0.895,6.098
			c1.226,1.133,2.777,1.917,3.992,3.059c0.66,0.621,0.923,1.665,1.364,2.517c-2.646-0.22-5.291-0.439-7.019-0.583
			c-0.644-3.355-1.122-5.845-1.6-8.334c0.35-0.864,0.7-1.728,1.051-2.592C243.287,132.876,244.322,132.821,245.357,132.766z"/>
		<path fill-rule="evenodd" clip-rule="evenodd" d="M252.826,156.069c-2.906-0.004-5.812-0.009-8.718-0.013
			c1.004-1.84-0.001-4.998,4.129-4.662C251.642,151.671,253.224,152.597,252.826,156.069z"/>
		<path fill-rule="evenodd" clip-rule="evenodd" d="M228.928,179.347c0.188-1.38,0.376-2.761,0.565-4.141
			c4.899,1.075,5.719,2.425,3.864,6.96c-0.255,0.622-1.666,0.772-2.541,1.143C230.187,181.989,229.557,180.668,228.928,179.347z"/>
		<path fill-rule="evenodd" clip-rule="evenodd" d="M222.348,145.537c2.167-1.363,4.333-2.727,6.499-4.091
			c0.344,1.144,0.688,2.29,1.279,4.261c-0.205,0.359-0.917,1.605-1.438,2.521c-1.388-0.152-2.541-0.278-3.695-0.404
			C224.111,147.062,223.229,146.299,222.348,145.537z"/>
		<path fill-rule="evenodd" clip-rule="evenodd" fill="#FFFFFF" d="M244.537,199.522c0.554-1.759,1.107-3.517,1.661-5.274
			c0.851,0.008,1.7,0.017,2.55,0.025c0.345,0.582,0.691,1.162,1.036,1.744c-0.198,1.137-0.396,2.273-0.595,3.41
			c-0.557,0.414-1.155,0.784-1.666,1.249C245.726,202.315,244.587,202.353,244.537,199.522z"/>
		<path fill-rule="evenodd" clip-rule="evenodd" d="M228.928,179.347c0.629,1.321,1.259,2.643,1.888,3.962
			c0.044,0.645,0.088,1.29,0.133,1.936c-4.078-0.178-6.063-2.307-5.957-6.386C226.303,179.021,227.616,179.184,228.928,179.347z"/>
		<path fill-rule="evenodd" clip-rule="evenodd" d="M222.739,156.441c0.428-2.236,3.101-4.136,0.999-6.823
			c-0.139-0.177,0.867-1.252,1.341-1.91c1.145,1.717,2.289,3.434,3.698,5.546C226.863,154.265,224.801,155.354,222.739,156.441z"/>
		<path fill-rule="evenodd" clip-rule="evenodd" d="M228.814,163.945c-1.219,0.302-2.445,0.585-3.657,0.913
			c-0.776,0.209-1.533,0.486-2.298,0.733c0.063-1.97,0.128-3.94,0.193-5.911c-0.476,2.195,0.932,2.242,2.534,2.528
			C226.729,162.412,227.743,163.34,228.814,163.945z"/>
		<path fill-rule="evenodd" clip-rule="evenodd" d="M249.783,196.018c-0.345-0.582-0.69-1.162-1.036-1.744
			c0.344-0.387,0.688-0.773,1.033-1.161c0.369,0.387,0.738,0.774,1.106,1.162C250.519,194.855,250.151,195.437,249.783,196.018z"/>
		<path fill-rule="evenodd" clip-rule="evenodd" d="M229.788,191.834c0.404,1.32,0.809,2.64,1.213,3.959
			c-1.948-0.033-3.933,0.142-5.828-0.193c-0.878-0.155-1.581-1.305-2.362-2.003C225.136,193.009,227.462,192.422,229.788,191.834z"
			/>
		<path fill-rule="evenodd" clip-rule="evenodd" fill="#FFFFFF" d="M227.97,212.49c-1.204-0.005-2.407-0.009-3.61-0.013
			c-0.789-2.179-1.58-4.355-2.369-6.533c0.996,0.124,2.828,0.141,2.861,0.39c0.38,2.933,2.961,2.458,4.692,3.257
			C229.019,210.558,228.495,211.523,227.97,212.49z"/>
		<path fill-rule="evenodd" clip-rule="evenodd" d="M229.544,209.591c-1.731-0.799-4.312-0.324-4.692-3.257
			c-0.033-0.249-1.865-0.266-2.861-0.39c0.182-2.548,1.129-3.284,3.553-1.845c1.134,0.674,2.655,0.696,4.001,1.013
			c0.634,0.633,1.268,1.266,1.902,1.897C230.813,207.87,230.178,208.73,229.544,209.591z"/>
		<path fill-rule="evenodd" clip-rule="evenodd" d="M239.276,215.708c0-0.785,0-1.57,0-2.355
			C239.275,214.138,239.275,214.923,239.276,215.708z"/>
		<path fill-rule="evenodd" clip-rule="evenodd" fill="#FFFFFF" d="M245.357,132.766c-1.036,0.056-2.071,0.11-3.106,0.166
			c-2.104-0.562-4.209-1.124-6.061-1.619c1.74-2.841,3.511-5.733,5.282-8.626c1.776,0.091,3.552,0.182,5.322,0.271
			c0.161,0.185,0.501,0.488,0.465,0.542c-2.003,3.022-0.593,6.26-0.615,9.401C246.215,132.856,245.787,132.811,245.357,132.766z"/>
	</g>
</g>
</svg>
