<?xml version="1.0" encoding="utf-8"?>
<!-- Generator: Adobe Illustrator 16.0.0, SVG Export Plug-In . SVG Version: 6.00 Build 0)  -->
<!DOCTYPE svg PUBLIC "-//W3C//DTD SVG 1.1//EN" "http://www.w3.org/Graphics/SVG/1.1/DTD/svg11.dtd">
<svg version="1.1" id="Layer_1" xmlns="http://www.w3.org/2000/svg" xmlns:xlink="http://www.w3.org/1999/xlink" x="0px" y="0px"
	 width="713.35px" height="380.303px" viewBox="0 0 713.35 380.303" enable-background="new 0 0 713.35 380.303"
	 xml:space="preserve">
<g>
	<g>
		<path fill-rule="evenodd" clip-rule="evenodd" fill="#FFFFFF" d="M0.75,381.053c0-126.768,0-253.535,0-380.303
			c237.783,0,475.566,0,713.35,0c0,126.768,0,253.535,0,380.303C476.316,381.053,238.533,381.053,0.75,381.053z M337.298,190.938
			c-0.423-0.047-0.847-0.094-1.27-0.142c0-4.994,0.609-10.079-0.127-14.962c-1.506-9.999-3.541-19.933-5.75-29.806
			c-1.018-4.55-2.624-9.045-4.558-13.295c-2.931-6.439-6.171-12.763-9.677-18.908c-2.751-4.822-5.969-9.398-9.246-13.89
			c-1.806-2.475-5.01-4.207-6.09-6.877c-2.012-4.979-6.535-7.446-9.675-11.23c-2.296-2.766-5.77-4.545-8.684-6.81
			c-4.866-3.78-9.575-7.782-14.609-11.32c-2.533-1.781-5.678-2.669-8.477-4.098c-8.685-4.43-17.333-8.932-26.008-13.382
			c-0.426-0.218-0.968-0.211-1.456-0.313c-4.811-1.004-9.593-2.199-14.441-2.969c-7.218-1.145-14.462-2.233-21.736-2.905
			c-10.803-0.998-21.541,0.196-32.191,1.981c-5.543,0.929-11.305,0.54-16.564,3.383c-3.28,1.773-7.025,2.709-10.595,3.921
			c-2.978,1.01-6.189,1.504-8.972,2.884c-5.377,2.668-10.511,5.824-15.772,8.73c-2.437,1.346-5.142,2.303-7.353,3.939
			c-2.968,2.196-5.373,5.167-8.379,7.296C88.292,77.39,81.49,83.29,75.471,89.947c-5.136,5.68-9.896,11.798-14.095,18.199
			c-3.785,5.77-6.899,12.045-9.723,18.361c-2.529,5.654-4.514,11.591-6.267,17.543c-1.566,5.317-2.72,10.785-3.632,16.257
			c-1.036,6.213-2.032,12.488-2.272,18.766c-0.359,9.389-1.169,18.797,1.48,28.139c2.583,9.107,4.503,18.408,6.517,27.669
			c1.127,5.183,3.018,9.999,5.64,14.577c2.058,3.594,3.981,7.267,6.067,10.843c2.965,5.085,5.688,10.359,9.132,15.104
			c4.186,5.767,8.777,11.288,13.639,16.501c3.78,4.052,8.112,7.629,12.439,11.119c4.198,3.387,8.924,6.136,13.007,9.643
			c3.832,3.29,10.116,2.625,12.54,8.045c0.148,0.331,1.178,0.223,1.771,0.406c4.569,1.417,9.203,2.666,13.677,4.343
			c4.019,1.504,7.709,4.06,11.812,5.125c6.646,1.725,13.478,2.842,20.292,3.762c4.31,0.582,8.788,0.826,13.087,0.326
			c4.165-0.483,7.923,1.193,12.322,0.568c9.002-1.276,18.261-0.524,27.272-2.822c5.054-1.288,10.297-1.322,15.234-3.738
			c5.544-2.711,11.628-4.322,17.481-6.4c1.625-0.576,3.497-0.777,4.855-1.725c5.082-3.543,9.975-7.354,14.981-11.006
			c4.256-3.105,8.778-5.883,12.799-9.262c4.268-3.585,8.211-7.588,12.048-11.643c2.255-2.382,3.528-5.965,6.118-7.701
			c5.533-3.71,7.655-9.759,11.116-14.781c3.462-5.025,5.491-11.044,8.098-16.649c0.654-1.407,1.086-2.917,1.675-4.356
			c2.568-6.279,6.152-12.341,7.518-18.868C334.538,214.653,335.639,202.737,337.298,190.938z M507.766,133.355
			c-0.366-0.067-0.731-0.133-1.098-0.199c-1.084-3.708-2.334-7.377-3.205-11.135c-0.806-3.476-0.926-7.13-1.953-10.524
			c-0.317-1.051-2.562-1.688-4.039-2.106c-0.383-0.108-1.828,1.445-1.719,2.041c0.641,3.506,1.476,6.99,2.48,10.411
			c1.152,3.926,2.642,7.753,3.81,11.676c0.67,2.249,0.931,4.618,1.517,6.897c0.151,0.586,0.736,1.22,1.29,1.516
			c3.422,1.827,5.796,0.262,6.683-3.976c1.287-6.15,2.766-12.263,4.278-18.362c0.156-0.628,1.077-1.419,1.693-1.467
			c0.466-0.036,1.256,0.917,1.474,1.571c0.424,1.275,0.412,2.693,0.821,3.975c1.655,5.196,3.578,10.315,5.024,15.566
			c0.525,1.907,0.473,3.602,3.019,3.874c2.688,0.287,4.41-0.983,5.134-3.238c1.121-3.49,1.82-7.116,2.691-10.687
			c1.192-4.881,2.457-9.747,3.525-14.656c0.359-1.652,0.325-3.421,0.242-5.125c-0.028-0.582-0.771-1.601-1.163-1.589
			c-0.725,0.021-1.769,0.474-2.086,1.065c-1.072,2.003-2.151,4.071-2.742,6.247c-1.327,4.877-2.337,9.839-3.54,14.751
			c-0.176,0.718-0.704,1.35-1.069,2.022c-0.366,0.018-0.733,0.037-1.1,0.056c-2.113-6.514-4.6-12.939-6.153-19.583
			c-0.615-2.631-1.791-4.007-3.813-3.929c-2.148,0.082-4.112,0.863-4.713,4.054C511.729,119.535,509.58,126.413,507.766,133.355z
			 M518.151,182.617c1.374,2.016,2.57,3.092,2.912,4.392c1.546,5.893,2.66,11.906,4.39,17.739c0.387,1.301,2.526,2.583,4.054,2.883
			c1.185,0.233,3.579-0.797,3.873-1.749c1.556-5.03,2.563-10.227,3.866-15.339c0.961-3.771,2.081-7.502,3.14-11.248
			c0.313-1.105,1.219-2.479,0.846-3.228c-0.429-0.859-2.177-1.798-2.989-1.543c-1.065,0.333-2.233,1.666-2.563,2.8
			c-1.699,5.854-3.119,11.789-4.708,17.675c-0.195,0.723-0.819,1.331-1.245,1.991c-0.641-0.625-1.641-1.142-1.864-1.892
			c-1.442-4.825-2.877-9.663-3.997-14.569c-1.194-5.234-2.988-6.305-8.589-4.371c-2.084,7.191-4.198,14.49-6.496,22.418
			c-1.181-2.209-2.461-3.805-2.913-5.608c-1.159-4.625-1.935-9.344-2.903-14.018c-0.175-0.843-0.299-2.014-0.87-2.393
			c-1.287-0.855-2.84-1.308-4.283-1.924c-0.254,1.17-0.957,2.457-0.688,3.49c1.723,6.594,3.659,13.132,5.523,19.689
			c0.709,2.494,1.063,5.178,2.266,7.404c0.605,1.124,2.813,2.047,4.167,1.896c1.129-0.125,2.611-1.78,3.003-3.047
			C514.193,197.228,516.014,190.298,518.151,182.617z M621.729,205.202c0.405,0.089,0.885,0.309,1.349,0.28
			c4.088-0.247,5.604,1.754,6.703,5.673c0.952,3.4,3.727,6.324,5.924,9.29c0.218,0.294,2.749-0.334,2.97-0.967
			c1.162-3.324,2.045-6.761,2.797-10.208c0.788-3.621,1.191-7.327,1.99-10.945c1.8-8.148,3.919-16.23,5.529-24.415
			c0.584-2.967,1.447-4.393,4.701-4.312c7.244,0.182,14.495,0.077,21.744,0.032c1.808-0.011,3.614-0.239,5.301-0.358
			c0.853-3.997-1.449-4.447-4.058-4.441c-8.869,0.018-17.738,0.126-26.607,0.106c-2.201-0.004-3.325,0.709-3.841,3
			c-0.823,3.659-2.261,7.18-3.071,10.841c-1.463,6.597-2.627,13.261-3.97,19.885c-0.711,3.503-1.534,6.982-2.306,10.473
			c-2.425-2.414-4.359-4.591-5.111-7.12c-1.2-4.042-4.196-2.819-6.342-2.31C623.172,200.243,620.177,201.365,621.729,205.202z
			 M652.711,205.658c-0.962,3.639,0.647,5.571,2.937,7.705c2.536,2.366,5.364,1.83,8.199,2.188c6.426,0.813,8.15-4.433,10.547-8.415
			c1.937-3.217-0.839-5.729-2.567-8.145c-1.401-1.956-1.918-3.377,0.106-5.481c0.986-1.026,1.229-3.612,0.702-5.099
			c-2.213-6.249-3.638-7.026-10.579-7.001c-0.998,0.004-2.007-0.04-2.993,0.079c-4.294,0.517-7.232,5.571-5.462,10.028
			c0.976-0.527,1.887-1.067,2.838-1.524c2.16-1.038,4.26-2.32,6.535-2.969c2.258-0.643,3.866,0.297,4.048,3.035
			c0.297,4.46-3.168,4.529-6.071,5.25c-0.246,1.308-0.469,2.493-0.773,4.112c1.464,0.07,2.659,0.194,3.854,0.172
			c2.61-0.047,4.758,0.669,4.984,3.634c0.167,2.169,1.308,4.824-1.947,5.985c-2.942,1.051-6.497,2.404-8.21-0.905
			C657.251,205.203,655.378,205.396,652.711,205.658z M488.854,159.756c0.081,0.379,0.161,0.759,0.241,1.138
			c25.42,0,50.84,0,76.26,0c0.087-0.483,0.173-0.965,0.26-1.448c-1.863-0.524-3.725-1.492-5.592-1.504
			c-18.169-0.126-36.34-0.136-54.511-0.073c-4.478,0.016-8.959,0.349-13.427,0.691C490.983,158.645,489.93,159.341,488.854,159.756z
			 M615.228,161.139c23.244,0,46.46,0,69.622,0c0.574-2.937-0.965-3.335-2.966-3.336c-21.34-0.01-42.681-0.026-64.021-0.06
			C615.551,157.74,614.696,158.779,615.228,161.139z M544.183,205.268c0.192-0.582,0.383-1.164,0.575-1.747
			c2.855,0.88,5.71,1.76,8.565,2.639c0.383-0.525,0.767-1.052,1.149-1.578c-1.374-1.591-2.498-4.098-4.182-4.558
			c-2.435-0.666-5.901-0.774-7.816,0.521c-4.417,2.989-3.983,6.028,0.63,9.247c2.329,1.625,4.832,3.001,7.614,4.709
			c-2.899,1.255-5.245,1.864-7.627-0.463c-0.637-0.621-1.942-0.683-2.948-0.706c-0.236-0.005-0.905,1.488-0.688,1.775
			c1.584,2.111,2.984,4.869,5.158,5.869c1.778,0.818,5.018,0.17,6.758-1.046c2.531-1.769,4.984-4.583,3.435-8.161
			c-1.219-2.812-3.399-4.859-6.978-4.873C546.611,206.892,545.397,205.841,544.183,205.268z M654.955,108.419
			c-1.677,0.605-2.775,0.709-3.448,1.299c-1.979,1.737-3.486,4.581-5.73,5.323c-4.035,1.334-2.979,3.728-2.541,7.154
			c2.635-1.3,4.888-2.412,7.779-3.839c0,2.284,0.004,3.515-0.001,4.746c-0.021,5.607-0.193,11.222,0.055,16.817
			c0.052,1.155,1.669,2.241,2.565,3.358c1.069-1.02,2.905-1.938,3.057-3.08c0.375-2.822,0.056-5.751-0.126-8.628
			c-0.24-3.815-0.65-7.618-0.92-11.431C655.378,116.38,655.198,112.615,654.955,108.419z M546.199,154.813
			c2.32-0.931,4.615-1.382,6.248-2.672c1.097-0.866,1.427-2.886,1.735-4.461c0.101-0.519-1.138-1.883-1.421-1.792
			c-1.203,0.384-2.979,0.945-3.27,1.852c-0.949,2.959-3.173,2.233-4.81,1.695c-1.185-0.388-2.483-1.921-2.803-3.179
			c-1.13-4.433-0.158-5.758,5.028-8.006c1.932,1.659,3.011,5.179,6.973,2.891c-0.188-1.188-0.046-2.698-0.67-3.755
			c-1.466-2.481-7.035-4.345-9.864-3.663c-2.201,0.531-6.037,5.914-6.265,8.091c-0.858,8.188-0.426,8.881,7.189,11.973
			C545.056,154.104,545.774,154.583,546.199,154.813z M589.985,157.68c0,0.016,0,0.032,0,0.048c2.998,0,6.008,0.141,8.989-0.083
			c0.926-0.07,1.777-1.129,2.663-1.735c-0.836-0.978-1.638-2.765-2.513-2.801c-5.988-0.248-11.995-0.228-17.987-0.024
			c-0.904,0.031-1.761,1.466-2.64,2.252c0.83,0.781,1.604,2.149,2.502,2.235C583.971,157.857,586.987,157.68,589.985,157.68z
			 M602.424,163.343c-0.122-0.507-0.244-1.013-0.367-1.52c-7.656,0-15.314,0-22.972,0c-0.197,0.348-0.394,0.696-0.591,1.044
			c1.041,0.716,2.053,1.999,3.128,2.054c5.608,0.287,11.234,0.385,16.848,0.254C599.801,165.143,601.106,163.983,602.424,163.343z"
			/>
		<path fill-rule="evenodd" clip-rule="evenodd" d="M337.298,190.938c-1.659,11.799-2.76,23.715-5.196,35.352
			c-1.366,6.527-4.95,12.589-7.518,18.868c-0.589,1.439-1.021,2.949-1.675,4.356c-2.607,5.605-4.636,11.624-8.098,16.649
			c-3.46,5.022-5.583,11.071-11.116,14.781c-2.59,1.736-3.863,5.319-6.118,7.701c-3.837,4.055-7.78,8.058-12.048,11.643
			c-4.021,3.379-8.543,6.156-12.799,9.262c-5.006,3.652-9.9,7.463-14.981,11.006c-1.358,0.947-3.23,1.148-4.855,1.725
			c-5.854,2.078-11.937,3.689-17.481,6.4c-4.938,2.416-10.18,2.45-15.234,3.738c-9.012,2.298-18.271,1.546-27.272,2.822
			c-4.399,0.625-8.157-1.052-12.322-0.568c-4.299,0.5-8.777,0.256-13.087-0.326c-6.815-0.92-13.647-2.037-20.292-3.762
			c-4.103-1.065-7.793-3.621-11.812-5.125c-4.474-1.677-9.107-2.926-13.677-4.343c-0.593-0.184-1.623-0.075-1.771-0.406
			c-2.424-5.42-8.708-4.755-12.54-8.045c-4.083-3.507-8.809-6.256-13.007-9.643c-4.327-3.49-8.659-7.067-12.439-11.119
			c-4.862-5.213-9.453-10.734-13.639-16.501c-3.444-4.745-6.167-10.02-9.132-15.104c-2.086-3.576-4.009-7.249-6.067-10.843
			c-2.622-4.578-4.512-9.395-5.64-14.577c-2.014-9.261-3.934-18.562-6.517-27.669c-2.649-9.342-1.839-18.75-1.48-28.139
			c0.24-6.278,1.236-12.553,2.272-18.766c0.912-5.472,2.066-10.94,3.632-16.257c1.753-5.952,3.738-11.889,6.267-17.543
			c2.824-6.315,5.938-12.591,9.723-18.361c4.199-6.401,8.959-12.519,14.095-18.199c6.02-6.657,12.821-12.557,20.195-17.779
			c3.006-2.129,5.411-5.1,8.379-7.296c2.211-1.636,4.917-2.593,7.353-3.939c5.261-2.907,10.395-6.063,15.772-8.73
			c2.782-1.38,5.994-1.875,8.972-2.884c3.57-1.212,7.315-2.147,10.595-3.921c5.259-2.843,11.021-2.455,16.564-3.383
			c10.651-1.785,21.388-2.979,32.191-1.981c7.273,0.672,14.518,1.76,21.736,2.905c4.848,0.77,9.63,1.965,14.441,2.969
			c0.487,0.102,1.029,0.094,1.456,0.313c8.675,4.45,17.324,8.952,26.008,13.382c2.799,1.428,5.944,2.317,8.477,4.098
			c5.034,3.538,9.743,7.54,14.609,11.32c2.914,2.265,6.388,4.044,8.684,6.81c3.14,3.784,7.663,6.251,9.675,11.23
			c1.08,2.67,4.284,4.402,6.09,6.877c3.277,4.491,6.495,9.068,9.246,13.89c3.506,6.145,6.747,12.469,9.677,18.908
			c1.934,4.25,3.54,8.745,4.558,13.295c2.209,9.873,4.245,19.807,5.75,29.806c0.736,4.883,0.127,9.968,0.127,14.962
			C336.451,190.845,336.875,190.892,337.298,190.938z M129.74,247.325c-0.575,1.191-1.15,2.384-1.832,3.797
			c0.875,0.576,1.766,1.163,2.657,1.75c-0.264,2.188-0.199,4.481-0.858,6.543c-1.578,4.936-0.508,9.369,3.084,12.197
			c-0.361,2.482-1.622,5.204-0.791,6.901c1.106,2.258,3.841,3.717,6.563,6.126c-2.855,0.331-4.983,0.578-7.268,0.844
			c-0.41,1.002-0.855,2.095-1.328,3.253c-0.946-0.134-1.711-0.134-2.394-0.369c-0.625-0.215-1.162-0.685-1.784-1.07
			c-0.947,2.619,1.724,5.565,4.42,5.021c3.39-0.685,6.653-0.463,10.062,0.115c4.652,0.789,9.406,1.048,14.128,1.34
			c6.579,0.408,13.174,0.976,19.752,0.871c16.002-0.253,32.079,1.505,47.991-1.542c3.38,2.553,6.419-0.656,9.683-0.632
			c2.833,0.021,5.672-0.739,9.026-1.229c-0.155-0.237,0.242,0.372,0.206,0.316c2.116,0,3.759,0.314,5.204-0.086
			c1.499-0.415,2.806-1.523,4.196-2.327c-0.84-0.928-1.732-1.813-2.505-2.795c-0.619-0.785-1.734-1.956-1.512-2.483
			c0.692-1.633,1.917-3.04,2.998-4.628c-0.552-0.177-1.653-0.53-2.207-0.707c1.047-3.167,1.993-6.025,2.938-8.885
			c-0.275-1.108-0.005-2.114,0.18-3.136c0.132-0.726,0.372-1.537,0.182-2.2c-1.53-5.323,0.267-10.616,0.068-15.923
			c-0.031-0.823-0.016-2.054,0.479-2.42c2.125-1.575,0.657-2.785-0.197-4.066c-1.655-2.484-3.351-4.942-4.896-7.214
			c1.782-1.677,3.224-3.034,4.838-4.554c-0.764-0.816-1.372-1.466-1.973-2.108c0.617-0.648,1.164-1.222,1.699-1.783
			c-0.846-0.927-1.527-1.671-2.214-2.424c4.729-4.104,4.702-4.078,0.426-8.663c-0.329-0.352-0.067-1.514,0.246-2.137
			c0.343-0.684,1.252-1.087,1.586-1.772c1.382-2.83,2.79-5.67,3.838-8.629c0.259-0.732-0.665-2.023-1.286-2.883
			c-0.432-0.597-1.276-0.896-1.936-1.328c0.011-0.194,0-0.393-0.035-0.592c-1.999-3.738-3.998-7.476-6.474-12.105
			c2.681,0,4.292,0,5.903,0c0.264-0.819,0.527-1.638,0.792-2.456c1.557-0.905,3.113-1.81,5.157-2.997
			c-2.479-2.512-5.313-4.669-5.609-8.38c-0.028-0.346-0.958-0.688-1.516-0.912c-1.993-0.8-4.006-1.547-6.351-2.444
			c1.813-2.082,3.583-4.112,5.358-6.15c-3.535-3.528-3.313-8.38,0.614-9.436c1.33,5.484,4.815,1.583,7.372,1.703
			c-1.955-3.042-5.032-0.83-7.475-1.599c-6.098-4.481-4.127-10.648-3.232-16.69c0.529,0.897,1.058,1.794,1.586,2.691
			c-0.476-0.584-0.951-1.168-1.426-1.751c1.746-1.128,3.491-2.256,5.305-3.429c-0.226-0.154-1.081-0.738-1.76-1.203
			c0.357-1.33,1.22-2.777,0.822-3.349c-2.631-3.784-2.373-9.232-6.758-11.927c-1.332-0.818-2.943-1.758-4.39-1.701
			c-3.889,0.153-7.83,1.512-11.62,1.123c-7.25-0.746-14.39-1.923-21.502,0.698c-0.624,0.23-1.456-0.078-2.187-0.167
			c-1.508-0.188-3.018-0.597-4.517-0.557c-3.386,0.092-6.768,0.607-10.148,0.576c-5.439-0.052-10.875-0.54-16.313-0.596
			c-5.705-0.058-11.415,0.329-17.118,0.236c-4.814-0.079-9.621-0.624-14.436-0.844c-1.925-0.089-3.864,0.179-5.798,0.211
			c-2.529,0.041-5.06,0.009-8.415,0.009c2.422,1.612,4.147,2.76,6.103,4.061c-1.52,0.938-2.473,1.526-3.545,2.188
			c2.039,1.405,3.759,2.59,5.479,3.775c-0.279,0.352-0.558,0.705-0.836,1.056c-0.79-0.637-1.579-1.273-2.429-1.959
			c-1.407,1.745-2.709,3.359-4.016,4.978c3.603,2.555,3.545,6.537,0.67,9.609c0,2.077,0,3.354,0,5.084
			c3.753,2.437,4.427,7.191,5.441,12.036c-2.074,0.098-4.085,0.027-6.028,0.356c-0.92,0.156-2.292,0.96-2.434,1.674
			c-0.262,1.315-0.22,3.133,0.527,4.094c0.969,1.246,2.751,1.859,3.871,2.551c-0.108,1.614-0.61,3.128-0.213,4.351
			c1.023,3.148,2.102,6.094-2.312,7.97c0.274,0.351,0.55,0.701,0.825,1.051c1.407-0.46,2.814-0.921,4.16-1.36
			c1.28,5.442,0.586,7.141-4.45,10.683c0.712,0.855,1.501,1.659,2.122,2.576c2.73,4.037,2.025,6.837-1.903,8.56
			c-1.042,0.456-2.539,1.575-2.52,2.357c0.029,1.182,0.975,2.595,1.939,3.45c2.347,2.078,4.004,7.283,2.59,9.905
			c-1.822,3.377-1.401,6.531,0.043,9.889c0.383,0.893-0.264,3.234-0.553,3.255c-3.379,0.237-3.045,2.845-2.755,4.716
			C127.544,237.994,128.733,242.646,129.74,247.325z M78.912,97.019c2.093,1.073,3.771,1.986,5.496,2.8
			c1.557,0.735,3.157,1.381,4.753,2.029c3.028,1.229,5.969,2.99,9.119,3.543c9.311,1.633,18.797,1.602,28.145,3.702
			c8.363,1.88,17.154,2.202,25.78,2.486c13.819,0.456,27.662,0.584,41.486,0.341c12.525-0.221,25.073,0.604,37.563-1.999
			c7.977-1.662,16.28-1.771,24.44-2.542c6.794-0.642,13.593-1.231,20.389-1.855c0.486-0.045,0.995-0.115,1.441-0.298
			c4.513-1.853,9.063-3.629,13.488-5.674c1.179-0.545,2.251-1.813,2.778-3.01c0.182-0.414-1.319-1.817-2.271-2.423
			c-1.693-1.077-3.526-1.948-5.352-2.796c-1.543-0.716-3.109-1.586-4.752-1.856c-9.168-1.508-18.35-2.949-27.552-4.229
			c-8.727-1.212-17.469-2.958-26.231-3.135c-22.971-0.463-45.959-0.062-68.938-0.277c-11.5-0.108-22.803,0.937-34.059,3.301
			c-6.17,1.297-12.483,2.033-18.768,2.642C96.453,88.682,87.605,91.072,78.912,97.019z M87.449,85.838
			c0.359,0.366,0.72,0.733,1.08,1.1c4.563-1.645,9.026-3.705,13.714-4.822c5.259-1.252,10.7-1.881,16.1-2.369
			c8.431-0.762,16.888-1.556,25.343-1.667c21.761-0.285,43.528-0.414,65.29-0.19c14.068,0.145,28.142,0.795,42.187,1.659
			c7.64,0.47,15.226,1.84,22.83,2.86c0.701,0.094,1.317,0.714,2.022,0.893c3.426,0.866,6.624,3.285,11.144,1.652
			c-4.77-3.973-8.645-8.475-13.54-10.996c-8.431-4.343-14.294-13.141-24.602-14.124c-0.376-0.036-0.641-0.77-1.057-0.96
			c-5.149-2.355-10.192-5.033-15.52-6.89c-4.827-1.683-9.952-2.548-14.98-3.61c-4.841-1.021-9.722-1.851-14.594-2.717
			c-0.976-0.174-2.084,0.109-2.97-0.235c-7.295-2.833-14.859-1.823-22.184-0.925c-9.396,1.152-18.685,3.29-27.953,5.306
			c-4.143,0.901-8.22,2.306-12.155,3.904c-4.814,1.955-9.308,4.758-14.196,6.454c-5.759,1.998-10.591,5.376-15.435,8.803
			c-4.917,3.479-9.758,7.078-14.468,10.831C91.288,81.559,89.456,83.807,87.449,85.838z M88.18,289.388
			c-0.066,0.229-0.133,0.457-0.2,0.686c0.82,0.857,1.572,1.795,2.472,2.557c4.568,3.868,9.145,7.728,13.801,11.487
			c0.719,0.581,1.98,0.447,2.802,0.951c5.762,3.531,10.041,9.317,17.201,10.774c4.7,0.956,7.656,5.868,12.844,6.08
			c1.588,0.065,3.295,0.271,4.713,0.921c5.169,2.373,10.424,4.236,16.203,4.29c1.089,0.009,2.214,0.324,3.254,0.693
			c2.471,0.878,4.884,2.64,7.349,2.691c13.24,0.277,26.487,0.152,39.733,0.124c0.96-0.002,1.94-0.271,2.877-0.538
			c3.478-0.99,6.924-2.096,10.419-3.021c1.303-0.345,2.762-0.117,4.052-0.491c4.646-1.345,9.282-2.746,13.86-4.307
			c2.306-0.786,4.525-1.872,6.695-2.994c1.362-0.703,2.445-2.11,3.853-2.533c5.549-1.67,10.69-3.813,15.201-7.722
			c3.674-3.184,8.102-5.491,12.157-8.244c1.978-1.343,4.038-2.636,5.751-4.274c1.974-1.887,3.604-4.131,5.384-6.219
			c-1.996-0.022-3.266,0.278-4.362,0.892c-5.099,2.856-11.043,0.485-16.489,3.235c-4.317,2.179-9.91,2.038-14.975,2.486
			c-8.415,0.743-16.859,1.584-25.292,1.592c-32.162,0.029-64.351,1.409-96.47-1.367c-5.153-0.446-10.286,0.471-15.487-1.837
			c-4.306-1.909-9.485-1.847-14.275-2.668c-2.418-0.415-4.86-0.736-7.24-1.313C92.03,290.836,90.121,290.043,88.18,289.388z
			 M300.268,100.116c0,58.641,0,117.165,0,175.687c0.472,0.088,0.943,0.175,1.415,0.263c2.343-3.17,4.868-6.226,6.984-9.54
			c2.893-4.531,5.221-9.478,7.876-14.047c4.306-7.408,6.424-15.462,9.454-23.209c2.121-5.426,2.988-11.412,3.875-17.23
			c1.028-6.746,1.916-13.575,2.024-20.381c0.094-5.999-0.779-12.041-1.568-18.018c-0.955-7.224-2.271-14.398-3.428-21.596
			c-0.316-1.959,0.056-4.523-1.054-5.775c-4.5-5.077-4.09-12.132-7.668-17.56c-2.189-3.321-3.392-7.278-5.431-10.716
			c-3.26-5.496-6.806-10.825-10.336-16.155C301.834,100.971,300.716,100.464,300.268,100.116z M74.842,99.881
			c-1.018,0.677-1.647,0.892-1.952,1.331c-3.214,4.633-6.57,9.185-9.492,13.999c-2.331,3.84-4.111,8.014-6.14,12.037
			c-0.721,1.428-1.621,2.791-2.152,4.285c-1.735,4.875-1.632,10.435-5.501,14.52c-0.298,0.314-0.292,0.939-0.379,1.428
			c-1.335,7.555-2.93,15.075-3.935,22.674c-2.31,17.463-1.044,34.845,3.136,51.859c2.178,8.864,5.836,17.389,9.153,25.939
			c1.36,3.508,3.43,6.777,5.453,9.981c2.662,4.215,4.415,9.01,8.452,12.382c1.841,1.539,2.987,3.909,4.998,6.652
			C75.929,217.236,75.389,158.849,74.842,99.881z M258.659,191.462c-2.535-0.521-4.018-0.827-6.113-1.259
			c0.187,1.313-0.026,2.732,0.579,3.336c0.762,0.762,2.371,1.394,3.278,1.087C257.302,194.322,257.783,192.78,258.659,191.462z
			 M248.608,140.967c1.995,0.881,3.566,1.574,5.725,2.528c-0.18-2.565-0.313-4.465-0.467-6.649
			C251.916,138.373,250.546,139.448,248.608,140.967z M114.352,234.85c2.298-0.548,4.334-1.033,7.302-1.74
			c-1.899-1.624-2.71-2.316-3.303-2.823C117.205,231.594,116.037,232.926,114.352,234.85z M121.39,265.447
			c0.388,0.253,0.775,0.508,1.164,0.761c1.242-1.407,2.484-2.815,3.726-4.223c-0.313-0.277-0.625-0.556-0.938-0.833
			C124.024,262.584,122.707,264.016,121.39,265.447z M256.408,118.204c-0.126-1.824,0.014-3.559-0.298-3.644
			c-1.483-0.407-3.091-0.366-4.654-0.484c-0.035,0.274-0.069,0.549-0.104,0.823C252.706,115.782,254.058,116.667,256.408,118.204z
			 M129.449,279.313c-1.77,0-2.792-0.219-3.641,0.07c-0.661,0.226-1.197,1.029-1.596,1.692c-0.134,0.222,0.324,0.803,0.513,1.219
			c0.649-0.349,1.317-0.664,1.942-1.052C127.354,280.815,128.002,280.323,129.449,279.313z"/>
		<path fill-rule="evenodd" clip-rule="evenodd" d="M507.766,133.355c1.814-6.942,3.964-13.821,5.289-20.854
			c0.601-3.191,2.564-3.972,4.713-4.054c2.021-0.078,3.197,1.298,3.813,3.929c1.554,6.644,4.04,13.07,6.153,19.583
			c0.366-0.019,0.733-0.038,1.1-0.056c0.365-0.673,0.894-1.305,1.069-2.022c1.203-4.912,2.213-9.874,3.54-14.751
			c0.591-2.176,1.67-4.244,2.742-6.247c0.317-0.591,1.361-1.044,2.086-1.065c0.393-0.012,1.135,1.007,1.163,1.589
			c0.083,1.704,0.117,3.472-0.242,5.125c-1.068,4.909-2.333,9.774-3.525,14.656c-0.871,3.57-1.57,7.196-2.691,10.687
			c-0.724,2.255-2.445,3.525-5.134,3.238c-2.546-0.272-2.493-1.967-3.019-3.874c-1.446-5.251-3.369-10.371-5.024-15.566
			c-0.409-1.282-0.397-2.7-0.821-3.975c-0.218-0.654-1.008-1.606-1.474-1.571c-0.616,0.048-1.537,0.839-1.693,1.467
			c-1.513,6.1-2.991,12.212-4.278,18.362c-0.887,4.238-3.261,5.803-6.683,3.976c-0.554-0.296-1.139-0.93-1.29-1.516
			c-0.586-2.279-0.847-4.648-1.517-6.897c-1.168-3.922-2.657-7.75-3.81-11.676c-1.005-3.421-1.84-6.905-2.48-10.411
			c-0.109-0.596,1.336-2.149,1.719-2.041c1.478,0.417,3.722,1.055,4.039,2.106c1.027,3.394,1.147,7.048,1.953,10.524
			c0.871,3.758,2.121,7.427,3.205,11.135C507.034,133.223,507.399,133.289,507.766,133.355z"/>
		<path fill-rule="evenodd" clip-rule="evenodd" d="M518.151,182.617c-2.138,7.681-3.958,14.611-6.069,21.451
			c-0.392,1.267-1.874,2.922-3.003,3.047c-1.354,0.15-3.562-0.772-4.167-1.896c-1.202-2.227-1.557-4.91-2.266-7.404
			c-1.864-6.558-3.801-13.095-5.523-19.689c-0.27-1.033,0.434-2.32,0.688-3.49c1.443,0.617,2.996,1.069,4.283,1.924
			c0.571,0.379,0.695,1.55,0.87,2.393c0.969,4.673,1.744,9.393,2.903,14.018c0.452,1.804,1.732,3.399,2.913,5.608
			c2.298-7.929,4.412-15.227,6.496-22.418c5.601-1.934,7.395-0.863,8.589,4.371c1.12,4.906,2.555,9.744,3.997,14.569
			c0.224,0.75,1.224,1.267,1.864,1.892c0.426-0.66,1.05-1.269,1.245-1.991c1.589-5.887,3.009-11.822,4.708-17.675
			c0.329-1.134,1.497-2.467,2.563-2.8c0.813-0.254,2.561,0.684,2.989,1.543c0.373,0.748-0.533,2.122-0.846,3.228
			c-1.059,3.746-2.179,7.477-3.14,11.248c-1.303,5.112-2.311,10.309-3.866,15.339c-0.294,0.952-2.688,1.982-3.873,1.749
			c-1.527-0.3-3.667-1.582-4.054-2.883c-1.729-5.833-2.844-11.847-4.39-17.739C520.722,185.709,519.525,184.633,518.151,182.617z"/>
		<path fill-rule="evenodd" clip-rule="evenodd" d="M621.729,205.202c-1.553-3.837,1.442-4.959,3.702-5.495
			c2.146-0.51,5.142-1.732,6.342,2.31c0.752,2.529,2.687,4.706,5.111,7.12c0.771-3.49,1.595-6.97,2.306-10.473
			c1.343-6.624,2.507-13.288,3.97-19.885c0.811-3.661,2.248-7.182,3.071-10.841c0.516-2.292,1.64-3.005,3.841-3
			c8.869,0.02,17.738-0.088,26.607-0.106c2.608-0.006,4.91,0.444,4.058,4.441c-1.687,0.12-3.493,0.347-5.301,0.358
			c-7.249,0.044-14.5,0.149-21.744-0.032c-3.254-0.082-4.117,1.345-4.701,4.312c-1.61,8.184-3.729,16.266-5.529,24.415
			c-0.799,3.618-1.202,7.324-1.99,10.945c-0.752,3.447-1.635,6.884-2.797,10.208c-0.221,0.633-2.752,1.261-2.97,0.967
			c-2.197-2.966-4.972-5.89-5.924-9.29c-1.099-3.919-2.615-5.92-6.703-5.673C622.614,205.511,622.135,205.291,621.729,205.202z"/>
		<path fill-rule="evenodd" clip-rule="evenodd" d="M652.711,205.658c2.667-0.262,4.54-0.455,6.146,2.649
			c1.713,3.31,5.268,1.956,8.21,0.905c3.255-1.161,2.114-3.816,1.947-5.985c-0.227-2.965-2.374-3.681-4.984-3.634
			c-1.194,0.022-2.39-0.102-3.854-0.172c0.305-1.619,0.527-2.805,0.773-4.112c2.903-0.721,6.368-0.79,6.071-5.25
			c-0.182-2.738-1.79-3.678-4.048-3.035c-2.275,0.649-4.375,1.931-6.535,2.969c-0.951,0.457-1.862,0.997-2.838,1.524
			c-1.771-4.458,1.168-9.512,5.462-10.028c0.986-0.119,1.995-0.075,2.993-0.079c6.941-0.025,8.366,0.752,10.579,7.001
			c0.527,1.487,0.284,4.072-0.702,5.099c-2.024,2.104-1.508,3.525-0.106,5.481c1.729,2.415,4.504,4.928,2.567,8.145
			c-2.396,3.982-4.121,9.228-10.547,8.415c-2.835-0.357-5.663,0.179-8.199-2.188C653.358,211.229,651.749,209.297,652.711,205.658z"
			/>
		<path fill-rule="evenodd" clip-rule="evenodd" d="M488.854,159.756c1.076-0.416,2.13-1.111,3.231-1.196
			c4.468-0.343,8.949-0.676,13.427-0.691c18.171-0.063,36.342-0.053,54.511,0.073c1.867,0.012,3.729,0.98,5.592,1.504
			c-0.087,0.483-0.173,0.965-0.26,1.448c-25.42,0-50.84,0-76.26,0C489.015,160.515,488.935,160.136,488.854,159.756z"/>
		<path fill-rule="evenodd" clip-rule="evenodd" d="M615.228,161.139c-0.531-2.36,0.323-3.399,2.636-3.396
			c21.34,0.034,42.681,0.05,64.021,0.06c2.001,0.001,3.54,0.4,2.966,3.336C661.688,161.139,638.472,161.139,615.228,161.139z"/>
		<path fill-rule="evenodd" clip-rule="evenodd" d="M544.183,205.268c1.215,0.573,2.429,1.624,3.646,1.629
			c3.578,0.014,5.759,2.062,6.978,4.873c1.55,3.578-0.903,6.393-3.435,8.161c-1.74,1.216-4.979,1.864-6.758,1.046
			c-2.174-1-3.574-3.758-5.158-5.869c-0.217-0.287,0.452-1.78,0.688-1.775c1.006,0.023,2.312,0.085,2.948,0.706
			c2.382,2.327,4.728,1.718,7.627,0.463c-2.782-1.708-5.285-3.084-7.614-4.709c-4.613-3.219-5.047-6.258-0.63-9.247
			c1.915-1.296,5.382-1.188,7.816-0.521c1.684,0.46,2.808,2.967,4.182,4.558c-0.383,0.526-0.767,1.053-1.149,1.578
			c-2.855-0.879-5.71-1.759-8.565-2.639C544.565,204.104,544.375,204.686,544.183,205.268z"/>
		<path fill-rule="evenodd" clip-rule="evenodd" d="M654.955,108.419c0.243,4.196,0.423,7.961,0.689,11.719
			c0.27,3.813,0.68,7.616,0.92,11.431c0.182,2.877,0.501,5.807,0.126,8.628c-0.151,1.142-1.987,2.06-3.057,3.08
			c-0.896-1.117-2.514-2.203-2.565-3.358c-0.248-5.596-0.076-11.21-0.055-16.817c0.005-1.231,0.001-2.462,0.001-4.746
			c-2.892,1.427-5.145,2.539-7.779,3.839c-0.438-3.426-1.494-5.82,2.541-7.154c2.244-0.743,3.752-3.586,5.73-5.323
			C652.18,109.128,653.278,109.024,654.955,108.419z"/>
		<path fill-rule="evenodd" clip-rule="evenodd" d="M546.199,154.813c-0.425-0.229-1.144-0.708-1.928-1.027
			c-7.615-3.092-8.048-3.784-7.189-11.973c0.228-2.177,4.063-7.56,6.265-8.091c2.829-0.682,8.398,1.182,9.864,3.663
			c0.624,1.057,0.482,2.567,0.67,3.755c-3.962,2.288-5.041-1.232-6.973-2.891c-5.187,2.248-6.158,3.573-5.028,8.006
			c0.319,1.258,1.618,2.791,2.803,3.179c1.637,0.538,3.86,1.264,4.81-1.695c0.291-0.906,2.066-1.468,3.27-1.852
			c0.283-0.091,1.521,1.274,1.421,1.792c-0.309,1.576-0.639,3.596-1.735,4.461C550.814,153.43,548.52,153.881,546.199,154.813z"/>
		<path fill-rule="evenodd" clip-rule="evenodd" d="M589.985,157.68c-2.998,0-6.015,0.177-8.985-0.108
			c-0.897-0.085-1.672-1.454-2.502-2.235c0.879-0.786,1.735-2.222,2.64-2.252c5.992-0.204,11.999-0.224,17.987,0.024
			c0.875,0.036,1.677,1.823,2.513,2.801c-0.886,0.606-1.737,1.666-2.663,1.735c-2.981,0.224-5.991,0.083-8.989,0.083
			C589.985,157.712,589.985,157.696,589.985,157.68z"/>
		<path fill-rule="evenodd" clip-rule="evenodd" d="M602.424,163.343c-1.317,0.641-2.623,1.8-3.954,1.832
			c-5.613,0.13-11.239,0.032-16.848-0.254c-1.075-0.055-2.087-1.337-3.128-2.054c0.197-0.348,0.394-0.696,0.591-1.044
			c7.657,0,15.315,0,22.972,0C602.18,162.33,602.302,162.836,602.424,163.343z"/>
		<path fill-rule="evenodd" clip-rule="evenodd" fill="#FFFFFF" d="M251.208,198.405c0.66,0.433,1.504,0.731,1.936,1.328
			c0.621,0.859,1.545,2.15,1.286,2.883c-1.049,2.959-2.456,5.799-3.838,8.629c-0.334,0.686-1.243,1.089-1.586,1.772
			c-0.313,0.623-0.575,1.785-0.246,2.137c4.276,4.585,4.303,4.56-0.426,8.663c0.687,0.753,1.368,1.497,2.214,2.424
			c-0.536,0.562-1.082,1.135-1.699,1.783c0.601,0.643,1.208,1.292,1.973,2.108c-1.614,1.52-3.056,2.877-4.838,4.554
			c1.544,2.271,3.24,4.729,4.896,7.214c0.854,1.281,2.323,2.491,0.197,4.066c-0.495,0.366-0.509,1.597-0.479,2.42
			c0.199,5.307-1.598,10.6-0.068,15.923c0.19,0.663-0.05,1.475-0.182,2.2c-0.185,1.021-0.455,2.027-0.18,3.136
			c-0.945,2.859-1.891,5.718-2.938,8.885c0.554,0.177,1.655,0.53,2.207,0.707c-1.081,1.588-2.306,2.995-2.998,4.628
			c-0.223,0.527,0.893,1.698,1.512,2.483c0.773,0.981,1.665,1.867,2.505,2.795c-1.39,0.804-2.697,1.912-4.196,2.327
			c-1.445,0.4-3.088,0.086-5.204,0.086c0.036,0.056-0.36-0.554-0.206-0.316c-3.354,0.49-6.193,1.251-9.026,1.229
			c-3.264-0.024-6.303,3.185-9.683,0.632c-15.913,3.047-31.989,1.289-47.991,1.542c-6.578,0.104-13.173-0.463-19.752-0.871
			c-4.722-0.292-9.476-0.551-14.128-1.34c-3.409-0.578-6.672-0.8-10.062-0.115c-2.696,0.545-5.367-2.401-4.42-5.021
			c0.622,0.386,1.16,0.855,1.784,1.07c0.683,0.235,1.448,0.235,2.394,0.369c0.473-1.158,0.918-2.251,1.328-3.253
			c2.285-0.266,4.413-0.513,7.268-0.844c-2.722-2.409-5.457-3.868-6.563-6.126c-0.831-1.697,0.43-4.419,0.791-6.901
			c-3.593-2.828-4.662-7.262-3.084-12.197c0.659-2.062,0.594-4.354,0.858-6.543c0.708-0.111,1.417-0.223,2.067-0.324
			c-0.325-1.132-1.107-2.765-0.809-2.994c2.493-1.924,0.749-3.449-0.341-6.074c-0.817,1.804-1.28,2.824-1.743,3.846
			c-1.007-4.68-2.196-9.331-2.928-14.053c-0.29-1.871-0.624-4.479,2.755-4.716c0.289-0.021,0.936-2.362,0.553-3.255
			c-1.444-3.357-1.865-6.512-0.043-9.889c1.415-2.622-0.243-7.827-2.59-9.905c-0.964-0.855-1.91-2.269-1.939-3.45
			c-0.019-0.782,1.478-1.901,2.52-2.357c3.928-1.723,4.633-4.522,1.903-8.56c-0.621-0.917-1.41-1.72-2.122-2.576
			c5.037-3.542,5.73-5.241,4.45-10.683c-1.346,0.439-2.753,0.9-4.16,1.36c-0.274-0.35-0.55-0.701-0.825-1.051
			c4.414-1.876,3.335-4.822,2.312-7.97c-0.397-1.223,0.104-2.737,0.213-4.351c-1.119-0.692-2.901-1.305-3.871-2.551
			c-0.747-0.961-0.789-2.779-0.527-4.094c0.143-0.714,1.514-1.519,2.434-1.674c1.943-0.329,3.954-0.259,6.028-0.356
			c-1.014-4.845-1.688-9.6-5.441-12.036c0-1.73,0-3.007,0-5.084c2.875-3.072,2.932-7.055-0.67-9.609
			c1.306-1.618,2.608-3.233,4.016-4.978c0.851,0.687,1.64,1.323,2.429,1.959c0.279-0.352,0.558-0.704,0.836-1.056
			c-1.72-1.185-3.44-2.37-5.479-3.775c1.073-0.662,2.026-1.25,3.545-2.188c-1.956-1.301-3.681-2.448-6.103-4.061
			c3.355,0,5.885,0.032,8.415-0.009c1.934-0.032,3.873-0.3,5.798-0.211c4.815,0.22,9.621,0.765,14.436,0.844
			c5.703,0.093,11.413-0.294,17.118-0.236c5.439,0.056,10.874,0.544,16.313,0.596c3.38,0.031,6.762-0.484,10.148-0.576
			c1.499-0.04,3.009,0.369,4.517,0.557c0.731,0.09,1.563,0.397,2.187,0.167c7.113-2.621,14.252-1.444,21.502-0.698
			c3.79,0.39,7.731-0.97,11.62-1.123c1.447-0.057,3.058,0.882,4.39,1.701c4.385,2.694,4.127,8.143,6.758,11.927
			c0.398,0.572-0.465,2.019-0.822,3.349c0.679,0.464,1.535,1.049,1.76,1.203c-1.813,1.173-3.559,2.301-5.305,3.429
			c0.475,0.583,0.951,1.167,1.426,1.751c-0.528-0.897-1.057-1.794-1.586-2.691c-0.896,6.042-2.866,12.209,3.232,16.69l0.101-0.104
			c-3.924,1.056-4.146,5.908-0.612,9.436c-1.775,2.039-3.545,4.069-5.358,6.15c2.345,0.897,4.358,1.645,6.351,2.444
			c0.559,0.224,1.488,0.566,1.516,0.912c0.296,3.711,3.129,5.868,5.609,8.38c-2.043,1.188-3.6,2.092-5.154,2.984
			c2.601-2.907-0.214-4.206-1.729-6.189c-1.312,1.25-2.468,2.351-3.755,3.579c1.681,1.821,3.186,3.45,4.689,5.079
			c-1.611,0-3.222,0-5.903,0c2.477,4.63,4.475,8.367,6.473,12.104c-1.887-0.634-3.773-1.265-5.74-1.925
			c0.214,1.107,0.415,2.149,0.72,3.725c-1.181-1.045-1.85-1.637-2.81-2.486c-0.938,2.005-1.703,3.64-2.281,4.872
			c1.713-0.322,3.283-1.152,4.075-0.679C249.754,204.082,250.013,204.035,251.208,198.405z M242.865,131.228
			c0.398-0.002,0.796-0.002,1.195-0.003c0.821-2.234,3.27-4.539-1.195-7.007C242.865,126.845,242.865,129.036,242.865,131.228z"/>
		<path fill-rule="evenodd" clip-rule="evenodd" fill="#FFFFFF" d="M78.912,97.019c8.693-5.947,17.541-8.337,26.955-9.249
			c6.285-0.609,12.598-1.345,18.768-2.642c11.255-2.364,22.558-3.409,34.059-3.301c22.979,0.215,45.966-0.186,68.938,0.277
			c8.762,0.177,17.505,1.923,26.231,3.135c9.203,1.28,18.384,2.721,27.552,4.229c1.643,0.27,3.208,1.14,4.752,1.856
			c1.826,0.848,3.659,1.719,5.352,2.796c0.952,0.605,2.453,2.009,2.271,2.423c-0.527,1.197-1.599,2.465-2.778,3.01
			c-4.425,2.045-8.975,3.821-13.488,5.674c-0.447,0.183-0.955,0.253-1.441,0.298c-6.796,0.625-13.595,1.214-20.389,1.855
			c-8.16,0.771-16.463,0.879-24.44,2.542c-12.49,2.603-25.038,1.778-37.563,1.999c-13.824,0.243-27.667,0.114-41.486-0.341
			c-8.626-0.284-17.417-0.606-25.78-2.486c-9.347-2.1-18.834-2.069-28.145-3.702c-3.15-0.553-6.091-2.313-9.119-3.543
			c-1.596-0.648-3.196-1.294-4.753-2.029C82.683,99.005,81.005,98.092,78.912,97.019z"/>
		<path fill-rule="evenodd" clip-rule="evenodd" fill="#FFFFFF" d="M87.449,85.838c2.006-2.031,3.838-4.279,6.055-6.045
			c4.71-3.753,9.551-7.352,14.468-10.831c4.844-3.427,9.676-6.806,15.435-8.803c4.889-1.696,9.382-4.499,14.196-6.454
			c3.935-1.598,8.012-3.003,12.155-3.904c9.269-2.016,18.558-4.153,27.953-5.306c7.324-0.898,14.889-1.907,22.184,0.925
			c0.886,0.344,1.995,0.062,2.97,0.235c4.872,0.866,9.753,1.696,14.594,2.717c5.029,1.062,10.153,1.927,14.98,3.61
			c5.328,1.857,10.371,4.535,15.52,6.89c0.416,0.19,0.68,0.925,1.057,0.96c10.307,0.983,16.171,9.781,24.602,14.124
			c4.895,2.521,8.77,7.022,13.54,10.996c-4.521,1.632-7.718-0.787-11.144-1.652c-0.705-0.179-1.321-0.799-2.022-0.893
			c-7.604-1.021-15.189-2.39-22.83-2.86c-14.045-0.863-28.119-1.514-42.187-1.659c-21.761-0.223-43.529-0.094-65.29,0.19
			c-8.455,0.111-16.913,0.904-25.343,1.667c-5.399,0.488-10.841,1.117-16.1,2.369c-4.688,1.117-9.151,3.178-13.714,4.822
			C88.169,86.571,87.809,86.204,87.449,85.838z"/>
		<path fill-rule="evenodd" clip-rule="evenodd" fill="#FFFFFF" d="M88.18,289.388c1.941,0.655,3.85,1.448,5.833,1.931
			c2.379,0.577,4.822,0.898,7.24,1.313c4.79,0.821,9.969,0.759,14.275,2.668c5.201,2.308,10.333,1.391,15.487,1.837
			c32.12,2.776,64.308,1.396,96.47,1.367c8.433-0.008,16.877-0.849,25.292-1.592c5.065-0.448,10.658-0.308,14.975-2.486
			c5.445-2.75,11.39-0.379,16.489-3.235c1.096-0.613,2.367-0.914,4.362-0.892c-1.78,2.088-3.411,4.332-5.384,6.219
			c-1.713,1.639-3.774,2.932-5.751,4.274c-4.055,2.753-8.483,5.061-12.157,8.244c-4.51,3.909-9.651,6.052-15.201,7.722
			c-1.408,0.423-2.491,1.83-3.853,2.533c-2.17,1.122-4.39,2.208-6.695,2.994c-4.578,1.561-9.213,2.962-13.86,4.307
			c-1.29,0.374-2.749,0.146-4.052,0.491c-3.495,0.926-6.941,2.031-10.419,3.021c-0.937,0.267-1.917,0.536-2.877,0.538
			c-13.246,0.028-26.493,0.153-39.733-0.124c-2.465-0.052-4.878-1.813-7.349-2.691c-1.04-0.369-2.165-0.685-3.254-0.693
			c-5.779-0.054-11.034-1.917-16.203-4.29c-1.418-0.65-3.125-0.855-4.713-0.921c-5.188-0.212-8.144-5.124-12.844-6.08
			c-7.16-1.457-11.438-7.243-17.201-10.774c-0.822-0.504-2.083-0.37-2.802-0.951c-4.657-3.76-9.233-7.619-13.801-11.487
			c-0.9-0.762-1.651-1.699-2.472-2.557C88.047,289.845,88.113,289.616,88.18,289.388z"/>
		<path fill-rule="evenodd" clip-rule="evenodd" fill="#FFFFFF" d="M300.268,100.116c0.449,0.349,1.567,0.855,2.141,1.723
			c3.531,5.33,7.077,10.659,10.336,16.155c2.04,3.438,3.242,7.395,5.431,10.716c3.578,5.428,3.167,12.483,7.668,17.56
			c1.11,1.252,0.738,3.816,1.054,5.775c1.157,7.197,2.474,14.372,3.428,21.596c0.789,5.977,1.663,12.019,1.568,18.018
			c-0.108,6.806-0.996,13.635-2.024,20.381c-0.887,5.818-1.754,11.805-3.875,17.23c-3.03,7.747-5.147,15.801-9.454,23.209
			c-2.655,4.569-4.983,9.516-7.876,14.047c-2.116,3.314-4.641,6.37-6.984,9.54c-0.472-0.088-0.943-0.175-1.415-0.263
			C300.268,217.28,300.268,158.757,300.268,100.116z"/>
		<path fill-rule="evenodd" clip-rule="evenodd" fill="#FFFFFF" d="M74.842,99.881c0.547,58.967,1.087,117.355,1.641,177.087
			c-2.011-2.743-3.157-5.113-4.998-6.652c-4.037-3.372-5.791-8.167-8.452-12.382c-2.023-3.204-4.093-6.474-5.453-9.981
			c-3.317-8.551-6.976-17.075-9.153-25.939c-4.181-17.015-5.446-34.396-3.136-51.859c1.005-7.599,2.6-15.119,3.935-22.674
			c0.086-0.489,0.081-1.114,0.379-1.428c3.87-4.084,3.767-9.645,5.501-14.52c0.532-1.494,1.432-2.857,2.152-4.285
			c2.029-4.023,3.81-8.197,6.14-12.037c2.921-4.814,6.277-9.365,9.492-13.999C73.194,100.773,73.824,100.559,74.842,99.881z"/>
		<path fill-rule="evenodd" clip-rule="evenodd" d="M251.208,198.405c-1.195,5.63-1.454,5.677-6.072,2.913
			c-0.792-0.474-2.361,0.356-4.075,0.679c0.578-1.232,1.342-2.867,2.281-4.872c0.96,0.85,1.629,1.441,2.81,2.486
			c-0.305-1.575-0.506-2.617-0.72-3.725c1.967,0.66,3.853,1.291,5.74,1.925C251.208,198.013,251.218,198.211,251.208,198.405z"/>
		<path fill-rule="evenodd" clip-rule="evenodd" d="M250.602,185.708c-1.504-1.629-3.008-3.258-4.689-5.079
			c1.288-1.228,2.443-2.329,3.755-3.579c1.515,1.983,4.33,3.282,1.729,6.189C251.129,184.07,250.865,184.889,250.602,185.708z"/>
		<path fill-rule="evenodd" clip-rule="evenodd" d="M129.74,247.325c0.463-1.021,0.926-2.042,1.743-3.846
			c1.089,2.625,2.834,4.15,0.341,6.074c-0.299,0.229,0.484,1.862,0.809,2.994c-0.65,0.102-1.359,0.213-2.067,0.324
			c-0.891-0.587-1.783-1.174-2.657-1.75C128.589,249.709,129.165,248.517,129.74,247.325z"/>
		<path fill-rule="evenodd" clip-rule="evenodd" fill="#FFFFFF" d="M258.659,191.462c-0.876,1.318-1.357,2.86-2.257,3.164
			c-0.907,0.307-2.516-0.325-3.278-1.087c-0.604-0.604-0.392-2.023-0.579-3.336C254.642,190.635,256.124,190.94,258.659,191.462z"/>
		<path fill-rule="evenodd" clip-rule="evenodd" fill="#FFFFFF" d="M248.608,140.967c1.938-1.519,3.308-2.594,5.257-4.121
			c0.154,2.185,0.287,4.084,0.467,6.649C252.174,142.541,250.603,141.848,248.608,140.967z"/>
		<path fill-rule="evenodd" clip-rule="evenodd" fill="#FFFFFF" d="M248.943,153.037c2.443,0.769,5.52-1.443,7.475,1.599
			c-2.557-0.121-6.042,3.781-7.372-1.703C249.044,152.932,248.943,153.037,248.943,153.037z"/>
		<path fill-rule="evenodd" clip-rule="evenodd" fill="#FFFFFF" d="M114.352,234.85c1.686-1.924,2.853-3.256,3.999-4.563
			c0.593,0.507,1.404,1.199,3.303,2.823C118.686,233.816,116.65,234.302,114.352,234.85z"/>
		<path fill-rule="evenodd" clip-rule="evenodd" fill="#FFFFFF" d="M121.39,265.447c1.317-1.432,2.635-2.863,3.952-4.295
			c0.313,0.277,0.625,0.556,0.938,0.833c-1.242,1.407-2.483,2.815-3.726,4.223C122.165,265.955,121.778,265.7,121.39,265.447z"/>
		<path fill-rule="evenodd" clip-rule="evenodd" fill="#FFFFFF" d="M256.408,118.204c-2.351-1.537-3.703-2.421-5.055-3.306
			c0.035-0.274,0.069-0.549,0.104-0.823c1.563,0.119,3.17,0.077,4.654,0.484C256.422,114.645,256.282,116.38,256.408,118.204z"/>
		<path fill-rule="evenodd" clip-rule="evenodd" fill="#FFFFFF" d="M129.449,279.313c-1.447,1.011-2.095,1.503-2.782,1.93
			c-0.625,0.388-1.293,0.703-1.942,1.052c-0.188-0.416-0.647-0.997-0.513-1.219c0.399-0.663,0.935-1.467,1.596-1.692
			C126.657,279.094,127.68,279.313,129.449,279.313z"/>
		<path fill-rule="evenodd" clip-rule="evenodd" d="M242.865,131.228c0-2.192,0-4.383,0-7.01c4.465,2.468,2.016,4.772,1.195,7.007
			C243.661,131.225,243.263,131.226,242.865,131.228z"/>
	</g>
</g>
</svg>
