<?xml version="1.0" encoding="utf-8"?>
<!-- Generator: Adobe Illustrator 16.0.0, SVG Export Plug-In . SVG Version: 6.00 Build 0)  -->
<!DOCTYPE svg PUBLIC "-//W3C//DTD SVG 1.1//EN" "http://www.w3.org/Graphics/SVG/1.1/DTD/svg11.dtd">
<svg version="1.1" id="Layer_1" xmlns="http://www.w3.org/2000/svg" xmlns:xlink="http://www.w3.org/1999/xlink" x="0px" y="0px"
	 width="484.567px" height="318.044px" viewBox="0 0 484.567 318.044" enable-background="new 0 0 484.567 318.044"
	 xml:space="preserve">
<g>
	<g>
		<path fill-rule="evenodd" clip-rule="evenodd" fill="#FFFFFF" d="M485.317,318.773c-161.471,0-322.941,0-484.49,0
			c0-105.917,0-211.855,0-317.908c161.445,0,322.967,0,484.49,0C485.317,106.772,485.317,212.763,485.317,318.773z M92.104,35.186
			c0.001-0.292,0.003-0.585,0.005-0.877c-17.981,0-35.963,0.048-53.945-0.024c-7.081-0.028-7.709,0.42-8.262,7.521
			c-0.048,0.623-0.09,1.247-0.099,1.871c-0.17,11.604-0.394,23.207-0.492,34.811c-0.339,39.978-0.612,79.956-0.958,119.933
			c-0.114,13.087-0.398,26.173-0.556,39.26c-0.053,4.366,0.642,5.059,4.909,5.094c13.732,0.113,27.465,0.093,41.195,0.304
			c24.096,0.371,48.19,0.878,72.286,1.321c27.925,0.514,55.851,1.013,83.776,1.54c3.755,0.071,5.225-1.334,5.244-5.409
			c0.146-31.481,0.091-62.966,0.486-94.444c0.18-14.214-1.271-28.521,1.65-42.644c0.111-0.537-0.341-1.166-0.393-1.764
			c-0.083-0.949-0.133-1.917-0.044-2.863c0.115-1.218,0.649-2.449,0.529-3.626c-0.333-3.262-0.965-6.494-1.353-9.752
			c-0.079-0.665,0.431-1.387,0.61-2.099c0.326-1.298,0.853-2.603,0.869-3.912c0.147-12.237,0.132-24.477,0.333-36.713
			c0.053-3.265-1.368-4.525-4.41-4.537c-5.123-0.02-10.245-0.094-15.369-0.111c-13.606-0.047-27.217,0.138-40.817-0.184
			c-9.81-0.232-19.598-1.397-29.409-1.672C129.301,35.688,110.701,35.508,92.104,35.186z M456.237,153.728
			c-1.4-2.263-2.504-3.529-3.021-5c-0.806-2.29-0.941-4.84-1.909-7.038c-0.452-1.026-2.189-1.487-3.345-2.204
			c-0.624,1.05-1.894,2.195-1.754,3.13c0.448,2.994,1.435,5.905,2.184,8.855c1.148,4.521,2.42,9.02,3.324,13.59
			c0.31,1.563-0.318,3.099-2.677,3.153c-0.795,0.019-1.558,1.495-2.334,2.305c0.995,0.721,1.93,1.941,2.997,2.07
			c3.64,0.441,8.027-4.184,9.286-8.774c1.747-6.369,3.76-12.674,5.884-18.93c1.338-3.943,0.74-4.844-3.654-4.578
			C459.686,144.438,458.165,148.534,456.237,153.728z M377.065,140.001c0.713,1.547,1.091,3.074,1.984,4.186
			c4.872,6.058,4.821,5.956,0.156,12.493c-1.008,1.414-1.067,3.503-1.565,5.283c1.93-0.425,3.902-0.723,5.765-1.348
			c0.635-0.213,0.965-1.272,1.488-1.901c0.495-0.592,1.062-1.125,1.597-1.686c0.438,0.481,0.963,0.906,1.296,1.45
			c2.612,4.256,5.9,5.183,8.782,2.267c-1.26-2.349-2.753-4.667-3.76-7.182c-0.637-1.59-1.098-3.639-0.633-5.178
			c0.517-1.708,2.385-2.96,3.271-4.621c0.66-1.236,0.693-2.807,1.007-4.229c-1.819,0.234-3.666,0.353-5.438,0.785
			c-0.438,0.107-0.481,1.384-0.968,1.851c-0.915,0.876-1.938,1.894-3.081,2.17c-0.548,0.132-1.71-1.163-2.186-2.034
			C382.81,138.688,381.073,138.025,377.065,140.001z M283.077,147.703c-2.012,11.333-2.012,11.333-5.256,13.825
			c-0.518-1.831-1.182-3.567-1.469-5.363c-0.293-1.836,0.229-3.914-0.438-5.547c-0.578-1.417-2.151-2.751-3.605-3.372
			c-0.921-0.394-3.147,0.265-3.494,1.034c-0.434,0.963,0.469,2.522,0.777,3.828c0.274,1.162,0.586,2.32,0.768,3.497
			c0.168,1.095-0.088,2.327,0.316,3.304c2.897,7.006,1.799,11.88-3.764,16.369c-0.705,0.569-1.17,1.436-1.747,2.164
			c1.224,0.062,2.852,0.653,3.597,0.087c2.573-1.96,5.168-4.066,7.153-6.589c4.045-5.142,7.842-10.494,11.408-15.977
			c0.908-1.395,1.271-3.947,0.587-5.324C287.354,148.514,284.864,148.349,283.077,147.703z M123.182,276.85
			c0.689,3.94,0.228,7.391,4.41,6.951c2.268-0.238,5.108-4.579,4.702-7.056c-3.722,1.188-4.37-1.328-4.768-4.09
			c-0.573-3.983,0.563-5.125,6.771-6.744c0.042-0.804,0.327-1.741,0.069-2.49c-0.322-0.931-1.27-2.49-1.639-2.408
			c-1.401,0.315-3.036,0.879-3.917,1.915c-1.376,1.62-3.255,3.392-4.178,0.87c-1.836-5.02-5.181-2.633-9.183-3.041
			c0.896,1.93,1.12,3.551,2.032,4.189c4.681,3.276,5.123,6.791,0.971,10.647c-1.276,1.187-2.813,2.09-4.118,3.25
			c-0.652,0.58-1.538,1.53-1.431,2.163c0.119,0.706,1.266,1.763,1.929,1.737c1.169-0.046,2.468-0.587,3.427-1.303
			C119.782,280.305,121.072,278.854,123.182,276.85z M433.468,153.759c-8.302-0.274-15.97-1.149-24.356,0.19
			c1.595,2.964,3.36,3.859,5.789,3.783c2.974-0.094,6.514-1.172,8.808,0.052C428.349,160.26,430.813,158.916,433.468,153.759z
			 M409.836,146.759c-0.276,0.477-0.553,0.955-0.829,1.432c1.009,0.83,1.983,2.327,3.033,2.382
			c6.101,0.321,12.221,0.386,18.333,0.313c0.965-0.012,1.917-1.163,2.876-1.788c-0.865-0.78-1.713-2.212-2.599-2.236
			C423.716,146.675,416.774,146.759,409.836,146.759z"/>
		<path fill-rule="evenodd" clip-rule="evenodd" d="M92.104,35.186c18.597,0.322,37.196,0.502,55.787,1.023
			c9.811,0.275,19.599,1.44,29.409,1.672c13.6,0.322,27.211,0.137,40.817,0.184c5.124,0.018,10.246,0.091,15.369,0.111
			c3.042,0.012,4.462,1.272,4.41,4.537c-0.2,12.236-0.186,24.476-0.333,36.713c-0.016,1.309-0.543,2.614-0.869,3.912
			c-0.179,0.711-0.689,1.434-0.61,2.099c0.387,3.258,1.019,6.49,1.353,9.752c0.121,1.177-0.414,2.408-0.529,3.626
			c-0.089,0.946-0.039,1.914,0.044,2.863c0.052,0.599,0.504,1.228,0.393,1.764c-2.92,14.122-1.47,28.429-1.65,42.644
			c-0.396,31.478-0.34,62.962-0.486,94.444c-0.019,4.075-1.489,5.48-5.244,5.409c-27.925-0.527-55.851-1.026-83.776-1.54
			c-24.096-0.443-48.19-0.95-72.286-1.321c-13.73-0.211-27.463-0.19-41.195-0.304c-4.267-0.035-4.961-0.728-4.909-5.094
			c0.158-13.087,0.442-26.173,0.556-39.26c0.346-39.978,0.619-79.956,0.958-119.933c0.098-11.604,0.321-23.207,0.492-34.811
			c0.009-0.624,0.051-1.248,0.099-1.871c0.553-7.102,1.181-7.549,8.262-7.521c17.981,0.073,35.963,0.024,53.945,0.024
			C92.108,34.601,92.106,34.893,92.104,35.186z M228.502,238.921c0.094-0.319,0.333-0.777,0.349-1.242
			c0.396-11.488,0.831-22.976,1.092-34.468c0.056-2.446-0.828-4.914-0.767-7.359c0.146-5.786,0.854-11.563,0.885-17.345
			c0.213-38.867,0.282-77.734,0.51-116.601c0.013-2.204,1.142-4.382,1.513-6.611c0.196-1.176,0.007-2.465-0.244-3.654
			c-0.322-1.524-1.13-2.974-1.278-4.5c-0.239-2.483-1.315-3.406-3.838-3.443c-20.199-0.298-40.397-0.723-60.596-1.07
			c-14.115-0.243-28.231-0.472-42.347-0.624c-24.609-0.263-49.219-0.446-73.827-0.72c-1.439-0.016-2.932-0.376-4.299-0.859
			c-6.196-2.189-9.021-0.412-9.104,6.024c-0.113,8.756-0.082,17.515-0.141,26.272c-0.005,0.862-0.214,1.722-0.328,2.582
			c-0.406,3.067-1.083,6.128-1.155,9.204c-0.12,5.113,0.275,10.236,0.233,15.353c-0.193,23.361-0.489,46.72-0.696,70.081
			c-0.183,20.612-0.271,41.225-0.473,61.836c-0.026,2.621,0.72,3.813,3.592,3.85c17.717,0.231,35.431,0.703,53.148,0.918
			c19.242,0.233,38.49,0.066,57.728,0.462c18.298,0.378,36.582,1.346,54.878,1.872C211.657,239.119,219.991,238.921,228.502,238.921
			z"/>
		<path fill-rule="evenodd" clip-rule="evenodd" d="M456.237,153.728c1.928-5.194,3.448-9.289,4.981-13.42
			c4.395-0.266,4.992,0.635,3.654,4.578c-2.124,6.256-4.137,12.561-5.884,18.93c-1.259,4.591-5.646,9.216-9.286,8.774
			c-1.067-0.129-2.002-1.35-2.997-2.07c0.776-0.81,1.539-2.286,2.334-2.305c2.358-0.055,2.986-1.591,2.677-3.153
			c-0.904-4.57-2.176-9.069-3.324-13.59c-0.749-2.951-1.735-5.861-2.184-8.855c-0.14-0.935,1.13-2.08,1.754-3.13
			c1.155,0.716,2.893,1.177,3.345,2.204c0.968,2.198,1.104,4.748,1.909,7.038C453.733,150.199,454.837,151.465,456.237,153.728z"/>
		<path fill-rule="evenodd" clip-rule="evenodd" d="M377.065,140.001c4.008-1.977,5.744-1.313,7.717,2.307
			c0.476,0.871,1.638,2.166,2.186,2.034c1.144-0.277,2.166-1.294,3.081-2.17c0.486-0.467,0.529-1.744,0.968-1.851
			c1.771-0.432,3.618-0.55,5.438-0.785c-0.313,1.422-0.347,2.993-1.007,4.229c-0.887,1.661-2.755,2.912-3.271,4.621
			c-0.465,1.54-0.004,3.588,0.633,5.178c1.007,2.515,2.5,4.833,3.76,7.182c-2.882,2.916-6.17,1.989-8.782-2.267
			c-0.333-0.543-0.858-0.969-1.296-1.45c-0.535,0.56-1.102,1.093-1.597,1.686c-0.523,0.628-0.854,1.688-1.488,1.901
			c-1.862,0.625-3.835,0.923-5.765,1.348c0.498-1.779,0.558-3.869,1.565-5.283c4.665-6.538,4.716-6.435-0.156-12.493
			C378.156,143.076,377.778,141.548,377.065,140.001z"/>
		<path fill-rule="evenodd" clip-rule="evenodd" d="M283.077,147.703c1.787,0.646,4.276,0.812,4.834,1.935
			c0.684,1.377,0.321,3.929-0.587,5.324c-3.566,5.482-7.363,10.835-11.408,15.977c-1.985,2.522-4.58,4.629-7.153,6.589
			c-0.745,0.566-2.373-0.025-3.597-0.087c0.577-0.729,1.042-1.595,1.747-2.164c5.563-4.489,6.661-9.363,3.764-16.369
			c-0.404-0.977-0.148-2.208-0.316-3.304c-0.182-1.177-0.493-2.335-0.768-3.497c-0.309-1.306-1.211-2.865-0.777-3.828
			c0.347-0.769,2.573-1.427,3.494-1.034c1.454,0.621,3.027,1.955,3.605,3.372c0.666,1.633,0.145,3.711,0.438,5.547
			c0.287,1.796,0.951,3.532,1.469,5.363C281.065,159.035,281.065,159.035,283.077,147.703z"/>
		<path fill-rule="evenodd" clip-rule="evenodd" d="M123.182,276.85c-2.11,2.004-3.4,3.455-4.923,4.592
			c-0.959,0.716-2.258,1.257-3.427,1.303c-0.663,0.025-1.81-1.031-1.929-1.737c-0.107-0.633,0.778-1.583,1.431-2.163
			c1.305-1.16,2.842-2.063,4.118-3.25c4.151-3.856,3.709-7.371-0.971-10.647c-0.912-0.639-1.136-2.26-2.032-4.189
			c4.002,0.408,7.347-1.979,9.183,3.041c0.922,2.521,2.802,0.75,4.178-0.87c0.881-1.036,2.516-1.6,3.917-1.915
			c0.369-0.082,1.317,1.478,1.639,2.408c0.258,0.749-0.027,1.687-0.069,2.49c-6.209,1.619-7.344,2.761-6.771,6.744
			c0.398,2.762,1.046,5.277,4.768,4.09c0.406,2.477-2.434,6.817-4.702,7.056C123.41,284.24,123.871,280.79,123.182,276.85z"/>
		<path fill-rule="evenodd" clip-rule="evenodd" d="M433.468,153.759c-2.655,5.157-5.119,6.501-9.76,4.025
			c-2.294-1.224-5.834-0.146-8.808-0.052c-2.429,0.076-4.194-0.819-5.789-3.783C417.498,152.61,425.166,153.484,433.468,153.759z"/>
		<path fill-rule="evenodd" clip-rule="evenodd" d="M409.836,146.759c6.938,0,13.88-0.083,20.814,0.104
			c0.886,0.024,1.733,1.456,2.599,2.236c-0.959,0.625-1.911,1.776-2.876,1.788c-6.112,0.073-12.232,0.007-18.333-0.313
			c-1.05-0.056-2.024-1.552-3.033-2.382C409.283,147.713,409.56,147.236,409.836,146.759z"/>
		<path fill-rule="evenodd" clip-rule="evenodd" fill="#FFFFFF" d="M228.502,238.921c-8.511,0-16.845,0.198-25.166-0.041
			c-18.296-0.526-36.58-1.494-54.878-1.872c-19.238-0.396-38.485-0.229-57.728-0.462c-17.717-0.215-35.431-0.687-53.148-0.918
			c-2.873-0.037-3.618-1.229-3.592-3.85c0.201-20.611,0.29-41.224,0.473-61.836c0.208-23.361,0.503-46.72,0.696-70.081
			c0.042-5.117-0.353-10.24-0.233-15.353c0.072-3.075,0.75-6.136,1.155-9.204c0.114-0.86,0.323-1.72,0.328-2.582
			c0.059-8.757,0.028-17.516,0.141-26.272c0.083-6.436,2.908-8.214,9.104-6.024c1.367,0.483,2.86,0.843,4.299,0.859
			c24.608,0.274,49.218,0.457,73.827,0.72c14.116,0.151,28.232,0.38,42.347,0.624c20.199,0.347,40.396,0.772,60.596,1.07
			c2.523,0.038,3.599,0.96,3.838,3.443c0.147,1.525,0.956,2.976,1.278,4.5c0.25,1.189,0.44,2.478,0.244,3.654
			c-0.371,2.229-1.5,4.407-1.513,6.611c-0.229,38.866-0.297,77.733-0.51,116.601c-0.032,5.782-0.74,11.559-0.885,17.345
			c-0.061,2.445,0.823,4.913,0.767,7.359c-0.261,11.492-0.697,22.979-1.092,34.468C228.834,238.144,228.596,238.602,228.502,238.921
			z"/>
	</g>
</g>
</svg>
