<?xml version="1.0" encoding="utf-8"?>
<!-- Generator: Adobe Illustrator 16.0.0, SVG Export Plug-In . SVG Version: 6.00 Build 0)  -->
<!DOCTYPE svg PUBLIC "-//W3C//DTD SVG 1.1//EN" "http://www.w3.org/Graphics/SVG/1.1/DTD/svg11.dtd">
<svg version="1.1" id="Layer_1" xmlns="http://www.w3.org/2000/svg" xmlns:xlink="http://www.w3.org/1999/xlink" x="0px" y="0px"
	 width="507.821px" height="387.804px" viewBox="0 0 507.821 387.804" enable-background="new 0 0 507.821 387.804"
	 xml:space="preserve">
<g>
	<g>
		<path fill-rule="evenodd" clip-rule="evenodd" fill="#FFFFFF" d="M508.571,388.555c-169.274,0-338.547,0-507.821,0
			c0-129.269,0-258.537,0-387.805c169.274,0,338.547,0,507.821,0C508.571,130.018,508.571,259.286,508.571,388.555z
			 M385.999,305.127c-0.528-1.707-0.551-2.733-1.072-3.306c-3.325-3.646-6.682-7.271-10.179-10.752
			c-4.887-4.862-9.957-9.541-14.854-14.395c-4.452-4.413-8.785-8.946-13.155-13.441c-1.694-1.742-3.354-3.518-5.019-5.287
			c-4.126-4.385-8.182-8.838-12.385-13.146c-5.69-5.829-11.525-11.519-17.239-17.325c-4.737-4.812-9.37-9.727-14.1-14.546
			c-0.842-0.858-2.073-1.344-2.876-2.228c-3.525-3.888-6.824-7.99-10.467-11.762c-3.51-3.634-7.51-6.796-10.987-10.456
			c-4.331-4.56-8.213-9.546-12.54-14.111c-4.274-4.509-8.853-8.73-13.313-13.063c-3.421-3.325-6.911-6.581-10.285-9.952
			c-3.03-3.028-5.853-6.269-8.94-9.235c-2.105-2.022-4.718-3.532-6.742-5.622c-6.984-7.21-13.848-14.54-20.669-21.905
			c-1.72-1.857-2.919-4.212-4.701-5.996c-3.779-3.782-7.84-7.281-11.679-11.004c-3.998-3.878-7.851-7.905-11.804-11.831
			c-6.02-5.979-12.183-11.816-18.074-17.918c-5.082-5.263-9.689-10.988-14.851-16.166c-3.184-3.194-6.826-5.838-9.673-9.501
			c-3.32-4.271-7.233-8.169-11.345-11.697c-1.652-1.417-2.192-5.09-6.023-4.072c0,6.101,0.009,11.953-0.001,17.806
			c-0.031,17.843,0.125,35.688-0.172,53.527c-0.215,12.938-1.111,25.861-1.526,38.796c-0.089,2.799,0.887,5.628,0.839,8.434
			c-0.107,6.208-0.752,12.407-0.827,18.613c-0.264,22.112-0.379,44.226-0.555,66.339c-0.101,12.729-0.156,25.461-0.333,38.19
			c-0.133,9.567-0.416,19.134-0.653,28.699c-0.081,3.241,0.75,4.911,4.696,4.813c10.614-0.266,21.244-0.082,31.863,0.117
			c6.071,0.114,12.132,0.76,18.203,0.871c3.627,0.066,7.272-0.719,10.895-0.617c4.95,0.139,9.881,1.056,14.828,1.123
			c43.475,0.595,86.952,1.088,130.43,1.582c16.104,0.183,32.209,0.295,48.313,0.415C374.48,305.161,379.935,305.127,385.999,305.127
			z M450.673,99.208c0.111,4.2,2.183,7.159,5.801,8.505c2.923,1.088,10.317,0.036,11.821-1.804c3.371-4.123,4.763-9.025,2.747-13.87
			c-1.679-4.037-5.423-6.172-10.217-5.84c-0.741,0.052-1.575-1.225-2.365-1.887c0.833-0.638,1.603-1.68,2.516-1.826
			c1.821-0.292,3.733-0.221,5.588-0.063c2.087,0.178,3.33-0.796,3.048-2.677c-0.164-1.09-1.527-2.797-2.422-2.843
			c-3.688-0.188-7.407,0.076-11.101,0.372c-0.689,0.055-1.688,0.896-1.896,1.573c-1.224,3.995-2.381,8.022-3.248,12.105
			c-0.177,0.835,0.839,2.638,1.557,2.787c1.223,0.256,2.642-0.462,3.983-0.743c2.349-0.491,4.99-1.864,6.983-1.227
			c2.98,0.954,2.896,4.306,2.657,7.084c-0.237,2.769-2.121,4.466-4.652,4.513c-1.527,0.028-3.807-1-4.481-2.241
			C455.409,98.218,453.533,97.911,450.673,99.208z M358.121,91.922c0.619,2.772,1.22,6.172,2.152,9.477
			c1.639,5.808,9.92,7.397,13.067,3.597c4.159-5.022,6.774-10.611,5.127-17.385c-0.378-1.554-0.889-3.075-1.314-4.617
			c-1.146-4.154-4.326-7.25-7.588-7.369c-5.2-0.188-8.413,1.796-9.886,6.718C358.836,85.166,358.698,88.2,358.121,91.922z
			 M438.106,100.526c0.1,1.282,0.339,2.394,0.242,3.476c-0.259,2.863,2.022,3.344,3.793,3.563c2.151,0.268,2.975-1.36,2.743-3.466
			c-0.228-2.064-0.068-3.853,2.096-5.134c0.564-0.334,0.504-3.213,0.186-3.321c-3.267-1.112-2.333-3.723-2.361-5.95
			c-0.04-3.241,0.128-6.486,0.022-9.724c-0.098-2.972-1.604-3.954-4.112-2.43c-1.71,1.039-3.093,2.73-4.39,4.319
			c-3.528,4.318-7.079,8.631-10.312,13.168c-1.265,1.775-1.11,3.955,1.826,4.355C431.101,99.827,434.383,100.119,438.106,100.526z
			 M438.499,158.753c-0.32-0.082-0.641-0.165-0.961-0.247c-1.25-3.254-2.648-6.462-3.694-9.781c-0.68-2.158-1.942-2.776-3.908-2.31
			c-2.348,0.557-1.879,2.228-1.33,3.843c1.648,4.861,3.289,9.725,4.977,14.572c1.502,4.312,0.813,6.006-3.259,8.32
			c-0.622,0.354-1.282,1.309-1.264,1.966c0.028,1.021,0.482,2.794,1.009,2.892c1.475,0.274,3.701,0.449,4.515-0.403
			c2.387-2.501,4.833-5.264,6.16-8.39c2.492-5.867,4.34-12.022,6.156-18.147c0.396-1.336-0.164-4.209-0.8-4.373
			c-2.207-0.568-3.885,0.589-4.573,3.1C440.693,152.831,439.523,155.772,438.499,158.753z M365.979,155.913
			c-1.926,2.593-3.865,5.256-5.862,7.875c-1.227,1.61-2.273,3.326-0.083,4.775c2.189,1.45,3.568,0.032,4.859-1.779
			c1.242-1.743,2.814-3.251,4.242-4.862c1.148,1.767,1.953,4.017,3.55,5.157c1.428,1.019,3.726,0.893,5.654,1.002
			c0.161,0.01,0.963-2.306,0.563-3.065c-1.054-1.998-2.289-4.143-4.027-5.485c-3.122-2.411-1.811-4.193,0.055-6.374
			c1.696-1.984,3.174-4.156,4.795-6.308c-5.435-2.806-7.667,1.66-10.746,3.586c-3.916-5.103-5.316-5.667-9.428-3.693
			C361.683,149.787,363.795,152.798,365.979,155.913z M231.22,353.878c-3.786,0.417-6-0.952-6.158-4.675
			c-0.104-2.465,2.498-5.062,4.901-5.444c1.289-0.205,2.775-0.792,3.577-1.722c0.384-0.444-0.37-2.8-1.042-3.031
			c-1.326-0.457-3.074-0.372-4.423,0.112c-1.449,0.521-2.641,1.757-4.219,2.874c-0.472-3.74-2.939-4.221-5.73-3.831
			c-1.098,0.153-2.114,0.897-3.167,1.372c0.503,1.076,0.743,2.442,1.554,3.181c5.092,4.643,3.909,10.455-2.649,12.931
			c-0.802,0.302-1.748,1.328-1.84,2.112c-0.106,0.896,0.891,2.755,1.025,2.72c1.692-0.439,3.438-0.945,4.912-1.854
			c0.992-0.612,1.572-1.892,2.855-3.537c0.703,4.111,2.563,6.271,5.854,5.728C229.987,360.266,231.701,357.94,231.22,353.878z
			 M46.537,164.724c0.413,0.319,0.826,0.639,1.239,0.958c2.077-1.487,4.576-2.622,6.153-4.524
			c5.247-6.328,10.221-12.889,15.124-19.49c0.55-0.741,0.433-2.752-0.185-3.388c-0.756-0.78-2.383-1.005-3.6-0.931
			c-0.668,0.041-1.934,1.448-1.797,1.806c2.046,5.361-2.013,8.145-4.745,12.066c-0.601-3.299-1.332-6.068-1.57-8.879
			c-0.499-5.879-2.992-7.276-8.093-4.532C55.212,147.315,55.628,156.321,46.537,164.724z M481.188,91.631
			c5.347-0.104,7.122-1.657,7.095-6.207c-0.025-4.388-3.126-7.215-7.879-7.183c-3.4,0.023-7.547,4.122-7.383,7.299
			C473.197,88.974,476.872,91.714,481.188,91.631z M401.438,96.583c0-0.026,0-0.052,0-0.078c-2.374,0-4.764-0.168-7.113,0.069
			c-1.239,0.125-2.407,0.956-3.606,1.468c1.181,0.811,2.331,2.264,3.547,2.32c5.361,0.249,10.745,0.176,16.113,0.005
			c0.864-0.028,1.692-1.146,2.537-1.761c-0.828-0.675-1.613-1.86-2.49-1.932C407.446,96.433,404.436,96.583,401.438,96.583z
			 M391.115,90.013c-0.252,3.044,1.089,3.82,3.325,3.841c5.223,0.05,10.444,0.155,15.666,0.289c2.919,0.074,3.28-1.483,2.577-4.13
			C405.538,90.013,398.392,90.013,391.115,90.013z M414.889,153.925c-3.783-3.247-19.801-3.033-23.134,0.105
			C395.079,156.037,411.732,156.085,414.889,153.925z M392.104,159.427c-0.079,0.448-0.159,0.896-0.237,1.345
			c1.122,0.453,2.231,1.262,3.367,1.299c5.602,0.186,11.211,0.243,16.814,0.149c0.991-0.016,1.967-0.958,2.949-1.474
			c-0.992-0.652-1.964-1.83-2.979-1.87c-5.599-0.221-11.209-0.204-16.815-0.168C394.169,158.714,393.137,159.176,392.104,159.427z"
			/>
		<path fill-rule="evenodd" clip-rule="evenodd" d="M385.999,305.127c-6.064,0-11.519,0.034-16.972-0.007
			c-16.104-0.12-32.21-0.232-48.313-0.415c-43.478-0.494-86.955-0.987-130.43-1.582c-4.947-0.067-9.878-0.984-14.828-1.123
			c-3.623-0.102-7.268,0.684-10.895,0.617c-6.071-0.111-12.132-0.757-18.203-0.871c-10.62-0.199-21.249-0.383-31.863-0.117
			c-3.946,0.099-4.777-1.571-4.696-4.813c0.237-9.565,0.52-19.132,0.653-28.699c0.177-12.729,0.231-25.461,0.333-38.19
			c0.176-22.113,0.291-44.227,0.555-66.339c0.074-6.207,0.72-12.406,0.827-18.613c0.048-2.806-0.928-5.635-0.839-8.434
			c0.415-12.935,1.311-25.859,1.526-38.796c0.296-17.838,0.141-35.684,0.172-53.527c0.01-5.853,0.001-11.705,0.001-17.806
			c3.831-1.018,4.371,2.655,6.023,4.072c4.112,3.528,8.025,7.425,11.345,11.697c2.847,3.664,6.489,6.308,9.673,9.501
			c5.162,5.178,9.77,10.903,14.851,16.166c5.891,6.102,12.055,11.94,18.074,17.918c3.953,3.925,7.806,7.953,11.804,11.831
			c3.839,3.724,7.9,7.222,11.679,11.004c1.782,1.784,2.981,4.139,4.701,5.996c6.822,7.365,13.686,14.695,20.669,21.905
			c2.024,2.089,4.636,3.599,6.742,5.622c3.087,2.966,5.91,6.207,8.94,9.235c3.374,3.372,6.864,6.627,10.285,9.952
			c4.46,4.333,9.039,8.554,13.313,13.063c4.327,4.565,8.209,9.551,12.54,14.111c3.478,3.66,7.478,6.822,10.987,10.456
			c3.643,3.771,6.941,7.874,10.467,11.762c0.803,0.884,2.034,1.369,2.876,2.228c4.729,4.819,9.362,9.734,14.1,14.546
			c5.714,5.807,11.549,11.496,17.239,17.325c4.203,4.308,8.259,8.761,12.385,13.146c1.665,1.77,3.324,3.545,5.019,5.287
			c4.37,4.495,8.703,9.028,13.155,13.441c4.896,4.854,9.967,9.532,14.854,14.395c3.497,3.48,6.854,7.106,10.179,10.752
			C385.448,302.394,385.471,303.42,385.999,305.127z M118.421,40.339c0,16.217,0.204,31.083-0.042,45.94
			c-0.496,29.894,1.342,59.827-1.605,89.688c-0.623,6.306-0.214,12.715-0.251,19.078c-0.075,12.991-0.119,25.984-0.198,38.978
			c-0.119,19.365-0.229,38.731-0.421,58.097c-0.025,2.592,0.997,3.562,3.517,3.575c13.239,0.073,26.477,0.212,39.715,0.35
			c29.463,0.308,58.926,0.633,88.389,0.918c0.862,0.008,1.728-0.36,3.165-0.682c-5.881-9.191-11.402-17.821-17.097-26.725
			c3.652-1.291,5.973-0.469,8.033,2.091c0.624,0.776,2.128,1.034,3.254,1.096c0.314,0.017,1.047-1.528,1.022-2.339
			c-0.394-12.326,4.793-23.017,9.871-33.717c0.964-2.03,2.409-3.88,3.865-5.618c2.376-2.837,4.943-5.514,7.577-8.42
			c-4.432-1.102-8.132-2.022-11.832-2.942c-0.005-0.361-0.01-0.723-0.016-1.084c1.015-0.618,1.957-1.541,3.057-1.801
			c4.095-0.964,8.229-1.781,12.371-2.516c3.803-0.674,7.666-1.036,11.441-1.825c1.16-0.243,2.448-1.26,3.022-2.288
			c0.264-0.471-0.956-1.914-1.683-2.763c-1.097-1.281-2.374-2.404-3.531-3.635c-6.485-6.895-12.883-13.875-19.457-20.685
			c-6.725-6.967-13.584-13.807-20.452-20.635c-5.333-5.302-10.801-10.471-16.15-15.757c-2.414-2.386-4.658-4.94-7.025-7.373
			c-3.957-4.065-7.994-8.053-11.916-12.151c-3.09-3.228-5.915-6.719-9.115-9.83c-4.074-3.959-8.581-7.48-12.59-11.499
			c-6.466-6.481-12.625-13.267-19.014-19.825c-4.689-4.813-9.635-9.377-14.294-14.218c-3.72-3.865-7.095-8.059-10.772-11.967
			c-5.292-5.623-10.677-11.16-16.125-16.631C122.108,42.196,120.602,41.647,118.421,40.339z M371.253,298.416
			c0.063-0.223,0.558-1.126,0.349-1.339c-26.948-27.456-53.948-54.861-81.043-82.368c-0.433,0.341-0.885,0.579-1.179,0.944
			c-3.088,3.848-6.075,7.776-9.24,11.56c-3.09,3.695-6.312,7.285-9.591,10.815c-0.449,0.483-1.856,0.743-2.291,0.412
			c-0.592-0.45-1.007-1.608-0.914-2.395c0.245-2.101,0.802-4.165,1.358-6.837c-9.369,5.715-20.769,32.91-17.448,40.161
			c0.595-0.722,1.069-1.431,1.674-2.001c1.33-1.253,2.726-2.437,4.094-3.648c0.259,1.757,0.843,3.537,0.719,5.267
			c-0.585,8.15-1.305,16.294-2.106,24.426c-0.297,3.009,0.806,3.76,3.771,3.766c27.112,0.058,54.227,0.272,81.339,0.466
			c5.368,0.038,10.737,0.11,16.102,0.305c2.944,0.106,5.874,0.582,8.817,0.734C367.322,298.77,368.996,298.537,371.253,298.416z"/>
		<path fill-rule="evenodd" clip-rule="evenodd" d="M450.673,99.208c2.86-1.297,4.736-0.99,6.319,1.919
			c0.675,1.242,2.954,2.269,4.481,2.241c2.531-0.046,4.415-1.744,4.652-4.513c0.239-2.778,0.323-6.13-2.657-7.084
			c-1.993-0.637-4.635,0.736-6.983,1.227c-1.342,0.281-2.761,0.999-3.983,0.743c-0.718-0.149-1.733-1.952-1.557-2.787
			c0.867-4.083,2.024-8.11,3.248-12.105c0.207-0.678,1.206-1.519,1.896-1.573c3.693-0.295,7.413-0.559,11.101-0.372
			c0.895,0.045,2.258,1.752,2.422,2.843c0.282,1.88-0.961,2.855-3.048,2.677c-1.854-0.158-3.767-0.23-5.588,0.063
			c-0.913,0.146-1.683,1.188-2.516,1.826c0.79,0.662,1.624,1.939,2.365,1.887c4.794-0.333,8.538,1.803,10.217,5.84
			c2.016,4.845,0.624,9.748-2.747,13.87c-1.504,1.839-8.898,2.892-11.821,1.804C452.855,106.367,450.784,103.408,450.673,99.208z"/>
		<path fill-rule="evenodd" clip-rule="evenodd" d="M358.121,91.922c0.577-3.723,0.715-6.757,1.559-9.579
			c1.473-4.922,4.686-6.906,9.886-6.718c3.262,0.118,6.442,3.214,7.588,7.369c0.426,1.542,0.937,3.063,1.314,4.617
			c1.647,6.774-0.968,12.363-5.127,17.385c-3.147,3.801-11.429,2.211-13.067-3.597C359.341,98.095,358.74,94.695,358.121,91.922z
			 M369.01,104.317c3.2-2.803,3.546-6.341,2.992-9.509c-0.439-2.51-3.215-3.879-5.812-2.9c-0.996,0.376-1.729,2.511-1.86,3.912
			C363.986,99.453,366.127,101.935,369.01,104.317z M368.592,89.673c0.201,0.277,0.401,0.554,0.602,0.831
			c1.033-0.924,2.844-1.758,2.963-2.788c0.52-4.477-1.791-9.521-3.711-8.854c-3.19,1.109-3.913,4.112-4.23,7.249
			C363.857,89.622,365.796,90.076,368.592,89.673z"/>
		<path fill-rule="evenodd" clip-rule="evenodd" d="M438.106,100.526c-3.724-0.408-7.006-0.699-10.267-1.144
			c-2.937-0.401-3.091-2.581-1.826-4.355c3.232-4.537,6.783-8.85,10.312-13.168c1.297-1.589,2.68-3.28,4.39-4.319
			c2.508-1.524,4.015-0.542,4.112,2.43c0.105,3.237-0.063,6.483-0.022,9.724c0.028,2.227-0.905,4.838,2.361,5.95
			c0.318,0.108,0.379,2.987-0.186,3.321c-2.164,1.281-2.323,3.07-2.096,5.134c0.231,2.106-0.592,3.734-2.743,3.466
			c-1.771-0.22-4.052-0.701-3.793-3.563C438.445,102.92,438.206,101.809,438.106,100.526z M438.217,89.442
			c-0.231-0.149-0.464-0.299-0.697-0.448c-1.334,1.649-2.668,3.3-4.002,4.95c0.253,0.297,0.506,0.595,0.759,0.892
			c1.245,0,2.489,0,3.94,0C438.217,92.837,438.217,91.139,438.217,89.442z"/>
		<path fill-rule="evenodd" clip-rule="evenodd" d="M438.499,158.753c1.024-2.981,2.194-5.922,3.027-8.957
			c0.688-2.511,2.366-3.668,4.573-3.1c0.636,0.164,1.196,3.037,0.8,4.373c-1.816,6.125-3.664,12.28-6.156,18.147
			c-1.327,3.125-3.773,5.889-6.16,8.39c-0.813,0.852-3.04,0.677-4.515,0.403c-0.526-0.098-0.98-1.871-1.009-2.892
			c-0.019-0.658,0.642-1.613,1.264-1.966c4.071-2.314,4.761-4.008,3.259-8.32c-1.688-4.847-3.328-9.711-4.977-14.572
			c-0.549-1.615-1.018-3.286,1.33-3.843c1.966-0.467,3.229,0.151,3.908,2.31c1.046,3.319,2.444,6.527,3.694,9.781
			C437.858,158.588,438.179,158.671,438.499,158.753z"/>
		<path fill-rule="evenodd" clip-rule="evenodd" d="M365.979,155.913c-2.184-3.115-4.296-6.126-6.429-9.168
			c4.111-1.974,5.512-1.41,9.428,3.693c3.079-1.927,5.312-6.393,10.746-3.586c-1.621,2.151-3.099,4.323-4.795,6.308
			c-1.865,2.181-3.177,3.963-0.055,6.374c1.738,1.342,2.974,3.487,4.027,5.485c0.4,0.759-0.401,3.075-0.563,3.065
			c-1.929-0.109-4.227,0.017-5.654-1.002c-1.597-1.14-2.401-3.39-3.55-5.157c-1.428,1.611-3,3.119-4.242,4.862
			c-1.291,1.811-2.67,3.229-4.859,1.779c-2.19-1.45-1.144-3.166,0.083-4.775C362.113,161.168,364.053,158.506,365.979,155.913z"/>
		<path fill-rule="evenodd" clip-rule="evenodd" d="M231.22,353.878c0.481,4.063-1.233,6.388-4.55,6.936
			c-3.292,0.544-5.151-1.616-5.854-5.728c-1.283,1.646-1.863,2.925-2.855,3.537c-1.473,0.908-3.219,1.414-4.912,1.854
			c-0.135,0.035-1.131-1.824-1.025-2.72c0.092-0.784,1.038-1.811,1.84-2.112c6.558-2.476,7.742-8.288,2.649-12.931
			c-0.811-0.738-1.05-2.104-1.554-3.181c1.053-0.475,2.069-1.219,3.167-1.372c2.792-0.39,5.259,0.091,5.73,3.831
			c1.578-1.117,2.77-2.354,4.219-2.874c1.349-0.484,3.098-0.569,4.423-0.112c0.672,0.231,1.426,2.587,1.042,3.031
			c-0.802,0.93-2.289,1.517-3.577,1.722c-2.403,0.383-5.005,2.979-4.901,5.444C225.22,352.926,227.434,354.295,231.22,353.878z"/>
		<path fill-rule="evenodd" clip-rule="evenodd" d="M46.537,164.724c9.091-8.402,8.675-17.409,2.527-26.913
			c5.102-2.745,7.594-1.347,8.093,4.532c0.238,2.811,0.969,5.58,1.57,8.879c2.732-3.922,6.791-6.706,4.745-12.066
			c-0.137-0.358,1.129-1.765,1.797-1.806c1.217-0.075,2.844,0.151,3.6,0.931c0.617,0.636,0.735,2.647,0.185,3.388
			c-4.903,6.602-9.877,13.162-15.124,19.49c-1.577,1.902-4.077,3.037-6.153,4.524C47.363,165.363,46.95,165.043,46.537,164.724z"/>
		<path fill-rule="evenodd" clip-rule="evenodd" d="M481.188,91.631c-4.315,0.083-7.99-2.657-8.167-6.091
			c-0.164-3.177,3.982-7.276,7.383-7.299c4.753-0.032,7.854,2.795,7.879,7.183C488.31,89.974,486.534,91.527,481.188,91.631z
			 M484.512,83.147c-0.418-0.413-0.837-0.826-1.255-1.239c-1.812,0.584-3.798,0.896-5.335,1.899c-0.528,0.345-0.311,3.293,0.22,3.52
			c1.377,0.587,3.55,0.947,4.591,0.225C483.821,86.797,483.959,84.673,484.512,83.147z"/>
		<path fill-rule="evenodd" clip-rule="evenodd" d="M401.438,96.583c2.998,0,6.009-0.15,8.987,0.092
			c0.877,0.072,1.662,1.257,2.49,1.932c-0.845,0.614-1.673,1.733-2.537,1.761c-5.368,0.171-10.752,0.244-16.113-0.005
			c-1.216-0.057-2.366-1.51-3.547-2.32c1.199-0.513,2.367-1.344,3.606-1.468c2.35-0.237,4.739-0.069,7.113-0.069
			C401.438,96.531,401.438,96.557,401.438,96.583z"/>
		<path fill-rule="evenodd" clip-rule="evenodd" d="M391.115,90.013c7.276,0,14.423,0,21.568,0c0.703,2.647,0.342,4.204-2.577,4.13
			c-5.222-0.133-10.443-0.239-15.666-0.289C392.204,93.833,390.863,93.058,391.115,90.013z"/>
		<path fill-rule="evenodd" clip-rule="evenodd" d="M414.889,153.925c-3.156,2.16-19.81,2.111-23.134,0.105
			C395.088,150.893,411.105,150.679,414.889,153.925z"/>
		<path fill-rule="evenodd" clip-rule="evenodd" d="M392.104,159.427c1.032-0.251,2.064-0.713,3.099-0.719
			c5.606-0.035,11.217-0.053,16.815,0.168c1.016,0.04,1.987,1.218,2.979,1.87c-0.982,0.515-1.958,1.458-2.949,1.474
			c-5.604,0.093-11.213,0.037-16.814-0.149c-1.136-0.037-2.245-0.846-3.367-1.299C391.945,160.324,392.025,159.875,392.104,159.427z
			"/>
		<path fill-rule="evenodd" clip-rule="evenodd" fill="#FFFFFF" d="M118.421,40.339c2.181,1.308,3.687,1.857,4.711,2.885
			c5.448,5.471,10.833,11.009,16.125,16.631c3.677,3.908,7.053,8.103,10.772,11.967c4.659,4.841,9.604,9.406,14.294,14.218
			c6.39,6.558,12.548,13.344,19.014,19.825c4.009,4.019,8.516,7.54,12.59,11.499c3.2,3.11,6.025,6.602,9.115,9.83
			c3.922,4.098,7.959,8.086,11.916,12.151c2.368,2.433,4.612,4.987,7.025,7.373c5.349,5.287,10.817,10.456,16.15,15.757
			c6.868,6.828,13.728,13.667,20.452,20.635c6.574,6.81,12.972,13.79,19.457,20.685c1.157,1.23,2.435,2.354,3.531,3.635
			c0.727,0.849,1.946,2.292,1.683,2.763c-0.574,1.028-1.862,2.045-3.022,2.288c-3.775,0.789-7.639,1.151-11.441,1.825
			c-4.143,0.734-8.276,1.552-12.371,2.516c-1.1,0.26-2.042,1.183-3.057,1.801c0.006,0.361,0.011,0.723,0.016,1.084
			c3.7,0.92,7.4,1.841,11.832,2.942c-2.634,2.906-5.201,5.583-7.577,8.42c-1.456,1.738-2.901,3.588-3.865,5.618
			c-5.078,10.7-10.265,21.391-9.871,33.717c0.025,0.811-0.708,2.355-1.022,2.339c-1.126-0.062-2.63-0.319-3.254-1.096
			c-2.06-2.56-4.381-3.382-8.033-2.091c5.695,8.903,11.216,17.533,17.097,26.725c-1.437,0.321-2.302,0.689-3.165,0.682
			c-29.463-0.285-58.926-0.61-88.389-0.918c-13.238-0.138-26.476-0.276-39.715-0.35c-2.52-0.014-3.542-0.983-3.517-3.575
			c0.193-19.365,0.303-38.731,0.421-58.097c0.08-12.993,0.123-25.986,0.198-38.978c0.038-6.362-0.371-12.772,0.251-19.078
			c2.947-29.862,1.109-59.794,1.605-89.688C118.625,71.422,118.421,56.557,118.421,40.339z M237.715,231.124
			c-0.059-7.693-1.298-9.946-4.883-10.828c-4.084-1.004-10.003,1.894-12.375,5.457c-2.662,4.003-4.445,8.361-6.458,12.669
			c-2.559,5.474-2.556,9.834,1.427,14.509c0.876,1.029,2.667,2.039,3.883,1.88c3.967-0.517,7.127-2.132,9.956-5.616
			C234.141,243.188,236.733,236.606,237.715,231.124z"/>
		<path fill-rule="evenodd" clip-rule="evenodd" fill="#FFFFFF" d="M371.253,298.416c-2.257,0.121-3.931,0.354-5.589,0.268
			c-2.943-0.152-5.873-0.628-8.817-0.734c-5.364-0.194-10.733-0.267-16.102-0.305c-27.112-0.193-54.227-0.408-81.339-0.466
			c-2.966-0.006-4.068-0.757-3.771-3.766c0.802-8.132,1.521-16.275,2.106-24.426c0.124-1.729-0.46-3.51-0.719-5.267
			c-1.368,1.212-2.765,2.396-4.094,3.648c-0.605,0.57-1.079,1.279-1.674,2.001c-3.321-7.251,8.079-34.446,17.448-40.161
			c-0.557,2.672-1.113,4.736-1.358,6.837c-0.093,0.786,0.322,1.944,0.914,2.395c0.435,0.331,1.842,0.071,2.291-0.412
			c3.279-3.53,6.501-7.12,9.591-10.815c3.165-3.783,6.152-7.712,9.24-11.56c0.294-0.365,0.746-0.604,1.179-0.944
			c27.095,27.507,54.095,54.912,81.043,82.368C371.811,297.29,371.316,298.193,371.253,298.416z"/>
		<path fill-rule="evenodd" clip-rule="evenodd" fill="#FFFFFF" d="M369.01,104.317c-2.883-2.382-5.023-4.864-4.68-8.498
			c0.132-1.401,0.864-3.536,1.86-3.912c2.597-0.979,5.372,0.391,5.812,2.9C372.556,97.977,372.21,101.515,369.01,104.317z"/>
		<path fill-rule="evenodd" clip-rule="evenodd" fill="#FFFFFF" d="M368.592,89.673c-2.796,0.403-4.734-0.051-4.377-3.563
			c0.317-3.136,1.04-6.14,4.23-7.249c1.92-0.667,4.23,4.377,3.711,8.854c-0.119,1.03-1.93,1.864-2.963,2.788
			C368.993,90.227,368.793,89.95,368.592,89.673z"/>
		<path fill-rule="evenodd" clip-rule="evenodd" fill="#FFFFFF" d="M438.217,89.442c0,1.697,0,3.396,0,5.394
			c-1.451,0-2.695,0-3.94,0c-0.253-0.296-0.506-0.594-0.759-0.892c1.334-1.65,2.668-3.301,4.002-4.95
			C437.753,89.143,437.985,89.292,438.217,89.442z"/>
		<path fill-rule="evenodd" clip-rule="evenodd" fill="#FFFFFF" d="M484.512,83.147c-0.553,1.526-0.69,3.65-1.779,4.405
			c-1.041,0.722-3.214,0.362-4.591-0.225c-0.53-0.226-0.748-3.174-0.22-3.52c1.537-1.003,3.523-1.315,5.335-1.899
			C483.675,82.322,484.094,82.734,484.512,83.147z"/>
		<path fill-rule="evenodd" clip-rule="evenodd" d="M237.715,231.124c-0.981,5.482-3.574,12.063-8.449,18.07
			c-2.829,3.484-5.989,5.1-9.956,5.616c-1.216,0.159-3.006-0.851-3.883-1.88c-3.983-4.675-3.986-9.035-1.427-14.509
			c2.013-4.308,3.796-8.666,6.458-12.669c2.371-3.563,8.29-6.461,12.375-5.457C236.417,221.178,237.656,223.431,237.715,231.124z
			 M220.594,235.4c9.682,1.47,11.475,0.353,11.711-6.925c0.054-1.642-0.462-4.089-1.586-4.812c-2.106-1.354-3.15,0.681-3.852,2.545
			c-0.148,0.393-0.848,0.546-1.098,0.936C224.113,229.72,222.51,232.328,220.594,235.4z M228.129,238.959
			c-6.638-0.88-6.642-0.881-8.974,4.814c-0.367,0.896-0.918,1.8-0.968,2.723c-0.115,2.167,0.992,3.169,3.233,2.785
			C224.965,248.675,228.935,242.594,228.129,238.959z"/>
		<path fill-rule="evenodd" clip-rule="evenodd" fill="#FFFFFF" d="M220.594,235.4c1.917-3.072,3.519-5.681,5.175-8.256
			c0.25-0.39,0.95-0.543,1.098-0.936c0.702-1.864,1.746-3.899,3.852-2.545c1.124,0.723,1.64,3.17,1.586,4.812
			C232.069,235.753,230.275,236.87,220.594,235.4z"/>
		<path fill-rule="evenodd" clip-rule="evenodd" fill="#FFFFFF" d="M228.129,238.959c0.806,3.635-3.164,9.716-6.708,10.322
			c-2.241,0.384-3.348-0.618-3.233-2.785c0.049-0.923,0.601-1.827,0.968-2.723C221.487,238.078,221.492,238.079,228.129,238.959z"/>
	</g>
</g>
</svg>
