<?xml version="1.0" encoding="utf-8"?>
<!-- Generator: Adobe Illustrator 16.0.0, SVG Export Plug-In . SVG Version: 6.00 Build 0)  -->
<!DOCTYPE svg PUBLIC "-//W3C//DTD SVG 1.1//EN" "http://www.w3.org/Graphics/SVG/1.1/DTD/svg11.dtd">
<svg version="1.1" id="Layer_1" xmlns="http://www.w3.org/2000/svg" xmlns:xlink="http://www.w3.org/1999/xlink" x="0px" y="0px"
	 width="560.328px" height="255.035px" viewBox="0 0 560.328 255.035" enable-background="new 0 0 560.328 255.035"
	 xml:space="preserve">
<g>
	<g>
		<path fill-rule="evenodd" clip-rule="evenodd" fill="#FFFFFF" d="M0.778,255.626c0-84.89,0-169.883,0-254.848
			c186.786,0,373.543,0,560.3,0c0,84.915,0,169.802,0,254.848C374.302,255.626,187.526,255.626,0.778,255.626z M107.94,178.393
			c0.21,0.26,0.421,0.52,0.632,0.779c1.438,0,2.914-0.205,4.306,0.049c1.977,0.362,4.104,0.707,5.782,1.706
			c2.156,1.284,3.923,3.218,5.869,4.856c2.951,2.487,5.91,4.965,8.869,7.442c3.197,2.675,6.392,5.351,9.597,8.015
			c2.999,2.493,6.046,4.927,9.003,7.468c3.077,2.643,6.033,5.425,9.109,8.068c4.062,3.492,8.348,6.739,12.234,10.413
			c2.922,2.761,7.268,3.313,8.955,0.871c1.34-1.942,3.127-3.67,4.998-5.135c4.458-3.492,9.186-6.643,13.608-10.178
			c3.955-3.158,7.451-6.908,11.501-9.923c5.282-3.931,11.068-7.185,16.342-11.126c4.328-3.233,8.176-7.101,12.331-10.574
			c1.992-1.665,4.239-3.021,6.305-4.603c3.02-2.313,6.046-4.622,8.939-7.087c1.759-1.498,3.024-3.693,4.946-4.858
			c4.311-2.616,8.433-5.089,12.124-8.861c5.324-5.443,12.024-9.552,18.203-14.141c5.021-3.73,10.209-7.239,15.199-11.01
			c5.063-3.826,9.974-7.856,14.954-11.792c3.771-2.978,7.617-5.865,11.287-8.962c1.778-1.5,3.484-3.228,4.711-5.174
			c0.545-0.863,0.246-2.807-0.399-3.775c-2.381-3.581-4.865-7.134-7.688-10.369c-3.315-3.8-6.918-7.369-10.59-10.833
			c-3.674-3.467-7.579-6.691-11.398-10.002c-4.921-4.266-9.641-8.804-14.854-12.677c-4.403-3.272-9.408-5.726-14.104-8.612
			c-4.22-2.594-8.249-5.529-12.609-7.849c-3.325-1.769-7.069-2.733-10.569-4.193c-6.066-2.531-11.902-5.855-18.185-7.549
			c-5.246-1.414-9.91-4.24-15.695-4.641c-9.241-0.639-18.318-3.766-27.558-4.333c-18.84-1.155-37.723-0.846-56.449,2.184
			c-2.684,0.434-5.364,0.896-8.037,1.395c-3.157,0.588-6.423,0.89-9.429,1.932c-4.038,1.401-7.831,3.492-11.805,5.099
			c-3.898,1.576-8.002,2.674-11.82,4.413c-7.173,3.267-14.351,6.578-21.249,10.374c-5.72,3.147-11.094,6.94-16.519,10.598
			c-3.019,2.036-5.811,4.407-8.745,6.573c-1.328,0.981-2.874,1.691-4.112,2.765c-3.952,3.425-7.906,6.859-11.662,10.494
			c-2.377,2.301-4.351,5.013-6.599,7.453c-1.675,1.819-3.323,3.742-5.301,5.182c-2.722,1.982-5.227,6.536-4.593,9.658
			c0.212,1.043,0.745,2.633,1.477,2.861c5.471,1.7,8.498,6.514,12.804,9.664c2.522,1.845,5.324,3.352,7.66,5.399
			c3.799,3.328,7.145,7.179,10.997,10.438c5.902,4.993,12.13,9.599,18.114,14.499c7.319,5.993,14.458,12.208,21.826,18.139
			c2.462,1.981,5.557,3.167,8.064,5.104c3.129,2.416,5.797,5.435,8.949,7.816C110.434,173.933,111.417,175.78,107.94,178.393z
			 M516.941,63.025c0.317-0.413,0.635-0.827,0.951-1.24c-0.955-0.878-1.873-2.472-2.872-2.524
			c-11.049-0.583-22.109-1.005-33.171-1.237c-1.306-0.027-3.433,1.048-3.822,2.11c-1.616,4.398-2.838,8.957-3.968,13.516
			c-1.723,6.949-3.251,13.945-4.862,20.92c-0.259,1.116-0.521,2.23-0.782,3.346c-0.462,0.091-0.923,0.182-1.386,0.273
			c-1.125-2.302-2.767-4.5-3.254-6.93c-0.704-3.518-2.873-2.923-5.038-2.438c-1.319,0.295-2.512,1.155-4.129,1.94
			c0,1.402,0,3.193,0,4.641c1.908,0.627,4.19,0.671,4.846,1.725c2.163,3.482,3.722,7.338,5.545,11.035
			c1.019,2.065,3.788,2.551,4.788,0.792c0.977-1.716,1.974-3.5,2.49-5.384c1.465-5.351,2.739-10.756,3.997-16.16
			c1.874-8.045,3.67-16.109,5.549-24.385C493.795,63.025,505.367,63.025,516.941,63.025z M496.084,72.481
			c-1.27,1.76-3.157,3.64-4.158,5.91c-2.232,5.065-4.21,10.266-5.928,15.53c-1.162,3.564-4.729,6.579-2.854,10.915
			c3.785,0.917,5.614-0.523,6.208-4.349c0.242-1.562,1.44-3.889,2.666-4.236c8.294-2.347,11.521-0.165,12.904,8.121
			c0.033,0.196,0.295,0.353,0.374,0.442c1.886,0,3.684,0,5.921,0c-1.194-3.269-2.319-6.125-3.271-9.036
			c-0.604-1.848-0.771-3.847-1.456-5.655c-0.914-2.409-2.231-4.662-3.219-7.047C501.733,79.355,502.136,74.543,496.084,72.481z
			 M543.175,137.658c-0.137,1.533-0.303,2.881-0.363,4.233c-0.06,1.331-0.013,2.667-0.013,4.193c-2.711,0-5.102-0.282-7.383,0.093
			c-1.682,0.277-3.961,0.991-4.676,2.248c-1.713,3.014-2.732,6.438-3.858,9.754c-0.239,0.705,0.104,1.737,0.457,2.487
			c0.908,1.938,2.048,3.77,2.958,5.706c1.607,3.421,6.597,4.87,10.036,3.206c1.551-0.75,3.521-0.632,5.302-0.909
			c0.15,0.401,0.3,0.801,0.45,1.201c0.67-1.214,1.896-2.416,1.921-3.644c0.174-8.242,0.192-16.492,0.034-24.735
			C547.991,138.973,546.873,136.873,543.175,137.658z M524.913,168.14c0-5.343,0.328-10.331-0.124-15.249
			c-0.269-2.914-1.171-5.679-4.811-7.188c-4.378-1.816-8.197-0.492-11.75,1.059c-1.862,0.813-5.068,3.028-2.769,6.659
			c2.383,0.65,4.343,0.694,6.224-1.793c2.378-3.144,4.431-2.588,7.077,1.565c-1.011,0.272-1.999,0.369-2.823,0.79
			c-3.365,1.721-7.912,0.018-10.552,4.165c-1.959,3.08-1.305,8.822,2.034,9.774c2.907,0.83,5.875,3.604,9.192,0.348
			c0.699-0.687,2.629-0.124,3.992-0.13C522.042,168.135,523.48,168.14,524.913,168.14z M459.901,168.08
			c6.102,0,11.836-0.072,17.567,0.037c2.177,0.042,3.714-0.295,3.794-2.871c0.083-2.68-1.747-2.561-3.566-2.55
			c-3.011,0.019-6.021,0.005-9.031,0.005c-0.214-0.454-0.428-0.909-0.641-1.364c3.616-3.284,7.355-6.446,10.813-9.892
			c2.781-2.771,1.477-9.479-1.319-12.141c-3.287-3.13-6.966-2.27-10.624-2.135c-4.565,0.167-7.346,4.011-6.479,8.753
			c2.454,0.973,4.26,0.457,5.918-1.854c1.657-2.31,4.608-3.209,6.616-1.289c1.072,1.025,1.107,4.658,0.114,6.027
			c-2.642,3.638-5.774,7.103-9.322,9.846C460.545,161.124,459.126,163.689,459.901,168.08z M392.333,152.688
			c0.264,0.036,0.525,0.074,0.788,0.111c0,2.112-0.097,4.23,0.023,6.337c0.156,2.748,5.524,8.414,8.194,8.802
			c2.644,0.385,8.761-3.275,9.521-6.27c1.951-7.679,3.183-15.262-2.3-22.411c-2.123-2.768-4.389-3.946-7.447-3.334
			c-2.948,0.591-5.697,2.091-6.511,5.324C393.654,145.012,393.074,148.869,392.333,152.688z M272.768,186.754
			c4.116,2.017,2.809,5.119,2.075,7.795c-1.042,3.802-2.548,7.477-3.991,11.588c2.499,0,4.045,0,4.603,0
			c2.402-4.459,4.645-8.206,6.456-12.152c0.984-2.143,2.083-2.072,3.704-1.146c2.624,1.499,3.682-0.004,3.996-2.271
			c0.196-1.412-0.145-2.899-0.311-5.317c-2.532,0.92-4.47,1.624-6.763,2.457C280.318,183.948,276.677,186.347,272.768,186.754z
			 M495.979,167.831c0-3.323-0.369-6.819,0.111-10.194c0.417-2.926,0.742-6.619,4.414-7.464c2.023-0.466,3.656-1,2.97-2.993
			c-0.378-1.096-2.453-2.014-3.887-2.243c-2.035-0.327-4.245-0.213-6.259,0.247c-1.009,0.229-2.456,1.609-2.495,2.521
			c-0.231,5.421-0.025,10.858-0.137,16.288C490.625,167.468,492.034,168.819,495.979,167.831z M398.084,102.703
			c0.456-6.097,0.89-11.903,1.332-17.83c2.752,0,4.453,0,6.624,0c-0.124-1.863-0.232-3.495-0.358-5.39
			c-3.878,0.259-7.296,0.488-11.434,0.764c-0.081,0.852-0.274,2.145-0.317,3.442c-0.157,4.724,0.065,9.488-0.482,14.163
			C392.904,102.5,393.017,102.949,398.084,102.703z M418.655,96.916c8.514,2.747,20.345,2.522,23.833-1.333
			c-4.725-0.599-8.748-1.576-12.743-1.479C425.965,94.196,421.297,91.971,418.655,96.916z M446.869,161.266
			c0.215-0.48,0.431-0.962,0.646-1.442c-1.257-0.734-2.484-2.037-3.775-2.104c-5.229-0.269-10.477-0.118-15.716-0.202
			c-2.545-0.04-3.344,1.103-2.67,3.749C432.515,161.266,439.691,161.266,446.869,161.266z M446.768,153.732
			c0.231-0.438,0.465-0.874,0.697-1.312c-1.131-0.773-2.235-2.166-3.396-2.216c-5.343-0.223-10.699-0.067-16.051-0.054
			c-2.224,0.005-3.235,0.993-2.654,3.581C432.472,153.732,439.619,153.732,446.768,153.732z M442.579,90.182
			c-4.218-4.179-20.985-3.981-22.934,0C427.204,90.182,434.477,90.182,442.579,90.182z"/>
		<path fill-rule="evenodd" clip-rule="evenodd" d="M107.94,178.393c3.477-2.612,2.494-4.46-0.276-6.553
			c-3.152-2.382-5.82-5.4-8.949-7.816c-2.507-1.937-5.602-3.122-8.064-5.104c-7.368-5.931-14.506-12.146-21.826-18.139
			c-5.984-4.899-12.211-9.506-18.114-14.499c-3.852-3.258-7.198-7.11-10.997-10.438c-2.336-2.047-5.138-3.554-7.66-5.399
			c-4.306-3.15-7.333-7.964-12.804-9.664c-0.732-0.228-1.265-1.818-1.477-2.861c-0.634-3.122,1.871-7.676,4.593-9.658
			c1.978-1.44,3.626-3.363,5.301-5.182c2.248-2.44,4.222-5.152,6.599-7.453c3.755-3.635,7.709-7.069,11.662-10.494
			c1.239-1.073,2.784-1.784,4.112-2.765c2.934-2.166,5.726-4.537,8.745-6.573c5.425-3.658,10.799-7.451,16.519-10.598
			c6.898-3.796,14.076-7.107,21.249-10.374c3.818-1.738,7.921-2.836,11.82-4.413c3.974-1.606,7.767-3.698,11.805-5.099
			c3.006-1.042,6.271-1.343,9.429-1.932c2.673-0.498,5.353-0.96,8.037-1.395c18.726-3.03,37.608-3.339,56.449-2.184
			c9.24,0.567,18.316,3.693,27.558,4.333c5.786,0.401,10.45,3.227,15.695,4.641c6.283,1.694,12.119,5.019,18.185,7.549
			c3.5,1.46,7.244,2.424,10.569,4.193c4.36,2.32,8.389,5.255,12.609,7.849c4.696,2.886,9.701,5.34,14.104,8.612
			c5.214,3.874,9.934,8.412,14.854,12.677c3.819,3.312,7.725,6.536,11.398,10.002c3.672,3.464,7.274,7.033,10.59,10.833
			c2.823,3.235,5.308,6.788,7.688,10.369c0.646,0.969,0.944,2.912,0.399,3.775c-1.227,1.946-2.933,3.674-4.711,5.174
			c-3.67,3.097-7.517,5.984-11.287,8.962c-4.98,3.936-9.891,7.966-14.954,11.792c-4.99,3.771-10.178,7.279-15.199,11.01
			c-6.179,4.589-12.879,8.697-18.203,14.141c-3.69,3.772-7.813,6.245-12.124,8.861c-1.921,1.165-3.187,3.36-4.946,4.858
			c-2.893,2.465-5.919,4.774-8.939,7.087c-2.066,1.582-4.313,2.938-6.305,4.603c-4.155,3.474-8.002,7.341-12.331,10.574
			c-5.274,3.941-11.06,7.195-16.342,11.126c-4.051,3.015-7.547,6.765-11.501,9.923c-4.423,3.535-9.15,6.686-13.608,10.178
			c-1.871,1.465-3.658,3.192-4.998,5.135c-1.687,2.442-6.033,1.89-8.955-0.871c-3.886-3.674-8.172-6.921-12.234-10.413
			c-3.076-2.644-6.032-5.426-9.109-8.068c-2.957-2.541-6.004-4.975-9.003-7.468c-3.205-2.664-6.4-5.34-9.597-8.015
			c-2.958-2.478-5.917-4.955-8.869-7.442c-1.946-1.639-3.713-3.572-5.869-4.856c-1.678-0.999-3.805-1.344-5.782-1.706
			c-1.392-0.254-2.868-0.049-4.306-0.049C108.361,178.912,108.15,178.652,107.94,178.393z M332.914,103.752
			c-0.19-0.383-0.469-1.408-1.096-2.126c-2.375-2.721-5.53-4.99-7.158-8.079c-2.683-5.087-7.494-7.997-11.051-12.144
			c-3.779-4.405-9.293-7.274-13.438-11.423c-6.977-6.982-14.935-12.558-23.583-17.025c-4.341-2.244-7.328-6.614-12.597-7.376
			c-2.34-0.338-5.288-0.566-6.048-3.85c-0.048-0.211-0.914-0.22-1.393-0.348c-2.934-0.779-5.977-1.287-8.773-2.409
			c-4.997-2.003-9.667-5.01-14.795-6.454c-7.988-2.247-16.254-3.494-24.382-5.259c-2.759-0.6-5.435-2.05-8.182-2.148
			c-12.915-0.459-25.84-0.708-38.762-0.76c-4.722-0.019-9.528,0.299-14.151,1.205c-7.067,1.385-14.016,3.382-21,5.181
			c-5.076,1.308-10.15,2.636-15.185,4.096c-9.6,2.785-18.708,6.761-27.449,11.601c-0.822,0.456-1.907,0.453-2.703,0.938
			c-2.863,1.745-5.643,3.624-8.474,5.421c-5.706,3.623-11.709,6.853-17.066,10.933C49.093,68.705,43,74.283,36.901,79.806
			c-3.928,3.558-6.545,8.281-11.113,11.456c-3.155,2.192-2.459,4.495,0.427,7.272c2.089,2.009,3.847,4.491,6.225,6.039
			c2.35,1.53,4.132,3.422,6.126,5.276c4.45,4.136,9.908,7.162,14.603,11.064c7.139,5.936,13.758,12.507,21.007,18.296
			c7.333,5.854,14.881,11.354,21.918,17.659c4.967,4.451,10.882,8.079,15.841,12.778c0.316,0.301,1.947-0.085,2.254-0.587
			c2.255-3.689,4.32-7.495,6.46-11.255c2.194-3.854,4.406-7.696,6.611-11.544c0.426,0.147,0.853,0.294,1.279,0.441
			c0,4.572,0,9.146,0,14.181c3.397-2.155,6.03-4.265,9.008-5.612c4.665-2.112,9.553-3.733,14.365-5.515
			c3.268-1.21,6.486-2.887,9.869-3.382c6.038-0.885,12.177-1.258,18.286-1.441c9.532-0.286,19.048-0.068,28.137,3.47
			c4.411,1.718,8.825,3.438,13.297,4.986c2.411,0.836,4.946,1.311,7.393,1.938c-0.417-3.914-0.764-7.169-1.111-10.424
			c0.475-0.261,0.951-0.521,1.427-0.782c0.942,1.049,1.977,2.028,2.811,3.156c2.873,3.884,5.617,7.862,8.525,11.719
			c1.686,2.234,3.937,4.105,5.309,6.499c1.735,3.03,2.772,3.445,5.653,1.19c5.489-4.294,10.976-8.59,16.539-12.787
			c4.478-3.379,9.184-6.464,13.575-9.949c4.734-3.758,9.087-7.999,13.854-11.711c3.914-3.048,8.438-5.077,12.127-8.714
			c4.961-4.892,10.988-8.702,16.553-12.984C326.929,108.405,329.688,106.252,332.914,103.752z M121.015,176.4
			c1.224,1.096,2.525,2.395,3.962,3.519c2.771,2.171,5.86,3.994,8.373,6.421c2.865,2.768,5.176,6.044,9.052,7.7
			c1.445,0.616,2.469,2.17,3.759,3.201c3.424,2.738,6.875,5.443,10.342,8.127c3.126,2.421,6.39,4.677,9.407,7.225
			c3.72,3.14,7.149,6.633,10.948,9.668c0.728,0.583,2.846,0.161,3.865-0.502c2.354-1.53,4.385-3.546,6.622-5.268
			c5.138-3.956,10.343-7.823,15.477-11.783c6.365-4.91,12.966-9.565,18.922-14.936c3.764-3.393,8.932-4.78,11.94-9.204
			c1.102-1.621,3.182-2.873,5.081-3.576c2.016-0.746,4.054-1.652,3.408-3.738c-0.39-1.259-2.722-2.195-4.36-2.736
			c-4.633-1.531-9.364-2.763-14.044-4.153c-2.146-0.638-4.3-1.279-6.38-2.098c-0.952-0.375-1.733-1.185-2.592-1.797
			c0.177-0.352,0.354-0.703,0.531-1.055c1.845-0.13,3.708-0.15,5.525-0.444c0.684-0.11,1.747-0.828,1.776-1.32
			c0.041-0.693-0.551-1.835-1.163-2.091c-4.916-2.061-9.793-4.326-14.894-5.801c-5.057-1.464-10.326-2.596-15.564-2.954
			c-9.291-0.637-18.593-0.192-27.639,2.474c-2.502,0.736-4.958,1.974-7.5,2.174c-8.077,0.636-14.405,5.181-21.156,9.041
			c2.58,0.165,5.16,0.331,9.179,0.589c-1.387,2.109-1.961,4.107-3.143,4.576c-4.347,1.728-8.98,2.732-13.332,4.451
			C125.193,172.989,123.336,174.805,121.015,176.4z"/>
		<path fill-rule="evenodd" clip-rule="evenodd" d="M516.941,63.025c-11.574,0-23.146,0-35.118,0
			c-1.879,8.276-3.675,16.34-5.549,24.385c-1.258,5.404-2.532,10.81-3.997,16.16c-0.517,1.883-1.514,3.667-2.49,5.384
			c-1,1.759-3.77,1.272-4.788-0.792c-1.823-3.696-3.382-7.552-5.545-11.035c-0.655-1.054-2.938-1.098-4.846-1.725
			c0-1.448,0-3.239,0-4.641c1.617-0.785,2.81-1.645,4.129-1.94c2.165-0.485,4.334-1.08,5.038,2.438
			c0.487,2.43,2.129,4.628,3.254,6.93c0.463-0.091,0.924-0.182,1.386-0.273c0.261-1.116,0.523-2.23,0.782-3.346
			c1.611-6.975,3.14-13.972,4.862-20.92c1.13-4.559,2.352-9.117,3.968-13.516c0.39-1.063,2.517-2.138,3.822-2.11
			c11.062,0.232,22.122,0.653,33.171,1.237c0.999,0.053,1.917,1.646,2.872,2.524C517.576,62.198,517.259,62.612,516.941,63.025z"/>
		<path fill-rule="evenodd" clip-rule="evenodd" d="M496.084,72.481c6.052,2.062,5.649,6.874,7.188,10.595
			c0.987,2.386,2.305,4.638,3.219,7.047c0.686,1.808,0.853,3.808,1.456,5.655c0.952,2.912,2.077,5.768,3.271,9.036
			c-2.237,0-4.035,0-5.921,0c-0.079-0.089-0.341-0.247-0.374-0.442c-1.384-8.286-4.61-10.468-12.904-8.121
			c-1.226,0.347-2.424,2.674-2.666,4.236c-0.594,3.826-2.423,5.266-6.208,4.349c-1.875-4.336,1.691-7.35,2.854-10.915
			c1.718-5.265,3.695-10.465,5.928-15.53C492.927,76.121,494.814,74.241,496.084,72.481z M499.737,89.827
			c-0.889-3.187-1.707-6.125-2.527-9.063c-0.375,0.048-0.751,0.096-1.126,0.144c-0.771,2.873-1.543,5.746-2.395,8.919
			C495.97,89.827,497.667,89.827,499.737,89.827z"/>
		<path fill-rule="evenodd" clip-rule="evenodd" d="M543.175,137.658c3.698-0.785,4.816,1.314,4.865,3.834
			c0.158,8.243,0.14,16.493-0.034,24.735c-0.025,1.228-1.251,2.43-1.921,3.644c-0.15-0.4-0.3-0.8-0.45-1.201
			c-1.78,0.277-3.751,0.159-5.302,0.909c-3.439,1.664-8.429,0.215-10.036-3.206c-0.91-1.937-2.05-3.768-2.958-5.706
			c-0.353-0.75-0.696-1.782-0.457-2.487c1.126-3.316,2.146-6.74,3.858-9.754c0.715-1.257,2.994-1.971,4.676-2.248
			c2.281-0.375,4.672-0.093,7.383-0.093c0-1.526-0.047-2.862,0.013-4.193C542.872,140.539,543.038,139.191,543.175,137.658z
			 M534.914,150.595c-2.408,5.239-3.472,9.46,0.801,12.543c1.152,0.83,4.46,0.517,5.37-0.514c2.482-2.813,2.586-6.686,0.285-9.544
			C540.14,151.551,537.191,151.402,534.914,150.595z"/>
		<path fill-rule="evenodd" clip-rule="evenodd" d="M524.913,168.14c-1.433,0-2.871-0.005-4.309,0
			c-1.363,0.006-3.293-0.557-3.992,0.13c-3.317,3.256-6.285,0.482-9.192-0.348c-3.339-0.952-3.993-6.694-2.034-9.774
			c2.64-4.147,7.187-2.444,10.552-4.165c0.824-0.421,1.813-0.518,2.823-0.79c-2.646-4.153-4.699-4.709-7.077-1.565
			c-1.881,2.487-3.841,2.443-6.224,1.793c-2.3-3.631,0.906-5.846,2.769-6.659c3.553-1.551,7.372-2.875,11.75-1.059
			c3.64,1.51,4.542,4.274,4.811,7.188C525.241,157.809,524.913,162.797,524.913,168.14z M519.191,159.979
			c-0.154-0.442-0.309-0.885-0.463-1.327c-2.744,0.907-5.487,1.813-8.525,2.817C513.684,165.265,516.315,164.637,519.191,159.979z"
			/>
		<path fill-rule="evenodd" clip-rule="evenodd" d="M459.901,168.08c-0.775-4.391,0.644-6.956,3.839-9.427
			c3.548-2.743,6.681-6.208,9.322-9.846c0.993-1.369,0.958-5.002-0.114-6.027c-2.008-1.92-4.959-1.021-6.616,1.289
			c-1.658,2.311-3.464,2.826-5.918,1.854c-0.866-4.742,1.914-8.586,6.479-8.753c3.658-0.135,7.337-0.995,10.624,2.135
			c2.796,2.661,4.101,9.37,1.319,12.141c-3.457,3.445-7.196,6.607-10.813,9.892c0.213,0.455,0.427,0.91,0.641,1.364
			c3.01,0,6.021,0.014,9.031-0.005c1.819-0.011,3.649-0.13,3.566,2.55c-0.08,2.576-1.617,2.913-3.794,2.871
			C471.737,168.008,466.003,168.08,459.901,168.08z"/>
		<path fill-rule="evenodd" clip-rule="evenodd" d="M392.333,152.688c0.741-3.818,1.321-7.676,2.269-11.44
			c0.813-3.233,3.563-4.733,6.511-5.324c3.059-0.612,5.324,0.566,7.447,3.334c5.482,7.149,4.251,14.732,2.3,22.411
			c-0.76,2.994-6.877,6.654-9.521,6.27c-2.67-0.388-8.038-6.054-8.194-8.802c-0.12-2.106-0.023-4.225-0.023-6.337
			C392.858,152.762,392.597,152.724,392.333,152.688z M397.752,150.106c3.015,0,4.888,0.123,6.731-0.055
			c0.853-0.082,2.09-0.541,2.398-1.188c1.807-3.784-2.485-9.451-7.268-9.048C399.048,142.948,398.456,146.213,397.752,150.106z
			 M398.411,153.76c0,2.421-0.417,4.513,0.13,6.313c0.453,1.495,1.834,3.301,3.194,3.729c0.996,0.314,3.377-1.073,3.85-2.229
			c2.823-6.915,2.061-7.871-5.424-7.813C399.688,153.764,399.216,153.76,398.411,153.76z"/>
		<path fill-rule="evenodd" clip-rule="evenodd" d="M272.768,186.754c3.909-0.407,7.551-2.806,9.77,0.952
			c2.293-0.833,4.23-1.537,6.763-2.457c0.166,2.418,0.507,3.905,0.311,5.317c-0.314,2.268-1.372,3.771-3.996,2.271
			c-1.621-0.926-2.72-0.996-3.704,1.146c-1.812,3.946-4.054,7.693-6.456,12.152c-0.558,0-2.104,0-4.603,0
			c1.442-4.111,2.949-7.786,3.991-11.588C275.576,191.873,276.884,188.771,272.768,186.754z"/>
		<path fill-rule="evenodd" clip-rule="evenodd" d="M495.979,167.831c-3.944,0.988-5.354-0.363-5.282-3.839
			c0.111-5.43-0.095-10.867,0.137-16.288c0.039-0.911,1.486-2.291,2.495-2.521c2.014-0.46,4.224-0.574,6.259-0.247
			c1.434,0.229,3.509,1.147,3.887,2.243c0.687,1.993-0.946,2.527-2.97,2.993c-3.672,0.845-3.997,4.538-4.414,7.464
			C495.609,161.012,495.979,164.508,495.979,167.831z"/>
		<path fill-rule="evenodd" clip-rule="evenodd" d="M398.084,102.703c-5.067,0.246-5.18-0.203-4.636-4.851
			c0.548-4.675,0.325-9.438,0.482-14.163c0.043-1.297,0.236-2.59,0.317-3.442c4.138-0.276,7.556-0.504,11.434-0.764
			c0.126,1.895,0.234,3.527,0.358,5.39c-2.171,0-3.872,0-6.624,0C398.974,90.8,398.54,96.606,398.084,102.703z"/>
		<path fill-rule="evenodd" clip-rule="evenodd" d="M418.655,96.915c2.642-4.944,7.31-2.719,11.09-2.811
			c3.995-0.097,8.019,0.88,12.743,1.479C439,99.438,427.169,99.663,418.655,96.915z"/>
		<path fill-rule="evenodd" clip-rule="evenodd" d="M446.869,161.266c-7.178,0-14.354,0-21.516,0
			c-0.674-2.646,0.125-3.789,2.67-3.749c5.239,0.084,10.487-0.066,15.716,0.202c1.291,0.067,2.519,1.37,3.775,2.104
			C447.3,160.304,447.084,160.785,446.869,161.266z"/>
		<path fill-rule="evenodd" clip-rule="evenodd" d="M446.768,153.732c-7.148,0-14.296,0-21.403,0
			c-0.581-2.588,0.431-3.576,2.654-3.581c5.352-0.014,10.708-0.169,16.051,0.054c1.16,0.05,2.265,1.442,3.396,2.216
			C447.232,152.858,446.999,153.295,446.768,153.732z"/>
		<path fill-rule="evenodd" clip-rule="evenodd" d="M442.579,90.182c-8.103,0-15.375,0-22.934,0
			C421.594,86.201,438.361,86.003,442.579,90.182z"/>
		<path fill-rule="evenodd" clip-rule="evenodd" fill="#FFFFFF" d="M332.914,103.752c-3.226,2.5-5.985,4.653-8.759,6.788
			c-5.564,4.282-11.592,8.092-16.553,12.984c-3.688,3.638-8.213,5.667-12.127,8.714c-4.767,3.712-9.119,7.953-13.854,11.711
			c-4.391,3.485-9.097,6.57-13.575,9.949c-5.563,4.197-11.05,8.493-16.539,12.787c-2.881,2.255-3.918,1.84-5.653-1.19
			c-1.372-2.394-3.623-4.265-5.309-6.499c-2.908-3.856-5.653-7.835-8.525-11.719c-0.834-1.128-1.869-2.107-2.811-3.156
			c-0.476,0.261-0.952,0.521-1.427,0.782c0.347,3.255,0.693,6.51,1.111,10.424c-2.447-0.628-4.982-1.103-7.393-1.938
			c-4.472-1.548-8.886-3.269-13.297-4.986c-9.089-3.538-18.605-3.756-28.137-3.47c-6.109,0.184-12.249,0.557-18.286,1.441
			c-3.383,0.495-6.601,2.172-9.869,3.382c-4.812,1.781-9.7,3.402-14.365,5.515c-2.978,1.348-5.611,3.457-9.008,5.612
			c0-5.035,0-9.608,0-14.181c-0.426-0.147-0.853-0.294-1.279-0.441c-2.205,3.848-4.417,7.69-6.611,11.544
			c-2.14,3.76-4.205,7.565-6.46,11.255c-0.307,0.502-1.938,0.888-2.254,0.587c-4.958-4.699-10.874-8.327-15.841-12.778
			c-7.037-6.306-14.585-11.805-21.918-17.659c-7.249-5.789-13.868-12.361-21.007-18.296c-4.695-3.902-10.153-6.928-14.603-11.064
			c-1.994-1.854-3.776-3.746-6.126-5.276c-2.377-1.548-4.135-4.029-6.225-6.039c-2.886-2.777-3.582-5.08-0.427-7.272
			c4.567-3.174,7.185-7.897,11.113-11.456C43,74.283,49.093,68.705,55.628,63.728c5.357-4.08,11.36-7.31,17.066-10.933
			c2.831-1.798,5.611-3.677,8.474-5.421c0.796-0.485,1.881-0.483,2.703-0.938c8.741-4.84,17.849-8.815,27.449-11.601
			c5.034-1.46,10.108-2.789,15.185-4.096c6.983-1.799,13.933-3.796,21-5.181c4.623-0.906,9.429-1.224,14.151-1.205
			c12.922,0.051,25.848,0.301,38.762,0.76c2.748,0.098,5.423,1.548,8.182,2.148c8.128,1.765,16.395,3.012,24.382,5.259
			c5.128,1.443,9.799,4.45,14.795,6.454c2.797,1.122,5.839,1.63,8.773,2.409c0.479,0.127,1.344,0.136,1.393,0.348
			c0.76,3.283,3.708,3.511,6.048,3.85c5.269,0.762,8.256,5.132,12.597,7.376c8.648,4.467,16.606,10.043,23.583,17.025
			c4.145,4.149,9.658,7.018,13.438,11.423c3.557,4.146,8.368,7.056,11.051,12.144c1.628,3.089,4.783,5.358,7.158,8.079
			C332.445,102.345,332.724,103.37,332.914,103.752z M175.24,88.499c-2.613-2.594-3.974-4.898-2.506-8.146
			c0.583-1.289,0.349-2.94,0.527-4.421c0.612-5.061-1.109-10.384,1.973-15.23c0.478-0.751-0.826-2.633-1.305-3.993
			c-1.178,0.798-2.445,1.495-3.494,2.437c-0.479,0.429-0.365,1.468-0.798,2.009c-6.388,7.988-12.862,15.91-19.185,23.949
			c-0.604,0.767-0.338,2.217-0.482,3.39c2.103,0,3.672,0,5.21,0c0.948-7.699,4.604-10.311,11.39-8.21
			c-0.051,2.831,1.32,6.112-2.594,8.215C167.552,88.499,171.128,88.499,175.24,88.499z"/>
		<path fill-rule="evenodd" clip-rule="evenodd" fill="#FFFFFF" d="M121.015,176.4c2.321-1.596,4.178-3.411,6.405-4.291
			c4.352-1.719,8.985-2.724,13.332-4.451c1.181-0.469,1.755-2.467,3.143-4.576c-4.02-0.258-6.599-0.424-9.179-0.589
			c6.751-3.86,13.079-8.405,21.156-9.041c2.541-0.2,4.997-1.438,7.5-2.174c9.046-2.666,18.348-3.11,27.639-2.474
			c5.238,0.358,10.507,1.49,15.564,2.954c5.101,1.475,9.978,3.74,14.894,5.801c0.612,0.256,1.204,1.397,1.163,2.091
			c-0.029,0.492-1.092,1.21-1.776,1.32c-1.818,0.294-3.68,0.314-5.525,0.444c-0.177,0.352-0.354,0.703-0.531,1.055
			c0.859,0.612,1.64,1.422,2.592,1.797c2.081,0.818,4.234,1.46,6.38,2.098c4.68,1.391,9.411,2.622,14.044,4.153
			c1.638,0.541,3.97,1.478,4.36,2.736c0.646,2.086-1.393,2.992-3.408,3.738c-1.899,0.703-3.979,1.955-5.081,3.576
			c-3.008,4.424-8.176,5.812-11.94,9.204c-5.956,5.37-12.557,10.025-18.922,14.936c-5.134,3.96-10.339,7.827-15.477,11.783
			c-2.237,1.722-4.269,3.737-6.622,5.268c-1.019,0.663-3.137,1.085-3.865,0.502c-3.798-3.035-7.228-6.528-10.948-9.668
			c-3.017-2.548-6.281-4.804-9.407-7.225c-3.466-2.684-6.918-5.389-10.342-8.127c-1.291-1.031-2.314-2.585-3.759-3.201
			c-3.876-1.656-6.188-4.933-9.052-7.7c-2.513-2.427-5.602-4.25-8.373-6.421C123.54,178.795,122.238,177.496,121.015,176.4z
			 M184.916,168.99c-0.13-0.044-0.262-0.089-0.392-0.133c0-0.873,0.047-1.749-0.009-2.618c-0.178-2.782-5.061-7.729-7.204-7.026
			c-2.403,0.787-4.759,1.903-6.896,3.255c-1.527,0.967-2.928,2.384-3.907,3.907c-1.642,2.556-2.642,5.542-4.387,8.011
			c-2.712,3.837-3.31,8.04-3.068,12.501c0.246,4.543,2.513,6.383,6.943,6.802c7.431,0.701,10.697-5.175,13.846-9.646
			C182.765,179.893,183.318,174.074,184.916,168.99z"/>
		<path fill-rule="evenodd" clip-rule="evenodd" fill="#FFFFFF" d="M499.737,89.827c-2.07,0-3.768,0-6.048,0
			c0.852-3.173,1.623-6.046,2.395-8.919c0.375-0.048,0.751-0.096,1.126-0.144C498.03,83.701,498.849,86.64,499.737,89.827z"/>
		<path fill-rule="evenodd" clip-rule="evenodd" fill="#FFFFFF" d="M534.914,150.595c2.277,0.808,5.226,0.956,6.456,2.485
			c2.301,2.858,2.197,6.73-0.285,9.544c-0.91,1.03-4.218,1.344-5.37,0.514C531.442,160.055,532.506,155.834,534.914,150.595z"/>
		<path fill-rule="evenodd" clip-rule="evenodd" fill="#FFFFFF" d="M519.191,159.979c-2.876,4.658-5.508,5.286-8.988,1.49
			c3.038-1.004,5.781-1.91,8.525-2.817C518.883,159.094,519.037,159.536,519.191,159.979z"/>
		<path fill-rule="evenodd" clip-rule="evenodd" fill="#FFFFFF" d="M397.752,150.106c0.704-3.894,1.296-7.158,1.862-10.291
			c4.782-0.403,9.074,5.264,7.268,9.048c-0.309,0.647-1.546,1.106-2.398,1.188C402.64,150.229,400.767,150.106,397.752,150.106z"/>
		<path fill-rule="evenodd" clip-rule="evenodd" fill="#FFFFFF" d="M398.411,153.76c0.805,0,1.277,0.004,1.75,0
			c7.484-0.058,8.247,0.898,5.424,7.813c-0.473,1.155-2.854,2.543-3.85,2.229c-1.36-0.429-2.741-2.234-3.194-3.729
			C397.994,158.272,398.411,156.181,398.411,153.76z"/>
		<path fill-rule="evenodd" clip-rule="evenodd" d="M175.24,88.499c-4.112,0-7.688,0-11.263,0c3.914-2.104,2.542-5.385,2.594-8.215
			c-6.787-2.1-10.442,0.512-11.39,8.21c-1.538,0-3.108,0-5.21,0c0.144-1.173-0.122-2.623,0.482-3.39
			c6.323-8.04,12.797-15.961,19.185-23.949c0.433-0.542,0.319-1.58,0.798-2.009c1.049-0.941,2.316-1.639,3.494-2.437
			c0.479,1.36,1.782,3.242,1.305,3.993c-3.082,4.846-1.361,10.169-1.973,15.23c-0.179,1.481,0.056,3.132-0.527,4.421
			C171.266,83.601,172.627,85.905,175.24,88.499z M168.433,70.193c-0.31-0.122-0.62-0.244-0.93-0.366
			c-0.956,0.687-2.126,1.214-2.802,2.111c-0.575,0.762-0.581,1.954-0.837,2.955c0.792,0.105,2.132,0.53,2.288,0.262
			C167.065,73.591,167.703,71.864,168.433,70.193z"/>
		<path fill-rule="evenodd" clip-rule="evenodd" d="M184.916,168.99c-1.597,5.084-2.151,10.902-5.074,15.053
			c-3.149,4.471-6.416,10.347-13.846,9.646c-4.43-0.419-6.697-2.259-6.943-6.802c-0.241-4.461,0.356-8.664,3.068-12.501
			c1.746-2.469,2.745-5.455,4.387-8.011c0.979-1.523,2.379-2.94,3.907-3.907c2.137-1.352,4.493-2.468,6.896-3.255
			c2.143-0.703,7.026,4.244,7.204,7.026c0.056,0.869,0.009,1.745,0.009,2.618C184.654,168.901,184.785,168.946,184.916,168.99z
			 M176.626,175.389c0.421-1.37,0.832-2.495,1.11-3.651c0.519-2.156,1.305-4.34,1.258-6.495c-0.018-0.799-1.986-1.916-3.22-2.188
			c-0.731-0.162-2.069,0.841-2.603,1.665c-1.354,2.096-2.424,4.379-3.579,6.601c-0.609,1.173-1.157,2.376-1.976,4.069
			C171.233,175.389,173.813,175.389,176.626,175.389z M175.227,179.126c-2.346,0-4.675-0.186-6.961,0.048
			c-2.831,0.289-5.33,6.721-3.405,8.77c0.697,0.743,2.104,1.356,3.063,1.211C170.308,188.795,174.986,182.394,175.227,179.126z"/>
		<path fill-rule="evenodd" clip-rule="evenodd" fill="#FFFFFF" d="M168.433,70.193c-0.73,1.671-1.368,3.398-2.281,4.962
			c-0.155,0.268-1.495-0.157-2.288-0.262c0.257-1.001,0.262-2.192,0.837-2.955c0.676-0.897,1.846-1.424,2.802-2.111
			C167.813,69.949,168.123,70.071,168.433,70.193z"/>
		<path fill-rule="evenodd" clip-rule="evenodd" fill="#FFFFFF" d="M176.626,175.389c-2.813,0-5.393,0-9.01,0
			c0.819-1.693,1.367-2.896,1.976-4.069c1.155-2.222,2.225-4.505,3.579-6.601c0.533-0.824,1.872-1.827,2.603-1.665
			c1.234,0.272,3.203,1.39,3.22,2.188c0.047,2.155-0.739,4.339-1.258,6.495C177.458,172.894,177.047,174.019,176.626,175.389z"/>
		<path fill-rule="evenodd" clip-rule="evenodd" fill="#FFFFFF" d="M175.227,179.126c-0.241,3.268-4.919,9.669-7.302,10.028
			c-0.96,0.146-2.366-0.468-3.063-1.211c-1.925-2.049,0.574-8.48,3.405-8.77C170.552,178.94,172.881,179.126,175.227,179.126z"/>
	</g>
</g>
</svg>
