<?xml version="1.0" encoding="utf-8"?>
<!-- Generator: Adobe Illustrator 16.0.0, SVG Export Plug-In . SVG Version: 6.00 Build 0)  -->
<!DOCTYPE svg PUBLIC "-//W3C//DTD SVG 1.1//EN" "http://www.w3.org/Graphics/SVG/1.1/DTD/svg11.dtd">
<svg version="1.1" id="Layer_1" xmlns="http://www.w3.org/2000/svg" xmlns:xlink="http://www.w3.org/1999/xlink" x="0px" y="0px"
	 width="755.355px" height="254.285px" viewBox="0 0 755.355 254.285" enable-background="new 0 0 755.355 254.285"
	 xml:space="preserve">
<g>
	<g>
		<path fill-rule="evenodd" clip-rule="evenodd" fill="#FFFFFF" d="M0.75,255.035c0-84.762,0-169.523,0-254.285
			c251.786,0,503.57,0,755.355,0c0,84.762,0,169.523,0,254.285C504.32,255.035,252.536,255.035,0.75,255.035z M280.917,242.942
			c0.756-0.344,2.069-1.359,3.47-1.499c4.93-0.491,9.889-0.701,14.838-0.98c15.857-0.895,31.813,0.771,47.603-2.335
			c7.068-1.391,14.33,0.161,21.643-2.015c6.886-2.05,14.552-1.482,21.875-2.069c1.365-0.109,2.758-0.103,4.089-0.381
			c5.98-1.253,11.937-3.567,17.918-3.618c5.84-0.049,10.095-3.608,15.366-4.668c2.163-0.435,4.192-2.71,3.706-5.971
			c-0.398-2.674-0.229-5.444-0.183-8.171c0.228-13.401-3.252-26.235-6.042-39.162c-1.02-4.723-2.464-9.368-3.951-13.974
			c-1.341-4.151-2.934-8.228-4.543-12.286c-2.573-6.492-4.825-13.161-8.003-19.35c-3.288-6.399-7.373-12.411-11.375-18.415
			c-3.968-5.951-7.941-11.953-12.513-17.431c-4.763-5.707-10.159-10.901-15.455-16.141c-2.012-1.989-4.641-3.34-6.769-5.229
			c-4.742-4.208-9.068-8.931-14.079-12.771c-5.369-4.116-11.251-7.589-17.056-11.1c-4.436-2.683-9.019-5.158-13.687-7.415
			c-5.278-2.552-10.705-4.799-16.102-7.098c-3.745-1.596-7.479-3.267-11.345-4.513c-3.385-1.092-7.17-1.136-10.371-2.561
			c-3.576-1.592-6.827-3.758-10.96-3.67c-1.352,0.028-2.712-0.35-4.069-0.543c-6.862-0.974-13.722-2.729-20.589-2.758
			c-14.153-0.061-28.374-1.765-42.478,1.559c-5.766,1.358-11.861,1.289-17.792,1.995c-5.851,0.698-10.389,5.339-16.545,5.456
			c-2.506,0.047-5.078,1.031-7.466,1.977c-5.323,2.111-10.55,4.465-15.814,6.724c-3.594,1.542-7.39,2.742-10.735,4.71
			c-5.692,3.349-11.154,7.103-16.611,10.834c-5.383,3.681-10.75,7.404-15.906,11.39c-2.439,1.886-4.25,4.563-6.555,6.652
			c-4.951,4.488-10.382,8.498-14.976,13.315c-5.131,5.379-9.653,11.359-14.25,17.225c-3.214,4.101-6.418,8.268-9.072,12.734
			c-3.239,5.454-5.98,11.211-8.783,16.913c-3.273,6.659-6.88,13.216-9.425,20.154c-2.845,7.754-4.802,15.849-6.884,23.863
			c-1.799,6.922-3.761,13.868-4.69,20.931c-1.083,8.226-1.189,16.585-1.581,24.893c-0.174,3.697,1.24,6.615,5.033,7.885
			c4.158,1.391,8.272,2.952,12.498,4.096c5.272,1.426,10.586,2.85,15.975,3.653c10.289,1.536,20.625,2.806,30.975,3.86
			c9.764,0.996,19.567,1.61,29.359,2.295c1.573,0.11,3.189-0.485,4.772-0.424c17.048,0.658,34.089,1.842,51.14,1.993
			c33.359,0.296,66.723,0.002,100.085,0.049C276.594,241.555,278.577,242.404,280.917,242.942z M663.785,181.646
			c3.184-3.607,5.442-7.245,8.671-9.488c2.578-1.792,3.86-3.625,3.854-6.411c-0.007-2.689-0.101-5.499-0.901-8.019
			c-0.479-1.507-2.269-3.449-3.681-3.642c-3.896-0.532-7.97-0.667-11.831-0.06c-1.398,0.22-2.785,2.845-3.455,4.642
			c-0.568,1.525-0.096,3.438-0.083,5.18c1.309-0.474,2.657-0.86,3.905-1.46c0.573-0.274,0.853-1.175,1.427-1.433
			c1.889-0.849,3.827-2.003,5.793-2.101c1.138-0.057,3.266,1.61,3.36,2.646c0.196,2.151,0.071,5.084-1.229,6.479
			c-4.121,4.427-9.023,8.123-13.208,12.5c-1.066,1.114-0.905,3.74-0.66,5.585c0.081,0.611,2.186,1.319,3.383,1.353
			c4.865,0.136,9.737,0.039,14.605-0.002c1.702-0.015,3.752,0.398,3.659-2.381c-0.083-2.503-1.434-3.492-3.89-3.413
			C670.448,181.721,667.385,181.646,663.785,181.646z M564.762,141.816c-0.861-0.583-2.182-0.986-2.541-1.81
			c-1.161-2.661-1.993-5.469-2.905-8.234c-1.305-3.963-2.473-7.974-3.885-11.897c-0.873-2.427-2.272-4.397-5.797-2.987
			c0.173,2.031-0.047,4.124,0.596,5.906c1.022,2.832,2.897,5.356,3.917,8.189c2.232,6.198,4.154,12.509,6.254,18.929
			c6.815,1.95,7.384,0.723,9.829-6.553c0.964-2.868,2.169-5.656,3.133-8.525c1.709-5.095,3.4-10.199,4.88-15.361
			c0.229-0.802-0.702-1.936-1.097-2.917c-1.021,0.49-2.567,0.719-2.965,1.52c-1.328,2.676-2.225,5.564-3.322,8.357
			C568.914,131.381,566.943,136.318,564.762,141.816z M709.142,141.835c-0.428,0.066-0.854,0.134-1.281,0.201
			c-2.875-7.237-5.922-14.412-8.543-21.74c-1.14-3.185-2.642-4.501-6.249-3.367c0.217,1.7,0.069,3.426,0.68,4.821
			c2.333,5.337,5.09,10.492,7.338,15.861c1.709,4.084,2.887,8.391,4.263,12.485c5.06,0.907,6.924,0.164,7.892-2.913
			c1.1-3.498,2.118-7.03,3.427-10.45c1.895-4.953,4.231-9.746,5.91-14.765c0.499-1.493-0.578-3.513-0.933-5.292
			c-1.496,1.135-3.649,1.961-4.355,3.468c-1.684,3.592-2.604,7.534-3.982,11.28C712.018,134.932,710.537,138.368,709.142,141.835z
			 M591.544,150.283c0.763-4.504-0.56-7.54-3.299-8.408c-3.355-1.063-9.244,0.724-10.528,3.196
			c-3.632,6.989-1.354,14.986,5.26,18.467c2.604,1.37,7.001,0.072,8.849-2.549c1.856-2.633,2.32-5.006-1.152-7.032
			c-0.385,0.537-0.758,0.985-1.053,1.48c-2.838,4.784-5.912,4.847-8.865,0.173c-1.301-2.058-0.329-5.987,2.114-7.952
			c2.264-1.82,3.96-0.527,5.675,1.126C589.276,149.49,590.437,149.752,591.544,150.283z M721.604,135.754
			c0,8.373-0.079,16.455,0.129,24.529c0.02,0.754,1.852,1.46,2.842,2.189c0.321-0.276,0.643-0.554,0.964-0.829
			c0-3.725-0.298-7.485,0.153-11.153c0.17-1.386,1.899-2.846,3.28-3.665c0.457-0.271,2.392,1.141,3.022,2.169
			c0.791,1.29,1.198,2.959,1.303,4.497c0.196,2.889,0.057,5.8,0.057,8.644c3.285,0.272,4.001-1.111,3.939-3.35
			c-0.072-2.617,0.038-5.241-0.041-7.858c-0.205-6.806-2.696-9.161-9.449-9.067c-0.716,0.01-1.434-0.091-2.103-0.137
			C725.053,136.262,725.053,136.262,721.604,135.754z M667.508,121.967c3.302,1.103,4.089-0.266,4.07-2.758
			c-0.049-6.474-0.047-12.948-0.06-19.422c-0.007-3.704-0.001-7.408-0.001-11.192c-1.041-0.089-1.855-0.421-2.214-0.15
			c-3.408,2.586-6.85,5.155-9.989,8.046c-0.548,0.504,0.269,2.49,0.455,3.791c0.926-0.399,1.818-0.963,2.785-1.161
			c1.39-0.285,2.834-0.304,3.71-0.385C666.705,106.974,667.104,114.441,667.508,121.967z M647.408,140.73
			c3.337,0,6.155-0.043,8.972,0.008c7.473,0.137,14.944,0.393,22.418,0.419c1.805,0.006,4.291,0.386,4.497-2.608
			c0.223-3.229-2.146-2.716-4.096-2.718c-8.859-0.009-17.719,0.061-26.577-0.036C649.856,135.765,648.113,136.637,647.408,140.73z
			 M635.02,144.117c0.886-2.939-0.289-3.793-2.669-3.719c-1.99,0.063-3.982,0.063-5.975,0.061
			c-3.735-0.004-7.479-0.166-11.201,0.051c-0.902,0.053-1.733,1.324-2.598,2.036c0.56,0.524,1.112,1.495,1.681,1.504
			C621.2,144.154,628.146,144.117,635.02,144.117z M612.586,135.602c7.548,0,15.01,0,22.561,0c0.229-2.727-1.138-3.409-3.366-3.395
			c-5.089,0.034-10.185,0.108-15.266-0.107C614.031,131.995,612.833,132.84,612.586,135.602z"/>
		<path fill-rule="evenodd" clip-rule="evenodd" d="M280.917,242.942c-2.34-0.538-4.323-1.388-6.307-1.391
			c-33.362-0.047-66.726,0.247-100.085-0.049c-17.051-0.151-34.092-1.335-51.14-1.993c-1.583-0.062-3.199,0.534-4.772,0.424
			c-9.792-0.685-19.596-1.299-29.359-2.295c-10.35-1.055-20.687-2.324-30.975-3.86c-5.388-0.804-10.703-2.228-15.975-3.653
			c-4.226-1.144-8.34-2.705-12.498-4.096c-3.792-1.27-5.207-4.188-5.033-7.885c0.392-8.308,0.498-16.667,1.581-24.893
			c0.93-7.063,2.892-14.009,4.69-20.931c2.083-8.015,4.04-16.109,6.884-23.863c2.545-6.938,6.152-13.495,9.425-20.154
			c2.803-5.702,5.544-11.459,8.783-16.913c2.653-4.467,5.857-8.634,9.072-12.734c4.598-5.866,9.119-11.846,14.25-17.225
			c4.594-4.817,10.025-8.827,14.976-13.315c2.305-2.089,4.116-4.766,6.555-6.652c5.156-3.986,10.523-7.709,15.906-11.39
			c5.457-3.731,10.919-7.485,16.611-10.834c3.345-1.968,7.141-3.169,10.735-4.71c5.265-2.258,10.491-4.612,15.814-6.724
			c2.388-0.946,4.96-1.93,7.466-1.977c6.156-0.117,10.694-4.758,16.545-5.456c5.931-0.706,12.025-0.636,17.792-1.995
			c14.104-3.323,28.325-1.62,42.478-1.559c6.868,0.029,13.727,1.784,20.589,2.758c1.356,0.193,2.717,0.571,4.069,0.543
			c4.133-0.087,7.385,2.079,10.96,3.67c3.2,1.425,6.985,1.469,10.371,2.561c3.866,1.246,7.6,2.917,11.345,4.513
			c5.396,2.299,10.824,4.546,16.102,7.098c4.668,2.257,9.25,4.732,13.687,7.415c5.805,3.511,11.687,6.984,17.056,11.1
			c5.011,3.84,9.337,8.564,14.079,12.771c2.128,1.888,4.757,3.239,6.769,5.229c5.295,5.24,10.692,10.434,15.455,16.141
			c4.571,5.479,8.545,11.48,12.513,17.431c4.002,6.004,8.087,12.016,11.375,18.415c3.178,6.188,5.43,12.857,8.003,19.35
			c1.609,4.059,3.202,8.135,4.543,12.286c1.487,4.605,2.932,9.251,3.951,13.974c2.79,12.927,6.27,25.761,6.042,39.162
			c-0.047,2.727-0.216,5.497,0.183,8.171c0.486,3.261-1.543,5.536-3.706,5.971c-5.271,1.06-9.526,4.619-15.366,4.668
			c-5.981,0.051-11.938,2.365-17.918,3.618c-1.331,0.278-2.724,0.271-4.089,0.381c-7.323,0.587-14.989,0.02-21.875,2.069
			c-7.313,2.176-14.575,0.624-21.643,2.015c-15.79,3.106-31.746,1.44-47.603,2.335c-4.95,0.279-9.908,0.489-14.838,0.98
			C282.986,241.583,281.672,242.599,280.917,242.942z M341.306,199.813c0.011-0.895,0.022-1.788,0.033-2.683
			c0.767-0.981,1.534-1.962,2.301-2.94c2.266-1.171,2.757-2.75,1.112-4.822c-0.593-3.247-2.193-5.419-5.786-5.609
			c-0.548-0.028-1.348-0.32-1.567-0.736c-1.376-2.613-2.614-1.469-3.894,0.032c1.11-3.526,2.698-6.461,7.199-5.14
			c1.29,0.379,2.461,1.165,2.932,1.396c1.39-1.043,2.657-1.831,3.708-2.842c0.642-0.619,0.955-1.581,1.416-2.39
			c-1.048-0.399-2.192-1.269-3.116-1.076c-1.042,0.217-1.811,1.517-2.836,2.105c-0.918,0.526-2.024,0.727-3.048,1.069
			c-0.18-0.379-0.36-0.759-0.542-1.138c2.656-2.144,4.491-4.525,3.605-8.188c-0.166-0.686,1.022-1.791,1.726-2.576
			c2.898-3.235,2.974-8.298,0.107-11.154c-0.642-1.815-1.283-3.631-1.925-5.445c0.93-0.363,1.86-0.728,2.791-1.092
			c-0.5-0.834-0.972-1.687-1.51-2.494c-0.375-0.564-1.309-1.216-1.196-1.576c1.46-4.617-2.066-6.358-4.667-8.855
			c-1.728-1.659-2.884-2.745-4.484,0.446c-0.383-2.929,0.129-5.963-1.149-7.351c-2.709-2.943-6.635-4.595-9.224-7.96
			c-1.825-2.371-5.289-3.738-6.487-6.277c-2.362-5.005-7.291-7.236-10.54-11.264c-4.561-5.652-10.363-10.289-15.479-15.513
			c-3.477-3.55-6.474-7.589-10.074-10.998c-3.999-3.787-8.709-6.688-11.831-11.551c-1.88-2.928-5.197-4.937-7.879-7.346
			c-2.847-2.557-5.816-4.989-8.533-7.677c-3.071-3.04-5.836-6.387-8.892-9.442c-3.146-3.144-6.865-5.784-9.65-9.201
			c-5.104-6.26-8.513-6.533-13.491-0.461c-3.76,4.586-7.45,9.261-11.566,13.514c-3.909,4.039-8.476,7.433-12.499,11.37
			c-8.516,8.335-16.902,16.804-25.268,25.29c-3.327,3.375-6.391,7.009-9.693,10.41c-4.037,4.156-8.366,8.041-12.254,12.328
			c-2.896,3.192-4.983,7.143-7.986,10.211c-4.789,4.896-10.3,9.091-15.027,14.039c-5.107,5.344-9.665,11.213-14.893,17.36
			c3.807,0.466,4.93,2.794,3.876,5.038c-0.967,2.059-3.383,3.414-5.079,5.16c-1.338,1.378-2.553,2.876-3.822,4.321
			c1.399,0.556,2.765,1.233,4.209,1.624c0.937,0.253,2.054-0.121,2.966,0.172c0.819,0.263,1.737,0.904,2.144,1.638
			c1.174,2.12,2.112,4.371,3.143,6.571c-1.413-0.723-2.826-1.445-4.239-2.169c-0.381,0.845-1.303,2.007-1.032,2.469
			c0.61,1.043,1.812,1.74,2.773,2.578c-0.536,0.793-1.07,1.587-1.605,2.382c1.057,0.52,2.115,1.039,3.292,1.617
			c-0.297,0.831-0.533,1.487-0.811,2.263c0.982,0,1.938,0,2.328,0c-0.092,0.979-0.534,2.256-0.187,2.528
			c3.763,2.958,2.302,5.931,0.385,9.122c-1.055,1.758-1.697,3.585,0.908,5.064c0.632,0.358,0.814,2.867,0.232,3.737
			c-1.343,2.004-3.282,3.608-4.979,5.374c0.179,0.313,0.359,0.624,0.539,0.938c1.483-0.455,2.966-0.909,4.703-1.442
			c1.191,2.653,2.604,1.786,3.93-0.536c2.046,3.435,3.901,1.375,5.161,0.323c1.413,0.522,2.431,1.274,3.323,1.146
			c1.635-0.234,3.16-1.246,4.794-1.479c4.623-0.657,9.259,0.179,13.952-0.06c14.934-0.759,29.914-0.771,44.875-0.81
			c14.728-0.039,29.456,0.246,44.184,0.38c4.509,0.041,8.914-0.632,13.544-0.339c13.567,0.858,27.216,0.419,40.834,0.477
			c7.727,0.032,15.464-0.181,23.176,0.168c3.18,0.144,6.346,1.582,7.269-2.417c2.157,1.571,4.187,3.05,7.354,5.357
			c0.427-2.906,0.728-4.958,1.029-7.011c0.993,0.649,2.373,1.075,2.903,1.992c1.397,2.415,2.561,2.345,3.975,0.152
			c1.594,1.345,3.188,2.69,4.784,4.037c2.873-4.066,2.873-4.066,2.498-4.754c-1.659-0.291-2.74-0.723-3.749-0.595
			C343.623,198.757,342.478,199.388,341.306,199.813z M425.961,211.765c0.062-0.963,0.196-1.701,0.141-2.426
			c-0.642-8.205-0.818-16.415-3.381-24.433c-1.966-6.155-2.548-12.741-4.257-18.995c-1.533-5.612-3.856-11.004-5.665-16.548
			c-2.289-7.014-5.017-13.806-8.787-20.182c-2.6-4.394-4.688-9.105-7.454-13.384c-3.482-5.385-7.273-10.589-11.208-15.656
			c-4.418-5.688-9.011-11.257-13.79-16.644c-2.853-3.216-6.172-6.026-9.353-8.941c-3.657-3.351-7.195-6.878-11.144-9.854
			c-5.17-3.897-10.695-7.324-16.061-10.963c-3.292-2.231-6.47-4.652-9.883-6.678c-4.59-2.724-9.352-5.16-14.055-7.692
			c-0.742-0.399-1.55-0.688-2.348-0.969c-7.372-2.589-14.722-5.245-22.133-7.717c-4.659-1.554-9.342-3.157-14.135-4.156
			c-9.583-1.997-19.235-3.671-28.888-5.31c-3.076-0.522-6.242-0.515-9.829-0.783c0.5,1.91,0.449,3.147,1.042,3.742
			c2.788,2.794,5.748,5.416,8.654,8.092c2.719,2.503,5.552,4.896,8.146,7.523c3.191,3.232,6.057,6.789,9.306,9.957
			c2.697,2.631,5.897,4.745,8.599,7.372c3.689,3.587,7.107,7.451,10.655,11.184c4.259,4.481,8.514,8.965,12.804,13.416
			c2.219,2.302,4.449,4.601,6.785,6.782c3.185,2.974,6.506,5.8,9.715,8.749c3.738,3.433,7.427,6.918,11.114,10.406
			c0.611,0.579,1.115,1.276,1.639,1.942c1.087,1.382,1.987,2.959,3.259,4.14c4.743,4.401,9.769,8.507,14.377,13.041
			c4.605,4.532,8.78,9.499,13.252,14.169c3.068,3.205,6.392,6.165,9.471,9.359c2.48,2.575,4.609,5.499,7.169,7.984
			c5.058,4.911,10.391,9.539,15.447,14.452c3.627,3.523,6.859,7.456,10.502,10.963c4.638,4.467,9.538,8.66,14.268,13.034
			c1.217,1.127,2.204,2.5,3.318,3.741c3.22,3.582,6.394,7.208,9.733,10.675C423.531,211.719,424.825,211.558,425.961,211.765z
			 M220.225,22.028c-0.327-0.391-0.655-0.781-0.983-1.171c-0.969-0.051-1.981-0.313-2.899-0.12
			c-5.97,1.264-11.89,2.782-17.882,3.918c-7.749,1.469-15.6,2.425-23.311,4.054c-5.155,1.089-10.479,2.302-15.125,4.652
			c-6.254,3.165-13.117,4.681-19.144,8.821c-4.318,2.966-10.034,4.226-14.592,7.567c-5.567,4.08-11.996,6.877-17.113,11.711
			c-3.586,3.386-7.64,6.273-11.431,9.448c-2.115,1.771-4.213,3.581-6.15,5.54c-3.178,3.213-6.301,6.488-9.297,9.87
			c-4.921,5.556-9.946,11.045-14.501,16.895c-3.336,4.285-6.151,9.008-8.906,13.707c-3.434,5.855-6.644,11.847-9.774,17.871
			c-0.779,1.498-0.333,3.931-1.395,4.932c-4.656,4.388-4.686,10.729-6.89,16.048c-3.132,7.558-4.708,15.806-6.502,23.858
			c-1.369,6.146-2.225,12.425-2.969,18.686c-0.58,4.882-0.636,9.824-0.939,14.975c1.979-1.426,3.694-2.309,4.947-3.629
			c5.002-5.27,9.841-10.693,14.78-16.023c2.079-2.242,3.915-4.975,6.458-6.465c5.444-3.191,8.644-8.566,13.25-12.562
			c4.85-4.206,8.73-9.513,13.215-14.162c3.491-3.62,7.34-6.894,10.89-10.46c7.07-7.103,13.991-14.354,21.086-21.431
			c2.55-2.543,5.577-4.609,8.125-7.155c4.614-4.61,8.984-9.462,13.547-14.125c4.009-4.097,8.203-8.012,12.204-12.117
			c4.021-4.126,7.815-8.475,11.87-12.565c4.734-4.776,9.701-9.32,14.458-14.073c5.328-5.326,10.522-10.786,15.797-16.165
			c3.709-3.78,7.458-7.519,11.186-11.281c4.251-4.292,8.542-8.547,12.727-12.903C216.826,26.231,218.477,24.083,220.225,22.028z
			 M124.362,223.382c-3.345,1.033-6.328,1.396-8.616,2.851c-1.673,1.063-2.433,3.564-3.599,5.424
			c1.37,0.696,2.701,1.881,4.119,1.993c3.583,0.286,7.207,0.034,10.812,0.101c6.093,0.113,12.37-0.567,18.236,0.667
			c9.219,1.94,18.774-0.046,27.815,3.025c0.931,0.315,2.165-0.363,3.267-0.433c3.211-0.203,6.435-0.544,9.639-0.43
			c3.449,0.123,6.878,0.998,10.321,1.03c14.368,0.133,28.761-0.413,43.104,0.222c14.246,0.632,28.38-2.268,42.604-0.741
			c0.329,0.035,0.702-0.194,1.033-0.348c2.336-1.08,4.601-1.992,6.861,0.319c0.34,0.348,1.566-0.022,2.318-0.263
			c1.021-0.325,1.955-1.145,2.971-1.231c7.098-0.606,14.2-1.261,21.315-1.546c7.855-0.315,15.729-0.174,23.586-0.461
			c0.959-0.035,1.938-1.427,2.732-2.342c0.139-0.16-0.6-1.081-0.933-1.651c-0.765,0.758-1.532,1.516-2.948,2.916
			c-1.252-1.549-2.654-3.244-4.011-4.977c-0.957-1.22-1.893-2.461-2.76-3.746c-0.529-0.784-0.91-1.669-1.358-2.509
			c0.987-0.376,1.965-1.017,2.961-1.044c0.807-0.021,1.633,0.694,2.463,1.09c0.492-1.346,0.883-2.415,1.343-3.673
			c1.097,0.858,1.802,1.412,2.738,2.146c0.894-3.911,0.797-8.162,6.08-8.767c-0.714-1.046-1.369-2.006-1.738-2.548
			c-2.004,0.521-3.62,0.94-5.481,1.424c0.209,0.83,0.495,1.963,1.102,4.371c-1.923-1.056-3.274-1.431-4.046-2.313
			c-0.938-1.072-1.386-2.571-2.394-4.579c-0.598,1.111-1.002,1.861-1.392,2.585c-3.03-2.64-8.942-2.667-10.426-0.644
			c-0.851-0.538-1.632-1.42-2.502-1.52c-4.635-0.524-9.346-1.469-13.926-1.071c-4.33,0.375-8.429-0.074-12.669-0.474
			c-5.693-0.536-11.46-0.364-17.194-0.366c-37.33-0.015-74.658,0.005-111.987,0.029c-0.602,0.001-1.212,0.178-1.805,0.324
			c-1.971,0.488-3.917,1.313-5.908,1.435c-3.602,0.22-7.272-0.323-10.833,0.114c-2.837,0.351-6.385-1.126-8.24,2.291
			c-0.621-0.737-1.218-1.445-1.816-2.153c-0.873,0.979-1.745,1.96-2.75,3.089c-0.587-1.055-1.142-2.048-1.851-3.317
			c-1.555,1.277-2.8,2.302-4.253,3.495c-0.562-1.319-0.961-2.258-1.471-3.455c-0.741,1.17-1.279,2.018-1.976,3.118
			c-0.949-1.096-1.656-1.914-3.173-3.668c-0.219,2.558-0.556,4.041-0.419,5.479c0.192,2.014,0.06,3.434-2.461,3.576
			c-1.467,0.082-2.913,0.56-4.856,0.961c2.027,1.728,3.943,3.36,5.857,4.993c0.253-0.241,0.505-0.481,0.759-0.723
			c-0.125-0.999-0.25-1.998-0.417-3.333C120.266,219.896,121.988,221.361,124.362,223.382z M355.295,231.567
			c0.051-0.284,0.102-0.569,0.153-0.854c-1.679-0.494-3.357-0.988-5.164-1.52c0.661-1.146,1.192-2.064,1.489-2.577
			c-2.147-2.301-4.07-4.362-6.221-6.666c-0.53,3.505-2.542,0.982-4.58,0.428c0.22,1.864,0.383,3.245,0.481,4.076
			c1.964-0.291,3.516-0.521,5.068-0.75c0,2.464,0,4.929,0,7.202C349.193,231.107,352.245,231.338,355.295,231.567z"/>
		<path fill-rule="evenodd" clip-rule="evenodd" d="M663.785,181.646c3.6,0,6.663,0.075,9.721-0.023
			c2.456-0.079,3.807,0.91,3.89,3.413c0.093,2.779-1.957,2.366-3.659,2.381c-4.868,0.041-9.74,0.138-14.605,0.002
			c-1.197-0.033-3.302-0.741-3.383-1.353c-0.245-1.845-0.406-4.471,0.66-5.585c4.185-4.377,9.087-8.073,13.208-12.5
			c1.3-1.396,1.425-4.328,1.229-6.479c-0.095-1.036-2.223-2.703-3.36-2.646c-1.966,0.098-3.904,1.252-5.793,2.101
			c-0.574,0.258-0.854,1.158-1.427,1.433c-1.248,0.6-2.597,0.986-3.905,1.46c-0.013-1.741-0.485-3.654,0.083-5.18
			c0.67-1.797,2.057-4.422,3.455-4.642c3.861-0.607,7.935-0.473,11.831,0.06c1.412,0.192,3.201,2.135,3.681,3.642
			c0.801,2.52,0.895,5.329,0.901,8.019c0.006,2.786-1.276,4.619-3.854,6.411C669.228,174.4,666.969,178.038,663.785,181.646z"/>
		<path fill-rule="evenodd" clip-rule="evenodd" d="M564.762,141.816c2.182-5.498,4.152-10.436,6.097-15.383
			c1.098-2.793,1.994-5.682,3.322-8.357c0.397-0.8,1.944-1.029,2.965-1.52c0.395,0.98,1.326,2.115,1.097,2.917
			c-1.479,5.163-3.171,10.267-4.88,15.361c-0.964,2.869-2.169,5.657-3.133,8.525c-2.445,7.275-3.014,8.503-9.829,6.553
			c-2.1-6.42-4.021-12.73-6.254-18.929c-1.02-2.833-2.895-5.357-3.917-8.189c-0.643-1.782-0.423-3.875-0.596-5.906
			c3.524-1.41,4.924,0.561,5.797,2.987c1.412,3.923,2.58,7.934,3.885,11.897c0.912,2.766,1.744,5.573,2.905,8.234
			C562.58,140.83,563.9,141.233,564.762,141.816z"/>
		<path fill-rule="evenodd" clip-rule="evenodd" d="M709.142,141.835c1.396-3.467,2.876-6.903,4.165-10.41
			c1.378-3.746,2.299-7.688,3.982-11.28c0.706-1.506,2.859-2.333,4.355-3.468c0.354,1.778,1.432,3.799,0.933,5.292
			c-1.679,5.019-4.016,9.812-5.91,14.765c-1.309,3.42-2.327,6.952-3.427,10.45c-0.968,3.077-2.832,3.82-7.892,2.913
			c-1.376-4.095-2.554-8.401-4.263-12.485c-2.248-5.369-5.005-10.524-7.338-15.861c-0.61-1.395-0.463-3.121-0.68-4.821
			c3.607-1.134,5.109,0.182,6.249,3.367c2.621,7.328,5.668,14.502,8.543,21.74C708.287,141.969,708.714,141.901,709.142,141.835z"/>
		<path fill-rule="evenodd" clip-rule="evenodd" d="M591.544,150.283c-1.107-0.531-2.268-0.793-3-1.499
			c-1.715-1.653-3.411-2.946-5.675-1.126c-2.443,1.965-3.415,5.895-2.114,7.952c2.953,4.674,6.027,4.611,8.865-0.173
			c0.295-0.495,0.668-0.943,1.053-1.48c3.473,2.026,3.009,4.399,1.152,7.032c-1.848,2.621-6.245,3.919-8.849,2.549
			c-6.614-3.48-8.892-11.478-5.26-18.467c1.284-2.473,7.173-4.259,10.528-3.196C590.984,142.743,592.307,145.779,591.544,150.283z"
			/>
		<path fill-rule="evenodd" clip-rule="evenodd" d="M721.604,135.754c3.449,0.508,3.449,0.508,4.097,5.969
			c0.669,0.046,1.387,0.146,2.103,0.137c6.753-0.094,9.244,2.262,9.449,9.067c0.079,2.617-0.031,5.241,0.041,7.858
			c0.062,2.238-0.654,3.622-3.939,3.35c0-2.844,0.14-5.755-0.057-8.644c-0.104-1.538-0.512-3.207-1.303-4.497
			c-0.631-1.028-2.565-2.44-3.022-2.169c-1.381,0.819-3.11,2.279-3.28,3.665c-0.451,3.668-0.153,7.429-0.153,11.153
			c-0.321,0.275-0.643,0.553-0.964,0.829c-0.99-0.729-2.822-1.436-2.842-2.189C721.524,152.209,721.604,144.127,721.604,135.754z"/>
		<path fill-rule="evenodd" clip-rule="evenodd" d="M667.508,121.967c-0.403-7.526-0.803-14.993-1.243-23.231
			c-0.876,0.082-2.32,0.101-3.71,0.385c-0.967,0.198-1.859,0.761-2.785,1.161c-0.187-1.301-1.003-3.287-0.455-3.791
			c3.14-2.891,6.581-5.46,9.989-8.046c0.358-0.271,1.173,0.061,2.214,0.15c0,3.784-0.006,7.489,0.001,11.192
			c0.013,6.474,0.011,12.948,0.06,19.422C671.597,121.701,670.81,123.07,667.508,121.967z"/>
		<path fill-rule="evenodd" clip-rule="evenodd" d="M647.408,140.73c0.705-4.094,2.448-4.966,5.214-4.936
			c8.858,0.097,17.718,0.027,26.577,0.036c1.949,0.002,4.318-0.511,4.096,2.718c-0.206,2.994-2.692,2.614-4.497,2.608
			c-7.474-0.026-14.945-0.282-22.418-0.419C653.563,140.688,650.745,140.73,647.408,140.73z"/>
		<path fill-rule="evenodd" clip-rule="evenodd" d="M635.02,144.117c-6.874,0-13.819,0.037-20.762-0.067
			c-0.568-0.009-1.121-0.979-1.681-1.504c0.864-0.712,1.695-1.983,2.598-2.036c3.723-0.217,7.466-0.055,11.201-0.051
			c1.992,0.003,3.984,0.002,5.975-0.061C634.73,140.324,635.905,141.178,635.02,144.117z"/>
		<path fill-rule="evenodd" clip-rule="evenodd" d="M612.586,135.602c0.247-2.762,1.445-3.606,3.929-3.502
			c5.081,0.216,10.177,0.142,15.266,0.107c2.229-0.015,3.596,0.668,3.366,3.395C627.596,135.602,620.134,135.602,612.586,135.602z"
			/>
		<path fill-rule="evenodd" clip-rule="evenodd" fill="#FFFFFF" d="M344.655,153.121c2.867,2.856,2.791,7.919-0.107,11.154
			c-0.704,0.785-1.891,1.891-1.726,2.576c0.886,3.662-0.949,6.044-3.605,8.188c0.181,0.379,0.361,0.759,0.542,1.138
			c1.023-0.343,2.129-0.543,3.048-1.069c1.026-0.589,1.795-1.889,2.836-2.105c0.924-0.192,2.068,0.677,3.116,1.076
			c-0.461,0.809-0.774,1.771-1.416,2.39c-1.051,1.011-2.318,1.799-3.708,2.842c-0.47-0.23-1.642-1.017-2.932-1.396
			c-4.5-1.321-6.089,1.613-7.194,5.133c-0.65,0.99-1.306,1.986-1.961,2.983c-1.959,3.104-3.917,6.208-5.473,8.676
			c1.743,0,3.921,0,6.098,0c0.749,1.021,1.497,2.043,2.245,3.064c-0.301,2.053-0.602,4.104-1.029,7.011
			c-3.167-2.308-5.197-3.786-7.354-5.357c-0.922,3.999-4.088,2.561-7.269,2.417c-7.712-0.349-15.45-0.136-23.176-0.168
			c-13.618-0.058-27.267,0.382-40.834-0.477c-4.63-0.293-9.035,0.38-13.544,0.339c-14.728-0.134-29.456-0.419-44.184-0.38
			c-14.961,0.039-29.941,0.051-44.875,0.81c-4.692,0.238-9.329-0.598-13.952,0.06c-1.635,0.232-3.159,1.244-4.794,1.479
			c-0.892,0.129-1.91-0.623-3.323-1.146c-1.26,1.052-3.115,3.111-5.161-0.323c-1.327,2.322-2.739,3.189-3.93,0.536
			c-1.737,0.533-3.219,0.987-4.703,1.442c-0.18-0.313-0.36-0.625-0.539-0.938c1.697-1.766,3.636-3.37,4.979-5.374
			c0.582-0.87,0.4-3.379-0.232-3.737c-2.605-1.479-1.962-3.307-0.908-5.064c1.917-3.191,3.378-6.164-0.385-9.122
			c-0.347-0.272,0.095-1.549,0.187-2.528c-0.39,0-1.346,0-2.328,0c0.278-0.775,0.514-1.432,0.811-2.263
			c-1.177-0.578-2.235-1.098-3.292-1.617c0.535-0.795,1.069-1.589,1.59-2.383c1.882-0.033,3.074-0.685,2.513-2.877
			c-1.031-2.2-1.968-4.451-3.143-6.571c-0.407-0.733-1.324-1.375-2.144-1.638c-0.912-0.293-2.029,0.081-2.966-0.172
			c-1.444-0.391-2.81-1.068-4.209-1.624c1.27-1.445,2.484-2.943,3.822-4.321c1.696-1.746,4.112-3.102,5.079-5.16
			c1.053-2.244-0.07-4.572-3.876-5.038c5.228-6.146,9.786-12.016,14.893-17.36c4.728-4.948,10.238-9.144,15.027-14.039
			c3.003-3.068,5.09-7.019,7.986-10.211c3.889-4.287,8.217-8.171,12.254-12.328c3.303-3.4,6.367-7.034,9.693-10.41
			c8.365-8.486,16.751-16.955,25.268-25.29c4.023-3.937,8.59-7.332,12.499-11.37c4.117-4.253,7.806-8.928,11.566-13.514
			c4.978-6.072,8.387-5.799,13.491,0.461c2.785,3.417,6.505,6.057,9.65,9.201c3.056,3.055,5.821,6.403,8.892,9.442
			c2.717,2.688,5.686,5.12,8.533,7.677c2.682,2.409,5.999,4.418,7.879,7.346c3.122,4.864,7.832,7.765,11.831,11.551
			c3.6,3.409,6.597,7.448,10.074,10.998c5.116,5.224,10.918,9.86,15.479,15.513c3.249,4.028,8.178,6.259,10.54,11.264
			c1.198,2.54,4.663,3.906,6.487,6.277c2.589,3.365,6.514,5.017,9.224,7.96c1.278,1.388,0.766,4.422,1.149,7.351
			c1.6-3.191,2.756-2.105,4.484-0.446c2.6,2.497,6.126,4.238,4.667,8.855c-0.113,0.36,0.821,1.012,1.196,1.576
			c0.538,0.808,1.01,1.66,1.51,2.494c-0.931,0.364-1.861,0.729-2.791,1.092l0.122,0.134c-0.706-1.151-1.413-2.304-1.703-2.776
			c-1.294,1.802-2.129,3.726-3.594,4.688c-0.753,0.495-2.631-0.723-4.2-1.231c-0.011,5.626,6.978,3.699,8.676,8.737
			c0.428-2.043,0.62-2.958,0.811-3.873C343.447,153.276,344.051,153.198,344.655,153.121z M121.258,155.209c0-1.125,0-2.193,0-3.383
			c-1.712-0.401-3.336-0.782-4.959-1.162c-0.124,1.729-0.248,3.459-0.372,5.189C117.649,155.645,119.372,155.437,121.258,155.209z
			 M338.772,169.593c-0.031-0.437-0.062-0.873-0.093-1.31c-2.298,0.186-4.596,0.372-7.016,0.567
			c0.755,1.895,1.346,3.375,1.962,4.921C335.457,172.285,337.115,170.938,338.772,169.593z"/>
		<path fill-rule="evenodd" clip-rule="evenodd" fill="#FFFFFF" d="M425.961,211.765c-1.136-0.207-2.43-0.046-2.971-0.607
			c-3.34-3.467-6.514-7.093-9.733-10.675c-1.114-1.241-2.102-2.614-3.318-3.741c-4.729-4.374-9.63-8.567-14.268-13.034
			c-3.643-3.507-6.875-7.439-10.502-10.963c-5.057-4.913-10.389-9.541-15.447-14.452c-2.56-2.485-4.689-5.409-7.169-7.984
			c-3.079-3.194-6.403-6.154-9.471-9.359c-4.473-4.671-8.647-9.638-13.252-14.169c-4.608-4.534-9.634-8.64-14.377-13.041
			c-1.271-1.18-2.172-2.757-3.259-4.14c-0.524-0.666-1.028-1.363-1.639-1.942c-3.687-3.488-7.376-6.974-11.114-10.406
			c-3.209-2.948-6.53-5.775-9.715-8.749c-2.336-2.181-4.566-4.479-6.785-6.782c-4.291-4.451-8.545-8.935-12.804-13.416
			c-3.548-3.733-6.966-7.597-10.655-11.184c-2.702-2.627-5.902-4.74-8.599-7.372c-3.249-3.168-6.115-6.725-9.306-9.957
			c-2.594-2.627-5.427-5.02-8.146-7.523c-2.906-2.676-5.866-5.298-8.654-8.092c-0.593-0.595-0.543-1.832-1.042-3.742
			c3.586,0.269,6.752,0.261,9.829,0.783c9.652,1.639,19.305,3.313,28.888,5.31c4.793,0.999,9.476,2.603,14.135,4.156
			c7.411,2.472,14.761,5.127,22.133,7.717c0.797,0.28,1.605,0.569,2.348,0.969c4.703,2.532,9.465,4.968,14.055,7.692
			c3.414,2.026,6.591,4.447,9.883,6.678c5.366,3.639,10.891,7.066,16.061,10.963c3.948,2.976,7.486,6.503,11.144,9.854
			c3.18,2.915,6.5,5.726,9.353,8.941c4.779,5.387,9.372,10.956,13.79,16.644c3.935,5.067,7.726,10.271,11.208,15.656
			c2.767,4.279,4.854,8.99,7.454,13.384c3.771,6.376,6.498,13.168,8.787,20.182c1.809,5.544,4.132,10.936,5.665,16.548
			c1.709,6.254,2.291,12.84,4.257,18.995c2.563,8.018,2.739,16.228,3.381,24.433C426.157,210.063,426.022,210.802,425.961,211.765z"
			/>
		<path fill-rule="evenodd" clip-rule="evenodd" fill="#FFFFFF" d="M220.225,22.028c-1.749,2.055-3.399,4.203-5.265,6.145
			c-4.186,4.355-8.476,8.611-12.727,12.903c-3.727,3.762-7.477,7.501-11.186,11.281c-5.275,5.379-10.469,10.839-15.797,16.165
			c-4.756,4.753-9.724,9.297-14.458,14.073c-4.054,4.091-7.849,8.439-11.87,12.565c-4,4.104-8.195,8.02-12.204,12.117
			c-4.563,4.662-8.933,9.515-13.547,14.125c-2.548,2.545-5.574,4.611-8.125,7.155c-7.096,7.076-14.017,14.328-21.086,21.431
			c-3.55,3.566-7.399,6.84-10.89,10.46c-4.485,4.649-8.366,9.956-13.215,14.162c-4.606,3.995-7.806,9.37-13.25,12.562
			c-2.543,1.49-4.379,4.223-6.458,6.465c-4.939,5.33-9.778,10.754-14.78,16.023c-1.253,1.32-2.968,2.203-4.947,3.629
			c0.303-5.15,0.359-10.093,0.939-14.975c0.744-6.261,1.6-12.539,2.969-18.686c1.794-8.053,3.37-16.301,6.502-23.858
			c2.204-5.318,2.233-11.66,6.89-16.048c1.062-1.001,0.616-3.434,1.395-4.932c3.131-6.023,6.341-12.015,9.774-17.871
			c2.755-4.699,5.569-9.421,8.906-13.707c4.555-5.85,9.58-11.338,14.501-16.895c2.996-3.382,6.12-6.657,9.297-9.87
			c1.938-1.959,4.036-3.77,6.15-5.54c3.791-3.175,7.845-6.062,11.431-9.448c5.117-4.833,11.546-7.631,17.113-11.711
			c4.558-3.341,10.273-4.601,14.592-7.567c6.026-4.141,12.889-5.657,19.144-8.821c4.645-2.351,9.97-3.563,15.125-4.652
			c7.711-1.629,15.563-2.584,23.311-4.054c5.993-1.137,11.913-2.655,17.882-3.918c0.917-0.194,1.93,0.068,2.899,0.12
			C219.57,21.247,219.898,21.637,220.225,22.028z"/>
		<path fill-rule="evenodd" clip-rule="evenodd" fill="#FFFFFF" d="M124.362,223.382c-2.375-2.021-4.097-3.486-6.176-5.256
			c0.167,1.335,0.292,2.334,0.417,3.333c-0.253,0.241-0.506,0.481-0.759,0.723c-1.915-1.633-3.83-3.266-5.857-4.993
			c1.943-0.401,3.389-0.879,4.856-0.961c2.521-0.143,2.653-1.563,2.461-3.576c-0.137-1.438,0.2-2.921,0.419-5.479
			c1.517,1.754,2.225,2.572,3.173,3.668c0.697-1.101,1.235-1.948,1.976-3.118c0.51,1.197,0.909,2.136,1.471,3.455
			c1.453-1.193,2.698-2.218,4.253-3.495c0.709,1.27,1.264,2.263,1.851,3.317c1.005-1.129,1.877-2.109,2.75-3.089
			c0.598,0.708,1.195,1.416,1.816,2.153c1.855-3.417,5.403-1.94,8.24-2.291c3.56-0.438,7.231,0.105,10.833-0.114
			c1.991-0.122,3.937-0.946,5.908-1.435c0.593-0.146,1.203-0.323,1.805-0.324c37.329-0.024,74.657-0.044,111.987-0.029
			c5.734,0.002,11.5-0.17,17.194,0.366c4.24,0.399,8.34,0.849,12.669,0.474c4.581-0.397,9.292,0.547,13.926,1.071
			c0.87,0.1,1.652,0.981,2.502,1.52c1.484-2.023,7.396-1.996,10.426,0.644c0.39-0.724,0.793-1.474,1.392-2.585
			c1.008,2.008,1.457,3.507,2.394,4.579c0.772,0.882,2.123,1.257,4.046,2.313c-0.606-2.408-0.892-3.541-1.102-4.371
			c1.861-0.483,3.477-0.902,5.481-1.424c0.37,0.542,1.024,1.502,1.738,2.548c-5.283,0.604-5.187,4.855-6.08,8.767
			c-0.937-0.733-1.642-1.287-2.738-2.146c-0.46,1.258-0.851,2.327-1.343,3.673c-0.83-0.396-1.656-1.111-2.463-1.09
			c-0.996,0.027-1.975,0.668-2.961,1.044c0.448,0.84,0.829,1.725,1.358,2.509c0.868,1.285,1.804,2.526,2.76,3.746
			c1.357,1.732,2.759,3.428,4.011,4.977c1.416-1.4,2.183-2.158,2.948-2.916c0.333,0.57,1.072,1.491,0.933,1.651
			c-0.794,0.915-1.772,2.307-2.732,2.342c-7.857,0.287-15.731,0.146-23.586,0.461c-7.115,0.285-14.217,0.939-21.315,1.546
			c-1.016,0.087-1.95,0.906-2.971,1.231c-0.751,0.24-1.978,0.61-2.318,0.263c-2.26-2.312-4.524-1.399-6.861-0.319
			c-0.331,0.153-0.704,0.383-1.033,0.348c-14.225-1.526-28.358,1.373-42.604,0.741c-14.343-0.635-28.735-0.089-43.104-0.222
			c-3.443-0.032-6.872-0.907-10.321-1.03c-3.204-0.114-6.428,0.227-9.639,0.43c-1.102,0.069-2.336,0.748-3.267,0.433
			c-9.041-3.071-18.596-1.085-27.815-3.025c-5.866-1.234-12.143-0.554-18.236-0.667c-3.605-0.066-7.229,0.186-10.812-0.101
			c-1.417-0.112-2.749-1.297-4.119-1.993c1.166-1.859,1.926-4.36,3.599-5.424C118.035,224.777,121.018,224.415,124.362,223.382z"/>
		<path fill-rule="evenodd" clip-rule="evenodd" d="M332.173,194.706c-2.177,0-4.355,0-6.098,0c1.556-2.468,3.514-5.572,5.472-8.676
			c3.417,2.312,6.834,4.622,10.252,6.934c0.614,0.408,1.228,0.815,1.841,1.224c-0.768,0.98-1.535,1.961-2.301,2.942
			C338.694,193.097,335.817,192.336,332.173,194.706z"/>
		<path fill-rule="evenodd" clip-rule="evenodd" fill="#FFFFFF" d="M341.799,192.964c-3.417-2.312-6.834-4.622-10.251-6.934
			c0.655-0.997,1.311-1.993,1.961-2.983c1.275-1.494,2.513-2.639,3.889-0.025c0.219,0.416,1.019,0.708,1.567,0.736
			c3.593,0.19,5.193,2.362,5.768,5.591c-1.338-0.642-2.658-1.265-3.978-1.889c-0.27,0.328-0.539,0.655-0.808,0.982
			C340.564,189.949,341.181,191.457,341.799,192.964z"/>
		<path fill-rule="evenodd" clip-rule="evenodd" fill="#FFFFFF" d="M355.295,231.567c-3.05-0.229-6.102-0.46-8.773-0.661
			c0-2.273,0-4.738,0-7.202c-1.552,0.229-3.104,0.459-5.068,0.75c-0.098-0.831-0.262-2.212-0.481-4.076
			c2.038,0.555,4.049,3.077,4.58-0.428c2.151,2.304,4.074,4.365,6.221,6.666c-0.296,0.513-0.828,1.432-1.489,2.577
			c1.807,0.531,3.485,1.025,5.164,1.52C355.396,230.998,355.346,231.283,355.295,231.567z"/>
		<path fill-rule="evenodd" clip-rule="evenodd" fill="#FFFFFF" d="M332.173,194.706c3.644-2.37,6.521-1.609,9.166,2.424
			c-0.011,0.895-0.022,1.788-0.033,2.683c0,0-0.009,0.103-0.009,0.103c-1.414,2.192-2.578,2.263-3.975-0.152
			c-0.53-0.917-1.91-1.343-2.903-1.992C333.67,196.749,332.922,195.728,332.173,194.706z"/>
		<path fill-rule="evenodd" clip-rule="evenodd" fill="#FFFFFF" d="M341.296,199.915c0,0,0.009-0.103,0.009-0.103
			c1.172-0.425,2.317-1.056,3.523-1.209c1.009-0.128,2.09,0.304,3.749,0.595c0.375,0.688,0.375,0.688-2.498,4.754
			C344.484,202.605,342.89,201.26,341.296,199.915z"/>
		<path fill-rule="evenodd" clip-rule="evenodd" fill="#FFFFFF" d="M118.687,168.109c0.561,2.192-0.631,2.844-2.513,2.877
			c-0.947-0.837-2.148-1.534-2.758-2.577c-0.271-0.462,0.651-1.624,1.032-2.469C115.86,166.664,117.273,167.387,118.687,168.109z"/>
		<path fill-rule="evenodd" clip-rule="evenodd" d="M341.799,192.964c-0.618-1.507-1.234-3.015-1.851-4.521
			c0.269-0.327,0.538-0.654,0.808-0.982c1.32,0.624,2.64,1.247,3.978,1.889c1.663,2.091,1.172,3.67-1.093,4.839
			C343.026,193.779,342.413,193.372,341.799,192.964z"/>
		<path fill-rule="evenodd" clip-rule="evenodd" fill="#FFFFFF" d="M344.655,153.121c-0.604,0.077-1.208,0.155-1.813,0.232
			c-0.933-0.601-1.865-1.201-2.797-1.803c0.935-1.246,1.871-2.494,2.806-3.741l-0.122-0.134
			C343.372,149.49,344.014,151.306,344.655,153.121z"/>
		<path fill-rule="evenodd" clip-rule="evenodd" d="M342.852,147.81c-0.936,1.247-1.871,2.495-2.806,3.741
			c0.932,0.602,1.864,1.202,2.797,1.803c-0.191,0.916-0.383,1.831-0.811,3.874c-1.699-5.038-8.687-3.111-8.676-8.737
			c1.568,0.509,3.447,1.727,4.2,1.231c1.465-0.963,2.299-2.887,3.594-4.688C341.439,145.506,342.146,146.658,342.852,147.81z"/>
		<path fill-rule="evenodd" clip-rule="evenodd" d="M121.258,155.209c-1.887,0.228-3.609,0.436-5.331,0.645
			c0.124-1.73,0.248-3.46,0.372-5.189c1.623,0.38,3.247,0.761,4.959,1.162C121.258,153.016,121.258,154.084,121.258,155.209z"/>
		<path fill-rule="evenodd" clip-rule="evenodd" d="M338.772,169.593c-1.658,1.346-3.315,2.692-5.146,4.179
			c-0.617-1.546-1.207-3.026-1.962-4.921c2.42-0.195,4.718-0.382,7.016-0.567C338.711,168.72,338.742,169.156,338.772,169.593z"/>
	</g>
</g>
</svg>
