<?xml version="1.0" encoding="utf-8"?>
<!-- Generator: Adobe Illustrator 16.0.0, SVG Export Plug-In . SVG Version: 6.00 Build 0)  -->
<!DOCTYPE svg PUBLIC "-//W3C//DTD SVG 1.1//EN" "http://www.w3.org/Graphics/SVG/1.1/DTD/svg11.dtd">
<svg version="1.1" id="Layer_1" xmlns="http://www.w3.org/2000/svg" xmlns:xlink="http://www.w3.org/1999/xlink" x="0px" y="0px"
	 width="668.344px" height="426.81px" viewBox="0 0 668.344 426.81" enable-background="new 0 0 668.344 426.81"
	 xml:space="preserve">
<g>
	<g>
		<path fill-rule="evenodd" clip-rule="evenodd" fill="#FFFFFF" d="M0.75,0.75c222.781,0,445.563,0,668.344,0
			c0,142.27,0,284.539,0,426.81c-222.781,0-445.563,0-668.344,0C0.75,285.289,0.75,143.02,0.75,0.75z M212.979,259.301
			c4.772-4.762,10.082-10.043,15.373-15.343c4.049-4.056,8.132-8.079,12.079-12.232c1.357-1.428,1.999-3.973,3.567-4.688
			c6.982-3.181,10.134-10.339,16.048-14.729c5.924-4.399,10.984-10.167,15.696-15.93c4.266-5.214,9.706-9.171,13.733-14.728
			c3.801-5.244,9.525-9.086,14.354-13.597c1.872-1.748,3.61-3.638,6.19-6.256c0.755,3.195,1.284,5.522,1.861,7.835
			c0.312,1.25,0.707,2.48,1.064,3.72c0.956-0.949,2.211-1.741,2.803-2.879c1.136-2.179,1.744-4.629,2.836-6.834
			c3.056-6.169,6.248-12.272,9.39-18.398c0.355-0.694,0.734-1.376,1.102-2.063c0.339-0.007,0.678-0.015,1.018-0.021
			c0.702,2.486,1.403,4.973,2.059,7.297c-0.514,2.736-1.022,5.437-1.604,8.53c1.227,0.059,2.457,0.119,3.454,0.166
			c0-2.383,0.018-4.222-0.002-6.06c-0.065-5.826-0.196-11.651-0.193-17.476c0.001-2.589-1.572-3.002-3.599-3.009
			c-1.696-0.005-3.392-0.001-5.688-0.001c-0.061,0.872-0.175,2.51-0.293,4.192c-3.283,2.07-6.508,4.41-10.002,6.238
			c-6.054,3.167-12.301,5.965-18.392,9.063c-0.801,0.408-1.164,1.676-2.217,3.295c4.11,0,7.182,0,10.254,0
			c0.237,0.302,0.475,0.604,0.712,0.906c-1.225,1.625-2.347,3.343-3.711,4.84c-0.88,0.966-2.286,1.456-3.159,2.425
			c-2.699,2.997-5.192,6.177-7.886,9.178c-1.981,2.208-4.109,4.29-6.248,6.351c-3.122,3.009-6.426,5.838-9.439,8.949
			c-2.803,2.893-5.118,6.275-8.019,9.053c-6.479,6.205-13.21,12.146-19.792,18.243c-2.023,1.874-3.925,3.881-5.837,5.869
			c-3.391,3.523-6.707,7.119-10.132,10.609c-2.658,2.709-5.547,5.197-8.129,7.975c-2.675,2.876-4.574,6.957-7.792,8.706
			c-3.113,1.691-4.657,4.328-6.947,6.476c-2.696,2.528-6.136,4.715-7.769,7.828c-3.152,6.012-9.43,8.601-13.565,13.636
			c-3.164,3.853-6.87,8.009-11.097,11.293c-3.097,2.406-5.632,5.529-8.464,8.284c-2.979,2.897-6.321,5.487-8.932,8.679
			c-2.311,2.825-4.234,4.974-8.101,2.788c-2.09-1.182-3.713-0.224-3.477,2.03c0.387,3.706-2.224,5.073-4.475,6.798
			c-2.075,1.591-1.967,2.971,0.282,4.257c1.116,0.637,2.53,1.441,2.929,2.501c0.795,2.111,1.806,4.019,4.124,3.05
			c1.209-0.506,1.92-2.615,2.488-4.138c0.733-1.961,0.941-4.255,3.81-1.934c0.504,0.408,1.425,0.416,2.152,0.413
			c4.248-0.014,8.509,0.098,12.734-0.235c1.571-0.124,3.055-1.337,4.579-2.054c-0.063-0.359-0.125-0.72-0.188-1.078
			c-2.336-0.874-4.612-2.11-7.028-2.521c-2.583-0.438-5.299-0.099-7.957-0.099c4.117-5.575,8.379-10.177,12.732-14.691
			c1.059-1.099,2.533-1.792,3.606-2.879c2.348-2.378,4.515-4.934,6.841-7.336c4.887-5.049,9.782-10.091,14.763-15.047
			c3.288-3.27,6.679-6.442,10.16-9.503c0.508-0.446,2.006-0.376,2.664,0.049c6.369,4.106,11.024,9.925,14.782,16.313
			c2.48,4.219,3.462,9.316,5.927,13.548c3.976,6.822,2.957,14.601,4.956,21.776c0.611,2.192,1.151,3.351,3.462,3.354
			c3.744,0.005,7.487,0.062,11.229,0.146c1.854,0.042,4.247,0.579,4.134-2.221c-0.093-2.299-1.766-3.683-4.338-3.596
			c-2.372,0.081-4.753-0.077-7.122,0.049c-2.212,0.119-3.091-0.733-3.226-2.976c-0.201-3.35-0.05-6.955-1.257-9.969
			c-3.344-8.348-5.087-17.438-11.349-24.511C222.552,271.389,218.002,265.448,212.979,259.301z M592.001,280.075
			c-0.336-2.288-0.405-4.514-1.024-6.573c-1.098-3.655,1.891-6.208,5.365-6.285c1.188-0.027,2.692-0.363,3.429-1.146
			c0.51-0.541,0.335-2.734-0.207-3.055c-1.237-0.733-3.157-1.425-4.312-0.949c-2.092,0.862-3.827,2.589-5.9,4.092
			c-0.228-0.34-0.6-1.401-1.348-1.901c-1.68-1.123-3.742-3.02-5.303-2.73c-4.933,0.915-9.656,1.333-14.525-0.241
			c-1.098-0.354-2.578,0.31-3.841,0.654c-4.435,1.212-6.096,5.431-8.897,8.398c-1.035,1.096-2.251,2.489-2.403,3.856
			c-0.354,3.181-0.113,6.428-0.113,9.071c3.273,2.438,6.104,2.946,9.268,1.229c2.015-1.093,4.29-2.408,6.24,0.37
			c0.185,0.264,0.971,0.242,1.437,0.146c2.41-0.493,4.825-1.439,6.88,0.997c0.202,0.239,1.606-0.202,2.179-0.665
			c2.573-2.082,5.046-4.285,7.606-6.488c1.674,2.344-0.324,7.328,4.9,6.375c3.571-0.652,5.753-3.739,5.254-7.378
			C595.188,278.563,593.817,279.213,592.001,280.075z M309.858,45.97c-3.787,2.686-4.635,2.319-5.512-2.089
			c-0.073-0.367-0.177-0.728-0.256-1.093c-1.022-4.681,0.719-7.054,5.515-7.128c2.023-0.031,3.186-0.562,2.953-2.709
			c-0.258-2.368-1.923-2.871-3.795-2.177c-1.755,0.651-3.267,1.953-5.017,2.625c-0.814,0.312-2.612,0.102-2.817-0.37
			c-1.51-3.477-4.216-2.074-6.728-2.065c-3.831,0.013-7.661-0.337-11.493-0.516c-1.217-0.056-2.461-0.222-3.651-0.05
			c-7.342,1.057-11.72,8.109-12.667,14.519c-1.208,8.163,1.725,10.436,9.766,8.178c1.251-0.351,2.716,0.095,4.083,0.114
			c4.471,0.064,8.969,0.394,13.396-0.022c1.413-0.133,2.683-2.228,3.924-3.515c0.617-0.64,1.022-1.483,1.662-2.44
			c2.228,5.885,3.684,7.121,6.945,6.175C309.633,52.402,310.754,50.297,309.858,45.97z M473.527,286.04
			c-0.308-1.245-0.24-2.55-0.86-3.213c-2.957-3.166-4.77-6.74-5.354-11.085c-0.249-1.856,0.105-2.425,1.607-3.723
			c2.722-2.353,5.055-5.503,6.593-8.77c1.328-2.822-4.121-8.591-7.79-8.719c-3.995-0.139-7.997-0.136-11.995-0.083
			c-1.272,0.017-2.539,0.392-4.134,0.656c2.252,2.479,2.961,6.966,2.078,9.569c-1.701,5.02-3.206,10.105-4.931,15.117
			c-0.742,2.155-1.867,4.177-2.744,6.29c-0.374,0.9-1.068,2.291-0.714,2.731c0.639,0.794,1.917,1.23,3.005,1.461
			c1.072,0.227,2.259,0.145,3.357-0.034c2.325-0.378,3.771-1.182,2.969-4.183c-1.243-4.648,1.082-10.652,4.792-13.055
			c1.48,3.708,3.192,7.282,4.33,11.031C465.076,284.443,467.885,286.556,473.527,286.04z M241.889,46.102
			c-0.429-0.072-0.857-0.143-1.286-0.215c-0.158-1.031-0.35-2.06-0.469-3.096c-0.325-2.832-0.567-5.675-0.943-8.5
			c-0.413-3.098-2.297-3.949-5.282-3.668c-5.241,0.492-10.44,1.737-15.794-0.021c-1.89-0.62-6.092-0.8-5.398,2.412
			c1.328,6.159-2.043,10.969-3.195,16.36c-0.4,1.873-1.402,3.403,0.917,4.144c1.973,0.631,3.591,0.305,4.65-2.255
			c2.177-5.261,4.913-10.29,7.422-15.419c3.696,1.878,3.696,1.878,6.324-0.442c1.949-1.722,4.497-1.004,4.697,1.588
			c0.413,5.348,0.686,10.728,0.571,16.085c-0.079,3.648-2.889,5.857-6.554,5.796c-2.215-0.038-3.706,0.462-3.33,3.141
			c0.327,2.34,3.666,3.417,5.902,1.663c2.193-1.721,4.358-3.557,6.18-5.653c3.968-4.566,7.806-9.255,11.507-14.04
			c2.125-2.75,4.757-5.5,4.077-9.392c-0.234-1.34-1.271-2.824-2.388-3.61c-0.586-0.414-2.134,0.537-3.248,0.871
			c0.527,1.374,1.057,2.748,1.578,4.125c0.085,0.226,0.128,0.466,0.186,0.698C245.972,39.815,243.931,42.958,241.889,46.102z
			 M291.741,249.448c-0.283-1.79-0.139-3.803-0.934-5.325c-1.968-3.768-8.942-4.511-12.582-2.221
			c-2.876,1.811-4.398,4.809-6.596,6.685c-5.275,4.502-4.337,11.034-6.987,16.271c-1.045,2.066,0.895,5.725,1.666,8.606
			c1.054,3.939,3.05,4.367,6.999,4.288c5.796-0.116,8.366-4.717,11.358-7.861C289.836,264.46,291.701,257.141,291.741,249.448z
			 M83.649,35.899c-0.468,2.452-0.709,4.362-1.215,6.199c-0.56,2.031-1.773,3.964-1.933,6c-0.145,1.844,0.745,3.77,1.178,5.659
			c1.964-0.479,4.192-0.555,5.79-1.597c0.883-0.576,0.865-2.759,0.978-4.238c0.162-2.115-0.033-4.255,0.117-6.372
			c0.141-1.972,0.833-3.944,0.716-5.883c-0.086-1.417-0.901-3.806-1.721-3.956c-1.889-0.347-4.03,0.229-5.97,0.78
			c-1.273,0.362-2.373,1.334-3.526,2.018c-2.58-4.01-6.506-4.405-9.998-1.299c-2.646-3.204-5.63-2.465-8.777-0.854
			c2.328,6.479-1.661,11.521-2.97,17.054c-0.283,1.192-1.13,2.653-0.712,3.486c0.358,0.714,2.294,1.181,3.276,0.89
			c1.055-0.312,2.288-1.484,2.62-2.54c1.821-5.791,5.024-10.681,8.677-15.328c0.402,0.151,0.804,0.301,1.206,0.452
			c-1.4,5.599-2.8,11.198-4.2,16.798c0.242,0.309,0.482,0.618,0.724,0.927c1.736-0.747,4.144-1.025,5.062-2.343
			c1.648-2.365,2.2-5.462,3.582-8.055C78.175,40.652,80.007,37.633,83.649,35.899z M128.838,65.089
			c1.733-0.279,4.133-0.388,6.348-1.086c3.274-1.031,5.479-4.589,5.209-7.664c-0.315-3.61-3.17-3.917-5.821-4.615
			c-1.162-0.305-2.291-0.876-3.319-1.515c-0.762-0.473-1.337-1.246-1.996-1.886c0.84-0.589,1.61-1.523,2.532-1.709
			c5.889-1.191,7.648-2.91,8.977-8.548c0.247-1.05,1.516-1.85,2.284-2.788c0.635-0.776,1.228-1.587,1.839-2.382
			c-0.78-0.5-1.587-1.465-2.336-1.422c-5.257,0.298-10.347-1.951-15.804-0.199c-4.92,1.58-7.962,8.542-4.705,12.639
			c2.231,2.805,1.277,7.563-1.847,9.219c-3.786,2.006-4.453,5.249-2.097,8.819C120.698,65.888,124.648,64.597,128.838,65.089z
			 M101.551,199.146c0.295,0.34,0.591,0.68,0.887,1.019c-0.167,2.144-0.25,4.298-0.541,6.424c-0.13,0.939-0.755,1.798-1.035,2.729
			c-1.877,6.228-3.65,12.489-5.61,18.69c-0.868,2.746-0.292,5.537,2.07,6.297c3.267,1.051,7.188,1.688,10.425,0.882
			c7.207-1.792,12.553-10.482,11.523-17.849c-0.238-1.7-1.495-3.905-2.923-4.652c-2.658-1.39-5.787-1.878-9.324-2.92
			c0.284-0.838,0.85-2.236,1.223-3.685c0.487-1.889,0.988-3.807,1.123-5.738c0.04-0.587-1.101-1.785-1.713-1.792
			C105.624,198.528,103.586,198.916,101.551,199.146z M261.038,347.136c-4.012-0.666-7.25-2.076-10.063-1.479
			c-5.011,1.063-9.352,3.932-11.893,8.73c-0.667,1.258-0.667,2.896-1.416,4.08c-2.279,3.6-2.136,7.865,1.27,10.926
			c2.672,2.401,5.671,1.926,8.479-0.496c0.669-0.577,3.047-0.507,3.228-0.104c1.271,2.843,4.264,2.474,5.279,1.444
			c1.439-1.46,1.785-4.147,2.233-6.383c0.353-1.758-0.091-3.673,0.249-5.436C259.137,354.624,260.146,350.884,261.038,347.136z
			 M516.472,286.35c1.087-0.668,1.959-1.563,2.967-1.758c3.027-0.588,2.591-2.506,1.938-4.505c-1.118-3.424-0.162-6.401,1.3-9.561
			c1.333-2.878,2.431-6.125,1.16-8.349c-3.327-0.269-5.612-0.5-7.902-0.62c-1.21-0.063-2.44-0.013-3.646,0.124
			c-3.819,0.434-4.843,4.162-7.294,6.19c-4.239,3.506-6.555,10.46-4.611,15.483c0.883,2.283,5.126,4.162,6.821,2.688
			C510.524,283.156,513.508,283.5,516.472,286.35z M176.94,35.634c-0.981,3.601-1.753,6.578-2.61,9.531
			c-0.499,1.716-1.376,3.359-1.617,5.101c-0.142,1.026,0.78,3.157,0.965,3.128c2.581-0.402,5.171-0.945,7.621-1.835
			c0.494-0.179,0.938-2.417,0.506-2.895c-2.128-2.357-0.45-4.67-0.222-6.956c0.209-2.093,0.833-4.143,1.105-6.234
			c0.343-2.638-0.555-4.648-3.579-4.22c-3.178,0.45-6.286,1.394-9.242,2.079c-0.475-0.588-1.231-2.354-2.054-2.386
			c-2.166-0.082-4.364,0.565-6.523,1.044c-0.099,0.022-0.191,1.589,0.148,1.835c2.57,1.86,1.214,3.882,0.483,5.969
			c-1.529,4.368-2.965,8.768-4.51,13.366c3.142,0.672,6.408,1.487,6.683-1.528c0.46-5.044,4.304-7.814,6.316-11.747
			C171.463,37.831,172.919,35.474,176.94,35.634z M116.261,51.03c-0.314-0.16-0.629-0.32-0.944-0.48
			c0-2.413-0.332-4.884,0.082-7.224c0.549-3.103,1.797-6.077,2.485-9.164c0.203-0.911-0.425-2.885-0.749-2.902
			c-3.871-0.2-7.873-0.719-11.61,0.015c-6.271,1.23-9.985,5.787-11.061,11.893c-0.571,3.239-0.912,7.795,0.859,9.769
			c1.429,1.593,6.18,0.208,9.456,0.139c0.729-0.016,1.57-0.306,2.17-0.041C110.61,54.649,113.651,53.865,116.261,51.03z
			 M190.851,53.766c0.749,0,1.532,0.146,2.24-0.025c2.788-0.677,5.297-1.261,8.404-0.224c3.813,1.273,5.877-1.509,5.229-5.481
			c-0.746-4.563-0.804-9.098,2.158-13.146c0.497-0.68,0.795-2.206,0.399-2.671c-0.57-0.669-1.841-0.848-2.849-1.013
			c-1.197-0.195-2.543,0.137-3.633-0.27c-3.818-1.428-6.712,0.51-9.997,1.973c-5.275,2.352-5.519,7.657-7.408,11.794
			C183.022,49.896,185.712,53.689,190.851,53.766z M483.091,277.161c1.993-0.317,3.943-0.15,5.332-0.953
			c2.595-1.5,4.741-3.761,7.299-5.34c2.966-1.829,1.857-4.479,1.328-6.628c-0.3-1.216-2.542-2.987-3.6-2.797
			c-4.018,0.727-9.491-1.173-11.034,5.074c-0.101,0.411-0.604,0.803-1.014,1.046c-4.968,2.956-4.767,7.728-4.357,12.518
			c0.356,4.18,5.804,7.663,9.729,6.233c1.345-0.489,2.515-1.495,3.872-1.906c2.834-0.857,4.185-2.738,4.822-6.571
			c-2.64,1.063-4.582,2.32-6.64,2.549C486.598,280.634,483.283,281.713,483.091,277.161z M49.013,53.582
			c-0.31-2.743-1.125-4.882-0.644-6.674c1.369-5.104,3.292-10.059,4.945-15.089c1.048-3.19,0.416-6.985,3.601-9.455
			c0.34-0.264-0.353-2.834-0.71-2.87c-3.224-0.316-6.602-1.086-9.555,1.053c1.585,4.587-3.787,27.641-7.81,33.035
			C42.79,53.582,46.332,53.582,49.013,53.582z M612.266,283.596c1.73,0.932,2.598,1.395,3.461,1.864
			c3.207,1.744,10.465,0.633,12.528-1.922c1.808-2.237,0.879-9.757-1.372-12.365c-1.38-1.598-2.504-3.416-3.785-5.194
			c2.718-2.091,4.048-1.129,5.168,1.195c0.342,0.71,1.538,1.671,2.018,1.516c1.049-0.34,2.312-1.147,2.703-2.09
			c0.465-1.12,0.109-2.582,0.109-3.609c-2.273-0.666-4.039-1.229-5.829-1.698c-5.154-1.352-8.612,1.279-8.684,6.446
			c-0.068,4.958,3.92,7.836,6.096,12.536c-1.682,0.688-4.036,2.479-5.116,1.897c-1.625-0.874-2.358-3.407-3.471-5.234
			c-0.405-0.094-0.812-0.187-1.219-0.28C614.021,278.926,613.168,281.195,612.266,283.596z M532.337,277.851
			c0.979-5.164,1.676-10.179,2.937-15.048c0.881-3.399,2.6-6.576,3.789-9.907c0.291-0.813,0.174-2.581-0.1-2.655
			c-1.838-0.502-3.77-0.859-5.666-0.833c-0.659,0.01-1.412,1.175-1.885,1.955c-0.15,0.249,0.544,0.939,0.725,1.471
			c0.309,0.911,0.908,1.956,0.7,2.77c-0.938,3.666-2.107,7.272-3.211,10.895c-1.026,3.371-1.682,6.925-3.203,10.058
			c-2.383,4.906-2.257,6.41,2.415,9.477c1.729-1.104,3.978-1.907,5.231-3.495C535.818,280.321,534.797,278.385,532.337,277.851z
			 M346.681,30.292c-3.114,0-4.842,0.05-6.565-0.008c-7.5-0.253-9.24,2.222-7.442,8.688c0.498,1.79,1.805,3.36,2.774,5.01
			c0.492,0.837,1.53,1.646,1.502,2.437c-0.063,1.709-0.655,3.399-1.03,5.098c-1.151-0.594-2.429-1.032-3.413-1.831
			c-0.797-0.648-1.201-1.761-1.854-2.609c-0.413-0.535-1.149-1.446-1.417-1.344c-0.669,0.254-1.302,0.908-1.675,1.56
			c-0.479,0.837-0.763,1.81-1.004,2.756c-0.505,1.984-0.205,3.49,2.327,3.525c2.738,0.038,5.514,0.434,8.207,0.113
			c5.29-0.631,7.119-4.098,5.786-8.603c-0.606-2.05-2.779-3.587-3.777-5.588c-0.803-1.61-0.905-3.569-1.319-5.373
			c1.526,0.855,3.062,1.697,4.575,2.574c0.368,0.213,0.669,0.542,1.473,1.209C344.785,35.347,345.585,33.214,346.681,30.292z
			 M232.529,186.485c-2.752,0.267-5.242,0.507-8.334,0.808c2.49,3.177,2.776,5.51,1.199,8.632
			c-1.732,3.431-2.493,7.416-3.234,11.245c-0.208,1.072,1.145,2.447,1.781,3.684c1.181-0.993,2.763-1.764,3.457-3.024
			c1.411-2.563,1.783-5.89,3.637-7.958c1.635-1.825,1.968-5.96,5.717-5.051c3.272,0.794,4.263-1.439,5.077-3.423
			c0.419-1.022-0.231-3.171-1.127-3.849c-0.853-0.646-2.744-0.319-4.01,0.096c-1.162,0.382-2.097,1.453-3.243,2.301
			C233.18,188.934,232.929,187.991,232.529,186.485z M608.975,261.252c-3.733-0.001-4.392,0.754-4.568,3.263
			c-0.357,5.107-0.498,10.378-1.962,15.206c-0.897,2.958-0.55,4.824,1.7,5.739c1.286,0.522,4.013-0.355,4.881-1.513
			c0.984-1.31,0.723-3.633,0.786-5.522c0.034-1.01-0.784-2.149-0.53-3.031c0.808-2.813,1.737-5.627,2.992-8.264
			C614.047,263.406,612.956,261.253,608.975,261.252z M148.535,31.98c0.2,2.644,0.728,4.502,0.391,6.19
			c-0.766,3.842-2.125,7.567-2.877,11.411c-0.246,1.258,0.636,2.737,1.001,4.115c2.51-0.716,5.095-1.268,7.448-2.332
			c0.346-0.156-0.361-2.754-0.667-4.205c-0.238-1.126-1.065-2.329-0.836-3.314c0.677-2.932,1.758-5.77,2.656-8.651
			c0.34-1.092,0.61-2.205,0.912-3.308c-1.365-0.292-2.741-0.859-4.092-0.805C150.939,31.143,149.431,31.759,148.535,31.98z
			 M318.071,31.954c0.302,0.259,0.603,0.517,0.904,0.775c-0.457,3.393-0.791,6.808-1.41,10.171
			c-0.502,2.728-1.466,5.371-1.965,8.099c-0.136,0.744,0.801,2.419,1.009,2.381c2.602-0.479,5.159-1.194,7.729-1.849
			c-0.473-1.596-0.937-3.195-1.424-4.786c-0.177-0.579-0.712-1.229-0.573-1.694c0.971-3.271,2.121-6.49,3.115-9.756
			c0.369-1.211,1.078-3.053,0.554-3.635c-0.826-0.915-2.586-1.412-3.909-1.336C320.73,30.402,319.412,31.373,318.071,31.954z
			 M315.974,318.112c1.357,0.771,2.379,1.829,3.44,1.869c4.841,0.185,9.705,0.253,14.532-0.067c0.883-0.058,2.394-2.168,2.31-3.227
			c-0.307-3.865-1.26-7.674-1.777-11.529c-0.24-1.784-0.041-3.627-0.041-6.149c0.025,0.005-0.82-0.149-1.664-0.304
			c-0.076,0.697-0.214,1.395-0.217,2.093c-0.021,4.391-0.011,8.782-0.011,12.835C326.925,315.84,320.409,311.496,315.974,318.112z
			 M147.123,368.091c0.721-0.019,1.441-0.036,2.162-0.054c4.171-6.046,1.217-13.015,1.877-19.473
			c-5.28-1.218-6.093-0.618-6.023,4.075c0.044,2.995-0.109,6.015,0.228,8.978C145.616,363.813,146.514,365.936,147.123,368.091z
			 M147.369,126.199c1.661-2.177,3.426-3.431,3.503-4.781c0.267-4.68,0.111-9.407-0.294-14.081
			c-0.076-0.868-1.982-1.821-3.208-2.194c-0.37-0.113-1.838,1.577-1.874,2.478c-0.179,4.566-0.167,9.15,0.036,13.716
			C145.591,122.676,146.496,123.978,147.369,126.199z M145.167,236.061c0.104,0.002,0.208,0.003,0.312,0.005
			c0,1.865-0.306,3.801,0.104,5.571c0.291,1.253,1.37,2.981,2.418,3.252c1.742,0.45,3.395-0.433,3.346-2.83
			c-0.088-4.343-0.116-8.688-0.142-13.031c-0.01-1.697-0.476-3.281-2.465-2.704c-1.229,0.357-2.812,1.564-3.095,2.68
			C145.073,231.251,145.281,233.697,145.167,236.061z M147.005,286.473c0.433,0.089,0.864,0.177,1.296,0.265
			c1.003-1.29,2.751-2.516,2.87-3.883c0.354-4.067,0.314-8.218-0.12-12.277c-0.131-1.221-2.053-2.251-3.155-3.368
			c-0.795,1.222-2.177,2.399-2.274,3.675c-0.264,3.454-0.111,6.958,0.136,10.424C145.882,283.05,146.571,284.753,147.005,286.473z
			 M407.552,319.944c0.019,0.168,0.038,0.337,0.056,0.505c3.034-0.447,6.089-0.802,9.079-1.449c0.426-0.092,1.036-2.034,0.726-2.389
			c-1.915-2.188-14.878-3.533-17.272-1.763c-1.063,0.786-1.66,2.204-2.469,3.335c1.304,0.588,2.561,1.483,3.922,1.687
			C403.539,320.16,405.562,319.944,407.552,319.944z M297.14,318.439c-6.316-4.953-14.078-5.387-19.65-2.077
			c-2.333,1.386-1.806,2.416,0.263,2.729c4.085,0.618,8.237,1,12.366,1.036C292.167,320.146,294.222,319.18,297.14,318.439z
			 M373.422,319.606c0.09,0.249,0.181,0.499,0.271,0.75c0.935-0.691,2.049-1.254,2.686-2.154c0.18-0.254-0.919-1.634-1.639-2.26
			c-1.822-1.583-14.143-2.572-15.612-1.027c-0.858,0.903-1.196,2.646-1.09,3.957c0.045,0.551,1.852,1.374,2.846,1.358
			C365.065,320.17,369.242,319.838,373.422,319.606z M147.417,84.971c4.275-4.104,5.075-12.854,1.97-17.449
			c-0.502-0.744-1.305-1.286-1.968-1.921c-0.672,0.81-1.882,1.59-1.926,2.432c-0.235,4.563-0.301,9.145-0.136,13.71
			C145.394,82.759,146.592,83.734,147.417,84.971z M151.056,204.436c0-4.95-0.023-9.663,0.011-14.375
			c0.014-1.941-0.354-3.418-2.736-3.557c-2.51-0.147-2.953,1.54-2.995,3.359c-0.083,3.605-0.098,7.222,0.091,10.822
			C145.67,205.293,145.943,205.414,151.056,204.436z M457.395,318.533c0.199-0.334,0.398-0.668,0.598-1.002
			c-1.256-1.067-2.606-3.14-3.752-3.031c-5.479,0.516-11.844-2.708-16.718,3.575C444.445,321.975,450.938,319.244,457.395,318.533z
			 M216.072,317.65c-8.016-3.143-14.673-5.527-21.693,0.493c5.727,4.031,11.896,1.735,17.613,2.092
			C213.081,320.304,214.266,318.845,216.072,317.65z M146.877,165.124c1.769-1.607,3.44-2.391,3.542-3.342
			c0.463-4.321,0.712-8.7,0.51-13.035c-0.053-1.157-1.973-2.228-3.036-3.338c-0.854,1.14-2.294,2.206-2.45,3.436
			c-0.403,3.181-0.45,6.449-0.23,9.654C145.355,160.578,146.216,162.608,146.877,165.124z M151.226,396.906
			c0.052,0,0.104,0,0.156,0.001c0-2.11,0.185-4.246-0.095-6.318c-0.105-0.777-1.255-1.931-1.99-1.979
			c-0.973-0.065-2.832,0.71-2.882,1.257c-0.421,4.552-0.648,9.137-0.57,13.705c0.013,0.742,1.846,2.046,2.792,2.006
			c0.895-0.037,2.292-1.396,2.473-2.361C151.493,401.177,151.226,399.017,151.226,396.906z M498.614,318.475
			c-1.029-4.164-3.734-4.271-6.605-4.199c-2.727,0.068-5.457-0.013-8.186-0.025c-2.767-0.014-4.261,1.352-4.736,4.753
			C485.789,318.062,492.284,321.833,498.614,318.475z M518.679,318.225c7.396,2.414,14.073,1.109,20.994-0.275
			c-1.449-1.591-3.178-3.555-4.77-3.447C529.598,314.857,523.413,311.803,518.679,318.225z M124.249,320.372
			c0.001-0.013,0.001-0.026,0.001-0.039c2.236,0,4.512,0.244,6.69-0.11c0.986-0.161,1.778-1.513,2.659-2.323
			c-0.84-0.483-1.629-1.154-2.534-1.405c-1.177-0.326-2.632,0.028-3.644-0.514c-3.862-2.069-7.549-1.944-11.17,0.387
			c-0.689,0.445-1.728,1.566-1.58,1.863c0.427,0.854,1.324,1.959,2.135,2.046C119.262,320.542,121.765,320.372,124.249,320.372z
			 M93.058,316.62c-5.222,0.623-10.256-4.684-15.761-0.373c-0.76,0.596-1.556,1.147-2.335,1.719c0.985,0.75,1.921,2.057,2.964,2.149
			c4.21,0.372,8.454,0.415,12.686,0.488C93.093,320.646,93.93,319.36,93.058,316.62z M334.111,234.85
			c-0.43,0.013-0.859,0.025-1.288,0.038c0,15.713,0,31.425,0,47.138c0.429-0.003,0.858-0.006,1.288-0.009
			C334.111,266.295,334.111,250.571,334.111,234.85z M168.98,134.962c0.029-0.445,0.057-0.89,0.085-1.334
			c-2.618,0-5.244,0.131-7.853-0.029c-4.263-0.262-8.841,1.478-12.677-2.007c-0.381-0.346-2.614,0.39-2.678,0.819
			c-0.249,1.663-0.529,3.736,0.241,5.046c1.397,2.378,3.128,0.136,4.7-0.397c2.074-0.704,4.114-1.83,6.233-2.003
			C160.99,134.731,164.995,134.962,168.98,134.962z M151.883,338.238c-1.021-2.845,0.001-5.753-3.524-5.772
			c-3.198-0.019-2.667,2.7-2.803,4.608c-0.138,1.923-0.175,4.506,2.601,4.27C149.478,341.231,150.646,339.33,151.883,338.238z
			 M332.244,198.806c1.939-1,2.877-18.661,1.332-22.589c-0.044-0.112-0.351-0.12-0.486-0.162c-0.787,0.732-1.549,1.442-2.338,2.176
			c2.342,1.888,2.383,7.193,0.252,9.918c0.727,0.695,1.472,1.406,2.215,2.117c-0.325,0.067-0.649,0.133-0.974,0.199
			C332.244,193.129,332.244,195.792,332.244,198.806z M333.693,201.342c-0.372-0.009-0.744-0.019-1.115-0.027
			c0,8.832,0,17.664,0,26.497c0.41-0.001,0.821-0.001,1.232-0.001C334.401,218.987,334.518,210.164,333.693,201.342z
			 M145.329,252.903c0.575,2.897,1.01,5.421,1.703,7.874c0.05,0.176,2.774,0.076,2.904-0.329c0.74-2.304,1.069-4.74,1.619-7.545
			C149.137,252.903,147.713,252.903,145.329,252.903z M151.82,378.25c-1.347-2.588,0.53-6.057-3.115-5.93
			c-3.66,0.127-2.454,3.587-2.863,5.752c-0.457,2.407,1.399,2.828,3.042,2.427C149.998,380.227,150.88,379.008,151.82,378.25z
			 M147.773,89.544c-2.659,2.591-3.925,6.748-2.204,7.817c1.116,0.693,3.866,0.686,4.498-0.109
			C152.535,94.147,150.035,91.902,147.773,89.544z M463.797,317.927c3.322,2.943,6.313,2.729,9.226-0.123
			C468.17,313.148,468.17,313.148,463.797,317.927z M306.321,313.119c-1.713,2.041-2.785,3.315-3.856,4.591
			c1.376,0.785,2.728,2.122,4.134,2.182c1.159,0.049,2.382-1.415,3.577-2.208C309.104,316.415,308.034,315.147,306.321,313.119z
			 M509.325,320.981c1.61-1.536,3.478-2.478,3.661-3.676c0.334-2.182-1.363-2.996-3.609-3.063c-2.331-0.07-3.894,0.855-3.587,3.009
			C505.96,318.446,507.76,319.41,509.325,320.981z M148.656,210.358c-3.307,3.108-3.968,5.746-2.316,8.231
			c0.583,0.877,2.871,0.619,4.381,0.879c0.336-0.374,0.671-0.746,1.007-1.119C150.783,215.891,149.837,213.431,148.656,210.358z
			 M427.016,321.116c1.88-1.455,4.099-2.324,4.298-3.528c0.287-1.736-1.192-3.857-3.477-3.072c-1.521,0.523-2.638,2.221-3.937,3.393
			C424.768,318.802,425.636,319.695,427.016,321.116z M346.318,321.16c1.728-1.555,2.854-2.568,3.979-3.582
			c-1.162-1.053-2.399-3.017-3.467-2.929c-1.389,0.114-2.644,1.86-3.955,2.903C343.834,318.558,344.793,319.563,346.318,321.16z
			 M321.47,24.78c0.336,0.413,0.672,0.826,1.009,1.238c1.712-0.265,4.019,0.029,4.957-0.967c0.795-0.845,0.364-3.327-0.249-4.78
			c-0.24-0.57-3.115-0.892-3.625-0.309C322.464,21.218,322.122,23.134,321.47,24.78z M224.804,321.196
			c1.674-1.396,2.842-2.369,4.01-3.343c-1.258-1.123-2.644-3.257-3.744-3.119c-1.453,0.182-2.682,2.146-4.007,3.343
			C222.128,318.966,223.194,319.854,224.804,321.196z M144.97,296.856c1.132,1.492,2.063,2.718,2.994,3.943
			c1.054-1.343,3.031-2.764,2.926-4.008c-0.132-1.549-1.982-2.952-3.09-4.419C146.949,293.72,146.1,295.067,144.97,296.856z
			 M387.998,321.055c1.506-1.363,3.502-2.385,3.449-3.286c-0.109-1.896-1.404-4.042-3.83-3.274
			c-1.456,0.461-2.537,2.107-3.787,3.221C385.055,318.696,386.28,319.678,387.998,321.055z M270.148,317.394
			c-2.252-0.559-3.047-5.441-6.339-1.771c-0.798,0.889-1.1,3.091-0.555,4.119C264.134,321.403,267.863,320.146,270.148,317.394z
			 M144.413,174.94c1.364,1.788,2.39,3.131,3.415,4.475c0.986-1.273,2.78-2.563,2.75-3.813c-0.035-1.51-1.614-2.983-2.525-4.472
			C146.978,172.257,145.901,173.383,144.413,174.94z M552.894,318.742c0.277-0.308,0.555-0.614,0.832-0.922
			c-0.987-1.169-1.782-3.037-2.999-3.37c-2.99-0.819-4.718,0.837-5.136,4.292C548.157,318.742,550.525,318.742,552.894,318.742z
			 M107.046,315.998c-2.436,0.396-4.742,0.771-7.047,1.146c0.453,1.566,0.904,3.133,1.595,5.526
			C103.519,320.012,107.636,321.324,107.046,315.998z M158.977,23.592c-1.389-1.799-2.182-2.827-2.975-3.855
			c-1.186,1.355-2.37,2.711-3.555,4.067c1.02,0.723,2.002,1.938,3.071,2.02C156.423,25.893,157.431,24.654,158.977,23.592z
			 M189.12,318.973c-0.087-0.696-0.174-1.393-0.262-2.089c-2.583,0-5.166,0-7.749,0c-0.208,0.321-0.415,0.642-0.622,0.963
			c0.946,0.866,1.889,2.442,2.84,2.447C185.256,320.305,187.188,319.463,189.12,318.973z M609.327,252.592
			c-0.489,2.434-0.364,4.305,2.205,4.332c2.165,0.022,3.691-1.109,3.208-4.024C612.944,252.798,611.176,252.697,609.327,252.592z
			 M320.98,134.737c0.028-0.311,0.056-0.622,0.083-0.933c-4.164,0-8.328,0-12.491,0c-0.008,0.311-0.015,0.622-0.022,0.933
			C312.693,134.737,316.836,134.737,320.98,134.737z M183.817,134.809c0-0.282,0-0.564,0-0.847c-4.364,0-8.727,0-13.092,0
			c0.001,0.283,0.001,0.564,0.001,0.847C175.091,134.809,179.454,134.809,183.817,134.809z M202.698,134.861
			c0.003-0.262,0.007-0.523,0.012-0.785c-3.833,0-7.665,0-11.498,0c0,0.262,0.002,0.523,0.003,0.785
			C195.043,134.861,198.871,134.861,202.698,134.861z M640.547,382.533c0.257,0.458,0.515,0.915,0.771,1.373
			c1.157,0.07,2.313,0.141,3.786,0.23c-0.068-1.349-0.121-2.372-0.233-4.595C642.965,380.86,641.756,381.697,640.547,382.533z
			 M333.102,291.977c0.986-0.918,1.744-1.622,2.5-2.327c-1-1.265-0.99-2.375-1.209-3.439c-0.144-0.695-0.62-1.322-0.947-1.979
			c-0.403,0.381-1.173,0.789-1.147,1.139C332.458,287.507,332.796,289.632,333.102,291.977z"/>
		<path fill-rule="evenodd" clip-rule="evenodd" d="M212.979,259.301c5.023,6.147,9.573,12.088,14.521,17.677
			c6.262,7.073,8.005,16.163,11.349,24.511c1.207,3.014,1.056,6.619,1.257,9.969c0.135,2.242,1.013,3.095,3.226,2.976
			c2.368-0.126,4.75,0.032,7.122-0.049c2.572-0.087,4.246,1.297,4.338,3.596c0.113,2.8-2.281,2.263-4.134,2.221
			c-3.742-0.084-7.485-0.141-11.229-0.146c-2.311-0.003-2.851-1.161-3.462-3.354c-2-7.176-0.98-14.954-4.956-21.776
			c-2.465-4.231-3.446-9.329-5.927-13.548c-3.757-6.389-8.413-12.207-14.782-16.313c-0.658-0.425-2.155-0.495-2.664-0.049
			c-3.481,3.061-6.873,6.233-10.16,9.503c-4.981,4.956-9.876,9.998-14.763,15.047c-2.326,2.402-4.493,4.958-6.841,7.336
			c-1.073,1.087-2.548,1.78-3.606,2.879c-4.353,4.515-8.615,9.116-12.732,14.691c2.658,0,5.374-0.34,7.957,0.099
			c2.416,0.411,4.691,1.647,7.028,2.521c0.063,0.358,0.125,0.719,0.188,1.078c-1.524,0.717-3.008,1.93-4.579,2.054
			c-4.225,0.333-8.487,0.222-12.734,0.235c-0.727,0.003-1.648-0.005-2.152-0.413c-2.869-2.321-3.077-0.027-3.81,1.934
			c-0.568,1.522-1.279,3.632-2.488,4.138c-2.318,0.969-3.329-0.938-4.124-3.05c-0.399-1.06-1.813-1.864-2.929-2.501
			c-2.249-1.286-2.357-2.666-0.282-4.257c2.25-1.725,4.862-3.092,4.475-6.798c-0.236-2.254,1.387-3.212,3.477-2.03
			c3.867,2.186,5.791,0.037,8.101-2.788c2.611-3.191,5.953-5.781,8.932-8.679c2.832-2.755,5.367-5.878,8.464-8.284
			c4.227-3.284,7.933-7.44,11.097-11.293c4.135-5.035,10.413-7.624,13.565-13.636c1.632-3.113,5.072-5.3,7.769-7.828
			c2.291-2.147,3.834-4.784,6.947-6.476c3.219-1.749,5.117-5.83,7.792-8.706c2.582-2.777,5.471-5.266,8.129-7.975
			c3.425-3.49,6.742-7.086,10.132-10.609c1.913-1.988,3.814-3.995,5.837-5.869c6.583-6.097,13.314-12.038,19.792-18.243
			c2.9-2.778,5.215-6.161,8.019-9.053c3.014-3.111,6.317-5.94,9.439-8.949c2.138-2.061,4.266-4.143,6.248-6.351
			c2.694-3.001,5.187-6.181,7.886-9.178c0.873-0.97,2.279-1.459,3.159-2.425c1.364-1.497,2.486-3.216,3.711-4.84
			c-0.238-0.302-0.475-0.604-0.712-0.906c-3.072,0-6.144,0-10.254,0c1.053-1.619,1.416-2.887,2.217-3.295
			c6.091-3.098,12.338-5.896,18.392-9.063c3.494-1.828,6.719-4.168,10.002-6.238c0.118-1.682,0.232-3.32,0.293-4.192
			c2.297,0,3.993-0.003,5.688,0.001c2.027,0.007,3.601,0.42,3.599,3.009c-0.002,5.825,0.128,11.65,0.193,17.476
			c0.02,1.838,0.002,3.677,0.002,6.06c-0.997-0.047-2.227-0.107-3.454-0.166c0.583-3.093,1.09-5.793,1.604-8.53
			c-0.656-2.325-1.357-4.811-2.059-7.297c-0.339,0.007-0.678,0.014-1.018,0.021c-0.368,0.687-0.747,1.369-1.102,2.063
			c-3.142,6.126-6.333,12.229-9.39,18.398c-1.093,2.205-1.701,4.655-2.836,6.834c-0.592,1.138-1.847,1.93-2.803,2.879
			c-0.357-1.24-0.753-2.47-1.064-3.72c-0.577-2.313-1.106-4.64-1.861-7.835c-2.58,2.618-4.318,4.508-6.19,6.256
			c-4.83,4.511-10.553,8.353-14.354,13.597c-4.027,5.557-9.468,9.514-13.733,14.728c-4.712,5.762-9.772,11.531-15.696,15.93
			c-5.915,4.39-9.066,11.548-16.048,14.729c-1.569,0.715-2.21,3.26-3.567,4.688c-3.947,4.153-8.03,8.177-12.079,12.232
			C223.06,249.258,217.751,254.539,212.979,259.301z"/>
		<path fill-rule="evenodd" clip-rule="evenodd" d="M592.001,280.075c1.816-0.862,3.188-1.513,4.684-2.223
			c0.499,3.639-1.683,6.726-5.254,7.378c-5.225,0.953-3.227-4.031-4.9-6.375c-2.561,2.203-5.033,4.406-7.606,6.488
			c-0.572,0.463-1.977,0.904-2.179,0.665c-2.055-2.437-4.47-1.49-6.88-0.997c-0.466,0.096-1.252,0.117-1.437-0.146
			c-1.95-2.778-4.226-1.463-6.24-0.37c-3.164,1.718-5.994,1.21-9.268-1.229c0-2.644-0.241-5.891,0.113-9.071
			c0.152-1.367,1.368-2.761,2.403-3.856c2.802-2.968,4.463-7.187,8.897-8.398c1.263-0.345,2.743-1.009,3.841-0.654
			c4.869,1.574,9.593,1.156,14.525,0.241c1.561-0.289,3.623,1.607,5.303,2.73c0.748,0.5,1.12,1.562,1.348,1.901
			c2.073-1.503,3.809-3.229,5.9-4.092c1.154-0.476,3.074,0.216,4.312,0.949c0.542,0.32,0.717,2.514,0.207,3.055
			c-0.736,0.782-2.241,1.118-3.429,1.146c-3.475,0.077-6.463,2.63-5.365,6.285C591.596,275.562,591.665,277.787,592.001,280.075z
			 M572.422,280.213c2.541,0.132,3.879,0.246,5.218,0.264c2.917,0.038,7.454-4.775,7.338-7.745
			c-0.072-1.846-4.745-7.552-6.501-7.776c-0.497-0.064-1.424,0.288-1.541,0.647C575.412,270.305,573.998,275.042,572.422,280.213z
			 M559.403,280.406c6.745-0.229,11.503-8.287,9.397-15.476C562.525,264.529,556.822,273.75,559.403,280.406z"/>
		<path fill-rule="evenodd" clip-rule="evenodd" d="M309.858,45.97c0.896,4.327-0.226,6.432-3.695,7.437
			c-3.261,0.946-4.717-0.291-6.945-6.175c-0.639,0.958-1.045,1.801-1.662,2.44c-1.242,1.287-2.512,3.382-3.924,3.515
			c-4.426,0.416-8.925,0.086-13.396,0.022c-1.367-0.02-2.831-0.465-4.083-0.114c-8.041,2.258-10.973-0.015-9.766-8.178
			c0.948-6.409,5.325-13.462,12.667-14.519c1.19-0.171,2.435-0.006,3.651,0.05c3.832,0.178,7.662,0.528,11.493,0.516
			c2.512-0.009,5.217-1.412,6.728,2.065c0.205,0.472,2.003,0.682,2.817,0.37c1.75-0.672,3.262-1.975,5.017-2.625
			c1.872-0.693,3.537-0.19,3.795,2.177c0.233,2.147-0.93,2.678-2.953,2.709c-4.796,0.074-6.537,2.447-5.515,7.128
			c0.08,0.366,0.184,0.727,0.256,1.093C305.223,48.29,306.071,48.656,309.858,45.97z M298.779,41.648
			c-0.279-0.233-0.558-0.465-0.837-0.697c-0.175-0.854-0.412-1.7-0.514-2.561c-0.379-3.178-2.468-4.978-5.272-4.224
			c-1.631,0.438-2.966,2.811-3.947,4.583c-0.867,1.564-1.262,3.48-1.471,5.287c-0.12,1.035,0.212,2.687,0.925,3.138
			c1.553,0.984,4.36,2.429,5.092,1.817C295.14,46.995,296.825,44.16,298.779,41.648z M282.454,38.392
			c0.401-4.724-0.486-5.333-4.555-3.611c-3.802,1.608-7.03,9.377-5.165,13.008c0.384,0.746,2.646,1.479,3.035,1.122
			C279.021,45.92,283.039,43.273,282.454,38.392z"/>
		<path fill-rule="evenodd" clip-rule="evenodd" d="M473.527,286.04c-5.643,0.516-8.451-1.597-9.79-6.007
			c-1.138-3.749-2.85-7.323-4.33-11.031c-3.71,2.402-6.035,8.406-4.792,13.055c0.803,3.001-0.644,3.805-2.969,4.183
			c-1.099,0.179-2.285,0.261-3.357,0.034c-1.088-0.23-2.366-0.667-3.005-1.461c-0.354-0.44,0.34-1.831,0.714-2.731
			c0.877-2.113,2.002-4.135,2.744-6.29c1.725-5.012,3.229-10.098,4.931-15.117c0.883-2.604,0.174-7.09-2.078-9.569
			c1.595-0.265,2.861-0.64,4.134-0.656c3.998-0.053,8-0.056,11.995,0.083c3.669,0.128,9.118,5.896,7.79,8.719
			c-1.538,3.267-3.871,6.417-6.593,8.77c-1.502,1.298-1.856,1.866-1.607,3.723c0.584,4.345,2.396,7.919,5.354,11.085
			C473.287,283.49,473.22,284.795,473.527,286.04z M457.91,266.424c3.376,0.53,9.131-2.583,9.427-5.087
			c0.248-2.11,2.054-5.175-1.589-6.312c-3.637-1.134-4.771-0.125-5.494,4.182c-0.179,1.064-0.615,2.089-0.956,3.124
			C458.859,263.664,458.397,264.99,457.91,266.424z"/>
		<path fill-rule="evenodd" clip-rule="evenodd" d="M241.889,46.102c2.042-3.144,4.083-6.286,6.126-9.429
			c-0.06-0.233-0.103-0.473-0.188-0.699c-0.521-1.377-1.051-2.75-1.578-4.125c1.114-0.334,2.662-1.284,3.248-0.871
			c1.117,0.786,2.154,2.27,2.388,3.61c0.68,3.892-1.952,6.643-4.077,9.392c-3.702,4.785-7.539,9.474-11.507,14.04
			c-1.822,2.096-3.987,3.932-6.18,5.653c-2.236,1.754-5.575,0.678-5.902-1.663c-0.375-2.679,1.115-3.179,3.33-3.141
			c3.665,0.061,6.475-2.148,6.554-5.796c0.115-5.357-0.158-10.737-0.571-16.085c-0.2-2.592-2.748-3.31-4.697-1.588
			c-2.627,2.32-2.627,2.32-6.324,0.442c-2.509,5.13-5.246,10.159-7.422,15.419c-1.059,2.56-2.677,2.886-4.65,2.255
			c-2.319-0.741-1.316-2.271-0.917-4.144c1.152-5.391,4.523-10.202,3.195-16.36c-0.694-3.212,3.508-3.032,5.398-2.412
			c5.354,1.758,10.553,0.514,15.794,0.021c2.985-0.281,4.87,0.57,5.282,3.668c0.375,2.825,0.618,5.667,0.943,8.5
			c0.119,1.037,0.311,2.065,0.469,3.096C241.032,45.958,241.46,46.03,241.889,46.102z"/>
		<path fill-rule="evenodd" clip-rule="evenodd" d="M291.741,249.448c-0.04,7.692-1.904,15.012-7.075,20.443
			c-2.992,3.145-5.563,7.745-11.358,7.861c-3.949,0.079-5.945-0.349-6.999-4.288c-0.771-2.882-2.711-6.54-1.666-8.606
			c2.649-5.237,1.711-11.77,6.987-16.271c2.198-1.876,3.72-4.874,6.596-6.685c3.64-2.29,10.613-1.547,12.582,2.221
			C291.602,245.646,291.458,247.658,291.741,249.448z M280.873,257.725c4.251-2.927,5.402-5.422,5.017-10.361
			c-0.086-1.107-1.11-3.01-1.75-3.03c-1.535-0.048-3.595,0.352-4.542,1.391c-1.836,2.018-3.264,4.499-4.445,6.984
			c-0.709,1.492-0.632,3.357-0.902,5.017C277.142,257.725,279.007,257.725,280.873,257.725z M281.759,261.494
			c-9.163-1.506-11.779,0.446-11.358,8.243c0.117,2.162,1.029,2.804,3.009,2.687C277.962,272.154,282.287,266.534,281.759,261.494z"
			/>
		<path fill-rule="evenodd" clip-rule="evenodd" d="M83.649,35.899c-3.642,1.734-5.474,4.753-7.097,7.797
			c-1.382,2.593-1.934,5.69-3.582,8.055c-0.918,1.318-3.326,1.597-5.062,2.343c-0.242-0.309-0.482-0.618-0.724-0.927
			c1.4-5.6,2.8-11.199,4.2-16.798c-0.402-0.151-0.804-0.301-1.206-0.452c-3.653,4.647-6.856,9.537-8.677,15.328
			c-0.332,1.056-1.564,2.228-2.62,2.54c-0.982,0.291-2.918-0.176-3.276-0.89c-0.418-0.833,0.43-2.294,0.712-3.486
			c1.31-5.533,5.298-10.575,2.97-17.054c3.147-1.61,6.132-2.349,8.777,0.854c3.491-3.106,7.418-2.711,9.998,1.299
			c1.153-0.684,2.253-1.656,3.526-2.018c1.94-0.551,4.082-1.126,5.97-0.78c0.82,0.15,1.635,2.54,1.721,3.956
			c0.117,1.938-0.576,3.911-0.716,5.883c-0.15,2.116,0.044,4.257-0.117,6.372c-0.113,1.479-0.094,3.662-0.978,4.238
			c-1.598,1.042-3.825,1.118-5.79,1.597c-0.434-1.889-1.323-3.815-1.178-5.659c0.16-2.036,1.374-3.969,1.933-6
			C82.939,40.261,83.181,38.351,83.649,35.899z"/>
		<path fill-rule="evenodd" clip-rule="evenodd" d="M128.838,65.089c-4.189-0.493-8.14,0.799-10.736-3.138
			c-2.356-3.57-1.688-6.813,2.097-8.819c3.124-1.656,4.078-6.415,1.847-9.219c-3.257-4.097-0.215-11.059,4.705-12.639
			c5.457-1.752,10.546,0.497,15.804,0.199c0.749-0.042,1.556,0.923,2.336,1.422c-0.611,0.795-1.204,1.606-1.839,2.382
			c-0.768,0.938-2.037,1.738-2.284,2.788c-1.328,5.638-3.088,7.356-8.977,8.548c-0.921,0.186-1.691,1.121-2.532,1.709
			c0.659,0.64,1.234,1.413,1.996,1.886c1.028,0.638,2.157,1.209,3.319,1.515c2.65,0.698,5.506,1.005,5.821,4.615
			c0.269,3.075-1.935,6.633-5.209,7.664C132.971,64.701,130.571,64.811,128.838,65.089z M122.31,58.758
			c2.145,2.552,7.113,3.964,9.663,2.293c1.127-0.738,2.26-3.633,1.735-4.373C130.565,52.251,124.574,53.409,122.31,58.758z
			 M125.232,39.465c1.954,1.212,1.904,5.287,5.005,3.794c1.833-0.883,3.064-3.506,3.964-5.604c0.37-0.863-0.624-3.306-1.37-3.485
			C128.91,33.225,127.359,36.426,125.232,39.465z"/>
		<path fill-rule="evenodd" clip-rule="evenodd" d="M101.551,199.146c2.036-0.23,4.073-0.618,6.104-0.593
			c0.612,0.007,1.753,1.205,1.713,1.792c-0.135,1.931-0.635,3.849-1.123,5.738c-0.374,1.448-0.939,2.847-1.223,3.685
			c3.537,1.042,6.666,1.53,9.324,2.92c1.428,0.747,2.685,2.952,2.923,4.652c1.03,7.366-4.317,16.057-11.523,17.849
			c-3.237,0.806-7.158,0.169-10.425-0.882c-2.361-0.76-2.938-3.551-2.07-6.297c1.96-6.201,3.733-12.462,5.61-18.69
			c0.28-0.931,0.905-1.791,1.035-2.729c0.292-2.126,0.374-4.281,0.541-6.424C102.142,199.826,101.846,199.486,101.551,199.146z
			 M113.423,219.549c-0.544-0.75-1.366-3.05-2.705-3.406c-1.409-0.374-4.136,0.638-4.842,1.87
			c-1.961,3.424-3.497,7.184-4.576,10.987c-0.877,3.09,1.833,4.573,5.277,3.109C111.596,229.975,112.593,225.456,113.423,219.549z"
			/>
		<path fill-rule="evenodd" clip-rule="evenodd" d="M261.038,347.136c-0.893,3.748-1.901,7.488-2.634,11.282
			c-0.34,1.763,0.104,3.678-0.249,5.436c-0.449,2.235-0.794,4.923-2.233,6.383c-1.015,1.029-4.008,1.398-5.279-1.444
			c-0.18-0.402-2.558-0.473-3.228,0.104c-2.808,2.422-5.807,2.897-8.479,0.496c-3.405-3.061-3.549-7.326-1.27-10.926
			c0.75-1.184,0.75-2.822,1.416-4.08c2.541-4.799,6.881-7.667,11.893-8.73C253.788,345.06,257.026,346.47,261.038,347.136z
			 M251.547,348.812c-1.721,1.313-3.403,2.311-4.724,3.662c-3.025,3.098-4.957,6.766-4.006,11.234
			c0.171,0.807,2.06,2.068,2.646,1.836C251.21,363.263,254.304,354.923,251.547,348.812z"/>
		<path fill-rule="evenodd" clip-rule="evenodd" d="M516.472,286.35c-2.964-2.85-5.947-3.193-9.267-0.306
			c-1.695,1.474-5.938-0.405-6.821-2.688c-1.943-5.023,0.372-11.978,4.611-15.483c2.451-2.028,3.475-5.757,7.294-6.19
			c1.205-0.137,2.436-0.188,3.646-0.124c2.29,0.12,4.575,0.352,7.902,0.62c1.271,2.224,0.173,5.471-1.16,8.349
			c-1.462,3.159-2.418,6.137-1.3,9.561c0.652,1.999,1.089,3.917-1.938,4.505C518.431,284.787,517.559,285.682,516.472,286.35z
			 M506.281,280.26c3.299,0.133,7.77-2.924,8.924-5.922c0.607-1.579,1.633-3.131,1.721-4.735c0.073-1.35-0.779-2.856-1.551-4.088
			c-0.271-0.432-1.688-0.595-2.297-0.297C507.557,267.924,505.056,273.468,506.281,280.26z"/>
		<path fill-rule="evenodd" clip-rule="evenodd" d="M176.94,35.634c-4.021-0.16-5.477,2.196-6.529,4.251
			c-2.012,3.933-5.856,6.703-6.316,11.747c-0.275,3.015-3.541,2.2-6.683,1.528c1.545-4.598,2.981-8.998,4.51-13.366
			c0.73-2.087,2.087-4.109-0.483-5.969c-0.34-0.246-0.248-1.813-0.148-1.835c2.159-0.479,4.357-1.126,6.523-1.044
			c0.823,0.031,1.579,1.797,2.054,2.386c2.956-0.686,6.064-1.629,9.242-2.079c3.024-0.428,3.922,1.583,3.579,4.22
			c-0.272,2.091-0.896,4.141-1.105,6.234c-0.229,2.286-1.907,4.599,0.222,6.956c0.432,0.479-0.012,2.716-0.506,2.895
			c-2.45,0.89-5.04,1.433-7.621,1.835c-0.185,0.029-1.107-2.102-0.965-3.128c0.24-1.741,1.118-3.384,1.617-5.101
			C175.188,42.212,175.959,39.235,176.94,35.634z"/>
		<path fill-rule="evenodd" clip-rule="evenodd" d="M116.261,51.03c-2.61,2.835-5.651,3.62-9.311,2.003
			c-0.6-0.265-1.441,0.025-2.17,0.041c-3.276,0.069-8.027,1.454-9.456-0.139c-1.771-1.974-1.43-6.53-0.859-9.769
			c1.075-6.106,4.79-10.663,11.061-11.893c3.738-0.734,7.74-0.214,11.61-0.015c0.323,0.017,0.952,1.991,0.749,2.902
			c-0.688,3.087-1.937,6.061-2.485,9.164c-0.413,2.34-0.082,4.811-0.082,7.224C115.632,50.71,115.947,50.87,116.261,51.03z
			 M99.377,46.58c0.291,0.619,0.611,2.388,1.312,2.555c1.25,0.296,3.35,0.107,4-0.729c2.236-2.879,4.192-6.028,5.828-9.289
			c0.528-1.053,0.212-3.241-0.587-4.037c-0.716-0.714-2.805-0.666-3.98-0.191C101.02,36.875,100.195,41.429,99.377,46.58z"/>
		<path fill-rule="evenodd" clip-rule="evenodd" d="M190.851,53.766c-5.139-0.077-7.829-3.87-5.457-9.064
			c1.889-4.137,2.133-9.442,7.408-11.794c3.285-1.463,6.179-3.401,9.997-1.973c1.09,0.407,2.436,0.075,3.633,0.27
			c1.008,0.165,2.279,0.343,2.849,1.013c0.396,0.466,0.098,1.992-0.399,2.671c-2.962,4.049-2.904,8.583-2.158,13.146
			c0.649,3.973-1.415,6.755-5.229,5.481c-3.107-1.037-5.616-0.453-8.404,0.224C192.383,53.912,191.599,53.766,190.851,53.766z
			 M190.431,45.345c0.59,1.381,0.832,3.301,1.789,3.773c0.823,0.406,2.889-0.489,3.658-1.423c2.289-2.781,4.37-5.772,6.168-8.89
			c0.502-0.869,0.18-3.004-0.546-3.591c-0.927-0.75-2.844-1.046-3.991-0.618C192.671,36.4,192.479,41.319,190.431,45.345z"/>
		<path fill-rule="evenodd" clip-rule="evenodd" d="M483.091,277.161c0.192,4.552,3.507,3.473,5.738,3.225
			c2.058-0.229,4-1.485,6.64-2.549c-0.638,3.833-1.988,5.714-4.822,6.571c-1.357,0.411-2.527,1.417-3.872,1.906
			c-3.926,1.43-9.373-2.054-9.729-6.233c-0.409-4.79-0.61-9.562,4.357-12.518c0.409-0.243,0.913-0.635,1.014-1.046
			c1.543-6.247,7.017-4.348,11.034-5.074c1.058-0.19,3.3,1.581,3.6,2.797c0.529,2.149,1.638,4.799-1.328,6.628
			c-2.558,1.579-4.704,3.84-7.299,5.34C487.034,277.011,485.084,276.844,483.091,277.161z M483.057,271.172
			c0.355,0.401,0.71,0.803,1.065,1.203c1.941-0.646,4.241-0.859,5.706-2.079c1.104-0.917,2.063-3.742,1.466-4.635
			c-1.57-2.348-1.923,0.623-2.896,1.211c-0.509,0.306-1.327,0.188-1.731,0.559C485.394,268.602,484.25,269.915,483.057,271.172z"/>
		<path fill-rule="evenodd" clip-rule="evenodd" d="M49.013,53.582c-2.681,0-6.223,0-10.173,0c4.023-5.394,9.395-28.448,7.81-33.035
			c2.954-2.139,6.332-1.37,9.555-1.053c0.357,0.035,1.051,2.606,0.71,2.87c-3.185,2.47-2.553,6.265-3.601,9.455
			c-1.653,5.03-3.576,9.985-4.945,15.089C47.888,48.7,48.703,50.839,49.013,53.582z"/>
		<path fill-rule="evenodd" clip-rule="evenodd" d="M612.266,283.596c0.902-2.4,1.755-4.67,2.607-6.938
			c0.407,0.094,0.813,0.187,1.219,0.28c1.112,1.827,1.846,4.36,3.471,5.234c1.08,0.581,3.435-1.21,5.116-1.897
			c-2.176-4.7-6.164-7.578-6.096-12.536c0.071-5.167,3.529-7.798,8.684-6.446c1.79,0.47,3.556,1.032,5.829,1.698
			c0,1.027,0.355,2.489-0.109,3.609c-0.392,0.942-1.654,1.75-2.703,2.09c-0.479,0.155-1.676-0.806-2.018-1.516
			c-1.12-2.324-2.45-3.286-5.168-1.195c1.281,1.778,2.405,3.597,3.785,5.194c2.251,2.608,3.18,10.128,1.372,12.365
			c-2.063,2.555-9.321,3.666-12.528,1.922C614.863,284.99,613.996,284.527,612.266,283.596z"/>
		<path fill-rule="evenodd" clip-rule="evenodd" d="M532.337,277.851c2.46,0.534,3.481,2.471,1.732,4.686
			c-1.254,1.588-3.503,2.391-5.231,3.495c-4.672-3.066-4.798-4.57-2.415-9.477c1.521-3.133,2.177-6.687,3.203-10.058
			c1.104-3.622,2.273-7.229,3.211-10.895c0.208-0.813-0.392-1.858-0.7-2.77c-0.181-0.531-0.875-1.222-0.725-1.471
			c0.473-0.78,1.226-1.945,1.885-1.955c1.896-0.026,3.828,0.331,5.666,0.833c0.273,0.074,0.391,1.843,0.1,2.655
			c-1.189,3.331-2.908,6.508-3.789,9.907C534.013,267.672,533.315,272.687,532.337,277.851z"/>
		<path fill-rule="evenodd" clip-rule="evenodd" d="M346.681,30.292c-1.096,2.922-1.896,5.055-2.854,7.614
			c-0.804-0.667-1.104-0.996-1.473-1.209c-1.514-0.876-3.049-1.719-4.575-2.574c0.414,1.804,0.517,3.763,1.319,5.373
			c0.998,2.001,3.171,3.538,3.777,5.588c1.333,4.505-0.496,7.971-5.786,8.603c-2.693,0.321-5.469-0.075-8.207-0.113
			c-2.532-0.035-2.833-1.541-2.327-3.525c0.241-0.947,0.524-1.919,1.004-2.756c0.374-0.651,1.006-1.306,1.675-1.56
			c0.269-0.103,1.005,0.809,1.417,1.344c0.654,0.848,1.058,1.961,1.854,2.609c0.984,0.799,2.262,1.236,3.413,1.831
			c0.375-1.698,0.968-3.388,1.03-5.098c0.028-0.791-1.01-1.599-1.502-2.437c-0.97-1.65-2.277-3.22-2.774-5.01
			c-1.797-6.466-0.058-8.941,7.442-8.688C341.839,30.341,343.566,30.292,346.681,30.292z"/>
		<path fill-rule="evenodd" clip-rule="evenodd" d="M232.529,186.485c0.4,1.505,0.651,2.449,0.92,3.461
			c1.146-0.849,2.081-1.919,3.243-2.301c1.266-0.416,3.157-0.742,4.01-0.096c0.896,0.678,1.547,2.826,1.127,3.849
			c-0.814,1.984-1.805,4.217-5.077,3.423c-3.749-0.909-4.082,3.226-5.717,5.051c-1.854,2.068-2.226,5.395-3.637,7.958
			c-0.693,1.261-2.276,2.032-3.457,3.024c-0.637-1.236-1.989-2.611-1.781-3.684c0.741-3.829,1.501-7.813,3.234-11.245
			c1.577-3.123,1.291-5.456-1.199-8.632C227.287,186.993,229.777,186.752,232.529,186.485z"/>
		<path fill-rule="evenodd" clip-rule="evenodd" d="M608.975,261.252c3.981,0.001,5.072,2.154,3.299,5.878
			c-1.255,2.637-2.185,5.451-2.992,8.264c-0.254,0.882,0.564,2.021,0.53,3.031c-0.063,1.89,0.198,4.213-0.786,5.522
			c-0.868,1.157-3.595,2.035-4.881,1.513c-2.25-0.915-2.598-2.781-1.7-5.739c1.464-4.828,1.604-10.099,1.962-15.206
			C604.583,262.006,605.241,261.251,608.975,261.252z"/>
		<path fill-rule="evenodd" clip-rule="evenodd" d="M148.535,31.98c0.896-0.221,2.404-0.837,3.936-0.897
			c1.351-0.054,2.727,0.512,4.092,0.805c-0.302,1.103-0.572,2.216-0.912,3.308c-0.898,2.881-1.979,5.719-2.656,8.651
			c-0.229,0.985,0.598,2.188,0.836,3.314c0.306,1.45,1.012,4.049,0.667,4.205c-2.354,1.063-4.938,1.615-7.448,2.332
			c-0.366-1.378-1.248-2.857-1.001-4.115c0.752-3.844,2.111-7.569,2.877-11.411C149.263,36.482,148.735,34.624,148.535,31.98z"/>
		<path fill-rule="evenodd" clip-rule="evenodd" d="M318.071,31.954c1.341-0.581,2.659-1.552,4.029-1.63
			c1.322-0.076,3.083,0.421,3.909,1.336c0.524,0.582-0.185,2.423-0.554,3.635c-0.994,3.266-2.144,6.484-3.115,9.756
			c-0.139,0.466,0.396,1.116,0.573,1.694c0.488,1.591,0.952,3.19,1.424,4.786c-2.569,0.655-5.127,1.37-7.729,1.849
			c-0.208,0.038-1.146-1.637-1.009-2.381c0.5-2.728,1.463-5.371,1.965-8.099c0.62-3.363,0.953-6.778,1.41-10.171
			C318.674,32.471,318.373,32.213,318.071,31.954z"/>
		<path fill-rule="evenodd" clip-rule="evenodd" d="M315.974,318.112c4.435-6.616,10.951-2.272,16.572-4.479
			c0-4.053-0.01-8.444,0.011-12.835c0.003-0.698,0.141-1.396,0.217-2.093c0.844,0.154,1.689,0.309,1.664,0.304
			c0,2.522-0.199,4.365,0.041,6.149c0.518,3.855,1.471,7.664,1.777,11.529c0.084,1.059-1.427,3.169-2.31,3.227
			c-4.827,0.32-9.69,0.252-14.532,0.067C318.354,319.941,317.332,318.883,315.974,318.112z"/>
		<path fill-rule="evenodd" clip-rule="evenodd" d="M147.123,368.091c-0.609-2.155-1.506-4.278-1.756-6.474
			c-0.337-2.963-0.184-5.982-0.228-8.978c-0.07-4.693,0.743-5.293,6.023-4.075c-0.66,6.458,2.294,13.427-1.877,19.473
			C148.564,368.055,147.843,368.072,147.123,368.091z"/>
		<path fill-rule="evenodd" clip-rule="evenodd" d="M147.369,126.199c-0.873-2.221-1.778-3.523-1.838-4.862
			c-0.203-4.566-0.215-9.149-0.036-13.716c0.036-0.901,1.504-2.591,1.874-2.478c1.226,0.373,3.133,1.326,3.208,2.194
			c0.406,4.673,0.562,9.401,0.294,14.081C150.794,122.768,149.03,124.022,147.369,126.199z"/>
		<path fill-rule="evenodd" clip-rule="evenodd" d="M145.167,236.061c0.114-2.363-0.093-4.81,0.478-7.058
			c0.284-1.115,1.866-2.322,3.095-2.68c1.989-0.577,2.455,1.007,2.465,2.704c0.026,4.344,0.054,8.688,0.142,13.031
			c0.049,2.397-1.604,3.28-3.346,2.83c-1.048-0.271-2.128-1.999-2.418-3.252c-0.41-1.771-0.104-3.706-0.104-5.571
			C145.375,236.063,145.271,236.063,145.167,236.061z"/>
		<path fill-rule="evenodd" clip-rule="evenodd" d="M147.005,286.473c-0.434-1.72-1.123-3.423-1.247-5.165
			c-0.248-3.466-0.4-6.97-0.136-10.424c0.097-1.275,1.479-2.453,2.274-3.675c1.102,1.117,3.024,2.147,3.155,3.368
			c0.434,4.06,0.473,8.21,0.12,12.277c-0.119,1.367-1.867,2.593-2.87,3.883C147.869,286.649,147.438,286.562,147.005,286.473z"/>
		<path fill-rule="evenodd" clip-rule="evenodd" d="M407.552,319.944c-1.99,0-4.013,0.216-5.959-0.074
			c-1.361-0.203-2.618-1.099-3.922-1.687c0.809-1.131,1.405-2.549,2.469-3.335c2.395-1.771,15.357-0.425,17.272,1.763
			c0.311,0.354-0.3,2.297-0.726,2.389c-2.99,0.647-6.045,1.002-9.079,1.449C407.59,320.281,407.57,320.112,407.552,319.944z"/>
		<path fill-rule="evenodd" clip-rule="evenodd" d="M297.14,318.439c-2.918,0.74-4.974,1.706-7.021,1.688
			c-4.128-0.036-8.28-0.418-12.366-1.036c-2.069-0.313-2.596-1.343-0.263-2.729C283.063,313.053,290.824,313.486,297.14,318.439z"/>
		<path fill-rule="evenodd" clip-rule="evenodd" d="M373.422,319.606c-4.18,0.231-8.356,0.563-12.539,0.624
			c-0.994,0.016-2.801-0.808-2.846-1.358c-0.106-1.311,0.231-3.054,1.09-3.957c1.47-1.545,13.79-0.556,15.612,1.027
			c0.72,0.626,1.818,2.006,1.639,2.26c-0.637,0.9-1.751,1.463-2.686,2.154C373.603,320.105,373.512,319.855,373.422,319.606z"/>
		<path fill-rule="evenodd" clip-rule="evenodd" d="M147.417,84.971c-0.825-1.237-2.023-2.212-2.06-3.228
			c-0.165-4.565-0.099-9.147,0.136-13.71c0.044-0.842,1.254-1.623,1.926-2.432c0.664,0.635,1.466,1.177,1.968,1.921
			C152.492,72.117,151.692,80.867,147.417,84.971z"/>
		<path fill-rule="evenodd" clip-rule="evenodd" d="M151.056,204.436c-5.113,0.978-5.386,0.857-5.629-3.751
			c-0.189-3.601-0.174-7.217-0.091-10.822c0.042-1.819,0.485-3.506,2.995-3.359c2.382,0.139,2.75,1.616,2.736,3.557
			C151.033,194.773,151.056,199.485,151.056,204.436z"/>
		<path fill-rule="evenodd" clip-rule="evenodd" d="M457.395,318.533c-6.457,0.711-12.949,3.441-19.872-0.458
			c4.874-6.283,11.238-3.06,16.718-3.575c1.146-0.108,2.496,1.964,3.752,3.031C457.793,317.865,457.594,318.199,457.395,318.533z"/>
		<path fill-rule="evenodd" clip-rule="evenodd" d="M216.072,317.65c-1.806,1.194-2.991,2.653-4.08,2.585
			c-5.717-0.356-11.887,1.939-17.613-2.092C201.399,312.123,208.056,314.508,216.072,317.65z"/>
		<path fill-rule="evenodd" clip-rule="evenodd" d="M146.877,165.124c-0.661-2.516-1.521-4.546-1.664-6.625
			c-0.22-3.205-0.173-6.473,0.23-9.654c0.156-1.229,1.596-2.295,2.45-3.436c1.063,1.11,2.982,2.181,3.036,3.338
			c0.202,4.334-0.047,8.713-0.51,13.035C150.317,162.733,148.646,163.517,146.877,165.124z"/>
		<path fill-rule="evenodd" clip-rule="evenodd" d="M151.226,396.906c0,2.11,0.267,4.271-0.117,6.31
			c-0.182,0.965-1.579,2.324-2.473,2.361c-0.946,0.04-2.779-1.264-2.792-2.006c-0.079-4.568,0.148-9.153,0.57-13.705
			c0.05-0.547,1.91-1.322,2.882-1.257c0.735,0.049,1.885,1.202,1.99,1.979c0.28,2.072,0.095,4.208,0.095,6.318
			C151.33,396.906,151.278,396.906,151.226,396.906z"/>
		<path fill-rule="evenodd" clip-rule="evenodd" d="M498.614,318.475c-6.33,3.358-12.825-0.413-19.527,0.528
			c0.476-3.401,1.97-4.767,4.736-4.753c2.729,0.013,5.459,0.094,8.186,0.025C494.88,314.204,497.585,314.311,498.614,318.475z"/>
		<path fill-rule="evenodd" clip-rule="evenodd" d="M518.679,318.225c4.734-6.422,10.919-3.367,16.225-3.723
			c1.592-0.107,3.32,1.856,4.77,3.447C532.752,319.334,526.075,320.639,518.679,318.225z"/>
		<path fill-rule="evenodd" clip-rule="evenodd" d="M124.249,320.372c-2.484,0-4.987,0.17-7.443-0.096
			c-0.811-0.087-1.708-1.191-2.135-2.046c-0.148-0.297,0.89-1.418,1.58-1.863c3.621-2.331,7.308-2.456,11.17-0.387
			c1.012,0.542,2.467,0.188,3.644,0.514c0.905,0.251,1.694,0.922,2.534,1.405c-0.881,0.811-1.672,2.162-2.659,2.323
			c-2.178,0.354-4.454,0.11-6.69,0.11C124.25,320.346,124.25,320.359,124.249,320.372z"/>
		<path fill-rule="evenodd" clip-rule="evenodd" d="M93.058,316.62c0.872,2.74,0.035,4.025-2.446,3.983
			c-4.232-0.073-8.476-0.116-12.686-0.488c-1.043-0.093-1.979-1.399-2.964-2.149c0.779-0.571,1.575-1.123,2.335-1.719
			C82.802,311.937,87.836,317.243,93.058,316.62z"/>
		<path fill-rule="evenodd" clip-rule="evenodd" d="M334.111,234.85c0,15.722,0,31.445,0,47.167
			c-0.43,0.003-0.859,0.006-1.288,0.009c0-15.713,0-31.425,0-47.138C333.252,234.875,333.682,234.862,334.111,234.85z"/>
		<path fill-rule="evenodd" clip-rule="evenodd" d="M168.98,134.962c-3.985,0-7.99-0.231-11.949,0.093
			c-2.119,0.173-4.159,1.3-6.233,2.003c-1.572,0.533-3.303,2.775-4.7,0.397c-0.77-1.31-0.489-3.383-0.241-5.046
			c0.063-0.429,2.296-1.165,2.678-0.819c3.836,3.485,8.415,1.745,12.677,2.007c2.608,0.16,5.235,0.029,7.853,0.029
			C169.037,134.072,169.009,134.517,168.98,134.962z"/>
		<path fill-rule="evenodd" clip-rule="evenodd" d="M151.883,338.238c-1.237,1.092-2.405,2.993-3.726,3.105
			c-2.776,0.236-2.739-2.347-2.601-4.27c0.136-1.908-0.395-4.627,2.803-4.608C151.884,332.485,150.861,335.394,151.883,338.238z"/>
		<path fill-rule="evenodd" clip-rule="evenodd" d="M332.244,198.806c0-3.013,0-5.676,0-8.341c0.325-0.066,0.649-0.132,0.974-0.199
			c-0.743-0.71-1.488-1.422-2.215-2.117c2.131-2.725,2.09-8.031-0.252-9.918c0.789-0.734,1.551-1.444,2.338-2.176
			c0.136,0.042,0.442,0.05,0.486,0.162C335.121,180.145,334.183,197.805,332.244,198.806z"/>
		<path fill-rule="evenodd" clip-rule="evenodd" d="M333.693,201.342c0.824,8.822,0.708,17.646,0.117,26.469
			c-0.411,0-0.822,0-1.232,0.001c0-8.833,0-17.665,0-26.497C332.95,201.323,333.321,201.333,333.693,201.342z"/>
		<path fill-rule="evenodd" clip-rule="evenodd" d="M145.329,252.903c2.385,0,3.808,0,6.226,0c-0.55,2.805-0.879,5.241-1.619,7.545
			c-0.13,0.405-2.854,0.505-2.904,0.329C146.338,258.324,145.903,255.801,145.329,252.903z"/>
		<path fill-rule="evenodd" clip-rule="evenodd" d="M151.82,378.25c-0.939,0.758-1.822,1.977-2.937,2.249
			c-1.643,0.401-3.499-0.02-3.042-2.427c0.409-2.165-0.796-5.625,2.863-5.752C152.35,372.193,150.473,375.662,151.82,378.25z"/>
		<path fill-rule="evenodd" clip-rule="evenodd" d="M147.773,89.544c2.262,2.358,4.762,4.603,2.294,7.708
			c-0.632,0.795-3.382,0.803-4.498,0.109C143.848,96.292,145.114,92.135,147.773,89.544z"/>
		<path fill-rule="evenodd" clip-rule="evenodd" d="M463.797,317.927c4.373-4.778,4.373-4.778,9.226-0.123
			C470.11,320.656,467.119,320.87,463.797,317.927z"/>
		<path fill-rule="evenodd" clip-rule="evenodd" d="M306.321,313.119c1.712,2.028,2.783,3.296,3.854,4.564
			c-1.195,0.793-2.418,2.257-3.577,2.208c-1.406-0.06-2.758-1.396-4.134-2.182C303.537,316.435,304.608,315.16,306.321,313.119z"/>
		<path fill-rule="evenodd" clip-rule="evenodd" d="M509.325,320.981c-1.565-1.571-3.365-2.535-3.535-3.73
			c-0.307-2.153,1.256-3.079,3.587-3.009c2.246,0.067,3.943,0.882,3.609,3.063C512.803,318.504,510.936,319.445,509.325,320.981z"/>
		<path fill-rule="evenodd" clip-rule="evenodd" d="M148.656,210.358c1.181,3.072,2.126,5.532,3.071,7.991
			c-0.335,0.373-0.671,0.745-1.007,1.119c-1.51-0.26-3.798-0.002-4.381-0.879C144.688,216.104,145.349,213.467,148.656,210.358z"/>
		<path fill-rule="evenodd" clip-rule="evenodd" d="M427.016,321.116c-1.38-1.421-2.248-2.314-3.115-3.208
			c1.299-1.172,2.415-2.869,3.937-3.393c2.284-0.785,3.764,1.336,3.477,3.072C431.114,318.792,428.896,319.661,427.016,321.116z"/>
		<path fill-rule="evenodd" clip-rule="evenodd" d="M346.318,321.16c-1.525-1.598-2.484-2.603-3.443-3.607
			c1.312-1.043,2.566-2.789,3.955-2.903c1.067-0.088,2.305,1.876,3.467,2.929C349.172,318.592,348.046,319.605,346.318,321.16z"/>
		<path fill-rule="evenodd" clip-rule="evenodd" d="M321.47,24.78c0.652-1.646,0.994-3.562,2.092-4.818
			c0.51-0.583,3.385-0.261,3.625,0.309c0.612,1.453,1.044,3.935,0.249,4.78c-0.938,0.996-3.245,0.702-4.957,0.967
			C322.142,25.605,321.806,25.192,321.47,24.78z"/>
		<path fill-rule="evenodd" clip-rule="evenodd" d="M224.804,321.196c-1.61-1.343-2.676-2.23-3.741-3.119
			c1.325-1.197,2.554-3.161,4.007-3.343c1.1-0.138,2.485,1.996,3.744,3.119C227.646,318.827,226.478,319.801,224.804,321.196z"/>
		<path fill-rule="evenodd" clip-rule="evenodd" d="M144.97,296.856c1.129-1.789,1.979-3.137,2.829-4.483
			c1.108,1.467,2.958,2.87,3.09,4.419c0.105,1.244-1.872,2.665-2.926,4.008C147.034,299.574,146.103,298.349,144.97,296.856z"/>
		<path fill-rule="evenodd" clip-rule="evenodd" d="M387.998,321.055c-1.718-1.377-2.943-2.358-4.168-3.34
			c1.25-1.113,2.331-2.76,3.787-3.221c2.426-0.768,3.721,1.378,3.83,3.274C391.5,318.67,389.504,319.691,387.998,321.055z"/>
		<path fill-rule="evenodd" clip-rule="evenodd" d="M270.148,317.394c-2.286,2.753-6.014,4.01-6.895,2.348
			c-0.545-1.028-0.243-3.23,0.555-4.119C267.101,311.952,267.896,316.835,270.148,317.394z"/>
		<path fill-rule="evenodd" clip-rule="evenodd" d="M144.413,174.94c1.489-1.558,2.565-2.684,3.64-3.81
			c0.911,1.489,2.49,2.962,2.525,4.472c0.029,1.249-1.765,2.54-2.75,3.813C146.802,178.071,145.777,176.728,144.413,174.94z"/>
		<path fill-rule="evenodd" clip-rule="evenodd" d="M552.894,318.742c-2.368,0-4.736,0-7.303,0c0.418-3.455,2.146-5.111,5.136-4.292
			c1.217,0.333,2.012,2.201,2.999,3.37C553.448,318.128,553.171,318.435,552.894,318.742z"/>
		<path fill-rule="evenodd" clip-rule="evenodd" d="M107.046,315.998c0.59,5.326-3.527,4.014-5.452,6.673
			c-0.691-2.394-1.143-3.96-1.595-5.526C102.304,316.77,104.61,316.395,107.046,315.998z"/>
		<path fill-rule="evenodd" clip-rule="evenodd" d="M158.977,23.592c-1.546,1.062-2.553,2.301-3.459,2.231
			c-1.069-0.082-2.051-1.296-3.071-2.02c1.185-1.356,2.37-2.711,3.555-4.067C156.794,20.766,157.588,21.793,158.977,23.592z"/>
		<path fill-rule="evenodd" clip-rule="evenodd" d="M189.12,318.973c-1.931,0.49-3.864,1.332-5.792,1.321
			c-0.951-0.005-1.894-1.581-2.84-2.447c0.208-0.321,0.415-0.642,0.622-0.963c2.583,0,5.166,0,7.749,0
			C188.945,317.58,189.032,318.276,189.12,318.973z"/>
		<path fill-rule="evenodd" clip-rule="evenodd" d="M609.327,252.592c1.849,0.105,3.617,0.206,5.413,0.308
			c0.483,2.915-1.043,4.047-3.208,4.024C608.963,256.896,608.838,255.025,609.327,252.592z"/>
		<path fill-rule="evenodd" clip-rule="evenodd" d="M320.98,134.737c-4.144,0-8.287,0-12.43,0c0.007-0.311,0.015-0.622,0.022-0.933
			c4.164,0,8.328,0,12.491,0C321.036,134.115,321.008,134.426,320.98,134.737z"/>
		<path fill-rule="evenodd" clip-rule="evenodd" d="M183.817,134.809c-4.364,0-8.727,0-13.09,0c0-0.282,0-0.564-0.001-0.847
			c4.365,0,8.728,0,13.092,0C183.817,134.245,183.817,134.526,183.817,134.809z"/>
		<path fill-rule="evenodd" clip-rule="evenodd" d="M202.698,134.861c-3.828,0-7.655,0-11.483,0
			c-0.001-0.262-0.002-0.523-0.003-0.785c3.833,0,7.665,0,11.498,0C202.706,134.338,202.702,134.6,202.698,134.861z"/>
		<path fill-rule="evenodd" clip-rule="evenodd" d="M640.547,382.533c1.209-0.836,2.418-1.673,4.324-2.991
			c0.112,2.223,0.165,3.246,0.233,4.595c-1.473-0.09-2.629-0.16-3.786-0.23C641.062,383.448,640.804,382.991,640.547,382.533z"/>
		<path fill-rule="evenodd" clip-rule="evenodd" d="M333.102,291.977c-0.306-2.345-0.645-4.47-0.803-6.607
			c-0.026-0.35,0.744-0.758,1.147-1.139c0.328,0.657,0.804,1.284,0.947,1.979c0.219,1.064,0.209,2.175,1.209,3.439
			C334.846,290.354,334.088,291.059,333.102,291.977z"/>
		<path fill-rule="evenodd" clip-rule="evenodd" fill="#FFFFFF" d="M572.422,280.213c1.576-5.171,2.99-9.908,4.514-14.61
			c0.117-0.359,1.044-0.712,1.541-0.647c1.756,0.225,6.429,5.931,6.501,7.776c0.116,2.97-4.421,7.783-7.338,7.745
			C576.301,280.459,574.963,280.345,572.422,280.213z"/>
		<path fill-rule="evenodd" clip-rule="evenodd" fill="#FFFFFF" d="M559.403,280.406c-2.581-6.656,3.122-15.877,9.397-15.476
			C570.906,272.119,566.148,280.177,559.403,280.406z"/>
		<path fill-rule="evenodd" clip-rule="evenodd" fill="#FFFFFF" d="M298.779,41.648c-1.954,2.512-3.639,5.347-6.025,7.343
			c-0.732,0.612-3.539-0.833-5.092-1.817c-0.713-0.451-1.045-2.103-0.925-3.138c0.209-1.806,0.604-3.722,1.471-5.287
			c0.981-1.772,2.316-4.144,3.947-4.583c2.804-0.754,4.894,1.045,5.272,4.224c0.103,0.861,0.339,1.708,0.514,2.561
			C298.221,41.183,298.5,41.416,298.779,41.648z"/>
		<path fill-rule="evenodd" clip-rule="evenodd" fill="#FFFFFF" d="M282.454,38.392c0.584,4.881-3.433,7.528-6.685,10.519
			c-0.389,0.357-2.651-0.375-3.035-1.122c-1.865-3.631,1.363-11.4,5.165-13.008C281.968,33.059,282.855,33.667,282.454,38.392z"/>
		<path fill-rule="evenodd" clip-rule="evenodd" fill="#FFFFFF" d="M457.91,266.424c0.487-1.434,0.949-2.76,1.388-4.093
			c0.341-1.035,0.777-2.06,0.956-3.124c0.723-4.307,1.857-5.315,5.494-4.182c3.643,1.137,1.837,4.201,1.589,6.312
			C467.041,263.841,461.286,266.954,457.91,266.424z"/>
		<path fill-rule="evenodd" clip-rule="evenodd" fill="#FFFFFF" d="M280.873,257.725c-1.866,0-3.731,0-6.621,0
			c0.27-1.659,0.192-3.524,0.902-5.017c1.181-2.485,2.608-4.967,4.445-6.984c0.946-1.039,3.007-1.438,4.542-1.391
			c0.64,0.021,1.664,1.923,1.75,3.03C286.275,252.303,285.124,254.798,280.873,257.725z"/>
		<path fill-rule="evenodd" clip-rule="evenodd" fill="#FFFFFF" d="M281.759,261.494c0.528,5.04-3.797,10.66-8.349,10.93
			c-1.98,0.117-2.892-0.524-3.009-2.687C269.98,261.94,272.596,259.988,281.759,261.494z"/>
		<path fill-rule="evenodd" clip-rule="evenodd" fill="#FFFFFF" d="M122.31,58.758c2.264-5.349,8.255-6.507,11.398-2.08
			c0.525,0.74-0.608,3.635-1.735,4.373C129.423,62.722,124.455,61.31,122.31,58.758z"/>
		<path fill-rule="evenodd" clip-rule="evenodd" fill="#FFFFFF" d="M125.232,39.465c2.126-3.039,3.677-6.24,7.6-5.296
			c0.746,0.179,1.74,2.623,1.37,3.485c-0.9,2.099-2.131,4.722-3.964,5.604C127.137,44.752,127.187,40.677,125.232,39.465z"/>
		<path fill-rule="evenodd" clip-rule="evenodd" fill="#FFFFFF" d="M113.423,219.549c-0.831,5.907-1.827,10.426-6.846,12.561
			c-3.443,1.464-6.154-0.02-5.277-3.109c1.08-3.804,2.615-7.563,4.576-10.987c0.706-1.232,3.433-2.244,4.842-1.87
			C112.057,216.499,112.879,218.799,113.423,219.549z"/>
		<path fill-rule="evenodd" clip-rule="evenodd" fill="#FFFFFF" d="M251.547,348.812c2.756,6.111-0.337,14.451-6.084,16.732
			c-0.586,0.232-2.475-1.029-2.646-1.836c-0.951-4.469,0.981-8.137,4.006-11.234C248.144,351.122,249.827,350.125,251.547,348.812z"
			/>
		<path fill-rule="evenodd" clip-rule="evenodd" fill="#FFFFFF" d="M506.281,280.26c-1.226-6.792,1.275-12.336,6.797-15.042
			c0.608-0.298,2.025-0.135,2.297,0.297c0.771,1.231,1.624,2.738,1.551,4.088c-0.088,1.604-1.113,3.156-1.721,4.735
			C514.051,277.336,509.58,280.393,506.281,280.26z"/>
		<path fill-rule="evenodd" clip-rule="evenodd" fill="#FFFFFF" d="M99.377,46.58c0.818-5.151,1.643-9.704,6.572-11.691
			c1.176-0.474,3.264-0.522,3.98,0.191c0.799,0.795,1.115,2.984,0.587,4.037c-1.636,3.261-3.592,6.41-5.828,9.289
			c-0.65,0.836-2.75,1.025-4,0.729C99.988,48.968,99.668,47.199,99.377,46.58z"/>
		<path fill-rule="evenodd" clip-rule="evenodd" fill="#FFFFFF" d="M190.431,45.345c2.049-4.026,2.24-8.945,7.078-10.75
			c1.147-0.428,3.063-0.131,3.991,0.618c0.726,0.587,1.048,2.722,0.546,3.591c-1.799,3.118-3.88,6.109-6.168,8.89
			c-0.769,0.935-2.835,1.829-3.658,1.423C191.263,48.646,191.021,46.726,190.431,45.345z"/>
		<path fill-rule="evenodd" clip-rule="evenodd" fill="#FFFFFF" d="M483.057,271.172c1.193-1.257,2.337-2.57,3.61-3.741
			c0.404-0.371,1.223-0.253,1.731-0.559c0.973-0.588,1.325-3.559,2.896-1.211c0.597,0.893-0.362,3.718-1.466,4.635
			c-1.465,1.22-3.765,1.434-5.706,2.079C483.767,271.975,483.412,271.573,483.057,271.172z"/>
	</g>
</g>
</svg>
