<?xml version="1.0" encoding="utf-8"?>
<!-- Generator: Adobe Illustrator 16.0.0, SVG Export Plug-In . SVG Version: 6.00 Build 0)  -->
<!DOCTYPE svg PUBLIC "-//W3C//DTD SVG 1.1//EN" "http://www.w3.org/Graphics/SVG/1.1/DTD/svg11.dtd">
<svg version="1.1" id="Layer_1" xmlns="http://www.w3.org/2000/svg" xmlns:xlink="http://www.w3.org/1999/xlink" x="0px" y="0px"
	 width="500px" height="500px" viewBox="0 0 500 500" enable-background="new 0 0 500 500" xml:space="preserve">
<g>
	<path fill-rule="evenodd" clip-rule="evenodd" fill="#FFFFFF" d="M505.821,409.294c-170.024,0-340.047,0-510.071,0
		c0-105.515,0-211.029,0-316.544c170.023,0,340.047,0,510.071,0C505.821,198.265,505.821,303.779,505.821,409.294z M357.066,380.941
		c0.189-0.415,0.38-0.83,0.569-1.246c-0.756-0.702-1.424-1.544-2.282-2.084c-5.434-3.415-10.843-6.877-16.385-10.109
		c-9.307-5.428-18.75-10.621-28.048-16.063c-4.351-2.545-8.483-5.462-12.746-8.162c-1.043-0.661-2.246-1.064-3.306-1.703
		c-9.744-5.865-19.414-11.855-29.233-17.591c-3.919-2.288-4.131-3.142-0.215-5.736c5.361-3.555,10.771-7.037,16.119-10.61
		c0.722-0.483,1.208-1.32,1.804-1.993c-0.133-0.306-0.266-0.61-0.399-0.916c-2.157,0.246-4.312,0.527-6.475,0.719
		c-0.914,0.082-1.845-0.023-2.769-0.044c0.106-1.044,0.092-2.121,0.36-3.121c0.216-0.806,0.817-1.501,1.178-2.277
		c6.704-14.44,8.579-29.674,6.817-45.328c-1.073-9.536-3.119-18.905-8.236-27.313c-1.262-2.074-2.059-4.432-3.378-7.339
		c3.938,0,7.235,0,11.076,0c-0.764-0.855-0.95-1.194-1.237-1.367c-5.267-3.161-10.563-6.274-15.815-9.457
		c-3.16-1.915-3.113-2.835,0.044-4.614c2.699-1.521,5.352-3.13,8.072-4.612c11.155-6.074,22.306-12.157,33.509-18.142
		c3.355-1.793,6.993-3.069,10.288-4.956c4.862-2.782,9.421-6.099,14.313-8.822c7.018-3.905,14.217-7.483,21.343-11.195
		c1.429-0.744,2.966-1.329,4.271-2.247c0.57-0.401,1.099-1.622,0.883-2.168c-0.213-0.539-1.415-0.999-2.142-0.942
		c-0.94,0.073-1.876,0.619-2.748,1.086c-4.018,2.152-8.003,4.365-12.02,6.52c-1.846,0.991-3.793,1.803-5.597,2.863
		c-6.431,3.78-12.782,7.694-19.246,11.415c-1.797,1.033-3.991,1.369-5.809,2.375c-9.389,5.198-18.646,10.636-28.081,15.745
		c-8.354,4.523-16.964,8.568-25.306,13.108c-8.001,4.354-15.74,9.185-23.707,13.603c-8.407,4.662-16.935,9.108-25.434,13.604
		c-9.59,5.074-19.212,10.091-28.811,15.151c-6.461,3.406-13.003,6.678-19.306,10.355c-2.263,1.32-3.938,1.154-5.946-0.008
		c-12.699-7.35-25.407-14.684-38.118-22.012c-5.456-3.146-10.961-6.208-16.38-9.415c-9.879-5.848-19.649-11.882-29.583-17.632
		c-5.979-3.461-12.277-6.37-18.265-9.817c-10.876-6.262-21.608-12.774-32.47-19.062c-0.864-0.5-2.269-0.066-3.422-0.066
		c-0.058,0.453-0.116,0.905-0.174,1.357c5.617,3.516,11.141,7.194,16.872,10.513c9.607,5.565,19.38,10.844,29.021,16.354
		c6.73,3.847,13.33,7.921,20.034,11.814c5.884,3.417,11.875,6.649,17.743,10.094c7.022,4.123,13.944,8.417,20.952,12.565
		c2.01,1.19,4.207,2.062,6.246,3.209c5.785,3.252,11.52,6.593,17.299,9.855c3.146,1.777,6.832,2.894,8.264,6.901
		c-11.509,6.328-22.828,12.636-34.231,18.787c-6.412,3.459-13.037,6.525-19.436,10.007c-10.072,5.479-19.962,11.293-30.068,16.705
		c-6.425,3.441-13.102,6.411-19.665,9.595c-1.231,0.598-2.743,0.954-3.585,1.901c-0.623,0.7-0.368,2.181-0.504,3.313
		c0.9,0.001,1.97,0.324,2.674-0.048c6.343-3.352,12.625-6.82,18.919-10.264c7.773-4.252,15.511-8.57,23.321-12.753
		c10.375-5.557,20.81-11.004,31.211-16.513c2.29-1.213,4.553-2.479,6.817-3.738c4.969-2.764,9.908-5.582,14.904-8.294
		c3.56-1.933,7.092-3.985,10.84-5.477c1.854-0.738,4.661-1.185,6.187-0.299c8.443,4.903,16.559,10.364,24.915,15.423
		c7.618,4.611,15.364,9.013,23.118,13.396c9.994,5.649,20.122,11.067,30.063,16.809c10.913,6.301,21.691,12.835,32.503,19.309
		c6.587,3.943,13.122,7.974,19.69,11.947c6.105,3.692,12.191,7.419,18.349,11.023c4.474,2.62,9.11,4.965,13.567,7.612
		c10.84,6.439,21.6,13.014,32.446,19.441C354.226,380.539,355.731,380.597,357.066,380.941z M316.899,253.764
		c-1.335-2.017-2.279-5.112-4.104-5.775c-2.301-0.833-5.598-0.307-7.977,0.741c-5.805,2.556-10.773,17.583-9.091,22.782
		c1.203,3.718,2.807,4.6,6.59,4.128c3.211-0.4,4.591-2.693,6.429-4.611C313.21,266.368,315.638,260.795,316.899,253.764z
		 M405.206,139.715c-1.306,0.653-2.289,0.81-2.532,1.319c-1.992,4.182-5.679,3.977-9.304,3.543
		c-0.747-0.089-2.075-1.823-1.885-2.284c2.925-7.091,1.769-15.917,9.661-21.596c-3.869,0-6.964,0-9.854,0
		c1.144,9.58-3.438,17.636-5.82,26.202c0.444,0.148,0.788,0.358,1.136,0.363c3.497,0.044,6.995,0.078,10.493,0.07
		C402.974,147.318,403.504,146.862,405.206,139.715z M405.121,366.991c-0.653,0.068-1.049,0.032-1.373,0.165
		c-0.324,0.134-0.717,0.377-0.845,0.674c-1.74,4.061-5.326,3.882-8.83,3.877c-2.384-0.002-3.068-1.234-2.419-3.417
		c0.886-2.979,1.402-6.125,2.707-8.903c1.813-3.862,0.592-9.339,6.087-11.09c-1.983-2.824-5.696-2.905-8.278-1.217
		c-0.335,3.489-0.236,6.184-0.904,8.672c-1.585,5.916-3.532,11.733-5.563,18.343c4.429,0,8.713,0.093,12.991-0.025
		C403.229,373.944,404.746,372.253,405.121,366.991z M417.592,146.868c2.673,1.16,3.506-0.386,4.285-2.451
		c1.759-4.658,3.93-9.059,9.475-12.195c-0.11,2.238,0,3.649-0.284,4.976c-0.514,2.409-1.407,4.742-1.839,7.161
		c-0.162,0.913,0.256,2.525,0.883,2.825c0.707,0.337,2.228-0.165,2.887-0.816c0.806-0.797,1.386-2.093,1.519-3.237
		c0.195-1.669-0.281-3.414-0.123-5.093c0.149-1.579,0.948-3.094,1.113-4.673c0.307-2.935-1.315-4.162-4.035-3.03
		c-2.081,0.866-4.021,2.067-6.156,3.189c-0.188-1.353-0.351-2.526-0.533-3.845c-2.683-0.075-3.737,0.026-3.804,3.525
		C420.893,137.735,418.834,142.23,417.592,146.868z M468.2,124.874c0.35,0.423,0.699,0.845,1.05,1.267
		c0.651-0.3,1.29-0.816,1.957-0.858c1.887-0.119,4.838-0.763,5.441,0.12c0.985,1.437,1.109,4.211,0.382,5.896
		c-1.088,2.515-3.093,4.697-4.96,6.795c-2.514,2.826-5.269,5.438-7.921,8.141c0.063,0.401,0.126,0.802,0.19,1.202
		c3.024,0,6.071-0.226,9.069,0.06c3.533,0.334,4.796-1.423,5.303-4.44c-2.857,0.389-5.514,0.751-8.763,1.194
		c3.975-4.84,7.661-8.699,10.508-13.1c1.164-1.799,1.479-5.389,0.426-7.051c-1.209-1.909-4.422-3.614-6.66-3.493
		C472.144,120.719,470.202,123.351,468.2,124.874z M422.189,356.776c-1.521,6.133-2.845,11.47-4.169,16.807
		c0.397,0.25,0.795,0.5,1.192,0.75c0.901-1.006,1.957-1.913,2.675-3.036c1.984-3.106,3.656-6.428,5.813-9.4
		c0.846-1.164,2.659-1.626,4.031-2.408c0.245,0.319,0.491,0.638,0.737,0.957c-0.936,2.669-2.125,5.283-2.716,8.026
		c-0.382,1.776,0.112,3.741,0.214,5.621c1.619-0.859,3.246-1.707,4.849-2.597c0.153-0.085,0.158-0.436,0.232-0.662
		c-0.355-0.043-0.71-0.085-1.065-0.129c0.164-1.831,0.373-3.659,0.48-5.494c0.158-2.71,1.405-6.578,0.107-7.885
		c-2.363-2.38-5.11,0.32-7.323,2.146c-0.423,0.349-1.009,0.499-1.628,0.792c-0.219-1.334-0.393-2.39-0.604-3.683
		C423.591,356.68,422.385,356.763,422.189,356.776z M451.75,143.021c-2.435,0.557-4.638,1.398-6.849,1.419
		c-1.054,0.009-2.122-1.543-3.184-2.388c0.896-0.734,1.682-1.749,2.707-2.151c2.927-1.151,6.336-1.285,8.186-4.464
		c1.846-3.171,0.514-5.722-3.098-5.826c-8.513-0.246-12.51,9.708-10.889,15.192c0.276,0.935,1.271,1.917,2.184,2.359
		C444.35,148.875,449.417,146.981,451.75,143.021z M451.8,369.832c-2.255,0.65-4.113,1.668-5.895,1.547
		c-1.396-0.096-2.697-1.6-4.041-2.479c0.945-0.703,1.811-1.569,2.852-2.074c1.989-0.966,4.559-1.252,5.99-2.704
		c1.426-1.447,1.751-3.979,2.56-6.036c-1.777-0.508-3.591-1.548-5.326-1.431c-7.004,0.472-10.512,9.213-9.306,14.509
		c0.257,1.124,1.6,2.254,2.722,2.877C444.168,375.602,449.716,373.486,451.8,369.832z M474.364,373.977
		c-0.397-8.603,3.565-15.945,5.485-23.771c0.258-1.052-0.114-2.257-0.193-3.39c-1.892,0.26-3.782,0.519-5.674,0.778
		c0.17,1.011,0.327,2.024,0.512,3.033c0.169,0.915,0.697,1.906,0.495,2.724c-0.976,3.94-2.049,7.863-3.272,11.734
		c-0.938,2.966-2.154,5.844-3.296,8.891C470.09,373.977,472.214,373.977,474.364,373.977z M415.93,129.611
		c-3.175,0.12-6.75-1.112-4.633,3.905c0.227,0.538-0.339,1.408-0.535,2.125c-0.819,3-1.745,5.978-2.382,9.015
		c-0.156,0.744,0.545,2.343,1.005,2.405c1.083,0.145,2.386-0.18,3.35-0.744c0.662-0.387,1.466-1.917,1.245-2.209
		c-1.948-2.573-0.756-4.855,0.172-7.338C414.952,134.628,415.281,132.312,415.93,129.611z M411.363,356.746
		c-0.237,2.443-0.245,4.458-0.665,6.382c-0.576,2.644-1.563,5.197-2.161,7.838c-0.191,0.845,0.024,2.397,0.53,2.643
		c0.794,0.385,2.056,0.121,3.006-0.203c1.84-0.627,3.109-1.457,1.47-3.779c-0.586-0.83-0.179-2.544,0.11-3.776
		c0.701-2.999,1.599-5.953,2.53-9.336C413.884,356.624,412.42,356.694,411.363,356.746z"/>
	<path fill-rule="evenodd" clip-rule="evenodd" d="M357.066,380.941c-1.335-0.345-2.841-0.402-3.98-1.078
		c-10.847-6.428-21.606-13.002-32.446-19.441c-4.457-2.647-9.094-4.992-13.567-7.612c-6.157-3.604-12.243-7.331-18.349-11.023
		c-6.568-3.974-13.104-8.004-19.69-11.947c-10.813-6.474-21.591-13.008-32.503-19.309c-9.941-5.741-20.068-11.159-30.063-16.809
		c-7.753-4.383-15.5-8.784-23.118-13.396c-8.356-5.059-16.472-10.52-24.915-15.423c-1.525-0.886-4.333-0.439-6.187,0.299
		c-3.748,1.491-7.28,3.544-10.84,5.477c-4.997,2.712-9.935,5.53-14.904,8.294c-2.265,1.26-4.527,2.525-6.817,3.738
		c-10.401,5.509-20.835,10.956-31.211,16.513c-7.81,4.183-15.547,8.501-23.321,12.753c-6.294,3.443-12.576,6.912-18.919,10.264
		c-0.704,0.372-1.773,0.049-2.674,0.048c0.136-1.132-0.118-2.612,0.504-3.313c0.842-0.947,2.354-1.304,3.585-1.901
		c6.563-3.184,13.239-6.153,19.665-9.595c10.105-5.412,19.996-11.226,30.068-16.705c6.399-3.481,13.024-6.548,19.436-10.007
		c11.403-6.151,22.722-12.459,34.231-18.787c-1.432-4.008-5.118-5.124-8.264-6.901c-5.779-3.263-11.514-6.604-17.299-9.855
		c-2.039-1.147-4.235-2.019-6.246-3.209c-7.007-4.149-13.929-8.442-20.952-12.565c-5.867-3.444-11.858-6.677-17.743-10.094
		c-6.705-3.893-13.304-7.967-20.034-11.814c-9.64-5.51-19.413-10.79-29.021-16.354c-5.731-3.319-11.255-6.997-16.872-10.513
		c0.058-0.453,0.116-0.905,0.174-1.357c1.154,0,2.558-0.434,3.422,0.066c10.862,6.288,21.594,12.8,32.47,19.062
		c5.988,3.447,12.286,6.356,18.265,9.817c9.935,5.75,19.705,11.784,29.583,17.632c5.419,3.208,10.924,6.269,16.38,9.415
		c12.711,7.329,25.419,14.662,38.118,22.012c2.008,1.162,3.684,1.328,5.946,0.008c6.303-3.678,12.845-6.949,19.306-10.355
		c9.599-5.06,19.221-10.077,28.811-15.151c8.499-4.497,17.027-8.942,25.434-13.604c7.967-4.418,15.706-9.249,23.707-13.603
		c8.342-4.541,16.952-8.585,25.306-13.108c9.436-5.108,18.692-10.547,28.081-15.745c1.817-1.006,4.012-1.342,5.809-2.375
		c6.464-3.721,12.815-7.635,19.246-11.415c1.804-1.06,3.751-1.872,5.597-2.863c4.017-2.155,8.002-4.368,12.02-6.52
		c0.872-0.467,1.808-1.013,2.748-1.086c0.727-0.056,1.929,0.404,2.142,0.942c0.216,0.546-0.313,1.767-0.883,2.168
		c-1.305,0.918-2.842,1.502-4.271,2.247c-7.126,3.711-14.325,7.29-21.343,11.195c-4.892,2.723-9.45,6.04-14.313,8.822
		c-3.295,1.886-6.933,3.163-10.288,4.956c-11.203,5.985-22.354,12.068-33.509,18.142c-2.721,1.482-5.373,3.091-8.072,4.612
		c-3.157,1.779-3.204,2.7-0.044,4.614c5.253,3.183,10.549,6.296,15.815,9.457c0.287,0.172,0.474,0.511,1.237,1.367
		c-3.841,0-7.139,0-11.076,0c1.319,2.908,2.116,5.266,3.378,7.339c5.117,8.407,7.163,17.776,8.236,27.313
		c1.762,15.654-0.113,30.888-6.817,45.328c-0.36,0.776-0.962,1.472-1.178,2.277c-0.269,1-0.254,2.077-0.36,3.121
		c0.924,0.021,1.854,0.126,2.769,0.044c2.163-0.191,4.317-0.473,6.475-0.719c0.134,0.306,0.267,0.61,0.399,0.916
		c-0.596,0.673-1.082,1.51-1.804,1.993c-5.349,3.573-10.758,7.056-16.119,10.61c-3.916,2.595-3.704,3.448,0.215,5.736
		c9.819,5.735,19.489,11.726,29.233,17.591c1.06,0.639,2.263,1.042,3.306,1.703c4.263,2.7,8.396,5.617,12.746,8.162
		c9.298,5.442,18.741,10.636,28.048,16.063c5.542,3.232,10.951,6.694,16.385,10.109c0.858,0.54,1.526,1.382,2.282,2.084
		C357.446,380.111,357.256,380.526,357.066,380.941z M270.19,302.778c12.927-14.477,11.361-70.418-1.822-77.557
		c-0.371,2.25-0.732,4.436-1.094,6.622c-3.577-6.704-6.467-13.39-8.79-20.268c-1.138-3.368-2.813-2.943-5.006-1.732
		c-2.143,1.184-4.103,2.705-6.263,3.852c-9.201,4.879-18.459,9.652-27.672,14.509c-5.79,3.053-11.547,6.168-17.3,9.291
		c-9.638,5.23-19.292,10.43-28.875,15.76c-4.524,2.517-10.072,3.598-13.067,8.907c1.269,0.791,2.391,1.536,3.554,2.21
		c7.941,4.6,15.923,9.13,23.828,13.789c9.157,5.398,18.229,10.939,27.375,16.356c7.233,4.283,14.509,8.498,21.792,12.695
		c6.225,3.588,12.485,7.114,18.736,10.658c2.442,1.384,4.276,1.054,5.195-1.873c1.195-3.805,2.432-7.598,3.632-11.402
		c1.044-3.307,2.063-6.621,3.095-9.932c0.343,0.057,0.687,0.114,1.029,0.171C269.047,297.284,269.557,299.732,270.19,302.778z"/>
	<path fill-rule="evenodd" clip-rule="evenodd" d="M316.899,253.764c-1.262,7.031-3.689,12.604-8.153,17.265
		c-1.838,1.918-3.218,4.211-6.429,4.611c-3.783,0.472-5.387-0.41-6.59-4.128c-1.683-5.199,3.286-20.227,9.091-22.782
		c2.379-1.048,5.676-1.574,7.977-0.741C314.62,248.652,315.564,251.747,316.899,253.764z M306.469,262.074
		c1.401-0.94,3.537-1.595,4.041-2.885c0.866-2.222,1.048-4.857,0.906-7.284c-0.17-2.9-2.107-3.723-4.288-1.786
		c-1.7,1.509-2.961,3.592-4.152,5.579C300.507,259.819,301.353,261.306,306.469,262.074z M308.347,262.807
		c-2.078,0-3.806,0.134-5.504-0.032c-2.417-0.238-3.234,1.386-3.256,3.125c-0.027,2.295,0.559,4.6,0.993,6.879
		c0.008,0.036,1.567,0.008,2.208-0.346C306.325,270.483,308.043,267.379,308.347,262.807z"/>
	<path fill-rule="evenodd" clip-rule="evenodd" d="M405.206,139.715c-1.702,7.147-2.232,7.603-8.105,7.617
		c-3.498,0.008-6.996-0.026-10.493-0.07c-0.348-0.004-0.691-0.215-1.136-0.363c2.383-8.565,6.964-16.622,5.82-26.202
		c2.891,0,5.985,0,9.854,0c-7.893,5.679-6.736,14.505-9.661,21.596c-0.19,0.461,1.138,2.195,1.885,2.284
		c3.625,0.434,7.312,0.639,9.304-3.543C402.917,140.525,403.9,140.369,405.206,139.715z"/>
	<path fill-rule="evenodd" clip-rule="evenodd" d="M405.121,366.991c-0.375,5.262-1.893,6.953-6.428,7.078
		c-4.278,0.118-8.563,0.025-12.991,0.025c2.031-6.609,3.979-12.427,5.563-18.343c0.668-2.488,0.569-5.183,0.904-8.672
		c2.582-1.688,6.295-1.607,8.278,1.217c-5.495,1.751-4.274,7.228-6.087,11.09c-1.305,2.778-1.821,5.925-2.707,8.903
		c-0.649,2.183,0.035,3.415,2.419,3.417c3.504,0.005,7.09,0.184,8.83-3.877c0.128-0.297,0.521-0.54,0.845-0.674
		C404.072,367.023,404.468,367.06,405.121,366.991z"/>
	<path fill-rule="evenodd" clip-rule="evenodd" d="M417.592,146.868c1.242-4.637,3.301-9.132,3.387-13.666
		c0.066-3.499,1.121-3.6,3.804-3.525c0.183,1.319,0.346,2.492,0.533,3.845c2.136-1.122,4.075-2.324,6.156-3.189
		c2.72-1.132,4.342,0.095,4.035,3.03c-0.165,1.579-0.964,3.095-1.113,4.673c-0.158,1.68,0.318,3.424,0.123,5.093
		c-0.133,1.144-0.713,2.44-1.519,3.237c-0.659,0.651-2.18,1.154-2.887,0.816c-0.627-0.3-1.045-1.912-0.883-2.825
		c0.432-2.419,1.325-4.752,1.839-7.161c0.284-1.327,0.174-2.737,0.284-4.976c-5.545,3.137-7.716,7.537-9.475,12.195
		C421.098,146.481,420.265,148.028,417.592,146.868z"/>
	<path fill-rule="evenodd" clip-rule="evenodd" d="M468.2,124.874c2.002-1.523,3.943-4.155,6.022-4.268
		c2.238-0.121,5.451,1.583,6.66,3.493c1.054,1.662,0.738,5.252-0.426,7.051c-2.847,4.401-6.533,8.26-10.508,13.1
		c3.249-0.443,5.905-0.805,8.763-1.194c-0.507,3.017-1.77,4.774-5.303,4.44c-2.998-0.285-6.045-0.06-9.069-0.06
		c-0.064-0.4-0.127-0.801-0.19-1.202c2.652-2.703,5.407-5.315,7.921-8.141c1.867-2.098,3.872-4.28,4.96-6.795
		c0.728-1.684,0.604-4.459-0.382-5.896c-0.604-0.883-3.555-0.239-5.441-0.12c-0.667,0.042-1.306,0.558-1.957,0.858
		C468.899,125.719,468.55,125.297,468.2,124.874z"/>
	<path fill-rule="evenodd" clip-rule="evenodd" d="M422.189,356.776c0.195-0.014,1.401-0.097,2.826-0.194
		c0.212,1.293,0.386,2.349,0.604,3.683c0.619-0.293,1.205-0.443,1.628-0.792c2.213-1.826,4.96-4.526,7.323-2.146
		c1.298,1.307,0.051,5.175-0.107,7.885c-0.107,1.835-0.316,3.663-0.48,5.494c0.355,0.044,0.71,0.086,1.065,0.129
		c-0.074,0.227-0.079,0.577-0.232,0.662c-1.603,0.89-3.229,1.737-4.849,2.597c-0.102-1.88-0.596-3.845-0.214-5.621
		c0.591-2.743,1.78-5.357,2.716-8.026c-0.246-0.319-0.492-0.638-0.737-0.957c-1.372,0.782-3.186,1.244-4.031,2.408
		c-2.157,2.973-3.829,6.294-5.813,9.4c-0.718,1.123-1.773,2.03-2.675,3.036c-0.397-0.25-0.795-0.5-1.192-0.75
		C419.345,368.246,420.668,362.909,422.189,356.776z"/>
	<path fill-rule="evenodd" clip-rule="evenodd" d="M451.75,143.021c-2.333,3.96-7.4,5.854-10.942,4.141
		c-0.913-0.442-1.907-1.424-2.184-2.359c-1.621-5.483,2.376-15.438,10.889-15.192c3.611,0.104,4.943,2.654,3.098,5.826
		c-1.85,3.179-5.259,3.313-8.186,4.464c-1.025,0.403-1.812,1.417-2.707,2.151c1.062,0.845,2.13,2.397,3.184,2.388
		C447.112,144.419,449.315,143.578,451.75,143.021z M443.5,138.192c4.791-1.343,5.455-2.105,5.002-5.743
		C444.185,132.196,442.396,134.251,443.5,138.192z"/>
	<path fill-rule="evenodd" clip-rule="evenodd" d="M451.8,369.832c-2.084,3.654-7.632,5.77-10.444,4.209
		c-1.122-0.623-2.465-1.753-2.722-2.877c-1.206-5.296,2.302-14.037,9.306-14.509c1.735-0.117,3.549,0.923,5.326,1.431
		c-0.809,2.058-1.134,4.589-2.56,6.036c-1.432,1.452-4.001,1.738-5.99,2.704c-1.041,0.505-1.906,1.371-2.852,2.074
		c1.344,0.879,2.645,2.383,4.041,2.479C447.687,371.5,449.545,370.482,451.8,369.832z M450.663,360.277
		c-1.454-1.039-2.519-2-2.667-1.875c-1.813,1.527-3.493,3.215-5.207,4.86c0.643,0.568,1.685,1.732,1.864,1.612
		C446.573,363.588,448.355,362.097,450.663,360.277z"/>
	<path fill-rule="evenodd" clip-rule="evenodd" d="M474.364,373.977c-2.15,0-4.274,0-5.943,0c1.142-3.047,2.357-5.925,3.296-8.891
		c1.224-3.871,2.297-7.794,3.272-11.734c0.202-0.817-0.326-1.809-0.495-2.724c-0.185-1.009-0.342-2.022-0.512-3.033
		c1.892-0.26,3.782-0.519,5.674-0.778c0.079,1.133,0.451,2.338,0.193,3.39C477.93,358.031,473.967,365.374,474.364,373.977z"/>
	<path fill-rule="evenodd" clip-rule="evenodd" d="M415.93,129.611c-0.648,2.701-0.978,5.018-1.778,7.158
		c-0.928,2.483-2.12,4.765-0.172,7.338c0.221,0.292-0.583,1.822-1.245,2.209c-0.964,0.563-2.267,0.889-3.35,0.744
		c-0.46-0.062-1.161-1.661-1.005-2.405c0.637-3.038,1.563-6.016,2.382-9.015c0.196-0.716,0.762-1.587,0.535-2.125
		C409.18,128.499,412.755,129.731,415.93,129.611z"/>
	<path fill-rule="evenodd" clip-rule="evenodd" d="M411.363,356.746c1.057-0.052,2.521-0.122,4.82-0.232
		c-0.932,3.383-1.829,6.337-2.53,9.336c-0.289,1.232-0.696,2.946-0.11,3.776c1.64,2.322,0.37,3.152-1.47,3.779
		c-0.95,0.324-2.212,0.588-3.006,0.203c-0.506-0.245-0.722-1.798-0.53-2.643c0.598-2.641,1.585-5.194,2.161-7.838
		C411.118,361.204,411.126,359.189,411.363,356.746z"/>
	<path fill-rule="evenodd" clip-rule="evenodd" fill="#FFFFFF" d="M270.19,302.778c-0.634-3.046-1.144-5.494-1.653-7.943
		c-0.343-0.057-0.687-0.114-1.029-0.171c-1.031,3.311-2.051,6.625-3.095,9.932c-1.2,3.805-2.437,7.598-3.632,11.402
		c-0.919,2.927-2.753,3.257-5.195,1.873c-6.251-3.544-12.511-7.07-18.736-10.658c-7.284-4.197-14.559-8.412-21.792-12.695
		c-9.146-5.417-18.218-10.958-27.375-16.356c-7.905-4.659-15.887-9.189-23.828-13.789c-1.163-0.674-2.285-1.419-3.554-2.21
		c2.996-5.31,8.543-6.391,13.067-8.907c9.583-5.33,19.237-10.53,28.875-15.76c5.753-3.122,11.51-6.237,17.3-9.291
		c9.213-4.857,18.471-9.63,27.672-14.509c2.161-1.146,4.121-2.668,6.263-3.852c2.193-1.211,3.868-1.636,5.006,1.732
		c2.323,6.878,5.213,13.564,8.79,20.268c0.361-2.186,0.723-4.372,1.094-6.622C281.552,232.36,283.117,288.302,270.19,302.778z"/>
	<path fill-rule="evenodd" clip-rule="evenodd" fill="#FFFFFF" d="M306.469,262.074c-5.116-0.769-5.962-2.255-3.493-6.376
		c1.191-1.987,2.452-4.07,4.152-5.579c2.181-1.937,4.118-1.114,4.288,1.786c0.142,2.427-0.04,5.063-0.906,7.284
		C310.006,260.479,307.87,261.134,306.469,262.074z"/>
	<path fill-rule="evenodd" clip-rule="evenodd" fill="#FFFFFF" d="M308.347,262.807c-0.304,4.572-2.021,7.677-5.559,9.626
		c-0.641,0.354-2.2,0.382-2.208,0.346c-0.435-2.279-1.021-4.584-0.993-6.879c0.021-1.739,0.839-3.363,3.256-3.125
		C304.541,262.94,306.269,262.807,308.347,262.807z"/>
	<path fill-rule="evenodd" clip-rule="evenodd" fill="#FFFFFF" d="M443.5,138.192c-1.104-3.941,0.685-5.996,5.002-5.743
		C448.955,136.087,448.291,136.85,443.5,138.192z"/>
	<path fill-rule="evenodd" clip-rule="evenodd" fill="#FFFFFF" d="M450.663,360.277c-2.308,1.819-4.09,3.311-6.01,4.598
		c-0.18,0.12-1.222-1.044-1.864-1.612c1.714-1.646,3.394-3.333,5.207-4.86C448.145,358.277,449.209,359.238,450.663,360.277z"/>
</g>
</svg>
