<?xml version="1.0" encoding="utf-8"?>
<!-- Generator: Adobe Illustrator 16.0.0, SVG Export Plug-In . SVG Version: 6.00 Build 0)  -->
<!DOCTYPE svg PUBLIC "-//W3C//DTD SVG 1.1//EN" "http://www.w3.org/Graphics/SVG/1.1/DTD/svg11.dtd">
<svg version="1.1" id="Layer_1" xmlns="http://www.w3.org/2000/svg" xmlns:xlink="http://www.w3.org/1999/xlink" x="0px" y="0px"
	 width="500px" height="500px" viewBox="0 0 500 500" enable-background="new 0 0 500 500" xml:space="preserve">
<g>
	<g>
		<path fill-rule="evenodd" clip-rule="evenodd" fill="#FFFFFF" d="M500.565,412.608c-166.675,0-333.325,0-499.95,0
			c0-108.037,0-216.049,0-324.036c166.675,0,333.325,0,499.95,0C500.565,196.609,500.565,304.621,500.565,412.608z M479.319,400.229
			c2.396-3.309-0.931-8.011,2.673-11.057c0.161-0.138,0.072-0.889-0.146-1.1c-0.794-0.769-1.634-1.907-2.564-2.02
			c-1.485-0.179-3.057,0.351-5.326,0.691c2.255,1.18,3.525,1.845,4.796,2.51c-1.262,1.25-2.524,2.499-3.383,3.349
			c0.688,1.669,2.105,3.468,1.976,5.147c-0.252,3.251-3.526,0.518-5.303,2.189c0.285,0.61,0.543,1.95,1.024,2.037
			c1.157,0.206,2.463-0.027,3.627-0.365c0.964-0.279,1.812-0.961,2.71-1.465c-0.143,1.017-0.286,2.032-0.55,3.902
			c1.544-0.799,2.618-1.123,3.372-1.802c1.112-1.001,2.038-2.223,2.969-3.409c1.396-1.779,2.955-3.483,4.045-5.441
			c3.552-6.38,3.146-13.12,1.269-19.871c-0.28-1.008-1.247-1.825-1.896-2.731c-0.255,0.126-0.511,0.251-0.766,0.377
			c0,1.015-0.165,2.064,0.038,3.037c0.334,1.606,1.385,3.198,1.275,4.735c-0.213,3.011-0.67,6.103-1.664,8.937
			c-1.257,3.583-3.004,7.024-4.86,10.348C482.088,399.207,480.455,399.578,479.319,400.229z M75.776,333.789
			c-1.098-0.727-3.283,0.391-3.263-2.326c0.02-2.602-0.553-5.21-0.895-7.812c-0.426-3.234-2.963-4.076-5.742-2.002
			c0.86,1.075,2.212,2.042,2.487,3.253c0.645,2.847,0.932,5.803,1.082,8.729c0.327,6.382,0.006,6.654-6.262,8.119
			c-0.631,0.147-1.487,1.092-1.494,1.674c-0.006,0.617,0.881,1.768,1.372,1.765c1.313-0.007,3.098-0.071,3.851-0.89
			c3.103-3.374,5.891-7.036,8.781-10.607c0.559-0.349,1.337-0.564,1.637-1.067c1.46-2.438,3.098-4.839,4.083-7.473
			c0.984-2.631-0.01-3.881-2.976-4.203c0,1.148,0.173,2.294-0.038,3.364c-0.377,1.911-0.976,3.778-1.501,5.659
			C76.542,331.248,76.152,332.517,75.776,333.789z M410.815,391.944c2.187-0.296,3.673,0.244,4.167,2.751
			c0.119,0.607,1.706,1.466,2.373,1.288c0.828-0.222,1.438-1.369,2.069-2.174c0.505-0.644,0.901-1.374,1.346-2.065
			c-0.865,0-1.73,0-2.73,0c-0.113-0.161-0.318-0.49-0.556-0.793c-3.085-3.916-1.8-7.262,3.02-8.096
			c0.654-0.112,1.523-0.881,1.676-1.497c0.173-0.701-0.193-2.146-0.6-2.255c-0.93-0.252-2.166-0.156-3.021,0.29
			c-1.155,0.602-2.07,1.665-3.087,2.529c-2.895-3.679-5.125-4.15-7.338-1.802c3.627,1.805,4.666,3.501,4.085,7.189
			c-0.251,1.596-0.88,3.132-1.336,4.695c-1.261,0.048-2.546-0.038-3.771,0.193c-0.721,0.137-1.646,0.638-1.925,1.234
			c-0.243,0.522,0.066,1.779,0.522,2.047c0.748,0.44,2.273,0.783,2.655,0.385C409.409,394.776,410.027,393.279,410.815,391.944z
			 M126.19,345.902c2.217-0.238,4.077-0.678,5.911-0.588c4.277,0.206,8.539,0.925,12.812,0.979
			c13.274,0.169,26.552,0.062,39.827,0.175c34.205,0.291,68.408,0.67,102.612,0.961c18.488,0.158,36.978,0.131,55.465,0.327
			c24.911,0.264,49.843-0.456,74.727,1.432c1.436,0.108,4.249-1.029,4.22-1.432c-0.135-1.905-0.483-4.718-1.763-5.45
			c-4.093-2.346-5.526-6.699-8.446-9.875c-3.021-3.286-5.22-7.316-7.905-10.926c-1.43-1.921-3.191-3.59-4.689-5.464
			c-2.574-3.221-5.097-6.484-7.558-9.791c-0.727-0.977-1.023-2.279-1.775-3.229c-2.491-3.143-5.15-6.151-7.648-9.289
			c-2.233-2.804-4.35-5.701-6.497-8.571c-3.021-4.038-6.014-8.098-9.041-12.131c-2.648-3.528-5.295-7.059-8.002-10.541
			c-2.6-3.343-5.344-6.574-7.895-9.951c-1.952-2.583-3.514-5.478-5.587-7.95c-3.614-4.31-7.626-8.287-11.208-12.62
			c-2.686-3.249-4.928-6.861-7.424-10.27c-2.234-3.052-4.515-6.073-6.837-9.059c-2.075-2.668-4.247-5.26-6.356-7.902
			c-3.511-4.393-7.01-8.794-10.504-13.2c-2.795-3.524-5.636-7.015-8.341-10.606c-2.676-3.554-5.148-7.26-7.82-10.817
			c-2.137-2.844-4.596-5.455-6.629-8.367c-3.266-4.677-5.422-4.74-8.817-0.078c-1.709,2.344-3.563,4.586-5.409,6.826
			c-2.526,3.064-5.175,6.028-7.65,9.131c-3.728,4.674-7.246,9.519-11.044,14.132c-5.424,6.586-11.07,12.988-16.524,19.549
			c-3.369,4.053-6.573,8.242-9.822,12.393c-4.194,5.359-8.296,10.791-12.556,16.098c-4.206,5.24-8.581,10.344-12.838,15.543
			c-2.45,2.992-4.796,6.069-7.224,9.08c-1.282,1.59-2.623,3.133-3.968,4.67c-0.731,0.836-1.625,1.544-2.271,2.437
			c-1.79,2.466-3.414,5.055-5.244,7.49c-2.032,2.705-4.251,5.27-6.33,7.941c-1.283,1.649-2.336,3.491-3.706,5.059
			c-3.569,4.083-7.444,7.91-10.848,12.122c-4.18,5.172-7.946,10.675-12.005,15.947c-2.145,2.785-4.599,5.331-6.792,8.082
			c-3.344,4.196-6.465,8.575-9.918,12.678C125.262,342.757,125.106,344.335,126.19,345.902z M84.853,329.274
			c4.603,0.56,5.986,1.816,4.732,4.364c-1.232,2.507-3.366,4.57-5.115,6.819c-0.619,0.797-1.271,1.567-1.908,2.35
			c0.875,0.428,1.727,1.159,2.63,1.229c3.182,0.245,5.937,1.649,9.245-1.896c2.92-3.128,5.801-6.29,7.01-10.022
			c1.335-4.125,1.176-8.854,1.007-13.295c-0.084-2.202-0.343-5.102-3.81-6.28c0.42,2.125,0.979,3.94,1.109,5.786
			c0.431,6.118-0.524,11.817-3.573,17.421c-2.86,5.256-3.598,6.183-9.072,4.437c0.716-0.816,1.484-1.608,2.153-2.477
			c0.678-0.882,1.122-1.981,1.91-2.732c1.679-1.598,2.276-5.118,0.487-6.545c-1.092-0.871-3.032-0.826-4.6-0.875
			C86.483,327.54,85.88,328.438,84.853,329.274z M455.702,379.327c1.089,4.345,2.264,8.438,3.117,12.596
			c0.904,4.406-1.701,7.593-6.197,8.172c-0.794,0.103-1.506,0.847-2.255,1.296c0.491,0.68,0.938,1.4,1.483,2.033
			c1.679,1.949,2.911,0.017,3.82-0.789c1.824-1.616,3.283-3.643,4.905-5.488c1.218-1.383,2.489-2.72,3.674-4.129
			c1.654-1.969,3.579-3.809,4.768-6.035c0.945-1.77,1.138-4.025,1.276-6.091c0.039-0.586-1.278-1.264-1.974-1.898
			c-0.494,0.833-1.611,1.966-1.378,2.451c1.385,2.894-0.038,4.927-1.467,7.223c-0.801,1.286-1.074,2.724-3.244,2.017
			c-0.11-1.764-0.141-3.619-0.354-5.453C461.19,379.355,460.112,378.407,455.702,379.327z M296.158,111.299
			c1.157,2.455,2.48,4.289,2.856,6.3c0.497,2.669,0.302,5.476,0.317,8.224c0.018,3.125-2.091,5.284-5.267,5.726
			c-0.7,0.098-1.686,0.607-1.893,1.167c-0.246,0.666,0.206,1.59,0.354,2.403c1.009-0.23,2.197-0.194,2.998-0.733
			c5.7-3.836,9.305-9.635,13.526-14.84c1.129-1.391,1.95-3.147,2.498-4.868c0.851-2.676-0.481-3.878-3.676-3.129
			c2.664,4.848-1.571,7.605-3.727,11.938c-0.751-1.271-1.565-2.083-1.701-2.996c-0.273-1.832-0.036-3.736-0.28-5.575
			c-0.166-1.245-0.531-3.233-1.27-3.473C299.284,110.917,297.378,111.294,296.158,111.299z M19.102,321.207
			c1.45,1.634,3.194,2.813,3.786,4.417c1.723,4.669-0.246,7.707-5.117,8.897c-0.632,0.154-1.08,1.064-1.613,1.624
			c0.613,0.51,1.239,1.449,1.834,1.43c0.918-0.03,1.892-0.604,2.703-1.151c1.24-0.836,2.361-1.848,3.533-2.786
			c0.739,1.248,1.478,2.496,2.253,3.806c3.286,1.085,3.962-1.255,4.886-3.599c-3.178-0.056-4.14-1.388-4.238-5.241
			c-0.072-2.803,1.628-3.423,3.94-3.578c0.771-0.052,2.001-0.317,2.169-0.789c0.334-0.938,0.079-2.089,0.067-3.151
			c-1.457,0.1-2.979-0.025-4.345,0.378c-0.876,0.259-1.522,1.297-2.419,2.122C24.396,320.583,21.99,319.501,19.102,321.207z
			 M246.077,124.356c0.257,2.977,1.687,3.332,3.479,2.434c1.071-0.537,1.885-1.579,2.84-2.362c0.514-0.422,1.083-0.777,1.627-1.163
			c0.326,0.54,0.899,1.063,0.938,1.623c0.193,2.844,2.43,2.492,3.856,1.995c0.965-0.335,1.427-2.128,2.086-3.285
			c0.025-0.042-0.239-0.25-0.351-0.361c-0.751,0.23-1.504,0.461-2.407,0.738c-0.117-0.92-0.165-1.502-0.268-2.074
			c-1.114-6.229-1.108-6.206,4.785-8.063c0.484-0.153,1.067-0.898,1.083-1.384c0.015-0.51-0.677-1.521-0.926-1.481
			c-1.601,0.256-3.2,0.639-4.726,1.19c-0.86,0.312-1.577,1.021-2.418,1.592c-1.88-3.925-3.467-4.272-6.067-1.515
			c3.014,1.318,4.773,4.148,3.848,6.796C252.465,121.873,250.63,125.271,246.077,124.356z M410.901,369.917
			c-0.316-0.213-0.632-0.425-0.947-0.638c-4.867,2.433-8.254,6.623-10.602,11.121c-3.625,6.942-3.168,14.457-0.192,21.719
			c0.162,0.396,0.815,0.59,1.241,0.877c0.267-0.457,0.713-0.896,0.759-1.375c0.063-0.66-0.159-1.353-0.289-2.024
			c-0.488-2.537-1.836-5.264-1.315-7.569c1.248-5.527,2.479-11.207,5.981-15.938c0.696-0.941,1.574-1.749,2.348-2.638
			C408.9,372.283,409.896,371.096,410.901,369.917z M251.138,101.8c-0.295-0.288-0.59-0.576-0.884-0.864
			c-0.781,0.565-1.638,1.053-2.329,1.712c-1.369,1.305-2.938,2.527-3.905,4.102c-2.209,3.598-4.941,7.182-5.915,11.151
			c-1.195,4.869-1.07,10.161,1.648,14.863c0.255,0.441,0.711,0.894,1.171,1.049c0.365,0.122,1.259-0.196,1.263-0.337
			c0.018-0.611-0.161-1.243-0.35-1.842c-0.307-0.972-0.994-1.931-0.969-2.882c0.108-4.187-1.115-8.462,1.57-12.463
			c2.015-3.005,3.282-6.5,5.085-9.663C248.512,104.895,249.919,103.401,251.138,101.8z M329.605,102.345
			c0.536,5.845,1.217,11.736-0.608,17.417c-1.802,5.608-4.999,10.397-9.375,14.459c4.372-0.005,6.279-3.739,8.559-6.464
			C334.784,119.866,334.835,111.244,329.605,102.345z M20.802,312.21c-0.855,0.372-1.836,0.586-2.546,1.145
			c-4.354,3.428-8.11,7.349-9.113,13.078c-0.596,3.408-1.308,6.88-1.193,10.298c0.076,2.274,1.452,4.533,2.403,6.73
			c0.211,0.488,1.081,0.692,2.049,1.265C8.227,331.637,12.747,321.64,20.802,312.21z M40.586,340.271
			c0.297-0.847,0.419-1.651,0.827-2.266c1.126-1.699,2.544-3.225,3.525-4.996c1.139-2.057,0.026-5.361-1.806-6.158
			c-1.913-0.832-4.25,0.14-5.311,2.57c1.084,0,1.996-0.042,2.903,0.008c2.055,0.113,3.37,2.096,2.148,3.632
			c-2.135,2.684-4.716,5.011-6.921,7.646c-0.441,0.526-0.412,2.191,0.046,2.59c1.451,1.265,6.301-0.136,7.151-1.885
			c0.096-0.197-0.102-0.536-0.188-0.918C42.2,340.423,41.463,340.354,40.586,340.271z M427.861,392.938
			c0.274,0.186,0.931,0.395,1.157,0.827c0.621,1.184,1.061,2.462,1.573,3.702c-1.384,0.51-2.751,1.073-4.157,1.509
			c-0.82,0.255-1.702,0.307-2.537,0.445c1.474,2.459,3.039,3.163,4.999,1.066c0.16-0.171,0.562-0.115,0.851-0.165
			c2.384-0.406,3.614-2.56,3.165-4.181c-0.753-2.71,0.141-4.756,0.777-7.153c0.327-1.232,0.311-3.777-2.216-3.92
			c-1.545-0.086-3.552-0.312-3.346,2.46c0.968,0.153,1.89,0.299,2.668,0.421C432.422,391.271,428.361,390.651,427.861,392.938z
			 M313.774,133.108c1.32,0.16,2.788,0.338,3.579,0.434c1.285-3.908,2.443-7.143,3.391-10.438c0.428-1.486,0.566-3.093,0.558-4.644
			c-0.003-0.492-1.001-1.44-1.38-1.364c-0.636,0.129-1.676,0.987-1.616,1.404c0.56,3.899-1.689,6.997-2.781,10.411
			C315.144,130.1,314.567,131.226,313.774,133.108z M270.466,133.042c0.555-2.808,0.943-5.182,1.507-7.515
			c0.573-2.374,1.458-4.681,1.894-7.075c0.111-0.611-0.96-1.438-1.487-2.166c-0.492,0.742-1.218,1.423-1.433,2.238
			c-0.705,2.672-1.069,5.44-1.864,8.081c-0.627,2.082-1.696,4.03-2.741,6.436C268.198,133.042,269.409,133.042,270.466,133.042z
			 M46.521,341.481c2.605,0.31,4.752-2.06,4.124-5.403c-0.149-0.796-0.956-1.469-1.46-2.198c-0.629,0.827-1.547,1.568-1.824,2.5
			C46.875,338.013,46.782,339.762,46.521,341.481z M276.557,131.109c2.736,0.869,3.19-1.807,4.091-3.587
			c0.37-0.731,0.271-2.015-0.155-2.72c-0.283-0.468-1.744-0.724-2.283-0.405c-0.638,0.376-1.034,1.435-1.208,2.266
			C276.723,127.991,276.714,129.375,276.557,131.109z M435.586,399.852c3.2-0.713,4.349-2.389,3.756-5.986
			c-0.097-0.589-0.797-1.078-1.219-1.613c-0.683,0.539-1.829,0.983-1.964,1.636C435.755,395.849,435.745,397.891,435.586,399.852z"
			/>
		<path fill-rule="evenodd" clip-rule="evenodd" d="M126.19,345.902c-1.083-1.567-0.928-3.146,0.68-5.057
			c3.453-4.103,6.574-8.481,9.918-12.678c2.193-2.751,4.647-5.297,6.792-8.082c4.059-5.272,7.826-10.775,12.005-15.947
			c3.403-4.212,7.278-8.039,10.848-12.122c1.37-1.567,2.423-3.409,3.706-5.059c2.079-2.672,4.298-5.236,6.33-7.941
			c1.83-2.436,3.454-5.024,5.244-7.49c0.647-0.893,1.541-1.601,2.271-2.437c1.345-1.537,2.686-3.08,3.968-4.67
			c2.428-3.011,4.774-6.088,7.224-9.08c4.257-5.199,8.632-10.303,12.838-15.543c4.259-5.307,8.361-10.739,12.556-16.098
			c3.249-4.151,6.453-8.34,9.822-12.393c5.454-6.561,11.101-12.962,16.524-19.549c3.798-4.613,7.316-9.458,11.044-14.132
			c2.476-3.103,5.124-6.067,7.65-9.131c1.846-2.24,3.7-4.482,5.409-6.826c3.396-4.662,5.552-4.599,8.817,0.078
			c2.033,2.912,4.492,5.523,6.629,8.367c2.672,3.557,5.145,7.264,7.82,10.817c2.705,3.592,5.546,7.082,8.341,10.606
			c3.494,4.406,6.993,8.807,10.504,13.2c2.109,2.642,4.281,5.234,6.356,7.902c2.322,2.986,4.603,6.007,6.837,9.059
			c2.496,3.409,4.738,7.021,7.424,10.27c3.582,4.333,7.594,8.311,11.208,12.62c2.073,2.472,3.635,5.366,5.587,7.95
			c2.551,3.377,5.295,6.608,7.895,9.951c2.707,3.482,5.354,7.013,8.002,10.541c3.027,4.033,6.02,8.093,9.041,12.131
			c2.147,2.87,4.264,5.768,6.497,8.571c2.498,3.138,5.157,6.146,7.648,9.289c0.752,0.949,1.049,2.252,1.775,3.229
			c2.461,3.307,4.983,6.57,7.558,9.791c1.498,1.874,3.26,3.543,4.689,5.464c2.686,3.609,4.885,7.64,7.905,10.926
			c2.92,3.176,4.354,7.529,8.446,9.875c1.279,0.732,1.628,3.545,1.763,5.45c0.029,0.402-2.784,1.54-4.22,1.432
			c-24.884-1.888-49.815-1.168-74.727-1.432c-18.487-0.196-36.977-0.169-55.465-0.327c-34.204-0.291-68.407-0.67-102.612-0.961
			c-13.275-0.113-26.553-0.006-39.827-0.175c-4.273-0.054-8.535-0.772-12.812-0.979C130.267,345.225,128.407,345.664,126.19,345.902
			z M416.697,344.199c-2.194-3.065-4.242-6.192-6.563-9.103c-2.759-3.459-5.855-6.648-8.608-10.111
			c-2.444-3.074-4.579-6.393-6.92-9.552c-4.737-6.392-9.474-12.785-14.3-19.109c-5.011-6.568-10.188-13.009-15.176-19.594
			c-3.38-4.462-6.532-9.096-9.839-13.613c-1.161-1.586-2.48-3.057-3.728-4.579c-2.961-3.616-5.968-7.196-8.862-10.864
			c-1.631-2.065-3.007-4.331-4.621-6.412c-2.526-3.257-5.193-6.405-7.73-9.654c-1.797-2.3-3.359-4.791-5.238-7.017
			c-2.733-3.238-5.857-6.16-8.458-9.495c-4.109-5.271-7.854-10.824-11.89-16.155c-2.138-2.824-4.66-5.355-6.832-8.155
			c-3.841-4.95-7.494-10.043-11.323-15.001c-3.16-4.092-6.649-7.943-9.616-12.167c-1.374-1.955-1.899-1.604-3.079-0.1
			c-1.739,2.217-3.644,4.303-5.432,6.483c-1.803,2.198-3.539,4.451-5.322,6.665c-1.621,2.012-3.3,3.977-4.891,6.011
			c-1.604,2.051-3.13,4.163-4.693,6.245c-0.565,0.753-1.108,1.528-1.72,2.244c-2.689,3.141-5.449,6.222-8.086,9.404
			c-2.607,3.146-5.059,6.421-7.652,9.578c-2.344,2.854-4.848,5.577-7.174,8.445c-2.407,2.967-4.619,6.095-7.041,9.051
			c-3.048,3.721-6.25,7.316-9.336,11.007c-2.727,3.259-5.376,6.584-8.079,9.864c-2.904,3.525-5.868,7.002-8.736,10.556
			c-2.053,2.544-3.957,5.206-5.987,7.769c-2.857,3.607-5.769,7.173-8.659,10.755c-2.837,3.515-5.657,7.044-8.521,10.536
			c-2.345,2.859-4.82,5.614-7.1,8.523c-2.375,3.03-4.48,6.276-6.894,9.273c-3.351,4.161-6.998,8.084-10.302,12.278
			c-4.489,5.696-8.78,11.549-13.142,17.344c-1.427,1.896-2.812,3.824-4.433,6.033c1.313,0.15,2.077,0.311,2.841,0.314
			c12.491,0.062,24.982,0.086,37.473,0.158c7.669,0.044,15.341,0.079,23.007,0.282c2.52,0.065,5.022,0.878,7.54,0.922
			c2.6,0.046,5.215-0.675,7.814-0.618c4.412,0.095,8.814,0.702,13.227,0.796c8.447,0.181,16.9,0.09,25.349,0.225
			c16.788,0.266,33.574,0.755,50.363,0.887c32.259,0.253,64.52,0.311,96.779,0.478c4.715,0.024,9.474-0.137,14.127,0.459
			C411.737,345.805,413.952,346.372,416.697,344.199z"/>
		<path fill-rule="evenodd" clip-rule="evenodd" d="M84.853,329.274c1.027-0.837,1.63-1.734,2.205-1.717
			c1.568,0.049,3.508,0.004,4.6,0.875c1.789,1.427,1.191,4.947-0.487,6.545c-0.788,0.751-1.232,1.851-1.91,2.732
			c-0.668,0.868-1.437,1.66-2.153,2.477c5.474,1.746,6.212,0.819,9.072-4.437c3.049-5.604,4.003-11.303,3.573-17.421
			c-0.129-1.846-0.688-3.661-1.109-5.786c3.467,1.179,3.726,4.078,3.81,6.28c0.169,4.44,0.329,9.17-1.007,13.295
			c-1.208,3.732-4.089,6.895-7.01,10.022c-3.308,3.545-6.063,2.141-9.245,1.896c-0.903-0.069-1.755-0.801-2.63-1.229
			c0.637-0.782,1.289-1.553,1.908-2.35c1.749-2.249,3.883-4.313,5.115-6.819C90.838,331.091,89.456,329.834,84.853,329.274z"/>
		<path fill-rule="evenodd" clip-rule="evenodd" d="M455.702,379.327c4.41-0.92,5.488,0.028,6.175,5.903
			c0.214,1.834,0.244,3.689,0.354,5.453c2.17,0.707,2.443-0.73,3.244-2.017c1.429-2.296,2.852-4.329,1.467-7.223
			c-0.233-0.485,0.884-1.618,1.378-2.451c0.695,0.635,2.013,1.313,1.974,1.898c-0.139,2.065-0.331,4.321-1.276,6.091
			c-1.188,2.227-3.113,4.066-4.768,6.035c-1.185,1.409-2.456,2.746-3.674,4.129c-1.622,1.846-3.081,3.872-4.905,5.488
			c-0.909,0.806-2.142,2.738-3.82,0.789c-0.546-0.633-0.992-1.354-1.483-2.033c0.749-0.449,1.461-1.193,2.255-1.296
			c4.496-0.579,7.102-3.766,6.197-8.172C457.966,387.765,456.791,383.672,455.702,379.327z"/>
		<path fill-rule="evenodd" clip-rule="evenodd" d="M296.158,111.299c1.22-0.005,3.126-0.382,4.738,0.144
			c0.738,0.24,1.104,2.229,1.27,3.473c0.244,1.839,0.007,3.744,0.28,5.575c0.136,0.913,0.95,1.725,1.701,2.996
			c2.155-4.333,6.391-7.09,3.727-11.938c3.194-0.749,4.526,0.453,3.676,3.129c-0.548,1.721-1.369,3.477-2.498,4.868
			c-4.222,5.205-7.826,11.004-13.526,14.84c-0.801,0.539-1.989,0.503-2.998,0.733c-0.148-0.813-0.601-1.737-0.354-2.403
			c0.207-0.56,1.192-1.069,1.893-1.167c3.176-0.442,5.284-2.601,5.267-5.726c-0.016-2.748,0.18-5.555-0.317-8.224
			C298.639,115.588,297.315,113.754,296.158,111.299z"/>
		<path fill-rule="evenodd" clip-rule="evenodd" d="M19.102,321.207c2.888-1.706,5.294-0.624,7.44,2.378
			c0.897-0.825,1.543-1.863,2.419-2.122c1.366-0.403,2.888-0.278,4.345-0.378c0.012,1.063,0.267,2.213-0.067,3.151
			c-0.168,0.472-1.398,0.737-2.169,0.789c-2.312,0.155-4.012,0.775-3.94,3.578c0.099,3.854,1.06,5.186,4.238,5.241
			c-0.924,2.344-1.6,4.684-4.886,3.599c-0.775-1.31-1.514-2.558-2.253-3.806c-1.172,0.938-2.293,1.95-3.533,2.786
			c-0.812,0.548-1.785,1.121-2.703,1.151c-0.595,0.02-1.222-0.92-1.834-1.43c0.533-0.56,0.981-1.47,1.613-1.624
			c4.871-1.19,6.84-4.229,5.117-8.897C22.295,324.02,20.551,322.841,19.102,321.207z"/>
		<path fill-rule="evenodd" clip-rule="evenodd" d="M246.077,124.356c4.553,0.914,6.388-2.483,7.38-5.319
			c0.926-2.648-0.834-5.479-3.848-6.796c2.601-2.757,4.188-2.41,6.067,1.515c0.841-0.57,1.558-1.28,2.418-1.592
			c1.525-0.551,3.125-0.935,4.726-1.19c0.249-0.041,0.94,0.971,0.926,1.481c-0.016,0.486-0.599,1.231-1.083,1.384
			c-5.894,1.857-5.899,1.833-4.785,8.063c0.103,0.572,0.15,1.154,0.268,2.074c0.903-0.277,1.656-0.508,2.407-0.738
			c0.111,0.111,0.376,0.319,0.351,0.361c-0.659,1.156-1.121,2.949-2.086,3.285c-1.427,0.497-3.663,0.849-3.856-1.995
			c-0.038-0.559-0.611-1.083-0.938-1.623c-0.544,0.385-1.113,0.741-1.627,1.163c-0.955,0.783-1.769,1.826-2.84,2.362
			C247.764,127.688,246.334,127.333,246.077,124.356z"/>
		<path fill-rule="evenodd" clip-rule="evenodd" d="M410.882,392.006c0.457-1.563,1.086-3.1,1.337-4.695
			c0.581-3.688-0.458-5.385-4.085-7.189c2.213-2.349,4.443-1.877,7.338,1.802c1.017-0.864,1.932-1.928,3.087-2.529
			c0.855-0.446,2.092-0.542,3.021-0.29c0.406,0.109,0.772,1.554,0.6,2.255c-0.152,0.616-1.021,1.385-1.676,1.497
			c-4.819,0.834-6.104,4.18-3.02,8.096c0.237,0.303,0.442,0.632,0.556,0.793c1,0,1.865,0,2.73,0
			c-0.444,0.691-0.841,1.422-1.346,2.065c-0.632,0.805-1.241,1.952-2.069,2.174c-0.667,0.178-2.254-0.681-2.373-1.288
			c-0.494-2.507-1.98-3.047-4.167-2.751L410.882,392.006z"/>
		<path fill-rule="evenodd" clip-rule="evenodd" d="M410.901,369.917c-1.005,1.179-2.001,2.366-3.017,3.534
			c-0.773,0.889-1.651,1.696-2.348,2.638c-3.502,4.731-4.733,10.411-5.981,15.938c-0.521,2.306,0.827,5.032,1.315,7.569
			c0.13,0.672,0.353,1.364,0.289,2.024c-0.046,0.479-0.492,0.918-0.759,1.375c-0.426-0.287-1.079-0.481-1.241-0.877
			c-2.976-7.262-3.433-14.776,0.192-21.719c2.348-4.498,5.734-8.688,10.602-11.121C410.27,369.492,410.585,369.704,410.901,369.917z
			"/>
		<path fill-rule="evenodd" clip-rule="evenodd" d="M251.138,101.8c-1.218,1.602-2.625,3.095-3.613,4.827
			c-1.803,3.162-3.07,6.658-5.085,9.663c-2.685,4.001-1.462,8.276-1.57,12.463c-0.025,0.951,0.662,1.91,0.969,2.882
			c0.189,0.599,0.368,1.231,0.35,1.842c-0.004,0.141-0.898,0.458-1.263,0.337c-0.46-0.155-0.916-0.608-1.171-1.049
			c-2.719-4.702-2.844-9.994-1.648-14.863c0.974-3.969,3.706-7.554,5.915-11.151c0.967-1.575,2.536-2.797,3.905-4.102
			c0.691-0.659,1.548-1.147,2.329-1.712C250.548,101.224,250.843,101.512,251.138,101.8z"/>
		<path fill-rule="evenodd" clip-rule="evenodd" d="M75.708,333.706c-2.904,3.557-5.692,7.219-8.795,10.593
			c-0.753,0.818-2.538,0.883-3.851,0.89c-0.491,0.003-1.378-1.147-1.372-1.765c0.006-0.582,0.862-1.526,1.494-1.674
			c6.268-1.465,6.589-1.737,6.262-8.119c-0.15-2.926-0.437-5.882-1.082-8.729c-0.274-1.211-1.626-2.178-2.487-3.253
			c2.778-2.074,5.316-1.232,5.742,2.002c0.342,2.602,0.915,5.21,0.895,7.812c-0.021,2.717,2.165,1.6,3.263,2.326L75.708,333.706z"/>
		<path fill-rule="evenodd" clip-rule="evenodd" d="M479.321,400.228c1.134-0.649,2.767-1.021,3.313-1.999
			c1.856-3.323,3.604-6.765,4.86-10.348c0.994-2.834,1.451-5.926,1.664-8.937c0.109-1.537-0.941-3.129-1.275-4.735
			c-0.203-0.973-0.038-2.022-0.038-3.037c0.255-0.126,0.511-0.251,0.766-0.377c0.648,0.906,1.615,1.724,1.896,2.731
			c1.877,6.751,2.283,13.491-1.269,19.871c-1.09,1.958-2.648,3.662-4.045,5.441c-0.931,1.187-1.856,2.408-2.969,3.409
			c-0.754,0.679-1.828,1.003-3.372,1.802c0.264-1.87,0.407-2.886,0.55-3.902L479.321,400.228z"/>
		<path fill-rule="evenodd" clip-rule="evenodd" d="M329.605,102.345c5.229,8.899,5.179,17.521-1.425,25.413
			c-2.279,2.725-4.187,6.458-8.559,6.464c4.376-4.063,7.573-8.852,9.375-14.459C330.822,114.082,330.142,108.19,329.605,102.345z"/>
		<path fill-rule="evenodd" clip-rule="evenodd" d="M20.802,312.21c-8.056,9.43-12.575,19.427-8.4,32.516
			c-0.968-0.572-1.838-0.776-2.049-1.265c-0.951-2.197-2.327-4.456-2.403-6.73c-0.115-3.418,0.597-6.89,1.193-10.298
			c1.003-5.729,4.759-9.65,9.113-13.078C18.966,312.796,19.947,312.582,20.802,312.21z"/>
		<path fill-rule="evenodd" clip-rule="evenodd" d="M479.402,400.147c-0.898,0.504-1.746,1.186-2.71,1.465
			c-1.164,0.338-2.47,0.571-3.627,0.365c-0.481-0.087-0.739-1.427-1.024-2.037c1.776-1.672,5.051,1.062,5.303-2.189
			c0.13-1.68-1.288-3.479-1.976-5.147c0.858-0.85,2.121-2.099,3.383-3.349c-1.271-0.665-2.541-1.33-4.796-2.51
			c2.27-0.341,3.841-0.87,5.326-0.691c0.931,0.112,1.771,1.251,2.564,2.02c0.219,0.211,0.308,0.962,0.146,1.1
			c-3.604,3.046-0.276,7.748-2.672,11.056C479.321,400.228,479.402,400.147,479.402,400.147z"/>
		<path fill-rule="evenodd" clip-rule="evenodd" d="M40.586,340.271c0.876,0.082,1.614,0.151,2.374,0.223
			c0.086,0.382,0.284,0.721,0.188,0.918c-0.85,1.749-5.7,3.149-7.151,1.885c-0.458-0.398-0.487-2.063-0.046-2.59
			c2.206-2.635,4.786-4.962,6.921-7.646c1.222-1.536-0.093-3.519-2.148-3.632c-0.907-0.05-1.818-0.008-2.903-0.008
			c1.062-2.431,3.398-3.402,5.311-2.57c1.832,0.797,2.944,4.102,1.806,6.158c-0.981,1.771-2.399,3.297-3.525,4.996
			C41.005,338.62,40.884,339.425,40.586,340.271z"/>
		<path fill-rule="evenodd" clip-rule="evenodd" d="M427.861,392.938c0.5-2.286,4.561-1.667,2.935-4.988
			c-0.778-0.122-1.7-0.268-2.668-0.421c-0.206-2.771,1.801-2.546,3.346-2.46c2.526,0.143,2.543,2.688,2.216,3.92
			c-0.637,2.397-1.53,4.443-0.777,7.153c0.449,1.621-0.781,3.774-3.165,4.181c-0.289,0.05-0.69-0.006-0.851,0.165
			c-1.96,2.097-3.525,1.393-4.999-1.066c0.835-0.139,1.717-0.19,2.537-0.445c1.406-0.436,2.773-0.999,4.157-1.509
			c-0.513-1.24-0.952-2.519-1.573-3.702C428.792,393.332,428.136,393.123,427.861,392.938z"/>
		<path fill-rule="evenodd" clip-rule="evenodd" d="M313.774,133.108c0.793-1.882,1.369-3.008,1.75-4.197
			c1.092-3.414,3.341-6.512,2.781-10.411c-0.06-0.417,0.98-1.275,1.616-1.404c0.379-0.076,1.377,0.873,1.38,1.364
			c0.009,1.551-0.13,3.158-0.558,4.644c-0.947,3.295-2.105,6.53-3.391,10.438C316.563,133.446,315.095,133.269,313.774,133.108z"/>
		<path fill-rule="evenodd" clip-rule="evenodd" d="M270.466,133.042c-1.057,0-2.268,0-4.125,0c1.045-2.406,2.114-4.354,2.741-6.436
			c0.795-2.641,1.159-5.409,1.864-8.081c0.215-0.815,0.94-1.496,1.433-2.238c0.527,0.728,1.599,1.555,1.487,2.166
			c-0.436,2.394-1.32,4.701-1.894,7.075C271.409,127.859,271.021,130.234,270.466,133.042z"/>
		<path fill-rule="evenodd" clip-rule="evenodd" d="M75.776,333.789c0.376-1.272,0.767-2.541,1.124-3.817
			c0.525-1.881,1.124-3.748,1.501-5.659c0.211-1.07,0.038-2.216,0.038-3.364c2.966,0.322,3.96,1.572,2.976,4.203
			c-0.985,2.634-2.624,5.035-4.083,7.473c-0.3,0.503-1.079,0.719-1.63,1.075C75.708,333.706,75.776,333.789,75.776,333.789z"/>
		<path fill-rule="evenodd" clip-rule="evenodd" d="M46.521,341.481c0.261-1.72,0.354-3.469,0.84-5.102
			c0.277-0.932,1.195-1.673,1.824-2.5c0.504,0.729,1.311,1.402,1.46,2.198C51.273,339.422,49.126,341.791,46.521,341.481z"/>
		<path fill-rule="evenodd" clip-rule="evenodd" d="M276.557,131.109c0.157-1.733,0.166-3.118,0.444-4.446
			c0.174-0.831,0.57-1.889,1.208-2.266c0.539-0.319,2-0.063,2.283,0.405c0.427,0.705,0.525,1.989,0.155,2.72
			C279.747,129.302,279.293,131.978,276.557,131.109z"/>
		<path fill-rule="evenodd" clip-rule="evenodd" d="M435.586,399.852c0.159-1.961,0.169-4.003,0.573-5.964
			c0.135-0.652,1.281-1.097,1.964-1.636c0.422,0.535,1.122,1.024,1.219,1.613C439.935,397.463,438.786,399.139,435.586,399.852z"/>
		<path fill-rule="evenodd" clip-rule="evenodd" d="M410.815,391.944c-0.788,1.335-1.406,2.832-2.451,3.921
			c-0.382,0.398-1.907,0.056-2.655-0.385c-0.456-0.268-0.766-1.524-0.522-2.047c0.279-0.597,1.204-1.098,1.925-1.234
			c1.226-0.231,2.511-0.146,3.771-0.193L410.815,391.944z"/>
		<path fill-rule="evenodd" clip-rule="evenodd" fill="#FFFFFF" d="M416.697,344.199c-2.745,2.173-4.96,1.605-7.464,1.285
			c-4.653-0.596-9.412-0.435-14.127-0.459c-32.26-0.167-64.521-0.225-96.779-0.478c-16.789-0.132-33.575-0.621-50.363-0.887
			c-8.449-0.135-16.901-0.044-25.349-0.225c-4.413-0.094-8.814-0.701-13.227-0.796c-2.599-0.057-5.214,0.664-7.814,0.618
			c-2.517-0.044-5.02-0.856-7.54-0.922c-7.666-0.203-15.337-0.238-23.007-0.282c-12.491-0.072-24.982-0.097-37.473-0.158
			c-0.764-0.004-1.528-0.164-2.841-0.314c1.621-2.209,3.005-4.137,4.433-6.033c4.362-5.795,8.653-11.647,13.142-17.344
			c3.305-4.194,6.952-8.117,10.302-12.278c2.414-2.997,4.519-6.243,6.894-9.273c2.28-2.909,4.755-5.664,7.1-8.523
			c2.864-3.492,5.684-7.021,8.521-10.536c2.89-3.582,5.802-7.147,8.659-10.755c2.03-2.563,3.934-5.225,5.987-7.769
			c2.868-3.554,5.832-7.03,8.736-10.556c2.703-3.28,5.352-6.604,8.079-9.864c3.086-3.691,6.288-7.286,9.336-11.007
			c2.422-2.956,4.633-6.083,7.041-9.051c2.327-2.868,4.83-5.591,7.174-8.445c2.594-3.157,5.045-6.432,7.652-9.578
			c2.637-3.182,5.397-6.263,8.086-9.404c0.611-0.715,1.154-1.49,1.72-2.244c1.563-2.082,3.089-4.194,4.693-6.245
			c1.591-2.034,3.27-4,4.891-6.011c1.783-2.214,3.52-4.467,5.322-6.665c1.788-2.18,3.692-4.267,5.432-6.483
			c1.18-1.504,1.705-1.855,3.079,0.1c2.967,4.223,6.456,8.074,9.616,12.167c3.829,4.958,7.482,10.051,11.323,15.001
			c2.172,2.8,4.694,5.331,6.832,8.155c4.035,5.332,7.78,10.885,11.89,16.155c2.601,3.335,5.725,6.257,8.458,9.495
			c1.879,2.226,3.441,4.717,5.238,7.017c2.537,3.249,5.204,6.397,7.73,9.654c1.614,2.081,2.99,4.346,4.621,6.412
			c2.895,3.668,5.901,7.248,8.862,10.864c1.247,1.522,2.566,2.993,3.728,4.579c3.307,4.518,6.459,9.151,9.839,13.613
			c4.987,6.585,10.165,13.025,15.176,19.594c4.826,6.324,9.563,12.718,14.3,19.109c2.341,3.159,4.476,6.478,6.92,9.552
			c2.753,3.463,5.85,6.652,8.608,10.111C412.455,338.007,414.503,341.134,416.697,344.199z M232.339,276.291
			c0.421,0.096,0.843,0.19,1.264,0.286c0.825-1.315,1.627-2.646,2.478-3.945c1.14-1.739,2.318-3.452,3.474-5.181
			c0.371-0.555,0.73-1.116,1.078-1.686c1.544-2.525,3.091-5.05,4.621-7.585c1.015-1.681,3.294-2.887,2.529-5.122
			c-1.451,0.508-2.587,0.904-3.725,1.302c-0.24-0.282-0.479-0.564-0.719-0.848c0.564-0.799,0.993-1.76,1.72-2.363
			c1.691-1.404,3.44-2.778,5.321-3.904c3.063-1.834,6.075-4.13,9.429-5.007c4.397-1.151,9.098-1.352,13.685-1.533
			c8.768-0.347,16.651,1.761,23.552,7.788c4.88,4.262,8.597,9.164,11.477,14.803c0.721,1.411,0.265,3.497,1.114,4.757
			c2.582,3.823,1.518,8.041,1.624,12.063c0.093,3.503-0.327,6.951-1.766,10.446s-2.579,7.1-4.959,10.04
			c-2.754,3.401-5.705,6.553-9.148,9.435c-3.022,2.529-6.464,3.835-9.681,4.882c-7.081,2.305-14.569,2.502-21.991,0.667
			c-1.692-0.418-3.575-0.062-6.186-0.062c1.935,1.589,3.061,3.277,4.44,3.52c8.609,1.507,17.253,2.319,25.547-1.611
			c2.573-1.22,5.245-2.285,7.665-3.759c2.928-1.782,5.662-3.89,8.42-5.937c0.583-0.434,0.959-1.184,1.344-1.838
			c3.09-5.268,7.301-9.93,7.954-16.462c0.376-3.76,2.031-7.436,2.103-11.169c0.069-3.697-0.884-7.483-1.837-11.112
			c-0.958-3.647-1.704-7.473-4.606-10.331c-1.181-1.163-2.046-2.64-3.168-3.871c-2.576-2.825-5.027-5.813-7.911-8.293
			c-1.827-1.572-4.366-2.3-6.537-3.494c-1.674-0.919-3.198-2.663-4.917-2.847c-6.223-0.669-12.497-0.891-18.758-1.171
			c-5.202-0.233-9.477,2.548-14.088,4.367c-4.366,1.722-7.45,4.812-10.433,8.102c-2.028,2.236-3.75,4.75-5.981,7.62
			c-1.772-3.072-3.379-5.857-5.429-9.408c-0.442,1.107-1.041,1.949-1.061,2.806c-0.032,1.334,0.408,2.671,0.508,4.018
			C231.327,261.863,231.826,269.077,232.339,276.291z"/>
		<path fill-rule="evenodd" clip-rule="evenodd" d="M232.339,276.291c-0.514-7.214-1.012-14.428-1.554-21.639
			c-0.101-1.347-0.541-2.684-0.508-4.018c0.021-0.857,0.619-1.699,1.061-2.806c2.05,3.551,3.657,6.336,5.429,9.408
			c2.232-2.87,3.954-5.384,5.981-7.62c2.982-3.291,6.067-6.38,10.433-8.102c4.611-1.819,8.886-4.601,14.088-4.367
			c6.261,0.281,12.535,0.502,18.758,1.171c1.719,0.185,3.243,1.928,4.917,2.847c2.171,1.194,4.71,1.922,6.537,3.494
			c2.884,2.479,5.335,5.468,7.911,8.293c1.122,1.231,1.987,2.708,3.168,3.871c2.902,2.858,3.648,6.684,4.606,10.331
			c0.953,3.629,1.906,7.415,1.837,11.112c-0.071,3.733-1.727,7.409-2.103,11.169c-0.653,6.532-4.864,11.194-7.954,16.462
			c-0.385,0.654-0.761,1.404-1.344,1.838c-2.758,2.047-5.492,4.154-8.42,5.937c-2.42,1.474-5.092,2.539-7.665,3.759
			c-8.294,3.931-16.938,3.118-25.547,1.611c-1.38-0.242-2.506-1.931-4.44-3.52c2.61,0,4.493-0.356,6.186,0.062
			c7.422,1.835,14.91,1.638,21.991-0.667c3.217-1.047,6.658-2.353,9.681-4.882c3.443-2.882,6.395-6.033,9.148-9.435
			c2.38-2.94,3.521-6.545,4.959-10.04s1.858-6.943,1.766-10.446c-0.106-4.021,0.958-8.239-1.624-12.063
			c-0.85-1.26-0.394-3.346-1.114-4.757c-2.88-5.639-6.597-10.541-11.477-14.803c-6.9-6.026-14.784-8.134-23.552-7.788
			c-4.587,0.181-9.287,0.382-13.685,1.533c-3.354,0.877-6.365,3.173-9.429,5.007c-1.881,1.126-3.63,2.5-5.321,3.904
			c-0.727,0.604-1.156,1.564-1.72,2.363c0.24,0.283,0.479,0.565,0.719,0.848c1.137-0.397,2.273-0.794,3.725-1.302
			c0.766,2.235-1.514,3.441-2.529,5.122c-1.529,2.535-3.076,5.06-4.621,7.585c-0.348,0.569-0.707,1.131-1.078,1.686
			c-1.156,1.729-2.334,3.441-3.474,5.181c-0.851,1.299-1.653,2.63-2.478,3.945C233.182,276.481,232.761,276.387,232.339,276.291z"/>
	</g>
</g>
</svg>
