<?xml version="1.0" encoding="utf-8"?>
<!-- Generator: Adobe Illustrator 16.0.0, SVG Export Plug-In . SVG Version: 6.00 Build 0)  -->
<!DOCTYPE svg PUBLIC "-//W3C//DTD SVG 1.1//EN" "http://www.w3.org/Graphics/SVG/1.1/DTD/svg11.dtd">
<svg version="1.1" id="Layer_1" xmlns="http://www.w3.org/2000/svg" xmlns:xlink="http://www.w3.org/1999/xlink" x="0px" y="0px"
	 width="500px" height="500px" viewBox="0 0 500 500" enable-background="new 0 0 500 500" xml:space="preserve">
<g>
	<g>
		<path fill-rule="evenodd" clip-rule="evenodd" fill="#FFFFFF" d="M500.573,439.496c-166.675,0-333.324,0-499.949,0
			c0-125.957,0-251.888,0-377.794c166.675,0,333.324,0,499.949,0C500.573,187.659,500.573,313.59,500.573,439.496z M334.61,390.442
			c0.326,0.396,0.463,0.682,0.688,0.816c0.917,0.549,1.862,1.052,2.796,1.571c-0.031-0.992-0.111-1.985-0.078-2.975
			c0.021-0.618,0.253-1.225,0.32-1.844c0.075-0.678,0.07-1.363,0.1-2.046c-0.774,0.117-2.072,0.008-2.237,0.39
			c-1.082,2.493-3.098,1.672-4.844,1.485c-1.202-0.13-2.542-0.411-3.501-1.081c-2.24-1.563-5.158-0.666-7.477-2.826
			c-1.697-1.581-4.967-1.475-7.536-2.12c-0.091,0.302-0.183,0.603-0.273,0.904c1.49,1.586,2.981,3.172,5.006,5.327
			c-59.321-0.526-117.702-1.043-176.032-1.561c0.613-2.955,5.006-3.185,5.064-7.033c-7.513,2.552-14.582,4.953-22.156,7.525
			c0-14.772,0-28.622,0-42.68c1.294,0,2.278-0.002,3.261,0c13.173,0.024,26.347,0.067,39.52,0.07
			c32.134,0.007,64.268-0.031,96.402-0.001c34.045,0.031,68.089,0.104,102.133,0.21c2.957,0.009,5.915,0.603,8.87,0.583
			c5.632-0.037,11.263-0.452,16.895-0.457c4.268-0.004,8.533,0.537,12.803,0.573c14.864,0.126,29.729,0.135,44.594,0.194
			c9.478,0.038,18.954,0.094,28.432,0.126c1.479,0.005,3.205,0.24,2.718-2.893c-118.428-0.361-236.936-0.725-355.625-1.087
			c-0.062-0.775-0.178-1.55-0.177-2.323c0.031-24.718,0.092-49.437,0.105-74.155c0.008-14.442-0.072-28.887-0.086-43.33
			c-0.009-9.062,0.28-18.132-0.019-27.183c-0.296-8.98,0.28-17.939,0.035-26.922c-0.385-14.046-0.122-28.109-0.115-42.166
			c0.004-8.173,0.096-16.347-0.003-24.519c-0.011-0.957-0.981-1.902-1.507-2.853c-0.607,0.961-1.616,1.872-1.742,2.893
			c-0.303,2.457-0.246,4.964-0.24,7.452c0.049,19.124,0.054,38.249,0.259,57.372c0.029,2.735-0.009,4.991-2.78,6.292
			c-0.103,0.049-0.083,0.359-0.192,0.911c4.597,1.064,3.19,4.53,2.841,7.641c-0.044,0.393,0.015,0.796,0.021,1.195
			c0.128,9.447,0.342,18.894,0.363,28.341c0.029,13.326-0.128,26.653-0.125,39.979c0.003,13.057,0.12,26.112,0.164,39.169
			c0.038,11.256,0.042,22.511,0.067,33.766c0.012,5.269,0.041,10.537,0.059,15.806c0.005,1.642-0.305,2.945-2.422,2.936
			c-12.172-0.056-24.345-0.081-36.518-0.078c-2.14,0-2.644-1.094-2.096-2.883c0.843-2.751,1.761-5.479,2.703-8.199
			c1.206-3.482,2.468-6.946,3.706-10.419c-0.248-0.187-0.496-0.373-0.744-0.559c-1.816,1.455-3.633,2.911-5.783,4.634
			c0-44.409,0-88.396,0-132.391c2.741,0.594,3.481,4.281,7.005,3.717c-1.733-4.391-3.651-8.252-4.745-12.335
			c-0.912-3.404-3.92-6.71-1.328-10.67c0.188-0.288-0.845-1.375-1.859-2.935c-3.37,9.15-6.394,17.364-9.527,25.872
			c3.982,0.923,4.442-3.735,7.388-3.83c0,43.96,0,87.917,0,132.489c-2.551-1.646-4.713-3.042-6.875-4.437
			c-0.171,0.247-0.342,0.495-0.514,0.743c2.613,6.889,5.226,13.777,7.855,20.71c-0.948,0.305-1.228,0.474-1.508,0.474
			c-12.07-0.01-24.14-0.008-36.209-0.091c-1.547-0.011-3.096-0.709-4.637-0.683c-6.233,0.103-12.463,0.363-18.695,0.569
			c-2.003,0.066-4.006,0.145-6.008,0.217c-0.015,0.333-0.029,0.665-0.043,0.998c0.87,0.401,1.729,1.122,2.611,1.148
			c4.407,0.133,8.82,0.089,13.23,0.098c30.632,0.061,61.264,0.16,91.895,0.11c2.813-0.005,3.242,0.938,3.191,3.442
			c-0.181,8.859-0.079,17.725-0.158,26.587c-0.163,18.304-0.399,36.608-0.479,54.912c-0.003,0.88,1.21,1.765,1.858,2.648
			c0.586-0.731,1.67-1.455,1.682-2.195c0.113-6.979,0.036-13.962,0.027-20.943c-0.009-6.415-0.002-12.83-0.002-19.747
			c7.525,2.297,14.772,4.51,22.02,6.723c0.163-0.386,0.326-0.771,0.489-1.156c-1.801-1.507-3.602-3.016-5.403-4.523
			c0.128-0.359,0.256-0.72,0.384-1.08c58.399,0.6,116.8,1.198,176.194,1.807c-2.192,2.496-3.884,4.421-5.575,6.346
			c0.148,0.307,0.297,0.612,0.445,0.919C320.161,395.431,327.387,392.936,334.61,390.442z M339.674,279.127
			c3.489-0.368,7.828-0.696,12.123-1.324c3.162-0.463,6.291-1.228,9.391-2.028c3.064-0.792,6.119-1.674,9.094-2.749
			c2.889-1.045,5.783-2.178,8.475-3.643c4.76-2.593,9.46-5.321,14.008-8.267c3.653-2.366,7.367-4.804,10.47-7.812
			c4.137-4.013,7.434-8.896,11.608-12.86c3.22-3.055,5.254-6.649,7.476-10.352c7.185-11.977,11.387-24.889,13.332-38.636
			c1.879-13.279,1.061-26.434-2.429-39.318c-2.531-9.348-5.778-18.516-11.396-26.584c-2.203-3.165-4.577-6.214-6.958-9.25
			c-2.355-3.004-4.622-6.116-7.273-8.845c-6.668-6.863-14.272-12.704-22.283-17.818c-5.618-3.586-12.063-5.885-18.175-8.682
			c-1.318-0.603-2.766-0.976-4.189-1.28c-4.135-0.884-8.279-1.733-12.438-2.491c-2.624-0.478-5.271-0.967-7.924-1.095
			c-4.182-0.201-8.404,0.186-12.562-0.196c-7.002-0.642-13.533,1.734-20.228,2.869c-4.718,0.799-9.364,2.601-13.759,4.584
			c-6.204,2.8-12.329,5.881-18.139,9.417c-4.095,2.493-7.784,5.75-11.337,9.011c-4.103,3.765-8.296,7.574-11.66,11.968
			c-5.296,6.916-10.17,14.14-13.659,22.275c-4.305,10.04-7.578,20.272-8.21,31.217c-0.14,2.414-0.254,4.539-3.129,5.141
			c0.949,1.552,2.26,2.801,2.466,4.212c0.458,3.134,0.34,6.351,0.497,9.532c0.503,10.217,3,19.982,7.063,29.318
			c2.382,5.475,4.925,10.917,7.907,16.08c2.534,4.386,5.487,8.623,8.813,12.437c5.049,5.789,10.551,11.225,17.127,15.319
			c6.32,3.937,12.521,8.294,19.323,11.163c6.56,2.768,13.156,5.932,20.566,6.446c5.982,0.416,11.92,1.443,17.886,2.131
			c1.335,0.154,2.703,0.022,4.057,0.022c-0.164,0.237-0.328,0.475-0.492,0.713c0.625,0.999,1.25,1.999,1.874,2.998
			C337.753,281.721,338.518,280.688,339.674,279.127z M148.654,316.182c-2.064,0.557-4.72,0.499-6.07,1.798
			c-2.739,2.635-5.307,5.742-6.962,9.135c-2.124,4.351,0.576,11.211,7.306,11.24c5.952,0.025,11.27-4.124,13.463-10.889
			C158.587,320.689,155.703,316.572,148.654,316.182z M246.467,410.526c-1.234,3.94-2.272,7.254-3.315,10.585
			c4.628,1.196,5.68,0.196,4.829-3.952c-0.107-0.521,0.181-1.141,0.341-1.698c0.437-1.525,1.011-3.02,1.327-4.568
			c0.336-1.651-0.255-2.853-2.194-2.532c-1.882,0.311-3.73,0.838-5.825,1.324c0.888-3.155,1.754-6.226,2.684-9.528
			c-2.172,0-3.818,0-5.383,0c0,2.457,0.438,4.851-0.094,7.006c-1.01,4.095-2.613,8.042-3.867,12.082
			c-0.194,0.627-0.013,1.939,0.289,2.038c0.736,0.24,1.745,0.161,2.45-0.185c0.511-0.252,0.688-1.151,1.057-1.734
			c1.702-2.684,3.368-5.394,5.18-8C244.256,410.914,245.218,410.916,246.467,410.526z M62.147,259.396
			c-0.335-2.917-2.817-2.219-4.035-1.685c-1.27,0.557-1.983,2.381-2.94,3.65c-0.252-0.156-0.504-0.313-0.756-0.469
			c0.971-3.397,1.942-6.795,2.95-10.32c-2.033,0-3.448,0-4.862,0c0.263,0.158,0.526,0.317,0.79,0.476
			c-1.742,6.872-3.484,13.745-5.222,20.601c2.583,0.844,3.626,0.011,3.903-2.326c0.113-0.954,0.854-1.833,1.31-2.746
			c0.267,0.037,0.533,0.075,0.8,0.112c0.821,2.408,0.083,6.323,4.196,5.711c1.442-0.214,3.162-1.652,2.604-4.019
			c-1.058-0.048-2.004-0.09-2.864-0.129C55.962,263.331,56.705,261.775,62.147,259.396z M92.575,105.385
			c-0.037,0.25-0.074,0.501-0.11,0.751c4.24,2.045,2.505,6.069,3.456,9.214c1.273,4.215-3.764,5.457-4.222,9.548
			c1.282-0.513,2.305-0.625,2.852-1.193c2.573-2.678,5.162-5.365,7.454-8.277c1.664-2.114,3.057-4.5,4.183-6.944
			c0.402-0.874-0.081-2.437-0.673-3.354c-0.249-0.385-1.829,0.091-2.913,0.186c1.255,4.028,0.014,6.912-3.419,8.183
			c0-1.814,0.322-3.572-0.092-5.134c-0.397-1.497-1.266-3.301-2.484-3.999C95.741,103.87,93.952,104.988,92.575,105.385z
			 M492.377,336.461c-4.15-0.703-4.556-1.036-4.423-3.842c0.14-2.922,2.002-3.992,5.244-3.739c-0.381-1.062-0.557-2.352-0.917-2.405
			c-1.11-0.165-2.297,0.098-3.439,0.281c-0.896,0.145-2.438,0.789-2.555,0.579c-1.898-3.416-4.056-0.791-6.267-0.329
			c0.45,0.743,1.235,1.086,1.641,1.685c0.976,1.443,2.812,3.42,2.41,4.429c-0.657,1.649-2.858,2.657-4.321,4.029
			c-0.526,0.494-0.8,1.257-1.188,1.898c0.786,0.207,1.616,0.669,2.347,0.545c0.646-0.11,1.31-0.78,1.736-1.369
			c1.144-1.576,1.894-1.328,3.156,0.04c0.748,0.81,2.436,1.383,3.466,1.126C490.332,339.122,491.114,337.722,492.377,336.461z
			 M336.188,414.883c-0.024,0.116-0.049,0.232-0.073,0.349c0,1.112-0.155,2.262,0.098,3.313c0.072,0.298,1.334,0.31,2.051,0.451
			c0.049-1.165,0.129-2.329,0.141-3.495c0.022-2.246,0.007-4.494,0.007-7.337c-1.37-1.183-1.37-1.183-2.223,0.936
			C336.188,411.026,336.188,412.955,336.188,414.883z M336.546,310.1c0.402-0.008,0.805-0.016,1.207-0.023
			c0.367-0.652,0.941-1.271,1.057-1.966c0.213-1.29,0.3-2.641,0.165-3.937c-0.083-0.795-0.525-1.703-1.104-2.236
			c-0.337-0.311-1.7-0.191-1.838,0.098c-0.346,0.726-0.629,2.161-0.277,2.421c1.523,1.129,0.606,1.798,0.04,2.915
			C335.48,307.994,336.26,309.171,336.546,310.1z M336.792,353.872c-0.039,0.076-0.278,0.413-0.386,0.789
			c-0.23,0.797-0.391,1.613-0.58,2.423c0.938,0.092,1.877,0.184,2.815,0.276c-0.11-0.848-0.305-1.696-0.309-2.545
			c-0.003-0.716,0.227-1.431,0.327-2.149c0.089-0.64,0.354-1.373,0.135-1.894c-0.14-0.328-1.036-0.487-1.575-0.452
			c-0.518,0.033-1.468,0.52-1.443,0.628C335.986,351.874,336.375,352.758,336.792,353.872z M336.81,379.938
			c0.486-0.032,0.972-0.063,1.458-0.095c0.169-0.813,0.758-2.038,0.435-2.366c-1.262-1.284-1.318-2.196,0.031-3.433
			c0.29-0.267,0.008-1.841-0.318-1.958c-0.755-0.271-1.728-0.126-2.538,0.107c-0.174,0.05-0.293,1.552,0.009,1.77
			c1.589,1.149,1.178,2.092,0.225,3.447C335.791,377.865,336.546,379.074,336.81,379.938z M336.632,402.089
			c-0.159,0.349-0.445,0.704-0.463,1.072c-0.041,0.842-0.138,1.771,0.177,2.497c0.131,0.303,1.683,0.444,1.83,0.2
			c0.383-0.633,0.427-1.518,0.45-2.307c0.019-0.655-0.237-1.313-0.275-1.975c-0.052-0.897-0.011-1.8-0.009-2.699
			c-0.76,0.058-1.518,0.115-2.276,0.172c0.116,0.826,0.227,1.652,0.356,2.476C336.451,401.711,336.554,401.885,336.632,402.089z
			 M166.884,173.114c-1.248-0.958-1.599-1.456-1.967-1.469c-1.799-0.067-3.613-0.105-5.397,0.084
			c-0.429,0.045-0.762,0.994-1.139,1.527c0.652,0.267,1.286,0.687,1.96,0.766c0.972,0.113,1.982,0.053,2.958-0.073
			C164.232,173.829,165.144,173.53,166.884,173.114z M338.234,310.729c-0.582-0.07-1.165-0.14-1.747-0.209
			c-0.266,1.153-0.531,2.308-0.797,3.462c0.788,0.011,2.211,0.192,2.262,0.005C338.23,312.951,338.176,311.824,338.234,310.729z
			 M188.53,173.267c-0.05-0.563-0.101-1.126-0.151-1.689c-0.995,0-2.127-0.278-2.932,0.114c-0.418,0.204-0.259,1.591-0.362,2.443
			C186.234,173.845,187.382,173.556,188.53,173.267z M337.289,331.362c-0.794,1.428-1.502,2.187-1.56,2.991
			c-0.035,0.501,1.009,1.572,1.401,1.498c0.665-0.125,1.663-0.942,1.676-1.488C338.824,333.594,338.072,332.806,337.289,331.362z
			 M337.867,367.14c-0.413-0.01-0.826-0.019-1.239-0.027c-0.29,0.999-0.579,1.998-0.868,2.997c0.982,0.082,1.964,0.164,2.946,0.245
			C338.427,369.282,338.147,368.211,337.867,367.14z M336.963,288.444c0.868-1.284,1.705-1.994,1.743-2.745
			c0.032-0.623-0.877-1.294-1.369-1.943c-0.637,0.651-1.594,1.215-1.804,1.983C335.382,286.296,336.22,287.122,336.963,288.444z
			 M101.709,169.945c-0.525,1.535-0.873,2.553-1.221,3.57c1.085,0,2.17,0,3.255,0c0.027-0.318,0.053-0.636,0.08-0.954
			C103.292,171.904,102.761,171.246,101.709,169.945z M175.037,173.543c-0.043-0.536-0.087-1.071-0.131-1.607
			c-1.035,0-2.068,0-3.103,0c0.037,0.682,0.075,1.362,0.113,2.043C172.956,173.835,173.997,173.689,175.037,173.543z
			 M337.053,292.768c0.875-1.825,1.315-2.742,1.949-4.063c-1.475,0-2.466,0-4.01,0C335.672,290.045,336.149,290.985,337.053,292.768
			z M335.241,298.151c0.085,0.595,0.17,1.189,0.255,1.784c0.969-0.081,1.979-0.036,2.869-0.343c0.188-0.065-0.071-1.422-0.125-2.183
			C337.24,297.657,336.24,297.904,335.241,298.151z M201.781,172.836c-0.834-0.759-1.434-1.696-1.898-1.634
			c-0.695,0.094-1.296,0.89-1.938,1.388c0.579,0.56,1.084,1.406,1.762,1.58C200.165,174.288,200.867,173.46,201.781,172.836z
			 M138.47,170.956c-0.46-0.133-0.919-0.267-1.379-0.4c-0.428,1.075-0.856,2.151-1.285,3.226c0.707,0.015,1.889,0.275,2.032-0.001
			C138.266,172.952,138.289,171.913,138.47,170.956z M177.959,170.034c-0.939,1.132-1.802,1.725-1.874,2.401
			c-0.056,0.523,0.789,1.424,1.408,1.63c0.359,0.119,1.454-0.755,1.518-1.269C179.098,172.112,178.501,171.343,177.959,170.034z
			 M338.277,324.211c-0.391-0.032-0.781-0.065-1.172-0.099c-0.58,0.494-1.161,0.986-1.894,1.608c0.699,0.79,1.315,1.487,1.932,2.184
			c0.3-0.042,0.601-0.085,0.901-0.127C338.123,326.589,338.2,325.4,338.277,324.211z"/>
		<path fill-rule="evenodd" clip-rule="evenodd" d="M334.61,390.442c-7.224,2.493-14.449,4.988-21.675,7.482
			c-0.148-0.307-0.297-0.612-0.445-0.919c1.691-1.925,3.383-3.85,5.575-6.346c-59.395-0.608-117.795-1.207-176.194-1.807
			c-0.128,0.36-0.256,0.721-0.384,1.08c1.801,1.508,3.602,3.017,5.403,4.523c-0.163,0.386-0.326,0.771-0.489,1.156
			c-7.248-2.213-14.495-4.426-22.02-6.723c0,6.917-0.007,13.332,0.002,19.747c0.009,6.981,0.086,13.964-0.027,20.943
			c-0.012,0.74-1.096,1.464-1.682,2.195c-0.647-0.884-1.861-1.769-1.858-2.648c0.08-18.304,0.316-36.608,0.479-54.912
			c0.079-8.862-0.023-17.728,0.158-26.587c0.051-2.505-0.378-3.447-3.191-3.442c-30.631,0.05-61.263-0.05-91.895-0.11
			c-4.411-0.009-8.824,0.035-13.23-0.098c-0.881-0.026-1.741-0.747-2.611-1.148c0.014-0.333,0.029-0.665,0.043-0.998
			c2.002-0.072,4.005-0.15,6.008-0.217c6.231-0.206,12.462-0.467,18.695-0.569c1.542-0.026,3.09,0.672,4.637,0.683
			c12.069,0.083,24.139,0.081,36.209,0.091c0.28,0,0.561-0.169,1.508-0.474c-2.629-6.933-5.242-13.821-7.855-20.71
			c0.171-0.248,0.342-0.496,0.514-0.743c2.162,1.395,4.324,2.79,6.875,4.437c0-44.571,0-88.529,0-132.489
			c-2.946,0.094-3.406,4.752-7.388,3.83c3.133-8.508,6.158-16.722,9.527-25.872c1.015,1.56,2.048,2.647,1.859,2.935
			c-2.592,3.96,0.416,7.267,1.328,10.67c1.093,4.083,3.012,7.945,4.745,12.335c-3.524,0.564-4.265-3.124-7.005-3.717
			c0,43.995,0,87.982,0,132.391c2.15-1.723,3.967-3.179,5.783-4.634c0.248,0.186,0.496,0.372,0.744,0.559
			c-1.238,3.473-2.5,6.937-3.706,10.419c-0.942,2.72-1.859,5.448-2.703,8.199c-0.548,1.789-0.044,2.883,2.096,2.883
			c12.173-0.003,24.346,0.022,36.518,0.078c2.118,0.01,2.428-1.294,2.422-2.936c-0.018-5.269-0.046-10.537-0.059-15.806
			c-0.025-11.255-0.029-22.51-0.067-33.766c-0.044-13.057-0.161-26.112-0.164-39.169c-0.003-13.327,0.154-26.653,0.125-39.979
			c-0.021-9.447-0.235-18.894-0.363-28.341c-0.006-0.399-0.065-0.803-0.021-1.195c0.35-3.11,1.756-6.576-2.841-7.641
			c0.109-0.552,0.089-0.862,0.192-0.911c2.771-1.302,2.81-3.558,2.78-6.292c-0.206-19.123-0.21-38.248-0.259-57.372
			c-0.006-2.487-0.063-4.995,0.24-7.452c0.125-1.021,1.134-1.932,1.742-2.893c0.525,0.951,1.496,1.896,1.507,2.853
			c0.099,8.172,0.007,16.346,0.003,24.519c-0.007,14.056-0.27,28.12,0.115,42.166c0.246,8.983-0.331,17.942-0.035,26.922
			c0.298,9.051,0.01,18.122,0.019,27.183c0.014,14.443,0.094,28.888,0.086,43.33c-0.013,24.719-0.075,49.438-0.105,74.155
			c-0.001,0.773,0.115,1.548,0.177,2.323c118.689,0.362,237.197,0.726,355.625,1.087c0.487,3.133-1.238,2.897-2.718,2.893
			c-9.478-0.032-18.954-0.088-28.432-0.126c-14.865-0.06-29.729-0.068-44.594-0.194c-4.27-0.036-8.535-0.577-12.803-0.573
			c-5.632,0.005-11.263,0.42-16.895,0.457c-2.955,0.02-5.913-0.574-8.87-0.583c-34.044-0.106-68.088-0.179-102.133-0.21
			c-32.134-0.03-64.268,0.008-96.402,0.001c-13.173-0.003-26.347-0.046-39.52-0.07c-0.983-0.002-1.967,0-3.261,0
			c0,14.058,0,27.907,0,42.68c7.575-2.572,14.643-4.974,22.156-7.525c-0.058,3.849-4.451,4.078-5.064,7.033
			c58.33,0.518,116.71,1.034,176.032,1.561c-2.024-2.155-3.516-3.741-5.006-5.327c0.091-0.302,0.183-0.603,0.273-0.904
			c2.569,0.646,5.839,0.539,7.536,2.12c2.318,2.16,5.236,1.263,7.477,2.826c0.959,0.67,2.299,0.951,3.501,1.081
			c1.746,0.187,3.762,1.008,4.844-1.485c0.165-0.382,1.463-0.272,2.237-0.39c-0.029,0.683-0.024,1.368-0.1,2.046
			c-0.067,0.619-0.299,1.226-0.32,1.844c-0.033,0.989,0.047,1.982,0.078,2.975c-0.934-0.52-1.879-1.022-2.796-1.571
			C335.073,391.124,334.937,390.839,334.61,390.442z"/>
		<path fill-rule="evenodd" clip-rule="evenodd" d="M339.674,279.127c-1.156,1.561-1.921,2.594-2.686,3.626
			c-0.624-0.999-1.249-1.999-1.874-2.998c0.164-0.238,0.328-0.476,0.492-0.713c-1.354,0-2.722,0.132-4.057-0.022
			c-5.966-0.688-11.903-1.715-17.886-2.131c-7.41-0.515-14.007-3.679-20.566-6.446c-6.803-2.869-13.003-7.227-19.323-11.163
			c-6.576-4.095-12.078-9.53-17.127-15.319c-3.326-3.814-6.279-8.051-8.813-12.437c-2.982-5.163-5.524-10.605-7.907-16.08
			c-4.062-9.336-6.56-19.102-7.063-29.318c-0.157-3.181-0.04-6.397-0.497-9.532c-0.206-1.411-1.517-2.66-2.466-4.212
			c2.875-0.602,2.989-2.728,3.129-5.141c0.632-10.944,3.905-21.177,8.21-31.217c3.489-8.135,8.362-15.359,13.659-22.275
			c3.364-4.395,7.558-8.203,11.66-11.968c3.553-3.261,7.242-6.519,11.337-9.011c5.81-3.536,11.935-6.616,18.139-9.417
			c4.395-1.984,9.041-3.785,13.759-4.584c6.694-1.135,13.226-3.511,20.228-2.869c4.157,0.381,8.38-0.005,12.562,0.196
			c2.653,0.127,5.3,0.617,7.924,1.095c4.159,0.758,8.304,1.606,12.438,2.491c1.424,0.304,2.871,0.677,4.189,1.28
			c6.111,2.796,12.557,5.095,18.175,8.682c8.011,5.114,15.615,10.955,22.283,17.818c2.651,2.729,4.918,5.841,7.273,8.845
			c2.381,3.036,4.755,6.085,6.958,9.25c5.618,8.068,8.865,17.236,11.396,26.584c3.489,12.884,4.308,26.04,2.429,39.318
			c-1.945,13.748-6.147,26.66-13.332,38.636c-2.222,3.703-4.256,7.297-7.476,10.352c-4.175,3.964-7.472,8.848-11.608,12.86
			c-3.103,3.008-6.816,5.445-10.47,7.812c-4.548,2.945-9.248,5.674-14.008,8.267c-2.691,1.465-5.586,2.598-8.475,3.643
			c-2.975,1.075-6.029,1.957-9.094,2.749c-3.1,0.801-6.229,1.565-9.391,2.028C347.502,278.431,343.163,278.759,339.674,279.127z
			 M334.063,79.165c-6.479,0.637-13.562,0.397-20.078,2.202c-8.795,2.435-18.008,4.159-25.713,9.786
			c-3.468,2.531-7.523,4.25-11.048,6.713c-3.389,2.368-6.327,5.372-9.66,7.83c-5.917,4.364-9.967,10.351-14.167,16.149
			c-5.26,7.262-9.058,15.292-12.162,23.768c-3.78,10.32-5.082,20.983-5.185,31.738c-0.068,7.188,1.052,14.475,2.422,21.567
			c2.042,10.568,6.16,20.447,11.798,29.654c3.752,6.125,7.697,12.025,12.876,17.169c5.15,5.118,10.523,9.94,16.713,13.581
			c6.542,3.848,13.441,7.194,20.463,10.086c5.259,2.165,10.959,3.261,16.462,4.834c1.31,0.374,2.643,1.15,3.921,1.067
			c5.395-0.349,10.702,0.687,16.152,0.474c8.442-0.331,16.475-1.775,24.664-3.611c7.352-1.647,13.878-4.983,20.499-8.014
			c5.604-2.565,10.487-6.756,15.561-10.408c2.663-1.917,5.447-3.898,7.479-6.413c5.07-6.272,9.998-12.695,14.478-19.396
			c2.736-4.093,5.1-8.626,6.626-13.291c2.321-7.093,4.279-14.392,5.438-21.753c1.044-6.631,1.276-13.482,0.993-20.2
			c-0.251-5.977-1.248-12.018-2.737-17.82c-1.702-6.633-3.886-13.223-6.664-19.474c-2.142-4.819-5.298-9.25-8.42-13.551
			c-3.22-4.436-6.741-8.694-10.491-12.693c-7.635-8.141-16.93-14.336-26.602-19.546c-7.286-3.925-15.526-6.4-23.619-8.403
			C347.757,79.648,341.024,79.808,334.063,79.165z"/>
		<path fill-rule="evenodd" clip-rule="evenodd" d="M148.654,316.182c7.048,0.391,9.933,4.508,7.736,11.284
			c-2.193,6.765-7.511,10.914-13.463,10.889c-6.729-0.029-9.429-6.89-7.306-11.24c1.655-3.393,4.223-6.5,6.962-9.135
			C143.934,316.681,146.59,316.738,148.654,316.182z M144.483,335.938c0.134-0.021,1.343,0.14,2.014-0.387
			c4.118-3.228,6.529-7.587,6.243-12.784c-0.201-3.64-2.636-5.787-5.35-4.458c-4.786,2.346-7.449,6.362-8.221,11.612
			C138.642,333.511,140.477,335.936,144.483,335.938z"/>
		<path fill-rule="evenodd" clip-rule="evenodd" d="M246.467,410.526c-1.25,0.39-2.211,0.388-2.524,0.837
			c-1.813,2.606-3.478,5.316-5.18,8c-0.37,0.583-0.546,1.482-1.057,1.734c-0.705,0.346-1.713,0.425-2.45,0.185
			c-0.301-0.099-0.482-1.411-0.289-2.038c1.254-4.04,2.857-7.987,3.867-12.082c0.532-2.155,0.094-4.549,0.094-7.006
			c1.565,0,3.211,0,5.383,0c-0.93,3.303-1.795,6.373-2.684,9.528c2.095-0.486,3.943-1.014,5.825-1.324
			c1.939-0.32,2.531,0.881,2.194,2.532c-0.315,1.549-0.89,3.043-1.327,4.568c-0.16,0.558-0.448,1.177-0.341,1.698
			c0.851,4.148-0.201,5.148-4.829,3.952C244.195,417.78,245.233,414.467,246.467,410.526z"/>
		<path fill-rule="evenodd" clip-rule="evenodd" d="M62.147,259.396c-5.442,2.38-6.186,3.936-4.126,8.856
			c0.859,0.039,1.806,0.081,2.864,0.129c0.558,2.366-1.162,3.805-2.604,4.019c-4.114,0.612-3.375-3.303-4.196-5.711
			c-0.267-0.037-0.533-0.075-0.8-0.112c-0.456,0.913-1.197,1.792-1.31,2.746c-0.277,2.337-1.321,3.17-3.903,2.326
			c1.738-6.855,3.48-13.729,5.222-20.601c-0.263-0.158-0.526-0.317-0.79-0.476c1.414,0,2.829,0,4.862,0
			c-1.008,3.525-1.979,6.923-2.95,10.32c0.252,0.156,0.504,0.313,0.756,0.469c0.957-1.27,1.671-3.094,2.94-3.65
			C59.33,257.177,61.812,256.479,62.147,259.396z"/>
		<path fill-rule="evenodd" clip-rule="evenodd" d="M92.575,105.385c1.377-0.397,3.166-1.515,4.031-1.019
			c1.218,0.698,2.087,2.502,2.484,3.999c0.415,1.562,0.092,3.32,0.092,5.134c3.433-1.271,4.674-4.155,3.419-8.183
			c1.083-0.094,2.664-0.57,2.913-0.186c0.592,0.917,1.076,2.48,0.673,3.354c-1.125,2.444-2.519,4.831-4.183,6.944
			c-2.292,2.913-4.881,5.6-7.454,8.277c-0.547,0.569-1.57,0.68-2.852,1.193c0.458-4.091,5.496-5.333,4.222-9.548
			c-0.951-3.145,0.784-7.168-3.456-9.214C92.501,105.887,92.539,105.636,92.575,105.385z"/>
		<path fill-rule="evenodd" clip-rule="evenodd" d="M492.377,336.461c-1.263,1.261-2.045,2.661-3.11,2.928
			c-1.03,0.257-2.718-0.316-3.466-1.126c-1.263-1.368-2.013-1.616-3.156-0.04c-0.427,0.589-1.091,1.259-1.736,1.369
			c-0.73,0.124-1.561-0.338-2.347-0.545c0.389-0.642,0.662-1.404,1.188-1.898c1.463-1.372,3.664-2.38,4.321-4.029
			c0.401-1.009-1.435-2.985-2.41-4.429c-0.405-0.599-1.19-0.941-1.641-1.685c2.211-0.462,4.368-3.087,6.267,0.329
			c0.117,0.21,1.659-0.435,2.555-0.579c1.143-0.184,2.329-0.446,3.439-0.281c0.36,0.054,0.536,1.344,0.917,2.405
			c-3.242-0.253-5.104,0.817-5.244,3.739C487.821,335.425,488.227,335.758,492.377,336.461z"/>
		<path fill-rule="evenodd" clip-rule="evenodd" d="M336.188,414.883c0-1.928,0-3.856,0-5.784c0.853-2.118,0.853-2.118,2.223-0.936
			c0,2.843,0.016,5.091-0.007,7.337c-0.012,1.166-0.092,2.33-0.141,3.495c-0.717-0.142-1.979-0.153-2.051-0.451
			c-0.253-1.051-0.098-2.2-0.098-3.313C336.139,415.115,336.163,414.999,336.188,414.883z"/>
		<path fill-rule="evenodd" clip-rule="evenodd" d="M336.546,310.1c-0.286-0.929-1.065-2.105-0.75-2.729
			c0.566-1.117,1.483-1.786-0.04-2.915c-0.352-0.26-0.068-1.695,0.277-2.421c0.138-0.289,1.501-0.408,1.838-0.098
			c0.578,0.533,1.021,1.441,1.104,2.236c0.135,1.296,0.048,2.646-0.165,3.937c-0.115,0.694-0.689,1.313-1.057,1.966
			C337.351,310.084,336.948,310.092,336.546,310.1z"/>
		<path fill-rule="evenodd" clip-rule="evenodd" d="M336.792,353.872c-0.417-1.114-0.806-1.998-1.016-2.924
			c-0.024-0.108,0.926-0.595,1.443-0.628c0.539-0.035,1.436,0.124,1.575,0.452c0.22,0.521-0.046,1.254-0.135,1.894
			c-0.101,0.719-0.33,1.434-0.327,2.149c0.004,0.849,0.198,1.697,0.309,2.545c-0.938-0.093-1.877-0.185-2.815-0.276
			c0.189-0.81,0.35-1.626,0.58-2.423C336.514,354.285,336.753,353.948,336.792,353.872z"/>
		<path fill-rule="evenodd" clip-rule="evenodd" d="M336.81,379.938c-0.264-0.864-1.019-2.073-0.699-2.527
			c0.953-1.355,1.364-2.298-0.225-3.447c-0.302-0.218-0.183-1.72-0.009-1.77c0.811-0.233,1.783-0.378,2.538-0.107
			c0.326,0.117,0.608,1.691,0.318,1.958c-1.35,1.236-1.293,2.148-0.031,3.433c0.323,0.328-0.266,1.553-0.435,2.366
			C337.781,379.875,337.296,379.906,336.81,379.938z"/>
		<path fill-rule="evenodd" clip-rule="evenodd" d="M336.632,402.089c-0.078-0.204-0.181-0.378-0.21-0.563
			c-0.13-0.823-0.24-1.649-0.356-2.476c0.759-0.057,1.517-0.114,2.276-0.172c-0.002,0.899-0.043,1.802,0.009,2.699
			c0.038,0.661,0.294,1.319,0.275,1.975c-0.023,0.789-0.067,1.674-0.45,2.307c-0.147,0.244-1.699,0.103-1.83-0.2
			c-0.314-0.727-0.218-1.655-0.177-2.497C336.187,402.793,336.473,402.438,336.632,402.089z"/>
		<path fill-rule="evenodd" clip-rule="evenodd" d="M166.884,173.114c-1.74,0.416-2.651,0.714-3.585,0.834
			c-0.976,0.126-1.986,0.187-2.958,0.073c-0.674-0.079-1.308-0.499-1.96-0.766c0.377-0.533,0.71-1.482,1.139-1.527
			c1.784-0.189,3.598-0.151,5.397-0.084C165.285,171.659,165.636,172.157,166.884,173.114z"/>
		<path fill-rule="evenodd" clip-rule="evenodd" d="M338.234,310.729c-0.059,1.095-0.004,2.222-0.282,3.258
			c-0.051,0.188-1.474,0.006-2.262-0.005c0.266-1.154,0.531-2.309,0.797-3.462C337.069,310.59,337.652,310.659,338.234,310.729z"/>
		<path fill-rule="evenodd" clip-rule="evenodd" d="M188.53,173.267c-1.148,0.289-2.296,0.579-3.445,0.868
			c0.103-0.852-0.056-2.24,0.362-2.443c0.805-0.392,1.937-0.114,2.932-0.114C188.43,172.14,188.48,172.703,188.53,173.267z"/>
		<path fill-rule="evenodd" clip-rule="evenodd" d="M337.289,331.362c0.783,1.443,1.535,2.231,1.518,3.001
			c-0.013,0.546-1.011,1.363-1.676,1.488c-0.393,0.074-1.437-0.997-1.401-1.498C335.787,333.549,336.495,332.79,337.289,331.362z"/>
		<path fill-rule="evenodd" clip-rule="evenodd" d="M337.867,367.14c0.28,1.071,0.56,2.143,0.839,3.215
			c-0.982-0.081-1.964-0.163-2.946-0.245c0.289-0.999,0.578-1.998,0.868-2.997C337.041,367.121,337.454,367.13,337.867,367.14z"/>
		<path fill-rule="evenodd" clip-rule="evenodd" d="M336.963,288.444c-0.743-1.322-1.581-2.148-1.43-2.705
			c0.21-0.769,1.167-1.332,1.804-1.983c0.492,0.649,1.401,1.32,1.369,1.943C338.668,286.45,337.831,287.16,336.963,288.444z"/>
		<path fill-rule="evenodd" clip-rule="evenodd" d="M101.709,169.945c1.051,1.301,1.583,1.958,2.115,2.617
			c-0.027,0.317-0.053,0.635-0.08,0.954c-1.085,0-2.17,0-3.255,0C100.836,172.498,101.185,171.48,101.709,169.945z"/>
		<path fill-rule="evenodd" clip-rule="evenodd" d="M175.037,173.543c-1.04,0.146-2.081,0.292-3.121,0.437
			c-0.038-0.681-0.076-1.362-0.113-2.043c1.034,0,2.068,0,3.103,0C174.949,172.472,174.993,173.008,175.037,173.543z"/>
		<path fill-rule="evenodd" clip-rule="evenodd" d="M337.053,292.768c-0.903-1.782-1.381-2.723-2.061-4.063c1.544,0,2.535,0,4.01,0
			C338.368,290.025,337.928,290.942,337.053,292.768z"/>
		<path fill-rule="evenodd" clip-rule="evenodd" d="M335.241,298.151c0.999-0.247,1.999-0.494,2.999-0.741
			c0.054,0.761,0.313,2.117,0.125,2.183c-0.89,0.307-1.9,0.262-2.869,0.343C335.411,299.341,335.326,298.746,335.241,298.151z"/>
		<path fill-rule="evenodd" clip-rule="evenodd" d="M201.781,172.836c-0.914,0.624-1.616,1.452-2.074,1.333
			c-0.678-0.174-1.183-1.02-1.762-1.58c0.642-0.498,1.243-1.294,1.938-1.388C200.347,171.14,200.946,172.078,201.781,172.836z"/>
		<path fill-rule="evenodd" clip-rule="evenodd" d="M138.47,170.956c-0.181,0.957-0.204,1.996-0.632,2.824
			c-0.144,0.277-1.325,0.017-2.032,0.001c0.428-1.075,0.856-2.15,1.285-3.226C137.55,170.689,138.01,170.823,138.47,170.956z"/>
		<path fill-rule="evenodd" clip-rule="evenodd" d="M177.959,170.034c0.542,1.309,1.138,2.078,1.053,2.762
			c-0.064,0.514-1.159,1.388-1.518,1.269c-0.619-0.206-1.464-1.106-1.408-1.63C176.158,171.759,177.021,171.166,177.959,170.034z"/>
		<path fill-rule="evenodd" clip-rule="evenodd" d="M338.277,324.211c-0.077,1.189-0.154,2.378-0.232,3.566
			c-0.301,0.042-0.602,0.085-0.901,0.127c-0.616-0.696-1.232-1.394-1.932-2.184c0.732-0.622,1.313-1.114,1.894-1.608
			C337.496,324.146,337.887,324.179,338.277,324.211z"/>
		<path fill-rule="evenodd" clip-rule="evenodd" fill="#FFFFFF" d="M334.063,79.165c6.962,0.643,13.694,0.483,20,2.044
			c8.093,2.002,16.333,4.478,23.619,8.403c9.672,5.21,18.967,11.406,26.602,19.546c3.75,3.999,7.271,8.258,10.491,12.693
			c3.122,4.301,6.278,8.732,8.42,13.551c2.778,6.251,4.962,12.841,6.664,19.474c1.489,5.802,2.486,11.843,2.737,17.82
			c0.283,6.717,0.051,13.569-0.993,20.2c-1.159,7.362-3.117,14.66-5.438,21.753c-1.526,4.665-3.89,9.198-6.626,13.291
			c-4.479,6.7-9.407,13.123-14.478,19.396c-2.032,2.515-4.816,4.496-7.479,6.413c-5.073,3.652-9.956,7.843-15.561,10.408
			c-6.621,3.03-13.147,6.366-20.499,8.014c-8.189,1.836-16.222,3.28-24.664,3.611c-5.45,0.213-10.758-0.822-16.152-0.474
			c-1.278,0.083-2.611-0.693-3.921-1.067c-5.503-1.573-11.203-2.669-16.462-4.834c-7.021-2.892-13.921-6.238-20.463-10.086
			c-6.189-3.641-11.563-8.463-16.713-13.581c-5.179-5.145-9.124-11.044-12.876-17.169c-5.638-9.207-9.756-19.085-11.798-29.654
			c-1.37-7.092-2.491-14.379-2.422-21.567c0.103-10.755,1.405-21.418,5.185-31.738c3.104-8.476,6.901-16.506,12.162-23.768
			c4.2-5.798,8.25-11.785,14.167-16.149c3.333-2.458,6.271-5.462,9.66-7.83c3.524-2.463,7.58-4.182,11.048-6.713
			c7.705-5.626,16.918-7.351,25.713-9.786C320.501,79.562,327.583,79.802,334.063,79.165z M364.718,173.061
			c-0.304-0.109-0.607-0.218-0.911-0.328c0.963-3.316,1.926-6.633,3.012-10.375c-4.23-0.021-7.382,0.075-10.648,3.003
			c-6.435,5.766-8.585,12.47-7.048,20.675c0.488,2.61,1.808,3.808,3.61,3.466c0.03-0.193,0.102-0.392,0.081-0.579
			c-0.054-0.494-0.128-0.987-0.229-1.472c-1.801-8.546,0.494-15.858,6.693-21.946c0.501-0.491,1.384-0.593,2.09-0.875
			c0.254,0.762,0.839,1.589,0.702,2.273c-0.462,2.303-1.142,4.565-1.809,6.822c-0.844,2.847-1.841,5.651-2.577,8.524
			c-0.165,0.642,0.479,1.491,0.751,2.245c0.819-0.385,1.744-0.645,2.416-1.206c0.354-0.296,0.197-1.146,0.394-1.701
			c1.197-3.375,3.267-5.982,6.737-7.926c0.104,1.105,0.335,1.738,0.185,2.262c-0.543,1.883-1.39,3.694-1.767,5.603
			c-0.202,1.022,0.319,2.189,0.515,3.291c0.888-0.23,2.013-0.205,2.606-0.753c0.782-0.722,1.402-1.84,1.627-2.888
			c0.295-1.373,0.052-2.85,0.193-4.267c0.137-1.372,0.763-2.756,0.622-4.075c-0.108-1.013-0.882-2.228-1.731-2.785
			c-0.515-0.337-1.836,0.243-2.622,0.705C366.558,171.373,365.674,172.278,364.718,173.061z M386.282,178.437
			c0.442,1.46,0.53,2.613,1.101,3.43c0.814,1.167,2.012,2.962,2.989,2.926c1.821-0.065,3.325-1.457,3.08-3.317
			c-1.305-0.497-2.591-0.582-3.105-1.255c-2.029-2.658-1.359-5.247,1.491-6.971c0.949-0.573,1.811-1.291,2.712-1.943
			c-0.097-0.355-0.194-0.711-0.292-1.067c-1.133,0.099-2.405-0.091-3.363,0.371c-1.182,0.568-2.103,1.678-3.137,2.555
			c-0.235-0.092-0.471-0.184-0.706-0.275c0.76-2.396,1.629-4.764,2.223-7.2c0.229-0.935,0.159-2.626-0.356-2.909
			c-0.905-0.495-2.342-0.414-3.384-0.063c-0.395,0.133-0.347,1.675-0.442,2.581c-0.104,0.979,0.021,2.009-0.231,2.942
			c-1.385,5.134-2.854,10.245-4.354,15.575c0.582,0.236,1.792,0.885,1.894,0.742C383.65,182.81,384.738,180.944,386.282,178.437z
			 M337.188,180.284c0.969-1.253,1.794-2.325,2.623-3.394c1.975-2.545,1.001-7.428-1.696-8.502
			c-4.016-1.598-8.396,0.288-9.865,4.341c-0.167,0.461,0.255,1.151,0.441,1.722C330.021,178.526,333.785,179.065,337.188,180.284z
			 M388.957,190.775c5.534-0.063,12.314-8.538,12.999-14.735c0.659-5.972-1.022-11.894-4.142-12.655
			C400.26,173.985,397.833,183.11,388.957,190.775z M372.143,188.455c2.713-0.156,5.15-3.232,4.32-5.38
			c-0.261-0.675-1.133-1.261-1.858-1.54c-0.305-0.117-1.275,0.59-1.394,1.06C372.749,184.438,372.507,186.336,372.143,188.455z
			 M334.913,268.26c1.242,0.409,2.043,0.673,2.844,0.937c0.047-0.82,0.017-1.654,0.165-2.456c0.141-0.758,0.602-1.467,0.678-2.222
			c0.071-0.694-0.01-1.925-0.328-2.033c-0.749-0.257-1.73-0.124-2.5,0.166c-0.197,0.074-0.217,1.742,0.128,1.954
			C338.214,266.033,336.2,266.735,334.913,268.26z M259.994,172.305c0.808,0.841,1.772,1.993,1.87,1.924
			c1.636-1.16,3.111-0.321,4.698,0.03c0.399,0.088,1.071-1.058,1.617-1.636c-0.554-0.498-1.14-1.451-1.654-1.414
			C264.626,171.344,262.751,171.808,259.994,172.305z M339.31,232.602c-1.017-0.858-1.673-1.413-2.33-1.968
			c-0.559,0.711-1.517,1.402-1.554,2.139c-0.032,0.633,0.989,1.319,1.544,1.982C337.622,234.154,338.274,233.554,339.31,232.602z
			 M339.315,219.526c-1.047-0.978-1.605-1.81-2.357-2.06c-0.329-0.109-1.548,1.04-1.484,1.497c0.101,0.733,0.812,1.625,1.499,1.94
			C337.352,221.077,338.206,220.212,339.315,219.526z M339.268,259.006c-1.073-0.658-1.796-1.403-2.564-1.456
			c-0.427-0.028-1.436,1.29-1.294,1.671c0.287,0.767,1.179,1.309,1.821,1.942C337.794,260.565,338.358,259.969,339.268,259.006z
			 M339.495,246.624c-1.16-1.023-1.828-1.612-2.495-2.201c-0.584,0.684-1.332,1.299-1.661,2.089
			c-0.112,0.268,0.852,1.409,1.291,1.389C337.416,247.867,338.177,247.255,339.495,246.624z M339.223,215.322
			c-1.005-1.237-1.617-1.992-2.229-2.747c-0.545,0.56-1.539,1.136-1.52,1.676c0.023,0.686,0.756,1.525,1.411,1.934
			C337.212,216.39,338.045,215.787,339.223,215.322z M339.19,192.612c-1.043-0.733-1.638-1.449-2.301-1.519
			c-0.472-0.051-1.547,0.969-1.471,1.162c0.321,0.813,0.974,1.496,1.506,2.226C337.544,193.97,338.163,193.458,339.19,192.612z
			 M300.508,173.405c-1.304-1.01-1.917-1.857-2.497-1.835c-0.673,0.025-1.317,0.814-1.975,1.272c0.53,0.538,0.986,1.376,1.61,1.529
			C298.244,174.516,299.016,173.949,300.508,173.405z M336.513,226c0.514-0.105,1.027-0.21,1.542-0.314
			c-0.083-1.125-0.166-2.25-0.249-3.375c-0.702,0.172-1.404,0.343-2.106,0.515C335.97,223.883,336.241,224.941,336.513,226z
			 M339.008,205.813c-0.941-0.76-1.607-1.687-2.119-1.609c-0.612,0.093-1.521,1.053-1.515,1.626c0.009,0.61,0.9,1.636,1.479,1.689
			C337.41,207.571,338.061,206.613,339.008,205.813z"/>
		<path fill-rule="evenodd" clip-rule="evenodd" fill="#FFFFFF" d="M144.483,335.938c-4.007-0.003-5.842-2.428-5.314-6.017
			c0.771-5.25,3.435-9.267,8.221-11.612c2.714-1.329,5.149,0.818,5.35,4.458c0.287,5.197-2.125,9.557-6.243,12.784
			C145.827,336.078,144.618,335.917,144.483,335.938z"/>
		<path fill-rule="evenodd" clip-rule="evenodd" d="M364.718,173.061c0.956-0.782,1.84-1.688,2.892-2.308
			c0.786-0.462,2.107-1.042,2.622-0.705c0.85,0.557,1.623,1.772,1.731,2.785c0.141,1.319-0.485,2.704-0.622,4.075
			c-0.142,1.417,0.102,2.895-0.193,4.267c-0.225,1.048-0.845,2.166-1.627,2.888c-0.594,0.549-1.719,0.523-2.606,0.753
			c-0.195-1.102-0.717-2.269-0.515-3.291c0.377-1.909,1.224-3.72,1.767-5.603c0.15-0.523-0.08-1.156-0.185-2.262
			c-3.471,1.943-5.54,4.55-6.737,7.926c-0.196,0.556-0.039,1.405-0.394,1.701c-0.672,0.562-1.597,0.821-2.416,1.206
			c-0.271-0.754-0.916-1.603-0.751-2.245c0.736-2.873,1.733-5.677,2.577-8.524c0.667-2.257,1.347-4.519,1.809-6.822
			c0.137-0.684-0.448-1.511-0.702-2.273c-0.706,0.283-1.589,0.384-2.09,0.875c-6.199,6.088-8.494,13.4-6.693,21.946
			c0.102,0.485,0.176,0.979,0.229,1.472c0.021,0.188-0.051,0.386-0.083,0.579c-1.801,0.342-3.12-0.855-3.608-3.466
			c-1.537-8.206,0.613-14.909,7.048-20.675c3.267-2.928,6.418-3.024,10.648-3.003c-1.086,3.741-2.049,7.058-3.012,10.375
			C364.11,172.842,364.414,172.951,364.718,173.061z"/>
		<path fill-rule="evenodd" clip-rule="evenodd" d="M386.282,178.437c-1.544,2.507-2.632,4.374-3.882,6.123
			c-0.102,0.143-1.312-0.506-1.894-0.742c1.499-5.33,2.969-10.441,4.354-15.575c0.252-0.933,0.128-1.963,0.231-2.942
			c0.096-0.906,0.048-2.448,0.442-2.581c1.042-0.351,2.479-0.432,3.384,0.063c0.516,0.282,0.585,1.974,0.356,2.909
			c-0.594,2.436-1.463,4.804-2.223,7.2c0.235,0.092,0.471,0.184,0.706,0.275c1.034-0.877,1.955-1.987,3.137-2.555
			c0.958-0.461,2.23-0.272,3.363-0.371c0.098,0.356,0.195,0.712,0.292,1.067c-0.901,0.652-1.763,1.37-2.712,1.943
			c-2.851,1.724-3.521,4.313-1.491,6.971c0.515,0.673,1.801,0.758,3.105,1.255c0.245,1.86-1.259,3.251-3.08,3.317
			c-0.978,0.036-2.175-1.759-2.989-2.926C386.813,181.049,386.725,179.896,386.282,178.437z"/>
		<path fill-rule="evenodd" clip-rule="evenodd" d="M337.188,180.284c-3.402-1.218-7.166-1.757-8.497-5.833
			c-0.187-0.571-0.608-1.261-0.441-1.722c1.469-4.053,5.85-5.939,9.865-4.341c2.697,1.074,3.671,5.957,1.696,8.502
			C338.981,177.958,338.156,179.03,337.188,180.284z"/>
		<path fill-rule="evenodd" clip-rule="evenodd" d="M388.957,190.775c8.876-7.666,11.303-16.79,8.857-27.39
			c3.119,0.761,4.801,6.683,4.142,12.655C401.271,182.237,394.491,190.712,388.957,190.775z"/>
		<path fill-rule="evenodd" clip-rule="evenodd" d="M372.143,188.455c0.364-2.118,0.606-4.016,1.068-5.86
			c0.118-0.47,1.089-1.177,1.394-1.06c0.726,0.279,1.598,0.864,1.858,1.54C377.293,185.222,374.855,188.298,372.143,188.455z"/>
		<path fill-rule="evenodd" clip-rule="evenodd" d="M334.913,268.26c1.287-1.524,3.301-2.227,0.986-3.654
			c-0.345-0.212-0.325-1.88-0.128-1.954c0.77-0.29,1.751-0.423,2.5-0.166c0.318,0.108,0.399,1.339,0.328,2.033
			c-0.076,0.755-0.537,1.464-0.678,2.222c-0.148,0.802-0.118,1.636-0.165,2.456C336.956,268.933,336.155,268.669,334.913,268.26z"/>
		<path fill-rule="evenodd" clip-rule="evenodd" d="M259.994,172.305c2.757-0.497,4.632-0.961,6.531-1.097
			c0.515-0.037,1.101,0.916,1.654,1.414c-0.546,0.579-1.218,1.724-1.617,1.636c-1.587-0.351-3.063-1.19-4.698-0.03
			C261.767,174.298,260.802,173.146,259.994,172.305z"/>
		<path fill-rule="evenodd" clip-rule="evenodd" d="M339.31,232.602c-1.035,0.952-1.688,1.553-2.34,2.153
			c-0.555-0.663-1.576-1.349-1.544-1.982c0.037-0.737,0.995-1.428,1.554-2.139C337.637,231.188,338.293,231.743,339.31,232.602z"/>
		<path fill-rule="evenodd" clip-rule="evenodd" d="M339.315,219.526c-1.109,0.687-1.964,1.551-2.343,1.377
			c-0.688-0.315-1.398-1.207-1.499-1.94c-0.063-0.457,1.155-1.605,1.484-1.497C337.71,217.716,338.269,218.548,339.315,219.526z"/>
		<path fill-rule="evenodd" clip-rule="evenodd" d="M339.268,259.006c-0.909,0.963-1.474,1.56-2.037,2.157
			c-0.643-0.634-1.534-1.176-1.821-1.942c-0.142-0.381,0.867-1.699,1.294-1.671C337.472,257.603,338.194,258.348,339.268,259.006z"
			/>
		<path fill-rule="evenodd" clip-rule="evenodd" d="M339.495,246.624c-1.318,0.631-2.079,1.243-2.865,1.277
			c-0.439,0.02-1.403-1.121-1.291-1.389c0.329-0.79,1.077-1.405,1.661-2.089C337.667,245.012,338.335,245.601,339.495,246.624z"/>
		<path fill-rule="evenodd" clip-rule="evenodd" d="M339.223,215.322c-1.178,0.464-2.011,1.068-2.338,0.863
			c-0.655-0.409-1.388-1.249-1.411-1.934c-0.02-0.54,0.975-1.116,1.52-1.676C337.605,213.33,338.218,214.085,339.223,215.322z"/>
		<path fill-rule="evenodd" clip-rule="evenodd" d="M339.19,192.612c-1.027,0.847-1.646,1.358-2.266,1.869
			c-0.532-0.73-1.185-1.412-1.506-2.226c-0.076-0.193,0.999-1.213,1.471-1.162C337.553,191.163,338.147,191.878,339.19,192.612z"/>
		<path fill-rule="evenodd" clip-rule="evenodd" d="M300.508,173.405c-1.492,0.544-2.264,1.111-2.861,0.965
			c-0.624-0.153-1.08-0.991-1.61-1.529c0.657-0.458,1.302-1.247,1.975-1.272C298.591,171.548,299.204,172.396,300.508,173.405z"/>
		<path fill-rule="evenodd" clip-rule="evenodd" d="M336.513,226c-0.271-1.058-0.543-2.116-0.813-3.174
			c0.702-0.171,1.404-0.343,2.106-0.515c0.083,1.125,0.166,2.25,0.249,3.375C337.54,225.79,337.026,225.895,336.513,226z"/>
		<path fill-rule="evenodd" clip-rule="evenodd" d="M339.008,205.813c-0.947,0.799-1.598,1.757-2.155,1.707
			c-0.578-0.053-1.47-1.079-1.479-1.689c-0.007-0.574,0.902-1.533,1.515-1.626C337.4,204.127,338.066,205.054,339.008,205.813z"/>
	</g>
</g>
</svg>
