<?xml version="1.0" encoding="utf-8"?>
<!-- Generator: Adobe Illustrator 16.0.0, SVG Export Plug-In . SVG Version: 6.00 Build 0)  -->
<!DOCTYPE svg PUBLIC "-//W3C//DTD SVG 1.1//EN" "http://www.w3.org/Graphics/SVG/1.1/DTD/svg11.dtd">
<svg version="1.1" id="Layer_1" xmlns="http://www.w3.org/2000/svg" xmlns:xlink="http://www.w3.org/1999/xlink" x="0px" y="0px"
	 width="500px" height="500px" viewBox="0 0 500 500" enable-background="new 0 0 500 500" xml:space="preserve">
<g>
	<g>
		<path fill-rule="evenodd" clip-rule="evenodd" fill="#FFFFFF" d="M0.669,460.508c0-139.893,0-279.785,0-419.678
			c166.667,0,333.333,0,500,0c0,139.893,0,279.786,0,419.678C334.003,460.508,167.336,460.508,0.669,460.508z M222.788,386.381
			c7.65-0.951,14.797-2.374,21.982-2.595c8.342-0.257,15.703-3.735,23.514-5.718c1.379-0.351,2.809-0.633,4.087-1.224
			c4.16-1.924,8.237-4.027,12.397-5.952c1.679-0.775,3.885-0.821,5.168-1.966c4.744-4.228,11.023-6.182,15.458-10.884
			c1.856-1.97,4.688-2.994,6.67-4.877c4.794-4.557,9.454-9.267,13.965-14.104c3.646-3.91,7.35-7.851,10.381-12.227
			c3.154-4.553,5.643-9.587,8.205-14.523c1.2-2.314,1.769-4.95,2.841-7.343c1.638-3.656,3.829-7.104,5.114-10.87
			c1.594-4.669,2.313-9.631,3.756-14.36c1.92-6.295,2.462-12.689,2.562-19.226c0.053-3.466,0.981-6.919,1.447-9.936
			c3.302,0,5.596-0.024,7.889,0.005c8.371,0.104,16.742,0.266,25.113,0.331c7.8,0.062,15.602,0.048,23.401,0.031
			c10.259-0.021,20.518-0.043,30.775-0.182c0.857-0.012,1.704-0.901,2.556-1.383c-0.15-0.37-0.301-0.74-0.451-1.11
			c-1.207,0-2.414,0-3.621,0c-27.654,0.003-55.309-0.014-82.963,0.038c-2.866,0.005-4.145-0.794-4.147-4.001
			c-0.008-11.436-0.28-22.862-4.697-33.721c-1.326-3.26-2.249-6.685-3.33-10.043c-2.745-8.527-6.487-16.619-11.458-24.041
			c-3.366-5.027-7.765-9.377-10.991-14.48c-2.671-4.223-8.211-6.364-8.682-12.112c-0.017-0.192-0.489-0.35-0.753-0.52
			c-2.506-1.614-5.023-3.21-7.514-4.848c-1.112-0.731-2.198-1.511-3.248-2.329c-4.179-3.26-8.303-6.591-12.536-9.779
			c-0.809-0.609-2.217-0.433-3.006-1.054c-3.328-2.621-6.48-5.292-10.847-6.34c-3.398-0.816-7.014-2.005-9.724-4.082
			c-3.2-2.452-6.738-2.982-10.313-3.814c-2.853-0.663-6.21-0.363-8.536-1.799c-3.76-2.322-7.614-2.625-11.745-2.968
			c-6.586-0.547-13.133-1.562-19.821-2.394c0.037,0.042-0.095-0.038-0.095-0.119c-0.075-13.154-0.171-26.307-0.146-39.461
			c0.002-1.055,0.577-2.436,1.362-3.104c2.825-2.401,2.31-5.356,1.945-8.716c-1.503,0.203-2.834,0.382-4.165,0.561
			c0.341,0.191,0.683,0.382,1.024,0.574c-0.403,2.504,0.039,5.995-1.431,7.252c-1.689,1.445-0.937,5.978-4.97,4.656
			c-0.391-4.271-0.77-8.43-1.132-12.399c-2.853,0-5.048,0-6.543,0c0.943,1.98,1.878,3.827,2.698,5.724
			c0.3,0.694,0.22,1.548,0.496,2.259c1.824,4.695,3.262,9.312-1.723,13.107c-0.54,0.41-0.981,0.965-1.555,1.309
			c-2.054,1.234-2.236,1.832-0.846,5.274c4.113-3.865,7.973-7.492,11.381-10.695c0,10.6,0,22.304,0,33.952
			c-6.974,0.813-13.774,1.594-20.57,2.412c-0.741,0.089-1.475,0.342-2.179,0.607c-2.246,0.847-4.415,1.989-6.727,2.546
			c-3.061,0.736-6.256,0.902-9.34,1.563c-1.72,0.368-3.388,1.126-4.979,1.913c-2.941,1.454-5.749,3.187-8.726,4.556
			c-2.224,1.023-4.708,1.483-6.925,2.516c-2.018,0.94-3.836,2.31-5.739,3.496c-4.417,2.753-8.913,5.392-13.216,8.313
			c-2.243,1.521-4.162,3.524-6.2,5.34c-4.086,3.642-8.562,6.949-12.13,11.045c-4.809,5.52-9.058,11.552-13.281,17.551
			c-4.561,6.479-8.693,13.242-11.589,20.678c-0.668,1.716-1.488,3.373-2.184,5.078c-1.274,3.124-2.754,6.189-3.706,9.411
			c-1.702,5.766-3.287,11.585-4.513,17.467c-0.811,3.89-1.072,7.919-1.284,11.902c-0.209,3.925-0.046,7.87-0.046,11.75
			c-18.878,0-36.941-0.001-55.005,0.002c-1.723,0.001-3.663-0.384-4.275,2.916c4.618,0.429,9.103,1.122,13.598,1.201
			c7.479,0.131,14.897,0.621,22.45-0.884c6.125-1.221,12.659-0.441,19.011-0.435c2.194,0.002,3.97,0.983,4.15,3.439
			c0.565,7.682,0.912,15.338,3.073,22.858c1.878,6.535,2.908,13.294,5.808,19.551c2.545,5.491,4.608,11.211,7.244,16.655
			c1.535,3.171,3.655,6.088,5.734,8.959c2.736,3.778,6.483,7.04,8.354,11.176c2.42,5.349,6.993,8.518,10.706,12.393
			c4.836,5.047,9.937,10.146,16.466,13.261c0.096,0.045,0.196,0.087,0.281,0.148c3.588,2.615,6.989,5.554,10.808,7.769
			c4.838,2.806,9.881,5.369,15.082,7.409c7.021,2.754,14.128,5.626,21.468,7.141c9.171,1.892,18.393,4.296,27.955,3.566
			c0.805-0.062,1.649,0.397,2.976,0.747c0,16.337,0,32.576,0,48.814c0.424,0.053,0.848,0.106,1.271,0.16
			c0.366-1.48,1.04-2.959,1.048-4.441c0.058-9.7-0.036-19.401-0.065-29.103C222.774,396.411,222.788,391.216,222.788,386.381z
			 M483.207,253.216c-3.025,0.346-4.316-0.755-4.597-3.684c-0.356-3.724,1.385-6.291,4.226-6.695
			c1.345-0.192,2.601-1.007,4.14-1.639c-2.874-3.25-4.087-3.396-6.592-0.924c-1.557,1.537-2.292,2.052-3.921-0.203
			c-2.112-2.923-5.293-2.333-6.467,0.455c1.299,1.221,3.134,2.146,3.61,3.536c1.859,5.424,0.278,8.169-5.066,10.619
			c-0.771,0.354-0.902,2.1-1.329,3.2c0.825,0.292,2.082,1.078,2.406,0.795c1.796-1.563,3.364-3.389,5.423-5.559
			c0.892,1.294,1.894,2.749,3.207,4.655C481.379,258.516,483.109,257.249,483.207,253.216z"/>
		<path fill-rule="evenodd" clip-rule="evenodd" d="M222.788,386.381c0,4.835-0.013,10.03,0.002,15.225
			c0.03,9.701,0.123,19.402,0.065,29.103c-0.009,1.482-0.682,2.961-1.048,4.441c-0.423-0.054-0.847-0.107-1.271-0.16
			c0-16.238,0-32.478,0-48.814c-1.327-0.35-2.171-0.809-2.976-0.747c-9.562,0.729-18.783-1.675-27.955-3.566
			c-7.339-1.515-14.447-4.387-21.468-7.141c-5.201-2.04-10.244-4.604-15.082-7.409c-3.819-2.215-7.22-5.153-10.808-7.769
			c-0.085-0.062-0.186-0.104-0.281-0.148c-6.529-3.115-11.63-8.214-16.466-13.261c-3.713-3.875-8.286-7.044-10.706-12.393
			c-1.871-4.136-5.618-7.397-8.354-11.176c-2.079-2.871-4.199-5.788-5.734-8.959c-2.636-5.444-4.699-11.164-7.244-16.655
			c-2.9-6.257-3.93-13.016-5.808-19.551c-2.161-7.521-2.508-15.177-3.073-22.858c-0.18-2.456-1.956-3.438-4.15-3.439
			c-6.352-0.007-12.886-0.786-19.011,0.435c-7.552,1.505-14.97,1.015-22.45,0.884c-4.496-0.079-8.98-0.772-13.598-1.201
			c0.613-3.3,2.552-2.915,4.275-2.916c18.063-0.003,36.127-0.002,55.005-0.002c0-3.88-0.163-7.825,0.046-11.75
			c0.212-3.982,0.473-8.012,1.284-11.902c1.226-5.882,2.811-11.702,4.513-17.467c0.951-3.222,2.431-6.288,3.706-9.411
			c0.696-1.705,1.516-3.362,2.184-5.078c2.896-7.437,7.028-14.199,11.589-20.678c4.223-6,8.473-12.031,13.281-17.551
			c3.568-4.096,8.043-7.403,12.13-11.045c2.038-1.816,3.958-3.819,6.2-5.34c4.304-2.92,8.799-5.559,13.216-8.313
			c1.903-1.186,3.721-2.556,5.739-3.496c2.218-1.033,4.701-1.493,6.925-2.516c2.977-1.369,5.785-3.102,8.726-4.556
			c1.591-0.787,3.259-1.545,4.979-1.913c3.084-0.66,6.279-0.826,9.34-1.563c2.312-0.557,4.481-1.699,6.727-2.546
			c0.704-0.266,1.438-0.519,2.179-0.607c6.796-0.818,13.596-1.6,20.57-2.412c0-11.648,0-23.352,0-33.952
			c-3.408,3.203-7.268,6.83-11.381,10.695c-1.39-3.442-1.208-4.04,0.846-5.274c0.573-0.344,1.015-0.899,1.555-1.309
			c4.985-3.796,3.547-8.412,1.723-13.107c-0.276-0.71-0.196-1.565-0.496-2.259c-0.82-1.897-1.754-3.744-2.698-5.724
			c1.495,0,3.69,0,6.543,0c0.362,3.969,0.742,8.128,1.132,12.399c4.034,1.322,3.281-3.21,4.97-4.656
			c1.469-1.258,1.027-4.748,1.431-7.252c-0.341-0.191-0.683-0.382-1.024-0.574c1.331-0.179,2.662-0.358,4.165-0.561
			c0.365,3.359,0.88,6.314-1.945,8.716c-0.786,0.667-1.36,2.049-1.362,3.104c-0.026,13.154,0.071,26.307,0.146,39.461
			c0,0.081,0.132,0.161,0.095,0.119c6.688,0.833,13.234,1.847,19.821,2.394c4.13,0.343,7.984,0.646,11.745,2.968
			c2.326,1.436,5.684,1.136,8.536,1.799c3.575,0.832,7.113,1.362,10.313,3.814c2.71,2.077,6.325,3.266,9.724,4.082
			c4.366,1.048,7.519,3.72,10.847,6.34c0.789,0.622,2.197,0.445,3.006,1.054c4.233,3.188,8.357,6.519,12.536,9.779
			c1.05,0.818,2.136,1.598,3.248,2.329c2.49,1.638,5.008,3.234,7.514,4.848c0.264,0.17,0.736,0.328,0.753,0.52
			c0.471,5.748,6.011,7.889,8.682,12.112c3.227,5.103,7.625,9.453,10.991,14.48c4.971,7.421,8.713,15.514,11.458,24.041
			c1.081,3.358,2.004,6.784,3.33,10.043c4.417,10.858,4.689,22.285,4.697,33.721c0.003,3.207,1.281,4.006,4.147,4.001
			c27.654-0.051,55.309-0.034,82.963-0.038c1.207,0,2.414,0,3.621,0c0.15,0.37,0.301,0.74,0.451,1.11
			c-0.852,0.482-1.698,1.371-2.556,1.383c-10.258,0.139-20.517,0.16-30.775,0.182c-7.8,0.017-15.602,0.03-23.401-0.031
			c-8.371-0.065-16.742-0.227-25.113-0.331c-2.293-0.029-4.587-0.005-7.889-0.005c-0.466,3.017-1.395,6.47-1.447,9.936
			c-0.1,6.536-0.642,12.931-2.562,19.226c-1.442,4.729-2.162,9.691-3.756,14.36c-1.285,3.767-3.477,7.214-5.114,10.87
			c-1.072,2.393-1.641,5.028-2.841,7.343c-2.563,4.937-5.051,9.971-8.205,14.523c-3.031,4.376-6.734,8.316-10.381,12.227
			c-4.511,4.838-9.171,9.548-13.965,14.104c-1.981,1.883-4.813,2.907-6.67,4.877c-4.435,4.702-10.714,6.656-15.458,10.884
			c-1.283,1.145-3.489,1.19-5.168,1.966c-4.16,1.925-8.237,4.028-12.397,5.952c-1.278,0.591-2.708,0.873-4.087,1.224
			c-7.811,1.982-15.172,5.461-23.514,5.718C237.585,384.007,230.438,385.43,222.788,386.381z M319.203,254.8
			c-1.524-4.978-5.109-3.958-8.304-3.888c-1.782,0.038-3.565,0.133-5.349,0.131c-26.051-0.033-52.103-0.079-78.154-0.118
			c-3.328-0.006-5.732,2.375-5.616,5.667c0.243,6.874,0.726,13.745,0.78,20.621c0.074,9.34-0.144,18.683-0.274,28.023
			c-0.042,2.993-0.351,5.988-0.284,8.976c0.13,5.858,0.56,11.711,0.641,17.568c0.091,6.676-0.065,13.354-0.107,20.031
			c-0.053,8.516,0.067,17.036-0.214,25.544c-0.147,4.461-0.149,4.75,4.386,4.723c7.956-0.049,15.614-1.904,23.401-3.253
			c10.113-1.753,19.358-5.603,28.701-9.331c4.229-1.688,8.097-4.277,12.152-6.413c1.536-0.81,3.27-1.302,4.682-2.275
			c2.792-1.927,5.47-4.03,8.112-6.164c7.108-5.742,14.145-11.548,19.669-18.962c4.305-5.777,9.176-11.165,13.119-17.171
			c3.315-5.049,5.845-10.653,8.353-16.18c1.357-2.991,1.764-6.399,2.919-9.5c1.442-3.866,4.501-7.598,4.534-11.407
			c0.047-5.369,4.424-10.096,1.931-15.651c-0.16-0.358,0.511-1.082,0.781-1.642c0.325-0.671,0.894-1.343,0.91-2.024
			c0.091-3.652,0.043-7.308,0.043-10.95c-3.385-0.354-6.529-0.957-9.673-0.949c-5.527,0.014-11.052,0.447-16.58,0.616
			C325.942,250.938,321.767,249.835,319.203,254.8z M218.524,251.224c-14.653,0-28.471-0.064-42.287,0.062
			c-2.337,0.021-4.654,0.952-7.007,1.277c-1.047,0.145-2.178-0.08-3.236-0.302c-1.247-0.261-2.455-1.005-3.683-1.013
			c-10.181-0.063-20.364-0.021-30.546,0.046c-0.965,0.007-1.922,0.525-2.895,0.578c-2.724,0.149-5.555,0.676-8.157,0.141
			c-4.195-0.862-8.183-1.558-12.349,0.128c-1.36,0.55-3.087,0.468-4.605,0.303c-4.725-0.518-9.431-1.212-14.771-1.922
			c0,3.769-0.182,6.512,0.039,9.221c0.423,5.192,0.626,10.465,1.749,15.52c1.299,5.851,3.468,11.509,5.3,17.238
			c1.104,3.451,2.027,6.995,3.501,10.287c1.515,3.384,3.621,6.501,5.433,9.754c1.861,3.343,3.404,6.9,5.584,10.016
			c2.875,4.108,6.1,7.997,9.423,11.761c3.996,4.525,7.974,9.134,12.474,13.126c4.603,4.083,9.764,7.555,14.801,11.125
			c4.175,2.959,8.32,6.072,12.849,8.392c5.396,2.763,11.111,4.969,16.833,7.008c4.768,1.699,9.717,2.923,14.639,4.14
			c3.446,0.853,6.969,1.427,10.481,1.968c4.814,0.74,9.642,1.424,14.483,1.946c2.298,0.247,3.693-0.687,3.631-3.426
			c-0.165-7.243-0.241-14.492-0.123-21.735c0.115-7.028-0.5-14.043-0.136-21.079c0.243-4.679-1.98-9.379,0.08-14.094
			c0.208-0.475-0.258-1.249-0.427-1.88c-0.355-1.333-1.073-2.683-1-3.99c0.112-2.025,1.159-4.034,1.094-6.026
			c-0.117-3.624-0.868-7.223-1.142-10.847c-0.157-2.096,0.171-4.223,0.16-6.334c-0.037-7.433-0.149-14.866-0.188-22.3
			C218.498,263.938,218.524,257.566,218.524,251.224z M88.09,248.348c1.794,0,2.883,0,3.973,0
			c34.237-0.007,68.475-0.014,102.711-0.021c7.027-0.001,14.055,0.053,21.081-0.062c0.962-0.016,2.72-0.833,2.742-1.341
			c0.26-5.81,0.654-11.663,0.223-17.444c-0.603-8.08-0.287-16.163-0.413-24.226c-0.415-26.646-0.176-53.301-0.187-79.952
			c-0.002-3.73,0-7.462,0-12.028c-2.233,1.112-3.542,2.196-4.973,2.397c-4.679,0.656-9.408,0.957-14.11,1.46
			c-3.943,0.422-7.878,0.929-11.813,1.423c-0.417,0.052-0.821,0.252-1.215,0.421c-3.783,1.625-7.531,3.336-11.355,4.856
			c-2.355,0.937-4.944,1.333-7.218,2.416c-4.047,1.926-7.91,4.236-11.904,6.279c-1.022,0.523-2.492,0.348-3.33,1.023
			c-2.231,1.796-4.131,4.001-6.352,5.813c-1.864,1.521-4.038,2.657-5.993,4.076c-1.667,1.21-3.231,2.565-4.817,3.884
			c-2.338,1.944-4.786,3.781-6.949,5.906c-2.579,2.534-4.973,5.267-7.322,8.021c-1.994,2.337-3.802,4.833-5.703,7.25
			c-2.176,2.767-4.673,5.339-6.471,8.333c-2.466,4.105-4.574,8.452-6.532,12.831c-2.854,6.38-5.933,12.728-7.995,19.374
			c-1.968,6.346-2.757,13.058-4.065,19.608c-0.108,0.544-0.267,1.084-0.319,1.634C89.227,236.104,88.688,241.934,88.09,248.348z
			 M222.043,115.388c0,43.783,0,88.024,0,132.265c0.514,0.35,1.027,0.7,1.541,1.051c1.106-1.63,2.044-3.414,3.353-4.861
			c3.059-3.384,6.261-6.642,9.476-9.881c1.684-1.696,3.617-3.149,5.263-4.878c4.248-4.46,8.394-9.017,12.59-13.525
			c1.172-1.258,2.33-2.535,3.575-3.718c4.49-4.271,9.422-8.158,13.415-12.847c4.427-5.196,10.159-9.048,13.827-15.132
			c2.404-3.989,6.926-6.712,10.544-9.953c1.295-1.16,2.943-1.989,4.028-3.301c1.305-1.579,1.276-3.146-1.394-3.249
			c-1.222-0.047-2.457,0.141-3.674,0.057c-1.14-0.079-2.266-0.375-3.397-0.576c2.022-1.618,4.045-2.273,5.938-3.196
			c1.704-0.832,3.249-2.766,4.892-2.799c4.761-0.095,7.706-3.886,11.822-5.204c0.666-0.212,0.654-2.539,0.955-3.888
			c-3.312,0.366-2.873-3.75-5.589-4.559c-2.354-0.702-4.393-2.635-6.421-4.215c-4.05-3.153-7.988-6.449-12.004-9.647
			c-0.307-0.245-0.895-0.103-1.287-0.284c-3.392-1.56-6.775-3.142-10.15-4.74c-2.198-1.041-4.312-2.298-6.581-3.144
			c-4.278-1.593-8.632-2.99-12.974-4.411c-3.735-1.223-7.422-2.864-11.262-3.431c-6.093-0.899-12.294-1.075-18.452-1.519
			C227.513,115.618,224.942,115.534,222.043,115.388z M303.855,172.164c-0.352-0.214-0.704-0.429-1.056-0.643
			c-1.227,1.375-2.407,2.793-3.687,4.117c-5.113,5.289-10.255,10.55-15.39,15.818c-2.184,2.241-4.36,4.491-6.57,6.707
			c-3.304,3.309-6.704,6.523-9.932,9.903c-2.93,3.068-5.158,7.212-8.649,9.237c-4.381,2.542-6.374,7.036-10.307,9.874
			c-3.834,2.768-6.741,6.813-10.094,10.26c-3.21,3.3-6.47,6.553-10.276,10.401c2.001,0.208,3.347,0.471,4.691,0.471
			c25.969-0.002,51.939-0.027,77.909-0.071c3.335-0.005,7.111,1.088,8.358-2.995c2.01,1.149,3.626,2.805,5.344,2.919
			c5.437,0.362,10.912,0.15,16.372,0.155c5.084,0.004,10.167,0.001,15.783,0.001c-1.298-6.18,0.417-11.723-1.754-17.684
			c-1.969-5.407-1.427-11.778-3.744-17.483c-1.313-3.23-1.951-6.726-3.172-10.072c-1.673-4.586-2.922-9.249-5.826-13.28
			c-0.944-1.311-2.093-2.672-2.443-4.175c-1.229-5.259-4.395-9.319-7.597-13.419c-1.655-2.12-2.983-4.508-4.739-6.534
			c-2.415-2.789-5.073-5.37-7.7-7.967c-0.212-0.209-1.218-0.03-1.459,0.278c-1.001,1.279-1.986,2.605-2.726,4.044
			c-1.55,3.011-3.185,6.016-4.329,9.187c-1.198,3.321-4.307,5.886-3.906,9.893c0.032,0.328-1.692,0.83-3.103,1.485
			C303.855,178.542,303.855,175.354,303.855,172.164z"/>
		<path fill-rule="evenodd" clip-rule="evenodd" d="M483.207,253.216c-0.098,4.033-1.828,5.3-4.96,4.557
			c-1.313-1.906-2.315-3.361-3.207-4.655c-2.059,2.17-3.627,3.995-5.423,5.559c-0.324,0.283-1.581-0.503-2.406-0.795
			c0.427-1.101,0.559-2.847,1.329-3.2c5.345-2.45,6.926-5.195,5.066-10.619c-0.477-1.39-2.312-2.314-3.61-3.536
			c1.174-2.788,4.354-3.378,6.467-0.455c1.629,2.255,2.364,1.74,3.921,0.203c2.505-2.472,3.718-2.325,6.592,0.924
			c-1.539,0.632-2.795,1.446-4.14,1.639c-2.841,0.404-4.582,2.971-4.226,6.695C478.891,252.461,480.182,253.562,483.207,253.216z"/>
		<path fill-rule="evenodd" clip-rule="evenodd" fill="#FFFFFF" d="M319.203,254.8c2.563-4.965,6.739-3.861,10.558-3.979
			c5.528-0.169,11.053-0.603,16.58-0.616c3.144-0.008,6.288,0.596,9.673,0.949c0,3.643,0.048,7.298-0.043,10.95
			c-0.017,0.682-0.585,1.354-0.91,2.024c-0.271,0.56-0.941,1.283-0.781,1.642c2.493,5.556-1.884,10.282-1.931,15.651
			c-0.033,3.81-3.092,7.541-4.534,11.407c-1.155,3.101-1.562,6.509-2.919,9.5c-2.508,5.526-5.037,11.131-8.353,16.18
			c-3.943,6.006-8.814,11.394-13.119,17.171c-5.524,7.414-12.561,13.22-19.669,18.962c-2.643,2.134-5.32,4.237-8.112,6.164
			c-1.412,0.974-3.146,1.466-4.682,2.275c-4.056,2.136-7.923,4.726-12.152,6.413c-9.343,3.729-18.588,7.578-28.701,9.331
			c-7.787,1.349-15.445,3.204-23.401,3.253c-4.535,0.027-4.533-0.262-4.386-4.723c0.281-8.508,0.162-17.028,0.214-25.544
			c0.042-6.677,0.198-13.355,0.107-20.031c-0.081-5.857-0.511-11.71-0.641-17.568c-0.066-2.987,0.242-5.982,0.284-8.976
			c0.131-9.341,0.348-18.684,0.274-28.023c-0.054-6.876-0.537-13.747-0.78-20.621c-0.116-3.292,2.288-5.673,5.616-5.667
			c26.052,0.039,52.104,0.085,78.154,0.118c1.783,0.002,3.566-0.093,5.349-0.131C314.094,250.842,317.679,249.822,319.203,254.8z
			 M270.113,267.79c1.088,6.689,1.066,6.644-5.144,9.491c-0.65,0.298-1.08,1.523-1.2,2.376c-0.081,0.586,0.527,1.793,0.87,1.809
			c0.818,0.039,1.8-0.287,2.455-0.799c0.635-0.497,0.797-1.601,1.434-2.094c0.955-0.741,2.143-1.182,3.231-1.75
			c0.398,0.912,0.741,1.854,1.212,2.727c0.333,0.614,1.114,1.674,1.229,1.615c1.723-0.871,4.802-0.36,4.182-3.96
			c-4.018-0.704-3.443-3.916-3.285-6.699c0.155-2.717,2.035-3.798,5.051-3.521c-0.252-1.638-0.455-2.968-0.724-4.716
			c-2.041,1.383-3.699,2.507-5.612,3.804c-2.273-2.892-5.125-2.758-8.657-0.84C266.975,266.171,268.396,266.904,270.113,267.79z"/>
		<path fill-rule="evenodd" clip-rule="evenodd" fill="#FFFFFF" d="M218.524,251.224c0,6.343-0.027,12.715,0.007,19.087
			c0.039,7.434,0.151,14.867,0.188,22.3c0.011,2.111-0.317,4.238-0.16,6.334c0.273,3.624,1.024,7.223,1.142,10.847
			c0.064,1.992-0.982,4.001-1.094,6.026c-0.073,1.308,0.645,2.657,1,3.99c0.168,0.631,0.634,1.405,0.427,1.88
			c-2.06,4.715,0.163,9.415-0.08,14.094c-0.365,7.036,0.25,14.051,0.136,21.079c-0.119,7.243-0.042,14.492,0.123,21.735
			c0.062,2.739-1.333,3.673-3.631,3.426c-4.841-0.522-9.669-1.206-14.483-1.946c-3.512-0.541-7.035-1.115-10.481-1.968
			c-4.922-1.217-9.872-2.44-14.639-4.14c-5.722-2.039-11.438-4.245-16.833-7.008c-4.529-2.319-8.674-5.433-12.849-8.392
			c-5.037-3.57-10.198-7.042-14.801-11.125c-4.5-3.992-8.479-8.601-12.474-13.126c-3.323-3.764-6.547-7.652-9.423-11.761
			c-2.18-3.115-3.724-6.673-5.584-10.016c-1.812-3.253-3.918-6.37-5.433-9.754c-1.474-3.292-2.397-6.836-3.501-10.287
			c-1.832-5.729-4.001-11.388-5.3-17.238c-1.122-5.055-1.326-10.327-1.749-15.52c-0.221-2.709-0.039-5.452-0.039-9.221
			c5.34,0.71,10.045,1.404,14.771,1.922c1.518,0.165,3.245,0.247,4.605-0.303c4.166-1.686,8.154-0.99,12.349-0.128
			c2.602,0.535,5.433,0.009,8.157-0.141c0.973-0.053,1.929-0.571,2.895-0.578c10.182-0.066,20.365-0.108,30.546-0.046
			c1.228,0.008,2.436,0.752,3.683,1.013c1.058,0.222,2.188,0.446,3.236,0.302c2.353-0.325,4.669-1.256,7.007-1.277
			C190.054,251.159,203.872,251.224,218.524,251.224z"/>
		<path fill-rule="evenodd" clip-rule="evenodd" fill="#FFFFFF" d="M88.09,248.348c0.598-6.414,1.137-12.244,1.692-18.071
			c0.052-0.55,0.21-1.09,0.319-1.634c1.308-6.55,2.097-13.262,4.065-19.608c2.062-6.646,5.141-12.993,7.995-19.374
			c1.958-4.379,4.066-8.726,6.532-12.831c1.798-2.993,4.295-5.565,6.471-8.333c1.901-2.417,3.709-4.912,5.703-7.25
			c2.349-2.754,4.743-5.487,7.322-8.021c2.163-2.125,4.611-3.962,6.949-5.906c1.586-1.319,3.15-2.673,4.817-3.884
			c1.955-1.418,4.129-2.555,5.993-4.076c2.22-1.812,4.121-4.018,6.352-5.813c0.838-0.675,2.308-0.5,3.33-1.023
			c3.994-2.043,7.857-4.353,11.904-6.279c2.273-1.083,4.862-1.479,7.218-2.416c3.824-1.52,7.572-3.231,11.355-4.856
			c0.394-0.168,0.799-0.369,1.215-0.421c3.936-0.495,7.87-1.001,11.813-1.423c4.703-0.503,9.431-0.804,14.11-1.46
			c1.432-0.201,2.74-1.285,4.973-2.397c0,4.566-0.001,8.298,0,12.028c0.011,26.651-0.228,53.307,0.187,79.952
			c0.125,8.063-0.19,16.146,0.413,24.226c0.431,5.781,0.037,11.634-0.223,17.444c-0.022,0.507-1.78,1.325-2.742,1.341
			c-7.026,0.115-14.053,0.061-21.081,0.062c-34.237,0.007-68.474,0.014-102.711,0.021C90.973,248.348,89.884,248.348,88.09,248.348z
			 M215.75,226.674c-0.738-2.575-0.798-5.841-2.444-7.72c-1.894-2.164-4.698-4.485-8.358-3.219
			c-1.581,0.547-3.133,1.564-4.726,1.623c-5.922,0.216-7.418,5.406-10.333,8.933c-0.743,0.898-0.28,2.734-0.952,3.759
			c-3.48,5.302-0.612,13.42,5.477,15.014c5.629,1.473,10.205-0.97,14.507-4.134c1.223-0.9,2.651-1.957,3.189-3.269
			C213.51,234.249,214.467,230.655,215.75,226.674z"/>
		<path fill-rule="evenodd" clip-rule="evenodd" fill="#FFFFFF" d="M222.043,115.388c2.899,0.146,5.47,0.229,8.034,0.414
			c6.158,0.443,12.359,0.62,18.452,1.519c3.84,0.567,7.527,2.208,11.262,3.431c4.342,1.421,8.695,2.818,12.974,4.411
			c2.27,0.845,4.383,2.103,6.581,3.144c3.375,1.598,6.759,3.18,10.15,4.74c0.393,0.181,0.98,0.039,1.287,0.284
			c4.016,3.198,7.954,6.494,12.004,9.647c2.028,1.581,4.066,3.514,6.421,4.215c2.716,0.81,2.277,4.925,5.589,4.559
			c-0.301,1.349-0.289,3.676-0.955,3.888c-4.116,1.318-7.062,5.109-11.822,5.204c-1.643,0.034-3.188,1.968-4.892,2.799
			c-1.893,0.923-3.915,1.578-5.938,3.196c1.132,0.201,2.258,0.497,3.397,0.576c1.217,0.084,2.452-0.104,3.674-0.057
			c2.67,0.103,2.698,1.67,1.394,3.249c-1.085,1.313-2.733,2.142-4.028,3.301c-3.618,3.241-8.14,5.964-10.544,9.953
			c-3.668,6.084-9.4,9.936-13.827,15.132c-3.993,4.689-8.925,8.576-13.415,12.847c-1.245,1.184-2.403,2.46-3.575,3.718
			c-4.196,4.509-8.342,9.065-12.59,13.525c-1.646,1.729-3.579,3.182-5.263,4.878c-3.215,3.239-6.417,6.498-9.476,9.881
			c-1.309,1.447-2.247,3.23-3.353,4.861c-0.514-0.351-1.027-0.701-1.541-1.051C222.043,203.412,222.043,159.171,222.043,115.388z
			 M248.07,176.755c-1.035,3.726-2.041,6.968-2.815,10.266c-0.572,2.44-0.84,4.952-1.244,7.432c0.479,0.211,0.959,0.423,1.439,0.634
			c0.719-0.795,1.67-1.48,2.11-2.407c1.351-2.847,2.335-5.877,3.829-8.639c0.517-0.956,2.046-1.708,3.219-1.899
			c3.704-0.603,4.38-1.249,4.214-5.44c-1.392,0-2.977-0.399-4.164,0.117c-1.102,0.478-1.78,1.933-2.919,3.28
			c-0.295-1.533-0.476-2.468-0.682-3.538C249.871,176.637,248.9,176.701,248.07,176.755z"/>
		<path fill-rule="evenodd" clip-rule="evenodd" fill="#FFFFFF" d="M303.855,172.164c0,3.189,0,6.378,0,10.427
			c1.41-0.655,3.135-1.158,3.103-1.485c-0.4-4.007,2.708-6.572,3.906-9.893c1.145-3.171,2.779-6.176,4.329-9.187
			c0.739-1.439,1.725-2.766,2.726-4.044c0.241-0.308,1.247-0.487,1.459-0.278c2.627,2.597,5.285,5.178,7.7,7.967
			c1.756,2.026,3.084,4.414,4.739,6.534c3.202,4.1,6.368,8.161,7.597,13.419c0.351,1.503,1.499,2.864,2.443,4.175
			c2.904,4.031,4.153,8.694,5.826,13.28c1.221,3.346,1.859,6.842,3.172,10.072c2.317,5.706,1.775,12.076,3.744,17.483
			c2.171,5.961,0.456,11.504,1.754,17.684c-5.616,0-10.699,0.003-15.783-0.001c-5.46-0.004-10.936,0.208-16.372-0.155
			c-1.718-0.114-3.334-1.77-5.344-2.919c-1.247,4.083-5.023,2.99-8.358,2.995c-25.97,0.043-51.939,0.069-77.909,0.071
			c-1.345,0-2.69-0.263-4.691-0.471c3.806-3.848,7.066-7.101,10.276-10.401c3.353-3.447,6.26-7.492,10.094-10.26
			c3.933-2.838,5.926-7.332,10.307-9.874c3.491-2.025,5.72-6.169,8.649-9.237c3.228-3.38,6.628-6.594,9.932-9.903
			c2.21-2.215,4.387-4.465,6.57-6.707c5.135-5.269,10.276-10.53,15.39-15.818c1.279-1.324,2.46-2.742,3.687-4.117
			C303.151,171.735,303.504,171.95,303.855,172.164z M333.305,231.572c5.001-1.377,14.072-15.051,10.796-17.449
			c-0.688,0-1.544,0-2.383,0c-1.322,8.259-3.515,11.677-7.057,10.486c2.198-1.688,2.284-3.473,0.515-5.468
			c-0.441-0.498-0.209-1.536-0.509-2.23c-0.654-1.516-1.45-2.969-2.188-4.449c-1.205,0.661-2.409,1.322-3.125,1.716
			c1.378,4.162,2.573,7.749,3.738,11.345c0.094,0.292,0.106,0.845-0.056,0.95c-2.994,1.946-0.729,3.518,0.335,5.173
			c-2.263,1.217-4.524,2.435-6.786,3.652c0.187,0.529,0.373,1.058,0.56,1.587c0.991-0.193,2.063-0.212,2.953-0.624
			c1.056-0.488,1.956-1.312,3.207-2.189C333.305,233.521,333.305,232.547,333.305,231.572z M319.891,189.913
			c-0.38,0.024-0.759,0.048-1.139,0.071c-0.593,1.36-1.186,2.721-1.777,4.081c0.258,0.291,0.517,0.582,0.775,0.873
			c1.311-0.394,2.62-0.789,3.93-1.183C321.084,192.474,320.487,191.193,319.891,189.913z M322.996,222.225
			c-2.188-0.76-3.616-1.257-5.045-1.753c0.248,1.601,0.496,3.203,0.795,5.126C320.193,224.449,321.059,223.762,322.996,222.225z
			 M321.571,206.378c0.769-3.26-0.691-3.839-2.543-3.519c-0.63,0.109-1.069,1.313-1.597,2.016
			C318.791,205.369,320.149,205.862,321.571,206.378z M321.907,199.848c0.139-0.417,0.276-0.834,0.415-1.251
			c-1.005-0.957-2.011-1.914-3.017-2.87c-0.407,0.151-0.814,0.303-1.222,0.454c0,1.223,0,2.445,0,3.667
			C319.358,199.848,320.633,199.848,321.907,199.848z M322.237,216.396c-0.192-0.372-0.386-0.743-0.577-1.113
			c-1.404,0.241-2.809,0.483-4.212,0.724c0.513,1.048,1.026,2.095,1.856,3.789C320.627,218.263,321.433,217.33,322.237,216.396z"/>
		<path fill-rule="evenodd" clip-rule="evenodd" d="M270.113,267.79c-1.718-0.886-3.139-1.619-4.958-2.557
			c3.532-1.918,6.384-2.052,8.657,0.84c1.913-1.297,3.571-2.421,5.612-3.804c0.269,1.748,0.472,3.078,0.724,4.716
			c-3.016-0.277-4.896,0.804-5.051,3.521c-0.158,2.783-0.732,5.995,3.285,6.699c0.62,3.6-2.459,3.089-4.182,3.96
			c-0.115,0.059-0.896-1.001-1.229-1.615c-0.471-0.872-0.813-1.814-1.212-2.727c-1.089,0.568-2.276,1.009-3.231,1.75
			c-0.637,0.493-0.799,1.597-1.434,2.094c-0.655,0.512-1.637,0.838-2.455,0.799c-0.343-0.016-0.951-1.223-0.87-1.809
			c0.12-0.853,0.55-2.078,1.2-2.376C271.18,274.434,271.201,274.479,270.113,267.79z"/>
		<path fill-rule="evenodd" clip-rule="evenodd" d="M215.75,226.674c-1.282,3.981-2.24,7.575-3.64,10.988
			c-0.538,1.312-1.966,2.368-3.189,3.269c-4.302,3.164-8.878,5.607-14.507,4.134c-6.088-1.594-8.957-9.712-5.477-15.014
			c0.672-1.024,0.209-2.861,0.952-3.759c2.915-3.527,4.411-8.717,10.333-8.933c1.592-0.058,3.145-1.075,4.726-1.623
			c3.66-1.267,6.464,1.055,8.358,3.219C214.951,220.833,215.011,224.099,215.75,226.674z M192.782,235.288
			c-0.051,3.626,0.757,6.395,2.977,6.928c2.009,0.481,4.364-0.202,6.501-0.67c0.748-0.164,1.217-1.339,1.956-1.844
			c4.217-2.882,8.294-12.065,7.36-16.799c-0.056-0.281-0.455-0.478-0.596-0.762c-2.376-4.787-8.63-5.829-12.141-1.713
			C195.241,224.646,192.707,229.483,192.782,235.288z"/>
		<path fill-rule="evenodd" clip-rule="evenodd" d="M248.07,176.755c0.83-0.054,1.801-0.118,2.986-0.195
			c0.206,1.07,0.387,2.005,0.682,3.538c1.139-1.347,1.817-2.802,2.919-3.28c1.188-0.516,2.772-0.117,4.164-0.117
			c0.166,4.191-0.51,4.838-4.214,5.44c-1.173,0.191-2.702,0.944-3.219,1.899c-1.493,2.761-2.478,5.792-3.829,8.639
			c-0.44,0.927-1.392,1.611-2.11,2.407c-0.479-0.211-0.959-0.422-1.439-0.634c0.404-2.479,0.672-4.992,1.244-7.432
			C246.029,183.723,247.036,180.48,248.07,176.755z"/>
		<path fill-rule="evenodd" clip-rule="evenodd" d="M333.371,231.647c-1.063-1.657-3.329-3.229-0.335-5.174
			c0.162-0.105,0.149-0.658,0.056-0.95c-1.165-3.596-2.36-7.183-3.738-11.345c0.716-0.394,1.92-1.055,3.125-1.716
			c0.738,1.479,1.534,2.933,2.188,4.449c0.3,0.694,0.067,1.732,0.509,2.23c1.77,1.995,1.684,3.781-0.515,5.468
			c3.542,1.191,5.734-2.227,7.057-10.486c0.839,0,1.695,0,2.383,0c3.276,2.398-5.795,16.072-10.796,17.449L333.371,231.647z"/>
		<path fill-rule="evenodd" clip-rule="evenodd" d="M333.305,231.572c0,0.975,0,1.95,0,2.5c-1.251,0.877-2.151,1.702-3.207,2.189
			c-0.891,0.411-1.962,0.431-2.953,0.624c-0.187-0.529-0.373-1.058-0.56-1.587c2.262-1.217,4.523-2.435,6.786-3.652
			C333.371,231.647,333.305,231.572,333.305,231.572z"/>
		<path fill-rule="evenodd" clip-rule="evenodd" d="M319.891,189.913c0.597,1.281,1.193,2.561,1.789,3.842
			c-1.31,0.394-2.619,0.789-3.93,1.183c-0.259-0.291-0.518-0.582-0.775-0.873c0.592-1.36,1.185-2.721,1.777-4.081
			C319.132,189.96,319.511,189.937,319.891,189.913z"/>
		<path fill-rule="evenodd" clip-rule="evenodd" d="M322.996,222.225c-1.938,1.537-2.803,2.224-4.25,3.373
			c-0.299-1.923-0.547-3.525-0.795-5.126C319.38,220.968,320.809,221.464,322.996,222.225z"/>
		<path fill-rule="evenodd" clip-rule="evenodd" d="M321.571,206.378c-1.422-0.516-2.78-1.009-4.14-1.502
			c0.527-0.703,0.967-1.907,1.597-2.016C320.88,202.539,322.34,203.118,321.571,206.378z"/>
		<path fill-rule="evenodd" clip-rule="evenodd" d="M321.907,199.848c-1.274,0-2.549,0-3.823,0c0-1.222,0-2.444,0-3.667
			c0.407-0.151,0.814-0.303,1.222-0.454c1.006,0.956,2.012,1.913,3.017,2.87C322.184,199.014,322.046,199.431,321.907,199.848z"/>
		<path fill-rule="evenodd" clip-rule="evenodd" d="M322.237,216.396c-0.805,0.933-1.61,1.867-2.933,3.399
			c-0.83-1.693-1.344-2.741-1.856-3.789c1.403-0.241,2.808-0.483,4.212-0.724C321.852,215.654,322.045,216.025,322.237,216.396z"/>
		<path fill-rule="evenodd" clip-rule="evenodd" fill="#FFFFFF" d="M192.783,235.289c-0.076-5.806,2.458-10.644,6.056-14.862
			c3.511-4.116,9.765-3.074,12.141,1.713c0.141,0.284,0.54,0.481,0.596,0.762c0.934,4.734-3.143,13.917-7.36,16.799
			c-0.739,0.505-1.208,1.68-1.956,1.844c-2.137,0.468-4.492,1.151-6.501,0.67C193.539,241.683,192.73,238.914,192.783,235.289z"/>
	</g>
</g>
</svg>
