<?xml version="1.0" encoding="utf-8"?>
<!-- Generator: Adobe Illustrator 16.0.0, SVG Export Plug-In . SVG Version: 6.00 Build 0)  -->
<!DOCTYPE svg PUBLIC "-//W3C//DTD SVG 1.1//EN" "http://www.w3.org/Graphics/SVG/1.1/DTD/svg11.dtd">
<svg version="1.1" id="Layer_1" xmlns="http://www.w3.org/2000/svg" xmlns:xlink="http://www.w3.org/1999/xlink" x="0px" y="0px"
	 width="500px" height="500px" viewBox="0 0 500 500" enable-background="new 0 0 500 500" xml:space="preserve">
<g>
	<g>
		<path fill-rule="evenodd" clip-rule="evenodd" fill="#FFFFFF" d="M0.612,423.913c0-120.767,0-241.534,0-362.301
			c166.667,0,333.333,0,500,0c0,120.767,0,241.535,0,362.301C333.945,423.913,167.278,423.913,0.612,423.913z M71.676,171.403
			c-0.306,0.324-0.613,0.648-0.919,0.973c0.444,0.689,0.78,1.489,1.35,2.052c5.883,5.807,11.863,11.517,17.695,17.375
			c5.242,5.266,10.264,10.751,15.504,16.019c9.088,9.135,18.234,18.213,27.429,27.241c3.98,3.909,8.296,7.484,12.158,11.501
			c2.074,2.157,4.161,4.709,5.093,7.47c1.891,5.602,2.666,11.577,4.522,17.193c2.089,6.323,4.727,12.48,7.4,18.589
			c1.271,2.904,0.197,7.259-2.466,8.64c-2.547,1.32-5.033,2.799-7.394,4.429c-6.349,4.387-12.554,8.981-18.945,13.304
			c-2.663,1.802-5.768,2.943-8.467,4.699c-4.619,3.007-9.098,6.232-13.584,9.438c-0.966,0.689-1.714,1.683-2.563,2.537
			c0.285,0.323,0.57,0.646,0.855,0.971c5.319-3.495,10.638-6.989,16.345-10.739c1.79,5.836,3.38,11.024,4.971,16.212
			c0.314-0.038,0.629-0.078,0.944-0.117c0.284-2.11,0.568-4.219,0.852-6.328c0.239-0.121,0.478-0.243,0.717-0.363
			c8.78,11.73,19.372,21.645,30.238,31.319c11.016,9.808,23.185,17.904,36.786,25.072c-2.688,1.025-4.583,1.75-6.983,2.666
			c6.387,1.058,11.976,2.073,17.597,2.867c2.076,0.293,2.299,1.281,1.775,2.913c-0.247,0.767-0.597,1.5-0.859,2.263
			c-0.934,2.715-1.851,5.437-2.774,8.155c0.292,0.137,0.584,0.274,0.877,0.411c0.456-0.588,1.097-1.109,1.335-1.774
			c1.077-2.997,2.066-6.028,3.039-9.063c3.674-11.464,7.296-22.943,11.019-34.392c0.798-2.456,1.053-5.623,4.987-5.244
			c0.401,0.038,0.833-0.635,1.292-0.705c0.851-0.13,1.798-0.278,2.589-0.036c6.803,2.078,13.554,4.323,20.373,6.343
			c3.346,0.991,7.208-0.005,10.164,2.623c0.219,0.194,0.756,0.073,1.138,0.034c1.429-0.146,2.871-0.543,4.279-0.44
			c3.534,0.259,7.045,0.99,10.578,1.084c14.812,0.395,29.336-1.52,43.425-6.181c6.29-2.08,12.727-3.982,18.63-6.906
			c10.142-5.024,20.069-10.654,28.534-18.255c8.134-7.304,16.451-14.546,22.092-24.188c4.536-7.754,9.717-15.188,13.598-23.25
			c4.187-8.698,7.366-17.819,9.099-27.521c1.519-8.506,3.072-16.956,3.247-25.58c0.286-14.193-0.962-28.264-5.174-41.882
			c-1.945-6.293-4.571-12.386-7.075-18.493c-1.477-3.601-2.75-7.52-5.156-10.438c-2.418-2.932-1.952-7.287-5.539-9.492
			c-1.354-0.833-2.165-2.563-3.188-3.911c-2.588-3.41-4.863-7.114-7.795-10.195c-5.27-5.539-10.828-10.815-16.465-15.986
			c-3.042-2.791-6.286-5.478-9.807-7.604c-6.11-3.688-12.37-7.197-18.827-10.225c-5.043-2.365-10.503-3.83-15.735-5.806
			c-2.834-1.07-5.58-2.371-8.365-3.567c3.011-0.298,5.923,0.275,8.854,0.416c9.166,0.441,18.417,0.095,27.488,1.224
			c10.504,1.308,20.994,2.068,31.55,2.379c4.165,0.123,8.323,0.469,12.486,0.659c0.759,0.035,1.528-0.195,2.293-0.302
			c-0.648-0.649-1.212-1.721-1.96-1.872c-2.779-0.562-5.608-0.984-8.438-1.163c-10.048-0.634-20.103-1.156-30.155-1.702
			c-9.24-0.501-18.48-0.987-27.722-1.46c-2.646-0.136-5.305-0.112-7.944-0.321c-10.52-0.834-21.026-1.858-31.554-2.575
			c-12.243-0.833-24.508-1.341-36.752-2.162c-3.362-0.225-6.666-1.351-10.028-1.571c-16.335-1.067-32.684-1.935-49.024-2.939
			c-9.536-0.587-19.063-1.299-28.595-1.956c-5.646-0.389-11.289-0.856-16.939-1.152c-12.661-0.664-25.324-1.26-37.99-1.819
			c-0.941-0.042-1.905,0.436-2.858,0.672c0.008,0.337,0.016,0.675,0.024,1.012c1.506,0.327,2.998,0.841,4.52,0.949
			c6.683,0.471,13.377,0.787,20.063,1.227c15.187,0.999,30.365,2.126,45.557,3.024c7.937,0.468,15.896,0.558,23.844,0.826
			c1.729,0.059,3.48,0.005,5.182,0.261c5.416,0.813,10.784,2.18,16.224,2.549c13.779,0.934,27.587,1.437,41.382,2.129
			c0.639,0.032,1.27,0.226,2.415,0.438c-0.739,0.545-1.004,0.896-1.318,0.948c-3.677,0.606-7.369,1.12-11.041,1.753
			c-3.471,0.598-7.032,0.966-10.353,2.051c-4.993,1.633-9.881,3.647-14.685,5.786c-5.063,2.254-10.082,4.657-14.924,7.348
			c-4.132,2.296-8.128,4.903-11.927,7.718c-4.428,3.281-8.665,6.837-12.817,10.466c-2.889,2.525-5.542,5.328-8.214,8.091
			c-2.122,2.194-4.347,4.347-6.11,6.815c-3.216,4.504-6.239,9.16-9.124,13.885c-2.348,3.845-4.726,7.738-6.47,11.872
			c-2.868,6.798-5.593,13.707-7.607,20.788c-0.667,2.346-3.104,1.969-3.27,3.443c-0.185,1.642,1.185,3.467,0.974,5.094
			c-0.503,3.88-2.056,7.664-2.255,11.534c-0.462,8.946-0.381,17.92-0.502,26.882c-0.035,2.596-0.005,5.193-0.005,7.79
			c-0.214,0.157-0.429,0.314-0.644,0.471c-1.037-1.162-2.011-2.389-3.122-3.477c-6.434-6.302-12.968-12.504-19.34-18.868
			c-8.708-8.695-17.285-17.522-25.95-26.262c-7.476-7.539-14.966-15.064-22.522-22.523
			C75.268,173.961,73.398,172.757,71.676,171.403z M453.366,86.091c-2.907-0.178-5.585-0.737-8.138-0.386
			c-2.571,0.353-4.668,4.222-3.395,6.063c1.988,2.873,1.053,4.647-1.23,6.595c-1.75,1.494-0.789,5.219,1.481,5.572
			c1.949,0.303,4.146,0.354,5.959-0.273c1.252-0.433,2.453-2.092,2.85-3.445c0.188-0.645-1.429-2.027-2.453-2.758
			c-0.994-0.71-2.278-1.014-3.435-1.496c-0.193-0.262-0.387-0.525-0.58-0.788C449.743,94.758,451.459,91.001,453.366,86.091z
			 M473.15,97.72c0.396,0.26,0.794,0.52,1.191,0.78c0.909-0.862,2.434-1.617,2.605-2.608c0.423-2.428,0.306-4.966,0.228-7.455
			c-0.028-0.925-0.397-2.485-0.891-2.605c-0.856-0.208-1.967,0.397-2.901,0.816c-0.771,0.345-1.44,0.913-2.465,1.586
			c-0.157-2.535-1.22-3.273-2.617-2.559c-0.892,3.866-1.683,7.157-2.381,10.467c-0.116,0.549,0.173,1.184,0.274,1.779
			c0.554-0.242,1.372-0.329,1.62-0.75c1.554-2.641,2.9-5.406,4.51-8.011c0.396-0.641,1.51-0.838,2.804-1.5
			C474.374,91.496,473.763,94.608,473.15,97.72z M437.012,87.848c-0.278,1.187-0.412,2.015-0.671,2.803
			c-0.592,1.807-1.397,3.563-1.783,5.409c-0.122,0.58,0.815,1.38,1.269,2.081c0.803-0.763,2.024-1.395,2.313-2.319
			c0.482-1.544,0.471-3.275,0.477-4.928c0.006-1.675,0.414-4.029-0.487-4.871c-1.423-1.327-2.947,0.127-4.252,1.506
			c-1.017,1.074-2.334,0.979-2.059-1.171c0.028-0.222-0.259-0.485-0.438-0.798c-0.911,0.103-1.783,0.203-1.937,0.22
			c-0.793,4.165-1.513,7.945-2.347,12.327c0.878-0.44,1.84-0.619,2.237-1.189c0.726-1.042,0.892-2.503,1.691-3.454
			C432.661,91.516,433.184,88.336,437.012,87.848z M414.143,94.806c0.041,2.864,1.554,3.901,4.337,3.267
			c1.194-0.272,2.591,0.273,3.75-0.059c1.018-0.292,2.455-1.169,2.619-2.002c0.511-2.587,0.293-5.314,0.769-7.911
			c0.345-1.884-0.294-2.103-1.904-2.46C417.655,84.292,414.73,90.228,414.143,94.806z M61.369,165.55
			c-3.366-3.849,1.079-6.931,0.053-9.794c-1.752-0.366-3.095-0.799-4.464-0.904c-3.576-0.272-8.869,7.166-7.249,10.453
			c0.483,0.98,2.347,1.601,3.656,1.767c1.449,0.184,2.996-0.295,4.484-0.575C58.88,166.303,59.882,165.957,61.369,165.55z
			 M136.9,380.971c-2.19,0-4.977-0.72-7.098,0.162c-3.524,1.465-4.924,4.871-4.374,8.697c0.113,0.784,1.336,1.861,2.178,1.999
			c2.008,0.327,4.11,0.33,6.139,0.121c0.619-0.063,1.457-1.172,1.62-1.927C135.982,387.175,136.362,384.274,136.9,380.971z
			 M70.028,166.765c0.414,0.192,0.828,0.384,1.242,0.576c0.902-0.81,2.404-1.502,2.588-2.451c0.451-2.324,0.331-4.764,0.37-7.16
			c0.038-2.305-1.238-3.297-2.952-2.15c-1.569,1.049-2.793,2.434-4.271-0.107c-0.211-0.362-1.58-0.05-1.896-0.05
			c-0.777,3.91-1.456,7.328-2.135,10.747c0.176,0.081,0.353,0.162,0.529,0.244c2.492-3.233,4.984-6.467,7.476-9.701
			c0.34,0.202,0.68,0.402,1.02,0.604C71.341,160.465,70.685,163.614,70.028,166.765z M33.472,154.268
			c-4.991,2.595-6.911,4.33-7.59,7.649c-0.249,1.215,0.05,3.197,0.868,3.821c1.148,0.875,3.079,1.239,4.554,1.018
			c1.285-0.192,2.404-1.497,3.596-2.311c-0.186-0.24-0.371-0.479-0.556-0.719c-4.07,2.675-5.108,2.547-6.076-0.885
			c3.585-0.54,6.519-2.12,8.496-5.508C35.579,156.229,34.499,155.223,33.472,154.268z M456.173,93.81
			c2.042-0.673,3.758-1.205,5.451-1.805c1.886-0.668,3.563-3.812,2.61-5.135c-1.364-1.895-3.194-1.638-5.121-0.754
			c-2.486,1.142-3.546,3.107-4.221,5.683c-0.652,2.486-0.368,5.481,1.226,6.245c2.029,0.971,5.681-0.371,7.024-2.828
			C460.628,95.902,457.917,98.008,456.173,93.81z M158.092,387.848c-1.218,1.014-1.783,1.874-2.362,1.886
			c-1.33,0.024-3.291,0.104-3.881-0.679c-1.545-2.049,0.408-6.281,2.909-6.779c0.729-0.146,1.606,0.271,2.374,0.546
			c0.654,0.233,1.248,0.632,1.869,0.958c0.047-0.857,0.446-2.218,0.075-2.477c-1.056-0.738-2.644-1.692-3.629-1.368
			c-3.016,0.992-5.388,3.053-6.577,6.142c-1.036,2.689,0.071,5.236,2.469,5.937C154.5,392.937,157.254,391.61,158.092,387.848z
			 M480.919,85.814c-0.539,3.466-1.104,6.729-1.509,10.013c-0.085,0.687,0.273,1.936,0.693,2.066
			c0.762,0.234,1.874,0.047,2.546-0.403c0.422-0.282,0.411-1.364,0.411-2.087c0.001-1.046-0.464-2.176-0.202-3.124
			c0.873-3.157,1.981-6.249,3-9.366c-0.287-0.216-0.574-0.432-0.86-0.648C483.531,83.541,482.065,84.817,480.919,85.814z
			 M46.45,163.83c-0.33-0.265-0.66-0.531-0.989-0.796c-0.294,0.537-0.457,1.3-0.91,1.563c-0.803,0.465-1.918,1.039-2.648,0.797
			c-0.722-0.238-1.426-1.362-1.618-2.215c-0.578-2.573,0.706-4.537,2.696-5.962c1.389-0.995,2.832-1.213,3.459,1.018
			c0.032,0.115,1.001,0.169,1.318-0.056c0.327-0.23,0.595-0.869,0.531-1.271c-0.268-1.664-3.314-2.742-4.761-1.775
			c-0.834,0.558-1.813,0.929-2.567,1.57c-2.137,1.817-3.814,3.943-3.515,6.985c0.264,2.68,2.5,3.698,4.466,3.472
			C43.626,166.964,46.547,166.834,46.45,163.83z M15.351,163.035c-1.37,1.827-1.838,3.642,0.283,4.085
			c1.827,0.383,4.526,0.024,5.787-1.144c1.734-1.605,0.909-4.113-0.517-6.06c-0.565-0.772-1.11-1.559-1.664-2.34
			c0.161-0.285,0.323-0.569,0.484-0.854c1.12,0.451,2.241,0.901,3.622,1.457c0.279-0.563,0.692-1.398,1.236-2.498
			c-2.754-0.537-5.181-1.497-7.032,0.87c-1.808,2.311,0.666,3.852,1.331,5.709c0.09,0.253,0.574,0.399,0.607,0.633
			c0.127,0.894,0.145,1.804,0.203,2.708c-1.099-0.144-2.254-0.132-3.27-0.504C15.978,164.934,15.818,163.989,15.351,163.035z
			 M143.65,381.54c-1.054-0.424-2.023-0.813-2.993-1.204c-0.345,0.921-0.778,1.82-1.01,2.769c-0.239,0.976-0.208,2.015-0.426,2.998
			c-0.413,1.874-0.918,3.728-1.385,5.59c0.277,0.18,0.555,0.36,0.833,0.541c0.7-0.866,1.455-1.693,2.087-2.605
			c1.313-1.893,2.523-3.858,3.878-5.72c0.198-0.272,1.021-0.007,1.45-0.211c1.101-0.524,2.932-1.096,1.39-2.584
			C146.896,380.554,145.007,381.352,143.65,381.54z M411.526,96.695c-2.332-2.037-2.418-7.166-0.537-8.482
			c2.504-1.752,1.43-3.618,1.119-6.035c-1.71,1.533-3.078,2.76-4.447,3.986c0.253,0.056,0.505,0.112,0.758,0.168
			c-0.563,2.645-1.223,5.275-1.646,7.942c-0.188,1.178,0.105,2.433,0.18,3.653C408.287,97.568,409.621,97.208,411.526,96.695z
			 M82.033,151.617c-1.73,1.558-3.054,2.75-3.798,3.421c-0.707,4.154-1.305,7.675-1.997,11.741c1.8-0.418,2.894-0.673,3.964-0.921
			c-0.776-4.661-0.67-8.645,2.721-9.85C82.708,154.944,82.49,153.871,82.033,151.617z"/>
		<path fill-rule="evenodd" clip-rule="evenodd" d="M71.676,171.403c1.722,1.354,3.592,2.558,5.141,4.087
			c7.557,7.459,15.047,14.984,22.522,22.523c8.665,8.739,17.242,17.566,25.95,26.262c6.373,6.364,12.906,12.565,19.34,18.868
			c1.111,1.088,2.085,2.315,3.122,3.477c0.215-0.157,0.43-0.314,0.644-0.471c0-2.597-0.029-5.194,0.005-7.79
			c0.121-8.962,0.04-17.937,0.502-26.882c0.2-3.87,1.752-7.653,2.255-11.534c0.211-1.627-1.159-3.452-0.974-5.094
			c0.166-1.474,2.603-1.097,3.27-3.443c2.015-7.081,4.739-13.989,7.607-20.788c1.744-4.133,4.122-8.026,6.47-11.872
			c2.885-4.725,5.908-9.38,9.124-13.885c1.763-2.469,3.988-4.622,6.11-6.815c2.672-2.763,5.325-5.565,8.214-8.091
			c4.152-3.629,8.389-7.186,12.817-10.466c3.799-2.815,7.795-5.422,11.927-7.718c4.842-2.69,9.86-5.093,14.924-7.348
			c4.804-2.139,9.692-4.153,14.685-5.786c3.321-1.085,6.882-1.453,10.353-2.051c3.672-0.633,7.364-1.147,11.041-1.753
			c0.314-0.051,0.579-0.403,1.318-0.948c-1.146-0.213-1.776-0.407-2.415-0.438c-13.795-0.692-27.603-1.195-41.382-2.129
			c-5.439-0.369-10.808-1.736-16.224-2.549c-1.702-0.256-3.453-0.202-5.182-0.261c-7.948-0.269-15.907-0.358-23.844-0.826
			c-15.191-0.898-30.37-2.025-45.557-3.024c-6.686-0.439-13.379-0.756-20.063-1.227c-1.521-0.107-3.014-0.622-4.52-0.949
			c-0.008-0.337-0.016-0.675-0.024-1.012c0.953-0.236,1.917-0.713,2.858-0.672c12.666,0.56,25.329,1.156,37.99,1.819
			c5.651,0.296,11.293,0.764,16.939,1.152c9.531,0.657,19.059,1.369,28.595,1.956c16.34,1.005,32.688,1.872,49.024,2.939
			c3.362,0.22,6.666,1.346,10.028,1.571c12.244,0.821,24.509,1.329,36.752,2.162c10.527,0.717,21.034,1.741,31.554,2.575
			c2.64,0.209,5.298,0.186,7.944,0.321c9.241,0.473,18.481,0.959,27.722,1.46c10.053,0.546,20.107,1.067,30.155,1.702
			c2.829,0.179,5.658,0.601,8.438,1.163c0.748,0.151,1.312,1.223,1.96,1.872c-0.765,0.107-1.534,0.337-2.293,0.302
			c-4.163-0.19-8.321-0.537-12.486-0.659c-10.556-0.311-21.046-1.071-31.55-2.379c-9.071-1.129-18.322-0.783-27.488-1.224
			c-2.932-0.141-5.844-0.714-8.854-0.416c2.785,1.196,5.531,2.498,8.365,3.567c5.232,1.976,10.692,3.441,15.735,5.806
			c6.457,3.028,12.717,6.537,18.827,10.225c3.521,2.125,6.765,4.813,9.807,7.604c5.637,5.17,11.195,10.447,16.465,15.986
			c2.932,3.081,5.207,6.785,7.795,10.195c1.022,1.348,1.834,3.079,3.188,3.911c3.587,2.205,3.121,6.56,5.539,9.492
			c2.406,2.917,3.68,6.836,5.156,10.438c2.504,6.107,5.13,12.199,7.075,18.493c4.212,13.618,5.46,27.689,5.174,41.882
			c-0.175,8.625-1.729,17.074-3.247,25.58c-1.732,9.702-4.912,18.823-9.099,27.521c-3.881,8.063-9.062,15.496-13.598,23.25
			c-5.641,9.643-13.958,16.885-22.092,24.188c-8.465,7.601-18.393,13.23-28.534,18.255c-5.903,2.924-12.34,4.826-18.63,6.906
			c-14.089,4.661-28.613,6.575-43.425,6.181c-3.533-0.094-7.044-0.825-10.578-1.084c-1.408-0.103-2.851,0.294-4.279,0.44
			c-0.382,0.039-0.919,0.16-1.138-0.034c-2.956-2.628-6.818-1.632-10.164-2.623c-6.819-2.02-13.57-4.265-20.373-6.343
			c-0.791-0.242-1.738-0.094-2.589,0.036c-0.459,0.07-0.891,0.743-1.292,0.705c-3.934-0.379-4.189,2.788-4.987,5.244
			c-3.723,11.448-7.345,22.928-11.019,34.392c-0.973,3.034-1.961,6.065-3.039,9.063c-0.238,0.665-0.88,1.187-1.335,1.774
			c-0.292-0.137-0.585-0.274-0.877-0.411c0.923-2.719,1.84-5.44,2.774-8.155c0.262-0.763,0.612-1.496,0.859-2.263
			c0.523-1.632,0.301-2.62-1.775-2.913c-5.621-0.794-11.21-1.81-17.597-2.867c2.4-0.916,4.295-1.641,6.983-2.666
			c-13.601-7.168-25.77-15.265-36.786-25.072c-10.866-9.675-21.458-19.589-30.238-31.319c-0.239,0.12-0.478,0.242-0.717,0.363
			c-0.284,2.109-0.568,4.218-0.852,6.328c-0.315,0.039-0.63,0.079-0.944,0.117c-1.591-5.188-3.182-10.376-4.971-16.212
			c-5.707,3.75-11.026,7.244-16.345,10.739c-0.285-0.324-0.57-0.647-0.855-0.971c0.849-0.854,1.598-1.848,2.563-2.537
			c4.486-3.205,8.965-6.431,13.584-9.438c2.699-1.756,5.804-2.897,8.467-4.699c6.391-4.322,12.596-8.917,18.945-13.304
			c2.36-1.63,4.846-3.108,7.394-4.429c2.663-1.381,3.736-5.735,2.466-8.64c-2.673-6.108-5.311-12.266-7.4-18.589
			c-1.856-5.616-2.631-11.592-4.522-17.193c-0.932-2.761-3.019-5.313-5.093-7.47c-3.862-4.017-8.178-7.593-12.158-11.501
			c-9.195-9.027-18.341-18.106-27.429-27.241c-5.24-5.268-10.262-10.753-15.504-16.019c-5.832-5.858-11.812-11.568-17.695-17.375
			c-0.57-0.563-0.905-1.362-1.35-2.052C71.063,172.052,71.37,171.728,71.676,171.403z M415.773,249.674
			c0.492-9.705,1.574-18.858,0.899-28.318c-1.044-14.642-4.148-28.57-9.808-42.002c-1.787-4.238-3.842-8.373-5.963-12.456
			c-1.362-2.622-2.959-5.143-4.679-7.545c-0.696-0.973-1.917-1.961-3.043-2.171c-7.738-1.441-15.515-2.678-23.279-3.983
			c-0.199-0.034-0.392-0.109-0.589-0.154c-5.556-1.28-11.095-2.639-16.672-3.814c-5.418-1.141-10.892-2.021-16.308-3.173
			c-1.581-0.336-2.994-1.478-4.575-1.786c-7.228-1.411-14.512-2.533-21.728-3.996c-7.794-1.58-15.519-3.507-23.306-5.125
			c-5.627-1.169-11.323-2.003-16.961-3.125c-9.899-1.971-19.774-4.063-29.666-6.077c-10.04-2.044-20.072-4.13-30.145-5.992
			c-1.337-0.247-3.199,0.337-4.305,1.197c-4.302,3.346-8.516,6.829-12.534,10.511c-3.758,3.444-7.536,6.952-10.742,10.89
			c-4.001,4.913-7.635,10.163-11.042,15.513c-3.303,5.186-6.439,10.532-9.055,16.087c-2.726,5.787-4.76,11.9-7.042,17.893
			c-0.306,0.804-0.29,1.731-0.439,2.711c9.085,1.905,17.929,3.759,27.016,5.665c0,0.832,0,1.855,0,3.13
			c-1.506-0.253-2.722-0.361-3.886-0.668c-5.605-1.478-11.167-3.132-16.8-4.488c-6.196-1.491-7.226-1.062-8.185,5.171
			c-1.292,8.392-2.262,16.872-2.664,25.349c-0.271,5.717,0.628,11.497,1.104,17.24c0.214,2.582,0.175,4.88,3.057,6.862
			c3.637,2.503,6.28,6.431,9.426,9.673c6.642,6.846,13.281,13.695,20.019,20.448c6.605,6.62,13.375,13.077,19.99,19.689
			c4.622,4.62,9.038,9.446,13.668,14.058c5.559,5.534,11.254,10.932,16.878,16.401c4.402,4.28,8.81,8.555,13.167,12.881
			c3.759,3.733,7.349,7.642,11.206,11.268c2.351,2.21,3.952,5.622,7.787,5.786c13.119,0.557,26.257,1.544,39.301-0.941
			c3.078-0.587,6.141-1.271,9.187-2.011c3.714-0.901,7.428-1.824,11.073-2.957c0.544-0.169,1.176-1.669,0.987-2.329
			c-1.495-5.227-3.151-10.406-4.813-15.584c-3.327-10.367-6.757-20.703-10.02-31.092c-3.253-10.357-6.362-20.759-9.515-31.148
			c-1.671-5.507-3.267-11.036-4.956-16.539c-1.852-6.029-3.666-12.075-5.696-18.044c-1.565-4.601-1.599-9.918-6.021-13.277
			c-0.741-0.563-0.987-1.734-1.633-2.476c-0.761-0.874-1.596-2.052-2.592-2.292c-6.471-1.554-12.988-2.922-19.504-4.286
			c-7.903-1.654-15.818-3.252-23.731-4.861c-7.715-1.569-15.433-3.124-23.15-4.684c-7.794-1.577-15.591-3.142-23.382-4.736
			c-2.082-0.426-4.193-0.796-6.196-1.472c-0.982-0.332-1.749-1.304-2.613-1.986c0.164-0.256,0.328-0.512,0.492-0.768
			c0.896,0,1.82-0.143,2.684,0.025c3.462,0.669,6.905,1.44,10.356,2.163c1.963,0.41,3.937,0.772,5.896,1.204
			c6.183,1.362,12.359,2.756,18.542,4.121c4.621,1.021,9.241,2.041,13.872,3.011c3.555,0.745,7.14,1.354,10.688,2.125
			c5.8,1.259,11.578,2.622,17.374,3.899c4.814,1.062,9.614,2.244,14.476,3.028c3.325,0.536,6.613,2.18,10.196,0.293
			c1.096-0.576,3.817-0.142,4.376,0.733c1.667,2.616,4.322,3.094,6.719,3.619c8.882,1.943,17.851,3.493,26.774,5.252
			c2.774,0.547,5.505,1.304,8.264,1.933c5.091,1.159,10.166,2.395,15.283,3.414c7.338,1.461,14.733,2.633,22.056,4.16
			c7.305,1.522,14.538,3.377,21.823,4.993c5.33,1.182,10.682,2.268,16.046,3.278C411.278,249.376,413.396,249.436,415.773,249.674z
			 M295.934,227.465c-2.516,0.039-4.324,1.693-4.191,4.284c0.088,1.711,0.398,3.461,0.922,5.093
			c2.733,8.528,5.683,16.988,8.33,25.542c2.459,7.946,4.481,16.028,6.968,23.965c3.693,11.79,7.701,23.482,11.432,35.262
			c2.852,9.004,5.461,18.084,8.212,27.12c2.157,7.086,3.083,7.793,8.651,4.963c10.058-5.112,20.195-10.011,29.336-16.878
			c9.666-7.262,17.36-16.124,24.67-25.587c6.48-8.391,11.22-17.601,15.629-27.166c4.353-9.441,6.896-19.346,9.431-29.308
			c0.39-1.528-0.016-2.491-1.837-2.737c-2.409-0.326-4.774-0.955-7.172-1.384c-4-0.714-8.043-1.216-12.006-2.088
			c-7.662-1.686-15.256-3.677-22.923-5.336c-8.523-1.846-17.099-3.457-25.648-5.183c-7.335-1.48-14.671-2.959-21.997-4.479
			c-3.057-0.634-6.085-1.395-9.135-2.059C308.384,230.134,302.157,228.804,295.934,227.465z M391.859,154.384
			c0.161-0.272,0.322-0.545,0.484-0.818c-2.605-3.639-4.814-7.662-7.898-10.837c-6.138-6.318-12.396-12.623-19.279-18.082
			c-6.372-5.055-13.525-9.167-20.531-13.365c-3.498-2.096-7.361-3.653-11.191-5.104c-5.102-1.933-10.322-3.563-15.52-5.233
			c-1.143-0.367-2.601-0.022-3.579-0.585c-5.318-3.058-11.339-3.229-17.072-3.614c-12.664-0.849-25.381-0.789-37.976,1.394
			c-1.3,0.226-2.688,0.093-3.927,0.477c-5.784,1.793-11.576,3.58-17.275,5.617c-6.283,2.246-12.472,4.752-18.689,7.179
			c-0.548,0.214-1.012,0.658-1.498,1.02c-1.65,1.229-3.323,2.432-4.923,3.724c-0.632,0.509-1.097,1.225-1.638,1.846
			c0.755,0.362,1.475,0.864,2.271,1.063c3.608,0.898,7.233,1.73,10.86,2.546c1.284,0.289,2.587,0.508,3.891,0.686
			c5.114,0.697,10.266,1.174,15.339,2.091c7.117,1.286,14.171,2.918,21.265,4.341c1.49,0.299,3.071,0.172,4.547,0.515
			c7.021,1.628,13.985,3.521,21.037,4.995c8.708,1.82,17.487,3.296,26.229,4.963c8.729,1.665,17.472,3.272,26.167,5.104
			c8.195,1.727,16.332,3.733,24.505,5.573c3.054,0.688,6.126,1.308,9.206,1.867C381.72,152.665,386.792,153.509,391.859,154.384z
			 M127.991,321.773c2.687,1.875,4.93,3.745,7.448,5.108c2.333,1.263,6.12,4.124,6.078,5.226c-2.017-0.235-4.045-0.472-6.074-0.708
			c-0.075,0.314-0.15,0.628-0.225,0.941c18.557,21.499,39.356,40.3,64.41,53.978c0.232-0.188,0.465-0.374,0.697-0.562
			c-0.493-1.823-0.986-3.646-1.597-5.907c5.611,4.231,8.921,9.944,15.199,12.857c1.625-4.754,3.178-9.168,4.643-13.611
			c1.855-5.629,3.391-11.376,5.522-16.896c2.129-5.517,0.97-8.974-4.056-11.83c-6.512-3.702-12.952-7.571-19.14-11.784
			c-3.472-2.364-6.382-5.558-9.526-8.398c-1.984-1.793-4.157-3.44-5.851-5.479c-3.542-4.268-6.851-8.731-10.207-13.152
			c-2.739-3.609-5.56-7.172-8.055-10.946c-1.802-2.728-4.744-3.301-7.066-0.97c-0.692,0.694-1.452,1.35-2.271,1.886
			c-5.155,3.373-10.383,6.636-15.492,10.076C137.882,314.664,133.459,317.909,127.991,321.773z M258.073,361.457
			c0.133-0.249,0.266-0.499,0.398-0.748c-34.97-34.892-69.941-69.783-105.205-104.968c0,1.422-0.162,2.614,0.037,3.743
			c0.311,1.76,0.726,3.528,1.344,5.202c2.979,8.063,6.02,16.103,9.125,24.116c0.175,0.45,1.101,0.769,1.719,0.86
			c4.457,0.662,5.377,2.193,4.568,6.77c-0.276,1.565-0.224,3.68,0.624,4.87c4.345,6.099,8.543,12.407,13.659,17.826
			c6.541,6.929,13.601,13.46,21.028,19.427c5.023,4.036,10.997,6.928,16.694,10.062c1.634,0.898,3.812,0.762,5.692,1.278
			c1.555,0.427,4.084,0.818,4.348,1.747c0.66,2.319,2.223,2.547,3.948,3.135c3.606,1.229,7.108,2.778,10.748,3.886
			C250.5,359.789,254.312,360.541,258.073,361.457z"/>
		<path fill-rule="evenodd" clip-rule="evenodd" d="M453.366,86.091c-1.907,4.91-3.623,8.667-8.94,9.084
			c0.193,0.263,0.387,0.525,0.58,0.788c1.156,0.482,2.44,0.786,3.435,1.496c1.024,0.731,2.642,2.113,2.453,2.758
			c-0.396,1.353-1.598,3.012-2.85,3.445c-1.813,0.627-4.01,0.577-5.959,0.273c-2.271-0.354-3.231-4.079-1.481-5.572
			c2.283-1.948,3.219-3.723,1.23-6.595c-1.273-1.841,0.823-5.71,3.395-6.063C447.781,85.354,450.459,85.913,453.366,86.091z
			 M442.27,90.16c1.751,1.373,2.785,2.766,3.487,2.615c1.578-0.339,3.963-0.661,3.359-3.253c-0.231-0.997-1.683-2.652-1.964-2.535
			C445.684,87.6,444.412,88.687,442.27,90.16z M449.113,100.955c-1.901-2.432-5.059-3.597-6.252-2.29
			c-0.525,0.576-0.736,2.258-0.305,2.75C444.715,103.881,446.822,102.179,449.113,100.955z"/>
		<path fill-rule="evenodd" clip-rule="evenodd" d="M473.15,97.72c0.612-3.112,1.224-6.225,1.978-10.059
			c-1.294,0.662-2.408,0.859-2.804,1.5c-1.609,2.605-2.956,5.37-4.51,8.011c-0.248,0.422-1.066,0.508-1.62,0.75
			c-0.102-0.595-0.391-1.23-0.274-1.779c0.698-3.311,1.489-6.602,2.381-10.467c1.397-0.714,2.46,0.024,2.617,2.559
			c1.024-0.673,1.694-1.242,2.465-1.586c0.935-0.419,2.045-1.024,2.901-0.816c0.493,0.12,0.862,1.68,0.891,2.605
			c0.078,2.489,0.195,5.027-0.228,7.455c-0.172,0.991-1.696,1.746-2.605,2.608C473.944,98.24,473.547,97.98,473.15,97.72z"/>
		<path fill-rule="evenodd" clip-rule="evenodd" d="M437.012,87.848c-3.828,0.488-4.351,3.668-5.986,5.616
			c-0.8,0.951-0.966,2.412-1.691,3.454c-0.397,0.571-1.359,0.749-2.237,1.189c0.834-4.381,1.554-8.162,2.347-12.327
			c0.153-0.017,1.025-0.117,1.937-0.22c0.18,0.313,0.467,0.576,0.438,0.798c-0.275,2.15,1.042,2.245,2.059,1.171
			c1.305-1.379,2.829-2.833,4.252-1.506c0.901,0.842,0.493,3.195,0.487,4.871c-0.006,1.653,0.006,3.384-0.477,4.928
			c-0.289,0.924-1.511,1.556-2.313,2.319c-0.453-0.7-1.391-1.501-1.269-2.081c0.386-1.846,1.191-3.602,1.783-5.409
			C436.6,89.863,436.733,89.035,437.012,87.848z"/>
		<path fill-rule="evenodd" clip-rule="evenodd" d="M414.143,94.806c0.588-4.578,3.513-10.513,9.57-9.165
			c1.61,0.358,2.249,0.576,1.904,2.46c-0.476,2.597-0.258,5.324-0.769,7.911c-0.164,0.833-1.602,1.71-2.619,2.002
			c-1.159,0.333-2.556-0.213-3.75,0.059C415.696,98.707,414.184,97.669,414.143,94.806z M421.421,87.059
			c-3.47,0.765-3.964,3.775-5.082,6.099c-0.561,1.165-0.729,3.493,1.768,3.126C421.748,95.749,423.564,90.401,421.421,87.059z"/>
		<path fill-rule="evenodd" clip-rule="evenodd" d="M61.369,165.55c-1.487,0.407-2.489,0.752-3.519,0.947
			c-1.488,0.28-3.036,0.759-4.484,0.575c-1.31-0.166-3.173-0.787-3.656-1.767c-1.62-3.287,3.673-10.725,7.249-10.453
			c1.369,0.104,2.712,0.538,4.464,0.904C62.448,158.62,58.002,161.701,61.369,165.55z M53.565,166.59
			c1.903-2.971,3.474-5.258,4.821-7.669c0.254-0.455-0.169-1.724-0.655-2.039c-0.527-0.342-1.597-0.232-2.248,0.072
			C52.527,158.335,51.393,162.363,53.565,166.59z"/>
		<path fill-rule="evenodd" clip-rule="evenodd" d="M136.9,380.971c-0.538,3.304-0.917,6.204-1.534,9.053
			c-0.163,0.755-1.001,1.863-1.62,1.927c-2.029,0.209-4.131,0.206-6.139-0.121c-0.842-0.138-2.065-1.215-2.178-1.999
			c-0.55-3.826,0.85-7.232,4.374-8.697C131.923,380.251,134.709,380.971,136.9,380.971z M133.285,382.266
			c-3.25-0.048-6.353,3.355-5.75,6.37c0.099,0.497,1.701,1.229,2.272,1.003C132.363,388.628,133.756,385.52,133.285,382.266z"/>
		<path fill-rule="evenodd" clip-rule="evenodd" d="M70.028,166.765c0.657-3.15,1.313-6.3,1.97-9.45
			c-0.34-0.201-0.68-0.402-1.02-0.604c-2.492,3.234-4.984,6.468-7.476,9.701c-0.176-0.082-0.353-0.163-0.529-0.244
			c0.679-3.419,1.358-6.837,2.135-10.747c0.316,0,1.685-0.312,1.896,0.05c1.478,2.541,2.702,1.156,4.271,0.107
			c1.714-1.146,2.99-0.155,2.952,2.15c-0.04,2.396,0.081,4.836-0.37,7.16c-0.184,0.949-1.686,1.641-2.588,2.451
			C70.856,167.148,70.442,166.957,70.028,166.765z"/>
		<path fill-rule="evenodd" clip-rule="evenodd" d="M33.472,154.268c1.026,0.956,2.107,1.961,3.292,3.065
			c-1.977,3.388-4.911,4.968-8.496,5.508c0.968,3.432,2.006,3.56,6.076,0.885c0.186,0.24,0.371,0.479,0.556,0.719
			c-1.192,0.813-2.311,2.119-3.596,2.311c-1.476,0.221-3.406-0.142-4.554-1.018c-0.818-0.624-1.117-2.605-0.868-3.821
			C26.562,158.597,28.481,156.862,33.472,154.268z M28.348,160.33c0.206,0.284,0.412,0.567,0.618,0.851
			c1.349-0.713,2.784-1.31,4.003-2.201c0.467-0.34,0.441-1.355,0.641-2.063c-0.759-0.024-1.794-0.374-2.224-0.009
			C30.234,157.885,29.343,159.168,28.348,160.33z"/>
		<path fill-rule="evenodd" clip-rule="evenodd" d="M456.173,93.81c1.744,4.198,4.455,2.092,6.97,1.407
			c-1.344,2.457-4.995,3.799-7.024,2.828c-1.594-0.763-1.878-3.759-1.226-6.245c0.675-2.576,1.734-4.542,4.221-5.683
			c1.927-0.884,3.757-1.141,5.121,0.754c0.952,1.323-0.725,4.467-2.61,5.135C459.931,92.605,458.215,93.137,456.173,93.81z
			 M456.939,90.735c4.099,0.998,5.415-0.783,3.869-4.361C459.392,87.972,458.166,89.354,456.939,90.735z"/>
		<path fill-rule="evenodd" clip-rule="evenodd" d="M158.092,387.848c-0.838,3.763-3.591,5.089-6.754,4.165
			c-2.397-0.7-3.504-3.247-2.469-5.937c1.189-3.089,3.562-5.149,6.577-6.142c0.986-0.324,2.574,0.63,3.629,1.368
			c0.371,0.259-0.028,1.619-0.075,2.477c-0.621-0.326-1.215-0.725-1.869-0.958c-0.768-0.274-1.644-0.691-2.374-0.546
			c-2.501,0.498-4.454,4.73-2.909,6.779c0.59,0.783,2.551,0.703,3.881,0.679C156.309,389.722,156.874,388.861,158.092,387.848z"/>
		<path fill-rule="evenodd" clip-rule="evenodd" d="M480.919,85.814c1.146-0.998,2.612-2.273,4.079-3.549
			c0.286,0.216,0.573,0.432,0.86,0.648c-1.019,3.117-2.127,6.209-3,9.366c-0.262,0.948,0.203,2.078,0.202,3.124
			c0,0.723,0.011,1.805-0.411,2.087c-0.672,0.45-1.784,0.637-2.546,0.403c-0.42-0.13-0.778-1.379-0.693-2.066
			C479.814,92.544,480.38,89.281,480.919,85.814z"/>
		<path fill-rule="evenodd" clip-rule="evenodd" d="M46.45,163.83c0.098,3.004-2.823,3.134-4.538,3.331
			c-1.966,0.227-4.202-0.792-4.466-3.472c-0.299-3.042,1.378-5.168,3.515-6.985c0.755-0.642,1.733-1.013,2.567-1.57
			c1.446-0.967,4.493,0.111,4.761,1.775c0.064,0.403-0.204,1.041-0.531,1.271c-0.317,0.225-1.286,0.17-1.318,0.056
			c-0.627-2.231-2.07-2.013-3.459-1.018c-1.99,1.425-3.274,3.389-2.696,5.962c0.191,0.853,0.896,1.977,1.618,2.215
			c0.73,0.242,1.845-0.332,2.648-0.797c0.453-0.262,0.616-1.025,0.91-1.563C45.79,163.299,46.12,163.565,46.45,163.83z"/>
		<path fill-rule="evenodd" clip-rule="evenodd" d="M15.351,163.035c0.467,0.954,0.626,1.899,1.071,2.062
			c1.016,0.372,2.171,0.36,3.27,0.504c-0.058-0.904-0.076-1.814-0.203-2.708c-0.033-0.234-0.517-0.38-0.607-0.633
			c-0.665-1.857-3.138-3.398-1.331-5.709c1.852-2.366,4.278-1.406,7.032-0.87c-0.544,1.1-0.958,1.935-1.236,2.498
			c-1.381-0.556-2.502-1.006-3.622-1.457c-0.162,0.285-0.323,0.569-0.484,0.854c0.554,0.781,1.099,1.568,1.664,2.34
			c1.425,1.947,2.25,4.455,0.517,6.06c-1.261,1.168-3.96,1.527-5.787,1.144C13.513,166.677,13.981,164.862,15.351,163.035z"/>
		<path fill-rule="evenodd" clip-rule="evenodd" d="M143.65,381.54c1.357-0.188,3.246-0.986,3.825-0.427
			c1.542,1.488-0.29,2.06-1.39,2.584c-0.429,0.204-1.252-0.062-1.45,0.211c-1.355,1.861-2.565,3.827-3.878,5.72
			c-0.633,0.912-1.388,1.739-2.087,2.605c-0.278-0.181-0.555-0.361-0.833-0.541c0.467-1.862,0.972-3.716,1.385-5.59
			c0.217-0.983,0.187-2.022,0.426-2.998c0.232-0.948,0.666-1.848,1.01-2.769C141.626,380.727,142.596,381.116,143.65,381.54z"/>
		<path fill-rule="evenodd" clip-rule="evenodd" d="M411.526,96.695c-1.905,0.513-3.239,0.873-4.573,1.232
			c-0.074-1.22-0.367-2.475-0.18-3.653c0.423-2.667,1.082-5.297,1.646-7.942c-0.253-0.056-0.505-0.112-0.758-0.168
			c1.369-1.227,2.737-2.453,4.447-3.986c0.311,2.417,1.385,4.282-1.119,6.035C409.108,89.529,409.194,94.658,411.526,96.695z"/>
		<path fill-rule="evenodd" clip-rule="evenodd" d="M82.033,151.617c0.457,2.254,0.675,3.328,0.89,4.39
			c-3.391,1.205-3.498,5.189-2.721,9.85c-1.07,0.249-2.164,0.503-3.964,0.921c0.691-4.066,1.29-7.586,1.997-11.741
			C78.979,154.367,80.303,153.175,82.033,151.617z"/>
		<path fill-rule="evenodd" clip-rule="evenodd" fill="#FFFFFF" d="M415.773,249.674c-2.377-0.238-4.495-0.298-6.553-0.686
			c-5.364-1.011-10.716-2.097-16.046-3.278c-7.285-1.615-14.519-3.471-21.823-4.993c-7.322-1.526-14.718-2.698-22.056-4.16
			c-5.117-1.02-10.192-2.255-15.283-3.414c-2.759-0.628-5.489-1.386-8.264-1.933c-8.924-1.759-17.893-3.309-26.774-5.252
			c-2.396-0.525-5.052-1.002-6.719-3.619c-0.559-0.875-3.28-1.31-4.376-0.733c-3.583,1.887-6.871,0.243-10.196-0.293
			c-4.861-0.784-9.661-1.966-14.476-3.028c-5.796-1.277-11.573-2.64-17.374-3.899c-3.549-0.771-7.133-1.38-10.688-2.125
			c-4.631-0.97-9.251-1.991-13.872-3.011c-6.183-1.364-12.359-2.758-18.542-4.121c-1.958-0.431-3.932-0.793-5.896-1.204
			c-3.452-0.722-6.895-1.493-10.356-2.163c-0.864-0.167-1.788-0.025-2.684-0.025c-0.164,0.256-0.328,0.512-0.492,0.768
			c0.864,0.682,1.63,1.655,2.613,1.986c2.003,0.675,4.115,1.046,6.196,1.472c7.791,1.594,15.587,3.159,23.382,4.736
			c7.717,1.56,15.435,3.115,23.15,4.684c7.913,1.609,15.828,3.207,23.731,4.861c6.516,1.364,13.033,2.732,19.504,4.286
			c0.996,0.239,1.831,1.418,2.592,2.292c0.646,0.741,0.892,1.913,1.633,2.476c4.423,3.359,4.456,8.676,6.021,13.277
			c2.03,5.97,3.845,12.015,5.696,18.044c1.689,5.503,3.285,11.032,4.956,16.539c3.152,10.39,6.262,20.791,9.515,31.148
			c3.263,10.389,6.692,20.725,10.02,31.092c1.661,5.178,3.317,10.357,4.813,15.584c0.188,0.66-0.443,2.16-0.987,2.329
			c-3.646,1.133-7.359,2.056-11.073,2.957c-3.046,0.739-6.108,1.424-9.187,2.011c-13.044,2.485-26.182,1.498-39.301,0.941
			c-3.835-0.164-5.437-3.576-7.787-5.786c-3.857-3.626-7.447-7.534-11.206-11.268c-4.357-4.326-8.765-8.601-13.167-12.881
			c-5.624-5.47-11.319-10.867-16.878-16.401c-4.631-4.611-9.046-9.438-13.668-14.058c-6.616-6.612-13.385-13.069-19.99-19.689
			c-6.738-6.753-13.376-13.603-20.019-20.448c-3.146-3.242-5.789-7.17-9.426-9.673c-2.882-1.982-2.842-4.281-3.057-6.862
			c-0.476-5.744-1.375-11.523-1.104-17.24c0.402-8.477,1.373-16.957,2.664-25.349c0.959-6.233,1.989-6.663,8.185-5.171
			c5.633,1.355,11.195,3.01,16.8,4.488c1.164,0.307,2.379,0.415,3.886,0.668c0-1.275,0-2.298,0-3.13
			c-9.087-1.905-17.93-3.76-27.016-5.665c0.15-0.98,0.134-1.908,0.439-2.711c2.282-5.992,4.316-12.105,7.042-17.893
			c2.616-5.556,5.752-10.901,9.055-16.087c3.407-5.35,7.041-10.6,11.042-15.513c3.207-3.938,6.984-7.446,10.742-10.89
			c4.018-3.682,8.231-7.165,12.534-10.511c1.105-0.86,2.967-1.444,4.305-1.197c10.073,1.861,20.105,3.947,30.145,5.992
			c9.891,2.014,19.766,4.106,29.666,6.077c5.638,1.123,11.334,1.957,16.961,3.125c7.787,1.619,15.512,3.545,23.306,5.125
			c7.216,1.463,14.5,2.585,21.728,3.996c1.581,0.309,2.994,1.45,4.575,1.786c5.416,1.152,10.89,2.032,16.308,3.173
			c5.577,1.175,11.116,2.534,16.672,3.814c0.197,0.045,0.39,0.121,0.589,0.154c7.765,1.306,15.541,2.542,23.279,3.983
			c1.126,0.21,2.347,1.198,3.043,2.171c1.72,2.402,3.316,4.924,4.679,7.545c2.121,4.083,4.176,8.218,5.963,12.456
			c5.659,13.432,8.764,27.36,9.808,42.002C417.348,230.816,416.266,239.969,415.773,249.674z M255.224,144.173
			c-0.988,0.27-2.154,0.301-2.916,0.872c-0.879,0.659-1.325,1.863-2.095,2.707c-1.253,1.375-1.877,6.209-0.297,7.72
			c1.067,1.02,3.278,1.383,4.877,1.193c3.405-0.403,5.977-5.362,5.311-9.558c-0.521-3.296-1.641-3.935-4.979-2.839L255.224,144.173z
			 M294.934,199.238c3.315,0.256,1.879,2.332,1.479,3.952c-0.44,1.778-0.979,3.531-1.473,5.295c0.393,0.207,0.787,0.415,1.181,0.622
			c0.622-0.857,1.344-1.661,1.846-2.583c1.176-2.165,2.16-4.439,3.428-6.544c0.257-0.427,1.427-0.304,2.472-0.487
			c-1.03,3.472-1.888,6.359-2.744,9.248c0.321,0.248,0.643,0.497,0.964,0.745c1.26-0.638,2.521-1.276,3.122-1.581
			c-0.214-1.884-0.485-3.033-0.425-4.166c0.041-0.758,0.833-1.506,0.796-2.233c-0.076-1.514-0.48-3.011-0.751-4.515
			c-1.121,0.454-2.542,0.624-3.297,1.423c-1.284,1.361-1.946,1.061-2.727-0.31c-0.272-0.478-0.618-0.914-1.233-1.81
			c-0.976,1.154-1.77,2.093-2.563,3.032c-0.649-0.752-1.299-1.505-2.211-2.563c-0.557,0.044-1.525,0.122-1.674,0.134
			c-0.791,4.315-1.498,8.181-2.206,12.047c0.308,0.142,0.616,0.284,0.925,0.425C292.473,206.542,293.141,202.559,294.934,199.238z
			 M282.745,143.847c-5.308-0.431-10.222,4.084-10.36,9.04c-0.074,2.684,2.071,4.518,4.456,3.675
			c1.343-0.475,2.298-1.177,3.92-0.035c1.44,1.014,2.592-0.7,2.481-2.816c-0.104-2.013,0.205-4.098,0.66-6.075
			c0.749-3.252,1.763-6.443,2.729-9.89c-1.491,0-2.418,0-3.169,0C283.212,139.878,282.99,141.766,282.745,143.847z M239.409,137.503
			c-1.61,6.478-3.118,12.549-4.875,19.622c1.265-0.907,2.219-1.288,2.681-1.992c0.685-1.043,0.798-2.491,1.553-3.454
			c1.467-1.874,2.167-5.112,5.472-4.273c-0.617,3.216-1.172,6.108-1.735,9.047c3.07,0.304,3.857-0.621,3.665-3.262
			c-0.221-3.033,0.313-6.122,0.506-9.001c-3.375-1.305-4.758,0.917-6.868,3.283c0.361-2.429,0.5-3.927,0.823-5.384
			c0.325-1.468,0.832-2.896,1.332-4.586C240.545,137.503,239.747,137.503,239.409,137.503z M264.946,196.556
			c-6.275,0.029-10.13,4.82-9.802,9.901c0.191,2.974,1.087,3.772,4.075,2.951c1.276-0.351,2.374-0.996,3.78-0.017
			c0.458,0.318,1.825-0.41,2.585-0.938c0.235-0.163-0.183-1.237-0.265-1.898c-0.105-0.858-0.426-1.791-0.211-2.567
			c0.56-2.017,1.533-3.926,2.022-5.954c0.604-2.501,0.885-5.081,1.373-8.033c-1.512,0.259-2.356,0.404-2.514,0.431
			C265.585,192.812,265.26,194.719,264.946,196.556z M287.599,197.457c-2.021-0.347-3.568-0.921-5.064-0.807
			c-3.521,0.268-7.927,7.938-6.654,11.288c0.873,2.3,3.235,2.364,5.76,0.522c1.527,0.396,2.641,0.685,3.753,0.974
			c0.214-1.059,0.467-2.112,0.626-3.178c0.117-0.786,0.024-1.608,0.178-2.384C286.638,201.652,287.158,199.449,287.599,197.457z
			 M330.547,205.591c2.18-1.299,4.438-2.148,5.931-3.722c0.899-0.949,0.609-3.026,0.854-4.596c-1.701,0.002-3.445-0.216-5.086,0.102
			c-0.813,0.158-1.402,1.339-2.149,1.993c-2.108,1.847-3.169,7.232-1.284,9.069c0.968,0.944,3.143,1.091,4.669,0.875
			c1.161-0.164,2.161-1.467,3.233-2.264c-0.185-0.213-0.368-0.426-0.553-0.639C331.328,208.688,330.487,208.484,330.547,205.591z
			 M310.804,205.008c1.796-0.57,3.435-0.999,5.001-1.612c1.916-0.75,3.309-4.037,2.232-5.605c-1.413-2.062-2.984-1.285-4.93-0.254
			c-3.188,1.688-3.974,4.681-4.86,7.581c-0.658,2.153,1.424,4.38,3.752,4.55c3.075,0.224,4.647-0.863,4.764-3.295
			C312.547,208.701,311.472,208.5,310.804,205.008z M230.15,144.632c0.245,0.104,0.49,0.209,0.735,0.313
			c0.141,0.674,0.17,1.401,0.458,2.005c0.209,0.438,0.802,1.034,1.15,0.99c0.563-0.073,1.392-0.512,1.537-0.976
			c0.559-1.78,0.338-3.123-2.068-3.306c-4.186-0.32-9.185,4.956-8.56,9.21c0.443,3.017,1.99,4.391,4.937,3.716
			c1.49-0.341,2.756-1.665,4.123-2.544c-0.149-0.252-0.298-0.504-0.447-0.756c-0.651,0.205-1.29,0.464-1.954,0.604
			c-3.269,0.692-4.584-0.417-3.569-3.646C227.137,148.192,228.893,146.49,230.15,144.632z M264.077,143.478
			c-0.86,3.862-1.614,6.828-2.141,9.834c-0.18,1.026-0.024,2.979,0.378,3.092c1.905,0.536,1.805-1.128,2.121-2.405
			c0.844-3.408,2.19-6.428,6.632-6.583c-0.073-1.293-0.139-2.431-0.246-4.316c-1.745,1.069-2.923,1.79-3.643,2.23
			C266.08,144.674,265.044,144.055,264.077,143.478z M344.591,200.002c0.771-0.058,1.608,0.039,2.333-0.203
			c2.335-0.778,1.564-1.862,0.494-3.159c-1.155,0.719-1.987,1.237-3.196,1.99c-0.335-2.992-1.839-2.013-2.613-1.716
			c-1.144,4.533-2.124,8.421-3.253,12.897c1.216-0.453,2.288-0.521,2.508-0.989C342.191,205.987,343.325,203.061,344.591,200.002z
			 M319.502,209.964c2.054-0.616,3.267-0.876,4.365-1.384c0.271-0.126,0.441-1.298,0.191-1.587c-2.516-2.921-0.402-5.626,0.94-7.713
			c1.371-2.13,0.758-3.519,0.173-5.581c-1.252,1.496-2.267,2.708-2.852,3.407C321.411,201.254,320.57,205.091,319.502,209.964z
			 M271.419,206.011c0.926-3.275,1.711-6.056,2.496-8.836c-0.454-0.236-0.909-0.473-1.363-0.708
			c-0.599,0.769-1.523,1.456-1.738,2.319c-0.825,3.328-1.425,6.712-2.121,10.14c2.185,0.979,2.643,0.824,4.514-1.827
			C272.551,206.7,271.904,206.307,271.419,206.011z"/>
		<path fill-rule="evenodd" clip-rule="evenodd" fill="#FFFFFF" d="M295.934,227.465c6.224,1.339,12.45,2.669,18.671,4.023
			c3.05,0.665,6.078,1.425,9.135,2.059c7.326,1.52,14.662,2.999,21.997,4.479c8.55,1.726,17.125,3.336,25.648,5.183
			c7.667,1.66,15.261,3.651,22.923,5.336c3.963,0.872,8.006,1.374,12.006,2.088c2.397,0.429,4.763,1.058,7.172,1.384
			c1.821,0.246,2.227,1.209,1.837,2.737c-2.535,9.962-5.078,19.866-9.431,29.308c-4.409,9.565-9.148,18.775-15.629,27.166
			c-7.31,9.463-15.004,18.325-24.67,25.587c-9.141,6.867-19.278,11.766-29.336,16.878c-5.568,2.83-6.494,2.123-8.651-4.963
			c-2.751-9.036-5.36-18.116-8.212-27.12c-3.73-11.779-7.738-23.472-11.432-35.262c-2.486-7.937-4.509-16.019-6.968-23.965
			c-2.647-8.554-5.597-17.014-8.33-25.542c-0.523-1.632-0.834-3.382-0.922-5.093C291.609,229.158,293.418,227.504,295.934,227.465z
			 M365.354,292.899c-0.733-0.13-1.468-0.261-2.178-0.387c0.861-2.985,1.645-5.702,2.449-8.492c-3.837-0.661-6.01,0.301-5.587,2.188
			c0.689,0.088,1.43,0.182,2.575,0.327c-0.752,2.285-1.609,4.298-1.999,6.397c-0.133,0.716,0.782,2.229,1.438,2.372
			c1.74,0.382,3.185-0.314,3.253-2.471c1.835,1.58,3.557,4.322,5.919,0.56c-3.984-3.193,2.134-6.381-0.205-9.914
			c-0.586,0.263-1.579,0.383-1.821,0.873C367.817,287.152,366.616,290.041,365.354,292.899z M353.363,277.256
			c-2.605-0.713-3.229-0.05-3.213,2.087c0.013,1.645,0.637,4.053-2.581,4.106c-4.589,0.075-8.261,3.983-8.289,8.472
			c-0.02,3.124,1.972,4.371,4.843,3.215c0.823-0.331,1.898,0.014,2.849-0.065c0.924-0.076,1.901-0.163,2.713-0.546
			c0.228-0.108-0.052-1.282-0.097-1.968c-0.037-0.559-0.221-1.158-0.083-1.671c0.679-2.521,1.455-5.017,2.174-7.527
			C352.242,281.384,352.772,279.4,353.363,277.256z M337.527,283.751c-0.942-0.066-1.751-0.098-2.553-0.184
			c-4.882-0.523-9.392,3.69-9.261,8.665c0.077,2.964,2.033,4.151,4.68,2.874c0.674-0.325,1.783-0.947,2.06-0.707
			c1.985,1.728,3.17,0.348,4.534-0.819C333.536,290.048,338.777,287.259,337.527,283.751z M381.484,286.576
			c-0.116-1.024-0.22-2.82-0.336-2.821c-1.947-0.014-3.896,0.196-5.844,0.357c0.192,1.677,0.263,3.382,0.633,5.019
			c0.158,0.7,1.213,1.197,1.372,1.898c0.219,0.959-0.027,2.023-0.074,3.043c-0.937-0.313-1.88-0.604-2.805-0.948
			c-0.659-0.247-1.292-0.564-2.271-0.999c0,1.379,0,2.228,0,3.111c1.382,0.176,2.665,0.673,3.751,0.396
			c1.524-0.39,3.358-1.01,4.228-2.16c1.086-1.438,0.347-3.083-1.074-4.531c-0.858-0.874-0.888-2.562-1.289-3.883
			C378.854,285.5,379.933,285.941,381.484,286.576z M317.301,283.502c-0.909,4.206-1.688,7.801-2.602,12.031
			c0.759-0.41,1.778-0.625,2.15-1.234c0.699-1.146,0.796-2.681,1.561-3.758c1.013-1.427,2.326-3.495,3.687-3.64
			c2.773-0.295,2.634-1.387,2.017-3.436c-1.4,0.282-2.666,0.752-3.922,0.727C318.984,284.167,317.787,283.629,317.301,283.502z
			 M352.965,295.222c2.858,0.24,4.123-0.059,3.468-3.079c-0.373-1.724,0.487-3.724,0.835-5.592c0.186-0.992,0.461-1.968,0.801-3.393
			c-1.655,0.318-2.712,0.521-2.904,0.559C354.379,287.826,353.69,291.43,352.965,295.222z"/>
		<path fill-rule="evenodd" clip-rule="evenodd" fill="#FFFFFF" d="M391.859,154.384c-5.067-0.875-10.14-1.719-15.198-2.638
			c-3.08-0.559-6.152-1.179-9.206-1.867c-8.173-1.84-16.31-3.847-24.505-5.573c-8.695-1.832-17.438-3.439-26.167-5.104
			c-8.741-1.667-17.521-3.143-26.229-4.963c-7.052-1.474-14.016-3.367-21.037-4.995c-1.476-0.342-3.057-0.216-4.547-0.515
			c-7.094-1.422-14.147-3.055-21.265-4.341c-5.073-0.917-10.225-1.394-15.339-2.091c-1.304-0.178-2.607-0.397-3.891-0.686
			c-3.627-0.816-7.252-1.648-10.86-2.546c-0.795-0.199-1.516-0.701-2.271-1.063c0.542-0.622,1.006-1.337,1.638-1.846
			c1.601-1.292,3.273-2.495,4.923-3.724c0.485-0.362,0.949-0.806,1.498-1.02c6.217-2.426,12.406-4.933,18.689-7.179
			c5.7-2.037,11.492-3.824,17.275-5.617c1.238-0.384,2.627-0.251,3.927-0.477c12.595-2.182,25.312-2.243,37.976-1.394
			c5.733,0.384,11.754,0.556,17.072,3.614c0.979,0.563,2.437,0.218,3.579,0.585c5.197,1.671,10.418,3.301,15.52,5.233
			c3.83,1.451,7.693,3.008,11.191,5.104c7.006,4.198,14.159,8.311,20.531,13.365c6.883,5.459,13.142,11.764,19.279,18.082
			c3.084,3.175,5.293,7.198,7.898,10.837C392.182,153.839,392.021,154.112,391.859,154.384z"/>
		<path fill-rule="evenodd" clip-rule="evenodd" fill="#FFFFFF" d="M127.991,321.773c5.468-3.864,9.891-7.109,14.437-10.172
			c5.108-3.44,10.337-6.703,15.492-10.076c0.819-0.536,1.58-1.191,2.271-1.886c2.322-2.331,5.264-1.758,7.066,0.97
			c2.495,3.774,5.316,7.337,8.055,10.946c3.356,4.421,6.664,8.885,10.207,13.152c1.694,2.039,3.866,3.687,5.851,5.479
			c3.145,2.841,6.054,6.034,9.526,8.398c6.188,4.213,12.628,8.082,19.14,11.784c5.026,2.856,6.185,6.313,4.056,11.83
			c-2.131,5.52-3.667,11.267-5.522,16.896c-1.464,4.443-3.018,8.857-4.643,13.611c-6.278-2.913-9.588-8.626-15.199-12.857
			c0.611,2.262,1.104,4.084,1.597,5.907c-0.232,0.188-0.465,0.374-0.697,0.562c-25.054-13.678-45.853-32.479-64.41-53.978
			c0.075-0.313,0.15-0.627,0.225-0.941c2.029,0.236,4.058,0.473,6.074,0.708c0.042-1.102-3.744-3.963-6.078-5.226
			C132.921,325.519,130.678,323.648,127.991,321.773z"/>
		<path fill-rule="evenodd" clip-rule="evenodd" fill="#FFFFFF" d="M258.073,361.457c-3.762-0.916-7.573-1.668-11.272-2.794
			c-3.639-1.107-7.142-2.657-10.748-3.886c-1.725-0.588-3.288-0.815-3.948-3.135c-0.264-0.929-2.792-1.32-4.348-1.747
			c-1.88-0.517-4.058-0.38-5.692-1.278c-5.698-3.134-11.671-6.025-16.694-10.062c-7.427-5.967-14.487-12.498-21.028-19.427
			c-5.116-5.419-9.314-11.728-13.659-17.826c-0.848-1.19-0.9-3.305-0.624-4.87c0.809-4.576-0.112-6.107-4.568-6.77
			c-0.619-0.092-1.544-0.41-1.719-0.86c-3.105-8.014-6.146-16.054-9.125-24.116c-0.618-1.674-1.033-3.442-1.344-5.202
			c-0.199-1.129-0.037-2.321-0.037-3.743c35.264,35.185,70.235,70.076,105.205,104.968
			C258.339,360.958,258.206,361.208,258.073,361.457z"/>
		<path fill-rule="evenodd" clip-rule="evenodd" fill="#FFFFFF" d="M442.27,90.16c2.143-1.473,3.414-2.56,4.883-3.173
			c0.281-0.117,1.732,1.539,1.964,2.535c0.604,2.592-1.781,2.914-3.359,3.253C445.055,92.926,444.021,91.533,442.27,90.16z"/>
		<path fill-rule="evenodd" clip-rule="evenodd" fill="#FFFFFF" d="M449.113,100.955c-2.291,1.224-4.398,2.926-6.557,0.461
			c-0.432-0.492-0.221-2.174,0.305-2.75C444.055,97.357,447.212,98.522,449.113,100.955z"/>
		<path fill-rule="evenodd" clip-rule="evenodd" fill="#FFFFFF" d="M421.421,87.059c2.144,3.342,0.327,8.69-3.314,9.225
			c-2.497,0.366-2.328-1.961-1.768-3.126C417.457,90.833,417.951,87.823,421.421,87.059z"/>
		<path fill-rule="evenodd" clip-rule="evenodd" fill="#FFFFFF" d="M53.565,166.59c-2.172-4.227-1.038-8.254,1.918-9.636
			c0.651-0.304,1.721-0.414,2.248-0.072c0.485,0.315,0.909,1.584,0.655,2.039C57.039,161.332,55.468,163.619,53.565,166.59z"/>
		<path fill-rule="evenodd" clip-rule="evenodd" fill="#FFFFFF" d="M133.285,382.266c0.471,3.254-0.922,6.362-3.478,7.373
			c-0.571,0.226-2.173-0.506-2.272-1.003C126.933,385.621,130.036,382.218,133.285,382.266z"/>
		<path fill-rule="evenodd" clip-rule="evenodd" fill="#FFFFFF" d="M28.348,160.33c0.995-1.162,1.887-2.444,3.038-3.422
			c0.43-0.364,1.465-0.015,2.224,0.009c-0.199,0.708-0.174,1.723-0.641,2.063c-1.219,0.891-2.654,1.487-4.003,2.201
			C28.76,160.897,28.554,160.614,28.348,160.33z"/>
		<path fill-rule="evenodd" clip-rule="evenodd" fill="#FFFFFF" d="M456.939,90.735c1.227-1.381,2.452-2.763,3.869-4.361
			C462.354,89.952,461.038,91.733,456.939,90.735z"/>
		<path fill-rule="evenodd" clip-rule="evenodd" d="M282.745,143.847c0.245-2.081,0.467-3.969,0.718-6.101c0.751,0,1.678,0,3.169,0
			c-0.967,3.447-1.98,6.638-2.729,9.89c-0.455,1.978-0.765,4.063-0.66,6.075c0.11,2.116-1.041,3.83-2.481,2.816
			c-1.622-1.142-2.577-0.439-3.92,0.035c-2.385,0.843-4.53-0.992-4.456-3.675C272.523,147.931,277.438,143.416,282.745,143.847z
			 M275.494,153.901c5.233-0.818,7.143-4.898,4.482-9.301C277.423,147.176,274.151,149.416,275.494,153.901z"/>
		<path fill-rule="evenodd" clip-rule="evenodd" d="M239.409,137.503c0.337,0,1.136,0,2.552,0c-0.5,1.69-1.006,3.118-1.332,4.586
			c-0.323,1.457-0.462,2.955-0.823,5.384c2.11-2.366,3.492-4.588,6.868-3.283c-0.194,2.88-0.728,5.968-0.506,9.001
			c0.192,2.641-0.595,3.566-3.665,3.262c0.563-2.939,1.119-5.831,1.735-9.047c-3.305-0.838-4.004,2.4-5.472,4.273
			c-0.755,0.963-0.868,2.41-1.553,3.454c-0.461,0.704-1.416,1.085-2.681,1.992C236.291,150.052,237.799,143.98,239.409,137.503z"/>
		<path fill-rule="evenodd" clip-rule="evenodd" d="M264.946,196.556c0.313-1.837,0.639-3.744,1.045-6.124
			c0.157-0.027,1.002-0.172,2.514-0.431c-0.488,2.952-0.769,5.532-1.373,8.033c-0.489,2.028-1.463,3.937-2.022,5.954
			c-0.215,0.777,0.105,1.709,0.211,2.567c0.082,0.662,0.5,1.735,0.265,1.898c-0.76,0.527-2.127,1.256-2.585,0.938
			c-1.406-0.979-2.504-0.333-3.78,0.017c-2.988,0.821-3.884,0.023-4.075-2.951C254.816,201.376,258.671,196.585,264.946,196.556z
			 M256.859,205.542c0.407,0.794,0.582,1.716,1.042,1.891c0.609,0.231,1.829,0.148,2.113-0.265c1.501-2.179,2.85-4.471,4.089-6.81
			c0.198-0.374-0.267-1.397-0.714-1.727c-0.424-0.312-1.289-0.285-1.856-0.096C258.117,199.667,258.494,203.184,256.859,205.542z"/>
		<path fill-rule="evenodd" clip-rule="evenodd" d="M287.599,197.457c-0.44,1.992-0.961,4.195-1.402,6.415
			c-0.153,0.776-0.061,1.598-0.178,2.384c-0.159,1.066-0.412,2.12-0.626,3.178c-1.112-0.289-2.226-0.578-3.753-0.974
			c-2.524,1.842-4.887,1.778-5.76-0.522c-1.272-3.351,3.133-11.021,6.654-11.288C284.03,196.536,285.578,197.11,287.599,197.457z
			 M278.713,207.684c3.753-0.804,6.216-3.978,5.817-7.394c-0.206-1.77-0.878-2.674-2.828-1.475
			C279.146,200.387,277.836,203.888,278.713,207.684z"/>
		<path fill-rule="evenodd" clip-rule="evenodd" d="M295.007,199.325c0.794-0.938,1.588-1.877,2.563-3.031
			c0.615,0.896,0.961,1.333,1.233,1.81c0.78,1.37,1.442,1.67,2.727,0.31c0.755-0.799,2.176-0.969,3.297-1.423
			c0.271,1.504,0.675,3.001,0.751,4.515c0.037,0.728-0.755,1.475-0.796,2.233c-0.061,1.132,0.211,2.281,0.425,4.166
			c-0.602,0.305-1.862,0.943-3.122,1.581c-0.321-0.249-0.643-0.497-0.964-0.745c0.856-2.889,1.714-5.776,2.744-9.248
			c-1.045,0.183-2.215,0.06-2.472,0.487c-1.268,2.105-2.252,4.379-3.428,6.544c-0.502,0.922-1.224,1.726-1.846,2.583
			c-0.394-0.207-0.788-0.415-1.181-0.622c0.494-1.764,1.032-3.517,1.473-5.295c0.4-1.62,1.837-3.696-1.479-3.952L295.007,199.325z"
			/>
		<path fill-rule="evenodd" clip-rule="evenodd" d="M330.547,205.591c-0.06,2.894,0.781,3.097,5.615,0.819
			c0.185,0.213,0.368,0.426,0.553,0.639c-1.072,0.796-2.072,2.1-3.233,2.264c-1.526,0.216-3.701,0.068-4.669-0.875
			c-1.885-1.837-0.824-7.223,1.284-9.069c0.747-0.654,1.336-1.835,2.149-1.993c1.641-0.318,3.385-0.1,5.086-0.102
			c-0.245,1.57,0.045,3.647-0.854,4.596C334.984,203.443,332.727,204.292,330.547,205.591z M330.556,203.245
			c3.969-0.747,4.833-1.831,4.229-5.27C332.497,198.965,330.382,199.92,330.556,203.245z"/>
		<path fill-rule="evenodd" clip-rule="evenodd" d="M255.125,144.269c3.338-1.096,4.457-0.458,4.979,2.839
			c0.666,4.195-1.905,9.155-5.311,9.558c-1.6,0.189-3.811-0.173-4.877-1.193c-1.58-1.511-0.956-6.345,0.297-7.72
			c0.77-0.844,1.216-2.048,2.095-2.707c0.762-0.571,1.928-0.603,2.916-0.872c-0.15,0.563-0.178,1.205-0.476,1.674
			c-1.089,1.714-2.676,3.241-3.266,5.095c-0.373,1.174,0.69,2.804,1.109,4.229c1.014-0.388,2.334-0.505,2.971-1.226
			c1.115-1.264,2.077-2.807,2.621-4.397C258.999,147.162,257.419,144.718,255.125,144.269z"/>
		<path fill-rule="evenodd" clip-rule="evenodd" d="M310.804,205.008c0.668,3.493,1.743,3.693,5.959,1.363
			c-0.116,2.432-1.688,3.52-4.764,3.295c-2.328-0.17-4.41-2.396-3.752-4.55c0.887-2.9,1.672-5.893,4.86-7.581
			c1.945-1.031,3.517-1.807,4.93,0.254c1.076,1.569-0.316,4.856-2.232,5.605C314.238,204.009,312.6,204.438,310.804,205.008z
			 M316.215,198.014c-3.215,0.353-4.578,2.174-5.24,4.909C314.422,203.133,316.181,201.598,316.215,198.014z"/>
		<path fill-rule="evenodd" clip-rule="evenodd" d="M230.15,144.632c-1.258,1.858-3.013,3.56-3.658,5.61
			c-1.016,3.229,0.3,4.339,3.569,3.646c0.664-0.14,1.303-0.399,1.954-0.604c0.149,0.251,0.298,0.504,0.447,0.756
			c-1.367,0.879-2.632,2.203-4.123,2.544c-2.947,0.675-4.493-0.699-4.937-3.716c-0.625-4.255,4.374-9.53,8.56-9.21
			c2.406,0.184,2.627,1.526,2.068,3.306c-0.145,0.463-0.974,0.903-1.537,0.976c-0.348,0.044-0.941-0.551-1.15-0.99
			c-0.289-0.604-0.318-1.331-0.458-2.005C230.64,144.842,230.395,144.737,230.15,144.632z"/>
		<path fill-rule="evenodd" clip-rule="evenodd" d="M264.077,143.478c0.967,0.578,2.003,1.197,3.102,1.853
			c0.72-0.44,1.897-1.162,3.643-2.23c0.107,1.885,0.173,3.023,0.246,4.316c-4.441,0.154-5.788,3.175-6.632,6.583
			c-0.316,1.277-0.216,2.941-2.121,2.405c-0.402-0.113-0.558-2.066-0.378-3.092C262.463,150.306,263.217,147.34,264.077,143.478z"/>
		<path fill-rule="evenodd" clip-rule="evenodd" d="M344.591,200.002c-1.266,3.059-2.399,5.985-3.728,8.82
			c-0.22,0.467-1.292,0.536-2.508,0.989c1.129-4.477,2.109-8.364,3.253-12.897c0.774-0.296,2.278-1.275,2.613,1.716
			c1.209-0.752,2.041-1.271,3.196-1.99c1.07,1.297,1.841,2.381-0.494,3.159C346.199,200.041,345.361,199.944,344.591,200.002z"/>
		<path fill-rule="evenodd" clip-rule="evenodd" d="M319.502,209.964c1.068-4.873,1.909-8.709,2.818-12.859
			c0.585-0.698,1.6-1.911,2.852-3.407c0.585,2.062,1.198,3.451-0.173,5.581c-1.343,2.087-3.456,4.792-0.94,7.713
			c0.25,0.29,0.079,1.461-0.191,1.587C322.769,209.088,321.556,209.348,319.502,209.964z"/>
		<path fill-rule="evenodd" clip-rule="evenodd" d="M294.934,199.238c-1.793,3.321-2.461,7.305-5.092,10.131
			c-0.309-0.142-0.617-0.284-0.925-0.425c0.708-3.866,1.415-7.731,2.206-12.047c0.148-0.012,1.117-0.09,1.674-0.134
			c0.912,1.058,1.562,1.811,2.211,2.563C295.007,199.325,294.934,199.238,294.934,199.238z"/>
		<path fill-rule="evenodd" clip-rule="evenodd" d="M271.419,206.011c0.485,0.295,1.132,0.689,1.787,1.087
			c-1.871,2.651-2.329,2.806-4.514,1.827c0.696-3.428,1.296-6.812,2.121-10.14c0.215-0.864,1.14-1.551,1.738-2.319
			c0.454,0.236,0.909,0.473,1.363,0.708C273.13,199.956,272.345,202.736,271.419,206.011z"/>
		<path fill-rule="evenodd" clip-rule="evenodd" d="M353.363,277.256c-0.591,2.145-1.121,4.128-1.685,6.103
			c-0.719,2.511-1.495,5.006-2.174,7.527c-0.138,0.513,0.046,1.112,0.083,1.671c0.045,0.686,0.324,1.859,0.097,1.968
			c-0.812,0.383-1.789,0.47-2.713,0.546c-0.95,0.079-2.025-0.266-2.849,0.065c-2.871,1.156-4.862-0.091-4.843-3.215
			c0.028-4.488,3.7-8.396,8.289-8.472c3.218-0.054,2.594-2.462,2.581-4.106C350.135,277.206,350.758,276.543,353.363,277.256z
			 M347.734,285.151c-2.998-0.391-7.055,3.911-6.289,6.617c0.155,0.55,1.525,1.177,2.235,1.074
			C346.477,292.439,347.801,289.832,347.734,285.151z"/>
		<path fill-rule="evenodd" clip-rule="evenodd" d="M337.527,283.751c1.25,3.508-3.991,6.297-0.54,9.829
			c-1.364,1.167-2.549,2.547-4.534,0.819c-0.276-0.24-1.386,0.382-2.06,0.707c-2.646,1.277-4.603,0.09-4.68-2.874
			c-0.131-4.975,4.379-9.188,9.261-8.665C335.776,283.653,336.585,283.685,337.527,283.751z M327.84,290.651
			c0.638,2.477,2.082,3.451,3.495,2.039c1.53-1.529,2.428-3.742,3.381-5.76c0.216-0.458-0.301-1.683-0.8-1.942
			c-0.569-0.297-1.844-0.202-2.204,0.23C330.291,286.921,329.11,288.823,327.84,290.651z"/>
		<path fill-rule="evenodd" clip-rule="evenodd" d="M381.484,286.576c-1.552-0.635-2.631-1.076-3.709-1.518
			c0.401,1.321,0.431,3.009,1.289,3.883c1.421,1.448,2.16,3.093,1.074,4.531c-0.869,1.15-2.703,1.771-4.228,2.16
			c-1.086,0.276-2.369-0.221-3.751-0.396c0-0.884,0-1.732,0-3.111c0.979,0.435,1.611,0.752,2.271,0.999
			c0.925,0.345,1.868,0.635,2.805,0.948c0.047-1.02,0.293-2.084,0.074-3.043c-0.159-0.701-1.214-1.198-1.372-1.898
			c-0.37-1.637-0.44-3.342-0.633-5.019c1.948-0.161,3.896-0.371,5.844-0.357C381.265,283.756,381.368,285.552,381.484,286.576z"/>
		<path fill-rule="evenodd" clip-rule="evenodd" d="M317.301,283.502c0.486,0.127,1.684,0.665,2.891,0.69
			c1.256,0.025,2.521-0.444,3.922-0.727c0.617,2.049,0.757,3.141-2.017,3.436c-1.36,0.145-2.674,2.213-3.687,3.64
			c-0.765,1.077-0.861,2.612-1.561,3.758c-0.372,0.609-1.392,0.824-2.15,1.234C315.613,291.303,316.392,287.708,317.301,283.502z"/>
		<path fill-rule="evenodd" clip-rule="evenodd" d="M365.304,292.83c-0.066,2.16-1.511,2.856-3.251,2.475
			c-0.656-0.143-1.571-1.656-1.438-2.372c0.39-2.1,1.247-4.112,1.999-6.397c-1.146-0.146-1.886-0.239-2.575-0.327
			c-0.423-1.887,1.75-2.849,5.587-2.188c-0.805,2.79-1.588,5.507-2.449,8.492c0.71,0.126,1.444,0.257,2.178,0.387L365.304,292.83z"
			/>
		<path fill-rule="evenodd" clip-rule="evenodd" d="M365.354,292.899c1.263-2.858,2.464-5.747,3.845-8.547
			c0.242-0.49,1.235-0.61,1.821-0.873c2.339,3.533-3.779,6.721,0.205,9.914c-2.362,3.763-4.084,1.021-5.92-0.562
			C365.304,292.83,365.354,292.899,365.354,292.899z"/>
		<path fill-rule="evenodd" clip-rule="evenodd" d="M352.965,295.222c0.726-3.792,1.414-7.396,2.199-11.505
			c0.192-0.037,1.249-0.24,2.904-0.559c-0.34,1.425-0.615,2.4-0.801,3.393c-0.348,1.868-1.208,3.868-0.835,5.592
			C357.088,295.163,355.823,295.462,352.965,295.222z"/>
		<path fill-rule="evenodd" clip-rule="evenodd" fill="#FFFFFF" d="M275.494,153.901c-1.343-4.486,1.929-6.726,4.482-9.301
			C282.637,149.003,280.728,153.083,275.494,153.901z"/>
		<path fill-rule="evenodd" clip-rule="evenodd" fill="#FFFFFF" d="M256.859,205.542c1.635-2.357,1.258-5.875,4.674-7.006
			c0.567-0.188,1.433-0.215,1.856,0.096c0.447,0.33,0.912,1.354,0.714,1.727c-1.239,2.339-2.588,4.631-4.089,6.81
			c-0.284,0.413-1.504,0.496-2.113,0.265C257.441,207.258,257.267,206.336,256.859,205.542z"/>
		<path fill-rule="evenodd" clip-rule="evenodd" fill="#FFFFFF" d="M278.713,207.684c-0.877-3.796,0.434-7.297,2.989-8.869
			c1.95-1.199,2.622-0.294,2.828,1.475C284.929,203.707,282.466,206.88,278.713,207.684z"/>
		<path fill-rule="evenodd" clip-rule="evenodd" fill="#FFFFFF" d="M330.556,203.245c-0.174-3.325,1.941-4.28,4.229-5.27
			C335.389,201.414,334.524,202.498,330.556,203.245z"/>
		<path fill-rule="evenodd" clip-rule="evenodd" fill="#FFFFFF" d="M255.125,144.269c2.294,0.449,3.874,2.893,3.059,5.28
			c-0.544,1.591-1.506,3.134-2.621,4.397c-0.637,0.721-1.957,0.837-2.971,1.226c-0.419-1.425-1.482-3.056-1.109-4.229
			c0.59-1.854,2.177-3.381,3.266-5.095c0.298-0.47,0.325-1.111,0.476-1.674L255.125,144.269z"/>
		<path fill-rule="evenodd" clip-rule="evenodd" fill="#FFFFFF" d="M316.215,198.014c-0.034,3.584-1.793,5.119-5.24,4.909
			C311.637,200.188,313,198.367,316.215,198.014z"/>
		<path fill-rule="evenodd" clip-rule="evenodd" fill="#FFFFFF" d="M347.734,285.151c0.066,4.681-1.258,7.288-4.054,7.691
			c-0.71,0.103-2.08-0.524-2.235-1.074C340.68,289.063,344.736,284.761,347.734,285.151z"/>
		<path fill-rule="evenodd" clip-rule="evenodd" fill="#FFFFFF" d="M327.84,290.651c1.271-1.828,2.451-3.73,3.872-5.433
			c0.36-0.433,1.635-0.527,2.204-0.23c0.499,0.26,1.016,1.484,0.8,1.942c-0.953,2.018-1.851,4.23-3.381,5.76
			C329.922,294.103,328.478,293.128,327.84,290.651z"/>
	</g>
</g>
</svg>
