<?xml version="1.0" encoding="utf-8"?>
<!-- Generator: Adobe Illustrator 16.0.0, SVG Export Plug-In . SVG Version: 6.00 Build 0)  -->
<!DOCTYPE svg PUBLIC "-//W3C//DTD SVG 1.1//EN" "http://www.w3.org/Graphics/SVG/1.1/DTD/svg11.dtd">
<svg version="1.1" id="Layer_1" xmlns="http://www.w3.org/2000/svg" xmlns:xlink="http://www.w3.org/1999/xlink" x="0px" y="0px"
	 width="500px" height="500px" viewBox="0 0 500 500" enable-background="new 0 0 500 500" xml:space="preserve">
<g>
	<g>
		<path fill-rule="evenodd" clip-rule="evenodd" fill="#FFFFFF" d="M469.026,501.106c-145.279,0-290.56,0-435.841,0
			c0-166.667,0-333.333,0-500c145.281,0,290.562,0,435.841,0C469.026,167.773,469.026,334.439,469.026,501.106z M215.962,353.783
			c-5.125,18.226-10.154,36.109-15.182,53.993c0.849,0.249,1.699,0.497,2.548,0.745c2.381-7.99,4.762-15.982,7.38-24.77
			c5.15,5.552,9.682,10.437,15.266,16.457c-0.534-3.814-0.842-6.021-1.171-8.372c5.217,1.117,9.961,2.133,15.205,3.255
			c-1.806,2.285-3.25,4.112-4.694,5.94c0.263,0.28,0.527,0.56,0.791,0.84c6.35-2.323,12.7-4.646,19.744-7.224
			c0,5.057-0.057,9.083,0.012,13.109c0.15,8.926,0.176,8.926,2.869,10.58c0-19.698,0-39.119,0-58.863
			c45.105-1.644,83.056-18.172,112.06-52.625c28.999-34.447,39.7-74.712,34.534-119.08c16.388-3.357,31.983-6.552,47.58-9.747
			c-0.05-0.552-0.101-1.104-0.149-1.655c-1.549-0.526-3.097-1.052-4.82-1.639c0.675-7.441,1.324-14.6,1.974-21.76
			c-0.411-0.129-0.821-0.258-1.232-0.388c-1.332,1.726-2.665,3.454-3.812,4.939C418.671,74.953,362.123,28.408,277.18,14.751
			c1.306-1.569,2.564-3.083,3.823-4.597c-6.09,0.485-11.386,2.346-16.813,3.667c-7.78,1.894-7.747,1.725-7.693,9.696
			c0.073,10.806,0.019,21.613,0.019,32.391c-88.808,2.407-141.44,67.256-149.224,132.057c-4.178,34.792,2.625,67.514,20.291,97.607
			C147.698,319.835,177.625,342.083,215.962,353.783z M403.449,75.446c3.628-1.151,6.829-2.217,9.963-0.249
			c0.291,0.183,1.717-1.44,2.656-2.261c-4.952-4.401-4.916-4.353-0.002-7.97c0.668-0.491,0.77-1.75,1.133-2.653
			c-0.941-0.22-2.29-0.946-2.757-0.572c-2,1.603-3.492,1.742-5.458-0.19c-0.557-0.546-2.524,0.343-4.18,0.631
			C408.268,66.382,408.268,66.382,403.449,75.446z M226.614,458.846c0.03,0.655,0.06,1.311,0.09,1.966
			c1.675,0.644,3.35,1.288,5.024,1.933c-0.812,1.89-1.318,4.006-2.506,5.62c-1.985,2.697-4.406,5.073-6.644,7.584
			c0.264,0.61,0.527,1.22,0.791,1.828c3.231-0.87,6.463-1.741,9.694-2.611c-1.061-0.925-2.12-1.85-3.229-2.816
			c1.191-1.592,2.989-3.163,3.676-5.124c0.859-2.454,0.806-5.228,1.146-7.863C231.975,459.189,229.294,459.018,226.614,458.846z
			 M239.407,449.802c-3.944-3.637-29.302-3.456-32.63,0C217.691,449.802,228.211,449.802,239.407,449.802z M214.617,437.373
			c1.872,1.15,2.503,1.874,3.019,1.798c2.564-0.376,5.085-3.229,7.649,0.021c0.642-1.304,2.146-3.389,1.787-3.785
			c-2.352-2.593-2.354-4.312,0.937-5.981c0.46-0.233,0.099-2.087,0.118-3.189c-3.052,0.152-6.103,0.306-10.259,0.513
			C223.387,432.283,221.61,435.392,214.617,437.373z M216.105,477.375c1.545-6.937,2.895-12.993,4.244-19.051
			c-0.693-0.222-1.387-0.441-2.081-0.663c-4.739,5.206-1.915,13.622-7.7,19.103C213.122,477.045,214.656,477.214,216.105,477.375z"
			/>
		<path fill-rule="evenodd" clip-rule="evenodd" d="M215.962,353.783c-38.337-11.7-68.264-33.948-88.379-68.212
			c-17.666-30.093-24.469-62.814-20.291-97.607c7.784-64.801,60.416-129.65,149.224-132.057c0-10.778,0.055-21.585-0.019-32.391
			c-0.054-7.971-0.087-7.802,7.693-9.696c5.427-1.321,10.723-3.181,16.813-3.667c-1.259,1.514-2.518,3.027-3.823,4.597
			c84.943,13.657,141.491,60.202,167.685,142.77c1.146-1.485,2.479-3.213,3.812-4.939c0.411,0.129,0.821,0.258,1.232,0.388
			c-0.649,7.16-1.299,14.319-1.974,21.76c1.724,0.586,3.271,1.113,4.82,1.639c0.049,0.551,0.1,1.103,0.149,1.655
			c-15.597,3.195-31.192,6.39-47.58,9.747c5.166,44.368-5.535,84.632-34.534,119.08c-29.004,34.453-66.954,50.981-112.06,52.625
			c0,19.744,0,39.165,0,58.863c-2.693-1.654-2.719-1.654-2.869-10.58c-0.068-4.026-0.012-8.053-0.012-13.109
			c-7.044,2.577-13.394,4.9-19.744,7.224c-0.264-0.28-0.527-0.56-0.791-0.84c1.444-1.828,2.888-3.655,4.694-5.94
			c-5.244-1.122-9.988-2.138-15.205-3.255c0.329,2.351,0.637,4.558,1.171,8.372c-5.584-6.021-10.116-10.905-15.266-16.457
			c-2.618,8.787-5,16.779-7.38,24.77c-0.85-0.248-1.699-0.496-2.548-0.745C205.808,389.893,210.837,372.009,215.962,353.783z
			 M256.966,354.326c2.524,0.554,4.744,1.586,6.878,1.429c30.194-2.218,57.936-11.179,82.168-29.921
			c25.469-19.699,42.322-45.194,51.127-75.984c9.643-33.724,7.889-67.015-5.65-99.4c-13.525-32.35-35.899-57.063-66.853-73.491
			c-19.863-10.543-41.399-15.899-63.911-16.946c-18.827-0.874-37.104,2.613-54.737,8.679c-18.011,6.197-34.253,15.753-48.347,28.858
			c-15.577,14.484-27.876,31.28-36.014,50.871c-9.585,23.077-13.616,47.071-11.199,72.192c3.806,39.55,20.35,72.673,49.841,98.964
			c25.584,22.807,56.374,33.757,90.311,36.223C252.717,355.954,254.948,354.819,256.966,354.326z M440.491,157.353
			c-17.24-73.34-87.313-132.399-163.648-138.574c1.063,1.791,2.056,3.463,3.71,6.25c-7.755-2.786-14.146-5.083-20.734-7.45
			c0,13.415,0,25.875,0,38.375c79.702,7.671,127.627,50.873,145.775,128.236c13.182-2.659,26.553-5.356,40.653-8.201
			c-4.268-7.388-7.989-13.832-11.71-20.275c0.383-0.272,0.767-0.545,1.15-0.819C437.086,155.611,438.485,156.328,440.491,157.353z
			 M227.463,389.217c3.837,1.019,6.769,1.796,10.579,2.808c-1.171-2.207-1.832-3.452-2.988-5.632
			c7.382,2.001,13.768,3.732,20.368,5.521c0-11.3,0-21.717,0-31.61c-11.639-1.835-22.813-3.664-34.023-5.239
			c-0.927-0.131-2.734,1.259-3.05,2.277c-2.42,7.815-4.572,15.715-6.937,24.043c7.336,1.403,14.207,2.716,22.521,4.305
			C231.104,387.231,229.751,387.969,227.463,389.217z"/>
		<path fill-rule="evenodd" clip-rule="evenodd" d="M403.449,75.446c4.818-9.063,4.818-9.063,1.355-13.265
			c1.655-0.288,3.623-1.177,4.18-0.631c1.966,1.933,3.458,1.793,5.458,0.19c0.467-0.374,1.815,0.352,2.757,0.572
			c-0.363,0.903-0.465,2.163-1.133,2.653c-4.914,3.618-4.95,3.569,0.002,7.97c-0.939,0.821-2.365,2.443-2.656,2.261
			C410.278,73.229,407.077,74.294,403.449,75.446z"/>
		<path fill-rule="evenodd" clip-rule="evenodd" d="M226.614,458.846c2.681,0.172,5.361,0.344,8.042,0.516
			c-0.34,2.636-0.287,5.409-1.146,7.863c-0.687,1.961-2.485,3.532-3.676,5.124c1.109,0.967,2.168,1.892,3.229,2.816
			c-3.231,0.87-6.463,1.741-9.694,2.611c-0.264-0.608-0.527-1.218-0.791-1.828c2.238-2.511,4.659-4.887,6.644-7.584
			c1.188-1.614,1.694-3.73,2.506-5.62c-1.674-0.645-3.349-1.289-5.024-1.933C226.674,460.156,226.644,459.501,226.614,458.846z"/>
		<path fill-rule="evenodd" clip-rule="evenodd" d="M239.407,449.802c-11.195,0-21.716,0-32.63,0
			C210.104,446.346,235.463,446.165,239.407,449.802z"/>
		<path fill-rule="evenodd" clip-rule="evenodd" d="M214.617,437.373c6.993-1.981,8.771-5.09,3.25-10.624
			c4.157-0.207,7.208-0.36,10.259-0.513c-0.019,1.103,0.343,2.956-0.118,3.189c-3.292,1.67-3.289,3.389-0.937,5.981
			c0.359,0.396-1.145,2.481-1.787,3.785c-2.564-3.251-5.085-0.397-7.649-0.021C217.12,439.247,216.489,438.523,214.617,437.373z"/>
		<path fill-rule="evenodd" clip-rule="evenodd" d="M216.105,477.375c-1.449-0.161-2.983-0.33-5.537-0.611
			c5.786-5.48,2.961-13.896,7.7-19.103c0.694,0.222,1.388,0.441,2.081,0.663C219,464.382,217.65,470.438,216.105,477.375z"/>
		<path fill-rule="evenodd" clip-rule="evenodd" fill="#FFFFFF" d="M256.966,354.326c-2.018,0.493-4.249,1.628-6.387,1.473
			c-33.938-2.466-64.727-13.416-90.311-36.223c-29.491-26.291-46.035-59.414-49.841-98.964
			c-2.417-25.121,1.614-49.115,11.199-72.192c8.138-19.591,20.438-36.387,36.014-50.871c14.094-13.105,30.336-22.662,48.347-28.858
			c17.632-6.065,35.91-9.553,54.737-8.679c22.512,1.047,44.048,6.403,63.911,16.946c30.953,16.427,53.327,41.141,66.853,73.491
			c13.539,32.385,15.293,65.677,5.65,99.4c-8.805,30.79-25.658,56.285-51.127,75.984c-24.232,18.742-51.974,27.703-82.168,29.921
			C261.71,355.912,259.49,354.88,256.966,354.326z M356.524,191.742c-3.786,1.083-6.817,2.153-9.937,2.807
			c-25.722,5.393-51.469,10.662-77.18,16.104c-3.415,0.723-6.186,1.277-8.839-2.024c-0.897-1.116-4.306-1.333-5.807-0.534
			c-1.536,0.818-2.601,3.285-3.021,5.215c-0.406,1.864,0.81,4.086,0.387,5.94c-3.731,16.393-7.67,32.739-11.773,50.05
			c-1.473-2.824-2.546-4.884-3.62-6.943c-0.423,0.095-0.847,0.188-1.271,0.284c0,10.841,0,21.684,0,32.525
			c0.347,0.079,0.694,0.158,1.041,0.235c4.644-9.665,9.288-19.33,14.53-30.237c-3.012,1.7-4.629,2.614-6.743,3.808
			c0.197-1.794,0.203-2.908,0.453-3.964c3.273-13.764,6.526-27.532,9.953-41.259c0.406-1.625,1.468-3.757,2.807-4.359
			c4.968-2.23,10.04-4.544,15.32-5.699c22.644-4.951,45.381-9.469,68.068-14.217c5.27-1.103,10.48-2.487,16.982-4.044
			c-2.136,2.991-3.411,4.778-4.687,6.565c0.304,0.374,0.607,0.748,0.909,1.122c9.736-4.763,19.472-9.525,29.209-14.289
			c-0.156-0.428-0.312-0.856-0.467-1.285c-10.556,0-21.111,0-31.665,0c-0.063,0.322-0.127,0.643-0.189,0.965
			C352.607,189.454,354.227,190.399,356.524,191.742z M147.692,279.326c0.323,0.313,0.646,0.624,0.969,0.937
			c1.718-1.763,4.584-3.337,4.913-5.33c0.678-4.11,0.361-8.504-0.317-12.654c-0.227-1.387-2.701-3.243-4.317-3.431
			c-11.258-1.313-5.728,7.877-7.276,12.449c-1.17,3.455-0.481,7.134,4.383,7.828C146.594,279.204,147.144,279.26,147.692,279.326z
			 M261.742,331.087c3.227-2.113,2.269-4.365-0.952-6.096c-3.427-1.842-7.408-1.01-8.301,2.384
			c-1.137,4.317-0.889,9.273,0.005,13.703c0.321,1.6,4.696,3.884,6.396,3.329c2.229-0.729,4.522-3.738,5.134-6.18
			C264.529,336.21,262.629,333.591,261.742,331.087z M132.665,218.647c-1.392,0.159-2.041,0.373-2.639,0.274
			c-1.484-0.243-2.944-0.63-4.414-0.959c-0.185,0.992-0.87,2.427-0.459,2.889c1.145,1.286,2.861,3.147,4.137,2.994
			c2.27-0.272,5.96-1.526,6.264-2.961c0.941-4.454,1.417-9.377,0.426-13.743c-0.707-3.115-4.021-5.93-8.219-3.505
			c-3.97,2.292-5.226,6.929-2.387,10.284C126.939,215.773,129.582,216.714,132.665,218.647z M326.051,309.542
			c0.69-0.094,1.483-0.003,2.051-0.318c1.358-0.756,2.61-1.705,3.906-2.575c-1.265-0.722-2.471-1.925-3.803-2.085
			c-6.804-0.815-8.684,1.862-7.827,11.333c1.762-0.242,3.722-1.068,5.157-0.52c1.02,0.389,1.326,2.637,1.95,4.055
			c-2.242-0.397-4.485-0.795-6.805-1.206c-1.178,2.894-0.364,5.273,2.464,6.472c3.546,1.499,7.713-0.661,9.173-4.759
			C333.834,315.686,331.576,312.188,326.051,309.542z M145.593,155.127c0.036,0.001,0.071,0.003,0.107,0.004
			c0,1.276-0.152,2.572,0.028,3.822c0.524,3.629,2.183,6.25,6.316,6.284c4.205,0.034,5.862-2.737,6.279-6.296
			c0.316-2.704,0.76-5.814-0.248-8.138c-1.06-2.443-3.474-5.313-5.844-5.947c-3.964-1.061-5.659,2.414-6.367,5.898
			C145.576,152.173,145.672,153.668,145.593,155.127z M384.864,215.954c-0.507,0.315-1.014,0.632-1.521,0.949
			c-0.631-0.311-1.245-0.837-1.896-0.887c-1.466-0.112-2.952,0.012-4.429,0.039c0.546,1.621,0.735,4.325,1.707,4.645
			c2.376,0.781,5.849,1.489,7.512,0.305c1.885-1.341,2.607-4.704,3.198-7.331c0.351-1.565-1.14-3.575-0.728-5.092
			c1.143-4.209-0.556-6.518-4.378-7.226c-4.195-0.778-7.026,0.832-7.444,6.384c2.49-0.375,4.466-0.673,6.836-1.029
			c-0.859,1.792-1.593,3.32-1.906,3.972C383.097,212.899,383.98,214.427,384.864,215.954z M375.864,272.875
			c-0.397-0.01-0.796-0.02-1.193-0.03c-0.395-4.034-0.63-8.099-1.38-12.067c-0.096-0.511-3.676-1.26-4.244-0.634
			c-2.549,2.814-4.866,5.931-6.732,9.238c-1.568,2.778-2.273,5.829,2.86,5.738c1.129-0.021,2.346,0.558,3.388,1.112
			c1.358,0.723,2.582,1.697,3.864,2.563C373.573,276.821,374.718,274.849,375.864,272.875z M370.992,153.091
			c1.677-2.655,3.876-4.771,4.285-7.19c0.371-2.188-0.846-6.483-2.01-6.726c-2.792-0.578-6.01,0.521-8.935,1.365
			c-0.461,0.133-0.284,2.473-0.402,3.793c1.16-0.054,2.363,0.068,3.468-0.209c1.17-0.293,2.245-0.965,3.362-1.471
			c0.355,0.422,0.71,0.845,1.065,1.267c-3.2,4.332-6.399,8.663-9.6,12.993c0.447,0.495,0.895,0.989,1.342,1.482
			c3.275,0,6.561,0.149,9.818-0.093c0.946-0.07,1.811-1.257,2.712-1.931c-0.826-0.925-1.545-1.994-2.52-2.72
			C372.982,153.206,371.992,153.285,370.992,153.091z M263.878,83.212c1.29-1.547,3.215-2.885,3.639-4.597
			c0.593-2.391,1.061-6.261-0.221-7.32c-1.811-1.497-5.333-1.49-7.986-1.125c-1.061,0.146-1.755,2.955-2.616,4.55
			c1.524-0.319,3.052-0.623,4.569-0.966c0.647-0.147,1.275-0.377,1.912-0.571c0.483,0.365,0.967,0.729,1.45,1.094
			c-3.01,4.363-6.02,8.725-9.479,13.741c5.374,0,9.548,0,13.723,0c0.193-0.522,0.388-1.044,0.581-1.566
			C267.723,85.448,265.995,84.443,263.878,83.212z M189.75,309.885c-1.229,3.894-2.519,7.15-3.19,10.53
			c-0.256,1.291,0.907,2.861,1.423,4.306c1.028-1.219,2.403-2.289,3.009-3.69c1.16-2.679,1.828-5.566,2.802-8.33
			c0.858-2.436,1.858-4.821,2.795-7.229c-2.639-0.379-5.274-0.773-7.917-1.123c-0.54-0.072-1.161-0.121-1.641,0.074
			c-1.234,0.501-2.411,1.146-3.611,1.733c1.015,1.061,1.896,2.324,3.091,3.109C187.336,309.809,188.596,309.691,189.75,309.885z
			 M188.223,99.959c0,2.639-0.23,5.218,0.095,7.724c0.168,1.295,1.321,2.462,2.029,3.687c1.031-1.173,2.864-2.291,2.95-3.53
			c0.317-4.552,0.144-9.148-0.055-13.72c-0.048-1.094-0.683-2.806-1.442-3.06c-0.887-0.297-2.336,0.501-3.297,1.174
			c-1.018,0.711-1.867,1.752-2.571,2.796c-0.758,1.122-1.263,2.417-1.878,3.635C185.303,99.053,186.552,99.441,188.223,99.959z
			 M322.032,96.92c0,1.95-0.271,4.541,0.114,7.031c0.191,1.243,1.578,2.302,2.425,3.444c0.891-1.121,2.508-2.216,2.546-3.365
			c0.152-4.583-0.101-9.19-0.408-13.773c-0.074-1.094-0.941-2.136-1.443-3.202c-1.061,0.533-2.198,0.956-3.159,1.631
			c-0.879,0.618-1.694,1.421-2.308,2.303c-0.872,1.257-1.533,2.663-2.286,4.006C318.831,95.556,320.149,96.118,322.032,96.92z
			 M140.604,144.938c-5.49,0.862-8.693,4.448-8.367,8.818c1.185-0.078,2.342-0.155,3.781-0.25c0,3.012-0.209,5.77,0.1,8.469
			c0.129,1.125,1.359,2.125,2.088,3.181c0.799-1.113,2.238-2.196,2.289-3.341C140.738,156.347,140.604,150.864,140.604,144.938z
			 M173.691,99.45c0,3.094-0.171,6.043,0.1,8.95c0.085,0.925,1.212,1.997,2.135,2.477c0.362,0.188,2.123-1.042,2.14-1.655
			c0.167-6.093,0.101-12.193,0.101-18.291c-0.531-0.192-1.062-0.385-1.593-0.577c-1.9,1.513-3.961,2.867-5.633,4.6
			c-0.871,0.902-1.054,2.467-1.547,3.733C170.673,98.915,171.953,99.142,173.691,99.45z M246.664,89.622
			c2.138-1.431,3.823-1.938,4.298-2.99c1.617-3.577-0.375-15.976-2.919-18.034c-2.246,2.53-4.485,5.052-7.58,8.537
			c3.092,0.313,4.394,0.445,6.2,0.629C246.664,81.372,246.664,84.801,246.664,89.622z"/>
		<path fill-rule="evenodd" clip-rule="evenodd" fill="#FFFFFF" d="M440.491,157.353c-2.006-1.025-3.405-1.742-4.804-2.457
			c-0.384,0.273-0.768,0.546-1.15,0.819c3.721,6.444,7.442,12.888,11.71,20.275c-14.101,2.844-27.472,5.542-40.653,8.201
			c-18.148-77.363-66.073-120.564-145.775-128.236c0-12.5,0-24.96,0-38.375c6.588,2.367,12.979,4.664,20.734,7.45
			c-1.654-2.787-2.646-4.459-3.71-6.25C353.179,24.954,423.251,84.013,440.491,157.353z"/>
		<path fill-rule="evenodd" clip-rule="evenodd" fill="#FFFFFF" d="M227.463,389.217c2.288-1.248,3.641-1.985,6.469-3.527
			c-8.314-1.589-15.185-2.901-22.521-4.305c2.365-8.328,4.517-16.228,6.937-24.043c0.315-1.019,2.123-2.408,3.05-2.277
			c11.211,1.575,22.385,3.404,34.023,5.239c0,9.894,0,20.311,0,31.61c-6.6-1.789-12.985-3.521-20.368-5.521
			c1.157,2.18,1.817,3.425,2.988,5.632C234.231,391.013,231.3,390.235,227.463,389.217z"/>
		<path fill-rule="evenodd" clip-rule="evenodd" d="M356.524,191.742c-2.298-1.343-3.917-2.288-5.538-3.234
			c0.063-0.322,0.127-0.643,0.189-0.965c10.554,0,21.109,0,31.665,0c0.155,0.428,0.311,0.857,0.467,1.285
			c-9.737,4.763-19.473,9.526-29.209,14.289c-0.302-0.375-0.605-0.749-0.909-1.122c1.275-1.787,2.551-3.574,4.687-6.565
			c-6.502,1.558-11.713,2.941-16.982,4.044c-22.688,4.748-45.425,9.267-68.068,14.217c-5.28,1.155-10.353,3.469-15.32,5.699
			c-1.339,0.602-2.4,2.734-2.807,4.359c-3.427,13.727-6.68,27.496-9.953,41.259c-0.25,1.056-0.256,2.17-0.453,3.964
			c2.113-1.193,3.73-2.107,6.743-3.808c-5.242,10.907-9.886,20.572-14.53,30.237c-0.347-0.077-0.694-0.156-1.041-0.235
			c0-10.842,0-21.685,0-32.525c0.423-0.096,0.847-0.189,1.271-0.284c1.073,2.06,2.147,4.119,3.62,6.943
			c4.103-17.311,8.042-33.657,11.773-50.05c0.423-1.854-0.793-4.077-0.387-5.94c0.421-1.93,1.485-4.397,3.021-5.215
			c1.501-0.799,4.909-0.583,5.807,0.534c2.653,3.301,5.424,2.747,8.839,2.024c25.711-5.441,51.458-10.711,77.18-16.104
			C349.707,193.895,352.738,192.825,356.524,191.742z"/>
		<path fill-rule="evenodd" clip-rule="evenodd" d="M147.692,279.326c-0.548-0.066-1.099-0.122-1.646-0.201
			c-4.864-0.694-5.553-4.373-4.383-7.828c1.548-4.572-3.981-13.763,7.276-12.449c1.616,0.188,4.09,2.044,4.317,3.431
			c0.678,4.15,0.995,8.544,0.317,12.654c-0.329,1.993-3.195,3.567-4.913,5.33C148.338,279.95,148.016,279.639,147.692,279.326z"/>
		<path fill-rule="evenodd" clip-rule="evenodd" d="M261.742,331.087c0.887,2.504,2.787,5.123,2.282,7.141
			c-0.611,2.441-2.904,5.451-5.134,6.18c-1.7,0.555-6.075-1.729-6.396-3.329c-0.894-4.43-1.142-9.386-0.005-13.703
			c0.893-3.394,4.874-4.226,8.301-2.384C264.011,326.722,264.969,328.974,261.742,331.087z"/>
		<path fill-rule="evenodd" clip-rule="evenodd" d="M132.665,218.647c-3.083-1.934-5.726-2.875-7.292-4.728
			c-2.838-3.355-1.583-7.992,2.387-10.284c4.198-2.425,7.512,0.39,8.219,3.505c0.991,4.366,0.516,9.289-0.426,13.743
			c-0.304,1.435-3.994,2.688-6.264,2.961c-1.276,0.153-2.992-1.708-4.137-2.994c-0.411-0.461,0.274-1.897,0.459-2.889
			c1.47,0.33,2.93,0.716,4.414,0.959C130.625,219.02,131.273,218.806,132.665,218.647z"/>
		<path fill-rule="evenodd" clip-rule="evenodd" d="M326.051,309.542c5.525,2.646,7.783,6.144,6.267,10.396
			c-1.46,4.098-5.627,6.258-9.173,4.759c-2.828-1.198-3.642-3.578-2.464-6.472c2.319,0.411,4.563,0.809,6.805,1.206
			c-0.624-1.418-0.931-3.666-1.95-4.055c-1.436-0.549-3.396,0.277-5.157,0.52c-0.856-9.471,1.023-12.148,7.827-11.333
			c1.332,0.16,2.538,1.363,3.803,2.085c-1.296,0.87-2.548,1.819-3.906,2.575C327.534,309.539,326.741,309.448,326.051,309.542z"/>
		<path fill-rule="evenodd" clip-rule="evenodd" d="M145.593,155.127c0.079-1.459-0.017-2.955,0.271-4.372
			c0.708-3.485,2.403-6.959,6.367-5.898c2.37,0.634,4.784,3.503,5.844,5.947c1.008,2.324,0.564,5.434,0.248,8.138
			c-0.417,3.559-2.075,6.33-6.279,6.296c-4.133-0.034-5.792-2.654-6.316-6.284c-0.18-1.25-0.028-2.546-0.028-3.822
			C145.665,155.131,145.629,155.129,145.593,155.127z M151.455,160.342c0.824-0.09,1.649-0.18,2.473-0.27
			c-0.272-3.595-0.545-7.191-0.817-10.786c-0.661,0.057-1.322,0.116-1.982,0.173C149.857,153.158,148.164,156.88,151.455,160.342z"
			/>
		<path fill-rule="evenodd" clip-rule="evenodd" d="M384.864,215.954c-0.884-1.527-1.768-3.055-3.05-5.271
			c0.313-0.652,1.047-2.18,1.906-3.972c-2.37,0.356-4.346,0.655-6.836,1.029c0.418-5.552,3.249-7.162,7.444-6.384
			c3.822,0.708,5.521,3.017,4.378,7.226c-0.412,1.518,1.078,3.527,0.728,5.092c-0.591,2.627-1.313,5.989-3.198,7.331
			c-1.663,1.184-5.136,0.477-7.512-0.305c-0.972-0.32-1.161-3.024-1.707-4.645c1.477-0.027,2.963-0.151,4.429-0.039
			c0.651,0.05,1.266,0.576,1.896,0.887C383.851,216.586,384.357,216.27,384.864,215.954z"/>
		<path fill-rule="evenodd" clip-rule="evenodd" d="M375.864,272.875c-1.146,1.974-2.291,3.946-3.438,5.92
			c-1.282-0.865-2.506-1.84-3.864-2.563c-1.042-0.555-2.259-1.133-3.388-1.112c-5.134,0.091-4.429-2.96-2.86-5.738
			c1.866-3.308,4.184-6.424,6.732-9.238c0.568-0.626,4.148,0.123,4.244,0.634c0.75,3.969,0.985,8.033,1.38,12.067
			C375.068,272.855,375.467,272.865,375.864,272.875z"/>
		<path fill-rule="evenodd" clip-rule="evenodd" d="M370.992,153.091c1,0.193,1.99,0.115,2.587,0.561
			c0.975,0.726,1.693,1.795,2.52,2.72c-0.901,0.674-1.766,1.86-2.712,1.931c-3.258,0.242-6.543,0.093-9.818,0.093
			c-0.447-0.494-0.895-0.987-1.342-1.482c3.2-4.331,6.399-8.661,9.6-12.993c-0.355-0.422-0.71-0.845-1.065-1.267
			c-1.117,0.506-2.192,1.178-3.362,1.471c-1.104,0.277-2.308,0.155-3.468,0.209c0.118-1.32-0.059-3.66,0.402-3.793
			c2.925-0.845,6.143-1.943,8.935-1.365c1.164,0.242,2.381,4.538,2.01,6.726C374.868,148.321,372.669,150.436,370.992,153.091z"/>
		<path fill-rule="evenodd" clip-rule="evenodd" d="M263.878,83.212c2.117,1.231,3.845,2.236,5.571,3.24
			c-0.193,0.522-0.388,1.044-0.581,1.566c-4.175,0-8.349,0-13.723,0c3.46-5.016,6.47-9.378,9.479-13.741
			c-0.483-0.364-0.967-0.729-1.45-1.094c-0.637,0.194-1.265,0.424-1.912,0.571c-1.518,0.343-3.045,0.647-4.569,0.966
			c0.861-1.596,1.556-4.404,2.616-4.55c2.653-0.364,6.176-0.372,7.986,1.125c1.281,1.059,0.813,4.929,0.221,7.32
			C267.093,80.327,265.168,81.665,263.878,83.212z"/>
		<path fill-rule="evenodd" clip-rule="evenodd" d="M189.75,309.885c-1.153-0.193-2.413-0.076-3.239-0.619
			c-1.195-0.785-2.076-2.049-3.091-3.109c1.2-0.587,2.376-1.232,3.611-1.733c0.48-0.195,1.102-0.146,1.641-0.074
			c2.643,0.35,5.278,0.744,7.917,1.123c-0.937,2.407-1.937,4.793-2.795,7.229c-0.975,2.764-1.643,5.651-2.802,8.33
			c-0.606,1.401-1.981,2.472-3.009,3.69c-0.516-1.444-1.679-3.015-1.423-4.306C187.23,317.035,188.521,313.778,189.75,309.885z"/>
		<path fill-rule="evenodd" clip-rule="evenodd" d="M188.223,99.959c-1.67-0.519-2.919-0.906-4.169-1.294
			c0.615-1.218,1.12-2.513,1.878-3.635c0.705-1.044,1.554-2.085,2.571-2.796c0.961-0.673,2.411-1.471,3.297-1.174
			c0.759,0.254,1.394,1.965,1.442,3.06c0.198,4.572,0.372,9.168,0.055,13.72c-0.086,1.239-1.919,2.357-2.95,3.53
			c-0.708-1.225-1.861-2.392-2.029-3.687C187.993,105.177,188.223,102.599,188.223,99.959z"/>
		<path fill-rule="evenodd" clip-rule="evenodd" d="M322.032,96.92c-1.883-0.802-3.201-1.364-4.52-1.926
			c0.753-1.343,1.414-2.749,2.286-4.006c0.613-0.882,1.429-1.685,2.308-2.303c0.961-0.675,2.099-1.098,3.159-1.631
			c0.502,1.066,1.369,2.107,1.443,3.202c0.308,4.583,0.561,9.19,0.408,13.773c-0.038,1.149-1.655,2.245-2.546,3.365
			c-0.847-1.142-2.233-2.201-2.425-3.444C321.762,101.461,322.032,98.871,322.032,96.92z"/>
		<path fill-rule="evenodd" clip-rule="evenodd" d="M140.604,144.938c0,5.926,0.134,11.41-0.109,16.877
			c-0.051,1.145-1.49,2.229-2.289,3.341c-0.729-1.057-1.959-2.056-2.088-3.181c-0.309-2.699-0.1-5.457-0.1-8.469
			c-1.439,0.095-2.596,0.172-3.781,0.25C131.911,149.386,135.114,145.799,140.604,144.938z"/>
		<path fill-rule="evenodd" clip-rule="evenodd" d="M173.691,99.45c-1.739-0.308-3.018-0.535-4.297-0.763
			c0.493-1.266,0.676-2.832,1.547-3.733c1.671-1.733,3.733-3.087,5.633-4.6c0.531,0.192,1.062,0.385,1.593,0.577
			c0,6.098,0.066,12.198-0.101,18.291c-0.017,0.613-1.777,1.843-2.14,1.655c-0.923-0.48-2.049-1.552-2.135-2.477
			C173.521,105.493,173.691,102.543,173.691,99.45z"/>
		<path fill-rule="evenodd" clip-rule="evenodd" d="M246.664,89.622c0-4.821,0-8.25,0-11.858c-1.806-0.184-3.108-0.315-6.2-0.629
			c3.094-3.485,5.334-6.007,7.58-8.537c2.544,2.058,4.536,14.457,2.919,18.034C250.486,87.684,248.801,88.191,246.664,89.622z"/>
		<path fill-rule="evenodd" clip-rule="evenodd" fill="#FFFFFF" d="M151.455,160.342c-3.291-3.462-1.598-7.184-0.326-10.883
			c0.661-0.057,1.321-0.116,1.982-0.173c0.272,3.595,0.545,7.191,0.817,10.786C153.104,160.162,152.279,160.251,151.455,160.342z"/>
	</g>
</g>
</svg>
