<?xml version="1.0" encoding="utf-8"?>
<!-- Generator: Adobe Illustrator 16.0.0, SVG Export Plug-In . SVG Version: 6.00 Build 0)  -->
<!DOCTYPE svg PUBLIC "-//W3C//DTD SVG 1.1//EN" "http://www.w3.org/Graphics/SVG/1.1/DTD/svg11.dtd">
<svg version="1.1" id="Layer_1" xmlns="http://www.w3.org/2000/svg" xmlns:xlink="http://www.w3.org/1999/xlink" x="0px" y="0px"
	 width="989.388px" height="251.285px" viewBox="0 0 989.388 251.285" enable-background="new 0 0 989.388 251.285"
	 xml:space="preserve">
<g>
	<g>
		<path fill-rule="evenodd" clip-rule="evenodd" fill="#FFFFFF" d="M0.75,0.75c329.796,0,659.592,0,989.389,0
			c0,83.762,0,167.523,0,251.285c-329.797,0-659.592,0-989.389,0C0.75,168.273,0.75,84.512,0.75,0.75z M647.637,175.598
			c-1.422-0.733-2.122-1.313-2.904-1.464c-6.875-1.319-13.723-2.898-20.658-3.746c-10.018-1.224-19.398-4.245-28.375-8.688
			c-7.507-3.715-15.082-7.317-22.407-11.37c-4.013-2.22-7.901-4.906-11.256-8.019c-6.218-5.767-11.712-12.185-15.488-19.953
			c-2.841-5.845-4.946-11.771-4.834-18.831c4.68,0,9.028,0.139,13.365-0.037c5.024-0.204,9.835-0.215,11.873,5.824
			c0.895-0.593,1.324-0.805,1.665-1.115c3.129-2.843,6.159-5.012,11.018-4.833c13.229,0.486,26.488,0.226,39.734,0.231
			c1.022,0,2.044-0.231,3.066-0.355c-0.015-0.46-0.027-0.919-0.041-1.379c-16.305-1.312-32.707,0.232-49.085-0.362
			c-1.984-6.703,2.437-11.69,2.659-17.574c0.378,0.057,0.757,0.112,1.136,0.169c1.183,2.105,2.367,4.211,3.55,6.316
			c0.83-2.723,0.791-5.282,0.838-7.841c0.082-4.461-0.464-9.073,0.487-13.348c1.464-6.578,4.165-12.871,5.951-19.392
			c0.921-3.362,2.02-5.19,6.046-5.088c9.089,0.229,18.193-0.148,27.292-0.213c1.396-0.01,2.796,0.323,4.625,0.551
			c-1.843,2.165-3.265,3.834-5.404,6.349c2.267-0.468,3.526-0.488,4.563-0.98c7.794-3.701,15.774-6.226,24.609-5.533
			c4.967,0.39,9.991,0.149,14.984,0.009c0.994-0.028,1.965-0.888,2.946-1.364c-0.956-0.52-1.905-1.474-2.867-1.487
			c-6.498-0.092-13.002-0.111-19.495,0.098c-5.82,0.188-11.161-1.283-16.419-3.615c-2.423-1.074-5.129-1.509-7.706-2.234
			c-0.164,0.319-0.329,0.637-0.494,0.957c1.531,1.523,3.063,3.047,4.643,4.619c-8.839,0-17.623,0-26.407,0
			c4.621-2.285,9.059-4.785,13.767-5.495c10.408-1.571,20.401-5.682,31.162-5.191c0.666,0.03,1.4-1.45,2.103-2.229
			c-0.815-0.638-1.551-1.471-2.474-1.844c-0.581-0.235-1.443,0.203-2.174,0.366c-4.794,1.069-9.577,2.185-14.38,3.207
			c-5.174,1.1-10.503,1.68-15.521,3.26c-9.305,2.929-18.415,6.304-27.292,10.573c-10.588,5.092-19.687,11.945-27.964,19.935
			c-6.35,6.13-11.888,13.126-14.541,21.821c-1.531,5.014-2.713,10.134-4.064,15.256c-0.561,0.078-1.05,0.209-1.538,0.205
			c-11.484-0.11-22.969-0.25-34.453-0.346c-2.829-0.023-3.16-2.2-3.275-4.087c-0.625-10.181-6.8-17.397-13.146-24.374
			c-6.496-7.14-14.954-11.659-23.439-16.002c-2.033-1.04-4.289-1.637-6.356-2.62c-4.808-2.287-9.38-5.236-14.385-6.9
			c-6.627-2.204-13.523-3.726-20.402-5.017c-8.743-1.642-17.55-3.552-26.389-3.928c-15.047-0.64-30.141-0.256-45.213-0.103
			c-3.323,0.034-6.637,0.905-9.955,1.385c-6.744,0.977-13.588,1.515-20.205,3.042c-7.438,1.716-14.782,4.014-21.958,6.631
			c-6.968,2.54-13.97,5.274-20.407,8.9c-6.415,3.613-12.351,8.185-18.115,12.811c-5.02,4.028-9.321,8.936-11.816,14.99
			c-2.037,4.94-3.549,10.097-5.402,15.474c-7.114,1.33-15.09-0.923-23.058,1.595c-4.621,1.459-10.08,0.265-15.285,0.265
			c-0.242-24.04-8.973-44.262-25.458-61.043c-16.745-17.048-37.524-25.199-61.186-25.339c-23.413-0.139-44.222,7.724-60.886,24.306
			C38.181,58.277,29.289,78.967,29.792,103.38c-6.577,1.839-13.423-0.637-19.813,1.569c0.683,0.783,1.349,1.148,2.016,1.149
			c4.729,0.007,9.458-0.086,14.187-0.091c1.719-0.002,3.49-0.208,3.835,2.381c0.798,5.996,1.205,12.137,2.875,17.9
			c1.957,6.757,4.4,13.563,7.855,19.653c6.096,10.749,14.232,20.024,24.207,27.447c3.859,2.872,7.997,5.569,12.386,7.477
			c5.371,2.334,11.062,4.06,16.755,5.482c5.973,1.493,12.095,3.089,18.186,3.231c7.133,0.167,14.301-1.188,21.455-1.877
			c7.82-0.752,15.079-3.594,21.878-7.126c7.305-3.793,14.575-7.941,19.974-14.532c5.076-6.197,11.033-11.826,15.218-18.565
			c7.237-11.651,10.789-24.747,11.69-38.491c0.094-1.43,0.24-2.857,0.404-4.791c12.229,0,24.003,0.103,35.773-0.081
			c2.571-0.04,3.373,0.48,3.707,3.12c0.674,5.331,2.562,10.284,5.332,15.007c3.718,6.339,8.871,11.309,14.422,15.808
			c4.59,3.72,9.572,7.15,14.841,9.788c6.161,3.084,12.726,5.464,19.291,7.618c10.364,3.401,20.749,6.915,31.364,9.328
			c8.197,1.864,16.74,2.64,25.166,2.967c15.938,0.62,31.819,0.393,47.794-1.373c12.649-1.399,24.775-4.654,36.861-7.794
			c10.031-2.607,19.414-7.911,28.875-12.455c10.623-5.104,19.947-12.038,26.025-22.396c2.431-4.142,4.565-8.713,5.591-13.362
			c1.385-6.277,0.869-6.526,7.048-6.587c10.854-0.106,21.709-0.029,32.572-0.029c0.575,1.646,1.563,3.242,1.633,4.876
			c0.416,9.794,5.335,17.604,10.88,25.107c5.863,7.932,13.578,13.81,21.646,19.363c8.899,6.127,18.771,10.36,28.644,14.282
			c8.63,3.428,18.009,4.987,27.084,7.27c2.608,0.657,5.304,1.323,7.964,1.338C639.224,176.013,643.111,178.426,647.637,175.598z
			 M799.769,89.067c-4.944,1.907-4.827,1.875-6.302-3.465c-0.767-2.778-1.718-5.594-3.122-8.092
			c-6.733-11.984-16.4-21.148-28.179-28.051c-4.482-2.627-9.23-4.884-14.05-6.833c-4.488-1.815-9.202-3.112-13.889-4.367
			c-1.03-0.276-2.365,0.587-3.56,0.926c0.77,0.823,1.39,2.032,2.336,2.398c2.84,1.1,5.753,2.207,8.737,2.703
			c6.917,1.15,12.838,4.522,18.728,7.939c10.146,5.887,19.014,13.363,25.114,23.445c2.71,4.479,3.997,9.837,5.759,14.857
			c0.353,1.008-0.553,3.005-0.067,3.329c3.146,2.095,1.059,4.859,1.589,7.348c-2.204,0.112-4.075,0.207-5.945,0.302
			c-0.021,0.408-0.042,0.815-0.063,1.223c1.886,0.234,3.772,0.468,5.787,0.718c0,2.07,0.53,4.337-0.101,6.214
			c-1.776,5.282-3.834,10.491-6.141,15.566c-3.52,7.744-9.27,13.778-16.001,18.767c-3.752,2.779-7.905,5.122-12.127,7.139
			c-6.389,3.051-12.965,5.719-19.528,8.384c-1.785,0.725-3.831,0.776-5.722,1.275c-3.074,0.813-2.318,2.421-0.942,4.263
			c3.781-1.304,7.375-2.454,10.903-3.778c6.064-2.275,12.487-3.969,18.021-7.178c6.368-3.693,12.223-8.439,17.767-13.333
			c5.49-4.846,9.815-10.921,12.454-17.764c2.392-6.203,3.79-12.787,5.75-19.636c12.583,0,25.883,0,39.289,0
			c-0.271,13.967,5.313,25.085,13.77,34.883c5.066,5.87,11.008,10.872,17.965,14.488c4.844,2.519,9.719,4.979,14.617,7.387
			c1.995,0.981,3.344,0.535,3.395-1.413c-5.213-2.774-9.917-5.848-15.036-7.868c-7.264-2.865-12.548-8.185-17.684-13.496
			c-7.685-7.948-12.136-17.797-14.256-28.681c-1.029-5.286,1.243-7.436,6.472-6.13c1.166,0.292,2.496-0.069,3.75-0.129
			c-0.052-0.395-0.103-0.79-0.154-1.186c-3.436,0-6.87,0-10.285,0c-0.625-18.186,17.672-42.983,28.525-44.084
			c-0.509,11.034-6.851,19.739-12.529,28.71c0.334,0.16,0.668,0.321,1.001,0.48c1.698-1.201,3.396-2.401,5.657-4
			c-0.154,2.724-0.052,4.818-0.448,6.815c-0.392,1.971-1.288,3.842-1.958,5.742c-4.127,0.393-4.127,0.393-8.283,7.031
			c2.559,2.116,5.128,4.241,8.073,6.678c-0.496,0.123-0.173,0.141-0.045-0.009c0.307-0.36,0.62-0.768,0.76-1.21
			c1.516-4.809,2.748-5.425,7.487-4.932c5.317,0.555,10.678,0.913,16.022,0.942c21.076,0.115,42.154,0.064,63.231,0.082
			c11.614,0.01,23.229,0.058,34.844,0.009c1.184-0.005,2.364-0.556,3.547-0.854c-0.083-0.345-0.165-0.69-0.248-1.035
			c-0.594-0.079-1.188-0.225-1.783-0.227c-16.107-0.038-32.216-0.105-48.324-0.078c-22.969,0.039-45.938,0.138-68.906,0.242
			c-2.377,0.011-3.997-0.653-3.554-3.395c0.765-4.73,1.632-9.443,2.548-14.69c1.972,2.451,3.47,4.314,4.969,6.178
			c0.593-1.358,0.523-2.328,0.371-3.283c-0.616-3.857-1.807-7.719-1.748-11.563c0.072-4.717,1.587-9.405,1.73-14.127
			c0.153-5.084,2.791-7.68,7.034-9.523c3.811-1.656,7.56-3.471,11.251-5.378c8.432-4.355,16.812-8.812,25.807-13.539
			c-0.742,3.024-1.356,5.523-1.969,8.022c0.319,0.071,0.64,0.143,0.96,0.214c5.009-5.266,10.018-10.532,15.027-15.798
			c-0.19-0.32-0.382-0.64-0.571-0.961c-7.041,1.072-14.083,2.145-21.125,3.217c-0.016,0.417-0.031,0.834-0.047,1.252
			c1.85,0.625,3.698,1.25,6.347,2.146c-9.405,4.416-17.921,8.884-26.796,12.459c-10.582,4.264-20.043,10.11-29.064,17.014
			c-3.015,2.308-5.521,4.488-7.787,7.652c-6.606,9.223-12.073,18.723-12.545,30.365c-0.107,2.652-0.956,3.67-3.808,3.607
			c-8.489-0.187-16.985-0.047-25.478-0.039c-3.682,0.003-7.362,0-10.994,0c-0.146-2.978-0.828-5.513-0.2-7.667
			C796.316,91.912,798.387,90.59,799.769,89.067z M781.684,101.185c-0.001-2.733-2.889-6.115-5.289-6.396
			c-2.986-0.349-5.204,1.749-6.732,6.521c-16.022,0-32.116-0.04-48.209,0.01c-18.72,0.057-37.439,0.254-56.159,0.271
			c-12.47,0.012-24.94-0.206-37.411-0.244c-0.994-0.003-1.991,0.606-2.987,0.93c0.1,0.446,0.199,0.893,0.298,1.339
			c1.199,0,2.399,0.002,3.6,0c21.837-0.053,43.675-0.103,65.512-0.16c21.21-0.055,42.42-0.172,63.631-0.134
			c4.632,0.009,9.384,0.035,13.855,1.045c3.32,0.75,10.08,0.158,13.18-2.848C783.726,101.394,782.694,101.288,781.684,101.185z
			 M769.456,231.286c1.75-6.821,3.389-13.206,5.053-19.688c-1.238,0-2.687,0-4.147,0c0.655,6.987-1.828,10.437-9.202,8.262
			c0.77-2.727,1.543-5.464,2.31-8.182c-1.436,0-3.198,0-4.343,0c-0.816,3.599-1.449,6.826-2.297,9.996
			c-0.866,3.244-1.942,6.433-2.986,9.839c1.556,0,2.957,0,3.973,0c0.866-3.513,1.643-6.656,2.457-9.952c2.783,0,5.307,0,7.861,0
			c0,0.896,0.183,1.588-0.031,2.118c-0.975,2.427-2.061,4.808-3.283,7.607C766.791,231.286,768.436,231.286,769.456,231.286z
			 M347.094,221.505c1.181-3.598,0.611-4.471-3.739-4.553c-1.87-0.035-3.742,0.123-5.611,0.088
			c-2.144-0.042-2.658,0.715-2.992,3.029c-0.825,5.732-2.421,11.354-3.75,17.206c3.034,0,6.512-0.003,9.991,0.001
			c4.524,0.006,4.994-0.529,4.479-5.44c-1.601,1.215-2.952,2.682-4.623,3.383c-1.569,0.658-3.477,0.508-5.236,0.713
			c0.126-1.405,0.2-2.817,0.392-4.214c0.164-1.193,0.464-2.368,0.864-4.351c1.968,0.987,3.455,1.733,5.396,2.707
			c0.302-1.67,0.613-3.385,0.953-5.26c-2.079,0.454-3.534,0.771-4.988,1.09c-0.28-0.295-0.56-0.59-0.84-0.885
			c1.09-1.888,1.792-4.756,3.38-5.383C342.309,219.028,344.757,220.725,347.094,221.505z M789.906,236.903
			c-1.124-3.85-0.626-4.893,2.475-5.1c5.179-0.346,9.193-5.423,9.222-9.71c0.011-1.652-1.5-4.282-2.895-4.752
			c-2.151-0.724-4.822,1.568-7.273-0.28c-0.014-0.01-0.918,0.825-1.04,1.35c-0.754,3.263-1.248,6.591-2.133,9.814
			c-0.85,3.096-2.065,6.091-3.173,9.278C786.456,237.333,787.992,237.143,789.906,236.903z M567.901,231.623
			c0.29-3.163,0.542-5.922,0.77-8.414c2.985-0.777,5.605-1.26,8.074-2.157c2.669-0.97,3.002-3.408,2.819-5.871
			c-0.188-2.515-1.667-3.679-4.166-3.654c-2.598,0.025-5.195,0.006-6.763,0.006c-1.83,6.971-3.527,13.438-5.273,20.091
			C564.99,231.623,566.566,231.623,567.901,231.623z M834.161,216.832c0.391-1.626,0.963-4.017,1.548-6.453c-1.636,0-3.278,0-4.92,0
			c0.334,0.194,0.668,0.391,1.002,0.585c-1.202,4.977-2.479,9.938-3.558,14.942c-0.288,1.335-0.534,3.497,0.177,4.072
			c1.845,1.49,4.284,2.947,6.673,0.955c2.013-1.678,4.292-3.449,5.372-5.698c0.831-1.732,0.632-4.643-0.334-6.326
			C839.424,217.695,836.713,217.639,834.161,216.832z M625.991,210.397c-0.141,2.329-0.023,4.003-0.378,5.569
			c-0.833,3.676-1.983,7.279-2.832,10.952c-0.812,3.515,0.38,4.613,3.99,4.95c3.403,0.319,7.715-4.178,8.958-8.737
			c0.545-2.001-2.231-6.043-4.175-6.022c-1.128,0.012-2.251,0.699-3.334,1.068c0.696-2.787,1.307-5.231,2.071-8.293
			C628.159,210.14,626.993,210.277,625.991,210.397z M85.362,236.577c-1.708,0.59-2.512,0.745-3.192,1.124
			c-2.708,1.51-5.187,1.266-7.491-0.804c-2.573-2.312-2.696-7.326,0.391-10.817c1.79-2.025,4.385-4.078,6.907-4.538
			c3.36-0.613,3.242,3.183,4.247,5.371c0.036,0.078,0.227,0.084,1.035,0.352c0.377-2.141,0.738-4.188,1.208-6.855
			c-2.59,0-4.684-0.014-6.777,0.002c-8.164,0.058-12.328,4.608-12.062,12.828c0.117,3.597,1.553,6.178,4.838,7.422
			C78.299,242.114,82.232,240.778,85.362,236.577z M375.317,225.221c-1.806,6.467-3.553,12.723-5.308,19.007
			c1.032,0,2.519,0,3.926,0c0.238-2.496,0.446-4.673,0.657-6.876c6.645,1.285,10.105-2.715,11.038-8.706
			c0.485-3.12-1.522-4.221-3.637-4.37C379.526,224.102,376.988,224.951,375.317,225.221z M673.389,218.587
			c-1.771-0.561-3.638-1.74-5.389-1.589c-4.027,0.348-8.447,8.316-7.529,12.521c0.47,2.148,1.82,2.799,3.426,2.171
			c1.892-0.74,3.446-1.719,5.414-0.108c0.22,0.18,2.691-1.374,2.888-2.368C672.886,225.731,673.034,222.144,673.389,218.587z
			 M875.177,231.777c1.382-1.07,2.325-1.801,3.268-2.53c-0.368-0.098-0.737-0.194-1.106-0.291c0.627-3.826,1.255-7.651,1.8-10.976
			c-2.26-0.389-4.22-1.24-5.968-0.922c-3.868,0.704-7.939,7.161-7.542,11.258c0.314,3.242,2.19,4.23,5.024,2.488
			C872.441,229.706,873.961,229.149,875.177,231.777z M594.223,228.979c-3.613-3.875,1.931-7.108,0.321-10.785
			c-1.169-0.066-2.401-0.313-3.583-0.16c-1.766,0.229-3.959,0.215-5.132,1.253c-1.82,1.611-3.396,3.862-4.184,6.148
			c-0.502,1.457,0.197,3.717,1.083,5.178c1.498,2.472,3.333,1.015,4.957-0.254c0.277-0.216,0.682-0.269,1.182-0.454
			C591.14,233.802,592.489,230.904,594.223,228.979z M620.93,218.568c-8.884-1.11-13.912,2.664-13.339,9.9
			c0.257,3.249,2.201,4.274,5.015,2.698c0.657-0.368,1.904-0.932,2.077-0.728c2.772,3.284,3.95-0.003,5.802-1.061
			C617.196,225.508,621.655,222.347,620.93,218.568z M806.271,227.354c0.008-0.43,0.016-0.859,0.023-1.289
			c0.927-0.183,1.945-0.181,2.761-0.586c1.764-0.875,3.855-1.623,4.981-3.07c0.821-1.055,0.724-3.294,0.207-4.701
			c-0.22-0.601-2.759-0.95-3.887-0.505c-3.435,1.355-6.127,3.818-6.499,7.681c-0.169,1.76,0.286,4.174,1.428,5.35
			c2.768,2.846,5.774,1.641,8.36-2.879C811.188,227.354,808.73,227.354,806.271,227.354z M140.041,236.847
			c-5.696-0.158-6.278-0.28-7.033-1.49c2.18-0.948,4.394-1.819,6.524-2.862c2.608-1.276,2.04-3.683,0.988-5.327
			c-0.512-0.8-2.876-0.844-4.268-0.564c-2.981,0.599-4.332,3.016-5.629,5.601c-1.495,2.979-0.971,7.38,1.441,8.495
			C134.937,242.026,138.601,240.256,140.041,236.847z M650.309,222.738c0.083-2.758-2.424-5.484-5.154-5.606
			c-2.92-0.13-8.007,5.67-8.294,9.459c-0.178,2.338,2.603,5.142,5.146,5.188C645.738,231.849,650.18,227.013,650.309,222.738z
			 M779.324,216.7c-2.149,0.903-3.243,1.363-4.612,1.939c3.964,2.637,2.674,6.656,3.16,10.221c0.7,5.126-4.864,4.295-7.011,7.131
			c2.083,1.381,3.587,1.489,5.134-0.262c3.258-3.69,6.714-7.211,9.853-10.998c1.941-2.344,1.322-5.938-1.146-7.758
			c-0.101,3.909,0.41,8.009-4.186,10.296C780.118,223.752,779.756,220.533,779.324,216.7z M408.816,233.41
			c-4.966,1.833-4.99,1.83-7.64-0.827c0.964-0.24,1.797-0.273,2.441-0.639c2.291-1.302,4.583-2.629,6.691-4.193
			c0.274-0.205-0.212-2.279-0.873-2.755c-3.467-2.492-10.262,1.182-10.723,7.216c-0.155,2.04-0.609,4.295,2.417,4.91
			C405.2,237.949,407.885,236.841,408.816,233.41z M656.752,210.217c-1.075,4.061-1.983,7.506-2.902,10.948
			c-0.685,2.564-1.501,5.103-2.001,7.7c-0.155,0.806,0.292,2.18,0.907,2.544c0.542,0.321,1.96-0.151,2.525-0.729
			c0.672-0.689,1.034-1.833,1.199-2.834c0.382-2.309,0.365-4.694,0.873-6.967c0.783-3.506,1.87-6.943,2.944-10.831
			C658.524,210.132,657.24,210.193,656.752,210.217z M118.492,231.811c0.447,0.02,0.894,0.038,1.34,0.058
			c0.218-1.344,0.961-3.645,0.563-3.863c-1.578-0.865-4.064-2.012-5.202-1.34c-2.374,1.399-4.403,3.679-6.024,5.983
			c-2.044,2.908-1.01,6.979,1.578,8.038c3.016,1.236,6.498-0.639,7.789-4.196c-2.721,0.397-5.668,2.221-7.844-1.074
			c2.932-6.827,3.514-7.407,6.759-6.928C117.806,229.622,118.149,230.717,118.492,231.811z M856.762,231.276
			c3.532,0.925,5.479-0.549,4.958-2.877c-1.476-6.61,2.898-11.785,3.327-18.074c-1.059,0-2.455,0-3.257,0
			C860.077,217.462,858.421,224.361,856.762,231.276z M849.001,230.066c4.37,0.11,6.398-2.536,6.231-8.133
			c-0.078-2.607-2.359-5.073-4.612-4.982c-3.962,0.16-8.118,6.125-7.532,10.812c0.325,2.601,1.972,3.809,4.469,3.279
			c-3.472-5.379-1.491-11.318,4.032-12.088C853.479,222.83,853.479,222.83,849.001,230.066z M126.38,238.335
			c-2.92-7.28,3.683-12.745,2.685-19.48c-1.331,0.161-2.485,0.301-2.864,0.346c-1.771,7.334-3.402,14.084-5.045,20.883
			C124.089,242.297,125.116,239.303,126.38,238.335z M363.785,216.614c-1.673,0.158-2.88,0.272-4.146,0.393
			c0.438,1.15,1.297,2.243,1.08,3.041c-0.922,3.375-2.407,6.604-3.214,10c-0.642,2.696-2.844,5.735,0.472,8.434
			c1.045-0.955,1.925-1.758,2.041-1.863C359.113,229.164,363.735,223.506,363.785,216.614z M352.787,216.919
			c-0.711,3.245-1.202,5.846-1.861,8.404c-0.892,3.465-1.977,6.88-2.8,10.359c-0.107,0.453,0.854,1.65,1.312,1.646
			c1.003-0.011,2.139-0.385,2.948-0.979c0.445-0.328,0.499-1.416,0.448-2.142c-0.09-1.294-0.839-2.695-0.528-3.839
			c1.204-4.439,2.716-8.796,4.198-13.449C354.729,216.919,353.297,216.919,352.787,216.919z M99.141,227.301
			c-0.964,4.027-1.883,7.55-2.595,11.112c-0.142,0.708,0.511,1.573,0.797,2.365c0.583-0.623,1.291-1.171,1.726-1.885
			c1.534-2.518,2.811-5.211,4.544-7.575c0.541-0.736,2.218-0.641,3.602-0.981c0-0.855,0-1.888,0-3.036
			C104.24,227.301,101.49,227.301,99.141,227.301z M821.054,216.89c-2.821,0.49-3.489,1.738-3.537,4.178
			c-0.045,2.289-1.219,4.549-1.829,6.84c-0.202,0.757-0.195,1.569-0.295,2.448c2.524,0.257,3.238-0.688,4-2.871
			c1.057-3.031,1.793-7.225,8.121-5.952c-1.162-1.792-1.731-3.408-2.312-3.412c-1.243-0.009-2.492,0.814-3.686,1.276
			C821.411,218.821,821.257,217.99,821.054,216.89z M606.54,218.231c-3.67,0-6.54,0-9.938,0c2.042,4.824-1.941,8.94-0.121,13.359
			c1.16-1.131,1.485-2.551,2.31-3.567c1.856-2.289,1.047-7.161,6.159-6.505C605.275,221.561,605.842,219.719,606.54,218.231z
			 M396.733,225.018c-0.76-0.15-1.125-0.21-1.482-0.295c-2.098-0.496-4.565-0.958-5.66,1.191c-1.099,2.156-0.429,4.402,1.695,6.229
			c0.84,0.722,0.722,2.558,1.04,3.885c-0.382,0.258-0.764,0.514-1.146,0.771c-1.363-1.193-2.727-2.386-4.191-3.667
			c-0.392,1.009-0.883,2.271-1.693,4.358c3.522-0.416,7.285,0.25,8.59-1.239c2.966-3.383-0.805-6.629-2.39-9.812
			c0.294-0.255,0.588-0.51,0.883-0.765c1.118,0.79,2.235,1.579,3.509,2.479c0.287-0.376,0.71-0.707,0.81-1.117
			C396.836,226.47,396.733,225.842,396.733,225.018z M88.968,240.438c4.83,0.349,5.599-0.689,4.077-4.256
			c-0.162-0.382-0.115-0.924,0.007-1.342c0.71-2.421,1.472-4.826,2.301-7.514c-1.325,0-2.383,0-3.255,0
			C91.053,231.704,90.052,235.896,88.968,240.438z M365.343,237.025c2.693-0.044,5.467,0.908,3.922-3.71
			c-0.584-1.747,0.832-4.167,1.346-6.277c0.2-0.82,0.429-1.633,0.725-2.751C367.203,225.373,365.112,230.071,365.343,237.025z
			 M539.992,190.951c2.834-1.871,4.86-3.21,7.602-5.021C541.35,183.975,540.163,184.722,539.992,190.951z M817.355,81.16
			c4.853-2.526,8.77-4.566,12.687-6.605c-0.15-0.327-0.303-0.654-0.453-0.981c-3.886,1.538-7.791,3.036-11.631,4.683
			C817.609,78.406,817.673,79.518,817.355,81.16z M812.459,83.757c-0.204-0.571-0.409-1.142-0.613-1.713
			c-2.184,0.986-4.366,1.972-6.549,2.958c0.266,0.586,0.531,1.174,0.796,1.762C808.215,85.761,810.337,84.759,812.459,83.757z"/>
		<path fill-rule="evenodd" clip-rule="evenodd" d="M647.637,175.598c-4.525,2.828-8.413,0.415-12.228,0.396
			c-2.66-0.015-5.355-0.681-7.964-1.338c-9.075-2.282-18.454-3.842-27.084-7.27c-9.872-3.922-19.744-8.155-28.644-14.282
			c-8.067-5.554-15.782-11.432-21.646-19.363c-5.545-7.503-10.464-15.313-10.88-25.107c-0.069-1.634-1.058-3.23-1.633-4.876
			c-10.863,0-21.719-0.077-32.572,0.029c-6.179,0.061-5.663,0.31-7.048,6.587c-1.025,4.649-3.16,9.22-5.591,13.362
			c-6.079,10.358-15.402,17.293-26.025,22.396c-9.46,4.544-18.843,9.848-28.875,12.455c-12.086,3.14-24.212,6.395-36.861,7.794
			c-15.975,1.766-31.857,1.993-47.794,1.373c-8.425-0.327-16.969-1.103-25.166-2.967c-10.615-2.413-21-5.927-31.364-9.328
			c-6.564-2.154-13.129-4.534-19.291-7.618c-5.269-2.638-10.251-6.068-14.841-9.788c-5.551-4.499-10.704-9.469-14.422-15.808
			c-2.771-4.723-4.658-9.676-5.332-15.007c-0.334-2.64-1.136-3.16-3.707-3.12c-11.77,0.183-23.544,0.081-35.773,0.081
			c-0.164,1.934-0.31,3.361-0.404,4.791c-0.901,13.744-4.453,26.839-11.69,38.491c-4.186,6.739-10.143,12.368-15.218,18.565
			c-5.399,6.591-12.669,10.739-19.974,14.532c-6.799,3.532-14.058,6.374-21.878,7.126c-7.153,0.688-14.322,2.044-21.455,1.877
			c-6.09-0.143-12.213-1.738-18.186-3.231c-5.694-1.423-11.385-3.148-16.755-5.482c-4.389-1.907-8.527-4.604-12.386-7.477
			c-9.975-7.423-18.111-16.698-24.207-27.447c-3.455-6.091-5.898-12.896-7.855-19.653c-1.669-5.763-2.076-11.905-2.875-17.9
			c-0.345-2.589-2.116-2.384-3.835-2.381c-4.729,0.004-9.458,0.098-14.187,0.091c-0.667-0.001-1.333-0.366-2.016-1.149
			c6.39-2.206,13.236,0.27,19.813-1.569c-0.503-24.414,8.389-45.104,25.348-61.979c16.664-16.582,37.474-24.444,60.886-24.306
			c23.662,0.14,44.441,8.291,61.186,25.339c16.485,16.782,25.216,37.003,25.458,61.043c5.205,0,10.664,1.194,15.285-0.265
			c7.968-2.518,15.943-0.265,23.058-1.595c1.854-5.377,3.365-10.534,5.402-15.474c2.495-6.054,6.796-10.961,11.816-14.99
			c5.764-4.626,11.701-9.198,18.115-12.811c6.437-3.626,13.439-6.36,20.407-8.9c7.176-2.617,14.521-4.915,21.958-6.631
			c6.617-1.527,13.461-2.064,20.205-3.042c3.318-0.48,6.632-1.352,9.955-1.385c15.072-0.154,30.166-0.537,45.213,0.103
			c8.839,0.376,17.646,2.286,26.389,3.928c6.879,1.292,13.775,2.813,20.402,5.017c5.005,1.665,9.577,4.613,14.385,6.9
			c2.067,0.983,4.323,1.58,6.356,2.62c8.485,4.344,16.943,8.863,23.439,16.002c6.346,6.977,12.521,14.193,13.146,24.374
			c0.115,1.888,0.446,4.064,3.275,4.087c11.484,0.097,22.969,0.236,34.453,0.346c0.488,0.004,0.978-0.127,1.538-0.205
			c1.352-5.123,2.533-10.243,4.064-15.256c2.653-8.695,8.191-15.691,14.541-21.821c8.277-7.989,17.376-14.843,27.964-19.935
			c8.877-4.269,17.987-7.645,27.292-10.573c5.018-1.58,10.347-2.16,15.521-3.26c4.803-1.022,9.586-2.138,14.38-3.207
			c0.73-0.163,1.593-0.601,2.174-0.366c0.923,0.373,1.658,1.206,2.474,1.844c-0.702,0.778-1.437,2.258-2.103,2.229
			c-10.761-0.49-20.754,3.621-31.162,5.191c-4.708,0.71-9.146,3.21-13.767,5.495c8.784,0,17.568,0,26.407,0
			c-1.58-1.572-3.111-3.096-4.643-4.619c0.165-0.319,0.33-0.638,0.494-0.957c2.577,0.725,5.283,1.16,7.706,2.234
			c5.258,2.332,10.599,3.802,16.419,3.615c6.493-0.209,12.997-0.19,19.495-0.098c0.962,0.013,1.911,0.967,2.867,1.487
			c-0.981,0.476-1.952,1.336-2.946,1.364c-4.993,0.14-10.018,0.38-14.984-0.009c-8.835-0.693-16.815,1.832-24.609,5.533
			c-1.037,0.493-2.297,0.512-4.563,0.98c2.14-2.515,3.562-4.184,5.404-6.349c-1.829-0.228-3.229-0.561-4.625-0.551
			c-9.099,0.065-18.203,0.442-27.292,0.213c-4.026-0.102-5.125,1.726-6.046,5.088c-1.786,6.521-4.487,12.813-5.951,19.392
			c-0.951,4.275-0.405,8.887-0.487,13.348c-0.047,2.559-0.008,5.118-0.838,7.841c-1.183-2.105-2.367-4.211-3.55-6.316
			c-0.379-0.057-0.758-0.112-1.136-0.169c-0.223,5.884-4.644,10.871-2.659,17.574c16.378,0.594,32.78-0.95,49.085,0.362
			c0.014,0.46,0.026,0.919,0.041,1.379c-1.022,0.124-2.044,0.356-3.066,0.355c-13.246-0.005-26.505,0.255-39.734-0.231
			c-4.858-0.179-7.889,1.99-11.018,4.833c-0.341,0.31-0.771,0.522-1.665,1.115c-2.038-6.039-6.849-6.027-11.873-5.824
			c-4.337,0.176-8.686,0.037-13.365,0.037c-0.112,7.06,1.993,12.986,4.834,18.831c3.776,7.768,9.271,14.186,15.488,19.953
			c3.354,3.112,7.243,5.799,11.256,8.019c7.325,4.053,14.9,7.655,22.407,11.37c8.977,4.443,18.357,7.465,28.375,8.688
			c6.936,0.848,13.783,2.427,20.658,3.746C645.515,174.284,646.215,174.864,647.637,175.598z M244.329,104.042
			c0.737,2.778,1.349,4.837,1.826,6.927c1.639,7.166,5.647,13.435,10.511,18.261c8.384,8.318,18.288,15.015,29.558,19.24
			c7.954,2.981,15.844,6.171,23.928,8.75c5.55,1.771,11.336,2.934,17.098,3.871c9.152,1.49,18.344,2.845,27.57,3.717
			c6.198,0.586,12.494,0.5,18.727,0.253c9.403-0.373,18.83-0.802,28.172-1.865c7.084-0.807,14.06-2.596,21.067-4.033
			c3.506-0.72,7.063-1.367,10.436-2.521c5.127-1.755,10.113-3.92,15.158-5.914c4.447-1.759,9.048-3.217,13.297-5.366
			c5.001-2.53,10.003-5.257,14.454-8.627c6.697-5.072,12.332-11.324,16.19-18.879c2.147-4.203,4.362-8.554,3.211-13.755
			c-0.724-0.136-1.44-0.382-2.158-0.386c-14.605-0.065-29.212-0.126-43.818-0.088c-0.924,0.002-2.075,0.609-2.725,1.304
			c-2.137,2.284-4.195,1.877-6.582,0.431c-1.386-0.84-3.052-1.717-4.594-1.722c-16.86-0.05-33.721,0.095-50.581,0.136
			c-28.084,0.067-56.168,0.022-84.252,0.208c-5.307,0.035-10.547,0.433-15.921,0.088c-10.317-0.661-20.713-0.085-31.077-0.031
			C250.871,104.055,247.918,104.042,244.329,104.042z M71.068,105.338c-0.001,0.189-0.001,0.377-0.002,0.566
			c-11.737,0-23.473,0.009-35.209-0.007c-2.495-0.003-3.614,0.752-3.019,3.601c1.01,4.837,1.491,9.783,2.47,14.627
			c0.656,3.244,1.29,6.655,2.808,9.529c3.576,6.769,7.244,13.568,11.682,19.779c4.63,6.48,9.771,12.743,16.771,16.975
			c4.127,2.495,8.243,5.102,12.634,7.048c6.497,2.878,13.046,6.503,19.91,7.502c12.858,1.872,25.996,2.592,38.792-1.198
			c5.027-1.488,10.207-2.861,14.829-5.236c8.552-4.395,16.786-9.409,23.039-17.039c3.967-4.841,8.499-9.271,12.024-14.403
			c2.576-3.749,3.886-8.356,5.827-12.552c3.748-8.104,4.656-16.875,5.826-25.545c0.568-4.211-1.007-5.184-5.306-4.252
			c-1.936,0.42-3.907,0.927-5.865,0.937c-8.71,0.044-17.423,0.008-26.132-0.168c-5.648-0.113-11.288-0.676-16.936-0.748
			c-5.39-0.068-10.838-0.166-16.161,0.521c-3.614,0.466-7.631-1.029-10.988,2.187c-0.929,0.89-3.798-0.043-5.71-0.449
			c-1.349-0.287-2.581-1.583-3.874-1.596C96.008,105.288,83.538,105.338,71.068,105.338z M122.021,103.31
			c25.238,0,51.281,0,77.505,0c0.4-8.02-1.801-15.32-3.493-22.778c-2.749-12.101-9.411-22.016-16.946-31.307
			c-6.168-7.607-13.918-13.592-22.55-18.552c-9.892-5.684-20.641-8.264-31.609-10.096c-8.431-1.408-8.468-1.005-8.36,7.305
			c0.063,4.895,0.012,9.792,0.012,15.555c2.476-2.302,4.155-3.863,5.833-5.424c-1.199,6.72-2.304,13.095-4.735,18.917
			c-2.269,5.435,0.517,9.447,1.977,13.963c1.283,3.967,2.609,7.921,3.915,11.881c-0.311,0.133-0.622,0.266-0.933,0.398
			c-1.603-1.333-3.205-2.665-5.371-4.465c0,6.287-0.025,11.859,0.042,17.431c0.006,0.502,0.604,0.999,0.933,1.494
			C119.398,99.372,120.557,101.11,122.021,103.31z M109.462,84.455c-0.518-0.367-1.036-0.735-1.554-1.102
			c1.005-2.695,2.179-5.342,2.981-8.096c1.679-5.765,4.862-11.401,3.167-17.628c-1.438-5.286-3.642-10.36-5.432-15.555
			c-0.402-1.166-0.489-2.439-0.721-3.663c0.245-0.011,0.49-0.021,0.735-0.032c1.527,1.605,3.055,3.209,4.583,4.813
			c0.252-0.198,0.504-0.397,0.756-0.596c0-7.376,0-14.752,0-22.139c-10.044-1.106-19.01,2.065-27.827,5.063
			c-5.822,1.98-11.447,5.054-16.534,8.549c-5.958,4.095-11.892,8.605-16.624,13.999c-4.633,5.281-7.968,11.771-11.471,17.958
			c-6.056,10.698-8.427,22.421-8.878,34.615c-0.085,2.311,0.353,3.376,3.028,3.323c13.102-0.261,26.207-0.376,39.311-0.453
			c11.472-0.067,22.945-0.014,34.063-0.014c1.088-1.896,1.637-4.197,3.05-5.026c2.541-1.491,2.688-3.385,2.589-5.817
			c-0.137-3.367-0.015-6.743-0.066-10.114c-0.017-1.132-0.228-2.26-0.349-3.369C112.478,81.14,110.97,82.797,109.462,84.455z
			 M297.515,101.376c47.278,0,93.067,0,138.856,0c0.125-0.376,0.249-0.752,0.374-1.128c-12.922-8.81-23.798-20.998-40.906-22.89
			c0.117-0.347,0.235-0.694,0.352-1.041c1.943-0.46,3.885-0.921,6.542-1.552c-8.316-6.147-15.853-11.612-23.271-17.234
			c-6.369-4.827-12.653-9.771-18.877-14.784c-3.32-2.675-6.012-2.732-8.394-0.013c-3.037,3.464-5.98,7.058-9.369,10.153
			c-6.771,6.183-12.022,13.275-15.152,21.957c-0.862,2.393-2.436,4.529-3.683,6.783c-0.3-0.104-0.601-0.208-0.902-0.311
			c0-2.042,0-4.083,0-7.024c-1.579,1.134-2.617,1.682-3.406,2.478c-5.966,6.013-11.952,12.01-17.773,18.161
			C300.293,96.63,299.216,98.835,297.515,101.376z M496.778,101.323c-1.577-5.083-2.274-9.706-4.367-13.573
			c-4.208-7.773-10.073-14.482-17.454-19.35c-6.552-4.32-13.581-8.024-20.71-11.33c-7.78-3.607-15.736-7.075-23.951-9.438
			c-8.168-2.352-16.698-3.825-25.169-4.663c-12.891-1.276-25.868-1.681-38.811-2.425c-0.911-0.052-1.835,0.144-3.859,0.321
			c14.617,10.729,28.375,20.828,42.893,31.485c0-2.832,0-4.667,0-7.308c1.058,1.23,1.548,1.742,1.972,2.303
			c3.941,5.219,7.376,10.937,11.937,15.539c5.105,5.152,11.185,9.35,16.959,13.811c0.781,0.604,2.487,0.797,3.362,0.365
			c5.376-2.653,8.142-1.556,9.566,4.264C464.533,101.323,479.97,101.323,496.778,101.323z M314.372,71.088
			c6.329-4.157,12.997-7.735,18.677-12.493c5.673-4.752,10.358-10.685,15.477-16.099c-0.272-0.421-0.545-0.842-0.817-1.263
			c-6.548,1.121-13.098,2.232-19.644,3.364c-5.75,0.994-11.75,1.278-17.188,3.172c-10.42,3.629-20.734,7.729-30.699,12.459
			c-12.608,5.985-23.662,14.246-30.674,26.692c-2.464,4.375-3.677,9.454-5.66,14.745c14.828,0,28.598,0,42.309,0
			c1.324-6.305,2.964-7.414,8.938-6.795c1.131,0.117,2.679-0.457,3.491-1.26c2.056-2.034,3.648-4.535,5.702-6.57
			c4.926-4.88,10.011-9.6,15.75-15.069C317.527,71.582,316.024,71.346,314.372,71.088z M573.908,82.931
			c-2.322,0.782-4.046,1.362-5.769,1.942c-0.238-0.271-0.476-0.542-0.714-0.813c10.292-10.154,14.862-23.028,18.624-37.154
			c-1.457,0.519-2.273,0.657-2.921,1.064c-4.012,2.521-8.283,4.743-11.901,7.746c-5.711,4.739-11.233,9.771-16.332,15.156
			c-3.116,3.293-5.229,7.524-7.903,11.254c-4.098,5.715-4.85,12.287-5.52,19.589c6.723,0,13.031,0.033,19.338-0.059
			c0.538-0.008,1.305-0.739,1.556-1.313c1.414-3.239,4.093-3.943,7.37-3.647C571.107,92.173,572.436,87.792,573.908,82.931z"/>
		<path fill-rule="evenodd" clip-rule="evenodd" d="M799.769,89.067c-1.382,1.522-3.452,2.845-3.969,4.619
			c-0.628,2.154,0.055,4.689,0.2,7.667c3.632,0,7.313,0.003,10.994,0c8.492-0.009,16.988-0.148,25.478,0.039
			c2.852,0.063,3.7-0.956,3.808-3.607c0.472-11.642,5.938-21.142,12.545-30.365c2.267-3.164,4.772-5.344,7.787-7.652
			c9.021-6.904,18.482-12.75,29.064-17.014c8.875-3.576,17.391-8.044,26.796-12.459c-2.648-0.896-4.497-1.521-6.347-2.146
			c0.016-0.418,0.031-0.834,0.047-1.252c7.042-1.073,14.084-2.145,21.125-3.217c0.189,0.321,0.381,0.641,0.571,0.961
			c-5.01,5.266-10.019,10.532-15.027,15.798c-0.32-0.071-0.641-0.143-0.96-0.214c0.612-2.5,1.227-4.998,1.969-8.022
			c-8.995,4.728-17.375,9.184-25.807,13.539c-3.691,1.908-7.44,3.723-11.251,5.378c-4.243,1.844-6.881,4.439-7.034,9.523
			c-0.144,4.723-1.658,9.411-1.73,14.127c-0.059,3.844,1.132,7.706,1.748,11.563c0.152,0.955,0.222,1.924-0.371,3.283
			c-1.499-1.864-2.997-3.727-4.969-6.178c-0.916,5.247-1.783,9.96-2.548,14.69c-0.443,2.742,1.177,3.406,3.554,3.395
			c22.969-0.104,45.938-0.203,68.906-0.242c16.108-0.027,32.217,0.04,48.324,0.078c0.596,0.001,1.189,0.148,1.783,0.227
			c0.083,0.345,0.165,0.69,0.248,1.035c-1.183,0.297-2.363,0.849-3.547,0.854c-11.614,0.048-23.229,0.001-34.844-0.009
			c-21.077-0.018-42.155,0.033-63.231-0.082c-5.345-0.029-10.705-0.388-16.022-0.942c-4.739-0.494-5.972,0.123-7.487,4.932
			c-0.14,0.442-0.453,0.85-0.76,1.21c-0.128,0.149-0.451,0.132,0.045,0.009c-2.945-2.437-5.515-4.562-8.073-6.678
			c4.156-6.638,4.156-6.638,8.283-7.031c0.67-1.9,1.566-3.771,1.958-5.742c0.396-1.997,0.294-4.091,0.448-6.815
			c-2.261,1.599-3.959,2.8-5.657,4c-0.333-0.16-0.667-0.32-1.001-0.48c5.679-8.971,12.021-17.676,12.53-28.709
			c-10.854,1.101-29.151,25.898-28.526,44.084c3.415,0,6.85,0,10.285,0c0.052,0.396,0.103,0.791,0.154,1.186
			c-1.254,0.06-2.584,0.42-3.75,0.129c-5.229-1.306-7.501,0.844-6.472,6.13c2.12,10.884,6.571,20.733,14.256,28.681
			c5.136,5.312,10.42,10.631,17.684,13.496c5.119,2.021,9.823,5.094,15.036,7.868c-0.051,1.948-1.399,2.395-3.395,1.413
			c-4.898-2.407-9.773-4.868-14.617-7.387c-6.957-3.616-12.898-8.618-17.965-14.488c-8.457-9.798-14.04-20.916-13.77-34.883
			c-13.406,0-26.706,0-39.289,0c-1.96,6.849-3.358,13.434-5.75,19.636c-2.639,6.843-6.964,12.918-12.454,17.764
			c-5.544,4.894-11.398,9.64-17.767,13.333c-5.534,3.209-11.957,4.902-18.021,7.178c-3.528,1.324-7.122,2.475-10.903,3.778
			c-1.376-1.842-2.132-3.45,0.942-4.263c1.891-0.499,3.937-0.551,5.722-1.275c6.563-2.665,13.14-5.333,19.528-8.384
			c4.222-2.017,8.375-4.359,12.127-7.139c6.731-4.988,12.481-11.022,16.001-18.767c2.307-5.075,4.364-10.285,6.141-15.566
			c0.631-1.877,0.101-4.145,0.101-6.214c-2.015-0.25-3.901-0.484-5.787-0.718c0.021-0.407,0.041-0.815,0.063-1.223
			c1.87-0.095,3.741-0.189,5.945-0.302c-0.53-2.488,1.557-5.253-1.589-7.348c-0.485-0.323,0.42-2.321,0.067-3.329
			c-1.762-5.02-3.049-10.378-5.759-14.857c-6.101-10.083-14.969-17.559-25.114-23.445c-5.89-3.417-11.811-6.789-18.728-7.939
			c-2.984-0.497-5.897-1.604-8.737-2.703c-0.946-0.366-1.566-1.575-2.336-2.398c1.194-0.338,2.529-1.202,3.56-0.926
			c4.687,1.255,9.4,2.551,13.889,4.367c4.819,1.949,9.567,4.206,14.05,6.833c11.778,6.903,21.445,16.067,28.179,28.051
			c1.404,2.498,2.355,5.314,3.122,8.092C794.941,90.942,794.824,90.975,799.769,89.067z"/>
		<path fill-rule="evenodd" clip-rule="evenodd" d="M781.684,101.185c1.011,0.103,2.042,0.208,3.287,0.337
			c-3.1,3.006-9.859,3.598-13.18,2.848c-4.472-1.01-9.224-1.036-13.855-1.045c-21.211-0.039-42.421,0.079-63.631,0.134
			c-21.837,0.057-43.675,0.107-65.512,0.16c-1.2,0.002-2.4,0-3.6,0c-0.099-0.446-0.198-0.893-0.298-1.339
			c0.996-0.324,1.993-0.933,2.987-0.93c12.471,0.038,24.941,0.255,37.411,0.244c18.72-0.018,37.439-0.214,56.159-0.271
			c16.093-0.05,32.187-0.01,48.209-0.01c1.528-4.772,3.746-6.871,6.732-6.521C778.795,95.07,781.683,98.452,781.684,101.185z"/>
		<path fill-rule="evenodd" clip-rule="evenodd" d="M769.456,231.286c-1.021,0-2.665,0-4.637,0c1.223-2.8,2.309-5.181,3.283-7.607
			c0.214-0.53,0.031-1.222,0.031-2.118c-2.555,0-5.078,0-7.861,0c-0.814,3.296-1.591,6.439-2.457,9.952c-1.016,0-2.417,0-3.973,0
			c1.044-3.406,2.12-6.595,2.986-9.839c0.848-3.17,1.48-6.397,2.297-9.996c1.145,0,2.907,0,4.343,0
			c-0.767,2.718-1.54,5.455-2.31,8.182c7.374,2.175,9.857-1.274,9.202-8.262c1.461,0,2.909,0,4.147,0
			C772.845,218.08,771.206,224.465,769.456,231.286z"/>
		<path fill-rule="evenodd" clip-rule="evenodd" d="M347.094,221.505c-2.337-0.78-4.785-2.477-6.323-1.868
			c-1.588,0.627-2.29,3.495-3.38,5.383c0.28,0.295,0.56,0.59,0.84,0.885c1.454-0.318,2.909-0.636,4.988-1.09
			c-0.34,1.875-0.651,3.59-0.953,5.26c-1.941-0.974-3.428-1.72-5.396-2.707c-0.4,1.982-0.7,3.157-0.864,4.351
			c-0.192,1.396-0.266,2.809-0.392,4.214c1.76-0.205,3.667-0.055,5.236-0.713c1.671-0.701,3.022-2.168,4.623-3.383
			c0.514,4.911,0.044,5.446-4.479,5.44c-3.479-0.004-6.957-0.001-9.991-0.001c1.329-5.852,2.925-11.474,3.75-17.206
			c0.333-2.314,0.848-3.071,2.992-3.029c1.87,0.035,3.742-0.123,5.611-0.088C347.705,217.034,348.275,217.907,347.094,221.505z"/>
		<path fill-rule="evenodd" clip-rule="evenodd" d="M789.906,236.903c-1.914,0.239-3.45,0.43-4.817,0.601
			c1.107-3.188,2.323-6.183,3.173-9.278c0.885-3.224,1.379-6.552,2.133-9.814c0.122-0.524,1.026-1.359,1.04-1.35
			c2.451,1.849,5.122-0.443,7.273,0.28c1.395,0.47,2.905,3.1,2.895,4.752c-0.028,4.287-4.043,9.364-9.222,9.71
			C789.28,232.011,788.782,233.054,789.906,236.903z M791.524,229.703c4.887-0.264,7.74-4.096,6.961-9.028
			C793.517,220.123,791.025,223.248,791.524,229.703z"/>
		<path fill-rule="evenodd" clip-rule="evenodd" d="M567.901,231.623c-1.335,0-2.911,0-4.539,0
			c1.746-6.653,3.443-13.12,5.273-20.091c1.567,0,4.165,0.02,6.763-0.006c2.499-0.024,3.979,1.14,4.166,3.654
			c0.183,2.463-0.15,4.901-2.819,5.871c-2.469,0.897-5.089,1.38-8.074,2.157C568.443,225.701,568.191,228.46,567.901,231.623z
			 M570.019,219.848c0.251,0.42,0.501,0.84,0.753,1.26c1.41-0.719,3.318-1.087,4.124-2.232c1.432-2.034,1.611-4.412-1.08-5.896
			C569.897,213.953,571.02,217.44,570.019,219.848z"/>
		<path fill-rule="evenodd" clip-rule="evenodd" d="M834.161,216.832c2.552,0.807,5.263,0.863,5.96,2.077
			c0.966,1.684,1.165,4.594,0.334,6.326c-1.08,2.249-3.359,4.021-5.372,5.698c-2.389,1.992-4.828,0.535-6.673-0.955
			c-0.711-0.575-0.465-2.737-0.177-4.072c1.079-5.004,2.355-9.966,3.558-14.942c-0.334-0.194-0.668-0.391-1.002-0.585
			c1.642,0,3.284,0,4.92,0C835.124,212.815,834.552,215.206,834.161,216.832z M836.714,220.51c-4.223,0.122-6.472,3.17-6.198,7.537
			c0.05,0.791,1.342,2.074,2.137,2.136c1.948,0.15,6.157-5.34,5.797-7.62C838.301,221.623,837.031,220.862,836.714,220.51z"/>
		<path fill-rule="evenodd" clip-rule="evenodd" d="M625.991,210.397c1.002-0.12,2.168-0.258,4.301-0.513
			c-0.765,3.062-1.375,5.506-2.071,8.293c1.083-0.369,2.206-1.057,3.334-1.068c1.943-0.021,4.72,4.021,4.175,6.022
			c-1.243,4.56-5.555,9.057-8.958,8.737c-3.61-0.337-4.802-1.436-3.99-4.95c0.849-3.673,1.999-7.276,2.832-10.952
			C625.968,214.4,625.851,212.727,625.991,210.397z M632.033,220.711c-4.726-0.072-5.795,0.938-6.495,6.378
			c-0.122,0.952,0.308,1.974,0.482,2.963c1.105-0.337,2.428-0.397,3.275-1.063C631.854,226.984,633.058,224.336,632.033,220.711z"/>
		<path fill-rule="evenodd" clip-rule="evenodd" d="M85.362,236.577c-3.13,4.201-7.063,5.537-10.897,4.084
			c-3.285-1.244-4.721-3.825-4.838-7.422c-0.266-8.22,3.898-12.771,12.062-12.828c2.094-0.016,4.188-0.002,6.777-0.002
			c-0.47,2.668-0.831,4.715-1.208,6.855c-0.808-0.268-0.999-0.273-1.035-0.352c-1.005-2.188-0.887-5.984-4.247-5.371
			c-2.521,0.46-5.117,2.513-6.907,4.538c-3.086,3.491-2.963,8.506-0.391,10.817c2.304,2.069,4.782,2.313,7.491,0.804
			C82.85,237.322,83.654,237.167,85.362,236.577z"/>
		<path fill-rule="evenodd" clip-rule="evenodd" d="M375.317,225.221c1.671-0.27,4.209-1.119,6.675-0.945
			c2.115,0.149,4.123,1.25,3.637,4.37c-0.933,5.991-4.393,9.991-11.038,8.706c-0.21,2.203-0.418,4.38-0.657,6.876
			c-1.408,0-2.894,0-3.926,0C371.764,237.943,373.511,231.688,375.317,225.221z M382.756,226.19
			c-5.144,1.88-7.093,5.114-6.828,9.651c3.844,1.734,4.724-1.484,5.727-3.524C382.536,230.528,382.427,228.252,382.756,226.19z"/>
		<path fill-rule="evenodd" clip-rule="evenodd" d="M673.389,218.587c-0.354,3.557-0.503,7.145-1.19,10.626
			c-0.196,0.994-2.668,2.548-2.888,2.368c-1.968-1.61-3.522-0.632-5.414,0.108c-1.605,0.628-2.956-0.022-3.426-2.171
			c-0.918-4.204,3.502-12.173,7.529-12.521C669.751,216.847,671.617,218.026,673.389,218.587z M668.947,218.971
			c-5.165,3.219-6.181,4.955-5.363,8.927C668.543,228.019,670.781,224.496,668.947,218.971z"/>
		<path fill-rule="evenodd" clip-rule="evenodd" d="M875.177,231.777c-1.216-2.628-2.735-2.071-4.524-0.973
			c-2.834,1.742-4.71,0.754-5.024-2.488c-0.397-4.097,3.674-10.554,7.542-11.258c1.748-0.318,3.708,0.533,5.968,0.922
			c-0.545,3.324-1.173,7.149-1.8,10.976c0.369,0.097,0.738,0.193,1.106,0.291C877.502,229.977,876.559,230.707,875.177,231.777z
			 M874.875,221.332c-0.151-0.244-0.827-1.338-1.504-2.433c-2.332,1.769-4.309,3.824-4.276,6.958
			c0.007,0.729,1.07,2.125,1.471,2.063C873.563,227.457,874.787,225.361,874.875,221.332z"/>
		<path fill-rule="evenodd" clip-rule="evenodd" d="M594.223,228.979c-1.733,1.926-3.083,4.823-5.355,0.926
			c-0.5,0.186-0.904,0.238-1.182,0.454c-1.624,1.269-3.459,2.726-4.957,0.254c-0.886-1.461-1.585-3.721-1.083-5.178
			c0.788-2.286,2.363-4.537,4.184-6.148c1.173-1.038,3.366-1.023,5.132-1.253c1.182-0.152,2.414,0.094,3.583,0.16
			C596.153,221.87,590.609,225.104,594.223,228.979z M589.682,219.273c-4.448,1.098-4.161,5.229-5.664,8.334
			C589.573,228.486,591.804,225.051,589.682,219.273z"/>
		<path fill-rule="evenodd" clip-rule="evenodd" d="M620.93,218.568c0.726,3.778-3.733,6.939-0.445,10.811
			c-1.852,1.058-3.029,4.345-5.802,1.061c-0.173-0.204-1.42,0.359-2.077,0.728c-2.813,1.576-4.758,0.551-5.015-2.698
			C607.018,221.232,612.046,217.458,620.93,218.568z M616.501,218.506c-5.139,3.449-6.134,4.555-6.099,7.462
			c0.009,0.687,1.651,2.051,1.876,1.924c1.508-0.853,3.458-1.756,4.061-3.16C617.037,223.104,616.501,220.946,616.501,218.506z"/>
		<path fill-rule="evenodd" clip-rule="evenodd" d="M806.271,227.354c2.459,0,4.917,0,7.373-0.004
			c-2.584,4.523-5.591,5.729-8.358,2.883c-1.142-1.176-1.597-3.59-1.428-5.35c0.372-3.862,3.064-6.325,6.499-7.681
			c1.128-0.445,3.667-0.096,3.887,0.505c0.517,1.407,0.614,3.646-0.207,4.701c-1.126,1.447-3.218,2.195-4.981,3.07
			c-0.815,0.405-1.834,0.403-2.761,0.586C806.287,226.495,806.279,226.925,806.271,227.354z M805.687,222.398
			c0.471,0.594,0.942,1.187,1.414,1.779c1.526-0.974,3.109-1.871,4.54-2.97c0.396-0.303,0.338-1.199,0.488-1.823
			c-0.67-0.026-1.49-0.315-1.98-0.032C808.596,220.253,807.165,221.367,805.687,222.398z"/>
		<path fill-rule="evenodd" clip-rule="evenodd" d="M140.041,236.847c-1.44,3.409-5.104,5.18-7.975,3.852
			c-2.412-1.115-2.937-5.517-1.441-8.495c1.297-2.585,2.648-5.002,5.629-5.601c1.392-0.279,3.755-0.235,4.268,0.564
			c1.051,1.645,1.62,4.051-0.988,5.327c-2.13,1.043-4.345,1.914-6.524,2.862C133.763,236.566,134.345,236.688,140.041,236.847z
			 M133.407,231.955c0.132,0.21,0.264,0.419,0.396,0.628c0.97-0.292,2.091-0.374,2.866-0.936c0.773-0.561,1.259-1.569,1.724-2.458
			c0.089-0.17-0.652-1.049-0.759-1.004c-0.803,0.337-1.651,0.709-2.275,1.295C134.601,230.19,134.048,231.12,133.407,231.955z"/>
		<path fill-rule="evenodd" clip-rule="evenodd" d="M650.309,222.738c-0.129,4.274-4.57,9.11-8.303,9.041
			c-2.543-0.047-5.323-2.851-5.146-5.188c0.287-3.789,5.374-9.589,8.294-9.459C647.885,217.254,650.392,219.98,650.309,222.738z
			 M639.229,226.428c1.477,1.472,2.526,3.337,3.443,3.274c2.374-0.164,5.578-6.297,4.497-8.483
			c-0.448-0.906-2.928-1.893-3.111-1.676C642.425,221.465,641.1,223.647,639.229,226.428z"/>
		<path fill-rule="evenodd" clip-rule="evenodd" d="M779.324,216.7c0.432,3.833,0.794,7.052,1.191,10.569
			c4.596-2.287,4.085-6.387,4.186-10.296c2.469,1.82,3.088,5.414,1.146,7.758c-3.139,3.787-6.595,7.308-9.853,10.998
			c-1.547,1.751-3.051,1.643-5.134,0.262c2.146-2.836,7.711-2.005,7.011-7.131c-0.486-3.564,0.804-7.584-3.16-10.221
			C776.081,218.063,777.175,217.604,779.324,216.7z"/>
		<path fill-rule="evenodd" clip-rule="evenodd" d="M408.816,233.41c-0.931,3.431-3.616,4.539-7.686,3.712
			c-3.027-0.615-2.573-2.87-2.417-4.91c0.461-6.034,7.256-9.708,10.723-7.216c0.661,0.476,1.146,2.55,0.873,2.755
			c-2.108,1.564-4.4,2.892-6.691,4.193c-0.644,0.365-1.477,0.398-2.441,0.639C403.826,235.24,403.85,235.243,408.816,233.41z
			 M407.743,226.856c-0.415-0.483-0.829-0.967-1.244-1.45c-1.563,1.39-3.126,2.779-4.689,4.169c0.371,0.437,0.742,0.874,1.113,1.312
			C404.53,229.543,406.137,228.199,407.743,226.856z"/>
		<path fill-rule="evenodd" clip-rule="evenodd" d="M656.752,210.217c0.488-0.023,1.772-0.085,3.546-0.169
			c-1.074,3.888-2.161,7.325-2.944,10.831c-0.508,2.272-0.491,4.658-0.873,6.967c-0.165,1.001-0.527,2.145-1.199,2.834
			c-0.565,0.578-1.983,1.051-2.525,0.729c-0.615-0.364-1.063-1.738-0.907-2.544c0.5-2.598,1.316-5.136,2.001-7.7
			C654.769,217.723,655.677,214.277,656.752,210.217z"/>
		<path fill-rule="evenodd" clip-rule="evenodd" d="M118.492,231.811c-0.343-1.094-0.686-2.188-1.042-3.322
			c-3.245-0.479-3.827,0.101-6.759,6.928c2.176,3.295,5.123,1.472,7.843,1.075c-1.291,3.557-4.773,5.432-7.789,4.195
			c-2.588-1.06-3.622-5.13-1.578-8.038c1.621-2.305,3.65-4.584,6.024-5.983c1.138-0.672,3.624,0.475,5.202,1.34
			c0.399,0.219-0.344,2.52-0.563,3.863C119.385,231.849,118.938,231.83,118.492,231.811z"/>
		<path fill-rule="evenodd" clip-rule="evenodd" d="M856.762,231.276c1.659-6.915,3.315-13.814,5.028-20.951
			c0.802,0,2.198,0,3.257,0c-0.429,6.289-4.803,11.464-3.327,18.074C862.24,230.728,860.294,232.201,856.762,231.276z"/>
		<path fill-rule="evenodd" clip-rule="evenodd" d="M849.001,230.066c4.479-7.236,4.479-7.236,2.588-11.112
			c-5.523,0.77-7.504,6.709-4.032,12.088c-2.497,0.529-4.144-0.679-4.469-3.279c-0.586-4.687,3.57-10.651,7.532-10.812
			c2.253-0.091,4.534,2.375,4.612,4.982C855.399,227.53,853.371,230.177,849.001,230.066z"/>
		<path fill-rule="evenodd" clip-rule="evenodd" d="M126.38,238.335c-1.265,0.968-2.291,3.962-5.225,1.748
			c1.643-6.799,3.273-13.549,5.045-20.883c0.379-0.045,1.533-0.185,2.864-0.346C130.063,225.59,123.46,231.055,126.38,238.335z"/>
		<path fill-rule="evenodd" clip-rule="evenodd" d="M363.785,216.614c-0.05,6.892-4.671,12.55-3.767,20.004
			c-0.116,0.105-0.996,0.908-2.041,1.863c-3.316-2.698-1.114-5.737-0.472-8.434c0.807-3.396,2.292-6.625,3.214-10
			c0.217-0.798-0.643-1.891-1.08-3.041C360.904,216.887,362.111,216.772,363.785,216.614z"/>
		<path fill-rule="evenodd" clip-rule="evenodd" d="M352.787,216.919c0.51,0,1.942,0,3.717,0c-1.482,4.653-2.995,9.01-4.198,13.449
			c-0.311,1.144,0.438,2.545,0.528,3.839c0.051,0.726-0.002,1.813-0.448,2.142c-0.81,0.595-1.945,0.969-2.948,0.979
			c-0.458,0.005-1.419-1.192-1.312-1.646c0.823-3.479,1.908-6.895,2.8-10.359C351.584,222.765,352.075,220.164,352.787,216.919z"/>
		<path fill-rule="evenodd" clip-rule="evenodd" d="M99.141,227.301c2.35,0,5.1,0,8.074,0c0,1.148,0,2.181,0,3.036
			c-1.383,0.341-3.061,0.245-3.602,0.981c-1.733,2.364-3.011,5.058-4.544,7.575c-0.435,0.714-1.143,1.262-1.726,1.885
			c-0.286-0.792-0.939-1.657-0.797-2.365C97.257,234.851,98.177,231.328,99.141,227.301z"/>
		<path fill-rule="evenodd" clip-rule="evenodd" d="M821.054,216.89c0.203,1.101,0.357,1.932,0.463,2.507
			c1.193-0.462,2.442-1.285,3.686-1.276c0.58,0.004,1.149,1.62,2.312,3.412c-6.328-1.272-7.064,2.921-8.121,5.952
			c-0.762,2.184-1.476,3.128-4,2.871c0.1-0.879,0.093-1.691,0.295-2.448c0.61-2.291,1.784-4.551,1.829-6.84
			C817.564,218.628,818.232,217.38,821.054,216.89z"/>
		<path fill-rule="evenodd" clip-rule="evenodd" d="M606.54,218.231c-0.698,1.487-1.265,3.329-1.59,3.287
			c-5.112-0.656-4.303,4.216-6.159,6.505c-0.824,1.017-1.149,2.437-2.31,3.567c-1.82-4.419,2.163-8.535,0.121-13.359
			C600,218.231,602.87,218.231,606.54,218.231z"/>
		<path fill-rule="evenodd" clip-rule="evenodd" d="M396.733,225.018c0,0.824,0.103,1.452-0.035,2.021
			c-0.1,0.41-0.522,0.741-0.81,1.117c-1.274-0.9-2.392-1.689-3.509-2.479c-0.294,0.255-0.588,0.51-0.883,0.765
			c1.585,3.183,5.355,6.429,2.39,9.812c-1.306,1.489-5.068,0.823-8.59,1.239c0.811-2.087,1.301-3.35,1.693-4.358
			c1.464,1.281,2.828,2.474,4.191,3.667c0.381-0.258,0.764-0.514,1.146-0.771c-0.318-1.327-0.2-3.163-1.04-3.885
			c-2.124-1.827-2.793-4.073-1.695-6.229c1.095-2.149,3.562-1.688,5.66-1.191C395.608,224.808,395.973,224.867,396.733,225.018z"/>
		<path fill-rule="evenodd" clip-rule="evenodd" d="M88.968,240.438c1.084-4.541,2.085-8.733,3.13-13.111c0.872,0,1.93,0,3.255,0
			c-0.83,2.688-1.591,5.093-2.301,7.514c-0.122,0.418-0.169,0.96-0.007,1.342C94.566,239.748,93.797,240.786,88.968,240.438z"/>
		<path fill-rule="evenodd" clip-rule="evenodd" d="M365.343,237.025c-0.231-6.954,1.86-11.652,5.993-12.738
			c-0.296,1.118-0.524,1.931-0.725,2.751c-0.515,2.11-1.931,4.53-1.346,6.277C370.81,237.934,368.036,236.981,365.343,237.025z"/>
		<path fill-rule="evenodd" clip-rule="evenodd" d="M539.992,190.951c0.171-6.229,1.357-6.977,7.602-5.021
			C544.853,187.741,542.826,189.08,539.992,190.951z"/>
		<path fill-rule="evenodd" clip-rule="evenodd" d="M817.355,81.16c0.317-1.643,0.254-2.754,0.603-2.904
			c3.84-1.647,7.745-3.145,11.631-4.683c0.15,0.328,0.303,0.655,0.453,0.981C826.125,76.594,822.208,78.634,817.355,81.16z"/>
		<path fill-rule="evenodd" clip-rule="evenodd" d="M812.459,83.757c-2.122,1.002-4.244,2.004-6.366,3.006
			c-0.265-0.587-0.53-1.175-0.796-1.762c2.183-0.986,4.365-1.972,6.549-2.958C812.05,82.615,812.255,83.186,812.459,83.757z"/>
		<path fill-rule="evenodd" clip-rule="evenodd" fill="#FFFFFF" d="M244.329,104.042c3.589,0,6.542,0.013,9.494-0.002
			c10.364-0.055,20.76-0.63,31.077,0.031c5.374,0.344,10.614-0.053,15.921-0.088c28.083-0.186,56.168-0.141,84.252-0.208
			c16.86-0.041,33.721-0.186,50.581-0.136c1.542,0.004,3.208,0.882,4.594,1.722c2.386,1.446,4.445,1.853,6.582-0.431
			c0.65-0.695,1.801-1.302,2.725-1.304c14.606-0.038,29.212,0.023,43.818,0.088c0.718,0.004,1.435,0.25,2.158,0.386
			c1.15,5.202-1.064,9.552-3.211,13.755c-3.858,7.555-9.493,13.807-16.19,18.879c-4.45,3.37-9.453,6.097-14.454,8.627
			c-4.25,2.149-8.851,3.607-13.297,5.366c-5.045,1.994-10.031,4.159-15.158,5.914c-3.372,1.154-6.93,1.802-10.436,2.521
			c-7.007,1.438-13.982,3.227-21.067,4.033c-9.342,1.063-18.769,1.492-28.172,1.865c-6.233,0.247-12.529,0.333-18.727-0.253
			c-9.226-0.872-18.418-2.227-27.57-3.717c-5.761-0.938-11.548-2.101-17.098-3.871c-8.083-2.579-15.974-5.769-23.928-8.75
			c-11.27-4.226-21.174-10.922-29.558-19.24c-4.864-4.826-8.872-11.095-10.511-18.261
			C245.678,108.879,245.066,106.82,244.329,104.042z"/>
		<path fill-rule="evenodd" clip-rule="evenodd" fill="#FFFFFF" d="M71.068,105.338c12.47,0,24.94-0.05,37.41,0.076
			c1.292,0.013,2.525,1.31,3.874,1.596c1.913,0.406,4.781,1.339,5.71,0.449c3.357-3.216,7.375-1.721,10.988-2.187
			c5.323-0.687,10.771-0.588,16.161-0.521c5.647,0.072,11.288,0.635,16.936,0.748c8.708,0.176,17.422,0.212,26.132,0.168
			c1.958-0.01,3.93-0.517,5.865-0.937c4.298-0.932,5.874,0.041,5.306,4.252c-1.17,8.671-2.078,17.441-5.826,25.545
			c-1.94,4.195-3.251,8.803-5.827,12.552c-3.525,5.132-8.058,9.563-12.024,14.403c-6.253,7.63-14.487,12.645-23.039,17.039
			c-4.622,2.375-9.802,3.748-14.829,5.236c-12.796,3.79-25.934,3.07-38.792,1.198c-6.864-0.999-13.414-4.624-19.91-7.502
			c-4.391-1.946-8.506-4.553-12.634-7.048c-7-4.231-12.141-10.494-16.771-16.975c-4.438-6.211-8.106-13.011-11.682-19.779
			c-1.519-2.874-2.152-6.285-2.808-9.529c-0.979-4.844-1.46-9.79-2.47-14.627c-0.595-2.848,0.524-3.604,3.019-3.601
			c11.736,0.016,23.473,0.007,35.209,0.007C71.066,105.715,71.067,105.527,71.068,105.338z"/>
		<path fill-rule="evenodd" clip-rule="evenodd" fill="#FFFFFF" d="M122.021,103.31c-1.464-2.2-2.623-3.938-3.778-5.679
			c-0.329-0.495-0.927-0.992-0.933-1.494c-0.067-5.571-0.042-11.144-0.042-17.431c2.166,1.801,3.768,3.133,5.371,4.465
			c0.311-0.133,0.622-0.265,0.933-0.398c-1.306-3.959-2.632-7.914-3.915-11.881c-1.459-4.516-4.245-8.528-1.977-13.963
			c2.431-5.823,3.536-12.198,4.735-18.917c-1.679,1.561-3.358,3.122-5.833,5.424c0-5.763,0.052-10.66-0.012-15.555
			c-0.108-8.31-0.071-8.712,8.36-7.305c10.968,1.832,21.717,4.412,31.609,10.096c8.632,4.96,16.381,10.945,22.55,18.552
			c7.535,9.291,14.197,19.206,16.946,31.307c1.692,7.458,3.893,14.758,3.493,22.778C173.302,103.31,147.259,103.31,122.021,103.31z"
			/>
		<path fill-rule="evenodd" clip-rule="evenodd" fill="#FFFFFF" d="M109.462,84.455c1.508-1.658,3.016-3.315,4.807-5.284
			c0.121,1.109,0.332,2.237,0.349,3.369c0.052,3.371-0.071,6.747,0.066,10.114c0.099,2.433-0.048,4.327-2.589,5.817
			c-1.413,0.829-1.962,3.129-3.05,5.026c-11.118,0-22.59-0.053-34.063,0.014c-13.104,0.077-26.209,0.192-39.311,0.453
			c-2.675,0.054-3.113-1.012-3.028-3.323c0.451-12.194,2.822-23.917,8.878-34.615c3.502-6.187,6.837-12.678,11.471-17.958
			c4.732-5.394,10.666-9.903,16.624-13.999c5.087-3.496,10.712-6.569,16.534-8.549c8.816-2.999,17.783-6.169,27.827-5.063
			c0,7.387,0,14.763,0,22.139c-0.252,0.199-0.504,0.398-0.756,0.596c-1.528-1.604-3.056-3.208-4.583-4.813
			c-0.245,0.011-0.49,0.021-0.735,0.032c0.232,1.224,0.319,2.498,0.721,3.663c1.79,5.194,3.995,10.269,5.432,15.555
			c1.694,6.227-1.489,11.863-3.167,17.628c-0.802,2.754-1.976,5.401-2.981,8.096C108.426,83.72,108.945,84.088,109.462,84.455z"/>
		<path fill-rule="evenodd" clip-rule="evenodd" fill="#FFFFFF" d="M297.515,101.376c1.701-2.541,2.778-4.746,4.389-6.447
			c5.821-6.151,11.807-12.148,17.773-18.161c0.789-0.795,1.827-1.343,3.406-2.478c0,2.942,0,4.983,0,7.024
			c0.301,0.103,0.602,0.207,0.902,0.311c1.248-2.254,2.821-4.391,3.683-6.783c3.13-8.682,8.382-15.774,15.152-21.957
			c3.389-3.095,6.333-6.689,9.369-10.153c2.382-2.719,5.074-2.662,8.394,0.013c6.224,5.013,12.508,9.957,18.877,14.784
			c7.418,5.622,14.955,11.087,23.271,17.234c-2.657,0.631-4.599,1.092-6.542,1.552c-0.117,0.347-0.235,0.694-0.352,1.041
			c17.108,1.892,27.984,14.081,40.906,22.89c-0.125,0.376-0.249,0.752-0.374,1.128C390.582,101.376,344.792,101.376,297.515,101.376
			z"/>
		<path fill-rule="evenodd" clip-rule="evenodd" fill="#FFFFFF" d="M496.778,101.323c-16.809,0-32.245,0-47.631,0
			c-1.425-5.82-4.19-6.917-9.566-4.264c-0.875,0.432-2.581,0.239-3.362-0.365c-5.774-4.46-11.854-8.659-16.959-13.811
			c-4.561-4.603-7.996-10.32-11.937-15.539c-0.424-0.561-0.914-1.072-1.972-2.303c0,2.641,0,4.476,0,7.308
			c-14.518-10.657-28.275-20.755-42.893-31.485c2.024-0.177,2.949-0.373,3.859-0.321c12.942,0.744,25.92,1.148,38.811,2.425
			c8.472,0.838,17.001,2.312,25.169,4.663c8.215,2.364,16.171,5.832,23.951,9.438c7.129,3.306,14.158,7.01,20.71,11.33
			c7.381,4.868,13.246,11.576,17.454,19.35C494.504,91.618,495.201,96.24,496.778,101.323z"/>
		<path fill-rule="evenodd" clip-rule="evenodd" fill="#FFFFFF" d="M314.372,71.088c1.652,0.258,3.155,0.493,5.661,0.884
			c-5.739,5.469-10.824,10.188-15.75,15.069c-2.054,2.035-3.646,4.536-5.702,6.57c-0.812,0.804-2.36,1.377-3.491,1.26
			c-5.974-0.619-7.614,0.49-8.938,6.795c-13.711,0-27.481,0-42.309,0c1.983-5.291,3.196-10.371,5.66-14.745
			c7.012-12.446,18.066-20.707,30.674-26.692c9.965-4.73,20.279-8.831,30.699-12.459c5.438-1.894,11.439-2.178,17.188-3.172
			c6.546-1.132,13.096-2.244,19.644-3.364c0.272,0.42,0.544,0.841,0.817,1.263c-5.118,5.414-9.803,11.347-15.477,16.099
			C327.369,63.353,320.701,66.932,314.372,71.088z"/>
		<path fill-rule="evenodd" clip-rule="evenodd" fill="#FFFFFF" d="M573.908,82.931c-1.473,4.861-2.801,9.243-4.172,13.766
			c-3.277-0.296-5.956,0.408-7.37,3.647c-0.251,0.574-1.018,1.305-1.556,1.313c-6.307,0.091-12.615,0.059-19.338,0.059
			c0.67-7.303,1.422-13.874,5.52-19.589c2.675-3.73,4.787-7.961,7.903-11.254c5.099-5.386,10.621-10.417,16.332-15.156
			c3.618-3.003,7.89-5.226,11.901-7.746c0.647-0.407,1.464-0.546,2.921-1.064c-3.762,14.126-8.332,27-18.624,37.154
			c0.238,0.271,0.476,0.542,0.714,0.813C569.862,84.293,571.586,83.713,573.908,82.931z"/>
		<path fill-rule="evenodd" clip-rule="evenodd" fill="#FFFFFF" d="M791.524,229.703c-0.499-6.455,1.992-9.58,6.961-9.028
			C799.265,225.607,796.411,229.439,791.524,229.703z"/>
		<path fill-rule="evenodd" clip-rule="evenodd" fill="#FFFFFF" d="M570.019,219.848c1.001-2.407-0.121-5.895,3.797-6.868
			c2.691,1.483,2.512,3.861,1.08,5.896c-0.806,1.146-2.714,1.514-4.124,2.232C570.52,220.688,570.27,220.268,570.019,219.848z"/>
		<path fill-rule="evenodd" clip-rule="evenodd" fill="#FFFFFF" d="M836.714,220.51c0.317,0.353,1.587,1.113,1.735,2.053
			c0.36,2.28-3.849,7.771-5.797,7.62c-0.795-0.062-2.087-1.345-2.137-2.136C830.242,223.68,832.491,220.632,836.714,220.51z"/>
		<path fill-rule="evenodd" clip-rule="evenodd" fill="#FFFFFF" d="M632.033,220.711c1.024,3.625-0.179,6.273-2.737,8.278
			c-0.848,0.665-2.17,0.726-3.275,1.063c-0.175-0.989-0.604-2.011-0.482-2.963C626.238,221.649,627.308,220.639,632.033,220.711z"/>
		<path fill-rule="evenodd" clip-rule="evenodd" fill="#FFFFFF" d="M382.756,226.19c-0.329,2.062-0.221,4.338-1.101,6.127
			c-1.003,2.04-1.883,5.259-5.727,3.524C375.663,231.305,377.612,228.07,382.756,226.19z"/>
		<path fill-rule="evenodd" clip-rule="evenodd" fill="#FFFFFF" d="M668.947,218.971c1.834,5.525-0.404,9.048-5.363,8.927
			C662.767,223.926,663.782,222.189,668.947,218.971z"/>
		<path fill-rule="evenodd" clip-rule="evenodd" fill="#FFFFFF" d="M874.875,221.332c-0.088,4.029-1.312,6.125-4.31,6.589
			c-0.4,0.062-1.464-1.334-1.471-2.063c-0.032-3.134,1.944-5.189,4.276-6.958C874.048,219.994,874.724,221.088,874.875,221.332z"/>
		<path fill-rule="evenodd" clip-rule="evenodd" fill="#FFFFFF" d="M589.682,219.273c2.122,5.777-0.108,9.213-5.664,8.334
			C585.521,224.502,585.233,220.371,589.682,219.273z"/>
		<path fill-rule="evenodd" clip-rule="evenodd" fill="#FFFFFF" d="M616.501,218.506c0,2.44,0.536,4.598-0.162,6.226
			c-0.603,1.404-2.553,2.308-4.061,3.16c-0.225,0.127-1.867-1.237-1.876-1.924C610.367,223.061,611.362,221.955,616.501,218.506z"/>
		<path fill-rule="evenodd" clip-rule="evenodd" fill="#FFFFFF" d="M805.687,222.398c1.479-1.031,2.909-2.146,4.462-3.046
			c0.49-0.283,1.311,0.006,1.98,0.032c-0.15,0.624-0.092,1.521-0.488,1.823c-1.431,1.099-3.014,1.996-4.54,2.97
			C806.629,223.585,806.157,222.992,805.687,222.398z"/>
		<path fill-rule="evenodd" clip-rule="evenodd" fill="#FFFFFF" d="M133.407,231.955c0.641-0.835,1.193-1.765,1.951-2.475
			c0.624-0.586,1.472-0.958,2.275-1.295c0.107-0.045,0.849,0.834,0.759,1.004c-0.465,0.889-0.951,1.897-1.724,2.458
			c-0.775,0.562-1.896,0.644-2.866,0.936C133.671,232.374,133.539,232.165,133.407,231.955z"/>
		<path fill-rule="evenodd" clip-rule="evenodd" fill="#FFFFFF" d="M639.229,226.428c1.87-2.78,3.195-4.963,4.829-6.885
			c0.184-0.217,2.663,0.77,3.111,1.676c1.081,2.187-2.123,8.319-4.497,8.483C641.756,229.765,640.706,227.899,639.229,226.428z"/>
		<path fill-rule="evenodd" clip-rule="evenodd" fill="#FFFFFF" d="M407.743,226.856c-1.606,1.343-3.213,2.687-4.82,4.03
			c-0.371-0.438-0.742-0.875-1.113-1.312c1.563-1.39,3.126-2.779,4.689-4.169C406.914,225.89,407.329,226.373,407.743,226.856z"/>
	</g>
</g>
</svg>
