<?xml version="1.0" encoding="utf-8"?>
<!-- Generator: Adobe Illustrator 16.0.0, SVG Export Plug-In . SVG Version: 6.00 Build 0)  -->
<!DOCTYPE svg PUBLIC "-//W3C//DTD SVG 1.1//EN" "http://www.w3.org/Graphics/SVG/1.1/DTD/svg11.dtd">
<svg version="1.1" id="Layer_1" xmlns="http://www.w3.org/2000/svg" xmlns:xlink="http://www.w3.org/1999/xlink" x="0px" y="0px"
	 width="500px" height="500px" viewBox="0 0 500 500" enable-background="new 0 0 500 500" xml:space="preserve">
<g>
	<g>
		<path fill-rule="evenodd" clip-rule="evenodd" fill="#FFFFFF" d="M339.653,364.648c-113.08,0-226.161,0-339.241,0
			c0-92.746,0-185.491,0-278.236c166.667,0,333.334,0,500,0c0,92.745,0,185.49,0,278.236c-53.312,0-106.623,0-159.934,0
			c0.217-1.242,0.435-2.483,0.649-3.707c3.567-1.05,4.097-0.481,5.945-3.618c0.895-1.521,0.585-4.02-0.777-4.323
			c-1.431-0.319-2.991-0.15-4.481-0.033c-0.309,0.024-0.71,0.726-0.816,1.174c-0.76,3.211-1.455,6.438-2.194,9.765
			C338.845,363.941,339.249,364.295,339.653,364.648z M312.112,250.881c3.544,0,6.681,0.004,9.816-0.001
			c12.422-0.02,24.844-0.063,37.266-0.039c1.567,0.003,2.214-0.163,2.156-2.102c-0.216-7.264-0.159-14.536-0.179-21.805
			c-0.034-13.459-0.041-26.919-0.076-40.379c-0.022-8.585-0.042-17.17-0.131-25.754c-0.031-3.083-0.123-3.072,2.926-3.077
			c5.426-0.01,10.859,0.127,16.274-0.126c2.399-0.112,3.715,0.439,5.259,2.467c2.121,2.789,2.788,4.48,0.13,7.537
			c-3.238,3.723-5.536,8.27-8.187,12.495c-0.734,1.172-1.276,2.465-1.907,3.702c0.18,0.15,0.359,0.301,0.539,0.452
			c0.391-0.229,0.911-0.369,1.145-0.706c0.558-0.807,0.933-1.738,1.463-2.566c3.037-4.737,6.162-9.419,9.11-14.209
			c0.869-1.412,1.464-1.323,2.289-0.183c2.065,2.856,4.1,5.734,6.145,8.604c3.764,5.282,7.458,10.615,11.307,15.833
			c5.245,7.11,10.621,14.123,15.898,21.208c0.525,0.705,1.063,1.508-0.062,2.433c-0.968,0.795-1.68,1.925-2.416,2.969
			c-1.551,2.196-3.012,4.456-4.566,6.649c-2.71,3.822-5.488,7.596-8.19,11.424c-2.839,4.022-5.584,8.112-8.442,12.12
			c-2.354,3.302-4.869,6.488-7.213,9.797c-2.285,3.224-4.376,6.585-6.677,9.797c-2.485,3.468-5.175,6.788-7.668,10.251
			c-3.708,5.149-7.287,10.391-10.992,15.542c-1.399,1.946-1.442,2.959,0.221,4.743c2.593,2.783,6.086,3.853,9.559,4.861
			c2.584,0.75,5.253,1.218,7.893,1.765c1.646,0.341,3.309,0.598,4.965,0.884c3.661,0.632,7.303,1.534,10.991,1.82
			c5.193,0.404,10.424,0.332,15.637,0.507c1.029,0.034,2.049,0.338,3.078,0.39c1.065,0.053,2.142-0.112,3.209-0.072
			c1.579,0.058,3.161,0.355,4.732,0.294c2.785-0.111,5.56-0.482,8.346-0.622c3.085-0.154,6.181-0.098,9.264-0.269
			c3.012-0.167,6.014-0.504,9.13-0.775c0,6.615,0,13.235,0,19.781c-45.386,0-90.396,0-135.571,0
			c0.817-1.108,1.675-2.272,2.533-3.438c-0.155-0.068-0.312-0.136-0.467-0.204c-3.952,1.517-7.903,3.032-12.3,4.72
			c4.552,1.477,8.607,2.793,12.663,4.108c0.05-0.12,0.101-0.24,0.151-0.359c-0.838-1.007-1.675-2.014-2.676-3.215
			c3.271,0,6.079,0.007,8.888-0.002c16.133-0.048,32.267-0.125,48.4-0.144c25.829-0.029,51.659-0.046,77.489,0.021
			c2.107,0.005,2.739-0.622,2.665-2.669c-0.209-5.761-0.216-11.529-0.402-17.291c-0.047-1.444,0.404-1.979,1.828-1.953
			c1.014,0.018,2.052-0.104,3.042-0.33c3.515-0.805,6.978-1.9,10.527-2.474c4.197-0.677,7.99-2.302,11.695-4.204
			c2.154-1.105,2.892-4.648,1.496-6.477c-2.319-3.04-4.704-6.03-6.979-9.102c-5.177-6.988-10.304-14.014-15.451-21.023
			c-0.481-0.654-0.988-1.29-1.441-1.963c-1.604-2.382-4.109-4.606-4.587-7.201c-0.904-4.909-0.731-10.031-0.825-15.067
			c-0.049-2.622,0.438-5.252,0.411-7.876c-0.035-3.468-0.479-6.932-0.497-10.399c-0.083-15.385-0.081-30.771-0.087-46.156
			c0-0.563,0.088-1.236,0.397-1.67c2.056-2.881,4.236-5.673,6.271-8.568c1.866-2.653,3.545-5.438,5.407-8.095
			c2.788-3.977,5.657-7.896,8.505-11.832c2.279-3.148,4.075-6.662,7.341-9.048c1.524-1.114,1.065-4.121-0.196-5.483
			c-1.489-1.607-3.354-2.18-5.279-2.801c-2.836-0.914-5.61-2.109-8.51-2.715c-4.052-0.848-8.189-1.297-12.3-1.846
			c-1.463-0.195-2.123-0.738-2.086-2.356c0.105-4.529,0.058-9.063,0.01-13.594c-0.007-0.564-0.381-1.125-0.584-1.688
			c-0.266,0.057-0.53,0.114-0.796,0.171c0,5.521,0,11.042,0,16.95c-11.786-1.617-23.558-1.469-35.455-1.432
			c0.972-2.306,2.843-3.81,3.191-6.368c-2.404,0.483-2.697,2.27-3.414,3.584c-1.056,1.932-2.077,3.346-4.74,3.149
			c-3.269-0.241-6.596-0.04-9.872,0.261c-3.644,0.334-7.252,1.024-10.885,1.501c-1.397,0.184-2.841,0.076-4.221,0.331
			c-3.37,0.622-6.763,1.205-10.058,2.124c-3.971,1.108-8.039,2.121-11.138,5.186c-1.805,1.784-1.988,4.848,0.062,5.789
			c2.961,1.359,3.839,4.282,5.622,6.485c2.687,3.319,4.982,6.953,7.493,10.417c0.968,1.335,2.07,2.574,3.397,4.208
			c-1.272,0-2.075,0-2.877,0c-6.318-0.004-12.638-0.011-18.956-0.011c-0.973,0-1.979-0.087-1.959,1.401
			c0.072,5.204,0.046,10.409,0.175,15.611c0.074,3.002,0.471,5.997,0.548,9c0.11,4.251,0.074,8.507,0.076,12.761
			c0.006,17.912,0.002,35.823,0.002,54.023c-15.739,0-31.525,0-47.49,0c0.673-1.024,1.318-2.007,2.235-3.402
			c-4.617,1.602-8.551,2.966-12.758,4.424c4.45,1.419,8.324,2.653,12.199,3.888c0.096-0.155,0.191-0.311,0.287-0.466
			C313.676,252.898,313.046,252.087,312.112,250.881z M119.646,169.245c2.211-3.248,4.067-6.093,6.044-8.851
			c2.579-3.599,5.274-7.115,7.881-10.694c3.024-4.153,6.045-8.312,8.977-12.53c0.529-0.762,0.884-1.832,0.869-2.751
			c-0.047-2.893-2.714-3.799-4.595-4.672c-4.229-1.962-8.722-3.398-13.441-3.848c-1.225-0.117-2.45-0.244-3.67-0.404
			c-5.106-0.672-10.209-1.364-15.315-2.035c-0.746-0.098-1.501-0.14-2.253-0.174c-5.33-0.237-10.66-0.605-15.992-0.653
			c-4.502-0.04-9.007,0.433-13.51,0.435c-9.681,0.004-19.263,0.902-28.769,2.7c-1.072,0.203-2.22,0.083-3.258,0.375
			c-3.805,1.074-7.556,2.342-11.373,3.371c-2.336,0.63-4.18,1.91-5.806,3.594c-1.215,1.258-1.196,2.715-0.205,4.021
			c2.253,2.969,4.679,5.806,6.918,8.785c3.105,4.132,6.103,8.345,9.146,12.522c3.833,5.261,7.65,10.532,11.501,15.779
			c3.069,4.182,6.192,8.324,9.266,12.502c3.863,5.25,7.692,10.526,11.552,15.779c3.236,4.403,6.52,8.771,9.706,13.21
			c0.295,0.411,0.271,1.373-0.012,1.82c-1.157,1.818-2.456,3.548-3.732,5.289c-2.215,3.021-4.482,6.005-6.673,9.044
			c-2.503,3.472-4.947,6.986-7.417,10.482c-0.373,0.527-0.695,1.104-1.132,1.571c-2.128,2.278-2.787,5.722-5.826,7.293
			c-0.492,0.254-1.169,0.853-1.153,1.269c0.09,2.303-1.571,3.654-2.7,5.261c-2.961,4.217-6.004,8.376-9.042,12.537
			c-2.485,3.403-5.063,6.74-7.506,10.174c-3.763,5.289-7.397,10.671-11.186,15.941c-1.388,1.93-1.289,4.286,0.832,5.24
			c4.514,2.033,9.009,4.346,13.764,5.545c5.703,1.438,11.654,1.965,17.525,2.646c4.941,0.573,9.921,1.082,14.887,1.115
			c7.322,0.049,14.652-0.239,21.968-0.593c5.854-0.284,11.698-0.831,17.538-1.356c3.101-0.278,6.175-0.962,9.276-1.099
			c4.031-0.178,7.824-1.241,11.542-2.591c2.916-1.059,5.793-2.299,8.53-3.754c2.529-1.345,2.729-3.82,0.872-6.189
			c-1.42-1.812-2.803-3.652-4.167-5.507c-4.018-5.466-8.021-10.941-12.008-16.43c-0.172-0.236-0.117-0.638-0.188-1.099
			c0.85,0,1.6,0,2.35,0c8.655,0,17.31,0.001,25.964,0c3.471-0.001,3.461-0.003,3.433-3.353c-0.074-8.76-0.151-17.52-0.203-26.28
			c-0.061-10.221-0.106-20.442-0.138-30.663c-0.021-6.51-0.004-13.021-0.004-19.712c4.126-0.198,8.191-0.393,12.687-0.608
			c-0.847,1.308-1.51,2.33-2.173,3.353c0.116,0.133,0.231,0.265,0.346,0.397c3.806-1.25,7.611-2.5,11.417-3.749
			c-0.018-0.214-0.036-0.429-0.054-0.643c-3.974-1.21-7.947-2.421-11.92-3.631c-0.064,0.12-0.129,0.239-0.194,0.359
			c0.773,0.967,1.545,1.934,2.586,3.237c-3.492,0-6.375,0.126-9.239-0.05c-1.599-0.098-3.167-0.699-5.229-1.187
			c-0.609,6.161,0.262,12.834,0.26,19.489c-0.002,6.86,0.187,13.72,0.244,20.58c0.057,6.863,0.061,13.727,0.072,20.591
			c0.011,6.824,0.002,13.648,0.002,20.552c-10.799,0-21.357,0-31.599,0c-0.847-1.049-1.592-1.864-2.216-2.763
			c-2.53-3.641-4.958-7.354-7.547-10.953c-3.544-4.925-7.218-9.757-10.806-14.651c-3.244-4.425-6.401-8.915-9.68-13.313
			c-2.77-3.717-5.612-7.383-8.53-10.985c-0.784-0.968-1.229-1.771-0.501-2.874c0.726-1.1,1.45-2.206,2.246-3.255
			c1.799-2.371,3.75-4.634,5.444-7.077c3.595-5.184,6.999-10.501,10.605-15.677c3.824-5.489,7.737-10.918,11.735-16.282
			c0.99-1.329,1.625-2.822,4.21-2.755c10.833,0.282,21.678,0.025,32.52-0.005c1.564-0.004,2.186-0.642,2.175-2.23
			c-0.083-13.252-0.1-26.505-0.172-39.757c-0.025-4.439-0.072-4.438,4.467-4.719c0.411-0.025,0.822-0.079,1.233-0.08
			c2.353-0.008,4.706-0.004,7.425-0.004c-1.054,1.274-1.809,2.187-2.563,3.099c0.108,0.176,0.215,0.352,0.323,0.527
			c3.774-1.278,7.548-2.556,11.321-3.834c0.047-0.218,0.094-0.437,0.141-0.655c-3.933-1.264-7.866-2.528-11.799-3.792
			c-0.077,0.146-0.153,0.291-0.23,0.437c0.66,0.845,1.32,1.689,2.122,2.713c-0.623,0.11-0.887,0.198-1.15,0.197
			c-3.364-0.008-6.729-0.026-10.093-0.047c-1.833-0.012-2.842,0.668-2.61,2.723c0.138,1.218-0.036,2.469-0.029,3.705
			c0.063,12.763,0.115,25.526,0.233,38.288c0.014,1.56-0.361,2.171-2.056,2.152c-5.081-0.058-10.163,0.088-15.245,0.112
			C131.333,169.265,125.776,169.245,119.646,169.245z M297.569,328.172c0.001-0.366,0.002-0.732,0.003-1.099
			c-15.482,0-30.966,0-46.638,0c0.122-5.548,2.576-9.688,5.795-13.432c2.278-2.649,4.863-4.88,8.134-6.448
			c2.898-1.39,5.308-3.75,8.618-4.43c1.683-0.345,3.328-0.877,4.986-1.34c2.237-0.626,4.436-1.565,6.714-1.832
			c3.461-0.403,6.976-0.404,10.469-0.454c1.488-0.021,1.778-0.635,1.423-1.913c-0.207-0.069-0.397-0.188-0.59-0.189
			c-5.109-0.06-10.089,0.395-15.103,1.778c-3.348,0.924-6.793,1.447-9.996,2.934c-1.448,0.673-3.134,0.881-4.502,1.665
			c-2.012,1.152-3.828,2.645-5.743,3.969c-4.711,3.26-8.48,7.324-10.458,12.776c-0.792,2.183-1.162,4.519-1.772,6.978
			c-4.36,0-8.884,0.003-13.408-0.002c-2.655-0.003-2.605-0.01-2.595-2.763c0.024-6.593,0.017-13.186-0.045-19.777
			c-0.005-0.51-0.537-1.014-0.824-1.521c-0.191,0.511-0.543,1.021-0.545,1.533c-0.017,2.728,0.079,5.456,0.09,8.184
			c0.02,4.716,0.005,9.432,0.005,14.173c-5.41,0-10.647,0-15.617,0c-0.568-2.188-0.803-4.271-1.65-6.064
			c-1.201-2.543-2.543-5.148-4.39-7.225c-2.272-2.554-5.007-4.746-7.753-6.816c-4.249-3.205-9.121-5.223-14.253-6.557
			c-2.148-0.559-4.499-0.533-6.515-1.362c-3.965-1.63-8.073-0.962-12.115-1.269c-0.666-0.051-1.378,0.497-2.068,0.769
			c0.657,0.301,1.31,0.852,1.972,0.863c5.508,0.097,10.852,0.996,16.262,2.125c5.839,1.22,10.829,3.891,15.752,6.85
			c4.266,2.564,7.949,5.905,10.276,10.402c1.335,2.58,2.68,5.277,1.986,8.46c-1.022,0-1.912,0-2.802,0
			c-9.823-0.005-19.646-0.02-29.469,0.011c-0.649,0.002-1.296,0.354-1.945,0.544c0.066,0.266,0.132,0.53,0.198,0.796
			c11.599,0,23.197,0,34.721,0c-0.259,1.215-0.382,2.208-0.688,3.142c-0.679,2.073-1.278,4.199-2.222,6.152
			c-1.466,3.036-3.927,5.26-6.497,7.413c-5.003,4.193-10.699,6.884-16.955,8.605c-5.891,1.622-11.79,2.93-17.96,2.632
			c-0.764-0.037-1.561,0.618-2.343,0.952c0.041,0.236,0.082,0.473,0.123,0.709c0.672,0.124,1.339,0.29,2.016,0.365
			c5.688,0.63,11.023-1.396,16.491-2.329c2.994-0.512,5.937-1.577,8.764-2.732c2.604-1.065,5.156-2.387,7.484-3.962
			c2.224-1.505,4.348-3.289,6.113-5.303c1.909-2.177,3.651-4.616,4.916-7.209c1.273-2.614,1.871-5.559,2.78-8.405
			c4.971,0,10.153,0,15.451,0c0,0.685-0.001,1.228,0,1.77c0.019,10.504,0.036,21.008,0.062,31.513
			c0.002,0.835-0.341,2.03,1.047,1.906c0.364-0.032,0.896-1.207,0.893-1.855c-0.017-4.252-0.142-8.504-0.265-12.755
			c-0.104-3.612-0.299-7.222-0.371-10.834c-0.063-3.203-0.013-6.409-0.013-9.773c5.572,0,10.886,0,15.879,0
			c0.718,2.461,1.367,4.753,2.058,7.032c0.851,2.809,2.575,5.07,4.535,7.19c3.117,3.372,6.543,6.346,10.816,8.155
			c4.147,1.756,8.254,3.684,12.542,5.007c3.21,0.989,6.681,1.128,10.031,1.666c1.337,0.215,2.656,0.575,3.999,0.709
			c1.821,0.182,3.803,0.718,5.197-1.481c-0.325-0.17-0.538-0.299-0.765-0.395c-0.249-0.106-0.516-0.27-0.769-0.259
			c-4.532,0.192-8.996-0.222-13.398-1.347c-2.354-0.601-4.827-0.846-7.086-1.685c-3.545-1.317-7.06-2.802-10.384-4.594
			c-2.548-1.374-5.069-3.05-7.078-5.104c-2.276-2.328-4.227-5.083-5.83-7.928c-1.143-2.028-2.283-4.35-1.529-7.064
			C266.694,328.282,282.137,328.505,297.569,328.172z M183.479,190.072c-0.004,0.367-0.008,0.733-0.013,1.099
			c1.347,0.084,2.732,0.403,4.033,0.194c1.679-0.27,2.091,0.505,2.513,1.858c0.431,1.38,0.889,3.014,1.896,3.9
			c2.532,2.229,5.244,4.189,8.297,5.843c4.823,2.612,10.067,3.6,15.189,4.883c4.168,1.044,8.648,0.947,13,1.111
			c1.722,0.065,2.452,0.451,2.12,2.211c-0.075,0.4-0.143,0.856-0.022,1.224c0.143,0.439,0.493,0.812,0.752,1.213
			c0.32-0.429,0.814-0.819,0.92-1.296c0.187-0.848-0.015-1.796,0.246-2.605c0.152-0.47,0.896-1.076,1.364-1.068
			c7.165,0.114,14.259-0.603,21.018-2.933c4.432-1.527,8.771-3.572,12.767-6.017c2.322-1.42,4.612-3.627,5.177-6.621
			c0.31-1.641,1.003-2.035,2.446-1.921c0.817,0.065,1.66,0.085,2.464-0.042c0.419-0.067,0.779-0.499,1.165-0.766
			c-0.067-0.198-0.136-0.396-0.204-0.593c-1.074,0-2.152-0.056-3.223,0.014c-1.524,0.099-2.345-0.523-2.785-2.018
			c-0.349-1.187-0.85-2.447-1.643-3.364c-3.16-3.655-7.269-5.936-11.758-7.552c-3.399-1.224-6.861-2.109-10.44-2.818
			c-4.886-0.968-9.714-1.895-14.701-1.859c-0.733,0.005-1.466,0-2.104,0c-0.807-2.117,0.439-4.427-0.779-6.194
			c-0.287,0.04-0.575,0.08-0.862,0.119c0,2.003,0,4.007,0,5.445c-5.638,0.924-10.906,1.93-16.215,2.619
			c-5.928,0.769-11.463,2.714-16.591,5.598c-3.367,1.894-6.306,4.55-7.487,8.548c-0.324,1.095-0.946,1.672-2.208,1.62
			C186.37,189.844,184.922,190.006,183.479,190.072z M229.94,98.13c-13.913,2.253-22.18,9.977-23.809,24.029
			c-1.686,0.094-3.111,0.174-4.537,0.254c0,0.278-0.001,0.556-0.002,0.834c0.884,0.066,1.782,0.268,2.648,0.173
			c1.806-0.198,2.59,0.736,2.599,2.321c0.017,3.211,1.178,5.998,2.691,8.757c2.836,5.176,7.043,8.77,12.493,10.787
			c2.507,0.928,5.253,1.211,8.434,1.905c0,3.276,0,6.928,0,10.58c0.29-0.002,0.58-0.004,0.869-0.006c0-3.661,0-7.32,0-10.825
			c2.417-0.367,4.542-0.369,6.431-1.04c4.398-1.563,8.424-3.769,11.483-7.52c3.056-3.745,5.181-7.874,5.428-12.703
			c0.109-2.145,0.938-2.541,2.742-2.409c0.876,0.064,1.772-0.154,2.659-0.245c-0.02-0.275-0.039-0.549-0.06-0.824
			c-1.699-0.106-3.398-0.213-5.059-0.317c-1.14-13.972-10.841-21.734-23.836-23.684c-0.783-3.342,0.952-7.013-1.175-10.25
			C229.94,91.356,229.94,94.764,229.94,98.13z M231.91,226.556c-0.239,0.024-0.478,0.048-0.716,0.073
			c-1.327,3.653,0.071,7.409-0.036,11.107c-0.115,3.947-0.026,7.9-0.026,11.682c-1.837,0.922-4.031-0.582-5.881,1.623
			c2.271,0,4.025,0,5.989,0c0,1.137,0,2.085,0,3.033c0.001,6.111-0.012,12.224,0.025,18.335c0.004,0.75,0.277,1.499,0.426,2.249
			c0.252-0.035,0.504-0.07,0.756-0.104c0-7.82,0-15.641,0-23.552c1.557,0,2.818,0,4.107,0c0.73,6.233,4.368,10.57,9.207,13.753
			c4.56,2.998,9.492,5.441,14.941,6.639c2.396,0.526,4.667,1.742,7.074,2.084c3.377,0.479,6.829,0.411,10.247,0.628
			c0.782,0.049,1.547,0.401,2.328,0.44c1.733,0.089,3.589,0.729,5.248-0.938c-0.791-0.354-1.418-0.837-2.081-0.894
			c-2.045-0.173-4.104-0.179-6.158-0.256c-2.056-0.076-4.177,0.136-6.153-0.305c-3.781-0.841-7.436-2.278-11.229-3.039
			c-2.626-0.527-4.987-1.428-7.433-2.475c-4.138-1.771-7.585-4.427-10.628-7.525c-2.048-2.085-3.881-4.704-3.043-8.226
			c0.632,0,1.172-0.001,1.712,0c15.448,0.003,30.895,0.015,46.343-0.015c0.804-0.002,1.606-0.346,2.41-0.53
			c-0.044-0.227-0.088-0.453-0.132-0.679c-16.804,0-33.608,0-50.417,0c-0.542-2.626,0.908-4.443,2.032-6.376
			c1.836-3.159,4.73-5.2,7.839-6.773c3.91-1.979,7.991-3.653,12.098-5.195c2.661-1,5.462-1.901,8.267-2.183
			c4.695-0.471,9.442-0.467,14.17-0.542c1.519-0.024,1.956-0.529,1.605-1.885c-0.237-0.082-0.361-0.152-0.49-0.164
			c-7.835-0.726-15.374,1.291-22.992,2.529c-1.15,0.187-2.262,0.708-3.348,1.174c-2.558,1.096-5.102,2.225-7.628,3.391
			c-3.451,1.594-6.556,3.65-9.164,6.486c-2.331,2.535-3.599,5.555-4.417,8.783c-0.453,1.785-1.654,1.499-2.85,1.425
			c-1.458-0.089-1.431-1.168-1.43-2.238c0.004-6.385,0.014-12.771-0.035-19.156C232.439,228.145,232.097,227.351,231.91,226.556z
			 M333.524,349.534c-1.549,0.116-2.578,0.193-3.154,0.236c-0.285,1.503-0.52,2.744-0.771,4.064c-1.344,0-2.551,0-4.188,0
			c0.402-1.48,0.752-2.766,1.103-4.055c-0.842,0-1.84,0-2.48,0c0.004,3.947-1.8,7.349-3.072,10.935c1.118,0,1.738,0.021,2.356-0.008
			c0.359-0.018,0.715-0.114,1.072-0.176c-0.103-0.347-0.189-0.699-0.313-1.037c-0.088-0.238-0.328-0.458-0.327-0.685
			c0.024-3.104,2.251-4.449,5.546-3.211c-0.591,1.532-1.181,3.061-1.778,4.611c0.828,0,1.883,0,2.96,0
			C329.829,358.397,331.736,351.04,333.524,349.534z M289.249,189.306c0.091-4.789,2.561-3.087,4.893-2.06
			c0.049-0.622,0.093-1.188,0.142-1.81c-2.437,0-4.702,0-6.779,0c0.209,3.596-1.132,6.571-2.522,9.8
			c2.056,0,4.015,0.026,5.973-0.007c2.097-0.036,2.434-0.477,2.224-2.32c-1.573,0.494-3.224,1.011-4.873,1.528
			c-0.154-0.212-0.309-0.424-0.463-0.636c0.315-1.129,0.631-2.259,0.961-3.442c0.915,0.542,1.471,0.87,2.146,1.27
			c0.354-1.032,0.646-1.879,1.022-2.977C290.839,188.923,290.189,189.08,289.249,189.306z M366.134,352.328
			c-0.184,0.158-0.367,0.316-0.551,0.474c0.199-1.344,0.399-2.688,0.646-4.342c-1.107,0.19-1.892,0.326-2.596,0.446
			c0.285,0.956,0.791,1.709,0.623,2.254c-0.785,2.558-1.784,5.05-2.627,7.592c-0.1,0.302,0.176,0.94,0.467,1.127
			c1.7,1.09,4.616,0.625,5.82-1.009c1.033-1.402,2.075-3.088,1.185-4.778C368.644,353.223,367.156,352.898,366.134,352.328z
			 M281.772,120.19c-6.563-1.871-9.948,2.861-9.308,7.062c0.301,1.975,3.203,3.89,5.037,3.128c1.051-0.437,1.969-1.19,2.945-1.802
			c-0.118-0.178-0.237-0.355-0.355-0.534c-0.405,0.197-0.791,0.492-1.218,0.573c-1.131,0.215-2.57,0.824-3.341,0.363
			c-0.804-0.48-1.166-1.998-1.339-3.121c-0.105-0.688,0.477-1.501,0.803-2.234c0.652-1.466,1.564-2.91,3.324-2.696
			c0.967,0.117,1.821,1.157,2.931,1.922C281.381,122.195,281.568,121.235,281.772,120.19z M307.519,195.329
			c4.162-0.238,5.881-1.974,5.332-5.309c-0.085-0.516-0.788-1.245-1.285-1.316c-1.299-0.186-2.642-0.063-3.658-0.063
			c-1.026,3.414-1.971,6.555-2.936,9.76c0.861,0,1.644,0,2.547,0C307.519,197.341,307.519,196.407,307.519,195.329z
			 M390.316,352.864c-3.272-0.554-5.848,0.056-6.901,3.41c-0.326,1.037-0.563,2.302-0.234,3.251
			c0.147,0.425,1.789,0.354,2.759,0.464c0.691,0.079,1.443,0.262,2.072,0.075c0.686-0.204,1.259-0.782,1.881-1.196
			c-1.308-1.1-0.677-2.104-0.026-3.295C390.284,354.808,390.187,353.761,390.316,352.864z M166.1,255.69
			c-0.014-3.922,0.014-3.828,3.651-4.922c0.842-0.254,1.795-1.29,2.004-2.137c0.18-0.724-0.461-2.273-1.039-2.444
			c-1.527-0.45-3.215-0.349-4.196-0.42c-1.118,3.685-2.041,6.731-3.009,9.923C164.385,255.69,165.162,255.69,166.1,255.69z
			 M195.181,245.582c-0.686,2.579-1.285,4.998-1.984,7.389c-0.333,1.137-0.943,2.278,0.744,2.788c2.14,0.647,4.512-0.896,5-3.19
			c0.578-2.714,0.257-3.121-2.82-3.578C196.472,245.689,196.472,245.689,195.181,245.582z M218.155,249.417
			c-4.169-0.673-5.27-0.183-6.841,2.931c-0.7,1.388-0.223,3.242,1.006,3.395c1.394,0.173,2.839,0.14,4.232-0.04
			c0.358-0.046,0.75-0.947,0.868-1.509c0.208-0.994,0.188-2.033,0.322-3.045C217.819,250.568,218.011,250.003,218.155,249.417z
			 M304.163,128.623c-0.104-0.257-0.206-0.515-0.31-0.771c0.972-0.401,2.127-0.598,2.862-1.26c0.714-0.643,0.996-1.762,1.516-2.764
			c-4.232-1.265-6.794,1.575-5.826,5.671c2.758,0.801,3.737,0.621,5.212-1.208C306.299,128.417,305.23,128.52,304.163,128.623z
			 M338.76,352.816c-0.704,1.9-1.405,3.792-2.106,5.684c-0.22-0.025-0.439-0.05-0.66-0.074c-0.113-0.615-0.269-1.226-0.328-1.847
			c-0.079-0.818,0.056-1.686-0.17-2.452c-0.141-0.479-0.742-0.867-1.215-1.176c-0.143-0.093-0.776,0.192-0.792,0.345
			c-0.048,0.467,0.091,0.953,0.164,1.431c0.248,1.645,0.611,3.281,0.716,4.935c0.094,1.468-0.743,2.296-2.256,2.564
			c-0.512,0.091-0.927,0.722-1.387,1.105c0.135,0.204,0.27,0.408,0.403,0.612c0.632-0.114,1.517-0.002,1.854-0.38
			c2.118-2.378,4.238-4.777,6.082-7.365C339.667,355.351,340.343,353.814,338.76,352.816z M326.12,189.875
			c-3.006-2.141-4.585-1.552-6.417,1.658c-0.857,1.5-0.576,2.905,0.708,3.545c1.239,0.619,3.237-0.059,3.959-1.466
			c-0.809,0.138-1.521,0.35-2.23,0.34c-0.341-0.004-0.677-0.428-1.015-0.662c0.275-0.31,0.5-0.701,0.837-0.915
			C323.21,191.581,324.495,190.844,326.12,189.875z M178.483,249.521c-2.687-1.062-5.381,0.204-6.161,3.214
			c-0.62,2.388,0.191,3.31,2.665,3.087c0.712-0.064,1.494,0.167,2.135-0.054c0.537-0.185,1.247-0.796,1.3-1.281
			C178.589,252.953,178.483,251.392,178.483,249.521z M191.504,249.414c-3.396-0.524-4.113-0.343-5.686,2.423
			c-0.5,0.88-0.342,2.214-0.224,3.312c0.031,0.281,1.045,0.588,1.632,0.647c1.011,0.104,2.051,0.103,3.058-0.02
			c0.433-0.053,1.147-0.5,1.165-0.802C191.558,253.132,191.504,251.279,191.504,249.414z M377.226,355.621
			c0.064-1.939-0.764-2.886-2.54-2.904c-1.966-0.021-4.928,2.963-4.75,5.131c0.12,1.477,1.137,2.42,2.879,2.406
			C375.569,360.23,377.124,358.678,377.226,355.621z M353.926,358.579c-0.883,0.117-1.747,0.343-2.598,0.297
			c-0.42-0.022-0.813-0.548-1.218-0.846c0.387-0.268,0.749-0.58,1.164-0.792c0.985-0.504,2.137-0.795,2.94-1.495
			c0.47-0.409,0.739-1.614,0.471-2.14c-0.255-0.5-1.402-0.925-2.028-0.789c-2.672,0.578-3.921,2.244-3.936,5.025
			c-0.006,0.921-0.451,2.093,1.214,2.331C351.883,360.45,353.329,360.001,353.926,358.579z M204.364,249.14
			c-2.678-0.034-4.222,1.549-4.202,4.249c0.011,1.428,0.551,2.46,2.272,2.454c2.125-0.006,4.672-2.239,4.433-4.233
			C206.7,250.202,206.055,248.891,204.364,249.14z M381.148,359.653c-2.113-2.178-0.305-3.818-0.14-5.44
			c0.184-1.797,1.279-3.501,2.159-5.7c-1.488,0.129-2.479,0.215-3.678,0.317c1.244,1.72,1.07,1.938,0.441,3.71
			c-0.839,2.363-1.351,4.842-2.13,7.744C379.093,360.041,379.928,359.883,381.148,359.653z M356.733,352.794
			c-0.559,2.694-1.025,4.946-1.56,7.523c3.213-0.835,1.704-4.484,4.002-5.522c0.59,0,1.181,0,1.993,0
			c-0.096-0.647-0.176-1.181-0.193-1.302C359.187,353.198,357.794,352.969,356.733,352.794z M313.146,194.563
			c1.474,0.866,3.964,0.967,4.371,0.062c0.588-1.304,0.527-2.586-0.86-3.593c-0.297-0.216-0.043-1.191-0.043-1.817
			c0.166,0.021,0.332,0.042,0.499,0.063c0.318,0.608,0.637,1.217,0.955,1.825c0.155-0.042,0.312-0.084,0.467-0.126
			c0.056-0.733,0.112-1.467,0.199-2.612c-1.435,0.313-2.569,0.559-3.704,0.806c0.332,1.158,0.68,2.312,0.987,3.476
			c0.108,0.415,0.119,0.856,0.231,1.717c-1.017-0.539-1.682-0.892-2.386-1.266C313.655,193.521,313.398,194.045,313.146,194.563z
			 M297.071,123.664c-3.02-1.355-5.486,1.422-5.352,4.24c0.063,1.318,0.554,2.097,1.875,2.109c1.302,0.013,2.577-0.174,3.216-1.662
			c-1.38-0.608-2.739,1.818-3.637-0.359c-0.499-1.213,0.854-3.003,2.352-3.459c0.384,0.518,0.748,1.008,1.111,1.499
			c0.145-0.072,0.29-0.143,0.435-0.215C297.071,125.098,297.071,124.378,297.071,123.664z M296.587,194.671
			c-1.387-3.606,1.273-6.447,1.294-9.823c-0.802,0.213-1.425,0.379-1.657,0.44c-0.769,3.484-1.463,6.629-2.271,10.289
			C295.333,195.103,296.049,194.856,296.587,194.671z M300.72,129.415c-0.19-0.192-0.381-0.384-0.572-0.577
			c0.083-0.72,0.097-1.455,0.261-2.156c0.524-2.252,1.104-4.492,1.751-7.093c-1.079,0.177-1.706,0.279-1.896,0.31
			c-0.776,3.446-1.479,6.561-2.26,10.025C299.125,129.714,299.922,129.564,300.72,129.415z M299.843,185.455
			c0.112,0.721,0.389,1.342,0.259,1.862c-0.528,2.124-1.213,4.208-1.764,6.326c-0.115,0.445,0.091,0.974,0.148,1.463
			c0.644-0.12,1.288-0.239,1.932-0.358c-0.117-0.44-0.276-0.875-0.337-1.323c-0.046-0.341-0.022-0.715,0.069-1.046
			c0.576-2.068,1.203-4.123,1.755-6.197c0.103-0.386-0.057-0.841-0.118-1.506C300.935,185.017,300.332,185.258,299.843,185.455z
			 M209.786,245.56c-0.874,3.411-1.72,6.708-2.582,10.072c2.333,0.132,2.539-0.108,2.327-1.862
			c-0.078-0.653-0.024-1.357,0.133-1.997c0.489-1.992,1.056-3.964,1.641-6.121C210.556,245.606,210.111,245.58,209.786,245.56z
			 M287.227,123.525c-0.503,2.192-0.942,4.106-1.382,6.02c0.722,0.026,1.151-0.263,1.483-0.638c1.034-1.169,0.815-3.591,3.372-3.303
			c0.184,0.021,0.49-1.05,0.739-1.613c-0.547-0.118-1.423-0.505-1.584-0.308c-0.683,0.833-1.046,0.653-1.609-0.084
			C288.091,123.397,287.487,123.537,287.227,123.525z M180.858,249.036c-0.486,2.054-0.887,3.523-1.159,5.018
			c-0.1,0.547,0.108,1.15,0.175,1.729c0.365-0.455,0.757-0.892,1.091-1.368c0.922-1.317,0.838-3.552,3.277-3.533
			c0.145,0.001,0.298-1.012,0.447-1.553c-0.154-0.09-0.308-0.181-0.461-0.271c-0.552,0.371-1.104,0.741-1.457,0.978
			C182.108,249.689,181.465,249.353,180.858,249.036z M302.022,194.847c2.668,0.61,2.783,0.487,2.229-1.688
			c-0.069-0.271,0.147-0.619,0.25-0.926c0.251-0.761,0.58-1.503,0.757-2.281c0.324-1.424-0.455-1.418-1.081-1.256
			C303.398,190.919,302.734,192.814,302.022,194.847z M282.159,130.325c1.27-0.479,1.983-0.749,2.287-0.863
			c0.128-2.205,0.232-4.014,0.347-6c-0.812,0.048-1.484,0.087-1.736,0.102C282.749,125.881,282.493,127.813,282.159,130.325z"/>
		<path fill-rule="evenodd" clip-rule="evenodd" d="M339.653,364.648c-0.404-0.354-0.809-0.707-0.85-0.743
			c0.739-3.326,1.435-6.554,2.194-9.765c0.106-0.448,0.508-1.149,0.816-1.174c1.49-0.117,3.051-0.286,4.481,0.033
			c1.362,0.304,1.672,2.803,0.777,4.323c-1.849,3.137-2.378,2.568-5.945,3.618c-0.215,1.224-0.433,2.465-0.649,3.707
			C340.203,364.648,339.929,364.648,339.653,364.648z M341.891,359.762c0.778-0.16,1.825-0.063,2.165-0.506
			c0.892-1.166,1.543-2.539,2.128-3.9c0.121-0.281-0.362-1.044-0.747-1.249c-0.287-0.153-0.938,0.134-1.297,0.399
			C342.508,355.715,341.856,357.411,341.891,359.762z"/>
		<path fill-rule="evenodd" clip-rule="evenodd" d="M312.112,250.881c0.934,1.206,1.563,2.018,2.192,2.83
			c-0.096,0.155-0.191,0.311-0.287,0.466c-3.875-1.234-7.749-2.469-12.199-3.888c4.207-1.458,8.141-2.823,12.758-4.424
			c-0.917,1.395-1.563,2.378-2.235,3.402c15.965,0,31.751,0,47.49,0c0-18.2,0.004-36.111-0.002-54.023
			c-0.002-4.254,0.034-8.51-0.076-12.761c-0.077-3.003-0.474-5.998-0.548-9c-0.129-5.202-0.103-10.408-0.175-15.611
			c-0.021-1.488,0.986-1.401,1.959-1.401c6.318,0,12.638,0.006,18.956,0.011c0.802,0.001,1.604,0,2.877,0
			c-1.327-1.634-2.43-2.872-3.397-4.208c-2.511-3.464-4.807-7.097-7.493-10.417c-1.783-2.203-2.661-5.126-5.622-6.485
			c-2.05-0.94-1.866-4.005-0.062-5.789c3.099-3.065,7.167-4.078,11.138-5.186c3.295-0.919,6.688-1.502,10.058-2.124
			c1.38-0.255,2.823-0.147,4.221-0.331c3.633-0.477,7.241-1.167,10.885-1.501c3.276-0.301,6.604-0.501,9.872-0.261
			c2.663,0.196,3.685-1.218,4.74-3.149c0.717-1.314,1.01-3.101,3.414-3.584c-0.349,2.558-2.22,4.062-3.191,6.368
			c11.897-0.037,23.669-0.185,35.455,1.432c0-5.909,0-11.429,0-16.95c0.266-0.057,0.53-0.114,0.796-0.171
			c0.203,0.563,0.577,1.123,0.584,1.688c0.048,4.531,0.096,9.064-0.01,13.594c-0.037,1.618,0.623,2.161,2.086,2.356
			c4.11,0.548,8.248,0.998,12.3,1.846c2.899,0.606,5.674,1.802,8.51,2.715c1.926,0.621,3.79,1.193,5.279,2.801
			c1.262,1.362,1.721,4.369,0.196,5.483c-3.266,2.386-5.062,5.9-7.341,9.048c-2.848,3.935-5.717,7.854-8.505,11.832
			c-1.862,2.656-3.541,5.441-5.407,8.095c-2.035,2.895-4.216,5.687-6.271,8.568c-0.31,0.435-0.397,1.107-0.397,1.67
			c0.006,15.385,0.004,30.771,0.087,46.156c0.019,3.467,0.462,6.931,0.497,10.399c0.026,2.624-0.46,5.254-0.411,7.876
			c0.094,5.037-0.079,10.159,0.825,15.067c0.478,2.595,2.982,4.819,4.587,7.201c0.453,0.673,0.96,1.309,1.441,1.963
			c5.147,7.01,10.274,14.035,15.451,21.023c2.275,3.071,4.66,6.062,6.979,9.102c1.396,1.828,0.658,5.371-1.496,6.477
			c-3.705,1.902-7.498,3.527-11.695,4.204c-3.55,0.573-7.013,1.669-10.527,2.474c-0.99,0.227-2.028,0.348-3.042,0.33
			c-1.424-0.025-1.875,0.509-1.828,1.953c0.187,5.762,0.193,11.53,0.402,17.291c0.074,2.047-0.558,2.674-2.665,2.669
			c-25.83-0.066-51.66-0.05-77.489-0.021c-16.134,0.019-32.268,0.096-48.4,0.144c-2.809,0.009-5.616,0.002-8.888,0.002
			c1.001,1.201,1.838,2.208,2.676,3.215c-0.051,0.119-0.102,0.239-0.151,0.359c-4.056-1.315-8.111-2.632-12.663-4.108
			c4.396-1.688,8.348-3.203,12.3-4.72c0.155,0.068,0.312,0.136,0.467,0.204c-0.858,1.165-1.716,2.329-2.533,3.438
			c45.176,0,90.186,0,135.571,0c0-6.546,0-13.166,0-19.781c-3.116,0.271-6.118,0.608-9.13,0.775
			c-3.083,0.171-6.179,0.114-9.264,0.269c-2.786,0.14-5.561,0.511-8.346,0.622c-1.571,0.062-3.153-0.236-4.732-0.294
			c-1.067-0.04-2.144,0.125-3.209,0.072c-1.029-0.052-2.049-0.355-3.078-0.39c-5.213-0.175-10.443-0.103-15.637-0.507
			c-3.688-0.286-7.33-1.188-10.991-1.82c-1.656-0.286-3.319-0.543-4.965-0.884c-2.64-0.547-5.309-1.015-7.893-1.765
			c-3.473-1.009-6.966-2.078-9.559-4.861c-1.663-1.784-1.62-2.797-0.221-4.743c3.705-5.151,7.284-10.393,10.992-15.542
			c2.493-3.463,5.183-6.783,7.668-10.251c2.301-3.212,4.392-6.573,6.677-9.797c2.344-3.309,4.858-6.495,7.213-9.797
			c2.858-4.008,5.604-8.098,8.442-12.12c2.702-3.828,5.48-7.602,8.19-11.424c1.555-2.193,3.016-4.453,4.566-6.649
			c0.736-1.044,1.448-2.174,2.416-2.969c1.125-0.925,0.587-1.729,0.062-2.433c-5.277-7.085-10.653-14.098-15.898-21.208
			c-3.849-5.218-7.543-10.551-11.307-15.833c-2.045-2.87-4.079-5.748-6.145-8.604c-0.825-1.141-1.42-1.229-2.289,0.183
			c-2.948,4.791-6.073,9.472-9.11,14.209c-0.53,0.828-0.905,1.759-1.463,2.566c-0.233,0.337-0.754,0.477-1.145,0.706
			c-0.18-0.151-0.359-0.302-0.539-0.452c0.631-1.237,1.173-2.53,1.907-3.702c2.65-4.225,4.948-8.772,8.187-12.495
			c2.658-3.056,1.991-4.748-0.13-7.537c-1.544-2.028-2.859-2.579-5.259-2.467c-5.415,0.253-10.849,0.116-16.274,0.126
			c-3.049,0.005-2.957-0.006-2.926,3.077c0.089,8.584,0.108,17.169,0.131,25.754c0.035,13.459,0.042,26.919,0.076,40.379
			c0.02,7.269-0.037,14.541,0.179,21.805c0.058,1.939-0.589,2.105-2.156,2.102c-12.422-0.023-24.844,0.02-37.266,0.039
			C318.793,250.885,315.656,250.881,312.112,250.881z M467.104,282.03c0.773-4.468-1.315-8.236-3.049-12.054
			c-1.781-3.92-3.807-7.705-8.323-9.187c0,3.959,0.023,7.803-0.007,11.646c-0.025,3.061-0.204,6.123-0.126,9.181
			c0.025,0.982,0.489,2.678,1.032,2.8c2.589,0.579,5.274,0.729,7.925,1.032c1.433,0.37,2.864,0.74,4.294,1.11
			C469.309,284.191,468.8,282.811,467.104,282.03z M454.196,259.253c0.088-2.306,0.419-4.614-1.194-6.582
			c-0.771-0.94-1.662-1.793-2.354-2.786c-2.186-3.139-4.19-6.409-6.472-9.474c-3.751-5.038-7.705-9.923-11.491-14.935
			c-2.23-2.953-4.303-6.024-6.442-9.045c-0.739-1.044-1.257-1.828-2.343-0.102c-1.918,3.052-4.073,5.959-6.222,8.859
			c-2.572,3.474-5.359,6.793-7.838,10.331c-2.812,4.012-5.284,8.263-8.09,12.279c-2.944,4.214-6.142,8.249-9.167,12.406
			c-2.137,2.937-4.14,5.97-6.262,8.916c-2.169,3.012-4.483,5.92-6.6,8.967c-2.502,3.6-4.86,7.299-7.415,11.156
			c0.686-0.094,1.341-0.1,1.943-0.28c3.31-0.989,6.58-2.121,9.915-3.005c2.202-0.583,4.481-0.913,6.744-1.213
			c5.66-0.75,11.316-1.572,17.001-2.065c4.159-0.36,8.359-0.298,12.541-0.329c6.37-0.047,12.739-0.012,19.123-0.012
			c0.885-2.977,1.548-6.214,2.815-9.195c1.273-2.998,3.322-5.659,4.71-8.619C448.528,261.479,450.99,260.144,454.196,259.253z
			 M392.467,167.205c0.082,0.25,0.114,0.707,0.347,1.011c2.414,3.174,4.92,6.279,7.285,9.489c4.076,5.533,8.089,11.112,12.09,16.7
			c1.831,2.558,3.505,5.23,5.37,7.762c1.975,2.679,4.201,5.176,6.11,7.898c1.479,2.109,1.472,2.132,2.912-0.021
			c3.067-4.582,6.24-9.093,9.417-13.599c2.028-2.876,4.187-5.66,6.209-8.54c3.039-4.328,5.861-8.817,9.076-13.008
			c1.438-1.875,2.308-3.625,2.177-5.989c-0.068-1.22-0.41-1.71-1.6-2.134c-1.354-0.482-2.785-1.262-3.707-2.326
			c-1.756-2.027-3.344-4.249-4.684-6.574c-1.313-2.278-2.373-4.731-3.276-7.206c-0.767-2.103-1.151-4.346-1.705-6.523
			c-1.532,0-2.93,0.185-4.259-0.039c-2.825-0.475-4.2,1.146-5.333,3.29c-0.215,0.406-0.46,0.806-0.745,1.165
			c-4.965,6.245-10.705,11.656-17.65,15.619c-2.36,1.347-5.027,2.508-7.681,2.904C399.489,167.582,396.027,167.205,392.467,167.205z
			 M454.184,293.746c-1.131-0.624-2.15-1.196-3.179-1.755c-3.62-1.968-7.241-3.936-10.867-5.895
			c-0.938-0.506-1.888-1.385-2.844-1.401c-6.51-0.111-13.025-0.137-19.535,0.01c-4.434,0.099-8.856,0.68-13.288,0.761
			c-6.216,0.113-12.25,1.217-18.342,2.324c-3.934,0.716-7.795,1.475-11.592,2.706c-2.461,0.799-4.714,1.84-6.111,4.106
			c-0.299,0.484-0.372,1.562-0.056,1.885c0.989,1.012,2.089,2.158,3.37,2.598c3.979,1.367,8.005,2.708,12.117,3.547
			c5.437,1.108,10.961,1.822,16.471,2.531c3.49,0.448,7.018,0.678,10.537,0.826c5.752,0.242,11.518,0.586,17.266,0.437
			c8.506-0.22,17.003-0.833,25.503-1.286c0.121-0.007,0.236-0.112,0.55-0.271C454.184,301.157,454.184,297.349,454.184,293.746z
			 M453.729,175.208c-0.854,0.442-1.296,0.524-1.474,0.785c-1.708,2.511-3.33,5.082-5.057,7.579
			c-3.701,5.351-7.42,10.688-11.188,15.991c-2.952,4.156-6.026,8.225-8.944,12.403c-0.434,0.621-0.709,1.891-0.37,2.416
			c1.303,2.017,2.925,3.823,4.355,5.761c4.026,5.457,8.05,10.916,12.012,16.42c2.7,3.751,5.271,7.595,7.951,11.361
			c0.81,1.137,1.791,2.152,2.714,3.246C453.729,225.725,453.729,200.672,453.729,175.208z M428.894,144.956
			c-0.834-0.189-1.483-0.47-2.129-0.461c-2.688,0.038-5.378,0.265-8.064,0.229c-3.506-0.045-7.011-0.267-10.516-0.425
			c-1.135-0.051-2.289-0.025-3.397-0.234c-1.744-0.329-2.933,0.055-3.86,1.733c-1.426,2.583-3.115,5.021-4.678,7.529
			c-1.97,3.16-3.925,6.33-5.949,9.597c2.78,1.396,5.226,2.886,8.667,2.731c2.691-0.121,4.977-1.14,7.462-1.632
			c1.422-0.282,2.858-0.951,4.063-1.774c2.036-1.391,3.937-2.992,5.815-4.597c2.495-2.13,5.011-4.251,7.337-6.559
			C425.429,149.324,426.934,147.273,428.894,144.956z M438.147,142.816c-0.561-2.511-1.234-4.755-1.537-7.049
			c-0.558-4.231-0.946-8.487-1.294-12.742c-0.087-1.059-0.45-1.508-1.445-1.499c-5.65,0.048-11.301,0.083-16.949,0.2
			c-0.472,0.01-1.069,0.509-1.373,0.945c-1.566,2.251-3.143,4.506-4.511,6.877c-0.345,0.597-0.218,2.177,0.168,2.374
			c3.604,1.834,7.313,3.462,10.986,5.158c3.014,1.392,6.401,2.32,8.918,4.336C433.355,143.215,435.389,142.731,438.147,142.816z
			 M404.942,131.421c-0.263-0.381-0.541-1.254-1.092-1.49c-1.43-0.614-3.004-0.881-4.476-1.414
			c-1.252-0.454-2.464-1.039-3.649-1.651c-2.03-1.049-4.026-2.165-6.365-3.429c-0.466,3.146-3.191,5.307-2.118,8.591
			c-0.99,0.476-2.272,4.281-2.293,5.801c-0.391,0.281-0.793,0.819-0.699,1.251c0.189,0.879,0.879,0.754,1.726,0.827
			c3.048,0.262,6.068,0.859,9.095,1.364c1.728,0.288,3.442,0.656,5.168,0.96c0.451,0.079,0.921,0.051,1.112,0.059
			c0.775-1.119,1.479-1.974,2.004-2.929c1.053-1.918,2.017-3.886,2.998-5.843c0.27-0.539,0.472-1.111,0.704-1.668
			C406.41,131.719,405.764,131.588,404.942,131.421z M454.37,122.7c0,2.537,0,4.496,0,6.451c0.456,0.184,0.912,0.333,1.339,0.543
			c3.409,1.679,6.912,3.204,10.167,5.144c1.188,0.708,3.117,0.638,3.57,2.635c0.078,0.342,1.8,0.701,2.538,0.433
			c2.716-0.987,5.429-2.068,7.944-3.471c0.931-0.518,1.612-1.969,1.813-3.1c0.094-0.532-1.107-1.55-1.918-1.934
			c-2.219-1.049-4.507-1.983-6.835-2.76c-1.65-0.55-3.408-0.778-5.121-1.136C463.445,124.582,459.022,123.666,454.37,122.7z
			 M437.124,121.866c0.417,7.252,1.003,14.214,2.995,20.814c4.502-0.543,8.597-1.037,12.638-1.524c0-3.562,0-7.442,0-11.196
			C447.624,127.303,442.475,124.637,437.124,121.866z M467.652,140.563c-4.536,0.885-8.852,1.727-13.358,2.605
			c0.14,2.362,0.283,4.798,0.429,7.234c0.022,0.379-0.062,0.82,0.102,1.126c1.129,2.117,1.051,4.41,0.395,6.504
			c-0.813,2.592-0.448,5.072-0.515,7.697C462.328,163.883,467.217,147.972,467.652,140.563z M453.185,260.536
			c-7.678,5.772-9.286,14.114-12.16,22.416c4.396,0.318,8.703,0.632,13.457,0.977c-0.294-1.758-0.771-3.521-0.833-5.3
			c-0.057-1.626,0.453-3.263,0.505-4.902c0.104-3.321,0.146-6.648,0.04-9.968C454.159,262.724,453.567,261.706,453.185,260.536z
			 M453.092,165.615c0-7.126,0.002-13.987-0.002-20.847c-0.001-1.271-0.577-1.876-1.918-1.705c-2.208,0.282-4.424,0.501-6.636,0.752
			c-1.438,0.163-2.874,0.335-4.512,0.527c0.581,1.309,1.055,2.409,1.555,3.497c0.456,0.992,1.081,1.932,1.37,2.968
			c0.263,0.943-0.105,2.116,0.292,2.958c1.173,2.483,2.496,4.908,3.933,7.25C448.563,163.281,450.341,165.169,453.092,165.615z
			 M387.056,124.362c-0.698,0.038-1.651-0.016-2.558,0.165c-1.449,0.287-2.858,0.771-4.301,1.098
			c-3.745,0.851-7.478,1.665-10.848,3.685c-2.844,1.705-3.215,3.394-0.633,5.375c2.744,2.104,6.099,2.891,9.427,3.648
			c1.521,0.346,3.005,0.861,4.298,1.238C384.034,134.321,385.527,129.398,387.056,124.362z M384.142,141.634
			c0.011,4.821-0.138,9.379,1.313,13.715c0.609,1.822,1.834,3.457,2.891,5.105c0.583,0.91,1.263,0.898,1.816-0.183
			c0.947-1.847,1.853-3.728,2.974-5.467c2.106-3.27,4.364-6.441,6.523-9.678c0.229-0.343,0.211-0.852,0.309-1.288
			c-2.804-0.262-5.486-0.42-8.141-0.786C389.319,142.706,386.842,142.142,384.142,141.634z M455.765,285.764
			c-0.096,2.146-0.263,3.889-0.206,5.625c0.021,0.655,0.402,1.471,0.893,1.902c0.936,0.824,2.063,1.431,3.122,2.11
			c0.157,0.101,0.375,0.107,0.557,0.154c0.253-0.497,0.486-0.954,0.719-1.41c0.254,1.698,0.938,2.639,2.659,2.649
			c0.38,0.003,0.795,0.229,1.133,0.448c2.097,1.361,4.175,2.75,6.271,4.138c0.118-0.23,0.181-0.293,0.175-0.35
			c-0.399-4.053-0.76-8.111-1.293-12.146c-0.044-0.335-1.252-0.59-1.949-0.742c-0.688-0.151-1.431-0.045-2.12-0.191
			C462.358,287.238,459.001,286.479,455.765,285.764z M403.886,141.364c-0.13,0.218-0.261,0.436-0.391,0.654
			c3.919,0.973,8.007,0.641,12.013,0.779c4.475,0.155,8.959,0.036,13.438,0.036c-0.362-0.809-0.865-1.457-1.454-1.549
			c-2.38-0.374-4.168-2.11-6.568-2.576c-1.612-0.313-2.903-2.133-4.528-2.568c-2.347-0.63-4.359-1.667-6.29-3.046
			c-0.277-0.198-1.144-0.081-1.322,0.178c-0.989,1.433-1.856,2.95-2.753,4.446C405.307,138.928,404.6,140.148,403.886,141.364z
			 M471.534,288.305c-0.052,0.896-0.17,1.547-0.112,2.182c0.284,3.085,0.563,6.172,0.989,9.238c0.06,0.429,1.055,1.157,1.399,1.05
			c3.163-0.985,6.499-1.688,8.959-4.149c0.404-0.405,0.778-1.486,0.555-1.763c-0.92-1.142-1.913-2.418-3.177-3.049
			C477.51,290.497,474.684,289.559,471.534,288.305z M394.264,123.153c-0.088,0.243-0.176,0.486-0.264,0.729
			c4.788,2.219,9.578,4.438,14.676,6.799c1.806-2.894,3.566-5.717,5.327-8.54c-0.108-0.197-0.217-0.394-0.325-0.591
			C407.206,122.084,400.734,122.619,394.264,123.153z M468.347,138.669c-0.055-0.224-0.108-0.447-0.163-0.671
			c-4.505-2.328-9.01-4.656-13.749-7.104c0,3.432,0,6.622,0,9.854c0.946,0,1.77,0.083,2.571-0.015
			c3.028-0.371,6.055-0.765,9.069-1.234C466.856,139.378,467.591,138.954,468.347,138.669z M455.686,304.731
			c4.596-0.739,8.996-1.446,13.396-2.154c0.087-0.205,0.174-0.41,0.261-0.615c-4.481-2.426-8.964-4.852-13.657-7.393
			C455.686,297.842,455.686,300.992,455.686,304.731z M383.173,155.042c-0.293-4.905-0.566-9.492-0.822-13.792
			c-3.526-0.965-6.976-1.908-10.426-2.852c-0.122,0.128-0.243,0.256-0.364,0.385C375.401,144.161,379.242,149.539,383.173,155.042z
			 M479.177,289.182c-3.942-5.502-7.643-10.666-11.343-15.829c-0.198,0.117-0.397,0.233-0.596,0.35
			c0.477,1.187,1.1,2.338,1.401,3.567c0.651,2.66,1.092,5.372,1.725,8.037c0.154,0.652,0.594,1.574,1.109,1.745
			C473.868,287.847,476.336,288.421,479.177,289.182z M477.25,138.176c-0.111-0.156-0.223-0.312-0.334-0.467
			c-1.825,0.621-3.617,1.384-5.486,1.817c-1.563,0.363-2.193,1.175-2.418,2.693c-0.236,1.605-0.747,3.169-1.112,4.757
			c-0.438,1.901-0.848,3.809-1.271,5.713c0.166,0.076,0.331,0.151,0.497,0.227C470.501,148.003,473.876,143.09,477.25,138.176z
			 M442.445,285.135c0,0.19-0.001,0.38-0.001,0.569c0.656,0.39,1.313,0.78,1.971,1.168c2.631,1.554,5.231,3.163,7.927,4.597
			c0.388,0.206,1.742-0.388,1.775-0.703c0.182-1.698,0.086-3.427,0.086-5.047C450.043,285.513,446.244,285.324,442.445,285.135z
			 M452.896,122.742c-3.578-0.332-7.172-0.665-10.767-0.998c-0.083,0.262-0.168,0.523-0.251,0.785
			c3.608,1.881,7.217,3.761,11.018,5.742C452.896,126.482,452.896,124.935,452.896,122.742z M456.926,167.063
			c-0.141-0.156-0.281-0.312-0.422-0.468c-0.69,0.321-1.654,0.475-1.989,1.016c-0.281,0.456,0.17,1.364,0.394,2.613
			C455.818,168.797,456.372,167.93,456.926,167.063z M458.138,260.034c-0.957-1.336-1.626-2.27-2.294-3.202
			c-0.129,0.097-0.258,0.194-0.387,0.291c0,0.729,0,1.456,0,2.2C456.229,259.527,456.912,259.709,458.138,260.034z"/>
		<path fill-rule="evenodd" clip-rule="evenodd" d="M119.646,169.245c6.13,0,11.687,0.02,17.243-0.006
			c5.082-0.024,10.165-0.17,15.245-0.112c1.694,0.02,2.07-0.592,2.056-2.152c-0.119-12.762-0.17-25.525-0.233-38.288
			c-0.006-1.236,0.167-2.486,0.029-3.705c-0.231-2.055,0.777-2.735,2.61-2.723c3.364,0.021,6.729,0.039,10.093,0.047
			c0.264,0.001,0.527-0.087,1.15-0.197c-0.801-1.024-1.461-1.869-2.122-2.713c0.077-0.146,0.153-0.291,0.23-0.437
			c3.933,1.264,7.866,2.528,11.799,3.792c-0.047,0.219-0.094,0.437-0.141,0.655c-3.773,1.279-7.547,2.557-11.321,3.834
			c-0.108-0.176-0.215-0.352-0.323-0.527c0.755-0.913,1.51-1.825,2.563-3.099c-2.719,0-5.072-0.004-7.425,0.004
			c-0.411,0.001-0.822,0.055-1.233,0.08c-4.539,0.281-4.492,0.28-4.467,4.719c0.073,13.252,0.09,26.504,0.172,39.757
			c0.01,1.588-0.611,2.226-2.175,2.23c-10.841,0.03-21.687,0.287-32.52,0.005c-2.585-0.067-3.22,1.426-4.21,2.755
			c-3.998,5.363-7.911,10.793-11.735,16.282c-3.606,5.176-7.01,10.493-10.605,15.677c-1.694,2.443-3.645,4.706-5.444,7.077
			c-0.796,1.049-1.52,2.155-2.246,3.255c-0.728,1.104-0.282,1.906,0.501,2.874c2.917,3.602,5.76,7.268,8.53,10.985
			c3.279,4.398,6.436,8.888,9.68,13.313c3.587,4.895,7.261,9.727,10.806,14.651c2.589,3.599,5.017,7.313,7.547,10.953
			c0.625,0.898,1.369,1.714,2.216,2.763c10.242,0,20.8,0,31.599,0c0-6.903,0.009-13.728-0.002-20.552
			c-0.011-6.864-0.015-13.728-0.072-20.591c-0.057-6.86-0.246-13.72-0.244-20.58c0.002-6.655-0.869-13.329-0.26-19.489
			c2.063,0.488,3.63,1.089,5.229,1.187c2.864,0.176,5.748,0.05,9.239,0.05c-1.041-1.303-1.813-2.27-2.586-3.237
			c0.064-0.12,0.129-0.239,0.194-0.359c3.974,1.21,7.947,2.421,11.92,3.631c0.018,0.214,0.036,0.429,0.054,0.643
			c-3.806,1.25-7.611,2.499-11.417,3.749c-0.115-0.132-0.23-0.265-0.346-0.397c0.663-1.022,1.326-2.045,2.173-3.353
			c-4.496,0.216-8.56,0.411-12.687,0.608c0,6.692-0.017,13.202,0.004,19.712c0.032,10.221,0.077,20.442,0.138,30.663
			c0.052,8.76,0.129,17.52,0.203,26.28c0.028,3.35,0.038,3.352-3.433,3.353c-8.654,0.001-17.309,0-25.964,0c-0.75,0-1.5,0-2.35,0
			c0.072,0.461,0.017,0.862,0.188,1.099c3.986,5.488,7.99,10.964,12.008,16.43c1.363,1.854,2.747,3.695,4.167,5.507
			c1.857,2.369,1.657,4.845-0.872,6.189c-2.737,1.455-5.614,2.695-8.53,3.754c-3.718,1.35-7.511,2.413-11.542,2.591
			c-3.102,0.137-6.175,0.82-9.276,1.099c-5.84,0.525-11.684,1.072-17.538,1.356c-7.316,0.354-14.646,0.642-21.968,0.593
			c-4.966-0.033-9.946-0.542-14.887-1.115c-5.872-0.681-11.822-1.208-17.525-2.646c-4.755-1.199-9.25-3.512-13.764-5.545
			c-2.12-0.954-2.219-3.311-0.832-5.24c3.789-5.271,7.423-10.652,11.186-15.941c2.443-3.434,5.021-6.771,7.506-10.174
			c3.038-4.161,6.081-8.32,9.042-12.537c1.128-1.606,2.79-2.958,2.7-5.261c-0.016-0.416,0.661-1.015,1.153-1.269
			c3.039-1.571,3.698-5.015,5.826-7.293c0.437-0.468,0.759-1.044,1.132-1.571c2.47-3.496,4.914-7.01,7.417-10.482
			c2.191-3.039,4.458-6.023,6.673-9.044c1.276-1.741,2.576-3.471,3.732-5.289c0.284-0.447,0.307-1.409,0.012-1.82
			c-3.186-4.439-6.47-8.807-9.706-13.21c-3.86-5.252-7.689-10.528-11.552-15.779c-3.074-4.179-6.197-8.321-9.266-12.502
			c-3.851-5.247-7.669-10.518-11.501-15.779c-3.043-4.178-6.041-8.391-9.146-12.522c-2.239-2.979-4.665-5.816-6.918-8.785
			c-0.991-1.306-1.01-2.763,0.205-4.021c1.626-1.684,3.469-2.964,5.806-3.594c3.816-1.029,7.567-2.297,11.373-3.371
			c1.038-0.292,2.186-0.172,3.258-0.375c9.506-1.798,19.088-2.696,28.769-2.7c4.503-0.001,9.008-0.475,13.51-0.435
			c5.333,0.048,10.662,0.416,15.992,0.653c0.752,0.034,1.507,0.076,2.253,0.174c5.106,0.671,10.209,1.363,15.315,2.035
			c1.22,0.161,2.445,0.288,3.67,0.404c4.719,0.449,9.211,1.885,13.441,3.848c1.881,0.873,4.548,1.78,4.595,4.672
			c0.015,0.919-0.34,1.989-0.869,2.751c-2.932,4.218-5.952,8.376-8.977,12.53c-2.607,3.579-5.302,7.095-7.881,10.694
			C123.714,163.152,121.857,165.997,119.646,169.245z M86.641,287.27c-0.005-0.128-0.01-0.256-0.016-0.384
			c-7.923,0.4-15.847,0.789-23.77,1.21c-2.122,0.113-4.258,0.202-6.354,0.522c-3.391,0.518-6.73,1.426-10.132,1.787
			c-4.469,0.474-8.739,1.653-12.871,3.261c-1.631,0.635-3.105,1.947-4.342,3.244c-1.324,1.389-0.67,3.841,1.104,4.594
			c2.343,0.994,4.714,1.979,7.158,2.665c4.149,1.164,8.325,2.319,12.563,3.052c4.009,0.692,8.108,0.888,12.176,1.199
			c2.254,0.173,4.527,0.104,6.789,0.199c13.293,0.564,26.554,0.516,39.838-0.701c6.323-0.579,12.61-1.116,18.783-2.584
			c3.327-0.791,6.667-1.622,9.875-2.787c1.87-0.68,3.541-1.98,5.181-3.167c0.382-0.275,0.576-1.381,0.34-1.839
			c-0.991-1.924-2.429-3.433-4.573-4.185c-4.137-1.451-8.254-2.947-12.727-2.918c-0.136,0-0.273-0.03-0.407-0.058
			c-3.234-0.653-6.441-1.556-9.707-1.908c-5.427-0.587-10.887-0.932-16.342-1.167C95.026,287.125,90.831,287.27,86.641,287.27z
			 M87.97,124.761c-0.01-0.282-0.021-0.564-0.031-0.847c-8.674,0.549-17.343,1.224-26.025,1.615
			c-9.314,0.419-18.484,1.669-27.423,4.293c-2.355,0.691-4.561,2.01-6.692,3.28c-0.665,0.397-1.42,2.021-1.178,2.327
			c1.182,1.492,2.471,3.406,4.117,3.93c5.445,1.731,11.023,3.108,16.624,4.267c3.649,0.755,7.416,1.04,11.146,1.28
			c7.566,0.487,15.14,0.974,22.718,1.124c4.835,0.096,9.686-0.358,14.522-0.664c6.62-0.418,13.24-0.857,19.847-1.435
			c3.11-0.272,6.258-0.629,9.27-1.41c4.529-1.174,8.921-2.864,13.433-4.113c2.125-0.588,2.638-2.345,3.541-3.857
			c0.147-0.248-0.171-1.063-0.49-1.25c-2.125-1.254-4.191-2.792-6.502-3.509c-3.805-1.182-7.748-2.038-11.693-2.623
			c-6.557-0.973-13.146-1.854-19.752-2.334C98.282,124.463,93.115,124.761,87.97,124.761z M138.685,291.866
			c-0.91-1.575-1.399-2.595-2.042-3.507c-3.125-4.43-6.272-8.847-9.46-13.231c-0.797-1.097-1.619-2.118-3.373-1.283
			c-1.229,0.586-2.722,0.944-4.074,0.884c-4.058-0.181-8.131-0.429-12.148-1.004c-4.323-0.619-8.607-1.553-12.873-2.51
			c-2.957-0.663-5.876-1.525-8.77-2.433c-3.285-1.029-6.496-2.3-9.792-3.284c-1.6-0.478-2.899-1.592-4.306-2.095
			c-5.057-1.808-9.636-4.351-13.906-7.614c-8.477,12.021-16.881,23.941-25.482,36.139c0.758,0.034,0.965,0.089,1.148,0.045
			c5.286-1.27,10.562-2.582,15.86-3.8c1.119-0.257,2.328-0.093,3.475-0.259c4.352-0.631,8.683-1.773,13.045-1.902
			c15.324-0.451,30.672-1.38,45.961,0.736c2.75,0.38,5.495,0.99,8.254,1.066c5.271,0.146,10.192,1.807,15.214,3.055
			C136.378,291.109,137.316,291.445,138.685,291.866z M48.479,165.727c0.864-0.617,1.401-1.082,2.008-1.421
			c4.782-2.676,10.153-3.455,15.412-3.969c6.739-0.66,13.568-0.675,20.351-0.545c7.003,0.135,14.003,0.7,20.992,1.24
			c2.534,0.196,5.072,0.711,7.532,1.367c1.623,0.433,3.076,1.466,4.674,2.042c0.544,0.196,1.611,0.052,1.902-0.338
			c2.06-2.762,3.953-5.648,5.953-8.456c2.305-3.236,4.702-6.407,6.988-9.656c1.131-1.608,2.104-3.328,3.147-4.998
			c-0.109-0.149-0.218-0.299-0.328-0.449c-0.899,0.316-1.793,0.65-2.699,0.944c-1.544,0.502-3.07,1.103-4.651,1.438
			c-2.593,0.551-5.226,0.911-7.837,1.375c-3.488,0.62-6.95,1.458-10.462,1.851c-5.084,0.57-10.2,1.078-15.31,1.162
			c-9.315,0.154-18.644,0.205-27.951-0.137c-6.616-0.243-13.248-0.926-19.794-1.927c-5.021-0.767-9.921-2.326-14.868-3.561
			c-0.792-0.198-1.547-0.547-2.319-0.827c-0.135,0.157-0.27,0.315-0.404,0.472C36.678,149.433,42.542,157.53,48.479,165.727z
			 M51.514,169.25c0.596,1.024,0.953,1.787,1.442,2.453c1.845,2.507,3.75,4.97,5.602,7.472c2.36,3.189,4.677,6.41,7.038,9.598
			c3.573,4.825,7.208,9.603,10.74,14.458c2.529,3.476,4.983,7.009,7.36,10.59c0.867,1.307,1.643,0.842,2.244,0.047
			c2.38-3.146,4.721-6.326,6.962-9.572c3.423-4.959,6.703-10.017,10.143-14.964c1.445-2.079,3.194-3.943,4.711-5.974
			c1.567-2.097,3.025-4.275,4.521-6.425c1.768-2.542,3.524-5.092,5.287-7.639c-2.658,0.214-5.016,1.068-7.447,1.426
			c-4.318,0.636-8.673,1.241-13.027,1.371c-7.731,0.23-15.474,0.17-23.21,0.083c-3.961-0.044-7.946-0.198-11.871-0.692
			C58.615,171.054,55.29,170.076,51.514,169.25z M118.861,264.935c0.168-0.151,0.337-0.304,0.506-0.455
			c-11.443-15.44-22.887-30.88-34.421-46.443c-7.822,10.897-15.403,21.458-22.855,31.839c6.537,0.77,12.73,1.501,18.924,2.224
			c0.679,0.079,1.384,0.025,2.041,0.184c2.519,0.608,5.031,1.25,7.532,1.932c2.123,0.579,4.248,1.166,6.334,1.862
			c2.918,0.974,5.822,1.998,8.694,3.101c2.752,1.056,5.468,2.209,8.175,3.378C115.505,263.294,117.173,264.138,118.861,264.935z
			 M59.139,252.628c-0.092,0.31-0.184,0.621-0.275,0.931c0.81,0.968,1.499,2.084,2.46,2.862c1.06,0.858,2.345,1.457,3.578,2.079
			c2.174,1.096,4.372,2.149,6.587,3.158c0.467,0.213,1.055,0.171,1.589,0.22c0.176,0.016,0.444-0.145,0.528-0.068
			c2.047,1.87,4.563,2.756,7.186,3.362c0.711,0.164,1.295,0.466,1.91,0.732c2.618,1.136,5.418,1.882,8.191,2.626
			c3.295,0.884,6.603,1.773,9.956,2.377c3.726,0.67,7.51,1.025,11.271,1.504c0.935,0.119,1.876,0.255,2.815,0.259
			c2.435,0.012,4.881,0.085,7.301-0.121c1.593-0.137,1.976-1.428,0.731-2.45c-1.816-1.493-3.33-3.325-5.755-4.147
			c-1.778-0.603-3.632-1.192-5.217-2.571c-1.215-1.058-3.479-0.7-4.497-2.486c-0.043-0.076-0.258-0.047-0.388-0.084
			c-4.785-1.383-9.571-2.762-14.351-4.161c-0.602-0.177-1.149-0.57-1.757-0.692c-4.841-0.976-9.684-1.945-14.541-2.838
			c-1.887-0.346-3.808-0.527-5.721-0.691c-0.402-0.034-0.88,0.548-1.254,0.478c-1.411-0.265-2.792-0.969-4.186-0.974
			C63.249,251.922,61.193,252.372,59.139,252.628z M119.293,166.02c-2.128-0.935-3.708-2.018-5.42-2.304
			c-4.007-0.67-8.08-0.948-12.123-1.405c-2.61-0.294-5.211-0.82-7.827-0.896c-4.914-0.142-9.836-0.114-14.751-0.001
			c-3.479,0.08-7.053-0.273-10.3,1.505c-0.189,0.103-0.494,0.17-0.671,0.091c-2.201-0.987-4.342-0.915-6.542,0.086
			c-0.727,0.331-1.637,0.335-2.466,0.351c-3.333,0.064-6.36,0.963-9.388,3.189c2.678,0.917,4.951,2.013,7.344,2.443
			c3.928,0.706,7.928,1.07,11.913,1.371c0.992,0.075,2.825-1.119,2.943-0.923c0.786,1.295,1.857,1.365,3.112,1.306
			c1.096-0.052,2.196,0,3.294-0.021c5.865-0.111,11.733-0.161,17.595-0.376c2.793-0.102,5.568-0.642,8.362-0.771
			C109.313,169.435,114.158,168.885,119.293,166.02z"/>
		<path fill-rule="evenodd" clip-rule="evenodd" d="M297.569,328.172c-15.433,0.333-30.875,0.11-46.346,0.222
			c-0.754,2.715,0.387,5.036,1.529,7.064c1.604,2.845,3.554,5.6,5.83,7.928c2.009,2.054,4.53,3.729,7.078,5.104
			c3.324,1.792,6.839,3.276,10.384,4.594c2.259,0.839,4.731,1.084,7.086,1.685c4.402,1.125,8.866,1.539,13.398,1.347
			c0.253-0.011,0.52,0.152,0.769,0.259c0.227,0.096,0.439,0.225,0.765,0.395c-1.395,2.199-3.376,1.663-5.197,1.481
			c-1.343-0.134-2.662-0.494-3.999-0.709c-3.351-0.538-6.821-0.677-10.031-1.666c-4.288-1.323-8.395-3.251-12.542-5.007
			c-4.273-1.81-7.699-4.783-10.816-8.155c-1.96-2.12-3.685-4.382-4.535-7.19c-0.69-2.279-1.339-4.571-2.058-7.032
			c-4.993,0-10.307,0-15.879,0c0,3.364-0.05,6.57,0.013,9.773c0.072,3.612,0.266,7.222,0.371,10.834
			c0.123,4.251,0.248,8.503,0.265,12.755c0.002,0.648-0.529,1.823-0.893,1.855c-1.389,0.124-1.045-1.071-1.047-1.906
			c-0.026-10.505-0.042-21.009-0.062-31.513c-0.001-0.542,0-1.085,0-1.77c-5.298,0-10.479,0-15.451,0
			c-0.909,2.847-1.507,5.791-2.78,8.405c-1.265,2.593-3.007,5.032-4.916,7.209c-1.766,2.014-3.89,3.798-6.113,5.303
			c-2.328,1.575-4.879,2.896-7.484,3.962c-2.827,1.155-5.77,2.221-8.764,2.732c-5.468,0.934-10.803,2.959-16.491,2.329
			c-0.677-0.075-1.344-0.241-2.016-0.365c-0.041-0.236-0.082-0.473-0.123-0.709c0.782-0.334,1.579-0.989,2.343-0.952
			c6.171,0.298,12.07-1.01,17.96-2.632c6.256-1.722,11.952-4.412,16.955-8.605c2.569-2.153,5.03-4.377,6.497-7.413
			c0.943-1.953,1.543-4.079,2.222-6.152c0.306-0.934,0.429-1.927,0.688-3.142c-11.524,0-23.123,0-34.721,0
			c-0.066-0.266-0.132-0.53-0.198-0.796c0.648-0.189,1.296-0.542,1.945-0.544c9.823-0.03,19.646-0.016,29.469-0.011
			c0.89,0,1.78,0,2.802,0c0.694-3.183-0.651-5.88-1.986-8.46c-2.327-4.497-6.011-7.838-10.276-10.402
			c-4.923-2.959-9.913-5.63-15.752-6.85c-5.41-1.129-10.753-2.028-16.262-2.125c-0.663-0.012-1.315-0.563-1.972-0.863
			c0.69-0.271,1.402-0.819,2.068-0.769c4.042,0.307,8.15-0.361,12.115,1.269c2.016,0.829,4.367,0.804,6.515,1.362
			c5.132,1.334,10.004,3.352,14.253,6.557c2.746,2.07,5.481,4.263,7.753,6.816c1.847,2.076,3.189,4.682,4.39,7.225
			c0.847,1.793,1.082,3.876,1.65,6.064c4.97,0,10.208,0,15.617,0c0-4.741,0.014-9.457-0.005-14.173
			c-0.011-2.728-0.106-5.456-0.09-8.184c0.002-0.512,0.354-1.022,0.545-1.533c0.287,0.507,0.819,1.011,0.824,1.521
			c0.062,6.592,0.07,13.185,0.045,19.777c-0.01,2.753-0.06,2.76,2.595,2.763c4.524,0.005,9.048,0.002,13.408,0.002
			c0.61-2.459,0.98-4.795,1.772-6.978c1.978-5.452,5.747-9.517,10.458-12.776c1.915-1.324,3.731-2.816,5.743-3.969
			c1.368-0.784,3.054-0.992,4.502-1.665c3.203-1.486,6.648-2.01,9.996-2.934c5.014-1.384,9.993-1.838,15.103-1.778
			c0.192,0.002,0.383,0.12,0.59,0.189c0.355,1.278,0.065,1.892-1.423,1.913c-3.493,0.05-7.008,0.051-10.469,0.454
			c-2.278,0.267-4.477,1.206-6.714,1.832c-1.658,0.463-3.304,0.995-4.986,1.34c-3.311,0.68-5.72,3.04-8.618,4.43
			c-3.271,1.568-5.855,3.799-8.134,6.448c-3.219,3.744-5.673,7.884-5.795,13.432c15.672,0,31.155,0,46.638,0
			C297.571,327.439,297.57,327.806,297.569,328.172z"/>
		<path fill-rule="evenodd" clip-rule="evenodd" d="M183.479,190.072c1.444-0.065,2.892-0.228,4.33-0.168
			c1.262,0.052,1.884-0.525,2.208-1.62c1.181-3.998,4.12-6.654,7.487-8.548c5.127-2.883,10.663-4.829,16.591-5.598
			c5.31-0.689,10.577-1.695,16.215-2.619c0-1.438,0-3.441,0-5.445c0.288-0.04,0.575-0.08,0.862-0.119
			c1.218,1.768-0.028,4.077,0.779,6.194c0.638,0,1.371,0.004,2.104,0c4.987-0.036,9.815,0.891,14.701,1.859
			c3.579,0.708,7.041,1.594,10.44,2.818c4.489,1.616,8.598,3.897,11.758,7.552c0.793,0.917,1.294,2.177,1.643,3.364
			c0.44,1.495,1.261,2.117,2.785,2.018c1.07-0.07,2.148-0.014,3.223-0.014c0.068,0.198,0.137,0.396,0.204,0.593
			c-0.386,0.267-0.746,0.699-1.165,0.766c-0.804,0.128-1.646,0.107-2.464,0.042c-1.443-0.114-2.137,0.28-2.446,1.921
			c-0.564,2.993-2.854,5.2-5.177,6.621c-3.995,2.444-8.335,4.489-12.767,6.017c-6.759,2.33-13.853,3.047-21.018,2.933
			c-0.468-0.008-1.212,0.598-1.364,1.068c-0.261,0.809-0.059,1.758-0.246,2.605c-0.105,0.477-0.6,0.867-0.92,1.296
			c-0.26-0.401-0.609-0.773-0.752-1.213c-0.121-0.368-0.053-0.824,0.022-1.224c0.332-1.76-0.398-2.146-2.12-2.211
			c-4.351-0.164-8.831-0.067-13-1.111c-5.122-1.283-10.366-2.271-15.189-4.883c-3.053-1.654-5.765-3.615-8.297-5.843
			c-1.007-0.886-1.465-2.52-1.896-3.9c-0.422-1.353-0.834-2.127-2.513-1.858c-1.3,0.209-2.686-0.11-4.033-0.194
			C183.47,190.805,183.475,190.438,183.479,190.072z M271.278,191.273c-0.282-0.062-0.48-0.144-0.679-0.143
			c-12.36,0.028-24.72,0.07-37.08,0.083c-1.377,0.001-1.774,0.671-1.754,1.923c0.058,3.638,0.102,7.277,0.078,10.915
			c-0.021,3.186,0.047,3.373,3.125,3.065c5.927-0.593,11.862-0.798,17.677-2.62c5.562-1.742,10.992-3.602,15.46-7.368
			C269.748,195.745,271.538,193.943,271.278,191.273z M271.436,189.813c-0.157-0.808-0.167-1.514-0.432-2.105
			c-1.359-3.029-3.918-5.073-6.556-6.735c-4.538-2.86-9.819-4.118-14.977-5.249c-4.566-1-9.338-1.07-14.024-1.498
			c-1.194-0.108-2.407-0.016-3.742-0.016c0,4.576,0.06,8.885-0.028,13.19c-0.038,1.879,0.647,2.534,2.532,2.504
			c6.516-0.103,13.035-0.08,19.553-0.09C259.582,189.806,265.402,189.813,271.436,189.813z M230.237,189.795
			c0-5.285,0-10.385,0-15.603c-0.863,0-1.543,0.002-2.224,0c-6.438-0.029-12.668,1.124-18.909,2.7
			c-4.398,1.111-8.461,2.705-12.169,5.206c-2.717,1.832-5.033,4.079-5.681,7.697C204.286,189.795,217.17,189.795,230.237,189.795z
			 M230.475,191.405c-13.229,0-26.123,0-39.414,0c0.467,1.19,0.722,2.077,1.144,2.876c2.15,4.075,6.083,6.284,9.977,7.787
			c4.819,1.86,9.714,4.071,15.121,3.946c0.135-0.003,0.27,0.046,0.407,0.06c4.162,0.448,8.323,0.895,12.522,1.346
			c0.137-0.664,0.235-0.921,0.236-1.18C230.477,201.311,230.475,196.38,230.475,191.405z"/>
		<path fill-rule="evenodd" clip-rule="evenodd" d="M229.94,98.13c0-3.366,0-6.773,0-10.182c2.127,3.237,0.393,6.908,1.175,10.25
			c12.996,1.95,22.697,9.711,23.836,23.684c1.66,0.104,3.359,0.211,5.059,0.317c0.021,0.274,0.04,0.549,0.06,0.824
			c-0.887,0.09-1.783,0.309-2.659,0.245c-1.805-0.132-2.633,0.264-2.742,2.409c-0.247,4.829-2.372,8.958-5.428,12.703
			c-3.06,3.75-7.085,5.957-11.483,7.52c-1.888,0.671-4.014,0.673-6.431,1.04c0,3.504,0,7.164,0,10.825
			c-0.29,0.002-0.58,0.004-0.869,0.006c0-3.652,0-7.303,0-10.58c-3.181-0.694-5.927-0.978-8.434-1.905
			c-5.45-2.017-9.657-5.61-12.493-10.787c-1.513-2.76-2.674-5.546-2.691-8.757c-0.009-1.584-0.793-2.519-2.599-2.321
			c-0.866,0.095-1.764-0.106-2.648-0.173c0.001-0.278,0.001-0.556,0.002-0.834c1.426-0.08,2.851-0.16,4.537-0.254
			C207.76,108.107,216.028,100.383,229.94,98.13z M230.015,100.71c-10.598-0.688-22.144,9.509-21.699,21.36c7.2,0,14.406,0,21.699,0
			C230.015,114.836,230.015,107.841,230.015,100.71z M253.155,122.045c-0.1-7.285-3.417-12.97-8.843-17.055
			c-3.742-2.817-8.256-4.91-13.149-4.431c0,7.337,0,14.345,0,21.485C238.621,122.045,245.768,122.045,253.155,122.045z
			 M231.312,123.497c0,7.037,0.003,13.813-0.004,20.588c-0.001,1.192,0.63,1.367,1.618,1.109c1.578-0.412,3.274-0.561,4.722-1.243
			c2.737-1.29,5.694-2.477,7.891-4.45c2.429-2.182,4.486-5.002,5.995-7.913c1.224-2.362,1.395-5.27,2.07-8.092
			C245.854,123.497,238.649,123.497,231.312,123.497z M230.142,123.593c-7.548,0-14.705,0-21.855,0
			c-0.279,12.724,12.654,22.048,21.855,21.425C230.142,137.927,230.142,130.836,230.142,123.593z"/>
		<path fill-rule="evenodd" clip-rule="evenodd" d="M231.91,226.556c0.187,0.795,0.529,1.589,0.535,2.386
			c0.049,6.385,0.039,12.771,0.035,19.156c0,1.07-0.027,2.149,1.43,2.238c1.196,0.073,2.397,0.359,2.85-1.425
			c0.818-3.228,2.086-6.249,4.417-8.783c2.608-2.836,5.713-4.892,9.164-6.486c2.526-1.167,5.07-2.295,7.628-3.391
			c1.086-0.466,2.197-0.987,3.348-1.174c7.618-1.238,15.157-3.254,22.992-2.529c0.129,0.012,0.253,0.083,0.49,0.164
			c0.351,1.356-0.087,1.861-1.605,1.885c-4.728,0.076-9.475,0.071-14.17,0.542c-2.805,0.281-5.605,1.183-8.267,2.183
			c-4.106,1.542-8.188,3.216-12.098,5.195c-3.108,1.573-6.002,3.614-7.839,6.773c-1.124,1.933-2.573,3.75-2.032,6.376
			c16.809,0,33.614,0,50.417,0c0.044,0.226,0.088,0.452,0.132,0.679c-0.804,0.185-1.606,0.528-2.41,0.53
			c-15.448,0.029-30.896,0.018-46.343,0.015c-0.54-0.001-1.08,0-1.712,0c-0.838,3.521,0.995,6.141,3.043,8.226
			c3.043,3.099,6.49,5.754,10.628,7.525c2.445,1.047,4.807,1.947,7.433,2.475c3.793,0.761,7.447,2.198,11.229,3.039
			c1.977,0.44,4.098,0.229,6.153,0.305c2.054,0.077,4.113,0.083,6.158,0.256c0.663,0.057,1.29,0.54,2.081,0.894
			c-1.659,1.666-3.515,1.026-5.248,0.938c-0.781-0.039-1.546-0.392-2.328-0.44c-3.418-0.217-6.87-0.149-10.247-0.628
			c-2.407-0.342-4.678-1.558-7.074-2.084c-5.449-1.197-10.381-3.641-14.941-6.639c-4.839-3.183-8.477-7.52-9.207-13.753
			c-1.289,0-2.551,0-4.107,0c0,7.911,0,15.731,0,23.552c-0.252,0.034-0.504,0.069-0.756,0.104c-0.148-0.75-0.421-1.499-0.426-2.249
			c-0.037-6.111-0.024-12.224-0.025-18.335c0-0.948,0-1.896,0-3.033c-1.964,0-3.719,0-5.989,0c1.85-2.205,4.044-0.701,5.881-1.623
			c0-3.782-0.089-7.735,0.026-11.682c0.107-3.698-1.291-7.454,0.036-11.107C231.433,226.604,231.671,226.58,231.91,226.556z"/>
		<path fill-rule="evenodd" clip-rule="evenodd" d="M333.524,349.534c-1.788,1.506-3.695,8.863-3.048,10.676
			c-1.077,0-2.132,0-2.96,0c0.598-1.551,1.188-3.079,1.778-4.611c-3.295-1.238-5.521,0.106-5.546,3.211
			c-0.001,0.227,0.239,0.446,0.327,0.685c0.124,0.338,0.211,0.69,0.313,1.037c-0.357,0.062-0.713,0.158-1.072,0.176
			c-0.618,0.028-1.238,0.008-2.356,0.008c1.272-3.586,3.076-6.987,3.072-10.935c0.641,0,1.639,0,2.48,0
			c-0.351,1.289-0.7,2.574-1.103,4.055c1.638,0,2.845,0,4.188,0c0.251-1.32,0.485-2.562,0.771-4.064
			C330.946,349.728,331.976,349.65,333.524,349.534z"/>
		<path fill-rule="evenodd" clip-rule="evenodd" d="M289.249,189.306c0.94-0.226,1.59-0.382,2.723-0.655
			c-0.377,1.098-0.668,1.945-1.022,2.977c-0.676-0.4-1.231-0.729-2.146-1.27c-0.33,1.184-0.646,2.313-0.961,3.442
			c0.154,0.212,0.309,0.424,0.463,0.636c1.649-0.517,3.3-1.034,4.873-1.528c0.21,1.844-0.127,2.285-2.224,2.32
			c-1.958,0.034-3.917,0.007-5.973,0.007c1.391-3.229,2.731-6.204,2.522-9.8c2.077,0,4.343,0,6.779,0
			c-0.049,0.623-0.093,1.188-0.142,1.81C291.81,186.219,289.34,184.517,289.249,189.306z"/>
		<path fill-rule="evenodd" clip-rule="evenodd" d="M366.134,352.328c1.022,0.57,2.51,0.895,2.968,1.764
			c0.891,1.69-0.151,3.376-1.185,4.778c-1.204,1.634-4.12,2.099-5.82,1.009c-0.291-0.187-0.566-0.825-0.467-1.127
			c0.843-2.542,1.842-5.034,2.627-7.592c0.168-0.545-0.338-1.298-0.623-2.254c0.704-0.12,1.488-0.256,2.596-0.446
			c-0.247,1.654-0.447,2.998-0.646,4.342C365.767,352.645,365.95,352.486,366.134,352.328z M364.528,359.931
			c0.587-0.368,1.015-0.497,1.21-0.784c0.654-0.958,1.362-1.92,1.769-2.986c0.207-0.544-0.186-1.316-0.307-1.985
			c-0.51,0.122-1.283,0.077-1.481,0.394c-0.809,1.288-1.501,2.662-2.081,4.068C363.535,358.884,364.174,359.438,364.528,359.931z"/>
		<path fill-rule="evenodd" clip-rule="evenodd" d="M281.772,120.19c-0.204,1.045-0.392,2.005-0.521,2.661
			c-1.109-0.765-1.964-1.805-2.931-1.922c-1.76-0.213-2.672,1.23-3.324,2.696c-0.326,0.733-0.908,1.546-0.803,2.234
			c0.173,1.123,0.535,2.64,1.339,3.121c0.771,0.461,2.21-0.148,3.341-0.363c0.427-0.081,0.813-0.375,1.218-0.573
			c0.118,0.178,0.237,0.356,0.355,0.534c-0.977,0.611-1.895,1.365-2.945,1.802c-1.834,0.762-4.736-1.153-5.037-3.128
			C271.824,123.052,275.209,118.319,281.772,120.19z"/>
		<path fill-rule="evenodd" clip-rule="evenodd" d="M307.519,195.329c0,1.078,0,2.012,0,3.072c-0.903,0-1.686,0-2.547,0
			c0.965-3.205,1.909-6.346,2.936-9.76c1.017,0,2.359-0.124,3.658,0.063c0.497,0.071,1.2,0.801,1.285,1.316
			C313.399,193.354,311.681,195.091,307.519,195.329z M307.867,194.11c2.717-0.122,3.852-1.191,3.662-3.345
			c-0.031-0.359-1.051-1.028-1.29-0.908C308.594,190.681,308.09,192.218,307.867,194.11z"/>
		<path fill-rule="evenodd" clip-rule="evenodd" d="M390.316,352.864c-0.13,0.896-0.032,1.943-0.45,2.709
			c-0.65,1.191-1.281,2.195,0.026,3.295c-0.622,0.414-1.195,0.992-1.881,1.196c-0.629,0.187-1.381,0.004-2.072-0.075
			c-0.97-0.11-2.611-0.039-2.759-0.464c-0.329-0.949-0.092-2.214,0.234-3.251C384.469,352.92,387.044,352.311,390.316,352.864z
			 M383.648,358.304c1.236,0.125,2.117,0.501,2.597,0.212c1.756-1.061,1.766-2.847,1.6-4.787
			C384.938,353.818,385.39,356.563,383.648,358.304z"/>
		<path fill-rule="evenodd" clip-rule="evenodd" d="M166.1,255.69c-0.938,0-1.715,0-2.588,0c0.968-3.192,1.891-6.238,3.009-9.923
			c0.981,0.072,2.669-0.029,4.196,0.42c0.577,0.17,1.218,1.72,1.039,2.444c-0.209,0.848-1.163,1.883-2.004,2.137
			C166.113,251.862,166.085,251.769,166.1,255.69z M169.664,246.902c-2.185-0.101-2.827,0.928-2.26,3.444
			C169.691,250.521,170.111,249.917,169.664,246.902z"/>
		<path fill-rule="evenodd" clip-rule="evenodd" d="M195.181,245.582c1.291,0.107,1.291,0.107,0.94,3.408
			c3.077,0.457,3.397,0.864,2.82,3.578c-0.488,2.295-2.86,3.838-5,3.19c-1.687-0.51-1.077-1.651-0.744-2.788
			C193.896,250.58,194.495,248.161,195.181,245.582z M194.155,254.466c2.077,0.434,3.155-0.413,3.43-2.247
			c0.081-0.54-0.279-1.146-0.437-1.722c-0.684,0.319-1.625,0.464-1.991,1.001C194.626,252.279,194.507,253.343,194.155,254.466z"/>
		<path fill-rule="evenodd" clip-rule="evenodd" d="M218.155,249.417c-0.145,0.586-0.336,1.152-0.413,1.732
			c-0.134,1.012-0.114,2.051-0.322,3.045c-0.118,0.562-0.509,1.463-0.868,1.509c-1.393,0.18-2.839,0.213-4.232,0.04
			c-1.229-0.152-1.706-2.007-1.006-3.395C212.885,249.234,213.986,248.743,218.155,249.417z M212.787,253.863
			c0.118,0.173,0.236,0.347,0.353,0.521c0.673-0.367,1.567-0.578,1.962-1.14c0.497-0.706,0.584-1.699,0.848-2.568
			c-0.401-0.11-0.83-0.372-1.201-0.307C212.645,250.738,213.243,252.587,212.787,253.863z"/>
		<path fill-rule="evenodd" clip-rule="evenodd" d="M304.163,128.623c1.067-0.103,2.136-0.206,3.454-0.333
			c-1.475,1.83-2.454,2.009-5.212,1.208c-0.968-4.097,1.594-6.936,5.826-5.671c-0.52,1.001-0.802,2.121-1.516,2.764
			c-0.735,0.662-1.891,0.859-2.862,1.26C303.957,128.108,304.06,128.366,304.163,128.623z"/>
		<path fill-rule="evenodd" clip-rule="evenodd" d="M338.76,352.816c1.583,0.998,0.907,2.534,0.305,3.382
			c-1.844,2.588-3.964,4.987-6.082,7.365c-0.337,0.378-1.222,0.266-1.854,0.38c-0.134-0.204-0.269-0.408-0.403-0.612
			c0.46-0.384,0.875-1.015,1.387-1.105c1.513-0.269,2.35-1.097,2.256-2.564c-0.104-1.653-0.468-3.29-0.716-4.935
			c-0.073-0.478-0.212-0.964-0.164-1.431c0.016-0.152,0.649-0.438,0.792-0.345c0.473,0.309,1.074,0.697,1.215,1.176
			c0.226,0.767,0.091,1.634,0.17,2.452c0.06,0.621,0.215,1.231,0.328,1.847c0.221,0.024,0.44,0.049,0.66,0.074
			C337.354,356.608,338.056,354.717,338.76,352.816z"/>
		<path fill-rule="evenodd" clip-rule="evenodd" d="M326.12,189.875c-1.625,0.969-2.91,1.705-4.158,2.5
			c-0.337,0.214-0.562,0.605-0.837,0.915c0.338,0.234,0.674,0.658,1.015,0.662c0.71,0.01,1.422-0.203,2.23-0.34
			c-0.722,1.407-2.72,2.085-3.959,1.466c-1.284-0.641-1.565-2.045-0.708-3.545C321.535,188.324,323.114,187.734,326.12,189.875z"/>
		<path fill-rule="evenodd" clip-rule="evenodd" d="M178.483,249.521c0,1.871,0.105,3.433-0.062,4.966
			c-0.053,0.485-0.763,1.097-1.3,1.281c-0.641,0.221-1.423-0.011-2.135,0.054c-2.473,0.223-3.284-0.699-2.665-3.087
			C173.103,249.725,175.797,248.458,178.483,249.521z M176.533,250.445c-1.55,0.017-3.107,1.733-2.891,2.943
			c0.073,0.409,0.695,0.952,1.129,1.018c0.892,0.135,2.501-1.937,2.374-3.028C177.099,250.982,176.663,250.632,176.533,250.445z"/>
		<path fill-rule="evenodd" clip-rule="evenodd" d="M191.504,249.414c0,1.865,0.054,3.718-0.055,5.561
			c-0.018,0.302-0.732,0.749-1.165,0.802c-1.007,0.122-2.047,0.123-3.058,0.02c-0.586-0.06-1.601-0.366-1.632-0.647
			c-0.119-1.098-0.276-2.432,0.224-3.312C187.391,249.071,188.108,248.89,191.504,249.414z M187.086,254.484
			c1.632-0.123,2.671-0.922,2.959-2.557c0.078-0.446,0.007-1.219-0.251-1.354c-0.401-0.211-1.25-0.215-1.508,0.064
			C187.35,251.646,186.02,252.632,187.086,254.484z"/>
		<path fill-rule="evenodd" clip-rule="evenodd" d="M377.226,355.621c-0.102,3.057-1.656,4.609-4.411,4.633
			c-1.742,0.014-2.759-0.93-2.879-2.406c-0.178-2.168,2.784-5.151,4.75-5.131C376.462,352.735,377.29,353.682,377.226,355.621z
			 M372.513,359.616c2.096-0.397,3.808-3.028,3.255-4.953c-0.339-1.179-1.136-1.36-2.029-0.813
			C372.025,354.898,371.498,357.622,372.513,359.616z"/>
		<path fill-rule="evenodd" clip-rule="evenodd" d="M353.926,358.579c-0.597,1.422-2.043,1.871-3.99,1.592
			c-1.665-0.238-1.22-1.41-1.214-2.331c0.015-2.781,1.264-4.447,3.936-5.025c0.626-0.136,1.773,0.289,2.028,0.789
			c0.269,0.525-0.001,1.73-0.471,2.14c-0.804,0.7-1.955,0.991-2.94,1.495c-0.415,0.212-0.777,0.524-1.164,0.792
			c0.405,0.298,0.798,0.823,1.218,0.846C352.179,358.922,353.043,358.696,353.926,358.579z M353.65,354.417
			c-1.853-0.818-2.683-0.236-2.7,2.218C351.817,355.922,352.686,355.209,353.65,354.417z"/>
		<path fill-rule="evenodd" clip-rule="evenodd" d="M204.364,249.14c1.691-0.249,2.336,1.063,2.503,2.47
			c0.239,1.994-2.309,4.228-4.433,4.233c-1.721,0.006-2.261-1.026-2.272-2.454C200.142,250.688,201.687,249.105,204.364,249.14z
			 M201.823,255.131c1.157-0.786,2.316-1.162,2.671-1.916c0.458-0.973,0.272-2.247,0.387-3.69
			C202.439,250.712,201.237,252.004,201.823,255.131z"/>
		<path fill-rule="evenodd" clip-rule="evenodd" d="M381.148,359.653c-1.221,0.229-2.056,0.388-3.347,0.631
			c0.779-2.902,1.291-5.381,2.13-7.744c0.629-1.771,0.803-1.99-0.441-3.71c1.198-0.103,2.189-0.188,3.678-0.317
			c-0.88,2.199-1.976,3.903-2.159,5.7C380.844,355.835,379.035,357.476,381.148,359.653z"/>
		<path fill-rule="evenodd" clip-rule="evenodd" d="M356.733,352.794c1.061,0.175,2.453,0.404,4.242,0.699
			c0.018,0.121,0.098,0.654,0.193,1.302c-0.813,0-1.403,0-1.993,0c-2.298,1.038-0.789,4.688-4.002,5.522
			C355.708,357.74,356.175,355.488,356.733,352.794z"/>
		<path fill-rule="evenodd" clip-rule="evenodd" d="M313.146,194.563c0.253-0.518,0.51-1.042,0.717-1.465
			c0.704,0.374,1.369,0.727,2.386,1.266c-0.112-0.86-0.123-1.302-0.231-1.717c-0.308-1.165-0.655-2.318-0.987-3.476
			c1.135-0.247,2.27-0.494,3.704-0.806c-0.087,1.145-0.144,1.879-0.199,2.612c-0.155,0.042-0.312,0.084-0.467,0.126
			c-0.318-0.608-0.637-1.217-0.955-1.825c-0.167-0.021-0.333-0.042-0.499-0.063c0,0.625-0.254,1.601,0.043,1.817
			c1.388,1.007,1.448,2.29,0.86,3.593C317.109,195.529,314.619,195.429,313.146,194.563z"/>
		<path fill-rule="evenodd" clip-rule="evenodd" d="M297.071,123.664c0,0.714,0,1.434,0,2.153c-0.145,0.072-0.29,0.143-0.435,0.215
			c-0.363-0.491-0.728-0.981-1.111-1.499c-1.497,0.456-2.851,2.246-2.352,3.459c0.897,2.177,2.257-0.249,3.637,0.359
			c-0.639,1.487-1.914,1.674-3.216,1.662c-1.321-0.012-1.813-0.791-1.875-2.109C291.585,125.086,294.052,122.309,297.071,123.664z"
			/>
		<path fill-rule="evenodd" clip-rule="evenodd" d="M296.587,194.671c-0.538,0.185-1.254,0.432-2.634,0.906
			c0.808-3.66,1.502-6.805,2.271-10.289c0.232-0.062,0.855-0.227,1.657-0.44C297.86,188.224,295.2,191.065,296.587,194.671z"/>
		<path fill-rule="evenodd" clip-rule="evenodd" d="M300.72,129.415c-0.798,0.149-1.595,0.299-2.717,0.51
			c0.781-3.464,1.483-6.58,2.26-10.025c0.19-0.031,0.817-0.133,1.896-0.31c-0.646,2.602-1.227,4.841-1.751,7.093
			c-0.164,0.701-0.178,1.436-0.261,2.156C300.339,129.03,300.529,129.222,300.72,129.415z"/>
		<path fill-rule="evenodd" clip-rule="evenodd" d="M299.843,185.455c0.489-0.196,1.092-0.438,1.944-0.779
			c0.062,0.666,0.221,1.121,0.118,1.506c-0.552,2.074-1.179,4.129-1.755,6.197c-0.092,0.331-0.115,0.705-0.069,1.046
			c0.061,0.448,0.22,0.882,0.337,1.323c-0.644,0.12-1.288,0.239-1.932,0.358c-0.058-0.489-0.264-1.018-0.148-1.463
			c0.551-2.118,1.235-4.203,1.764-6.326C300.231,186.797,299.955,186.175,299.843,185.455z"/>
		<path fill-rule="evenodd" clip-rule="evenodd" d="M209.786,245.56c0.325,0.02,0.77,0.047,1.519,0.092
			c-0.584,2.156-1.152,4.128-1.641,6.121c-0.157,0.64-0.211,1.344-0.133,1.997c0.211,1.754,0.005,1.994-2.327,1.862
			C208.066,252.268,208.912,248.97,209.786,245.56z"/>
		<path fill-rule="evenodd" clip-rule="evenodd" d="M287.227,123.525c0.261,0.011,0.864-0.128,1.02,0.074
			c0.563,0.737,0.927,0.917,1.609,0.084c0.161-0.198,1.037,0.19,1.584,0.308c-0.249,0.563-0.556,1.634-0.739,1.613
			c-2.557-0.289-2.338,2.134-3.372,3.303c-0.332,0.375-0.762,0.664-1.483,0.638C286.284,127.632,286.724,125.718,287.227,123.525z"
			/>
		<path fill-rule="evenodd" clip-rule="evenodd" d="M180.858,249.036c0.607,0.317,1.25,0.653,1.914,0.999
			c0.353-0.237,0.905-0.607,1.457-0.978c0.154,0.09,0.308,0.18,0.461,0.271c-0.149,0.541-0.302,1.554-0.447,1.553
			c-2.439-0.019-2.355,2.216-3.277,3.533c-0.334,0.477-0.726,0.913-1.091,1.368c-0.067-0.578-0.275-1.182-0.175-1.729
			C179.971,252.56,180.372,251.09,180.858,249.036z"/>
		<path fill-rule="evenodd" clip-rule="evenodd" d="M302.022,194.847c0.712-2.033,1.376-3.928,2.154-6.15
			c0.626-0.162,1.405-0.167,1.081,1.256c-0.177,0.777-0.506,1.52-0.757,2.281c-0.103,0.307-0.319,0.655-0.25,0.926
			C304.806,195.334,304.69,195.457,302.022,194.847z"/>
		<path fill-rule="evenodd" clip-rule="evenodd" d="M282.159,130.325c0.334-2.512,0.59-4.444,0.897-6.761
			c0.252-0.015,0.925-0.054,1.736-0.102c-0.114,1.985-0.219,3.795-0.347,6C284.143,129.577,283.429,129.846,282.159,130.325z"/>
		<path fill-rule="evenodd" clip-rule="evenodd" fill="#FFFFFF" d="M341.891,359.762c-0.034-2.351,0.617-4.047,2.249-5.256
			c0.359-0.266,1.01-0.553,1.297-0.399c0.385,0.205,0.868,0.968,0.747,1.249c-0.585,1.361-1.236,2.734-2.128,3.9
			C343.716,359.699,342.669,359.602,341.891,359.762z"/>
		<path fill-rule="evenodd" clip-rule="evenodd" fill="#FFFFFF" d="M454.196,259.253c-3.206,0.891-5.668,2.226-7.097,5.271
			c-1.388,2.96-3.437,5.621-4.71,8.619c-1.268,2.981-1.931,6.219-2.815,9.195c-6.384,0-12.753-0.035-19.123,0.012
			c-4.182,0.031-8.382-0.031-12.541,0.329c-5.685,0.493-11.341,1.315-17.001,2.065c-2.263,0.3-4.542,0.63-6.744,1.213
			c-3.335,0.884-6.605,2.016-9.915,3.005c-0.603,0.181-1.258,0.187-1.943,0.28c2.555-3.857,4.913-7.557,7.415-11.156
			c2.116-3.047,4.431-5.955,6.6-8.967c2.122-2.946,4.125-5.979,6.262-8.916c3.025-4.157,6.223-8.192,9.167-12.406
			c2.806-4.017,5.278-8.267,8.09-12.279c2.479-3.537,5.266-6.857,7.838-10.331c2.148-2.9,4.304-5.808,6.222-8.859
			c1.086-1.727,1.604-0.943,2.343,0.102c2.14,3.021,4.212,6.093,6.442,9.045c3.786,5.012,7.74,9.897,11.491,14.935
			c2.281,3.065,4.286,6.335,6.472,9.474c0.692,0.993,1.583,1.846,2.354,2.786C454.615,254.639,454.284,256.947,454.196,259.253z"/>
		<path fill-rule="evenodd" clip-rule="evenodd" fill="#FFFFFF" d="M392.467,167.205c3.561,0,7.022,0.377,10.354-0.12
			c2.653-0.396,5.32-1.557,7.681-2.904c6.945-3.963,12.686-9.375,17.65-15.619c0.285-0.359,0.53-0.758,0.745-1.165
			c1.133-2.145,2.508-3.765,5.333-3.29c1.329,0.224,2.727,0.039,4.259,0.039c0.554,2.178,0.938,4.42,1.705,6.523
			c0.903,2.475,1.964,4.928,3.276,7.206c1.34,2.325,2.928,4.547,4.684,6.574c0.922,1.064,2.354,1.843,3.707,2.326
			c1.189,0.424,1.531,0.915,1.6,2.134c0.131,2.364-0.738,4.114-2.177,5.989c-3.215,4.19-6.037,8.68-9.076,13.008
			c-2.022,2.88-4.181,5.664-6.209,8.54c-3.177,4.506-6.35,9.018-9.417,13.599c-1.44,2.153-1.434,2.13-2.912,0.021
			c-1.909-2.722-4.136-5.219-6.11-7.898c-1.865-2.532-3.539-5.204-5.37-7.762c-4.001-5.588-8.014-11.167-12.09-16.7
			c-2.365-3.21-4.871-6.315-7.285-9.489C392.581,167.911,392.549,167.455,392.467,167.205z"/>
		<path fill-rule="evenodd" clip-rule="evenodd" fill="#FFFFFF" d="M454.184,293.746c0,3.603,0,7.411,0,11.122
			c-0.313,0.159-0.429,0.265-0.55,0.271c-8.5,0.453-16.997,1.066-25.503,1.286c-5.748,0.149-11.514-0.194-17.266-0.437
			c-3.52-0.148-7.047-0.378-10.537-0.826c-5.51-0.709-11.034-1.423-16.471-2.531c-4.112-0.839-8.138-2.18-12.117-3.547
			c-1.281-0.439-2.381-1.586-3.37-2.598c-0.316-0.323-0.243-1.4,0.056-1.885c1.397-2.267,3.65-3.308,6.111-4.106
			c3.797-1.231,7.658-1.99,11.592-2.706c6.092-1.107,12.126-2.211,18.342-2.324c4.432-0.081,8.854-0.662,13.288-0.761
			c6.51-0.146,13.025-0.121,19.535-0.01c0.956,0.017,1.906,0.896,2.844,1.401c3.626,1.959,7.247,3.927,10.867,5.895
			C452.033,292.55,453.053,293.122,454.184,293.746z"/>
		<path fill-rule="evenodd" clip-rule="evenodd" fill="#FFFFFF" d="M453.729,175.208c0,25.464,0,50.516,0,75.961
			c-0.923-1.094-1.904-2.108-2.714-3.246c-2.68-3.766-5.251-7.61-7.951-11.361c-3.962-5.504-7.985-10.963-12.012-16.42
			c-1.431-1.938-3.053-3.745-4.355-5.761c-0.339-0.525-0.063-1.795,0.37-2.416c2.918-4.178,5.992-8.247,8.944-12.403
			c3.768-5.303,7.486-10.641,11.188-15.991c1.727-2.497,3.349-5.068,5.057-7.579C452.434,175.732,452.875,175.65,453.729,175.208z"
			/>
		<path fill-rule="evenodd" clip-rule="evenodd" fill="#FFFFFF" d="M428.894,144.956c-1.96,2.318-3.465,4.369-5.249,6.138
			c-2.326,2.308-4.842,4.429-7.337,6.559c-1.879,1.604-3.779,3.206-5.815,4.597c-1.205,0.824-2.642,1.492-4.063,1.774
			c-2.485,0.493-4.771,1.511-7.462,1.632c-3.441,0.155-5.887-1.336-8.667-2.731c2.024-3.268,3.979-6.437,5.949-9.597
			c1.563-2.508,3.252-4.945,4.678-7.529c0.928-1.679,2.116-2.063,3.86-1.733c1.108,0.208,2.263,0.183,3.397,0.234
			c3.505,0.158,7.01,0.379,10.516,0.425c2.687,0.035,5.376-0.191,8.064-0.229C427.41,144.486,428.06,144.766,428.894,144.956z"/>
		<path fill-rule="evenodd" clip-rule="evenodd" fill="#FFFFFF" d="M438.147,142.816c-2.759-0.085-4.792,0.399-7.037-1.4
			c-2.517-2.016-5.904-2.944-8.918-4.336c-3.674-1.696-7.383-3.324-10.986-5.158c-0.386-0.196-0.513-1.776-0.168-2.374
			c1.368-2.371,2.944-4.626,4.511-6.877c0.304-0.436,0.901-0.935,1.373-0.945c5.648-0.117,11.299-0.151,16.949-0.2
			c0.995-0.009,1.358,0.44,1.445,1.499c0.348,4.255,0.736,8.511,1.294,12.742C436.913,138.061,437.587,140.305,438.147,142.816z"/>
		<path fill-rule="evenodd" clip-rule="evenodd" fill="#FFFFFF" d="M404.942,131.421c0.821,0.167,1.468,0.298,2.114,0.429
			c-0.232,0.557-0.435,1.129-0.704,1.668c-0.981,1.957-1.945,3.925-2.998,5.843c-0.524,0.955-1.229,1.81-2.004,2.929
			c-0.191-0.008-0.661,0.02-1.112-0.059c-1.726-0.304-3.44-0.672-5.168-0.96c-3.026-0.505-6.047-1.103-9.095-1.364
			c-0.847-0.073-1.536,0.052-1.726-0.827c-0.094-0.432,0.309-0.97,0.699-1.251c0.021-1.52,1.303-5.326,2.293-5.801
			c-1.073-3.285,1.652-5.446,2.118-8.591c2.339,1.265,4.335,2.38,6.365,3.429c1.186,0.612,2.397,1.197,3.649,1.651
			c1.472,0.533,3.046,0.8,4.476,1.414C404.401,130.167,404.68,131.04,404.942,131.421z"/>
		<path fill-rule="evenodd" clip-rule="evenodd" fill="#FFFFFF" d="M454.37,122.7c4.652,0.966,9.075,1.882,13.497,2.806
			c1.713,0.358,3.471,0.586,5.121,1.136c2.328,0.777,4.616,1.711,6.835,2.76c0.811,0.383,2.012,1.402,1.918,1.934
			c-0.2,1.13-0.882,2.582-1.813,3.1c-2.516,1.403-5.229,2.484-7.944,3.471c-0.738,0.268-2.46-0.091-2.538-0.433
			c-0.453-1.997-2.382-1.927-3.57-2.635c-3.255-1.94-6.758-3.465-10.167-5.144c-0.427-0.21-0.883-0.36-1.339-0.543
			C454.37,127.195,454.37,125.236,454.37,122.7z"/>
		<path fill-rule="evenodd" clip-rule="evenodd" fill="#FFFFFF" d="M437.124,121.866c5.351,2.771,10.5,5.437,15.633,8.094
			c0,3.754,0,7.635,0,11.196c-4.041,0.487-8.136,0.981-12.638,1.524C438.127,136.08,437.541,129.118,437.124,121.866z"/>
		<path fill-rule="evenodd" clip-rule="evenodd" fill="#FFFFFF" d="M467.652,140.563c-0.436,7.41-5.324,23.321-12.948,25.166
			c0.066-2.625-0.298-5.104,0.515-7.697c0.656-2.094,0.734-4.388-0.395-6.504c-0.163-0.306-0.079-0.747-0.102-1.126
			c-0.146-2.436-0.289-4.872-0.429-7.234C458.801,142.289,463.116,141.447,467.652,140.563z"/>
		<path fill-rule="evenodd" clip-rule="evenodd" fill="#FFFFFF" d="M464.556,285.449c-2.65-0.303-5.336-0.453-7.925-1.032
			c-0.543-0.122-1.007-1.817-1.032-2.8c-0.078-3.058,0.101-6.12,0.126-9.181c0.03-3.844,0.007-7.688,0.007-11.646
			c4.517,1.481,6.542,5.267,8.323,9.187c1.733,3.817,3.822,7.586,3.049,12.054C466.254,283.17,465.405,284.31,464.556,285.449z"/>
		<path fill-rule="evenodd" clip-rule="evenodd" fill="#FFFFFF" d="M453.185,260.536c0.383,1.17,0.975,2.188,1.009,3.223
			c0.105,3.319,0.063,6.646-0.04,9.968c-0.052,1.64-0.562,3.276-0.505,4.902c0.063,1.778,0.539,3.542,0.833,5.3
			c-4.754-0.345-9.062-0.658-13.457-0.977C443.898,274.65,445.507,266.309,453.185,260.536z"/>
		<path fill-rule="evenodd" clip-rule="evenodd" fill="#FFFFFF" d="M453.092,165.615c-2.751-0.446-4.528-2.334-5.918-4.6
			c-1.437-2.342-2.76-4.767-3.933-7.25c-0.397-0.841-0.029-2.014-0.292-2.958c-0.289-1.036-0.914-1.976-1.37-2.968
			c-0.5-1.087-0.974-2.188-1.555-3.497c1.638-0.192,3.074-0.364,4.512-0.527c2.212-0.251,4.428-0.47,6.636-0.752
			c1.341-0.171,1.917,0.434,1.918,1.705C453.094,151.628,453.092,158.489,453.092,165.615z"/>
		<path fill-rule="evenodd" clip-rule="evenodd" fill="#FFFFFF" d="M387.056,124.362c-1.528,5.036-3.021,9.958-4.614,15.208
			c-1.293-0.377-2.776-0.892-4.298-1.238c-3.328-0.757-6.683-1.544-9.427-3.648c-2.582-1.981-2.211-3.67,0.633-5.375
			c3.37-2.02,7.103-2.834,10.848-3.685c1.442-0.328,2.852-0.811,4.301-1.098C385.404,124.347,386.357,124.4,387.056,124.362z"/>
		<path fill-rule="evenodd" clip-rule="evenodd" fill="#FFFFFF" d="M384.142,141.634c2.7,0.508,5.178,1.072,7.686,1.418
			c2.654,0.366,5.337,0.524,8.141,0.786c-0.098,0.436-0.08,0.944-0.309,1.288c-2.159,3.237-4.417,6.408-6.523,9.678
			c-1.121,1.739-2.026,3.621-2.974,5.467c-0.554,1.081-1.233,1.092-1.816,0.183c-1.057-1.648-2.281-3.283-2.891-5.105
			C384.004,151.013,384.152,146.455,384.142,141.634z"/>
		<path fill-rule="evenodd" clip-rule="evenodd" fill="#FFFFFF" d="M455.765,285.764c3.236,0.716,6.594,1.475,9.96,2.188
			c0.689,0.146,1.433,0.04,2.12,0.191c0.697,0.152,1.905,0.407,1.949,0.742c0.533,4.035,0.894,8.094,1.293,12.146
			c0.006,0.057-0.057,0.119-0.175,0.35c-2.097-1.388-4.175-2.776-6.271-4.138c-0.338-0.219-0.753-0.445-1.133-0.448
			c-1.721-0.011-2.405-0.951-2.659-2.649c-0.232,0.456-0.466,0.913-0.719,1.41c-0.182-0.047-0.399-0.054-0.557-0.154
			c-1.059-0.68-2.187-1.286-3.122-2.11c-0.49-0.432-0.871-1.247-0.893-1.902C455.502,289.652,455.669,287.909,455.765,285.764z"/>
		<path fill-rule="evenodd" clip-rule="evenodd" fill="#FFFFFF" d="M403.886,141.364c0.714-1.216,1.421-2.436,2.145-3.646
			c0.896-1.496,1.764-3.014,2.753-4.446c0.179-0.258,1.045-0.375,1.322-0.178c1.931,1.379,3.943,2.416,6.29,3.046
			c1.625,0.436,2.916,2.256,4.528,2.568c2.4,0.465,4.188,2.202,6.568,2.576c0.589,0.092,1.092,0.74,1.454,1.549
			c-4.479,0-8.964,0.12-13.438-0.036c-4.006-0.139-8.094,0.194-12.013-0.779C403.625,141.8,403.756,141.582,403.886,141.364z"/>
		<path fill-rule="evenodd" clip-rule="evenodd" fill="#FFFFFF" d="M471.534,288.305c3.149,1.254,5.976,2.192,8.613,3.509
			c1.264,0.631,2.257,1.907,3.177,3.049c0.224,0.276-0.15,1.357-0.555,1.763c-2.46,2.462-5.796,3.164-8.959,4.149
			c-0.345,0.107-1.34-0.621-1.399-1.05c-0.427-3.066-0.705-6.153-0.989-9.238C471.364,289.852,471.482,289.201,471.534,288.305z"/>
		<path fill-rule="evenodd" clip-rule="evenodd" fill="#FFFFFF" d="M394.264,123.153c6.471-0.534,12.942-1.068,19.414-1.603
			c0.108,0.197,0.217,0.395,0.325,0.591c-1.761,2.823-3.521,5.646-5.327,8.54c-5.098-2.361-9.888-4.58-14.676-6.799
			C394.088,123.639,394.176,123.396,394.264,123.153z"/>
		<path fill-rule="evenodd" clip-rule="evenodd" fill="#FFFFFF" d="M468.347,138.669c-0.756,0.285-1.49,0.708-2.271,0.83
			c-3.015,0.469-6.041,0.863-9.069,1.234c-0.802,0.098-1.625,0.015-2.571,0.015c0-3.232,0-6.422,0-9.854
			c4.739,2.449,9.244,4.777,13.749,7.104C468.238,138.222,468.292,138.446,468.347,138.669z"/>
		<path fill-rule="evenodd" clip-rule="evenodd" fill="#FFFFFF" d="M455.686,304.731c0-3.739,0-6.89,0-10.162
			c4.693,2.541,9.176,4.967,13.657,7.393c-0.087,0.205-0.174,0.41-0.261,0.615C464.682,303.285,460.281,303.992,455.686,304.731z"/>
		<path fill-rule="evenodd" clip-rule="evenodd" fill="#FFFFFF" d="M383.173,155.042c-3.931-5.503-7.771-10.881-11.612-16.259
			c0.121-0.128,0.242-0.256,0.364-0.385c3.45,0.944,6.899,1.887,10.426,2.852C382.606,145.55,382.88,150.137,383.173,155.042z"/>
		<path fill-rule="evenodd" clip-rule="evenodd" fill="#FFFFFF" d="M479.177,289.182c-2.841-0.761-5.309-1.335-7.703-2.13
			c-0.516-0.171-0.955-1.093-1.109-1.745c-0.633-2.665-1.073-5.377-1.725-8.037c-0.302-1.229-0.925-2.381-1.401-3.567
			c0.198-0.116,0.397-0.232,0.596-0.35C471.534,278.516,475.234,283.68,479.177,289.182z"/>
		<path fill-rule="evenodd" clip-rule="evenodd" fill="#FFFFFF" d="M477.25,138.176c-3.374,4.914-6.749,9.827-10.124,14.74
			c-0.166-0.075-0.331-0.151-0.497-0.227c0.423-1.904,0.833-3.812,1.271-5.713c0.365-1.588,0.876-3.152,1.112-4.757
			c0.225-1.519,0.854-2.33,2.418-2.693c1.869-0.433,3.661-1.196,5.486-1.817C477.027,137.865,477.139,138.021,477.25,138.176z"/>
		<path fill-rule="evenodd" clip-rule="evenodd" fill="#FFFFFF" d="M442.445,285.135c3.799,0.189,7.598,0.378,11.758,0.584
			c0,1.62,0.096,3.349-0.086,5.047c-0.033,0.315-1.388,0.909-1.775,0.703c-2.695-1.434-5.296-3.043-7.927-4.597
			c-0.658-0.388-1.314-0.778-1.971-1.168C442.444,285.515,442.445,285.325,442.445,285.135z"/>
		<path fill-rule="evenodd" clip-rule="evenodd" fill="#FFFFFF" d="M452.896,122.742c0,2.193,0,3.74,0,5.528
			c-3.801-1.98-7.409-3.861-11.018-5.742c0.083-0.262,0.168-0.523,0.251-0.785C445.724,122.078,449.317,122.411,452.896,122.742z"/>
		<path fill-rule="evenodd" clip-rule="evenodd" fill="#FFFFFF" d="M464.556,285.449c0.85-1.14,1.698-2.279,2.548-3.419
			c1.696,0.78,2.205,2.161,1.746,4.529C467.42,286.189,465.988,285.819,464.556,285.449z"/>
		<path fill-rule="evenodd" clip-rule="evenodd" fill="#FFFFFF" d="M456.926,167.063c-0.554,0.867-1.107,1.734-2.018,3.161
			c-0.224-1.249-0.675-2.157-0.394-2.613c0.335-0.542,1.299-0.695,1.989-1.016C456.645,166.751,456.785,166.907,456.926,167.063z"/>
		<path fill-rule="evenodd" clip-rule="evenodd" fill="#FFFFFF" d="M458.138,260.034c-1.226-0.325-1.909-0.507-2.681-0.711
			c0-0.744,0-1.472,0-2.2c0.129-0.097,0.258-0.194,0.387-0.291C456.512,257.765,457.181,258.698,458.138,260.034z"/>
		<path fill-rule="evenodd" clip-rule="evenodd" fill="#FFFFFF" d="M86.641,287.27c4.19,0,8.386-0.145,12.567,0.036
			c5.455,0.235,10.915,0.58,16.342,1.167c3.266,0.353,6.473,1.255,9.707,1.908c0.134,0.027,0.271,0.058,0.407,0.058
			c4.473-0.029,8.59,1.467,12.727,2.918c2.145,0.752,3.583,2.261,4.573,4.185c0.236,0.458,0.042,1.563-0.34,1.839
			c-1.641,1.187-3.311,2.487-5.181,3.167c-3.207,1.165-6.547,1.996-9.875,2.787c-6.173,1.468-12.46,2.005-18.783,2.584
			c-13.284,1.217-26.544,1.266-39.838,0.701c-2.262-0.096-4.534-0.026-6.789-0.199c-4.068-0.312-8.167-0.507-12.176-1.199
			c-4.238-0.732-8.415-1.888-12.563-3.052c-2.444-0.686-4.815-1.671-7.158-2.665c-1.774-0.753-2.427-3.205-1.104-4.594
			c1.237-1.297,2.711-2.609,4.342-3.244c4.132-1.607,8.402-2.787,12.871-3.261c3.402-0.361,6.742-1.27,10.132-1.787
			c2.096-0.32,4.232-0.409,6.354-0.522c7.922-0.421,15.846-0.81,23.77-1.21C86.63,287.014,86.636,287.142,86.641,287.27z"/>
		<path fill-rule="evenodd" clip-rule="evenodd" fill="#FFFFFF" d="M87.97,124.761c5.146,0,10.313-0.298,15.431,0.075
			c6.607,0.48,13.195,1.361,19.752,2.334c3.945,0.585,7.888,1.441,11.693,2.623c2.311,0.717,4.376,2.255,6.502,3.509
			c0.319,0.188,0.637,1.003,0.49,1.25c-0.902,1.512-1.416,3.269-3.541,3.857c-4.512,1.249-8.904,2.939-13.433,4.113
			c-3.011,0.781-6.159,1.138-9.27,1.41c-6.607,0.578-13.227,1.016-19.847,1.435c-4.837,0.306-9.688,0.76-14.522,0.664
			c-7.578-0.15-15.152-0.637-22.718-1.124c-3.731-0.24-7.498-0.524-11.146-1.28c-5.601-1.159-11.179-2.536-16.624-4.267
			c-1.646-0.523-2.935-2.438-4.117-3.93c-0.242-0.305,0.513-1.93,1.178-2.327c2.131-1.27,4.337-2.589,6.692-3.28
			c8.939-2.624,18.109-3.875,27.423-4.293c8.682-0.391,17.351-1.066,26.025-1.615C87.949,124.196,87.959,124.479,87.97,124.761z"/>
		<path fill-rule="evenodd" clip-rule="evenodd" fill="#FFFFFF" d="M138.685,291.866c-1.369-0.421-2.307-0.757-3.269-0.997
			c-5.022-1.248-9.944-2.908-15.214-3.055c-2.759-0.076-5.504-0.687-8.254-1.066c-15.289-2.116-30.637-1.188-45.961-0.736
			c-4.363,0.129-8.693,1.271-13.045,1.902c-1.147,0.166-2.356,0.002-3.475,0.259c-5.298,1.218-10.574,2.53-15.86,3.8
			c-0.183,0.044-0.39-0.011-1.148-0.045c8.601-12.197,17.005-24.117,25.482-36.139c4.27,3.264,8.85,5.807,13.906,7.614
			c1.407,0.503,2.706,1.617,4.306,2.095c3.297,0.984,6.508,2.255,9.792,3.284c2.894,0.907,5.813,1.77,8.77,2.433
			c4.265,0.957,8.55,1.891,12.873,2.51c4.017,0.575,8.09,0.823,12.148,1.004c1.352,0.061,2.845-0.298,4.074-0.884
			c1.754-0.835,2.576,0.187,3.373,1.283c3.188,4.385,6.335,8.802,9.46,13.231C137.286,289.271,137.775,290.291,138.685,291.866z"/>
		<path fill-rule="evenodd" clip-rule="evenodd" fill="#FFFFFF" d="M48.479,165.727c-5.937-8.197-11.8-16.294-17.664-24.391
			c0.135-0.157,0.27-0.315,0.404-0.472c0.772,0.279,1.526,0.629,2.319,0.827c4.947,1.235,9.847,2.794,14.868,3.561
			c6.546,1.001,13.178,1.684,19.794,1.927c9.307,0.342,18.636,0.291,27.951,0.137c5.11-0.084,10.226-0.592,15.31-1.162
			c3.513-0.394,6.975-1.231,10.462-1.851c2.611-0.464,5.245-0.824,7.837-1.375c1.581-0.336,3.106-0.937,4.651-1.438
			c0.906-0.294,1.8-0.628,2.699-0.944c0.109,0.15,0.218,0.3,0.328,0.449c-1.044,1.669-2.017,3.39-3.147,4.998
			c-2.286,3.249-4.683,6.42-6.988,9.656c-2,2.808-3.893,5.693-5.953,8.456c-0.291,0.39-1.358,0.534-1.902,0.338
			c-1.598-0.576-3.052-1.609-4.674-2.042c-2.46-0.656-4.998-1.171-7.532-1.367c-6.988-0.54-13.988-1.104-20.992-1.24
			c-6.782-0.13-13.611-0.115-20.351,0.545c-5.258,0.514-10.63,1.293-15.412,3.969C49.879,164.646,49.342,165.11,48.479,165.727z"/>
		<path fill-rule="evenodd" clip-rule="evenodd" fill="#FFFFFF" d="M51.514,169.25c3.776,0.826,7.101,1.804,10.495,2.231
			c3.925,0.494,7.91,0.647,11.871,0.692c7.736,0.087,15.479,0.147,23.21-0.083c4.354-0.13,8.709-0.735,13.027-1.371
			c2.431-0.358,4.789-1.212,7.447-1.426c-1.762,2.547-3.519,5.096-5.287,7.639c-1.496,2.15-2.955,4.328-4.521,6.425
			c-1.517,2.031-3.266,3.896-4.711,5.974c-3.44,4.947-6.72,10.005-10.143,14.964c-2.241,3.246-4.582,6.426-6.962,9.572
			c-0.601,0.794-1.376,1.259-2.244-0.047c-2.377-3.581-4.832-7.114-7.36-10.59c-3.531-4.854-7.167-9.633-10.74-14.458
			c-2.361-3.188-4.678-6.409-7.038-9.598c-1.852-2.502-3.757-4.965-5.602-7.472C52.466,171.037,52.11,170.274,51.514,169.25z"/>
		<path fill-rule="evenodd" clip-rule="evenodd" fill="#FFFFFF" d="M118.861,264.935c-1.688-0.797-3.356-1.641-5.07-2.379
			c-2.707-1.169-5.423-2.322-8.175-3.378c-2.872-1.103-5.776-2.127-8.694-3.101c-2.086-0.696-4.211-1.283-6.334-1.862
			c-2.501-0.682-5.013-1.323-7.532-1.932c-0.657-0.158-1.362-0.104-2.041-0.184c-6.194-0.723-12.388-1.454-18.924-2.224
			c7.453-10.382,15.033-20.942,22.855-31.839c11.534,15.563,22.978,31.002,34.421,46.443
			C119.199,264.631,119.03,264.783,118.861,264.935z"/>
		<path fill-rule="evenodd" clip-rule="evenodd" fill="#FFFFFF" d="M59.139,252.628c2.054-0.256,4.109-0.706,6.163-0.697
			c1.394,0.005,2.775,0.709,4.186,0.974c0.374,0.07,0.852-0.512,1.254-0.478c1.913,0.164,3.834,0.346,5.721,0.691
			c4.857,0.893,9.7,1.862,14.541,2.838c0.607,0.122,1.155,0.516,1.757,0.692c4.78,1.399,9.566,2.778,14.351,4.161
			c0.13,0.037,0.345,0.008,0.388,0.084c1.018,1.786,3.282,1.429,4.497,2.486c1.585,1.379,3.439,1.969,5.217,2.571
			c2.425,0.822,3.939,2.654,5.755,4.147c1.244,1.022,0.862,2.313-0.731,2.45c-2.42,0.206-4.867,0.133-7.301,0.121
			c-0.939-0.004-1.88-0.14-2.815-0.259c-3.761-0.479-7.544-0.834-11.271-1.504c-3.354-0.604-6.661-1.493-9.956-2.377
			c-2.772-0.744-5.573-1.49-8.191-2.626c-0.615-0.267-1.199-0.568-1.91-0.732c-2.623-0.606-5.139-1.492-7.186-3.362
			c-0.083-0.076-0.352,0.084-0.528,0.068c-0.535-0.049-1.122-0.007-1.589-0.22c-2.216-1.009-4.413-2.063-6.587-3.158
			c-1.233-0.622-2.518-1.221-3.578-2.079c-0.962-0.778-1.651-1.895-2.46-2.862C58.956,253.249,59.047,252.938,59.139,252.628z"/>
		<path fill-rule="evenodd" clip-rule="evenodd" fill="#FFFFFF" d="M119.293,166.02c-5.135,2.865-9.98,3.415-14.926,3.644
			c-2.793,0.129-5.569,0.669-8.362,0.771c-5.862,0.215-11.729,0.266-17.595,0.376c-1.098,0.021-2.198-0.03-3.294,0.021
			c-1.255,0.06-2.326-0.011-3.112-1.306c-0.118-0.195-1.951,0.998-2.943,0.923c-3.985-0.301-7.984-0.665-11.913-1.371
			c-2.393-0.43-4.666-1.526-7.344-2.443c3.028-2.226,6.055-3.125,9.388-3.189c0.829-0.016,1.739-0.02,2.466-0.351
			c2.2-1.001,4.341-1.074,6.542-0.086c0.177,0.08,0.482,0.012,0.671-0.091c3.247-1.778,6.821-1.425,10.3-1.505
			c4.916-0.113,9.838-0.141,14.751,0.001c2.616,0.076,5.217,0.601,7.827,0.896c4.043,0.457,8.116,0.734,12.123,1.405
			C115.585,164.002,117.165,165.084,119.293,166.02z"/>
		<path fill-rule="evenodd" clip-rule="evenodd" fill="#FFFFFF" d="M271.278,191.273c0.26,2.67-1.53,4.472-3.173,5.855
			c-4.468,3.766-9.898,5.626-15.46,7.368c-5.815,1.821-11.75,2.027-17.677,2.62c-3.078,0.308-3.146,0.121-3.125-3.065
			c0.024-3.638-0.02-7.277-0.078-10.915c-0.02-1.252,0.377-1.922,1.754-1.923c12.359-0.013,24.719-0.055,37.08-0.083
			C270.798,191.13,270.996,191.211,271.278,191.273z"/>
		<path fill-rule="evenodd" clip-rule="evenodd" fill="#FFFFFF" d="M271.436,189.813c-6.033,0-11.854-0.008-17.674,0.002
			c-6.519,0.011-13.037-0.012-19.553,0.09c-1.885,0.03-2.57-0.625-2.532-2.504c0.088-4.306,0.028-8.614,0.028-13.19
			c1.335,0,2.548-0.092,3.742,0.016c4.686,0.428,9.458,0.498,14.024,1.498c5.158,1.13,10.439,2.389,14.977,5.249
			c2.638,1.662,5.196,3.706,6.556,6.735C271.269,188.3,271.278,189.006,271.436,189.813z"/>
		<path fill-rule="evenodd" clip-rule="evenodd" fill="#FFFFFF" d="M230.237,189.795c-13.067,0-25.952,0-38.982,0
			c0.647-3.619,2.964-5.865,5.681-7.697c3.708-2.5,7.771-4.095,12.169-5.206c6.241-1.576,12.472-2.729,18.909-2.7
			c0.68,0.002,1.361,0,2.224,0C230.237,179.411,230.237,184.51,230.237,189.795z"/>
		<path fill-rule="evenodd" clip-rule="evenodd" fill="#FFFFFF" d="M230.475,191.405c0,4.975,0.002,9.905-0.007,14.835
			c0,0.258-0.099,0.516-0.236,1.18c-4.199-0.451-8.361-0.897-12.522-1.346c-0.137-0.014-0.272-0.063-0.407-0.06
			c-5.407,0.125-10.302-2.086-15.121-3.946c-3.894-1.502-7.826-3.712-9.977-7.787c-0.422-0.799-0.677-1.687-1.144-2.876
			C204.352,191.405,217.245,191.405,230.475,191.405z"/>
		<path fill-rule="evenodd" clip-rule="evenodd" fill="#FFFFFF" d="M230.015,100.71c0,7.131,0,14.126,0,21.36
			c-7.293,0-14.499,0-21.699,0C207.871,110.219,219.417,100.021,230.015,100.71z"/>
		<path fill-rule="evenodd" clip-rule="evenodd" fill="#FFFFFF" d="M253.155,122.045c-7.387,0-14.534,0-21.992,0
			c0-7.141,0-14.148,0-21.485c4.893-0.479,9.407,1.613,13.149,4.431C249.739,109.075,253.056,114.76,253.155,122.045z"/>
		<path fill-rule="evenodd" clip-rule="evenodd" fill="#FFFFFF" d="M231.312,123.497c7.338,0,14.542,0,22.292,0
			c-0.676,2.822-0.847,5.729-2.07,8.092c-1.509,2.911-3.566,5.731-5.995,7.913c-2.197,1.974-5.154,3.161-7.891,4.45
			c-1.447,0.682-3.144,0.832-4.722,1.243c-0.988,0.257-1.619,0.083-1.618-1.109C231.315,137.31,231.312,130.534,231.312,123.497z"/>
		<path fill-rule="evenodd" clip-rule="evenodd" fill="#FFFFFF" d="M230.142,123.593c0,7.243,0,14.334,0.001,21.426
			c-9.203,0.622-22.136-8.702-21.856-21.426C215.437,123.593,222.593,123.593,230.142,123.593z"/>
		<path fill-rule="evenodd" clip-rule="evenodd" fill="#FFFFFF" d="M364.528,359.931c-0.354-0.493-0.993-1.047-0.891-1.294
			c0.58-1.406,1.272-2.78,2.081-4.068c0.198-0.316,0.972-0.271,1.481-0.394c0.121,0.669,0.514,1.441,0.307,1.985
			c-0.406,1.066-1.114,2.028-1.769,2.986C365.543,359.434,365.115,359.563,364.528,359.931z"/>
		<path fill-rule="evenodd" clip-rule="evenodd" fill="#FFFFFF" d="M307.867,194.11c0.223-1.892,0.727-3.429,2.372-4.253
			c0.239-0.12,1.259,0.549,1.29,0.908C311.719,192.918,310.584,193.988,307.867,194.11z"/>
		<path fill-rule="evenodd" clip-rule="evenodd" fill="#FFFFFF" d="M383.648,358.304c1.741-1.741,1.289-4.485,4.196-4.575
			c0.166,1.94,0.156,3.727-1.6,4.787C385.766,358.805,384.885,358.429,383.648,358.304z"/>
		<path fill-rule="evenodd" clip-rule="evenodd" fill="#FFFFFF" d="M169.664,246.902c0.447,3.014,0.027,3.618-2.26,3.444
			C166.837,247.83,167.479,246.801,169.664,246.902z"/>
		<path fill-rule="evenodd" clip-rule="evenodd" fill="#FFFFFF" d="M194.155,254.466c0.352-1.123,0.471-2.187,1.003-2.968
			c0.366-0.537,1.307-0.682,1.991-1.001c0.158,0.576,0.517,1.182,0.437,1.722C197.311,254.053,196.232,254.899,194.155,254.466z"/>
		<path fill-rule="evenodd" clip-rule="evenodd" fill="#FFFFFF" d="M212.787,253.863c0.456-1.276-0.142-3.125,1.962-3.494
			c0.371-0.065,0.799,0.196,1.201,0.307c-0.264,0.869-0.352,1.862-0.848,2.568c-0.395,0.562-1.289,0.772-1.962,1.14
			C213.022,254.21,212.905,254.036,212.787,253.863z"/>
		<path fill-rule="evenodd" clip-rule="evenodd" fill="#FFFFFF" d="M176.533,250.445c0.13,0.187,0.566,0.537,0.612,0.933
			c0.127,1.092-1.482,3.163-2.374,3.028c-0.434-0.065-1.056-0.608-1.129-1.018C173.426,252.179,174.983,250.462,176.533,250.445z"/>
		<path fill-rule="evenodd" clip-rule="evenodd" fill="#FFFFFF" d="M187.086,254.484c-1.067-1.853,0.264-2.838,1.2-3.847
			c0.259-0.279,1.107-0.275,1.508-0.064c0.258,0.136,0.329,0.908,0.251,1.354C189.757,253.563,188.718,254.361,187.086,254.484z"/>
		<path fill-rule="evenodd" clip-rule="evenodd" fill="#FFFFFF" d="M372.513,359.616c-1.015-1.994-0.487-4.718,1.226-5.767
			c0.894-0.547,1.69-0.365,2.029,0.813C376.32,356.588,374.608,359.219,372.513,359.616z"/>
		<path fill-rule="evenodd" clip-rule="evenodd" fill="#FFFFFF" d="M353.65,354.417c-0.965,0.792-1.833,1.505-2.7,2.218
			C350.968,354.181,351.798,353.599,353.65,354.417z"/>
		<path fill-rule="evenodd" clip-rule="evenodd" fill="#FFFFFF" d="M201.823,255.131c-0.586-3.127,0.617-4.419,3.058-5.606
			c-0.115,1.443,0.07,2.717-0.387,3.69C204.139,253.969,202.98,254.345,201.823,255.131z"/>
	</g>
</g>
</svg>
