<?xml version="1.0" encoding="utf-8"?>
<!-- Generator: Adobe Illustrator 16.0.0, SVG Export Plug-In . SVG Version: 6.00 Build 0)  -->
<!DOCTYPE svg PUBLIC "-//W3C//DTD SVG 1.1//EN" "http://www.w3.org/Graphics/SVG/1.1/DTD/svg11.dtd">
<svg version="1.1" id="Layer_1" xmlns="http://www.w3.org/2000/svg" xmlns:xlink="http://www.w3.org/1999/xlink" x="0px" y="0px"
	 width="651.841px" height="483.817px" viewBox="0 0 651.841 483.817" enable-background="new 0 0 651.841 483.817"
	 xml:space="preserve">
<g>
	<g>
		<path fill-rule="evenodd" clip-rule="evenodd" fill="#FFFFFF" d="M0.75,484.567c0-161.272,0-322.545,0-483.817
			c217.281,0,434.561,0,651.841,0c0,161.272,0,322.545,0,483.817C435.311,484.567,218.031,484.567,0.75,484.567z M179.917,46.41
			c0,6.31,0.009,12.004-0.001,17.697c-0.062,33.344-0.083,66.689-0.3,100.033c-0.014,2.105-1.12,4.571-2.492,6.226
			c-3.57,4.303-7.667,8.165-11.384,12.353c-9.158,10.321-18.165,20.774-27.338,31.081c-6.542,7.349-13.314,14.491-19.874,21.825
			c-7.388,8.258-14.586,16.686-22.036,24.887c-1.212,1.334-3.244,2.503-4.992,2.653c-4.088,0.354-8.233,0.029-12.354,0.001
			c-17.351-0.122-34.702-0.258-52.053-0.307c-1.045-0.002-2.092,0.71-3.139,1.09c0.094,0.532,0.187,1.064,0.281,1.596
			c22.157,0,44.314,0,66.472,0c0.093,0.363,0.185,0.727,0.278,1.09c-1.053,1.182-2.095,2.374-3.159,3.545
			c-5.182,5.7-10.413,11.358-15.547,17.103c-8.558,9.571-17.019,19.229-25.587,28.791c-7.136,7.963-14.409,15.804-21.495,23.812
			c-0.688,0.777-0.488,2.343-0.7,3.542c1.008-0.493,2.282-0.745,2.983-1.519c8.19-9.02,16.295-18.119,24.422-27.197
			c6.388-7.137,12.802-14.25,19.156-21.417c6.266-7.067,12.479-14.181,18.697-21.29c3.575-4.088,7.211-7.018,13.484-6.665
			c13.32,0.748,26.697,0.519,40.051,0.63c10.36,0.086,20.722-0.002,31.082,0.15c5.248,0.077,5.569,0.383,5.58,5.76
			c0.03,15.114-0.108,30.229-0.179,45.344c-0.07,14.972-0.193,29.944-0.195,44.917c-0.002,19.468,0.13,38.935,0.13,58.401
			c0,12.98-0.163,25.961-0.13,38.941c0.002,0.915,1.02,1.827,1.565,2.742c0.44-0.894,1.26-1.785,1.264-2.68
			c0.051-12.107-0.012-24.216-0.044-36.325c-0.109-40.606-0.217-81.214-0.324-121.82c-0.007-2.603-0.001-5.205-0.001-7.807
			c1,0.3,1.264,0.577,1.364,0.904c0.291,0.955,0.543,1.923,0.762,2.896c4.768,21.198,12.638,41.231,23.388,60.056
			c6.29,11.014,13.147,21.728,20.198,32.277c8.03,12.013,16.308,23.88,24.941,35.464c8.696,11.667,17.961,22.909,26.978,34.337
			c5.619,7.123,11.176,14.296,16.934,21.303c0.738,0.897,2.528,0.929,3.831,1.361c-0.202-1.227-0.311-2.479-0.647-3.667
			c-0.154-0.544-0.756-0.962-1.159-1.434c-3.147-3.688-6.411-7.284-9.421-11.082c-6.961-8.782-13.817-17.649-20.684-26.506
			c-7.855-10.133-16.128-19.982-23.404-30.518c-10.118-14.647-19.608-29.735-29.13-44.786
			c-12.481-19.727-21.811-40.899-28.154-63.37c-0.627-2.22-0.896-4.54-1.33-6.813c2.62,3.229,4.216,6.754,6.208,10.04
			c8.965,14.789,20.273,27.674,32.925,39.364c9.051,8.363,18.229,16.615,27.732,24.454c8.914,7.354,18.305,14.135,27.53,21.108
			c11.323,8.559,22.542,17.268,34.082,25.525c13.353,9.555,26.988,18.717,40.574,27.94c0.872,0.592,2.374,0.254,3.583,0.349
			c-0.472-1.092-0.633-2.62-1.462-3.208c-10.869-7.718-21.856-15.27-32.768-22.93c-9.973-7.002-20.142-13.756-29.773-21.204
			c-17.216-13.313-34.176-26.964-51.07-40.688c-6.745-5.479-13.377-11.186-19.436-17.398c-8.164-8.371-15.854-17.218-23.477-26.094
			c-2.837-3.304-4.913-7.264-7.335-10.925c4.266,2.656,8.231,5.402,11.947,8.454c11.688,9.598,25.278,15.847,39.166,21.135
			c10.882,4.144,22.318,7.096,33.731,9.526c20.304,4.324,40.945,6.256,61.722,6.186c23.909-0.08,47.541-2.644,70.764-8.521
			c13.059-3.304,25.64-7.771,37.906-13.485c11.32-5.273,21.455-11.936,30.59-20.315c9.751-8.944,16.481-19.597,18.23-32.908
			c0.36-2.737,1.504-3.262,3.851-3.18c5.704,0.199,11.413,0.331,17.122,0.379c18.451,0.155,36.902,0.278,55.355,0.378
			c8.283,0.046,16.566,0.009,25.549,0.009c-1.721,2.269-2.88,3.796-4.039,5.323c0.218,0.246,0.435,0.492,0.651,0.738
			c6.662-2.204,13.322-4.408,19.984-6.613c-0.022-0.378-0.046-0.757-0.068-1.136c-6.689-2.131-13.38-4.262-20.069-6.393
			c-0.146,0.306-0.29,0.612-0.437,0.919c1.094,1.354,2.186,2.71,3.49,4.329c-6.744,0-12.95,0.012-19.155-0.002
			c-26.23-0.057-52.461-0.139-78.691-0.148c-2.227-0.001-3.305-0.464-3.576-3.009c-1.238-11.607-6.754-21.209-14.547-29.63
			c-8.49-9.175-18.797-15.984-29.713-21.774c-16.606-8.809-34.373-14.753-52.721-18.49c-19.94-4.063-40.108-6.505-60.573-6.576
			c-19.052-0.067-37.92,1.323-56.628,4.728c-19.035,3.466-37.726,8.293-54.943,17.404c-7.977,4.221-15.549,9.236-23.139,14.148
			c-3.586,2.321-6.782,5.245-10.154,7.896c-0.284-0.262-0.568-0.524-0.853-0.786c3.643-4.142,7.054-8.52,10.976-12.378
			c8.633-8.493,17.216-17.086,26.41-24.947c7.312-6.252,15.438-11.569,23.318-17.136c7.717-5.452,15.476-10.858,23.406-15.991
			c9.692-6.273,19.481-12.413,29.413-18.297c11.431-6.772,23.072-13.189,34.607-19.787c5.079-2.905,10.166-5.805,15.135-8.892
			c0.786-0.488,0.966-1.954,1.426-2.968c-1.082,0.085-2.326-0.147-3.218,0.308c-4.664,2.38-9.294,4.84-13.834,7.45
			c-13.265,7.623-26.513,15.278-39.707,23.025c-6.002,3.524-11.943,7.167-17.764,10.981c-9.751,6.39-19.393,12.948-29.066,19.458
			c-5.771,3.884-11.875,7.377-17.191,11.813c-10.776,8.993-21.619,18.011-31.459,27.982c-6.477,6.563-11.272,14.793-16.77,22.314
			c-1.255,1.716-2.303,3.583-3.446,5.38c-0.549-0.889-0.603-1.516-0.461-2.094c4.629-18.863,11.372-36.944,20.976-53.828
			c6.701-11.777,13.718-23.407,21.212-34.692c8.928-13.444,18.239-26.658,27.906-39.58c8.341-11.149,17.393-21.768,26.171-32.588
			c5.723-7.054,11.566-14.01,17.212-21.123c0.683-0.861,0.478-2.428,0.686-3.667c-1.216,0.442-2.814,0.543-3.576,1.394
			c-2.148,2.402-3.846,5.203-5.914,7.686c-8.045,9.659-16.499,18.997-24.182,28.933c-12.112,15.662-24.138,31.423-35.419,47.685
			c-9.072,13.076-17.234,26.81-25.349,40.519c-8.472,14.31-14.616,29.688-19.109,45.702c-1.5,5.348-2.796,10.753-4.185,16.132
			c-0.512-1.031-0.706-2.006-0.705-2.982c0.021-21.238,0.028-42.476,0.186-63.713c0.01-1.391,0.928-3.018,1.897-4.118
			c4.771-5.417,9.759-10.641,14.564-16.027c11.924-13.364,23.794-26.776,35.68-40.175c6.272-7.07,12.539-14.146,18.794-21.23
			c7.392-8.372,14.714-16.805,22.167-25.122c8.48-9.465,17.098-18.808,25.568-28.281c0.745-0.833,0.843-2.244,1.241-3.387
			c-0.497-0.258-0.994-0.516-1.491-0.773c-39.064,43.769-78.128,87.537-117.192,131.304c-0.299-0.22-0.599-0.441-0.898-0.662
			c0-38.521,0-77.042,0-116.01c2.127,1.723,3.709,3.005,5.292,4.287c0.29-0.202,0.578-0.404,0.867-0.606
			c-2.366-6.585-4.733-13.17-7.1-19.755c-0.345,0.038-0.691,0.075-1.036,0.112c-2.138,6.53-4.277,13.061-6.416,19.592
			c0.345,0.19,0.689,0.382,1.034,0.573C176.622,49.464,178.015,48.173,179.917,46.41z M65.596,198.071
			c-0.359-0.102-0.719-0.205-1.078-0.307c0-1.707,0.335-3.509-0.111-5.089c-0.327-1.161-1.559-2.719-2.596-2.899
			c-2.532-0.44-5.191-0.3-7.79-0.177c-3.164,0.15-4.276,2.295-2.771,5.17c0.575,1.098,1.495,2.042,1.916,3.182
			c0.242,0.657-0.199,1.566-0.333,2.362c-0.688-0.128-1.409-0.164-2.054-0.403c-1.301-0.484-2.56-1.079-4.408-1.873
			c0.487-2.095,1.142-4.918,1.793-7.723c-8.601-2.322-10.915,0.94-12.749,7.785c-0.262,0.977,0.204,2.697,0.948,3.256
			c0.895,0.673,2.452,0.648,3.713,0.615c3.188-0.085,6.362-1.393,9.554,0.18c2.224,1.096,4.808,1.168,5.886-1.187
			c0.712-1.554,0.03-3.858-0.355-5.761c-0.251-1.239-1.09-2.359-1.666-3.533c0.279-0.183,0.558-0.366,0.837-0.548
			c0.915,0.669,1.83,1.338,2.587,1.893c1.085-0.564,2.05-1.066,3.016-1.568c0.496,1.047,1.199,2.051,1.438,3.154
			c0.369,1.697,0.424,3.463,0.603,5.2c0.273,2.652-0.922,4.196-3.472,4.951c-0.892,0.265-1.668,1.034-2.368,1.708
			c-0.096,0.092,0.569,1.403,0.86,1.396c1.028-0.03,2.45-0.04,3.002-0.679c3.577-4.142,7.021-8.405,10.362-12.741
			c0.601-0.779,0.759-2.098,0.671-3.128c-0.048-0.567-1.036-1.054-1.6-1.577c-0.367,0.653-1.198,1.486-1.025,1.929
			C69.695,194.96,66.876,196.119,65.596,198.071z M325.53,26.953c-0.314,1.935-0.474,3.696-0.898,5.392
			c-0.937,3.744-2.051,7.444-2.983,11.189c-0.171,0.689,0.177,1.506,0.285,2.265c0.798-0.407,1.741-0.667,2.346-1.267
			c0.477-0.473,0.386-1.477,0.81-2.052c1.661-2.252,3.425-4.428,5.152-6.632c0.301,0.223,0.603,0.447,0.904,0.67
			c-0.746,3.073-1.491,6.146-2.236,9.218c0.617,0.278,1.234,0.555,1.854,0.832c0.688-1.214,1.629-2.354,2.009-3.657
			c0.714-2.445,1.102-4.984,1.625-7.485c0.337-0.118,0.674-0.236,1.011-0.355c0.657,0.964,1.651,1.85,1.895,2.909
			c0.387,1.679,0.132,3.494,0.396,5.213c0.509,3.293-0.473,5.269-4.076,5.562c-0.525,0.043-0.972,1.048-1.455,1.607
			c0.753,0.475,1.459,1.129,2.28,1.348c0.408,0.11,1.157-0.469,1.536-0.918c3.527-4.175,7.059-8.351,10.448-12.636
			c0.526-0.665,0.591-1.933,0.413-2.831c-0.117-0.595-1.051-1.027-1.618-1.533c-0.353,0.571-0.847,1.099-1.032,1.72
			c-0.666,2.23-1.229,4.492-1.83,6.744c-0.521-0.089-1.042-0.177-1.563-0.265c-0.158-1.669-0.014-3.447-0.569-4.971
			c-0.455-1.248-1.684-3.046-2.672-3.115c-3.177-0.217-6.399,0.253-9.98,0.483c0.296-1.1,0.65-2.478,1.04-3.846
			C329.665,26.865,328.995,26.196,325.53,26.953z M77.584,201.388c0.431,0.338,0.861,0.676,1.292,1.014
			c2.232-3.354,4.465-6.708,6.698-10.061c0.386,0.223,0.772,0.447,1.158,0.67c-0.69,2.087-1.569,4.138-1.977,6.278
			c-0.167,0.873,0.69,1.939,1.081,2.918c1.014-0.801,2.62-1.426,2.919-2.438c0.627-2.119,0.676-4.438,0.736-6.681
			c0.027-1.003-0.212-2.297-0.854-2.936c-0.445-0.443-1.832-0.158-2.703,0.11c-0.787,0.242-1.446,0.901-2.162,1.376
			c-0.001-0.344-0.003-0.687-0.004-1.03c-3.335-0.278-6.67-0.556-9.837-0.819c-0.421,2.32-0.718,4.227-1.123,6.111
			c-0.421,1.961-0.947,3.9-1.427,5.849c0.459,0.236,0.918,0.472,1.377,0.708c2.021-3.345,4.042-6.69,6.063-10.035
			c0.423,0.217,0.846,0.434,1.269,0.651C79.256,195.845,78.42,198.617,77.584,201.388z M514.434,40.364
			c-0.117,2.51-0.39,5.859,3.164,6.267c1.987,0.228,4.951-0.995,6.173-2.572c2.872-3.705,4.146-8.242,2.823-13.005
			c-1.122-4.035-4.646-4.83-7.649-2.018C515.72,32.055,514.452,35.797,514.434,40.364z M561.533,119.517
			c1.56,2.36,2.445,5.238,4.305,6.167c3.024,1.513,5.842-0.743,6.746-3.545c1.25-3.881,1.767-8.058,2.068-12.146
			c0.082-1.096-1.692-3.227-2.731-3.303c-1.665-0.122-4.195,0.573-4.999,1.809C564.823,111.722,563.461,115.427,561.533,119.517z
			 M604.245,197.69c1.457,2.574,2.229,5.044,3.9,6.443c0.889,0.745,3.89,0.248,4.974-0.743c4.131-3.777,5.422-8.861,4.629-14.274
			c-0.202-1.388-1.803-3.339-3.063-3.608c-1.518-0.322-4.125,0.355-4.912,1.516C607.609,190.211,606.15,193.878,604.245,197.69z
			 M349.644,46.674c6.734-0.655,9.381-2.82,10.437-8.307c0.428-2.227,0.022-4.238-2.507-4.534c-2.742-0.321-5.551-0.072-7.158-0.072
			c-2.016,6.644-3.792,12.5-5.601,18.461c1.345,0,2.996,0,4.829,0C349.644,50.213,349.644,48.429,349.644,46.674z M93.667,208.32
			c-1.168-3.472-1-5.539,3.369-5.902c3.976-0.331,7.291-4.983,6.875-8.996c-0.137-1.322-1.667-3.337-2.825-3.542
			c-2.537-0.45-5.243,0.056-6.819,0.125c-1.907,6.44-3.636,12.283-5.423,18.316C90.21,208.32,91.654,208.32,93.667,208.32z
			 M382.733,125.468c6.393-0.539,10.112-3.34,10.496-8.285c0.119-1.527-0.935-4.104-2.102-4.569
			c-2.242-0.894-4.948-0.73-7.463-0.731c-0.436-0.001-1.074,1.301-1.268,2.089c-0.488,1.988-0.734,4.034-1.157,6.041
			c-0.607,2.894-1.393,5.756-1.841,8.672c-0.086,0.562,1.031,1.308,1.593,1.97c0.521-0.672,1.257-1.271,1.506-2.032
			C382.792,127.728,382.664,126.694,382.733,125.468z M390.442,32.546c0.208-0.81,0.788-2.347,0.927-3.922
			c0.06-0.678-0.795-1.437-1.234-2.159c-0.818,0.537-2.18,0.929-2.368,1.633c-1.236,4.64-2.369,9.322-3.183,14.051
			c-0.207,1.202,0.493,3.343,1.408,3.809c2.63,1.334,5.754,0.94,7.395-1.485c1.613-2.382,2.738-5.448,2.889-8.277
			C396.328,35.193,392.883,34.004,390.442,32.546z M495.729,209.417c-0.385-4.641-0.377-4.651,3.905-5.33
			c4.271-0.677,8.164-6.913,6.719-10.973c-0.283-0.798-1.23-1.855-1.943-1.914c-2.716-0.226-5.461-0.091-7.273-0.091
			c-1.901,6.545-3.6,12.39-5.404,18.601C493.135,209.608,494.429,209.513,495.729,209.417z M440.302,105.967
			c-0.215-0.315-0.431-0.631-0.646-0.947c-1.054,0.575-2.804,0.942-3.045,1.758c-1.438,4.852-2.661,9.782-3.624,14.75
			c-0.196,1.021,0.718,2.904,1.638,3.374c2.941,1.501,6.122,0.359,7.763-1.882c1.602-2.188,2.046-5.378,2.401-8.204
			c0.078-0.624-2.302-1.695-3.664-2.298c-0.631-0.278-1.54,0.072-2.646,0.165C439.159,110.178,439.73,108.072,440.302,105.967z
			 M549.991,201.089c0.123-0.3,0.247-0.6,0.372-0.9c2.26-1.535,4.866-2.746,6.687-4.692c2.01-2.148,0.803-4.153-2.212-4.478
			c-3.452-0.372-5.529,1.891-6.695,4.384c-0.939,2.011-0.956,4.745-0.496,6.976c0.188,0.917,2.721,1.927,4.149,1.874
			c2.075-0.078,4.264-0.921,4.534-3.631C554.043,200.79,552.017,200.939,549.991,201.089z M432.28,34.28
			c-0.284-0.366-0.567-0.732-0.851-1.098c-2.934,0.865-6.615,0.942-8.592,2.817c-2.002,1.898-3.376,5.684-3.088,8.441
			c0.313,3.001,3.919,0.792,5.626,1.331c5.41,1.706,5.344-0.884,5.338-4.773C430.711,38.759,431.724,36.519,432.28,34.28z
			 M431.355,113.017c-1.81-0.383-3.809-1.321-5.655-1.08c-2.988,0.389-7.441,7.215-6.81,10.272c0.237,1.15,1.612,2.707,2.688,2.909
			c2.22,0.417,4.606,0.208,6.881-0.086c0.739-0.095,1.813-1.188,1.924-1.942C430.866,119.794,431.052,116.455,431.355,113.017z
			 M499.93,121.182c2.219-0.865,4.343-1.185,5.707-2.375c1.28-1.116,1.755-3.153,2.584-4.786c-1.785-0.31-4.058-1.451-5.249-0.751
			c-2.186,1.285-4.239,3.394-5.404,5.647c-1.113,2.153-1.092,5.017,1.891,6.355c2.872,1.289,6.416-0.337,7.791-3.61
			C504.922,121.463,502.519,124.833,499.93,121.182z M451.986,42.968c0.084-0.314,0.168-0.628,0.251-0.943
			c1.947-0.716,4.183-1.063,5.742-2.276c1.101-0.855,1.612-2.873,1.68-4.403c0.02-0.456-2.776-1.798-3.551-1.381
			c-2.253,1.217-4.53,2.82-6.059,4.833c-1.699,2.235-2.396,5.197,0.461,7.327c2.16,1.609,6.091,0.218,8.75-3.313
			c-1.85,0.565-3.02,1.19-4.196,1.203C454.042,44.025,453.013,43.344,451.986,42.968z M406.98,112.924
			c-6.479-1.483-11.03,1.184-12.287,7.436c-0.76,3.779,1.099,5.414,4.771,4.384c1.018-0.287,2.279,0.302,3.304,0.024
			c1.254-0.34,3.256-1.01,3.4-1.813C406.757,119.685,406.758,116.311,406.98,112.924z M172.99,14.073
			c4.534,5.776,4.269,11.345,0.119,17.208c3.111-2.245,5.67-4.614,7.819-7.311c1.829-2.292,3.33-4.89,4.651-7.516
			c0.334-0.665-0.509-1.986-0.968-2.929c-0.096-0.198-1.234-0.203-1.298-0.049c-0.345,0.826-0.454,1.746-0.734,2.604
			c-0.609,1.869-1.271,3.719-1.912,5.577C177.784,12.113,177.784,12.113,172.99,14.073z M137.704,199.827
			c-0.026-0.5-0.052-1-0.078-1.501c2.016-0.94,4.264-1.586,5.96-2.93c1.036-0.821,1.222-2.714,1.79-4.126
			c-1.394-0.495-2.858-1.542-4.166-1.373c-3.024,0.39-4.998,2.343-6.157,5.287c-1.129,2.868-1.19,5.485,1.388,7.372
			c2.035,1.49,5.734-0.374,7.247-3.209C141.794,199.498,139.749,199.663,137.704,199.827z M522.035,200.532
			c0.093-0.245,0.185-0.489,0.276-0.734c2.113-1.177,4.444-2.101,6.243-3.644c0.836-0.717,1.046-2.737,0.743-3.97
			c-0.156-0.633-2.07-1.182-3.181-1.164c-3.205,0.051-6.421,3.422-7.026,7.231c-0.383,2.407-0.578,5.08,2.538,5.764
			c2.918,0.641,5.504-0.111,6.745-3.484C526.072,200.532,524.055,200.532,522.035,200.532z M463.153,200.911
			c-0.144-0.42-0.289-0.841-0.434-1.261c1.99-1.071,4.247-1.845,5.871-3.319c1.032-0.937,1.122-2.912,1.635-4.422
			c-1.454-0.39-3.514-1.579-4.25-1.021c-2.263,1.713-4.456,3.846-5.847,6.289c-1.369,2.407-1.035,5.334,2.169,6.449
			c3.045,1.06,5.466,0.01,6.883-3.261C467.015,200.56,465.085,200.736,463.153,200.911z M481.254,112.604
			c-1.53,0.263-2.257,0.54-2.954,0.483c-5.576-0.447-7.885,0.773-9.462,5.768c-0.544,1.721-0.094,3.755-0.098,5.647
			c1.703-0.007,3.592-0.502,5.074,0.064c5.488,2.095,5.614-0.893,5.544-5.011C479.322,117.461,480.462,115.347,481.254,112.604z
			 M364.59,43.5c-0.014-0.544-0.028-1.088-0.043-1.633c2.042-0.811,4.35-1.273,6.029-2.557c1.105-0.844,1.308-2.874,1.914-4.373
			c-1.318-0.431-2.659-1.276-3.954-1.212c-3.416,0.168-5.24,2.462-6.322,5.524c-0.944,2.673-1.34,5.231,1.642,6.828
			c2.27,1.216,5.752-0.261,7.437-2.912C369.076,43.276,366.833,43.388,364.59,43.5z M581.292,307.244
			c1.395,1.133,2.589,2.82,3.517,2.684c1.247-0.183,2.288-1.772,2.703-2.135c-1.383-1.983-2.9-3.229-2.975-4.556
			c-0.063-1.098,1.534-2.329,2.483-3.426c0.597-0.688,1.354-1.238,2.039-1.85c-1.069-0.194-2.163-0.617-3.199-0.505
			c-0.735,0.079-1.393,0.88-2.084,1.359c0.003-0.328,0.006-0.656,0.009-0.984c-1.831-0.271-3.663-0.541-5.494-0.812
			c2.964,4.266,3.322,7.27,0.817,9.265c-1.068,0.853-3.732,0.532-2.218,3.023c0.089,0.147,2.604-1.175,3.986-1.821
			C581.094,307.386,581.292,307.244,581.292,307.244z M401.501,46.534c5.532-0.073,9.007-3.671,8.998-8.319
			c-0.006-3.264-1.983-4.347-4.764-4.445c-4.005-0.141-7.901,4.035-7.812,8.366C397.982,44.918,399.481,46.452,401.501,46.534z
			 M459.085,117.471c0.095-2.968-1.404-4.858-4.264-5.085c-3.936-0.313-8.35,4.25-8.38,8.412c-0.022,2.97,1.509,4.583,4.547,4.708
			C455.18,125.677,458.979,121.927,459.085,117.471z M125.406,193.976c-0.321-2.215-1.035-4.282-4.284-4.155
			c-4.627,0.182-8.324,3.922-8.169,8.46c0.087,2.566,2.721,5.072,5.167,4.917C121.448,202.989,125.51,198.038,125.406,193.976z
			 M595.424,184.878c-2.97,0.859-7.095-1.042-4.576,4.077c0.302,0.614-0.147,1.671-0.404,2.474
			c-1.357,4.244-2.765,8.473-4.261,13.029c1.61-0.103,3.34-0.213,4.221-0.269C592.12,197.584,593.653,191.685,595.424,184.878z
			 M499.546,46.427c1.655-6.462,3.172-12.385,4.69-18.318c-4.781-0.882-4.939-0.708-4.299,3.313
			c0.125,0.787-0.261,1.683-0.512,2.499c-1.264,4.099-2.562,8.189-3.918,12.506C497.023,46.427,498.461,46.427,499.546,46.427z
			 M547.443,107.361c1.598,6.908-1.824,12.165-4.086,18.081c1.646,0,3.248,0,4.39,0c1.629-6.503,3.169-12.65,4.791-19.127
			c-1.415,0.103-2.043,0.066-2.626,0.21C549.087,106.729,548.294,107.066,547.443,107.361z M443.831,51.333
			c-2.33-9.459,1.354-17.065,7.365-23.986C441.424,31.391,437.301,44.794,443.831,51.333z M467.777,42.785
			c4.519,0.987,14.024-3.533,15.686-6.549c-5.207-3.784-12.761-6.357-14.972-4.683c3.585,1.704,6.98,3.317,10.946,5.202
			C475.541,38.77,472.094,40.553,467.777,42.785z M416.194,45.106c-0.467-1.945-1.052-2.958-0.845-3.769
			c0.92-3.612,2.126-7.15,3.096-10.751c0.316-1.181,0.23-2.47,0.328-3.709c-1.228,0-2.455,0-2.655,0
			c-1.481,5.612-2.81,10.311-3.92,15.06c-0.317,1.36-0.003,2.868,0.021,4.309C413.629,45.842,415.037,45.438,416.194,45.106z
			 M622.15,185.428c2.468,9.053-1.337,16.319-6.215,23.425c4.714-1.909,7.188-5.592,8.676-10.065
			C626.209,193.986,625.546,189.53,622.15,185.428z M523.896,52.24c4.866-2.939,8.938-6.523,10.126-12.259
			c0.89-4.292-0.093-8.345-2.691-12.1C533.088,37.369,530.035,45.187,523.896,52.24z M580.85,201.714
			c0.276-0.539,0.554-1.076,0.83-1.615c-3.615-1.799-7.231-3.598-10.853-5.4c2.965-3.076,7.864-2.973,10.624-6.02
			c-0.263-0.428-0.526-0.855-0.79-1.283c-4.758,2.128-9.516,4.256-14.274,6.384c0.025,0.504,0.052,1.008,0.076,1.512
			C571.259,197.433,576.054,199.573,580.85,201.714z M492.006,130.116c-2.486-9.542,1.523-16.94,7.099-24.011
			c-4.805,2.419-8.081,6.142-9.556,11.18C488.244,121.74,488.513,126.15,492.006,130.116z M512.458,193.221
			c0.477-0.21,0.953-0.419,1.431-0.63c0.637,1.011,1.273,2.021,1.911,3.032c0.353-0.199,0.704-0.397,1.056-0.597
			c0.199-1.116,0.398-2.23,0.798-4.463c-3.011,0.7-5.603,0.727-7.297,1.973c-0.708,0.521,0.223,3.737,0.91,5.536
			c0.532,1.39,2.596,2.557,0.493,3.93c-0.438,0.287-2.101-1.319-3.216-2.025c-0.179-0.113-0.449-0.082-1.124-0.188
			c-0.14,1.255-0.276,2.479-0.426,3.812c1.926,0.267,3.393,0.694,4.837,0.626c3.289-0.154,4.499-3.248,2.753-6.746
			C513.875,196.061,513.167,194.641,512.458,193.221z M572.472,130.54c5.197-1.939,9.843-7.539,10.101-14.698
			c0.116-3.195-0.299-6.444-3.162-8.946C581.555,116.163,578.557,123.761,572.472,130.54z M464.102,105.819
			c-0.213,2.179-0.153,3.709-0.54,5.116c-1.047,3.809-2.353,7.548-3.388,11.36c-0.214,0.787,0.02,2.189,0.559,2.555
			c0.598,0.407,1.967,0.231,2.648-0.222c0.491-0.327,0.461-1.514,0.564-2.33c0.144-1.14,0.023-2.337,0.316-3.428
			c1.166-4.333,2.448-8.635,3.854-13.531C466.123,105.578,464.962,105.716,464.102,105.819z M476.008,184.295
			c-0.604,2.708-0.972,4.748-1.524,6.735c-0.936,3.356-2.069,6.659-2.929,10.032c-0.194,0.765,0.155,1.976,0.709,2.514
			c0.371,0.363,1.744,0.169,2.305-0.255c0.69-0.522,1.319-1.508,1.415-2.357c0.226-2.015-0.22-4.146,0.225-6.088
			c0.767-3.351,2.003-6.594,3.206-10.401C477.823,184.39,476.813,184.337,476.008,184.295z M541.41,207.897
			c-2.179-8.724,1.655-15.621,7.346-22.611C539.6,188.189,535.488,201.712,541.41,207.897z M483.28,202.64
			c-0.956-7.111,2.43-12.291,3.459-18.216c-1.507,0.079-2.684,0.141-3.673,0.194c-0.157,1.837-0.075,3.425-0.462,4.891
			c-0.887,3.361-2.125,6.63-2.965,10c-0.333,1.337,0.013,2.843,0.05,4.272C481.076,203.339,482.462,202.899,483.28,202.64z
			 M372.884,45.568c0.342,0.305,0.683,0.611,1.023,0.917c0.863-1.054,1.957-1.996,2.543-3.187c1.314-2.671,1.689-6.089,5.887-6
			c0.357,0.007,0.918-1.312,1.045-2.07c0.065-0.392-0.6-1.29-0.964-1.307c-2.54-0.117-5.088-0.062-6.896-0.062
			C374.538,38.224,373.711,41.896,372.884,45.568z M417.839,113.236c-2.327-0.457-4.026-0.933-5.752-1.062
			c-0.735-0.054-2.096,0.494-2.2,0.978c-0.812,3.758-1.387,7.567-2.034,11.361c0.288,0.23,0.576,0.462,0.865,0.693
			c0.784-1.061,1.555-2.131,2.354-3.181c1.549-2.033,2.787-5.278,4.746-5.801C418.996,115.378,418.078,114.18,417.839,113.236z
			 M107.284,189.766c-0.335,2.197-0.496,3.838-0.856,5.434c-0.352,1.56-1.127,3.051-1.281,4.616
			c-0.075,0.769,0.658,2.019,1.354,2.341c0.633,0.292,1.86-0.178,2.543-0.689c0.518-0.387,0.741-1.349,0.835-2.087
			c0.32-2.504-0.378-5.841,0.985-7.341c2.026-2.23,0.69-3.452,0.391-5.457C109.619,187.895,108.309,188.944,107.284,189.766z
			 M132.546,185.996c-1.743,2.174-3.442,3.61-4.212,5.438c-0.826,1.962-0.915,4.282-1.064,6.464
			c-0.104,1.517,0.234,3.064,0.374,4.598c1.325-0.572,2.648-1.144,3.994-1.725C127.653,195.397,134.911,191.748,132.546,185.996z
			 M490.119,191.226c-1.012,3.523-1.977,6.59-2.731,9.707c-0.201,0.832,0.031,1.944,0.479,2.672c0.178,0.289,1.756,0.16,2.215-0.281
			c0.63-0.606,0.972-1.658,1.129-2.573c0.213-1.247-0.017-2.573,0.22-3.813c0.333-1.754,0.917-3.461,1.499-5.568
			C491.361,191.289,490.316,191.235,490.119,191.226z M532.488,119.367c0.059-0.466,0.117-0.933,0.176-1.398
			c-4.338-1.681-8.946-0.94-13.464-0.736c-0.508,0.022-0.964,1.192-1.673,2.135C523.02,119.367,527.754,119.367,532.488,119.367z
			 M532.483,114.799c-0.011-0.369-0.021-0.737-0.033-1.106c-4.784,0-9.569,0-14.354,0c0.001,0.369,0.002,0.737,0.004,1.106
			C522.894,114.799,527.689,114.799,532.483,114.799z"/>
		<path fill-rule="evenodd" clip-rule="evenodd" d="M179.917,46.41c-1.903,1.763-3.296,3.054-4.689,4.345
			c-0.345-0.191-0.689-0.382-1.034-0.573c2.139-6.531,4.277-13.062,6.416-19.592c0.345-0.038,0.691-0.075,1.036-0.112
			c2.367,6.585,4.733,13.17,7.1,19.755c-0.289,0.202-0.578,0.404-0.867,0.606c-1.583-1.282-3.165-2.564-5.292-4.287
			c0,38.968,0,77.488,0,116.01c0.299,0.221,0.599,0.442,0.898,0.662c39.064-43.768,78.128-87.536,117.192-131.304
			c0.497,0.258,0.994,0.516,1.491,0.773c-0.398,1.143-0.497,2.554-1.241,3.387c-8.471,9.474-17.088,18.816-25.568,28.281
			c-7.453,8.317-14.775,16.75-22.167,25.122c-6.256,7.085-12.522,14.16-18.794,21.23c-11.886,13.399-23.756,26.811-35.68,40.175
			c-4.806,5.386-9.794,10.61-14.564,16.027c-0.969,1.1-1.887,2.727-1.897,4.118c-0.158,21.237-0.165,42.476-0.186,63.713
			c-0.001,0.976,0.193,1.951,0.705,2.982c1.389-5.379,2.685-10.784,4.185-16.132c4.493-16.014,10.638-31.392,19.109-45.702
			c8.115-13.708,16.277-27.442,25.349-40.519c11.281-16.261,23.307-32.022,35.419-47.685c7.683-9.936,16.137-19.274,24.182-28.933
			c2.068-2.483,3.766-5.284,5.914-7.686c0.761-0.851,2.36-0.952,3.576-1.394c-0.208,1.239-0.002,2.806-0.686,3.667
			c-5.646,7.113-11.49,14.069-17.212,21.123c-8.778,10.82-17.83,21.438-26.171,32.588c-9.667,12.922-18.978,26.136-27.906,39.58
			c-7.494,11.286-14.512,22.915-21.212,34.692c-9.604,16.883-16.347,34.965-20.976,53.828c-0.142,0.579-0.087,1.206,0.461,2.094
			c1.143-1.797,2.191-3.664,3.446-5.38c5.498-7.521,10.292-15.75,16.77-22.314c9.84-9.971,20.683-18.989,31.459-27.982
			c5.315-4.436,11.42-7.928,17.191-11.813c9.673-6.51,19.314-13.068,29.066-19.458c5.821-3.814,11.762-7.457,17.764-10.981
			c13.194-7.747,26.442-15.403,39.707-23.025c4.54-2.609,9.17-5.069,13.834-7.45c0.892-0.456,2.136-0.223,3.218-0.308
			c-0.46,1.014-0.64,2.48-1.426,2.968c-4.969,3.086-10.056,5.986-15.135,8.892c-11.535,6.598-23.176,13.015-34.607,19.787
			c-9.932,5.884-19.721,12.023-29.413,18.297c-7.93,5.133-15.689,10.539-23.406,15.991c-7.88,5.567-16.006,10.884-23.318,17.136
			c-9.194,7.861-17.777,16.454-26.41,24.947c-3.922,3.858-7.333,8.236-10.976,12.378c0.285,0.262,0.569,0.523,0.853,0.786
			c3.373-2.651,6.568-5.575,10.154-7.896c7.59-4.912,15.162-9.927,23.139-14.148c17.217-9.111,35.908-13.938,54.943-17.404
			c18.708-3.405,37.576-4.795,56.628-4.728c20.465,0.071,40.633,2.513,60.573,6.576c18.348,3.737,36.114,9.681,52.721,18.49
			c10.916,5.791,21.223,12.6,29.713,21.774c7.793,8.421,13.309,18.023,14.547,29.63c0.271,2.545,1.35,3.008,3.576,3.009
			c26.23,0.01,52.461,0.092,78.691,0.148c6.205,0.014,12.411,0.002,19.155,0.002c-1.305-1.619-2.396-2.975-3.49-4.329
			c0.146-0.307,0.291-0.613,0.437-0.919c6.689,2.131,13.38,4.262,20.069,6.393c0.022,0.379,0.046,0.758,0.068,1.136
			c-6.662,2.205-13.322,4.409-19.984,6.613c-0.217-0.246-0.434-0.492-0.651-0.738c1.159-1.527,2.318-3.055,4.039-5.323
			c-8.982,0-17.266,0.037-25.549-0.009c-18.453-0.1-36.904-0.223-55.355-0.378c-5.709-0.048-11.418-0.18-17.122-0.379
			c-2.347-0.082-3.49,0.442-3.851,3.18c-1.749,13.312-8.479,23.964-18.23,32.908c-9.135,8.38-19.27,15.042-30.59,20.315
			c-12.267,5.714-24.848,10.182-37.906,13.485c-23.223,5.878-46.854,8.441-70.764,8.521c-20.777,0.07-41.418-1.861-61.722-6.186
			c-11.414-2.431-22.849-5.383-33.731-9.526c-13.888-5.288-27.479-11.537-39.166-21.135c-3.715-3.052-7.681-5.798-11.947-8.454
			c2.423,3.661,4.498,7.621,7.335,10.925c7.623,8.876,15.313,17.723,23.477,26.094c6.059,6.213,12.691,11.92,19.436,17.398
			c16.894,13.724,33.854,27.374,51.07,40.688c9.631,7.448,19.8,14.202,29.773,21.204c10.911,7.66,21.898,15.212,32.768,22.93
			c0.829,0.588,0.99,2.116,1.462,3.208c-1.209-0.095-2.711,0.243-3.583-0.349c-13.586-9.224-27.221-18.386-40.574-27.94
			c-11.54-8.258-22.759-16.967-34.082-25.525c-9.225-6.974-18.616-13.754-27.53-21.108c-9.503-7.839-18.681-16.091-27.732-24.454
			c-12.651-11.69-23.959-24.575-32.925-39.364c-1.992-3.286-3.588-6.811-6.208-10.04c0.434,2.273,0.703,4.594,1.33,6.813
			c6.343,22.471,15.672,43.644,28.154,63.37c9.522,15.051,19.013,30.139,29.13,44.786c7.276,10.535,15.548,20.385,23.404,30.518
			c6.867,8.856,13.723,17.724,20.684,26.506c3.01,3.798,6.273,7.394,9.421,11.082c0.403,0.472,1.005,0.89,1.159,1.434
			c0.337,1.188,0.445,2.44,0.647,3.667c-1.303-0.433-3.093-0.464-3.831-1.361c-5.758-7.007-11.315-14.18-16.934-21.303
			c-9.017-11.428-18.282-22.67-26.978-34.337c-8.633-11.584-16.911-23.451-24.941-35.464c-7.05-10.55-13.908-21.264-20.198-32.277
			c-10.75-18.824-18.62-38.857-23.388-60.056c-0.219-0.974-0.471-1.941-0.762-2.896c-0.1-0.327-0.365-0.604-1.364-0.904
			c0,2.602-0.006,5.204,0.001,7.807c0.107,40.606,0.215,81.214,0.324,121.82c0.032,12.109,0.095,24.218,0.044,36.325
			c-0.003,0.895-0.824,1.786-1.264,2.68c-0.545-0.915-1.563-1.827-1.565-2.742c-0.033-12.98,0.13-25.961,0.13-38.941
			c0-19.467-0.133-38.934-0.13-58.401c0.002-14.973,0.125-29.945,0.195-44.917c0.071-15.114,0.209-30.229,0.179-45.344
			c-0.011-5.377-0.333-5.683-5.58-5.76c-10.359-0.152-20.721-0.064-31.082-0.15c-13.354-0.111-26.73,0.118-40.051-0.63
			c-6.272-0.353-9.909,2.577-13.484,6.665c-6.217,7.109-12.431,14.223-18.697,21.29c-6.354,7.167-12.768,14.28-19.156,21.417
			c-8.127,9.078-16.232,18.178-24.422,27.197c-0.701,0.773-1.975,1.025-2.983,1.519c0.212-1.199,0.012-2.765,0.7-3.542
			c7.085-8.008,14.358-15.849,21.495-23.812c8.568-9.562,17.03-19.22,25.587-28.791c5.134-5.744,10.365-11.402,15.547-17.103
			c1.064-1.171,2.106-2.363,3.159-3.545c-0.093-0.363-0.185-0.727-0.278-1.09c-22.157,0-44.314,0-66.472,0
			c-0.094-0.531-0.187-1.063-0.281-1.596c1.046-0.38,2.094-1.092,3.139-1.09c17.351,0.049,34.702,0.185,52.053,0.307
			c4.122,0.028,8.267,0.353,12.354-0.001c1.748-0.15,3.78-1.319,4.992-2.653c7.45-8.201,14.648-16.629,22.036-24.887
			c6.56-7.333,13.333-14.476,19.874-21.825c9.173-10.307,18.181-20.76,27.338-31.081c3.717-4.188,7.814-8.05,11.384-12.353
			c1.373-1.655,2.478-4.121,2.492-6.226c0.217-33.344,0.238-66.689,0.3-100.033C179.927,58.414,179.917,52.72,179.917,46.41z
			 M494.528,264.82c-0.322-6.985-2.314-13.08-5.504-18.763c-4.452-7.933-10.742-14.167-17.811-19.903
			c-12.584-10.212-26.941-16.85-42.021-22.141c-6.688-2.347-13.527-4.345-20.418-6.005c-9.301-2.242-18.635-4.694-28.103-5.808
			c-13.394-1.575-26.782-4.093-40.461-1.977c-4.647,0.719-9.567-0.536-14.362-0.523c-15.761,0.04-31.332,1.923-46.772,5.057
			c-16.17,3.283-31.939,7.849-47.048,14.518c-4.335,1.913-8.474,4.271-12.703,6.424c0.121,0.327,0.242,0.654,0.364,0.98
			c1.045-0.088,2.147,0.005,3.128-0.295c6.816-2.086,13.521-1.174,20.337,0.218c10.402,2.125,19.007,7.302,26.203,14.854
			c7.546,7.919,11.915,17.479,12.966,28.372c0.343,3.546,1.733,4.399,5.134,4.388c19.301-0.067,38.603,0.128,57.905,0.205
			c16.063,0.063,32.128,0.08,48.191,0.13c27.105,0.085,54.209,0.183,81.314,0.267C481.327,264.837,487.785,264.82,494.528,264.82z
			 M223.645,316.109c-0.075,0.296-0.149,0.592-0.224,0.889c6.333,2.766,12.544,5.871,19.031,8.211
			c7.701,2.778,15.611,4.997,23.481,7.285c17.332,5.039,35.092,7.975,53.077,8.471c17.303,0.478,34.694,0.435,51.948-0.769
			c13.006-0.906,26.042-3.251,38.725-6.35c11.407-2.786,22.529-7.029,33.458-11.421c16.123-6.48,30.481-15.728,41.446-29.582
			c4.969-6.278,8.146-13.345,9.614-21.228c0.58-3.119,0.145-4.727-3.621-4.284c-3.433,0.402-6.936,0.284-10.406,0.253
			c-11.094-0.098-22.188-0.343-33.282-0.386c-28.713-0.111-57.427-0.083-86.14-0.229c-24.838-0.127-49.674-0.39-74.511-0.685
			c-2.371-0.028-3.093,0.707-3.564,3.051c-1.196,5.95-2.15,12.112-4.504,17.633c-4.913,11.523-13.41,20.053-25.033,24.915
			c-7.013,2.935-14.349,5.082-22.199,4.265C228.534,315.897,226.078,316.109,223.645,316.109z M179.714,173.327
			c-0.385-0.099-0.771-0.198-1.157-0.297c-26.669,29.856-53.339,59.712-80.009,89.569c0.147,0.32,0.294,0.641,0.441,0.961
			c5.798,0,11.597-0.026,17.395,0.005c18.594,0.104,37.187,0.247,55.78,0.335c7.708,0.037,7.913-0.191,7.879-7.944
			c-0.097-22.348-0.223-44.695-0.326-67.043C179.694,183.718,179.714,178.522,179.714,173.327z M184.386,263.524
			c0.873,0.21,1.459,0.475,2.046,0.475c12.229,0.016,24.458,0.041,36.684-0.086c0.954-0.011,2.07-0.978,2.81-1.778
			c2.174-2.351,6.373-3.179,7.897-0.838c1.894,2.906,4.299,2.743,7.022,2.693c3.618-0.065,7.239,0,10.857,0.001
			c9.068,0.003,18.136,0.001,27.543,0.001c-0.841-17.733-9.374-30.759-24.008-39.085c-17.105-9.731-34.583-8.916-51.033,2.388
			C191.595,235.96,185.167,248.143,184.386,263.524z M279.289,266.216c-14.157,0-27.738-0.036-41.317,0.074
			c-1.014,0.008-2.218,0.874-2.993,1.672c-3.059,3.143-6.515,3.042-9.288-0.183c-0.744-0.865-2.167-1.602-3.289-1.618
			c-11.599-0.173-23.202-0.095-34.799-0.31c-2.737-0.05-3.465,0.701-3.221,3.38c1.011,11.092,5.036,20.653,13.135,28.537
			c5.782,5.627,11.901,10.661,19.752,12.883c20.514,5.804,40.133-0.11,53.205-17.395
			C276.309,285.539,279.212,276.609,279.289,266.216z"/>
		<path fill-rule="evenodd" clip-rule="evenodd" d="M65.596,198.071c1.28-1.952,4.1-3.11,2.813-6.413
			c-0.173-0.442,0.658-1.276,1.025-1.929c0.564,0.522,1.551,1.01,1.6,1.577c0.088,1.031-0.07,2.35-0.671,3.128
			c-3.342,4.336-6.785,8.599-10.362,12.741c-0.553,0.64-1.975,0.649-3.002,0.679c-0.291,0.008-0.957-1.303-0.86-1.396
			c0.7-0.673,1.476-1.443,2.368-1.708c2.55-0.755,3.745-2.299,3.472-4.951c-0.179-1.737-0.234-3.503-0.603-5.2
			c-0.239-1.103-0.942-2.107-1.438-3.154c-0.966,0.502-1.931,1.004-3.016,1.568c-0.758-0.554-1.672-1.223-2.587-1.893
			c-0.279,0.182-0.558,0.365-0.837,0.548c0.576,1.173,1.415,2.293,1.666,3.533c0.385,1.902,1.067,4.207,0.355,5.761
			c-1.078,2.354-3.663,2.283-5.886,1.187c-3.192-1.573-6.366-0.266-9.554-0.18c-1.262,0.034-2.818,0.059-3.713-0.615
			c-0.744-0.559-1.209-2.279-0.948-3.256c1.833-6.845,4.148-10.106,12.749-7.785c-0.651,2.805-1.306,5.628-1.793,7.723
			c1.849,0.794,3.107,1.389,4.408,1.873c0.646,0.239,1.367,0.274,2.054,0.403c0.133-0.796,0.575-1.706,0.333-2.362
			c-0.421-1.14-1.341-2.084-1.916-3.182c-1.506-2.875-0.394-5.02,2.771-5.17c2.598-0.123,5.257-0.263,7.79,0.177
			c1.037,0.18,2.269,1.738,2.596,2.899c0.446,1.581,0.111,3.383,0.111,5.089C64.877,197.866,65.236,197.969,65.596,198.071z
			 M45.042,192.096c-0.481-0.332-0.961-0.664-1.442-0.995c-3.157,0.314-4.057,3.038-5.071,5.457
			c-0.298,0.71,0.257,1.779,0.421,2.683c0.918-0.228,2.291-0.157,2.672-0.738C42.948,196.49,43.93,194.25,45.042,192.096z"/>
		<path fill-rule="evenodd" clip-rule="evenodd" d="M325.53,26.953c3.465-0.757,4.135-0.087,3.09,3.591
			c-0.39,1.368-0.744,2.746-1.04,3.846c3.581-0.23,6.804-0.701,9.98-0.483c0.988,0.068,2.217,1.867,2.672,3.115
			c0.556,1.524,0.411,3.302,0.569,4.971c0.521,0.088,1.042,0.176,1.563,0.265c0.602-2.251,1.164-4.513,1.83-6.744
			c0.186-0.621,0.68-1.149,1.032-1.72c0.567,0.505,1.501,0.938,1.618,1.533c0.178,0.898,0.113,2.166-0.413,2.831
			c-3.39,4.285-6.921,8.46-10.448,12.636c-0.379,0.449-1.128,1.028-1.536,0.918c-0.821-0.219-1.527-0.873-2.28-1.348
			c0.483-0.56,0.93-1.564,1.455-1.607c3.604-0.293,4.585-2.269,4.076-5.562c-0.265-1.719-0.01-3.534-0.396-5.213
			c-0.243-1.059-1.237-1.945-1.895-2.909c-0.337,0.119-0.674,0.237-1.011,0.355c-0.523,2.501-0.911,5.04-1.625,7.485
			c-0.38,1.303-1.321,2.443-2.009,3.657c-0.619-0.277-1.236-0.554-1.854-0.832c0.745-3.073,1.49-6.145,2.236-9.218
			c-0.302-0.223-0.604-0.447-0.904-0.67c-1.727,2.204-3.491,4.38-5.152,6.632c-0.424,0.575-0.333,1.579-0.81,2.052
			c-0.605,0.601-1.548,0.86-2.346,1.267c-0.108-0.759-0.457-1.576-0.285-2.265c0.932-3.745,2.046-7.445,2.983-11.189
			C325.056,30.649,325.216,28.887,325.53,26.953z"/>
		<path fill-rule="evenodd" clip-rule="evenodd" d="M77.584,201.388c0.836-2.771,1.672-5.543,2.508-8.315
			c-0.422-0.217-0.846-0.434-1.269-0.651c-2.021,3.345-4.042,6.69-6.063,10.035c-0.459-0.236-0.918-0.472-1.377-0.708
			c0.479-1.949,1.005-3.888,1.427-5.849c0.405-1.884,0.701-3.792,1.123-6.111c3.167,0.264,6.501,0.541,9.837,0.819
			c0.001,0.343,0.003,0.687,0.004,1.03c0.715-0.476,1.375-1.135,2.162-1.376c0.871-0.268,2.258-0.553,2.703-0.11
			c0.641,0.639,0.881,1.933,0.854,2.936c-0.06,2.243-0.109,4.562-0.736,6.681c-0.299,1.012-1.905,1.638-2.919,2.438
			c-0.391-0.979-1.248-2.046-1.081-2.918c0.408-2.141,1.287-4.191,1.977-6.278c-0.386-0.224-0.772-0.447-1.158-0.67
			c-2.233,3.354-4.465,6.708-6.698,10.061C78.445,202.064,78.015,201.726,77.584,201.388z"/>
		<path fill-rule="evenodd" clip-rule="evenodd" d="M514.434,40.364c0.019-4.567,1.286-8.309,4.511-11.329
			c3.004-2.812,6.527-2.017,7.649,2.018c1.323,4.763,0.049,9.3-2.823,13.005c-1.222,1.578-4.186,2.8-6.173,2.572
			C514.044,46.224,514.316,42.875,514.434,40.364z M524.406,32.616c-0.553-0.82-1.178-1.751-1.804-2.683
			c-0.906,0.707-2.278,1.234-2.632,2.154c-1.151,2.987-2.109,6.081-2.757,9.213c-0.228,1.104,0.659,2.437,1.036,3.665
			c1.156-0.747,2.952-1.249,3.351-2.286C522.792,39.576,523.437,36.263,524.406,32.616z"/>
		<path fill-rule="evenodd" clip-rule="evenodd" d="M561.533,119.517c1.928-4.09,3.29-7.795,5.389-11.019
			c0.804-1.236,3.334-1.931,4.999-1.809c1.039,0.076,2.813,2.207,2.731,3.303c-0.302,4.089-0.818,8.266-2.068,12.146
			c-0.904,2.803-3.722,5.058-6.746,3.545C563.979,124.755,563.093,121.877,561.533,119.517z M572.864,111.808
			c-0.679-1.084-1.323-2.114-1.968-3.143c-0.891,0.741-2.25,1.315-2.588,2.256c-1.122,3.138-2.022,6.378-2.688,9.644
			c-0.2,0.978,0.645,2.169,1.011,3.262c1.075-0.67,2.734-1.104,3.119-2.055C571,118.682,571.784,115.404,572.864,111.808z"/>
		<path fill-rule="evenodd" clip-rule="evenodd" d="M604.245,197.69c1.905-3.813,3.364-7.479,5.527-10.667
			c0.787-1.16,3.395-1.838,4.912-1.516c1.261,0.269,2.861,2.221,3.063,3.608c0.793,5.413-0.498,10.497-4.629,14.274
			c-1.084,0.991-4.085,1.488-4.974,0.743C606.475,202.735,605.702,200.265,604.245,197.69z M609.663,202.932
			c3.656-2.855,6.457-10.465,5.313-14.151c-0.476-1.534-1.294-2.518-2.905-1.018C609.24,190.397,607.748,199.175,609.663,202.932z"
			/>
		<path fill-rule="evenodd" clip-rule="evenodd" d="M349.644,46.674c0,1.755,0,3.539,0,5.548c-1.833,0-3.484,0-4.829,0
			c1.809-5.962,3.585-11.817,5.601-18.461c1.607,0,4.416-0.249,7.158,0.072c2.529,0.296,2.935,2.308,2.507,4.534
			C359.024,43.854,356.378,46.02,349.644,46.674z M351.153,44.638c3.823-0.778,6.175-3.41,6.064-6.662
			c-0.022-0.63-0.476-1.674-0.897-1.767c-0.727-0.16-1.878,0.009-2.336,0.51C352.045,38.835,350.327,41.136,351.153,44.638z"/>
		<path fill-rule="evenodd" clip-rule="evenodd" d="M93.667,208.32c-2.013,0-3.457,0-4.822,0c1.787-6.033,3.516-11.875,5.423-18.316
			c1.576-0.069,4.282-0.574,6.819-0.125c1.158,0.205,2.688,2.221,2.825,3.542c0.416,4.013-2.899,8.666-6.875,8.996
			C92.667,202.782,92.499,204.848,93.667,208.32z M93.771,200.852c5.01-0.573,7.851-3.791,7.403-7.103
			c-0.085-0.633-0.729-1.715-1.047-1.692c-0.909,0.068-2.215,0.347-2.594,0.995C96.223,195.292,95.24,197.724,93.771,200.852z"/>
		<path fill-rule="evenodd" clip-rule="evenodd" d="M382.733,125.468c-0.069,1.226,0.059,2.26-0.235,3.155
			c-0.249,0.761-0.984,1.36-1.506,2.032c-0.562-0.662-1.679-1.408-1.593-1.97c0.448-2.917,1.233-5.779,1.841-8.672
			c0.423-2.006,0.669-4.052,1.157-6.041c0.193-0.788,0.832-2.09,1.268-2.089c2.515,0,5.221-0.163,7.463,0.731
			c1.167,0.465,2.221,3.042,2.102,4.569C392.846,122.128,389.126,124.93,382.733,125.468z M391.821,116.813
			c-1.609-1.167-2.24-1.977-2.979-2.092c-2.105-0.328-5.298,3.996-5.006,6.899c0.064,0.636,1.144,1.17,1.756,1.752
			C387.504,121.359,389.414,119.348,391.821,116.813z"/>
		<path fill-rule="evenodd" clip-rule="evenodd" d="M390.442,32.546c2.44,1.458,5.886,2.647,5.833,3.65
			c-0.15,2.829-1.275,5.895-2.889,8.277c-1.641,2.425-4.765,2.819-7.395,1.485c-0.915-0.465-1.615-2.606-1.408-3.809
			c0.813-4.729,1.946-9.411,3.183-14.051c0.188-0.705,1.55-1.096,2.368-1.633c0.439,0.722,1.294,1.48,1.234,2.159
			C391.23,30.199,390.65,31.736,390.442,32.546z M388.015,44.843c2.887,0.125,5.698-3.044,5.665-5.999
			c-0.01-0.867-0.99-2.273-1.771-2.471c-1.935-0.491-4.473,3.146-4.656,6.579C387.216,43.657,387.824,44.397,388.015,44.843z"/>
		<path fill-rule="evenodd" clip-rule="evenodd" d="M495.729,209.417c-1.3,0.095-2.594,0.19-3.997,0.293
			c1.805-6.211,3.503-12.056,5.404-18.601c1.813,0,4.558-0.135,7.273,0.091c0.713,0.059,1.66,1.116,1.943,1.914
			c1.445,4.06-2.447,10.296-6.719,10.973C495.352,204.766,495.344,204.776,495.729,209.417z M503.586,193.733
			c-3.714,0.565-6.508,3.801-6.174,7.021c0.203,1.951,1.317,2.418,2.781,1.268C502.843,199.941,504.481,197.347,503.586,193.733z"/>
		<path fill-rule="evenodd" clip-rule="evenodd" d="M440.302,105.967c-0.571,2.105-1.143,4.211-1.822,6.716
			c1.105-0.092,2.015-0.443,2.646-0.165c1.362,0.603,3.742,1.674,3.664,2.298c-0.355,2.825-0.8,6.015-2.401,8.204
			c-1.641,2.241-4.821,3.383-7.763,1.882c-0.92-0.47-1.834-2.354-1.638-3.374c0.963-4.968,2.187-9.898,3.624-14.75
			c0.241-0.815,1.991-1.183,3.045-1.758C439.871,105.335,440.087,105.651,440.302,105.967z M436.985,123.667
			c2.988-0.086,5.679-3.489,5.326-6.262c-0.114-0.893-1.222-2.222-2.036-2.352c-2.048-0.329-4.688,3.59-4.551,6.723
			C435.758,122.539,436.699,123.262,436.985,123.667z"/>
		<path fill-rule="evenodd" clip-rule="evenodd" d="M549.991,201.089c2.025-0.149,4.052-0.299,6.339-0.468
			c-0.271,2.71-2.459,3.554-4.534,3.631c-1.429,0.053-3.962-0.958-4.149-1.874c-0.46-2.231-0.443-4.965,0.496-6.976
			c1.166-2.494,3.243-4.756,6.695-4.384c3.015,0.325,4.222,2.33,2.212,4.478c-1.82,1.946-4.427,3.157-6.687,4.692
			C550.238,200.489,550.114,200.789,549.991,201.089z"/>
		<path fill-rule="evenodd" clip-rule="evenodd" d="M432.28,34.28c-0.557,2.239-1.569,4.479-1.566,6.717
			c0.006,3.889,0.072,6.479-5.338,4.773c-1.707-0.538-5.313,1.671-5.626-1.331c-0.288-2.757,1.086-6.543,3.088-8.441
			c1.977-1.875,5.658-1.952,8.592-2.817C431.713,33.547,431.996,33.914,432.28,34.28z M427.707,35.848
			c-0.479-0.261-0.958-0.522-1.438-0.783c-1.293,2.069-2.687,4.087-3.809,6.246c-0.285,0.548,0.05,1.91,0.542,2.238
			c0.503,0.336,1.808,0.148,2.309-0.307C427.502,41.245,428.896,38.889,427.707,35.848z"/>
		<path fill-rule="evenodd" clip-rule="evenodd" d="M431.355,113.017c-0.304,3.438-0.489,6.777-0.973,10.074
			c-0.11,0.754-1.185,1.847-1.924,1.942c-2.274,0.294-4.661,0.503-6.881,0.086c-1.075-0.202-2.45-1.759-2.688-2.909
			c-0.632-3.057,3.821-9.884,6.81-10.272C427.547,111.695,429.546,112.634,431.355,113.017z M427.529,114.356
			c-3.263,0.728-6.088,3.857-5.753,6.662c0.065,0.542,2.335,1.511,2.678,1.218C426.811,120.226,428.805,117.89,427.529,114.356z"/>
		<path fill-rule="evenodd" clip-rule="evenodd" d="M499.93,121.182c2.589,3.651,4.992,0.282,7.319,0.48
			c-1.375,3.273-4.919,4.899-7.791,3.61c-2.982-1.338-3.004-4.202-1.891-6.355c1.165-2.253,3.219-4.362,5.404-5.647
			c1.191-0.7,3.464,0.441,5.249,0.751c-0.829,1.632-1.304,3.67-2.584,4.786C504.272,119.997,502.148,120.316,499.93,121.182z"/>
		<path fill-rule="evenodd" clip-rule="evenodd" d="M451.986,42.968c1.026,0.376,2.056,1.057,3.078,1.046
			c1.177-0.013,2.347-0.638,4.196-1.203c-2.659,3.532-6.59,4.923-8.75,3.313c-2.857-2.129-2.16-5.092-0.461-7.327
			c1.528-2.013,3.806-3.617,6.059-4.833c0.774-0.417,3.57,0.925,3.551,1.381c-0.067,1.53-0.579,3.548-1.68,4.403
			c-1.56,1.214-3.795,1.56-5.742,2.276C452.154,42.34,452.07,42.654,451.986,42.968z"/>
		<path fill-rule="evenodd" clip-rule="evenodd" d="M406.98,112.924c-0.223,3.387-0.224,6.761-0.813,10.03
			c-0.145,0.803-2.146,1.474-3.4,1.813c-1.024,0.278-2.286-0.311-3.304-0.024c-3.672,1.03-5.53-0.604-4.771-4.384
			C395.95,114.107,400.502,111.441,406.98,112.924z M404.13,117.152c-0.688-1.385-0.884-2.478-1.438-2.708
			c-0.599-0.248-1.933,0.061-2.246,0.563c-1.147,1.834-2.067,3.826-2.852,5.844c-0.067,0.171,2.087,1.545,2.225,1.404
			C401.371,120.658,402.73,118.873,404.13,117.152z"/>
		<path fill-rule="evenodd" clip-rule="evenodd" d="M172.99,14.073c4.794-1.96,4.794-1.96,7.677,7.584
			c0.641-1.858,1.303-3.708,1.912-5.577c0.28-0.859,0.389-1.779,0.734-2.604c0.064-0.154,1.202-0.148,1.298,0.049
			c0.459,0.943,1.302,2.265,0.968,2.929c-1.321,2.626-2.822,5.223-4.651,7.516c-2.149,2.697-4.708,5.065-7.819,7.311
			C177.258,25.418,177.523,19.849,172.99,14.073z"/>
		<path fill-rule="evenodd" clip-rule="evenodd" d="M137.704,199.827c2.045-0.164,4.091-0.329,5.983-0.481
			c-1.513,2.835-5.212,4.7-7.247,3.209c-2.578-1.887-2.517-4.504-1.388-7.372c1.159-2.944,3.133-4.897,6.157-5.287
			c1.308-0.168,2.772,0.878,4.166,1.373c-0.568,1.412-0.753,3.305-1.79,4.126c-1.696,1.344-3.944,1.99-5.96,2.93
			C137.651,198.826,137.678,199.326,137.704,199.827z"/>
		<path fill-rule="evenodd" clip-rule="evenodd" d="M522.035,200.532c2.02,0,4.037,0,6.339,0c-1.241,3.373-3.827,4.125-6.745,3.484
			c-3.116-0.685-2.921-3.357-2.538-5.764c0.605-3.809,3.821-7.18,7.026-7.231c1.11-0.018,3.024,0.531,3.181,1.164
			c0.303,1.233,0.093,3.253-0.743,3.97c-1.799,1.542-4.13,2.466-6.243,3.644C522.22,200.043,522.128,200.288,522.035,200.532z"/>
		<path fill-rule="evenodd" clip-rule="evenodd" d="M463.153,200.911c1.932-0.175,3.861-0.351,6.027-0.547
			c-1.417,3.271-3.838,4.321-6.883,3.261c-3.204-1.115-3.538-4.042-2.169-6.449c1.391-2.442,3.584-4.575,5.847-6.289
			c0.736-0.558,2.796,0.631,4.25,1.021c-0.513,1.51-0.603,3.485-1.635,4.422c-1.624,1.474-3.881,2.248-5.871,3.319
			C462.864,200.07,463.01,200.49,463.153,200.911z"/>
		<path fill-rule="evenodd" clip-rule="evenodd" d="M481.254,112.604c-0.792,2.743-1.932,4.857-1.896,6.952
			c0.07,4.118-0.056,7.105-5.544,5.011c-1.482-0.566-3.371-0.071-5.074-0.064c0.004-1.892-0.446-3.926,0.098-5.647
			c1.577-4.995,3.886-6.215,9.462-5.768C478.997,113.144,479.724,112.867,481.254,112.604z M472.772,123.925
			c1.655-2.67,3.034-4.743,4.222-6.921c0.277-0.509,0.137-1.788-0.214-1.981c-0.642-0.354-2.078-0.498-2.32-0.143
			c-1.406,2.07-2.632,4.277-3.716,6.536C470.605,121.707,471.643,122.563,472.772,123.925z"/>
		<path fill-rule="evenodd" clip-rule="evenodd" d="M364.59,43.5c2.243-0.111,4.486-0.224,6.702-0.334
			c-1.685,2.651-5.167,4.127-7.437,2.912c-2.981-1.597-2.586-4.155-1.642-6.828c1.082-3.062,2.906-5.355,6.322-5.524
			c1.295-0.064,2.636,0.781,3.954,1.212c-0.606,1.499-0.809,3.528-1.914,4.373c-1.68,1.284-3.987,1.746-6.029,2.557
			C364.562,42.411,364.576,42.955,364.59,43.5z"/>
		<path fill-rule="evenodd" clip-rule="evenodd" d="M581.292,307.244c0,0-0.198,0.142-0.415,0.243
			c-1.382,0.646-3.897,1.969-3.986,1.821c-1.515-2.491,1.149-2.171,2.218-3.023c2.505-1.995,2.146-4.999-0.817-9.265
			c1.831,0.271,3.663,0.541,5.494,0.812c-0.003,0.328-0.006,0.656-0.009,0.984c0.691-0.479,1.349-1.28,2.084-1.359
			c1.036-0.112,2.13,0.311,3.199,0.505c-0.686,0.611-1.442,1.161-2.039,1.85c-0.949,1.097-2.546,2.328-2.483,3.426
			c0.074,1.326,1.592,2.572,2.975,4.556c-0.415,0.362-1.456,1.952-2.703,2.135C583.881,310.064,582.687,308.377,581.292,307.244z"/>
		<path fill-rule="evenodd" clip-rule="evenodd" d="M401.501,46.534c-2.02-0.082-3.519-1.615-3.577-4.397
			c-0.09-4.332,3.807-8.507,7.812-8.366c2.78,0.098,4.758,1.181,4.764,4.445C410.508,42.862,407.033,46.461,401.501,46.534z
			 M399.555,41.634c1.668,1.565,2.504,2.352,3.342,3.137c1.616-2.125,3.393-4.157,4.712-6.452c0.262-0.454-1.229-1.917-1.91-2.914
			C403.845,37.284,401.991,39.164,399.555,41.634z"/>
		<path fill-rule="evenodd" clip-rule="evenodd" d="M459.085,117.471c-0.105,4.456-3.905,8.206-8.097,8.034
			c-3.038-0.125-4.569-1.738-4.547-4.708c0.03-4.162,4.444-8.725,8.38-8.412C457.681,112.612,459.18,114.502,459.085,117.471z
			 M457.432,117.435c-1.54-1.526-2.251-2.822-3.237-3.083c-1.969-0.521-4.728,3.063-4.651,6.218
			c0.026,1.047,1.176,2.066,1.813,3.098C453.21,121.765,455.064,119.863,457.432,117.435z"/>
		<path fill-rule="evenodd" clip-rule="evenodd" d="M125.406,193.976c0.104,4.062-3.958,9.013-7.286,9.223
			c-2.446,0.155-5.08-2.352-5.167-4.917c-0.154-4.539,3.542-8.279,8.169-8.46C124.371,189.694,125.085,191.761,125.406,193.976z
			 M121.102,191.04c-0.712,0.167-1.086,0.146-1.169,0.292c-1.414,2.47-2.876,4.921-4.072,7.494
			c-0.156,0.336,1.085,1.906,1.698,1.918c3.183,0.059,3.819-2.622,4.655-4.921c0.323-0.886,0.598-1.956,0.389-2.818
			C122.411,192.209,121.541,191.579,121.102,191.04z"/>
		<path fill-rule="evenodd" clip-rule="evenodd" d="M595.424,184.878c-1.771,6.807-3.304,12.707-5.021,19.311
			c-0.881,0.056-2.61,0.166-4.221,0.269c1.496-4.557,2.903-8.785,4.261-13.029c0.257-0.802,0.706-1.86,0.404-2.474
			C588.329,183.836,592.454,185.737,595.424,184.878z"/>
		<path fill-rule="evenodd" clip-rule="evenodd" d="M499.546,46.427c-1.085,0-2.522,0-4.038,0c1.356-4.317,2.654-8.407,3.918-12.506
			c0.251-0.815,0.637-1.711,0.512-2.499c-0.641-4.022-0.482-4.195,4.299-3.313C502.718,34.042,501.201,39.964,499.546,46.427z"/>
		<path fill-rule="evenodd" clip-rule="evenodd" d="M547.443,107.361c0.851-0.295,1.644-0.632,2.469-0.836
			c0.583-0.144,1.211-0.107,2.626-0.21c-1.622,6.477-3.162,12.624-4.791,19.127c-1.142,0-2.743,0-4.39,0
			C545.619,119.525,549.041,114.269,547.443,107.361z"/>
		<path fill-rule="evenodd" clip-rule="evenodd" d="M443.831,51.333c-6.53-6.539-2.407-19.942,7.365-23.986
			C445.185,34.268,441.501,41.874,443.831,51.333z"/>
		<path fill-rule="evenodd" clip-rule="evenodd" d="M467.777,42.785c4.316-2.232,7.764-4.015,11.66-6.03
			c-3.966-1.885-7.361-3.498-10.946-5.202c2.211-1.674,9.765,0.899,14.972,4.683C481.802,39.251,472.296,43.772,467.777,42.785z"/>
		<path fill-rule="evenodd" clip-rule="evenodd" d="M416.194,45.106c-1.157,0.332-2.565,0.736-3.975,1.139
			c-0.024-1.44-0.339-2.949-0.021-4.309c1.11-4.749,2.438-9.448,3.92-15.06c0.2,0,1.428,0,2.655,0
			c-0.098,1.24-0.012,2.529-0.328,3.709c-0.97,3.601-2.176,7.139-3.096,10.751C415.143,42.149,415.728,43.161,416.194,45.106z"/>
		<path fill-rule="evenodd" clip-rule="evenodd" d="M622.15,185.428c3.396,4.103,4.059,8.559,2.461,13.36
			c-1.488,4.473-3.962,8.156-8.676,10.065C620.813,201.747,624.618,194.481,622.15,185.428z"/>
		<path fill-rule="evenodd" clip-rule="evenodd" d="M523.896,52.24c6.139-7.053,9.191-14.871,7.435-24.358
			c2.599,3.755,3.581,7.808,2.691,12.1C532.834,45.716,528.763,49.3,523.896,52.24z"/>
		<path fill-rule="evenodd" clip-rule="evenodd" d="M580.85,201.714c-4.796-2.141-9.591-4.281-14.387-6.421
			c-0.024-0.504-0.051-1.008-0.076-1.512c4.759-2.128,9.517-4.256,14.274-6.384c0.264,0.427,0.527,0.855,0.79,1.283
			c-2.76,3.047-7.659,2.944-10.624,6.02c3.621,1.802,7.237,3.601,10.853,5.4C581.403,200.638,581.126,201.175,580.85,201.714z"/>
		<path fill-rule="evenodd" clip-rule="evenodd" d="M492.006,130.116c-3.493-3.966-3.762-8.376-2.457-12.831
			c1.475-5.038,4.751-8.76,9.556-11.18C493.529,113.176,489.52,120.575,492.006,130.116z"/>
		<path fill-rule="evenodd" clip-rule="evenodd" d="M512.458,193.221c0.709,1.42,1.417,2.84,2.126,4.26
			c1.746,3.498,0.536,6.592-2.753,6.746c-1.444,0.068-2.911-0.359-4.837-0.626c0.149-1.332,0.286-2.556,0.426-3.812
			c0.675,0.105,0.945,0.075,1.124,0.188c1.115,0.706,2.777,2.312,3.216,2.025c2.103-1.373,0.039-2.54-0.493-3.93
			c-0.688-1.798-1.618-5.015-0.91-5.536c1.694-1.246,4.286-1.272,7.297-1.973c-0.399,2.233-0.599,3.348-0.798,4.463
			c-0.352,0.199-0.703,0.397-1.056,0.597c-0.638-1.011-1.274-2.021-1.911-3.032C513.411,192.801,512.935,193.011,512.458,193.221z"
			/>
		<path fill-rule="evenodd" clip-rule="evenodd" d="M572.472,130.54c6.085-6.779,9.083-14.377,6.938-23.644
			c2.863,2.501,3.278,5.75,3.162,8.946C582.314,123.001,577.669,128.601,572.472,130.54z"/>
		<path fill-rule="evenodd" clip-rule="evenodd" d="M464.102,105.819c0.86-0.103,2.021-0.241,4.015-0.479
			c-1.406,4.896-2.688,9.198-3.854,13.531c-0.293,1.091-0.173,2.289-0.316,3.428c-0.104,0.815-0.073,2.002-0.564,2.33
			c-0.682,0.453-2.051,0.628-2.648,0.222c-0.539-0.366-0.772-1.768-0.559-2.555c1.035-3.813,2.341-7.551,3.388-11.36
			C463.948,109.528,463.889,107.998,464.102,105.819z"/>
		<path fill-rule="evenodd" clip-rule="evenodd" d="M476.008,184.295c0.805,0.042,1.815,0.095,3.406,0.179
			c-1.203,3.808-2.439,7.051-3.206,10.401c-0.444,1.942,0.001,4.073-0.225,6.088c-0.096,0.849-0.725,1.835-1.415,2.357
			c-0.561,0.425-1.934,0.618-2.305,0.255c-0.554-0.539-0.903-1.749-0.709-2.514c0.859-3.373,1.993-6.676,2.929-10.032
			C475.036,189.042,475.403,187.003,476.008,184.295z"/>
		<path fill-rule="evenodd" clip-rule="evenodd" d="M541.41,207.897c-5.922-6.185-1.811-19.708,7.346-22.611
			C543.065,192.276,539.231,199.174,541.41,207.897z"/>
		<path fill-rule="evenodd" clip-rule="evenodd" d="M483.28,202.64c-0.818,0.259-2.204,0.7-3.591,1.141
			c-0.037-1.429-0.383-2.936-0.05-4.272c0.84-3.37,2.078-6.639,2.965-10c0.387-1.465,0.305-3.053,0.462-4.891
			c0.989-0.053,2.166-0.115,3.673-0.194C485.71,190.349,482.324,195.528,483.28,202.64z"/>
		<path fill-rule="evenodd" clip-rule="evenodd" d="M372.884,45.568c0.827-3.672,1.654-7.345,2.638-11.708
			c1.809,0,4.356-0.055,6.896,0.062c0.364,0.017,1.029,0.915,0.964,1.307c-0.127,0.759-0.688,2.078-1.045,2.07
			c-4.197-0.089-4.572,3.329-5.887,6c-0.586,1.191-1.68,2.132-2.543,3.187C373.566,46.18,373.226,45.874,372.884,45.568z"/>
		<path fill-rule="evenodd" clip-rule="evenodd" d="M417.839,113.236c0.239,0.944,1.157,2.142-2.021,2.989
			c-1.959,0.523-3.197,3.768-4.746,5.801c-0.8,1.05-1.57,2.12-2.354,3.181c-0.289-0.231-0.577-0.463-0.865-0.693
			c0.647-3.794,1.223-7.603,2.034-11.361c0.104-0.484,1.465-1.032,2.2-0.978C413.813,112.303,415.512,112.779,417.839,113.236z"/>
		<path fill-rule="evenodd" clip-rule="evenodd" d="M107.284,189.766c1.024-0.821,2.334-1.871,3.972-3.183
			c0.299,2.004,1.635,3.226-0.391,5.457c-1.363,1.5-0.665,4.837-0.985,7.341c-0.094,0.738-0.317,1.7-0.835,2.087
			c-0.683,0.511-1.91,0.981-2.543,0.689c-0.696-0.322-1.43-1.573-1.354-2.341c0.153-1.564,0.929-3.056,1.281-4.616
			C106.789,193.604,106.949,191.963,107.284,189.766z"/>
		<path fill-rule="evenodd" clip-rule="evenodd" d="M132.546,185.996c2.365,5.751-4.893,9.401-0.908,14.775
			c-1.346,0.581-2.669,1.152-3.994,1.725c-0.14-1.534-0.478-3.081-0.374-4.598c0.149-2.182,0.238-4.502,1.064-6.464
			C129.104,189.606,130.803,188.17,132.546,185.996z"/>
		<path fill-rule="evenodd" clip-rule="evenodd" d="M490.119,191.226c0.197,0.009,1.242,0.063,2.811,0.144
			c-0.582,2.107-1.166,3.814-1.499,5.568c-0.236,1.24-0.007,2.566-0.22,3.813c-0.157,0.915-0.499,1.967-1.129,2.573
			c-0.459,0.44-2.037,0.569-2.215,0.281c-0.448-0.728-0.681-1.84-0.479-2.672C488.143,197.815,489.107,194.749,490.119,191.226z"/>
		<path fill-rule="evenodd" clip-rule="evenodd" d="M532.488,119.367c-4.734,0-9.469,0-14.961,0
			c0.709-0.942,1.165-2.112,1.673-2.135c4.518-0.204,9.126-0.944,13.464,0.736C532.605,118.435,532.547,118.901,532.488,119.367z"/>
		<path fill-rule="evenodd" clip-rule="evenodd" d="M532.483,114.799c-4.794,0-9.59,0-14.384,0
			c-0.002-0.369-0.003-0.737-0.004-1.106c4.785,0,9.57,0,14.354,0C532.462,114.062,532.473,114.43,532.483,114.799z"/>
		<path fill-rule="evenodd" clip-rule="evenodd" fill="#FFFFFF" d="M494.528,264.82c-6.743,0-13.201,0.017-19.659-0.003
			c-27.105-0.084-54.209-0.182-81.314-0.267c-16.063-0.05-32.128-0.066-48.191-0.13c-19.302-0.077-38.604-0.272-57.905-0.205
			c-3.401,0.012-4.792-0.842-5.134-4.388c-1.051-10.893-5.42-20.453-12.966-28.372c-7.196-7.551-15.801-12.728-26.203-14.854
			c-6.816-1.393-13.521-2.305-20.337-0.218c-0.981,0.3-2.083,0.207-3.128,0.295c-0.122-0.327-0.243-0.654-0.364-0.98
			c4.229-2.154,8.368-4.511,12.703-6.424c15.109-6.669,30.878-11.235,47.048-14.518c15.44-3.134,31.012-5.018,46.772-5.057
			c4.794-0.013,9.714,1.242,14.362,0.523c13.679-2.116,27.067,0.402,40.461,1.977c9.468,1.114,18.802,3.566,28.103,5.808
			c6.891,1.66,13.73,3.658,20.418,6.005c15.079,5.291,29.437,11.929,42.021,22.141c7.068,5.736,13.358,11.97,17.811,19.903
			C492.214,251.74,494.206,257.835,494.528,264.82z M355.107,222.676c-0.413,2.406-0.592,4.214-1.051,5.949
			c-0.827,3.125-1.968,6.173-2.666,9.323c-0.243,1.098,0.329,3.408,0.706,3.446c2.444,0.251,5.289,0.768,7.335-0.205
			c3.411-1.62,5.501-6.404,4.066-8.719c-1.128-1.82-3.478-2.884-5.284-4.285c-0.327,0.233-0.654,0.465-0.981,0.697
			c0.479-1.872,0.96-3.742,1.548-6.032C357.36,222.783,356.197,222.727,355.107,222.676z M299.114,249.577
			c-7.646-1.697-12.511,1.61-12.51,8.302c0,3.266,1.377,4.292,4.449,3.39c0.883-0.259,1.817-0.394,2.737-0.476
			c1.552-0.136,3.111-0.184,3.774-0.22C298.197,256.085,298.657,252.82,299.114,249.577z"/>
		<path fill-rule="evenodd" clip-rule="evenodd" fill="#FFFFFF" d="M223.645,316.109c2.434,0,4.889-0.212,7.296,0.039
			c7.85,0.817,15.186-1.33,22.199-4.265c11.623-4.862,20.12-13.392,25.033-24.915c2.354-5.521,3.308-11.683,4.504-17.633
			c0.471-2.344,1.193-3.079,3.564-3.051c24.836,0.295,49.673,0.558,74.511,0.685c28.713,0.146,57.427,0.118,86.14,0.229
			c11.095,0.043,22.188,0.288,33.282,0.386c3.471,0.031,6.974,0.149,10.406-0.253c3.766-0.442,4.201,1.165,3.621,4.284
			c-1.468,7.883-4.646,14.949-9.614,21.228c-10.965,13.854-25.323,23.102-41.446,29.582c-10.929,4.392-22.051,8.635-33.458,11.421
			c-12.683,3.099-25.719,5.443-38.725,6.35c-17.254,1.203-34.645,1.246-51.948,0.769c-17.985-0.496-35.745-3.432-53.077-8.471
			c-7.87-2.288-15.78-4.507-23.481-7.285c-6.487-2.34-12.698-5.445-19.031-8.211C223.495,316.701,223.57,316.405,223.645,316.109z
			 M407.115,299.747c0.927,2.963,0.579,6.129,3.973,7.049c3.396,0.921,5.598-1.378,6.671-4.091
			c1.287-3.255,2.255-6.783,2.475-10.248c0.097-1.539-1.872-4.445-3.088-4.549c-1.972-0.167-4.891,0.905-5.981,2.457
			C409.246,293.093,408.406,296.579,407.115,299.747z M373.146,302.726c-2.41-0.305-4.895,2.746-6.291-0.42
			c2.258-1.29,4.551-2.291,6.422-3.812c0.816-0.664,1.335-2.621,0.949-3.568c-0.356-0.877-2.126-1.71-3.228-1.653
			c-3.394,0.175-5.79,2.141-6.99,5.305c-1.059,2.787-1.52,5.73,1.237,7.836C367.368,308.033,370.582,306.548,373.146,302.726z
			 M338.701,303.22c0-0.388,0-0.775,0-1.163c2.081-1.024,4.389-1.767,6.152-3.186c1.004-0.807,1.508-2.738,1.446-4.13
			c-0.025-0.579-2.091-1.482-3.254-1.522c-3.416-0.116-6.628,3.122-7.427,7.2c-0.528,2.696,0.007,5.071,2.839,6.13
			c2.694,1.007,5.152-0.553,6.284-3.71C342.729,302.966,340.715,303.093,338.701,303.22z M295.055,298.431
			c0.895-1.489,2.083-2.644,1.851-3.279c-0.329-0.898-1.631-1.84-2.648-2.02c-4.548-0.801-9.237,4.17-8.884,9.212
			c0.191,2.728,2.685,5.051,4.967,4.175c1.907-0.731,3.509-2.256,6.101-4.005c-3.541-0.558-7.092,3.042-7.919-1.401
			c-0.517-2.772,1.441-5.325,4.64-6.343C293.718,295.846,294.19,296.758,295.055,298.431z M358.139,311.394
			c-1.767-9.112,0.705-16.947,6.875-23.668C356.4,290.672,351.43,303.704,358.139,311.394z M322.492,295.027
			c1.42,0.974,2.491,1.706,3.563,2.439c0.364-0.833,0.728-1.668,1.092-2.502c-1.462-0.553-2.99-1.698-4.375-1.545
			c-3.877,0.43-7.576,4.686-7.006,8.264c0.282,1.768,1.699,4.094,3.219,4.757c2.458,1.074,4.322-0.811,5.57-2.377
			c-2.194-0.781-5.073-0.98-5.51-2.118C317.742,298.554,320.599,296.702,322.492,295.027z M327.252,304.604
			c0.671,0.609,1.371,1.243,2.071,1.878c0.923-1.124,2.286-2.117,2.665-3.401c0.555-1.88,0.173-4.021,0.608-5.955
			c0.647-2.881,1.779-5.653,2.43-8.534c0.155-0.688-0.778-1.622-1.21-2.442c-0.85,0.623-2.215,1.094-2.453,1.897
			c-0.723,2.446-0.894,5.051-1.5,7.54C329.162,298.466,328.225,301.286,327.252,304.604z M418.371,311.049
			c8.965-3.945,12.953-16.432,6.136-23.613C426.611,296.9,424.126,304.416,418.371,311.049z M307.19,293.679
			c-1.031,4.338-1.972,8.295-2.913,12.252c0.412,0.198,0.823,0.397,1.236,0.597c0.823-1.305,1.661-2.599,2.465-3.914
			c1.398-2.289,1.884-5.517,5.75-5.227c0.374,0.029,1.145-1.45,1.199-2.266c0.038-0.571-0.814-1.705-1.296-1.721
			C311.42,293.33,309.201,293.564,307.19,293.679z M300.453,293.407c-0.873,3.714-1.646,6.615-2.196,9.559
			c-0.178,0.954,0.071,2.089,0.472,2.984c0.111,0.246,1.836,0.229,2.193-0.194c0.689-0.82,1.11-1.981,1.318-3.063
			c0.288-1.497,0.16-3.073,0.426-4.576c0.266-1.498,0.798-2.949,1.372-4.981C302.214,293.273,301.063,293.361,300.453,293.407z
			 M399.4,298.423c-5.509,0-10.309,0-15.835,0C386.754,301.164,396.47,301.123,399.4,298.423z M383.501,294.3
			c3.063,2.352,11.749,2.327,15.561,0C393.566,294.3,388.879,294.3,383.501,294.3z"/>
		<path fill-rule="evenodd" clip-rule="evenodd" fill="#FFFFFF" d="M179.714,173.327c0,5.195-0.021,10.391,0.003,15.586
			c0.104,22.348,0.229,44.695,0.326,67.043c0.034,7.753-0.171,7.981-7.879,7.944c-18.594-0.088-37.187-0.231-55.78-0.335
			c-5.798-0.031-11.597-0.005-17.395-0.005c-0.147-0.32-0.294-0.641-0.441-0.961c26.669-29.857,53.339-59.713,80.009-89.569
			C178.943,173.129,179.329,173.228,179.714,173.327z"/>
		<path fill-rule="evenodd" clip-rule="evenodd" fill="#FFFFFF" d="M184.386,263.524c0.781-15.382,7.208-27.564,19.819-36.229
			c16.449-11.304,33.928-12.12,51.033-2.388c14.634,8.326,23.167,21.352,24.008,39.085c-9.407,0-18.475,0.002-27.543-0.001
			c-3.619-0.001-7.239-0.066-10.857-0.001c-2.723,0.05-5.128,0.213-7.022-2.693c-1.524-2.341-5.723-1.513-7.897,0.838
			c-0.74,0.801-1.856,1.768-2.81,1.778c-12.227,0.127-24.456,0.102-36.684,0.086C185.846,263.999,185.259,263.734,184.386,263.524z"
			/>
		<path fill-rule="evenodd" clip-rule="evenodd" fill="#FFFFFF" d="M279.289,266.216c-0.076,10.394-2.98,19.323-8.816,27.041
			c-13.072,17.284-32.69,23.198-53.205,17.395c-7.851-2.222-13.97-7.256-19.752-12.883c-8.099-7.884-12.124-17.445-13.135-28.537
			c-0.244-2.679,0.484-3.43,3.221-3.38c11.597,0.215,23.2,0.137,34.799,0.31c1.122,0.017,2.544,0.753,3.289,1.618
			c2.773,3.225,6.229,3.325,9.288,0.183c0.775-0.798,1.979-1.664,2.993-1.672C251.551,266.18,265.131,266.216,279.289,266.216z
			 M223.149,294.194c1.73,0,3.965,0,5.56,0c0.883-2.97,1.627-5.476,2.372-7.981c1.26,0.525,2.519,1.052,4.179,1.744
			c0.433-1.797,0.846-3.512,1.367-5.674c-1.997,0.803-3.26,1.311-4.522,1.819c-0.267-0.229-0.533-0.457-0.8-0.686
			c0.586-1.37,1.13-3.88,1.766-3.903c2.048-0.075,4.13,0.767,6.62,1.354c0.651-0.962,2.088-2.859-0.811-3.258
			c-3.86-0.529-7.849-0.131-10.654-0.131C226.376,283.565,224.792,288.785,223.149,294.194z"/>
		<path fill-rule="evenodd" clip-rule="evenodd" fill="#FFFFFF" d="M45.042,192.096c-1.113,2.154-2.094,4.394-3.42,6.407
			c-0.382,0.581-1.754,0.51-2.672,0.738c-0.164-0.904-0.719-1.972-0.421-2.683c1.014-2.419,1.914-5.143,5.071-5.457
			C44.081,191.433,44.562,191.765,45.042,192.096z"/>
		<path fill-rule="evenodd" clip-rule="evenodd" fill="#FFFFFF" d="M524.406,32.616c-0.97,3.647-1.614,6.96-2.806,10.063
			c-0.398,1.038-2.194,1.539-3.351,2.286c-0.377-1.229-1.264-2.562-1.036-3.665c0.647-3.132,1.605-6.226,2.757-9.213
			c0.354-0.919,1.726-1.447,2.632-2.154C523.229,30.864,523.854,31.795,524.406,32.616z"/>
		<path fill-rule="evenodd" clip-rule="evenodd" fill="#FFFFFF" d="M572.864,111.808c-1.08,3.596-1.864,6.874-3.114,9.964
			c-0.385,0.95-2.044,1.384-3.119,2.055c-0.366-1.093-1.211-2.284-1.011-3.262c0.666-3.266,1.566-6.505,2.688-9.644
			c0.338-0.94,1.697-1.515,2.588-2.256C571.541,109.694,572.186,110.724,572.864,111.808z"/>
		<path fill-rule="evenodd" clip-rule="evenodd" fill="#FFFFFF" d="M609.663,202.932c-1.915-3.756-0.423-12.535,2.407-15.169
			c1.611-1.5,2.43-0.516,2.905,1.018C616.12,192.467,613.319,200.077,609.663,202.932z"/>
		<path fill-rule="evenodd" clip-rule="evenodd" fill="#FFFFFF" d="M351.153,44.638c-0.826-3.501,0.892-5.802,2.831-7.918
			c0.458-0.501,1.609-0.669,2.336-0.51c0.422,0.093,0.875,1.137,0.897,1.767C357.328,41.228,354.977,43.859,351.153,44.638z"/>
		<path fill-rule="evenodd" clip-rule="evenodd" fill="#FFFFFF" d="M93.771,200.852c1.469-3.128,2.452-5.56,3.762-7.8
			c0.379-0.647,1.685-0.927,2.594-0.995c0.318-0.023,0.962,1.059,1.047,1.692C101.622,197.062,98.781,200.279,93.771,200.852z"/>
		<path fill-rule="evenodd" clip-rule="evenodd" fill="#FFFFFF" d="M391.821,116.813c-2.407,2.536-4.317,4.547-6.229,6.559
			c-0.612-0.582-1.691-1.116-1.756-1.752c-0.292-2.903,2.9-7.227,5.006-6.899C389.581,114.835,390.212,115.646,391.821,116.813z"/>
		<path fill-rule="evenodd" clip-rule="evenodd" fill="#FFFFFF" d="M388.015,44.843c-0.19-0.446-0.799-1.186-0.762-1.891
			c0.184-3.434,2.722-7.07,4.656-6.579c0.78,0.198,1.761,1.604,1.771,2.471C393.713,41.798,390.901,44.968,388.015,44.843z"/>
		<path fill-rule="evenodd" clip-rule="evenodd" fill="#FFFFFF" d="M503.586,193.733c0.896,3.614-0.743,6.208-3.393,8.29
			c-1.464,1.15-2.578,0.683-2.781-1.268C497.078,197.535,499.872,194.298,503.586,193.733z"/>
		<path fill-rule="evenodd" clip-rule="evenodd" fill="#FFFFFF" d="M436.985,123.667c-0.286-0.406-1.228-1.128-1.261-1.891
			c-0.138-3.133,2.503-7.052,4.551-6.723c0.814,0.13,1.922,1.459,2.036,2.352C442.664,120.179,439.974,123.581,436.985,123.667z"/>
		<path fill-rule="evenodd" clip-rule="evenodd" fill="#FFFFFF" d="M427.707,35.848c1.188,3.042-0.205,5.397-2.396,7.393
			c-0.501,0.456-1.806,0.644-2.309,0.307c-0.492-0.328-0.827-1.689-0.542-2.238c1.122-2.159,2.516-4.176,3.809-6.246
			C426.749,35.325,427.228,35.587,427.707,35.848z"/>
		<path fill-rule="evenodd" clip-rule="evenodd" fill="#FFFFFF" d="M427.529,114.356c1.275,3.533-0.719,5.87-3.075,7.88
			c-0.343,0.293-2.612-0.676-2.678-1.218C421.441,118.213,424.267,115.084,427.529,114.356z"/>
		<path fill-rule="evenodd" clip-rule="evenodd" fill="#FFFFFF" d="M404.13,117.152c-1.399,1.72-2.759,3.505-4.311,5.103
			c-0.138,0.141-2.292-1.233-2.225-1.404c0.784-2.018,1.704-4.01,2.852-5.844c0.313-0.502,1.647-0.812,2.246-0.563
			C403.246,114.674,403.442,115.768,404.13,117.152z"/>
		<path fill-rule="evenodd" clip-rule="evenodd" fill="#FFFFFF" d="M472.772,123.925c-1.13-1.362-2.167-2.218-2.028-2.509
			c1.084-2.258,2.31-4.466,3.716-6.536c0.242-0.355,1.679-0.211,2.32,0.143c0.351,0.193,0.491,1.472,0.214,1.981
			C475.807,119.182,474.428,121.255,472.772,123.925z"/>
		<path fill-rule="evenodd" clip-rule="evenodd" fill="#FFFFFF" d="M399.555,41.634c2.437-2.47,4.29-4.35,6.144-6.229
			c0.682,0.998,2.172,2.46,1.91,2.914c-1.319,2.295-3.096,4.328-4.712,6.452C402.059,43.985,401.223,43.199,399.555,41.634z"/>
		<path fill-rule="evenodd" clip-rule="evenodd" fill="#FFFFFF" d="M457.432,117.435c-2.367,2.428-4.222,4.331-6.076,6.233
			c-0.637-1.032-1.786-2.051-1.813-3.098c-0.076-3.155,2.683-6.739,4.651-6.218C455.181,114.612,455.892,115.908,457.432,117.435z"
			/>
		<path fill-rule="evenodd" clip-rule="evenodd" fill="#FFFFFF" d="M121.102,191.04c0.438,0.54,1.309,1.169,1.5,1.964
			c0.208,0.863-0.066,1.933-0.389,2.818c-0.836,2.299-1.472,4.98-4.655,4.921c-0.613-0.012-1.854-1.582-1.698-1.918
			c1.196-2.573,2.659-5.024,4.072-7.494C120.016,191.186,120.39,191.207,121.102,191.04z"/>
		<path fill-rule="evenodd" clip-rule="evenodd" d="M355.107,222.676c1.09,0.051,2.253,0.107,3.673,0.173
			c-0.588,2.29-1.068,4.161-1.548,6.032c0.327-0.232,0.654-0.464,0.981-0.697c1.807,1.401,4.156,2.464,5.284,4.285
			c1.435,2.315-0.655,7.1-4.066,8.719c-2.046,0.973-4.891,0.457-7.335,0.205c-0.377-0.038-0.949-2.348-0.706-3.446
			c0.698-3.15,1.839-6.198,2.666-9.323C354.516,226.89,354.694,225.082,355.107,222.676z M359.965,232.473
			c-4.364-0.925-4.709,2.427-5.391,5.253c-0.196,0.818,0.184,1.775,0.3,2.668c1.063-0.149,2.666,0.085,3.092-0.516
			C359.466,237.763,361.735,235.672,359.965,232.473z"/>
		<path fill-rule="evenodd" clip-rule="evenodd" d="M299.114,249.577c-0.457,3.243-0.917,6.508-1.549,10.996
			c-0.663,0.036-2.223,0.084-3.774,0.22c-0.92,0.082-1.854,0.217-2.737,0.476c-3.072,0.902-4.449-0.124-4.449-3.39
			C286.604,251.188,291.468,247.88,299.114,249.577z M294.847,250.409c-3.73,0.801-4.701,3.48-5.376,6.283
			c-0.158,0.651,0.209,1.911,0.671,2.109c0.604,0.26,1.769-0.007,2.296-0.484C294.646,256.316,296.083,253.958,294.847,250.409z"/>
		<path fill-rule="evenodd" clip-rule="evenodd" d="M407.115,299.747c1.291-3.168,2.131-6.654,4.049-9.382
			c1.091-1.552,4.01-2.624,5.981-2.457c1.216,0.104,3.185,3.01,3.088,4.549c-0.22,3.465-1.188,6.993-2.475,10.248
			c-1.073,2.713-3.274,5.012-6.671,4.091C407.694,305.876,408.042,302.71,407.115,299.747z M416.053,289.137
			c-3.434,2.094-6.598,11.536-4.723,14.547c0.317,0.511,1.893,0.863,2.39,0.535C416.619,302.303,418.091,292.141,416.053,289.137z"
			/>
		<path fill-rule="evenodd" clip-rule="evenodd" d="M373.146,302.726c-2.563,3.822-5.777,5.308-7.9,3.688
			c-2.757-2.105-2.296-5.049-1.237-7.836c1.2-3.164,3.597-5.13,6.99-5.305c1.102-0.057,2.871,0.776,3.228,1.653
			c0.386,0.947-0.133,2.904-0.949,3.568c-1.871,1.521-4.164,2.521-6.422,3.812C368.251,305.472,370.735,302.421,373.146,302.726z"/>
		<path fill-rule="evenodd" clip-rule="evenodd" d="M338.701,303.22c2.014-0.127,4.027-0.254,6.036-0.379
			c-1.127,3.155-3.585,4.715-6.279,3.708c-2.832-1.059-3.367-3.434-2.839-6.13c0.799-4.078,4.011-7.316,7.427-7.2
			c1.163,0.04,3.229,0.943,3.254,1.522c0.062,1.392-0.442,3.323-1.446,4.13c-1.764,1.419-4.071,2.161-6.152,3.186
			C338.701,302.444,338.701,302.832,338.701,303.22z"/>
		<path fill-rule="evenodd" clip-rule="evenodd" d="M295.055,298.431c-0.865-1.673-1.337-2.585-1.894-3.661
			c-3.199,1.018-5.156,3.57-4.64,6.343c0.828,4.443,4.378,0.844,7.919,1.401c-2.591,1.749-4.194,3.273-6.101,4.005
			c-2.283,0.876-4.776-1.447-4.967-4.175c-0.353-5.042,4.336-10.013,8.884-9.212c1.017,0.18,2.319,1.121,2.648,2.02
			C297.137,295.787,295.949,296.941,295.055,298.431z"/>
		<path fill-rule="evenodd" clip-rule="evenodd" d="M358.139,311.394c-6.709-7.689-1.738-20.722,6.875-23.668
			C358.844,294.446,356.372,302.281,358.139,311.394z"/>
		<path fill-rule="evenodd" clip-rule="evenodd" d="M322.492,295.027c-1.894,1.675-4.75,3.526-3.448,6.918
			c0.437,1.138,3.316,1.337,5.51,2.118c-1.248,1.566-3.112,3.451-5.57,2.377c-1.52-0.663-2.937-2.989-3.219-4.757
			c-0.57-3.578,3.129-7.834,7.006-8.264c1.385-0.153,2.912,0.992,4.375,1.545c-0.364,0.834-0.728,1.669-1.092,2.502
			C324.983,296.733,323.913,296.001,322.492,295.027z"/>
		<path fill-rule="evenodd" clip-rule="evenodd" d="M327.252,304.604c0.973-3.318,1.91-6.139,2.611-9.018
			c0.606-2.489,0.777-5.094,1.5-7.54c0.238-0.804,1.604-1.274,2.453-1.897c0.432,0.82,1.365,1.755,1.21,2.442
			c-0.65,2.881-1.782,5.653-2.43,8.534c-0.436,1.935-0.054,4.075-0.608,5.955c-0.379,1.284-1.742,2.277-2.665,3.401
			C328.623,305.848,327.923,305.214,327.252,304.604z"/>
		<path fill-rule="evenodd" clip-rule="evenodd" d="M418.371,311.049c5.755-6.633,8.24-14.148,6.136-23.613
			C431.324,294.617,427.336,307.104,418.371,311.049z"/>
		<path fill-rule="evenodd" clip-rule="evenodd" d="M307.19,293.679c2.01-0.114,4.229-0.349,6.44-0.278
			c0.482,0.016,1.334,1.149,1.296,1.721c-0.054,0.815-0.826,2.295-1.199,2.266c-3.865-0.29-4.351,2.938-5.75,5.227
			c-0.804,1.315-1.642,2.609-2.465,3.914c-0.413-0.199-0.824-0.398-1.236-0.597C305.219,301.974,306.159,298.017,307.19,293.679z"/>
		<path fill-rule="evenodd" clip-rule="evenodd" d="M300.453,293.407c0.61-0.046,1.762-0.134,3.586-0.272
			c-0.574,2.032-1.106,3.483-1.372,4.981c-0.267,1.503-0.138,3.079-0.426,4.576c-0.208,1.082-0.629,2.243-1.318,3.063
			c-0.357,0.424-2.083,0.44-2.193,0.194c-0.401-0.896-0.65-2.03-0.472-2.984C298.806,300.022,299.58,297.121,300.453,293.407z"/>
		<path fill-rule="evenodd" clip-rule="evenodd" d="M399.4,298.423c-2.931,2.7-12.646,2.741-15.835,0
			C389.092,298.423,393.892,298.423,399.4,298.423z"/>
		<path fill-rule="evenodd" clip-rule="evenodd" d="M383.501,294.3c5.378,0,10.065,0,15.561,0
			C395.25,296.627,386.564,296.651,383.501,294.3z"/>
		<path fill-rule="evenodd" clip-rule="evenodd" d="M223.149,294.194c1.643-5.409,3.228-10.629,5.076-16.716
			c2.805,0,6.793-0.398,10.654,0.131c2.899,0.398,1.462,2.296,0.811,3.258c-2.49-0.587-4.572-1.429-6.62-1.354
			c-0.636,0.023-1.18,2.533-1.766,3.903c0.267,0.229,0.533,0.457,0.8,0.686c1.262-0.509,2.525-1.017,4.522-1.819
			c-0.521,2.162-0.934,3.877-1.367,5.674c-1.66-0.692-2.919-1.219-4.179-1.744c-0.745,2.506-1.489,5.012-2.372,7.981
			C227.114,294.194,224.879,294.194,223.149,294.194z"/>
		<path fill-rule="evenodd" clip-rule="evenodd" fill="#FFFFFF" d="M359.965,232.473c1.771,3.199-0.499,5.29-1.999,7.405
			c-0.426,0.601-2.028,0.367-3.092,0.516c-0.116-0.893-0.496-1.85-0.3-2.668C355.256,234.9,355.601,231.548,359.965,232.473z"/>
		<path fill-rule="evenodd" clip-rule="evenodd" fill="#FFFFFF" d="M294.847,250.409c1.237,3.549-0.201,5.907-2.409,7.908
			c-0.527,0.478-1.692,0.744-2.296,0.484c-0.461-0.198-0.829-1.458-0.671-2.109C290.146,253.89,291.117,251.21,294.847,250.409z"/>
		<path fill-rule="evenodd" clip-rule="evenodd" fill="#FFFFFF" d="M416.053,289.137c2.038,3.004,0.566,13.166-2.333,15.082
			c-0.497,0.328-2.072-0.024-2.39-0.535C409.455,300.673,412.619,291.23,416.053,289.137z"/>
	</g>
</g>
</svg>
