<?xml version="1.0" encoding="utf-8"?>
<!-- Generator: Adobe Illustrator 16.0.0, SVG Export Plug-In . SVG Version: 6.00 Build 0)  -->
<!DOCTYPE svg PUBLIC "-//W3C//DTD SVG 1.1//EN" "http://www.w3.org/Graphics/SVG/1.1/DTD/svg11.dtd">
<svg version="1.1" id="Layer_1" xmlns="http://www.w3.org/2000/svg" xmlns:xlink="http://www.w3.org/1999/xlink" x="0px" y="0px"
	 width="903.876px" height="303.792px" viewBox="0 0 903.876 303.792" enable-background="new 0 0 903.876 303.792"
	 xml:space="preserve">
<g>
	<g>
		<path fill-rule="evenodd" clip-rule="evenodd" fill="#FFFFFF" d="M0.75,304.543c0-101.265,0-202.529,0-303.793
			c301.292,0,602.584,0,903.876,0c0,101.264,0,202.528,0,303.793C603.334,304.543,302.042,304.543,0.75,304.543z M480.947,151.086
			c-0.107,0-0.216,0-0.324,0c0,23.491,0.002,46.982-0.001,70.474c-0.001,5.553,0.162,5.722,5.665,5.722
			c37.251,0.003,74.503-0.146,111.752,0.056c29.034,0.159,58.063,0.88,87.098,1.121c28.243,0.235,56.489,0.239,84.733,0.133
			c2.184-0.008,4.873-1.154,6.454-2.678c8.865-8.542,17.494-17.33,26.14-26.098c4.968-5.039,9.529-10.515,14.795-15.211
			c5.328-4.751,6.729-10.248,6.313-17.113c-0.557-9.198-0.31-18.451-0.275-27.68c0.057-14.907,0.246-29.814,0.33-44.722
			c0.044-7.714-0.052-15.428-0.029-23.141c0.037-13.476,0.125-26.951,0.171-40.426c0.008-2.232-0.604-3.8-3.39-3.801
			c-12.996-0.004-25.994-0.082-38.989-0.224c-11.377-0.125-22.753-0.344-34.128-0.583c-3.563-0.075-7.121-0.493-10.682-0.513
			c-16.743-0.098-33.488-0.034-50.23-0.173c-28.895-0.239-57.788-0.596-86.683-0.885c-19.36-0.194-38.754,0.254-58.063-0.821
			c-8.155-0.453-12.32,4.424-17.109,8.578c-5.902,5.122-10.775,11.409-16.354,16.93c-8.073,7.99-16.465,15.66-24.509,23.68
			c-1.425,1.421-2.333,3.819-2.57,5.871c-0.411,3.569-0.114,7.22-0.114,10.836C480.947,110.641,480.947,130.863,480.947,151.086z
			 M134.681,225.573c0,0.069,0,0.139,0,0.208c23.747,0,47.494,0.033,71.24-0.07c1.678-0.008,3.794-0.558,4.95-1.653
			c5.384-5.102,10.483-10.503,15.719-15.763c10.132-10.18,20.351-20.275,30.381-30.555c2.087-2.139,3.264-4.824,3.176-8.209
			c-0.246-9.447-0.046-18.908-0.026-28.364c0.054-25.076,0.115-50.154,0.155-75.231c0.02-12.24,0.054-24.48-0.069-36.719
			c-0.016-1.526-0.541-3.866-1.564-4.387c-1.978-1.007-4.478-1.333-6.764-1.34c-46.369-0.131-92.74-0.192-139.109-0.171
			c-1.445,0-3.103,0.731-4.287,1.621c-1.912,1.435-3.534,3.263-5.241,4.964c-6.618,6.595-13.12,13.309-19.858,19.779
			C77.239,55.584,70.58,60.972,64.681,67.1c-2.636,2.738-6.446,4.733-6.464,9.884c-0.068,19.136-0.863,38.27-1.027,57.407
			c-0.238,27.817-0.18,55.636-0.216,83.456c-0.009,7.18,0.34,7.663,7.638,7.692C87.967,225.631,111.325,225.573,134.681,225.573z
			 M831.071,203.162c0.743-2.682,1.667-5.021,1.915-7.433c0.091-0.872-1.434-1.911-2.222-2.873c-0.87,1.009-2.155,1.892-2.511,3.058
			c-0.525,1.726-0.094,3.737-0.591,5.478c-1.497,5.24-3.474,10.355-4.713,15.648c-0.264,1.132,1.722,3.972,2.798,4.04
			c6.084,0.39,9.058,2.186,12.991-5.872c0.265-0.541,0.828-0.974,0.973-1.529c0.548-2.117,1.8-4.513,1.246-6.335
			c-0.667-2.196-2.413-4.557-5.635-4.205C834.006,203.282,832.658,203.162,831.071,203.162z M301.076,86.466
			c-4.354,0-8.916-1.37-11.509,0.307c-4.348,2.812-7.663,7.455-7.497,13.397c0.132,4.763,3.435,6.625,7.803,4.578
			c0.869-0.407,2.056-0.168,3.096-0.168c1.432-0.001,3.024,0.436,4.232-0.07c0.647-0.271,1.214-2.409,0.817-3.209
			c-1.62-3.27-0.044-5.975,0.997-8.832C299.704,90.58,300.324,88.667,301.076,86.466z M608.497,271.313
			c0.778,0.731,1.413,1.825,2.04,1.82c1.454-0.014,2.979-0.387,4.321-0.969c0.531-0.23,1.087-1.907,0.896-2.073
			c-3.01-2.601-0.669-5.219-0.087-7.766c0.483-2.117,1.245-4.172,1.978-6.558c-3.381-0.217-6.479-1.022-9.31-0.467
			c-5.549,1.088-7.385,5.95-9.007,10.649c-0.895,2.591-0.921,5.118,1.589,7.042c2.329,1.784,4.129,0.304,6.01-0.856
			C607.348,271.879,607.804,271.675,608.497,271.313z M268.642,217.954c-0.004-0.061-0.008-0.12-0.012-0.18
			c1.9,0.086,3.826,0.36,5.683,0.115c0.424-0.056,1.19-2.278,0.811-2.866c-1.869-2.892,0.171-5.185,0.769-7.704
			c0.524-2.21,0.956-4.442,1.436-6.706c-10.487-1.186-13.815,0.508-17.304,8.429c-1.386,3.146-1.761,6.91,0.773,8.912
			C262.408,219.227,265.96,218.038,268.642,217.954z M136.413,255.824c-2.178,0-3.301-0.144-4.375,0.027
			c-2.826,0.451-6.171-1.814-8.406,1.938c-1.517,2.547-4.288,4.527-5.198,7.203c-0.8,2.354-0.662,5.9,0.647,7.863
			c1.41,2.114,4.483,1.591,6.732-0.397c0.337-0.298,1.515,0.52,2.312,0.541c1.585,0.045,3.31,0.236,4.706-0.316
			c0.697-0.276,1.08-2.054,1.104-3.162c0.039-1.836-0.775-3.772-0.419-5.5C134.063,261.372,135.297,258.863,136.413,255.824z
			 M862.31,92.384c1.537,1.655,2.507,2.699,3.477,3.744c0.805-0.849,2.313-1.747,2.257-2.533c-0.098-1.35-0.888-3.373-1.904-3.762
			c-1.552-0.595-3.598-0.292-5.34,0.075c-4.906,1.035-6.849,4.777-8.221,9.171c-1.159,3.713-0.5,7.959,1.818,8.885
			c4.535,1.813,9.551,0.013,11.695-4.816c-1.893,0.751-3.207,1.519-4.612,1.765c-1.549,0.271-3.182,0.062-4.685,0.062
			C854.922,98.25,857.81,92.59,862.31,92.384z"/>
		<path fill-rule="evenodd" clip-rule="evenodd" d="M480.947,151.086c0-20.223,0-40.445,0-60.668c0-3.616-0.297-7.267,0.114-10.836
			c0.237-2.052,1.146-4.45,2.57-5.871c8.044-8.02,16.436-15.689,24.509-23.68c5.578-5.521,10.451-11.809,16.354-16.93
			c4.789-4.154,8.954-9.031,17.109-8.578c19.31,1.075,38.703,0.626,58.063,0.821c28.895,0.289,57.788,0.646,86.683,0.885
			c16.742,0.14,33.487,0.076,50.23,0.173c3.561,0.021,7.119,0.438,10.682,0.513c11.375,0.239,22.751,0.457,34.128,0.583
			c12.995,0.143,25.993,0.22,38.989,0.224c2.785,0,3.397,1.568,3.39,3.801c-0.046,13.476-0.134,26.951-0.171,40.426
			c-0.022,7.713,0.073,15.427,0.029,23.141c-0.084,14.907-0.273,29.814-0.33,44.722c-0.034,9.229-0.281,18.481,0.275,27.68
			c0.416,6.865-0.985,12.362-6.313,17.113c-5.266,4.696-9.827,10.172-14.795,15.211c-8.646,8.768-17.274,17.556-26.14,26.098
			c-1.581,1.523-4.271,2.67-6.454,2.678c-28.244,0.106-56.49,0.103-84.733-0.133c-29.034-0.241-58.063-0.962-87.098-1.121
			c-37.249-0.202-74.501-0.053-111.752-0.056c-5.503,0-5.666-0.169-5.665-5.722c0.003-23.491,0.001-46.982,0.001-70.474
			C480.731,151.086,480.84,151.086,480.947,151.086z M770.811,108.735c0.059,0,0.117,0,0.177,0c0-8.723-0.112-17.449,0.062-26.168
			c0.06-3.012-0.955-3.813-3.885-3.801c-20.62,0.096-41.24,0.034-61.862,0.008c-53.115-0.065-106.23-0.103-159.346-0.251
			c-6.706-0.019-13.408-0.854-20.115-0.918c-5.819-0.056-11.646,0.681-17.466,0.64c-6.215-0.044-12.442-0.404-18.632-0.983
			c-3.696-0.346-4.701,0.914-4.681,4.512c0.128,22.851,0.105,45.703,0.038,68.554c-0.067,23.081-0.223,46.162-0.404,69.241
			c-0.019,2.369,0.686,3.27,3.201,3.26c20.123-0.073,40.246-0.051,60.369,0.002c18.246,0.048,36.493,0.138,54.738,0.288
			c3.6,0.029,7.198,0.63,10.794,0.593c6.871-0.07,13.743-0.651,20.609-0.577c9.028,0.099,18.051,0.843,27.078,0.926
			c20.597,0.188,41.195,0.114,61.793,0.204c14.439,0.063,28.88,0.128,43.316,0.408c3.11,0.061,3.948-1.257,3.975-3.907
			c0.124-12.523,0.335-25.047,0.378-37.57c0.041-12.222-0.106-24.442-0.132-36.664C770.79,133.933,770.811,121.334,770.811,108.735z
			 M817.68,31.928c-0.19-0.318-0.38-0.637-0.57-0.955c-0.587-0.072-1.174-0.204-1.762-0.206c-26.373-0.053-52.746-0.083-79.12-0.142
			c-16.505-0.037-33.012-0.038-49.517-0.211c-7.169-0.075-14.332-0.71-21.501-0.796c-15.116-0.182-30.233-0.194-45.351-0.229
			c-27.748-0.063-55.496-0.113-83.244-0.075c-1.32,0.002-2.904,0.594-3.908,1.448c-2.957,2.513-5.758,5.224-8.485,7.991
			c-5.32,5.398-10.397,11.045-15.857,16.296c-5.852,5.627-12.052,10.891-18.026,16.394c-0.568,0.523-0.612,1.617-1.043,2.86
			c18.661,0,36.771,0.058,54.88-0.022c9.949-0.044,19.904-0.604,29.847-0.412c10.185,0.198,20.353,1.128,30.536,1.548
			c5.774,0.239,11.563,0.092,17.345,0.13c5.748,0.038,11.496,0.124,17.245,0.128c43.621,0.037,87.242,0.047,130.862,0.118
			c2.197,0.004,3.886-0.109,5.288-2.306c1.555-2.437,3.684-4.558,5.784-6.585c7.402-7.145,14.911-14.179,22.357-21.278
			C808.206,41.081,812.934,36.495,817.68,31.928z M774.627,220.974c0.287,0.179,0.574,0.356,0.862,0.534
			c2.471-2.608,4.883-5.276,7.425-7.813c5.069-5.059,10.288-9.969,15.303-15.081c6.526-6.653,12.948-13.41,19.319-20.212
			c0.855-0.915,1.596-2.345,1.63-3.558c0.217-7.976,0.293-15.957,0.287-23.937c-0.011-12.815-0.177-25.63-0.176-38.445
			c0.002-16.382,0.09-32.765,0.168-49.146c0.038-7.991,0.157-15.981,0.19-23.973c0.005-1.195-0.26-2.392-0.449-4.011
			c-1.243,0.915-2.222,1.424-2.923,2.188c-3.266,3.558-6.272,7.373-9.709,10.751c-8.464,8.318-17.172,16.387-25.657,24.685
			c-3.181,3.109-6.757,5.978-6.42,11.357c0.478,7.65,0.586,15.332,0.628,23.001c0.07,12.829,0.006,25.661-0.08,38.491
			c-0.08,12.077-0.318,24.152-0.383,36.228C774.574,195.014,774.627,207.994,774.627,220.974z"/>
		<path fill-rule="evenodd" clip-rule="evenodd" d="M134.681,225.573c-23.356,0-46.714,0.058-70.07-0.034
			c-7.298-0.029-7.647-0.513-7.638-7.692c0.036-27.819-0.021-55.639,0.216-83.456c0.164-19.137,0.959-38.271,1.027-57.407
			c0.019-5.15,3.828-7.146,6.464-9.884c5.899-6.128,12.558-11.516,18.704-17.417c6.738-6.47,13.24-13.184,19.858-19.779
			c1.707-1.701,3.329-3.529,5.241-4.964c1.185-0.89,2.842-1.621,4.287-1.621c46.37-0.021,92.74,0.04,139.109,0.171
			c2.286,0.006,4.786,0.333,6.764,1.34c1.023,0.521,1.548,2.861,1.564,4.387c0.123,12.239,0.088,24.479,0.069,36.719
			c-0.041,25.077-0.101,50.155-0.155,75.231c-0.02,9.456-0.219,18.917,0.026,28.364c0.088,3.385-1.089,6.07-3.176,8.209
			c-10.03,10.279-20.249,20.375-30.381,30.555c-5.235,5.26-10.334,10.661-15.719,15.763c-1.156,1.096-3.272,1.646-4.95,1.653
			c-23.747,0.104-47.494,0.07-71.24,0.07C134.682,225.712,134.681,225.643,134.681,225.573z M61.516,221.249
			c2.565,0,4.672,0,6.778,0c43.353,0.011,86.705,0.02,130.057,0.034c8.47,0.002,8.455,0.012,8.42-8.239
			c-0.056-13.292-0.131-26.584-0.121-39.876c0.014-17.709,0.107-35.417,0.155-53.125c0.036-13.351,0.012-26.703,0.109-40.053
			c0.022-3.045-1.189-4.241-4.241-4.16c-5.238,0.14-10.483,0.023-15.726,0.02c-40.729-0.03-81.458-0.061-122.188-0.078
			c-0.96,0-1.921,0.147-3.245,0.255C61.516,124.405,61.516,172.565,61.516,221.249z M210.543,219.058
			c5.124-5.263,9.838-10.03,14.468-14.88c5.383-5.637,10.613-11.421,16.063-16.992c2.973-3.039,6.451-5.589,9.355-8.686
			c2.917-3.108,6.902-5.958,4.784-11.351c-0.432-1.1-0.366-2.444-0.329-3.671c0.225-7.296,0.685-14.589,0.724-21.885
			c0.04-7.462-0.473-14.926-0.457-22.389c0.025-11.656,0.324-23.311,0.443-34.966c0.08-7.888,0.057-15.777,0.065-23.666
			c0.01-9.403,0.002-18.807,0.002-28.261c-0.216,0-0.733-0.159-0.926,0.023c-4.376,4.152-8.786,8.274-13.05,12.54
			c-9.079,9.083-17.867,18.47-27.232,27.243c-3.047,2.854-3.551,5.764-3.57,9.33c-0.025,4.657-0.153,9.313-0.14,13.97
			c0.01,3.336,0.188,6.671,0.272,10.007c0.085,3.376,0.288,6.757,0.182,10.128c-0.114,3.668-0.714,7.324-0.768,10.99
			c-0.132,8.849-0.08,17.701-0.082,26.551c-0.001,5.592-0.004,11.183,0.07,16.773c0.033,2.44,0.357,4.878,0.37,7.318
			c0.015,3.067-0.196,6.136-0.233,9.204c-0.045,3.731-0.01,7.463-0.01,11.194C210.543,204.426,210.543,211.267,210.543,219.058z
			 M254.807,28.028c-2.2-0.138-3.283-0.264-4.365-0.265c-44.346-0.073-88.694,0.021-133.037-0.383
			c-5.828-0.053-9.268,2.713-12.812,6.076c-5.786,5.49-11.371,11.193-17.013,16.833c-2.123,2.122-4.054,4.446-6.275,6.455
			c-5.087,4.602-10.298,9.068-15.459,13.59c0.125,0.34,0.251,0.68,0.377,1.02c3.775,0,7.55-0.011,11.326,0.001
			c20.052,0.066,40.104,0.068,60.154,0.252c5.413,0.05,10.819,0.905,16.232,0.958c16.816,0.164,33.634,0.07,50.451,0.201
			c2.911,0.023,5.236-0.626,7.255-2.827c2.686-2.928,5.588-5.657,8.41-8.458c5.856-5.812,11.66-11.679,17.598-17.405
			C243.032,38.885,248.566,33.852,254.807,28.028z"/>
		<path fill-rule="evenodd" clip-rule="evenodd" d="M831.071,203.162c1.587,0,2.935,0.12,4.252-0.023
			c3.222-0.352,4.968,2.009,5.635,4.205c0.554,1.822-0.698,4.218-1.246,6.335c-0.145,0.556-0.708,0.988-0.973,1.529
			c-3.934,8.058-6.907,6.262-12.991,5.872c-1.076-0.068-3.062-2.908-2.798-4.04c1.239-5.293,3.216-10.408,4.713-15.648
			c0.497-1.74,0.065-3.752,0.591-5.478c0.355-1.166,1.641-2.049,2.511-3.058c0.788,0.962,2.313,2.001,2.222,2.873
			C832.738,198.141,831.814,200.48,831.071,203.162z M837.722,210.415c-0.952-3.808-3.379-5.106-6.146-3.359
			c-3.776,2.385-3.835,6.638-4.66,10.298c-0.478,2.116,2.849,3.58,4.58,1.79C833.953,216.603,835.682,213.358,837.722,210.415z"/>
		<path fill-rule="evenodd" clip-rule="evenodd" d="M301.076,86.466c-0.752,2.201-1.373,4.114-2.061,6.002
			c-1.041,2.857-2.617,5.563-0.997,8.832c0.397,0.8-0.17,2.938-0.817,3.209c-1.208,0.506-2.8,0.069-4.232,0.07
			c-1.04,0-2.227-0.239-3.096,0.168c-4.369,2.048-7.671,0.186-7.803-4.578c-0.166-5.942,3.149-10.585,7.497-13.397
			C292.16,85.097,296.722,86.466,301.076,86.466z M294.414,89.367c-4.706-0.345-9.546,4.81-8.338,9.258
			c0.356,1.311,1.05,4.988,3.177,2.957C292.476,98.505,296.671,95.078,294.414,89.367z"/>
		<path fill-rule="evenodd" clip-rule="evenodd" d="M608.497,271.313c-0.693,0.361-1.149,0.565-1.569,0.823
			c-1.881,1.16-3.681,2.641-6.01,0.856c-2.51-1.924-2.483-4.451-1.589-7.042c1.622-4.699,3.458-9.562,9.007-10.649
			c2.831-0.556,5.929,0.25,9.31,0.467c-0.732,2.386-1.494,4.44-1.978,6.558c-0.582,2.547-2.923,5.165,0.087,7.766
			c0.19,0.166-0.365,1.843-0.896,2.073c-1.343,0.582-2.867,0.955-4.321,0.969C609.91,273.139,609.275,272.045,608.497,271.313z
			 M603.689,269.045c4.896,0.436,9.713-5.488,7.893-9.923c-0.329-0.804-2.4-1.811-2.785-1.526
			C605.588,259.961,601.933,263.949,603.689,269.045z"/>
		<path fill-rule="evenodd" clip-rule="evenodd" d="M268.642,217.954c-2.681,0.084-6.234,1.272-7.843,0
			c-2.535-2.002-2.16-5.766-0.773-8.912c3.489-7.921,6.817-9.614,17.304-8.429c-0.48,2.264-0.912,4.496-1.436,6.706
			c-0.598,2.52-2.638,4.813-0.769,7.704c0.379,0.588-0.387,2.811-0.811,2.866c-1.857,0.245-3.783-0.029-5.683-0.115
			C268.633,217.834,268.637,217.894,268.642,217.954z M271.734,202.008c-4.355,0.115-9.889,7.647-8.312,11.248
			c0.29,0.66,2.017,1.289,2.792,1.039C270.716,212.843,272.878,207.947,271.734,202.008z"/>
		<path fill-rule="evenodd" clip-rule="evenodd" d="M136.413,255.824c-1.115,3.039-2.35,5.548-2.897,8.197
			c-0.356,1.728,0.458,3.664,0.419,5.5c-0.023,1.108-0.406,2.886-1.104,3.162c-1.396,0.553-3.121,0.361-4.706,0.316
			c-0.796-0.021-1.974-0.839-2.312-0.541c-2.25,1.988-5.323,2.512-6.732,0.397c-1.309-1.963-1.448-5.509-0.647-7.863
			c0.91-2.676,3.681-4.656,5.198-7.203c2.235-3.753,5.58-1.487,8.406-1.938C133.111,255.681,134.235,255.824,136.413,255.824z
			 M122.773,270.789c4.006-1.611,6.963-3.903,7.618-8.187c0.167-1.092,0.201-2.536-0.381-3.309c-0.472-0.626-2.013-0.8-2.986-0.633
			C123.11,259.338,120.201,267.498,122.773,270.789z"/>
		<path fill-rule="evenodd" clip-rule="evenodd" d="M862.31,92.384c-4.5,0.207-7.388,5.867-5.515,12.591
			c1.503,0,3.136,0.209,4.685-0.062c1.405-0.246,2.72-1.013,4.612-1.765c-2.145,4.829-7.16,6.629-11.695,4.816
			c-2.318-0.926-2.978-5.172-1.818-8.885c1.372-4.395,3.314-8.137,8.221-9.171c1.742-0.367,3.788-0.67,5.34-0.075
			c1.017,0.39,1.807,2.413,1.904,3.762c0.057,0.786-1.452,1.685-2.257,2.533C864.816,95.083,863.847,94.039,862.31,92.384z"/>
		<path fill-rule="evenodd" clip-rule="evenodd" fill="#FFFFFF" d="M770.811,108.735c0,12.599-0.021,25.197,0.006,37.796
			c0.025,12.222,0.173,24.442,0.132,36.664c-0.043,12.523-0.254,25.047-0.378,37.57c-0.026,2.65-0.864,3.968-3.975,3.907
			c-14.437-0.28-28.877-0.346-43.316-0.408c-20.598-0.09-41.196-0.016-61.793-0.204c-9.027-0.083-18.05-0.827-27.078-0.926
			c-6.866-0.074-13.738,0.507-20.609,0.577c-3.596,0.037-7.194-0.563-10.794-0.593c-18.245-0.15-36.492-0.24-54.738-0.288
			c-20.123-0.053-40.246-0.075-60.369-0.002c-2.516,0.01-3.22-0.891-3.201-3.26c0.182-23.079,0.337-46.16,0.404-69.241
			c0.067-22.851,0.09-45.704-0.038-68.554c-0.021-3.599,0.984-4.858,4.681-4.512c6.189,0.579,12.417,0.939,18.632,0.983
			c5.82,0.041,11.646-0.696,17.466-0.64c6.707,0.064,13.409,0.899,20.115,0.918c53.115,0.149,106.23,0.187,159.346,0.251
			c20.622,0.026,41.242,0.087,61.862-0.008c2.93-0.013,3.944,0.789,3.885,3.801c-0.174,8.719-0.062,17.445-0.062,26.168
			C770.928,108.735,770.869,108.735,770.811,108.735z M639.113,222.2c0.319,0.258,0.638,0.516,0.957,0.773
			c1.138-1.323,2.372-2.578,3.353-4.009c0.28-0.411-0.176-1.327-0.295-2.01c-0.605,0.246-1.488,0.323-1.765,0.773
			C640.49,219.145,639.846,220.699,639.113,222.2z"/>
		<path fill-rule="evenodd" clip-rule="evenodd" fill="#FFFFFF" d="M817.68,31.928c-4.746,4.567-9.474,9.153-14.24,13.698
			c-7.446,7.1-14.955,14.133-22.357,21.278c-2.101,2.027-4.229,4.149-5.784,6.585c-1.402,2.197-3.091,2.31-5.288,2.306
			c-43.62-0.07-87.241-0.081-130.862-0.118c-5.749-0.004-11.497-0.091-17.245-0.128c-5.781-0.038-11.57,0.108-17.345-0.13
			c-10.184-0.42-20.352-1.351-30.536-1.548c-9.942-0.193-19.897,0.368-29.847,0.412c-18.109,0.081-36.219,0.022-54.88,0.022
			c0.431-1.243,0.475-2.336,1.043-2.86c5.975-5.502,12.175-10.767,18.026-16.394c5.46-5.251,10.537-10.898,15.857-16.296
			c2.728-2.767,5.528-5.478,8.485-7.991c1.004-0.854,2.588-1.445,3.908-1.448c27.748-0.038,55.496,0.011,83.244,0.075
			c15.117,0.035,30.234,0.047,45.351,0.229c7.169,0.086,14.332,0.722,21.501,0.796c16.505,0.173,33.012,0.174,49.517,0.211
			c26.374,0.059,52.747,0.089,79.12,0.142c0.588,0.001,1.175,0.134,1.762,0.206C817.3,31.291,817.489,31.609,817.68,31.928z"/>
		<path fill-rule="evenodd" clip-rule="evenodd" fill="#FFFFFF" d="M774.627,220.974c0-12.979-0.053-25.96,0.016-38.939
			c0.064-12.076,0.303-24.151,0.383-36.228c0.086-12.831,0.15-25.662,0.08-38.491c-0.042-7.669-0.15-15.351-0.628-23.001
			c-0.337-5.379,3.239-8.248,6.42-11.357c8.485-8.297,17.193-16.366,25.657-24.685c3.437-3.378,6.443-7.193,9.709-10.751
			c0.701-0.764,1.68-1.273,2.923-2.188c0.189,1.62,0.454,2.816,0.449,4.011c-0.033,7.991-0.152,15.981-0.19,23.973
			c-0.078,16.381-0.166,32.764-0.168,49.146c-0.001,12.814,0.165,25.629,0.176,38.445c0.006,7.979-0.07,15.961-0.287,23.937
			c-0.034,1.213-0.774,2.643-1.63,3.558c-6.371,6.802-12.793,13.559-19.319,20.212c-5.015,5.112-10.233,10.022-15.303,15.081
			c-2.542,2.537-4.954,5.205-7.425,7.813C775.201,221.33,774.914,221.152,774.627,220.974z"/>
		<path fill-rule="evenodd" clip-rule="evenodd" fill="#FFFFFF" d="M61.516,221.249c0-48.684,0-96.844,0-145.223
			c1.324-0.108,2.284-0.255,3.245-0.255c40.729,0.018,81.458,0.048,122.188,0.078c5.243,0.004,10.487,0.12,15.726-0.02
			c3.051-0.082,4.263,1.115,4.241,4.16c-0.097,13.351-0.073,26.702-0.109,40.053c-0.048,17.708-0.141,35.417-0.155,53.125
			c-0.01,13.292,0.065,26.584,0.121,39.876c0.034,8.251,0.05,8.241-8.42,8.239c-43.353-0.015-86.705-0.023-130.057-0.034
			C66.188,221.249,64.082,221.249,61.516,221.249z"/>
		<path fill-rule="evenodd" clip-rule="evenodd" fill="#FFFFFF" d="M210.543,219.058c0-7.791,0-14.632,0-21.474
			c0-3.731-0.035-7.463,0.01-11.194c0.037-3.068,0.248-6.137,0.233-9.204c-0.012-2.44-0.337-4.878-0.37-7.318
			c-0.074-5.591-0.071-11.182-0.07-16.773c0.002-8.85-0.05-17.702,0.082-26.551c0.054-3.667,0.654-7.322,0.768-10.99
			c0.105-3.371-0.097-6.752-0.182-10.128c-0.084-3.336-0.262-6.671-0.272-10.007c-0.013-4.657,0.115-9.313,0.14-13.97
			c0.019-3.565,0.523-6.476,3.57-9.33c9.366-8.773,18.153-18.161,27.232-27.243c4.265-4.266,8.674-8.388,13.05-12.54
			c0.193-0.183,0.71-0.023,0.926-0.023c0,9.455,0.007,18.858-0.002,28.261c-0.008,7.889,0.015,15.778-0.065,23.666
			c-0.119,11.656-0.418,23.31-0.443,34.966c-0.016,7.463,0.497,14.926,0.457,22.389c-0.039,7.296-0.499,14.589-0.724,21.885
			c-0.037,1.227-0.103,2.571,0.329,3.671c2.118,5.393-1.867,8.242-4.784,11.351c-2.904,3.097-6.382,5.646-9.355,8.686
			c-5.45,5.571-10.68,11.355-16.063,16.992C220.381,209.027,215.667,213.795,210.543,219.058z"/>
		<path fill-rule="evenodd" clip-rule="evenodd" fill="#FFFFFF" d="M254.807,28.028c-6.241,5.824-11.775,10.857-17.158,16.047
			c-5.938,5.726-11.742,11.593-17.598,17.405c-2.822,2.802-5.725,5.531-8.41,8.458c-2.019,2.201-4.344,2.85-7.255,2.827
			c-16.816-0.131-33.634-0.037-50.451-0.201c-5.413-0.053-10.819-0.908-16.232-0.958c-20.051-0.184-40.103-0.186-60.154-0.252
			c-3.775-0.013-7.55-0.001-11.326-0.001c-0.125-0.34-0.251-0.68-0.377-1.02c5.161-4.522,10.372-8.988,15.459-13.59
			c2.221-2.009,4.152-4.333,6.275-6.455c5.643-5.641,11.227-11.343,17.013-16.833c3.544-3.363,6.983-6.128,12.812-6.076
			c44.343,0.404,88.691,0.311,133.037,0.383C251.524,27.764,252.607,27.89,254.807,28.028z"/>
		<path fill-rule="evenodd" clip-rule="evenodd" fill="#FFFFFF" d="M837.722,210.415c-2.04,2.943-3.769,6.188-6.226,8.729
			c-1.731,1.79-5.058,0.326-4.58-1.79c0.825-3.66,0.884-7.913,4.66-10.298C834.343,205.309,836.77,206.607,837.722,210.415z"/>
		<path fill-rule="evenodd" clip-rule="evenodd" fill="#FFFFFF" d="M294.414,89.367c2.257,5.711-1.938,9.138-5.161,12.215
			c-2.127,2.031-2.821-1.646-3.177-2.957C284.868,94.177,289.708,89.022,294.414,89.367z"/>
		<path fill-rule="evenodd" clip-rule="evenodd" fill="#FFFFFF" d="M603.689,269.045c-1.757-5.096,1.898-9.084,5.107-11.449
			c0.385-0.284,2.456,0.723,2.785,1.526C613.402,263.557,608.585,269.48,603.689,269.045z"/>
		<path fill-rule="evenodd" clip-rule="evenodd" fill="#FFFFFF" d="M271.734,202.008c1.144,5.939-1.019,10.835-5.52,12.287
			c-0.775,0.25-2.502-0.379-2.792-1.039C261.845,209.655,267.379,202.123,271.734,202.008z"/>
		<path fill-rule="evenodd" clip-rule="evenodd" fill="#FFFFFF" d="M122.773,270.789c-2.572-3.291,0.337-11.451,4.25-12.128
			c0.974-0.167,2.515,0.007,2.986,0.633c0.582,0.772,0.548,2.217,0.381,3.309C129.736,266.886,126.779,269.178,122.773,270.789z"/>
		<path fill-rule="evenodd" clip-rule="evenodd" d="M639.113,222.2c0.732-1.501,1.377-3.056,2.25-4.472
			c0.276-0.45,1.159-0.527,1.765-0.773c0.119,0.683,0.575,1.599,0.295,2.01c-0.98,1.431-2.215,2.686-3.353,4.009
			C639.751,222.716,639.433,222.458,639.113,222.2z"/>
	</g>
</g>
</svg>
