<?xml version="1.0" encoding="utf-8"?>
<!-- Generator: Adobe Illustrator 16.0.0, SVG Export Plug-In . SVG Version: 6.00 Build 0)  -->
<!DOCTYPE svg PUBLIC "-//W3C//DTD SVG 1.1//EN" "http://www.w3.org/Graphics/SVG/1.1/DTD/svg11.dtd">
<svg version="1.1" id="Layer_1" xmlns="http://www.w3.org/2000/svg" xmlns:xlink="http://www.w3.org/1999/xlink" x="0px" y="0px"
	 width="500px" height="500px" viewBox="0 0 500 500" enable-background="new 0 0 500 500" xml:space="preserve">
<g>
	<g>
		<path fill-rule="evenodd" clip-rule="evenodd" fill="#FFFFFF" d="M0.768,487.901c0-154.378,0-308.755,0-463.133
			c166.667,0,333.333,0,500,0c0,154.378,0,308.755,0,463.133C334.102,487.901,167.435,487.901,0.768,487.901z M258.992,56.386
			c-11.633,1.041-25.71,1.578-39.524,3.771c-10.579,1.679-20.923,5.139-31.183,8.401c-6.833,2.172-13.496,5.061-19.937,8.233
			c-6.646,3.274-13.02,7.134-19.347,11.008c-5.776,3.537-11.541,7.161-16.919,11.261c-4.809,3.666-9.247,7.869-13.55,12.136
			c-4.9,4.859-9.554,9.977-14.146,15.131c-2.417,2.712-4.438,5.773-6.702,8.625c-3.339,4.206-7.574,7.945-9.926,12.636
			c-4.215,8.407-10.895,15.564-12.916,25.091c-0.114,0.54-0.879,0.91-1.223,1.437c-0.812,1.245-1.828,2.445-2.274,3.822
			c-2.811,8.657-5.808,17.272-8.122,26.066c-2.477,9.417-5.187,18.924-6.152,28.557c-1.583,15.807-2.131,31.659,0.795,47.574
			c2.158,11.741,3.681,23.486,7.499,34.937c3.808,11.422,7.857,22.69,13.595,33.233c4.931,9.063,10.328,17.903,16.033,26.501
			c3.477,5.241,7.85,9.902,11.974,14.693c2.033,2.36,4.412,4.423,6.635,6.62c4.776,4.719,9.436,9.566,14.376,14.108
			c2.837,2.607,6.449,4.401,9.156,7.114c7.775,7.796,17.688,12.361,26.988,17.643c8.654,4.914,18.225,8.309,27.591,11.843
			c7.676,2.896,15.526,5.546,23.518,7.329c7.788,1.737,15.824,2.592,23.8,3.212c21.958,1.705,43.824,1.735,65.234-4.717
			c8.049-2.427,16.281-4.249,24.326-6.688c4.075-1.235,8.019-3.034,11.849-4.928c6.522-3.225,12.939-6.668,19.338-10.137
			c3.071-1.664,6.127-3.415,8.961-5.445c4.484-3.21,8.905-6.534,13.118-10.09c6.357-5.368,12.594-10.89,18.717-16.524
			c2.754-2.534,4.066-6.975,9.102-6.232c0.401,0.06,1.451-1.033,1.367-1.402c-0.893-3.945,1.865-5.885,3.853-8.673
			c6.538-9.179,12.471-18.794,18.496-28.329c1.339-2.117,2.031-4.631,3.15-6.9c3.072-6.238,6.896-12.204,9.167-18.716
			c3.331-9.554,6.192-19.364,8.146-29.284c4.322-21.938,5.383-44.135,2.451-66.357c-1.124-8.529-3.043-16.975-5.007-25.364
			c-1.409-6.02-3.135-12.021-5.367-17.778c-2.927-7.548-6.223-14.983-9.855-22.218c-3.84-7.649-7.86-15.271-12.551-22.412
			c-4.048-6.161-8.867-11.888-13.856-17.338c-5.721-6.249-11.852-12.147-18.093-17.884c-5.032-4.625-10.548-8.722-15.726-13.194
			c-1.204-1.04-1.851-2.702-2.864-3.992c-0.851-1.083-1.891-2.926-2.799-2.897c-3.926,0.123-6.709-1.462-9.901-3.702
			c-5.697-3.997-11.952-7.375-18.343-10.167c-8.54-3.733-17.392-6.78-26.191-9.891c-5.584-1.974-11.208-4.243-17.005-5.122
			C286.385,59.111,273.895,58.055,258.992,56.386z M420.963,394.891c-0.942,12.03-2.543,22.272-8.913,32.026
			c5.3,0,10.106,0.095,14.908-0.022c7.24-0.177,13.832-5.157,16.545-11.877c1.34-3.317,3.102-6.56,1.591-10.111
			c-2.313-5.436-5.648-9.916-12.365-10.005C428.497,394.845,424.265,394.891,420.963,394.891z M65.292,87.803
			c0.22,3.287,0.959,5.62,0.405,7.588c-2.166,7.708-4.739,15.302-7.209,23.089c0.375,0.221,0.795,0.68,1.219,0.683
			c4.839,0.036,9.739,0.445,14.493-0.199c2.359-0.319,4.826-2.251,6.58-4.087c2.778-2.907,2.05-7.084-0.875-10.048
			c-0.521-0.528-0.475-2.213-0.025-2.969c0.806-1.359,2.207-2.348,3.197-3.618c2.491-3.198,1.522-7.519-2.386-8.398
			C75.452,88.664,70.009,88.388,65.292,87.803z M409.298,71.625c1.018-3.323,2.059-5.92,2.503-8.616
			c0.155-0.938-1.058-2.948-1.831-3.048c-3.613-0.469-7.343-0.879-10.929-0.452c-2.766,0.329-5.972,1.294-7.923,3.112
			c-3.005,2.803-5.3,6.454-7.548,9.966c-4.73,7.389-1.157,15.952,5.214,18.317c6.278,2.332,12.787,1.229,18.376-2.937
			c0.495-0.369,0.647-1.601,0.472-2.311c-0.103-0.411-1.273-0.92-1.802-0.779c-0.914,0.243-1.876,0.8-2.514,1.501
			c-3.45,3.795-8.069,3.201-11.657,1.621c-2.16-0.951-3.769-4.918-4.179-7.741c-1.117-7.694,4.837-15.923,12.26-17.632
			c1.114-0.257,2.918,0.215,3.656,1.028C405.373,65.827,406.944,68.37,409.298,71.625z M67.242,384.35
			c-0.455-3.149-1.246-5.85-1.148-8.518c0.231-6.357,0.929-12.698,1.316-19.052c0.062-1.016-0.244-2.318-0.892-3.003
			c-0.34-0.36-2.206,0.003-2.671,0.597c-3,3.826-5.808,7.804-8.672,11.736c-2.421,3.323-4.892,6.611-7.229,9.991
			c-1.75,2.531-3.322,5.183-5.581,8.736c3.337-0.154,5.471-0.252,7.605-0.35c-0.322-0.374-0.644-0.749-0.966-1.122
			c1.15-2.625,1.741-5.818,3.637-7.686c1.404-1.384,4.504-1.219,6.855-1.251c0.294-0.004,0.97,3.03,0.852,4.611
			c-0.123,1.647-0.993,3.239-1.688,5.309C61.885,384.35,64.567,384.35,67.242,384.35z"/>
		<path fill-rule="evenodd" clip-rule="evenodd" d="M258.992,56.386c14.902,1.668,27.393,2.725,39.759,4.6
			c5.797,0.879,11.421,3.147,17.005,5.122c8.8,3.11,17.651,6.158,26.191,9.891c6.391,2.792,12.646,6.171,18.343,10.167
			c3.192,2.239,5.976,3.824,9.901,3.702c0.908-0.028,1.948,1.814,2.799,2.897c1.014,1.29,1.66,2.952,2.864,3.992
			c5.178,4.473,10.693,8.569,15.726,13.194c6.241,5.736,12.372,11.635,18.093,17.884c4.989,5.451,9.809,11.177,13.856,17.338
			c4.69,7.141,8.711,14.762,12.551,22.412c3.633,7.235,6.929,14.67,9.855,22.218c2.232,5.757,3.958,11.759,5.367,17.778
			c1.964,8.389,3.883,16.835,5.007,25.364c2.932,22.223,1.871,44.419-2.451,66.357c-1.954,9.92-4.815,19.73-8.146,29.284
			c-2.271,6.512-6.095,12.478-9.167,18.716c-1.119,2.27-1.812,4.783-3.15,6.9c-6.025,9.535-11.958,19.15-18.496,28.329
			c-1.987,2.788-4.745,4.728-3.853,8.673c0.084,0.369-0.966,1.462-1.367,1.402c-5.035-0.742-6.348,3.698-9.102,6.232
			c-6.123,5.635-12.359,11.156-18.717,16.524c-4.213,3.556-8.634,6.88-13.118,10.09c-2.834,2.03-5.89,3.781-8.961,5.445
			c-6.398,3.469-12.815,6.912-19.338,10.137c-3.83,1.894-7.773,3.692-11.849,4.928c-8.045,2.439-16.277,4.262-24.326,6.688
			c-21.41,6.452-43.276,6.422-65.234,4.717c-7.976-0.62-16.013-1.475-23.8-3.212c-7.991-1.783-15.842-4.433-23.518-7.329
			c-9.367-3.534-18.937-6.929-27.591-11.843c-9.301-5.281-19.213-9.847-26.988-17.643c-2.707-2.713-6.319-4.507-9.156-7.114
			c-4.94-4.542-9.6-9.39-14.376-14.108c-2.224-2.197-4.603-4.26-6.635-6.62c-4.124-4.791-8.497-9.452-11.974-14.693
			c-5.705-8.598-11.102-17.438-16.033-26.501c-5.737-10.543-9.787-21.812-13.595-33.233c-3.818-11.45-5.341-23.195-7.499-34.937
			c-2.926-15.915-2.378-31.767-0.795-47.574c0.965-9.632,3.675-19.139,6.152-28.557c2.313-8.793,5.311-17.409,8.122-26.066
			c0.446-1.377,1.462-2.578,2.274-3.822c0.343-0.527,1.108-0.897,1.223-1.437c2.021-9.527,8.701-16.685,12.916-25.091
			c2.352-4.691,6.586-8.431,9.926-12.636c2.264-2.852,4.285-5.913,6.702-8.625c4.592-5.154,9.246-10.272,14.146-15.131
			c4.303-4.268,8.741-8.47,13.55-12.136c5.378-4.1,11.143-7.724,16.919-11.261c6.327-3.875,12.701-7.734,19.347-11.008
			c6.441-3.173,13.104-6.061,19.937-8.233c10.26-3.263,20.604-6.722,31.183-8.401C233.282,57.964,247.359,57.427,258.992,56.386z
			 M80.737,342.07c5.647,1.037,10.233,2.314,14.888,2.654c17.486,1.281,34.776,3.697,51.992,7.061
			c10.993,2.148,22.22,3.1,33.343,4.579c12.091,1.606,24.179,3.242,36.279,4.783c4.688,0.597,9.433,0.776,14.1,1.484
			c9.753,1.481,19.454,3.303,29.21,4.761c6.444,0.963,12.971,1.375,19.419,2.322c13.558,1.99,27.075,4.25,40.633,6.245
			c8.208,1.208,16.478,1.996,24.684,3.213c6.885,1.02,13.694,2.543,20.579,3.561c8.465,1.251,16.977,2.179,25.461,3.306
			c3.53,0.47,7.062,0.985,10.551,1.686c2.52,0.505,3.423-0.578,3.168-2.821c-0.879-7.738-1.734-15.481-2.825-23.191
			c-1.35-9.533-3.004-19.022-4.373-28.553c-0.832-5.794-1.309-11.639-2.063-17.445c-1.779-13.715-3.787-27.401-5.403-41.135
			c-1.343-11.406-2.241-22.864-3.368-34.295c-0.539-5.463-0.994-10.942-1.769-16.374c-1.483-10.399-3.365-20.745-4.725-31.159
			c-2.275-17.438-4.355-34.903-6.356-52.374c-1.454-12.703-2.71-25.429-3.933-38.157c-0.566-5.915-2.004-7.395-8.02-6.818
			c-10.918,1.046-21.83,2.179-32.725,3.45c-7.205,0.84-14.38,1.955-21.561,3.002c-7.412,1.081-14.798,2.354-22.225,3.315
			c-9.472,1.226-18.982,2.146-28.455,3.364c-2.854,0.367-5.604,1.611-8.456,1.9c-12.687,1.283-25.394,2.364-38.094,3.523
			c-0.508,0.046-1.015,0.126-1.518,0.212c-9.176,1.582-18.319,3.406-27.538,4.676c-7.578,1.044-15.253,1.373-22.873,2.132
			c-4.555,0.454-9.104,1.025-13.628,1.722c-10.091,1.553-20.133,3.461-30.255,4.755c-7.213,0.922-7.261,0.58-8.17,7.87
			c-0.095,0.76-0.084,1.532-0.156,2.296c-0.778,8.256-1.411,16.529-2.397,24.761c-0.677,5.651-2.033,11.22-2.76,16.867
			c-1.667,12.95-2.425,25.98-5.226,38.83c-1.999,9.171-2.292,18.716-3.322,28.097c-0.764,6.961-1.357,13.943-2.258,20.886
			c-1.435,11.055-3.082,22.082-4.602,33.127c-1.008,7.325-1.994,14.655-2.915,21.992C82.238,328.859,81.5,335.552,80.737,342.07z
			 M400.924,392.205c-11.25-1.27-21.359-2.171-31.394-3.597c-15.987-2.27-31.916-4.956-47.889-7.34
			c-15.866-2.369-31.748-4.632-47.637-6.851c-14.409-2.013-28.852-3.786-43.248-5.882c-11.453-1.667-22.842-3.767-34.289-5.479
			c-11.172-1.673-22.375-3.136-33.574-4.624c-12.095-1.609-24.265-2.771-36.275-4.856c-6.563-1.14-13.61,0.08-19.713-3.683
			c-0.758-0.467-1.971-0.165-2.964-0.287c-4.142-0.508-8.281-1.038-12.421-1.567c-2.431-0.312-4.859-0.637-8.502-1.115
			c6.679,13.976,14.961,25.603,24.033,36.266c25.059,29.451,56.161,50.338,93.255,61.986c15.35,4.82,31.333,7.929,47.076,8.422
			c55.08,1.722,103.957-15.249,144.994-52.853C395.191,398.166,397.789,395.349,400.924,392.205z M409.055,380.955
			c0.457-0.008,0.913-0.017,1.37-0.023c2.146-2.876,4.357-5.706,6.422-8.639c3.04-4.317,6.332-8.512,8.872-13.114
			c3.684-6.677,7.112-13.535,10.065-20.563c3.661-8.711,7.214-17.529,9.897-26.572c2.301-7.753,3.594-15.847,4.82-23.867
			c1.399-9.163,2.605-18.39,3.179-27.634c0.374-6.039-0.765-12.128-1.397-18.187c-1.589-15.219-3.299-30.271-8.873-44.655
			c-2.602-6.713-4.591-13.689-7.564-20.224c-4.411-9.699-8.609-19.591-15.709-27.801c-0.165-0.192-0.358-0.376-0.465-0.599
			c-4.973-10.338-13.385-18.106-20.649-26.619c-5.914-6.93-13.586-12.362-20.479-18.457c-0.378-0.333-0.738-0.707-1.17-0.951
			c-0.832-0.472-1.709-0.865-2.568-1.29c-0.141,1.133-0.513,2.297-0.367,3.392c0.206,1.562,0.989,3.049,1.185,4.611
			c1.425,11.417,2.688,22.853,4.153,34.264c1.327,10.329,3.003,20.614,4.239,30.953c1.427,11.923,2.415,23.899,3.825,35.825
			c1.483,12.544,3.301,25.048,4.859,37.584c1.197,9.636,2.131,19.305,3.343,28.939c1.472,11.712,3.21,23.39,4.641,35.105
			c0.941,7.706,1.392,15.472,2.331,23.179c1.522,12.497,3.261,24.967,4.919,37.447C408.282,375.695,408.68,378.324,409.055,380.955z
			 M113.551,120.701c0.209,0.423,0.418,0.845,0.627,1.269c1.189,0,2.397,0.136,3.566-0.021c12.354-1.654,24.698-3.391,37.055-5.029
			c9.6-1.273,19.222-2.384,28.822-3.661c14.356-1.91,28.775-2.996,43.068-5.853c15.174-3.035,30.769-3.958,46.173-5.857
			c7.467-0.921,14.912-2.026,22.38-2.944c14.507-1.783,29.026-3.459,43.532-5.25c6.18-0.763,12.338-1.7,19.129-2.645
			c-0.958-1.022-1.412-1.779-2.079-2.167c-1.904-1.109-3.869-2.123-5.858-3.075c-6.639-3.176-13.177-6.611-19.988-9.363
			c-5.668-2.289-11.669-3.756-17.522-5.586c-4.533-1.418-8.995-3.176-13.62-4.174c-7.269-1.567-14.622-2.795-21.984-3.855
			c-13.042-1.878-26.116-2.689-39.206-0.229c-5.115,0.961-10.259,1.77-15.397,2.6c-3.276,0.529-6.598,0.815-9.841,1.493
			c-4.097,0.856-8.18,1.846-12.182,3.064c-3.54,1.078-7.034,2.381-10.414,3.886c-4.704,2.094-10.782,1.095-14.15,6.25
			c-0.212,0.325-0.953,0.272-1.412,0.475c-4.556,2.009-9.172,3.9-13.636,6.097c-3.942,1.94-7.926,3.923-11.506,6.437
			c-4.847,3.403-9.318,7.342-13.965,11.032C127.952,109.305,120.749,115,113.551,120.701z M75.637,331.576
			c0.476-0.084,0.953-0.168,1.429-0.252c0.233-1.103,0.563-2.192,0.685-3.307c1.243-11.352,2.346-22.721,3.699-34.06
			c1.617-13.559,3.376-27.103,5.214-40.633c0.54-3.978,1.795-7.86,2.303-11.839c0.917-7.191,1.369-14.441,2.281-21.633
			c2.007-15.826,4.157-31.633,6.295-47.441c1.098-8.116,2.432-16.203,3.382-24.334c0.394-3.366,0.066-6.817,0.066-10.229
			c-0.358-0.046-0.716-0.093-1.075-0.139c-20.404,27.914-33.336,58.987-37.763,93.353C57.686,265.756,62.562,299.299,75.637,331.576
			z"/>
		<path fill-rule="evenodd" clip-rule="evenodd" d="M420.963,394.891c3.302,0,7.534-0.046,11.766,0.011
			c6.717,0.089,10.053,4.569,12.365,10.005c1.511,3.552-0.251,6.794-1.591,10.111c-2.713,6.72-9.305,11.7-16.545,11.877
			c-4.802,0.117-9.608,0.022-14.908,0.022C418.42,417.163,420.021,406.921,420.963,394.891z M420.237,422.886
			c11.565,2.369,18.257-3.852,19.546-13.551c0.771-5.805-3.827-11.342-9.194-11.529c-2.42-0.085-3.774,0.698-4.303,3.199
			c-0.815,3.864-1.835,7.69-2.89,11.499C422.458,415.894,421.354,419.238,420.237,422.886z"/>
		<path fill-rule="evenodd" clip-rule="evenodd" d="M65.292,87.803c4.717,0.585,10.159,0.861,15.398,2.041
			c3.908,0.88,4.876,5.2,2.386,8.398c-0.99,1.271-2.391,2.259-3.197,3.618c-0.449,0.756-0.496,2.44,0.025,2.969
			c2.925,2.964,3.653,7.141,0.875,10.048c-1.754,1.836-4.221,3.768-6.58,4.087c-4.754,0.644-9.654,0.235-14.493,0.199
			c-0.424-0.003-0.844-0.462-1.219-0.683c2.47-7.788,5.044-15.381,7.209-23.089C66.251,93.422,65.513,91.089,65.292,87.803z
			 M70.415,102.247c6.65-1.4,9.16-4.344,7.971-8.542c-0.299-1.052-1.668-2.256-2.753-2.515c-1.322-0.316-3.265-0.189-4.226,0.606
			c-1.973,1.634-2.188,8.63-1.195,10.189c-1.375,2.96-2.847,5.384-3.608,8.014c-0.562,1.94-0.197,4.148-0.245,6.237
			c2.387-0.545,4.831-0.922,7.133-1.714c0.978-0.337,1.777-1.454,2.449-2.369c1.948-2.655,1.005-6.009-1.9-7.428
			C73.029,104.232,72.157,103.454,70.415,102.247z"/>
		<path fill-rule="evenodd" clip-rule="evenodd" d="M409.298,71.625c-2.354-3.255-3.925-5.798-5.901-7.972
			c-0.738-0.813-2.542-1.285-3.656-1.028c-7.423,1.709-13.377,9.938-12.26,17.632c0.41,2.822,2.019,6.79,4.179,7.741
			c3.588,1.58,8.207,2.174,11.657-1.621c0.638-0.701,1.6-1.258,2.514-1.501c0.528-0.141,1.699,0.369,1.802,0.779
			c0.176,0.71,0.023,1.942-0.472,2.311c-5.589,4.166-12.098,5.269-18.376,2.937c-6.371-2.365-9.944-10.928-5.214-18.317
			c2.248-3.512,4.543-7.163,7.548-9.966c1.951-1.818,5.157-2.783,7.923-3.112c3.586-0.427,7.315-0.017,10.929,0.452
			c0.773,0.101,1.986,2.11,1.831,3.048C411.356,65.705,410.315,68.302,409.298,71.625z"/>
		<path fill-rule="evenodd" clip-rule="evenodd" d="M67.242,384.35c-2.674,0-5.356,0-8.583,0c0.696-2.069,1.565-3.661,1.688-5.309
			c0.118-1.581-0.558-4.615-0.852-4.611c-2.352,0.032-5.452-0.133-6.855,1.251c-1.896,1.867-2.486,5.061-3.637,7.686
			c0.322,0.373,0.644,0.748,0.966,1.122c-2.134,0.098-4.269,0.195-7.605,0.35c2.259-3.554,3.832-6.205,5.581-8.736
			c2.338-3.38,4.809-6.668,7.229-9.991c2.864-3.933,5.671-7.91,8.672-11.736c0.466-0.594,2.331-0.957,2.671-0.597
			c0.648,0.685,0.954,1.987,0.892,3.003c-0.387,6.354-1.084,12.694-1.316,19.052C65.996,378.5,66.787,381.2,67.242,384.35z
			 M55.083,371.474c6.02,1.104,7.438-0.925,5.816-7.842C58.914,366.309,57.074,368.789,55.083,371.474z"/>
		<path fill-rule="evenodd" clip-rule="evenodd" fill="#FFFFFF" d="M80.737,342.07c0.763-6.519,1.5-13.211,2.339-19.891
			c0.921-7.337,1.906-14.667,2.915-21.992c1.521-11.045,3.167-22.072,4.602-33.127c0.9-6.942,1.494-13.925,2.258-20.886
			c1.029-9.381,1.323-18.925,3.322-28.097c2.801-12.85,3.559-25.88,5.226-38.83c0.727-5.647,2.083-11.216,2.76-16.867
			c0.986-8.232,1.619-16.505,2.397-24.761c0.072-0.764,0.062-1.536,0.156-2.296c0.909-7.29,0.957-6.948,8.17-7.87
			c10.122-1.294,20.164-3.202,30.255-4.755c4.524-0.697,9.073-1.268,13.628-1.722c7.62-0.76,15.295-1.088,22.873-2.132
			c9.219-1.271,18.362-3.095,27.538-4.676c0.503-0.086,1.01-0.166,1.518-0.212c12.7-1.159,25.407-2.24,38.094-3.523
			c2.853-0.289,5.602-1.533,8.456-1.9c9.473-1.218,18.983-2.138,28.455-3.364c7.427-0.961,14.813-2.235,22.225-3.315
			c7.181-1.047,14.355-2.162,21.561-3.002c10.895-1.271,21.807-2.404,32.725-3.45c6.016-0.577,7.453,0.904,8.02,6.818
			c1.223,12.728,2.479,25.454,3.933,38.157c2.001,17.471,4.081,34.936,6.356,52.374c1.359,10.415,3.241,20.76,4.725,31.159
			c0.774,5.431,1.229,10.91,1.769,16.374c1.127,11.431,2.025,22.889,3.368,34.295c1.616,13.733,3.624,27.42,5.403,41.135
			c0.754,5.807,1.23,11.651,2.063,17.445c1.369,9.53,3.023,19.02,4.373,28.553c1.091,7.71,1.946,15.453,2.825,23.191
			c0.255,2.243-0.648,3.326-3.168,2.821c-3.489-0.7-7.021-1.216-10.551-1.686c-8.484-1.127-16.996-2.055-25.461-3.306
			c-6.885-1.018-13.694-2.541-20.579-3.561c-8.206-1.217-16.476-2.005-24.684-3.213c-13.558-1.995-27.075-4.255-40.633-6.245
			c-6.448-0.947-12.975-1.359-19.419-2.322c-9.756-1.458-19.457-3.279-29.21-4.761c-4.667-0.708-9.413-0.888-14.1-1.484
			c-12.1-1.541-24.188-3.177-36.279-4.783c-11.123-1.479-22.35-2.431-33.343-4.579c-17.216-3.363-34.506-5.779-51.992-7.061
			C90.97,344.385,86.384,343.107,80.737,342.07z M210.68,344.73c2.486-8.584,4.881-16.735,7.162-24.918
			c0.228-0.814-0.198-2.609-0.397-2.62c-1.818-0.105-3.674-0.034-5.464,0.286c-0.355,0.064-0.655,1.412-0.679,2.177
			c-0.076,2.412-0.01,4.829,0.003,7.243c0.014,2.568-1.37,3.179-3.736,3.03c-8.046-0.507-15.758,8.545-13.819,16.361
			c0.361,1.458,1.87,3.559,3.032,3.686c1.983,0.215,4.148-0.794,6.15-1.526c0.488-0.18,0.636-1.286,0.943-1.972
			c4.946,4.988,4.946,4.988,9.922-0.408C212.729,345.61,211.734,345.183,210.68,344.73z M229.881,120.558
			c0,2.863,0.48,5.243-0.091,7.337c-1.648,6.045-3.703,11.98-5.63,17.949c-1.236,3.829-0.509,5.918,3.087,6.774
			c4.036,0.96,8.268,1.103,11.464-2.196c1.787-1.844,2.974-4.259,4.519-6.351c2.075-2.813,2.675-5.814,0.837-8.867
			c-1.859-3.086-4.428-4.753-8.257-3.141c-0.756,0.319-1.821-0.095-3.045-0.197c1.365-3.95,2.567-7.424,4.015-11.613
			C233.7,120.389,231.511,120.485,229.881,120.558z M116.848,242.634c1.761,2.642,3.707,3.843,6.333,2.303
			c2.539-1.49,2.281-3.319,0.45-5.314c-0.323-0.352-0.293-1.232-0.136-1.786c0.868-3.043,1.918-6.038,2.71-9.099
			c0.338-1.311,0.204-2.743,0.258-3.668c-2.413-0.38-4.034-0.714-5.672-0.869c-1.336-0.126-2.766-0.323-4.029,0
			c-8.146,2.084-11.203,11.09-10.499,16.854c0.191,1.566,1.175,4.115,2.136,4.286c2.053,0.363,4.351-0.449,6.502-0.969
			C115.523,244.221,115.99,243.428,116.848,242.634z M370.446,231.085c1.358,2,2.362,3.476,3.365,4.953
			c0.438-0.042,0.875-0.082,1.313-0.123c0.666-1.606,2.195-3.515,1.768-4.737c-0.474-1.35-2.675-2.204-4.259-3.006
			c-0.704-0.357-1.739-0.073-2.624-0.058c-6.173,0.099-9.439,4.551-11.616,9.156c-1.223,2.587-0.763,6.721,0.446,9.503
			c1.342,3.091,5.2,3.979,8.34,2.734c2.909-1.154,5.366-3.444,8.022-5.235c-0.189-0.427-0.378-0.854-0.568-1.282
			c-1.385,0.411-2.833,0.678-4.142,1.261c-3.637,1.62-7.236,1.043-8.066-1.423C360.702,237.708,365.432,231.24,370.446,231.085z"/>
		<path fill-rule="evenodd" clip-rule="evenodd" fill="#FFFFFF" d="M400.924,392.205c-3.135,3.144-5.732,5.961-8.548,8.54
			c-41.037,37.604-89.914,54.574-144.994,52.853c-15.744-0.493-31.726-3.602-47.076-8.422
			c-37.094-11.648-68.196-32.535-93.255-61.986c-9.072-10.663-17.354-22.29-24.033-36.266c3.644,0.479,6.072,0.804,8.502,1.115
			c4.14,0.529,8.279,1.06,12.421,1.567c0.994,0.122,2.207-0.18,2.964,0.287c6.104,3.763,13.151,2.543,19.713,3.683
			c12.01,2.086,24.18,3.247,36.275,4.856c11.198,1.488,22.402,2.951,33.574,4.624c11.447,1.713,22.836,3.813,34.289,5.479
			c14.396,2.096,28.839,3.869,43.248,5.882c15.889,2.219,31.771,4.481,47.637,6.851c15.973,2.384,31.901,5.07,47.889,7.34
			C379.564,390.034,389.674,390.936,400.924,392.205z"/>
		<path fill-rule="evenodd" clip-rule="evenodd" fill="#FFFFFF" d="M409.055,380.955c-0.375-2.631-0.772-5.26-1.122-7.895
			c-1.658-12.48-3.396-24.95-4.919-37.447c-0.939-7.707-1.39-15.473-2.331-23.179c-1.431-11.716-3.169-23.394-4.641-35.105
			c-1.212-9.634-2.146-19.303-3.343-28.939c-1.559-12.536-3.376-25.04-4.859-37.584c-1.41-11.926-2.398-23.902-3.825-35.825
			c-1.236-10.339-2.912-20.624-4.239-30.953c-1.466-11.411-2.729-22.848-4.153-34.264c-0.195-1.562-0.979-3.049-1.185-4.611
			c-0.146-1.095,0.227-2.259,0.367-3.392c0.859,0.425,1.736,0.818,2.568,1.29c0.432,0.244,0.792,0.617,1.17,0.951
			c6.894,6.094,14.565,11.526,20.479,18.457c7.265,8.512,15.677,16.281,20.649,26.619c0.106,0.223,0.3,0.407,0.465,0.599
			c7.1,8.21,11.298,18.103,15.709,27.801c2.974,6.535,4.963,13.511,7.564,20.224c5.574,14.385,7.284,29.437,8.873,44.655
			c0.633,6.059,1.771,12.147,1.397,18.187c-0.573,9.244-1.779,18.471-3.179,27.634c-1.227,8.021-2.52,16.114-4.82,23.867
			c-2.684,9.043-6.236,17.861-9.897,26.572c-2.953,7.027-6.382,13.886-10.065,20.563c-2.54,4.603-5.832,8.797-8.872,13.114
			c-2.064,2.933-4.276,5.763-6.422,8.639C409.968,380.938,409.512,380.947,409.055,380.955z"/>
		<path fill-rule="evenodd" clip-rule="evenodd" fill="#FFFFFF" d="M113.551,120.701c7.198-5.701,14.401-11.396,21.591-17.106
			c4.647-3.69,9.118-7.629,13.965-11.032c3.58-2.514,7.564-4.497,11.506-6.437c4.464-2.197,9.08-4.088,13.636-6.097
			c0.459-0.203,1.2-0.15,1.412-0.475c3.368-5.156,9.447-4.157,14.15-6.25c3.38-1.504,6.875-2.808,10.414-3.886
			c4.002-1.218,8.085-2.208,12.182-3.064c3.243-0.677,6.564-0.963,9.841-1.493c5.138-0.83,10.282-1.638,15.397-2.6
			c13.089-2.461,26.164-1.649,39.206,0.229c7.362,1.06,14.716,2.288,21.984,3.855c4.625,0.998,9.087,2.756,13.62,4.174
			c5.854,1.83,11.854,3.297,17.522,5.586c6.812,2.752,13.35,6.187,19.988,9.363c1.989,0.952,3.954,1.966,5.858,3.075
			c0.667,0.388,1.121,1.145,2.079,2.167c-6.791,0.945-12.949,1.882-19.129,2.645c-14.506,1.791-29.025,3.467-43.532,5.25
			c-7.468,0.918-14.913,2.023-22.38,2.944c-15.404,1.899-30.999,2.823-46.173,5.857c-14.293,2.857-28.712,3.943-43.068,5.853
			c-9.6,1.277-19.222,2.388-28.822,3.661c-12.357,1.638-24.701,3.375-37.055,5.029c-1.169,0.157-2.376,0.021-3.566,0.021
			C113.969,121.546,113.761,121.124,113.551,120.701z"/>
		<path fill-rule="evenodd" clip-rule="evenodd" fill="#FFFFFF" d="M75.637,331.576c-13.075-32.277-17.951-65.82-13.482-100.514
			c4.426-34.366,17.358-65.439,37.763-93.353c0.358,0.046,0.716,0.093,1.075,0.139c0,3.412,0.328,6.863-0.066,10.229
			c-0.951,8.132-2.285,16.218-3.382,24.334c-2.138,15.808-4.288,31.616-6.295,47.441c-0.912,7.191-1.364,14.441-2.281,21.633
			c-0.508,3.979-1.763,7.861-2.303,11.839c-1.838,13.53-3.597,27.074-5.214,40.633c-1.353,11.339-2.456,22.708-3.699,34.06
			c-0.122,1.114-0.452,2.204-0.685,3.307C76.59,331.408,76.113,331.492,75.637,331.576z"/>
		<path fill-rule="evenodd" clip-rule="evenodd" fill="#FFFFFF" d="M420.237,422.886c1.117-3.647,2.221-6.992,3.159-10.382
			c1.055-3.809,2.074-7.635,2.89-11.499c0.528-2.501,1.883-3.284,4.303-3.199c5.367,0.188,9.966,5.725,9.194,11.529
			C438.494,419.034,431.803,425.255,420.237,422.886z"/>
		<path fill-rule="evenodd" clip-rule="evenodd" fill="#FFFFFF" d="M70.415,102.247c1.742,1.208,2.614,1.986,3.625,2.479
			c2.906,1.418,3.848,4.772,1.9,7.428c-0.671,0.915-1.471,2.032-2.449,2.369c-2.302,0.792-4.747,1.168-7.133,1.714
			c0.048-2.089-0.317-4.297,0.245-6.237c0.761-2.63,2.233-5.054,3.608-8.014c-0.993-1.559-0.778-8.555,1.195-10.189
			c0.961-0.795,2.904-0.922,4.226-0.606c1.085,0.259,2.455,1.463,2.753,2.515C79.575,97.903,77.065,100.847,70.415,102.247z"/>
		<path fill-rule="evenodd" clip-rule="evenodd" fill="#FFFFFF" d="M55.083,371.474c1.991-2.685,3.831-5.165,5.816-7.842
			C62.521,370.549,61.103,372.577,55.083,371.474z"/>
		<path fill-rule="evenodd" clip-rule="evenodd" d="M210.68,344.73c1.054,0.452,2.048,0.88,3.117,1.339
			c-4.977,5.396-4.977,5.396-9.922,0.408c-0.308,0.686-0.455,1.792-0.943,1.972c-2.002,0.732-4.167,1.741-6.15,1.526
			c-1.162-0.127-2.67-2.228-3.032-3.686c-1.938-7.816,5.773-16.868,13.819-16.361c2.367,0.148,3.75-0.462,3.736-3.03
			c-0.013-2.414-0.079-4.831-0.003-7.243c0.024-0.765,0.323-2.112,0.679-2.177c1.79-0.32,3.646-0.392,5.464-0.286
			c0.2,0.011,0.625,1.806,0.397,2.62C215.562,327.995,213.166,336.146,210.68,344.73z M197.61,342.448
			c0.659,3.394,1.662,4.519,3.684,3.71c4.116-1.646,7.531-6.555,7.376-11.017c-0.043-1.213-0.714-3.248-1.428-3.406
			c-1.252-0.277-3.394,0.158-4.047,1.083C201.062,335.837,199.433,339.211,197.61,342.448z"/>
		<path fill-rule="evenodd" clip-rule="evenodd" d="M229.881,120.558c1.63-0.072,3.819-0.169,6.897-0.305
			c-1.448,4.188-2.649,7.663-4.015,11.613c1.224,0.102,2.29,0.516,3.045,0.197c3.829-1.612,6.398,0.054,8.257,3.141
			c1.838,3.053,1.238,6.054-0.837,8.867c-1.544,2.092-2.732,4.507-4.519,6.351c-3.196,3.299-7.428,3.156-11.464,2.196
			c-3.596-0.856-4.323-2.946-3.087-6.774c1.927-5.968,3.982-11.903,5.63-17.949C230.361,125.801,229.881,123.421,229.881,120.558z
			 M236.549,150.087c1.308-3.635,2.729-6.288,3.09-9.078c0.22-1.698-0.997-5.021-1.916-5.15c-2.533-0.357-5.74-0.323-6.692,3.274
			c-0.323,1.222-0.614,2.465-0.768,3.718c-0.292,2.404-0.476,4.823-0.704,7.235C232.017,150.087,234.473,150.087,236.549,150.087z"
			/>
		<path fill-rule="evenodd" clip-rule="evenodd" d="M116.848,242.634c-0.858,0.794-1.325,1.587-1.947,1.737
			c-2.151,0.52-4.449,1.332-6.502,0.969c-0.961-0.17-1.945-2.72-2.136-4.286c-0.704-5.763,2.353-14.769,10.499-16.854
			c1.263-0.323,2.693-0.126,4.029,0c1.638,0.155,3.259,0.489,5.672,0.869c-0.054,0.925,0.081,2.357-0.258,3.668
			c-0.792,3.061-1.842,6.055-2.71,9.099c-0.158,0.554-0.188,1.434,0.136,1.786c1.832,1.995,2.089,3.825-0.45,5.314
			C120.555,246.477,118.609,245.275,116.848,242.634z M121.237,230.741c-0.025-3.016-1.645-4.037-4.546-2.867
			c-3.493,1.408-7.142,7.236-6.542,11.029c0.14,0.881,1.647,2.099,2.622,2.196C116.348,241.457,121.275,235.242,121.237,230.741z"/>
		<path fill-rule="evenodd" clip-rule="evenodd" d="M370.446,231.085c-5.015,0.154-9.744,6.622-8.021,11.743
			c0.83,2.467,4.43,3.043,8.066,1.423c1.309-0.583,2.757-0.85,4.142-1.261c0.19,0.428,0.379,0.854,0.568,1.282
			c-2.656,1.791-5.113,4.081-8.022,5.235c-3.14,1.245-6.998,0.357-8.34-2.734c-1.209-2.783-1.669-6.917-0.446-9.503
			c2.177-4.605,5.443-9.058,11.616-9.156c0.885-0.015,1.92-0.299,2.624,0.058c1.584,0.803,3.785,1.656,4.259,3.006
			c0.428,1.223-1.102,3.131-1.768,4.737c-0.438,0.042-0.876,0.082-1.313,0.123C372.809,234.562,371.805,233.085,370.446,231.085z"/>
		<path fill-rule="evenodd" clip-rule="evenodd" fill="#FFFFFF" d="M197.61,342.448c1.823-3.237,3.452-6.611,5.584-9.63
			c0.653-0.925,2.795-1.36,4.047-1.083c0.714,0.158,1.385,2.193,1.428,3.406c0.155,4.462-3.26,9.37-7.376,11.017
			C199.272,346.967,198.269,345.842,197.61,342.448z"/>
		<path fill-rule="evenodd" clip-rule="evenodd" fill="#FFFFFF" d="M236.549,150.087c-2.077,0-4.532,0-6.989,0
			c0.229-2.413,0.412-4.831,0.704-7.235c0.153-1.253,0.444-2.497,0.768-3.718c0.952-3.598,4.159-3.632,6.692-3.274
			c0.918,0.129,2.135,3.452,1.916,5.15C239.278,143.8,237.857,146.452,236.549,150.087z"/>
		<path fill-rule="evenodd" clip-rule="evenodd" fill="#FFFFFF" d="M121.237,230.741c0.038,4.501-4.889,10.716-8.466,10.359
			c-0.975-0.098-2.482-1.315-2.622-2.196c-0.6-3.793,3.049-9.622,6.542-11.029C119.592,226.704,121.211,227.726,121.237,230.741z"/>
	</g>
</g>
</svg>
