<?xml version="1.0" encoding="utf-8"?>
<!-- Generator: Adobe Illustrator 16.0.0, SVG Export Plug-In . SVG Version: 6.00 Build 0)  -->
<!DOCTYPE svg PUBLIC "-//W3C//DTD SVG 1.1//EN" "http://www.w3.org/Graphics/SVG/1.1/DTD/svg11.dtd">
<svg version="1.1" id="Layer_1" xmlns="http://www.w3.org/2000/svg" xmlns:xlink="http://www.w3.org/1999/xlink" x="0px" y="0px"
	 width="666.843px" height="473.316px" viewBox="0 0 666.843 473.316" enable-background="new 0 0 666.843 473.316"
	 xml:space="preserve">
<g>
	<g>
		<path fill-rule="evenodd" clip-rule="evenodd" fill="#FFFFFF" d="M667.593,474.066c-222.28,0-444.562,0-666.843,0
			c0-157.772,0-315.544,0-473.316c222.281,0,444.563,0,666.843,0C667.593,158.522,667.593,316.294,667.593,474.066z M209.691,84.291
			c1.035,1.091,1.916,2.457,3.168,3.165c0.69,0.391,2.092-0.157,2.992-0.627c0.325-0.17,0.431-1.621,0.091-2.008
			c-0.563-0.64-1.564-1.223-2.386-1.229c-1.306-0.012-2.615,0.471-3.923,0.745c0.129-0.848,0.667-2.111,0.309-2.464
			c-0.98-0.964-2.272-1.849-3.578-2.13c-0.523-0.113-1.405,1.432-2.124,2.223c0.998,0.73,1.927,1.602,3.02,2.138
			C207.936,84.435,208.862,84.254,209.691,84.291z M531.396,271.293c-0.005-0.001-0.379-0.152-0.735-0.117
			c-1.459,0.143-3.663-0.174-4.214,0.627c-1.181,1.718-0.264,3.233,2.01,3.711c0.23,0.049,0.521,1.738,0.175,2.279
			c-1.725,2.703-3.821,5.174-5.474,7.916c-4.147,6.883-8.164,13.845-12.161,20.818c-4.564,7.965-8.951,16.036-13.612,23.945
			c-2.452,4.16-5.438,8.002-7.971,12.118c-2.056,3.344-3.715,6.93-5.692,10.324c-2.928,5.025-6.043,9.94-8.963,14.971
			c-2.658,4.578-4.518,9.796-7.889,13.741c-4.518,5.286-7.399,11.401-10.92,17.203c-3.949,6.508-8,12.955-11.89,19.498
			c-3.364,5.661-6.499,11.458-9.866,17.117c-1.518,2.551-3.41,4.876-5.023,7.373c-1.205,1.865-2.236,3.843-3.346,5.77
			c-1.315,2.283-2.911,4.462-3.823,6.897c-0.404,1.079,0.57,2.674,0.918,4.034c1.008-0.388,2.468-0.479,2.949-1.211
			c3.039-4.632,5.932-9.365,8.734-14.146c2.587-4.411,4.993-8.929,7.49-13.392c1.172-2.094,2.301-4.216,3.57-6.248
			c4.534-7.257,9.179-14.446,13.669-21.729c3.481-5.647,6.745-11.429,10.201-17.092c2.538-4.158,5.316-8.171,7.834-12.341
			c3.47-5.747,6.718-11.628,10.201-17.366c5.379-8.861,10.919-17.625,16.28-26.497c0.912-1.509,1.014-3.51,1.933-5.014
			c2.366-3.866,5.116-7.498,7.46-11.376c2.879-4.761,5.442-9.711,8.25-14.517c3.585-6.137,7.254-12.225,10.953-18.293
			c0.445-0.729,1.22-1.521,1.992-1.734c2.229-0.616,2.844-1.941,2.739-4.132c-0.053-1.107,0.49-2.352,1.066-3.361
			c2.968-5.192,6.07-10.308,9.049-15.494c1.384-2.408,2.46-4.997,3.913-7.359c2.544-4.139,5.335-8.126,7.903-12.251
			c2.157-3.466,4.127-7.048,6.216-10.558c0.603-1.012,1.416-1.904,1.983-2.933c2.685-4.861,5.206-9.816,8.002-14.612
			c2.714-4.656,5.74-9.128,8.537-13.738c2.602-4.286,4.981-8.708,7.639-12.958c3.052-4.879,6.491-9.523,9.413-14.475
			c2.822-4.783,5.042-9.919,7.823-14.729c2.471-4.276,5.414-8.276,8.025-12.475c2.317-3.726,4.408-7.59,6.7-11.333
			c4.462-7.286,9.026-14.508,13.485-21.797c2.772-4.536,5.223-9.284,8.204-13.674c2.286-3.366,4.003-6.619,2.646-11.129
			c-0.985,0.319-2.207,0.339-2.698,0.948c-1.213,1.506-2.148,3.251-3.093,4.958c-2.702,4.886-5.356,9.797-8.023,14.703
			c-1.411,2.595-2.597,5.344-4.258,7.765c-2.972,4.328-6.463,8.309-9.303,12.715c-3.417,5.302-6.415,10.877-9.532,16.368
			c-3.137,5.525-6.076,11.167-9.33,16.62c-2.858,4.791-6.13,9.333-9.045,14.092c-3.364,5.493-6.479,11.138-9.813,16.649
			c-2.518,4.158-5.362,8.121-7.785,12.329c-2.778,4.826-5.098,9.918-7.908,14.725c-2.423,4.145-5.4,7.963-7.87,12.084
			c-3.173,5.296-5.974,10.817-9.208,16.072c-0.566,0.919-2.813,1.759-3.718,1.357c-5.27-2.336-10.381-5.031-15.521-7.651
			c-2.462-1.255-4.869-2.618-7.307-3.92c-0.838-0.448-1.747-0.779-2.531-1.302c-3.108-2.071-5.922-4.978-9.331-6.105
			c-4.144-1.37-7.15-2.866-6.893-7.822c-1.255,0.651-2.448,0.876-2.932,1.585c-3.491,5.125-7.249,10.134-10.106,15.606
			c-2.461,4.715-5.223,8.548-10.576,9.894c-0.969,2.993-0.599,4.884,3.249,4.672c0.95-0.052,2.16,0.874,2.912,1.671
			c1.819,1.929,3.528,2.522,6.722-0.693c-1.503-1.072-2.854-2.034-4.497-3.206c0.234-0.517,0.511-1.481,1.053-2.261
			c3.469-4.995,7.094-9.882,10.469-14.938c2.272-3.403,3.819-3.574,6.747-0.38c0.542,0.592,1.362,0.952,2.097,1.338
			c3.206,1.688,6.464,3.279,9.634,5.03c4.087,2.259,8.094,4.664,12.165,6.952c2.167,1.217,4.436,2.256,6.585,3.501
			c1.2,0.694,2.134,2.03,3.39,2.409c3.179,0.961,3.482,2.872,2.148,5.384c-0.662,1.247-1.916,2.18-2.577,3.428
			c-1.478,2.793-2.521,5.836-4.178,8.508C535.507,266.921,533.487,268.822,531.396,271.293z M453.211,343.973
			c-35.597-2.35-70.656-0.871-105.613-1.584c-0.778,4.8-0.357,5.429,3.776,5.598c2.116,0.086,4.242-0.176,6.363-0.166
			c23.479,0.113,46.957,0.261,70.437,0.371c8.305,0.039,16.609,0.007,25.341,0.007c-0.814,3.693-3.479,6.268-6.718,8.521
			c-0.837,0.581-1.318,1.673-1.963,2.531c0.317,0.302,0.635,0.604,0.952,0.908c12.374-4.374,24.748-8.748,37.472-13.246
			c-0.286-3.151-3.497-3.688-6.049-4.409c-5.814-1.644-11.793-2.705-17.608-4.347c-3.164-0.894-6.129-2.489-9.185-3.767
			c-1.635-0.683-3.272-1.36-5.738-2.387C445.062,338.743,452.858,338.61,453.211,343.973z M379.256,111.738
			c-1.476,0-2.846-0.109-4.191,0.023c-2.967,0.29-3.786,2.244-2.022,4.647c1.344,1.833-1.031,7.565-3.341,7.624
			c-5.441,0.137-9.443,2.681-13.179,6.448c-4.232,4.269-5.346,9.273-4.483,14.821c0.24,1.554,1.674,3.812,2.945,4.111
			c2.014,0.475,4.559,0.015,6.494-0.881c1.755-0.812,2.913-2.451,4.149,0.434c0.203,0.475,1.209,0.745,1.886,0.855
			c3.472,0.568,5.974-1.474,6.987-5.692c-1.705-1.211-4.218-2.045-2.466-5.082c0.752-1.305,1.137-2.838,1.584-4.301
			c1.486-4.868,2.385-10.013,4.578-14.534C379.622,117.276,380.19,114.867,379.256,111.738z M130.863,328.574
			c2.926,6.568-0.669,11.491-2.204,16.654c-1.508,5.074-3.812,9.912-6.045,15.558c6.39-0.456,12.629-0.468,18.708-1.459
			c6.021-0.98,8.432-7.402,5.725-12.891c-0.875-1.773-1.927-3.858,0.94-5.774c3.568-2.383,3.597-9.321,0.335-11.039
			C142.815,326.721,137.069,328.594,130.863,328.574z M122.775,57.392c1.216-5.42,2.371-10.295,3.378-15.199
			c0.393-1.915,0.72-3.924,0.529-5.835c-0.069-0.688-1.84-1.794-2.665-1.662c-0.908,0.146-2.463,1.811-2.291,2.279
			c1.7,4.597-1.836,8.274-2.042,12.549c-0.106,2.214-2.067,4.303-2.97,6.537c-0.299,0.739-0.168,2.392,0.208,2.545
			c3.019,1.234,6.129,2.258,9.254,3.204c0.397,0.12,1.184-0.465,1.551-0.918c3.556-4.382,7.955-7.844,11.172-12.76
			c7.01-10.712,6.543-21.108,1.417-31.986c-0.429-0.909-1.709-1.416-2.595-2.11c-0.333,0.244-0.667,0.489-1,0.733
			c0.224,1.401,0.389,2.815,0.681,4.203c1.484,7.066,1.668,14.172-0.584,21.042c-1.307,3.989-3.21,7.908-5.538,11.396
			C129.532,54.029,127.795,57.419,122.775,57.392z M335.515,340.586c0-2.095,0.063-3.344-0.014-4.584
			c-0.163-2.686,0.142-5.65-3.271-6.748c-4.568-1.469-10.838-0.3-12.333,2.556c-3.584,6.847-7.056,13.669-6.363,21.905
			c0.276,3.288,1.327,5.485,4.102,6.764c2.655,1.223,10.302-0.218,11.603-1.994C333.319,352.909,336.157,346.906,335.515,340.586z
			 M108.238,26.408c0,1.855,0.166,3.573-0.039,5.247c-0.308,2.516-0.535,5.14-1.474,7.44c-0.489,1.198-2.43,1.804-3.715,2.677
			c-0.611-1.237-1.499-2.419-1.763-3.726c-0.341-1.69,0.101-3.551-0.313-5.208c-0.51-2.042-1.118-4.394-2.516-5.765
			c-1.018-1-3.404-0.888-5.135-0.741c-0.72,0.061-1.976,1.64-1.838,2.281c0.247,1.149,1.388,2.094,2.113,3.154
			c0.991,1.449,2.55,2.832,2.791,4.408c0.562,3.679,0.637,7.457,0.625,11.194c-0.017,5.25-3.312,8.425-8.548,8.777
			c-0.963,0.064-2.466,0.596-2.683,1.253c-0.308,0.936,0.077,2.96,0.639,3.154c1.576,0.546,4.104,1.183,4.998,0.382
			c4.384-3.932,8.496-8.198,12.419-12.598c1.986-2.228,2.867-5.681,5.148-7.352c3.387-2.481,4.344-5.795,4.986-9.333
			C114.671,27.587,113.06,26.116,108.238,26.408z M254.9,339.208c1.342-1.236,2.898-1.981,3.118-3.011
			c0.5-2.342,0.372-4.822,0.394-7.247c0.001-0.189-0.819-0.521-1.276-0.558c-6.091-0.49-12.195-0.941-18.059,1.38
			c-0.968,0.383-1.856,1.073-2.651,1.771c-3.017,2.646-4.767,6.052-6.711,9.561c-2.424,4.374-1.621,8.377-0.91,12.478
			c0.336,1.935,1.965,4.289,3.679,5.221c5.131,2.791,10.713,2.957,16.222,0.884c1.409-0.531,2.789-1.385,3.884-2.409
			c0.62-0.581,0.632-1.812,0.918-2.749c-1.189,0.2-2.484,0.168-3.544,0.65c-2.088,0.949-3.948,2.862-6.076,3.168
			c-5.517,0.793-9.675-3.188-9.661-8.793c0.018-7.647,2.594-13.83,9.749-17.723c4.785-2.603,8.585-1.322,9.628,3.759
			C253.797,336.532,254.25,337.423,254.9,339.208z M43.344,327.343c-0.575-0.129-1.15-0.258-1.726-0.387
			c-1.604,1.935-3.548,3.681-4.742,5.842c-2.808,5.08-7.651,8.495-10.203,13.977c-2.009,4.314-6.378,7.53-10.596,12.237
			c3.054,0.424,5.182,1.152,7.091,0.774c0.78-0.153,0.897-2.812,1.655-4.136c1.052-1.84,2.125-3.891,3.743-5.123
			c1.682-1.28,4.422-2.373,5.898,0.04c0.809,1.322,0.143,3.641-0.111,5.475c-0.101,0.729-0.887,1.364-2.129,3.14
			c3.245,0.297,5.67,0.652,8.099,0.674c0.925,0.008,1.857-0.752,2.786-1.162c-0.504-0.663-1.073-1.289-1.493-2.002
			c-0.359-0.608-0.816-1.337-0.768-1.979c0.363-4.793,0.839-9.579,1.284-14.367C42.533,336.01,42.939,331.677,43.344,327.343z
			 M183.94,63.139c0.155-5.373-3.999-10.412-8.57-10.771c-5.929-0.466-10.291,6.176-10.698,11.085
			c-0.259,3.119,6.099,8.251,10.074,8.385C179.23,71.99,183.81,67.657,183.94,63.139z M26.195,26.358
			c1.222,1.761,1.7,3.084,2.639,3.679c2.204,1.394,5.767,6.909,4.465,8.987c-1.723,2.753-4.559,5.158-7.458,6.69
			c-1.653,0.874-3.865,0.79-3.317,3.171c0.174,0.756,2.521,1.231,3.926,1.398c0.764,0.091,1.716-0.627,2.446-1.166
			c1.714-1.268,3.345-2.647,5.082-4.039c2.053,4.932,3.673,6.272,6.432,5.518c3.098-0.847,4.486-3.211,3.939-6.101
			c-1.663-0.587-3.781-0.69-4.377-1.695c-0.951-1.604-1.302-3.841-1.148-5.75c0.183-2.286,0.985-4.598,4.059-4.797
			c4.944-0.321,5.172-0.744,3.353-6.476c-1.716,0.517-3.547,0.893-5.222,1.625c-1.541,0.672-2.86,2.24-4.385,2.403
			c-0.794,0.085-1.822-2.009-3.019-3.449C31.979,26.358,29.77,26.358,26.195,26.358z M161.234,352.947
			c-0.215-3.684-0.236-7.169-0.715-10.59c-0.176-1.26-1.224-3.073-2.251-3.384c-1.654-0.501-3.623,0.035-5.458,0.134
			c0.154,1.043,0.19,2.955,0.479,2.994c2.896,0.39,2.673,2.488,2.731,4.466c0.091,3.114,0.406,6.248,0.159,9.336
			c-0.203,2.534-0.62,5.29-1.871,7.397c-0.597,1.004-3.352,0.726-5.128,1.034c-0.245,0.042-0.595,0.034-0.708,0.188
			c-0.75,1.02-1.901,2.04-1.993,3.138c-0.055,0.662,1.589,2.108,2.423,2.074c1.912-0.079,4.453-0.24,5.574-1.448
			c4.571-4.928,8.744-10.229,12.975-15.465c1.369-1.693,2.608-3.53,3.638-5.447c0.833-1.551,1.589-3.282,1.791-5.003
			c0.269-2.302-1.096-4.013-3.471-3.657c-0.696,0.104-1.74,2.55-1.47,3.636c1.153,4.652-3.541,6.654-4.379,10.344
			C163.509,352.911,162.235,352.851,161.234,352.947z M32.253,14.391c-2.346-0.111-3.776-0.633-4.393-0.139
			c-7,5.606-13.002,11.974-16.202,20.662c-2.229,6.052-1.343,21.708,4.541,25.815c0.365-8.335-0.438-17.015,1.432-25.074
			C19.502,27.587,25.21,20.902,32.253,14.391z M65.113,354.51c-4.158,0.307-3.882-2.665-4.498-5.345
			c-0.636-2.77,0.998-5.76,3.744-6.534c1.211-0.342,2.12-1.761,3.166-2.69c-1.32-0.551-2.605-1.359-3.974-1.543
			c-0.685-0.092-1.458,1.222-2.305,1.428c-1.472,0.357-4.032,0.972-4.395,0.392c-2.343-3.754-4.893-1.067-7.558-0.577
			c1.109,1.554,2.981,2.354,3.662,3.74c1.027,2.09,2.352,5.168,1.523,6.786c-1.434,2.799-3.117,6.439-7.63,6.07
			c-0.87-0.07-1.839,1.075-2.763,1.659c0.823,0.771,1.529,1.833,2.505,2.222c0.75,0.299,1.992,0,2.745-0.469
			c2.282-1.419,4.432-3.051,5.689-3.936c1.999,1.601,3.607,3.915,5.431,4.099C62.971,360.064,65.446,358.517,65.113,354.51z
			 M106.124,346.871c1.731-4.404,1.623-4.593-2.704-4.693c-1.123-0.026-2.258-0.092-3.369,0.026
			c-2.574,0.274-3.272-0.964-3.086-3.319c0.16-2.021,0.033-4.064,0.033-6.236c-3.732,0.108-4.436,1.844-4.095,4.698
			c0.562,4.723,0.369,4.84-4.442,4.834c-0.5,0-1.019-0.097-1.495,0.009c-1.536,0.34-3.92-0.449-3.791,2.356
			c0.128,2.777,2.339,2.428,4.173,2.398c5.596-0.09,5.607-0.11,5.388,5.728c-0.075,1.979-0.085,3.849,2.661,3.887
			c3.099,0.042,2.033-2.107,1.931-3.695c-0.389-6.01-0.403-5.994,5.484-5.827C103.928,347.068,105.049,346.93,106.124,346.871z
			 M186.75,346.487c3.748,0.361,7.31,0.704,11.223,1.081c0,2.512-0.185,4.752,0.092,6.934c0.11,0.876,1.236,1.623,1.9,2.43
			c0.53-0.943,1.411-1.849,1.517-2.837c0.233-2.159,0.073-4.361,0.073-6.939c1.973,0,3.449,0.058,4.918-0.014
			c2.206-0.106,5.513,0.793,5.431-2.604c-0.074-3.078-3.218-2.151-5.273-2.121c-5.524,0.081-5.607-0.033-5.623-5.526
			c-0.005-1.566-0.57-3.132-0.879-4.698c-0.568,0.053-1.137,0.105-1.705,0.158c-0.205,3.224-0.41,6.448-0.563,8.854
			C194.481,344.446,188.628,339.174,186.75,346.487z M50.677,57.403c2.563,2.821,3.23,3.007,6.196,0.302
			c0.849-0.773,0.864-2.5,1.185-3.809c1.255-5.135,2.57-10.258,3.645-15.431c0.242-1.163-0.004-3.203-0.722-3.61
			c-1.112-0.631-3.004-0.603-4.204-0.059c-0.608,0.276-0.644,2.308-0.565,3.522C56.655,45.226,53.679,51.009,50.677,57.403z
			 M286.343,347.278c0-0.017,0-0.032,0-0.049c-3.355,0-6.721-0.147-10.058,0.096c-0.923,0.067-1.761,1.298-2.638,1.994
			c0.854,0.506,1.699,1.433,2.563,1.449c6.457,0.129,12.919,0.147,19.376-0.002c0.844-0.02,1.661-1.193,2.491-1.833
			c-0.926-0.553-1.824-1.513-2.784-1.579C292.323,347.146,289.328,347.278,286.343,347.278z M63.756,57.116
			c3.602,0.979,6.74-1.538,7.339-6.956c0.144-1.303-0.395-2.887-1.14-3.992c-0.344-0.509-2.399-0.619-2.87-0.131
			c-0.966,1.002-1.617,2.469-1.98,3.854C64.489,52.234,64.196,54.663,63.756,57.116z M298.389,342.237
			c-0.031-0.346-0.063-0.69-0.094-1.036c-8.155,0-16.311,0-24.466,0c-0.027,0.409-0.054,0.818-0.082,1.228
			c1.251,0.171,2.497,0.435,3.753,0.497c4.055,0.202,8.307-0.365,12.117,0.688C293.23,344.612,295.593,343.195,298.389,342.237z
			 M438.524,222.738c1.181-1.967,2.452-3.136,2.373-4.206c-0.087-1.184-1.41-2.276-2.194-3.409c-1.119,1.275-2.57,2.413-3.184,3.896
			C435.291,219.574,437.015,220.937,438.524,222.738z M402.169,199.36c1.986,1.421,3.238,2.903,3.918,2.675
			c1.28-0.43,2.232-1.843,3.321-2.848c-1.035-0.954-1.965-2.459-3.137-2.679C405.403,196.345,404.222,197.854,402.169,199.36z
			 M236.799,97.749c-0.301,0.341-0.603,0.684-0.905,1.025c0.778,1.746,1.486,3.532,2.436,5.178c0.1,0.171,2.194-0.275,2.384-0.794
			c0.476-1.302,1.021-3.366,0.374-4.097C240.245,98.106,238.281,98.14,236.799,97.749z M360.582,168.946
			c-0.428,0.251-0.855,0.502-1.284,0.754c0.168,1.844,0.185,3.729,0.658,5.49c0.074,0.274,2.574,0.423,3.33-0.168
			c0.705-0.55,1.135-2.487,0.697-3.231C363.277,170.591,361.758,169.869,360.582,168.946z M428.145,213.712
			c-0.393-2.058-0.561-3.84-1.185-5.444c-0.122-0.313-2.755-0.268-2.955,0.182c-0.682,1.526-0.792,3.307-1.173,5.262
			C424.784,213.712,426,213.712,428.145,213.712z M375.134,183.676c0.594-2.121,3.021-4.292-0.344-5.871
			c-0.781-0.367-3.058,0.473-3.214,1.11C370.987,181.301,371.225,183.675,375.134,183.676z M331.31,156.348
			c0.333-0.433,0.665-0.867,0.998-1.299c-0.601-1.259-0.913-2.932-1.907-3.632c-0.663-0.467-2.475,0.199-3.433,0.855
			c-0.505,0.347-0.61,2.437-0.329,2.574C328.095,155.554,329.734,155.886,331.31,156.348z M300.599,135.542
			c-0.151-0.509-0.302-1.018-0.453-1.527c-1.684-1.201-3.439-3.45-5.403-0.699c-0.605,0.849,0.396,2.845,0.662,4.315
			C297.135,136.935,298.867,136.238,300.599,135.542z M467.297,234.471c-0.033-0.595-0.066-1.189-0.1-1.784
			c-1.675-0.153-3.35-0.307-5.024-0.46c0.175,1.542-0.231,3.804,0.626,4.493C465.914,239.219,465.136,234.255,467.297,234.471z
			 M525.257,267.428c-2.23-1.091-4.342-2.367-5.899,0.219c-0.442,0.735,0.251,3.15,0.928,3.394
			C523.311,272.127,524.055,269.57,525.257,267.428z M492.338,253.745c1.956,1.281,3.029,1.985,4.603,3.017
			c0.664-1.824,1.349-3.285,1.62-4.818c0.054-0.301-1.752-1.454-2.251-1.227C495.007,251.311,493.953,252.451,492.338,253.745z
			 M249.164,104.906c0.654,2.901,1.032,4.578,1.41,6.253c0.908-0.222,2.374-0.192,2.612-0.717c0.566-1.25,0.979-2.897,0.599-4.118
			C253.583,105.682,251.59,105.597,249.164,104.906z M417.23,210.306c0.624,0.196,1.248,0.391,1.871,0.587
			c0.988-1.649,1.976-3.298,2.963-4.947c-1.486-0.288-2.973-0.576-4.46-0.864C417.48,206.824,417.355,208.565,417.23,210.306z
			 M228.203,96.271c0-2.499,0-4.273,0-6.577c-1.395,0.356-3.203,0.377-3.405,0.957c-0.488,1.407-0.451,3.121-0.137,4.608
			C224.755,95.703,226.466,95.805,228.203,96.271z M279.648,126.025c0.311-0.492,0.621-0.982,0.932-1.474
			c-0.776-1.164-1.318-2.804-2.404-3.335c-0.831-0.406-2.531,0.345-3.479,1.063c-0.458,0.348-0.343,2.52-0.024,2.64
			C276.246,125.513,277.975,125.697,279.648,126.025z M348.507,161.165c-1.26,2.471-2.148,4.212-3.036,5.954
			c0.239,0.322,0.479,0.645,0.718,0.967c1.775-0.254,3.55-0.506,5.537-0.79C350.637,165.222,349.828,163.682,348.507,161.165z
			 M434.585,217.534c-0.869-2.047-1.523-3.59-2.178-5.133c-1.123,0.702-3.041,1.24-3.227,2.137
			C428.54,217.634,430.811,217.802,434.585,217.534z M448.489,228.877c4.05,1.014,5.12-0.335,4.63-2.763
			c-0.188-0.934-1.471-1.646-2.256-2.458C450.115,225.301,449.367,226.946,448.489,228.877z M281.449,128.917
			c0.42,0.398,0.839,0.795,1.258,1.192c1.223-0.476,3.348-0.775,3.482-1.463c0.296-1.508-0.418-3.214-0.72-4.839
			c-0.544-0.063-1.088-0.126-1.632-0.19C283.042,125.383,282.245,127.151,281.449,128.917z M368.208,172.925
			c-1.423,1.61-2.785,2.479-2.771,3.325c0.015,0.864,1.344,2.34,2.165,2.388c0.918,0.053,2.462-1.045,2.706-1.927
			C370.521,175.945,369.305,174.78,368.208,172.925z M506.417,257.041c-1.978-1.375-3.2-2.72-3.728-2.486
			c-0.983,0.434-1.948,1.709-2.158,2.783c-0.115,0.586,1.304,2.039,2.087,2.082C503.491,259.468,504.43,258.361,506.417,257.041z
			 M441.614,220.976c-0.062,0.507-0.123,1.015-0.185,1.521c1.984,0.111,2.219,4.134,5.085,1.864
			c0.638-0.506,0.314-2.225,0.434-3.385C445.17,220.976,443.393,220.976,441.614,220.976z M317.453,148.824
			c0.115-1.681,0.709-3.396,0.135-4.504c-0.358-0.692-2.482-0.468-3.986-0.68c0,1.639,0,2.723,0,3.871
			C314.733,147.896,315.756,148.245,317.453,148.824z M264.225,119.301c0.495-0.08,0.99-0.16,1.485-0.24
			c0.166-1.609,0.682-3.308,0.309-4.781c-0.132-0.521-2.431-0.495-3.74-0.719c-0.29,0.36-0.58,0.72-0.87,1.08
			C262.347,116.194,263.286,117.748,264.225,119.301z M235.545,96.723c-1.07-1.239-1.84-2.131-2.611-3.024
			c-0.857,1.053-2.179,2.02-2.393,3.19c-0.124,0.675,1.538,1.679,2.397,2.535C233.692,98.643,234.446,97.862,235.545,96.723z
			 M383.838,189.231c2.157,0.264,3.784,0.463,5.411,0.663c0.255-0.382,0.51-0.765,0.765-1.147c-1.058-1.353-2.117-2.706-3.403-4.35
			C385.539,186.263,384.952,187.287,383.838,189.231z M345.689,161.43c-0.102-0.646-0.203-1.29-0.305-1.935
			c-1.793,0.106-3.586,0.212-5.379,0.319c0.175,1.046,0.35,2.093,0.524,3.14C342.25,162.446,343.97,161.938,345.689,161.43z
			 M409.574,204.23c1.929,2.015,3.812,1.836,5.49,0.09c0.238-0.249-0.476-2.055-1.143-2.419
			C411.515,200.587,410.367,202.06,409.574,204.23z M218.485,91.946c0.468,0.195,0.936,0.389,1.403,0.583
			c0.824-1.335,1.903-2.603,2.291-4.054c0.099-0.369-2.004-1.326-3.998-2.582C218.324,88.734,218.404,90.34,218.485,91.946z
			 M335.698,160.752c1.064-1.334,2.257-2.19,2.169-2.885c-0.103-0.815-1.482-2.197-2.018-2.074c-1.04,0.241-1.877,1.36-2.797,2.116
			C333.755,158.663,334.456,159.417,335.698,160.752z M303.964,135.62c-0.691,0.144-1.383,0.287-2.074,0.431
			c0,1.667,0,3.333,0,4.999c1.253-0.443,2.506-0.887,3.759-1.331C305.087,138.354,304.526,136.987,303.964,135.62z M268.171,120.349
			c0.104,0.446,0.208,0.893,0.312,1.339c1.739-0.547,3.479-1.095,5.218-1.643c-0.643-1.287-1.286-2.575-2.194-4.391
			C269.959,117.833,269.065,119.09,268.171,120.349z M197.01,75.761c-0.719-1.774-0.95-3.134-1.738-3.965
			c-0.41-0.432-2.362-0.256-2.637,0.217c-0.574,0.987-0.498,2.353-0.717,3.749C193.633,75.761,194.805,75.761,197.01,75.761z
			 M307.637,139.785c0.233,1.682-1.767,4.172,1.814,4.377c0.814,0.047,2.414-1.122,2.422-1.747
			C311.903,140.147,310.885,138.578,307.637,139.785z M460.513,231.319c-0.139-0.759-0.277-1.519-0.416-2.277
			c-1.466,0.074-2.931,0.148-4.396,0.223c0.091,1.12,0.182,2.24,0.272,3.36C457.487,232.189,459,231.754,460.513,231.319z
			 M293.788,131.75c-0.161-0.783-0.322-1.567-0.483-2.351c-1.68,0.179-3.36,0.36-5.04,0.539c0.286,0.981,0.641,2.822,0.845,2.806
			C290.686,132.615,292.233,132.127,293.788,131.75z M198.29,75.457c-0.5,5.044-0.262,5.288,3.718,4.187
			c0.072-1.134,0.147-2.327,0.242-3.828C200.854,75.689,199.68,75.583,198.29,75.457z M261.174,112.13
			c-1.56-1.183-2.465-2.384-3.199-2.287c-0.823,0.107-1.491,1.392-2.226,2.164c0.76,0.684,1.438,1.738,2.308,1.931
			C258.7,114.08,259.591,113.101,261.174,112.13z M397.17,191.749c-1.937-1.309-2.861-2.414-3.747-2.383
			c-0.731,0.026-1.934,1.37-1.97,2.173c-0.031,0.722,1.145,1.95,1.964,2.124C394.156,193.818,395.135,192.85,397.17,191.749z
			 M322.021,146.13c-1.145,1.822-2.282,2.866-2.091,3.526c0.23,0.798,1.521,1.527,2.483,1.769c0.421,0.105,1.706-1.138,1.644-1.652
			C323.941,148.832,323.117,147.978,322.021,146.13z M469.837,234.954c-0.987,1.958-2.961,3.537-0.781,5.301
			c0.656,0.531,2.789-0.763,4.401-1.271C471.988,237.35,471.089,236.348,469.837,234.954z M248.779,105.437
			c-1.548-1.611-2.543-3.429-3.422-3.373c-1.244,0.078-2.4,1.538-3.594,2.407c0.097,0.322,0.193,0.644,0.29,0.966
			C243.926,105.437,245.798,105.437,248.779,105.437z M380.353,181.584c-1.016,0.824-2.011,1.632-3.198,2.595
			c1.26,1.12,2.299,2.044,3.347,2.976c0.927-1.061,1.777-2.034,2.657-3.042C382.258,183.302,381.374,182.505,380.353,181.584z
			 M399.93,198.345c1.048-1.438,2.144-2.334,1.989-2.869c-0.257-0.89-1.316-1.548-2.038-2.304c-0.752,0.731-1.951,1.376-2.111,2.22
			C397.646,196.037,398.837,196.932,399.93,198.345z M505.983,260.653c1.351,1.313,2.081,2.023,2.812,2.733
			c0.771-0.838,1.901-1.577,2.168-2.552c0.15-0.544-1.063-1.985-1.803-2.099C508.424,258.624,507.512,259.67,505.983,260.653z
			 M479.261,242.588c0.508-4.312-1.952-3.534-4.265-3.244C473.908,243.855,476.488,243.139,479.261,242.588z M191.185,70.337
			c-1.817-1.086-2.857-2.204-3.7-2.071c-0.833,0.132-1.468,1.526-2.19,2.366c0.871,0.488,1.724,1.313,2.62,1.363
			C188.703,72.041,189.541,71.22,191.185,70.337z M516.598,262.311c-1.36,0.622-2.65,0.854-3.281,1.627
			c-0.424,0.52-0.243,2.313,0.248,2.628c0.846,0.542,2.146,0.375,3.609,0.547C516.954,265.283,516.812,264.094,516.598,262.311z
			 M352.121,167.854c1.713,4.521,1.713,4.521,6.04,0C355.822,167.854,354.061,167.854,352.121,167.854z"/>
		<path fill-rule="evenodd" clip-rule="evenodd" d="M531.396,271.293c2.092-2.471,4.111-4.372,5.522-6.65
			c1.656-2.672,2.7-5.715,4.178-8.508c0.661-1.248,1.915-2.181,2.577-3.428c1.334-2.512,1.03-4.423-2.148-5.384
			c-1.256-0.379-2.189-1.715-3.39-2.409c-2.149-1.245-4.418-2.284-6.585-3.501c-4.071-2.288-8.078-4.693-12.165-6.952
			c-3.17-1.751-6.428-3.342-9.634-5.03c-0.734-0.386-1.555-0.747-2.097-1.338c-2.928-3.194-4.475-3.023-6.747,0.38
			c-3.375,5.055-7,9.942-10.469,14.938c-0.542,0.779-0.818,1.744-1.053,2.261c1.644,1.172,2.994,2.134,4.497,3.206
			c-3.193,3.216-4.902,2.622-6.722,0.693c-0.752-0.797-1.962-1.723-2.912-1.671c-3.848,0.212-4.218-1.679-3.249-4.672
			c5.354-1.346,8.115-5.179,10.576-9.894c2.857-5.472,6.615-10.481,10.106-15.606c0.483-0.709,1.677-0.934,2.932-1.585
			c-0.258,4.956,2.749,6.452,6.893,7.822c3.409,1.127,6.223,4.034,9.331,6.105c0.784,0.522,1.693,0.854,2.531,1.302
			c2.438,1.302,4.845,2.666,7.307,3.92c5.141,2.62,10.252,5.315,15.521,7.651c0.904,0.401,3.151-0.438,3.718-1.357
			c3.234-5.255,6.035-10.776,9.208-16.072c2.47-4.121,5.447-7.94,7.87-12.084c2.811-4.807,5.13-9.899,7.908-14.725
			c2.423-4.208,5.268-8.171,7.785-12.329c3.334-5.511,6.448-11.156,9.813-16.649c2.915-4.759,6.187-9.302,9.045-14.092
			c3.254-5.454,6.193-11.095,9.33-16.62c3.117-5.491,6.115-11.066,9.532-16.368c2.84-4.406,6.331-8.387,9.303-12.715
			c1.661-2.421,2.847-5.17,4.258-7.765c2.667-4.905,5.321-9.817,8.023-14.703c0.944-1.706,1.88-3.451,3.093-4.958
			c0.491-0.609,1.713-0.629,2.698-0.948c1.357,4.51-0.359,7.763-2.646,11.129c-2.981,4.39-5.432,9.138-8.204,13.674
			c-4.459,7.289-9.023,14.512-13.485,21.797c-2.292,3.742-4.383,7.607-6.7,11.333c-2.611,4.199-5.555,8.199-8.025,12.475
			c-2.781,4.81-5.001,9.946-7.823,14.729c-2.922,4.952-6.361,9.595-9.413,14.475c-2.657,4.249-5.037,8.671-7.639,12.958
			c-2.797,4.61-5.823,9.082-8.537,13.738c-2.796,4.796-5.317,9.751-8.002,14.612c-0.567,1.029-1.381,1.921-1.983,2.933
			c-2.089,3.509-4.059,7.091-6.216,10.558c-2.568,4.125-5.359,8.113-7.903,12.251c-1.453,2.362-2.529,4.951-3.913,7.359
			c-2.979,5.187-6.081,10.302-9.049,15.494c-0.576,1.01-1.119,2.254-1.066,3.361c0.104,2.19-0.511,3.516-2.739,4.132
			c-0.772,0.214-1.547,1.006-1.992,1.734c-3.699,6.068-7.368,12.156-10.953,18.293c-2.808,4.806-5.371,9.756-8.25,14.517
			c-2.344,3.878-5.094,7.51-7.46,11.376c-0.919,1.504-1.021,3.505-1.933,5.014c-5.361,8.872-10.901,17.636-16.28,26.497
			c-3.483,5.738-6.731,11.619-10.201,17.366c-2.518,4.17-5.296,8.183-7.834,12.341c-3.456,5.663-6.72,11.444-10.201,17.092
			c-4.49,7.283-9.135,14.473-13.669,21.729c-1.27,2.032-2.398,4.154-3.57,6.248c-2.497,4.463-4.903,8.98-7.49,13.392
			c-2.803,4.78-5.695,9.514-8.734,14.146c-0.481,0.732-1.941,0.823-2.949,1.211c-0.348-1.36-1.322-2.955-0.918-4.034
			c0.912-2.436,2.508-4.614,3.823-6.897c1.109-1.927,2.141-3.904,3.346-5.77c1.613-2.497,3.506-4.822,5.023-7.373
			c3.367-5.659,6.502-11.456,9.866-17.117c3.89-6.543,7.94-12.99,11.89-19.498c3.521-5.802,6.402-11.917,10.92-17.203
			c3.371-3.945,5.23-9.163,7.889-13.741c2.92-5.03,6.035-9.945,8.963-14.971c1.978-3.395,3.637-6.98,5.692-10.324
			c2.532-4.116,5.519-7.958,7.971-12.118c4.661-7.909,9.048-15.98,13.612-23.945c3.997-6.974,8.014-13.936,12.161-20.818
			c1.652-2.742,3.749-5.213,5.474-7.916c0.346-0.541,0.056-2.23-0.175-2.279c-2.273-0.478-3.19-1.993-2.01-3.711
			c0.551-0.801,2.755-0.484,4.214-0.627C531.017,271.141,531.391,271.292,531.396,271.293z"/>
		<path fill-rule="evenodd" clip-rule="evenodd" d="M453.211,343.973c-0.353-5.362-8.149-5.229-8.533-11.97
			c2.466,1.026,4.104,1.704,5.738,2.387c3.056,1.277,6.021,2.873,9.185,3.767c5.815,1.642,11.794,2.703,17.608,4.347
			c2.552,0.722,5.763,1.258,6.049,4.409c-12.724,4.498-25.098,8.872-37.472,13.246c-0.317-0.304-0.635-0.606-0.952-0.908
			c0.645-0.858,1.126-1.95,1.963-2.531c3.239-2.253,5.903-4.827,6.718-8.521c-8.731,0-17.036,0.032-25.341-0.007
			c-23.479-0.11-46.958-0.258-70.437-0.371c-2.121-0.01-4.247,0.252-6.363,0.166c-4.134-0.169-4.555-0.798-3.776-5.598
			C382.555,343.102,417.614,341.623,453.211,343.973z"/>
		<path fill-rule="evenodd" clip-rule="evenodd" d="M379.256,111.738c0.935,3.129,0.366,5.538-1.059,8.474
			c-2.193,4.521-3.092,9.666-4.578,14.534c-0.447,1.462-0.832,2.996-1.584,4.301c-1.752,3.037,0.761,3.87,2.466,5.082
			c-1.014,4.218-3.516,6.26-6.987,5.692c-0.677-0.111-1.683-0.381-1.886-0.855c-1.236-2.885-2.395-1.246-4.149-0.434
			c-1.936,0.896-4.48,1.356-6.494,0.881c-1.271-0.299-2.705-2.558-2.945-4.111c-0.862-5.548,0.251-10.552,4.483-14.821
			c3.735-3.767,7.737-6.311,13.179-6.448c2.31-0.059,4.685-5.791,3.341-7.624c-1.764-2.403-0.944-4.357,2.022-4.647
			C376.41,111.629,377.78,111.738,379.256,111.738z M358.276,144.824c1.602-0.867,2.972-1.439,4.15-2.28
			c3.001-2.141,5.415-4.789,6.247-8.524c0.294-1.32,0.961-3.466,0.425-3.873c-1.106-0.839-3.036-1.293-4.399-0.964
			C359.792,130.369,356.355,137.035,358.276,144.824z"/>
		<path fill-rule="evenodd" clip-rule="evenodd" d="M130.863,328.574c6.207,0.02,11.953-1.854,17.46,1.049
			c3.261,1.718,3.233,8.656-0.335,11.039c-2.867,1.916-1.814,4.001-0.94,5.774c2.707,5.488,0.296,11.91-5.725,12.891
			c-6.079,0.991-12.318,1.003-18.708,1.459c2.233-5.646,4.537-10.483,6.045-15.558C130.194,340.065,133.789,335.143,130.863,328.574
			z M143.057,349.629c0.096-3.175-2.449-5.483-6.382-5.789c-2.219-0.172-5.045,5.954-4.813,11.093
			c0.033,0.737,1.638,1.962,2.561,2.007C139.421,357.184,142.922,354.083,143.057,349.629z M137.939,341.114
			c3.982-0.116,7.993-3.64,7.894-6.007c-0.079-1.866-3.339-4.549-5.464-4.495c-2.049,0.051-4.266,4.548-3.87,8.394
			C136.594,339.927,137.671,340.744,137.939,341.114z"/>
		<path fill-rule="evenodd" clip-rule="evenodd" d="M122.775,57.392c5.02,0.027,6.757-3.362,8.505-5.98
			c2.328-3.488,4.231-7.407,5.538-11.396c2.252-6.87,2.068-13.976,0.584-21.042c-0.292-1.387-0.457-2.801-0.681-4.203
			c0.333-0.245,0.667-0.489,1-0.733c0.885,0.694,2.166,1.201,2.595,2.11c5.126,10.877,5.593,21.274-1.417,31.986
			c-3.217,4.917-7.616,8.378-11.172,12.76c-0.367,0.453-1.154,1.038-1.551,0.918c-3.125-0.946-6.235-1.97-9.254-3.204
			c-0.376-0.154-0.507-1.806-0.208-2.545c0.903-2.234,2.864-4.323,2.97-6.537c0.205-4.275,3.741-7.952,2.042-12.549
			c-0.173-0.468,1.382-2.133,2.291-2.279c0.825-0.132,2.596,0.974,2.665,1.662c0.191,1.911-0.136,3.92-0.529,5.835
			C125.146,47.097,123.991,51.971,122.775,57.392z"/>
		<path fill-rule="evenodd" clip-rule="evenodd" d="M335.515,340.586c0.643,6.32-2.195,12.323-6.276,17.898
			c-1.301,1.776-8.948,3.217-11.603,1.994c-2.775-1.278-3.825-3.476-4.102-6.764c-0.692-8.236,2.779-15.059,6.363-21.905
			c1.495-2.855,7.765-4.024,12.333-2.556c3.412,1.098,3.107,4.063,3.271,6.748C335.577,337.242,335.515,338.491,335.515,340.586z
			 M331.819,335.239c-0.914-1.146-2.04-2.899-3.572-4.159c-0.267-0.221-2.562,1.408-3.367,2.567
			c-2.929,4.212-4.854,8.784-5.306,14.06c-0.268,3.119-1.902,6.038-0.195,9.307c1.164,2.228,2.548,2.707,4.295,0.954
			c2.679-2.69,4.256-5.906,5.06-9.588C329.623,344.311,330.633,340.267,331.819,335.239z"/>
		<path fill-rule="evenodd" clip-rule="evenodd" d="M108.238,26.408c4.822-0.292,6.433,1.179,5.695,5.246
			c-0.642,3.538-1.599,6.852-4.986,9.333c-2.281,1.671-3.162,5.124-5.148,7.352c-3.924,4.4-8.036,8.666-12.419,12.598
			c-0.894,0.801-3.421,0.164-4.998-0.382c-0.562-0.194-0.946-2.219-0.639-3.154c0.216-0.657,1.719-1.188,2.683-1.253
			c5.236-0.352,8.531-3.527,8.548-8.777c0.012-3.737-0.063-7.515-0.625-11.194c-0.241-1.577-1.8-2.959-2.791-4.408
			c-0.725-1.06-1.866-2.005-2.113-3.154c-0.138-0.641,1.118-2.22,1.838-2.281c1.731-0.146,4.117-0.258,5.135,0.741
			c1.397,1.371,2.005,3.723,2.516,5.765c0.415,1.657-0.028,3.519,0.313,5.208c0.264,1.307,1.152,2.488,1.763,3.726
			c1.285-0.873,3.226-1.479,3.715-2.677c0.939-2.301,1.166-4.924,1.474-7.44C108.404,29.981,108.238,28.263,108.238,26.408z"/>
		<path fill-rule="evenodd" clip-rule="evenodd" d="M254.9,339.208c-0.65-1.785-1.103-2.676-1.296-3.619
			c-1.043-5.081-4.843-6.361-9.628-3.759c-7.155,3.893-9.731,10.075-9.749,17.723c-0.014,5.605,4.144,9.586,9.661,8.793
			c2.128-0.306,3.988-2.219,6.076-3.168c1.061-0.482,2.355-0.45,3.544-0.65c-0.286,0.938-0.299,2.168-0.918,2.749
			c-1.095,1.024-2.475,1.878-3.884,2.409c-5.509,2.073-11.091,1.907-16.222-0.884c-1.713-0.932-3.342-3.286-3.679-5.221
			c-0.711-4.101-1.514-8.104,0.91-12.478c1.945-3.509,3.695-6.914,6.711-9.561c0.794-0.697,1.683-1.388,2.651-1.771
			c5.863-2.321,11.968-1.87,18.059-1.38c0.458,0.037,1.278,0.368,1.276,0.558c-0.021,2.425,0.106,4.905-0.394,7.247
			C257.798,337.227,256.242,337.972,254.9,339.208z"/>
		<path fill-rule="evenodd" clip-rule="evenodd" d="M43.344,327.343c-0.404,4.334-0.811,8.667-1.213,13.002
			c-0.444,4.788-0.92,9.574-1.284,14.367c-0.048,0.643,0.409,1.371,0.768,1.979c0.42,0.713,0.989,1.339,1.493,2.002
			c-0.929,0.41-1.861,1.17-2.786,1.162c-2.428-0.021-4.854-0.377-8.099-0.674c1.242-1.775,2.028-2.41,2.129-3.14
			c0.254-1.834,0.92-4.152,0.111-5.475c-1.477-2.413-4.217-1.32-5.898-0.04c-1.618,1.232-2.69,3.283-3.743,5.123
			c-0.758,1.324-0.875,3.982-1.655,4.136c-1.909,0.378-4.037-0.351-7.091-0.774c4.218-4.707,8.587-7.923,10.596-12.237
			c2.551-5.481,7.395-8.896,10.203-13.977c1.194-2.161,3.138-3.907,4.742-5.842C42.193,327.085,42.769,327.214,43.344,327.343z
			 M36.258,340.123c-2.354,1.865-5.517,2.537-4.703,6.212C35.892,348.416,37.655,345.941,36.258,340.123z"/>
		<path fill-rule="evenodd" clip-rule="evenodd" d="M183.94,63.139c-0.13,4.518-4.71,8.851-9.195,8.699
			c-3.975-0.134-10.333-5.267-10.074-8.385c0.407-4.909,4.77-11.552,10.698-11.085C179.941,52.727,184.095,57.766,183.94,63.139z"/>
		<path fill-rule="evenodd" clip-rule="evenodd" d="M26.195,26.358c3.575,0,5.783,0,7.415,0c1.197,1.44,2.225,3.534,3.019,3.449
			c1.525-0.164,2.844-1.731,4.385-2.403c1.675-0.732,3.506-1.108,5.222-1.625c1.82,5.732,1.592,6.155-3.353,6.476
			c-3.074,0.199-3.876,2.511-4.059,4.797c-0.153,1.909,0.198,4.146,1.148,5.75c0.596,1.005,2.714,1.107,4.377,1.695
			c0.547,2.889-0.841,5.254-3.939,6.101c-2.759,0.754-4.379-0.586-6.432-5.518c-1.736,1.391-3.367,2.771-5.082,4.039
			c-0.729,0.539-1.682,1.257-2.446,1.166c-1.405-0.167-3.752-0.643-3.926-1.398c-0.548-2.381,1.665-2.297,3.317-3.171
			c2.898-1.533,5.734-3.938,7.458-6.69c1.302-2.079-2.261-7.593-4.465-8.987C27.895,29.442,27.417,28.12,26.195,26.358z"/>
		<path fill-rule="evenodd" clip-rule="evenodd" d="M161.234,352.947c1.001-0.097,2.275-0.036,2.325-0.253
			c0.838-3.689,5.533-5.691,4.379-10.344c-0.27-1.086,0.774-3.532,1.47-3.636c2.375-0.355,3.74,1.355,3.471,3.657
			c-0.201,1.721-0.958,3.452-1.791,5.003c-1.029,1.917-2.269,3.754-3.638,5.447c-4.231,5.236-8.404,10.537-12.975,15.465
			c-1.121,1.208-3.663,1.369-5.574,1.448c-0.833,0.034-2.478-1.412-2.423-2.074c0.092-1.098,1.243-2.118,1.993-3.138
			c0.113-0.154,0.464-0.146,0.708-0.188c1.777-0.309,4.532-0.03,5.128-1.034c1.25-2.107,1.667-4.863,1.871-7.397
			c0.247-3.088-0.067-6.222-0.159-9.336c-0.058-1.978,0.164-4.076-2.731-4.466c-0.289-0.039-0.326-1.951-0.479-2.994
			c1.835-0.099,3.804-0.635,5.458-0.134c1.028,0.311,2.075,2.124,2.251,3.384C160.998,345.778,161.019,349.264,161.234,352.947z"/>
		<path fill-rule="evenodd" clip-rule="evenodd" d="M32.253,14.391c-7.043,6.511-12.75,13.197-14.622,21.264
			c-1.87,8.059-1.067,16.739-1.432,25.074c-5.883-4.107-6.77-19.764-4.541-25.815c3.2-8.688,9.203-15.055,16.202-20.662
			C28.477,13.757,29.907,14.279,32.253,14.391z"/>
		<path fill-rule="evenodd" clip-rule="evenodd" d="M65.113,354.51c0.333,4.007-2.142,5.555-4.659,5.302
			c-1.823-0.184-3.432-2.498-5.431-4.099c-1.257,0.885-3.407,2.517-5.689,3.936c-0.752,0.469-1.995,0.768-2.745,0.469
			c-0.976-0.389-1.682-1.45-2.505-2.222c0.923-0.584,1.893-1.729,2.763-1.659c4.513,0.369,6.196-3.271,7.63-6.07
			c0.829-1.618-0.496-4.696-1.523-6.786c-0.681-1.387-2.553-2.187-3.662-3.74c2.666-0.49,5.215-3.177,7.558,0.577
			c0.362,0.58,2.923-0.034,4.395-0.392c0.848-0.206,1.621-1.52,2.305-1.428c1.369,0.184,2.654,0.992,3.974,1.543
			c-1.046,0.93-1.954,2.349-3.166,2.69c-2.746,0.774-4.38,3.765-3.744,6.534C61.231,351.845,60.955,354.816,65.113,354.51z"/>
		<path fill-rule="evenodd" clip-rule="evenodd" d="M106.124,346.871c-1.074,0.059-2.195,0.197-3.311,0.165
			c-5.888-0.167-5.873-0.183-5.484,5.827c0.103,1.588,1.168,3.737-1.931,3.695c-2.747-0.038-2.736-1.908-2.661-3.887
			c0.219-5.838,0.208-5.817-5.388-5.728c-1.833,0.029-4.044,0.379-4.173-2.398c-0.129-2.806,2.254-2.017,3.791-2.356
			c0.476-0.105,0.995-0.009,1.495-0.009c4.812,0.006,5.004-0.111,4.442-4.834c-0.34-2.854,0.363-4.59,4.095-4.698
			c0,2.172,0.127,4.216-0.033,6.236c-0.187,2.355,0.512,3.594,3.086,3.319c1.111-0.118,2.246-0.053,3.369-0.026
			C107.747,342.278,107.854,342.467,106.124,346.871z"/>
		<path fill-rule="evenodd" clip-rule="evenodd" d="M186.75,346.487c1.878-7.313,7.731-2.041,11.111-5.283
			c0.152-2.406,0.357-5.631,0.563-8.854c0.568-0.053,1.137-0.105,1.705-0.158c0.309,1.566,0.874,3.132,0.879,4.698
			c0.016,5.493,0.098,5.607,5.623,5.526c2.055-0.03,5.199-0.957,5.273,2.121c0.082,3.397-3.226,2.498-5.431,2.604
			c-1.469,0.071-2.945,0.014-4.918,0.014c0,2.578,0.16,4.78-0.073,6.939c-0.106,0.988-0.987,1.894-1.517,2.837
			c-0.664-0.807-1.79-1.554-1.9-2.43c-0.277-2.182-0.092-4.422-0.092-6.934C194.06,347.191,190.498,346.849,186.75,346.487z"/>
		<path fill-rule="evenodd" clip-rule="evenodd" d="M50.677,57.403c3.002-6.394,5.978-12.177,5.534-19.084
			c-0.078-1.214-0.043-3.246,0.565-3.522c1.2-0.544,3.092-0.572,4.204,0.059c0.718,0.407,0.964,2.447,0.722,3.61
			c-1.075,5.172-2.39,10.295-3.645,15.431c-0.32,1.309-0.335,3.036-1.185,3.809C53.907,60.41,53.239,60.224,50.677,57.403z"/>
		<path fill-rule="evenodd" clip-rule="evenodd" d="M286.343,347.278c2.985,0,5.98-0.132,8.95,0.076
			c0.96,0.066,1.858,1.026,2.784,1.579c-0.83,0.64-1.647,1.813-2.491,1.833c-6.457,0.149-12.919,0.131-19.376,0.002
			c-0.864-0.017-1.709-0.943-2.563-1.449c0.877-0.696,1.715-1.927,2.638-1.994c3.337-0.243,6.703-0.096,10.058-0.096
			C286.343,347.246,286.343,347.262,286.343,347.278z"/>
		<path fill-rule="evenodd" clip-rule="evenodd" d="M63.756,57.116c0.44-2.453,0.733-4.882,1.349-7.225
			c0.364-1.384,1.015-2.852,1.98-3.854c0.471-0.488,2.526-0.378,2.87,0.131c0.745,1.104,1.283,2.688,1.14,3.992
			C70.496,55.578,67.358,58.094,63.756,57.116z"/>
		<path fill-rule="evenodd" clip-rule="evenodd" d="M298.389,342.237c-2.796,0.958-5.159,2.375-8.772,1.377
			c-3.81-1.054-8.062-0.486-12.117-0.688c-1.256-0.063-2.502-0.326-3.753-0.497c0.027-0.409,0.054-0.818,0.082-1.228
			c8.155,0,16.311,0,24.466,0C298.326,341.547,298.358,341.892,298.389,342.237z"/>
		<path fill-rule="evenodd" clip-rule="evenodd" d="M438.524,222.738c-1.51-1.801-3.233-3.164-3.005-3.719
			c0.613-1.483,2.064-2.621,3.184-3.896c0.784,1.133,2.107,2.225,2.194,3.409C440.977,219.602,439.705,220.771,438.524,222.738z"/>
		<path fill-rule="evenodd" clip-rule="evenodd" d="M402.169,199.36c2.053-1.506,3.234-3.015,4.103-2.852
			c1.172,0.22,2.102,1.725,3.137,2.679c-1.089,1.005-2.041,2.418-3.321,2.848C405.407,202.263,404.155,200.781,402.169,199.36z"/>
		<path fill-rule="evenodd" clip-rule="evenodd" d="M236.799,97.749c1.482,0.392,3.445,0.358,4.29,1.312
			c0.646,0.73,0.102,2.795-0.374,4.097c-0.19,0.519-2.285,0.965-2.384,0.794c-0.95-1.646-1.658-3.432-2.436-5.178
			C236.196,98.432,236.499,98.09,236.799,97.749z"/>
		<path fill-rule="evenodd" clip-rule="evenodd" d="M360.582,168.946c1.176,0.923,2.695,1.645,3.401,2.845
			c0.438,0.744,0.008,2.682-0.697,3.231c-0.756,0.591-3.256,0.442-3.33,0.168c-0.474-1.762-0.49-3.646-0.658-5.49
			C359.727,169.448,360.154,169.197,360.582,168.946z"/>
		<path fill-rule="evenodd" clip-rule="evenodd" d="M428.145,213.712c-2.145,0-3.36,0-5.313,0c0.381-1.955,0.491-3.736,1.173-5.262
			c0.2-0.449,2.833-0.495,2.955-0.182C427.584,209.873,427.752,211.654,428.145,213.712z"/>
		<path fill-rule="evenodd" clip-rule="evenodd" d="M375.134,183.676c-3.909,0-4.146-2.375-3.558-4.761
			c0.156-0.637,2.433-1.477,3.214-1.11C378.154,179.383,375.728,181.555,375.134,183.676z"/>
		<path fill-rule="evenodd" clip-rule="evenodd" d="M331.31,156.348c-1.576-0.462-3.215-0.794-4.671-1.501
			c-0.281-0.137-0.176-2.228,0.329-2.574c0.958-0.656,2.77-1.322,3.433-0.855c0.995,0.7,1.306,2.373,1.907,3.632
			C331.975,155.481,331.642,155.915,331.31,156.348z"/>
		<path fill-rule="evenodd" clip-rule="evenodd" d="M300.599,135.542c-1.732,0.696-3.463,1.393-5.194,2.089
			c-0.266-1.47-1.267-3.466-0.662-4.315c1.964-2.751,3.72-0.502,5.403,0.699C300.297,134.524,300.448,135.033,300.599,135.542z"/>
		<path fill-rule="evenodd" clip-rule="evenodd" d="M467.297,234.471c-2.161-0.215-1.383,4.748-4.498,2.248
			c-0.857-0.688-0.451-2.951-0.626-4.493c1.675,0.154,3.35,0.307,5.024,0.46C467.23,233.281,467.264,233.876,467.297,234.471z"/>
		<path fill-rule="evenodd" clip-rule="evenodd" d="M525.257,267.428c-1.202,2.143-1.946,4.699-4.972,3.612
			c-0.677-0.243-1.37-2.658-0.928-3.394C520.915,265.061,523.026,266.337,525.257,267.428z"/>
		<path fill-rule="evenodd" clip-rule="evenodd" d="M492.338,253.745c1.615-1.294,2.669-2.435,3.972-3.028
			c0.499-0.228,2.305,0.926,2.251,1.227c-0.271,1.533-0.956,2.994-1.62,4.818C495.367,255.73,494.294,255.026,492.338,253.745z"/>
		<path fill-rule="evenodd" clip-rule="evenodd" d="M249.164,104.906c2.427,0.691,4.42,0.776,4.621,1.419
			c0.38,1.22-0.033,2.867-0.599,4.118c-0.238,0.525-1.704,0.495-2.612,0.717C250.196,109.484,249.818,107.808,249.164,104.906z"/>
		<path fill-rule="evenodd" clip-rule="evenodd" d="M417.23,210.306c0.125-1.741,0.25-3.482,0.374-5.224
			c1.487,0.288,2.974,0.576,4.46,0.864c-0.987,1.649-1.975,3.298-2.963,4.947C418.479,210.697,417.854,210.502,417.23,210.306z"/>
		<path fill-rule="evenodd" clip-rule="evenodd" d="M228.203,96.271c-1.737-0.465-3.448-0.568-3.542-1.012
			c-0.314-1.487-0.352-3.201,0.137-4.608c0.202-0.58,2.01-0.601,3.405-0.957C228.203,91.998,228.203,93.772,228.203,96.271z"/>
		<path fill-rule="evenodd" clip-rule="evenodd" d="M209.675,84.303c-0.813-0.048-1.739,0.132-2.415-0.199
			c-1.093-0.536-2.021-1.408-3.02-2.138c0.719-0.791,1.6-2.336,2.124-2.223c1.306,0.281,2.598,1.166,3.578,2.13
			c0.358,0.353-0.18,1.616-0.309,2.464L209.675,84.303z"/>
		<path fill-rule="evenodd" clip-rule="evenodd" d="M279.648,126.025c-1.674-0.328-3.403-0.512-4.977-1.106
			c-0.318-0.12-0.433-2.292,0.024-2.64c0.948-0.718,2.649-1.47,3.479-1.063c1.086,0.532,1.628,2.172,2.404,3.335
			C280.27,125.042,279.959,125.533,279.648,126.025z"/>
		<path fill-rule="evenodd" clip-rule="evenodd" d="M348.507,161.165c1.321,2.517,2.13,4.057,3.219,6.131
			c-1.987,0.284-3.762,0.536-5.537,0.79c-0.238-0.323-0.479-0.645-0.718-0.967C346.358,165.377,347.247,163.636,348.507,161.165z"/>
		<path fill-rule="evenodd" clip-rule="evenodd" d="M434.585,217.534c-3.774,0.268-6.045,0.1-5.404-2.996
			c0.186-0.896,2.104-1.435,3.227-2.137C433.062,213.944,433.716,215.487,434.585,217.534z"/>
		<path fill-rule="evenodd" clip-rule="evenodd" d="M448.489,228.877c0.878-1.931,1.626-3.576,2.374-5.221
			c0.785,0.813,2.067,1.525,2.256,2.458C453.609,228.542,452.539,229.891,448.489,228.877z"/>
		<path fill-rule="evenodd" clip-rule="evenodd" d="M281.449,128.917c0.796-1.767,1.593-3.534,2.388-5.301
			c0.544,0.064,1.088,0.127,1.632,0.19c0.302,1.625,1.016,3.331,0.72,4.839c-0.135,0.688-2.26,0.988-3.482,1.463
			C282.288,129.712,281.869,129.315,281.449,128.917z"/>
		<path fill-rule="evenodd" clip-rule="evenodd" d="M368.208,172.925c1.097,1.855,2.313,3.02,2.1,3.787
			c-0.244,0.882-1.788,1.979-2.706,1.927c-0.821-0.048-2.15-1.524-2.165-2.388C365.423,175.404,366.785,174.536,368.208,172.925z"/>
		<path fill-rule="evenodd" clip-rule="evenodd" d="M506.417,257.041c-1.987,1.32-2.926,2.427-3.799,2.379
			c-0.783-0.043-2.202-1.496-2.087-2.082c0.21-1.074,1.175-2.35,2.158-2.783C503.217,254.321,504.439,255.666,506.417,257.041z"/>
		<path fill-rule="evenodd" clip-rule="evenodd" d="M441.614,220.976c1.778,0,3.556,0,5.334,0c-0.119,1.161,0.204,2.879-0.434,3.385
			c-2.866,2.271-3.101-1.753-5.085-1.864C441.491,221.991,441.553,221.483,441.614,220.976z"/>
		<path fill-rule="evenodd" clip-rule="evenodd" d="M209.634,84.336c1.308-0.273,2.617-0.756,3.923-0.745
			c0.822,0.007,1.824,0.59,2.386,1.229c0.34,0.387,0.234,1.838-0.091,2.008c-0.9,0.47-2.302,1.018-2.992,0.627
			c-1.253-0.708-2.133-2.074-3.176-3.159C209.675,84.303,209.634,84.336,209.634,84.336z"/>
		<path fill-rule="evenodd" clip-rule="evenodd" d="M317.453,148.824c-1.697-0.579-2.719-0.928-3.852-1.313c0-1.148,0-2.232,0-3.871
			c1.504,0.211,3.628-0.012,3.986,0.68C318.162,145.429,317.567,147.143,317.453,148.824z"/>
		<path fill-rule="evenodd" clip-rule="evenodd" d="M264.225,119.301c-0.939-1.554-1.878-3.107-2.816-4.661
			c0.29-0.359,0.58-0.719,0.87-1.08c1.31,0.224,3.608,0.198,3.74,0.719c0.373,1.473-0.143,3.172-0.309,4.781
			C265.215,119.142,264.72,119.221,264.225,119.301z"/>
		<path fill-rule="evenodd" clip-rule="evenodd" d="M235.545,96.723c-1.1,1.139-1.854,1.92-2.607,2.7
			c-0.859-0.855-2.521-1.859-2.397-2.535c0.214-1.17,1.536-2.137,2.393-3.19C233.705,94.592,234.475,95.484,235.545,96.723z"/>
		<path fill-rule="evenodd" clip-rule="evenodd" d="M383.838,189.231c1.114-1.944,1.701-2.968,2.772-4.834
			c1.286,1.644,2.346,2.997,3.403,4.35c-0.255,0.382-0.51,0.765-0.765,1.147C387.622,189.694,385.995,189.495,383.838,189.231z"/>
		<path fill-rule="evenodd" clip-rule="evenodd" d="M345.689,161.43c-1.72,0.507-3.439,1.016-5.159,1.524
			c-0.175-1.047-0.35-2.094-0.524-3.14c1.793-0.107,3.586-0.213,5.379-0.319C345.486,160.14,345.588,160.785,345.689,161.43z"/>
		<path fill-rule="evenodd" clip-rule="evenodd" d="M409.574,204.23c0.793-2.171,1.94-3.644,4.348-2.329
			c0.667,0.365,1.381,2.17,1.143,2.419C413.386,206.066,411.503,206.245,409.574,204.23z"/>
		<path fill-rule="evenodd" clip-rule="evenodd" d="M218.485,91.946c-0.081-1.606-0.161-3.211-0.304-6.052
			c1.994,1.255,4.097,2.212,3.998,2.582c-0.387,1.452-1.467,2.719-2.291,4.054C219.42,92.334,218.953,92.141,218.485,91.946z"/>
		<path fill-rule="evenodd" clip-rule="evenodd" d="M335.698,160.752c-1.242-1.335-1.943-2.09-2.646-2.844
			c0.92-0.755,1.757-1.875,2.797-2.116c0.535-0.123,1.915,1.259,2.018,2.074C337.955,158.562,336.763,159.418,335.698,160.752z"/>
		<path fill-rule="evenodd" clip-rule="evenodd" d="M303.964,135.62c0.562,1.367,1.123,2.733,1.685,4.099
			c-1.253,0.443-2.506,0.887-3.759,1.331c0-1.666,0-3.333,0-4.999C302.582,135.907,303.273,135.764,303.964,135.62z"/>
		<path fill-rule="evenodd" clip-rule="evenodd" d="M268.171,120.349c0.894-1.259,1.788-2.516,3.336-4.695
			c0.908,1.816,1.551,3.104,2.194,4.391c-1.74,0.548-3.479,1.096-5.218,1.643C268.379,121.242,268.275,120.795,268.171,120.349z"/>
		<path fill-rule="evenodd" clip-rule="evenodd" d="M197.01,75.761c-2.205,0-3.377,0-5.093,0c0.22-1.396,0.143-2.761,0.717-3.749
			c0.275-0.473,2.228-0.649,2.637-0.217C196.06,72.627,196.292,73.986,197.01,75.761z"/>
		<path fill-rule="evenodd" clip-rule="evenodd" d="M307.637,139.785c3.248-1.207,4.266,0.363,4.236,2.63
			c-0.008,0.625-1.608,1.794-2.422,1.747C305.87,143.957,307.87,141.466,307.637,139.785z"/>
		<path fill-rule="evenodd" clip-rule="evenodd" d="M460.513,231.319c-1.513,0.435-3.025,0.87-4.538,1.305
			c-0.092-1.12-0.183-2.24-0.273-3.36c1.465-0.075,2.93-0.148,4.396-0.223C460.235,229.801,460.374,230.561,460.513,231.319z"/>
		<path fill-rule="evenodd" clip-rule="evenodd" d="M293.788,131.75c-1.555,0.377-3.102,0.865-4.678,0.994
			c-0.204,0.016-0.56-1.825-0.845-2.806c1.68-0.179,3.36-0.36,5.04-0.539C293.466,130.183,293.627,130.966,293.788,131.75z"/>
		<path fill-rule="evenodd" clip-rule="evenodd" d="M198.29,75.457c1.39,0.126,2.563,0.232,3.96,0.358
			c-0.095,1.501-0.17,2.694-0.242,3.828C198.028,80.744,197.79,80.501,198.29,75.457z"/>
		<path fill-rule="evenodd" clip-rule="evenodd" d="M261.174,112.13c-1.583,0.971-2.475,1.95-3.118,1.808
			c-0.869-0.192-1.547-1.247-2.308-1.931c0.735-0.772,1.403-2.057,2.226-2.164C258.709,109.746,259.615,110.947,261.174,112.13z"/>
		<path fill-rule="evenodd" clip-rule="evenodd" d="M397.17,191.749c-2.035,1.101-3.014,2.069-3.753,1.914
			c-0.819-0.174-1.995-1.401-1.964-2.124c0.036-0.803,1.238-2.147,1.97-2.173C394.309,189.335,395.233,190.44,397.17,191.749z"/>
		<path fill-rule="evenodd" clip-rule="evenodd" d="M322.021,146.13c1.097,1.848,1.921,2.702,2.036,3.644
			c0.063,0.514-1.223,1.757-1.644,1.652c-0.962-0.242-2.253-0.971-2.483-1.769C319.739,148.996,320.875,147.952,322.021,146.13z"/>
		<path fill-rule="evenodd" clip-rule="evenodd" d="M469.837,234.954c1.252,1.394,2.151,2.396,3.62,4.03
			c-1.612,0.508-3.745,1.802-4.401,1.271C466.876,238.491,468.85,236.912,469.837,234.954z"/>
		<path fill-rule="evenodd" clip-rule="evenodd" d="M248.779,105.437c-2.981,0-4.853,0-6.726,0c-0.097-0.322-0.193-0.644-0.29-0.966
			c1.194-0.869,2.35-2.329,3.594-2.407C246.236,102.008,247.231,103.826,248.779,105.437z"/>
		<path fill-rule="evenodd" clip-rule="evenodd" d="M380.353,181.584c1.021,0.921,1.905,1.718,2.806,2.529
			c-0.88,1.008-1.73,1.981-2.657,3.042c-1.048-0.932-2.087-1.856-3.347-2.976C378.342,183.216,379.337,182.408,380.353,181.584z"/>
		<path fill-rule="evenodd" clip-rule="evenodd" d="M399.93,198.345c-1.093-1.413-2.283-2.308-2.16-2.953
			c0.16-0.844,1.359-1.489,2.111-2.22c0.722,0.756,1.781,1.415,2.038,2.304C402.073,196.011,400.978,196.907,399.93,198.345z"/>
		<path fill-rule="evenodd" clip-rule="evenodd" d="M505.983,260.653c1.528-0.983,2.44-2.029,3.177-1.917
			c0.739,0.113,1.953,1.555,1.803,2.099c-0.267,0.975-1.397,1.714-2.168,2.552C508.064,262.677,507.334,261.966,505.983,260.653z"/>
		<path fill-rule="evenodd" clip-rule="evenodd" d="M479.261,242.588c-2.772,0.551-5.353,1.268-4.265-3.244
			C477.309,239.054,479.769,238.276,479.261,242.588z"/>
		<path fill-rule="evenodd" clip-rule="evenodd" d="M191.185,70.337c-1.644,0.883-2.481,1.704-3.27,1.659
			c-0.896-0.051-1.749-0.875-2.62-1.363c0.722-0.84,1.356-2.234,2.19-2.366C188.328,68.133,189.367,69.25,191.185,70.337z"/>
		<path fill-rule="evenodd" clip-rule="evenodd" d="M516.598,262.311c0.214,1.783,0.356,2.973,0.576,4.802
			c-1.463-0.172-2.764-0.005-3.609-0.547c-0.491-0.315-0.672-2.108-0.248-2.628C513.947,263.165,515.237,262.933,516.598,262.311z"
			/>
		<path fill-rule="evenodd" clip-rule="evenodd" d="M352.121,167.854c1.939,0,3.701,0,6.04,0
			C353.834,172.376,353.834,172.376,352.121,167.854z"/>
		<path fill-rule="evenodd" clip-rule="evenodd" fill="#FFFFFF" d="M358.276,144.824c-1.921-7.789,1.516-14.455,6.423-15.641
			c1.363-0.329,3.293,0.125,4.399,0.964c0.536,0.406-0.131,2.553-0.425,3.873c-0.832,3.735-3.246,6.383-6.247,8.524
			C361.248,143.384,359.878,143.957,358.276,144.824z"/>
		<path fill-rule="evenodd" clip-rule="evenodd" fill="#FFFFFF" d="M143.057,349.629c-0.135,4.454-3.636,7.555-8.634,7.311
			c-0.923-0.045-2.528-1.27-2.561-2.007c-0.232-5.139,2.594-11.265,4.813-11.093C140.608,344.146,143.153,346.454,143.057,349.629z"
			/>
		<path fill-rule="evenodd" clip-rule="evenodd" fill="#FFFFFF" d="M137.939,341.114c-0.268-0.37-1.345-1.188-1.44-2.108
			c-0.396-3.846,1.82-8.343,3.87-8.394c2.125-0.054,5.385,2.629,5.464,4.495C145.932,337.475,141.921,340.998,137.939,341.114z"/>
		<path fill-rule="evenodd" clip-rule="evenodd" fill="#FFFFFF" d="M331.819,335.239c-1.187,5.027-2.197,9.071-3.084,13.141
			c-0.804,3.682-2.381,6.897-5.06,9.588c-1.747,1.753-3.131,1.273-4.295-0.954c-1.708-3.269-0.073-6.188,0.195-9.307
			c0.451-5.275,2.377-9.848,5.306-14.06c0.806-1.159,3.1-2.788,3.367-2.567C329.779,332.34,330.905,334.093,331.819,335.239z"/>
		<path fill-rule="evenodd" clip-rule="evenodd" fill="#FFFFFF" d="M36.258,340.123c1.397,5.818-0.366,8.293-4.703,6.212
			C30.741,342.66,33.904,341.988,36.258,340.123z"/>
	</g>
</g>
</svg>
