<?xml version="1.0" encoding="utf-8"?>
<!-- Generator: Adobe Illustrator 16.0.0, SVG Export Plug-In . SVG Version: 6.00 Build 0)  -->
<!DOCTYPE svg PUBLIC "-//W3C//DTD SVG 1.1//EN" "http://www.w3.org/Graphics/SVG/1.1/DTD/svg11.dtd">
<svg version="1.1" id="Layer_1" xmlns="http://www.w3.org/2000/svg" xmlns:xlink="http://www.w3.org/1999/xlink" x="0px" y="0px"
	 width="602.833px" height="407.307px" viewBox="0 0 602.833 407.307" enable-background="new 0 0 602.833 407.307"
	 xml:space="preserve">
<g>
	<g>
		<path fill-rule="evenodd" clip-rule="evenodd" fill="#FFFFFF" d="M5.75,408.057c0-135.769,0-271.538,0-407.307
			c199.278,0,398.556,0,597.834,0c0,135.769,0,271.538,0,407.307C404.306,408.057,205.028,408.057,5.75,408.057z M412.039,85.958
			c0.545,0.461,1.337,0.814,1.598,1.402c1.677,3.792,6.015,5.925,9.297,3.633c4.702-3.283,9.712-3.371,14.992-3.243
			c5.37,0.129,10.746,0.019,16.119,0.017c5.305-0.002,10.609,0,16.53,0c-0.78,3.264-1.179,5.978-2.085,8.51
			c-1.864,5.216-4.089,10.302-5.959,15.516c-0.441,1.23-0.065,2.755-0.065,4.144c0.366,0.085,0.731,0.169,1.098,0.253
			c2.064-2.271,4.129-4.542,7.032-7.734c0.548,2.828,1.295,4.773,1.213,6.683c-0.141,3.301-1.171,6.58-1.172,9.869
			c-0.008,14.764,0.149,29.529,0.393,44.292c0.086,5.298,0.827,10.59,0.817,15.884c-0.012,5.541-0.677,11.078-0.818,16.623
			c-0.046,1.774,1.038,3.583,0.965,5.349c-0.186,4.443-0.932,8.867-1.059,13.31c-0.066,2.3,1.016,4.62,1.047,6.938
			c0.191,14.114,0.231,28.229,0.317,42.343c0.013,2.069,0.002,4.138,0.002,6.186c-5.598,1.11-4.575-7.865-10.528-6.529
			c0.314,1.363,0.438,2.351,0.768,3.263c2.83,7.813,5.772,15.586,8.506,23.432c0.795,2.28-0.597,3.039-2.834,3.036
			c-14.741-0.019-29.481,0.052-44.222,0.078c-2.608,0.004-5.294,0.103-4.575-3.931c0.091-0.51-0.85-1.203-1.312-1.813
			c-0.443,0.521-1.03,0.976-1.304,1.573c-0.806,1.762-1.486,3.581-2.363,5.738c0.579,1.618,1.968,3.788,2.043,6.001
			c0.319,9.36,0.26,18.734,0.314,28.104c0.028,4.817,0.006,9.634,0.006,15.225c-10.308-2.059-19.027-7.787-29.562-9.047
			c1.406,4.256,7.938,4.204,6.24,9.767c-1.419-0.331-2.604-0.841-3.794-0.851c-13.346-0.104-26.692-0.205-40.039-0.16
			c-17.855,0.059-35.71,0.347-53.564,0.35c-15.984,0.004-31.968-0.311-47.952-0.355c-8.863-0.025-17.728,0.275-26.592,0.319
			c-17.095,0.086-34.191,0.132-51.286,0.074c-1.662-0.005-3.321-0.847-4.981-1.3c1.047-1.409,2.069-2.838,3.163-4.209
			c0.194-0.243,0.717-0.193,1.043-0.365c2.508-1.319,3.031-2.997,1.571-4.667c-4.341,1.64-8.218,3.146-12.127,4.564
			c-2.534,0.92-5.667,1.079-7.538,2.715c-2.427,2.122-4.916,2.322-7.737,2.717c-2.638,0.37-2.917-0.699-2.933-2.84
			c-0.077-10.473-0.395-20.945-0.323-31.416c0.019-2.809,0.292-6.033,4.325-6.751c1.012-0.181,2.134-1.353,2.665-2.354
			c3.194-6.035-0.47-11.995-7.232-12.224c-4.533-0.153-6.034,3.162-7.655,6.268c-1.527,2.926-0.641,5.736,1.774,7.697
			c2.406,1.953,2.902,4.348,2.883,7.155c-0.115,17.102-0.228,34.203-0.238,51.305c0,1.536,0.733,3.071,1.126,4.606
			c0.447-0.045,0.895-0.089,1.341-0.133c3.501-5.658-0.192-12.418,2.121-18.796c5.886,2.095,11.519,4.227,17.239,6.091
			c4.206,1.372,8.526,2.393,12.795,3.569c0.146-0.31,0.292-0.619,0.438-0.928c-2.56-2.504-5.12-5.007-8.384-8.199
			c78.275,0,155.248,0,232.222,0c0.438,0.521,0.876,1.041,1.313,1.561c-2.738,2.912-5.476,5.823-8.214,8.735
			c-0.627-0.429-1.255-0.856-1.882-1.285c0.913,0.865,1.825,1.73,2.68,2.542c1.379-1.279,2.285-2.699,3.554-3.2
			c6.277-2.479,12.607-4.838,19.002-6.992c4.332-1.461,4.328-1.276,4.57,3.299c0.116,2.171,0.532,4.326,0.869,6.928
			c4.13-2.312,3.171-5.456,3.152-8.138c-0.114-16.484-0.311-32.969-0.573-49.452c-0.051-3.157,1.304-4.063,4.305-3.998
			c8.855,0.19,17.716,0.189,26.573,0.16c1.651-0.006,3.438-1.036,4.928-0.66c5.841,1.476,11.473,1.334,17.06-0.973
			c0.45-0.186,1.141,0.179,1.711,0.319c1.624,0.401,3.239,1.152,4.866,1.177c8.366,0.122,16.738,0.18,25.102-0.025
			c1.979-0.049,3.929-1.193,5.893-1.834c-0.098-0.445-0.194-0.891-0.291-1.335c-1.055-0.187-2.11-0.533-3.166-0.534
			c-9.242-0.013-18.491-0.15-27.724,0.166c-3.383,0.117-4.049-0.973-3.178-3.817c1.167-3.813,2.371-7.617,3.597-11.413
			c1.536-4.76,3.109-9.508,4.799-14.664c-4.775,0.052-5.074,5.734-9.81,6.795c0-56.126,0-112.014,0-168.361
			c2.943,3.206,5.675,6.18,9.242,10.063c-1.096-11.233-8.861-19.538-9.071-30.023c4.983,0,9.447,0.011,13.91-0.003
			c7.225-0.023,14.448-0.005,21.67-0.164c0.992-0.022,1.965-0.958,2.947-1.47c-0.178-0.453-0.355-0.905-0.533-1.356
			c-1.349,0-2.697-0.001-4.046,0c-25.623,0.001-51.247-0.048-76.869,0.07c-3.152,0.015-4.997-0.543-4.978-4.106
			c0.004-0.902-0.639-2.019-1.327-2.679c-3.152-3.024-7.229-2.299-10.54-1.182c-2.707,0.913-3.331,4.328-2.936,7.391
			c0.073,0.577-0.188,1.197-0.283,1.812c-0.71,0.072-1.557-0.073-2.097,0.268c-0.798,0.504-1.521,1.276-1.969,2.102
			c-0.148,0.275,0.614,1.498,1.022,1.532c1.013,0.085,2.69,0.038,2.955-0.51C412.5,88.511,412.087,87.146,412.039,85.958z
			 M419.125,270.467c0.014-0.32,0.027-0.641,0.041-0.961c-2.272-0.613-4.541-1.735-6.818-1.752
			c-10.225-0.072-20.452,0.224-30.679,0.263c-3.124,0.012-4.055,1.444-4.079,4.383c-0.083,9.524-0.438,19.046-0.458,28.569
			c-0.002,1.107,1.324,2.991,2.23,3.118c1.016,0.142,2.56-1.09,3.292-2.133c0.523-0.744,0.1-2.163,0.08-3.28
			c-0.14-7.845-0.315-15.689-0.41-23.535c-0.035-2.884,0.962-4.485,4.415-4.359c8.473,0.312,16.961,0.27,25.443,0.265
			C414.497,271.043,416.811,270.67,419.125,270.467z M246.831,183.769c-0.015-0.011,0.134,0.032,0.163,0.116
			c0.958,2.827,3.372,2.7,5.154,1.736c1.506-0.815,3.284-2.702,0.531-4.646c-0.327-0.231-0.151-1.377,0.005-2.05
			c0.446-1.918,0.895-3.85,1.537-5.708c1.706-4.933,3.475-9.845,5.3-14.735c0.789-2.115,0.289-3.645-1.997-3.687
			c-1.601-0.029-3.217,0.816-4.827,1.271c0.451,0.339,0.902,0.678,1.353,1.018c-0.487,3.094-0.974,6.188-1.471,9.349
			c-1.946,0-3.43,0.023-4.914-0.004c-3.775-0.07-6.499,1.635-8.462,4.801c-0.86,1.386-2.44,2.522-2.785,3.986
			c-0.602,2.546-1.092,5.394-0.531,7.866c0.616,2.715,3.349,3.52,6.013,2.891C243.49,185.595,244.943,184.636,246.831,183.769z
			 M490.323,52.444c2.487-5.654,7.258-7.996,10.297-12.267c4.55-6.395,5.39-12.876,4.508-19.944
			c-0.436-3.486-2.075-6.822-3.17-10.226c-0.487,0.059-0.975,0.118-1.463,0.177c-0.195,1.472-0.898,3.097-0.505,4.389
			c2.729,8.961,0.247,17.25-3.215,25.318c-2.281,5.318-4.442,6.068-9.938,4.214c0.806-1.038,1.384-2.071,2.224-2.808
			c2.595-2.276,4.116-5.183,3.578-8.482c-0.237-1.454-2.321-2.602-3.553-3.902c-0.293-0.31-0.531-0.672-0.48-0.606
			c-1.848,0.856-3.312,1.535-4.943,2.291c0.479,4.082,2.868,1.596,4.636,1.174c2.701,2.736,2.084,5.377-1.402,8.488
			c-2.303,2.055-4.143,4.629-6.711,7.565c3.588,0.161,6.043,0.271,8.456,0.38C489.118,49.407,489.521,50.424,490.323,52.444z
			 M88.465,337.253c-0.546-3.622-1.26-6.918-1.487-10.248c-0.242-3.55-2.442-3.971-5.125-3.663
			c-0.987,0.113-1.897,0.904-2.842,1.386c0.609,0.977,1.156,2.002,1.851,2.914c0.469,0.618,1.596,1.028,1.658,1.614
			c0.484,4.563,1.288,9.184,0.946,13.707c-0.204,2.689-1.954,5.509-5.349,6.257c-1.205,0.266-2.372,0.763-3.486,1.3
			c-0.116,0.056,0.167,1.58,0.406,1.622c1.385,0.243,2.834,0.429,4.215,0.258c0.754-0.094,1.523-0.83,2.098-1.45
			c1.473-1.592,2.837-3.284,4.251-4.93c3.421-3.982,7.142-7.755,10.142-12.033c1.466-2.092,1.748-5.096,2.231-7.748
			c0.147-0.807-0.633-2.046-1.355-2.647c-0.408-0.34-1.95-0.058-2.29,0.428c-0.542,0.773-0.872,2.039-0.655,2.943
			C94.901,332.067,93.839,334.387,88.465,337.253z M470.815,36.102c-0.541-2.433-1.05-4.282-1.34-6.164
			c-0.265-1.712-0.152-3.487-0.454-5.189c-0.46-2.595-4.651-4.323-6.636-2.685c-0.391,0.322-0.162,1.842,0.228,2.568
			c0.797,1.477,2.519,2.695,2.75,4.19c0.568,3.673,0.626,7.441,0.665,11.174c0.04,3.936-2.37,6.197-6.396,6.351
			c-0.718,0.028-1.432,0.144-2.139,0.218c0.305,4.568,2.044,6.604,3.956,4.875c2.565-2.319,4.675-5.155,6.882-7.849
			c0.845-1.032,1.293-2.39,2.14-3.42c2.814-3.419,5.895-6.633,8.52-10.187c1.034-1.399,1.44-3.47,1.538-5.267
			c0.05-0.907-1.053-2.167-1.966-2.735c-0.616-0.384-2.379-0.127-2.619,0.351c-0.406,0.809,0.147,2.04,0.011,3.055
			c-0.271,2.029-0.436,4.161-1.219,6.006C474.107,32.872,472.63,33.992,470.815,36.102z M553.614,227.666
			c4.754,1.92,6.492-2.324,8.873-4.293c3.114-2.576,5.357-6.233,7.849-9.522c1.976-2.609,4.016-5.227,5.552-8.096
			c1.366-2.553,1.152-5.249-2.128-7.803c-0.548,1.712-1.754,3.692-1.269,4.284c2.067,2.521,0.177,4.24-0.856,5.983
			c-1.063,1.793-2.62,3.295-4.143,5.144c-0.321-0.418-0.994-0.896-1.061-1.448c-0.354-2.937-0.473-5.901-0.828-8.837
			c-0.629-5.203-3.037-6.129-7.451-2.921c0.94,1.249,2.449,2.388,2.717,3.768c0.812,4.185,1.259,8.453,1.63,12.708
			c0.378,4.327-1.539,6.478-5.846,6.795C553.921,223.628,552.311,224.503,553.614,227.666z M32.784,324.305
			c-1.226-0.376-2.22-1.004-3.11-0.881c-1.46,0.201-2.853,0.891-4.274,1.374c0.798,0.93,1.853,1.741,2.34,2.812
			c0.963,2.114,2.533,4.562,2.13,6.516c-0.401,1.944-2.84,3.531-4.531,5.121c-1.11,1.044-2.528,1.76-3.648,2.797
			c-0.107,0.1,0.989,2.113,1.427,2.075c1.607-0.137,3.49-0.371,4.663-1.319c1.202-0.97,1.693-2.819,2.76-4.77
			c0.833,1.041,1.765,1.725,1.996,2.593c0.539,2.021,0.992,4.45,3.64,3.447c2.282-0.863,5.857-1.514,4.842-4.785
			c-2.07-0.63-4.148-0.612-4.906-1.603c-3.71-4.858-1.85-8.64,4.176-9.438c0.941-0.125,1.709-1.566,2.557-2.399
			c-0.973-0.842-1.908-2.32-2.928-2.381c-1.665-0.1-3.849-0.074-4.036,2.717c-0.045,0.671-1.178,1.27-2.25,2.342
			C33.241,326.578,33.026,325.508,32.784,324.305z M228.019,376.419c1.732,2.202,2.866,4.6,4.746,5.609
			c0.879,0.473,3.363-1.553,4.776-2.826c0.486-0.438-0.072-2.033-0.161-3.204c-1.732,0.692-2.898,1.157-4.161,1.661
			c-1.64-9.112-1.64-9.112,7.08-12.493c-1.067-1.401-2.036-2.674-3.005-3.946c-1.065,0.858-2.299,1.576-3.162,2.604
			c-2.299,2.742-2.759,2.638-5.056-0.184c-0.866-1.063-2.594-1.574-4.031-1.952c-0.586-0.155-1.963,0.617-2.052,1.13
			c-0.14,0.801,0.242,2.133,0.867,2.557c5.164,3.51,4.253,10.697-2.405,12.332c-0.858,0.21-1.325,2.014-1.974,3.079
			c1.246,0.472,2.667,1.552,3.693,1.258c1.252-0.359,2.268-1.793,3.205-2.914C227.133,378.229,227.617,377.103,228.019,376.419z
			 M305.08,377.107c2.586,1.422,2.252,6.783,6.553,4.706c1.745-0.843,2.801-3.112,4.17-4.733c-0.294-0.239-0.588-0.479-0.881-0.72
			c-1.126,0.396-2.253,0.793-3.337,1.175c-4.619-7.042-3.535-9.512,5.08-11.99c-0.615-3.722-1.908-4.912-3.711-3.362
			c-1.538,1.323-2.902,2.848-4.672,4.608c-1.091-2.186-2.003-4.01-2.891-5.784c-0.563,0.028-0.988-0.063-1.295,0.086
			c-1.288,0.627-2.54,1.326-3.805,2c0.872,1.039,1.669,2.155,2.631,3.103c1.6,1.573,1.901,5.917,0.643,7.998
			c-1.867,3.086-4.395,5.183-8.508,5.395C299.218,383.844,300.911,383.326,305.08,377.107z M490.858,213.304
			c-0.476-0.08-0.951-0.16-1.426-0.239c-0.146-1.536-0.276-3.074-0.441-4.608c-0.279-2.578-0.327-5.224-1.011-7.692
			c-0.243-0.88-2.009-1.741-3.153-1.852c-1.038-0.1-2.178,0.83-3.271,1.305c0.606,0.785,1.274,1.53,1.795,2.368
			c0.311,0.5,0.497,1.132,0.556,1.723c0.453,4.555,1.158,9.115,1.12,13.669c-0.013,1.591-1.931,3.143-2.905,4.757
			c-0.695,1.15-1.269,2.375-1.896,3.567c0.36,0.188,0.721,0.378,1.08,0.566c0.736-0.394,1.667-0.619,2.174-1.208
			c2.176-2.537,4.216-5.189,6.326-7.782c2.424-2.977,5.048-5.812,7.237-8.95c1.31-1.879,2.428-4.16,2.712-6.378
			c0.159-1.24-1.562-2.721-2.436-4.094c-0.631,1.009-2.026,2.304-1.773,2.98C497.692,207.161,492.557,209.439,490.858,213.304z
			 M423.155,38.245c-0.221-0.408-0.443-0.816-0.664-1.224c-5.057,0.199-5.106,0.205-5.673-5.197c-0.32-3.063,0.649-5.242,4.14-5.775
			c1.33-0.204,2.556-1.093,3.901-1.703c-1.733-3.346-3.479-3.244-5.762-1.227c-1.754,1.55-3.646,3.366-5.508-0.323
			c-0.427-0.846-2.867-0.906-4.371-0.875c-0.666,0.013-1.31,1.154-2.632,2.426c5.613,0.093,5.915,3.337,5.785,6.717
			c-0.166,4.298-2.728,6.624-8.639,7.663c0.67,0.967,1.464,2.468,1.691,2.387c2.845-1.02,5.606-2.268,8.033-3.305
			c0.982,0.902,2.391,3.225,3.753,3.199C419.209,40.969,421.176,39.249,423.155,38.245z M123.962,326.914
			c-0.855-3.019-1.804-6.6-2.913-10.131c-0.284-0.902-1.074-1.646-1.632-2.464c-0.345,0.926-1.138,1.943-0.968,2.761
			c2.656,12.745-1.749,23.28-9.918,32.729c-0.435,0.504-0.289,1.509-0.413,2.279c0.767-0.117,1.812,0.042,2.25-0.4
			c1.74-1.757,3.175-3.818,4.932-5.556C120.464,341.028,122.718,334.692,123.962,326.914z M28.203,313.611
			c-0.582-0.347-1.164-0.693-1.747-1.04c-3.669,3.863-8.275,7.201-10.806,11.704c-4.641,8.258-4.738,17.354-1.138,26.245
			c0.375,0.927,1.83,1.416,3.128,2.358c0.23-1.318,0.382-1.609,0.299-1.793c-3.789-8.354-2.398-16.404,1.658-24.16
			c1.418-2.711,3.556-5.039,5.255-7.614C26.065,317.475,27.093,315.516,28.203,313.611z M411.172,12.043
			c-0.24-0.311-0.479-0.621-0.72-0.932c-1.305,0.188-3.019-0.081-3.836,0.651c-2.359,2.11-4.747,4.383-6.397,7.042
			c-2.1,3.383-3.458,7.223-5.188,10.841c-2.915,6.095-1.429,14.638,4.104,19.619C395.873,34.479,399.36,21.9,411.172,12.043z
			 M244.773,373.318c4.757-0.809,6.044,0.582,4.06,4.805c-0.993,2.112-3.292,3.588-4.885,5.45c-1.277,1.493-2.379,3.134-3.559,4.71
			c2.817,0.849,4.882,1.218,6.719,0.729c1.416-0.376,2.917-1.623,3.63-2.901c0.312-0.558-1.248-2.161-2.165-3.618
			c4.099-3.078,6.815-7.317,3.806-13.265C245.867,367.857,244.563,368.508,244.773,373.318z M419.113,201.272
			c-0.374-0.208-0.749-0.416-1.124-0.624c-0.658,0.807-1.813,1.572-1.884,2.427c-0.244,2.968-0.106,5.969-0.123,8.958
			c-0.036,6.584-0.112,13.168-0.096,19.752c0.004,1.811,0.279,3.62,0.459,5.771c0.749,0.039,1.776,0.093,2.768,0.146
			C419.113,225.326,419.113,213.299,419.113,201.272z M415.205,145.387c0.482,0.034,0.965,0.068,1.446,0.102
			c0.634-1.818,1.77-3.629,1.799-5.457c0.064-4.126-0.419-8.261-0.675-12.393c-0.217-3.494-0.453-6.985-0.632-10.48
			c-0.145-2.831-1.262-6.243-0.086-8.366c1.92-3.465-0.821-6.607,0.519-9.742c0.095-0.222-0.679-1.139-1.088-1.168
			c-0.472-0.033-1.358,0.505-1.418,0.895c-0.238,1.564-0.314,3.169-0.294,4.756c0.118,9.253,0.306,18.505,0.419,27.759
			C415.252,135.99,415.205,140.688,415.205,145.387z M428.952,31.396c2.679,0.936,5.195,1.045,5.878,2.221
			c1.25,2.15-0.472,3.721-2.365,5.332c-2.819,2.398-5.002,5.544-7.456,8.373c0.175,0.274,0.349,0.549,0.523,0.823
			c3.39-1.21,7.759,2.063,10.992-2.908c-1.919-0.231-3.223-0.388-5.734-0.691c1.357-1.52,2-2.723,3.003-3.283
			c5.813-3.246,6.277-8.294,0.938-12.091c-0.729-0.519-2.103-1.104-2.608-0.777C430.771,29.266,429.73,30.619,428.952,31.396z
			 M508.061,209.441c0.683,4.196-2.678,10.854-6.427,13.195c-0.605,0.378-1.199,0.963-1.474,1.594
			c-0.119,0.271,0.575,1.293,0.93,1.31c2.983,0.135,6.201,1.252,8.68-1.392c0.536-0.572,0.564-1.622,0.904-2.698
			c-1.984,0.449-3.28,0.742-4.575,1.035c-0.168-0.296-0.336-0.592-0.503-0.888c1.813-1.902,3.698-3.743,5.424-5.722
			c2.488-2.853,2.41-7.141-0.045-8.943c-2.074-1.521-5.101-0.722-7.22,2.113C505.226,209.181,506.534,209.301,508.061,209.441z
			 M320.661,388.792c3.73,1.126,5.378,0.441,5.037-3.262c-0.129-1.398,0.434-2.893,0.831-4.301c0.95-3.36,2.214-6.656,2.829-10.072
			c0.148-0.818-1.74-2.003-2.691-3.02c-0.778,1.165-1.814,2.241-2.258,3.521c-0.396,1.146,0.085,2.571-0.21,3.778
			C323.126,379.844,321.89,384.21,320.661,388.792z M276.015,368.94c0-0.006,0-0.012,0-0.017c-3.12,0-6.26-0.198-9.348,0.117
			c-0.963,0.1-1.785,1.588-2.671,2.439c0.959,0.629,1.918,1.798,2.878,1.799c5.967,0.013,11.937-0.173,17.897-0.466
			c0.965-0.048,2.601-0.856,2.692-1.491c0.264-1.827-1.01-2.485-2.844-2.412C281.755,369.024,278.883,368.94,276.015,368.94z
			 M105.661,350.895c0.321-2.604,0.366-5.117,0.989-7.478c0.777-2.942,2.268-5.699,3.019-8.646c1.002-3.929-0.27-4.915-3.455-3.969
			c-1.69,6.915-3.275,13.399-4.911,20.092C102.799,350.895,104.232,350.895,105.661,350.895z M55.207,330.866
			c-5.191-1.009-5.346-0.845-4.779,3.846c0.083,0.691-0.113,1.452-0.318,2.14c-1.361,4.573-2.76,9.134-4.208,13.903
			c1.419,0,3.291,0,4.432,0C52.005,343.93,53.586,337.479,55.207,330.866z M588.623,208.43c-0.681-0.661-1.549-2.146-2.343-2.105
			c-0.907,0.045-2.278,1.309-2.525,2.278c-1.119,4.387-1.975,8.846-2.782,13.305c-0.202,1.115,0.122,2.326,0.205,3.494
			c1.043-0.554,2.749-0.887,3.019-1.698C585.788,218.919,587.046,214.023,588.623,208.43z M548.007,208.944
			c-4.405-2.497-22.045-2.436-25.016,0C531.358,208.944,539.315,208.944,548.007,208.944z M404.22,303.093
			c-0.025-2.038,0.699-3.52-2.211-3.228c-3.958,0.397-7.985,0.099-12.32,0.099c0,0.738,0,1.837,0,3.129
			C394.681,303.093,399.341,303.093,404.22,303.093z M62.842,343.035c-0.348-0.476-0.731-1.107-1.22-1.643
			c-0.8-0.876-1.668-1.688-2.508-2.527c-0.49,1.243-1.096,2.456-1.439,3.739c-0.395,1.471-0.632,2.997-0.792,4.514
			c-0.091,0.868,0.106,1.767,0.173,2.651c0.918-0.381,2.176-0.509,2.685-1.193C60.887,347.029,61.664,345.208,62.842,343.035z
			 M212.537,302.979c-0.212-0.82-0.417-2.53-0.696-2.543c-3.293-0.144-6.598-0.07-9.895,0.077c-0.281,0.013-0.863,1.17-0.704,1.437
			c0.289,0.485,1.021,0.967,1.584,0.985C205.791,303.03,208.76,302.979,212.537,302.979z M439.143,47.217
			c1.404-0.833,3.359-1.316,3.869-2.449c0.832-1.851,0.724-4.124,1.014-6.22c-1.352-0.172-2.703-0.343-3.934-0.499
			C439.77,41.158,439.511,43.668,439.143,47.217z M415.68,182.771c0.323,0.125,0.646,0.249,0.971,0.373
			c0.805-1.628,1.61-3.256,2.584-5.224c-1.004-0.5-2.085-1.039-3.281-1.635c1.779-1.481,2.588-2.155,4.181-3.481
			c-2.22-0.284-3.34-0.426-4.454-0.568C415.68,176.014,415.68,179.393,415.68,182.771z M418.992,242.607
			c-2.021,0.718-3.904,5.816-2.775,6.763c0.579,0.485,1.617,0.725,2.365,0.595c0.435-0.076,1.006-1.109,0.99-1.699
			C419.528,246.48,419.228,244.702,418.992,242.607z M364.076,299.864c-0.055,0.681-0.144,1.777-0.231,2.874
			c0.956-0.033,1.927-0.185,2.865-0.072c1.105,0.133,2.183,0.494,3.657,0.848c0-1.103,0-2.262,0-2.802
			C368.208,300.421,366.589,300.203,364.076,299.864z M280.833,303.506c2.566-0.357,4.421-0.616,6.644-0.926
			c-0.136-1.006-0.272-2.015-0.337-2.49c-2.214,0-3.999,0-6.307,0C280.833,301.024,280.833,302.293,280.833,303.506z
			 M183.076,303.529c-0.397-1.487-0.572-3.53-1.026-3.594c-1.707-0.241-3.521,0.082-5.251,0.415
			c-0.254,0.05-0.557,1.413-0.324,1.944c0.192,0.44,1.119,0.677,1.756,0.781C179.473,303.278,180.74,303.323,183.076,303.529z
			 M415.927,196.565c5.783-0.287,0.389-5.245,4.258-6.555c-2.263-0.316-3.394-0.474-4.838-0.676
			C415.551,191.873,415.717,193.944,415.927,196.565z M330.853,300.158c0,0.478-0.282,1.639,0.123,2.461
			c0.192,0.391,1.694,0.156,2.603,0.169c1.277,0.02,2.555,0.005,4.271,0.005c-0.142-1.159-0.277-2.27-0.369-3.018
			C335.309,299.901,333.537,300.003,330.853,300.158z M419.825,162.682c-1.132-1.724-1.835-2.795-2.564-3.906
			c0.812-0.355,1.764-0.773,2.715-1.19c-0.314-0.44-0.629-0.88-0.942-1.32c-1.087-0.205-2.173-0.408-3.479-0.654
			c0,2.632,0,4.777,0,7.07C416.699,162.682,417.646,162.682,419.825,162.682z M254.566,302.932c-0.209-1.19-0.366-2.086-0.435-2.477
			c-2.348-0.205-4.26-0.372-6.193-0.541C246.702,303.021,246.702,303.021,254.566,302.932z M323.045,300.172
			c-1.222,2.698-1.222,2.698,6.647,2.604c-0.23-1.173-0.444-2.261-0.512-2.604C326.84,300.172,325.022,300.172,323.045,300.172z
			 M415.628,163.76c0,2.554,0,4.763,0,7.413c1.236-0.212,2.308-0.395,3.821-0.653c-1.077-1.326-1.759-2.165-2.493-3.069
			c0.758-0.809,1.436-1.531,2.465-2.628C417.969,164.416,416.985,164.14,415.628,163.76z M295.301,300.665
			c-2.242-0.339-3.992-0.604-6.298-0.953c0.13,1.084,0.141,3.025,0.404,3.061c1.956,0.26,3.963,0.141,6.271,0.141
			C295.499,301.849,295.351,300.961,295.301,300.665z M224.194,300.278c-1.772,0-3.285-0.163-4.736,0.067
			c-0.746,0.118-1.381,0.938-2.066,1.439c0.627,0.426,1.217,1.122,1.89,1.216c1.069,0.149,2.205-0.238,3.295-0.161
			C225.472,303.045,225.038,301.739,224.194,300.278z M154.701,285.706c-0.711,0.123-1.423,0.246-2.134,0.369
			c0.199,1.581,0.398,3.162,0.597,4.742c0.917-0.136,1.835-0.271,2.753-0.407C155.511,288.843,155.106,287.274,154.701,285.706z
			 M304.046,302.828c-0.25-1.286-0.443-2.28-0.509-2.615c-2.003-0.1-3.49-0.174-5.373-0.269c-0.094,0.668-0.25,1.764-0.409,2.884
			C299.94,302.828,301.633,302.828,304.046,302.828z M348.292,135.167c0.354,0.636,0.71,1.272,1.064,1.908
			c1.388-0.547,2.775-1.095,4.163-1.641c-0.541-0.881-1.081-1.762-1.621-2.644C350.696,133.583,349.494,134.375,348.292,135.167z
			 M243.122,215.886c-1.149,1.709-2.214,2.596-2.132,3.358c0.089,0.823,1.25,1.53,1.944,2.288c0.768-0.714,1.998-1.336,2.163-2.168
			C245.241,218.631,244.193,217.663,243.122,215.886z M391.124,101.149c-0.354,0.008-0.707,0.017-1.061,0.026
			c-0.39,0.895-1.173,1.844-1.06,2.671c0.12,0.878,1.089,1.641,1.688,2.454c0.624-0.742,1.733-1.472,1.751-2.228
			C392.464,103.108,391.604,102.124,391.124,101.149z M365.982,126.02c0.629-0.201,1.259-0.401,1.889-0.603
			c-0.073-1.229-0.147-2.458-0.221-3.686c-1.229,0.179-2.458,0.358-3.687,0.538C364.637,123.519,365.309,124.77,365.982,126.02z
			 M216.466,241.987c-1.262-0.889-2.073-1.911-2.83-1.874c-0.843,0.043-1.637,1.051-2.451,1.638
			c0.858,0.898,1.616,1.967,2.646,2.573C214.083,244.474,215.225,243.115,216.466,241.987z M230.417,300.77
			c0.483,0.702,0.989,1.436,2.129,3.092c0-2.161,0-3.231,0-4.475c-1.278,0.088-2.311-0.037-3.185,0.276
			c-0.808,0.289-1.499,1.001-2.104,1.655c-0.093,0.1,0.559,0.889,0.867,1.359C228.81,302.107,229.495,301.537,230.417,300.77z
			 M183.708,268.862c1.057-1.379,2.117-2.169,2.147-2.995c0.022-0.63-1.316-1.887-1.954-1.827c-0.968,0.089-1.853,1.077-2.772,1.684
			C181.816,266.561,182.503,267.396,183.708,268.862z M420.153,274.677c-0.755-0.866-1.375-1.578-1.995-2.291
			c-0.522,0.707-1.531,1.461-1.469,2.111c0.149,1.547,0.806,3.047,1.257,4.565C418.622,277.721,419.297,276.379,420.153,274.677z
			 M166.522,281.438c0.398-0.708,0.796-1.415,1.194-2.122c-1.056-0.283-2.206-0.96-3.141-0.737c-0.898,0.215-1.946,1.25-2.211,2.139
			c-0.169,0.566,0.945,2.139,1.523,2.159C164.748,282.906,165.642,281.965,166.522,281.438z M358.185,298.551
			c-0.563,0.331-1.127,0.66-1.69,0.991c-0.374,0.782-1.264,1.868-1.019,2.284c0.542,0.918,1.656,1.499,2.536,2.218
			c0.537-0.733,1.548-1.499,1.501-2.192C359.435,300.727,358.663,299.649,358.185,298.551z M378.08,112.078
			c0.319,0.408,0.638,0.815,0.956,1.222c1.342-0.105,2.685-0.212,4.027-0.317c0.194-0.363,0.39-0.726,0.585-1.088
			c-0.908-0.8-1.907-2.321-2.701-2.22C379.906,109.806,379.028,111.217,378.08,112.078z M219.889,234.742
			c1.713,0.972,2.612,1.775,3.604,1.914c0.459,0.064,1.692-1.428,1.545-1.761c-0.405-0.917-1.238-1.952-2.127-2.235
			C222.375,232.49,221.42,233.636,219.889,234.742z M154.884,302.611c0.119,0.023,0.628,0.263,1.068,0.17
			c0.706-0.146,1.387-0.479,2.013-0.843c0.067-0.04-0.292-1.195-0.46-1.197c-2.029-0.021-4.059,0.067-6.083,0.204
			c-0.047,0.003-0.205,0.994,0,1.338c0.184,0.309,0.79,0.467,1.225,0.5C153.259,302.829,153.885,302.699,154.884,302.611z
			 M297.275,180.062c0.953-1.471,1.963-2.346,1.85-3.041c-0.123-0.76-1.282-1.353-1.989-2.018c-0.667,0.738-1.741,1.412-1.872,2.236
			C295.165,177.875,296.247,178.697,297.275,180.062z M415.299,147.294c0.189,2.648,0.339,4.734,0.509,7.114
			c1.438-0.838,2.411-1.405,3.547-2.068c-0.982-0.801-1.737-1.417-2.675-2.182c0.994-0.719,1.703-1.231,2.853-2.063
			C417.93,147.792,416.894,147.596,415.299,147.294z M339.597,140.527c-0.311,0.557-0.621,1.113-0.933,1.67
			c1.134,0.833,2.268,1.666,3.401,2.499c0.503-0.854,1.006-1.708,1.51-2.562C342.249,141.6,340.922,141.063,339.597,140.527z
			 M285.514,188.472c-1.417-0.822-2.213-1.668-2.883-1.577c-0.849,0.114-1.595,0.991-2.386,1.538
			c0.588,0.794,1.297,2.31,1.741,2.236C283.004,190.498,283.895,189.554,285.514,188.472z M317.045,300.498
			c-0.035,0.674-0.07,1.348-0.105,2.021c1.32,0.242,2.642,0.484,3.963,0.728c0.023-0.985,0.047-1.972,0.07-2.957
			C319.664,300.359,318.354,300.429,317.045,300.498z M315.168,165.808c-1.402-0.955-2.199-1.924-2.92-1.872
			c-0.778,0.056-1.487,1.069-2.227,1.665c0.728,0.779,1.338,1.908,2.226,2.203C312.772,167.979,313.736,166.836,315.168,165.808z
			 M195.634,255.547c-1.438,0.182-2.646,0.334-3.854,0.486c-0.157,0.388-0.314,0.775-0.471,1.164
			c1.162,1.024,2.324,2.048,3.486,3.071c0.28-0.249,0.56-0.499,0.839-0.748C195.634,258.333,195.634,257.145,195.634,255.547z
			 M172.689,270.362c0.109,2.254,0.175,3.602,0.24,4.949c1.261-0.268,2.521-0.535,3.781-0.804c-0.022-0.364-0.044-0.729-0.066-1.093
			C175.637,272.638,174.63,271.86,172.689,270.362z M274.477,197.772c0.279-0.322,0.558-0.645,0.837-0.968
			c-0.965-0.841-1.93-1.684-2.896-2.526c-0.783,0.918-1.566,1.835-2.982,3.494C271.938,197.772,273.207,197.772,274.477,197.772z
			 M359.152,131.584c-0.143-0.648-0.285-1.296-0.428-1.945c-1.512,0.185-3.023,0.371-4.535,0.556
			c0.225,0.836,0.556,2.412,0.656,2.397C356.3,132.382,357.722,131.958,359.152,131.584z M250.335,215.164
			c-1.192-0.985-1.878-1.965-2.68-2.07c-0.535-0.07-1.801,1.181-1.731,1.706c0.119,0.9,1.028,1.695,1.606,2.536
			C248.298,216.741,249.064,216.147,250.335,215.164z M376.125,119.02c0.888-1.906,1.752-2.89,1.568-3.604
			c-0.204-0.798-1.359-1.354-2.102-2.015c-0.481,0.74-1.35,1.483-1.343,2.218C374.256,116.419,375.072,117.213,376.125,119.02z
			 M256.847,205.525c-0.51,0.495-1.019,0.991-1.528,1.487c0.72,0.869,1.294,2.069,2.218,2.476c0.5,0.22,1.596-0.914,2.423-1.438
			C258.921,207.209,257.884,206.367,256.847,205.525z M330.271,154.762c-1.652-1.305-2.443-2.419-3.207-2.402
			c-0.853,0.019-1.683,1.066-2.522,1.666c0.68,0.677,1.269,1.735,2.063,1.922C327.383,156.13,328.37,155.428,330.271,154.762z
			 M343.04,138.243c1.831,1.546,2.675,2.259,3.52,2.971c0.375-0.131,0.75-0.262,1.125-0.394c-0.104-1.315-0.209-2.632-0.313-3.947
			C346.264,137.224,345.156,137.574,343.04,138.243z M294.495,180.108c-0.326-0.357-0.652-0.714-0.978-1.072
			c-1.305,0.281-2.61,0.562-3.916,0.843c-0.101,0.394-0.202,0.789-0.303,1.183c1.114,0.643,2.203,1.683,3.354,1.757
			C293.205,182.855,293.877,181.069,294.495,180.108z M171.573,277.663c-0.009-0.358-0.018-0.716-0.027-1.073
			c-0.889-0.354-1.805-1.028-2.657-0.956c-0.649,0.056-1.218,1.059-1.823,1.641c0.667,0.555,1.314,1.526,2.003,1.556
			C169.886,278.865,170.737,278.088,171.573,277.663z M260.866,304.453c1.01-1.458,1.834-2.192,1.995-3.051
			c0.095-0.51-0.856-1.214-1.337-1.831c-0.781,0.647-1.838,1.164-2.233,1.996C259.083,302.005,260.027,302.992,260.866,304.453z
			 M398.066,97.091c0.297,0.478,0.594,0.956,0.891,1.434c1.104-0.443,2.208-0.887,3.313-1.33c-0.448-0.883-0.896-1.765-1.344-2.646
			C399.973,95.395,399.02,96.243,398.066,97.091z M332.524,147.829c-3.557,1.787-4.013,3.362,0,4.984
			C332.524,150.932,332.524,149.381,332.524,147.829z M233.059,229.451c0.882-0.973,2.068-1.799,1.938-2.24
			c-0.239-0.817-1.157-1.771-1.965-1.972c-0.547-0.135-1.389,0.923-2.099,1.447C231.543,227.48,232.153,228.274,233.059,229.451z
			 M338.193,148.491c0.354-0.552,0.708-1.103,1.062-1.654c-0.971-0.735-1.858-1.786-2.948-2.073
			c-0.563-0.149-1.484,1.058-2.243,1.652C335.44,147.107,336.815,147.798,338.193,148.491z M262.491,206.504
			c0.584-0.151,1.169-0.302,1.754-0.453c-0.215-1.322-0.43-2.644-0.644-3.965c-0.862,0.253-1.724,0.506-2.586,0.759
			C261.508,204.065,262,205.284,262.491,206.504z M418.761,285.794c-0.343-0.054-0.686-0.107-1.027-0.161c0,2.194,0,4.388,0,6.581
			c0.342,0.011,0.685,0.021,1.027,0.029C418.761,290.094,418.761,287.943,418.761,285.794z M361.109,130.5
			c1.186-1.772,1.807-2.703,2.429-3.633c-0.147-0.349-0.296-0.698-0.444-1.047c-1.222,0.207-2.443,0.413-3.666,0.62
			C359.882,127.535,360.335,128.63,361.109,130.5z M315.865,163.983c0.609,0.089,1.22,0.179,1.829,0.269
			c0.27-1.213,0.54-2.427,0.81-3.641c-0.88-0.167-1.759-0.334-2.639-0.501C315.865,161.401,315.865,162.692,315.865,163.983z"/>
		<path fill-rule="evenodd" clip-rule="evenodd" d="M412.118,86.049c0.107-0.6,0.369-1.22,0.296-1.797
			c-0.396-3.063,0.229-6.479,2.936-7.391c3.312-1.117,7.388-1.842,10.54,1.182c0.688,0.66,1.331,1.776,1.327,2.679
			c-0.02,3.563,1.825,4.121,4.978,4.106c25.622-0.118,51.246-0.069,76.869-0.07c1.349-0.001,2.697,0,4.046,0
			c0.178,0.452,0.355,0.904,0.533,1.356c-0.982,0.513-1.955,1.448-2.947,1.47c-7.222,0.158-14.445,0.141-21.67,0.164
			c-4.463,0.014-8.927,0.003-13.91,0.003c0.21,10.485,7.976,18.79,9.071,30.023c-3.567-3.884-6.299-6.858-9.242-10.063
			c0,56.347,0,112.235,0,168.361c4.735-1.061,5.034-6.743,9.81-6.795c-1.689,5.156-3.263,9.904-4.799,14.664
			c-1.226,3.796-2.43,7.6-3.597,11.413c-0.871,2.845-0.205,3.935,3.178,3.817c9.232-0.316,18.481-0.179,27.724-0.166
			c1.056,0.001,2.111,0.348,3.166,0.534c0.097,0.444,0.193,0.89,0.291,1.335c-1.964,0.641-3.914,1.785-5.893,1.834
			c-8.363,0.205-16.735,0.147-25.102,0.025c-1.627-0.024-3.242-0.775-4.866-1.177c-0.57-0.141-1.261-0.505-1.711-0.319
			c-5.587,2.307-11.219,2.448-17.06,0.973c-1.489-0.376-3.276,0.654-4.928,0.66c-8.857,0.029-17.718,0.03-26.573-0.16
			c-3.001-0.064-4.355,0.841-4.305,3.998c0.263,16.483,0.459,32.968,0.573,49.452c0.019,2.682,0.978,5.826-3.152,8.138
			c-0.337-2.602-0.753-4.757-0.869-6.928c-0.242-4.575-0.238-4.76-4.57-3.299c-6.395,2.154-12.725,4.514-19.002,6.992
			c-1.269,0.501-2.175,1.921-3.554,3.2c-0.854-0.812-1.767-1.677-2.68-2.542c0.627,0.429,1.255,0.856,1.882,1.285
			c2.738-2.912,5.476-5.823,8.214-8.735c-0.438-0.52-0.876-1.04-1.313-1.561c-76.974,0-153.947,0-232.222,0
			c3.264,3.192,5.824,5.695,8.384,8.199c-0.146,0.309-0.292,0.618-0.438,0.928c-4.27-1.177-8.589-2.197-12.795-3.569
			c-5.72-1.864-11.353-3.996-17.239-6.091c-2.313,6.378,1.38,13.138-2.121,18.796c-0.447,0.044-0.894,0.088-1.341,0.133
			c-0.393-1.535-1.127-3.07-1.126-4.606c0.01-17.102,0.123-34.203,0.238-51.305c0.019-2.808-0.477-5.202-2.883-7.155
			c-2.415-1.961-3.301-4.771-1.774-7.697c1.621-3.105,3.122-6.421,7.655-6.268c6.762,0.229,10.426,6.188,7.232,12.224
			c-0.53,1.002-1.653,2.174-2.665,2.354c-4.033,0.718-4.306,3.942-4.325,6.751c-0.072,10.471,0.246,20.943,0.323,31.416
			c0.016,2.141,0.294,3.21,2.933,2.84c2.821-0.395,5.31-0.595,7.737-2.717c1.871-1.636,5.004-1.795,7.538-2.715
			c3.909-1.418,7.786-2.925,12.127-4.564c1.46,1.67,0.937,3.348-1.571,4.667c-0.326,0.172-0.849,0.122-1.043,0.365
			c-1.094,1.371-2.116,2.8-3.163,4.209c1.661,0.453,3.319,1.295,4.981,1.3c17.095,0.058,34.191,0.012,51.286-0.074
			c8.864-0.044,17.729-0.345,26.592-0.319c15.984,0.045,31.968,0.359,47.952,0.355c17.854-0.003,35.709-0.291,53.564-0.35
			c13.347-0.045,26.693,0.057,40.039,0.16c1.19,0.01,2.375,0.52,3.794,0.851c1.698-5.563-4.834-5.511-6.24-9.767
			c10.534,1.26,19.254,6.988,29.562,9.047c0-5.591,0.022-10.407-0.006-15.225c-0.055-9.369,0.005-18.743-0.314-28.104
			c-0.075-2.213-1.464-4.383-2.043-6.001c0.877-2.157,1.558-3.977,2.363-5.738c0.273-0.598,0.86-1.053,1.304-1.573
			c0.462,0.609,1.402,1.303,1.312,1.813c-0.719,4.033,1.967,3.935,4.575,3.931c14.74-0.026,29.48-0.097,44.222-0.078
			c2.237,0.003,3.629-0.756,2.834-3.036c-2.733-7.846-5.676-15.619-8.506-23.432c-0.33-0.912-0.453-1.899-0.768-3.263
			c5.953-1.336,4.931,7.64,10.528,6.529c0-2.048,0.011-4.116-0.002-6.186c-0.086-14.114-0.126-28.229-0.317-42.343
			c-0.031-2.317-1.113-4.638-1.047-6.938c0.127-4.442,0.873-8.866,1.059-13.31c0.073-1.766-1.011-3.574-0.965-5.349
			c0.142-5.545,0.807-11.082,0.818-16.623c0.01-5.294-0.731-10.586-0.817-15.884c-0.243-14.763-0.4-29.529-0.393-44.292
			c0.001-3.289,1.031-6.568,1.172-9.869c0.082-1.91-0.665-3.855-1.213-6.683c-2.903,3.192-4.968,5.463-7.032,7.734
			c-0.366-0.084-0.731-0.168-1.098-0.253c0-1.389-0.376-2.914,0.065-4.144c1.87-5.213,4.095-10.3,5.959-15.516
			c0.906-2.532,1.305-5.246,2.085-8.51c-5.921,0-11.226-0.001-16.53,0c-5.373,0.002-10.749,0.113-16.119-0.017
			c-5.28-0.128-10.29-0.041-14.992,3.243c-3.282,2.292-7.62,0.158-9.297-3.633c-0.261-0.587-1.053-0.94-1.598-1.402L412.118,86.049z
			"/>
		<path fill-rule="evenodd" clip-rule="evenodd" d="M419.125,270.467c-2.314,0.203-4.628,0.576-6.942,0.577
			c-8.482,0.005-16.971,0.047-25.443-0.265c-3.453-0.126-4.45,1.476-4.415,4.359c0.095,7.846,0.271,15.69,0.41,23.535
			c0.02,1.117,0.443,2.536-0.08,3.28c-0.732,1.043-2.276,2.274-3.292,2.133c-0.906-0.127-2.232-2.011-2.23-3.118
			c0.021-9.523,0.375-19.045,0.458-28.569c0.024-2.938,0.955-4.371,4.079-4.383c10.227-0.039,20.454-0.335,30.679-0.263
			c2.277,0.017,4.546,1.139,6.818,1.752C419.152,269.826,419.139,270.146,419.125,270.467z"/>
		<path fill-rule="evenodd" clip-rule="evenodd" d="M246.831,183.769c-1.888,0.868-3.341,1.826-4.931,2.203
			c-2.664,0.629-5.396-0.176-6.013-2.891c-0.561-2.472-0.07-5.32,0.531-7.866c0.345-1.464,1.925-2.6,2.785-3.986
			c1.963-3.166,4.688-4.871,8.462-4.801c1.483,0.028,2.967,0.004,4.914,0.004c0.498-3.16,0.984-6.254,1.471-9.349
			c-0.451-0.339-0.902-0.678-1.353-1.018c1.609-0.455,3.226-1.301,4.827-1.271c2.285,0.042,2.786,1.571,1.997,3.687
			c-1.825,4.891-3.594,9.803-5.3,14.735c-0.642,1.858-1.091,3.79-1.537,5.708c-0.157,0.672-0.332,1.818-0.005,2.05
			c2.753,1.945,0.975,3.832-0.531,4.646c-1.782,0.964-4.197,1.09-5.154-1.736C246.965,183.801,246.816,183.757,246.831,183.769z
			 M241.396,182.568c5.64-1.365,7.545-5.814,8.618-10.733c0.236-1.085-0.528-2.577-1.25-3.58c-0.253-0.353-1.966-0.089-2.656,0.398
			c-1.361,0.962-2.539,2.216-3.674,3.457C239.337,175.493,238.963,179.89,241.396,182.568z"/>
		<path fill-rule="evenodd" clip-rule="evenodd" d="M490.323,52.444c-0.802-2.021-1.205-3.038-1.682-4.239
			c-2.413-0.108-4.868-0.219-8.456-0.38c2.568-2.936,4.408-5.51,6.711-7.565c3.486-3.111,4.104-5.752,1.402-8.488
			c-1.768,0.422-4.156,2.908-4.636-1.174c1.632-0.756,3.096-1.435,4.943-2.291c-0.051-0.066,0.188,0.296,0.48,0.606
			c1.231,1.3,3.315,2.448,3.553,3.902c0.538,3.299-0.983,6.206-3.578,8.482c-0.84,0.737-1.418,1.771-2.224,2.808
			c5.495,1.854,7.656,1.104,9.938-4.214c3.462-8.068,5.944-16.357,3.215-25.318c-0.394-1.292,0.31-2.917,0.505-4.389
			c0.488-0.059,0.976-0.118,1.463-0.177c1.095,3.403,2.734,6.739,3.17,10.226c0.882,7.067,0.042,13.549-4.508,19.944
			C497.581,44.449,492.811,46.791,490.323,52.444z"/>
		<path fill-rule="evenodd" clip-rule="evenodd" d="M88.465,337.253c5.374-2.866,6.437-5.186,5.209-10.291
			c-0.217-0.904,0.113-2.17,0.655-2.943c0.34-0.485,1.881-0.768,2.29-0.428c0.722,0.602,1.503,1.841,1.355,2.647
			c-0.483,2.652-0.765,5.656-2.231,7.748c-3,4.278-6.721,8.051-10.142,12.033c-1.414,1.646-2.778,3.338-4.251,4.93
			c-0.574,0.62-1.344,1.356-2.098,1.45c-1.381,0.171-2.831-0.015-4.215-0.258c-0.239-0.042-0.521-1.566-0.406-1.622
			c1.114-0.537,2.281-1.034,3.486-1.3c3.396-0.748,5.146-3.567,5.349-6.257c0.342-4.523-0.462-9.145-0.946-13.707
			c-0.062-0.586-1.189-0.996-1.658-1.614c-0.694-0.912-1.241-1.938-1.851-2.914c0.945-0.481,1.855-1.272,2.842-1.386
			c2.683-0.308,4.883,0.113,5.125,3.663C87.205,330.335,87.918,333.631,88.465,337.253z"/>
		<path fill-rule="evenodd" clip-rule="evenodd" d="M470.815,36.102c1.814-2.109,3.292-3.229,3.921-4.709
			c0.783-1.846,0.947-3.977,1.219-6.006c0.137-1.015-0.417-2.246-0.011-3.055c0.24-0.478,2.003-0.734,2.619-0.351
			c0.913,0.568,2.016,1.828,1.966,2.735c-0.098,1.797-0.504,3.868-1.538,5.267c-2.625,3.554-5.705,6.768-8.52,10.187
			c-0.847,1.03-1.295,2.388-2.14,3.42c-2.207,2.694-4.316,5.53-6.882,7.849c-1.912,1.729-3.651-0.307-3.956-4.875
			c0.707-0.074,1.421-0.19,2.139-0.218c4.025-0.154,6.436-2.415,6.396-6.351c-0.039-3.733-0.097-7.501-0.665-11.174
			c-0.231-1.496-1.953-2.713-2.75-4.19c-0.39-0.726-0.618-2.246-0.228-2.568c1.984-1.638,6.176,0.09,6.636,2.685
			c0.302,1.702,0.189,3.477,0.454,5.189C469.766,31.819,470.274,33.668,470.815,36.102z"/>
		<path fill-rule="evenodd" clip-rule="evenodd" d="M553.614,227.666c-1.304-3.163,0.307-4.038,3.039-4.239
			c4.307-0.317,6.224-2.468,5.846-6.795c-0.371-4.255-0.818-8.523-1.63-12.708c-0.268-1.379-1.776-2.519-2.717-3.768
			c4.414-3.208,6.822-2.282,7.451,2.921c0.355,2.936,0.475,5.9,0.828,8.837c0.066,0.552,0.739,1.03,1.061,1.448
			c1.522-1.849,3.079-3.351,4.143-5.144c1.033-1.743,2.924-3.462,0.856-5.983c-0.485-0.592,0.721-2.571,1.269-4.284
			c3.28,2.554,3.494,5.25,2.128,7.803c-1.536,2.869-3.576,5.486-5.552,8.096c-2.491,3.289-4.734,6.946-7.849,9.522
			C560.106,225.342,558.368,229.586,553.614,227.666z"/>
		<path fill-rule="evenodd" clip-rule="evenodd" d="M32.784,324.305c0.242,1.203,0.457,2.273,0.847,4.218
			c1.072-1.072,2.205-1.671,2.25-2.342c0.188-2.791,2.372-2.816,4.036-2.717c1.02,0.061,1.955,1.539,2.928,2.381
			c-0.848,0.833-1.616,2.274-2.557,2.399c-6.025,0.798-7.886,4.579-4.176,9.438c0.757,0.99,2.836,0.973,4.906,1.603
			c1.015,3.271-2.561,3.922-4.842,4.785c-2.648,1.003-3.101-1.427-3.64-3.447c-0.231-0.868-1.163-1.552-1.996-2.593
			c-1.067,1.95-1.558,3.8-2.76,4.77c-1.173,0.948-3.056,1.183-4.663,1.319c-0.438,0.038-1.534-1.976-1.427-2.075
			c1.12-1.037,2.538-1.753,3.648-2.797c1.691-1.59,4.13-3.177,4.531-5.121c0.403-1.954-1.167-4.401-2.13-6.516
			c-0.487-1.07-1.542-1.882-2.34-2.812c1.421-0.483,2.814-1.173,4.274-1.374C30.564,323.301,31.559,323.929,32.784,324.305z"/>
		<path fill-rule="evenodd" clip-rule="evenodd" d="M228.019,376.419c-0.401,0.684-0.886,1.811-1.64,2.711
			c-0.937,1.121-1.953,2.555-3.205,2.914c-1.026,0.294-2.447-0.786-3.693-1.258c0.648-1.065,1.115-2.869,1.974-3.079
			c6.658-1.635,7.568-8.822,2.405-12.332c-0.625-0.424-1.007-1.756-0.867-2.557c0.089-0.513,1.466-1.285,2.052-1.13
			c1.437,0.378,3.165,0.889,4.031,1.952c2.297,2.821,2.756,2.926,5.056,0.184c0.863-1.028,2.097-1.746,3.162-2.604
			c0.969,1.272,1.938,2.545,3.005,3.946c-8.719,3.381-8.719,3.381-7.08,12.493c1.263-0.504,2.428-0.969,4.161-1.661
			c0.089,1.171,0.647,2.767,0.161,3.204c-1.413,1.273-3.896,3.299-4.776,2.826C230.885,381.019,229.751,378.621,228.019,376.419z"/>
		<path fill-rule="evenodd" clip-rule="evenodd" d="M305.08,377.107c-4.169,6.219-5.862,6.736-10.022,2.48
			c4.113-0.212,6.641-2.309,8.508-5.395c1.258-2.081,0.958-6.425-0.643-7.998c-0.962-0.947-1.759-2.063-2.631-3.103
			c1.265-0.674,2.517-1.373,3.805-2c0.307-0.149,0.731-0.058,1.295-0.086c0.888,1.774,1.8,3.599,2.891,5.784
			c1.77-1.761,3.134-3.285,4.672-4.608c1.803-1.55,3.096-0.359,3.711,3.362c-8.615,2.479-9.699,4.948-5.08,11.99
			c1.084-0.382,2.211-0.779,3.337-1.175c0.293,0.24,0.587,0.48,0.881,0.72c-1.369,1.621-2.425,3.891-4.17,4.733
			C307.332,383.891,307.666,378.529,305.08,377.107z"/>
		<path fill-rule="evenodd" clip-rule="evenodd" d="M490.858,213.304c1.698-3.864,6.834-6.143,4.687-11.869
			c-0.253-0.677,1.143-1.972,1.773-2.98c0.874,1.373,2.595,2.854,2.436,4.094c-0.284,2.218-1.402,4.499-2.712,6.378
			c-2.189,3.139-4.813,5.974-7.237,8.95c-2.11,2.593-4.15,5.245-6.326,7.782c-0.507,0.589-1.438,0.814-2.174,1.208
			c-0.359-0.188-0.72-0.378-1.08-0.566c0.628-1.192,1.201-2.417,1.896-3.567c0.975-1.614,2.893-3.166,2.905-4.757
			c0.038-4.554-0.667-9.114-1.12-13.669c-0.059-0.591-0.245-1.223-0.556-1.723c-0.521-0.837-1.188-1.583-1.795-2.368
			c1.094-0.475,2.233-1.405,3.271-1.305c1.145,0.111,2.91,0.972,3.153,1.852c0.684,2.469,0.731,5.114,1.011,7.692
			c0.165,1.534,0.295,3.072,0.441,4.608C489.907,213.144,490.383,213.224,490.858,213.304z"/>
		<path fill-rule="evenodd" clip-rule="evenodd" d="M423.155,38.245c-1.979,1.003-3.946,2.724-5.944,2.762
			c-1.362,0.026-2.771-2.297-3.753-3.199c-2.427,1.037-5.188,2.285-8.033,3.305c-0.228,0.081-1.021-1.42-1.691-2.387
			c5.911-1.04,8.473-3.365,8.639-7.663c0.13-3.38-0.172-6.624-5.785-6.717c1.322-1.272,1.966-2.413,2.632-2.426
			c1.504-0.031,3.944,0.029,4.371,0.875c1.861,3.688,3.754,1.873,5.508,0.323c2.283-2.018,4.028-2.12,5.762,1.227
			c-1.346,0.61-2.571,1.5-3.901,1.703c-3.49,0.534-4.46,2.713-4.14,5.775c0.566,5.402,0.616,5.396,5.673,5.197
			C422.712,37.429,422.935,37.837,423.155,38.245z"/>
		<path fill-rule="evenodd" clip-rule="evenodd" d="M123.962,326.914c-1.244,7.778-3.498,14.114-8.662,19.218
			c-1.757,1.737-3.192,3.799-4.932,5.556c-0.438,0.442-1.484,0.283-2.25,0.4c0.124-0.771-0.022-1.775,0.413-2.279
			c8.169-9.448,12.575-19.983,9.918-32.729c-0.17-0.817,0.623-1.835,0.968-2.761c0.558,0.817,1.348,1.562,1.632,2.464
			C122.158,320.314,123.107,323.896,123.962,326.914z"/>
		<path fill-rule="evenodd" clip-rule="evenodd" d="M28.203,313.611c-1.11,1.904-2.138,3.863-3.35,5.7
			c-1.699,2.575-3.837,4.903-5.255,7.614c-4.057,7.756-5.447,15.807-1.658,24.16c0.083,0.184-0.068,0.475-0.299,1.793
			c-1.298-0.942-2.752-1.432-3.128-2.358c-3.6-8.891-3.503-17.987,1.138-26.245c2.531-4.503,7.136-7.841,10.806-11.704
			C27.039,312.918,27.621,313.265,28.203,313.611z"/>
		<path fill-rule="evenodd" clip-rule="evenodd" d="M411.172,12.043c-11.812,9.857-15.299,22.436-12.038,37.221
			c-5.532-4.98-7.019-13.523-4.104-19.619c1.73-3.618,3.089-7.458,5.188-10.841c1.65-2.659,4.038-4.932,6.397-7.042
			c0.817-0.731,2.531-0.463,3.836-0.651C410.692,11.422,410.932,11.733,411.172,12.043z"/>
		<path fill-rule="evenodd" clip-rule="evenodd" d="M244.773,373.318c-0.21-4.811,1.094-5.461,7.608-4.091
			c3.008,5.947,0.292,10.187-3.807,13.265c0.917,1.457,2.477,3.061,2.165,3.618c-0.714,1.278-2.214,2.525-3.63,2.901
			c-1.837,0.489-3.902,0.12-6.719-0.729c1.18-1.576,2.282-3.217,3.559-4.71c1.593-1.862,3.892-3.338,4.885-5.45
			C250.817,373.9,249.53,372.51,244.773,373.318z"/>
		<path fill-rule="evenodd" clip-rule="evenodd" d="M419.113,201.272c0,12.027,0,24.054,0,36.43
			c-0.991-0.053-2.019-0.106-2.768-0.146c-0.18-2.151-0.455-3.961-0.459-5.771c-0.017-6.584,0.06-13.168,0.096-19.752
			c0.017-2.988-0.121-5.989,0.123-8.958c0.07-0.855,1.226-1.621,1.884-2.427C418.364,200.856,418.739,201.064,419.113,201.272z"/>
		<path fill-rule="evenodd" clip-rule="evenodd" d="M415.205,145.387c0-4.698,0.047-9.396-0.01-14.094
			c-0.113-9.253-0.301-18.506-0.419-27.759c-0.021-1.587,0.056-3.192,0.294-4.756c0.06-0.389,0.946-0.928,1.418-0.895
			c0.409,0.029,1.183,0.946,1.088,1.168c-1.34,3.134,1.401,6.276-0.519,9.742c-1.176,2.123-0.059,5.536,0.086,8.366
			c0.179,3.495,0.415,6.987,0.632,10.48c0.256,4.131,0.739,8.266,0.675,12.393c-0.029,1.828-1.165,3.639-1.799,5.457
			C416.17,145.455,415.688,145.421,415.205,145.387z"/>
		<path fill-rule="evenodd" clip-rule="evenodd" d="M428.952,31.396c0.778-0.778,1.818-2.131,3.17-3.003
			c0.506-0.328,1.879,0.258,2.608,0.777c5.34,3.797,4.876,8.845-0.938,12.091c-1.003,0.56-1.646,1.763-3.003,3.283
			c2.512,0.303,3.815,0.46,5.734,0.691c-3.233,4.971-7.603,1.698-10.992,2.908c-0.175-0.274-0.349-0.549-0.523-0.823
			c2.454-2.828,4.637-5.975,7.456-8.373c1.894-1.611,3.615-3.182,2.365-5.332C434.147,32.442,431.631,32.332,428.952,31.396z"/>
		<path fill-rule="evenodd" clip-rule="evenodd" d="M508.061,209.441c-1.526-0.141-2.835-0.261-4.306-0.396
			c2.119-2.835,5.146-3.635,7.22-2.113c2.455,1.803,2.533,6.091,0.045,8.943c-1.726,1.979-3.61,3.819-5.424,5.722
			c0.167,0.296,0.335,0.592,0.503,0.888c1.295-0.293,2.591-0.586,4.575-1.035c-0.34,1.076-0.368,2.126-0.904,2.698
			c-2.479,2.644-5.696,1.526-8.68,1.392c-0.354-0.017-1.049-1.039-0.93-1.31c0.274-0.631,0.868-1.216,1.474-1.594
			C505.383,220.296,508.743,213.638,508.061,209.441z"/>
		<path fill-rule="evenodd" clip-rule="evenodd" d="M320.661,388.792c1.229-4.582,2.465-8.948,3.538-13.354
			c0.295-1.207-0.187-2.633,0.21-3.778c0.443-1.28,1.479-2.356,2.258-3.521c0.951,1.017,2.84,2.201,2.691,3.02
			c-0.615,3.416-1.879,6.712-2.829,10.072c-0.397,1.408-0.96,2.902-0.831,4.301C326.039,389.233,324.392,389.918,320.661,388.792z"
			/>
		<path fill-rule="evenodd" clip-rule="evenodd" d="M276.015,368.94c2.869,0,5.74,0.084,8.604-0.03
			c1.833-0.073,3.107,0.585,2.844,2.412c-0.092,0.635-1.728,1.443-2.692,1.491c-5.96,0.293-11.93,0.479-17.897,0.466
			c-0.96-0.001-1.919-1.17-2.878-1.799c0.886-0.852,1.708-2.34,2.671-2.439c3.088-0.315,6.229-0.117,9.348-0.117
			C276.015,368.929,276.015,368.935,276.015,368.94z"/>
		<path fill-rule="evenodd" clip-rule="evenodd" d="M105.661,350.895c-1.429,0-2.861,0-4.359,0
			c1.636-6.692,3.221-13.177,4.911-20.092c3.185-0.946,4.457,0.04,3.455,3.969c-0.751,2.946-2.242,5.703-3.019,8.646
			C106.026,345.777,105.982,348.29,105.661,350.895z"/>
		<path fill-rule="evenodd" clip-rule="evenodd" d="M55.207,330.866c-1.621,6.613-3.202,13.063-4.874,19.889
			c-1.141,0-3.012,0-4.432,0c1.449-4.77,2.847-9.33,4.208-13.903c0.205-0.688,0.402-1.448,0.318-2.14
			C49.86,330.021,50.016,329.857,55.207,330.866z"/>
		<path fill-rule="evenodd" clip-rule="evenodd" d="M588.623,208.43c-1.577,5.594-2.835,10.489-4.427,15.273
			c-0.27,0.812-1.976,1.145-3.019,1.698c-0.083-1.168-0.407-2.379-0.205-3.494c0.808-4.459,1.663-8.918,2.782-13.305
			c0.247-0.97,1.618-2.233,2.525-2.278C587.074,206.284,587.942,207.769,588.623,208.43z"/>
		<path fill-rule="evenodd" clip-rule="evenodd" d="M548.007,208.944c-8.691,0-16.648,0-25.016,0
			C525.962,206.509,543.602,206.447,548.007,208.944z"/>
		<path fill-rule="evenodd" clip-rule="evenodd" d="M404.22,303.093c-4.879,0-9.539,0-14.531,0c0-1.292,0-2.391,0-3.129
			c4.335,0,8.362,0.299,12.32-0.099C404.919,299.573,404.194,301.055,404.22,303.093z"/>
		<path fill-rule="evenodd" clip-rule="evenodd" d="M62.842,343.035c-1.179,2.173-1.955,3.994-3.103,5.541
			c-0.508,0.685-1.767,0.813-2.685,1.193c-0.067-0.885-0.264-1.783-0.173-2.651c0.16-1.517,0.397-3.043,0.792-4.514
			c0.344-1.283,0.949-2.496,1.439-3.739c0.84,0.839,1.708,1.651,2.508,2.527C62.111,341.928,62.494,342.56,62.842,343.035z"/>
		<path fill-rule="evenodd" clip-rule="evenodd" d="M212.537,302.979c-3.777,0-6.746,0.051-9.709-0.044
			c-0.563-0.019-1.295-0.5-1.584-0.985c-0.159-0.267,0.422-1.424,0.704-1.437c3.296-0.147,6.602-0.221,9.895-0.077
			C212.12,300.449,212.324,302.159,212.537,302.979z"/>
		<path fill-rule="evenodd" clip-rule="evenodd" d="M439.143,47.217c0.368-3.549,0.627-6.059,0.949-9.168
			c1.23,0.156,2.582,0.327,3.934,0.499c-0.29,2.096-0.182,4.369-1.014,6.22C442.502,45.901,440.547,46.383,439.143,47.217z"/>
		<path fill-rule="evenodd" clip-rule="evenodd" d="M415.68,182.771c0-3.378,0-6.758,0-10.535c1.114,0.142,2.234,0.285,4.454,0.568
			c-1.593,1.326-2.401,2-4.181,3.481c1.196,0.596,2.277,1.135,3.281,1.635c-0.974,1.968-1.779,3.595-2.584,5.224
			C416.326,183.021,416.003,182.896,415.68,182.771z"/>
		<path fill-rule="evenodd" clip-rule="evenodd" d="M418.992,242.607c0.235,2.095,0.536,3.873,0.58,5.658
			c0.016,0.59-0.556,1.623-0.99,1.699c-0.748,0.13-1.786-0.109-2.365-0.595C415.088,248.424,416.972,243.325,418.992,242.607z"/>
		<path fill-rule="evenodd" clip-rule="evenodd" d="M364.076,299.864c2.513,0.339,4.132,0.557,6.291,0.848c0,0.54,0,1.699,0,2.802
			c-1.475-0.354-2.552-0.715-3.657-0.848c-0.938-0.112-1.909,0.039-2.865,0.072C363.933,301.642,364.021,300.545,364.076,299.864z"
			/>
		<path fill-rule="evenodd" clip-rule="evenodd" d="M280.833,303.506c0-1.213,0-2.481,0-3.416c2.308,0,4.093,0,6.307,0
			c0.064,0.476,0.201,1.484,0.337,2.49C285.255,302.89,283.399,303.148,280.833,303.506z"/>
		<path fill-rule="evenodd" clip-rule="evenodd" d="M183.076,303.529c-2.336-0.206-3.603-0.251-4.845-0.453
			c-0.638-0.104-1.564-0.341-1.756-0.781c-0.232-0.531,0.07-1.895,0.324-1.944c1.731-0.333,3.544-0.656,5.251-0.415
			C182.504,299.999,182.679,302.042,183.076,303.529z"/>
		<path fill-rule="evenodd" clip-rule="evenodd" d="M415.927,196.565c-0.21-2.621-0.376-4.692-0.58-7.231
			c1.444,0.202,2.575,0.36,4.838,0.676C416.315,191.32,421.71,196.278,415.927,196.565z"/>
		<path fill-rule="evenodd" clip-rule="evenodd" d="M330.853,300.158c2.685-0.155,4.456-0.257,6.628-0.383
			c0.092,0.748,0.228,1.858,0.369,3.018c-1.717,0-2.994,0.015-4.271-0.005c-0.908-0.013-2.41,0.222-2.603-0.169
			C330.57,301.797,330.853,300.636,330.853,300.158z"/>
		<path fill-rule="evenodd" clip-rule="evenodd" d="M419.825,162.682c-2.179,0-3.126,0-4.271,0c0-2.293,0-4.438,0-7.07
			c1.307,0.246,2.393,0.449,3.479,0.654c0.313,0.439,0.628,0.879,0.942,1.32c-0.951,0.417-1.903,0.835-2.715,1.19
			C417.99,159.887,418.693,160.958,419.825,162.682z"/>
		<path fill-rule="evenodd" clip-rule="evenodd" d="M254.566,302.932c-7.864,0.09-7.864,0.09-6.627-3.018
			c1.933,0.169,3.845,0.336,6.193,0.541C254.2,300.846,254.357,301.741,254.566,302.932z"/>
		<path fill-rule="evenodd" clip-rule="evenodd" d="M323.045,300.172c1.978,0,3.795,0,6.136,0c0.067,0.343,0.281,1.431,0.512,2.604
			C321.823,302.87,321.823,302.87,323.045,300.172z"/>
		<path fill-rule="evenodd" clip-rule="evenodd" d="M415.628,163.76c1.357,0.38,2.341,0.656,3.793,1.062
			c-1.029,1.097-1.707,1.82-2.465,2.628c0.734,0.905,1.416,1.743,2.493,3.069c-1.514,0.258-2.585,0.441-3.821,0.653
			C415.628,168.523,415.628,166.314,415.628,163.76z"/>
		<path fill-rule="evenodd" clip-rule="evenodd" d="M295.301,300.665c0.05,0.296,0.198,1.184,0.376,2.248
			c-2.308,0-4.315,0.119-6.271-0.141c-0.263-0.035-0.273-1.977-0.404-3.061C291.309,300.061,293.059,300.326,295.301,300.665z"/>
		<path fill-rule="evenodd" clip-rule="evenodd" d="M224.194,300.278c0.844,1.461,1.278,2.767-1.617,2.562
			c-1.09-0.077-2.226,0.311-3.295,0.161c-0.673-0.094-1.263-0.79-1.89-1.216c0.685-0.502,1.32-1.321,2.066-1.439
			C220.909,300.115,222.422,300.278,224.194,300.278z"/>
		<path fill-rule="evenodd" clip-rule="evenodd" d="M154.701,285.706c0.405,1.568,0.81,3.137,1.215,4.704
			c-0.918,0.136-1.835,0.271-2.753,0.407c-0.199-1.58-0.397-3.161-0.597-4.742C153.278,285.952,153.99,285.829,154.701,285.706z"/>
		<path fill-rule="evenodd" clip-rule="evenodd" d="M304.046,302.828c-2.413,0-4.105,0-6.291,0c0.159-1.12,0.315-2.216,0.409-2.884
			c1.883,0.095,3.37,0.169,5.373,0.269C303.603,300.548,303.796,301.542,304.046,302.828z"/>
		<path fill-rule="evenodd" clip-rule="evenodd" d="M348.292,135.167c1.202-0.792,2.404-1.584,3.606-2.376
			c0.54,0.881,1.08,1.762,1.621,2.644c-1.388,0.546-2.775,1.094-4.163,1.641C349.002,136.439,348.646,135.803,348.292,135.167z"/>
		<path fill-rule="evenodd" clip-rule="evenodd" d="M243.122,215.886c1.072,1.777,2.119,2.745,1.975,3.479
			c-0.165,0.832-1.395,1.454-2.163,2.168c-0.694-0.758-1.855-1.465-1.944-2.288C240.907,218.481,241.972,217.595,243.122,215.886z"
			/>
		<path fill-rule="evenodd" clip-rule="evenodd" d="M391.124,101.149c0.48,0.975,1.34,1.959,1.318,2.922
			c-0.018,0.756-1.127,1.486-1.751,2.228c-0.599-0.813-1.567-1.576-1.688-2.454c-0.113-0.827,0.67-1.776,1.06-2.671
			C390.417,101.166,390.771,101.157,391.124,101.149z"/>
		<path fill-rule="evenodd" clip-rule="evenodd" d="M365.982,126.02c-0.674-1.25-1.346-2.5-2.019-3.751
			c1.229-0.18,2.458-0.359,3.687-0.538c0.073,1.229,0.147,2.458,0.221,3.686C367.241,125.618,366.611,125.819,365.982,126.02z"/>
		<path fill-rule="evenodd" clip-rule="evenodd" d="M216.466,241.987c-1.241,1.128-2.383,2.486-2.635,2.337
			c-1.03-0.606-1.788-1.675-2.646-2.573c0.814-0.587,1.608-1.595,2.451-1.638C214.394,240.076,215.205,241.099,216.466,241.987z"/>
		<path fill-rule="evenodd" clip-rule="evenodd" d="M230.417,300.77c-0.922,0.768-1.608,1.338-2.293,1.908
			c-0.308-0.471-0.959-1.26-0.867-1.359c0.604-0.654,1.296-1.366,2.104-1.655c0.875-0.313,1.907-0.188,3.185-0.276
			c0,1.243,0,2.313,0,4.475C231.406,302.205,230.901,301.472,230.417,300.77z"/>
		<path fill-rule="evenodd" clip-rule="evenodd" d="M183.708,268.862c-1.205-1.466-1.892-2.302-2.579-3.139
			c0.919-0.606,1.804-1.595,2.772-1.684c0.637-0.06,1.976,1.197,1.954,1.827C185.824,266.693,184.764,267.483,183.708,268.862z"/>
		<path fill-rule="evenodd" clip-rule="evenodd" d="M420.153,274.677c-0.856,1.702-1.531,3.044-2.207,4.386
			c-0.451-1.519-1.107-3.019-1.257-4.565c-0.063-0.65,0.946-1.404,1.469-2.111C418.778,273.099,419.398,273.811,420.153,274.677z"/>
		<path fill-rule="evenodd" clip-rule="evenodd" d="M166.522,281.438c-0.88,0.527-1.774,1.469-2.635,1.438
			c-0.578-0.021-1.692-1.593-1.523-2.159c0.266-0.889,1.313-1.924,2.211-2.139c0.935-0.223,2.084,0.454,3.141,0.737
			C167.318,280.022,166.92,280.729,166.522,281.438z"/>
		<path fill-rule="evenodd" clip-rule="evenodd" d="M358.185,298.551c0.479,1.099,1.25,2.176,1.328,3.301
			c0.047,0.693-0.964,1.459-1.501,2.192c-0.88-0.719-1.994-1.3-2.536-2.218c-0.245-0.416,0.645-1.502,1.019-2.284
			C357.058,299.211,357.621,298.882,358.185,298.551z"/>
		<path fill-rule="evenodd" clip-rule="evenodd" d="M412.039,85.958c0.048,1.188,0.461,2.553,0.004,3.498
			c-0.265,0.548-1.942,0.595-2.955,0.51c-0.408-0.034-1.171-1.257-1.022-1.532c0.447-0.825,1.171-1.597,1.969-2.102
			c0.54-0.341,1.387-0.196,2.09-0.275C412.118,86.049,412.039,85.958,412.039,85.958z"/>
		<path fill-rule="evenodd" clip-rule="evenodd" d="M378.08,112.078c0.948-0.861,1.826-2.272,2.867-2.404
			c0.794-0.101,1.793,1.42,2.701,2.22c-0.195,0.363-0.391,0.725-0.585,1.088c-1.343,0.105-2.686,0.212-4.027,0.317
			C378.718,112.893,378.399,112.486,378.08,112.078z"/>
		<path fill-rule="evenodd" clip-rule="evenodd" d="M219.889,234.742c1.531-1.106,2.486-2.252,3.022-2.082
			c0.889,0.283,1.722,1.318,2.127,2.235c0.147,0.333-1.085,1.825-1.545,1.761C222.501,236.518,221.602,235.714,219.889,234.742z"/>
		<path fill-rule="evenodd" clip-rule="evenodd" d="M154.884,302.611c-0.999,0.088-1.625,0.218-2.237,0.172
			c-0.435-0.033-1.042-0.191-1.225-0.5c-0.206-0.344-0.048-1.335,0-1.338c2.024-0.137,4.054-0.226,6.083-0.204
			c0.168,0.002,0.527,1.157,0.46,1.197c-0.626,0.364-1.307,0.696-2.013,0.843C155.512,302.874,155.002,302.635,154.884,302.611z"/>
		<path fill-rule="evenodd" clip-rule="evenodd" d="M297.275,180.062c-1.028-1.364-2.111-2.187-2.011-2.822
			c0.131-0.824,1.205-1.498,1.872-2.236c0.707,0.665,1.866,1.258,1.989,2.018C299.238,177.715,298.228,178.591,297.275,180.062z"/>
		<path fill-rule="evenodd" clip-rule="evenodd" d="M415.299,147.294c1.595,0.302,2.631,0.498,4.233,0.801
			c-1.149,0.832-1.858,1.344-2.853,2.063c0.938,0.766,1.692,1.381,2.675,2.182c-1.136,0.663-2.109,1.23-3.547,2.068
			C415.638,152.029,415.488,149.942,415.299,147.294z"/>
		<path fill-rule="evenodd" clip-rule="evenodd" d="M339.597,140.527c1.325,0.536,2.652,1.072,3.979,1.608
			c-0.504,0.854-1.007,1.708-1.51,2.562c-1.134-0.833-2.268-1.667-3.401-2.499C338.976,141.641,339.286,141.084,339.597,140.527z"/>
		<path fill-rule="evenodd" clip-rule="evenodd" d="M285.514,188.472c-1.619,1.082-2.509,2.026-3.528,2.196
			c-0.443,0.074-1.152-1.441-1.741-2.236c0.791-0.547,1.537-1.423,2.386-1.538C283.301,186.804,284.097,187.649,285.514,188.472z"/>
		<path fill-rule="evenodd" clip-rule="evenodd" d="M317.045,300.498c1.31-0.069,2.619-0.139,3.928-0.208
			c-0.023,0.985-0.047,1.972-0.07,2.957c-1.321-0.243-2.643-0.485-3.963-0.728C316.975,301.846,317.01,301.172,317.045,300.498z"/>
		<path fill-rule="evenodd" clip-rule="evenodd" d="M315.168,165.808c-1.432,1.028-2.396,2.17-2.921,1.996
			c-0.888-0.294-1.498-1.424-2.226-2.203c0.739-0.596,1.448-1.609,2.227-1.665C312.969,163.884,313.766,164.853,315.168,165.808z"/>
		<path fill-rule="evenodd" clip-rule="evenodd" d="M195.634,255.547c0,1.598,0,2.786,0,3.974c-0.28,0.249-0.56,0.499-0.839,0.748
			c-1.163-1.023-2.324-2.047-3.486-3.071c0.157-0.389,0.314-0.776,0.471-1.164C192.988,255.881,194.196,255.729,195.634,255.547z"/>
		<path fill-rule="evenodd" clip-rule="evenodd" d="M172.689,270.362c1.941,1.498,2.948,2.275,3.955,3.053
			c0.022,0.364,0.044,0.729,0.066,1.093c-1.26,0.269-2.521,0.536-3.781,0.804C172.864,273.964,172.798,272.616,172.689,270.362z"/>
		<path fill-rule="evenodd" clip-rule="evenodd" d="M274.477,197.772c-1.27,0-2.539,0-5.041,0c1.416-1.659,2.199-2.576,2.982-3.494
			c0.966,0.842,1.931,1.685,2.896,2.526C275.035,197.127,274.756,197.45,274.477,197.772z"/>
		<path fill-rule="evenodd" clip-rule="evenodd" d="M359.152,131.584c-1.431,0.374-2.853,0.798-4.307,1.008
			c-0.101,0.015-0.432-1.561-0.656-2.397c1.512-0.185,3.023-0.371,4.535-0.556C358.867,130.288,359.01,130.936,359.152,131.584z"/>
		<path fill-rule="evenodd" clip-rule="evenodd" d="M250.335,215.164c-1.271,0.983-2.037,1.577-2.804,2.172
			c-0.578-0.841-1.487-1.636-1.606-2.536c-0.07-0.525,1.196-1.776,1.731-1.706C248.457,213.199,249.143,214.179,250.335,215.164z"/>
		<path fill-rule="evenodd" clip-rule="evenodd" d="M376.125,119.02c-1.053-1.806-1.869-2.6-1.876-3.401
			c-0.007-0.735,0.861-1.478,1.343-2.218c0.742,0.661,1.897,1.216,2.102,2.015C377.877,116.129,377.013,117.113,376.125,119.02z"/>
		<path fill-rule="evenodd" clip-rule="evenodd" d="M256.847,205.525c1.038,0.842,2.075,1.684,3.113,2.525
			c-0.827,0.523-1.923,1.657-2.423,1.438c-0.924-0.406-1.498-1.606-2.218-2.476C255.828,206.517,256.337,206.021,256.847,205.525z"
			/>
		<path fill-rule="evenodd" clip-rule="evenodd" d="M330.271,154.762c-1.901,0.666-2.889,1.369-3.667,1.186
			c-0.794-0.187-1.383-1.245-2.063-1.922c0.84-0.6,1.67-1.646,2.522-1.666C327.828,152.342,328.619,153.457,330.271,154.762z"/>
		<path fill-rule="evenodd" clip-rule="evenodd" d="M343.04,138.243c2.116-0.669,3.224-1.02,4.331-1.37
			c0.104,1.315,0.209,2.632,0.313,3.947c-0.375,0.131-0.75,0.262-1.125,0.394C345.715,140.502,344.871,139.79,343.04,138.243z"/>
		<path fill-rule="evenodd" clip-rule="evenodd" d="M294.495,180.108c-0.618,0.961-1.29,2.748-1.843,2.712
			c-1.151-0.074-2.239-1.114-3.354-1.757c0.101-0.394,0.202-0.789,0.303-1.183c1.306-0.281,2.611-0.562,3.916-0.843
			C293.843,179.394,294.169,179.75,294.495,180.108z"/>
		<path fill-rule="evenodd" clip-rule="evenodd" d="M171.573,277.663c-0.836,0.425-1.687,1.202-2.503,1.167
			c-0.688-0.029-1.336-1.001-2.003-1.556c0.604-0.582,1.173-1.585,1.823-1.641c0.852-0.072,1.768,0.603,2.657,0.956
			C171.555,276.947,171.564,277.305,171.573,277.663z"/>
		<path fill-rule="evenodd" clip-rule="evenodd" d="M260.866,304.453c-0.839-1.461-1.784-2.448-1.576-2.886
			c0.396-0.832,1.452-1.349,2.233-1.996c0.48,0.617,1.432,1.321,1.337,1.831C262.701,302.261,261.876,302.995,260.866,304.453z"/>
		<path fill-rule="evenodd" clip-rule="evenodd" d="M398.066,97.091c0.953-0.848,1.906-1.696,2.859-2.543
			c0.447,0.882,0.896,1.764,1.344,2.646c-1.104,0.443-2.208,0.887-3.313,1.33C398.66,98.047,398.363,97.568,398.066,97.091z"/>
		<path fill-rule="evenodd" clip-rule="evenodd" d="M332.524,147.829c0,1.552,0,3.103,0,4.984
			C328.512,151.191,328.968,149.616,332.524,147.829z"/>
		<path fill-rule="evenodd" clip-rule="evenodd" d="M233.059,229.451c-0.906-1.177-1.516-1.971-2.126-2.765
			c0.71-0.524,1.552-1.582,2.099-1.447c0.808,0.2,1.726,1.154,1.965,1.972C235.127,227.652,233.941,228.479,233.059,229.451z"/>
		<path fill-rule="evenodd" clip-rule="evenodd" d="M338.193,148.491c-1.378-0.692-2.753-1.384-4.13-2.075
			c0.759-0.594,1.68-1.801,2.243-1.652c1.09,0.287,1.978,1.338,2.948,2.073C338.901,147.388,338.547,147.939,338.193,148.491z"/>
		<path fill-rule="evenodd" clip-rule="evenodd" d="M262.491,206.504c-0.492-1.22-0.983-2.438-1.476-3.659
			c0.862-0.253,1.725-0.506,2.586-0.759c0.214,1.321,0.429,2.643,0.644,3.965C263.66,206.202,263.076,206.353,262.491,206.504z"/>
		<path fill-rule="evenodd" clip-rule="evenodd" d="M418.761,285.794c0,2.149,0,4.3,0,6.449c-0.343-0.009-0.686-0.019-1.027-0.029
			c0-2.193,0-4.387,0-6.581C418.075,285.687,418.418,285.74,418.761,285.794z"/>
		<path fill-rule="evenodd" clip-rule="evenodd" d="M361.109,130.5c-0.774-1.87-1.228-2.965-1.682-4.061
			c1.223-0.207,2.444-0.413,3.666-0.62c0.148,0.349,0.297,0.698,0.444,1.047C362.916,127.797,362.295,128.728,361.109,130.5z"/>
		<path fill-rule="evenodd" clip-rule="evenodd" d="M315.865,163.983c0-1.291,0-2.582,0-3.873c0.88,0.167,1.759,0.334,2.639,0.501
			c-0.27,1.213-0.54,2.427-0.81,3.641C317.085,164.162,316.475,164.072,315.865,163.983z"/>
		<path fill-rule="evenodd" clip-rule="evenodd" fill="#FFFFFF" d="M241.396,182.568c-2.433-2.678-2.059-7.075,1.038-10.459
			c1.136-1.241,2.313-2.494,3.674-3.457c0.689-0.487,2.402-0.751,2.656-0.398c0.723,1.003,1.486,2.495,1.25,3.58
			C248.941,176.754,247.036,181.204,241.396,182.568z"/>
	</g>
</g>
</svg>
