<?xml version="1.0" encoding="utf-8"?>
<!-- Generator: Adobe Illustrator 16.0.0, SVG Export Plug-In . SVG Version: 6.00 Build 0)  -->
<!DOCTYPE svg PUBLIC "-//W3C//DTD SVG 1.1//EN" "http://www.w3.org/Graphics/SVG/1.1/DTD/svg11.dtd">
<svg version="1.1" id="Layer_1" xmlns="http://www.w3.org/2000/svg" xmlns:xlink="http://www.w3.org/1999/xlink" x="0px" y="0px"
	 width="735.853px" height="354.8px" viewBox="0 0 735.853 354.8" enable-background="new 0 0 735.853 354.8" xml:space="preserve">
<g>
	<g>
		<path fill-rule="evenodd" clip-rule="evenodd" fill="#FFFFFF" d="M0.75,355.55c0-118.267,0-236.533,0-354.8
			c245.284,0,490.568,0,735.853,0c0,118.267,0,236.533,0,354.8C491.318,355.55,246.034,355.55,0.75,355.55z M123.963,274.165
			c-0.355,0.146-0.71,0.291-1.065,0.437c-5.977-4.878-11.973-9.731-17.924-14.641c-5.333-4.398-10.502-9.007-15.957-13.248
			c-5.475-4.256-11.243-8.136-16.776-12.32c-0.366-0.276-0.103-2.339,0.334-2.536c1.193-0.537,2.63-0.639,3.98-0.696
			c2.251-0.098,4.508-0.027,7.482-0.027c-0.912-1.412-1.125-2.191-1.572-2.362c-3.691-1.419-7.401-2.801-11.154-4.046
			c-4.822-1.6-9.731-2.943-14.52-4.631c-2.625-0.925-2.584-2.635-0.73-4.686c3.995-4.416,7.771-9.031,11.612-13.586
			c2.826-3.352,5.531-6.808,8.438-10.086c2.382-2.688,5.088-5.089,7.464-7.782c4.483-5.08,8.774-10.33,13.254-15.413
			c4.142-4.699,8.537-9.176,12.617-13.927c3.982-4.636,7.674-9.52,11.554-14.246c2.717-3.31,5.49-6.577,8.324-9.787
			c3.015-3.414,6.163-6.71,9.192-10.113c2.32-2.604,4.529-5.306,6.816-7.94c3.124-3.599,6.255-7.192,9.427-10.749
			c0.949-1.063,2.196-1.88,3.053-3.004c3.003-3.938,5.708-8.118,8.88-11.909c3.648-4.359,7.768-8.319,11.507-12.606
			c3.612-4.141,6.989-8.488,10.493-12.724c1.825-2.204,3.66-4.403,5.591-6.513c0.434-0.475,1.336-0.881,1.936-0.783
			c3.175,0.512,6.373,1.01,9.469,1.857c6.328,1.731,12.596,3.682,18.89,5.542c0.313-0.464,0.627-0.928,0.941-1.392
			c-1.577-1.728-3.173-3.439-4.723-5.191c-0.759-0.857-1.432-1.79-2.144-2.688c1.175-0.467,2.327-1.242,3.53-1.332
			c1.963-0.145,3.965,0.314,5.94,0.245c13.717-0.486,27.446-0.78,41.14-1.641c17.411-1.096,34.943,0.986,52.269-2.115
			c1.089-0.195,2.249-0.101,3.367-0.019c3.878,0.285,7.748,0.696,11.629,0.929c14.079,0.845,28.18,1.413,42.231,2.586
			c4.279,0.356,8.524,2.079,12.567,3.714c1.165,0.471,2.428,3.024,2.131,4.259c-0.486,2.025-1.961,4.001-3.479,5.543
			c-1.907,1.935-4.268,3.428-6.454,5.083c-5.541,4.198-11.091,8.383-16.644,12.565c-3.304,2.488-6.543,5.07-9.948,7.413
			c-3.951,2.719-7.979,5.344-12.102,7.792c-6.982,4.146-12.652,9.647-18.398,15.371c-5.271,5.251-3.028,15.932,2.288,19.944
			c7.654,5.778,16.326,9.872,25.203,13.292c5.996,2.31,12.469,3.366,18.693,5.111c4.204,1.179,8.32,2.679,12.529,3.844
			c2.142,0.592,4.395,0.943,6.61,1.013c0.68,0.021,1.874-1.188,1.973-1.946c0.1-0.778-0.685-2.256-1.368-2.457
			c-4.589-1.352-9.206-3.13-13.907-3.471c-8.283-0.6-15.568-4.077-23.164-6.695c-5.502-1.896-10.565-5.011-15.872-7.072
			c-5.032-1.954-8.113-5.159-10.498-9.13c-1.165-1.939-3.479-5.01-0.627-7.84c4.664-4.629,8.945-9.729,14.051-13.798
			c5.312-4.234,11.461-7.405,17.141-11.197c2.329-1.555,4.263-3.705,6.6-5.247c3.313-2.188,6.992-3.838,10.226-6.126
			c4.668-3.305,9.126-6.915,13.581-10.507c4.697-3.787,8.629-8.127,7.565-14.786c-0.229-1.438-1.372-3.419-2.584-3.888
			c-5.371-2.08-10.804-4.538-16.428-5.313c-12.059-1.66-24.23-2.932-36.389-3.32c-16.523-0.528-33.083-0.814-49.573,1.511
			c-5.216,0.735-10.612,0.103-15.918,0.294c-14.332,0.519-28.662,1.093-42.986,1.786c-2.179,0.105-4.298,1.164-6.487,1.42
			c-3.411,0.401-6.858,0.492-11.234,0.777c3.719-4.366,6.5-7.631,9.28-10.895c-0.284-0.361-0.569-0.722-0.853-1.082
			c-7.5,0.512-12.756,7.849-21.519,7.853c3.141-3.559,5.631-6.367,8.105-9.19c1.95-2.225,3.853-4.491,5.823-6.697
			c2.681-3.002,5.571-5.838,7.996-9.031c0.621-0.817-0.171-2.705-0.314-4.101c-0.985,0.45-2.207,0.668-2.911,1.391
			c-2.448,2.512-4.769,5.154-7.04,7.829c-2.92,3.439-5.743,6.96-8.612,10.441c-1.791,2.172-3.412,4.522-5.426,6.462
			c-3.418,3.292-4.951,8.775-10.708,9.421c-0.15,0.017-0.357,0.388-0.373,0.605c-0.439,6.102-6.229,8.299-9.301,12.463
			c-5.151,6.98-11.214,13.282-16.805,19.943c-3.638,4.332-6.968,8.93-10.719,13.158c-3.294,3.711-7.18,6.901-10.451,10.632
			c-4.619,5.27-8.88,10.852-13.354,16.251c-3.805,4.591-7.645,9.156-11.56,13.654c-3.616,4.155-7.306,8.25-11.053,12.289
			c-2.27,2.447-4.716,4.729-7.068,7.099c-0.247,0.249-0.381,0.607-0.597,0.891c-3.563,4.695-6.977,9.513-10.734,14.045
			c-4.509,5.439-9.276,10.667-14,15.925c-3.622,4.033-7.354,7.968-11.027,11.954c-0.5,0.542-0.968,1.116-1.411,1.705
			c-3.33,4.428-6.402,9.078-10.032,13.243c-5.018,5.759-10.58,11.038-15.674,16.733c-5.734,6.41-11.275,12.998-16.718,19.658
			c-0.772,0.946-0.514,2.733-0.733,4.132c1.488-0.184,3.466,0.174,4.373-0.649c3.086-2.802,5.987-5.864,8.601-9.116
			c3.845-4.782,7.238-9.93,11.099-14.699c2.607-3.221,5.687-6.058,9.088-9.624c1.505,3.048,2.121,6.02,3.942,7.617
			c3.527,3.091,5.028,7.231,7.262,11.018c1.864,3.158,2.892,7.03,7.854,9.259c-0.875-4.495-1.562-8.018-2.249-11.542
			c0.344-0.264,0.688-0.528,1.032-0.793c1.688,1.131,3.491,2.124,5.045,3.417c4.683,3.898,9.211,7.982,13.91,11.862
			c4.541,3.75,9.198,7.361,13.842,10.984c4.123,3.217,8.298,6.366,12.451,9.544c1.85,1.414,3.702,2.826,5.553,4.239
			c-0.137,0.457-0.273,0.915-0.41,1.372c-1.448,0.176-2.903,0.309-4.342,0.537c-1.521,0.241-3.199,0.251-4.504,0.938
			c-1.996,1.052-1.419,2.528,0.352,3.232c2.571,1.02,5.299,1.634,7.903,2.579c6.881,2.497,13.752,5.025,20.556,7.718
			c0.601,0.238,1.181,1.955,0.916,2.665c-0.575,1.539-1.52,3.043-2.65,4.244c-1.617,1.718-3.666,3.026-5.296,4.733
			c-2.768,2.899-5.393,5.939-8.004,8.982c-1.828,2.131-3.725,4.248-5.195,6.616c-0.544,0.876,0.044,2.455,0.116,3.714
			c1.212-0.14,2.913,0.187,3.559-0.492c4.298-4.512,8.407-9.207,12.506-13.903c4.505-5.162,8.976-10.356,13.38-15.604
			c1.966-2.343,3.597-4.972,5.618-7.262c5.114-5.796,10.425-11.419,15.529-17.224c2.454-2.79,4.499-5.939,6.94-8.741
			c5.563-6.387,11.26-12.656,16.896-18.979c1.58-1.772,3.129-3.571,4.707-5.346c2.821-3.174,5.723-6.278,8.461-9.521
			c3.359-3.979,6.553-8.096,9.879-12.101c1.713-2.063,3.565-4.012,5.343-6.022c2.952-3.34,5.945-6.645,8.821-10.047
			c1.881-2.225,3.52-4.653,5.394-6.885c1.962-2.337,4.158-4.551,7.587-4.002c6.087,0.975,12.156,2.072,18.213,3.219
			c1.144,0.217,2.215,0.868,3.29,1.379c3.321,1.579,6.609,3.325,11.529,1.453c-4.042-3.087-7.456-5.692-11.482-8.766
			c1.691-0.598,2.241-0.938,2.808-0.97c11.878-0.688,23.758-1.362,35.639-1.997c9.885-0.529,19.607,0.811,29.19,3.024
			c4.793,1.106,5.726,5.343,2.537,9.127c-2.741,3.254-6.527,5.219-9.334,8.591c-3.097,3.722-7.975,5.931-11.95,8.965
			c-3.237,2.471-5.931,5.939-9.499,7.624c-5.707,2.696-8.898,8.756-15.127,10.52c-0.51,0.145-0.882,0.794-1.304,1.223
			c-3.06,3.106-6.188,6.15-9.154,9.345c-3.225,3.475-7.229,6.574-8.396,11.377c-1.69,6.952,3.322,16.591,9.812,19.534
			c5.301,2.403,10.667,4.665,16.048,6.884c7.151,2.948,14.193,6.146,21.987,7.296c3.956,0.584,7.765,2.109,11.676,3.058
			c3.482,0.845,7.015,1.481,10.935,2.295c-0.121-1.983-0.187-3.052-0.253-4.14c-6.344-1.473-12.51-2.702-18.554-4.372
			c-4.617-1.275-8.979-3.595-13.639-4.56c-4.772-0.989-9.311-2.136-13.73-4.328c-6.027-2.99-12.492-5.003-17.104-10.438
			c-2.382-2.807-4.014-5.777-3.358-9.28c0.325-1.735,2.222-3.206,3.487-4.73c2.516-3.032,4.927-6.179,7.687-8.976
			c2.217-2.246,5.432-3.657,7.208-6.148c1.979-2.776,4.518-4.222,7.331-5.603c0.653-0.32,1.318-0.667,1.871-1.129
			c4.434-3.7,8.749-7.548,13.277-11.127c7.399-5.849,15.158-11.264,21.731-18.093c1.347-1.398,2.632-2.981,3.485-4.708
			c2.15-4.352-0.293-10.816-4.697-11.599c-8.729-1.548-17.549-3.544-26.336-3.564c-11.577-0.027-23.159,1.66-34.737,2.627
			c-2.563,0.215-5.12,0.496-7.711,0.75c-1.137-4.982,6.669-5.23,4.531-10.827c-9.044,2.974-16.144,10.962-27.254,11.196
			c5.869-6.677,11.047-12.568,16.28-18.521c-1.146-1.077-2.011-1.89-2.915-2.739c-1.485,1.682-2.749,3.13-4.03,4.561
			c-2.119,2.366-4.289,4.688-6.366,7.09c-3.378,3.907-6.652,7.907-10.057,11.792c-3.767,4.296-7.637,8.499-11.452,12.752
			c-3.311,3.691-6.708,7.312-9.879,11.119c-2.75,3.303-5.079,6.963-7.883,10.216c-3.585,4.158-7.591,7.954-11.173,12.114
			c-3.494,4.058-6.54,8.503-10.038,12.557c-5.704,6.609-11.647,13.011-17.42,19.563c-1.629,1.85-2.896,4.02-4.538,5.857
			c-3.576,4.007-7.305,7.876-10.935,11.833c-2.902,3.163-5.648,6.481-8.71,9.477c-0.63,0.616-3.042,0.618-3.471,0.04
			c-3.205-4.313-6.299-8.734-9.067-13.339c-2.464-4.099-4.421-8.5-6.716-12.706c-0.415-0.761-1.378-1.221-2.089-1.819
			c-0.234,0.973-0.685,1.95-0.663,2.918C123.534,268.3,123.785,271.231,123.963,274.165z M401.558,308.95
			c-0.153-1.007,0.095-2.731-0.608-3.32c-1.505-1.263-2.886-2.365-1.115-4.083c1.24-1.204,3.001-1.907,4.597-2.699
			c1.081-0.536,2.725-0.529,3.286-1.341c0.46-0.665-0.027-2.96-0.584-3.159c-1.322-0.472-3.034-0.451-4.405-0.029
			c-1.563,0.481-2.923,1.614-4.359,2.456c-2.884-4.262-6.888-4.545-9.286-0.844c4.229,1.494,6.007,5.367,4.615,10.058
			c-1.305,4.396-7.385,7.472-12.645,6.155c0-3.022-0.038-6.127,0.013-9.231c0.038-2.372-0.749-5.551,0.467-6.958
			c3.467-4.014,0.752-8.281,2.085-12.574c-1.42,0.104-2.684-0.166-3.021,0.274c-7.643,9.972-15.185,20.021-23.353,30.861
			c2.058,0.785,3.777,1.441,5.496,2.098c0.601-1.636,1.132-3.302,1.824-4.897c0.621-1.436,1.399-2.806,2.144-4.184
			c1.434-2.652,4.963-4.16,7.532-2.437c1.185,0.794,1.611,3.598,1.366,5.349c-0.176,1.254-2.036,2.273-3.459,3.716
			c0.008,2.173,1.39,2.454,3.674,1.758c1.189-0.363,2.929-0.733,3.755-0.153c2.906,2.041,6.139-2.085,8.856,0.698
			c0.104,0.106,0.763-0.132,0.99-0.373c1.885-1.999,3.728-4.037,5.958-6.472c0.902,1.816,1.564,3.507,2.538,4.994
			c0.8,1.221,1.7,3.256,3.635,1.284c1.715-1.746,3.245-3.674,5.333-6.066C404.787,309.483,403.279,309.234,401.558,308.95z
			 M326.049,82.342c-2.335,2.26-4.481,4.146-6.378,6.255c-0.925,1.028-1.165,2.675-2.095,3.695
			c-5.071,5.557-10.368,10.909-15.378,16.519c-5.221,5.845-10.204,11.903-15.292,17.866c-0.609,0.713-1.272,1.385-1.847,2.125
			c-2.544,3.283-4.892,6.738-7.641,9.839c-3.248,3.664-6.991,6.89-10.221,10.568c-2.508,2.857-4.558,6.119-7.349,9.936
			c2.286-0.181,4.562,0.331,5.408-0.542c4.63-4.782,8.883-9.927,13.321-14.899c2.729-3.058,5.575-6.012,8.333-9.044
			c3.585-3.942,8.196-7.403,10.421-12.01c2.543-5.267,7.552-7.813,10.528-12.403c2.132-3.288,5.201-5.964,7.822-8.94
			c2.346-2.666,4.955-5.168,6.889-8.111C324.471,90.3,328.954,88.334,326.049,82.342z M463.06,313.183
			c-0.216,0.479-0.432,0.957-0.647,1.436c1.234,0.671,2.438,1.841,3.707,1.919c3.851,0.234,7.728,0.021,11.594,0.03
			c4.718,0.011,7.602-3.407,10.677-6.105c1.173-1.028,1.638-3.747,1.261-5.438c-0.473-2.126-2.138-3.985-3.413-6.175
			c1.518-1.227,4.116-2.309,4.761-4.095c0.895-2.479,1.447-6.457,0.095-8.026c-1.713-1.99-5.424-2.512-8.387-3.093
			c-2.402-0.472-4.978-0.211-7.464-0.059c-1.827,0.112-6.126-1.096-2.104,3.14c0.33,0.347,0.273,1.236,0.143,1.816
			c-0.64,2.83-1.229,5.683-2.092,8.447c-1.59,5.098-3.36,10.14-5.104,15.353C465.163,312.592,464.112,312.888,463.06,313.183z
			 M496.798,182.839c7.396-0.604,13.818-0.866,20.156-1.739c4.137-0.569,6.2-3.832,7.203-7.708c0.891-3.439-0.957-5.552-3.564-7.302
			c-0.114-0.076-0.015-0.469-0.015,0.067c1.829-2.489,3.483-4.346,4.679-6.463c1.672-2.963,0.479-8.048-2.304-8.762
			c-5.884-1.511-11.918-1.442-16.984-0.714c0.598,2.24,1.829,4.251,1.444,5.88c-1.346,5.687-3.03,11.321-5.047,16.806
			c-0.857,2.333-0.226,5.929-4.134,6.562C497.822,179.533,497.614,180.847,496.798,182.839z M60.814,293.348
			c-1.102,0.092-1.708,0.198-2.313,0.185c-10.748-0.225-17.433,6.516-16.342,17.09c0.203,1.969,2.468,3.893,4.158,5.418
			c0.406,0.367,2.284-1.238,3.551-1.396c1.59-0.197,2.752-3.328,4.693-0.797c1.08,1.409,1.968,3.781,4.087,1.866
			c1.941-1.755,6.231-3.084,2.62-7.158c-0.485-0.548-0.345-1.934-0.085-2.812c2.093-7.097,4.125-14.221,6.512-21.222
			c1.204-3.533-0.543-3.899-3.112-3.579c-1.365,0.17-2.658,0.913-3.114,1.079C61.225,286.235,61.03,289.613,60.814,293.348z
			 M672.527,306.476c0.081,1.616-0.048,3.276,0.285,4.839c0.966,4.528,1.55,6.014,6.679,6.662c4.016,0.508,5.797-1.783,8.19-4.702
			c5.244-6.396,7.07-13.53,6.551-21.357c-0.345-5.206-5.42-9.67-9.45-8.108c-2.463,0.954-5.415,2.445-6.597,4.562
			C675.085,293.925,671.279,299.483,672.527,306.476z M602.37,285.188c-0.176-0.424-0.351-0.848-0.526-1.271
			c-6.256,0-12.584-0.556-18.729,0.262c-2.614,0.346-5.427,3.16-7.108,5.577c-2.243,3.223-3.203,7.309-5.208,10.734
			c-2.438,4.165,0.126,7.811,1.645,10.735c2.315,4.459,6.847,6.385,12.438,6.426c5.177,0.038,8.388-2.751,11.845-5.555
			c0.522-0.423,0.338-1.718,0.552-3.051c-1.615,0.159-3.294-0.133-3.667,0.436c-2.501,3.798-6.246,3.354-9.92,3.312
			c-4.247-0.049-6.657-2.323-6.862-6.632c-0.235-4.956-0.347-9.633,3.553-13.864c2.572-2.79,6.777-6.215,10.241-5.909
			c4.642,0.41,6.063,3.438,6.405,7.479c0.026,0.315,0.338,0.606,0.728,1.263C602.383,292.949,597.826,287.063,602.37,285.188z
			 M703.646,161.916c0-1.748,0.061-3.499-0.014-5.243c-0.117-2.77-0.932-5.12-3.938-6.053c-3.432-1.065-7.201-1.148-9.417,1.576
			c-3.151,3.874-5.954,8.208-6.33,13.592c-0.144,2.055-0.877,4.096-1.526,6.082c-0.756,2.313,1.607,9.871,3.715,10.612
			c4.791,1.687,8.951,1.081,12.293-3.303C702.338,174.047,703.88,168.25,703.646,161.916z M635.21,150.104
			c-6.126,0-11.227-0.237-16.287,0.115c-2.054,0.144-4.835,1.016-5.861,2.525c-2.536,3.729-5.996,6.559-7.85,11.15
			c-2.841,7.038-0.95,13.388,4.458,17.139c5.312,3.684,14.575,2.437,19.78-2.154c0.808-0.712,1.265-1.821,1.885-2.747
			c-1.317,0.317-2.645,0.599-3.95,0.958c-3.932,1.078-7.276,4.493-12.078,1.812c-3.315-1.851-6.342-6.633-5.267-10.272
			c1.731-5.859,3.284-11.475,9.485-14.846c3.979-2.162,7.577-2.228,9.564,1.82c0.888,1.809,1.961,3.526,2.95,5.285
			c0.453-0.005,0.907-0.01,1.36-0.014C633.967,157.501,634.533,154.131,635.21,150.104z M417.397,148.542
			c-0.506-0.185-1.012-0.37-1.518-0.554c-2.622,3.398-5.319,6.742-7.834,10.218c-1.259,1.741-1.994,3.868-3.298,5.565
			c-3.794,4.941-7.798,9.721-11.601,14.655c-0.51,0.663-0.337,1.854-0.479,2.801c1.832,0.107,3.672,0.332,5.488,0.205
			c0.294-0.021,0.956-1.912,0.632-2.416c-1.587-2.472,0.363-3.89,1.576-5.214c2.763-3.018,6.273-2.076,9.269-1.441
			c3.517,4.563-3.248,5.885-3.014,9.733c3.918-0.377,7.259-0.699,9.856-0.949c-0.801-4.41-1.671-7.792-1.941-11.223
			c-0.157-1.984,0.723-4.036,1.005-6.074c0.271-1.967,0.32-3.965,0.565-5.937C416.492,154.782,416.962,151.665,417.397,148.542z
			 M535.141,160.005c-1.946,0.099-3.943-0.123-5.742,0.373c-2.259,0.622-2.181,2.864-0.485,3.472
			c3.297,1.183,2.842,3.553,2.919,5.978c0.102,3.227,0.224,6.454,0.401,9.677c0.205,3.73-2.854,7.008-6.81,6.949
			c-2.482-0.037-3.259,1.394-2.71,3.266c0.246,0.84,2.083,1.846,3.074,1.729c4.788-0.564,6.608-5.138,9.679-7.946
			c2.984-2.732,4.95-6.544,7.636-9.646c2.843-3.281,5.054-6.703,4.383-11.234c-0.136-0.918-0.911-2.304-1.604-2.446
			c-1.018-0.209-2.722,0.174-3.217,0.916c-0.53,0.795-0.462,2.916,0.156,3.382c2.208,1.666,1.748,2.422-0.103,4.146
			c-1.992,1.854-3.236,4.511-5.171,7.352C536.705,170.376,535.992,165.648,535.141,160.005z M492.952,295.713
			c5.309,1.502,4.353,5.513,4.486,9.087c0.053,1.368,0.296,2.74,0.234,4.102c-0.162,3.595,2.058,7.945-2.706,10.195
			c-1.946,0.919-4.183,1.226-6.55,1.885c0,1.338,0,2.902,0,5.308c1.987-0.511,3.915-0.54,5.228-1.453
			c1.995-1.387,3.657-3.306,5.295-5.146c3.674-4.125,7.56-8.117,10.76-12.594c2.494-3.488,6.158-6.992,3.639-12.509
			c-1.65,0.113-3.453,0.237-6.254,0.43c0.962,1.688,1.652,2.726,2.159,3.845c0.384,0.846,1.043,2.193,0.7,2.636
			c-2.063,2.665-4.378,5.133-6.608,7.667c-0.756-1.837-0.735-3.191-0.762-4.544c-0.026-1.373-0.087-2.747-0.155-4.119
			C502.117,294.515,499.871,293.474,492.952,295.713z M433.105,164.265c-1.322-1.771-2.006-3.5-3.249-4.138
			c-1.454-0.747-3.4-0.7-5.125-0.656c-0.535,0.013-1.579,1.557-1.478,1.687c0.806,1.032,1.93,1.811,2.764,2.826
			c0.867,1.057,2.009,2.222,2.182,3.458c0.937,6.688-1.834,9.818-9.419,10.005c0.641,1.65,0.921,4.085,1.791,4.318
			c4.367,1.171,6.482-2.082,8.444-5.444c0.366,0.457,0.582,0.717,0.788,0.985c1.178,1.533,2.087,3.531,3.633,4.421
			c0.854,0.49,3.127-0.526,4.118-1.511c0.984-0.979,1.165-2.768,1.953-4.887c-1.864,0.549-2.622,0.771-3.849,1.132
			c-0.667-3.16-2.646-6.863-1.54-8.806c1.249-2.191,5.276-2.798,8.805-4.42c-0.778-1.225-1.375-3.22-2.63-3.805
			c-1.003-0.468-2.991,0.511-4.202,1.342C434.889,161.601,434.109,163.045,433.105,164.265z M433.532,287.317
			c0,3.191,0,6.031,0,9.191c-2.437,0-4.718-0.352-6.81,0.126c-1.342,0.308-2.406,1.837-3.596,2.818
			c1.221,0.917,1.047,3.159,4.029,2.349c5.22-1.419,6.411-0.01,6.405,5.518c-0.002,1.239,0,2.477,0,3.813
			c1.24,0.296,2.28,0.544,3.615,0.862c0.096-1.598,0.219-2.949,0.251-4.303c0.133-5.436,0.487-5.89,5.62-6.206
			c0.931-0.058,1.936,0.687,2.832,0.556c0.927-0.135,2.392-0.778,2.496-1.392c0.168-0.983-0.288-2.491-1.034-3.104
			c-0.846-0.694-2.288-0.771-3.494-0.891c-2.07-0.208-4.159-0.242-6.587-0.367c0-3.249,0-6.189,0-9.326
			C435.92,287.089,434.962,287.181,433.532,287.317z M553.201,302.317c0.581-3.045-1.902-5.474-4.641-5.013
			c-4.878,0.824-6.833-1.156-6.092-6.008c0.188-1.24-0.059-2.547-0.105-3.823c-0.775,0.075-2.021-0.113-2.236,0.272
			c-0.639,1.148-0.928,2.508-1.236,3.813c-0.14,0.588-0.033,1.242,0.017,1.862c0.269,3.431-0.784,4.367-4.31,3.808
			c-3.72-0.589-5.51,1.209-4.713,5.243c2.827,0,5.739,0,8.445,0c1.28,3.688-1.705,8.266,3.283,10.309
			c0.988-0.801,1.895-1.535,2.801-2.27c-0.336-0.023-0.672-0.048-1.008-0.071c-0.247-1.951-1.303-4.376-0.515-5.719
			c0.797-1.359,3.363-1.898,5.261-2.327C549.784,302.024,551.565,302.317,553.201,302.317z M572.48,164.295
			c-2.205,0-4.467-0.188-6.672,0.08c-1.088,0.132-2.072,1.106-3.103,1.7c1.044,0.681,2.028,1.801,3.144,1.951
			c2.275,0.307,4.622,0.092,7.163,0.092c0,3.783,0,7,0,10.443c1.257,0.147,2.308,0.271,3.809,0.446c0-3.727,0-7.155,0-10.981
			c2.619,0,4.832,0.067,7.039-0.019c2.043-0.081,4.866,0.587,3.791-3.721c-3.552,0-7.092,0-10.996,0c0-3.667,0-6.844,0-10.627
			C570.657,155.876,574.348,160.849,572.48,164.295z M467.414,163.842c-2.065,0.105-4.417,0.075-6.716,0.409
			c-1.082,0.158-2.063,1.015-3.089,1.555c1.082,0.613,2.129,1.653,3.254,1.747c2.273,0.187,4.59-0.141,6.448-0.234
			c2.335,3.813-2.084,9.359,4.506,11.535c0-3.243,0.111-5.974-0.035-8.689c-0.117-2.183,0.929-2.893,2.864-2.873
			c1.987,0.021,3.991,0.193,5.952-0.024c0.685-0.076,1.262-1.116,1.888-1.715c-0.595-0.485-1.149-1.313-1.792-1.388
			c-1.718-0.198-3.494-0.242-5.21-0.036c-2.715,0.328-3.922-0.5-3.707-3.42c0.213-2.881,0.047-5.79,0.047-9.133
			C465.549,154.486,469.441,159.811,467.414,163.842z M637.058,173.238c1.383,0,2.505,0.178,3.547-0.034
			c2.921-0.595,3.957,0.866,3.005,3.25c-0.854,2.137-2.414,4.054-3.921,5.853c-1.965,2.345-4.184,4.479-6.292,6.703
			c0.174,0.326,0.348,0.653,0.521,0.98c2.43,0.202,4.884,0.729,7.281,0.535c4.191-0.335,5.689-1.738,4.166-5.66
			c-0.994-0.19-2.009-0.384-3.324-0.636c0.699-1.011,1.02-1.938,1.665-2.332c4.169-2.55,4.303-6.514,3.579-10.577
			c-0.207-1.162-1.491-2.654-2.607-3.032C641.412,167.185,638.324,169.207,637.058,173.238z M631.95,294.986
			c-0.727,2.993-0.366,4.711,2.478,4.751c6.429,0.088,12.858,0.224,19.282,0.095c0.93-0.019,1.833-1.395,2.748-2.142
			c-0.83-0.901-1.638-2.562-2.493-2.586C646.657,294.897,639.341,294.986,631.95,294.986z M607.595,302.976
			c-0.038,0.684-0.064,1.174-0.096,1.664c-0.326,4.992-0.571,9.945-3.596,14.342c-0.911,1.323-0.788,3.357-1.138,5.065
			c1.774,0.161,3.547,0.363,5.325,0.452c0.447,0.022,0.912-0.321,0.63-0.213c1.358-6.348,2.607-12.186,3.857-18.022
			C613.38,302.52,612.462,301.858,607.595,302.976z M676.376,172.586c0.084-0.091,0.896-0.968,1.707-1.845
			c-0.872-0.778-1.724-2.201-2.62-2.229c-6.325-0.205-12.662-0.236-18.985-0.024c-1.051,0.035-2.054,1.522-3.079,2.338
			c1.063,0.586,2.112,1.652,3.19,1.681C662.778,172.669,668.975,172.586,676.376,172.586z M656.167,305.36
			c0.065-0.66,0.131-1.32,0.196-1.98c-7.216-2.005-14.769-0.352-22.124-0.778c-0.948-0.056-1.963,1.018-2.947,1.567
			c0.133,0.397,0.265,0.794,0.397,1.191C639.848,305.36,648.008,305.36,656.167,305.36z M678.712,164.418
			c-0.847-1.048-1.057-1.552-1.291-1.563c-6.811-0.333-13.622-0.626-20.436-0.882c-0.461-0.018-0.951,0.271-1.399,0.48
			c-0.727,0.341-1.431,0.735-2.144,1.107c0.055,0.286,0.109,0.572,0.164,0.858C661.748,164.418,669.888,164.418,678.712,164.418z"/>
		<path fill-rule="evenodd" clip-rule="evenodd" d="M123.963,274.165c-0.179-2.934-0.429-5.865-0.497-8.802
			c-0.022-0.968,0.428-1.945,0.663-2.918c0.71,0.599,1.674,1.059,2.089,1.819c2.295,4.206,4.252,8.607,6.716,12.706
			c2.769,4.604,5.862,9.025,9.067,13.339c0.429,0.578,2.84,0.576,3.471-0.04c3.063-2.995,5.808-6.313,8.71-9.477
			c3.63-3.957,7.359-7.826,10.935-11.833c1.641-1.838,2.908-4.008,4.538-5.857c5.772-6.552,11.716-12.953,17.42-19.563
			c3.498-4.054,6.544-8.499,10.038-12.557c3.582-4.16,7.588-7.956,11.173-12.114c2.804-3.253,5.133-6.913,7.883-10.216
			c3.171-3.808,6.568-7.428,9.879-11.119c3.814-4.253,7.685-8.456,11.452-12.752c3.405-3.885,6.678-7.884,10.057-11.792
			c2.077-2.403,4.247-4.724,6.366-7.09c1.282-1.431,2.545-2.879,4.03-4.561c0.904,0.849,1.769,1.662,2.915,2.739
			c-5.232,5.953-10.411,11.844-16.28,18.521c11.11-0.234,18.21-8.222,27.254-11.196c2.138,5.597-5.667,5.845-4.531,10.827
			c2.592-0.254,5.148-0.535,7.711-0.75c11.578-0.967,23.16-2.654,34.737-2.627c8.787,0.021,17.607,2.017,26.336,3.564
			c4.403,0.782,6.847,7.247,4.697,11.599c-0.853,1.727-2.139,3.31-3.485,4.708c-6.574,6.829-14.333,12.244-21.731,18.093
			c-4.529,3.579-8.844,7.427-13.277,11.127c-0.553,0.462-1.218,0.809-1.871,1.129c-2.813,1.381-5.353,2.826-7.331,5.603
			c-1.776,2.491-4.991,3.902-7.208,6.148c-2.76,2.797-5.171,5.943-7.687,8.976c-1.265,1.524-3.162,2.995-3.487,4.73
			c-0.656,3.503,0.977,6.474,3.358,9.28c4.612,5.435,11.078,7.447,17.104,10.438c4.419,2.192,8.958,3.339,13.73,4.328
			c4.66,0.965,9.021,3.284,13.639,4.56c6.044,1.67,12.21,2.899,18.554,4.372c0.067,1.088,0.132,2.156,0.253,4.14
			c-3.92-0.813-7.452-1.45-10.935-2.295c-3.912-0.948-7.721-2.474-11.676-3.058c-7.794-1.15-14.836-4.348-21.987-7.296
			c-5.381-2.219-10.748-4.48-16.048-6.884c-6.49-2.943-11.502-12.582-9.812-19.534c1.167-4.803,5.171-7.902,8.396-11.377
			c2.966-3.194,6.094-6.238,9.154-9.345c0.422-0.429,0.794-1.078,1.304-1.223c6.229-1.764,9.42-7.823,15.127-10.52
			c3.567-1.685,6.262-5.153,9.499-7.624c3.975-3.034,8.853-5.243,11.95-8.965c2.807-3.372,6.593-5.337,9.334-8.591
			c3.189-3.784,2.256-8.021-2.537-9.127c-9.583-2.214-19.305-3.554-29.19-3.024c-11.881,0.635-23.761,1.309-35.639,1.997
			c-0.567,0.032-1.117,0.372-2.808,0.97c4.026,3.073,7.439,5.679,11.482,8.766c-4.92,1.872-8.208,0.126-11.529-1.453
			c-1.075-0.511-2.146-1.162-3.29-1.379c-6.057-1.146-12.126-2.244-18.213-3.219c-3.43-0.549-5.625,1.665-7.587,4.002
			c-1.874,2.231-3.512,4.66-5.394,6.885c-2.876,3.402-5.87,6.707-8.821,10.047c-1.778,2.011-3.629,3.959-5.343,6.022
			c-3.326,4.005-6.52,8.122-9.879,12.101c-2.738,3.242-5.64,6.347-8.461,9.521c-1.578,1.774-3.127,3.573-4.707,5.346
			c-5.635,6.323-11.332,12.593-16.896,18.979c-2.441,2.802-4.486,5.951-6.94,8.741c-5.104,5.805-10.415,11.428-15.529,17.224
			c-2.021,2.29-3.652,4.919-5.618,7.262c-4.404,5.247-8.875,10.441-13.38,15.604c-4.1,4.696-8.208,9.392-12.506,13.903
			c-0.646,0.679-2.346,0.353-3.559,0.492c-0.072-1.259-0.66-2.838-0.116-3.714c1.47-2.368,3.367-4.485,5.195-6.616
			c2.611-3.043,5.236-6.083,8.004-8.982c1.63-1.707,3.679-3.016,5.296-4.733c1.13-1.201,2.076-2.705,2.65-4.244
			c0.265-0.71-0.314-2.427-0.916-2.665c-6.804-2.692-13.675-5.221-20.556-7.718c-2.604-0.945-5.333-1.56-7.903-2.579
			c-1.771-0.704-2.348-2.181-0.352-3.232c1.305-0.688,2.982-0.697,4.504-0.938c1.439-0.229,2.894-0.361,4.342-0.537
			c0.137-0.457,0.273-0.915,0.41-1.372c-1.851-1.413-3.704-2.825-5.553-4.239c-4.153-3.178-8.328-6.327-12.451-9.544
			c-4.645-3.623-9.301-7.234-13.842-10.984c-4.699-3.88-9.227-7.964-13.91-11.862c-1.554-1.293-3.356-2.286-5.045-3.417
			c-0.344,0.265-0.688,0.529-1.032,0.793c0.687,3.524,1.373,7.047,2.249,11.542c-4.962-2.229-5.991-6.101-7.854-9.259
			c-2.234-3.786-3.735-7.927-7.262-11.018c-1.821-1.598-2.437-4.569-3.942-7.617c-3.401,3.566-6.481,6.403-9.088,9.624
			c-3.861,4.77-7.254,9.917-11.099,14.699c-2.614,3.252-5.515,6.314-8.601,9.116c-0.907,0.823-2.885,0.466-4.373,0.649
			c0.219-1.398-0.04-3.186,0.733-4.132c5.442-6.66,10.984-13.248,16.718-19.658c5.094-5.695,10.656-10.975,15.674-16.733
			c3.63-4.165,6.702-8.815,10.032-13.243c0.443-0.589,0.912-1.163,1.411-1.705c3.673-3.986,7.405-7.921,11.027-11.954
			c4.723-5.258,9.49-10.485,14-15.925c3.758-4.533,7.172-9.351,10.734-14.045c0.216-0.284,0.35-0.642,0.597-0.891
			c2.353-2.37,4.798-4.652,7.068-7.099c3.747-4.039,7.437-8.133,11.053-12.289c3.915-4.499,7.755-9.063,11.56-13.654
			c4.474-5.399,8.735-10.981,13.354-16.251c3.271-3.731,7.157-6.921,10.451-10.632c3.751-4.228,7.082-8.826,10.719-13.158
			c5.591-6.661,11.654-12.963,16.805-19.943c3.073-4.165,8.862-6.362,9.301-12.463c0.015-0.217,0.223-0.588,0.373-0.605
			c5.757-0.646,7.29-6.128,10.708-9.421c2.014-1.94,3.635-4.291,5.426-6.462c2.869-3.481,5.692-7.002,8.612-10.441
			c2.271-2.675,4.592-5.317,7.04-7.829c0.704-0.723,1.926-0.941,2.911-1.391c0.143,1.396,0.935,3.284,0.314,4.101
			c-2.425,3.192-5.315,6.029-7.996,9.031c-1.97,2.206-3.873,4.472-5.823,6.697c-2.474,2.823-4.964,5.631-8.105,9.19
			c8.763-0.003,14.019-7.34,21.519-7.853c0.284,0.36,0.569,0.721,0.853,1.082c-2.78,3.264-5.561,6.529-9.28,10.895
			c4.375-0.285,7.823-0.376,11.234-0.777c2.189-0.257,4.308-1.315,6.487-1.42c14.325-0.693,28.654-1.267,42.986-1.786
			c5.306-0.192,10.703,0.441,15.918-0.294c16.49-2.325,33.05-2.04,49.573-1.511c12.158,0.389,24.33,1.661,36.389,3.32
			c5.624,0.774,11.057,3.233,16.428,5.313c1.212,0.469,2.355,2.451,2.584,3.888c1.063,6.659-2.868,10.999-7.565,14.786
			c-4.455,3.593-8.913,7.203-13.581,10.507c-3.233,2.288-6.912,3.938-10.226,6.126c-2.337,1.542-4.271,3.692-6.6,5.247
			c-5.68,3.792-11.829,6.962-17.141,11.197c-5.106,4.069-9.387,9.169-14.051,13.798c-2.852,2.831-0.538,5.901,0.627,7.84
			c2.385,3.971,5.466,7.176,10.498,9.13c5.307,2.061,10.37,5.175,15.872,7.072c7.596,2.618,14.88,6.095,23.164,6.695
			c4.701,0.34,9.318,2.119,13.907,3.471c0.684,0.201,1.468,1.679,1.368,2.457c-0.099,0.758-1.293,1.967-1.973,1.946
			c-2.216-0.07-4.469-0.421-6.61-1.013c-4.209-1.165-8.325-2.665-12.529-3.844c-6.225-1.746-12.697-2.801-18.693-5.111
			c-8.877-3.42-17.548-7.514-25.203-13.292c-5.316-4.013-7.559-14.693-2.288-19.944c5.746-5.724,11.416-11.225,18.398-15.371
			c4.124-2.449,8.151-5.074,12.102-7.792c3.405-2.343,6.645-4.925,9.948-7.413c5.553-4.182,11.103-8.368,16.644-12.565
			c2.187-1.655,4.547-3.148,6.454-5.083c1.519-1.542,2.993-3.518,3.479-5.543c0.297-1.234-0.966-3.788-2.131-4.259
			c-4.043-1.635-8.288-3.357-12.567-3.714c-14.051-1.173-28.152-1.741-42.231-2.586c-3.881-0.233-7.751-0.644-11.629-0.929
			c-1.118-0.082-2.277-0.176-3.367,0.019c-17.325,3.102-34.858,1.02-52.269,2.115c-13.694,0.861-27.423,1.155-41.14,1.641
			c-1.976,0.069-3.978-0.39-5.94-0.245c-1.203,0.089-2.355,0.864-3.53,1.332c0.712,0.898,1.385,1.831,2.144,2.688
			c1.55,1.752,3.146,3.463,4.723,5.191c-0.313,0.464-0.627,0.928-0.941,1.392c-6.293-1.86-12.562-3.811-18.89-5.542
			c-3.096-0.847-6.294-1.345-9.469-1.857c-0.6-0.098-1.502,0.309-1.936,0.783c-1.931,2.109-3.766,4.309-5.591,6.513
			c-3.504,4.236-6.881,8.583-10.493,12.724c-3.739,4.287-7.859,8.247-11.507,12.606c-3.173,3.791-5.877,7.971-8.88,11.909
			c-0.857,1.124-2.104,1.94-3.053,3.004c-3.172,3.557-6.303,7.15-9.427,10.749c-2.287,2.634-4.496,5.336-6.816,7.94
			c-3.029,3.403-6.177,6.699-9.192,10.113c-2.834,3.21-5.607,6.477-8.324,9.787c-3.88,4.726-7.572,9.609-11.554,14.246
			c-4.08,4.75-8.476,9.228-12.617,13.927c-4.48,5.083-8.771,10.333-13.254,15.413c-2.376,2.693-5.082,5.095-7.464,7.782
			c-2.907,3.278-5.612,6.734-8.438,10.086c-3.84,4.555-7.617,9.17-11.612,13.586c-1.854,2.051-1.895,3.761,0.73,4.686
			c4.789,1.688,9.698,3.031,14.52,4.631c3.753,1.245,7.463,2.627,11.154,4.046c0.447,0.171,0.661,0.95,1.572,2.362
			c-2.974,0-5.231-0.07-7.482,0.027c-1.35,0.058-2.788,0.159-3.98,0.696c-0.437,0.197-0.7,2.26-0.334,2.536
			c5.533,4.185,11.301,8.064,16.776,12.32c5.455,4.241,10.624,8.85,15.957,13.248c5.951,4.909,11.947,9.763,17.924,14.641
			C123.253,274.456,123.608,274.311,123.963,274.165z"/>
		<path fill-rule="evenodd" clip-rule="evenodd" d="M401.558,308.95c1.722,0.284,3.229,0.533,5.327,0.88
			c-2.088,2.393-3.618,4.32-5.333,6.066c-1.935,1.972-2.835-0.063-3.635-1.284c-0.974-1.487-1.636-3.178-2.538-4.994
			c-2.23,2.435-4.073,4.473-5.958,6.472c-0.228,0.241-0.887,0.479-0.99,0.373c-2.718-2.783-5.95,1.343-8.856-0.698
			c-0.826-0.58-2.565-0.21-3.755,0.153c-2.284,0.696-3.666,0.415-3.674-1.758c1.423-1.442,3.283-2.462,3.459-3.716
			c0.245-1.751-0.182-4.555-1.366-5.349c-2.568-1.724-6.098-0.216-7.532,2.437c-0.745,1.378-1.523,2.748-2.144,4.184
			c-0.691,1.596-1.223,3.262-1.824,4.897c-1.719-0.656-3.438-1.313-5.496-2.098c8.168-10.841,15.71-20.89,23.353-30.861
			c0.338-0.44,1.602-0.17,3.021-0.274c-1.333,4.293,1.382,8.561-2.085,12.574c-1.216,1.407-0.429,4.586-0.467,6.958
			c-0.051,3.104-0.013,6.209-0.013,9.231c5.26,1.316,11.34-1.759,12.645-6.155c1.392-4.69-0.386-8.563-4.615-10.058
			c2.398-3.701,6.402-3.418,9.286,0.844c1.437-0.842,2.797-1.975,4.359-2.456c1.371-0.422,3.083-0.442,4.405,0.029
			c0.557,0.199,1.044,2.494,0.584,3.159c-0.562,0.812-2.205,0.805-3.286,1.341c-1.596,0.792-3.356,1.495-4.597,2.699
			c-1.771,1.718-0.39,2.82,1.115,4.083C401.652,306.219,401.404,307.943,401.558,308.95z M371.427,301.202
			c0.328,0.376,0.655,0.752,0.982,1.128c1.503-0.123,3.006-0.245,4.599-0.376c0-2.433,0-4.455,0-6.478
			c-0.259-0.142-0.518-0.282-0.775-0.424C374.631,297.103,373.028,299.152,371.427,301.202z"/>
		<path fill-rule="evenodd" clip-rule="evenodd" d="M326.049,82.342c2.905,5.993-1.578,7.958-3.479,10.853
			c-1.934,2.942-4.542,5.445-6.889,8.111c-2.621,2.977-5.69,5.652-7.822,8.94c-2.976,4.59-7.985,7.136-10.528,12.403
			c-2.225,4.607-6.836,8.068-10.421,12.01c-2.758,3.033-5.604,5.987-8.333,9.044c-4.438,4.972-8.69,10.118-13.321,14.899
			c-0.846,0.874-3.122,0.361-5.408,0.542c2.791-3.817,4.841-7.079,7.349-9.936c3.23-3.679,6.974-6.904,10.221-10.568
			c2.749-3.102,5.096-6.556,7.641-9.839c0.575-0.74,1.237-1.412,1.847-2.125c5.089-5.963,10.072-12.021,15.292-17.866
			c5.01-5.609,10.307-10.961,15.378-16.519c0.93-1.02,1.17-2.667,2.095-3.695C321.568,86.488,323.713,84.602,326.049,82.342z"/>
		<path fill-rule="evenodd" clip-rule="evenodd" d="M463.06,313.183c1.053-0.295,2.104-0.591,3.026-0.85
			c1.743-5.213,3.514-10.255,5.104-15.353c0.863-2.765,1.452-5.617,2.092-8.447c0.131-0.58,0.188-1.47-0.143-1.816
			c-4.022-4.235,0.276-3.027,2.104-3.14c2.486-0.152,5.062-0.413,7.464,0.059c2.963,0.581,6.674,1.103,8.387,3.093
			c1.353,1.569,0.8,5.547-0.095,8.026c-0.645,1.786-3.243,2.868-4.761,4.095c1.275,2.189,2.94,4.049,3.413,6.175
			c0.377,1.69-0.088,4.409-1.261,5.438c-3.075,2.698-5.959,6.116-10.677,6.105c-3.866-0.01-7.743,0.204-11.594-0.03
			c-1.27-0.078-2.473-1.248-3.707-1.919C462.628,314.14,462.844,313.661,463.06,313.183z M484.566,305.461
			c-0.021-3.451-2.235-5.42-6.095-5.415c-3.014,0.004-6.497,5.418-6.137,10.181c0.065,0.855,1.958,2.189,3.061,2.245
			C480.437,312.729,484.59,309.379,484.566,305.461z M476.535,296.279c8.092,0.729,10.002-0.678,9.456-6.472
			c-0.09-0.957-0.996-2.368-1.807-2.604c-1.274-0.371-3.662-0.411-4.042,0.27C478.645,290.149,477.746,293.162,476.535,296.279z"/>
		<path fill-rule="evenodd" clip-rule="evenodd" d="M496.798,182.839c0.816-1.992,1.024-3.306,1.435-3.373
			c3.908-0.633,3.276-4.229,4.134-6.562c2.017-5.485,3.701-11.12,5.047-16.806c0.385-1.629-0.847-3.641-1.444-5.88
			c5.066-0.729,11.101-0.797,16.984,0.714c2.782,0.714,3.976,5.799,2.304,8.762c-1.195,2.117-2.85,3.974-4.679,6.463
			c0-0.536-0.1-0.143,0.015-0.067c2.607,1.75,4.455,3.863,3.564,7.302c-1.003,3.875-3.066,7.138-7.203,7.708
			C510.616,181.973,504.194,182.235,496.798,182.839z M511.09,178.552c0.156,0.29,0.313,0.582,0.472,0.873
			c1.757-1.223,3.441-2.573,5.288-3.641c2.963-1.714,2.795-4.369,1.653-6.718c-1.177-2.421-6.278-3.17-8.531-1.975
			c-3.563,1.891-1.597,5.231-2.283,7.867C506.935,177.854,507.716,179.36,511.09,178.552z M510.792,160.498
			c0.734,1.244,1.24,3.251,2.161,3.465c4.497,1.04,9.063-4.213,7.438-8.513c-0.482-1.277-1.923-2.417-3.205-3.081
			c-0.749-0.388-2.644-0.053-2.997,0.554C512.897,155.14,512.036,157.608,510.792,160.498z"/>
		<path fill-rule="evenodd" clip-rule="evenodd" d="M60.814,293.348c0.216-3.734,0.411-7.112,0.655-11.325
			c0.456-0.166,1.749-0.909,3.114-1.079c2.569-0.32,4.316,0.046,3.112,3.579c-2.386,7.001-4.418,14.125-6.512,21.222
			c-0.259,0.878-0.4,2.264,0.085,2.812c3.611,4.074-0.678,5.403-2.62,7.158c-2.12,1.915-3.007-0.457-4.087-1.866
			c-1.941-2.531-3.104,0.6-4.693,0.797c-1.268,0.157-3.145,1.763-3.551,1.396c-1.69-1.525-3.955-3.449-4.158-5.418
			c-1.091-10.574,5.594-17.314,16.342-17.09C59.105,293.546,59.712,293.439,60.814,293.348z M48.34,311.299
			c1.111-0.114,2.686,0.182,3.146-0.402c2.375-3.006,4.769-6.083,6.491-9.473c0.613-1.208-0.374-3.52-1.212-4.996
			c-0.257-0.453-3.003-0.308-3.666,0.421C49.512,300.797,46.458,305.092,48.34,311.299z"/>
		<path fill-rule="evenodd" clip-rule="evenodd" d="M672.527,306.476c-1.248-6.992,2.558-12.551,5.658-18.105
			c1.182-2.116,4.134-3.607,6.597-4.562c4.03-1.562,9.105,2.902,9.45,8.108c0.52,7.827-1.307,14.962-6.551,21.357
			c-2.394,2.919-4.175,5.21-8.19,4.702c-5.129-0.648-5.713-2.134-6.679-6.662C672.479,309.752,672.608,308.092,672.527,306.476z
			 M690.107,293.146c-0.257-0.08-0.514-0.16-0.77-0.241c0-0.374,0.113-0.797-0.02-1.115c-0.604-1.45-0.901-3.44-2.012-4.173
			c-1.861-1.227-3.532,0.168-4.45,1.94c-1.509,2.914-3.354,5.792-4.126,8.917c-0.989,3.996-1.219,8.214-1.393,12.353
			c-0.038,0.914,1.585,2.721,2.35,2.67c1.516-0.099,3.871-0.858,4.29-1.952C686.286,305.514,688.114,299.299,690.107,293.146z"/>
		<path fill-rule="evenodd" clip-rule="evenodd" d="M602.37,285.188c-4.544,1.875,0.013,7.762-4.616,9.942
			c-0.39-0.656-0.701-0.947-0.728-1.263c-0.342-4.041-1.764-7.069-6.405-7.479c-3.464-0.306-7.669,3.119-10.241,5.909
			c-3.899,4.231-3.788,8.908-3.553,13.864c0.205,4.309,2.615,6.583,6.862,6.632c3.674,0.042,7.419,0.486,9.92-3.312
			c0.373-0.568,2.052-0.276,3.667-0.436c-0.214,1.333-0.029,2.628-0.552,3.051c-3.457,2.804-6.668,5.593-11.845,5.555
			c-5.591-0.041-10.122-1.967-12.438-6.426c-1.519-2.925-4.082-6.57-1.645-10.735c2.005-3.426,2.965-7.512,5.208-10.734
			c1.682-2.417,4.494-5.231,7.108-5.577c6.146-0.817,12.474-0.262,18.729-0.262C602.02,284.34,602.194,284.764,602.37,285.188z"/>
		<path fill-rule="evenodd" clip-rule="evenodd" d="M703.646,161.916c0.234,6.335-1.308,12.131-5.218,17.263
			c-3.342,4.384-7.502,4.989-12.293,3.303c-2.107-0.741-4.471-8.299-3.715-10.612c0.649-1.986,1.383-4.027,1.526-6.082
			c0.376-5.384,3.179-9.718,6.33-13.592c2.216-2.725,5.985-2.641,9.417-1.576c3.007,0.934,3.821,3.283,3.938,6.053
			C703.706,158.417,703.646,160.168,703.646,161.916z M690.859,181.47c1.737-2.691,3.394-5.12,4.896-7.64
			c0.746-1.253,1.536-2.625,1.742-4.028c0.686-4.687,3.196-9.255,1.006-14.171c-1.078-2.419-2.643-2.873-4.396-0.92
			c-2.721,3.031-4.904,6.35-4.832,10.696c0.016,0.959-0.113,2.047-0.56,2.867C686.036,173.212,686.38,176.569,690.859,181.47z"/>
		<path fill-rule="evenodd" clip-rule="evenodd" d="M635.21,150.104c-0.677,4.027-1.243,7.398-1.81,10.769
			c-0.453,0.004-0.907,0.009-1.36,0.014c-0.989-1.759-2.063-3.476-2.95-5.285c-1.987-4.048-5.586-3.982-9.564-1.82
			c-6.201,3.371-7.754,8.986-9.485,14.846c-1.075,3.639,1.951,8.422,5.267,10.272c4.802,2.682,8.146-0.733,12.078-1.812
			c1.306-0.359,2.633-0.641,3.95-0.958c-0.62,0.926-1.077,2.035-1.885,2.747c-5.205,4.591-14.469,5.838-19.78,2.154
			c-5.408-3.751-7.299-10.101-4.458-17.139c1.854-4.591,5.313-7.42,7.85-11.15c1.026-1.509,3.808-2.381,5.861-2.525
			C623.983,149.866,629.084,150.104,635.21,150.104z"/>
		<path fill-rule="evenodd" clip-rule="evenodd" d="M417.397,148.542c-0.436,3.122-0.905,6.24-1.293,9.368
			c-0.245,1.972-0.294,3.97-0.565,5.937c-0.282,2.039-1.162,4.09-1.005,6.074c0.271,3.431,1.141,6.813,1.941,11.223
			c-2.598,0.25-5.938,0.572-9.856,0.949c-0.234-3.848,6.53-5.17,3.014-9.733c-2.995-0.635-6.506-1.577-9.269,1.441
			c-1.213,1.324-3.163,2.742-1.576,5.214c0.324,0.504-0.338,2.396-0.632,2.416c-1.816,0.127-3.656-0.098-5.488-0.205
			c0.143-0.946-0.03-2.138,0.479-2.801c3.803-4.934,7.807-9.714,11.601-14.655c1.304-1.697,2.039-3.824,3.298-5.565
			c2.515-3.476,5.212-6.82,7.834-10.218C416.386,148.173,416.892,148.358,417.397,148.542z M411.337,161.11
			c-2.716,1.795-5.921,2.85-4.552,6.818C410.382,167.889,411.727,165.919,411.337,161.11z"/>
		<path fill-rule="evenodd" clip-rule="evenodd" d="M535.141,160.005c0.852,5.643,1.564,10.371,2.407,15.967
			c1.935-2.84,3.179-5.497,5.171-7.352c1.851-1.724,2.311-2.48,0.103-4.146c-0.618-0.466-0.687-2.587-0.156-3.382
			c0.495-0.742,2.199-1.125,3.217-0.916c0.692,0.142,1.468,1.527,1.604,2.446c0.671,4.531-1.54,7.953-4.383,11.234
			c-2.686,3.102-4.651,6.913-7.636,9.646c-3.07,2.809-4.891,7.382-9.679,7.946c-0.991,0.117-2.828-0.889-3.074-1.729
			c-0.549-1.872,0.228-3.303,2.71-3.266c3.956,0.059,7.015-3.219,6.81-6.949c-0.178-3.223-0.3-6.45-0.401-9.677
			c-0.077-2.425,0.378-4.795-2.919-5.978c-1.695-0.608-1.773-2.85,0.485-3.472C531.197,159.883,533.194,160.104,535.141,160.005z"/>
		<path fill-rule="evenodd" clip-rule="evenodd" d="M492.952,295.713c6.919-2.239,9.165-1.198,9.466,4.788
			c0.068,1.372,0.129,2.746,0.155,4.119c0.026,1.353,0.006,2.707,0.762,4.544c2.23-2.534,4.546-5.002,6.608-7.667
			c0.343-0.442-0.316-1.79-0.7-2.636c-0.507-1.119-1.197-2.157-2.159-3.845c2.801-0.192,4.604-0.316,6.254-0.43
			c2.52,5.517-1.145,9.021-3.639,12.509c-3.2,4.477-7.086,8.469-10.76,12.594c-1.638,1.841-3.3,3.76-5.295,5.146
			c-1.313,0.913-3.24,0.942-5.228,1.453c0-2.405,0-3.97,0-5.308c2.367-0.659,4.604-0.966,6.55-1.885
			c4.764-2.25,2.544-6.601,2.706-10.195c0.062-1.361-0.182-2.733-0.234-4.102C497.305,301.226,498.261,297.215,492.952,295.713z"/>
		<path fill-rule="evenodd" clip-rule="evenodd" d="M433.105,164.265c1.004-1.219,1.783-2.664,2.986-3.491
			c1.211-0.831,3.199-1.811,4.202-1.342c1.255,0.584,1.852,2.58,2.63,3.805c-3.528,1.623-7.556,2.229-8.805,4.42
			c-1.106,1.943,0.873,5.646,1.54,8.806c1.227-0.361,1.984-0.583,3.849-1.132c-0.788,2.12-0.969,3.908-1.953,4.887
			c-0.991,0.984-3.265,2.001-4.118,1.511c-1.546-0.89-2.455-2.888-3.633-4.421c-0.206-0.269-0.422-0.529-0.788-0.985
			c-1.962,3.362-4.077,6.615-8.444,5.444c-0.87-0.233-1.15-2.668-1.791-4.318c7.585-0.188,10.355-3.317,9.419-10.005
			c-0.173-1.237-1.314-2.401-2.182-3.458c-0.834-1.015-1.958-1.794-2.764-2.826c-0.102-0.13,0.942-1.674,1.478-1.687
			c1.725-0.044,3.671-0.09,5.125,0.656C431.1,160.765,431.783,162.494,433.105,164.265z"/>
		<path fill-rule="evenodd" clip-rule="evenodd" d="M433.532,287.317c1.43-0.137,2.388-0.229,3.729-0.356c0,3.137,0,6.077,0,9.326
			c2.428,0.125,4.517,0.159,6.587,0.367c1.206,0.12,2.648,0.196,3.494,0.891c0.746,0.613,1.202,2.121,1.034,3.104
			c-0.104,0.613-1.569,1.257-2.496,1.392c-0.896,0.131-1.901-0.613-2.832-0.556c-5.133,0.316-5.487,0.771-5.62,6.206
			c-0.032,1.354-0.155,2.705-0.251,4.303c-1.335-0.318-2.375-0.566-3.615-0.862c0-1.336-0.002-2.573,0-3.813
			c0.006-5.527-1.186-6.937-6.405-5.518c-2.982,0.811-2.809-1.432-4.029-2.349c1.189-0.981,2.254-2.511,3.596-2.818
			c2.092-0.478,4.373-0.126,6.81-0.126C433.532,293.349,433.532,290.509,433.532,287.317z"/>
		<path fill-rule="evenodd" clip-rule="evenodd" d="M553.201,302.317c-1.636,0-3.417-0.293-5.049,0.076
			c-1.897,0.429-4.464,0.968-5.261,2.327c-0.788,1.343,0.268,3.768,0.515,5.719c0.336,0.023,0.672,0.048,1.008,0.071
			c-0.906,0.734-1.813,1.469-2.801,2.27c-4.988-2.043-2.003-6.62-3.283-10.309c-2.706,0-5.618,0-8.445,0
			c-0.797-4.034,0.993-5.832,4.713-5.243c3.525,0.56,4.578-0.377,4.31-3.808c-0.05-0.62-0.156-1.274-0.017-1.862
			c0.309-1.305,0.598-2.664,1.236-3.813c0.215-0.386,1.461-0.197,2.236-0.272c0.047,1.276,0.294,2.583,0.105,3.823
			c-0.741,4.852,1.214,6.832,6.092,6.008C551.299,296.844,553.782,299.272,553.201,302.317z"/>
		<path fill-rule="evenodd" clip-rule="evenodd" d="M572.48,164.295c1.867-3.446-1.823-8.419,4.175-10.636c0,3.784,0,6.96,0,10.627
			c3.904,0,7.444,0,10.996,0c1.075,4.308-1.748,3.64-3.791,3.721c-2.207,0.086-4.42,0.019-7.039,0.019c0,3.826,0,7.255,0,10.981
			c-1.501-0.176-2.552-0.299-3.809-0.446c0-3.443,0-6.66,0-10.443c-2.541,0-4.888,0.215-7.163-0.092
			c-1.115-0.15-2.1-1.27-3.144-1.951c1.03-0.594,2.015-1.568,3.103-1.7C568.014,164.106,570.275,164.295,572.48,164.295z"/>
		<path fill-rule="evenodd" clip-rule="evenodd" d="M467.414,163.842c2.027-4.031-1.865-9.356,4.41-12.266
			c0,3.343,0.166,6.252-0.047,9.133c-0.215,2.92,0.992,3.748,3.707,3.42c1.716-0.207,3.492-0.162,5.21,0.036
			c0.643,0.074,1.197,0.903,1.792,1.388c-0.626,0.599-1.203,1.639-1.888,1.715c-1.961,0.217-3.965,0.045-5.952,0.024
			c-1.936-0.02-2.981,0.69-2.864,2.873c0.146,2.715,0.035,5.446,0.035,8.689c-6.59-2.175-2.171-7.721-4.506-11.535
			c-1.858,0.094-4.175,0.421-6.448,0.234c-1.125-0.093-2.172-1.134-3.254-1.747c1.026-0.541,2.007-1.397,3.089-1.555
			C462.997,163.917,465.349,163.948,467.414,163.842z"/>
		<path fill-rule="evenodd" clip-rule="evenodd" d="M637.058,173.238c1.267-4.031,4.354-6.054,7.62-4.95
			c1.116,0.377,2.4,1.87,2.607,3.032c0.724,4.063,0.59,8.027-3.579,10.577c-0.646,0.395-0.966,1.321-1.665,2.332
			c1.315,0.252,2.33,0.445,3.324,0.636c1.523,3.922,0.025,5.325-4.166,5.66c-2.397,0.193-4.852-0.333-7.281-0.535
			c-0.174-0.327-0.348-0.654-0.521-0.98c2.108-2.225,4.327-4.358,6.292-6.703c1.507-1.799,3.067-3.716,3.921-5.853
			c0.952-2.384-0.084-3.845-3.005-3.25C639.563,173.417,638.44,173.238,637.058,173.238z"/>
		<path fill-rule="evenodd" clip-rule="evenodd" d="M631.95,294.986c7.391,0,14.707-0.089,22.015,0.118
			c0.855,0.024,1.663,1.685,2.493,2.586c-0.915,0.747-1.818,2.123-2.748,2.142c-6.424,0.129-12.854-0.007-19.282-0.095
			C631.584,299.697,631.224,297.979,631.95,294.986z"/>
		<path fill-rule="evenodd" clip-rule="evenodd" d="M607.595,302.976c4.867-1.117,5.785-0.456,4.983,3.288
			c-1.25,5.837-2.499,11.675-3.857,18.022c0.282-0.108-0.183,0.235-0.63,0.213c-1.778-0.089-3.551-0.291-5.325-0.452
			c0.35-1.708,0.227-3.742,1.138-5.065c3.024-4.396,3.27-9.35,3.596-14.342C607.53,304.149,607.557,303.659,607.595,302.976z"/>
		<path fill-rule="evenodd" clip-rule="evenodd" d="M676.376,172.586c-7.401,0-13.598,0.083-19.787-0.079
			c-1.078-0.029-2.128-1.095-3.19-1.681c1.025-0.816,2.028-2.303,3.079-2.338c6.323-0.211,12.66-0.181,18.985,0.024
			c0.896,0.028,1.748,1.452,2.62,2.229C677.271,171.619,676.46,172.496,676.376,172.586z"/>
		<path fill-rule="evenodd" clip-rule="evenodd" d="M656.167,305.36c-8.159,0-16.319,0-24.478,0
			c-0.133-0.397-0.265-0.794-0.397-1.191c0.984-0.55,1.999-1.623,2.947-1.567c7.355,0.427,14.908-1.227,22.124,0.778
			C656.298,304.04,656.232,304.7,656.167,305.36z"/>
		<path fill-rule="evenodd" clip-rule="evenodd" d="M678.712,164.418c-8.824,0-16.964,0-25.105,0
			c-0.055-0.286-0.109-0.572-0.164-0.858c0.713-0.372,1.417-0.766,2.144-1.107c0.448-0.209,0.938-0.498,1.399-0.48
			c6.813,0.256,13.625,0.55,20.436,0.882C677.655,162.866,677.865,163.37,678.712,164.418z"/>
		<path fill-rule="evenodd" clip-rule="evenodd" fill="#FFFFFF" d="M371.427,301.202c1.602-2.05,3.204-4.1,4.806-6.149
			c0.258,0.142,0.517,0.282,0.775,0.424c0,2.022,0,4.045,0,6.478c-1.593,0.131-3.096,0.253-4.599,0.376
			C372.082,301.954,371.755,301.578,371.427,301.202z"/>
		<path fill-rule="evenodd" clip-rule="evenodd" fill="#FFFFFF" d="M484.566,305.461c0.023,3.918-4.13,7.269-9.171,7.011
			c-1.103-0.056-2.995-1.39-3.061-2.245c-0.36-4.763,3.123-10.177,6.137-10.181C482.331,300.041,484.546,302.01,484.566,305.461z"/>
		<path fill-rule="evenodd" clip-rule="evenodd" fill="#FFFFFF" d="M476.535,296.279c1.211-3.117,2.109-6.13,3.607-8.806
			c0.38-0.681,2.768-0.641,4.042-0.27c0.811,0.235,1.717,1.646,1.807,2.604C486.537,295.602,484.627,297.008,476.535,296.279z"/>
		<path fill-rule="evenodd" clip-rule="evenodd" fill="#FFFFFF" d="M511.09,178.552c-3.374,0.809-4.155-0.698-3.401-3.594
			c0.687-2.636-1.279-5.977,2.283-7.867c2.253-1.195,7.354-0.446,8.531,1.975c1.142,2.349,1.31,5.004-1.653,6.718
			c-1.847,1.068-3.531,2.418-5.288,3.641C511.403,179.134,511.246,178.842,511.09,178.552z"/>
		<path fill-rule="evenodd" clip-rule="evenodd" fill="#FFFFFF" d="M510.792,160.498c1.244-2.889,2.105-5.358,3.396-7.575
			c0.354-0.607,2.248-0.941,2.997-0.554c1.282,0.664,2.723,1.804,3.205,3.081c1.626,4.299-2.94,9.553-7.438,8.513
			C512.032,163.749,511.526,161.741,510.792,160.498z"/>
		<path fill-rule="evenodd" clip-rule="evenodd" fill="#FFFFFF" d="M48.34,311.299c-1.882-6.207,1.172-10.502,4.759-14.45
			c0.663-0.729,3.409-0.874,3.666-0.421c0.839,1.477,1.825,3.788,1.212,4.996c-1.722,3.39-4.116,6.467-6.491,9.473
			C51.025,311.48,49.451,311.185,48.34,311.299z"/>
		<path fill-rule="evenodd" clip-rule="evenodd" fill="#FFFFFF" d="M690.107,293.146c-1.993,6.152-3.821,12.367-6.13,18.398
			c-0.419,1.094-2.774,1.854-4.29,1.952c-0.765,0.051-2.388-1.756-2.35-2.67c0.174-4.139,0.403-8.356,1.393-12.353
			c0.772-3.125,2.617-6.003,4.126-8.917c0.918-1.772,2.589-3.167,4.45-1.94c1.11,0.732,1.407,2.723,2.012,4.173
			c0.133,0.318,0.02,0.741,0.02,1.115C689.594,292.986,689.851,293.066,690.107,293.146z"/>
		<path fill-rule="evenodd" clip-rule="evenodd" fill="#FFFFFF" d="M690.859,181.47c-4.479-4.901-4.823-8.258-2.144-13.196
			c0.446-0.82,0.575-1.908,0.56-2.867c-0.072-4.347,2.111-7.666,4.832-10.696c1.754-1.953,3.318-1.499,4.396,0.92
			c2.19,4.916-0.32,9.484-1.006,14.171c-0.206,1.402-0.996,2.775-1.742,4.028C694.253,176.35,692.597,178.778,690.859,181.47z"/>
		<path fill-rule="evenodd" clip-rule="evenodd" fill="#FFFFFF" d="M411.337,161.11c0.39,4.809-0.955,6.779-4.552,6.818
			C405.416,163.96,408.621,162.905,411.337,161.11z"/>
	</g>
</g>
</svg>
