<?xml version="1.0" encoding="utf-8"?>
<!-- Generator: Adobe Illustrator 16.0.0, SVG Export Plug-In . SVG Version: 6.00 Build 0)  -->
<!DOCTYPE svg PUBLIC "-//W3C//DTD SVG 1.1//EN" "http://www.w3.org/Graphics/SVG/1.1/DTD/svg11.dtd">
<svg version="1.1" id="Layer_1" xmlns="http://www.w3.org/2000/svg" xmlns:xlink="http://www.w3.org/1999/xlink" x="0px" y="0px"
	 width="599.334px" height="468.815px" viewBox="0 0 599.334 468.815" enable-background="new 0 0 599.334 468.815"
	 xml:space="preserve">
<g>
	<g>
		<path fill-rule="evenodd" clip-rule="evenodd" fill="#FFFFFF" d="M0.75,469.565c0-156.271,0-312.544,0-468.815
			c199.778,0,399.556,0,599.334,0c0,156.271,0,312.544,0,468.815C400.306,469.565,200.528,469.565,0.75,469.565z M18.959,305.108
			c-1.508,6.05,3.931,7.955,6.451,11.372c3.649,4.949,7.982,9.394,11.972,14.097c0.947,1.116,1.587,2.494,2.543,3.601
			c4.465,5.168,9.053,10.231,13.474,15.438c2.561,3.017,4.787,6.317,7.34,9.341c5.164,6.113,10.172,12.4,15.801,18.062
			c2.743,2.759,3.968,5.445,4.11,9.156c0.066,1.735,0.761,3.769,1.868,5.077c2.396,2.832,8.743,3.229,12.973,0.855
			c3.188-1.788,2.87-5.138,2.728-8.218c-0.033-0.719-0.722-1.522-0.542-2.114c0.39-1.282,0.98-2.586,1.81-3.623
			c0.547-0.686,1.728-0.819,2.495-1.378c3.596-2.623,7.112-5.356,10.724-7.956c3.551-2.556,7.252-4.904,10.76-7.514
			c3.867-2.876,7.518-6.044,11.394-8.907c4.919-3.635,9.995-7.057,14.956-10.635c5.202-3.751,10.303-7.642,15.536-11.347
			c2.961-2.097,7.018-3.295,8.956-6.043c3.424-4.854,9.146-6.084,13.095-9.972c2.526-2.487,6.099-3.874,9.011-6.015
			c4.698-3.453,9.181-7.201,13.862-10.679c4.689-3.484,9.538-6.754,14.268-10.186c4.112-2.983,8.14-6.086,12.235-9.094
			c6.003-4.412,12.168-8.616,18.004-13.239c3.564-2.825,7.757-4.57,10.935-8.261c3.118-3.619,8.021-5.677,12.062-8.531
			c7.562-5.341,15.064-10.765,22.596-16.147c5.918-4.229,11.836-8.456,17.768-12.665c3.373-2.393,6.775-4.745,10.161-7.118
			c2.632-1.844,5.309-3.627,7.877-5.556c3.547-2.664,7.017-5.432,10.509-8.17c2.67-2.094,5.168-4.47,8.052-6.207
			c1.441-0.869,4.234-1.462,5.279-0.674c4.037,3.046,6.674,1.478,10.126-1.176c3.065-2.356,1.405-5.099,2.071-7.602
			c0.391-1.466,0.531-3.364,1.52-4.23c2.18-1.912,4.782-3.363,7.297-4.861c1.112-0.662,2.657-0.706,3.612-1.503
			c3.845-3.208,7.147-7.052,12.004-8.996c2.045-0.818,3.943-2.215,5.628-3.673c3.894-3.372,7.074-8.186,11.539-10.132
			c6.296-2.744,10.745-7.542,16.146-11.214c3.95-2.685,7.619-5.779,11.483-8.595c3.253-2.372,6.65-4.545,9.903-6.917
			c3.111-2.269,6.102-4.705,9.184-7.017c1.311-0.983,2.786-1.751,4.066-2.769c2.018-1.604,3.861-3.433,5.911-4.99
			c3.367-2.558,6.846-4.968,10.267-7.455c1.816-1.321,3.638-2.638,5.406-4.021c1.773-1.386,3.729-1.205,4.941,0.3
			c2.61,3.242,5.937,2.082,8.936,1.644c2.964-0.433,6.704-5.807,6.033-8.241c-0.664-2.411-1.252-5.396-2.964-6.803
			c-1.617-1.329-4.646-0.986-7.066-1.265c-0.979-0.112-2.064,0.331-2.972,0.071c-1.269-0.364-2.758-0.866-3.549-1.813
			c-1.767-2.116-3.026-4.65-4.738-6.82c-1.99-2.522-4.322-4.773-6.36-7.26c-2.52-3.073-4.753-6.389-7.365-9.377
			c-2.402-2.748-5.271-5.086-7.695-7.817c-1.814-2.043-3.127-4.522-4.88-6.628c-2.577-3.096-5.311-6.065-8.052-9.021
			c-1.737-1.873-3.744-3.508-5.383-5.458c-1.748-2.083-3.151-4.451-4.8-6.623c-2.7-3.557-5.609-6.963-8.171-10.614
			c-1.604-2.284-3.206-3.762-6.957-2.362c3.015,9.638,11.417,14.852,17.539,22.935c-1.909,0.762-3.703,1.502-5.517,2.191
			c-1.009,0.383-2.411,0.367-3.018,1.067c-3.469,4.003-8.647,2.428-12.821,4.116c-2.991,1.209-6.261,1.727-9.407,2.553
			c0.063,0.499,0.127,0.998,0.19,1.498c2.285,0,4.601-0.221,6.849,0.068c1.882,0.242,3.688,1.079,5.528,1.652
			c-1.385,1.132-2.767,2.268-4.159,3.39c-0.187,0.151-0.444,0.211-0.643,0.351c-5.081,3.581-10.163,7.16-15.234,10.753
			c-3.214,2.277-6.847,4.164-9.509,6.968c-3.522,3.712-7.49,6.484-12.043,8.6c-0.55,0.255-1.279,0.489-1.538,0.951
			c-2.375,4.242-6.674,5.866-10.629,7.968c-0.733,0.39-1.618,0.647-2.163,1.221c-4.209,4.439-8.773,8.425-14.1,11.492
			c-0.96,0.553-1.924,1.132-2.771,1.837c-2.35,1.952-4.598,4.027-6.963,5.96c-2.805,2.292-5.675,4.507-8.553,6.707
			c-0.51,0.39-1.355,0.895-1.765,0.713c-0.453-0.201-0.824-1.135-0.812-1.741c0.054-2.493,0.334-4.981,0.388-7.475
			c0.025-1.15-0.279-2.307-0.435-3.462c-1.219,1.267-1.5,2.579-2.224,3.567c-1.536,2.099-3.474,3.912-4.939,6.052
			c-3.277,4.781-6.329,9.716-9.605,14.498c-0.243,0.355-1.915,0.321-2.29-0.098c-2.679-2.992-5.036-6.281-7.811-9.173
			c-2.228-2.324-3.773-4.969-5.467-7.64c-1.243-1.961-4.165-2.858-6.337-4.229c-0.426,0.352-0.851,0.705-1.275,1.057
			c0.574,1.723,0.708,3.819,1.798,5.105c5.068,5.979,10.472,11.672,15.545,17.646c0.602,0.708,0.313,3.417-0.235,3.654
			c-3.604,1.564-7.365,2.795-11.129,3.962c-4.033,1.25-8.144,2.247-12.185,3.475c-2.747,0.835-5.478,1.772-8.113,2.903
			c-0.75,0.321-1.139,1.479-1.694,2.255c0.826,0.325,1.633,0.861,2.48,0.936c2.475,0.217,4.974,0.174,7.445,0.414
			c0.527,0.052,1.183,0.792,1.393,1.357c0.136,0.366-0.298,1.226-0.709,1.464c-3.126,1.81-6.121,3.594-8.892,6.13
			c-4.212,3.854-9.402,6.636-14.155,9.905c-1.93,1.328-3.878,2.647-5.689,4.128c-4.662,3.816-9.121,7.894-13.908,11.542
			c-4.604,3.509-9.545,6.572-14.285,9.906c-2.439,1.715-4.821,3.525-7.123,5.42c-3.17,2.61-6.117,5.506-9.387,7.98
			c-3.951,2.989-8.294,5.466-12.174,8.536c-3.164,2.504-6.638,4.523-9.39,7.751c-2.755,3.233-6.834,5.329-10.304,7.961
			c-7.303,5.54-14.583,11.106-21.878,16.655c-5.805,4.415-11.626,8.81-17.423,13.234c-2.492,1.902-4.929,3.877-7.416,5.786
			c-4.665,3.581-9.317,7.181-14.036,10.69c-2.963,2.203-6.066,4.217-9.057,6.385c-4.894,3.545-9.84,7.028-14.592,10.757
			c-5.248,4.117-10.272,8.517-15.448,12.727c-3.968,3.227-7.999,6.376-12.044,9.506c-2.688,2.079-5.451,4.062-8.18,6.088
			c-0.286-0.172-0.571-0.342-0.856-0.514c0.566-3.827,1.133-7.655,1.814-12.252c-1.658,0.541-3.147,0.561-3.627,1.267
			c-1.939,2.85-3.526,5.937-5.316,8.891c-3.15,5.201-6.354,10.37-9.871,16.1c-3.324-3.256-7.656-4.01-8.589-8.585
			c-0.201-0.984-0.997-1.921-1.705-2.714c-2.075-2.323-4.275-4.535-6.364-6.847c-1.483-1.64-3.401-3.163-4.162-5.112
			C23.093,304.74,21.514,304.539,18.959,305.108z M572.479,35.292c1.068,5.148,1.063,5.142-2.2,8.295
			c-1.606,1.552-3.36,2.998-4.717,4.748c-0.97,1.25-1.388,2.928-2.144,4.62c3.805,0.834,7.254-0.909,9.631,2.339
			c0.354,0.482,2.522,0.385,3.134-0.197c3.213-3.064,6.293-6.286,9.222-9.626c1.533-1.75,3.274-3.685,3.864-5.828
			c2.058-7.47,2.831-15.064,0.117-22.62c-1.173-3.265-2.845-4.09-5.331-2.756c0.562,1.282,1.44,2.499,1.61,3.807
			c1.146,8.819,0.059,17.178-4.539,25.079c-3.193,5.489-3.247,5.86-8.954,4.463c1.736-3.208,3.772-6.417,5.249-9.866
			c1.344-3.14-0.91-5.936-4.226-6.37c-3.846-0.503-5.736,1.342-7.11,5.886C568.587,36.494,570.412,35.93,572.479,35.292z
			 M387.591,221.515c-1.205-6.311-5.549-8.701-11.936-8.201c-2.095,0.164-4.223-0.149-6.335-0.162
			c-2.456-0.016-3.053,0.97-1.924,3.273c0.602,1.227,1.131,2.893,0.791,4.107c-1.363,4.859-3.396,9.545-4.556,14.443
			c-0.793,3.348-2.306,6.098-4.188,8.833c-0.407,0.594,0.016,1.759,0.029,2.058c2.699,0.158,4.94,0.323,7.186,0.401
			c0.614,0.021,1.502-0.018,1.793-0.394c0.373-0.482,0.401-1.343,0.347-2.021c-0.097-1.203-0.651-2.426-0.511-3.579
			c0.365-3.002,1.002-5.97,1.598-9.319C377.775,231.243,386.084,232.248,387.591,221.515z M110.022,462.411
			c1.929,1.216,6.136-1.564,6.806,3.065c1.014-0.271,2.109-0.387,3.016-0.863c0.649-0.341,0.924-1.397,1.573-1.734
			c4.614-2.395,7.355-6.591,9.795-10.8c5.06-8.729,3.515-18.027,1.332-27.208c-0.257-1.079-1.538-1.916-2.343-2.865
			c-0.35,0.116-0.7,0.233-1.05,0.351c-0.104,1.372-0.523,2.813-0.243,4.103c0.557,2.557,2.273,5.083,2.103,7.523
			c-0.269,3.86-1.444,7.726-2.703,11.431c-1.242,3.658-2.75,7.31-4.732,10.608c-1.486,2.474-3.34,5.2-8.124,5.357
			c0.96-3.043,1.843-5.466,2.48-7.953c0.794-3.102,1.594-6.232,1.927-9.399c0.09-0.862-1.341-2.344-2.362-2.687
			c-0.589-0.198-2.569,1.367-2.521,2.039c0.269,3.783-0.816,7.083-2.376,10.452C111.423,456.371,110.944,459.236,110.022,462.411z
			 M85.915,436.285c3.709,0.816,4.87,3.058,4.779,6.333c-0.092,3.365,0.082,6.737,0.14,10.107c0.075,4.359-1.89,6.576-6.07,7.197
			c-1.181,0.177-3.063,0.798-3.225,1.524c-0.278,1.258,0.135,3.5,0.997,3.968c1.075,0.584,3.414,0.336,4.308-0.507
			c3.544-3.341,6.837-6.966,10.028-10.655c2.477-2.863,4.354-6.302,7.067-8.887c2.542-2.424,3.479-5.165,3.328-8.334
			c-0.062-1.279-1.166-2.558-1.992-3.694c-0.113-0.156-1.83,0.353-2,0.837c-0.432,1.229-0.424,2.617-0.563,3.944
			c-0.163,1.563,0.154,3.376-0.542,4.636c-1.161,2.102-2.962,3.849-4.554,5.819c-0.448-0.555-0.715-0.73-0.724-0.919
			c-0.127-2.61-0.261-5.222-0.311-7.835c-0.079-4.201-3.488-7.617-6.86-6.522C88.393,433.729,87.37,435.104,85.915,436.285z
			 M541.253,25.305c4.941,2.255,6.074,6.065,5.935,10.033c-0.166,4.703,2.835,10.498-3.649,13.509
			c-1.269,0.589-2.762,0.692-4.044,1.263c-0.888,0.396-2.035,1.082-2.259,1.867c-0.257,0.903,0.236,2.895,0.648,2.964
			c1.868,0.315,4.56,0.921,5.607-0.043c3.164-2.911,5.714-6.494,8.475-9.839c0.464-0.563,0.637-1.496,1.198-1.83
			c4.805-2.853,7.007-7.74,9.598-12.272c2.327-4.072,1.946-5.153-1.913-8.091c-2.521,2.016-2.521,2.016-2.039,5.559
			c0.436,3.202-2.476,8.671-6.041,10.638c-0.479-4.078-0.995-7.941-1.368-11.817c-0.377-3.919-2.31-5.139-5.816-3.572
			C544.466,24.172,543.29,24.544,541.253,25.305z M435.813,226.312c5.133,6.091,5.137,6.091,5.285,14.096
			c0.027,1.499,0.038,2.998,0.013,4.496c-0.067,4.05-2.053,6.054-6.027,6.634c-1.209,0.176-2.566,1.016-3.31,1.976
			c-0.37,0.479,0.526,2.782,0.791,2.771c1.585-0.063,3.235-0.359,4.701-0.969c1.261-0.525,2.305-1.573,3.446-2.387
			c1.278-0.911,2.847-1.59,3.783-2.771c3.011-3.793,6.134-7.571,8.542-11.742c1.804-3.124,2.718-6.805,3.688-10.332
			c0.217-0.786-0.979-2.78-1.549-2.79c-1.134-0.021-2.551,0.726-3.309,1.617c-0.349,0.41,0.606,1.898,0.921,2.913
			c0.305,0.977,1.096,2.381,0.718,2.895c-1.884,2.562-4.082,4.892-6.613,7.814c-0.763-4.69-1.928-8.335-1.804-11.936
			c0.178-5.159-2.602-6.654-7.433-3.426C437.059,225.573,436.431,225.933,435.813,226.312z M501.693,21.925
			c-1.604,0.877-3.263,1.458-4.498,2.528c-2.512,2.176-4.381,1.985-6.807-0.439c-0.913-0.912-2.751-1.369-4.078-1.222
			c-0.812,0.09-1.452,1.721-2.17,2.661c0.465-0.027,0.929-0.054,1.394-0.081c1.396,2.567,4.43,5.606,3.854,7.605
			c-1.297,4.51-3.984,8.965-10.295,8.495c3.469,5.035,3.468,5.033,7.611,1.216c0.175-0.161,0.429-0.241,0.591-0.41
			c1.536-1.599,2.671-2.148,4.204,0.324c0.987,1.59,3.036,2.522,4.548,3.702c1.786-2.419,3.302-4.472,5.369-7.272
			c-2.056,0-2.901,0-3.748,0c-0.815,0-1.63,0-2.29,0c-0.351-1.548-0.468-2.801-0.917-3.919c-1.268-3.15,0.745-6.454,4.132-6.613
			C503.137,28.288,503.527,27.642,501.693,21.925z M403.776,226.523c2.252,1.934,4.97,3.27,5.974,5.41
			c1.009,2.152,2.017,5.403-1.568,7.276c-2.182,1.141-4.097,2.793-6.954,4.791c0.121,0.327,0.271,2.112,1.233,2.885
			c0.712,0.571,2.861,0.278,3.702-0.427c1.888-1.584,3.36-3.664,5.047-5.593c1.749,6.604,2.527,7.112,7.999,4.137
			c1.159-0.631,1.487-2.791,2.198-4.247c-1.216,0-2.432,0-4.018,0c-1.493-1.923-2.694-6.458-1.668-8.456
			c1.283-2.495,3.575-2.479,6.077-2.155c0.765,0.099,2.496-1.261,2.416-1.709c-0.286-1.615-0.993-3.241-1.932-4.591
			c-0.215-0.31-2.176,0.19-2.997,0.783c-1.787,1.295-3.357,2.89-5.024,4.368C409.572,222.697,409.572,222.697,403.776,226.523z
			 M37.133,436.955c-1.297-3.634-3.968-4.569-7.301-3.876c-0.721,0.15-1.915,0.941-1.865,1.292c0.116,0.817,0.755,1.643,1.369,2.287
			c0.682,0.717,1.863,1.069,2.323,1.87c3.552,6.188,0.357,11.484-7.163,11.833c-1.035,2.355-0.642,4.496,2.18,4.417
			c1.76-0.049,3.545-1.673,5.181-2.792c0.97-0.664,1.671-1.721,2.527-2.637c1.884,2.359,1.399,6.729,5.32,5.458
			c1.87-0.606,5.795-1.205,4.444-5.213c-0.423-0.163-0.672-0.362-0.866-0.318c-3.718,0.845-4.957-1.043-5.049-4.408
			c-0.061-2.214,3.387-7.785,4.747-7.14c2.543,1.207,3.411-0.608,4.939-1.514C44.951,432.561,44.951,432.561,37.133,436.955z
			 M465.551,213.616c-3.288,0.264-2.799,2.27-2.449,4.087c0.315,1.637,1.23,3.266,1.137,4.853
			c-0.307,5.139-0.421,10.39-1.657,15.336c-0.846,3.383-3.221,6.484-5.313,9.427c-2.086,2.933-4.674,5.508-7.907,9.238
			c2.44-0.329,4.256-0.036,5.202-0.809c2.429-1.981,4.564-4.354,6.649-6.718c5.828-6.608,9.405-14.155,7.966-23.152
			C468.51,221.708,466.794,217.706,465.551,213.616z M395.399,255.765c0-1.321,0.103-2.652-0.021-3.963
			c-0.273-2.912-1.23-5.888-0.864-8.701c0.515-3.964,1.925-7.819,3.045-11.695c1.572-5.439,3.959-10.305,8.838-13.719
			c1.172-0.82,1.521-2.816,2.248-4.271c-0.548-0.387-1.095-0.773-1.642-1.16c-6.697,4.437-12.242,10.616-15.05,17.916
			C388.707,238.612,388.213,247.888,395.399,255.765z M32.042,421.648c-0.272-0.24-0.543-0.48-0.815-0.721
			c-0.692,0.154-1.623,0.075-2.039,0.5c-5.704,5.832-12.765,10.437-14.721,19.379c-1.692,7.737-1.349,14.951,2.155,22.005
			c0.319,0.643,1.072,1.069,1.624,1.597c0.371-0.825,1.06-1.655,1.046-2.473c-0.03-1.734-0.122-3.579-0.727-5.175
			c-2.576-6.788,0.504-13.137,2.416-19.069c1.584-4.917,6.301-8.813,9.573-13.205C31.185,423.641,31.553,422.6,32.042,421.648z
			 M474.156,54.911c0.43-0.042,0.859-0.085,1.288-0.128c-0.119-2.003,0.538-4.896-0.522-5.822c-2.067-1.805-1.76-3.739-1.505-5.629
			c0.434-3.213,1.562-6.33,2.034-9.541c1.116-7.586,4.188-13.864,10.678-18.379c1-0.695,0.924-2.979,1.193-4.555
			c0.013-0.074-2.14-0.622-2.151-0.583c-1.123,3.471-4.124,4.858-6.851,6.71c-1.331,0.905-1.705,3.104-2.885,4.371
			c-3.687,3.951-5.664,8.545-6.076,13.908C468.813,42.376,469.834,49.057,474.156,54.911z M150.525,190.173
			c3.141,1.902,3.553,3.741,1.183,6.005c-0.466,0.445-0.742,1.201-0.879,1.861c-0.625,2.984-0.797,6.13-1.885,8.924
			c-0.625,1.606-0.523,2.783,0.662,3.088c0.986,0.254,2.71-0.469,3.378-1.327c0.929-1.192,1.003-3.009,1.751-4.392
			c1.599-2.956,3.129-6.027,5.257-8.575c0.75-0.897,3.234-0.168,4.791-0.634c0.934-0.28,2.299-1.476,2.258-2.189
			c-0.105-1.827-0.888-3.615-1.294-5.049c-2.874,1.059-6.125,2.923-6.648,2.34C156.176,186.966,153.694,189.066,150.525,190.173z
			 M322.077,77.197c0.481-0.331,0.894-0.462,1.041-0.737c2.305-4.271,4.427-8.652,6.956-12.784c0.643-1.048,2.507-1.525,3.907-1.868
			c0.983-0.24,2.132,0.193,3.547,0.366c0-2.375,0-4.433,0-6.896c-2.6,0.445-4.892,1.179-7.169,1.132
			c-2.237-0.046-4.459-0.885-7.089-1.464c0,3.649,0.329,6.418-0.094,9.066c-0.419,2.616-1.072,5.49-2.57,7.565
			C318.433,74.588,320.35,75.603,322.077,77.197z M502.413,51.057c2.146,1.934,8.318,2.903,9.784,1.644
			c1.221-1.05,2.441-2.397,2.958-3.86c0.313-0.889-0.713-2.25-1.138-3.399c-0.592,0.41-1.184,0.82-1.775,1.23
			c2.18-3.441,4.36-6.884,6.254-9.874c-0.822-1.992-1.134-3.883-2.205-5.111c-2.424-2.778-9.354-0.235-9.641,3.703
			c2.032,0,4.045,0,7.199,0c-1.02,2.747-1.337,5.235-2.683,6.884C508.621,45.396,505.485,48.038,502.413,51.057z M345.557,80.455
			c-0.163-0.245-0.326-0.488-0.488-0.733c1.7-1.782,3.469-3.505,5.088-5.359c2.468-2.827,2.732-6.296,1.363-9.457
			c-0.58-1.339-3.159-2.7-4.656-2.529c-1.881,0.214-3.629,1.929-5.312,3.164c-0.227,0.167,0.061,1.701,0.467,1.911
			c0.669,0.346,1.945,0.494,2.419,0.088c3.665-3.144,3.729-0.183,3.509,2.193c-0.146,1.561-0.97,3.27-1.989,4.499
			c-2.533,3.053-5.351,5.869-8.524,9.286c4.626,0.583,8.625,1.391,12.207-1.133c0.658-0.464,0.382-2.252,0.607-3.964
			C348.184,79.316,346.87,79.885,345.557,80.455z M175.439,218.02c0.884-5.069,1.528-9.429,2.446-13.729
			c0.441-2.063,1.687-3.979,1.958-6.041c0.084-0.641-1.756-1.955-2.867-2.165c-0.589-0.111-1.901,1.358-2.197,2.325
			c-1.209,3.957-2.005,8.041-3.249,11.985c-0.79,2.501-2.102,4.837-3.502,7.969C171.451,218.204,173.637,218.103,175.439,218.02z
			 M49.654,461.918c4.992,0.98,6.567,0.351,7.104-2.47c0.967-5.079,2.187-10.117,2.922-15.227c0.159-1.104-1.036-3.158-2.044-3.504
			c-1.606-0.552-2.849,0.44-2.965,2.646c-0.154,2.918-0.542,5.886-1.328,8.692C52.423,455.343,50.967,458.48,49.654,461.918z
			 M520.327,41.227c-1.298,3.09-2.349,5.333-3.149,7.662c-0.227,0.659,0.083,2.099,0.494,2.252c0.759,0.285,2.006,0.193,2.646-0.284
			c3.108-2.318,5.174-5.177,3.634-9.63C522.538,41.227,520.98,41.227,520.327,41.227z M62.214,460.93
			c0.878-0.191,2.929-0.02,3.626-0.909c1.832-2.336,4.014-5.001,1.882-8.276c-0.528-0.812-2.298-1.829-2.575-1.605
			c-1.001,0.805-2.003,2.01-2.28,3.229C62.39,455.472,62.455,457.698,62.214,460.93z M423.637,252.391
			c4.174,0.461,6.678-2.216,6.056-7.27c-0.14-1.128-1.77-2.07-2.712-3.098c-0.807,1.01-2.031,1.91-2.331,3.053
			C424.055,247.341,423.971,249.74,423.637,252.391z M504.185,336.573c-0.105,0.388-0.211,0.775-0.316,1.163
			c0.918,0.385,2.182,1.34,2.683,1.037c1.111-0.673,1.839-1.978,2.723-3.024c-0.273-0.278-0.547-0.558-0.821-0.836
			C507.029,335.466,505.607,336.02,504.185,336.573z"/>
		<path fill-rule="evenodd" clip-rule="evenodd" d="M18.959,305.108c2.555-0.569,4.134-0.368,5.193,2.351
			c0.761,1.949,2.679,3.473,4.162,5.112c2.089,2.312,4.289,4.523,6.364,6.847c0.708,0.793,1.504,1.729,1.705,2.714
			c0.933,4.575,5.265,5.329,8.589,8.585c3.517-5.729,6.721-10.898,9.871-16.1c1.79-2.954,3.377-6.041,5.316-8.891
			c0.479-0.706,1.969-0.726,3.627-1.267c-0.681,4.597-1.248,8.425-1.814,12.252c0.285,0.172,0.57,0.342,0.856,0.514
			c2.729-2.026,5.492-4.009,8.18-6.088c4.045-3.13,8.076-6.279,12.044-9.506c5.176-4.21,10.2-8.609,15.448-12.727
			c4.752-3.729,9.698-7.212,14.592-10.757c2.991-2.168,6.094-4.182,9.057-6.385c4.719-3.51,9.371-7.109,14.036-10.69
			c2.487-1.909,4.924-3.884,7.416-5.786c5.797-4.425,11.619-8.819,17.423-13.234c7.295-5.549,14.576-11.116,21.878-16.655
			c3.47-2.632,7.548-4.728,10.304-7.961c2.752-3.228,6.226-5.247,9.39-7.751c3.879-3.07,8.223-5.547,12.174-8.536
			c3.27-2.474,6.217-5.37,9.387-7.98c2.302-1.895,4.683-3.705,7.123-5.42c4.739-3.334,9.681-6.397,14.285-9.906
			c4.787-3.648,9.246-7.725,13.908-11.542c1.811-1.481,3.759-2.8,5.689-4.128c4.753-3.269,9.943-6.051,14.155-9.905
			c2.771-2.536,5.765-4.32,8.892-6.13c0.411-0.238,0.845-1.098,0.709-1.464c-0.21-0.565-0.866-1.306-1.393-1.357
			c-2.472-0.239-4.97-0.197-7.445-0.414c-0.848-0.075-1.655-0.611-2.48-0.936c0.555-0.775,0.944-1.934,1.694-2.255
			c2.635-1.131,5.366-2.067,8.113-2.903c4.041-1.229,8.151-2.225,12.185-3.475c3.764-1.167,7.524-2.398,11.129-3.962
			c0.548-0.237,0.837-2.945,0.235-3.654c-5.073-5.974-10.478-11.667-15.545-17.646c-1.09-1.286-1.224-3.382-1.798-5.105
			c0.425-0.352,0.85-0.705,1.275-1.057c2.172,1.371,5.094,2.269,6.337,4.229c1.693,2.671,3.239,5.316,5.467,7.64
			c2.774,2.893,5.132,6.182,7.811,9.173c0.375,0.419,2.047,0.454,2.29,0.098c3.276-4.781,6.328-9.716,9.605-14.498
			c1.466-2.14,3.403-3.953,4.939-6.052c0.724-0.988,1.005-2.3,2.224-3.567c0.155,1.155,0.46,2.312,0.435,3.462
			c-0.054,2.494-0.334,4.981-0.388,7.475c-0.013,0.606,0.358,1.54,0.812,1.741c0.409,0.182,1.255-0.324,1.765-0.713
			c2.878-2.2,5.748-4.415,8.553-6.707c2.365-1.933,4.613-4.008,6.963-5.96c0.848-0.705,1.812-1.284,2.771-1.837
			c5.326-3.067,9.891-7.052,14.1-11.492c0.545-0.574,1.43-0.831,2.163-1.221c3.955-2.102,8.254-3.726,10.629-7.968
			c0.259-0.461,0.988-0.695,1.538-0.951c4.553-2.116,8.521-4.888,12.043-8.6c2.662-2.805,6.295-4.691,9.509-6.968
			c5.071-3.594,10.153-7.173,15.234-10.753c0.198-0.14,0.456-0.2,0.643-0.351c1.393-1.122,2.774-2.258,4.159-3.39
			c-1.84-0.573-3.646-1.41-5.528-1.652c-2.248-0.289-4.563-0.068-6.849-0.068c-0.063-0.5-0.127-0.999-0.19-1.498
			c3.146-0.826,6.416-1.344,9.407-2.553c4.174-1.688,9.353-0.112,12.821-4.116c0.606-0.7,2.009-0.684,3.018-1.067
			c1.813-0.689,3.607-1.429,5.517-2.191c-6.122-8.083-14.524-13.297-17.539-22.935c3.751-1.4,5.354,0.078,6.957,2.362
			c2.562,3.651,5.471,7.057,8.171,10.614c1.648,2.172,3.052,4.54,4.8,6.623c1.639,1.951,3.646,3.585,5.383,5.458
			c2.741,2.956,5.475,5.925,8.052,9.021c1.753,2.105,3.065,4.585,4.88,6.628c2.425,2.731,5.293,5.07,7.695,7.817
			c2.612,2.988,4.846,6.304,7.365,9.377c2.038,2.487,4.37,4.738,6.36,7.26c1.712,2.17,2.972,4.704,4.738,6.82
			c0.791,0.947,2.28,1.449,3.549,1.813c0.907,0.26,1.993-0.183,2.972-0.071c2.421,0.278,5.449-0.064,7.066,1.265
			c1.712,1.407,2.3,4.393,2.964,6.803c0.671,2.434-3.069,7.808-6.033,8.241c-2.999,0.438-6.325,1.599-8.936-1.644
			c-1.212-1.505-3.168-1.687-4.941-0.3c-1.769,1.383-3.59,2.7-5.406,4.021c-3.421,2.487-6.899,4.897-10.267,7.455
			c-2.05,1.557-3.894,3.386-5.911,4.99c-1.28,1.017-2.756,1.785-4.066,2.769c-3.082,2.312-6.072,4.748-9.184,7.017
			c-3.253,2.372-6.65,4.546-9.903,6.917c-3.864,2.816-7.533,5.911-11.483,8.595c-5.401,3.672-9.851,8.47-16.146,11.214
			c-4.465,1.947-7.646,6.76-11.539,10.132c-1.685,1.458-3.583,2.855-5.628,3.673c-4.856,1.944-8.159,5.789-12.004,8.996
			c-0.955,0.797-2.5,0.842-3.612,1.503c-2.515,1.498-5.117,2.949-7.297,4.861c-0.988,0.867-1.129,2.765-1.52,4.23
			c-0.666,2.503,0.994,5.246-2.071,7.602c-3.452,2.654-6.089,4.222-10.126,1.176c-1.045-0.788-3.838-0.195-5.279,0.674
			c-2.884,1.737-5.382,4.112-8.052,6.207c-3.492,2.738-6.962,5.506-10.509,8.17c-2.568,1.929-5.245,3.712-7.877,5.556
			c-3.386,2.373-6.788,4.725-10.161,7.118c-5.932,4.208-11.85,8.436-17.768,12.665c-7.532,5.382-15.034,10.806-22.596,16.147
			c-4.041,2.854-8.943,4.912-12.062,8.531c-3.178,3.69-7.371,5.436-10.935,8.261c-5.835,4.623-12,8.827-18.004,13.239
			c-4.095,3.008-8.123,6.11-12.235,9.094c-4.73,3.432-9.579,6.701-14.268,10.186c-4.682,3.478-9.164,7.226-13.862,10.679
			c-2.912,2.141-6.485,3.527-9.011,6.015c-3.948,3.888-9.671,5.117-13.095,9.972c-1.938,2.748-5.995,3.946-8.956,6.043
			c-5.233,3.705-10.334,7.596-15.536,11.347c-4.961,3.578-10.037,7-14.956,10.635c-3.876,2.863-7.527,6.031-11.394,8.907
			c-3.508,2.609-7.209,4.958-10.76,7.514c-3.612,2.6-7.128,5.333-10.724,7.956c-0.767,0.559-1.948,0.692-2.495,1.378
			c-0.83,1.037-1.42,2.341-1.81,3.623c-0.18,0.592,0.509,1.396,0.542,2.114c0.143,3.08,0.46,6.43-2.728,8.218
			c-4.23,2.373-10.577,1.977-12.973-0.855c-1.107-1.309-1.802-3.342-1.868-5.077c-0.142-3.711-1.367-6.397-4.11-9.156
			c-5.629-5.661-10.637-11.948-15.801-18.062c-2.553-3.023-4.78-6.324-7.34-9.341c-4.42-5.206-9.008-10.27-13.474-15.438
			c-0.956-1.106-1.596-2.484-2.543-3.601c-3.99-4.703-8.323-9.147-11.972-14.097C22.89,313.063,17.451,311.158,18.959,305.108z
			 M47.746,335.045c0.522,1.063,0.803,2.037,1.391,2.763c3.781,4.666,7.587,9.312,11.463,13.898
			c7.004,8.289,14.061,16.534,21.099,24.795c0.369,0.433,0.799,1.234,1.141,1.204c3.815-0.345,7.993,0.021,11.334-1.465
			c4.448-1.979,8.261-5.402,12.308-8.261c1.362-0.962,2.603-2.095,3.906-3.141c3.667-2.943,7.261-5.984,11.028-8.792
			c3.589-2.674,7.389-5.065,11.045-7.652c3.513-2.486,6.924-5.117,10.447-7.589c3.635-2.55,7.452-4.848,11.008-7.499
			c5.244-3.91,10.275-8.104,15.5-12.04c2.373-1.788,5.085-3.123,7.477-4.889c5.451-4.025,10.735-8.277,16.208-12.271
			c4.785-3.491,9.809-6.655,14.591-10.149c4.219-3.083,8.185-6.512,12.378-9.632c8.116-6.039,16.294-11.994,24.483-17.933
			c4.22-3.06,8.57-5.94,12.771-9.025c5.375-3.947,10.637-8.05,15.993-12.022c2.709-2.01,5.508-3.901,8.29-5.813
			c2.904-1.994,5.898-3.862,8.743-5.938c4.792-3.497,9.444-7.185,14.257-10.654c3.175-2.289,6.614-4.216,9.777-6.521
			c4.135-3.013,8.063-6.307,12.172-9.354c3.862-2.862,7.816-5.603,11.784-8.318c4.753-3.252,9.588-6.384,14.33-9.65
			c1.034-0.711,2.301-1.613,2.654-2.692c1.461-4.458-0.854-9.656-4.235-12.952c-4.438-4.329-8.334-9.218-12.392-13.928
			c-3.479-4.036-6.85-8.164-10.287-12.235c-0.726-0.859-1.621-1.582-2.292-2.478c-3.234-4.32-6.287-8.787-9.747-12.914
			c-0.587-0.699-3.688-0.567-4.197,0.17c-2.127,3.077-3.684,6.544-5.513,9.834c-0.406,0.73-1.097,1.297-1.61,1.975
			c-1.963,2.592-4.015,5.126-5.829,7.819c-1.815,2.698-3.366,5.574-5.1,8.33c-0.182,0.29-0.819,0.292-1.761,0.591
			c0.237-4.398,0.454-8.409,0.697-12.903c-0.886,0.29-2.098,0.381-2.899,1.002c-3.442,2.665-6.779,5.467-10.124,8.254
			c-4.455,3.71-8.521,8.042-13.41,11.035c-6.438,3.942-12.21,8.635-18.053,13.306c-1.001,0.801-2.261,1.28-3.256,2.087
			c-2.404,1.953-4.627,4.138-7.097,5.997c-3.362,2.531-6.932,4.785-10.331,7.27c-3.799,2.776-7.517,5.663-11.25,8.53
			c-3.191,2.449-6.293,5.019-9.539,7.393c-5.077,3.712-10.245,7.302-15.37,10.949c-0.447,0.319-0.887,0.651-1.305,1.007
			c-3.972,3.382-7.867,6.859-11.931,10.127c-2.904,2.335-6.089,4.317-9.049,6.587c-5.003,3.837-9.914,7.793-14.894,11.659
			c-1.133,0.88-2.441,1.532-3.579,2.405c-6.438,4.941-12.837,9.934-19.274,14.879c-4.423,3.397-8.911,6.714-13.324,10.125
			c-4.988,3.856-9.871,7.849-14.903,11.645c-3.043,2.296-6.372,4.214-9.417,6.507c-6.749,5.085-13.412,10.282-20.084,15.468
			c-2.567,1.996-5.063,4.083-7.592,6.128c0.121,0.34,0.242,0.68,0.363,1.02c3.271,0.239,6.542,0.479,10.048,0.735
			c-0.172,1.453-0.298,2.514-0.4,3.379C66.452,327.539,56.508,328.711,47.746,335.045z M360.117,177.203
			c0.671-0.066,1.653-0.268,2.631-0.241c2.063,0.056,4.396,0.903,6.118,0.201c2.512-1.026,4.586-3.125,6.841-4.775
			c5.469-4.001,10.93-8.014,16.41-12c0.471-0.342,1.13-0.436,1.572-0.802c4.147-3.438,8.088-7.157,12.44-10.311
			c5.354-3.879,11.216-7.062,16.551-10.965c8.833-6.463,17.354-13.35,26.142-19.876c3.652-2.712,7.809-4.747,11.449-7.473
			c4.397-3.293,8.379-7.137,12.746-10.475c4.171-3.188,8.654-5.963,12.903-9.054c2.196-1.598,2.341-5.624,0.483-7.77
			c-1.332-1.538-2.729-3.02-4.037-4.577c-6.225-7.409-12.46-14.809-18.631-22.262c-4.67-5.641-9.268-11.342-13.858-17.047
			c-2.133-2.65-4.489-3.267-6.347-1.025c-3.006,3.629-5.716,7.518-8.364,11.424c-2.279,3.362-4.271,6.918-6.454,10.347
			c-0.407,0.64-1.125,1.083-1.699,1.616c-0.445-0.148-0.89-0.296-1.335-0.444c0.728-4.211,1.456-8.423,2.185-12.635
			c-5.816,3.169-10.725,6.774-15.649,10.356c-3.04,2.21-6.204,4.262-9.138,6.605c-5.027,4.018-9.804,8.356-14.902,12.279
			c-3.938,3.029-8.339,5.452-12.3,8.454c-7.353,5.574-14.977,10.767-22.06,16.734c-4.459,3.756-9.872,6.375-14.817,9.567
			c-0.595,0.384-1.418,1.311-1.287,1.712c0.201,0.624,1.082,1.334,1.762,1.436c1.716,0.257,3.479,0.247,5.225,0.251
			c2.806,0.008,4.273,0.945,3.525,2.826c-10.008,2.939-19.193,5.638-29.491,8.662c6.281,9.151,13.724,16.475,20.33,24.442
			C345.871,160.596,352.859,168.662,360.117,177.203z"/>
		<path fill-rule="evenodd" clip-rule="evenodd" d="M572.479,35.292c-2.066,0.638-3.892,1.202-6.394,1.976
			c1.374-4.544,3.265-6.389,7.11-5.886c3.315,0.434,5.569,3.23,4.226,6.37c-1.477,3.449-3.513,6.658-5.249,9.866
			c5.707,1.397,5.761,1.026,8.954-4.463c4.598-7.901,5.685-16.26,4.539-25.079c-0.17-1.309-1.049-2.525-1.61-3.807
			c2.486-1.334,4.158-0.508,5.331,2.756c2.714,7.556,1.94,15.149-0.117,22.62c-0.59,2.143-2.331,4.078-3.864,5.828
			c-2.929,3.34-6.009,6.562-9.222,9.626c-0.611,0.582-2.78,0.679-3.134,0.197c-2.377-3.248-5.826-1.505-9.631-2.339
			c0.756-1.691,1.174-3.369,2.144-4.62c1.356-1.75,3.11-3.196,4.717-4.748C573.541,40.434,573.547,40.44,572.479,35.292z"/>
		<path fill-rule="evenodd" clip-rule="evenodd" d="M387.591,221.515c-1.507,10.732-9.815,9.728-17.706,9.439
			c-0.596,3.35-1.232,6.317-1.598,9.319c-0.141,1.153,0.414,2.376,0.511,3.579c0.055,0.679,0.026,1.539-0.347,2.021
			c-0.291,0.376-1.179,0.414-1.793,0.394c-2.245-0.078-4.486-0.243-7.186-0.401c-0.014-0.299-0.437-1.464-0.029-2.058
			c1.883-2.735,3.396-5.485,4.188-8.833c1.16-4.898,3.192-9.584,4.556-14.443c0.34-1.214-0.189-2.88-0.791-4.107
			c-1.129-2.303-0.532-3.289,1.924-3.273c2.112,0.013,4.24,0.326,6.335,0.162C382.042,212.814,386.386,215.205,387.591,221.515z
			 M380.836,218.155c-2.468,0-4.797,0-6.508,0c-0.872,2.244-1.73,3.751-2.008,5.357c-0.304,1.756-0.069,3.604-0.069,5.376
			C379.042,229.739,381.626,226.6,380.836,218.155z"/>
		<path fill-rule="evenodd" clip-rule="evenodd" d="M110.022,462.411c0.921-3.175,1.401-6.04,2.578-8.58
			c1.561-3.369,2.645-6.669,2.376-10.452c-0.048-0.672,1.933-2.237,2.521-2.039c1.021,0.343,2.452,1.824,2.362,2.687
			c-0.333,3.167-1.133,6.298-1.927,9.399c-0.637,2.487-1.52,4.91-2.48,7.953c4.784-0.157,6.638-2.884,8.124-5.357
			c1.983-3.299,3.49-6.95,4.732-10.608c1.258-3.705,2.434-7.57,2.703-11.431c0.17-2.44-1.546-4.967-2.103-7.523
			c-0.28-1.289,0.139-2.73,0.243-4.103c0.35-0.117,0.7-0.234,1.05-0.351c0.806,0.949,2.086,1.786,2.343,2.865
			c2.183,9.181,3.728,18.479-1.332,27.208c-2.44,4.209-5.181,8.405-9.795,10.8c-0.649,0.337-0.924,1.394-1.573,1.734
			c-0.906,0.477-2.001,0.593-3.016,0.863C116.159,460.847,111.952,463.627,110.022,462.411z"/>
		<path fill-rule="evenodd" clip-rule="evenodd" d="M85.915,436.285c1.455-1.182,2.478-2.556,3.807-2.987
			c3.372-1.095,6.781,2.321,6.86,6.522c0.05,2.613,0.183,5.225,0.311,7.835c0.009,0.188,0.276,0.364,0.724,0.919
			c1.592-1.971,3.393-3.718,4.554-5.819c0.696-1.26,0.379-3.073,0.542-4.636c0.139-1.327,0.131-2.716,0.563-3.944
			c0.17-0.484,1.887-0.993,2-0.837c0.826,1.137,1.93,2.415,1.992,3.694c0.151,3.169-0.785,5.91-3.328,8.334
			c-2.713,2.585-4.59,6.023-7.067,8.887c-3.19,3.689-6.484,7.314-10.028,10.655c-0.894,0.843-3.233,1.091-4.308,0.507
			c-0.862-0.468-1.274-2.71-0.997-3.968c0.161-0.727,2.043-1.348,3.225-1.524c4.18-0.621,6.145-2.838,6.07-7.197
			c-0.058-3.37-0.232-6.742-0.14-10.107C90.785,439.343,89.624,437.102,85.915,436.285z"/>
		<path fill-rule="evenodd" clip-rule="evenodd" d="M541.253,25.305c2.037-0.761,3.213-1.133,4.331-1.632
			c3.507-1.567,5.439-0.347,5.816,3.572c0.373,3.876,0.89,7.739,1.368,11.817c3.565-1.967,6.477-7.436,6.041-10.638
			c-0.481-3.542-0.481-3.542,2.039-5.559c3.859,2.938,4.24,4.02,1.913,8.091c-2.591,4.532-4.793,9.419-9.598,12.272
			c-0.562,0.334-0.734,1.268-1.198,1.83c-2.761,3.345-5.311,6.928-8.475,9.839c-1.048,0.964-3.739,0.358-5.607,0.043
			c-0.412-0.069-0.905-2.061-0.648-2.964c0.224-0.786,1.371-1.472,2.259-1.867c1.282-0.57,2.775-0.674,4.044-1.263
			c6.484-3.011,3.483-8.807,3.649-13.509C547.327,31.37,546.194,27.561,541.253,25.305z"/>
		<path fill-rule="evenodd" clip-rule="evenodd" d="M435.813,226.312c0.617-0.379,1.245-0.739,1.844-1.139
			c4.831-3.228,7.61-1.732,7.433,3.426c-0.124,3.6,1.041,7.245,1.804,11.936c2.531-2.923,4.729-5.253,6.613-7.814
			c0.378-0.514-0.413-1.918-0.718-2.895c-0.314-1.015-1.27-2.503-0.921-2.913c0.758-0.891,2.175-1.637,3.309-1.617
			c0.57,0.009,1.766,2.003,1.549,2.79c-0.97,3.526-1.884,7.208-3.688,10.332c-2.408,4.171-5.531,7.949-8.542,11.742
			c-0.937,1.181-2.505,1.859-3.783,2.771c-1.142,0.813-2.186,1.861-3.446,2.387c-1.466,0.609-3.116,0.906-4.701,0.969
			c-0.265,0.011-1.161-2.293-0.791-2.771c0.743-0.96,2.101-1.8,3.31-1.976c3.975-0.58,5.96-2.584,6.027-6.634
			c0.025-1.498,0.015-2.997-0.013-4.496C440.95,232.403,440.946,232.403,435.813,226.312z"/>
		<path fill-rule="evenodd" clip-rule="evenodd" d="M501.693,21.925c1.834,5.716,1.443,6.363-3.1,6.576
			c-3.387,0.16-5.399,3.463-4.132,6.613c0.449,1.118,0.566,2.371,0.917,3.919c0.66,0,1.475,0,2.29,0c0.847,0,1.692,0,3.748,0
			c-2.067,2.8-3.583,4.853-5.369,7.272c-1.512-1.18-3.561-2.112-4.548-3.702c-1.533-2.472-2.668-1.923-4.204-0.324
			c-0.162,0.169-0.416,0.249-0.591,0.41c-4.144,3.817-4.143,3.818-7.611-1.216c6.311,0.47,8.998-3.985,10.295-8.495
			c0.575-2-2.459-5.038-3.854-7.605c-0.465,0.027-0.929,0.053-1.394,0.081c0.718-0.939,1.358-2.57,2.17-2.661
			c1.327-0.147,3.165,0.31,4.078,1.222c2.426,2.424,4.295,2.615,6.807,0.439C498.431,23.383,500.089,22.803,501.693,21.925z"/>
		<path fill-rule="evenodd" clip-rule="evenodd" d="M403.776,226.523c5.796-3.826,5.796-3.826,10.485,2.471
			c1.667-1.478,3.237-3.073,5.024-4.368c0.821-0.593,2.782-1.093,2.997-0.783c0.938,1.351,1.646,2.976,1.932,4.591
			c0.08,0.448-1.651,1.808-2.416,1.709c-2.502-0.324-4.794-0.34-6.077,2.155c-1.026,1.998,0.175,6.533,1.668,8.456
			c1.586,0,2.802,0,4.018,0c-0.711,1.456-1.039,3.616-2.198,4.247c-5.472,2.976-6.25,2.468-7.999-4.137
			c-1.687,1.929-3.159,4.009-5.047,5.593c-0.841,0.705-2.99,0.998-3.702,0.427c-0.963-0.772-1.112-2.558-1.233-2.885
			c2.857-1.998,4.772-3.65,6.954-4.791c3.585-1.873,2.577-5.124,1.568-7.276C408.746,229.793,406.028,228.457,403.776,226.523z"/>
		<path fill-rule="evenodd" clip-rule="evenodd" d="M37.133,436.955c7.818-4.395,7.818-4.395,10.784-0.74
			c-1.528,0.905-2.396,2.721-4.939,1.514c-1.36-0.646-4.808,4.926-4.747,7.14c0.092,3.365,1.331,5.253,5.049,4.408
			c0.194-0.044,0.443,0.155,0.866,0.318c1.352,4.008-2.574,4.606-4.444,5.213c-3.921,1.271-3.436-3.099-5.32-5.458
			c-0.855,0.916-1.557,1.973-2.527,2.637c-1.636,1.119-3.42,2.743-5.181,2.792c-2.822,0.079-3.215-2.062-2.18-4.417
			c7.52-0.349,10.715-5.646,7.163-11.833c-0.459-0.801-1.641-1.153-2.323-1.87c-0.614-0.645-1.252-1.47-1.369-2.287
			c-0.05-0.351,1.144-1.142,1.865-1.292C33.165,432.386,35.836,433.321,37.133,436.955z"/>
		<path fill-rule="evenodd" clip-rule="evenodd" d="M465.551,213.616c1.243,4.09,2.959,8.093,3.627,12.263
			c1.439,8.997-2.138,16.544-7.966,23.152c-2.085,2.363-4.221,4.736-6.649,6.718c-0.946,0.772-2.762,0.479-5.202,0.809
			c3.233-3.73,5.821-6.306,7.907-9.238c2.093-2.942,4.468-6.044,5.313-9.427c1.236-4.946,1.351-10.198,1.657-15.336
			c0.094-1.587-0.821-3.216-1.137-4.853C462.752,215.885,462.263,213.879,465.551,213.616z"/>
		<path fill-rule="evenodd" clip-rule="evenodd" d="M395.399,255.765c-7.187-7.877-6.692-17.152-3.445-25.593
			c2.808-7.3,8.353-13.479,15.05-17.916c0.547,0.387,1.094,0.773,1.642,1.16c-0.728,1.456-1.076,3.451-2.248,4.271
			c-4.879,3.414-7.266,8.28-8.838,13.719c-1.12,3.875-2.53,7.731-3.045,11.695c-0.366,2.813,0.591,5.789,0.864,8.701
			C395.502,253.112,395.399,254.443,395.399,255.765z"/>
		<path fill-rule="evenodd" clip-rule="evenodd" d="M32.042,421.648c-0.489,0.951-0.857,1.992-1.488,2.838
			c-3.272,4.392-7.989,8.288-9.573,13.205c-1.912,5.933-4.992,12.281-2.416,19.069c0.605,1.596,0.697,3.44,0.727,5.175
			c0.014,0.817-0.675,1.647-1.046,2.473c-0.551-0.527-1.305-0.954-1.624-1.597c-3.504-7.054-3.848-14.268-2.155-22.005
			c1.956-8.942,9.018-13.547,14.721-19.379c0.416-0.425,1.347-0.346,2.039-0.5C31.499,421.168,31.771,421.408,32.042,421.648z"/>
		<path fill-rule="evenodd" clip-rule="evenodd" d="M474.156,54.911c-4.322-5.854-5.344-12.534-4.797-19.647
			c0.412-5.363,2.39-9.957,6.076-13.908c1.18-1.266,1.554-3.466,2.885-4.371c2.727-1.853,5.728-3.24,6.851-6.71
			c0.012-0.039,2.164,0.508,2.151,0.583c-0.27,1.576-0.193,3.859-1.193,4.555c-6.49,4.515-9.562,10.792-10.678,18.379
			c-0.473,3.211-1.601,6.328-2.034,9.541c-0.255,1.891-0.563,3.824,1.505,5.629c1.061,0.926,0.403,3.819,0.522,5.822
			C475.016,54.826,474.586,54.868,474.156,54.911z"/>
		<path fill-rule="evenodd" clip-rule="evenodd" d="M150.525,190.173c3.169-1.107,5.65-3.208,8.573,0.052
			c0.523,0.583,3.775-1.281,6.648-2.34c0.407,1.434,1.189,3.222,1.294,5.049c0.041,0.714-1.324,1.91-2.258,2.189
			c-1.557,0.466-4.042-0.263-4.791,0.634c-2.128,2.548-3.658,5.619-5.257,8.575c-0.748,1.382-0.822,3.199-1.751,4.392
			c-0.668,0.858-2.392,1.582-3.378,1.327c-1.186-0.305-1.288-1.481-0.662-3.088c1.088-2.794,1.26-5.94,1.885-8.924
			c0.138-0.66,0.413-1.416,0.879-1.861C154.079,193.915,153.666,192.076,150.525,190.173z"/>
		<path fill-rule="evenodd" clip-rule="evenodd" d="M322.077,77.197c-1.728-1.594-3.645-2.609-1.471-5.62
			c1.498-2.076,2.151-4.949,2.57-7.565c0.423-2.648,0.094-5.417,0.094-9.066c2.63,0.58,4.852,1.418,7.089,1.464
			c2.277,0.047,4.569-0.687,7.169-1.132c0,2.463,0,4.521,0,6.896c-1.415-0.173-2.563-0.606-3.547-0.366
			c-1.4,0.343-3.265,0.82-3.907,1.868c-2.529,4.131-4.651,8.513-6.956,12.784C322.971,76.735,322.559,76.867,322.077,77.197z"/>
		<path fill-rule="evenodd" clip-rule="evenodd" d="M502.413,51.057c3.072-3.02,6.208-5.661,8.754-8.783
			c1.346-1.649,1.663-4.137,2.683-6.884c-3.154,0-5.167,0-7.199,0c0.287-3.938,7.217-6.48,9.641-3.703
			c1.071,1.228,1.383,3.119,2.205,5.111c-1.894,2.99-4.074,6.432-6.254,9.874c0.592-0.41,1.184-0.82,1.775-1.23
			c0.425,1.149,1.45,2.51,1.138,3.399c-0.517,1.463-1.737,2.811-2.958,3.86C510.731,53.96,504.559,52.991,502.413,51.057z"/>
		<path fill-rule="evenodd" clip-rule="evenodd" d="M345.557,80.455c1.313-0.57,2.627-1.139,4.69-2.035
			c-0.226,1.712,0.051,3.5-0.607,3.964c-3.582,2.524-7.581,1.717-12.207,1.133c3.174-3.417,5.991-6.233,8.524-9.286
			c1.02-1.229,1.844-2.938,1.989-4.499c0.221-2.376,0.156-5.337-3.509-2.193c-0.474,0.406-1.75,0.257-2.419-0.088
			c-0.406-0.209-0.693-1.744-0.467-1.911c1.683-1.235,3.431-2.949,5.312-3.164c1.497-0.171,4.076,1.189,4.656,2.529
			c1.369,3.161,1.104,6.63-1.363,9.457c-1.619,1.854-3.388,3.577-5.088,5.359C345.23,79.967,345.394,80.21,345.557,80.455z"/>
		<path fill-rule="evenodd" clip-rule="evenodd" d="M175.439,218.02c-1.802,0.083-3.988,0.185-7.411,0.344
			c1.4-3.132,2.713-5.468,3.502-7.969c1.244-3.944,2.04-8.028,3.249-11.985c0.296-0.967,1.608-2.437,2.197-2.325
			c1.11,0.21,2.951,1.524,2.867,2.165c-0.271,2.063-1.517,3.978-1.958,6.041C176.967,208.591,176.323,212.951,175.439,218.02z"/>
		<path fill-rule="evenodd" clip-rule="evenodd" d="M49.654,461.918c1.313-3.438,2.77-6.575,3.69-9.862
			c0.786-2.807,1.174-5.774,1.328-8.692c0.116-2.205,1.359-3.197,2.965-2.646c1.008,0.346,2.203,2.399,2.044,3.504
			c-0.736,5.109-1.955,10.147-2.922,15.227C56.221,462.269,54.646,462.898,49.654,461.918z"/>
		<path fill-rule="evenodd" clip-rule="evenodd" d="M520.327,41.227c0.653,0,2.211,0,3.624,0c1.54,4.453-0.525,7.312-3.634,9.63
			c-0.64,0.477-1.887,0.569-2.646,0.284c-0.411-0.154-0.721-1.593-0.494-2.252C517.979,46.559,519.029,44.316,520.327,41.227z"/>
		<path fill-rule="evenodd" clip-rule="evenodd" d="M62.214,460.93c0.241-3.231,0.176-5.458,0.653-7.563
			c0.277-1.219,1.278-2.424,2.28-3.229c0.277-0.224,2.047,0.794,2.575,1.605c2.132,3.275-0.05,5.94-1.882,8.276
			C65.143,460.91,63.092,460.738,62.214,460.93z"/>
		<path fill-rule="evenodd" clip-rule="evenodd" d="M423.637,252.391c0.334-2.65,0.418-5.05,1.013-7.314
			c0.3-1.143,1.524-2.043,2.331-3.053c0.942,1.027,2.572,1.97,2.712,3.098C430.314,250.175,427.811,252.852,423.637,252.391z"/>
		<path fill-rule="evenodd" clip-rule="evenodd" d="M504.185,336.573c1.423-0.554,2.845-1.107,4.268-1.66
			c0.274,0.278,0.548,0.558,0.821,0.836c-0.884,1.047-1.611,2.352-2.723,3.024c-0.501,0.303-1.765-0.652-2.683-1.037
			C503.974,337.349,504.079,336.961,504.185,336.573z"/>
		<path fill-rule="evenodd" clip-rule="evenodd" fill="#FFFFFF" d="M47.746,335.045c8.762-6.334,18.706-7.506,28.644-9.837
			c0.103-0.865,0.228-1.926,0.4-3.379c-3.506-0.257-6.777-0.496-10.048-0.735c-0.121-0.34-0.242-0.68-0.363-1.02
			c2.529-2.045,5.025-4.132,7.592-6.128c6.672-5.186,13.335-10.383,20.084-15.468c3.045-2.293,6.373-4.211,9.417-6.507
			c5.032-3.796,9.916-7.788,14.903-11.645c4.413-3.411,8.901-6.728,13.324-10.125c6.437-4.945,12.836-9.938,19.274-14.879
			c1.138-0.873,2.446-1.525,3.579-2.405c4.98-3.866,9.891-7.822,14.894-11.659c2.96-2.27,6.145-4.252,9.049-6.587
			c4.064-3.268,7.959-6.745,11.931-10.127c0.418-0.356,0.858-0.688,1.305-1.007c5.125-3.646,10.293-7.236,15.37-10.949
			c3.246-2.374,6.348-4.943,9.539-7.393c3.732-2.867,7.451-5.753,11.25-8.53c3.399-2.485,6.969-4.739,10.331-7.27
			c2.47-1.859,4.692-4.044,7.097-5.997c0.995-0.807,2.254-1.286,3.256-2.087c5.843-4.671,11.615-9.364,18.053-13.306
			c4.889-2.993,8.955-7.325,13.41-11.035c3.345-2.787,6.682-5.589,10.124-8.254c0.801-0.621,2.014-0.712,2.899-1.002
			c-0.243,4.495-0.46,8.505-0.697,12.903c0.942-0.3,1.579-0.302,1.761-0.591c1.734-2.756,3.284-5.631,5.1-8.33
			c1.814-2.693,3.866-5.227,5.829-7.819c0.514-0.678,1.204-1.245,1.61-1.975c1.829-3.29,3.386-6.757,5.513-9.834
			c0.51-0.737,3.61-0.869,4.197-0.17c3.46,4.127,6.513,8.594,9.747,12.914c0.671,0.896,1.566,1.619,2.292,2.478
			c3.438,4.071,6.809,8.199,10.287,12.235c4.058,4.709,7.954,9.599,12.392,13.928c3.381,3.296,5.696,8.495,4.235,12.952
			c-0.354,1.079-1.62,1.981-2.654,2.692c-4.742,3.266-9.577,6.398-14.33,9.65c-3.968,2.715-7.922,5.456-11.784,8.318
			c-4.109,3.046-8.037,6.341-12.172,9.354c-3.163,2.305-6.603,4.232-9.777,6.521c-4.813,3.469-9.465,7.157-14.257,10.654
			c-2.844,2.075-5.839,3.943-8.743,5.938c-2.782,1.911-5.581,3.803-8.29,5.813c-5.356,3.973-10.618,8.075-15.993,12.022
			c-4.201,3.085-8.551,5.966-12.771,9.025c-8.189,5.938-16.368,11.894-24.483,17.933c-4.193,3.12-8.159,6.549-12.378,9.632
			c-4.783,3.494-9.806,6.658-14.591,10.149c-5.473,3.994-10.757,8.246-16.208,12.271c-2.392,1.766-5.104,3.101-7.477,4.889
			c-5.224,3.937-10.256,8.13-15.5,12.04c-3.556,2.651-7.373,4.949-11.008,7.499c-3.523,2.472-6.934,5.103-10.447,7.589
			c-3.656,2.587-7.456,4.979-11.045,7.652c-3.768,2.808-7.361,5.849-11.028,8.792c-1.303,1.046-2.543,2.179-3.906,3.141
			c-4.047,2.858-7.86,6.281-12.308,8.261c-3.341,1.486-7.519,1.12-11.334,1.465c-0.342,0.03-0.772-0.771-1.141-1.204
			c-7.038-8.261-14.095-16.506-21.099-24.795c-3.875-4.587-7.682-9.232-11.463-13.898C48.549,337.082,48.269,336.107,47.746,335.045
			z"/>
		<path fill-rule="evenodd" clip-rule="evenodd" fill="#FFFFFF" d="M360.117,177.203c-7.258-8.541-14.246-16.607-21.057-24.82
			c-6.606-7.967-14.049-15.292-20.33-24.442c10.298-3.024,19.483-5.723,29.491-8.662c0.748-1.881-0.72-2.818-3.525-2.826
			c-1.745-0.004-3.509,0.006-5.225-0.251c-0.68-0.102-1.561-0.813-1.762-1.436c-0.131-0.401,0.692-1.329,1.287-1.712
			c4.945-3.192,10.358-5.811,14.817-9.567c7.083-5.967,14.707-11.161,22.06-16.734c3.961-3.002,8.362-5.425,12.3-8.454
			c5.099-3.923,9.875-8.261,14.902-12.279c2.934-2.344,6.098-4.395,9.138-6.605c4.925-3.582,9.833-7.187,15.649-10.356
			c-0.729,4.212-1.457,8.423-2.185,12.635c0.445,0.148,0.89,0.296,1.335,0.444c0.574-0.533,1.292-0.976,1.699-1.616
			c2.184-3.429,4.175-6.985,6.454-10.347c2.648-3.906,5.358-7.795,8.364-11.424c1.857-2.242,4.214-1.625,6.347,1.025
			c4.591,5.705,9.188,11.406,13.858,17.047c6.171,7.453,12.406,14.854,18.631,22.262c1.309,1.557,2.705,3.04,4.037,4.577
			c1.857,2.146,1.713,6.172-0.483,7.77c-4.249,3.091-8.732,5.866-12.903,9.054c-4.367,3.338-8.349,7.182-12.746,10.475
			c-3.641,2.727-7.797,4.761-11.449,7.473c-8.787,6.527-17.309,13.413-26.142,19.876c-5.335,3.903-11.197,7.085-16.551,10.965
			c-4.353,3.154-8.293,6.873-12.44,10.311c-0.442,0.366-1.102,0.46-1.572,0.802c-5.48,3.986-10.941,7.999-16.41,12
			c-2.255,1.65-4.329,3.749-6.841,4.775c-1.723,0.702-4.056-0.145-6.118-0.201C361.771,176.935,360.788,177.136,360.117,177.203z"/>
		<path fill-rule="evenodd" clip-rule="evenodd" fill="#FFFFFF" d="M380.836,218.155c0.79,8.444-1.794,11.583-8.585,10.733
			c0-1.772-0.234-3.62,0.069-5.376c0.277-1.606,1.136-3.113,2.008-5.357C376.039,218.155,378.368,218.155,380.836,218.155z"/>
	</g>
</g>
</svg>
