<?xml version="1.0" encoding="utf-8"?>
<!-- Generator: Adobe Illustrator 16.0.0, SVG Export Plug-In . SVG Version: 6.00 Build 0)  -->
<!DOCTYPE svg PUBLIC "-//W3C//DTD SVG 1.1//EN" "http://www.w3.org/Graphics/SVG/1.1/DTD/svg11.dtd">
<svg version="1.1" id="Layer_1" xmlns="http://www.w3.org/2000/svg" xmlns:xlink="http://www.w3.org/1999/xlink" x="0px" y="0px"
	 width="604.584px" height="400.556px" viewBox="0 0 604.584 400.556" enable-background="new 0 0 604.584 400.556"
	 xml:space="preserve">
<g>
	<g>
		<path fill-rule="evenodd" clip-rule="evenodd" fill="#FFFFFF" d="M605.334,401.306c-201.528,0-403.056,0-604.584,0
			c0-133.519,0-267.037,0-400.556c201.528,0,403.056,0,604.584,0C605.334,134.269,605.334,267.787,605.334,401.306z M53.208,168.596
			c2.204,1.009,4.131,1.267,4.707,2.287c1.103,1.955,1.238,4.427,2.131,6.534c2.417,5.698,4.141,11.972,7.75,16.82
			c5.931,7.967,10.966,16.734,19.205,22.952c6.387,4.82,11.714,11.065,18.182,15.755c7.088,5.139,14.793,9.498,22.512,13.673
			c6.411,3.467,13.178,6.302,19.892,9.171c4.198,1.795,8.564,3.21,12.901,4.659c4.975,1.663,10.16,2.801,14.965,4.845
			c6.488,2.758,12.981,5.247,19.966,6.448c3.238,0.557,6.36,1.76,9.571,2.509c5.023,1.171,10.053,2.34,15.126,3.254
			c4.134,0.745,8.352,1.011,12.502,1.675c8.272,1.322,16.477,3.233,24.793,4.055c10.292,1.018,20.671,1.624,31.011,1.602
			c15.912-0.034,31.825-0.674,47.732-1.229c5.938-0.207,11.867-1.349,17.789-1.269c10.791,0.145,21.017-2.965,31.462-4.754
			c10.671-1.827,21.266-4.101,31.883-6.229c2.522-0.507,5.072-1.026,7.49-1.878c5.564-1.956,11.031-4.192,16.586-6.175
			c3.553-1.268,7.339-1.957,10.761-3.486c5.719-2.556,11.17-5.703,16.843-8.367c6.078-2.854,12.494-5.049,18.38-8.239
			c7.036-3.813,13.733-8.273,20.459-12.638c12.611-8.181,23.168-18.664,32.07-30.64c6.489-8.73,11.064-18.57,14.002-29.197
			c5.739-20.768,2.088-40.045-8.536-58.313c-2.934-5.043-6.324-9.821-9.285-14.381c-1.386-1.132-2.711-1.96-3.711-3.078
			c-2.805-3.136-5.209-6.675-8.261-9.532c-4.699-4.399-9.501-8.812-14.812-12.399c-7.419-5.011-15.205-9.529-23.097-13.771
			c-7.182-3.86-14.668-7.17-22.11-10.523c-3.914-1.763-8.003-3.145-12.044-4.613c-3.395-1.233-7.334-1.655-10.125-3.684
			c-3.423-2.489-7.276-2.491-10.898-3.648c-5.073-1.622-10.242-2.967-15.416-4.243c-4.966-1.226-9.974-2.303-14.996-3.273
			c-3.737-0.722-7.685-0.682-11.264-1.835c-8.758-2.82-17.709-3.924-26.827-4.194c-0.874-0.026-1.747-0.095-2.615-0.19
			c-8.213-0.896-16.405-2.204-24.641-2.603c-9.852-0.476-19.74-0.213-29.612-0.205c-8.623,0.007-17.265-0.24-25.863,0.257
			c-9.122,0.528-18.197,1.822-27.297,2.741c-5.869,0.593-11.747,1.1-17.616,1.687c-0.597,0.059-1.149,0.465-1.748,0.598
			c-5.616,1.242-11.239,2.456-16.859,3.685c-4.789,1.046-9.59,2.041-14.36,3.171c-3.616,0.857-7.216,1.804-10.776,2.868
			c-5.404,1.614-10.774,3.343-16.144,5.067c-2.265,0.728-4.472,1.64-6.745,2.338c-3.917,1.204-8.008,1.96-11.767,3.528
			c-6.467,2.699-12.864,5.63-19.053,8.911c-9.155,4.853-18.349,9.713-27.057,15.302c-6.38,4.093-12.242,9.101-17.894,14.19
			c-4.284,3.857-8.049,8.342-11.729,12.808c-4.637,5.628-9.213,11.343-13.341,17.346c-5.023,7.304-8.474,15.535-9.889,24.219
			c-1.215,7.462-3.343,15.068-0.889,22.803c0.574,1.81,0.273,3.896,0.372,5.772C55.766,167.878,54.898,168.122,53.208,168.596z
			 M555.619,310.574c-8.87-4.985-18.409-5.036-26.168-10.285c-0.846-0.572-2.662,0.288-4.029,0.484
			c0.608,0.886,1.169,1.81,1.84,2.646c0.619,0.773,1.374,1.438,2.038,2.178c0.73,0.813,1.425,1.659,2.135,2.49
			c-1.115,0.318-2.229,0.914-3.344,0.914c-15.243-0.006-30.488-0.238-45.729-0.132c-44.432,0.313-88.861,0.75-133.291,1.144
			c-10.83,0.096-21.659,0.268-32.489,0.311c-35.106,0.137-70.213,0.174-105.32,0.358c-25.45,0.134-50.899,0.406-76.348,0.68
			c-15.465,0.166-30.929,0.457-46.393,0.67c-1.24,0.018-2.482-0.134-4.129-0.23c2.672-2.999,4.819-5.408,6.966-7.817
			c-0.27-0.341-0.54-0.684-0.81-1.024c-0.989,0.261-2.012,0.43-2.96,0.796c-8.21,3.171-16.099,7.28-25.026,8.354
			c-0.893,0.106-1.674,1.14-2.506,1.743c0.623,0.704,1.125,1.63,1.902,2.054c0.829,0.453,1.941,0.35,2.887,0.633
			c5.848,1.752,11.676,3.569,17.526,5.313c2.781,0.829,5.595,1.546,8.394,2.313c0.252-0.387,0.503-0.772,0.754-1.159
			c-2.228-2.426-4.457-4.852-7.198-7.836c149.899-1.162,298.809-2.316,447.95-3.473c-1.518,4.103-6.261,4.946-6.385,9.413
			c5.414-1.926,10.311-3.674,15.212-5.41C545.938,313.984,550.778,312.281,555.619,310.574z M285.474,357.813
			c0.07,3.87,3.288,7.393,5.336,5.703c4.052-3.343,8.325-0.953,12.284-0.935c2.869,0.014,4.917-0.196,6.636-2.208
			c1.505-1.761,2.309-1.88,3.405,0.373c0.433,0.889,2.103,2.007,2.787,1.774c1.582-0.536,2.907-1.833,4.336-2.822
			c-0.988-0.465-1.981-0.921-2.961-1.404c-0.215-0.106-0.487-0.281-0.551-0.48c-0.678-2.163-2.06-4.445-1.761-6.476
			c0.295-1.996,2.165-3.788,5.015-3.433c0.571,0.072,1.336-1.414,2.013-2.183c-1.056-0.662-2.045-1.571-3.194-1.881
			c-0.575-0.154-1.583,0.656-2.152,1.26c-1.525,1.617-2.681,2.844-4.347-0.074c-0.485-0.85-2.658-0.874-4.083-1.012
			c-1.671-0.162-3.371-0.015-5.058-0.039c-2.708-0.039-5.573-0.705-8.089-0.038C290.284,345.213,285.385,352.806,285.474,357.813z
			 M55.722,320.864c0.259,0.195,0.519,0.391,0.778,0.586c0.628-0.655,1.8-1.31,1.801-1.966c0.01-6.967-0.119-13.937-0.307-20.901
			c-0.112-4.15-0.533-8.294-0.571-12.443c-0.04-4.395,0.353-8.794,0.305-13.189c-0.163-15.015-0.479-30.028-0.653-45.043
			c-0.133-11.493-0.102-22.988-0.275-34.48c-0.013-0.85-1.087-1.685-1.667-2.526c-0.412,0.212-0.823,0.423-1.234,0.635
			C54.506,234.646,55.114,277.755,55.722,320.864z M188.861,347.729c0.745,0.247,1.491,0.495,2.237,0.742
			c-0.919,3.704-1.944,7.387-2.701,11.124c-0.266,1.313,0.124,2.761,0.214,4.146c1.149-0.868,2.724-1.502,3.359-2.653
			c1.289-2.336,1.778-5.125,3.141-7.401c1.309-2.182,2.387-4.951,5.68-5.752c0.08,0.963,0.268,1.492,0.135,1.923
			c-0.726,2.34-1.771,4.607-2.238,6.992c-0.429,2.192-0.263,4.5-0.36,6.757c1.886-0.871,3.782-1.719,5.648-2.63
			c0.403-0.197,0.692-0.625,1.034-0.947c-0.332-0.003-0.665-0.007-0.997-0.011c-0.355-1.578-1.083-3.183-0.973-4.728
			c0.138-1.93,1.143-3.785,1.438-5.723c0.213-1.398-0.12-2.882-0.209-4.327c-1.86,0.273-3.778,0.354-5.557,0.893
			c-1.051,0.318-1.88,1.364-2.913,2.164c-1.659-4.212-2.854-4.405-7.736-2.679c-2.5-0.217-5-0.435-7.277-0.633
			c0.166,3.184,0.607,5.456,0.308,7.627c-0.317,2.301-1.549,4.468-1.974,6.769c-0.271,1.467-0.245,4.147,0.417,4.42
			c2.324,0.959,2.9-1.054,3.636-2.948C184.897,356.412,186.945,352.097,188.861,347.729z M557.497,274.411
			c0.581,0.032,1.163,0.065,1.745,0.1c0.316-2.21,0.898-4.422,0.886-6.63c-0.018-2.972-0.701-5.938-0.728-8.91
			c-0.057-6.158,0.28-12.32,0.187-18.478c-0.161-10.621-0.621-21.238-0.771-31.86c-0.082-5.84,0.265-11.685,0.329-17.528
			c0.083-7.453,0.184-14.908,0.021-22.356c-0.032-1.508-1.204-2.993-1.85-4.488c-0.406,0.132-0.813,0.263-1.218,0.395
			C556.565,201.24,557.031,237.825,557.497,274.411z M396.606,361.163c0.272,0.376,0.545,0.753,0.817,1.13
			c3.718,0,7.437,0.03,11.154-0.01c3.766-0.04,5.294-2.489,4.101-6.461c-2.38,0.817-4.76,1.634-8.222,2.823
			c0.815-1.888,1.046-3.183,1.794-4.007c2.397-2.649,5.048-5.068,7.49-7.679c4.306-4.601,3.998-9.729-1.194-12.927
			c-1.586-0.976-4.709-1.1-6.204-0.153c-1.836,1.163-5.624,1.979-4.047,6.099c1.211-0.487,2.48-0.733,3.418-1.428
			c2.29-1.696,4.564-0.402,5.529,0.994c0.86,1.245,0.645,3.984-0.176,5.466c-1.271,2.297-3.45,4.095-5.264,6.087
			C402.746,354.46,399.673,357.809,396.606,361.163z M438.589,343.324c-2.958,0-5.804-0.37-8.495,0.113
			c-2.264,0.406-4.9,1.296-6.377,2.892c-1.955,2.113-3.61,4.997-4.14,7.787c-0.455,2.405,0.284,5.521,1.644,7.554
			c0.558,0.835,4.124-0.453,6.332-0.56c1.062-0.052,2.146,0.566,3.223,0.575c1.449,0.013,3.392,0.238,4.219-0.562
			c0.899-0.87,0.92-2.799,1.031-4.288c0.097-1.302-0.555-2.713-0.273-3.937C436.442,349.896,437.48,346.972,438.589,343.324z
			 M227.579,344.924c-2.339,0-4.188,0.133-6.012-0.023c-8.016-0.684-15.311,7.947-13.211,15.703
			c0.792,2.931,3.976,4.724,6.318,2.957c2.643-1.992,4.601-1.563,6.597,0.36c2.331-1.454,5.364-2.307,2.456-5.715
			c-0.405-0.475-0.139-1.732,0.121-2.529C224.971,352.238,226.208,348.838,227.579,344.924z M240.088,356.881
			c0.066,4.35,4.821,8.938,7.941,7.666c5.543-2.26,9.207-6.079,10.281-12.153c0.687-3.884-3.106-8.864-6.61-8.526
			C244.987,344.517,239.986,350.121,240.088,356.881z M335.731,356.163c-0.397,0.106-0.794,0.214-1.192,0.32
			c-0.132,1.88-0.264,3.76-0.403,5.726c1.666,0.261,3.054,0.819,4.307,0.602c2.446-0.428,5.424-0.631,7.065-2.141
			c2.012-1.851,1.925-4.829-0.054-7.388c-1.44-1.862-2.531-3.996-3.777-6.01c0.231-0.297,0.464-0.595,0.695-0.894
			c0.911,0.277,1.996,0.335,2.686,0.888c0.846,0.679,1.359,1.771,2.017,2.685c0.465-0.118,0.931-0.236,1.396-0.354
			c-0.109-1.935,0.483-4.422-0.5-5.669c-1.34-1.701-8.227-0.265-9.588,1.584c-2.213,3.01-0.314,5.256,1.471,7.604
			c1.014,1.333,1.999,2.883,2.318,4.472c0.179,0.893-1.024,2.063-1.604,3.108c-1.051-0.713-2.189-1.328-3.124-2.171
			C336.737,357.89,336.293,356.961,335.731,356.163z M230.437,345.075c0.431,1.664,1.275,3.054,0.997,4.161
			c-1.468,5.857-3.185,11.652-4.894,17.445c-0.47,1.596-1.223,2.79-3.37,1.813c-0.808-0.367-2.118-0.009-3.015,0.412
			c-0.283,0.133-0.271,1.771,0.142,2.306c0.568,0.734,1.606,1.42,2.511,1.521c3.417,0.383,7.172-2.466,8.134-6.077
			c1.889-7.095,3.706-14.21,5.622-21.582C234.541,345.075,232.601,345.075,230.437,345.075z M260.098,363.474
			c0.502,0.064,1.005,0.129,1.507,0.193c2.507-4.972,5.015-9.942,7.521-14.915c0.296,0.355,0.592,0.711,0.887,1.067
			c1.466-0.524,3.125-0.792,4.31-1.688c0.543-0.411,0.154-2.056,0.188-3.142c-2.116,0-4.231,0-6.921,0
			c-1.541-2.566-3.978-0.452-6.06,0.251c0.388,1.386,1.154,2.612,0.945,3.642c-0.739,3.639-1.917,7.187-2.698,10.818
			C259.523,360.881,259.971,362.213,260.098,363.474z M333.513,343.753c-2.101,0-3.6-0.212-4.98,0.102
			c-0.571,0.129-1.196,1.36-1.255,2.131c-0.122,1.65,0.412,3.383,0.127,4.982c-0.474,2.653-1.551,5.198-2.024,7.851
			c-0.198,1.112,0.301,3.289,0.827,3.404c1.274,0.278,3.108,0.038,4.037-0.771c0.784-0.683,0.729-2.452,0.835-3.758
			c0.109-1.357-0.282-2.786-0.015-4.095C331.717,350.403,332.623,347.258,333.513,343.753z M363.067,345.159
			c0.178,0.494,0.355,0.987,0.532,1.48c6.183,0,12.366,0.056,18.547-0.06c0.894-0.017,1.773-0.844,2.66-1.295
			c-0.913-0.596-1.811-1.677-2.74-1.706c-5.202-0.162-10.415-0.167-15.617,0.009C365.306,343.626,364.194,344.611,363.067,345.159z
			 M384.914,352.55c0.113-0.409,0.226-0.819,0.34-1.229c-1.032-0.557-2.055-1.576-3.096-1.594c-5.33-0.089-10.67-0.001-15.996,0.245
			c-0.783,0.036-1.513,1.251-2.267,1.921c0.238,0.22,0.477,0.438,0.715,0.657C371.378,352.55,378.146,352.55,384.914,352.55z
			 M56.383,321.881c-0.318,0.243-0.637,0.486-0.955,0.729c0,5.177-0.073,10.356,0.081,15.529c0.022,0.755,1.123,1.479,1.725,2.217
			c0.458-0.761,1.301-1.518,1.31-2.283c0.046-4.583-0.002-9.174-0.269-13.747C58.226,323.477,57.043,322.693,56.383,321.881z
			 M54.286,175.249c0,4.945,0,9.675,0,15.422c4.482-3.033,1.917-6.987,2.341-9.957C56.821,179.355,58.938,175.514,54.286,175.249z
			 M558.031,335.794c0.817,0,1.782,0,2.712,0c0-4.58,0-8.891,0-13.2c-0.346-0.194-0.691-0.389-1.038-0.583
			c-0.557,0.807-1.558,1.594-1.598,2.425C557.932,328.111,558.031,331.8,558.031,335.794z M560.23,276.045c-0.859,0-1.78,0-2.745,0
			c0,4.549,0,8.878,0,13.387c1.262,0,2.164,0,2.745,0C560.23,284.976,560.23,280.775,560.23,276.045z M335.896,338.197
			c-1.683-1.075-2.645-2.174-3.424-2.057c-0.843,0.126-1.516,1.387-2.264,2.153c0.821,0.744,1.563,1.925,2.488,2.09
			C333.395,340.509,334.324,339.334,335.896,338.197z M560.696,308.944c-0.141-2.265-0.252-4.051-0.396-6.357
			c-0.955,0.317-2.45,0.495-2.51,0.889c-0.262,1.75-0.113,3.563-0.113,5.469C558.82,308.944,559.629,308.944,560.696,308.944z
			 M557.913,316.572c3.132-0.228,3.23-0.292,2.567-4.897c-0.083-0.58-1.42-0.979-2.567-1.713
			C557.913,312.688,557.913,314.482,557.913,316.572z M238.841,338.968c-0.201-0.486-0.402-0.973-0.604-1.459
			c-1.573,0-3.147,0-4.72,0c-0.17,0.366-0.341,0.732-0.511,1.099c0.865,0.709,1.727,1.979,2.597,1.985
			C236.679,340.601,237.761,339.558,238.841,338.968z"/>
		<path fill-rule="evenodd" clip-rule="evenodd" d="M53.208,168.596c1.69-0.475,2.558-0.718,3.768-1.058
			c-0.098-1.877,0.202-3.963-0.372-5.772c-2.454-7.735-0.326-15.341,0.889-22.803c1.415-8.684,4.866-16.915,9.889-24.219
			c4.128-6.003,8.704-11.718,13.341-17.346c3.68-4.466,7.444-8.951,11.729-12.808c5.652-5.089,11.514-10.097,17.894-14.19
			c8.708-5.588,17.902-10.449,27.057-15.302c6.189-3.281,12.586-6.212,19.053-8.911c3.758-1.568,7.85-2.324,11.767-3.528
			c2.273-0.698,4.48-1.611,6.745-2.338c5.37-1.725,10.74-3.453,16.144-5.067c3.56-1.064,7.16-2.011,10.776-2.868
			c4.77-1.13,9.571-2.125,14.36-3.171c5.62-1.229,11.243-2.443,16.859-3.685c0.599-0.133,1.151-0.539,1.748-0.598
			c5.87-0.587,11.747-1.094,17.616-1.687c9.1-0.919,18.175-2.212,27.297-2.741c8.598-0.497,17.24-0.25,25.863-0.257
			c9.872-0.008,19.761-0.271,29.612,0.205c8.235,0.398,16.428,1.706,24.641,2.603c0.868,0.095,1.741,0.164,2.615,0.19
			c9.118,0.27,18.069,1.374,26.827,4.194c3.579,1.153,7.526,1.113,11.264,1.835c5.022,0.97,10.03,2.047,14.996,3.273
			c5.174,1.276,10.343,2.622,15.416,4.243c3.622,1.158,7.476,1.159,10.898,3.648c2.791,2.029,6.73,2.45,10.125,3.684
			c4.041,1.469,8.13,2.85,12.044,4.613c7.442,3.353,14.929,6.663,22.11,10.523c7.892,4.242,15.678,8.76,23.097,13.771
			c5.311,3.588,10.112,8,14.812,12.399c3.052,2.857,5.456,6.396,8.261,9.532c1,1.118,2.325,1.946,3.711,3.078
			c2.961,4.56,6.352,9.337,9.285,14.381c10.624,18.268,14.275,37.545,8.536,58.313c-2.938,10.627-7.513,20.467-14.002,29.197
			c-8.902,11.976-19.459,22.459-32.07,30.64c-6.726,4.364-13.423,8.824-20.459,12.638c-5.886,3.19-12.302,5.385-18.38,8.239
			c-5.673,2.664-11.124,5.812-16.843,8.367c-3.422,1.529-7.208,2.219-10.761,3.486c-5.555,1.982-11.021,4.219-16.586,6.175
			c-2.418,0.852-4.968,1.371-7.49,1.878c-10.617,2.129-21.212,4.402-31.883,6.229c-10.445,1.789-20.671,4.898-31.462,4.754
			c-5.922-0.08-11.851,1.062-17.789,1.269c-15.907,0.555-31.82,1.194-47.732,1.229c-10.34,0.022-20.719-0.584-31.011-1.602
			c-8.316-0.821-16.521-2.732-24.793-4.055c-4.151-0.664-8.369-0.93-12.502-1.675c-5.074-0.914-10.104-2.083-15.126-3.254
			c-3.211-0.749-6.333-1.952-9.571-2.509c-6.985-1.201-13.478-3.69-19.966-6.448c-4.806-2.044-9.99-3.182-14.965-4.845
			c-4.336-1.449-8.703-2.864-12.901-4.659c-6.714-2.869-13.481-5.704-19.892-9.171c-7.719-4.175-15.424-8.534-22.512-13.673
			C98.714,228.255,93.387,222.01,87,217.189c-8.239-6.218-13.274-14.985-19.205-22.952c-3.608-4.848-5.333-11.122-7.75-16.82
			c-0.893-2.107-1.028-4.579-2.131-6.534C57.339,169.863,55.412,169.605,53.208,168.596z M552.58,148.764
			c-1.727-0.132-2.451-0.236-3.176-0.236c-18.486,0.025-36.975-0.066-55.459,0.134c-16.088,0.174-32.172,0.816-48.26,0.981
			c-7.144,0.073-14.292-0.71-21.439-0.744c-5.074-0.024-10.147,0.771-15.226,0.83c-22.609,0.262-45.219,0.392-67.829,0.568
			c-4.396,0.034-8.793,0.078-13.189,0.095c-5.801,0.024-11.612,0.243-17.398-0.043c-3.364-0.167-5.228,0.935-5.202,4.261
			c0.056,7.6,0.105,15.201,0.257,22.8c0.32,16.083,0.826,32.163,1.028,48.248c0.219,17.366,0.192,34.737,0.224,52.106
			c0.003,1.768,0.016,3.428,2.316,3.362c7.816-0.227,15.647-0.315,23.439-0.903c7.911-0.598,15.788-1.679,23.67-2.632
			c7.994-0.968,15.982-1.991,23.958-3.1c1.938-0.269,3.789-1.131,5.725-1.434c4.289-0.669,8.621-1.059,12.903-1.755
			c2.403-0.391,4.787-1.035,7.104-1.796c4.47-1.469,8.824-3.317,13.34-4.61c5.083-1.455,10.525-1.877,15.399-3.794
			c13.981-5.498,28.476-9.785,41.65-17.259c8.454-4.796,17.307-8.95,25.45-14.21c7.005-4.525,13.702-9.752,19.721-15.518
			c5.621-5.386,10.236-11.837,15.178-17.914c7.338-9.027,11.568-19.56,13.937-30.795
			C551.833,160.032,551.972,154.446,552.58,148.764z M59.571,152.836c0.636,3.742,1.363,6.818,1.648,9.934
			c0.895,9.771,4.042,18.591,9.251,26.998c5.345,8.627,11.256,16.69,18.375,23.874c6.391,6.448,13.767,11.659,21.075,17.022
			c8.766,6.434,18.451,11.107,27.988,16.042c6.719,3.478,13.983,5.905,21.024,8.75c4.058,1.64,8.091,3.388,12.252,4.718
			c7.987,2.554,16.04,4.908,24.102,7.213c3.712,1.062,7.49,1.933,11.28,2.673c6.063,1.184,12.17,2.138,18.241,3.279
			c6.772,1.272,13.476,3.067,20.298,3.872c8.782,1.035,17.654,1.286,26.484,1.932c1.974,0.144,3.923,0.609,5.897,0.781
			c7.064,0.615,14.126,1.472,21.204,1.639c4.839,0.115,5.063-0.591,4.955-5.647c-0.47-22.083-1.054-44.164-1.36-66.249
			c-0.236-17.101-0.106-34.208-0.17-51.311c-0.026-7.228-0.061-7.196-7.359-7.122c-8.496,0.087-16.992,0.105-25.488,0.164
			c-49.561,0.34-99.123,0.678-148.684,1.028c-17.235,0.122-34.47,0.276-51.705,0.407C66.051,152.854,63.219,152.836,59.571,152.836z
			 M551.495,145.512c0.413-6.004-3.137-18.978-7.198-25.643c-3.188-5.231-6.499-10.431-10.239-15.27
			c-4.87-6.3-9.597-12.941-15.52-18.143c-7.542-6.624-15.375-13.097-24.586-17.614c-5.711-2.8-10.862-6.747-16.584-9.522
			c-7.786-3.776-15.825-7.048-23.854-10.293c-4.685-1.895-9.547-3.355-14.354-4.936c-3.813-1.253-7.642-2.466-11.501-3.568
			c-6.242-1.783-12.476-3.627-18.789-5.122c-3.908-0.925-7.989-1.094-11.938-1.88c-9.091-1.811-18.072-4.487-27.241-5.473
			c-6.885-0.742-13.675-2.139-20.499-2.729c-13.987-1.21-28.073-1.272-42.115-1.857c-2.44-0.102-3.246,0.767-3.14,3.291
			c0.464,11.049,0.929,22.104,1.025,33.162c0.244,27.861,0.331,55.724,0.351,83.586c0.002,2.886,0.951,3.735,3.674,3.562
			c3.334-0.213,6.686-0.131,10.03-0.171c32.435-0.385,64.867-0.891,97.303-1.12c32.621-0.23,65.244-0.192,97.866-0.255
			C526.543,145.492,538.898,145.512,551.495,145.512z M302.068,146.88c0-3.573,0.059-6.799-0.01-10.021
			c-0.371-17.212-0.918-34.423-1.127-51.637c-0.234-19.354-0.186-38.712-0.223-58.069c-0.005-2.646-0.989-3.95-3.811-3.675
			c-5.041,0.489-10.096,0.838-15.143,1.281c-5.144,0.452-10.291,0.884-15.425,1.437c-9.22,0.992-18.449,1.93-27.638,3.16
			c-5.864,0.785-11.682,1.964-17.485,3.139c-3.689,0.747-7.313,1.82-10.97,2.73c-6.057,1.507-12.144,2.901-18.167,4.53
			c-4.885,1.321-9.689,2.936-14.541,4.386c-4.149,1.239-8.327,2.061-12.278,4.267c-3.589,2.005-8.268,1.966-12.078,3.688
			c-7.307,3.302-14.354,7.185-21.477,10.889c-2.635,1.37-5.256,2.796-7.746,4.41c-4.115,2.664-8.128,5.488-12.169,8.267
			c-5.321,3.659-11.139,6.791-15.813,11.147c-5.938,5.536-11.293,11.803-16.25,18.255c-4.574,5.954-8.46,12.467-12.306,18.937
			c-1.769,2.976-3.003,6.357-3.974,9.702c-1.378,4.752-2.288,9.64-3.564,15.189C140.791,148.218,221.184,147.552,302.068,146.88z"/>
		<path fill-rule="evenodd" clip-rule="evenodd" d="M555.619,310.574c-4.841,1.707-9.682,3.41-14.521,5.124
			c-4.901,1.736-9.798,3.484-15.212,5.41c0.124-4.467,4.867-5.311,6.385-9.413c-149.142,1.156-298.051,2.311-447.95,3.473
			c2.742,2.984,4.97,5.41,7.198,7.836c-0.251,0.387-0.502,0.772-0.754,1.159c-2.799-0.767-5.613-1.483-8.394-2.313
			c-5.85-1.743-11.678-3.561-17.526-5.313c-0.946-0.283-2.058-0.18-2.887-0.633c-0.776-0.424-1.279-1.35-1.902-2.054
			c0.833-0.604,1.614-1.637,2.506-1.743c8.928-1.073,16.816-5.183,25.026-8.354c0.948-0.366,1.971-0.535,2.96-0.796
			c0.27,0.341,0.54,0.684,0.81,1.024c-2.147,2.409-4.294,4.818-6.966,7.817c1.646,0.097,2.889,0.248,4.129,0.23
			c15.464-0.213,30.927-0.504,46.393-0.67c25.448-0.273,50.898-0.546,76.348-0.68c35.106-0.185,70.213-0.222,105.32-0.358
			c10.83-0.043,21.659-0.215,32.489-0.311c44.43-0.394,88.859-0.831,133.291-1.144c15.241-0.106,30.486,0.126,45.729,0.132
			c1.114,0,2.229-0.596,3.344-0.914c-0.71-0.831-1.404-1.677-2.135-2.49c-0.664-0.74-1.419-1.404-2.038-2.178
			c-0.671-0.836-1.231-1.76-1.84-2.646c1.367-0.196,3.184-1.057,4.029-0.484C537.21,305.538,546.749,305.589,555.619,310.574z"/>
		<path fill-rule="evenodd" clip-rule="evenodd" d="M285.474,357.813c-0.089-5.007,4.81-12.6,9.616-13.874
			c2.516-0.667,5.381-0.001,8.089,0.038c1.687,0.024,3.387-0.123,5.058,0.039c1.425,0.138,3.598,0.162,4.083,1.012
			c1.666,2.918,2.821,1.691,4.347,0.074c0.569-0.604,1.577-1.414,2.152-1.26c1.149,0.31,2.139,1.219,3.194,1.881
			c-0.677,0.769-1.441,2.255-2.013,2.183c-2.85-0.355-4.72,1.437-5.015,3.433c-0.299,2.03,1.083,4.313,1.761,6.476
			c0.063,0.199,0.336,0.374,0.551,0.48c0.979,0.483,1.973,0.939,2.961,1.404c-1.429,0.989-2.754,2.286-4.336,2.822
			c-0.685,0.232-2.354-0.886-2.787-1.774c-1.097-2.253-1.9-2.134-3.405-0.373c-1.719,2.012-3.767,2.222-6.636,2.208
			c-3.959-0.019-8.231-2.408-12.284,0.935C288.762,365.205,285.544,361.683,285.474,357.813z M305.532,359.414
			c1.896,0.026,5.728-3.893,5.319-6.388c-0.37-2.255-2.139-4.281-3.29-6.408c-1.319,0.727-3.124,1.141-3.841,2.256
			c-1.016,1.577-1.2,3.681-1.791,5.543C300.772,358.067,301.692,359.361,305.532,359.414z M298.507,346.857
			c-4.301-0.545-8.874,4.888-8.341,10.027c0.092,0.879,0.502,2.254,1.071,2.435c0.922,0.293,2.3,0.1,3.131-0.438
			C297.705,356.729,299.59,350.954,298.507,346.857z"/>
		<path fill-rule="evenodd" clip-rule="evenodd" d="M55.722,320.864c-0.608-43.109-1.216-86.219-1.824-129.328
			c0.412-0.212,0.823-0.423,1.234-0.635c0.581,0.842,1.654,1.676,1.667,2.526c0.173,11.492,0.143,22.987,0.275,34.48
			c0.173,15.015,0.49,30.028,0.653,45.043c0.048,4.396-0.345,8.795-0.305,13.189c0.038,4.149,0.458,8.293,0.571,12.443
			c0.188,6.965,0.317,13.935,0.307,20.901c-0.001,0.656-1.172,1.311-1.801,1.966C56.24,321.255,55.981,321.06,55.722,320.864z"/>
		<path fill-rule="evenodd" clip-rule="evenodd" d="M188.861,347.729c-1.917,4.367-3.964,8.683-5.688,13.124
			c-0.736,1.895-1.313,3.907-3.636,2.948c-0.662-0.272-0.688-2.953-0.417-4.42c0.424-2.301,1.657-4.468,1.974-6.769
			c0.299-2.171-0.143-4.443-0.308-7.627c2.277,0.198,4.777,0.416,7.277,0.633c4.882-1.727,6.078-1.533,7.736,2.679
			c1.033-0.8,1.862-1.846,2.913-2.164c1.779-0.539,3.697-0.619,5.557-0.893c0.089,1.445,0.423,2.929,0.209,4.327
			c-0.296,1.938-1.3,3.793-1.438,5.723c-0.111,1.545,0.617,3.149,0.973,4.728c0.333,0.004,0.665,0.008,0.997,0.011
			c-0.341,0.322-0.631,0.75-1.034,0.947c-1.866,0.911-3.762,1.759-5.648,2.63c0.097-2.257-0.069-4.564,0.36-6.757
			c0.466-2.385,1.512-4.652,2.238-6.992c0.133-0.431-0.055-0.96-0.135-1.923c-3.293,0.801-4.372,3.57-5.68,5.752
			c-1.363,2.276-1.853,5.065-3.141,7.401c-0.636,1.151-2.21,1.785-3.359,2.653c-0.09-1.385-0.479-2.832-0.214-4.146
			c0.757-3.737,1.782-7.42,2.701-11.124C190.352,348.225,189.606,347.977,188.861,347.729z"/>
		<path fill-rule="evenodd" clip-rule="evenodd" d="M557.497,274.411c-0.466-36.586-0.932-73.171-1.398-109.756
			c0.405-0.132,0.812-0.263,1.218-0.395c0.646,1.495,1.817,2.979,1.85,4.488c0.163,7.448,0.063,14.904-0.021,22.356
			c-0.064,5.843-0.411,11.688-0.329,17.528c0.149,10.622,0.609,21.239,0.771,31.86c0.094,6.157-0.243,12.319-0.187,18.478
			c0.026,2.972,0.71,5.938,0.728,8.91c0.013,2.208-0.569,4.42-0.886,6.63C558.66,274.477,558.078,274.443,557.497,274.411z"/>
		<path fill-rule="evenodd" clip-rule="evenodd" d="M396.606,361.163c3.066-3.354,6.14-6.703,9.197-10.065
			c1.813-1.992,3.992-3.79,5.264-6.087c0.82-1.481,1.036-4.221,0.176-5.466c-0.965-1.396-3.239-2.69-5.529-0.994
			c-0.938,0.694-2.207,0.94-3.418,1.428c-1.577-4.119,2.211-4.936,4.047-6.099c1.495-0.946,4.618-0.822,6.204,0.153
			c5.192,3.198,5.5,8.326,1.194,12.927c-2.442,2.61-5.093,5.029-7.49,7.679c-0.748,0.824-0.979,2.119-1.794,4.007
			c3.462-1.189,5.842-2.006,8.218-2.826c1.197,3.975-0.331,6.424-4.097,6.464c-3.718,0.04-7.437,0.01-11.154,0.01
			C397.151,361.916,396.879,361.539,396.606,361.163z"/>
		<path fill-rule="evenodd" clip-rule="evenodd" d="M438.589,343.324c-1.108,3.647-2.146,6.572-2.837,9.575
			c-0.281,1.224,0.37,2.635,0.273,3.937c-0.111,1.489-0.132,3.418-1.031,4.288c-0.827,0.8-2.77,0.574-4.219,0.562
			c-1.077-0.009-2.161-0.627-3.223-0.575c-2.208,0.106-5.774,1.395-6.332,0.56c-1.359-2.033-2.099-5.148-1.644-7.554
			c0.529-2.79,2.185-5.674,4.14-7.787c1.477-1.596,4.113-2.485,6.377-2.892C432.785,342.954,435.631,343.324,438.589,343.324z
			 M432.233,345.448c-3.934-0.612-7.926,3.282-8.47,8.433c-0.112,1.063,0.451,3.135,0.756,3.146
			c1.461,0.048,3.471,0.046,4.314-0.852C431.598,353.237,433.511,349.774,432.233,345.448z"/>
		<path fill-rule="evenodd" clip-rule="evenodd" d="M227.579,344.924c-1.371,3.914-2.607,7.314-3.731,10.753
			c-0.26,0.797-0.526,2.055-0.121,2.529c2.908,3.408-0.125,4.261-2.456,5.715c-1.997-1.924-3.955-2.353-6.597-0.36
			c-2.342,1.767-5.526-0.026-6.318-2.957c-2.099-7.756,5.196-16.387,13.211-15.703C223.391,345.057,225.239,344.924,227.579,344.924
			z M221.965,350.112c-0.641-1.127-1.033-2.652-1.987-3.202c-0.649-0.374-2.6,0.297-3.079,1.06c-1.85,2.943-3.504,6.044-4.846,9.248
			c-0.308,0.735,0.747,2.275,1.532,3.108c0.272,0.289,1.669-0.348,2.478-0.723C220.002,357.777,220.444,353.839,221.965,350.112z"/>
		<path fill-rule="evenodd" clip-rule="evenodd" d="M240.088,356.881c-0.103-6.76,4.899-12.364,11.612-13.014
			c3.504-0.338,7.297,4.643,6.61,8.526c-1.074,6.074-4.737,9.894-10.281,12.153C244.909,365.819,240.154,361.23,240.088,356.881z
			 M255,350.312c-0.962-1.526-1.389-3.051-2.274-3.393c-1.088-0.42-3.362-0.297-3.728,0.362c-1.915,3.459-3.493,7.121-4.898,10.822
			c-0.211,0.555,1.029,2.336,1.734,2.422c1.457,0.176,3.789,0.108,4.371-0.774C252.137,356.822,253.451,353.486,255,350.312z"/>
		<path fill-rule="evenodd" clip-rule="evenodd" d="M335.731,356.163c0.562,0.798,1.006,1.727,1.712,2.362
			c0.935,0.843,2.073,1.458,3.124,2.171c0.58-1.045,1.783-2.216,1.604-3.108c-0.319-1.589-1.305-3.139-2.318-4.472
			c-1.785-2.349-3.684-4.595-1.471-7.604c1.361-1.849,8.248-3.285,9.588-1.584c0.983,1.247,0.391,3.734,0.5,5.669
			c-0.466,0.118-0.932,0.236-1.396,0.354c-0.657-0.914-1.171-2.006-2.017-2.685c-0.689-0.553-1.774-0.61-2.686-0.888
			c-0.231,0.299-0.464,0.597-0.695,0.894c1.246,2.014,2.337,4.147,3.777,6.01c1.979,2.559,2.065,5.537,0.054,7.388
			c-1.642,1.51-4.619,1.713-7.065,2.141c-1.253,0.218-2.641-0.341-4.307-0.602c0.14-1.966,0.271-3.846,0.403-5.726
			C334.938,356.377,335.334,356.27,335.731,356.163z"/>
		<path fill-rule="evenodd" clip-rule="evenodd" d="M230.437,345.075c2.164,0,4.104,0,6.128,0
			c-1.917,7.372-3.733,14.487-5.622,21.582c-0.962,3.611-4.717,6.46-8.134,6.077c-0.905-0.102-1.943-0.787-2.511-1.521
			c-0.413-0.535-0.425-2.173-0.142-2.306c0.897-0.421,2.208-0.779,3.015-0.412c2.147,0.977,2.899-0.218,3.37-1.813
			c1.709-5.793,3.425-11.588,4.894-17.445C231.711,348.129,230.867,346.739,230.437,345.075z"/>
		<path fill-rule="evenodd" clip-rule="evenodd" d="M260.098,363.474c-0.127-1.261-0.575-2.593-0.321-3.772
			c0.781-3.632,1.958-7.18,2.698-10.818c0.209-1.029-0.557-2.256-0.945-3.642c2.083-0.703,4.52-2.817,6.06-0.251
			c2.69,0,4.805,0,6.921,0c-0.034,1.086,0.355,2.73-0.188,3.142c-1.185,0.896-2.844,1.163-4.31,1.688
			c-0.295-0.356-0.591-0.712-0.887-1.067c-2.507,4.973-5.014,9.943-7.521,14.915C261.103,363.603,260.601,363.538,260.098,363.474z"
			/>
		<path fill-rule="evenodd" clip-rule="evenodd" d="M333.513,343.753c-0.89,3.505-1.796,6.65-2.448,9.846
			c-0.268,1.309,0.124,2.737,0.015,4.095c-0.106,1.306-0.051,3.075-0.835,3.758c-0.929,0.81-2.763,1.05-4.037,0.771
			c-0.526-0.115-1.025-2.292-0.827-3.404c0.474-2.652,1.551-5.197,2.024-7.851c0.285-1.6-0.249-3.332-0.127-4.982
			c0.059-0.771,0.684-2.002,1.255-2.131C329.913,343.541,331.412,343.753,333.513,343.753z"/>
		<path fill-rule="evenodd" clip-rule="evenodd" d="M363.067,345.159c1.127-0.548,2.238-1.533,3.382-1.571
			c5.202-0.176,10.415-0.171,15.617-0.009c0.93,0.029,1.827,1.11,2.74,1.706c-0.887,0.451-1.767,1.278-2.66,1.295
			c-6.181,0.115-12.364,0.06-18.547,0.06C363.423,346.146,363.245,345.653,363.067,345.159z"/>
		<path fill-rule="evenodd" clip-rule="evenodd" d="M384.914,352.55c-6.769,0-13.536,0-20.304,0
			c-0.238-0.219-0.477-0.438-0.715-0.657c0.754-0.67,1.483-1.885,2.267-1.921c5.326-0.246,10.666-0.334,15.996-0.245
			c1.041,0.018,2.063,1.037,3.096,1.594C385.14,351.73,385.027,352.141,384.914,352.55z"/>
		<path fill-rule="evenodd" clip-rule="evenodd" d="M56.383,321.881c0.66,0.813,1.842,1.596,1.891,2.445
			c0.266,4.573,0.314,9.164,0.269,13.747c-0.008,0.766-0.852,1.522-1.31,2.283c-0.602-0.737-1.702-1.462-1.725-2.217
			c-0.153-5.173-0.081-10.353-0.081-15.529C55.747,322.367,56.065,322.124,56.383,321.881z"/>
		<path fill-rule="evenodd" clip-rule="evenodd" d="M54.286,175.249c4.652,0.266,2.535,4.107,2.341,5.466
			c-0.424,2.97,2.141,6.924-2.341,9.957C54.286,184.923,54.286,180.193,54.286,175.249z"/>
		<path fill-rule="evenodd" clip-rule="evenodd" d="M558.031,335.794c0-3.994-0.1-7.683,0.076-11.358
			c0.04-0.831,1.041-1.618,1.598-2.425c0.347,0.194,0.692,0.389,1.038,0.583c0,4.31,0,8.62,0,13.2
			C559.813,335.794,558.849,335.794,558.031,335.794z"/>
		<path fill-rule="evenodd" clip-rule="evenodd" d="M560.23,276.045c0,4.73,0,8.931,0,13.387c-0.581,0-1.483,0-2.745,0
			c0-4.509,0-8.838,0-13.387C558.45,276.045,559.371,276.045,560.23,276.045z"/>
		<path fill-rule="evenodd" clip-rule="evenodd" d="M335.896,338.197c-1.572,1.137-2.502,2.312-3.199,2.187
			c-0.925-0.165-1.667-1.346-2.488-2.09c0.748-0.767,1.421-2.027,2.264-2.153C333.252,336.023,334.214,337.122,335.896,338.197z"/>
		<path fill-rule="evenodd" clip-rule="evenodd" d="M560.696,308.944c-1.067,0-1.876,0-3.019,0c0-1.905-0.148-3.719,0.113-5.469
			c0.06-0.394,1.555-0.571,2.51-0.889C560.444,304.894,560.556,306.68,560.696,308.944z"/>
		<path fill-rule="evenodd" clip-rule="evenodd" d="M557.913,316.572c0-2.09,0-3.884,0-6.61c1.147,0.733,2.484,1.133,2.567,1.713
			C561.144,316.28,561.045,316.345,557.913,316.572z"/>
		<path fill-rule="evenodd" clip-rule="evenodd" d="M238.841,338.968c-1.08,0.59-2.162,1.633-3.238,1.625
			c-0.87-0.006-1.732-1.276-2.597-1.985c0.17-0.366,0.341-0.732,0.511-1.099c1.573,0,3.147,0,4.72,0
			C238.439,337.995,238.64,338.481,238.841,338.968z"/>
		<path fill-rule="evenodd" clip-rule="evenodd" fill="#FFFFFF" d="M552.58,148.764c-0.608,5.683-0.747,11.268-1.88,16.645
			c-2.368,11.235-6.599,21.768-13.937,30.795c-4.941,6.077-9.557,12.528-15.178,17.914c-6.019,5.766-12.716,10.992-19.721,15.518
			c-8.144,5.26-16.996,9.414-25.45,14.21c-13.175,7.474-27.669,11.761-41.65,17.259c-4.874,1.917-10.316,2.339-15.399,3.794
			c-4.516,1.293-8.87,3.142-13.34,4.61c-2.316,0.761-4.7,1.405-7.104,1.796c-4.282,0.696-8.614,1.086-12.903,1.755
			c-1.936,0.303-3.787,1.165-5.725,1.434c-7.976,1.108-15.964,2.132-23.958,3.1c-7.882,0.953-15.759,2.034-23.67,2.632
			c-7.792,0.588-15.623,0.677-23.439,0.903c-2.301,0.065-2.313-1.595-2.316-3.362c-0.031-17.369-0.005-34.74-0.224-52.106
			c-0.202-16.085-0.708-32.165-1.028-48.248c-0.151-7.599-0.201-15.2-0.257-22.8c-0.025-3.326,1.838-4.428,5.202-4.261
			c5.786,0.287,11.598,0.067,17.398,0.043c4.396-0.018,8.793-0.061,13.189-0.095c22.61-0.177,45.22-0.306,67.829-0.568
			c5.078-0.059,10.151-0.854,15.226-0.83c7.147,0.034,14.296,0.817,21.439,0.744c16.088-0.166,32.172-0.807,48.26-0.981
			c18.484-0.201,36.973-0.109,55.459-0.134C550.129,148.527,550.854,148.632,552.58,148.764z M336.67,212.772
			c0.941-2.729,1.869-4.729,2.262-6.831c0.215-1.148-0.146-3.236-0.834-3.532c-1.095-0.471-2.902-0.149-3.979,0.522
			c-0.663,0.413-0.632,2.096-0.717,3.223c-0.053,0.688,0.543,1.481,0.374,2.098c-1.481,5.37-3.154,10.689-4.575,16.075
			c-0.451,1.712-1.012,4.745-0.319,5.158c2.185,1.304,5.145,2.65,7.433,2.178c6.412-1.327,10.369-6.943,10.436-13.376
			c0.037-3.561-2.136-5.852-5.721-5.923C339.93,212.342,338.824,212.561,336.67,212.772z"/>
		<path fill-rule="evenodd" clip-rule="evenodd" fill="#FFFFFF" d="M59.571,152.836c3.647,0,6.479,0.019,9.311-0.003
			c17.235-0.131,34.47-0.286,51.705-0.407c49.561-0.35,99.123-0.688,148.684-1.028c8.496-0.059,16.993-0.077,25.488-0.164
			c7.299-0.075,7.333-0.106,7.359,7.122c0.063,17.104-0.066,34.21,0.17,51.311c0.307,22.085,0.891,44.166,1.36,66.249
			c0.108,5.057-0.115,5.763-4.955,5.647c-7.078-0.167-14.14-1.023-21.204-1.639c-1.974-0.172-3.923-0.638-5.897-0.781
			c-8.83-0.646-17.702-0.896-26.484-1.932c-6.823-0.805-13.526-2.6-20.298-3.872c-6.071-1.142-12.178-2.096-18.241-3.279
			c-3.791-0.74-7.568-1.611-11.28-2.673c-8.063-2.305-16.115-4.659-24.102-7.213c-4.162-1.33-8.194-3.078-12.252-4.718
			c-7.042-2.845-14.306-5.272-21.024-8.75c-9.537-4.935-19.223-9.608-27.988-16.042c-7.308-5.363-14.684-10.574-21.075-17.022
			c-7.119-7.184-13.03-15.247-18.375-23.874c-5.209-8.407-8.357-17.228-9.251-26.998C60.935,159.654,60.207,156.578,59.571,152.836z
			"/>
		<path fill-rule="evenodd" clip-rule="evenodd" fill="#FFFFFF" d="M551.495,145.512c-12.597,0-24.952-0.02-37.309,0.004
			c-32.622,0.063-65.245,0.025-97.866,0.255c-32.436,0.229-64.868,0.734-97.303,1.12c-3.345,0.04-6.696-0.042-10.03,0.171
			c-2.723,0.174-3.672-0.675-3.674-3.562c-0.02-27.862-0.106-55.725-0.351-83.586c-0.097-11.057-0.562-22.113-1.025-33.162
			c-0.106-2.524,0.699-3.393,3.14-3.291c14.042,0.585,28.128,0.647,42.115,1.857c6.824,0.59,13.614,1.987,20.499,2.729
			c9.169,0.986,18.15,3.663,27.241,5.473c3.948,0.786,8.029,0.955,11.938,1.88c6.313,1.494,12.547,3.339,18.789,5.122
			c3.859,1.103,7.688,2.315,11.501,3.568c4.808,1.581,9.67,3.041,14.354,4.936c8.028,3.245,16.067,6.517,23.854,10.293
			c5.722,2.775,10.873,6.722,16.584,9.522c9.211,4.518,17.044,10.991,24.586,17.614c5.923,5.202,10.649,11.842,15.52,18.143
			c3.74,4.839,7.052,10.039,10.239,15.27C548.358,126.534,551.908,139.508,551.495,145.512z M327.156,74.019
			c-0.354,3.764-0.255,6.448-0.911,8.933c-1.353,5.116-3.121,10.122-4.691,15.18c-0.999,3.219,0.149,4.928,3.289,5.422
			c8.37,1.317,10.349-1.288,14.927-7.79c2.604-3.698,0.541-10.531-3.334-11.97c-1.561-0.579-3.45-0.27-5.509-0.384
			c0.593-2.535,1.073-4.938,1.728-7.292c0.73-2.631-0.49-3.554-2.825-3.186C328.553,73.132,327.369,73.927,327.156,74.019z
			 M439.211,112.505c-3.59,0-6.458-0.24-9.258,0.096c-1.535,0.184-3.228,1.054-4.358,2.129c-1.477,1.402-2.937,3.16-3.558,5.044
			c-0.956,2.901-1.754,6.071-1.575,9.065c0.176,2.952,3.743,4.368,6.241,2.713c1.9-1.258,3.117-1.706,5.159-0.098
			c0.776,0.611,3.127-0.373,4.505-1.109c0.651-0.35,1.26-2.121,0.932-2.744c-1.832-3.47,0.145-6.383,0.965-9.497
			C438.696,116.468,438.842,114.753,439.211,112.505z"/>
		<path fill-rule="evenodd" clip-rule="evenodd" fill="#FFFFFF" d="M302.068,146.88c-80.885,0.672-161.277,1.338-242.193,2.01
			c1.276-5.549,2.186-10.437,3.564-15.189c0.97-3.344,2.205-6.726,3.974-9.702c3.846-6.47,7.731-12.982,12.306-18.937
			c4.956-6.452,10.311-12.72,16.25-18.255c4.674-4.357,10.492-7.488,15.813-11.147c4.041-2.779,8.054-5.603,12.169-8.267
			c2.49-1.613,5.111-3.04,7.746-4.41c7.123-3.704,14.17-7.586,21.477-10.889c3.81-1.722,8.489-1.683,12.078-3.688
			c3.951-2.207,8.129-3.028,12.278-4.267c4.852-1.45,9.656-3.065,14.541-4.386c6.024-1.629,12.111-3.023,18.167-4.53
			c3.658-0.91,7.281-1.983,10.97-2.73c5.804-1.175,11.622-2.354,17.485-3.139c9.189-1.229,18.418-2.167,27.638-3.16
			c5.134-0.553,10.281-0.985,15.425-1.437c5.046-0.443,10.102-0.792,15.143-1.281c2.821-0.275,3.806,1.028,3.811,3.675
			c0.037,19.357-0.012,38.715,0.223,58.069c0.208,17.214,0.756,34.425,1.127,51.637C302.127,140.081,302.068,143.307,302.068,146.88
			z M181.833,114.015c-3.084,0-5.419-0.072-7.747,0.034c-1.023,0.046-2.158,0.233-3.021,0.736c-3.928,2.289-6.317,5.97-8.07,9.975
			c-1.129,2.578-1.669,5.533,1.039,7.679c2.243,1.776,4.585,1.629,7.026,0.029c0.624-0.409,1.896,0.241,2.877,0.297
			c1.558,0.088,3.499,0.657,4.567-0.051c0.934-0.619,1.032-2.697,1.231-4.167c0.183-1.35-0.192-2.781,0.029-4.118
			C180.312,121.108,181.061,117.821,181.833,114.015z"/>
		<path fill-rule="evenodd" clip-rule="evenodd" fill="#FFFFFF" d="M305.532,359.414c-3.84-0.053-4.76-1.347-3.602-4.997
			c0.59-1.862,0.775-3.966,1.791-5.543c0.717-1.115,2.521-1.529,3.841-2.256c1.151,2.127,2.92,4.153,3.29,6.408
			C311.26,355.521,307.429,359.44,305.532,359.414z"/>
		<path fill-rule="evenodd" clip-rule="evenodd" fill="#FFFFFF" d="M298.507,346.857c1.083,4.097-0.802,9.871-4.138,12.024
			c-0.832,0.537-2.209,0.73-3.131,0.438c-0.569-0.181-0.979-1.556-1.071-2.435C289.633,351.745,294.206,346.313,298.507,346.857z"/>
		<path fill-rule="evenodd" clip-rule="evenodd" fill="#FFFFFF" d="M432.233,345.448c1.277,4.326-0.636,7.789-3.399,10.727
			c-0.844,0.897-2.854,0.899-4.314,0.852c-0.305-0.011-0.868-2.083-0.756-3.146C424.308,348.73,428.3,344.836,432.233,345.448z"/>
		<path fill-rule="evenodd" clip-rule="evenodd" fill="#FFFFFF" d="M221.965,350.112c-1.521,3.727-1.963,7.665-5.902,9.491
			c-0.809,0.375-2.206,1.012-2.478,0.723c-0.785-0.833-1.84-2.373-1.532-3.108c1.341-3.204,2.996-6.305,4.846-9.248
			c0.479-0.763,2.43-1.434,3.079-1.06C220.932,347.46,221.324,348.985,221.965,350.112z"/>
		<path fill-rule="evenodd" clip-rule="evenodd" fill="#FFFFFF" d="M255,350.312c-1.549,3.175-2.863,6.511-4.794,9.439
			c-0.583,0.883-2.915,0.95-4.371,0.774c-0.705-0.086-1.945-1.867-1.734-2.422c1.406-3.701,2.983-7.363,4.898-10.822
			c0.365-0.659,2.639-0.782,3.728-0.362C253.611,347.261,254.039,348.785,255,350.312z"/>
		<path fill-rule="evenodd" clip-rule="evenodd" d="M336.67,212.772c2.154-0.212,3.26-0.431,4.358-0.408
			c3.585,0.071,5.758,2.362,5.721,5.923c-0.066,6.433-4.023,12.049-10.436,13.376c-2.288,0.473-5.248-0.874-7.433-2.178
			c-0.692-0.413-0.132-3.446,0.319-5.158c1.421-5.386,3.094-10.705,4.575-16.075c0.169-0.616-0.427-1.409-0.374-2.098
			c0.085-1.127,0.054-2.81,0.717-3.223c1.077-0.672,2.885-0.993,3.979-0.522c0.688,0.296,1.049,2.384,0.834,3.532
			C338.539,208.043,337.611,210.044,336.67,212.772z M332.287,228.272c6.593,0.979,9.949-2.065,9.777-8.313
			c-0.039-1.442-1.144-3.699-2.231-4.033c-1.1-0.338-3.533,0.899-4.076,2.06C334.251,221.198,333.426,224.729,332.287,228.272z"/>
		<path fill-rule="evenodd" clip-rule="evenodd" d="M327.156,74.019c0.213-0.091,1.396-0.886,2.673-1.086
			c2.335-0.368,3.556,0.555,2.825,3.186c-0.654,2.354-1.135,4.757-1.728,7.292c2.059,0.114,3.948-0.195,5.509,0.384
			c3.875,1.439,5.938,8.272,3.334,11.97c-4.578,6.502-6.557,9.107-14.927,7.79c-3.14-0.495-4.288-2.204-3.289-5.422
			c1.57-5.059,3.339-10.064,4.691-15.18C326.901,80.467,326.803,77.782,327.156,74.019z M325.803,99.644
			c5.919,2.176,9.961-1.143,10.293-7.627c0.07-1.401-0.493-3.567-1.459-4.083c-0.968-0.518-3.6,0.142-4.114,1.062
			C328.641,92.358,327.338,96.045,325.803,99.644z"/>
		<path fill-rule="evenodd" clip-rule="evenodd" d="M439.211,112.505c-0.369,2.249-0.515,3.963-0.947,5.601
			c-0.82,3.114-2.797,6.027-0.965,9.497c0.328,0.623-0.28,2.394-0.932,2.744c-1.378,0.736-3.729,1.72-4.505,1.109
			c-2.042-1.608-3.259-1.16-5.159,0.098c-2.498,1.654-6.065,0.239-6.241-2.713c-0.179-2.994,0.619-6.165,1.575-9.065
			c0.621-1.884,2.081-3.642,3.558-5.044c1.131-1.076,2.823-1.945,4.358-2.129C432.753,112.265,435.621,112.505,439.211,112.505z
			 M433.121,117.797c-0.254-0.431-0.597-1.603-1.371-2.094c-0.414-0.262-1.579,0.637-2.395,1.035
			c-3.233,1.576-4.255,4.522-4.658,7.77c-0.108,0.868-0.072,2.217,0.441,2.582c0.632,0.45,1.983,0.417,2.762,0.044
			C431.5,125.417,432.719,122.163,433.121,117.797z"/>
		<path fill-rule="evenodd" clip-rule="evenodd" d="M181.833,114.015c-0.771,3.807-1.521,7.094-2.07,10.414
			c-0.221,1.337,0.154,2.768-0.029,4.118c-0.199,1.47-0.297,3.548-1.231,4.167c-1.068,0.708-3.009,0.139-4.567,0.051
			c-0.981-0.056-2.254-0.706-2.877-0.297c-2.441,1.6-4.783,1.747-7.026-0.029c-2.708-2.146-2.167-5.101-1.039-7.679
			c1.753-4.005,4.143-7.687,8.07-9.975c0.863-0.503,1.999-0.69,3.021-0.736C176.413,113.943,178.748,114.015,181.833,114.015z
			 M176.356,121.907c-1.029-2.406-0.183-5.234-3.574-4.409c-2.514,0.612-6.334,7.335-6.013,10.023
			c0.231,1.936,1.689,3.968,3.296,2.577C172.615,127.892,174.303,124.689,176.356,121.907z"/>
		<path fill-rule="evenodd" clip-rule="evenodd" fill="#FFFFFF" d="M332.287,228.272c1.139-3.543,1.964-7.074,3.47-10.287
			c0.543-1.16,2.977-2.397,4.076-2.06c1.088,0.334,2.192,2.591,2.231,4.033C342.236,226.207,338.88,229.251,332.287,228.272z"/>
		<path fill-rule="evenodd" clip-rule="evenodd" fill="#FFFFFF" d="M325.803,99.644c1.535-3.599,2.838-7.286,4.72-10.648
			c0.515-0.92,3.146-1.58,4.114-1.062c0.966,0.516,1.529,2.682,1.459,4.083C335.764,98.501,331.722,101.819,325.803,99.644z"/>
		<path fill-rule="evenodd" clip-rule="evenodd" fill="#FFFFFF" d="M433.121,117.797c-0.402,4.366-1.621,7.62-5.221,9.338
			c-0.778,0.372-2.13,0.405-2.762-0.044c-0.514-0.365-0.55-1.714-0.441-2.582c0.403-3.248,1.425-6.194,4.658-7.77
			c0.815-0.398,1.98-1.297,2.395-1.035C432.524,116.194,432.867,117.367,433.121,117.797z"/>
		<path fill-rule="evenodd" clip-rule="evenodd" fill="#FFFFFF" d="M176.356,121.907c-2.053,2.782-3.741,5.984-6.291,8.191
			c-1.607,1.391-3.065-0.641-3.296-2.577c-0.321-2.688,3.5-9.411,6.013-10.023C176.173,116.673,175.327,119.501,176.356,121.907z"/>
	</g>
</g>
</svg>
