<?xml version="1.0" encoding="utf-8"?>
<!-- Generator: Adobe Illustrator 16.0.0, SVG Export Plug-In . SVG Version: 6.00 Build 0)  -->
<!DOCTYPE svg PUBLIC "-//W3C//DTD SVG 1.1//EN" "http://www.w3.org/Graphics/SVG/1.1/DTD/svg11.dtd">
<svg version="1.1" id="Layer_1" xmlns="http://www.w3.org/2000/svg" xmlns:xlink="http://www.w3.org/1999/xlink" x="0px" y="0px"
	 width="821.364px" height="488.318px" viewBox="0 0 821.364 488.318" enable-background="new 0 0 821.364 488.318"
	 xml:space="preserve">
<g>
	<g>
		<path fill-rule="evenodd" clip-rule="evenodd" fill="#FFFFFF" d="M0.75,489.068c0-162.772,0-325.545,0-488.318
			c273.788,0,547.576,0,821.364,0c0,162.773,0,325.546,0,488.318C548.326,489.068,274.538,489.068,0.75,489.068z M232.622,462.935
			c85.874,0,171.695,0,257.517,0c0.127,0.447,0.253,0.895,0.379,1.342c-2.014,1.437-4.026,2.873-6.04,4.31
			c0.31,0.421,0.62,0.841,0.929,1.26c6.817-1.983,13.633-3.966,21.11-6.143c0,7.386,0,14.112,0,20.84
			c0.402,0.057,0.806,0.112,1.208,0.169c0.296-1.123,0.843-2.244,0.853-3.369c0.106-12.362,0.135-24.725,0.175-37.087
			c0.023-7.493,0.05-14.985,0.036-22.479c-0.015-7.617-0.1-15.234-0.112-22.852c-0.012-7.493,0.32-15.001-0.037-22.477
			c-0.349-7.313,0.853-14.556,0.218-21.901c-0.587-6.804-0.12-13.701-0.039-20.558c0.02-1.604,0.036-3.344,0.66-4.753
			c0.407-0.919,1.909-1.925,2.918-1.922c20.838,0.065,41.676,0.307,62.514,0.44c31.854,0.206,63.709,0.369,95.563,0.53
			c30.736,0.154,61.475,0.288,92.211,0.418c7.038,0.029,14.076,0.004,22.206,0.004c-2.278,2.972-3.896,5.08-5.874,7.66
			c7.404-2.473,13.795-4.607,20.533-6.857c0.076,1.675,0.152,2.533,0.149,3.391c-0.032,8.619-0.141,17.238-0.026,25.854
			c0.014,0.961,1.287,1.904,1.977,2.855c0.575-0.931,1.192-1.841,1.704-2.806c0.154-0.293,0.02-0.737,0.02-1.112
			c0.085-61.095,0.137-122.189,0.273-183.284c0.051-22.362,0.371-44.723,0.45-67.084c0.091-25.625,0.063-51.25,0.038-76.875
			c-0.002-1.4-0.457-2.8-0.7-4.2c-0.447,0.02-0.896,0.041-1.343,0.06c-0.295,1.369-0.774,2.729-0.843,4.109
			c-0.118,2.367,0.051,4.746,0.046,7.119c-0.06,33.368-0.136,66.736-0.189,100.104c-0.033,20.375-0.098,40.749,0.01,61.123
			c0.018,3.153-0.97,4.234-4.065,3.957c-2.852-0.254-5.739-0.153-8.61-0.157c-21.497-0.025-42.995-0.065-64.493-0.016
			c-2.541,0.007-3.821-0.465-3.877-3.444c-0.129-6.883-2.023-13.385-4.286-19.918c-4.451-12.847-13.16-22.608-22.208-32.111
			c-4.53-4.758-9.646-9.047-14.916-12.988c-4.714-3.525-9.924-6.418-15.054-9.346c-7.854-4.482-15.552-9.397-23.82-12.954
			c-10.241-4.404-20.854-8.112-31.571-11.2c-11.985-3.454-24.204-6.197-36.444-8.63c-7.922-1.575-16.05-2.188-24.111-2.963
			c-11.157-1.073-22.329-2.066-33.517-2.707c-3.105-0.178-4.096-0.864-4.038-4.009c0.295-16.188,0.423-32.38,0.538-48.57
			c0.021-3.099-0.28-6.199-0.432-9.299c-0.519-0.03-1.037-0.059-1.556-0.089c-0.252,1.584-0.715,3.167-0.724,4.752
			c-0.079,16.116-0.082,32.233-0.11,48.351c-0.004,2.606,0.942,6.004-0.339,7.579c-1.119,1.373-4.763,0.688-7.29,0.914
			c-0.124,0.011-0.248,0.029-0.372,0.04c-12.895,1.106-25.816,1.962-38.673,3.403c-8.72,0.977-17.342,2.808-26.018,4.187
			c-2.475,0.393-4.996,1.559-7.362-0.854c-0.509-0.519-2.679,0.231-3.866,0.829c-1.598,0.805-2.845,2.493-4.488,2.991
			c-5.533,1.678-11.282,2.683-16.754,4.521c-9.561,3.209-19.214,6.321-28.389,10.451c-9.128,4.109-17.975,9.005-26.459,14.33
			c-7.462,4.683-14.658,9.983-21.229,15.842c-6.771,6.038-12.486,13.142-17.64,20.76c-6.816,10.076-10.951,20.881-11.99,32.944
			c-0.114,1.329-0.438,2.64-0.641,3.823c-0.538,0.163-0.775,0.3-1.011,0.298c-25.098-0.213-50.195-0.463-75.294-0.622
			c-2.859-0.019-3.162-1.508-3.145-3.803c0.109-14.247,0.145-28.494,0.187-42.741c0.085-29.091,0.14-58.182,0.247-87.273
			c0.048-12.747,0.217-25.494,0.257-38.241c0.004-1.399-0.482-2.8-0.741-4.199c-0.527,0.019-1.053,0.038-1.579,0.057
			c-0.268,1.589-0.753,3.178-0.765,4.769c-0.053,7.375,0.064,14.75,0.051,22.125c-0.051,27.238-0.08,54.477-0.214,81.715
			c-0.087,17.857-0.344,35.715-0.52,53.572c-0.038,3.848,0.081,7.706-0.202,11.534c-0.056,0.767-1.599,2.014-2.478,2.033
			c-4.74,0.103-9.486-0.179-14.23-0.17c-1.208,0.001-2.415,0.574-3.622,0.885c0.058,0.434,0.116,0.867,0.173,1.301
			c1.175,0.159,2.349,0.453,3.524,0.453c4.369,0,8.756,0.131,13.099-0.238c3.054-0.259,3.745,1.138,3.678,3.639
			c-0.201,7.47-0.568,14.939-0.593,22.409c-0.084,25.998-0.052,51.995-0.063,77.991c-0.002,5.798,0,11.595,0,18.454
			c-7.354-2.019-13.759-3.775-20.164-5.533c-0.142,0.229-0.284,0.459-0.426,0.688c1.133,1.455,2.267,2.909,3.532,4.533
			c-0.641,0.229-0.953,0.434-1.27,0.439c-11.114,0.206-22.235,0.742-33.34,0.505c-18.314-0.391-36.615-1.323-54.925-1.946
			c-11.46-0.39-22.208-3.158-31.726-9.675c-4.442-3.04-7.96-7.527-9.007-12.603c-1.188-5.76-0.554-11.901-0.651-17.877
			c-0.062-3.782-0.011-7.566-0.011-11.348c-1.195,0.561-1.946,1.383-1.996,2.246c-0.394,6.727-0.829,13.46-0.905,20.195
			c-0.087,7.64,3.155,14.303,8.282,19.523c6.583,6.703,15.545,9.44,24.532,10.911c9.766,1.599,19.705,2.78,29.583,2.91
			c21.478,0.281,42.965-0.223,64.448-0.398c2.775-0.023,5.55-0.003,8.958-0.003c-1.923,2.27-3.484,4.112-5.046,5.956
			c0.164,0.249,0.328,0.499,0.492,0.749c6.306-2.342,12.612-4.683,19.6-7.277c0,1.976,0.005,3.176-0.001,4.377
			c-0.042,8.372-0.133,16.745-0.091,25.118c0.008,1.703,0.512,3.403,0.788,5.106c0.485-0.044,0.971-0.087,1.456-0.13
			c0.269-1.793,0.775-3.586,0.768-5.377c-0.035-8.309-0.222-16.615-0.331-24.922c-0.035-2.66,1.039-4.211,3.989-4.116
			c5.282,0.172,10.568,0.266,15.853,0.307c16.217,0.127,32.435,0.219,48.653,0.312c4.197,0.024,8.396,0.004,13.073,0.004
			c0,11.552,0,22.515,0,33.478c0.347,0.023,0.692,0.047,1.038,0.07c0.162-0.738,0.462-1.475,0.464-2.213
			c0.02-7.767,0.02-15.533-0.031-23.299c-0.05-7.691-0.078-7.675,7.61-7.645c1.368,0.006,2.737-0.287,4.106-0.279
			c17.607,0.112,35.215,0.213,52.822,0.452c1.681,0.022,3.351,0.953,4.968,1.444c1.497-0.438,3.234-1.281,5.02-1.4
			c3.358-0.224,6.745-0.02,10.121-0.012c39.814,0.088,79.628,0.186,119.442,0.231c2.802,0.004,4.203,0.854,3.86,3.929
			c-0.248,2.222-0.086,4.49-0.088,6.737c-0.006,6.319-0.002,12.639-0.002,19.28c-6.111-1.87-11.56-3.538-17.007-5.206
			c-0.181,0.419-0.362,0.839-0.543,1.258c1.339,1.233,2.676,2.466,4.24,3.907c-35.779,0-70.903,0-106.027,0
			c-0.321-0.488-0.643-0.977-0.964-1.465c2.002-1.214,4.005-2.428,6.008-3.643c-1.173-0.973-1.568-1.224-1.861-1.136
			c-5.004,1.505-10.054,2.89-14.968,4.651c-2.827,1.013-5.42,3.049-8.639-1.024c0.307,2.546,0.467,3.879,0.656,5.439
			c8.366-2.367,14.832,5.068,23.341,4.563c-1.426-1.743-2.582-3.155-3.729-4.558c35.739,0,71.171,0,106.606,0
			c0.231,0.479,0.465,0.96,0.697,1.439c-1.625,1.454-3.251,2.907-4.876,4.361c0.016,0.223,0.03,0.446,0.046,0.669
			c5.502-1.778,11.004-3.556,16.658-5.382c0,13.293,0,25.856,0,39.084c-6.799-2.241-13.153-4.337-19.508-6.433
			c-0.153,0.339-0.308,0.678-0.461,1.016c1.037,1.436,2.074,2.87,3.082,4.266c-57.937,0-115.443,0-172.949,0
			c-0.18-0.374-0.358-0.748-0.538-1.122c1.601-1.673,3.2-3.347,4.801-5.021c-0.195-0.296-0.391-0.592-0.587-0.887
			c-6.697,2.206-13.395,4.413-21.119,6.957c-0.187-6.126-0.371-12.156-0.555-18.187c-0.328,0.045-0.657,0.09-0.985,0.135
			c0,7.813,0,15.625,0,23.438c0.292,0.017,0.585,0.034,0.877,0.052c0.261-1.073,0.522-2.146,0.977-4.01
			c6.931,2.107,13.629,4.145,21.131,6.426c-1.641-2.354-2.764-3.967-3.751-5.383c57.52,0,115.036,0,172.552,0
			c0.142,0.368,0.284,0.737,0.426,1.105c-1.275,1.8-2.551,3.6-4.258,6.007c7.477-2.467,14.057-4.638,20.866-6.884
			c0,20.196,0,39.776,0,60.366c-6.938-2.1-13.449-4.071-19.961-6.042c-0.148,0.255-0.297,0.51-0.445,0.765
			c1.113,1.396,2.227,2.794,3.563,4.471c-5.801,0-10.895,0.015-15.988-0.003c-53.604-0.188-107.207-0.361-160.81-0.584
			c-19.604-0.082-39.209-0.304-58.814-0.416c-5.733-0.032-11.468,0.165-17.2,0.088c-1.217-0.017-2.424-0.771-3.636-1.186
			c0.673-0.896,1.413-1.751,1.999-2.7c0.444-0.72,0.692-1.561,1.396-3.211c-7.515,2.532-13.662,6.618-20.8,5.677
			c-0.325-2.119-0.576-3.754-0.826-5.389c-0.297,0.081-0.596,0.163-0.893,0.244c0,6.439,0,12.88,0,19.32
			c0.417,0.002,0.835,0.004,1.252,0.007c0-3.336,0-6.672,0-11.253c7.283,2.347,13.697,4.413,20.11,6.479
			c0.134-0.299,0.268-0.598,0.401-0.896C234.429,465.324,233.352,463.898,232.622,462.935z M25.497,233.474
			c-5.712-0.151-10.231,3.201-11.026,8.259c-0.247,1.565,0.603,4.693,1.255,4.778c3.608,0.473,7.31,0.227,10.461,0.227
			c-0.125-2.466-0.578-4.019-0.199-5.332c1.052-3.649,2.485-7.188,3.684-10.797c0.264-0.794,0.437-1.792,0.18-2.532
			c-0.213-0.613-1.12-0.986-1.72-1.465c-0.399,0.518-0.972,0.979-1.165,1.564C26.409,229.858,26.006,231.592,25.497,233.474z
			 M389.25,76.372c0.056-0.804,0.116-1.174,0.102-1.542c-0.198-5.227,0.552-5.991,5.428-7.023c1.715-0.362,3.868-1.308,4.667-2.666
			c0.948-1.613,1.11-4.056,0.706-5.946c-0.212-0.992-2.29-2.03-3.649-2.237c-2.384-0.362-4.863-0.101-6.364-0.101
			c-1.985,6.817-3.803,13.06-5.683,19.515C385.915,76.372,387.447,76.372,389.25,76.372z M733.27,193.324
			c0.309,0.131,0.616,0.262,0.924,0.393c5.196-6.37,10.392-12.74,15.811-19.384c-1.989,0-3.75,0-5.817,0
			c0.723,5.669-3.632,7.687-6.257,10.899c-0.352-0.146-0.703-0.293-1.055-0.441c0.67-3.503,1.34-7.006,2.011-10.518
			c-1.527,0-3.409,0-4.765,0C733.826,180.868,733.548,187.096,733.27,193.324z M278.688,168.204
			c0.381,6.461-4.762,8.528-6.947,12.498c-0.338-0.089-0.676-0.179-1.015-0.268c0.708-3.823,1.417-7.646,2.196-11.856
			c-2.057,0.099-3.619,0.174-4.917,0.237c0,6.684,0,13.024,0,19.698c0.805-0.354,1.53-0.439,1.826-0.84
			c3.84-5.205,7.63-10.45,11.407-15.703c0.59-0.82,1.057-1.729,1.58-2.597C281.628,169.036,280.438,168.699,278.688,168.204z
			 M440.194,64.028c2.173,3.486,1.203,5.754-2.028,7.456c-1.081-2.667-2.103-5.451-3.442-8.072
			c-0.127-0.249-2.249,0.521-2.996,0.706c0.756,1.713,1.533,2.889,1.772,4.167c0.294,1.569,0.051,3.23,0.195,4.838
			c0.485,5.421-0.062,6.275-5.419,7.578c0.376,0.955,0.731,1.857,1.103,2.8c6.732-3.465,15.069-14.971,14.36-19.873
			C442.725,63.742,441.699,63.858,440.194,64.028z M416.832,424.72c-1.143-0.355-3.109-1.616-4.892-1.395
			c-4.423,0.549-7.66,4.92-7.839,9.674c-0.125,3.277,1.03,4.182,4.32,3.642c1.328-0.218,2.719-0.047,4.081-0.063
			c1.723-0.019,3.531,0.376,3.553-2.45C416.079,431.042,416.545,427.96,416.832,424.72z M417.407,69.105
			c2.385-1.518,4.335-2.759,6.467-4.115c-0.225-0.338-0.527-0.793-0.83-1.249c-3.604,2.423-7.37-1.128-10.99,0.314
			c-0.144,0.057-0.161,0.429-0.238,0.655c1.509,1.557,3.253,3.631,2.848,5.119c-0.551,2.019-2.747,3.588-4.237,5.351
			c-0.034,1.583-0.034,1.583,5.228-1.397c2.311,3.884,3.42,3.86,5.911,0.308C420.235,72.497,419.008,71.025,417.407,69.105z
			 M118.486,244.538c-0.168-0.35-0.336-0.699-0.505-1.049c0.925-0.559,1.828-1.159,2.78-1.667c1.499-0.798,3.188-1.33,4.514-2.345
			c2.141-1.639,1.826-4.496-0.64-4.819c-2.096-0.275-5.207,0.132-6.383,1.508c-1.866,2.183-2.853,5.354-3.416,8.263
			c-0.159,0.82,2.412,3.012,3.812,3.088c1.942,0.105,3.96-1.192,5.946-1.89c-0.123-0.362-0.245-0.726-0.368-1.089
			C122.313,244.538,120.4,244.538,118.486,244.538z M58.582,244.194c-2.1,0.13-3.681,0.336-5.249,0.265
			c-0.556-0.026-1.08-0.729-1.619-1.122c0.438-0.497,0.782-1.201,1.332-1.451c1.568-0.713,3.634-0.839,4.723-1.957
			c1.041-1.069,1.442-3.107,1.38-4.691c-0.019-0.478-3.044-1.636-3.792-1.137c-2.221,1.485-4.085,3.556-5.919,5.555
			c-2.146,2.338-1.953,4.823,0.442,6.82C51.916,248.175,56.275,247.07,58.582,244.194z M126.429,243.739
			c0.256,1.493,0.107,2.652,0.615,3.192c1.404,1.494,7.103,1.228,8.066-0.525c1.298-2.362,0.843-4.65-1.396-6.598
			c-0.922-0.803-1.227-2.316-1.812-3.506c0.416-0.243,0.831-0.487,1.247-0.73c1.119,1.182,2.238,2.364,3.946,4.167
			c0.146-2.188,0.235-3.54,0.328-4.936c-0.95-0.085-1.456-0.229-1.927-0.156c-1.989,0.306-4.743-0.001-5.776,1.178
			c-1.71,1.953-0.296,4.275,1.315,6.278c0.677,0.841,0.381,2.465,0.527,3.733c-0.966-0.439-1.927-0.892-2.902-1.313
			C128.21,244.327,127.734,244.192,126.429,243.739z M448.055,56.391c1.877,10.601-1.014,18.917-7.57,26.128
			C449.767,78.345,455.172,64.662,448.055,56.391z M435.555,377.407c-0.302-0.286-0.604-0.572-0.904-0.858
			c-0.365,0.248-0.699,0.612-1.103,0.725c-1.419,0.395-2.861,0.703-4.295,1.044c-0.217-1.378-0.968-2.958-0.537-4.09
			c0.818-2.159,2.312-4.062,3.277-5.662c1.842,1.368,2.856,2.121,3.87,2.873c0.48-0.651,0.961-1.304,1.441-1.955
			c-1.165-0.644-2.288-1.739-3.502-1.852c-4.741-0.437-9.557,4.193-9.119,8.854c0.26,2.757,1.857,4.796,5.029,4.639
			C432.466,380.988,434.775,380.127,435.555,377.407z M111.573,240.257c1.194-1.856,2.187-2.78,2.278-3.786
			c0.052-0.563-1.29-1.545-2.173-1.854c-3.786-1.324-6.537,1.027-8.134,3.677c-1.23,2.041-1.134,5.112-0.892,7.654
			c0.065,0.68,3.041,1.829,4.302,1.462c1.615-0.471,4.715,0.043,4.706-2.396c-2.619-0.775-5.692-0.773-6.48-2.114
			c-1.49-2.534,1.631-6.141,5.506-7.111C110.896,236.846,111.105,237.902,111.573,240.257z M406.37,82.409
			c-0.808-4.601-2.445-9.133,0.234-13.653c2.353-3.97,4.362-8.145,6.505-12.195C405.708,58.467,398.304,74.532,406.37,82.409z
			 M68.63,235.616c1.502,1.089,2.523,1.829,3.543,2.568c0.418-0.647,0.835-1.293,1.253-1.941c-1.248-0.803-2.464-1.666-3.766-2.37
			c-0.338-0.182-0.965,0.082-1.429,0.234c-3.43,1.116-6.616,5.185-6.506,8.798c0.056,1.86,0.208,4,3.032,4.279
			c3.487,0.343,5.834-0.645,6.679-3.193c-2.204,0.187-4.418,0.375-6.543,0.556C63.833,239.957,65.938,237.512,68.63,235.616z
			 M81.33,246.463c2.007,1.449,2.863,0.896,3.845-1.724c0.919-2.45,2.831-6.202,4.543-6.335c3.705-0.29,2.471-1.927,2.418-3.536
			c-2.909,0-5.537,0-7.506,0C83.493,238.865,82.448,242.537,81.33,246.463z M297.27,408.13c0,10.706,0,21.413,0,32.227
			C299.429,439.096,299.892,416.562,297.27,408.13z M39.522,234.746c-0.771,2.826-1.516,5.117-1.991,7.462
			c-0.303,1.493-0.206,3.067-0.288,4.605c1.071-1.13,2.146-2.258,3.208-3.396c0.071-0.076,0.043-0.239,0.069-0.36
			c0.758-3.541,2.774-5.59,6.868-5.25c-0.059-1.314-0.104-2.331-0.137-3.062C44.252,234.746,41.637,234.746,39.522,234.746z
			 M81.175,231.336c-0.563-0.125-1.125-0.25-1.688-0.375c-4.543,4.253-3.632,10.317-5.941,16.374
			c3.155-0.83,6.508,0.862,4.718-4.121c-0.663-1.845,0.775-4.476,1.35-6.725C80.058,234.753,80.649,233.053,81.175,231.336z
			 M747.408,197.513c0.271,0.543,0.542,1.087,0.813,1.631c2.055-0.558,4.108-1.115,6.162-1.672c-0.446-1.059-0.892-2.117-1.353-3.21
			c2.536-2.074,3.085-4.804,1.793-7.771c-0.296-0.678-1.864-1.397-2.547-1.175c-1.047,0.34-1.834,1.479-2.678,2.233
			c1.637,0.988,3.326,1.557,3.315,2.093c-0.023,1.182-0.718,2.487-1.478,3.485C750.241,194.701,748.766,196.062,747.408,197.513z
			 M96.772,234.819c-0.991,3.491-1.922,6.492-2.654,9.543c-0.188,0.787-0.026,2.194,0.464,2.481c0.708,0.414,2.036,0.368,2.77-0.055
			c0.585-0.338,0.788-1.507,0.967-2.348c0.424-1.991,0.739-4.005,1.084-6.011c0.216-1.249,0.409-2.502,0.667-4.095
			C98.493,234.566,97.535,234.708,96.772,234.819z M214.799,398.145c-0.339-0.001-0.678-0.002-1.018-0.003
			c0,7.598,0,15.195,0,22.693C215.537,420.16,216.281,406.929,214.799,398.145z M213.526,442.21
			c0.586-0.021,1.172-0.045,1.758-0.067c0-6.35,0.019-12.699-0.056-19.048c-0.003-0.311-0.817-0.61-1.253-0.916
			c-0.278,0.587-0.792,1.173-0.797,1.763c-0.033,4.456,0.013,8.913,0.081,13.368C213.283,438.943,213.434,440.576,213.526,442.21z
			 M33.06,246.3c0.698-3.791,1.361-6.952,1.812-10.145c0.114-0.811-0.45-1.718-0.702-2.581c-0.766,0.715-1.913,1.297-2.221,2.173
			c-0.714,2.032-1.067,4.197-1.482,6.325c-0.291,1.492-0.442,3.01-0.738,5.099C31.511,246.705,32.628,246.412,33.06,246.3z
			 M283.114,194.001c1.464-0.725,3.354-1.072,3.569-1.871c0.897-3.327,1.344-6.783,1.804-10.211c0.06-0.451-0.672-1.2-1.207-1.454
			c-0.264-0.125-1.24,0.483-1.34,0.895C284.999,185.243,284.177,189.155,283.114,194.001z M297.26,378.983
			c0.386,0.023,0.772,0.048,1.158,0.071c0-5.86,0-11.721,0-17.581c-0.386-0.003-0.772-0.006-1.158-0.009
			C297.26,367.305,297.26,373.145,297.26,378.983z M367.406,364.71c0,4.222,0,7.71,0,11.199c0.403-0.024,0.806-0.049,1.208-0.074
			C368.367,372.355,369.884,368.77,367.406,364.71z M215.045,371.752c-2.438,3.165-2.386,8.878,0,11.004
			C215.045,379.12,215.045,375.788,215.045,371.752z M215.014,360.847c-0.356-0.066-0.712-0.133-1.068-0.199
			c-1.173,1.41-0.824,2.976-0.174,4.983c0.498,1.54,0.099,3.37,0.099,5.071c0.381-0.008,0.762-0.015,1.143-0.022
			C215.014,367.402,215.014,364.125,215.014,360.847z M423.901,80.167c0.394,0.228,0.787,0.456,1.182,0.683
			c0.63-1.726,1.378-3.424,1.804-5.199c0.101-0.418-0.882-1.097-1.366-1.655c-0.378,0.532-0.978,1.02-1.09,1.604
			C424.139,77.1,424.063,78.643,423.901,80.167z M130.071,443.01c0.132-0.528,0.265-1.057,0.397-1.586
			c-2.5-0.602-5.001-1.202-7.501-1.803c-0.108,0.372-0.217,0.744-0.325,1.117C125.118,441.495,127.594,442.253,130.071,443.01z"/>
		<path fill-rule="evenodd" clip-rule="evenodd" d="M232.622,462.935c0.73,0.964,1.807,2.39,2.884,3.814
			c-0.133,0.299-0.268,0.598-0.401,0.896c-6.414-2.066-12.827-4.133-20.11-6.479c0,4.581,0,7.917,0,11.253
			c-0.417-0.003-0.835-0.005-1.252-0.007c0-6.44,0-12.881,0-19.32c0.297-0.081,0.596-0.163,0.893-0.244
			c0.25,1.635,0.501,3.27,0.826,5.389c7.139,0.941,13.285-3.145,20.8-5.677c-0.704,1.65-0.953,2.491-1.396,3.211
			c-0.586,0.949-1.326,1.805-1.999,2.7c1.211,0.415,2.419,1.169,3.636,1.186c5.732,0.077,11.467-0.12,17.2-0.088
			c19.605,0.112,39.21,0.334,58.814,0.416c53.603,0.223,107.207,0.396,160.81,0.584c5.094,0.018,10.188,0.003,15.988,0.003
			c-1.336-1.677-2.449-3.074-3.563-4.471c0.148-0.255,0.297-0.51,0.445-0.765c6.512,1.971,13.023,3.942,19.961,6.042
			c0-20.59,0-40.17,0-60.366c-6.81,2.246-13.39,4.417-20.866,6.884c1.707-2.407,2.982-4.207,4.258-6.007
			c-0.142-0.368-0.284-0.737-0.426-1.105c-57.517,0-115.033,0-172.552,0c0.987,1.416,2.11,3.028,3.751,5.383
			c-7.502-2.281-14.201-4.318-21.131-6.426c-0.454,1.863-0.716,2.937-0.977,4.01c-0.292-0.018-0.585-0.035-0.877-0.052
			c0-7.813,0-15.625,0-23.438c0.328-0.045,0.657-0.09,0.985-0.135c0.185,6.03,0.368,12.061,0.555,18.187
			c7.725-2.544,14.422-4.751,21.119-6.957c0.196,0.295,0.392,0.591,0.587,0.887c-1.601,1.674-3.2,3.348-4.801,5.021
			c0.179,0.374,0.358,0.748,0.538,1.122c57.506,0,115.012,0,172.949,0c-1.008-1.396-2.045-2.83-3.082-4.266
			c0.153-0.338,0.308-0.677,0.461-1.016c6.354,2.096,12.709,4.191,19.508,6.433c0-13.228,0-25.791,0-39.084
			c-5.654,1.826-11.156,3.604-16.658,5.382c-0.016-0.223-0.03-0.446-0.046-0.669c1.625-1.454,3.251-2.907,4.876-4.361
			c-0.232-0.479-0.466-0.96-0.697-1.439c-35.435,0-70.867,0-106.606,0c1.147,1.402,2.303,2.814,3.729,4.558
			c-8.509,0.505-14.975-6.931-23.341-4.563c-0.188-1.561-0.349-2.894-0.656-5.439c3.219,4.073,5.812,2.037,8.639,1.024
			c4.915-1.762,9.964-3.146,14.968-4.651c0.293-0.088,0.688,0.163,1.861,1.136c-2.003,1.215-4.006,2.429-6.008,3.643
			c0.321,0.488,0.643,0.977,0.964,1.465c35.124,0,70.248,0,106.027,0c-1.564-1.441-2.901-2.674-4.24-3.907
			c0.181-0.419,0.362-0.839,0.543-1.258c5.447,1.668,10.896,3.336,17.007,5.206c0-6.642-0.004-12.961,0.002-19.28
			c0.002-2.247-0.16-4.516,0.088-6.737c0.343-3.075-1.059-3.925-3.86-3.929c-39.813-0.046-79.628-0.144-119.442-0.231
			c-3.375-0.008-6.762-0.212-10.121,0.012c-1.785,0.119-3.523,0.962-5.02,1.4c-1.617-0.491-3.287-1.422-4.968-1.444
			c-17.607-0.239-35.215-0.34-52.822-0.452c-1.369-0.008-2.738,0.285-4.106,0.279c-7.688-0.03-7.66-0.047-7.61,7.645
			c0.051,7.766,0.051,15.532,0.031,23.299c-0.002,0.738-0.302,1.475-0.464,2.213c-0.346-0.023-0.691-0.047-1.038-0.07
			c0-10.963,0-21.926,0-33.478c-4.678,0-8.876,0.021-13.073-0.004c-16.218-0.093-32.436-0.185-48.653-0.312
			c-5.285-0.041-10.571-0.135-15.853-0.307c-2.951-0.095-4.024,1.456-3.989,4.116c0.109,8.307,0.296,16.613,0.331,24.922
			c0.007,1.791-0.499,3.584-0.768,5.377c-0.485,0.043-0.971,0.086-1.456,0.13c-0.276-1.703-0.78-3.403-0.788-5.106
			c-0.042-8.373,0.049-16.746,0.091-25.118c0.006-1.201,0.001-2.401,0.001-4.377c-6.988,2.595-13.294,4.936-19.6,7.277
			c-0.164-0.25-0.328-0.5-0.492-0.749c1.562-1.844,3.123-3.687,5.046-5.956c-3.408,0-6.183-0.021-8.958,0.003
			c-21.483,0.176-42.971,0.68-64.448,0.398c-9.879-0.13-19.818-1.312-29.583-2.91c-8.987-1.471-17.95-4.208-24.532-10.911
			c-5.127-5.221-8.369-11.884-8.282-19.523c0.076-6.735,0.512-13.469,0.905-20.195c0.05-0.863,0.801-1.686,1.996-2.246
			c0,3.781-0.05,7.565,0.011,11.348c0.097,5.976-0.537,12.117,0.651,17.877c1.047,5.075,4.565,9.563,9.007,12.603
			c9.518,6.517,20.265,9.285,31.726,9.675c18.31,0.623,36.611,1.556,54.925,1.946c11.105,0.237,22.227-0.299,33.34-0.505
			c0.316-0.006,0.628-0.211,1.27-0.439c-1.266-1.624-2.399-3.078-3.532-4.533c0.142-0.229,0.284-0.459,0.426-0.688
			c6.405,1.758,12.81,3.515,20.164,5.533c0-6.859-0.001-12.656,0-18.454c0.011-25.996-0.021-51.993,0.063-77.991
			c0.024-7.47,0.392-14.939,0.593-22.409c0.067-2.501-0.624-3.898-3.678-3.639c-4.343,0.369-8.73,0.237-13.099,0.238
			c-1.175,0-2.349-0.293-3.524-0.453c-0.058-0.434-0.116-0.867-0.173-1.301c1.207-0.311,2.414-0.883,3.622-0.885
			c4.744-0.008,9.49,0.273,14.23,0.17c0.879-0.019,2.422-1.266,2.478-2.033c0.283-3.829,0.164-7.687,0.202-11.534
			c0.176-17.857,0.432-35.714,0.52-53.572c0.134-27.238,0.163-54.477,0.214-81.715c0.014-7.374-0.104-14.75-0.051-22.125
			c0.012-1.591,0.498-3.179,0.765-4.769c0.526-0.019,1.052-0.038,1.579-0.057c0.259,1.399,0.745,2.8,0.741,4.199
			c-0.041,12.747-0.209,25.494-0.257,38.241c-0.107,29.091-0.161,58.183-0.247,87.273c-0.042,14.247-0.078,28.494-0.187,42.741
			c-0.018,2.295,0.286,3.785,3.145,3.803c25.099,0.159,50.196,0.409,75.294,0.622c0.236,0.002,0.474-0.135,1.011-0.298
			c0.203-1.183,0.526-2.494,0.641-3.823c1.04-12.063,5.174-22.869,11.99-32.944c5.153-7.618,10.868-14.722,17.64-20.76
			c6.571-5.859,13.767-11.159,21.229-15.842c8.484-5.325,17.332-10.221,26.459-14.33c9.175-4.13,18.828-7.242,28.389-10.451
			c5.473-1.838,11.221-2.843,16.754-4.521c1.644-0.498,2.891-2.186,4.488-2.991c1.188-0.598,3.357-1.347,3.866-0.829
			c2.366,2.412,4.888,1.246,7.362,0.854c8.676-1.379,17.298-3.21,26.018-4.187c12.856-1.441,25.778-2.297,38.673-3.403
			c0.124-0.01,0.248-0.028,0.372-0.04c2.527-0.226,6.171,0.459,7.29-0.914c1.281-1.575,0.335-4.973,0.339-7.579
			c0.028-16.117,0.031-32.234,0.11-48.351c0.009-1.585,0.472-3.168,0.724-4.752c0.519,0.03,1.037,0.06,1.556,0.089
			c0.151,3.1,0.452,6.2,0.432,9.299c-0.115,16.19-0.243,32.382-0.538,48.57c-0.058,3.145,0.933,3.831,4.038,4.009
			c11.188,0.64,22.359,1.634,33.517,2.707c8.062,0.775,16.189,1.388,24.111,2.963c12.24,2.434,24.459,5.177,36.444,8.63
			c10.718,3.088,21.33,6.796,31.571,11.2c8.269,3.557,15.966,8.472,23.82,12.954c5.13,2.928,10.34,5.821,15.054,9.346
			c5.27,3.941,10.386,8.229,14.916,12.988c9.048,9.503,17.757,19.264,22.208,32.111c2.263,6.533,4.157,13.035,4.286,19.918
			c0.056,2.979,1.336,3.451,3.877,3.444c21.498-0.05,42.996-0.009,64.493,0.016c2.871,0.003,5.759-0.098,8.61,0.157
			c3.096,0.277,4.083-0.804,4.065-3.957c-0.107-20.374-0.043-40.748-0.01-61.123c0.054-33.368,0.13-66.736,0.189-100.104
			c0.005-2.373-0.164-4.752-0.046-7.119c0.068-1.38,0.548-2.74,0.843-4.109c0.447-0.02,0.896-0.04,1.343-0.06
			c0.243,1.4,0.698,2.8,0.7,4.2c0.025,25.625,0.053,51.25-0.038,76.875c-0.079,22.362-0.399,44.723-0.45,67.084
			c-0.137,61.095-0.188,122.189-0.273,183.284c0,0.375,0.135,0.819-0.02,1.112c-0.512,0.965-1.129,1.875-1.704,2.806
			c-0.689-0.951-1.963-1.895-1.977-2.855c-0.114-8.615-0.006-17.234,0.026-25.854c0.003-0.857-0.073-1.716-0.149-3.391
			c-6.738,2.25-13.129,4.385-20.533,6.857c1.979-2.58,3.596-4.688,5.874-7.66c-8.13,0-15.168,0.025-22.206-0.004
			c-30.736-0.13-61.475-0.264-92.211-0.418c-31.854-0.161-63.71-0.324-95.563-0.53c-20.838-0.134-41.676-0.375-62.514-0.44
			c-1.009-0.003-2.511,1.003-2.918,1.922c-0.624,1.409-0.641,3.149-0.66,4.753c-0.081,6.856-0.548,13.754,0.039,20.558
			c0.635,7.346-0.566,14.588-0.218,21.901c0.357,7.476,0.025,14.983,0.037,22.477c0.013,7.617,0.098,15.234,0.112,22.852
			c0.014,7.493-0.013,14.985-0.036,22.479c-0.04,12.362-0.068,24.725-0.175,37.087c-0.01,1.125-0.557,2.246-0.853,3.369
			c-0.402-0.057-0.806-0.112-1.208-0.169c0-6.728,0-13.454,0-20.84c-7.478,2.177-14.293,4.159-21.11,6.143
			c-0.309-0.419-0.619-0.839-0.929-1.26c2.014-1.437,4.026-2.873,6.04-4.31c-0.126-0.447-0.252-0.895-0.379-1.342
			C404.317,462.935,318.495,462.935,232.622,462.935z M507.056,314.181c-0.164-1.687-0.404-3.026-0.41-4.367
			c-0.042-11.659-0.059-23.319-0.051-34.979c0.007-11.085-0.041-22.171,0.113-33.253c0.096-6.811,0.575-13.616,0.788-20.426
			c0.147-4.74,0.194-9.486,0.166-14.228c-0.013-2.132-0.561-3.964-3.353-3.95c-10.091,0.048-20.183,0.09-30.273,0.03
			c-32.225-0.193-64.449-0.464-96.673-0.572c-1.776-0.006-3.833,0.813-5.269,1.896c-2.315,1.747-4.8,2.324-6.733,0.458
			c-2.924-2.822-6.258-2.481-9.689-2.445c-3.372,0.035-6.746,0.193-10.115,0.125c-13.603-0.274-27.204-0.617-40.805-0.93
			c-2.303-0.053-3.529,0.472-3.501,3.39c0.075,8.253,2.898,15.732,5.938,23.144c3.823,9.317,9.891,17.243,16.856,24.35
			c6.105,6.229,12.337,12.561,19.432,17.54c8.521,5.98,17.798,11.016,27.154,15.638c7.974,3.939,16.498,6.782,24.832,9.969
			c2.854,1.092,6.542,0.971,8.667,2.787c3.82,3.267,8.56,2.902,12.741,4.464c5.131,1.917,10.801,2.388,16.239,3.479
			c9.416,1.889,18.774,4.171,28.265,5.547c8.825,1.281,17.78,1.788,26.698,2.268C494.374,314.454,500.709,314.181,507.056,314.181z
			 M508.78,314.136c1.604,0.139,2.829,0.386,4.039,0.327c12.815-0.617,25.641-1.096,38.435-2.01
			c7.303-0.522,14.58-1.605,21.818-2.756c6.306-1.002,12.569-2.32,18.794-3.749c4.651-1.066,9.18-2.666,13.822-3.778
			c4.374-1.048,8.541-2.4,12.714-4.226c7.26-3.174,15.188-4.825,22.42-8.05c8.025-3.58,15.758-7.918,23.292-12.465
			c6.475-3.906,12.943-8.06,18.589-13.039c6.424-5.668,12.24-12.117,17.728-18.721c3.467-4.172,6.156-9.09,8.622-13.964
			c2.045-4.042,3.153-8.55,4.861-12.777c1.857-4.597,1.817-9.274,1.491-14.543c-20.012,0-39.616-0.043-59.222,0.091
			c-1.381,0.009-2.959,1.087-4.089,2.075c-2.801,2.447-5.047,2.365-7.626-0.182c-1.061-1.047-2.72-2.085-4.118-2.101
			c-13.355-0.144-26.714-0.038-40.07-0.063c-14.36-0.028-28.721-0.045-43.08-0.205c-14.339-0.16-28.68-0.395-43.013-0.815
			c-3.587-0.104-4.338,1.194-4.304,4.535c0.15,14.337,0.081,28.677-0.024,43.016c-0.058,7.854-0.443,15.705-0.508,23.559
			c-0.064,8.044,0.179,16.091,0.105,24.135C509.41,303.503,509.032,308.574,508.78,314.136z M799.453,327.551
			c0.56-40.943,1.115-81.567,1.67-122.139c-1.059-0.204-1.545-0.378-2.032-0.38c-25.103-0.133-50.205-0.217-75.308-0.417
			c-2.806-0.022-3.78,1.002-3.672,3.702c0.345,8.565-2.199,16.726-5.543,24.248c-3.915,8.809-10.038,16.448-16.673,23.64
			c-6.904,7.481-14.324,14.266-22.785,19.865c-3.73,2.471-7.781,4.463-11.724,6.603c-7.697,4.177-15.276,8.609-23.179,12.356
			c-6.17,2.926-12.732,5.04-19.169,7.378c-2.2,0.799-4.561,1.148-6.831,1.767c-9.842,2.679-19.624,5.607-29.537,7.993
			c-6.028,1.449-12.232,2.243-18.396,3.031c-10.104,1.292-20.219,2.633-30.371,3.392c-7.833,0.586-15.729,0.329-23.599,0.407
			c-2.49,0.023-3.719,1.188-3.588,3.677c0.127,2.405,1.583,2.94,3.783,2.945c23.804,0.05,47.607,0.163,71.41,0.284
			c28.841,0.146,57.683,0.216,86.523,0.5c36.577,0.359,73.153,0.904,109.73,1.356c1.17,0.015,2.342-0.096,3.512-0.147
			c0.371-0.493,0.742-0.985,1.114-1.478c-1.965-1.119-3.93-2.238-5.895-3.357c0.361-0.553,0.723-1.104,1.084-1.656
			C786.355,323.227,792.732,325.332,799.453,327.551z M506.543,319.61c-14.985-1.053-29.287-2.059-43.588-3.063
			c-0.871-0.062-1.757-0.041-2.614-0.188c-6.934-1.187-13.894-2.255-20.787-3.652c-8.474-1.718-17.148-2.976-25.26-5.803
			c-8.231-2.869-17.024-4.013-24.748-8.71c-5.12-3.113-11.155-4.75-16.842-6.881c-1.635-0.613-3.895-2.098-4.242,0.893
			c-1.197-1.49-2.128-3.42-3.665-4.424c-5.405-3.534-10.852-7.073-16.59-10.009c-8.252-4.222-15.458-9.745-21.853-16.325
			c-9.337-9.607-18.869-19.11-23.5-32.196c-0.978-2.762-2.375-5.377-3.587-8.081c-0.723,0.946-1.136,1.486-1.549,2.026
			c-0.325-0.079-0.65-0.158-0.974-0.237c0-6.901,0-13.802,0-21.584c-12.208,0-23.771,0.074-35.333-0.019
			c-12.941-0.105-25.884-0.276-38.822-0.588c-5.663-0.136-5.722-0.286-5.742,5.263c-0.117,31.973-0.229,63.946-0.331,95.92
			c-0.023,7.055-0.004,14.109-0.004,21.551c25.745,0,51.081-0.023,76.416,0.037c2.523,0.006,4.584,0.236,3.699-3.439
			c-0.275-1.145,0.533-2.55,0.986-4.413c0.585,0.93,0.881,1.192,0.917,1.487c0.721,6.076,0.715,6.264,6.515,6.287
			c20.473,0.087,40.946,0.034,61.513,0.034c0.359-1.396,0.802-3.117,1.244-4.839c0.347,0.097,0.695,0.194,1.042,0.291
			c0.151,1.55,0.302,3.1,0.459,4.723c45.681,0.454,91.167,0.907,136.978,1.363C506.367,323.224,506.461,321.307,506.543,319.61z
			 M716.52,202.379c-1.149-5.295-2.228-9.772-3.081-14.292c-1.553-8.218-4.742-15.551-10.366-21.899
			c-5.744-6.482-10.565-13.876-16.807-19.801c-6.027-5.723-13.245-10.236-20.147-14.977c-3.799-2.609-7.958-4.727-12.075-6.831
			c-8.128-4.156-16.152-8.605-24.571-12.08c-8.103-3.345-16.579-5.86-25.021-8.289c-9.066-2.609-18.192-5.203-27.459-6.878
			c-11.753-2.124-23.646-3.579-35.53-4.824c-9.301-0.974-18.687-1.129-28.025-1.782c-2.409-0.168-3.396,0.463-3.379,3.021
			c0.083,12.871-0.025,25.744,0.141,38.614c0.016,1.206,1.209,2.948,2.32,3.492c4.864,2.382,9.965,4.277,14.855,6.609
			c5.638,2.688,11.058,5.84,16.729,8.448c9.524,4.38,19.215,8.398,28.751,12.752c5.307,2.423,10.386,5.344,15.676,7.808
			c4.622,2.152,9.443,3.874,14.094,5.971c8.577,3.868,17.101,7.854,25.632,11.824c4.729,2.201,9.394,4.544,14.159,6.663
			c1.92,0.853,4.051,1.214,6.045,1.915c1.652,0.581,4.12,0.917,4.681,2.096c1.182,2.481,2.835,2.217,4.861,2.222
			c11.348,0.023,22.694,0.157,34.042,0.212C699.756,202.409,707.469,202.379,716.52,202.379z M507.818,200.271
			c0-21.077,0.026-41.427-0.087-61.776c-0.004-0.87-1.104-2.112-1.999-2.538c-7.094-3.37-14.291-6.521-21.4-9.859
			c-9.91-4.655-19.777-9.407-29.654-14.134c-6.984-3.342-13.951-6.719-20.932-10.068c-2.187-1.049-4.027-1.579-5.449,1.404
			c-2.038,4.281-4.338,8.464-6.849,12.49c-8.408,13.482-17.044,26.823-25.433,40.317c-7.719,12.415-15.253,24.944-22.798,37.465
			c-0.679,1.127-1.571,3.183-1.104,3.727c1.049,1.222,2.854,2.384,4.413,2.472c5.724,0.318,11.472,0.207,17.211,0.225
			c30.229,0.097,60.458,0.188,90.687,0.271C492.012,200.289,499.599,200.271,507.818,200.271z M300.149,199.286
			c2.008,0.184,2.616,0.286,3.223,0.288c16.864,0.05,33.729,0.188,50.592,0.063c4.101-0.03,9.11,1.942,11.607-3.628
			c0.069-0.154,0.44-0.207,0.68-0.246c3.099-0.5,4.21-3.012,5.596-5.35c4.479-7.557,9.008-15.084,13.588-22.581
			c6.378-10.44,12.785-20.862,19.243-31.252c6.099-9.813,12.334-19.542,18.363-29.396c0.873-1.426,0.933-3.351,1.368-5.044
			c-1.71-0.393-3.562-1.411-5.103-1.061c-4.795,1.088-9.544,2.494-14.182,4.14c-10.654,3.779-21.494,7.195-31.773,11.832
			c-11.677,5.267-22.887,11.525-33.247,19.28c-7.327,5.483-14.001,11.512-19.745,18.58c-6.309,7.763-12.61,15.571-15.327,25.488
			C303.362,186.502,301.858,192.652,300.149,199.286z M510.156,200.183c1.12,0.086,1.854,0.185,2.59,0.193
			c34.9,0.402,69.801,0.782,104.701,1.203c7.612,0.092,15.222,0.372,22.832,0.442c0.892,0.008,1.791-0.766,2.686-1.178
			c-0.498-0.896-0.777-2.153-1.54-2.616c-1.627-0.987-3.521-1.524-5.274-2.315c-7.806-3.522-15.594-7.085-23.402-10.601
			c-6.602-2.973-13.247-5.852-19.831-8.867c-5.231-2.396-10.371-4.992-15.601-7.395c-8.692-3.993-17.484-7.772-26.117-11.89
			c-5.953-2.838-11.644-6.226-17.57-9.124c-4.952-2.421-10.067-4.512-15.132-6.698c-2.634-1.137-5.314-2.165-8.341-3.391
			C510.156,158.958,510.156,179.397,510.156,200.183z M432.545,97.438c-0.041,0.406-0.081,0.812-0.121,1.217
			c24.861,11.482,49.724,22.965,75.136,34.702c0-14.829,0-28.578,0-42.566C482.097,90.624,457.317,93.995,432.545,97.438z"/>
		<path fill-rule="evenodd" clip-rule="evenodd" d="M25.497,233.474c0.509-1.882,0.913-3.616,1.469-5.298
			c0.193-0.586,0.766-1.047,1.165-1.564c0.6,0.479,1.507,0.852,1.72,1.465c0.257,0.741,0.083,1.738-0.18,2.532
			c-1.199,3.61-2.632,7.148-3.684,10.797c-0.379,1.313,0.074,2.866,0.199,5.332c-3.151,0-6.853,0.246-10.461-0.227
			c-0.652-0.085-1.501-3.213-1.255-4.778C15.266,236.675,19.785,233.323,25.497,233.474z M17.627,244.216
			c4.233-0.11,6.763-3.823,5.929-8.392C19.81,235.626,16.992,239.461,17.627,244.216z"/>
		<path fill-rule="evenodd" clip-rule="evenodd" d="M389.25,76.372c-1.803,0-3.334,0-4.792,0c1.88-6.455,3.698-12.698,5.683-19.515
			c1.5,0,3.979-0.261,6.364,0.101c1.359,0.207,3.437,1.245,3.649,2.237c0.404,1.89,0.242,4.333-0.706,5.946
			c-0.799,1.358-2.952,2.304-4.667,2.666c-4.876,1.032-5.626,1.796-5.428,7.023C389.365,75.197,389.306,75.567,389.25,76.372z
			 M397.449,59.724c-4.137-1.675-5.59-0.35-5.609,5.118C396.392,65.875,397.667,64.712,397.449,59.724z"/>
		<path fill-rule="evenodd" clip-rule="evenodd" d="M733.27,193.324c0.278-6.229,0.557-12.457,0.852-19.051c1.355,0,3.237,0,4.765,0
			c-0.671,3.512-1.341,7.015-2.011,10.518c0.352,0.147,0.703,0.294,1.055,0.441c2.625-3.212,6.979-5.23,6.257-10.899
			c2.067,0,3.828,0,5.817,0c-5.419,6.644-10.614,13.014-15.811,19.384C733.886,193.586,733.578,193.455,733.27,193.324z"/>
		<path fill-rule="evenodd" clip-rule="evenodd" d="M278.688,168.204c1.75,0.495,2.94,0.832,4.13,1.168
			c-0.523,0.868-0.99,1.777-1.58,2.597c-3.777,5.253-7.567,10.498-11.407,15.703c-0.296,0.401-1.021,0.486-1.826,0.84
			c0-6.673,0-13.014,0-19.698c1.298-0.063,2.86-0.138,4.917-0.237c-0.78,4.21-1.488,8.033-2.196,11.856
			c0.338,0.089,0.676,0.179,1.015,0.268C273.926,176.731,279.068,174.665,278.688,168.204z"/>
		<path fill-rule="evenodd" clip-rule="evenodd" d="M440.194,64.028c1.505-0.17,2.53-0.286,3.545-0.4
			c0.709,4.901-7.628,16.408-14.36,19.873c-0.371-0.943-0.727-1.845-1.103-2.8c5.357-1.303,5.904-2.157,5.419-7.578
			c-0.145-1.608,0.099-3.269-0.195-4.838c-0.239-1.277-1.017-2.454-1.772-4.167c0.747-0.185,2.869-0.955,2.996-0.706
			c1.34,2.621,2.361,5.405,3.442,8.072C441.397,69.782,442.367,67.514,440.194,64.028z"/>
		<path fill-rule="evenodd" clip-rule="evenodd" d="M416.832,424.72c-0.287,3.24-0.753,6.322-0.776,9.408
			c-0.021,2.826-1.83,2.432-3.553,2.45c-1.362,0.016-2.753-0.155-4.081,0.063c-3.291,0.54-4.445-0.364-4.32-3.642
			c0.179-4.754,3.416-9.125,7.839-9.674C413.723,423.104,415.689,424.364,416.832,424.72z M407.397,434.227
			c5.084-1.192,6.593-3.717,5.381-8.588C408.825,425.789,406.771,428.957,407.397,434.227z"/>
		<path fill-rule="evenodd" clip-rule="evenodd" d="M417.407,69.105c1.601,1.92,2.828,3.392,4.157,4.985
			c-2.491,3.553-3.601,3.576-5.911-0.308c-5.262,2.981-5.262,2.981-5.228,1.397c1.49-1.763,3.687-3.332,4.237-5.351
			c0.405-1.488-1.339-3.562-2.848-5.119c0.077-0.226,0.095-0.598,0.238-0.655c3.62-1.442,7.386,2.109,10.99-0.314
			c0.303,0.456,0.605,0.911,0.83,1.249C421.742,66.346,419.792,67.587,417.407,69.105z"/>
		<path fill-rule="evenodd" clip-rule="evenodd" d="M118.486,244.538c1.914,0,3.827,0,5.741,0c0.123,0.363,0.245,0.727,0.368,1.089
			c-1.986,0.697-4.004,1.995-5.946,1.89c-1.4-0.076-3.971-2.268-3.812-3.088c0.563-2.908,1.549-6.08,3.416-8.263
			c1.176-1.376,4.287-1.783,6.383-1.508c2.466,0.323,2.781,3.181,0.64,4.819c-1.326,1.015-3.015,1.546-4.514,2.345
			c-0.952,0.508-1.855,1.107-2.78,1.667C118.15,243.839,118.318,244.188,118.486,244.538z M117.64,239.69
			c4.986,0.271,5.755-0.598,4.442-4.382C120.713,236.66,119.502,237.854,117.64,239.69z"/>
		<path fill-rule="evenodd" clip-rule="evenodd" d="M58.582,244.194c-2.307,2.876-6.667,3.98-8.702,2.282
			c-2.395-1.997-2.588-4.482-0.442-6.82c1.834-1.999,3.698-4.07,5.919-5.555c0.748-0.5,3.772,0.659,3.792,1.137
			c0.062,1.584-0.34,3.623-1.38,4.691c-1.088,1.118-3.154,1.244-4.723,1.957c-0.55,0.25-0.894,0.954-1.331,1.451
			c0.539,0.393,1.063,1.095,1.619,1.122C54.901,244.53,56.482,244.324,58.582,244.194z M51.692,238.661
			c0.542,0.621,1.083,1.242,1.624,1.862c1.195-1.175,2.43-2.315,3.52-3.58c0.107-0.125-0.68-1.019-1.053-1.556
			C54.419,236.479,53.056,237.57,51.692,238.661z"/>
		<path fill-rule="evenodd" clip-rule="evenodd" d="M126.429,243.739c1.306,0.454,1.781,0.588,2.231,0.783
			c0.975,0.422,1.936,0.874,2.902,1.313c-0.146-1.268,0.149-2.892-0.527-3.733c-1.611-2.003-3.025-4.326-1.315-6.278
			c1.033-1.179,3.787-0.872,5.776-1.178c0.472-0.074,0.977,0.071,1.927,0.156c-0.093,1.396-0.183,2.747-0.328,4.936
			c-1.708-1.803-2.827-2.985-3.946-4.167c-0.416,0.243-0.832,0.487-1.247,0.73c0.585,1.19,0.89,2.704,1.812,3.506
			c2.239,1.948,2.695,4.236,1.396,6.598c-0.963,1.753-6.662,2.02-8.066,0.525C126.536,246.391,126.685,245.231,126.429,243.739z"/>
		<path fill-rule="evenodd" clip-rule="evenodd" d="M448.055,56.391c7.117,8.271,1.712,21.954-7.57,26.128
			C447.041,75.309,449.932,66.992,448.055,56.391z"/>
		<path fill-rule="evenodd" clip-rule="evenodd" d="M435.555,377.407c-0.779,2.72-3.089,3.581-5.842,3.718
			c-3.172,0.157-4.77-1.882-5.029-4.639c-0.438-4.661,4.378-9.291,9.119-8.854c1.214,0.112,2.337,1.208,3.502,1.852
			c-0.48,0.651-0.961,1.304-1.441,1.955c-1.014-0.752-2.028-1.505-3.87-2.873c-0.966,1.601-2.459,3.503-3.277,5.662
			c-0.431,1.132,0.32,2.712,0.537,4.09c1.434-0.341,2.876-0.649,4.295-1.044c0.403-0.112,0.737-0.477,1.103-0.725
			C434.951,376.835,435.253,377.121,435.555,377.407z"/>
		<path fill-rule="evenodd" clip-rule="evenodd" d="M111.573,240.257c-0.468-2.355-0.677-3.411-0.887-4.468
			c-3.875,0.971-6.996,4.578-5.506,7.111c0.789,1.341,3.861,1.339,6.48,2.114c0.009,2.438-3.091,1.925-4.706,2.396
			c-1.261,0.367-4.237-0.782-4.302-1.462c-0.242-2.542-0.338-5.614,0.892-7.654c1.597-2.65,4.348-5.001,8.134-3.677
			c0.883,0.309,2.225,1.291,2.173,1.854C113.76,237.477,112.767,238.401,111.573,240.257z"/>
		<path fill-rule="evenodd" clip-rule="evenodd" d="M406.37,82.409c-8.066-7.877-0.662-23.942,6.739-25.848
			c-2.143,4.05-4.152,8.225-6.505,12.195C403.925,73.276,405.563,77.808,406.37,82.409z"/>
		<path fill-rule="evenodd" clip-rule="evenodd" d="M68.63,235.616c-2.692,1.896-4.797,4.34-3.737,8.931
			c2.125-0.181,4.339-0.369,6.543-0.556c-0.845,2.549-3.192,3.536-6.679,3.193c-2.824-0.278-2.976-2.419-3.032-4.279
			c-0.109-3.614,3.076-7.682,6.506-8.798c0.464-0.152,1.091-0.416,1.429-0.234c1.302,0.704,2.518,1.567,3.766,2.37
			c-0.417,0.648-0.835,1.294-1.253,1.941C71.153,237.445,70.133,236.705,68.63,235.616z"/>
		<path fill-rule="evenodd" clip-rule="evenodd" d="M81.33,246.463c1.118-3.926,2.163-7.598,3.301-11.595c1.969,0,4.597,0,7.506,0
			c0.053,1.609,1.286,3.247-2.418,3.536c-1.712,0.134-3.625,3.885-4.543,6.335C84.193,247.359,83.337,247.912,81.33,246.463z"/>
		<path fill-rule="evenodd" clip-rule="evenodd" d="M297.27,408.13c2.622,8.432,2.159,30.966,0,32.227
			C297.27,429.543,297.27,418.836,297.27,408.13z"/>
		<path fill-rule="evenodd" clip-rule="evenodd" d="M39.522,234.746c2.115,0,4.729,0,7.729,0c0.033,0.731,0.078,1.747,0.137,3.062
			c-4.094-0.339-6.11,1.71-6.868,5.25c-0.026,0.121,0.001,0.284-0.069,0.36c-1.063,1.138-2.137,2.266-3.208,3.396
			c0.082-1.538-0.015-3.112,0.288-4.605C38.007,239.863,38.752,237.572,39.522,234.746z"/>
		<path fill-rule="evenodd" clip-rule="evenodd" d="M81.175,231.336c-0.526,1.716-1.117,3.417-1.561,5.154
			c-0.575,2.249-2.013,4.879-1.35,6.725c1.79,4.983-1.563,3.291-4.718,4.121c2.31-6.057,1.398-12.121,5.941-16.374
			C80.05,231.086,80.612,231.212,81.175,231.336z"/>
		<path fill-rule="evenodd" clip-rule="evenodd" d="M747.408,197.513c1.357-1.451,2.833-2.812,4.029-4.385
			c0.76-0.998,1.454-2.304,1.478-3.485c0.011-0.536-1.679-1.105-3.315-2.093c0.844-0.754,1.631-1.894,2.678-2.233
			c0.683-0.222,2.251,0.497,2.547,1.175c1.292,2.967,0.743,5.697-1.793,7.771c0.461,1.093,0.906,2.151,1.353,3.21
			c-2.054,0.558-4.107,1.115-6.162,1.672C747.95,198.6,747.68,198.056,747.408,197.513z"/>
		<path fill-rule="evenodd" clip-rule="evenodd" d="M96.772,234.819c0.762-0.111,1.721-0.253,3.298-0.484
			c-0.258,1.593-0.451,2.846-0.667,4.095c-0.346,2.006-0.661,4.02-1.084,6.011c-0.179,0.841-0.381,2.01-0.967,2.348
			c-0.733,0.423-2.062,0.469-2.77,0.055c-0.491-0.287-0.653-1.694-0.464-2.481C94.851,241.312,95.782,238.31,96.772,234.819z"/>
		<path fill-rule="evenodd" clip-rule="evenodd" d="M214.799,398.145c1.482,8.784,0.738,22.016-1.018,22.69
			c0-7.498,0-15.096,0-22.693C214.121,398.143,214.459,398.144,214.799,398.145z"/>
		<path fill-rule="evenodd" clip-rule="evenodd" d="M213.526,442.21c-0.092-1.634-0.243-3.267-0.268-4.9
			c-0.067-4.455-0.114-8.912-0.081-13.368c0.004-0.59,0.519-1.176,0.797-1.763c0.437,0.306,1.25,0.605,1.253,0.916
			c0.074,6.349,0.056,12.698,0.056,19.048C214.698,442.165,214.112,442.188,213.526,442.21z"/>
		<path fill-rule="evenodd" clip-rule="evenodd" d="M33.06,246.3c-0.432,0.112-1.549,0.405-3.331,0.872
			c0.296-2.089,0.447-3.607,0.738-5.099c0.415-2.128,0.768-4.293,1.482-6.325c0.308-0.876,1.455-1.458,2.221-2.173
			c0.252,0.863,0.816,1.771,0.702,2.581C34.421,239.348,33.758,242.509,33.06,246.3z"/>
		<path fill-rule="evenodd" clip-rule="evenodd" d="M283.114,194.001c1.063-4.846,1.885-8.758,2.826-12.641
			c0.1-0.412,1.076-1.021,1.34-0.895c0.535,0.254,1.267,1.003,1.207,1.454c-0.46,3.428-0.907,6.884-1.804,10.211
			C286.467,192.929,284.578,193.276,283.114,194.001z"/>
		<path fill-rule="evenodd" clip-rule="evenodd" d="M297.26,378.983c0-5.839,0-11.679,0-17.519c0.386,0.003,0.772,0.006,1.158,0.009
			c0,5.86,0,11.721,0,17.581C298.033,379.031,297.646,379.007,297.26,378.983z"/>
		<path fill-rule="evenodd" clip-rule="evenodd" d="M367.406,364.71c2.478,4.06,0.961,7.646,1.208,11.125
			c-0.403,0.025-0.806,0.05-1.208,0.074C367.406,372.42,367.406,368.932,367.406,364.71z"/>
		<path fill-rule="evenodd" clip-rule="evenodd" d="M215.045,371.752c0,4.036,0,7.368,0,11.004
			C212.66,380.63,212.607,374.917,215.045,371.752z"/>
		<path fill-rule="evenodd" clip-rule="evenodd" d="M215.014,360.847c0,3.278,0,6.556,0,9.833c-0.381,0.008-0.762,0.015-1.143,0.022
			c0-1.701,0.398-3.531-0.099-5.071c-0.65-2.008-0.999-3.573,0.174-4.983C214.302,360.714,214.658,360.78,215.014,360.847z"/>
		<path fill-rule="evenodd" clip-rule="evenodd" d="M423.901,80.167c0.162-1.525,0.237-3.068,0.529-4.568
			c0.112-0.583,0.712-1.072,1.09-1.604c0.484,0.558,1.467,1.237,1.366,1.655c-0.426,1.775-1.174,3.473-1.804,5.199
			C424.688,80.623,424.295,80.396,423.901,80.167z"/>
		<path fill-rule="evenodd" clip-rule="evenodd" d="M130.071,443.01c-2.477-0.757-4.953-1.515-7.43-2.271
			c0.108-0.373,0.217-0.745,0.325-1.117c2.5,0.601,5.001,1.201,7.501,1.803C130.335,441.953,130.203,442.481,130.071,443.01z"/>
		<path fill-rule="evenodd" clip-rule="evenodd" fill="#FFFFFF" d="M507.056,314.181c-6.347,0-12.682,0.273-18.984-0.065
			c-8.918-0.479-17.873-0.986-26.698-2.268c-9.49-1.376-18.849-3.658-28.265-5.547c-5.438-1.092-11.108-1.563-16.239-3.479
			c-4.181-1.562-8.92-1.197-12.741-4.464c-2.125-1.816-5.813-1.695-8.667-2.787c-8.334-3.187-16.858-6.029-24.832-9.969
			c-9.355-4.622-18.632-9.657-27.154-15.638c-7.094-4.979-13.326-11.311-19.432-17.54c-6.965-7.107-13.033-15.033-16.856-24.35
			c-3.04-7.411-5.863-14.89-5.938-23.144c-0.027-2.918,1.199-3.443,3.501-3.39c13.601,0.313,27.203,0.656,40.805,0.93
			c3.37,0.068,6.744-0.09,10.115-0.125c3.431-0.037,6.765-0.377,9.689,2.445c1.933,1.865,4.418,1.289,6.733-0.458
			c1.437-1.083,3.493-1.902,5.269-1.896c32.225,0.108,64.449,0.379,96.673,0.572c10.091,0.06,20.183,0.018,30.273-0.03
			c2.792-0.014,3.34,1.818,3.353,3.95c0.028,4.742-0.019,9.488-0.166,14.228c-0.213,6.81-0.692,13.615-0.788,20.426
			c-0.154,11.083-0.106,22.168-0.113,33.253c-0.008,11.659,0.009,23.319,0.051,34.979
			C506.651,311.154,506.892,312.494,507.056,314.181z M357.275,237.868c1.321-3.38,2.256-6.239,3.665-8.842
			c0.195-0.358,2.734,0.552,4.954,1.044c1.105-2.14,2.6-5.037,4.092-7.924c0.293-0.102,1.464-0.258,1.506-0.568
			c0.152-1.112,0.28-2.488-0.245-3.371c-0.837-1.405-2.204-2.494-3.105-3.46c-0.755,6.211-6.755,1.36-8.453,2.766
			c-2.192,7.45-4.046,13.752-5.99,20.356C355.161,237.868,356.779,237.868,357.275,237.868z M367.601,270.941
			c0.387,0.011,0.775,0.021,1.164,0.032c0-12.557,0-25.113,0-37.67c-0.388-0.001-0.776-0.001-1.164-0.002
			C367.601,245.848,367.601,258.395,367.601,270.941z M375.689,242.175c0.418-2.714,0.484-5.135,1.194-7.35
			c1.518-4.735,1.654-4.692-0.554-5.726c-1.35,4.267-2.702,8.542-4.135,13.075C373.257,242.175,374.39,242.175,375.689,242.175z"/>
		<path fill-rule="evenodd" clip-rule="evenodd" fill="#FFFFFF" d="M508.78,314.136c0.252-5.562,0.63-10.633,0.677-15.707
			c0.073-8.044-0.17-16.091-0.105-24.135c0.064-7.854,0.45-15.705,0.508-23.559c0.105-14.339,0.175-28.679,0.024-43.016
			c-0.034-3.341,0.717-4.64,4.304-4.535c14.333,0.42,28.674,0.656,43.013,0.815c14.359,0.16,28.72,0.177,43.08,0.205
			c13.356,0.025,26.715-0.081,40.07,0.063c1.398,0.016,3.058,1.054,4.118,2.101c2.579,2.547,4.825,2.628,7.626,0.182
			c1.13-0.988,2.708-2.066,4.089-2.075c19.605-0.134,39.21-0.091,59.222-0.091c0.326,5.269,0.366,9.947-1.491,14.543
			c-1.708,4.228-2.816,8.735-4.861,12.777c-2.466,4.874-5.155,9.792-8.622,13.964c-5.487,6.604-11.304,13.053-17.728,18.721
			c-5.646,4.979-12.114,9.133-18.589,13.039c-7.534,4.547-15.267,8.885-23.292,12.465c-7.231,3.225-15.16,4.876-22.42,8.05
			c-4.173,1.825-8.34,3.178-12.714,4.226c-4.643,1.112-9.171,2.712-13.822,3.778c-6.225,1.429-12.488,2.747-18.794,3.749
			c-7.238,1.15-14.516,2.233-21.818,2.756c-12.794,0.914-25.619,1.393-38.435,2.01C511.609,314.521,510.385,314.274,508.78,314.136z
			 M635.646,225.008c1.051-7.615,4.916-9,10.892-5.032c-0.315-1.433-0.973-3.577-1.811-3.649c-4.098-0.357-8.243-0.162-11.024-0.162
			c-1.938,7.12-3.636,13.36-5.382,19.772c1.44,0,3.156,0,3.824,0c0.863-2.963,0.931-5.723,2.342-7.187
			c1.012-1.05,3.821-0.371,6.012-0.471c0.437-1.417,1.015-3.299,1.686-5.477C639.856,223.587,638.039,224.2,635.646,225.008z
			 M523.953,243.127c0.183-0.815,0.553-2.096,0.729-3.402c0.11-0.813,0.155-1.791-0.211-2.451c-0.218-0.392-1.547-0.645-1.918-0.36
			c-0.554,0.423-0.826,1.347-1.001,2.107c-0.901,3.914-1.418,7.952-2.721,11.723c-0.676,1.958-2.583,3.904-0.348,5.397
			c1.603,1.072,4.152,1.412,6.127,1.102c4.598-0.723,8.19-7.934,5.564-11.306C529.009,244.438,526.315,244.13,523.953,243.127z
			 M645.027,240.913c1.762,0.124,3.305,0.588,4.594,0.203c0.938-0.279,1.744-1.583,2.236-2.609c0.568-1.187,0.448-2.743,1.123-3.832
			c1.347-2.174,1.762-4.463-0.154-6.083c-1.981-1.675-3.999-0.574-6.047,1.794c1.821,0.179,3.028,0.299,4.475,0.442
			C651.534,235.549,646.552,236.669,645.027,240.913z"/>
		<path fill-rule="evenodd" clip-rule="evenodd" fill="#FFFFFF" d="M799.453,327.551c-6.721-2.219-13.098-4.324-19.474-6.43
			c-0.361,0.552-0.723,1.104-1.084,1.656c1.965,1.119,3.93,2.238,5.895,3.357c-0.372,0.492-0.743,0.984-1.114,1.478
			c-1.17,0.052-2.342,0.162-3.512,0.147c-36.577-0.452-73.153-0.997-109.73-1.356c-28.841-0.284-57.683-0.354-86.523-0.5
			c-23.803-0.121-47.606-0.234-71.41-0.284c-2.2-0.005-3.656-0.54-3.783-2.945c-0.131-2.489,1.098-3.653,3.588-3.677
			c7.869-0.078,15.766,0.179,23.599-0.407c10.152-0.759,20.267-2.1,30.371-3.392c6.164-0.788,12.368-1.582,18.396-3.031
			c9.913-2.386,19.695-5.314,29.537-7.993c2.271-0.618,4.631-0.968,6.831-1.767c6.437-2.338,12.999-4.452,19.169-7.378
			c7.902-3.747,15.481-8.18,23.179-12.356c3.942-2.14,7.993-4.132,11.724-6.603c8.461-5.6,15.881-12.384,22.785-19.865
			c6.635-7.191,12.758-14.831,16.673-23.64c3.344-7.522,5.888-15.683,5.543-24.248c-0.108-2.7,0.866-3.724,3.672-3.702
			c25.103,0.2,50.205,0.284,75.308,0.417c0.487,0.002,0.974,0.176,2.032,0.38C800.568,245.983,800.013,286.607,799.453,327.551z"/>
		<path fill-rule="evenodd" clip-rule="evenodd" fill="#FFFFFF" d="M506.543,319.61c-0.082,1.696-0.176,3.613-0.264,5.423
			c-45.811-0.456-91.297-0.909-136.978-1.363c-0.158-1.623-0.309-3.173-0.459-4.723c-0.347-0.097-0.695-0.194-1.042-0.291
			c-0.442,1.722-0.885,3.442-1.244,4.839c-20.567,0-41.04,0.053-61.513-0.034c-5.8-0.023-5.794-0.211-6.515-6.287
			c-0.035-0.295-0.331-0.558-0.917-1.487c-0.453,1.863-1.261,3.269-0.986,4.413c0.885,3.676-1.176,3.445-3.699,3.439
			c-25.335-0.061-50.671-0.037-76.416-0.037c0-7.441-0.019-14.496,0.004-21.551c0.103-31.974,0.214-63.947,0.331-95.92
			c0.021-5.549,0.08-5.399,5.742-5.263c12.938,0.313,25.881,0.483,38.822,0.588c11.562,0.093,23.125,0.019,35.333,0.019
			c0,7.782,0,14.683,0,21.584c0.324,0.079,0.649,0.158,0.974,0.237c0.413-0.54,0.826-1.081,1.549-2.026
			c1.213,2.703,2.609,5.318,3.587,8.081c4.631,13.086,14.163,22.588,23.5,32.196c6.394,6.58,13.6,12.104,21.853,16.325
			c5.739,2.936,11.186,6.475,16.59,10.009c1.536,1.004,2.468,2.934,3.665,4.424c0.347-2.99,2.606-1.506,4.242-0.893
			c5.687,2.131,11.722,3.768,16.842,6.881c7.724,4.697,16.517,5.841,24.748,8.71c8.111,2.827,16.786,4.085,25.26,5.803
			c6.894,1.397,13.854,2.466,20.787,3.652c0.857,0.147,1.743,0.127,2.614,0.188C477.256,317.552,491.558,318.558,506.543,319.61z
			 M298.614,224.36c-0.393-0.031-0.785-0.063-1.179-0.095c0,20.749,0,41.497,0,62.246c0.394-0.002,0.786-0.003,1.179-0.005
			C298.614,265.79,298.614,245.075,298.614,224.36z M297.345,314.743c0.362,0.013,0.724,0.025,1.085,0.038
			c0-8.832,0-17.664,0-26.496c-0.362,0-0.724,0-1.085,0C297.345,297.104,297.345,305.924,297.345,314.743z M367.713,314.983
			c0.308-0.004,0.614-0.008,0.922-0.011c0-3.959,0-7.918,0-11.878c-0.308,0.003-0.614,0.007-0.922,0.01
			C367.713,307.063,367.713,311.023,367.713,314.983z"/>
		<path fill-rule="evenodd" clip-rule="evenodd" fill="#FFFFFF" d="M716.52,202.379c-9.051,0-16.764,0.03-24.478-0.007
			c-11.348-0.055-22.694-0.189-34.042-0.212c-2.026-0.004-3.68,0.259-4.861-2.222c-0.561-1.179-3.028-1.516-4.681-2.096
			c-1.994-0.701-4.125-1.063-6.045-1.915c-4.766-2.119-9.431-4.462-14.159-6.663c-8.531-3.97-17.055-7.957-25.632-11.824
			c-4.65-2.097-9.472-3.819-14.094-5.971c-5.29-2.464-10.369-5.385-15.676-7.808c-9.536-4.354-19.227-8.372-28.751-12.752
			c-5.671-2.608-11.091-5.76-16.729-8.448c-4.891-2.332-9.991-4.227-14.855-6.609c-1.111-0.544-2.305-2.286-2.32-3.492
			c-0.166-12.87-0.058-25.743-0.141-38.614c-0.017-2.558,0.97-3.189,3.379-3.021c9.339,0.652,18.725,0.808,28.025,1.782
			c11.884,1.245,23.777,2.701,35.53,4.824c9.267,1.675,18.393,4.269,27.459,6.878c8.442,2.429,16.919,4.944,25.021,8.289
			c8.419,3.475,16.443,7.924,24.571,12.08c4.117,2.104,8.276,4.222,12.075,6.831c6.902,4.741,14.12,9.254,20.147,14.977
			c6.241,5.925,11.063,13.319,16.807,19.801c5.624,6.348,8.813,13.681,10.366,21.899C714.292,192.606,715.37,197.083,716.52,202.379
			z M566.577,124.446c0.168-0.035-0.203,0.139-0.548,0.098c-5.824-0.698-10.077,3.402-9.76,9.582
			c0.152,2.976,1.542,3.907,4.397,3.059c1.149-0.341,2.384-0.409,3.583-0.578c1.679-0.236,3.361-0.451,4.613-0.618
			c-0.64-1.949-1.504-3.161-1.246-4.045c1.023-3.509,2.506-6.881,3.591-10.375c0.479-1.548,0.416-3.264,0.631-5.19
			C565.145,116.694,569.637,122.354,566.577,124.446z M575.664,131.73c0.359,0.289,0.718,0.577,1.077,0.866
			c-2.161,2.866-4.322,5.731-7.13,9.456c2.626,0,4.515,0.14,6.329-0.164c0.248-0.042-0.042-2.334,0.231-3.512
			c0.192-0.826,1.227-1.481,1.349-2.293c0.307-2.047,1.179-4.78,0.231-6.062c-1.402-1.898-3.859-1.189-6.058,1.443
			C573.453,131.583,574.559,131.657,575.664,131.73z"/>
		<path fill-rule="evenodd" clip-rule="evenodd" fill="#FFFFFF" d="M507.818,200.271c-8.22,0-15.807,0.018-23.395-0.004
			c-30.229-0.083-60.458-0.174-90.687-0.271c-5.739-0.018-11.487,0.094-17.211-0.225c-1.559-0.087-3.364-1.25-4.413-2.472
			c-0.467-0.543,0.425-2.6,1.104-3.727c7.545-12.521,15.08-25.051,22.798-37.465c8.389-13.494,17.025-26.835,25.433-40.317
			c2.511-4.025,4.811-8.209,6.849-12.49c1.422-2.983,3.263-2.453,5.449-1.404c6.98,3.349,13.947,6.726,20.932,10.068
			c9.877,4.727,19.744,9.479,29.654,14.134c7.109,3.339,14.307,6.49,21.4,9.859c0.896,0.426,1.995,1.668,1.999,2.538
			C507.845,158.844,507.818,179.194,507.818,200.271z"/>
		<path fill-rule="evenodd" clip-rule="evenodd" fill="#FFFFFF" d="M300.149,199.286c1.709-6.634,3.213-12.784,4.885-18.887
			c2.717-9.917,9.019-17.725,15.327-25.488c5.744-7.068,12.418-13.097,19.745-18.58c10.359-7.755,21.57-14.013,33.247-19.28
			c10.279-4.637,21.119-8.053,31.773-11.832c4.638-1.646,9.387-3.052,14.182-4.14c1.541-0.35,3.393,0.668,5.103,1.061
			c-0.436,1.694-0.495,3.618-1.368,5.044c-6.029,9.854-12.265,19.583-18.363,29.396c-6.458,10.39-12.865,20.813-19.243,31.252
			c-4.58,7.497-9.11,15.024-13.588,22.581c-1.385,2.338-2.497,4.85-5.596,5.35c-0.24,0.039-0.611,0.092-0.68,0.246
			c-2.497,5.57-7.507,3.598-11.607,3.628c-16.863,0.125-33.728-0.013-50.592-0.063C302.765,199.572,302.157,199.47,300.149,199.286z
			 M371.684,136.185c-1.063,2.85,1.688,6.376-2.908,6.757c-5.52,0.457-9.624,5.5-8.917,11.068c0.374,2.947,2.145,3.848,4.885,2.588
			c0.693-0.318,1.969-0.687,2.254-0.374c2.502,2.746,3.449-0.234,4.805-0.852c-1.96-6.915,2.637-12.165,3.478-18.641
			C374.154,136.56,372.842,136.361,371.684,136.185z M375.522,161.42c0.292,0.271,0.584,0.542,0.875,0.813
			c0.647-0.504,1.694-0.895,1.873-1.531c0.981-3.498,1.838-7.04,2.516-10.608c0.127-0.667-0.755-1.524-1.171-2.293
			c-0.509,0.691-1.19,1.316-1.486,2.088c-0.545,1.42-0.937,2.912-1.258,4.402C376.364,156.655,375.966,159.042,375.522,161.42z"/>
		<path fill-rule="evenodd" clip-rule="evenodd" fill="#FFFFFF" d="M510.156,200.183c0-20.785,0-41.225,0-62.237
			c3.026,1.226,5.707,2.253,8.341,3.391c5.064,2.187,10.18,4.277,15.132,6.698c5.927,2.897,11.617,6.285,17.57,9.124
			c8.633,4.117,17.425,7.897,26.117,11.89c5.229,2.403,10.369,5,15.601,7.395c6.584,3.015,13.229,5.894,19.831,8.867
			c7.809,3.516,15.597,7.079,23.402,10.601c1.754,0.791,3.647,1.328,5.274,2.315c0.763,0.462,1.042,1.719,1.54,2.616
			c-0.895,0.412-1.794,1.186-2.686,1.178c-7.61-0.07-15.22-0.35-22.832-0.442c-34.9-0.421-69.801-0.801-104.701-1.203
			C512.011,200.367,511.276,200.269,510.156,200.183z M522.884,146.949c-1.573,5.721-2.582,11.016-4.548,15.926
			c-1.175,2.937-0.52,3.927,2.069,4.344c1.689,0.272,3.491,0.345,5.173,0.073c4.446-0.72,7.746-9.114,4.636-12.159
			c-1.25-1.224-3.628-1.297-5.91-2.028c0.46-1.652,1.021-3.666,1.613-5.793c-0.802-0.231-1.257-0.451-1.722-0.474
			C523.595,146.81,522.987,146.938,522.884,146.949z"/>
		<path fill-rule="evenodd" clip-rule="evenodd" fill="#FFFFFF" d="M432.545,97.438c24.772-3.443,49.552-6.813,75.015-6.648
			c0,13.988,0,27.737,0,42.566c-25.412-11.736-50.274-23.219-75.136-34.702C432.464,98.249,432.504,97.843,432.545,97.438z"/>
		<path fill-rule="evenodd" clip-rule="evenodd" fill="#FFFFFF" d="M17.627,244.216c-0.635-4.754,2.182-8.59,5.929-8.392
			C24.39,240.393,21.86,244.105,17.627,244.216z"/>
		<path fill-rule="evenodd" clip-rule="evenodd" fill="#FFFFFF" d="M397.449,59.724c0.218,4.988-1.058,6.151-5.609,5.118
			C391.859,59.374,393.312,58.048,397.449,59.724z"/>
		<path fill-rule="evenodd" clip-rule="evenodd" fill="#FFFFFF" d="M407.397,434.227c-0.626-5.27,1.428-8.438,5.381-8.588
			C413.99,430.51,412.481,433.034,407.397,434.227z"/>
		<path fill-rule="evenodd" clip-rule="evenodd" fill="#FFFFFF" d="M117.64,239.69c1.862-1.836,3.073-3.031,4.442-4.382
			C123.395,239.092,122.625,239.961,117.64,239.69z"/>
		<path fill-rule="evenodd" clip-rule="evenodd" fill="#FFFFFF" d="M51.692,238.661c1.364-1.091,2.727-2.182,4.09-3.273
			c0.373,0.537,1.16,1.431,1.053,1.556c-1.09,1.265-2.325,2.405-3.52,3.58C52.774,239.902,52.233,239.281,51.692,238.661z"/>
		<path fill-rule="evenodd" clip-rule="evenodd" d="M357.275,237.868c-0.496,0-2.114,0-3.577,0
			c1.943-6.604,3.797-12.906,5.99-20.356c1.697-1.405,7.697,3.446,8.453-2.766c0.902,0.966,2.269,2.055,3.105,3.46
			c0.525,0.883,0.397,2.259,0.245,3.371c-0.042,0.311-1.212,0.466-1.506,0.568c-1.492,2.888-2.987,5.785-4.092,7.924
			c-2.22-0.493-4.759-1.403-4.954-1.044C359.531,231.629,358.596,234.488,357.275,237.868z M361.109,226.342
			c3.575,0.066,6.794-1.994,6.446-4.318c-0.126-0.841-1.806-1.982-2.842-2.055C361.802,219.765,360.746,221.739,361.109,226.342z"/>
		<path fill-rule="evenodd" clip-rule="evenodd" d="M367.601,270.941c0-12.547,0-25.094,0-37.641
			c0.387,0.001,0.775,0.001,1.164,0.002c0,12.557,0,25.114,0,37.67C368.376,270.963,367.988,270.952,367.601,270.941z"/>
		<path fill-rule="evenodd" clip-rule="evenodd" d="M375.689,242.175c-1.3,0-2.433,0-3.495,0c1.434-4.534,2.786-8.809,4.135-13.075
			c2.208,1.034,2.071,0.991,0.554,5.726C376.174,237.04,376.107,239.46,375.689,242.175z"/>
		<path fill-rule="evenodd" clip-rule="evenodd" d="M635.646,225.008c2.394-0.808,4.211-1.421,6.538-2.206
			c-0.671,2.178-1.249,4.06-1.686,5.477c-2.19,0.1-5-0.58-6.012,0.471c-1.411,1.464-1.479,4.224-2.342,7.187
			c-0.668,0-2.384,0-3.824,0c1.746-6.413,3.444-12.653,5.382-19.772c2.781,0,6.927-0.195,11.024,0.162
			c0.838,0.072,1.495,2.216,1.811,3.649C640.562,216.007,636.696,217.393,635.646,225.008z"/>
		<path fill-rule="evenodd" clip-rule="evenodd" d="M523.953,243.127c2.362,1.003,5.056,1.312,6.223,2.81
			c2.626,3.372-0.967,10.583-5.564,11.306c-1.975,0.311-4.524-0.029-6.127-1.102c-2.235-1.493-0.328-3.439,0.348-5.397
			c1.303-3.771,1.819-7.809,2.721-11.723c0.175-0.76,0.447-1.684,1.001-2.107c0.371-0.284,1.7-0.031,1.918,0.36
			c0.366,0.66,0.321,1.638,0.211,2.451C524.506,241.031,524.136,242.312,523.953,243.127z M520.424,255.268
			c4.788,0.24,7.266-1.694,7.55-5.248c0.085-1.052-0.494-2.96-1.074-3.088c-1.109-0.244-3.085,0.13-3.549,0.922
			C522.109,249.974,521.479,252.45,520.424,255.268z"/>
		<path fill-rule="evenodd" clip-rule="evenodd" d="M645.027,240.913c1.524-4.244,6.507-5.364,6.227-10.085
			c-1.446-0.143-2.653-0.263-4.475-0.442c2.048-2.368,4.065-3.469,6.047-1.794c1.916,1.62,1.501,3.909,0.154,6.083
			c-0.675,1.089-0.555,2.645-1.123,3.832c-0.492,1.026-1.299,2.33-2.236,2.609C648.332,241.501,646.789,241.037,645.027,240.913z"/>
		<path fill-rule="evenodd" clip-rule="evenodd" d="M298.614,224.36c0,20.715,0,41.43,0,62.146
			c-0.393,0.002-0.785,0.003-1.179,0.005c0-20.749,0-41.497,0-62.246C297.829,224.297,298.222,224.329,298.614,224.36z"/>
		<path fill-rule="evenodd" clip-rule="evenodd" d="M297.345,314.743c0-8.819,0-17.639,0-26.458c0.362,0,0.724,0,1.085,0
			c0,8.832,0,17.664,0,26.496C298.068,314.769,297.707,314.756,297.345,314.743z"/>
		<path fill-rule="evenodd" clip-rule="evenodd" d="M367.713,314.983c0-3.96,0-7.92,0-11.879c0.308-0.003,0.614-0.007,0.922-0.01
			c0,3.96,0,7.919,0,11.878C368.328,314.976,368.021,314.979,367.713,314.983z"/>
		<path fill-rule="evenodd" clip-rule="evenodd" d="M566.577,124.446c3.06-2.092-1.433-7.752,5.262-8.066
			c-0.215,1.926-0.151,3.642-0.631,5.19c-1.085,3.493-2.567,6.866-3.591,10.375c-0.258,0.884,0.606,2.096,1.246,4.045
			c-1.252,0.167-2.935,0.382-4.613,0.618c-1.199,0.169-2.434,0.237-3.583,0.578c-2.855,0.848-4.245-0.083-4.397-3.059
			c-0.317-6.18,3.936-10.28,9.76-9.582C566.374,124.585,566.745,124.411,566.577,124.446z M559.6,134.187
			c5.204-0.439,7.347-3.997,4.964-8.238C559.851,128.302,558.831,129.995,559.6,134.187z"/>
		<path fill-rule="evenodd" clip-rule="evenodd" d="M575.664,131.73c-1.105-0.074-2.211-0.148-3.97-0.267
			c2.198-2.632,4.655-3.341,6.058-1.443c0.947,1.282,0.075,4.015-0.231,6.062c-0.122,0.813-1.156,1.467-1.349,2.293
			c-0.273,1.177,0.017,3.47-0.231,3.512c-1.814,0.304-3.703,0.164-6.329,0.164c2.808-3.724,4.969-6.59,7.13-9.456
			C576.382,132.308,576.023,132.019,575.664,131.73z"/>
		<path fill-rule="evenodd" clip-rule="evenodd" d="M371.684,136.185c1.159,0.176,2.471,0.375,3.597,0.546
			c-0.841,6.476-5.438,11.726-3.478,18.641c-1.356,0.618-2.303,3.598-4.805,0.852c-0.285-0.313-1.561,0.056-2.254,0.374
			c-2.741,1.26-4.512,0.359-4.885-2.588c-0.706-5.567,3.397-10.611,8.917-11.068C373.371,142.562,370.621,139.035,371.684,136.185z
			 M368.849,145.433c-4.771,0.365-6.531,2.762-6.067,8.005C367.215,153.686,369.304,151.043,368.849,145.433z"/>
		<path fill-rule="evenodd" clip-rule="evenodd" d="M375.522,161.42c0.444-2.377,0.841-4.765,1.35-7.128
			c0.321-1.491,0.712-2.982,1.258-4.402c0.296-0.772,0.978-1.396,1.486-2.088c0.416,0.769,1.298,1.627,1.171,2.293
			c-0.678,3.568-1.535,7.11-2.516,10.608c-0.179,0.636-1.226,1.027-1.873,1.531C376.106,161.962,375.815,161.691,375.522,161.42z"/>
		<path fill-rule="evenodd" clip-rule="evenodd" d="M522.884,146.949c0.104-0.01,0.711-0.139,1.312-0.111
			c0.465,0.023,0.92,0.243,1.722,0.474c-0.593,2.127-1.153,4.142-1.613,5.793c2.282,0.731,4.66,0.805,5.91,2.028
			c3.11,3.044-0.189,11.438-4.636,12.159c-1.682,0.271-3.483,0.199-5.173-0.073c-2.589-0.417-3.244-1.407-2.069-4.344
			C520.302,157.964,521.311,152.67,522.884,146.949z M522.747,166.282c5.054-3.484,6.133-4.751,5.359-7.604
			c-0.267-0.985-2.023-2.409-2.841-2.255C521.992,157.04,520.508,163.349,522.747,166.282z"/>
		<path fill-rule="evenodd" clip-rule="evenodd" fill="#FFFFFF" d="M361.109,226.342c-0.363-4.603,0.693-6.577,3.604-6.373
			c1.036,0.073,2.715,1.213,2.842,2.055C367.903,224.348,364.684,226.408,361.109,226.342z"/>
		<path fill-rule="evenodd" clip-rule="evenodd" fill="#FFFFFF" d="M520.424,255.268c1.055-2.817,1.686-5.294,2.927-7.414
			c0.464-0.792,2.439-1.166,3.549-0.922c0.58,0.128,1.159,2.036,1.074,3.088C527.689,253.573,525.212,255.508,520.424,255.268z"/>
		<path fill-rule="evenodd" clip-rule="evenodd" fill="#FFFFFF" d="M559.6,134.187c-0.769-4.192,0.251-5.884,4.964-8.238
			C566.946,130.189,564.804,133.747,559.6,134.187z"/>
		<path fill-rule="evenodd" clip-rule="evenodd" fill="#FFFFFF" d="M368.849,145.433c0.455,5.61-1.634,8.253-6.067,8.005
			C362.318,148.195,364.078,145.797,368.849,145.433z"/>
		<path fill-rule="evenodd" clip-rule="evenodd" fill="#FFFFFF" d="M522.747,166.282c-2.239-2.934-0.755-9.242,2.519-9.858
			c0.817-0.154,2.574,1.27,2.841,2.255C528.88,161.531,527.801,162.798,522.747,166.282z"/>
	</g>
</g>
</svg>
