<?xml version="1.0" encoding="utf-8"?>
<!-- Generator: Adobe Illustrator 16.0.0, SVG Export Plug-In . SVG Version: 6.00 Build 0)  -->
<!DOCTYPE svg PUBLIC "-//W3C//DTD SVG 1.1//EN" "http://www.w3.org/Graphics/SVG/1.1/DTD/svg11.dtd">
<svg version="1.1" id="Layer_1" xmlns="http://www.w3.org/2000/svg" xmlns:xlink="http://www.w3.org/1999/xlink" x="0px" y="0px"
	 width="769px" height="387.054px" viewBox="0 0 769 387.054" enable-background="new 0 0 769 387.054" xml:space="preserve">
<g>
	<g>
		<path fill-rule="evenodd" clip-rule="evenodd" fill="#FFFFFF" d="M-75.25,387.804c0-129.018,0-258.036,0-387.054
			c312.544,0,625.087,0,937.631,0c0,129.018,0,258.036,0,387.054C549.837,387.804,237.294,387.804-75.25,387.804z M122.785,125.322
			c-0.375-0.28-0.751-0.56-1.127-0.839c-1.629,1.716-3.174,3.525-4.922,5.109c-0.875,0.792-2.12,1.174-3.197,1.742
			c-0.381-1.172-1.087-2.343-1.092-3.518c-0.027-8.569,0.166-17.139,0.114-25.708c-0.019-3.097,1.182-4.112,4.244-4.096
			c14.996,0.081,29.992-0.017,44.988-0.053c23.858-0.057,47.717-0.088,71.574-0.209c2.86-0.015,3.595,1.2,3.554,3.858
			c-0.094,6.093,0.051,12.191,0.147,18.286c0.055,3.485,0.29,6.971,0.247,10.454c-0.01,0.793-0.708,1.719-1.351,2.289
			c-0.239,0.213-1.418-0.238-1.838-0.692c-1.725-1.866-3.241-3.93-5.021-5.737c-0.492-0.5-1.628-0.365-2.469-0.521
			c-0.084,0.744-0.482,1.658-0.19,2.198c0.732,1.354,2.171,2.408,2.633,3.811c2.535,7.687,4.849,15.445,7.269,23.168
			c0.393,1.254,0.937,2.46,1.463,3.824c3.02-2.653,11.417-30.817,10.374-32.963c-2.614,2.37-5.32,4.824-8.026,7.278
			c-0.283-0.208-0.567-0.416-0.851-0.623c0.345-2.396,0.935-4.786,0.992-7.188c0.221-9.239,0.209-18.481,0.424-27.72
			c0.068-2.919-1.376-4.126-3.973-4.226c-3.823-0.147-7.653-0.159-11.48-0.166c-15.361-0.027-30.722-0.045-46.083-0.037
			c-12.998,0.007-25.996,0.04-38.994,0.091c-8.489,0.034-16.979,0.035-25.465,0.24c-2.461,0.06-5.264,0.594-5.266,3.922
			c-0.003,8.491,0.245,16.982,0.324,25.474c0.031,3.225-0.124,6.451-0.194,9.675c-0.387,0.03-0.773,0.06-1.16,0.09
			c-2.072-2.413-4.111-4.858-6.26-7.201c-0.276-0.301-1.342-0.312-1.668-0.028c-0.432,0.376-0.833,1.296-0.663,1.773
			c1.083,3.037,2.297,6.027,3.528,9.009c1.408,3.412,3.128,6.719,4.247,10.221c0.922,2.886,1.047,6.019,1.765,8.984
			c0.275,1.138,1.212,2.115,2.057,3.512C115.375,147.19,119.081,136.256,122.785,125.322z M560.122,255.432
			c0.29,0.32,0.581,0.641,0.87,0.96c0.926-0.94,1.83-1.902,2.781-2.816c1.422-1.365,2.877-2.697,4.316-4.044
			c0.603,1.554,1.765,3.127,1.71,4.657c-0.239,6.653-1.191,13.292-1.209,19.938c-0.021,8.288,0.672,16.577,0.956,24.869
			c0.119,3.457,0.503,7.026-0.155,10.364c-1.196,6.071,0.24,8.288,6.462,8.268c9.736-0.029,19.472-0.146,29.208-0.156
			c12.49-0.014,24.98,0.01,37.47,0.086c3.051,0.018,4.679-1.052,4.604-4.362c-0.151-6.614-0.152-13.231-0.184-19.848
			c-0.026-5.507-0.006-11.014-0.006-16.57c3.082,2.811,5.842,5.326,8.601,7.842c0.284-0.265,0.568-0.531,0.852-0.796
			c-0.197-0.812-0.289-1.667-0.61-2.427c-1.499-3.544-3.405-6.956-4.521-10.613c-1.728-5.664-2.868-11.506-4.426-17.228
			c-0.237-0.872-1.308-1.965-2.121-2.085c-0.604-0.089-1.798,1.11-2.06,1.946c-0.59,1.878-0.557,3.952-1.149,5.83
			c-1.459,4.624-3.241,9.146-4.681,13.777c-1.161,3.733-3.815,7.136-2.296,11.864c2.627-2.792,5.254-5.585,8.135-8.647
			c0.214,1.375,0.492,2.345,0.496,3.316c0.037,9.587-0.099,19.176,0.099,28.758c0.077,3.708-1.313,4.646-4.849,4.56
			c-9.861-0.242-19.732-0.154-29.599-0.131c-5.612,0.013-11.23,0.034-16.836,0.274c-4.802,0.206-9.585,0.808-14.385,1.083
			c-2.986,0.17-4.468-1.181-4.499-4.441c-0.186-19.44-0.527-38.881-0.716-58.322c-0.006-0.551,1.522-1.666,1.627-1.587
			c1.694,1.29,3.312,2.69,4.864,4.154c0.785,0.74,1.407,1.655,2.103,2.49c0.38-0.206,0.761-0.413,1.141-0.619
			c-1.487-11.656-8.378-21.633-10.436-33.11c-0.403-0.018-0.807-0.035-1.209-0.053C567.02,233.553,563.571,244.492,560.122,255.432z
			 M549.543,127.929c-4.806,0.59-5.473,1.252-7.25,4.585c-0.592,1.108-2.014,1.773-3.057,2.64c-0.331-0.321-0.663-0.642-0.996-0.962
			c0.515-3.269,1.335-6.525,1.475-9.809c0.26-6.106,0.451-12.251,0.068-18.341c-0.474-7.548,1.897-15.231-1.049-22.663
			c-0.151-0.382,0.22-0.946,0.25-1.432c0.155-2.556,0.473-5.123,0.355-7.668c-0.098-2.142,1.527-4.172,3.634-4.015
			c0.947,0.07,1.906-0.053,2.86-0.056c4.116-0.013,8.237-0.15,12.345,0.019c3.9,0.161,7.784,0.678,11.681,0.954
			c0.546,0.039,1.114-0.448,1.694-0.621c0.663-0.198,1.361-0.488,2.023-0.441c4.677,0.333,9.345,1.017,14.02,1.043
			c3.804,0.021,7.611-1.015,11.418-1.027c3.695-0.012,7.389,0.964,11.089,1.011c8.226,0.104,16.459-0.029,24.685-0.222
			c2.765-0.064,4.061,0.536,4.005,3.722c-0.17,9.729-0.012,19.462,0.018,29.195c0.004,1.403,0,2.806,0,4.209
			c-0.385,0.206-0.771,0.412-1.155,0.618c-2.89-2.539-5.778-5.079-8.667-7.618c-0.42,0.38-0.84,0.761-1.26,1.142
			c0.825,1.425,1.909,2.762,2.435,4.291c2.925,8.519,5.689,17.093,8.586,25.622c0.304,0.892,1.113,1.611,1.688,2.411
			c0.477-0.881,1.146-1.711,1.396-2.652c0.725-2.75,1.057-5.62,1.951-8.307c2.36-7.092,4.936-14.112,7.425-21.161
			c-0.2-0.29-0.4-0.578-0.601-0.867c-2.681,2.215-5.36,4.43-8.526,7.046c-0.314-1.616-0.541-2.214-0.531-2.809
			c0.141-7.864,0.233-15.73,0.511-23.589c0.139-3.92,0.519-7.839,1.001-11.733c0.326-2.637-0.924-3.322-3.19-3.297
			c-8.246,0.093-16.492,0.209-24.739,0.223c-24.225,0.04-48.449,0.071-72.673,0.023c-7.021-0.015-7.02-0.142-7.02,6.61
			c0,0.5-0.049,1-0.041,1.499c0.315,18.722,0.647,37.443,0.921,56.165c0.014,0.998-0.455,2.002-0.7,3.004
			c-0.901-0.648-2.132-1.104-2.642-1.981c-1.516-2.601-3.341-4.46-6.935-4.798c3.837,11.03,7.466,21.464,11.122,31.977
			c5.063-2.028,2.831-7.043,4.451-10.423c1.629-3.4,1.904-7.422,3.188-11.024C546.022,135.002,547.777,131.777,549.543,127.929z
			 M128.267,246.188c0.755,0.935,2.059,1.206,3.449-0.837c0.761-1.117,1.555-2.301,2.602-3.106c1.14-0.877,2.59-1.351,3.905-2
			c-0.063,1.239-0.124,2.479-0.194,3.719c-0.029,0.498-0.112,0.994-0.114,1.492c-0.034,10.488-0.021,20.979-0.122,31.467
			c-0.019,1.943,0.712,2.737,2.573,2.733c4.114-0.007,8.228,0.022,12.341,0.021c17.101-0.008,34.202-0.1,51.301,0.007
			c6.985,0.044,6.974,0.239,6.322-6.484c-0.095-0.99-0.04-1.996-0.057-2.995c-0.11-6.238-0.148-12.48-0.364-18.717
			c-0.117-3.366-0.541-6.722-0.826-10.084c0.415-0.274,0.829-0.55,1.243-0.825c2.665,2.2,5.329,4.401,7.993,6.603
			c0.366-0.214,0.731-0.428,1.097-0.642c-3.657-10.762-7.313-21.523-11.383-33.501c-4.792,10.663-5.598,21.782-11.018,31.161
			c-0.474,0.82,0.081,2.235,0.176,3.643c4.504-0.813,4.263-7.653,9.064-6.712c0,3.358,0.004,6.313-0.001,9.27
			c-0.012,6.992-0.098,13.986-0.003,20.978c0.034,2.526-0.846,3.613-3.435,3.61c-9.738-0.014-19.477,0.142-29.215,0.124
			c-9.61-0.016-19.223-0.105-28.83-0.341c-1.014-0.024-2.724-1.118-2.867-1.935c-0.549-3.123-0.687-6.332-0.799-9.516
			c-0.17-4.792-0.203-9.59-0.266-14.385c-0.033-2.534-0.006-5.069-0.006-7.604c0.473-0.272,0.945-0.545,1.417-0.817
			c2.589,2.164,5.177,4.327,7.766,6.491c0.369-0.193,0.736-0.388,1.104-0.581c-3.658-10.807-7.316-21.613-11.121-32.85
			c-0.672,0.601-1.699,1.071-1.926,1.794c-1.473,4.686-2.671,9.458-4.155,14.141C132.204,234.918,130.286,240.26,128.267,246.188z
			 M132.173,55.288c0.853,1.072,1.36,2.29,2.248,2.719c2.803,1.355,4.355,3.578,3.411,6.402c-0.812,2.426-2.346,5.036-4.348,6.46
			c-1.049,0.747-3.786-0.88-5.761-1.436c-1.13-0.332-2.208,0.519-3.433,0.937c-1.251,0.427-2.74,0.796-3.946,0.489
			c-0.791-0.201-1.973-2.084-1.746-2.451c0.618-1,1.829-1.708,2.925-2.313c0.847-0.467,2.033-0.385,2.795-0.929
			c2.302-1.645,4.789-3.217,6.53-5.364c0.66-0.814-0.272-4.403-0.904-4.526c-2.95-0.569-7.395-1.664-8.819-0.181
			c-3.234,3.365-8.025,6.43-7.678,12.086c0.142,2.326,0.645,5.278,2.154,6.723c2.359,2.26,8.004,1.515,10.091-0.407
			c0.74-0.682,1.548-1.292,2.477-2.06c1.083,3.412,3.666,4.508,5.851,2.886c1.777-1.318,3.504-2.705,5.417-4.186
			c0.449,1.155,1.125,2.899,1.795,4.621c4.807,0.524,6.774-1.266,5.94-5.312c-1.124,0-3.088,0.288-3.201-0.047
			c-0.76-2.262-1.63-4.708-1.394-6.984c0.104-1.003,2.693-1.776,4.182-2.601c1.085-0.601,3.018-0.978,3.141-1.7
			c0.183-1.069-0.614-2.923-1.529-3.387c-0.908-0.46-2.688,0.07-3.704,0.742c-1.265,0.835-2.138,2.261-3.234,3.493
			C137.9,52.455,137.771,54.006,132.173,55.288z M222.122,314.024c-1.2,0.09-1.949,0.081-2.672,0.216
			c-0.992,0.186-1.963,0.479-2.943,0.727c-0.078-1.261-0.438-2.584-0.176-3.771c0.573-2.6,1.694-5.096,2.072-7.71
			c0.111-0.768-1.584-2.591-2.352-2.536c-2.135,0.154-4.232,0.992-6.31,1.665c-0.639,0.207-1.169,0.755-1.808,1.188
			c-0.369-1.234-0.671-2.248-1.021-3.42c-2.361,0.346-4.475,0.654-6.983,1.022c2.803,2.765,0.947,13.252-2.558,17.212
			c2.537,1.6,3.898,1.933,5.396-1.695c1.751-4.241,4.84-7.962,7.587-11.734c0.598-0.82,2.211-0.9,3.806-1.486
			c-0.076,1.583,0.097,2.509-0.196,3.252c-0.917,2.332-2.333,4.514-2.931,6.91c-0.479,1.92-0.045,4.068-0.017,6.115
			c1.794-0.54,3.592-1.063,5.378-1.628c0.554-0.176,1.074-0.46,1.514-0.652c1.884,3.894,5.422,2.566,8.161,2.759
			c5.148,0.361,8.369-3.193,4.956-9.926c-1.245-2.456-2.776-4.768-4.176-7.145c0.381-0.357,0.763-0.715,1.145-1.072
			c1.023,0.785,1.979,1.689,3.092,2.316c0.855,0.482,2.036,1.03,2.838,0.784c0.789-0.242,1.797-1.472,1.762-2.224
			c-0.036-0.775-1.157-2.066-1.902-2.141c-2.696-0.27-5.528-0.556-8.125,0.008c-2.084,0.453-3.604,2.295-2.457,4.891
			c0.84,1.9,1.797,3.75,2.621,5.658c0.516,1.194,1.184,2.447,1.209,3.688c0.018,0.812-0.889,2.199-1.567,2.324
			c-0.823,0.152-1.976-0.601-2.723-1.261C222.297,315.964,222.354,314.999,222.122,314.024z M594.107,339.436
			c-2.361-0.157-4.2-0.291-6.039-0.4c-2.502-0.149-5.343,0.119-5.618,2.959c-0.216,2.236,1.049,4.689,1.943,6.932
			c0.521,1.305,2.044,2.295,2.31,3.592c0.223,1.093-0.591,3.379-1.169,3.455c-1.268,0.168-2.776-0.556-3.99-1.256
			c-0.722-0.417-1.07-1.481-1.311-1.843c-1.859,0.67-3.279,1.182-5.72,2.06c0.613-2.643,0.954-4.124,1.3-5.604
			c0.651-2.777,1.441-5.536,1.816-8.351c0.06-0.448-1.86-1.77-2.655-1.613c-2.806,0.553-5.521,1.572-8.271,2.415
			c-1.128-3.293-2.647-3.646-6.931-1.426c0.815,0.92,1.59,1.793,1.918,2.162c-1.32,4.412-2.589,8.353-3.627,12.354
			c-0.237,0.914,0.322,2.034,0.516,3.061c1.188-0.434,2.847-0.53,3.457-1.38c0.956-1.332,0.979-3.298,1.796-4.773
			c2.111-3.819,3.811-8.132,9.234-9.486c1.121,5.883-4.956,10.586-2.175,16.689c1.442-0.696,2.707-1.456,4.073-1.915
			c0.925-0.312,2.541-0.652,2.909-0.206c2.921,3.541,6.771,2.153,9.968,1.499c4.869-0.997,5.606-4.626,2.608-8.563
			c-1.399-1.839-2.313-4.071-3.276-6.202c-0.237-0.526,0.19-1.353,0.313-2.041c0.776,0.153,1.668,0.12,2.305,0.505
			c1.066,0.644,1.971,1.555,3.543,2.847C593.659,342.603,593.868,341.121,594.107,339.436z M227.123,70.364
			c-1.165-0.754-2.042-1.323-2.505-1.623c0.874-3.967,1.803-7.507,2.345-11.106c0.144-0.95-0.74-2.799-1.455-2.97
			c-1.274-0.306-2.945,0.045-4.144,0.691c-1.358,0.731-2.38,2.088-3.593,3.216c-2.997-4.928-2.975-4.89-7.521-2.184
			c-0.586,0.349-2.134,0.31-2.253,0.03c-1.708-3.991-4.563-1.237-7.396-1.704c4.462,7.311-2.776,13.418-1.213,20.171
			c2.452,0.312,3.789-0.205,4.365-2.643c0.714-3.027,1.634-6.089,3.051-8.835c0.903-1.749,2.869-2.95,4.358-4.396
			c0.762,1.54,0.896,2.551,0.643,3.453c-0.882,3.149-2.009,6.233-2.794,9.403c-0.213,0.86,0.45,1.938,0.711,2.916
			c0.842-0.464,2.061-0.719,2.459-1.432c1.378-2.469,2.453-5.105,3.676-7.661c1.352-2.825,2.533-5.85,6.924-6.313
			c-0.803,3.105-1.098,6.085-2.357,8.579c-1.163,2.303-2.99,4.903-0.766,6.568c3.002,2.248,5.126-0.456,6.702-3.021
			C226.542,71.207,226.749,70.922,227.123,70.364z M138.758,304.395c0.497,0.23,0.996,0.462,1.493,0.692
			c-1.237,3.58-2.479,7.159-3.709,10.743c-0.298,0.869-1.054,2.124-0.734,2.543c0.579,0.759,1.815,1.396,2.761,1.374
			c0.729-0.018,2.019-1.088,2.055-1.746c0.268-4.843,3.698-8.117,5.819-12.008c0.515-0.943,2.201-1.249,3.982-2.179
			c-1.339,5.04-2.427,8.906-3.382,12.805c-0.658,2.688,1.013,4.274,3.499,3.098c2.063-0.978,5.394-1.821,2.505-5.483
			c-0.594-0.754-0.245-2.415-0.031-3.604c0.3-1.666,1.113-3.259,1.274-4.925c0.151-1.56-0.261-3.174-0.425-4.763
			c-2.002,0.364-4.07,0.528-5.982,1.164c-1.248,0.416-2.267,1.517-3.472,2.37c-2.712-8.098-6.697-0.462-9.961-1.531
			c-0.682-4.449-3.561-1.424-4.605-1.612c-1.31,5.373-2.615,10.362-3.677,15.403c-0.197,0.938,0.581,2.08,0.908,3.128
			c1.304-0.641,3.136-0.951,3.788-1.997c0.986-1.579,0.896-3.793,1.717-5.521C134.042,309.267,134.681,305.387,138.758,304.395z
			 M241.888,175.738c-3.124,0.547-6.244,0.248-8.224,1.608c-4.748,3.264-6.079,10.632-3.702,16.253
			c1.725,4.076,4.414,5.464,8.893,4.749c1.706-0.272,3.477-0.508,5.18-0.348c2.408,0.226,3.348-0.435,3.304-3.017
			c-0.129-7.847,0.051-15.7-0.112-23.545c-0.022-1.042-1.261-2.854-2.062-2.926c-1.843-0.165-3.708,0.46-3.317,3.197
			C242.067,173.243,241.888,174.832,241.888,175.738z M650.858,159.612c-3.017,0.58-5.246,1.05-7.49,1.43
			c-4.486,0.76-8.145,5.842-6.626,9.257c1.425,3.205,5.832,4.961,9.517,4.121c2.184-0.497,4.527-0.277,6.725-0.737
			c0.995-0.208,2.581-1.287,2.58-1.968c-0.008-4.724-0.193-9.466-0.702-14.161c-0.17-1.57-1.25-4.141-2.261-4.321
			c-3.597-0.645-7.4-0.873-11.003-0.372c-1.359,0.189-2.474,2.736-3.487,4.342c-0.214,0.338,0.68,1.856,0.768,1.83
			c1.453-0.43,3.041-0.767,4.239-1.625C646.014,155.334,648.134,156.213,650.858,159.612z M162.756,54.666
			c-0.911-1.804-1.725-3.417-2.474-4.901c-2.602,2.281-4.667,4.089-6.46,5.662c0.154,1.768,0.688,3.525,0.369,5.11
			c-0.731,3.619-1.651,7.239-2.949,10.688c-0.724,1.926-0.277,2.675,1.343,3.426c2.892,1.34,4.904-0.023,6.275-4.187
			c-4.822-4.297,1.069-8.136,0.032-11.991c0.863-0.425,1.391-0.827,1.975-0.944c1.334-0.268,3.002-0.939,3.948-0.406
			c0.725,0.41,0.959,2.501,0.697,3.686c-0.704,3.162-2.001,6.198-2.638,9.369c-0.292,1.453,0.41,3.106,0.662,4.669
			c1.396-1.069,3.238-1.872,4.074-3.275c1.081-1.813,1.009-4.308,2.076-6.133c1.202-2.056,2.872-4.885,4.773-5.278
			c4.884-1.01,4.979-0.546,4.131-6.147c-2.149,0.78-4.164,1.511-6.241,2.264C169.909,52.753,166.139,55.214,162.756,54.666z
			 M121.984,197.496c-0.605-3.099-1.22-5.248-1.4-7.431c-0.215-2.606,0.161-5.266-0.115-7.86c-0.393-3.692-2.432-7.185-6.536-6.335
			c-2.65,0.548-5.436,1.07-7.755,2.342c-1.186,0.651-1.479,2.927-2.175,4.468c1.543-0.136,3.092-0.225,4.627-0.419
			c2.101-0.266,4.185-0.723,6.291-0.828c0.41-0.021,1.061,1.146,1.229,1.854c0.06,0.251-0.93,0.928-1.534,1.132
			c-2.862,0.961-5.878,1.561-8.608,2.799c-2.741,1.243-3.884,3.798-3.325,6.806c0.497,2.679,2.386,4.017,5.031,4.048
			c2.083,0.024,4.17-0.268,6.256-0.4c1.21-0.077,2.421-0.146,3.634-0.167C119.217,197.475,120.832,197.496,121.984,197.496z
			 M547.16,187.306c0.287-0.062,0.574-0.123,0.861-0.185c-0.662-2.66-0.478-6.244-2.161-7.788c-3.573-3.275-9.994-5.38-14.017,0.652
			c-0.701,1.051-1.271,2.189-1.9,3.287c1.545-0.228,3.102-0.394,4.632-0.699c1.971-0.392,3.906-1.112,5.885-1.231
			c0.697-0.042,1.476,1.274,2.216,1.969c-0.768,0.719-1.416,1.714-2.324,2.105c-3.007,1.294-6.152,2.268-9.143,3.596
			c-0.847,0.375-1.679,1.446-1.942,2.364c-1.355,4.72,2.073,8.158,7.051,7.531c3.092-0.389,6.252-0.216,9.379-0.352
			c1.973-0.086,3.361-0.547,2.714-3.166C547.758,192.753,547.559,190.005,547.16,187.306z M634.051,26.751
			c-3.208,0.395-5.611,0.098-7.365,1.025c-4.35,2.299-7.383,5.897-8.893,10.781c-0.873,2.822-1.224,5.356,0.964,7.628
			c2.231,2.318,4.61,0.943,6.907,0.062c0.656-0.252,1.214-0.756,1.762-1.108c4.611,3.106,5.372,2.98,8.11-0.905
			c-0.71-1.417-2.063-2.825-1.812-3.839c1.072-4.347,2.709-8.552,3.961-12.86c1.052-3.616,3.973-6.932,2.112-11.161
			c-1.368,0-2.729-0.316-3.801,0.102c-0.834,0.326-1.78,1.526-1.859,2.411C633.897,21.588,634.051,24.326,634.051,26.751z
			 M635.942,339.186c-2.048,0.178-3.254,0.447-4.435,0.36c-10.522-0.766-15.392,3.186-16.322,13.327
			c-0.367,4.005,1.913,6.122,5.885,5.339c1.744-0.346,3.438-0.946,5.015-1.393c1.929,5.542-3.701,7.784-5.529,12.387
			c3.066,0,5.149,0.012,7.231-0.004c2.458-0.018,3.009-1.015,2.663-3.562c-0.351-2.589,0.078-5.39,0.678-7.979
			C632.512,351.677,634.206,345.764,635.942,339.186z M206.686,188.499c-1.394-3.563-2.812-6.389-3.594-9.381
			c-1.013-3.881-3.097-3.726-6.166-2.235c0.125,1.282-0.038,2.611,0.408,3.688c2.034,4.909,4.65,9.62,6.214,14.664
			c0.811,2.617,1.489,6.447-3.122,7.503c-0.499,0.113-1.158,1.357-1.027,1.906c0.149,0.621,1.031,1.329,1.723,1.513
			c3.548,0.941,6.53-1.731,7.787-5.928c1.342-4.48,3.459-8.723,4.946-13.167c0.958-2.864,1.495-5.887,1.959-8.88
			c0.092-0.595-0.891-1.768-1.575-1.954c-0.649-0.177-1.918,0.379-2.273,0.987c-0.711,1.22-0.814,2.786-1.477,4.046
			C209.271,183.582,210.101,187.082,206.686,188.499z M656.114,228.59c-1.024-2.071-1.645-4.314-3.018-5.908
			c-3.581-4.158-3.536-5.642,0.469-9.128c1.079-0.939,1.531-2.676,2.039-4.127c0.099-0.284-1.069-1.446-1.326-1.349
			c-1.409,0.537-3.205,1.006-3.971,2.115c-2.586,3.751-2.616,4.041-6.672,0.351c-0.436-0.397-0.53-1.406-0.958-1.529
			c-1.191-0.343-2.474-0.37-3.72-0.522c-0.026,1.14-0.286,2.344,0.001,3.397c0.197,0.727,1.462,1.14,1.713,1.876
			c0.782,2.289,1.947,4.727,1.729,6.987c-0.174,1.789-2.274,3.34-3.306,5.12c-0.486,0.839-0.47,1.969-0.682,2.967
			c1.066,0.07,2.451,0.6,3.138,0.122c1.833-1.271,3.366-2.975,5.362-4.825C649.434,226.142,650.803,231.85,656.114,228.59z
			 M672.181,30.866c0.42,0.404,0.839,0.808,1.259,1.212c-1.045,3.294-2.24,6.55-3.067,9.897c-0.379,1.538-0.035,3.254-0.019,4.89
			c1.725-0.374,3.495-0.614,5.15-1.187c0.688-0.239,1.13-1.192,1.683-1.82c-0.389-0.069-0.778-0.137-1.167-0.205
			c0.097-2.155,0.089-4.321,0.32-6.461c0.215-1.971,0.946-3.914,0.956-5.872c0.006-1.313-0.583-3.513-1.375-3.75
			c-1.392-0.417-3.279,0.07-4.705,0.728c-1.562,0.72-2.837,2.063-4.683,3.476c-0.18-2.042-0.291-3.316-0.4-4.553
			c-5.155-0.299-5.133-0.3-4.846,4.499c0.042,0.717-0.154,1.479-0.377,2.177c-1.284,4.023-2.609,8.033-3.91,12.016
			c3.349,1.909,4.176,1.439,5.35-1.769c1.084-2.963,2.43-5.939,4.249-8.49C667.98,33.717,670.286,32.438,672.181,30.866z
			 M525.861,27.646c-4.387-0.208-8.463-1.235-12.085-0.366c-4.68,1.123-9.607,10.543-9.224,15.609c0.275,3.629,2.082,5,5.593,4.134
			c1.068-0.264,2.05-0.868,3.111-1.181c0.854-0.252,2.158-0.749,2.594-0.37c3.362,2.933,5.522,0.523,8.12-1.64
			c-2.908-1.479-3.68-3.505-2.255-6.41C523.123,34.554,524.229,31.538,525.861,27.646z M533.94,26.777
			c-2.125,0.289-3.984,0.31-5.603,0.946c-0.343,0.135,0.392,2.532,0.289,3.86c-0.172,2.206-0.493,4.42-0.98,6.579
			c-0.596,2.631-1.428,5.209-2.152,7.792c2.16,1.772,3.192,0.641,4.212-1.074c2.406-4.051,4.81-8.112,7.435-12.021
			c0.592-0.881,2.084-1.158,3.163-1.713c0.385,0.376,0.771,0.751,1.156,1.126c-1.578,4.506-3.155,9.011-4.75,13.565
			c2.82,1.727,4.796,1.26,6.979-0.722c2.22-2.015,0.697-2.719-0.625-3.964c-0.352-0.331,0.1-1.57,0.262-2.375
			c0.561-2.783,1.502-5.541,1.648-8.343c0.168-3.201-1.736-4.213-4.605-2.77c-1.959,0.985-3.813,2.18-6.058,3.48
			C534.186,29.669,534.097,28.615,533.94,26.777z M143.329,183.258c-1.586-2.587-2.159-4.263-3.324-5.216
			c-1.2-0.982-2.976-1.261-4.5-1.847c0.464,1.642,0.428,3.783,1.48,4.837c4.089,4.096,4.346,5.146,1.105,10.075
			c-1.346,2.046-2.621,4.138-4.232,6.689c3.194,0.421,5.845,1.146,7.149-2.733c0.313-0.929,1.636-2.083,2.508-2.094
			c0.84-0.011,2,1.16,2.493,2.091c1.54,2.909,3.636,3.76,6.737,2.527c0-0.632,0.167-1.213-0.038-1.59
			c-0.322-0.589-0.883-1.054-1.367-1.546c-5.278-5.387-5.123-8.644,0.266-13.687c0.985-0.922,1.081-2.795,1.587-4.229
			c-0.466-0.369-0.932-0.737-1.396-1.106c-1.525,1.057-3.181,1.971-4.538,3.211C145.898,179.884,144.836,181.454,143.329,183.258z
			 M693.686,342.392c-0.473,2.474-0.622,4.262-1.173,5.916c-0.85,2.55-2.087,4.971-2.911,7.527
			c-0.243,0.755,0.373,2.564,0.556,2.559c1.521-0.046,3.141-0.158,4.507-0.759c0.799-0.352,1.846-2.202,1.662-2.415
			c-3.412-3.958,1.106-7.145,0.942-10.739c-0.055-1.201,0.732-3.155,0.253-3.485c-1.278-0.881-3.134-1.638-4.579-1.39
			c-2.065,0.354-3.968,1.647-5.949,2.543c-1.059-3.469-2.558-3.881-5.136-2.479c-1.349,5.881-2.528,10.884-3.614,15.907
			c-0.171,0.789,0.085,1.671,0.144,2.509c0.858-0.118,2.078,0.076,2.505-0.416c1.16-1.342,2.111-2.908,2.918-4.502
			C685.911,349.022,687.239,344.265,693.686,342.392z M648.467,357.27c-0.251-0.411,0.028,0.517,0.384,0.547
			c1.612,0.14,3.295,0.24,4.85-0.105c0.614-0.136,1.55-1.922,1.342-2.194c-3.082-4.033,0.809-7.576,0.672-11.36
			c-0.06-1.619,0.025-3.243,0.045-4.865c-1.451,1.334-2.925,2.646-4.332,4.024c-0.205,0.201,0.003,0.77-0.15,1.085
			c-1.541,3.175-3.009,6.395-4.772,9.442c-0.368,0.638-1.864,0.622-3.808,1.189c1.313-4.44,2.47-7.926,3.328-11.482
			c0.294-1.225,0.097-3.666-0.314-3.767c-1.561-0.384-3.372-0.297-4.943,0.14c-0.9,0.25-1.519,1.514-2.789,2.891
			c1.765,0,2.562,0,3.987,0c-0.751,2.622-1.598,4.907-2.031,7.269c-0.475,2.581-0.569,5.231-0.83,7.851
			C641.889,357.735,644.674,357.538,648.467,357.27z M560.518,178.696c1.483,1.724,3.236,3.118,4.096,4.933
			c0.908,1.925,1.817,4.546,1.198,6.334c-0.925,2.673-3.187,4.883-4.884,7.296c2.438,2.228,4.293,1.765,6.234-1.347
			c0.637-1.023,1.683-2.095,2.758-2.413c0.526-0.154,1.482,1.455,2.358,2.112c1.513,1.133,3.067,2.231,4.719,3.136
			c0.333,0.182,1.73-0.791,1.704-0.858c-0.706-1.757-1.19-3.774-2.405-5.125c-3.596-4-3.563-5.949,0.306-9.766
			c1.221-1.205,1.855-3.003,2.889-4.75c-3.703-1.165-5.658-0.242-7.106,2.278c-1.659,2.888-4.123,3.003-5.278,0.003
			C565.626,176.688,563.484,177.185,560.518,178.696z M197.259,300.728c-4.357,0.206-8.204-0.24-11.671,0.705
			c-4.689,1.278-8.24,8.104-8.174,13.937c0.044,3.905,2.727,6.028,6.38,4.557c2.391-0.963,4.361-1.554,6.898-0.398
			c0.978,0.445,2.885-0.337,3.899-1.147c0.461-0.369-0.357-2.166-0.345-3.313c0.018-1.563,0.115-3.16,0.463-4.678
			C195.415,307.307,196.312,304.267,197.259,300.728z M195.856,69.509c-0.421-0.388-0.842-0.776-1.264-1.164
			c-1.156,0.804-2.216,1.88-3.497,2.334c-1.272,0.45-2.861,0.605-4.13,0.249c-0.774-0.218-1.897-2.052-1.662-2.453
			c0.607-1.034,1.801-1.83,2.918-2.423c0.958-0.51,2.156-0.547,3.212-0.899c3.933-1.312,6.714-6.13,5.342-9.188
			c-0.785-1.749-6.726-3.004-8.48-1.116c-3.737,4.026-9.453,7.297-7.792,14.246c0.474,1.983,1.45,5.17,2.649,5.396
			c2.967,0.559,6.323,0.147,9.266-0.731C193.859,73.328,194.729,70.986,195.856,69.509z M247.059,54.857
			c-5.548-2.47-9.537,0.763-12.837,4.289c-2.906,3.105-4.233,7.384-3.055,11.719c0.612,2.251,1.775,4.639,4.998,4.551
			c3.456-0.094,6.606-0.843,8.879-3.615c0.522-0.638,0.485-1.734,0.933-3.536c-2.489,1.144-3.963,2.265-5.528,2.41
			c-1.41,0.131-3.476-0.371-4.26-1.372c-1.337-1.706,0.224-2.499,1.899-2.888c0.951-0.22,1.808-0.819,2.75-1.114
			C246.54,63.516,248.088,60.967,247.059,54.857z M536.544,351.934c0.254,5.236,1.868,6.684,7.042,6.845
			c6.765,0.212,12.376-5.278,12.23-12.839c-0.102-5.242-2.001-6.768-7.224-7.096C542.508,338.461,535.902,345.676,536.544,351.934z
			 M172.976,314.565c-1.17,0.404-2.343,0.804-3.512,1.215c-1.252,0.44-2.715,1.519-3.696,1.182
			c-1.261-0.433-2.218-1.937-3.063-3.148c-0.104-0.15,1.252-1.921,1.965-1.945c4.992-0.175,8.398-2.699,10.636-6.899
			c0.39-0.732,0.062-2.654-0.486-2.93c-1.665-0.835-3.648-1.694-5.421-1.542c-6.596,0.569-12.018,6.981-11.933,13.721
			c0.009,0.681,0.33,1.404,0.659,2.026c1.351,2.546,3.303,4.169,6.383,4.071C168.297,320.195,171.516,319.102,172.976,314.565z
			 M602.33,40.113c3.335-1.194,6.53-2.095,9.506-3.473c2.864-1.327,4.896-5.706,3.255-7.64c-1.185-1.396-3.946-1.751-6.063-1.948
			c-1.279-0.119-2.672,0.946-4.01,1.49c-4.104,1.669-4.937,5.912-6.57,9.229c-0.954,1.938-0.722,5.632,0.575,7.271
			c2.945,3.721,10.16,3.22,13.44-0.355c0.53-0.578,0.434-1.732,0.626-2.62c-0.88,0.07-1.965-0.168-2.607,0.259
			C605.902,45.369,604.981,45.214,602.33,40.113z M654.246,41.571c-1.242,0.404-2.614,0.592-3.701,1.251
			c-3.146,1.91-5.654,1-7.158-2.844c3.257-1.109,6.576-2.067,9.753-3.372c2.605-1.07,3.742-5.665,2.233-8.024
			c-1.158-1.814-5.764-2.25-7.813-1.056c-4.237,2.467-6.653,6.194-8.248,10.681c-0.965,2.718,0.095,6.975,2.337,8.369
			C644.813,48.543,652.717,46.164,654.246,41.571z M563.598,41.436c0.133-0.524,0.267-1.049,0.399-1.574
			c1.752-0.552,3.511-1.08,5.251-1.663c1.487-0.498,3.27-0.697,4.372-1.658c4.585-4,5.253-7.451,1.15-9.171
			c-1.929-0.809-4.782-0.069-7.009,0.63c-4.526,1.422-5.643,6.021-7.543,9.577c-2.187,4.092,0.12,9.25,4.359,9.467
			c3.269,0.168,6.664-1.679,9.942-2.806c0.311-0.107,0.188-1.475,0.354-3.163c-2.42,1.321-4.153,3.018-5.862,2.993
			C567.195,44.04,565.401,42.382,563.598,41.436z M608.773,338.402c-5.825-0.29-11.224,5.829-12.168,12.607
			c-0.791,5.671,2.155,8.624,7.813,7.539c2.142-0.41,4.193-1.434,6.186-2.386c0.523-0.251,0.675-1.28,0.998-1.952
			c-0.659-0.078-1.368-0.351-1.97-0.197c-1.552,0.396-3.095,1.464-4.567,1.345c-1.267-0.103-2.432-1.472-3.641-2.28
			c0.825-0.917,1.483-2.171,2.51-2.682c2.193-1.091,5.094-1.255,6.734-2.816c1.532-1.458,2.311-4.216,2.388-6.438
			C613.086,340.28,610.284,339.319,608.773,338.402z M249.167,67.836c-0.435,0.937-0.723,1.47-0.936,2.031
			c-1.686,4.447-1.223,5.111,3.625,5.241c0.375,0.011,0.753-0.013,1.123,0.032c7.367,0.915,9.137-0.952,7.794-9.065
			c-0.254-1.534-2.197-2.733-3.14-4.227c-0.609-0.965-0.981-2.166-1.109-3.301c-0.045-0.395,1.139-1.392,1.449-1.276
			c0.842,0.313,1.532,1.06,2.256,1.666c0.812,0.678,1.595,1.39,2.392,2.088c0.394-1.078,0.917-2.13,1.143-3.242
			c0.191-0.94,0.039-1.952,0.039-3.232c-1.701-0.103-3.163-0.24-4.625-0.269c-2.294-0.044-5.257-0.679-5.851,2.327
			c-0.479,2.421,0.016,5.153,0.601,7.624c0.375,1.58,1.957,2.847,2.496,4.427c0.302,0.886-0.087,2.555-0.771,3.072
			c-0.625,0.474-2.276,0.202-3.094-0.329C251.378,70.639,250.545,69.341,249.167,67.836z M675.365,355.7
			c-0.071-0.547-0.142-1.094-0.213-1.642c-1.436,0.234-2.867,0.491-4.307,0.697c-1.555,0.223-3.252,0.858-4.63,0.448
			c-1.071-0.318-1.747-1.965-2.598-3.021c0.899-0.622,1.724-1.43,2.714-1.832c2.632-1.068,5.67-1.495,7.889-3.091
			c1.447-1.04,2.323-3.65,2.409-5.604c0.1-2.287-2.078-2.555-4.128-2.656c-9.515-0.473-12.926,7.821-12.436,14.563
			c0.266,3.651,2.287,5.601,5.959,5.101C669.215,358.23,672.258,356.729,675.365,355.7z M528.524,341.015
			c1.503,2.02,2.333,3.395,3.478,4.42c0.192,0.171,1.969-1.015,2.595-1.876c0.474-0.651,0.705-2.247,0.303-2.618
			c-1.115-1.029-2.61-2.289-3.969-2.306c-7.681-0.091-13.035,5.082-13.694,12.831c-0.351,4.114,1.773,6.85,5.709,7.353
			c4.211,0.537,9.346-2.499,9.954-6.486c-2.04,0.899-3.698,2.034-5.485,2.301c-1.67,0.248-4.423,0.137-4.996-0.829
			c-0.82-1.38-0.273-3.712,0.046-5.577c0.188-1.094,0.899-2.224,1.672-3.064C525.593,343.576,527.264,342.188,528.524,341.015z
			 M592.197,29.961c-0.274,2.453-0.058,4.888,3.129,3.375c0.773-0.367,1.288-2.196,1.169-3.27c-0.116-1.057-1.128-2.806-1.852-2.86
			c-2.393-0.18-5.007-0.217-7.217,0.577c-4.483,1.612-6.442,5.605-8.025,9.84c-1.612,4.313-0.005,8.478,4.02,9.766
			c3.662,1.172,9.808-1.925,10.886-6.002c-1.604,0.443-2.931,0.88-4.288,1.165c-1.498,0.313-3.495,1.182-4.428,0.553
			c-1.253-0.846-2.32-2.897-2.312-4.425c0.008-1.551,1.812-3.015,2.142-4.655C586.182,30.248,588.786,30.042,592.197,29.961z
			 M688.6,43.649c-4.917-1.829-3.736-4.583-2.284-7.436c0.329-0.647,0.548-1.439,0.53-2.157c-0.053-2.294,0.903-3.428,3.144-4.324
			c5.13-2.053-3.425-3.775-0.326-5.994c-0.556-0.376-1.093-0.786-1.68-1.104c-0.146-0.08-0.516,0.071-0.676,0.226
			c-2.1,2.024-4.18,4.069-6.526,6.365c3.307,1.158,2.457,3.104,1.514,5.383c-1.177,2.847-2.111,5.828-2.771,8.835
			c-0.24,1.093,0.264,3.063,1.051,3.49c1.037,0.564,2.798,0.304,4.039-0.16C685.801,46.33,686.723,45.173,688.6,43.649z
			 M703.272,339.078c-0.806,4.469-1.338,7.644-1.963,10.8c-0.262,1.317-0.99,2.591-1.019,3.895
			c-0.034,1.585,0.444,3.182,0.701,4.772c1.88-0.418,3.903-0.535,5.591-1.349c1.419-0.684,1.625-1.931-0.164-3.07
			c-0.818-0.521-1.735-2.239-1.447-2.925c1.592-3.773,3.543-7.396,5.573-11.479c-0.151-1.384-0.384-3.522-0.758-6.947
			C706.877,335.59,704.509,337.881,703.272,339.078z M549.577,27.752c0.295,2.224,0.827,3.758,0.619,5.183
			c-0.429,2.935-1.407,5.788-1.853,8.721c-0.239,1.579,0.156,3.254,0.264,4.886c1.695-0.316,3.471-0.413,5.068-0.997
			c2.44-0.891,3.1-2.128,0.178-3.521c-0.641-0.305-1.572-1.314-1.447-1.71c1.326-4.228,1.541-9.133,6.269-11.151
			c-0.531-2.079-1.012-3.953-1.752-6.846C554.323,24.242,551.648,26.22,549.577,27.752z M185.384,189.869
			c0.083-0.433,0.167-0.866,0.25-1.299c-0.795-0.888-1.516-2.456-2.4-2.555c-5.251-0.59-10.54-1.016-15.818-1.041
			c-0.955-0.004-1.918,2.106-2.877,3.241c1.145,0.698,2.257,1.925,3.44,1.997c3.952,0.24,7.929,0.104,11.896,0.035
			C181.712,190.215,183.547,190,185.384,189.869z M662.465,189.24c0.012-0.454,0.023-0.908,0.036-1.361
			c-1.485-0.338-2.97-0.956-4.458-0.966c-7.443-0.049-14.891-0.013-22.331,0.184c-1.34,0.036-2.656,0.965-3.983,1.482
			c1.237,0.674,2.466,1.911,3.713,1.93c7.927,0.118,15.857,0.011,23.784-0.146C660.313,190.343,661.385,189.631,662.465,189.24z
			 M174.54,182.043c0,0.033-0.001,0.067-0.001,0.1c2.488,0,5.021,0.277,7.447-0.113c1.291-0.208,2.396-1.57,3.584-2.412
			c-0.991-0.716-1.922-1.94-2.981-2.062c-4.607-0.532-9.252-0.98-13.88-0.95c-1.779,0.012-4.115,1.015-3.856,3.602
			c0.217,2.172,1.986,2.02,3.714,1.874C170.545,181.915,172.548,182.043,174.54,182.043z M601.127,182.685c0,0.021,0,0.041,0,0.061
			c2.475,0,4.975,0.203,7.413-0.094c1.044-0.127,1.96-1.297,2.935-1.994c-0.943-0.918-1.847-2.576-2.838-2.63
			c-4.695-0.259-9.421-0.201-14.12,0.047c-0.925,0.049-1.779,1.434-2.666,2.203c0.985,0.803,1.88,2.1,2.976,2.301
			C596.864,182.952,599.021,182.685,601.127,182.685z M601.338,191.08c2.359,0,4.744,0.205,7.066-0.09
			c1.088-0.139,2.055-1.24,3.075-1.905c-0.941-0.841-1.836-2.339-2.834-2.412c-4.696-0.34-9.425-0.415-14.132-0.26
			c-0.846,0.028-1.643,1.577-2.463,2.422c0.859,0.746,1.645,1.996,2.592,2.134C596.833,191.289,599.102,191.071,601.338,191.08z
			 M131.383,176.69c-0.381-0.328-0.762-0.654-1.144-0.981c-1.375,0.407-3.157,0.439-3.991,1.344
			c-0.633,0.688-0.549,2.915,0.113,3.67c0.662,0.754,3.25,1.088,3.572,0.624C130.816,180.07,130.952,178.278,131.383,176.69z
			 M225.344,179.651c-1.408-1.583-2.319-2.606-3.23-3.63c-1.071,1.03-2.142,2.059-3.213,3.089c1.166,0.831,2.247,1.875,3.54,2.384
			C222.917,181.682,223.89,180.614,225.344,179.651z M558.857,196.221c-2.119-0.882-3.631-1.51-5.143-2.139
			c-0.347,1.165-1.354,2.797-0.922,3.409C554.292,199.612,556.112,198.773,558.857,196.221z M131.712,194.278
			c-0.571-0.557-1.144-1.115-1.716-1.672c-1.355,0.966-2.71,1.932-4.065,2.897c1.148,0.876,2.296,1.751,3.444,2.626
			C130.154,196.846,130.934,195.562,131.712,194.278z M554.827,176.269c-1.23,1.824-2.418,2.819-2.355,3.728
			c0.053,0.779,1.656,2.146,2.36,2.023c1.022-0.177,2.326-1.33,2.599-2.317C557.608,179.055,556.177,177.964,554.827,176.269z
			 M225.224,195.871c-1.281-1.199-2.295-2.599-2.696-2.441c-1.309,0.514-2.395,1.597-3.566,2.461
			c1.08,0.791,2.071,1.903,3.277,2.233C222.827,198.286,223.813,196.987,225.224,195.871z"/>
		<path fill-rule="evenodd" clip-rule="evenodd" d="M122.785,125.322c-3.705,10.934-7.41,21.868-11.347,33.485
			c-0.845-1.397-1.782-2.374-2.057-3.512c-0.717-2.965-0.843-6.098-1.765-8.984c-1.118-3.502-2.838-6.809-4.247-10.221
			c-1.231-2.981-2.444-5.972-3.528-9.009c-0.17-0.478,0.231-1.397,0.663-1.773c0.326-0.284,1.392-0.273,1.668,0.028
			c2.149,2.343,4.188,4.788,6.26,7.201c0.387-0.03,0.773-0.06,1.16-0.09c0.07-3.225,0.225-6.451,0.194-9.675
			c-0.08-8.491-0.328-16.983-0.324-25.474c0.001-3.328,2.804-3.862,5.266-3.922c8.485-0.205,16.976-0.207,25.465-0.24
			c12.998-0.052,25.997-0.084,38.994-0.091c15.361-0.008,30.722,0.01,46.083,0.037c3.827,0.007,7.657,0.019,11.48,0.166
			c2.597,0.1,4.041,1.307,3.973,4.226c-0.215,9.239-0.203,18.481-0.424,27.72c-0.057,2.402-0.646,4.792-0.992,7.188
			c0.284,0.207,0.568,0.415,0.851,0.623c2.706-2.454,5.412-4.909,8.026-7.278c1.043,2.146-7.354,30.31-10.374,32.963
			c-0.526-1.364-1.071-2.57-1.463-3.824c-2.42-7.724-4.734-15.482-7.269-23.168c-0.462-1.403-1.901-2.457-2.633-3.811
			c-0.292-0.54,0.105-1.454,0.19-2.198c0.841,0.156,1.977,0.021,2.469,0.521c1.779,1.807,3.295,3.872,5.021,5.737
			c0.42,0.454,1.599,0.905,1.838,0.692c0.643-0.57,1.341-1.496,1.351-2.289c0.043-3.483-0.192-6.968-0.247-10.454
			c-0.096-6.095-0.242-12.193-0.147-18.286c0.041-2.658-0.694-3.873-3.554-3.858c-23.857,0.121-47.716,0.152-71.574,0.209
			c-14.996,0.036-29.992,0.133-44.988,0.053c-3.062-0.016-4.263,0.999-4.244,4.096c0.052,8.568-0.141,17.139-0.114,25.708
			c0.004,1.174,0.711,2.346,1.092,3.518c1.077-0.567,2.323-0.949,3.197-1.742c1.749-1.584,3.293-3.393,4.922-5.109
			C122.034,124.763,122.41,125.042,122.785,125.322z"/>
		<path fill-rule="evenodd" clip-rule="evenodd" d="M560.122,255.432c3.449-10.939,6.897-21.879,10.348-32.818
			c0.402,0.018,0.806,0.035,1.209,0.053c2.058,11.478,8.948,21.454,10.436,33.11c-0.38,0.206-0.761,0.413-1.141,0.619
			c-0.695-0.835-1.317-1.75-2.103-2.49c-1.553-1.464-3.17-2.864-4.864-4.154c-0.104-0.079-1.633,1.036-1.627,1.587
			c0.188,19.441,0.53,38.882,0.716,58.322c0.031,3.261,1.513,4.611,4.499,4.441c4.8-0.275,9.583-0.877,14.385-1.083
			c5.605-0.24,11.224-0.262,16.836-0.274c9.866-0.023,19.737-0.111,29.599,0.131c3.535,0.087,4.926-0.852,4.849-4.56
			c-0.197-9.582-0.062-19.171-0.099-28.758c-0.004-0.972-0.282-1.941-0.496-3.316c-2.881,3.063-5.508,5.855-8.135,8.647
			c-1.52-4.729,1.135-8.131,2.296-11.864c1.439-4.631,3.222-9.153,4.681-13.777c0.593-1.878,0.56-3.952,1.149-5.83
			c0.262-0.836,1.455-2.035,2.06-1.946c0.813,0.12,1.884,1.213,2.121,2.085c1.558,5.722,2.698,11.563,4.426,17.228
			c1.116,3.657,3.022,7.069,4.521,10.613c0.321,0.76,0.413,1.615,0.61,2.427c-0.283,0.265-0.567,0.531-0.852,0.796
			c-2.759-2.516-5.519-5.031-8.601-7.842c0,5.557-0.021,11.063,0.006,16.57c0.031,6.616,0.032,13.233,0.184,19.848
			c0.075,3.311-1.553,4.38-4.604,4.362c-12.489-0.076-24.979-0.1-37.47-0.086c-9.736,0.011-19.472,0.127-29.208,0.156
			c-6.222,0.021-7.658-2.196-6.462-8.268c0.658-3.338,0.274-6.907,0.155-10.364c-0.284-8.292-0.977-16.581-0.956-24.869
			c0.018-6.646,0.97-13.285,1.209-19.938c0.055-1.53-1.107-3.104-1.71-4.657c-1.439,1.347-2.895,2.679-4.316,4.044
			c-0.951,0.914-1.855,1.876-2.781,2.816C560.703,256.072,560.412,255.752,560.122,255.432z"/>
		<path fill-rule="evenodd" clip-rule="evenodd" d="M549.543,127.929c-1.766,3.848-3.521,7.073-4.738,10.49
			c-1.283,3.602-1.559,7.624-3.188,11.024c-1.62,3.38,0.612,8.396-4.451,10.423c-3.656-10.513-7.285-20.947-11.122-31.977
			c3.594,0.338,5.419,2.197,6.935,4.798c0.51,0.876,1.74,1.333,2.642,1.981c0.245-1.001,0.714-2.006,0.7-3.004
			c-0.273-18.722-0.605-37.443-0.921-56.165C535.392,75,535.44,74.5,535.44,74c0-6.752-0.002-6.625,7.02-6.61
			c24.224,0.048,48.448,0.017,72.673-0.023c8.247-0.013,16.493-0.129,24.739-0.223c2.267-0.025,3.517,0.661,3.19,3.297
			c-0.482,3.894-0.862,7.813-1.001,11.733c-0.277,7.859-0.37,15.725-0.511,23.589c-0.01,0.594,0.217,1.193,0.531,2.809
			c3.166-2.616,5.846-4.831,8.526-7.046c0.2,0.289,0.4,0.578,0.601,0.867c-2.489,7.049-5.064,14.069-7.425,21.161
			c-0.895,2.687-1.227,5.557-1.951,8.307c-0.249,0.94-0.919,1.771-1.396,2.652c-0.575-0.8-1.385-1.519-1.688-2.411
			c-2.896-8.529-5.661-17.103-8.586-25.622c-0.525-1.529-1.609-2.866-2.435-4.291c0.42-0.381,0.84-0.761,1.26-1.142
			c2.889,2.539,5.777,5.079,8.667,7.618c0.385-0.206,0.771-0.412,1.155-0.618c0-1.403,0.004-2.806,0-4.209
			c-0.029-9.732-0.188-19.466-0.018-29.195c0.056-3.186-1.24-3.787-4.005-3.722c-8.226,0.193-16.459,0.326-24.685,0.222
			c-3.7-0.047-7.394-1.023-11.089-1.011c-3.807,0.012-7.614,1.049-11.418,1.027c-4.675-0.026-9.343-0.709-14.02-1.043
			c-0.662-0.047-1.36,0.243-2.023,0.441c-0.58,0.173-1.148,0.66-1.694,0.621c-3.896-0.275-7.78-0.792-11.681-0.954
			c-4.107-0.169-8.229-0.032-12.345-0.019c-0.954,0.003-1.913,0.126-2.86,0.056c-2.106-0.157-3.731,1.873-3.634,4.015
			c0.117,2.545-0.2,5.112-0.355,7.668c-0.03,0.485-0.401,1.049-0.25,1.432c2.946,7.431,0.575,15.115,1.049,22.663
			c0.383,6.09,0.191,12.235-0.068,18.341c-0.14,3.284-0.96,6.541-1.475,9.809c0.333,0.321,0.665,0.642,0.996,0.962
			c1.043-0.867,2.465-1.532,3.057-2.64C544.07,129.181,544.737,128.519,549.543,127.929z"/>
		<path fill-rule="evenodd" clip-rule="evenodd" d="M128.267,246.188c2.02-5.929,3.938-11.271,5.652-16.678
			c1.484-4.683,2.682-9.455,4.155-14.141c0.227-0.723,1.253-1.193,1.926-1.794c3.804,11.236,7.462,22.043,11.121,32.85
			c-0.368,0.193-0.735,0.388-1.104,0.581c-2.589-2.164-5.177-4.327-7.766-6.491c-0.472,0.272-0.945,0.545-1.417,0.817
			c0,2.534-0.027,5.069,0.006,7.604c0.063,4.795,0.096,9.593,0.266,14.385c0.112,3.184,0.25,6.393,0.799,9.516
			c0.144,0.816,1.853,1.91,2.867,1.935c9.607,0.235,19.219,0.325,28.83,0.341c9.738,0.018,19.477-0.138,29.215-0.124
			c2.589,0.003,3.469-1.084,3.435-3.61c-0.095-6.991-0.008-13.985,0.003-20.978c0.005-2.956,0.001-5.911,0.001-9.27
			c-4.801-0.941-4.56,5.899-9.064,6.712c-0.095-1.407-0.65-2.822-0.176-3.643c5.42-9.379,6.226-20.498,11.018-31.161
			c4.069,11.978,7.726,22.739,11.383,33.501c-0.366,0.214-0.731,0.428-1.097,0.642c-2.664-2.201-5.328-4.402-7.993-6.603
			c-0.415,0.275-0.829,0.551-1.243,0.825c0.285,3.362,0.709,6.718,0.826,10.084c0.216,6.236,0.253,12.479,0.364,18.717
			c0.018,0.999-0.038,2.005,0.057,2.995c0.651,6.724,0.663,6.528-6.322,6.484c-17.099-0.106-34.2-0.015-51.301-0.007
			c-4.113,0.001-8.227-0.028-12.341-0.021c-1.861,0.004-2.592-0.79-2.573-2.733c0.101-10.488,0.087-20.979,0.122-31.467
			c0.001-0.498,0.085-0.994,0.114-1.492c0.07-1.24,0.13-2.479,0.194-3.719c-1.315,0.649-2.765,1.123-3.905,2
			c-1.047,0.806-1.841,1.989-2.602,3.106C130.326,247.395,129.022,247.123,128.267,246.188z"/>
		<path fill-rule="evenodd" clip-rule="evenodd" d="M132.173,55.288c5.598-1.282,5.727-2.833,9.258,3.676
			c1.097-1.232,1.97-2.658,3.234-3.493c1.017-0.672,2.796-1.202,3.704-0.742c0.915,0.464,1.712,2.318,1.529,3.387
			c-0.124,0.722-2.056,1.099-3.141,1.7c-1.489,0.825-4.079,1.598-4.182,2.601c-0.236,2.276,0.634,4.722,1.394,6.984
			c0.113,0.334,2.078,0.047,3.201,0.047c0.834,4.046-1.133,5.836-5.94,5.312c-0.67-1.722-1.347-3.466-1.795-4.621
			c-1.912,1.481-3.639,2.868-5.417,4.186c-2.185,1.622-4.768,0.526-5.851-2.886c-0.929,0.769-1.737,1.378-2.477,2.06
			c-2.087,1.922-7.732,2.667-10.091,0.407c-1.509-1.445-2.012-4.397-2.154-6.723c-0.347-5.656,4.444-8.721,7.678-12.086
			c1.425-1.483,5.87-0.388,8.819,0.181c0.632,0.123,1.564,3.712,0.904,4.526c-1.741,2.147-4.228,3.72-6.53,5.364
			c-0.762,0.544-1.948,0.461-2.795,0.929c-1.096,0.605-2.307,1.313-2.925,2.313c-0.227,0.367,0.955,2.25,1.746,2.451
			c1.207,0.307,2.695-0.062,3.946-0.489c1.226-0.418,2.303-1.269,3.433-0.937c1.975,0.556,4.712,2.183,5.761,1.436
			c2.001-1.424,3.536-4.035,4.348-6.46c0.945-2.824-0.607-5.046-3.411-6.402C133.533,57.578,133.026,56.36,132.173,55.288z
			 M118.673,61.782c0.308,0.325,0.615,0.649,0.923,0.974c5.125,0.328,7.173-1.701,5.493-6.335
			C122.828,58.31,120.751,60.046,118.673,61.782z"/>
		<path fill-rule="evenodd" clip-rule="evenodd" d="M222.122,314.024c0.232,0.975,0.175,1.939,0.621,2.334
			c0.747,0.66,1.9,1.413,2.723,1.261c0.678-0.125,1.584-1.513,1.567-2.324c-0.025-1.24-0.694-2.493-1.209-3.688
			c-0.824-1.908-1.781-3.758-2.621-5.658c-1.147-2.596,0.373-4.438,2.457-4.891c2.597-0.563,5.429-0.277,8.125-0.008
			c0.745,0.074,1.867,1.365,1.902,2.141c0.035,0.752-0.974,1.981-1.762,2.224c-0.802,0.246-1.982-0.302-2.838-0.784
			c-1.113-0.627-2.069-1.531-3.092-2.316c-0.381,0.357-0.763,0.715-1.145,1.072c1.399,2.377,2.931,4.688,4.176,7.145
			c3.413,6.732,0.192,10.287-4.956,9.926c-2.739-0.192-6.276,1.135-8.161-2.759c-0.439,0.192-0.959,0.477-1.514,0.652
			c-1.786,0.564-3.583,1.088-5.378,1.628c-0.028-2.047-0.462-4.195,0.017-6.115c0.598-2.396,2.014-4.578,2.931-6.91
			c0.292-0.743,0.12-1.669,0.196-3.252c-1.594,0.586-3.208,0.666-3.806,1.486c-2.748,3.772-5.836,7.493-7.587,11.734
			c-1.497,3.628-2.859,3.295-5.396,1.695c3.504-3.96,5.36-14.447,2.558-17.212c2.508-0.368,4.623-0.677,6.983-1.022
			c0.349,1.172,0.652,2.186,1.021,3.42c0.639-0.433,1.168-0.98,1.808-1.188c2.078-0.673,4.175-1.511,6.31-1.665
			c0.768-0.055,2.463,1.769,2.352,2.536c-0.378,2.614-1.5,5.11-2.072,7.71c-0.262,1.187,0.098,2.51,0.176,3.771
			c0.98-0.247,1.952-0.541,2.943-0.727C220.173,314.105,220.922,314.114,222.122,314.024z"/>
		<path fill-rule="evenodd" clip-rule="evenodd" d="M594.107,339.436c-0.239,1.686-0.448,3.167-0.773,5.469
			c-1.572-1.292-2.477-2.203-3.543-2.847c-0.637-0.385-1.528-0.352-2.305-0.505c-0.122,0.688-0.55,1.515-0.313,2.041
			c0.964,2.131,1.877,4.363,3.276,6.202c2.998,3.937,2.261,7.565-2.608,8.563c-3.197,0.654-7.047,2.042-9.968-1.499
			c-0.368-0.446-1.984-0.105-2.909,0.206c-1.366,0.459-2.631,1.219-4.073,1.915c-2.781-6.104,3.296-10.807,2.175-16.689
			c-5.424,1.354-7.123,5.667-9.234,9.486c-0.816,1.476-0.84,3.441-1.796,4.773c-0.61,0.85-2.269,0.946-3.457,1.38
			c-0.193-1.026-0.753-2.146-0.516-3.061c1.038-4.001,2.307-7.941,3.627-12.354c-0.328-0.369-1.103-1.242-1.918-2.162
			c4.283-2.22,5.803-1.867,6.931,1.426c2.75-0.843,5.466-1.862,8.271-2.415c0.795-0.156,2.715,1.165,2.655,1.613
			c-0.375,2.814-1.165,5.573-1.816,8.351c-0.346,1.48-0.687,2.962-1.3,5.604c2.44-0.878,3.86-1.39,5.72-2.06
			c0.24,0.361,0.589,1.426,1.311,1.843c1.214,0.7,2.723,1.424,3.99,1.256c0.578-0.076,1.392-2.362,1.169-3.455
			c-0.266-1.297-1.788-2.287-2.31-3.592c-0.895-2.242-2.159-4.695-1.943-6.932c0.275-2.84,3.116-3.108,5.618-2.959
			C589.907,339.145,591.746,339.278,594.107,339.436z"/>
		<path fill-rule="evenodd" clip-rule="evenodd" d="M227.123,70.364c-0.375,0.558-0.581,0.842-0.764,1.14
			c-1.576,2.565-3.699,5.269-6.702,3.021c-2.225-1.665-0.397-4.265,0.766-6.568c1.259-2.493,1.554-5.473,2.357-8.579
			c-4.391,0.462-5.572,3.488-6.924,6.313c-1.223,2.556-2.298,5.192-3.676,7.661c-0.398,0.713-1.617,0.968-2.459,1.432
			c-0.261-0.978-0.924-2.056-0.711-2.916c0.785-3.17,1.912-6.254,2.794-9.403c0.253-0.902,0.119-1.914-0.643-3.453
			c-1.489,1.447-3.455,2.647-4.358,4.396c-1.417,2.746-2.337,5.808-3.051,8.835c-0.576,2.438-1.913,2.955-4.365,2.643
			c-1.563-6.753,5.675-12.86,1.213-20.171c2.834,0.466,5.688-2.288,7.396,1.704c0.119,0.28,1.667,0.319,2.253-0.03
			c4.547-2.706,4.524-2.744,7.521,2.184c1.213-1.127,2.235-2.485,3.593-3.216c1.199-0.646,2.87-0.997,4.144-0.691
			c0.715,0.171,1.598,2.02,1.455,2.97c-0.542,3.599-1.471,7.139-2.345,11.106C225.081,69.041,225.958,69.61,227.123,70.364z"/>
		<path fill-rule="evenodd" clip-rule="evenodd" d="M138.758,304.395c-4.077,0.992-4.715,4.872-6.18,7.951
			c-0.821,1.729-0.731,3.942-1.717,5.521c-0.652,1.046-2.484,1.356-3.788,1.997c-0.328-1.048-1.105-2.19-0.908-3.128
			c1.062-5.041,2.367-10.03,3.677-15.403c1.044,0.188,3.924-2.837,4.605,1.612c3.264,1.069,7.249-6.566,9.961,1.531
			c1.205-0.854,2.225-1.954,3.472-2.37c1.912-0.636,3.98-0.8,5.982-1.164c0.164,1.589,0.576,3.203,0.425,4.763
			c-0.162,1.666-0.974,3.259-1.274,4.925c-0.214,1.188-0.563,2.85,0.031,3.604c2.888,3.662-0.442,4.506-2.505,5.483
			c-2.486,1.177-4.157-0.41-3.499-3.098c0.955-3.898,2.043-7.765,3.382-12.805c-1.781,0.93-3.467,1.235-3.982,2.179
			c-2.121,3.891-5.551,7.165-5.819,12.008c-0.037,0.658-1.326,1.729-2.055,1.746c-0.946,0.021-2.182-0.615-2.761-1.374
			c-0.32-0.419,0.437-1.674,0.734-2.543c1.231-3.584,2.472-7.163,3.709-10.743C139.753,304.856,139.255,304.625,138.758,304.395z"/>
		<path fill-rule="evenodd" clip-rule="evenodd" d="M241.888,175.738c0-0.906,0.179-2.495-0.04-4.027
			c-0.391-2.737,1.475-3.362,3.317-3.197c0.8,0.072,2.04,1.883,2.062,2.926c0.163,7.845-0.018,15.698,0.112,23.545
			c0.043,2.582-0.896,3.242-3.304,3.017c-1.703-0.16-3.474,0.075-5.18,0.348c-4.479,0.715-7.168-0.673-8.893-4.749
			c-2.377-5.622-1.046-12.989,3.702-16.253C235.644,175.985,238.764,176.285,241.888,175.738z M233.771,192.424
			c5.753,2.717,8.251,1.179,8.273-4.764c0.002-0.625-0.012-1.25-0.006-1.875c0.024-2.526-0.997-4.603-3.608-4.727
			c-2.385-0.113-4.85,0.776-4.973,3.825C233.352,187.443,233.655,190.018,233.771,192.424z"/>
		<path fill-rule="evenodd" clip-rule="evenodd" d="M650.858,159.612c-2.725-3.399-4.845-4.277-7.741-2.204
			c-1.198,0.858-2.786,1.195-4.239,1.625c-0.088,0.026-0.981-1.492-0.768-1.83c1.014-1.606,2.128-4.153,3.487-4.342
			c3.603-0.501,7.406-0.273,11.003,0.372c1.011,0.181,2.091,2.751,2.261,4.321c0.509,4.695,0.694,9.437,0.702,14.161
			c0.001,0.682-1.585,1.76-2.58,1.968c-2.197,0.46-4.541,0.24-6.725,0.737c-3.685,0.84-8.092-0.916-9.517-4.121
			c-1.519-3.416,2.14-8.497,6.626-9.257C645.612,160.662,647.842,160.191,650.858,159.612z M644.05,169.536
			c1.516-0.176,2.139-0.225,2.754-0.323c2.067-0.33,3.812-1.239,3.078-3.588c-0.158-0.509-2.602-0.351-3.996-0.405
			c-0.471-0.019-1.016,0.16-1.416,0.418c-0.935,0.604-1.803,1.312-2.698,1.979C642.688,168.388,643.604,169.16,644.05,169.536z"/>
		<path fill-rule="evenodd" clip-rule="evenodd" d="M162.756,54.666c3.383,0.548,7.153-1.913,9.592,1.613
			c2.077-0.753,4.092-1.484,6.241-2.264c0.848,5.601,0.752,5.137-4.131,6.147c-1.901,0.393-3.571,3.222-4.773,5.278
			c-1.067,1.825-0.995,4.321-2.076,6.133c-0.836,1.403-2.679,2.206-4.074,3.275c-0.251-1.563-0.954-3.216-0.662-4.669
			c0.637-3.171,1.934-6.207,2.638-9.369c0.263-1.185,0.028-3.276-0.697-3.686c-0.946-0.533-2.614,0.138-3.948,0.406
			c-0.584,0.117-1.112,0.519-1.975,0.944c1.037,3.855-4.854,7.694-0.032,11.991c-1.371,4.163-3.383,5.526-6.275,4.187
			c-1.62-0.751-2.067-1.5-1.343-3.426c1.297-3.449,2.218-7.069,2.949-10.688c0.319-1.585-0.215-3.343-0.369-5.11
			c1.794-1.573,3.858-3.381,6.46-5.662C161.031,51.248,161.845,52.862,162.756,54.666z"/>
		<path fill-rule="evenodd" clip-rule="evenodd" d="M121.984,197.496c-1.152,0-2.767-0.021-4.381,0.007
			c-1.212,0.021-2.424,0.09-3.634,0.167c-2.086,0.133-4.173,0.425-6.256,0.4c-2.645-0.031-4.534-1.369-5.031-4.048
			c-0.559-3.007,0.584-5.563,3.325-6.806c2.73-1.238,5.746-1.838,8.608-2.799c0.604-0.204,1.594-0.881,1.534-1.132
			c-0.168-0.708-0.819-1.874-1.229-1.854c-2.105,0.105-4.19,0.562-6.291,0.828c-1.535,0.195-3.084,0.283-4.627,0.419
			c0.696-1.541,0.99-3.817,2.175-4.468c2.319-1.272,5.104-1.794,7.755-2.342c4.104-0.85,6.143,2.643,6.536,6.335
			c0.276,2.594-0.1,5.254,0.115,7.86C120.764,192.249,121.378,194.397,121.984,197.496z M117.14,188.917
			c-3.153,0.357-5.538,0.508-7.859,0.972c-0.592,0.118-1.353,1.225-1.365,1.889c-0.012,0.642,0.708,1.508,1.339,1.916
			C111.673,195.257,115.277,193.454,117.14,188.917z"/>
		<path fill-rule="evenodd" clip-rule="evenodd" d="M547.16,187.306c0.398,2.699,0.598,5.448,1.25,8.085
			c0.647,2.619-0.741,3.08-2.714,3.166c-3.127,0.136-6.287-0.037-9.379,0.352c-4.978,0.627-8.406-2.812-7.051-7.531
			c0.264-0.918,1.096-1.989,1.942-2.364c2.99-1.328,6.136-2.302,9.143-3.596c0.908-0.391,1.557-1.386,2.324-2.105
			c-0.74-0.695-1.519-2.011-2.216-1.969c-1.979,0.119-3.914,0.839-5.885,1.231c-1.53,0.305-3.087,0.471-4.632,0.699
			c0.63-1.098,1.199-2.236,1.9-3.287c4.022-6.032,10.443-3.927,14.017-0.652c1.684,1.543,1.499,5.128,2.161,7.788
			C547.734,187.183,547.447,187.244,547.16,187.306z M533.615,191.091c1.172,3.65,2.703,4.58,5.401,3.853
			c2.858-0.771,3.526-2.593,3.096-5.961C539.221,189.7,536.534,190.366,533.615,191.091z"/>
		<path fill-rule="evenodd" clip-rule="evenodd" d="M634.051,26.751c0-2.425-0.153-5.163,0.087-7.864
			c0.079-0.885,1.025-2.085,1.859-2.411c1.072-0.418,2.433-0.102,3.801-0.102c1.86,4.229-1.061,7.545-2.112,11.161
			c-1.252,4.308-2.889,8.513-3.961,12.86c-0.251,1.014,1.102,2.422,1.812,3.839c-2.738,3.885-3.499,4.011-8.11,0.905
			c-0.548,0.352-1.105,0.856-1.762,1.108c-2.297,0.882-4.676,2.257-6.907-0.062c-2.188-2.271-1.837-4.806-0.964-7.628
			c1.51-4.884,4.543-8.482,8.893-10.781C628.439,26.849,630.843,27.146,634.051,26.751z M629.802,29.173
			c-1.731,0.947-2.913,1.237-3.514,1.991c-1.694,2.125-3.63,4.267-4.53,6.744c-0.596,1.638-0.251,4.534,0.878,5.681
			c2.028,2.061,3.094-1.044,4.191-2.064c2.537-2.357,5.684-4.66,5.121-8.779C631.788,31.572,630.65,30.531,629.802,29.173z"/>
		<path fill-rule="evenodd" clip-rule="evenodd" d="M635.942,339.186c-1.736,6.578-3.431,12.491-4.814,18.476
			c-0.6,2.59-1.028,5.391-0.678,7.979c0.346,2.547-0.205,3.544-2.663,3.562c-2.082,0.016-4.165,0.004-7.231,0.004
			c1.828-4.603,7.458-6.845,5.529-12.387c-1.576,0.446-3.271,1.047-5.015,1.393c-3.972,0.783-6.252-1.334-5.885-5.339
			c0.931-10.142,5.8-14.093,16.322-13.327C632.688,339.633,633.895,339.363,635.942,339.186z M631.218,345.162
			c-0.845-1.625-1.207-3.306-1.906-3.46c-1.403-0.311-3.233-0.216-4.454,0.476c-2.979,1.688-4.726,4.526-5.347,7.883
			c-0.258,1.397-0.221,4.065,0.156,4.155c1.732,0.411,4.432,0.868,5.318-0.073C627.439,351.538,629.164,348.245,631.218,345.162z"/>
		<path fill-rule="evenodd" clip-rule="evenodd" d="M206.686,188.499c3.415-1.417,2.585-4.917,3.805-7.238
			c0.663-1.261,0.766-2.826,1.477-4.046c0.354-0.608,1.624-1.165,2.273-0.987c0.684,0.186,1.667,1.359,1.575,1.954
			c-0.465,2.993-1.002,6.017-1.959,8.88c-1.486,4.444-3.604,8.687-4.946,13.167c-1.257,4.196-4.238,6.869-7.787,5.928
			c-0.692-0.184-1.574-0.892-1.723-1.513c-0.131-0.549,0.528-1.793,1.027-1.906c4.611-1.056,3.933-4.886,3.122-7.503
			c-1.564-5.044-4.18-9.755-6.214-14.664c-0.446-1.076-0.284-2.405-0.408-3.688c3.068-1.491,5.152-1.646,6.166,2.235
			C203.874,182.11,205.292,184.937,206.686,188.499z"/>
		<path fill-rule="evenodd" clip-rule="evenodd" d="M656.114,228.59c-5.312,3.26-6.681-2.448-9.201-4.453
			c-1.996,1.851-3.529,3.555-5.362,4.825c-0.687,0.478-2.071-0.052-3.138-0.122c0.212-0.998,0.195-2.128,0.682-2.967
			c1.031-1.78,3.132-3.331,3.306-5.12c0.219-2.261-0.946-4.698-1.729-6.987c-0.251-0.736-1.516-1.149-1.713-1.876
			c-0.287-1.054-0.027-2.258-0.001-3.397c1.246,0.152,2.528,0.18,3.72,0.522c0.428,0.123,0.522,1.132,0.958,1.529
			c4.056,3.69,4.086,3.4,6.672-0.351c0.766-1.109,2.562-1.578,3.971-2.115c0.257-0.098,1.425,1.064,1.326,1.349
			c-0.508,1.451-0.96,3.188-2.039,4.127c-4.005,3.486-4.05,4.97-0.469,9.128C654.47,224.275,655.09,226.519,656.114,228.59z"/>
		<path fill-rule="evenodd" clip-rule="evenodd" d="M672.181,30.866c-1.895,1.572-4.2,2.851-5.582,4.788
			c-1.819,2.55-3.165,5.527-4.249,8.49c-1.174,3.208-2.001,3.678-5.35,1.769c1.301-3.983,2.626-7.993,3.91-12.016
			c0.223-0.698,0.419-1.46,0.377-2.177c-0.287-4.799-0.31-4.798,4.846-4.499c0.109,1.236,0.221,2.511,0.4,4.553
			c1.846-1.413,3.121-2.756,4.683-3.476c1.426-0.658,3.313-1.144,4.705-0.728c0.792,0.237,1.381,2.438,1.375,3.75
			c-0.01,1.958-0.741,3.9-0.956,5.872c-0.231,2.14-0.224,4.306-0.32,6.461c0.389,0.068,0.778,0.136,1.167,0.205
			c-0.553,0.628-0.994,1.581-1.683,1.82c-1.655,0.573-3.426,0.813-5.15,1.187c-0.017-1.636-0.36-3.352,0.019-4.89
			c0.827-3.347,2.022-6.604,3.067-9.897C673.02,31.674,672.601,31.271,672.181,30.866z"/>
		<path fill-rule="evenodd" clip-rule="evenodd" d="M525.861,27.646c-1.633,3.892-2.738,6.908-4.146,9.777
			c-1.425,2.904-0.653,4.931,2.255,6.41c-2.598,2.163-4.758,4.573-8.12,1.64c-0.436-0.379-1.739,0.117-2.594,0.37
			c-1.062,0.313-2.043,0.917-3.111,1.181c-3.511,0.867-5.317-0.505-5.593-4.134c-0.384-5.066,4.544-14.486,9.224-15.609
			C517.398,26.411,521.475,27.438,525.861,27.646z M511.164,44.092c7.814-6.667,8.787-7.417,7.063-14.047
			c-2.573-0.447-5.137-0.292-6.114,2.541C510.862,36.204,506.827,39.716,511.164,44.092z"/>
		<path fill-rule="evenodd" clip-rule="evenodd" d="M533.94,26.777c0.156,1.838,0.245,2.893,0.371,4.366
			c2.244-1.3,4.099-2.495,6.058-3.48c2.869-1.443,4.773-0.431,4.605,2.77c-0.146,2.802-1.088,5.56-1.648,8.343
			c-0.162,0.806-0.613,2.045-0.262,2.375c1.322,1.245,2.845,1.95,0.625,3.964c-2.184,1.982-4.159,2.449-6.979,0.722
			c1.595-4.554,3.172-9.06,4.75-13.565c-0.386-0.375-0.771-0.75-1.156-1.126c-1.079,0.555-2.571,0.832-3.163,1.713
			c-2.625,3.909-5.028,7.969-7.435,12.021c-1.02,1.715-2.052,2.846-4.212,1.074c0.725-2.583,1.557-5.16,2.152-7.792
			c0.487-2.159,0.809-4.373,0.98-6.579c0.103-1.328-0.632-3.725-0.289-3.86C529.956,27.086,531.815,27.065,533.94,26.777z"/>
		<path fill-rule="evenodd" clip-rule="evenodd" d="M143.329,183.258c1.508-1.804,2.57-3.375,3.93-4.618
			c1.357-1.24,3.013-2.155,4.538-3.211c0.465,0.369,0.931,0.737,1.396,1.106c-0.506,1.434-0.602,3.307-1.587,4.229
			c-5.389,5.043-5.544,8.3-0.266,13.687c0.484,0.492,1.045,0.957,1.367,1.546c0.206,0.377,0.038,0.958,0.038,1.59
			c-3.101,1.232-5.197,0.382-6.737-2.527c-0.493-0.932-1.653-2.103-2.493-2.091c-0.873,0.012-2.195,1.166-2.508,2.094
			c-1.305,3.879-3.956,3.154-7.149,2.733c1.611-2.551,2.886-4.643,4.232-6.689c3.241-4.929,2.984-5.979-1.105-10.075
			c-1.052-1.055-1.017-3.195-1.48-4.837c1.524,0.586,3.3,0.865,4.5,1.847C141.169,178.995,141.743,180.671,143.329,183.258z"/>
		<path fill-rule="evenodd" clip-rule="evenodd" d="M693.686,342.392c-6.446,1.873-7.774,6.631-9.876,10.776
			c-0.807,1.594-1.758,3.16-2.918,4.502c-0.427,0.492-1.646,0.298-2.505,0.416c-0.059-0.838-0.314-1.72-0.144-2.509
			c1.086-5.023,2.266-10.026,3.614-15.907c2.578-1.402,4.077-0.99,5.136,2.479c1.981-0.896,3.884-2.188,5.949-2.543
			c1.445-0.248,3.301,0.509,4.579,1.39c0.479,0.33-0.308,2.284-0.253,3.485c0.164,3.595-4.354,6.781-0.942,10.739
			c0.184,0.213-0.863,2.063-1.662,2.415c-1.366,0.601-2.985,0.713-4.507,0.759c-0.183,0.006-0.799-1.804-0.556-2.559
			c0.824-2.557,2.062-4.978,2.911-7.527C693.063,346.653,693.213,344.865,693.686,342.392z"/>
		<path fill-rule="evenodd" clip-rule="evenodd" d="M648.467,357.27c-3.793,0.269-6.578,0.466-9.363,0.663
			c0.261-2.619,0.355-5.27,0.83-7.851c0.434-2.361,1.28-4.646,2.031-7.269c-1.426,0-2.223,0-3.987,0
			c1.271-1.377,1.889-2.641,2.789-2.891c1.571-0.437,3.383-0.523,4.943-0.14c0.411,0.101,0.608,2.542,0.314,3.767
			c-0.858,3.557-2.015,7.042-3.328,11.482c1.943-0.567,3.439-0.552,3.808-1.189c1.764-3.048,3.231-6.268,4.772-9.442
			c0.153-0.315-0.055-0.884,0.15-1.085c1.407-1.378,2.881-2.69,4.332-4.024c-0.02,1.622-0.104,3.246-0.045,4.865
			c0.137,3.784-3.754,7.327-0.672,11.36c0.208,0.272-0.728,2.059-1.342,2.194c-1.555,0.346-3.237,0.245-4.85,0.105
			C648.495,357.786,648.216,356.858,648.467,357.27z"/>
		<path fill-rule="evenodd" clip-rule="evenodd" d="M560.518,178.696c2.967-1.511,5.108-2.008,6.588,1.834
			c1.155,3,3.619,2.885,5.278-0.003c1.448-2.521,3.403-3.443,7.106-2.278c-1.033,1.747-1.668,3.545-2.889,4.75
			c-3.868,3.817-3.901,5.766-0.306,9.766c1.215,1.351,1.699,3.368,2.405,5.125c0.026,0.067-1.371,1.04-1.704,0.858
			c-1.651-0.904-3.206-2.003-4.719-3.136c-0.876-0.657-1.832-2.266-2.358-2.112c-1.075,0.317-2.121,1.389-2.758,2.413
			c-1.941,3.111-3.797,3.574-6.234,1.347c1.697-2.413,3.959-4.624,4.884-7.296c0.619-1.788-0.29-4.409-1.198-6.334
			C563.754,181.813,562.001,180.419,560.518,178.696z"/>
		<path fill-rule="evenodd" clip-rule="evenodd" d="M197.259,300.728c-0.947,3.539-1.844,6.579-2.549,9.661
			c-0.348,1.518-0.445,3.115-0.463,4.678c-0.013,1.147,0.806,2.944,0.345,3.313c-1.014,0.811-2.921,1.593-3.899,1.147
			c-2.537-1.155-4.507-0.564-6.898,0.398c-3.654,1.472-6.336-0.651-6.38-4.557c-0.066-5.833,3.485-12.658,8.174-13.937
			C189.055,300.487,192.901,300.934,197.259,300.728z M180.854,313.157c0.792,1.701,1.014,2.99,1.773,3.548
			c0.554,0.406,2.177,0.2,2.699-0.338c2.544-2.626,6.016-4.734,6.336-8.84c0.118-1.519-0.167-3.694-1.142-4.471
			c-0.766-0.608-3.569-0.035-4.263,0.902C184.109,306.862,182.537,310.191,180.854,313.157z"/>
		<path fill-rule="evenodd" clip-rule="evenodd" d="M195.856,69.509c-1.128,1.477-1.998,3.818-3.438,4.25
			c-2.942,0.879-6.299,1.291-9.266,0.731c-1.199-0.226-2.175-3.412-2.649-5.396c-1.661-6.949,4.055-10.22,7.792-14.246
			c1.754-1.888,7.695-0.633,8.48,1.116c1.372,3.058-1.409,7.876-5.342,9.188c-1.056,0.352-2.254,0.39-3.212,0.899
			c-1.117,0.593-2.311,1.39-2.918,2.423c-0.236,0.401,0.887,2.235,1.662,2.453c1.269,0.356,2.858,0.201,4.13-0.249
			c1.281-0.454,2.341-1.53,3.497-2.334C195.014,68.733,195.436,69.121,195.856,69.509z M185.694,62.86
			c0.32,0.376,0.641,0.752,0.962,1.127c2.085-1.256,4.231-2.426,6.205-3.838c0.398-0.286,0.452-1.69,0.107-2.202
			c-0.347-0.514-1.482-0.908-2.114-0.745C187.856,57.975,186.667,60.361,185.694,62.86z"/>
		<path fill-rule="evenodd" clip-rule="evenodd" d="M247.059,54.857c1.029,6.11-0.519,8.658-6.222,10.446
			c-0.941,0.294-1.798,0.894-2.75,1.114c-1.676,0.389-3.237,1.182-1.899,2.888c0.785,1.001,2.851,1.502,4.26,1.372
			c1.565-0.145,3.039-1.266,5.528-2.41c-0.448,1.801-0.411,2.898-0.933,3.536c-2.273,2.772-5.423,3.521-8.879,3.615
			c-3.223,0.088-4.386-2.3-4.998-4.551c-1.178-4.335,0.149-8.614,3.055-11.719C237.522,55.621,241.511,52.388,247.059,54.857z
			 M236.342,64.259c1.261-0.637,2.309-1.118,3.309-1.685c1.16-0.658,2.395-1.259,3.368-2.139c0.592-0.535,1.229-1.788,0.981-2.287
			c-0.306-0.616-1.531-1.125-2.327-1.083C239.358,57.191,236.218,61.553,236.342,64.259z"/>
		<path fill-rule="evenodd" clip-rule="evenodd" d="M536.544,351.934c-0.642-6.258,5.964-13.473,12.049-13.09
			c5.223,0.328,7.122,1.854,7.224,7.096c0.146,7.561-5.466,13.051-12.23,12.839C538.412,358.617,536.798,357.17,536.544,351.934z
			 M540.242,351.889c0.916,1.525,1.445,3.56,2.521,3.909c1.375,0.446,4.043,0.071,4.655-0.897c1.782-2.818,3.133-6.027,3.983-9.258
			c0.325-1.234-1.04-4.109-1.859-4.2c-1.735-0.191-4.374,0.411-5.281,1.669C542.472,345.59,541.609,348.737,540.242,351.889z"/>
		<path fill-rule="evenodd" clip-rule="evenodd" d="M172.976,314.565c-1.46,4.536-4.679,5.63-8.468,5.75
			c-3.081,0.098-5.033-1.525-6.383-4.071c-0.33-0.622-0.65-1.346-0.659-2.026c-0.085-6.739,5.336-13.151,11.933-13.721
			c1.773-0.152,3.756,0.707,5.421,1.542c0.547,0.275,0.875,2.197,0.486,2.93c-2.237,4.2-5.644,6.725-10.636,6.899
			c-0.713,0.024-2.07,1.795-1.965,1.945c0.845,1.212,1.803,2.716,3.063,3.148c0.981,0.337,2.444-0.741,3.696-1.182
			C170.633,315.369,171.806,314.97,172.976,314.565z M170.346,303.027c-5.294,0.267-7.039,2.064-6.074,6.261
			C168.625,308.861,170.606,306.82,170.346,303.027z"/>
		<path fill-rule="evenodd" clip-rule="evenodd" d="M602.33,40.113c2.651,5.102,3.572,5.256,8.152,2.215
			c0.643-0.427,1.728-0.189,2.607-0.259c-0.192,0.888-0.096,2.042-0.626,2.62c-3.28,3.575-10.495,4.076-13.44,0.355
			c-1.297-1.639-1.529-5.333-0.575-7.271c1.634-3.317,2.466-7.56,6.57-9.229c1.338-0.544,2.73-1.609,4.01-1.49
			c2.116,0.196,4.878,0.552,6.063,1.948c1.642,1.934-0.391,6.313-3.255,7.64C608.86,38.018,605.665,38.919,602.33,40.113z
			 M603.806,36.647c5.395-0.698,7.078-2.362,6.618-6.335C605.93,29.658,603.801,31.595,603.806,36.647z"/>
		<path fill-rule="evenodd" clip-rule="evenodd" d="M654.246,41.571c-1.529,4.593-9.433,6.973-12.598,5.005
			c-2.242-1.394-3.302-5.651-2.337-8.369c1.595-4.486,4.011-8.213,8.248-10.681c2.05-1.194,6.655-0.759,7.813,1.056
			c1.509,2.359,0.372,6.954-2.233,8.024c-3.177,1.305-6.496,2.263-9.753,3.372c1.504,3.843,4.012,4.753,7.158,2.844
			C651.632,42.163,653.004,41.975,654.246,41.571z M651.286,30.25c-4.218-0.262-5.635,1.19-6.528,6.375
			C648.591,37.053,650.978,34.801,651.286,30.25z"/>
		<path fill-rule="evenodd" clip-rule="evenodd" d="M563.598,41.436c1.804,0.946,3.598,2.604,5.415,2.63
			c1.709,0.025,3.442-1.672,5.862-2.993c-0.167,1.688-0.044,3.056-0.354,3.163c-3.278,1.127-6.674,2.975-9.942,2.806
			c-4.239-0.217-6.546-5.375-4.359-9.467c1.9-3.556,3.017-8.155,7.543-9.577c2.227-0.699,5.08-1.438,7.009-0.63
			c4.103,1.72,3.435,5.171-1.15,9.171c-1.103,0.961-2.885,1.16-4.372,1.658c-1.74,0.583-3.499,1.111-5.251,1.663
			C563.864,40.387,563.73,40.912,563.598,41.436z M565.562,36.542c5.118-0.154,6.841-1.945,6.315-6.311
			C567.418,29.867,565.383,31.809,565.562,36.542z"/>
		<path fill-rule="evenodd" clip-rule="evenodd" d="M608.773,338.402c1.511,0.917,4.313,1.878,4.282,2.74
			c-0.077,2.222-0.855,4.979-2.388,6.438c-1.641,1.562-4.541,1.726-6.734,2.816c-1.026,0.511-1.685,1.765-2.51,2.682
			c1.209,0.809,2.374,2.178,3.641,2.28c1.473,0.119,3.016-0.948,4.567-1.345c0.602-0.153,1.311,0.119,1.97,0.197
			c-0.323,0.672-0.475,1.701-0.998,1.952c-1.992,0.952-4.044,1.976-6.186,2.386c-5.657,1.085-8.604-1.868-7.813-7.539
			C597.55,344.231,602.948,338.112,608.773,338.402z M602.58,349.5c2.392-2.127,4.371-3.769,6.177-5.584
			c0.432-0.434,0.63-1.824,0.321-2.107c-0.522-0.479-1.583-0.694-2.329-0.555C603.979,341.773,602.12,344.991,602.58,349.5z"/>
		<path fill-rule="evenodd" clip-rule="evenodd" d="M249.167,67.836c1.379,1.505,2.212,2.803,3.39,3.568
			c0.818,0.531,2.469,0.803,3.094,0.329c0.684-0.518,1.073-2.186,0.771-3.072c-0.54-1.58-2.122-2.847-2.496-4.427
			c-0.585-2.471-1.08-5.203-0.601-7.624c0.594-3.006,3.557-2.371,5.851-2.327c1.463,0.028,2.924,0.166,4.625,0.269
			c0,1.28,0.152,2.292-0.039,3.232c-0.226,1.112-0.749,2.164-1.143,3.242c-0.796-0.698-1.58-1.41-2.392-2.088
			c-0.725-0.606-1.414-1.353-2.256-1.666c-0.311-0.116-1.494,0.881-1.449,1.276c0.128,1.135,0.5,2.336,1.109,3.301
			c0.943,1.494,2.886,2.692,3.14,4.227c1.343,8.113-0.427,9.98-7.794,9.065c-0.37-0.045-0.749-0.021-1.123-0.032
			c-4.848-0.13-5.311-0.794-3.625-5.241C248.444,69.306,248.731,68.773,249.167,67.836z"/>
		<path fill-rule="evenodd" clip-rule="evenodd" d="M675.365,355.7c-3.107,1.029-6.15,2.53-9.34,2.964
			c-3.672,0.5-5.693-1.449-5.959-5.101c-0.49-6.742,2.921-15.036,12.436-14.563c2.05,0.102,4.228,0.369,4.128,2.656
			c-0.086,1.953-0.962,4.563-2.409,5.604c-2.219,1.596-5.257,2.022-7.889,3.091c-0.99,0.402-1.814,1.21-2.714,1.832
			c0.851,1.057,1.526,2.703,2.598,3.021c1.378,0.41,3.075-0.226,4.63-0.448c1.439-0.206,2.871-0.463,4.307-0.697
			C675.224,354.606,675.294,355.153,675.365,355.7z M671.574,341.408c-5.086,0.441-7.872,2.999-6.147,6.76
			C670.7,347.05,671.376,346.337,671.574,341.408z"/>
		<path fill-rule="evenodd" clip-rule="evenodd" d="M528.524,341.015c-1.261,1.173-2.932,2.562-4.389,4.147
			c-0.772,0.841-1.484,1.971-1.672,3.064c-0.319,1.865-0.866,4.197-0.046,5.577c0.573,0.966,3.326,1.077,4.996,0.829
			c1.787-0.267,3.445-1.401,5.485-2.301c-0.608,3.987-5.743,7.023-9.954,6.486c-3.936-0.503-6.06-3.238-5.709-7.353
			c0.659-7.749,6.014-12.922,13.694-12.831c1.358,0.017,2.854,1.276,3.969,2.306c0.402,0.371,0.171,1.967-0.303,2.618
			c-0.626,0.861-2.402,2.047-2.595,1.876C530.857,344.409,530.027,343.034,528.524,341.015z"/>
		<path fill-rule="evenodd" clip-rule="evenodd" d="M592.197,29.961c-3.411,0.081-6.016,0.287-6.776,4.065
			c-0.33,1.64-2.134,3.104-2.142,4.655c-0.009,1.528,1.059,3.579,2.312,4.425c0.933,0.629,2.93-0.239,4.428-0.553
			c1.357-0.285,2.684-0.722,4.288-1.165c-1.078,4.077-7.224,7.174-10.886,6.002c-4.024-1.289-5.632-5.454-4.02-9.766
			c1.583-4.235,3.542-8.229,8.025-9.84c2.21-0.794,4.824-0.757,7.217-0.577c0.724,0.054,1.735,1.803,1.852,2.86
			c0.119,1.074-0.396,2.903-1.169,3.27C592.14,34.849,591.923,32.414,592.197,29.961z"/>
		<path fill-rule="evenodd" clip-rule="evenodd" d="M688.6,43.649c-1.877,1.524-2.799,2.681-3.986,3.124
			c-1.241,0.464-3.002,0.724-4.039,0.16c-0.787-0.428-1.291-2.397-1.051-3.49c0.66-3.007,1.595-5.988,2.771-8.835
			c0.943-2.28,1.793-4.225-1.514-5.383c2.347-2.296,4.427-4.34,6.526-6.365c0.16-0.155,0.529-0.306,0.676-0.226
			c0.587,0.318,1.124,0.728,1.68,1.104c-3.099,2.219,5.456,3.941,0.326,5.994c-2.24,0.896-3.196,2.03-3.144,4.324
			c0.018,0.718-0.201,1.51-0.53,2.157C684.863,39.067,683.683,41.82,688.6,43.649z"/>
		<path fill-rule="evenodd" clip-rule="evenodd" d="M703.272,339.078c1.236-1.197,3.604-3.488,6.515-6.304
			c0.374,3.425,0.606,5.563,0.758,6.947c-2.03,4.084-3.981,7.706-5.573,11.479c-0.288,0.686,0.629,2.403,1.447,2.925
			c1.789,1.14,1.583,2.387,0.164,3.07c-1.688,0.813-3.711,0.931-5.591,1.349c-0.257-1.591-0.735-3.188-0.701-4.772
			c0.028-1.304,0.757-2.577,1.019-3.895C701.935,346.722,702.467,343.547,703.272,339.078z"/>
		<path fill-rule="evenodd" clip-rule="evenodd" d="M549.577,27.752c2.071-1.533,4.746-3.51,7.346-5.434
			c0.74,2.894,1.221,4.768,1.752,6.846c-4.728,2.018-4.942,6.923-6.269,11.151c-0.125,0.396,0.807,1.405,1.447,1.71
			c2.922,1.392,2.263,2.629-0.178,3.521c-1.598,0.583-3.373,0.681-5.068,0.997c-0.107-1.632-0.503-3.308-0.264-4.886
			c0.445-2.933,1.424-5.786,1.853-8.721C550.404,31.51,549.872,29.977,549.577,27.752z"/>
		<path fill-rule="evenodd" clip-rule="evenodd" d="M185.384,189.869c-1.836,0.132-3.671,0.347-5.509,0.379
			c-3.967,0.069-7.944,0.205-11.896-0.035c-1.183-0.072-2.295-1.299-3.44-1.997c0.959-1.134,1.923-3.245,2.877-3.241
			c5.278,0.025,10.566,0.451,15.818,1.041c0.884,0.099,1.604,1.667,2.4,2.555C185.551,189.003,185.467,189.436,185.384,189.869z"/>
		<path fill-rule="evenodd" clip-rule="evenodd" d="M662.465,189.24c-1.08,0.391-2.152,1.103-3.239,1.124
			c-7.927,0.157-15.857,0.264-23.784,0.146c-1.247-0.019-2.476-1.256-3.713-1.93c1.327-0.517,2.644-1.446,3.983-1.482
			c7.44-0.197,14.888-0.233,22.331-0.184c1.488,0.01,2.973,0.628,4.458,0.966C662.488,188.333,662.477,188.787,662.465,189.24z"/>
		<path fill-rule="evenodd" clip-rule="evenodd" d="M174.54,182.043c-1.992,0-3.995-0.128-5.973,0.039
			c-1.729,0.146-3.497,0.298-3.714-1.874c-0.259-2.587,2.077-3.59,3.856-3.602c4.628-0.03,9.273,0.418,13.88,0.95
			c1.059,0.122,1.99,1.346,2.981,2.062c-1.189,0.842-2.293,2.204-3.584,2.412c-2.425,0.39-4.958,0.113-7.447,0.113
			C174.539,182.11,174.54,182.076,174.54,182.043z"/>
		<path fill-rule="evenodd" clip-rule="evenodd" d="M601.127,182.685c-2.106,0-4.263,0.267-6.301-0.107
			c-1.096-0.201-1.99-1.498-2.976-2.301c0.887-0.77,1.741-2.154,2.666-2.203c4.699-0.248,9.425-0.306,14.12-0.047
			c0.991,0.054,1.895,1.712,2.838,2.63c-0.975,0.697-1.891,1.867-2.935,1.994c-2.438,0.297-4.938,0.094-7.413,0.094
			C601.127,182.726,601.127,182.706,601.127,182.685z"/>
		<path fill-rule="evenodd" clip-rule="evenodd" d="M601.338,191.075c-2.236-0.004-4.505,0.214-6.695-0.106
			c-0.947-0.139-1.732-1.388-2.592-2.134c0.82-0.846,1.617-2.395,2.463-2.422c4.707-0.154,9.436-0.08,14.132,0.26
			c0.998,0.072,1.893,1.57,2.834,2.412c-1.021,0.665-1.987,1.767-3.075,1.905C606.082,191.285,603.697,191.08,601.338,191.075z"/>
		<path fill-rule="evenodd" clip-rule="evenodd" d="M131.383,176.69c-0.431,1.588-0.567,3.38-1.45,4.657
			c-0.321,0.465-2.91,0.13-3.572-0.624c-0.662-0.755-0.746-2.983-0.113-3.67c0.834-0.905,2.617-0.937,3.991-1.344
			C130.621,176.036,131.002,176.362,131.383,176.69z"/>
		<path fill-rule="evenodd" clip-rule="evenodd" d="M225.344,179.651c-1.454,0.963-2.426,2.031-2.904,1.843
			c-1.292-0.51-2.374-1.553-3.54-2.384c1.071-1.03,2.142-2.059,3.213-3.089C223.024,177.045,223.936,178.068,225.344,179.651z"/>
		<path fill-rule="evenodd" clip-rule="evenodd" d="M558.857,196.221c-2.745,2.553-4.565,3.392-6.064,1.271
			c-0.433-0.612,0.575-2.244,0.922-3.409C555.227,194.711,556.738,195.339,558.857,196.221z"/>
		<path fill-rule="evenodd" clip-rule="evenodd" d="M131.712,194.278c-0.779,1.283-1.558,2.567-2.337,3.852
			c-1.148-0.875-2.296-1.75-3.444-2.626c1.355-0.966,2.71-1.932,4.065-2.897C130.569,193.164,131.141,193.721,131.712,194.278z"/>
		<path fill-rule="evenodd" clip-rule="evenodd" d="M554.827,176.269c1.35,1.695,2.781,2.786,2.604,3.434
			c-0.272,0.987-1.576,2.141-2.599,2.317c-0.704,0.123-2.308-1.244-2.36-2.023C552.409,179.087,553.597,178.093,554.827,176.269z"/>
		<path fill-rule="evenodd" clip-rule="evenodd" d="M225.224,195.871c-1.411,1.116-2.397,2.415-2.985,2.254
			c-1.206-0.33-2.198-1.442-3.277-2.233c1.171-0.864,2.257-1.947,3.566-2.461C222.929,193.272,223.943,194.672,225.224,195.871z"/>
		<path fill-rule="evenodd" clip-rule="evenodd" fill="#FFFFFF" d="M118.673,61.782c2.078-1.736,4.155-3.472,6.416-5.362
			c1.68,4.634-0.367,6.663-5.493,6.335C119.289,62.431,118.981,62.106,118.673,61.782z"/>
		<path fill-rule="evenodd" clip-rule="evenodd" fill="#FFFFFF" d="M233.771,192.424c-0.115-2.406-0.418-4.981-0.314-7.541
			c0.123-3.049,2.587-3.938,4.973-3.825c2.611,0.124,3.632,2.201,3.608,4.727c-0.006,0.625,0.009,1.25,0.006,1.875
			C242.021,193.603,239.524,195.141,233.771,192.424z"/>
		<path fill-rule="evenodd" clip-rule="evenodd" fill="#FFFFFF" d="M644.05,169.536c-0.446-0.376-1.362-1.148-2.278-1.92
			c0.896-0.666,1.764-1.374,2.698-1.978c0.4-0.258,0.945-0.437,1.416-0.418c1.395,0.054,3.838-0.104,3.996,0.405
			c0.733,2.349-1.011,3.258-3.078,3.588C646.188,169.311,645.565,169.36,644.05,169.536z"/>
		<path fill-rule="evenodd" clip-rule="evenodd" fill="#FFFFFF" d="M117.14,188.917c-1.863,4.537-5.467,6.34-7.884,4.777
			c-0.631-0.408-1.351-1.274-1.339-1.916c0.012-0.665,0.772-1.771,1.365-1.889C111.603,189.424,113.987,189.273,117.14,188.917z"/>
		<path fill-rule="evenodd" clip-rule="evenodd" fill="#FFFFFF" d="M533.615,191.091c2.919-0.725,5.605-1.391,8.497-2.108
			c0.431,3.368-0.237,5.189-3.096,5.961C536.318,195.671,534.787,194.741,533.615,191.091z"/>
		<path fill-rule="evenodd" clip-rule="evenodd" fill="#FFFFFF" d="M629.802,29.173c0.849,1.357,1.986,2.398,2.146,3.573
			c0.563,4.12-2.584,6.422-5.121,8.779c-1.098,1.02-2.163,4.125-4.191,2.064c-1.129-1.147-1.474-4.043-0.878-5.681
			c0.9-2.477,2.836-4.619,4.53-6.744C626.889,30.411,628.07,30.121,629.802,29.173z"/>
		<path fill-rule="evenodd" clip-rule="evenodd" fill="#FFFFFF" d="M631.218,345.162c-2.054,3.083-3.778,6.376-6.232,8.98
			c-0.887,0.941-3.586,0.484-5.318,0.073c-0.377-0.09-0.414-2.758-0.156-4.155c0.621-3.356,2.367-6.195,5.347-7.883
			c1.221-0.691,3.051-0.786,4.454-0.476C630.011,341.856,630.373,343.537,631.218,345.162z"/>
		<path fill-rule="evenodd" clip-rule="evenodd" fill="#FFFFFF" d="M511.164,44.092c-4.337-4.376-0.302-7.888,0.949-11.506
			c0.978-2.833,3.541-2.988,6.114-2.541C519.951,36.676,518.979,37.425,511.164,44.092z"/>
		<path fill-rule="evenodd" clip-rule="evenodd" fill="#FFFFFF" d="M180.854,313.157c1.684-2.966,3.255-6.295,5.403-9.198
			c0.694-0.938,3.497-1.511,4.263-0.902c0.976,0.776,1.26,2.952,1.142,4.471c-0.321,4.105-3.792,6.214-6.336,8.84
			c-0.521,0.538-2.145,0.744-2.699,0.338C181.868,316.147,181.645,314.858,180.854,313.157z"/>
		<path fill-rule="evenodd" clip-rule="evenodd" fill="#FFFFFF" d="M185.694,62.86c0.973-2.499,2.162-4.885,5.16-5.658
			c0.632-0.163,1.767,0.231,2.114,0.745c0.345,0.512,0.292,1.916-0.107,2.202c-1.974,1.412-4.12,2.582-6.205,3.838
			C186.335,63.612,186.014,63.236,185.694,62.86z"/>
		<path fill-rule="evenodd" clip-rule="evenodd" fill="#FFFFFF" d="M236.342,64.259c-0.125-2.706,3.016-7.068,5.332-7.193
			c0.795-0.042,2.021,0.466,2.327,1.083c0.248,0.5-0.39,1.752-0.981,2.287c-0.973,0.88-2.208,1.481-3.368,2.139
			C238.651,63.142,237.603,63.623,236.342,64.259z"/>
		<path fill-rule="evenodd" clip-rule="evenodd" fill="#FFFFFF" d="M540.242,351.889c1.367-3.151,2.229-6.299,4.019-8.777
			c0.907-1.258,3.546-1.86,5.281-1.669c0.819,0.091,2.185,2.966,1.859,4.2c-0.851,3.23-2.201,6.439-3.983,9.258
			c-0.612,0.969-3.28,1.344-4.655,0.897C541.688,355.448,541.158,353.414,540.242,351.889z"/>
		<path fill-rule="evenodd" clip-rule="evenodd" fill="#FFFFFF" d="M170.346,303.027c0.26,3.793-1.721,5.834-6.074,6.261
			C163.308,305.092,165.052,303.294,170.346,303.027z"/>
		<path fill-rule="evenodd" clip-rule="evenodd" fill="#FFFFFF" d="M603.806,36.647c-0.005-5.053,2.124-6.99,6.618-6.335
			C610.884,34.285,609.2,35.949,603.806,36.647z"/>
		<path fill-rule="evenodd" clip-rule="evenodd" fill="#FFFFFF" d="M651.286,30.25c-0.309,4.55-2.695,6.802-6.528,6.375
			C645.651,31.44,647.068,29.988,651.286,30.25z"/>
		<path fill-rule="evenodd" clip-rule="evenodd" fill="#FFFFFF" d="M565.562,36.542c-0.179-4.733,1.856-6.676,6.315-6.311
			C572.402,34.598,570.68,36.388,565.562,36.542z"/>
		<path fill-rule="evenodd" clip-rule="evenodd" fill="#FFFFFF" d="M602.58,349.5c-0.46-4.509,1.398-7.727,4.169-8.246
			c0.746-0.14,1.807,0.075,2.329,0.555c0.309,0.283,0.11,1.674-0.321,2.107C606.951,345.731,604.972,347.373,602.58,349.5z"/>
		<path fill-rule="evenodd" clip-rule="evenodd" fill="#FFFFFF" d="M671.574,341.408c-0.198,4.929-0.874,5.642-6.147,6.76
			C663.702,344.407,666.488,341.85,671.574,341.408z"/>
	</g>
</g>
</svg>
