<?xml version="1.0" encoding="utf-8"?>
<!-- Generator: Adobe Illustrator 16.0.0, SVG Export Plug-In . SVG Version: 6.00 Build 0)  -->
<!DOCTYPE svg PUBLIC "-//W3C//DTD SVG 1.1//EN" "http://www.w3.org/Graphics/SVG/1.1/DTD/svg11.dtd">
<svg version="1.1" id="Layer_1" xmlns="http://www.w3.org/2000/svg" xmlns:xlink="http://www.w3.org/1999/xlink" x="0px" y="0px"
	 width="977.387px" height="344.298px" viewBox="0 0 977.387 344.298" enable-background="new 0 0 977.387 344.298"
	 xml:space="preserve">
<g>
	<g>
		<path fill-rule="evenodd" clip-rule="evenodd" fill="#FFFFFF" d="M0.75,345.048c0-114.766,0-229.532,0-344.298
			c325.795,0,651.591,0,977.387,0c0,114.766,0,229.532,0,344.298C652.341,345.048,326.545,345.048,0.75,345.048z M110.515,315.416
			c-0.08,0.257-0.16,0.513-0.24,0.77c74.346,0.472,148.691,0.943,222.562,1.411c1.441-1.804,2.5-4.493,4.167-4.944
			c3.964-1.075,6.684-3.741,9.841-5.892c4.917-3.347,9.956-6.52,14.801-9.965c3.446-2.449,6.305-6.036,10.055-7.675
			c6.249-2.729,11.177-7.166,16.538-11.016c5.048-3.625,7.655-4.349,11.667-0.844c0-2.429-0.437-4.334,0.126-5.872
			c0.53-1.445,2.115-2.504,3.39-3.901c-4.809-0.953-6.603-4.888-7.972-8.726c-3.382-9.483-6.157-19.185-9.553-28.664
			c-3.447-9.625-7.402-19.067-11.03-28.629c-3.448-9.088-6.688-18.254-10.152-27.336c-3.498-9.171-7.319-18.222-10.704-27.434
			c-3.907-10.633-7.347-21.436-11.257-32.068c-3.214-8.739-6.675-17.396-10.342-25.955c-0.981-2.29-2.767-5.292-4.789-5.878
			c-5.865-1.699-12.055-2.243-18.083-3.424c-4.074-0.799-8.082-1.931-12.131-2.861c-1.447-0.333-2.929-0.512-4.395-0.76
			c-6.454-1.092-12.931-2.066-19.357-3.306c-7.998-1.543-15.957-3.288-23.925-4.981c-5.05-1.073-10.084-2.223-15.131-3.31
			c-2.926-0.629-6.006-2.079-8.768-1.628c-6.958,1.135-13.729,3.377-20.661,4.737c-10.294,2.021-20.67,3.626-30.998,5.482
			c-7.993,1.437-15.966,2.983-23.946,4.49c-2.654,0.501-5.286,1.157-7.958,1.523c-5.619,0.769-11.271,1.303-16.875,2.164
			c-0.919,0.142-1.966,1.312-2.427,2.261c-2.182,4.509-4.17,9.11-6.248,13.669c-1.669,3.664-3.438,7.285-5.037,10.979
			c-3.792,8.759-7.428,17.586-11.283,26.317c-3.292,7.457-6.915,14.768-10.164,22.242c-1.726,3.97-2.711,8.266-4.479,12.213
			c-4.471,9.983-9.323,19.795-13.781,29.783c-3.75,8.4-7.08,16.987-10.743,25.427c-3.656,8.422-7.399,16.809-11.289,25.125
			c-2.413,5.158-5.325,10.086-7.639,15.284c-0.464,1.043,0.307,3.465,1.289,4.181c4.794,3.496,9.929,6.521,14.788,9.935
			c2.816,1.978,5.156,4.653,8.032,6.521c5.206,3.377,10.801,6.163,15.953,9.615c4.124,2.764,7.746,6.264,11.75,9.222
			c3.812,2.815,7.856,5.314,11.746,8.026C107.485,312.855,108.969,314.18,110.515,315.416z M821.897,91.921
			c-0.02-0.29-0.039-0.579-0.059-0.87c-0.718,0-1.51,0.198-2.137-0.039c-1.526-0.578-3.694-0.96-4.339-2.123
			c-3.989-7.202-11.202-10.042-18.021-12.742c-6.982-2.766-14.592-4-21.981-5.665c-3.615-0.815-7.349-1.122-11.037-1.593
			c-8.078-1.032-16.16-2.024-24.243-3.026c-0.862-0.107-1.736-0.126-2.595-0.259c-5.38-0.837-10.741-2.27-16.141-2.431
			c-12.614-0.377-25.245-0.185-37.87-0.149c-6.492,0.018-13.011-0.126-19.471,0.385c-7.278,0.577-14.505,1.81-21.755,2.756
			c-4.175,0.546-8.399,0.843-12.513,1.69c-6.963,1.434-13.797,3.538-20.791,4.759c-7.285,1.271-13.708,4.411-20.088,7.814
			c-0.938,0.501-2.185,1.013-2.578,1.854c-2.332,4.977-4.974,9.899-6.526,15.131c-2.353,7.929-3.758,16.133-5.818,24.156
			c-3.617,14.08-7.482,28.095-11.138,42.166c-2.841,10.937-5.521,21.917-8.269,32.878c-2.984,11.901-5.987,23.798-8.939,35.706
			c-2.002,8.077-3.915,16.177-5.897,24.259c-2.636,10.746-5.325,21.479-7.928,32.233c-0.542,2.238-1.809,5.022-0.997,6.725
			c1.902,3.992,4.708,7.597,7.435,11.139c2.504,3.252,6.19,4.723,10.024,6.071c4.227,1.486,8.141,3.852,12.352,5.394
			c3.183,1.166,7.006,0.95,9.868,2.554c8.171,4.581,17.427,4.773,26.103,7.226c2.597,0.732,5.45,0.507,8.162,0.897
			c6.081,0.876,12.143,1.89,18.222,2.789c1.477,0.218,3.001,0.109,4.479,0.323c8.996,1.302,17.945,3.273,26.984,3.84
			c13.452,0.845,26.966,0.889,40.454,0.94c13.488,0.053,26.981-0.168,40.466-0.527c9.073-0.243,18.144-0.826,27.2-1.476
			c4.414-0.316,8.786-1.183,13.188-1.711c5.528-0.663,11.068-1.216,16.6-1.854c2.824-0.325,5.676-0.56,8.448-1.146
			c5.228-1.105,10.362-2.693,15.618-3.608c6.688-1.164,13.306-2.359,19.334-5.706c0.607-0.338,1.467-0.186,2.168-0.397
			c4.17-1.251,8.377-2.406,12.465-3.887c1.605-0.583,2.823-2.188,4.413-2.872c6.367-2.74,11.626-6.42,13.425-13.669
			c0.168-0.68,1.565-1.495,2.396-1.5c5.956-0.04,11.912,0.181,17.868,0.192c18.566,0.037,37.133,0,55.698,0.034
			c4.733,0.009,9.467,0.231,14.2,0.25c2.225,0.009,4.449-0.231,6.674-0.359c-0.021-0.381-0.042-0.762-0.063-1.143
			c-0.78-0.11-1.559-0.303-2.341-0.319c-5.234-0.112-10.47-0.177-15.704-0.277c-6.905-0.132-13.833-0.657-20.707-0.258
			c-3.179,0.185-5.938,0.365-9.099-1.837c2.514-6.854,5.056-13.657,7.479-20.503c0.516-1.454,0.602-3.061,0.886-4.597
			c-0.563-0.343-1.127-0.686-1.69-1.027c-1.767,2.429-3.533,4.856-5.301,7.284c-0.194-0.253-0.39-0.506-0.584-0.76
			c0-53.608,0-107.217,0-161.185c2.557,2.495,4.672,4.559,6.787,6.623c0.389-0.262,0.778-0.523,1.167-0.785
			c-0.452-1.864-0.742-3.787-1.388-5.583c-1.923-5.35-3.89-10.687-6.03-15.951c-1.11-2.731-0.836-4.465,2.648-5.402
			c-5.057-1.19-9.967-1.708-14.952-1.394c-0.802,0.051-1.561,0.81-2.339,1.242c0.102,0.409,0.203,0.818,0.305,1.227
			c3.466,0,6.932,0,10.853,0c-2.83,9.054-5.435,17.387-8.039,25.72c0.505,0.283,1.01,0.566,1.515,0.849
			c2.014-2.135,4.027-4.269,6.116-6.483c0,6.325-0.034,12.108,0.007,17.891c0.069,9.717,0.361,19.438,0.24,29.152
			c-0.176,14.188-0.949,28.372-0.899,42.555c0.082,22.937,0.641,45.871,0.926,68.807c0.013,0.993-0.689,1.994-0.912,2.597
			c-3.924-0.261-3.467-5.454-7.895-5.594c2.938,9.117,5.641,17.502,8.657,26.86c-15.524,0-30.258,0-45.653,0
			c-0.495-2.589-0.963-5.751-1.715-8.844c-2.698-11.096-5.541-22.155-8.236-33.252c-3.286-13.525-6.407-27.091-9.734-40.606
			c-3.062-12.43-6.323-24.811-9.458-37.223c-2.185-8.648-4.243-17.329-6.475-25.965c-1.359-5.259-3.036-10.435-4.396-15.693
			c-2.758-10.671-5.409-21.371-8.078-32.065c-0.803-3.217-1.516-6.457-2.284-9.741C820.008,92.425,820.953,92.173,821.897,91.921z
			 M438.66,117.178c0.489-0.161,0.978-0.321,1.466-0.481c-2.73-8.555-5.461-17.11-8.14-25.504c1.484-2.144,5.81,1.497,6.515-3.465
			c-2.864,0-5.104-0.158-7.3,0.081c-0.83,0.09-2.168,1.029-2.244,1.697c-0.936,8.327-3.838,15.981-7.476,23.441
			c-0.476,0.975-0.065,2.383-0.065,4.238c2.625-2.177,4.494-3.727,6.787-5.627c0,45.081,0,89.249,0,134.398
			c-2.261-1.749-3.813-3.042-5.468-4.185c-0.602-0.416-1.449-0.475-2.185-0.695c-0.131,0.707-0.551,1.517-0.34,2.102
			c0.694,1.938,1.72,3.755,2.43,5.688c2.116,5.766,4.143,11.563,6.205,17.351c-0.355,0.07-0.71,0.142-1.064,0.213
			c-0.838,0.66-1.675,1.319-3.241,2.552c5.181,0,9.2,0,13.218,0c0.045-0.298,0.089-0.596,0.134-0.895
			c-2.13-0.407-4.261-0.815-6.701-1.281c2.657-8.316,5.236-16.389,7.815-24.46c-0.225-0.248-0.45-0.497-0.675-0.744
			c-2.184,1.728-4.367,3.456-6.439,5.095c0-44.941,0-89.705,0-134.63C436.166,111.193,436.456,115.531,438.66,117.178z
			 M936.353,175.094c-0.289-0.306-0.579-0.61-0.869-0.916c0.92-2.399,2.02-4.752,2.669-7.223c0.251-0.956-0.225-2.827-0.896-3.136
			c-1.083-0.498-2.728-0.347-3.882,0.135c-0.538,0.224-0.574,1.857-0.676,2.869c-0.142,1.426,0.165,2.958-0.242,4.284
			c-1.592,5.177-3.491,10.261-5.021,15.454c-0.291,0.987,0.57,2.315,0.901,3.487c1.084-0.551,2.565-0.831,3.163-1.712
			c1.016-1.498,1.416-3.398,2.179-5.083c1.233-2.723,3.089-4.755,6.737-5.57c-1.016,3.029-1.755,5.608-2.749,8.086
			c-0.883,2.2-1.2,4.338,1.286,5.37c2.657,1.103,3.082-1.794,4.266-3.151c0.314-0.36-0.064-1.293-0.064-1.964
			c0-1.451-0.116-2.927,0.104-4.349c0.238-1.555,1.026-3.036,1.178-4.589c0.353-3.623-1.787-4.987-5.035-3.382
			C938.4,174.198,937.369,174.632,936.353,175.094z M670.207,54.547c0.306-6.922,2.585-8.886,8.437-7.506
			c-0.735,2.273-1.454,4.494-2.265,6.998c2.951,0,5.536,0,7.907,0c-2.83-8.382,1.552-16.267,0.298-24.587
			c-1.004,0.212-2.332,0.086-2.748,0.642c-5.757,7.685-11.389,15.464-17.666,24.063C666.764,54.324,668.36,54.427,670.207,54.547z
			 M220.562,46.241c-1.038,1.967-1.85,3.473-2.628,4.997c-0.257,0.504-0.746,1.237-0.57,1.538c0.313,0.535,1.029,1.102,1.62,1.152
			c1.481,0.128,3.101,0.291,4.438-0.191c0.729-0.263,1.376-1.801,1.397-2.778c0.057-2.624-0.488-5.267-0.348-7.878
			c0.226-4.211,0.876-8.399,1.17-12.609c0.044-0.644-0.857-1.353-1.598-2.437c-1.486,1.602-2.899,2.81-3.901,4.296
			c-0.945,1.403-1.186,3.313-2.213,4.626c-3.138,4.011-6.616,7.757-9.716,11.793c-0.904,1.177-0.988,2.983-1.447,4.501
			c1.541,0.329,3.082,0.658,4.681,1C212.085,45.547,212.544,45.098,220.562,46.241z M450.22,186.75
			c0.451,2.12,1.367,3.807,0.992,5.129c-1.409,4.984-3.34,9.818-4.855,14.777c-0.552,1.805-0.485,3.799-0.701,5.707
			c0.582,0.203,1.164,0.405,1.746,0.609c1.032-1.668,2.16-3.285,3.075-5.014c1.795-3.39,3.619-6.705,7.834-8.003
			c-0.5,2.424-1.7,4.583-2.171,6.892c-0.367,1.793,0.173,3.772,0.31,5.668c1.437-0.439,2.892-0.829,4.304-1.341
			c0.646-0.235,1.207-0.708,2.112-1.26c-3.091-2.795-1.926-5.666-0.744-8.578c0.318-0.781,0.658-1.762,0.451-2.502
			c-0.365-1.31-0.855-3.12-1.827-3.569c-0.911-0.422-2.568,0.524-3.792,1.094c-1.219,0.566-2.308,1.413-3.453,2.138
			c-0.192-0.244-0.384-0.49-0.577-0.735c1.25-3.498,2.501-6.995,3.937-11.012C453.928,186.75,451.914,186.75,450.22,186.75z
			 M374.413,87.647c0.419,1.548-0.368,3.666,2.626,2.454c1.274-0.516,2.865-0.396,4.303-0.335c2.885,0.12,5.763,0.556,8.645,0.564
			c2.861,0.008,5.728-0.543,8.585-0.493c3.072,0.054,6.134,0.724,9.207,0.769c6.309,0.094,12.622,0.003,18.929-0.177
			c0.648-0.018,1.264-1.16,1.895-1.78c-0.205-0.334-0.409-0.668-0.613-1.002C410.234,87.647,392.479,87.647,374.413,87.647z
			 M857.115,91.086c0.396,0.92,0.663,2.1,0.938,2.102c14.929,0.089,29.857,0.079,44.833,0.079
			C901.502,90.729,872.668,89.348,857.115,91.086z M693.601,56.007c1.882-2.783,3.748-5.077,5.015-7.666
			c0.454-0.927-0.13-3.181-0.966-3.734c-1.338-0.888-3.399-1.39-4.927-1.043c-1.066,0.242-1.75,2.172-2.605,3.348
			c0.299,0.262,0.596,0.523,0.895,0.786c0.951-0.309,1.902-0.618,3.52-1.142c-0.206,1.586-0.014,2.904-0.558,3.748
			c-1.34,2.075-2.912,4.029-4.589,5.849c-1.726,1.872-1.778,3.747,0.139,4.334c3.404,1.043,5.38-0.104,6.453-3.84
			C695.089,56.407,694.204,56.168,693.601,56.007z M236.284,45.721c-0.223,5.745-5.213,7.893-7.805,11.88
			c2.008,0.495,3.651,1.209,5.284,1.186c0.989-0.014,2.172-1.015,2.829-1.898c0.228-0.306-0.867-1.595-1.411-2.527
			c1.155-1.741,2.529-3.776,3.866-5.834c1.697-2.613,0.513-4.497-1.771-5.786c-2.486-1.403-5.164-0.171-6.379,2.979
			C232.563,45.721,234.1,45.721,236.284,45.721z M856.283,92.606c0-0.476,0-0.952,0-1.429c-11.039,0-22.079,0-33.118,0
			c0,0.477,0,0.953,0,1.429C834.204,92.606,845.244,92.606,856.283,92.606z M346.942,87.715c-0.012,0.482-0.022,0.966-0.034,1.449
			c4.134,0.435,8.261,0.969,12.405,1.258c1.731,0.121,3.587-0.699,5.229-0.352c3.251,0.688,2.258-1.092,2.16-2.355
			C359.926,87.715,353.434,87.715,346.942,87.715z M941.475,93.725c0.149-0.281,0.297-0.561,0.446-0.842
			c-0.834-0.491-1.656-1.375-2.502-1.397c-2.404-0.061-4.818,0.377-7.226,0.347c-3.096-0.039-6.187-0.413-9.282-0.443
			c-0.393-0.004-0.797,1.198-1.501,2.334C928.531,93.725,935.003,93.725,941.475,93.725z M445.71,87.68
			c0,0.981-0.129,1.408,0.021,1.677c0.86,1.525,8.914,2.276,9.729,0.793c0.274-0.5-0.544-2.329-0.95-2.358
			C451.616,87.581,448.699,87.68,445.71,87.68z M418.455,267.351c-5.011,0-9.218,0-13.643,0
			C406.417,269.495,415.395,269.666,418.455,267.351z M455.12,269.356c-2.717-2.783-8.421-2.586-9.365,0
			C448.722,269.356,451.615,269.356,455.12,269.356z M438.969,87.922c-0.154,0.41-0.309,0.821-0.463,1.231
			c1.053,0.447,2.099,1.228,3.163,1.255c1.336,0.034,3.854,0.923,2.962-2.486C442.728,87.922,440.849,87.922,438.969,87.922z
			 M373.917,87.618c-2.056-0.103-3.474-0.263-4.88-0.193c-0.477,0.023-1.067,0.55-1.327,1.006c-0.137,0.241,0.264,1.149,0.524,1.197
			c1.445,0.266,2.941,0.546,4.377,0.403C373.064,89.985,373.389,88.648,373.917,87.618z"/>
		<path fill-rule="evenodd" clip-rule="evenodd" d="M110.515,315.416c-1.545-1.236-3.029-2.561-4.649-3.691
			c-3.89-2.712-7.934-5.211-11.746-8.026c-4.004-2.958-7.626-6.458-11.75-9.222c-5.152-3.452-10.747-6.238-15.953-9.615
			c-2.876-1.867-5.216-4.543-8.032-6.521c-4.859-3.413-9.994-6.438-14.788-9.935c-0.981-0.716-1.752-3.138-1.289-4.181
			c2.314-5.198,5.226-10.126,7.639-15.284c3.89-8.316,7.633-16.703,11.289-25.125c3.664-8.439,6.994-17.026,10.743-25.427
			c4.458-9.988,9.31-19.8,13.781-29.783c1.768-3.947,2.753-8.243,4.479-12.213c3.249-7.474,6.872-14.785,10.164-22.242
			c3.854-8.731,7.491-17.559,11.283-26.317c1.599-3.694,3.368-7.315,5.037-10.979c2.077-4.559,4.066-9.16,6.248-13.669
			c0.46-0.95,1.507-2.12,2.427-2.261c5.604-0.861,11.256-1.396,16.875-2.164c2.672-0.366,5.304-1.022,7.958-1.523
			c7.98-1.507,15.954-3.053,23.946-4.49c10.328-1.856,20.704-3.461,30.998-5.482c6.932-1.36,13.703-3.602,20.661-4.737
			c2.761-0.451,5.842,0.999,8.768,1.628c5.047,1.087,10.081,2.237,15.131,3.31c7.968,1.693,15.927,3.438,23.925,4.981
			c6.426,1.24,12.903,2.214,19.357,3.306c1.466,0.248,2.948,0.428,4.395,0.76c4.049,0.93,8.058,2.063,12.131,2.861
			c6.027,1.181,12.218,1.725,18.083,3.424c2.022,0.586,3.808,3.588,4.789,5.878c3.667,8.559,7.128,17.216,10.342,25.955
			c3.91,10.632,7.35,21.435,11.257,32.068c3.384,9.212,7.206,18.263,10.704,27.434c3.463,9.082,6.704,18.248,10.152,27.336
			c3.628,9.562,7.583,19.004,11.03,28.629c3.396,9.479,6.17,19.181,9.553,28.664c1.369,3.838,3.163,7.772,7.972,8.726
			c-1.275,1.397-2.86,2.456-3.39,3.901c-0.563,1.538-0.126,3.443-0.126,5.872c-4.012-3.505-6.619-2.781-11.667,0.844
			c-5.361,3.85-10.29,8.286-16.538,11.016c-3.75,1.639-6.609,5.226-10.055,7.675c-4.846,3.445-9.885,6.618-14.801,9.965
			c-3.157,2.15-5.876,4.816-9.841,5.892c-1.667,0.451-2.726,3.141-4.167,4.944c-73.871-0.468-148.216-0.939-222.562-1.411
			C110.354,315.929,110.435,315.673,110.515,315.416z M288.063,118.497c-6.073,0-11.688-0.002-17.301,0.001
			c-5.498,0.003-10.997,0.027-16.496,0.015c-5.623-0.013-11.309,0.45-16.85-0.237c-5.096-0.632-9.94,0.848-15.204,0.086
			c-8.878-1.284-18.1-0.051-27.174-0.169c-9.228-0.12-18.459-0.458-27.673-0.98c-3.499-0.199-4.415,1.441-5.055,4.414
			c-1.738,8.075-3.729,16.098-5.695,24.123c-1.232,5.03-2.634,10.018-3.896,15.041c-0.988,3.93-1.828,7.897-2.825,11.825
			c-1.88,7.4-3.852,14.778-5.733,22.178c-0.759,2.983-1.308,6.02-2.077,9c-1.954,7.572-3.932,15.141-5.989,22.687
			c-1.871,6.862-3.884,13.685-5.765,20.544c-0.236,0.862-0.174,1.868,0.019,2.748c0.054,0.246,1.109,0.479,1.641,0.38
			c4.406-0.822,8.779-1.833,13.197-2.578c7.367-1.241,14.746-2.426,22.145-3.454c8.773-1.219,17.575-2.244,26.362-3.363
			c0.735-0.094,1.464-0.247,2.191-0.397c4.172-0.865,8.343-1.729,12.511-2.611c1.528-0.322,3.034-0.915,4.572-1.001
			c5.146-0.285,10.383-1.048,15.433-0.411c6.373,0.804,12.562,2.971,18.893,4.241c6.234,1.25,12.532,2.204,18.826,3.13
			c9.377,1.379,18.778,2.595,28.162,3.926c3.669,0.521,7.321,1.164,10.979,1.759c3.429,0.559,6.855,1.129,10.644,1.753
			C306.498,206.326,297.295,162.482,288.063,118.497z M114.965,312.04c71.373,0,142.471,0,213.496,0
			c-0.489-2.632-0.817-4.713-1.268-6.768c-1.506-6.867-3.08-13.72-4.58-20.589c-0.984-4.508-1.98-9.017-2.791-13.558
			c-0.76-4.262-1.182-8.586-1.992-12.837c-0.187-0.98-1.226-2.395-2.078-2.561c-9.027-1.764-18.086-3.368-27.154-4.911
			c-9.882-1.683-19.776-3.304-29.68-4.853c-4.706-0.736-9.431-1.52-14.177-1.797c-9.595-0.561-18.739-4.587-28.801-2.257
			c-9.349,2.166-19.092,2.615-28.654,3.885c-3.972,0.527-7.916,1.275-11.886,1.82c-4.008,0.551-8.042,0.906-12.049,1.469
			c-7.265,1.019-14.525,2.073-21.768,3.237c-1.788,0.287-3.499,1.053-5.245,1.598c-0.24,0.807-0.647,0.509-1.103,0.385
			c-4.603-1.265-6.482-0.046-7.431,4.501c-1.035,4.957-2.197,9.89-3.383,14.813c-1.501,6.228-2.979,12.464-4.667,18.642
			c-1.155,4.225-2.655,8.357-4.001,12.53c-0.078-0.086-0.157-0.172-0.236-0.258C115.356,306.735,115.194,308.938,114.965,312.04z
			 M48.568,261.457c0.246,0.377,0.491,0.754,0.737,1.132c2.324-0.515,4.626-1.173,6.975-1.515
			c5.488-0.799,11.024-1.288,16.493-2.189c8.483-1.399,16.896-3.242,25.396-4.512c7.19-1.073,14.455-1.687,21.701-2.339
			c5.164-0.464,6.553-1.682,7.421-6.745c0.791-4.614,1.62-9.234,2.726-13.78c1.996-8.202,4.156-16.366,6.353-24.518
			c1.906-7.072,4.099-14.07,5.907-21.166c1.897-7.449,3.385-15.001,5.245-22.46c1.402-5.623,3.198-11.146,4.659-16.755
			c2.533-9.718,4.702-19.54,7.554-29.161c0.828-2.792-0.043-3.748-1.901-5.013c-4.34-2.954-8.764-5.811-12.897-9.036
			c-3.666-2.86-6.975-6.173-10.462-9.264c-2.306-2.044-4.564-4.162-7.044-5.974c-0.465-0.34-2.384,0.333-2.753,1.015
			c-1.331,2.455-2.297,5.109-3.38,7.696c-2.066,4.935-4.067,9.898-6.19,14.809c-2.295,5.309-4.763,10.542-7.036,15.861
			c-2.442,5.714-4.616,11.545-7.145,17.219c-2.96,6.641-6.243,13.137-9.26,19.753c-2.116,4.641-3.984,9.392-6.031,14.065
			c-2.435,5.56-4.98,11.07-7.412,16.632c-3.551,8.122-7.01,16.284-10.574,24.401c-1.808,4.117-3.813,8.146-5.628,12.26
			c-1.609,3.648-2.966,7.411-4.631,11.032C54.53,249.127,51.517,255.276,48.568,261.457z M393.7,264.218
			c-2.797-7.579-5.339-14.705-8.053-21.767c-3.468-9.022-7.192-17.948-10.589-26.996c-4.171-11.109-8.038-22.332-12.19-33.448
			c-2.842-7.606-6.069-15.07-8.902-22.68c-3.878-10.419-7.516-20.926-11.313-31.375c-3.66-10.072-7.327-20.143-11.128-30.163
			c-1.173-3.092-2.799-6.015-4.504-9.622c-7.792,6.26-14.742,11.939-21.803,17.475c-3.214,2.519-6.7,4.688-9.965,7.146
			c-1.913,1.438-3.362,3.097-2.711,5.951c1.341,5.887,2.358,11.846,3.603,17.756c3.748,17.781,7.587,35.542,11.292,53.333
			c1.473,7.067,2.597,14.206,4.035,21.281c2.585,12.726,5.259,25.436,7.992,38.131c0.217,1.008,1.005,2.43,1.826,2.68
			c3.182,0.967,6.463,1.649,9.745,2.233c8.809,1.565,17.634,3.043,26.458,4.519c3.636,0.607,7.292,1.089,10.93,1.68
			c4.205,0.684,8.393,1.479,12.603,2.125C385.219,263.12,389.431,263.637,393.7,264.218z M131.708,85.55
			c1.866,1.949,3.183,3.514,4.7,4.85c1.3,1.145,3.053,3.056,4.211,2.805c2.248-0.487,2.82,0.264,3.432,1.982
			c0.274,0.768,0.822,1.536,1.448,2.062c2.412,2.028,5.251,3.656,7.3,5.988c4.729,5.384,9.862,9.645,17.542,9.338
			c4.078-0.164,8.158-0.428,12.237-0.418c9.677,0.024,19.354,0.183,29.031,0.29c3.589,0.04,7.179,0.179,10.765,0.096
			c1.832-0.042,3.892-1.149,5.439-0.606c5.136,1.801,10.181,0.199,15.254,0.251c3.626,0.038,7.279-0.082,10.869,0.325
			c3.253,0.369,6.331,1.285,9.72,0.212c2.138-0.677,4.648-0.425,6.963-0.237c2.956,0.24,5.875,1.125,8.823,1.191
			c2.584,0.059,5.252-0.382,7.76-1.058c2.476-0.667,4.949-1.655,7.134-2.979c1.43-0.866,2.183-2.776,3.521-3.878
			c4.727-3.894,9.594-7.619,14.371-11.455c2.948-2.368,5.829-4.821,9.143-7.57c-3.431-0.46-6.454-0.866-9.829-1.318
			c-0.829-3.498-3.739-2.748-6.59-2.356c-0.373,1.383-0.694,2.572-1.145,4.244c-1.008-2.252-1.449-5.068-2.542-5.351
			c-4.226-1.089-8.661-1.367-13.017-1.952c-3.82-0.513-7.834,0.566-11.475-1.194c-1.234-0.597-2.047-2.3-3.281-2.621
			c-3.043-0.792-6.213-1.115-9.342-1.555c-5.801-0.816-11.636-1.426-17.406-2.418c-4.439-0.763-8.868-1.761-13.172-3.076
			c-2.755-0.842-5.669,0.363-7.847-0.279c-3.633-1.072-6.429-0.046-9.541,0.946c-1.494,0.476-3.401,0.285-4.528,1.16
			c-3.107,2.413-4.613,2.569-7.464-0.349c-2.76,5.882-7.721,2.314-11.53,2.883c-2.002,2.329-3.94,4.583-6.232,7.249
			c-2.114-1.029-4.776-2.325-7.682-3.74c-0.085,0.118-0.776,1.385-0.984,1.31c-3.58-1.289-6.841,0.041-10.156,1.021
			c-1.797,0.532-3.584,1.306-5.418,1.458c-3.522,0.294-7.111-0.06-10.603,0.394c-2.937,0.382-5.775,1.527-8.864,2.393
			c0.122,0.175-0.412-0.944-0.653-0.884C138.487,83.591,134.944,84.634,131.708,85.55z M124.117,255.244
			c-5.841,0.839-11.309,1.523-16.738,2.434c-4.5,0.755-8.929,1.954-13.439,2.627c-4.299,0.641-8.685,0.694-12.99,1.306
			c-4.014,0.569-7.957,1.624-11.958,2.304c-6.285,1.067-12.593,2.001-19.545,3.095c2.684,2.154,4.394,3.662,6.238,4.982
			c6.005,4.302,11.625,9.506,18.244,12.454c4.498,2.005,7.791,4.978,11.497,7.708c1.941,1.432,3.813,2.958,5.717,4.439
			c2.094,1.631,4.131,3.343,6.298,4.87c3.698,2.605,7.462,5.118,11.238,7.609c0.635,0.419,1.473,0.531,1.573,0.565
			c1.465-5.679,2.892-11.042,4.222-16.429c0.943-3.819,1.672-7.692,2.66-11.499c0.486-1.876,1.545-3.606,1.993-5.486
			c1.204-5.058,2.191-10.165,3.325-15.239C122.811,259.378,123.363,257.815,124.117,255.244z M393.885,270.23
			c-0.149-0.397-0.3-0.795-0.449-1.192c-3.788,0-7.577,0.026-11.365-0.015c-1.194-0.014-2.586,0.146-3.541-0.389
			c-2.335-1.312-4.277-3.657-6.728-4.354c-3.838-1.092-7.967-1.164-11.972-1.673c-5.233-0.666-10.46-1.395-15.703-1.983
			c-2.591-0.291-5.292,0.022-7.802-0.555c-4.853-1.116-9.604-2.67-14.984-4.21c0.326,1.984,0.429,3.08,0.692,4.136
			c1.594,6.397,3.462,12.737,4.785,19.189c2.056,10.027,3.753,20.129,5.593,30.2c0.333,1.82,1.087,2.364,2.721,1.115
			c5.839-4.463,11.616-9.015,17.592-13.286c5.045-3.606,10.308-6.913,15.532-10.264c1.603-1.027,3.499-1.605,5.076-2.664
			c3.582-2.402,7.019-5.021,10.574-7.463C387.192,274.566,390.556,272.424,393.885,270.23z"/>
		<path fill-rule="evenodd" clip-rule="evenodd" d="M821.897,91.921c-0.944,0.252-1.89,0.503-3.274,0.871
			c0.769,3.285,1.481,6.524,2.284,9.741c2.669,10.695,5.32,21.394,8.078,32.065c1.36,5.259,3.037,10.435,4.396,15.693
			c2.231,8.637,4.29,17.317,6.475,25.965c3.135,12.412,6.396,24.793,9.458,37.223c3.327,13.516,6.448,27.081,9.734,40.606
			c2.695,11.097,5.538,22.156,8.236,33.252c0.752,3.093,1.22,6.255,1.715,8.844c15.396,0,30.129,0,45.653,0
			c-3.017-9.358-5.719-17.743-8.657-26.86c4.428,0.14,3.971,5.333,7.895,5.594c0.223-0.603,0.925-1.604,0.912-2.597
			c-0.285-22.936-0.844-45.87-0.926-68.807c-0.05-14.183,0.724-28.367,0.899-42.555c0.121-9.714-0.171-19.435-0.24-29.152
			c-0.041-5.783-0.007-11.566-0.007-17.891c-2.089,2.214-4.103,4.348-6.116,6.483c-0.505-0.283-1.01-0.566-1.515-0.849
			c2.604-8.333,5.209-16.666,8.039-25.72c-3.921,0-7.387,0-10.853,0c-0.102-0.409-0.203-0.818-0.305-1.227
			c0.778-0.432,1.537-1.191,2.339-1.242c4.985-0.313,9.896,0.204,14.952,1.394c-3.484,0.937-3.759,2.671-2.648,5.402
			c2.141,5.265,4.107,10.602,6.03,15.951c0.646,1.795,0.936,3.718,1.388,5.583c-0.389,0.262-0.778,0.523-1.167,0.785
			c-2.115-2.064-4.23-4.128-6.787-6.623c0,53.967,0,107.576,0,161.185c0.194,0.254,0.39,0.507,0.584,0.76
			c1.768-2.428,3.534-4.855,5.301-7.284c0.563,0.342,1.127,0.685,1.69,1.027c-0.284,1.536-0.37,3.143-0.886,4.597
			c-2.424,6.846-4.966,13.648-7.479,20.503c3.161,2.202,5.92,2.021,9.099,1.837c6.874-0.399,13.802,0.126,20.707,0.258
			c5.234,0.101,10.47,0.165,15.704,0.277c0.782,0.017,1.561,0.209,2.341,0.319c0.021,0.381,0.042,0.762,0.063,1.143
			c-2.225,0.128-4.449,0.368-6.674,0.359c-4.733-0.019-9.467-0.241-14.2-0.25c-18.565-0.034-37.132,0.003-55.698-0.034
			c-5.956-0.012-11.912-0.232-17.868-0.192c-0.83,0.005-2.228,0.82-2.396,1.5c-1.799,7.249-7.058,10.929-13.425,13.669
			c-1.59,0.684-2.808,2.289-4.413,2.872c-4.088,1.48-8.295,2.636-12.465,3.887c-0.701,0.212-1.561,0.06-2.168,0.397
			c-6.028,3.347-12.646,4.542-19.334,5.706c-5.256,0.915-10.391,2.503-15.618,3.608c-2.772,0.587-5.624,0.821-8.448,1.146
			c-5.531,0.639-11.071,1.191-16.6,1.854c-4.402,0.528-8.774,1.395-13.188,1.711c-9.057,0.649-18.127,1.232-27.2,1.476
			c-13.484,0.359-26.978,0.58-40.466,0.527c-13.488-0.052-27.002-0.096-40.454-0.94c-9.039-0.566-17.988-2.538-26.984-3.84
			c-1.478-0.214-3.002-0.105-4.479-0.323c-6.079-0.899-12.141-1.913-18.222-2.789c-2.712-0.391-5.565-0.165-8.162-0.897
			c-8.676-2.452-17.932-2.645-26.103-7.226c-2.862-1.604-6.686-1.388-9.868-2.554c-4.211-1.542-8.125-3.907-12.352-5.394
			c-3.834-1.349-7.521-2.819-10.024-6.071c-2.727-3.542-5.532-7.146-7.435-11.139c-0.812-1.702,0.455-4.486,0.997-6.725
			c2.603-10.755,5.292-21.487,7.928-32.233c1.982-8.082,3.896-16.182,5.897-24.259c2.952-11.908,5.955-23.805,8.939-35.706
			c2.748-10.961,5.428-21.941,8.269-32.878c3.655-14.07,7.521-28.085,11.138-42.166c2.061-8.022,3.466-16.227,5.818-24.156
			c1.553-5.232,4.194-10.154,6.526-15.131c0.394-0.84,1.64-1.353,2.578-1.854c6.38-3.403,12.803-6.543,20.088-7.814
			c6.994-1.221,13.828-3.325,20.791-4.759c4.113-0.847,8.338-1.144,12.513-1.69c7.25-0.947,14.477-2.18,21.755-2.756
			c6.46-0.512,12.979-0.367,19.471-0.385c12.625-0.036,25.256-0.229,37.87,0.149c5.399,0.162,10.761,1.594,16.141,2.431
			c0.858,0.133,1.732,0.152,2.595,0.259c8.083,1.001,16.165,1.994,24.243,3.026c3.688,0.471,7.422,0.778,11.037,1.593
			c7.39,1.664,14.999,2.898,21.981,5.665c6.819,2.701,14.032,5.541,18.021,12.742c0.645,1.163,2.813,1.545,4.339,2.123
			c0.627,0.237,1.419,0.039,2.137,0.039C821.858,91.342,821.878,91.631,821.897,91.921z M861.965,285.096
			c-15.58-63.297-31.033-126.079-46.549-189.113c-1.107,0.777-2.091,1.47-3.077,2.161c-2.833,1.985-5.419,4.615-8.552,5.821
			c-6.826,2.627-13.842,4.901-20.949,6.619c-6.671,1.613-13.555,2.353-20.355,3.417c-2.457,0.385-5.084,0.177-7.391,0.957
			c-11.094,3.751-22.755,2.656-34.021,3.137c-20.376,0.871-40.853-0.604-61.287-1.129c-1.481-0.038-2.972-0.242-4.435-0.504
			c-4.271-0.762-8.51-1.726-12.797-2.364c-5.121-0.761-10.277-1.286-15.423-1.875c-2.345-0.269-4.805-0.088-7.029-0.74
			c-5.959-1.748-11.943-3.534-17.674-5.896c-3.642-1.502-7.976-1.201-10.97-4.746c-1.505-1.782-4.354-2.431-7.076-3.841
			c-15.814,62.816-31.531,125.244-47.435,188.412c2.725-1.995,4.595-3.746,6.783-4.89c5.468-2.858,11.021-5.57,16.655-8.082
			c3.038-1.354,6.253-2.446,9.496-3.169c4.752-1.061,10.123-0.642,14.292-2.729c7.045-3.526,14.711-3.959,21.963-4.999
			c11.209-1.606,22.586-2.16,33.846-4.021c8.265-1.365,16.79-1.627,25.193-1.573c22.794,0.146,45.587,0.627,68.375,1.181
			c7.552,0.183,15.107,0.802,22.627,1.559c11.054,1.113,22.091,2.423,33.107,3.858c5.684,0.741,11.354,1.727,16.948,2.974
			c9.61,2.142,19.391,3.89,28.658,7.083c8.776,3.024,18.052,5.558,25.122,12.312C860.33,285.219,861.118,285.032,861.965,285.096z
			 M761.879,330.03c0.011,0.104,0.021,0.208,0.032,0.313c7.648-0.72,15.299-1.435,22.946-2.166c0.619-0.06,1.225-0.246,1.84-0.355
			c5.723-1.016,11.458-1.97,17.168-3.056c5.249-0.999,10.769-0.864,15.57-3.839c0.982-0.607,2.425-0.429,3.629-0.726
			c4.711-1.159,9.449-2.238,14.103-3.6c2.65-0.775,5.118-2.154,7.738-3.061c5.907-2.043,12.003-3.754,15.685-9.43
			c1.235-1.902,3.147-3.962,3.146-5.949c-0.002-4.328-2.198-8.127-5.769-10.673c-1.896-1.353-4.999-1.368-6.407-2.987
			c-4.437-5.104-10.75-5.716-16.47-7.579c-6.203-2.021-12.649-3.297-18.988-4.901c-4.073-1.03-8.109-2.25-12.229-3.033
			c-2.782-0.528-5.752-0.114-8.513-0.707c-5.443-1.172-10.746-3.021-16.206-4.076c-4.671-0.901-9.472-1.205-14.23-1.557
			c-7.611-0.562-15.23-1.219-22.855-1.349c-19.546-0.331-39.104-0.132-58.646-0.635c-23.17-0.597-46.174,1.477-69.195,3.466
			c-1.32,0.115-2.596,0.689-3.906,0.983c-4.497,1.006-8.981,2.076-13.505,2.946c-5.308,1.021-10.681,1.711-15.967,2.824
			c-3.768,0.795-7.384,2.351-11.165,3.025c-5.001,0.895-9.55,3.125-14.468,4.337c-6.295,1.551-11.442,5.981-16.069,10.437
			c-4.044,3.895-5,9.806,0.178,13.07c2.898,1.827,5.499,4.125,8.376,5.991c2.451,1.589,5.027,3.041,7.694,4.221
			c2.213,0.979,4.884,1.062,6.926,2.265c5.131,3.025,10.523,4.899,16.444,5.522c3.046,0.32,6.063,1.04,9.05,1.761
			c4.021,0.972,7.949,2.424,12.011,3.123c6.829,1.175,13.714,2.104,20.608,2.803c12.9,1.305,25.807,2.664,38.743,3.458
			c15.424,0.946,30.878,1.53,46.327,1.857c7.809,0.166,15.641-0.532,23.458-0.928C739.937,331.271,750.907,330.633,761.879,330.03z
			 M673.784,69.203c0.15-0.434,0.301-0.867,0.451-1.3c-2.867,0.313-5.741,0.565-8.597,0.956c-2.713,0.371-5.393,0.998-8.11,1.303
			c-2.297,0.258-4.637,0.116-6.939,0.34c-2.04,0.198-4.055,0.658-6.08,1.002c-0.488,0.33-1.211-0.504-1.962-0.531
			c-2.585-0.094-4.982,0.985-7.769,0.724c-2.586-0.242-5.304,1.839-8.057,2.216c-3.406,0.466-6.597,3.285-10.404,0.907
			c-0.943-0.587-2.72,0.161-4.278,0.312c0.623,0.713,1.019,1.167,0.851,0.976c-2.824,0.953-5.526,2-8.304,2.772
			c-4.482,1.246-9.412,1.423-12.493,5.738c-0.322,0.451-0.935,0.892-1.464,0.965c-2.996,0.409-4.396,2.333-4.396,5.073
			c-0.002,3.308,2.724,4.735,5.16,6.132c1.234,0.708,2.697,1.019,4.057,1.51c3.08,1.176,5.925,2.787,8.965,3.839
			c4.006,1.389,8.187,3.301,12.25,3.204c3.932-0.094,7.126,2.023,10.913,1.93c2.333-0.057,4.683,0.986,7.044,1.43
			c1.276,0.24,2.656,0.051,3.88,0.42c2.324,0.701,4.526,2.233,6.854,2.406c6.083,0.455,12.209,0.31,18.315,0.505
			c6.766,0.216,13.529,0.502,20.29,0.84c3.644,0.183,7.28,0.801,10.916,0.761c6.042-0.066,12.079-0.595,18.122-0.75
			c4.077-0.103,8.227,0.594,12.229,0.064c7.364-0.975,14.761-0.785,22.125-1.332c6.563-0.488,13.145-0.876,19.662-1.735
			c4.297-0.565,8.872-1.15,12.635-3.072c3.882-1.984,7.85-1.866,11.777-2.687c3.746-0.785,7.52-1.505,10.268-4.607
			c1.004-1.134,2.472-3.071,3.356-2.884c3.457,0.729,4.331-2.223,6.722-3.598c-1.116-1.06-2.73-1.885-2.729-2.708
			c0.006-5.078-4.498-5.918-7.472-7.521c-3.652-1.969-8.052-2.531-12.088-3.828c-1.691-0.543-3.278-1.413-4.913-2.134
			c0.035-0.427,0.069-0.855,0.104-1.282c-1.729,0.582-3.459,1.165-5.425,1.826c-0.814-2.896-1.816,0.928-3.615,1.111
			c0.717-1.534,1.216-2.603,1.73-3.707c-3.489-0.611-6.822-1.562-10.185-1.682c-3.441-0.123-6.895,0.582-10.035-1.554
			c-0.207-0.141-1.223,0.909-2.185,1.655c-7.007-3.397-14.352-3.92-17.768-1.305c-0.753-0.866-1.551-2.413-2.121-2.333
			c-2.725,0.382-5.947-2.014-8.098,1.222c-4.802-4.108-9.968,1.136-15.063-0.577c0.483-0.722,0.878-1.313,1.645-2.462
			c-12.371,1.151-24.338-2.359-36.188,1.867c0.943,0.869,1.633,1.503,2.321,2.137c-0.162,0.203-0.324,0.404-0.486,0.606
			C677.397,71.31,675.591,70.256,673.784,69.203z"/>
		<path fill-rule="evenodd" clip-rule="evenodd" d="M438.66,117.178c-2.204-1.647-2.495-5.984-6.767-5.112
			c0,44.925,0,89.688,0,134.63c2.072-1.639,4.255-3.367,6.439-5.095c0.225,0.247,0.45,0.496,0.675,0.744
			c-2.579,8.071-5.158,16.144-7.815,24.46c2.44,0.466,4.57,0.874,6.701,1.281c-0.045,0.299-0.089,0.597-0.134,0.895
			c-4.019,0-8.037,0-13.218,0c1.566-1.232,2.403-1.892,3.241-2.552c0.354-0.071,0.709-0.143,1.064-0.213
			c-2.062-5.787-4.089-11.585-6.205-17.351c-0.71-1.934-1.735-3.751-2.43-5.688c-0.21-0.585,0.209-1.395,0.34-2.102
			c0.735,0.221,1.583,0.279,2.185,0.695c1.655,1.143,3.208,2.436,5.468,4.185c0-45.149,0-89.318,0-134.398
			c-2.293,1.9-4.162,3.45-6.787,5.627c0-1.855-0.41-3.263,0.065-4.238c3.638-7.459,6.54-15.114,7.476-23.441
			c0.075-0.668,1.414-1.607,2.244-1.697c2.197-0.239,4.437-0.081,7.3-0.081c-0.706,4.962-5.031,1.321-6.515,3.465
			c2.679,8.394,5.41,16.949,8.14,25.504C439.638,116.856,439.149,117.017,438.66,117.178z"/>
		<path fill-rule="evenodd" clip-rule="evenodd" d="M936.353,175.094c1.017-0.462,2.048-0.896,3.048-1.39
			c3.248-1.605,5.388-0.241,5.035,3.382c-0.151,1.553-0.939,3.034-1.178,4.589c-0.22,1.422-0.104,2.897-0.104,4.349
			c0,0.671,0.379,1.604,0.064,1.964c-1.184,1.357-1.608,4.254-4.266,3.151c-2.486-1.032-2.169-3.17-1.286-5.37
			c0.994-2.478,1.733-5.057,2.749-8.086c-3.648,0.815-5.504,2.848-6.737,5.57c-0.763,1.685-1.163,3.585-2.179,5.083
			c-0.598,0.881-2.079,1.161-3.163,1.712c-0.331-1.172-1.192-2.5-0.901-3.487c1.53-5.193,3.43-10.277,5.021-15.454
			c0.407-1.326,0.101-2.858,0.242-4.284c0.102-1.011,0.138-2.645,0.676-2.869c1.154-0.481,2.799-0.632,3.882-0.135
			c0.671,0.309,1.146,2.18,0.896,3.136c-0.649,2.471-1.749,4.824-2.669,7.223C935.773,174.483,936.063,174.788,936.353,175.094z"/>
		<path fill-rule="evenodd" clip-rule="evenodd" d="M670.207,54.547c-1.847-0.12-3.443-0.223-6.037-0.391
			c6.277-8.599,11.909-16.378,17.666-24.063c0.416-0.556,1.744-0.43,2.748-0.642c1.254,8.321-3.128,16.205-0.298,24.587
			c-2.371,0-4.956,0-7.907,0c0.811-2.504,1.529-4.725,2.265-6.998C672.792,45.661,670.513,47.625,670.207,54.547z"/>
		<path fill-rule="evenodd" clip-rule="evenodd" d="M220.562,46.241c-8.018-1.143-8.477-0.694-9.116,8.011
			c-1.599-0.342-3.14-0.672-4.681-1c0.459-1.518,0.543-3.324,1.447-4.501c3.1-4.036,6.578-7.782,9.716-11.793
			c1.028-1.313,1.268-3.223,2.213-4.626c1.001-1.486,2.415-2.694,3.901-4.296c0.741,1.084,1.642,1.793,1.598,2.437
			c-0.294,4.21-0.944,8.398-1.17,12.609c-0.14,2.611,0.404,5.254,0.348,7.878c-0.021,0.977-0.668,2.515-1.397,2.778
			c-1.337,0.482-2.957,0.319-4.438,0.191c-0.591-0.05-1.307-0.617-1.62-1.152c-0.176-0.3,0.313-1.034,0.57-1.538
			C218.712,49.713,219.523,48.208,220.562,46.241z"/>
		<path fill-rule="evenodd" clip-rule="evenodd" d="M450.22,186.75c1.694,0,3.708,0,6.641,0c-1.436,4.017-2.687,7.514-3.937,11.012
			c0.192,0.245,0.384,0.491,0.577,0.735c1.146-0.725,2.234-1.571,3.453-2.138c1.224-0.569,2.882-1.516,3.792-1.094
			c0.971,0.449,1.462,2.26,1.827,3.569c0.207,0.74-0.133,1.721-0.451,2.502c-1.182,2.912-2.348,5.783,0.744,8.578
			c-0.905,0.552-1.465,1.024-2.112,1.26c-1.412,0.512-2.867,0.901-4.304,1.341c-0.137-1.896-0.677-3.875-0.31-5.668
			c0.472-2.309,1.671-4.468,2.171-6.892c-4.216,1.298-6.039,4.613-7.834,8.003c-0.916,1.729-2.043,3.346-3.075,5.014
			c-0.582-0.204-1.164-0.406-1.746-0.609c0.216-1.908,0.149-3.902,0.701-5.707c1.515-4.959,3.446-9.793,4.855-14.777
			C451.586,190.557,450.671,188.87,450.22,186.75z"/>
		<path fill-rule="evenodd" clip-rule="evenodd" d="M374.413,87.647c18.066,0,35.821,0,53.576,0
			c0.205,0.334,0.409,0.668,0.613,1.002c-0.631,0.62-1.247,1.762-1.895,1.78c-6.307,0.18-12.621,0.271-18.929,0.177
			c-3.072-0.045-6.134-0.715-9.207-0.769c-2.857-0.051-5.724,0.501-8.585,0.493c-2.882-0.008-5.76-0.444-8.645-0.564
			c-1.438-0.06-3.028-0.181-4.303,0.335C374.045,91.313,374.832,89.195,374.413,87.647z"/>
		<path fill-rule="evenodd" clip-rule="evenodd" d="M857.115,91.086c15.553-1.739,44.387-0.357,45.771,2.181
			c-14.976,0-29.904,0.01-44.833-0.079C857.778,93.187,857.511,92.006,857.115,91.086z"/>
		<path fill-rule="evenodd" clip-rule="evenodd" d="M693.601,56.007c0.604,0.162,1.488,0.4,2.376,0.639
			c-1.073,3.736-3.049,4.884-6.453,3.84c-1.917-0.587-1.864-2.462-0.139-4.334c1.677-1.82,3.249-3.773,4.589-5.849
			c0.544-0.843,0.352-2.162,0.558-3.748c-1.617,0.524-2.568,0.833-3.52,1.142c-0.299-0.262-0.596-0.524-0.895-0.786
			c0.855-1.176,1.539-3.106,2.605-3.348c1.527-0.347,3.589,0.155,4.927,1.043c0.836,0.554,1.42,2.807,0.966,3.734
			C697.349,50.93,695.482,53.224,693.601,56.007z"/>
		<path fill-rule="evenodd" clip-rule="evenodd" d="M236.284,45.721c-2.184,0-3.721,0-5.389,0c1.215-3.149,3.894-4.381,6.379-2.979
			c2.285,1.289,3.469,3.173,1.771,5.786c-1.337,2.058-2.71,4.093-3.866,5.834c0.544,0.932,1.639,2.221,1.411,2.527
			c-0.657,0.883-1.839,1.884-2.829,1.898c-1.633,0.023-3.276-0.691-5.284-1.186C231.07,53.613,236.061,51.466,236.284,45.721z"/>
		<path fill-rule="evenodd" clip-rule="evenodd" d="M856.283,92.606c-11.039,0-22.079,0-33.118,0c0-0.476,0-0.952,0-1.429
			c11.039,0,22.079,0,33.118,0C856.283,91.654,856.283,92.13,856.283,92.606z"/>
		<path fill-rule="evenodd" clip-rule="evenodd" d="M346.942,87.715c6.492,0,12.984,0,19.761,0c0.098,1.263,1.091,3.042-2.16,2.355
			c-1.643-0.347-3.499,0.473-5.229,0.352c-4.144-0.289-8.271-0.823-12.405-1.258C346.92,88.681,346.931,88.197,346.942,87.715z"/>
		<path fill-rule="evenodd" clip-rule="evenodd" d="M941.475,93.725c-6.472,0-12.943,0-20.064,0
			c0.704-1.136,1.108-2.338,1.501-2.334c3.096,0.03,6.187,0.404,9.282,0.443c2.407,0.03,4.821-0.408,7.226-0.347
			c0.846,0.021,1.668,0.906,2.502,1.397C941.771,93.164,941.624,93.444,941.475,93.725z"/>
		<path fill-rule="evenodd" clip-rule="evenodd" d="M445.71,87.68c2.989,0,5.906-0.099,8.801,0.112
			c0.406,0.029,1.225,1.858,0.95,2.358c-0.815,1.483-8.87,0.732-9.729-0.793C445.581,89.088,445.71,88.661,445.71,87.68z"/>
		<path fill-rule="evenodd" clip-rule="evenodd" d="M418.455,267.351c-3.06,2.315-12.038,2.145-13.643,0
			C409.237,267.351,413.444,267.351,418.455,267.351z"/>
		<path fill-rule="evenodd" clip-rule="evenodd" d="M455.12,269.356c-3.505,0-6.398,0-9.365,0
			C446.699,266.771,452.403,266.573,455.12,269.356z"/>
		<path fill-rule="evenodd" clip-rule="evenodd" d="M438.969,87.922c1.879,0,3.758,0,5.662,0c0.891,3.409-1.626,2.521-2.962,2.486
			c-1.064-0.027-2.11-0.808-3.163-1.255C438.66,88.743,438.815,88.332,438.969,87.922z"/>
		<path fill-rule="evenodd" clip-rule="evenodd" d="M373.917,87.618c-0.528,1.03-0.853,2.367-1.306,2.413
			c-1.436,0.143-2.932-0.137-4.377-0.403c-0.261-0.047-0.661-0.956-0.524-1.197c0.26-0.456,0.851-0.982,1.327-1.006
			C370.443,87.355,371.861,87.516,373.917,87.618z"/>
		<path fill-rule="evenodd" clip-rule="evenodd" fill="#FFFFFF" d="M288.063,118.497c9.232,43.986,18.434,87.83,27.84,132.646
			c-3.789-0.624-7.215-1.194-10.644-1.753c-3.658-0.595-7.309-1.237-10.979-1.759c-9.384-1.331-18.785-2.547-28.162-3.926
			c-6.294-0.926-12.592-1.88-18.826-3.13c-6.331-1.271-12.52-3.438-18.893-4.241c-5.049-0.637-10.287,0.126-15.433,0.411
			c-1.538,0.086-3.043,0.679-4.572,1.001c-4.168,0.883-8.339,1.746-12.511,2.611c-0.727,0.15-1.456,0.304-2.191,0.397
			c-8.788,1.119-17.589,2.145-26.362,3.363c-7.399,1.028-14.778,2.213-22.145,3.454c-4.418,0.745-8.791,1.756-13.197,2.578
			c-0.532,0.1-1.587-0.134-1.641-0.38c-0.193-0.88-0.255-1.886-0.019-2.748c1.881-6.859,3.894-13.682,5.765-20.544
			c2.058-7.546,4.035-15.114,5.989-22.687c0.769-2.98,1.318-6.017,2.077-9c1.881-7.399,3.853-14.777,5.733-22.178
			c0.998-3.928,1.837-7.895,2.825-11.825c1.262-5.023,2.664-10.011,3.896-15.041c1.966-8.025,3.958-16.047,5.695-24.123
			c0.64-2.973,1.556-4.612,5.055-4.414c9.214,0.521,18.445,0.86,27.673,0.98c9.074,0.118,18.295-1.115,27.174,0.169
			c5.263,0.761,10.107-0.719,15.204-0.086c5.542,0.687,11.228,0.225,16.85,0.237c5.499,0.012,10.998-0.011,16.496-0.015
			C276.376,118.495,281.99,118.497,288.063,118.497z M224.36,153.861c-0.525,0.226-1.05,0.452-1.576,0.678
			c7.826,1.53,0.163,4.479,2.573,6.78c0.773-0.062,1.785-0.144,2.928-0.236c-0.275-1.952-0.542-3.507-0.694-5.072
			c-0.093-0.944-0.007-1.906-0.001-2.86C226.513,153.388,225.437,153.624,224.36,153.861z M224.188,217.37
			c4.137,0.354,4.137,0.354,3.479-8.393c-1.022,0.388-1.915,0.728-2.807,1.065c0.469,1.157,0.938,2.314,1.359,3.355
			C225.604,214.604,224.987,215.809,224.188,217.37z M228.588,132.553c-0.559-0.3-1.119-0.6-1.678-0.899
			c-0.668,1.024-1.57,1.986-1.883,3.11c-0.113,0.403,1.193,1.202,1.851,1.82C227.448,135.24,228.018,133.896,228.588,132.553z
			 M227.308,167.031c0.303-0.286,0.607-0.573,0.911-0.859c-0.201-1.347-0.403-2.693-0.605-4.04
			c-0.415-0.099-0.829-0.198-1.244-0.296c-0.539,1.138-1.432,2.264-1.466,3.417C224.888,165.821,226.457,166.437,227.308,167.031z"
			/>
		<path fill-rule="evenodd" clip-rule="evenodd" fill="#FFFFFF" d="M114.965,312.04c0.229-3.102,0.392-5.305,0.554-7.508
			c0.079,0.086,0.158,0.172,0.236,0.258c1.346-4.173,2.846-8.306,4.001-12.53c1.689-6.178,3.166-12.414,4.667-18.642
			c1.187-4.923,2.348-9.855,3.383-14.813c0.949-4.547,2.828-5.766,7.431-4.501c0.455,0.124,0.863,0.422,1.103-0.385
			c1.746-0.545,3.457-1.311,5.245-1.598c7.243-1.164,14.503-2.219,21.768-3.237c4.006-0.563,8.041-0.918,12.049-1.469
			c3.971-0.545,7.914-1.293,11.886-1.82c9.562-1.27,19.305-1.719,28.654-3.885c10.062-2.33,19.206,1.696,28.801,2.257
			c4.746,0.277,9.471,1.061,14.177,1.797c9.904,1.549,19.797,3.17,29.68,4.853c9.068,1.543,18.127,3.147,27.154,4.911
			c0.852,0.166,1.892,1.58,2.078,2.561c0.81,4.251,1.231,8.575,1.992,12.837c0.811,4.541,1.807,9.05,2.791,13.558
			c1.5,6.869,3.074,13.722,4.58,20.589c0.451,2.055,0.779,4.136,1.268,6.768C257.436,312.04,186.337,312.04,114.965,312.04z
			 M219.572,287.338c-0.595-2.162-1.387-3.578-1.287-4.927c0.425-5.693,1.155-11.362,1.669-17.05
			c0.081-0.889-0.378-1.825-0.587-2.74c-0.906,0.395-1.87,0.694-2.695,1.216c-0.596,0.377-1.061,1.009-1.49,1.596
			c-2.002,2.74-3.933,5.531-5.96,8.253c-3.217,4.319-6.49,8.598-9.852,13.042c2.091,0.733,3.629,1.272,5.632,1.975
			c0.192-1.359,0.11-2.743,0.612-3.864c0.683-1.522,1.526-3.377,2.841-4.088c1.096-0.592,2.972,0.259,4.503,0.471
			c-0.588,1.569-1.198,3.132-1.747,4.716c-0.109,0.314,0.021,0.713,0.07,1.628C214.165,286.963,217.072,290.458,219.572,287.338z
			 M229.118,276.742c-1.78,6.021-3.304,11.172-4.956,16.761c1.601,0,3.58,0,5.558,0c-0.31-0.275-0.62-0.551-0.93-0.826
			c1.338-5.017,2.675-10.034,4.15-15.566C231.231,276.945,229.759,276.804,229.118,276.742z"/>
		<path fill-rule="evenodd" clip-rule="evenodd" fill="#FFFFFF" d="M48.568,261.457c2.949-6.181,5.962-12.33,8.822-18.551
			c1.665-3.621,3.022-7.384,4.631-11.032c1.814-4.114,3.82-8.143,5.628-12.26c3.563-8.117,7.023-16.279,10.574-24.401
			c2.432-5.562,4.977-11.072,7.412-16.632c2.047-4.673,3.915-9.424,6.031-14.065c3.017-6.616,6.3-13.112,9.26-19.753
			c2.529-5.674,4.703-11.505,7.145-17.219c2.273-5.318,4.741-10.552,7.036-15.861c2.123-4.91,4.125-9.874,6.19-14.809
			c1.083-2.587,2.05-5.241,3.38-7.696c0.37-0.682,2.289-1.354,2.753-1.015c2.479,1.812,4.738,3.929,7.044,5.974
			c3.487,3.091,6.796,6.404,10.462,9.264c4.134,3.225,8.558,6.082,12.897,9.036c1.858,1.265,2.729,2.22,1.901,5.013
			c-2.852,9.621-5.021,19.443-7.554,29.161c-1.461,5.609-3.257,11.132-4.659,16.755c-1.86,7.458-3.348,15.011-5.245,22.46
			c-1.808,7.096-4,14.094-5.907,21.166c-2.197,8.151-4.357,16.315-6.353,24.518c-1.106,4.546-1.936,9.166-2.726,13.78
			c-0.868,5.063-2.257,6.281-7.421,6.745c-7.247,0.652-14.511,1.266-21.701,2.339c-8.5,1.27-16.913,3.112-25.396,4.512
			c-5.469,0.901-11.005,1.391-16.493,2.189c-2.349,0.342-4.651,1-6.975,1.515C49.06,262.211,48.814,261.834,48.568,261.457z"/>
		<path fill-rule="evenodd" clip-rule="evenodd" fill="#FFFFFF" d="M393.7,264.218c-4.269-0.581-8.481-1.098-12.673-1.741
			c-4.21-0.646-8.398-1.441-12.603-2.125c-3.639-0.591-7.294-1.072-10.93-1.68c-8.825-1.476-17.65-2.953-26.458-4.519
			c-3.282-0.584-6.563-1.267-9.745-2.233c-0.821-0.25-1.609-1.672-1.826-2.68c-2.733-12.695-5.407-25.405-7.992-38.131
			c-1.438-7.075-2.563-14.214-4.035-21.281c-3.705-17.79-7.545-35.551-11.292-53.333c-1.245-5.91-2.262-11.869-3.603-17.756
			c-0.651-2.854,0.798-4.512,2.711-5.951c3.266-2.458,6.751-4.627,9.965-7.146c7.062-5.536,14.012-11.215,21.803-17.475
			c1.706,3.607,3.331,6.53,4.504,9.622c3.802,10.02,7.469,20.09,11.128,30.163c3.797,10.449,7.435,20.956,11.313,31.375
			c2.833,7.61,6.06,15.073,8.902,22.68c4.152,11.116,8.019,22.339,12.19,33.448c3.397,9.048,7.122,17.974,10.589,26.996
			C388.361,249.513,390.903,256.639,393.7,264.218z"/>
		<path fill-rule="evenodd" clip-rule="evenodd" fill="#FFFFFF" d="M131.708,85.55c3.236-0.916,6.779-1.958,10.361-2.845
			c0.242-0.06,0.775,1.059,0.653,0.884c3.089-0.866,5.927-2.011,8.864-2.393c3.492-0.454,7.081-0.1,10.603-0.394
			c1.834-0.153,3.621-0.927,5.418-1.458c3.315-0.98,6.577-2.31,10.156-1.021c0.208,0.076,0.899-1.191,0.984-1.31
			c2.906,1.415,5.568,2.71,7.682,3.74c2.292-2.667,4.23-4.92,6.232-7.249c3.809-0.569,8.77,2.999,11.53-2.883
			c2.851,2.918,4.356,2.762,7.464,0.349c1.126-0.875,3.034-0.684,4.528-1.16c3.112-0.992,5.908-2.018,9.541-0.946
			c2.178,0.643,5.091-0.563,7.847,0.279c4.304,1.315,8.732,2.313,13.172,3.076c5.771,0.992,11.605,1.602,17.406,2.418
			c3.129,0.44,6.299,0.764,9.342,1.555c1.233,0.321,2.046,2.023,3.281,2.621c3.641,1.761,7.655,0.681,11.475,1.194
			c4.356,0.585,8.791,0.863,13.017,1.952c1.093,0.282,1.533,3.098,2.542,5.351c0.451-1.672,0.772-2.861,1.145-4.244
			c2.851-0.391,5.761-1.142,6.59,2.356c3.375,0.452,6.398,0.858,9.829,1.318c-3.314,2.749-6.194,5.202-9.143,7.57
			c-4.777,3.835-9.644,7.561-14.371,11.455c-1.338,1.102-2.091,3.012-3.521,3.878c-2.185,1.324-4.658,2.313-7.134,2.979
			c-2.508,0.675-5.176,1.116-7.76,1.058c-2.948-0.066-5.868-0.951-8.823-1.191c-2.315-0.188-4.825-0.439-6.963,0.237
			c-3.389,1.073-6.467,0.157-9.72-0.212c-3.589-0.407-7.243-0.287-10.869-0.325c-5.073-0.052-10.118,1.55-15.254-0.251
			c-1.547-0.543-3.607,0.564-5.439,0.606c-3.586,0.083-7.176-0.057-10.765-0.096c-9.677-0.107-19.354-0.266-29.031-0.29
			c-4.079-0.009-8.159,0.255-12.237,0.418c-7.68,0.307-12.813-3.954-17.542-9.338c-2.048-2.332-4.888-3.96-7.3-5.988
			c-0.626-0.526-1.174-1.294-1.448-2.062c-0.612-1.718-1.184-2.469-3.432-1.982c-1.158,0.25-2.912-1.661-4.211-2.805
			C134.891,89.064,133.574,87.499,131.708,85.55z M226.453,85.541c0.77-1.288,1.539-2.576,2.308-3.865
			c-0.331-0.375-0.662-0.75-0.992-1.125c-1.122,0.54-2.931,0.853-3.202,1.674c-0.394,1.194-0.858,3.517,1.972,3.246
			c-0.413,1.531-0.825,3.062-1.237,4.593c-0.64,1.311-2.985,2.833-2.816,3.985c0.318,2.167,2.088,4.122,3.369,6.366
			c-2.658,1.911-2.473,4.09-0.218,5.85c-0.802,1.333-1.468,2.438-2.293,3.81c2.565,0.449,5.716,1.127,4.96-1.631
			c-0.768-2.799,0.227-5.173-0.019-7.739c-0.241-2.513,0.552-5.124,0.964-8.238c-0.185-1.014-0.35-2.843-0.896-4.549
			C228.062,87.015,227.106,86.327,226.453,85.541z M225.445,75.777c0.517-0.354,0.054-0.21-0.01,0.038
			c-0.251,0.961-0.753,2.118-0.424,2.886c0.242,0.564,1.634,0.634,2.514,0.924c0.258-0.934,0.583-1.855,0.756-2.805
			c0.188-1.04,0.403-2.124,0.295-3.155c-0.111-1.058-0.601-2.076-0.924-3.112c-0.932,0.312-2.447,0.407-2.663,0.986
			C224.643,72.465,225.161,73.712,225.445,75.777z M159.578,99.217c-0.467,0.382-0.935,0.765-1.402,1.147
			c0.906,1.264,1.745,2.591,2.817,3.694c0.11,0.114,2.181-0.984,2.365-1.754C164.307,98.348,159.77,101.862,159.578,99.217z
			 M195.634,103.871c0.567-4.295-3.159-2.688-4.977-4.202C190.291,104.071,193.068,103.72,195.634,103.871z M188.915,88.506
			c-0.571,1.992-0.96,3.351-1.35,4.711c0.266,0.201,0.532,0.402,0.798,0.603c1.104-0.646,2.207-1.294,3.389-1.987
			C190.922,90.858,190.255,90.079,188.915,88.506z"/>
		<path fill-rule="evenodd" clip-rule="evenodd" fill="#FFFFFF" d="M124.117,255.244c-0.754,2.571-1.306,4.134-1.666,5.74
			c-1.134,5.074-2.121,10.182-3.325,15.239c-0.448,1.88-1.507,3.61-1.993,5.486c-0.988,3.807-1.717,7.68-2.66,11.499
			c-1.33,5.387-2.757,10.75-4.222,16.429c-0.101-0.034-0.938-0.146-1.573-0.565c-3.776-2.491-7.541-5.004-11.238-7.609
			c-2.167-1.527-4.204-3.239-6.298-4.87c-1.904-1.481-3.775-3.008-5.717-4.439c-3.706-2.73-6.999-5.703-11.497-7.708
			c-6.619-2.948-12.239-8.152-18.244-12.454c-1.844-1.32-3.554-2.828-6.238-4.982c6.952-1.094,13.26-2.027,19.545-3.095
			c4.001-0.68,7.944-1.734,11.958-2.304c4.305-0.611,8.691-0.665,12.99-1.306c4.51-0.673,8.939-1.872,13.439-2.627
			C112.808,256.768,118.275,256.083,124.117,255.244z"/>
		<path fill-rule="evenodd" clip-rule="evenodd" fill="#FFFFFF" d="M393.885,270.23c-3.329,2.193-6.693,4.336-9.978,6.593
			c-3.556,2.442-6.992,5.061-10.574,7.463c-1.577,1.059-3.473,1.637-5.076,2.664c-5.224,3.351-10.487,6.657-15.532,10.264
			c-5.977,4.271-11.753,8.823-17.592,13.286c-1.634,1.249-2.388,0.705-2.721-1.115c-1.839-10.071-3.537-20.173-5.593-30.2
			c-1.323-6.452-3.191-12.792-4.785-19.189c-0.263-1.056-0.366-2.151-0.692-4.136c5.379,1.54,10.131,3.094,14.984,4.21
			c2.509,0.577,5.21,0.264,7.802,0.555c5.243,0.589,10.469,1.317,15.703,1.983c4.004,0.509,8.133,0.581,11.972,1.673
			c2.451,0.697,4.392,3.043,6.728,4.354c0.955,0.535,2.347,0.375,3.541,0.389c3.788,0.041,7.577,0.015,11.365,0.015
			C393.585,269.436,393.735,269.833,393.885,270.23z"/>
		<path fill-rule="evenodd" clip-rule="evenodd" fill="#FFFFFF" d="M861.965,285.096c-0.847-0.063-1.635,0.123-1.953-0.182
			c-7.07-6.754-16.346-9.287-25.122-12.312c-9.268-3.193-19.048-4.941-28.658-7.083c-5.594-1.247-11.265-2.232-16.948-2.974
			c-11.017-1.436-22.054-2.745-33.107-3.858c-7.52-0.757-15.075-1.376-22.627-1.559c-22.788-0.554-45.581-1.034-68.375-1.181
			c-8.403-0.054-16.929,0.208-25.193,1.573c-11.26,1.86-22.637,2.414-33.846,4.021c-7.252,1.04-14.918,1.473-21.963,4.999
			c-4.169,2.087-9.54,1.668-14.292,2.729c-3.243,0.723-6.458,1.814-9.496,3.169c-5.635,2.512-11.188,5.224-16.655,8.082
			c-2.188,1.144-4.059,2.895-6.783,4.89c15.903-63.168,31.62-125.596,47.435-188.412c2.722,1.411,5.571,2.059,7.076,3.841
			c2.994,3.545,7.328,3.244,10.97,4.746c5.73,2.363,11.715,4.149,17.674,5.896c2.225,0.652,4.685,0.471,7.029,0.74
			c5.146,0.589,10.302,1.114,15.423,1.875c4.287,0.638,8.526,1.602,12.797,2.364c1.463,0.262,2.953,0.466,4.435,0.504
			c20.435,0.525,40.911,2,61.287,1.129c11.267-0.481,22.928,0.615,34.021-3.137c2.307-0.78,4.934-0.572,7.391-0.957
			c6.801-1.064,13.685-1.804,20.355-3.417c7.107-1.718,14.123-3.992,20.949-6.619c3.133-1.206,5.719-3.835,8.552-5.821
			c0.986-0.691,1.97-1.384,3.077-2.161C830.932,159.017,846.385,221.799,861.965,285.096z"/>
		<path fill-rule="evenodd" clip-rule="evenodd" fill="#FFFFFF" d="M761.879,330.03c-10.972,0.603-21.942,1.241-32.917,1.797
			c-7.817,0.396-15.649,1.094-23.458,0.928c-15.449-0.327-30.903-0.911-46.327-1.857c-12.937-0.794-25.843-2.153-38.743-3.458
			c-6.895-0.698-13.779-1.628-20.608-2.803c-4.062-0.699-7.989-2.151-12.011-3.123c-2.987-0.721-6.004-1.44-9.05-1.761
			c-5.921-0.623-11.313-2.497-16.444-5.522c-2.042-1.203-4.713-1.285-6.926-2.265c-2.667-1.18-5.243-2.632-7.694-4.221
			c-2.877-1.866-5.478-4.164-8.376-5.991c-5.178-3.265-4.222-9.176-0.178-13.07c4.627-4.455,9.774-8.886,16.069-10.437
			c4.918-1.212,9.467-3.442,14.468-4.337c3.781-0.675,7.397-2.23,11.165-3.025c5.286-1.113,10.659-1.803,15.967-2.824
			c4.523-0.87,9.008-1.94,13.505-2.946c1.311-0.294,2.586-0.868,3.906-0.983c23.021-1.989,46.025-4.063,69.195-3.466
			c19.542,0.503,39.101,0.304,58.646,0.635c7.625,0.13,15.244,0.787,22.855,1.349c4.759,0.352,9.56,0.655,14.23,1.557
			c5.46,1.055,10.763,2.904,16.206,4.076c2.761,0.593,5.73,0.179,8.513,0.707c4.12,0.783,8.156,2.003,12.229,3.033
			c6.339,1.604,12.785,2.88,18.988,4.901c5.72,1.863,12.033,2.476,16.47,7.579c1.408,1.619,4.511,1.635,6.407,2.987
			c3.57,2.546,5.767,6.345,5.769,10.673c0.001,1.987-1.911,4.047-3.146,5.949c-3.682,5.676-9.777,7.387-15.685,9.43
			c-2.62,0.906-5.088,2.285-7.738,3.061c-4.653,1.361-9.392,2.44-14.103,3.6c-1.204,0.297-2.646,0.118-3.629,0.726
			c-4.802,2.975-10.321,2.84-15.57,3.839c-5.71,1.086-11.445,2.04-17.168,3.056c-0.615,0.109-1.221,0.296-1.84,0.355
			c-7.647,0.731-15.298,1.446-22.946,2.166C761.9,330.238,761.89,330.135,761.879,330.03z M684.141,302.972
			c0.249,0.352,0.499,0.704,0.748,1.056c1.998-0.101,3.996-0.202,6.121-0.31c-1.337-4.657,1.765-7.238,7.72-5.967
			c-1.142,2.145-2.139,4.016-3.023,5.678c2.786,0,5.821,0,9.065,0c-1.048-1.881-2.381-3.188-2.39-4.503
			c-0.018-3.183,0.521-6.377,0.952-9.55c0.334-2.455,0.986-4.874,1.204-7.334c0.082-0.93-0.521-2.034-1.116-2.833
			c-0.167-0.226-1.72,0.106-2.112,0.601c-2.407,3.029-4.648,6.191-6.975,9.287c-2.717,3.617-5.479,7.2-8.189,10.823
			C685.417,300.893,684.806,301.952,684.141,302.972z M713.315,311.103c1.614-5.177,3.189-9.746,4.371-14.416
			c0.237-0.94-0.842-3.057-1.63-3.236c-1.568-0.355-3.356,0.259-3.979,0.337c0,2.559,0.276,4.244-0.067,5.791
			c-0.47,2.11-1.416,4.114-2.15,6.167C708.018,310.896,708.563,311.593,713.315,311.103z"/>
		<path fill-rule="evenodd" clip-rule="evenodd" fill="#FFFFFF" d="M673.784,69.203c1.807,1.053,3.613,2.106,5.42,3.161
			c0.162-0.202,0.324-0.403,0.486-0.606c-0.688-0.634-1.378-1.269-2.321-2.137c11.85-4.226,23.816-0.716,36.188-1.867
			c-0.767,1.148-1.161,1.74-1.645,2.462c5.096,1.713,10.262-3.531,15.063,0.577c2.15-3.236,5.373-0.84,8.098-1.222
			c0.57-0.081,1.368,1.467,2.121,2.333c3.416-2.616,10.761-2.093,17.768,1.305c0.962-0.746,1.978-1.795,2.185-1.655
			c3.141,2.135,6.594,1.431,10.035,1.554c3.362,0.12,6.695,1.071,10.185,1.682c-0.515,1.104-1.014,2.172-1.73,3.707
			c1.799-0.183,2.801-4.007,3.615-1.111c1.966-0.662,3.695-1.244,5.425-1.826c-0.035,0.427-0.069,0.854-0.104,1.282
			c1.635,0.721,3.222,1.59,4.913,2.134c4.036,1.297,8.436,1.859,12.088,3.828c2.974,1.603,7.478,2.444,7.472,7.521
			c-0.002,0.824,1.612,1.648,2.729,2.708c-2.391,1.375-3.265,4.328-6.722,3.598c-0.885-0.188-2.353,1.75-3.356,2.884
			c-2.748,3.102-6.521,3.822-10.268,4.607c-3.928,0.821-7.896,0.703-11.777,2.687c-3.763,1.922-8.338,2.506-12.635,3.072
			c-6.518,0.859-13.1,1.248-19.662,1.735c-7.364,0.547-14.761,0.357-22.125,1.332c-4.002,0.53-8.151-0.167-12.229-0.064
			c-6.043,0.155-12.08,0.684-18.122,0.75c-3.636,0.04-7.272-0.578-10.916-0.761c-6.761-0.338-13.524-0.624-20.29-0.84
			c-6.106-0.195-12.232-0.05-18.315-0.505c-2.328-0.173-4.53-1.705-6.854-2.406c-1.224-0.369-2.604-0.181-3.88-0.42
			c-2.361-0.444-4.711-1.487-7.044-1.43c-3.787,0.093-6.981-2.024-10.913-1.93c-4.063,0.097-8.244-1.815-12.25-3.204
			c-3.04-1.053-5.885-2.664-8.965-3.839c-1.359-0.491-2.822-0.802-4.057-1.51c-2.437-1.397-5.162-2.824-5.16-6.132
			c0.001-2.74,1.4-4.664,4.396-5.073c0.529-0.073,1.142-0.514,1.464-0.965c3.081-4.314,8.011-4.492,12.493-5.738
			c2.777-0.772,5.479-1.819,8.304-2.772c0.168,0.192-0.228-0.262-0.851-0.976c1.559-0.15,3.335-0.899,4.278-0.312
			c3.808,2.377,6.998-0.441,10.404-0.907c2.753-0.377,5.471-2.458,8.057-2.216c2.786,0.262,5.184-0.817,7.769-0.724
			c0.751,0.027,1.474,0.861,1.962,0.531c2.025-0.344,4.04-0.804,6.08-1.002c2.303-0.224,4.643-0.082,6.939-0.34
			c2.718-0.306,5.397-0.933,8.11-1.303c2.855-0.391,5.729-0.643,8.597-0.956C674.085,68.336,673.935,68.77,673.784,69.203z
			 M692.072,107.014c-0.357,0.624-0.714,1.248-1.07,1.873c1.323,0.889,2.646,1.779,3.97,2.668c0.51-0.839,1.02-1.678,1.529-2.518
			C695.024,108.363,693.548,107.688,692.072,107.014z"/>
		<path fill-rule="evenodd" clip-rule="evenodd" d="M224.36,153.861c1.077-0.237,2.153-0.474,3.23-0.711
			c-0.006,0.954-0.091,1.916,0.001,2.86c0.152,1.565,0.419,3.12,0.694,5.072c-1.143,0.092-2.155,0.174-2.928,0.236
			c-2.411-2.302,5.252-5.25-2.573-6.78C223.31,154.313,223.835,154.087,224.36,153.861z"/>
		<path fill-rule="evenodd" clip-rule="evenodd" d="M224.188,217.37c0.798-1.562,1.415-2.767,2.032-3.972
			c-0.422-1.041-0.891-2.198-1.359-3.355c0.892-0.338,1.785-0.678,2.807-1.065C228.326,217.725,228.326,217.725,224.188,217.37z"/>
		<path fill-rule="evenodd" clip-rule="evenodd" d="M228.588,132.553c-0.57,1.343-1.14,2.687-1.71,4.03
			c-0.658-0.618-1.963-1.417-1.851-1.82c0.313-1.124,1.215-2.085,1.883-3.11C227.469,131.953,228.029,132.253,228.588,132.553z"/>
		<path fill-rule="evenodd" clip-rule="evenodd" d="M227.308,167.031c-0.851-0.594-2.42-1.21-2.403-1.778
			c0.034-1.152,0.927-2.279,1.466-3.417c0.415,0.099,0.829,0.198,1.244,0.296c0.202,1.347,0.404,2.693,0.605,4.04
			C227.916,166.458,227.611,166.745,227.308,167.031z"/>
		<path fill-rule="evenodd" clip-rule="evenodd" d="M219.572,287.338c-2.5,3.12-5.407-0.375-8.291,0.227
			c-0.049-0.915-0.179-1.313-0.07-1.628c0.548-1.584,1.158-3.146,1.747-4.716c-1.531-0.212-3.407-1.063-4.503-0.471
			c-1.315,0.711-2.158,2.565-2.841,4.088c-0.502,1.121-0.42,2.505-0.612,3.864c-2.003-0.702-3.541-1.241-5.632-1.975
			c3.361-4.444,6.634-8.723,9.852-13.042c2.027-2.722,3.958-5.513,5.96-8.253c0.429-0.587,0.894-1.219,1.49-1.596
			c0.825-0.521,1.79-0.821,2.695-1.216c0.209,0.915,0.668,1.852,0.587,2.74c-0.514,5.688-1.244,11.356-1.669,17.05
			C218.185,283.76,218.977,285.176,219.572,287.338z"/>
		<path fill-rule="evenodd" clip-rule="evenodd" d="M229.118,276.742c0.641,0.062,2.113,0.203,3.822,0.368
			c-1.475,5.532-2.812,10.55-4.15,15.566c0.31,0.275,0.62,0.551,0.93,0.826c-1.979,0-3.957,0-5.558,0
			C225.814,287.914,227.338,282.763,229.118,276.742z"/>
		<path fill-rule="evenodd" clip-rule="evenodd" d="M226.452,85.541c0.655,0.786,1.61,1.474,1.9,2.376
			c0.547,1.706,0.712,3.535,0.896,4.549c-0.412,3.114-1.205,5.726-0.964,8.238c0.246,2.566-0.749,4.94,0.019,7.739
			c0.756,2.758-2.395,2.08-4.96,1.631c0.826-1.371,1.491-2.477,2.293-3.81c-2.255-1.76-2.44-3.939,0.218-5.85
			c-1.281-2.244-3.051-4.198-3.369-6.366c-0.169-1.153,2.176-2.675,2.816-3.985c0.412-1.531,0.824-3.062,1.237-4.593L226.452,85.541
			z"/>
		<path fill-rule="evenodd" clip-rule="evenodd" d="M225.445,75.777c-0.284-2.065-0.802-3.313-0.457-4.238
			c0.216-0.579,1.731-0.674,2.663-0.986c0.324,1.036,0.813,2.054,0.924,3.112c0.108,1.032-0.107,2.115-0.295,3.155
			c-0.172,0.95-0.498,1.871-0.756,2.805c-0.879-0.29-2.272-0.36-2.514-0.924c-0.329-0.768,0.173-1.925,0.424-2.886
			C225.5,75.567,225.962,75.424,225.445,75.777z"/>
		<path fill-rule="evenodd" clip-rule="evenodd" d="M159.578,99.217c0.192,2.645,4.729-0.869,3.781,3.087
			c-0.184,0.77-2.255,1.868-2.365,1.754c-1.072-1.103-1.912-2.43-2.817-3.694C158.643,99.982,159.11,99.6,159.578,99.217z"/>
		<path fill-rule="evenodd" clip-rule="evenodd" d="M195.634,103.871c-2.566-0.151-5.343,0.2-4.977-4.202
			C192.475,101.183,196.201,99.576,195.634,103.871z"/>
		<path fill-rule="evenodd" clip-rule="evenodd" d="M226.539,85.471c-2.831,0.271-2.366-2.052-1.972-3.246
			c0.271-0.821,2.081-1.134,3.202-1.674c0.33,0.375,0.661,0.75,0.992,1.125c-0.769,1.289-1.539,2.577-2.309,3.865L226.539,85.471z"
			/>
		<path fill-rule="evenodd" clip-rule="evenodd" d="M188.915,88.506c1.34,1.573,2.007,2.353,2.837,3.326
			c-1.182,0.693-2.285,1.341-3.389,1.987c-0.266-0.201-0.532-0.401-0.798-0.603C187.955,91.857,188.344,90.498,188.915,88.506z"/>
		<path fill-rule="evenodd" clip-rule="evenodd" d="M684.141,302.972c0.665-1.02,1.276-2.079,2.005-3.052
			c2.71-3.623,5.473-7.206,8.189-10.823c2.326-3.096,4.567-6.258,6.975-9.287c0.393-0.494,1.945-0.826,2.112-0.601
			c0.596,0.799,1.198,1.903,1.116,2.833c-0.218,2.46-0.87,4.879-1.204,7.334c-0.431,3.173-0.97,6.367-0.952,9.55
			c0.009,1.314,1.342,2.622,2.39,4.503c-3.244,0-6.279,0-9.065,0c0.885-1.662,1.882-3.533,3.023-5.678
			c-5.955-1.271-9.057,1.31-7.72,5.967c-2.125,0.107-4.123,0.209-6.121,0.31C684.64,303.676,684.39,303.323,684.141,302.972z"/>
		<path fill-rule="evenodd" clip-rule="evenodd" d="M713.315,311.103c-4.753,0.49-5.298-0.206-3.456-5.357
			c0.734-2.053,1.681-4.057,2.15-6.167c0.344-1.547,0.067-3.232,0.067-5.791c0.623-0.078,2.411-0.692,3.979-0.337
			c0.788,0.18,1.867,2.296,1.63,3.236C716.505,301.356,714.93,305.926,713.315,311.103z"/>
		<path fill-rule="evenodd" clip-rule="evenodd" d="M692.072,107.014c1.476,0.675,2.952,1.35,4.429,2.023
			c-0.51,0.839-1.02,1.678-1.529,2.518c-1.323-0.889-2.646-1.779-3.97-2.668C691.358,108.262,691.715,107.638,692.072,107.014z"/>
	</g>
</g>
</svg>
