<?xml version="1.0" encoding="utf-8"?>
<!-- Generator: Adobe Illustrator 16.0.0, SVG Export Plug-In . SVG Version: 6.00 Build 0)  -->
<!DOCTYPE svg PUBLIC "-//W3C//DTD SVG 1.1//EN" "http://www.w3.org/Graphics/SVG/1.1/DTD/svg11.dtd">
<svg version="1.1" id="Layer_1" xmlns="http://www.w3.org/2000/svg" xmlns:xlink="http://www.w3.org/1999/xlink" x="0px" y="0px"
	 width="666.843px" height="504.82px" viewBox="0 0 666.843 504.82" enable-background="new 0 0 666.843 504.82"
	 xml:space="preserve">
<g>
	<g>
		<path fill-rule="evenodd" clip-rule="evenodd" fill="#FFFFFF" d="M0.75,0.75c222.281,0,444.563,0,666.843,0
			c0,168.273,0,336.547,0,504.82c-222.28,0-444.562,0-666.843,0C0.75,337.297,0.75,169.023,0.75,0.75z M74.298,435.86
			c-0.529-0.683-1.535-1.398-1.49-2.04c0.093-1.318,0.896-2.571,1.122-3.899c0.146-0.863,0.092-2.251-0.425-2.61
			c-0.656-0.457-1.871-0.11-1.898-0.11c-0.532,2.845-1.029,4.878-1.255,6.94c-0.132,1.205,0.168,2.458,0.274,3.689
			c1.199-0.687,2.397-1.372,3.596-2.058c0.581,0.551,1.156,1.541,1.744,1.548c0.924,0.012,2.499-0.45,2.672-1.042
			c0.71-2.427,1.051-4.971,1.394-7.489c0.077-0.565-0.385-1.204-0.599-1.81c-0.488,0.269-1.224,0.414-1.424,0.822
			C76.708,430.457,75.522,433.168,74.298,435.86z M606.659,130.884c-0.615,0.083-1.264,0.07-1.841,0.265
			c-3.938,1.33-6.518,7.823-3.724,9.875c1.345,0.988,4.031,1.089,5.708,0.482c3.183-1.151,4.159-4.36,3.705-7.35
			c-0.19-1.25-2.556-2.169-3.934-3.238L606.659,130.884z M635.065,286.978c-1.573,2.056-3.207,1.91-4.976,0.271
			c0.593-2.522,1.151-4.899,1.861-7.914c-2.627,0.315-5.127-0.043-6.743,0.987c-1.801,1.147-3.385,3.379-4.019,5.457
			c-1.301,4.257,0.229,5.433,4.501,4.111c0.564-0.175,1.297,0.04,1.913,0.212c5.176,1.449,7.065,0.638,7.412-3.19
			c0.542,0.48,1.243,0.864,1.599,1.456c1.921,3.194,2.278,3.207,3.963,0.754c-0.923-1.955-2.339-3.551-2.037-4.693
			c0.334-1.269,2.237-2.122,3.858-3.498c-0.141-0.229-0.638-1.039-1.204-1.963c-1.293,1.144-2.202,1.948-2.875,2.543
			c-1.496-0.819-2.774-1.52-3.452-1.89C634.943,282.465,635.005,284.721,635.065,286.978z M325.732,273.923
			c5.746,4.768,10.665,8.369,14.957,12.605c2.301,2.27,7.358,2.871,5.988,8.023c-0.029,0.11,0.978,0.74,1.473,0.707
			c4.467-0.294,5.451,0.432,5.491,4.856c0.072,8.097-0.017,16.195-0.034,24.293c-0.007,3.001-0.001,6.002-0.001,9.002
			c0.47-0.014,0.94-0.028,1.411-0.042c0-11.331,0-22.664,0-34.867c6.437,5.379,12.161,10.103,17.819,14.905
			c7.395,6.277,14.712,12.646,22.107,18.923c7.367,6.256,14.815,12.417,22.18,18.678c7.5,6.376,14.919,12.847,22.432,19.206
			c0.869,0.736,2.117,1.025,3.189,1.521c0.21-0.313,0.42-0.627,0.631-0.941c-0.604-0.653-1.148-1.377-1.82-1.95
			c-9.36-7.987-18.723-15.974-28.115-23.923c-18.621-15.76-37.266-31.491-55.885-47.253c-1.834-1.552-3.094-3.091-2.085-6.004
			c0.988-2.853-0.182-6.074-1.952-7.221c-0.196,2.8-0.377,5.371-0.601,8.564c-1.281-0.736-2.039-1.042-2.64-1.536
			c-6.342-5.223-12.537-10.633-19.029-15.661c-4.015-3.108-5.945-6.661-5.176-11.8c0.384-2.563,0.044-5.235,0.043-7.857
			c-0.004-8.33-0.001-16.66-0.001-25.511c8.491,0,16.583-0.022,24.674,0.046c0.577,0.004,1.61,0.618,1.654,1.03
			c0.624,5.896,1.115,11.806,1.625,17.565c0.984,1.637,2.225,3.409,3.158,5.33c1.03,2.122,1.63,4.454,2.676,6.566
			c6.272,12.666,13.977,24.384,23.241,35.083c1.661,1.919,2.819,4.272,4.071,6.214c1.546-0.869,2.463,1.264,3.509,2.354
			c6.545,6.818,12.868,13.854,19.517,20.566c6.303,6.364,12.918,12.419,19.389,18.617c3.314,3.175,6.557,6.429,9.973,9.49
			c0.598,0.534,1.895,0.289,2.868,0.405c-0.082-1.093-0.077-2.202-0.293-3.268c-0.082-0.4-0.677-0.697-1.038-1.041
			c-9.726-9.246-19.824-18.136-29.08-27.831c-11.248-11.783-22.312-23.825-32.486-36.532c-10.393-12.98-19.045-27.19-22.033-44.03
			c-0.597-3.365-0.879-6.786-1.355-10.578c8.52,0,16.364-0.026,24.208,0.051c0.592,0.006,1.198,0.708,1.76,1.138
			c1.481,1.135,2.942,2.298,4.581,3.582c2.339-4.1,5.62-4.612,9.497-4.481c7.987,0.268,15.988,0.149,23.983,0.17
			c6.671,0.016,13.343,0.003,21.184,0.003c-2.994,5.711-5.515,10.52-8.035,15.329c0.179,0.118,0.357,0.237,0.537,0.355
			c1.254-0.782,2.508-1.563,4.28-2.668c-0.188,1.542-0.331,2.375-0.387,3.214c-0.528,7.927-2.173,15.984-1.292,23.754
			c1.33,11.729,5.601,15.639,16.644,17.074c13.88,1.804,27.29-1.486,40.792-3.754c0.478-0.08,0.868-0.681,1.299-1.039
			c-0.078-0.429-0.157-0.858-0.235-1.288c-2.382,0.301-4.831,0.34-7.133,0.944c-11.592,3.041-23.371,3.992-35.263,2.987
			c-7.89-0.667-12.274-5.055-13.777-12.902c-1.835-9.581-0.443-19.001,1.323-29.345c1.714,2.263,2.952,3.897,4.19,5.531
			c0.268-0.125,0.534-0.249,0.802-0.374c-0.891-5.77-1.781-11.538-2.704-17.512c18.67,0,36.676,0,55.209,0
			c-1.258,1.809-2.19,3.15-3.794,5.457c6.559-2.166,12.072-3.987,17.586-5.808c0.013-0.387,0.025-0.773,0.038-1.16
			c-5.643-1.779-11.286-3.559-16.929-5.338c-0.155,0.26-0.312,0.521-0.469,0.781c1.018,1.198,2.034,2.396,3.096,3.646
			c-0.511,0.284-0.715,0.498-0.918,0.497c-18.104-0.051-36.207-0.086-54.311-0.196c-15.807-0.098-31.614-0.229-47.418-0.511
			c-1.592-0.029-3.491-0.838-4.68-1.913c-2.828-2.555-5.387-2.531-7.98,0.514c-0.5,0.586-1.239,1.367-1.878,1.375
			c-7.088,0.098-14.177,0.063-21.314,0.063c-0.555-3.215-1.773-6.113-1.349-8.747c0.765-4.76,2.148-9.505,3.915-14.005
			c5.683-14.472,13.984-27.42,24.229-39.056c9.189-10.438,18.504-20.789,28.187-30.768c8.672-8.938,17.933-17.305,26.905-25.953
			c1.772-1.709,3.909-3.526,0.33-5.784c-6.706,6.435-13.528,12.626-19.943,19.213c-12.745,13.089-25.575,26.119-37.788,39.697
			c-11.212,12.465-20.112,26.565-25.966,42.413c-0.762,2.061-1.088,4.375-3.882,4.752c-0.119,0.016-0.185,0.423-0.355,0.849
			c0.54,0.763,1.143,1.614,1.186,1.674c-0.276,2.007-0.438,3.228-0.616,4.446c-0.226,1.55-0.109,3.275-0.776,4.606
			c-1.082,2.16-2.682,4.06-4.139,6.18c-7.053,0-14.612,0-22.571,0c0-11.969,0.25-23.575-0.142-35.159
			c-0.129-3.809,1.293-6.106,3.866-8.272c4.862-4.095,9.93-7.979,14.503-12.377c4.542-4.367,9.872-7.675,14.515-11.965
			c10.588-9.786,21.982-18.695,32.983-28.04c15.436-13.113,30.793-26.317,46.257-39.396c0.797-0.675,2.336-0.906,3.427-0.726
			c5.582,0.922,11.13,2.048,16.69,3.103c0.311-0.434,0.622-0.867,0.933-1.3c-1.678-0.758-3.356-1.516-5.033-2.274
			c0.348-0.401,0.695-0.804,1.044-1.205c2.975-0.207,5.95-0.403,8.925-0.622c3.113-0.229,6.238-0.792,9.334-0.652
			c4.97,0.224,9.973,0.608,14.861,1.488c3.853,0.693,4.89,3.321,2.999,6.722c-1.873,3.367-4.047,6.569-6.146,9.805
			c-3.507,5.405-7.283,10.651-10.51,16.218c-1.942,3.353-1.15,5.378,2.626,6.646c3.201,1.075,6.802,1.71,10.145,1.458
			c7.714-0.581,15.379-1.818,23.063-2.789c-0.006-0.507-0.011-1.014-0.016-1.521c-1.133-0.123-2.293-0.468-3.394-0.331
			c-5.082,0.632-10.13,1.752-15.225,2.012c-4.535,0.231-9.141-0.244-13.669-0.791c-2.32-0.28-3.055-2.006-1.671-4.154
			c2.689-4.174,5.47-8.292,8.096-12.506c3.203-5.142,6.426-10.282,9.357-15.579c1.372-2.479,0.104-4.854-2.244-5.943
			c-2.65-1.23-5.607-2.542-8.426-2.529c-8.569,0.041-17.136,0.713-25.705,1.11c-0.95,0.044-1.909-0.104-3.191-0.183
			c1.35-1.952,2.304-3.332,3.259-4.712c-0.196-0.15-0.395-0.3-0.592-0.451c-4.543,2.188-9.086,4.377-13.634,6.568
			c-0.612-1.185-1.07-2.072-1.598-3.093c-1.354,1.198-2.428,2.208-3.565,3.141c-5.771,4.73-11.646,9.335-17.32,14.178
			c-10.685,9.118-21.214,18.416-31.885,27.547c-8.41,7.197-16.821,14.404-25.463,21.316c-4.26,3.408-7.344,8.856-12.743,8.862
			c-1.22,1.894-1.886,3.462-3.009,4.567c-2.482,2.441-5.155,4.696-7.821,6.941c-4.404,3.707-8.864,7.346-13.947,11.549
			c0-6.499-0.035-12.083,0.023-17.665c0.015-1.48-0.623-3.467,1.966-3.711c0.04-0.004,0.046-2.207-0.117-2.233
			c-2.832-0.457-1.834-2.695-1.838-4.167c-0.061-23.228-0.019-46.456-0.024-69.684c-0.001-5.686,0.986-6.381,6.379-4.303
			c0.815,0.313,1.586,0.75,2.414,1.018c2.813,0.907,5.641,1.765,8.464,2.641c0.135-0.271,0.271-0.541,0.407-0.811
			c-1.113-1.324-2.226-2.646-3.831-4.555c3.223-0.198,5.556-0.259,7.87-0.5c5.313-0.552,7.667-3.125,7.841-8.499
			c0.08-2.498,0.035-5,0.114-7.497c0.077-2.449,1.273-4.005,3.805-4.271c1.609-0.168,3.231-0.33,4.847-0.313
			c13.491,0.138,26.982,0.329,40.475,0.457c0.93,0.009,1.864-0.356,2.796-0.546c-0.433-1.066-0.828-1.467-1.229-1.471
			c-6.109-0.067-12.222,0.021-18.329-0.132c-8.086-0.202-16.179-0.415-24.249-0.933c-7.029-0.452-10.644,2.729-10.412,9.714
			c0.038,1.122,0.033,2.246,0.039,3.369c0.035,6.953-5.298,10.46-12.152,7.871c0.996-1.293,1.971-2.558,2.944-3.823
			c-0.173-0.159-0.347-0.318-0.521-0.477c-5.624,2.003-11.249,4.007-17.342,6.178c-0.409-3.826-0.752-7.037-1.096-10.248
			c-0.5,0.025-0.999,0.049-1.5,0.073c-0.198,3.245-0.395,6.489-0.599,9.84c-15.417,0-30.52,0.026-45.622-0.085
			c-0.69-0.005-1.958-1.244-1.968-1.923c-0.133-9.015-0.089-18.032-0.089-27.96c2.098,1.764,3.452,2.902,4.806,4.04
			c0.257-0.108,0.514-0.218,0.772-0.326c-1.971-5.826-3.942-11.651-5.914-17.477c-0.339,0.032-0.678,0.063-1.016,0.096
			c-1.864,5.827-3.729,11.654-5.593,17.48c0.25,0.128,0.499,0.257,0.749,0.385c1.274-1.178,2.55-2.356,4.452-4.113
			c0,9.659-0.046,18.483,0.028,27.306c0.022,2.701-1.711,2.589-3.513,2.582c-9.872-0.04-19.744-0.074-29.615-0.142
			c-0.865-0.006-1.729-0.25-2.896-0.43c1.672-1.918,2.967-3.4,4.261-4.884c-0.249-0.183-0.497-0.366-0.745-0.549
			c-5.538,1.985-11.076,3.97-16.935,6.071c-0.248-3.971-0.447-7.161-0.646-10.35c-0.612,0.019-1.226,0.037-1.839,0.055
			c-0.524,30.183-0.232,60.38-0.128,89.802c-1.553,0.981-2.437,1.539-3.32,2.097c1.064,0.736,2.129,1.471,3.033,2.097
			c0,5.71,0,11.436,0,17.869c-7.223-6.181-13.807-11.816-19.657-16.822c0-1.951,0-3.162,0-4.372
			c-1.081,0.438-2.16,0.875-3.341,1.353c-16.055-13.735-32.288-27.623-48.875-41.813c5.466-3.773,10.371-7.16,15.275-10.546
			c-0.131-0.316-0.261-0.633-0.392-0.948c-1.618,0.207-3.236,0.415-5.543,0.709c6.066-8.131,11.797-15.757,17.469-23.427
			c6.037-8.164,11.02-16.903,14.263-26.574c3.321-9.905,0.178-17.567-9.504-21.653c-4.619-1.948-9.589-3.229-14.516-4.253
			c-18.358-3.818-37.056-2.58-55.618-3.353c-0.866-0.036-1.77,0.832-2.656,1.279c0.105,0.334,0.21,0.668,0.315,1.002
			c1.06,0.152,2.117,0.414,3.18,0.442c13.591,0.35,27.188,0.536,40.773,1.037c9.741,0.36,19.319,1.738,28.365,5.796
			c5.186,2.328,9.72,8.517,8.605,13.583c-1.115,5.067-2.37,10.418-5.004,14.773c-6.359,10.514-13.527,20.542-20.439,30.716
			c-2.057,3.028-4.35,5.896-6.908,9.341c-0.52-2.483-0.875-4.174-1.229-5.866c-0.246,0.009-0.493,0.019-0.74,0.028
			c-1.988,5.646-3.977,11.291-6.131,17.409c-3.459-2.993-6.441-5.582-9.436-8.16c-9.164-7.889-18.305-15.803-27.533-23.615
			c-1.058-0.895-2.609-1.207-3.932-1.789c0.728,1.285,1.175,2.896,2.229,3.803c10.29,8.86,20.72,17.558,31.033,26.391
			c12.474,10.685,24.864,21.467,37.309,32.186c6.896,5.939,13.823,11.842,20.744,17.75c6.627,5.658,13.202,11.381,19.943,16.901
			c1.854,1.518,2.531,3.06,2.467,5.399c-0.16,5.859-0.064,11.725-0.066,17.588c-0.002,7.177,0,14.354,0,21.935
			c-6.793,0-13.142,0.014-19.491-0.023c-0.583-0.003-1.611-0.239-1.677-0.535c-0.754-3.413-4.206-5.779-3.627-9.731
			c0.331-2.265,0.314-4.588,0.322-6.886c0.001-0.486-0.533-1.006-0.889-1.457c-0.81-1.022-1.888-1.9-2.448-3.038
			c-0.984-2.002-1.604-4.179-2.479-6.24c-5.452-12.837-12.794-24.532-21.871-35.082c-8.571-9.961-17.144-19.949-26.221-29.442
			c-10.059-10.52-20.667-20.516-31.123-30.651c-0.765-0.742-2.226-0.767-3.363-1.125c0.173,1.333-0.109,3.035,0.61,3.928
			c1.702,2.11,3.917,3.798,5.859,5.723c6.458,6.4,13.005,12.715,19.299,19.273c9.866,10.281,19.896,20.437,29.213,31.203
			c8.308,9.602,15.44,20.156,21.23,31.543c4.038,7.94,7.261,16.141,8.415,25.036c0.54,4.16-2.381,7.461-6.415,7.421
			c-4.624-0.045-9.256,0.088-13.868-0.162c-1.356-0.073-2.953-0.889-3.925-1.874c-2.758-2.793-4.501-2.831-7.264-0.176
			c-1.085,1.043-2.776,2.036-4.203,2.052c-12.62,0.145-25.242,0.065-37.863,0.053c-3.17-0.003-6.34,0-10.091,0
			c1.813-5.669,3.359-10.502,4.905-15.335c-0.236-0.114-0.472-0.229-0.707-0.344c-1.261,0.993-2.521,1.986-3.899,3.071
			c0-13.734,0-27.042,0-40.9c1.858,1.622,3.128,2.731,4.395,3.836c0.286-0.312,0.454-0.423,0.438-0.486
			c-1.539-5.697-3.058-11.399-4.707-17.064c-0.128-0.441-1.383-1.018-1.729-0.829c-0.593,0.326-1.086,1.156-1.261,1.864
			c-0.624,2.522-0.941,5.127-1.665,7.617c-0.849,2.919-2,5.75-3.021,8.621c0.208,0.125,0.416,0.249,0.624,0.374
			c1.36-1.18,2.721-2.361,4.41-3.827c0,13.981,0,27.267,0,41.012c-1.825-1.215-3.256-2.168-5.595-3.725
			c2.069,5.875,3.768,10.698,5.556,15.777c-1.444,0.166-2.173,0.327-2.901,0.321c-15.233-0.128-30.467-0.29-45.7-0.388
			c-1.261-0.009-2.525,0.393-3.788,0.604c0.038,0.5,0.075,0.999,0.113,1.5c1.744,0.149,3.489,0.425,5.234,0.429
			c13.495,0.037,26.99,0.026,40.485,0.021c18.98-0.006,37.961-0.061,56.941,0.045c1.567,0.009,3.093,1.223,4.702,1.618
			c1.667,0.41,4.306,1.321,4.967,0.597c2.797-3.065,6.208-1.929,9.4-2.1c3.738-0.201,7.493-0.066,11.237-0.188
			c5.604-0.183,6.531,0.68,5.723,6.151c-1.619,10.967-5.309,21.2-10.882,30.806c-11.503,19.828-27.367,36.08-43.105,52.379
			c-9.835,10.186-20.351,19.715-30.642,29.454c-2.06,1.949-1.646,3.211,0.626,4.789c5.159-4.826,10.381-9.422,15.272-14.347
			c11.57-11.65,23.103-23.344,34.402-35.254c5.222-5.502,10.124-11.358,14.694-17.415c4.489-5.947,8.217-12.466,12.569-18.525
			c4.346-6.051,4.113-14.481,10.343-19.493c0.079-0.063,0.075-0.229,0.192-0.628c-0.485-0.582-1.074-1.287-1.497-1.793
			c0.512-1.15,1.228-2.083,1.313-3.071c0.285-3.3,0.141-6.649,0.604-9.916c0.155-1.099,1.604-2.844,2.512-2.875
			c6.951-0.241,13.914-0.132,20.994-0.132c0.145,1.056,0.296,1.65,0.298,2.246c0.031,11.982-0.157,23.971,0.177,35.946
			c0.111,3.961-1.612,6.111-4.388,8.319c-7.588,6.034-15.053,12.226-22.507,18.427c-6.024,5.013-11.956,10.137-17.939,15.199
			c-12.738,10.777-25.467,21.567-38.232,32.313c-9.328,7.853-18.724,15.624-28.047,23.482c-1.202,1.013-2.148,2.328-3.213,3.504
			c0.269,0.325,0.538,0.65,0.806,0.976c0.992-0.503,2.127-0.837,2.953-1.537c11.549-9.792,23.015-19.684,34.583-29.453
			c16.546-13.973,33.169-27.852,49.731-41.804c2.366-1.993,4.245-4.897,7.009-3.65c1.404-2.09,2.211-3.9,3.543-5.148
			c2.905-2.72,6.078-5.154,9.144-7.705c1.849-1.537,3.701-3.071,5.551-4.607c0.119,5.848,2.223,11.46-0.564,16.062
			c0.441,2.36,1.063,4.193,1.081,6.031c0.087,9.11-0.007,18.222,0.004,27.332c0.023,19.304,0.053,38.608,0.161,57.911
			c0.005,1.018,0.75,2.03,1.149,3.045c0.504-1.087,1.442-2.171,1.447-3.26c0.091-18.482,0.067-36.966,0.067-55.448
			c0-11.21,0-22.42,0-33.042c1.238-0.795,2.135-1.372,3.032-1.947c-1.106-0.666-2.212-1.332-3.243-1.953
			c0-4.718-0.149-9.469,0.084-14.201c0.078-1.559,0.728-3.543,1.833-4.519c5.316-4.69,10.942-9.026,16.337-13.631
			c8.889-7.586,17.67-15.298,26.533-22.915c1.347-1.157,2.889-2.085,4.969-3.565c0,2.017,0.013,3.222-0.002,4.427
			c-0.196,15.742-0.363,31.485-0.621,47.226c-0.053,3.203-0.451,6.401-0.69,9.602c1.111,14.202,0.577,28.529,0.653,42.829
			c0.077,14.346-0.021,28.691-0.031,43.037c-0.009,14.379-0.001,28.757-0.001,43.4c-5.371-1.655-10.106-3.114-14.842-4.574
			c-0.121,0.284-0.242,0.568-0.362,0.854c0.997,1.093,1.994,2.186,3.74,4.1c-28.59,0-56.151,0-83.71,0
			c-0.002,0.485-0.005,0.971-0.008,1.455c27.759,0,55.519,0,83.279,0c0.076,0.336,0.152,0.671,0.228,1.006
			c-1.17,1.258-2.34,2.516-3.51,3.773c0.171,0.235,0.343,0.472,0.516,0.707c4.786-1.489,9.573-2.979,14.858-4.625
			c0,5.476,0.004,10.559-0.001,15.643c-0.017,17.224-0.051,34.447-0.025,51.672c0.001,1.09,0.461,2.179,0.708,3.269
			c0.388-0.076,0.775-0.152,1.162-0.229c0-17.523,0-35.049,0-53.162c6.095,1.941,11.636,3.705,17.177,5.47
			c0.333-0.419,0.666-0.837,0.999-1.256c-1.688-1.109-3.375-2.221-5.479-3.604c29.554,0,58.07,0,87.25,0
			c-1.762,2.008-2.903,3.31-4.045,4.61c0.181,0.223,0.36,0.445,0.541,0.667c5.709-1.854,11.418-3.707,17.128-5.561
			c0.009-0.332,0.019-0.663,0.028-0.994c-5.668-1.914-11.335-3.829-17.004-5.743c-0.111,0.302-0.223,0.604-0.334,0.907
			c0.94,1.182,1.882,2.364,2.917,3.665c-28.504,0-56.625,0-85.631,0c1.597-1.967,2.61-3.217,3.625-4.467
			c-0.127-0.244-0.255-0.488-0.383-0.732c-5.399,1.825-10.797,3.651-16.384,5.54c0-28.999,0-57.37,0-86.223
			c5.523,1.658,10.581,3.176,15.638,4.694c0.151-0.176,0.302-0.351,0.453-0.525c-1.216-1.36-2.432-2.721-3.887-4.348
			c7.942,0,15.399,0,23.503,0c-1.583,1.93-2.739,3.335-3.894,4.741c0.147,0.19,0.295,0.381,0.442,0.571
			c5.064-1.636,10.129-3.272,15.464-4.996c0.196,1.351,0.395,2.06,0.388,2.766c-0.104,9.225-0.271,18.448-0.327,27.673
			c-0.009,1.521,0.438,3.044,0.675,4.567c0.552-0.059,1.104-0.117,1.657-0.176C325.732,351.849,325.732,313.396,325.732,273.923z
			 M337.603,413.327c1.412-0.225,2.251-0.272,3.039-0.498c4.499-1.283,9.021-2.509,13.442-4.025c0.688-0.235,0.896-1.869,1.01-2.13
			c-6.371-1.969-11.998-3.708-17.625-5.447c-0.117,0.202-0.235,0.404-0.353,0.606c1.232,1.313,2.465,2.628,3.918,4.179
			c-16.975,0-33.374,0-50.335,0c1.605-1.883,2.702-3.168,3.797-4.453c-0.23-0.277-0.459-0.555-0.688-0.831
			c-5.6,2.017-11.201,4.033-17.763,6.396c6.773,2.3,12.293,4.175,17.813,6.05c0.135-0.255,0.27-0.51,0.405-0.765
			c-0.933-1.274-1.864-2.548-3.016-4.124c16.841,0,32.994,0,49.678,0C339.725,410.108,338.827,411.469,337.603,413.327z
			 M20.684,34.546c3.331,1.736,6.966-1.354,11.517-9.622c0.497-0.903,0.067-2.316,0.067-3.491c-0.268,0.063-0.535,0.127-0.803,0.192
			c-0.838,1.958-1.675,3.916-2.513,5.874c-0.345-0.03-0.689-0.061-1.034-0.091c-0.443-3.444-0.276-7.528-5.632-5.758
			c-0.272,0.09-0.704-0.397-1.032-0.359c-1.495,0.172-2.979,0.436-4.467,0.667c0.25,1.472,0.427,2.962,0.777,4.409
			c0.27,1.113,0.758,2.173,1.149,3.255c-0.311,0.156-0.622,0.312-0.933,0.467c-0.847-0.75-1.694-1.5-2.519-2.23
			c-0.715,0.505-1.393,0.982-2.904,2.048c0.656-3.366,1.117-5.729,1.576-8.083c-5.995-1.299-9.167,0.45-10.257,5.493
			c-0.674,3.115,0.778,4.418,3.854,4.054c2.661-0.314,5.401,0.112,8.09-0.057c1.609-0.1,3.795-0.234,4.595-1.244
			c0.69-0.874-0.128-3.023-0.448-4.574c-0.14-0.68-0.762-1.25-1.034-1.923c-0.09-0.223,0.232-0.611,0.796-1.929
			c0.674,1.328,1.111,2.188,2.083,4.101c0.703-1.682,1.089-2.605,1.486-3.557C27.23,26.686,26.067,32.083,20.684,34.546z
			 M151.359,428.438c0.034-0.39,0.068-0.778,0.103-1.167c-1.5,0.357-3,0.716-4.461,1.063c-1.18-0.516-2.604-1.139-4.028-1.762
			c-0.247,0.31-0.494,0.62-0.74,0.929c2.366,2.215,3.966,4.722,1.412,7.373c-0.798,0.828-2.729,0.565-4.577,0.875
			c0.83-3.43,1.406-5.81,1.979-8.175c-6.077-1.67-7.98-1.001-10.815,5.393c-0.534,1.205-0.251,3.298,0.515,4.362
			c0.481,0.669,2.566,0.216,3.93,0.202c0.445-0.005,0.974-0.427,1.319-0.291c3.449,1.354,6.664,1.361,9.44-1.775
			c1.214,2.644,2.535,3.763,3.899,2.01c-0.805-2.623-1.965-4.546-1.716-6.264C147.775,430.129,150.041,429.352,151.359,428.438z
			 M573.82,132.627c-0.023-0.3-0.047-0.6-0.07-0.899c-1.451-0.092-2.904-0.174-4.354-0.283c-0.603-0.044-1.361,0.061-1.775-0.257
			c-1.939-1.49-2.513-0.768-2.786,1.345c-0.269,2.078-0.955,4.099-1.314,6.171c-0.164,0.949,0.018,1.958,0.043,2.94
			c0.679-0.791,1.471-1.512,2.014-2.388c1.365-2.204,2.617-4.477,3.915-6.723c0.386,0.234,0.771,0.468,1.156,0.702
			c-0.669,2.774-1.339,5.549-2.007,8.325c0.362,0.098,0.724,0.197,1.087,0.296c2.906-2.34,2.096-7.587,6.897-9.338
			c-0.873,3.45-1.575,6.23-2.277,9.009c0.322,0.22,0.645,0.439,0.967,0.658c0.849-0.641,2.218-1.135,2.446-1.95
			c0.651-2.322,1.028-4.765,1.146-7.178c0.091-1.867-0.623-3.385-2.956-1.915C575.22,131.604,574.529,132.13,573.82,132.627z
			 M93.006,427.191c-1.534-0.196-2.976-0.451-4.428-0.554c-5.03-0.353-6.586,1.786-5.545,6.782c0.29,1.388-0.388,3.386-1.321,4.537
			c-2.141,2.642-1.975,3.842,1.159,5.102c2.746,1.104,5.195,0.426,7.288-1.252c1.757-1.409,1.979-3.207-0.377-4.449
			c-1.254-0.662-2.613-1.124-3.924-1.676c-0.135-0.291-0.27-0.581-0.404-0.871C89.96,434.283,91.954,431.425,93.006,427.191z
			 M37.909,420.908c-2.278-0.203-4.111-0.446-5.95-0.517c-6.369-0.246-12.175,8.104-9.853,14.039
			c1.269,3.245,3.851,3.918,6.917,3.859c3.054-0.059,4.294-0.809,5.143-3.184c-5.024,2.001-7.432,1.756-8.745-0.891
			c-1.899-3.827,0.237-9.431,4.553-11.738c3.86-2.064,4.712,1.352,6.441,4.594C37.054,424.435,37.46,422.76,37.909,420.908z
			 M425.708,67.456c-0.371-0.248-0.743-0.496-1.114-0.744c1.252-5.21,2.504-10.421,3.81-15.854c-0.743-0.042-1.757-0.256-1.83-0.08
			c-0.798,1.919-1.448,3.901-2.129,5.838c-4.629-0.293-8.913,3.434-9.107,7.822c-0.133,2.98,1.613,4.305,4.354,3.494
			c0.831-0.246,1.844,0.198,2.758,0.125C423.543,67.969,424.621,67.666,425.708,67.456z M33.084,30.806
			c0.408,0.17,0.815,0.34,1.223,0.51c1.571-2.713,3.142-5.427,4.713-8.14c0.303,0.134,0.606,0.269,0.909,0.403
			c-0.633,2.443-1.266,4.886-1.898,7.329c0.368,0.164,0.736,0.328,1.104,0.492c1.603-2.635,3.206-5.271,4.809-7.906
			c0.303,0.183,0.606,0.367,0.909,0.55c-0.516,2.269-1.032,4.537-1.549,6.806c0.357,0.212,0.714,0.423,1.071,0.634
			c0.897-0.624,2.487-1.17,2.568-1.887c0.289-2.557,0.088-5.172-0.025-7.76c-0.006-0.153-1.023-0.529-1.309-0.36
			c-3.362,1.987-6.685-0.732-10.217,0.066C34.643,24.553,33.863,27.68,33.084,30.806z M582.318,141.955
			c4.99,0.904,7.731-1.431,8.937-5.596c0.402-1.394,0.332-3.322-0.373-4.493c-0.436-0.722-2.478-0.496-3.804-0.649
			c-0.568-0.065-1.255,0.189-1.709-0.047c-2.151-1.12-2.359,0.105-2.801,1.84c-1.13,4.433-2.543,8.793-3.823,13.189
			c-0.057,0.196,0.093,0.453,0.231,1.043c0.88,0.104,1.885,0.221,2.902,0.341C582.036,145.567,582.166,143.904,582.318,141.955z
			 M512.584,274.248c0.325,0.201,0.648,0.403,0.973,0.604c-1.56,4.984-3.119,9.969-4.8,15.338c1.651-0.085,3.05-0.158,4.448-0.231
			c-0.31-0.23-0.62-0.461-0.931-0.691c0.923-3.504,1.762-7.033,2.81-10.5c0.44-1.459,1.324-2.783,2.007-4.169
			c1.086,0.75,2.171,1.5,3.367,2.327c1.168-2.454,1.326-4.099-2.241-3.824c-2.229,0.17-4.48,0.018-6.723,0.032
			c-2.924,0.018-3.224,0.401-3.002,3.84C509.879,276.051,511.231,275.149,512.584,274.248z M149.547,217.45
			c1.87,0.58,2.987,0.927,4.455,1.383c0.254-1.459,0.45-2.582,0.673-3.857c-1.611,0.269-2.757,0.46-4.835,0.807
			c0.917-2.083,1.334-4.492,2.175-4.649c1.881-0.353,3.973,0.414,6.075,0.739c0.769-2.828-2.511-3.732-9.235-2.035
			c-1.32,4.823-2.617,9.565-4.01,14.655c1.075,0.117,2.09,0.229,3.014,0.329C148.443,222.271,148.957,220.028,149.547,217.45z
			 M51.222,21.504c-1.542,4.905-2.94,9.355-4.449,14.153c1.02,0.12,2.025,0.239,3.387,0.4c-0.487-3.017,0.585-4.085,3.352-4.811
			c2.034-0.533,3.839-2.816,5.186-4.717c0.675-0.954,0.618-3.165-0.067-4.12c-0.583-0.814-2.53-0.732-3.892-0.879
			C53.542,21.402,52.321,21.504,51.222,21.504z M501.735,65.614c0.029-0.251,0.06-0.503,0.089-0.755
			c1.972-1.181,4.074-2.201,5.85-3.627c0.666-0.535,1.035-2.213,0.693-3.004c-0.309-0.716-1.757-1.267-2.728-1.311
			c-3.864-0.173-8.037,5.965-6.286,9.452c0.588,1.169,2.434,2.474,3.607,2.387c1.522-0.111,2.949-1.55,4.417-2.417
			c-0.194-0.242-0.389-0.483-0.583-0.725C505.109,65.614,503.422,65.614,501.735,65.614z M541.831,130.002
			c-2.902,0.695-5.599,0.88-7.833,1.993c-2.721,1.355-4.523,7.582-2.658,8.739c1.825,1.132,4.547,0.833,6.881,1.111
			c0.465,0.055,1.033-0.005,1.417-0.237c0.386-0.233,0.8-0.719,0.861-1.142C540.942,137.373,541.301,134.268,541.831,130.002z
			 M90.347,195.379c0.008-0.035,0.313-0.652,0.256-1.233c-0.099-1.006-0.423-1.99-0.653-2.983c-0.556,0.773-1.365,1.471-1.625,2.333
			c-1,3.328-1.981,6.679-2.618,10.087c-0.185,0.99,0.881,3.176,1.244,3.148c1.99-0.155,4.561-0.235,5.744-1.475
			c1.441-1.509,2.312-4.169,2.227-6.282C94.877,197.849,92.294,196.826,90.347,195.379z M606.489,287.632
			c0.042-0.39,0.085-0.779,0.127-1.17c1.676-0.722,3.727-1.076,4.912-2.282c0.958-0.975,0.875-2.975,1.255-4.521
			c-1.483-0.081-3.5-0.807-4.341-0.11c-1.783,1.478-3.281,3.539-4.285,5.652c-0.985,2.073-0.475,4.443,2.071,5.156
			c2.663,0.745,4.867-0.252,6.432-3.046C610.25,287.437,608.369,287.535,606.489,287.632z M446.552,65.794
			c0.031-0.374,0.063-0.749,0.095-1.124c2.005-1.296,4.137-2.443,5.944-3.974c0.609-0.516,0.748-2.142,0.423-3.005
			c-0.206-0.548-1.661-0.861-2.562-0.872c-3.634-0.045-5.153,2.712-6.259,5.453c-0.907,2.252-0.937,4.787,1.937,5.979
			c2.513,1.042,4.576-0.083,5.867-2.911C450.235,65.487,448.394,65.641,446.552,65.794z M621.421,139.841
			c-0.044-0.461-0.088-0.923-0.133-1.385c1.934-0.957,4.08-1.65,5.712-2.978c0.861-0.7,0.825-2.504,1.193-3.811
			c-1.381-0.22-3.211-1.099-4.051-0.525c-1.819,1.242-3.47,3.036-4.563,4.96c-1.204,2.119-1.53,4.629,1.48,5.925
			c3.093,1.332,4.94-0.327,6.81-2.755C625.466,139.484,623.443,139.663,621.421,139.841z M121.374,435.822
			c-2.297-0.235-4.087-0.42-5.877-0.604c2.062-1.91,4.131-2.532,5.699-3.783c0.817-0.651,0.75-2.41,1.083-3.67
			c-1.107-0.283-2.243-0.884-3.316-0.789c-2.938,0.261-4.506,2.221-5.529,4.874c-0.916,2.375-1.014,4.622,1.376,5.877
			C117.229,438.996,119.479,438.172,121.374,435.822z M576.958,287.195c-0.014-0.324-0.026-0.648-0.04-0.973
			c1.485-0.517,3.074-0.845,4.43-1.595c1.911-1.055,3.307-3.038,1.865-4.874c-0.648-0.828-3.755-0.756-4.897,0.074
			c-1.668,1.214-2.923,3.34-3.703,5.332c-0.818,2.09-0.314,4.273,2.268,5.118c2.345,0.767,4.108-0.325,5.153-3.083
			C580.326,287.195,578.642,287.195,576.958,287.195z M540.183,279.253c-6.384-0.853-9.179,0.557-10.322,5.802
			c-0.333,1.529,0.573,4.767,1.061,4.796c2.64,0.164,5.327-0.425,7.993-0.796c0.127-0.018,0.266-0.414,0.291-0.646
			C539.533,285.442,539.843,282.473,540.183,279.253z M550.387,280.619c-0.908,2.959-1.688,5.02-2.105,7.149
			c-0.135,0.689,0.686,1.566,1.068,2.357c0.689-0.626,1.683-1.13,1.991-1.907c0.381-0.959,0.225-2.144,0.245-3.231
			c0.035-1.981,0.03-3.962,0.042-5.943c-1.771,0.547-3.543,1.093-5.11,1.575c-0.523-0.451-1.311-1.131-2.098-1.811
			c-0.43,0.976-0.947,1.923-1.269,2.932c-0.599,1.879-1.148,3.778-1.579,5.701c-0.164,0.727,0.055,1.541,0.1,2.315
			C544.835,286.957,545.532,282.625,550.387,280.619z M415.099,214.499c-1.019-1.679-1.469-3.176-2.032-3.22
			c-2.453-0.192-4.945-0.04-7.407,0.175c-0.533,0.047-1.31,0.788-1.446,1.34c-1.097,4.425-2.066,8.88-3.109,13.477
			c0.372,0.103,0.829,0.334,1.286,0.329c0.558-0.006,1.114-0.209,1.592-0.311c0.517-7.334,1.379-8.229,5.633-5.625
			c0.304-1.218,0.582-2.331,0.931-3.73c-1.719,0.317-2.958,0.545-4.294,0.791C406.755,212.134,408.153,211.516,415.099,214.499z
			 M56.294,428.106c-1.229-0.609-2.027-1.181-2.907-1.368c-0.428-0.092-1.367,0.448-1.463,0.85c-0.787,3.286-1.43,6.608-2.116,9.92
			c0.253,0.166,0.507,0.332,0.76,0.498c2.222-3.139,4.443-6.276,6.664-9.416c0.433,0.24,0.865,0.48,1.298,0.72
			c-0.347,1.37-0.744,2.729-1.027,4.112c-0.296,1.444-0.484,2.912-0.88,5.366c1.707-1.11,2.854-1.444,2.984-2.011
			c0.622-2.711,1.111-5.477,1.281-8.245c0.031-0.51-1.644-1.595-2.5-1.563C57.415,427.005,56.477,427.996,56.294,428.106z
			 M104.803,427.39c-1.286-0.163-2.577-0.461-3.868-0.465c-3.545-0.013-5.421,2.328-6.293,5.305
			c-0.459,1.564-0.217,4.823,0.229,4.92c2.621,0.569,5.395,0.466,8.117,0.479c0.268,0.002,0.723-0.722,0.778-1.149
			C104.153,433.494,104.458,430.498,104.803,427.39z M41.892,438.056c3.999-0.061,7.374-3.484,6.711-7.429
			c-0.264-1.572-2.281-3.776-3.778-4.027c-3.356-0.562-7.503,4.081-7.239,7.577C37.783,436.78,39.261,438.279,41.892,438.056z
			 M549.838,145.13c0.067,0.467,0.135,0.935,0.202,1.402c1.05-0.29,2.369-0.271,3.109-0.917c7.278-6.351,10.342-12.375,7.929-14.9
			c-0.957,2.505-1.966,5.146-2.975,7.787c-0.415-0.115-0.83-0.229-1.244-0.344c-0.223-1.791-0.302-3.613-0.7-5.363
			c-0.663-2.908-1.185-3.044-3.886-1.408C556.373,137.009,555.18,143.741,549.838,145.13z M318.694,391.123
			c-6.185-0.766-9.551,1.567-9.856,6.722c-0.364,6.136,4.338,1.788,6.421,2.93c0.592,0.323,1.825-0.51,2.755-0.835
			c0.067-0.023,0.094-0.225,0.102-0.346C318.307,396.837,318.493,394.079,318.694,391.123z M86.214,29.012
			c-0.042-0.283-0.084-0.566-0.126-0.849c1.604-0.782,3.377-1.349,4.744-2.429c0.775-0.613,1.454-2.304,1.133-3.076
			c-0.31-0.746-2.33-1.592-2.95-1.244c-1.821,1.027-3.616,2.403-4.865,4.062c-1.339,1.777-1.637,4.235,0.683,5.532
			c2.159,1.207,4.403,0.792,6.284-1.996C89.132,29.012,87.674,29.012,86.214,29.012z M208.158,209.331
			c-1.218,0.621-2.705,0.979-2.749,1.464c-0.386,4.345-0.517,8.712-0.724,13.074c0.275,0.092,0.549,0.185,0.824,0.277
			c3.651-4.627,7.302-9.253,10.954-13.88c-0.365-0.355-0.729-0.71-1.094-1.064c-3.562,2.034-3.832,7.446-7.953,9.559
			C207.658,215.686,207.868,213.014,208.158,209.331z M272.577,8.595c-0.364-0.144-0.728-0.289-1.092-0.434
			c-1.634-6.607-1.634-6.607-4.542-5.047c2.614,4.453,2.808,8.893-0.73,13.275c3.371-1.316,9.776-8.833,9.962-11.381
			c0.068-0.927-0.728-1.918-1.349-3.407C273.832,4.692,273.204,6.644,272.577,8.595z M70.319,31.371
			c3.524,0.037,6.209-2.749,6.261-6.451c0.034-2.456-1.267-3.727-3.588-3.829c-2.933-0.129-6.232,3.501-6.301,6.723
			C66.637,30.301,67.792,31.53,70.319,31.371z M509.341,64.547c-0.987,2.486-1.459,4.324,1.799,4.232
			c1.483-0.042,3.692-0.318,4.231-1.258c0.674-1.174,0.174-3.191-0.209-4.749c-0.324-1.318-1.203-2.501-1.837-3.745
			c0.37-0.175,0.742-0.35,1.112-0.525c0.748,0.713,1.497,1.428,2.245,2.141c0.33-0.127,0.66-0.253,0.99-0.38
			c-0.313-1.044-0.554-2.945-0.955-2.98c-1.615-0.139-3.799-0.24-4.764,0.691c-0.779,0.753-0.271,3.029-0.021,4.58
			c0.123,0.768,1.139,1.359,1.401,2.147c0.23,0.691-0.025,1.546-0.065,2.329c-0.74-0.157-1.571-0.159-2.196-0.517
			C510.487,66.178,510.119,65.466,509.341,64.547z M495.021,58.221c0.668,1.034,1.114,1.803,1.674,2.479
			c0.061,0.074,1.098-0.357,1.129-0.62c0.096-0.806,0.22-2.085-0.209-2.375c-0.837-0.563-2.119-0.95-3.081-0.751
			c-3.29,0.678-5.488,2.722-6.214,6.083c-0.484,2.246-0.848,4.705,2.029,5.57c3.006,0.903,5.041-0.475,5.946-2.54
			c-1.999-0.465-5.102-0.485-5.376-1.376C489.945,61.521,491.954,59.409,495.021,58.221z M166.415,430.248
			c0.355-0.149,0.711-0.3,1.066-0.449c-0.278-0.9-0.417-2.482-0.86-2.573c-1.394-0.284-3.059-0.366-4.306,0.184
			c-0.768,0.338-1.432,2.034-1.303,3.009c0.166,1.256,1.405,2.339,1.742,3.613c0.265,0.998-0.138,2.174-0.244,3.271
			c-0.39-0.002-0.78-0.004-1.17-0.006c-0.606-0.853-1.212-1.704-2.11-2.969c-1.093,2.449-1.985,4.368,1.594,4.125
			c1.591-0.107,4.002-0.455,4.49-1.453c0.631-1.292-0.178-3.367-0.574-5.057c-0.267-1.139-0.891-2.194-1.354-3.287
			c0.244-0.127,0.488-0.256,0.731-0.383C164.884,428.931,165.649,429.59,166.415,430.248z M462.515,60.815
			c0.311,0.036,0.622,0.071,0.933,0.107c0.26-0.993,1.037-2.527,0.677-2.872c-0.845-0.808-2.756-1.781-3.31-1.387
			c-2.113,1.502-4.255,3.268-5.631,5.418c-1.308,2.042-1.407,4.841,1.424,6.064c2.773,1.199,4.926,0.111,5.796-2.143
			c-1.884-0.449-4.97-0.498-5.221-1.366c-0.982-3.404,1.798-5.122,4.385-7.112C461.958,58.882,462.236,59.849,462.515,60.815z
			 M594.535,286.727c-0.363,0.145-0.726,0.288-1.089,0.433c0.269,1.012,0.502,2.88,0.813,2.894c1.896,0.08,4.171,0.272,5.571-0.676
			c0.764-0.517,0.26-3.249-0.063-4.907c-0.233-1.203-1.104-2.281-1.691-3.416c0.268-0.176,0.536-0.352,0.804-0.528
			c0.876,0.614,1.753,1.229,3.136,2.197c0-1.599,0-2.564,0-4.316c-2.215,0.657-5.028,0.739-5.47,1.804
			c-0.612,1.477,0.521,3.702,0.994,5.584c0.11,0.439,0.798,0.775,0.822,1.184c0.04,0.647-0.048,1.612-0.46,1.896
			c-0.457,0.314-1.521,0.266-1.986-0.078C595.289,288.332,594.98,287.437,594.535,286.727z M354.874,335.091
			c-0.254,0.005-0.509,0.01-0.763,0.015c0,11.319,0,22.638,0,33.956c0.254-0.006,0.509-0.012,0.763-0.018
			C354.874,357.727,354.874,346.409,354.874,335.091z M653.983,281.475c0.385-0.186,0.771-0.371,1.155-0.556
			c0.715,0.757,1.431,1.514,2.533,2.681c0.228-1.549,0.378-2.572,0.71-4.826c-2.627,0.892-5.176,1.012-5.971,2.254
			c-0.683,1.068,0.614,3.424,1.09,5.195c0.09,0.335,0.602,0.593,0.62,0.903c0.039,0.652,0.108,1.592-0.262,1.901
			c-0.394,0.328-1.431,0.301-1.917-0.003c-0.636-0.396-1.006-1.217-1.49-1.854c-0.321,0.09-0.641,0.18-0.962,0.269
			c0.258,1.102,0.494,3.145,0.777,3.151c1.889,0.044,4.158,0.176,5.539-0.802c0.77-0.544,0.289-3.215-0.043-4.842
			C655.513,283.719,654.602,282.627,653.983,281.475z M557.437,281.184c0.276-0.259,0.553-0.517,0.829-0.774
			c0.962,0.546,1.924,1.092,3.247,1.844c0-1.379,0-2.334,0-4.088c-2.262,0.783-5.082,0.991-5.487,2.089
			c-0.543,1.475,0.765,3.642,1.318,5.499c0.101,0.339,0.617,0.668,0.561,0.917c-0.174,0.766-0.401,1.601-0.89,2.167
			c-0.161,0.188-1.277-0.22-1.768-0.599c-0.531-0.413-0.843-1.11-1.25-1.685c-0.274,0.05-0.55,0.099-0.823,0.148
			c0,1.045,0,2.09,0,3.134c2.021-0.104,4.234,0.229,5.974-0.526c0.716-0.311,0.759-3.035,0.467-4.536
			C559.362,283.484,558.197,282.373,557.437,281.184z M566.236,290.284c3.147-2.553,5.884-5.055,6.681-9.038
			c0.121-0.609-0.271-1.412-0.643-1.985c-0.152-0.235-1.239-0.229-1.285-0.105c-0.225,0.61-0.171,1.316-0.348,1.951
			c-0.492,1.767-1.049,3.515-1.579,5.27c-0.331-0.118-0.66-0.235-0.991-0.354c-1.119-7.262-1.384-7.618-4.24-6.502
			C564.588,282.906,565.327,286.215,566.236,290.284z M541.924,142.617c2.826-0.793,5.836-0.783,6.605-2.091
			c0.799-1.359-0.552-3.997-0.994-6.068c-0.174-0.807-0.438-1.595-0.659-2.392c0.239-0.108,0.477-0.216,0.716-0.324
			c0.8,0.66,1.601,1.32,2.499,2.063c1.499-2.624,0.451-3.723-1.993-3.483c-1.202,0.118-3.003,0.88-3.304,1.768
			c-0.393,1.16,0.466,2.725,0.724,4.127c0.275,1.498,0.479,3.01,0.713,4.515c-1.015-0.852-2.021-1.715-3.056-2.541
			c-0.131-0.105-0.418-0.015-0.871-0.015C542.212,139.245,542.121,140.311,541.924,142.617z M340.477,209.917
			c0,3.141,0.089,5.604-0.025,8.055c-0.111,2.375-0.433,4.741-0.661,7.11c0.284,0.083,0.568,0.167,0.853,0.25
			c1.679-2.296,3.358-4.591,5.579-7.628c-1.631,0.831-2.386,1.215-3.729,1.899c0.5-3.417,0.907-6.197,1.368-9.345
			C342.898,210.162,341.892,210.06,340.477,209.917z M524.87,237.618c0.254,0.549,0.444,1.46,0.999,1.993
			c0.398,0.384,1.363,0.488,1.923,0.288c0.376-0.134,0.746-1.055,0.672-1.559c-0.752-5.168-0.777-5.165,1.258-7.616
			c-2.595,0-5.134,0-8.288,0c5.285,3.919,1.301,6.3-1.333,8.905c0.285,0.222,0.57,0.444,0.855,0.666
			C522.245,239.412,523.534,238.53,524.87,237.618z M323.24,434.919c-1.954-2.431-1.341-4.591,0.541-6.072
			c0.684-0.538,2.505,0.366,4.959,0.831c-0.898-1.521-1.272-3.042-2.191-3.526c-2.01-1.061-5.654,1.649-6.586,4.709
			c-0.715,2.347-1.244,4.902,1.933,5.789c2.217,0.618,4.154-0.113,5.557-3.325C325.501,434.063,324.5,434.441,323.24,434.919z
			 M471.088,55.161c-0.626-0.409-1.251-0.819-1.877-1.229c-0.837,1.218-2.092,2.331-2.426,3.672
			c-0.797,3.203-1.216,6.508-1.592,9.794c-0.03,0.27,1.773,1.209,2.129,0.966c0.705-0.483,1.222-1.525,1.412-2.422
			c0.505-2.383,0.729-4.824,1.197-7.215C470.171,57.51,470.693,56.348,471.088,55.161z M519.257,289.799
			c0.459,0.119,0.917,0.239,1.374,0.359c0.619-1.281,1.126-2.635,1.885-3.827c0.971-1.522,2.046-3.004,3.269-4.327
			c0.609-0.66,1.712-0.845,2.438-1.434c0.162-0.132-0.316-1.055-0.501-1.612c-1.052,0.368-2.104,0.737-3.157,1.106
			c0.07-0.22,0.14-0.439,0.209-0.659c-1.205-0.22-2.41-0.438-3.119-0.568C520.737,283.032,519.998,286.415,519.257,289.799z
			 M67.642,427.35c-0.445-0.231-0.891-0.463-1.336-0.695c-0.575,0.761-1.405,1.44-1.68,2.297c-0.863,2.696-1.231,5.583-2.35,8.153
			c-0.813,1.867-2.51,3.349-4.126,5.399c0.694,1.142,3.566,1.211,4.756-1.448C64.874,436.66,66.103,431.936,67.642,427.35z
			 M476.743,58.532c-0.117-0.355-0.233-0.71-0.35-1.065c-1.031,0.115-2.884,0.037-2.964,0.375
			c-0.798,3.398-1.304,6.865-1.893,10.313c0.354,0.184,0.709,0.367,1.064,0.551c0.692-1.328,1.261-2.743,2.109-3.962
			c1.112-1.601,2.442-3.052,3.685-4.563c0.682-0.83,1.376-1.648,2.063-2.472c-0.356-0.295-0.712-0.591-1.068-0.887
			C478.508,57.391,477.625,57.962,476.743,58.532z M584.396,289.924c0.469,0.146,0.938,0.294,1.407,0.441
			c0.706-1.487,1.269-3.067,2.156-4.437c0.891-1.372,2.036-3.522,3.189-3.602c3.156-0.218,2.288-1.561,1.597-3.691
			c-1.18,0.884-2.066,1.548-2.953,2.212c0.01-0.315,0.02-0.63,0.029-0.944c-1.011-0.128-2.867-0.493-2.906-0.351
			C585.958,282.977,585.195,286.455,584.396,289.924z M434.112,68.083c0.328,0.049,0.655,0.098,0.983,0.147
			c0.344-0.479,0.74-0.927,1.022-1.439c1.489-2.693,1.164-6.924,5.927-6.924c0.165,0,0.331-1.899,0.659-3.903
			c-1.898,1.277-2.818,1.897-3.511,2.363c-0.527-0.609-0.962-1.111-1.398-1.613c-0.59,0.526-1.496,0.946-1.713,1.596
			c-0.825,2.472-1.477,5.006-2.08,7.543C433.838,66.55,434.064,67.338,434.112,68.083z M111.726,424.715
			c-0.423-0.165-0.846-0.33-1.269-0.494c-0.963,1.071-2.443,2-2.786,3.242c-0.843,3.055-1.229,6.246-1.586,9.407
			c-0.033,0.297,1.547,1.191,2.172,1.027c0.592-0.155,1.145-1.293,1.309-2.082c0.474-2.282,0.692-4.615,1.11-6.911
			C110.932,427.491,111.37,426.11,111.726,424.715z M617.725,128.609c-0.335-0.168-0.67-0.337-1.005-0.505
			c-0.88,0.939-2.182,1.738-2.554,2.848c-0.902,2.692-1.457,5.513-1.961,8.316c-0.149,0.831,0.094,2.322,0.59,2.542
			c0.753,0.335,1.882-0.173,2.851-0.323c-0.367-0.27-0.734-0.541-1.101-0.812C615.605,136.653,616.664,132.631,617.725,128.609z
			 M597.491,141.028c-3.906-4.853,2.57-8.433,0.524-13.304c-1.205,1.398-2.429,2.256-2.831,3.402
			c-0.811,2.309-1.273,4.758-1.681,7.184c-0.191,1.138,0.078,2.354,0.138,3.535C594.826,141.593,596.01,141.342,597.491,141.028z
			 M82.761,19.222c-0.659-0.139-1.317-0.277-1.976-0.415c-1.05,3.539-2.186,7.057-3.048,10.642
			c-0.116,0.483,1.142,1.298,1.763,1.959c0.587-0.741,1.512-1.406,1.695-2.236c0.44-1.995,0.49-4.072,0.78-6.104
			C82.161,21.774,82.494,20.502,82.761,19.222z M62.776,30.857c1.047-4.542,1.885-8.172,2.722-11.802
			c-0.592-0.165-1.184-0.33-1.775-0.494c-1.043,3.226-2.146,6.435-3.089,9.69c-0.241,0.832,0.023,1.812,0.056,2.724
			C61.758,30.915,62.826,30.854,62.776,30.857z M485.641,56.974c-0.449,0.108-1.618,0.134-1.703,0.45
			c-0.847,3.169-1.588,6.373-2.153,9.602c-0.081,0.459,1.251,1.665,1.396,1.583c0.905-0.511,2.283-1.235,2.35-1.99
			C485.796,63.583,485.641,60.51,485.641,56.974z M432.271,56.7c-0.703,0.165-2.082,0.214-2.154,0.548
			c-0.773,3.542-1.34,7.13-1.963,10.707c0.363,0.23,0.727,0.46,1.09,0.69c0.838-0.763,2.277-1.439,2.403-2.305
			C432.092,63.266,432.088,60.126,432.271,56.7z M644.037,290.497c0.427,0.184,0.854,0.368,1.28,0.553
			c0.739-0.571,1.979-1.036,2.128-1.733c0.607-2.838,0.927-5.743,1.227-8.636c0.046-0.438-0.487-1.235-0.892-1.342
			c-0.453-0.121-1.471,0.26-1.545,0.583C645.424,283.429,644.749,286.967,644.037,290.497z M153.18,438.696
			c1.566-0.857,3.236-1.257,3.352-1.925c0.542-3.134,0.658-6.342,0.924-9.512C155.597,427.311,153.621,432.002,153.18,438.696z
			 M386.966,381.026c-0.257,0.012-0.514,0.023-0.771,0.035c0,7.667,0,15.334,0,23.001c0.257-0.002,0.514-0.003,0.771-0.004
			C386.966,396.381,386.966,388.704,386.966,381.026z M387.015,339.015c-0.237,0.031-0.475,0.063-0.712,0.094
			c0,9.423,0,18.846,0,28.268c0.237-0.002,0.475-0.004,0.712-0.007C387.015,357.918,387.015,348.466,387.015,339.015z
			 M354.765,377.562c-0.274-0.006-0.549-0.013-0.823-0.02c0,4.736,0,9.472,0,14.207c0.274,0.001,0.549,0.002,0.823,0.002
			C354.765,387.021,354.765,382.292,354.765,377.562z M386.174,256.746c0.227,0,0.453,0,0.68,0c0-5.964,0-11.929,0-17.893
			c-0.227,0-0.453,0-0.68-0.001C386.174,244.817,386.174,250.782,386.174,256.746z"/>
		<path fill-rule="evenodd" clip-rule="evenodd" d="M325.732,273.923c0,39.473,0,77.926,0,116.378
			c-0.553,0.059-1.105,0.117-1.657,0.176c-0.236-1.523-0.684-3.047-0.675-4.567c0.056-9.225,0.224-18.448,0.327-27.673
			c0.007-0.706-0.191-1.415-0.388-2.766c-5.335,1.724-10.4,3.36-15.464,4.996c-0.147-0.19-0.295-0.381-0.442-0.571
			c1.155-1.406,2.311-2.812,3.894-4.741c-8.104,0-15.562,0-23.503,0c1.455,1.627,2.671,2.987,3.887,4.348
			c-0.151,0.175-0.302,0.35-0.453,0.525c-5.058-1.519-10.115-3.036-15.638-4.694c0,28.853,0,57.224,0,86.223
			c5.586-1.889,10.985-3.715,16.384-5.54c0.128,0.244,0.256,0.488,0.383,0.732c-1.014,1.25-2.028,2.5-3.625,4.467
			c29.005,0,57.127,0,85.631,0c-1.035-1.301-1.977-2.483-2.917-3.665c0.111-0.303,0.223-0.605,0.334-0.907
			c5.669,1.914,11.336,3.829,17.004,5.743c-0.01,0.331-0.02,0.662-0.028,0.994c-5.71,1.854-11.419,3.707-17.128,5.561
			c-0.181-0.222-0.36-0.444-0.541-0.667c1.142-1.301,2.283-2.603,4.045-4.61c-29.18,0-57.696,0-87.25,0
			c2.104,1.384,3.792,2.495,5.479,3.604c-0.333,0.419-0.666,0.837-0.999,1.256c-5.541-1.765-11.082-3.528-17.177-5.47
			c0,18.113,0,35.639,0,53.162c-0.387,0.076-0.774,0.152-1.162,0.229c-0.247-1.09-0.707-2.179-0.708-3.269
			c-0.026-17.225,0.009-34.448,0.025-51.672c0.006-5.084,0.001-10.167,0.001-15.643c-5.285,1.646-10.072,3.136-14.858,4.625
			c-0.172-0.235-0.344-0.472-0.516-0.707c1.17-1.258,2.34-2.516,3.51-3.773c-0.076-0.335-0.152-0.67-0.228-1.006
			c-27.76,0-55.52,0-83.279,0c0.002-0.484,0.005-0.97,0.008-1.455c27.56,0,55.12,0,83.71,0c-1.746-1.914-2.743-3.007-3.74-4.1
			c0.12-0.285,0.241-0.569,0.362-0.854c4.736,1.46,9.471,2.919,14.842,4.574c0-14.644-0.007-29.021,0.001-43.4
			c0.01-14.346,0.108-28.691,0.031-43.037c-0.077-14.3,0.458-28.627-0.653-42.829c0.239-3.2,0.637-6.398,0.69-9.602
			c0.258-15.741,0.425-31.484,0.621-47.226c0.015-1.206,0.002-2.411,0.002-4.427c-2.08,1.48-3.622,2.409-4.969,3.565
			c-8.863,7.617-17.644,15.329-26.533,22.915c-5.395,4.604-11.021,8.94-16.337,13.631c-1.105,0.976-1.755,2.96-1.833,4.519
			c-0.233,4.732-0.084,9.483-0.084,14.201c1.031,0.621,2.137,1.287,3.243,1.953c-0.897,0.575-1.794,1.152-3.032,1.947
			c0,10.622,0,21.832,0,33.042c0,18.482,0.024,36.966-0.067,55.448c-0.005,1.089-0.943,2.173-1.447,3.26
			c-0.4-1.015-1.145-2.027-1.149-3.045c-0.108-19.303-0.138-38.607-0.161-57.911c-0.011-9.11,0.083-18.222-0.004-27.332
			c-0.018-1.838-0.64-3.671-1.081-6.031c2.787-4.602,0.683-10.214,0.564-16.062c-1.85,1.536-3.702,3.07-5.551,4.607
			c-3.066,2.551-6.238,4.985-9.144,7.705c-1.333,1.248-2.139,3.059-3.543,5.148c-2.764-1.247-4.643,1.657-7.009,3.65
			c-16.562,13.952-33.186,27.831-49.731,41.804c-11.568,9.77-23.034,19.661-34.583,29.453c-0.825,0.7-1.961,1.034-2.953,1.537
			c-0.268-0.325-0.537-0.65-0.806-0.976c1.065-1.176,2.012-2.491,3.213-3.504c9.323-7.858,18.719-15.63,28.047-23.482
			c12.766-10.745,25.494-21.535,38.232-32.313c5.983-5.063,11.915-10.187,17.939-15.199c7.454-6.201,14.918-12.393,22.507-18.427
			c2.776-2.208,4.499-4.358,4.388-8.319c-0.334-11.975-0.146-23.963-0.177-35.946c-0.001-0.596-0.153-1.19-0.298-2.246
			c-7.081,0-14.043-0.109-20.994,0.132c-0.908,0.032-2.356,1.776-2.512,2.875c-0.463,3.267-0.319,6.616-0.604,9.916
			c-0.085,0.988-0.8,1.921-1.313,3.071c0.423,0.506,1.012,1.212,1.497,1.793c-0.117,0.399-0.113,0.565-0.192,0.628
			c-6.23,5.011-5.997,13.442-10.343,19.493c-4.353,6.06-8.08,12.578-12.569,18.525c-4.57,6.057-9.473,11.913-14.694,17.415
			c-11.3,11.91-22.833,23.604-34.402,35.254c-4.891,4.925-10.114,9.521-15.272,14.347c-2.272-1.578-2.687-2.84-0.626-4.789
			c10.291-9.739,20.807-19.269,30.642-29.454c15.738-16.299,31.602-32.551,43.105-52.379c5.574-9.606,9.264-19.839,10.882-30.806
			c0.808-5.471-0.119-6.333-5.723-6.151c-3.744,0.122-7.499-0.013-11.237,0.188c-3.192,0.171-6.604-0.965-9.4,2.1
			c-0.662,0.725-3.3-0.187-4.967-0.597c-1.608-0.396-3.135-1.609-4.702-1.618c-18.98-0.105-37.961-0.051-56.941-0.045
			c-13.495,0.005-26.99,0.016-40.485-0.021c-1.745-0.004-3.49-0.28-5.234-0.429c-0.038-0.5-0.075-1-0.113-1.5
			c1.262-0.211,2.526-0.612,3.788-0.604c15.233,0.098,30.467,0.26,45.7,0.388c0.728,0.006,1.457-0.155,2.901-0.321
			c-1.789-5.079-3.487-9.902-5.556-15.777c2.339,1.556,3.77,2.509,5.595,3.725c0-13.745,0-27.031,0-41.012
			c-1.689,1.466-3.05,2.646-4.41,3.827c-0.208-0.125-0.416-0.249-0.624-0.374c1.02-2.87,2.172-5.701,3.021-8.621
			c0.724-2.49,1.041-5.095,1.665-7.617c0.175-0.708,0.668-1.538,1.261-1.864c0.345-0.189,1.601,0.388,1.729,0.829
			c1.648,5.665,3.168,11.367,4.707,17.064c0.017,0.063-0.151,0.174-0.438,0.486c-1.266-1.105-2.536-2.214-4.395-3.836
			c0,13.857,0,27.166,0,40.9c1.378-1.085,2.639-2.078,3.899-3.071c0.235,0.114,0.471,0.229,0.707,0.344
			c-1.546,4.833-3.092,9.667-4.905,15.335c3.751,0,6.92-0.003,10.091,0c12.621,0.012,25.243,0.092,37.863-0.053
			c1.427-0.016,3.118-1.009,4.203-2.052c2.763-2.655,4.506-2.618,7.264,0.176c0.972,0.984,2.569,1.8,3.925,1.874
			c4.612,0.25,9.244,0.117,13.868,0.162c4.034,0.04,6.955-3.261,6.415-7.421c-1.154-8.895-4.377-17.096-8.415-25.036
			c-5.79-11.388-12.922-21.941-21.23-31.543c-9.317-10.767-19.347-20.922-29.213-31.203c-6.293-6.558-12.841-12.874-19.299-19.273
			c-1.942-1.924-4.158-3.613-5.859-5.723c-0.72-0.893-0.438-2.594-0.61-3.928c1.137,0.358,2.598,0.383,3.363,1.125
			c10.455,10.136,21.063,20.132,31.123,30.651c9.077,9.493,17.65,19.481,26.221,29.442c9.077,10.55,16.419,22.245,21.871,35.082
			c0.875,2.061,1.495,4.238,2.479,6.24c0.56,1.138,1.638,2.015,2.448,3.038c0.356,0.45,0.89,0.97,0.889,1.457
			c-0.008,2.298,0.009,4.622-0.322,6.886c-0.578,3.952,2.873,6.318,3.627,9.731c0.066,0.295,1.094,0.531,1.677,0.535
			c6.349,0.038,12.698,0.023,19.491,0.023c0-7.581-0.002-14.757,0-21.935c0.002-5.863-0.094-11.729,0.066-17.588
			c0.063-2.339-0.614-3.881-2.467-5.399c-6.741-5.52-13.316-11.243-19.943-16.901c-6.921-5.908-13.849-11.811-20.744-17.75
			c-12.444-10.719-24.834-21.501-37.309-32.186c-10.313-8.833-20.743-17.531-31.033-26.391c-1.054-0.907-1.5-2.519-2.229-3.803
			c1.322,0.582,2.874,0.894,3.932,1.789c9.228,7.813,18.37,15.727,27.533,23.615c2.994,2.578,5.977,5.167,9.436,8.16
			c2.154-6.118,4.143-11.763,6.131-17.409c0.247-0.009,0.494-0.019,0.74-0.028c0.354,1.691,0.709,3.383,1.229,5.866
			c2.558-3.445,4.851-6.313,6.908-9.341c6.913-10.175,14.08-20.203,20.439-30.716c2.634-4.355,3.889-9.706,5.004-14.773
			c1.114-5.066-3.42-11.256-8.605-13.583c-9.046-4.059-18.624-5.436-28.365-5.796c-13.585-0.501-27.182-0.687-40.773-1.037
			c-1.063-0.028-2.121-0.29-3.18-0.442c-0.105-0.334-0.21-0.668-0.315-1.002c0.886-0.447,1.79-1.315,2.656-1.279
			c18.562,0.773,37.26-0.465,55.618,3.353c4.927,1.024,9.897,2.305,14.516,4.253c9.683,4.086,12.826,11.749,9.504,21.653
			c-3.243,9.671-8.226,18.41-14.263,26.574c-5.671,7.67-11.402,15.296-17.469,23.427c2.307-0.295,3.925-0.502,5.543-0.709
			c0.131,0.315,0.261,0.632,0.392,0.948c-4.905,3.387-9.81,6.773-15.275,10.546c16.587,14.19,32.82,28.078,48.875,41.813
			c1.181-0.478,2.26-0.916,3.341-1.353c0,1.21,0,2.421,0,4.372c5.85,5.006,12.435,10.641,19.657,16.822c0-6.433,0-12.158,0-17.869
			c-0.904-0.625-1.969-1.361-3.033-2.097c0.883-0.558,1.767-1.116,3.32-2.097c-0.104-29.422-0.396-59.619,0.128-89.802
			c0.613-0.018,1.227-0.037,1.839-0.055c0.199,3.189,0.398,6.378,0.646,10.35c5.859-2.101,11.396-4.085,16.935-6.071
			c0.248,0.183,0.497,0.366,0.745,0.549c-1.294,1.483-2.588,2.966-4.261,4.884c1.168,0.18,2.031,0.424,2.896,0.43
			c9.872,0.068,19.744,0.102,29.615,0.142c1.801,0.007,3.535,0.119,3.513-2.582c-0.074-8.822-0.028-17.647-0.028-27.306
			c-1.902,1.757-3.177,2.936-4.452,4.113c-0.25-0.128-0.499-0.256-0.749-0.385c1.864-5.826,3.729-11.653,5.593-17.48
			c0.338-0.032,0.677-0.064,1.016-0.096c1.971,5.825,3.942,11.651,5.914,17.477c-0.258,0.108-0.515,0.218-0.772,0.326
			c-1.354-1.138-2.708-2.276-4.806-4.04c0,9.928-0.044,18.945,0.089,27.96c0.01,0.679,1.278,1.918,1.968,1.923
			c15.102,0.111,30.204,0.085,45.622,0.085c0.204-3.351,0.401-6.595,0.599-9.84c0.5-0.024,1-0.048,1.5-0.073
			c0.344,3.21,0.687,6.421,1.096,10.248c6.093-2.171,11.718-4.175,17.342-6.178c0.174,0.159,0.348,0.318,0.521,0.477
			c-0.974,1.265-1.948,2.53-2.944,3.823c6.854,2.589,12.188-0.918,12.152-7.871c-0.006-1.123-0.001-2.247-0.039-3.369
			c-0.231-6.985,3.383-10.166,10.412-9.714c8.07,0.519,16.163,0.731,24.249,0.933c6.107,0.152,12.22,0.065,18.329,0.132
			c0.401,0.003,0.797,0.405,1.229,1.471c-0.932,0.19-1.866,0.555-2.796,0.546c-13.492-0.128-26.983-0.319-40.475-0.457
			c-1.615-0.016-3.237,0.145-4.847,0.313c-2.531,0.266-3.728,1.823-3.805,4.271c-0.079,2.497-0.034,4.999-0.114,7.497
			c-0.174,5.375-2.527,7.947-7.841,8.499c-2.314,0.24-4.647,0.302-7.87,0.5c1.605,1.908,2.718,3.231,3.831,4.555
			c-0.136,0.271-0.272,0.541-0.407,0.811c-2.823-0.876-5.651-1.733-8.464-2.641c-0.828-0.267-1.599-0.704-2.414-1.018
			c-5.394-2.078-6.381-1.382-6.379,4.303c0.005,23.228-0.037,46.456,0.024,69.684c0.003,1.473-0.994,3.71,1.838,4.167
			c0.163,0.026,0.157,2.229,0.117,2.233c-2.589,0.245-1.952,2.231-1.966,3.711c-0.059,5.583-0.023,11.166-0.023,17.665
			c5.083-4.203,9.543-7.842,13.947-11.549c2.666-2.246,5.339-4.5,7.821-6.941c1.123-1.105,1.789-2.673,3.009-4.567
			c5.399-0.006,8.483-5.455,12.743-8.862c8.642-6.913,17.053-14.119,25.463-21.316c10.671-9.131,21.2-18.43,31.885-27.547
			c5.674-4.843,11.55-9.448,17.32-14.178c1.138-0.933,2.211-1.943,3.565-3.141c0.527,1.021,0.985,1.908,1.598,3.093
			c4.548-2.191,9.091-4.379,13.634-6.568c0.197,0.151,0.396,0.301,0.592,0.451c-0.955,1.381-1.909,2.761-3.259,4.712
			c1.282,0.079,2.241,0.227,3.191,0.183c8.569-0.397,17.136-1.069,25.705-1.11c2.818-0.014,5.775,1.299,8.426,2.529
			c2.348,1.089,3.616,3.463,2.244,5.943c-2.932,5.297-6.154,10.437-9.357,15.579c-2.626,4.214-5.406,8.332-8.096,12.506
			c-1.384,2.148-0.649,3.874,1.671,4.154c4.528,0.546,9.134,1.021,13.669,0.791c5.095-0.26,10.143-1.38,15.225-2.012
			c1.101-0.137,2.261,0.208,3.394,0.331c0.005,0.507,0.01,1.014,0.016,1.521c-7.684,0.971-15.349,2.208-23.063,2.789
			c-3.343,0.252-6.943-0.383-10.145-1.458c-3.776-1.267-4.568-3.292-2.626-6.646c3.227-5.566,7.003-10.813,10.51-16.218
			c2.1-3.236,4.273-6.438,6.146-9.805c1.891-3.401,0.854-6.029-2.999-6.722c-4.889-0.88-9.892-1.264-14.861-1.488
			c-3.096-0.14-6.221,0.422-9.334,0.652c-2.975,0.219-5.95,0.415-8.925,0.622c-0.349,0.401-0.696,0.804-1.044,1.205
			c1.677,0.758,3.355,1.517,5.033,2.274c-0.311,0.433-0.622,0.867-0.933,1.3c-5.561-1.055-11.108-2.181-16.69-3.103
			c-1.091-0.181-2.63,0.051-3.427,0.726c-15.464,13.079-30.821,26.284-46.257,39.396c-11.001,9.345-22.396,18.254-32.983,28.04
			c-4.643,4.29-9.973,7.598-14.515,11.965c-4.573,4.398-9.641,8.283-14.503,12.377c-2.572,2.166-3.995,4.463-3.866,8.272
			c0.391,11.584,0.142,23.19,0.142,35.159c7.958,0,15.518,0,22.571,0c1.457-2.12,3.057-4.02,4.139-6.18
			c0.667-1.331,0.551-3.056,0.776-4.606c0.178-1.218,0.34-2.438,0.616-4.446c-0.043-0.061-0.646-0.912-1.186-1.674
			c0.171-0.426,0.236-0.833,0.355-0.849c2.794-0.377,3.12-2.691,3.882-4.752c5.854-15.848,14.754-29.948,25.966-42.413
			c12.213-13.578,25.043-26.607,37.788-39.697c6.415-6.587,13.237-12.778,19.943-19.213c3.579,2.258,1.442,4.075-0.33,5.784
			c-8.973,8.648-18.233,17.015-26.905,25.953c-9.683,9.979-18.997,20.329-28.187,30.768c-10.244,11.635-18.546,24.584-24.229,39.056
			c-1.767,4.5-3.15,9.245-3.915,14.005c-0.425,2.634,0.794,5.532,1.349,8.747c7.138,0,14.227,0.036,21.314-0.063
			c0.639-0.009,1.378-0.79,1.878-1.375c2.594-3.045,5.152-3.069,7.98-0.514c1.188,1.075,3.088,1.884,4.68,1.913
			c15.804,0.281,31.611,0.413,47.418,0.511c18.104,0.11,36.207,0.145,54.311,0.196c0.203,0,0.407-0.213,0.918-0.497
			c-1.062-1.25-2.078-2.448-3.096-3.646c0.157-0.26,0.313-0.521,0.469-0.781c5.643,1.779,11.286,3.559,16.929,5.338
			c-0.013,0.387-0.025,0.773-0.038,1.16c-5.514,1.821-11.027,3.642-17.586,5.808c1.604-2.307,2.536-3.648,3.794-5.457
			c-18.533,0-36.539,0-55.209,0c0.923,5.974,1.813,11.742,2.704,17.512c-0.268,0.125-0.534,0.249-0.802,0.374
			c-1.238-1.634-2.477-3.269-4.19-5.531c-1.767,10.344-3.158,19.764-1.323,29.345c1.503,7.848,5.888,12.235,13.777,12.902
			c11.892,1.005,23.671,0.054,35.263-2.987c2.302-0.604,4.751-0.644,7.133-0.944c0.078,0.43,0.157,0.859,0.235,1.288
			c-0.431,0.358-0.821,0.959-1.299,1.039c-13.502,2.268-26.912,5.558-40.792,3.754c-11.043-1.436-15.313-5.345-16.644-17.074
			c-0.881-7.77,0.764-15.827,1.292-23.754c0.056-0.839,0.198-1.672,0.387-3.214c-1.772,1.104-3.026,1.886-4.28,2.668
			c-0.18-0.118-0.358-0.237-0.537-0.355c2.521-4.809,5.041-9.618,8.035-15.329c-7.841,0-14.513,0.013-21.184-0.003
			c-7.995-0.021-15.996,0.098-23.983-0.17c-3.877-0.13-7.158,0.382-9.497,4.481c-1.639-1.284-3.1-2.447-4.581-3.582
			c-0.562-0.43-1.168-1.132-1.76-1.138c-7.844-0.077-15.688-0.051-24.208-0.051c0.477,3.792,0.759,7.213,1.355,10.578
			c2.988,16.839,11.641,31.049,22.033,44.03c10.175,12.707,21.238,24.749,32.486,36.532c9.256,9.695,19.354,18.585,29.08,27.831
			c0.361,0.344,0.956,0.641,1.038,1.041c0.216,1.065,0.211,2.175,0.293,3.268c-0.974-0.116-2.271,0.129-2.868-0.405
			c-3.416-3.062-6.658-6.315-9.973-9.49c-6.471-6.198-13.086-12.253-19.389-18.617c-6.648-6.713-12.972-13.748-19.517-20.566
			c-1.046-1.09-1.963-3.223-3.509-2.354c-1.252-1.941-2.41-4.295-4.071-6.214c-9.265-10.699-16.969-22.417-23.241-35.083
			c-1.046-2.112-1.646-4.444-2.676-6.566c-0.934-1.921-2.174-3.693-3.158-5.33c-0.51-5.759-1.001-11.669-1.625-17.565
			c-0.044-0.412-1.077-1.025-1.654-1.03c-8.092-0.068-16.184-0.046-24.674-0.046c0,8.851-0.002,17.181,0.001,25.511
			c0,2.622,0.34,5.294-0.043,7.857c-0.769,5.139,1.162,8.691,5.176,11.8c6.492,5.028,12.688,10.438,19.029,15.661
			c0.601,0.494,1.358,0.8,2.64,1.536c0.224-3.193,0.404-5.765,0.601-8.564c1.771,1.146,2.94,4.368,1.952,7.221
			c-1.009,2.913,0.251,4.452,2.085,6.004c18.619,15.762,37.264,31.493,55.885,47.253c9.393,7.949,18.755,15.936,28.115,23.923
			c0.672,0.573,1.216,1.297,1.82,1.95c-0.211,0.314-0.421,0.628-0.631,0.941c-1.072-0.496-2.32-0.785-3.189-1.521
			c-7.513-6.359-14.932-12.83-22.432-19.206c-7.364-6.261-14.813-12.422-22.18-18.678c-7.396-6.277-14.713-12.646-22.107-18.923
			c-5.658-4.803-11.383-9.526-17.819-14.905c0,12.203,0,23.536,0,34.867c-0.471,0.014-0.941,0.028-1.411,0.042
			c0-3-0.006-6.001,0.001-9.002c0.018-8.098,0.106-16.196,0.034-24.293c-0.04-4.425-1.024-5.15-5.491-4.856
			c-0.495,0.033-1.502-0.597-1.473-0.707c1.37-5.152-3.688-5.754-5.988-8.023C336.397,282.292,331.478,278.69,325.732,273.923z
			 M224.275,81.321c-0.166,1.8-0.337,2.78-0.334,3.761c0.057,18.703-0.138,37.413,0.349,56.105
			c0.178,6.822-1.804,13.89,1.415,20.547c0.187,0.385-0.354,1.101-0.508,1.676c-0.341,1.267-0.891,2.535-0.928,3.816
			c-0.126,4.366,0.187,8.758-0.166,13.1c-0.245,3.009,0.875,4.989,3.013,6.742c2.599,2.131,5.2,4.26,7.746,6.454
			c8.85,7.627,17.657,15.303,26.52,22.915c3.709,3.185,7.516,6.255,11.94,9.927c0.243-2.273,0.527-3.689,0.524-5.104
			c-0.019-8.737-0.145-17.475-0.157-26.212c-0.051-36.561-0.106-73.123-0.049-109.684c0.004-2.712-0.885-3.41-3.42-3.386
			c-10.583,0.099-21.169,0.041-32.093,0.041c1.092,1.486,2.045,2.783,2.998,4.08c-0.136,0.221-0.272,0.442-0.408,0.664
			C235.405,85.004,230.093,83.246,224.275,81.321z M321.858,162.435c0.541-1.83,1.486-3.554,1.492-5.282
			c0.078-21.231,0.017-42.463-0.007-63.694c-0.004-3.675,0-7.35,0-11.159c-16.229,0-31.779,0-47.474,0
			c-0.083,0.95-0.201,1.674-0.202,2.398c-0.028,21.185-0.167,42.371,0.035,63.554c0.044,4.638-0.628,9.243,1.073,14.074
			c1.208,3.429-0.824,7.887-0.884,11.894c-0.234,15.577-0.298,31.157-0.285,46.736c0.001,1.265,0.786,2.884,1.752,3.65
			c0.516,0.41,2.434-0.365,3.32-1.093c7.889-6.476,15.712-13.032,23.508-19.62c6.083-5.141,12.129-10.327,18.104-15.592
			c0.713-0.628,1.225-1.875,1.238-2.844c0.081-5.986,0.11-11.979-0.115-17.96C323.349,165.776,322.391,164.088,321.858,162.435z
			 M323.442,353.337c0-5.045-0.017-9.256,0.003-13.467c0.101-21.669,0.258-43.339,0.226-65.007
			c-0.003-1.605-0.924-3.692-2.129-4.733c-7.894-6.822-16.022-13.375-23.998-20.104c-6.001-5.063-11.854-10.301-17.871-15.344
			c-0.8-0.671-2.272-1.038-3.251-0.799c-0.531,0.13-0.955,1.833-0.958,2.828c-0.048,13.975-0.001,27.949-0.007,41.923
			c-0.006,14.724-0.05,29.448-0.066,44.172c-0.01,9.841-0.002,19.682-0.002,30.318c5.525-1.808,10.629-3.478,16.515-5.404
			c-1.495,2.197-2.386,3.508-3.482,5.12c7.819,0,14.922,0,22.587,0c-1.403-1.668-2.381-2.831-3.358-3.993
			c0.122-0.209,0.243-0.418,0.364-0.627C313,349.873,317.985,351.525,323.442,353.337z M272.385,230.656
			c-16.785,0-32.326,0-48.069,0c0,13.296,0,26.223,0,40.309C240.558,257.345,256.13,244.287,272.385,230.656z M224.298,187.779
			c0,12.636,0.157,24.369-0.095,36.094c-0.078,3.588,1.092,4.36,4.416,4.35c13.733-0.043,27.468,0.179,41.202,0.274
			c0.41,0.003,0.82-0.314,1.621-0.641C255.709,214.481,240.282,201.366,224.298,187.779z M323.553,230.771
			c-14.906,0-29.229,0-43.554,0c-0.131,0.305-0.263,0.61-0.394,0.915c14.472,12.26,28.944,24.52,43.948,37.23
			C323.553,255.782,323.553,243.421,323.553,230.771z M323.525,190.625c-14.986,12.653-29.175,24.632-43.364,36.613
			c0.165,0.295,0.329,0.59,0.494,0.885c14.22,0,28.441,0,42.871,0C323.525,215.773,323.525,203.716,323.525,190.625z"/>
		<path fill-rule="evenodd" clip-rule="evenodd" d="M337.603,413.327c1.225-1.858,2.122-3.219,3.323-5.042
			c-16.684,0-32.836,0-49.678,0c1.151,1.576,2.083,2.85,3.016,4.124c-0.135,0.255-0.271,0.51-0.405,0.765
			c-5.52-1.875-11.041-3.75-17.813-6.05c6.562-2.363,12.163-4.38,17.763-6.396c0.229,0.276,0.458,0.554,0.688,0.831
			c-1.096,1.285-2.192,2.57-3.797,4.453c16.961,0,33.36,0,50.335,0c-1.453-1.551-2.686-2.865-3.918-4.179
			c0.117-0.202,0.235-0.404,0.353-0.606c5.627,1.739,11.254,3.479,17.625,5.447c-0.114,0.261-0.322,1.895-1.01,2.13
			c-4.422,1.517-8.943,2.742-13.442,4.025C339.854,413.055,339.015,413.103,337.603,413.327z"/>
		<path fill-rule="evenodd" clip-rule="evenodd" d="M20.684,34.546c5.383-2.463,6.546-7.86,2.415-12.359
			c-0.397,0.952-0.783,1.875-1.486,3.557c-0.971-1.912-1.408-2.772-2.083-4.101c-0.563,1.318-0.886,1.707-0.796,1.929
			c0.272,0.673,0.894,1.243,1.034,1.923c0.32,1.551,1.138,3.701,0.448,4.574c-0.8,1.01-2.986,1.144-4.595,1.244
			c-2.689,0.169-5.43-0.257-8.09,0.057c-3.077,0.364-4.529-0.939-3.854-4.054c1.09-5.043,4.262-6.792,10.257-5.493
			c-0.459,2.354-0.92,4.717-1.576,8.083c1.511-1.065,2.188-1.543,2.904-2.048c0.825,0.73,1.671,1.48,2.519,2.23
			c0.311-0.156,0.622-0.312,0.933-0.467c-0.391-1.083-0.88-2.143-1.149-3.255c-0.35-1.447-0.526-2.938-0.777-4.409
			c1.488-0.231,2.972-0.495,4.467-0.667c0.328-0.038,0.759,0.449,1.032,0.359c5.355-1.77,5.189,2.314,5.632,5.758
			c0.345,0.03,0.689,0.061,1.034,0.091c0.838-1.958,1.675-3.916,2.513-5.874c0.268-0.064,0.535-0.128,0.803-0.192
			c0,1.175,0.43,2.588-0.067,3.491C27.65,33.192,24.015,36.283,20.684,34.546z M6.193,29.108c3.493,0.071,4.226-2.376,4.893-4.727
			c0.127-0.45-0.605-1.143-0.941-1.724c-1.317,1.492-2.692,2.939-3.909,4.509C5.948,27.536,6.193,28.317,6.193,29.108z"/>
		<path fill-rule="evenodd" clip-rule="evenodd" d="M151.359,428.438c-1.319,0.914-3.584,1.691-3.741,2.773
			c-0.249,1.718,0.911,3.641,1.716,6.264c-1.365,1.753-2.685,0.634-3.899-2.01c-2.776,3.137-5.991,3.13-9.44,1.775
			c-0.346-0.136-0.874,0.286-1.319,0.291c-1.364,0.014-3.449,0.467-3.93-0.202c-0.766-1.064-1.049-3.157-0.515-4.362
			c2.835-6.394,4.738-7.063,10.815-5.393c-0.572,2.365-1.148,4.745-1.979,8.175c1.848-0.31,3.779-0.047,4.577-0.875
			c2.555-2.651,0.954-5.158-1.412-7.373c0.247-0.309,0.494-0.619,0.74-0.929c1.424,0.623,2.848,1.246,4.028,1.762
			c1.461-0.348,2.961-0.706,4.461-1.063C151.428,427.659,151.394,428.048,151.359,428.438z M132.468,435.896
			c0.563,0.283,1.126,0.566,1.69,0.85c1.268-2.075,2.615-4.108,3.739-6.259c0.228-0.436-0.198-1.571-0.666-1.907
			c-0.429-0.308-1.553-0.236-1.969,0.127C133.045,430.648,131.91,433.028,132.468,435.896z"/>
		<path fill-rule="evenodd" clip-rule="evenodd" d="M573.82,132.627c0.709-0.497,1.399-1.023,2.131-1.484
			c2.333-1.47,3.047,0.047,2.956,1.915c-0.118,2.414-0.495,4.856-1.146,7.178c-0.229,0.814-1.598,1.309-2.446,1.95
			c-0.322-0.219-0.645-0.438-0.967-0.658c0.702-2.779,1.404-5.559,2.277-9.009c-4.802,1.751-3.991,6.999-6.897,9.338
			c-0.363-0.099-0.725-0.198-1.087-0.296c0.668-2.776,1.338-5.551,2.007-8.325c-0.386-0.234-0.771-0.468-1.156-0.702
			c-1.298,2.246-2.55,4.519-3.915,6.723c-0.543,0.876-1.335,1.597-2.014,2.388c-0.025-0.981-0.207-1.991-0.043-2.94
			c0.359-2.072,1.046-4.093,1.314-6.171c0.273-2.113,0.847-2.835,2.786-1.345c0.414,0.318,1.173,0.213,1.775,0.257
			c1.45,0.108,2.903,0.19,4.354,0.283C573.773,132.027,573.797,132.327,573.82,132.627z"/>
		<path fill-rule="evenodd" clip-rule="evenodd" d="M93.006,427.191c-1.052,4.233-3.046,7.092-7.555,7.619
			c0.135,0.29,0.27,0.58,0.404,0.871c1.312,0.552,2.67,1.014,3.924,1.676c2.357,1.242,2.134,3.04,0.377,4.449
			c-2.092,1.678-4.542,2.355-7.288,1.252c-3.134-1.26-3.3-2.46-1.159-5.102c0.933-1.151,1.611-3.149,1.321-4.537
			c-1.041-4.996,0.516-7.135,5.545-6.782C90.03,426.74,91.472,426.995,93.006,427.191z M90.338,429.956
			c-1.482-0.999-2.607-2.023-2.823-1.858c-1.181,0.902-2.139,2.096-3.173,3.189c0.727,0.555,1.708,1.723,2.133,1.547
			C87.671,432.34,88.638,431.291,90.338,429.956z M88.775,440.55c-0.021-0.547-0.043-1.094-0.064-1.642c-1.959,0-3.918,0-5.877,0
			c0.173,0.749,0.094,1.846,0.564,2.188C85.356,442.519,87.215,442.181,88.775,440.55z"/>
		<path fill-rule="evenodd" clip-rule="evenodd" d="M37.909,420.908c-0.449,1.852-0.855,3.526-1.494,6.163
			c-1.729-3.242-2.581-6.658-6.441-4.594c-4.316,2.308-6.453,7.911-4.553,11.738c1.313,2.646,3.721,2.892,8.745,0.891
			c-0.849,2.375-2.089,3.125-5.143,3.184c-3.065,0.059-5.647-0.614-6.917-3.859c-2.322-5.936,3.484-14.285,9.853-14.039
			C33.798,420.462,35.631,420.705,37.909,420.908z"/>
		<path fill-rule="evenodd" clip-rule="evenodd" d="M425.708,67.456c-1.087,0.209-2.165,0.513-3.26,0.601
			c-0.914,0.073-1.927-0.371-2.758-0.125c-2.74,0.812-4.486-0.514-4.354-3.494c0.194-4.388,4.479-8.115,9.107-7.822
			c0.681-1.937,1.331-3.918,2.129-5.838c0.073-0.176,1.087,0.038,1.83,0.08c-1.306,5.433-2.558,10.644-3.81,15.854
			C424.965,66.96,425.337,67.208,425.708,67.456z M417.422,64.921c0.407,0.222,0.814,0.443,1.223,0.665
			c4.955-1.93,6.396-5.354,2.796-8.375C420.053,59.876,418.737,62.398,417.422,64.921z"/>
		<path fill-rule="evenodd" clip-rule="evenodd" d="M33.084,30.806c0.779-3.126,1.559-6.253,2.309-9.263
			c3.532-0.798,6.854,1.921,10.217-0.066c0.286-0.169,1.302,0.208,1.309,0.36c0.113,2.588,0.314,5.203,0.025,7.76
			c-0.081,0.716-1.67,1.263-2.568,1.887c-0.357-0.211-0.714-0.422-1.071-0.634c0.517-2.269,1.033-4.537,1.549-6.806
			c-0.303-0.183-0.606-0.367-0.909-0.55c-1.603,2.636-3.206,5.271-4.809,7.906c-0.368-0.164-0.736-0.328-1.104-0.492
			c0.632-2.443,1.265-4.886,1.898-7.329c-0.303-0.135-0.606-0.27-0.909-0.403c-1.571,2.713-3.142,5.427-4.713,8.14
			C33.899,31.146,33.492,30.976,33.084,30.806z"/>
		<path fill-rule="evenodd" clip-rule="evenodd" d="M582.318,141.955c-0.152,1.949-0.282,3.612-0.439,5.628
			c-1.018-0.12-2.022-0.238-2.902-0.341c-0.139-0.59-0.288-0.847-0.231-1.043c1.28-4.396,2.693-8.756,3.823-13.189
			c0.441-1.734,0.649-2.959,2.801-1.84c0.454,0.236,1.141-0.018,1.709,0.047c1.326,0.153,3.368-0.072,3.804,0.649
			c0.705,1.171,0.775,3.099,0.373,4.493C590.05,140.524,587.309,142.859,582.318,141.955z M589.188,132.934
			c-4.382,0.098-6.407,3.365-5.18,7.967C587.854,140.291,589.434,137.95,589.188,132.934z"/>
		<path fill-rule="evenodd" clip-rule="evenodd" d="M634.994,286.886c-0.325,3.854-2.215,4.665-7.391,3.216
			c-0.616-0.172-1.349-0.387-1.913-0.212c-4.271,1.321-5.802,0.146-4.501-4.111c0.634-2.078,2.218-4.31,4.019-5.457
			c1.616-1.03,4.116-0.672,6.743-0.987c-0.71,3.015-1.269,5.392-1.861,7.914c1.769,1.64,3.402,1.785,4.976-0.271L634.994,286.886z
			 M628.277,280.884c-4.213,1.122-5.771,4.171-4.083,7.615C627.313,287.008,629.468,285.061,628.277,280.884z"/>
		<path fill-rule="evenodd" clip-rule="evenodd" d="M512.584,274.248c-1.353,0.901-2.705,1.803-4.092,2.726
			c-0.222-3.438,0.078-3.822,3.002-3.84c2.242-0.015,4.494,0.138,6.723-0.032c3.567-0.274,3.409,1.37,2.241,3.824
			c-1.196-0.827-2.281-1.577-3.367-2.327c-0.683,1.386-1.566,2.71-2.007,4.169c-1.048,3.467-1.887,6.996-2.81,10.5
			c0.311,0.23,0.621,0.461,0.931,0.691c-1.398,0.073-2.797,0.146-4.448,0.231c1.681-5.369,3.24-10.354,4.8-15.338
			C513.232,274.651,512.909,274.449,512.584,274.248z"/>
		<path fill-rule="evenodd" clip-rule="evenodd" d="M149.547,217.45c-0.59,2.579-1.104,4.822-1.688,7.372
			c-0.924-0.1-1.939-0.211-3.014-0.329c1.393-5.09,2.69-9.832,4.01-14.655c6.724-1.697,10.004-0.792,9.235,2.035
			c-2.102-0.325-4.194-1.092-6.075-0.739c-0.841,0.158-1.258,2.566-2.175,4.649c2.079-0.347,3.225-0.538,4.835-0.807
			c-0.223,1.275-0.418,2.397-0.673,3.857C152.534,218.377,151.417,218.03,149.547,217.45z"/>
		<path fill-rule="evenodd" clip-rule="evenodd" d="M51.222,21.504c1.099,0,2.32-0.102,3.517,0.027
			c1.362,0.147,3.308,0.065,3.892,0.879c0.685,0.955,0.743,3.166,0.067,4.12c-1.347,1.901-3.152,4.184-5.186,4.717
			c-2.766,0.726-3.839,1.794-3.352,4.811c-1.362-0.161-2.367-0.28-3.387-0.4C48.281,30.859,49.68,26.409,51.222,21.504z
			 M56.525,23.085c-3.626,0.104-5.064,2.175-4.654,6.702C55.645,29.469,57.189,27.245,56.525,23.085z"/>
		<path fill-rule="evenodd" clip-rule="evenodd" d="M501.735,65.614c1.687,0,3.374,0,5.06,0c0.194,0.242,0.389,0.483,0.583,0.725
			c-1.468,0.867-2.895,2.306-4.417,2.417c-1.174,0.086-3.02-1.218-3.607-2.387c-1.751-3.487,2.422-9.625,6.286-9.452
			c0.971,0.043,2.419,0.595,2.728,1.311c0.342,0.791-0.027,2.469-0.693,3.004c-1.775,1.426-3.878,2.446-5.85,3.627
			C501.795,65.11,501.765,65.362,501.735,65.614z"/>
		<path fill-rule="evenodd" clip-rule="evenodd" d="M541.831,130.002c-0.53,4.266-0.889,7.371-1.332,10.463
			c-0.062,0.423-0.476,0.909-0.861,1.142c-0.384,0.232-0.952,0.292-1.417,0.237c-2.334-0.277-5.056,0.021-6.881-1.111
			c-1.865-1.157-0.063-7.384,2.658-8.739C536.232,130.882,538.929,130.697,541.831,130.002z M533.796,139.508
			c3.942-1.319,5.319-3.794,4.266-7.665C533.838,133.433,532.652,135.563,533.796,139.508z"/>
		<path fill-rule="evenodd" clip-rule="evenodd" d="M90.347,195.379c1.947,1.447,4.53,2.47,4.576,3.595
			c0.085,2.113-0.786,4.773-2.227,6.282c-1.183,1.24-3.754,1.32-5.744,1.475c-0.363,0.028-1.429-2.158-1.244-3.148
			c0.636-3.408,1.618-6.759,2.618-10.087c0.26-0.863,1.068-1.56,1.625-2.333c0.23,0.993,0.554,1.977,0.653,2.983
			C90.661,194.727,90.355,195.344,90.347,195.379z M87.736,205.8c1.369-0.451,2.609-0.479,2.95-1.048
			c0.823-1.37,1.331-2.966,1.716-4.533c0.086-0.353-0.849-0.956-1.313-1.444c-0.923,1.199-1.979,2.323-2.72,3.625
			C87.937,203.16,88.007,204.207,87.736,205.8z"/>
		<path fill-rule="evenodd" clip-rule="evenodd" d="M606.489,287.632c1.88-0.097,3.761-0.195,6.171-0.32
			c-1.564,2.794-3.769,3.791-6.432,3.046c-2.546-0.713-3.057-3.083-2.071-5.156c1.004-2.113,2.502-4.175,4.285-5.652
			c0.841-0.696,2.857,0.029,4.341,0.11c-0.38,1.546-0.297,3.546-1.255,4.521c-1.186,1.206-3.236,1.561-4.912,2.282
			C606.574,286.853,606.531,287.242,606.489,287.632z"/>
		<path fill-rule="evenodd" clip-rule="evenodd" d="M446.552,65.794c1.842-0.154,3.684-0.308,5.445-0.455
			c-1.291,2.828-3.354,3.953-5.867,2.911c-2.873-1.191-2.844-3.727-1.937-5.979c1.105-2.74,2.625-5.498,6.259-5.453
			c0.9,0.011,2.355,0.324,2.562,0.872c0.325,0.864,0.187,2.489-0.423,3.005c-1.808,1.531-3.939,2.678-5.944,3.974
			C446.615,65.046,446.583,65.42,446.552,65.794z"/>
		<path fill-rule="evenodd" clip-rule="evenodd" d="M621.421,139.841c2.022-0.178,4.045-0.356,6.449-0.568
			c-1.869,2.429-3.717,4.087-6.81,2.755c-3.011-1.296-2.685-3.806-1.48-5.925c1.093-1.924,2.743-3.718,4.563-4.96
			c0.84-0.574,2.67,0.305,4.051,0.525c-0.368,1.306-0.332,3.11-1.193,3.811c-1.632,1.328-3.778,2.021-5.712,2.978
			C621.333,138.918,621.377,139.379,621.421,139.841z"/>
		<path fill-rule="evenodd" clip-rule="evenodd" d="M121.374,435.822c-1.895,2.35-4.146,3.174-6.565,1.904
			c-2.39-1.255-2.292-3.502-1.376-5.877c1.023-2.653,2.592-4.613,5.529-4.874c1.074-0.095,2.209,0.506,3.316,0.789
			c-0.333,1.26-0.266,3.019-1.083,3.67c-1.568,1.251-3.637,1.873-5.699,3.783C117.287,435.402,119.077,435.587,121.374,435.822z"/>
		<path fill-rule="evenodd" clip-rule="evenodd" d="M576.958,287.195c1.684,0,3.368,0,5.075,0c-1.045,2.758-2.809,3.85-5.153,3.083
			c-2.582-0.845-3.086-3.028-2.268-5.118c0.78-1.992,2.035-4.118,3.703-5.332c1.143-0.83,4.249-0.902,4.897-0.074
			c1.441,1.836,0.046,3.819-1.865,4.874c-1.355,0.75-2.944,1.078-4.43,1.595C576.932,286.547,576.944,286.871,576.958,287.195z"/>
		<path fill-rule="evenodd" clip-rule="evenodd" d="M540.183,279.253c-0.34,3.22-0.649,6.189-0.978,9.155
			c-0.025,0.232-0.164,0.629-0.291,0.646c-2.666,0.371-5.354,0.96-7.993,0.796c-0.487-0.029-1.394-3.267-1.061-4.796
			C531.004,279.81,533.799,278.4,540.183,279.253z M531.681,287.728c1.603-0.423,2.866-0.386,3.161-0.901
			c0.984-1.725,1.671-3.63,2.326-5.517c0.074-0.215-1.113-1.119-1.149-1.086c-1.309,1.2-2.725,2.352-3.729,3.788
			C531.745,284.788,531.918,286.066,531.681,287.728z"/>
		<path fill-rule="evenodd" clip-rule="evenodd" d="M550.387,280.619c-4.854,2.006-5.552,6.338-8.715,9.138
			c-0.045-0.774-0.264-1.589-0.1-2.315c0.431-1.923,0.98-3.822,1.579-5.701c0.321-1.009,0.839-1.956,1.269-2.932
			c0.787,0.68,1.574,1.359,2.098,1.811c1.567-0.482,3.339-1.028,5.11-1.575c-0.012,1.981-0.007,3.962-0.042,5.943
			c-0.021,1.088,0.136,2.272-0.245,3.231c-0.309,0.777-1.302,1.281-1.991,1.907c-0.383-0.791-1.203-1.668-1.068-2.357
			C548.698,285.639,549.479,283.578,550.387,280.619z"/>
		<path fill-rule="evenodd" clip-rule="evenodd" d="M415.099,214.499c-6.945-2.982-8.344-2.365-8.848,3.226
			c1.336-0.246,2.575-0.474,4.294-0.791c-0.349,1.399-0.627,2.512-0.931,3.73c-4.254-2.604-5.116-1.709-5.633,5.625
			c-0.478,0.101-1.034,0.305-1.592,0.311c-0.457,0.005-0.914-0.226-1.286-0.329c1.043-4.596,2.013-9.052,3.109-13.477
			c0.137-0.552,0.913-1.293,1.446-1.34c2.462-0.215,4.954-0.368,7.407-0.175C413.63,211.323,414.08,212.819,415.099,214.499z"/>
		<path fill-rule="evenodd" clip-rule="evenodd" d="M56.294,428.106c0.183-0.11,1.12-1.102,2.093-1.138
			c0.856-0.031,2.531,1.054,2.5,1.563c-0.17,2.769-0.66,5.534-1.281,8.245c-0.13,0.566-1.277,0.9-2.984,2.011
			c0.396-2.454,0.584-3.922,0.88-5.366c0.283-1.383,0.68-2.742,1.027-4.112c-0.433-0.239-0.866-0.479-1.298-0.72
			c-2.221,3.14-4.442,6.277-6.664,9.416c-0.253-0.166-0.506-0.332-0.76-0.498c0.687-3.312,1.33-6.634,2.116-9.92
			c0.096-0.401,1.035-0.941,1.463-0.85C54.268,426.926,55.066,427.497,56.294,428.106z"/>
		<path fill-rule="evenodd" clip-rule="evenodd" d="M104.803,427.39c-0.344,3.108-0.649,6.104-1.037,9.089
			c-0.056,0.428-0.511,1.151-0.778,1.149c-2.723-0.013-5.497,0.091-8.117-0.479c-0.446-0.097-0.688-3.355-0.229-4.92
			c0.873-2.977,2.748-5.317,6.293-5.305C102.226,426.929,103.517,427.227,104.803,427.39z M97.759,436.223
			c0.458,0.044,0.915,0.088,1.372,0.132c0.952-2.074,2.013-4.109,2.757-6.255c0.14-0.402-0.987-1.244-1.53-1.882
			c-1.379,1.885-2.871,3.704-4.034,5.714C96.113,434.296,97.246,435.438,97.759,436.223z"/>
		<path fill-rule="evenodd" clip-rule="evenodd" d="M41.892,438.056c-2.631,0.224-4.109-1.275-4.306-3.879
			c-0.264-3.496,3.883-8.139,7.239-7.577c1.498,0.251,3.515,2.455,3.778,4.027C49.266,434.571,45.891,437.995,41.892,438.056z
			 M39.29,433.775c1.48,1.388,2.232,2.094,2.984,2.798c1.355-2.014,2.875-3.946,3.939-6.104c0.233-0.472-1.162-1.746-1.807-2.651
			C42.834,429.648,41.262,431.479,39.29,433.775z"/>
		<path fill-rule="evenodd" clip-rule="evenodd" d="M549.838,145.13c5.342-1.389,6.535-8.121,2.436-13.743
			c2.701-1.636,3.223-1.5,3.886,1.408c0.398,1.75,0.478,3.572,0.7,5.363c0.414,0.114,0.829,0.229,1.244,0.344
			c1.009-2.642,2.018-5.282,2.975-7.787c2.413,2.525-0.65,8.549-7.929,14.9c-0.74,0.646-2.06,0.627-3.109,0.917
			C549.973,146.064,549.905,145.597,549.838,145.13z"/>
		<path fill-rule="evenodd" clip-rule="evenodd" d="M318.694,391.123c-0.201,2.956-0.387,5.714-0.578,8.471
			c-0.008,0.121-0.035,0.322-0.102,0.346c-0.931,0.325-2.163,1.158-2.755,0.835c-2.083-1.142-6.785,3.206-6.421-2.93
			C309.144,392.69,312.509,390.357,318.694,391.123z M315.287,391.877c-2.851,1.18-4.033,3.308-3.876,6.153
			c0.017,0.315,1.619,1.002,1.931,0.77c2.09-1.554,3.507-3.511,2.482-6.341C315.785,392.354,315.661,392.277,315.287,391.877z"/>
		<path fill-rule="evenodd" clip-rule="evenodd" d="M86.214,29.012c1.459,0,2.918,0,4.902,0c-1.88,2.788-4.125,3.203-6.284,1.996
			c-2.319-1.297-2.022-3.755-0.683-5.532c1.25-1.658,3.044-3.034,4.865-4.062c0.62-0.349,2.64,0.498,2.95,1.244
			c0.321,0.772-0.358,2.463-1.133,3.076c-1.367,1.081-3.141,1.647-4.744,2.429C86.13,28.445,86.172,28.729,86.214,29.012z"/>
		<path fill-rule="evenodd" clip-rule="evenodd" d="M208.158,209.331c-0.29,3.683-0.5,6.355-0.741,9.43
			c4.121-2.113,4.392-7.525,7.953-9.559c0.365,0.354,0.729,0.709,1.094,1.064c-3.652,4.626-7.303,9.253-10.954,13.88
			c-0.275-0.092-0.549-0.185-0.824-0.277c0.207-4.362,0.338-8.729,0.724-13.074C205.453,210.309,206.939,209.952,208.158,209.331z"
			/>
		<path fill-rule="evenodd" clip-rule="evenodd" d="M272.577,8.595c0.627-1.951,1.255-3.903,2.249-6.993
			c0.621,1.488,1.417,2.479,1.349,3.407c-0.186,2.548-6.592,10.065-9.962,11.381c3.538-4.382,3.344-8.822,0.73-13.275
			c2.907-1.561,2.907-1.561,4.542,5.047C271.849,8.306,272.212,8.451,272.577,8.595z"/>
		<path fill-rule="evenodd" clip-rule="evenodd" d="M606.574,130.918c1.378,1.069,3.743,1.988,3.934,3.238
			c0.454,2.99-0.522,6.199-3.705,7.35c-1.677,0.607-4.363,0.506-5.708-0.482c-2.794-2.052-0.214-8.545,3.724-9.875
			c0.577-0.195,1.226-0.182,1.823-0.254c-1.447,2.493-2.986,4.923-4.214,7.501c-0.256,0.538,0.454,2.1,1.055,2.334
			c0.686,0.267,1.951-0.177,2.605-0.733C608.893,137.607,609.002,134.373,606.574,130.918z"/>
		<path fill-rule="evenodd" clip-rule="evenodd" d="M70.317,31.373c-2.525,0.157-3.68-1.072-3.626-3.559
			c0.069-3.222,3.369-6.852,6.301-6.723c2.321,0.102,3.622,1.373,3.588,3.829C76.528,28.622,73.843,31.408,70.317,31.373z
			 M73.276,22.321c-0.42-0.049-0.839-0.099-1.259-0.148c-0.979,1.86-2.114,3.665-2.822,5.624c-0.167,0.461,1.109,1.441,1.721,2.184
			c1.133-1.799,2.387-3.538,3.312-5.438C74.458,24.068,73.622,23.075,73.276,22.321z"/>
		<path fill-rule="evenodd" clip-rule="evenodd" d="M509.341,64.547c0.778,0.919,1.146,1.631,1.731,1.966
			c0.625,0.358,1.456,0.36,2.196,0.517c0.04-0.783,0.296-1.638,0.065-2.329c-0.263-0.789-1.278-1.379-1.401-2.147
			c-0.249-1.551-0.758-3.827,0.021-4.58c0.965-0.931,3.148-0.831,4.764-0.691c0.401,0.035,0.642,1.937,0.955,2.98
			c-0.33,0.127-0.66,0.253-0.99,0.38c-0.748-0.713-1.497-1.428-2.245-2.141c-0.37,0.175-0.742,0.35-1.112,0.525
			c0.634,1.243,1.513,2.426,1.837,3.745c0.383,1.558,0.883,3.575,0.209,4.749c-0.539,0.939-2.748,1.216-4.231,1.258
			C507.882,68.871,508.354,67.033,509.341,64.547z"/>
		<path fill-rule="evenodd" clip-rule="evenodd" d="M495.021,58.221c-3.066,1.188-5.075,3.299-4.102,6.469
			c0.274,0.891,3.377,0.912,5.376,1.376c-0.905,2.065-2.94,3.443-5.946,2.54c-2.877-0.865-2.514-3.324-2.029-5.57
			c0.726-3.361,2.924-5.406,6.214-6.083c0.962-0.198,2.244,0.188,3.081,0.751c0.429,0.29,0.305,1.569,0.209,2.375
			c-0.031,0.262-1.068,0.694-1.129,0.62C496.135,60.024,495.688,59.255,495.021,58.221z"/>
		<path fill-rule="evenodd" clip-rule="evenodd" d="M166.415,430.248c-0.766-0.658-1.531-1.317-2.297-1.976
			c-0.244,0.127-0.488,0.256-0.731,0.383c0.463,1.093,1.087,2.148,1.354,3.287c0.396,1.689,1.205,3.765,0.574,5.057
			c-0.488,0.998-2.899,1.346-4.49,1.453c-3.579,0.243-2.687-1.676-1.594-4.125c0.898,1.265,1.504,2.116,2.11,2.969
			c0.39,0.002,0.78,0.004,1.17,0.006c0.106-1.097,0.509-2.272,0.244-3.271c-0.337-1.274-1.576-2.357-1.742-3.613
			c-0.129-0.975,0.535-2.671,1.303-3.009c1.247-0.55,2.913-0.468,4.306-0.184c0.443,0.091,0.582,1.673,0.86,2.573
			C167.126,429.948,166.771,430.099,166.415,430.248z"/>
		<path fill-rule="evenodd" clip-rule="evenodd" d="M462.515,60.815c-0.278-0.966-0.557-1.933-0.947-3.289
			c-2.587,1.99-5.367,3.708-4.385,7.112c0.251,0.868,3.337,0.917,5.221,1.366c-0.87,2.254-3.022,3.342-5.796,2.143
			c-2.831-1.224-2.731-4.022-1.424-6.064c1.376-2.15,3.518-3.916,5.631-5.418c0.554-0.395,2.465,0.579,3.31,1.387
			c0.36,0.344-0.417,1.878-0.677,2.872C463.137,60.886,462.825,60.851,462.515,60.815z"/>
		<path fill-rule="evenodd" clip-rule="evenodd" d="M594.535,286.727c0.445,0.71,0.754,1.605,1.381,2.068
			c0.466,0.344,1.529,0.393,1.986,0.078c0.412-0.283,0.5-1.248,0.46-1.896c-0.024-0.408-0.712-0.744-0.822-1.184
			c-0.474-1.882-1.606-4.107-0.994-5.584c0.441-1.064,3.255-1.146,5.47-1.804c0,1.752,0,2.718,0,4.316
			c-1.383-0.969-2.26-1.583-3.136-2.197c-0.268,0.177-0.536,0.353-0.804,0.528c0.587,1.135,1.458,2.213,1.691,3.416
			c0.322,1.658,0.826,4.391,0.063,4.907c-1.4,0.948-3.676,0.756-5.571,0.676c-0.311-0.014-0.544-1.882-0.813-2.894
			C593.81,287.015,594.172,286.871,594.535,286.727z"/>
		<path fill-rule="evenodd" clip-rule="evenodd" d="M354.874,335.091c0,11.318,0,22.636,0,33.953
			c-0.254,0.006-0.509,0.012-0.763,0.018c0-11.318,0-22.637,0-33.956C354.365,335.101,354.62,335.096,354.874,335.091z"/>
		<path fill-rule="evenodd" clip-rule="evenodd" d="M653.983,281.475c0.618,1.152,1.529,2.244,1.78,3.472
			c0.332,1.627,0.813,4.298,0.043,4.842c-1.381,0.978-3.65,0.846-5.539,0.802c-0.283-0.007-0.52-2.05-0.777-3.151
			c0.321-0.089,0.641-0.179,0.962-0.269c0.484,0.638,0.854,1.458,1.49,1.854c0.486,0.304,1.523,0.331,1.917,0.003
			c0.37-0.31,0.301-1.249,0.262-1.901c-0.019-0.311-0.53-0.568-0.62-0.903c-0.476-1.771-1.772-4.127-1.09-5.195
			c0.795-1.242,3.344-1.362,5.971-2.254c-0.332,2.254-0.482,3.277-0.71,4.826c-1.103-1.167-1.818-1.924-2.533-2.681
			C654.754,281.104,654.368,281.289,653.983,281.475z"/>
		<path fill-rule="evenodd" clip-rule="evenodd" d="M557.437,281.184c0.761,1.189,1.926,2.301,2.178,3.59
			c0.292,1.501,0.249,4.226-0.467,4.536c-1.739,0.755-3.952,0.422-5.974,0.526c0-1.044,0-2.089,0-3.134
			c0.273-0.05,0.549-0.099,0.823-0.148c0.407,0.574,0.719,1.271,1.25,1.685c0.49,0.379,1.606,0.787,1.768,0.599
			c0.488-0.566,0.716-1.401,0.89-2.167c0.057-0.249-0.46-0.578-0.561-0.917c-0.554-1.857-1.861-4.024-1.318-5.499
			c0.405-1.098,3.226-1.306,5.487-2.089c0,1.754,0,2.709,0,4.088c-1.323-0.752-2.285-1.298-3.247-1.844
			C557.989,280.667,557.713,280.925,557.437,281.184z"/>
		<path fill-rule="evenodd" clip-rule="evenodd" d="M566.236,290.284c-0.909-4.069-1.648-7.378-2.405-10.764
			c2.856-1.116,3.121-0.76,4.24,6.502c0.331,0.118,0.66,0.235,0.991,0.354c0.53-1.755,1.087-3.503,1.579-5.27
			c0.177-0.635,0.123-1.341,0.348-1.951c0.046-0.124,1.133-0.13,1.285,0.105c0.371,0.573,0.764,1.376,0.643,1.985
			C572.12,285.229,569.384,287.731,566.236,290.284z"/>
		<path fill-rule="evenodd" clip-rule="evenodd" d="M541.924,142.617c0.197-2.306,0.288-3.372,0.38-4.441
			c0.453,0,0.74-0.09,0.871,0.015c1.035,0.826,2.041,1.689,3.056,2.541c-0.234-1.505-0.438-3.017-0.713-4.515
			c-0.258-1.402-1.116-2.967-0.724-4.127c0.301-0.887,2.102-1.65,3.304-1.768c2.444-0.24,3.492,0.859,1.993,3.483
			c-0.898-0.743-1.699-1.403-2.499-2.063c-0.239,0.107-0.477,0.216-0.716,0.324c0.222,0.797,0.485,1.585,0.659,2.392
			c0.442,2.072,1.793,4.709,0.994,6.068C547.76,141.834,544.75,141.823,541.924,142.617z"/>
		<path fill-rule="evenodd" clip-rule="evenodd" d="M340.477,209.917c1.415,0.143,2.422,0.245,3.384,0.342
			c-0.461,3.148-0.868,5.928-1.368,9.345c1.344-0.684,2.099-1.069,3.729-1.899c-2.221,3.037-3.9,5.332-5.579,7.628
			c-0.284-0.083-0.568-0.167-0.853-0.25c0.229-2.37,0.55-4.735,0.661-7.11C340.565,215.521,340.477,213.058,340.477,209.917z"/>
		<path fill-rule="evenodd" clip-rule="evenodd" d="M524.87,237.618c-1.336,0.913-2.625,1.794-3.914,2.676
			c-0.285-0.222-0.57-0.444-0.855-0.666c2.634-2.605,6.618-4.986,1.333-8.905c3.154,0,5.693,0,8.288,0
			c-2.035,2.452-2.01,2.448-1.258,7.616c0.074,0.504-0.296,1.424-0.672,1.559c-0.56,0.2-1.524,0.096-1.923-0.288
			C525.314,239.078,525.124,238.167,524.87,237.618z"/>
		<path fill-rule="evenodd" clip-rule="evenodd" d="M323.24,434.919c1.26-0.478,2.261-0.855,4.211-1.595
			c-1.403,3.212-3.34,3.943-5.557,3.325c-3.177-0.887-2.647-3.442-1.933-5.789c0.932-3.06,4.576-5.77,6.586-4.709
			c0.919,0.484,1.293,2.005,2.191,3.526c-2.454-0.465-4.275-1.369-4.959-0.831C321.899,430.328,321.287,432.488,323.24,434.919z"/>
		<path fill-rule="evenodd" clip-rule="evenodd" d="M635.065,286.978c-0.061-2.257-0.122-4.513-0.198-7.357
			c0.678,0.37,1.956,1.07,3.452,1.89c0.673-0.595,1.582-1.399,2.875-2.543c0.566,0.924,1.063,1.733,1.204,1.963
			c-1.621,1.376-3.524,2.229-3.858,3.498c-0.302,1.143,1.114,2.738,2.037,4.693c-1.685,2.453-2.042,2.44-3.963-0.754
			c-0.355-0.592-1.057-0.976-1.608-1.469C634.994,286.886,635.065,286.978,635.065,286.978z"/>
		<path fill-rule="evenodd" clip-rule="evenodd" d="M471.088,55.161c-0.395,1.187-0.917,2.349-1.156,3.567
			c-0.468,2.392-0.692,4.833-1.197,7.215c-0.19,0.896-0.707,1.939-1.412,2.422c-0.355,0.243-2.159-0.696-2.129-0.966
			c0.376-3.286,0.795-6.591,1.592-9.794c0.334-1.342,1.589-2.455,2.426-3.672C469.837,54.342,470.462,54.752,471.088,55.161z"/>
		<path fill-rule="evenodd" clip-rule="evenodd" d="M519.257,289.799c0.741-3.384,1.48-6.767,2.397-10.962
			c0.709,0.13,1.914,0.349,3.119,0.568c-0.069,0.22-0.139,0.439-0.209,0.659c1.053-0.369,2.105-0.738,3.157-1.106
			c0.185,0.558,0.663,1.48,0.501,1.612c-0.727,0.589-1.829,0.773-2.438,1.434c-1.223,1.323-2.298,2.805-3.269,4.327
			c-0.759,1.192-1.266,2.546-1.885,3.827C520.174,290.038,519.716,289.918,519.257,289.799z"/>
		<path fill-rule="evenodd" clip-rule="evenodd" d="M67.642,427.35c-1.54,4.586-2.768,9.311-4.735,13.706
			c-1.19,2.659-4.063,2.59-4.756,1.448c1.616-2.051,3.313-3.532,4.126-5.399c1.118-2.57,1.486-5.457,2.35-8.153
			c0.274-0.856,1.104-1.536,1.68-2.297C66.751,426.887,67.197,427.118,67.642,427.35z"/>
		<path fill-rule="evenodd" clip-rule="evenodd" d="M476.743,58.532c0.882-0.57,1.765-1.141,2.647-1.712
			c0.356,0.296,0.712,0.591,1.068,0.887c-0.688,0.824-1.382,1.643-2.063,2.472c-1.242,1.511-2.572,2.962-3.685,4.563
			c-0.849,1.22-1.417,2.634-2.109,3.962c-0.355-0.184-0.71-0.367-1.064-0.551c0.589-3.447,1.095-6.915,1.893-10.313
			c0.08-0.338,1.933-0.26,2.964-0.375C476.51,57.822,476.626,58.177,476.743,58.532z"/>
		<path fill-rule="evenodd" clip-rule="evenodd" d="M584.396,289.924c0.799-3.469,1.562-6.947,2.52-10.371
			c0.039-0.143,1.896,0.223,2.906,0.351c-0.01,0.314-0.02,0.629-0.029,0.944c0.887-0.664,1.773-1.328,2.953-2.212
			c0.691,2.131,1.56,3.474-1.597,3.691c-1.153,0.079-2.299,2.229-3.189,3.602c-0.888,1.369-1.45,2.949-2.156,4.437
			C585.334,290.218,584.865,290.07,584.396,289.924z"/>
		<path fill-rule="evenodd" clip-rule="evenodd" d="M434.112,68.083c-0.048-0.746-0.274-1.534-0.11-2.229
			c0.604-2.537,1.255-5.072,2.08-7.543c0.217-0.65,1.123-1.07,1.713-1.596c0.437,0.502,0.871,1.004,1.398,1.613
			c0.692-0.466,1.612-1.086,3.511-2.363c-0.328,2.003-0.494,3.903-0.659,3.903c-4.763,0-4.438,4.231-5.927,6.924
			c-0.282,0.512-0.679,0.961-1.022,1.439C434.768,68.182,434.44,68.133,434.112,68.083z"/>
		<path fill-rule="evenodd" clip-rule="evenodd" d="M111.726,424.715c-0.356,1.396-0.793,2.776-1.05,4.189
			c-0.417,2.296-0.636,4.629-1.11,6.911c-0.164,0.789-0.717,1.927-1.309,2.082c-0.625,0.164-2.206-0.73-2.172-1.027
			c0.358-3.161,0.743-6.353,1.586-9.407c0.343-1.242,1.823-2.171,2.786-3.242C110.879,424.385,111.303,424.55,111.726,424.715z"/>
		<path fill-rule="evenodd" clip-rule="evenodd" d="M617.725,128.609c-1.061,4.022-2.119,8.044-3.18,12.066
			c0.366,0.271,0.733,0.542,1.101,0.812c-0.969,0.15-2.098,0.659-2.851,0.323c-0.496-0.22-0.739-1.711-0.59-2.542
			c0.504-2.803,1.059-5.624,1.961-8.316c0.372-1.109,1.674-1.908,2.554-2.848C617.055,128.272,617.39,128.441,617.725,128.609z"/>
		<path fill-rule="evenodd" clip-rule="evenodd" d="M597.491,141.028c-1.481,0.314-2.665,0.565-3.85,0.817
			c-0.06-1.181-0.329-2.397-0.138-3.535c0.407-2.426,0.87-4.875,1.681-7.184c0.402-1.146,1.626-2.003,2.831-3.402
			C600.062,132.595,593.585,136.175,597.491,141.028z"/>
		<path fill-rule="evenodd" clip-rule="evenodd" d="M82.761,19.222c-0.267,1.281-0.601,2.553-0.786,3.846
			c-0.291,2.032-0.34,4.109-0.78,6.104c-0.183,0.83-1.108,1.496-1.695,2.236c-0.622-0.662-1.879-1.476-1.763-1.959
			c0.862-3.584,1.999-7.103,3.048-10.642C81.444,18.944,82.103,19.083,82.761,19.222z"/>
		<path fill-rule="evenodd" clip-rule="evenodd" d="M62.776,30.857c0.05-0.003-1.018,0.057-2.087,0.118
			c-0.032-0.912-0.297-1.892-0.056-2.724c0.943-3.255,2.046-6.464,3.089-9.69c0.592,0.165,1.184,0.33,1.775,0.494
			C64.661,22.686,63.823,26.315,62.776,30.857z"/>
		<path fill-rule="evenodd" clip-rule="evenodd" d="M485.641,56.974c0,3.536,0.155,6.608-0.11,9.644
			c-0.066,0.755-1.444,1.479-2.35,1.99c-0.146,0.082-1.478-1.123-1.396-1.583c0.565-3.229,1.307-6.433,2.153-9.602
			C484.022,57.108,485.191,57.082,485.641,56.974z"/>
		<path fill-rule="evenodd" clip-rule="evenodd" d="M432.271,56.7c-0.184,3.426-0.18,6.566-0.624,9.64
			c-0.126,0.866-1.565,1.542-2.403,2.305c-0.363-0.23-0.727-0.46-1.09-0.69c0.623-3.576,1.189-7.164,1.963-10.707
			C430.189,56.914,431.568,56.865,432.271,56.7z"/>
		<path fill-rule="evenodd" clip-rule="evenodd" d="M74.222,435.772c-1.198,0.686-2.396,1.371-3.595,2.058
			c-0.105-1.231-0.406-2.484-0.274-3.689c0.226-2.063,0.723-4.096,1.255-6.94c0.027,0,1.242-0.347,1.898,0.11
			c0.517,0.359,0.57,1.747,0.425,2.61c-0.225,1.328-1.028,2.581-1.122,3.899c-0.045,0.642,0.96,1.357,1.49,2.04L74.222,435.772z"/>
		<path fill-rule="evenodd" clip-rule="evenodd" d="M74.298,435.86c1.224-2.692,2.409-5.403,3.711-8.059
			c0.2-0.408,0.936-0.554,1.424-0.822c0.214,0.605,0.676,1.244,0.599,1.81c-0.343,2.519-0.684,5.063-1.394,7.489
			c-0.173,0.592-1.749,1.054-2.672,1.042c-0.587-0.007-1.163-0.997-1.744-1.548L74.298,435.86z"/>
		<path fill-rule="evenodd" clip-rule="evenodd" d="M644.037,290.497c0.712-3.53,1.387-7.068,2.198-10.575
			c0.074-0.323,1.092-0.704,1.545-0.583c0.404,0.106,0.938,0.903,0.892,1.342c-0.3,2.893-0.619,5.798-1.227,8.636
			c-0.148,0.697-1.389,1.162-2.128,1.733C644.891,290.865,644.464,290.681,644.037,290.497z"/>
		<path fill-rule="evenodd" clip-rule="evenodd" d="M153.18,438.696c0.441-6.694,2.417-11.386,4.276-11.437
			c-0.267,3.17-0.382,6.378-0.924,9.512C156.416,437.439,154.746,437.839,153.18,438.696z"/>
		<path fill-rule="evenodd" clip-rule="evenodd" d="M386.966,381.026c0,7.678,0,15.354,0,23.032
			c-0.257,0.001-0.514,0.002-0.771,0.004c0-7.667,0-15.334,0-23.001C386.452,381.05,386.709,381.038,386.966,381.026z"/>
		<path fill-rule="evenodd" clip-rule="evenodd" d="M387.015,339.015c0,9.451,0,18.903,0,28.354
			c-0.237,0.003-0.475,0.005-0.712,0.007c0-9.422,0-18.845,0-28.268C386.54,339.077,386.777,339.046,387.015,339.015z"/>
		<path fill-rule="evenodd" clip-rule="evenodd" d="M354.765,377.562c0,4.73,0,9.46,0,14.189c-0.274,0-0.549-0.001-0.823-0.002
			c0-4.735,0-9.471,0-14.207C354.216,377.549,354.49,377.556,354.765,377.562z"/>
		<path fill-rule="evenodd" clip-rule="evenodd" d="M386.174,256.746c0-5.964,0-11.929,0-17.894c0.227,0.001,0.453,0.001,0.68,0.001
			c0,5.964,0,11.928,0,17.893C386.627,256.746,386.4,256.746,386.174,256.746z"/>
		<path fill-rule="evenodd" clip-rule="evenodd" fill="#FFFFFF" d="M224.275,81.321c5.818,1.925,11.13,3.683,16.442,5.441
			c0.136-0.221,0.272-0.442,0.408-0.664c-0.953-1.296-1.906-2.593-2.998-4.08c10.924,0,21.51,0.058,32.093-0.041
			c2.535-0.024,3.424,0.673,3.42,3.386c-0.057,36.561-0.002,73.123,0.049,109.684c0.012,8.737,0.138,17.475,0.157,26.212
			c0.003,1.416-0.281,2.832-0.524,5.104c-4.425-3.672-8.231-6.742-11.94-9.927c-8.863-7.612-17.67-15.288-26.52-22.915
			c-2.546-2.194-5.147-4.323-7.746-6.454c-2.138-1.753-3.258-3.733-3.013-6.742c0.353-4.342,0.04-8.734,0.166-13.1
			c0.038-1.281,0.587-2.549,0.928-3.816c0.154-0.575,0.695-1.291,0.508-1.676c-3.219-6.657-1.237-13.726-1.415-20.547
			c-0.487-18.692-0.292-37.402-0.349-56.105C223.938,84.102,224.109,83.121,224.275,81.321z"/>
		<path fill-rule="evenodd" clip-rule="evenodd" fill="#FFFFFF" d="M321.858,162.435c0.533,1.653,1.491,3.341,1.555,5.063
			c0.225,5.981,0.195,11.974,0.115,17.96c-0.013,0.968-0.525,2.215-1.238,2.844c-5.975,5.265-12.021,10.452-18.104,15.592
			c-7.795,6.588-15.619,13.145-23.508,19.62c-0.886,0.728-2.804,1.503-3.32,1.093c-0.966-0.766-1.751-2.385-1.752-3.65
			c-0.013-15.579,0.051-31.159,0.285-46.736c0.061-4.007,2.092-8.465,0.884-11.894c-1.702-4.832-1.029-9.437-1.073-14.074
			c-0.202-21.183-0.063-42.369-0.035-63.554c0.001-0.725,0.119-1.448,0.202-2.398c15.694,0,31.245,0,47.474,0
			c0,3.809-0.004,7.483,0,11.159c0.023,21.231,0.084,42.463,0.007,63.694C323.344,158.881,322.398,160.605,321.858,162.435z"/>
		<path fill-rule="evenodd" clip-rule="evenodd" fill="#FFFFFF" d="M323.442,353.337c-5.458-1.812-10.443-3.464-15.429-5.118
			c-0.121,0.209-0.242,0.418-0.364,0.627c0.977,1.162,1.955,2.325,3.358,3.993c-7.665,0-14.768,0-22.587,0
			c1.096-1.612,1.987-2.923,3.482-5.12c-5.886,1.927-10.989,3.597-16.515,5.404c0-10.637-0.008-20.478,0.002-30.318
			c0.016-14.724,0.06-29.448,0.066-44.172c0.006-13.974-0.041-27.948,0.007-41.923c0.004-0.995,0.427-2.698,0.958-2.828
			c0.979-0.239,2.452,0.128,3.251,0.799c6.017,5.043,11.87,10.281,17.871,15.344c7.976,6.729,16.104,13.282,23.998,20.104
			c1.205,1.041,2.126,3.128,2.129,4.733c0.032,21.668-0.125,43.338-0.226,65.007C323.425,344.081,323.442,348.292,323.442,353.337z
			 M297.061,328.614c-1.395,5.503-2.651,10.453-3.917,15.439c7.586,0.499,11.687-0.877,13.647-4.807
			c1.325-2.654,1.656-5.462-0.218-8.128C304.018,327.48,300.457,328.128,297.061,328.614z"/>
		<path fill-rule="evenodd" clip-rule="evenodd" fill="#FFFFFF" d="M272.385,230.656c-16.255,13.63-31.827,26.688-48.069,40.309
			c0-14.086,0-27.012,0-40.309C240.059,230.656,255.6,230.656,272.385,230.656z"/>
		<path fill-rule="evenodd" clip-rule="evenodd" fill="#FFFFFF" d="M224.298,187.779c15.983,13.587,31.411,26.702,47.143,40.077
			c-0.8,0.327-1.211,0.644-1.621,0.641c-13.734-0.095-27.468-0.317-41.202-0.274c-3.323,0.01-4.493-0.762-4.416-4.35
			C224.456,212.148,224.298,200.415,224.298,187.779z"/>
		<path fill-rule="evenodd" clip-rule="evenodd" fill="#FFFFFF" d="M323.553,230.771c0,12.649,0,25.011,0,38.146
			c-15.004-12.711-29.476-24.97-43.948-37.23c0.131-0.305,0.263-0.61,0.394-0.915C294.323,230.771,308.647,230.771,323.553,230.771z
			"/>
		<path fill-rule="evenodd" clip-rule="evenodd" fill="#FFFFFF" d="M323.525,190.625c0,13.091,0,25.147,0,37.498
			c-14.429,0-28.65,0-42.871,0c-0.165-0.295-0.329-0.59-0.494-0.885C294.35,215.258,308.539,203.278,323.525,190.625z"/>
		<path fill-rule="evenodd" clip-rule="evenodd" fill="#FFFFFF" d="M6.193,29.108c0-0.791-0.245-1.573,0.042-1.942
			c1.217-1.57,2.592-3.017,3.909-4.509c0.336,0.581,1.069,1.274,0.941,1.724C10.418,26.732,9.686,29.179,6.193,29.108z"/>
		<path fill-rule="evenodd" clip-rule="evenodd" fill="#FFFFFF" d="M132.468,435.896c-0.558-2.868,0.577-5.248,2.794-7.189
			c0.416-0.363,1.54-0.435,1.969-0.127c0.468,0.336,0.893,1.472,0.666,1.907c-1.124,2.15-2.471,4.184-3.739,6.259
			C133.595,436.463,133.032,436.18,132.468,435.896z"/>
		<path fill-rule="evenodd" clip-rule="evenodd" fill="#FFFFFF" d="M90.338,429.956c-1.701,1.335-2.667,2.384-3.863,2.878
			c-0.425,0.176-1.406-0.992-2.133-1.547c1.035-1.094,1.993-2.287,3.173-3.189C87.731,427.933,88.856,428.957,90.338,429.956z"/>
		<path fill-rule="evenodd" clip-rule="evenodd" fill="#FFFFFF" d="M88.775,440.55c-1.56,1.631-3.419,1.969-5.377,0.546
			c-0.47-0.342-0.391-1.438-0.564-2.188c1.959,0,3.918,0,5.877,0C88.732,439.456,88.754,440.003,88.775,440.55z"/>
		<path fill-rule="evenodd" clip-rule="evenodd" fill="#FFFFFF" d="M417.422,64.921c1.315-2.523,2.631-5.045,4.019-7.71
			c3.6,3.021,2.159,6.445-2.796,8.375C418.236,65.365,417.829,65.144,417.422,64.921z"/>
		<path fill-rule="evenodd" clip-rule="evenodd" fill="#FFFFFF" d="M589.188,132.934c0.245,5.016-1.334,7.357-5.18,7.967
			C582.781,136.299,584.807,133.032,589.188,132.934z"/>
		<path fill-rule="evenodd" clip-rule="evenodd" fill="#FFFFFF" d="M628.277,280.884c1.19,4.177-0.965,6.124-4.083,7.615
			C622.506,285.055,624.064,282.006,628.277,280.884z"/>
		<path fill-rule="evenodd" clip-rule="evenodd" fill="#FFFFFF" d="M56.525,23.085c0.664,4.16-0.881,6.384-4.654,6.702
			C51.461,25.26,52.899,23.189,56.525,23.085z"/>
		<path fill-rule="evenodd" clip-rule="evenodd" fill="#FFFFFF" d="M533.796,139.508c-1.144-3.945,0.042-6.075,4.266-7.665
			C539.115,135.714,537.738,138.188,533.796,139.508z"/>
		<path fill-rule="evenodd" clip-rule="evenodd" fill="#FFFFFF" d="M87.736,205.8c0.271-1.594,0.2-2.641,0.633-3.4
			c0.741-1.302,1.796-2.426,2.72-3.625c0.464,0.488,1.399,1.091,1.313,1.444c-0.385,1.567-0.893,3.164-1.716,4.533
			C90.345,205.321,89.105,205.349,87.736,205.8z"/>
		<path fill-rule="evenodd" clip-rule="evenodd" fill="#FFFFFF" d="M531.681,287.728c0.237-1.661,0.064-2.939,0.608-3.716
			c1.005-1.437,2.421-2.588,3.729-3.788c0.036-0.033,1.224,0.871,1.149,1.086c-0.655,1.887-1.342,3.792-2.326,5.517
			C534.547,287.342,533.283,287.305,531.681,287.728z"/>
		<path fill-rule="evenodd" clip-rule="evenodd" fill="#FFFFFF" d="M97.759,436.223c-0.513-0.784-1.646-1.927-1.435-2.291
			c1.163-2.01,2.655-3.829,4.034-5.714c0.543,0.638,1.67,1.479,1.53,1.882c-0.744,2.146-1.805,4.181-2.757,6.255
			C98.673,436.311,98.216,436.267,97.759,436.223z"/>
		<path fill-rule="evenodd" clip-rule="evenodd" fill="#FFFFFF" d="M39.29,433.775c1.972-2.296,3.544-4.127,5.116-5.958
			c0.645,0.905,2.04,2.18,1.807,2.651c-1.063,2.158-2.583,4.091-3.939,6.104C41.522,435.869,40.771,435.163,39.29,433.775z"/>
		<path fill-rule="evenodd" clip-rule="evenodd" fill="#FFFFFF" d="M315.287,391.877c0.374,0.4,0.498,0.477,0.536,0.582
			c1.025,2.83-0.392,4.787-2.482,6.341c-0.312,0.232-1.914-0.454-1.931-0.77C311.254,395.185,312.436,393.057,315.287,391.877z"/>
		<path fill-rule="evenodd" clip-rule="evenodd" fill="#FFFFFF" d="M606.574,130.918c2.428,3.455,2.318,6.689-0.486,9.079
			c-0.654,0.557-1.92,1-2.605,0.733c-0.601-0.234-1.311-1.796-1.055-2.334c1.228-2.579,2.767-5.008,4.214-7.501
			C606.659,130.884,606.574,130.918,606.574,130.918z"/>
		<path fill-rule="evenodd" clip-rule="evenodd" fill="#FFFFFF" d="M73.276,22.321c0.346,0.754,1.182,1.747,0.951,2.221
			c-0.924,1.9-2.179,3.639-3.312,5.438c-0.612-0.742-1.887-1.723-1.721-2.184c0.708-1.959,1.843-3.763,2.822-5.624
			C72.437,22.223,72.856,22.272,73.276,22.321z"/>
		<path fill-rule="evenodd" clip-rule="evenodd" d="M297.061,328.614c3.396-0.486,6.957-1.134,9.513,2.505
			c1.874,2.666,1.543,5.474,0.218,8.128c-1.961,3.93-6.062,5.306-13.647,4.807C294.41,339.067,295.666,334.117,297.061,328.614z
			 M296.196,342.053c6.638,0.456,10.547-3.773,8.659-8.79c-0.481-1.278-2.344-2.243-3.784-2.821
			c-0.401-0.16-1.943,1.447-2.306,2.476C297.754,335.79,297.087,338.785,296.196,342.053z"/>
		<path fill-rule="evenodd" clip-rule="evenodd" fill="#FFFFFF" d="M296.196,342.053c0.891-3.268,1.558-6.263,2.569-9.136
			c0.362-1.028,1.905-2.636,2.306-2.476c1.44,0.578,3.303,1.543,3.784,2.821C306.744,338.279,302.834,342.509,296.196,342.053z"/>
	</g>
</g>
</svg>
