<?xml version="1.0" encoding="utf-8"?>
<!-- Generator: Adobe Illustrator 16.0.0, SVG Export Plug-In . SVG Version: 6.00 Build 0)  -->
<!DOCTYPE svg PUBLIC "-//W3C//DTD SVG 1.1//EN" "http://www.w3.org/Graphics/SVG/1.1/DTD/svg11.dtd">
<svg version="1.1" id="Layer_1" xmlns="http://www.w3.org/2000/svg" xmlns:xlink="http://www.w3.org/1999/xlink" x="0px" y="0px"
	 width="575.33px" height="498.319px" viewBox="0 0 575.33 498.319" enable-background="new 0 0 575.33 498.319"
	 xml:space="preserve">
<g>
	<g>
		<path fill-rule="evenodd" clip-rule="evenodd" fill="#FFFFFF" d="M576.08,499.069c-191.776,0-383.553,0-575.33,0
			c0-165.773,0-331.546,0-497.319c191.777,0,383.554,0,575.33,0C576.08,167.523,576.08,333.296,576.08,499.069z M476.428,332.206
			c4.346-0.774,7.831-1.651,11.363-1.917c1.809-0.137,3.69,1.166,5.557,1.222c7.743,0.231,15.493,0.208,23.241,0.338
			c2.857,0.047,5.71,0.304,8.568,0.372c1.251,0.029,2.629,0.094,3.709-0.393c0.473-0.212,0.752-2.359,0.408-2.596
			c-0.984-0.679-2.332-1.136-3.538-1.141c-17.116-0.067-34.233-0.114-51.349,0.004c-4.072,0.027-7.189-1.947-10.17-4.108
			c-4.631-3.359-8.782-7.407-13.54-10.551c-3.805-2.515-7.229-5.412-10.773-8.217c-1.927-1.523-4.283-2.491-6.322-3.89
			c-1.335-0.915-2.333-2.328-3.682-3.216c-5.62-3.702-11.425-7.135-16.955-10.965c-5.294-3.667-10.328-7.71-15.485-11.574
			c-3.753-2.812-7.466-5.679-11.295-8.382c-4.645-3.278-9.386-6.421-14.101-9.599c-1.482-0.999-3.093-1.82-4.513-2.896
			c-6.244-4.738-12.333-9.688-18.685-14.276c-6.191-4.474-12.703-8.503-18.945-12.91c-6.01-4.243-11.847-8.731-17.774-13.092
			c-4.898-3.604-9.761-7.261-14.745-10.742c-4.248-2.966-8.803-5.509-12.924-8.632c-2.962-2.245-6.053-4.417-5.045-9.43
			c0.896-4.456,0.403-9.203,0.415-13.822c0.055-23.592,0.081-47.184,0.102-70.776c0.007-8.195,0.032-16.39-0.142-24.581
			c-0.021-0.945-1.27-1.864-1.95-2.794c-0.744,0.946-1.636,1.816-2.173,2.869c-0.296,0.581,0.026,1.466,0.031,2.215
			c0.045,6.734,0.131,13.469,0.113,20.203c-0.063,22.602-0.17,45.204-0.248,67.807c-0.023,6.701-0.004,13.403-0.004,20.361
			c-0.976-0.147-1.969-0.016-2.586-0.437c-3.78-2.577-7.516-5.223-11.185-7.956c-3.125-2.328-6.369-4.57-9.132-7.286
			c-2.422-2.38-4.747-3.882-8.086-2.816c-1.183,3.033,1.051,3.811,2.858,4.853c1.146,0.659,2.342,1.243,3.437,1.978
			c6.521,4.374,13.134,8.626,19.474,13.252c2.66,1.941,5.477,4.012,5.313,8.222c-0.324,8.355-0.268,16.725-0.343,25.088
			c-0.166,18.735-0.375,37.47-0.456,56.206c-0.063,14.727-0.002,29.454,0.107,44.181c0.021,2.887-1.069,4.187-3.951,3.951
			c-4.706-0.384-9.408-0.979-14.122-1.083c-8.871-0.197-17.748-0.112-26.621-0.135c-4.838-0.013-9.677-0.002-14.713-0.002
			c0.172-1.626,0.11-2.785,0.435-3.823c1.728-5.521,3.415-11.063,5.398-16.493c1.112-3.043,2.826-5.861,4.134-8.84
			c0.232-0.527-0.136-1.909-0.333-1.931c-0.868-0.096-2.116-0.163-2.608,0.352c-2.059,2.149-3.896,4.514-6.521,7.643
			c0-27.483,0-53.907,0-80.489c4.651,1.06,4.344,8.156,9.477,6.905c-3.746-12.034-7.428-23.863-10.743-34.514
			c-3.595,10.973-7.579,23.129-11.562,35.285c0.492,0.268,0.983,0.537,1.475,0.805c2.333-2.818,4.665-5.636,7.71-9.314
			c0,27.264,0,53.313,0,80.615c-3.591-3.163-6.314-5.563-9.038-7.961c-0.315,0.215-0.631,0.429-0.946,0.644
			c3.465,10.177,6.931,20.354,10.678,31.357c-32.52,0-63.867,0-95.214,0c-0.048,0.396-0.096,0.792-0.143,1.188
			c2.049,0.495,4.088,1.365,6.148,1.419c7.37,0.189,14.745,0.115,22.119,0.116c41.741,0.004,83.482,0.038,125.223-0.072
			c3.329-0.009,4.062,1.265,3.936,4.188c-0.345,7.969-0.679,15.943-0.754,23.918c-0.125,13.29,0.017,26.582-0.064,39.872
			c-0.175,28.719-0.44,57.438-0.551,86.157c-0.004,0.94,1.266,1.885,1.942,2.828c0.582-1.023,1.665-2.043,1.671-3.07
			c0.142-21.973,0.168-43.947,0.208-65.921c0.014-7.955,0.002-15.909,0.002-24.248c11.269,1.358,21.239,5.317,31.326,10.198
			c1.054-5.852-5.91-5.684-6.381-9.781c45.513,0.523,90.85,1.046,136.526,1.572c-2.849,3.05-5.459,5.846-8.219,8.8
			c0.678,0.257,1.102,0.577,1.304,0.472c4.807-2.504,11.108-1.115,15.104-5.812c0.461-0.542,1.477-0.692,2.271-0.856
			c5.425-1.126,10.858-2.208,16.781-3.402c-2.198-3.818,0.813-8.211-1.488-11.708c-0.458,0.055-0.916,0.109-1.374,0.164
			c0.142,2.648,0.283,5.297,0.438,8.204c-11.208-0.868-21.46-4.363-31.186-9.922c-2.285,6.285,5.058,5.827,6.253,9.88
			c-45.614-0.64-90.678-1.271-136.364-1.912c2.513-2.738,4.683-5.104,7.159-7.805c-0.487-0.248-1.495-1.197-2.059-0.981
			c-6.104,2.332-12.051,5.106-18.227,7.214c-3.645,1.243-7.623,1.507-11.806,2.275c0-1.899-0.042-2.765,0.006-3.625
			c0.408-7.281,1.078-14.558,1.193-21.845c0.164-10.225-0.056-20.455-0.168-30.683c-0.032-2.929,1.024-4.278,4.196-4.111
			c10.691,0.563,21.389,1.186,32.092,1.325c18.11,0.236,36.227,0.13,54.34,0.153c31.746,0.041,63.492,0.067,95.237,0.12
			c1.236,0.001,2.846-0.259,3.646,0.388c3.81,3.085,7.215,6.686,11.118,9.635c4.252,3.213,8.88,5.933,13.372,8.822
			c2.386,1.534,4.916,2.855,7.226,4.491c2.112,1.496,3.962,3.357,6.031,4.92c1.233,0.932,2.771,1.464,3.989,2.411
			c4.095,3.182,7.947,6.696,12.188,9.658c5.809,4.056,11.896,7.71,17.84,11.573c0.493,0.32,0.762,0.97,1.207,1.391
			c1.244,1.177,2.442,2.427,3.813,3.441c2.525,1.868,5.204,3.529,7.735,5.388c2.299,1.689,4.272,4.189,8.245,2.288
			c-0.825-1.54-1.232-3.646-2.425-4.283c-4.408-2.356-8.504-4.897-12.253-8.355c-3.764-3.472-8.484-5.922-12.86-8.703
			c-1.88-1.196-4.175-1.813-5.883-3.188c-4.006-3.225-7.771-6.751-11.636-10.15c-3.277-2.883-7.636-3.964-10.652-7.664
			c-2.617-3.21-7.063-4.919-10.679-7.327C488.81,340.523,483.012,336.62,476.428,332.206z M161.578,293.237
			c4.3,0.668,6.86,0.535,6.465-4.172c-0.113-1.345,0.187-3.94,3.052-3.799c2.368,0.116,4.305-0.253,6.522-1.989
			c3.984-3.118,6.888-7.655,6.356-12.652c-0.279-2.627-1.487-4.223-4.251-4.063c-3.488,0.201-6.962,0.781-10.46,0.067
			c-0.272-0.056-0.628,0.298-0.944,0.46C169.605,276.593,163.384,284.265,161.578,293.237z M280.166,45.611
			c2.75-3.149,5.261-5.966,7.706-8.839c2.521-2.96,5.277-5.782,7.361-9.029c1.478-2.303,2.41-5.158,2.784-7.876
			c0.175-1.272-1.547-2.805-2.409-4.221c-0.549,1.473-1.623,2.974-1.544,4.411c0.221,3.96-1.888,7.922-5.874,9.748
			c-0.057-0.904-0.091-1.744-0.167-2.581c-0.271-2.977-0.324-6.003-0.955-8.903c-0.243-1.115-1.774-2.669-2.795-2.73
			c-1.563-0.094-3.246,0.828-4.749,1.578c-0.281,0.141-0.163,2.102,0.119,2.198c3.949,1.342,2.578,4.843,3.231,7.525
			c1.328,5.449,1.125,10.478-3.584,14.409c-0.77,0.644-1.525,1.303-2.524,2.158C277.988,44.234,278.908,44.815,280.166,45.611z
			 M231.09,248.56c-0.341,3.187-0.378,5.903-0.965,8.494c-1.01,4.466-2.304,8.872-3.589,13.271c-1.131,3.871,0.01,5.636,4.003,5.984
			c8.865,0.773,13.514-6.846,13.117-14.063c-0.046-0.829-0.704-2.077-1.384-2.34c-2.5-0.964-5.128-1.595-7.89-2.404
			c0.594-2.664,1.269-5.693,1.993-8.941C234.048,248.56,232.476,248.56,231.09,248.56z M432.419,442.759
			c0-1.88,0.028-3.483-0.006-5.084c-0.052-2.343,0.956-3.484,3.384-3.114c7.155,1.09,12.127-4.651,12.806-11.656
			c0.164-1.699-1.011-4.125-2.372-5.2c-1.265-0.997-3.596-0.744-5.467-0.837c-1.389-0.069-2.904,0.573-4.168,0.214
			c-2.154-0.613-3.446-0.096-3.864,2.01c-0.576,2.896-0.868,5.846-1.406,8.749c-0.313,1.683-0.727,3.375-1.349,4.964
			c-1.251,3.2-2.675,6.333-4.226,9.955C428.464,442.759,430.287,442.759,432.419,442.759z M390.199,363.207
			c-2.173,0-3.776,0.057-5.375-0.01c-8.218-0.341-10.293,1.046-12.723,8.577c-1.997,6.193,0.208,9.045,6.396,8.003
			c1.926-0.324,3.581-0.458,5.584,0.059c3.636,0.937,6.092-1.506,4.473-4.243c-1.326-2.241-0.916-3.674,0.021-5.711
			C389.425,368.036,389.586,365.873,390.199,363.207z M78.089,282.752c1.492,0.274,2.158,0.609,2.671,0.451
			c1.523-0.47,3.312-0.789,4.396-1.807c1.531-1.438,0.427-2.536-1.219-3.244c-0.2-0.087-0.037-1.345,0.175-1.988
			c0.501-1.523,1.474-2.971,1.618-4.509c0.151-1.621-0.039-3.564-0.866-4.868c-0.433-0.68-2.596-0.533-3.902-0.313
			c-1.352,0.229-2.613,0.995-4.02,1.569c-0.306-0.452-0.492-1.074-0.857-1.208c-1.266-0.46-2.595-0.751-3.899-1.105
			c-0.284,1.12-0.602,2.232-0.841,3.361c-0.179,0.845-0.182,1.73-0.393,2.565c-0.928,3.676-1.902,7.34-2.86,11.008
			c0.282,0.313,0.563,0.627,0.845,0.94c1.119-0.823,2.553-1.431,3.297-2.513c2.191-3.184,3.974-6.652,6.218-9.793
			c0.634-0.889,2.308-1.032,3.505-1.518c0.229,0.289,0.457,0.578,0.685,0.867c-0.778,1.872-1.608,3.726-2.322,5.622
			C79.57,278.259,78.931,280.29,78.089,282.752z M526.477,313.683c0.257,0.487,0.513,0.974,0.771,1.46
			c2.04-0.817,4.37-1.26,6.043-2.552c1.859-1.437,2.387-1.185,3.976,0.452c1.166,1.202,3.832,1.548,5.677,1.267
			c1.113-0.17,1.934-2.268,2.886-3.498c-0.285-0.294-0.57-0.588-0.855-0.881c-1.349,0.257-2.697,0.514-4.428,0.845
			c-0.245-1.358-0.55-2.886-0.792-4.424c-0.625-3.957,1.342-6.408,5.15-6.873c0.928-0.113,1.737-1.188,2.603-1.821
			c-0.271-0.537-0.54-1.074-0.81-1.612c-2.23,0.581-4.446,1.239-6.701,1.705c-0.856,0.177-2.236,0.276-2.642-0.207
			c-2.739-3.267-5.272-1.528-8.133-0.216c1.509,0.768,3.127,1.063,3.798,2.023c3.211,4.597,1.135,10.217-4.284,12.426
			C527.867,312.13,527.224,313.034,526.477,313.683z M24.976,289.074c0.36,0.479,0.72,0.96,1.08,1.44
			c1.469-0.628,3.413-0.858,4.327-1.95c4.116-4.925,8.226-9.9,11.789-15.226c3.597-5.376,3.293-5.882-1.265-8.938
			c-0.261,1.711-0.724,3.046-0.61,4.328c0.316,3.552-1.766,6.481-5.438,7.334c-0.428-3.022-0.621-6.113-1.42-9.038
			c-0.258-0.946-2.08-1.966-3.236-2.026c-1.196-0.063-2.451,0.997-3.409,1.439c1.491,2.066,3.18,3.356,3.344,4.816
			C30.865,277.742,32.68,284.673,24.976,289.074z M350.339,431.822c0.211-0.424,0.42-0.849,0.63-1.272
			c-4.038-0.353-3.213-2.26-2.412-4.248c0.598-1.486,1.312-3.006,1.475-4.563c0.17-1.615,0.072-4.563-0.49-4.711
			c-1.883-0.493-4.044-0.118-6.059,0.189c-0.69,0.105-1.262,0.989-1.888,1.519c0.035-0.393,0.07-0.783,0.105-1.175
			c-1.969-0.431-3.938-0.861-5.361-1.172c-1.204,5.859-2.278,11.083-3.374,16.412c3.616,1.181,3.474-1.969,4.627-3.952
			c1.84-3.163,4.045-6.124,6.26-9.046c0.296-0.39,1.55-0.054,2.416-0.054c-1.13,4.562-2.17,8.76-3.21,12.958
			c0.344,0.3,0.688,0.601,1.031,0.899C346.173,433.012,348.256,432.417,350.339,431.822z M102.561,277.502
			c3.871-1.627,7.053-2.598,9.843-4.237c2.87-1.687,3.054-5.574,0.705-6.655c-2.372-1.091-9.239,0.195-10.883,2.039
			c-2.6,2.915-3.966,10.633-2.33,13.323c0.24,0.395,0.598,0.753,0.977,1.023c2.797,1.988,9.464,1.074,11.645-1.687
			c0.372-0.472,0.382-1.449,0.179-2.066c-0.114-0.348-1.103-0.721-1.535-0.581c-0.875,0.282-1.599,1.007-2.462,1.365
			c-1.136,0.471-2.753,1.417-3.434,0.991C104.041,280.252,103.359,278.618,102.561,277.502z M417.463,431.816
			c0.134-4.867,0.435-5.219,4.165-5.509c3.276-0.254,6.396-3.12,6.402-6.338c0.003-1.103-1.025-3.053-1.773-3.151
			c-2.107-0.275-4.733-0.464-6.381,0.56c-2.316,1.438-4.442,3.733-5.705,6.155c-1.152,2.212-1.903,5.308-1.29,7.602
			c0.836,3.116,4.066,3.716,7.221,3.445c2.541-0.218,5.163-1.959,5.733-3.722C423.284,431.15,420.562,431.462,417.463,431.816z
			 M367.337,427.726c4.008-1.739,7.253-2.738,9.979-4.529c1.1-0.723,1.383-3.179,1.371-4.841c-0.005-0.607-1.894-1.602-3.005-1.734
			c-6.434-0.772-9.72,1.333-11.477,7.701c-0.713,2.582-0.157,5.961,1.001,8.423c0.575,1.222,3.954,1.895,5.821,1.538
			c2.241-0.429,4.222-2.219,6.315-3.419c-0.149-0.332-0.298-0.664-0.447-0.995c-1.128,0.397-2.231,1.014-3.388,1.14
			c-1.61,0.173-3.474,0.425-4.816-0.217C367.796,430.364,367.618,428.436,367.337,427.726z M303.068,430.092
			c-0.46-3.017-1.704-5.815-0.974-7.93c0.704-2.034,3.452-3.362,5.302-5c-0.11-0.316-0.222-0.633-0.332-0.948
			c-1.645,0.389-3.272,0.892-4.939,1.124c-1.021,0.143-2.583,0.282-3.07-0.288c-2.397-2.811-4.347-1.574-6.861,0.47
			c3.602,0.875,5.348,3.402,4.679,6.246c-0.639,2.719-1.228,6.43-5.639,6.441c-0.616,0.002-1.229,1.449-1.912,2.313
			c4.706,2.002,6.343-1.739,8.974-3.436c0.27,2.933,1.905,4.54,4.732,3.869c2.444-0.579,2.777-2.613,2.05-5.311
			C304.362,428.515,303.938,429.032,303.068,430.092z M153.117,277.789c3.457-1.734,6.316-2.749,8.664-4.465
			c2.43-1.775,2.484-5.382,0.606-6.531c-1.845-1.131-8.595-0.085-9.586,1.905c-1.503,3.018-2.658,6.26-3.551,9.519
			c-0.895,3.268,0.67,5.941,3.72,6.959c3.157,1.054,7.543-1.754,8.806-5.258c-2.869,0.636-5.603,1.242-8.658,1.919
			C153.117,279.603,153.117,278.262,153.117,277.789z M144.384,273.4c0.547-0.075,1.094-0.15,1.641-0.226
			c0.197-1.813,1.1-4.024,0.373-5.319c-0.616-1.095-3.093-1.405-4.795-1.571c-3.816-0.373-5.614,2.232-7.694,5.034
			c-4.074,5.488-3.959,8.974,1.334,12.865c2.722,2.001,8.948-0.488,9.461-3.83c0.079-0.512-0.296-1.094-0.192-0.747
			c-2.962,0.44-5.892,1.758-8.006,0.946c-2.199-0.843-1.038-6.747,1.527-9.715c0.615-0.712,1.11-1.61,1.869-2.094
			c0.717-0.456,1.709-0.479,2.313-0.629C143.055,270.165,143.719,271.782,144.384,273.4z M407.89,422.962
			c3.054,1.055,3.69-0.632,3.723-2.717c0.032-1.96-0.354-3.573-3.013-3.737c-8.191-0.508-11.261,3.641-12.852,10.171
			c-1.351,5.545,2.465,9.231,8.038,7.625c1.438-0.414,5.579,0.094,4.905-4.535c-1.341,0.638-2.265,1.391-3.244,1.471
			c-1.504,0.123-3.28,0.194-4.49-0.499c-0.886-0.507-1.785-2.624-1.407-3.424c1.672-3.536,2.014-8.338,7.547-9.026
			C407.353,419.798,407.613,421.339,407.89,422.962z M196.092,262.045c-5.866-1.782-4.151,5.584-6.934,5.142
			c-0.596,3.241-1.019,6.141-1.682,8.984c-0.67,2.874-1.578,5.692-2.416,8.662c6.678,0.976,7.919-0.521,6.146-5.834
			c-0.296-0.887-0.281-2.055,0.032-2.934c1.189-3.335,1.415-7.332,6.523-8.72C194.456,266.14,193.427,264.68,196.092,262.045z
			 M118.935,266.291c-0.184,2.555-0.059,4.294-0.475,5.893c-0.921,3.542-2.114,7.013-3.204,10.538
			c4.549,1.009,4.646,0.93,6.047-4.539c1.152-4.498,3.098-6.131,7.282-6.48c0.785-0.065,1.919-0.85,2.142-1.544
			c0.303-0.945,0.112-2.952-0.26-3.054c-1.455-0.394-3.07-0.312-4.612-0.208c-0.728,0.047-1.491,0.887-2.124,0.767
			C121.932,267.32,120.192,266.669,118.935,266.291z M449.704,434.559c1.893,0,2.947,0.236,3.826-0.056
			c1.296-0.431,2.468-1.237,3.693-1.885c-0.684-0.759-1.411-1.483-2.026-2.295c-0.259-0.34-0.488-0.932-0.371-1.293
			c1.005-3.122,2.005-6.253,3.198-9.307c0.516-1.315,2.087-2.45,2.093-3.671c0.007-1.485-1.133-2.975-1.663-4.2
			c-1.996,2.021-3.778,3.726-5.419,5.557c-0.385,0.43-0.344,1.28-0.409,1.946c-0.067,0.688,0.09,1.412-0.051,2.079
			C451.695,425.606,450.76,429.769,449.704,434.559z M97.452,261.415c-2.354-0.122-6.373,3.966-6.468,6.27
			c-0.099,2.396-0.358,4.818-0.88,7.153c-0.58,2.59-1.537,5.096-2.262,7.422c1.585,0.935,2.796,1.646,3.851,2.269
			c0.566-0.521,1.034-1.066,1.607-1.458c2.755-1.884,2.406-3.06-0.107-5.323c-1.734-1.563,3.05-9.543,5.358-10.078
			C98.198,265.667,97.853,263.701,97.452,261.415z M380.273,432.678c0.193,0.319,0.387,0.639,0.579,0.958
			c1.025-0.672,2.387-1.119,3.015-2.058c1.863-2.782,3.646-5.66,5.071-8.684c1.729-3.669,3.045-1.986,4.954,0.599
			c0.703-2.385,1.287-4.362,1.871-6.341c-0.219-0.39-0.438-0.78-0.657-1.172c-3.928,2.395-7.861,1.161-11.216,0.581
			C382.606,422.284,381.439,427.48,380.273,432.678z M359.665,431.24c-0.948-1.333-2.377-2.691-2.141-3.11
			c1.987-3.521-0.606-9.629,6.551-10.558c-1.24-0.801-1.952-1.262-2.291-1.48c0.347-1.684,0.628-3.043,1.163-5.639
			c-1.974,1.013-3.112,1.395-3.991,2.101c-0.995,0.799-1.816,1.841-2.595,2.868c-0.429,0.566-0.773,1.292-0.882,1.988
			c-0.795,5.091-1.521,10.192-2.318,15.639C355.453,434.446,357.989,434.025,359.665,431.24z M66.288,266.306
			c-1.286-0.282-2.975-1.179-4.125-0.722c-0.779,0.31-0.802,2.522-1.164,3.885c-0.573,2.152-0.536,4.847-1.858,6.336
			c-2.132,2.399-1.658,4.576-1.24,6.879c3.557,1.713,5.698-0.541,8.018-2.219c-0.813-0.926-1.625-1.852-3.051-3.476
			C63.724,274.314,64.867,270.746,66.288,266.306z M463.499,367.818c0.654,0.034,1.308,0.067,1.962,0.1
			c0.229-1.998,0.628-3.995,0.653-5.997c0.063-4.902-0.063-9.807-0.077-14.711c-0.005-1.632,0.112-3.263,0.145-4.895
			c0.055-2.769,0.138-5.538,0.067-8.304c-0.009-0.379-0.813-1.009-1.267-1.023c-0.393-0.014-1.122,0.648-1.161,1.064
			c-0.146,1.537-0.062,3.096-0.078,4.646c-0.078,7.171-0.17,14.342-0.24,21.513C463.479,362.747,463.499,365.283,463.499,367.818z
			 M326.724,414.995c-1.681,5.968-3.315,11.77-5.292,18.79c3.566-0.911,5.966-1.523,9.039-2.308
			c-3.022-3.086-3.003-5.493-1.941-8.687C329.195,420.79,331.717,417.391,326.724,414.995z M241.219,195.315
			c0.191-0.307,0.382-0.613,0.574-0.919c-0.585-0.606-1.165-1.732-1.753-1.737c-4.24-0.026-8.484,0.132-12.721,0.359
			c-0.488,0.026-0.934,0.836-1.399,1.283c0.429,0.338,0.852,0.963,1.286,0.97C231.876,195.342,236.547,195.315,241.219,195.315z
			 M55.162,274.787c0.02-0.495,0.041-0.989,0.061-1.483c-2.671-0.463-5.334-1.161-8.018-1.248c-0.834-0.027-1.723,1.606-2.586,2.479
			c0.994,0.498,2.014,1.458,2.975,1.402C50.129,275.789,52.641,275.2,55.162,274.787z M319.673,424.406
			c-0.169-0.288-0.339-0.576-0.508-0.863c-3.34,0-6.682,0-10.425,0c1.68,4.49,5.141,2.354,7.641,2.639
			C317.397,426.298,318.57,425.04,319.673,424.406z M465.569,417.918c0.151-2.207,1.078-4.775,0.189-5.876
			c-0.885-1.095,1.849-5.016-2.387-3.558c0,1.78-0.306,3.535,0.06,5.137C464.4,417.872,464.516,417.846,465.569,417.918z
			 M224.439,195.19c-0.413-1.232-0.731-2.178-1.055-3.144c-2.359,0.977-5.204,2.688-5.158,3.144
			C220.132,195.19,222.045,195.19,224.439,195.19z M250.367,195.406c-1.397-2.107-6.754-3.085-7.624-2.069
			c-0.266,0.31-0.414,0.954-0.275,1.312c0.134,0.343,0.705,0.711,1.096,0.725C245.606,195.444,247.653,195.406,250.367,195.406z
			 M258.887,193.599c0.081,0.515,0.162,1.029,0.243,1.544c2.279,0,4.558,0,7.454,0c-0.58-0.967-0.96-2.117-1.316-2.11
			C263.137,193.073,261.013,193.381,258.887,193.599z M327.419,410.367c0.159,0.384,0.319,0.769,0.478,1.152
			c1.632-0.115,3.263-0.231,4.893-0.347c0.11-0.385,0.221-0.771,0.331-1.155c-0.989-0.564-2.008-1.614-2.959-1.557
			C329.212,408.52,328.33,409.687,327.419,410.367z M65.834,262.149c0.983-1.004,1.612-1.645,2.24-2.286
			c-0.771-0.542-1.542-1.509-2.312-1.508s-1.539,0.969-2.308,1.514C64.119,260.505,64.782,261.141,65.834,262.149z"/>
		<path fill-rule="evenodd" clip-rule="evenodd" d="M476.428,332.206c6.584,4.414,12.382,8.317,18.198,12.192
			c3.615,2.408,8.062,4.117,10.679,7.327c3.017,3.7,7.375,4.781,10.652,7.664c3.865,3.399,7.63,6.926,11.636,10.15
			c1.708,1.375,4.003,1.992,5.883,3.188c4.376,2.781,9.097,5.231,12.86,8.703c3.749,3.458,7.845,5.999,12.253,8.355
			c1.192,0.638,1.6,2.743,2.425,4.283c-3.973,1.901-5.946-0.599-8.245-2.288c-2.531-1.858-5.21-3.52-7.735-5.388
			c-1.371-1.015-2.569-2.265-3.813-3.441c-0.445-0.421-0.714-1.07-1.207-1.391c-5.944-3.863-12.031-7.518-17.84-11.573
			c-4.241-2.962-8.094-6.477-12.188-9.658c-1.218-0.947-2.756-1.479-3.989-2.411c-2.069-1.563-3.919-3.424-6.031-4.92
			c-2.31-1.636-4.84-2.957-7.226-4.491c-4.492-2.89-9.12-5.609-13.372-8.822c-3.903-2.949-7.309-6.55-11.118-9.635
			c-0.8-0.646-2.409-0.387-3.646-0.388c-31.745-0.053-63.491-0.079-95.237-0.12c-18.113-0.023-36.229,0.083-54.34-0.153
			c-10.703-0.14-21.4-0.763-32.092-1.325c-3.172-0.167-4.228,1.183-4.196,4.111c0.112,10.228,0.332,20.458,0.168,30.683
			c-0.116,7.287-0.785,14.563-1.193,21.845c-0.048,0.86-0.006,1.726-0.006,3.625c4.184-0.769,8.162-1.032,11.806-2.275
			c6.176-2.107,12.122-4.882,18.227-7.214c0.563-0.216,1.571,0.733,2.059,0.981c-2.477,2.7-4.646,5.066-7.159,7.805
			c45.687,0.642,90.75,1.272,136.364,1.912c-1.195-4.053-8.538-3.595-6.253-9.88c9.726,5.559,19.978,9.054,31.186,9.922
			c-0.154-2.907-0.296-5.556-0.438-8.204c0.458-0.055,0.916-0.109,1.374-0.164c2.302,3.497-0.71,7.89,1.488,11.708
			c-5.923,1.194-11.356,2.276-16.781,3.402c-0.794,0.164-1.81,0.314-2.271,0.856c-3.995,4.696-10.297,3.308-15.104,5.812
			c-0.202,0.105-0.626-0.215-1.304-0.472c2.76-2.954,5.37-5.75,8.219-8.8c-45.677-0.526-91.014-1.049-136.526-1.572
			c0.471,4.098,7.435,3.93,6.381,9.781c-10.087-4.881-20.058-8.84-31.326-10.198c0,8.339,0.012,16.293-0.002,24.248
			c-0.039,21.974-0.065,43.948-0.208,65.921c-0.006,1.027-1.09,2.047-1.671,3.07c-0.676-0.943-1.946-1.888-1.942-2.828
			c0.111-28.72,0.376-57.438,0.551-86.157c0.082-13.29-0.061-26.582,0.064-39.872c0.075-7.975,0.409-15.949,0.754-23.918
			c0.126-2.923-0.606-4.196-3.936-4.188c-41.741,0.11-83.482,0.076-125.223,0.072c-7.374-0.001-14.749,0.073-22.119-0.116
			c-2.06-0.054-4.1-0.924-6.148-1.419c0.047-0.396,0.095-0.792,0.143-1.188c31.347,0,62.694,0,95.214,0
			c-3.747-11.003-7.212-21.181-10.678-31.357c0.315-0.215,0.631-0.429,0.946-0.644c2.724,2.398,5.447,4.798,9.038,7.961
			c0-27.303,0-53.351,0-80.615c-3.045,3.678-5.377,6.496-7.71,9.314c-0.492-0.268-0.983-0.537-1.475-0.805
			c3.983-12.156,7.967-24.313,11.562-35.285c3.315,10.651,6.997,22.48,10.743,34.514c-5.133,1.25-4.826-5.845-9.477-6.905
			c0,26.583,0,53.006,0,80.489c2.626-3.129,4.462-5.493,6.521-7.643c0.492-0.515,1.74-0.447,2.608-0.352
			c0.197,0.021,0.565,1.403,0.333,1.931c-1.308,2.979-3.022,5.797-4.134,8.84c-1.983,5.431-3.67,10.972-5.398,16.493
			c-0.325,1.038-0.263,2.197-0.435,3.823c5.036,0,9.875-0.011,14.713,0.002c8.874,0.022,17.75-0.063,26.621,0.135
			c4.713,0.104,9.416,0.699,14.122,1.083c2.882,0.235,3.972-1.064,3.951-3.951c-0.11-14.727-0.171-29.454-0.107-44.181
			c0.081-18.735,0.29-37.471,0.456-56.206c0.075-8.364,0.019-16.733,0.343-25.088c0.164-4.21-2.653-6.281-5.313-8.222
			c-6.34-4.626-12.953-8.878-19.474-13.252c-1.095-0.734-2.292-1.318-3.437-1.978c-1.807-1.042-4.041-1.82-2.858-4.853
			c3.34-1.066,5.665,0.436,8.086,2.816c2.763,2.715,6.007,4.958,9.132,7.286c3.668,2.733,7.405,5.379,11.185,7.956
			c0.617,0.42,1.61,0.29,2.586,0.437c0-6.958-0.02-13.66,0.004-20.361c0.078-22.603,0.185-45.205,0.248-67.807
			c0.019-6.734-0.067-13.469-0.113-20.203c-0.005-0.749-0.327-1.634-0.031-2.215c0.537-1.052,1.429-1.923,2.173-2.869
			c0.68,0.93,1.929,1.849,1.95,2.794c0.174,8.191,0.149,16.386,0.142,24.581c-0.021,23.592-0.047,47.184-0.102,70.776
			c-0.011,4.62,0.482,9.367-0.415,13.822c-1.008,5.013,2.083,7.185,5.045,9.43c4.122,3.123,8.676,5.666,12.924,8.632
			c4.984,3.481,9.847,7.138,14.745,10.742c5.928,4.36,11.765,8.849,17.774,13.092c6.242,4.407,12.754,8.436,18.945,12.91
			c6.352,4.588,12.44,9.538,18.685,14.276c1.42,1.076,3.03,1.897,4.513,2.896c4.715,3.178,9.456,6.32,14.101,9.599
			c3.829,2.703,7.542,5.57,11.295,8.382c5.157,3.864,10.191,7.907,15.485,11.574c5.53,3.83,11.335,7.263,16.955,10.965
			c1.349,0.888,2.347,2.301,3.682,3.216c2.039,1.398,4.396,2.366,6.322,3.89c3.544,2.805,6.969,5.702,10.773,8.217
			c4.758,3.144,8.909,7.191,13.54,10.551c2.98,2.161,6.098,4.136,10.17,4.108c17.115-0.118,34.232-0.071,51.349-0.004
			c1.206,0.005,2.554,0.462,3.538,1.141c0.344,0.236,0.064,2.384-0.408,2.596c-1.08,0.486-2.458,0.422-3.709,0.393
			c-2.858-0.068-5.711-0.325-8.568-0.372c-7.748-0.13-15.498-0.106-23.241-0.338c-1.866-0.056-3.748-1.358-5.557-1.222
			C484.259,330.555,480.773,331.432,476.428,332.206z M279.509,196.033c0,4.617,0.017,8.565-0.002,12.513
			c-0.122,24.722-0.194,49.445-0.405,74.167c-0.102,11.942-0.357,23.888-0.76,35.823c-0.232,6.89,0.637,7.905,7.548,7.894
			c23.115-0.039,46.23-0.057,69.345,0.014c30.12,0.091,60.239,0.243,90.359,0.455c3.945,0.028,7.886,0.667,11.835,0.805
			c1.181,0.042,2.387-0.656,4.099-1.172C400.44,282.733,340.306,239.621,279.509,196.033z"/>
		<path fill-rule="evenodd" clip-rule="evenodd" d="M161.578,293.237c1.806-8.973,8.027-16.645,6.741-26.148
			c0.316-0.162,0.671-0.516,0.944-0.46c3.498,0.714,6.972,0.134,10.46-0.067c2.764-0.159,3.972,1.437,4.251,4.063
			c0.532,4.997-2.372,9.534-6.356,12.652c-2.217,1.736-4.155,2.105-6.522,1.989c-2.866-0.142-3.165,2.454-3.052,3.799
			C168.438,293.772,165.878,293.905,161.578,293.237z M177.971,267.529c-2.534,2.802-4.979,4.769-6.387,7.31
			c-1.042,1.883-0.734,4.513-1.027,6.811c1.945-0.261,4.506,0.152,5.695-0.936c1.875-1.715,3.377-4.306,3.971-6.782
			C180.6,272.365,179.037,270.334,177.971,267.529z"/>
		<path fill-rule="evenodd" clip-rule="evenodd" d="M280.166,45.611c-1.258-0.795-2.177-1.376-3.401-2.151
			c0.999-0.855,1.754-1.515,2.524-2.158c4.709-3.931,4.913-8.96,3.584-14.409c-0.653-2.682,0.718-6.183-3.231-7.525
			c-0.282-0.096-0.4-2.058-0.119-2.198c1.503-0.75,3.186-1.672,4.749-1.578c1.021,0.061,2.552,1.615,2.795,2.73
			c0.631,2.899,0.684,5.926,0.955,8.903c0.076,0.836,0.11,1.677,0.167,2.581c3.986-1.826,6.095-5.788,5.874-9.748
			c-0.079-1.437,0.995-2.938,1.544-4.411c0.862,1.416,2.584,2.949,2.409,4.221c-0.374,2.719-1.307,5.573-2.784,7.876
			c-2.084,3.247-4.84,6.069-7.361,9.029C285.427,39.645,282.916,42.461,280.166,45.611z"/>
		<path fill-rule="evenodd" clip-rule="evenodd" d="M231.09,248.56c1.386,0,2.958,0,5.286,0c-0.724,3.248-1.398,6.277-1.993,8.941
			c2.762,0.81,5.39,1.44,7.89,2.404c0.68,0.263,1.337,1.511,1.384,2.34c0.397,7.218-4.252,14.837-13.117,14.063
			c-3.994-0.349-5.134-2.113-4.003-5.984c1.285-4.398,2.579-8.805,3.589-13.271C230.712,254.463,230.75,251.747,231.09,248.56z
			 M238.352,261.58c-4.155-1.157-6.388,0.317-7.018,4.28c-0.196,1.224-0.655,2.437-0.648,3.653c0.008,1.443,0.388,2.886,0.606,4.328
			c1.766-0.788,4.043-1.133,5.19-2.458C238.833,268.669,239.518,265.234,238.352,261.58z"/>
		<path fill-rule="evenodd" clip-rule="evenodd" d="M432.419,442.759c-2.132,0-3.955,0-6.668,0c1.551-3.622,2.975-6.755,4.226-9.955
			c0.622-1.589,1.036-3.281,1.349-4.964c0.538-2.903,0.83-5.854,1.406-8.749c0.418-2.105,1.71-2.623,3.864-2.01
			c1.264,0.359,2.779-0.283,4.168-0.214c1.871,0.093,4.202-0.16,5.467,0.837c1.361,1.075,2.536,3.501,2.372,5.2
			c-0.679,7.005-5.65,12.746-12.806,11.656c-2.428-0.37-3.436,0.771-3.384,3.114C432.447,439.275,432.419,440.879,432.419,442.759z
			 M435.806,433.243c1.461-0.231,2.128-0.198,2.667-0.446c2.889-1.324,6.304-8.166,5.671-11.243
			c-0.407-1.982-3.369-3.096-4.543-1.364c-2.199,3.245-3.834,6.902-5.394,10.521C433.962,431.279,435.344,432.55,435.806,433.243z"
			/>
		<path fill-rule="evenodd" clip-rule="evenodd" d="M390.199,363.207c-0.613,2.666-0.774,4.829-1.624,6.675
			c-0.937,2.037-1.347,3.47-0.021,5.711c1.619,2.737-0.837,5.18-4.473,4.243c-2.003-0.517-3.658-0.383-5.584-0.059
			c-6.188,1.042-8.394-1.81-6.396-8.003c2.43-7.531,4.505-8.918,12.723-8.577C386.423,363.264,388.026,363.207,390.199,363.207z
			 M375.82,376.651c5.643,0.76,8.994-4.29,7.858-11.525C379.149,364.667,375.076,370.486,375.82,376.651z"/>
		<path fill-rule="evenodd" clip-rule="evenodd" d="M78.089,282.752c0.841-2.462,1.481-4.493,2.231-6.481
			c0.714-1.896,1.543-3.75,2.322-5.622c-0.228-0.289-0.456-0.578-0.685-0.867c-1.197,0.485-2.871,0.629-3.505,1.518
			c-2.245,3.141-4.027,6.609-6.218,9.793c-0.744,1.082-2.178,1.689-3.297,2.513c-0.282-0.313-0.563-0.627-0.845-0.94
			c0.958-3.668,1.932-7.332,2.86-11.008c0.21-0.835,0.213-1.721,0.393-2.565c0.239-1.129,0.557-2.241,0.841-3.361
			c1.304,0.354,2.633,0.646,3.899,1.105c0.365,0.134,0.552,0.756,0.857,1.208c1.406-0.574,2.667-1.341,4.02-1.569
			c1.307-0.22,3.47-0.366,3.902,0.313c0.827,1.304,1.018,3.247,0.866,4.868c-0.144,1.538-1.117,2.985-1.618,4.509
			c-0.212,0.644-0.375,1.901-0.175,1.988c1.646,0.708,2.75,1.806,1.219,3.244c-1.083,1.018-2.873,1.337-4.396,1.807
			C80.247,283.361,79.582,283.026,78.089,282.752z"/>
		<path fill-rule="evenodd" clip-rule="evenodd" d="M526.477,313.683c0.747-0.648,1.391-1.553,2.258-1.906
			c5.419-2.209,7.495-7.829,4.284-12.426c-0.671-0.96-2.289-1.256-3.798-2.023c2.86-1.313,5.394-3.051,8.133,0.216
			c0.405,0.483,1.785,0.384,2.642,0.207c2.255-0.466,4.471-1.124,6.701-1.705c0.27,0.538,0.539,1.075,0.81,1.612
			c-0.865,0.633-1.675,1.708-2.603,1.821c-3.809,0.465-5.775,2.916-5.15,6.873c0.242,1.538,0.547,3.065,0.792,4.424
			c1.73-0.331,3.079-0.588,4.428-0.845c0.285,0.293,0.57,0.587,0.855,0.881c-0.952,1.23-1.772,3.328-2.886,3.498
			c-1.845,0.281-4.511-0.064-5.677-1.267c-1.589-1.637-2.116-1.889-3.976-0.452c-1.673,1.292-4.003,1.734-6.043,2.552
			C526.989,314.656,526.733,314.17,526.477,313.683z"/>
		<path fill-rule="evenodd" clip-rule="evenodd" d="M24.976,289.074c7.704-4.401,5.889-11.332,5.161-17.819
			c-0.164-1.46-1.853-2.75-3.344-4.816c0.958-0.442,2.212-1.503,3.409-1.439c1.156,0.061,2.978,1.08,3.236,2.026
			c0.799,2.925,0.993,6.016,1.42,9.038c3.673-0.853,5.755-3.782,5.438-7.334c-0.114-1.282,0.349-2.617,0.61-4.328
			c4.558,3.056,4.862,3.562,1.265,8.938c-3.563,5.325-7.673,10.301-11.789,15.226c-0.914,1.092-2.857,1.322-4.327,1.95
			C25.695,290.034,25.335,289.554,24.976,289.074z"/>
		<path fill-rule="evenodd" clip-rule="evenodd" d="M350.339,431.822c-2.083,0.595-4.166,1.189-6.25,1.784
			c-0.343-0.299-0.688-0.6-1.031-0.899c1.04-4.198,2.08-8.396,3.21-12.958c-0.866,0-2.12-0.336-2.416,0.054
			c-2.215,2.922-4.42,5.883-6.26,9.046c-1.153,1.983-1.011,5.133-4.627,3.952c1.096-5.329,2.17-10.553,3.374-16.412
			c1.424,0.311,3.393,0.741,5.361,1.172c-0.035,0.392-0.07,0.782-0.105,1.175c0.626-0.529,1.197-1.413,1.888-1.519
			c2.015-0.308,4.176-0.683,6.059-0.189c0.563,0.147,0.66,3.096,0.49,4.711c-0.163,1.558-0.877,3.077-1.475,4.563
			c-0.801,1.988-1.626,3.896,2.412,4.248C350.759,430.974,350.55,431.398,350.339,431.822z"/>
		<path fill-rule="evenodd" clip-rule="evenodd" d="M102.561,277.502c0.798,1.116,1.48,2.75,2.706,3.516
			c0.681,0.426,2.298-0.521,3.434-0.991c0.863-0.358,1.586-1.083,2.462-1.365c0.433-0.14,1.421,0.233,1.535,0.581
			c0.204,0.617,0.193,1.595-0.179,2.066c-2.181,2.761-8.848,3.675-11.645,1.687c-0.379-0.271-0.737-0.629-0.977-1.023
			c-1.636-2.69-0.271-10.408,2.33-13.323c1.644-1.844,8.511-3.13,10.883-2.039c2.349,1.081,2.165,4.969-0.705,6.655
			C109.614,274.904,106.431,275.875,102.561,277.502z M104.245,273.822c0.472,0.326,0.944,0.653,1.417,0.98
			c1.346-1.514,2.769-2.969,3.979-4.584c0.27-0.36-0.083-1.773-0.369-1.848c-0.739-0.191-2.045-0.196-2.336,0.244
			C105.865,270.236,105.115,272.069,104.245,273.822z"/>
		<path fill-rule="evenodd" clip-rule="evenodd" d="M417.463,431.816c3.099-0.354,5.821-0.666,8.372-0.958
			c-0.57,1.763-3.192,3.504-5.733,3.722c-3.154,0.271-6.385-0.329-7.221-3.445c-0.613-2.294,0.138-5.39,1.29-7.602
			c1.263-2.422,3.389-4.718,5.705-6.155c1.647-1.023,4.273-0.835,6.381-0.56c0.748,0.099,1.776,2.049,1.773,3.151
			c-0.007,3.218-3.126,6.084-6.402,6.338C417.897,426.598,417.597,426.949,417.463,431.816z M423.876,419.74
			c-4.47-1.286-5.255,1.458-5.697,4.599C421.928,424.868,423.353,423.761,423.876,419.74z"/>
		<path fill-rule="evenodd" clip-rule="evenodd" d="M367.337,427.726c0.281,0.71,0.459,2.639,1.354,3.066
			c1.343,0.642,3.206,0.39,4.816,0.217c1.156-0.126,2.26-0.742,3.388-1.14c0.149,0.331,0.298,0.663,0.447,0.995
			c-2.094,1.2-4.074,2.99-6.315,3.419c-1.867,0.356-5.246-0.316-5.821-1.538c-1.158-2.462-1.714-5.841-1.001-8.423
			c1.757-6.368,5.043-8.474,11.477-7.701c1.111,0.133,3,1.127,3.005,1.734c0.012,1.662-0.271,4.118-1.371,4.841
			C374.59,424.987,371.345,425.986,367.337,427.726z M373.3,417.987c-4.058,2.249-4.567,3.226-3.654,6.665
			C374.333,422.069,374.632,421.559,373.3,417.987z"/>
		<path fill-rule="evenodd" clip-rule="evenodd" d="M303.068,430.092c0.869-1.06,1.294-1.577,2.009-2.448
			c0.728,2.697,0.395,4.731-2.05,5.311c-2.827,0.671-4.463-0.937-4.732-3.869c-2.631,1.696-4.268,5.438-8.974,3.436
			c0.683-0.864,1.296-2.312,1.912-2.313c4.411-0.012,5-3.723,5.639-6.441c0.669-2.844-1.077-5.371-4.679-6.246
			c2.515-2.044,4.464-3.28,6.861-0.47c0.487,0.57,2.05,0.431,3.07,0.288c1.667-0.232,3.295-0.735,4.939-1.124
			c0.11,0.315,0.222,0.632,0.332,0.948c-1.85,1.638-4.598,2.966-5.302,5C301.364,424.276,302.608,427.075,303.068,430.092z"/>
		<path fill-rule="evenodd" clip-rule="evenodd" d="M153.117,277.789c0,0.473,0,1.813,0,4.048c3.056-0.677,5.79-1.283,8.658-1.919
			c-1.262,3.504-5.648,6.312-8.806,5.258c-3.049-1.018-4.614-3.691-3.72-6.959c0.893-3.259,2.047-6.501,3.551-9.519
			c0.992-1.99,7.742-3.036,9.586-1.905c1.878,1.149,1.823,4.756-0.606,6.531C159.433,275.04,156.573,276.055,153.117,277.789z
			 M153.049,273.967c0.533,0.485,1.067,0.97,1.6,1.456c1.732-1.726,3.506-3.413,5.155-5.215c0.258-0.281,0.15-1.284-0.153-1.585
			c-0.301-0.297-1.322-0.385-1.582-0.123C156.33,270.257,154.708,272.131,153.049,273.967z"/>
		<path fill-rule="evenodd" clip-rule="evenodd" d="M144.384,273.4c-0.665-1.618-1.329-3.235-2.17-5.285
			c-0.604,0.149-1.596,0.173-2.313,0.629c-0.759,0.483-1.254,1.382-1.869,2.094c-2.565,2.968-3.727,8.872-1.527,9.715
			c2.114,0.812,5.044-0.506,8.006-0.946c-0.104-0.347,0.271,0.235,0.192,0.747c-0.513,3.342-6.739,5.831-9.461,3.83
			c-5.293-3.892-5.408-7.377-1.334-12.865c2.08-2.802,3.878-5.407,7.694-5.034c1.702,0.166,4.179,0.477,4.795,1.571
			c0.728,1.295-0.176,3.506-0.373,5.319C145.478,273.25,144.931,273.325,144.384,273.4z"/>
		<path fill-rule="evenodd" clip-rule="evenodd" d="M407.89,422.962c-0.276-1.623-0.537-3.164-0.793-4.672
			c-5.533,0.688-5.875,5.49-7.547,9.026c-0.378,0.8,0.521,2.917,1.407,3.424c1.21,0.693,2.986,0.622,4.49,0.499
			c0.979-0.08,1.903-0.833,3.244-1.471c0.674,4.629-3.467,4.121-4.905,4.535c-5.573,1.606-9.389-2.08-8.038-7.625
			c1.591-6.53,4.66-10.679,12.852-10.171c2.658,0.164,3.045,1.777,3.013,3.737C411.58,422.33,410.943,424.017,407.89,422.962z"/>
		<path fill-rule="evenodd" clip-rule="evenodd" d="M196.092,262.045c-2.665,2.635-1.636,4.095,1.67,5.301
			c-5.108,1.388-5.333,5.385-6.523,8.72c-0.313,0.879-0.328,2.047-0.032,2.934c1.773,5.313,0.532,6.81-6.146,5.834
			c0.838-2.97,1.746-5.788,2.416-8.662c0.663-2.844,1.086-5.743,1.682-8.984C191.94,267.629,190.226,260.263,196.092,262.045z"/>
		<path fill-rule="evenodd" clip-rule="evenodd" d="M118.935,266.291c1.257,0.378,2.997,1.029,4.796,1.372
			c0.633,0.12,1.396-0.72,2.124-0.767c1.542-0.104,3.158-0.186,4.612,0.208c0.372,0.102,0.563,2.108,0.26,3.054
			c-0.223,0.694-1.357,1.479-2.142,1.544c-4.184,0.35-6.13,1.982-7.282,6.48c-1.4,5.469-1.498,5.548-6.047,4.539
			c1.09-3.525,2.283-6.996,3.204-10.538C118.876,270.585,118.751,268.846,118.935,266.291z"/>
		<path fill-rule="evenodd" clip-rule="evenodd" d="M449.704,434.559c1.056-4.79,1.991-8.952,2.871-13.124
			c0.141-0.667-0.017-1.391,0.051-2.079c0.065-0.666,0.024-1.517,0.409-1.946c1.641-1.831,3.423-3.536,5.419-5.557
			c0.53,1.226,1.67,2.715,1.663,4.2c-0.006,1.221-1.577,2.355-2.093,3.671c-1.193,3.054-2.193,6.185-3.198,9.307
			c-0.117,0.361,0.112,0.953,0.371,1.293c0.615,0.812,1.343,1.536,2.026,2.295c-1.226,0.647-2.397,1.454-3.693,1.885
			C452.651,434.795,451.597,434.559,449.704,434.559z"/>
		<path fill-rule="evenodd" clip-rule="evenodd" d="M97.452,261.415c0.401,2.286,0.747,4.252,1.098,6.254
			c-2.308,0.535-7.092,8.516-5.358,10.078c2.513,2.264,2.862,3.439,0.107,5.323c-0.573,0.392-1.041,0.938-1.607,1.458
			c-1.055-0.622-2.266-1.334-3.851-2.269c0.725-2.326,1.683-4.832,2.262-7.422c0.522-2.335,0.782-4.758,0.88-7.153
			C91.079,265.381,95.097,261.293,97.452,261.415z"/>
		<path fill-rule="evenodd" clip-rule="evenodd" d="M380.273,432.678c1.166-5.197,2.333-10.394,3.617-16.116
			c3.354,0.58,7.288,1.813,11.216-0.581c0.22,0.392,0.438,0.782,0.657,1.172c-0.584,1.979-1.168,3.956-1.871,6.341
			c-1.909-2.585-3.226-4.268-4.954-0.599c-1.425,3.023-3.208,5.901-5.071,8.684c-0.628,0.938-1.989,1.386-3.015,2.058
			C380.66,433.316,380.467,432.997,380.273,432.678z"/>
		<path fill-rule="evenodd" clip-rule="evenodd" d="M359.665,431.24c-1.676,2.785-4.212,3.206-6.504,1.809
			c0.798-5.446,1.523-10.548,2.318-15.639c0.108-0.696,0.453-1.422,0.882-1.988c0.778-1.027,1.6-2.069,2.595-2.868
			c0.879-0.706,2.018-1.088,3.991-2.101c-0.535,2.596-0.816,3.955-1.163,5.639c0.339,0.219,1.051,0.68,2.291,1.48
			c-7.157,0.929-4.563,7.037-6.551,10.558C357.288,428.549,358.717,429.907,359.665,431.24z"/>
		<path fill-rule="evenodd" clip-rule="evenodd" d="M66.288,266.306c-1.421,4.44-2.563,8.009-3.42,10.684
			c1.426,1.624,2.238,2.55,3.051,3.476c-2.319,1.678-4.461,3.932-8.018,2.219c-0.418-2.303-0.892-4.479,1.24-6.879
			c1.322-1.489,1.285-4.184,1.858-6.336c0.362-1.362,0.384-3.575,1.164-3.885C63.313,265.127,65.001,266.023,66.288,266.306z"/>
		<path fill-rule="evenodd" clip-rule="evenodd" d="M463.499,367.818c0-2.535-0.021-5.071,0.004-7.606
			c0.07-7.171,0.162-14.342,0.24-21.513c0.017-1.551-0.068-3.109,0.078-4.646c0.039-0.416,0.769-1.078,1.161-1.064
			c0.454,0.015,1.258,0.645,1.267,1.023c0.07,2.766-0.013,5.535-0.067,8.304c-0.032,1.632-0.149,3.263-0.145,4.895
			c0.015,4.904,0.141,9.809,0.077,14.711c-0.025,2.002-0.425,3.999-0.653,5.997C464.807,367.886,464.153,367.853,463.499,367.818z"
			/>
		<path fill-rule="evenodd" clip-rule="evenodd" d="M326.724,414.995c4.993,2.396,2.472,5.795,1.806,7.796
			c-1.062,3.193-1.081,5.601,1.941,8.687c-3.073,0.784-5.473,1.396-9.039,2.308C323.408,426.765,325.043,420.963,326.724,414.995z"
			/>
		<path fill-rule="evenodd" clip-rule="evenodd" d="M241.219,195.315c-4.671,0-9.343,0.026-14.013-0.044
			c-0.434-0.007-0.857-0.632-1.286-0.97c0.465-0.447,0.911-1.256,1.399-1.283c4.236-0.227,8.48-0.385,12.721-0.359
			c0.588,0.004,1.168,1.13,1.753,1.737C241.601,194.703,241.41,195.009,241.219,195.315z"/>
		<path fill-rule="evenodd" clip-rule="evenodd" d="M55.162,274.787c-2.521,0.413-5.032,1.002-7.568,1.15
			c-0.961,0.056-1.981-0.904-2.975-1.402c0.863-0.873,1.751-2.507,2.586-2.479c2.684,0.087,5.347,0.785,8.018,1.248
			C55.202,273.798,55.182,274.292,55.162,274.787z"/>
		<path fill-rule="evenodd" clip-rule="evenodd" d="M319.673,424.406c-1.103,0.634-2.275,1.892-3.292,1.775
			c-2.5-0.285-5.961,1.852-7.641-2.639c3.743,0,7.085,0,10.425,0C319.334,423.83,319.504,424.118,319.673,424.406z"/>
		<path fill-rule="evenodd" clip-rule="evenodd" d="M465.569,417.918c-1.054-0.072-1.169-0.046-2.138-4.297
			c-0.365-1.602-0.06-3.356-0.06-5.137c4.235-1.458,1.502,2.463,2.387,3.558C466.647,413.143,465.721,415.711,465.569,417.918z"/>
		<path fill-rule="evenodd" clip-rule="evenodd" d="M224.439,195.19c-2.394,0-4.307,0-6.213,0c-0.045-0.457,2.799-2.167,5.158-3.144
			C223.708,193.012,224.026,193.958,224.439,195.19z"/>
		<path fill-rule="evenodd" clip-rule="evenodd" d="M250.367,195.406c-2.714,0-4.761,0.038-6.803-0.033
			c-0.392-0.014-0.962-0.382-1.096-0.725c-0.139-0.357,0.009-1.002,0.275-1.312C243.613,192.321,248.97,193.299,250.367,195.406z"/>
		<path fill-rule="evenodd" clip-rule="evenodd" d="M258.887,193.599c2.126-0.218,4.25-0.526,6.381-0.566
			c0.356-0.007,0.736,1.143,1.316,2.11c-2.896,0-5.175,0-7.454,0C259.048,194.628,258.968,194.113,258.887,193.599z"/>
		<path fill-rule="evenodd" clip-rule="evenodd" d="M327.419,410.367c0.911-0.681,1.793-1.848,2.742-1.906
			c0.951-0.058,1.97,0.992,2.959,1.557c-0.11,0.385-0.221,0.771-0.331,1.155c-1.63,0.115-3.261,0.231-4.893,0.347
			C327.738,411.136,327.578,410.751,327.419,410.367z"/>
		<path fill-rule="evenodd" clip-rule="evenodd" d="M65.834,262.149c-1.052-1.009-1.716-1.645-2.379-2.28
			c0.77-0.545,1.538-1.513,2.308-1.514s1.541,0.966,2.312,1.508C67.446,260.505,66.817,261.146,65.834,262.149z"/>
		<path fill-rule="evenodd" clip-rule="evenodd" fill="#FFFFFF" d="M279.509,196.033c60.796,43.588,120.931,86.7,182.019,130.498
			c-1.712,0.516-2.918,1.214-4.099,1.172c-3.949-0.138-7.89-0.776-11.835-0.805c-30.12-0.212-60.239-0.364-90.359-0.455
			c-23.115-0.07-46.23-0.053-69.345-0.014c-6.911,0.012-7.78-1.004-7.548-7.894c0.402-11.936,0.658-23.881,0.76-35.823
			c0.211-24.722,0.283-49.445,0.405-74.167C279.526,204.599,279.509,200.65,279.509,196.033z M298.618,321.505
			c0.11,0.184,0.22,0.366,0.331,0.55c2.756-1.059,5.656-1.857,8.22-3.267c1.716-0.942,3.334-2.529,4.329-4.221
			c2.275-3.872,4.614-7.835,5.948-12.068c0.549-1.743-1.428-4.276-2.245-6.454c-1.153-3.074-2.795-5.321-6.646-4.894
			c-3.072,0.341-7.204-0.89-9.074,0.693c-4.568,3.867-9.623,7.643-11.322,14.156c-1.566,5.999,0.527,12.871,5.383,14.72
			C295.106,321.316,296.919,321.262,298.618,321.505z"/>
		<path fill-rule="evenodd" clip-rule="evenodd" fill="#FFFFFF" d="M177.971,267.529c1.066,2.805,2.628,4.836,2.252,6.402
			c-0.594,2.477-2.097,5.067-3.971,6.782c-1.188,1.088-3.75,0.675-5.695,0.936c0.293-2.298-0.016-4.928,1.027-6.811
			C172.992,272.298,175.438,270.331,177.971,267.529z"/>
		<path fill-rule="evenodd" clip-rule="evenodd" fill="#FFFFFF" d="M238.352,261.58c1.166,3.654,0.481,7.089-1.87,9.804
			c-1.146,1.325-3.424,1.67-5.19,2.458c-0.218-1.442-0.599-2.885-0.606-4.328c-0.007-1.217,0.453-2.43,0.648-3.653
			C231.964,261.897,234.197,260.423,238.352,261.58z"/>
		<path fill-rule="evenodd" clip-rule="evenodd" fill="#FFFFFF" d="M435.806,433.243c-0.462-0.693-1.844-1.964-1.599-2.533
			c1.56-3.618,3.194-7.275,5.394-10.521c1.174-1.731,4.136-0.618,4.543,1.364c0.633,3.077-2.782,9.919-5.671,11.243
			C437.934,433.045,437.267,433.012,435.806,433.243z"/>
		<path fill-rule="evenodd" clip-rule="evenodd" fill="#FFFFFF" d="M375.82,376.651c-0.744-6.165,3.329-11.984,7.858-11.525
			C384.814,372.361,381.463,377.411,375.82,376.651z"/>
		<path fill-rule="evenodd" clip-rule="evenodd" fill="#FFFFFF" d="M104.245,273.822c0.87-1.753,1.62-3.586,2.69-5.207
			c0.291-0.44,1.597-0.436,2.336-0.244c0.286,0.074,0.639,1.487,0.369,1.848c-1.21,1.615-2.633,3.07-3.979,4.584
			C105.189,274.476,104.717,274.148,104.245,273.822z"/>
		<path fill-rule="evenodd" clip-rule="evenodd" fill="#FFFFFF" d="M423.876,419.74c-0.523,4.021-1.948,5.128-5.697,4.599
			C418.621,421.198,419.406,418.454,423.876,419.74z"/>
		<path fill-rule="evenodd" clip-rule="evenodd" fill="#FFFFFF" d="M373.3,417.987c1.332,3.571,1.033,4.082-3.654,6.665
			C368.732,421.213,369.242,420.236,373.3,417.987z"/>
		<path fill-rule="evenodd" clip-rule="evenodd" fill="#FFFFFF" d="M153.049,273.967c1.66-1.836,3.281-3.71,5.021-5.467
			c0.26-0.262,1.281-0.174,1.582,0.123c0.304,0.301,0.411,1.304,0.153,1.585c-1.649,1.802-3.423,3.489-5.155,5.215
			C154.116,274.937,153.582,274.452,153.049,273.967z"/>
		<path fill-rule="evenodd" clip-rule="evenodd" d="M298.618,321.505c-1.699-0.243-3.512-0.188-5.076-0.784
			c-4.855-1.849-6.949-8.721-5.383-14.72c1.699-6.514,6.754-10.289,11.322-14.156c1.87-1.583,6.002-0.353,9.074-0.693
			c3.851-0.428,5.492,1.819,6.646,4.894c0.817,2.178,2.794,4.711,2.245,6.454c-1.334,4.233-3.673,8.196-5.948,12.068
			c-0.995,1.691-2.613,3.278-4.329,4.221c-2.563,1.409-5.464,2.208-8.22,3.267C298.838,321.871,298.729,321.688,298.618,321.505z
			 M311.807,301.645c0.134-6.114-3.395-9.628-8.018-7.876c-3.043,1.153-6.444,2.897-7.639,6.729c-0.619,1.99-1.784,3.817-2.338,5.82
			c-0.67,2.419-1.563,5.019-1.272,7.409c0.568,4.685,4.404,6.155,8.838,5.095c3.292-0.788,3.454-3.793,5.437-5.288
			C311.125,310.28,310.889,305.369,311.807,301.645z"/>
		<path fill-rule="evenodd" clip-rule="evenodd" fill="#FFFFFF" d="M311.807,301.645c-0.918,3.725-0.682,8.636-4.992,11.889
			c-1.982,1.495-2.145,4.5-5.437,5.288c-4.434,1.061-8.27-0.41-8.838-5.095c-0.29-2.391,0.603-4.99,1.272-7.409
			c0.554-2.003,1.719-3.83,2.338-5.82c1.194-3.831,4.596-5.575,7.639-6.729C308.412,292.017,311.94,295.53,311.807,301.645z"/>
	</g>
</g>
</svg>
