<?xml version="1.0" encoding="utf-8"?>
<!-- Generator: Adobe Illustrator 16.0.0, SVG Export Plug-In . SVG Version: 6.00 Build 0)  -->
<!DOCTYPE svg PUBLIC "-//W3C//DTD SVG 1.1//EN" "http://www.w3.org/Graphics/SVG/1.1/DTD/svg11.dtd">
<svg version="1.1" id="Layer_1" xmlns="http://www.w3.org/2000/svg" xmlns:xlink="http://www.w3.org/1999/xlink" x="0px" y="0px"
	 width="501.281px" height="217px" viewBox="0 0 501.281 217" enable-background="new 0 0 501.281 217" xml:space="preserve">
<g>
	<g>
		<path fill-rule="evenodd" clip-rule="evenodd" fill="#FFFFFF" d="M0.721,217.721c0-72.333,0-144.667,0-217
			c166.775,0,333.55,0,500.326,0c0,72.333,0,144.666,0,217C334.271,217.721,167.496,217.721,0.721,217.721z M178.684,99.093
			c0.148,0,0.296,0,0.444,0c0,8.871,0.011,17.743-0.002,26.614c-0.022,14.617-0.003,29.234-0.143,43.851
			c-0.024,2.575,0.938,3.47,3.336,3.43c5.52-0.093,11.041-0.188,16.561-0.164c29.292,0.123,58.583,0.249,87.875,0.476
			c2.988,0.023,3.91-0.949,3.89-3.934c-0.171-25.207-0.19-50.416-0.282-75.624c-0.076-21.364-0.245-42.727-0.219-64.09
			c0.004-2.82-1.045-3.613-3.561-3.541c-3.957,0.113-7.916,0.173-11.875,0.158c-30.491-0.115-60.982-0.195-91.472-0.464
			c-3.563-0.032-4.672,0.783-4.643,4.518C178.775,53.245,178.684,76.169,178.684,99.093z M149.233,99.367
			c4.5-3.618,5.732-8.198,5.721-13.141c-0.035-15.573-0.326-31.146-0.239-46.718c0.026-4.632,0.917-9.262,6.857-10.31
			c0.647-0.114,1.153-1.027,1.742-1.586c-2.463-2.132-5.632-1.523-8.061,1.22c-2.706,3.056-3.651,6.724-3.646,10.636
			c0.017,15.114,0.11,30.228,0.214,45.34c0.042,6.181-1.247,11.502-8.076,13.584c-0.249,0.075-0.372,0.561-0.682,1.063
			c0.561,0.429,1.036,1.042,1.636,1.212c4.781,1.356,6.546,4.952,6.916,9.433c0.246,2.983,0.151,5.997,0.166,8.997
			c0.063,13.793,0.002,27.588,0.219,41.379c0.079,5.009,1.82,9.464,6.774,11.798c1.813,0.854,3.798,1.433,5.074-1.292
			c-1.746-0.881-3.439-1.476-4.83-2.486c-4.152-3.017-4.095-7.619-4.1-12.069c-0.015-13.324,0.135-26.649,0.081-39.973
			C154.973,110.32,155.002,104.069,149.233,99.367z M322.867,137.066c3.164,0,5.527-0.012,7.891,0.002
			c15.956,0.092,31.912,0.203,47.869,0.236c0.774,0.002,1.551-0.664,2.325-1.019c-0.737-0.571-1.448-1.187-2.229-1.691
			c-0.263-0.17-0.703-0.08-1.063-0.08c-16.434-0.016-32.867-0.021-49.301-0.053c-1.48-0.004-2.961-0.18-4.919-0.306
			c1.206-1.752,2.057-2.987,2.907-4.223c-0.226-0.255-0.452-0.509-0.678-0.763c-6.105,2.011-12.212,4.021-18.317,6.03
			c-0.01,0.336-0.019,0.672-0.027,1.008c6.297,2.108,12.593,4.216,18.89,6.324c0.199-0.258,0.399-0.517,0.598-0.774
			C325.688,140.422,324.563,139.083,322.867,137.066z M378.563,64.541c-0.064-0.556-0.128-1.112-0.191-1.668
			c-18.168,0-36.336,0-55.441,0c1.509-2.237,2.367-3.509,3.225-4.78c-0.141-0.256-0.279-0.512-0.42-0.768
			c-6.188,2.008-12.375,4.016-18.563,6.024c-0.026,0.31-0.053,0.62-0.079,0.931c6.292,2.093,12.585,4.186,18.877,6.28
			c0.202-0.235,0.403-0.47,0.605-0.705c-1.172-1.39-2.345-2.78-3.843-4.555c1.358-0.127,2.251-0.287,3.143-0.281
			c16.295,0.118,32.589,0.276,48.884,0.352C376.025,65.376,377.294,64.831,378.563,64.541z M424.08,133.513
			c-1.067,0.075-1.754,0.248-2.398,0.148c-5.257-0.81-9.64,2.898-9.706,8.259c-0.023,1.949,0.725,3.611,2.857,3.202
			c4.285-0.822,8.449-0.354,12.703,0.146c3.628,0.425,5.217-2.325,3.536-5.59c-0.721-1.4-1.501-2.77-2.255-4.152
			c0.226-0.167,0.451-0.335,0.677-0.502c0.998,0.593,1.997,1.187,3.917,2.327c-0.406-1.811-0.58-3.498-0.821-3.508
			c-1.834-0.074-3.758-0.064-5.48,0.473c-0.546,0.171-0.989,2.139-0.729,3.075c0.366,1.315,1.57,2.373,2.141,3.664
			c0.274,0.62-0.083,1.52-0.153,2.292c-0.712-0.2-1.449-0.337-2.128-0.617c-1.033-0.428-2.026-0.955-3.854-1.833
			C422.776,139.198,423.392,136.517,424.08,133.513z M410.555,135.761c-1.809,0-3.491,0-5.438,0c0.327,0.99,0.788,1.677,0.72,2.307
			c-0.222,2.056,0.126,4.577-2.75,5.157c-2.874,0.578-4.534-0.912-5.362-3.55c-0.961-3.063,0.707-7.603,3.373-9.164
			c3.648-2.138,5.146-1.778,9.133,2.679c0.408-2.172,0.723-3.845,1.065-5.669c-2.34-0.196-4.005-0.389-5.674-0.469
			c-5.528-0.267-10.836,4.112-11.659,9.579c-0.599,3.973,2.057,7.986,5.779,8.734c4.807,0.966,7.7-0.651,9.03-4.958
			C409.215,138.972,409.845,137.594,410.555,135.761z M263.056,195.781c0.319,0.144,0.639,0.287,0.958,0.431
			c-0.468,1.701-1.065,3.38-1.348,5.111c-0.144,0.872,0.285,1.838,0.455,2.761c0.77-0.58,1.794-1.003,2.26-1.768
			c1.31-2.147,2.39-4.436,3.561-6.667c0.354,0.157,0.708,0.314,1.062,0.472c-0.5,1.765-1.129,3.507-1.448,5.304
			c-0.164,0.922,0.04,2.04,0.469,2.866c0.146,0.284,1.751,0.248,2.21-0.169c0.659-0.6,1.035-1.646,1.243-2.567
			c0.247-1.093,0.255-2.256,0.245-3.388c-0.015-1.68-0.137-3.358-0.213-5.037c-1.547,0.215-3.093,0.43-4.013,0.559
			c-3.712-0.361-6.917-0.672-9.674-0.94c-0.954,4.301-1.743,7.858-2.532,11.416c0.488,0.233,0.975,0.466,1.463,0.7
			C259.521,201.836,261.288,198.809,263.056,195.781z M39.909,122.815c0.485-2.903,0.954-4.913,1.108-6.947
			c0.083-1.094-0.069-2.475-0.7-3.25c-0.358-0.44-1.896,0.095-2.905,0.166c-0.848,0.06-1.705,0.173-2.545,0.108
			c-2.863-0.225-5.72-0.519-8.046-0.736c-0.938,4.26-1.721,7.815-2.644,12.006c5.316-1.42,3.63-7.454,8.281-9.199
			c-0.678,2.059-1.362,3.625-1.676,5.263c-0.21,1.098,0.105,2.297,0.185,3.451c0.887-0.843,1.965-1.559,2.621-2.553
			c1.271-1.927,2.305-4.011,3.437-6.029c0.298,0.169,0.596,0.337,0.895,0.505c-0.54,2.702-1.079,5.405-1.812,9.076
			C38.394,123.558,39.434,123.048,39.909,122.815z M50.666,112.227c0.756,2.63,1.762,4.573,1.75,6.51
			c-0.014,2.098-1.72,3.027-3.883,2.478c-2.28-0.578-1.773-2.144-1.257-3.698c0.513-1.542,1.019-3.088,1.641-4.975
			c-1.618,0-2.701,0-3.388,0c-0.719,3.174-1.489,5.939-1.892,8.757c-0.114,0.799,0.89,2.533,1.295,2.507
			c2.814-0.18,5.605-0.712,8.868-1.201c2.155,2.336,2.804,2.271,4.247-0.161c-0.82-2.218-2.07-3.896-1.769-5.221
			c0.36-1.586,2.046-2.87,3.504-4.726c-1.464,0.272-2.939,0.546-4.299,0.799C53.906,112.944,52.277,112.583,50.666,112.227z
			 M44.51,84.3c-0.254-0.157-0.509-0.313-0.763-0.47c0.443-1.321,1.037-2.613,1.282-3.97c0.196-1.086-0.03-2.249-0.069-3.378
			c-1.083,0.055-2.167,0.109-2.986,0.151c-0.223,2.314-0.187,4.121-0.607,5.813c-0.663,2.673-1.759,5.238-2.413,7.912
			c-0.299,1.225,0.02,2.599,0.058,3.905c0.842-0.897,1.763-1.732,2.508-2.703c1.56-2.034,3.026-4.14,4.532-6.216
			c0.379,0.238,0.759,0.476,1.138,0.714c-0.601,1.898-1.406,3.767-1.708,5.711c-0.134,0.868,0.748,1.894,1.168,2.847
			c1.061-0.812,2.748-1.44,3.052-2.476c0.603-2.051,0.572-4.328,0.537-6.506c-0.016-0.981-0.41-2.346-1.113-2.813
			c-0.643-0.426-1.969,0.004-2.926,0.286C45.574,83.293,45.069,83.888,44.51,84.3z M201.043,186.421
			c-1.841,0.082-3.64,0.163-5.269,0.236c0,6.066,0,11.639,0,17.211c0.253,0.168,0.505,0.335,0.758,0.502
			c4.439-5.667,8.879-11.334,13.491-17.221c-2.127-0.903-3.837-1.892-5.113,0.853c-1.221,2.626-2.648,5.155-3.985,7.728
			c-0.518-0.212-1.036-0.423-1.555-0.634C199.888,192.414,200.404,189.733,201.043,186.421z M408.803,53.812
			c-0.847,0.591-1.522,0.868-1.911,1.367c-3.36,4.321-6.696,8.662-9.96,13.056c-0.516,0.693-0.777,1.672-0.84,2.542
			c-0.018,0.238,1.372,0.956,1.664,0.765c0.745-0.489,1.492-1.276,1.779-2.104c0.921-2.667,2.108-4.595,5.777-3.005
			c-0.477,1.554-0.938,3.057-1.479,4.818c1.922,0,3.603,0,4.969,0C408.803,65.389,408.803,59.803,408.803,53.812z M447.165,53.599
			c-1.542,5.486-2.909,10.135-4.114,14.826c-0.224,0.868,0.207,1.904,0.336,2.861c0.745-0.686,1.799-1.233,2.178-2.083
			c1.203-2.701,2.084-5.577,6.18-6.557c-0.736,2.236-1.435,3.968-1.844,5.766c-0.192,0.846-0.054,1.955,0.382,2.672
			c0.208,0.342,1.76,0.364,2.173-0.027c0.661-0.629,1.045-1.686,1.25-2.627c0.266-1.219,0.333-2.503,0.319-3.758
			c-0.018-1.561-0.204-3.12-0.318-4.679c-1.511,0.356-3.021,0.71-4.53,1.07c-0.308,0.074-0.61,0.169-1.307,0.365
			c0.532-1.736,1.066-3.154,1.382-4.619c0.21-0.977,0.501-2.322,0.025-2.94C448.871,53.342,447.423,53.619,447.165,53.599z
			 M39.292,81.52c1.866-3.813,1.511-4.479-2.172-4.529c-2.271-0.031-4.544-0.022-6.814-0.085c-3.207-0.09-4.391,1.503-4.093,4.868
			c1.771-0.861,3.27-1.589,4.768-2.318c0.271,0.263,0.542,0.524,0.814,0.787c-1.682,4.681-3.364,9.362-5.102,14.201
			c1.664,0,3.868,0,5.682,0c0-2.104-0.194-3.899,0.052-5.633c0.268-1.881,0.938-3.707,1.447-5.552
			C35.042,79.024,35.832,78.734,39.292,81.52z M119.277,91.286c2.526-1.524,4.541-2.361,5.998-3.772
			c0.779-0.756,1.184-2.845,0.682-3.706c-0.501-0.86-2.402-1.408-3.587-1.261c-2.597,0.322-6.036,4.531-6.277,7.211
			c-0.217,2.411-0.051,4.792,2.934,5.309c2.946,0.51,5.139-0.727,6.367-3.633c-1.126-0.229-2.052,0.14-3.002,0.22
			C121.553,91.724,120.688,91.47,119.277,91.286z M55.015,91.657c-0.038-0.3-0.075-0.6-0.112-0.9c1.805-1.02,3.863-1.772,5.32-3.157
			c0.885-0.842,0.841-2.661,1.214-4.041c-1.398-0.341-2.873-1.143-4.18-0.928c-2.652,0.434-5.704,4.563-5.84,7.496
			c-0.099,2.111,0.14,4.297,2.875,4.549c2.623,0.242,5.141-0.064,6.418-3.619C58.453,91.295,56.734,91.477,55.015,91.657z
			 M243.953,190.211c1.286-0.133,2.379-0.032,3.277-0.402c0.833-0.345,1.458-1.193,2.175-1.819c-0.714-0.484-1.37-1.153-2.157-1.401
			c-0.762-0.239-2.037-0.4-2.431,0.02c-1.45,1.546-2.789,3.258-3.809,5.105c-0.301,0.545,0.367,2.309,0.974,2.551
			c2.648,1.057,3.523,2.78,2.604,5.378c-0.877,2.48-2.686,2.624-4.964,1.955c-0.577-0.17-1.469,0.739-2.216,1.151
			c0.61,0.63,1.122,1.637,1.847,1.825c3.176,0.826,5.669-0.474,7.328-3.155C249.047,197.432,248.574,195.517,243.953,190.211z
			 M86.468,83.49c-2.051-0.317-3.601-0.558-4.481-0.693c-0.757,3.422-1.42,6.013-1.863,8.639c-0.155,0.919,0.229,1.931,0.367,2.899
			c0.757-0.697,1.662-1.291,2.244-2.111c1.546-2.182,2.954-4.461,4.416-6.703c0.455,0.248,0.909,0.496,1.363,0.743
			c-0.559,1.76-1.225,3.494-1.628,5.288c-0.188,0.836-0.111,1.941,0.322,2.624c0.231,0.366,1.738,0.414,2.192,0.034
			c0.702-0.588,1.225-1.62,1.405-2.544c0.237-1.219,0.089-2.516,0.068-3.779c-0.026-1.569-0.093-3.137-0.143-4.706
			C89.209,83.291,87.687,83.401,86.468,83.49z M99.697,122.123c-0.185-0.42-0.37-0.839-0.555-1.259
			c-1.78,0.199-3.56,0.398-5.339,0.597c-0.071-0.336-0.142-0.673-0.212-1.009c1.922-1.08,4.036-1.933,5.687-3.332
			c0.852-0.723,1.412-2.571,1.104-3.617c-0.222-0.751-2.101-1.4-3.236-1.392c-1.225,0.008-2.643,0.579-3.628,1.35
			c-2.51,1.963-3.845,4.767-3.182,7.869c0.275,1.286,2.191,3.215,3.231,3.136C95.658,124.309,97.659,122.972,99.697,122.123z
			 M72.549,91.664c0.014-0.361,0.028-0.722,0.042-1.083c1.655-0.907,3.581-1.54,4.872-2.815c0.885-0.875,0.888-2.645,1.285-4.014
			c-1.479-0.36-3.1-1.29-4.409-0.965c-3.104,0.771-5.509,4.715-5.544,8.043c-0.026,2.461,1.025,3.846,3.568,3.975
			c2.694,0.135,4.55-0.865,5.918-3.718C75.852,91.332,74.2,91.498,72.549,91.664z M68.397,113.287c-0.1,0.319-0.2,0.639-0.301,0.957
			c2.907,2.007,1.313,4.207,0.609,6.4c-0.729,2.27,0.444,3.879,2.43,3.214c1.641-0.549,3.143-1.774,4.597,0.223
			c0.899-0.886,2.246-1.624,2.597-2.69c0.558-1.695,0.53-3.607,0.6-5.435c0.042-1.134-0.194-2.278-0.305-3.419
			c-0.751,0.78-1.666,1.459-2.222,2.359c-1.263,2.045-2.35,4.198-3.508,6.307c-0.376-0.161-0.752-0.322-1.129-0.484
			c0.358-1.287,0.898-2.557,1.025-3.866c0.136-1.403-0.117-2.843-0.199-4.267C71.193,112.819,69.795,113.053,68.397,113.287z
			 M463.117,133.23c-0.989,4.43-1.774,7.943-2.561,11.456c0.353,0.222,0.703,0.443,1.056,0.665c2.262-3.171,4.524-6.34,6.785-9.511
			c0.385,0.208,0.769,0.415,1.153,0.623c-0.604,2.121-1.361,4.217-1.723,6.379c-0.121,0.724,0.77,1.617,1.197,2.434
			c0.923-0.632,2.462-1.118,2.651-1.923c0.556-2.365,0.604-4.854,0.797-7.3c0.172-2.169-1.145-2.815-2.954-2.428
			c-0.991,0.213-1.865,0.965-2.356,1.233C465.602,134.231,464.34,133.723,463.117,133.23z M476.833,142.721
			c-0.041-0.455-0.081-0.911-0.122-1.367c1.877-0.891,3.986-1.499,5.542-2.779c0.94-0.774,1.592-2.745,1.287-3.889
			c-0.202-0.755-2.373-1.475-3.594-1.375c-3.766,0.308-7.167,5.817-6.149,9.479c0.701,2.523,2.684,2.895,4.774,2.695
			c2.522-0.241,3.843-1.685,3.777-3.373C480.523,142.313,478.678,142.518,476.833,142.721z M430.358,66.56
			c-0.032,3.25,1.677,5.339,4.395,5.37c3.084,0.036,7.147-4.314,7.206-7.714c0.05-2.889-1.82-4.931-4.481-4.891
			C434.221,59.375,430.392,63.266,430.358,66.56z M467.192,64.446c0.074-3.128-1.524-5.03-4.273-5.083
			c-3.286-0.063-7.045,3.927-7.253,7.702c-0.15,2.711,1.633,4.806,4.166,4.897C463.329,72.087,467.103,68.234,467.192,64.446z
			 M446.065,137.99c0.079-2.455-2.003-4.955-4.186-5.026c-3.278-0.108-7.23,3.888-7.426,7.509c-0.179,3.309,1.163,4.873,4.202,4.9
			C442.354,145.406,445.942,141.83,446.065,137.99z M472.322,53.801c-1.43,5.128-2.837,10-4.11,14.907
			c-0.203,0.784-0.066,1.922,0.397,2.523c0.323,0.42,1.656,0.524,2.207,0.202c0.827-0.483,2.081-1.719,1.912-2.191
			c-1.627-4.558,1.254-8.298,2.071-12.373C475.456,53.592,475.252,53.195,472.322,53.801z M425.696,61.438
			c1.324,0.717,2.301,1.245,3.278,1.773c0.231-0.628,0.809-1.675,0.637-1.816c-0.982-0.812-2.102-1.885-3.25-1.984
			c-2.698-0.232-6.256,2.871-6.927,5.818c-0.586,2.569-0.645,5.186,2.407,6.326c2.573,0.96,4.919-0.574,5.929-3.145
			c-1.814-0.37-5.058-0.301-5.375-1.23C421.433,64.355,423.297,62.308,425.696,61.438z M450.057,127.147
			c0,2.125,0.257,3.524-0.048,4.787c-0.865,3.574-2.026,7.077-2.907,10.647c-0.184,0.747,0.104,1.885,0.616,2.428
			c0.311,0.331,1.726,0.137,2.178-0.304c0.638-0.62,1.046-1.655,1.18-2.568c0.154-1.046-0.354-2.21-0.126-3.222
			c0.628-2.777,1.536-5.489,2.237-8.252c0.273-1.077,0.293-2.22,0.428-3.333C452.415,127.27,451.215,127.207,450.057,127.147z
			 M418.791,55.173c-0.492-0.506-1.111-1.142-1.729-1.778c-0.469,0.731-1.097,1.409-1.365,2.207
			c-0.331,0.981-0.245,2.098-0.544,3.094c-0.995,3.317-2.157,6.587-3.074,9.924c-0.216,0.781,0.277,1.759,0.445,2.646
			c0.995-0.189,2.165-0.125,2.931-0.649c0.587-0.403,0.855-1.532,0.928-2.367c0.134-1.529-0.243-3.133,0.061-4.609
			C416.99,60.969,417.882,58.367,418.791,55.173z M82.344,112.693c-0.618,2.721-1.263,5.187-1.706,7.688
			c-0.192,1.082,0.031,2.237,0.066,3.359c0.871-0.819,2.049-1.484,2.55-2.488c1.2-2.403,1.519-5.449,5.295-5.411
			c0.37,0.004,0.951-1.467,1.042-2.297c0.038-0.348-0.944-1.151-1.467-1.156C86.056,112.372,83.983,112.59,82.344,112.693z
			 M67.522,109.961c-0.495-0.169-0.99-0.337-1.486-0.506c-4.733,2.955-3.775,8.426-5.248,12.803
			c-0.078,0.232,1.897,1.693,2.395,1.461c0.854-0.397,1.616-1.607,1.842-2.606c0.491-2.169,0.496-4.446,0.94-6.63
			C66.281,112.934,66.989,111.465,67.522,109.961z M276.626,185.796c0.887,1.843,1.444,3.001,1.911,3.975
			c-1.718,0.714-2.931,1.217-4.143,1.721c0.368,0.547,0.828,1.605,1.09,1.559c1.653-0.295,3.294-0.754,4.866-1.351
			c0.411-0.157,0.732-0.973,0.808-1.525c0.303-2.21,0.719-4.448,0.604-6.65c-0.043-0.808-1.338-1.938-2.262-2.191
			c-0.756-0.207-1.809,0.669-2.729,1.065c0.475,0.723,0.949,1.446,1.558,2.374C277.924,185.015,277.137,185.488,276.626,185.796z
			 M98.968,80.653c-0.461-0.18-0.921-0.36-1.382-0.542c-1.254,1.061-3.214,1.905-3.62,3.228c-0.942,3.068-1.243,6.357-1.526,9.581
			c-0.048,0.543,1.286,1.209,1.982,1.818c0.789-0.958,1.99-1.806,2.28-2.897c0.566-2.132,0.525-4.417,0.926-6.604
			C97.914,83.68,98.51,82.18,98.968,80.653z M108.053,83.348c-0.593,2.528-1.306,4.939-1.673,7.401
			c-0.179,1.203,0.286,2.501,0.46,3.757c0.739-0.876,1.5-1.735,2.212-2.631c1.403-1.766,2.471-4.574,4.234-5.107
			c3.23-0.978,2.236-2.183,1.65-3.419C112.103,83.348,109.764,83.348,108.053,83.348z M102.214,82.985
			c-0.818,3.417-1.585,6.259-2.131,9.141c-0.15,0.79,0.127,1.927,0.655,2.479c0.324,0.339,1.689,0.12,2.233-0.303
			c0.632-0.491,1.12-1.445,1.24-2.261c0.298-2.027,0.098-4.149,0.563-6.124C105.44,83.1,104.547,82.386,102.214,82.985z
			 M458.522,132.557c-1.298,1.089-2.256,1.488-2.394,2.078c-0.623,2.651-1.117,5.345-1.418,8.05
			c-0.088,0.78,0.622,1.649,0.966,2.478c0.978-0.84,2.536-1.523,2.811-2.551c0.587-2.192,0.567-4.561,0.666-6.862
			C459.188,134.935,458.845,134.104,458.522,132.557z M230.188,194.574c-3.075-2.639-12.367-2.501-14.239,0
			C220.666,194.574,225.109,194.574,230.188,194.574z M216.044,197.771c2.212,1.77,10.984,1.862,13.603,0.144
			C227.146,196.067,218.416,195.975,216.044,197.771z"/>
		<path fill-rule="evenodd" clip-rule="evenodd" d="M178.684,99.093c0-22.923,0.091-45.848-0.091-68.771
			c-0.029-3.735,1.08-4.55,4.643-4.518c30.489,0.269,60.981,0.349,91.472,0.464c3.959,0.015,7.918-0.044,11.875-0.158
			c2.516-0.072,3.564,0.72,3.561,3.541c-0.026,21.363,0.143,42.727,0.219,64.09c0.092,25.208,0.111,50.417,0.282,75.624
			c0.021,2.984-0.901,3.957-3.89,3.934c-29.291-0.227-58.583-0.353-87.875-0.476c-5.52-0.023-11.041,0.071-16.561,0.164
			c-2.398,0.04-3.36-0.854-3.336-3.43c0.14-14.616,0.121-29.233,0.143-43.851c0.013-8.871,0.002-17.743,0.002-26.614
			C178.98,99.093,178.832,99.093,178.684,99.093z M185.491,157.053c-0.836,0.998-1.674,1.997-2.511,2.996
			c0.263,0.232,0.524,0.467,0.786,0.699c0.708-0.426,1.417-0.851,2.121-1.274c0.822,0.992,1.481,1.787,2.377,2.868
			c0.472-1.23,0.824-2.148,0.979-2.553c-1.511-1.042-2.682-1.85-3.853-2.657c-0.092-0.589-0.184-1.177-0.371-2.37
			c2.262,1.273,4.186,2.356,6.371,3.587c-1.079,3.424,4.342,7.927-2.249,11.025c7.021,0,13.527,0,20.035,0
			c0.021-0.431,0.043-0.861,0.065-1.292c-1.54-0.094-3.102-0.396-4.614-0.237c-3.074,0.322-3.949-1.651-4.904-3.647
			c0.227-0.279,0.454-0.558,0.68-0.837c1.146,0.922,2.292,1.844,3.732,3.003c2.476-1.174,5.104-2.42,8.287-3.93
			c-0.808,1.281-1.3,2.061-1.968,3.121c1.694,0.141,3.049,0.254,4.318,0.359c0.411-1.534,0.701-2.612,1.194-4.452
			c0.559,2.343,0.92,3.856,1.326,5.559c-1.758,0.765-3.335,1.451-5.915,2.572c4.397,0,7.697,0,10.539,0
			c0.318-1.46,0.383-2.769,0.906-3.856c0.465-0.967,1.438-1.688,2.352-2.701c0.567,0.516,1.611,1.466,1.942,1.768
			c2.53,0.148,4.201,0.247,5.51,0.323c0.666-1.338,1.057-3.515,2.15-3.958c1.243-0.504,4.326,0.236,4.51,0.965
			c1.024,4.06,4.309,2.855,6.832,3.644c3.301,1.032,3.819-0.225,2.881-3.239c1.085-0.142,1.97-0.258,2.966-0.389
			c-1.051,3.454-0.425,4.168,2.934,3.66c1.185-0.18,2.377-0.344,3.543-0.611c2.419-0.554,2.784-0.271,3.162,2.667
			c-2.429-0.34-4.867-0.68-8.067-1.127c0.739,1.292,1.068,2.464,1.478,2.492c6.074,0.425,12.158,0.698,18.24,1.007
			c0.034-0.417,0.068-0.835,0.103-1.252c-2.022-0.285-4.066-0.47-6.064-0.877c-3.945-0.803-4.087-1.082-3.108-2.982
			c5.051,0.286,9.677,0.549,14.343,0.813c0-2.125,0-3.413,0-4.595c2.337-1.604,6.36,0.529,7.427-3.869
			c-1.245-0.094-2.25-0.169-3.256-0.245c-0.135-0.391-0.269-0.781-0.403-1.173c1.185-0.464,2.37-0.927,3.838-1.501
			c1.558-5.282,1.51-5.479-1.715-5.646c-0.065,1.274-0.129,2.55-0.188,3.719c-1.646,0.426-3.064,0.794-5.437,1.407
			c1.66-1.894,2.673-3.049,3.758-4.285c-0.979-1.073-1.759-1.929-2.516-2.758c0.741-1.153,1.372-2.136,2.001-3.116
			c1.595,1.018,3.041,1.94,5.021,3.205c0-5.442,0.032-10.416-0.012-15.391c-0.025-2.919-1.418-2.778-3.481-1.46
			c0.574,0.858,1.039,1.554,1.911,2.856c-1.807-0.519-2.899-0.832-4.097-1.177c0.161-1.313,0.288-2.334,0.405-3.277
			c-0.82-0.073-1.412-0.127-2.003-0.181c-0.039-0.455-0.078-0.911-0.117-1.368c2.127-0.287,4.254-0.576,6.645-0.9
			c0.188-1.337,0.486-3.475,0.897-6.407c-8.213,0-16.337,0.038-24.459-0.014c-5.362-0.034-10.725-0.313-16.085-0.277
			c-9.51,0.065-19.021,0.237-28.526,0.515c-1.014,0.029-2,1.056-3.036,1.64c-1.819-2.349-27.003-3.35-32.311-1.156
			c7.122,6.91,5.891,6.524,4.021,9.636c2.265,3.201,1.904,4.393-1.841,6.074c-2.473,1.11-2.836,2.876-1.324,5.138
			c2.205,3.299,4.397,2.155,6.975,0.426c-1.099,1.327-2.198,2.652-3.417,4.125c1.299,0.234,2.487,0.45,4.025,0.729
			c-1.35,1.029-2.436,1.704-3.323,2.579c-0.771,0.76-1.317,1.746-2.251,3.029c-0.669-1.743-1.006-2.62-1.343-3.497
			c-0.398,0.041-0.797,0.083-1.195,0.125c0,1.907-0.258,3.866,0.107,5.7C183.411,155.494,184.705,156.222,185.491,157.053z
			 M285.642,74.423c0.221-0.789,0.992-2.352,1.038-3.936c0.165-5.758,0.066-11.524,0.109-17.286
			c0.047-6.182,0.139-12.363,0.218-18.544c0.055-4.316-1.489-5.371-6.349-4.992c-4.017,0.313-8.072,0.328-12.104,0.215
			c-4.442-0.123-8.874-0.607-13.315-0.8c-1.643-0.072-3.3,0.239-4.95,0.373c-6.879,0.557-13.919-1.733-20.68,1.33
			c-1.677,0.761-3.248,0.123-5.135-0.752c-3.086-1.431-6.774-1.971-10.276-0.027c-0.943,0.523-2.446,0.186-3.66,0.016
			c-0.755-0.106-1.428-0.876-2.175-0.946c-7.092-0.668-14.198,0.712-21.304-0.057c-0.5-0.054-1.173,0.706-1.632,1.209
			c-1.117,1.225-2.154,2.521-3.608,4.247c0.61,0.677,1.494,1.657,2.3,2.552c-0.609,0.451-1.379,1.022-2.625,1.945
			c1.739,0.56,2.834,0.914,3.93,1.267c-0.032,0.165-0.065,0.33-0.098,0.494c-0.97,0.064-1.94,0.128-2.834,0.188
			c-1.07,4.191,1.15,6.138,4.385,7.553c-1.234-0.174-2.468-0.35-4.304-0.609c0.993,4.483-1.741,8.919,1.677,12.809
			c-2.779,3.556-2.784,10.57-0.009,14.185c-3.928,6.882-0.219,13.937-0.821,20.841c1.025-0.629,1.822-1.119,2.619-1.609
			c-0.105,0.93-0.042,1.923-0.365,2.77c-0.329,0.865-1.129,1.538-1.554,2.38c-0.567,1.124-1.297,2.307-1.381,3.505
			c-0.241,3.419-0.384,6.873-0.132,10.281c0.072,0.983,1.504,2.494,2.497,2.659c2.565,0.427,5.233,0.281,7.86,0.289
			c26.069,0.081,52.138,0.149,78.207,0.215c5.32,0.013,10.641,0.002,16.282,0.002c-0.279-4.494-0.972-8.335-0.585-12.064
			c0.25-2.393,0.482-4.022-1.556-4.524c0.64-1.244,1.493-2.199,1.591-3.226c0.299-3.141,0.57-6.329,0.362-9.465
			C287,82.919,286.257,78.963,285.642,74.423z M242.618,168.263c-2.491,0-4.946,0-7.401,0
			C238.733,170.622,242.222,170.189,242.618,168.263z"/>
		<path fill-rule="evenodd" clip-rule="evenodd" d="M149.233,99.367c5.77,4.702,5.74,10.953,5.765,17.088
			c0.054,13.323-0.096,26.648-0.081,39.973c0.005,4.45-0.052,9.053,4.1,12.069c1.391,1.011,3.084,1.605,4.83,2.486
			c-1.275,2.725-3.261,2.146-5.074,1.292c-4.954-2.334-6.695-6.789-6.774-11.798c-0.217-13.791-0.157-27.586-0.219-41.379
			c-0.014-3,0.081-6.014-0.166-8.997c-0.37-4.481-2.134-8.077-6.916-9.433c-0.6-0.17-1.075-0.783-1.636-1.212
			c0.31-0.501,0.433-0.987,0.682-1.063c6.829-2.083,8.118-7.403,8.076-13.584c-0.104-15.113-0.197-30.227-0.214-45.34
			c-0.004-3.912,0.94-7.58,3.646-10.636c2.429-2.743,5.598-3.353,8.061-1.22c-0.588,0.559-1.094,1.472-1.742,1.586
			c-5.94,1.047-6.831,5.677-6.857,10.31c-0.087,15.571,0.204,31.145,0.239,46.718C154.965,91.169,153.732,95.749,149.233,99.367z"/>
		<path fill-rule="evenodd" clip-rule="evenodd" d="M322.867,137.066c1.695,2.017,2.82,3.355,3.945,4.692
			c-0.198,0.258-0.398,0.517-0.598,0.774c-6.297-2.108-12.593-4.216-18.89-6.324c0.009-0.336,0.018-0.672,0.027-1.008
			c6.105-2.01,12.212-4.02,18.317-6.03c0.226,0.254,0.452,0.508,0.678,0.763c-0.851,1.235-1.701,2.471-2.907,4.223
			c1.958,0.126,3.438,0.302,4.919,0.306c16.434,0.031,32.867,0.037,49.301,0.053c0.359,0,0.8-0.09,1.063,0.08
			c0.781,0.505,1.492,1.12,2.229,1.691c-0.774,0.354-1.551,1.021-2.325,1.019c-15.957-0.033-31.913-0.145-47.869-0.236
			C328.395,137.055,326.031,137.066,322.867,137.066z"/>
		<path fill-rule="evenodd" clip-rule="evenodd" d="M378.563,64.541c-1.269,0.29-2.537,0.835-3.804,0.83
			c-16.295-0.076-32.589-0.234-48.884-0.352c-0.892-0.006-1.784,0.154-3.143,0.281c1.498,1.775,2.671,3.166,3.843,4.555
			c-0.202,0.234-0.403,0.47-0.605,0.705c-6.292-2.094-12.585-4.187-18.877-6.28c0.026-0.311,0.053-0.621,0.079-0.931
			c6.188-2.008,12.375-4.016,18.563-6.024c0.141,0.255,0.279,0.512,0.42,0.768c-0.857,1.271-1.716,2.543-3.225,4.78
			c19.105,0,37.273,0,55.441,0C378.435,63.429,378.498,63.985,378.563,64.541z"/>
		<path fill-rule="evenodd" clip-rule="evenodd" d="M424.08,133.513c-0.688,3.004-1.304,5.686-1.693,7.384
			c1.827,0.878,2.82,1.405,3.854,1.833c0.679,0.28,1.416,0.417,2.128,0.617c0.07-0.772,0.428-1.672,0.153-2.292
			c-0.57-1.291-1.774-2.349-2.141-3.664c-0.261-0.937,0.183-2.904,0.729-3.075c1.723-0.537,3.646-0.547,5.48-0.473
			c0.241,0.01,0.415,1.697,0.821,3.508c-1.92-1.141-2.919-1.734-3.917-2.327c-0.226,0.167-0.451,0.335-0.677,0.502
			c0.754,1.383,1.534,2.752,2.255,4.152c1.681,3.265,0.092,6.015-3.536,5.59c-4.254-0.499-8.418-0.968-12.703-0.146
			c-2.133,0.409-2.881-1.253-2.857-3.202c0.066-5.36,4.449-9.068,9.706-8.259C422.326,133.761,423.013,133.588,424.08,133.513z
			 M420.134,135.133c-4.39,1.043-5.929,4.156-4.027,7.682C419.192,141.268,420.774,139,420.134,135.133z"/>
		<path fill-rule="evenodd" clip-rule="evenodd" d="M410.555,135.761c-0.71,1.833-1.34,3.211-1.783,4.646
			c-1.33,4.307-4.224,5.924-9.03,4.958c-3.723-0.748-6.378-4.762-5.779-8.734c0.823-5.467,6.131-9.846,11.659-9.579
			c1.669,0.08,3.334,0.272,5.674,0.469c-0.343,1.824-0.657,3.497-1.065,5.669c-3.986-4.457-5.484-4.816-9.133-2.679
			c-2.666,1.562-4.334,6.102-3.373,9.164c0.828,2.638,2.488,4.128,5.362,3.55c2.876-0.58,2.528-3.102,2.75-5.157
			c0.068-0.63-0.393-1.316-0.72-2.307C407.063,135.761,408.746,135.761,410.555,135.761z"/>
		<path fill-rule="evenodd" clip-rule="evenodd" d="M263.056,195.781c-1.768,3.027-3.535,6.055-5.303,9.083
			c-0.488-0.234-0.975-0.467-1.463-0.7c0.789-3.558,1.578-7.115,2.532-11.416c2.757,0.269,5.962,0.579,9.674,0.94
			c0.92-0.129,2.466-0.344,4.013-0.559c0.076,1.679,0.198,3.357,0.213,5.037c0.01,1.132,0.002,2.295-0.245,3.388
			c-0.208,0.921-0.584,1.968-1.243,2.567c-0.459,0.417-2.063,0.453-2.21,0.169c-0.429-0.826-0.633-1.944-0.469-2.866
			c0.319-1.797,0.948-3.539,1.448-5.304c-0.354-0.157-0.707-0.314-1.062-0.472c-1.171,2.231-2.251,4.52-3.561,6.667
			c-0.466,0.765-1.49,1.188-2.26,1.768c-0.17-0.923-0.599-1.889-0.455-2.761c0.282-1.731,0.88-3.41,1.348-5.111
			C263.694,196.068,263.375,195.925,263.056,195.781z"/>
		<path fill-rule="evenodd" clip-rule="evenodd" d="M39.909,122.815c-0.475,0.232-1.516,0.742-3.801,1.859
			c0.733-3.671,1.272-6.374,1.812-9.076c-0.298-0.168-0.597-0.336-0.895-0.505c-1.132,2.019-2.166,4.103-3.437,6.029
			c-0.656,0.994-1.734,1.71-2.621,2.553c-0.08-1.154-0.395-2.354-0.185-3.451c0.313-1.638,0.998-3.204,1.676-5.263
			c-4.651,1.745-2.965,7.779-8.281,9.199c0.923-4.191,1.706-7.746,2.644-12.006c2.327,0.217,5.184,0.512,8.046,0.736
			c0.84,0.065,1.698-0.048,2.545-0.108c1.009-0.071,2.547-0.605,2.905-0.166c0.631,0.776,0.783,2.157,0.7,3.25
			C40.863,117.902,40.395,119.912,39.909,122.815z"/>
		<path fill-rule="evenodd" clip-rule="evenodd" d="M50.666,112.227c1.611,0.357,3.24,0.718,4.817,1.068
			c1.359-0.253,2.835-0.527,4.299-0.799c-1.458,1.855-3.144,3.14-3.504,4.726c-0.302,1.325,0.948,3.003,1.769,5.221
			c-1.443,2.432-2.092,2.497-4.247,0.161c-3.262,0.489-6.054,1.021-8.868,1.201c-0.406,0.026-1.41-1.708-1.295-2.507
			c0.403-2.817,1.173-5.583,1.892-8.757c0.687,0,1.77,0,3.388,0c-0.622,1.887-1.127,3.433-1.641,4.975
			c-0.517,1.555-1.023,3.12,1.257,3.698c2.163,0.55,3.869-0.38,3.883-2.478C52.428,116.8,51.422,114.856,50.666,112.227z"/>
		<path fill-rule="evenodd" clip-rule="evenodd" d="M44.51,84.3c0.559-0.412,1.064-1.006,1.69-1.191
			c0.957-0.282,2.283-0.712,2.926-0.286c0.703,0.467,1.097,1.832,1.113,2.813c0.035,2.179,0.066,4.456-0.537,6.506
			c-0.304,1.035-1.991,1.664-3.052,2.476c-0.42-0.953-1.302-1.979-1.168-2.847c0.301-1.945,1.107-3.813,1.708-5.711
			c-0.379-0.238-0.759-0.476-1.138-0.714c-1.505,2.076-2.972,4.182-4.532,6.216c-0.745,0.971-1.667,1.806-2.508,2.703
			c-0.039-1.307-0.357-2.681-0.058-3.905c0.653-2.674,1.75-5.239,2.413-7.912c0.42-1.693,0.384-3.5,0.607-5.813
			c0.819-0.042,1.903-0.096,2.986-0.151c0.039,1.129,0.265,2.292,0.069,3.378c-0.245,1.357-0.839,2.649-1.282,3.97
			C44.001,83.986,44.256,84.143,44.51,84.3z"/>
		<path fill-rule="evenodd" clip-rule="evenodd" d="M201.043,186.421c-0.639,3.313-1.155,5.993-1.673,8.675
			c0.519,0.211,1.037,0.422,1.555,0.634c1.336-2.572,2.764-5.102,3.985-7.728c1.275-2.744,2.985-1.756,5.113-0.853
			c-4.612,5.887-9.052,11.554-13.491,17.221c-0.253-0.167-0.505-0.334-0.758-0.502c0-5.572,0-11.145,0-17.211
			C197.403,186.584,199.202,186.503,201.043,186.421z"/>
		<path fill-rule="evenodd" clip-rule="evenodd" d="M408.803,53.812c0,5.991,0,11.577,0,17.439c-1.366,0-3.047,0-4.969,0
			c0.54-1.762,1.002-3.265,1.479-4.818c-3.669-1.59-4.856,0.337-5.777,3.005c-0.287,0.827-1.034,1.615-1.779,2.104
			c-0.292,0.191-1.682-0.526-1.664-0.765c0.063-0.869,0.324-1.848,0.84-2.542c3.264-4.394,6.6-8.734,9.96-13.056
			C407.28,54.68,407.956,54.403,408.803,53.812z"/>
		<path fill-rule="evenodd" clip-rule="evenodd" d="M447.165,53.599c0.258,0.021,1.706-0.257,2.111,0.27
			c0.476,0.618,0.185,1.964-0.025,2.94c-0.315,1.465-0.85,2.883-1.382,4.619c0.696-0.195,0.999-0.291,1.307-0.365
			c1.509-0.36,3.02-0.714,4.53-1.07c0.114,1.56,0.301,3.118,0.318,4.679c0.014,1.254-0.054,2.539-0.319,3.758
			c-0.205,0.941-0.589,1.998-1.25,2.627c-0.413,0.392-1.965,0.37-2.173,0.027c-0.436-0.717-0.574-1.826-0.382-2.672
			c0.409-1.797,1.107-3.53,1.844-5.766c-4.096,0.98-4.977,3.856-6.18,6.557c-0.379,0.849-1.433,1.397-2.178,2.083
			c-0.129-0.958-0.56-1.993-0.336-2.861C444.256,63.734,445.623,59.084,447.165,53.599z"/>
		<path fill-rule="evenodd" clip-rule="evenodd" d="M39.292,81.52c-3.459-2.785-4.25-2.495-5.419,1.738
			c-0.51,1.845-1.179,3.67-1.447,5.552c-0.247,1.733-0.052,3.529-0.052,5.633c-1.813,0-4.018,0-5.682,0
			c1.738-4.839,3.42-9.52,5.102-14.201c-0.271-0.262-0.543-0.524-0.814-0.787c-1.498,0.729-2.996,1.457-4.768,2.318
			c-0.298-3.365,0.886-4.958,4.093-4.868c2.271,0.063,4.543,0.054,6.814,0.085C40.803,77.04,41.157,77.706,39.292,81.52z"/>
		<path fill-rule="evenodd" clip-rule="evenodd" d="M119.277,91.286c1.412,0.184,2.276,0.438,3.114,0.368
			c0.95-0.08,1.875-0.448,3.002-0.22c-1.229,2.906-3.421,4.143-6.367,3.633c-2.985-0.517-3.151-2.898-2.934-5.309
			c0.242-2.681,3.68-6.89,6.277-7.211c1.185-0.147,3.086,0.401,3.587,1.261c0.501,0.861,0.097,2.95-0.682,3.706
			C123.817,88.925,121.803,89.762,119.277,91.286z"/>
		<path fill-rule="evenodd" clip-rule="evenodd" d="M55.015,91.657c1.719-0.18,3.438-0.361,5.694-0.599
			c-1.277,3.555-3.796,3.861-6.418,3.619c-2.735-0.252-2.974-2.438-2.875-4.549c0.137-2.933,3.188-7.062,5.84-7.496
			c1.308-0.215,2.782,0.586,4.18,0.928c-0.373,1.38-0.329,3.198-1.214,4.041c-1.457,1.385-3.515,2.137-5.32,3.157
			C54.94,91.057,54.978,91.357,55.015,91.657z"/>
		<path fill-rule="evenodd" clip-rule="evenodd" d="M243.953,190.211c4.621,5.306,5.094,7.221,2.627,11.207
			c-1.659,2.682-4.152,3.981-7.328,3.155c-0.725-0.188-1.236-1.195-1.847-1.825c0.747-0.412,1.64-1.321,2.216-1.151
			c2.278,0.669,4.087,0.525,4.964-1.955c0.92-2.598,0.044-4.321-2.604-5.378c-0.607-0.242-1.275-2.006-0.974-2.551
			c1.02-1.848,2.358-3.56,3.809-5.105c0.394-0.42,1.669-0.259,2.431-0.02c0.788,0.248,1.443,0.917,2.157,1.401
			c-0.717,0.626-1.341,1.475-2.175,1.819C246.332,190.179,245.239,190.078,243.953,190.211z"/>
		<path fill-rule="evenodd" clip-rule="evenodd" d="M86.468,83.49c1.218-0.088,2.741-0.199,4.262-0.31
			c0.049,1.568,0.116,3.136,0.143,4.706c0.021,1.263,0.168,2.56-0.068,3.779c-0.18,0.924-0.703,1.957-1.405,2.544
			c-0.454,0.379-1.961,0.332-2.192-0.034c-0.433-0.683-0.51-1.787-0.322-2.624c0.403-1.793,1.069-3.528,1.628-5.288
			c-0.455-0.247-0.909-0.495-1.363-0.743c-1.462,2.241-2.87,4.521-4.416,6.703c-0.582,0.821-1.487,1.414-2.244,2.111
			c-0.138-0.969-0.522-1.98-0.367-2.899c0.443-2.626,1.106-5.217,1.863-8.639C82.867,82.932,84.417,83.172,86.468,83.49z"/>
		<path fill-rule="evenodd" clip-rule="evenodd" d="M99.697,122.123c-2.038,0.849-4.04,2.186-6.13,2.343
			c-1.04,0.079-2.956-1.85-3.231-3.136c-0.664-3.103,0.671-5.906,3.182-7.869c0.985-0.771,2.403-1.342,3.628-1.35
			c1.135-0.008,3.014,0.641,3.236,1.392c0.308,1.046-0.252,2.895-1.104,3.617c-1.651,1.399-3.765,2.252-5.687,3.332
			c0.071,0.336,0.142,0.673,0.212,1.009c1.78-0.198,3.56-0.397,5.339-0.597C99.328,121.284,99.512,121.703,99.697,122.123z"/>
		<path fill-rule="evenodd" clip-rule="evenodd" d="M72.549,91.664c1.651-0.166,3.302-0.332,5.732-0.577
			c-1.368,2.853-3.224,3.853-5.918,3.718c-2.543-0.128-3.594-1.513-3.568-3.975c0.035-3.329,2.44-7.272,5.544-8.043
			c1.309-0.325,2.93,0.605,4.409,0.965c-0.397,1.369-0.4,3.139-1.285,4.014c-1.291,1.275-3.217,1.909-4.872,2.815
			C72.577,90.942,72.563,91.303,72.549,91.664z"/>
		<path fill-rule="evenodd" clip-rule="evenodd" d="M68.397,113.287c1.398-0.234,2.796-0.468,4.194-0.702
			c0.083,1.424,0.335,2.864,0.199,4.267c-0.127,1.31-0.667,2.579-1.025,3.866c0.376,0.162,0.753,0.323,1.129,0.484
			c1.158-2.108,2.245-4.262,3.508-6.307c0.556-0.9,1.47-1.579,2.222-2.359c0.111,1.141,0.348,2.285,0.305,3.419
			c-0.069,1.827-0.042,3.739-0.6,5.435c-0.351,1.066-1.697,1.805-2.597,2.69c-1.454-1.997-2.956-0.771-4.597-0.223
			c-1.986,0.665-3.159-0.944-2.43-3.214c0.703-2.193,2.298-4.394-0.609-6.4C68.197,113.926,68.297,113.606,68.397,113.287z"/>
		<path fill-rule="evenodd" clip-rule="evenodd" d="M463.117,133.23c1.223,0.492,2.484,1.001,4.046,1.629
			c0.491-0.269,1.365-1.021,2.356-1.233c1.81-0.388,3.126,0.259,2.954,2.428c-0.192,2.445-0.241,4.935-0.797,7.3
			c-0.189,0.805-1.729,1.291-2.651,1.923c-0.428-0.816-1.318-1.71-1.197-2.434c0.361-2.162,1.119-4.258,1.723-6.379
			c-0.385-0.208-0.769-0.415-1.153-0.623c-2.261,3.171-4.523,6.34-6.785,9.511c-0.353-0.222-0.703-0.443-1.056-0.665
			C461.343,141.174,462.128,137.66,463.117,133.23z"/>
		<path fill-rule="evenodd" clip-rule="evenodd" d="M476.833,142.721c1.845-0.203,3.69-0.407,5.516-0.608
			c0.065,1.688-1.255,3.132-3.777,3.373c-2.091,0.199-4.073-0.172-4.774-2.695c-1.018-3.662,2.384-9.172,6.149-9.479
			c1.221-0.1,3.392,0.62,3.594,1.375c0.305,1.144-0.347,3.114-1.287,3.889c-1.556,1.28-3.665,1.889-5.542,2.779
			C476.752,141.81,476.792,142.266,476.833,142.721z"/>
		<path fill-rule="evenodd" clip-rule="evenodd" d="M430.358,66.56c0.033-3.294,3.862-7.186,7.119-7.235
			c2.661-0.04,4.531,2.002,4.481,4.891c-0.059,3.399-4.122,7.75-7.206,7.714C432.035,71.899,430.326,69.811,430.358,66.56z
			 M432.155,66.629c1.414,1.441,2.145,2.186,2.875,2.93c1.361-1.949,2.823-3.843,3.968-5.913c0.156-0.284-1.271-1.442-1.965-2.196
			C435.52,63.057,434.007,64.664,432.155,66.629z"/>
		<path fill-rule="evenodd" clip-rule="evenodd" d="M467.192,64.446c-0.09,3.789-3.863,7.642-7.36,7.516
			c-2.533-0.091-4.316-2.186-4.166-4.897c0.208-3.775,3.967-7.765,7.253-7.702C465.668,59.416,467.267,61.318,467.192,64.446z
			 M460.609,71.058c1.529-2.874,3.093-4.943,3.725-7.266c0.532-1.957-0.937-2.845-2.888-1.848
			C458.85,63.27,458.029,67.275,460.609,71.058z"/>
		<path fill-rule="evenodd" clip-rule="evenodd" d="M446.065,137.99c-0.123,3.84-3.712,7.416-7.409,7.383
			c-3.039-0.027-4.381-1.592-4.202-4.9c0.195-3.621,4.147-7.617,7.426-7.509C444.063,133.035,446.145,135.535,446.065,137.99z
			 M444.668,137.804c-1.657-1.414-2.577-2.808-3.301-2.712c-3.13,0.412-3.514,3.201-3.856,5.631
			c-0.115,0.813,0.911,1.789,1.416,2.69C440.635,141.744,442.344,140.074,444.668,137.804z"/>
		<path fill-rule="evenodd" clip-rule="evenodd" d="M472.322,53.801c2.93-0.605,3.134-0.209,2.478,3.067
			c-0.817,4.075-3.698,7.815-2.071,12.373c0.169,0.473-1.085,1.708-1.912,2.191c-0.551,0.322-1.884,0.218-2.207-0.202
			c-0.464-0.601-0.601-1.739-0.397-2.523C469.485,63.801,470.893,58.929,472.322,53.801z"/>
		<path fill-rule="evenodd" clip-rule="evenodd" d="M425.696,61.438c-2.399,0.87-4.264,2.917-3.301,5.742
			c0.317,0.929,3.561,0.86,5.375,1.23c-1.01,2.571-3.355,4.105-5.929,3.145c-3.052-1.14-2.993-3.757-2.407-6.326
			c0.671-2.947,4.229-6.05,6.927-5.818c1.148,0.099,2.268,1.172,3.25,1.984c0.172,0.142-0.405,1.188-0.637,1.816
			C427.997,62.683,427.021,62.155,425.696,61.438z"/>
		<path fill-rule="evenodd" clip-rule="evenodd" d="M450.057,127.147c1.158,0.06,2.358,0.122,3.558,0.184
			c-0.135,1.113-0.154,2.256-0.428,3.333c-0.701,2.763-1.609,5.475-2.237,8.252c-0.228,1.012,0.28,2.176,0.126,3.222
			c-0.134,0.913-0.542,1.948-1.18,2.568c-0.452,0.44-1.867,0.635-2.178,0.304c-0.512-0.543-0.8-1.681-0.616-2.428
			c0.881-3.57,2.042-7.073,2.907-10.647C450.313,130.672,450.057,129.272,450.057,127.147z"/>
		<path fill-rule="evenodd" clip-rule="evenodd" d="M418.791,55.173c-0.909,3.194-1.801,5.796-2.349,8.468
			c-0.304,1.476,0.073,3.08-0.061,4.609c-0.072,0.835-0.341,1.964-0.928,2.367c-0.766,0.524-1.936,0.459-2.931,0.649
			c-0.168-0.887-0.661-1.864-0.445-2.646c0.917-3.337,2.079-6.607,3.074-9.924c0.299-0.996,0.213-2.113,0.544-3.094
			c0.269-0.798,0.896-1.476,1.365-2.207C417.68,54.031,418.299,54.667,418.791,55.173z"/>
		<path fill-rule="evenodd" clip-rule="evenodd" d="M82.344,112.693c1.639-0.104,3.711-0.321,5.781-0.305
			c0.523,0.004,1.505,0.808,1.467,1.156c-0.091,0.83-0.672,2.301-1.042,2.297c-3.777-0.038-4.096,3.008-5.295,5.411
			c-0.501,1.004-1.68,1.669-2.55,2.488c-0.035-1.122-0.258-2.277-0.066-3.359C81.082,117.88,81.727,115.414,82.344,112.693z"/>
		<path fill-rule="evenodd" clip-rule="evenodd" d="M67.522,109.961c-0.533,1.504-1.241,2.973-1.557,4.521
			c-0.444,2.184-0.449,4.461-0.94,6.63c-0.227,0.999-0.989,2.209-1.842,2.606c-0.497,0.232-2.473-1.229-2.395-1.461
			c1.473-4.377,0.514-9.848,5.248-12.803C66.532,109.624,67.027,109.792,67.522,109.961z"/>
		<path fill-rule="evenodd" clip-rule="evenodd" d="M276.626,185.796c0.511-0.308,1.298-0.781,1.702-1.024
			c-0.608-0.928-1.083-1.651-1.558-2.375c0.921-0.396,1.974-1.271,2.729-1.064c0.924,0.254,2.219,1.384,2.262,2.191
			c0.115,2.202-0.301,4.44-0.604,6.65c-0.075,0.553-0.396,1.368-0.808,1.525c-1.572,0.597-3.213,1.056-4.866,1.351
			c-0.262,0.047-0.722-1.012-1.09-1.559c1.212-0.504,2.425-1.007,4.143-1.721C278.07,188.797,277.513,187.639,276.626,185.796z"/>
		<path fill-rule="evenodd" clip-rule="evenodd" d="M98.968,80.653c-0.458,1.526-1.054,3.027-1.34,4.584
			c-0.401,2.187-0.36,4.472-0.926,6.604c-0.29,1.091-1.491,1.939-2.28,2.897c-0.696-0.609-2.03-1.275-1.982-1.818
			c0.284-3.224,0.584-6.513,1.526-9.581c0.406-1.322,2.366-2.167,3.62-3.228C98.046,80.293,98.507,80.473,98.968,80.653z"/>
		<path fill-rule="evenodd" clip-rule="evenodd" d="M108.053,83.348c1.711,0,4.049,0,6.884,0c0.585,1.236,1.58,2.441-1.65,3.419
			c-1.764,0.534-2.831,3.342-4.234,5.107c-0.712,0.896-1.473,1.755-2.212,2.631c-0.174-1.255-0.639-2.554-0.46-3.757
			C106.748,88.287,107.46,85.876,108.053,83.348z"/>
		<path fill-rule="evenodd" clip-rule="evenodd" d="M102.214,82.985c2.333-0.6,3.226,0.115,2.561,2.932
			c-0.466,1.974-0.265,4.097-0.563,6.124c-0.12,0.816-0.608,1.77-1.24,2.261c-0.544,0.423-1.909,0.643-2.233,0.303
			c-0.528-0.551-0.805-1.689-0.655-2.479C100.629,89.244,101.396,86.402,102.214,82.985z"/>
		<path fill-rule="evenodd" clip-rule="evenodd" d="M458.522,132.557c0.322,1.547,0.666,2.378,0.631,3.192
			c-0.099,2.302-0.079,4.67-0.666,6.862c-0.274,1.027-1.833,1.711-2.811,2.551c-0.344-0.828-1.054-1.697-0.966-2.478
			c0.301-2.705,0.795-5.398,1.418-8.05C456.267,134.045,457.225,133.646,458.522,132.557z"/>
		<path fill-rule="evenodd" clip-rule="evenodd" d="M230.188,194.574c-5.079,0-9.521,0-14.239,0
			C217.821,192.073,227.113,191.936,230.188,194.574z"/>
		<path fill-rule="evenodd" clip-rule="evenodd" d="M216.044,197.771c2.372-1.796,11.102-1.703,13.603,0.144
			C227.028,199.633,218.256,199.54,216.044,197.771z"/>
		<path fill-rule="evenodd" clip-rule="evenodd" fill="#FFFFFF" d="M285.642,74.423c0.615,4.54,1.358,8.497,1.623,12.486
			c0.208,3.136-0.063,6.324-0.362,9.465c-0.098,1.027-0.951,1.981-1.591,3.226c2.038,0.502,1.806,2.131,1.556,4.524
			c-0.387,3.729,0.306,7.57,0.585,12.064c-5.642,0-10.962,0.011-16.282-0.002c-26.069-0.065-52.138-0.134-78.207-0.215
			c-2.627-0.008-5.295,0.138-7.86-0.289c-0.992-0.165-2.424-1.676-2.497-2.659c-0.251-3.408-0.108-6.862,0.132-10.281
			c0.084-1.198,0.814-2.381,1.381-3.505c0.424-0.842,1.225-1.516,1.554-2.38c0.322-0.847,0.259-1.84,0.365-2.77
			c-0.797,0.49-1.594,0.979-2.619,1.609c0.602-6.904-3.107-13.959,0.821-20.841c-2.774-3.615-2.77-10.629,0.012-14.185
			c-3.421-3.89-0.687-8.326-1.68-12.809c1.836,0.26,3.07,0.435,4.304,0.609c-3.235-1.415-5.456-3.362-4.385-7.553
			c0.894-0.059,1.864-0.124,2.834-0.188c0.032-0.165,0.065-0.33,0.098-0.494c-1.095-0.354-2.191-0.707-3.93-1.267
			c1.245-0.923,2.016-1.494,2.625-1.945c-0.806-0.895-1.69-1.875-2.3-2.552c1.454-1.725,2.492-3.022,3.608-4.247
			c0.458-0.503,1.131-1.263,1.632-1.209c7.106,0.77,14.212-0.611,21.304,0.057c0.748,0.07,1.42,0.84,2.175,0.946
			c1.214,0.17,2.717,0.507,3.66-0.016c3.502-1.943,7.19-1.403,10.276,0.027c1.887,0.875,3.458,1.513,5.135,0.752
			c6.761-3.063,13.801-0.773,20.68-1.33c1.65-0.134,3.307-0.445,4.95-0.373c4.441,0.193,8.873,0.677,13.315,0.8
			c4.031,0.113,8.087,0.097,12.104-0.215c4.859-0.379,6.403,0.676,6.349,4.992c-0.079,6.182-0.171,12.363-0.218,18.544
			c-0.043,5.762,0.056,11.528-0.109,17.286C286.634,72.071,285.862,73.634,285.642,74.423z M225.488,60.777
			c-1.148-0.731-1.457-1.099-1.721-1.07c-6.726,0.748-12.975,8.325-12.423,15.145c0.065,0.81,0.57,1.789,1.188,2.313
			c2.791,2.369,6.69,1.692,9.097-1.448c1.683-2.196,1.039-6.976-1.209-8.84c-0.585-0.484-1.223-0.905-1.93-1.423
			C220.881,63.856,222.995,62.443,225.488,60.777z M235.621,60.726c-5.596-1.459-6.094-0.498-8.496,4.222
			c-1.617,3.178,2.435,2.185,2.947,3.544c0.625,1.656,0.836,3.719,0.449,5.431c-0.353,1.562-1.695,2.391-3.639,1.142
			c-0.762-0.49-2.248,0.147-3.864,0.322c3.04,4.256,4.208,4.449,7.813,1.99c4.253-2.901,4.466-7.742,0.887-12.971
			C232.925,63.267,234.087,62.172,235.621,60.726z M257.232,72.642c0.034-2.503-1.253-4.024-3.453-4.081
			c-2.588-0.067-5.938,3.147-5.536,5.912c0.229,1.566,1.449,3.794,2.728,4.224C253.391,79.511,257.194,75.458,257.232,72.642z
			 M237.22,78.236c0.356,0.272,0.712,0.543,1.069,0.815c1-0.714,2.1-1.323,2.983-2.161c3.876-3.674,7.678-7.427,11.533-11.123
			c0.943-0.903,2.149-1.575,2.924-2.59c0.459-0.602,0.308-1.667,0.43-2.523c-0.877,0.006-1.837-0.208-2.609,0.081
			c-0.725,0.271-1.27,1.056-1.862,1.646c-4.448,4.436-8.916,8.853-13.301,13.351C237.78,76.356,237.598,77.392,237.22,78.236z
			 M247.354,64.492c-1.675-1.966-2.562-3.574-3.924-4.366c-0.679-0.395-2.646,0.375-3.293,1.198
			c-1.283,1.631-2.757,3.654-2.784,5.536c-0.018,1.212,3.241,3.718,3.589,3.486C243.166,68.859,244.99,66.775,247.354,64.492z
			 M243.393,39.109c-1.203,1.487-1.887,2.333-2.572,3.18c0.798,0.588,1.553,1.529,2.408,1.632c0.528,0.063,1.633-1.107,1.707-1.805
			C245.014,41.375,244.179,40.539,243.393,39.109z M247.661,43.054c-2.182,3.231-1.842,4.1,2.746,5.648
			C249.375,46.582,248.521,44.822,247.661,43.054z"/>
		<path fill-rule="evenodd" clip-rule="evenodd" fill="#FFFFFF" d="M185.499,157.048c-0.794-0.826-2.087-1.554-2.275-2.501
			c-0.365-1.834-0.107-3.793-0.107-5.7c0.398-0.042,0.797-0.084,1.195-0.125c0.337,0.877,0.674,1.754,1.343,3.497
			c0.934-1.283,1.48-2.27,2.251-3.029c0.887-0.875,1.973-1.55,3.323-2.579c-1.538-0.278-2.726-0.494-4.025-0.729
			c1.219-1.473,2.318-2.798,3.417-4.125c-2.578,1.729-4.77,2.873-6.975-0.426c-1.512-2.262-1.149-4.027,1.324-5.138
			c3.745-1.682,4.106-2.873,1.841-6.074c1.869-3.111,3.1-2.726-4.021-9.636c5.307-2.193,30.491-1.192,32.311,1.156
			c1.036-0.584,2.022-1.61,3.036-1.64c9.506-0.277,19.016-0.449,28.526-0.515c5.36-0.036,10.723,0.243,16.085,0.277
			c8.122,0.052,16.246,0.014,24.459,0.014c-0.411,2.933-0.71,5.07-0.897,6.407c-2.391,0.324-4.518,0.613-6.645,0.9
			c0.039,0.457,0.078,0.913,0.117,1.368c0.591,0.054,1.183,0.107,2.003,0.181c-0.117,0.943-0.244,1.965-0.405,3.277
			c1.197,0.345,2.29,0.658,4.097,1.177c-0.872-1.303-1.337-1.998-1.911-2.856c2.063-1.318,3.456-1.459,3.481,1.46
			c0.044,4.975,0.012,9.948,0.012,15.391c-1.979-1.265-3.426-2.188-5.021-3.205c-0.629,0.98-1.26,1.963-2.001,3.116
			c0.757,0.829,1.536,1.685,2.516,2.758c-1.085,1.236-2.098,2.392-3.758,4.285c2.372-0.613,3.791-0.981,5.437-1.407
			c0.06-1.169,0.123-2.444,0.188-3.719c3.225,0.167,3.272,0.363,1.715,5.646c-1.468,0.574-2.653,1.037-3.838,1.501
			c0.135,0.392,0.269,0.782,0.403,1.173c1.006,0.076,2.011,0.151,3.256,0.245c-1.066,4.398-5.09,2.266-7.427,3.869
			c0,1.182,0,2.47,0,4.595c-4.666-0.264-9.292-0.526-14.343-0.813c-0.979,1.9-0.837,2.18,3.108,2.982
			c1.998,0.407,4.042,0.592,6.064,0.877c-0.034,0.417-0.068,0.835-0.103,1.252c-6.082-0.309-12.166-0.582-18.24-1.007
			c-0.409-0.028-0.738-1.2-1.478-2.492c3.2,0.447,5.639,0.787,8.067,1.127c-0.378-2.938-0.743-3.221-3.162-2.667
			c-1.166,0.268-2.358,0.432-3.543,0.611c-3.358,0.508-3.985-0.206-2.934-3.66c-0.996,0.131-1.881,0.247-2.966,0.389
			c0.938,3.015,0.42,4.271-2.881,3.239c-2.522-0.788-5.808,0.416-6.832-3.644c-0.184-0.729-3.267-1.469-4.51-0.965
			c-1.093,0.443-1.484,2.62-2.15,3.958c-1.309-0.076-2.98-0.175-5.51-0.323c-0.332-0.302-1.375-1.252-1.942-1.768
			c-0.913,1.013-1.886,1.734-2.352,2.701c-0.523,1.088-0.588,2.396-0.906,3.856c-2.841,0-6.142,0-10.539,0
			c2.579-1.121,4.157-1.808,5.915-2.572c-0.406-1.702-0.767-3.216-1.326-5.559c-0.494,1.84-0.783,2.918-1.194,4.452
			c-1.269-0.105-2.625-0.219-4.318-0.359c0.668-1.061,1.16-1.84,1.968-3.121c-3.183,1.51-5.811,2.756-8.287,3.93
			c-1.44-1.159-2.586-2.081-3.732-3.003c-0.226,0.279-0.453,0.558-0.68,0.837c0.955,1.996,1.83,3.97,4.904,3.647
			c1.513-0.158,3.074,0.144,4.614,0.237c-0.022,0.431-0.044,0.861-0.065,1.292c-6.507,0-13.014,0-20.035,0
			c6.591-3.099,1.17-7.602,2.249-11.025c-2.185-1.23-4.109-2.313-6.371-3.587c0.187,1.193,0.278,1.781,0.371,2.37L185.499,157.048z
			 M218.571,140.22c0.478-1.876,1.552-3.863,1.23-5.59c-0.226-1.202-2.229-2.483-3.687-2.944c-1.982-0.626-4.201-0.503-6.291-0.698
			c0.727,1.202,1.729,2.861,2.84,4.7c0.059-0.009,0.408-0.12,0.748-0.097c0.944,0.066,1.883,0.189,2.825,0.29
			c-0.626,0.857-1.13,1.855-1.912,2.531c-0.753,0.651-1.794,0.97-3.719,1.946c3.673,0.866,5.941,2.293,4.449,5.565
			c-1.572,3.448-3.694-0.496-6.212,0.507c0,0.995-0.396,2.501,0.145,3.502c0.338,0.629,2.105,0.76,3.192,0.665
			C217.575,150.128,219.553,146.3,218.571,140.22z M218.419,149.156c2.208-0.583,3.267,3.4,6.028,1.168
			c1.744-1.41,4.479-1.867,5.73-3.532c1.097-1.458,1.334-4.151,0.868-6.029c-0.469-1.884-2.278-3.434-3.65-5.34
			c0.958,0,1.994,0.263,2.784-0.065c1.034-0.429,1.875-1.325,2.799-2.02c-0.984-0.415-1.942-1.104-2.956-1.197
			c-5.076-0.463-4.378,4.262-6.405,6.684c6.049,3.265,6.521,5.169,2.222,9.167C222.937,144.248,220.936,148.011,218.419,149.156z
			 M254.252,144.731c0.553-3.053-1.461-4-4.203-4.125c-2.149-0.099-5.656,3.613-4.982,6.058c0.435,1.578,2.637,3.365,4.334,3.73
			C251.845,150.922,254.333,147.706,254.252,144.731z M243.092,135.873c-0.089-3.299-0.719-4.007-3.547-3.996
			c-2.75,0.011-5.623,3.247-4.973,6.464c0.303,1.496,2.178,3.305,3.706,3.768C240.336,142.731,243.169,138.703,243.092,135.873z
			 M234.187,149.592c0.277,0.343,0.555,0.685,0.832,1.027c0.681-0.271,1.521-0.373,2.021-0.839
			c5.477-5.104,10.94-10.223,16.278-15.469c0.574-0.563,0.333-1.955,0.471-2.964c-0.297-0.112-0.593-0.225-0.89-0.338
			C246.662,137.204,240.424,143.398,234.187,149.592z M200.875,147.986c0.243-0.519,0.486-1.038,0.729-1.558
			c-7.051,1.234-3.297-4.684-5.648-7.283c-1.047,3.418-2.017,6.385,0.515,8.724C197.282,148.619,199.37,147.986,200.875,147.986z
			 M196.029,132.372c-0.117,0.333-0.233,0.666-0.351,0.998c2.163,0.11,4.327,0.221,6.533,0.333c-0.156-7.23-0.156-7.23-1.5-7.991
			c-0.333,2.161-0.671,4.367-1.023,6.66C198.33,132.372,197.179,132.372,196.029,132.372z M228.139,127.933
			c0.054,0.357,0.107,0.713,0.161,1.07c1.565,0.178,3.129,0.356,4.868,0.555c0.342-0.992,0.653-1.891,1.066-3.089
			C231.892,127.031,230.016,127.482,228.139,127.933z"/>
		<path fill-rule="evenodd" clip-rule="evenodd" fill="#FFFFFF" d="M185.39,157.132c1.17,0.808,2.341,1.615,3.853,2.657
			c-0.154,0.404-0.507,1.322-0.979,2.553c-0.896-1.081-1.555-1.876-2.377-2.868c-0.704,0.424-1.412,0.849-2.121,1.274
			c-0.262-0.232-0.523-0.467-0.786-0.699c0.837-0.999,1.674-1.998,2.515-2.999C185.499,157.048,185.39,157.132,185.39,157.132z"/>
		<path fill-rule="evenodd" clip-rule="evenodd" fill="#FFFFFF" d="M242.618,168.263c-0.396,1.927-3.884,2.359-7.401,0
			C237.672,168.263,240.127,168.263,242.618,168.263z"/>
		<path fill-rule="evenodd" clip-rule="evenodd" fill="#FFFFFF" d="M420.134,135.133c0.641,3.867-0.941,6.135-4.027,7.682
			C414.205,139.289,415.744,136.176,420.134,135.133z"/>
		<path fill-rule="evenodd" clip-rule="evenodd" fill="#FFFFFF" d="M432.155,66.629c1.852-1.965,3.364-3.572,4.878-5.179
			c0.694,0.753,2.121,1.912,1.965,2.196c-1.145,2.07-2.606,3.964-3.968,5.913C434.3,68.815,433.569,68.07,432.155,66.629z"/>
		<path fill-rule="evenodd" clip-rule="evenodd" fill="#FFFFFF" d="M460.609,71.058c-2.58-3.783-1.76-7.789,0.837-9.114
			c1.951-0.997,3.42-0.108,2.888,1.848C463.702,66.115,462.139,68.184,460.609,71.058z"/>
		<path fill-rule="evenodd" clip-rule="evenodd" fill="#FFFFFF" d="M444.668,137.804c-2.324,2.271-4.033,3.94-5.741,5.609
			c-0.505-0.901-1.531-1.877-1.416-2.69c0.343-2.43,0.727-5.219,3.856-5.631C442.091,134.996,443.011,136.39,444.668,137.804z"/>
		<path fill-rule="evenodd" clip-rule="evenodd" d="M225.488,60.777c-2.493,1.666-4.607,3.079-6.998,4.677
			c0.707,0.518,1.345,0.938,1.93,1.423c2.248,1.864,2.892,6.644,1.209,8.84c-2.406,3.14-6.306,3.817-9.097,1.448
			c-0.619-0.525-1.123-1.504-1.188-2.313c-0.552-6.82,5.697-14.396,12.423-15.145C224.031,59.679,224.339,60.046,225.488,60.777z
			 M214.874,75.725c0.738,0.21,1.476,0.421,2.214,0.632c0.718-2.034,1.55-4.039,2.071-6.122c0.125-0.5-0.714-1.705-1.229-1.782
			c-0.602-0.09-1.778,0.579-1.931,1.133C215.448,71.585,215.222,73.671,214.874,75.725z"/>
		<path fill-rule="evenodd" clip-rule="evenodd" d="M235.621,60.726c-1.534,1.446-2.696,2.542-3.902,3.679
			c3.579,5.229,3.366,10.069-0.887,12.971c-3.605,2.458-4.773,2.266-7.813-1.99c1.616-0.174,3.102-0.812,3.864-0.322
			c1.944,1.25,3.287,0.42,3.639-1.142c0.387-1.711,0.175-3.775-0.449-5.431c-0.512-1.359-4.563-0.366-2.947-3.544
			C229.527,60.228,230.025,59.266,235.621,60.726z"/>
		<path fill-rule="evenodd" clip-rule="evenodd" d="M257.232,72.642c-0.038,2.816-3.842,6.869-6.261,6.055
			c-1.279-0.43-2.499-2.658-2.728-4.224c-0.403-2.764,2.947-5.979,5.536-5.912C255.979,68.618,257.267,70.139,257.232,72.642z"/>
		<path fill-rule="evenodd" clip-rule="evenodd" d="M237.22,78.236c0.378-0.844,0.56-1.88,1.166-2.503
			c4.385-4.498,8.853-8.915,13.301-13.351c0.593-0.59,1.138-1.375,1.862-1.646c0.772-0.289,1.732-0.075,2.609-0.081
			c-0.122,0.857,0.029,1.922-0.43,2.523c-0.774,1.015-1.98,1.687-2.924,2.59c-3.855,3.696-7.657,7.448-11.533,11.123
			c-0.883,0.838-1.983,1.447-2.983,2.161C237.932,78.78,237.576,78.508,237.22,78.236z"/>
		<path fill-rule="evenodd" clip-rule="evenodd" d="M247.354,64.492c-2.364,2.283-4.188,4.367-6.413,5.854
			c-0.348,0.232-3.606-2.274-3.589-3.486c0.027-1.881,1.501-3.904,2.784-5.536c0.647-0.823,2.614-1.593,3.293-1.198
			C244.792,60.918,245.68,62.526,247.354,64.492z"/>
		<path fill-rule="evenodd" clip-rule="evenodd" d="M243.393,39.109c0.786,1.43,1.622,2.267,1.543,3.006
			c-0.074,0.698-1.179,1.868-1.707,1.805c-0.855-0.103-1.61-1.044-2.408-1.631C241.505,41.442,242.189,40.596,243.393,39.109z"/>
		<path fill-rule="evenodd" clip-rule="evenodd" d="M247.661,43.054c0.86,1.768,1.715,3.528,2.746,5.648
			C245.819,47.153,245.479,46.285,247.661,43.054z"/>
		<path fill-rule="evenodd" clip-rule="evenodd" d="M218.571,140.22c0.982,6.08-0.996,9.908-6.394,10.378
			c-1.087,0.095-2.854-0.036-3.192-0.665c-0.54-1.001-0.145-2.507-0.145-3.502c2.519-1.003,4.641,2.941,6.212-0.507
			c1.493-3.272-0.776-4.699-4.449-5.565c1.924-0.977,2.965-1.295,3.719-1.946c0.782-0.676,1.286-1.674,1.912-2.531
			c-0.941-0.101-1.881-0.224-2.825-0.29c-0.339-0.023-0.688,0.088-0.748,0.097c-1.111-1.839-2.113-3.498-2.84-4.7
			c2.09,0.195,4.309,0.072,6.291,0.698c1.458,0.461,3.461,1.742,3.687,2.944C220.123,136.356,219.049,138.344,218.571,140.22z"/>
		<path fill-rule="evenodd" clip-rule="evenodd" d="M218.419,149.156c2.516-1.146,4.518-4.908,7.419-1.165
			c4.3-3.998,3.827-5.902-2.222-9.167c2.027-2.422,1.33-7.146,6.405-6.684c1.013,0.093,1.972,0.782,2.956,1.197
			c-0.924,0.694-1.765,1.591-2.799,2.02c-0.791,0.328-1.826,0.065-2.784,0.065c1.372,1.906,3.181,3.456,3.65,5.34
			c0.467,1.878,0.229,4.571-0.868,6.029c-1.251,1.665-3.986,2.122-5.73,3.532C221.687,152.557,220.628,148.573,218.419,149.156z"/>
		<path fill-rule="evenodd" clip-rule="evenodd" d="M254.252,144.731c0.081,2.975-2.407,6.19-4.851,5.663
			c-1.697-0.365-3.899-2.152-4.334-3.73c-0.674-2.444,2.833-6.156,4.982-6.058C252.791,140.731,254.805,141.679,254.252,144.731z"/>
		<path fill-rule="evenodd" clip-rule="evenodd" d="M243.092,135.873c0.077,2.83-2.756,6.858-4.813,6.235
			c-1.528-0.463-3.403-2.271-3.706-3.768c-0.65-3.217,2.223-6.453,4.973-6.464C242.374,131.866,243.003,132.574,243.092,135.873z"/>
		<path fill-rule="evenodd" clip-rule="evenodd" d="M234.187,149.592c6.237-6.193,12.475-12.388,18.711-18.582
			c0.297,0.113,0.593,0.226,0.89,0.338c-0.138,1.009,0.104,2.4-0.471,2.964c-5.338,5.246-10.802,10.365-16.278,15.469
			c-0.5,0.466-1.339,0.568-2.021,0.839C234.742,150.276,234.464,149.935,234.187,149.592z"/>
		<path fill-rule="evenodd" clip-rule="evenodd" d="M200.875,147.986c-1.505,0-3.593,0.633-4.405-0.117
			c-2.532-2.339-1.562-5.306-0.515-8.724c2.351,2.6-1.402,8.518,5.648,7.283C201.361,146.948,201.118,147.468,200.875,147.986z"/>
		<path fill-rule="evenodd" clip-rule="evenodd" d="M196.029,132.372c1.15,0,2.301,0,3.659,0c0.352-2.293,0.69-4.499,1.023-6.66
			c1.344,0.761,1.344,0.761,1.5,7.991c-2.206-0.112-4.37-0.223-6.533-0.333C195.795,133.038,195.912,132.705,196.029,132.372z"/>
		<path fill-rule="evenodd" clip-rule="evenodd" d="M228.139,127.933c1.876-0.45,3.752-0.901,6.095-1.464
			c-0.414,1.198-0.724,2.097-1.066,3.089c-1.738-0.198-3.303-0.377-4.868-0.555C228.246,128.646,228.193,128.29,228.139,127.933z"/>
		<path fill-rule="evenodd" clip-rule="evenodd" fill="#FFFFFF" d="M214.874,75.725c0.348-2.054,0.574-4.14,1.125-6.138
			c0.153-0.554,1.33-1.223,1.931-1.133c0.515,0.077,1.354,1.282,1.229,1.782c-0.521,2.083-1.353,4.087-2.071,6.122
			C216.35,76.146,215.612,75.936,214.874,75.725z"/>
	</g>
</g>
</svg>
