<?xml version="1.0" encoding="utf-8"?>
<!-- Generator: Adobe Illustrator 16.0.0, SVG Export Plug-In . SVG Version: 6.00 Build 0)  -->
<!DOCTYPE svg PUBLIC "-//W3C//DTD SVG 1.1//EN" "http://www.w3.org/Graphics/SVG/1.1/DTD/svg11.dtd">
<svg version="1.1" id="Layer_1" xmlns="http://www.w3.org/2000/svg" xmlns:xlink="http://www.w3.org/1999/xlink" x="0px" y="0px"
	 width="500px" height="500px" viewBox="0 0 500 500" enable-background="new 0 0 500 500" xml:space="preserve">
<g>
	<g>
		<path fill-rule="evenodd" clip-rule="evenodd" fill="#FFFFFF" d="M11.75,495.068c0-162.772,0-325.545,0-488.318
			c159.272,0,318.544,0,477.816,0c0,162.773,0,325.546,0,488.318C330.295,495.068,171.022,495.068,11.75,495.068z M197.593,189.008
			c-2.476,0-4.566,0.007-6.657,0c-6.998-0.025-13.996-0.055-20.994-0.082c-23.366-0.089-46.731-0.184-70.097-0.265
			c-11.861-0.041-23.723-0.079-35.584-0.031c-0.793,0.003-1.583,0.747-2.375,1.146c0.829,0.496,1.616,1.103,2.503,1.448
			c0.539,0.21,1.234,0.005,1.859,0.005c42.246,0.012,84.492,0.062,126.738-0.026c3.616-0.007,4.752,1.097,4.714,4.732
			c-0.212,20.111-0.17,40.225-0.289,60.337c-0.022,3.847-0.577,7.692-0.535,11.535c0.082,7.609,0.501,15.214,0.612,22.823
			c0.156,10.732,0.232,21.468,0.188,32.201c-0.014,3.517-0.507,7.031-0.825,11.094c0.666,0.255,1.743,0.667,2.82,1.079
			c0.358-1.113,1.026-2.228,1.029-3.343c0.044-16.871-0.26-33.747,0.107-50.608c0.143-6.563-1.74-13.362,1.392-19.748
			c0.129-0.264-0.104-0.712-0.188-1.07c-0.431-1.825-1.228-3.645-1.247-5.472c-0.131-12.868-0.107-25.738-0.123-38.606
			c-0.01-8.194-0.002-16.387-0.002-24.89c12.52,0,24.611-0.021,36.703,0.009c4.874,0.013,6.929,2.178,6.744,7.178
			c-0.372,10.064-1.154,20.126-1.185,30.19c-0.098,31.236,0.126,62.471,0.131,93.707c0.003,24.358-0.153,48.717-0.173,73.074
			c-0.001,1.441,0.575,2.883,0.884,4.323c0.495-0.041,0.99-0.084,1.485-0.126c0.126-15.515,0.23-31.029,0.388-46.543
			c0.161-15.618,0.104-31.244,0.643-46.849c0.534-15.463-3.135-30.963,0.479-46.381c-3.597-15.338-0.262-30.777-1.207-46.115
			c3.729,7.538,6.822,15.183,10.579,22.486c2.823,5.486,6.72,10.414,9.686,15.838c1.212,2.214,5.969,4.547,0.988,7.795
			c-0.268,0.175-0.034,1.12-0.034,1.707c0.242-0.263,0.483-0.525,0.725-0.788c3.441,2.447,7.323,4.464,10.226,7.437
			c5.036,5.162,9.356,11.016,14.188,16.389c3.448,3.838,7.233,7.374,10.882,11.03c4.139,4.146,8.251,8.319,12.449,12.404
			c5.982,5.823,11.983,11.627,18.068,17.342c4.789,4.497,9.695,8.869,14.586,13.255c6.906,6.192,13.815,12.384,20.818,18.463
			c0.813,0.706,2.239,0.702,3.381,1.027c-0.233-1.269-0.019-3.002-0.773-3.73c-4.886-4.718-9.963-9.238-15.014-13.782
			c-8.694-7.821-17.606-15.411-26.076-23.468c-9.895-9.411-19.479-19.153-29.072-28.876c-5.997-6.078-11.849-12.307-17.604-18.615
			c-3.774-4.139-4.755-9.225-2.87-12.39c0.438-0.736,0.66-1.604,0.98-2.411c-0.965-0.064-1.934-0.099-2.896-0.2
			c-2.898-0.307-6.219,1.816-8.492-1.969c-2.669-4.443-6.131-8.45-8.473-13.042c-3.893-7.627-7.314-15.509-10.631-23.411
			c-1.397-3.331-2.299-6.937-2.927-10.506c-0.819-4.649-1.142-9.386-1.7-14.272c18.696,0,36.277-0.028,53.858,0.072
			c1.028,0.006,2.332,0.827,3.025,1.666c2.555,3.089,5.589,3.74,8.317,0.581c2.16-2.5,4.378-2.204,6.921-2.064
			c1.867,0.103,3.735,0.268,5.603,0.279c12.605,0.082,25.21,0.075,37.814,0.204c12.728,0.131,25.454,0.435,38.182,0.571
			c8.426,0.089,16.854,0.017,25.94,0.017c-1.491,2.098-2.603,3.661-3.713,5.224c0.225,0.199,0.45,0.398,0.675,0.596
			c6.628-2.157,13.257-4.313,19.885-6.471c-0.021-0.363-0.04-0.727-0.059-1.089c-6.664-2.189-13.327-4.377-19.991-6.566
			c-0.193,0.299-0.387,0.598-0.58,0.897c1.052,1.444,2.104,2.889,3.547,4.87c-3.201-0.177-5.761-0.43-8.321-0.444
			c-33.354-0.185-66.709-0.398-100.064-0.386c-2.913,0.001-4.726-0.784-6.402-2.923c-2.257-2.878-5.342-2.521-7.439,0.253
			c-0.94,1.242-2.849,2.463-4.327,2.475c-15.87,0.129-31.741,0.019-47.612-0.042c-0.952-0.004-1.904-0.152-2.634-0.214
			c-0.355-1.662-0.683-2.965-0.905-4.284c-0.313-1.859-1.089-3.849-0.716-5.576c1.025-4.736,2.362-9.428,3.921-14.019
			c1.792-5.279,3.437-10.714,6.08-15.572c4.032-7.413,8.501-14.654,13.446-21.489c7.631-10.55,15.707-20.787,23.828-30.97
			c3.515-4.406,7.634-8.328,11.438-12.506c7.002-7.688,13.766-15.608,21.022-23.046c6.214-6.369,13.026-12.151,19.434-18.337
			c0.678-0.655,0.418-2.282,0.593-3.458c-1.102,0.142-2.451-0.066-3.25,0.501c-1.442,1.024-2.533,2.534-3.809,3.803
			c-7.525,7.49-15.194,14.841-22.551,22.492c-5.86,6.095-11.342,12.552-16.99,18.849c-5.466,6.095-11.355,11.867-16.298,18.36
			c-7.853,10.319-14.898,21.249-22.615,31.676c-6.146,8.303-9.811,17.654-12.962,27.317c-0.649,1.993-1.572,3.896-2.368,5.84
			c-0.215-0.071-0.43-0.143-0.645-0.214c0-43.809,0-87.619,0-131.983c2.05,1.535,3.906,2.925,6.667,4.992
			c-2.696-7.87-5.047-14.735-7.399-21.6c-0.302,0.012-0.604,0.023-0.906,0.035c-2.253,6.93-4.506,13.86-6.759,20.791
			c0.212,0.1,0.424,0.2,0.636,0.3c1.816-1.425,3.631-2.85,5.446-4.275c0.372,3.746-0.305,6.911-0.364,10.088
			c-0.197,10.601-0.201,21.207-0.227,31.811c-0.038,15.072-0.046,30.143-0.035,45.214c0.006,9.865-0.071,19.734,0.148,29.596
			c0.188,8.4,0.821,16.789,1.062,25.189c0.037,1.251-0.661,3.223-1.592,3.674c-2.927,1.417-4.875,3.175-4.368,6.76
			c-12.585,0-24.872,0-37.403,0c0-3.004,0-5.726,0-8.448c-0.008-33.239-0.023-66.478-0.018-99.717
			c0.001-6.12,0.165-12.241,0.05-18.357c-0.017-0.914-1.159-1.806-1.78-2.708c-0.61,0.805-1.751,1.611-1.748,2.413
			c0.039,9.551,0.265,19.102,0.406,28.653c0.051,3.441,0.008,6.884,0.008,11.453c-7.336-2.35-13.902-4.453-20.467-6.555
			c-0.101,0.299-0.202,0.598-0.303,0.898c1.105,1.37,2.211,2.74,3.617,4.481c-0.923,0.094-1.374,0.181-1.824,0.179
			c-13.736-0.072-27.472-0.178-41.207-0.187c-1.014-0.001-2.028,0.68-3.042,1.044c0.913,0.493,1.824,1.41,2.74,1.415
			c13.625,0.07,27.25,0.014,40.875,0.009c1.017,0,2.033,0.165,3.562,0.297c-1.978,2.303-3.5,4.077-5.024,5.85
			c0.26,0.2,0.521,0.4,0.781,0.6c6.656-2.264,13.312-4.529,20.259-6.894C197.593,132.066,197.593,160.155,197.593,189.008z
			 M97.571,426.857c-0.357,0.021-0.714,0.04-1.071,0.06c-1.157-2.48-2.724-4.861-3.363-7.47c-0.75-3.061-1.469-5.44-5.241-4.803
			c1.455,7.801-2.319,13.96-5.768,20.692c2.091,0.105,3.908,0.197,4.832,0.244c0.972-5.306,1.815-9.906,2.658-14.507
			c0.392-0.001,0.783-0.003,1.175-0.004c1.714,4.512,3.427,9.024,5.141,13.537c0.35-0.124,0.701-0.249,1.051-0.372
			c2.067-6.481,4.134-12.961,6.261-19.63c-0.918,0-2.185,0-3.094,0C99.269,418.793,98.42,422.825,97.571,426.857z M351.899,423.998
			c-1.263-0.715-2.078-1.177-2.894-1.64c-0.386,0.769-0.905,1.499-1.129,2.312c-0.549,1.984-0.988,4-1.418,6.016
			c-0.363,1.696-0.649,3.409-0.97,5.115c0.448,0.167,0.896,0.334,1.345,0.502c1.038-1.824,2.429-3.541,3.024-5.5
			c0.736-2.422,1.707-4.236,4.68-4.946c-0.888,3.487-1.709,6.711-2.53,9.937c0.534,0.206,1.069,0.412,1.604,0.619
			c0.969-1.803,1.841-3.666,2.932-5.392c1.144-1.809,2.494-3.484,3.755-5.219c0.375,0.226,0.751,0.452,1.127,0.678
			c-0.705,2.365-1.517,4.705-2.055,7.108c-0.18,0.8,0.339,1.758,0.538,2.644c0.784-0.199,1.755-0.182,2.302-0.655
			c0.607-0.524,0.995-1.461,1.172-2.283c0.205-0.948-0.009-1.979,0.11-2.956c0.208-1.718,0.764-3.429,0.714-5.13
			c-0.028-0.967-1.131-2.771-1.472-2.707c-1.282,0.239-2.51,1.003-3.633,1.758c-0.432,0.29-0.529,1.079-0.946,2.019
			C356.757,421.613,355.54,421.325,351.899,423.998z M102.94,94.285c4.685,2.267,1.166,4.02,1.02,5.962
			c-0.17,2.272-0.691,4.516-1.235,7.849c2.003-1.045,2.987-1.948,3.998-1.978c1.052-0.032,2.176,1.209,3.183,1.1
			c1.019-0.111,2.02-1.099,2.859-1.884c0.511-0.478,0.7-1.299,1.169-2.235c2.891,5.413,4.222,5.501,7.315,0.655
			c-1.247-0.157-2.364-0.299-3.432-0.434c-1.316-5.148-1.302-5.106,3.486-6.701c0.596-0.199,0.95-1.125,1.416-1.715
			c-0.659-0.445-1.499-1.402-1.944-1.245c-1.631,0.577-3.13,1.524-5.083,2.542c-0.344-3.686-2.614-2.863-5.201-2.052
			c0.299,0.735,0.373,1.568,0.753,1.748c2.997,1.416,2.395,4.072,1.532,6.058c-0.518,1.192-2.887,2.489-4.138,2.249
			c-2.061-0.397-3.026-2.103-1.678-4.545c0.948-1.715,1.223-3.803,2.004-6.416C106.792,93.619,105.54,93.835,102.94,94.285z
			 M227.899,268.651c-0.135,2.36-0.252,4.421-0.391,6.854c-6.022-1.528-8.321,2.788-10.613,6.369
			c-0.918,1.433-0.659,4.341,0.195,5.991c0.924,1.782,3.132,1.653,5.238,0.706c1.03-0.464,2.63,0.338,4.466,0.652
			c0.574-0.468,1.592-1.299,1.824-1.488c-0.249-2.431-0.854-4.141-0.489-5.608c0.902-3.631,2.433-7.104,3.367-10.728
			C232.486,267.555,232.025,267.287,227.899,268.651z M33.399,93.551c-5.79-0.268-10.621,3.565-11.026,8.778
			c-0.113,1.444,0.778,3.404,1.878,4.354c0.764,0.66,2.67-0.002,4.066-0.076c0.708-0.037,1.418-0.059,2.125-0.121
			c1.26-0.11,2.518-0.246,3.777-0.37c-0.114-1.067-0.223-2.136-0.347-3.203c-0.055-0.478-0.324-1.013-0.187-1.418
			c1.077-3.193,2.317-6.333,3.323-9.547c0.605-1.933,0.878-3.971,1.421-6.534c-2.187,0.332-3.532,0.536-4.877,0.74
			c0.39,0.245,0.779,0.49,1.168,0.735C34.288,89.067,33.856,91.246,33.399,93.551z M90.129,106.768
			c0.557,0.288,1.112,0.575,1.669,0.863c0.837-1.684,1.38-3.629,2.583-4.991c1.724-1.952,1.718-6.414,6.786-4.537
			c-0.091-1.562-0.165-2.83-0.238-4.099c-1.365,0.423-2.73,0.846-4.122,1.278c-1.152-3.892-4.759-0.151-6.75-1.824
			c-0.234-1.107-0.469-2.214-0.774-3.659c-2.002,1.774-3.652,3.236-5.301,4.697c0.239,0.052,0.479,0.104,0.719,0.156
			c-0.846,4.023-1.692,8.047-2.538,12.07c0.289,0.306,0.578,0.611,0.866,0.916c1.806-0.75,3.612-1.5,5.991-2.489
			c-1.453-1.362-2.196-2.06-2.842-2.666c0.62-1.774,0.887-3.56,1.818-4.876c0.711-1.006,2.263-1.417,3.44-2.091
			c0.333,1.025,1.098,2.135,0.917,3.06C91.81,101.346,90.897,104.043,90.129,106.768z M308.369,179.622
			c0.161-2.159,0.013-4.065,0.523-5.775c0.401-1.342,1.453-3.212,2.517-3.439c1.181-0.252,2.702,1.096,4.491,1.944
			c0.439-1.554,1.011-3.58,1.781-6.305c-2.693,1.228-4.364,1.99-6.036,2.752c-0.386-0.308-0.772-0.616-1.159-0.923
			c0.924-2.094,1.448-5.566,2.861-5.976c2.433-0.706,5.417,0.497,8.598,0.96c0.045-0.912,0.111-2.261,0.187-3.781
			c-4.886,0-9.313,0-12.643,0c-1.862,7.133-3.582,13.719-5.364,20.543C305.339,179.622,306.864,179.622,308.369,179.622z
			 M447.927,421.61c0.507-1.724,1.124-2.706,0.934-3.495c-0.176-0.728-1.197-1.749-1.88-1.775
			c-4.146-0.165-8.302-0.082-11.304-0.082c-2.025,7.438-3.828,14.065-5.688,20.897c2.799,0.099,5.326,0.378,4.477-3.704
			c-0.189-0.91,0.002-2.108,0.476-2.902c0.746-1.253,1.733-2.949,2.891-3.2c1.07-0.232,2.5,1.188,3.78,1.884
			c0.511-1.729,1.145-3.875,1.975-6.682c-2.684,1.138-4.381,1.859-6.078,2.58c-0.364-0.39-0.729-0.779-1.092-1.169
			c1.022-1.901,1.708-5.043,3.142-5.434C442.147,417.823,445.649,417.17,447.927,421.61z M284.585,456.902
			c-0.353-0.212-0.706-0.424-1.059-0.635c-1.979,0.693-4.174,1.057-5.866,2.18c-1.429,0.948-2.471,2.669-3.331,4.24
			c-1.456,2.658-1.762,5.671,0.948,7.507c1.152,0.781,3.46-0.145,5.243-0.296c-0.036-0.229-0.073-0.457-0.11-0.686
			c1.037,0.604,2.074,1.206,3.111,1.809c0.295-1.299,0.577-2.601,0.89-3.896c0.432-1.784,0.846-3.575,1.341-5.344
			c1.125-4.027,2.296-8.043,3.627-12.686c-2.168,0.25-3.317,0.382-4.309,0.496C284.892,452.284,284.738,454.594,284.585,456.902z
			 M212.922,434.579c1.46,0.319,2.976,1.166,3.988,0.761c1.86-0.746,1.563-2.178,0.085-3.447c-0.235-0.202,0.03-1.095,0.19-1.631
			c1.217-4.081,2.623-8.117,3.603-12.254c0.271-1.141-0.696-2.575-1.095-3.875c-0.533,1.146-1.044,2.306-1.605,3.438
			c-0.688,1.39-1.421,3.949-2.128,3.946c-6.004-0.021-7.76,3.813-9.571,8.604c-1.087,2.875,0.164,4.505,1.674,5.438
			C209.104,436.204,211.314,434.96,212.922,434.579z M150.06,473.327c0.754,1.417,1.043,2.814,1.804,3.154
			c0.772,0.345,2.319-0.03,2.982-0.662c1.512-1.439,3.065-3.057,3.924-4.914c1.528-3.31,2.543-6.854,3.794-10.293
			c0.783-2.15,2.214-3.984,2.116-6.561c-0.063-1.645,0.82-3.614,3.426-2.209c0.379,0.204,1.736-0.456,1.72-0.634
			c-0.068-0.771-0.529-2.173-0.757-2.156c-1.452,0.11-3.283,0.087-4.236,0.944c-2.473,2.225-4.555,4.882-7.366,8.001
			c0.637,0.302,1.714,0.812,2.467,1.168c-1.798,5.088-3.401,9.621-5.006,14.161C153.284,473.327,152.077,473.327,150.06,473.327z
			 M170.531,420.717c-3.588,0.759-6.607,0.874-9.071,2.104c-1.598,0.798-2.331,3.261-3.545,4.909
			c-1.815,2.465-2.518,5.301,0.102,7.148c1.325,0.935,3.959,0.013,6.746-0.101c1.37,1.586,1.57,1.729,3.372-0.795
			c0.792-1.109,0.562-2.939,0.822-4.438C169.399,426.997,169.863,424.452,170.531,420.717z M222.798,180.267
			c0.495,0.14,0.99,0.281,1.485,0.421c4.941-6.523,9.882-13.046,15.198-20.065c-1.818-0.123-2.888-0.195-3.047-0.206
			c-3.003,4.563-5.665,8.606-8.325,12.65c-0.497-0.236-0.993-0.473-1.489-0.708c0.755-3.826,1.51-7.653,2.323-11.771
			c-1.601,0-3.667,0-5.448,0c0.304,2.438,0.908,4.613,0.771,6.742C223.989,171.654,223.311,175.955,222.798,180.267z
			 M298.338,237.546c-0.389,0.259-0.776,0.518-1.164,0.777c0.596,1.067,1.282,3.075,1.772,3.028
			c1.652-0.157,4.096-0.597,4.689-1.734c1.979-3.797,3.233-7.966,4.874-11.948c0.741-1.798,2.656-3.625,2.425-5.202
			c-0.44-3.005,0.58-4.68,2.6-5.916c1.188,0.338,2.133,0.638,3.1,0.804c0.063,0.011,0.556-1.412,0.421-1.498
			c-0.876-0.56-1.861-1.275-2.828-1.302c-2.71-0.076-4.163,1.68-5.637,3.841c-1.875,2.752-4.52,4.644-3.051,8.919
			c0.696,2.03-1.114,5.019-2.05,7.474c-0.534,1.403-1.593,2.606-2.398,3.872C300.03,238.231,299.184,237.889,298.338,237.546z
			 M377.701,436.311c0.279,0.145,0.56,0.291,0.839,0.437c4.895-6.717,9.79-13.433,14.865-20.396
			c-3.521-0.539-3.97-0.149-4.925,1.773c-1.765,3.549-3.79,6.969-5.706,10.441c-0.5-0.158-0.999-0.315-1.5-0.474
			c0.438-3.938,0.877-7.877,1.328-11.948c-1.12,0-2.615,0-3.542,0C378.593,423.088,378.146,429.699,377.701,436.311z
			 M200.412,472.871c0.565,1.791,0.677,3.544,1.277,3.731c1.003,0.313,2.45-0.129,3.479-0.682c4.508-2.42,4.431-7.436,6.041-11.425
			c1.381-3.424,1.826-7.216,3.096-10.694c0.359-0.984,2.104-1.573,3.321-2.092c0.741-0.315,1.687-0.15,2.541-0.2
			c-0.741-0.819-1.483-2.313-2.221-2.312c-1.351,0.003-3.02,0.555-3.983,1.476c-2.204,2.105-4.062,4.571-5.829,6.622
			c0.293,1.48,1.167,3.178,0.8,4.541c-1.141,4.24-2.75,8.354-4.178,12.514C203.17,473.812,202.214,473.485,200.412,472.871z
			 M320.037,416.628c1.974,0.434,3.021,0.664,4.069,0.894c-0.025-0.575,0.125-1.557-0.107-1.658
			c-1.166-0.51-2.548-1.273-3.632-1.016c-1.142,0.27-2.157,1.489-3.004,2.483c-1.539,1.803-2.913,3.747-3.754,4.848
			c-0.124,2.145,0.002,3.523-0.315,4.791c-0.797,3.179-2.014,6.264-2.648,9.468c-0.589,2.968-1.707,4.042-5.377,1.36
			c0.591,2.286,0.891,3.447,1.19,4.608c1.506-0.515,3.693-0.582,4.385-1.633c1.7-2.586,2.896-5.556,3.96-8.493
			C316.699,427.049,318.347,421.728,320.037,416.628z M316.021,254.623c4.388,2.348,3.027,6.236,3.286,9.684
			c0.25,3.323-1.018,5.323-4.468,5.854c-0.586,0.091-1.045,1.02-1.563,1.562c0.745,0.417,1.461,1.074,2.247,1.173
			c0.573,0.071,1.392-0.455,1.84-0.951c3.637-4.032,7.343-8.016,10.717-12.262c0.876-1.104,0.856-3.085,0.838-4.659
			c-0.007-0.692-1.041-1.372-1.609-2.058c-0.421,0.768-1.3,1.613-1.184,2.288c0.544,3.178-0.758,5.353-3.683,7.613
			c-0.271-2.523-0.46-4.565-0.714-6.598C321.277,252.643,319.75,252.039,316.021,254.623z M338.407,470.747
			c0.489,0.249,0.978,0.498,1.466,0.747c0.771-1.054,1.771-2.012,2.254-3.183c0.612-1.489,1.033-3.139,1.122-4.742
			c0.111-2.005-0.199-4.034-0.328-6.054c-1.827,0.452-3.662,0.877-5.473,1.389c-0.232,0.065-0.337,0.579-0.501,0.887
			c-0.009-0.442-0.018-0.885-0.025-1.326c-1.61-0.397-3.223-0.796-4.229-1.045c-0.968,4.821-1.813,9.033-2.659,13.245
			c0.225,0.092,0.448,0.184,0.673,0.276c3.019-3.863,6.037-7.726,9.056-11.589c0.334,0.23,0.668,0.461,1.003,0.69
			C339.979,463.611,339.193,467.18,338.407,470.747z M256.806,457.332c-3.239,0-6.143-0.881-7.627,0.196
			c-2.578,1.87-4.726,4.731-6.138,7.625c-0.612,1.254,0.884,3.718,1.855,5.378c0.157,0.267,2.593-0.792,3.97-1.255
			c0.454-0.152,0.889-0.357,0.952-0.384c1.309,0.797,2.309,1.407,3.311,2.017c0.354-1.369,0.765-2.729,1.043-4.113
			c0.167-0.831-0.029-1.75,0.213-2.547C255.011,462.2,255.789,460.197,256.806,457.332z M60.26,102.09
			c1.669-0.542,3.299-0.912,4.789-1.59c2.252-1.025,4.119-2.806,2.967-5.325c-0.467-1.022-2.939-1.694-4.423-1.577
			c-3.831,0.304-7.993,7.68-6.517,11.21c1.052,2.519,3.316,2.99,5.602,2.383c1.891-0.502,4.284-1.039,3.903-4.101
			C61.758,104.476,61.758,104.476,60.26,102.09z M270.814,435.675c0.488,0.258,0.978,0.514,1.467,0.771
			c0.935-0.821,2.554-1.547,2.683-2.479c0.52-3.736,0.574-7.535,0.87-12.465c-3.007,1.183-5.249,2.064-7.406,2.914
			c-0.426-2.5-0.426-2.5-2.964-1.747c-0.213,1.39-0.283,2.563-0.586,3.672c-0.545,1.989-1.384,3.91-1.793,5.922
			c-0.228,1.125,0.163,2.376,0.274,3.571c0.92-1.091,2.208-2.038,2.689-3.296c1.344-3.508,3.854-5.756,7.386-7.401
			C272.562,428.648,271.688,432.162,270.814,435.675z M282.039,173.209c-10.179-2.127-11.125,1.69-13.289,6.82
			c-1.381,3.274-0.058,5.443,2.191,6.079c2.515-0.582,4.104-1.469,5.385-1.143c3.039,0.775,4.205,0.38,3.63-3.093
			c-0.234-1.416,0.707-3.022,1.091-4.548C281.393,175.958,281.709,174.585,282.039,173.209z M369.019,468.335
			c-0.268-0.391-0.535-0.78-0.803-1.171c-1.249,0.403-2.478,1.02-3.754,1.141c-0.95,0.09-1.961-0.459-2.945-0.723
			c0.584-0.775,1.019-1.8,1.791-2.264c1.024-0.616,2.666-0.455,3.408-1.233c1.396-1.465,2.337-3.362,3.467-5.08
			c-1.747-0.554-3.575-1.743-5.227-1.534c-3.786,0.479-6.23,4.024-6.096,9.442c0.095,3.844,3.313,5.84,6.676,4.021
			C366.797,470.252,367.863,469.212,369.019,468.335z M323.218,469.939c1.003,0.04,3.38,0.341,3.435,0.104
			c0.92-3.969,1.551-8.005,2.243-12.016c-7.807-1.483-8.183-1.102-12.165,5.516c-1.611,2.677-1.922,5.128,0.425,6.695
			C318.459,471.108,321.008,470.112,323.218,469.939z M116.762,425.05c-0.503-0.7-1.336-2.902-2.891-3.703
			c-1.297-0.669-3.548,0.009-5.186,0.611c-3.481,1.281-4.501,4.521-5.224,7.738c-0.672,2.991,3.023,6.962,6.065,6.046
			C113.055,434.679,116.768,430.117,116.762,425.05z M420.962,428.458c0.272-4.877-1.659-6.634-6.381-5.8
			c-2.179,0.384-7.023,6.063-6.655,8.512c0.28,1.856,1.288,4.07,2.712,5.136c1.092,0.817,3.562,0.596,5.027-0.051
			C418.885,434.834,420.684,432.07,420.962,428.458z M302.572,255.791c-2.076-3.683-3.705-4.003-6.556-1.265
			c0.197,0.287,0.344,0.652,0.611,0.867c4.485,3.608,4.372,5.346-0.339,8.622c-0.642,0.446-0.677,1.766-0.993,2.681
			c0.328,0.187,0.656,0.372,0.985,0.558c1.407-1.256,2.814-2.511,3.685-3.287c1.635,1.246,2.696,2.623,3.934,2.805
			c0.885,0.13,2.005-1.343,3.02-2.102c-0.523-0.117-1.048-0.235-1.571-0.354c-0.611-1.537-1.478-3.026-1.783-4.622
			c-0.734-3.831,2.935-2.198,4.655-3.36c-0.103-1.059-0.206-2.117-0.418-4.295C305.687,253.557,304.242,254.593,302.572,255.791z
			 M344.047,427.61c-0.022-4.634-0.72-5.367-5.044-5.294c-4.558,0.076-8.164,3.971-8.25,8.908c-0.059,3.327,1.679,5.328,4.661,5.366
			C340.168,436.651,344.069,432.592,344.047,427.61z M255.661,434.466c0.329,0.203,1.316,1.127,2.448,1.367
			c0.495,0.104,1.781-1.136,1.861-1.859c0.422-3.759,0.568-7.547,0.812-11.331c-8.042-3.242-12.122,3.79-12.015,9.474
			c0.024,1.264,0.813,3.392,1.6,3.569C251.723,435.99,253.354,435.077,255.661,434.466z M129.706,431.049
			c2.407-1.389,4.923-2.468,6.928-4.155c1.001-0.842,1.069-2.794,1.559-4.245c-1.756-0.493-3.738-1.766-5.227-1.335
			c-4.422,1.28-6.988,7.22-5.724,11.828c0.737,2.687,2.66,3.336,4.859,2.532c1.801-0.658,3.323-2.08,5.283-3.37
			C134.578,430.349,131.778,435.28,129.706,431.049z M253.51,40.828c0.606,0.22,1.212,0.44,1.818,0.66
			c4.215-5.265,8.459-10.507,12.587-15.839c0.346-0.447,0.169-1.73-0.246-2.217c-0.458-0.537-1.605-0.978-2.196-0.761
			c-0.498,0.183-0.634,1.365-0.923,2.107c-0.783,2.017-1.563,4.035-2.345,6.054c-0.43-0.134-0.859-0.268-1.289-0.401
			c-0.262-1.694-0.634-3.38-0.761-5.085c-0.27-3.602-2.307-2.895-4.869-2.242C259.473,29.469,258.633,35.276,253.51,40.828z
			 M293.892,433.056c0.014-0.48,0.026-0.961,0.038-1.441c2.121-1.016,4.646-1.62,6.233-3.179c1.223-1.199,1.27-3.598,1.84-5.463
			c-1.447-0.345-2.998-1.209-4.321-0.943c-4.648,0.936-7.642,6.59-6.328,11.403c0.78,2.859,4.07,4.131,6.404,2.387
			c1.24-0.928,2.318-2.074,3.586-3.229C298.784,432.75,296.339,432.903,293.892,433.056z M457.097,186.95
			c4.707,4.92,4.842,7.445,0.454,10.513c-0.729,0.51-1.105,1.523-1.645,2.304c1.022-0.152,2.055-0.255,3.063-0.473
			c1.142-0.246,2.31-0.945,3.376-0.798c0.995,0.138,2.22,1.846,2.729,1.599c1.177-0.573,1.982-1.911,2.607-2.581
			c-1.84-1.311-3.366-1.821-3.819-2.82c-2.102-4.634,4.188-3.674,5.026-7.856c-2.299,0.716-3.952,1.231-4.557,1.42
			C461.398,187.728,459.248,187.339,457.097,186.95z M227.781,461.639c0.022-3.155-1.731-5.454-4.092-5.365
			c-4.172,0.158-8.354,4.579-8.563,9.053c-0.148,3.177,2.045,5.773,4.863,5.759C223.974,471.064,227.747,466.491,227.781,461.639z
			 M305.852,457.584c-0.918-0.082-1.296-0.068-1.647-0.156c-2.313-0.578-4.96-1.275-6.246,1.28
			c-1.214,2.414-0.026,4.636,2.084,6.434c0.81,0.69,1.005,2.104,1.479,3.187c-0.293,0.273-0.585,0.547-0.878,0.819
			c-1.681-0.688-3.361-1.379-5.247-2.153c-0.105,1.191-0.218,2.461-0.344,3.866c1.141,0.116,1.99,0.224,2.843,0.286
			c2.276,0.169,4.468,0.149,5.77-2.248c1.233-2.271,0.155-3.776-1.267-5.568c-0.926-1.168-0.92-3.077-1.332-4.654
			c0.303-0.149,0.604-0.299,0.907-0.447c1.011,0.941,2.023,1.884,3.538,3.294C305.655,459.863,305.741,458.856,305.852,457.584z
			 M355.859,466.286c-1.32,0.704-1.902,1.19-2.557,1.325c-1.313,0.271-2.796,0.739-3.945,0.35c-0.601-0.204-1-2.101-0.869-3.156
			c0.405-3.265,2.239-5.403,5.555-6.136c0.51,1.313,0.938,2.418,1.368,3.522c0.392-0.045,0.783-0.091,1.176-0.138
			c0.175-1.199,0.729-2.528,0.381-3.55c-0.207-0.609-1.809-0.917-2.822-1.047c-4.184-0.533-7.459,2.236-8.424,7.171
			c-0.481,2.46-0.844,5.438,2.484,6.502C351.647,472.231,354.056,470.798,355.859,466.286z M262.012,449.502
			c-1.707,7.594-3.224,14.346-4.741,21.098c0.439,0.268,0.88,0.534,1.319,0.801c1.271-0.891,2.544-1.782,3.815-2.674
			c-0.391-0.174-0.78-0.349-1.171-0.522c-0.309-6.502,2.725-12.379,4.723-18.702C264.125,449.502,262.593,449.502,262.012,449.502z
			 M80.396,102.562c-1.479,0.504-2.233,0.523-2.535,0.904c-1.582,1.989-3.396,1.875-4.554-0.019
			c-1.619-2.648-0.064-5.038,1.957-6.669c0.694-0.561,2.506,0.18,3.78,0.454c0.609,0.13,1.352,0.938,1.685,0.765
			c0.535-0.277,1.229-1.334,1.063-1.671c-0.509-1.036-1.255-2.498-2.159-2.706c-4.752-1.094-9.35,3.254-9.41,8.675
			c-0.024,2.242-0.278,4.697,2.989,4.977C76.335,107.537,78.884,106.811,80.396,102.562z M240.458,467.707
			c-0.133-0.373-0.265-0.746-0.397-1.118c-1.223,0.483-2.479,1.414-3.658,1.325c-1.15-0.088-2.879-0.988-3.206-1.93
			c-0.965-2.783,1.294-6.11,4.279-7.483c1.172,0.924,2.134,1.746,3.201,2.396c0.083,0.051,1.432-1.405,1.291-1.66
			c-0.583-1.05-1.353-2.324-2.364-2.717c-1.007-0.391-2.602-0.18-3.552,0.4c-1.577,0.964-2.989,2.311-4.209,3.721
			c-1.686,1.948-1.787,7.631-0.168,9.158c2.675,2.526,4.899,1.1,6.994-1.043C239.134,468.279,239.854,468.05,240.458,467.707z
			 M236.343,426.315c0.433,0.068,0.865,0.138,1.297,0.206c0.242-1.303,0.484-2.606,0.902-4.855
			c-2.965,0.513-6.063,0.143-7.151,1.447c-1.695,2.034-0.739,4.829,1.406,6.906c0.692,0.671,0.777,1.967,1.141,2.977
			c-0.233,0.299-0.467,0.598-0.702,0.896c-1.673-0.778-3.346-1.558-5.414-2.521c-0.082,1.46-0.163,2.908-0.247,4.408
			c1.139,0.074,1.797,0.268,2.373,0.127c1.912-0.466,4.599-0.467,5.511-1.722c1.602-2.201,0.923-4.948-1.167-7.07
			c-0.491-0.498-1.006-1.283-0.971-1.905c0.041-0.727,0.672-1.421,1.048-2.128c0.55,0.499,1.215,0.923,1.612,1.524
			C236.279,425.058,236.235,425.737,236.343,426.315z M120.714,421.123c-1.147,4.007-2.276,7.419-3.027,10.911
			c-0.207,0.966,0.509,2.345,1.214,3.188c0.299,0.357,1.717-0.033,2.527-0.342c0.903-0.344,1.693-0.982,2.394-1.408
			c-1.271-1.157-2.412-1.808-2.327-2.18c0.62-2.718,0.67-6.438,2.459-7.818c2.83-2.183,0.412-3.703,1.054-6.045
			C122.993,419.163,121.526,420.425,120.714,421.123z M288.199,427.518c0.522-1.58,1.275-2.714,1.084-3.656
			c-0.143-0.707-1.444-1.559-2.321-1.677c-4.162-0.558-8.284,2.989-8.917,7.483c-0.367,2.606-0.097,5.176,2.565,6.345
			c2.418,1.061,4.55,0.104,6.083-2.117c0.405-0.588,1.072-0.993,1.95-1.778c-0.91-0.073-1.379-0.262-1.591-0.104
			c-1.923,1.419-4.036,2.348-5.995,0.477c-2.134-2.038,0.01-3.754,0.944-5.49c0.117-0.218,0.261-0.433,0.435-0.605
			c1.063-1.053,2.137-2.094,3.207-3.14C286.325,424.392,287.007,425.528,288.199,427.518z M406.232,420.371
			c-0.419-0.169-0.839-0.339-1.258-0.508c-1.416,1.724-4.518,2.148-3.494,5.771c0.357,1.264-0.464,2.874-0.794,4.315
			c-0.509,2.219-1.059,4.427-1.703,7.101c3.625-0.314,6.188-0.277,4.368-4.146c-0.309-0.658,0.076-1.703,0.283-2.533
			C404.47,427.03,405.362,423.703,406.232,420.371z M44.525,106.925c0.496,0.217,0.993,0.433,1.489,0.65
			c0.835-1.563,1.541-3.216,2.537-4.67c1.384-2.02,2.897-5.421,4.512-5.515c3.599-0.208,2.17-1.93,2.289-4.337
			c-1.679,1.123-2.773,1.855-4.146,2.773c-0.423-3.609-2.685-2.212-3.882-2.041C46.329,98.454,45.428,102.689,44.525,106.925z
			 M315.075,454.516c-0.452-0.365-0.903-0.731-1.355-1.098c-1.551,1.514-3.863,2.768-4.488,4.598
			c-1.105,3.237-1.267,6.816-1.637,10.271c-0.092,0.857,0.326,1.974,0.907,2.607c0.272,0.299,1.813-0.012,2.189-0.5
			c0.472-0.61,0.363-1.687,0.455-2.566c0.157-1.521,0.001-3.137,0.468-4.55C312.6,460.301,313.903,457.431,315.075,454.516z
			 M318.838,435.224c0.472,0.311,0.943,0.621,1.416,0.932c0.607-0.949,1.292-1.859,1.808-2.857c1.58-3.061,1.677-7.536,7.019-6.768
			c0-1.462,0-2.648,0-4.479c-1.651,0.845-2.856,1.461-3.315,1.695c-1.579-0.656-2.721-1.13-3.646-1.515
			C320.901,427.051,319.87,431.137,318.838,435.224z M245.735,418.313c-1.218,1.518-2.8,2.873-3.56,4.592
			c-0.894,2.021-1.122,4.35-1.548,6.563c-0.301,1.565-0.648,3.171-0.568,4.736c0.031,0.604,1.187,1.151,1.831,1.724
			c0.583-0.76,1.502-1.445,1.688-2.292c0.721-3.286,0.212-7.431,2.063-9.715C247.499,421.625,246.225,420.401,245.735,418.313z
			 M39.807,93.688c-0.126,2.368-0.04,4.217-0.375,5.986c-0.309,1.626-1.321,3.133-1.535,4.756c-0.113,0.853,0.819,1.844,1.28,2.773
			c1.073-1.004,2.89-1.885,3.08-3.035c0.554-3.345,0.456-6.796,0.625-10.48C42.316,93.688,41.028,93.688,39.807,93.688z
			 M181.258,463.464c5.475,0,10.78,0,16.848,0C193.136,459.896,183.511,460.072,181.258,463.464z M223.819,421.728
			c-1.046,5.074-1.961,9.511-2.875,13.947c0.42,0.1,0.84,0.201,1.26,0.302c4.895-3.233,1.429-9.629,5.552-13.687
			C225.784,422.009,224.756,421.861,223.819,421.728z M292.834,468.711c-0.271-0.214-0.54-0.427-0.811-0.64
			c0.241-1.3,0.492-2.599,0.725-3.899c0.344-1.929,0.775-3.851,0.941-5.795c0.044-0.512-0.753-1.096-1.165-1.647
			c-0.589,0.517-1.494,0.928-1.708,1.569c-0.639,1.91-1.098,3.895-1.451,5.881c-0.395,2.21-0.596,4.454-0.882,6.684
			c0.333,0.181,0.665,0.361,0.997,0.542C290.599,470.507,291.717,469.608,292.834,468.711z M180.012,427.253
			c3.088,2.323,13.966,2.327,16.772,0C191.053,427.253,185.934,427.253,180.012,427.253z M196.298,458.333
			c-3.704-2.662-12.318-2.24-14.551,0C186.673,458.333,191.486,458.333,196.298,458.333z M181.214,422.363
			c0.028,0.3,0.056,0.6,0.083,0.899c4.792,0,9.585,0,14.377,0c-0.006-0.3-0.012-0.6-0.018-0.899
			C190.843,422.363,186.029,422.363,181.214,422.363z M308.199,270.931c3.365-0.893,3.327-3.635,4.135-5.616
			c0.059-0.145-1.897-1.11-3.205-1.859C308.777,266.288,308.538,268.202,308.199,270.931z M284.39,241.548
			c0.491,0.329,0.981,0.659,1.473,0.987c0.845-0.944,1.689-1.888,2.534-2.832c-0.766-0.58-1.532-1.161-2.299-1.741
			C285.528,239.158,284.96,240.353,284.39,241.548z"/>
		<path fill-rule="evenodd" clip-rule="evenodd" d="M197.593,189.008c0-28.853,0-56.941,0-85.668
			c-6.947,2.365-13.604,4.63-20.259,6.894c-0.26-0.2-0.521-0.4-0.781-0.6c1.523-1.773,3.046-3.547,5.024-5.85
			c-1.528-0.132-2.545-0.297-3.562-0.297c-13.625,0.005-27.25,0.061-40.875-0.009c-0.916-0.005-1.827-0.922-2.74-1.415
			c1.014-0.364,2.028-1.045,3.042-1.044c13.735,0.009,27.471,0.114,41.207,0.187c0.45,0.002,0.901-0.085,1.824-0.179
			c-1.405-1.742-2.511-3.112-3.617-4.481c0.101-0.3,0.202-0.599,0.303-0.898c6.565,2.102,13.131,4.205,20.467,6.555
			c0-4.569,0.043-8.011-0.008-11.453c-0.142-9.551-0.367-19.102-0.406-28.653c-0.003-0.802,1.138-1.608,1.748-2.413
			c0.621,0.903,1.763,1.795,1.78,2.708c0.115,6.116-0.048,12.237-0.05,18.357c-0.006,33.239,0.01,66.478,0.018,99.717
			c0,2.722,0,5.444,0,8.448c12.531,0,24.817,0,37.403,0c-0.507-3.585,1.441-5.344,4.368-6.76c0.932-0.451,1.629-2.422,1.592-3.674
			c-0.241-8.4-0.874-16.789-1.062-25.189c-0.22-9.862-0.142-19.731-0.148-29.596c-0.011-15.072-0.002-30.143,0.035-45.214
			c0.026-10.604,0.03-21.209,0.227-31.811c0.059-3.177,0.735-6.342,0.364-10.088c-1.815,1.425-3.63,2.85-5.446,4.275
			c-0.211-0.101-0.423-0.201-0.636-0.3c2.253-6.931,4.506-13.86,6.759-20.791c0.302-0.011,0.604-0.023,0.906-0.035
			c2.352,6.865,4.703,13.73,7.399,21.6c-2.761-2.067-4.617-3.457-6.667-4.992c0,44.364,0,88.174,0,131.983
			c0.215,0.071,0.429,0.143,0.645,0.214c0.796-1.944,1.719-3.848,2.368-5.84c3.151-9.663,6.815-19.015,12.962-27.317
			c7.717-10.427,14.763-21.356,22.615-31.676c4.942-6.493,10.832-12.265,16.298-18.36c5.648-6.297,11.13-12.754,16.99-18.849
			c7.356-7.651,15.025-15.002,22.551-22.492c1.275-1.269,2.366-2.778,3.809-3.803c0.799-0.567,2.148-0.359,3.25-0.501
			c-0.175,1.176,0.085,2.803-0.593,3.458c-6.407,6.186-13.22,11.969-19.434,18.337c-7.257,7.438-14.021,15.357-21.022,23.046
			c-3.804,4.178-7.923,8.1-11.438,12.506c-8.121,10.183-16.197,20.42-23.828,30.97c-4.945,6.835-9.414,14.076-13.446,21.489
			c-2.644,4.858-4.288,10.293-6.08,15.572c-1.559,4.591-2.896,9.283-3.921,14.019c-0.374,1.728,0.402,3.717,0.716,5.576
			c0.222,1.319,0.549,2.622,0.905,4.284c0.729,0.062,1.682,0.21,2.634,0.214c15.871,0.062,31.742,0.172,47.612,0.042
			c1.479-0.012,3.387-1.233,4.327-2.475c2.098-2.773,5.183-3.131,7.439-0.253c1.677,2.139,3.489,2.924,6.402,2.923
			c33.355-0.012,66.71,0.201,100.064,0.386c2.561,0.014,5.12,0.267,8.321,0.444c-1.442-1.98-2.495-3.425-3.547-4.87
			c0.193-0.299,0.387-0.598,0.58-0.897c6.664,2.189,13.327,4.377,19.991,6.566c0.019,0.363,0.038,0.726,0.059,1.089
			c-6.628,2.157-13.257,4.313-19.885,6.471c-0.225-0.198-0.45-0.397-0.675-0.596c1.11-1.563,2.222-3.125,3.713-5.224
			c-9.087,0-17.515,0.073-25.94-0.017c-12.728-0.136-25.454-0.439-38.182-0.571c-12.604-0.129-25.209-0.122-37.814-0.204
			c-1.867-0.012-3.735-0.177-5.603-0.279c-2.543-0.14-4.761-0.436-6.921,2.064c-2.729,3.159-5.763,2.508-8.317-0.581
			c-0.693-0.839-1.997-1.66-3.025-1.666c-17.581-0.101-35.162-0.072-53.858-0.072c0.558,4.887,0.881,9.623,1.7,14.272
			c0.628,3.569,1.53,7.175,2.927,10.506c3.316,7.902,6.738,15.783,10.631,23.411c2.342,4.592,5.804,8.599,8.473,13.042
			c2.273,3.785,5.594,1.662,8.492,1.969c0.962,0.102,1.931,0.136,2.896,0.2c-0.32,0.807-0.542,1.675-0.98,2.411
			c-1.885,3.165-0.904,8.251,2.87,12.39c5.755,6.309,11.606,12.537,17.604,18.615c9.594,9.723,19.178,19.465,29.072,28.876
			c8.47,8.057,17.382,15.646,26.076,23.468c5.051,4.544,10.128,9.064,15.014,13.782c0.755,0.729,0.54,2.462,0.773,3.73
			c-1.142-0.325-2.568-0.321-3.381-1.027c-7.003-6.079-13.912-12.271-20.818-18.463c-4.891-4.386-9.797-8.758-14.586-13.255
			c-6.085-5.715-12.086-11.519-18.068-17.342c-4.198-4.085-8.311-8.258-12.449-12.404c-3.648-3.656-7.434-7.192-10.882-11.03
			c-4.831-5.373-9.151-11.227-14.188-16.389c-2.902-2.973-6.784-4.989-10.226-7.437c-0.241,0.263-0.482,0.525-0.725,0.788
			c0-0.587-0.233-1.532,0.034-1.707c4.98-3.248,0.224-5.581-0.988-7.795c-2.966-5.424-6.862-10.352-9.686-15.838
			c-3.757-7.303-6.849-14.949-10.579-22.486c0.945,15.338-2.39,30.777,1.207,46.115c-3.614,15.418,0.055,30.918-0.479,46.381
			c-0.539,15.604-0.482,31.23-0.643,46.849c-0.158,15.514-0.262,31.028-0.388,46.543c-0.495,0.042-0.99,0.085-1.485,0.126
			c-0.309-1.44-0.885-2.882-0.884-4.323c0.02-24.357,0.176-48.716,0.173-73.074c-0.004-31.235-0.229-62.471-0.131-93.707
			c0.031-10.064,0.813-20.125,1.185-30.19c0.185-5-1.87-7.165-6.744-7.178c-12.092-0.03-24.184-0.009-36.703-0.009
			c0,8.502-0.008,16.696,0.002,24.89c0.016,12.868-0.008,25.738,0.123,38.606c0.019,1.827,0.816,3.646,1.247,5.472
			c0.084,0.358,0.317,0.807,0.188,1.07c-3.131,6.386-1.249,13.186-1.392,19.748c-0.367,16.861-0.063,33.737-0.107,50.608
			c-0.003,1.115-0.671,2.229-1.029,3.343c-1.078-0.412-2.154-0.824-2.82-1.079c0.317-4.063,0.811-7.577,0.825-11.094
			c0.044-10.733-0.032-21.469-0.188-32.201c-0.111-7.609-0.53-15.214-0.612-22.823c-0.042-3.843,0.513-7.688,0.535-11.535
			c0.119-20.112,0.076-40.226,0.289-60.337c0.039-3.635-1.098-4.739-4.714-4.732c-42.246,0.088-84.492,0.038-126.738,0.026
			c-0.625,0-1.32,0.205-1.859-0.005c-0.888-0.346-1.674-0.952-2.503-1.448c0.792-0.399,1.582-1.143,2.375-1.146
			c11.861-0.048,23.723-0.01,35.584,0.031c23.366,0.081,46.731,0.175,70.097,0.265c6.998,0.027,13.996,0.057,20.994,0.082
			C193.026,189.015,195.117,189.008,197.593,189.008z"/>
		<path fill-rule="evenodd" clip-rule="evenodd" d="M97.571,426.857c0.849-4.032,1.698-8.064,2.58-12.252c0.91,0,2.176,0,3.094,0
			c-2.127,6.669-4.194,13.148-6.261,19.63c-0.351,0.123-0.701,0.248-1.051,0.372c-1.713-4.513-3.427-9.025-5.141-13.537
			c-0.392,0.001-0.783,0.003-1.175,0.004c-0.843,4.601-1.686,9.201-2.658,14.507c-0.924-0.047-2.741-0.139-4.832-0.244
			c3.449-6.732,7.223-12.892,5.768-20.692c3.772-0.638,4.492,1.742,5.241,4.803c0.639,2.608,2.206,4.989,3.363,7.47
			C96.857,426.897,97.214,426.878,97.571,426.857z"/>
		<path fill-rule="evenodd" clip-rule="evenodd" d="M351.899,423.998c3.641-2.673,4.857-2.385,6.256,2.278
			c0.417-0.939,0.515-1.729,0.946-2.019c1.123-0.755,2.351-1.519,3.633-1.758c0.341-0.063,1.443,1.74,1.472,2.707
			c0.05,1.701-0.506,3.412-0.714,5.13c-0.119,0.977,0.095,2.008-0.11,2.956c-0.177,0.822-0.564,1.759-1.172,2.283
			c-0.547,0.474-1.518,0.456-2.302,0.655c-0.199-0.886-0.718-1.844-0.538-2.644c0.538-2.403,1.35-4.743,2.055-7.108
			c-0.376-0.226-0.752-0.452-1.127-0.678c-1.261,1.734-2.611,3.41-3.755,5.219c-1.091,1.726-1.963,3.589-2.932,5.392
			c-0.534-0.207-1.069-0.413-1.604-0.619c0.821-3.226,1.643-6.449,2.53-9.937c-2.973,0.71-3.943,2.524-4.68,4.946
			c-0.596,1.959-1.986,3.676-3.024,5.5c-0.448-0.168-0.896-0.335-1.345-0.502c0.32-1.706,0.606-3.419,0.97-5.115
			c0.43-2.016,0.869-4.031,1.418-6.016c0.224-0.813,0.743-1.543,1.129-2.312C349.821,422.821,350.637,423.283,351.899,423.998z"/>
		<path fill-rule="evenodd" clip-rule="evenodd" d="M102.94,94.285c2.599-0.449,3.852-0.666,6.024-1.041
			c-0.781,2.613-1.056,4.701-2.004,6.416c-1.348,2.442-0.383,4.147,1.678,4.545c1.25,0.241,3.62-1.057,4.138-2.249
			c0.863-1.986,1.465-4.642-1.532-6.058c-0.381-0.18-0.454-1.013-0.753-1.748c2.586-0.812,4.857-1.634,5.201,2.052
			c1.953-1.018,3.452-1.966,5.083-2.542c0.445-0.158,1.285,0.799,1.944,1.245c-0.466,0.59-0.819,1.516-1.416,1.715
			c-4.789,1.595-4.803,1.553-3.486,6.701c1.068,0.135,2.185,0.277,3.432,0.434c-3.093,4.846-4.424,4.758-7.315-0.655
			c-0.469,0.936-0.658,1.757-1.169,2.235c-0.839,0.786-1.841,1.773-2.859,1.884c-1.007,0.109-2.131-1.132-3.183-1.1
			c-1.01,0.03-1.995,0.932-3.998,1.978c0.544-3.333,1.065-5.577,1.235-7.849C104.106,98.305,107.625,96.552,102.94,94.285z"/>
		<path fill-rule="evenodd" clip-rule="evenodd" d="M227.899,268.651c4.126-1.364,4.586-1.097,3.596,2.749
			c-0.934,3.624-2.464,7.097-3.367,10.728c-0.365,1.468,0.24,3.178,0.489,5.608c-0.231,0.189-1.25,1.021-1.824,1.488
			c-1.836-0.314-3.437-1.116-4.466-0.652c-2.105,0.947-4.314,1.076-5.238-0.706c-0.854-1.65-1.113-4.559-0.195-5.991
			c2.292-3.581,4.591-7.897,10.613-6.369C227.647,273.072,227.765,271.012,227.899,268.651z M225.232,277.241
			c-3.899,0.313-4.307,3.562-5.501,6.025c-0.33,0.68-0.192,1.587-0.27,2.389c1.028-0.021,2.532,0.385,3.001-0.138
			C224.446,283.31,226.796,281.06,225.232,277.241z"/>
		<path fill-rule="evenodd" clip-rule="evenodd" d="M33.399,93.551c0.457-2.305,0.889-4.484,1.321-6.662
			c-0.389-0.245-0.778-0.49-1.168-0.735c1.345-0.204,2.69-0.408,4.877-0.74c-0.543,2.563-0.816,4.601-1.421,6.534
			c-1.005,3.214-2.246,6.354-3.323,9.547c-0.137,0.405,0.132,0.94,0.187,1.418c0.124,1.067,0.232,2.135,0.347,3.203
			c-1.259,0.125-2.517,0.26-3.777,0.37c-0.707,0.062-1.416,0.083-2.125,0.121c-1.396,0.073-3.303,0.735-4.066,0.076
			c-1.1-0.949-1.991-2.91-1.878-4.354C22.778,97.116,27.609,93.284,33.399,93.551z M26.304,103.441
			c0.346,0.273,0.692,0.546,1.038,0.82c1.584-1.79,3.268-3.504,4.695-5.41c0.479-0.64,0.307-1.768,0.433-2.672
			c-0.942-0.089-1.939-0.421-2.817-0.224C26.735,96.611,25.688,99.083,26.304,103.441z"/>
		<path fill-rule="evenodd" clip-rule="evenodd" d="M90.129,106.768c0.768-2.725,1.681-5.422,2.223-8.192
			c0.181-0.924-0.584-2.035-0.917-3.06c-1.178,0.675-2.729,1.085-3.44,2.091c-0.931,1.316-1.198,3.103-1.818,4.876
			c0.646,0.606,1.389,1.303,2.842,2.666c-2.379,0.988-4.185,1.738-5.991,2.489c-0.289-0.305-0.578-0.61-0.866-0.916
			c0.846-4.023,1.692-8.047,2.538-12.07c-0.24-0.052-0.479-0.104-0.719-0.156c1.649-1.461,3.299-2.923,5.301-4.697
			c0.306,1.445,0.54,2.552,0.776,3.664c1.99,1.668,5.597-2.072,6.749,1.819c1.391-0.432,2.757-0.854,4.122-1.278
			c0.074,1.269,0.147,2.537,0.238,4.099c-5.068-1.877-5.062,2.584-6.786,4.537c-1.203,1.361-1.746,3.307-2.583,4.991
			C91.242,107.343,90.686,107.056,90.129,106.768z"/>
		<path fill-rule="evenodd" clip-rule="evenodd" d="M308.369,179.622c-1.505,0-3.03,0-4.244,0c1.782-6.825,3.502-13.41,5.364-20.543
			c3.329,0,7.757,0,12.643,0c-0.075,1.52-0.142,2.869-0.187,3.781c-3.181-0.464-6.165-1.666-8.598-0.96
			c-1.413,0.41-1.938,3.882-2.861,5.976c0.387,0.308,0.773,0.615,1.159,0.923c1.672-0.762,3.343-1.525,6.036-2.752
			c-0.771,2.725-1.342,4.751-1.781,6.305c-1.789-0.848-3.311-2.196-4.491-1.944c-1.063,0.227-2.115,2.098-2.517,3.439
			C308.382,175.557,308.53,177.463,308.369,179.622z"/>
		<path fill-rule="evenodd" clip-rule="evenodd" d="M447.927,421.61c-2.277-4.44-5.779-3.787-8.369-3.082
			c-1.434,0.391-2.119,3.532-3.142,5.434c0.363,0.39,0.728,0.779,1.092,1.169c1.697-0.721,3.395-1.442,6.078-2.58
			c-0.83,2.807-1.464,4.952-1.975,6.682c-1.28-0.696-2.71-2.116-3.78-1.884c-1.157,0.251-2.145,1.947-2.891,3.2
			c-0.474,0.794-0.665,1.992-0.476,2.902c0.85,4.082-1.678,3.803-4.477,3.704c1.86-6.832,3.663-13.46,5.688-20.897
			c3.002,0,7.158-0.083,11.304,0.082c0.683,0.026,1.704,1.048,1.88,1.775C449.051,418.904,448.434,419.887,447.927,421.61z"/>
		<path fill-rule="evenodd" clip-rule="evenodd" d="M284.585,456.902c0.153-2.309,0.307-4.618,0.485-7.311
			c0.991-0.114,2.141-0.246,4.309-0.496c-1.331,4.643-2.502,8.658-3.627,12.686c-0.495,1.769-0.909,3.56-1.341,5.344
			c-0.313,1.296-0.595,2.598-0.89,3.896c-1.037-0.603-2.074-1.205-3.111-1.809c0.037,0.229,0.074,0.457,0.11,0.686
			c-1.783,0.151-4.091,1.077-5.243,0.296c-2.71-1.836-2.404-4.849-0.948-7.507c0.86-1.571,1.902-3.292,3.331-4.24
			c1.692-1.123,3.888-1.486,5.866-2.18C283.879,456.479,284.232,456.69,284.585,456.902z M283.625,460.436
			c-0.664-1.001-0.954-1.879-1.336-1.92c-0.77-0.084-1.922,0.019-2.326,0.52c-1.501,1.866-2.9,3.851-4.024,5.957
			c-0.321,0.603,0.178,2.008,0.755,2.6c0.396,0.405,2.037,0.374,2.337-0.036C280.701,465.27,282.131,462.808,283.625,460.436z"/>
		<path fill-rule="evenodd" clip-rule="evenodd" d="M212.922,434.579c-1.607,0.381-3.817,1.625-4.859,0.98
			c-1.51-0.934-2.761-2.563-1.674-5.438c1.812-4.79,3.567-8.625,9.571-8.604c0.707,0.003,1.44-2.557,2.128-3.946
			c0.561-1.133,1.072-2.292,1.605-3.438c0.399,1.3,1.365,2.734,1.095,3.875c-0.98,4.137-2.386,8.173-3.603,12.254
			c-0.16,0.536-0.425,1.429-0.19,1.631c1.478,1.27,1.775,2.701-0.085,3.447C215.897,435.745,214.382,434.898,212.922,434.579z
			 M215.486,423.354c-4.295-0.139-7.316,5.112-5.692,9.538C214.271,431.598,216.214,428.458,215.486,423.354z"/>
		<path fill-rule="evenodd" clip-rule="evenodd" d="M150.06,473.327c2.017,0,3.224,0,4.87,0c1.605-4.54,3.208-9.073,5.006-14.161
			c-0.753-0.356-1.83-0.866-2.467-1.168c2.811-3.119,4.893-5.776,7.366-8.001c0.954-0.857,2.785-0.834,4.236-0.944
			c0.228-0.017,0.688,1.385,0.757,2.156c0.016,0.178-1.341,0.838-1.72,0.634c-2.606-1.405-3.489,0.564-3.426,2.209
			c0.098,2.576-1.333,4.41-2.116,6.561c-1.251,3.438-2.266,6.983-3.794,10.293c-0.858,1.857-2.412,3.475-3.924,4.914
			c-0.664,0.632-2.21,1.007-2.982,0.662C151.103,476.142,150.814,474.744,150.06,473.327z"/>
		<path fill-rule="evenodd" clip-rule="evenodd" d="M170.531,420.717c-0.667,3.735-1.132,6.28-1.575,8.829
			c-0.26,1.498-0.03,3.328-0.822,4.438c-1.801,2.524-2.002,2.381-3.372,0.795c-2.787,0.113-5.421,1.035-6.746,0.101
			c-2.619-1.848-1.917-4.684-0.102-7.148c1.214-1.648,1.947-4.111,3.545-4.909C163.923,421.591,166.943,421.476,170.531,420.717z
			 M160.648,432.766c3.11-0.735,6.903-5.513,6.044-7.875c-0.266-0.73-2.998-1.452-3.181-1.189
			C161.691,426.317,159.114,428.808,160.648,432.766z"/>
		<path fill-rule="evenodd" clip-rule="evenodd" d="M222.798,180.267c0.513-4.312,1.19-8.612,1.468-12.938
			c0.137-2.129-0.467-4.305-0.771-6.742c1.781,0,3.848,0,5.448,0c-0.813,4.119-1.568,7.945-2.323,11.771
			c0.497,0.236,0.992,0.473,1.489,0.708c2.66-4.043,5.322-8.087,8.325-12.65c0.159,0.01,1.229,0.083,3.047,0.206
			c-5.316,7.019-10.257,13.542-15.198,20.065C223.788,180.547,223.293,180.407,222.798,180.267z"/>
		<path fill-rule="evenodd" clip-rule="evenodd" d="M298.338,237.546c0.846,0.343,1.692,0.686,2.753,1.115
			c0.806-1.266,1.864-2.469,2.398-3.872c0.936-2.456,2.746-5.444,2.05-7.474c-1.469-4.275,1.176-6.167,3.051-8.919
			c1.474-2.162,2.927-3.917,5.637-3.841c0.967,0.027,1.952,0.743,2.828,1.302c0.135,0.086-0.357,1.509-0.421,1.498
			c-0.967-0.166-1.911-0.466-3.1-0.804c-2.02,1.236-3.04,2.911-2.6,5.916c0.231,1.577-1.684,3.404-2.425,5.202
			c-1.641,3.982-2.896,8.151-4.874,11.948c-0.594,1.138-3.037,1.578-4.689,1.734c-0.49,0.047-1.177-1.961-1.772-3.028
			C297.562,238.063,297.949,237.805,298.338,237.546z"/>
		<path fill-rule="evenodd" clip-rule="evenodd" d="M377.701,436.311c0.445-6.611,0.892-13.223,1.359-20.166
			c0.927,0,2.422,0,3.542,0c-0.451,4.071-0.89,8.01-1.328,11.948c0.501,0.158,1,0.315,1.5,0.474
			c1.916-3.473,3.941-6.893,5.706-10.441c0.955-1.923,1.403-2.313,4.925-1.773c-5.075,6.963-9.971,13.679-14.865,20.396
			C378.261,436.602,377.98,436.455,377.701,436.311z"/>
		<path fill-rule="evenodd" clip-rule="evenodd" d="M200.412,472.871c1.803,0.614,2.759,0.94,4.343,1.479
			c1.428-4.16,3.038-8.273,4.178-12.514c0.367-1.363-0.506-3.061-0.8-4.541c1.767-2.051,3.625-4.517,5.829-6.622
			c0.964-0.921,2.633-1.473,3.983-1.476c0.738-0.001,1.48,1.492,2.221,2.312c-0.854,0.05-1.8-0.115-2.541,0.2
			c-1.217,0.519-2.962,1.107-3.321,2.092c-1.27,3.479-1.715,7.271-3.096,10.694c-1.609,3.989-1.533,9.005-6.041,11.425
			c-1.03,0.553-2.477,0.995-3.479,0.682C201.088,476.415,200.977,474.662,200.412,472.871z"/>
		<path fill-rule="evenodd" clip-rule="evenodd" d="M320.037,416.628c-1.69,5.1-3.338,10.421-5.233,15.652
			c-1.063,2.938-2.26,5.907-3.96,8.493c-0.691,1.051-2.879,1.118-4.385,1.633c-0.3-1.161-0.6-2.322-1.19-4.608
			c3.67,2.682,4.788,1.607,5.377-1.36c0.635-3.204,1.852-6.289,2.648-9.468c0.317-1.268,0.191-2.646,0.315-4.791
			c0.841-1.101,2.215-3.045,3.754-4.848c0.847-0.994,1.862-2.214,3.004-2.483c1.084-0.258,2.466,0.506,3.632,1.016
			c0.232,0.102,0.082,1.083,0.107,1.658C323.059,417.292,322.011,417.062,320.037,416.628z"/>
		<path fill-rule="evenodd" clip-rule="evenodd" d="M316.021,254.623c3.729-2.584,5.257-1.98,5.708,1.646
			c0.254,2.032,0.443,4.074,0.714,6.598c2.925-2.261,4.227-4.436,3.683-7.613c-0.116-0.675,0.763-1.521,1.184-2.288
			c0.568,0.686,1.603,1.365,1.609,2.058c0.019,1.574,0.038,3.556-0.838,4.659c-3.374,4.246-7.08,8.229-10.717,12.262
			c-0.448,0.496-1.267,1.022-1.84,0.951c-0.786-0.099-1.502-0.756-2.247-1.173c0.518-0.542,0.977-1.471,1.563-1.562
			c3.45-0.531,4.718-2.531,4.468-5.854C319.048,260.859,320.408,256.971,316.021,254.623z"/>
		<path fill-rule="evenodd" clip-rule="evenodd" d="M338.407,470.747c0.786-3.567,1.571-7.136,2.357-10.704
			c-0.335-0.229-0.669-0.46-1.003-0.69c-3.019,3.863-6.037,7.726-9.056,11.589c-0.225-0.093-0.448-0.185-0.673-0.276
			c0.846-4.212,1.691-8.424,2.659-13.245c1.007,0.249,2.619,0.647,4.229,1.045c0.008,0.441,0.017,0.884,0.025,1.326
			c0.164-0.308,0.269-0.821,0.501-0.887c1.811-0.512,3.646-0.937,5.473-1.389c0.129,2.02,0.439,4.049,0.328,6.054
			c-0.089,1.604-0.51,3.253-1.122,4.742c-0.483,1.171-1.483,2.129-2.254,3.183C339.385,471.245,338.896,470.996,338.407,470.747z"/>
		<path fill-rule="evenodd" clip-rule="evenodd" d="M256.806,457.332c-1.017,2.865-1.795,4.868-2.421,6.917
			c-0.242,0.797-0.046,1.716-0.213,2.547c-0.278,1.385-0.688,2.744-1.043,4.113c-1.002-0.609-2.002-1.22-3.311-2.017
			c-0.063,0.026-0.498,0.231-0.952,0.384c-1.377,0.463-3.813,1.521-3.97,1.255c-0.971-1.66-2.467-4.124-1.855-5.378
			c1.412-2.894,3.56-5.755,6.138-7.625C250.663,456.451,253.566,457.332,256.806,457.332z M252.316,460.407
			c-0.238-0.311-0.725-1.596-1.562-1.893c-1.415-0.502-5.059,4.64-5,7.262c0.017,0.756,1.365,2.217,1.806,2.111
			C250.954,467.078,251.667,464.173,252.316,460.407z"/>
		<path fill-rule="evenodd" clip-rule="evenodd" d="M60.26,102.09c1.498,2.385,1.498,2.385,6.321,1
			c0.381,3.062-2.012,3.599-3.903,4.101c-2.286,0.607-4.55,0.136-5.602-2.383c-1.476-3.53,2.687-10.906,6.517-11.21
			c1.484-0.117,3.956,0.554,4.423,1.577c1.151,2.519-0.715,4.299-2.967,5.325C63.56,101.178,61.93,101.549,60.26,102.09z"/>
		<path fill-rule="evenodd" clip-rule="evenodd" d="M270.814,435.675c0.873-3.513,1.747-7.026,2.62-10.539
			c-3.532,1.646-6.042,3.894-7.386,7.401c-0.481,1.258-1.77,2.205-2.689,3.296c-0.111-1.195-0.502-2.446-0.274-3.571
			c0.409-2.012,1.248-3.933,1.793-5.922c0.303-1.109,0.373-2.282,0.586-3.672c2.538-0.753,2.538-0.753,2.964,1.747
			c2.157-0.85,4.399-1.731,7.406-2.914c-0.296,4.93-0.351,8.729-0.87,12.465c-0.129,0.933-1.748,1.658-2.683,2.479
			C271.792,436.188,271.303,435.933,270.814,435.675z"/>
		<path fill-rule="evenodd" clip-rule="evenodd" d="M282.039,173.209c-0.33,1.376-0.646,2.749-0.992,4.115
			c-0.384,1.526-1.325,3.132-1.091,4.548c0.575,3.473-0.591,3.868-3.63,3.093c-1.28-0.326-2.87,0.561-5.385,1.143
			c-2.249-0.636-3.572-2.805-2.191-6.079C270.914,174.899,271.86,171.082,282.039,173.209z M278.621,177.182
			c-0.72-1.419-1.14-2.249-1.56-3.078c-0.803,0.441-1.802,0.71-2.368,1.358c-1.186,1.354-2.313,2.822-3.117,4.418
			c-0.341,0.675-0.117,2.192,0.412,2.603c0.605,0.47,2.282,0.545,2.713,0.075C276.194,180.929,277.348,178.99,278.621,177.182z"/>
		<path fill-rule="evenodd" clip-rule="evenodd" d="M369.019,468.335c-1.155,0.877-2.222,1.917-3.482,2.599
			c-3.363,1.819-6.581-0.177-6.676-4.021c-0.135-5.418,2.31-8.963,6.096-9.442c1.651-0.209,3.479,0.98,5.227,1.534
			c-1.13,1.718-2.071,3.615-3.467,5.08c-0.742,0.778-2.384,0.617-3.408,1.233c-0.772,0.464-1.207,1.488-1.791,2.264
			c0.984,0.264,1.995,0.813,2.945,0.723c1.276-0.121,2.505-0.737,3.754-1.141C368.483,467.555,368.751,467.944,369.019,468.335z"/>
		<path fill-rule="evenodd" clip-rule="evenodd" d="M323.218,469.939c-2.21,0.173-4.759,1.169-6.063,0.299
			c-2.347-1.567-2.036-4.019-0.425-6.695c3.982-6.617,4.358-6.999,12.165-5.516c-0.692,4.011-1.323,8.047-2.243,12.016
			C326.598,470.28,324.221,469.979,323.218,469.939z M326.64,459.94c-1.622-0.504-3.447-1.423-3.71-1.094
			c-1.672,2.091-3.119,4.397-4.341,6.785c-0.253,0.493,0.563,1.98,1.246,2.358c0.501,0.278,1.925-0.268,2.358-0.866
			C323.63,465.14,324.806,462.965,326.64,459.94z"/>
		<path fill-rule="evenodd" clip-rule="evenodd" d="M116.762,425.05c0.006,5.067-3.707,9.629-7.236,10.692
			c-3.042,0.916-6.737-3.055-6.065-6.046c0.723-3.217,1.743-6.457,5.224-7.738c1.637-0.603,3.889-1.28,5.186-0.611
			C115.426,422.147,116.259,424.35,116.762,425.05z M113.755,426.888c-0.573-1.666-0.668-3.133-1.445-3.785
			c-0.52-0.435-2.624-0.052-2.958,0.552c-1.262,2.285-2.213,4.771-2.991,7.271c-0.18,0.578,0.647,1.991,1.259,2.17
			c0.878,0.255,2.451,0.078,2.902-0.528C111.846,430.788,112.761,428.705,113.755,426.888z"/>
		<path fill-rule="evenodd" clip-rule="evenodd" d="M420.962,428.458c-0.278,3.612-2.077,6.376-5.297,7.797
			c-1.466,0.646-3.936,0.868-5.027,0.051c-1.424-1.065-2.432-3.279-2.712-5.136c-0.368-2.448,4.477-8.128,6.655-8.512
			C419.303,421.824,421.234,423.581,420.962,428.458z M419.205,428.272c-1.166-1.739-1.945-2.901-2.725-4.063
			c-0.915,0.622-2.15,1.047-2.68,1.906c-1.102,1.79-2.03,3.752-2.613,5.763c-0.237,0.82,0.5,2.021,1.03,2.907
			c0.157,0.262,1.412,0.296,1.671,0.001C415.666,432.764,417.313,430.627,419.205,428.272z"/>
		<path fill-rule="evenodd" clip-rule="evenodd" d="M302.572,255.791c1.67-1.198,3.114-2.234,5.229-3.752
			c0.212,2.178,0.315,3.236,0.418,4.295c-1.721,1.162-5.39-0.471-4.655,3.36c0.306,1.596,1.172,3.085,1.783,4.622
			c0.523,0.118,1.048,0.236,1.571,0.354c-1.015,0.759-2.135,2.231-3.02,2.102c-1.237-0.182-2.299-1.559-3.934-2.805
			c-0.87,0.776-2.277,2.031-3.685,3.287c-0.329-0.186-0.657-0.371-0.985-0.558c0.316-0.915,0.352-2.234,0.993-2.681
			c4.711-3.276,4.824-5.014,0.339-8.622c-0.268-0.215-0.414-0.58-0.611-0.867C298.867,251.788,300.496,252.108,302.572,255.791z"/>
		<path fill-rule="evenodd" clip-rule="evenodd" d="M344.047,427.61c0.022,4.981-3.879,9.041-8.633,8.98
			c-2.982-0.038-4.72-2.039-4.661-5.366c0.086-4.938,3.692-8.832,8.25-8.908C343.327,422.243,344.024,422.977,344.047,427.61z
			 M333.672,434.057c1.913-0.311,4.127-0.005,5.174-0.967c2.672-2.459,3.218-5.773,1.845-9.253
			C336.968,423.554,333.491,428.066,333.672,434.057z"/>
		<path fill-rule="evenodd" clip-rule="evenodd" d="M255.661,434.466c-2.308,0.611-3.938,1.524-5.294,1.22
			c-0.787-0.178-1.575-2.306-1.6-3.569c-0.107-5.684,3.973-12.716,12.015-9.474c-0.243,3.784-0.39,7.572-0.812,11.331
			c-0.08,0.724-1.366,1.964-1.861,1.859C256.978,435.593,255.99,434.669,255.661,434.466z M257.309,422.773
			c-4.045,1.064-5.152,4.229-6.052,7.396c-0.238,0.84,0.456,1.943,0.722,2.927c1.001-0.313,2.28-0.337,2.953-0.989
			C257.417,429.705,258.722,426.819,257.309,422.773z"/>
		<path fill-rule="evenodd" clip-rule="evenodd" d="M129.706,431.049c2.072,4.231,4.872-0.7,7.678,1.255
			c-1.96,1.29-3.481,2.712-5.283,3.37c-2.199,0.804-4.122,0.154-4.859-2.532c-1.264-4.608,1.302-10.548,5.724-11.828
			c1.489-0.431,3.471,0.842,5.227,1.335c-0.49,1.451-0.557,3.403-1.559,4.245C134.629,428.581,132.113,429.66,129.706,431.049z
			 M129.381,427.382c0.304,0.275,0.608,0.549,0.911,0.824c2.113-1.051,5.301-1.135,3.959-6.244
			C132.318,424.114,130.85,425.749,129.381,427.382z"/>
		<path fill-rule="evenodd" clip-rule="evenodd" d="M253.51,40.828c5.123-5.552,5.963-11.359,1.776-17.724
			c2.563-0.652,4.6-1.359,4.869,2.242c0.127,1.705,0.499,3.391,0.761,5.085c0.43,0.134,0.859,0.267,1.289,0.401
			c0.781-2.019,1.562-4.037,2.345-6.054c0.289-0.743,0.425-1.924,0.923-2.107c0.591-0.217,1.738,0.224,2.196,0.761
			c0.415,0.487,0.592,1.77,0.246,2.217c-4.128,5.332-8.372,10.574-12.587,15.839C254.722,41.268,254.116,41.048,253.51,40.828z"/>
		<path fill-rule="evenodd" clip-rule="evenodd" d="M293.892,433.056c2.447-0.152,4.893-0.306,7.452-0.465
			c-1.268,1.154-2.346,2.301-3.586,3.229c-2.334,1.744-5.624,0.473-6.404-2.387c-1.313-4.813,1.68-10.468,6.328-11.403
			c1.323-0.266,2.874,0.599,4.321,0.943c-0.57,1.865-0.617,4.264-1.84,5.463c-1.588,1.559-4.112,2.163-6.233,3.179
			C293.918,432.095,293.905,432.575,293.892,433.056z M293.663,428.099c4.67,0.184,6.358-1.418,5.255-5.73
			C296.994,424.466,295.441,426.159,293.663,428.099z"/>
		<path fill-rule="evenodd" clip-rule="evenodd" d="M457.097,186.95c2.151,0.389,4.302,0.778,7.235,1.309
			c0.604-0.189,2.258-0.704,4.557-1.42c-0.838,4.182-7.128,3.222-5.026,7.856c0.453,0.999,1.979,1.509,3.819,2.82
			c-0.625,0.67-1.431,2.008-2.607,2.581c-0.51,0.248-1.734-1.46-2.729-1.599c-1.066-0.147-2.234,0.552-3.376,0.798
			c-1.008,0.218-2.04,0.32-3.063,0.473c0.539-0.78,0.915-1.794,1.645-2.304C461.938,194.395,461.804,191.871,457.097,186.95z"/>
		<path fill-rule="evenodd" clip-rule="evenodd" d="M227.781,461.639c-0.034,4.853-3.807,9.426-7.793,9.446
			c-2.817,0.015-5.011-2.582-4.863-5.759c0.209-4.474,4.391-8.895,8.563-9.053C226.05,456.185,227.803,458.483,227.781,461.639z
			 M224.556,458.501c-3.693-0.401-6.59,2.728-6.47,7.208c0.026,0.988,0.717,2.786,1.093,2.784c1.213-0.008,2.812-0.331,3.559-1.164
			C224.973,464.832,226.13,461.889,224.556,458.501z"/>
		<path fill-rule="evenodd" clip-rule="evenodd" d="M305.852,457.584c-0.11,1.272-0.196,2.279-0.34,3.938
			c-1.515-1.41-2.527-2.353-3.538-3.294c-0.303,0.148-0.604,0.298-0.907,0.447c0.412,1.577,0.406,3.486,1.332,4.654
			c1.422,1.792,2.5,3.297,1.267,5.568c-1.302,2.397-3.493,2.417-5.77,2.248c-0.853-0.063-1.702-0.17-2.843-0.286
			c0.126-1.405,0.238-2.675,0.344-3.866c1.886,0.774,3.566,1.465,5.247,2.153c0.293-0.272,0.585-0.546,0.878-0.819
			c-0.475-1.083-0.67-2.496-1.479-3.187c-2.11-1.798-3.298-4.02-2.084-6.434c1.286-2.556,3.934-1.858,6.246-1.28
			C304.556,457.516,304.934,457.502,305.852,457.584z"/>
		<path fill-rule="evenodd" clip-rule="evenodd" d="M355.859,466.286c-1.804,4.512-4.212,5.945-7.653,4.844
			c-3.328-1.064-2.966-4.042-2.484-6.502c0.965-4.935,4.24-7.704,8.424-7.171c1.014,0.13,2.615,0.438,2.822,1.047
			c0.349,1.021-0.206,2.351-0.381,3.55c-0.393,0.047-0.784,0.093-1.176,0.138c-0.43-1.104-0.858-2.21-1.368-3.522
			c-3.315,0.732-5.149,2.871-5.555,6.136c-0.131,1.056,0.269,2.952,0.869,3.156c1.149,0.39,2.633-0.078,3.945-0.35
			C353.957,467.477,354.539,466.99,355.859,466.286z"/>
		<path fill-rule="evenodd" clip-rule="evenodd" d="M262.012,449.502c0.581,0,2.113,0,3.945,0c-1.998,6.323-5.031,12.2-4.723,18.702
			c0.391,0.174,0.78,0.349,1.171,0.522c-1.271,0.892-2.544,1.783-3.815,2.674c-0.439-0.267-0.88-0.533-1.319-0.801
			C258.788,463.848,260.305,457.096,262.012,449.502z"/>
		<path fill-rule="evenodd" clip-rule="evenodd" d="M80.396,102.562c-1.512,4.249-4.061,4.976-7.184,4.709
			c-3.267-0.28-3.014-2.734-2.989-4.977c0.06-5.421,4.657-9.769,9.41-8.675c0.904,0.208,1.649,1.67,2.159,2.706
			c0.167,0.337-0.528,1.395-1.063,1.671c-0.333,0.173-1.075-0.634-1.685-0.765c-1.274-0.274-3.086-1.015-3.78-0.454
			c-2.021,1.632-3.575,4.021-1.957,6.669c1.158,1.894,2.972,2.008,4.554,0.019C78.163,103.085,78.917,103.065,80.396,102.562z"/>
		<path fill-rule="evenodd" clip-rule="evenodd" d="M240.458,467.707c-0.603,0.343-1.323,0.572-1.789,1.049
			c-2.095,2.143-4.319,3.569-6.994,1.043c-1.619-1.527-1.518-7.21,0.168-9.158c1.22-1.41,2.632-2.757,4.209-3.721
			c0.95-0.58,2.545-0.791,3.552-0.4c1.011,0.393,1.781,1.667,2.364,2.717c0.142,0.255-1.208,1.711-1.291,1.66
			c-1.067-0.649-2.029-1.472-3.201-2.396c-2.985,1.373-5.244,4.7-4.279,7.483c0.327,0.941,2.056,1.842,3.206,1.93
			c1.179,0.089,2.435-0.842,3.658-1.325C240.192,466.961,240.325,467.334,240.458,467.707z"/>
		<path fill-rule="evenodd" clip-rule="evenodd" d="M236.343,426.315c-0.108-0.578-0.064-1.258-0.363-1.709
			c-0.397-0.602-1.062-1.025-1.612-1.524c-0.375,0.707-1.007,1.401-1.048,2.128c-0.035,0.622,0.48,1.407,0.971,1.905
			c2.09,2.122,2.769,4.869,1.167,7.07c-0.913,1.255-3.6,1.256-5.511,1.722c-0.576,0.141-1.234-0.053-2.373-0.127
			c0.084-1.5,0.166-2.948,0.247-4.408c2.068,0.963,3.741,1.742,5.414,2.521c0.234-0.299,0.468-0.598,0.702-0.896
			c-0.363-1.01-0.449-2.306-1.141-2.977c-2.145-2.077-3.101-4.872-1.406-6.906c1.089-1.305,4.187-0.935,7.151-1.447
			c-0.418,2.249-0.66,3.553-0.902,4.855C237.208,426.453,236.776,426.384,236.343,426.315z"/>
		<path fill-rule="evenodd" clip-rule="evenodd" d="M120.714,421.123c0.812-0.698,2.279-1.96,4.294-3.693
			c-0.642,2.342,1.776,3.862-1.054,6.045c-1.79,1.38-1.84,5.101-2.459,7.818c-0.084,0.372,1.056,1.022,2.327,2.18
			c-0.701,0.426-1.491,1.064-2.394,1.408c-0.811,0.309-2.229,0.699-2.527,0.342c-0.705-0.844-1.42-2.223-1.214-3.188
			C118.438,428.542,119.567,425.13,120.714,421.123z"/>
		<path fill-rule="evenodd" clip-rule="evenodd" d="M288.199,427.518c-1.192-1.989-1.874-3.126-2.556-4.263
			c-1.07,1.046-2.145,2.087-3.207,3.14c-0.174,0.173-0.317,0.388-0.435,0.605c-0.935,1.736-3.078,3.452-0.944,5.49
			c1.959,1.871,4.072,0.942,5.995-0.477c0.212-0.158,0.681,0.03,1.591,0.104c-0.878,0.785-1.545,1.19-1.95,1.778
			c-1.533,2.222-3.665,3.178-6.083,2.117c-2.662-1.169-2.933-3.738-2.565-6.345c0.633-4.494,4.755-8.041,8.917-7.483
			c0.877,0.118,2.179,0.97,2.321,1.677C289.475,424.804,288.722,425.938,288.199,427.518z"/>
		<path fill-rule="evenodd" clip-rule="evenodd" d="M406.232,420.371c-0.87,3.332-1.763,6.659-2.598,10
			c-0.207,0.83-0.592,1.875-0.283,2.533c1.82,3.869-0.743,3.832-4.368,4.146c0.645-2.674,1.194-4.882,1.703-7.101
			c0.33-1.441,1.151-3.052,0.794-4.315c-1.023-3.623,2.078-4.048,3.494-5.771C405.394,420.032,405.813,420.202,406.232,420.371z"/>
		<path fill-rule="evenodd" clip-rule="evenodd" d="M44.525,106.925c0.902-4.235,1.804-8.471,2.798-13.141
			c1.198-0.171,3.459-1.568,3.882,2.041c1.372-0.918,2.466-1.65,4.146-2.773c-0.119,2.407,1.31,4.129-2.289,4.337
			c-1.615,0.094-3.128,3.495-4.512,5.515c-0.996,1.454-1.702,3.107-2.537,4.67C45.518,107.358,45.021,107.142,44.525,106.925z"/>
		<path fill-rule="evenodd" clip-rule="evenodd" d="M315.075,454.516c-1.172,2.915-2.476,5.785-3.461,8.763
			c-0.467,1.413-0.311,3.029-0.468,4.55c-0.092,0.88,0.017,1.956-0.455,2.566c-0.376,0.488-1.917,0.799-2.189,0.5
			c-0.581-0.634-0.999-1.75-0.907-2.607c0.37-3.455,0.531-7.034,1.637-10.271c0.625-1.83,2.938-3.084,4.488-4.598
			C314.172,453.784,314.623,454.15,315.075,454.516z"/>
		<path fill-rule="evenodd" clip-rule="evenodd" d="M318.838,435.224c1.032-4.087,2.063-8.173,3.28-12.991
			c0.926,0.385,2.067,0.858,3.646,1.515c0.459-0.234,1.664-0.851,3.315-1.695c0,1.83,0,3.017,0,4.479
			c-5.342-0.769-5.438,3.707-7.019,6.768c-0.516,0.998-1.2,1.908-1.808,2.857C319.781,435.845,319.31,435.534,318.838,435.224z"/>
		<path fill-rule="evenodd" clip-rule="evenodd" d="M245.735,418.313c0.49,2.089,1.764,3.313-0.094,5.607
			c-1.851,2.284-1.342,6.429-2.063,9.715c-0.186,0.847-1.105,1.532-1.688,2.292c-0.644-0.572-1.8-1.119-1.831-1.724
			c-0.081-1.565,0.267-3.171,0.568-4.736c0.426-2.213,0.654-4.541,1.548-6.563C242.936,421.186,244.517,419.83,245.735,418.313z"/>
		<path fill-rule="evenodd" clip-rule="evenodd" d="M39.807,93.688c1.221,0,2.509,0,3.074,0c-0.169,3.684-0.071,7.136-0.625,10.48
			c-0.19,1.15-2.006,2.031-3.08,3.035c-0.46-0.929-1.393-1.92-1.28-2.773c0.214-1.624,1.226-3.13,1.535-4.756
			C39.767,97.905,39.68,96.055,39.807,93.688z"/>
		<path fill-rule="evenodd" clip-rule="evenodd" d="M181.258,463.464c2.253-3.392,11.878-3.568,16.848,0
			C192.038,463.464,186.732,463.464,181.258,463.464z"/>
		<path fill-rule="evenodd" clip-rule="evenodd" d="M223.819,421.728c0.937,0.134,1.965,0.281,3.937,0.563
			c-4.123,4.058-0.657,10.453-5.552,13.687c-0.419-0.101-0.84-0.202-1.26-0.302C221.858,431.238,222.773,426.802,223.819,421.728z"
			/>
		<path fill-rule="evenodd" clip-rule="evenodd" d="M292.834,468.711c-1.117,0.897-2.235,1.796-3.354,2.694
			c-0.332-0.181-0.664-0.361-0.997-0.542c0.286-2.229,0.487-4.474,0.882-6.684c0.354-1.986,0.813-3.971,1.451-5.881
			c0.214-0.642,1.119-1.053,1.708-1.569c0.412,0.552,1.209,1.136,1.165,1.647c-0.166,1.944-0.598,3.866-0.941,5.795
			c-0.232,1.301-0.483,2.6-0.725,3.899C292.294,468.284,292.563,468.497,292.834,468.711z"/>
		<path fill-rule="evenodd" clip-rule="evenodd" d="M180.012,427.253c5.922,0,11.042,0,16.772,0
			C193.978,429.58,183.1,429.576,180.012,427.253z"/>
		<path fill-rule="evenodd" clip-rule="evenodd" d="M196.298,458.333c-4.813,0-9.625,0-14.551,0
			C183.98,456.093,192.595,455.671,196.298,458.333z"/>
		<path fill-rule="evenodd" clip-rule="evenodd" d="M181.214,422.363c4.815,0,9.629,0,14.443,0c0.006,0.3,0.012,0.6,0.018,0.899
			c-4.792,0-9.585,0-14.377,0C181.27,422.963,181.242,422.663,181.214,422.363z"/>
		<path fill-rule="evenodd" clip-rule="evenodd" d="M308.199,270.931c0.339-2.729,0.578-4.643,0.93-7.476
			c1.308,0.749,3.264,1.715,3.205,1.859C311.526,267.296,311.564,270.038,308.199,270.931z"/>
		<path fill-rule="evenodd" clip-rule="evenodd" d="M284.39,241.548c0.57-1.196,1.139-2.39,1.708-3.586
			c0.767,0.581,1.533,1.161,2.299,1.741c-0.845,0.944-1.689,1.888-2.534,2.832C285.371,242.207,284.881,241.877,284.39,241.548z"/>
		<path fill-rule="evenodd" clip-rule="evenodd" fill="#FFFFFF" d="M225.232,277.241c1.564,3.818-0.786,6.068-2.769,8.276
			c-0.469,0.522-1.973,0.117-3.001,0.138c0.078-0.802-0.06-1.709,0.27-2.389C220.925,280.803,221.333,277.554,225.232,277.241z"/>
		<path fill-rule="evenodd" clip-rule="evenodd" fill="#FFFFFF" d="M26.304,103.441c-0.616-4.358,0.431-6.83,3.349-7.486
			c0.878-0.198,1.875,0.134,2.817,0.224c-0.126,0.905,0.046,2.033-0.433,2.672c-1.428,1.906-3.111,3.621-4.695,5.41
			C26.996,103.987,26.649,103.714,26.304,103.441z"/>
		<path fill-rule="evenodd" clip-rule="evenodd" fill="#FFFFFF" d="M283.625,460.436c-1.494,2.372-2.924,4.834-4.595,7.12
			c-0.3,0.41-1.94,0.441-2.337,0.036c-0.577-0.592-1.076-1.997-0.755-2.6c1.124-2.106,2.523-4.091,4.024-5.957
			c0.404-0.501,1.557-0.604,2.326-0.52C282.671,458.557,282.961,459.435,283.625,460.436z"/>
		<path fill-rule="evenodd" clip-rule="evenodd" fill="#FFFFFF" d="M215.486,423.354c0.728,5.104-1.215,8.243-5.692,9.538
			C208.17,428.467,211.191,423.216,215.486,423.354z"/>
		<path fill-rule="evenodd" clip-rule="evenodd" fill="#FFFFFF" d="M160.648,432.766c-1.534-3.958,1.043-6.448,2.864-9.064
			c0.183-0.263,2.915,0.459,3.181,1.189C167.551,427.253,163.758,432.03,160.648,432.766z"/>
		<path fill-rule="evenodd" clip-rule="evenodd" fill="#FFFFFF" d="M252.316,460.407c-0.649,3.766-1.362,6.671-4.756,7.48
			c-0.441,0.105-1.789-1.355-1.806-2.111c-0.059-2.622,3.585-7.764,5-7.262C251.592,458.812,252.078,460.097,252.316,460.407z"/>
		<path fill-rule="evenodd" clip-rule="evenodd" fill="#FFFFFF" d="M278.621,177.182c-1.273,1.808-2.427,3.747-3.92,5.375
			c-0.431,0.47-2.107,0.395-2.713-0.075c-0.529-0.41-0.753-1.927-0.412-2.603c0.805-1.596,1.932-3.064,3.117-4.418
			c0.566-0.647,1.565-0.917,2.368-1.358C277.481,174.933,277.901,175.763,278.621,177.182z"/>
		<path fill-rule="evenodd" clip-rule="evenodd" fill="#FFFFFF" d="M326.64,459.94c-1.834,3.024-3.01,5.199-4.446,7.184
			c-0.434,0.599-1.857,1.145-2.358,0.866c-0.684-0.378-1.499-1.865-1.246-2.358c1.222-2.388,2.669-4.694,4.341-6.785
			C323.192,458.518,325.018,459.437,326.64,459.94z"/>
		<path fill-rule="evenodd" clip-rule="evenodd" fill="#FFFFFF" d="M113.755,426.888c-0.995,1.817-1.909,3.9-3.232,5.68
			c-0.451,0.606-2.024,0.783-2.902,0.528c-0.612-0.179-1.439-1.592-1.259-2.17c0.777-2.5,1.729-4.986,2.991-7.271
			c0.333-0.604,2.438-0.986,2.958-0.552C113.087,423.755,113.182,425.222,113.755,426.888z"/>
		<path fill-rule="evenodd" clip-rule="evenodd" fill="#FFFFFF" d="M419.205,428.272c-1.893,2.354-3.539,4.491-5.316,6.515
			c-0.259,0.295-1.514,0.261-1.671-0.001c-0.53-0.886-1.268-2.087-1.03-2.907c0.583-2.011,1.512-3.973,2.613-5.763
			c0.529-0.859,1.765-1.284,2.68-1.906C417.26,425.371,418.039,426.533,419.205,428.272z"/>
		<path fill-rule="evenodd" clip-rule="evenodd" fill="#FFFFFF" d="M333.672,434.057c-0.181-5.99,3.296-10.503,7.019-10.22
			c1.373,3.479,0.827,6.794-1.845,9.253C337.799,434.052,335.585,433.746,333.672,434.057z"/>
		<path fill-rule="evenodd" clip-rule="evenodd" fill="#FFFFFF" d="M257.309,422.773c1.413,4.046,0.108,6.932-2.377,9.334
			c-0.673,0.652-1.952,0.677-2.953,0.989c-0.266-0.983-0.96-2.087-0.722-2.927C252.156,427.002,253.264,423.838,257.309,422.773z"/>
		<path fill-rule="evenodd" clip-rule="evenodd" fill="#FFFFFF" d="M129.381,427.382c1.468-1.633,2.937-3.268,4.871-5.42
			c1.342,5.109-1.846,5.193-3.959,6.244C129.989,427.931,129.686,427.657,129.381,427.382z"/>
		<path fill-rule="evenodd" clip-rule="evenodd" fill="#FFFFFF" d="M293.663,428.099c1.778-1.939,3.331-3.633,5.255-5.73
			C300.021,426.681,298.333,428.282,293.663,428.099z"/>
		<path fill-rule="evenodd" clip-rule="evenodd" fill="#FFFFFF" d="M224.555,458.501c1.575,3.388,0.418,6.331-1.818,8.828
			c-0.747,0.833-2.346,1.156-3.559,1.164c-0.376,0.002-1.066-1.796-1.093-2.784C217.965,461.229,220.862,458.1,224.555,458.501z"/>
	</g>
</g>
</svg>
