<?xml version="1.0" encoding="utf-8"?>
<!-- Generator: Adobe Illustrator 16.0.0, SVG Export Plug-In . SVG Version: 6.00 Build 0)  -->
<!DOCTYPE svg PUBLIC "-//W3C//DTD SVG 1.1//EN" "http://www.w3.org/Graphics/SVG/1.1/DTD/svg11.dtd">
<svg version="1.1" id="Layer_1" xmlns="http://www.w3.org/2000/svg" xmlns:xlink="http://www.w3.org/1999/xlink" x="0px" y="0px"
	 width="923.379px" height="352.549px" viewBox="0 0 923.379 352.549" enable-background="new 0 0 923.379 352.549"
	 xml:space="preserve">
<g>
	<g>
		<path fill-rule="evenodd" clip-rule="evenodd" fill="#FFFFFF" d="M924.129,353.299c-307.793,0-615.585,0-923.378,0
			c0-117.516,0-235.032,0-352.549c307.793,0,615.586,0,923.378,0C924.129,118.267,924.129,235.782,924.129,353.299z
			 M372.154,161.706c-5.899,1.301-7.228,2.929-7.182,8.74c0.018,2.163,0.46,3.876,3.109,4.157c2.875,0.305,5.858-1.275,6.518-3.838
			c-2.275-0.401-4.915,3.75-7.142-0.511c3.438-1.859,7.799-2.405,8.653-7.717c-1.272-0.266-2.654-0.554-4.035-0.842L372.154,161.706
			z M288.637,161.798l0.093,0.098c-0.4-0.281-0.823-0.833-1.195-0.801c-4.444,0.38-9.276,7.574-7.881,11.684
			c0.147,0.434,0.524,1.128,0.797,1.13c3.873,0.022,7.747-0.054,11.273-0.101c0-2.86-0.151-4.625,0.042-6.35
			c0.196-1.75,0.731-3.461,1.223-5.66C291.08,161.798,289.858,161.798,288.637,161.798z M756.758,159.056
			c-1.119,0.625-2.502,1.013-3.309,1.917c-3.285,3.675-3.894,8.504-5.251,13.004c-0.841,2.792,2.237,6.694,5.174,6.949
			c2.805,0.244,3.523-2.056,5.124-3.397c5.37-4.503,7.185-10.336,6.353-16.992c-0.172-1.375-1.9-3.104-3.306-3.646
			c-1.92-0.739-4.272-0.61-4.909,2.282L756.758,159.056z M646.388,207.834c78.858,0,157.267,0,236.399,0
			c-1.97,2.46-3.45,4.308-4.93,6.156c0.265,0.334,0.529,0.667,0.795,1.001c7.343-2.697,14.685-5.395,23.302-8.56
			c-8.749-2.879-16.604-5.462-24.461-8.047c-0.106,0.205-0.214,0.411-0.322,0.617c1.565,1.949,3.132,3.898,5.157,6.42
			c-49.565-1.629-98.563-1.283-147.557-1.307c-0.225-0.392-0.449-0.783-0.674-1.176c3.984-3.913,7.969-7.827,12.723-12.497
			c-3.415,0.913-5.829,1.559-8.947,2.394c1.613-12.517,1.007-24.341-4.529-35.925c3.142-0.142,5.536-0.249,7.929-0.356
			c-1.563-2.074-3.317-3.531-5.276-4.619c-3.758-2.086-7.691-3.856-11.441-5.956c-3.984-2.231-3.879-3.677-0.197-6.229
			c2.433-1.685,4.592-3.769,6.847-5.705c3.385-2.905,6.749-5.834,10.116-8.76c5.348-4.647,10.729-9.255,16.021-13.964
			c5.368-4.776,10.553-9.763,15.987-14.458c6.058-5.233,12.287-10.268,18.479-15.343c6.021-4.937,11.909-10.068,18.218-14.608
			c3.009-2.166,3.841-4.421,3.29-7.773c-0.631-3.85-4.129-5.72-7.625-3.937c-4.333,2.211-4.854,4.825-2.235,10.882
			c-52.038,45.382-104.05,90.741-156.777,136.725c-0.422-58.884-0.836-116.72-1.258-175.713c2.568,2.162,4.614,3.882,6.658,5.604
			c0.293-0.19,0.586-0.38,0.878-0.57c-2.69-7.725-5.38-15.45-8.07-23.174c-0.365,0.016-0.731,0.032-1.098,0.048
			c-2.36,7.73-4.721,15.46-7.081,23.19c0.646,0.557,1.293,1.113,1.939,1.669c1.522-1.59,3.045-3.181,4.782-4.995
			c-1.532,57.699,1.298,116.401,0.776,175.201c-9.241,0-18.094,0.003-26.946-0.001c-44.365-0.017-88.731-0.047-133.097,0.023
			c-0.968,0.001-1.935,1.151-2.902,1.766c1.044,0.572,2.074,1.61,3.131,1.638c4.963,0.133,9.934-0.061,14.9-0.048
			c17.961,0.044,35.921,0.168,53.882,0.18c24.218,0.018,48.436-0.042,72.653-0.066c6.07-0.006,12.141-0.001,18.432-0.001
			c0,5.941,0.165,11.173-0.066,16.387c-0.125,2.801-0.931,5.571-1.45,8.476c0.453,2.127,1.413,4.621,1.448,7.13
			c0.175,12.365,0.122,24.734,0.116,37.102c-0.011,19.495-0.063,38.99-0.038,58.485c0.001,1.258,0.506,2.515,0.776,3.771
			c0.448-0.091,0.896-0.182,1.344-0.272C646.388,295.209,646.388,251.776,646.388,207.834z M161.16,157.36
			c-2.852,2.02-4.84,3.624-7.008,4.929c-7.596,4.571-15.27,9.014-22.884,13.554c-5.343,3.185-10.621,6.478-15.961,9.667
			c-4.451,2.658-9.131,4.972-13.381,7.912c-5.027,3.476-9.208,8.393-16.529,6.027c-1.448-0.468-4.498,1.116-5.418,2.611
			c-1.312,2.131-1.412,5.064,1.114,7.091c2.23,1.791,4.616,2.709,7.028,0.508c2.572-2.347,5.644-2.141,8.72-2.122
			c1.248,0.008,2.494,0.122,3.74,0.124c35.243,0.042,70.486,0.135,105.729,0.095c45.115-0.052,90.229-0.214,135.344-0.299
			c0.64-0.001,1.281,0.375,2.417,0.73c-1.797,2.139-3.295,3.922-4.793,5.704c0.167,0.237,0.333,0.475,0.499,0.712
			c8.426-2.813,16.852-5.628,25.604-8.551c-1.985-3.448-5.786-1.684-8.533-2.748c-2.988-1.158-6.135-1.921-9.083-3.167
			c-6.111-2.583-6.428-2.726-8.655-1.275c1.618,1.302,3.22,2.59,4.822,3.878c-0.267,0.27-0.534,0.539-0.801,0.809
			c-43.683,0-87.364,0-131.047,0c-0.166-0.302-0.332-0.604-0.497-0.906c4.585-4.807,9.17-9.613,13.754-14.421
			c-0.241-0.219-0.482-0.438-0.724-0.656c-2.515,0.545-5.03,1.089-6.837,1.48c0-6.492,0.63-12.524-0.177-18.358
			c-0.81-5.856-3.053-11.515-4.793-17.708c2.412,0,5.141,0,7.869,0c0.042-0.282,0.085-0.564,0.127-0.847
			c-7.011-3.96-14.022-7.92-22.003-12.429c3.743,8.555,7.035,16.077,10.327,23.601c0.316-0.023,0.631-0.046,0.948-0.07
			c0.272-1.812,0.545-3.622,0.976-6.478c4.038,10.213,5.549,19.704,3.438,29.747c-0.798-1.674-1.598-3.349-2.396-5.023
			c-1.795,6.281-2.898,12.364-3.427,18.496c-0.253,2.938-0.8,4.104-4.073,3.995c-10.364-0.34-20.74-0.428-31.111-0.393
			c-25.608,0.084-51.217,0.293-76.825,0.431c-0.895,0.004-1.79-0.234-3.768-0.512c2.175-1.619,3.424-2.739,4.842-3.574
			c6.293-3.699,12.66-7.273,18.948-10.982c3.904-2.304,7.669-4.843,11.578-7.139c4.957-2.911,10.113-5.497,14.97-8.561
			c7.119-4.491,13.927-9.477,21.094-13.885c7.031-4.323,14.41-8.077,21.515-12.286c6.55-3.88,12.953-8.012,19.396-12.072
			c5.084-3.203,10.079-6.548,15.207-9.678c7.409-4.523,14.905-8.902,22.359-13.353c5.698-3.403,11.386-6.822,17.079-10.232
			c4.642-2.78,9.318-5.504,13.919-8.349c7.534-4.657,15.021-9.387,22.524-14.094c1.582-0.991,3.145-2.01,4.717-3.017
			c0.257,0.222,0.514,0.444,0.771,0.667c-0.526,2.446-1.053,4.893-1.732,8.055c1.288-0.71,1.806-0.847,2.099-1.181
			c4.829-5.496,9.683-10.973,14.376-16.583c0.676-0.808,0.552-2.284,0.788-3.404c-8.894,2.387-17.238,4.626-25.581,6.864
			c0.086,0.363,0.171,0.726,0.257,1.088c2.097,0.436,4.194,0.872,7.342,1.525c-5.346,3.254-9.681,5.891-14.013,8.531
			c-10.869,6.625-21.73,13.26-32.605,19.872c-4.75,2.888-9.542,5.708-14.291,8.597c-4.965,3.019-9.91,6.072-14.85,9.133
			c-5.103,3.161-10.167,6.385-15.289,9.513c-4.59,2.803-9.255,5.482-13.852,8.271c-3.689,2.238-7.305,4.595-10.993,6.834
			c-4.761,2.891-9.576,5.694-14.336,8.585c-1.655,1.005-3.202,2.945-4.827,2.976c-1.084,0.021-2.48-2.445-3.28-4.029
			c-2.306-4.565-4.35-9.262-6.573-13.87c-0.362-0.75-1.113-1.313-1.684-1.962c-0.354,0.814-1.002,1.629-1.002,2.443
			c0,1.732,0.337,3.466,0.536,5.198c-6.389-5.614-11.755-11.632-17.387-17.391c-5.5-5.624-11.271-10.982-17.091-16.619
			c-2.152,3.795,0.57,4.22,1.93,5.623c4.357,4.494,8.382,9.308,12.761,13.778c4.515,4.61,9.353,8.904,13.914,13.473
			c1.066,1.068,1.584,2.682,2.591,4.461c-2.963-0.142-5.162-0.247-7.362-0.353c-0.009,0.331-0.018,0.663-0.027,0.994
			C147.996,150.625,154.363,153.883,161.16,157.36z M311.27,235.47c-0.927-3.094-2.336-3.041-5.418-0.682
			c-2.826-0.679-4.877-1.171-6.929-1.663c-0.217,0.397-0.434,0.796-0.651,1.193c3.799,1.619,5.071,4.445,3.486,7.888
			c-1.385,3.01-4.26,2.75-7.478,2.056c0.908-3.641,1.78-7.137,2.704-10.842c-1.385-0.093-2.411,0.012-3.334-0.25
			c-7.53-2.141-12.308,7.042-10.821,12.667c0.244,0.922,1.334,2.462,1.718,2.371c3.194-0.75,6.326-1.572,9.656-0.866
			c0.64,0.136,1.627-0.479,2.012-0.179c2.534,1.973,3.705-0.192,5.172-1.534c0.572-0.524,1.164-1.026,1.2-1.059
			c1.461,1.378,2.524,3.181,3.739,3.289c1.093,0.098,2.354-1.66,3.54-2.6c-0.175-0.259-0.351-0.519-0.525-0.777
			c-1.029-0.064-2.059-0.13-3.03-0.19C305.311,236.81,305.506,236.452,311.27,235.47z M882.734,21.495
			c0.089-3.345-0.218-6.404-3.456-6.145c-2.642,0.211-6.183,1.432-7.496,3.416c-2.626,3.966-4.124,8.713-5.84,13.232
			c-1.047,2.756,2.111,7.089,4.958,6.714c1.905-0.25,4.206-0.993,5.422-2.337C880.265,32.018,882.822,26.89,882.734,21.495z
			 M51.958,105.234c2.549,0.354,4.058,0.563,5.567,0.773c0.023-1.36,0.01-2.721,0.084-4.079c0.046-0.842,0.112-1.713,0.367-2.508
			c1.434-4.471,3.028-8.893,4.363-13.393c0.779-2.626,0.333-2.912-2.796-2.416c-0.267,1.46-0.314,3.011-0.868,4.354
			c-0.461,1.118-1.712,2.94-2.276,2.823c-5.112-1.059-7.375,2.986-9.307,5.939c-1.389,2.124-1.453,6.227-0.317,8.584
			C47.983,107.817,50.889,106.422,51.958,105.234z M205.296,254.192c0.222-2.378-1.939-5.702,1.813-5.642
			c5.291,0.084,7.697-3.045,9.936-6.848c1.706-2.899,1.205-7.984-0.936-8.2c-3.601-0.362-7.263-0.1-10.838-0.1
			c0.118,1.448,0.516,2.674,0.254,3.737c-1.154,4.686-2.544,9.312-3.756,13.983C200.95,254.28,202.538,254.824,205.296,254.192z
			 M355.998,162.565c-1.439-0.573-2.751-1.128-4.085-1.62c-3.89-1.432-9.294,2.688-8.406,6.712c0.854,3.864,0.169,6.832-3.138,8.932
			c1.75,5.518,2.56,4.635,8.813,4.077c1.708-0.153,4.177-2.553,4.563-4.303c0.639-2.904-2.535-2.608-4.447-3.116
			c-0.572-0.152-1.201-0.089-1.805-0.124c-0.227-0.341-0.453-0.683-0.68-1.024c0.929-0.71,1.837-1.452,2.794-2.121
			c1.509-1.056,3.304-1.834,4.502-3.16C355.097,165.724,355.395,164.005,355.998,162.565z M19.417,209.292
			c-0.425,2.8-0.591,4.859-1.069,6.844c-1.012,4.207-2.305,8.351-3.193,12.582c-0.169,0.81,0.991,1.897,1.538,2.857
			c0.47-0.908,1.153-1.769,1.364-2.732c0.404-1.852-0.101-4.166,2.831-4.343c6.721-0.407,11.353-6.196,9.942-12.635
			c-0.21-0.961-1.288-2.389-2.065-2.456C25.574,209.13,22.342,209.292,19.417,209.292z M79.872,106.395
			c2.694,0.275,3.676-1.21,3.988-3.373c0.401-2.779,0.781-5.565,1.054-8.359c0.106-1.091-0.101-2.214-0.165-3.321
			c-0.933,0.694-2.219,1.195-2.729,2.122c-1.188,2.157-1.824,4.623-3.042,6.758c-0.638,1.119-2.03,1.807-3.082,2.69
			c-0.328-0.272-0.656-0.544-0.983-0.816c0.782-2.814,1.664-5.604,2.276-8.454c0.157-0.732-0.427-2.28-0.861-2.354
			c-1.106-0.191-2.473-0.033-3.437,0.513c-0.615,0.349-1.161,2.252-0.95,2.41c2.562,1.923,0.639,3.998,0.458,6.043
			c-0.174,1.972-0.708,5.133,0.233,5.745c2.482,1.611,4.142-0.863,5.629-2.717c0.078-0.097,0.408,0.008,0.65,0.02
			C79.229,104.322,79.548,105.35,79.872,106.395z M36.789,105.435c0.064-0.126,0.128-0.252,0.192-0.378
			c1.392,0.335,2.799,0.935,4.168,0.859c0.469-0.026,1.057-1.709,1.224-2.697c0.536-3.188,0.943-6.399,1.301-9.613
			c0.09-0.81,0.086-2.173-0.349-2.408c-2.28-1.237-7.756-0.149-9.459,1.939c-1.488,1.826-2.607,3.951-3.915,5.927
			c-1.575,2.379-1.728,5.236,0.484,6.644C31.902,106.64,34.627,105.595,36.789,105.435z M260.397,233.146
			c-1.869,0.134-3.346,0.342-4.821,0.328c-6.401-0.062-11.033,5.479-9.843,11.839c0.56,2.992,2.896,4.089,5.331,2.396
			c0.672-0.468,1.047-1.364,1.73-2.3c2.248,4.403,3.933,2.519,5.591,0.364C255.551,241.099,260.943,237.791,260.397,233.146z
			 M243.542,180.809c-0.19-0.333-0.381-0.666-0.571-0.998c1.143-1.9,2.582-5.558,3.381-5.423c6.297,1.063,7.711-3.554,9.45-7.59
			c0.496-1.151,0.075-3.487-0.811-4.243c-1.098-0.937-3.105-0.889-4.742-1.078c-0.652-0.075-1.608,0.746-2.011,0.495
			c-4.324-2.703-3.929,0.744-4.379,3.222c-0.195,1.075-0.619,2.107-0.893,3.171c-1.051,4.09-2.084,8.185-3.165,12.443
			C241.165,180.809,242.354,180.809,243.542,180.809z M865.182,61.584c1.13,1.873,2.302,3,2.482,4.271
			c0.47,3.303,0.751,6.679,0.616,10.005c-0.078,1.915-0.895,3.875-3.668,3.779c-0.874-0.03-1.873,0.757-2.595,1.412
			c-0.15,0.136,0.67,1.943,1.049,1.946c1.102,0.007,2.606-0.159,3.243-0.882c3.914-4.449,7.726-8.997,11.351-13.682
			c0.909-1.175,1.301-2.952,1.42-4.492c0.234-3.035-1.247-3.339-3.57-1.956c1.385,4.407-0.155,8.403-3.811,9.924
			c-0.131-1.76-0.226-3.479-0.395-5.191c-0.17-1.709-0.413-3.41-0.673-5.501C868.837,61.338,867.186,61.449,865.182,61.584z
			 M125.617,102.745c-0.144-0.582-0.287-1.164-0.431-1.746c1.149-0.495,2.356-0.891,3.437-1.508c2.083-1.19,4.44-2.181,6.033-3.869
			c1.365-1.447,1.709-3.943-1.098-4.696c-3.443-0.923-6.407,0.374-8.52,3.182c-2.219,2.948-3.939,6.098-2.114,9.976
			c1.311,2.784,3.661,2.628,6.062,2.181c2.846-0.531,4.125-1.894,4.176-3.989C130.66,102.43,128.138,102.588,125.617,102.745z
			 M164.801,106.486c5.428-0.28,7.65-2.085,8.996-8.527c0.414-1.982-0.348-4.84-1.663-6.338c-0.919-1.048-4.011-1.174-5.58-0.473
			c-4.036,1.802-7.539,6.228-6.521,11.436C160.54,105.175,161.848,106.99,164.801,106.486z M225.176,248.37
			c4.168-0.035,9.323-5.313,9.375-9.599c0.054-4.479-1.604-6.035-6.109-5.738c-4.227,0.278-8.565,4.898-8.702,9.266
			C219.627,245.854,221.905,248.398,225.176,248.37z M854.752,74.139c-0.453-0.154-0.906-0.309-1.36-0.463
			c-0.9-1.871-2.34-3.7-2.491-5.63c-0.085-1.084,1.9-2.395,3.062-3.489c0.591-0.558,1.573-0.738,2.064-1.344
			c0.191-0.236-0.399-1.63-0.78-1.7c-0.901-0.166-2.077-0.14-2.799,0.333c-1.06,0.693-1.818,1.844-2.778,2.879
			c-1.364-3.857-2.177-4.166-6.267-2.591c5.71,6.962,5.37,8.318-3.375,11.765c0.689,0.916,1.63,2.513,1.86,2.417
			c2.18-0.912,4.237-2.113,6.072-3.094c0.941,1.026,1.854,2.842,3.128,3.148C852.075,76.606,853.515,74.952,854.752,74.139z
			 M69.372,221.665c-2.808-0.804-6.302,1.887-7.556-1.858c3.152-1.851,5.893-3.215,8.305-5.02c0.77-0.576,1.083-2.423,0.822-3.498
			c-0.198-0.815-1.576-1.769-2.536-1.903c-5.019-0.709-8.502,3.822-9.589,8.265c-1.214,4.962,2.047,8.098,6.841,6.719
			C67.042,223.972,68.142,222.593,69.372,221.665z M325.649,162.379c-5.583-1.975-8.718-1.278-11.295,3.637
			c-1.088,2.076-0.73,4.908-1.03,7.396c1.888,0.17,3.776,0.34,5.665,0.512c1.082,0.099,2.218,0.455,3.23,0.235
			c1.024-0.222,2.665-0.911,2.754-1.57C325.426,169.252,325.462,165.857,325.649,162.379z M111.535,107.301
			c2.193-2.405,3.933-3.988,5.267-5.862c1.501-2.107,2.838-4.39,3.826-6.771c0.368-0.888-0.303-2.343-0.817-3.382
			c-0.162-0.327-1.912-0.352-1.987-0.153c-0.36,0.943-0.602,2.033-0.504,3.033c0.273,2.785-0.377,4.95-3.505,6.319
			c-0.27-2.413-0.344-4.533-0.803-6.566c-0.234-1.036-0.989-2.478-1.817-2.732c-1.242-0.383-2.755,0.118-3.206,0.158
			C109.217,96.875,110.273,101.626,111.535,107.301z M38.212,224.464c5.551,0.498,9.815-5.897,9.459-10.278
			c-0.257-3.156-2.354-5.021-5.532-4.952c-5.475,0.117-9.78,6.481-8.23,11.978C34.585,223.609,35.792,224.918,38.212,224.464z
			 M884.444,53.178c-0.398,1.716-1.051,2.83-0.786,3.646c2.755,8.477-1.076,15.37-5.184,22.193
			c-0.753,1.251-4.475,1.267-2.547,3.352c2.234,2.416,2.595-1.394,3.796-2.328C887.513,73.986,890.115,63.151,884.444,53.178z
			 M831.8,150.604c-0.465,0-0.93,0.001-1.396,0.003c0-2.24,0.021-4.481-0.003-6.721c-0.046-4.235-1.76-5.253-4.998-3.869
			c0.914,3.377,1.716,6.606,2.665,9.79c1.187,3.974-1.539,6.579-3.485,9.57c1.482-0.344,2.815-0.709,3.506-1.582
			c3.099-3.913,6.126-7.896,8.926-12.024c0.824-1.216,0.968-2.983,1.097-4.525c0.037-0.448-1.057-0.991-1.633-1.491
			c-0.396,0.53-1.246,1.245-1.117,1.563C837.135,145.689,832.597,147.367,831.8,150.604z M92.469,93.286
			c0.41-0.124,0.819-0.247,1.229-0.371c0.389,0.58,0.671,1.498,1.192,1.663c0.878,0.28,1.907,0.083,2.873,0.085
			c-0.093-1.156-0.091-3.299-0.292-3.318c-2.284-0.217-4.971-0.832-6.803,0.111c-1.898,0.977-2.453,3.616-1.003,5.925
			c0.595,0.948,1.32,1.877,1.635,2.921c0.373,1.236,0.368,2.587,0.527,3.889c-1.246-0.446-2.5-0.87-3.733-1.349
			c-0.435-0.168-0.818-0.47-1.464-0.852c-0.255,0.764-0.567,1.303-0.584,1.852c-0.022,0.69,0.196,1.388,0.312,2.084
			c1.591,0.149,2.94,0.281,4.29,0.402c4.241,0.38,6.508-2.786,4.718-6.692c-0.659-1.439-1.638-2.73-2.35-4.149
			C92.684,94.828,92.642,94.024,92.469,93.286z M144.803,93.435c1.914,0.932,3.005,1.572,4.182,1.923
			c0.181,0.054,1.238-1.595,1.07-1.809c-0.806-1.022-1.766-2.319-2.906-2.618c-5.848-1.531-11.248,6.522-10.67,11.105
			c0.381,3.021,2.273,4.882,5.753,4.421c2.665-0.354,5.165-0.703,5.086-3.33c-2.83-0.636-6.139-0.4-7.373-1.886
			C138.087,99.005,141.3,94.786,144.803,93.435z M716.832,227.843c-0.236,0.371-0.471,0.742-0.707,1.113
			c0.441,0.497,0.893,0.987,1.324,1.491c0.647,0.756,1.447,1.437,1.893,2.298c1.772,3.438,0.037,5.764-2.561,7.866
			c-0.572,0.464-0.752,1.414-1.112,2.141c0.817-0.202,1.743-0.228,2.425-0.649c0.988-0.61,1.8-1.505,2.233-1.883
			c1.683,1.079,3.093,2.476,4.718,2.803c0.747,0.151,1.917-1.797,2.219-2.104c-1.523-1.112-3.078-1.644-3.274-2.488
			c-1.211-5.233-0.474-6.13,4.933-6.895c-0.108-3.318-0.39-3.485-3.037-2.332c-1.172,0.51-2.595,1.125-3.729,0.882
			C720.306,229.688,718.599,228.624,716.832,227.843z M177.925,91.208c-0.366,2.816-0.521,5.202-1.019,7.514
			c-0.503,2.342-1.345,4.611-2.047,6.941c2.253,0.803,3.179,0.456,4.167-1.745c1.583-3.524,1.456-8.921,7.606-8.739
			c0.405,0.012,1.048-1.961,1.199-3.063c0.046-0.336-1.391-1.357-1.79-1.193c-1.993,0.822-3.779,1.028-5.788-0.076
			C179.617,90.496,178.448,91.11,177.925,91.208z M320.91,242.359c-0.176,2.555-0.284,4.131-0.411,5.978
			c1.918,0,3.276,0.021,4.635-0.003c4.794-0.082,6.461-3.377,4.026-7.661c-0.889-1.563-1.354-3.369-2.011-5.063
			c0.248-0.155,0.495-0.311,0.742-0.466c1.11,0.747,2.22,1.495,3.522,2.373c0.348-0.832,0.684-1.368,0.783-1.943
			c0.116-0.671,0.027-1.378,0.027-2.187c-1.144-0.051-2.003-0.117-2.863-0.121c-5.527-0.024-6.896,2.166-4.458,7.199
			c0.309,0.636,0.833,1.204,1.362,1.69c2.744,2.517,1.129,3.523-1.404,4.414C323.771,245.409,322.783,244.356,320.91,242.359z
			 M338.819,173.93c-1.834-4.326,4.005-8.739-0.662-13.33c-2.227,3.205-4.891,2.769-7.773,0.653
			c-0.837,3.641-1.647,6.839-2.262,10.073c-0.152,0.799,0.331,1.719,0.521,2.584c0.585-0.589,1.283-1.103,1.735-1.779
			c2.024-3.033,3.98-6.114,5.961-9.176c0.428,0.229,0.856,0.458,1.284,0.687c-0.829,3.304-1.659,6.606-2.583,10.288
			C336.734,173.93,337.755,173.93,338.819,173.93z M700.711,117.507c0.538,0.207,1.076,0.414,1.613,0.62
			c0.739-1.328,1.497-2.646,2.213-3.987c1.832-3.428,2.015-8.493,8.182-7.557c-0.128-1.737-0.23-3.111-0.283-3.823
			c-2.595-0.279-4.552-0.743-6.46-0.595c-1.054,0.081-2.664,1-2.923,1.869c-0.967,3.253-1.523,6.633-2.14,9.983
			C700.703,115.155,700.771,116.342,700.711,117.507z M262.669,175.107c5.053-0.855,5.366-1.696,7.691-7.814
			c0.976-2.565,0.028-4.029-1.984-5.668c-2.583-2.103-4.487-0.154-6.504,0.591c-2.607,0.962-5.413,6.665-4.126,9.057
			C258.647,172.949,260.977,173.856,262.669,175.107z M884.631,16.188c3.783,11.479-1.685,19.839-8.577,28.132
			c0.126,0.102,0.809,0.88,0.997,0.774c1.666-0.93,3.579-1.725,4.793-3.107C888.772,34.096,890.282,21.906,884.631,16.188z
			 M236.101,245.892c0.137,0.332,0.405,1.37,0.998,2.168c0.169,0.228,1.517-0.026,1.912-0.446c0.789-0.838,1.617-1.878,1.84-2.957
			c0.338-1.634-0.11-3.441,0.277-5.055c1.007-4.201,2.394-8.313,3.36-12.522c0.173-0.756-0.936-1.807-1.454-2.722
			c-0.879,0.753-2.241,1.351-2.545,2.29c-0.775,2.398-1.028,4.961-1.584,7.435C238.071,237.784,237.156,241.467,236.101,245.892z
			 M845.169,53.938c-6.204,2.129-9.181,7.147-10.792,12.568c-1.528,5.146-1.648,10.723,2.573,15.533
			C833.907,70.938,838.298,62.129,845.169,53.938z M845.614,23.003c-0.683,2.973-1.189,5.194-1.703,7.412
			c-0.448,1.936-1.058,3.853-1.277,5.813c-0.081,0.714,0.758,1.53,1.177,2.299c0.539-0.535,1.262-0.98,1.58-1.624
			c0.641-1.297,0.848-2.841,1.621-4.031c1.197-1.844,2.551-4.7,4.142-4.919c2.517-0.346,3.689-1.181,4.452-3.265
			c-2.511-2.817-4.306-0.698-5.332,0.281C848.325,24.146,846.937,23.561,845.614,23.003z M843.061,17.12
			c-4.68,2.606-6.629,6.321-8.566,10.305c-3.01,6.19-0.564,11.458,1.999,16.841c0.22-4.396-0.188-8.941,0.827-13.143
			C838.419,26.576,840.846,22.352,843.061,17.12z M262.013,249.154c1.026-2.034,1.906-3.216,2.233-4.535
			c1.053-4.245,3.949-7.171,8.35-7.737c-0.097-1.209-0.195-2.438-0.349-4.374c-1.941,0.95-3.239,1.583-4.43,2.166
			c-1.077-3.005-3.125-1.518-5.372-0.888C265.631,238.88,258.732,243.024,262.013,249.154z M158.997,88.351
			c-0.447-0.262-0.894-0.523-1.341-0.785c-0.547,0.199-1.301,0.234-1.607,0.623c-1.519,1.924-3.988,2.928-3.434,6.532
			c0.448,2.917-1.512,6.136-1.957,9.285c-0.326,2.308,1.709,3.341,3.63,2.005c0.869-0.604,1.479-1.581,2.299-2.49
			c-3.51-2.981-1.155-5.842-0.126-8.691C157.248,92.648,158.147,90.508,158.997,88.351z M23.632,93.713
			c-0.5-0.696-0.792-1.514-1.352-1.789c-0.925-0.453-2.015-0.678-3.049-0.73c-0.318-0.016-0.853,0.801-0.993,1.317
			c-0.726,2.667-1.556,5.332-1.952,8.054c-0.278,1.913,0.081,3.917,0.155,5.881c2.909-0.288,2.458-2.815,3.304-4.628
			c1.343-2.88,1.687-6.965,6.544-6.713c0.461,0.024,1.036-2.136,1.558-3.282c-0.395-0.215-0.789-0.429-1.183-0.645
			C25.709,91.978,24.754,92.775,23.632,93.713z M49.135,224.058c3.637,0.683,4.891-0.122,4.405-3.368
			c-0.278-1.859,0.157-3.921,0.664-5.785c1.151-4.234,2.545-8.403,3.948-12.948c-2.007,0-3.263,0-3.719,0
			C52.606,209.577,50.901,216.69,49.135,224.058z M275.496,173.594c0.546-3.668,0.776-6.549,1.441-9.327
			c0.718-3,1.983-5.871,2.671-8.876c0.142-0.621-1.203-1.582-1.863-2.386c-0.594,0.733-1.514,1.384-1.724,2.214
			c-0.776,3.074-1.303,6.212-1.954,9.319c-0.652,3.114-1.338,6.223-2.187,10.152C274.097,174.019,275.299,173.653,275.496,173.594z
			 M361.414,173.805c-0.309-0.519-0.619-1.039-0.928-1.557c0.255-1.93,0.377-3.89,0.795-5.783c0.826-3.74,1.875-7.433,2.681-11.176
			c0.139-0.646-0.466-1.454-0.728-2.186c-0.583,0.319-1.536,0.52-1.684,0.979c-0.664,2.07-1.11,4.211-1.618,6.331
			c-0.76,3.176-1.53,6.349-2.247,9.535c-0.286,1.27-0.441,2.57-0.655,3.857C358.493,173.805,359.954,173.805,361.414,173.805z
			 M294.09,173.49c0.353,0.317,0.707,0.634,1.06,0.951c0.811-0.996,2.009-1.874,2.359-3.012c1.038-3.377,2.264-6.279,6.408-6.73
			c0.541-0.06,0.924-1.558,1.381-2.389c-2.458-0.322-4.909-0.753-7.377-0.878c-0.52-0.026-1.427,0.989-1.593,1.664
			C295.481,166.535,294.817,170.021,294.09,173.49z M68.797,91.63c-0.482-0.347-0.965-0.694-1.447-1.041
			c-0.873,0.75-2.252,1.35-2.528,2.277c-1.006,3.391-1.731,6.875-2.365,10.361c-0.172,0.945,0.349,2.016,0.553,3.029
			c1.046-0.226,2.191-0.264,3.106-0.743c0.668-0.35,1.033-1.28,1.533-1.951c-0.387-0.092-0.775-0.183-1.162-0.273
			c0.079-1.608-0.051-3.261,0.285-4.813C67.274,96.156,68.105,93.908,68.797,91.63z M316.417,233.303
			c-1.25,5.42-2.313,10.033-3.401,14.75c3.671,0.643,4.399-0.858,4.487-3.421c0.074-2.139,0.56-4.271,0.957-6.388
			c0.3-1.605,0.749-3.183,1.234-5.196C317.851,233.191,316.654,233.285,316.417,233.303z M857.066,80.129
			c2.663-0.596,3.396-2.695,3.205-5.258c-0.055-0.729-0.97-1.394-1.489-2.088c-0.572,0.818-1.448,1.568-1.644,2.468
			C856.855,76.546,857.066,77.951,857.066,80.129z M854.087,43.202c3.847-1.413,4.206-3.889,4.54-6.265
			c0.076-0.536-0.56-1.35-1.088-1.721c-0.284-0.2-1.425,0.152-1.518,0.456C855.347,37.891,854.841,40.161,854.087,43.202z
			 M810.986,173.474c-1.285-1.212-2.063-1.947-2.842-2.683c-0.649,0.909-1.652,1.76-1.81,2.748c-0.088,0.548,1.169,1.744,1.94,1.861
			C808.907,175.498,809.716,174.432,810.986,173.474z M810.866,148.227c-1.292-0.992-2.14-1.644-2.988-2.296
			c-0.563,0.791-1.675,1.684-1.552,2.348c0.161,0.874,1.295,1.566,2.011,2.337C809.03,149.96,809.725,149.305,810.866,148.227z
			 M808.723,157.203c0.371-0.209,0.743-0.42,1.115-0.629c-0.117-1.502-0.234-3.005-0.352-4.508c-0.437-0.117-0.873-0.232-1.31-0.348
			c-0.714,1.068-1.923,2.117-1.967,3.211C806.182,155.652,807.827,156.442,808.723,157.203z M809.859,111.832
			c0.738-3.387-0.218-4.632-3.413-3.57c0,1.344,0,2.489,0,3.908C807.797,112.036,808.838,111.933,809.859,111.832z M808.333,126.237
			c0.857-1.766,1.733-2.732,1.55-3.412c-0.204-0.753-1.376-1.245-2.126-1.85c-0.5,0.69-1.422,1.4-1.39,2.065
			C806.406,123.834,807.262,124.589,808.333,126.237z M805.146,102.131c1.295,1.718,2.132,2.827,2.968,3.937
			c0.607-0.575,1.659-1.093,1.738-1.734C810.143,102.013,808.848,101.285,805.146,102.131z M805.713,95.423
			c0.527,1.491,0.793,2.729,1.425,3.74c0.194,0.311,1.862,0.25,2.029-0.07c0.548-1.051,0.716-2.301,1.082-3.669
			C808.542,95.423,807.475,95.423,805.713,95.423z M805.781,168.572c0.35,0.398,0.698,0.797,1.047,1.195
			c0.966-0.442,2.444-0.656,2.77-1.384c0.434-0.974-0.027-2.346-0.104-3.547c-0.395-0.099-0.788-0.197-1.183-0.296
			C807.469,165.884,806.625,167.228,805.781,168.572z M811.146,116.641c-1.347-1.324-2.011-2.497-2.694-2.509
			c-0.752-0.012-1.939,0.928-2.146,1.673c-0.154,0.555,0.824,1.881,1.527,2.089C808.52,118.098,809.496,117.317,811.146,116.641z
			 M808.09,157.846c-0.984,1.537-1.925,2.359-1.824,3.021c0.112,0.736,1.174,1.328,1.822,1.983c0.658-0.657,1.731-1.248,1.85-1.989
			C810.041,160.201,809.083,159.375,808.09,157.846z M808.1,176.508c-0.953,1.581-1.834,2.411-1.679,2.93
			c0.239,0.799,1.19,1.386,1.839,2.062c0.573-0.591,1.611-1.187,1.606-1.772C809.858,178.93,809.053,178.141,808.1,176.508z
			 M805.712,143.15c0.418,0.439,0.836,0.879,1.254,1.319c1.028-0.728,2.058-1.457,3.086-2.185c-0.688-0.72-1.378-1.44-2.067-2.161
			C807.227,141.132,806.47,142.141,805.712,143.15z M805.15,91.367c1.408,0.896,2.251,1.854,2.925,1.748
			c0.743-0.118,1.98-1.417,1.849-1.841c-0.268-0.855-1.228-1.836-2.076-2.041C807.311,89.102,806.457,90.281,805.15,91.367z
			 M809.692,133.34c-0.659-0.149-1.319-0.3-1.979-0.45c-0.399,1.326-0.798,2.652-1.196,3.979c0.879,0.134,1.76,0.268,2.64,0.402
			C809.335,135.96,809.514,134.65,809.692,133.34z M809.708,127.104c-0.646-0.139-1.292-0.278-1.937-0.417
			c-0.47,1.157-0.938,2.314-1.408,3.472c0.992,0.199,1.984,0.399,2.977,0.598C809.463,129.54,809.586,128.322,809.708,127.104z"/>
		<path fill-rule="evenodd" clip-rule="evenodd" d="M646.388,207.834c0,43.942,0,87.375,0,130.807
			c-0.448,0.091-0.896,0.182-1.344,0.272c-0.271-1.257-0.775-2.514-0.776-3.771c-0.025-19.495,0.027-38.99,0.038-58.485
			c0.006-12.367,0.059-24.736-0.116-37.102c-0.035-2.509-0.995-5.003-1.448-7.13c0.52-2.904,1.325-5.675,1.45-8.476
			c0.231-5.214,0.066-10.445,0.066-16.387c-6.291,0-12.361-0.005-18.432,0.001c-24.218,0.024-48.436,0.084-72.653,0.066
			c-17.961-0.012-35.921-0.136-53.882-0.18c-4.967-0.013-9.938,0.181-14.9,0.048c-1.057-0.027-2.087-1.065-3.131-1.638
			c0.968-0.614,1.935-1.765,2.902-1.766c44.365-0.07,88.731-0.04,133.097-0.023c8.853,0.004,17.705,0.001,26.946,0.001
			c0.521-58.8-2.309-117.502-0.776-175.201c-1.737,1.814-3.26,3.405-4.782,4.995c-0.646-0.556-1.293-1.113-1.939-1.669
			c2.36-7.73,4.721-15.46,7.081-23.19c0.366-0.016,0.732-0.032,1.098-0.048c2.69,7.725,5.38,15.449,8.07,23.174
			c-0.292,0.189-0.585,0.379-0.878,0.57c-2.044-1.722-4.09-3.442-6.658-5.604c0.422,58.993,0.836,116.829,1.258,175.713
			c52.728-45.984,104.739-91.343,156.777-136.725c-2.618-6.057-2.098-8.671,2.235-10.882c3.496-1.784,6.994,0.086,7.625,3.937
			c0.551,3.352-0.281,5.607-3.29,7.773c-6.309,4.54-12.196,9.671-18.218,14.608c-6.191,5.075-12.421,10.11-18.479,15.343
			c-5.435,4.695-10.619,9.682-15.987,14.458c-5.292,4.708-10.674,9.317-16.021,13.964c-3.367,2.926-6.731,5.854-10.116,8.76
			c-2.255,1.936-4.414,4.02-6.847,5.705c-3.682,2.552-3.787,3.999,0.197,6.229c3.75,2.1,7.684,3.869,11.441,5.956
			c1.959,1.088,3.713,2.545,5.276,4.619c-2.393,0.107-4.787,0.214-7.929,0.356c5.536,11.584,6.143,23.408,4.529,35.925
			c3.118-0.835,5.532-1.48,8.947-2.394c-4.754,4.67-8.738,8.584-12.723,12.497c0.225,0.393,0.449,0.784,0.674,1.176
			c48.994,0.023,97.991-0.322,147.557,1.307c-2.025-2.521-3.592-4.471-5.157-6.42c0.108-0.206,0.216-0.412,0.322-0.617
			c7.856,2.585,15.712,5.168,24.461,8.047c-8.617,3.165-15.959,5.862-23.302,8.56c-0.266-0.334-0.53-0.667-0.795-1.001
			c1.479-1.849,2.96-3.696,4.93-6.156C803.654,207.834,725.246,207.834,646.388,207.834z M650.855,203.806
			c1.985,0.151,2.81,0.269,3.633,0.269c11.201-0.004,22.402-0.047,33.604-0.035c11.716,0.012,23.434-0.083,35.145,0.173
			c5.849,0.129,7.123-0.77,7.376-6.717c0.184-4.32,0.521-8.635,0.79-12.951c0.383-0.108,0.765-0.218,1.146-0.326
			c0.995,2.096,1.989,4.191,3.247,6.839c1.721-9.733-1.134-29.169-4.776-32.066c-0.229,2.696-0.439,5.163-0.649,7.631
			c-0.3,0.068-0.601,0.137-0.9,0.206c-3.16-7.26-6.32-14.52-9.802-22.516C696.455,164.382,674.089,183.719,650.855,203.806z"/>
		<path fill-rule="evenodd" clip-rule="evenodd" d="M161.16,157.36c-6.797-3.478-13.165-6.736-19.532-9.993
			c0.009-0.331,0.019-0.663,0.027-0.994c2.2,0.105,4.399,0.211,7.362,0.353c-1.006-1.779-1.525-3.393-2.591-4.461
			c-4.561-4.568-9.398-8.862-13.914-13.473c-4.378-4.471-8.404-9.285-12.761-13.778c-1.36-1.403-4.083-1.828-1.93-5.623
			c5.82,5.637,11.591,10.996,17.091,16.619c5.632,5.759,10.998,11.777,17.387,17.391c-0.199-1.732-0.536-3.466-0.536-5.198
			c0-0.814,0.648-1.628,1.002-2.443c0.571,0.65,1.322,1.212,1.684,1.962c2.224,4.607,4.268,9.305,6.573,13.87
			c0.8,1.583,2.196,4.049,3.28,4.029c1.625-0.031,3.172-1.971,4.827-2.976c4.76-2.891,9.575-5.694,14.336-8.585
			c3.688-2.239,7.304-4.596,10.993-6.834c4.597-2.79,9.262-5.469,13.852-8.271c5.123-3.128,10.186-6.352,15.289-9.513
			c4.94-3.061,9.885-6.114,14.85-9.133c4.749-2.889,9.541-5.709,14.291-8.597c10.875-6.612,21.737-13.247,32.605-19.872
			c4.332-2.64,8.667-5.276,14.013-8.531c-3.148-0.653-5.245-1.089-7.342-1.525c-0.086-0.362-0.171-0.726-0.257-1.088
			c8.343-2.238,16.687-4.477,25.581-6.864c-0.236,1.12-0.112,2.596-0.788,3.404c-4.694,5.61-9.547,11.087-14.376,16.583
			c-0.293,0.334-0.811,0.47-2.099,1.181c0.68-3.162,1.207-5.609,1.732-8.055c-0.257-0.222-0.514-0.445-0.771-0.667
			c-1.572,1.006-3.135,2.025-4.717,3.017c-7.502,4.707-14.99,9.437-22.524,14.094c-4.602,2.844-9.277,5.568-13.919,8.349
			c-5.693,3.41-11.38,6.829-17.079,10.232c-7.454,4.451-14.95,8.83-22.359,13.353c-5.127,3.13-10.123,6.476-15.207,9.678
			c-6.444,4.06-12.846,8.191-19.396,12.072c-7.104,4.208-14.484,7.962-21.515,12.286c-7.167,4.408-13.976,9.394-21.094,13.885
			c-4.857,3.063-10.013,5.649-14.97,8.561c-3.908,2.296-7.673,4.835-11.578,7.139c-6.288,3.709-12.655,7.283-18.948,10.982
			c-1.418,0.835-2.667,1.955-4.842,3.574c1.978,0.277,2.874,0.516,3.768,0.512c25.608-0.138,51.216-0.347,76.825-0.431
			c10.371-0.035,20.747,0.053,31.111,0.393c3.273,0.108,3.82-1.057,4.073-3.995c0.529-6.132,1.631-12.215,3.427-18.496
			c0.798,1.675,1.598,3.35,2.396,5.023c2.11-10.043,0.6-19.534-3.438-29.747c-0.43,2.855-0.703,4.666-0.976,6.478
			c-0.317,0.023-0.632,0.046-0.948,0.07c-3.292-7.523-6.584-15.045-10.327-23.601c7.981,4.509,14.992,8.469,22.003,12.429
			c-0.042,0.282-0.085,0.565-0.127,0.847c-2.728,0-5.457,0-7.869,0c1.74,6.193,3.983,11.852,4.793,17.708
			c0.807,5.834,0.177,11.866,0.177,18.358c1.807-0.392,4.322-0.936,6.837-1.48c0.242,0.219,0.483,0.438,0.724,0.656
			c-4.584,4.808-9.169,9.614-13.754,14.421c0.166,0.303,0.332,0.604,0.497,0.906c43.683,0,87.364,0,131.047,0
			c0.268-0.27,0.535-0.539,0.801-0.809c-1.602-1.288-3.204-2.576-4.822-3.878c2.227-1.45,2.543-1.308,8.655,1.275
			c2.947,1.246,6.095,2.009,9.083,3.167c2.747,1.064,6.547-0.7,8.533,2.748c-8.752,2.923-17.178,5.737-25.604,8.551
			c-0.167-0.237-0.333-0.475-0.499-0.712c1.498-1.782,2.997-3.565,4.793-5.704c-1.135-0.355-1.776-0.731-2.417-0.73
			c-45.115,0.085-90.229,0.247-135.344,0.299c-35.242,0.04-70.485-0.053-105.729-0.095c-1.247-0.002-2.493-0.116-3.74-0.124
			c-3.076-0.019-6.148-0.225-8.72,2.122c-2.412,2.201-4.797,1.283-7.028-0.508c-2.525-2.026-2.425-4.96-1.114-7.091
			c0.92-1.495,3.97-3.079,5.418-2.611c7.321,2.365,11.502-2.552,16.529-6.027c4.25-2.94,8.931-5.254,13.381-7.912
			c5.341-3.188,10.618-6.481,15.961-9.667c7.615-4.541,15.288-8.983,22.884-13.554C156.32,160.984,158.309,159.38,161.16,157.36z"/>
		<path fill-rule="evenodd" clip-rule="evenodd" d="M311.27,235.47c-5.764,0.982-5.959,1.34-4.959,8.822
			c0.971,0.061,2.001,0.126,3.03,0.19c0.175,0.259,0.35,0.519,0.525,0.777c-1.186,0.939-2.446,2.697-3.54,2.6
			c-1.215-0.108-2.278-1.911-3.739-3.289c-0.037,0.032-0.628,0.534-1.2,1.059c-1.467,1.342-2.638,3.507-5.172,1.534
			c-0.385-0.3-1.372,0.314-2.012,0.179c-3.33-0.706-6.462,0.116-9.656,0.866c-0.384,0.091-1.475-1.449-1.718-2.371
			c-1.486-5.625,3.291-14.808,10.821-12.667c0.923,0.262,1.949,0.157,3.334,0.25c-0.924,3.705-1.796,7.201-2.704,10.842
			c3.218,0.694,6.093,0.954,7.478-2.056c1.585-3.442,0.313-6.269-3.486-7.888c0.218-0.397,0.435-0.796,0.651-1.193
			c2.052,0.492,4.103,0.984,6.929,1.663C308.934,232.429,310.343,232.376,311.27,235.47z M285.239,244.161
			c3.401,1.624,4.737-0.655,6.333-2.783c1.799-2.399,1.285-4.603,0.266-6.994C286.809,236.033,285.822,239.931,285.239,244.161z"/>
		<path fill-rule="evenodd" clip-rule="evenodd" d="M882.734,21.495c0.088,5.395-2.47,10.523-6.412,14.88
			c-1.216,1.344-3.517,2.087-5.422,2.337c-2.847,0.375-6.005-3.958-4.958-6.714c1.716-4.519,3.214-9.267,5.84-13.232
			c1.313-1.983,4.854-3.204,7.496-3.416C882.517,15.091,882.823,18.15,882.734,21.495z M879.08,17.381
			c-0.456-0.309-0.912-0.618-1.367-0.927c-1.703,1.948-3.533,3.805-5.045,5.891c-0.611,0.843-1.072,2.587-0.621,3.204
			c0.571,0.783,2.131,1.101,3.284,1.149c2.224,0.091,3.869-0.737,3.764-3.425C879.019,21.312,879.08,19.345,879.08,17.381z
			 M878.08,28.696c-4.372-2.412-6.743-1.717-8.297,2.814c-0.398,1.165,0.581,2.802,0.927,4.222c1.337-0.47,3.075-0.571,3.92-1.492
			C876.074,32.663,876.959,30.573,878.08,28.696z"/>
		<path fill-rule="evenodd" clip-rule="evenodd" d="M756.634,159.173c0.637-2.893,2.989-3.021,4.909-2.282
			c1.405,0.542,3.134,2.27,3.306,3.646c0.832,6.656-0.982,12.489-6.353,16.992c-1.601,1.342-2.319,3.642-5.124,3.397
			c-2.937-0.255-6.015-4.157-5.174-6.949c1.357-4.5,1.966-9.329,5.251-13.004c0.807-0.903,2.189-1.292,3.312-1.919
			c-0.979,2.899-1.961,5.801-3.28,9.697c2.988-0.77,6.288-0.674,7.141-2.071c1.16-1.901,0.452-4.943,0.545-7.496
			C759.655,159.18,758.145,159.176,756.634,159.173z M760.196,169.564c-2.824,0-4.439-0.381-5.715,0.114
			c-1.136,0.44-2.458,1.738-2.684,2.86c-0.302,1.515,0.066,3.381,0.788,4.762c0.242,0.463,3.096,0.398,3.635-0.296
			C757.693,175.107,758.569,172.748,760.196,169.564z"/>
		<path fill-rule="evenodd" clip-rule="evenodd" d="M51.958,105.234c-1.07,1.188-3.976,2.583-5.183,0.078
			c-1.136-2.357-1.072-6.461,0.317-8.584c1.932-2.954,4.195-6.999,9.307-5.939c0.564,0.117,1.815-1.705,2.276-2.823
			c0.553-1.342,0.601-2.893,0.868-4.354c3.129-0.496,3.575-0.21,2.796,2.416c-1.335,4.5-2.929,8.921-4.363,13.393
			c-0.255,0.795-0.321,1.667-0.367,2.508c-0.075,1.357-0.061,2.719-0.084,4.079C56.017,105.798,54.507,105.588,51.958,105.234z
			 M48.156,99.707c0.777,1.559,0.996,2.674,1.659,3.107c0.501,0.328,1.907,0.07,2.328-0.422c1.572-1.842,3.069-3.797,4.238-5.909
			c0.417-0.753-0.18-2.068-0.313-3.126c-1.146,0.2-2.677,0.007-3.363,0.678C50.985,95.717,49.647,97.791,48.156,99.707z"/>
		<path fill-rule="evenodd" clip-rule="evenodd" d="M205.296,254.192c-2.759,0.632-4.347,0.088-3.527-3.068
			c1.212-4.672,2.603-9.298,3.756-13.983c0.261-1.063-0.136-2.289-0.254-3.737c3.575,0,7.237-0.263,10.838,0.1
			c2.14,0.216,2.642,5.301,0.936,8.2c-2.238,3.803-4.645,6.932-9.936,6.848C203.357,248.49,205.519,251.814,205.296,254.192z
			 M208.244,246.592c0.451,0.033,0.901,0.067,1.352,0.101c1.732-1.999,3.705-3.847,5.09-6.063c0.672-1.075,0.358-2.852,0.217-4.283
			c-0.031-0.314-1.298-0.841-1.871-0.712c-3.545,0.796-4.705,3.872-5.657,6.769C206.991,243.578,207.915,245.184,208.244,246.592z"
			/>
		<path fill-rule="evenodd" clip-rule="evenodd" d="M355.998,162.565c-0.604,1.44-0.901,3.159-1.89,4.254
			c-1.198,1.326-2.993,2.104-4.502,3.16c-0.958,0.669-1.865,1.411-2.794,2.121c0.227,0.341,0.453,0.683,0.68,1.024
			c0.604,0.035,1.233-0.028,1.805,0.124c1.913,0.508,5.086,0.212,4.447,3.116c-0.386,1.75-2.855,4.149-4.563,4.303
			c-6.252,0.558-7.063,1.44-8.813-4.077c3.308-2.101,3.992-5.068,3.138-8.932c-0.889-4.023,4.516-8.144,8.406-6.712
			C353.247,161.438,354.559,161.993,355.998,162.565z M347.333,180.436c1.636-1.534,2.63-2.465,3.625-3.396
			c-1.71-0.863-3.36-1.924-5.167-2.466c-0.534-0.161-1.508,1.14-2.279,1.771C344.61,177.52,345.709,178.696,347.333,180.436z
			 M347.802,169.397c3.429-1.284,3.766-3.715,2.927-6.399c-0.125-0.399-2.386-0.766-2.797-0.332
			C346.042,164.665,345.889,166.974,347.802,169.397z"/>
		<path fill-rule="evenodd" clip-rule="evenodd" d="M19.417,209.292c2.925,0,6.157-0.162,9.349,0.117
			c0.777,0.067,1.854,1.495,2.065,2.456c1.41,6.438-3.221,12.228-9.942,12.635c-2.931,0.177-2.426,2.491-2.831,4.343
			c-0.211,0.964-0.895,1.824-1.364,2.732c-0.547-0.96-1.708-2.048-1.538-2.857c0.888-4.231,2.181-8.375,3.193-12.582
			C18.826,214.151,18.992,212.092,19.417,209.292z M26.78,211.439c-4.274,1.517-5.766,5.048-6.915,8.663
			c-0.638,2.008,1.385,3.236,3.649,2.419C26.79,221.338,28.902,214.706,26.78,211.439z"/>
		<path fill-rule="evenodd" clip-rule="evenodd" d="M79.872,106.395c-0.324-1.044-0.644-2.073-0.96-3.093
			c-0.242-0.012-0.572-0.117-0.65-0.02c-1.487,1.854-3.146,4.329-5.629,2.717c-0.941-0.612-0.407-3.773-0.233-5.745
			c0.18-2.045,2.104-4.121-0.458-6.043c-0.21-0.158,0.335-2.062,0.95-2.41c0.964-0.545,2.33-0.704,3.437-0.513
			c0.434,0.075,1.018,1.623,0.861,2.354c-0.612,2.85-1.494,5.64-2.276,8.454c0.328,0.271,0.656,0.543,0.983,0.816
			c1.052-0.883,2.444-1.571,3.082-2.69c1.218-2.136,1.854-4.601,3.042-6.758c0.511-0.927,1.796-1.428,2.729-2.122
			c0.064,1.107,0.271,2.23,0.165,3.321c-0.273,2.794-0.653,5.58-1.054,8.359C83.548,105.184,82.566,106.669,79.872,106.395z"/>
		<path fill-rule="evenodd" clip-rule="evenodd" d="M36.789,105.435c-2.162,0.16-4.887,1.205-6.354,0.272
			c-2.211-1.407-2.059-4.264-0.484-6.644c1.308-1.976,2.427-4.101,3.915-5.927c1.703-2.088,7.18-3.176,9.459-1.939
			c0.435,0.235,0.438,1.598,0.349,2.408c-0.358,3.214-0.766,6.425-1.301,9.613c-0.167,0.987-0.754,2.67-1.224,2.697
			c-1.369,0.076-2.776-0.523-4.168-0.859C36.917,105.183,36.853,105.309,36.789,105.435z M32.965,102.948
			c4.805-1.156,6.153-2.532,6.833-7.032c0.118-0.779,0.025-2.156-0.373-2.327c-0.793-0.344-1.967-0.298-2.804,0.038
			C33.68,94.809,32.054,98.958,32.965,102.948z"/>
		<path fill-rule="evenodd" clip-rule="evenodd" d="M260.397,233.146c0.546,4.646-4.846,7.953-2.012,12.627
			c-1.658,2.154-3.343,4.039-5.591-0.364c-0.683,0.936-1.058,1.832-1.73,2.3c-2.435,1.693-4.771,0.597-5.331-2.396
			c-1.19-6.359,3.442-11.9,9.843-11.839C257.051,233.487,258.528,233.279,260.397,233.146z M253.75,233.338
			c-1.864,3.153-3.52,5.722-4.88,8.438c-0.306,0.609,0.179,1.981,0.75,2.551c0.474,0.472,1.72,0.585,2.434,0.329
			C255.447,243.438,256.93,237.022,253.75,233.338z"/>
		<path fill-rule="evenodd" clip-rule="evenodd" d="M243.542,180.809c-1.188,0-2.376,0-3.74,0c1.081-4.258,2.114-8.353,3.165-12.443
			c0.273-1.064,0.698-2.096,0.893-3.171c0.45-2.478,0.056-5.925,4.379-3.222c0.402,0.251,1.358-0.57,2.011-0.495
			c1.637,0.189,3.644,0.141,4.742,1.078c0.886,0.756,1.306,3.091,0.811,4.243c-1.738,4.036-3.152,8.653-9.45,7.59
			c-0.799-0.135-2.238,3.522-3.381,5.423C243.161,180.143,243.351,180.476,243.542,180.809z M252.505,163.01
			c-5.107-0.175-7.77,4.32-6.141,10.106C250.68,172.943,253.607,168.316,252.505,163.01z"/>
		<path fill-rule="evenodd" clip-rule="evenodd" d="M865.182,61.584c2.004-0.135,3.655-0.246,5.45-0.367
			c0.26,2.091,0.503,3.792,0.673,5.501c0.169,1.712,0.264,3.431,0.395,5.191c3.655-1.521,5.195-5.517,3.811-9.924
			c2.323-1.383,3.805-1.079,3.57,1.956c-0.119,1.54-0.511,3.317-1.42,4.492c-3.625,4.685-7.437,9.233-11.351,13.682
			c-0.637,0.723-2.142,0.889-3.243,0.882c-0.379-0.003-1.199-1.81-1.049-1.946c0.722-0.655,1.721-1.442,2.595-1.412
			c2.773,0.096,3.59-1.864,3.668-3.779c0.135-3.326-0.146-6.702-0.616-10.005C867.483,64.584,866.312,63.457,865.182,61.584z"/>
		<path fill-rule="evenodd" clip-rule="evenodd" d="M125.617,102.745c2.521-0.157,5.043-0.315,7.545-0.471
			c-0.05,2.096-1.33,3.458-4.176,3.989c-2.401,0.447-4.751,0.604-6.062-2.181c-1.825-3.877-0.105-7.027,2.114-9.976
			c2.113-2.808,5.077-4.104,8.52-3.182c2.807,0.753,2.462,3.25,1.098,4.696c-1.593,1.688-3.95,2.678-6.033,3.869
			c-1.081,0.618-2.288,1.013-3.437,1.508C125.33,101.581,125.473,102.163,125.617,102.745z M127.14,98.204
			c1.727-1.356,3.344-2.627,5.231-4.109C128.576,92.672,126.526,94.481,127.14,98.204z"/>
		<path fill-rule="evenodd" clip-rule="evenodd" d="M164.801,106.486c-2.954,0.504-4.262-1.311-4.768-3.903
			c-1.017-5.208,2.486-9.634,6.521-11.436c1.569-0.701,4.66-0.575,5.58,0.473c1.315,1.499,2.077,4.356,1.663,6.338
			C172.451,104.401,170.229,106.207,164.801,106.486z M171.823,96.774c-0.961-1.399-1.493-3.015-2.46-3.34
			c-0.917-0.309-2.78,0.396-3.363,1.246c-1.293,1.885-2.327,4.07-2.885,6.28c-0.235,0.929,0.747,2.614,1.662,3.221
			c0.571,0.379,2.445-0.298,3.047-1.051C169.315,101.263,170.413,99.081,171.823,96.774z"/>
		<path fill-rule="evenodd" clip-rule="evenodd" d="M225.176,248.37c-3.271,0.028-5.549-2.516-5.437-6.071
			c0.137-4.367,4.475-8.987,8.702-9.266c4.505-0.297,6.163,1.26,6.109,5.738C234.499,243.058,229.345,248.335,225.176,248.37z
			 M225.8,246.934c1.049-0.947,2.181-1.509,2.556-2.393c1.055-2.483,1.964-5.065,2.519-7.696c0.106-0.499-2.38-2.108-2.484-2.006
			c-1.684,1.665-3.77,3.304-4.552,5.399C223.007,242.472,222.659,245.436,225.8,246.934z"/>
		<path fill-rule="evenodd" clip-rule="evenodd" d="M854.752,74.139c-1.237,0.813-2.677,2.467-3.664,2.231
			c-1.274-0.306-2.187-2.122-3.128-3.148c-1.835,0.98-3.893,2.182-6.072,3.094c-0.23,0.097-1.171-1.501-1.86-2.417
			c8.745-3.447,9.085-4.803,3.375-11.765c4.09-1.575,4.902-1.266,6.267,2.591c0.96-1.035,1.719-2.187,2.778-2.879
			c0.722-0.473,1.897-0.499,2.799-0.333c0.381,0.07,0.972,1.464,0.78,1.7c-0.491,0.606-1.474,0.787-2.064,1.344
			c-1.161,1.094-3.146,2.404-3.062,3.489c0.151,1.93,1.591,3.759,2.491,5.63C853.846,73.83,854.299,73.984,854.752,74.139z"/>
		<path fill-rule="evenodd" clip-rule="evenodd" d="M69.372,221.665c-1.23,0.928-2.33,2.307-3.712,2.704
			c-4.794,1.379-8.056-1.757-6.841-6.719c1.087-4.442,4.571-8.974,9.589-8.265c0.96,0.135,2.338,1.088,2.536,1.903
			c0.261,1.075-0.053,2.922-0.822,3.498c-2.412,1.805-5.153,3.169-8.305,5.02C63.07,223.552,66.564,220.861,69.372,221.665z
			 M62.39,216.042c2.001-0.629,3.482-0.853,4.669-1.564c0.658-0.395,0.966-1.58,1.138-2.466c0.061-0.314-0.762-1.146-1.156-1.131
			c-0.787,0.032-1.837,0.266-2.271,0.815C63.907,212.787,63.389,214.149,62.39,216.042z"/>
		<path fill-rule="evenodd" clip-rule="evenodd" d="M325.649,162.379c-0.188,3.478-0.224,6.873-0.676,10.21
			c-0.089,0.659-1.73,1.348-2.754,1.57c-1.013,0.22-2.149-0.136-3.23-0.235c-1.889-0.172-3.776-0.341-5.665-0.512
			c0.299-2.488-0.058-5.32,1.03-7.396C316.932,161.102,320.066,160.404,325.649,162.379z M322.259,162.831
			c-3.951,0.395-6.799,4.092-5.663,7.612c0.158,0.49,2.023,1.033,2.569,0.695C322.257,169.227,323.321,166.383,322.259,162.831z"/>
		<path fill-rule="evenodd" clip-rule="evenodd" d="M111.535,107.301c-1.262-5.675-2.317-10.426-3.547-15.957
			c0.45-0.041,1.964-0.541,3.206-0.158c0.828,0.254,1.583,1.696,1.817,2.732c0.459,2.033,0.533,4.153,0.803,6.566
			c3.128-1.369,3.778-3.534,3.505-6.319c-0.098-1,0.144-2.089,0.504-3.033c0.076-0.198,1.826-0.174,1.987,0.153
			c0.514,1.039,1.186,2.494,0.817,3.382c-0.988,2.381-2.325,4.665-3.826,6.771C115.467,103.313,113.728,104.896,111.535,107.301z"/>
		<path fill-rule="evenodd" clip-rule="evenodd" d="M38.212,224.464c-2.419,0.454-3.627-0.854-4.303-3.253
			c-1.55-5.496,2.755-11.86,8.23-11.978c3.178-0.069,5.275,1.796,5.532,4.952C48.027,218.566,43.763,224.962,38.212,224.464z
			 M41.149,210.761c-0.682,0.658-2.16,1.447-2.568,2.61c-0.906,2.584-2.013,5.472-1.61,8.01c0.277,1.745,3.185,1.896,4.503,0.011
			c1.384-1.978,2.499-4.224,3.302-6.504C45.602,212.54,44.404,211.118,41.149,210.761z"/>
		<path fill-rule="evenodd" clip-rule="evenodd" d="M884.444,53.178c5.671,9.973,3.068,20.808-4.721,26.863
			c-1.201,0.934-1.562,4.743-3.796,2.328c-1.928-2.084,1.794-2.1,2.547-3.352c4.107-6.824,7.938-13.717,5.184-22.193
			C883.394,56.008,884.046,54.894,884.444,53.178z"/>
		<path fill-rule="evenodd" clip-rule="evenodd" d="M288.637,161.798c1.222,0,2.443,0,4.352,0c-0.491,2.199-1.027,3.91-1.223,5.66
			c-0.192,1.725-0.042,3.489-0.042,6.35c-3.526,0.047-7.401,0.123-11.273,0.101c-0.273-0.001-0.65-0.696-0.797-1.13
			c-1.396-4.11,3.437-11.303,7.881-11.684c0.373-0.032,0.795,0.52,1.2,0.805c-5.49,2.654-6.949,5.607-4.912,9.954
			C289.078,170.387,290.087,166.228,288.637,161.798z"/>
		<path fill-rule="evenodd" clip-rule="evenodd" d="M831.8,150.604c0.797-3.236,5.335-4.915,3.562-9.287
			c-0.129-0.318,0.722-1.033,1.117-1.563c0.576,0.5,1.67,1.042,1.633,1.491c-0.129,1.542-0.272,3.309-1.097,4.525
			c-2.8,4.128-5.827,8.111-8.926,12.024c-0.69,0.873-2.023,1.238-3.506,1.582c1.946-2.991,4.672-5.596,3.485-9.57
			c-0.949-3.184-1.751-6.413-2.665-9.79c3.238-1.384,4.952-0.366,4.998,3.869c0.023,2.24,0.003,4.481,0.003,6.721
			C830.87,150.604,831.335,150.604,831.8,150.604z"/>
		<path fill-rule="evenodd" clip-rule="evenodd" d="M92.469,93.286c0.173,0.738,0.214,1.542,0.545,2.201
			c0.712,1.419,1.691,2.71,2.35,4.149c1.79,3.906-0.478,7.072-4.718,6.692c-1.35-0.121-2.698-0.252-4.29-0.402
			c-0.115-0.696-0.333-1.394-0.312-2.084c0.018-0.549,0.33-1.088,0.584-1.852c0.646,0.382,1.029,0.684,1.464,0.852
			c1.233,0.479,2.488,0.903,3.733,1.349c-0.159-1.302-0.154-2.652-0.527-3.889c-0.315-1.044-1.04-1.974-1.635-2.921
			c-1.449-2.31-0.895-4.948,1.003-5.925c1.832-0.943,4.519-0.328,6.803-0.111c0.201,0.019,0.199,2.162,0.292,3.318
			c-0.966-0.003-1.995,0.195-2.873-0.085c-0.521-0.165-0.803-1.083-1.192-1.663C93.289,93.04,92.879,93.163,92.469,93.286z"/>
		<path fill-rule="evenodd" clip-rule="evenodd" d="M144.803,93.435c-3.503,1.351-6.716,5.57-4.858,7.808
			c1.234,1.486,4.543,1.25,7.373,1.886c0.079,2.627-2.421,2.976-5.086,3.33c-3.48,0.461-5.372-1.401-5.753-4.421
			c-0.578-4.583,4.822-12.636,10.67-11.105c1.14,0.299,2.1,1.596,2.906,2.618c0.168,0.214-0.889,1.863-1.07,1.809
			C147.808,95.007,146.717,94.367,144.803,93.435z"/>
		<path fill-rule="evenodd" clip-rule="evenodd" d="M716.832,227.843c1.767,0.781,3.474,1.845,5.323,2.242
			c1.135,0.243,2.558-0.372,3.729-0.882c2.647-1.153,2.929-0.986,3.037,2.332c-5.406,0.765-6.144,1.661-4.933,6.895
			c0.196,0.845,1.751,1.376,3.274,2.488c-0.302,0.308-1.472,2.256-2.219,2.104c-1.625-0.327-3.035-1.724-4.718-2.803
			c-0.434,0.378-1.245,1.272-2.233,1.883c-0.682,0.422-1.607,0.447-2.425,0.649c0.36-0.727,0.54-1.677,1.112-2.141
			c2.598-2.103,4.333-4.428,2.561-7.866c-0.445-0.861-1.245-1.542-1.893-2.298c-0.432-0.504-0.883-0.994-1.324-1.491
			C716.361,228.585,716.596,228.214,716.832,227.843z"/>
		<path fill-rule="evenodd" clip-rule="evenodd" d="M177.925,91.208c0.523-0.098,1.692-0.712,2.33-0.361
			c2.009,1.104,3.795,0.897,5.788,0.076c0.398-0.164,1.836,0.857,1.79,1.193c-0.151,1.103-0.794,3.075-1.199,3.063
			c-6.15-0.183-6.024,5.215-7.606,8.739c-0.988,2.201-1.914,2.548-4.167,1.745c0.702-2.33,1.543-4.6,2.047-6.941
			C177.404,96.41,177.56,94.024,177.925,91.208z"/>
		<path fill-rule="evenodd" clip-rule="evenodd" d="M320.91,242.359c1.873,1.997,2.861,3.05,3.949,4.21
			c2.533-0.891,4.148-1.897,1.404-4.414c-0.529-0.486-1.053-1.055-1.362-1.69c-2.438-5.033-1.069-7.224,4.458-7.199
			c0.86,0.004,1.719,0.07,2.863,0.121c0,0.809,0.089,1.516-0.027,2.187c-0.1,0.575-0.435,1.111-0.783,1.943
			c-1.302-0.878-2.412-1.626-3.522-2.373c-0.247,0.155-0.494,0.311-0.742,0.466c0.658,1.694,1.122,3.5,2.011,5.063
			c2.435,4.284,0.769,7.579-4.026,7.661c-1.358,0.023-2.716,0.003-4.635,0.003C320.626,246.49,320.734,244.914,320.91,242.359z"/>
		<path fill-rule="evenodd" clip-rule="evenodd" d="M338.819,173.93c-1.064,0-2.085,0-3.779,0c0.924-3.682,1.754-6.984,2.583-10.288
			c-0.428-0.229-0.856-0.458-1.284-0.687c-1.981,3.063-3.937,6.143-5.961,9.176c-0.453,0.677-1.15,1.19-1.735,1.779
			c-0.19-0.865-0.673-1.785-0.521-2.584c0.615-3.234,1.425-6.432,2.262-10.073c2.882,2.116,5.546,2.552,7.773-0.653
			C342.824,165.191,336.984,169.604,338.819,173.93z"/>
		<path fill-rule="evenodd" clip-rule="evenodd" d="M700.711,117.507c0.06-1.165-0.008-2.353,0.202-3.489
			c0.616-3.35,1.173-6.729,2.14-9.983c0.259-0.869,1.869-1.788,2.923-1.869c1.908-0.148,3.865,0.315,6.46,0.595
			c0.053,0.712,0.155,2.086,0.283,3.823c-6.167-0.936-6.35,4.129-8.182,7.557c-0.716,1.34-1.474,2.659-2.213,3.987
			C701.787,117.921,701.249,117.714,700.711,117.507z"/>
		<path fill-rule="evenodd" clip-rule="evenodd" d="M262.669,175.107c-1.692-1.25-4.022-2.158-4.923-3.834
			c-1.286-2.393,1.52-8.095,4.126-9.057c2.017-0.745,3.921-2.693,6.504-0.591c2.012,1.639,2.959,3.103,1.984,5.668
			C268.035,173.411,267.722,174.252,262.669,175.107z M267.406,163.085c-5.254-0.616-7.375,2.884-6.009,9.916
			C265.627,173.285,268.425,168.667,267.406,163.085z"/>
		<path fill-rule="evenodd" clip-rule="evenodd" d="M884.631,16.188c5.651,5.719,4.142,17.909-2.787,25.799
			c-1.214,1.383-3.127,2.177-4.793,3.107c-0.188,0.105-0.871-0.672-0.997-0.774C882.946,36.027,888.414,27.667,884.631,16.188z"/>
		<path fill-rule="evenodd" clip-rule="evenodd" d="M236.101,245.892c1.056-4.425,1.971-8.107,2.803-11.81
			c0.557-2.474,0.809-5.036,1.584-7.435c0.304-0.939,1.666-1.537,2.545-2.29c0.518,0.915,1.627,1.966,1.454,2.722
			c-0.967,4.209-2.353,8.321-3.36,12.522c-0.387,1.613,0.061,3.421-0.277,5.055c-0.223,1.079-1.051,2.119-1.84,2.957
			c-0.396,0.42-1.743,0.674-1.912,0.446C236.506,247.262,236.237,246.224,236.101,245.892z"/>
		<path fill-rule="evenodd" clip-rule="evenodd" d="M845.169,53.938c-6.871,8.191-11.262,17-8.219,28.101
			c-4.222-4.811-4.102-10.387-2.573-15.533C835.988,61.085,838.965,56.067,845.169,53.938z"/>
		<path fill-rule="evenodd" clip-rule="evenodd" d="M845.614,23.003c1.322,0.558,2.711,1.143,4.659,1.965
			c1.026-0.979,2.821-3.099,5.332-0.281c-0.763,2.084-1.936,2.919-4.452,3.265c-1.591,0.219-2.944,3.075-4.142,4.919
			c-0.773,1.19-0.98,2.734-1.621,4.031c-0.318,0.644-1.041,1.089-1.58,1.624c-0.419-0.769-1.258-1.585-1.177-2.299
			c0.22-1.96,0.829-3.876,1.277-5.813C844.425,28.197,844.932,25.977,845.614,23.003z"/>
		<path fill-rule="evenodd" clip-rule="evenodd" d="M843.061,17.12c-2.215,5.232-4.642,9.457-5.74,14.002
			c-1.016,4.202-0.607,8.748-0.828,13.142c-2.563-5.382-5.008-10.65-1.998-16.84C836.432,23.441,838.381,19.726,843.061,17.12z"/>
		<path fill-rule="evenodd" clip-rule="evenodd" d="M262.013,249.154c-3.28-6.13,3.618-10.274,0.433-15.368
			c2.246-0.63,4.295-2.117,5.372,0.888c1.191-0.583,2.488-1.216,4.43-2.166c0.154,1.936,0.252,3.165,0.349,4.374
			c-4.401,0.566-7.297,3.492-8.35,7.737C263.919,245.938,263.039,247.12,262.013,249.154z"/>
		<path fill-rule="evenodd" clip-rule="evenodd" d="M158.997,88.351c-0.85,2.157-1.749,4.297-2.536,6.478
			c-1.028,2.849-3.383,5.71,0.126,8.691c-0.82,0.91-1.43,1.886-2.299,2.49c-1.921,1.335-3.956,0.303-3.63-2.005
			c0.444-3.148,2.405-6.367,1.957-9.285c-0.554-3.604,1.915-4.608,3.434-6.532c0.307-0.389,1.06-0.424,1.607-0.623
			C158.103,87.828,158.55,88.089,158.997,88.351z"/>
		<path fill-rule="evenodd" clip-rule="evenodd" d="M372.076,161.694c1.381,0.289,2.763,0.577,4.035,0.842
			c-0.854,5.313-5.215,5.858-8.653,7.717c2.227,4.262,4.866,0.11,7.142,0.511c-0.66,2.563-3.644,4.143-6.518,3.838
			c-2.649-0.281-3.092-1.995-3.109-4.157c-0.045-5.812,1.283-7.439,7.163-8.738c-1.431,1.477-2.843,2.952-4.256,4.427
			C373.044,166.09,373.617,165.264,372.076,161.694z"/>
		<path fill-rule="evenodd" clip-rule="evenodd" d="M23.632,93.713c1.122-0.938,2.077-1.735,3.032-2.534
			c0.395,0.215,0.789,0.43,1.183,0.645c-0.522,1.146-1.097,3.307-1.558,3.282c-4.857-0.252-5.202,3.833-6.544,6.713
			c-0.845,1.813-0.395,4.34-3.304,4.628c-0.074-1.964-0.433-3.969-0.155-5.881c0.396-2.723,1.227-5.387,1.952-8.054
			c0.141-0.516,0.675-1.333,0.993-1.317c1.034,0.052,2.124,0.277,3.049,0.73C22.84,92.199,23.132,93.018,23.632,93.713z"/>
		<path fill-rule="evenodd" clip-rule="evenodd" d="M49.135,224.058c1.766-7.367,3.471-14.48,5.298-22.102c0.456,0,1.712,0,3.719,0
			c-1.403,4.545-2.797,8.714-3.948,12.948c-0.507,1.864-0.942,3.926-0.664,5.785C54.026,223.936,52.772,224.74,49.135,224.058z"/>
		<path fill-rule="evenodd" clip-rule="evenodd" d="M275.496,173.594c-0.196,0.059-1.399,0.425-3.615,1.098
			c0.848-3.93,1.535-7.038,2.187-10.152c0.65-3.107,1.177-6.245,1.954-9.319c0.21-0.831,1.13-1.481,1.724-2.214
			c0.66,0.804,2.005,1.765,1.863,2.386c-0.688,3.005-1.954,5.875-2.671,8.876C276.272,167.045,276.042,169.926,275.496,173.594z"/>
		<path fill-rule="evenodd" clip-rule="evenodd" d="M361.414,173.805c-1.46,0-2.921,0-4.382,0c0.214-1.287,0.369-2.587,0.655-3.857
			c0.716-3.186,1.486-6.359,2.247-9.535c0.508-2.12,0.954-4.261,1.618-6.331c0.148-0.459,1.101-0.66,1.684-0.979
			c0.261,0.732,0.867,1.54,0.728,2.186c-0.806,3.744-1.855,7.436-2.681,11.176c-0.418,1.894-0.54,3.853-0.795,5.783
			C360.795,172.767,361.105,173.286,361.414,173.805z"/>
		<path fill-rule="evenodd" clip-rule="evenodd" d="M294.09,173.49c0.727-3.469,1.391-6.955,2.238-10.394
			c0.166-0.675,1.073-1.69,1.593-1.664c2.468,0.125,4.919,0.556,7.377,0.878c-0.457,0.832-0.841,2.33-1.381,2.389
			c-4.145,0.451-5.37,3.353-6.408,6.73c-0.35,1.139-1.548,2.016-2.359,3.012C294.797,174.124,294.443,173.807,294.09,173.49z"/>
		<path fill-rule="evenodd" clip-rule="evenodd" d="M68.797,91.63c-0.691,2.278-1.522,4.526-2.025,6.846
			c-0.336,1.551-0.206,3.205-0.285,4.813c0.387,0.091,0.775,0.182,1.162,0.273c-0.5,0.671-0.865,1.601-1.533,1.951
			c-0.915,0.479-2.06,0.517-3.106,0.743c-0.204-1.013-0.725-2.084-0.553-3.029c0.634-3.485,1.359-6.97,2.365-10.361
			c0.275-0.927,1.655-1.527,2.528-2.277C67.832,90.936,68.314,91.283,68.797,91.63z"/>
		<path fill-rule="evenodd" clip-rule="evenodd" d="M316.417,233.303c0.238-0.018,1.435-0.111,3.277-0.255
			c-0.485,2.014-0.934,3.591-1.234,5.196c-0.397,2.117-0.883,4.249-0.957,6.388c-0.088,2.563-0.816,4.063-4.487,3.421
			C314.104,243.336,315.167,238.723,316.417,233.303z"/>
		<path fill-rule="evenodd" clip-rule="evenodd" d="M857.066,80.129c0-2.179-0.211-3.583,0.072-4.878
			c0.195-0.9,1.071-1.65,1.644-2.468c0.52,0.695,1.435,1.359,1.489,2.088C860.463,77.435,859.729,79.533,857.066,80.129z"/>
		<path fill-rule="evenodd" clip-rule="evenodd" d="M854.087,43.202c0.754-3.041,1.26-5.311,1.935-7.53
			c0.093-0.304,1.233-0.656,1.518-0.456c0.528,0.371,1.164,1.185,1.088,1.721C858.293,39.313,857.934,41.789,854.087,43.202z"/>
		<path fill-rule="evenodd" clip-rule="evenodd" d="M810.986,173.474c-1.271,0.958-2.079,2.023-2.711,1.927
			c-0.771-0.117-2.028-1.313-1.94-1.861c0.157-0.988,1.16-1.839,1.81-2.748C808.923,171.527,809.701,172.262,810.986,173.474z"/>
		<path fill-rule="evenodd" clip-rule="evenodd" d="M810.866,148.227c-1.142,1.078-1.836,1.733-2.529,2.389
			c-0.716-0.771-1.85-1.464-2.011-2.337c-0.123-0.664,0.988-1.557,1.552-2.348C808.727,146.583,809.574,147.235,810.866,148.227z"/>
		<path fill-rule="evenodd" clip-rule="evenodd" d="M808.723,157.203c-0.896-0.76-2.541-1.551-2.513-2.274
			c0.044-1.094,1.253-2.143,1.967-3.211c0.437,0.116,0.873,0.231,1.31,0.348c0.117,1.502,0.234,3.005,0.352,4.508
			C809.466,156.783,809.094,156.993,808.723,157.203z"/>
		<path fill-rule="evenodd" clip-rule="evenodd" d="M809.859,111.832c-1.021,0.101-2.063,0.205-3.413,0.338c0-1.419,0-2.564,0-3.908
			C809.642,107.2,810.598,108.444,809.859,111.832z"/>
		<path fill-rule="evenodd" clip-rule="evenodd" d="M808.333,126.237c-1.071-1.647-1.927-2.402-1.966-3.196
			c-0.032-0.665,0.89-1.375,1.39-2.065c0.75,0.605,1.922,1.097,2.126,1.85C810.066,123.505,809.19,124.471,808.333,126.237z"/>
		<path fill-rule="evenodd" clip-rule="evenodd" d="M805.146,102.131c3.701-0.847,4.996-0.119,4.706,2.202
			c-0.079,0.641-1.131,1.16-1.738,1.734C807.278,104.958,806.441,103.849,805.146,102.131z"/>
		<path fill-rule="evenodd" clip-rule="evenodd" d="M805.713,95.423c1.762,0,2.829,0,4.536,0c-0.366,1.369-0.534,2.618-1.082,3.669
			c-0.167,0.321-1.835,0.381-2.029,0.07C806.506,98.152,806.24,96.914,805.713,95.423z"/>
		<path fill-rule="evenodd" clip-rule="evenodd" d="M805.781,168.572c0.844-1.344,1.688-2.688,2.53-4.032
			c0.395,0.099,0.788,0.197,1.183,0.296c0.076,1.201,0.537,2.574,0.104,3.547c-0.325,0.728-1.804,0.941-2.77,1.384
			C806.479,169.369,806.131,168.971,805.781,168.572z"/>
		<path fill-rule="evenodd" clip-rule="evenodd" d="M811.146,116.641c-1.649,0.676-2.626,1.457-3.313,1.253
			c-0.703-0.208-1.682-1.534-1.527-2.089c0.206-0.745,1.394-1.686,2.146-1.673C809.135,114.144,809.799,115.317,811.146,116.641z"/>
		<path fill-rule="evenodd" clip-rule="evenodd" d="M808.09,157.846c0.993,1.529,1.951,2.355,1.848,3.015
			c-0.118,0.742-1.191,1.332-1.85,1.989c-0.648-0.655-1.71-1.247-1.822-1.983C806.165,160.205,807.105,159.383,808.09,157.846z"/>
		<path fill-rule="evenodd" clip-rule="evenodd" d="M808.1,176.508c0.953,1.633,1.759,2.422,1.767,3.219
			c0.005,0.586-1.033,1.182-1.606,1.772c-0.648-0.676-1.6-1.263-1.839-2.062C806.266,178.919,807.146,178.089,808.1,176.508z"/>
		<path fill-rule="evenodd" clip-rule="evenodd" d="M805.712,143.15c0.758-1.009,1.515-2.018,2.272-3.027
			c0.689,0.721,1.379,1.441,2.067,2.161c-1.028,0.728-2.058,1.457-3.086,2.185C806.548,144.03,806.13,143.59,805.712,143.15z"/>
		<path fill-rule="evenodd" clip-rule="evenodd" d="M805.15,91.367c1.307-1.086,2.16-2.265,2.697-2.135
			c0.849,0.205,1.809,1.186,2.076,2.041c0.132,0.424-1.105,1.724-1.849,1.841C807.401,93.221,806.559,92.263,805.15,91.367z"/>
		<path fill-rule="evenodd" clip-rule="evenodd" d="M809.692,133.34c-0.179,1.311-0.357,2.62-0.535,3.931
			c-0.88-0.134-1.761-0.268-2.64-0.402c0.398-1.327,0.797-2.653,1.196-3.979C808.373,133.04,809.033,133.19,809.692,133.34z"/>
		<path fill-rule="evenodd" clip-rule="evenodd" d="M809.708,127.104c-0.122,1.218-0.245,2.436-0.368,3.653
			c-0.992-0.199-1.984-0.399-2.977-0.598c0.47-1.158,0.938-2.315,1.408-3.472C808.416,126.826,809.063,126.965,809.708,127.104z"/>
		<path fill-rule="evenodd" clip-rule="evenodd" fill="#FFFFFF" d="M650.855,203.806c23.233-20.087,45.6-39.424,68.813-59.494
			c3.481,7.996,6.642,15.256,9.802,22.516c0.3-0.069,0.601-0.138,0.9-0.206c0.21-2.468,0.42-4.935,0.649-7.631
			c3.643,2.897,6.497,22.333,4.776,32.066c-1.258-2.647-2.252-4.743-3.247-6.839c-0.382,0.108-0.764,0.218-1.146,0.326
			c-0.269,4.316-0.606,8.631-0.79,12.951c-0.253,5.947-1.527,6.846-7.376,6.717c-11.711-0.256-23.429-0.161-35.145-0.173
			c-11.201-0.012-22.402,0.031-33.604,0.035C653.665,204.074,652.841,203.957,650.855,203.806z"/>
		<path fill-rule="evenodd" clip-rule="evenodd" fill="#FFFFFF" d="M285.239,244.161c0.583-4.23,1.569-8.128,6.598-9.777
			c1.019,2.392,1.533,4.595-0.266,6.994C289.976,243.506,288.64,245.785,285.239,244.161z"/>
		<path fill-rule="evenodd" clip-rule="evenodd" fill="#FFFFFF" d="M879.08,17.381c0,1.964-0.062,3.931,0.015,5.892
			c0.105,2.688-1.54,3.516-3.764,3.425c-1.153-0.048-2.713-0.366-3.284-1.149c-0.451-0.617,0.01-2.361,0.621-3.204
			c1.512-2.086,3.342-3.942,5.045-5.891C878.168,16.763,878.624,17.072,879.08,17.381z"/>
		<path fill-rule="evenodd" clip-rule="evenodd" fill="#FFFFFF" d="M878.08,28.696c-1.121,1.877-2.006,3.967-3.45,5.544
			c-0.845,0.921-2.583,1.022-3.92,1.492c-0.346-1.42-1.325-3.058-0.927-4.222C871.337,26.979,873.708,26.284,878.08,28.696z"/>
		<path fill-rule="evenodd" clip-rule="evenodd" fill="#FFFFFF" d="M756.634,159.173c1.511,0.003,3.021,0.007,4.532,0.011
			c-0.093,2.553,0.615,5.594-0.545,7.496c-0.853,1.397-4.152,1.301-7.141,2.071c1.319-3.896,2.301-6.798,3.28-9.697
			C756.758,159.056,756.634,159.173,756.634,159.173z"/>
		<path fill-rule="evenodd" clip-rule="evenodd" fill="#FFFFFF" d="M760.196,169.564c-1.627,3.184-2.503,5.543-3.976,7.44
			c-0.539,0.694-3.393,0.759-3.635,0.296c-0.722-1.38-1.09-3.247-0.788-4.762c0.226-1.122,1.548-2.419,2.684-2.86
			C755.757,169.183,757.372,169.564,760.196,169.564z"/>
		<path fill-rule="evenodd" clip-rule="evenodd" fill="#FFFFFF" d="M48.156,99.707c1.491-1.917,2.829-3.99,4.549-5.673
			c0.686-0.67,2.216-0.478,3.363-0.678c0.133,1.059,0.73,2.374,0.313,3.126c-1.168,2.111-2.666,4.066-4.238,5.909
			c-0.421,0.493-1.827,0.75-2.328,0.422C49.152,102.381,48.934,101.266,48.156,99.707z"/>
		<path fill-rule="evenodd" clip-rule="evenodd" fill="#FFFFFF" d="M208.244,246.592c-0.329-1.408-1.253-3.014-0.868-4.188
			c0.952-2.896,2.111-5.973,5.657-6.769c0.573-0.129,1.839,0.397,1.871,0.712c0.142,1.432,0.455,3.208-0.217,4.283
			c-1.385,2.216-3.358,4.063-5.09,6.063C209.145,246.659,208.695,246.625,208.244,246.592z"/>
		<path fill-rule="evenodd" clip-rule="evenodd" fill="#FFFFFF" d="M347.333,180.436c-1.624-1.739-2.723-2.916-3.821-4.092
			c0.771-0.631,1.745-1.932,2.279-1.771c1.806,0.542,3.457,1.603,5.167,2.466C349.963,177.971,348.969,178.901,347.333,180.436z"/>
		<path fill-rule="evenodd" clip-rule="evenodd" fill="#FFFFFF" d="M347.802,169.397c-1.913-2.423-1.761-4.732,0.13-6.731
			c0.411-0.435,2.672-0.067,2.797,0.332C351.568,165.682,351.231,168.113,347.802,169.397z"/>
		<path fill-rule="evenodd" clip-rule="evenodd" fill="#FFFFFF" d="M26.78,211.439c2.122,3.267,0.01,9.898-3.266,11.082
			c-2.264,0.817-4.287-0.411-3.649-2.419C21.015,216.487,22.506,212.956,26.78,211.439z"/>
		<path fill-rule="evenodd" clip-rule="evenodd" fill="#FFFFFF" d="M32.965,102.948c-0.911-3.991,0.715-8.14,3.656-9.321
			c0.836-0.336,2.011-0.382,2.804-0.038c0.398,0.171,0.491,1.548,0.373,2.327C39.118,100.416,37.77,101.792,32.965,102.948z"/>
		<path fill-rule="evenodd" clip-rule="evenodd" fill="#FFFFFF" d="M253.75,233.338c3.18,3.685,1.697,10.1-1.696,11.317
			c-0.714,0.256-1.96,0.143-2.434-0.329c-0.571-0.569-1.056-1.941-0.75-2.551C250.23,239.06,251.886,236.491,253.75,233.338z"/>
		<path fill-rule="evenodd" clip-rule="evenodd" fill="#FFFFFF" d="M252.505,163.01c1.102,5.306-1.825,9.933-6.141,10.106
			C244.735,167.331,247.397,162.835,252.505,163.01z"/>
		<path fill-rule="evenodd" clip-rule="evenodd" fill="#FFFFFF" d="M127.14,98.204c-0.613-3.722,1.437-5.532,5.231-4.109
			C130.483,95.577,128.866,96.847,127.14,98.204z"/>
		<path fill-rule="evenodd" clip-rule="evenodd" fill="#FFFFFF" d="M171.823,96.774c-1.41,2.307-2.507,4.489-4,6.355
			c-0.602,0.753-2.476,1.43-3.047,1.051c-0.915-0.607-1.897-2.292-1.662-3.221c0.558-2.209,1.591-4.395,2.885-6.28
			c0.583-0.851,2.446-1.555,3.363-1.246C170.33,93.759,170.862,95.375,171.823,96.774z"/>
		<path fill-rule="evenodd" clip-rule="evenodd" fill="#FFFFFF" d="M225.8,246.934c-3.141-1.498-2.793-4.462-1.961-6.695
			c0.782-2.096,2.868-3.734,4.552-5.399c0.104-0.103,2.59,1.507,2.484,2.006c-0.555,2.631-1.464,5.213-2.519,7.696
			C227.98,245.425,226.849,245.986,225.8,246.934z"/>
		<path fill-rule="evenodd" clip-rule="evenodd" fill="#FFFFFF" d="M62.39,216.042c0.999-1.893,1.517-3.255,2.379-4.346
			c0.434-0.55,1.485-0.783,2.271-0.815c0.395-0.015,1.217,0.816,1.156,1.131c-0.172,0.886-0.48,2.071-1.138,2.466
			C65.872,215.189,64.392,215.413,62.39,216.042z"/>
		<path fill-rule="evenodd" clip-rule="evenodd" fill="#FFFFFF" d="M322.259,162.831c1.063,3.552-0.001,6.396-3.094,8.307
			c-0.546,0.337-2.411-0.205-2.569-0.695C315.46,166.923,318.308,163.226,322.259,162.831z"/>
		<path fill-rule="evenodd" clip-rule="evenodd" fill="#FFFFFF" d="M41.149,210.761c3.255,0.357,4.453,1.779,3.627,4.127
			c-0.803,2.28-1.918,4.526-3.302,6.504c-1.319,1.886-4.227,1.734-4.503-0.011c-0.402-2.538,0.705-5.426,1.61-8.01
			C38.99,212.208,40.468,211.419,41.149,210.761z"/>
		<path fill-rule="evenodd" clip-rule="evenodd" fill="#FFFFFF" d="M288.637,161.798c1.451,4.429,0.441,8.588-4.814,10.056
			c-2.037-4.347-0.578-7.3,4.912-9.954C288.729,161.896,288.637,161.798,288.637,161.798z"/>
		<path fill-rule="evenodd" clip-rule="evenodd" fill="#FFFFFF" d="M267.406,163.085c1.02,5.582-1.779,10.2-6.009,9.916
			C260.031,165.969,262.152,162.469,267.406,163.085z"/>
		<path fill-rule="evenodd" clip-rule="evenodd" fill="#FFFFFF" d="M372.076,161.694c1.541,3.57,0.968,4.396-4.197,4.44
			c1.413-1.475,2.825-2.95,4.256-4.427C372.154,161.706,372.076,161.694,372.076,161.694z"/>
	</g>
</g>
</svg>
