<?xml version="1.0" encoding="utf-8"?>
<!-- Generator: Adobe Illustrator 16.0.0, SVG Export Plug-In . SVG Version: 6.00 Build 0)  -->
<!DOCTYPE svg PUBLIC "-//W3C//DTD SVG 1.1//EN" "http://www.w3.org/Graphics/SVG/1.1/DTD/svg11.dtd">
<svg version="1.1" id="Layer_1" xmlns="http://www.w3.org/2000/svg" xmlns:xlink="http://www.w3.org/1999/xlink" x="0px" y="0px"
	 width="369.802px" height="506px" viewBox="0 0 369.802 506" enable-background="new 0 0 369.802 506" xml:space="preserve">
<g>
	<g>
		<path fill-rule="evenodd" clip-rule="evenodd" fill="#FFFFFF" d="M193.527,504.069c-64.245,0-128.49,0-192.756,0
			c0-164.724,0-329.447,0-494.245c123.17,0,246.361,0,369.666,0c0,164.699,0,329.471,0,494.245c-57.669,0-115.413,0-173.159,0
			c0.132-1.568,0.263-3.137,0.338-4.027c2.449-0.718,4.678-0.818,6.168-1.92c3.165-2.341,3.029-5.707,1.683-9.11
			c-1.307-3.302-3.912-3.342-6.813-2.808c-0.701,0.129-1.469,0.02-2.188-0.089c-2.112-0.317-2.938,0.551-2.911,2.678
			C193.615,493.884,193.545,498.978,193.527,504.069z M285.187,166.097c0.707-0.858,1.025-1.397,1.479-1.771
			c5.77-4.748,11.497-9.55,17.379-14.155c1.893-1.481,2.583-2.819,2.196-5.341c-3.475-22.697-6.761-45.423-10.118-68.138
			c-2.951-19.969-5.973-39.929-8.83-59.912c-0.457-3.19-1.89-4.017-4.945-3.957c-12.235,0.24-24.477,0.307-36.715,0.314
			c-18.849,0.012-37.697-0.106-56.545-0.117c-20.101-0.012-40.201,0.057-60.301,0.052c-11.239-0.003-22.478-0.163-33.714-0.029
			c-1.401,0.017-3.391,1.062-4.056,2.23c-1.589,2.793-2.583,5.931-3.76,8.951c-6.416,16.484-12.722,33.011-19.25,49.45
			c-4.715,11.873-9.892,23.563-14.534,35.463c-3.108,7.967-5.469,16.223-8.47,24.235c-4.939,13.182-10.159,26.258-15.197,39.403
			c-3.522,9.191-6.682,18.532-10.49,27.602c-2.608,6.209-2.982,6.047,3.797,6.064c19.608,0.048,39.217,0.158,58.826,0.138
			c24.355-0.025,48.711-0.202,73.066-0.231c25.599-0.032,51.198,0.071,76.797-0.025c1.848-0.007,4.033-0.721,5.479-1.851
			c7.542-5.891,14.9-12.018,22.314-18.071c5.286-4.314,10.379-8.894,15.904-12.875c3.547-2.557,6.284-7.121,11.782-6.022
			c0.078,0.016,0.236-0.374,0.427-0.688C287.013,166.618,286.356,166.431,285.187,166.097z M187.293,463.014
			c0-0.023,0-0.048,0-0.071c7.12,0,14.239,0,21.359-0.001c40.219-0.004,80.439-0.039,120.658,0.049
			c2.886,0.007,4.028-0.648,3.992-3.703c-0.293-24.73-0.453-49.462-0.723-74.191c-0.011-0.997-0.439-2.271-1.133-2.937
			c-7.995-7.666-15.985-15.341-24.163-22.81c-10.75-9.819-21.757-19.357-32.487-29.199c-10.911-10.008-21.563-20.297-32.434-30.349
			c-9.398-8.692-18.946-17.223-28.428-25.826c-9.035-8.197-18.114-16.349-27.067-24.635c-1.74-1.611-2.977-1.135-4.583-0.059
			c-8.562,5.736-17.146,11.442-25.745,17.123c-7.572,5.002-15.229,9.875-22.751,14.951c-11.62,7.841-23.131,15.844-34.737,23.707
			c-9.159,6.206-18.418,12.265-27.582,18.464c-8.748,5.917-17.314,12.11-26.198,17.813c-3.613,2.319-4.909,4.951-4.832,9.18
			c0.354,19.449,0.413,38.902,0.581,58.354c0.146,16.853,0.381,33.704,0.363,50.557c-0.004,3.098,1.089,3.838,3.88,3.786
			c8.615-0.157,17.233-0.19,25.85-0.193C109.841,463.005,148.567,463.014,187.293,463.014z M325.874,167.591
			c-0.205-7.757,4.062-13.966,4.465-21.273c-1.358,1.298-2.718,2.595-4.726,4.512c0-34.087,0-67.371,0-101.317
			c1.883,1.585,3.371,2.838,4.857,4.09c0.275-0.159,0.551-0.318,0.825-0.477c-2.112-6.056-4.225-12.111-6.354-18.219
			c1.806-0.558,2.837-0.876,3.867-1.194c-0.041-0.28-0.081-0.56-0.122-0.84c-2.248,0-4.496,0-6.195,0
			c-0.144,2.078,0.027,3.802-0.428,5.339c-1.134,3.825-2.578,7.557-3.843,11.345c-0.385,1.151-0.592,2.362-0.88,3.545
			c0.264,0.101,0.527,0.202,0.791,0.303c1.407-1.232,2.814-2.464,4.79-4.191c0,34.132,0,67.458,0,101.253
			c-1.896-1.45-3.445-2.636-5.795-4.434c1.71,7.837,6.201,13.842,5.651,21.393C323.689,167.476,324.866,167.538,325.874,167.591z
			 M94.244,489.122c0,1.908-0.097,3.869,0.024,5.816c0.163,2.634,1.357,4.603,4.248,4.689c7.99,0.24,7.993,0.192,7.911-8.04
			c-0.01-0.996,0.174-2.058-0.107-2.972c-0.278-0.904-1.034-1.662-1.58-2.483c-0.728,0.803-1.868,1.507-2.088,2.431
			c-0.337,1.407,0.299,3.068-0.11,4.434c-0.354,1.186-1.584,2.108-2.428,3.146c-0.678-1.006-1.702-1.935-1.95-3.037
			c-0.348-1.545,0.102-3.269-0.229-4.822c-0.171-0.803-1.252-1.947-1.989-1.999c-2.71-0.194-5.479,0.274-8.167-0.023
			c-2.544-0.281-3.096,0.832-3.063,2.925c0.037,2.366-0.153,4.759,0.149,7.089c0.15,1.154,1.181,2.194,1.814,3.286
			c0.692-1.038,2.059-2.147,1.959-3.103C88.208,492.372,89.073,489.5,94.244,489.122z M251.7,488.974
			c0.175,2.633,0.206,5.289,0.604,7.889c0.144,0.943,1.162,1.753,1.781,2.624c0.705-0.811,1.893-1.555,2.017-2.446
			c0.269-1.944-0.052-3.964-0.045-5.952c0.017-4.219-1.962-5.814-6.151-5.017c-1.153,0.22-2.415,0.387-3.54,0.156
			c-7.56-1.546-8.786-0.597-8.688,6.956c0.017,1.246-0.213,2.537,0.048,3.725c0.196,0.89,0.997,1.647,1.528,2.464
			c0.71-0.801,1.881-1.522,2.032-2.418c0.328-1.937-0.03-3.982,0.233-5.938c0.101-0.75,1.127-1.375,1.732-2.057
			c0.546,0.698,1.419,1.334,1.565,2.108c0.275,1.445,0.166,2.971,0.15,4.463c-0.017,1.676-0.748,3.939,1.993,3.735
			c0.655-0.048,1.46-2.351,1.634-3.689C248.897,493.252,247.948,490.636,251.7,488.974z M180.187,486.047
			c-0.697,0-1.636-0.251-2.341,0.049c-1.815,0.773-4.693,1.487-5.03,2.777c-0.658,2.519-0.417,5.61,0.478,8.096
			c0.81,2.25,3.153,3.354,5.861,2.016c0.573-0.283,1.465-0.209,2.113,0c2.613,0.846,3.415-0.354,3.396-2.741
			c-0.027-3.362,0.192-6.739-0.06-10.082c-0.129-1.719-0.826-4.694-1.652-4.835C179.316,480.708,181.316,484.246,180.187,486.047z
			 M142.36,485.454c-1.493,0.723-3.077,1.313-4.429,2.241c-0.452,0.311-0.312,1.483-0.442,2.261c0.685,0.075,1.383,0.27,2.053,0.199
			c1.367-0.142,2.718-0.427,4.076-0.653c-1.309,0.806-2.828,1.406-3.873,2.471c-1.228,1.251-2.774,2.861-2.866,4.395
			c-0.132,2.2,1.756,3.42,4.111,3.282c2.213-0.128,5.474,0.491,6.372-0.679c1.152-1.5,0.412-4.46,0.467-6.791
			c0.012-0.495-0.105-0.995-0.085-1.488C147.895,487.08,145.865,485.85,142.36,485.454z M109.047,492.837c-0.055,0-0.11,0-0.165,0
			c0,1.494-0.217,3.034,0.083,4.465c0.173,0.826,1.181,1.477,1.813,2.206c0.704-0.766,1.857-1.447,2.019-2.313
			c0.36-1.925,0.004-3.986,0.39-5.902c0.164-0.813,1.457-1.398,2.237-2.087c0.646,0.779,1.714,1.494,1.848,2.354
			c0.261,1.685-0.255,3.498,0.053,5.165c0.189,1.021,1.313,1.869,2.017,2.794c0.649-0.842,1.574-1.599,1.871-2.551
			c0.317-1.017,0.031-2.218,0.025-3.338c-0.041-7.215-0.438-7.583-7.513-7.047c-0.477,0.035-0.993-0.047-1.449-0.197
			c-2.575-0.85-3.477,0.185-3.249,2.721C109.139,490.34,109.047,491.593,109.047,492.837z M162.444,495.756
			c-0.013-0.581-0.026-1.161-0.04-1.741c1.313-0.127,2.662-0.107,3.928-0.42c1.302-0.32,2.525-0.964,3.782-1.466
			c-0.675-1.67-0.946-3.736-2.112-4.923c-2.118-2.155-7.08-1.296-8.638,1.093c-2.314,3.548-1.168,8.936,2.308,10.857
			c2.723,1.504,5.901,0.096,7.827-3.802C167.001,495.496,164.723,495.626,162.444,495.756z M342.939,418.367
			c-0.272,2.521-0.301,4.479-0.726,6.349c-0.69,3.038-1.66,6.013-2.475,9.025c-0.762,2.821,1.075,5.135,4.007,5.098
			c3.366-0.042,7.803-4.859,8.058-8.751c0.226-3.44-1.252-4.59-6.637-5.073c0.289-1.2,0.66-2.376,0.836-3.579
			c0.146-1.005,0.064-2.045,0.083-3.068C344.939,418.367,343.794,418.367,342.939,418.367z M74.125,486.703
			c0,2.391-0.184,5.858,0.095,9.288c0.104,1.28,1.146,3.397,2.01,3.531c2.617,0.405,1.867-1.926,1.894-3.388
			c0.045-2.486-0.031-4.975-0.089-7.461c-0.047-2.033,0.09-3.697,2.914-3.619c0.753,0.021,1.544-1.353,2.318-2.087
			c-0.844-0.528-1.646-1.401-2.542-1.514c-1.961-0.247-3.997-0.313-5.953-0.066c-1.984,0.252-3.91,0.97-5.861,1.483
			C70.407,483.971,71.903,485.07,74.125,486.703z M227.607,489.863c0.141-0.447,0.28-0.895,0.42-1.342
			c2.156,0.595,4.313,1.189,7.148,1.972c-1.872-4.426-5.241-5.645-8.985-3.875c-1.059,0.5-2.328,1.796-2.398,2.803
			c-0.072,1.047,0.948,2.537,1.922,3.207c1.639,1.126,3.618,1.757,5.454,2.597c-0.078,0.313-0.155,0.623-0.233,0.935
			c-2.364-0.408-4.729-0.815-7.095-1.225c-0.192,0.647-0.385,1.296-0.577,1.943c2.251,0.911,4.435,2.275,6.769,2.619
			c2.945,0.435,4.688-1.811,5.143-4.422c0.489-2.813-1.854-3.352-4.035-3.851C229.922,490.946,228.782,490.328,227.607,489.863z
			 M135.316,493.983c-1.971,0.609-3.058,1.063-4.191,1.263c-1.055,0.185-2.158,0.098-3.24,0.129
			c-0.013-1.867-0.026-3.734-0.04-5.601c0.955,0.027,1.923-0.039,2.859,0.105c1.246,0.192,2.468,0.549,4.247,0.962
			c-1.141-4.916-4.123-5.155-7.181-4.771c-3.917,0.491-4.242,3.819-4.535,6.767c-0.285,2.873,2.363,6.464,4.825,6.798
			C131.421,500.089,133.837,498.793,135.316,493.983z M332.188,93.495c0.208,10.772,0.21,10.813,10.084,10.211
			c0.987-0.06,1.92-1.008,2.878-1.544c-0.898-0.587-1.729-1.382-2.714-1.7c-0.906-0.292-1.992-0.173-2.975-0.052
			c-2.718,0.337-3.521-0.895-3.342-3.466c0.189-2.734,0.202-5.503-0.035-8.229c-0.078-0.897-1.177-1.705-1.809-2.554
			c-0.696,0.902-1.817,1.727-1.995,2.721C331.955,90.698,332.188,92.612,332.188,93.495z M33.19,406.397
			c-0.938,0-1.797,0.089-2.633-0.015c-5.471-0.676-10.285,3.878-9.558,9.376c0.15,1.14,1.565,2.901,2.521,2.986
			c2.304,0.206,4.558-1.866,7.109-0.399c0.181,0.104,1.568-1.081,1.659-1.767C32.717,413.372,32.887,410.13,33.19,406.397z
			 M157.185,487.956c-1.075-2.194-1.973-4.025-3.447-7.032c-1.469,2.747-3.346,4.826-3.587,7.081
			c-0.283,2.648,0.992,5.433,1.338,8.189c0.389,3.106,2.486,3.411,4.86,3.211c0.523-0.044,1.174-0.841,1.394-1.43
			c0.145-0.389-0.245-1.158-0.62-1.53C153.957,493.298,153.998,490.773,157.185,487.956z M208.579,492.826
			c-0.049,0-0.099,0.001-0.147,0.001c0,1.485-0.219,3.018,0.084,4.438c0.174,0.815,1.192,1.451,1.831,2.168
			c0.657-0.731,1.439-1.389,1.922-2.222c0.266-0.458,0.022-1.209,0.016-1.828c-0.027-2.503-0.979-5.454,3.193-5.759
			c0.478-0.034,1.073-1.549,1.148-2.416c0.027-0.319-1.278-1.043-2.008-1.091c-6.012-0.396-6.015-0.361-6.039,5.966
			C208.578,492.331,208.579,492.579,208.579,492.826z M217.803,486.725c0,3.614-0.112,7.067,0.085,10.504
			c0.045,0.784,1.157,1.509,1.777,2.261c0.598-0.779,1.653-1.527,1.709-2.343c0.187-2.723-0.084-5.473,0.007-8.206
			C221.486,485.788,220.088,485.62,217.803,486.725z M296.256,32.724c-0.03,0.363-0.062,0.725-0.092,1.088
			c7.278,0,14.557,0,21.835,0c-0.003-0.363-0.007-0.725-0.01-1.088C310.745,32.724,303.501,32.724,296.256,32.724z M222.368,482.887
			c-1.53-0.855-2.365-1.68-3.171-1.652c-0.573,0.019-1.108,1.184-1.661,1.838c0.758,0.634,1.44,1.551,2.307,1.786
			C220.305,484.984,221.088,483.932,222.368,482.887z"/>
		<path fill-rule="evenodd" clip-rule="evenodd" d="M193.527,504.069c0.018-5.092,0.088-10.186,0.025-15.276
			c-0.026-2.127,0.799-2.995,2.911-2.678c0.72,0.108,1.487,0.218,2.188,0.089c2.901-0.534,5.507-0.494,6.813,2.808
			c1.347,3.403,1.482,6.77-1.683,9.11c-1.49,1.102-3.719,1.202-6.168,1.92c-0.075,0.891-0.206,2.459-0.338,4.027
			C196.027,504.069,194.777,504.069,193.527,504.069z M203.828,492.57c-1.725-1.567-2.874-2.611-4.022-3.655
			c-0.844,1.345-2.272,2.661-2.336,4.042c-0.047,1.004,1.709,2.092,2.662,3.143C201.163,495.114,202.195,494.129,203.828,492.57z"/>
		<path fill-rule="evenodd" clip-rule="evenodd" d="M285.187,166.097c1.17,0.333,1.826,0.521,2.521,0.719
			c-0.19,0.315-0.349,0.704-0.427,0.688c-5.498-1.099-8.235,3.466-11.782,6.022c-5.525,3.981-10.618,8.56-15.904,12.875
			c-7.414,6.054-14.772,12.181-22.314,18.071c-1.445,1.13-3.631,1.844-5.479,1.851c-25.599,0.096-51.198-0.007-76.797,0.025
			c-24.355,0.03-48.711,0.206-73.066,0.231c-19.608,0.021-39.217-0.089-58.826-0.138c-6.779-0.017-6.405,0.145-3.797-6.064
			c3.808-9.069,6.968-18.41,10.49-27.602c5.038-13.146,10.258-26.222,15.197-39.403c3.001-8.012,5.362-16.268,8.47-24.235
			c4.642-11.9,9.819-23.591,14.534-35.463c6.529-16.439,12.834-32.966,19.25-49.45c1.176-3.021,2.17-6.158,3.76-8.951
			c0.665-1.168,2.655-2.213,4.056-2.23c11.236-0.134,22.475,0.026,33.714,0.029c20.1,0.005,40.201-0.063,60.301-0.052
			c18.848,0.011,37.696,0.129,56.545,0.117c12.238-0.007,24.479-0.075,36.715-0.314c3.056-0.06,4.488,0.767,4.945,3.957
			c2.857,19.982,5.879,39.942,8.83,59.912c3.357,22.715,6.644,45.441,10.118,68.138c0.387,2.522-0.304,3.86-2.196,5.341
			c-5.882,4.605-11.609,9.407-17.379,14.155C286.212,164.7,285.894,165.239,285.187,166.097z M284.176,16.53
			c-7.275,2.774-14.036,5.579-20.95,7.932c-8.583,2.92-16.456,7.503-25.134,10.219c-6.53,2.044-12.859,4.733-19.265,7.169
			c-8.249,3.137-16.494,6.286-24.719,9.486c-1.674,0.651-3.134,1.431-2.324,3.872c2.275,6.86,4.91,13.669,6.37,20.712
			c1.42,6.848,4.904,12.884,6.2,19.834c1.634,8.771,4.958,17.239,7.72,25.783c0.882,2.73,2.295,5.288,3.55,8.116
			c0,1.069-0.281,2.658,0.059,4.101c0.715,3.029,1.929,5.942,2.608,8.977c0.563,2.512,1.801,3.691,4.376,3.561
			c1.494-0.075,2.997,0.034,4.495,0.028c15.455-0.062,30.91-0.145,46.366-0.192c9.703-0.028,19.406-0.005,29.804-0.005
			C296.938,102.866,290.597,59.971,284.176,16.53z M187.264,52.438c-31.411-12.132-62.09-23.981-93.244-36.013
			c-0.356,2.216-0.659,4.104-0.948,5.899c-1.064,1.328-2.55,2.562-3.228,4.143c-1.957,4.566-3.541,9.291-5.357,13.918
			c-8.194,20.881-16.458,41.735-24.582,62.644c-1.02,2.625-1.356,5.516-1.818,7.471c-1.487,2.605-2.954,4.566-3.81,6.765
			c-9.185,23.59-18.273,47.219-27.386,70.837c-1.037,2.688-2.062,5.38-3.092,8.07c0.32,0.198,0.64,0.396,0.959,0.595
			c4.696-4.018,9.469-7.949,14.074-12.067c15.779-14.109,31.553-28.225,47.171-42.511c1.874-1.713,5.67-2.879,3.592-6.864
			c1.562-0.091,3.27,0.326,3.926-0.323c2.357-2.327,4.345-5.025,6.505-7.556c0.442-0.517,0.969-1.021,1.56-1.343
			c2.08-1.134,4.431-1.896,6.259-3.334c3.014-2.371,5.661-5.203,8.534-7.76c8.367-7.447,16.771-14.855,24.624-21.805
			c-0.3-1.606-0.49-2.625-0.68-3.645c1.007,0.315,2.014,0.63,3.465,1.084C157.936,78.211,172.317,65.573,187.264,52.438z
			 M22.659,203.534c70.948,0,140.738,0,210.972,0c-1.764-6.038-3.354-11.739-5.098-17.394c-3.438-11.16-7.146-22.242-10.327-33.473
			c-0.906-3.201-2.262-3.757-5.212-3.623c-7.094,0.325-14.202,0.375-21.306,0.374c-15.46-0.003-30.92-0.138-46.38-0.161
			c-15.321-0.022-30.644-0.059-45.964,0.106c-3.651,0.04-8.008-0.251-10.797,1.544c-6.33,4.074-11.854,9.387-17.762,14.127
			c-10.957,8.792-21.956,17.53-32.93,26.3C33.021,195.197,28.205,199.081,22.659,203.534z M91.151,143.498
			c-2.158,0.809-4.113,1.042-5.372,2.101c-5.311,4.467-10.445,9.146-15.583,13.815c-4.076,3.705-8.063,7.508-12.089,11.267
			c0.778,0.297,1.248,0.183,1.583-0.093c8.068-6.641,16.041-13.401,24.228-19.893c2.365-1.875,5.207-3.83,8.055-4.263
			c5.011-0.76,10.195-0.455,15.307-0.456c14.714-0.003,29.428,0.079,44.142,0.1c19.092,0.026,38.186,0.026,57.277,0.036
			c2.42,0.001,4.84,0,8.128,0c-2.241-5.876-4.209-11.036-6.177-16.195c-0.526-1.188-0.183-2.801-0.585-4.198
			c-1.865-6.465-3.814-12.912-5.975-19.285c-1.806-5.328-4.167-10.474-5.859-15.834c-1.088-3.448-1.155-7.209-2.125-10.706
			c-2.285-8.244-4.836-16.414-7.394-24.996c-0.987,0.669-1.633,1.007-2.158,1.479c-10.831,9.719-21.684,19.415-32.43,29.228
			c-1.652,1.509-2.577,3.822-4.246,5.305c-1.488,1.322-3.79,1.72-5.304,3.023c-10.651,9.165-21.306,18.334-31.68,27.808
			c-2.306,2.106-6.431,3.327-5.436,7.791C102.022,129.69,90.562,140.383,91.151,143.498z M220.5,149.24
			c5.337,17.633,10.494,34.673,15.811,52.242c21.604-17.497,42.729-34.608,64.503-52.242
			C273.701,149.24,247.484,149.24,220.5,149.24z M201.489,18.236c-0.017-0.233-0.034-0.467-0.051-0.702
			c0.927-0.082,1.854-0.164,2.782-0.246c-2.825-0.554-6.461-1.555-6.965,2.284c-0.695,5.3-2.397,10.823,0.796,16.081
			c-1.48,0.524-2.681,0.948-3.88,1.373c0.069,0.32,0.139,0.64,0.209,0.96c2.215-0.44,4.767-0.345,6.552-1.469
			c1.861-1.172,4.634-2.532,3.919-6.03c-1.3,0.352-2.308,0.624-3.314,0.897c-0.289-0.259-0.579-0.518-0.869-0.777
			c0.696-0.972,1.245-2.566,2.121-2.772c1.33-0.313,3.633-0.176,4.215,0.669c2.211,3.215,0.854,6.003-2.49,8.09
			c0.234,0.269,0.469,0.537,0.703,0.806c1.572-0.584,3.146-1.168,4.676-1.735c0.716,0.961,1.442,1.938,2.169,2.915
			c-1.204-2.174,1.243-5.693-2.318-6.751c0.505-0.532,1.049-1.552,1.507-1.515c2.282,0.186,4.532,0.757,6.815,0.955
			c0.773,0.067,1.617-0.539,2.402-0.894c0.089-0.041,0.013-0.45,0.013-0.752c-0.999-0.304-1.988-0.605-3.067-0.934
			c0.87-1.262,1.552-2.25,2.743-3.979c-2.199-0.451-3.841-0.788-5.346-1.097c0-0.209,0.277-1.438-0.056-1.634
			c-0.766-0.452-1.959-0.77-2.745-0.489c-3.26,1.16-6.434,2.562-9.958,4.005c0.028-2.545-2.899-5.686,3.147-5.378
			C203.394,19.201,202.441,18.718,201.489,18.236z M190.672,34.641c0.282-0.477,1-1.685,1.729-2.913
			c-4.007-1.568-4.739-0.89-5.389,4.929c-1.42-0.249-2.817-0.494-3.899-0.683c-1.501-2.784,4.854-5.461-0.563-7.89
			c-1.555,2.859-3.684,4.565-6.97,3.564c-4.507-1.374-2.03,5.149-5.551,4.804c0.015,0.453-0.035,0.922,0.066,1.354
			c0.077,0.328,0.346,0.61,1.354,2.272c1.477-2.584,2.586-4.524,3.859-6.751c1.969,3.065,3.268,5.086,4.566,7.108
			c0.245-0.202,0.489-0.402,0.734-0.603c-0.857-2.118-1.714-4.234-2.572-6.353c0.373-0.188,0.745-0.374,1.118-0.562
			c1.425,2.252,2.85,4.503,4.214,6.659c1.295,0.558,2.787,1.199,4.281,1.842c-0.377-0.968-0.746-1.913-1.303-3.342
			c2.046,1.269,3.593,2.228,5.14,3.188c0.362-0.179,0.724-0.358,1.086-0.538C192.043,39.031,191.513,37.333,190.672,34.641z
			 M149.109,20.058c4.537,0.333,8.701,0.639,13.066,0.96c1.991-1.169,4.482-2.632,6.937-4.073c0.208,1.351,0.317,2.055,0.426,2.759
			c0.458-0.42,0.884-0.881,1.379-1.252c0.812-0.609,1.667-1.16,2.597-1.8c-4.044,0-8.034-0.265-11.972,0.073
			C157.367,17.082,152.389,14.454,149.109,20.058z M185.416,27.494c5.053-2.072,8.357-5.486,9.576-11.089
			c-2.112,0.117-4.072,0.188-6.025,0.34c-5.11,0.397-5.63,1.427-3.228,6.559c0.598-0.406,1.168-0.794,2.395-1.628
			C186.993,24.118,186.205,25.806,185.416,27.494z M177.104,22.164c0.987,1.971,1.817,3.63,2.648,5.289
			c-0.278,0.171-0.557,0.342-0.836,0.513c-1.788-1.327-3.601-3.092-5.247,0.553c2.714-1.664,4.222,4.044,6.704,0.912
			c1.545-1.951,2.026-4.745,3.156-7.59C180.605,21.988,178.828,22.078,177.104,22.164z M230.21,27.797
			c3.866,0.138,5.765-1.841,6.526-4.92c-1.029-1.452-1.88-2.651-2.374-3.349C233.106,22.031,231.778,24.674,230.21,27.797z
			 M229.365,16.303c-3.157,0.971-6.073,1.867-8.989,2.762c0.012,0.263,0.022,0.525,0.034,0.788c3.162,0,6.324,0,9.425,0
			C229.737,19.111,229.599,18.062,229.365,16.303z M167.815,28.749c0.419-2.496,0.769-4.58,1.309-7.793
			c-2.096,0.999-3.846,1.832-5.885,2.804C164.992,25.672,166.089,26.868,167.815,28.749z M228.535,33.771
			c3.117-0.986,6.089-1.926,9.061-2.866C228.874,29.549,229.269,29.034,228.535,33.771z M221.006,25.668
			c2.329,1.989,4.188,3.578,6.047,5.165c0.393-0.365,0.784-0.73,1.176-1.096c-1.404-1.951-2.809-3.903-4.39-6.1
			C222.919,24.296,222.086,24.895,221.006,25.668z M202.147,43.256c0.373,0.18,0.745,0.359,1.118,0.539
			c1.721-0.675,3.441-1.35,5.162-2.025c-0.044-0.436-0.088-0.873-0.133-1.309c-1.248,0-2.659-0.363-3.697,0.104
			C203.582,41.021,202.949,42.325,202.147,43.256z"/>
		<path fill-rule="evenodd" clip-rule="evenodd" d="M187.293,463.014c-38.726,0-77.452-0.009-116.178,0.009
			c-8.617,0.003-17.235,0.036-25.85,0.193c-2.791,0.052-3.884-0.688-3.88-3.786c0.018-16.853-0.218-33.704-0.363-50.557
			c-0.168-19.452-0.226-38.905-0.581-58.354c-0.077-4.229,1.218-6.86,4.832-9.18c8.884-5.702,17.45-11.896,26.198-17.813
			c9.164-6.199,18.423-12.258,27.582-18.464c11.605-7.863,23.117-15.866,34.737-23.707c7.521-5.076,15.179-9.949,22.751-14.951
			c8.6-5.681,17.183-11.387,25.745-17.123c1.606-1.076,2.843-1.552,4.583,0.059c8.953,8.287,18.032,16.438,27.067,24.635
			c9.481,8.604,19.029,17.134,28.428,25.826c10.871,10.052,21.522,20.341,32.434,30.349c10.73,9.842,21.737,19.38,32.487,29.199
			c8.178,7.469,16.168,15.144,24.163,22.81c0.693,0.665,1.122,1.939,1.133,2.937c0.27,24.729,0.43,49.461,0.723,74.191
			c0.036,3.055-1.106,3.71-3.992,3.703c-40.219-0.088-80.439-0.053-120.658-0.049c-7.12,0.001-14.239,0.001-21.359,0.001
			C187.293,462.966,187.293,462.99,187.293,463.014z M187.069,385.757c-44.898,24.372-89.833,48.765-135.634,73.626
			c91.094,0,181.055,0,271.016,0c0.114-0.304,0.229-0.608,0.343-0.913C277.507,434.207,232.221,409.945,187.069,385.757z
			 M44.187,346.826c0,37.446,0,74.657,0,112.893c5.838-3.17,10.727-5.792,15.583-8.469c12.531-6.905,25.009-13.906,37.581-20.735
			c12.467-6.772,25.042-13.347,37.535-20.074c10.384-5.592,20.714-11.282,31.071-16.926c5.12-2.79,10.327-5.435,15.304-8.459
			c1.149-0.698,2.061-2.647,2.146-4.076c0.252-4.226-0.041-8.481,0.034-12.722c0.043-2.479-0.858-3.383-3.438-3.671
			c-12.891-1.44-25.764-3.05-38.624-4.753c-19.17-2.538-38.322-5.213-57.484-7.813c-11.105-1.507-22.214-2.988-33.323-4.464
			C48.378,347.267,46.174,347.052,44.187,346.826z M326.723,381.246c-47.357-43.416-93.886-86.071-140.783-129.065
			c0,37.476,0,73.985,0,110.299C232.864,368.734,279.202,374.912,326.723,381.246z M182.659,361.826c0-36.537,0-72.486,0-109.447
			c-45.831,30.846-90.811,61.118-136.386,91.791C92.157,350.11,137.264,355.95,182.659,361.826z M329.904,459.082
			c0.267-1.063,0.49-1.532,0.486-1.998c-0.149-23.353-0.346-46.704-0.445-70.057c-0.01-2.466-1.256-2.782-3.249-2.977
			c-6.458-0.629-12.914-1.317-19.345-2.181c-15.429-2.073-30.843-4.265-46.264-6.397c-11.366-1.571-22.733-3.134-34.103-4.684
			c-10.256-1.398-20.513-2.788-30.774-4.152c-3.181-0.423-6.375-0.748-10.023-1.172c0,5.367-0.075,10.446,0.092,15.518
			c0.021,0.649,1.211,1.425,2.012,1.86c8.3,4.521,16.61,9.018,24.955,13.453c12.747,6.774,25.544,13.452,38.277,20.25
			c11.948,6.379,23.861,12.825,35.752,19.31c9.51,5.185,18.949,10.496,28.448,15.701
			C320.293,454.061,324.927,456.446,329.904,459.082z"/>
		<path fill-rule="evenodd" clip-rule="evenodd" d="M325.874,167.591c-1.008-0.053-2.185-0.116-3.096-0.164
			c0.55-7.551-3.941-13.555-5.651-21.393c2.35,1.798,3.898,2.984,5.795,4.434c0-33.795,0-67.121,0-101.253
			c-1.976,1.728-3.383,2.959-4.79,4.191c-0.264-0.101-0.527-0.202-0.791-0.303c0.288-1.184,0.495-2.394,0.88-3.545
			c1.265-3.788,2.709-7.52,3.843-11.345c0.455-1.538,0.284-3.262,0.428-5.339c1.699,0,3.947,0,6.195,0
			c0.041,0.28,0.081,0.56,0.122,0.84c-1.03,0.318-2.062,0.636-3.867,1.194c2.13,6.108,4.242,12.163,6.354,18.219
			c-0.274,0.159-0.55,0.318-0.825,0.477c-1.486-1.252-2.975-2.505-4.857-4.09c0,33.946,0,67.229,0,101.317
			c2.008-1.917,3.367-3.214,4.726-4.512C329.936,153.625,325.669,159.834,325.874,167.591z"/>
		<path fill-rule="evenodd" clip-rule="evenodd" d="M94.244,489.122c-5.17,0.378-6.035,3.25-5.606,7.337
			c0.1,0.955-1.267,2.064-1.959,3.103c-0.633-1.092-1.664-2.132-1.814-3.286c-0.302-2.33-0.112-4.723-0.149-7.089
			c-0.033-2.093,0.519-3.206,3.063-2.925c2.689,0.298,5.457-0.171,8.167,0.023c0.737,0.052,1.818,1.196,1.989,1.999
			c0.331,1.554-0.119,3.277,0.229,4.822c0.249,1.103,1.272,2.031,1.95,3.037c0.843-1.038,2.073-1.961,2.428-3.146
			c0.409-1.365-0.227-3.026,0.11-4.434c0.22-0.924,1.36-1.628,2.088-2.431c0.546,0.821,1.302,1.579,1.58,2.483
			c0.281,0.914,0.097,1.976,0.107,2.972c0.082,8.232,0.079,8.28-7.911,8.04c-2.891-0.087-4.085-2.056-4.248-4.689
			C94.147,492.991,94.244,491.03,94.244,489.122z"/>
		<path fill-rule="evenodd" clip-rule="evenodd" d="M251.7,488.974c-3.752,1.662-2.803,4.278-3.106,6.604
			c-0.174,1.339-0.979,3.642-1.634,3.689c-2.741,0.204-2.01-2.06-1.993-3.735c0.016-1.492,0.125-3.018-0.15-4.463
			c-0.146-0.774-1.02-1.41-1.565-2.108c-0.605,0.682-1.632,1.307-1.732,2.057c-0.264,1.955,0.095,4.001-0.233,5.938
			c-0.151,0.896-1.322,1.617-2.032,2.418c-0.531-0.816-1.332-1.574-1.528-2.464c-0.261-1.188-0.031-2.479-0.048-3.725
			c-0.098-7.553,1.129-8.502,8.688-6.956c1.125,0.23,2.387,0.063,3.54-0.156c4.189-0.798,6.168,0.798,6.151,5.017
			c-0.007,1.988,0.313,4.008,0.045,5.952c-0.124,0.892-1.312,1.636-2.017,2.446c-0.619-0.871-1.638-1.681-1.781-2.624
			C251.906,494.263,251.875,491.606,251.7,488.974z"/>
		<path fill-rule="evenodd" clip-rule="evenodd" d="M180.187,486.047c1.129-1.801-0.871-5.339,2.764-4.721
			c0.826,0.141,1.523,3.116,1.652,4.835c0.252,3.343,0.033,6.72,0.06,10.082c0.02,2.387-0.782,3.587-3.396,2.741
			c-0.648-0.209-1.541-0.283-2.113,0c-2.708,1.338-5.051,0.234-5.861-2.016c-0.895-2.485-1.136-5.577-0.478-8.096
			c0.337-1.29,3.215-2.004,5.03-2.777C178.551,485.796,179.49,486.047,180.187,486.047z M174.546,492.685
			c1.6,1.442,2.708,2.44,3.816,3.439c0.808-1.048,2.413-2.246,2.249-3.108c-0.292-1.539-1.652-2.875-2.566-4.296
			C177.075,489.819,176.105,490.919,174.546,492.685z"/>
		<path fill-rule="evenodd" clip-rule="evenodd" d="M142.36,485.454c3.505,0.396,5.535,1.626,5.384,5.237
			c-0.021,0.493,0.097,0.993,0.085,1.488c-0.056,2.331,0.685,5.291-0.467,6.791c-0.898,1.17-4.159,0.551-6.372,0.679
			c-2.355,0.138-4.243-1.082-4.111-3.282c0.092-1.533,1.638-3.144,2.866-4.395c1.045-1.064,2.564-1.665,3.873-2.471
			c-1.358,0.227-2.709,0.512-4.076,0.653c-0.67,0.07-1.368-0.124-2.053-0.199c0.131-0.777-0.01-1.95,0.442-2.261
			C139.283,486.768,140.867,486.177,142.36,485.454z"/>
		<path fill-rule="evenodd" clip-rule="evenodd" d="M109.047,492.837c0-1.244,0.092-2.497-0.019-3.731
			c-0.229-2.536,0.673-3.57,3.249-2.721c0.457,0.15,0.972,0.232,1.449,0.197c7.075-0.536,7.472-0.168,7.513,7.047
			c0.006,1.12,0.292,2.321-0.025,3.338c-0.297,0.952-1.222,1.709-1.871,2.551c-0.704-0.925-1.828-1.773-2.017-2.794
			c-0.309-1.667,0.208-3.48-0.053-5.165c-0.133-0.859-1.202-1.574-1.848-2.354c-0.78,0.688-2.073,1.274-2.237,2.087
			c-0.386,1.916-0.03,3.978-0.39,5.902c-0.162,0.866-1.315,1.548-2.019,2.313c-0.632-0.729-1.641-1.38-1.813-2.206
			c-0.3-1.431-0.083-2.971-0.083-4.465C108.937,492.837,108.992,492.837,109.047,492.837z"/>
		<path fill-rule="evenodd" clip-rule="evenodd" d="M162.444,495.756c2.279-0.13,4.557-0.26,7.055-0.401
			c-1.925,3.897-5.104,5.306-7.827,3.802c-3.477-1.922-4.622-7.31-2.308-10.857c1.558-2.389,6.521-3.248,8.638-1.093
			c1.166,1.187,1.438,3.253,2.112,4.923c-1.257,0.502-2.48,1.146-3.782,1.466c-1.267,0.313-2.616,0.293-3.928,0.42
			C162.418,494.595,162.431,495.175,162.444,495.756z"/>
		<path fill-rule="evenodd" clip-rule="evenodd" d="M342.939,418.367c0.854,0,2,0,3.146,0c-0.019,1.023,0.063,2.063-0.083,3.068
			c-0.176,1.203-0.547,2.379-0.836,3.579c5.385,0.483,6.862,1.633,6.637,5.073c-0.255,3.892-4.691,8.709-8.058,8.751
			c-2.932,0.037-4.769-2.276-4.007-5.098c0.814-3.013,1.784-5.987,2.475-9.025C342.639,422.846,342.667,420.888,342.939,418.367z
			 M341.586,436.145c5.019-0.29,7.1-2.272,6.983-5.722c-0.03-0.885-0.476-2.119-1.133-2.499c-0.487-0.282-2.035,0.318-2.396,0.941
			C343.819,430.971,342.916,433.261,341.586,436.145z"/>
		<path fill-rule="evenodd" clip-rule="evenodd" d="M74.125,486.703c-2.222-1.633-3.718-2.732-5.215-3.832
			c1.951-0.514,3.877-1.231,5.861-1.483c1.956-0.247,3.992-0.181,5.953,0.066c0.896,0.112,1.698,0.985,2.542,1.514
			c-0.774,0.734-1.565,2.107-2.318,2.087c-2.824-0.078-2.961,1.586-2.914,3.619c0.058,2.486,0.134,4.975,0.089,7.461
			c-0.026,1.462,0.723,3.793-1.894,3.388c-0.863-0.134-1.906-2.251-2.01-3.531C73.941,492.562,74.125,489.094,74.125,486.703z"/>
		<path fill-rule="evenodd" clip-rule="evenodd" d="M227.607,489.863c1.175,0.465,2.314,1.083,3.531,1.361
			c2.182,0.499,4.524,1.038,4.035,3.851c-0.454,2.611-2.197,4.856-5.143,4.422c-2.334-0.344-4.518-1.708-6.769-2.619
			c0.192-0.647,0.385-1.296,0.577-1.943c2.365,0.409,4.73,0.816,7.095,1.225c0.078-0.312,0.155-0.622,0.233-0.935
			c-1.836-0.84-3.815-1.471-5.454-2.597c-0.974-0.67-1.994-2.16-1.922-3.207c0.07-1.007,1.34-2.303,2.398-2.803
			c3.744-1.77,7.113-0.551,8.985,3.875c-2.836-0.782-4.992-1.377-7.148-1.972C227.888,488.969,227.748,489.416,227.607,489.863z"/>
		<path fill-rule="evenodd" clip-rule="evenodd" d="M135.316,493.983c-1.479,4.81-3.895,6.105-7.255,5.651
			c-2.461-0.334-5.11-3.925-4.825-6.798c0.293-2.947,0.619-6.275,4.535-6.767c3.058-0.384,6.04-0.145,7.181,4.771
			c-1.779-0.413-3-0.77-4.247-0.962c-0.936-0.145-1.905-0.078-2.859-0.105c0.013,1.866,0.026,3.733,0.04,5.601
			c1.082-0.031,2.185,0.056,3.24-0.129C132.258,495.047,133.345,494.593,135.316,493.983z"/>
		<path fill-rule="evenodd" clip-rule="evenodd" d="M332.188,93.495c0-0.883-0.232-2.797,0.093-4.612
			c0.178-0.994,1.299-1.819,1.995-2.721c0.632,0.849,1.73,1.657,1.809,2.554c0.237,2.726,0.225,5.495,0.035,8.229
			c-0.179,2.571,0.624,3.803,3.342,3.466c0.982-0.122,2.068-0.24,2.975,0.052c0.984,0.317,1.815,1.113,2.714,1.7
			c-0.958,0.536-1.891,1.484-2.878,1.544C332.397,104.308,332.396,104.267,332.188,93.495z"/>
		<path fill-rule="evenodd" clip-rule="evenodd" d="M33.19,406.397c-0.303,3.732-0.473,6.975-0.901,10.182
			c-0.091,0.686-1.479,1.871-1.659,1.767c-2.552-1.467-4.806,0.605-7.109,0.399c-0.956-0.085-2.371-1.847-2.521-2.986
			c-0.727-5.498,4.087-10.052,9.558-9.376C31.393,406.486,32.252,406.397,33.19,406.397z M24.467,416.191
			c3.528-0.536,4.566-3.182,5.248-5.978c0.148-0.607-0.482-1.683-1.068-2.09c-0.366-0.255-1.643,0.122-1.957,0.589
			C25.225,410.888,23.053,412.932,24.467,416.191z"/>
		<path fill-rule="evenodd" clip-rule="evenodd" d="M157.185,487.956c-3.187,2.817-3.228,5.342-0.063,8.489
			c0.375,0.372,0.765,1.142,0.62,1.53c-0.22,0.589-0.871,1.386-1.394,1.43c-2.374,0.2-4.471-0.104-4.86-3.211
			c-0.346-2.757-1.621-5.541-1.338-8.189c0.241-2.255,2.118-4.334,3.587-7.081C155.212,483.931,156.11,485.762,157.185,487.956z"/>
		<path fill-rule="evenodd" clip-rule="evenodd" d="M208.579,492.826c0-0.247-0.001-0.495,0-0.742
			c0.024-6.327,0.027-6.362,6.039-5.966c0.729,0.048,2.035,0.771,2.008,1.091c-0.075,0.867-0.671,2.382-1.148,2.416
			c-4.172,0.305-3.221,3.256-3.193,5.759c0.007,0.619,0.25,1.37-0.016,1.828c-0.482,0.833-1.265,1.49-1.922,2.222
			c-0.639-0.717-1.657-1.353-1.831-2.168c-0.303-1.421-0.084-2.953-0.084-4.438C208.48,492.827,208.53,492.826,208.579,492.826z"/>
		<path fill-rule="evenodd" clip-rule="evenodd" d="M217.803,486.725c2.285-1.104,3.684-0.937,3.578,2.216
			c-0.091,2.733,0.18,5.483-0.007,8.206c-0.056,0.815-1.111,1.563-1.709,2.343c-0.62-0.752-1.732-1.477-1.777-2.261
			C217.69,493.792,217.803,490.339,217.803,486.725z"/>
		<path fill-rule="evenodd" clip-rule="evenodd" d="M296.256,32.724c7.245,0,14.489,0,21.733,0c0.003,0.363,0.007,0.725,0.01,1.088
			c-7.278,0-14.557,0-21.835,0C296.194,33.449,296.226,33.087,296.256,32.724z"/>
		<path fill-rule="evenodd" clip-rule="evenodd" d="M222.368,482.887c-1.28,1.045-2.063,2.098-2.525,1.972
			c-0.866-0.235-1.549-1.152-2.307-1.786c0.553-0.654,1.088-1.819,1.661-1.838C220.003,481.207,220.838,482.031,222.368,482.887z"/>
		<path fill-rule="evenodd" clip-rule="evenodd" fill="#FFFFFF" d="M203.828,492.57c-1.633,1.559-2.665,2.544-3.696,3.529
			c-0.953-1.051-2.709-2.139-2.662-3.143c0.063-1.381,1.492-2.697,2.336-4.042C200.954,489.959,202.104,491.003,203.828,492.57z"/>
		<path fill-rule="evenodd" clip-rule="evenodd" fill="#FFFFFF" d="M284.176,16.53c6.421,43.441,12.762,86.336,19.156,129.592
			c-10.397,0-20.101-0.023-29.804,0.005c-15.456,0.047-30.911,0.13-46.366,0.192c-1.498,0.006-3.001-0.103-4.495-0.028
			c-2.575,0.13-3.813-1.048-4.376-3.561c-0.68-3.034-1.894-5.947-2.608-8.977c-0.34-1.442-0.059-3.032-0.059-4.101
			c-1.255-2.828-2.668-5.386-3.55-8.116c-2.762-8.544-6.086-17.011-7.72-25.783c-1.296-6.95-4.78-12.987-6.2-19.834
			c-1.46-7.043-4.095-13.852-6.37-20.712c-0.81-2.441,0.65-3.221,2.324-3.872c8.225-3.201,16.47-6.349,24.719-9.486
			c6.405-2.437,12.734-5.125,19.265-7.169c8.678-2.716,16.551-7.299,25.134-10.219C270.14,22.108,276.9,19.304,284.176,16.53z"/>
		<path fill-rule="evenodd" clip-rule="evenodd" fill="#FFFFFF" d="M187.264,52.438c-14.946,13.135-29.328,25.773-43.474,38.206
			c-1.451-0.454-2.458-0.769-3.465-1.084c0.19,1.02,0.38,2.039,0.68,3.645c-7.854,6.949-16.257,14.357-24.624,21.805
			c-2.874,2.557-5.52,5.389-8.534,7.76c-1.829,1.438-4.18,2.201-6.259,3.334c-0.59,0.322-1.117,0.826-1.56,1.343
			c-2.161,2.53-4.148,5.229-6.505,7.556c-0.656,0.648-2.364,0.232-3.926,0.323c2.078,3.985-1.718,5.151-3.592,6.864
			C70.386,156.475,54.613,170.59,38.833,184.7c-4.605,4.118-9.378,8.049-14.074,12.067c-0.32-0.199-0.64-0.396-0.959-0.595
			c1.031-2.69,2.055-5.382,3.092-8.07c9.113-23.619,18.202-47.247,27.386-70.837c0.856-2.199,2.322-4.16,3.81-6.765
			c0.461-1.955,0.798-4.846,1.818-7.471c8.124-20.909,16.387-41.763,24.582-62.644c1.816-4.628,3.4-9.353,5.357-13.918
			c0.678-1.581,2.164-2.815,3.228-4.143c0.289-1.795,0.592-3.683,0.948-5.899C125.174,28.457,155.853,40.306,187.264,52.438z
			 M91.565,123.645c0.138-1.201,0.434-2.079,0.244-2.835c-0.098-0.392-1.057-0.568-1.626-0.842
			c-0.346,1.264-0.951,2.531-0.929,3.789c0.011,0.643,1.106,1.746,1.779,1.8c1.372,0.111,2.79-0.349,4.189-0.573
			c-0.069-0.394-0.138-0.787-0.207-1.18C94.017,123.757,93.019,123.712,91.565,123.645z"/>
		<path fill-rule="evenodd" clip-rule="evenodd" fill="#FFFFFF" d="M22.659,203.534c5.546-4.453,10.362-8.337,15.196-12.199
			c10.974-8.77,21.974-17.508,32.93-26.3c5.907-4.74,11.432-10.053,17.762-14.127c2.789-1.795,7.146-1.504,10.797-1.544
			c15.32-0.166,30.643-0.129,45.964-0.106c15.46,0.023,30.92,0.158,46.38,0.161c7.104,0.001,14.212-0.049,21.306-0.374
			c2.95-0.135,4.306,0.422,5.212,3.623c3.181,11.231,6.89,22.313,10.327,33.473c1.743,5.655,3.334,11.356,5.098,17.394
			C163.397,203.534,93.606,203.534,22.659,203.534z M164.971,163.615c-0.322,0.022-0.644,0.044-0.966,0.066
			c-3.867,5.12-7.76,10.22-11.572,15.379c-0.604,0.818-0.882,1.896-1.173,2.894c-0.026,0.089,1.22,0.825,1.446,0.663
			c0.885-0.635,1.949-1.375,2.308-2.319c1.106-2.904,2.735-4.26,6.185-2.819c-0.49,1.575-0.942,3.03-1.43,4.599
			c2.103,0,3.95,0,5.202,0C164.971,175.684,164.971,169.65,164.971,163.615z M169.288,187.352c1.694-0.835,3.629-1.17,3.919-2.047
			c0.958-2.905,1.44-5.99,1.835-9.042c0.104-0.804-0.764-1.734-1.186-2.607c-0.572,0.686-1.442,1.286-1.664,2.071
			C171.229,179.135,170.454,182.595,169.288,187.352z"/>
		<path fill-rule="evenodd" clip-rule="evenodd" fill="#FFFFFF" d="M91.151,143.498c-0.589-3.115,10.871-13.808,16.309-13.965
			c-0.995-4.464,3.13-5.685,5.436-7.791c10.374-9.474,21.029-18.643,31.68-27.808c1.514-1.303,3.815-1.702,5.304-3.023
			c1.668-1.482,2.593-3.796,4.246-5.305c10.746-9.813,21.599-19.509,32.43-29.228c0.525-0.472,1.171-0.81,2.158-1.479
			c2.558,8.582,5.108,16.752,7.394,24.996c0.97,3.497,1.037,7.258,2.125,10.706c1.692,5.36,4.054,10.506,5.859,15.834
			c2.16,6.373,4.109,12.819,5.975,19.285c0.402,1.397,0.059,3.011,0.585,4.198c1.968,5.16,3.936,10.319,6.177,16.195
			c-3.288,0-5.708,0.001-8.128,0c-19.092-0.01-38.185-0.01-57.277-0.036c-14.714-0.021-29.428-0.103-44.142-0.1
			c-5.112,0.001-10.296-0.305-15.307,0.456c-2.849,0.433-5.69,2.388-8.055,4.263c-8.187,6.492-16.16,13.251-24.228,19.893
			c-0.336,0.276-0.805,0.39-1.583,0.093c4.026-3.759,8.013-7.563,12.089-11.267c5.138-4.669,10.272-9.348,15.583-13.815
			C87.039,144.54,88.994,144.307,91.151,143.498z M180.153,109.924c0.532,0.229,1.064,0.458,1.597,0.686
			c-0.546,1.874-1.184,3.728-1.6,5.63c-0.205,0.938,0,1.964,0.019,2.95c0.793-0.721,1.769-1.32,2.345-2.186
			c1.545-2.317,2.919-4.75,4.36-7.136c0.377,0.206,0.755,0.411,1.132,0.617c-0.615,1.961-1.429,3.89-1.76,5.898
			c-0.154,0.931,0.629,2.017,0.986,3.033c0.993-0.733,2.56-1.283,2.865-2.237c0.701-2.187,0.83-4.567,1.114-6.878
			c0.354-2.869-1.209-4.051-3.779-2.868c-0.756,0.347-1.428,0.875-2.139,1.322c-0.021-0.391-0.042-0.78-0.063-1.171
			c-3.235-0.147-6.471-0.294-9.029-0.411c-0.869,3.518-1.655,6.348-2.229,9.221c-0.177,0.889,0.223,1.894,0.358,2.845
			c0.695-0.694,1.577-1.281,2.047-2.103C177.727,114.783,178.907,112.335,180.153,109.924z M170.4,101.475
			c-0.346-0.12-0.692-0.24-1.038-0.359c-4.469,5.841-8.937,11.682-13.9,18.169c2.15,0,3.305,0,4.436,0
			c0.507-4.938,2.213-6.061,6.701-4.311c-0.514,1.308-1.026,2.613-1.612,4.107c2.037,0,3.845,0,4.564,0
			C169.848,112.919,170.124,107.197,170.4,101.475z"/>
		<path fill-rule="evenodd" clip-rule="evenodd" fill="#FFFFFF" d="M220.5,149.24c26.984,0,53.201,0,80.313,0
			c-21.773,17.634-42.899,34.745-64.503,52.242C230.994,183.914,225.837,166.874,220.5,149.24z"/>
		<path fill-rule="evenodd" clip-rule="evenodd" fill="#FFFFFF" d="M201.489,18.236c0.952,0.482,1.904,0.965,3.71,1.88
			c-6.047-0.308-3.119,2.833-3.147,5.378c3.524-1.444,6.698-2.846,9.958-4.005c0.786-0.281,1.979,0.038,2.745,0.489
			c0.333,0.196,0.056,1.425,0.056,1.634c1.505,0.309,3.146,0.646,5.346,1.097c-1.191,1.729-1.873,2.717-2.743,3.979
			c1.079,0.329,2.068,0.63,3.067,0.934c0,0.303,0.076,0.712-0.013,0.752c-0.785,0.355-1.629,0.961-2.402,0.894
			c-2.283-0.198-4.533-0.769-6.815-0.955c-0.458-0.037-1.002,0.982-1.507,1.515c3.562,1.058,1.114,4.577,2.318,6.751
			c-0.727-0.977-1.453-1.954-2.169-2.915c-1.529,0.567-3.104,1.151-4.676,1.735c-0.234-0.269-0.469-0.537-0.703-0.806
			c3.344-2.087,4.701-4.875,2.49-8.09c-0.582-0.845-2.885-0.982-4.215-0.669c-0.876,0.207-1.425,1.8-2.121,2.772
			c0.29,0.259,0.58,0.518,0.869,0.777c1.007-0.273,2.015-0.546,3.314-0.897c0.715,3.499-2.058,4.858-3.919,6.03
			c-1.785,1.124-4.337,1.028-6.552,1.469c-0.07-0.32-0.14-0.64-0.209-0.96c1.199-0.425,2.399-0.849,3.88-1.373
			c-3.193-5.258-1.491-10.78-0.796-16.081c0.504-3.839,4.14-2.837,6.965-2.284c-0.928,0.082-1.855,0.164-2.782,0.246
			C201.455,17.769,201.473,18.003,201.489,18.236z"/>
		<path fill-rule="evenodd" clip-rule="evenodd" fill="#FFFFFF" d="M190.672,34.641c0.841,2.691,1.371,4.39,1.901,6.088
			c-0.362,0.179-0.724,0.359-1.086,0.538c-1.547-0.96-3.094-1.919-5.14-3.188c0.557,1.429,0.926,2.374,1.303,3.342
			c-1.494-0.643-2.986-1.284-4.281-1.842c-1.364-2.156-2.789-4.407-4.214-6.659c-0.373,0.188-0.745,0.374-1.118,0.562
			c0.857,2.118,1.715,4.235,2.572,6.353c-0.245,0.201-0.49,0.401-0.734,0.603c-1.299-2.022-2.598-4.043-4.566-7.108
			c-1.273,2.227-2.382,4.167-3.859,6.751c-1.007-1.662-1.277-1.944-1.354-2.272c-0.101-0.433-0.051-0.902-0.066-1.354
			c3.521,0.345,1.043-6.177,5.551-4.804c3.286,1.001,5.415-0.705,6.97-3.564c5.417,2.429-0.938,5.106,0.563,7.89
			c1.082,0.189,2.479,0.434,3.899,0.683c0.649-5.818,1.382-6.497,5.389-4.929C191.672,32.957,190.954,34.165,190.672,34.641z"/>
		<path fill-rule="evenodd" clip-rule="evenodd" fill="#FFFFFF" d="M149.109,20.058c3.28-5.604,8.258-2.976,12.432-3.333
			c3.938-0.338,7.928-0.073,11.972-0.073c-0.931,0.64-1.786,1.191-2.597,1.8c-0.495,0.371-0.921,0.832-1.379,1.252
			c-0.109-0.705-0.217-1.409-0.426-2.759c-2.455,1.441-4.946,2.904-6.937,4.073C157.81,20.697,153.646,20.391,149.109,20.058z"/>
		<path fill-rule="evenodd" clip-rule="evenodd" fill="#FFFFFF" d="M185.416,27.494c0.789-1.688,1.577-3.376,2.718-5.818
			c-1.227,0.833-1.797,1.222-2.395,1.628c-2.403-5.132-1.882-6.162,3.228-6.559c1.953-0.152,3.913-0.223,6.025-0.34
			C193.773,22.008,190.469,25.422,185.416,27.494z"/>
		<path fill-rule="evenodd" clip-rule="evenodd" fill="#FFFFFF" d="M177.104,22.164c1.724-0.086,3.501-0.176,6.426-0.323
			c-1.129,2.845-1.61,5.64-3.156,7.59c-2.482,3.132-3.99-2.576-6.704-0.912c1.646-3.646,3.459-1.88,5.247-0.553
			c0.279-0.171,0.558-0.342,0.836-0.513C178.921,25.794,178.091,24.135,177.104,22.164z"/>
		<path fill-rule="evenodd" clip-rule="evenodd" fill="#FFFFFF" d="M230.21,27.797c1.568-3.124,2.896-5.767,4.152-8.269
			c0.494,0.698,1.345,1.897,2.374,3.349C235.975,25.957,234.076,27.935,230.21,27.797z"/>
		<path fill-rule="evenodd" clip-rule="evenodd" fill="#FFFFFF" d="M229.365,16.303c0.233,1.759,0.372,2.808,0.47,3.549
			c-3.101,0-6.263,0-9.425,0c-0.012-0.263-0.022-0.525-0.034-0.788C223.292,18.17,226.208,17.274,229.365,16.303z"/>
		<path fill-rule="evenodd" clip-rule="evenodd" fill="#FFFFFF" d="M167.815,28.749c-1.726-1.881-2.823-3.077-4.576-4.989
			c2.039-0.972,3.789-1.806,5.885-2.804C168.584,24.169,168.234,26.253,167.815,28.749z"/>
		<path fill-rule="evenodd" clip-rule="evenodd" fill="#FFFFFF" d="M228.535,33.771c0.733-4.737,0.339-4.222,9.061-2.866
			C234.624,31.845,231.652,32.785,228.535,33.771z"/>
		<path fill-rule="evenodd" clip-rule="evenodd" fill="#FFFFFF" d="M221.006,25.668c1.08-0.773,1.913-1.372,2.833-2.031
			c1.581,2.197,2.985,4.148,4.39,6.1c-0.392,0.366-0.783,0.731-1.176,1.096C225.194,29.246,223.335,27.657,221.006,25.668z"/>
		<path fill-rule="evenodd" clip-rule="evenodd" fill="#FFFFFF" d="M202.147,43.256c0.802-0.932,1.435-2.235,2.45-2.691
			c1.038-0.468,2.449-0.104,3.697-0.104c0.045,0.436,0.089,0.873,0.133,1.309c-1.721,0.675-3.441,1.35-5.162,2.025
			C202.893,43.615,202.521,43.436,202.147,43.256z"/>
		<path fill-rule="evenodd" clip-rule="evenodd" fill="#FFFFFF" d="M187.069,385.757c45.151,24.188,90.438,48.45,135.725,72.713
			c-0.114,0.305-0.229,0.609-0.343,0.913c-89.961,0-179.922,0-271.016,0C97.236,434.521,142.171,410.129,187.069,385.757z
			 M192.062,427.314c-1.454-1.415-2.969-1.884-3.854,1.465c-0.23,0.873-1.113,1.605-1.778,2.326
			c-2.606,2.817-5.358,5.512-7.804,8.461c-0.743,0.896-1.006,2.518-0.825,3.705c0.081,0.53,1.804,0.809,3.006,1.293
			c0.049-5.256,0.955-6.007,6.22-5.479c-0.328,1.526-0.646,3.011-1.003,4.67c2.007,0,3.974,0,6.038,0
			C192.062,438.326,192.062,433.249,192.062,427.314z"/>
		<path fill-rule="evenodd" clip-rule="evenodd" fill="#FFFFFF" d="M44.187,346.826c1.987,0.226,4.191,0.44,6.385,0.731
			c11.109,1.476,22.218,2.957,33.323,4.464c19.162,2.6,38.313,5.274,57.484,7.813c12.859,1.703,25.733,3.313,38.624,4.753
			c2.58,0.288,3.482,1.191,3.438,3.671c-0.075,4.24,0.218,8.496-0.034,12.722c-0.085,1.429-0.997,3.378-2.146,4.076
			c-4.977,3.024-10.184,5.669-15.304,8.459c-10.356,5.644-20.687,11.334-31.071,16.926c-12.493,6.728-25.068,13.302-37.535,20.074
			c-12.572,6.829-25.05,13.83-37.581,20.735c-4.857,2.677-9.745,5.299-15.583,8.469C44.187,421.483,44.187,384.272,44.187,346.826z"
			/>
		<path fill-rule="evenodd" clip-rule="evenodd" fill="#FFFFFF" d="M326.723,381.246c-47.521-6.334-93.858-12.512-140.783-18.767
			c0-36.313,0-72.823,0-110.299C232.837,295.175,279.365,337.83,326.723,381.246z M203.438,331.26
			c1.752,0.721,2.877,1.268,4.063,1.558c0.139,0.034,1.081-1.766,0.868-1.998c-0.861-0.941-1.982-2.173-3.09-2.263
			c-4.003-0.322-8.894,5.548-8.06,9.5c0.518,2.451,1.94,4.091,4.744,3.622c2.407-0.402,4.527-1.227,5.266-4.818
			c-2.743,0.729-5.119,4.224-6.585,0.622C199.516,334.705,201.236,332.267,203.438,331.26z"/>
		<path fill-rule="evenodd" clip-rule="evenodd" fill="#FFFFFF" d="M182.659,361.826c-45.395-5.876-90.502-11.716-136.386-17.656
			c45.576-30.673,90.555-60.945,136.386-91.791C182.659,289.34,182.659,325.289,182.659,361.826z"/>
		<path fill-rule="evenodd" clip-rule="evenodd" fill="#FFFFFF" d="M329.904,459.082c-4.978-2.636-9.611-5.021-14.181-7.525
			c-9.499-5.205-18.938-10.517-28.448-15.701c-11.891-6.484-23.804-12.931-35.752-19.31c-12.733-6.798-25.53-13.476-38.277-20.25
			c-8.345-4.436-16.655-8.933-24.955-13.453c-0.801-0.436-1.99-1.211-2.012-1.86c-0.167-5.071-0.092-10.15-0.092-15.518
			c3.648,0.424,6.843,0.749,10.023,1.172c10.262,1.364,20.519,2.754,30.774,4.152c11.369,1.55,22.736,3.112,34.103,4.684
			c15.421,2.133,30.835,4.324,46.264,6.397c6.431,0.863,12.887,1.552,19.345,2.181c1.993,0.194,3.239,0.511,3.249,2.977
			c0.1,23.353,0.296,46.704,0.445,70.057C330.395,457.55,330.171,458.019,329.904,459.082z"/>
		<path fill-rule="evenodd" clip-rule="evenodd" fill="#FFFFFF" d="M174.546,492.685c1.559-1.766,2.529-2.865,3.499-3.965
			c0.914,1.421,2.274,2.757,2.566,4.296c0.164,0.862-1.441,2.061-2.249,3.108C177.255,495.125,176.146,494.127,174.546,492.685z"/>
		<path fill-rule="evenodd" clip-rule="evenodd" fill="#FFFFFF" d="M341.586,436.145c1.33-2.884,2.233-5.174,3.455-7.279
			c0.36-0.623,1.908-1.224,2.396-0.941c0.657,0.38,1.103,1.614,1.133,2.499C348.686,433.872,346.604,435.854,341.586,436.145z"/>
		<path fill-rule="evenodd" clip-rule="evenodd" fill="#FFFFFF" d="M24.467,416.191c-1.414-3.26,0.758-5.304,2.223-7.479
			c0.314-0.467,1.591-0.844,1.957-0.589c0.586,0.407,1.216,1.482,1.068,2.09C29.033,413.01,27.995,415.655,24.467,416.191z"/>
		<path fill-rule="evenodd" clip-rule="evenodd" d="M91.565,123.645c1.454,0.067,2.452,0.112,3.45,0.158
			c0.069,0.394,0.138,0.787,0.207,1.18c-1.399,0.224-2.817,0.684-4.189,0.573c-0.673-0.054-1.768-1.157-1.779-1.8
			c-0.022-1.258,0.583-2.525,0.929-3.789c0.57,0.274,1.528,0.45,1.626,0.842C91.999,121.566,91.703,122.444,91.565,123.645z"/>
		<path fill-rule="evenodd" clip-rule="evenodd" d="M164.971,163.615c0,6.035,0,12.068,0,18.462c-1.252,0-3.099,0-5.202,0
			c0.487-1.568,0.94-3.024,1.43-4.599c-3.45-1.44-5.079-0.084-6.185,2.819c-0.359,0.944-1.423,1.685-2.308,2.319
			c-0.227,0.163-1.472-0.574-1.446-0.663c0.291-0.998,0.569-2.076,1.173-2.894c3.812-5.16,7.706-10.26,11.572-15.379
			C164.327,163.659,164.649,163.637,164.971,163.615z"/>
		<path fill-rule="evenodd" clip-rule="evenodd" d="M169.288,187.352c1.166-4.757,1.94-8.217,2.904-11.625
			c0.222-0.785,1.092-1.385,1.664-2.071c0.422,0.873,1.291,1.803,1.186,2.607c-0.395,3.051-0.877,6.137-1.835,9.042
			C172.917,186.182,170.982,186.517,169.288,187.352z"/>
		<path fill-rule="evenodd" clip-rule="evenodd" d="M180.153,109.924c-1.246,2.411-2.426,4.859-3.773,7.211
			c-0.47,0.822-1.353,1.409-2.047,2.103c-0.135-0.952-0.536-1.956-0.358-2.845c0.574-2.873,1.359-5.703,2.229-9.221
			c2.558,0.116,5.793,0.264,9.029,0.411c0.021,0.391,0.042,0.78,0.063,1.171c0.711-0.446,1.383-0.975,2.139-1.322
			c2.57-1.183,4.133-0.001,3.779,2.868c-0.284,2.312-0.413,4.691-1.114,6.878c-0.306,0.954-1.872,1.503-2.865,2.237
			c-0.357-1.016-1.141-2.102-0.986-3.033c0.331-2.008,1.145-3.937,1.76-5.898c-0.377-0.206-0.755-0.411-1.132-0.617
			c-1.441,2.387-2.815,4.819-4.36,7.136c-0.577,0.866-1.552,1.465-2.345,2.186c-0.02-0.986-0.224-2.012-0.019-2.95
			c0.417-1.902,1.054-3.756,1.6-5.63C181.217,110.382,180.685,110.153,180.153,109.924z"/>
		<path fill-rule="evenodd" clip-rule="evenodd" d="M170.4,101.475c-0.276,5.723-0.552,11.445-0.85,17.607c-0.719,0-2.527,0-4.564,0
			c0.586-1.495,1.099-2.8,1.612-4.107c-4.488-1.75-6.194-0.627-6.701,4.311c-1.13,0-2.285,0-4.436,0
			c4.963-6.487,9.431-12.328,13.9-18.169C169.708,101.235,170.054,101.354,170.4,101.475z"/>
		<path fill-rule="evenodd" clip-rule="evenodd" d="M192.062,427.314c0,5.935,0,11.012,0,16.441c-2.064,0-4.031,0-6.038,0
			c0.356-1.659,0.675-3.144,1.003-4.67c-5.265-0.528-6.171,0.223-6.22,5.479c-1.202-0.484-2.925-0.763-3.006-1.293
			c-0.181-1.188,0.082-2.809,0.825-3.705c2.446-2.949,5.198-5.644,7.804-8.461c0.665-0.721,1.548-1.453,1.778-2.326
			C189.093,425.431,190.607,425.899,192.062,427.314z"/>
		<path fill-rule="evenodd" clip-rule="evenodd" d="M203.438,331.26c-2.201,1.007-3.922,3.445-2.793,6.223
			c1.466,3.602,3.842,0.107,6.585-0.622c-0.738,3.592-2.858,4.416-5.266,4.818c-2.804,0.469-4.227-1.171-4.744-3.622
			c-0.834-3.952,4.057-9.822,8.06-9.5c1.107,0.09,2.229,1.321,3.09,2.263c0.213,0.232-0.729,2.032-0.868,1.998
			C206.314,332.527,205.189,331.98,203.438,331.26z"/>
	</g>
</g>
</svg>
