<?xml version="1.0" encoding="utf-8"?>
<!-- Generator: Adobe Illustrator 16.0.0, SVG Export Plug-In . SVG Version: 6.00 Build 0)  -->
<!DOCTYPE svg PUBLIC "-//W3C//DTD SVG 1.1//EN" "http://www.w3.org/Graphics/SVG/1.1/DTD/svg11.dtd">
<svg version="1.1" id="Layer_1" xmlns="http://www.w3.org/2000/svg" xmlns:xlink="http://www.w3.org/1999/xlink" x="0px" y="0px"
	 width="920.379px" height="288.79px" viewBox="0 0 920.379 288.79" enable-background="new 0 0 920.379 288.79"
	 xml:space="preserve">
<g>
	<g>
		<path fill-rule="evenodd" clip-rule="evenodd" fill="#FFFFFF" d="M0.75,289.54c0-96.263,0-192.526,0-288.79
			c306.793,0,613.586,0,920.379,0c0,96.263,0,192.526,0,288.79C614.336,289.54,307.543,289.54,0.75,289.54z M360.014,204.87
			c-5.123,0-9.702-0.039-14.281,0.011c-5.213,0.056-10.436,0.429-15.637,0.219c-4.309-0.175-8.478-0.082-11.264-5.176
			c-3.438-6.286-8.372-11.743-12.51-17.663c-3.823-5.47-7.339-11.155-11.192-16.603c-3.742-5.29-7.802-10.354-11.605-15.603
			c-2.437-3.362-4.586-6.931-6.998-10.313c-3.764-5.279-7.747-10.405-11.446-15.727c-6.525-9.389-12.768-18.976-19.388-28.295
			c-6.639-9.346-13.644-18.432-20.394-27.7c-4.894-6.718-9.562-13.6-14.465-20.311c-4.082-5.587-8.436-10.976-12.474-16.593
			c-0.635-0.884-0.194-2.515-0.331-3.793c-0.094-0.879-0.326-1.744-0.497-2.615c-1.797,0.838-3.127-3.331-5.373-0.22
			c-3.418,4.735-7.294,9.14-10.985,13.677c-0.687,0.844-1.442,1.631-2.127,2.478c-3.361,4.148-6.563,8.437-10.098,12.431
			c-4.595,5.194-9.589,10.037-14.16,15.251c-6.444,7.351-12.616,14.94-18.987,22.356c-4.167,4.85-8.575,9.496-12.708,14.375
			c-6.047,7.136-11.876,14.457-17.924,21.593c-5.98,7.057-12.122,13.977-18.183,20.966c-7.288,8.402-14.588,16.794-21.824,25.241
			c-1.239,1.447-2.042,3.271-3.29,4.71c-2.224,2.566-4.719,4.897-6.948,7.46c-4.727,5.433-9.167,11.127-14.092,16.369
			c-3.172,3.377-2.958,5.305,0.733,8.218c7.547,5.957,14.683,12.438,21.948,18.749c4.542,3.943,9.008,7.974,13.513,11.96
			c3.484,3.081,7.882,5.593,10.228,9.377c2.737,4.417,6.271,5.418,10.595,5.494c13.337,0.237,26.678,0.286,40.018,0.451
			c15.833,0.196,31.665,0.486,47.499,0.644c15.839,0.158,31.679,0.259,47.518,0.279c11.857,0.016,23.714-0.156,35.573-0.19
			c1.86-0.006,3.099-0.307,3.24-2.57c0.047-0.748,1.062-1.526,1.773-2.129c7.283-6.173,14.633-12.268,21.885-18.476
			c4.524-3.875,8.919-7.901,13.36-11.872c4.323-3.865,8.842-7.542,12.848-11.712c1.761-1.834,3.349-2.307,5.672-2.285
			c10.876,0.1,21.754,0.044,32.78,0.044C360.014,206.674,360.014,205.742,360.014,204.87z M857.279,231.626
			c-7.016,0-12.801-0.047-18.586,0.013c-7.443,0.077-14.888,0.383-22.327,0.293c-2.722-0.033-5.786-0.3-8.036-1.6
			c-1.816-1.05-2.749-3.753-3.897-5.82c-7.814-14.076-15.608-28.166-23.352-42.282c-2.137-3.895-3.924-7.985-6.146-11.827
			c-4.249-7.342-8.732-14.548-13.045-21.854c-2.389-4.046-4.64-8.173-6.932-12.276c-1.979-3.543-3.975-7.079-5.874-10.664
			c-2.182-4.12-4.138-8.364-6.42-12.426c-3.693-6.571-7.653-12.991-11.35-19.559c-4.307-7.65-8.375-15.432-12.682-23.081
			c-6.297-11.186-12.71-22.307-19.086-33.448c-1.234-2.157-2.84-4.165-3.685-6.459c-0.621-1.688-0.657-3.841-2.968-3.241
			c-1.36,0.354-2.726,1.846-3.481,3.172c-4.142,7.263-7.977,14.7-12.141,21.949c-5.356,9.326-10.981,18.497-16.378,27.801
			c-2.838,4.896-5.353,9.979-8.168,14.888c-2.269,3.956-4.932,7.689-7.131,11.681c-3.558,6.459-6.712,13.144-10.344,19.559
			c-3.932,6.94-8.322,13.618-12.316,20.524c-4.948,8.556-9.599,17.284-14.552,25.838c-6.141,10.605-12.576,21.041-18.66,31.678
			c-4.237,7.405-8.162,14.993-12.11,22.561c-4.84,9.277-0.315,14.357,5.441,17.666c6.738,3.875,13.486,7.108,21.349,8.3
			c8.453,1.281,16.653,4.374,25.118,5.402c16.265,1.977,32.625,3.232,48.973,4.423c7.387,0.537,14.838,0.29,22.258,0.229
			c5.179-0.043,10.362-0.251,15.528-0.612c4.831-0.337,9.632-1.259,14.462-1.425c16.381-0.561,32.633-1.826,48.417-6.688
			c8.483-2.612,17.608-3.374,24.686-9.781c2.63-2.38,5.12-4.372,5.504-8.233c0.097-0.977,1.835-2.51,2.87-2.554
			c5.648-0.235,11.315-0.169,16.973-0.05c8.677,0.182,17.35,0.52,26.026,0.667C855.657,234.396,856.115,233.231,857.279,231.626z
			 M374.325,182.772c0-44.868,0-89.648,0-134.95c3.547,1.621,3.866,6.133,8.072,6.054c-0.127-0.777-0.142-1.24-0.282-1.66
			c-1.606-4.78-3.263-9.543-4.84-14.333c-0.808-2.455-1.598-4.926-2.191-7.438c-0.938-3.971-4.369-5.246-11.264-4.887
			c-7.375,0.384-14.777,0.311-22.166,0.277c-4.562-0.021-9.12-0.435-13.682-0.499c-3.861-0.054-7.729,0.089-11.588,0.248
			c-2.509,0.103-5.011,0.389-7.516,0.592c0.022,0.45,0.045,0.9,0.068,1.35c20.479,0,40.958,0,61.512,0
			c1.139,9.971-4.991,17.442-6.862,25.974c0.33,0.284,0.66,0.569,0.99,0.854c2.126-1.705,4.252-3.409,6.338-5.081
			c0,44.328,0,88.638,0,133.837c-2.828-2.391-4.842-4.095-6.856-5.798c-0.282,0.264-0.563,0.527-0.844,0.791
			c0.125,0.689,0.19,1.396,0.385,2.065c2.102,7.213,6.682,13.61,7.042,21.43c0.026,0.577,1.478,1.615,2.1,1.505
			c0.736-0.131,1.583-1.178,1.867-2.004c0.643-1.869,0.864-3.878,1.446-5.771c1.764-5.733,3.618-11.438,5.488-17.313
			C377.064,176.52,378.111,183.774,374.325,182.772z M868.173,206.438c-0.35-0.294-0.699-0.589-1.048-0.883
			c-1.973,1.712-3.945,3.426-6.062,5.264c0-53.185,0-105.782,0-159.111c2.879,2.326,5.054,4.084,7.751,6.265
			c0-1.638,0.276-2.681-0.048-3.479c-1.257-3.088-3.091-5.989-3.992-9.163c-1.457-5.136-6.317-10.034-1.366-16.294
			c-2.178,0.098-4.028,0.182-5.827,0.263c0,1.4,0.275,2.594-0.045,3.597c-2.263,7.085-4.673,14.123-6.958,21.201
			c-0.283,0.878-0.107,1.905-0.145,2.864c0.801-0.468,1.684-0.836,2.381-1.425c1.403-1.186,2.704-2.492,4.561-4.231
			c0,53.942,0,106.651,0,159.359c-0.301,0.19-0.602,0.381-0.902,0.571c-2.157-1.923-4.314-3.846-7.076-6.308
			c0,1.771-0.249,2.789,0.038,3.622c2.471,7.133,4.998,14.248,7.622,21.326c0.36,0.972,1.349,1.71,2.046,2.556
			c0.589-0.955,1.389-1.841,1.729-2.878c1.615-4.919,3.092-9.884,4.645-14.824C866.349,211.957,867.271,209.201,868.173,206.438z
			 M885.143,126.574c4.522,0.379,8.385-2.03,7.244-3.633c-2.215-3.118,0.156-5.373,0.279-8.003c0.074-1.571-0.173-3.965-1.147-4.559
			c-1.087-0.663-3.19,0.183-4.795,0.592c-0.981,0.25-1.855,0.917-3.523,1.784c1.069-3.613,1.929-6.177,2.573-8.792
			c0.735-2.986-0.342-3.972-3.287-3.104c-0.805,0.237-1.522,0.77-1.746,0.887c-0.134,2.357,0.069,4.325-0.406,6.114
			c-1.398,5.268-3.146,10.443-4.551,15.711c-0.245,0.919,0.52,2.107,0.818,3.171c0.95-0.725,2.161-1.27,2.803-2.205
			c2.326-3.393,4.426-6.941,6.727-10.354c0.238-0.354,1.244-0.191,2.05-0.286C887.145,118.221,886.185,122.228,885.143,126.574z
			 M393.781,108.365c0.518-2.163,1.308-5.149,1.912-8.173c0.218-1.091-0.011-2.271-0.035-3.411c-1.683,0.223-3.406,0.312-5.002,0.81
			c-0.241,0.076,0.081,2.063,0.205,3.158c0.082,0.719,0.561,1.51,0.376,2.121c-1.141,3.766-2.546,7.453-3.611,11.237
			c-0.804,2.856-1.231,5.82-1.826,8.736c0.493,0.221,0.986,0.44,1.479,0.661c4.612-3.476,4.648-11.18,11.735-13.557
			c-1.228,3.553-2.385,6.378-3.124,9.309c-0.279,1.109,0.094,2.704,0.788,3.598c0.344,0.442,2.186,0.021,3.179-0.407
			c1.683-0.725,2.995-1.7,1.592-3.971c-0.466-0.755,0.095-2.134,0.162-3.229c0.168-2.706,0.323-5.413,0.483-8.119
			C399.252,107.552,396.411,107.974,393.781,108.365z M278.499,27.678c-1.247-1.45-1.761-2.595-2.34-2.629
			c-2.912-0.168-5.843-0.125-8.762-0.007c-3.51,0.142-7.018,0.67-10.518,0.596c-3.573-0.076-7.13-0.78-10.708-0.973
			c-0.741-0.04-1.538,0.962-2.31,1.484c0.665,0.51,1.325,1.458,1.994,1.464C256.296,27.707,266.738,27.678,278.499,27.678z
			 M818.895,30.28c-0.067-0.535-0.133-1.069-0.2-1.604c-5.265,0-10.531,0.098-15.793-0.027c-5.384-0.128-10.76-0.544-16.143-0.683
			c-1.507-0.039-3.045,0.391-4.523,0.778c-0.246,0.064-0.401,1.478-0.36,1.491c1.323,0.407,2.674,0.989,4.024,1
			c9.206,0.071,18.415,0.069,27.62-0.036C815.314,31.178,817.103,30.601,818.895,30.28z M307.666,27.603
			c-0.137-0.768-0.219-1.807-0.338-1.811c-8.197-0.292-16.396-0.573-24.598-0.646c-1.34-0.013-2.688,0.916-4.032,1.409
			c0.182,0.35,0.365,0.699,0.546,1.049C288.627,27.603,298.01,27.603,307.666,27.603z M819.845,28.573
			c0.394,0.927,0.654,2.408,1.115,2.474c1.756,0.249,3.577-0.003,5.373,0.013c4.968,0.044,9.935,0.167,14.902,0.146
			c0.638-0.003,1.272-0.669,1.91-1.029c-0.582-0.416-1.157-1.182-1.745-1.192c-3.888-0.063-7.779,0.107-11.667,0.06
			C826.729,29.008,823.727,28.767,819.845,28.573z M751.609,29.152c0.143,0.346,0.285,0.692,0.429,1.038
			c4.582,0.283,9.163,0.621,13.749,0.772c0.54,0.018,1.357-0.906,1.577-1.553c0.124-0.366-0.687-1.508-1.112-1.528
			c-3.296-0.156-6.609-0.277-9.898-0.084C754.751,27.892,753.189,28.679,751.609,29.152z M214.566,28.27
			c2.032-0.802,3.652-1.441,5.271-2.081c-1.655-0.612-3.299-1.672-4.968-1.712c-1.646-0.04-3.319,0.951-4.979,1.489
			C211.429,26.724,212.968,27.482,214.566,28.27z M236.158,24.48c-2.643,0-4.687-0.162-6.682,0.082
			c-0.773,0.094-1.435,1.104-2.146,1.696c0.709,0.45,1.392,1.229,2.132,1.287c2.203,0.173,4.426,0.062,6.923,0.062
			C236.295,26.36,236.219,25.306,236.158,24.48z M844.009,29.026c-0.097,0.586-0.195,1.173-0.293,1.759
			c3.869,0.139,7.738,0.328,11.608,0.338c0.359,0.001,0.722-1.121,1.309-2.098C852.005,29.026,848.007,29.026,844.009,29.026z
			 M751.12,28.174c-4.66,0-8.099-0.028-11.535,0.023c-0.704,0.01-1.403,0.318-2.105,0.489c0.406,0.471,0.802,1.339,1.222,1.351
			c3.49,0.101,6.986,0.102,10.475-0.031C749.688,29.987,750.167,29.104,751.12,28.174z M365.565,204.178
			c-1.676,0.855-3.134,1.599-4.591,2.342c1.515,0.419,3.038,1.194,4.542,1.159c1.62-0.038,3.222-0.836,4.832-1.303
			C368.789,205.66,367.229,204.942,365.565,204.178z M521.158,50.22c-2.176-1.233-3.248-2.198-4.435-2.371
			c-0.647-0.095-1.491,1.152-2.246,1.794c0.954,0.961,1.771,2.227,2.923,2.749C517.941,52.636,519.131,51.444,521.158,50.22z
			 M208.37,27.164c0-0.685,0-1.585,0-2.491c-8.118,0.232-8.118,0.232-7.675,2.491C203.172,27.164,205.662,27.164,208.37,27.164z
			 M772.179,28.602c-0.29,1.029-1.623,2.971,2.071,2.013c1.497-0.389,3.221,0.138,4.842,0.166c0.501,0.009,1.24-0.109,1.448-0.437
			c0.231-0.366,0.151-1.155-0.116-1.533c-0.188-0.266-0.913-0.197-1.398-0.202C776.961,28.592,774.896,28.602,772.179,28.602z
			 M724.536,30.045c1.292,0,2.304,0.128,3.261-0.044c0.677-0.122,1.28-0.65,1.916-0.997c-0.682-0.378-1.342-1.021-2.051-1.081
			c-1.616-0.136-3.265-0.067-4.884,0.09c-0.637,0.062-1.229,0.58-1.841,0.89c0.57,0.434,1.084,1.065,1.727,1.246
			C723.32,30.336,724.103,30.082,724.536,30.045z M243.032,24.823c-2.136,0-3.675,0-5.372,0c0,0.857,0,1.779,0,2.748
			c1.912,0,3.594,0,5.533,0C243.129,26.487,243.076,25.563,243.032,24.823z M220.795,25.24c-0.701,4.063,2.927,1.392,4.238,2.282
			c0.145,0.099,1.037-0.904,1.583-1.396c-0.688-0.458-1.336-1.204-2.073-1.304C223.522,24.682,222.436,25.027,220.795,25.24z"/>
		<path fill-rule="evenodd" clip-rule="evenodd" d="M360.014,204.87c0,0.872,0,1.804,0,2.508c-11.026,0-21.904,0.056-32.78-0.044
			c-2.323-0.021-3.911,0.451-5.672,2.285c-4.006,4.17-8.525,7.847-12.848,11.712c-4.441,3.971-8.836,7.997-13.36,11.872
			c-7.252,6.208-14.602,12.303-21.885,18.476c-0.711,0.603-1.726,1.381-1.773,2.129c-0.141,2.264-1.379,2.564-3.24,2.57
			c-11.858,0.034-23.716,0.206-35.573,0.19c-15.839-0.021-31.679-0.121-47.518-0.279c-15.833-0.157-31.666-0.447-47.499-0.644
			c-13.339-0.165-26.68-0.214-40.018-0.451c-4.324-0.076-7.858-1.077-10.595-5.494c-2.346-3.784-6.744-6.296-10.228-9.377
			c-4.505-3.986-8.972-8.017-13.513-11.96c-7.266-6.312-14.401-12.792-21.948-18.749c-3.691-2.913-3.905-4.841-0.733-8.218
			c4.925-5.242,9.365-10.937,14.092-16.369c2.229-2.563,4.724-4.894,6.948-7.46c1.248-1.439,2.05-3.263,3.29-4.71
			c7.235-8.447,14.536-16.839,21.824-25.241c6.062-6.989,12.203-13.909,18.183-20.966c6.048-7.136,11.877-14.457,17.924-21.593
			c4.133-4.878,8.541-9.524,12.708-14.375c6.371-7.416,12.543-15.005,18.987-22.356c4.571-5.214,9.565-10.057,14.16-15.251
			c3.535-3.995,6.737-8.283,10.098-12.431c0.685-0.846,1.441-1.633,2.127-2.478c3.691-4.537,7.567-8.942,10.985-13.677
			c2.246-3.111,3.576,1.058,5.373,0.22c0.17,0.871,0.403,1.736,0.497,2.615c0.137,1.278-0.304,2.909,0.331,3.793
			c4.039,5.617,8.392,11.006,12.474,16.593c4.904,6.711,9.572,13.593,14.465,20.311c6.75,9.268,13.754,18.354,20.394,27.7
			c6.62,9.32,12.863,18.907,19.388,28.295c3.7,5.322,7.683,10.448,11.446,15.727c2.412,3.382,4.562,6.951,6.998,10.313
			c3.803,5.248,7.863,10.313,11.605,15.603c3.853,5.447,7.369,11.133,11.192,16.603c4.138,5.92,9.072,11.377,12.51,17.663
			c2.786,5.094,6.955,5.001,11.264,5.176c5.201,0.21,10.424-0.163,15.637-0.219C350.312,204.831,354.891,204.87,360.014,204.87z
			 M95.066,251.447c57.79,0,114.342,0,171.147,0c0-0.724,0.201-1.627-0.032-2.4c-2.049-6.815-4.082-13.639-6.3-20.4
			c-3.192-9.728-6.701-19.354-9.739-29.129c-1.269-4.085-3.154-6.081-7.381-6.778c-6.848-1.129-13.658-2.498-20.464-3.865
			c-4.314-0.866-8.587-1.928-12.886-2.872c-1.549-0.341-3.107-0.683-4.679-0.879c-9.526-1.188-18.636-5.57-28.602-3.491
			c-4.381,0.914-8.922,1.072-13.289,2.037c-6.565,1.45-12.979,3.632-19.573,4.901c-6.385,1.229-12.93,1.611-19.373,2.583
			c-1.112,0.168-2.509,1.202-2.999,2.213c-1.406,2.898-2.279,6.05-3.605,8.992c-3.513,7.798-7.162,15.534-10.741,23.302
			c-2.015,4.375-4.025,8.753-5.987,13.151C98.803,242.759,97.112,246.735,95.066,251.447z M189.658,40.886
			c-21.803,48.688-43.427,96.975-65.26,145.729c3.528-0.435,6.738-0.636,9.867-1.249c14.021-2.749,28.019-5.608,42.02-8.456
			c0.819-0.166,1.568-0.66,2.386-0.848c0.902-0.205,1.895-0.476,2.762-0.299c8.87,1.815,17.721,3.724,26.58,5.59
			c9.631,2.03,19.266,4.04,28.897,6.067c2.952,0.621,5.899,1.267,9.711,2.088c-17.447-52.773-34.577-104.586-51.89-156.955
			c-1.26,2.175-2.062,3.558-2.58,4.452c0.544,1.475,0.966,2.618,1.531,4.15C191.797,41.029,190.69,40.955,189.658,40.886z
			 M45.322,202.388c2.006,0,2.764,0.142,3.448-0.022c5.905-1.425,11.746-3.164,17.702-4.315c16.25-3.142,32.56-5.976,48.807-9.131
			c1.85-0.359,4.185-1.59,5.027-3.115c2.24-4.06,3.777-8.504,5.611-12.788c1.634-3.815,3.193-7.667,4.959-11.421
			c4.756-10.114,9.783-20.107,14.362-30.3c3.611-8.038,6.584-16.36,10.101-24.443c1.898-4.363,4.582-8.385,6.486-12.747
			c3.233-7.41,5.845-15.098,9.241-22.427c4.332-9.347,9.22-18.434,13.762-27.685c0.528-1.076,0.381-2.483,0.547-3.736
			c-0.296-0.138-0.592-0.276-0.888-0.414c-0.777,0.994-1.533,2.005-2.335,2.979c-2.714,3.298-5.411,6.612-8.178,9.866
			c-3.939,4.632-7.97,9.188-11.896,13.831c-3.296,3.898-6.396,7.966-9.771,11.792c-4.442,5.035-9.176,9.812-13.588,14.871
			c-4.661,5.344-9.037,10.934-13.639,16.33c-3.969,4.654-8.174,9.11-12.103,13.798c-3.512,4.19-6.661,8.686-10.205,12.847
			c-4.487,5.268-9.282,10.272-13.818,15.499c-6.273,7.229-12.343,14.638-18.661,21.828c-6.602,7.515-13.43,14.831-20.079,22.306
			C48.602,197.603,47.302,199.695,45.322,202.388z M204.485,45.624c-0.237,0.123-0.475,0.246-0.712,0.369
			c0.829,3.052,1.473,6.17,2.523,9.145c2.082,5.899,4.595,11.651,6.553,17.587c3.179,9.635,5.956,19.402,9.087,29.053
			c3.139,9.677,6.612,19.245,9.74,28.925c2.987,9.249,5.607,18.616,8.592,27.865c3.067,9.507,6.28,18.971,9.681,28.36
			c0.585,1.616,2.225,3.641,3.729,3.998c6.785,1.613,13.729,2.548,20.554,4.011c6.203,1.33,12.294,3.187,18.497,4.521
			c8.065,1.736,16.191,3.188,25.281,4.955c-5.057-6.918-9.507-12.909-13.847-18.979c-3.504-4.9-6.764-9.978-10.331-14.831
			c-4.659-6.34-9.634-12.45-14.251-18.821c-4.153-5.729-7.958-11.71-12.001-17.522c-7.007-10.071-14.011-20.146-21.147-30.126
			c-4.702-6.574-9.684-12.948-14.446-19.48c-3.51-4.816-6.88-9.735-10.291-14.624c-2.741-3.929-5.418-7.902-8.18-11.816
			C210.539,53.994,207.499,49.819,204.485,45.624z M46.161,207.09c0.784,1.614,0.936,2.486,1.455,2.908
			c4.525,3.678,9.113,7.276,13.688,10.892c0.576,0.455,1.239,0.811,1.767,1.312c4.001,3.806,7.875,7.752,11.993,11.425
			c4.13,3.685,8.637,6.95,12.717,10.687c3.294,3.017,4.965,2.834,6.726-1.407c1.651-3.979,3.241-7.986,4.958-11.938
			c0.954-2.195,2.247-4.246,3.15-6.459c2.069-5.072,3.821-10.278,6.022-15.29c2.381-5.417,5.126-10.675,7.867-16.321
			C92.958,197.648,69.831,202.313,46.161,207.09z M270.85,248.245c15.465-13.311,30.21-26.002,45.112-38.827
			c-0.636-0.484-1.153-1.176-1.792-1.317c-7.484-1.667-14.969-3.341-22.49-4.828c-5.934-1.174-11.962-1.887-17.866-3.182
			c-6.474-1.419-12.853-3.269-19.273-4.931c-0.346,0.346-0.693,0.693-1.04,1.041C259.219,213.352,264.936,230.501,270.85,248.245z"
			/>
		<path fill-rule="evenodd" clip-rule="evenodd" d="M857.279,231.626c-1.164,1.605-1.622,2.77-2.062,2.763
			c-8.677-0.147-17.35-0.485-26.026-0.667c-5.657-0.119-11.324-0.186-16.973,0.05c-1.035,0.044-2.773,1.577-2.87,2.554
			c-0.384,3.861-2.874,5.854-5.504,8.233c-7.077,6.407-16.202,7.169-24.686,9.781c-15.784,4.861-32.036,6.127-48.417,6.688
			c-4.83,0.166-9.631,1.088-14.462,1.425c-5.166,0.361-10.35,0.569-15.528,0.612c-7.42,0.062-14.871,0.309-22.258-0.229
			c-16.348-1.19-32.708-2.446-48.973-4.423c-8.465-1.028-16.665-4.121-25.118-5.402c-7.862-1.191-14.61-4.425-21.349-8.3
			c-5.757-3.309-10.281-8.389-5.441-17.666c3.948-7.567,7.873-15.155,12.11-22.561c6.084-10.637,12.52-21.072,18.66-31.678
			c4.953-8.554,9.604-17.282,14.552-25.838c3.994-6.906,8.385-13.584,12.316-20.524c3.632-6.416,6.786-13.1,10.344-19.559
			c2.199-3.992,4.862-7.726,7.131-11.681c2.815-4.909,5.33-9.992,8.168-14.888c5.396-9.304,11.021-18.475,16.378-27.801
			c4.164-7.249,7.999-14.686,12.141-21.949c0.756-1.326,2.121-2.818,3.481-3.172c2.311-0.601,2.347,1.553,2.968,3.241
			c0.845,2.294,2.45,4.302,3.685,6.459c6.376,11.142,12.789,22.263,19.086,33.448c4.307,7.648,8.375,15.431,12.682,23.081
			c3.696,6.568,7.656,12.988,11.35,19.559c2.282,4.062,4.238,8.306,6.42,12.426c1.899,3.585,3.896,7.121,5.874,10.664
			c2.292,4.103,4.543,8.23,6.932,12.276c4.313,7.306,8.796,14.512,13.045,21.854c2.223,3.842,4.01,7.933,6.146,11.827
			c7.743,14.116,15.537,28.206,23.352,42.282c1.148,2.067,2.081,4.771,3.897,5.82c2.25,1.3,5.314,1.566,8.036,1.6
			c7.439,0.09,14.884-0.216,22.327-0.293C844.479,231.579,850.264,231.626,857.279,231.626z M800.72,225.584
			c0.213-0.256,0.426-0.512,0.638-0.767c-1.618-2.556-3.359-5.043-4.832-7.681c-4.033-7.224-7.805-14.598-11.952-21.753
			c-6.575-11.342-13.493-22.486-20.038-33.845c-5.733-9.947-11.134-20.085-16.729-30.112c-1.008-1.807-2.391-3.409-3.35-5.237
			c-3.83-7.292-7.371-14.742-11.381-21.931c-4.152-7.447-8.855-14.584-13.074-21.997c-3.887-6.829-7.43-13.853-11.162-20.771
			c-2.69-4.989-5.405-9.966-8.182-14.908c-1.929-3.434-3.961-6.809-5.989-10.185c-0.457-0.76-1.088-1.414-1.639-2.117
			c-0.728,0.571-1.698,0.996-2.145,1.735c-3.938,6.534-7.874,13.073-11.631,19.711c-3.835,6.776-7.37,13.722-11.211,20.495
			c-5.693,10.042-11.602,19.961-17.305,29.999c-5.009,8.814-9.855,17.721-14.781,26.582c-3.466,6.234-6.874,12.502-10.437,18.679
			c-5.187,8.992-10.425,17.955-15.761,26.857c-4.994,8.33-10.211,16.526-15.202,24.858c-2.712,4.528-5.218,9.186-7.7,13.848
			c-1.132,2.124-1.982,4.397-2.692,5.998c9.97-2.908,19.645-6.722,29.679-8.427c15.442-2.625,31.091-4.614,46.725-5.386
			c18.548-0.914,37.187-0.718,55.76-0.141c18.799,0.585,37.603,2.269,55.903,6.848c8.55,2.14,17.697,3.074,25.074,8.833
			C798.146,225.426,799.568,225.331,800.72,225.584z M804.187,236.831c-4.095-11.192-15.055-10.424-23.366-14.641
			c-0.573,1.645-1.001,2.874-1.459,4.191c0.938-0.21,1.621-0.363,2.304-0.516c0.025,0.248,0.051,0.496,0.076,0.744
			c-1.565,0-3.13,0-4.694,0c0-0.43-0.08-0.712,0.014-0.915c0.498-1.088,1.04-2.156,1.567-3.231
			c-1.232-0.313-2.451-0.787-3.702-0.893c-1.265-0.108-2.561,0.148-4.022,0.258c0.266-0.541,0.575-1.172,1.012-2.059
			c-6.76-0.682-13.215-1.333-19.522-1.969c-0.978,0.935-1.893,1.811-3.403,3.257c0.535-2.03,0.852-3.229,1.211-4.591
			c-3.981,0-7.558,0-11.133,0c-0.812,0.158-1.542-0.71-2.403-0.869c-5.284-0.973-10.534-2.542-16.012-0.914
			c-1.176,0.35-2.596-0.01-3.885-0.18c-3.43-0.453-6.84-1.294-10.276-1.408c-5.288-0.178-10.593,0.105-15.89,0.225
			c-5.748,0.129-11.605-2.844-17.255,0.61c-0.342,0.209-0.946-0.028-1.428-0.028c-5.394-0.002-10.794-0.188-16.175,0.059
			c-5.168,0.237-10.316,0.921-15.473,1.416c-1.6,0.152-3.197,0.327-4.795,0.492c0.034,0.331,0.069,0.662,0.104,0.993
			c1.041,0.367,2.082,0.736,2.127,0.751c-0.604,1.108-1.298,2.379-2.103,3.855c-0.633-0.789-1.327-1.252-1.333-1.723
			c-0.048-4.34-2.948-3.856-5.704-3.361c-6.616,1.188-13.171,2.893-19.835,3.573c-3.348,0.343-5.185,1.596-6.594,4.272
			c-0.196,0.373-0.704,0.581-1.177,0.949c-0.402-1.003-0.717-1.788-1.158-2.888c-1.537,3.955-2.449,4.619-4.438,3.541
			c0.752-0.865,1.505-1.729,2.257-2.595c-5.214,1.658-10.259,3.451-14.738,6.171c-1.629,0.99-2.436,4.161-2.562,6.396
			c-0.051,0.902,2.724,1.964,4.226,2.961c0.618,1.364,1.38,3.046,2.215,4.889c3.154-0.405,6.251-0.803,9.529-1.223
			c-0.304,1.218-0.48,1.924-0.591,2.366c2.907,0.624,5.495,1.18,8.066,1.732c-0.258,0.625-0.636,1.538-1.243,3.011
			c2.374-0.44,4.077-0.756,4.689-0.87c2.385,1.057,4.063,2.14,5.89,2.532c3.151,0.678,6.387,1.114,9.605,1.275
			c1.624,0.082,4.339,2.38,4.836-1.558c0.004-0.036,1.888,0.043,1.896,0.148c0.248,3.104,2.865,2.373,4.587,2.725
			c3.584,0.733,7.226,1.19,10.854,1.696c4.593,0.641,9.184,1.391,13.801,1.71c1.29,0.089,2.673-1.175,4.329-1.969
			c0.442,0.672,1.409,2.721,2.574-0.448c2.553,5.095,7.012,2.06,10.768,3.06c-0.383-1.085-0.638-1.806-0.893-2.527
			c1.081,3.849,4.421,2.561,6.855,2.981c1.221,0.211,2.546-0.281,3.825-0.293c4.486-0.042,8.975,0.019,13.46-0.02
			c7.543-0.064,15.091-0.033,22.626-0.314c5.291-0.196,10.573-0.771,15.846-1.316c5.503-0.568,10.991-1.275,16.479-1.976
			c2.794-0.356,5.566-0.897,8.362-1.231c3.922-0.469,7.326-3.739,11.852-1.608c1.339,0.631,3.784-0.944,5.669-1.652
			c2.234-0.84,4.336-2.306,6.628-2.675C794.362,246.036,800.588,243.365,804.187,236.831z"/>
		<path fill-rule="evenodd" clip-rule="evenodd" d="M374.325,182.772c3.786,1.002,2.739-6.253,7.216-4.755
			c-1.87,5.875-3.724,11.579-5.488,17.313c-0.582,1.894-0.803,3.902-1.446,5.771c-0.285,0.826-1.131,1.873-1.867,2.004
			c-0.622,0.11-2.073-0.928-2.1-1.505c-0.36-7.819-4.941-14.217-7.042-21.43c-0.195-0.669-0.26-1.376-0.385-2.065
			c0.281-0.264,0.563-0.527,0.844-0.791c2.014,1.703,4.029,3.407,6.856,5.798c0-45.199,0-89.509,0-133.837
			c-2.086,1.672-4.211,3.376-6.338,5.081c-0.33-0.285-0.66-0.569-0.99-0.854c1.872-8.532,8.001-16.003,6.862-25.974
			c-20.553,0-41.032,0-61.512,0c-0.022-0.45-0.045-0.9-0.068-1.35c2.504-0.204,5.007-0.49,7.516-0.592
			c3.859-0.158,7.727-0.302,11.588-0.248c4.562,0.063,9.121,0.478,13.682,0.499c7.389,0.034,14.792,0.106,22.166-0.277
			c6.895-0.359,10.326,0.916,11.264,4.887c0.594,2.512,1.384,4.983,2.191,7.438c1.577,4.789,3.233,9.553,4.84,14.333
			c0.141,0.42,0.155,0.883,0.282,1.66c-4.206,0.079-4.525-4.434-8.072-6.054C374.325,93.125,374.325,137.904,374.325,182.772z"/>
		<path fill-rule="evenodd" clip-rule="evenodd" d="M868.173,206.438c-0.901,2.764-1.824,5.52-2.696,8.292
			c-1.553,4.94-3.029,9.905-4.645,14.824c-0.341,1.037-1.141,1.923-1.729,2.878c-0.697-0.846-1.686-1.584-2.046-2.556
			c-2.624-7.078-5.151-14.193-7.622-21.326c-0.287-0.833-0.038-1.852-0.038-3.622c2.762,2.462,4.919,4.385,7.076,6.308
			c0.301-0.19,0.602-0.381,0.902-0.571c0-52.708,0-105.417,0-159.359c-1.856,1.739-3.157,3.045-4.561,4.231
			c-0.697,0.589-1.58,0.957-2.381,1.425c0.037-0.958-0.139-1.985,0.145-2.864c2.285-7.078,4.695-14.116,6.958-21.201
			c0.32-1.003,0.045-2.196,0.045-3.597c1.799-0.082,3.649-0.165,5.827-0.263c-4.951,6.26-0.091,11.159,1.366,16.294
			c0.901,3.174,2.735,6.075,3.992,9.163c0.324,0.798,0.048,1.842,0.048,3.479c-2.697-2.181-4.872-3.939-7.751-6.265
			c0,53.329,0,105.926,0,159.111c2.116-1.838,4.089-3.552,6.062-5.264C867.474,205.849,867.823,206.144,868.173,206.438z"/>
		<path fill-rule="evenodd" clip-rule="evenodd" d="M885.143,126.574c1.042-4.346,2.002-8.354,3.038-12.676
			c-0.806,0.095-1.812-0.068-2.05,0.286c-2.301,3.412-4.4,6.96-6.727,10.354c-0.642,0.936-1.853,1.48-2.803,2.205
			c-0.299-1.064-1.063-2.252-0.818-3.171c1.404-5.268,3.152-10.443,4.551-15.711c0.476-1.789,0.272-3.757,0.406-6.114
			c0.224-0.117,0.941-0.65,1.746-0.887c2.945-0.868,4.022,0.117,3.287,3.104c-0.645,2.616-1.504,5.179-2.573,8.792
			c1.668-0.867,2.542-1.533,3.523-1.784c1.604-0.409,3.708-1.255,4.795-0.592c0.975,0.594,1.222,2.988,1.147,4.559
			c-0.123,2.63-2.494,4.885-0.279,8.003C893.527,124.544,889.665,126.954,885.143,126.574z"/>
		<path fill-rule="evenodd" clip-rule="evenodd" d="M393.781,108.365c2.629-0.391,5.471-0.813,8.313-1.236
			c-0.161,2.707-0.315,5.414-0.483,8.119c-0.067,1.095-0.628,2.474-0.162,3.229c1.402,2.271,0.09,3.246-1.592,3.971
			c-0.993,0.428-2.835,0.85-3.179,0.407c-0.694-0.894-1.067-2.489-0.788-3.598c0.739-2.931,1.896-5.756,3.124-9.309
			c-7.087,2.376-7.123,10.081-11.735,13.557c-0.493-0.22-0.986-0.44-1.479-0.661c0.595-2.916,1.021-5.879,1.826-8.736
			c1.065-3.784,2.471-7.472,3.611-11.237c0.185-0.611-0.294-1.402-0.376-2.121c-0.125-1.095-0.446-3.083-0.205-3.158
			c1.596-0.498,3.32-0.587,5.002-0.81c0.024,1.14,0.253,2.32,0.035,3.411C395.089,103.216,394.299,106.202,393.781,108.365z"/>
		<path fill-rule="evenodd" clip-rule="evenodd" d="M278.499,27.678c-11.76,0-22.202,0.029-32.642-0.065
			c-0.669-0.006-1.33-0.955-1.994-1.464c0.771-0.521,1.568-1.523,2.31-1.484c3.577,0.192,7.134,0.896,10.708,0.973
			c3.5,0.075,7.008-0.454,10.518-0.596c2.918-0.118,5.85-0.161,8.762,0.007C276.737,25.083,277.251,26.229,278.499,27.678z"/>
		<path fill-rule="evenodd" clip-rule="evenodd" d="M818.895,30.28c-1.792,0.32-3.58,0.898-5.375,0.918
			c-9.205,0.105-18.414,0.107-27.62,0.036c-1.351-0.011-2.701-0.593-4.024-1c-0.041-0.013,0.114-1.426,0.36-1.491
			c1.479-0.387,3.017-0.816,4.523-0.778c5.383,0.138,10.759,0.555,16.143,0.683c5.262,0.125,10.528,0.027,15.793,0.027
			C818.762,29.211,818.827,29.746,818.895,30.28z"/>
		<path fill-rule="evenodd" clip-rule="evenodd" d="M307.666,27.603c-9.656,0-19.039,0-28.422,0
			c-0.182-0.35-0.364-0.699-0.546-1.049c1.345-0.493,2.692-1.421,4.032-1.409c8.202,0.074,16.401,0.354,24.598,0.646
			C307.447,25.796,307.529,26.835,307.666,27.603z"/>
		<path fill-rule="evenodd" clip-rule="evenodd" d="M819.845,28.573c3.882,0.194,6.884,0.435,9.889,0.472
			c3.888,0.047,7.779-0.123,11.667-0.06c0.588,0.01,1.163,0.776,1.745,1.192c-0.638,0.36-1.272,1.026-1.91,1.029
			c-4.968,0.021-9.935-0.103-14.902-0.146c-1.796-0.016-3.617,0.236-5.373-0.013C820.499,30.98,820.238,29.5,819.845,28.573z"/>
		<path fill-rule="evenodd" clip-rule="evenodd" d="M751.609,29.152c1.58-0.473,3.142-1.261,4.744-1.354
			c3.289-0.193,6.603-0.072,9.898,0.084c0.426,0.021,1.236,1.163,1.112,1.528c-0.22,0.647-1.037,1.57-1.577,1.553
			c-4.586-0.151-9.167-0.49-13.749-0.772C751.895,29.845,751.752,29.498,751.609,29.152z"/>
		<path fill-rule="evenodd" clip-rule="evenodd" d="M214.566,28.27c-1.598-0.788-3.137-1.545-4.676-2.304
			c1.661-0.539,3.333-1.529,4.979-1.489c1.669,0.04,3.313,1.1,4.968,1.712C218.218,26.828,216.599,27.467,214.566,28.27z"/>
		<path fill-rule="evenodd" clip-rule="evenodd" d="M236.158,24.48c0.061,0.825,0.137,1.88,0.227,3.127
			c-2.497,0-4.72,0.111-6.923-0.062c-0.74-0.058-1.423-0.837-2.132-1.287c0.712-0.593,1.374-1.603,2.146-1.696
			C231.472,24.319,233.516,24.48,236.158,24.48z"/>
		<path fill-rule="evenodd" clip-rule="evenodd" d="M844.009,29.026c3.998,0,7.996,0,12.624,0c-0.587,0.977-0.949,2.099-1.309,2.098
			c-3.87-0.011-7.739-0.199-11.608-0.338C843.813,30.199,843.912,29.612,844.009,29.026z"/>
		<path fill-rule="evenodd" clip-rule="evenodd" d="M751.12,28.174c-0.953,0.93-1.433,1.813-1.944,1.832
			c-3.488,0.133-6.984,0.132-10.475,0.031c-0.42-0.012-0.815-0.88-1.222-1.351c0.702-0.171,1.401-0.479,2.105-0.489
			C743.021,28.146,746.46,28.174,751.12,28.174z"/>
		<path fill-rule="evenodd" clip-rule="evenodd" d="M365.565,204.178c1.664,0.765,3.224,1.482,4.783,2.198
			c-1.609,0.467-3.212,1.265-4.832,1.303c-1.504,0.035-3.027-0.74-4.542-1.159C362.432,205.776,363.89,205.033,365.565,204.178z"/>
		<path fill-rule="evenodd" clip-rule="evenodd" d="M521.158,50.22c-2.027,1.224-3.217,2.416-3.758,2.172
			c-1.152-0.522-1.969-1.788-2.923-2.749c0.755-0.642,1.599-1.889,2.246-1.794C517.91,48.022,518.982,48.987,521.158,50.22z"/>
		<path fill-rule="evenodd" clip-rule="evenodd" d="M208.37,27.164c-2.708,0-5.198,0-7.675,0c-0.443-2.259-0.443-2.259,7.675-2.491
			C208.37,25.579,208.37,26.479,208.37,27.164z"/>
		<path fill-rule="evenodd" clip-rule="evenodd" d="M772.179,28.602c2.718,0,4.782-0.01,6.847,0.007
			c0.485,0.004,1.211-0.064,1.398,0.202c0.268,0.378,0.348,1.167,0.116,1.533c-0.208,0.327-0.947,0.445-1.448,0.437
			c-1.621-0.027-3.345-0.555-4.842-0.166C770.556,31.573,771.889,29.631,772.179,28.602z"/>
		<path fill-rule="evenodd" clip-rule="evenodd" d="M724.536,30.045c-0.434,0.037-1.216,0.291-1.872,0.104
			c-0.643-0.181-1.156-0.813-1.727-1.246c0.612-0.311,1.204-0.829,1.841-0.89c1.619-0.157,3.268-0.226,4.884-0.09
			c0.709,0.06,1.369,0.703,2.051,1.081c-0.636,0.347-1.239,0.875-1.916,0.997C726.84,30.173,725.828,30.045,724.536,30.045z"/>
		<path fill-rule="evenodd" clip-rule="evenodd" d="M243.032,24.823c0.044,0.74,0.097,1.664,0.161,2.748c-1.939,0-3.621,0-5.533,0
			c0-0.969,0-1.891,0-2.748C239.356,24.823,240.896,24.823,243.032,24.823z"/>
		<path fill-rule="evenodd" clip-rule="evenodd" d="M220.795,25.24c1.64-0.213,2.727-0.558,3.748-0.418
			c0.737,0.1,1.385,0.846,2.073,1.304c-0.546,0.492-1.438,1.495-1.583,1.396C223.722,26.632,220.094,29.303,220.795,25.24z"/>
		<path fill-rule="evenodd" clip-rule="evenodd" fill="#FFFFFF" d="M95.066,251.447c2.046-4.712,3.737-8.688,5.497-12.636
			c1.962-4.398,3.972-8.776,5.987-13.151c3.579-7.768,7.228-15.504,10.741-23.302c1.326-2.942,2.199-6.094,3.605-8.992
			c0.49-1.011,1.887-2.045,2.999-2.213c6.442-0.972,12.987-1.354,19.373-2.583c6.594-1.27,13.008-3.451,19.573-4.901
			c4.366-0.965,8.908-1.123,13.289-2.037c9.965-2.079,19.076,2.304,28.602,3.491c1.572,0.196,3.13,0.538,4.679,0.879
			c4.299,0.944,8.572,2.006,12.886,2.872c6.806,1.367,13.617,2.736,20.464,3.865c4.228,0.697,6.112,2.693,7.381,6.778
			c3.038,9.774,6.547,19.401,9.739,29.129c2.219,6.762,4.251,13.585,6.3,20.4c0.232,0.773,0.032,1.677,0.032,2.4
			C209.408,251.447,152.856,251.447,95.066,251.447z M185.99,208.34c4.16-5.403,4.218-5.794,1.399-9.276
			c-0.303-0.374-0.625-0.987-0.984-1.022c-4.579-0.451-9.174-0.94-13.387,0.13c2,8.071-2.62,14.165-3.849,21.304
			c-0.17-0.245-0.077,0.044,0.113,0.14c4.236,2.137,8.609,1.312,12.874,0.302c5.319-1.26,6.968-5.004,4.735-10.082
			C186.654,209.292,186.279,208.812,185.99,208.34z"/>
		<path fill-rule="evenodd" clip-rule="evenodd" fill="#FFFFFF" d="M189.658,40.886c1.032,0.069,2.139,0.144,4.025,0.271
			c-0.565-1.532-0.987-2.676-1.531-4.15c0.518-0.895,1.319-2.277,2.58-4.452c17.313,52.369,34.442,104.181,51.89,156.955
			c-3.812-0.821-6.759-1.467-9.711-2.088c-9.631-2.027-19.266-4.037-28.897-6.067c-8.859-1.866-17.71-3.774-26.58-5.59
			c-0.867-0.177-1.86,0.094-2.762,0.299c-0.817,0.188-1.567,0.682-2.386,0.848c-14.001,2.848-28,5.707-42.02,8.456
			c-3.129,0.613-6.339,0.814-9.867,1.249C146.231,137.861,167.854,89.573,189.658,40.886z M184.667,133.319
			c0.75-0.997,2.144-2.543,1.999-2.705c-1.438-1.597-0.032-2.938,0.076-4.375c0.057-0.752-0.335-1.668-0.819-2.276
			c-0.249-0.313-1.657-0.202-1.669-0.131c-0.47,2.712-0.888,5.438-1.156,8.176C183.066,132.326,183.938,132.732,184.667,133.319z
			 M180.76,156.988c0.029,0.025,0.725,0.632,1.421,1.238c0.584-0.741,1.396-1.399,1.699-2.241c0.454-1.263,0.858-2.691,0.699-3.978
			c-0.123-0.986-1.148-1.86-1.772-2.784c-0.682,0.671-1.795,1.252-1.955,2.029C180.54,152.771,180.76,154.398,180.76,156.988z
			 M182.161,137.254c0.259,0.093,0.517,0.187,0.776,0.281c-0.294,0.768-0.731,1.515-0.847,2.31
			c-0.143,0.976-0.231,2.071,0.099,2.948c0.132,0.348,1.901,0.596,2.135,0.289c0.581-0.765,0.829-1.856,0.981-2.852
			c0.126-0.827-0.059-1.706-0.133-2.56c-0.096-1.107-0.218-2.212-0.329-3.318c-0.569,0.086-1.432-0.025-1.648,0.297
			C182.686,135.407,182.486,136.373,182.161,137.254z M188.053,77.546c0.604,0.204,1.208,0.406,1.811,0.61
			c0.248-0.661,0.657-1.31,0.712-1.986c0.176-2.147,0.327-4.31,0.229-6.455c-0.021-0.463-1.121-0.877-1.724-1.313
			c-0.504,0.74-1.243,1.418-1.454,2.233c-0.29,1.115-0.287,2.342-0.207,3.507C187.5,75.285,187.833,76.412,188.053,77.546z
			 M180.064,168.412c-0.482,1.554-0.975,2.564-1.002,3.588c-0.008,0.293,1.326,0.623,2.045,0.937
			c0.279-1.033,0.603-2.057,0.824-3.103c0.255-1.201,0.593-2.428,0.553-3.632c-0.021-0.625-0.778-1.226-1.203-1.838
			c-0.716,0.535-1.954,1.009-2.024,1.618C179.151,166.893,179.869,167.897,180.064,168.412z M181.517,164.144
			c0.93-1.23,1.879-1.981,2.024-2.863c0.089-0.539-1.27-1.92-1.608-1.809c-0.878,0.292-1.934,1.087-2.176,1.901
			C179.588,161.936,180.657,162.866,181.517,164.144z"/>
		<path fill-rule="evenodd" clip-rule="evenodd" fill="#FFFFFF" d="M45.322,202.388c1.979-2.692,3.28-4.785,4.894-6.598
			c6.649-7.475,13.477-14.791,20.079-22.306c6.317-7.19,12.387-14.599,18.661-21.828c4.536-5.227,9.331-10.231,13.818-15.499
			c3.544-4.161,6.692-8.657,10.205-12.847c3.929-4.688,8.134-9.144,12.103-13.798c4.602-5.396,8.978-10.986,13.639-16.33
			c4.412-5.059,9.146-9.836,13.588-14.871c3.376-3.826,6.475-7.895,9.771-11.792c3.927-4.643,7.957-9.199,11.896-13.831
			c2.767-3.254,5.463-6.568,8.178-9.866c0.802-0.975,1.558-1.985,2.335-2.979c0.296,0.138,0.592,0.275,0.888,0.414
			c-0.166,1.253-0.019,2.66-0.547,3.736c-4.542,9.251-9.43,18.338-13.762,27.685c-3.396,7.329-6.008,15.017-9.241,22.427
			c-1.904,4.362-4.587,8.384-6.486,12.747c-3.516,8.083-6.49,16.405-10.101,24.443c-4.58,10.193-9.606,20.186-14.362,30.3
			c-1.766,3.754-3.325,7.605-4.959,11.421c-1.834,4.284-3.372,8.729-5.611,12.788c-0.842,1.525-3.178,2.756-5.027,3.115
			c-16.247,3.155-32.557,5.989-48.807,9.131c-5.956,1.151-11.797,2.891-17.702,4.315C48.086,202.529,47.329,202.388,45.322,202.388z
			"/>
		<path fill-rule="evenodd" clip-rule="evenodd" fill="#FFFFFF" d="M204.485,45.624c3.013,4.195,6.054,8.37,9.031,12.59
			c2.762,3.915,5.439,7.888,8.18,11.816c3.411,4.889,6.78,9.808,10.291,14.624c4.762,6.533,9.744,12.906,14.446,19.48
			c7.136,9.98,14.141,20.055,21.147,30.126c4.043,5.812,7.848,11.792,12.001,17.522c4.617,6.371,9.592,12.481,14.251,18.821
			c3.567,4.854,6.827,9.931,10.331,14.831c4.339,6.069,8.79,12.061,13.847,18.979c-9.09-1.767-17.216-3.219-25.281-4.955
			c-6.203-1.335-12.293-3.191-18.497-4.521c-6.826-1.463-13.769-2.397-20.554-4.011c-1.504-0.357-3.144-2.382-3.729-3.998
			c-3.401-9.39-6.614-18.854-9.681-28.36c-2.984-9.249-5.604-18.616-8.592-27.865c-3.127-9.68-6.601-19.249-9.74-28.925
			c-3.131-9.651-5.908-19.418-9.087-29.053c-1.958-5.937-4.471-11.688-6.553-17.587c-1.05-2.975-1.694-6.092-2.523-9.145
			C204.011,45.87,204.248,45.747,204.485,45.624z"/>
		<path fill-rule="evenodd" clip-rule="evenodd" fill="#FFFFFF" d="M46.161,207.09c23.67-4.776,46.797-9.441,70.343-14.192
			c-2.741,5.646-5.486,10.904-7.867,16.321c-2.202,5.012-3.953,10.218-6.022,15.29c-0.903,2.213-2.196,4.264-3.15,6.459
			c-1.717,3.951-3.307,7.958-4.958,11.938c-1.76,4.241-3.432,4.424-6.726,1.407c-4.08-3.736-8.586-7.002-12.717-10.687
			c-4.118-3.673-7.992-7.619-11.993-11.425c-0.528-0.501-1.191-0.856-1.767-1.312c-4.575-3.615-9.164-7.214-13.688-10.892
			C47.097,209.576,46.945,208.704,46.161,207.09z"/>
		<path fill-rule="evenodd" clip-rule="evenodd" fill="#FFFFFF" d="M270.85,248.245c-5.915-17.744-11.631-34.894-17.349-52.044
			c0.347-0.348,0.693-0.695,1.04-1.041c6.42,1.662,12.799,3.512,19.273,4.931c5.904,1.295,11.933,2.008,17.866,3.182
			c7.521,1.487,15.006,3.161,22.49,4.828c0.64,0.142,1.157,0.833,1.792,1.317C301.06,222.243,286.315,234.935,270.85,248.245z"/>
		<path fill-rule="evenodd" clip-rule="evenodd" fill="#FFFFFF" d="M800.72,225.584c-1.151-0.253-2.574-0.158-3.413-0.813
			c-7.377-5.759-16.524-6.693-25.074-8.833c-18.301-4.579-37.104-6.263-55.903-6.848c-18.573-0.577-37.212-0.773-55.76,0.141
			c-15.634,0.771-31.282,2.761-46.725,5.386c-10.034,1.705-19.709,5.519-29.679,8.427c0.71-1.601,1.561-3.874,2.692-5.998
			c2.482-4.662,4.988-9.319,7.7-13.848c4.991-8.332,10.208-16.528,15.202-24.858c5.336-8.902,10.574-17.865,15.761-26.857
			c3.563-6.177,6.971-12.445,10.437-18.679c4.926-8.86,9.772-17.767,14.781-26.582c5.703-10.037,11.611-19.957,17.305-29.999
			c3.841-6.773,7.376-13.719,11.211-20.495c3.757-6.639,7.692-13.177,11.631-19.711c0.446-0.74,1.417-1.164,2.145-1.735
			c0.551,0.703,1.182,1.357,1.639,2.117c2.028,3.376,4.061,6.751,5.989,10.185c2.776,4.941,5.491,9.919,8.182,14.908
			c3.732,6.918,7.275,13.942,11.162,20.771c4.219,7.413,8.922,14.55,13.074,21.997c4.01,7.189,7.551,14.64,11.381,21.931
			c0.959,1.828,2.342,3.43,3.35,5.237c5.595,10.027,10.995,20.165,16.729,30.112c6.545,11.358,13.463,22.503,20.038,33.845
			c4.147,7.155,7.919,14.529,11.952,21.753c1.473,2.638,3.214,5.125,4.832,7.681C801.146,225.072,800.933,225.328,800.72,225.584z"
			/>
		<path fill-rule="evenodd" clip-rule="evenodd" fill="#FFFFFF" d="M804.187,236.831c-3.599,6.534-9.824,9.205-17.122,10.381
			c-2.292,0.369-4.394,1.835-6.628,2.675c-1.885,0.708-4.33,2.283-5.669,1.652c-4.525-2.131-7.93,1.14-11.852,1.608
			c-2.796,0.334-5.568,0.875-8.362,1.231c-5.487,0.7-10.976,1.407-16.479,1.976c-5.272,0.545-10.555,1.12-15.846,1.316
			c-7.535,0.281-15.083,0.25-22.626,0.314c-4.485,0.038-8.974-0.022-13.46,0.02c-1.279,0.012-2.604,0.504-3.825,0.293
			c-2.435-0.421-5.774,0.867-6.855-2.981c0.255,0.722,0.51,1.442,0.893,2.527c-3.756-1-8.215,2.035-10.768-3.06
			c-1.165,3.169-2.132,1.12-2.574,0.448c-1.656,0.794-3.039,2.058-4.329,1.969c-4.617-0.319-9.208-1.069-13.801-1.71
			c-3.628-0.506-7.27-0.963-10.854-1.696c-1.722-0.352-4.339,0.379-4.587-2.725c-0.009-0.105-1.893-0.185-1.896-0.148
			c-0.497,3.938-3.212,1.64-4.836,1.558c-3.219-0.161-6.454-0.598-9.605-1.275c-1.826-0.393-3.505-1.476-5.89-2.532
			c-0.612,0.114-2.315,0.43-4.689,0.87c0.607-1.473,0.985-2.386,1.243-3.011c-2.571-0.553-5.159-1.108-8.066-1.732
			c0.11-0.442,0.287-1.148,0.591-2.366c-3.278,0.42-6.375,0.817-9.529,1.223c-0.835-1.843-1.597-3.524-2.215-4.889
			c-1.502-0.997-4.276-2.059-4.226-2.961c0.126-2.234,0.933-5.405,2.562-6.396c4.479-2.72,9.524-4.513,14.738-6.171
			c-0.752,0.865-1.505,1.729-2.257,2.595c1.988,1.078,2.9,0.414,4.438-3.541c0.441,1.1,0.756,1.885,1.158,2.888
			c0.473-0.368,0.98-0.576,1.177-0.949c1.409-2.677,3.246-3.93,6.594-4.272c6.664-0.681,13.219-2.385,19.835-3.573
			c2.756-0.495,5.656-0.979,5.704,3.361c0.006,0.471,0.7,0.934,1.333,1.723c0.805-1.477,1.498-2.747,2.103-3.855
			c-0.045-0.015-1.086-0.384-2.127-0.751c-0.035-0.331-0.07-0.662-0.104-0.993c1.598-0.165,3.195-0.34,4.795-0.492
			c5.156-0.495,10.305-1.179,15.473-1.416c5.381-0.246,10.781-0.061,16.175-0.059c0.481,0,1.086,0.237,1.428,0.028
			c5.649-3.454,11.507-0.481,17.255-0.61c5.297-0.119,10.602-0.402,15.89-0.225c3.437,0.114,6.847,0.955,10.276,1.408
			c1.289,0.17,2.709,0.529,3.885,0.18c5.478-1.628,10.728-0.059,16.012,0.914c0.861,0.159,1.592,1.027,2.403,0.869
			c3.575,0,7.151,0,11.133,0c-0.359,1.361-0.676,2.561-1.211,4.591c1.511-1.446,2.426-2.322,3.403-3.257
			c6.308,0.636,12.763,1.287,19.522,1.969c-0.437,0.887-0.746,1.518-1.012,2.059c1.462-0.109,2.758-0.366,4.022-0.258
			c1.251,0.105,2.47,0.58,3.702,0.893c-0.527,1.075-1.069,2.144-1.567,3.231c-0.094,0.203-0.014,0.485-0.014,0.915
			c1.564,0,3.129,0,4.694,0c-0.025-0.248-0.051-0.496-0.076-0.744c-0.683,0.152-1.366,0.306-2.304,0.516
			c0.458-1.317,0.886-2.547,1.459-4.191C789.132,226.407,800.092,225.639,804.187,236.831z M695.968,236.709
			c1.196-0.449,2.562-0.537,2.922-1.185c0.81-1.454,1.54-3.195,1.499-4.8c-0.029-1.212-1.231-3.367-2.035-3.427
			c-4.51-0.336-9.057-0.162-13.621-0.162c0.521,1.844,1.601,3.497,1.195,4.608c-1.926,5.279-4.1,10.486-6.518,15.561
			c-1.008,2.114,0.073,3.159,1.459,3.166c4.112,0.021,8.313-0.049,12.312-0.881c2.423-0.504,4.918-1.186,5.554-5.257
			C699.284,240.81,696.815,239.584,695.968,236.709z M768.176,244.941c2.594,0.368,4.615,0.654,6.636,0.94
			c0.046-0.353,0.091-0.705,0.137-1.059c-1.191-0.98-2.383-1.962-3.341-2.75C770.35,243.125,769.321,243.984,768.176,244.941z
			 M737.088,222.141c-0.372,0.449-0.744,0.899-1.115,1.348c0.066,3.105,2.042,3.357,5.688,2.636
			C739.75,224.46,738.419,223.301,737.088,222.141z M729.984,249.147c0.184-0.154,0.367-0.309,0.55-0.463
			c-1.173-1.402-2.346-2.804-3.731-4.458c-1.025,1.355-1.646,2.176-2.397,3.167C726.548,248.067,728.266,248.607,729.984,249.147z"
			/>
		<path fill-rule="evenodd" clip-rule="evenodd" d="M185.99,208.34c0.289,0.472,0.664,0.952,0.901,1.494
			c2.232,5.078,0.583,8.822-4.735,10.082c-4.265,1.01-8.637,1.835-12.874-0.302c-0.19-0.096-0.284-0.385-0.113-0.14
			c1.229-7.139,5.849-13.232,3.849-21.304c4.213-1.07,8.808-0.581,13.387-0.13c0.359,0.035,0.681,0.648,0.984,1.022
			C190.208,202.546,190.15,202.937,185.99,208.34z M177.442,217.234c2.982-1.004,4.827-2.598,4.403-5.644
			c-0.082-0.59-2.06-1.604-2.601-1.325C176.313,211.772,176.98,214.405,177.442,217.234z"/>
		<path fill-rule="evenodd" clip-rule="evenodd" d="M184.667,133.319c-0.728-0.587-1.6-0.993-1.569-1.311
			c0.268-2.738,0.686-5.464,1.156-8.176c0.012-0.071,1.421-0.182,1.669,0.131c0.483,0.608,0.875,1.524,0.819,2.276
			c-0.108,1.437-1.515,2.778-0.076,4.375C186.811,130.776,185.417,132.322,184.667,133.319z"/>
		<path fill-rule="evenodd" clip-rule="evenodd" d="M180.76,156.988c0-2.59-0.22-4.217,0.092-5.735
			c0.16-0.777,1.272-1.358,1.955-2.029c0.624,0.924,1.649,1.798,1.772,2.784c0.16,1.286-0.245,2.715-0.699,3.978
			c-0.303,0.842-1.115,1.5-1.699,2.241C181.485,157.62,180.789,157.014,180.76,156.988z"/>
		<path fill-rule="evenodd" clip-rule="evenodd" d="M182.161,137.254c0.325-0.882,0.525-1.847,1.034-2.605
			c0.216-0.322,1.079-0.211,1.648-0.297c0.111,1.106,0.233,2.211,0.329,3.318c0.074,0.854,0.259,1.732,0.133,2.56
			c-0.152,0.996-0.4,2.087-0.981,2.852c-0.234,0.307-2.003,0.06-2.135-0.289c-0.33-0.877-0.241-1.973-0.099-2.948
			c0.116-0.795,0.553-1.542,0.847-2.31C182.678,137.441,182.42,137.348,182.161,137.254z"/>
		<path fill-rule="evenodd" clip-rule="evenodd" d="M188.053,77.546c-0.22-1.134-0.553-2.261-0.632-3.405
			c-0.08-1.165-0.083-2.392,0.207-3.507c0.211-0.815,0.95-1.494,1.454-2.233c0.603,0.437,1.703,0.851,1.724,1.313
			c0.098,2.145-0.054,4.308-0.229,6.455c-0.056,0.677-0.465,1.325-0.712,1.986C189.26,77.952,188.656,77.75,188.053,77.546z"/>
		<path fill-rule="evenodd" clip-rule="evenodd" d="M180.064,168.412c-0.196-0.515-0.913-1.52-0.807-2.43
			c0.071-0.609,1.309-1.083,2.024-1.618c0.424,0.612,1.182,1.213,1.203,1.838c0.04,1.204-0.297,2.431-0.553,3.632
			c-0.222,1.046-0.545,2.069-0.824,3.103c-0.719-0.313-2.053-0.644-2.045-0.937C179.09,170.977,179.582,169.966,180.064,168.412z"/>
		<path fill-rule="evenodd" clip-rule="evenodd" d="M181.517,164.144c-0.86-1.277-1.928-2.208-1.76-2.771
			c0.242-0.814,1.297-1.609,2.176-1.901c0.339-0.111,1.697,1.27,1.608,1.809C183.396,162.162,182.447,162.913,181.517,164.144z"/>
		<path fill-rule="evenodd" clip-rule="evenodd" d="M695.968,236.709c0.848,2.875,3.316,4.101,2.767,7.624
			c-0.636,4.071-3.131,4.753-5.554,5.257c-3.999,0.832-8.199,0.901-12.312,0.881c-1.386-0.007-2.467-1.052-1.459-3.166
			c2.418-5.074,4.592-10.281,6.518-15.561c0.405-1.111-0.675-2.765-1.195-4.608c4.564,0,9.111-0.174,13.621,0.162
			c0.804,0.06,2.006,2.215,2.035,3.427c0.041,1.604-0.689,3.346-1.499,4.8C698.529,236.172,697.164,236.26,695.968,236.709z
			 M686.611,246.198c1.798-0.263,3.602-0.028,4.688-0.801c1.68-1.195,2.189-3.266,0.985-5.219c-0.37-0.601-1.349-1.192-2.004-1.146
			c-0.642,0.044-1.495,0.787-1.782,1.434C687.822,241.988,687.428,243.634,686.611,246.198z M689.953,235.085
			c4.251,0.209,4.956-0.998,2.799-5.912C691.846,231.088,690.939,233.003,689.953,235.085z"/>
		<path fill-rule="evenodd" clip-rule="evenodd" d="M768.176,244.941c1.146-0.957,2.174-1.816,3.432-2.868
			c0.958,0.788,2.149,1.77,3.341,2.75c-0.046,0.354-0.091,0.706-0.137,1.059C772.791,245.596,770.77,245.31,768.176,244.941z"/>
		<path fill-rule="evenodd" clip-rule="evenodd" d="M737.088,222.141c1.331,1.16,2.662,2.319,4.572,3.983
			c-3.646,0.722-5.621,0.47-5.688-2.636C736.344,223.04,736.716,222.59,737.088,222.141z"/>
		<path fill-rule="evenodd" clip-rule="evenodd" d="M729.984,249.147c-1.719-0.54-3.437-1.08-5.579-1.754
			c0.751-0.991,1.372-1.812,2.397-3.167c1.386,1.654,2.559,3.056,3.731,4.458C730.352,248.839,730.168,248.993,729.984,249.147z"/>
		<path fill-rule="evenodd" clip-rule="evenodd" fill="#FFFFFF" d="M177.442,217.234c-0.462-2.829-1.129-5.462,1.802-6.969
			c0.541-0.278,2.519,0.735,2.601,1.325C182.27,214.637,180.425,216.23,177.442,217.234z"/>
		<path fill-rule="evenodd" clip-rule="evenodd" fill="#FFFFFF" d="M686.611,246.198c0.816-2.564,1.211-4.21,1.887-5.731
			c0.287-0.646,1.141-1.39,1.782-1.434c0.655-0.047,1.634,0.545,2.004,1.146c1.204,1.953,0.694,4.023-0.985,5.219
			C690.213,246.17,688.409,245.936,686.611,246.198z"/>
		<path fill-rule="evenodd" clip-rule="evenodd" fill="#FFFFFF" d="M689.953,235.085c0.986-2.082,1.893-3.997,2.799-5.912
			C694.909,234.087,694.204,235.294,689.953,235.085z"/>
	</g>
</g>
</svg>
