<?xml version="1.0" encoding="utf-8"?>
<!-- Generator: Adobe Illustrator 16.0.0, SVG Export Plug-In . SVG Version: 6.00 Build 0)  -->
<!DOCTYPE svg PUBLIC "-//W3C//DTD SVG 1.1//EN" "http://www.w3.org/Graphics/SVG/1.1/DTD/svg11.dtd">
<svg version="1.1" id="Layer_1" xmlns="http://www.w3.org/2000/svg" xmlns:xlink="http://www.w3.org/1999/xlink" x="0px" y="0px"
	 width="578.331px" height="355.55px" viewBox="0 0 578.331 355.55" enable-background="new 0 0 578.331 355.55"
	 xml:space="preserve">
<g>
	<g>
		<path fill-rule="evenodd" clip-rule="evenodd" fill="#FFFFFF" d="M0.75,0.75c192.777,0,385.554,0,578.331,0
			c0,118.517,0,237.033,0,355.55c-192.777,0-385.554,0-578.331,0C0.75,237.783,0.75,119.267,0.75,0.75z M493.096,276.678
			c0.05,0.301,0.101,0.601,0.15,0.902c8.955-0.516,17.909-1.037,26.864-1.542c2.209-0.125,3.074-1.142,1.841-3.113
			c-1.081-1.729-2.41-3.312-3.727-4.877c-1.023-1.216-2.271-2.245-3.283-3.469c-1.217-1.473-2.242-3.103-3.438-4.594
			c-1.247-1.553-2.603-3.019-3.901-4.53c-1.044-1.216-1.994-2.525-3.127-3.65c-3.208-3.18-6.679-6.115-9.689-9.468
			c-3.462-3.854-6.46-8.118-9.809-12.078c-3.323-3.929-6.883-7.655-10.245-11.552c-4.993-5.784-9.817-11.716-14.879-17.438
			c-3.553-4.017-7.489-7.692-11.051-11.699c-3.084-3.471-5.822-7.247-8.835-10.784c-1.551-1.823-3.499-3.31-5.036-5.143
			c-2.605-3.106-4.892-6.487-7.562-9.533c-3.511-4.004-7.328-7.739-10.874-11.715c-1.038-1.164-1.377-2.955-2.42-4.112
			c-4.301-4.768-8.742-9.409-13.146-14.083c-3.771-4.001-7.679-7.879-11.306-12.005c-3.133-3.562-5.835-7.502-8.945-11.086
			c-5.376-6.197-10.941-12.231-16.387-18.369c-1.801-2.03-3.429-4.213-5.22-6.252c-3.696-4.207-7.47-8.345-11.166-12.551
			c-1.119-1.271-1.992-2.764-3.146-3.998c-3.25-3.475-6.618-6.839-9.878-10.306c-1.949-2.073-3.776-4.261-5.672-6.386
			c-0.783-0.879-1.956-1.599-2.33-2.619c-0.85-2.322-2.44-3.032-4.629-2.714c-6.632,0.965-13.299,1.156-19.833,3.435
			c-5.813,2.026-12.207,2.492-18.385,3.35c-8.683,1.206-17.405,2.128-26.106,3.2c-0.595,0.074-1.152,0.419-1.744,0.57
			c-4.001,1.022-7.985,2.137-12.024,2.988c-1.808,0.381-3.762,0.033-5.593,0.346c-4.603,0.788-9.137,2.131-13.764,2.581
			c-7.073,0.688-14.056,1.158-20.938,3.492c-5.418,1.838-11.336,2.197-17.028,3.243c-7.458,1.369-15.002,1.533-22.493,3.605
			c-9.871,2.731-20.332,3.352-30.551,4.792c-2.763,0.39-4.902,1.356-5.855,4.196c-1.523,4.531-3.261,8.996-4.624,13.574
			c-2.209,7.418-4.208,14.899-6.262,22.362c-2.725,9.899-5.417,19.808-8.124,29.711c-2.34,8.564-4.73,17.116-7.01,25.697
			c-2.936,11.056-5.853,22.118-8.645,33.21c-1.695,6.733-2.952,13.579-4.742,20.286c-2.136,8.004-4.684,15.896-6.955,23.867
			c-2.066,7.249-3.981,14.541-6.001,21.803c-1.656,5.954-3.399,11.884-5.046,17.841c-1.291,4.671-2.711,9.324-3.608,14.073
			c-0.3,1.591,0.784,4.944,1.321,4.962c6.106,0.207,12.266,0.291,18.333-0.343c5.065-0.529,9.982-2.622,15.043-3.018
			c11.542-0.904,23.139-1.074,34.701-1.758c15.782-0.933,31.551-2.081,47.328-3.101c3.198-0.206,6.459,0.069,9.598-0.449
			c4.276-0.705,8.418-2.547,12.695-2.864c12.035-0.896,24.185-0.615,36.147-2.019c11.911-1.398,23.887-0.619,35.843-3.074
			c12.216-2.508,24.993-2.334,37.532-3.213c15.268-1.07,30.534-2.201,45.819-2.942c9.277-0.449,18.58-0.108,27.702-2.46
			c2.347-0.605,4.923-0.287,7.385-0.487c9.383-0.769,18.752-1.776,28.146-2.318c14.071-0.811,28.161-1.297,42.241-1.941
			c0.993-0.046,1.982-0.233,2.966-0.401C477.513,279.373,485.304,278.023,493.096,276.678z M544.563,252.444
			c0.088,2.957,0.601,5.124,0.128,7.048c-1.466,5.953-3.177,11.856-5.035,17.701c-2.255,7.085-2.356,7.167,5.426,6.772
			c6.542-0.332,12.922-0.218,18.114-6.088c4.079-4.611,6.758-12.072,3.928-17.749c-0.91-1.825-1.893-3.616-3.311-6.318
			C557.574,253.367,550.709,252.881,544.563,252.444z M100.611,49.551c0.965,10.996-2.738,20.395-6.79,29.871
			c5.104,0,10.717,0.489,16.199-0.147c4.786-0.556,7.378-4.137,6.976-8.804c-0.212-2.463-1.651-4.821-2.536-7.224
			c3.301-0.931,5.634-3.568,4.769-7.139c-0.591-2.438-2.896-5.819-4.972-6.262C109.771,48.889,104.94,49.551,100.611,49.551z
			 M281.57,324.796c-4.759,1.688-8.665,2.574-12.059,4.407c-3.928,2.122-4.502,6.552-4.974,10.521
			c-0.219,1.843,0.341,4.985,1.483,5.511c1.958,0.903,4.926,0.866,6.95,0.003c1.843-0.784,2.609-1.268,4.362,0.211
			c0.958,0.81,3.309,0.365,4.846-0.11c0.568-0.176,1.171-2.332,0.792-3.126c-2.277-4.778,0.268-8.766,1.653-13.017
			c1.565-4.802,2.844-9.697,4.299-14.734c-3.037,0-5.094,0-6.656,0C281.99,318.563,281.734,322.363,281.57,324.796z M33.869,299.308
			c0.278,0.27,0.556,0.539,0.834,0.809c-3.638,4.78-7.819,9.253-10.76,14.431c-2.864,5.041-7.973,8.658-10.125,14.632
			c5.661,0.322,5.61,0.312,6.569-4.166c0.223-1.04,0.808-2.054,1.418-2.949c1.474-2.162,7.446-3.526,7.984-1.771
			c0.664,2.166-0.442,4.886-0.886,7.348c-0.023,0.13-1,0.087-1.533,0.124c0.335,0.417,0.67,0.834,1.005,1.251
			c3.108,0,6.217,0,9.077,0c-3.819-10.063,1.125-20.004-0.197-30.072C35.986,299.079,34.927,299.193,33.869,299.308z
			 M236.238,24.741c1.444-3.267,2.718-5.755,3.625-8.37c0.432-1.248,0.724-3.205,0.066-3.987c-0.685-0.815-2.821-1.128-3.892-0.665
			c-0.813,0.351-1.064,2.238-1.349,3.491c-0.242,1.062,0.022,2.25-0.276,3.284c-1.734,5.995-3.664,11.935-5.311,17.953
			c-0.466,1.708-0.943,4.607-0.121,5.218c1.563,1.161,4.059,1.067,6.965,1.656c-1.401-1.946-2.817-3.062-2.646-3.821
			c0.8-3.559,1.618-7.244,3.313-10.412c0.747-1.395,3.562-1.821,5.532-2.259c0.269-0.06,1.548,2.364,1.573,3.654
			c0.08,4.006-0.222,7.989-4.748,9.917c-0.526,0.224-0.764,1.128-1.443,2.203c1.477,0,2.509,0.25,3.354-0.042
			c3.868-1.343,8.306-8.474,8.097-12.792c-0.259-5.372-4.02-7.664-8.948-5.54C239.212,24.581,238.207,24.493,236.238,24.741z
			 M36.49,199.69c-0.227,6.015,3.41,8.562,8.049,6.324c1.605-0.774,2.582-1.835,4.439-0.058c0.792,0.759,3.448,0.296,4.764-0.464
			c0.965-0.558,1.96-3.146,1.512-3.729c-2.984-3.877-0.229-7.241,0.585-10.735c0.395-1.693,2.063-3.511,1.693-4.875
			c-0.815-3.01-3.349-0.31-4.934-0.799c-4.704-1.449-7.214,0.252-10.815,3.73C38.08,192.663,37.486,196.406,36.49,199.69z
			 M355.768,11.515c-0.941,0.063-1.768-0.022-2.511,0.19c-2.842,0.813-4.874,2.948-7.229,4.446
			c-3.861,2.456-5.579,5.848-7.159,9.553c-2.349,5.506-0.882,12.992,3.093,15.339c4.738,2.798,10.052,2.4,15.086,0.961
			c2.152-0.616,5.146-1.148,5.993-4.977c-2.507,1.034-4.332,1.92-6.241,2.552c-7.772,2.572-13.413-0.345-14.003-6.99
			c-0.548-6.159,3.094-10.576,6.356-15.126c0.361-0.504,1.22-0.873,1.87-0.91C354.023,16.385,355.199,14.53,355.768,11.515z
			 M461.264,131.695c-2.13,0.972-3.932,1.84-5.77,2.621c-2.043,0.868-5.713-0.838-5.998-2.735c-0.431-2.861,3.128-9.215,5.92-9.844
			c1.232-0.278,2.793,0.57,4.111,1.127c0.818,0.346,1.462,1.105,2.184,1.679c0.659-0.897,1.695-1.724,1.883-2.71
			c0.237-1.252-0.216-2.635-0.427-4.439c-4.306,1.109-8.036-0.679-12.199,3.513c-4.44,4.471-5.405,8.531-4.803,13.914
			c0.106,0.944,0.398,2.468,0.962,2.657c2.349,0.787,5.207,2.181,7.182,1.456C457.213,137.865,461.573,137.226,461.264,131.695z
			 M367.041,12.458c-3.092,0-5.196-0.063-7.293,0.038c-0.643,0.032-1.264,0.517-1.895,0.794c0.376,0.661,0.594,1.669,1.155,1.924
			c2.555,1.165,3.437,3.221,3.741,5.811c0.093,0.782,0.744,1.499,1.141,2.246c0.276-0.065,0.554-0.13,0.83-0.195
			C365.442,19.773,366.165,16.469,367.041,12.458z M389.757,342.269c1.181-1.837,2.168-2.729,2.216-3.669
			c0.032-0.651-1.258-1.942-1.902-1.909c-0.786,0.042-2.047,1.115-2.128,1.85C387.848,339.415,388.785,340.404,389.757,342.269z"/>
		<path fill-rule="evenodd" clip-rule="evenodd" d="M493.096,276.678c-7.792,1.346-15.583,2.695-23.376,4.033
			c-0.983,0.168-1.973,0.355-2.966,0.401c-14.08,0.645-28.17,1.131-42.241,1.941c-9.395,0.542-18.764,1.55-28.146,2.318
			c-2.462,0.2-5.038-0.118-7.385,0.487c-9.122,2.352-18.425,2.011-27.702,2.46c-15.285,0.741-30.552,1.872-45.819,2.942
			c-12.539,0.879-25.315,0.705-37.532,3.213c-11.956,2.455-23.932,1.676-35.843,3.074c-11.962,1.403-24.113,1.122-36.147,2.019
			c-4.277,0.317-8.419,2.159-12.695,2.864c-3.138,0.519-6.399,0.243-9.598,0.449c-15.777,1.02-31.546,2.168-47.328,3.101
			c-11.562,0.684-23.159,0.854-34.701,1.758c-5.061,0.396-9.978,2.488-15.043,3.018c-6.067,0.634-12.228,0.55-18.333,0.343
			c-0.537-0.018-1.621-3.371-1.321-4.962c0.897-4.749,2.318-9.402,3.608-14.073c1.646-5.957,3.39-11.887,5.046-17.841
			c2.02-7.262,3.935-14.554,6.001-21.803c2.271-7.971,4.819-15.863,6.955-23.867c1.79-6.707,3.047-13.553,4.742-20.286
			c2.792-11.093,5.708-22.154,8.645-33.21c2.279-8.581,4.669-17.132,7.01-25.697c2.707-9.904,5.399-19.812,8.124-29.711
			c2.054-7.463,4.053-14.944,6.262-22.362c1.363-4.578,3.101-9.042,4.624-13.574c0.954-2.839,3.092-3.806,5.855-4.196
			c10.22-1.439,20.68-2.061,30.551-4.792c7.491-2.072,15.035-2.236,22.493-3.605c5.691-1.045,11.609-1.405,17.028-3.243
			c6.882-2.334,13.865-2.804,20.938-3.492c4.627-0.45,9.161-1.792,13.764-2.581c1.831-0.313,3.786,0.035,5.593-0.346
			c4.039-0.852,8.023-1.966,12.024-2.988c0.592-0.151,1.149-0.496,1.744-0.57c8.702-1.072,17.424-1.995,26.106-3.2
			c6.178-0.858,12.571-1.324,18.385-3.35c6.534-2.278,13.201-2.469,19.833-3.435c2.188-0.318,3.779,0.392,4.629,2.714
			c0.374,1.02,1.547,1.74,2.33,2.619c1.896,2.125,3.723,4.313,5.672,6.386c3.26,3.466,6.628,6.831,9.878,10.306
			c1.153,1.234,2.026,2.727,3.146,3.998c3.696,4.206,7.47,8.344,11.166,12.551c1.791,2.039,3.419,4.222,5.22,6.252
			c5.445,6.138,11.011,12.172,16.387,18.369c3.11,3.583,5.813,7.524,8.945,11.086c3.627,4.126,7.535,8.004,11.306,12.005
			c4.404,4.674,8.846,9.315,13.146,14.083c1.043,1.157,1.382,2.948,2.42,4.112c3.546,3.976,7.363,7.711,10.874,11.715
			c2.67,3.046,4.956,6.427,7.562,9.533c1.537,1.833,3.485,3.32,5.036,5.143c3.013,3.537,5.751,7.313,8.835,10.784
			c3.562,4.007,7.498,7.683,11.051,11.699c5.062,5.722,9.886,11.653,14.879,17.438c3.362,3.896,6.922,7.623,10.245,11.552
			c3.349,3.96,6.347,8.225,9.809,12.078c3.011,3.353,6.481,6.288,9.689,9.468c1.133,1.125,2.083,2.435,3.127,3.65
			c1.299,1.512,2.654,2.978,3.901,4.53c1.196,1.491,2.222,3.121,3.438,4.594c1.012,1.224,2.26,2.253,3.283,3.469
			c1.316,1.565,2.646,3.148,3.727,4.877c1.233,1.972,0.368,2.988-1.841,3.113c-8.955,0.505-17.909,1.026-26.864,1.542
			C493.196,277.278,493.146,276.979,493.096,276.678z M72.032,306.005c2.457,0,3.935,0.1,5.395-0.017
			c10.925-0.868,21.845-1.791,32.768-2.672c9.671-0.779,19.348-1.492,29.017-2.298c12.287-1.024,24.56-2.228,36.854-3.139
			c10.189-0.756,20.409-1.093,30.6-1.831c4.815-0.35,9.597-1.186,14.39-1.839c3.336-0.455,6.649-1.197,9.999-1.426
			c15.528-1.061,31.067-1.967,46.601-2.967c17.121-1.103,34.324-0.588,51.337-3.892c7.983-1.551,16.34-1.177,24.528-1.663
			c1.495-0.09,2.997-0.08,4.491-0.188c12.805-0.931,25.604-1.95,38.416-2.792c7.494-0.493,15.071-0.16,22.31-2.726
			c0.576-0.204,1.22-0.27,1.838-0.3c6.303-0.316,12.614-0.51,18.911-0.929c19.384-1.293,38.758-2.714,58.142-3.984
			c4.731-0.311,9.488-0.19,14.229-0.389c0.88-0.037,2.11-0.423,2.495-1.061c0.358-0.594,0.116-2.012-0.396-2.595
			c-4.563-5.183-9.262-10.248-13.887-15.376c-3.012-3.34-5.955-6.741-8.956-10.092c-6.44-7.192-12.936-14.335-19.324-21.573
			c-1.99-2.254-3.564-4.879-5.588-7.099c-3.297-3.615-6.967-6.897-10.18-10.582c-2.79-3.197-4.946-6.949-7.762-10.119
			c-10.087-11.354-20.366-22.537-30.486-33.862c-1.45-1.623-2.199-3.879-3.673-5.473c-3.519-3.811-7.447-7.249-10.89-11.121
			c-3.595-4.043-6.478-8.758-10.295-12.551c-3.644-3.621-6.542-7.76-9.844-11.604c-3.637-4.235-7.772-8.037-11.616-12.098
			c-2.635-2.784-5.219-5.625-7.678-8.565c-1.433-1.714-2.45-3.776-3.883-5.491c-1.372-1.643-3.131-2.958-4.559-4.56
			c-3.426-3.846-6.724-7.806-10.138-11.663c-2.928-3.308-6.076-6.428-8.884-9.832c-2.436-2.953-4.264-6.432-6.841-9.236
			c-3.323-3.619-7.199-6.376-12.727-5.163c-5.143,1.13-10.344,2.046-15.559,2.786c-7.646,1.085-15.351,1.164-22.837,3.959
			c-5.304,1.98-11.295,2.222-17.016,2.967c-8.804,1.146-17.638,2.056-26.458,3.072c-0.491,0.056-1.062,0.04-1.446,0.29
			c-4.321,2.806-9.154,3.288-14.149,3.54c-4.184,0.213-8.375,0.822-12.495,1.614c-5.205,1-10.315,2.486-15.514,3.527
			c-3.848,0.77-7.781,1.1-11.657,1.74c-5.198,0.859-10.357,1.971-15.571,2.714c-5.25,0.749-10.545,1.176-15.82,1.759
			c-0.487,0.053-0.967,0.201-1.443,0.332c-3.93,1.071-7.805,2.56-11.806,3.078c-2.653,0.344-3.691,1.474-4.277,3.684
			c-2.312,8.718-4.607,17.44-6.944,26.151c-2.875,10.714-5.763,21.424-8.689,32.124c-2.311,8.45-4.739,16.869-7.014,25.329
			c-1.256,4.67-2.188,9.427-3.475,14.087c-1.594,5.775-3.495,11.465-5.102,17.236c-2.5,8.983-4.815,18.019-7.301,27.005
			c-2.191,7.922-4.575,15.789-6.749,23.716c-1.438,5.242-2.597,10.561-3.996,15.814c-0.855,3.214-2.013,6.347-2.881,9.559
			c-0.899,3.327-1.596,6.71-2.414,10.062C74.849,294.66,73.535,299.928,72.032,306.005z"/>
		<path fill-rule="evenodd" clip-rule="evenodd" d="M544.563,252.444c6.146,0.437,13.012,0.923,19.25,1.366
			c1.418,2.702,2.4,4.493,3.311,6.318c2.83,5.677,0.151,13.138-3.928,17.749c-5.192,5.87-11.572,5.756-18.114,6.088
			c-7.782,0.395-7.681,0.313-5.426-6.772c1.858-5.845,3.569-11.748,5.035-17.701C545.163,257.568,544.65,255.401,544.563,252.444z
			 M562.639,266.962c0.279-6.791-1.558-9.525-7.225-10.997c-1.426-0.37-3.37-1.249-4.178,1.479
			c-1.979,6.689-4.306,13.275-6.273,19.968c-0.685,2.327-0.089,3.93,3.117,3.912c3.12-0.018,5.065-1.982,7.563-3.058
			C561.229,275.864,562.736,271.577,562.639,266.962z"/>
		<path fill-rule="evenodd" clip-rule="evenodd" d="M100.611,49.551c4.33,0,9.161-0.662,13.646,0.294
			c2.076,0.442,4.381,3.823,4.972,6.262c0.866,3.571-1.468,6.208-4.769,7.139c0.884,2.403,2.323,4.761,2.536,7.224
			c0.403,4.667-2.19,8.249-6.976,8.804c-5.482,0.637-11.095,0.147-16.199,0.147C97.873,69.946,101.576,60.547,100.611,49.551z
			 M99.902,76.573c2.896,0,4.863-0.135,6.805,0.029c3.633,0.306,5-2.237,5.407-4.911c0.286-1.879-0.477-4.207-1.48-5.918
			c-1.195-2.038-6.152-1.875-6.973,0.088C102.3,69.112,101.301,72.515,99.902,76.573z M104.82,63.57
			c2.699-0.76,4.592-1.27,6.471-1.829c3.517-1.047,2.634-4.091,2.454-6.416c-0.06-0.777-2.248-1.63-3.587-2.017
			c-2.965-0.856-3.913,1.258-4.416,3.55C105.35,58.651,105.228,60.503,104.82,63.57z"/>
		<path fill-rule="evenodd" clip-rule="evenodd" d="M281.57,324.796c0.164-2.433,0.42-6.232,0.697-10.334c1.562,0,3.619,0,6.656,0
			c-1.456,5.037-2.734,9.933-4.299,14.734c-1.386,4.251-3.931,8.238-1.653,13.017c0.378,0.794-0.225,2.95-0.792,3.126
			c-1.538,0.476-3.888,0.92-4.846,0.11c-1.753-1.479-2.519-0.995-4.362-0.211c-2.024,0.863-4.993,0.9-6.95-0.003
			c-1.142-0.525-1.702-3.668-1.483-5.511c0.472-3.97,1.046-8.399,4.974-10.521C272.905,327.37,276.811,326.483,281.57,324.796z
			 M268.918,343.228c1.812-0.606,3.433-0.9,4.8-1.653c3.799-2.096,4.933-5.941,5.764-9.795c0.614-2.846-1.042-4.035-3.923-3.092
			C271.161,330.127,267.905,336.6,268.918,343.228z"/>
		<path fill-rule="evenodd" clip-rule="evenodd" d="M33.869,299.308c1.059-0.114,2.117-0.229,3.387-0.364
			c1.322,10.068-3.622,20.01,0.197,30.072c-2.86,0-5.969,0-9.077,0c-0.335-0.417-0.67-0.834-1.005-1.251
			c0.533-0.037,1.51,0.006,1.533-0.124c0.443-2.462,1.549-5.182,0.886-7.348c-0.538-1.756-6.51-0.392-7.984,1.771
			c-0.61,0.896-1.196,1.909-1.418,2.949c-0.958,4.478-0.908,4.488-6.569,4.166c2.152-5.974,7.261-9.591,10.125-14.632
			c2.941-5.178,7.122-9.65,10.76-14.431C34.425,299.847,34.146,299.577,33.869,299.308z M30.571,310.65
			c-1.224,1.429-2.448,2.859-3.832,4.476C31.008,316.559,31.598,315.992,30.571,310.65z"/>
		<path fill-rule="evenodd" clip-rule="evenodd" d="M236.238,24.741c1.968-0.248,2.974-0.161,3.791-0.512
			c4.929-2.124,8.689,0.168,8.948,5.54c0.209,4.318-4.229,11.449-8.097,12.792c-0.845,0.292-1.877,0.042-3.354,0.042
			c0.679-1.075,0.917-1.979,1.443-2.203c4.526-1.928,4.828-5.91,4.748-9.917c-0.025-1.29-1.305-3.714-1.573-3.654
			c-1.971,0.438-4.786,0.864-5.532,2.259c-1.695,3.167-2.513,6.853-3.313,10.412c-0.171,0.759,1.245,1.875,2.646,3.821
			c-2.906-0.589-5.402-0.495-6.965-1.656c-0.823-0.611-0.346-3.509,0.121-5.218c1.647-6.018,3.577-11.958,5.311-17.953
			c0.299-1.034,0.034-2.222,0.276-3.284c0.285-1.253,0.537-3.141,1.349-3.491c1.071-0.464,3.207-0.15,3.892,0.665
			c0.658,0.782,0.366,2.739-0.066,3.987C238.956,18.986,237.683,21.475,236.238,24.741z"/>
		<path fill-rule="evenodd" clip-rule="evenodd" d="M36.49,199.69c0.997-3.284,1.59-7.027,5.293-10.604
			c3.601-3.479,6.111-5.18,10.815-3.73c1.584,0.489,4.118-2.211,4.934,0.799c0.37,1.364-1.298,3.182-1.693,4.875
			c-0.813,3.494-3.569,6.858-0.585,10.735c0.448,0.583-0.547,3.171-1.512,3.729c-1.316,0.76-3.971,1.223-4.764,0.464
			c-1.857-1.777-2.833-0.717-4.439,0.058C39.899,208.252,36.263,205.705,36.49,199.69z M40.56,200.529
			c3.589,2.049,8.659-0.179,9.798-4.622c0.577-2.25,0.264-4.789-0.032-7.149c-0.058-0.463-2.531-1.27-2.803-0.961
			C44.258,191.504,40.39,194.967,40.56,200.529z"/>
		<path fill-rule="evenodd" clip-rule="evenodd" d="M355.768,11.515c-0.568,3.015-1.744,4.87-4.745,5.039
			c-0.65,0.037-1.509,0.406-1.87,0.91c-3.263,4.55-6.904,8.967-6.356,15.126c0.59,6.645,6.23,9.562,14.003,6.99
			c1.909-0.632,3.734-1.518,6.241-2.552c-0.848,3.829-3.841,4.36-5.993,4.977c-5.034,1.439-10.348,1.837-15.086-0.961
			c-3.975-2.347-5.441-9.833-3.093-15.339c1.58-3.705,3.298-7.097,7.159-9.553c2.355-1.498,4.388-3.633,7.229-4.446
			C354,11.493,354.826,11.578,355.768,11.515z"/>
		<path fill-rule="evenodd" clip-rule="evenodd" d="M461.264,131.695c0.31,5.531-4.051,6.17-6.955,7.238
			c-1.975,0.725-4.833-0.669-7.182-1.456c-0.563-0.189-0.855-1.712-0.962-2.657c-0.603-5.383,0.362-9.443,4.803-13.914
			c4.163-4.192,7.894-2.404,12.199-3.513c0.211,1.805,0.664,3.188,0.427,4.439c-0.188,0.987-1.224,1.813-1.883,2.71
			c-0.722-0.574-1.365-1.333-2.184-1.679c-1.318-0.558-2.879-1.405-4.111-1.127c-2.792,0.628-6.351,6.983-5.92,9.844
			c0.285,1.896,3.955,3.603,5.998,2.735C457.332,133.535,459.134,132.667,461.264,131.695z"/>
		<path fill-rule="evenodd" clip-rule="evenodd" d="M367.041,12.458c-0.876,4.011-1.599,7.315-2.32,10.618
			c-0.276,0.065-0.554,0.129-0.83,0.195c-0.396-0.748-1.048-1.464-1.141-2.246c-0.305-2.589-1.187-4.646-3.741-5.811
			c-0.562-0.255-0.779-1.263-1.155-1.924c0.631-0.277,1.252-0.762,1.895-0.794C361.845,12.395,363.949,12.458,367.041,12.458z"/>
		<path fill-rule="evenodd" clip-rule="evenodd" d="M389.757,342.269c-0.972-1.864-1.909-2.854-1.814-3.729
			c0.081-0.734,1.342-1.808,2.128-1.85c0.645-0.033,1.935,1.258,1.902,1.909C391.925,339.539,390.938,340.432,389.757,342.269z"/>
		<path fill-rule="evenodd" clip-rule="evenodd" fill="#FFFFFF" d="M72.032,306.005c1.502-6.077,2.817-11.345,4.104-16.619
			c0.818-3.352,1.514-6.734,2.414-10.062c0.869-3.212,2.026-6.345,2.881-9.559c1.398-5.254,2.558-10.572,3.996-15.814
			c2.174-7.927,4.558-15.794,6.749-23.716c2.486-8.986,4.801-18.021,7.301-27.005c1.607-5.771,3.508-11.461,5.102-17.236
			c1.287-4.66,2.219-9.417,3.475-14.087c2.275-8.46,4.703-16.879,7.014-25.329c2.926-10.699,5.814-21.41,8.689-32.124
			c2.337-8.711,4.632-17.433,6.944-26.151c0.586-2.21,1.624-3.34,4.277-3.684c4.001-0.518,7.876-2.007,11.806-3.078
			c0.476-0.13,0.956-0.278,1.443-0.332c5.274-0.583,10.57-1.01,15.82-1.759c5.213-0.744,10.373-1.855,15.571-2.714
			c3.876-0.641,7.81-0.97,11.657-1.74c5.198-1.041,10.309-2.527,15.514-3.527c4.12-0.792,8.311-1.401,12.495-1.614
			c4.995-0.252,9.828-0.734,14.149-3.54c0.384-0.25,0.955-0.234,1.446-0.29c8.82-1.017,17.654-1.927,26.458-3.072
			c5.72-0.745,11.711-0.987,17.016-2.967c7.486-2.795,15.19-2.874,22.837-3.959c5.215-0.74,10.416-1.655,15.559-2.786
			c5.527-1.214,9.403,1.544,12.727,5.163c2.577,2.805,4.405,6.284,6.841,9.236c2.808,3.404,5.956,6.524,8.884,9.832
			c3.414,3.857,6.712,7.817,10.138,11.663c1.428,1.602,3.187,2.917,4.559,4.56c1.433,1.715,2.45,3.777,3.883,5.491
			c2.459,2.94,5.043,5.781,7.678,8.565c3.844,4.061,7.979,7.863,11.616,12.098c3.302,3.845,6.2,7.983,9.844,11.604
			c3.817,3.793,6.7,8.508,10.295,12.551c3.442,3.873,7.371,7.311,10.89,11.121c1.474,1.594,2.223,3.85,3.673,5.473
			c10.12,11.325,20.399,22.507,30.486,33.862c2.815,3.17,4.972,6.922,7.762,10.119c3.213,3.685,6.883,6.967,10.18,10.582
			c2.023,2.22,3.598,4.845,5.588,7.099c6.389,7.238,12.884,14.381,19.324,21.573c3.001,3.351,5.944,6.752,8.956,10.092
			c4.625,5.128,9.323,10.193,13.887,15.376c0.513,0.583,0.755,2.001,0.396,2.595c-0.385,0.638-1.615,1.023-2.495,1.061
			c-4.74,0.198-9.497,0.078-14.229,0.389c-19.384,1.271-38.758,2.691-58.142,3.984c-6.297,0.419-12.608,0.612-18.911,0.929
			c-0.618,0.03-1.262,0.096-1.838,0.3c-7.238,2.565-14.815,2.232-22.31,2.726c-12.812,0.842-25.611,1.861-38.416,2.792
			c-1.494,0.108-2.996,0.099-4.491,0.188c-8.188,0.486-16.545,0.112-24.528,1.663c-17.014,3.304-34.217,2.789-51.337,3.892
			c-15.533,1-31.072,1.906-46.601,2.967c-3.35,0.229-6.663,0.971-9.999,1.426c-4.792,0.653-9.574,1.489-14.39,1.839
			c-10.19,0.738-20.411,1.075-30.6,1.831c-12.295,0.911-24.568,2.114-36.854,3.139c-9.669,0.806-19.346,1.519-29.017,2.298
			c-10.923,0.881-21.843,1.804-32.768,2.672C75.967,306.104,74.489,306.005,72.032,306.005z"/>
		<path fill-rule="evenodd" clip-rule="evenodd" fill="#FFFFFF" d="M562.639,266.962c0.098,4.615-1.409,8.902-6.996,11.305
			c-2.497,1.075-4.442,3.04-7.563,3.058c-3.206,0.018-3.802-1.585-3.117-3.912c1.968-6.692,4.294-13.278,6.273-19.968
			c0.808-2.729,2.752-1.85,4.178-1.479C561.081,257.437,562.918,260.171,562.639,266.962z"/>
		<path fill-rule="evenodd" clip-rule="evenodd" fill="#FFFFFF" d="M99.902,76.573c1.399-4.058,2.398-7.46,3.758-10.712
			c0.821-1.963,5.778-2.126,6.973-0.088c1.003,1.712,1.766,4.039,1.48,5.918c-0.406,2.674-1.774,5.217-5.407,4.911
			C104.765,76.438,102.797,76.573,99.902,76.573z"/>
		<path fill-rule="evenodd" clip-rule="evenodd" fill="#FFFFFF" d="M104.82,63.57c0.408-3.067,0.529-4.919,0.922-6.711
			c0.503-2.292,1.45-4.407,4.416-3.55c1.34,0.387,3.527,1.24,3.587,2.017c0.18,2.324,1.063,5.368-2.454,6.416
			C109.413,62.3,107.519,62.81,104.82,63.57z"/>
		<path fill-rule="evenodd" clip-rule="evenodd" fill="#FFFFFF" d="M268.918,343.228c-1.013-6.628,2.243-13.101,6.642-14.54
			c2.88-0.943,4.537,0.246,3.923,3.092c-0.832,3.854-1.965,7.699-5.764,9.795C272.352,342.327,270.73,342.621,268.918,343.228z"/>
		<path fill-rule="evenodd" clip-rule="evenodd" fill="#FFFFFF" d="M30.571,310.65c1.027,5.342,0.438,5.908-3.832,4.476
			C28.123,313.51,29.347,312.079,30.571,310.65z"/>
		<path fill-rule="evenodd" clip-rule="evenodd" fill="#FFFFFF" d="M40.56,200.529c-0.169-5.563,3.698-9.025,6.963-12.732
			c0.272-0.309,2.745,0.498,2.803,0.961c0.296,2.36,0.609,4.899,0.032,7.149C49.218,200.351,44.149,202.578,40.56,200.529z"/>
	</g>
</g>
</svg>
