<?xml version="1.0" encoding="utf-8"?>
<!-- Generator: Adobe Illustrator 16.0.0, SVG Export Plug-In . SVG Version: 6.00 Build 0)  -->
<!DOCTYPE svg PUBLIC "-//W3C//DTD SVG 1.1//EN" "http://www.w3.org/Graphics/SVG/1.1/DTD/svg11.dtd">
<svg version="1.1" id="Layer_1" xmlns="http://www.w3.org/2000/svg" xmlns:xlink="http://www.w3.org/1999/xlink" x="0px" y="0px"
	 width="500px" height="322.545px" viewBox="0 0 500 322.545" enable-background="new 0 0 500 322.545" xml:space="preserve">
<g>
	<g>
		<path fill-rule="evenodd" clip-rule="evenodd" fill="#FFFFFF" d="M0.726,323.162c0-107.355,0-214.844,0-322.373
			c166.601,0,333.205,0,499.903,0c0,107.387,0,214.813,0,322.373C334.059,323.162,167.394,323.162,0.726,323.162z M468.649,275.988
			c4.077,0,7.567,0.087,11.049-0.059c0.922-0.039,2.354-0.583,2.604-1.268c0.427-1.171,0.638-3.073,0.007-3.901
			c-2.671-3.504-5.576-6.838-8.604-10.021c-4.03-4.24-8.206-8.236-11.245-13.463c-1.923-3.308-5.108-5.804-7.575-8.799
			c-2.152-2.613-3.996-5.5-6.148-8.112c-3.352-4.067-6.941-7.924-10.259-12.019c-3.595-4.435-6.396-9.809-10.637-13.369
			c-4.751-3.988-7.008-9.852-11.601-13.83c-2.581-2.237-4.415-5.395-6.625-8.104c-5.558-6.814-11.182-13.571-16.693-20.424
			c-4.011-4.984-7.765-10.196-11.862-15.1c-3.15-3.771-6.806-7.087-9.965-10.851c-3.296-3.928-6.161-8.243-9.407-12.218
			c-3.593-4.398-7.519-8.505-11.087-12.923c-3.024-3.744-5.585-7.894-8.643-11.605c-4.171-5.064-8.694-9.813-12.914-14.835
			c-2.187-2.601-3.944-5.587-6.08-8.238c-2.138-2.651-4.61-5.011-6.745-7.665c-2.375-2.951-4.365-6.247-6.821-9.117
			c-5.753-6.72-12.021-12.999-17.389-20.025c-2.388-3.125-4.521-3.62-7.812-3.032c-9.626,1.72-19.273,3.309-28.923,4.882
			c-8.105,1.32-16.231,2.504-24.332,3.845c-1.981,0.328-3.878,1.208-5.859,1.533c-6.23,1.022-12.507,1.753-18.719,2.875
			c-7.415,1.338-14.751,3.146-22.175,4.418c-8.577,1.469-17.2,2.674-25.825,3.814c-9.456,1.25-18.865,2.137-28.214,4.755
			c-9.942,2.785-20.453,3.43-30.74,4.819c-3.477,0.47-5.585,1.872-6.506,5.61c-1.176,4.775-2.977,9.381-4.331,14.114
			c-1.903,6.649-3.619,13.355-5.464,20.022c-0.636,2.298-1.492,4.529-2.122,6.829c-1.463,5.339-2.808,10.713-4.281,16.049
			c-0.952,3.451-2.146,6.833-3.054,10.294c-1.15,4.388-1.966,8.875-3.204,13.234c-1.669,5.882-3.701,11.654-5.383,17.533
			c-0.84,2.938-1.065,6.064-1.896,9.005c-1.364,4.821-3.018,9.555-4.497,14.343c-0.361,1.168-0.43,2.432-0.776,3.605
			c-1.698,5.756-3.578,11.457-5.132,17.254c-1.239,4.62-1.832,9.438-3.207,14.008c-1.533,5.095-3.934,9.912-5.405,15.021
			c-2.119,7.364-3.758,14.879-5.562,22.34c-0.491,2.03-0.667,4.156-1.281,6.141c-1.722,5.563-3.702,11.042-5.375,16.62
			c-1.014,3.383-1.62,6.896-2.462,10.336c-0.685,2.797,0.298,4.342,3.089,4.315c2.847-0.028,5.726-0.095,8.532-0.54
			c12.191-1.932,24.509-0.774,36.81-2.351c20.397-2.614,41.083-1.744,61.632-4.051c25.945-2.914,52.09-3.924,78.158-5.625
			c8.751-0.571,17.536-0.602,26.291-1.138c9.294-0.569,18.57-1.489,27.86-2.172c10.177-0.747,20.391-1.096,30.534-2.167
			c12.811-1.352,25.791-0.093,38.512-3.257c4.298-1.069,9.043-0.121,13.581-0.237c8.261-0.213,16.538-0.265,24.773-0.886
			c7.454-0.563,14.842-2.067,22.295-2.655c7.669-0.604,15.388-0.472,23.074-0.894C439.491,277.838,454.36,276.862,468.649,275.988z"
			/>
		<path fill-rule="evenodd" clip-rule="evenodd" d="M468.649,275.988c-14.289,0.874-29.158,1.85-44.035,2.665
			c-7.687,0.422-15.405,0.29-23.074,0.894c-7.453,0.588-14.841,2.093-22.295,2.655c-8.235,0.621-16.513,0.673-24.773,0.886
			c-4.538,0.116-9.283-0.832-13.581,0.237c-12.721,3.164-25.701,1.905-38.512,3.257c-10.144,1.071-20.357,1.42-30.534,2.167
			c-9.29,0.683-18.565,1.603-27.86,2.172c-8.755,0.536-17.54,0.566-26.291,1.138c-26.067,1.701-52.213,2.711-78.158,5.625
			c-20.549,2.307-41.235,1.437-61.632,4.051c-12.301,1.576-24.619,0.419-36.81,2.351c-2.806,0.445-5.685,0.512-8.532,0.54
			c-2.791,0.026-3.774-1.519-3.089-4.315c0.843-3.44,1.448-6.953,2.462-10.336c1.673-5.578,3.652-11.057,5.375-16.62
			c0.614-1.984,0.791-4.11,1.281-6.141c1.804-7.461,3.443-14.976,5.562-22.34c1.471-5.109,3.872-9.927,5.405-15.021
			c1.375-4.569,1.968-9.388,3.207-14.008c1.554-5.797,3.434-11.498,5.132-17.254c0.347-1.174,0.416-2.438,0.776-3.605
			c1.479-4.788,3.133-9.521,4.497-14.343c0.832-2.94,1.056-6.067,1.896-9.005c1.682-5.879,3.713-11.65,5.383-17.533
			c1.238-4.359,2.054-8.846,3.204-13.234c0.907-3.462,2.102-6.843,3.054-10.294c1.473-5.335,2.818-10.709,4.281-16.049
			c0.63-2.299,1.486-4.531,2.122-6.829c1.846-6.667,3.562-13.373,5.464-20.022c1.354-4.733,3.154-9.339,4.331-14.114
			c0.921-3.738,3.029-5.14,6.506-5.61c10.287-1.39,20.797-2.034,30.74-4.819c9.35-2.618,18.759-3.505,28.214-4.755
			c8.625-1.14,17.248-2.345,25.825-3.814c7.424-1.272,14.761-3.08,22.175-4.418c6.212-1.122,12.489-1.852,18.719-2.875
			c1.981-0.325,3.878-1.205,5.859-1.533c8.101-1.34,16.227-2.524,24.332-3.845c9.649-1.573,19.297-3.162,28.923-4.882
			c3.291-0.588,5.424-0.093,7.812,3.032c5.368,7.026,11.636,13.305,17.389,20.025c2.456,2.87,4.446,6.166,6.821,9.117
			c2.135,2.654,4.607,5.014,6.745,7.665c2.136,2.651,3.894,5.637,6.08,8.238c4.22,5.022,8.743,9.771,12.914,14.835
			c3.058,3.712,5.618,7.861,8.643,11.605c3.568,4.418,7.494,8.525,11.087,12.923c3.246,3.975,6.111,8.29,9.407,12.218
			c3.159,3.764,6.814,7.08,9.965,10.851c4.098,4.904,7.852,10.116,11.862,15.1c5.512,6.853,11.136,13.609,16.693,20.424
			c2.21,2.709,4.044,5.866,6.625,8.104c4.593,3.979,6.85,9.842,11.601,13.83c4.241,3.561,7.042,8.935,10.637,13.369
			c3.317,4.095,6.907,7.951,10.259,12.019c2.152,2.612,3.996,5.499,6.148,8.112c2.467,2.995,5.652,5.491,7.575,8.799
			c3.039,5.227,7.215,9.223,11.245,13.463c3.027,3.184,5.933,6.518,8.604,10.021c0.631,0.828,0.42,2.73-0.007,3.901
			c-0.25,0.685-1.682,1.229-2.604,1.268C476.217,276.075,472.727,275.988,468.649,275.988z M189.754,192.041
			c-0.49,0.263-0.979,0.525-1.469,0.789c-0.858-0.985-1.787-1.915-2.554-2.972c-0.635-0.875-0.907-2.086-1.642-2.824
			c-2.343-2.349-4.895-4.475-7.235-6.827c-1.836-1.846-3.386-4.001-5.236-5.829c-1.456-1.44-3.042-2.892-4.832-3.756
			c-1.024-0.493-2.96-0.302-3.798,0.43c-1.607,1.402-2.556,3.589-4.082,5.126c-2.491,2.51-5.386,4.593-7.823,7.151
			c-5.839,6.131-11.438,12.509-17.278,18.639c-3.389,3.556-7.186,6.693-10.566,10.258c-3.79,3.995-7.186,8.396-10.998,12.366
			c-3.245,3.379-6.953,6.276-10.254,9.603c-6.555,6.608-12.939,13.398-19.454,20.051c-6.437,6.573-12.903,13.115-19.447,19.571
			c-2.319,2.288-5.014,4.163-7.346,6.439c-5.276,5.148-10.455,10.405-15.612,15.684c-0.688,0.703-1.023,1.779-1.522,2.683
			c0.884,0.421,1.795,1.262,2.647,1.201c9.729-0.7,19.445-1.58,29.17-2.325c9.211-0.706,18.423-1.417,27.646-1.919
			c6.205-0.338,12.45-0.027,18.64-0.518c10.797-0.855,21.546-2.454,32.351-3.104c15.005-0.903,30.043-1.221,45.068-1.782
			c1.802-0.067,3.629,0.083,5.403-0.178c6.37-0.938,12.689-2.477,19.084-2.942c19.155-1.394,38.363-1.28,57.512-3.675
			c15.354-1.92,30.93-0.857,46.4-3.507c12.713-2.178,25.867-1.608,38.829-2.176c6.49-0.284,13.048,0.13,19.47-0.68
			c13.883-1.75,27.862-0.566,41.806-2.771c13.467-2.13,27.322-1.565,40.997-2.368c2.184-0.128,4.315-1.215,7.01-2.02
			c-2.313-1.393-3.822-2.5-5.479-3.263c-5.648-2.601-11.454-4.851-16.999-7.661c-7.151-3.625-14.075-7.732-21.166-11.492
			c-3.515-1.862-7.235-3.305-10.773-5.125c-5.596-2.879-10.502-7.219-16.868-8.474c-0.775-0.152-1.481-0.725-2.201-1.138
			c-3.665-2.102-7.283-4.294-10.992-6.307c-5.146-2.792-10.368-5.432-15.538-8.175c-3.673-1.949-7.298-3.997-10.975-5.937
			c-3.158-1.666-6.399-3.166-9.536-4.874c-5.414-2.948-10.722-6.11-16.179-8.964c-3.037-1.588-6.388-2.53-9.424-4.119
			c-8.396-4.396-16.697-8.989-25.049-13.479c-3.036-1.633-6.153-3.105-9.152-4.804c-6.113-3.46-12.065-7.244-18.288-10.471
			c-4.462-2.313-9.265-3.911-13.891-5.892c-0.74-0.316-1.335-0.986-2.021-1.453c-1.034-0.703-2.09-1.371-2.627-1.721
			c-1.845,2.311-3.482,3.83-4.479,5.714c-2.734,5.169-5.205,10.489-7.769,15.756c-1.224,2.513-2.389,5.058-3.673,7.537
			c-0.227,0.438-1.023,0.964-1.354,0.845c-0.525-0.189-1.258-0.901-1.243-1.37c0.094-2.89,0.44-5.769,0.554-8.659
			c0.042-1.058,0.013-2.629-0.591-3.071c-0.701-0.514-2.63-0.499-3.062,0.072c-3.857,5.106-9.927,5.143-15.043,6.461
			c-5.815,1.497-12.148,0.985-18.259,1.044c-4.088,0.039-8.18-0.449-12.373-0.708C187.509,184.54,188.632,188.29,189.754,192.041z
			 M470.702,265.089c-0.378-1.576-0.328-2.725-0.854-3.345c-3.992-4.701-8.118-9.279-12.161-13.935
			c-5.45-6.271-10.856-12.586-16.3-18.863c-1.282-1.479-2.737-2.805-3.943-4.344c-2.248-2.867-4.433-5.792-6.53-8.779
			c-2.415-3.439-6.829-5.235-7.629-10.011c-0.05-0.292-0.449-0.519-0.681-0.78c-3.771-4.276-7.627-8.477-11.284-12.856
			c-2.979-3.567-5.612-7.445-8.591-11.013c-3.536-4.232-7.391-8.179-10.899-12.435c-3.494-4.238-6.655-8.77-10.097-13.058
			c-5.422-6.754-10.958-13.41-16.441-20.11c-1.63-1.99-3.173-4.061-4.884-5.972c-2.996-3.348-6.29-6.429-9.101-9.932
			c-5.368-6.689-10.36-13.704-15.744-20.378c-4.649-5.763-9.71-11.167-14.433-16.87c-3.854-4.655-7.422-9.565-11.223-14.271
			c-3.098-3.835-6.437-7.461-9.512-11.314c-3.235-4.055-6.279-8.273-9.415-12.414c-1.174-1.55-2.54-2.984-4.379-1.147
			c-2.886,2.884-5.652,5.905-8.372,8.961c-3.598,4.043-6.97,8.311-10.688,12.228c-3.136,3.304-6.647,6.224-9.953,9.359
			c-1.402,1.331-2.723,2.758-4.047,4.175c-3.707,3.973-7.33,8.034-11.114,11.926c-3.642,3.746-7.504,7.261-11.153,11
			c-2.015,2.064-3.681,4.497-5.7,6.555c-3.524,3.595-7.201,7.029-10.813,10.53c-2.117,2.052-4.271,4.064-6.326,6.181
			c-0.712,0.734-1.691,1.791-1.604,2.588c0.086,0.782,1.266,1.681,2.153,2.079c4.946,2.223,9.988,3.892,14.541,7.352
			c4.404,3.348,10.045,4.942,15.143,7.309c2.847,1.321,5.766,2.502,8.526,3.998c7.438,4.031,14.772,8.265,22.214,12.286
			c5.044,2.725,10.193,5.238,15.307,7.821c2.405,1.216,4.89,2.271,7.242,3.585c2.894,1.616,5.626,3.543,8.534,5.127
			c5.465,2.979,11.007,5.808,16.516,8.7c5.828,3.061,11.622,6.194,17.491,9.167c6.691,3.39,13.443,6.652,20.188,9.929
			c1.047,0.509,2.271,0.649,3.281,1.217c3.39,1.907,6.669,4.034,10.092,5.873c2.284,1.229,4.859,1.89,7.098,3.189
			c6.093,3.535,11.846,7.801,18.165,10.791c6.572,3.11,13.212,6.018,19.478,9.78c1.093,0.655,2.503,0.724,3.635,1.328
			c4.328,2.313,8.583,4.772,12.908,7.091c1.347,0.722,2.922,1,4.239,1.765c5.043,2.929,9.973,6.068,15.041,8.946
			c5.404,3.068,10.893,5.981,16.398,8.85C466.636,263.791,468.437,264.251,470.702,265.089z M35.916,294.933
			c4.023-4.076,7.224-7.316,10.421-10.561c1.157-1.174,2.337-2.324,3.451-3.54c3.614-3.94,7.084-8.031,10.834-11.825
			c3.613-3.654,7.595-6.913,11.25-10.526c3.571-3.532,6.863-7.367,10.414-10.925c2.249-2.253,4.873-4.107,7.103-6.379
			c3.676-3.743,7.17-7.678,10.739-11.533c2.042-2.205,4.061-4.435,6.125-6.616c3.085-3.263,6.144-6.557,9.321-9.722
			c3.983-3.968,8.209-7.68,12.084-11.755c4.513-4.746,8.649-9.879,13.153-14.636c3.966-4.188,8.227-8.075,12.332-12.125
			c1.566-1.546,3.012-3.225,4.594-4.754c3.804-3.679,7.8-7.156,11.447-10.994c3.452-3.632,6.252-7.97,9.888-11.365
			c5.211-4.866,10.54-9.561,15.289-14.951c4.606-5.228,4.695-5.029-1.349-7.97c-5.79-2.818-11.492-5.828-17.235-8.747
			c-1.364-0.694-2.796-1.267-4.094-2.073c-2.783-1.729-5.294-4.235-8.285-5.229c-5.636-1.873-10.794-4.187-15.674-7.867
			c-4.282-3.229-9.59-5.012-14.496-7.316c-3.307-1.553-6.802-2.697-10.037-4.388c-4.576-2.391-9.002-5.092-13.465-7.711
			c-1.703-0.999-3.237-2.357-5.013-3.16c-2.344-1.059-5.08-2.8-7.228-2.301c-2.688,0.624-2.58,4.158-2.997,6.888
			c-0.738,4.837-1.666,9.68-2.998,14.372c-1.501,5.288-3.682,10.364-5.301,15.62c-1.824,5.92-3.331,11.946-5.016,17.913
			c-2.388,8.457-4.844,16.892-7.213,25.355c-1.769,6.32-3.43,12.673-5.17,19.003c-1.125,4.09-2.306,8.163-3.459,12.245
			c-1.742,6.162-3.574,12.3-5.195,18.497c-1.562,5.973-2.912,12.006-4.34,18.015c-0.4,1.686-0.636,3.421-1.132,5.073
			c-2.29,7.629-4.639,15.238-6.979,22.852c-1.084,3.529-2.234,7.037-3.284,10.576c-1.793,6.045-3.498,12.117-5.303,18.159
			c-1.06,3.544-2.297,7.032-3.325,10.587C35.531,291.946,35.818,292.937,35.916,294.933z M281.398,42.896
			c-1.983-0.337-2.672-0.643-3.288-0.529c-6.155,1.141-12.305,2.32-18.444,3.553c-5.718,1.148-11.378,2.769-17.144,3.482
			c-9.72,1.202-19.335,2.481-28.885,5.083c-8.6,2.344-17.681,2.746-26.527,4.162c-8.246,1.319-16.45,2.926-24.695,4.26
			c-10.61,1.716-21.247,3.255-31.863,4.931c-8.425,1.33-16.836,2.751-25.253,4.137c-0.413,0.068-0.819,0.186-1.229,0.281
			c-0.087,0.298-0.174,0.596-0.261,0.894c5.56,2.858,11.123,5.71,16.679,8.576c1.044,0.539,2.058,1.142,3.098,1.688
			c3.843,2.018,7.701,4.007,11.537,6.04c3.41,1.808,6.804,3.648,10.196,5.493c5.246,2.853,10.408,5.889,15.752,8.527
			c3.905,1.927,8.173,3.074,12.045,5.061c3.393,1.739,6.343,4.394,9.7,6.23c4.708,2.574,9.717,4.559,14.4,7.176
			c4.367,2.441,7.826,1.725,10.617-2.197c2.793-3.927,5.476-8.345,9.209-11.064c8.694-6.332,14.428-15.71,22.729-22.398
			c3.786-3.05,6.784-7.137,10.228-10.661c3.911-4.002,7.962-7.858,11.875-11.859c3.244-3.318,6.384-6.748,9.557-10.142
			C274.527,50.307,277.607,46.975,281.398,42.896z M220.02,169.961c0.777-0.894,1.051-1.483,1.486-1.669
			c6.576-2.809,13.189-5.521,19.754-8.356c2.007-0.867,3.967-1.92,5.798-3.132c0.742-0.492,1.568-1.709,1.464-2.464
			c-0.093-0.679-1.337-1.344-2.193-1.729c-5.571-2.504-11.175-4.93-16.766-7.385c-0.104-0.046-0.183-0.15-0.282-0.214
			c-3.004-1.932-5.966-3.943-9.028-5.77c-3.058-1.825-6.228-3.446-9.329-5.193c-1.809-1.02-3.494-2.359-5.399-3.087
			c-1.322-0.505-2.889-1.448-4.146,1.058c-1.125,2.245-3.309,3.964-5.167,5.756c-3.414,3.292-7.055,6.338-10.379,9.721
			c-5.672,5.771-11.172,11.723-16.857,17.717c0.484,0.436,1.23,1.642,2.201,1.886c3.131,0.787,6.327,1.412,9.532,1.749
			c5.251,0.553,10.535,0.778,15.793,1.27c1.008,0.094,1.964,0.773,3.115,1.254c-2.655,3.178-8.351,0.283-9.131,6.223
			c13.417,0.235,26.358,0.197,38.452-6.996C226.16,170.399,223.383,170.201,220.02,169.961z"/>
		<path fill-rule="evenodd" clip-rule="evenodd" fill="#FFFFFF" d="M189.754,192.041c-1.123-3.751-2.245-7.501-3.564-11.908
			c4.193,0.259,8.285,0.747,12.373,0.708c6.11-0.059,12.443,0.453,18.259-1.044c5.116-1.318,11.186-1.354,15.043-6.461
			c0.431-0.571,2.361-0.586,3.062-0.072c0.604,0.442,0.632,2.014,0.591,3.071c-0.114,2.891-0.46,5.77-0.554,8.659
			c-0.015,0.469,0.718,1.181,1.243,1.37c0.331,0.119,1.127-0.406,1.354-0.845c1.284-2.479,2.449-5.024,3.673-7.537
			c2.564-5.267,5.035-10.587,7.769-15.756c0.997-1.884,2.634-3.403,4.479-5.714c0.537,0.35,1.593,1.018,2.627,1.721
			c0.687,0.466,1.281,1.136,2.021,1.453c4.626,1.981,9.429,3.579,13.891,5.892c6.223,3.227,12.175,7.011,18.288,10.471
			c2.999,1.698,6.116,3.171,9.152,4.804c8.352,4.49,16.652,9.084,25.049,13.479c3.036,1.589,6.387,2.531,9.424,4.119
			c5.457,2.854,10.765,6.016,16.179,8.964c3.137,1.708,6.378,3.208,9.536,4.874c3.677,1.939,7.302,3.987,10.975,5.937
			c5.17,2.743,10.392,5.383,15.538,8.175c3.709,2.013,7.327,4.205,10.992,6.307c0.72,0.413,1.426,0.985,2.201,1.138
			c6.366,1.255,11.272,5.595,16.868,8.474c3.538,1.82,7.259,3.263,10.773,5.125c7.091,3.76,14.015,7.867,21.166,11.492
			c5.545,2.811,11.351,5.061,16.999,7.661c1.656,0.763,3.166,1.87,5.479,3.263c-2.694,0.805-4.826,1.892-7.01,2.02
			c-13.675,0.803-27.53,0.238-40.997,2.368c-13.943,2.204-27.923,1.021-41.806,2.771c-6.422,0.81-12.979,0.396-19.47,0.68
			c-12.962,0.567-26.116-0.002-38.829,2.176c-15.471,2.649-31.046,1.587-46.4,3.507c-19.149,2.395-38.357,2.281-57.512,3.675
			c-6.395,0.466-12.714,2.005-19.084,2.942c-1.773,0.261-3.601,0.11-5.403,0.178c-15.024,0.562-30.063,0.879-45.068,1.782
			c-10.805,0.65-21.554,2.249-32.351,3.104c-6.19,0.49-12.435,0.18-18.64,0.518c-9.222,0.502-18.435,1.213-27.646,1.919
			c-9.725,0.745-19.441,1.625-29.17,2.325c-0.852,0.061-1.763-0.78-2.647-1.201c0.499-0.903,0.834-1.979,1.522-2.683
			c5.158-5.278,10.336-10.535,15.612-15.684c2.332-2.276,5.026-4.151,7.346-6.439c6.544-6.456,13.011-12.998,19.447-19.571
			c6.515-6.652,12.899-13.442,19.454-20.051c3.301-3.326,7.009-6.224,10.254-9.603c3.812-3.97,7.208-8.371,10.998-12.366
			c3.38-3.564,7.177-6.702,10.566-10.258c5.84-6.13,11.438-12.508,17.278-18.639c2.437-2.559,5.333-4.642,7.823-7.151
			c1.526-1.537,2.475-3.724,4.082-5.126c0.838-0.731,2.774-0.923,3.798-0.43c1.79,0.864,3.375,2.315,4.832,3.756
			c1.85,1.828,3.399,3.983,5.236,5.829c2.34,2.353,4.892,4.479,7.235,6.827c0.735,0.738,1.007,1.949,1.642,2.824
			c0.767,1.057,1.696,1.986,2.554,2.972C188.775,192.566,189.265,192.304,189.754,192.041z M231.068,201.855
			c-0.078-5.408-2.884-7.836-8.439-7.686c-7.29,0.198-8.627,7.144-12.002,11.45c-2.163,2.761-2.936,7.075-3.357,10.811
			c-0.352,3.123-0.023,6.817,1.347,9.528c1.47,2.906,12.109,1.422,13.551-1.893c1.727-3.974,5.997-6.157,6.368-11.104
			C228.808,209.333,230.13,205.789,231.068,201.855z"/>
		<path fill-rule="evenodd" clip-rule="evenodd" fill="#FFFFFF" d="M470.702,265.089c-2.266-0.838-4.066-1.298-5.684-2.14
			c-5.506-2.868-10.994-5.781-16.398-8.85c-5.068-2.878-9.998-6.018-15.041-8.946c-1.317-0.765-2.893-1.043-4.239-1.765
			c-4.325-2.318-8.58-4.778-12.908-7.091c-1.132-0.604-2.542-0.673-3.635-1.328c-6.266-3.763-12.905-6.67-19.478-9.78
			c-6.319-2.99-12.072-7.256-18.165-10.791c-2.238-1.3-4.813-1.961-7.098-3.189c-3.423-1.839-6.702-3.966-10.092-5.873
			c-1.01-0.567-2.234-0.708-3.281-1.217c-6.744-3.276-13.496-6.539-20.188-9.929c-5.869-2.973-11.663-6.106-17.491-9.167
			c-5.509-2.893-11.051-5.722-16.516-8.7c-2.908-1.584-5.641-3.511-8.534-5.127c-2.353-1.313-4.837-2.369-7.242-3.585
			c-5.113-2.583-10.263-5.097-15.307-7.821c-7.441-4.021-14.776-8.255-22.214-12.286c-2.76-1.496-5.68-2.677-8.526-3.998
			c-5.098-2.366-10.738-3.961-15.143-7.309c-4.553-3.46-9.594-5.129-14.541-7.352c-0.887-0.398-2.067-1.297-2.153-2.079
			c-0.087-0.797,0.892-1.854,1.604-2.588c2.055-2.117,4.209-4.129,6.326-6.181c3.612-3.501,7.289-6.936,10.813-10.53
			c2.02-2.058,3.685-4.49,5.7-6.555c3.649-3.739,7.511-7.254,11.153-11c3.784-3.892,7.407-7.953,11.114-11.926
			c1.324-1.417,2.645-2.844,4.047-4.175c3.306-3.135,6.817-6.055,9.953-9.359c3.719-3.917,7.091-8.185,10.688-12.228
			c2.72-3.056,5.486-6.077,8.372-8.961c1.839-1.836,3.205-0.403,4.379,1.147c3.136,4.141,6.18,8.359,9.415,12.414
			c3.075,3.854,6.414,7.479,9.512,11.314c3.801,4.705,7.368,9.616,11.223,14.271c4.723,5.703,9.783,11.106,14.433,16.87
			c5.384,6.674,10.376,13.689,15.744,20.378c2.811,3.503,6.104,6.584,9.101,9.932c1.711,1.911,3.254,3.982,4.884,5.972
			c5.483,6.7,11.02,13.356,16.441,20.11c3.441,4.288,6.603,8.819,10.097,13.058c3.509,4.256,7.363,8.202,10.899,12.435
			c2.979,3.567,5.612,7.445,8.591,11.013c3.657,4.38,7.514,8.58,11.284,12.856c0.231,0.262,0.631,0.488,0.681,0.78
			c0.8,4.775,5.214,6.571,7.629,10.011c2.098,2.987,4.282,5.912,6.53,8.779c1.206,1.539,2.661,2.865,3.943,4.344
			c5.443,6.277,10.85,12.592,16.3,18.863c4.043,4.655,8.169,9.233,12.161,13.935C470.374,262.364,470.324,263.513,470.702,265.089z
			 M307.776,133.067c0,3.491,0.26,6.372-0.144,9.149c-0.137,0.947-2.158,2.502-2.945,2.29c-3.517-0.948-7.238-0.135-9.667,2.94
			c-3.097,3.921-5.104,8.233-4.704,13.569c0.187,2.48,1.246,3.743,3.393,3.864c1.612,0.091,3.367-0.099,4.855-0.704
			c1.615-0.656,2.771-1.597,4.29,0.366c1.015,1.311,6.294-0.229,6.819-1.863c0.181-0.566-0.269-1.582-0.738-2.081
			c-0.542-0.578-1.424-0.813-2.229-1.234c1.573-4.678,3.215-9.19,4.602-13.784c1.342-4.443,2.421-8.973,3.68-13.703
			C311.865,132.393,309.697,132.75,307.776,133.067z M318.836,168.591c-0.041-2.479-0.041-2.479,3.337-5.402
			c3.057-2.644,3.962-6.27,1.378-9.716c-0.978-1.306-4.145-1.131-6.295-1.054c-0.821,0.03-1.588,1.676-2.381,2.586
			c1.829,0.627,2.995,0.182,3.938,0.484c0.943,0.303,2.472,1.754,2.354,2.013c-1.07,2.326-2.144,4.793-3.809,6.646
			c-2.172,2.418-4.567,4.506-4.964,9.197c3.399-0.719,6.178-1.223,8.883-2.002c0.283-0.082,0.133-1.787,0.191-2.877
			C320.401,168.517,319.621,168.553,318.836,168.591z"/>
		<path fill-rule="evenodd" clip-rule="evenodd" fill="#FFFFFF" d="M35.916,294.933c-0.098-1.996-0.385-2.986-0.146-3.813
			c1.028-3.555,2.266-7.043,3.325-10.587c1.805-6.042,3.51-12.114,5.303-18.159c1.05-3.539,2.2-7.047,3.284-10.576
			c2.339-7.613,4.688-15.223,6.979-22.852c0.496-1.652,0.732-3.388,1.132-5.073c1.428-6.009,2.778-12.042,4.34-18.015
			c1.621-6.197,3.454-12.335,5.195-18.497c1.153-4.082,2.335-8.155,3.459-12.245c1.74-6.33,3.401-12.684,5.17-19.003
			c2.369-8.463,4.825-16.898,7.213-25.355c1.686-5.967,3.192-11.993,5.016-17.913c1.62-5.256,3.8-10.332,5.301-15.62
			c1.332-4.692,2.259-9.535,2.998-14.372c0.417-2.73,0.309-6.264,2.997-6.888c2.148-0.499,4.884,1.242,7.228,2.301
			c1.776,0.803,3.31,2.161,5.013,3.16c4.463,2.619,8.89,5.32,13.465,7.711c3.235,1.69,6.729,2.835,10.037,4.388
			c4.906,2.304,10.214,4.087,14.496,7.316c4.88,3.68,10.039,5.994,15.674,7.867c2.991,0.993,5.502,3.5,8.285,5.229
			c1.298,0.807,2.73,1.379,4.094,2.073c5.743,2.919,11.446,5.929,17.235,8.747c6.044,2.941,5.955,2.742,1.349,7.97
			c-4.75,5.391-10.078,10.085-15.289,14.951c-3.636,3.395-6.436,7.733-9.888,11.365c-3.647,3.837-7.643,7.315-11.447,10.994
			c-1.582,1.529-3.027,3.208-4.594,4.754c-4.104,4.05-8.365,7.937-12.332,12.125c-4.504,4.757-8.64,9.89-13.153,14.636
			c-3.875,4.075-8.102,7.787-12.084,11.755c-3.177,3.165-6.235,6.459-9.321,9.722c-2.064,2.182-4.083,4.411-6.125,6.616
			c-3.569,3.855-7.063,7.79-10.739,11.533c-2.23,2.271-4.854,4.126-7.103,6.379c-3.55,3.558-6.842,7.393-10.414,10.925
			c-3.654,3.613-7.637,6.872-11.25,10.526c-3.75,3.794-7.221,7.885-10.834,11.825c-1.114,1.216-2.294,2.366-3.451,3.54
			C43.14,287.616,39.938,290.856,35.916,294.933z M98.706,176.576c-8.529-1.237-13.42,2.194-15.714,9.806
			c-0.155,0.515-0.817,0.843-1.16,1.321c-1.768,2.477-0.913,5.117,2.186,8.838c2.01,2.412,3.403,1.416,5.407,0.108
			c1.161-0.758,3.35-1.173,4.349-0.527c1.508,0.974,2.295,2.702,4.231,0.614c1.15-1.241,2.733-2.049,4.925-3.632
			c-2.319-0.741-3.405-1.087-4.82-1.539c3.108-9.157,6.002-18.226,7.14-28.069c-2.088,0.369-4.405,0.949-4.769,2.161
			C99.475,169.018,99.282,172.64,98.706,176.576z M110.354,204.675c0.245-7.624,5.284-13.964,3.86-21.524
			c-2.929-0.852-3.728,0.251-3.959,3.044c-0.265,3.196-1.114,6.372-1.981,9.474c-0.818,2.928-1.99,5.75-3.144,9.007
			C107.323,204.675,108.72,204.675,110.354,204.675z"/>
		<path fill-rule="evenodd" clip-rule="evenodd" fill="#FFFFFF" d="M281.398,42.896c-3.791,4.079-6.871,7.411-9.969,10.725
			c-3.173,3.394-6.313,6.824-9.557,10.142c-3.913,4.001-7.964,7.856-11.875,11.859c-3.444,3.524-6.442,7.611-10.228,10.661
			c-8.301,6.688-14.035,16.067-22.729,22.398c-3.733,2.719-6.416,7.137-9.209,11.064c-2.791,3.922-6.25,4.638-10.617,2.197
			c-4.683-2.617-9.692-4.602-14.4-7.176c-3.356-1.836-6.307-4.491-9.7-6.23c-3.872-1.987-8.14-3.134-12.045-5.061
			c-5.344-2.638-10.506-5.674-15.752-8.527c-3.392-1.845-6.786-3.686-10.196-5.493c-3.835-2.033-7.693-4.022-11.537-6.04
			c-1.041-0.546-2.054-1.15-3.098-1.688c-5.557-2.866-11.119-5.718-16.679-8.576c0.087-0.298,0.174-0.595,0.261-0.894
			c0.41-0.095,0.816-0.213,1.229-0.281c8.417-1.386,16.829-2.807,25.253-4.137c10.616-1.676,21.253-3.215,31.863-4.931
			c8.245-1.334,16.449-2.94,24.695-4.26c8.846-1.416,17.928-1.817,26.527-4.162c9.55-2.603,19.165-3.882,28.885-5.083
			c5.766-0.713,11.426-2.333,17.144-3.482c6.14-1.233,12.289-2.412,18.444-3.553C278.727,42.253,279.415,42.559,281.398,42.896z"/>
		<path fill-rule="evenodd" clip-rule="evenodd" fill="#FFFFFF" d="M220.02,169.961c3.363,0.24,6.14,0.438,8.917,0.638
			c-12.094,7.193-25.036,7.231-38.452,6.996c0.78-5.939,6.476-3.045,9.131-6.223c-1.15-0.48-2.107-1.16-3.115-1.254
			c-5.259-0.491-10.542-0.717-15.793-1.27c-3.205-0.337-6.4-0.962-9.532-1.749c-0.971-0.244-1.717-1.45-2.201-1.886
			c5.685-5.995,11.185-11.946,16.857-17.717c3.324-3.383,6.965-6.429,10.379-9.721c1.858-1.792,4.042-3.512,5.167-5.756
			c1.257-2.505,2.824-1.563,4.146-1.058c1.906,0.728,3.59,2.067,5.399,3.087c3.101,1.748,6.271,3.369,9.329,5.193
			c3.062,1.827,6.023,3.838,9.028,5.77c0.099,0.064,0.178,0.168,0.282,0.214c5.591,2.455,11.195,4.88,16.766,7.385
			c0.856,0.385,2.1,1.05,2.193,1.729c0.104,0.755-0.722,1.972-1.464,2.464c-1.831,1.212-3.791,2.265-5.798,3.132
			c-6.564,2.836-13.178,5.548-19.754,8.356C221.071,168.478,220.797,169.067,220.02,169.961z"/>
		<path fill-rule="evenodd" clip-rule="evenodd" d="M231.068,201.855c-0.938,3.934-2.261,7.478-2.533,11.106
			c-0.371,4.947-4.641,7.131-6.368,11.104c-1.442,3.314-12.082,4.799-13.551,1.893c-1.37-2.711-1.699-6.405-1.347-9.528
			c0.421-3.735,1.194-8.05,3.357-10.811c3.375-4.307,4.713-11.252,12.002-11.45C228.184,194.02,230.991,196.447,231.068,201.855z
			 M222.387,196.216c-1.831,2.418-4.189,4.931-5.79,7.885c-0.877,1.621-0.476,3.986-0.651,6.017
			c2.317,0.146,4.934,1.061,6.876,0.246c2.501-1.048,3.565-3.833,3.362-6.957C226.007,200.679,226.777,197.683,222.387,196.216z
			 M222.365,212.127c-2.446,0-4.83-0.464-6.91,0.161c-1.435,0.431-2.939,2.166-3.521,3.688c-0.621,1.623-0.478,3.739-0.126,5.525
			c0.243,1.232,1.23,2.545,2.25,3.25c0.372,0.256,1.816-1.123,2.748-1.792c0.556-0.399,1.245-0.758,1.568-1.323
			C219.996,218.796,223.312,216.768,222.365,212.127z"/>
		<path fill-rule="evenodd" clip-rule="evenodd" d="M307.776,133.067c1.921-0.317,4.089-0.675,7.212-1.19
			c-1.259,4.73-2.338,9.259-3.68,13.703c-1.387,4.594-3.028,9.106-4.602,13.784c0.805,0.421,1.687,0.656,2.229,1.234
			c0.47,0.499,0.919,1.515,0.738,2.081c-0.525,1.635-5.805,3.174-6.819,1.863c-1.519-1.963-2.675-1.022-4.29-0.366
			c-1.488,0.605-3.243,0.795-4.855,0.704c-2.146-0.121-3.206-1.384-3.393-3.864c-0.4-5.336,1.607-9.647,4.704-13.569
			c2.429-3.075,6.15-3.888,9.667-2.94c0.787,0.212,2.809-1.343,2.945-2.29C308.036,139.439,307.776,136.559,307.776,133.067z
			 M305.803,149.809c-3.3-4.178-5.012-4.095-8.028,0.494c-0.321,0.488-0.629,0.997-0.86,1.534c-0.945,2.194-2.231,4.326-2.675,6.629
			c-0.407,2.12,2.524,3.848,4.249,2.472c2.49-1.987,5.183-3.972,5.737-7.674C304.391,152.168,305.16,151.169,305.803,149.809z"/>
		<path fill-rule="evenodd" clip-rule="evenodd" d="M318.836,168.591c0.785-0.038,1.565-0.074,2.633-0.125
			c-0.059,1.09,0.092,2.795-0.191,2.877c-2.705,0.779-5.483,1.283-8.883,2.002c0.396-4.691,2.792-6.779,4.964-9.197
			c1.665-1.854,2.738-4.32,3.809-6.646c0.118-0.259-1.41-1.71-2.354-2.013c-0.943-0.302-2.109,0.143-3.938-0.484
			c0.793-0.91,1.56-2.556,2.381-2.586c2.15-0.077,5.317-0.251,6.295,1.054c2.584,3.446,1.679,7.072-1.378,9.716
			C318.795,166.111,318.795,166.111,318.836,168.591z"/>
		<path fill-rule="evenodd" clip-rule="evenodd" d="M98.706,176.576c0.576-3.937,0.769-7.559,1.775-10.919
			c0.363-1.212,2.681-1.792,4.769-2.161c-1.138,9.844-4.031,18.912-7.14,28.069c1.415,0.452,2.501,0.798,4.82,1.539
			c-2.191,1.583-3.774,2.391-4.925,3.632c-1.936,2.088-2.724,0.359-4.231-0.614c-0.999-0.646-3.188-0.23-4.349,0.527
			c-2.004,1.308-3.397,2.304-5.407-0.108c-3.099-3.721-3.954-6.361-2.186-8.838c0.342-0.479,1.005-0.807,1.16-1.321
			C85.286,178.771,90.177,175.339,98.706,176.576z M96.365,177.765c-1.82,0.861-3.555,1.243-4.671,2.316
			c-1.596,1.536-2.768,3.558-4.073,5.408c-2.84,4.024-2.451,6.113,1.388,8.083C93.292,189.752,97.895,186.113,96.365,177.765z"/>
		<path fill-rule="evenodd" clip-rule="evenodd" d="M110.354,204.675c-1.633,0-3.03,0-5.224,0c1.154-3.257,2.325-6.079,3.144-9.007
			c0.867-3.102,1.716-6.277,1.981-9.474c0.231-2.793,1.031-3.896,3.959-3.044C115.637,190.711,110.598,197.051,110.354,204.675z"/>
		<path fill-rule="evenodd" clip-rule="evenodd" fill="#FFFFFF" d="M222.387,196.216c4.39,1.467,3.62,4.463,3.798,7.19
			c0.204,3.124-0.861,5.909-3.362,6.957c-1.943,0.814-4.56-0.1-6.876-0.246c0.175-2.03-0.226-4.396,0.651-6.017
			C218.198,201.146,220.556,198.634,222.387,196.216z"/>
		<path fill-rule="evenodd" clip-rule="evenodd" fill="#FFFFFF" d="M222.365,212.127c0.947,4.641-2.369,6.669-3.992,9.509
			c-0.323,0.565-1.012,0.924-1.568,1.323c-0.931,0.669-2.375,2.048-2.748,1.792c-1.02-0.705-2.007-2.018-2.25-3.25
			c-0.352-1.786-0.495-3.902,0.126-5.525c0.582-1.521,2.086-3.257,3.521-3.688C217.535,211.663,219.919,212.127,222.365,212.127z"/>
		<path fill-rule="evenodd" clip-rule="evenodd" fill="#FFFFFF" d="M305.803,149.809c-0.643,1.361-1.412,2.359-1.577,3.456
			c-0.555,3.702-3.247,5.687-5.737,7.674c-1.725,1.376-4.656-0.353-4.249-2.472c0.443-2.304,1.729-4.436,2.675-6.629
			c0.231-0.538,0.539-1.046,0.86-1.534C300.791,145.714,302.503,145.63,305.803,149.809z"/>
		<path fill-rule="evenodd" clip-rule="evenodd" fill="#FFFFFF" d="M96.365,177.765c1.529,8.349-3.074,11.987-7.356,15.808
			c-3.839-1.97-4.228-4.059-1.388-8.083c1.305-1.851,2.477-3.872,4.073-5.408C92.811,179.008,94.545,178.626,96.365,177.765z"/>
	</g>
</g>
</svg>
