<?xml version="1.0" encoding="utf-8"?>
<!-- Generator: Adobe Illustrator 16.0.0, SVG Export Plug-In . SVG Version: 6.00 Build 0)  -->
<!DOCTYPE svg PUBLIC "-//W3C//DTD SVG 1.1//EN" "http://www.w3.org/Graphics/SVG/1.1/DTD/svg11.dtd">
<svg version="1.1" id="Layer_1" xmlns="http://www.w3.org/2000/svg" xmlns:xlink="http://www.w3.org/1999/xlink" x="0px" y="0px"
	 width="953.383px" height="270.788px" viewBox="0 0 953.383 270.788" enable-background="new 0 0 953.383 270.788"
	 xml:space="preserve">
<g>
	<g>
		<path fill-rule="evenodd" clip-rule="evenodd" fill="#FFFFFF" d="M0.75,0.75c317.795,0,635.589,0,953.383,0
			c0,90.263,0,180.525,0,270.788c-317.794,0-635.588,0-953.383,0C0.75,181.275,0.75,91.013,0.75,0.75z M845.082,31.645
			c-0.004-0.312-0.007-0.624-0.011-0.936c-4.091-0.281-8.182-0.775-12.274-0.79c-5.094-0.019-10.191,0.549-15.284,0.504
			c-3.932-0.036-7.862-0.942-11.79-0.911c-11.332,0.091-22.662,0.615-33.995,0.665c-7.01,0.031-14.021-0.637-21.034-0.728
			c-7.211-0.094-14.43,0.062-21.641,0.248c-3.565,0.092-7.126,0.755-10.683,0.71c-9.07-0.117-18.137-0.634-27.206-0.693
			c-4.543-0.029-9.09,0.867-13.635,0.875c-43.242,0.082-86.484,0.059-129.726,0.111c-0.853,0.001-2.096,0.288-2.497,0.885
			c-4.227,6.283-8.412,12.598-12.42,19.022c-4.137,6.631-8.065,13.391-12.082,20.097c-2.389,3.987-4.764,7.981-7.159,11.964
			c-3.01,5.005-5.952,10.054-9.07,14.991c-4.168,6.598-8.626,13.017-12.687,19.679c-4.394,7.205-8.374,14.661-12.715,21.899
			c-5.011,8.356-10.175,16.624-15.354,24.879c-4.613,7.352-9.363,14.618-13.981,21.967c-0.67,1.066-1.65,3.021-1.26,3.449
			c0.861,0.946,2.5,1.626,3.828,1.638c11.982,0.103,23.965,0.044,35.948,0.022c17.877-0.032,35.753-0.063,53.631-0.111
			c8.697-0.022,17.397-0.031,26.094-0.163c2.055-0.03,4.105-0.781,6.152-0.756c3.31,0.041,6.62,0.718,9.921,0.651
			c7.164-0.143,14.322-0.846,21.484-0.863c48.609-0.115,97.219-0.11,145.828-0.159c1.028-0.001,2.057-0.186,3.086-0.283
			c0.114-0.513,0.23-1.023,0.346-1.536c-2.487-0.854-4.975-1.708-7.498-2.575c0.175-0.759,0.165-1.314,0.414-1.708
			c6.094-9.632,12.275-19.209,18.313-28.876c6.077-9.729,11.998-19.554,18.033-29.309c0.957-1.547,2.292-2.864,3.218-4.426
			c3.803-6.413,7.427-12.933,11.278-19.314c8.014-13.276,16.091-26.514,24.219-39.721c5.461-8.875,10.93-17.75,16.687-26.432
			C840.731,33.846,843.208,32.945,845.082,31.645z M267.829,190.683c3.075-10.198,5.82-19.306,8.566-28.412
			c-0.247-0.144-0.494-0.287-0.74-0.431c-2.154,2.058-4.307,4.115-6.937,6.629c-0.111-1.66-0.215-2.501-0.217-3.341
			c-0.03-20.615,0.043-41.23-0.101-61.844c-0.104-15.045-0.496-30.088-0.734-45.133c-0.008-0.514,0.139-1.382,0.415-1.472
			c0.524-0.172,1.317-0.085,1.778,0.223c1.22,0.817,2.311,1.823,3.475,2.726c0.633,0.491,1.31,0.923,1.968,1.381
			c-0.299-2.958-1.323-5.263-2.181-7.629c-1.521-4.191-2.764-8.492-4.455-12.61c-1.555-3.788-0.333-6.067,3.779-5.975
			c4.406,0.099,8.807,0.571,13.208,0.546c2.668-0.016,5.333-0.663,8-1.026c-0.022-0.396-0.045-0.792-0.068-1.189
			c-1.009-0.071-2.017-0.197-3.025-0.204c-24.227-0.181-48.454-0.357-72.68-0.514c-8.366-0.055-16.732-0.13-25.096-0.067
			c-21.093,0.157-42.185,0.435-63.277,0.57c-14.739,0.094-29.479,0.05-44.217,0.02c-1.897-0.003-3.26,0.185-3.849,2.467
			c-0.721,2.792-2.056,5.42-2.946,8.176c-1.885,5.844-3.567,11.754-5.489,17.586c-3.503,10.632-7.112,21.229-10.693,31.835
			c-0.942,2.792-2.038,5.535-2.893,8.352c-1.999,6.583-3.753,13.243-5.863,19.789c-3.088,9.582-6.466,19.071-9.594,28.64
			c-1.823,5.58-3.356,11.256-5.104,16.86c-0.869,2.788-2.016,5.49-2.882,8.278c-1.523,4.904-2.805,9.886-4.427,14.756
			c-0.949,2.851-0.078,4.376,3.015,4.372c5.417-0.007,10.837,0.097,16.249-0.08c4.59-0.149,9.173-0.939,13.754-0.9
			c11.499,0.097,22.995,0.683,34.493,0.721c7.704,0.026,15.407-0.761,23.113-0.819c20.868-0.159,41.737-0.155,62.606-0.095
			c1.394,0.003,2.774,1.049,4.181,1.553c1.104,0.396,2.229,0.931,3.367,0.991c1.456,0.076,2.934-0.262,4.775-0.462
			c0.609-1.478,1.12-2.953-2.227-2.376c-1.202,0.207-2.625-0.87-3.681-1.263c1.713-5.081,3.203-9.345,4.584-13.643
			c1.577-4.899,2.981-9.855,4.599-14.742c1.653-4.994,3.54-9.913,5.205-14.903c1.712-5.132,3.221-10.329,4.925-15.462
			c1.459-4.396,3.173-8.708,4.582-13.119c1.308-4.092,2.246-8.302,3.554-12.393c2.763-8.64,5.755-17.208,8.474-25.861
			c1.99-6.336,3.558-12.806,5.56-19.139c2.546-8.059,5.4-16.02,7.992-24.065c0.749-2.325,1.883-3.494,4.478-3.425
			c5.725,0.15,11.457,0.136,17.184,0.057c2.2-0.031,2.746,1.209,2.267,2.841c-1.477,5.019-3.141,9.984-4.781,14.953
			c-0.941,2.851-1.979,5.67-2.974,8.503c0.331,0.147,0.662,0.294,0.993,0.441c2.141-1.604,4.282-3.209,7.388-5.537
			c0,38.104,0,75,0,111.888c-2.412-1.832-4.889-3.714-7.365-5.596c-0.341,0.353-0.682,0.704-1.023,1.057
			c1.989,4.448,3.712,9.041,6.041,13.304C265.141,180.621,263.819,186.057,267.829,190.683z M891.426,165.006
			c-3.924,0.693-3.418-6.088-7.616-4.895c3.143,9.911,6.196,19.542,9.539,30.083c0.808-0.991,2.192-1.899,2.224-2.852
			c0.268-8.354,3.029-15.956,6.497-23.404c0.541-1.162,0.501-2.594,0.729-3.901c-0.32-0.145-0.641-0.29-0.961-0.434
			c-2.146,1.894-4.293,3.787-7.189,6.343c0-38.092,0-75.021,0-112.473c2.566,2.164,4.723,3.982,6.879,5.799
			c0.236-0.169,0.473-0.339,0.709-0.508c-2.859-8.379-5.719-16.758-8.779-25.727c4.98,0,9.039-0.024,13.099,0.004
			c10.255,0.072,10.255,0.082,12-2.046c-13.859,0-27.405,0-40.95,0c3.646,3.764,8.642,0.569,12.827,2.601
			c-0.438,2.45-0.608,4.836-1.311,7.054c-1.702,5.38-3.688,10.67-5.456,16.03c-0.22,0.666,0.192,1.54,0.312,2.318
			c0.722-0.276,1.607-0.376,2.134-0.863c1.42-1.312,2.687-2.79,4.014-4.202c0.435,0.164,0.868,0.329,1.302,0.492
			C891.426,91.281,891.426,128.137,891.426,165.006z M291.917,107.714c4.142,2.686,1.317,5.459,0.823,7.949
			c-0.979,4.929-2.59,9.731-3.786,14.623c-0.222,0.908,0.276,1.991,0.442,2.993c0.428,0.058,0.854,0.115,1.283,0.173
			c1.33-2.71,2.401-5.594,4.066-8.081c1.599-2.388,3.812-4.365,5.755-6.523c0.626,1.629,0.534,3.014,0.154,4.315
			c-0.62,2.121-1.646,4.145-2.067,6.296c-0.23,1.17,0.327,2.558,0.795,3.743c0.078,0.198,1.789,0.161,2.265-0.284
			c1.335-1.244,3.01-2.591,3.46-4.203c0.655-2.348,0.475-4.963,0.426-7.46c-0.035-1.744,0.134-4.151-0.867-5.019
			c-0.875-0.758-3.301,0.045-4.953,0.49c-1.121,0.301-2.087,1.173-3.658,2.108c1.023-5.045,3.786-9.437,1.183-13.844
			C295.449,105.906,294.04,106.628,291.917,107.714z M929.055,104.703c4.61,0.314,8.583-2.128,7.527-3.991
			c-1.951-3.441-0.418-6.116,0.294-9.208c0.293-1.268-0.526-3.488-1.56-4.148c-0.859-0.548-2.855,0.369-4.191,0.979
			c-1.13,0.517-2.035,1.527-3.04,2.318c-0.257-0.124-0.514-0.247-0.771-0.371c0.835-3.766,1.67-7.533,2.607-11.759
			c-2.727,0.173-4.481,0.286-5.398,0.343c-0.148,2.934,0.05,5.291-0.442,7.493c-1.135,5.079-2.677,10.065-3.882,15.131
			c-0.254,1.069,0.23,2.313,0.374,3.477c0.401,0.017,0.802,0.035,1.203,0.051c0.722-0.919,1.627-1.749,2.13-2.775
			c1.109-2.264,1.541-5.063,3.149-6.818c1.43-1.56,1.586-5.435,5.548-4.358c-0.691,2.406-1.344,4.514-1.898,6.647
			C930.134,99.911,929.656,102.133,929.055,104.703z M587.256,210.824c-0.798,4.008-1.296,7.326-2.143,10.554
			c-1.035,3.948-2.558,7.775-3.438,11.75c-0.245,1.106,0.759,3.423,1.654,3.704c7.89,2.482,13.23-1.716,14.689-8.234
			c1.38-6.165-0.07-8.943-6.511-8.145c-0.558,0.069-1.149-0.144-2.05-0.271c0.827-3.162,1.593-6.095,2.446-9.357
			C589.748,210.824,588.055,210.824,587.256,210.824z M94.071,222.53c0.744-2.782,1.405-4.956,1.875-7.17
			c0.181-0.854,0.107-2.518-0.158-2.584c-1.401-0.351-2.933-0.515-4.348-0.292c-0.487,0.076-1.197,1.528-1.078,2.228
			c0.986,5.78-1.061,10.852-3.027,16.103c-0.875,2.336-2.745,6.358,0.387,7.655c2.865,1.186,7.686,1.254,9.883-0.453
			c2.827-2.195,4.588-6.477,5.533-10.185c0.979-3.842-2.065-6.21-6.083-5.734C96.115,222.209,95.179,222.368,94.071,222.53z
			 M846.188,30.968c-0.01,0.305-0.019,0.609-0.028,0.914c0.275,0.209,0.548,0.596,0.828,0.602c9.34,0.203,18.681,0.397,28.022,0.485
			c0.651,0.007,1.312-0.815,1.968-1.251c-0.123-0.25-0.247-0.5-0.37-0.75C866.468,30.968,856.327,30.968,846.188,30.968z
			 M221.617,192.322c-8.086,0-15.692,0-23.943,0c0.762,1.671,1.125,2.469,1.138,2.495c2.316,0.199,3.897,0.462,5.475,0.448
			c4.363-0.04,8.566-1.121,13.134,0.004C221.706,196.325,222.471,195.02,221.617,192.322z M236.298,193.197
			c0.238,0.412,0.477,0.825,0.715,1.236c4.685,0,9.371,0.077,14.05-0.072c0.812-0.026,1.592-1.012,2.387-1.555
			c-0.864-0.46-1.696-1.233-2.598-1.325c-3.909-0.402-7.798,1.067-11.779,0.132C238.313,191.435,237.231,192.634,236.298,193.197z
			 M778.903,185.839c-1.342,0.807-2.281,1.858-3.095,1.77c-2.385-0.261-4.7-1.166-7.085-1.417c-0.902-0.095-1.92,0.907-2.885,1.409
			c0.433,0.712,0.843,2.023,1.3,2.04c4.316,0.157,8.641,0.094,13.663,0.094C779.921,187.926,779.47,186.999,778.903,185.839z
			 M796.847,186.606c-0.041,0.195-0.081,0.392-0.12,0.587c-1.132-0.206-2.295-0.65-3.378-0.505c-0.461,0.062-0.755,1.36-1.125,2.096
			c1.206,0.253,2.41,0.704,3.619,0.716c2.42,0.022,4.842-0.214,7.265-0.307c1.017-0.039,2.036,0.014,3.054,0.024
			c-0.248-1.058-0.496-2.115-0.66-2.813c-1.814,0.371-3.085,0.835-4.357,0.838C799.712,187.247,798.278,186.836,796.847,186.606z
			 M275.154,194.311c3.874,0,7.352,0.076,10.821-0.063c0.688-0.027,1.343-0.877,2.014-1.347c-0.683-0.479-1.351-1.343-2.052-1.371
			c-3.513-0.142-7.035-0.065-10.909-0.065C275.081,192.672,275.132,193.813,275.154,194.311z M911.945,187.527
			c-0.133-0.236-0.267-0.473-0.398-0.707c-2.663,0-5.326,0-8.616,0c-0.276,0.748-1.876,2.455,1.135,2.751
			c3.353,0.33,6.759,0.257,10.133,0.122c0.822-0.033,1.607-1,2.41-1.536c-0.896-0.698-1.71-1.622-2.725-1.987
			C913.456,186.015,912.604,187.038,911.945,187.527z M833.821,189.301c3.604,0.349,6.66,0.645,9.754,0.943
			c-0.603-1.768-0.012-4.822-3.835-3.954c-1.247,0.283-2.509,0.504-3.765,0.755c-0.125-0.27-0.248-0.538-0.372-0.808
			C835.098,187.106,834.592,187.976,833.821,189.301z M849.689,189.486c3.319,0,6.111,0,9.078,0
			c-0.174-2.683-0.77-4.189-3.577-2.844c-0.512,0.245-1.345,0.438-1.749,0.194C850.39,184.989,850.31,187.272,849.689,189.486z
			 M822.938,189.755c2.938,0,5.093,0.072,7.235-0.041c0.735-0.038,1.477-0.492,2.137-0.887c0.101-0.061-0.115-1.123-0.371-1.217
			c-0.684-0.252-1.467-0.295-2.212-0.297c-0.827-0.003-2.087,0.515-2.414,0.146C824.612,184.412,824.219,186.903,822.938,189.755z
			 M230.391,195.128c1.87-0.454,3.414-0.829,4.958-1.203c-0.424-2.002-0.424-2.002-5.393-2.104
			C230.111,192.997,230.259,194.123,230.391,195.128z M864.48,188.216c0.271,0.604,0.543,1.206,0.815,1.809
			c1.456-0.46,2.913-0.919,4.369-1.379c-0.579-0.854-1.408-2.514-1.692-2.426C866.723,186.609,865.63,187.504,864.48,188.216z
			 M243.625,151.296c0.352,0.489,0.702,0.978,1.054,1.466c1.94-1.431,3.88-2.863,5.82-4.295c-0.307-0.425-0.614-0.849-0.921-1.272
			C247.593,148.562,245.609,149.929,243.625,151.296z M806.652,189.168c2.385,0,4.006,0,6.141,0
			C810.513,184.818,808.941,186.205,806.652,189.168z M781.177,188.102c0.1,0.401,0.2,0.804,0.301,1.206
			c1.537,0.096,3.074,0.192,4.611,0.289c0.392-0.651,0.782-1.303,1.173-1.955c-1.052-0.518-2.141-1.504-3.146-1.424
			C783.093,186.299,782.153,187.431,781.177,188.102z M881.015,187.98c-1.627-0.969-2.595-1.99-3.258-1.82
			c-0.733,0.188-1.187,1.467-1.763,2.271c0.74,0.446,1.473,1.226,2.222,1.241C878.906,189.685,879.611,188.877,881.015,187.98z"/>
		<path fill-rule="evenodd" clip-rule="evenodd" d="M845.082,31.645c-1.874,1.3-4.351,2.201-5.521,3.967
			c-5.757,8.682-11.226,17.557-16.687,26.432c-8.128,13.207-16.205,26.444-24.219,39.721c-3.852,6.381-7.476,12.902-11.278,19.314
			c-0.926,1.562-2.261,2.878-3.218,4.426c-6.035,9.755-11.956,19.58-18.033,29.309c-6.038,9.667-12.22,19.244-18.313,28.876
			c-0.249,0.394-0.239,0.949-0.414,1.708c2.523,0.867,5.011,1.722,7.498,2.575c-0.115,0.513-0.231,1.023-0.346,1.536
			c-1.029,0.098-2.058,0.282-3.086,0.283c-48.609,0.049-97.219,0.044-145.828,0.159c-7.162,0.018-14.32,0.721-21.484,0.863
			c-3.301,0.066-6.611-0.61-9.921-0.651c-2.047-0.025-4.098,0.726-6.152,0.756c-8.696,0.132-17.396,0.141-26.094,0.163
			c-17.878,0.048-35.754,0.079-53.631,0.111c-11.983,0.021-23.966,0.08-35.948-0.022c-1.328-0.012-2.966-0.691-3.828-1.638
			c-0.39-0.428,0.59-2.383,1.26-3.449c4.618-7.349,9.369-14.615,13.981-21.967c5.179-8.255,10.343-16.522,15.354-24.879
			c4.341-7.239,8.321-14.694,12.715-21.899c4.061-6.662,8.519-13.081,12.687-19.679c3.118-4.938,6.061-9.986,9.07-14.991
			c2.396-3.983,4.771-7.977,7.159-11.964c4.017-6.706,7.945-13.466,12.082-20.097c4.008-6.424,8.193-12.739,12.42-19.022
			c0.401-0.597,1.645-0.884,2.497-0.885c43.241-0.053,86.483-0.029,129.726-0.111c4.545-0.009,9.092-0.905,13.635-0.875
			c9.069,0.06,18.136,0.577,27.206,0.693c3.557,0.045,7.117-0.618,10.683-0.71c7.211-0.186,14.43-0.341,21.641-0.248
			c7.014,0.091,14.024,0.759,21.034,0.728c11.333-0.05,22.663-0.574,33.995-0.665c3.928-0.032,7.858,0.875,11.79,0.911
			c5.093,0.045,10.19-0.522,15.284-0.504c4.093,0.015,8.184,0.508,12.274,0.79C845.075,31.021,845.078,31.333,845.082,31.645z
			 M742.854,185.713c-8.456-6.749-16.112-13.009-23.932-19.057c-6.756-5.225-13.712-10.188-20.541-15.318
			c-1.214-0.911-2.144-2.202-3.365-3.098c-4.471-3.277-9.1-6.342-13.499-9.71c-6.64-5.083-13.136-10.354-19.693-15.544
			c-4.238-3.354-8.419-6.786-12.759-10.003c-1.023-0.758-2.817-1.428-3.859-1.048c-4.859,1.772-9.579,3.923-14.347,5.943
			c-6.984,2.96-13.938,5.993-20.959,8.867c-6.361,2.603-12.816,4.978-19.187,7.56c-4.525,1.835-8.944,3.932-13.477,5.75
			c-2.649,1.063-5.492,1.65-8.133,2.734c-3.762,1.545-7.35,3.526-11.134,5.005c-6.319,2.468-12.788,4.555-19.1,7.04
			c-8.338,3.285-16.567,6.844-24.88,10.193c-3.118,1.257-6.961,1.525-9.361,3.558c-3.324,2.814-7.097,3.555-10.901,4.716
			c-2.073,0.633-4.152,1.297-6.136,2.16c-3.963,1.724-7.824,3.68-11.795,5.382c-4.575,1.961-9.224,3.752-13.84,5.616
			c0.062,0.371,0.123,0.741,0.186,1.111C555.376,186.954,648.611,186.337,742.854,185.713z M547.725,34.35
			c-30.913,50.094-61.585,99.795-92.52,149.924c1.292,0.104,1.974,0.367,2.467,0.167c4.945-2.011,9.906-3.994,14.763-6.203
			c3.195-1.453,6.14-4.421,9.353-4.667c6.32-0.483,10.834-4.55,16.325-6.545c6.117-2.224,12.09-4.837,18.162-7.188
			c6.699-2.593,13.503-4.926,20.146-7.654c6.765-2.779,13.367-5.947,20.077-8.86c5.435-2.36,11.292-3.267,16.621-6.417
			c5.752-3.398,12.614-4.915,18.988-7.263c2.92-1.076,5.894-2.036,8.731-3.297c5.646-2.509,11.145-5.352,16.832-7.758
			c6.416-2.714,12.981-5.073,19.459-7.645c1.836-0.728,3.593-1.654,5.99-2.771C610.93,83.262,579.428,58.883,547.725,34.35z
			 M554.739,34.67c0.644,1.051,0.871,1.815,1.384,2.199c7.419,5.56,14.933,10.994,22.304,16.617
			c4.658,3.553,9.021,7.494,13.69,11.032c4.543,3.444,9.403,6.472,13.953,9.909c7.57,5.718,15,11.622,22.501,17.433
			c0.748,0.581,1.625,1,2.354,1.601c4.771,3.926,9.377,8.077,14.366,11.699c1.327,0.963,4.054,0.962,5.716,0.316
			c4.749-1.845,9.209-4.425,13.918-6.391c6.598-2.753,13.185-5.679,20.032-7.641c4.866-1.394,9.116-3.841,13.685-5.708
			c7.688-3.143,15.606-5.714,23.379-8.655c1.76-0.666,3.229-2.094,4.985-2.775c4.173-1.617,9.015-2.181,12.529-4.666
			c5.277-3.731,11.729-3.706,17.191-7.078c5.95-3.674,13.233-5.156,19.861-7.779c3.929-1.554,7.656-3.619,11.587-5.167
			c3.598-1.417,7.378-2.364,11.02-3.678c2.602-0.938,5.101-2.158,7.657-3.223c5.206-2.168,10.407-4.348,15.637-6.458
			c2.012-0.813,4.094-1.454,6.144-2.172c-0.087-0.429-0.172-0.857-0.259-1.285C737.34,33.423,646.306,34.045,554.739,34.67z
			 M725.403,140.374c0.042,0.313,0.083,0.629,0.124,0.943c-3.737,2.165-7.471,4.34-11.216,6.493
			c-1.975,1.135-3.964,2.245-5.959,3.346c-2.549,1.406-1.569,2.243,0.271,3.545c5.771,4.085,11.464,8.294,17.054,12.625
			c5.255,4.069,10.339,8.357,15.504,12.542c0.47,0.381,0.955,0.759,1.48,1.054c1.668,0.937,2.717,0.887,3.795-1.189
			c2.17-4.176,4.787-8.122,7.268-12.134c4.841-7.827,9.823-15.568,14.543-23.467c3.951-6.609,7.462-13.482,11.446-20.07
			c3.705-6.127,7.782-12.03,11.69-18.035c3.734-5.739,7.562-11.422,11.171-17.24c5.083-8.194,9.916-16.543,15.025-24.721
			c3.359-5.376,7.128-10.498,10.503-15.867c2.377-3.781,4.398-7.787,6.673-11.86c-0.719-0.143-1.27-0.443-1.656-0.299
			c-6.108,2.269-12.224,4.527-18.269,6.955c-1.527,0.614-2.705,2.111-4.237,2.694c-6.518,2.48-13.159,4.639-19.654,7.173
			c-4.871,1.899-9.554,4.277-14.383,6.292c-8.486,3.542-17.02,6.975-25.539,10.44c-0.896,0.365-1.824,0.652-2.742,0.965
			c-4.221,1.438-8.854,2.197-12.572,4.459c-5.94,3.616-12.528,5.17-18.894,7.433c-2.158,0.767-2.373,1.833-1.146,3.177
			c3.916,4.288,8.009,8.415,12.03,12.607c1.353,1.411,2.696,2.83,4.043,4.246c-0.263,0.403-0.526,0.805-0.789,1.208
			c-2.954-1.147-5.907-2.295-9.502-3.692c2.019,14.241,2.057,27.61-5.896,40.378C719.348,140.374,722.375,140.374,725.403,140.374z
			 M713.747,135.68c5.288-4.841,8.237-23.836,5.007-30.643c-0.674,1.349-1.176,2.598-1.897,3.701
			c-0.394,0.602-1.162,0.957-1.762,1.423c-0.438-0.65-1.193-1.27-1.258-1.955c-0.293-3.101-0.335-6.225-0.571-9.333
			c-0.335-4.403-0.762-8.799-1.219-13.988c-20.488,8.367-39.969,16.323-59.781,24.415c0.579,1.005,0.819,1.906,1.405,2.358
			c2.74,2.117,5.679,3.984,8.354,6.176c3.867,3.169,7.418,6.737,11.373,9.786c6.924,5.338,14.08,10.373,21.072,15.624
			c1.695,1.272,2.999,3.074,4.714,4.313c2.688,1.942,4.825,1.074,5.796-1.624c1.864-5.18,3.989-10.268,6.119-15.346
			c0.211-0.501,1.209-0.672,2.166-1.163C713.444,131.75,713.58,133.514,713.747,135.68z"/>
		<path fill-rule="evenodd" clip-rule="evenodd" d="M267.829,190.683c-4.009-4.626-2.688-10.062-4.954-14.213
			c-2.328-4.263-4.052-8.855-6.041-13.304c0.341-0.353,0.682-0.704,1.023-1.057c2.477,1.882,4.953,3.764,7.365,5.596
			c0-36.887,0-73.783,0-111.888c-3.106,2.328-5.247,3.933-7.388,5.537c-0.331-0.146-0.662-0.293-0.993-0.441
			c0.995-2.833,2.033-5.652,2.974-8.503c1.641-4.969,3.304-9.935,4.781-14.953c0.479-1.632-0.067-2.872-2.267-2.841
			c-5.727,0.079-11.459,0.093-17.184-0.057c-2.594-0.069-3.729,1.1-4.478,3.425c-2.591,8.045-5.445,16.007-7.992,24.065
			c-2.002,6.333-3.57,12.802-5.56,19.139c-2.718,8.653-5.71,17.221-8.474,25.861c-1.308,4.091-2.246,8.301-3.554,12.393
			c-1.409,4.411-3.123,8.723-4.582,13.119c-1.705,5.133-3.213,10.331-4.925,15.462c-1.665,4.99-3.551,9.909-5.205,14.903
			c-1.618,4.887-3.022,9.843-4.599,14.742c-1.381,4.298-2.871,8.562-4.584,13.643c1.055,0.393,2.479,1.47,3.681,1.263
			c3.347-0.577,2.836,0.898,2.227,2.376c-1.842,0.2-3.319,0.538-4.775,0.462c-1.138-0.061-2.262-0.596-3.367-0.991
			c-1.407-0.504-2.787-1.55-4.181-1.553c-20.869-0.061-41.738-0.064-62.606,0.095c-7.706,0.059-15.409,0.846-23.113,0.819
			c-11.498-0.038-22.994-0.624-34.493-0.721c-4.581-0.039-9.164,0.751-13.754,0.9c-5.412,0.177-10.832,0.073-16.249,0.08
			c-3.093,0.004-3.964-1.521-3.015-4.372c1.622-4.87,2.904-9.852,4.427-14.756c0.866-2.788,2.013-5.49,2.882-8.278
			c1.748-5.604,3.281-11.28,5.104-16.86c3.127-9.569,6.505-19.058,9.594-28.64c2.11-6.546,3.865-13.206,5.863-19.789
			c0.855-2.817,1.951-5.561,2.893-8.352c3.581-10.606,7.19-21.203,10.693-31.835c1.921-5.832,3.604-11.742,5.489-17.586
			c0.89-2.756,2.225-5.384,2.946-8.176c0.589-2.283,1.952-2.471,3.849-2.467c14.739,0.03,29.479,0.075,44.217-0.02
			c21.093-0.135,42.184-0.413,63.277-0.57c8.364-0.063,16.73,0.012,25.096,0.067c24.227,0.157,48.454,0.333,72.68,0.514
			c1.009,0.007,2.017,0.133,3.025,0.204c0.022,0.396,0.045,0.793,0.068,1.189c-2.667,0.363-5.332,1.01-8,1.026
			c-4.401,0.025-8.802-0.447-13.208-0.546c-4.112-0.092-5.334,2.188-3.779,5.975c1.69,4.118,2.934,8.419,4.455,12.61
			c0.857,2.366,1.882,4.671,2.181,7.629c-0.658-0.458-1.335-0.891-1.968-1.381c-1.164-0.903-2.255-1.909-3.475-2.726
			c-0.46-0.308-1.254-0.396-1.778-0.223c-0.276,0.09-0.423,0.958-0.415,1.472c0.239,15.044,0.63,30.087,0.734,45.133
			c0.144,20.614,0.07,41.229,0.101,61.844c0.001,0.84,0.105,1.681,0.217,3.341c2.63-2.514,4.783-4.571,6.937-6.629
			c0.246,0.144,0.493,0.287,0.74,0.431C273.649,171.377,270.903,180.484,267.829,190.683z M35.726,189.776
			c2.182,0,3.672,0.002,5.163,0c46.226-0.063,92.452-0.173,138.678-0.15c9.602,0.005,7.184,1.052,10.557-6.467
			c0.544-1.213,0.453-2.693,0.877-3.978c3.695-11.188,7.526-22.333,11.143-33.546c2.655-8.234,5.014-16.563,7.577-24.826
			c0.866-2.792,2.043-5.487,2.921-8.275c2.227-7.066,4.283-14.185,6.557-21.234c3.128-9.698,6.388-19.353,9.604-29.023
			c1.588-4.777,3.234-9.535,4.791-14.323c1.249-3.841,2.402-7.714,3.66-11.773c-1.029-0.141-1.627-0.295-2.225-0.293
			c-14.115,0.032-28.229,0.11-42.344,0.122c-33.989,0.029-67.978,0.059-101.966,0.001c-3.602-0.006-6.704-0.009-7.072,4.742
			c-0.126,1.628-0.946,3.212-1.506,4.796c-2.559,7.243-5.33,14.417-7.663,21.73c-3.131,9.817-5.936,19.739-8.867,29.621
			c-0.787,2.651-1.424,5.351-2.31,7.967c-1.967,5.814-4.092,11.574-6.069,17.384c-1.895,5.568-3.72,11.159-5.512,16.761
			c-2.523,7.887-4.999,15.789-7.473,23.691c-1.544,4.935-3.026,9.888-4.574,14.82C38.439,181.45,37.151,185.36,35.726,189.776z"/>
		<path fill-rule="evenodd" clip-rule="evenodd" d="M891.426,165.006c0-36.869,0-73.725,0-110.58
			c-0.434-0.163-0.867-0.328-1.302-0.492c-1.327,1.413-2.594,2.89-4.014,4.202c-0.526,0.487-1.412,0.586-2.134,0.863
			c-0.119-0.778-0.531-1.652-0.312-2.318c1.768-5.36,3.754-10.65,5.456-16.03c0.702-2.218,0.873-4.604,1.311-7.054
			c-4.186-2.031-9.181,1.163-12.827-2.601c13.545,0,27.091,0,40.95,0c-1.745,2.128-1.745,2.118-12,2.046
			c-4.06-0.029-8.118-0.004-13.099-0.004c3.061,8.969,5.92,17.348,8.779,25.727c-0.236,0.169-0.473,0.339-0.709,0.508
			c-2.156-1.817-4.313-3.636-6.879-5.799c0,37.451,0,74.381,0,112.473c2.896-2.556,5.043-4.449,7.189-6.343
			c0.32,0.144,0.641,0.289,0.961,0.434c-0.228,1.308-0.188,2.739-0.729,3.901c-3.468,7.448-6.229,15.05-6.497,23.404
			c-0.031,0.952-1.416,1.86-2.224,2.852c-3.343-10.541-6.396-20.172-9.539-30.083C888.008,158.918,887.502,165.699,891.426,165.006z
			"/>
		<path fill-rule="evenodd" clip-rule="evenodd" d="M291.917,107.714c2.123-1.086,3.532-1.808,5.321-2.724
			c2.603,4.408-0.16,8.799-1.183,13.844c1.571-0.936,2.538-1.807,3.658-2.108c1.652-0.444,4.078-1.248,4.953-0.49
			c1,0.867,0.832,3.274,0.867,5.019c0.049,2.497,0.229,5.113-0.426,7.46c-0.45,1.612-2.125,2.959-3.46,4.203
			c-0.476,0.444-2.187,0.481-2.265,0.284c-0.468-1.185-1.025-2.573-0.795-3.743c0.421-2.151,1.447-4.175,2.067-6.296
			c0.38-1.301,0.472-2.687-0.154-4.315c-1.943,2.158-4.156,4.135-5.755,6.523c-1.665,2.487-2.736,5.37-4.066,8.081
			c-0.428-0.058-0.855-0.115-1.283-0.173c-0.167-1.002-0.665-2.085-0.442-2.993c1.196-4.892,2.808-9.693,3.786-14.623
			C293.234,113.173,296.059,110.399,291.917,107.714z"/>
		<path fill-rule="evenodd" clip-rule="evenodd" d="M929.055,104.703c0.602-2.57,1.079-4.792,1.65-6.99
			c0.555-2.133,1.207-4.241,1.898-6.647c-3.962-1.076-4.118,2.799-5.548,4.358c-1.608,1.756-2.04,4.555-3.149,6.818
			c-0.503,1.026-1.408,1.856-2.13,2.775c-0.401-0.017-0.802-0.034-1.203-0.051c-0.144-1.164-0.628-2.408-0.374-3.477
			c1.205-5.065,2.747-10.052,3.882-15.131c0.492-2.202,0.294-4.559,0.442-7.493c0.917-0.058,2.672-0.17,5.398-0.343
			c-0.938,4.227-1.772,7.993-2.607,11.759c0.257,0.124,0.514,0.247,0.771,0.371c1.005-0.791,1.91-1.801,3.04-2.318
			c1.336-0.611,3.332-1.528,4.191-0.979c1.033,0.66,1.853,2.88,1.56,4.148c-0.712,3.092-2.245,5.767-0.294,9.208
			C937.638,102.575,933.665,105.017,929.055,104.703z"/>
		<path fill-rule="evenodd" clip-rule="evenodd" d="M587.256,210.824c0.799,0,2.492,0,4.648,0c-0.854,3.263-1.619,6.195-2.446,9.357
			c0.9,0.128,1.492,0.341,2.05,0.271c6.44-0.799,7.891,1.979,6.511,8.145c-1.459,6.519-6.8,10.717-14.689,8.234
			c-0.896-0.281-1.899-2.598-1.654-3.704c0.881-3.975,2.403-7.802,3.438-11.75C585.96,218.15,586.458,214.832,587.256,210.824z
			 M595.752,226.573c-1.174-1.64-1.815-3.417-2.674-3.528c-1.276-0.166-3.419,0.466-3.933,1.429
			c-1.378,2.587-2.202,5.499-2.981,8.354c-0.194,0.713,0.393,1.975,1.023,2.471c0.478,0.375,2.004,0.257,2.365-0.197
			C591.69,232.405,593.624,229.55,595.752,226.573z"/>
		<path fill-rule="evenodd" clip-rule="evenodd" d="M94.071,222.53c1.108-0.162,2.044-0.321,2.985-0.433
			c4.018-0.476,7.062,1.893,6.083,5.734c-0.945,3.708-2.707,7.989-5.533,10.185c-2.198,1.707-7.018,1.639-9.883,0.453
			c-3.131-1.297-1.261-5.319-0.387-7.655c1.966-5.251,4.013-10.322,3.027-16.103c-0.12-0.699,0.591-2.151,1.078-2.228
			c1.416-0.223,2.947-0.059,4.348,0.292c0.265,0.066,0.339,1.73,0.158,2.584C95.477,217.574,94.815,219.748,94.071,222.53z
			 M88.949,236.549c7.202,0.855,11.068-3.636,9.715-9.487c-0.22-0.949-0.971-2.263-1.727-2.464c-0.8-0.212-2.383,0.441-2.783,1.176
			C92.341,229.101,90.823,232.59,88.949,236.549z"/>
		<path fill-rule="evenodd" clip-rule="evenodd" d="M846.188,30.968c10.14,0,20.28,0,30.42,0c0.123,0.25,0.247,0.5,0.37,0.75
			c-0.656,0.436-1.316,1.258-1.968,1.251c-9.342-0.088-18.683-0.282-28.022-0.485c-0.28-0.006-0.553-0.393-0.828-0.602
			C846.169,31.578,846.178,31.273,846.188,30.968z"/>
		<path fill-rule="evenodd" clip-rule="evenodd" d="M221.617,192.322c0.854,2.697,0.088,4.003-4.197,2.947
			c-4.567-1.125-8.771-0.044-13.134-0.004c-1.578,0.014-3.159-0.249-5.475-0.448c-0.013-0.026-0.376-0.824-1.138-2.495
			C205.925,192.322,213.531,192.322,221.617,192.322z"/>
		<path fill-rule="evenodd" clip-rule="evenodd" d="M236.298,193.197c0.933-0.563,2.016-1.763,2.775-1.584
			c3.981,0.936,7.87-0.534,11.779-0.132c0.902,0.092,1.734,0.865,2.598,1.325c-0.795,0.543-1.575,1.528-2.387,1.555
			c-4.679,0.149-9.366,0.072-14.05,0.072C236.774,194.022,236.536,193.609,236.298,193.197z"/>
		<path fill-rule="evenodd" clip-rule="evenodd" d="M778.903,185.839c0.566,1.16,1.018,2.087,1.898,3.896
			c-5.022,0-9.347,0.063-13.663-0.094c-0.457-0.017-0.867-1.328-1.3-2.04c0.965-0.502,1.982-1.504,2.885-1.409
			c2.385,0.251,4.7,1.156,7.085,1.417C776.622,187.697,777.562,186.646,778.903,185.839z"/>
		<path fill-rule="evenodd" clip-rule="evenodd" d="M796.847,186.606c1.432,0.229,2.865,0.641,4.297,0.637
			c1.272-0.003,2.543-0.467,4.357-0.838c0.164,0.697,0.412,1.755,0.66,2.813c-1.018-0.011-2.037-0.063-3.054-0.024
			c-2.423,0.093-4.845,0.329-7.265,0.307c-1.209-0.012-2.413-0.463-3.619-0.716c0.37-0.735,0.664-2.034,1.125-2.096
			c1.083-0.146,2.246,0.299,3.378,0.505C796.766,186.998,796.806,186.802,796.847,186.606z"/>
		<path fill-rule="evenodd" clip-rule="evenodd" d="M275.154,194.311c-0.022-0.497-0.073-1.639-0.126-2.847
			c3.874,0,7.396-0.076,10.909,0.065c0.702,0.028,1.369,0.893,2.052,1.371c-0.671,0.47-1.327,1.319-2.014,1.347
			C282.505,194.387,279.027,194.311,275.154,194.311z"/>
		<path fill-rule="evenodd" clip-rule="evenodd" d="M911.945,187.527c0.659-0.489,1.511-1.513,1.938-1.357
			c1.015,0.365,1.828,1.289,2.725,1.987c-0.803,0.536-1.588,1.503-2.41,1.536c-3.374,0.135-6.78,0.208-10.133-0.122
			c-3.011-0.296-1.411-2.003-1.135-2.751c3.29,0,5.953,0,8.616,0C911.679,187.055,911.813,187.291,911.945,187.527z"/>
		<path fill-rule="evenodd" clip-rule="evenodd" d="M833.821,189.301c0.771-1.325,1.276-2.194,1.782-3.063
			c0.124,0.27,0.247,0.538,0.372,0.808c1.256-0.251,2.518-0.472,3.765-0.755c3.823-0.868,3.232,2.187,3.835,3.954
			C840.481,189.945,837.426,189.649,833.821,189.301z"/>
		<path fill-rule="evenodd" clip-rule="evenodd" d="M849.689,189.486c0.62-2.214,0.7-4.497,3.752-2.649
			c0.404,0.244,1.237,0.051,1.749-0.194c2.808-1.346,3.403,0.161,3.577,2.844C855.801,189.486,853.009,189.486,849.689,189.486z"/>
		<path fill-rule="evenodd" clip-rule="evenodd" d="M822.938,189.755c1.281-2.852,1.675-5.343,4.375-2.295
			c0.327,0.368,1.587-0.149,2.414-0.146c0.745,0.002,1.528,0.045,2.212,0.297c0.256,0.094,0.472,1.156,0.371,1.217
			c-0.66,0.395-1.401,0.849-2.137,0.887C828.03,189.827,825.876,189.755,822.938,189.755z"/>
		<path fill-rule="evenodd" clip-rule="evenodd" d="M230.391,195.128c-0.132-1.005-0.28-2.131-0.434-3.307
			c4.969,0.102,4.969,0.102,5.393,2.104C233.805,194.299,232.261,194.674,230.391,195.128z"/>
		<path fill-rule="evenodd" clip-rule="evenodd" d="M864.48,188.216c1.149-0.712,2.242-1.606,3.492-1.996
			c0.284-0.088,1.113,1.571,1.692,2.426c-1.456,0.46-2.913,0.919-4.369,1.379C865.023,189.422,864.752,188.819,864.48,188.216z"/>
		<path fill-rule="evenodd" clip-rule="evenodd" d="M243.625,151.296c1.984-1.367,3.969-2.734,5.953-4.102
			c0.307,0.424,0.614,0.848,0.921,1.272c-1.94,1.432-3.88,2.864-5.82,4.295C244.327,152.273,243.976,151.785,243.625,151.296z"/>
		<path fill-rule="evenodd" clip-rule="evenodd" d="M806.652,189.168c2.289-2.963,3.86-4.35,6.141,0
			C810.658,189.168,809.037,189.168,806.652,189.168z"/>
		<path fill-rule="evenodd" clip-rule="evenodd" d="M781.177,188.102c0.977-0.671,1.916-1.803,2.939-1.884
			c1.005-0.08,2.094,0.906,3.146,1.424c-0.391,0.652-0.781,1.304-1.173,1.955c-1.537-0.097-3.074-0.193-4.611-0.289
			C781.377,188.905,781.276,188.503,781.177,188.102z"/>
		<path fill-rule="evenodd" clip-rule="evenodd" d="M881.015,187.98c-1.403,0.896-2.108,1.704-2.799,1.691
			c-0.749-0.016-1.481-0.795-2.222-1.241c0.576-0.804,1.029-2.082,1.763-2.271C878.42,185.99,879.388,187.012,881.015,187.98z"/>
		<path fill-rule="evenodd" clip-rule="evenodd" fill="#FFFFFF" d="M742.854,185.713c-94.242,0.624-187.478,1.241-280.712,1.858
			c-0.063-0.37-0.124-0.74-0.186-1.111c4.616-1.864,9.265-3.655,13.84-5.616c3.971-1.702,7.833-3.658,11.795-5.382
			c1.983-0.863,4.063-1.527,6.136-2.16c3.805-1.161,7.577-1.901,10.901-4.716c2.4-2.032,6.243-2.301,9.361-3.558
			c8.313-3.35,16.542-6.908,24.88-10.193c6.312-2.485,12.78-4.572,19.1-7.04c3.784-1.479,7.372-3.46,11.134-5.005
			c2.641-1.084,5.483-1.671,8.133-2.734c4.532-1.818,8.951-3.915,13.477-5.75c6.37-2.582,12.825-4.957,19.187-7.56
			c7.021-2.874,13.975-5.907,20.959-8.867c4.768-2.021,9.487-4.171,14.347-5.943c1.042-0.379,2.836,0.291,3.859,1.048
			c4.34,3.217,8.521,6.648,12.759,10.003c6.558,5.19,13.054,10.461,19.693,15.544c4.399,3.368,9.028,6.433,13.499,9.71
			c1.222,0.896,2.151,2.187,3.365,3.098c6.829,5.13,13.785,10.094,20.541,15.318C726.741,172.704,734.397,178.964,742.854,185.713z"
			/>
		<path fill-rule="evenodd" clip-rule="evenodd" fill="#FFFFFF" d="M547.725,34.35c31.703,24.534,63.205,48.912,95.395,73.822
			c-2.397,1.117-4.154,2.043-5.99,2.771c-6.478,2.571-13.043,4.931-19.459,7.645c-5.688,2.407-11.187,5.25-16.832,7.758
			c-2.838,1.262-5.812,2.221-8.731,3.297c-6.374,2.348-13.236,3.865-18.988,7.263c-5.329,3.15-11.187,4.057-16.621,6.417
			c-6.71,2.913-13.313,6.081-20.077,8.86c-6.643,2.729-13.446,5.062-20.146,7.654c-6.072,2.351-12.045,4.964-18.162,7.188
			c-5.491,1.995-10.005,6.062-16.325,6.545c-3.213,0.246-6.157,3.214-9.353,4.667c-4.857,2.209-9.818,4.192-14.763,6.203
			c-0.493,0.2-1.174-0.063-2.467-0.167C486.14,134.145,516.812,84.443,547.725,34.35z M552.001,104.361
			c0.354,0.485,0.708,0.972,1.062,1.458c-0.39,2.5-0.78,5-1.021,6.542c-3.009,1.016-5.017,1.664-7.003,2.371
			c-5.205,1.854-8.245,7.909-6.603,13.1c0.821,2.59,2.92,3.368,5.563,2.267c1.132-0.472,2.645-1.077,3.614-0.691
			c2.84,1.13,4.948,0.808,6.177-1.203c-0.494-2.043-1.393-3.598-1.085-4.86c1.259-5.158,2.96-10.208,4.32-15.344
			c0.323-1.224-0.04-2.629-0.087-3.952C555.292,104.152,553.646,104.256,552.001,104.361z M565.076,118.955
			c-3.483-0.396-3.599-0.089-3.951,1.967c-0.788,4.598-1.919,9.138-3.031,14.259c1.059,0,2.748,0,3.875,0
			C563.072,129.417,564.053,124.299,565.076,118.955z"/>
		<path fill-rule="evenodd" clip-rule="evenodd" fill="#FFFFFF" d="M554.739,34.67c91.566-0.625,182.601-1.248,273.635-1.87
			c0.087,0.428,0.172,0.856,0.259,1.285c-2.05,0.718-4.132,1.359-6.144,2.172c-5.229,2.111-10.431,4.291-15.637,6.458
			c-2.557,1.065-5.056,2.285-7.657,3.223c-3.642,1.314-7.422,2.261-11.02,3.678c-3.931,1.548-7.658,3.613-11.587,5.167
			c-6.628,2.623-13.911,4.105-19.861,7.779c-5.463,3.373-11.914,3.347-17.191,7.078c-3.515,2.485-8.356,3.048-12.529,4.666
			c-1.757,0.681-3.226,2.109-4.985,2.775c-7.772,2.941-15.691,5.512-23.379,8.655c-4.568,1.867-8.818,4.314-13.685,5.708
			c-6.848,1.962-13.435,4.888-20.032,7.641c-4.709,1.965-9.169,4.545-13.918,6.391c-1.662,0.646-4.389,0.646-5.716-0.316
			c-4.989-3.622-9.595-7.772-14.366-11.699c-0.729-0.601-1.606-1.021-2.354-1.601c-7.501-5.811-14.931-11.715-22.501-17.433
			c-4.55-3.437-9.41-6.465-13.953-9.909c-4.669-3.539-9.032-7.479-13.69-11.032c-7.371-5.623-14.885-11.058-22.304-16.617
			C555.61,36.485,555.383,35.722,554.739,34.67z M620.864,65.779c-3.36-0.386-3.069-1.896-2.179-3.958
			c1.228-2.845,2.323-5.785,3.084-8.783c0.819-3.229,1.188-6.573,1.752-9.867c-0.538-0.323-1.076-0.646-1.613-0.97
			c-1.287,1.036-3.327,1.858-3.693,3.153c-0.615,2.178-0.168,4.656-0.168,7.191c-7.742-0.635-11.397,2.898-13.337,9.421
			c-1.169,3.933,0.818,5.939,2.977,8.492c0.776-0.468,1.417-0.792,1.987-1.209c2.023-1.479,4.026-3.36,5.652,0.492
			c0.086,0.203,1.733,0.104,2.288-0.325C618.637,68.626,619.386,67.484,620.864,65.779z M621.432,74.265
			c3.152,0,5.136,0.013,7.119-0.003c2.519-0.02,3.002-1.913,1.66-3.128c-2.142-1.939-0.722-2.607,0.424-3.934
			c2.147-2.492,2.132-6.193,0.218-8.101c-2.716-2.707-4.532-0.095-7.611,1.206c1.505,0.867,2.264,1.375,3.082,1.756
			c0.894,0.415,1.841,0.713,2.764,1.063c-0.411,1.046-0.627,2.238-1.271,3.113C625.974,68.742,623.957,71.118,621.432,74.265z"/>
		<path fill-rule="evenodd" clip-rule="evenodd" fill="#FFFFFF" d="M725.403,140.374c-3.028,0-6.056,0-9.834,0
			c7.953-12.769,7.915-26.138,5.896-40.378c3.595,1.397,6.548,2.544,9.502,3.692c0.263-0.403,0.526-0.805,0.789-1.208
			c-1.347-1.416-2.69-2.835-4.043-4.246c-4.021-4.192-8.114-8.319-12.03-12.607c-1.228-1.343-1.013-2.41,1.146-3.177
			c6.365-2.262,12.953-3.816,18.894-7.433c3.718-2.263,8.352-3.022,12.572-4.459c0.918-0.313,1.846-0.6,2.742-0.965
			c8.52-3.465,17.053-6.898,25.539-10.44c4.829-2.015,9.512-4.393,14.383-6.292c6.495-2.534,13.137-4.692,19.654-7.173
			c1.532-0.583,2.71-2.081,4.237-2.694c6.045-2.428,12.16-4.687,18.269-6.955c0.387-0.144,0.938,0.157,1.656,0.299
			c-2.274,4.074-4.296,8.079-6.673,11.86c-3.375,5.37-7.144,10.491-10.503,15.867c-5.109,8.178-9.942,16.527-15.025,24.721
			c-3.609,5.818-7.437,11.501-11.171,17.24c-3.908,6.005-7.985,11.908-11.69,18.035c-3.984,6.588-7.495,13.461-11.446,20.07
			c-4.72,7.898-9.702,15.64-14.543,23.467c-2.48,4.012-5.098,7.958-7.268,12.134c-1.078,2.076-2.127,2.126-3.795,1.189
			c-0.525-0.295-1.011-0.673-1.48-1.054c-5.165-4.185-10.249-8.473-15.504-12.542c-5.59-4.331-11.282-8.54-17.054-12.625
			c-1.84-1.302-2.819-2.139-0.271-3.545c1.995-1.101,3.984-2.211,5.959-3.346c3.745-2.153,7.479-4.328,11.216-6.493
			C725.486,141.003,725.445,140.688,725.403,140.374z M728.669,126.362c0.974,2.294,1.437,5.146,3.107,6.682
			c1.063,0.977,4.304,0.683,5.909-0.216c7.427-4.155,9.858-11.315,10.053-19.266c0.056-2.226-0.875-5.495-2.475-6.496
			c-2.224-1.393-5.101-0.861-7.658,1.529C732.439,113.42,729.616,119.034,728.669,126.362z"/>
		<path fill-rule="evenodd" clip-rule="evenodd" fill="#FFFFFF" d="M713.747,135.68c-0.167-2.166-0.303-3.93-0.481-6.256
			c-0.957,0.491-1.955,0.662-2.166,1.163c-2.13,5.079-4.255,10.167-6.119,15.346c-0.971,2.698-3.108,3.566-5.796,1.624
			c-1.715-1.239-3.019-3.041-4.714-4.313c-6.992-5.251-14.148-10.286-21.072-15.624c-3.955-3.049-7.506-6.616-11.373-9.786
			c-2.676-2.192-5.614-4.06-8.354-6.176c-0.586-0.453-0.826-1.354-1.405-2.358c19.813-8.092,39.293-16.047,59.781-24.415
			c0.457,5.189,0.884,9.585,1.219,13.988c0.236,3.107,0.278,6.231,0.571,9.333c0.064,0.685,0.82,1.305,1.258,1.955
			c0.6-0.466,1.368-0.821,1.762-1.423c0.722-1.103,1.224-2.352,1.897-3.701C721.984,111.843,719.035,130.839,713.747,135.68z"/>
		<path fill-rule="evenodd" clip-rule="evenodd" fill="#FFFFFF" d="M35.726,189.776c1.425-4.416,2.713-8.326,3.946-12.253
			c1.548-4.933,3.03-9.886,4.574-14.82c2.474-7.902,4.95-15.805,7.473-23.691c1.792-5.602,3.617-11.193,5.512-16.761
			c1.977-5.81,4.103-11.569,6.069-17.384c0.886-2.616,1.523-5.316,2.31-7.967c2.932-9.881,5.736-19.803,8.867-29.621
			c2.333-7.314,5.104-14.488,7.663-21.73c0.56-1.584,1.38-3.168,1.506-4.796c0.368-4.75,3.47-4.748,7.072-4.742
			c33.988,0.057,67.977,0.028,101.966-0.001c14.114-0.012,28.229-0.09,42.344-0.122c0.598-0.001,1.196,0.153,2.225,0.293
			c-1.258,4.06-2.411,7.932-3.66,11.773c-1.557,4.788-3.203,9.545-4.791,14.323c-3.215,9.67-6.476,19.326-9.604,29.023
			c-2.273,7.05-4.33,14.168-6.557,21.234c-0.878,2.788-2.056,5.482-2.921,8.275c-2.563,8.263-4.922,16.592-7.577,24.826
			c-3.617,11.213-7.448,22.357-11.143,33.546c-0.424,1.284-0.333,2.765-0.877,3.978c-3.373,7.519-0.955,6.472-10.557,6.467
			c-46.226-0.022-92.452,0.088-138.678,0.15C39.398,189.778,37.908,189.776,35.726,189.776z"/>
		<path fill-rule="evenodd" clip-rule="evenodd" fill="#FFFFFF" d="M595.752,226.573c-2.128,2.977-4.062,5.832-6.199,8.527
			c-0.361,0.454-1.888,0.572-2.365,0.197c-0.631-0.496-1.218-1.758-1.023-2.471c0.779-2.854,1.604-5.767,2.981-8.354
			c0.514-0.963,2.656-1.595,3.933-1.429C593.937,223.156,594.578,224.934,595.752,226.573z"/>
		<path fill-rule="evenodd" clip-rule="evenodd" fill="#FFFFFF" d="M88.949,236.549c1.874-3.959,3.392-7.448,5.206-10.775
			c0.4-0.734,1.983-1.388,2.783-1.176c0.755,0.201,1.507,1.515,1.727,2.464C100.017,232.913,96.151,237.404,88.949,236.549z"/>
		<path fill-rule="evenodd" clip-rule="evenodd" d="M552.001,104.361c1.646-0.105,3.291-0.209,4.938-0.313
			c0.047,1.322,0.41,2.728,0.087,3.952c-1.36,5.137-3.062,10.186-4.32,15.344c-0.308,1.262,0.591,2.817,1.085,4.86
			c-1.229,2.01-3.337,2.333-6.177,1.203c-0.97-0.386-2.482,0.219-3.614,0.691c-2.644,1.102-4.742,0.324-5.563-2.267
			c-1.643-5.191,1.397-11.246,6.603-13.1c1.986-0.708,3.994-1.355,7.003-2.371c0.241-1.541,0.632-4.042,1.021-6.542
			C552.709,105.333,552.354,104.847,552.001,104.361z M542.366,126.433c3.483,0.392,6.819-2.867,7.754-7.768
			c0.177-0.924-0.078-2.506-0.675-2.852c-0.691-0.4-2.181-0.07-2.973,0.464C542.875,118.706,541.573,122.175,542.366,126.433z"/>
		<path fill-rule="evenodd" clip-rule="evenodd" d="M565.076,118.955c-1.023,5.344-2.004,10.462-3.107,16.226
			c-1.127,0-2.816,0-3.875,0c1.112-5.121,2.243-9.661,3.031-14.259C561.478,118.865,561.593,118.559,565.076,118.955z"/>
		<path fill-rule="evenodd" clip-rule="evenodd" d="M620.864,65.779c-1.479,1.705-2.228,2.847-3.25,3.637
			c-0.555,0.429-2.202,0.528-2.288,0.325c-1.626-3.852-3.629-1.971-5.652-0.492c-0.57,0.417-1.211,0.741-1.987,1.209
			c-2.158-2.552-4.146-4.559-2.977-8.492c1.939-6.523,5.595-10.056,13.337-9.421c0-2.535-0.447-5.013,0.168-7.191
			c0.366-1.295,2.406-2.118,3.693-3.153c0.537,0.323,1.075,0.647,1.613,0.97c-0.564,3.294-0.933,6.638-1.752,9.867
			c-0.761,2.999-1.856,5.938-3.084,8.783C617.795,63.883,617.504,65.393,620.864,65.779z M616.266,55.188
			c-1.762,0.397-3.928,0.229-4.654,1.171c-2.096,2.718-5.11,5.45-3.13,9.606C613.527,65.242,615.184,63.032,616.266,55.188z"/>
		<path fill-rule="evenodd" clip-rule="evenodd" d="M621.432,74.265c2.525-3.147,4.542-5.523,6.385-8.028
			c0.644-0.875,0.859-2.066,1.271-3.113c-0.923-0.35-1.87-0.648-2.764-1.063c-0.818-0.381-1.577-0.889-3.082-1.756
			c3.079-1.301,4.896-3.913,7.611-1.206c1.914,1.908,1.93,5.609-0.218,8.101c-1.146,1.327-2.565,1.995-0.424,3.934
			c1.342,1.215,0.858,3.108-1.66,3.128C626.567,74.277,624.584,74.265,621.432,74.265z"/>
		<path fill-rule="evenodd" clip-rule="evenodd" d="M728.669,126.362c0.947-7.328,3.771-12.941,8.937-17.767
			c2.558-2.39,5.435-2.921,7.658-1.529c1.6,1.001,2.53,4.27,2.475,6.496c-0.194,7.951-2.626,15.111-10.053,19.266
			c-1.605,0.899-4.846,1.193-5.909,0.216C730.105,131.508,729.643,128.656,728.669,126.362z M741.482,108.145
			c-2.336,3.426-4.47,6.554-6.944,10.182c3.544,0,6.107,0,8.933,0C743.203,114.989,746.163,111.647,741.482,108.145z
			 M742.008,122.404c-0.23-0.313-0.461-0.625-0.691-0.937c-2.554,0.857-5.996-1.796-7.675,1.92
			c-1.142,2.531-2.014,5.667,2.062,8.283C737.846,128.521,739.927,125.462,742.008,122.404z"/>
		<path fill-rule="evenodd" clip-rule="evenodd" fill="#FFFFFF" d="M542.366,126.433c-0.793-4.258,0.509-7.728,4.106-10.155
			c0.792-0.535,2.281-0.864,2.973-0.464c0.597,0.345,0.852,1.927,0.675,2.852C549.186,123.566,545.85,126.825,542.366,126.433z"/>
		<path fill-rule="evenodd" clip-rule="evenodd" fill="#FFFFFF" d="M616.266,55.188c-1.082,7.844-2.738,10.054-7.784,10.777
			c-1.98-4.156,1.034-6.888,3.13-9.606C612.338,55.417,614.504,55.585,616.266,55.188z"/>
		<path fill-rule="evenodd" clip-rule="evenodd" fill="#FFFFFF" d="M741.482,108.145c4.681,3.502,1.721,6.845,1.988,10.182
			c-2.825,0-5.389,0-8.933,0C737.013,114.699,739.146,111.571,741.482,108.145z"/>
		<path fill-rule="evenodd" clip-rule="evenodd" fill="#FFFFFF" d="M742.008,122.404c-2.081,3.058-4.162,6.116-6.305,9.266
			c-4.075-2.616-3.203-5.751-2.062-8.283c1.679-3.717,5.121-1.063,7.675-1.92C741.547,121.779,741.777,122.091,742.008,122.404z"/>
	</g>
</g>
</svg>
