<?xml version="1.0" encoding="utf-8"?>
<!-- Generator: Adobe Illustrator 16.0.0, SVG Export Plug-In . SVG Version: 6.00 Build 0)  -->
<!DOCTYPE svg PUBLIC "-//W3C//DTD SVG 1.1//EN" "http://www.w3.org/Graphics/SVG/1.1/DTD/svg11.dtd">
<svg version="1.1" id="Layer_1" xmlns="http://www.w3.org/2000/svg" xmlns:xlink="http://www.w3.org/1999/xlink" x="0px" y="0px"
	 width="752.355px" height="349.549px" viewBox="0 0 752.355 349.549" enable-background="new 0 0 752.355 349.549"
	 xml:space="preserve">
<g>
	<g>
		<path fill-rule="evenodd" clip-rule="evenodd" fill="#FFFFFF" d="M0.75,350.299c0-116.516,0-233.033,0-349.549
			c250.785,0,501.57,0,752.355,0c0,116.516,0,233.033,0,349.549C502.32,350.299,251.535,350.299,0.75,350.299z M474.436,55.838
			c-0.04,0-0.079,0-0.118,0c0-7.737,0.004-15.475-0.002-23.212c-0.002-2.992,0.198-6.01-0.135-8.968
			c-0.161-1.436-1.134-2.969-2.188-3.996c-0.297-0.289-2.237,0.984-3.34,1.675c-4.194,2.625-8.34,5.325-12.528,7.958
			c-3.967,2.493-7.993,4.891-11.939,7.414c-3.843,2.456-7.573,5.085-11.432,7.513c-3.539,2.226-7.202,4.252-10.778,6.42
			c-5.481,3.323-10.926,6.706-16.404,10.031c-1.677,1.018-3.464,1.855-5.114,2.91c-4.649,2.971-9.227,6.056-13.886,9.011
			c-3.184,2.019-6.467,3.879-9.688,5.84c-4.305,2.62-8.556,5.327-12.897,7.885c-3.797,2.238-7.799,4.144-11.508,6.512
			c-6.44,4.112-12.707,8.491-19.081,12.707c-2.118,1.4-4.297,2.72-6.521,3.945c-3.517,1.938-7.186,3.614-10.621,5.683
			c-3.412,2.055-6.552,4.557-9.922,6.686c-6.291,3.975-12.655,7.832-19.002,11.717c-6.492,3.976-13.016,7.898-19.492,11.898
			c-5.242,3.237-10.394,6.62-15.662,9.813c-3.356,2.034-6.961,3.667-10.259,5.784c-4.865,3.124-9.516,6.58-14.334,9.778
			c-3.509,2.33-7.165,4.438-10.707,6.72c-1.487,0.957-2.767,2.247-4.287,3.138c-3.845,2.255-7.828,4.279-11.652,6.566
			c-3.627,2.17-6.97,4.852-10.708,6.791c-8.451,4.384-16.292,9.696-24.221,14.916c-5.737,3.777-11.901,6.901-17.818,10.411
			c-6.754,4.006-13.44,8.128-20.167,12.179c-3.225,1.942-6.566,3.705-9.696,5.787c-4.075,2.712-7.856,5.878-12.011,8.451
			c-5.16,3.194-10.92,5.507-15.784,9.069c-5.645,4.136-11.3,8.067-17.698,10.942c-0.977,0.44-1.458,1.983-2.168,3.017
			c1.049,0.697,2.065,1.925,3.155,1.993c3.099,0.196,6.228-0.155,9.345-0.16c22.969-0.037,45.938-0.164,68.905,0.016
			c7.011,0.055,14.014,0.985,21.022,1.5c0.619,0.046,1.255,0.053,1.868-0.031c2.869-0.395,5.73-1.164,8.6-1.192
			c21.506-0.211,43.012-0.336,64.519-0.374c18.667-0.033,37.335,0.15,56.001,0.113c17.35-0.035,34.7-0.331,52.05-0.342
			c25.013-0.017,50.028,0.128,75.042,0.179c2.742,0.006,5.484-0.153,8.229-0.234c6.615-0.194,13.23-0.511,19.847-0.537
			c4.061-0.015,8.13,0.656,12.183,0.553c2.37-0.061,4.79-0.495,4.695-4.229c-0.354-13.952-0.386-27.913-0.57-41.87
			c-0.229-17.315-0.563-34.631-0.718-51.948c-0.202-22.841-0.305-45.682-0.388-68.524C474.389,87.773,474.436,71.806,474.436,55.838
			z M222.849,160.094c2.107-1.25,4.755-2.819,8.095-4.799c-5.697-1.326-6.907-3.239-6.822-9.294c4.93-1.261,7.8-3.804,7.535-7.643
			c-0.347-5.011-1.084-10.031-2.128-14.946c-0.741-3.488-5.607-4.782-8.542-2.749c-2.208,1.53-3.468,4.478-7.045,4.128
			c-0.965-0.094-2.154,2.094-3.686,3.701c2.053,0.354,3.237,0.558,4.315,0.743C217.332,139.524,220.051,149.663,222.849,160.094z
			 M176.846,132.752c-0.901-0.041-1.735-0.307-2.363-0.056c-1.138,0.457-2.152,1.221-3.219,1.857
			c0.655,0.952,1.311,1.905,1.966,2.857c0.53,0.771,1.282,1.471,1.556,2.324c1.434,4.47,2.659,9.006,4.127,13.464
			c1.279,3.885,2.722,7.721,4.225,11.527c0.534,1.352,1.457,2.55,2.202,3.818c0.407-1.535,0.898-3.055,1.173-4.613
			c0.094-0.532-0.496-1.152-0.535-1.748c-0.326-4.951-0.645-9.904-0.821-14.861c-0.021-0.602,0.814-1.233,1.252-1.851
			c0.524,0.538,1.293,0.984,1.531,1.627c1.621,4.37,3.065,8.805,4.723,13.159c0.372,0.978,1.316,2.342,2.087,2.403
			c0.861,0.068,2.17-0.951,2.664-1.842c0.74-1.334,0.939-2.968,1.677-5.558c-4.115,1.805-4.6-0.324-5.146-2.515
			c-0.63-2.524-1.059-5.182-2.198-7.471c-0.875-1.757-2.719-3.032-4.132-4.521c-1.307,1.555-2.827,2.984-3.845,4.71
			c-0.646,1.095-0.545,2.63-0.78,3.969c-0.441,0.038-0.882,0.076-1.324,0.113C180.089,144.052,178.513,138.559,176.846,132.752z
			 M284.263,88.612c-0.914-1.71-1.476-2.761-2.202-4.117c-2.112,1.699-4.116,3.312-5.989,4.818c2.426,1.733,4.905,2.55,5.404,4.033
			c1.74,5.172,2.795,10.573,4.113,15.902c3.51,0.269,4.871-1.141,4.009-4.307c-0.489-1.797-0.878-3.692-1.757-5.299
			c-2.666-4.872-1.968-9.264,1.71-14.15c0.807,1.857,1.57,3.195,1.976,4.635c0.941,3.336,1.791,6.703,2.516,10.092
			c0.468,2.183,1.849,2.793,3.782,2.615c3.871-0.357,2.314-3.247,2.49-4.351c-1.489-1.42-2.889-2.157-3.302-3.262
			c-1.311-3.508-2.079-7.22-3.407-10.719c-0.698-1.839-2.127-3.4-3.909-6.134C287.594,82.331,286.034,85.273,284.263,88.612z
			 M235.18,316.483c-7.393-1.615-11.449,0.415-14.15,6.16c-0.673,1.431-1.981,2.698-2.214,4.165
			c-0.297,1.859-0.415,4.245,0.51,5.684c1.34,2.08,3.517,4.078,6.526,2.026c1.899-1.294,3.663-1.647,5.634,0.127
			c0.645,0.581,2.359,0.721,3.068,0.263c0.646-0.418,0.695-1.906,0.814-2.946c0.123-1.075-0.23-2.244,0.044-3.259
			c1.837-6.783,3.868-13.515,5.624-20.317c0.322-1.249-0.038-2.903-0.661-4.058c-0.271-0.499-2.471-0.667-2.976-0.164
			c-0.793,0.792-1.074,2.252-1.253,3.475C235.733,310.479,235.509,313.349,235.18,316.483z M302.576,332.131
			c0.719,1,1.131,2.149,1.899,2.484c0.807,0.352,2.159,0.235,2.896-0.249c0.779-0.513,1.697-2.371,1.556-2.495
			c-3.151-2.743-0.604-5.331,0.16-7.875c1.624-5.405,3.366-10.775,5.125-16.139c0.742-2.263,0.256-3.613-2.295-3.929
			c-3.543-0.438-4.448,0.637-3.394,4.156c1.188,3.967-0.656,8.019-3.637,7.445c-6.292-1.21-14.59,8.518-13.273,15.396
			c0.604,3.152,3.312,5.268,5.769,4.187C299.083,334.365,300.631,333.266,302.576,332.131z M313.108,90.577
			c2.302,0.105,3.886,0.45,5.321,0.129c0.716-0.16,1.484-1.487,1.622-2.379c0.108-0.701-0.704-2.213-1.129-2.221
			c-3.461-0.066-3.599-2.739-4.1-5.02c-0.744-3.391-1.142-6.865-2.04-10.208c-0.235-0.876-1.773-1.402-2.713-2.088
			c-0.493,0.83-1.356,1.641-1.399,2.493c-0.08,1.588,0.125,3.255,0.563,4.79c0.584,2.043,2.229,4.032,2.119,5.971
			c-0.19,3.355-1.378,6.653-2.311,10.685c-5.605-5.714-2.478-14.257-8.775-18.402c-3.566,2.802-4.408,5.494-2.529,7.779
			c0.416-0.743,0.832-1.485,1.267-2.263c2.029,5.12,3.839,10.01,5.943,14.771c0.521,1.182,2.165,2.85,2.987,2.692
			c1.34-0.256,2.667-1.658,3.556-2.896C312.378,93.171,312.723,91.543,313.108,90.577z M609.772,179.337
			c-0.308-1.642-0.564-2.719-0.704-3.811c-0.458-3.612,1.695-6.898,4.749-6.588c6.487,0.658,11.72-5.083,12.362-10.521
			c0.299-2.53,1.25-6.738-2.196-7.376c-4.818-0.894-9.926-0.226-14.081-0.226c0.869,10.864-4.679,19.276-8.315,28.521
			C604.44,179.337,606.858,179.337,609.772,179.337z M632.294,169.147c0.39-0.05,0.779-0.1,1.169-0.151
			c0.365,0.47,0.859,1.399,1.074,1.338c2.455-0.691,5.269-0.996,7.213-2.442c4.582-3.41,6.764-8.171,6.124-14.093
			c-0.249-2.297-1.216-3.328-3.473-3.317c-4.415,0.021-8.83,0.007-12.278,0.007c-0.601,10.548-3.32,19.612-8.446,28.768
			c2.388,0,4.063,0.314,5.52-0.114c0.924-0.271,1.954-1.554,2.178-2.553C631.917,174.162,632.017,171.635,632.294,169.147z
			 M550.963,139.595c0,3.775,0,7.322,0,10.816c-12.153,1.129-12.437,1.008-15.854,8.989c-1.018,2.378-0.56,5.883,0.442,8.382
			c0.387,0.962,4.514,1.354,6.311,0.57c1.934-0.843,2.918-1.501,4.711,0.142c0.694,0.637,2.625,0.29,3.813-0.125
			c0.637-0.222,1.482-1.877,1.234-2.306c-3.157-5.447,0.89-9.833,2.058-14.588c0.964-3.928,2.383-7.743,3.687-11.881
			C554.394,139.595,552.433,139.595,550.963,139.595z M339.54,68.249c3.921-3.792,7.161-7.951,6.959-13.823
			c-0.13-3.789-4.402-6.662-7.117-4.549c-1.736,1.353-3.758,3.475-3.966,5.432c-0.502,4.733-0.519,9.655,0.257,14.337
			c0.476,2.87,2.276,5.91,6.174,6.152c6.098,0.378,8.371-1.424,10.148-8.472c0.204-0.807-0.437-1.827-0.686-2.749
			c-0.6,0.6-1.399,1.097-1.768,1.815C346.5,72.332,342.957,73.027,339.54,68.249z M233.094,120.163
			c-0.146,3.802,2.1,10.304,4.505,12.262c1.614,1.313,3.691,2.755,5.609,2.825c2.696,0.099,7.75-6.354,8.306-9.224
			c1.128-5.814-2.084-10.091-4.832-14.576c-1.634-2.667-7.423-3.391-9.246-0.848C235.289,113.596,232.346,116.384,233.094,120.163z
			 M281.675,107.167c-0.421-0.251-0.843-0.501-1.264-0.753c-0.705,0.759-1.475,1.469-2.096,2.291
			c-0.735,0.974-1.207,2.778-2.029,2.928c-2.072,0.378-4.861,0.825-6.287-0.222c-1.994-1.463-0.856-3.748,1.147-5.128
			c4.256-2.932,5.267-7.031,4.176-11.818c-0.89-3.907-3.444-4.92-6.579-2.403c-1.664,1.337-3.074,3.133-4.204,4.966
			c-2.912,4.723-1.44,9.777,0.264,14.252c0.979,2.569,3.885,5.018,6.518,6.192c3.481,1.553,5.668-2.063,7.727-4.134
			C280.513,111.867,280.84,109.265,281.675,107.167z M340.312,316.896c-1.645-2.932-3.37-2.529-6.13-1.262
			c-5.23,2.402-7.07,7.172-9.257,11.632c-1.382,2.818-0.001,5.884,2.758,7.191c1.408,0.668,3.682-0.343,5.518-0.788
			c0.89-0.216,1.672-0.877,2.503-1.337c-0.028,0.379-0.056,0.759-0.083,1.138c1.784,0.308,3.778,1.265,5.3,0.771
			c2.273-0.738,2.977-2.669,1.038-4.869c-0.37-0.421-0.242-1.475-0.054-2.156c0.754-2.747,1.673-5.449,2.422-8.197
			c0.309-1.131,0.342-2.336,0.576-4.063C342.965,315.774,341.84,316.25,340.312,316.896z M289.857,316.922
			c-2.679-0.944-4.565-1.844-6.55-2.216c-1.13-0.211-2.478,0.302-3.624,0.753c-0.874,0.343-1.523,1.222-2.378,1.653
			c-3.973,2.009-8.583,9.834-7.59,14.086c0.365,1.563,2.496,3.616,4.014,3.794c2.21,0.259,4.595-0.979,7.339-1.69
			c2.181,3.863,4.578,1.121,7.144-0.43c-2.436-4.191-2.333-4.149-0.047-9.659C289.076,321.016,289.425,318.584,289.857,316.922z
			 M403.568,332.422c-1.309-1.754-2.347-2.571-2.521-3.543c-0.172-0.957,0.34-2.188,0.886-3.096
			c2.146-3.576,2.989-8.588,1.187-9.607c-3.213-1.818-5.793-0.126-8.233,2.052c-0.411,0.367-2.395-0.143-2.412-0.354
			c-0.37-4.358-2.938-1.937-4.061-1.905c-1.498,6.173-2.889,11.899-4.258,17.54c3.973,1.375,4.546-0.964,5.115-3.205
			c1.364-5.374,5.083-8.702,10.001-11.298c-0.343,3.343-1.63,6.336-2.184,9.459c-0.372,2.102,0.292,4.386,0.493,6.589
			C399.504,334.209,401.426,333.363,403.568,332.422z M328.331,66.449c0.223-0.305,0.445-0.611,0.668-0.916
			c-0.338-1.428-0.345-3.083-1.116-4.215c-0.642-0.943-2.32-1.937-3.293-1.733c-1.798,0.376-3.457,1.544-5.102,2.507
			c-2.838,1.661-3.54,7.245-0.959,8.973c2.755,1.846,5.761,3.35,8.758,4.792c2.29,1.101,3.241,2.965,2.477,5.068
			c-0.33,0.907-2.521,1.725-3.743,1.574c-1.658-0.203-3.197-1.374-4.685-2.082c-0.286,6.262,0.895,7.588,6.494,5.687
			c2.053-0.697,4.583-3.022,4.928-4.957c0.444-2.491-0.351-5.965-1.967-7.86c-1.805-2.115-5.264-2.734-7.72-4.418
			c-0.942-0.646-1.53-2.451-1.477-3.693c0.041-0.941,1.353-1.829,2.046-2.676C325.324,63.919,326.827,65.185,328.331,66.449z
			 M370.054,327.316c1.189-0.166,2.091-0.15,2.892-0.43c3.722-1.297,8.334-1.58,9.202-6.602c0.249-1.44-0.229-3.691-1.232-4.491
			c-1.241-0.989-3.945-1.735-5.028-1.042c-3.888,2.492-8.345,4.487-9.564,9.92c-1.251,5.575-0.028,11.702,7.177,10.36
			c2.336-0.435,4.569-1.666,6.701-2.812c0.648-0.348,0.798-1.625,1.176-2.476c-0.266-0.239-0.531-0.479-0.797-0.72
			c-2.036,1.045-3.999,2.729-6.125,2.97C371.916,332.284,369.597,330.993,370.054,327.316z M658.705,168.814
			c5.115,1.023,8.284-2.612,10.06-6.66c3.146-7.173-0.217-12.42-7.621-12.355c-3.415,0.03-10.421,7.799-10.702,11.866
			C650.094,166.712,652.441,168.744,658.705,168.814z M571.384,164.008c-3.169,0.73-5.695,1.648-8.256,1.753
			c-1.156,0.047-2.378-1.524-3.57-2.361c1.235-0.949,2.344-2.222,3.735-2.77c2.1-0.825,4.805-0.595,6.493-1.841
			c1.555-1.146,2.332-3.579,2.967-5.597c0.185-0.589-1.147-2.25-2.033-2.487c-8.204-2.199-16.547,5.982-14.755,14.327
			c0.473,2.197,5.006,6.329,6.738,5.657c2.745-1.065,5.284-2.698,7.819-4.241C570.981,166.169,571,165.167,571.384,164.008z
			 M243.578,327.575c1.609-0.339,2.331-0.41,2.997-0.644c3.143-1.099,7.115-0.938,8.847-4.339c0.874-1.717,1.231-4.499,0.397-6.018
			c-0.615-1.119-3.753-1.724-5.392-1.252c-5.475,1.574-8.935,5.644-10.049,11.099c-0.456,2.234,0.125,5.468,1.546,7.114
			c2.125,2.463,9.707,1.501,12.229-1.003c0.64-0.635,0.595-1.959,0.865-2.967c-0.949,0.242-1.912,0.438-2.841,0.738
			c-1.741,0.561-3.62,1.893-5.142,1.556C245.769,331.579,244.932,329.365,243.578,327.575z M591.977,170.406
			c2.627-0.929,5.197-1.382,7.253-2.663c3.918-2.442,6.185-9.827,4.678-14.341c-0.317-0.951-1.143-2.107-2.009-2.433
			c-3.317-1.245-6.969-1.424-9.852,0.589c-3.922,2.738-6.458,6.524-6.412,11.781C585.675,168.06,589.232,168.992,591.977,170.406z
			 M717.239,161.331c3.793-0.984,6.775-1.302,9.264-2.581c1.415-0.727,2.365-2.927,2.859-4.655c0.272-0.951-0.518-2.692-1.383-3.379
			c-1.692-1.345-9.635-0.143-10.753,1.747c-1.783,3.013-3.392,6.234-4.395,9.573c-0.836,2.778,0.161,5.806,3.233,6.614
			c2.435,0.64,5.364,0.598,7.732-0.181c1.357-0.447,5.2-0.588,4.02-3.249c-3.861,0.03-7.108,0.136-10.327-0.111
			C717.289,165.093,717.299,162.322,717.239,161.331z M205.015,317.217c-1.772-0.588-3.557-0.838-4.945-1.715
			c-2.483-1.57-4.568-0.728-5.833,1.174c-1.007,1.515-1.765,4.012-1.215,5.573c1.132,3.221,3.211,6.109,4.984,9.285
			c-2.735,1.532-5.084,3.052-6.267-1.47c-0.173-0.66-2.019-0.883-3.496-1.469c0,2.621,0,4.408,0,6.682
			c3.151,0,6.014,0.193,8.838-0.058c2.551-0.227,4.184-1.555,4.489-4.493c0.359-3.467-1.199-5.923-3.257-8.338
			c-0.798-0.936-1.393-2.043-2.08-3.073c0.331-0.407,0.662-0.814,0.993-1.222c1.844,1.018,3.688,2.036,5.562,3.071
			C203.2,320.437,203.911,319.175,205.015,317.217z M192.885,137.648c2.75,2.476,4.905,4.072,6.626,6.046
			c2.295,2.631,4.41,5.453,6.323,8.375c3.602,5.502,3.004,9.324-1.703,13.448c-0.519,0.455-1.081,1.457-0.906,1.951
			c0.205,0.582,1.142,1.117,1.85,1.274c3.523,0.782,4.49-2.001,4.644-4.311c0.361-5.421,0.116-10.883,0.116-16.459
			c-0.746-0.151-2.086-0.013-2.576-0.593c-2.32-2.749-4.72-5.521-6.458-8.637c-0.973-1.746-1.505-3.639-3.758-3.172
			C195.419,135.907,193.968,137.081,192.885,137.648z M520.068,150.696c-2.758,0-4.409-0.213-5.978,0.055
			c-1.891,0.324-4.587,0.497-5.378,1.731c-1.486,2.321-1.273,5.171,1.203,7.381c2.103,1.876,3.253,4.218,2.394,7.01
			c-4.479,2.24-4.219-3.873-7.842-3.888c-0.259,1.825-0.522,3.68-0.757,5.329c2.576,0.659,4.811,1.232,7.554,1.934
			c0.073-0.061,0.648-0.766,1.392-1.12c5.545-2.638,6.078-5.678,2.08-10.339c-1.375-1.601-2.105-3.755-3.483-6.314
			c2.305,0,3.383,0,3.598,0c1.466,1.454,2.455,2.436,3.445,3.418C518.808,154.393,519.319,152.893,520.068,150.696z M686.62,150.612
			c-3.198,0-6.065-0.228-8.88,0.058c-3.561,0.361-4.815,2.97-3.03,6.01c1.236,2.103,3.057,3.918,3.979,6.128
			c0.494,1.183,0.045,3.908-0.689,4.211c-1.405,0.579-3.765,1.1-4.392-1.738c-0.202-0.913-0.956-1.702-1.457-2.548
			c-0.344,0.089-0.688,0.177-1.03,0.265c-0.124,1.895-0.384,3.803-0.196,5.666c0.023,0.233,2.41,0.223,3.701,0.34
			c0.242,0.022,0.499,0.068,0.716,0.173c3.032,1.458,7.71-0.006,8.084-3.113c0.274-2.277-0.794-4.973-1.964-7.096
			c-1.175-2.134-3.615-3.662-1.595-7.705c1.972,1.856,3.529,3.321,5.372,5.055C685.703,154.398,686.068,152.891,686.62,150.612z
			 M361.638,322.73c1.273-2.1,2.756-3.423,2.646-4.598c-0.226-2.398-4.576-3.609-7.09-2.946c-4.265,1.123-6.777,4.11-9.157,7.389
			c-3.297,4.541-1.808,10.817,3.081,12.468c3.438,1.16,6.215-0.666,8.806-2.652c0.687-0.525,1.247-1.252,1.73-1.977
			c0.088-0.132-0.551-1.047-0.734-1.01c-0.883,0.178-2.107,0.306-2.51,0.914c-1.356,2.055-3.368,2.679-5.093,1.505
			c-1.302-0.886-2.459-2.989-2.474-4.561c-0.036-3.628,2.997-9.488,8.378-9.72C359.895,318.991,360.554,320.404,361.638,322.73z
			 M252.338,96.449c-0.887,2.132-2.017,4.604-2.9,7.161c-0.19,0.549,0.51,2.022,0.801,2.023c2.444,0.001,2.635,1.754,3.089,3.464
			c0.914,3.446,1.439,7.129,3.09,10.194c1.013,1.882,1.156,5.443,4.504,5.256c3.443-0.191,2.017-3.643,3.076-5.47
			c0.181-0.312-0.052-0.863-0.108-1.458c-1.263,0.282-2.288,0.511-3.344,0.747c-0.636-2.149-1.154-4.323-1.927-6.402
			c-0.801-2.159-1.976-4.183-2.718-6.356c-0.27-0.792,0.153-2.636,0.401-2.662c3.196-0.338,1.751-2.151,1.706-2.465
			C255.569,98.746,253.969,97.609,252.338,96.449z M303.338,340.577c1.491,1.513,2.097,2.672,2.96,2.911
			c3.923,1.091,7.701-1.228,8.954-5.187c1.521-4.806,3.132-9.582,4.623-14.397c0.788-2.548,1.403-5.149,2.186-8.062
			c-2.748,0.07-5.192-1.434-5.945,2.782c-1.188,6.665-3.029,13.227-4.9,19.745c-0.281,0.979-2.147,1.689-3.417,2.14
			C306.839,340.85,305.66,340.577,303.338,340.577z M417.463,316.875c-0.712-1.42-1.106-2.758-1.947-3.693
			c-0.62-0.689-1.824-0.855-2.769-1.254c-0.651,2.4-5.463,2.846-3.131,6.703c0.249,0.412,0.006,1.216-0.183,1.781
			c-0.813,2.439-1.77,4.834-2.521,7.292c-0.754,2.469-2.02,5.333,0.834,7.104c2.98,1.85,4.273-1.298,6.025-2.825
			c0.133-0.115,0.073-0.452,0.02-0.029c-1.037-1.184-2.493-2.14-2.373-2.821C412.228,324.499,412.235,319.353,417.463,316.875z
			 M702.446,151.144c2.18,6.19-2.88,11.543-1.68,17.638c2.513-0.416,5.629,1.462,6.695-2.563c-1.123-0.55-2.062-1.009-3.332-1.63
			c3.797-3.824,1.291-10.334,6.337-13.036c-0.273-1.993-0.53-3.872-0.897-6.556C706.963,147.247,704.7,149.199,702.446,151.144z
			 M216.51,316.129c-5.209-1.021-6.378-0.578-6.669,1.557c-0.643,4.729-1.523,9.425-2.178,14.151
			c-0.143,1.032,0.253,2.139,0.401,3.212c1.833-0.523,3.704-0.955,5.445-1.694c0.196-0.084-0.342-1.894-0.535-2.903
			c-0.197-1.029-0.79-2.187-0.511-3.066C213.627,323.703,215.053,320.104,216.51,316.129z M688.833,168.612
			c1.372,0.105,2.229,0.23,3.086,0.226c3.858-0.015,4.116-0.614,2.795-4.249c-0.44-1.215-0.132-2.869,0.27-4.189
			c0.933-3.063,2.131-6.046,3.383-9.506c-2.63,0-4.397,0-5.054,0C691.752,157.067,690.338,162.66,688.833,168.612z M526.194,150.765
			c-0.203,2.91-0.143,5.36-0.603,7.706c-0.469,2.392-1.563,4.654-2.15,7.031c-0.242,0.977-0.264,2.55,0.311,3.044
			c0.665,0.573,2.207,0.575,3.163,0.239c1.006-0.354,1.771-1.399,2.244-1.803c-3.384-6.376,2.223-10.792,2.423-16.217
			C529.548,150.765,527.722,150.765,526.194,150.765z M209.362,145.424c0.749-0.104,1.497-0.208,2.245-0.313
			c-0.665-4.599-1.158-9.236-2.13-13.769c-0.214-0.995-2.103-1.678-3.304-2.357c-0.163-0.092-1.233,0.795-1.167,1.032
			c0.324,1.185,0.904,2.297,1.362,3.448c0.779,1.955,1.733,3.869,2.243,5.893C209.105,141.318,209.13,143.396,209.362,145.424z
			 M65.432,158.985c-0.733,1.292-1.741,2.285-1.677,3.203c0.051,0.729,1.707,2.084,2.138,1.907c1.154-0.472,2.034-1.617,3.022-2.496
			C67.907,160.843,66.899,160.086,65.432,158.985z M218.028,310.129c-1.151-1.097-1.923-2.372-2.575-2.313
			c-0.78,0.07-1.899,1.205-2.037,2.02c-0.104,0.614,1.024,1.927,1.753,2.051C215.859,312.003,216.742,310.975,218.028,310.129z
			 M528.503,142.636c-0.263,0.39-0.524,0.78-0.787,1.169c1.13,0.577,2.231,1.506,3.399,1.602c0.719,0.059,1.542-1.156,2.317-1.799
			c-0.207-0.324-0.414-0.648-0.621-0.972C531.375,142.636,529.939,142.636,528.503,142.636z M321.593,312.13
			c0.543-1.147,1.182-2.091,1.371-3.116c0.069-0.373-1.094-1.441-1.416-1.337c-1.217,0.396-2.321,1.143-3.693,1.881
			C319.322,310.566,320.217,311.184,321.593,312.13z"/>
		<path fill-rule="evenodd" clip-rule="evenodd" d="M474.436,55.838c0,15.968-0.047,31.936,0.012,47.903
			c0.083,22.842,0.186,45.683,0.388,68.524c0.154,17.317,0.489,34.633,0.718,51.948c0.185,13.957,0.217,27.918,0.57,41.87
			c0.095,3.734-2.325,4.169-4.695,4.229c-4.053,0.104-8.122-0.567-12.183-0.553c-6.616,0.026-13.231,0.343-19.847,0.537
			c-2.744,0.081-5.486,0.24-8.229,0.234c-25.014-0.051-50.028-0.195-75.042-0.179c-17.35,0.011-34.7,0.307-52.05,0.342
			c-18.667,0.037-37.334-0.146-56.001-0.113c-21.507,0.038-43.013,0.163-64.519,0.374c-2.87,0.028-5.73,0.798-8.6,1.192
			c-0.613,0.084-1.249,0.077-1.868,0.031c-7.008-0.515-14.011-1.445-21.022-1.5c-22.967-0.18-45.936-0.053-68.905-0.016
			c-3.117,0.005-6.246,0.356-9.345,0.16c-1.089-0.068-2.105-1.296-3.155-1.993c0.71-1.033,1.191-2.576,2.168-3.017
			c6.398-2.875,12.053-6.807,17.698-10.942c4.864-3.563,10.625-5.875,15.784-9.069c4.155-2.573,7.936-5.739,12.011-8.451
			c3.13-2.082,6.471-3.845,9.696-5.787c6.728-4.051,13.413-8.173,20.167-12.179c5.917-3.51,12.081-6.634,17.818-10.411
			c7.929-5.22,15.77-10.532,24.221-14.916c3.737-1.939,7.081-4.621,10.708-6.791c3.825-2.287,7.807-4.312,11.652-6.566
			c1.52-0.891,2.8-2.181,4.287-3.138c3.542-2.281,7.198-4.39,10.707-6.72c4.818-3.199,9.47-6.655,14.334-9.778
			c3.298-2.117,6.903-3.75,10.259-5.784c5.268-3.192,10.42-6.575,15.662-9.813c6.476-4,13-7.922,19.492-11.898
			c6.347-3.886,12.711-7.743,19.002-11.717c3.37-2.129,6.51-4.631,9.922-6.686c3.435-2.068,7.104-3.745,10.621-5.683
			c2.224-1.226,4.403-2.545,6.521-3.945c6.374-4.216,12.641-8.595,19.081-12.707c3.709-2.368,7.711-4.274,11.508-6.512
			c4.341-2.558,8.593-5.265,12.897-7.885c3.222-1.961,6.505-3.821,9.688-5.84c4.659-2.955,9.236-6.04,13.886-9.011
			c1.65-1.055,3.438-1.893,5.114-2.91c5.479-3.326,10.923-6.708,16.404-10.031c3.576-2.167,7.239-4.194,10.778-6.42
			c3.858-2.428,7.589-5.057,11.432-7.513c3.946-2.523,7.973-4.921,11.939-7.414c4.188-2.633,8.334-5.333,12.528-7.958
			c1.103-0.691,3.043-1.964,3.34-1.675c1.055,1.027,2.027,2.56,2.188,3.996c0.333,2.958,0.133,5.976,0.135,8.968
			c0.006,7.737,0.002,15.475,0.002,23.212C474.356,55.838,474.396,55.838,474.436,55.838z M469.563,26.051
			c-1.041,0.478-2.098,0.844-3.031,1.413c-3.04,1.854-6.013,3.816-9.052,5.67c-4.537,2.766-9.116,5.461-13.659,8.218
			c-1.621,0.984-3.166,2.094-4.783,3.087c-3.298,2.025-6.698,3.894-9.914,6.04c-4.075,2.719-7.865,5.882-12.036,8.435
			c-5.886,3.603-12.064,6.722-18.006,10.239c-3.927,2.323-7.646,4.997-11.478,7.485c-2.435,1.581-4.916,3.09-7.354,4.666
			c-3.248,2.1-6.402,4.358-9.733,6.315c-3.156,1.855-6.565,3.276-9.72,5.132c-3.263,1.92-6.324,4.182-9.529,6.206
			c-2.889,1.824-5.875,3.493-8.78,5.295c-2.857,1.774-5.609,3.726-8.511,5.421c-3.581,2.092-7.387,3.815-10.888,6.026
			c-6.104,3.854-11.944,8.132-18.092,11.91c-5.827,3.58-11.969,6.646-17.856,10.134c-3.612,2.139-6.97,4.7-10.505,6.974
			c-5.536,3.56-11.078,7.112-16.707,10.522c-3.663,2.22-7.598,4-11.204,6.302c-4.651,2.969-9.005,6.402-13.659,9.367
			c-3.089,1.968-6.558,3.333-9.714,5.207c-4.832,2.868-9.542,5.942-14.904,9.307c0.553,0.496,1.371,1.838,2.44,2.083
			c5.114,1.171,10.262,2.376,15.466,2.908c3.648,0.373,7.297,0.042,10.699,3.881c-4.039,1.039-7.64,1.966-12.21,3.141
			c14.997,13.026,22.078,28.417,21.562,47.537c3.875-2.26,7.409-4.32,10.941-6.38c0.3,0.375,0.6,0.75,0.899,1.125
			c-0.378,0.833-0.665,1.724-1.15,2.488c-4.095,6.455-8.326,12.825-12.305,19.35c-2.136,3.502-0.899,5.323,3.347,5.154
			c4.986-0.198,9.963-0.799,14.949-0.86c11.572-0.146,23.146-0.073,34.72-0.087c14.094-0.016,28.188-0.074,42.283-0.028
			c13.987,0.045,27.974,0.253,41.962,0.286c17.609,0.041,35.22-0.111,52.828,0.035c3.287,0.026,4.438-0.884,4.321-4.176
			c-0.26-7.361-0.095-14.739-0.409-22.098c-0.164-3.834,1.519-4.573,4.911-4.469c7.115,0.218,14.244-0.048,21.362,0.14
			c3.755,0.099,4.552-1.59,4.503-4.994c-0.269-19.213-0.42-38.428-0.476-57.642c-0.045-15.602,0.319-31.206,0.111-46.804
			c-0.265-19.792-0.931-39.578-1.407-59.367c-0.111-4.605-0.204-9.212-0.223-13.818C469.538,44.174,469.563,35.52,469.563,26.051z
			 M81.397,265.867c1.9,0.383,3.344,0.938,4.781,0.92c10.102-0.129,20.201-0.513,30.302-0.548
			c9.814-0.035,19.628,0.324,29.443,0.368c8.216,0.037,16.433-0.146,24.649-0.205c8.197-0.061,16.395-0.06,24.593-0.14
			c8.309-0.083,16.617-0.238,24.926-0.34c0.479-0.006,0.958,0.281,1.438,0.282c6.725,0.02,13.449,0.014,20.736,0.014
			c-1.423-11.336-2.703-21.526-3.982-31.717c0.307-0.048,0.614-0.096,0.922-0.144c1.981,2.386,3.964,4.771,5.946,7.157
			c0.35-0.258,0.699-0.516,1.049-0.773c-3.214-14.378-7.08-28.431-19.456-38.271c0.139,1.771,1.02,3.189,1.578,4.724
			c0.609,1.673,1.58,3.625-1.584,4.764c-0.425-0.561-0.932-1.255-1.465-1.927c-2.511-3.167-4.983-6.366-7.558-9.48
			c-2.763-3.342-5.589-6.631-8.452-9.888c-2.079-2.365-5.275-2.156-7.641,0.322c-0.695,0.728-1.515,1.384-2.387,1.883
			c-3.929,2.246-8.022,4.229-11.818,6.676c-4.604,2.97-8.858,6.484-13.471,9.438c-4.117,2.636-8.539,4.792-12.786,7.23
			c-2.863,1.646-5.676,3.381-8.474,5.135c-5.129,3.215-10.17,6.574-15.364,9.679c-3.796,2.27-7.924,4-11.644,6.377
			c-6.116,3.907-11.935,8.277-18.046,12.191c-3.782,2.423-7.902,4.31-11.813,6.538c-2.77,1.578-5.485,3.261-8.144,5.02
			C85.831,262.374,84.124,263.806,81.397,265.867z M444.985,239.312c-0.169,0.824-0.347,1.292-0.349,1.761
			c-0.025,7.346,0.054,14.693-0.081,22.038c-0.048,2.589,1.306,2.771,3.285,2.736c6.858-0.121,13.724-0.35,20.574-0.147
			c3.23,0.096,3.951-1.551,3.894-4.027c-0.151-6.602-0.383-13.202-0.778-19.79c-0.054-0.892-1.215-2.444-1.889-2.459
			C461.447,239.252,453.246,239.312,444.985,239.312z"/>
		<path fill-rule="evenodd" clip-rule="evenodd" d="M222.849,160.094c-2.798-10.431-5.517-20.57-8.277-30.86
			c-1.079-0.185-2.262-0.389-4.315-0.743c1.532-1.607,2.721-3.795,3.686-3.701c3.577,0.35,4.838-2.598,7.045-4.128
			c2.935-2.034,7.801-0.739,8.542,2.749c1.043,4.915,1.781,9.935,2.128,14.946c0.265,3.839-2.605,6.382-7.535,7.643
			c-0.085,6.055,1.125,7.969,6.822,9.294C227.604,157.274,224.957,158.844,222.849,160.094z M221.728,122.736
			c-1.034,3.144-2.736,5.945-2.657,8.696c0.091,3.195,1.688,6.366,2.75,9.506c0.328,0.971,1.047,2.546,1.591,2.548
			c1.037,0.004,2.273-0.722,3.082-1.503C230.791,137.836,228.367,126.958,221.728,122.736z"/>
		<path fill-rule="evenodd" clip-rule="evenodd" d="M176.846,132.752c1.667,5.806,3.243,11.3,4.82,16.794
			c0.441-0.037,0.882-0.075,1.324-0.113c0.234-1.338,0.134-2.874,0.78-3.969c1.018-1.726,2.538-3.155,3.845-4.71
			c1.413,1.489,3.257,2.764,4.132,4.521c1.14,2.289,1.568,4.946,2.198,7.471c0.546,2.191,1.031,4.32,5.146,2.515
			c-0.738,2.59-0.937,4.224-1.677,5.558c-0.494,0.891-1.802,1.91-2.664,1.842c-0.771-0.062-1.715-1.425-2.087-2.403
			c-1.658-4.354-3.102-8.79-4.723-13.159c-0.238-0.643-1.007-1.09-1.531-1.627c-0.438,0.618-1.274,1.25-1.252,1.851
			c0.176,4.957,0.495,9.91,0.821,14.861c0.04,0.595,0.629,1.215,0.535,1.748c-0.275,1.558-0.767,3.078-1.173,4.613
			c-0.745-1.268-1.668-2.466-2.202-3.818c-1.503-3.806-2.945-7.642-4.225-11.527c-1.468-4.458-2.694-8.994-4.127-13.464
			c-0.274-0.853-1.026-1.553-1.556-2.324c-0.655-0.952-1.311-1.905-1.966-2.857c1.066-0.636,2.081-1.4,3.219-1.857
			C175.111,132.445,175.945,132.712,176.846,132.752z"/>
		<path fill-rule="evenodd" clip-rule="evenodd" d="M284.263,88.612c1.771-3.339,3.332-6.281,5.434-10.244
			c1.782,2.734,3.211,4.295,3.909,6.134c1.328,3.499,2.097,7.211,3.407,10.719c0.413,1.105,1.813,1.842,3.302,3.262
			c-0.176,1.104,1.381,3.994-2.49,4.351c-1.933,0.178-3.313-0.432-3.782-2.615c-0.726-3.389-1.575-6.756-2.516-10.092
			c-0.406-1.439-1.169-2.778-1.976-4.635c-3.678,4.887-4.376,9.279-1.71,14.15c0.879,1.607,1.269,3.502,1.757,5.299
			c0.861,3.166-0.5,4.575-4.009,4.307c-1.318-5.329-2.374-10.73-4.113-15.902c-0.499-1.483-2.978-2.3-5.404-4.033
			c1.873-1.507,3.877-3.119,5.989-4.818C282.787,85.851,283.349,86.901,284.263,88.612z"/>
		<path fill-rule="evenodd" clip-rule="evenodd" d="M235.18,316.483c0.33-3.135,0.553-6.004,0.967-8.845
			c0.179-1.223,0.459-2.683,1.253-3.475c0.505-0.503,2.705-0.335,2.976,0.164c0.623,1.154,0.983,2.809,0.661,4.058
			c-1.756,6.803-3.786,13.534-5.624,20.317c-0.274,1.015,0.079,2.184-0.044,3.259c-0.119,1.04-0.168,2.528-0.814,2.946
			c-0.708,0.458-2.423,0.318-3.068-0.263c-1.972-1.774-3.735-1.421-5.634-0.127c-3.009,2.052-5.187,0.054-6.526-2.026
			c-0.925-1.438-0.807-3.824-0.51-5.684c0.233-1.467,1.541-2.734,2.214-4.165C223.731,316.898,227.787,314.868,235.18,316.483z
			 M224.061,332.366c1.667-1.09,3.477-1.917,4.817-3.224c2.655-2.591,4.189-5.804,3.821-9.646c-0.179-1.868-0.979-2.628-3.017-1.738
			C223.86,320.302,221.646,325.633,224.061,332.366z"/>
		<path fill-rule="evenodd" clip-rule="evenodd" d="M302.576,332.131c-1.945,1.135-3.493,2.234-5.195,2.982
			c-2.457,1.081-5.165-1.034-5.769-4.187c-1.316-6.879,6.981-16.606,13.273-15.396c2.981,0.573,4.825-3.479,3.637-7.445
			c-1.054-3.52-0.149-4.595,3.394-4.156c2.551,0.315,3.037,1.666,2.295,3.929c-1.759,5.363-3.5,10.733-5.125,16.139
			c-0.764,2.544-3.311,5.132-0.16,7.875c0.141,0.124-0.777,1.982-1.556,2.495c-0.737,0.484-2.089,0.601-2.896,0.249
			C303.708,334.28,303.295,333.131,302.576,332.131z M294.677,330.613c1.776,0.368,4.055,1.426,4.593,0.852
			c2.346-2.502,4.485-5.319,6.074-8.351c0.744-1.42,0.072-3.581,0.042-5.407c-1.887,0.565-3.83,1.003-5.633,1.767
			c-0.656,0.277-1.108,1.282-1.433,2.05C297.173,324.229,296.125,326.975,294.677,330.613z"/>
		<path fill-rule="evenodd" clip-rule="evenodd" d="M313.108,90.577c-0.386,0.966-0.73,2.594-1.619,3.831
			c-0.889,1.238-2.216,2.639-3.556,2.896c-0.822,0.158-2.466-1.51-2.987-2.692c-2.104-4.761-3.914-9.651-5.943-14.771
			c-0.435,0.777-0.851,1.52-1.267,2.264c-1.879-2.287-1.037-4.979,2.529-7.78c6.297,4.145,3.169,12.688,8.775,18.402
			c0.933-4.031,2.121-7.33,2.311-10.685c0.11-1.939-1.535-3.928-2.119-5.971c-0.438-1.534-0.642-3.201-0.563-4.79
			c0.043-0.852,0.906-1.663,1.399-2.493c0.939,0.687,2.478,1.212,2.713,2.088c0.898,3.343,1.296,6.818,2.04,10.208
			c0.501,2.281,0.639,4.954,4.1,5.02c0.426,0.008,1.237,1.52,1.129,2.221c-0.138,0.892-0.906,2.219-1.622,2.379
			C316.994,91.027,315.41,90.683,313.108,90.577z"/>
		<path fill-rule="evenodd" clip-rule="evenodd" d="M609.772,179.337c-2.914,0-5.332,0-8.186,0
			c3.637-9.245,9.185-17.657,8.315-28.521c4.155,0,9.263-0.668,14.081,0.226c3.446,0.639,2.495,4.846,2.196,7.376
			c-0.643,5.438-5.875,11.179-12.362,10.521c-3.054-0.31-5.207,2.976-4.749,6.588C609.208,176.618,609.465,177.695,609.772,179.337z
			 M612.17,166.785c7.27,2.639,7.675-3.919,10.006-7.336c1.807-2.647,0.204-5.267-2.304-7.088
			C611.84,160.905,611.84,160.905,612.17,166.785z"/>
		<path fill-rule="evenodd" clip-rule="evenodd" d="M632.294,169.147c-0.277,2.488-0.377,5.015-0.92,7.443
			c-0.224,0.999-1.254,2.281-2.178,2.553c-1.456,0.429-3.132,0.114-5.52,0.114c5.126-9.155,7.846-18.22,8.446-28.768
			c3.448,0,7.863,0.015,12.278-0.007c2.257-0.011,3.224,1.021,3.473,3.317c0.64,5.922-1.542,10.683-6.124,14.093
			c-1.944,1.446-4.758,1.751-7.213,2.442c-0.215,0.061-0.709-0.869-1.074-1.338C633.073,169.047,632.684,169.097,632.294,169.147z
			 M641.067,152.747c-5.61,1.812-6.358,6.949-7.988,11.443c-0.688,1.897-0.036,3.041,2.22,3.144c3.732,0.172,5.604-2.173,7.335-5.88
			C644.436,157.594,645.702,154.769,641.067,152.747z"/>
		<path fill-rule="evenodd" clip-rule="evenodd" d="M550.963,139.595c1.47,0,3.431,0,6.402,0c-1.304,4.138-2.723,7.953-3.687,11.881
			c-1.168,4.755-5.215,9.141-2.058,14.588c0.248,0.428-0.598,2.084-1.234,2.306c-1.188,0.414-3.119,0.761-3.813,0.125
			c-1.793-1.643-2.777-0.985-4.711-0.142c-1.797,0.784-5.924,0.393-6.311-0.57c-1.002-2.5-1.46-6.004-0.442-8.382
			c3.417-7.981,3.7-7.86,15.854-8.989C550.963,146.917,550.963,143.37,550.963,139.595z M537.756,165.323
			c5.985,1.843,11.816-5.379,10.492-12.828C542.728,151.99,537.278,158.474,537.756,165.323z"/>
		<path fill-rule="evenodd" clip-rule="evenodd" d="M339.54,68.249c3.417,4.778,6.96,4.083,10.002-1.856
			c0.368-0.719,1.168-1.215,1.768-1.815c0.249,0.921,0.89,1.941,0.686,2.749c-1.777,7.048-4.05,8.85-10.148,8.472
			c-3.898-0.242-5.699-3.282-6.174-6.152c-0.776-4.682-0.76-9.604-0.257-14.337c0.208-1.957,2.229-4.079,3.966-5.432
			c2.715-2.113,6.987,0.76,7.117,4.549C346.701,60.298,343.461,64.457,339.54,68.249z M337.57,64.141
			c0.495,0.09,0.988,0.18,1.482,0.271c2.373-2.466,4.539-5.09,3.813-8.896c-0.2-1.052-1.159-1.959-1.769-2.933
			c-0.87,0.732-2.337,1.349-2.501,2.214C338.013,57.866,337.875,61.019,337.57,64.141z"/>
		<path fill-rule="evenodd" clip-rule="evenodd" d="M233.094,120.163c-0.748-3.778,2.195-6.566,4.342-9.561
			c1.823-2.543,7.612-1.819,9.246,0.848c2.748,4.485,5.96,8.762,4.832,14.576c-0.557,2.87-5.61,9.322-8.306,9.224
			c-1.917-0.07-3.995-1.512-5.609-2.825C235.194,130.467,232.948,123.964,233.094,120.163z M247.381,124.761
			c-0.274-2.154-0.139-5.364-1.196-8.116c-0.925-2.406-2.689-5.149-6.306-4.106c-3.022,0.872-2.895,3.44-2.653,5.729
			c0.285,2.691,1.041,5.331,1.55,8.001c0.605,3.177,2.522,4.75,5.718,4.464C247.793,130.438,247.115,127.759,247.381,124.761z"/>
		<path fill-rule="evenodd" clip-rule="evenodd" d="M281.675,107.167c-0.834,2.097-1.162,4.699-2.626,6.171
			c-2.059,2.071-4.246,5.687-7.727,4.134c-2.632-1.174-5.539-3.624-6.518-6.192c-1.705-4.476-3.176-9.529-0.264-14.252
			c1.129-1.833,2.54-3.629,4.204-4.966c3.135-2.517,5.689-1.504,6.579,2.403c1.091,4.787,0.081,8.886-4.176,11.818
			c-2.003,1.381-3.141,3.666-1.147,5.128c1.426,1.047,4.215,0.6,6.287,0.222c0.822-0.149,1.294-1.954,2.029-2.928
			c0.621-0.822,1.391-1.532,2.096-2.291C280.832,106.666,281.253,106.917,281.675,107.167z M269.293,106.078
			c1.258-2.761,2.686-5.292,3.487-8.008c0.25-0.844-1.08-2.29-1.93-3.243c-0.272-0.306-1.535-0.168-1.989,0.203
			C266.339,97.088,266.423,103.234,269.293,106.078z"/>
		<path fill-rule="evenodd" clip-rule="evenodd" d="M340.312,316.896c1.528-0.646,2.653-1.121,4.59-1.94
			c-0.234,1.727-0.268,2.932-0.576,4.063c-0.749,2.748-1.668,5.45-2.422,8.197c-0.188,0.682-0.315,1.735,0.054,2.156
			c1.938,2.2,1.235,4.131-1.038,4.869c-1.522,0.494-3.516-0.463-5.3-0.771c0.028-0.379,0.056-0.759,0.083-1.138
			c-0.831,0.46-1.613,1.121-2.503,1.337c-1.836,0.445-4.109,1.456-5.518,0.788c-2.759-1.308-4.14-4.373-2.758-7.191
			c2.187-4.46,4.027-9.229,9.257-11.632C336.942,314.366,338.667,313.964,340.312,316.896z M337.873,317.351
			c-6.799,3.216-9.053,6.723-8.567,12.22c0.228,2.571,1.542,3.561,3.634,2.087c3.41-2.401,5.529-5.88,6.123-10.021
			C339.243,320.382,338.356,318.975,337.873,317.351z"/>
		<path fill-rule="evenodd" clip-rule="evenodd" d="M289.857,316.922c-0.432,1.662-0.781,4.094-1.693,6.291
			c-2.286,5.51-2.389,5.468,0.047,9.659c-2.566,1.551-4.963,4.293-7.144,0.43c-2.744,0.712-5.128,1.949-7.339,1.69
			c-1.518-0.178-3.649-2.23-4.014-3.794c-0.993-4.252,3.618-12.077,7.59-14.086c0.855-0.432,1.504-1.311,2.378-1.653
			c1.146-0.451,2.494-0.964,3.624-0.753C285.292,315.078,287.178,315.978,289.857,316.922z M284.405,321.301
			c-0.087-3.154-2.246-4.37-4.939-2.784c-2.858,1.685-5.903,8.636-4.784,11.645c0.316,0.851,2.094,1.942,2.827,1.715
			C280.381,330.983,284.487,324.311,284.405,321.301z"/>
		<path fill-rule="evenodd" clip-rule="evenodd" d="M403.568,332.422c-2.143,0.941-4.064,1.787-5.986,2.632
			c-0.201-2.203-0.865-4.487-0.493-6.589c0.554-3.123,1.841-6.116,2.184-9.459c-4.918,2.596-8.637,5.924-10.001,11.298
			c-0.569,2.241-1.143,4.58-5.115,3.205c1.369-5.641,2.76-11.367,4.258-17.54c1.122-0.031,3.69-2.453,4.061,1.905
			c0.018,0.211,2.001,0.721,2.412,0.354c2.44-2.178,5.021-3.87,8.233-2.052c1.803,1.02,0.96,6.031-1.187,9.607
			c-0.546,0.908-1.058,2.139-0.886,3.096C401.222,329.851,402.26,330.668,403.568,332.422z"/>
		<path fill-rule="evenodd" clip-rule="evenodd" d="M328.331,66.449c-1.503-1.265-3.006-2.53-4.693-3.95
			c-0.693,0.848-2.005,1.735-2.046,2.676c-0.053,1.242,0.535,3.048,1.477,3.693c2.456,1.684,5.916,2.304,7.72,4.418
			c1.616,1.895,2.411,5.369,1.967,7.86c-0.344,1.934-2.875,4.26-4.928,4.957c-5.599,1.901-6.779,0.575-6.494-5.687
			c1.488,0.708,3.027,1.879,4.685,2.082c1.222,0.15,3.414-0.667,3.743-1.574c0.765-2.103-0.187-3.967-2.477-5.068
			c-2.998-1.441-6.003-2.945-8.758-4.792c-2.58-1.729-1.878-7.313,0.959-8.973c1.645-0.963,3.303-2.131,5.102-2.507
			c0.974-0.204,2.651,0.791,3.293,1.733c0.771,1.133,0.778,2.787,1.116,4.215C328.776,65.838,328.553,66.144,328.331,66.449z"/>
		<path fill-rule="evenodd" clip-rule="evenodd" d="M370.054,327.316c-0.458,3.677,1.861,4.968,4.4,4.679
			c2.126-0.241,4.089-1.925,6.125-2.97c0.266,0.24,0.531,0.48,0.797,0.72c-0.378,0.851-0.527,2.128-1.176,2.476
			c-2.132,1.146-4.365,2.377-6.701,2.812c-7.206,1.342-8.428-4.785-7.177-10.36c1.219-5.433,5.676-7.428,9.564-9.92
			c1.083-0.693,3.787,0.053,5.028,1.042c1.004,0.8,1.481,3.051,1.232,4.491c-0.867,5.021-5.479,5.305-9.202,6.602
			C372.146,327.166,371.243,327.15,370.054,327.316z M372.23,326.246c2.069-2.319,3.782-4.083,5.267-6.023
			c0.347-0.452,0.064-1.566-0.234-2.242c-0.125-0.282-1.112-0.425-1.592-0.271C372.939,318.586,371.172,322.295,372.23,326.246z"/>
		<path fill-rule="evenodd" clip-rule="evenodd" d="M658.705,168.814c-6.264-0.071-8.611-2.102-8.264-7.15
			c0.281-4.067,7.287-11.835,10.702-11.866c7.404-0.065,10.768,5.183,7.621,12.355C666.989,166.202,663.82,169.837,658.705,168.814z
			 M666.177,157.833c-0.847-2.318-1.14-4.134-2.137-5.393c-0.457-0.578-2.722-0.561-3.439,0.047
			c-3.28,2.774-5.738,6.255-5.674,10.737c0.019,1.335,1.15,3.285,2.286,3.787c1.027,0.453,3.316-0.249,4.068-1.209
			C663.242,163.3,664.664,160.376,666.177,157.833z"/>
		<path fill-rule="evenodd" clip-rule="evenodd" d="M571.384,164.008c-0.384,1.159-0.402,2.161-0.861,2.439
			c-2.535,1.542-5.074,3.175-7.819,4.241c-1.732,0.671-6.266-3.46-6.738-5.657c-1.792-8.344,6.551-16.525,14.755-14.327
			c0.886,0.237,2.218,1.898,2.033,2.487c-0.635,2.018-1.412,4.451-2.967,5.597c-1.688,1.246-4.394,1.016-6.493,1.841
			c-1.392,0.548-2.5,1.821-3.735,2.77c1.192,0.837,2.414,2.408,3.57,2.361C565.688,165.657,568.215,164.739,571.384,164.008z
			 M567.679,152.543c-3.488-0.042-6.466,3.261-6.066,6.409C565.498,158.936,567.521,156.877,567.679,152.543z"/>
		<path fill-rule="evenodd" clip-rule="evenodd" d="M243.578,327.575c1.354,1.79,2.191,4.004,3.457,4.285
			c1.522,0.337,3.401-0.995,5.142-1.556c0.929-0.3,1.893-0.496,2.841-0.738c-0.271,1.008-0.226,2.332-0.865,2.967
			c-2.521,2.504-10.103,3.466-12.229,1.003c-1.42-1.646-2.002-4.88-1.546-7.114c1.114-5.455,4.574-9.524,10.049-11.099
			c1.639-0.472,4.777,0.133,5.392,1.252c0.833,1.519,0.476,4.301-0.397,6.018c-1.732,3.401-5.705,3.24-8.847,4.339
			C245.909,327.165,245.187,327.236,243.578,327.575z M245.279,324.988c0.307,0.314,0.614,0.631,0.921,0.946
			c1.944-1.808,3.972-3.538,5.776-5.476c0.478-0.513,0.269-1.664,0.376-2.522c-0.806-0.002-1.728-0.265-2.397,0.037
			C246.934,319.337,245.405,321.745,245.279,324.988z"/>
		<path fill-rule="evenodd" clip-rule="evenodd" d="M591.977,170.406c-2.744-1.415-6.302-2.347-6.342-7.066
			c-0.046-5.257,2.49-9.043,6.412-11.781c2.883-2.013,6.534-1.833,9.852-0.589c0.866,0.325,1.691,1.482,2.009,2.433
			c1.507,4.515-0.76,11.899-4.678,14.341C597.174,169.024,594.604,169.478,591.977,170.406z M600.258,152.223
			c-1.802,0.167-4.477-0.34-5.199,0.621c-2.232,2.968-3.987,6.393-5.331,9.871c-0.391,1.012,0.878,3.35,2.019,4.055
			c0.928,0.574,3.186,0.082,4.189-0.745C600.135,162.572,601.846,158.106,600.258,152.223z"/>
		<path fill-rule="evenodd" clip-rule="evenodd" d="M717.239,161.331c0.06,0.991,0.05,3.762,0.251,3.778
			c3.219,0.247,6.466,0.142,10.327,0.111c1.181,2.661-2.662,2.802-4.02,3.249c-2.368,0.778-5.298,0.821-7.732,0.181
			c-3.072-0.808-4.069-3.835-3.233-6.614c1.003-3.338,2.611-6.56,4.395-9.573c1.118-1.89,9.061-3.092,10.753-1.747
			c0.865,0.687,1.655,2.428,1.383,3.379c-0.494,1.728-1.444,3.928-2.859,4.655C724.015,160.029,721.032,160.347,717.239,161.331z
			 M717.304,158.761c4.449,0.394,7.215-1.819,7.857-6.052C721.189,152.007,718.961,153.665,717.304,158.761z"/>
		<path fill-rule="evenodd" clip-rule="evenodd" d="M205.015,317.217c-1.104,1.958-1.814,3.22-2.226,3.948
			c-1.874-1.035-3.718-2.054-5.562-3.071c-0.331,0.407-0.662,0.814-0.993,1.222c0.687,1.03,1.282,2.138,2.08,3.073
			c2.058,2.415,3.616,4.871,3.257,8.338c-0.306,2.938-1.938,4.267-4.489,4.493c-2.824,0.251-5.687,0.058-8.838,0.058
			c0-2.273,0-4.061,0-6.682c1.477,0.586,3.323,0.809,3.496,1.469c1.183,4.521,3.532,3.002,6.267,1.47
			c-1.773-3.176-3.853-6.064-4.984-9.285c-0.549-1.562,0.208-4.059,1.215-5.573c1.265-1.901,3.35-2.744,5.833-1.174
			C201.458,316.379,203.243,316.629,205.015,317.217z"/>
		<path fill-rule="evenodd" clip-rule="evenodd" d="M192.885,137.648c1.083-0.567,2.534-1.742,4.158-2.079
			c2.252-0.467,2.785,1.426,3.758,3.172c1.738,3.117,4.138,5.889,6.458,8.637c0.49,0.58,1.831,0.442,2.576,0.593
			c0,5.577,0.246,11.038-0.116,16.459c-0.154,2.31-1.121,5.093-4.644,4.311c-0.708-0.157-1.645-0.692-1.85-1.274
			c-0.175-0.494,0.387-1.496,0.906-1.951c4.708-4.124,5.305-7.946,1.703-13.448c-1.913-2.922-4.028-5.744-6.323-8.375
			C197.79,141.721,195.635,140.124,192.885,137.648z"/>
		<path fill-rule="evenodd" clip-rule="evenodd" d="M520.068,150.696c-0.749,2.196-1.261,3.696-1.772,5.197
			c-0.99-0.982-1.979-1.965-3.445-3.418c-0.215,0-1.293,0-3.598,0c1.378,2.559,2.108,4.713,3.483,6.314
			c3.998,4.661,3.465,7.701-2.08,10.339c-0.743,0.354-1.318,1.06-1.392,1.12c-2.743-0.702-4.978-1.274-7.554-1.934
			c0.234-1.649,0.498-3.504,0.757-5.329c3.623,0.016,3.363,6.128,7.842,3.888c0.859-2.792-0.291-5.134-2.394-7.01
			c-2.477-2.21-2.689-5.06-1.203-7.381c0.791-1.235,3.487-1.408,5.378-1.731C515.659,150.483,517.311,150.696,520.068,150.696z"/>
		<path fill-rule="evenodd" clip-rule="evenodd" d="M686.62,150.612c-0.552,2.279-0.917,3.786-1.381,5.704
			c-1.843-1.734-3.4-3.199-5.372-5.055c-2.021,4.043,0.42,5.571,1.595,7.705c1.17,2.124,2.238,4.819,1.964,7.096
			c-0.374,3.107-5.052,4.572-8.084,3.113c-0.217-0.105-0.474-0.151-0.716-0.173c-1.291-0.117-3.678-0.106-3.701-0.34
			c-0.188-1.863,0.072-3.771,0.196-5.666c0.343-0.088,0.687-0.176,1.03-0.265c0.501,0.846,1.255,1.636,1.457,2.548
			c0.627,2.837,2.986,2.317,4.392,1.738c0.734-0.303,1.184-3.028,0.689-4.211c-0.923-2.21-2.743-4.025-3.979-6.128
			c-1.785-3.04-0.53-5.648,3.03-6.01C680.555,150.384,683.422,150.612,686.62,150.612z"/>
		<path fill-rule="evenodd" clip-rule="evenodd" d="M361.638,322.73c-1.084-2.326-1.743-3.739-2.417-5.188
			c-5.382,0.231-8.415,6.092-8.378,9.72c0.015,1.571,1.171,3.675,2.474,4.561c1.726,1.174,3.737,0.55,5.093-1.505
			c0.402-0.608,1.627-0.736,2.51-0.914c0.184-0.037,0.822,0.878,0.734,1.01c-0.483,0.725-1.043,1.451-1.73,1.977
			c-2.591,1.986-5.367,3.813-8.806,2.652c-4.889-1.65-6.378-7.927-3.081-12.468c2.38-3.278,4.893-6.266,9.157-7.389
			c2.514-0.663,6.865,0.548,7.09,2.946C364.394,319.308,362.911,320.631,361.638,322.73z"/>
		<path fill-rule="evenodd" clip-rule="evenodd" d="M252.338,96.449c1.631,1.16,3.23,2.296,5.67,4.031
			c0.045,0.314,1.49,2.127-1.706,2.465c-0.248,0.026-0.671,1.871-0.401,2.662c0.742,2.174,1.917,4.198,2.718,6.356
			c0.772,2.079,1.291,4.252,1.927,6.402c1.056-0.236,2.081-0.464,3.344-0.747c0.057,0.596,0.29,1.147,0.108,1.458
			c-1.059,1.827,0.367,5.279-3.076,5.47c-3.348,0.187-3.491-3.374-4.504-5.256c-1.65-3.065-2.176-6.749-3.09-10.194
			c-0.454-1.71-0.645-3.463-3.089-3.464c-0.291,0-0.991-1.474-0.801-2.023C250.322,101.053,251.451,98.581,252.338,96.449z"/>
		<path fill-rule="evenodd" clip-rule="evenodd" d="M303.338,340.577c2.322,0,3.5,0.272,4.461-0.067
			c1.27-0.45,3.135-1.16,3.417-2.14c1.871-6.519,3.711-13.08,4.9-19.745c0.752-4.216,3.197-2.712,5.945-2.782
			c-0.783,2.912-1.398,5.514-2.186,8.062c-1.491,4.815-3.103,9.592-4.623,14.397c-1.252,3.959-5.031,6.277-8.954,5.187
			C305.436,343.249,304.829,342.09,303.338,340.577z"/>
		<path fill-rule="evenodd" clip-rule="evenodd" d="M417.463,316.875c-5.228,2.478-5.235,7.624-6.044,12.257
			c-0.12,0.682,1.336,1.638,2.373,2.821c0.054-0.423,0.113-0.086-0.02,0.029c-1.752,1.527-3.045,4.675-6.025,2.825
			c-2.854-1.771-1.588-4.635-0.834-7.104c0.751-2.458,1.708-4.853,2.521-7.292c0.188-0.565,0.432-1.369,0.183-1.781
			c-2.332-3.857,2.479-4.303,3.131-6.703c0.944,0.398,2.148,0.564,2.769,1.254C416.356,314.117,416.751,315.455,417.463,316.875z"/>
		<path fill-rule="evenodd" clip-rule="evenodd" d="M702.446,151.144c2.254-1.945,4.517-3.897,7.123-6.147
			c0.367,2.684,0.624,4.563,0.897,6.556c-5.046,2.702-2.54,9.212-6.337,13.036c1.271,0.621,2.209,1.08,3.332,1.63
			c-1.066,4.024-4.183,2.146-6.695,2.563C699.566,162.688,704.626,157.334,702.446,151.144z"/>
		<path fill-rule="evenodd" clip-rule="evenodd" d="M216.51,316.129c-1.457,3.976-2.883,7.574-4.047,11.256
			c-0.278,0.88,0.314,2.037,0.511,3.066c0.192,1.01,0.731,2.819,0.535,2.903c-1.741,0.739-3.612,1.171-5.445,1.694
			c-0.148-1.073-0.544-2.18-0.401-3.212c0.655-4.727,1.535-9.423,2.178-14.151C210.131,315.551,211.3,315.107,216.51,316.129z"/>
		<path fill-rule="evenodd" clip-rule="evenodd" d="M688.833,168.612c1.505-5.952,2.919-11.545,4.479-17.718
			c0.656,0,2.424,0,5.054,0c-1.252,3.459-2.45,6.442-3.383,9.506c-0.401,1.321-0.71,2.975-0.27,4.189
			c1.321,3.635,1.063,4.234-2.795,4.249C691.063,168.842,690.205,168.717,688.833,168.612z"/>
		<path fill-rule="evenodd" clip-rule="evenodd" d="M526.194,150.765c1.527,0,3.354,0,5.388,0c-0.2,5.426-5.807,9.841-2.423,16.217
			c-0.474,0.404-1.238,1.45-2.244,1.803c-0.956,0.335-2.498,0.333-3.163-0.239c-0.574-0.495-0.553-2.068-0.311-3.044
			c0.588-2.376,1.682-4.639,2.15-7.031C526.052,156.125,525.991,153.675,526.194,150.765z"/>
		<path fill-rule="evenodd" clip-rule="evenodd" d="M209.362,145.424c-0.231-2.027-0.257-4.105-0.75-6.066
			c-0.51-2.024-1.464-3.938-2.243-5.893c-0.458-1.151-1.039-2.263-1.362-3.448c-0.065-0.237,1.005-1.125,1.167-1.032
			c1.201,0.68,3.09,1.362,3.304,2.357c0.972,4.533,1.465,9.17,2.13,13.769C210.858,145.216,210.111,145.319,209.362,145.424z"/>
		<path fill-rule="evenodd" clip-rule="evenodd" d="M65.432,158.985c1.468,1.102,2.476,1.858,3.483,2.614
			c-0.988,0.878-1.868,2.023-3.022,2.496c-0.431,0.177-2.087-1.178-2.138-1.907C63.69,161.27,64.699,160.276,65.432,158.985z"/>
		<path fill-rule="evenodd" clip-rule="evenodd" d="M218.028,310.129c-1.286,0.846-2.169,1.874-2.858,1.757
			c-0.729-0.124-1.857-1.437-1.753-2.051c0.137-0.814,1.256-1.949,2.037-2.02C216.105,307.757,216.877,309.032,218.028,310.129z"/>
		<path fill-rule="evenodd" clip-rule="evenodd" d="M528.503,142.636c1.437,0,2.872,0,4.309,0c0.207,0.324,0.414,0.648,0.621,0.972
			c-0.775,0.643-1.599,1.858-2.317,1.799c-1.168-0.096-2.27-1.025-3.399-1.602C527.979,143.416,528.24,143.026,528.503,142.636z"/>
		<path fill-rule="evenodd" clip-rule="evenodd" d="M321.593,312.13c-1.376-0.946-2.271-1.563-3.738-2.572
			c1.372-0.738,2.476-1.485,3.693-1.881c0.322-0.104,1.485,0.964,1.416,1.337C322.774,310.039,322.136,310.982,321.593,312.13z"/>
		<path fill-rule="evenodd" clip-rule="evenodd" fill="#FFFFFF" d="M469.563,26.051c0,9.469-0.025,18.123,0.01,26.777
			c0.019,4.606,0.111,9.212,0.223,13.818c0.477,19.789,1.143,39.575,1.407,59.367c0.208,15.598-0.156,31.202-0.111,46.804
			c0.056,19.214,0.207,38.429,0.476,57.642c0.049,3.404-0.748,5.093-4.503,4.994c-7.118-0.188-14.247,0.078-21.362-0.14
			c-3.393-0.104-5.075,0.635-4.911,4.469c0.314,7.358,0.149,14.736,0.409,22.098c0.116,3.292-1.034,4.202-4.321,4.176
			c-17.608-0.146-35.219,0.006-52.828-0.035c-13.988-0.033-27.975-0.241-41.962-0.286c-14.095-0.046-28.188,0.013-42.283,0.028
			c-11.574,0.014-23.148-0.059-34.72,0.087c-4.986,0.062-9.962,0.662-14.949,0.86c-4.246,0.169-5.483-1.652-3.347-5.154
			c3.979-6.524,8.21-12.895,12.305-19.35c0.485-0.765,0.771-1.655,1.15-2.488c-0.299-0.375-0.6-0.75-0.899-1.125
			c-3.533,2.06-7.066,4.12-10.941,6.38c0.516-19.12-6.564-34.511-21.562-47.537c4.57-1.175,8.171-2.102,12.21-3.141
			c-3.402-3.839-7.051-3.508-10.699-3.881c-5.204-0.532-10.352-1.737-15.466-2.908c-1.069-0.245-1.888-1.587-2.44-2.083
			c5.362-3.364,10.072-6.438,14.904-9.307c3.156-1.874,6.625-3.238,9.714-5.207c4.654-2.964,9.008-6.398,13.659-9.367
			c3.606-2.302,7.542-4.082,11.204-6.302c5.628-3.41,11.171-6.962,16.707-10.522c3.535-2.274,6.894-4.834,10.505-6.974
			c5.888-3.488,12.029-6.554,17.856-10.134c6.148-3.778,11.988-8.056,18.092-11.91c3.501-2.211,7.307-3.935,10.888-6.026
			c2.902-1.695,5.654-3.647,8.511-5.421c2.905-1.802,5.891-3.472,8.78-5.295c3.206-2.024,6.266-4.286,9.529-6.206
			c3.154-1.856,6.564-3.277,9.72-5.132c3.331-1.957,6.485-4.215,9.733-6.315c2.438-1.576,4.92-3.085,7.354-4.666
			c3.831-2.488,7.551-5.162,11.478-7.485c5.941-3.517,12.12-6.636,18.006-10.239c4.171-2.553,7.961-5.716,12.036-8.435
			c3.216-2.146,6.616-4.015,9.914-6.04c1.617-0.993,3.162-2.103,4.783-3.087c4.543-2.757,9.122-5.452,13.659-8.218
			c3.039-1.854,6.012-3.817,9.052-5.67C467.466,26.896,468.522,26.529,469.563,26.051z M269.797,209.77
			c-0.328,5.477,0.847,10.436,5.435,13.768c1.719,1.248,4.955,2.639,6.192,1.868c2.759-1.719,5.965-4.429,6.714-7.324
			c1.867-7.21,2.648-14.739-2.809-21.25c-2.239-2.673-6.59-3.661-9.554-1.877C270.028,198.412,270.173,204.187,269.797,209.77z"/>
		<path fill-rule="evenodd" clip-rule="evenodd" fill="#FFFFFF" d="M81.397,265.867c2.727-2.062,4.434-3.493,6.28-4.715
			c2.658-1.759,5.374-3.441,8.144-5.02c3.911-2.229,8.031-4.115,11.813-6.538c6.111-3.914,11.93-8.284,18.046-12.191
			c3.72-2.377,7.848-4.107,11.644-6.377c5.194-3.104,10.235-6.464,15.364-9.679c2.798-1.754,5.611-3.489,8.474-5.135
			c4.247-2.438,8.668-4.595,12.786-7.23c4.613-2.954,8.867-6.469,13.471-9.438c3.796-2.447,7.89-4.43,11.818-6.676
			c0.872-0.499,1.692-1.155,2.387-1.883c2.366-2.479,5.562-2.688,7.641-0.322c2.863,3.257,5.689,6.546,8.452,9.888
			c2.575,3.114,5.047,6.313,7.558,9.48c0.533,0.672,1.04,1.366,1.465,1.927c3.164-1.139,2.193-3.091,1.584-4.764
			c-0.558-1.534-1.439-2.952-1.578-4.724c12.376,9.841,16.242,23.894,19.456,38.271c-0.35,0.258-0.699,0.516-1.049,0.773
			c-1.982-2.386-3.965-4.771-5.946-7.157c-0.308,0.048-0.615,0.096-0.922,0.144c1.279,10.19,2.559,20.381,3.982,31.717
			c-7.287,0-14.012,0.006-20.736-0.014c-0.48-0.001-0.959-0.288-1.438-0.282c-8.309,0.102-16.617,0.257-24.926,0.34
			c-8.198,0.08-16.396,0.079-24.593,0.14c-8.217,0.06-16.433,0.242-24.649,0.205c-9.815-0.044-19.629-0.403-29.443-0.368
			c-10.101,0.035-20.201,0.419-30.302,0.548C84.741,266.805,83.297,266.25,81.397,265.867z"/>
		<path fill-rule="evenodd" clip-rule="evenodd" fill="#FFFFFF" d="M444.985,239.312c8.261,0,16.462-0.06,24.656,0.111
			c0.674,0.015,1.835,1.567,1.889,2.459c0.396,6.588,0.627,13.188,0.778,19.79c0.058,2.477-0.663,4.123-3.894,4.027
			c-6.851-0.202-13.716,0.026-20.574,0.147c-1.979,0.035-3.333-0.147-3.285-2.736c0.135-7.345,0.056-14.692,0.081-22.038
			C444.639,240.604,444.816,240.136,444.985,239.312z"/>
		<path fill-rule="evenodd" clip-rule="evenodd" fill="#FFFFFF" d="M221.728,122.736c6.639,4.222,9.063,15.1,4.766,19.247
			c-0.809,0.781-2.045,1.507-3.082,1.503c-0.544-0.001-1.263-1.577-1.591-2.548c-1.063-3.14-2.659-6.311-2.75-9.506
			C218.992,128.681,220.693,125.88,221.728,122.736z"/>
		<path fill-rule="evenodd" clip-rule="evenodd" fill="#FFFFFF" d="M224.061,332.366c-2.415-6.733-0.201-12.064,5.621-14.607
			c2.038-0.89,2.838-0.13,3.017,1.738c0.369,3.842-1.166,7.055-3.821,9.646C227.538,330.449,225.729,331.276,224.061,332.366z"/>
		<path fill-rule="evenodd" clip-rule="evenodd" fill="#FFFFFF" d="M294.677,330.613c1.448-3.639,2.497-6.385,3.642-9.09
			c0.325-0.768,0.777-1.772,1.433-2.05c1.803-0.764,3.746-1.201,5.633-1.767c0.031,1.826,0.703,3.987-0.042,5.407
			c-1.589,3.031-3.728,5.849-6.074,8.351C298.732,332.039,296.453,330.981,294.677,330.613z"/>
		<path fill-rule="evenodd" clip-rule="evenodd" fill="#FFFFFF" d="M612.17,166.785c-0.33-5.88-0.33-5.88,7.702-14.424
			c2.508,1.821,4.11,4.441,2.304,7.088C619.845,162.866,619.439,169.424,612.17,166.785z"/>
		<path fill-rule="evenodd" clip-rule="evenodd" fill="#FFFFFF" d="M641.067,152.747c4.635,2.022,3.368,4.847,1.566,8.707
			c-1.73,3.707-3.603,6.052-7.335,5.88c-2.256-0.104-2.907-1.247-2.22-3.144C634.709,159.695,635.457,154.558,641.067,152.747z"/>
		<path fill-rule="evenodd" clip-rule="evenodd" fill="#FFFFFF" d="M537.756,165.323c-0.478-6.849,4.972-13.333,10.492-12.828
			C549.572,159.944,543.741,167.167,537.756,165.323z"/>
		<path fill-rule="evenodd" clip-rule="evenodd" fill="#FFFFFF" d="M337.57,64.141c0.306-3.122,0.443-6.275,1.025-9.345
			c0.164-0.865,1.631-1.482,2.501-2.214c0.61,0.974,1.569,1.881,1.769,2.933c0.726,3.806-1.44,6.431-3.813,8.896
			C338.558,64.321,338.064,64.231,337.57,64.141z"/>
		<path fill-rule="evenodd" clip-rule="evenodd" fill="#FFFFFF" d="M247.381,124.761c-0.266,2.998,0.412,5.678-2.887,5.972
			c-3.196,0.286-5.112-1.287-5.718-4.464c-0.509-2.67-1.265-5.31-1.55-8.001c-0.242-2.289-0.369-4.857,2.653-5.729
			c3.617-1.043,5.38,1.7,6.306,4.106C247.242,119.396,247.107,122.606,247.381,124.761z"/>
		<path fill-rule="evenodd" clip-rule="evenodd" fill="#FFFFFF" d="M269.293,106.078c-2.871-2.844-2.954-8.99-0.432-11.048
			c0.455-0.371,1.717-0.508,1.989-0.203c0.85,0.953,2.18,2.399,1.93,3.243C271.979,100.786,270.552,103.317,269.293,106.078z"/>
		<path fill-rule="evenodd" clip-rule="evenodd" fill="#FFFFFF" d="M337.873,317.351c0.483,1.624,1.37,3.031,1.189,4.285
			c-0.594,4.142-2.713,7.62-6.123,10.021c-2.091,1.474-3.406,0.484-3.634-2.087C328.82,324.073,331.074,320.566,337.873,317.351z"/>
		<path fill-rule="evenodd" clip-rule="evenodd" fill="#FFFFFF" d="M284.405,321.301c0.083,3.01-4.024,9.683-6.897,10.575
			c-0.732,0.228-2.51-0.864-2.827-1.715c-1.119-3.009,1.926-9.96,4.784-11.645C282.159,316.931,284.317,318.146,284.405,321.301z"/>
		<path fill-rule="evenodd" clip-rule="evenodd" fill="#FFFFFF" d="M372.23,326.246c-1.058-3.951,0.708-7.66,3.44-8.536
			c0.48-0.154,1.467-0.012,1.592,0.271c0.299,0.676,0.581,1.79,0.234,2.242C376.013,322.163,374.299,323.927,372.23,326.246z"/>
		<path fill-rule="evenodd" clip-rule="evenodd" fill="#FFFFFF" d="M666.177,157.833c-1.513,2.544-2.935,5.468-4.896,7.969
			c-0.752,0.96-3.041,1.663-4.068,1.209c-1.136-0.502-2.268-2.452-2.286-3.787c-0.064-4.482,2.394-7.963,5.674-10.737
			c0.718-0.607,2.982-0.625,3.439-0.047C665.037,153.698,665.33,155.515,666.177,157.833z"/>
		<path fill-rule="evenodd" clip-rule="evenodd" fill="#FFFFFF" d="M567.679,152.543c-0.158,4.334-2.181,6.393-6.066,6.409
			C561.213,155.804,564.19,152.5,567.679,152.543z"/>
		<path fill-rule="evenodd" clip-rule="evenodd" fill="#FFFFFF" d="M245.279,324.988c0.126-3.243,1.655-5.651,4.676-7.015
			c0.669-0.302,1.591-0.039,2.397-0.037c-0.107,0.858,0.102,2.01-0.376,2.522c-1.804,1.938-3.832,3.668-5.776,5.476
			C245.893,325.619,245.586,325.303,245.279,324.988z"/>
		<path fill-rule="evenodd" clip-rule="evenodd" fill="#FFFFFF" d="M600.258,152.223c1.588,5.883-0.123,10.35-4.322,13.801
			c-1.004,0.827-3.262,1.319-4.189,0.745c-1.141-0.705-2.409-3.043-2.019-4.055c1.344-3.478,3.099-6.902,5.331-9.871
			C595.781,151.882,598.456,152.389,600.258,152.223z"/>
		<path fill-rule="evenodd" clip-rule="evenodd" fill="#FFFFFF" d="M717.304,158.761c1.657-5.096,3.886-6.754,7.857-6.052
			C724.519,156.942,721.753,159.155,717.304,158.761z"/>
		<path fill-rule="evenodd" clip-rule="evenodd" d="M269.797,209.77c0.376-5.583,0.231-11.357,5.978-14.815
			c2.964-1.784,7.315-0.796,9.554,1.877c5.458,6.511,4.676,14.04,2.809,21.25c-0.749,2.896-3.956,5.605-6.714,7.324
			c-1.238,0.771-4.473-0.62-6.192-1.868C270.644,220.205,269.469,215.246,269.797,209.77z M274.233,207.624
			c1.555,0.079,2.407,0.153,3.261,0.161c7.492,0.07,7.368,0.084,6.365-7.146c-0.381-2.75-1.885-3.41-4.212-3.639
			c-2.395-0.237-3.768,0.953-4.254,3.052C274.845,202.412,274.641,204.853,274.233,207.624z M274.7,210.972
			c-0.136,6.505,0.17,7.224,4.582,11.188c3.907-2.266,6.427-6.475,5.021-9.786c-1.494-3.518-5.052-0.806-7.568-1.56
			C276.202,210.653,275.548,210.893,274.7,210.972z"/>
		<path fill-rule="evenodd" clip-rule="evenodd" fill="#FFFFFF" d="M274.233,207.624c0.407-2.771,0.612-5.212,1.16-7.571
			c0.486-2.099,1.859-3.289,4.254-3.052c2.327,0.229,3.831,0.889,4.212,3.639c1.003,7.229,1.127,7.216-6.365,7.146
			C276.641,207.777,275.789,207.703,274.233,207.624z"/>
		<path fill-rule="evenodd" clip-rule="evenodd" fill="#FFFFFF" d="M274.7,210.972c0.848-0.079,1.501-0.318,2.036-0.158
			c2.516,0.754,6.074-1.958,7.568,1.56c1.406,3.312-1.114,7.521-5.021,9.786C274.87,218.195,274.564,217.477,274.7,210.972z"/>
	</g>
</g>
</svg>
