<?xml version="1.0" encoding="utf-8"?>
<!-- Generator: Adobe Illustrator 16.0.0, SVG Export Plug-In . SVG Version: 6.00 Build 0)  -->
<!DOCTYPE svg PUBLIC "-//W3C//DTD SVG 1.1//EN" "http://www.w3.org/Graphics/SVG/1.1/DTD/svg11.dtd">
<svg version="1.1" id="Layer_1" xmlns="http://www.w3.org/2000/svg" xmlns:xlink="http://www.w3.org/1999/xlink" x="0px" y="0px"
	 width="899.375px" height="279.789px" viewBox="0 0 899.375 279.789" enable-background="new 0 0 899.375 279.789"
	 xml:space="preserve">
<g>
	<g>
		<path fill-rule="evenodd" clip-rule="evenodd" fill="#FFFFFF" d="M0.75,280.539c0-93.263,0-186.526,0-279.789
			c299.792,0,599.584,0,899.376,0c0,93.263,0,186.526,0,279.789C600.334,280.539,300.542,280.539,0.75,280.539z M357.294,223.978
			c63.774,0.712,126.95,1.417,190.717,2.129c0-65.43,0-130.095,0-195.665c-1.748,1.295-3.062,2.085-4.152,3.113
			c-3.688,3.47-7.366,6.956-10.919,10.563c-5.432,5.511-10.758,11.126-16.124,16.702c-5.894,6.123-11.742,12.288-17.677,18.37
			c-7.335,7.517-14.688,15.016-22.129,22.428c-5.699,5.679-11.605,11.15-17.313,16.82c-7.336,7.286-14.574,14.669-21.836,22.028
			c-4.715,4.777-9.363,9.622-14.104,14.374c-6.178,6.191-12.451,12.291-18.623,18.49c-3.972,3.989-7.852,8.071-11.742,12.142
			c-5.625,5.884-11.103,11.913-16.864,17.66c-5.807,5.791-11.929,11.264-17.787,17.006
			C357.924,220.938,357.831,222.477,357.294,223.978z M856.2,77.25c-2.465,0.88-4.323,1.231-5.85,2.141
			c-7.825,4.66-15.49,9.587-23.351,14.183c-9.321,5.45-18.809,10.614-28.18,15.981c-10.767,6.168-21.46,12.465-32.228,18.631
			c-10.899,6.241-21.931,12.258-32.755,18.626c-7.503,4.415-14.688,9.368-22.139,13.877c-5.696,3.449-11.579,6.593-17.39,9.852
			c-4.764,2.671-9.587,5.239-14.306,7.988c-6.99,4.072-13.88,8.319-20.872,12.391c-6.039,3.515-12.218,6.792-18.205,10.393
			c-1.398,0.84-2.271,2.556-3.386,3.868c1.653,0.318,3.306,0.643,4.962,0.948c0.24,0.044,0.499-0.021,0.748-0.015
			c13.826,0.338,27.651,0.741,41.479,1c14.577,0.272,29.157,0.492,43.738,0.582c17.934,0.111,35.87-0.017,53.804,0.106
			c22.969,0.157,45.938,0.433,68.905,0.736c3.274,0.043,4.805-0.6,4.797-4.534c-0.068-34.472,0.121-68.944,0.223-103.416
			C856.219,93.132,856.2,85.673,856.2,77.25z M97.174,201.213c4.125,0.206,6.993,0.447,9.862,0.475
			c11.825,0.108,23.651,0.081,35.475,0.249c5.948,0.084,11.89,0.646,17.837,0.692c7.181,0.058,14.367-0.362,21.547-0.279
			c7.589,0.088,15.181,0.404,22.756,0.869c2.888,0.178,4.188-1.064,4.603-3.602c0.281-1.716,0.423-3.472,0.431-5.21
			c0.019-4.972-0.131-9.943-0.091-14.914c0.124-15.21,0.354-30.419,0.454-45.63c0.169-25.974,0.287-51.948,0.373-77.923
			c0.007-2.101-0.394-4.203-0.604-6.306c-0.443-0.115-0.886-0.23-1.329-0.346C171.639,99.581,134.79,149.874,97.174,201.213z
			 M390.776,116.897c0.895,2.023,1.883,4.659,3.23,7.095c0.502,0.909,1.845,1.353,2.804,2.009c0.518-0.875,1.273-1.688,1.518-2.633
			c2.313-8.945,4.451-17.937,6.904-26.841c0.304-1.103,2.111-2.453,3.298-2.531c4.478-0.295,8.989-0.047,13.483-0.166
			c0.886-0.023,1.754-0.773,2.629-1.189c-0.847-0.476-1.686-1.345-2.542-1.364c-5.243-0.115-10.498-0.175-15.732,0.082
			c-1.17,0.057-2.918,1.226-3.291,2.276c-1.144,3.223-1.776,6.631-2.555,9.979c-1.19,5.121-2.337,10.251-3.771,16.563
			c-1.541-2.633-2.438-4.602-3.748-6.24c-0.775-0.97-2.338-2.11-3.302-1.922c-1.17,0.228-2.084,1.775-3.109,2.752
			C387.75,115.358,388.91,115.948,390.776,116.897z M745.754,225.08c-0.072-0.536-0.144-1.073-0.215-1.611
			c-6.398,0-12.798-0.042-19.193,0.073c-0.578,0.011-1.488,0.964-1.647,1.623c-0.939,3.909-1.68,7.865-2.532,11.796
			c-1.021,4.706-2.085,9.401-3.359,15.132c-1.457-2.61-2.331-4.411-3.435-6.059c-0.615-0.918-1.731-2.319-2.411-2.209
			c-1.466,0.238-2.826,1.268-4.128,2.126c-0.107,0.071,0.647,1.938,0.844,1.908c4.31-0.641,3.989,3.377,5.618,5.417
			c0.999,1.25,2.174,2.358,3.27,3.529c0.968-1.393,2.346-2.662,2.808-4.206c0.738-2.469,0.69-5.162,1.291-7.684
			c1.289-5.419,3.078-10.735,4.055-16.201c0.451-2.523,1.378-3.077,3.552-3.031c3.988,0.086,7.98,0.109,11.97,0.045
			C743.413,225.71,744.582,225.308,745.754,225.08z M13.861,36.188c1.381-0.813,4.045-1.703,5.58-3.538
			c0.926-1.107,0.874-4.568-0.099-5.419c-2.247-1.968-5.349-2.939-8.044-4.423c-0.985-0.542-1.801-1.392-2.694-2.102
			c1.105-0.867,2.241-2.472,3.307-2.426c1.596,0.069,3.104,1.404,4.725,1.994c1.039,0.377,2.213,0.382,3.327,0.554
			c-0.336-0.975-0.428-2.178-1.069-2.871c-0.9-0.972-2.188-1.6-3.347-2.314c-4.104-2.526-9.943,0.284-9.97,5.012
			c-0.008,1.372,1.141,3.286,2.333,4.01c2.141,1.3,4.782,1.748,7.074,2.843c0.902,0.432,2.013,1.677,1.967,2.494
			c-0.047,0.841-1.314,2.196-2.173,2.301c-2.642,0.32-5.548,0.749-6.725-2.854c-0.22-0.675-1.294-1.07-1.974-1.595
			c-0.328,0.859-0.967,1.734-0.927,2.576C5.277,33.151,9.423,36.167,13.861,36.188z M163.406,36.85
			c-0.267,0.842-0.739,1.722-0.564,1.876c1.569,1.399,3.125,3.45,4.94,3.749c1.629,0.268,4.284-0.944,5.267-2.354
			c3.794-5.443,0.899-11.666,1.975-17.513c-10.728-0.406-12.592,0.354-12.801,5.95c-0.078,2.092,0.885,4.85,2.374,6.205
			c1.621,1.475,4.404,1.674,6.624,2.41C169.606,39.777,168.354,39.808,163.406,36.85z M23.441,21.293c0,6.332,0,12.619,0,19.059
			c0.467,0.065,1.294,0.289,1.348,0.169c0.834-1.876,1.569-3.796,2.285-5.601c1.42,0.35,2.893,1.227,3.966,0.878
			c3.156-1.026,5.468-4.87,4.979-8.934c-0.482-4.004-2.953-6.155-6.822-5.944C27.372,21.019,25.548,21.155,23.441,21.293z
			 M142.673,26.585c-2.357,0.48-3.883,0.798-5.412,1.1c-3.364,0.667-5.013,2.664-4.468,5.423c0.579,2.927,3.335,4.379,6.69,3.54
			c1.637-0.409,3.28-0.791,5.243-1.262c0-3.46,0.067-7.175-0.062-10.883c-0.023-0.679-0.727-1.468-1.316-1.973
			c-2.832-2.421-5.585-1.637-8.444,0.157c-2.135,1.339-2.008,2.639-0.681,4.429C137.489,24.092,138.863,23.902,142.673,26.585z
			 M80.903,26.769c-1.479,0.209-3.096,0.097-4.37,0.703c-1.638,0.781-3.734,1.877-4.252,3.33c-0.424,1.19,0.784,3.581,1.986,4.55
			c1.083,0.873,3.154,0.777,4.762,0.675c1.822-0.116,3.614-0.715,5.822-1.191c0-2.26,0.298-5.277-0.107-8.195
			c-0.258-1.854-1.133-4.45-2.504-5.111c-1.683-0.811-4.283-0.305-6.271,0.319c-1.224,0.385-2.044,2.056-3.046,3.149
			c0.393,0.379,0.786,0.759,1.179,1.139c1.242-0.943,2.365-2.385,3.752-2.714C80.117,22.885,81.33,24.188,80.903,26.769z
			 M229.684,149.26c0,1.891-0.44,3.897,0.08,4.188c1.819,1.02,2.73-0.3,3.506-2.003c0.652-1.434,1.9-2.598,2.51-3.393
			c-0.208-1.878-0.785-3.501-0.457-4.915c0.617-2.67,1.756-5.22,2.677-7.82c-0.33-0.268-0.66-0.535-0.99-0.802
			c-5.727,3.02-9.247,8.446-14.229,13.669c1.987,0.273,3.028,0.398,4.061,0.563C227.92,148.922,228.991,149.134,229.684,149.26z
			 M49.845,29.225c0.965-5.039,0.402-6.685-2.487-8.011c-2.169-0.996-7.945,0.134-8.243,2.123c-0.51,3.401-0.78,7.292,0.42,10.364
			c1.143,2.929,5.544,3.202,8.075,1.555c2.953-1.92,3.021-2.103,1.915-5.088c-6.005,3.775-7.838,3.616-8.079-0.944
			C44.186,29.225,46.914,29.225,49.845,29.225z M724.373,108.773c0.929,0.1,1.418,0.267,1.856,0.179
			c1.728-0.346,3.44-0.772,5.157-1.168c-0.218,2.145-0.348,4.306-0.716,6.425c-0.095,0.542-0.952,0.946-1.446,1.427
			c-2.34,2.268-4.787,4.44-6.931,6.881c-0.535,0.609-0.08,2.087-0.08,2.944c2.012,0,3.422-0.249,4.707,0.048
			c3.718,0.858,5.608-0.627,5.9-5.018c-1.749,0.346-3.477,0.687-5.327,1.052c3.018-4.233,5.8-7.966,8.333-11.861
			c0.411-0.632,0.084-2.358-0.518-2.939C731.202,102.785,728.699,103.211,724.373,108.773z M125.093,110.175
			c-0.02-0.372-0.04-0.743-0.06-1.114c1.369,0,2.763,0.157,4.097-0.059c0.797-0.129,1.5-0.842,2.246-1.292
			c-0.671-0.557-1.258-1.365-2.029-1.625c-3.137-1.061-5.428,0.114-6.598,3.065c-0.478,1.203-1.199,2.308-1.912,3.654
			c1.13,0.751,2.07,1.625,3.183,2.066c2.808,1.117,3.537,3.368,2.339,5.635c-1.063,2.012-2.519,5.115-5.912,2.221
			c-0.365-0.312-2.237,0.281-2.32,0.68c-0.184,0.89,0.384,2.782,0.535,2.771c2.613-0.192,6.087,0.322,7.652-1.148
			C132.14,119.553,131.436,114.189,125.093,110.175z M195.893,32.197c-1.98,0.584-3.671,1.305-5.427,1.546
			c-2.321,0.32-3.851-0.65-3.755-3.534c3.405-0.222,6.728-0.438,10.233-0.667c-2.51-7.131-3.789-8.047-9.096-7.053
			c-3.281,0.616-4.33,2.659-4.073,7.938c0.19,3.901,1.989,6.101,5.224,6.349C192.222,37.024,195.394,37.162,195.893,32.197z
			 M152.873,221.278c0.301,0.402,0.603,0.806,0.904,1.208c-1.198,1.096-2.235,2.509-3.63,3.215c-2.153,1.091-2.08,1.451-0.367,3.218
			c1.211,1.249,1.053,3.828,1.506,5.813c-1.407,0.292-2.804,0.651-4.224,0.852c-0.848,0.12-1.971-0.334-2.527,0.074
			c-0.496,0.364-0.785,1.863-0.443,2.313c0.501,0.66,1.645,1.149,2.517,1.152c2.873,0.011,5.659-0.183,7.376-3.213
			c1.734-3.062,2.235-5.935,0.559-7.917c0.893-3.03,1.974-5.333,2.006-7.65c0.009-0.682-2.947-1.924-4.555-1.94
			c-1.234-0.013-2.484,1.494-3.727,2.324c0.215,0.267,0.43,0.533,0.645,0.8C150.233,221.444,151.553,221.361,152.873,221.278z
			 M732.87,242.981c1.524,1.163,3.304,1.871,3.852,3.12c0.561,1.279,0.484,3.644-0.361,4.511c-0.901,0.925-3.044,0.592-4.618,0.926
			c-1.031,0.218-2.018,0.646-3.022,0.981c0.387,0.633,0.661,1.691,1.18,1.829c3.112,0.826,6.507,1.067,8.467-1.872
			c1.561-2.341,4.613-4.978,1.316-8.36c-0.451-0.463-0.464-1.356-0.68-2.051c0.414,0.055,0.828,0.11,1.243,0.166
			c0.51-2.13,1.391-4.266,1.35-6.385c-0.017-0.854-2.023-2.304-3.17-2.35c-1.604-0.063-3.248,0.935-4.875,1.477
			c0.103,0.389,0.205,0.776,0.308,1.163c1.539,0.228,3.078,0.455,4.638,0.684C740.196,242.149,733.883,240.062,732.87,242.981z
			 M412.307,120.091c0.414-1.219,0.436-1.639,0.656-1.877c2.087-2.255,4.602-4.234,6.19-6.792c1.221-1.965,2.85-4.499,0.662-7.108
			c-2.781-3.316-5.323-2.964-10.308,2.059c1.611,0,2.611-0.088,3.589,0.021c1.402,0.156,2.788,0.458,4.181,0.696
			c-0.338,1.471-0.233,3.309-1.092,4.347c-2.939,3.554-6.217,6.826-10.037,10.927c3.998,0,7.433,0.113,10.84-0.14
			c0.441-0.033,0.741-1.965,1.042-2.835C416.049,119.631,414.435,119.83,412.307,120.091z M201.628,26.345
			c0.175-0.595,0.35-1.189,0.525-1.784c1.274,0.387,2.572,0.709,3.811,1.186c0.708,0.272,1.319,0.794,1.973,1.204
			c0.359-0.594,1.11-1.286,0.992-1.762c-0.217-0.874-0.792-2.09-1.494-2.321c-1.374-0.452-2.937-0.333-4.423-0.434
			c-2.225-0.151-4.056,0.301-4.04,3.05c0.015,2.259,0.588,3.996,3.3,4.597c1.567,0.347,2.923,1.644,4.375,2.513
			c-0.274,0.53-0.548,1.061-0.821,1.591c-1.427-0.557-2.84-1.152-4.285-1.657c-0.731-0.256-1.52-0.35-2.282-0.517
			c-0.015,0.773-0.246,1.62-0.009,2.307c1.133,3.296,3.951,2.719,6.497,2.637c2.667-0.086,3.891-1.839,4.387-4.169
			c0.699-3.289-2.258-3.729-4.127-4.843C204.696,27.16,203.098,26.859,201.628,26.345z M64.643,29.548
			c-0.87,0.83-1.45,1.666-2.248,2.076c-1.158,0.594-2.648,1.482-3.688,1.18c-2.535-0.735-3.787-4.661-2.306-7.126
			c1.423-2.369,3.455-2.554,5.791-0.88c0.667,0.478,1.895,0.172,2.866,0.225c-0.44-0.879-0.67-2.002-1.357-2.596
			c-2.977-2.574-7.007-1.801-9.844,1.312c-2.355,2.583-1.59,9.104,1.029,10.219c2.246,0.956,4.897,2.105,7.081,1.684
			C63.583,35.33,66.501,33.62,64.643,29.548z M148.57,22.909c0,4.296,0,8.809,0,13.323c0.324,0.129,0.648,0.258,0.972,0.388
			c0.498-0.836,1.316-1.629,1.43-2.514c0.3-2.333,0.096-4.742,0.512-7.044c0.159-0.882,1.382-2.045,2.26-2.183
			c0.782-0.122,2.398,0.875,2.533,1.587c0.469,2.481,0.367,5.063,0.67,7.584c0.104,0.858,0.763,1.647,1.169,2.469
			c0.629-0.565,1.774-1.107,1.801-1.701c0.141-3.095,0.211-6.225-0.108-9.299c-0.295-2.831-3.206-4.748-5.538-4.097
			C152.547,21.902,150.809,22.327,148.57,22.909z M100.316,18.581c2.242,0.132,4.172,0.245,6.316,0.371
			c0,5.111-0.084,9.838,0.069,14.557c0.032,0.964,0.953,1.899,1.464,2.848c0.481-0.983,1.283-1.938,1.378-2.958
			c0.221-2.353,0.091-4.739,0.119-7.111c0.08-6.855,0.083-6.855,7.419-8.101c-1.4-1.019-2.135-2.012-2.933-2.065
			C104.084,15.456,101.221,15.929,100.316,18.581z M879.375,140.256c1.67,7.975-3.951,13.797-5.001,20.596
			c1.738,0,3.046,0.289,4.112-0.094c0.83-0.298,1.73-1.336,1.957-2.211c0.641-2.479,0.862-5.062,1.41-7.568
			c0.813-3.722,1.764-7.413,2.797-11.702C882.263,139.72,880.599,140.028,879.375,140.256z M457.595,248.802
			c-2.587,0.626-4.361,1.054-6.363,1.538c2.708,3.652,0.502,11.647-5.053,19.219c2.529,0,4.681,0,6.044,0
			C454.004,262.677,455.694,256.143,457.595,248.802z M177.799,37.295c1.637-0.978,3.314-1.486,3.343-2.074
			c0.271-5.573,0.326-11.161,0.245-16.742c-0.009-0.633-1.236-1.249-1.898-1.873c-0.563,0.657-1.601,1.304-1.615,1.972
			C177.745,24.504,177.799,30.434,177.799,37.295z M87.73,25.556c0.005,0,0.011,0,0.017,0c0,2.481-0.167,4.979,0.077,7.437
			c0.105,1.06,1.058,2.038,1.625,3.052c0.67-0.984,1.874-1.945,1.919-2.957c0.218-4.952,0.199-9.92,0.074-14.878
			c-0.021-0.81-0.993-1.596-1.525-2.393c-0.729,0.764-1.99,1.467-2.086,2.304C87.548,20.571,87.73,23.074,87.73,25.556z
			 M570.833,135.092c1.646-7.019,3.155-13.458,4.795-20.448c-1.903,0.369-3.605,0.699-4.884,0.947
			c1.388,7.19-2.596,12.943-4.041,19.5C568.484,135.092,569.895,135.092,570.833,135.092z M117.702,22.749
			c0,3.573-0.08,7.157,0.056,10.732c0.034,0.913,0.75,1.8,1.154,2.699c0.618-0.896,1.689-1.753,1.769-2.694
			c0.238-2.8,0.085-5.632,0.085-8.391c1.089-0.257,1.709-0.341,2.281-0.554c0.734-0.272,1.866-0.505,2.032-1.013
			c0.206-0.632-0.185-1.817-0.723-2.22c-0.427-0.318-1.473,0.151-2.231,0.327C120.867,21.926,119.619,22.262,117.702,22.749z
			 M126.763,37.25c1.801-1.162,3.478-1.709,3.519-2.359c0.234-3.677,0.194-7.388-0.053-11.067c-0.047-0.705-1.43-1.321-2.197-1.977
			c-0.423,0.645-1.194,1.282-1.212,1.939C126.707,27.862,126.763,31.945,126.763,37.25z M68.472,36.157
			c1.273-1.766,2.259-13.041,1.294-14.317c-0.296-0.393-1.239-0.826-1.423-0.675c-0.501,0.411-1.055,1.122-1.058,1.716
			c-0.021,3.961,0.067,7.924,0.212,11.883C67.514,35.218,68.101,35.649,68.472,36.157z"/>
		<path fill-rule="evenodd" clip-rule="evenodd" d="M357.294,223.978c0.537-1.501,0.63-3.039,1.446-3.84
			c5.858-5.742,11.98-11.215,17.787-17.006c5.761-5.747,11.24-11.776,16.864-17.66c3.89-4.07,7.771-8.152,11.742-12.142
			c6.172-6.199,12.445-12.299,18.623-18.49c4.741-4.752,9.389-9.597,14.104-14.374c7.262-7.359,14.5-14.743,21.836-22.028
			c5.708-5.67,11.614-11.142,17.313-16.82c7.44-7.412,14.794-14.911,22.129-22.428c5.935-6.082,11.783-12.247,17.677-18.37
			c5.366-5.576,10.692-11.191,16.124-16.702c3.553-3.607,7.231-7.093,10.919-10.563c1.091-1.027,2.404-1.817,4.152-3.113
			c0,65.57,0,130.235,0,195.665C484.244,225.395,421.068,224.689,357.294,223.978z M498.688,84.538
			c-27.399,27.174-54.083,53.639-80.767,80.104c0.121,0.369,0.243,0.738,0.364,1.107c6.175,0,12.35,0,18.525,0
			c0.053,0.428,0.104,0.856,0.157,1.284c-1.554,0.551-3.074,1.24-4.668,1.622c-2.574,0.615-1.903,1.938-0.692,3.139
			c3.387,3.359,7.182,6.353,10.263,9.963c4.079,4.776,7.373,10.131,8.923,16.374c0.932,3.748,1.982,7.465,3.114,11.7
			c1.851-2.103,3.548-4.03,5.243-5.957c0.34,0.186,0.68,0.372,1.021,0.558c-1.849,5.735-3.698,11.47-5.771,17.899
			c22.914,0,44.768,0,66.922,0c0-7.997,0.088-15.486-0.041-22.972c-0.056-3.224,1.218-4.509,4.418-4.414
			c5.243,0.154,10.498-0.025,15.738,0.178c2.846,0.11,3.948-0.689,3.934-3.748c-0.105-21.119-0.036-42.239-0.046-63.36
			c0-0.581-0.247-1.162-0.438-2.008c-7.188,0.843-14.232,1.669-21.277,2.496c-0.044-0.333-0.088-0.665-0.132-0.999
			c2.057-1.355,4.114-2.71,6.612-4.357c-11.874-5.77-21.041-13.617-27.208-25.387c-1.269,2.605-2.263,4.646-3.257,6.688
			c-0.313-0.119-0.625-0.237-0.938-0.354C498.688,97.888,498.688,91.684,498.688,84.538z M433.781,179.094
			c-1.039,0.066-1.797,0.357-2.143,0.099c-4.263-3.189-8.441-6.491-12.694-9.695c-2.165-1.631-4.342-2.708-6.036,0.697
			c-0.365,0.733-1.148,1.265-1.757,1.871c-6.008,5.991-12.109,11.894-18.005,17.993c-5.5,5.69-10.608,11.765-16.217,17.34
			c-4.476,4.45-9.446,8.401-14.196,12.573c0.164,0.41,0.329,0.82,0.494,1.23c28.91,0,57.819,0,87.262,0
			c-2.054-5.56-4.116-11.138-6.177-16.717c0.373-0.153,0.746-0.307,1.119-0.461c1.57,1.399,3.14,2.798,5.148,4.588
			c0.509-9.703-13.565-33.296-18.994-33.244C432.252,176.501,432.911,177.619,433.781,179.094z M506.549,97.524
			c0.313,6.077,12.353,17.432,22.426,22.491c-1.371-2.396-2.34-4.089-3.31-5.783c0.228-0.201,0.456-0.404,0.684-0.606
			c6.141,3.441,12.282,6.881,19.092,10.696c0-29.772,0-58.542,0-87.944c-8.573,8.59-16.566,16.557-24.512,24.57
			c-6.357,6.411-12.711,12.83-18.911,19.391c-0.691,0.731-0.855,2.634-0.416,3.613c0.813,1.815,2.218,3.376,3.44,4.995
			c2.601,3.443,5.241,6.854,7.866,10.279c-0.155,0.285-0.311,0.57-0.466,0.856C510.591,99.278,508.74,98.476,506.549,97.524z
			 M524.932,199.045c0,7.251-0.1,14.22,0.118,21.179c0.029,0.939,1.62,2.573,2.548,2.617c4.961,0.235,9.946,0.167,14.911-0.051
			c0.901-0.04,2.492-1.245,2.511-1.945c0.187-7.176,0.114-14.358,0.114-21.8C538.284,199.045,531.857,199.045,524.932,199.045z"/>
		<path fill-rule="evenodd" clip-rule="evenodd" d="M856.2,77.25c0,8.422,0.019,15.881-0.004,23.34
			c-0.102,34.472-0.291,68.944-0.223,103.416c0.008,3.935-1.522,4.577-4.797,4.534c-22.968-0.304-45.937-0.579-68.905-0.736
			c-17.934-0.123-35.87,0.005-53.804-0.106c-14.581-0.09-29.161-0.31-43.738-0.582c-13.827-0.259-27.652-0.662-41.479-1
			c-0.249-0.006-0.508,0.059-0.748,0.015c-1.656-0.306-3.309-0.63-4.962-0.948c1.114-1.313,1.987-3.028,3.386-3.868
			c5.987-3.601,12.166-6.878,18.205-10.393c6.992-4.071,13.882-8.318,20.872-12.391c4.719-2.749,9.542-5.317,14.306-7.988
			c5.811-3.259,11.693-6.402,17.39-9.852c7.45-4.509,14.636-9.462,22.139-13.877c10.824-6.368,21.855-12.385,32.755-18.626
			c10.768-6.167,21.461-12.463,32.228-18.631c9.371-5.368,18.858-10.531,28.18-15.981c7.86-4.596,15.525-9.523,23.351-14.183
			C851.877,78.482,853.735,78.13,856.2,77.25z M778.38,204.913c5.604,0,10.043-0.039,14.48,0.007
			c11.349,0.12,22.699,0.219,34.047,0.465c2.68,0.058,3.831-0.61,3.667-3.545c-0.258-4.607,0.026-9.244-0.179-13.855
			c-0.149-3.333,1.276-4.379,4.433-4.294c5.705,0.154,11.416,0.044,17.345,0.044c0.561-34.176,1.115-67.99,1.682-102.495
			c-38.036,21.969-75.158,43.409-112.278,64.848c0.146,0.433,0.293,0.864,0.439,1.297c6.438,0,12.877,0,19.315,0
			c0.105,0.421,0.21,0.842,0.315,1.262c-2.268,1.111-4.534,2.221-6.18,3.027c4.967,5.856,10.278,11.378,14.702,17.539
			c4.606,6.416,6.237,14.186,7.381,21.986c0.532,0.37,1.063,0.74,1.596,1.11c1.137-2.22,2.273-4.439,3.411-6.66
			c0.524,0.412,1.049,0.823,1.574,1.234C782.294,192.641,780.457,198.398,778.38,204.913z M757.16,161.482
			c-0.317,0.151-0.635,0.304-0.953,0.455c-0.789-0.335-1.714-0.508-2.346-1.033c-4.385-3.652-8.611-7.503-13.123-10.989
			c-1.073-0.829-3.433-1.228-4.516-0.615c-7.932,4.481-15.676,9.297-23.52,13.938c-1.041,0.616-2.43,0.649-3.464,1.275
			c-7.087,4.285-14.065,8.752-21.19,12.975c-7.482,4.433-15.111,8.617-22.631,12.987c-5.427,3.153-10.79,6.416-16.158,9.67
			c-1.096,0.664-2.082,1.508-3.118,2.269c0.126,0.28,0.252,0.561,0.378,0.841c42.56,0.378,85.119,0.756,128.537,1.141
			c-2.261-6.323-4.337-12.131-6.413-17.94c0.302-0.165,0.604-0.331,0.905-0.497c1.629,1.357,3.258,2.715,4.984,4.152
			c1.784-9.172-14.542-33.591-19.224-33.625C755.905,158.094,756.533,159.788,757.16,161.482z M834.342,186.82
			c0,6.291,0,12.194,0,18.298c5.991,0,11.755,0,17.679,0c0-6.215,0-12.12,0-18.298C846.104,186.82,840.425,186.82,834.342,186.82z"
			/>
		<path fill-rule="evenodd" clip-rule="evenodd" d="M97.174,201.213c37.616-51.339,74.465-101.632,111.314-151.924
			c0.443,0.115,0.886,0.231,1.329,0.346c0.21,2.103,0.611,4.205,0.604,6.306c-0.086,25.975-0.204,51.949-0.373,77.923
			c-0.1,15.211-0.33,30.42-0.454,45.63c-0.04,4.971,0.11,9.942,0.091,14.914c-0.007,1.738-0.15,3.494-0.431,5.21
			c-0.415,2.537-1.715,3.779-4.603,3.602c-7.575-0.465-15.167-0.781-22.756-0.869c-7.181-0.083-14.366,0.337-21.547,0.279
			c-5.947-0.047-11.889-0.608-17.837-0.692c-11.824-0.168-23.65-0.141-35.475-0.249C104.167,201.66,101.299,201.419,97.174,201.213z
			 M103.459,197.688c0.233,0.347,0.466,0.693,0.699,1.039c26.71,0,53.421,0,80.355,0c0-5.089,0.011-10.066-0.003-15.045
			c-0.017-5.986,0.156-6.128,6.042-6.06c5.179,0.062,10.359,0.014,16.278,0.014c0-40.247,0-79.873,0-119.497
			c-0.229-0.146-0.458-0.292-0.687-0.438C171.916,104.363,137.687,151.026,103.459,197.688z M206.101,181.406
			c-6.182,0-11.922,0-17.928,0c0,6.25,0,11.885,0,17.59c6.266,0,12.054,0,17.928,0C206.101,193.039,206.101,187.478,206.101,181.406
			z"/>
		<path fill-rule="evenodd" clip-rule="evenodd" d="M390.776,116.897c-1.866-0.95-3.025-1.54-4.184-2.13
			c1.025-0.977,1.938-2.524,3.109-2.752c0.964-0.188,2.527,0.952,3.302,1.922c1.31,1.638,2.207,3.606,3.748,6.24
			c1.434-6.312,2.58-11.442,3.771-16.563c0.779-3.348,1.412-6.755,2.555-9.979c0.373-1.05,2.121-2.219,3.291-2.276
			c5.235-0.257,10.489-0.197,15.732-0.082c0.857,0.019,1.696,0.888,2.542,1.364c-0.875,0.416-1.743,1.166-2.629,1.189
			c-4.494,0.119-9.006-0.13-13.483,0.166c-1.187,0.078-2.994,1.428-3.298,2.531c-2.453,8.905-4.591,17.896-6.904,26.841
			c-0.245,0.945-1,1.759-1.518,2.633c-0.959-0.656-2.302-1.1-2.804-2.009C392.659,121.557,391.671,118.921,390.776,116.897z"/>
		<path fill-rule="evenodd" clip-rule="evenodd" d="M745.754,225.08c-1.172,0.228-2.341,0.63-3.515,0.648
			c-3.989,0.064-7.981,0.041-11.97-0.045c-2.174-0.046-3.101,0.508-3.552,3.031c-0.977,5.466-2.766,10.782-4.055,16.201
			c-0.601,2.521-0.553,5.215-1.291,7.684c-0.462,1.544-1.84,2.813-2.808,4.206c-1.096-1.171-2.271-2.279-3.27-3.529
			c-1.629-2.04-1.309-6.058-5.618-5.417c-0.196,0.029-0.951-1.837-0.844-1.908c1.302-0.858,2.662-1.888,4.128-2.126
			c0.68-0.11,1.796,1.291,2.411,2.209c1.104,1.647,1.978,3.448,3.435,6.059c1.274-5.73,2.339-10.426,3.359-15.132
			c0.853-3.931,1.593-7.887,2.532-11.796c0.159-0.659,1.069-1.612,1.647-1.623c6.396-0.115,12.795-0.073,19.193-0.073
			C745.61,224.007,745.682,224.544,745.754,225.08z"/>
		<path fill-rule="evenodd" clip-rule="evenodd" d="M13.861,36.188c-4.438-0.021-8.583-3.037-8.71-5.758
			c-0.04-0.842,0.599-1.717,0.927-2.576c0.68,0.524,1.754,0.92,1.974,1.595c1.177,3.603,4.083,3.174,6.725,2.854
			c0.858-0.105,2.126-1.46,2.173-2.301c0.045-0.816-1.065-2.062-1.967-2.494c-2.292-1.095-4.934-1.543-7.074-2.843
			c-1.191-0.724-2.341-2.639-2.333-4.01c0.027-4.728,5.866-7.538,9.97-5.012c1.16,0.714,2.447,1.342,3.347,2.314
			c0.642,0.693,0.733,1.896,1.069,2.871c-1.113-0.172-2.288-0.177-3.327-0.554c-1.621-0.59-3.128-1.925-4.725-1.994
			c-1.066-0.045-2.202,1.56-3.307,2.426c0.893,0.71,1.709,1.56,2.694,2.102c2.695,1.484,5.797,2.456,8.044,4.423
			c0.972,0.851,1.025,4.312,0.099,5.419C17.906,34.485,15.242,35.375,13.861,36.188z"/>
		<path fill-rule="evenodd" clip-rule="evenodd" d="M163.406,36.85c4.948,2.958,6.2,2.927,7.813,0.323
			c-2.219-0.736-5.002-0.935-6.624-2.41c-1.489-1.355-2.452-4.113-2.374-6.205c0.209-5.596,2.073-6.355,12.801-5.95
			c-1.075,5.848,1.82,12.07-1.975,17.513c-0.982,1.409-3.638,2.621-5.267,2.354c-1.816-0.299-3.371-2.35-4.94-3.749
			C162.667,38.571,163.139,37.692,163.406,36.85z M164.005,29.018c2.061,2.103,3.206,4.309,4.655,4.532
			c3.02,0.464,3.437-2.734,3.406-4.603c-0.027-1.63-0.594-4.725-3.459-4.057C167.106,25.241,165.975,27.171,164.005,29.018z"/>
		<path fill-rule="evenodd" clip-rule="evenodd" d="M23.441,21.293c2.107-0.138,3.93-0.274,5.756-0.374
			c3.869-0.21,6.34,1.94,6.822,5.944c0.489,4.064-1.823,7.908-4.979,8.934c-1.073,0.349-2.546-0.528-3.966-0.878
			c-0.716,1.805-1.451,3.725-2.285,5.601c-0.054,0.12-0.88-0.104-1.348-0.169C23.441,33.912,23.441,27.625,23.441,21.293z
			 M34.105,27.75c-2.042-1.976-3.332-3.224-4.622-4.472c-1.018,1.62-2.615,3.147-2.896,4.887c-0.306,1.888,0.051,4.854,3.131,4.142
			C31.154,31.974,32.175,29.847,34.105,27.75z"/>
		<path fill-rule="evenodd" clip-rule="evenodd" d="M142.673,26.585c-3.81-2.683-5.184-2.494-8.449,0.53
			c-1.327-1.79-1.454-3.09,0.681-4.429c2.858-1.794,5.612-2.578,8.444-0.157c0.589,0.505,1.293,1.293,1.316,1.973
			c0.129,3.708,0.062,7.423,0.062,10.883c-1.962,0.472-3.606,0.853-5.243,1.262c-3.355,0.839-6.112-0.613-6.69-3.54
			c-0.545-2.759,1.104-4.756,4.468-5.423C138.79,27.383,140.315,27.065,142.673,26.585z M140.932,28.995
			c-1.721,0.917-3.441,1.833-5.163,2.75c0.723,0.662,1.4,1.823,2.178,1.896C140.445,33.875,141.632,32.415,140.932,28.995z"/>
		<path fill-rule="evenodd" clip-rule="evenodd" d="M80.903,26.769c0.426-2.58-0.787-3.884-3.05-3.346
			c-1.387,0.33-2.51,1.771-3.752,2.714c-0.393-0.38-0.786-0.76-1.179-1.139c1.001-1.094,1.822-2.764,3.046-3.149
			c1.988-0.625,4.588-1.13,6.271-0.319c1.371,0.661,2.247,3.257,2.504,5.111c0.405,2.918,0.107,5.935,0.107,8.195
			c-2.208,0.477-4,1.076-5.822,1.191c-1.608,0.103-3.68,0.198-4.762-0.675c-1.202-0.97-2.41-3.36-1.986-4.55
			c0.519-1.453,2.615-2.548,4.252-3.33C77.808,26.865,79.425,26.978,80.903,26.769z M81.668,30.472
			c-0.347-0.431-0.695-0.862-1.042-1.293c-1.528,0.324-3.057,0.647-5.662,1.199c1.227,1.402,2.444,3.181,2.719,3.045
			C79.142,32.704,80.364,31.505,81.668,30.472z"/>
		<path fill-rule="evenodd" clip-rule="evenodd" d="M229.684,149.26c-0.693-0.126-1.764-0.338-2.841-0.512
			c-1.033-0.165-2.073-0.29-4.061-0.563c4.981-5.223,8.502-10.649,14.229-13.669c0.33,0.268,0.66,0.535,0.99,0.802
			c-0.921,2.6-2.06,5.15-2.677,7.82c-0.328,1.414,0.25,3.037,0.457,4.915c-0.61,0.795-1.858,1.959-2.51,3.393
			c-0.776,1.703-1.687,3.022-3.506,2.003C229.243,153.157,229.684,151.15,229.684,149.26z"/>
		<path fill-rule="evenodd" clip-rule="evenodd" d="M49.845,29.225c-2.931,0-5.659,0-8.398,0c0.241,4.56,2.074,4.719,8.079,0.944
			c1.106,2.985,1.038,3.167-1.915,5.088c-2.531,1.647-6.932,1.374-8.075-1.555c-1.2-3.072-0.93-6.963-0.42-10.364
			c0.298-1.989,6.073-3.119,8.243-2.123C50.247,22.54,50.81,24.186,49.845,29.225z M40.854,25.319
			c0.186,0.529,0.372,1.058,0.558,1.586c1.193,0,2.421,0.177,3.567-0.056c0.905-0.185,1.708-0.872,2.556-1.335
			c-0.882-0.748-1.835-2.175-2.631-2.093C43.503,23.567,42.199,24.636,40.854,25.319z"/>
		<path fill-rule="evenodd" clip-rule="evenodd" d="M724.373,108.773c4.326-5.563,6.829-5.989,10.937-2.03
			c0.602,0.581,0.929,2.307,0.518,2.939c-2.533,3.895-5.315,7.628-8.333,11.861c1.851-0.366,3.578-0.707,5.327-1.052
			c-0.292,4.391-2.183,5.876-5.9,5.018c-1.285-0.297-2.695-0.048-4.707-0.048c0-0.857-0.455-2.334,0.08-2.944
			c2.144-2.441,4.591-4.613,6.931-6.881c0.494-0.48,1.352-0.884,1.446-1.427c0.368-2.12,0.498-4.28,0.716-6.425
			c-1.717,0.396-3.43,0.823-5.157,1.168C725.791,109.041,725.302,108.873,724.373,108.773z"/>
		<path fill-rule="evenodd" clip-rule="evenodd" d="M125.093,110.175c6.342,4.014,7.046,9.378,1.219,14.852
			c-1.565,1.471-5.039,0.957-7.652,1.148c-0.151,0.011-0.719-1.88-0.535-2.771c0.083-0.399,1.955-0.991,2.32-0.68
			c3.393,2.894,4.849-0.209,5.912-2.221c1.198-2.268,0.469-4.519-2.339-5.635c-1.112-0.441-2.053-1.315-3.183-2.066
			c0.713-1.346,1.435-2.451,1.912-3.654c1.17-2.951,3.461-4.125,6.598-3.065c0.771,0.261,1.358,1.069,2.029,1.625
			c-0.746,0.451-1.448,1.164-2.246,1.292c-1.333,0.216-2.728,0.059-4.097,0.059C125.054,109.433,125.073,109.804,125.093,110.175z"
			/>
		<path fill-rule="evenodd" clip-rule="evenodd" d="M195.893,32.197c-0.5,4.964-3.671,4.827-6.893,4.58
			c-3.235-0.248-5.034-2.448-5.224-6.349c-0.257-5.279,0.792-7.323,4.073-7.938c5.307-0.995,6.586-0.078,9.096,7.053
			c-3.506,0.229-6.829,0.446-10.233,0.667c-0.096,2.883,1.434,3.854,3.755,3.534C192.222,33.502,193.913,32.782,195.893,32.197z
			 M189.801,28.162c1.114-0.721,2.092-1.354,3.071-1.988c-0.972-0.473-1.985-1.387-2.904-1.301c-1.07,0.1-2.058,1.077-3.081,1.674
			C187.737,27.018,188.587,27.489,189.801,28.162z"/>
		<path fill-rule="evenodd" clip-rule="evenodd" d="M152.873,221.278c-1.32,0.083-2.64,0.166-3.959,0.249
			c-0.214-0.267-0.43-0.533-0.645-0.8c1.243-0.83,2.493-2.337,3.727-2.324c1.607,0.017,4.564,1.259,4.555,1.94
			c-0.032,2.317-1.113,4.62-2.006,7.65c1.676,1.982,1.175,4.855-0.559,7.917c-1.717,3.03-4.503,3.224-7.376,3.213
			c-0.872-0.003-2.016-0.492-2.517-1.152c-0.342-0.45-0.053-1.949,0.443-2.313c0.556-0.408,1.679,0.046,2.527-0.074
			c1.419-0.2,2.817-0.56,4.224-0.852c-0.453-1.985-0.294-4.564-1.506-5.813c-1.713-1.767-1.786-2.127,0.367-3.218
			c1.395-0.706,2.433-2.119,3.63-3.215C153.476,222.084,153.174,221.681,152.873,221.278z"/>
		<path fill-rule="evenodd" clip-rule="evenodd" d="M732.87,242.981c1.013-2.92,7.326-0.832,5.626-6.161
			c-1.56-0.229-3.099-0.456-4.638-0.684c-0.103-0.387-0.205-0.774-0.308-1.163c1.627-0.542,3.271-1.539,4.875-1.477
			c1.146,0.046,3.153,1.496,3.17,2.35c0.041,2.119-0.84,4.255-1.35,6.385c-0.415-0.056-0.829-0.111-1.243-0.166
			c0.216,0.694,0.229,1.588,0.68,2.051c3.297,3.383,0.244,6.02-1.316,8.36c-1.96,2.939-5.354,2.698-8.467,1.872
			c-0.519-0.138-0.793-1.196-1.18-1.829c1.005-0.335,1.991-0.764,3.022-0.981c1.574-0.334,3.717-0.001,4.618-0.926
			c0.846-0.867,0.922-3.231,0.361-4.511C736.174,244.853,734.395,244.145,732.87,242.981z"/>
		<path fill-rule="evenodd" clip-rule="evenodd" d="M412.307,120.091c2.128-0.261,3.742-0.46,5.723-0.703
			c-0.302,0.87-0.602,2.802-1.042,2.835c-3.407,0.253-6.842,0.14-10.84,0.14c3.82-4.101,7.098-7.373,10.037-10.927
			c0.859-1.039,0.754-2.876,1.092-4.347c-1.393-0.239-2.779-0.54-4.181-0.696c-0.979-0.109-1.979-0.021-3.589-0.021
			c4.985-5.023,7.527-5.375,10.308-2.059c2.188,2.609,0.559,5.143-0.662,7.108c-1.589,2.558-4.104,4.537-6.19,6.792
			C412.743,118.452,412.721,118.873,412.307,120.091z"/>
		<path fill-rule="evenodd" clip-rule="evenodd" d="M201.628,26.345c1.47,0.515,3.068,0.815,4.38,1.597
			c1.869,1.113,4.826,1.554,4.127,4.843c-0.496,2.33-1.721,4.083-4.387,4.169c-2.545,0.082-5.363,0.659-6.497-2.637
			c-0.237-0.687-0.006-1.534,0.009-2.307c0.763,0.167,1.551,0.261,2.282,0.517c1.445,0.504,2.858,1.1,4.285,1.657
			c0.273-0.53,0.547-1.061,0.821-1.591c-1.452-0.869-2.809-2.166-4.375-2.513c-2.712-0.601-3.286-2.337-3.3-4.597
			c-0.017-2.75,1.814-3.202,4.04-3.05c1.486,0.101,3.049-0.018,4.423,0.434c0.702,0.231,1.277,1.447,1.494,2.321
			c0.118,0.477-0.633,1.168-0.992,1.762c-0.654-0.409-1.265-0.932-1.973-1.204c-1.239-0.477-2.537-0.799-3.811-1.186
			C201.978,25.156,201.803,25.75,201.628,26.345z"/>
		<path fill-rule="evenodd" clip-rule="evenodd" d="M64.643,29.548c1.858,4.072-1.06,5.781-2.677,6.094
			c-2.184,0.422-4.835-0.728-7.081-1.684c-2.619-1.116-3.385-7.636-1.029-10.219c2.837-3.113,6.867-3.886,9.844-1.312
			c0.687,0.594,0.917,1.717,1.357,2.596c-0.971-0.053-2.199,0.252-2.866-0.225c-2.336-1.674-4.367-1.489-5.791,0.88
			c-1.481,2.465-0.229,6.391,2.306,7.126c1.04,0.302,2.53-0.586,3.688-1.18C63.193,31.214,63.773,30.378,64.643,29.548z"/>
		<path fill-rule="evenodd" clip-rule="evenodd" d="M148.57,22.909c2.239-0.582,3.977-1.007,5.7-1.488
			c2.332-0.651,5.243,1.266,5.538,4.097c0.32,3.075,0.25,6.205,0.108,9.299c-0.027,0.594-1.172,1.136-1.801,1.701
			c-0.406-0.821-1.065-1.611-1.169-2.469c-0.303-2.521-0.202-5.104-0.67-7.584c-0.135-0.713-1.75-1.709-2.533-1.587
			c-0.878,0.138-2.101,1.301-2.26,2.183c-0.416,2.303-0.211,4.711-0.512,7.044c-0.114,0.885-0.932,1.678-1.43,2.514
			c-0.324-0.13-0.648-0.259-0.972-0.388C148.57,31.718,148.57,27.205,148.57,22.909z"/>
		<path fill-rule="evenodd" clip-rule="evenodd" d="M100.316,18.581c0.904-2.652,3.768-3.125,13.833-2.459
			c0.797,0.053,1.533,1.046,2.933,2.065c-7.336,1.246-7.339,1.246-7.419,8.101c-0.028,2.372,0.102,4.758-0.119,7.111
			c-0.096,1.02-0.897,1.974-1.378,2.958c-0.511-0.948-1.433-1.883-1.464-2.848c-0.153-4.719-0.069-9.446-0.069-14.557
			C104.488,18.826,102.559,18.713,100.316,18.581z"/>
		<path fill-rule="evenodd" clip-rule="evenodd" d="M879.375,140.256c1.224-0.228,2.888-0.536,5.275-0.979
			c-1.033,4.289-1.983,7.98-2.797,11.702c-0.548,2.507-0.77,5.09-1.41,7.568c-0.227,0.875-1.127,1.913-1.957,2.211
			c-1.066,0.383-2.374,0.094-4.112,0.094C875.424,154.053,881.045,148.23,879.375,140.256z"/>
		<path fill-rule="evenodd" clip-rule="evenodd" d="M457.595,248.802c-1.9,7.341-3.591,13.875-5.372,20.757
			c-1.363,0-3.516,0-6.044,0c5.555-7.571,7.761-15.566,5.053-19.219C453.233,249.855,455.008,249.428,457.595,248.802z"/>
		<path fill-rule="evenodd" clip-rule="evenodd" d="M177.799,37.295c0-6.861-0.054-12.791,0.074-18.717
			c0.014-0.668,1.052-1.315,1.615-1.972c0.662,0.624,1.889,1.24,1.898,1.873c0.081,5.581,0.026,11.169-0.245,16.742
			C181.113,35.809,179.436,36.317,177.799,37.295z"/>
		<path fill-rule="evenodd" clip-rule="evenodd" d="M87.73,25.556c0-2.482-0.182-4.985,0.101-7.435
			c0.097-0.836,1.357-1.54,2.086-2.304c0.532,0.797,1.504,1.583,1.525,2.393c0.125,4.958,0.145,9.926-0.074,14.878
			c-0.045,1.012-1.249,1.972-1.919,2.957c-0.567-1.014-1.52-1.992-1.625-3.052c-0.244-2.458-0.077-4.956-0.077-7.437
			C87.741,25.556,87.735,25.556,87.73,25.556z"/>
		<path fill-rule="evenodd" clip-rule="evenodd" d="M570.833,135.092c-0.938,0-2.349,0-4.13,0c1.445-6.557,5.429-12.31,4.041-19.5
			c1.278-0.249,2.98-0.578,4.884-0.947C573.988,121.635,572.479,128.073,570.833,135.092z"/>
		<path fill-rule="evenodd" clip-rule="evenodd" d="M117.702,22.749c1.917-0.486,3.165-0.823,4.422-1.114
			c0.758-0.176,1.805-0.645,2.231-0.327c0.539,0.403,0.929,1.588,0.723,2.22c-0.167,0.508-1.298,0.741-2.032,1.013
			c-0.572,0.212-1.191,0.297-2.281,0.554c0,2.759,0.152,5.591-0.085,8.391c-0.08,0.941-1.151,1.798-1.769,2.694
			c-0.403-0.899-1.12-1.787-1.154-2.699C117.622,29.905,117.702,26.321,117.702,22.749z"/>
		<path fill-rule="evenodd" clip-rule="evenodd" d="M126.763,37.25c0-5.305-0.056-9.387,0.057-13.464
			c0.019-0.657,0.79-1.294,1.212-1.939c0.767,0.656,2.15,1.272,2.197,1.977c0.247,3.679,0.287,7.39,0.053,11.067
			C130.241,35.541,128.564,36.088,126.763,37.25z"/>
		<path fill-rule="evenodd" clip-rule="evenodd" d="M68.472,36.157c-0.372-0.508-0.958-0.939-0.975-1.393
			c-0.145-3.958-0.233-7.921-0.212-11.883c0.003-0.595,0.557-1.305,1.058-1.716c0.184-0.151,1.126,0.282,1.423,0.675
			C70.731,23.116,69.746,34.391,68.472,36.157z"/>
		<path fill-rule="evenodd" clip-rule="evenodd" fill="#FFFFFF" d="M498.688,84.538c0,7.146,0,13.35,0,19.556
			c0.313,0.118,0.625,0.236,0.938,0.354c0.994-2.042,1.988-4.083,3.257-6.688c6.167,11.771,15.334,19.617,27.208,25.387
			c-2.498,1.647-4.556,3.002-6.612,4.357c0.044,0.333,0.088,0.666,0.132,0.999c7.045-0.826,14.09-1.652,21.277-2.496
			c0.191,0.846,0.438,1.427,0.438,2.008c0.01,21.121-0.06,42.241,0.046,63.36c0.015,3.059-1.088,3.858-3.934,3.748
			c-5.24-0.203-10.495-0.023-15.738-0.178c-3.2-0.095-4.474,1.19-4.418,4.414c0.129,7.485,0.041,14.975,0.041,22.972
			c-22.154,0-44.008,0-66.922,0c2.072-6.43,3.922-12.164,5.771-17.899c-0.341-0.186-0.681-0.372-1.021-0.558
			c-1.695,1.927-3.393,3.854-5.243,5.957c-1.132-4.235-2.183-7.952-3.114-11.7c-1.551-6.243-4.845-11.598-8.923-16.374
			c-3.081-3.61-6.875-6.604-10.263-9.963c-1.21-1.201-1.882-2.523,0.692-3.139c1.594-0.382,3.114-1.071,4.668-1.622
			c-0.053-0.428-0.104-0.856-0.157-1.284c-6.175,0-12.35,0-18.525,0c-0.122-0.369-0.243-0.738-0.364-1.107
			C444.604,138.177,471.288,111.712,498.688,84.538z M463.229,173.592c-0.239-0.269-0.479-0.537-0.719-0.806
			c-3.933,3.854-7.938,7.639-11.736,11.62c-0.75,0.787-0.7,2.337-1.066,3.709c2.246,0.123,3.918,0.214,5.546,0.303
			c0.083,1.899,0.149,3.407,0.216,4.915c2.577-1.919,4.27-4.09,5.864-6.331c0.195-0.274-0.192-0.922-0.213-1.4
			c-0.046-1.056-0.213-2.152-0.002-3.163C461.736,179.472,462.515,176.538,463.229,173.592z M491.326,132.571
			c-0.123-2.341-0.548-4.216-0.237-5.962c0.473-2.666,1.453-5.241,2.219-7.855c-0.407-0.25-0.814-0.5-1.222-0.749
			c-4.334,4.589-8.668,9.178-13.739,14.548c3.166,0.379,5.347,0.64,7.703,0.923c-0.273,1.495-0.507,2.775-0.741,4.056
			c0.316,0.267,0.633,0.535,0.948,0.804C488.115,136.222,489.974,134.11,491.326,132.571z M470.336,175.725
			c2.36,0,3.741,0.2,5.023-0.069c0.87-0.184,1.601-1.027,2.394-1.576c-0.726-0.469-1.407-1.243-2.185-1.355
			c-3.607-0.519-7.217,2.416-7.256,6.089c-0.011,0.917,1.127,2.354,2.046,2.679c2.951,1.044,3.591,3.222,2.614,5.593
			c-0.94,2.281-2.432,4.591-5.826,3.222c-0.716-0.289-1.842,0.441-2.779,0.702c0.725,0.754,1.331,1.951,2.195,2.182
			c3.132,0.833,7.096-1.131,8.311-3.822c1.814-4.019,0.887-8.828-2.014-10.925C472.106,177.898,471.563,177.065,470.336,175.725z
			 M508.065,117.71c-1.973,0-3.33-0.046-4.683,0.009c-3.505,0.141-3.614,3.192-4.466,5.465c-0.728,1.942-0.03,2.946,2.215,3.698
			c2.963,0.994,2.765,4.2,1.895,6.313c-0.496,1.204-3.109,1.601-4.827,2.191c-0.491,0.168-1.249-0.495-1.771-0.355
			c-0.73,0.195-1.354,0.787-2.023,1.208c0.518,0.586,0.929,1.491,1.571,1.706c3.177,1.063,7.957-0.722,9.465-3.375
			c1.701-2.994,0.953-7.667-1.549-10.168c-0.857-0.857-1.552-1.877-2.32-2.822C503.622,119.73,507.717,122.804,508.065,117.71z
			 M481.551,177.445c-0.008,3.706,0.985,4.79,4.454,4.857c3.445,0.068,5.049-1.449,5.084-4.806c0.032-3.256-1.581-4.967-4.669-4.947
			C482.726,172.571,481.559,173.746,481.551,177.445z M515.968,117.695c-2.201,0.016-5.188,3.084-4.879,5.288
			c0.385,2.757,2.348,4.336,4.923,4.713c2.83,0.414,5.318-2.246,5.307-5.226C521.307,119.483,519.276,117.671,515.968,117.695z"/>
		<path fill-rule="evenodd" clip-rule="evenodd" fill="#FFFFFF" d="M433.781,179.094c-0.87-1.475-1.529-2.593-2.197-3.726
			c5.429-0.052,19.503,23.541,18.994,33.244c-2.009-1.79-3.579-3.188-5.148-4.588c-0.373,0.154-0.746,0.308-1.119,0.461
			c2.062,5.579,4.124,11.157,6.177,16.717c-29.442,0-58.352,0-87.262,0c-0.165-0.41-0.33-0.82-0.494-1.23
			c4.75-4.172,9.72-8.123,14.196-12.573c5.609-5.575,10.717-11.649,16.217-17.34c5.896-6.1,11.997-12.002,18.005-17.993
			c0.608-0.606,1.392-1.138,1.757-1.871c1.694-3.405,3.872-2.328,6.036-0.697c4.252,3.204,8.431,6.506,12.694,9.695
			C431.984,179.451,432.742,179.16,433.781,179.094z"/>
		<path fill-rule="evenodd" clip-rule="evenodd" fill="#FFFFFF" d="M506.549,97.524c2.191,0.951,4.042,1.754,5.894,2.558
			c0.155-0.286,0.311-0.572,0.466-0.856c-2.625-3.425-5.266-6.836-7.866-10.279c-1.223-1.618-2.627-3.179-3.44-4.995
			c-0.439-0.979-0.275-2.882,0.416-3.613c6.2-6.561,12.554-12.979,18.911-19.391c7.945-8.013,15.938-15.98,24.512-24.57
			c0,29.402,0,58.171,0,87.944c-6.81-3.815-12.951-7.255-19.092-10.696c-0.228,0.202-0.456,0.405-0.684,0.606
			c0.97,1.694,1.938,3.387,3.31,5.783C518.901,114.957,506.861,103.601,506.549,97.524z"/>
		<path fill-rule="evenodd" clip-rule="evenodd" fill="#FFFFFF" d="M524.932,199.045c6.926,0,13.353,0,20.202,0
			c0,7.441,0.072,14.624-0.114,21.8c-0.019,0.7-1.609,1.905-2.511,1.945c-4.965,0.218-9.95,0.286-14.911,0.051
			c-0.928-0.044-2.519-1.678-2.548-2.617C524.832,213.265,524.932,206.296,524.932,199.045z"/>
		<path fill-rule="evenodd" clip-rule="evenodd" fill="#FFFFFF" d="M778.38,204.913c2.077-6.515,3.914-12.272,5.751-18.03
			c-0.525-0.411-1.05-0.822-1.574-1.234c-1.138,2.221-2.274,4.44-3.411,6.66c-0.532-0.37-1.063-0.74-1.596-1.11
			c-1.144-7.801-2.774-15.57-7.381-21.986c-4.424-6.161-9.735-11.683-14.702-17.539c1.646-0.807,3.912-1.916,6.18-3.027
			c-0.105-0.42-0.21-0.841-0.315-1.262c-6.438,0-12.877,0-19.315,0c-0.146-0.433-0.293-0.864-0.439-1.297
			c37.12-21.439,74.242-42.879,112.278-64.848c-0.566,34.505-1.121,68.319-1.682,102.495c-5.929,0-11.64,0.11-17.345-0.044
			c-3.156-0.085-4.582,0.961-4.433,4.294c0.205,4.611-0.079,9.248,0.179,13.855c0.164,2.935-0.987,3.603-3.667,3.545
			c-11.348-0.246-22.698-0.345-34.047-0.465C788.423,204.874,783.984,204.913,778.38,204.913z"/>
		<path fill-rule="evenodd" clip-rule="evenodd" fill="#FFFFFF" d="M757.16,161.482c-0.627-1.694-1.255-3.389-1.851-4.998
			c4.682,0.034,21.008,24.453,19.224,33.625c-1.727-1.438-3.355-2.795-4.984-4.152c-0.302,0.166-0.604,0.332-0.905,0.497
			c2.076,5.81,4.152,11.617,6.413,17.94c-43.418-0.385-85.978-0.763-128.537-1.141c-0.126-0.28-0.252-0.561-0.378-0.841
			c1.036-0.761,2.022-1.604,3.118-2.269c5.368-3.254,10.731-6.517,16.158-9.67c7.52-4.37,15.148-8.555,22.631-12.987
			c7.125-4.223,14.104-8.689,21.19-12.975c1.034-0.626,2.423-0.659,3.464-1.275c7.844-4.641,15.588-9.456,23.52-13.938
			c1.083-0.612,3.442-0.214,4.516,0.615c4.512,3.486,8.738,7.337,13.123,10.989c0.632,0.525,1.557,0.698,2.346,1.033
			C756.525,161.786,756.843,161.634,757.16,161.482z M727.714,183.225c-1.049-2-1.627-4.667-3.27-5.828
			c-1.95-1.379-4.768-0.627-6.181,1.657c-3.014,4.871-6.19,9.734-3.486,15.989c1.645,3.805,4.512,4.599,7.304,1.615
			C725.5,193.003,727.497,188.802,727.714,183.225z M699.172,194.4c-0.384,1.243-1.199,3.1,1.795,3.472
			c2.878,0.356,5.669-0.591,7.011-3.057c1.111-2.041,3.868-4.276,1.055-7.239c-0.536-0.564-0.107-2.21,0.127-3.302
			c0.424-1.963,1.407-3.899,1.336-5.816c-0.021-0.54-3.001-1.563-4.423-1.297c-1.455,0.271-2.665,1.854-3.789,2.715
			c2.218,0.255,5.188,0.103,5.344,0.692c1.186,4.484-3.684,2.943-5.785,5.069c2.388,2.316,7.053,4.056,3.765,8.156
			C704.743,194.873,701.72,194.221,699.172,194.4z M739.75,182.697c-0.021-4.316-1.334-5.717-4.568-5.74
			c-3.105-0.021-4.791,1.677-4.64,4.838c0.143,2.969,1.465,4.89,4.739,4.969C738.725,186.847,739.708,184.784,739.75,182.697z"/>
		<path fill-rule="evenodd" clip-rule="evenodd" fill="#FFFFFF" d="M834.342,186.82c6.083,0,11.763,0,17.679,0
			c0,6.178,0,12.083,0,18.298c-5.924,0-11.688,0-17.679,0C834.342,199.015,834.342,193.111,834.342,186.82z"/>
		<path fill-rule="evenodd" clip-rule="evenodd" fill="#FFFFFF" d="M103.459,197.688c34.228-46.661,68.457-93.324,102.685-139.986
			c0.229,0.146,0.458,0.292,0.687,0.438c0,39.624,0,79.25,0,119.497c-5.919,0-11.099,0.048-16.278-0.014
			c-5.886-0.068-6.059,0.073-6.042,6.06c0.014,4.979,0.003,9.956,0.003,15.045c-26.935,0-53.645,0-80.355,0
			C103.925,198.381,103.692,198.034,103.459,197.688z"/>
		<path fill-rule="evenodd" clip-rule="evenodd" fill="#FFFFFF" d="M206.101,181.406c0,6.071,0,11.633,0,17.59
			c-5.874,0-11.662,0-17.928,0c0-5.705,0-11.34,0-17.59C194.179,181.406,199.918,181.406,206.101,181.406z"/>
		<path fill-rule="evenodd" clip-rule="evenodd" fill="#FFFFFF" d="M164.005,29.018c1.97-1.847,3.101-3.777,4.601-4.127
			c2.866-0.668,3.433,2.427,3.459,4.057c0.031,1.869-0.386,5.066-3.406,4.603C167.21,33.327,166.066,31.121,164.005,29.018z"/>
		<path fill-rule="evenodd" clip-rule="evenodd" fill="#FFFFFF" d="M34.105,27.75c-1.93,2.097-2.951,4.224-4.387,4.557
			c-3.081,0.712-3.437-2.253-3.131-4.142c0.281-1.74,1.878-3.267,2.896-4.887C30.773,24.526,32.063,25.774,34.105,27.75z"/>
		<path fill-rule="evenodd" clip-rule="evenodd" fill="#FFFFFF" d="M140.932,28.995c0.7,3.42-0.487,4.88-2.984,4.646
			c-0.778-0.073-1.455-1.234-2.178-1.896C137.49,30.828,139.211,29.911,140.932,28.995z"/>
		<path fill-rule="evenodd" clip-rule="evenodd" fill="#FFFFFF" d="M81.668,30.472c-1.304,1.033-2.526,2.232-3.985,2.951
			c-0.275,0.136-1.492-1.643-2.719-3.045c2.604-0.552,4.133-0.875,5.662-1.199C80.974,29.61,81.321,30.042,81.668,30.472z"/>
		<path fill-rule="evenodd" clip-rule="evenodd" fill="#FFFFFF" d="M40.854,25.319c1.345-0.683,2.649-1.752,4.051-1.898
			c0.795-0.083,1.749,1.345,2.631,2.093c-0.849,0.464-1.651,1.151-2.556,1.335c-1.146,0.232-2.375,0.056-3.567,0.056
			C41.226,26.377,41.04,25.848,40.854,25.319z"/>
		<path fill-rule="evenodd" clip-rule="evenodd" fill="#FFFFFF" d="M189.801,28.162c-1.214-0.673-2.064-1.145-2.914-1.615
			c1.023-0.597,2.011-1.574,3.081-1.674c0.919-0.086,1.932,0.828,2.904,1.301C191.894,26.808,190.915,27.441,189.801,28.162z"/>
		<path fill-rule="evenodd" clip-rule="evenodd" d="M463.229,173.592c-0.715,2.946-1.493,5.88-2.11,8.847
			c-0.211,1.011-0.044,2.107,0.002,3.163c0.021,0.479,0.408,1.126,0.213,1.4c-1.595,2.241-3.287,4.412-5.864,6.331
			c-0.066-1.508-0.133-3.016-0.216-4.915c-1.628-0.089-3.3-0.18-5.546-0.303c0.366-1.372,0.316-2.922,1.066-3.709
			c3.798-3.981,7.804-7.767,11.736-11.62C462.751,173.055,462.99,173.323,463.229,173.592z"/>
		<path fill-rule="evenodd" clip-rule="evenodd" d="M491.326,132.571c-1.353,1.539-3.211,3.651-5.069,5.765
			c-0.315-0.269-0.632-0.537-0.948-0.804c0.234-1.281,0.468-2.562,0.741-4.056c-2.356-0.283-4.537-0.543-7.703-0.923
			c5.071-5.37,9.405-9.958,13.739-14.548c0.407,0.25,0.814,0.5,1.222,0.749c-0.766,2.614-1.746,5.189-2.219,7.855
			C490.778,128.355,491.203,130.23,491.326,132.571z"/>
		<path fill-rule="evenodd" clip-rule="evenodd" d="M470.336,175.725c1.227,1.341,1.771,2.174,2.523,2.718
			c2.9,2.097,3.828,6.906,2.014,10.925c-1.215,2.691-5.179,4.655-8.311,3.822c-0.864-0.23-1.471-1.428-2.195-2.182
			c0.938-0.261,2.063-0.991,2.779-0.702c3.395,1.369,4.886-0.94,5.826-3.222c0.977-2.371,0.337-4.549-2.614-5.593
			c-0.919-0.325-2.057-1.762-2.046-2.679c0.039-3.673,3.648-6.607,7.256-6.089c0.777,0.112,1.459,0.887,2.185,1.355
			c-0.793,0.549-1.523,1.393-2.394,1.576C474.077,175.925,472.696,175.725,470.336,175.725z"/>
		<path fill-rule="evenodd" clip-rule="evenodd" d="M508.065,117.71c-0.349,5.094-4.443,2.021-6.494,3.87
			c0.769,0.944,1.463,1.964,2.32,2.822c2.502,2.501,3.25,7.174,1.549,10.168c-1.508,2.653-6.288,4.438-9.465,3.375
			c-0.643-0.215-1.054-1.12-1.571-1.706c0.669-0.422,1.293-1.013,2.023-1.208c0.522-0.14,1.28,0.523,1.771,0.355
			c1.718-0.59,4.331-0.987,4.827-2.191c0.87-2.113,1.068-5.319-1.895-6.313c-2.245-0.752-2.942-1.756-2.215-3.698
			c0.852-2.273,0.961-5.325,4.466-5.465C504.735,117.664,506.093,117.71,508.065,117.71z"/>
		<path fill-rule="evenodd" clip-rule="evenodd" d="M481.551,177.445c0.008-3.699,1.175-4.874,4.869-4.896
			c3.088-0.02,4.701,1.691,4.669,4.947c-0.035,3.356-1.639,4.874-5.084,4.806C482.536,182.235,481.543,181.151,481.551,177.445z
			 M486.598,181.125c1.013-1.853,2.077-2.914,1.914-3.729c-0.196-0.979-1.438-1.749-2.227-2.609
			c-0.818,0.827-2.328,1.692-2.284,2.473C484.06,178.322,485.303,179.319,486.598,181.125z"/>
		<path fill-rule="evenodd" clip-rule="evenodd" d="M515.968,117.695c3.309-0.024,5.339,1.788,5.351,4.775
			c0.012,2.98-2.477,5.64-5.307,5.226c-2.575-0.376-4.538-1.956-4.923-4.713C510.78,120.779,513.767,117.711,515.968,117.695z
			 M516.23,127.085c1.305-1.896,2.372-2.893,2.738-4.102c0.667-2.203-1.129-2.998-2.726-2.82c-1.116,0.125-3.08,1.653-2.962,2.144
			C513.627,123.739,514.827,124.965,516.23,127.085z"/>
		<path fill-rule="evenodd" clip-rule="evenodd" d="M727.714,183.225c-0.217,5.577-2.214,9.778-5.633,13.434
			c-2.792,2.983-5.659,2.189-7.304-1.615c-2.704-6.255,0.473-11.118,3.486-15.989c1.413-2.284,4.23-3.036,6.181-1.657
			C726.087,178.558,726.665,181.225,727.714,183.225z M716.544,190.728c0.632,2.162,1.03,3.521,1.428,4.881
			c0.962-0.367,2.425-0.457,2.803-1.146c2.303-4.184,3.874-8.65,3.543-13.521c-0.045-0.667-1.106-1.683-1.798-1.774
			c-0.735-0.097-2.063,0.527-2.314,1.16C718.795,183.896,717.632,187.56,716.544,190.728z"/>
		<path fill-rule="evenodd" clip-rule="evenodd" d="M699.172,194.4c2.548-0.18,5.571,0.473,6.435-0.606
			c3.288-4.101-1.377-5.84-3.765-8.156c2.102-2.126,6.971-0.585,5.785-5.069c-0.156-0.59-3.126-0.438-5.344-0.692
			c1.124-0.86,2.334-2.443,3.789-2.715c1.422-0.266,4.402,0.757,4.423,1.297c0.071,1.917-0.912,3.854-1.336,5.816
			c-0.234,1.092-0.663,2.737-0.127,3.302c2.813,2.963,0.057,5.198-1.055,7.239c-1.342,2.466-4.133,3.413-7.011,3.057
			C697.973,197.5,698.788,195.644,699.172,194.4z"/>
		<path fill-rule="evenodd" clip-rule="evenodd" d="M739.75,182.697c-0.042,2.087-1.025,4.149-4.469,4.066
			c-3.274-0.079-4.597-2-4.739-4.969c-0.151-3.161,1.534-4.858,4.64-4.838C738.416,176.98,739.729,178.381,739.75,182.697z
			 M739.378,182.097c-2.028-1.326-3.107-2.463-4.335-2.654c-0.635-0.1-2.17,1.507-2.135,2.291c0.036,0.82,1.413,2.134,2.302,2.22
			C736.242,184.053,737.382,183.053,739.378,182.097z"/>
		<path fill-rule="evenodd" clip-rule="evenodd" fill="#FFFFFF" d="M486.598,181.125c-1.295-1.806-2.538-2.803-2.597-3.865
			c-0.044-0.78,1.466-1.646,2.284-2.473c0.789,0.86,2.03,1.63,2.227,2.609C488.675,178.211,487.61,179.272,486.598,181.125z"/>
		<path fill-rule="evenodd" clip-rule="evenodd" fill="#FFFFFF" d="M516.23,127.085c-1.403-2.12-2.604-3.346-2.949-4.778
			c-0.118-0.49,1.846-2.018,2.962-2.144c1.597-0.178,3.393,0.617,2.726,2.82C518.603,124.192,517.535,125.188,516.23,127.085z"/>
		<path fill-rule="evenodd" clip-rule="evenodd" fill="#FFFFFF" d="M716.544,190.728c1.088-3.168,2.251-6.832,3.661-10.399
			c0.251-0.633,1.579-1.257,2.314-1.16c0.691,0.092,1.753,1.107,1.798,1.774c0.331,4.87-1.24,9.337-3.543,13.521
			c-0.378,0.688-1.841,0.778-2.803,1.146C717.574,194.249,717.176,192.89,716.544,190.728z"/>
		<path fill-rule="evenodd" clip-rule="evenodd" fill="#FFFFFF" d="M739.378,182.097c-1.996,0.956-3.136,1.956-4.168,1.856
			c-0.889-0.086-2.266-1.399-2.302-2.22c-0.035-0.784,1.5-2.391,2.135-2.291C736.271,179.634,737.35,180.771,739.378,182.097z"/>
	</g>
</g>
</svg>
