<?xml version="1.0" encoding="utf-8"?>
<!-- Generator: Adobe Illustrator 16.0.0, SVG Export Plug-In . SVG Version: 6.00 Build 0)  -->
<!DOCTYPE svg PUBLIC "-//W3C//DTD SVG 1.1//EN" "http://www.w3.org/Graphics/SVG/1.1/DTD/svg11.dtd">
<svg version="1.1" id="Layer_1" xmlns="http://www.w3.org/2000/svg" xmlns:xlink="http://www.w3.org/1999/xlink" x="0px" y="0px"
	 width="549.076px" height="348.049px" viewBox="0 0 549.076 348.049" enable-background="new 0 0 549.076 348.049"
	 xml:space="preserve">
<g>
	<g>
		<path fill-rule="evenodd" clip-rule="evenodd" fill="#FFFFFF" d="M549.798,348.77c-183.035,0-366.042,0-549.019,0
			c0-116.026,0-232.023,0-347.99c183.036,0,366.042,0,549.019,0C549.798,116.805,549.798,232.802,549.798,348.77z M378.801,249.478
			c0.507-0.253,1.015-0.506,1.522-0.759c-0.108-0.951,0.14-2.22-0.381-2.803c-3.3-3.702-6.655-7.371-10.211-10.826
			c-4.373-4.25-9.099-8.145-13.369-12.491c-1.278-1.301-2.219-3.644-2.107-5.433c0.164-2.615,1.465-5.148,2.2-7.739
			c2.135-7.521,5.21-14.938,6.106-22.606c1.272-10.901,0.921-21.991,1.285-32.999c0.384-11.601-2.565-22.631-6.083-33.49
			c-2.025-6.25-4.579-12.372-7.404-18.309c-2.605-5.475-5.713-10.736-8.93-15.885c-3.09-4.947-6.121-10.072-10.037-14.328
			c-6.419-6.979-13.403-13.459-20.411-19.863c-3.422-3.126-7.14-6.195-11.244-8.253c-8.686-4.354-16.689-9.945-26.26-12.784
			c-7.414-2.199-14.464-5.487-22.297-6.445c-6.287-0.768-12.463-2.816-18.747-3.13c-10.556-0.528-20.997-0.215-31.607,2.089
			c-9.437,2.049-18.945,3.629-28,7.048c-5.72,2.16-11.434,4.465-16.834,7.307c-4.659,2.452-8.886,5.732-13.275,8.688
			c-4.254,2.866-8.807,5.406-12.625,8.774c-5.317,4.69-10.582,9.618-14.938,15.174c-5.612,7.157-10.803,14.754-15.262,22.676
			c-5.122,9.099-9.839,18.524-12.014,28.91c-2.165,10.337-4.911,20.61-6.207,31.059c-1.902,15.334,0.66,30.424,4.339,45.379
			c3.347,13.604,8.696,26.273,16.003,38.166c1.521,2.476,3.032,4.963,4.69,7.345c2.914,4.186,5.593,8.607,9,12.357
			c4.425,4.869,9.331,9.332,14.278,13.688c4.987,4.389,9.989,8.874,15.52,12.502c5.37,3.522,11.396,6.056,17.179,8.932
			c2.391,1.188,4.885,2.176,7.36,3.186c5.689,2.321,11.226,5.303,17.135,6.726c8.003,1.926,16.259,3.151,24.475,3.768
			c15.21,1.143,30.331-0.238,45.297-3.225c1.581-0.316,3.329-0.062,4.801-0.608c6.171-2.291,12.281-4.752,18.384-7.221
			c3.149-1.274,6.493-2.302,9.303-4.128c6.573-4.273,12.742-9.168,19.323-13.429c7.984-5.169,14.53-11.872,20.69-18.923
			c7.963-9.115,14.923-18.955,19.713-30.219c2.241-5.269,3.443-5.242,7.165-0.717c0.607,0.738,1.331,1.387,2.029,2.044
			c2.9,2.731,5.917,5.348,8.693,8.197C371.058,240.992,374.893,245.271,378.801,249.478z M407.475,240.582
			c0.393-0.376,0.786-0.753,1.18-1.13c-0.539-1.182-0.774-2.754-1.684-3.458c-1.458-1.129-3.34-1.733-5.079-2.472
			c-3.443-1.459-10.424,0.255-11.174,3.503c-0.97,4.202-1.006,8.82-0.357,13.095c0.25,1.655,3.356,3.056,5.364,4.221
			c2.459,1.428,11.349,0.388,12.196-1.839c0.937-2.461,0.795-5.662,0.083-8.257c-0.279-1.015-3.365-1.614-5.209-1.712
			c-1.13-0.06-2.331,1.19-3.5,1.853c0.938,0.639,1.868,1.29,2.816,1.911c0.752,0.493,2.146,0.936,2.158,1.425
			c0.021,0.898-0.697,2.548-1.231,2.6c-2.384,0.229-5.33,0.849-7.111-0.243c-3.11-1.905-3.077-5.499-2.249-8.935
			c1.018-4.224,5.378-5.804,8.907-3.274C404.089,238.948,405.837,239.688,407.475,240.582z M452.751,253.761
			c-0.275-2.486-0.944-5.862-0.933-9.235c0.01-2.782-0.619-4.964-3.337-5.696c-2.797-0.754-5.7-0.616-7.704,1.994
			c-0.503,0.655-0.506,1.695-0.739,2.558c0.886,0.001,1.804,0.148,2.65-0.034c1.031-0.224,2.001-1.001,3.001-1.01
			c0.712-0.005,1.429,0.868,2.144,1.349c-0.582,0.638-1.051,1.542-1.773,1.848c-0.989,0.421-2.212,0.257-3.265,0.575
			c-2.735,0.828-5.109,2.597-3.746,5.524c0.749,1.608,3.457,2.952,5.426,3.184C447.047,255.119,449.762,254.203,452.751,253.761z
			 M547.254,247.794c0.572-5.764-1.998-9.193-6.584-9.252c-3.369-0.042-6.492,2.401-7.458,7.528c-0.42,2.23,1.231,5.381,2.867,7.342
			c2.335,2.802,5.463,2.529,8.683,0.562c1.834-1.121,2.719-2.201,1.745-4.023c-0.159-0.298-2.284,0.532-3.521,0.713
			c-1.391,0.203-2.873,0.548-4.173,0.237c-0.511-0.122-0.638-1.854-1.016-3.106C541.332,247.794,544.188,247.794,547.254,247.794z
			 M436.373,247.659c1.037-4.64-1.325-6.952-4.466-8.646c-2.706-1.459-5.149-0.048-7.048,1.657
			c-3.012,2.708-2.012,6.459-1.631,9.838c0.381,3.376,5.549,5.941,8.559,4.271c1.64-0.909,4.837-1.496,3.729-4.084
			c-1.188-2.777-2.966,0.067-4.529,0.457c-0.987,0.246-2.256,0.085-3.159-0.369c-0.442-0.223-0.685-2.08-0.425-2.242
			c0.855-0.529,1.972-0.783,3.005-0.847C432.367,247.573,434.339,247.659,436.373,247.659z M487.398,249.224
			c-1.167-0.075-2.005-0.172-2.84-0.162c-0.344,0.004-0.685,0.234-1.025,0.366c-1.421,0.554-2.842,1.107-4.263,1.661
			c-0.486-1.714-1.356-3.435-1.329-5.142c0.019-1.214,1.018-2.723,2.041-3.464c0.429-0.311,2.017,1.094,3.137,1.585
			c0.867,0.379,1.824,0.552,2.74,0.817c0.215-1.095,0.933-2.896,0.559-3.162c-1.81-1.287-3.869-2.92-5.92-3.036
			c-5.634-0.319-9.391,6.557-6.293,12.307c1.156,2.145,4.818,3.865,7.446,4.026C484.175,255.176,487.264,253.493,487.398,249.224z
			 M522.984,243.431c-3.275-4.398-6.586-5.982-9.277-4.638c-3.826,1.91-5.596,8.105-3.726,13.048
			c0.735,1.944,5.281,4.133,7.512,3.163c2.42-1.051,6.075-1.409,5.132-6.376c-2.915,1.061-5.528,2.012-8.905,3.24
			c0-3.685,0-6.438,0-10.353c2.147,1.016,3.992,1.31,4.791,2.382C520.419,246.462,521.473,245.037,522.984,243.431z
			 M463.661,252.169c-0.943-0.98-2.51-1.849-2.713-2.964c-0.594-3.264-1.515-7,3.864-7.853c-1.509-1.624-2.726-2.811-3.787-4.122
			c-0.697-0.861-1.17-1.904-1.743-2.865c-0.821,0.875-1.671,1.725-2.452,2.634c-0.504,0.585-1.131,1.202-1.299,1.902
			c-0.236,0.979-0.283,2.089-0.071,3.069c0.277,1.278,1.144,2.455,1.294,3.73c0.232,1.965-0.479,4.213,0.241,5.9
			c0.663,1.552,2.515,3.101,4.159,3.595C463.057,255.769,464.858,254.742,463.661,252.169z M507.906,242.031
			c0.331-3.196-0.602-4.277-3.559-2.892c-0.671,0.313-1.727,0.325-2.398,0.021c-2.364-1.069-3.24-0.167-3.256,2.149
			c-0.018,2.748-0.198,5.512,0.041,8.238c0.168,1.924-1.428,5.338,2.1,5.235c3.111-0.09,1.603-3.315,1.664-5.115
			C502.686,244.3,503.143,243.428,507.906,242.031z M526.424,234.059c0,6.418-0.086,12.387,0.096,18.348
			c0.027,0.855,1.347,1.671,2.068,2.506c0.58-0.821,1.645-1.632,1.664-2.467c0.144-6.093,0.077-12.189,0.077-18.387
			C528.931,234.059,527.842,234.059,526.424,234.059z M421.567,239.35c-2.848-0.239-5.068-0.647-7.244-0.483
			c-0.729,0.056-1.839,1.533-1.917,2.436c-0.216,2.463-0.117,4.98,0.132,7.448c0.193,1.913-1.981,5.304,1.647,5.362
			c3.85,0.064,1.899-3.601,1.99-5.554c0.17-3.673,1.068-6.326,5.392-6.245C421.567,240.953,421.567,239.889,421.567,239.35z
			 M494.812,238.987c-0.652-0.183-1.305-0.366-1.958-0.55c-0.759,1.018-2.096,1.995-2.173,3.063
			c-0.267,3.694-0.201,7.426-0.002,11.129c0.04,0.76,1.215,2.052,1.843,2.037c0.777-0.018,2.16-1.115,2.188-1.793
			C494.905,248.252,494.812,243.618,494.812,238.987z M495.952,235.063c-1.704-0.7-2.592-1.369-3.436-1.317
			c-0.699,0.044-1.347,0.936-2.017,1.451c0.771,0.75,1.451,1.915,2.342,2.109C493.469,237.441,494.383,236.254,495.952,235.063z"/>
		<path fill-rule="evenodd" clip-rule="evenodd" d="M378.801,249.478c-3.908-4.207-7.743-8.485-11.749-12.597
			c-2.776-2.85-5.793-5.466-8.693-8.197c-0.698-0.657-1.422-1.306-2.029-2.044c-3.722-4.525-4.924-4.552-7.165,0.717
			c-4.79,11.264-11.75,21.104-19.713,30.219c-6.16,7.051-12.706,13.754-20.69,18.923c-6.581,4.261-12.75,9.155-19.323,13.429
			c-2.81,1.826-6.153,2.854-9.303,4.128c-6.104,2.469-12.213,4.93-18.384,7.221c-1.472,0.547-3.22,0.292-4.801,0.608
			c-14.966,2.986-30.087,4.367-45.297,3.225c-8.216-0.616-16.471-1.842-24.475-3.768c-5.909-1.423-11.446-4.404-17.135-6.726
			c-2.475-1.01-4.97-1.997-7.36-3.186c-5.784-2.876-11.81-5.409-17.179-8.932c-5.53-3.628-10.532-8.113-15.52-12.502
			c-4.947-4.355-9.853-8.818-14.278-13.688c-3.407-3.75-6.087-8.172-9-12.357c-1.658-2.382-3.169-4.869-4.69-7.345
			c-7.307-11.893-12.656-24.562-16.003-38.166c-3.679-14.955-6.241-30.045-4.339-45.379c1.295-10.449,4.042-20.721,6.207-31.059
			c2.174-10.386,6.892-19.811,12.014-28.91c4.459-7.922,9.649-15.52,15.262-22.676c4.357-5.556,9.622-10.484,14.938-15.174
			c3.817-3.368,8.37-5.908,12.625-8.774c4.389-2.957,8.616-6.236,13.275-8.688c5.4-2.842,11.114-5.147,16.834-7.307
			c9.055-3.419,18.563-5,28-7.048c10.61-2.304,21.051-2.617,31.607-2.089c6.284,0.314,12.46,2.362,18.747,3.13
			c7.833,0.958,14.884,4.246,22.297,6.445c9.57,2.838,17.574,8.43,26.26,12.784c4.104,2.058,7.822,5.127,11.244,8.253
			c7.008,6.403,13.992,12.884,20.411,19.863c3.916,4.256,6.947,9.381,10.037,14.328c3.217,5.149,6.324,10.411,8.93,15.885
			c2.825,5.937,5.379,12.058,7.404,18.309c3.518,10.858,6.467,21.889,6.083,33.49c-0.364,11.008-0.013,22.098-1.285,32.999
			c-0.896,7.669-3.972,15.086-6.106,22.606c-0.735,2.591-2.036,5.124-2.2,7.739c-0.111,1.789,0.829,4.132,2.107,5.433
			c4.271,4.347,8.996,8.241,13.369,12.491c3.556,3.455,6.911,7.124,10.211,10.826c0.521,0.583,0.272,1.852,0.381,2.803
			C379.815,248.972,379.308,249.225,378.801,249.478z M84.975,170.043c0.081,0.296,0.488,1.289,0.613,2.315
			c0.666,5.455,0.778,11.029,2.005,16.349c1.422,6.171,2.351,12.438,4.566,18.519c1.472,4.039,4.264,7.459,4.88,12.041
			c0.441,3.276,3.485,6.133,4.99,9.353c2.346,5.02,4.606,9.901,8.678,13.987c3.531,3.543,5.792,8.316,9.112,12.111
			c4.076,4.661,8.31,9.319,13.121,13.173c7.437,5.958,15.418,11.235,23.181,16.786c0.285,0.203,0.7,0.214,1.036,0.357
			c5.219,2.241,10.421,4.52,15.654,6.726c4.817,2.031,9.512,4.873,14.541,5.747c5.984,1.041,11.832,2.797,17.733,3.652
			c8.277,1.199,16.826,0.707,25.254,0.609c6.683-0.078,13.153-1.202,19.741-2.951c5.747-1.525,11.954-1.81,17.6-4.123
			c6.556-2.687,13.02-5.603,19.495-8.481c1.631-0.726,3.226-1.586,4.717-2.567c3.82-2.514,7.608-5.077,11.34-7.721
			c4.064-2.878,8.51-5.412,11.969-8.907c6.664-6.735,12.804-13.996,19.051-21.135c2.226-2.543,4.362-5.224,6.129-8.094
			c2.618-4.25,5.105-8.619,7.157-13.16c0.782-1.729,1.076-4.753,0.09-6.007c-3.138-3.992-7.035-7.378-10.535-11.095
			c-2.845-3.022-5.44-6.282-8.338-9.251c-1.887-1.933-4.115-3.533-6.915-5.894c0,3.883,0,6.459,0,9.036
			c-0.366,0.1-0.731,0.201-1.097,0.302c-3.977-8.475-7.952-16.95-12.058-25.701c-2.523,2.844-3.728,1.746-5.103-1.698
			c2.255,0.236,4.119,1.021,5.298,0.433c2.421-1.21,3.027-0.494,3.392,1.779c0.104,0.655,0.863,1.439,1.518,1.739
			c5.816,2.665,11.696,5.194,17.508,7.874c0.976,0.45,1.709,1.427,2.554,2.159c-0.182,0.309-0.365,0.618-0.548,0.928
			c-2.658,0-5.316,0-8.931,0c3.83,4.161,6.963,7.786,10.333,11.175c4.547,4.571,9.27,8.968,13.937,13.419
			c0.651,0.622,1.414,1.128,2.125,1.687c0.531-0.883,1.293-1.701,1.555-2.657c1.438-5.259,3.001-10.503,4.06-15.843
			c1.863-9.402,3.401-18.87,5.03-28.318c0.064-0.379-0.425-0.823-0.509-1.265c-0.224-1.172-0.591-2.38-0.482-3.535
			c0.115-1.244,0.706-2.443,0.824-2.819c-1.563-1.163-2.517-1.872-3.471-2.582c0.884-0.7,1.768-1.399,2.908-2.303
			c-0.2-2.696-0.194-6.158-0.765-9.523c-1.059-6.247-2.097-12.537-3.803-18.624c-1.826-6.506-4.294-12.845-6.728-19.162
			c-1.001-2.601-3.362-4.822-3.848-7.448c-1.131-6.11-4.583-10.641-8.541-15.001c-0.304-0.335-1.053-0.71-1.001-0.86
			c1.453-4.157-2.697-5.477-4.347-7.741c-3.745-5.142-8.399-9.624-12.712-14.347c-0.602-0.659-1.367-1.168-2.056-1.747
			c-0.596,0.824-1.328,1.583-1.754,2.487c-0.684,1.45-1.113,3.018-1.739,4.499c-1.86,4.395-3.712,8.795-5.688,13.138
			c-0.466,1.023-1.41,1.83-2.135,2.735c-0.353-1.335-0.822-2.655-1.021-4.014c-0.135-0.93,0.108-1.913,0.183-2.873
			c-0.297-0.046-0.595-0.093-0.892-0.139c-20.101,22.091-40.201,44.184-60.444,66.431c1.288,0.602,2.223,1.037,4.238,1.979
			c-2.128,0.533-3.977,1.4-4.3,1.008c-1.618-1.96-2.154-0.365-3.032,0.577c-5.433,5.824-10.885,11.63-17.097,18.259
			c-0.3-1.979-0.88-3.181-0.503-3.806c1.189-1.972,2.67-3.783,4.161-5.555c2.249-2.671,4.63-5.23,6.874-7.905
			c0.287-0.344,0.083-1.098,0.107-1.662c-0.631,0-1.402-0.235-1.87,0.041c-2.35,1.388-2.835-0.057-3.556-2.46
			c1.485,0.142,2.52,0.407,3.517,0.303c2.509-0.263,5.836,0.201,7.346-1.215c5.251-4.927,9.868-10.529,14.729-15.872
			c8.814-9.685,17.671-19.331,26.432-29.063c6.534-7.258,12.974-14.603,19.348-22.002c0.471-0.546,0.062-1.851,0.062-2.122
			c-2.654-0.219-4.753-0.392-6.851-0.565c0.02-0.375,0.038-0.75,0.058-1.125c7.87-3.531,16.081-6.534,22.134-13.595
			c-1.62-0.584-2.831-0.729-3.657-1.372c-2.48-1.927-4.708-4.188-7.229-6.054c-2.684-1.983-5.596-3.658-8.4-5.478
			c-1.496-0.971-2.876-2.214-4.494-2.881c-1.96-0.808-4.989-0.455-6.034-1.792c-4.138-5.297-10.574-6.46-16.013-8.614
			c-7.89-3.123-16.649-4.054-25.041-5.905c-2.657-0.586-5.306-1.485-7.989-1.609c-4.531-0.209-9.085,0.127-13.629,0.153
			c-5.267,0.03-10.553-0.302-15.796,0.046c-3.698,0.245-7.37,1.231-10.997,2.121c-5.903,1.449-11.689,3.562-17.665,4.466
			c-3.4,0.514-5.098,1.757-5.745,4.222c-1.378-0.15-2.745-0.726-3.718-0.331c-3.974,1.61-7.94,3.313-11.695,5.372
			c-3.775,2.068-7.319,4.567-10.925,6.937c-3.57,2.345-7.126,4.716-10.598,7.202c-0.592,0.423-0.954,1.463-1.031,2.256
			c-0.251,2.567-1.206,3.928-4.113,3.529c-0.985-0.136-2.109,0.74-3.17,1.154c0.076,0.297,0.151,0.594,0.227,0.891
			c1.086,0.41,2.172,0.82,2.738,1.033c-2.424,0.969-5.905,1.272-7.414,3.155c-6.116,7.636-11.68,15.721-17.329,23.724
			c-1.847,2.616-3.5,5.405-4.938,8.268c-1.52,3.028-2.712,6.224-3.982,9.373c-2.221,5.504-4.638,10.947-6.493,16.574
			c-1.153,3.498-1.577,7.266-2.06,10.948c-1.011,7.7-4.064,15.24-1.928,23.21c0.113,0.422-0.109,0.949-0.223,1.415
			c-0.393,1.604-0.806,3.203-1.103,4.376c1.725,0,2.719,0,3.712,0C87.408,166.944,86.36,168.28,84.975,170.043z"/>
		<path fill-rule="evenodd" clip-rule="evenodd" d="M407.475,240.582c-1.638-0.894-3.386-1.634-4.89-2.713
			c-3.529-2.529-7.89-0.949-8.907,3.274c-0.828,3.436-0.861,7.029,2.249,8.935c1.781,1.092,4.728,0.473,7.111,0.243
			c0.534-0.052,1.253-1.701,1.231-2.6c-0.012-0.489-1.406-0.932-2.158-1.425c-0.948-0.621-1.878-1.272-2.816-1.911
			c1.169-0.662,2.37-1.912,3.5-1.853c1.844,0.098,4.93,0.697,5.209,1.712c0.712,2.595,0.854,5.796-0.083,8.257
			c-0.848,2.227-9.737,3.267-12.196,1.839c-2.008-1.165-5.114-2.565-5.364-4.221c-0.648-4.274-0.612-8.893,0.357-13.095
			c0.75-3.248,7.73-4.962,11.174-3.503c1.739,0.738,3.621,1.343,5.079,2.472c0.909,0.704,1.145,2.276,1.684,3.458
			C408.261,239.829,407.867,240.206,407.475,240.582z"/>
		<path fill-rule="evenodd" clip-rule="evenodd" d="M452.751,253.761c-2.989,0.442-5.704,1.358-8.276,1.056
			c-1.969-0.231-4.677-1.575-5.426-3.184c-1.363-2.928,1.011-4.696,3.746-5.524c1.053-0.318,2.275-0.154,3.265-0.575
			c0.723-0.306,1.191-1.21,1.773-1.848c-0.715-0.48-1.432-1.354-2.144-1.349c-1,0.009-1.97,0.786-3.001,1.01
			c-0.847,0.183-1.765,0.035-2.65,0.034c0.233-0.862,0.236-1.902,0.739-2.558c2.004-2.61,4.907-2.748,7.704-1.994
			c2.718,0.732,3.347,2.914,3.337,5.696C451.807,247.898,452.476,251.274,452.751,253.761z"/>
		<path fill-rule="evenodd" clip-rule="evenodd" d="M547.254,247.794c-3.066,0-5.922,0-9.456,0c0.378,1.253,0.505,2.984,1.016,3.106
			c1.3,0.311,2.782-0.034,4.173-0.237c1.236-0.181,3.361-1.011,3.521-0.713c0.974,1.822,0.089,2.902-1.745,4.023
			c-3.22,1.968-6.348,2.24-8.683-0.562c-1.636-1.961-3.287-5.111-2.867-7.342c0.966-5.127,4.089-7.57,7.458-7.528
			C545.256,238.601,547.826,242.03,547.254,247.794z M542.539,245.735c0.346-0.366,0.691-0.732,1.036-1.099
			c-0.842-0.808-1.599-2.159-2.545-2.311c-1.899-0.301-3.786,0.161-2.829,3.168C539.655,245.575,541.098,245.655,542.539,245.735z"
			/>
		<path fill-rule="evenodd" clip-rule="evenodd" d="M436.373,247.659c-2.034,0-4.006-0.086-5.965,0.034
			c-1.033,0.063-2.149,0.317-3.005,0.847c-0.26,0.162-0.018,2.02,0.425,2.242c0.903,0.454,2.172,0.615,3.159,0.369
			c1.563-0.39,3.341-3.234,4.529-0.457c1.107,2.588-2.09,3.175-3.729,4.084c-3.01,1.671-8.178-0.895-8.559-4.271
			c-0.381-3.379-1.381-7.13,1.631-9.838c1.898-1.705,4.342-3.116,7.048-1.657C435.048,240.707,437.41,243.02,436.373,247.659z
			 M432.479,245.328c0.17-0.507,0.339-1.014,0.509-1.521c-1.319-0.506-2.634-1.366-3.959-1.382c-0.797-0.01-1.609,1.3-2.414,2.016
			c0.188,0.296,0.376,0.592,0.564,0.887C428.945,245.328,430.713,245.328,432.479,245.328z"/>
		<path fill-rule="evenodd" clip-rule="evenodd" d="M487.398,249.224c-0.135,4.27-3.224,5.952-5.747,5.797
			c-2.628-0.161-6.29-1.882-7.446-4.026c-3.098-5.75,0.659-12.626,6.293-12.307c2.051,0.116,4.11,1.749,5.92,3.036
			c0.374,0.266-0.344,2.067-0.559,3.162c-0.916-0.266-1.873-0.438-2.74-0.817c-1.12-0.491-2.708-1.896-3.137-1.585
			c-1.023,0.741-2.022,2.25-2.041,3.464c-0.027,1.707,0.843,3.428,1.33,5.142c1.42-0.554,2.841-1.107,4.262-1.661
			c0.341-0.132,0.682-0.362,1.025-0.366C485.394,249.052,486.231,249.148,487.398,249.224z"/>
		<path fill-rule="evenodd" clip-rule="evenodd" d="M522.984,243.431c-1.512,1.606-2.565,3.031-4.474,0.467
			c-0.799-1.072-2.644-1.366-4.791-2.382c0,3.915,0,6.668,0,10.353c3.377-1.229,5.99-2.18,8.905-3.24
			c0.943,4.967-2.712,5.325-5.132,6.376c-2.23,0.97-6.776-1.219-7.512-3.163c-1.87-4.942-0.101-11.138,3.726-13.048
			C516.398,237.448,519.709,239.032,522.984,243.431z"/>
		<path fill-rule="evenodd" clip-rule="evenodd" d="M463.661,252.169c1.197,2.573-0.604,3.6-2.507,3.027
			c-1.645-0.494-3.496-2.043-4.159-3.595c-0.721-1.688-0.009-3.936-0.241-5.9c-0.15-1.275-1.017-2.452-1.294-3.73
			c-0.212-0.98-0.165-2.091,0.071-3.069c0.168-0.7,0.795-1.317,1.299-1.902c0.781-0.909,1.631-1.759,2.452-2.634
			c0.573,0.961,1.046,2.004,1.743,2.865c1.062,1.312,2.278,2.498,3.787,4.122c-5.379,0.853-4.458,4.589-3.864,7.853
			C461.151,250.32,462.718,251.188,463.661,252.169z"/>
		<path fill-rule="evenodd" clip-rule="evenodd" d="M507.906,242.031c-4.764,1.396-5.221,2.269-5.408,7.637
			c-0.062,1.8,1.447,5.025-1.664,5.115c-3.527,0.103-1.932-3.312-2.1-5.235c-0.239-2.727-0.059-5.49-0.041-8.238
			c0.016-2.316,0.892-3.219,3.256-2.149c0.672,0.305,1.728,0.293,2.398-0.021C507.305,237.754,508.237,238.835,507.906,242.031z"/>
		<path fill-rule="evenodd" clip-rule="evenodd" d="M526.424,234.059c1.418,0,2.507,0,3.905,0c0,6.197,0.066,12.294-0.077,18.387
			c-0.02,0.835-1.084,1.646-1.664,2.467c-0.722-0.835-2.041-1.65-2.068-2.506C526.338,246.445,526.424,240.477,526.424,234.059z"/>
		<path fill-rule="evenodd" clip-rule="evenodd" d="M421.567,239.35c0,0.539,0,1.604,0,2.964c-4.323-0.081-5.222,2.572-5.392,6.245
			c-0.091,1.953,1.859,5.618-1.99,5.554c-3.629-0.059-1.454-3.449-1.647-5.362c-0.249-2.468-0.348-4.985-0.132-7.448
			c0.078-0.902,1.188-2.38,1.917-2.436C416.499,238.702,418.72,239.11,421.567,239.35z"/>
		<path fill-rule="evenodd" clip-rule="evenodd" d="M494.812,238.987c0,4.631,0.094,9.265-0.102,13.886
			c-0.028,0.678-1.411,1.775-2.188,1.793c-0.628,0.015-1.803-1.277-1.843-2.037c-0.199-3.703-0.265-7.435,0.002-11.129
			c0.077-1.067,1.414-2.045,2.173-3.063C493.507,238.621,494.159,238.805,494.812,238.987z"/>
		<path fill-rule="evenodd" clip-rule="evenodd" d="M495.952,235.063c-1.569,1.191-2.483,2.379-3.11,2.243
			c-0.891-0.194-1.571-1.359-2.342-2.109c0.67-0.516,1.317-1.407,2.017-1.451C493.36,233.693,494.248,234.362,495.952,235.063z"/>
		<path fill-rule="evenodd" clip-rule="evenodd" fill="#FFFFFF" d="M84.975,170.043c1.385-1.763,2.433-3.099,3.482-4.434
			c-0.994,0-1.987,0-3.712,0c0.297-1.173,0.71-2.772,1.103-4.376c0.114-0.466,0.336-0.993,0.223-1.415
			c-2.137-7.97,0.917-15.511,1.928-23.21c0.483-3.682,0.907-7.45,2.06-10.948c1.855-5.626,4.272-11.07,6.493-16.574
			c1.27-3.148,2.462-6.345,3.982-9.373c1.437-2.863,3.09-5.652,4.938-8.268c5.648-8.003,11.212-16.087,17.329-23.724
			c1.508-1.883,4.99-2.186,7.414-3.155c-0.566-0.213-1.652-0.623-2.738-1.033c-0.076-0.296-0.151-0.594-0.227-0.891
			c1.061-0.414,2.185-1.29,3.17-1.154c2.908,0.399,3.862-0.962,4.113-3.529c0.078-0.793,0.439-1.833,1.031-2.256
			c3.472-2.486,7.028-4.857,10.598-7.202c3.605-2.37,7.149-4.869,10.925-6.937c3.755-2.059,7.721-3.762,11.695-5.372
			c0.974-0.395,2.34,0.181,3.718,0.331c0.647-2.465,2.345-3.708,5.745-4.222c5.976-0.905,11.762-3.017,17.665-4.466
			c3.627-0.89,7.299-1.876,10.997-2.121c5.243-0.349,10.529-0.016,15.796-0.046c4.544-0.025,9.099-0.362,13.629-0.153
			c2.683,0.125,5.332,1.023,7.989,1.609c8.392,1.852,17.151,2.782,25.041,5.905c5.438,2.153,11.875,3.316,16.013,8.614
			c1.045,1.338,4.074,0.985,6.034,1.792c1.618,0.667,2.998,1.911,4.494,2.881c2.805,1.819,5.717,3.494,8.4,5.478
			c2.521,1.865,4.749,4.126,7.229,6.054c0.826,0.643,2.037,0.788,3.657,1.372c-6.053,7.061-14.264,10.063-22.134,13.595
			c-0.02,0.375-0.038,0.75-0.058,1.125c2.098,0.173,4.196,0.346,6.851,0.565c0,0.271,0.409,1.576-0.062,2.122
			c-6.374,7.399-12.813,14.744-19.348,22.002c-8.761,9.732-17.618,19.378-26.432,29.063c-4.862,5.342-9.478,10.945-14.729,15.872
			c-1.509,1.416-4.837,0.952-7.346,1.215c-0.997,0.104-2.032-0.161-3.517-0.303c0.721,2.403,1.206,3.848,3.556,2.46
			c0.468-0.276,1.239-0.041,1.87-0.041c-0.024,0.564,0.18,1.318-0.107,1.662c-2.243,2.675-4.625,5.234-6.874,7.905
			c-1.491,1.771-2.972,3.583-4.161,5.555c-0.376,0.625,0.203,1.827,0.503,3.806c6.212-6.628,11.664-12.435,17.097-18.259
			c0.877-0.941,1.414-2.537,3.032-0.577c0.323,0.392,2.172-0.475,4.3-1.008c-2.015-0.941-2.951-1.377-4.238-1.979
			c20.243-22.248,40.343-44.34,60.444-66.431c0.297,0.046,0.595,0.093,0.892,0.139c-0.074,0.96-0.317,1.943-0.183,2.873
			c0.198,1.359,0.668,2.678,1.021,4.014c0.725-0.906,1.669-1.712,2.135-2.735c1.977-4.342,3.828-8.743,5.688-13.138
			c0.626-1.48,1.056-3.048,1.739-4.499c0.426-0.903,1.158-1.663,1.754-2.487c0.688,0.579,1.454,1.088,2.056,1.747
			c4.313,4.724,8.967,9.206,12.712,14.347c1.649,2.265,5.8,3.584,4.347,7.741c-0.052,0.149,0.697,0.524,1.001,0.86
			c3.958,4.36,7.41,8.891,8.541,15.001c0.485,2.626,2.847,4.848,3.848,7.448c2.434,6.317,4.901,12.656,6.728,19.162
			c1.706,6.087,2.744,12.376,3.803,18.624c0.57,3.365,0.564,6.828,0.765,9.523c-1.141,0.904-2.024,1.604-2.908,2.303
			c0.954,0.71,1.908,1.419,3.471,2.582c-0.118,0.376-0.709,1.576-0.824,2.819c-0.108,1.155,0.259,2.362,0.482,3.535
			c0.084,0.442,0.573,0.886,0.509,1.265c-1.629,9.448-3.167,18.916-5.03,28.318c-1.059,5.34-2.621,10.584-4.06,15.843
			c-0.262,0.956-1.023,1.774-1.555,2.657c-0.711-0.559-1.474-1.064-2.125-1.687c-4.667-4.451-9.39-8.848-13.937-13.419
			c-3.37-3.389-6.503-7.014-10.333-11.175c3.614,0,6.272,0,8.931,0c0.183-0.31,0.366-0.619,0.548-0.928
			c-0.845-0.732-1.578-1.709-2.554-2.159c-5.812-2.68-11.691-5.209-17.508-7.874c-0.654-0.3-1.413-1.084-1.518-1.739
			c-0.364-2.273-0.971-2.989-3.392-1.779c-1.179,0.588-3.043-0.196-5.298-0.433c1.375,3.444,2.579,4.542,5.103,1.698
			c4.105,8.751,8.081,17.227,12.058,25.701c0.365-0.101,0.73-0.202,1.097-0.302c0-2.577,0-5.153,0-9.036
			c2.8,2.36,5.028,3.961,6.915,5.894c2.897,2.969,5.493,6.229,8.338,9.251c3.5,3.717,7.397,7.103,10.535,11.095
			c0.986,1.254,0.692,4.278-0.09,6.007c-2.052,4.541-4.539,8.91-7.157,13.16c-1.767,2.87-3.903,5.551-6.129,8.094
			c-6.247,7.139-12.387,14.399-19.051,21.135c-3.459,3.495-7.904,6.029-11.969,8.907c-3.731,2.644-7.52,5.207-11.34,7.721
			c-1.491,0.981-3.086,1.842-4.717,2.567c-6.476,2.879-12.939,5.795-19.495,8.481c-5.646,2.313-11.853,2.598-17.6,4.123
			c-6.588,1.749-13.058,2.873-19.741,2.951c-8.428,0.098-16.978,0.59-25.254-0.609c-5.901-0.855-11.749-2.611-17.733-3.652
			c-5.029-0.874-9.724-3.716-14.541-5.747c-5.233-2.206-10.436-4.484-15.654-6.726c-0.335-0.144-0.751-0.154-1.036-0.357
			c-7.762-5.551-15.744-10.828-23.181-16.786c-4.811-3.854-9.045-8.512-13.121-13.173c-3.319-3.795-5.581-8.568-9.112-12.111
			c-4.072-4.086-6.332-8.968-8.678-13.987c-1.504-3.22-4.548-6.076-4.99-9.353c-0.617-4.582-3.409-8.002-4.88-12.041
			c-2.215-6.08-3.144-12.348-4.566-18.519c-1.227-5.32-1.339-10.895-2.005-16.349C85.463,171.332,85.056,170.339,84.975,170.043z
			 M231.615,100.871c0.435-0.057,0.868-0.115,1.303-0.173c0.961,2.287,2.379,4.496,2.785,6.877c0.761,4.475,2.648,5.468,6.306,3.13
			c-1.27-2.356-2.641-4.622-3.73-7.016c-0.832-1.827-0.902-3.197,1.686-4.302c1.635-0.698,3.187-3.233,3.394-5.098
			c0.156-1.406-1.598-3.995-2.995-4.414c-3.646-1.094-7.563-1.286-12.24-1.963c0.804,2.612,1.857,4.183,1.576,5.461
			c-0.925,4.21-2.365,8.305-3.541,12.462c-0.512,1.809-0.864,3.662-1.289,5.495c1.708,0,3.417,0,4.311,0
			C230.113,107.329,230.864,104.1,231.615,100.871z M219.25,147.539c0.744,0,2.083,0.156,3.367-0.04
			c1.655-0.251,3.269-0.785,5.744-1.41c-1.406-1.125-1.681-1.538-1.971-1.548c-4.194-0.159-8.393-0.359-12.584-0.281
			c-0.636,0.012-1.246,1.374-1.869,2.11c1.075,0.559,2.099,1.368,3.241,1.602C216.215,148.185,217.38,147.771,219.25,147.539z
			 M101.507,155.293c1.393,0,3.186,0.198,4.893-0.101c0.65-0.113,1.402-1.316,1.535-2.117c0.083-0.502-1.025-1.767-1.386-1.69
			c-3.405,0.728-6.771,1.645-10.131,2.566c-0.901,0.247-1.759,0.667-2.612,1.063c-0.601,0.278-1.25,0.563-1.69,1.024
			c-0.168,0.176,0.141,1.214,0.311,1.235c0.676,0.085,1.402,0.002,2.075-0.161C96.7,156.579,98.883,155.981,101.507,155.293z
			 M152.073,145.871c-0.265,4.554,0.016,4.713,3.156,3.576c1.85-0.669,3.893-0.819,5.858-1.146c0.958-0.159,1.938-0.188,2.907-0.275
			c-0.289-1.043-0.578-2.087-0.597-2.154C159.127,145.871,155.579,145.871,152.073,145.871z M129.43,173.54
			c-2.211-0.453-3.443-0.591-4.601-0.963c-4.502-1.448-6.942-0.271-6.917,3.924c1.403-0.827,2.583-1.524,3.764-2.221
			c-0.069,0.379-0.138,0.758-0.207,1.138c2.542,0.649,5.084,1.3,8.288,2.12C129.6,175.612,129.49,174.275,129.43,173.54z
			 M189.553,147.885c3.755,0,6.696,0.125,9.613-0.084c0.768-0.055,1.461-1.142,2.188-1.756c-0.755-0.492-1.494-1.372-2.268-1.405
			c-2.292-0.095-4.648,0.5-6.886,0.174C188.014,144.205,188.872,146.158,189.553,147.885z M144.506,147.352
			c-3.655,0.224-6.513,0.304-9.342,0.628c-0.863,0.099-1.838,0.719-2.374,1.404c-0.21,0.268,0.632,1.983,1.017,1.991
			c2.263,0.048,4.533-0.207,6.799-0.375c1.04-0.078,2.078-0.192,3.9-0.363C144.506,149.729,144.506,148.201,144.506,147.352z
			 M276.944,145.982c-1.295-0.295-2.578-0.755-3.887-0.847c-2.136-0.148-4.31-0.208-6.415,0.082c-0.359,0.05-0.45,2.037-0.653,3.068
			c3.721,0.209,6.895,0.554,10.065,0.513C278.624,148.765,278.974,147.372,276.944,145.982z M144.595,176.636
			c-0.171-5.059-4.072-0.516-5.866-2.331c-0.168-0.17-1.37,0.682-2.092,1.058c0.553,0.873,1.014,2.412,1.676,2.505
			c2.938,0.409,5.936,0.521,8.905,0.442c0.539-0.014,1.19-1.362,1.492-2.202c0.127-0.354-0.519-0.985-0.814-1.49
			C146.946,175.198,145.998,175.778,144.595,176.636z M284.752,148.702c4.226,0.301,7.573,0.539,11.465,0.817
			c0.074-0.646,0.212-1.834,0.341-2.955c-3.945-0.228-7.421-0.429-11.444-0.662C285.044,146.441,284.877,147.734,284.752,148.702z
			 M290.138,176.501c0.053,0.422,0.105,0.845,0.158,1.268c4.031,0,8.064,0.039,12.093-0.079c0.307-0.009,0.951-1.284,0.783-1.717
			c-0.255-0.657-1.485-1.631-1.607-1.54c-1.652,1.233-3.471,1.112-5.36,1.053c-1.126-0.036-2.266,0.324-3.397,0.52
			C291.915,176.159,291.027,176.335,290.138,176.501z M154.199,177.208c0.381,0.421,0.528,0.738,0.708,0.759
			c3.775,0.422,7.551,0.861,11.34,1.089c0.241,0.015,0.583-1.661,0.878-2.551c-2.247-0.298-4.488-0.676-6.745-0.861
			c-1.242-0.103-2.511,0.119-3.769,0.193c-0.04-0.267-0.08-0.534-0.121-0.802C155.787,175.702,155.083,176.369,154.199,177.208z
			 M310.328,151.089c0.853-1.545,1.253-3.013-1.528-3.333c-2.871-0.331-5.753-0.571-9.167-0.904
			c-0.125,0.701-0.331,1.856-0.378,2.12C303.228,149.731,306.617,150.379,310.328,151.089z M356.137,157.617
			c-0.349-0.735-0.542-2.088-1.235-2.431c-2.202-1.085-4.565-1.875-6.921-2.598c-0.647-0.199-1.713-0.006-2.181,0.436
			c-0.516,0.487-0.763,1.479-0.72,2.229c0.017,0.296,1.106,0.652,1.747,0.771C349.647,156.551,352.482,157,356.137,157.617z
			 M182.535,148.117c-0.085-1.086-0.178-2.27-0.271-3.453c-0.267-0.168-0.535-0.335-0.801-0.503
			c-1.674,2.726-6.701-1.986-7.138,3.957C176.892,148.117,179.313,148.117,182.535,148.117z M119.309,152.936
			c2.248-0.27,4.133-0.312,5.895-0.801c0.707-0.195,1.142-1.372,1.701-2.102c-0.789-0.569-1.721-1.744-2.342-1.598
			c-2.084,0.491-4.057,1.452-6.311,2.326C118.673,151.629,119.126,152.561,119.309,152.936z M208.917,148.758
			c0.332-0.143,0.664-0.286,0.996-0.429c0.236-1.08,0.474-2.16,0.711-3.24c-1.018-0.051-2.041-0.064-3.055-0.164
			c-0.85-0.084-1.698-0.411-2.534-0.369c-0.78,0.04-1.968,0.22-2.201,0.708c-0.266,0.559,0.088,1.882,0.603,2.224
			c0.664,0.439,1.783,0.391,2.649,0.236c0.395-0.07,0.654-0.9,1.336-1.931C208.04,147.016,208.479,147.887,208.917,148.758z
			 M186.817,177.597c-2.615-0.435-4.725-0.872-6.856-1.071c-0.484-0.046-1.254,0.634-1.5,1.163
			c-0.175,0.376,0.242,1.495,0.507,1.534c2.128,0.319,4.28,0.521,6.43,0.586C185.694,179.818,186.018,178.881,186.817,177.597z
			 M255.162,144.854c-2.78,0-5.103,0-7.425,0c-0.24,0.289-0.48,0.579-0.719,0.869c0.94,0.773,1.787,1.977,2.845,2.206
			c1.243,0.269,2.669-0.308,4.732-0.631C254.628,147.153,254.857,146.167,255.162,144.854z M329.772,171.452
			c-1.819,0.536-2.984,0.832-4.113,1.228c-0.945,0.331-1.85,0.78-2.772,1.177c0.579,0.879,1.158,1.758,1.651,2.508
			c1.401-0.861,2.256-1.566,3.236-1.935c0.783-0.295,1.72-0.182,2.588-0.249C330.154,173.217,329.946,172.253,329.772,171.452z
			 M285.178,178.818c0.002-0.074,0.003-0.148,0.004-0.222c0.489,0.038,1.075,0.266,1.45,0.075c0.824-0.418,1.542-1.046,2.305-1.588
			c-0.766-0.34-1.504-0.852-2.304-0.98c-1.183-0.191-2.44-0.289-3.607-0.087c-0.775,0.135-1.447,0.864-2.165,1.327
			c0.601,0.491,1.133,1.193,1.82,1.418C283.438,179.009,284.34,178.818,285.178,178.818z M171.763,179.34
			c0.117-0.289,0.233-0.577,0.35-0.867c0.843,0.306,1.667,0.753,2.534,0.867c0.612,0.081,1.555-0.097,1.855-0.513
			c0.32-0.447,0.307-1.489-0.019-1.94c-0.302-0.419-1.204-0.516-1.852-0.546c-0.871-0.042-1.752,0.109-2.627,0.189
			c-0.926,0.085-1.871,0.107-2.763,0.335c-0.193,0.049-0.379,1.185-0.253,1.255C169.867,178.61,170.828,178.951,171.763,179.34z
			 M225.434,179.886c0.126,0.256,0.251,0.512,0.377,0.768c0.964-0.558,1.93-1.114,2.895-1.672c-1.078-0.46-2.131-1.002-3.244-1.354
			c-0.791-0.249-1.687-0.414-2.49-0.298c-0.752,0.109-1.444,0.638-2.162,0.982c0.579,0.661,1.052,1.675,1.765,1.89
			C223.419,180.457,224.472,180.022,225.434,179.886z M247.509,178.771c-0.129-0.26-0.258-0.521-0.388-0.78
			c-1.876-0.31-3.75-0.794-5.631-0.833c-0.651-0.014-1.325,1.077-1.988,1.663c0.677,0.47,1.307,1.219,2.043,1.344
			c1.148,0.195,2.402,0.12,3.547-0.129C245.949,179.85,246.707,179.21,247.509,178.771z M107.985,170.604
			c0.814,1.552,1.174,3.278,1.94,3.483c1.646,0.44,3.501,0.097,5.271,0.073c-0.081-0.96-0.162-1.921-0.161-1.911
			C112.438,171.644,110.644,171.225,107.985,170.604z M269.942,179.717c-0.112-1.037-0.243-2.255-0.375-3.473
			c-2.37,0.478-4.739,0.954-7.107,1.432c0.094,0.379,0.189,0.758,0.283,1.137C264.856,179.077,266.97,179.343,269.942,179.717z
			 M317.665,151.367c2.36,0.341,4.207,0.609,6.732,0.975c-0.071-1.24-0.139-2.416-0.206-3.59c-1.072,0.513-2.145,1.025-3.395,1.622
			c-0.306-0.827-0.688-1.861-1.071-2.896c-0.464,0.353-0.928,0.706-1.392,1.059C318.123,149.43,317.912,150.322,317.665,151.367z
			 M218.884,180.09c-0.899-1.806-6.076-3.336-7.004-2.406c-0.291,0.293-0.52,0.961-0.381,1.292c0.19,0.454,0.739,1.041,1.163,1.064
			C214.659,180.151,216.665,180.09,218.884,180.09z M195.604,178.666c-0.176-0.282-0.351-0.563-0.526-0.845
			c-2.478,0-4.955,0-7.432,0c-0.06,0.451-0.121,0.902-0.181,1.354c2.161,0.272,4.317,0.643,6.486,0.748
			C194.481,179.949,195.052,179.108,195.604,178.666z M126.96,150.507c0.371,0.577,0.742,1.154,1.113,1.73
			c1.22-0.663,2.439-1.326,3.66-1.989c-0.498-0.664-1.304-1.96-1.443-1.892C129.111,148.932,128.054,149.757,126.96,150.507z
			 M149.045,151.167c0.534-0.392,1.068-0.784,1.603-1.176c-0.623-1.239-1.245-2.477-1.868-3.715
			c-0.782,0.612-1.563,1.223-2.345,1.834C147.306,149.129,148.175,150.147,149.045,151.167z M98.362,170.951
			c0.409,0.628,0.817,1.255,1.227,1.882c1.092-0.695,2.25-1.317,3.21-2.162c0.155-0.136-0.566-1.269-0.882-1.94
			C100.732,169.47,99.547,170.211,98.362,170.951z M118.398,150.431c-0.55-0.442-1.1-0.884-1.649-1.327
			c-0.823,1.207-1.736,2.371-2.374,3.668c-0.098,0.2,1.074,1.023,1.658,1.558C116.821,153.031,117.61,151.731,118.398,150.431z"/>
		<path fill-rule="evenodd" clip-rule="evenodd" fill="#FFFFFF" d="M542.539,245.735c-1.441-0.08-2.884-0.16-4.338-0.241
			c-0.957-3.007,0.93-3.469,2.829-3.168c0.946,0.151,1.703,1.503,2.545,2.311C543.23,245.003,542.885,245.369,542.539,245.735z"/>
		<path fill-rule="evenodd" clip-rule="evenodd" fill="#FFFFFF" d="M432.479,245.328c-1.766,0-3.533,0-5.3,0
			c-0.188-0.295-0.377-0.591-0.564-0.887c0.805-0.716,1.617-2.025,2.414-2.016c1.325,0.016,2.64,0.876,3.959,1.382
			C432.817,244.314,432.648,244.821,432.479,245.328z"/>
		<path fill-rule="evenodd" clip-rule="evenodd" d="M231.615,100.871c-0.751,3.229-1.502,6.458-2.434,10.46
			c-0.895,0-2.603,0-4.311,0c0.425-1.833,0.776-3.686,1.289-5.495c1.176-4.157,2.616-8.252,3.541-12.462
			c0.281-1.278-0.772-2.85-1.576-5.461c4.676,0.677,8.594,0.869,12.24,1.963c1.397,0.419,3.15,3.008,2.995,4.414
			c-0.208,1.865-1.759,4.4-3.394,5.098c-2.588,1.105-2.518,2.476-1.686,4.302c1.09,2.394,2.461,4.66,3.73,7.016
			c-3.657,2.338-5.544,1.345-6.306-3.13c-0.406-2.381-1.824-4.59-2.785-6.877C232.483,100.756,232.05,100.813,231.615,100.871z
			 M232.244,98.591c3.594,0.428,7.246-1.622,6.931-3.93c-0.145-1.055-2.042-2.684-3.111-2.658
			C231.709,92.11,233.071,95.865,232.244,98.591z"/>
		<path fill-rule="evenodd" clip-rule="evenodd" d="M219.25,147.539c-1.87,0.232-3.036,0.646-4.072,0.434
			c-1.142-0.234-2.166-1.043-3.241-1.602c0.623-0.737,1.232-2.099,1.869-2.11c4.192-0.078,8.39,0.122,12.584,0.281
			c0.29,0.011,0.565,0.423,1.971,1.548c-2.476,0.625-4.089,1.158-5.744,1.41C221.333,147.694,219.995,147.539,219.25,147.539z"/>
		<path fill-rule="evenodd" clip-rule="evenodd" d="M101.507,155.293c-2.625,0.688-4.808,1.285-7.006,1.82
			c-0.673,0.163-1.399,0.246-2.075,0.161c-0.17-0.021-0.479-1.059-0.311-1.235c0.44-0.461,1.089-0.746,1.69-1.024
			c0.853-0.396,1.711-0.816,2.612-1.063c3.361-0.921,6.727-1.839,10.131-2.566c0.36-0.077,1.469,1.188,1.386,1.69
			c-0.133,0.8-0.884,2.003-1.535,2.117C104.693,155.491,102.9,155.293,101.507,155.293z"/>
		<path fill-rule="evenodd" clip-rule="evenodd" d="M152.073,145.871c3.506,0,7.054,0,11.324,0c0.019,0.067,0.308,1.111,0.597,2.154
			c-0.969,0.088-1.949,0.117-2.907,0.275c-1.966,0.327-4.009,0.477-5.858,1.146C152.089,150.584,151.808,150.425,152.073,145.871z"
			/>
		<path fill-rule="evenodd" clip-rule="evenodd" d="M129.43,173.54c0.061,0.736,0.17,2.073,0.328,3.998
			c-3.204-0.82-5.746-1.471-8.288-2.12c0.069-0.38,0.138-0.759,0.207-1.138c-1.181,0.696-2.361,1.394-3.764,2.221
			c-0.025-4.195,2.415-5.372,6.917-3.924C125.986,172.948,127.219,173.086,129.43,173.54z"/>
		<path fill-rule="evenodd" clip-rule="evenodd" d="M189.553,147.885c-0.682-1.727-1.539-3.68,2.648-3.071
			c2.237,0.326,4.594-0.27,6.886-0.174c0.774,0.033,1.513,0.913,2.268,1.405c-0.728,0.614-1.42,1.701-2.188,1.756
			C196.249,148.009,193.308,147.885,189.553,147.885z"/>
		<path fill-rule="evenodd" clip-rule="evenodd" d="M144.506,147.352c0,0.85,0,2.378,0,3.285c-1.822,0.171-2.86,0.285-3.9,0.363
			c-2.267,0.168-4.536,0.423-6.799,0.375c-0.385-0.008-1.227-1.723-1.017-1.991c0.536-0.686,1.511-1.306,2.374-1.404
			C137.993,147.656,140.851,147.575,144.506,147.352z"/>
		<path fill-rule="evenodd" clip-rule="evenodd" d="M276.944,145.982c2.029,1.39,1.68,2.783-0.89,2.816
			c-3.17,0.041-6.344-0.304-10.065-0.513c0.204-1.032,0.294-3.019,0.653-3.068c2.104-0.29,4.279-0.23,6.415-0.082
			C274.367,145.227,275.649,145.687,276.944,145.982z"/>
		<path fill-rule="evenodd" clip-rule="evenodd" d="M144.595,176.636c1.402-0.857,2.351-1.438,3.3-2.019
			c0.295,0.505,0.941,1.137,0.814,1.49c-0.302,0.84-0.953,2.188-1.492,2.202c-2.969,0.078-5.967-0.033-8.905-0.442
			c-0.662-0.093-1.123-1.632-1.676-2.505c0.722-0.376,1.924-1.228,2.092-1.058C140.523,176.12,144.424,171.577,144.595,176.636z"/>
		<path fill-rule="evenodd" clip-rule="evenodd" d="M284.752,148.702c0.125-0.968,0.292-2.261,0.361-2.8
			c4.023,0.233,7.499,0.434,11.444,0.662c-0.129,1.121-0.267,2.31-0.341,2.955C292.325,149.241,288.978,149.003,284.752,148.702z"/>
		<path fill-rule="evenodd" clip-rule="evenodd" d="M290.138,176.501c0.89-0.166,1.777-0.342,2.669-0.496
			c1.132-0.195,2.271-0.556,3.397-0.52c1.89,0.06,3.708,0.181,5.36-1.053c0.122-0.091,1.353,0.883,1.607,1.54
			c0.168,0.433-0.477,1.708-0.783,1.717c-4.028,0.118-8.062,0.079-12.093,0.079C290.243,177.346,290.19,176.923,290.138,176.501z"/>
		<path fill-rule="evenodd" clip-rule="evenodd" d="M154.199,177.208c0.885-0.839,1.588-1.506,2.292-2.173
			c0.041,0.268,0.081,0.535,0.121,0.802c1.257-0.074,2.526-0.296,3.769-0.193c2.256,0.186,4.498,0.563,6.745,0.861
			c-0.295,0.89-0.637,2.565-0.878,2.551c-3.789-0.228-7.564-0.667-11.34-1.089C154.727,177.946,154.58,177.629,154.199,177.208z"/>
		<path fill-rule="evenodd" clip-rule="evenodd" d="M310.328,151.089c-3.711-0.71-7.101-1.357-11.073-2.117
			c0.047-0.264,0.253-1.419,0.378-2.12c3.414,0.333,6.296,0.573,9.167,0.904C311.581,148.076,311.181,149.544,310.328,151.089z"/>
		<path fill-rule="evenodd" clip-rule="evenodd" d="M356.137,157.617c-3.654-0.617-6.489-1.066-9.31-1.592
			c-0.641-0.12-1.73-0.475-1.747-0.771c-0.043-0.75,0.204-1.742,0.72-2.229c0.468-0.442,1.533-0.635,2.181-0.436
			c2.355,0.724,4.719,1.513,6.921,2.598C355.595,155.529,355.788,156.882,356.137,157.617z"/>
		<path fill-rule="evenodd" clip-rule="evenodd" d="M182.535,148.117c-3.222,0-5.643,0-8.209,0c0.437-5.943,5.464-1.23,7.138-3.957
			c0.267,0.168,0.534,0.335,0.801,0.503C182.357,145.848,182.449,147.031,182.535,148.117z"/>
		<path fill-rule="evenodd" clip-rule="evenodd" d="M119.309,152.936c-0.182-0.375-0.635-1.307-1.057-2.175
			c2.254-0.874,4.227-1.835,6.311-2.326c0.621-0.146,1.553,1.028,2.342,1.598c-0.559,0.73-0.994,1.907-1.701,2.102
			C123.442,152.624,121.557,152.666,119.309,152.936z"/>
		<path fill-rule="evenodd" clip-rule="evenodd" d="M208.917,148.758c-0.439-0.871-0.878-1.742-1.494-2.966
			c-0.682,1.031-0.941,1.861-1.336,1.931c-0.866,0.155-1.986,0.204-2.649-0.236c-0.515-0.341-0.869-1.665-0.603-2.224
			c0.232-0.488,1.42-0.668,2.201-0.708c0.836-0.042,1.684,0.285,2.534,0.369c1.014,0.1,2.037,0.113,3.055,0.164
			c-0.237,1.08-0.475,2.16-0.711,3.24C209.581,148.472,209.249,148.615,208.917,148.758z"/>
		<path fill-rule="evenodd" clip-rule="evenodd" d="M186.817,177.597c-0.799,1.284-1.124,2.222-1.419,2.212
			c-2.15-0.064-4.302-0.267-6.43-0.586c-0.265-0.039-0.682-1.158-0.507-1.534c0.246-0.529,1.016-1.209,1.5-1.163
			C182.093,176.725,184.202,177.162,186.817,177.597z"/>
		<path fill-rule="evenodd" clip-rule="evenodd" d="M255.162,144.854c-0.304,1.312-0.533,2.299-0.567,2.443
			c-2.063,0.323-3.49,0.9-4.732,0.631c-1.058-0.229-1.904-1.433-2.845-2.206c0.239-0.29,0.479-0.58,0.719-0.869
			C250.059,144.854,252.382,144.854,255.162,144.854z"/>
		<path fill-rule="evenodd" clip-rule="evenodd" d="M329.772,171.452c0.174,0.801,0.382,1.765,0.59,2.729
			c-0.868,0.067-1.805-0.046-2.588,0.249c-0.98,0.368-1.835,1.073-3.236,1.935c-0.493-0.75-1.072-1.629-1.651-2.508
			c0.923-0.396,1.827-0.846,2.772-1.177C326.788,172.284,327.953,171.988,329.772,171.452z"/>
		<path fill-rule="evenodd" clip-rule="evenodd" d="M285.178,178.818c-0.838,0-1.739,0.19-2.497-0.057
			c-0.688-0.225-1.22-0.927-1.82-1.418c0.718-0.463,1.39-1.192,2.165-1.327c1.167-0.202,2.425-0.104,3.607,0.087
			c0.8,0.129,1.538,0.641,2.304,0.98c-0.763,0.542-1.48,1.17-2.305,1.588c-0.375,0.19-0.961-0.037-1.45-0.075
			C285.181,178.67,285.18,178.744,285.178,178.818z"/>
		<path fill-rule="evenodd" clip-rule="evenodd" d="M171.763,179.34c-0.935-0.389-1.896-0.729-2.774-1.22
			c-0.126-0.07,0.061-1.206,0.253-1.255c0.892-0.228,1.836-0.25,2.763-0.335c0.875-0.08,1.757-0.231,2.627-0.189
			c0.647,0.03,1.549,0.127,1.852,0.546c0.326,0.451,0.339,1.493,0.019,1.94c-0.3,0.416-1.243,0.594-1.855,0.513
			c-0.868-0.114-1.691-0.562-2.534-0.867C171.996,178.763,171.88,179.051,171.763,179.34z"/>
		<path fill-rule="evenodd" clip-rule="evenodd" d="M225.434,179.886c-0.962,0.137-2.015,0.571-2.858,0.316
			c-0.713-0.215-1.187-1.229-1.765-1.89c0.718-0.345,1.409-0.873,2.162-0.982c0.803-0.116,1.699,0.049,2.49,0.298
			c1.113,0.352,2.166,0.894,3.244,1.354c-0.964,0.558-1.93,1.114-2.895,1.672C225.685,180.397,225.56,180.142,225.434,179.886z"/>
		<path fill-rule="evenodd" clip-rule="evenodd" d="M247.509,178.771c-0.802,0.438-1.56,1.078-2.417,1.265
			c-1.146,0.249-2.399,0.324-3.547,0.129c-0.736-0.125-1.366-0.874-2.043-1.344c0.663-0.586,1.337-1.677,1.988-1.663
			c1.882,0.039,3.755,0.523,5.631,0.833C247.25,178.251,247.379,178.512,247.509,178.771z"/>
		<path fill-rule="evenodd" clip-rule="evenodd" d="M107.985,170.604c2.658,0.621,4.453,1.04,7.05,1.646
			c-0.001-0.01,0.08,0.951,0.161,1.911c-1.77,0.023-3.625,0.367-5.271-0.073C109.159,173.882,108.8,172.156,107.985,170.604z"/>
		<path fill-rule="evenodd" clip-rule="evenodd" d="M269.942,179.717c-2.972-0.374-5.085-0.64-7.199-0.904
			c-0.094-0.379-0.189-0.758-0.283-1.137c2.369-0.478,4.738-0.954,7.107-1.432C269.699,177.462,269.83,178.68,269.942,179.717z"/>
		<path fill-rule="evenodd" clip-rule="evenodd" d="M317.665,151.367c0.247-1.045,0.458-1.938,0.669-2.831
			c0.464-0.353,0.928-0.706,1.392-1.059c0.383,1.034,0.766,2.069,1.071,2.896c1.25-0.597,2.322-1.109,3.395-1.622
			c0.067,1.175,0.135,2.35,0.206,3.59C321.872,151.976,320.025,151.708,317.665,151.367z"/>
		<path fill-rule="evenodd" clip-rule="evenodd" d="M218.884,180.09c-2.22,0-4.226,0.062-6.222-0.05
			c-0.424-0.023-0.973-0.61-1.163-1.064c-0.139-0.331,0.09-0.999,0.381-1.292C212.809,176.754,217.985,178.284,218.884,180.09z"/>
		<path fill-rule="evenodd" clip-rule="evenodd" d="M195.604,178.666c-0.552,0.442-1.124,1.283-1.653,1.257
			c-2.169-0.105-4.325-0.476-6.486-0.748c0.061-0.451,0.121-0.902,0.181-1.354c2.477,0,4.955,0,7.432,0
			C195.253,178.103,195.429,178.384,195.604,178.666z"/>
		<path fill-rule="evenodd" clip-rule="evenodd" d="M126.96,150.507c1.094-0.75,2.15-1.576,3.329-2.151
			c0.139-0.068,0.946,1.229,1.443,1.892c-1.22,0.664-2.44,1.327-3.66,1.989C127.702,151.661,127.332,151.084,126.96,150.507z"/>
		<path fill-rule="evenodd" clip-rule="evenodd" d="M149.045,151.167c-0.87-1.019-1.74-2.038-2.61-3.057
			c0.782-0.612,1.563-1.223,2.345-1.834c0.623,1.239,1.245,2.477,1.868,3.715C150.114,150.383,149.58,150.775,149.045,151.167z"/>
		<path fill-rule="evenodd" clip-rule="evenodd" d="M98.362,170.951c1.185-0.74,2.37-1.48,3.555-2.22
			c0.316,0.671,1.037,1.804,0.882,1.94c-0.96,0.845-2.118,1.467-3.21,2.162C99.18,172.206,98.771,171.579,98.362,170.951z"/>
		<path fill-rule="evenodd" clip-rule="evenodd" d="M118.398,150.431c-0.788,1.3-1.577,2.6-2.365,3.9
			c-0.584-0.535-1.756-1.358-1.658-1.558c0.638-1.298,1.551-2.461,2.374-3.668C117.298,149.547,117.848,149.989,118.398,150.431z"/>
		<path fill-rule="evenodd" clip-rule="evenodd" fill="#FFFFFF" d="M232.244,98.591c0.827-2.726-0.535-6.481,3.819-6.588
			c1.069-0.026,2.967,1.603,3.111,2.658C239.489,96.969,235.837,99.019,232.244,98.591z"/>
	</g>
</g>
</svg>
