<?xml version="1.0" encoding="utf-8"?>
<!-- Generator: Adobe Illustrator 16.0.0, SVG Export Plug-In . SVG Version: 6.00 Build 0)  -->
<!DOCTYPE svg PUBLIC "-//W3C//DTD SVG 1.1//EN" "http://www.w3.org/Graphics/SVG/1.1/DTD/svg11.dtd">
<svg version="1.1" id="Layer_1" xmlns="http://www.w3.org/2000/svg" xmlns:xlink="http://www.w3.org/1999/xlink" x="0px" y="0px"
	 width="500px" height="500px" viewBox="0 0 500 500" enable-background="new 0 0 500 500" xml:space="preserve">
<g>
	<g>
		<path fill-rule="evenodd" clip-rule="evenodd" fill="#FFFFFF" d="M10.75,472.062c0-147.771,0-295.541,0-443.312
			c160.272,0,320.545,0,480.817,0c0,147.771,0,295.541,0,443.312C331.295,472.062,171.022,472.062,10.75,472.062z M246.317,437.62
			c0.031-0.335,0.062-0.669,0.094-1.004c2.246,0,4.493,0,6.738,0.001c16.505,0.006,32.784-1.881,48.815-5.833
			c0.477-0.117,1.226-0.254,1.336-0.564c1.225-3.441,4.39-2.433,6.837-3.14c4.585-1.325,9.288-2.439,13.634-4.344
			c5.298-2.319,10.354-5.233,15.379-8.125c6.841-3.937,14.221-6.867,20.166-12.457c3.94-3.705,8.978-6.229,13.438-9.402
			c2.027-1.442,3.975-3.051,5.731-4.81c3.705-3.707,7.301-7.526,10.862-11.373c2.218-2.395,4.351-4.873,6.41-7.405
			c2.113-2.598,4.176-5.244,6.11-7.977c4.741-6.697,9.667-13.288,13.977-20.258c2.367-3.829,2.74-9.149,5.626-12.336
			c3.552-3.919,3.562-8.787,5.718-12.977c1.691-3.288,2.339-7.104,3.538-10.656c1.68-4.979,3.765-9.846,5.08-14.914
			c1.533-5.914,2.766-11.954,3.506-18.015c0.855-7.006,1.276-14.09,1.425-21.15c0.112-5.368-0.368-10.76-0.817-16.123
			c-0.585-6.985,0.732-13.984-1.979-21c-2.302-5.959-2.574-12.676-4.081-18.978c-1.377-5.758-3.184-11.415-4.843-17.104
			c-0.785-2.694-1.445-5.458-2.561-8.017c-1.624-3.729-3.649-7.283-5.43-10.947c-2.085-4.288-3.748-8.825-6.217-12.873
			c-3.186-5.221-6.977-10.073-10.531-15.066c-2.854-4.008-5.535-8.164-8.672-11.939c-3.608-4.345-7.984-8.077-11.389-12.559
			c-4.273-5.626-9.699-9.761-15.254-13.888c-2.146-1.595-3.73-3.979-5.939-5.455c-5.794-3.872-11.754-7.501-17.718-11.112
			c-4.939-2.99-9.772-6.285-15.026-8.595c-6.705-2.948-13.787-5.04-20.705-7.505c-0.353-0.125-0.69-0.292-1.038-0.434
			c-4.018-1.646-7.917-3.749-12.081-4.832c-6.436-1.673-13.006-3.026-19.604-3.823c-7.91-0.955-15.901-1.399-23.871-1.681
			c-14.149-0.5-28.218,0.19-42.107,3.37c-4.481,1.027-9.262,0.848-13.669,2.071c-5.879,1.631-11.569,3.991-17.263,6.233
			c-4.149,1.634-8.157,3.623-12.259,5.38c-3.906,1.672-8.102,2.827-11.728,4.961c-6.063,3.569-11.738,7.795-17.648,11.632
			c-3.406,2.211-6.564,4.607-9.537,7.445c-4.146,3.957-9.382,6.792-13.428,10.83c-5.388,5.378-10.078,11.456-15.074,17.227
			c-1.604,1.853-3.223,3.693-4.846,5.529c-1.146,1.294-2.438,2.479-3.439,3.876c-1.745,2.436-3.295,5.008-4.961,7.501
			c-2.6,3.89-5.263,7.738-7.802,11.667c-0.362,0.559-0.095,1.489-0.279,2.207c-0.173,0.673-0.5,1.326-0.859,1.928
			c-1.67,2.805-3.64,5.467-5.002,8.411c-1.78,3.847-3.025,7.937-4.618,11.874c-1.348,3.329-3.271,6.478-4.215,9.905
			c-1.692,6.141-2.802,12.44-4.227,18.657c-1.466,6.396-3.962,12.588-3.691,19.319c0.035,0.869-0.17,1.744-0.175,2.616
			c-0.078,13.39-0.139,26.78-0.21,40.169c-0.007,1.307-0.279,2.652-0.05,3.912c0.82,4.517,2.066,8.97,2.656,13.512
			c0.716,5.513,1.312,10.915,3.636,16.146c1.932,4.348,2.637,9.226,4.1,13.8c1.695,5.299,3.573,10.541,5.503,15.759
			c0.313,0.849,1.302,1.448,1.983,2.158c0.472,0.492,1.145,0.894,1.398,1.478c1.63,3.764,2.998,7.65,4.804,11.324
			c1.023,2.08,3.319,3.643,3.983,5.77c1.399,4.479,3.902,7.972,7.238,11.134c1.685,1.599,2.851,3.734,4.315,5.578
			c2.776,3.495,5.477,7.062,8.438,10.396c2.434,2.741,5.677,4.862,7.703,7.843c3.089,4.546,7.297,7.626,11.542,10.81
			c2.066,1.55,3.98,3.306,5.939,4.997c2.191,1.892,4.177,4.086,6.573,5.662c3.282,2.158,6.931,3.753,10.307,5.781
			c4.736,2.846,9.131,6.367,14.095,8.701c7.807,3.671,15.939,6.662,23.995,9.784c1.923,0.745,4.169,0.635,6.122,1.328
			c4.748,1.684,9.272,4.552,14.131,5.259C218.274,434.916,232.32,436.104,246.317,437.62z"/>
		<path fill-rule="evenodd" clip-rule="evenodd" d="M246.317,437.62c-13.997-1.517-28.042-2.704-41.966-4.729
			c-4.859-0.707-9.384-3.575-14.131-5.259c-1.952-0.693-4.199-0.583-6.122-1.328c-8.056-3.122-16.188-6.113-23.995-9.784
			c-4.964-2.334-9.359-5.855-14.095-8.701c-3.376-2.028-7.025-3.623-10.307-5.781c-2.396-1.576-4.381-3.771-6.573-5.662
			c-1.958-1.691-3.873-3.447-5.939-4.997c-4.245-3.184-8.453-6.264-11.542-10.81c-2.026-2.98-5.269-5.102-7.703-7.843
			c-2.96-3.334-5.662-6.9-8.438-10.396c-1.464-1.844-2.63-3.979-4.315-5.578c-3.335-3.162-5.839-6.654-7.238-11.134
			c-0.664-2.127-2.96-3.689-3.983-5.77c-1.806-3.674-3.174-7.561-4.804-11.324c-0.253-0.584-0.926-0.985-1.398-1.478
			c-0.681-0.71-1.669-1.31-1.983-2.158c-1.93-5.218-3.808-10.46-5.503-15.759c-1.463-4.574-2.168-9.452-4.1-13.8
			c-2.324-5.23-2.92-10.633-3.636-16.146c-0.589-4.542-1.836-8.995-2.656-13.512c-0.229-1.26,0.043-2.605,0.05-3.912
			c0.071-13.39,0.132-26.779,0.21-40.169c0.005-0.872,0.21-1.748,0.175-2.616c-0.271-6.73,2.225-12.923,3.691-19.319
			c1.425-6.216,2.534-12.516,4.227-18.657c0.944-3.428,2.868-6.576,4.215-9.905c1.593-3.937,2.838-8.027,4.618-11.874
			c1.362-2.944,3.332-5.606,5.002-8.411c0.359-0.603,0.687-1.255,0.859-1.928c0.184-0.717-0.083-1.648,0.279-2.207
			c2.54-3.928,5.203-7.776,7.802-11.667c1.666-2.493,3.216-5.065,4.961-7.501c1-1.397,2.293-2.582,3.439-3.876
			c1.624-1.835,3.242-3.676,4.846-5.529c4.996-5.771,9.686-11.849,15.074-17.227c4.046-4.038,9.282-6.873,13.428-10.83
			c2.973-2.838,6.131-5.234,9.537-7.445c5.911-3.837,11.585-8.063,17.648-11.632c3.626-2.135,7.821-3.289,11.728-4.961
			c4.103-1.757,8.11-3.746,12.259-5.38c5.694-2.242,11.384-4.602,17.263-6.233c4.407-1.224,9.188-1.044,13.669-2.071
			c13.889-3.18,27.958-3.87,42.107-3.37c7.97,0.282,15.961,0.726,23.871,1.681c6.598,0.797,13.168,2.15,19.604,3.823
			c4.164,1.083,8.063,3.186,12.081,4.832c0.348,0.142,0.686,0.308,1.038,0.434c6.918,2.465,14,4.557,20.705,7.505
			c5.254,2.31,10.087,5.605,15.026,8.595c5.964,3.611,11.924,7.24,17.718,11.112c2.209,1.476,3.793,3.86,5.939,5.455
			c5.555,4.127,10.98,8.262,15.254,13.888c3.404,4.482,7.78,8.214,11.389,12.559c3.137,3.775,5.818,7.931,8.672,11.939
			c3.555,4.994,7.346,9.846,10.531,15.066c2.469,4.048,4.132,8.584,6.217,12.873c1.78,3.664,3.806,7.218,5.43,10.947
			c1.115,2.559,1.775,5.323,2.561,8.017c1.659,5.688,3.466,11.345,4.843,17.104c1.507,6.301,1.779,13.019,4.081,18.978
			c2.712,7.016,1.395,14.015,1.979,21c0.449,5.362,0.93,10.755,0.817,16.123c-0.148,7.061-0.569,14.145-1.425,21.15
			c-0.74,6.061-1.973,12.101-3.506,18.015c-1.315,5.068-3.4,9.936-5.08,14.914c-1.199,3.552-1.847,7.368-3.538,10.656
			c-2.156,4.189-2.166,9.058-5.718,12.977c-2.886,3.187-3.259,8.507-5.626,12.336c-4.31,6.97-9.235,13.561-13.977,20.258
			c-1.935,2.732-3.997,5.379-6.11,7.977c-2.06,2.532-4.192,5.011-6.41,7.405c-3.562,3.847-7.157,7.666-10.862,11.373
			c-1.757,1.759-3.704,3.367-5.731,4.81c-4.46,3.174-9.497,5.697-13.438,9.402c-5.945,5.59-13.325,8.521-20.166,12.457
			c-5.025,2.892-10.081,5.806-15.379,8.125c-4.346,1.904-9.049,3.019-13.634,4.344c-2.447,0.707-5.612-0.302-6.837,3.14
			c-0.11,0.311-0.859,0.447-1.336,0.564c-16.031,3.952-32.311,5.839-48.815,5.833c-2.245-0.001-4.492-0.001-6.738-0.001
			C246.379,436.951,246.348,437.285,246.317,437.62z M152.694,380.926c3.977-4.902,7.083-9.18,10.664-13.017
			c3.409-3.65,7.468-6.906,10.65-10.55c4.976-5.699,10.221-11.126,15.317-16.7c1.917-2.099,3.451-4.546,5.367-6.646
			c3.333-3.654,6.845-7.146,10.25-10.736c3.146-3.316,6.239-6.683,9.378-10.005c2.197-2.325,5.377-4.257,6.411-7.007
			c1.292-3.434,4.147-5.112,6.155-7.601c4.122-5.104,9.05-9.552,13.58-14.333c6.7-7.071,13.442-14.109,19.912-21.388
			c1.11-1.25,1.75-3.887,1.238-5.429c-1.43-4.301-3.889-8.257-5.367-12.548c-2.074-6.019-3.473-12.268-5.452-18.323
			c-2.27-6.942-5.147-13.694-7.222-20.688c-1.715-5.779-3.007-11.612-5.168-17.333c-2.002-5.303-2.771-11.146-5.426-16.345
			c-0.376-0.738-0.022-2.052-0.53-2.485c-3.073-2.619-3.62-6.074-3.394-9.729c0.398-6.429,1.513-12.865,1.298-19.264
			c-0.173-5.145,2.198-9.317,3.399-13.919c1.192-4.566,2.62-9.088,4.244-13.52c1.689-4.608,3.7-9.101,5.667-13.602
			c0.357-0.818,1.702-1.429,1.707-2.143c0.034-4.921,4.237-7.52,6.401-11.14c2.808-4.7,7.854-8.041,10.803-12.685
			c2.559-4.028,6.423-5.647,10.011-7.745c4.25-2.486,8.99-4.132,13.492-6.197c0.456-0.209,0.742-0.791,1.446-1.582
			c-3.098-0.479-5.661-0.901-8.232-1.269c-6.826-0.977-13.412-3.722-20.51-2.74c-0.969,0.134-1.994-0.21-2.985-0.164
			c-11.208,0.518-22.473-1.342-33.631,1.987c-7.309,2.182-15.036,2.956-22.567,4.404c-2.672,0.514-5.375,0.978-7.96,1.791
			c-2.615,0.824-5.075,2.129-7.652,3.091c-5.224,1.952-10.72,3.34-15.664,5.834c-6.029,3.041-11.493,7.184-17.412,10.47
			c-5.655,3.14-11.498,5.895-16.149,10.57c-1.073,1.079-2.613,1.673-3.829,2.629c-3.324,2.615-6.583,5.312-9.884,7.958
			c-0.717,0.575-1.632,0.95-2.229,1.62c-4.251,4.774-8.548,9.513-12.62,14.438c-3.256,3.938-6.251,8.094-9.293,12.204
			c-2.228,3.011-4.749,5.903-6.401,9.215c-1.888,3.786-6.503,5.879-6.417,10.891c0.024,1.427-0.711,3.169-1.673,4.259
			c-4.823,5.467-6.66,12.402-9.443,18.842c-1.682,3.892-2.793,8.054-3.899,12.166c-1.836,6.821-3.462,13.698-5.177,20.551
			c-0.061,0.242-0.141,0.479-0.186,0.724c-1.138,6.206-2.573,12.377-3.309,18.632c-0.537,4.563-0.17,9.235-0.175,13.858
			c-0.006,6.124-0.283,12.268,0.115,18.366c0.386,5.922,1.467,11.799,2.272,17.692c0.116,0.854,0.391,1.688,0.599,2.528
			c1.025,4.142,2.034,8.288,3.093,12.421c0.24,0.936,0.71,1.811,0.984,2.739c1.423,4.808,2.659,9.677,4.263,14.423
			c1.667,4.928,3.501,9.816,5.599,14.573c1.631,3.698,3.934,7.095,5.659,10.757c2.304,4.891,5.318,9.264,8.396,13.691
			c3.354,4.826,5.944,10.169,10.632,13.972c0.168,0.137,0.16,0.474,0.3,0.668c1.471,2.043,2.807,4.208,4.473,6.078
			c2.154,2.416,4.571,4.599,6.883,6.872c2.215,2.18,4.36,4.439,6.682,6.498c3.665,3.251,7.437,6.38,11.193,9.524
			c1.427,1.194,2.78,2.733,4.448,3.326c2.714,0.966,2.486-2.171,3.679-3.147c4.012-3.276,3.277-8.301,5.364-12.23
			c1.751-3.299,2.496-7.131,3.687-10.728c0.337-0.019,0.674-0.037,1.011-0.056c0.253,0.784,0.68,1.56,0.726,2.355
			c0.129,2.242-0.122,4.529,0.225,6.728C150.697,378.464,151.802,379.501,152.694,380.926z M166.57,383.897
			c0.182,0.491,0.363,0.981,0.545,1.473c-5.75,2.87-11.535,5.671-17.231,8.643c-2.365,1.234-4.574,2.783-6.754,4.33
			c-0.265,0.188-0.154,1.595,0.208,1.862c1.903,1.409,3.846,2.827,5.955,3.883c4.687,2.348,9.922,3.862,14.122,6.855
			c5.555,3.96,11.553,6.292,17.952,8.22c6.708,2.02,13.169,4.865,19.887,6.846c5.32,1.568,10.862,2.392,16.312,3.513
			c2.303,0.473,4.607,1.045,6.939,1.255c8.986,0.807,17.98,1.538,26.979,2.168c1.83,0.128,3.708-0.247,5.549-0.496
			c2.04-0.276,4.054-0.764,6.097-0.993c1.721-0.191,3.503,0.059,5.196-0.239c8.016-1.412,16.021-2.899,24.009-4.461
			c2.655-0.519,5.292-1.21,7.865-2.046c5.064-1.645,10.08-3.437,15.11-5.183c3.367-1.169,6.841-2.117,10.057-3.615
			c3.188-1.485,5.998-3.769,9.174-5.284c5.26-2.511,10.876-3.997,15.263-8.477c3.412-3.483,8.264-5.505,12.149-8.587
			c6.071-4.817,12.736-8.867,17.574-15.271c3.567-4.721,8.253-8.586,12.314-12.95c1.842-1.979,3.396-4.23,5.051-6.384
			c3.244-4.222,7.211-8.101,9.482-12.797c2.131-4.404,5.732-7.844,6.895-13.038c1.103-4.926,4.688-9.253,6.842-13.997
			c2.42-5.324,4.82-10.708,6.571-16.273c2.084-6.624,3.855-13.4,5.063-20.233c1.679-9.508,3.279-19.097,3.83-28.713
			c0.42-7.342,0.539-14.708-1.107-22.24c-1.976-9.04-0.926-18.647-4.227-27.649c-1.21-3.301-1.345-6.993-2-10.501
			c-0.477-2.553-0.667-5.227-1.578-7.62c-1.648-4.329-3.723-8.496-5.652-12.715c-2.499-5.466-4.891-10.988-7.583-16.357
			c-3.292-6.564-6.8-13.023-10.322-19.468c-0.953-1.744-2.207-3.348-3.484-4.883c-1.425-1.713-3.146-1.771-3.942,0.425
			c-1.507,4.153-2.693,8.425-3.934,12.671c-0.647,2.214-0.784,4.641-1.754,6.687c-2.015,4.248-4.645,8.206-6.637,12.462
			c-3.834,8.19-9.145,15.412-14.443,22.635c-2.259,3.078-5.066,5.75-7.579,8.646c-3.3,3.803-6.786,7.476-9.753,11.526
			c-2.348,3.205-6.636,4.846-7.386,9.381c-0.128,0.77-1.729,2.011-2.393,1.865c-6.538-1.436-9.513,4.271-13.964,6.868
			c-4.31,2.515-8.063,6.01-12.435,8.385c-7.276,3.955-13.972,8.662-20.622,13.558c-5.093,3.748-10.605,7.096-16.333,9.756
			c-5.301,2.461-8.728,8.28-15.279,8.343c-0.316,0.003-0.7,0.309-0.932,0.577c-2.751,3.191-6.968,5.162-8.063,9.767
			c-0.14,0.586-1.102,0.942-1.603,1.48c-3.538,3.799-7.043,7.63-10.584,11.427c-3.271,3.51-6.564,7-9.876,10.472
			c-0.38,0.398-1.075,0.521-1.404,0.941c-2.336,2.985-4.585,6.037-6.923,9.021c-1.511,1.93-2.993,3.912-4.718,5.641
			c-4.645,4.653-9.584,9.021-14.084,13.806c-4.644,4.937-8.89,10.247-13.358,15.351c-0.866,0.99-2.055,1.696-2.922,2.685
			c-2.434,2.776-4.654,5.749-7.185,8.432c-4.642,4.919-9.496,9.64-14.167,14.532c-3.599,3.769-7.064,7.664-10.562,11.528
			c-0.491,0.542-0.826,1.225-1.233,1.842c0.736,0.238,1.468,0.661,2.21,0.682C160.698,383.944,163.634,383.897,166.57,383.897z
			 M390.339,132.416c1.41-2.229,2.521-3.716,3.313-5.355c0.387-0.799,0.588-2.159,0.165-2.789c-1.182-1.757-2.674-3.321-4.148-4.861
			c-3.617-3.776-7.21-7.582-10.968-11.215c-4.796-4.637-9.532-9.377-14.692-13.582c-4.348-3.542-9.204-6.479-13.947-9.507
			c-4.432-2.829-9.007-5.433-13.526-8.123c-1.192-0.709-2.406-1.384-3.627-2.044c-3.053-1.651-5.989-3.617-9.205-4.85
			c-5.042-1.933-10.283-3.342-15.422-5.027c-1.291-0.423-2.627-0.878-3.75-1.613c-3.628-2.371-11.719-2.352-15.479-0.359
			c-5.125,2.715-10.479,4.999-15.724,7.489c-0.729,0.346-1.533,0.684-2.078,1.244c-3.099,3.183-5.708,7.034-9.275,9.523
			c-6.064,4.23-8.116,11.067-12.161,16.576c-0.749,1.021-0.785,2.534-1.373,3.707c-1.663,3.314-3.852,6.424-5.074,9.883
			c-1.589,4.498-2.331,9.287-3.648,13.891c-1.645,5.743-4.148,11.322-5.086,17.163c-0.901,5.611-0.591,11.489-0.194,17.207
			c0.202,2.894,1.021,6.417,2.9,8.36c2.646,2.735,6.518,4.297,9.904,6.294c1.032,0.608,2.251,0.896,3.281,1.505
			c3.527,2.085,7.413,3.802,10.396,6.505c3.115,2.824,7.981,2.238,10.459,6.229c0.623,1.004,3.35,0.779,5.126,0.96
			c1.044,0.107,2.12-0.1,3.183-0.166c-0.157,0.409-0.313,0.818-0.47,1.228c1.268,1.017,2.405,2.292,3.826,3
			c3.877,1.932,7.88,3.611,11.821,5.414c4.963,2.27,9.81,4.843,14.901,6.771c5.348,2.026,10.839,3.879,16.43,4.998
			c4.75,0.95,9.099,5.417,14.782,0.574c5.045-4.298,9.636-8.872,13.875-13.876c1.752-2.069,3.168-4.427,4.958-6.459
			c3.033-3.444,6.589-6.481,9.276-10.164c2.449-3.358,3.981-7.376,6.021-11.046c1.66-2.984,3.604-5.815,5.184-8.839
			c2.135-4.088,4.105-8.267,6.021-12.465c1.323-2.899,2.623-5.838,3.536-8.878c0.306-1.021-0.41-2.532-1.04-3.592
			c-0.547-0.921-1.631-1.524-3.301-2.99C388.14,132.744,389.641,132.52,390.339,132.416z M274.323,194.585
			c-0.19,0.181-0.381,0.361-0.571,0.542c-11.091-6.566-22.182-13.132-33.489-19.826c0.063,1.128-0.083,2.285,0.22,3.31
			c1.821,6.169,3.776,12.298,5.614,18.462c0.559,1.873,0.713,3.875,1.357,5.709c1.797,5.12,3.913,10.131,5.598,15.286
			c1.319,4.034,1.94,8.301,3.318,12.311c1.628,4.737,3.979,9.229,5.55,13.981c1.03,3.121,0.904,6.627,1.958,9.736
			c0.46,1.359,2.442,2.51,3.984,3.097c1.13,0.431,2.669-0.209,4.167-0.389c-0.629-1.592-1.023-2.593-1.359-3.444
			c-1.702-0.125-3.185-0.233-4.667-0.343c0.035-0.254,0.07-0.509,0.105-0.764c2.66,0,5.32,0,7.867,0
			c-0.605,1.224-0.985,1.99-1.365,2.758c0.557,0.085,1.263,0.433,1.644,0.214c1.957-1.131,3.85-2.378,5.729-3.636
			c3.694-2.47,7.313-5.055,11.059-7.444c5.651-3.605,11.441-6.992,17.065-10.639c6.426-4.168,12.761-8.479,19.063-12.833
			c0.987-0.683,1.587-1.927,2.366-2.911c-1.079-0.702-2.083-1.587-3.252-2.072c-3.376-1.399-6.809-2.664-10.241-3.921
			c-0.854-0.313-1.793-0.394-3.122-0.671c0.274,2.856,0.024,5.075-3.91,4.021c0.363-1.645,0.708-3.208,1.022-4.634
			c-7.478-3.025-15.128-6.118-22.777-9.211c-0.342-0.138-0.8-0.173-1.014-0.42c-2.751-3.177-5.917-2.994-9.743-0.841
			C275.728,198.088,275.025,196.337,274.323,194.585z"/>
		<path fill-rule="evenodd" clip-rule="evenodd" fill="#FFFFFF" d="M152.694,380.926c-0.892-1.425-1.997-2.462-2.183-3.644
			c-0.347-2.198-0.096-4.485-0.225-6.728c-0.046-0.796-0.473-1.571-0.726-2.355c-0.337,0.019-0.674,0.037-1.011,0.056
			c-1.191,3.597-1.936,7.429-3.687,10.728c-2.087,3.93-1.352,8.954-5.364,12.23c-1.193,0.977-0.965,4.113-3.679,3.147
			c-1.668-0.593-3.021-2.132-4.448-3.326c-3.757-3.145-7.529-6.273-11.193-9.524c-2.322-2.059-4.466-4.318-6.682-6.498
			c-2.312-2.273-4.729-4.456-6.883-6.872c-1.667-1.87-3.002-4.035-4.473-6.078c-0.141-0.194-0.132-0.531-0.3-0.668
			c-4.688-3.803-7.278-9.146-10.632-13.972c-3.077-4.428-6.092-8.801-8.396-13.691c-1.725-3.662-4.028-7.059-5.659-10.757
			c-2.098-4.757-3.932-9.646-5.599-14.573c-1.604-4.746-2.84-9.615-4.263-14.423c-0.274-0.929-0.745-1.804-0.984-2.739
			c-1.059-4.133-2.068-8.279-3.093-12.421c-0.208-0.841-0.483-1.674-0.599-2.528c-0.805-5.894-1.886-11.771-2.272-17.692
			c-0.398-6.099-0.121-12.242-0.115-18.366c0.004-4.624-0.362-9.295,0.175-13.858c0.736-6.254,2.17-12.426,3.309-18.632
			c0.045-0.245,0.125-0.482,0.186-0.724c1.715-6.854,3.341-13.73,5.177-20.551c1.106-4.111,2.217-8.274,3.899-12.166
			c2.783-6.44,4.621-13.375,9.443-18.842c0.962-1.09,1.698-2.832,1.673-4.259c-0.086-5.012,4.529-7.105,6.417-10.891
			c1.652-3.313,4.173-6.205,6.401-9.215c3.042-4.11,6.038-8.266,9.293-12.204c4.072-4.925,8.369-9.664,12.62-14.438
			c0.596-0.669,1.512-1.044,2.229-1.62c3.301-2.646,6.56-5.343,9.884-7.958c1.216-0.956,2.756-1.551,3.829-2.629
			c4.651-4.675,10.494-7.431,16.149-10.57c5.918-3.286,11.382-7.429,17.412-10.47c4.944-2.494,10.439-3.882,15.664-5.834
			c2.577-0.962,5.037-2.267,7.652-3.091c2.585-0.813,5.288-1.277,7.96-1.791c7.531-1.448,15.258-2.222,22.567-4.404
			c11.158-3.329,22.423-1.469,33.631-1.987c0.991-0.046,2.017,0.298,2.985,0.164c7.098-0.982,13.684,1.763,20.51,2.74
			c2.571,0.368,5.135,0.79,8.232,1.269c-0.704,0.791-0.99,1.373-1.446,1.582c-4.502,2.065-9.242,3.711-13.492,6.197
			c-3.588,2.098-7.452,3.717-10.011,7.745c-2.949,4.644-7.995,7.984-10.803,12.685c-2.164,3.621-6.367,6.219-6.401,11.14
			c-0.005,0.713-1.35,1.324-1.707,2.143c-1.967,4.501-3.978,8.994-5.667,13.602c-1.625,4.431-3.052,8.953-4.244,13.52
			c-1.201,4.603-3.572,8.774-3.399,13.919c0.215,6.399-0.899,12.835-1.298,19.264c-0.227,3.654,0.321,7.11,3.394,9.729
			c0.508,0.433,0.154,1.747,0.53,2.485c2.655,5.199,3.423,11.042,5.426,16.345c2.161,5.721,3.453,11.554,5.168,17.333
			c2.075,6.994,4.952,13.746,7.222,20.688c1.979,6.055,3.378,12.304,5.452,18.323c1.479,4.291,3.938,8.247,5.367,12.548
			c0.512,1.542-0.128,4.179-1.238,5.429c-6.47,7.278-13.212,14.316-19.912,21.388c-4.53,4.781-9.458,9.229-13.58,14.333
			c-2.008,2.488-4.863,4.167-6.155,7.601c-1.034,2.75-4.214,4.682-6.411,7.007c-3.139,3.322-6.232,6.688-9.378,10.005
			c-3.405,3.59-6.917,7.082-10.25,10.736c-1.916,2.1-3.449,4.547-5.367,6.646c-5.096,5.574-10.341,11.001-15.317,16.7
			c-3.182,3.644-7.241,6.899-10.65,10.55C159.777,371.746,156.67,376.023,152.694,380.926z"/>
		<path fill-rule="evenodd" clip-rule="evenodd" fill="#FFFFFF" d="M166.57,383.897c-2.936,0-5.873,0.047-8.806-0.032
			c-0.743-0.021-1.474-0.443-2.21-0.682c0.407-0.617,0.742-1.3,1.233-1.842c3.497-3.864,6.963-7.76,10.562-11.528
			c4.671-4.893,9.525-9.613,14.167-14.532c2.531-2.683,4.751-5.655,7.185-8.432c0.867-0.988,2.056-1.694,2.922-2.685
			c4.469-5.104,8.714-10.414,13.358-15.351c4.5-4.784,9.44-9.152,14.084-13.806c1.726-1.729,3.207-3.711,4.718-5.641
			c2.337-2.984,4.587-6.036,6.923-9.021c0.33-0.421,1.024-0.543,1.404-0.941c3.313-3.472,6.605-6.962,9.876-10.472
			c3.541-3.797,7.046-7.628,10.584-11.427c0.501-0.538,1.463-0.895,1.603-1.48c1.095-4.604,5.312-6.575,8.063-9.767
			c0.231-0.269,0.615-0.574,0.932-0.577c6.552-0.063,9.979-5.882,15.279-8.343c5.728-2.66,11.24-6.009,16.333-9.756
			c6.65-4.896,13.346-9.603,20.622-13.558c4.372-2.375,8.125-5.87,12.435-8.385c4.451-2.597,7.426-8.304,13.964-6.868
			c0.663,0.146,2.265-1.096,2.393-1.865c0.75-4.535,5.038-6.176,7.386-9.381c2.967-4.05,6.453-7.723,9.753-11.526
			c2.513-2.896,5.32-5.568,7.579-8.646c5.299-7.223,10.609-14.445,14.443-22.635c1.992-4.257,4.622-8.215,6.637-12.462
			c0.97-2.045,1.106-4.472,1.754-6.687c1.24-4.246,2.427-8.519,3.934-12.671c0.797-2.195,2.518-2.138,3.942-0.425
			c1.277,1.535,2.531,3.139,3.484,4.883c3.522,6.445,7.03,12.903,10.322,19.468c2.692,5.369,5.084,10.891,7.583,16.357
			c1.93,4.22,4.004,8.387,5.652,12.715c0.911,2.393,1.102,5.066,1.578,7.62c0.655,3.508,0.79,7.2,2,10.501
			c3.301,9.002,2.251,18.609,4.227,27.649c1.646,7.532,1.527,14.897,1.107,22.24c-0.551,9.616-2.151,19.205-3.83,28.713
			c-1.207,6.833-2.979,13.609-5.063,20.233c-1.751,5.565-4.151,10.949-6.571,16.273c-2.154,4.744-5.739,9.071-6.842,13.997
			c-1.162,5.194-4.764,8.634-6.895,13.038c-2.271,4.696-6.238,8.575-9.482,12.797c-1.654,2.153-3.209,4.404-5.051,6.384
			c-4.062,4.364-8.747,8.229-12.314,12.95c-4.838,6.404-11.503,10.454-17.574,15.271c-3.886,3.082-8.737,5.104-12.149,8.587
			c-4.387,4.479-10.003,5.966-15.263,8.477c-3.176,1.516-5.986,3.799-9.174,5.284c-3.216,1.498-6.689,2.446-10.057,3.615
			c-5.03,1.746-10.046,3.538-15.11,5.183c-2.573,0.836-5.21,1.527-7.865,2.046c-7.988,1.562-15.993,3.049-24.009,4.461
			c-1.693,0.298-3.476,0.048-5.196,0.239c-2.043,0.229-4.057,0.717-6.097,0.993c-1.841,0.249-3.719,0.624-5.549,0.496
			c-9-0.63-17.994-1.361-26.979-2.168c-2.332-0.21-4.636-0.782-6.939-1.255c-5.45-1.121-10.992-1.944-16.312-3.513
			c-6.718-1.98-13.179-4.826-19.887-6.846c-6.398-1.928-12.397-4.26-17.952-8.22c-4.2-2.993-9.435-4.508-14.122-6.855
			c-2.109-1.056-4.052-2.474-5.955-3.883c-0.362-0.268-0.473-1.674-0.208-1.862c2.18-1.547,4.39-3.096,6.754-4.33
			c5.696-2.972,11.481-5.772,17.231-8.643C166.934,384.879,166.752,384.389,166.57,383.897z M256.3,357.576
			c-0.213-1.17-0.229-2.538-0.718-3.708c-1.43-3.42-3.125-6.729-4.513-10.163c-0.218-0.539,0.44-1.723,1.021-2.236
			c1.618-1.428,3.603-2.474,5.095-4.007c4.247-4.365,3.115-10.179-2.695-11.684c-4.108-1.063-8.62-0.646-12.951-0.66
			c-0.417-0.001-1.34,1.741-1.178,2.49c1.158,5.345-2.781,9.564-3.053,14.596c-0.094,1.738-1.087,3.441-1.733,5.136
			c-0.934,2.452-2.182,4.824-2.747,7.354c-0.187,0.837,1.111,2.582,2.1,2.971c1.491,0.587,3.308,0.348,5.175,0.472
			c0-1.692-0.103-2.917,0.02-4.118c0.335-3.299,0.613-6.619,1.258-9.864c0.173-0.873,1.576-2.094,2.411-2.091
			c0.953,0.004,2.414,1.002,2.757,1.907c1.157,3.054,1.993,6.237,2.808,9.408C250.387,357.375,252.073,359.442,256.3,357.576z"/>
		<path fill-rule="evenodd" clip-rule="evenodd" fill="#FFFFFF" d="M390.339,132.416c-0.698,0.104-2.199,0.328-4.832,0.72
			c1.67,1.466,2.754,2.069,3.301,2.99c0.63,1.061,1.346,2.572,1.04,3.592c-0.913,3.04-2.213,5.979-3.536,8.878
			c-1.915,4.198-3.886,8.376-6.021,12.465c-1.579,3.024-3.523,5.854-5.184,8.839c-2.04,3.67-3.572,7.688-6.021,11.046
			c-2.688,3.682-6.243,6.719-9.276,10.164c-1.79,2.032-3.206,4.39-4.958,6.459c-4.239,5.005-8.83,9.578-13.875,13.876
			c-5.684,4.842-10.032,0.376-14.782-0.574c-5.591-1.119-11.082-2.972-16.43-4.998c-5.092-1.929-9.938-4.501-14.901-6.771
			c-3.941-1.803-7.944-3.482-11.821-5.414c-1.421-0.708-2.559-1.983-3.826-3c0.157-0.41,0.313-0.819,0.47-1.228
			c-1.063,0.066-2.139,0.272-3.183,0.166c-1.776-0.181-4.503,0.044-5.126-0.96c-2.478-3.991-7.344-3.405-10.459-6.229
			c-2.982-2.703-6.868-4.419-10.396-6.505c-1.03-0.609-2.249-0.897-3.281-1.505c-3.386-1.998-7.258-3.56-9.904-6.294
			c-1.879-1.943-2.698-5.466-2.9-8.36c-0.397-5.718-0.707-11.595,0.194-17.207c0.938-5.841,3.441-11.42,5.086-17.163
			c1.318-4.604,2.06-9.393,3.648-13.891c1.223-3.459,3.412-6.569,5.074-9.883c0.588-1.173,0.624-2.686,1.373-3.707
			c4.044-5.509,6.096-12.346,12.161-16.576c3.567-2.489,6.177-6.34,9.275-9.523c0.545-0.56,1.349-0.897,2.078-1.244
			c5.245-2.49,10.599-4.773,15.724-7.489c3.761-1.993,11.852-2.012,15.479,0.359c1.123,0.735,2.459,1.19,3.75,1.613
			c5.139,1.685,10.38,3.094,15.422,5.027c3.216,1.233,6.152,3.199,9.205,4.85c1.221,0.66,2.435,1.335,3.627,2.044
			c4.52,2.689,9.095,5.293,13.526,8.123c4.743,3.028,9.6,5.965,13.947,9.507c5.16,4.205,9.896,8.945,14.692,13.582
			c3.758,3.633,7.351,7.439,10.968,11.215c1.475,1.54,2.967,3.104,4.148,4.861c0.423,0.629,0.222,1.99-0.165,2.789
			C392.859,128.7,391.749,130.187,390.339,132.416z M294.279,121.391c-2.036-1.144-3.146-2.246-3.785-2.02
			c-1.108,0.391-1.926,1.606-2.866,2.476c0.762,0.719,1.605,2.095,2.266,2.012C291.065,123.711,292.127,122.679,294.279,121.391z
			 M280.916,162.946c0.943,2.135,2.218,3.667,4.483,2.052c0.498-0.354,0.539-2.456,0.038-2.897
			C283.95,160.792,282.146,160.277,280.916,162.946z M317.7,206.889c2.188-0.757,3.811-0.839,4.253-1.604
			c0.46-0.795-0.018-2.348-0.504-3.369c-0.188-0.391-2.15-0.502-2.253-0.272C318.619,202.94,318.362,204.379,317.7,206.889z
			 M338.49,190.316c-0.303-0.583-0.605-1.165-0.908-1.748c-0.746-0.764-1.491-1.529-2.237-2.292c-0.7,0.794-2.045,1.682-1.946,2.359
			c0.143,0.98,1.177,2.217,2.121,2.574C336.288,191.5,337.483,190.656,338.49,190.316z M287.271,130.79
			c0.354,0.35,0.706,0.699,1.061,1.048c1.023-0.748,2.671-1.313,2.951-2.276c0.779-2.678-1.174-3.258-3.756-3.429
			C287.437,127.761,287.354,129.276,287.271,130.79z M362.357,164.27c-1.362-1.464-2.142-2.302-2.922-3.141
			c-0.709,0.794-1.938,1.564-1.977,2.389c-0.036,0.776,1.048,1.889,1.905,2.308C359.816,166.045,360.837,165.102,362.357,164.27z
			 M343.235,183.791c-1.673-0.958-2.542-1.86-3.331-1.795c-0.82,0.068-1.563,1.075-2.338,1.67c0.666,0.813,1.297,2.245,2.005,2.283
			C340.475,185.998,341.439,184.922,343.235,183.791z M375.085,145.953c-0.279-0.097-0.559-0.193-0.837-0.289
			c-0.822,1.182-2.078,2.292-2.291,3.575c-0.115,0.696,1.546,1.687,3.128,3.265C375.085,149.535,375.085,147.744,375.085,145.953z
			 M299.206,78.432c-0.548-0.333-1.097-0.665-1.645-0.998c-0.772,1.017-1.544,2.035-2.315,3.052
			c0.897,0.662,1.796,1.324,2.693,1.985C298.361,81.125,298.784,79.778,299.206,78.432z M287.396,147.63
			c-3.845-0.773-4.178,1.006-3.533,3.794c1.231,0,2.371,0,3.533,0C287.396,150.044,287.396,148.956,287.396,147.63z
			 M385.771,140.376c0.225-0.58,0.449-1.159,0.674-1.738c-1.263-0.669-2.525-1.339-3.787-2.008
			c-0.308,0.944-0.614,1.888-0.921,2.832C383.082,139.766,384.427,140.072,385.771,140.376z M280.699,167.776
			c-0.332,0.253-0.664,0.507-0.995,0.76c0.322,1.406,0.525,2.863,1.073,4.175c0.106,0.254,2.051,0.238,2.291-0.164
			c0.504-0.845,0.897-2.293,0.488-3.008C283.067,168.686,281.691,168.341,280.699,167.776z M299.053,76.936
			c0.338-0.182,0.676-0.363,1.014-0.545c0-1.404,0-2.807,0-5.161c-1.535,0.892-2.53,1.471-3.525,2.049
			C297.378,74.498,298.215,75.717,299.053,76.936z M292.124,96.387c3.367,0.743,4.631-0.109,4.334-2.317
			c-0.079-0.591-1.496-1.003-2.3-1.497C293.553,93.709,292.946,94.847,292.124,96.387z M282.282,173.728
			c-1.732,1.018-2.937,1.438-3.639,2.277c-0.282,0.338,0.307,1.936,0.913,2.343c0.657,0.441,1.797,0.162,2.726,0.197
			C282.282,177.274,282.282,176.003,282.282,173.728z M296.435,101.971c0.039-0.516,0.077-1.032,0.116-1.549
			c-1.306-0.685-2.188-2.89-4.269-0.825c-0.493,0.49-0.404,1.567-0.583,2.374C293.277,101.971,294.855,101.971,296.435,101.971z
			 M292.604,112.687c-3.602,0.301-3.602,0.301-3.311,3.766c1.143,0,2.291,0,3.698,0C292.854,115.107,292.743,114.04,292.604,112.687
			z M295.707,84.728c-0.354,0.299-0.708,0.6-1.063,0.9c0.183,1.209,0.365,2.418,0.548,3.628c0.348,0.157,0.695,0.313,1.044,0.47
			c0.809-0.896,1.618-1.79,2.427-2.684C297.678,86.27,296.692,85.499,295.707,84.728z M362.438,160.322
			c0.29,0.331,0.58,0.663,0.87,0.995c1.021-0.64,2.04-1.28,3.061-1.92c-0.918-1.008-1.836-2.017-2.753-3.024
			c-0.338,0.252-0.675,0.504-1.012,0.756C362.548,158.192,362.493,159.257,362.438,160.322z M287.243,156.932
			c-1.497-1.099-2.228-2.035-3.014-2.084c-0.612-0.038-1.293,1.027-1.943,1.602c0.681,0.697,1.257,1.675,2.082,1.984
			C284.863,158.619,285.749,157.756,287.243,156.932z M366.283,153.422c0.05,0.516,0.099,1.031,0.147,1.546
			c1.207,0.126,2.415,0.253,3.622,0.379c-0.088-1.021-0.176-2.042-0.263-3.063C368.621,152.664,367.453,153.043,366.283,153.422z"/>
		<path fill-rule="evenodd" clip-rule="evenodd" fill="#FFFFFF" d="M274.323,194.585c0.702,1.751,1.404,3.502,2.177,5.429
			c3.826-2.153,6.992-2.336,9.743,0.841c0.214,0.247,0.672,0.282,1.014,0.42c7.649,3.093,15.3,6.186,22.777,9.211
			c-0.314,1.425-0.659,2.989-1.022,4.634c3.935,1.054,4.185-1.165,3.91-4.021c1.329,0.277,2.269,0.358,3.122,0.671
			c3.433,1.257,6.865,2.522,10.241,3.921c1.169,0.485,2.173,1.37,3.252,2.072c-0.779,0.984-1.379,2.228-2.366,2.911
			c-6.303,4.354-12.638,8.665-19.063,12.833c-5.624,3.647-11.414,7.034-17.065,10.639c-3.745,2.389-7.364,4.974-11.059,7.444
			c-1.88,1.258-3.772,2.505-5.729,3.636c-0.381,0.219-1.087-0.129-1.644-0.214c0.38-0.768,0.76-1.534,1.365-2.758
			c-2.547,0-5.207,0-7.867,0c-0.035,0.255-0.07,0.51-0.105,0.764c1.482,0.109,2.965,0.218,4.667,0.343
			c0.336,0.852,0.73,1.853,1.359,3.444c-1.498,0.18-3.037,0.819-4.167,0.389c-1.542-0.587-3.524-1.737-3.984-3.097
			c-1.054-3.109-0.928-6.616-1.958-9.736c-1.57-4.752-3.922-9.244-5.55-13.981c-1.378-4.01-1.999-8.277-3.318-12.311
			c-1.686-5.154-3.801-10.166-5.598-15.286c-0.644-1.835-0.798-3.837-1.357-5.709c-1.838-6.164-3.793-12.293-5.614-18.462
			c-0.303-1.025-0.157-2.182-0.22-3.31c11.307,6.694,22.398,13.26,33.489,19.826C273.942,194.947,274.133,194.767,274.323,194.585z
			 M289.703,238.268c-1.519-0.877-2.463-1.842-3.396-1.831c-0.776,0.009-1.538,1.166-2.306,1.814
			c0.94,0.822,1.774,1.947,2.868,2.326C287.354,240.746,288.363,239.407,289.703,238.268z M272.115,210.234
			c0.561,1.311,0.836,2.44,1.495,3.261c0.276,0.344,1.89,0.246,1.997-0.017c0.447-1.099,0.553-2.337,0.867-3.95
			C274.743,209.809,273.704,209.978,272.115,210.234z M298.909,223.401c0.734,1.015,1.404,1.94,2.294,3.166
			c1.057-1.274,1.892-2.279,2.72-3.278c-1.035-0.945-1.872-1.71-2.735-2.497C300.31,221.798,299.616,222.592,298.909,223.401z
			 M294.243,226.503c0.874,2.022,1.317,3.342,2.049,4.474c0.135,0.208,1.955-0.159,2.109-0.584c0.381-1.046,0.245-2.28,0.327-3.585
			C297.38,226.715,296.433,226.651,294.243,226.503z M275.017,226.29c0.026-0.382,0.053-0.765,0.079-1.147
			c-0.894-0.477-1.766-1.264-2.689-1.329c-0.696-0.048-1.457,0.827-2.189,1.291c0.62,0.771,1.142,2.035,1.887,2.185
			C272.973,227.465,274.037,226.667,275.017,226.29z M269.603,241.49c0.619-0.274,1.24-0.548,1.859-0.823
			c-0.203-1.378-0.405-2.757-0.608-4.136c-1.105,0.577-2.21,1.154-3.315,1.732C268.227,239.338,268.914,240.415,269.603,241.49z
			 M274.622,206.067c0.3,0.297,0.6,0.595,0.898,0.893c0.982-0.729,1.964-1.457,2.944-2.185c-0.981-0.844-1.964-1.688-3.621-3.113
			C274.728,203.962,274.675,205.015,274.622,206.067z"/>
		<path fill-rule="evenodd" clip-rule="evenodd" d="M256.3,357.576c-4.227,1.866-5.913-0.201-6.942-4.198
			c-0.815-3.171-1.651-6.354-2.808-9.408c-0.343-0.905-1.804-1.903-2.757-1.907c-0.835-0.003-2.238,1.218-2.411,2.091
			c-0.645,3.245-0.922,6.565-1.258,9.864c-0.123,1.201-0.02,2.426-0.02,4.118c-1.868-0.124-3.685,0.115-5.175-0.472
			c-0.989-0.389-2.287-2.134-2.1-2.971c0.565-2.529,1.813-4.901,2.747-7.354c0.646-1.694,1.639-3.397,1.733-5.136
			c0.271-5.031,4.211-9.251,3.053-14.596c-0.163-0.749,0.761-2.491,1.178-2.49c4.332,0.014,8.843-0.403,12.951,0.66
			c5.811,1.505,6.942,7.318,2.695,11.684c-1.492,1.533-3.477,2.579-5.095,4.007c-0.581,0.514-1.239,1.697-1.021,2.236
			c1.388,3.435,3.083,6.743,4.513,10.163C256.071,355.038,256.087,356.406,256.3,357.576z M242.83,338.868
			c5.803,2.173,9.795-2.389,11.237-5.878c0.931-2.253,0.098-4.383-2.438-4.93c-1.875-0.403-5.296-0.696-5.634,0.047
			C244.481,331.443,243.826,335.169,242.83,338.868z"/>
		<path fill-rule="evenodd" clip-rule="evenodd" d="M294.279,121.391c-2.152,1.288-3.214,2.32-4.386,2.468
			c-0.66,0.083-1.504-1.293-2.266-2.012c0.94-0.869,1.758-2.084,2.866-2.476C291.134,119.145,292.243,120.248,294.279,121.391z"/>
		<path fill-rule="evenodd" clip-rule="evenodd" d="M280.916,162.946c1.229-2.669,3.034-2.154,4.521-0.845
			c0.501,0.441,0.46,2.542-0.038,2.897C283.134,166.613,281.859,165.081,280.916,162.946z"/>
		<path fill-rule="evenodd" clip-rule="evenodd" d="M317.7,206.889c0.662-2.51,0.919-3.949,1.496-5.245
			c0.103-0.23,2.065-0.119,2.253,0.272c0.486,1.021,0.964,2.573,0.504,3.369C321.511,206.05,319.888,206.132,317.7,206.889z"/>
		<path fill-rule="evenodd" clip-rule="evenodd" d="M338.49,190.316c-1.007,0.34-2.202,1.183-2.971,0.893
			c-0.944-0.357-1.979-1.594-2.121-2.574c-0.099-0.678,1.246-1.565,1.946-2.359c0.746,0.764,1.491,1.529,2.237,2.292
			C337.885,189.152,338.188,189.734,338.49,190.316z"/>
		<path fill-rule="evenodd" clip-rule="evenodd" d="M287.271,130.79c0.083-1.514,0.166-3.029,0.256-4.657
			c2.582,0.171,4.535,0.751,3.756,3.429c-0.28,0.963-1.928,1.528-2.951,2.276C287.977,131.489,287.624,131.14,287.271,130.79z"/>
		<path fill-rule="evenodd" clip-rule="evenodd" d="M362.357,164.27c-1.521,0.832-2.541,1.775-2.993,1.555
			c-0.857-0.419-1.941-1.531-1.905-2.308c0.039-0.825,1.268-1.595,1.977-2.389C360.216,161.968,360.995,162.806,362.357,164.27z"/>
		<path fill-rule="evenodd" clip-rule="evenodd" d="M343.235,183.791c-1.796,1.131-2.761,2.207-3.664,2.158
			c-0.708-0.038-1.339-1.47-2.005-2.283c0.775-0.596,1.518-1.602,2.338-1.67C340.693,181.931,341.563,182.833,343.235,183.791z"/>
		<path fill-rule="evenodd" clip-rule="evenodd" d="M375.085,145.953c0,1.791,0,3.583,0,6.552c-1.582-1.579-3.243-2.569-3.128-3.265
			c0.213-1.283,1.469-2.393,2.291-3.575C374.526,145.76,374.806,145.856,375.085,145.953z"/>
		<path fill-rule="evenodd" clip-rule="evenodd" d="M299.206,78.432c-0.422,1.346-0.845,2.693-1.267,4.04
			c-0.897-0.662-1.796-1.324-2.693-1.985c0.771-1.018,1.543-2.035,2.315-3.052C298.109,77.767,298.658,78.1,299.206,78.432z"/>
		<path fill-rule="evenodd" clip-rule="evenodd" d="M287.396,147.63c0,1.326,0,2.415,0,3.794c-1.162,0-2.302,0-3.533,0
			C283.219,148.636,283.552,146.856,287.396,147.63z"/>
		<path fill-rule="evenodd" clip-rule="evenodd" d="M385.771,140.376c-1.345-0.305-2.689-0.61-4.034-0.915
			c0.307-0.944,0.613-1.888,0.92-2.832c1.263,0.669,2.525,1.339,3.788,2.008C386.221,139.218,385.996,139.797,385.771,140.376z"/>
		<path fill-rule="evenodd" clip-rule="evenodd" d="M280.699,167.776c0.992,0.565,2.368,0.91,2.857,1.763
			c0.409,0.714,0.016,2.163-0.488,3.008c-0.24,0.402-2.185,0.418-2.291,0.164c-0.548-1.312-0.751-2.769-1.073-4.175
			C280.035,168.283,280.367,168.029,280.699,167.776z"/>
		<path fill-rule="evenodd" clip-rule="evenodd" d="M299.053,76.936c-0.838-1.219-1.675-2.438-2.512-3.657
			c0.995-0.578,1.99-1.157,3.525-2.049c0,2.354,0,3.757,0,5.161C299.729,76.572,299.391,76.754,299.053,76.936z"/>
		<path fill-rule="evenodd" clip-rule="evenodd" d="M292.124,96.387c0.822-1.541,1.429-2.678,2.034-3.814
			c0.804,0.494,2.221,0.906,2.3,1.497C296.755,96.278,295.491,97.13,292.124,96.387z"/>
		<path fill-rule="evenodd" clip-rule="evenodd" d="M282.282,173.728c0,2.275,0,3.546,0,4.817c-0.929-0.035-2.068,0.244-2.726-0.197
			c-0.606-0.407-1.195-2.005-0.913-2.343C279.346,175.165,280.55,174.745,282.282,173.728z"/>
		<path fill-rule="evenodd" clip-rule="evenodd" d="M296.435,101.971c-1.579,0-3.157,0-4.735,0c0.179-0.807,0.09-1.883,0.583-2.374
			c2.081-2.065,2.963,0.14,4.269,0.825C296.512,100.939,296.474,101.455,296.435,101.971z"/>
		<path fill-rule="evenodd" clip-rule="evenodd" d="M292.604,112.687c0.14,1.354,0.25,2.421,0.388,3.766c-1.407,0-2.556,0-3.698,0
			C289.002,112.987,289.002,112.987,292.604,112.687z"/>
		<path fill-rule="evenodd" clip-rule="evenodd" d="M295.707,84.728c0.985,0.771,1.971,1.542,2.956,2.314
			c-0.809,0.895-1.618,1.789-2.427,2.684c-0.349-0.157-0.696-0.313-1.044-0.47c-0.183-1.209-0.365-2.419-0.548-3.628
			C294.999,85.327,295.354,85.027,295.707,84.728z"/>
		<path fill-rule="evenodd" clip-rule="evenodd" d="M362.438,160.322c0.056-1.065,0.11-2.129,0.166-3.194
			c0.337-0.252,0.674-0.504,1.012-0.756c0.917,1.008,1.835,2.017,2.753,3.024c-1.021,0.64-2.04,1.28-3.061,1.92
			C363.018,160.984,362.728,160.653,362.438,160.322z"/>
		<path fill-rule="evenodd" clip-rule="evenodd" d="M287.243,156.932c-1.494,0.824-2.38,1.687-2.875,1.502
			c-0.825-0.309-1.401-1.288-2.082-1.984c0.65-0.575,1.331-1.64,1.943-1.602C285.016,154.897,285.746,155.833,287.243,156.932z"/>
		<path fill-rule="evenodd" clip-rule="evenodd" d="M366.283,153.422c1.17-0.378,2.338-0.758,3.507-1.137
			c0.087,1.021,0.175,2.042,0.263,3.063c-1.207-0.126-2.415-0.253-3.622-0.379C366.382,154.453,366.333,153.938,366.283,153.422z"/>
		<path fill-rule="evenodd" clip-rule="evenodd" d="M289.703,238.268c-1.34,1.139-2.349,2.478-2.833,2.31
			c-1.094-0.379-1.928-1.504-2.868-2.326c0.768-0.648,1.529-1.806,2.306-1.814C287.24,236.426,288.185,237.391,289.703,238.268z"/>
		<path fill-rule="evenodd" clip-rule="evenodd" d="M272.115,210.234c1.589-0.257,2.628-0.426,4.359-0.706
			c-0.314,1.613-0.42,2.851-0.867,3.95c-0.107,0.263-1.721,0.361-1.997,0.017C272.951,212.674,272.676,211.545,272.115,210.234z"/>
		<path fill-rule="evenodd" clip-rule="evenodd" d="M298.909,223.401c0.707-0.809,1.4-1.604,2.278-2.609
			c0.863,0.787,1.7,1.552,2.735,2.497c-0.828,0.999-1.663,2.004-2.72,3.278C300.313,225.341,299.644,224.416,298.909,223.401z"/>
		<path fill-rule="evenodd" clip-rule="evenodd" d="M294.243,226.503c2.189,0.148,3.137,0.212,4.485,0.304
			c-0.082,1.305,0.054,2.54-0.327,3.585c-0.154,0.425-1.975,0.792-2.109,0.584C295.561,229.845,295.117,228.525,294.243,226.503z"/>
		<path fill-rule="evenodd" clip-rule="evenodd" d="M275.017,226.29c-0.979,0.376-2.044,1.175-2.913,1
			c-0.745-0.15-1.267-1.414-1.887-2.185c0.732-0.463,1.493-1.339,2.189-1.291c0.924,0.065,1.796,0.852,2.689,1.329
			C275.069,225.525,275.043,225.908,275.017,226.29z"/>
		<path fill-rule="evenodd" clip-rule="evenodd" d="M269.603,241.49c-0.688-1.076-1.376-2.152-2.064-3.227
			c1.105-0.578,2.21-1.155,3.315-1.732c0.203,1.379,0.405,2.757,0.608,4.136C270.843,240.942,270.222,241.216,269.603,241.49z"/>
		<path fill-rule="evenodd" clip-rule="evenodd" d="M274.622,206.067c0.053-1.052,0.105-2.105,0.222-4.406
			c1.657,1.425,2.64,2.269,3.621,3.113c-0.98,0.728-1.962,1.457-2.944,2.185C275.222,206.662,274.922,206.364,274.622,206.067z"/>
		<path fill-rule="evenodd" clip-rule="evenodd" fill="#FFFFFF" d="M242.83,338.868c0.996-3.699,1.651-7.425,3.165-10.761
			c0.338-0.743,3.759-0.45,5.634-0.047c2.536,0.547,3.369,2.677,2.438,4.93C252.625,336.479,248.633,341.041,242.83,338.868z"/>
	</g>
</g>
</svg>
