<?xml version="1.0" encoding="utf-8"?>
<!-- Generator: Adobe Illustrator 16.0.0, SVG Export Plug-In . SVG Version: 6.00 Build 0)  -->
<!DOCTYPE svg PUBLIC "-//W3C//DTD SVG 1.1//EN" "http://www.w3.org/Graphics/SVG/1.1/DTD/svg11.dtd">
<svg version="1.1" id="Layer_1" xmlns="http://www.w3.org/2000/svg" xmlns:xlink="http://www.w3.org/1999/xlink" x="0px" y="0px"
	 width="408.807px" height="397.556px" viewBox="0 0 408.807 397.556" enable-background="new 0 0 408.807 397.556"
	 xml:space="preserve">
<g>
	<g>
		<path fill-rule="evenodd" clip-rule="evenodd" fill="#FFFFFF" d="M0.774,398.306c0-132.472,0-264.944,0-397.486
			c136.167,0,272.358,0,408.666,0c0,132.449,0,264.967,0,397.486C273.271,398.306,137.035,398.306,0.774,398.306z M399.556,194.777
			c0.046,0,0.092,0,0.138,0c0-3.249,0.237-6.52-0.068-9.739c-0.292-3.077-1.325-6.077-1.723-9.151
			c-0.729-5.655-1.106-11.356-1.872-17.005c-0.496-3.658-1.232-7.308-2.2-10.87c-1.301-4.792-2.692-9.585-4.467-14.217
			c-3.6-9.4-7.243-18.8-11.344-27.988c-2.261-5.064-5.371-9.768-8.306-14.505c-2.864-4.622-5.63-9.384-9.09-13.541
			c-5.448-6.544-11.386-12.688-17.229-18.896c-3.547-3.769-7.091-7.592-11.027-10.929c-4.125-3.497-8.662-6.52-13.118-9.608
			c-6.186-4.285-12.207-8.9-18.771-12.52c-6.937-3.825-14.413-6.678-21.68-9.894c-3.912-1.731-7.871-3.36-11.833-4.976
			c-0.79-0.322-1.689-0.377-2.539-0.554c-3.999-0.833-8.023-1.564-11.992-2.526c-5.373-1.302-10.633-3.517-16.067-4.048
			c-16.415-1.606-32.911-2.349-49.35-0.338c-6.422,0.785-12.783,2.265-19.084,3.791c-6.843,1.657-13.745,2.221-20.384,5.865
			c-6.606,3.626-14.86,3.819-21.502,8.636c-3.771,2.734-8.661,3.83-12.833,6.583c-5.118,3.376-10.915,5.677-15.419,10.15
			c-1.774,1.762-4.306,2.741-6.414,4.191c-2.142,1.473-4.244,3.018-6.252,4.668c-1.219,1.001-2.215,2.272-3.329,3.404
			c-0.905,0.918-1.808,1.842-2.762,2.707c-2.67,2.417-5.521,4.655-8.005,7.247c-2.168,2.264-3.795,5.041-5.912,7.362
			c-3.236,3.548-7.15,6.564-9.946,10.41c-4.964,6.831-9.497,14-13.842,21.249c-3.064,5.111-5.754,10.483-8.181,15.93
			c-2.546,5.716-5.131,11.515-6.72,17.537c-3.127,11.849-5.841,23.826-8.191,35.854c-1.127,5.768-1.469,11.78-1.398,17.672
			c0.124,10.429,0.83,20.852,1.305,31.277c0.034,0.746,0.096,1.504,0.268,2.229c1.08,4.582,2.216,9.151,3.293,13.733
			c1.335,5.68,2.434,11.423,4.016,17.031c1.054,3.736,2.719,7.308,4.206,10.914c3.081,7.475,5.78,15.153,9.47,22.318
			c3.709,7.204,8.371,13.926,12.738,20.779c1.996,3.134,4.232,6.119,6.458,9.098c1.75,2.341,3.616,4.599,5.5,6.834
			c0.927,1.101,2.032,2.05,3.025,3.097c3.425,3.608,6.628,7.459,10.308,10.785c4.267,3.855,8.949,7.255,13.449,10.854
			c0.289,0.23,0.557,0.488,0.849,0.714c4.405,3.407,8.611,7.122,13.269,10.14c5.99,3.883,12.345,7.199,18.536,10.772
			c2.324,1.342,4.482,3.133,6.966,4.005c9.133,3.203,18.36,6.146,27.581,9.096c1.871,0.598,3.882,0.742,5.805,1.192
			c6.684,1.564,13.283,3.82,20.054,4.603c9.187,1.062,18.502,1.334,27.763,1.334c8.217,0.001,16.435-0.812,24.649-1.321
			c0.963-0.06,1.916-0.435,2.851-0.733c2.452-0.783,4.841-1.855,7.347-2.363c6.319-1.277,12.693-2.286,19.032-3.473
			c0.66-0.123,1.226-0.725,1.845-1.085c1.465-0.854,2.857-1.894,4.417-2.51c6.251-2.468,12.962-3.172,18.857-7.349
			c4.461-3.16,10.175-4.759,14.813-8.125c2.168-1.573,4.957-2.293,7.115-3.877c4.82-3.535,9.239-7.638,14.168-11
			c3.979-2.713,7.961-5.394,11.326-8.808c4.133-4.193,7.987-8.661,11.943-13.028c3.615-3.992,7.534-7.764,10.716-12.076
			c3.592-4.869,6.634-10.163,9.69-15.403c3.621-6.209,6.991-12.564,10.499-18.84c0.696-1.246,1.767-2.329,2.249-3.641
			c1.261-3.422,2.258-6.94,3.42-10.4c2.088-6.214,4.556-12.323,6.241-18.643c1.712-6.417,2.796-13.014,3.92-19.571
			c1.076-6.273,2.041-12.579,2.684-18.908C399.872,202.547,399.556,198.646,399.556,194.777z"/>
		<path fill-rule="evenodd" clip-rule="evenodd" d="M399.556,194.777c0,3.869,0.316,7.77-0.072,11.6
			c-0.643,6.329-1.607,12.635-2.684,18.908c-1.124,6.558-2.208,13.154-3.92,19.571c-1.686,6.319-4.153,12.429-6.241,18.643
			c-1.162,3.46-2.159,6.979-3.42,10.4c-0.482,1.312-1.553,2.395-2.249,3.641c-3.508,6.275-6.878,12.631-10.499,18.84
			c-3.057,5.24-6.099,10.534-9.69,15.403c-3.182,4.313-7.101,8.084-10.716,12.076c-3.956,4.367-7.811,8.835-11.943,13.028
			c-3.365,3.414-7.348,6.095-11.326,8.808c-4.929,3.362-9.348,7.465-14.168,11c-2.158,1.584-4.947,2.304-7.115,3.877
			c-4.639,3.366-10.353,4.965-14.813,8.125c-5.896,4.177-12.606,4.881-18.857,7.349c-1.56,0.616-2.952,1.656-4.417,2.51
			c-0.619,0.36-1.185,0.962-1.845,1.085c-6.339,1.187-12.713,2.195-19.032,3.473c-2.506,0.508-4.895,1.58-7.347,2.363
			c-0.935,0.299-1.888,0.674-2.851,0.733c-8.215,0.51-16.433,1.322-24.649,1.321c-9.261,0-18.577-0.272-27.763-1.334
			c-6.771-0.782-13.37-3.038-20.054-4.603c-1.923-0.45-3.935-0.595-5.805-1.192c-9.221-2.95-18.448-5.893-27.581-9.096
			c-2.484-0.872-4.643-2.663-6.966-4.005c-6.19-3.573-12.546-6.89-18.536-10.772c-4.658-3.018-8.864-6.732-13.269-10.14
			c-0.292-0.226-0.56-0.483-0.849-0.714c-4.5-3.599-9.182-6.998-13.449-10.854c-3.68-3.326-6.882-7.177-10.308-10.785
			c-0.994-1.047-2.098-1.996-3.025-3.097c-1.885-2.235-3.75-4.493-5.5-6.834c-2.226-2.979-4.462-5.964-6.458-9.098
			c-4.367-6.854-9.028-13.575-12.738-20.779c-3.69-7.165-6.389-14.844-9.47-22.318c-1.486-3.606-3.152-7.178-4.206-10.914
			c-1.582-5.608-2.68-11.352-4.016-17.031c-1.077-4.582-2.213-9.151-3.293-13.733c-0.171-0.725-0.233-1.482-0.268-2.229
			c-0.475-10.425-1.182-20.848-1.305-31.277c-0.07-5.893,0.271-11.904,1.398-17.672c2.35-12.029,5.064-24.005,8.191-35.854
			c1.589-6.021,4.174-11.821,6.72-17.537c2.427-5.447,5.117-10.819,8.181-15.93c4.345-7.249,8.877-14.418,13.842-21.249
			c2.795-3.846,6.71-6.862,9.946-10.41c2.117-2.322,3.744-5.098,5.912-7.362c2.484-2.592,5.335-4.831,8.005-7.247
			c0.955-0.865,1.857-1.788,2.762-2.707c1.114-1.132,2.11-2.403,3.329-3.404c2.008-1.65,4.11-3.195,6.252-4.668
			c2.108-1.451,4.64-2.43,6.414-4.191c4.504-4.473,10.301-6.774,15.419-10.15c4.172-2.752,9.063-3.848,12.833-6.583
			c6.642-4.816,14.896-5.01,21.502-8.636c6.64-3.645,13.541-4.208,20.384-5.865c6.301-1.526,12.662-3.006,19.084-3.791
			c16.439-2.011,32.935-1.269,49.35,0.338c5.435,0.532,10.694,2.746,16.067,4.048c3.969,0.962,7.993,1.692,11.992,2.526
			c0.85,0.177,1.749,0.231,2.539,0.554c3.962,1.616,7.921,3.245,11.833,4.976c7.267,3.216,14.743,6.069,21.68,9.894
			c6.563,3.62,12.585,8.234,18.771,12.52c4.456,3.088,8.993,6.111,13.118,9.608c3.937,3.337,7.48,7.161,11.027,10.929
			c5.843,6.208,11.78,12.352,17.229,18.896c3.46,4.157,6.226,8.918,9.09,13.541c2.935,4.737,6.045,9.441,8.306,14.505
			c4.101,9.188,7.744,18.588,11.344,27.988c1.774,4.632,3.166,9.425,4.467,14.217c0.968,3.563,1.704,7.212,2.2,10.87
			c0.766,5.649,1.143,11.351,1.872,17.005c0.397,3.075,1.431,6.075,1.723,9.151c0.306,3.22,0.068,6.49,0.068,9.739
			C399.647,194.777,399.602,194.777,399.556,194.777z M89.381,184.771c-1.173,0.334-2.342,0.687-3.521,0.999
			c-2.792,0.738-3.708,1.933-1.017,4.042c-3.009,1.183-0.576,2.582-0.442,4.119c0.256,2.942-0.718,5.972-0.855,8.979
			c-0.056,1.234,1.167,2.548,1.055,3.754c-0.332,3.558-1.04,7.078-1.671,11.052c1.506-0.254,2.119-0.298,2.695-0.464
			c2.365-0.682,4.755-2.075,7.07-1.953c3.779,0.2,7.304,0.209,10.559-1.95c0.363-0.24,0.815-0.591,1.183-0.545
			c1.605,0.202,3.315,1.023,4.751,0.667c1.276-0.315,3.144-1.854,3.18-2.906c0.12-3.545-0.461-7.113-0.784-10.784
			c-1.233-0.253-2.314-0.476-3.239-0.666c-0.447-2.301,6.672-1.929,2.238-4.969c0.38-1.162,0.987-2.209,1.023-3.275
			c0.134-3.986-0.448-8.075,0.253-11.941c0.646-3.566,1.589-6.817-1.046-10.223c-0.797,0.713-1.51,1.351-2.334,2.087
			c-0.446-0.962-0.78-1.685-1.092-2.358c-2.912,0.797-5.607,1.536-8.895,2.435c-1.87-2.084-4.122-4.595-6.375-7.105
			c1.848,0.935,3.696,1.869,5.788,2.926c0.162-0.254,0.58-0.911,1.032-1.62c2.552,3.169,3.262,3.178,5.273,0.221
			c1.071,1.47,7.935,2.319,9.103,1.045c0.328-0.357,0.541-1.256,0.323-1.606c-1.311-2.108-0.253-3.745,0.492-5.709
			c0.342-0.904-0.912-3.014-1.995-3.68c-1.002-0.618-2.74-0.015-4.155,0.003c-1.431,0.018-2.885-0.188-4.289,0.002
			c-2.109,0.285-4.184,0.83-6.273,1.264c-0.082-0.327-0.163-0.652-0.245-0.979c-1.974,2.078-3.948,4.156-5.921,6.234
			c0.084-0.851,0.169-1.701,0.241-2.424c-1.421-0.09-2.671-0.275-3.907-0.208c-0.803,0.044-2.28,0.474-2.274,0.702
			c0.078,3.034-0.384,6.407,0.809,8.995c1.176,2.551,4.079,4.306,5.974,6.165c0.939-0.512,1.786-1.004,2.678-1.391
			c0.064-0.029,0.729,0.775,0.653,1.076c-0.231,0.919-0.443,2.136-1.107,2.596c-1.548,1.073-3.355,1.772-5.057,2.623
			c-0.515-1.511-1.029-3.02-1.614-4.736c-1.711,1.514-2.968,2.626-4.655,4.119c2.286,0.84,4.253,1.563,6.221,2.286
			C89.269,182.701,89.326,183.736,89.381,184.771z M115.149,77.031c-0.505,0.512-1.011,1.023-1.517,1.535
			c-1.563,3.142-3.126,6.283-4.689,9.425c-2.501,3.12-2.396,3.438,2.377,7.158c0.1,2.219,0.2,4.438,0.329,7.314
			c-2.491-1.322-4.3-3.923-5.877-0.413c-0.109,0.242-0.978,0.059-1.414,0.252c-1.558,0.689-4.179,1.254-4.36,2.241
			c-0.273,1.483,1.171,3.283,2.131,5.52c-1.351,1.274-3.481,3.012-5.231,5.074c-0.644,0.758-0.385,2.28-0.545,3.452
			c-0.15,1.095,0.021,2.922-0.516,3.163c-3.438,1.538-3.513,3.602-1.194,6.092c-3.891,2.695-3.382,7.319,0.559,9.497
			c0.776,0.429,1.625,2.265,1.314,2.818c-0.751,1.333-2.168,2.292-2.939,3.038c-1.059-2.633-1.813-4.509-2.567-6.384
			c-0.255-0.006-0.512-0.012-0.767-0.018c-0.468,2.755-0.936,5.512-1.293,7.621c1.732,1.105,3.083,1.968,4.433,2.831
			c-1.331,0.358-2.914,0.386-3.93,1.159c-1.224,0.931-2.729,2.495-2.729,3.785c0,1.714,1.17,3.5,3.775,2.36
			c1.867-0.817,3.899-1.254,6.184-1.962c0.13-0.419,0.384-1.24,0.49-1.583c1.078,0.675,2.014,1.767,2.859,1.701
			c3.173-0.247,6.339-0.764,9.46-1.409c1.149-0.238,2.16-1.593,3.245-1.607c3.108-0.042,3.236-0.035,3.515-2.935
			c0.268-2.779,0.431-5.606,1.088-8.303c1.425-5.849,3.119-11.634,4.744-17.434c0.469-1.674,1.054-3.317,1.628-4.96
			c1.183-3.384,2.387-6.761,3.596-10.135c0.998-2.784,1.893-5.615,3.061-8.327c0.9-2.088,2.156-4.023,3.25-6.029
			c4.266-7.828,7.998-16.013,12.938-23.39c5.606-8.371,12.273-16.034,18.533-23.962c0.784-0.993,1.961-1.665,2.848-2.589
			c2.888-3.007,5.491-6.339,8.645-9.028c3.75-3.198,7.9-5.944,11.984-8.729c3.412-2.327,6.842-4.697,10.51-6.565
			c5.131-2.613,10.489-4.777,16.615-7.52c-1.782-1.011-2.532-1.816-3.197-1.751c-3.411,0.33-6.787,1.085-10.201,1.313
			c-5.897,0.396-10.969,3.181-16.326,5.178c-4.636,1.729-9.624,2.752-13.929,5.067c-4.99,2.682-9.442,6.382-14.057,9.737
			c-4.334,3.15-8.83,6.147-12.79,9.725c-4.23,3.822-7.508,8.768-11.958,12.258c-4.358,3.419-7.972,6.932-9.335,12.395
			c-0.027,0.11-0.144,0.201-0.227,0.293c-2.375,2.61-4.752,5.219-6.925,7.605c0.532,1.486,1.047,2.926,1.563,4.366
			C117.255,76.322,116.203,76.677,115.149,77.031z M209.922,179.126l0.08,0.085c-0.804-1.152-1.606-2.305-2.644-3.794
			c2.163,0.234,3.514,0.379,5.627,0.606c0.275,0.149,2.105,1.341,2.231,1.183c1.549-1.958,3.606-3.969,4.041-6.251
			c0.692-3.632,0.275-7.478,0.297-11.234c0.022-3.601,0.006-7.203,0.006-10.882c-2.751,0.688-5.116,1.28-7.715,1.93
			c-0.114-0.173-0.546-0.826-1.119-1.693c-0.718,1.009-1.237,1.741-1.301,1.831c-2.667-0.827-4.951-2.311-6.977-2.016
			c-5.714,0.832-11.379,0.354-17.072,0.401c-9.542,0.079-19.092,0.29-28.622,0.781c-6.2,0.32-12.36,1.341-18.554,1.854
			c-4.938,0.408-9.908,0.437-14.851,0.804c-2.051,0.151-4.407,0.307-4.768,3.13c-0.715,5.591-1.665,11.174-1.971,16.79
			c-0.455,8.35-0.472,16.724-0.605,25.088c-0.076,4.776-0.013,9.555-0.013,15.046c4.75-1.205,8.498-2.448,12.347-3.075
			c10.508-1.71,21.058-3.166,31.593-4.702c1.481-0.217,2.999-0.211,4.467-0.486c5.433-1.018,10.823-2.29,16.282-3.121
			c5.531-0.842,11.15-1.104,16.683-1.931c6.035-0.901,12.054-1.997,17.992-3.381c1.396-0.325,3.159-1.972,3.495-3.323
			c0.632-2.544,0.518-5.323,0.389-7.99c-0.108-2.268-0.675-4.515-0.857-5.649C214.861,179.126,212.392,179.126,209.922,179.126z
			 M222.612,236.315c0,2.888,0.008,5.094,0,7.3c-0.035,9.771,0.031,19.546-0.149,29.314c-0.114,6.093-0.763,12.177-0.886,18.271
			c-0.158,7.842-0.017,15.69-0.034,23.534c-0.014,6.622-0.075,13.244-0.108,19.865c-0.073,14.581-0.13,29.162-0.225,43.743
			c-0.014,2.2,0.078,4.182,3.149,3.543c8.65-1.799,17.642-0.876,26.174-4.358c6.459-2.636,13.833-2.981,20.384-5.448
			c7.335-2.763,14.237-6.698,21.262-10.253c5.498-2.782,11.432-4.418,16.275-8.875c4.648-4.277,10.949-6.701,15.969-10.646
			c5.49-4.316,10.396-9.389,15.448-14.244c1.956-1.88,3.545-4.135,5.422-6.104c3.479-3.649,7.321-6.99,10.495-10.883
			c2.729-3.346,4.644-7.344,7.082-10.942c6.103-9.012,11.473-18.352,15.377-28.597c2.926-7.677,7.036-14.829,8.459-23.145
			c1.096-6.402,3.509-12.569,4.964-18.927c1.185-5.173,2.07-10.446,2.61-15.725c0.414-4.049,0.083-8.176,0.083-13.018
			c-3.277,3.084-5.655,5.63-8.343,7.791c-7.426,5.97-16.692,8.127-25.328,11.373c-8.021,3.016-16.552,4.775-24.958,6.634
			c-7.154,1.583-14.416,2.809-21.692,3.679c-15.192,1.817-30.408,3.47-45.646,4.845c-8.615,0.777-17.287,0.982-25.939,1.235
			C236.043,236.466,229.618,236.315,222.612,236.315z M225.24,7.64c-0.122,1.105-0.279,1.953-0.302,2.804
			c-0.702,26.006,1.823,52.093-1.943,78.032c-0.203,1.402,1.007,2.974,0.939,4.438c-0.141,3.076-0.991,6.132-1.022,9.2
			c-0.13,12.839-0.016,25.68-0.095,38.519c-0.032,5.136,0.069,5.511,5.222,5.801c9.323,0.526,18.669,0.712,27.981,1.382
			c11.335,0.816,22.734,0.835,33.936,3.377c6.602,1.497,13.422,2.004,20.113,3.133c8.657,1.46,17.283,3.099,25.924,4.655
			c2.329,0.419,4.728,0.591,6.98,1.261c6.902,2.054,13.858,4.008,20.585,6.55c6,2.266,11.939,4.881,17.502,8.051
			c4.646,2.647,8.706,6.322,13.483,9.883c-0.121-2.598,0.025-5.169-0.402-7.64c-1.541-8.885-3.074-17.78-4.992-26.588
			c-2.029-9.318-3.866-18.692-8.366-27.322c-4.291-8.229-7.917-16.803-12.166-25.056c-1.974-3.833-4.731-7.263-7.136-10.874
			c-0.206-0.31-0.398-0.632-0.633-0.92c-3.368-4.128-6.729-8.262-10.119-12.372c-3.233-3.918-6.363-7.936-9.813-11.657
			c-1.65-1.781-4.011-2.883-5.917-4.456c-4.618-3.808-9.155-7.712-13.732-11.569c-0.475-0.4-1.152-0.641-1.475-1.128
			c-4.073-6.158-11.681-7.3-16.936-11.938c-2.991-2.64-7.645-3.314-11.365-5.228c-5.782-2.973-11.187-6.78-17.153-9.271
			c-8.614-3.596-18.138-4.032-26.961-7.707C240.743,8.239,232.783,8.66,225.24,7.64z M222.735,232.683
			c1.008,0.053,2.096,0.203,3.175,0.152c23.433-1.083,46.887-1.858,70.286-3.452c9.437-0.643,18.703-3.476,28.132-4.606
			c10.115-1.213,19.824-3.77,29.549-6.629c8.177-2.403,16.344-4.53,24.024-8.486c5.224-2.691,10.233-5.646,13.87-10.061
			c1.74-2.114,2.836-6.599,1.757-8.799c-2.059-4.195-5.351-8.25-9.116-11.027c-4.666-3.443-10.174-5.933-15.611-8.097
			c-6.718-2.674-13.613-5.145-20.652-6.717c-14.642-3.271-29.41-5.998-44.169-8.722c-4.895-0.903-9.921-1.078-14.879-1.65
			c-12.983-1.499-25.952-3.134-38.948-4.502c-4.827-0.508-9.715-0.483-14.577-0.588c-4.166-0.09-8.337-0.019-12.84-0.019
			C222.735,177.226,222.735,204.796,222.735,232.683z M117.737,229.529c0.928,4.482,1.672,7.662,2.235,10.873
			c1.693,9.665,2.492,19.461,6.649,28.645c2.871,6.342,4.319,13.313,6.882,19.813c2.484,6.298,5.397,12.448,8.464,18.489
			c2.359,4.646,5.159,9.081,7.936,13.501c2.114,3.364,4.402,6.632,6.792,9.808c2.13,2.83,4.594,5.408,6.753,8.219
			c2.377,3.094,4.187,6.725,6.939,9.406c4.429,4.317,9.44,8.034,14.178,12.036c1.044,0.882,1.868,2.053,2.978,2.823
			c4.066,2.822,8.028,5.877,12.377,8.187c4.26,2.262,8.918,3.794,13.461,5.488c1.292,0.482,2.858,0.715,4.161,0.43
			c0.463-0.102,0.695-2.074,0.713-3.197c0.025-1.59-0.289-3.183-0.383-4.778c-0.191-3.253-0.369-6.509-0.484-9.766
			c-0.103-2.904-0.115-5.813-0.164-8.719c-0.016-0.988-0.099-1.981-0.018-2.963c0.226-2.72,0.388-5.456,0.816-8.146
			c1.033-6.48-0.953-12.893-0.006-19.463c0.785-5.453,0.059-11.135-0.121-16.71c-0.072-2.26-0.691-4.513-0.651-6.761
			c0.034-1.897,1.531-4.208,0.856-5.592c-1.817-3.726,0.881-7.014,0.258-10.516c-0.263-1.479-0.055-3.042-0.056-4.566
			c-0.002-2.498-0.001-4.998-0.001-7.952c-0.953-0.22-2.309-0.532-3.823-0.882c0.188-1.271,0.359-2.439,0.604-4.107
			c1.155,0.957,1.899,1.574,3.633,3.011c0-9.911,0-18.796,0-28.791c-4.411-0.485-9.692-1.066-15.289-1.683
			c-0.955,0.913-1.71,4.281-4.194,0.805c-0.141-0.197-0.853-0.017-1.294,0.036c-2.919,0.354-5.995,1.468-8.712,0.888
			c-3.053-0.652-5.879-1.445-9.154-1.551c-9.516-0.306-19.006-1.454-28.501-2.327c-8.625-0.794-17.247-1.618-25.861-2.521
			C123.45,230.76,121.223,230.184,117.737,229.529z M220.757,9.66c-2.031,3.294-4.583,3.891-7.338,4.92
			c-6.364,2.378-12.357,5.9-18.215,9.431c-3.972,2.394-7.516,5.521-11.147,8.448c-4.091,3.297-8.286,6.515-12.026,10.185
			c-3.201,3.143-5.79,6.904-8.71,10.34c-3.145,3.7-6.769,7.066-9.448,11.07c-3.825,5.715-6.984,11.876-10.42,17.85
			c-0.667,1.16-1.295,2.342-1.951,3.508c-1.61,2.866-3.415,5.64-4.793,8.612c-1.935,4.173-3.691,8.442-5.276,12.76
			c-2.391,6.514-4.889,13.017-6.748,19.688c-1.852,6.648-2.957,13.503-4.421,20.261c-0.582,2.684,0.183,3.548,3.093,3.175
			c6.419-0.826,12.888-1.259,19.333-1.88c7.903-0.762,15.799-1.596,23.71-2.258c0.771-0.064,1.624,0.856,2.413,1.305
			c0.516-0.448,1.246-1.63,2.019-1.659c3.583-0.132,7.176,0.044,10.766,0.136c2.078,0.053,4.173,0.374,6.228,0.195
			c4.929-0.426,9.831-1.429,14.759-1.532c4.679-0.099,9.373,0.87,14.064,0.919c1.946,0.021,3.811-0.892,3.178-3.908
			c-0.708-3.378-1.112-6.9-1.036-10.346c0.165-7.445,0.722-14.882,1.146-22.834c-1.483,0.803-2.262,1.225-3.04,1.646
			c0.64-1.941,2.571-3.291,2.639-4.729c0.088-1.833-1.332-3.736-2.046-5.472c2.849-0.482,1.953-2.73,2.112-4.339
			c0.104-1.061-0.321-2.177-0.199-3.233c0.206-1.779,1.47-3.912,0.854-5.22c-1.737-3.683-2.11-7.28-0.504-10.854
			c1.333-2.965-0.325-5.591-0.191-8.347c0.26-5.348,0.914-10.676,1.201-16.023c0.075-1.385-0.863-2.808-0.881-4.219
			c-0.032-2.535,0.363-5.071,0.421-7.61c0.041-1.787-0.599-3.678-0.201-5.348c0.86-3.62,0.197-6.798-1.885-9.687
			C221.141,21.866,221.943,17.437,220.757,9.66z M21.929,195.011c-0.058,0.973-0.253,1.958-0.154,2.915
			c0.894,8.611,1.598,17.252,2.847,25.812c0.972,6.658,2.557,13.232,4.038,19.807c0.693,3.076,1.656,6.109,2.735,9.076
			c1.089,2.993,2.59,5.835,3.7,8.82c1.615,4.348,3.059,8.759,4.541,13.155c0.798,2.368,1.126,4.995,2.364,7.095
			c2.629,4.457,5.78,8.603,8.592,12.955c2.086,3.229,3.696,6.798,6.022,9.827c3.006,3.914,6.505,7.449,9.808,11.133
			c3.846,4.29,7.669,8.601,11.591,12.818c1.04,1.12,2.455,1.879,3.611,2.902c4.397,3.889,8.712,7.872,13.157,11.705
			c1.758,1.516,4.455,2.343,5.505,4.181c1.352,2.364,3.335,2.913,5.392,3.848c1.985,0.903,3.908,1.961,5.792,3.065
			c2.12,1.243,4.094,2.749,6.259,3.899c3.133,1.664,6.412,3.05,9.573,4.664c5.567,2.843,10.873,6.363,16.689,8.51
			c7.521,2.775,15.397,4.634,23.193,6.601c6.101,1.539,12.312,2.643,18.475,3.939c0.076-0.363,0.153-0.725,0.23-1.087
			c-3.969-1.885-7.915-3.821-11.919-5.626c-1.562-0.704-3.435-0.824-4.861-1.705c-6.303-3.89-12.938-7.265-18.601-12.171
			c-2.211-1.915-5.069-3.098-7.223-5.063c-3.651-3.332-6.629-7.479-10.532-10.438c-4.412-3.343-6.238-8.646-10.681-12.06
			c-3.075-2.363-4.327-7.004-6.667-10.441c-3.436-5.047-7.583-9.513-9.595-15.59c-1.53-4.619-4.586-8.715-6.762-13.144
			c-2.122-4.319-4.314-8.651-5.889-13.183c-2.469-7.1-4.62-14.325-6.568-21.587c-1.389-5.178-2.469-10.469-3.238-15.774
			c-0.851-5.867-1.111-11.817-1.82-17.707c-0.145-1.207-0.871-2.958-1.793-3.342c-2.823-1.175-5.862-1.844-8.835-2.642
			c-5.924-1.591-12.087-2.572-17.733-4.846c-6.494-2.615-12.496-6.435-18.786-9.583C29.366,203.239,24.979,200.126,21.929,195.011z
			 M21.466,184.067c0.48,0.13,0.959,0.26,1.438,0.39c0.634-1.097,1.221-2.223,1.915-3.279c0.645-0.981,1.229-2.135,2.146-2.777
			c2.626-1.838,5.323-3.612,8.146-5.125c5.606-3.005,11.071-6.55,17.04-8.535c8.397-2.791,17.188-4.405,25.832-6.434
			c2.255-0.529,3.513-1.454,4.138-3.961c2.222-8.906,2.185-18.245,6.156-26.866c2.98-6.467,4.315-13.671,6.867-20.362
			c2.577-6.755,5.962-13.2,8.606-19.932c2.912-7.414,6.96-14.072,11.88-20.276c0.697-0.879,0.712-2.312,1.431-3.158
			c3.42-4.033,6.978-7.949,10.476-11.917c0.232-0.263,0.355-0.62,0.559-0.912c1.148-1.64,2.17-3.396,3.498-4.876
			c1.359-1.517,3.023-2.759,4.547-4.128c3.739-3.361,7.442-6.76,11.226-10.07c1.377-1.205,2.914-2.237,4.425-3.28
			c5.071-3.505,9.895-7.495,15.317-10.336c6.542-3.426,13.599-5.868,20.432-8.735c-1.801-0.718-3.495-0.791-5.18-0.706
			c-8.386,0.429-16.221,3.138-24.106,5.733c-4.234,1.393-8.949,1.625-12.894,3.528c-8.414,4.059-17.519,6.67-25.278,12.138
			c-3.941,2.777-8.74,3.716-12.642,7.239c-3.645,3.291-8.438,5.624-12.315,9.014c-4.645,4.061-9.468,7.917-14.177,11.905
			c-1.146,0.97-2.172,2.085-3.208,3.178c-3.785,3.992-7.653,7.91-11.288,12.035c-2.69,3.054-5.166,6.312-7.559,9.608
			c-3.744,5.159-7.433,10.365-10.951,15.68c-1.509,2.28-2.525,4.885-3.772,7.339c-2.334,4.593-4.849,9.105-6.941,13.806
			c-1.131,2.542-0.743,6.171-2.454,7.953c-3.383,3.526-3.402,7.961-4.714,12.008c-1.617,4.985-2.732,10.138-3.954,15.245
			c-0.653,2.732-1.156,5.508-1.586,8.286C23.459,170.34,22.479,177.207,21.466,184.067z M210.644,381.602
			c-5.991-7.743-15.625-7.075-21.421-13.622c-3.363-3.799-8.887-5.591-12.797-9.019c-5.415-4.745-10.331-10.083-15.229-15.38
			c-1.428-1.543-4.438-2.379-3.441-5.623c0.11-0.357-1.138-1.146-1.775-1.713c-0.872-0.775-1.996-1.379-2.601-2.32
			c-2.154-3.355-3.981-6.925-6.212-10.225c-4.581-6.776-8.742-13.667-12.096-21.237c-1.539-3.473-3.606-7.107-5.368-10.7
			c-0.627-1.278-0.853-2.752-1.468-4.037c-0.724-1.513-1.672-2.918-2.4-4.159c0.371-4.605-2.481-8.501-3.645-12.747
			c-1.289-4.706-2.799-9.353-4.317-14.371c2.193-1.642,0.237-4.159-0.49-6.642c-0.877-2.994-2.068-5.962-2.44-9.023
			c-0.425-3.502-0.098-7.095-0.098-10.668c-8.107,0.485-15.056-4.596-22.531-2.796c-2.291-1.022-4.597-2.052-7.277-3.248
			c0.573,4.112,1.422,7.209,1.313,10.271c-0.106,2.958-0.469,5.503,2.896,5.879c-0.124,2.568-0.556,4.891-0.252,7.112
			c0.294,2.155,1.343,4.207,2.143,6.545c0.006-0.001,0.648-0.144,1.343-0.298c0,1.494,0,2.832,0,4.243
			c-0.832-0.267-1.393-0.446-1.953-0.625c0.358,1.383,1.214,2.089,1.796,2.975c0.909,1.384,2.682,3.542,2.254,4.232
			c-1.969,3.17,1.208,5.08,1.067,7.292c1.448,0,2.66,0,4.189,0c-0.858,1.338-1.963,2.289-1.814,2.964
			c0.642,2.917-1,6.652,2.831,8.561c0.314,0.156,0.141,1.172,0.314,1.752c0.582,1.951,1.219,3.887,1.835,5.828
			c1.044,5.236,4.927,9.37,6.208,14.346c1.404,5.455,5.186,8.799,8.974,12.327c-0.6,0.536-1.119,0.998-1.048,0.935
			c1.017,1.551,1.866,2.804,2.67,4.085c0.824,1.313,1.523,2.708,2.416,3.969c3.221,4.548,9.206,7.172,9.54,13.775
			c0.02,0.381,1.232,0.637,1.801,1.067c1.05,0.797,2.092,1.621,3.032,2.542c1.619,1.583,3.003,3.439,4.755,4.847
			c5.718,4.59,11.375,9.293,17.402,13.45c5.682,3.918,11.645,7.509,17.787,10.651c3.897,1.994,8.683,2.322,12.443,4.486
			c2.958,1.701,5.845,2.283,8.994,2.685c1.969,0.251,3.916,0.681,5.884,0.936C205.973,381.179,208.102,381.346,210.644,381.602z
			 M24.646,189.436c-0.41,6.932,4.624,10.078,9.158,12.958c5.032,3.196,10.11,6.274,16.171,7.975
			c5.652,1.586,10.813,4.98,16.895,5.834c3.115,0.438,6.122,1.638,9.18,2.485c1.053,0.293,2.289,1.02,3.11,0.699
			c0.646-0.251,1.165-1.843,1.08-2.779c-0.422-4.598-0.387-9.122-1.551-13.812c-1.509-6.077-1.587-13.131,0.026-19.145
			c1.076-4.009,0.921-7.833,1.526-11.703c0.359-2.298,0.535-4.625,0.742-6.944c0.125-1.397,0.732-3.368,0.065-4.057
			c-0.772-0.798-2.812-0.888-4.114-0.554c-3.699,0.949-7.332,2.186-10.934,3.466c-5.283,1.877-10.388,4.455-15.806,5.707
			c-7.081,1.636-13.25,4.987-18.728,9.286C28.238,181.385,24.134,184.313,24.646,189.436z M219.489,200.612
			c-2.428,0-4.254-0.331-5.907,0.062c-5.564,1.319-11.232,2.481-16.519,4.567c-2.379,0.938-5.451,0.104-6.571,1.246
			c-1.937,1.974-3.876,2.063-6.117,2.346c-2.08,0.263-4.344,0.293-6.165,1.174c-7.181,3.471-14.754,5.388-22.573,6.649
			c-2.925,0.473-5.943,1.075-8.607,2.298c-4.708,2.158-9.364,3.93-14.609,4.617c-3.335,0.438-7.584,0.175-9.797,4.057
			c2.793,0.642,5.373,1.541,8.011,1.779c7.067,0.639,14.155,1.079,21.242,1.441c9.908,0.506,19.82,0.981,29.736,1.265
			c11.562,0.331,23.129,0.502,34.697,0.586c1.855,0.014,4.403-0.285,2.455-3.435c-0.147-0.238,0.38-0.815,0.387-1.238
			c0.042-2.351,0.021-4.703,0.021-7.622c-0.883,1.011-1.333,1.525-1.66,1.899c-2.625-3.235,2.743-4.388,1.52-7.463
			c-0.556-1.398-0.253-3.181-0.178-4.781C218.998,206.994,219.259,203.936,219.489,200.612z M116.265,215.591
			c0,1.9-0.008,3.014,0.001,4.129c0.043,4.871,0.428,5.187,5.195,3.786c7.212-2.119,14.396-4.332,21.608-6.45
			c1.852-0.544,3.763-0.884,5.647-1.317c0.101-0.359,0.202-0.719,0.302-1.079c-2.764-0.92-5.614-2.813-8.276-2.578
			C132.624,212.798,124.579,214.336,116.265,215.591z M113.557,225.554c-0.208-2.211-0.331-3.182-0.385-4.158
			c-0.278-4.972-0.804-4.696-5.859-4.459c-2.834,0.133-5.124,2.543-8.518,1.115c-1.728-0.728-4.761,1.553-7.138,2.62
			c-0.21,0.095,0.071,1.283,0.102,1.68C98.983,223.412,105.948,224.436,113.557,225.554z M149.206,209.77
			c0.078,0.701,0.155,1.401,0.233,2.102c3.996,0,8.081,0.525,11.965-0.131c5.023-0.849,9.878-2.669,14.822-4.012
			c1.74-0.473,3.528-0.772,5.293-1.15c-0.133-0.61-0.267-1.22-0.4-1.83C170.481,206.422,159.843,208.096,149.206,209.77z"/>
		<path fill-rule="evenodd" clip-rule="evenodd" fill="#FFFFFF" d="M222.612,236.315c7.006,0,13.431,0.15,19.845-0.037
			c8.652-0.253,17.324-0.458,25.939-1.235c15.237-1.375,30.453-3.027,45.646-4.845c7.276-0.87,14.538-2.096,21.692-3.679
			c8.406-1.858,16.937-3.618,24.958-6.634c8.636-3.246,17.902-5.403,25.328-11.373c2.688-2.161,5.065-4.707,8.343-7.791
			c0,4.842,0.331,8.969-0.083,13.018c-0.54,5.278-1.426,10.552-2.61,15.725c-1.455,6.357-3.868,12.524-4.964,18.927
			c-1.423,8.315-5.533,15.468-8.459,23.145c-3.904,10.245-9.274,19.585-15.377,28.597c-2.438,3.599-4.354,7.597-7.082,10.942
			c-3.174,3.893-7.017,7.233-10.495,10.883c-1.877,1.969-3.466,4.224-5.422,6.104c-5.052,4.855-9.958,9.928-15.448,14.244
			c-5.02,3.945-11.32,6.369-15.969,10.646c-4.844,4.457-10.777,6.093-16.275,8.875c-7.024,3.555-13.927,7.49-21.262,10.253
			c-6.551,2.467-13.925,2.813-20.384,5.448c-8.532,3.482-17.523,2.56-26.174,4.358c-3.071,0.639-3.163-1.343-3.149-3.543
			c0.095-14.581,0.151-29.162,0.225-43.743c0.033-6.621,0.095-13.243,0.108-19.865c0.018-7.844-0.124-15.692,0.034-23.534
			c0.123-6.094,0.771-12.178,0.886-18.271c0.181-9.769,0.114-19.543,0.149-29.314C222.62,241.409,222.612,239.203,222.612,236.315z"
			/>
		<path fill-rule="evenodd" clip-rule="evenodd" fill="#FFFFFF" d="M225.24,7.64c7.543,1.02,15.503,0.599,22.138,3.362
			c8.823,3.675,18.347,4.111,26.961,7.707c5.967,2.491,11.371,6.298,17.153,9.271c3.721,1.914,8.374,2.587,11.365,5.228
			c5.255,4.638,12.862,5.78,16.936,11.938c0.322,0.487,1,0.728,1.475,1.128c4.577,3.857,9.114,7.762,13.732,11.569
			c1.906,1.572,4.267,2.675,5.917,4.456c3.449,3.721,6.579,7.739,9.813,11.657c3.391,4.109,6.751,8.244,10.119,12.372
			c0.234,0.288,0.427,0.61,0.633,0.92c2.404,3.611,5.162,7.041,7.136,10.874c4.249,8.252,7.875,16.827,12.166,25.056
			c4.5,8.63,6.337,18.004,8.366,27.322c1.918,8.808,3.451,17.703,4.992,26.588c0.428,2.471,0.281,5.042,0.402,7.64
			c-4.777-3.561-8.838-7.235-13.483-9.883c-5.563-3.17-11.502-5.785-17.502-8.051c-6.727-2.542-13.683-4.496-20.585-6.55
			c-2.253-0.67-4.651-0.842-6.98-1.261c-8.641-1.556-17.267-3.195-25.924-4.655c-6.691-1.129-13.512-1.636-20.113-3.133
			c-11.201-2.542-22.601-2.561-33.936-3.377c-9.313-0.67-18.658-0.856-27.981-1.382c-5.152-0.29-5.254-0.665-5.222-5.801
			c0.079-12.839-0.035-25.68,0.095-38.519c0.031-3.068,0.882-6.124,1.022-9.2c0.067-1.464-1.143-3.037-0.939-4.438
			c3.767-25.939,1.241-52.026,1.943-78.032C224.961,9.593,225.118,8.746,225.24,7.64z"/>
		<path fill-rule="evenodd" clip-rule="evenodd" fill="#FFFFFF" d="M222.735,232.683c0-27.887,0-55.457,0-83.205
			c4.503,0,8.674-0.071,12.84,0.019c4.862,0.105,9.75,0.081,14.577,0.588c12.996,1.368,25.965,3.003,38.948,4.502
			c4.958,0.573,9.984,0.747,14.879,1.65c14.759,2.724,29.527,5.451,44.169,8.722c7.039,1.572,13.935,4.043,20.652,6.717
			c5.438,2.164,10.945,4.654,15.611,8.097c3.766,2.777,7.058,6.832,9.116,11.027c1.079,2.201-0.017,6.686-1.757,8.799
			c-3.637,4.414-8.646,7.369-13.87,10.061c-7.681,3.956-15.848,6.083-24.024,8.486c-9.725,2.859-19.434,5.416-29.549,6.629
			c-9.429,1.131-18.695,3.964-28.132,4.606c-23.399,1.594-46.854,2.369-70.286,3.452
			C224.831,232.886,223.743,232.735,222.735,232.683z"/>
		<path fill-rule="evenodd" clip-rule="evenodd" fill="#FFFFFF" d="M117.737,229.529c3.485,0.654,5.712,1.23,7.975,1.467
			c8.614,0.902,17.236,1.727,25.861,2.521c9.496,0.873,18.986,2.021,28.501,2.327c3.275,0.105,6.101,0.898,9.154,1.551
			c2.717,0.58,5.792-0.533,8.712-0.888c0.441-0.053,1.153-0.233,1.294-0.036c2.483,3.477,3.239,0.108,4.194-0.805
			c5.597,0.616,10.878,1.197,15.289,1.683c0,9.995,0,18.88,0,28.791c-1.733-1.437-2.478-2.054-3.633-3.011
			c-0.244,1.668-0.416,2.837-0.604,4.107c1.515,0.35,2.87,0.662,3.823,0.882c0,2.954-0.001,5.454,0.001,7.952
			c0.001,1.524-0.207,3.088,0.056,4.566c0.623,3.502-2.075,6.79-0.258,10.516c0.675,1.384-0.822,3.694-0.856,5.592
			c-0.04,2.248,0.579,4.501,0.651,6.761c0.18,5.575,0.906,11.257,0.121,16.71c-0.947,6.57,1.039,12.982,0.006,19.463
			c-0.429,2.69-0.591,5.427-0.816,8.146c-0.081,0.981,0.002,1.975,0.018,2.963c0.049,2.906,0.062,5.814,0.164,8.719
			c0.115,3.257,0.293,6.513,0.484,9.766c0.094,1.596,0.408,3.188,0.383,4.778c-0.018,1.123-0.25,3.096-0.713,3.197
			c-1.303,0.285-2.869,0.053-4.161-0.43c-4.543-1.694-9.201-3.227-13.461-5.488c-4.35-2.31-8.311-5.364-12.377-8.187
			c-1.11-0.771-1.934-1.941-2.978-2.823c-4.738-4.002-9.75-7.719-14.178-12.036c-2.752-2.682-4.563-6.313-6.939-9.406
			c-2.159-2.811-4.623-5.389-6.753-8.219c-2.39-3.176-4.678-6.443-6.792-9.808c-2.777-4.42-5.576-8.854-7.936-13.501
			c-3.067-6.041-5.98-12.191-8.464-18.489c-2.563-6.501-4.012-13.472-6.882-19.813c-4.158-9.184-4.956-18.979-6.649-28.645
			C119.41,237.191,118.665,234.012,117.737,229.529z M211.625,333.628c0.234-0.03,0.468-0.063,0.702-0.093
			c0.254-2.165,0.509-4.331,0.775-6.609c-1.919,0-3.228,0-3.745,0C210.108,329.145,210.867,331.387,211.625,333.628z
			 M209.918,261.799c-0.764-0.48-1.912-1.203-3.578-2.252c0.124,2.376,0.218,4.174,0.312,5.974
			c-0.509-0.662-1.018-1.325-1.525-1.987C206.693,262.966,208.26,262.398,209.918,261.799z"/>
		<path fill-rule="evenodd" clip-rule="evenodd" fill="#FFFFFF" d="M220.757,9.66c1.187,7.777,0.384,12.206-2.542,14.951
			c2.082,2.889,2.745,6.067,1.885,9.687c-0.397,1.67,0.242,3.562,0.201,5.348c-0.058,2.539-0.453,5.076-0.421,7.61
			c0.018,1.412,0.956,2.834,0.881,4.219c-0.287,5.348-0.941,10.676-1.201,16.023c-0.134,2.756,1.524,5.382,0.191,8.347
			c-1.606,3.575-1.233,7.172,0.504,10.854c0.616,1.308-0.647,3.44-0.854,5.22c-0.122,1.056,0.303,2.172,0.199,3.233
			c-0.159,1.609,0.736,3.857-2.112,4.339c0.714,1.735,2.134,3.639,2.046,5.472c-0.067,1.438-1.999,2.788-2.639,4.729
			c0.778-0.421,1.557-0.843,3.04-1.646c-0.425,7.953-0.981,15.389-1.146,22.834c-0.076,3.446,0.328,6.968,1.036,10.346
			c0.633,3.016-1.231,3.928-3.178,3.908c-4.691-0.049-9.386-1.018-14.064-0.919c-4.928,0.103-9.83,1.106-14.759,1.532
			c-2.055,0.178-4.149-0.143-6.228-0.195c-3.59-0.092-7.184-0.269-10.766-0.136c-0.773,0.028-1.503,1.21-2.019,1.659
			c-0.789-0.449-1.642-1.37-2.413-1.305c-7.911,0.662-15.807,1.497-23.71,2.258c-6.445,0.621-12.914,1.054-19.333,1.88
			c-2.911,0.374-3.675-0.491-3.093-3.175c1.464-6.758,2.569-13.612,4.421-20.261c1.859-6.672,4.356-13.175,6.748-19.688
			c1.585-4.318,3.341-8.587,5.276-12.76c1.378-2.972,3.183-5.746,4.793-8.612c0.656-1.166,1.284-2.348,1.951-3.508
			c3.436-5.974,6.595-12.134,10.42-17.85c2.68-4.004,6.303-7.371,9.448-11.07c2.92-3.437,5.509-7.198,8.71-10.34
			c3.74-3.67,7.935-6.887,12.026-10.185c3.632-2.927,7.176-6.054,11.147-8.448c5.858-3.531,11.851-7.053,18.215-9.431
			C216.174,13.55,218.726,12.954,220.757,9.66z M216.047,48.41c0.411-0.264,0.821-0.529,1.231-0.794
			c-1.085-2.458-2.17-4.915-3.255-7.372c-0.326,0.112-0.653,0.224-0.98,0.335c0.308,1.779,0.616,3.56,0.924,5.339
			c-0.333,0.165-0.666,0.33-0.999,0.494C213.994,47.079,215.021,47.745,216.047,48.41z M200.657,130.284
			c6.315-1.718,6.315-1.718,6.705-3.846c-1.201,0.713-2.186,1.297-3.211,1.906c-0.627-0.704-1.197-1.344-1.768-1.984
			c0.412,0.558,0.823,1.116,1.235,1.674C202.631,128.784,201.644,129.534,200.657,130.284z"/>
		<path fill-rule="evenodd" clip-rule="evenodd" fill="#FFFFFF" d="M21.929,195.011c3.051,5.115,7.438,8.228,12.458,10.741
			c6.29,3.148,12.292,6.968,18.786,9.583c5.646,2.273,11.809,3.255,17.733,4.846c2.973,0.798,6.012,1.467,8.835,2.642
			c0.922,0.384,1.648,2.135,1.793,3.342c0.709,5.89,0.969,11.84,1.82,17.707c0.769,5.306,1.849,10.597,3.238,15.774
			c1.948,7.262,4.099,14.487,6.568,21.587c1.575,4.531,3.768,8.863,5.889,13.183c2.175,4.429,5.232,8.524,6.762,13.144
			c2.013,6.077,6.159,10.543,9.595,15.59c2.34,3.438,3.592,8.078,6.667,10.441c4.443,3.414,6.27,8.717,10.681,12.06
			c3.902,2.958,6.88,7.105,10.532,10.438c2.154,1.965,5.012,3.147,7.223,5.063c5.663,4.906,12.298,8.281,18.601,12.171
			c1.426,0.881,3.299,1.001,4.861,1.705c4.005,1.805,7.95,3.741,11.919,5.626c-0.077,0.362-0.154,0.724-0.23,1.087
			c-6.163-1.297-12.374-2.4-18.475-3.939c-7.795-1.967-15.672-3.825-23.193-6.601c-5.817-2.146-11.122-5.667-16.689-8.51
			c-3.161-1.614-6.44-3-9.573-4.664c-2.165-1.15-4.139-2.656-6.259-3.899c-1.883-1.104-3.806-2.162-5.792-3.065
			c-2.057-0.935-4.041-1.483-5.392-3.848c-1.05-1.838-3.747-2.665-5.505-4.181c-4.445-3.833-8.76-7.816-13.157-11.705
			c-1.156-1.023-2.572-1.782-3.611-2.902c-3.922-4.218-7.745-8.528-11.591-12.818c-3.303-3.684-6.802-7.219-9.808-11.133
			c-2.327-3.029-3.937-6.599-6.022-9.827c-2.813-4.353-5.963-8.498-8.592-12.955c-1.238-2.1-1.566-4.727-2.364-7.095
			c-1.482-4.396-2.926-8.808-4.541-13.155c-1.11-2.985-2.611-5.827-3.7-8.82c-1.079-2.967-2.042-6-2.735-9.076
			c-1.481-6.574-3.066-13.148-4.038-19.807c-1.249-8.56-1.953-17.2-2.847-25.812C21.676,196.97,21.871,195.984,21.929,195.011z"/>
		<path fill-rule="evenodd" clip-rule="evenodd" fill="#FFFFFF" d="M21.466,184.067c1.013-6.861,1.993-13.728,3.054-20.581
			c0.43-2.778,0.933-5.553,1.586-8.286c1.222-5.106,2.337-10.259,3.954-15.245c1.313-4.047,1.332-8.482,4.714-12.008
			c1.711-1.782,1.323-5.412,2.454-7.953c2.092-4.701,4.606-9.213,6.941-13.806c1.247-2.454,2.264-5.06,3.772-7.339
			c3.518-5.315,7.207-10.521,10.951-15.68c2.393-3.296,4.869-6.555,7.559-9.608c3.634-4.125,7.503-8.043,11.288-12.035
			c1.036-1.092,2.062-2.208,3.208-3.178c4.709-3.988,9.532-7.844,14.177-11.905c3.877-3.39,8.67-5.723,12.315-9.014
			c3.902-3.523,8.701-4.462,12.642-7.239c7.76-5.468,16.864-8.079,25.278-12.138c3.944-1.903,8.66-2.135,12.894-3.528
			c7.885-2.595,15.72-5.304,24.106-5.733c1.686-0.085,3.379-0.012,5.18,0.706c-6.833,2.868-13.891,5.309-20.432,8.735
			c-5.423,2.841-10.246,6.831-15.317,10.336c-1.511,1.043-3.047,2.075-4.425,3.28c-3.783,3.31-7.487,6.709-11.226,10.07
			c-1.524,1.37-3.188,2.611-4.547,4.128c-1.327,1.48-2.349,3.236-3.498,4.876c-0.204,0.292-0.327,0.649-0.559,0.912
			c-3.498,3.968-7.056,7.884-10.476,11.917c-0.719,0.847-0.734,2.279-1.431,3.158c-4.92,6.204-8.968,12.862-11.88,20.276
			c-2.645,6.732-6.03,13.177-8.606,19.932c-2.552,6.691-3.887,13.895-6.867,20.362c-3.971,8.621-3.935,17.96-6.156,26.866
			c-0.625,2.507-1.883,3.432-4.138,3.961c-8.644,2.028-17.435,3.643-25.832,6.434c-5.968,1.984-11.434,5.53-17.04,8.535
			c-2.823,1.513-5.52,3.287-8.146,5.125c-0.917,0.642-1.501,1.796-2.146,2.777c-0.694,1.056-1.281,2.183-1.915,3.279
			C22.425,184.327,21.946,184.198,21.466,184.067z"/>
		<path fill-rule="evenodd" clip-rule="evenodd" fill="#FFFFFF" d="M209.922,179.126c2.47,0,4.939,0,8.462,0
			c0.183,1.134,0.749,3.381,0.857,5.649c0.129,2.667,0.243,5.446-0.389,7.99c-0.336,1.351-2.099,2.998-3.495,3.323
			c-5.938,1.384-11.958,2.479-17.992,3.381c-5.533,0.826-11.152,1.089-16.683,1.931c-5.458,0.831-10.849,2.104-16.282,3.121
			c-1.468,0.275-2.985,0.27-4.467,0.486c-10.536,1.536-21.085,2.992-31.593,4.702c-3.849,0.627-7.598,1.87-12.347,3.075
			c0-5.491-0.063-10.27,0.013-15.046c0.134-8.365,0.151-16.739,0.605-25.088c0.306-5.616,1.256-11.199,1.971-16.79
			c0.361-2.823,2.717-2.979,4.768-3.13c4.943-0.367,9.913-0.396,14.851-0.804c6.194-0.512,12.354-1.533,18.554-1.854
			c9.53-0.491,19.08-0.702,28.622-0.781c5.693-0.047,11.357,0.431,17.072-0.401c2.025-0.294,4.31,1.189,6.977,2.016
			c0.063-0.089,0.583-0.821,1.301-1.831c0.573,0.867,1.005,1.521,1.119,1.693c2.599-0.65,4.964-1.242,7.715-1.93
			c0,3.679,0.017,7.281-0.006,10.882c-0.021,3.756,0.396,7.602-0.297,11.234c-0.435,2.282-2.492,4.293-4.041,6.251
			c-0.126,0.158-1.956-1.033-2.231-1.183c-2.113-0.228-3.464-0.373-5.627-0.606c1.037,1.489,1.84,2.642,2.645,3.796
			c-4.789,0.96-3.893,4.398-3.427,7.791c1.119-0.599,2.099-1.122,3.595-1.922c-2.55-1.311-3.399-2.548-0.596-3.876
			C209.938,181.035,209.818,179.845,209.922,179.126z M170.873,183.787c0.219,0.147,0.438,0.294,0.658,0.442
			c0.153-1.858,0.25-3.721,0.473-5.57c0.375-3.114,1.446-6.295,1.07-9.304c-0.346-2.77-2.071-5.758-5.804-5.172
			c-2.172,0.342-4.482,1.11-6.252,2.362c-2.028,1.434-3.741,3.462-5.217,5.502c-4.282,5.919-6.597,12.534-5.493,19.895
			c0.214,1.423,1.804,3.241,3.185,3.771c3.874,1.49,10.499-1.589,12.938-5.441C167.832,188.059,169.387,185.945,170.873,183.787z"/>
		<path fill-rule="evenodd" clip-rule="evenodd" fill="#FFFFFF" d="M210.644,381.602c-2.542-0.256-4.671-0.423-6.787-0.698
			c-1.969-0.255-3.915-0.685-5.884-0.936c-3.149-0.401-6.037-0.983-8.994-2.685c-3.76-2.164-8.546-2.492-12.443-4.486
			c-6.142-3.143-12.105-6.733-17.787-10.651c-6.027-4.157-11.685-8.86-17.402-13.45c-1.752-1.407-3.137-3.264-4.755-4.847
			c-0.94-0.921-1.982-1.745-3.032-2.542c-0.569-0.431-1.782-0.687-1.801-1.067c-0.334-6.604-6.319-9.228-9.54-13.775
			c-0.893-1.261-1.592-2.656-2.416-3.969c-0.804-1.281-1.654-2.534-2.67-4.085c-0.071,0.063,0.448-0.398,1.048-0.935
			c-3.789-3.528-7.57-6.872-8.974-12.327c-1.282-4.976-5.165-9.109-6.208-14.346c-0.616-1.941-1.253-3.877-1.835-5.828
			c-0.173-0.58,0-1.596-0.314-1.752c-3.832-1.908-2.189-5.644-2.831-8.561c-0.149-0.675,0.956-1.626,1.814-2.964
			c-1.529,0-2.741,0-4.189,0c0.141-2.212-3.037-4.122-1.067-7.292c0.428-0.69-1.345-2.849-2.254-4.232
			c-0.582-0.886-1.438-1.592-1.796-2.975c0.561,0.179,1.121,0.358,1.953,0.625c0-1.411,0-2.749,0-4.243
			c-0.695,0.154-1.337,0.297-1.343,0.298c-0.8-2.338-1.849-4.39-2.143-6.545c-0.303-2.222,0.128-4.544,0.252-7.112
			c-3.364-0.376-3.002-2.921-2.896-5.879c0.109-3.063-0.739-6.159-1.313-10.271c2.681,1.196,4.986,2.226,7.277,3.248
			c7.475-1.8,14.424,3.281,22.531,2.796c0,3.573-0.327,7.166,0.098,10.668c0.372,3.062,1.563,6.029,2.44,9.023
			c0.727,2.482,2.684,5,0.49,6.642c1.519,5.019,3.028,9.665,4.317,14.371c1.163,4.246,4.016,8.142,3.645,12.747
			c0.728,1.241,1.676,2.646,2.4,4.159c0.615,1.285,0.841,2.759,1.468,4.037c1.761,3.593,3.829,7.228,5.368,10.7
			c3.354,7.57,7.516,14.461,12.096,21.237c2.23,3.3,4.058,6.869,6.212,10.225c0.604,0.941,1.729,1.545,2.601,2.32
			c0.637,0.566,1.885,1.355,1.775,1.713c-0.996,3.244,2.014,4.08,3.441,5.623c4.899,5.297,9.815,10.635,15.229,15.38
			c3.91,3.428,9.435,5.22,12.797,9.019C195.019,374.526,204.652,373.858,210.644,381.602z M112.604,292.154
			c0.266-0.366,0.532-0.732,0.797-1.099c-1.068-0.769-2.106-2.108-3.211-2.166c-1.527-0.078-3.492,4.086-2.875,6.158
			C108.264,292.231,109.238,289.641,112.604,292.154z M107.45,259.001c-0.951-0.896-1.467-1.383-1.982-1.87
			c-0.225,0.167-0.449,0.332-0.673,0.499c0.719,1.337,1.438,2.673,2.719,5.055c0.912-2.915,1.453-4.64,1.993-6.365
			c-0.373-0.105-0.746-0.21-1.119-0.313C108.117,256.868,107.847,257.731,107.45,259.001z"/>
		<path fill-rule="evenodd" clip-rule="evenodd" fill="#FFFFFF" d="M108.943,87.991c1.563-3.142,3.126-6.283,4.689-9.425
			c-0.035,1.224-0.328,2.511-0.048,3.658c0.512,2.094,1.643,2.208,2.616,1.315c-0.265-1.7-0.429-2.79-0.605-3.879
			c-0.142-0.877-0.297-1.753-0.446-2.629c1.053-0.354,2.105-0.708,3.159-1.062c-0.516-1.44-1.031-2.88-1.563-4.366
			c2.173-2.386,4.55-4.996,6.925-7.605c0.083-0.092,0.2-0.183,0.227-0.293c1.363-5.462,4.977-8.976,9.335-12.395
			c4.45-3.49,7.728-8.436,11.958-12.258c3.96-3.578,8.456-6.575,12.79-9.725c4.615-3.355,9.067-7.055,14.057-9.737
			c4.306-2.315,9.293-3.339,13.929-5.067c5.357-1.997,10.428-4.782,16.326-5.178c3.414-0.229,6.79-0.984,10.201-1.313
			c0.665-0.064,1.415,0.74,3.197,1.751c-6.126,2.743-11.484,4.907-16.615,7.52c-3.668,1.868-7.098,4.238-10.51,6.565
			c-4.084,2.784-8.233,5.53-11.984,8.729c-3.153,2.689-5.756,6.021-8.645,9.028c-0.887,0.924-2.064,1.596-2.848,2.589
			c-6.26,7.928-12.927,15.591-18.533,23.962c-4.939,7.377-8.671,15.563-12.938,23.39c-1.093,2.006-2.35,3.94-3.25,6.029
			c-1.168,2.712-2.063,5.542-3.061,8.327c-1.208,3.375-2.413,6.751-3.596,10.135c-0.574,1.643-1.159,3.287-1.628,4.96
			c-1.625,5.8-3.319,11.585-4.744,17.434c-0.657,2.697-0.82,5.524-1.088,8.303c-0.279,2.9-0.407,2.893-3.515,2.935
			c-1.085,0.015-2.096,1.369-3.245,1.607c-3.121,0.645-6.287,1.163-9.46,1.409c-0.846,0.066-1.781-1.025-2.859-1.701
			c-0.106,0.343-0.36,1.164-0.49,1.583c-2.285,0.708-4.317,1.145-6.184,1.962c-2.605,1.14-3.775-0.646-3.775-2.36
			c0-1.29,1.505-2.854,2.729-3.785c1.016-0.773,2.599-0.801,3.93-1.159c-1.351-0.862-2.701-1.725-4.433-2.831
			c0.358-2.109,0.826-4.866,1.293-7.621c0.255,0.006,0.512,0.012,0.767,0.018c0.754,1.875,1.508,3.75,2.567,6.384
			c0.771-0.745,2.188-1.704,2.939-3.038c0.311-0.553-0.538-2.389-1.314-2.818c-3.941-2.178-4.45-6.802-0.559-9.497
			c-2.319-2.491-2.244-4.555,1.194-6.092c0.537-0.24,0.366-2.068,0.516-3.163c0.16-1.172-0.099-2.694,0.545-3.452
			c1.75-2.062,3.88-3.8,5.231-5.074c-0.959-2.237-2.404-4.036-2.131-5.52c0.182-0.986,2.802-1.551,4.36-2.241
			c0.436-0.193,1.305-0.01,1.414-0.252c1.578-3.51,3.387-0.909,5.877,0.413c-0.129-2.877-0.229-5.096-0.329-7.314
			c4.506-2.715-1.056-6.852,1.446-9.76C111.492,86.256,110.217,87.124,108.943,87.991z M112.673,106.138
			c-1.693,0.22-3.385,0.441-6.066,0.79c1.55,1.321,2.11,1.642,2.442,2.12c0.396,0.57,0.596,1.277,0.881,1.924
			c0.465-0.149,0.931-0.299,1.397-0.448c0.446-1.46,0.892-2.92,1.34-4.381c0.663,0.292,1.315,0.609,1.99,0.869
			c1.065,0.41,2.625,1.412,3.119,1.036c1.033-0.785,1.507-2.305,1.985-3.133C117.237,105.35,114.956,105.744,112.673,106.138z
			 M99.655,122.417c0.131-1.217,0.262-2.434,0.51-4.736c2.023,4.79,2.957,1.609,4.056,0.303c0.658,0.72,1.167,1.278,1.677,1.836
			c0.237-0.135,0.473-0.27,0.71-0.404c-0.733-1.719-1.467-3.438-2.789-6.538c-0.015,5.947-2.906,3.477-5.142,3.105
			c-0.352,2.393-1.885,4.7,1.074,6.344c-1.087,2.524-2.687,4.963-3.131,7.596c-0.542,3.211,0.838,3.937,3.968,2.792
			c0.726-0.266,1.471-0.478,2.872-0.929c-0.808,1.31-1.212,1.967-1.805,2.928c0.974,0,1.678,0.21,2.134-0.037
			c1.822-0.986,3.603-7.517,2.502-9.27c-0.323-0.513-1.317-1.132-1.729-0.976C102.213,125.32,101.101,123.517,99.655,122.417z"/>
		<path fill-rule="evenodd" clip-rule="evenodd" fill="#FFFFFF" d="M24.646,189.436c-0.511-5.124,3.593-8.051,6.819-10.583
			c5.479-4.299,11.647-7.65,18.728-9.286c5.418-1.252,10.522-3.83,15.806-5.707c3.603-1.281,7.235-2.517,10.934-3.466
			c1.302-0.334,3.342-0.244,4.114,0.554c0.667,0.688,0.059,2.66-0.065,4.057c-0.207,2.319-0.383,4.646-0.742,6.944
			c-0.605,3.87-0.45,7.694-1.526,11.703c-1.614,6.014-1.536,13.067-0.026,19.145c1.164,4.689,1.129,9.214,1.551,13.812
			c0.085,0.937-0.434,2.528-1.08,2.779c-0.821,0.32-2.057-0.406-3.11-0.699c-3.058-0.848-6.065-2.048-9.18-2.485
			c-6.082-0.854-11.242-4.248-16.895-5.834c-6.061-1.7-11.139-4.778-16.171-7.975C29.269,199.514,24.235,196.368,24.646,189.436z"/>
		<path fill-rule="evenodd" clip-rule="evenodd" fill="#FFFFFF" d="M219.489,200.612c-0.23,3.323-0.491,6.382-0.636,9.447
			c-0.075,1.601-0.378,3.383,0.178,4.781c1.224,3.075-4.145,4.228-1.52,7.463c0.327-0.374,0.777-0.889,1.66-1.899
			c0,2.919,0.021,5.271-0.021,7.622c-0.007,0.423-0.534,1-0.387,1.238c1.948,3.149-0.6,3.448-2.455,3.435
			c-11.567-0.084-23.135-0.255-34.697-0.586c-9.917-0.283-19.829-0.759-29.736-1.265c-7.087-0.362-14.175-0.803-21.242-1.441
			c-2.639-0.238-5.218-1.138-8.011-1.779c2.213-3.882,6.462-3.618,9.797-4.057c5.245-0.688,9.901-2.459,14.609-4.617
			c2.665-1.223,5.683-1.825,8.607-2.298c7.819-1.262,15.393-3.179,22.573-6.649c1.821-0.881,4.085-0.911,6.165-1.174
			c2.241-0.282,4.18-0.372,6.117-2.346c1.12-1.142,4.192-0.309,6.571-1.246c5.287-2.086,10.954-3.248,16.519-4.567
			C215.235,200.281,217.062,200.612,219.489,200.612z"/>
		<path fill-rule="evenodd" clip-rule="evenodd" fill="#FFFFFF" d="M89.261,179.998c1.702-0.851,3.509-1.55,5.057-2.623
			c0.664-0.46,0.875-1.676,1.107-2.596c0.076-0.301-0.588-1.104-0.653-1.076c-0.892,0.387-1.739,0.879-2.678,1.391
			c-1.895-1.858-4.798-3.614-5.974-6.165c-1.193-2.588-0.731-5.961-0.809-8.995c-0.006-0.228,1.471-0.658,2.274-0.702
			c1.236-0.068,2.485,0.118,3.907,0.208c-0.072,0.723-0.156,1.573-0.241,2.424c0.289,0.633,0.578,1.267,0.866,1.899
			c2.252,2.51,4.504,5.021,6.375,7.105c3.287-0.899,5.982-1.638,8.895-2.435c0.312,0.673,0.646,1.396,1.092,2.358
			c0.824-0.736,1.537-1.374,2.334-2.087c2.636,3.406,1.693,6.657,1.046,10.223c-0.701,3.866-0.119,7.955-0.253,11.941
			c-0.036,1.066-0.644,2.113-1.023,3.275c4.435,3.04-2.685,2.668-2.238,4.969c0.925,0.19,2.006,0.413,3.239,0.666
			c0.323,3.671,0.903,7.239,0.784,10.784c-0.036,1.052-1.904,2.591-3.18,2.906c-1.437,0.356-3.146-0.465-4.751-0.667
			c-0.367-0.046-0.819,0.305-1.183,0.545c-3.255,2.159-6.779,2.15-10.559,1.95c-2.314-0.122-4.705,1.271-7.07,1.953
			c-0.577,0.166-1.189,0.21-2.695,0.464c0.631-3.974,1.339-7.494,1.671-11.052c0.112-1.206-1.111-2.52-1.055-3.754
			c0.137-3.008,1.111-6.037,0.855-8.979c-0.134-1.538-2.566-2.937,0.442-4.119l-0.138-0.083c0.175,5.485,4.566,1.225,6.806,2.631
			c-0.456-1.123-0.912-2.246-1.368-3.368c-0.254-1.407-0.508-2.813-0.762-4.221c-0.056-1.034-0.112-2.069-0.168-3.104
			C89.229,181.11,89.245,180.554,89.261,179.998z M106.729,177.564c-0.216-0.291-0.432-0.581-0.647-0.872
			c-2.407,1.386-7.168,0.962-9.236-0.458c1.007,1.996,2.491,5.048,3.893,5.011C102.767,181.19,104.735,178.901,106.729,177.564z
			 M93.48,199.792c3.105-5.129,2.782-6.379-0.629-6.258C93.066,195.668,93.273,197.73,93.48,199.792z"/>
		<path fill-rule="evenodd" clip-rule="evenodd" fill="#FFFFFF" d="M116.265,215.591c8.313-1.255,16.359-2.793,24.477-3.51
			c2.662-0.235,5.512,1.658,8.276,2.578c-0.1,0.36-0.201,0.72-0.302,1.079c-1.884,0.434-3.795,0.773-5.647,1.317
			c-7.212,2.118-14.396,4.331-21.608,6.45c-4.767,1.4-5.152,1.085-5.195-3.786C116.257,218.604,116.265,217.491,116.265,215.591z"/>
		<path fill-rule="evenodd" clip-rule="evenodd" fill="#FFFFFF" d="M92.118,163.765c-0.289-0.633-0.578-1.266-0.866-1.899
			c1.974-2.078,3.947-4.156,5.921-6.234c0.082,0.327,0.163,0.652,0.245,0.979c2.089-0.434,4.164-0.979,6.273-1.264
			c1.404-0.189,2.857,0.016,4.289-0.002c1.415-0.018,3.153-0.621,4.155-0.003c1.083,0.667,2.337,2.776,1.995,3.68
			c-0.745,1.965-1.802,3.602-0.492,5.709c0.218,0.35,0.004,1.249-0.323,1.606c-1.168,1.274-8.032,0.425-9.103-1.045
			c-2.012,2.957-2.721,2.948-5.273-0.221c-0.452,0.709-0.871,1.366-1.032,1.62C95.813,165.633,93.966,164.699,92.118,163.765z"/>
		<path fill-rule="evenodd" clip-rule="evenodd" fill="#FFFFFF" d="M113.557,225.554c-7.609-1.118-14.574-2.142-21.798-3.202
			c-0.031-0.396-0.312-1.585-0.102-1.68c2.377-1.067,5.41-3.348,7.138-2.62c3.394,1.428,5.683-0.982,8.518-1.115
			c5.056-0.237,5.582-0.513,5.859,4.459C113.227,222.372,113.35,223.343,113.557,225.554z"/>
		<path fill-rule="evenodd" clip-rule="evenodd" fill="#FFFFFF" d="M149.206,209.77c10.638-1.674,21.276-3.348,31.914-5.021
			c0.134,0.61,0.267,1.22,0.4,1.83c-1.766,0.378-3.554,0.678-5.293,1.15c-4.944,1.343-9.799,3.163-14.822,4.012
			c-3.885,0.656-7.969,0.131-11.965,0.131C149.361,211.171,149.283,210.471,149.206,209.77z"/>
		<path fill-rule="evenodd" clip-rule="evenodd" d="M108.943,87.991c1.274-0.867,2.549-1.734,3.824-2.602
			c-2.502,2.908,3.06,7.045-1.446,9.76C106.547,91.429,106.442,91.11,108.943,87.991z"/>
		<path fill-rule="evenodd" clip-rule="evenodd" fill="#FFFFFF" d="M89.381,184.771c0.254,1.407,0.508,2.813,0.762,4.221
			c-1.813,0.246-3.625,0.492-5.438,0.737l0.138,0.083c-2.692-2.109-1.776-3.304,1.017-4.042
			C87.039,185.458,88.208,185.105,89.381,184.771z"/>
		<path fill-rule="evenodd" clip-rule="evenodd" fill="#FFFFFF" d="M89.261,179.998c-0.016,0.556-0.032,1.112-0.048,1.668
			c-1.967-0.723-3.935-1.445-6.221-2.286c1.687-1.493,2.943-2.605,4.655-4.119C88.232,176.978,88.746,178.487,89.261,179.998z"/>
		<path fill-rule="evenodd" clip-rule="evenodd" d="M115.149,77.031c0.149,0.876,0.305,1.751,0.446,2.629
			c0.176,1.089,0.34,2.179,0.605,3.879c-0.974,0.894-2.104,0.779-2.616-1.315c-0.28-1.147,0.013-2.434,0.048-3.658
			C114.138,78.054,114.644,77.543,115.149,77.031z"/>
		<path fill-rule="evenodd" clip-rule="evenodd" d="M211.625,333.628c-0.758-2.241-1.517-4.483-2.268-6.702c0.518,0,1.826,0,3.745,0
			c-0.267,2.278-0.521,4.444-0.775,6.609C212.093,333.565,211.859,333.598,211.625,333.628z"/>
		<path fill-rule="evenodd" clip-rule="evenodd" d="M209.918,261.799c-1.658,0.6-3.225,1.167-4.792,1.734
			c0.508,0.662,1.017,1.325,1.525,1.987c-0.094-1.8-0.188-3.598-0.312-5.974C208.006,260.596,209.154,261.318,209.918,261.799z"/>
		<path fill-rule="evenodd" clip-rule="evenodd" d="M216.047,48.41c-1.026-0.666-2.053-1.332-3.079-1.998
			c0.333-0.165,0.666-0.33,0.999-0.494c-0.308-1.779-0.616-3.56-0.924-5.339c0.327-0.112,0.654-0.223,0.98-0.335
			c1.085,2.458,2.17,4.915,3.255,7.372C216.868,47.881,216.458,48.146,216.047,48.41z"/>
		<path fill-rule="evenodd" clip-rule="evenodd" d="M200.657,130.284c0.987-0.75,1.974-1.5,2.961-2.25
			c-0.412-0.558-0.823-1.116-1.235-1.674c0.571,0.64,1.141,1.28,1.768,1.984c1.025-0.609,2.01-1.193,3.211-1.906
			C206.973,128.565,206.973,128.565,200.657,130.284z"/>
		<path fill-rule="evenodd" clip-rule="evenodd" d="M170.873,183.787c-1.486,2.158-3.041,4.272-4.442,6.484
			c-2.44,3.852-9.065,6.931-12.938,5.441c-1.381-0.53-2.971-2.348-3.185-3.771c-1.104-7.36,1.211-13.975,5.493-19.895
			c1.476-2.04,3.188-4.068,5.217-5.502c1.771-1.252,4.081-2.02,6.252-2.362c3.733-0.586,5.458,2.402,5.804,5.172
			c0.376,3.008-0.696,6.19-1.07,9.304c-0.223,1.849-0.319,3.712-0.473,5.57C171.311,184.081,171.092,183.934,170.873,183.787z
			 M153.602,192.36c5.66,1.14,7.032,0.473,10.055-4.746c0.921-1.59,1.139-3.589,1.707-5.496c-2.524-0.392-4.07-0.63-5.616-0.87
			c-0.084-0.465-0.168-0.93-0.253-1.396c1.327-0.268,2.671-0.471,3.977-0.821c1.513-0.407,4.143-0.72,4.286-1.46
			c0.641-3.311,0.568-6.76,0.758-10.253c-4.206,0.153-7.634,2.56-8.701,5.638c-1.204,3.474-2.245,7.004-3.363,10.509
			C155.535,186.341,154.61,189.215,153.602,192.36z"/>
		<path fill-rule="evenodd" clip-rule="evenodd" d="M209.922,179.126c-0.104,0.718,0.016,1.908-0.347,2.08
			c-2.804,1.328-1.954,2.565,0.596,3.876c-1.496,0.8-2.476,1.323-3.595,1.922c-0.466-3.393-1.362-6.831,3.427-7.791
			C210.002,179.211,209.922,179.126,209.922,179.126z"/>
		<path fill-rule="evenodd" clip-rule="evenodd" d="M112.604,292.154c-3.367-2.514-4.341,0.077-5.289,2.894
			c-0.617-2.072,1.348-6.236,2.875-6.158c1.105,0.058,2.144,1.397,3.211,2.166C113.136,291.422,112.871,291.788,112.604,292.154z"/>
		<path fill-rule="evenodd" clip-rule="evenodd" d="M107.45,259.001c0.397-1.27,0.667-2.133,0.937-2.995
			c0.373,0.104,0.746,0.208,1.119,0.313c-0.54,1.726-1.081,3.45-1.993,6.365c-1.281-2.382-2-3.718-2.719-5.055
			c0.225-0.167,0.449-0.332,0.673-0.499C105.983,257.618,106.499,258.104,107.45,259.001z"/>
		<path fill-rule="evenodd" clip-rule="evenodd" d="M99.65,122.423c1.451,1.094,2.563,2.897,4.913,2.008
			c0.412-0.156,1.407,0.463,1.729,0.976c1.101,1.752-0.68,8.284-2.502,9.27c-0.456,0.247-1.16,0.037-2.134,0.037
			c0.592-0.96,0.997-1.618,1.805-2.928c-1.401,0.451-2.146,0.664-2.872,0.929c-3.13,1.145-4.51,0.42-3.968-2.792
			c0.444-2.633,2.043-5.071,3.131-7.596L99.65,122.423z"/>
		<path fill-rule="evenodd" clip-rule="evenodd" d="M99.752,122.328c-2.959-1.644-1.426-3.951-1.074-6.344
			c2.236,0.372,5.126,2.842,5.142-3.105c1.322,3.099,2.056,4.818,2.789,6.538c-0.237,0.135-0.473,0.27-0.71,0.404
			c-0.51-0.558-1.02-1.116-1.677-1.836c-1.1,1.306-2.033,4.487-4.056-0.303c-0.248,2.302-0.379,3.519-0.513,4.739
			C99.65,122.423,99.752,122.328,99.752,122.328z"/>
		<path fill-rule="evenodd" clip-rule="evenodd" d="M112.665,106.143c-0.446,1.461-0.892,2.921-1.338,4.381
			c-0.466,0.149-0.932,0.299-1.397,0.448c-0.285-0.647-0.485-1.354-0.881-1.924c-0.332-0.479-0.892-0.799-2.442-2.12
			c2.681-0.349,4.374-0.569,6.066-0.79L112.665,106.143z"/>
		<path fill-rule="evenodd" clip-rule="evenodd" d="M112.673,106.138c2.282-0.394,4.564-0.788,7.087-1.224
			c-0.478,0.828-0.952,2.348-1.985,3.133c-0.494,0.376-2.053-0.626-3.119-1.036c-0.675-0.26-1.328-0.577-1.991-0.868
			C112.665,106.143,112.673,106.138,112.673,106.138z"/>
		<path fill-rule="evenodd" clip-rule="evenodd" d="M106.729,177.564c-1.994,1.337-3.962,3.626-5.991,3.682
			c-1.402,0.037-2.886-3.015-3.893-5.011c2.068,1.42,6.83,1.844,9.236,0.458C106.298,176.983,106.514,177.273,106.729,177.564z"/>
		<path fill-rule="evenodd" clip-rule="evenodd" d="M93.48,199.792c-0.208-2.062-0.415-4.124-0.629-6.258
			C96.262,193.413,96.585,194.663,93.48,199.792z"/>
		<path fill-rule="evenodd" clip-rule="evenodd" d="M84.706,189.728c1.813-0.245,3.625-0.491,5.438-0.737
			c0.456,1.122,0.912,2.245,1.368,3.368C89.272,190.953,84.88,195.213,84.706,189.728z"/>
		<path fill-rule="evenodd" clip-rule="evenodd" fill="#FFFFFF" d="M153.602,192.36c1.008-3.145,1.933-6.02,2.85-8.896
			c1.118-3.504,2.159-7.035,3.363-10.509c1.067-3.078,4.495-5.484,8.701-5.638c-0.19,3.494-0.117,6.942-0.758,10.253
			c-0.144,0.74-2.773,1.054-4.286,1.46c-1.305,0.35-2.649,0.553-3.977,0.821c0.084,0.465,0.168,0.93,0.253,1.396
			c1.546,0.239,3.092,0.478,5.616,0.87c-0.568,1.907-0.786,3.906-1.707,5.496C160.634,192.833,159.262,193.5,153.602,192.36z"/>
	</g>
</g>
</svg>
