<?xml version="1.0" encoding="utf-8"?>
<!-- Generator: Adobe Illustrator 16.0.0, SVG Export Plug-In . SVG Version: 6.00 Build 0)  -->
<!DOCTYPE svg PUBLIC "-//W3C//DTD SVG 1.1//EN" "http://www.w3.org/Graphics/SVG/1.1/DTD/svg11.dtd">
<svg version="1.1" id="Layer_1" xmlns="http://www.w3.org/2000/svg" xmlns:xlink="http://www.w3.org/1999/xlink" x="0px" y="0px"
	 width="502.82px" height="396.056px" viewBox="0 0 502.82 396.056" enable-background="new 0 0 502.82 396.056"
	 xml:space="preserve">
<g>
	<g>
		<path fill-rule="evenodd" clip-rule="evenodd" fill="#FFFFFF" d="M-1.25,0.75c168.274,0,336.547,0,504.82,0
			c0,132.019,0,264.037,0,396.056c-168.273,0-336.546,0-504.82,0C-1.25,264.787-1.25,132.769-1.25,0.75z M92.325,342.433
			c-0.163,2.189,1.214,3.907,4.866,3.396c0.64-0.09,1.429,0.684,2.109,1.12c2.191,1.405,4.311,2.928,6.552,4.248
			c5.455,3.213,10.824,6.62,16.492,9.411c4.896,2.41,10.128,4.158,15.269,6.042c2.871,1.053,5.831,1.897,8.801,2.631
			c2.719,0.671,5.556,0.888,8.254,1.619c5.441,1.477,10.735,3.713,16.256,4.63c6.56,1.09,13.298,1.555,19.954,1.512
			c10.169-0.065,20.333-0.788,30.499-1.266c0.842-0.039,1.687-0.29,2.505-0.53c1.815-0.532,3.587-1.235,5.425-1.666
			c5.456-1.277,10.929-2.484,16.408-3.66c1.911-0.411,4.531,0.017,5.653-1.109c2.625-2.634,6.109-2.212,9.016-3.575
			c4.505-2.112,9.054-4.142,13.483-6.401c4.295-2.19,8.486-4.589,12.683-6.968c3.515-1.993,7.198-3.789,10.404-6.206
			c6.325-4.767,12.411-9.855,18.519-14.906c3.489-2.885,7.259-5.592,10.132-9.023c4.771-5.698,8.442-12.353,13.442-17.812
			c7.276-7.943,11.407-17.707,16.388-26.88c4.048-7.455,6.018-16.047,8.796-24.173c0.794-2.321,1.181-4.779,1.772-7.17
			c1.555-6.291,3.485-12.517,4.569-18.887c0.934-5.485,1.278-11.137,1.223-16.708c-0.099-9.827-0.682-19.649-1.114-29.471
			c-0.049-1.107-0.402-2.206-0.661-3.297c-1.521-6.423-3.052-12.844-4.587-19.263c-0.63-2.63-1.108-5.313-1.964-7.869
			c-0.889-2.652-2.241-5.145-3.228-7.769c-1.683-4.474-2.803-9.216-4.945-13.446c-3.19-6.296-6.971-12.304-10.679-18.324
			c-2.871-4.661-5.585-9.525-9.135-13.638c-6.928-8.026-13.988-16.024-21.755-23.212c-6.747-6.245-14.556-11.339-21.864-16.983
			c-1.72-1.328-3.131-3.157-5.002-4.168c-4.175-2.256-8.548-4.147-12.847-6.176c-1.638-0.773-3.247-1.636-4.944-2.247
			c-3.217-1.158-7.34-1.287-9.545-3.43c-3.6-3.499-7.94-3.374-12.043-4.645c-6.616-2.05-13.179-4.273-19.764-6.421
			c-0.571-0.186-1.135-0.488-1.717-0.53c-6.402-0.464-12.804-1.197-19.21-1.244c-7.708-0.056-15.42,0.7-23.13,0.71
			c-12.362,0.017-24.177,3.127-35.966,6.18c-5.989,1.551-11.752,4.087-17.48,6.505c-6.776,2.859-13.513,5.856-20.053,9.21
			c-3.922,2.011-7.424,4.835-11.135,7.264c-2.456,1.606-5.084,2.981-7.39,4.775c-3.442,2.679-6.411,6.037-10.048,8.379
			c-5.433,3.498-9.774,8.049-13.962,12.792c-3.036,3.439-5.715,7.19-8.622,10.746c-3.257,3.985-7.074,7.604-9.776,11.927
			c-3.95,6.319-7.229,13.069-10.585,19.74c-1.831,3.638-3.353,7.446-4.796,11.259c-1.56,4.121-2.292,8.668-4.447,12.418
			c-2.118,3.685-2.678,7.568-3.527,11.466c-0.784,3.595-1.146,7.28-1.839,10.899c-1.106,5.77-2.399,11.506-3.466,17.283
			c-0.291,1.573-0.053,3.242-0.062,4.867c-0.066,11.771-0.438,23.561,2.382,35.139c0.698,2.866,1.162,5.792,1.963,8.627
			c1.396,4.934,3.403,9.733,4.378,14.741c2.007,10.31,6.616,19.579,10.877,28.99c1.334,2.945,3.525,5.492,5.184,8.305
			c1.036,1.757,1.583,3.826,2.742,5.481c3.862,5.515,7.676,11.09,11.944,16.285c3.593,4.373,7.796,8.245,11.724,12.345
			c1.989,2.076,3.809,4.35,5.981,6.212C82.157,334.356,86.821,337.98,92.325,342.433z M429.725,140.716
			c-2.345-2.579-4.174-4.724-6.178-6.692c-0.457-0.448-1.557-0.462-2.279-0.303c-0.269,0.06-0.599,1.299-0.399,1.804
			c1.776,4.539,4.024,8.927,5.421,13.573c1.381,4.595,1.881,9.451,2.91,14.161c0.173,0.79,0.985,1.9,1.656,2.023
			c1.248,0.228,2.634-0.068,3.898-0.393c0.195-0.05,0.101-1.416,0.056-2.167c-0.061-1.009-0.539-2.122-0.255-3.001
			c1.67-5.167,3.544-10.267,5.28-15.412c1.081-3.203,2.038-6.446,3.229-10.239c-5.111-0.688-5.641,5.116-9.174,6.604
			c0-27.206,0-54.232,0-81.258c0.354-0.269,0.709-0.538,1.063-0.807c2.656,2.563,5.314,5.126,7.972,7.689
			c0.332-0.241,0.664-0.481,0.996-0.722c-3.568-10.419-7.138-20.837-10.706-31.256c-0.36-0.011-0.722-0.022-1.083-0.033
			c-3.434,10.535-6.868,21.07-10.302,31.605c0.305,0.219,0.609,0.438,0.914,0.658c1.653-1.753,3.277-3.535,4.974-5.246
			c0.688-0.694,1.531-1.237,2.303-1.849c0.513,1.123,1.51,2.269,1.459,3.365c-0.287,6.078-1.162,12.14-1.219,18.214
			c-0.171,18.234-0.044,36.472-0.071,54.707C430.188,137.312,429.903,138.881,429.725,140.716z M471.661,88.034
			c-0.363,3.324-0.291,6.091-1.018,8.631c-1.736,6.072-3.976,12.001-5.709,18.075c-0.371,1.303,0.205,4.048,0.92,4.27
			c2.038,0.63,2.971-0.78,3.613-3.009c1.621-5.623,3.513-11.313,10.837-13.389c-0.197,1.5-0.213,2.671-0.521,3.758
			c-0.775,2.735-1.9,5.39-2.448,8.164c-0.279,1.416,0.384,3.017,0.621,4.534c1.376-0.368,2.829-0.563,4.111-1.14
			c2.954-1.33,2.911-2.51,0.586-4.988c0.995-4.021,2.104-7.534,2.579-11.13c0.111-0.849-1.78-2.599-2.982-2.858
			c-3.126-0.673-5.359,1.231-7.266,3.542c-0.568,0.689-1.385,1.174-2.086,1.752c-0.166-0.183-0.333-0.366-0.498-0.549
			c1.641-5.165,3.281-10.33,5.095-16.034C474.841,87.832,472.817,87.961,471.661,88.034z M396.518,32.424c8.334,0,16.013,0,23.691,0
			c0.191-0.368,0.384-0.734,0.575-1.103c-0.908-0.593-1.771-1.595-2.733-1.701c-2.5-0.273-5.044-0.207-7.569-0.171
			c-1.689,0.024-3.384,0.169-5.063,0.367c-2.08,0.245-4.143,0.716-6.227,0.828c-0.546,0.029-1.145-0.908-2.052-1.687
			C396.888,30.356,396.729,31.243,396.518,32.424z M395.334,29.889c-8.073,0-15.541,0-23.275,0c0.087,0.693,0.195,1.568,0.285,2.286
			c7.948,0,15.535,0,23.352,0C395.527,31.109,395.4,30.309,395.334,29.889z M455.572,30.346c0,0.551,0,1.583,0,2.328
			c5.028,0,9.781,0,15.044,0c-0.121-0.996-0.249-2.052-0.283-2.328C465.229,30.346,460.705,30.346,455.572,30.346z M386.313,163.104
			c3.001,2.263,14.344,2.089,15.982,0C397.053,163.104,391.95,163.104,386.313,163.104z M371.134,163.069
			c-0.012,0.304-0.024,0.609-0.036,0.913c4.893,0,9.786,0,14.68,0c-0.003-0.304-0.006-0.608-0.008-0.913
			C380.891,163.069,376.013,163.069,371.134,163.069z M449.716,31.913c0.046-0.381,0.091-0.762,0.138-1.144
			c-3.518,0-7.033,0-10.559,0C439.389,32.417,444.904,33.249,449.716,31.913z M332.393,29.104c-2.536,0.14-4.74,0.261-6.943,0.382
			c-0.083,0.5-0.166,1-0.248,1.5c0.982,0.313,1.95,0.7,2.955,0.913c0.567,0.12,1.27-0.242,1.783-0.048
			C332.577,32.853,332.563,32.891,332.393,29.104z M340.534,29.4c-6.462,0.272-6.462,0.272-6.285,2.812
			c1.279-0.118,2.726-0.685,3.785-0.268C341.427,33.279,340.926,31.468,340.534,29.4z M275.32,29.062
			c-0.135,0.565-0.269,1.131-0.402,1.696c2.23,0.313,4.463,0.627,6.97,0.979c0.145-0.832,0.276-1.596,0.463-2.674
			C279.801,29.062,277.561,29.062,275.32,29.062z M419.411,163.203c-4.183,0-7.589,0-10.996,0c-0.018,0.339-0.036,0.679-0.054,1.018
			c3.202,0.203,6.403,0.446,9.608,0.553C418.316,164.785,418.69,164.016,419.411,163.203z M267.235,31.26
			c2.558-0.233,4.757-0.434,6.955-0.636c0.036-0.365,0.073-0.73,0.109-1.096c-2.272-0.357-4.547-0.714-7.064-1.109
			C267.235,29.486,267.235,30.364,267.235,31.26z M366.916,104.375c-0.854-1.587-1.354-2.515-2.694-5.004
			c-1.445,1.362-2.355,2.219-3.266,3.077c0.417,0.537,0.833,1.073,1.25,1.61C363.57,104.149,364.935,104.241,366.916,104.375z
			 M323.667,29.193c-5.949,0.932-5.949,0.932-5.823,2.25c1.823,0.163,3.556,0.317,5.545,0.493
			C323.455,31.282,323.546,30.381,323.667,29.193z"/>
		<path fill-rule="evenodd" clip-rule="evenodd" d="M92.325,342.433c-5.504-4.452-10.168-8.076-14.646-11.916
			c-2.173-1.862-3.992-4.136-5.981-6.212c-3.927-4.1-8.13-7.972-11.724-12.345c-4.268-5.195-8.082-10.771-11.944-16.285
			c-1.159-1.655-1.706-3.725-2.742-5.481c-1.659-2.813-3.85-5.359-5.184-8.305c-4.261-9.411-8.87-18.681-10.877-28.99
			c-0.975-5.008-2.982-9.808-4.378-14.741c-0.801-2.835-1.266-5.761-1.963-8.627c-2.82-11.578-2.448-23.368-2.382-35.139
			c0.009-1.625-0.229-3.294,0.062-4.867c1.067-5.777,2.36-11.513,3.466-17.283c0.693-3.619,1.056-7.304,1.839-10.899
			c0.85-3.898,1.41-7.781,3.527-11.466c2.155-3.75,2.888-8.298,4.447-12.418c1.444-3.813,2.966-7.622,4.796-11.259
			c3.357-6.67,6.636-13.421,10.585-19.74c2.702-4.322,6.519-7.942,9.776-11.927c2.907-3.556,5.586-7.306,8.622-10.746
			c4.188-4.744,8.53-9.295,13.962-12.792c3.638-2.342,6.606-5.7,10.048-8.379c2.306-1.794,4.935-3.169,7.39-4.775
			c3.711-2.428,7.213-5.253,11.135-7.264c6.54-3.354,13.277-6.352,20.053-9.21c5.728-2.417,11.491-4.954,17.48-6.505
			c11.789-3.052,23.604-6.163,35.966-6.18c7.71-0.011,15.422-0.766,23.13-0.71c6.406,0.047,12.809,0.779,19.21,1.244
			c0.582,0.042,1.146,0.344,1.717,0.53c6.585,2.148,13.148,4.371,19.764,6.421c4.103,1.271,8.443,1.146,12.043,4.645
			c2.205,2.143,6.328,2.272,9.545,3.43c1.697,0.611,3.307,1.473,4.944,2.247c4.299,2.028,8.672,3.919,12.847,6.176
			c1.871,1.011,3.282,2.84,5.002,4.168c7.309,5.644,15.117,10.738,21.864,16.983c7.767,7.188,14.827,15.187,21.755,23.212
			c3.55,4.113,6.264,8.978,9.135,13.638c3.708,6.02,7.488,12.028,10.679,18.324c2.143,4.23,3.263,8.972,4.945,13.446
			c0.986,2.624,2.339,5.117,3.228,7.769c0.855,2.556,1.334,5.238,1.964,7.869c1.535,6.419,3.066,12.84,4.587,19.263
			c0.259,1.091,0.612,2.19,0.661,3.297c0.433,9.822,1.016,19.644,1.114,29.471c0.056,5.571-0.289,11.223-1.223,16.708
			c-1.084,6.37-3.015,12.596-4.569,18.887c-0.592,2.391-0.979,4.849-1.772,7.17c-2.778,8.126-4.748,16.718-8.796,24.173
			c-4.98,9.173-9.111,18.937-16.388,26.88c-5,5.459-8.672,12.113-13.442,17.812c-2.873,3.432-6.643,6.139-10.132,9.023
			c-6.107,5.051-12.193,10.14-18.519,14.906c-3.206,2.417-6.89,4.213-10.404,6.206c-4.196,2.379-8.388,4.777-12.683,6.968
			c-4.43,2.26-8.979,4.289-13.483,6.401c-2.906,1.363-6.391,0.941-9.016,3.575c-1.122,1.126-3.742,0.698-5.653,1.109
			c-5.479,1.176-10.952,2.383-16.408,3.66c-1.838,0.431-3.61,1.134-5.425,1.666c-0.818,0.24-1.663,0.491-2.505,0.53
			c-10.165,0.478-20.33,1.2-30.499,1.266c-6.656,0.043-13.395-0.422-19.954-1.512c-5.521-0.917-10.815-3.153-16.256-4.63
			c-2.699-0.731-5.535-0.948-8.254-1.619c-2.97-0.733-5.93-1.578-8.801-2.631c-5.141-1.884-10.373-3.632-15.269-6.042
			c-5.668-2.791-11.037-6.198-16.492-9.411c-2.241-1.32-4.361-2.843-6.552-4.248c-0.68-0.437-1.469-1.21-2.109-1.12
			C93.539,346.34,92.162,344.622,92.325,342.433z M344.569,125.771c-0.282-0.476-0.566-0.952-0.85-1.428
			c0.097-1.506,0.193-3.011,0.327-5.073c-1.359-0.98-1.803-5.125-5.528-3.513c-1.219,0.528-2.729,2.46-2.594,3.563
			c0.222,1.794,1.688,3.435,2.629,5.14c0.592,0.835,1.182,1.671,1.398,1.976c-0.73,1.838-1.305,3.28-1.877,4.723
			c-0.238,0.044-0.479,0.079-0.72,0.104c-0.706-1.57-1.003-3.663-2.204-4.602c-2.495-1.95-5.502-3.229-5.182-7.182
			c0.032-0.406-0.787-0.881-1.21-1.324l0.036-0.05c1.369-0.301,2.738-0.602,4.689-1.032c-1.207-1.708-2.129-3.014-3.052-4.32
			c2.145-1.287,4.349-2.49,6.371-3.945c0.333-0.239,0.18-1.902-0.287-2.365c-1.426-1.413-2.993-2.794-4.756-3.703
			c-0.749-0.386-2.119,0.436-3.208,0.708c0.938-4.488,0.43-5.688-2.863-6.656c0.214,1.042,0.424,2.063,0.655,3.188
			c-3.558-0.742-4.873-4.88-3.139-9.896c-3.889-4.142-7.498-8.915-12.025-12.542c-4.342-3.48-9.169-6.335-13.604-9.848
			c-7.517-5.956-16.021-10.681-24.214-15.755c-2.674-1.656-5.665-2.802-8.524-4.153c-2.321-1.097-4.591-2.368-7.012-3.181
			c-5.753-1.932-11.487-4.102-17.404-5.331c-9.325-1.936-18.789-3.21-28.205-4.692c-2.079-0.328-4.206-0.359-6.311-0.52
			c-3.813-0.29-7.631-0.837-11.439-0.775c-2.873,0.046-5.748,1.355-8.597,1.266c-10.442-0.324-20.604,1.452-30.712,3.647
			c-2.245,0.488-4.211,2.158-6.442,2.824c-7.595,2.269-15.253,4.323-22.877,6.496c-0.447,0.126-0.793,0.582-1.206,0.857
			c-3.92,2.609-7.835,5.228-11.786,7.791c-0.371,0.241-1.012,0.022-1.466,0.188c-1.362,0.496-3.036,0.735-3.979,1.681
			c-5.176,5.191-12.738,6.979-17.491,12.969c-3.007,3.79-7.436,6.44-11.134,9.706c-0.576,0.508-0.658,1.576-0.968,2.384
			c-4.433-1.545-4.262,2.409-5.538,4.636c-0.923,0.843-1.847,1.686-2.77,2.529c-1.869,1.656-3.738,3.312-5.644,5
			c1.671,0.928,2.749,1.527,3.827,2.126c-0.607,0.112-1.242,0.399-1.816,0.308c-3.414-0.547-4.816,0.894-5.237,4.289
			c-0.15,1.213-2.09,2.149-3.071,3.329c-1.653,1.989-3.194,4.071-4.782,6.114c0.496,0.362,0.992,0.723,1.488,1.085
			c-0.642,1.501-1.283,3.004-1.939,4.543c4.818,1.43,5.506,0.471,4.223-5.313c1.486,0.255,2.973,0.511,4.46,0.766
			c0.375,2.863-2.567,5.784,0.15,8.606c-4.934-0.217-9.867-0.435-14.333-0.632c-0.998,3.743-0.962,7.186-2.65,9.144
			c-2.902,3.367-4.398,6.888-4.675,11.361c0.503,0,1.199,0.194,1.378-0.028c2.986-3.711,7.267-4.568,11.575-5.42
			c0.404-0.08,0.738-0.797,1.094-0.789c4.583,0.114,8.807-0.868,12.869-3.145c1.304-0.731,3.364-0.115,5.503-0.115
			c0.815-0.468,2.199-1.719,3.767-2.026c1.426-0.277,2.814,0.786,4.504-0.562c1.628-1.3,3.988-1.966,6.119-2.277
			c2.243-0.327,4.622,0.366,6.895,0.138c5.172-0.52,10.3-1.495,15.474-1.984c6.754-0.639,13.511-0.315,20.245-2.262
			c5.213-1.506,10.953-1.542,16.465-1.602c20.593-0.225,41.192-0.399,61.784-0.173c12.125,0.133,24.248,0.926,36.356,1.686
			c5.583,0.35,11.118,1.395,16.688,2.008c4.567,0.503,9.166,0.728,13.726,1.279c3.048,0.369,6.309,2.109,9.016,1.424
			c4.254-1.076,7.975,0.615,11.939,0.691c2.158,0.042,4.304,0.709,6.455,1.095c-0.029,0.145-0.059,0.291-0.089,0.436
			c8.021,1.75,16.043,3.499,24.064,5.247c-2.913-3.403-1.834-6.928-1.907-10.198c0.959,0.2,1.918,0.399,2.477,0.516
			c0.452,3.177,0.741,6.129,1.376,9.006c0.156,0.709,1.828,1.829,2.138,1.644c3.385-2.021,4.575,1.527,6.801,2.6
			c0.471-0.595,0.903-1.143,1.354-1.713c1.772,2.953,12.37,6.734,16.104,5.722c-1.712-4.036-3.417-8.057-5.078-11.973
			c-1.46-0.07-2.747-0.13-4.034-0.189c0.018-0.758,0.035-1.515,0.054-2.272C344.602,127.09,344.586,126.43,344.569,125.771z
			 M45.966,154.54c-2.735-0.395-5.469-0.791-8.519-1.231c0.396-1.346,0.703-2.388,1.32-4.484c-2.343,2.574-3.987,4.379-5.555,6.102
			c0.834,2.576,1.677,5.18,2.12,6.546c2.493,1.35,4.204,2.072,5.678,3.125c2.011,1.436,4.152,1.553,5.134-0.016
			c2.298,2.088,3.906,5.459,7.979,4.269c0.312-0.091,0.92,0.012,1.047,0.226c1.994,3.381,5.909,2.97,8.638,3.202
			c6.434,0.546,11.636,5.142,18.352,4.634c2.781-0.21,5.656,1.77,8.57,2.194c8.132,1.184,16.46,1.412,24.428,3.243
			c11.267,2.589,22.741,1.429,34.123,3.137c15.385,2.309,31.256,1.783,46.917,1.752c19.075-0.038,38.148-0.826,57.222-1.286
			c1.774-0.043,3.566,0.084,5.316-0.134c1.339-0.167,2.624-0.756,3.933-1.157c1.6,0.175,2.879-0.457,4.205-0.582
			c6.776-0.64,13.581-1.002,20.345-1.742c8.289-0.907,16.559-2.026,24.809-3.244c0.959-0.141,1.739-1.495,2.375-2.077
			c0.936,0.28,1.955,0.762,3.014,0.869c2.646,0.267,4.635-1.268,6.946-2.261c5.204-2.236,10.985-3.112,16.503-4.644
			c2.569-0.713,5.842-0.943,7.441-2.657c3.157-3.382,9.111-4.248,8.65-9.921c-0.659-2.292-1.318-4.584-1.981-6.892
			c-1.016-0.242-2.308-0.25-3.251-0.829c-3.219-1.97-5.562-4.913-9.72-5.935c-3.782-0.93-3.583-1.56-5.248,2.39
			c-0.7,1.658,0.094,6.262-4.513,4.336c-0.389-0.089-0.778-0.179-1.167-0.27c0.609-1.674,1.218-3.348,1.746-4.796
			c1.02-0.579,1.945-1.105,2.871-1.631c-0.816-0.85-1.485-2.115-2.479-2.466c-2.128-0.753-4.452-0.933-6.646-1.532
			c-3.796-1.037-7.554-2.213-11.328-3.331c-0.439-0.439-0.838-1.208-1.325-1.27c-5.586-0.705-11.189-1.28-16.78-1.945
			c-1.45-0.172-2.874-0.568-4.317-0.81c-5.466-0.917-10.914-1.971-16.407-2.671c-5.463-0.696-10.979-0.96-16.457-1.542
			c-3.945-0.419-7.854-1.296-11.805-1.53c-8.035-0.477-16.085-0.818-24.134-0.927c-20.467-0.277-40.938-0.644-61.403-0.489
			c-13.658,0.103-27.323,0.82-40.958,1.686c-6.993,0.445-13.928,1.815-20.887,2.781c-0.362,0.051-0.847,0.131-1.035,0.379
			c-2.232,2.943-5.511,1.192-7.998,1.198c-3.836,0.008-7.313-0.412-9.695,2.609c-1.406-0.146-2.581-0.475-3.705-0.347
			c-2.697,0.308-5.419,0.637-8.039,1.315c-2.77,0.719-5.368,2.204-8.158,2.705c-2.736,0.491-5.201,0.968-7.852,2.242
			c-4.071,1.956-8.862,2.41-13.145,3.452c-0.307,3.741,1.727,5.213,4.212,6.272c1.627,0.694,3.103,1.331,1.657,3.444
			C46.663,154.181,46.314,154.36,45.966,154.54z M122.565,327.141c-0.402,1.511-0.365,2.784-0.878,3.07
			c-3.251,1.813-6.642,3.375-9.953,5.084c-3.271,1.688-6.561,3.361-9.692,5.285c-0.481,0.296-0.539,2.587-0.147,2.806
			c6.95,3.897,13.746,8.262,21.116,11.146c4.917,1.925,8.644,6.263,14.333,6.512c2.511,0.11,5.042,0.91,7.463,1.705
			c6.016,1.975,11.908,4.354,17.981,6.119c3.459,1.007,7.16,1.33,10.779,1.598c5.093,0.377,10.223,0.731,15.316,0.536
			c12.271-0.472,24.543-1.085,36.786-2.023c4.751-0.365,9.442-1.682,14.126-2.72c2.604-0.577,5.21-1.285,7.684-2.267
			c4.593-1.82,9.532-2.448,13.908-5.223c3.692-2.34,8.435-2.961,12.357-5.018c5.942-3.114,11.641-6.715,17.318-10.306
			c3.288-2.08,6.462-4.391,9.458-6.875c4.776-3.961,9.477-8.03,13.992-12.282c4.242-3.996,8.472-8.064,12.221-12.512
			c4.203-4.986,7.953-10.367,11.725-15.701c3.035-4.293,6.274-8.541,8.587-13.222c3.57-7.225,6.842-14.659,9.472-22.271
			c2.895-8.373,5.799-16.913,7.129-25.619c2.226-14.572,4.153-29.276,2.34-44.133c-0.734-6.014-1.121-12.071-1.738-18.917
			c-4.788,1.393-8.984,2.535-13.117,3.874c-1.024,0.333-1.756,1.669-2.772,1.912c-3.085,0.735-6.269,1.048-9.365,1.738
			c-2.963,0.66-5.892,1.5-8.788,2.415c-4.41,1.395-8.744,3.039-13.175,4.359c-4.573,1.364-9.262,2.342-13.83,3.722
			c-4.163,1.258-8.197,2.94-12.35,4.238c-7.893,2.469-15.827,4.808-23.751,7.176c-2.57,0.768-5.188,1.38-7.741,2.202
			c-3.246,1.046-6.399,2.406-9.681,3.314c-3.706,1.023-7.531,1.609-11.263,2.55c-2.713,0.684-5.402,1.519-8.024,2.496
			c-3.433,1.278-6.701,3.063-10.198,4.097c-7.025,2.075-14.154,3.802-21.251,5.633c-0.558,0.145-1.23,0.099-1.792-0.062
			c-9.034-2.585-18.063-5.185-27.074-7.848c-0.765-0.226-1.354-0.99-2.092-1.377c-1.062-0.556-2.144-1.145-3.288-1.457
			c-5.295-1.45-10.649-2.698-15.918-4.238c-4.325-1.264-8.545-2.879-12.839-4.254c-2.22-0.711-4.558-1.078-6.74-1.88
			c-3.962-1.455-7.786-3.304-11.783-4.648c-4.919-1.653-9.986-2.86-14.934-4.435c-7.67-2.44-15.27-5.102-22.946-7.523
			c-4.416-1.393-8.966-2.362-13.379-3.763c-6.29-1.998-12.486-4.29-18.769-6.313c-3.445-1.109-7.016-1.826-10.473-2.904
			c-2.33-0.726-4.56-1.773-7.799-3.061c-1.219,8.019-2.766,15.012-3.229,22.075c-0.513,7.838-0.064,15.742,0.033,23.616
			c0.018,1.47,0.297,2.946,0.55,4.403c0.998,5.739,2.013,11.477,3.067,17.207c0.304,1.654,0.716,3.294,1.153,4.92
			c1.046,3.889,2.625,7.708,3.099,11.662c0.799,6.663,4.112,12.297,6.632,18.236c2.659,6.268,5.663,12.417,8.939,18.387
			c2.386,4.348,5.237,8.49,8.284,12.411c3.544,4.562,7.524,8.785,11.324,13.147c1.92,2.205,3.782,4.469,5.812,6.568
			c3.159,3.268,6.324,6.544,9.7,9.58c3.078,2.768,6.367,5.322,9.736,7.728c0.692,0.493,2.903,0.262,3.139-0.237
			c1.323-2.807,2.28-5.789,3.318-8.727c1.811-5.125,3.59-10.262,5.383-15.394c0.486,0.104,0.971,0.21,1.457,0.314
			c0,3.378,0,6.757,0,10.841c1.509-0.648,2.551-0.786,3.082-1.381c1.92-2.148,3.559-4.554,5.507-6.676
			c3.737-4.073,7.756-7.893,11.397-12.045c5.734-6.541,11.222-13.297,16.874-19.911c4.791-5.606,9.749-11.071,14.483-16.726
			c6.172-7.37,12.118-14.931,18.307-22.287c5.457-6.484,11.023-12.883,16.758-19.121c1.145-1.243,3.274-2.93,5.343,0.569
			c-28.688,33.121-57.519,66.406-87.104,100.563C115.958,327.436,118.957,327.302,122.565,327.141z M298.673,187.295
			c-0.056-0.476-0.112-0.952-0.168-1.427c-2.843,0.509-5.668,1.201-8.533,1.491c-6.292,0.639-12.599,1.175-18.911,1.568
			c-6.584,0.409-13.193,0.447-19.771,0.927c-7.962,0.582-15.893,1.904-23.857,2.105c-13.608,0.341-27.233,0.178-40.848-0.021
			c-5.288-0.077-10.56-0.955-15.851-1.24c-6.778-0.366-13.579-0.342-20.352-0.776c-9.398-0.602-18.779-1.482-28.169-2.224
			c-3.077-0.243-6.165-0.36-9.237-0.648c-3.207-0.3-6.402-0.736-9.603-1.113c7.023,3.208,13.973,5.813,21.01,8.156
			c7.347,2.448,14.756,4.713,22.18,6.914c2.783,0.826,5.787,0.959,8.509,1.92c5.414,1.912,10.65,4.323,16.057,6.253
			c4.669,1.668,9.459,3.005,14.227,4.384c1.635,0.473,3.667,0.16,4.985,1.021c2.96,1.931,11.891,2.571,15.095,1.155
			c4.317-1.91,8.808-3.471,13.317-4.887c3.1-0.974,6.451-1.169,9.519-2.216c3.614-1.232,6.921-3.456,10.58-4.453
			c6.477-1.764,13.309-1.88,19.481-5.236c3.364-1.829,7.453-2.362,11.246-3.36c2.745-0.723,5.632-0.996,8.295-1.928
			c3.803-1.33,7.373-3.342,11.201-4.565C292.152,188.113,295.465,187.868,298.673,187.295z"/>
		<path fill-rule="evenodd" clip-rule="evenodd" d="M429.725,140.716c0.179-1.835,0.463-3.404,0.465-4.973
			c0.027-18.235-0.1-36.473,0.071-54.707c0.057-6.074,0.932-12.136,1.219-18.214c0.051-1.096-0.946-2.242-1.459-3.365
			c-0.771,0.611-1.614,1.154-2.303,1.849c-1.696,1.711-3.32,3.493-4.974,5.246c-0.305-0.219-0.609-0.439-0.914-0.658
			c3.434-10.535,6.868-21.07,10.302-31.605c0.361,0.011,0.723,0.022,1.083,0.033c3.568,10.419,7.138,20.837,10.706,31.256
			c-0.332,0.241-0.664,0.481-0.996,0.722c-2.657-2.563-5.315-5.126-7.972-7.689c-0.354,0.269-0.709,0.539-1.063,0.807
			c0,27.026,0,54.052,0,81.258c3.533-1.488,4.063-7.292,9.174-6.604c-1.19,3.792-2.147,7.036-3.229,10.239
			c-1.736,5.145-3.61,10.245-5.28,15.412c-0.284,0.879,0.194,1.992,0.255,3.001c0.045,0.751,0.14,2.118-0.056,2.167
			c-1.265,0.325-2.65,0.621-3.898,0.393c-0.671-0.123-1.483-1.233-1.656-2.023c-1.029-4.71-1.529-9.566-2.91-14.161
			c-1.396-4.646-3.645-9.035-5.421-13.573c-0.199-0.505,0.131-1.745,0.399-1.804c0.723-0.159,1.822-0.145,2.279,0.303
			C425.551,135.992,427.38,138.137,429.725,140.716z"/>
		<path fill-rule="evenodd" clip-rule="evenodd" d="M471.661,88.034c1.156-0.073,3.18-0.202,5.834-0.371
			c-1.813,5.705-3.454,10.869-5.095,16.034c0.165,0.183,0.332,0.366,0.498,0.549c0.701-0.579,1.518-1.063,2.086-1.752
			c1.906-2.311,4.14-4.215,7.266-3.542c1.202,0.259,3.094,2.009,2.982,2.858c-0.475,3.596-1.584,7.108-2.579,11.13
			c2.325,2.478,2.368,3.658-0.586,4.988c-1.282,0.577-2.735,0.772-4.111,1.14c-0.237-1.517-0.9-3.118-0.621-4.534
			c0.548-2.773,1.673-5.428,2.448-8.164c0.309-1.087,0.324-2.257,0.521-3.758c-7.324,2.076-9.216,7.767-10.837,13.389
			c-0.643,2.229-1.575,3.639-3.613,3.009c-0.715-0.222-1.291-2.966-0.92-4.27c1.733-6.073,3.973-12.002,5.709-18.075
			C471.37,94.125,471.298,91.358,471.661,88.034z"/>
		<path fill-rule="evenodd" clip-rule="evenodd" d="M396.518,32.424c0.212-1.182,0.37-2.068,0.622-3.466
			c0.907,0.779,1.506,1.716,2.052,1.687c2.084-0.112,4.146-0.583,6.227-0.828c1.68-0.198,3.374-0.343,5.063-0.367
			c2.525-0.036,5.069-0.103,7.569,0.171c0.962,0.105,1.825,1.107,2.733,1.701c-0.191,0.368-0.384,0.735-0.575,1.103
			C412.53,32.424,404.852,32.424,396.518,32.424z"/>
		<path fill-rule="evenodd" clip-rule="evenodd" d="M395.334,29.889c0.066,0.42,0.193,1.22,0.361,2.286c-7.816,0-15.403,0-23.352,0
			c-0.09-0.718-0.198-1.593-0.285-2.286C379.793,29.889,387.261,29.889,395.334,29.889z"/>
		<path fill-rule="evenodd" clip-rule="evenodd" d="M455.572,30.346c5.133,0,9.656,0,14.761,0c0.034,0.276,0.162,1.332,0.283,2.328
			c-5.263,0-10.016,0-15.044,0C455.572,31.929,455.572,30.897,455.572,30.346z"/>
		<path fill-rule="evenodd" clip-rule="evenodd" d="M386.313,163.104c5.637,0,10.739,0,15.982,0
			C400.657,165.194,389.314,165.367,386.313,163.104z"/>
		<path fill-rule="evenodd" clip-rule="evenodd" d="M371.134,163.069c4.879,0,9.757,0,14.636,0c0.002,0.304,0.005,0.609,0.008,0.913
			c-4.894,0-9.787,0-14.68,0C371.109,163.678,371.122,163.374,371.134,163.069z"/>
		<path fill-rule="evenodd" clip-rule="evenodd" d="M449.716,31.913c-4.812,1.335-10.327,0.504-10.421-1.144
			c3.525,0,7.041,0,10.559,0C449.807,31.151,449.762,31.532,449.716,31.913z"/>
		<path fill-rule="evenodd" clip-rule="evenodd" d="M332.393,29.104c0.17,3.787,0.185,3.749-2.453,2.747
			c-0.514-0.194-1.216,0.168-1.783,0.048c-1.005-0.213-1.973-0.6-2.955-0.913c0.082-0.5,0.165-1,0.248-1.5
			C327.652,29.365,329.856,29.245,332.393,29.104z"/>
		<path fill-rule="evenodd" clip-rule="evenodd" d="M340.534,29.4c0.392,2.068,0.893,3.879-2.5,2.543
			c-1.06-0.417-2.506,0.15-3.785,0.268C334.072,29.672,334.072,29.672,340.534,29.4z"/>
		<path fill-rule="evenodd" clip-rule="evenodd" d="M275.32,29.062c2.24,0,4.48,0,7.03,0c-0.187,1.078-0.318,1.842-0.463,2.674
			c-2.507-0.352-4.739-0.665-6.97-0.979C275.052,30.192,275.186,29.627,275.32,29.062z"/>
		<path fill-rule="evenodd" clip-rule="evenodd" d="M419.411,163.203c-0.721,0.813-1.095,1.583-1.441,1.571
			c-3.205-0.107-6.406-0.35-9.608-0.553c0.018-0.339,0.036-0.679,0.054-1.018C411.822,163.203,415.229,163.203,419.411,163.203z"/>
		<path fill-rule="evenodd" clip-rule="evenodd" d="M267.235,31.26c0-0.896,0-1.774,0-2.84c2.518,0.395,4.792,0.751,7.064,1.109
			c-0.036,0.366-0.073,0.73-0.109,1.096C271.992,30.826,269.793,31.027,267.235,31.26z"/>
		<path fill-rule="evenodd" clip-rule="evenodd" d="M366.916,104.375c-1.981-0.133-3.346-0.226-4.71-0.317
			c-0.417-0.537-0.833-1.073-1.25-1.61c0.91-0.857,1.82-1.715,3.266-3.077C365.563,101.86,366.062,102.788,366.916,104.375z"/>
		<path fill-rule="evenodd" clip-rule="evenodd" d="M323.667,29.193c-0.121,1.188-0.212,2.088-0.278,2.743
			c-1.989-0.176-3.722-0.33-5.545-0.493C317.718,30.125,317.718,30.125,323.667,29.193z"/>
		<path fill-rule="evenodd" clip-rule="evenodd" fill="#FFFFFF" d="M122.565,327.141c-3.608,0.161-6.606,0.295-10.406,0.464
			c29.585-34.156,58.416-67.441,87.104-100.563c-2.069-3.499-4.198-1.813-5.343-0.569c-5.735,6.238-11.302,12.637-16.758,19.121
			c-6.189,7.356-12.135,14.917-18.307,22.287c-4.734,5.654-9.692,11.119-14.483,16.726c-5.651,6.614-11.139,13.37-16.874,19.911
			c-3.641,4.152-7.66,7.972-11.397,12.045c-1.948,2.122-3.586,4.527-5.507,6.676c-0.53,0.595-1.573,0.732-3.082,1.381
			c0-4.084,0-7.463,0-10.841c-0.485-0.104-0.971-0.21-1.457-0.314c-1.792,5.132-3.572,10.269-5.383,15.394
			c-1.038,2.938-1.995,5.92-3.318,8.727c-0.235,0.499-2.446,0.73-3.139,0.237c-3.37-2.405-6.658-4.96-9.736-7.728
			c-3.376-3.036-6.542-6.313-9.7-9.58c-2.03-2.1-3.891-4.363-5.812-6.568c-3.8-4.362-7.779-8.586-11.324-13.147
			c-3.047-3.921-5.898-8.063-8.284-12.411c-3.276-5.97-6.281-12.119-8.939-18.387c-2.52-5.939-5.833-11.573-6.632-18.236
			c-0.474-3.954-2.053-7.773-3.099-11.662c-0.437-1.626-0.849-3.266-1.153-4.92c-1.054-5.73-2.069-11.468-3.067-17.207
			c-0.253-1.457-0.532-2.934-0.55-4.403c-0.097-7.874-0.546-15.778-0.033-23.616c0.463-7.063,2.009-14.056,3.229-22.075
			c3.239,1.287,5.469,2.334,7.799,3.061c3.457,1.078,7.027,1.795,10.473,2.904c6.283,2.022,12.479,4.314,18.769,6.313
			c4.413,1.401,8.963,2.37,13.379,3.763c7.676,2.421,15.276,5.083,22.946,7.523c4.948,1.574,10.015,2.782,14.934,4.435
			c3.997,1.344,7.82,3.193,11.783,4.648c2.182,0.802,4.52,1.169,6.74,1.88c4.294,1.375,8.515,2.99,12.839,4.254
			c5.269,1.54,10.623,2.788,15.918,4.238c1.145,0.313,2.227,0.901,3.288,1.457c0.738,0.387,1.327,1.151,2.092,1.377
			c9.011,2.663,18.04,5.263,27.074,7.848c0.561,0.16,1.233,0.206,1.792,0.062c7.097-1.831,14.226-3.558,21.251-5.633
			c3.497-1.034,6.765-2.818,10.198-4.097c2.622-0.978,5.311-1.813,8.024-2.496c3.732-0.94,7.557-1.526,11.263-2.55
			c3.281-0.908,6.435-2.269,9.681-3.314c2.553-0.822,5.171-1.435,7.741-2.202c7.924-2.368,15.858-4.708,23.751-7.176
			c4.152-1.298,8.187-2.98,12.35-4.238c4.568-1.38,9.257-2.358,13.83-3.722c4.431-1.321,8.765-2.965,13.175-4.359
			c2.896-0.915,5.825-1.755,8.788-2.415c3.097-0.69,6.28-1.003,9.365-1.738c1.017-0.242,1.748-1.579,2.772-1.912
			c4.133-1.338,8.329-2.48,13.117-3.874c0.617,6.845,1.004,12.902,1.738,18.917c1.813,14.856-0.114,29.561-2.34,44.133
			c-1.33,8.706-4.234,17.246-7.129,25.619c-2.63,7.611-5.901,15.046-9.472,22.271c-2.313,4.681-5.552,8.929-8.587,13.222
			c-3.771,5.334-7.521,10.715-11.725,15.701c-3.749,4.447-7.979,8.516-12.221,12.512c-4.516,4.252-9.216,8.321-13.992,12.282
			c-2.996,2.484-6.17,4.795-9.458,6.875c-5.678,3.591-11.376,7.191-17.318,10.306c-3.923,2.057-8.665,2.678-12.357,5.018
			c-4.376,2.774-9.315,3.402-13.908,5.223c-2.474,0.981-5.08,1.689-7.684,2.267c-4.685,1.038-9.375,2.354-14.126,2.72
			c-12.243,0.938-24.516,1.552-36.786,2.023c-5.093,0.195-10.224-0.159-15.316-0.536c-3.619-0.268-7.32-0.591-10.779-1.598
			c-6.073-1.766-11.965-4.145-17.981-6.119c-2.42-0.795-4.952-1.595-7.463-1.705c-5.689-0.249-9.417-4.587-14.333-6.512
			c-7.37-2.885-14.166-7.249-21.116-11.146c-0.391-0.219-0.334-2.51,0.147-2.806c3.131-1.924,6.42-3.597,9.692-5.285
			c3.311-1.709,6.702-3.271,9.953-5.084C122.2,329.925,122.163,328.651,122.565,327.141z M190.395,289.856
			c4.081,0.824,5.191,2.826,5.737,5.697c0.75,3.941,1.938,7.84,6.222,9.446c0.852,0.32,2.043-0.267,3.079-0.437
			c-0.284-0.914-0.428-1.904-0.877-2.727c-1.329-2.432-2.986-4.701-4.136-7.207c-2.04-4.448-1.706-5.274,1.98-7.18
			c5.132-2.654,6.271-6.403,2.951-10.794c-0.814-1.075-2.623-1.462-4.036-2.009c-4.626-1.792-9.281-0.893-13.101-0.624
			c0.372,2.827,0.972,5.131,0.862,7.4c-0.065,1.358-1.445,2.6-1.883,4.004c-1.901,6.094-3.672,12.229-5.482,18.317
			c2.398,0,5.282,0,7.227,0C189.438,298.977,189.887,294.701,190.395,289.856z"/>
		<path fill-rule="evenodd" clip-rule="evenodd" fill="#FFFFFF" d="M323.427,124.411c0.073,3.27-1.006,6.794,1.907,10.198
			c-8.021-1.748-16.044-3.498-24.064-5.247c0.03-0.145,0.06-0.291,0.089-0.436c-2.151-0.386-4.297-1.053-6.455-1.095
			c-3.965-0.077-7.686-1.768-11.939-0.691c-2.707,0.685-5.968-1.056-9.016-1.424c-4.56-0.551-9.158-0.775-13.726-1.279
			c-5.57-0.614-11.106-1.658-16.688-2.008c-12.108-0.76-24.231-1.552-36.356-1.686c-20.592-0.227-41.191-0.052-61.784,0.173
			c-5.512,0.06-11.252,0.095-16.465,1.602c-6.734,1.947-13.49,1.624-20.245,2.262c-5.174,0.489-10.302,1.464-15.474,1.984
			c-2.272,0.228-4.652-0.465-6.895-0.138c-2.131,0.311-4.491,0.978-6.119,2.277c-1.689,1.348-3.078,0.284-4.504,0.562
			c-1.568,0.307-2.952,1.558-3.767,2.026c-2.139,0-4.199-0.616-5.503,0.115c-4.062,2.277-8.286,3.258-12.869,3.145
			c-0.356-0.009-0.69,0.708-1.094,0.789c-4.309,0.852-8.589,1.709-11.575,5.42c-0.179,0.223-0.875,0.028-1.378,0.028
			c0.277-4.473,1.773-7.995,4.675-11.361c1.688-1.958,1.652-5.401,2.65-9.144c4.466,0.197,9.399,0.415,14.333,0.632
			c0.308,0.399,0.616,0.798,0.924,1.198c2.247,0.728,4.495,1.457,7.458,2.417c-0.47-2.271-0.896-4.324-1.321-6.376
			c1.264-2.042,3.493-3.74,2.367-6.635c1.348-0.363,2.696-0.726,3.635-0.979c-0.627-1.29-1.246-2.645-1.938-3.962
			c-0.466-0.887-1.036-1.719-1.559-2.575l0.086,0.135c0.563-1.517,0.907-3.171,1.748-4.515c0.926-1.482,2.308-2.678,3.492-3.999
			c0.969-0.318,1.938-0.635,2.906-0.953c1.673-0.146,3.345-0.293,5.285-0.464c-0.707-1.679-1.24-2.947-1.625-3.861
			c1.729-1.364,3.099-2.444,5.24-4.133c-2.229-0.447-3.289-0.659-4.35-0.872c-2.396-2.176-3.416,0-4.657,1.474
			c-0.348-1.306-0.697-2.612-1.045-3.917c0.31-0.809,0.392-1.876,0.968-2.384c3.698-3.266,8.127-5.916,11.134-9.706
			c4.753-5.99,12.315-7.778,17.491-12.969c0.943-0.946,2.617-1.185,3.979-1.681c0.454-0.166,1.095,0.054,1.466-0.188
			c3.951-2.563,7.865-5.182,11.786-7.791c0.413-0.275,0.759-0.73,1.206-0.857c7.624-2.172,15.282-4.227,22.877-6.496
			c2.231-0.666,4.197-2.336,6.442-2.824c10.107-2.195,20.27-3.971,30.712-3.647c2.849,0.089,5.724-1.22,8.597-1.266
			c3.808-0.062,7.626,0.485,11.439,0.775c2.105,0.161,4.232,0.192,6.311,0.52c9.417,1.482,18.88,2.756,28.205,4.692
			c5.917,1.229,11.651,3.399,17.404,5.331c2.421,0.813,4.69,2.083,7.012,3.181c2.859,1.351,5.851,2.497,8.524,4.153
			c8.193,5.074,16.697,9.8,24.214,15.755c4.435,3.513,9.262,6.368,13.604,9.848c4.527,3.627,8.137,8.4,12.025,12.542
			c-1.734,5.016-0.419,9.154,3.139,9.896c-0.231-1.125-0.441-2.146-0.655-3.188c3.293,0.968,3.801,2.168,2.864,6.653
			c0.001-0.004-0.019,0.103-0.018,0.102c-2.158,0.724-4.317,1.448-6.478,2.173c-3.313-0.909-6.414,0.86-6.358,3.708
			c2.099,0,4.203,0,6.309,0c0.538,0.54,1.076,1.079,1.615,1.619c-2.709,2.985-0.44,5.57,0.662,8.249
			C324,121,323.714,122.705,323.427,124.411z M305.598,112.669c-0.446,2.662,0.9,3.452,3.194,2.78
			c1.501-0.439,2.878-1.299,4.31-1.971c-0.08,1.728-0.159,3.456-0.239,5.183c1.691-0.374,3.383-0.749,5.075-1.123
			c0.146-0.437,0.291-0.874,0.438-1.312c-1.81-1.311-3.62-2.622-5.43-3.933c-0.228-0.448-0.454-0.896-0.681-1.344
			c-1.439-1.692-2.88-3.385-4.907-5.769c-0.157,2.186-0.233,3.253-0.31,4.32C306.564,110.557,306.081,111.612,305.598,112.669z
			 M315.126,90.736c0-1.097,0.216-1.835-0.046-2.311c-0.555-1.009-1.359-1.881-2.062-2.809c-0.768,0.791-1.538,1.577-2.299,2.374
			c-0.53,0.556-1.154,1.061-1.542,1.706c-0.697,1.157-1.248,2.403-1.86,3.612c1.393,0.65,2.77,1.804,4.181,1.848
			C314.695,95.255,315.848,93.334,315.126,90.736z M101.403,93.248c-2.37-1.553-4.113-2.856-6.036-3.79
			c-0.302-0.146-2.184,1.685-2.025,2.09c0.659,1.684,1.818,3.173,2.753,4.668C97.817,95.253,99.043,94.567,101.403,93.248z
			 M312.014,100.908c-0.3-0.021-0.6-0.042-0.899-0.064c-0.05,0.52-0.101,1.041-0.15,1.562c0.317,0.029,0.634,0.059,0.951,0.088
			C311.948,101.966,311.98,101.437,312.014,100.908z M304.677,94.489c-0.245,0.452-0.56,0.772-0.504,1.002
			c0.057,0.233,0.48,0.521,0.74,0.516c0.188-0.003,0.542-0.463,0.513-0.678C305.39,95.071,305.027,94.857,304.677,94.489z"/>
		<path fill-rule="evenodd" clip-rule="evenodd" fill="#FFFFFF" d="M332.244,151.474c4.606,1.925,3.813-2.678,4.513-4.336
			c1.665-3.949,1.466-3.32,5.248-2.39c4.158,1.022,6.501,3.965,9.72,5.935c0.943,0.578,2.235,0.587,3.251,0.829
			c0.663,2.308,1.322,4.6,1.981,6.892c0.461,5.673-5.493,6.539-8.65,9.921c-1.6,1.713-4.872,1.944-7.441,2.657
			c-5.518,1.532-11.299,2.407-16.503,4.644c-2.312,0.993-4.3,2.528-6.946,2.261c-1.059-0.106-2.078-0.588-3.014-0.869
			c-0.636,0.582-1.416,1.936-2.375,2.077c-8.25,1.218-16.52,2.337-24.809,3.244c-6.764,0.74-13.568,1.103-20.345,1.742
			c-1.326,0.125-2.605,0.756-4.205,0.582c-1.309,0.4-2.594,0.99-3.933,1.157c-1.75,0.218-3.542,0.091-5.316,0.134
			c-19.074,0.459-38.146,1.248-57.222,1.286c-15.661,0.031-31.532,0.557-46.917-1.752c-11.381-1.708-22.856-0.547-34.123-3.137
			c-7.968-1.832-16.296-2.06-24.428-3.243c-2.914-0.424-5.789-2.404-8.57-2.194c-6.716,0.508-11.917-4.087-18.352-4.634
			c-2.729-0.232-6.644,0.179-8.638-3.202c-0.126-0.214-0.735-0.317-1.047-0.226c-4.073,1.19-5.681-2.18-7.979-4.269
			c0.209-1.872,0.419-3.743,0.63-5.615c0.848,0.273,1.708,0.8,2.542,0.76c1.171-0.056,2.323-0.531,3.483-0.825
			c0.729,1.252,1.457,2.504,2.726,4.684c0.145-2.41,0.229-3.799,0.313-5.189c-0.507-0.3-1.014-0.602-1.521-0.902
			c-0.302-0.038-0.604-0.075-0.907-0.112c2.009-1.474,4.018-2.949,6.211-4.558c-2.953-2.704-6.232-4.402-10.588-3.109
			c0.613,1.641,1.121,2.999,1.629,4.355c-1.217-0.023-2.435-0.047-3.652-0.071c1.447-2.113-0.028-2.75-1.656-3.444
			c-2.485-1.059-4.519-2.531-4.212-6.272c4.283-1.042,9.074-1.497,13.145-3.452c2.65-1.273,5.116-1.751,7.852-2.242
			c2.79-0.5,5.388-1.986,8.158-2.705c2.62-0.679,5.342-1.008,8.039-1.315c1.124-0.128,2.299,0.2,3.705,0.347
			c2.382-3.021,5.859-2.601,9.695-2.609c2.486-0.006,5.766,1.746,7.998-1.198c0.188-0.248,0.673-0.329,1.035-0.379
			c6.959-0.966,13.894-2.336,20.887-2.781c13.635-0.866,27.3-1.583,40.958-1.686c20.465-0.154,40.936,0.212,61.403,0.489
			c8.048,0.109,16.099,0.45,24.134,0.927c3.95,0.234,7.859,1.111,11.805,1.53c5.479,0.582,10.994,0.846,16.457,1.542
			c5.493,0.7,10.941,1.754,16.407,2.671c1.443,0.242,2.867,0.638,4.317,0.81c5.591,0.665,11.194,1.24,16.78,1.945
			c0.487,0.062,0.886,0.83,1.325,1.27c0.001,0.359,0.002,0.718,0.002,1.077c0.037,1.288,0.074,2.576,0.111,3.863
			c-4.9,0.012-3.086,2.917-2.315,5.372c0.175,1.643,0.272,3.299,0.552,4.923c0.172,1.004,0.62,1.961,0.943,2.939
			c0.665,0.839,1.331,1.68,1.996,2.52c1.079,0.17,2.174,0.548,3.235,0.472c2.69-0.191,5.366-0.586,8.048-0.899
			c1.644,5.174,7.731,1.352,9.755,5.756c0.291-0.279,0.581-0.557,0.872-0.836c-0.296-1.71-0.591-3.42-0.818-4.737
			c1.508-1.409,2.771-2.59,4.214-3.938c0.161,0.239,0.431,0.514,0.555,0.842c1.143,3.009,3.481,1.546,4.923,0.834
			c0.852-0.421,1.385-3.636,1.166-3.741c-1.918-0.927-4.037-1.437-6.126-2.08c-0.172,0.787-0.342,1.562-0.526,2.412
			c-1.009-0.561-1.802-1.003-2.574-1.432c-1.414,1.875-2.649,3.513-3.871,5.133C334.134,154.155,333.189,152.815,332.244,151.474z
			 M307.045,159.09c-1.899,1.587-3.799,3.175-5.613,4.691c1.089,0.489,2.287,1.027,3.585,1.61c1.05-1.106,2.14-2.252,3.205-3.374
			c-0.45-1.067-0.863-2.05-1.275-3.033c1.283-0.599,2.875-0.904,3.783-1.858c1.928-2.025,0.862-2.898-1.264-2.96
			C308.574,155.979,307.81,157.535,307.045,159.09z M88.811,149.17c-1.655,1.569-1.648,3.138,0.001,4.706
			c0.133,1.127,0.265,2.253,0.398,3.378c-0.205-0.417-0.41-0.833-0.615-1.249c2.161-1.625,4.323-3.252,6.583-4.953
			c-1.561-1.297-3.46-2.877-5.654-4.701C89.218,147.562,89.014,148.366,88.811,149.17z M73.026,156.503
			c-3.125-2.105-6.46-3.139-10.773-1.221c1.72,1.139,3.439,2.278,5.055,3.347c-0.591,1.081-1.245,2.274-1.873,3.421
			c1.774,0.852,3.092,1.485,4.241,2.036c1.171-0.56,2.294-1.096,3.416-1.632c1.076,0.636,2.151,1.271,4.295,2.538
			c0.284-6.243,0.521-11.446,0.78-17.152c-3.067,0.196-6.578,0.422-10.611,0.68c0.135,0.475,0.415,2.147,0.638,2.14
			c1.7-0.057,3.389-0.443,6.091-0.896c0.385,1.079,1.313,2.793,1.466,4.575C75.805,154.979,73.989,155.777,73.026,156.503z
			 M299.963,147.6c2.539,0.302,4.549,0.541,6.684,0.796c1.347-3.681-2.113-2.199-3.646-2.851c-0.482-0.995-0.966-1.99-1.449-2.984
			c-0.373,0.035-0.746,0.07-1.12,0.105C300.276,144.302,300.121,145.938,299.963,147.6z M318.146,164.68
			c-2.363,0.621-4.462,1.172-6.869,1.804c1.327,1.009,2.177,1.655,3.026,2.301c0.087-0.292,0.174-0.583,0.261-0.875
			c1.575,0.158,3.15,0.317,4.807,0.483C318.992,167.244,318.626,166.134,318.146,164.68z M291.057,160.708
			c-0.347,0.545-0.693,1.09-1.04,1.635c1.029,0.682,2.119,1.988,3.069,1.894c1.311-0.129,2.516-1.318,3.764-2.053
			c-0.11-0.406-0.222-0.811-0.332-1.217C294.697,160.881,292.877,160.795,291.057,160.708z"/>
		<path fill-rule="evenodd" clip-rule="evenodd" fill="#FFFFFF" d="M298.673,187.295c-3.208,0.573-6.521,0.817-9.597,1.8
			c-3.828,1.224-7.398,3.236-11.201,4.565c-2.663,0.932-5.55,1.205-8.295,1.928c-3.793,0.999-7.882,1.531-11.246,3.36
			c-6.172,3.356-13.004,3.473-19.481,5.236c-3.658,0.997-6.965,3.221-10.58,4.453c-3.068,1.047-6.419,1.242-9.519,2.216
			c-4.51,1.416-9,2.977-13.317,4.887c-3.204,1.416-12.134,0.775-15.095-1.155c-1.319-0.861-3.35-0.549-4.985-1.021
			c-4.767-1.379-9.557-2.716-14.227-4.384c-5.407-1.93-10.644-4.341-16.057-6.253c-2.722-0.961-5.726-1.094-8.509-1.92
			c-7.423-2.201-14.833-4.466-22.18-6.914c-7.037-2.343-13.987-4.947-21.01-8.156c3.201,0.376,6.396,0.813,9.603,1.113
			c3.072,0.288,6.16,0.405,9.237,0.648c9.39,0.741,18.771,1.622,28.169,2.224c6.772,0.434,13.573,0.41,20.352,0.776
			c5.291,0.286,10.563,1.163,15.851,1.24c13.615,0.199,27.24,0.362,40.848,0.021c7.964-0.201,15.895-1.523,23.857-2.105
			c6.577-0.48,13.187-0.518,19.771-0.927c6.313-0.393,12.619-0.929,18.911-1.568c2.865-0.291,5.69-0.982,8.533-1.491
			C298.561,186.344,298.617,186.82,298.673,187.295z"/>
		<path fill-rule="evenodd" clip-rule="evenodd" fill="#FFFFFF" d="M323.427,124.411c0.287-1.706,0.573-3.411,0.86-5.116
			c1.085-0.443,2.169-0.886,3.253-1.329c0.114,0.35,0.228,0.699,0.341,1.05c0.293-0.288,0.586-0.575,0.879-0.862
			c0.423,0.443,1.242,0.918,1.21,1.325c-0.32,3.953,2.687,5.231,5.182,7.182c1.201,0.938,1.498,3.031,2.204,4.602
			c0.827,2.556,2.38,1.848,3.967,0.864c1.095-0.679,2.162-1.402,3.241-2.106c1.287,0.062,2.574,0.122,4.034,0.192
			c1.661,3.917,3.366,7.937,5.078,11.973c-3.733,1.013-14.331-2.769-16.104-5.722c-0.451,0.57-0.884,1.118-1.354,1.713
			c-2.226-1.072-3.416-4.621-6.801-2.6c-0.31,0.186-1.981-0.935-2.138-1.644c-0.635-2.877-0.924-5.83-1.376-9.006
			C325.345,124.81,324.386,124.61,323.427,124.411z"/>
		<path fill-rule="evenodd" clip-rule="evenodd" fill="#FFFFFF" d="M61.014,112.507c-1.487-0.255-2.974-0.511-4.46-0.766
			c-0.761,0.257-1.522,0.513-2.283,0.77c-0.496-0.362-0.992-0.723-1.488-1.085c1.588-2.043,3.129-4.125,4.782-6.114
			c0.981-1.18,2.92-2.116,3.071-3.329c0.42-3.396,1.823-4.836,5.237-4.289c0.574,0.091,1.209-0.196,1.816-0.308
			c0.45,0.541,0.899,1.082,1.349,1.623c-2.953,2.961-0.11,3.984,1.78,5.326l-0.086-0.135c-0.932,0.612-1.828,1.29-2.803,1.825
			c-2.341,1.283-2.353,2.672,0.018,4.312c-1.402,0.475-2.804,0.949-4.207,1.424C62.832,112.01,61.923,112.258,61.014,112.507z"/>
		<path fill-rule="evenodd" clip-rule="evenodd" d="M332.244,151.474c0.945,1.341,1.89,2.681,3.139,4.453
			c1.222-1.62,2.457-3.258,3.871-5.133c0.772,0.429,1.565,0.871,2.574,1.432c0.185-0.85,0.354-1.625,0.526-2.412
			c2.089,0.643,4.208,1.152,6.126,2.08c0.219,0.105-0.314,3.32-1.166,3.741c-1.441,0.711-3.78,2.175-4.923-0.834
			c-0.124-0.329-0.394-0.604-0.555-0.842c-1.442,1.348-2.706,2.529-4.214,3.938c0.228,1.317,0.522,3.027,0.818,4.737
			c-0.291,0.279-0.581,0.558-0.872,0.836c-2.023-4.404-8.111-0.582-9.755-5.755c0.001,0.001-0.102-0.139-0.102-0.139
			c0.579-2.529,1.159-5.057,1.739-7.585c0.541,0.405,1.083,0.809,1.625,1.214C331.466,151.295,331.855,151.385,332.244,151.474z"/>
		<path fill-rule="evenodd" clip-rule="evenodd" fill="#FFFFFF" d="M46.775,158.967c-0.21,1.872-0.42,3.743-0.63,5.615
			c-0.982,1.568-3.123,1.452-5.134,0.016c-1.475-1.053-3.185-1.774-5.678-3.125c-0.442-1.367-1.285-3.97-2.12-6.546
			c1.568-1.723,3.212-3.528,5.555-6.102c-0.617,2.097-0.924,3.139-1.32,4.484c3.049,0.44,5.784,0.836,8.519,1.231
			C46.236,156.016,46.505,157.491,46.775,158.967z"/>
		<path fill-rule="evenodd" clip-rule="evenodd" fill="#FFFFFF" d="M331.077,151.205c-0.542-0.405-1.084-0.809-1.625-1.212
			c0,0.002,0.169,0.128,0.169,0.128c-0.496-0.912-0.992-1.823-1.453-2.671c-1.541,0.314-2.835,0.578-4.522,0.922
			c-0.22-2.065-0.402-3.789-0.585-5.514c-0.218,0.29-0.436,0.579-0.653,0.868c-1.163-0.413-2.522-0.576-3.443-1.298
			c-1.399-1.097-2.495-2.582-3.72-3.902c0-0.359-0.001-0.718-0.002-1.077c3.774,1.118,7.532,2.294,11.328,3.331
			c2.193,0.599,4.518,0.779,6.646,1.532c0.993,0.352,1.662,1.616,2.479,2.466c-0.926,0.526-1.852,1.052-2.871,1.631
			C332.295,147.856,331.687,149.53,331.077,151.205z"/>
		<path fill-rule="evenodd" clip-rule="evenodd" fill="#FFFFFF" d="M69.038,99.009c-0.45-0.541-0.899-1.083-1.349-1.623
			c-1.078-0.599-2.155-1.198-3.827-2.126c1.905-1.688,3.774-3.344,5.644-5c-0.128,1.305-0.255,2.611-0.383,3.917
			c0.382,0.205,0.763,0.409,1.145,0.613c1.251-2.01,2.502-4.02,3.918-6.294c-0.651-0.261-1.281-0.513-1.91-0.765
			c1.275-2.227,1.105-6.181,5.538-4.636c0.348,1.305,0.697,2.611,1.045,3.917c0.07,0.252,0.14,0.504,0.21,0.757
			c-0.447,0.263-0.894,0.526-1.341,0.788c0.299,0.227,0.598,0.454,0.896,0.68c0.114,1.877,0.227,3.754,0.34,5.631
			c-0.969,0.318-1.938,0.635-2.906,0.953C73.717,96.884,71.377,97.946,69.038,99.009z"/>
		<path fill-rule="evenodd" clip-rule="evenodd" fill="#FFFFFF" d="M328.536,103.547c0,0,0.02-0.106,0.019-0.103
			c1.088-0.27,2.458-1.091,3.207-0.705c1.763,0.909,3.33,2.29,4.756,3.703c0.467,0.463,0.62,2.126,0.287,2.365
			c-2.022,1.456-4.227,2.658-6.371,3.945c-0.302-0.341-0.604-0.682-0.905-1.023C329.197,109.002,328.867,106.274,328.536,103.547z"
			/>
		<path fill-rule="evenodd" clip-rule="evenodd" fill="#FFFFFF" d="M338.554,124.459c-0.94-1.706-2.407-3.346-2.629-5.14
			c-0.136-1.103,1.375-3.034,2.594-3.563c3.726-1.613,4.169,2.532,5.528,3.513c-0.134,2.062-0.23,3.567-0.327,5.073
			c-0.519-0.482-1.032-0.971-1.558-1.444c-0.838-0.755-1.683-1.5-3.087-2.75c-0.308,2.281-0.451,3.354-0.596,4.425L338.554,124.459z
			"/>
		<path fill-rule="evenodd" clip-rule="evenodd" fill="#FFFFFF" d="M61.014,112.507c0.909-0.249,1.817-0.497,2.726-0.747
			c0.367,1.912,0.461,3.928,3.102,4.356c0.51,0.082,0.823,1.381,1.228,2.118c-3.853-0.895-5.375,0.142-5.981,4.077
			c-0.308-0.399-0.616-0.798-0.924-1.198C58.447,118.291,61.39,115.37,61.014,112.507z"/>
		<path fill-rule="evenodd" clip-rule="evenodd" d="M46.775,158.967c-0.27-1.476-0.539-2.951-0.809-4.427
			c0.348-0.18,0.696-0.359,1.044-0.539c1.217,0.023,2.434,0.047,3.651,0.071c0.926,1.094,1.852,2.188,2.778,3.281
			c-0.213,0.517-0.427,1.032-0.641,1.548c-1.16,0.295-2.312,0.771-3.483,0.826C48.483,159.767,47.623,159.24,46.775,158.967z"/>
		<path fill-rule="evenodd" clip-rule="evenodd" fill="#FFFFFF" d="M54.271,112.511c0.761-0.256,1.522-0.513,2.283-0.77
			c1.284,5.784,0.596,6.742-4.223,5.313C52.988,115.515,53.629,114.012,54.271,112.511z"/>
		<path fill-rule="evenodd" clip-rule="evenodd" fill="#FFFFFF" d="M329.528,111.729c0.302,0.342,0.604,0.682,0.905,1.023
			c0.923,1.306,1.845,2.612,3.052,4.32c-1.951,0.43-3.32,0.73-4.689,1.032c-0.452-0.016-0.903-0.032-1.354-0.048
			c-0.047-0.884-0.095-1.767-0.142-2.65C328.043,114.181,328.786,112.955,329.528,111.729z"/>
		<path fill-rule="evenodd" clip-rule="evenodd" d="M72.275,87.731c0.629,0.252,1.258,0.504,1.91,0.765
			c-1.416,2.274-2.667,4.285-3.918,6.294c-0.381-0.204-0.763-0.409-1.145-0.613c0.128-1.305,0.255-2.611,0.383-3.917
			C70.428,89.417,71.352,88.574,72.275,87.731z"/>
		<path fill-rule="evenodd" clip-rule="evenodd" fill="#FFFFFF" d="M338.075,131.158c0.572-1.443,1.146-2.885,1.877-4.723
			c-0.217-0.305-0.807-1.141-1.398-1.976l-0.074,0.114c2.029,0.399,4.061,0.798,6.09,1.197c0.017,0.66,0.032,1.319,0.048,1.979
			C342.437,128.886,340.256,130.021,338.075,131.158z"/>
		<path fill-rule="evenodd" clip-rule="evenodd" d="M344.569,125.771c-2.029-0.399-4.061-0.798-6.09-1.197
			c0.145-1.072,0.288-2.145,0.596-4.425c1.404,1.25,2.249,1.995,3.087,2.75c0.525,0.474,1.039,0.962,1.558,1.444
			C344.003,124.818,344.287,125.294,344.569,125.771z"/>
		<path fill-rule="evenodd" clip-rule="evenodd" d="M338.075,131.158c2.181-1.136,4.361-2.271,6.542-3.408
			c-0.019,0.757-0.036,1.515-0.054,2.271c-1.079,0.702-2.146,1.425-3.241,2.104c-1.587,0.984-3.14,1.692-3.967-0.864
			C337.597,131.237,337.837,131.202,338.075,131.158z"/>
		<path fill-rule="evenodd" clip-rule="evenodd" d="M327.441,118.058c0.451,0.015,0.902,0.031,1.354,0.047l-0.036,0.05
			c-0.293,0.286-0.586,0.573-0.879,0.861c-0.113-0.351-0.227-0.7-0.341-1.048C327.539,117.968,327.441,118.058,327.441,118.058z"/>
		<path fill-rule="evenodd" clip-rule="evenodd" d="M190.395,289.856c-0.508,4.845-0.957,9.12-1.458,13.889
			c-1.944,0-4.828,0-7.227,0c1.81-6.089,3.582-12.224,5.482-18.317c0.438-1.404,1.817-2.646,1.883-4.004
			c0.11-2.27-0.49-4.573-0.862-7.4c3.819-0.269,8.474-1.168,13.101,0.624c1.413,0.547,3.222,0.934,4.036,2.009
			c3.32,4.391,2.181,8.14-2.951,10.794c-3.686,1.905-4.02,2.731-1.98,7.18c1.15,2.506,2.807,4.775,4.136,7.207
			c0.45,0.822,0.593,1.813,0.877,2.727c-1.035,0.17-2.227,0.757-3.079,0.437c-4.284-1.606-5.473-5.505-6.222-9.446
			C195.586,292.683,194.476,290.681,190.395,289.856z M191.889,287.354c3.858-0.252,7.311,0.521,8.754-3.082
			c0.615-1.535,0.765-4.426-0.125-5.137c-1.584-1.268-4.12-1.347-6.259-1.924C193.352,281.094,192.69,283.925,191.889,287.354z"/>
		<path fill-rule="evenodd" clip-rule="evenodd" fill="#FFFFFF" d="M329.528,111.729c-0.742,1.226-1.485,2.451-2.228,3.678
			c-0.959-0.527-1.918-1.054-3.634-1.997c1.403-0.545,2.169-0.844,2.936-1.142c-0.198-0.279-0.396-0.559-0.592-0.837
			c-0.796-0.129-1.591-0.258-2.386-0.386c-0.539-0.54-1.077-1.079-1.615-1.619c0.017-1.236,0.033-2.472,0.05-3.708
			c2.16-0.725,4.319-1.449,6.478-2.173C328.867,106.274,329.197,109.002,329.528,111.729z"/>
		<path fill-rule="evenodd" clip-rule="evenodd" d="M315.126,90.736c0.722,2.598-0.431,4.519-3.628,4.419
			c-1.411-0.043-2.788-1.197-4.181-1.848c0.612-1.208,1.163-2.455,1.86-3.612c0.388-0.645,1.012-1.149,1.542-1.706
			c0.761-0.797,1.531-1.583,2.299-2.374c0.702,0.928,1.507,1.8,2.062,2.809C315.342,88.901,315.126,89.64,315.126,90.736z"/>
		<path fill-rule="evenodd" clip-rule="evenodd" d="M78.963,94.869c-0.113-1.877-0.227-3.754-0.341-5.631l-0.04,0.046
			c2.917,0.343,4.356-1.223,4.977-3.849l-0.045,0.104c1.061,0.213,2.121,0.425,4.349,0.872c-2.141,1.689-3.511,2.77-5.24,4.133
			c0.385,0.915,0.918,2.182,1.625,3.861C82.309,94.575,80.636,94.722,78.963,94.869z"/>
		<path fill-rule="evenodd" clip-rule="evenodd" d="M67.947,110.336c-2.37-1.639-2.358-3.028-0.018-4.312
			c0.975-0.535,1.871-1.212,2.803-1.825c0.523,0.856,1.093,1.688,1.559,2.575c0.692,1.317,1.311,2.672,1.938,3.962
			c-0.939,0.253-2.288,0.616-3.635,0.979C69.711,111.257,68.829,110.797,67.947,110.336z"/>
		<path fill-rule="evenodd" clip-rule="evenodd" d="M67.947,110.336c0.882,0.461,1.764,0.921,2.646,1.381
			c1.126,2.895-1.104,4.593-2.363,6.637c0.004,0.001-0.161-0.12-0.161-0.12c-0.404-0.737-0.717-2.036-1.228-2.118
			c-2.64-0.428-2.735-2.444-3.102-4.356C65.143,111.286,66.544,110.811,67.947,110.336z"/>
		<path fill-rule="evenodd" clip-rule="evenodd" d="M68.069,118.234c0,0,0.165,0.122,0.161,0.12c0.421,2.05,0.847,4.103,1.317,6.374
			c-2.964-0.96-5.211-1.689-7.458-2.417C62.695,118.376,64.217,117.339,68.069,118.234z"/>
		<path fill-rule="evenodd" clip-rule="evenodd" d="M101.403,93.248c-2.359,1.32-3.586,2.005-5.308,2.969
			c-0.935-1.496-2.094-2.984-2.753-4.668c-0.158-0.405,1.724-2.236,2.025-2.09C97.29,90.391,99.033,91.694,101.403,93.248z"/>
		<path fill-rule="evenodd" clip-rule="evenodd" d="M323.625,111.045c0.795,0.128,1.59,0.257,2.386,0.386
			c0.196,0.279,0.394,0.558,0.592,0.837c-0.767,0.298-1.532,0.596-2.936,1.142c1.716,0.943,2.675,1.47,3.634,1.997
			c0.047,0.883,0.095,1.766,0.142,2.65c-0.001,0.001,0.097-0.089,0.098-0.09c-1.084,0.441-2.168,0.884-3.253,1.327
			C323.185,116.616,320.916,114.031,323.625,111.045z"/>
		<path fill-rule="evenodd" clip-rule="evenodd" d="M312.945,112.294c1.81,1.311,3.62,2.622,5.43,3.933
			c-0.146,0.438-0.292,0.875-0.438,1.312c-1.692,0.374-3.384,0.749-5.075,1.123c0.08-1.727,0.159-3.455,0.239-5.182
			c-0.001-0.273-0.003-0.546-0.003-0.82C313.046,112.538,312.995,112.416,312.945,112.294z"/>
		<path fill-rule="evenodd" clip-rule="evenodd" d="M322.06,105.719c-0.017,1.236-0.033,2.472-0.05,3.708c-2.105,0-4.21,0-6.309,0
			C315.646,106.579,318.746,104.81,322.06,105.719z"/>
		<path fill-rule="evenodd" clip-rule="evenodd" d="M69.038,99.009c2.34-1.063,4.68-2.125,7.02-3.188
			c-1.184,1.321-2.565,2.517-3.492,3.999c-0.84,1.343-1.185,2.998-1.748,4.515C68.928,102.994,66.084,101.97,69.038,99.009z"/>
		<path fill-rule="evenodd" clip-rule="evenodd" fill="#FFFFFF" d="M312.265,110.95c0.227,0.448,0.453,0.896,0.681,1.344
			c0.05,0.122,0.101,0.244,0.153,0.365c-2.501,0.003-5.001,0.006-7.501,0.01c0.483-1.057,0.967-2.112,1.45-3.167
			C308.786,109.984,310.525,110.468,312.265,110.95z"/>
		<path fill-rule="evenodd" clip-rule="evenodd" d="M305.598,112.669c2.5-0.004,5-0.007,7.501-0.01c0,0.274,0.002,0.547,0.003,0.82
			c-1.432,0.671-2.809,1.53-4.31,1.97C306.498,116.121,305.151,115.331,305.598,112.669z"/>
		<path fill-rule="evenodd" clip-rule="evenodd" d="M312.265,110.95c-1.739-0.482-3.479-0.966-5.217-1.449
			c0.076-1.067,0.152-2.134,0.31-4.32C309.385,107.565,310.825,109.258,312.265,110.95z"/>
		<path fill-rule="evenodd" clip-rule="evenodd" d="M79.068,87.77c-0.07-0.253-0.14-0.505-0.21-0.757
			c1.241-1.474,2.26-3.65,4.657-1.474c0,0,0.045-0.104,0.045-0.104c-1.53,0.755-3.06,1.511-4.59,2.267L79.068,87.77z"/>
		<path fill-rule="evenodd" clip-rule="evenodd" d="M312.014,100.908c-0.033,0.529-0.065,1.058-0.099,1.586
			c-0.317-0.029-0.634-0.059-0.951-0.088c0.05-0.521,0.101-1.042,0.15-1.562C311.414,100.866,311.714,100.887,312.014,100.908z"/>
		<path fill-rule="evenodd" clip-rule="evenodd" d="M304.677,94.489c0.351,0.368,0.713,0.582,0.749,0.84
			c0.029,0.215-0.324,0.675-0.513,0.678c-0.26,0.004-0.684-0.283-0.74-0.516C304.117,95.261,304.432,94.941,304.677,94.489z"/>
		<path fill-rule="evenodd" clip-rule="evenodd" d="M315.244,138.525c1.225,1.321,2.32,2.806,3.72,3.902
			c0.921,0.722,2.28,0.885,3.443,1.298c0.218-0.289,0.436-0.579,0.653-0.868c0.183,1.725,0.365,3.448,0.585,5.514
			c1.688-0.344,2.981-0.608,4.522-0.922c0.461,0.848,0.957,1.759,1.451,2.67c-2.471-1.552-4.195-0.07-5.402,0.75
			c0.645,1.835,0.984,3.203,1.604,4.43c0.433,0.858,1.248,1.525,1.893,2.277c0,0,0.103,0.14,0.102,0.139
			c-2.682,0.313-5.357,0.708-8.048,0.899c-1.062,0.076-2.156-0.301-3.209-0.465c4.104-1.705,2.392-5.096,2.528-8.733
			c-1.783,2.432-3.167,4.319-4.551,6.207c-0.323-0.978-0.771-1.935-0.943-2.939c-0.279-1.625-0.377-3.28-0.552-4.923
			c0.844-0.117,2.058,0.07,2.458-0.414c0.953-1.152,1.522-2.623,2.246-3.964c-0.797-0.332-1.593-0.663-2.389-0.994
			C315.318,141.101,315.281,139.813,315.244,138.525z"/>
		<path fill-rule="evenodd" clip-rule="evenodd" d="M73.026,156.503c0.962-0.726,2.779-1.524,2.724-2.163
			c-0.153-1.781-1.081-3.496-1.466-4.575c-2.703,0.453-4.392,0.838-6.091,0.896c-0.224,0.007-0.503-1.665-0.638-2.14
			c4.034-0.258,7.544-0.484,10.611-0.68c-0.259,5.706-0.496,10.909-0.78,17.152c-2.145-1.267-3.22-1.902-4.295-2.538
			C73.07,160.47,73.048,158.487,73.026,156.503z"/>
		<path fill-rule="evenodd" clip-rule="evenodd" d="M73.026,156.503c0.022,1.984,0.043,3.967,0.065,5.951
			c-1.122,0.536-2.244,1.072-3.416,1.632c-1.149-0.551-2.466-1.184-4.241-2.036c0.627-1.146,1.282-2.34,1.873-3.421
			c-1.615-1.069-3.335-2.208-5.055-3.347C66.566,153.364,69.902,154.398,73.026,156.503z"/>
		<path fill-rule="evenodd" clip-rule="evenodd" d="M53.44,157.354c-0.926-1.094-1.852-2.188-2.778-3.281
			c-0.508-1.357-1.016-2.714-1.629-4.355c4.356-1.293,7.635,0.405,10.588,3.109c-2.193,1.609-4.202,3.084-6.208,4.556
			C53.415,157.381,53.44,157.354,53.44,157.354z"/>
		<path fill-rule="evenodd" clip-rule="evenodd" d="M88.811,149.17c0.204-0.804,0.407-1.608,0.713-2.817
			c2.194,1.823,4.093,3.403,5.654,4.701c-2.261,1.701-4.422,3.327-6.583,4.953c0.205,0.416,0.41,0.832,0.615,1.249
			c-0.133-1.125-0.265-2.251-0.398-3.378c1.194-0.698,2.388-1.396,3.582-2.094C91.199,150.912,90.005,150.041,88.811,149.17z"/>
		<path fill-rule="evenodd" clip-rule="evenodd" fill="#FFFFFF" d="M314.535,155.623c1.384-1.888,2.768-3.775,4.551-6.207
			c-0.137,3.637,1.575,7.028-2.528,8.733C315.866,157.302,315.2,156.462,314.535,155.623z"/>
		<path fill-rule="evenodd" clip-rule="evenodd" d="M299.963,147.6c0.158-1.662,0.313-3.298,0.469-4.934
			c0.374-0.035,0.747-0.07,1.12-0.105c0.483,0.995,0.967,1.989,1.45,2.986c1.531,0.65,4.991-0.832,3.645,2.849
			C304.512,148.141,302.502,147.902,299.963,147.6z"/>
		<path fill-rule="evenodd" clip-rule="evenodd" fill="#FFFFFF" d="M315.355,142.389c0.796,0.331,1.592,0.662,2.389,0.994
			c-0.724,1.341-1.293,2.812-2.246,3.964c-0.4,0.484-1.614,0.296-2.458,0.414C312.27,145.306,310.455,142.4,315.355,142.389z"/>
		<path fill-rule="evenodd" clip-rule="evenodd" d="M306.944,158.984c0.414,0.983,0.827,1.966,1.277,3.034
			c-1.065,1.122-2.155,2.268-3.205,3.374c-1.298-0.583-2.496-1.121-3.585-1.61c1.814-1.516,3.714-3.104,5.613-4.691L306.944,158.984
			z"/>
		<path fill-rule="evenodd" clip-rule="evenodd" d="M318.146,164.68c0.479,1.454,0.846,2.564,1.225,3.713
			c-1.656-0.167-3.231-0.325-4.807-0.483c-0.087,0.292-0.174,0.583-0.261,0.875c-0.85-0.646-1.699-1.292-3.026-2.301
			C313.685,165.852,315.783,165.301,318.146,164.68z"/>
		<path fill-rule="evenodd" clip-rule="evenodd" d="M291.057,160.708c1.82,0.086,3.641,0.173,5.461,0.258
			c0.11,0.406,0.222,0.811,0.332,1.217c-1.248,0.735-2.453,1.924-3.764,2.053c-0.95,0.095-2.04-1.212-3.069-1.894
			C290.363,161.798,290.71,161.253,291.057,160.708z"/>
		<path fill-rule="evenodd" clip-rule="evenodd" fill="#FFFFFF" d="M88.811,149.17c1.194,0.871,2.389,1.742,3.583,2.612
			c-1.194,0.698-2.388,1.396-3.582,2.094C87.163,152.308,87.156,150.739,88.811,149.17z"/>
		<path fill-rule="evenodd" clip-rule="evenodd" d="M307.045,159.09c0.765-1.555,1.529-3.111,2.421-4.924
			c2.126,0.062,3.191,0.935,1.264,2.96c-0.908,0.955-2.5,1.259-3.784,1.857C306.944,158.984,307.045,159.09,307.045,159.09z"/>
		<path fill-rule="evenodd" clip-rule="evenodd" d="M53.44,157.354c0,0-0.025,0.027-0.027,0.028c0.3,0.039,0.603,0.076,0.904,0.114
			c0.507,0.3,1.014,0.602,1.521,0.902c-0.083,1.39-0.167,2.779-0.313,5.189c-1.269-2.18-1.998-3.431-2.726-4.684
			C53.013,158.386,53.227,157.87,53.44,157.354z"/>
		<path fill-rule="evenodd" clip-rule="evenodd" fill="#FFFFFF" d="M55.838,158.397c-0.507-0.3-1.014-0.602-1.521-0.902
			C54.824,157.796,55.332,158.097,55.838,158.397z"/>
		<path fill-rule="evenodd" clip-rule="evenodd" fill="#FFFFFF" d="M327.713,157.576c-0.645-0.752-1.46-1.419-1.893-2.277
			c-0.619-1.227-0.959-2.595-1.604-4.43c1.207-0.82,2.932-2.302,5.402-0.75c0.002,0.001-0.167-0.125-0.167-0.127
			C328.872,152.519,328.292,155.047,327.713,157.576z"/>
		<path fill-rule="evenodd" clip-rule="evenodd" d="M78.583,89.283l0.04-0.046c-0.298-0.226-0.597-0.453-0.896-0.68
			c0.447-0.262,0.894-0.525,1.341-0.788l-0.098-0.069C78.841,88.228,78.712,88.755,78.583,89.283z"/>
		<path fill-rule="evenodd" clip-rule="evenodd" fill="#FFFFFF" d="M191.889,287.354c0.802-3.429,1.463-6.26,2.371-10.143
			c2.139,0.577,4.674,0.656,6.259,1.924c0.889,0.711,0.739,3.602,0.125,5.137C199.199,287.875,195.747,287.102,191.889,287.354z"/>
		<path fill-rule="evenodd" clip-rule="evenodd" fill="#FFFFFF" d="M78.583,89.283c0.129-0.528,0.258-1.055,0.387-1.583
			c1.53-0.756,3.06-1.511,4.59-2.267C82.939,88.061,81.5,89.626,78.583,89.283z"/>
	</g>
</g>
</svg>
