<?xml version="1.0" encoding="utf-8"?>
<!-- Generator: Adobe Illustrator 16.0.0, SVG Export Plug-In . SVG Version: 6.00 Build 0)  -->
<!DOCTYPE svg PUBLIC "-//W3C//DTD SVG 1.1//EN" "http://www.w3.org/Graphics/SVG/1.1/DTD/svg11.dtd">
<svg version="1.1" id="Layer_1" xmlns="http://www.w3.org/2000/svg" xmlns:xlink="http://www.w3.org/1999/xlink" x="0px" y="0px"
	 width="467.315px" height="450.813px" viewBox="0 0 467.315 450.813" enable-background="new 0 0 467.315 450.813"
	 xml:space="preserve">
<g>
	<g>
		<path fill-rule="evenodd" clip-rule="evenodd" fill="#FFFFFF" d="M468.065,451.563c-155.772,0-311.544,0-467.315,0
			c0-150.271,0-300.542,0-450.813c155.771,0,311.543,0,467.315,0C468.065,151.021,468.065,301.292,468.065,451.563z
			 M207.172,387.109c0.008,0.146,0.016,0.294,0.024,0.441c14.688-0.705,29.375-1.407,44.063-2.129
			c0.742-0.036,1.477-0.234,2.212-0.37c5.923-1.089,11.833-2.258,17.772-3.248c4.899-0.818,9.879-1.205,14.742-2.185
			c6.201-1.248,12.283-3.086,18.484-4.328c6.409-1.284,12.888-2.249,19.36-3.189c6.656-0.967,13.478-0.979,19.798-3.762
			c1.454-0.641,3.004-1.152,4.562-1.453c8.092-1.561,16.216-2.96,24.291-4.594c1.848-0.375,3.489-1.805,5.336-2.142
			c4.351-0.795,8.796-1.063,13.151-1.84c6.122-1.093,6.555-1.744,6.389-8.072c-0.13-4.99-0.345-9.978-0.524-14.966
			c-0.672-18.748-1.085-37.51-2.105-56.239c-0.732-13.44-1.841-26.894-3.603-40.233c-1.356-10.269-3.883-20.392-6.1-30.535
			c-1.164-5.328-2.303-10.747-4.309-15.784c-2.749-6.903-6.258-13.508-9.542-20.192c-2.891-5.881-5.688-11.829-8.969-17.491
			c-2.227-3.843-5.14-7.305-7.893-10.823c-2.342-2.993-4.929-5.794-7.343-8.733c-3.587-4.364-7.097-8.79-10.688-13.152
			c-0.74-0.899-1.714-1.604-2.537-2.44c-4.501-4.576-8.865-9.296-13.521-13.709c-3.893-3.69-8.145-6.998-12.192-10.527
			c-3.534-3.083-6.847-6.441-10.541-9.313c-5.362-4.168-11.033-7.936-16.472-12.01c-4.787-3.585-9.367-7.447-14.17-11.011
			c-2.85-2.114-6.033-3.774-8.927-5.834c-6.195-4.413-12.277-8.984-18.48-13.387c-0.55-0.39-1.8-0.317-2.447,0.042
			c-4.155,2.298-7.843,5.117-11.427,8.355c-7.039,6.357-14.847,11.862-22.363,17.687c-1.054,0.817-2.418,1.273-3.365,2.182
			c-5.828,5.586-11.524,11.312-17.368,16.881c-5.971,5.69-12.156,11.157-18.065,16.91c-4.042,3.935-7.98,8.016-11.589,12.345
			c-4.759,5.71-9.302,11.617-13.656,17.642c-4.534,6.272-8.797,12.743-13.039,19.219c-1.257,1.921-1.997,4.174-3.046,6.238
			c-3.207,6.305-6.685,12.484-9.6,18.92c-2.236,4.936-3.825,10.169-5.62,15.299c-3.364,9.61-7.169,19.104-9.862,28.902
			c-2.845,10.354-4.833,20.967-6.766,31.545c-1.407,7.694-2.183,15.51-3.121,23.284c-1.867,15.477-3.74,30.954-5.438,46.449
			c-0.991,9.05-1.635,18.137-2.459,27.205c-0.227,2.495,0.799,3.784,3.236,4.639c4.695,1.646,10.064,1.808,13.75,5.891
			c0.331,0.367,1.211,0.187,1.792,0.388c3.686,1.277,7.862,1.89,10.899,4.079c3.285,2.368,6.976,2.709,10.416,4.106
			c5.377,2.183,11.634,1.84,16.438,5.746c0.631,0.514,1.607,0.676,2.455,0.838c8.016,1.53,16.052,2.956,24.048,4.576
			c2.133,0.432,4.102,1.838,6.231,2.092c6.545,0.78,13.122,1.421,19.704,1.73C195.167,387.331,201.175,387.109,207.172,387.109z
			 M248.185,40.22c5.686,0,11.831,0.242,17.938-0.135c2.041-0.126,3.611-2.012,4.327-4.397c1.085-3.616,0.31-6.538-2.877-9.24
			c1.233-1.01,2.208-1.841,3.217-2.628c3.141-2.452,2.593-9.059-0.939-10.876c-4.783-2.461-9.852-2.696-14.829-2.103
			C255.896,21.596,252.617,31.01,248.185,40.22z M45.098,373.218c-0.305-0.169-0.611-0.337-0.917-0.505
			c-2.344,0.91-4.752,1.687-7.02,2.759c-4.732,2.236-10.373-1.021-10.342-6.257c0.032-5.591,0.541-10.66,6.119-14.494
			c2.325-1.598,4.085-2.718,6.835-3.019c4.288-0.468,4.392,2.457,5.095,5.257c0.171,0.679,1.362,1.549,2.051,1.521
			c0.649-0.026,1.623-1.026,1.81-1.763c0.532-2.092,0.734-4.267,1.03-6.173c-3.3-0.606-6.363-1.323-9.466-1.669
			c-1.395-0.155-2.871,0.439-4.312,0.678c-4.595,0.759-7.667,3.353-10.647,6.985c-2.446,2.982-3.935,5.868-4.154,9.513
			c-0.224,3.705-0.008,6.775,3.621,9.69c4.775,3.837,10.471,5.984,15.93,2.983C42.624,377.684,43.667,375.098,45.098,373.218z
			 M434.019,371.577c-0.357,0.656-0.573,1.075-0.809,1.482c-3.646,6.291-3.564,6.457,3.389,6.952
			c0.124,0.009,0.247,0.048,0.371,0.048c2.009,0.012,3.035-0.434,2.213-2.894c-0.644-1.924-0.86-4.115-0.726-6.152
			c0.448-6.781,1.141-13.547,1.745-20.382c-2.9-0.622-3.094-0.505-4.418,2.222c-0.64,1.319-1.27,2.697-2.188,3.815
			c-3.185,3.881-6.504,7.65-9.749,11.481c-1.929,2.276-3.952,4.492-5.656,6.93c-0.724,1.037-1.125,2.64-0.906,3.847
			c0.104,0.572,2.178,1.353,3.051,1.073c1.013-0.324,2.316-1.649,2.406-2.639C423.28,371.435,427.518,369.008,434.019,371.577z
			 M213.697,411.674c0.367,2.437,1.307,4.559,0.835,6.299c-1.579,5.825-3.666,11.512-5.549,17.255
			c-1.394,4.25,0.104,6.299,4.626,6.598c10.137,0.672,11.115-3.223,13.938-10.603c1.116-2.92,1.316-6.769-2.504-8.431
			c-2.023-0.88-4.502-0.712-7.322-1.092c0.163-0.851,0.582-2.608,0.822-4.39c0.279-2.081,0.402-4.183,0.594-6.276
			C217.166,411.267,215.194,411.498,213.697,411.674z M92.689,170.509c0.436,0.621,0.994,1.25,1.364,1.976
			c1.27,2.487,3.569,2.089,4.99,0.961c1.202-0.955,3.272-2.639,1.186-5.015c-0.558-0.636-0.436-2.154-0.19-3.161
			c0.916-3.75,2.013-7.456,3.138-11.526c-4.048,0-7.886-0.136-11.705,0.079c-1.217,0.069-3.131,0.805-3.442,1.688
			c-1.51,4.284-5.812,7-6.04,12.089c-0.232,5.196,1.799,7.621,6.79,6.29C90.159,173.522,91.19,171.856,92.689,170.509z
			 M411.285,188.583c-1.373,0.472-2.72,1.212-4.126,1.35c-1.97,0.193-3.984-0.063-5.979-0.125c0.366-3.462,0.205-7.11,1.336-10.3
			c0.506-1.429,3.604-1.938,5.887-3.04c0.335,2.026,0.511,3.091,0.676,4.088c4.108,0.854,6.186-0.661,4.83-3.639
			c-0.598-1.311-2.736-2.424-4.33-2.687c-5.264-0.868-9.526,2.129-12.136,8.027c-3.195,7.223-2.271,9.424,4.93,11.747
			C404.691,194.752,410.389,192.068,411.285,188.583z M151.069,62.082c3.662,0,6.822,0,10.438,0
			C156.804,56.303,154.339,56.3,151.069,62.082z"/>
		<path fill-rule="evenodd" clip-rule="evenodd" d="M207.172,387.109c-5.998,0-12.006,0.222-17.991-0.06
			c-6.583-0.31-13.159-0.95-19.704-1.73c-2.129-0.254-4.098-1.66-6.231-2.092c-7.997-1.62-16.033-3.046-24.048-4.576
			c-0.848-0.162-1.824-0.324-2.455-0.838c-4.804-3.906-11.061-3.563-16.438-5.746c-3.44-1.397-7.131-1.738-10.416-4.106
			c-3.037-2.189-7.214-2.802-10.899-4.079c-0.581-0.201-1.461-0.021-1.792-0.388c-3.686-4.083-9.054-4.244-13.75-5.891
			c-2.437-0.854-3.463-2.144-3.236-4.639c0.825-9.068,1.468-18.155,2.459-27.205c1.697-15.495,3.57-30.973,5.438-46.449
			c0.938-7.774,1.714-15.59,3.121-23.284c1.933-10.578,3.921-21.19,6.766-31.545c2.692-9.798,6.498-19.292,9.862-28.902
			c1.795-5.13,3.384-10.363,5.62-15.299c2.915-6.436,6.393-12.615,9.6-18.92c1.049-2.064,1.789-4.317,3.046-6.238
			c4.241-6.476,8.505-12.947,13.039-19.219c4.354-6.025,8.897-11.932,13.656-17.642c3.608-4.329,7.547-8.411,11.589-12.345
			c5.909-5.752,12.094-11.219,18.065-16.91c5.844-5.569,11.54-11.294,17.368-16.881c0.947-0.908,2.311-1.365,3.365-2.182
			c7.516-5.824,15.324-11.33,22.363-17.687c3.584-3.238,7.272-6.057,11.427-8.355c0.647-0.358,1.897-0.431,2.447-0.042
			c6.203,4.403,12.285,8.975,18.48,13.387c2.894,2.061,6.077,3.72,8.927,5.834c4.803,3.564,9.383,7.426,14.17,11.011
			c5.438,4.074,11.109,7.842,16.472,12.01c3.694,2.872,7.007,6.23,10.541,9.313c4.048,3.529,8.3,6.837,12.192,10.527
			c4.655,4.413,9.02,9.133,13.521,13.709c0.823,0.836,1.797,1.541,2.537,2.44c3.591,4.362,7.101,8.788,10.688,13.152
			c2.414,2.939,5.001,5.74,7.343,8.733c2.753,3.518,5.666,6.979,7.893,10.823c3.281,5.662,6.078,11.609,8.969,17.491
			c3.284,6.684,6.793,13.289,9.542,20.192c2.006,5.037,3.145,10.456,4.309,15.784c2.217,10.143,4.743,20.266,6.1,30.535
			c1.762,13.34,2.87,26.793,3.603,40.233c1.021,18.729,1.434,37.491,2.105,56.239c0.18,4.988,0.395,9.976,0.524,14.966
			c0.166,6.328-0.267,6.979-6.389,8.072c-4.355,0.777-8.801,1.045-13.151,1.84c-1.847,0.337-3.488,1.767-5.336,2.142
			c-8.075,1.634-16.199,3.033-24.291,4.594c-1.558,0.301-3.107,0.813-4.562,1.453c-6.32,2.782-13.142,2.795-19.798,3.762
			c-6.473,0.94-12.951,1.905-19.36,3.189c-6.201,1.242-12.283,3.08-18.484,4.328c-4.863,0.979-9.843,1.366-14.742,2.185
			c-5.939,0.99-11.85,2.159-17.772,3.248c-0.735,0.136-1.47,0.334-2.212,0.37c-14.688,0.722-29.375,1.424-44.063,2.129
			C207.188,387.403,207.181,387.256,207.172,387.109z M215.191,383.433c6.368-0.73,10.813-1.523,15.282-1.703
			c19.025-0.763,37.802-3.231,56.458-7.04c9.362-1.912,18.922-2.851,28.38-4.307c1.438-0.221,2.824-0.822,4.211-1.315
			c1.968-0.698,3.857-1.748,5.881-2.148c12.214-2.422,24.453-4.719,36.69-7.026c8.249-1.555,16.498-3.108,24.765-4.563
			c3.857-0.679,5.668-2.528,5.582-6.312c-0.39-17.208-0.699-34.419-1.258-51.621c-0.407-12.556-0.795-25.131-1.869-37.64
			c-0.857-9.979-2.566-19.9-4.223-29.792c-1.036-6.187-2.563-12.301-4.088-18.393c-0.892-3.564-2.543-6.954-3.273-10.541
			c-1.789-8.804-5.065-17.027-9.133-24.962c-1.906-3.718-4.455-7.131-6.121-10.941c-2.029-4.643-3.584-9.39-7.511-13.004
			c-1.719-1.583-2.396-4.241-3.939-6.082c-3.336-3.98-6.986-7.696-10.399-11.614c-5.316-6.105-10.211-12.617-15.896-18.35
			c-6.238-6.291-13.138-11.932-19.813-17.783c-4.406-3.862-8.839-7.702-13.422-11.348c-2.793-2.222-5.916-4.024-8.851-6.075
			c-2.646-1.848-6.09-3.262-7.623-5.807c-1.717-2.849-3.974-3.877-6.57-5.13c-1.801-0.87-3.349-2.279-4.973-3.495
			c-4.883-3.652-9.72-7.364-14.63-10.977c-2.394-1.761-5.442-2.924-7.229-5.137c-2.039-2.526-4.528-2.337-6.209-1.268
			c-3.264,2.079-5.945,5.064-8.897,7.641c-4.114,3.592-8.146,7.289-12.411,10.693c-5.264,4.204-10.906,7.947-16.058,12.276
			c-4.773,4.01-9.065,8.588-13.666,12.81c-3.573,3.279-7.298,6.392-10.942,9.593c-0.346,0.304-0.584,0.728-0.894,1.078
			c-3.515,3.966-7.014,7.945-10.556,11.887c-2.869,3.192-5.917,6.232-8.66,9.528c-4.385,5.267-8.743,10.572-12.808,16.085
			c-3.121,4.234-5.762,8.822-8.642,13.236c-0.688,1.053-1.656,1.955-2.185,3.072c-1.47,3.102-2.67,6.332-4.169,9.417
			c-3.677,7.567-7.808,14.934-11.092,22.665c-2.494,5.87-3.896,12.197-5.922,18.275c-0.938,2.813-2.567,5.427-3.261,8.281
			c-2.877,11.839-5.853,23.672-8.148,35.63c-2.222,11.574-3.848,23.274-5.38,34.966c-1.54,11.741-2.709,23.534-3.913,35.316
			c-0.988,9.677-1.812,19.37-2.658,29.061c-0.224,2.572,1.029,4.19,3.524,4.946c4.795,1.453,9.626,2.818,14.326,4.539
			c2.351,0.861,4.349,2.659,6.68,3.607c2.732,1.111,5.69,1.652,8.483,2.632c4.152,1.456,8.16,3.384,12.383,4.559
			c6.091,1.692,12.959,1.708,18.323,4.608c6.191,3.348,12.655,3.673,18.978,4.359C184.186,381.598,200.637,382.384,215.191,383.433z
			"/>
		<path fill-rule="evenodd" clip-rule="evenodd" d="M248.185,40.22c4.433-9.21,7.711-18.624,6.836-29.38
			c4.978-0.593,10.046-0.358,14.829,2.103c3.532,1.818,4.08,8.425,0.939,10.876c-1.009,0.788-1.983,1.619-3.217,2.628
			c3.187,2.702,3.962,5.624,2.877,9.24c-0.716,2.385-2.286,4.271-4.327,4.397C260.016,40.462,253.87,40.22,248.185,40.22z
			 M254.339,38.993c2.513,0,3.631,0.069,4.738-0.012c4.474-0.325,7.558-4.592,6.268-8.851c-0.272-0.9-1.23-2.147-1.988-2.235
			c-1.897-0.219-5.107-0.513-5.571,0.378C256.196,31.327,255.563,34.877,254.339,38.993z M259.078,23.526
			c0.311,0.38,0.62,0.76,0.931,1.141c2.304-0.727,4.802-1.127,6.819-2.332c0.866-0.516,1.413-3.054,0.9-4.053
			c-0.815-1.584-2.544-2.81-4.132-3.788c-0.292-0.179-2.145,1.367-2.588,2.41C260.114,19.004,259.693,21.307,259.078,23.526z"/>
		<path fill-rule="evenodd" clip-rule="evenodd" d="M45.098,373.218c-1.431,1.88-2.475,4.466-4.367,5.507
			c-5.459,3.001-11.155,0.854-15.93-2.983c-3.628-2.915-3.844-5.985-3.621-9.69c0.22-3.645,1.708-6.53,4.154-9.513
			c2.98-3.633,6.052-6.227,10.647-6.985c1.441-0.238,2.917-0.833,4.312-0.678c3.104,0.346,6.166,1.063,9.466,1.669
			c-0.296,1.906-0.498,4.081-1.03,6.173c-0.187,0.736-1.161,1.736-1.81,1.763c-0.689,0.028-1.88-0.842-2.051-1.521
			c-0.704-2.8-0.807-5.725-5.095-5.257c-2.75,0.301-4.511,1.421-6.835,3.019c-5.578,3.834-6.086,8.903-6.119,14.494
			c-0.03,5.236,5.61,8.493,10.342,6.257c2.268-1.072,4.675-1.849,7.02-2.759C44.487,372.881,44.793,373.049,45.098,373.218z"/>
		<path fill-rule="evenodd" clip-rule="evenodd" d="M434.019,371.577c-6.501-2.569-10.738-0.143-11.276,5.784
			c-0.09,0.989-1.394,2.314-2.406,2.639c-0.873,0.279-2.946-0.501-3.051-1.073c-0.219-1.207,0.183-2.81,0.906-3.847
			c1.704-2.438,3.728-4.653,5.656-6.93c3.245-3.831,6.564-7.601,9.749-11.481c0.918-1.118,1.548-2.496,2.188-3.815
			c1.324-2.727,1.518-2.844,4.418-2.222c-0.604,6.835-1.297,13.601-1.745,20.382c-0.135,2.037,0.082,4.229,0.726,6.152
			c0.822,2.46-0.204,2.905-2.213,2.894c-0.124,0-0.247-0.039-0.371-0.048c-6.953-0.495-7.034-0.661-3.389-6.952
			C433.445,372.652,433.661,372.233,434.019,371.577z M434.021,366.748c0-2.512,0-4.518,0-6.523
			c-0.264-0.02-0.527-0.039-0.791-0.059c-1.308,1.975-2.614,3.949-4,6.04c0.638,0.27,0.957,0.508,1.285,0.522
			C431.616,366.778,432.72,366.748,434.021,366.748z"/>
		<path fill-rule="evenodd" clip-rule="evenodd" d="M213.697,411.674c1.497-0.176,3.468-0.407,5.44-0.64
			c-0.191,2.094-0.314,4.195-0.594,6.276c-0.24,1.781-0.659,3.539-0.822,4.39c2.82,0.38,5.299,0.212,7.322,1.092
			c3.821,1.662,3.621,5.511,2.504,8.431c-2.824,7.38-3.802,11.274-13.938,10.603c-4.522-0.299-6.021-2.348-4.626-6.598
			c1.883-5.743,3.971-11.43,5.549-17.255C215.004,416.232,214.064,414.11,213.697,411.674z M224.306,429.362
			c-0.007-3.415-2.349-4.987-5.465-3.671c-2.582,1.09-7.068,9.867-5.888,12.314c0.479,0.993,2.608,1.932,3.768,1.717
			C220.147,439.088,224.313,433.02,224.306,429.362z"/>
		<path fill-rule="evenodd" clip-rule="evenodd" d="M92.689,170.509c-1.499,1.347-2.53,3.013-3.909,3.381
			c-4.991,1.332-7.022-1.094-6.79-6.29c0.228-5.088,4.53-7.805,6.04-12.089c0.312-0.883,2.226-1.62,3.442-1.688
			c3.818-0.215,7.657-0.079,11.705-0.079c-1.125,4.071-2.222,7.776-3.138,11.526c-0.246,1.006-0.368,2.525,0.19,3.161
			c2.086,2.376,0.016,4.061-1.186,5.015c-1.421,1.128-3.721,1.526-4.99-0.961C93.683,171.759,93.125,171.13,92.689,170.509z
			 M87.316,168.715c7.329,0.331,10.918-5.778,8.013-13.205C90.963,155.285,86.256,162.869,87.316,168.715z"/>
		<path fill-rule="evenodd" clip-rule="evenodd" d="M411.285,188.583c-0.896,3.486-6.594,6.17-8.913,5.421
			c-7.201-2.322-8.125-4.523-4.93-11.747c2.609-5.898,6.872-8.895,12.136-8.027c1.594,0.263,3.732,1.376,4.33,2.687
			c1.355,2.978-0.722,4.493-4.83,3.639c-0.165-0.997-0.341-2.062-0.676-4.088c-2.283,1.102-5.381,1.611-5.887,3.04
			c-1.131,3.19-0.97,6.838-1.336,10.3c1.995,0.063,4.01,0.319,5.979,0.125C408.565,189.795,409.912,189.054,411.285,188.583z"/>
		<path fill-rule="evenodd" clip-rule="evenodd" d="M151.069,62.082c3.27-5.782,5.735-5.779,10.438,0
			C157.892,62.082,154.731,62.082,151.069,62.082z"/>
		<path fill-rule="evenodd" clip-rule="evenodd" fill="#FFFFFF" d="M215.191,383.433c-14.555-1.049-31.005-1.835-47.348-3.61
			c-6.322-0.687-12.786-1.012-18.978-4.359c-5.364-2.9-12.231-2.916-18.323-4.608c-4.223-1.175-8.231-3.103-12.383-4.559
			c-2.793-0.979-5.75-1.521-8.483-2.632c-2.331-0.948-4.329-2.746-6.68-3.607c-4.7-1.721-9.531-3.086-14.326-4.539
			c-2.495-0.756-3.748-2.374-3.524-4.946c0.846-9.69,1.669-19.384,2.658-29.061c1.204-11.782,2.373-23.575,3.913-35.316
			c1.532-11.691,3.159-23.392,5.38-34.966c2.296-11.958,5.271-23.791,8.148-35.63c0.694-2.854,2.323-5.469,3.261-8.281
			c2.026-6.078,3.428-12.406,5.922-18.275c3.284-7.73,7.415-15.098,11.092-22.665c1.5-3.085,2.7-6.316,4.169-9.417
			c0.529-1.118,1.498-2.02,2.185-3.072c2.88-4.414,5.521-9.002,8.642-13.236c4.065-5.514,8.423-10.818,12.808-16.085
			c2.743-3.295,5.791-6.335,8.66-9.528c3.542-3.942,7.042-7.921,10.556-11.887c0.31-0.35,0.548-0.774,0.894-1.078
			c3.645-3.201,7.37-6.314,10.942-9.593c4.601-4.222,8.893-8.8,13.666-12.81c5.152-4.329,10.794-8.072,16.058-12.276
			c4.264-3.405,8.297-7.102,12.411-10.693c2.952-2.577,5.634-5.562,8.897-7.641c1.681-1.07,4.17-1.259,6.209,1.268
			c1.786,2.213,4.835,3.376,7.229,5.137c4.91,3.613,9.747,7.325,14.63,10.977c1.624,1.216,3.172,2.625,4.973,3.495
			c2.597,1.253,4.854,2.282,6.57,5.13c1.533,2.545,4.978,3.959,7.623,5.807c2.935,2.05,6.058,3.853,8.851,6.075
			c4.583,3.646,9.016,7.485,13.422,11.348c6.675,5.851,13.574,11.492,19.813,17.783c5.686,5.732,10.58,12.245,15.896,18.35
			c3.413,3.918,7.063,7.634,10.399,11.614c1.543,1.841,2.221,4.499,3.939,6.082c3.927,3.615,5.481,8.361,7.511,13.004
			c1.666,3.81,4.215,7.223,6.121,10.941c4.067,7.935,7.344,16.158,9.133,24.962c0.73,3.587,2.382,6.977,3.273,10.541
			c1.524,6.092,3.052,12.206,4.088,18.393c1.656,9.892,3.365,19.813,4.223,29.792c1.074,12.509,1.462,25.084,1.869,37.64
			c0.559,17.202,0.868,34.413,1.258,51.621c0.086,3.783-1.725,5.633-5.582,6.312c-8.267,1.454-16.516,3.008-24.765,4.563
			c-12.237,2.308-24.477,4.604-36.69,7.026c-2.023,0.4-3.913,1.45-5.881,2.148c-1.387,0.493-2.773,1.095-4.211,1.315
			c-9.458,1.456-19.018,2.395-28.38,4.307c-18.655,3.809-37.433,6.277-56.458,7.04C226.004,381.909,221.559,382.702,215.191,383.433
			z"/>
		<path fill-rule="evenodd" clip-rule="evenodd" fill="#FFFFFF" d="M254.339,38.993c1.224-4.116,1.857-7.666,3.446-10.719
			c0.464-0.891,3.674-0.597,5.571-0.378c0.758,0.087,1.716,1.334,1.988,2.235c1.29,4.259-1.794,8.525-6.268,8.851
			C257.97,39.062,256.852,38.993,254.339,38.993z"/>
		<path fill-rule="evenodd" clip-rule="evenodd" fill="#FFFFFF" d="M259.078,23.526c0.615-2.219,1.036-4.521,1.931-6.622
			c0.443-1.043,2.296-2.589,2.588-2.41c1.588,0.979,3.316,2.204,4.132,3.788c0.513,0.999-0.034,3.537-0.9,4.053
			c-2.018,1.205-4.516,1.605-6.819,2.332C259.698,24.286,259.389,23.906,259.078,23.526z"/>
		<path fill-rule="evenodd" clip-rule="evenodd" fill="#FFFFFF" d="M434.021,366.748c-1.302,0-2.405,0.03-3.506-0.02
			c-0.328-0.015-0.647-0.253-1.285-0.522c1.386-2.091,2.692-4.065,4-6.04c0.264,0.02,0.527,0.039,0.791,0.059
			C434.021,362.23,434.021,364.236,434.021,366.748z"/>
		<path fill-rule="evenodd" clip-rule="evenodd" fill="#FFFFFF" d="M224.306,429.362c0.008,3.657-4.159,9.726-7.585,10.36
			c-1.16,0.215-3.289-0.724-3.768-1.717c-1.18-2.447,3.307-11.225,5.888-12.314C221.957,424.375,224.298,425.947,224.306,429.362z"
			/>
		<path fill-rule="evenodd" clip-rule="evenodd" fill="#FFFFFF" d="M87.316,168.715c-1.06-5.846,3.647-13.43,8.013-13.205
			C98.234,162.937,94.645,169.046,87.316,168.715z"/>
	</g>
</g>
</svg>
