<?xml version="1.0" encoding="utf-8"?>
<!-- Generator: Adobe Illustrator 16.0.0, SVG Export Plug-In . SVG Version: 6.00 Build 0)  -->
<!DOCTYPE svg PUBLIC "-//W3C//DTD SVG 1.1//EN" "http://www.w3.org/Graphics/SVG/1.1/DTD/svg11.dtd">
<svg version="1.1" id="Layer_1" xmlns="http://www.w3.org/2000/svg" xmlns:xlink="http://www.w3.org/1999/xlink" x="0px" y="0px"
	 width="517.572px" height="384.804px" viewBox="0 0 517.572 384.804" enable-background="new 0 0 517.572 384.804"
	 xml:space="preserve">
<g>
	<g>
		<path fill-rule="evenodd" clip-rule="evenodd" fill="#FFFFFF" d="M0.75,0.75c172.524,0,345.048,0,517.572,0
			c0,128.268,0,256.536,0,384.804c-172.524,0-345.048,0-517.572,0C0.75,257.286,0.75,129.018,0.75,0.75z M378.485,149.856
			c-1.395-1.652-2.876-2.707-3.365-4.106c-2.477-7.103-4.362-14.425-7.104-21.416c-2.434-6.205-5.775-12.048-8.613-18.099
			c-3.781-8.059-8.606-15.416-14.291-22.257c-4.068-4.896-7.645-10.228-11.95-14.894c-4.065-4.406-8.838-8.156-13.229-12.268
			c-6.671-6.247-13.992-11.586-21.977-16.02c-0.539-0.299-1.396-0.283-1.699-0.705c-3.951-5.48-10.948-5.891-16.143-9.597
			c-5.978-4.266-14.766-3.74-21.115-8.534c-0.426-0.321-1.221-0.125-1.832-0.234c-3.521-0.633-7.344-0.636-10.471-2.112
			c-3.123-1.473-8.25,0.987-9.438-4.477c-0.048-0.223-0.896-0.486-0.904-0.473c-1.47,2.666-3.128,0.047-4.648,0.071
			c-13.206,0.214-26.416,0.131-39.623,0.295c-2.831,0.034-5.683,0.561-8.472,1.125c-6.165,1.246-12.28,2.74-18.447,3.98
			c-4.388,0.884-9.167,0.516-12.417,4.584c-0.433,0.542-1.612,0.464-2.427,0.731c-6.36,2.078-12.904,3.063-18.609,7.578
			c-3.661,2.896-8.977,3.716-12.923,7.154c-3.536,3.081-9.613,2.691-11.795,8.042c-0.103,0.25-0.676,0.273-0.969,0.486
			c-5.033,3.649-10.563,6.794-14.961,11.096c-6.053,5.919-11.381,12.607-16.768,19.173C70.292,83.857,66.603,89,62.946,94.147
			c-2.521,3.547-4.923,7.205-7.057,10.995c-2.068,3.673-3.946,7.489-5.508,11.402c-2.226,5.575-4.074,11.301-6.114,16.951
			c-0.712,1.972-1.68,3.866-2.234,5.877c-0.743,2.697-1.113,5.495-1.794,8.212c-1.565,6.245-3.621,12.398-4.726,18.721
			c-1.045,5.979-1.358,12.116-1.59,18.199c-0.442,11.656,0.707,23.095,3.038,34.635c2.014,9.973,3.8,19.895,7.451,29.414
			c0.816,2.127,1.325,4.393,2.326,6.422c2.132,4.32,4.53,8.509,6.752,12.785c2.015,3.879,3.728,7.93,5.962,11.673
			c2.625,4.399,5.631,8.574,8.545,12.795c1.698,2.458,3.327,5.018,5.362,7.177c4.213,4.471,8.678,8.705,13.037,13.038
			c0.173,0.172,0.312,0.378,0.485,0.548c1.739,1.712,3.472,3.43,5.228,5.125c1.793,1.731,3.447,3.667,5.456,5.102
			c2.64,1.885,6.775,2.704,8.122,5.159c2.899,5.283,9.003,5.263,12.802,9.386c3.622,3.932,10.201,5.001,15.219,8.147
			c4.71,2.952,10.623,3.803,15.798,6.566c4.711,2.516,10.662,2.742,16.087,3.875c3.751,0.783,7.558,1.3,11.305,2.1
			c3.862,0.826,7.677,2.634,11.519,2.652c17.561,0.085,35.089,2.236,52.615-2.819c10.753-3.102,22.099-4.195,32.452-8.989
			c2.599-1.204,5.499-1.766,8.076-3.006c3.491-1.681,6.734-3.873,10.215-5.582c3.252-1.595,6.124-3.535,9.015-5.791
			c5.764-4.498,12.282-8.028,18.471-11.988c0.375-0.241,0.555-0.769,0.875-1.118c1.186-1.296,2.329-2.642,3.609-3.838
			c1.374-1.287,2.938-2.37,4.317-3.651c0.863-0.801,1.471-1.876,2.314-2.704c3.752-3.681,7.873-7.042,11.235-11.045
			c3.388-4.03,6.108-8.635,8.989-13.073c3.931-6.06,8.404-11.89,11.427-18.384c3.782-8.131,8.509-15.879,10.38-24.929
			c1.47-7.113,4.822-13.863,6.052-20.995c1.704-9.891,2.749-19.972,3.055-30.003c0.272-8.941-0.748-17.932-1.395-26.887
			c-0.249-3.446-0.143-7.415-1.833-10.126C376.469,153.254,376.524,151.58,378.485,149.856z M442.048,126.599
			c0-28.441,0-55.682,0-82.923c0.302-0.179,0.604-0.357,0.908-0.536c2.559,2.571,5.118,5.143,7.678,7.714
			c0.372-0.266,0.745-0.53,1.118-0.795c-3.592-10.394-7.185-20.787-10.777-31.181c-0.323-0.084-0.647-0.169-0.971-0.254
			c-3.296,10.416-6.591,20.832-10.046,31.751c5.114-0.498,4.003-7.106,9.167-6.696c0,2.489,0.027,4.828-0.006,7.166
			c-0.13,9.109-0.479,18.221-0.376,27.327c0.168,14.829,0.653,29.655,0.907,44.483c0.016,0.928-0.622,2.415-1.304,2.656
			c-0.697,0.247-2.035-0.51-2.722-1.198c-1.642-1.648-3.065-3.514-4.578-5.292c-0.356,0.187-0.713,0.374-1.069,0.561
			c1.427,4.664,2.796,9.346,4.294,13.988c1.422,4.402,3.53,8.663,4.335,13.165c0.939,5.249,0.466,5.323,5.866,4.478
			c0.709-0.111,1.523,0.128,2.148-0.133c0.841-0.353,1.546-1.034,2.309-1.573c-0.237-0.268-0.475-0.534-0.712-0.801
			c-4.361,1.189-5.343,0.35-4.888-4.321c0.107-1.098,0.365-2.224,0.786-3.24c0.864-2.081,2.076-4.033,2.804-6.154
			c1.387-4.047,2.579-8.164,3.746-12.281c0.233-0.821-0.009-1.777-0.031-2.67c-0.807,0.338-1.759,0.507-2.395,1.047
			C446.314,122.522,444.51,124.304,442.048,126.599z M484.681,102.845c0.438,0.41,0.874,0.819,1.311,1.229
			c1.87-0.888,3.799-1.688,5.521-2.805c0.164-0.106-1.021-2.174-1.458-3.375c-0.199-0.545-0.277-1.249-0.114-1.791
			c0.814-2.703,1.966-5.33,2.502-8.081c0.263-1.351-0.112-3.38-1.019-4.228c-0.701-0.657-2.848-0.33-4.044,0.225
			c-2.119,0.982-4.004,2.468-6.743,4.231c0.697-2.941,1.031-4.974,1.675-6.904c0.77-2.308,2.005-4.479,2.57-6.823
			c0.128-0.53-1.623-2.063-2.609-2.167c-1.159-0.121-2.429,0.814-3.65,1.291c0.408,0.205,0.818,0.41,1.227,0.614
			c-1.42,5.802-2.777,11.62-4.284,17.398c-0.84,3.221-2.024,6.353-2.819,9.583c-0.154,0.625,0.719,2.106,1.227,2.159
			c0.922,0.097,2.45-0.308,2.805-0.984c1.68-3.214,2.775-6.753,4.621-9.854c1.356-2.278,3.552-4.056,5.373-6.057
			c0.491,0.313,0.982,0.625,1.474,0.937C487.056,92.578,485.868,97.711,484.681,102.845z M466.22,148.375
			c-0.167,0.384-0.334,0.767-0.501,1.151c0.741,0.567,1.479,1.62,2.226,1.626c7.885,0.07,15.774-0.179,23.655,0.003
			c2.864,0.067,2.248-1.223,2.087-2.781C484.345,148.375,475.282,148.375,466.22,148.375z M407.357,151.38c0-0.027,0-0.055,0-0.082
			c1.12,0,2.31,0.226,3.334-0.088c0.582-0.178,1.288-1.287,1.213-1.885c-0.068-0.543-1.122-1.376-1.737-1.372
			c-6.864,0.045-13.729,0.194-20.589,0.438c-0.589,0.021-1.146,0.929-1.718,1.425c0.53,0.521,1.053,1.486,1.592,1.496
			C395.42,151.421,401.389,151.38,407.357,151.38z M436.749,150.084c-0.159-0.612-0.317-1.226-0.476-1.838
			c-5.611,0-11.225-0.066-16.833,0.059c-1.028,0.023-2.04,0.824-3.06,1.267c0.985,0.583,1.946,1.618,2.96,1.672
			c4.12,0.217,8.262,0.264,12.385,0.102C433.414,151.279,435.075,150.525,436.749,150.084z M465.184,148.461
			c-4.762,0-9.193-0.045-13.622,0.045c-0.711,0.015-1.408,0.634-2.112,0.975c0.345,0.585,0.673,1.668,1.038,1.681
			c4.614,0.163,9.234,0.173,13.854,0.213c0.103,0.001,0.207-0.111,0.607-0.341C465.012,150.345,465.093,149.459,465.184,148.461z
			 M362.664,17.236c-0.851-1.21-1.462-2.831-2.075-2.831c-4.46-0.007-8.919,0.313-13.668,0.544c0.23,1.106,0.418,2.006,0.477,2.287
			C352.253,17.236,356.748,17.236,362.664,17.236z M321.579,16.184c6.64,2.004,10.977,1.748,12.074-0.714
			C328.547,13.451,322.618,13.801,321.579,16.184z M388.233,15.204c0.048,0.458,0.097,0.917,0.146,1.375
			c3.078,0.541,6.156,1.081,10.173,1.787c-0.62-1.676-0.7-3.119-1.358-3.465C394.103,13.271,391.205,14.827,388.233,15.204z
			 M301.158,16.103c-1.059-0.559-1.967-1.155-2.963-1.48c-0.233-0.076-1.175,0.928-1.085,1.144c0.305,0.735,0.963,1.931,1.417,1.901
			c3.356-0.224,6.698-0.701,10.043-1.099c-0.075-0.504-0.15-1.009-0.226-1.514C305.736,14.052,303.251,14.369,301.158,16.103z
			 M411.819,16.25c-0.02-0.434-0.038-0.868-0.058-1.302c-1.621,0-3.245-0.062-4.862,0.026c-0.826,0.044-1.639,0.357-2.457,0.548
			c0.738,0.785,1.53,2.27,2.204,2.217C408.399,17.603,410.099,16.792,411.819,16.25z M474.594,17.74
			c2.536-0.421,4.301-0.714,6.603-1.097c0-0.358,0-1.531,0-2.239c-2.342,0-4.14,0-6.352,0
			C474.768,15.427,474.684,16.541,474.594,17.74z M285.048,14.493c0,0.429-0.117,1.822,0.018,1.847
			c1.916,0.354,3.867,0.628,5.808,0.615c0.276-0.002,0.542-1.623,0.803-2.462C289.353,14.493,287.577,14.493,285.048,14.493z
			 M387.347,151.365c-0.231-1.113-0.367-2.699-0.593-2.711c-2.131-0.121-4.278,0.003-6.408,0.194
			c-0.07,0.006-0.009,1.479-0.009,1.968C382.697,151.001,384.618,151.151,387.347,151.365z M420.122,16.151
			c-0.026-0.432-0.052-0.864-0.077-1.296c-1.482,0-2.966-0.035-4.447,0.014c-0.829,0.027-1.653,0.194-2.479,0.298
			c0.208,0.855,0.416,1.709,0.589,2.42C416.167,17.036,418.145,16.594,420.122,16.151z M318.316,16.103
			c-1.33-1.072-2.339-2.215-2.626-2.056c-0.938,0.52-1.703,1.456-2.303,2.381c-0.104,0.16,1.039,1.583,1.402,1.502
			C315.793,17.709,316.688,17,318.316,16.103z M487.572,68.213c-0.146,0.305-0.292,0.609-0.438,0.914
			c1.597,0.933,3.162,1.929,4.817,2.742c0.297,0.146,1.227-0.36,1.384-0.756c0.145-0.362-0.248-1.308-0.603-1.433
			C491.051,69.085,489.299,68.684,487.572,68.213z M387.009,14.596c-2.533,0.265-4.634,0.484-6.733,0.704
			c0.037,0.361,0.075,0.722,0.112,1.082C386.48,16.113,386.592,16.091,387.009,14.596z"/>
		<path fill-rule="evenodd" clip-rule="evenodd" d="M378.485,149.856c-1.961,1.724-2.017,3.398-0.198,6.317
			c1.69,2.712,1.584,6.68,1.833,10.126c0.646,8.955,1.667,17.945,1.395,26.887c-0.306,10.031-1.351,20.112-3.055,30.003
			c-1.229,7.132-4.582,13.882-6.052,20.995c-1.871,9.05-6.598,16.798-10.38,24.929c-3.022,6.494-7.496,12.324-11.427,18.384
			c-2.881,4.438-5.602,9.043-8.989,13.073c-3.362,4.003-7.483,7.364-11.235,11.045c-0.844,0.828-1.451,1.903-2.314,2.704
			c-1.38,1.281-2.943,2.364-4.317,3.651c-1.28,1.196-2.424,2.542-3.609,3.838c-0.32,0.35-0.5,0.877-0.875,1.118
			c-6.188,3.96-12.707,7.49-18.471,11.988c-2.891,2.256-5.763,4.196-9.015,5.791c-3.48,1.709-6.724,3.901-10.215,5.582
			c-2.577,1.24-5.478,1.802-8.076,3.006c-10.353,4.794-21.698,5.888-32.452,8.989c-17.526,5.056-35.054,2.904-52.615,2.819
			c-3.842-0.019-7.657-1.826-11.519-2.652c-3.747-0.8-7.554-1.316-11.305-2.1c-5.426-1.133-11.376-1.359-16.087-3.875
			c-5.175-2.764-11.088-3.614-15.798-6.566c-5.018-3.146-11.597-4.216-15.219-8.147c-3.799-4.123-9.902-4.103-12.802-9.386
			c-1.347-2.455-5.482-3.274-8.122-5.159c-2.009-1.435-3.663-3.37-5.456-5.102c-1.755-1.695-3.488-3.413-5.228-5.125
			c-0.173-0.17-0.313-0.376-0.485-0.548c-4.359-4.333-8.824-8.567-13.037-13.038c-2.036-2.159-3.665-4.719-5.362-7.177
			c-2.914-4.221-5.92-8.396-8.545-12.795c-2.234-3.743-3.947-7.794-5.962-11.673c-2.222-4.276-4.62-8.465-6.752-12.785
			c-1.001-2.029-1.51-4.295-2.326-6.422c-3.651-9.52-5.437-19.441-7.451-29.414c-2.332-11.54-3.48-22.979-3.038-34.635
			c0.231-6.083,0.545-12.221,1.59-18.199c1.105-6.322,3.16-12.476,4.726-18.721c0.681-2.717,1.051-5.515,1.794-8.212
			c0.554-2.011,1.522-3.905,2.234-5.877c2.04-5.65,3.888-11.376,6.114-16.951c1.563-3.913,3.44-7.729,5.508-11.402
			c2.133-3.79,4.536-7.447,7.057-10.995c3.657-5.147,7.347-10.29,11.348-15.167c5.386-6.566,10.715-13.254,16.768-19.173
			c4.398-4.301,9.928-7.447,14.961-11.096c0.293-0.213,0.866-0.236,0.969-0.486c2.182-5.352,8.259-4.962,11.795-8.042
			c3.946-3.438,9.262-4.257,12.923-7.154c5.705-4.514,12.25-5.5,18.609-7.578c0.815-0.267,1.994-0.188,2.427-0.731
			c3.25-4.069,8.029-3.701,12.417-4.584c6.167-1.241,12.282-2.734,18.447-3.98c2.789-0.564,5.642-1.091,8.472-1.125
			c13.208-0.164,26.417-0.082,39.623-0.295c1.52-0.024,3.178,2.595,4.648-0.071c0.007-0.013,0.855,0.25,0.904,0.473
			c1.188,5.464,6.315,3.003,9.438,4.477c3.127,1.476,6.95,1.479,10.471,2.112c0.611,0.109,1.406-0.087,1.832,0.234
			c6.349,4.794,15.137,4.268,21.115,8.534c5.194,3.707,12.191,4.117,16.143,9.597c0.304,0.422,1.16,0.406,1.699,0.705
			c7.984,4.434,15.306,9.773,21.977,16.02c4.392,4.112,9.164,7.862,13.229,12.268c4.306,4.667,7.882,9.998,11.95,14.894
			c5.685,6.841,10.51,14.198,14.291,22.257c2.838,6.051,6.18,11.895,8.613,18.099c2.742,6.991,4.628,14.313,7.104,21.416
			C375.609,147.149,377.091,148.204,378.485,149.856z M70.084,156.747c2.694,2.779,6.596,3.521,9.257,1.758
			c-0.544,2.715,0.925,4.4,3.404,4.15c0.952-0.096,1.97,0.344,2.941,0.603c3.534,0.94,7.018,2.136,10.602,2.794
			c3.044,0.559,6.235,0.287,9.298,0.777c6.39,1.023,12.701,2.602,19.113,3.406c7.225,0.906,14.525,1.209,21.793,1.777
			c11.144,0.871,22.276,2.285,33.433,2.499c20.978,0.402,41.969,0.158,62.955,0.083c6.454-0.023,12.924-0.142,19.352-0.644
			c4.397-0.343,8.717-1.589,13.106-2.134c4.01-0.498,8.083-0.461,12.103-0.9c6.778-0.74,13.633-0.694,20.284-2.786
			c3.554-1.117,7.484-0.982,11.18-1.732c1.366-0.278,2.547-1.471,3.353-1.964c1.219,0.223,2.379,0.776,3.36,0.552
			c2.941-0.672,5.073-5.378,8.954-1.72c0.125,0.117,1.394-0.969,2.122-1.504c0.265-0.195,0.51-0.419,0.861-0.71
			c0.575,0.85,1.068,1.577,1.588,2.342c1.01-0.848,1.697-1.786,2.607-2.125c2.987-1.114,6.097-1.904,9.079-3.029
			c2.001-0.755,3.878-2.667,5.79-2.641c3.155,0.044,4.926-1.297,6.704-3.898c-14.506,0-28.733,0-42.867,0
			c0.291,0.881,0.668,2.019,1.044,3.156c-0.327,0.109-0.654,0.218-0.982,0.327c-0.905-1.398-1.811-2.797-2.716-4.196
			c-0.086,0.322-0.173,0.644-0.26,0.965c-2.978-0.321-5.956-0.92-8.934-0.913c-10.157,0.025-20.314,0.303-30.472,0.334
			c-0.708,0.002-1.999-1.238-1.985-1.879c0.017-0.837,1.077-2.374,1.668-2.363c4.569,0.076,9.132,0.495,13.702,0.716
			c1.795,0.086,3.603-0.05,5.403-0.104c3.338-0.099,6.768-0.74,9.99-0.182c3.789,0.656,6.756,0.084,9.423-2.961
			c0.672,0.795,1.295,1.53,2.042,2.413c2.082-2.223,4.035-3.991,5.374,0.233c0.074,0.236,0.604,0.451,0.931,0.464
			c3.228,0.124,6.46,0.334,9.684,0.248c2.243-0.059,4.499-0.907,6.706-0.762c4.366,0.288,8.811-1.253,13.175,1.113
			c1.443,0.783,3.948-0.412,5.972-0.673c1.538-0.199,3.725-1.084,4.508-0.396c3.076,2.707,3.665-1.362,5.69-1.292
			c-0.936-1.395-1.546-2.563-2.397-3.516c-1.664-1.864-3.182-4.092-5.265-5.3c-4.377-2.538-9.079-4.513-13.872-6.827
			c0,0-0.486,0.708-0.836,1.217c-1.925-1.659-3.655-3.151-5.437-4.687c-0.558,0.968-0.94,1.633-1.477,2.563
			c-0.837-2.707-2.053-4.027-4.659-2.98c-0.416,0.167-1.002,0.149-1.438,0.003c-3.778-1.271-7.403-2.865-11.527-3.14
			c-4.828-0.322-9.607-1.332-14.422-1.934c-3.036-0.38-6.426,0.17-9.062-1.019c-3.116-1.406-6.159-1.504-9.323-1.731
			c-1.985-0.143-3.982-0.165-5.958-0.379c-10.169-1.104-20.309-2.888-30.501-3.25c-19.871-0.706-39.784-1.199-59.65-0.672
			c-13.849,0.368-27.762-0.246-41.606,2.255c-9.219,1.666-18.793,1.649-28.215,1.758c-3.474,0.04-7.076,0.524-10.246,1.042
			c-3.005,0.491-6.255,1.492-9.474,2.072c-3.075,0.554-6.081,1.485-9.942,2.458c-5.292-1.508-10.328,2.08-15.664,4.209
			c-0.429-0.47-0.934-1.022-1.896-2.077c-0.19,1.583-0.302,2.51-0.414,3.438c-4.969-2.406-6.274-1.784-6.88,3.278
			c-0.302-0.198-0.605-0.397-0.908-0.597c-0.231-0.813-0.462-1.625-0.896-3.156c-1.272,0.939-2.208,1.667-3.184,2.338
			c-0.787,0.54-1.573,1.132-2.447,1.482c-1.184,0.475-2.591,0.506-3.652,1.145c-2.013,1.21-3.805,3.786-5.766,3.863
			c-3.418,0.135-4.063,1.74-4.413,4.39c-0.167,1.268-0.633,2.496-1.171,4.52c1.799,0.536,3.631,1.082,5.462,1.626
			c0.625,0.733,1.263,1.455,1.872,2.201c1.034,1.269,2.049,2.553,3.073,3.831c2.201-2.733,4.387,0.528,6.582,0.015
			C66.568,155.177,68.326,155.962,70.084,156.747z M70.53,93.805c-5.058,2.639-6.251,7.896-8.458,12.47
			c-1.304,2.702-2.639,5.389-3.968,8.079c-0.858,1.737-1.744,3.46-2.595,5.2c-0.71,1.453-1.389,2.919-2.479,5.221
			c2.242,3.431-4.092,4.515-4.107,8.402c1.101-0.201,2.743-0.188,2.839-0.567c0.832-3.286,3.93-2.314,5.908-3.365
			c0.542-0.287,1.364-0.268,1.704-0.68c3.49-4.242,9.411-2.444,13.458-5.471c1.189-0.889,3.269-0.524,4.907-0.887
			c5.75-1.274,11.476-2.658,17.231-3.901c1.272-0.274,2.682,0.067,3.942-0.235c4.177-1,8.269-2.413,12.48-3.197
			c4.312-0.802,8.729-1.025,13.094-1.548c4.337-0.52,8.655-1.253,13.003-1.611c5.825-0.479,11.675-0.633,17.509-1.022
			c12.624-0.843,25.233-1.985,37.87-2.546c8.715-0.387,17.469-0.192,26.195,0.092c7.903,0.257,15.792,0.968,23.686,1.512
			c7.685,0.529,15.36,1.334,23.053,1.587c8.066,0.266,16.121-0.242,24.104,1.8c6.082,1.554,12.508,0.914,18.615,3.376
			c4.019,1.619,8.938,2.176,13.243,1.611c5.685-0.746,10.286,2.808,15.842,2.537c2.904-0.142,5.935,2.537,8.934,3.886
			c0.643,0.289,1.385,0.406,2.095,0.482c5.539,0.593,10.047,3.516,14.95,6.641c0.521-1.442,1.787-3.177,1.35-4.114
			c-0.856-1.829-2.666-3.212-4.328-5.054c-0.579,1.151-0.978,1.941-1.375,2.732c-0.327-0.22-0.654-0.439-0.981-0.659
			c1.046-1.417,2.091-2.836,3.208-4.351c-0.557-0.521-1.419-1.212-2.146-2.025c-3.034-3.393-6.026-6.821-9.033-10.235
			c2.618,0.803,3.596-0.865,2.66-2.678c-1.521-2.949-3.564-5.755-5.931-8.063c-0.68-0.662-3.231,0.597-4.925,0.975
			c1.102-1.68,2.203-3.359,3.271-4.986c-1.243-1.909-2.696-5.741-5.45-7.956c-3.266-2.628-5.596-5.281-6.646-9.334
			c-0.396-1.528-1.607-2.589-3.906-2.317c-2.933,0.348-6.115-0.084-7.62-3.373c-1.314-2.873-2.428-5.838-3.399-8.202
			c-1.477-0.857-2.75-1.356-3.719-2.203c-3.019-2.639-5.59-5.965-8.96-7.981c-3.793-2.269-7.245-4.84-10.779-7.439
			c-3.847-2.83-8.661-3.997-12.679-7.117c-4.223-3.278-10.298-3.337-15.059-6.83c-3.352-2.459-8.553-2.411-12.939-3.437
			c-3.097-0.726-6.24-1.264-9.309-2.084c-5.268-1.408-10.493-4.242-15.737-4.244c-20.028-0.009-40.34-3.406-59.874,4.557
			c-5.007,2.042-10.762,2.213-16.139,3.404c-2.077,0.46-4.133,1.199-6.065,2.098c-3.915,1.822-7.738,3.843-11.603,5.774
			c-1.512,0.755-3.094,1.39-4.541,2.252c-3.677,2.19-7.286,4.493-10.954,6.699c-0.329,0.197-0.904-0.071-1.334,0.023
			c-0.729,0.158-1.6,0.239-2.118,0.69c-3.144,2.731-6.203,5.561-9.296,8.352c-0.266,0.24-0.604,0.656-0.855,0.621
			c-4.079-0.582-5.544,3.318-8.121,5.076c-3.785,2.581-6.763,6.367-10.002,9.718c-1.985,2.053-4.133,4.055-5.634,6.442
			c-1.623,2.583-2.577,5.585-3.823,8.405c-0.788-0.188-1.576-0.377-1.568-0.376c-1.395,1.729-2.598,3.081-3.64,4.55
			C72.486,90.53,71.542,92.192,70.53,93.805z M44.086,149.001c-1.286,5.615-2.86,10.218-3.31,14.929
			c-0.91,9.523-1.458,19.099-1.665,28.663c-0.117,5.404,0.675,10.836,1.178,16.244c0.301,3.231,0.684,6.472,1.303,9.655
			c0.731,3.753,1.813,7.438,2.639,11.175c0.651,2.94,0.824,6.025,1.777,8.854c1.957,5.804,4.052,11.588,6.545,17.177
			c2.609,5.852,5.62,11.536,8.712,17.152c1.816,3.3,4.125,6.328,6.228,9.469c2.081,3.106,3.995,6.349,6.313,9.269
			c4.153,5.232,8.531,10.287,12.874,15.367c0.848,0.992,1.987,1.729,2.941,2.638c1.377,1.31,2.717,2.661,4.056,4.011
			c0.827,0.835,1.558,1.776,2.445,2.539c2.379,2.046,5.045,3.808,7.183,6.072c3.341,3.539,6.578,3.654,8.334-0.604
			c2.173-5.27,3.713-10.812,5.314-16.298c0.57-1.95,0.805-3.821,3.775-3.872c0,3.237,0,6.317,0,10.555
			c1.985-1.245,3.45-1.776,4.361-2.802c4.117-4.628,7.983-9.479,12.117-14.092c4.914-5.483,10-10.813,15.034-16.187
			c0.836-0.893,1.895-1.589,2.667-2.527c2.725-3.305,5.172-6.861,8.095-9.974c3.605-3.841,7.754-7.171,11.354-11.016
			c5.109-5.456,9.913-11.198,14.881-16.786c5.441-6.12,10.912-12.213,16.386-18.303c4.532-5.041,8.981-10.162,13.698-15.022
			c1.333-1.374,2.533-5.108,4.978-2.936c2.387,2.121-0.819,4.195-1.998,6.143c-0.062,0.104-0.186,0.167-0.271,0.258
			c-5.133,5.594-10.234,11.218-15.408,16.774c-4.279,4.597-8.699,9.063-12.956,13.679c-5.634,6.113-11.138,12.347-16.756,18.474
			c-5.141,5.607-10.371,11.132-15.525,16.727c-0.445,0.482-0.56,1.253-0.928,1.825c-0.723,1.123-1.362,2.363-2.309,3.27
			c-3.59,3.436-7.456,6.597-10.901,10.166c-3.778,3.913-7.149,8.218-10.823,12.237c-1.188,1.3-2.924,2.094-4.145,3.372
			c-1.891,1.978-3.563,4.166-5.312,6.278c-0.685,0.827-1.326,1.691-1.987,2.538c0.252,0.292,0.505,0.584,0.758,0.876
			c3.005-0.41,6.009-0.821,9.136-1.248c2.153,2.673-1.112,3.102-2.127,3.679c-5.184,2.946-10.582,5.514-15.878,8.265
			c-3.587,1.864-3.699,3.621-0.191,5.697c4.109,2.432,8.213,4.972,12.587,6.836c8.875,3.783,17.911,7.193,26.925,10.64
			c1.941,0.742,4.218,0.672,6.087,1.526c4.895,2.238,9.914,3.429,15.298,4.095c21.059,2.606,42.048,2.683,63.04-0.428
			c4.381-0.649,8.58-1.435,12.75-3.489c4.572-2.251,10-2.704,14.937-4.309c2.315-0.752,4.273-2.539,6.533-3.543
			c2.248-0.997,4.638-1.728,7.024-2.347c4.72-1.228,8.229-4.485,12.22-6.954c5.792-3.583,11.679-7.012,17.523-10.509
			c0.104-0.063,0.192-0.155,0.281-0.242c3.803-3.729,7.361-7.757,11.471-11.111c5.104-4.167,9.757-8.632,13.346-14.174
			c0.534-0.824,1.224-1.554,1.876-2.295c2.835-3.221,6.127-6.143,8.426-9.707c3.976-6.162,7.453-12.659,10.916-19.135
			c2.322-4.344,4.493-8.8,6.303-13.376c1.768-4.471,3.053-9.137,4.438-13.75c1.659-5.525,3.573-11.012,4.688-16.651
			c1.105-5.6,1.169-11.396,2.015-17.057c2.621-17.542,0.089-34.809-2.235-52.615c-1.603,0.353-2.999,0.375-4.104,0.952
			c-3.845,2.011-7.567,4.253-11.379,6.329c-1.784,0.971-3.631,1.852-5.513,2.613c-3.281,1.327-6.528,2.874-9.941,3.711
			c-6.727,1.65-13.559,2.874-20.345,4.283c-6.142,1.275-12.231,2.948-18.434,3.76c-10.877,1.423-21.847,1.627-32.735,3.63
			c-9.577,1.762-19.553,1.451-29.362,1.828c-8.099,0.312-16.213,0.434-24.319,0.382c-12.821-0.081-25.752,0.593-38.427-0.867
			c-11.556-1.331-23.231,0.583-34.752-2.675c-6.791-1.921-14.318-1.102-21.463-1.949c-5.613-0.665-11.145-2.002-16.716-3.026
			c-7.456-1.371-14.921-2.69-22.368-4.106c-2.788-0.53-5.606-1.06-8.283-1.968c-3.887-1.319-7.681-2.924-11.472-4.508
			C56.85,158.37,50.151,155.615,44.086,149.001z"/>
		<path fill-rule="evenodd" clip-rule="evenodd" d="M442.048,126.599c2.462-2.295,4.267-4.077,6.192-5.714
			c0.636-0.54,1.588-0.709,2.395-1.047c0.022,0.894,0.265,1.85,0.031,2.67c-1.167,4.118-2.359,8.234-3.746,12.281
			c-0.728,2.121-1.939,4.073-2.804,6.154c-0.421,1.016-0.679,2.142-0.786,3.24c-0.455,4.671,0.526,5.511,4.888,4.321
			c0.237,0.267,0.475,0.533,0.712,0.801c-0.763,0.54-1.468,1.221-2.309,1.573c-0.625,0.262-1.439,0.022-2.148,0.133
			c-5.4,0.845-4.927,0.771-5.866-4.478c-0.805-4.502-2.913-8.762-4.335-13.165c-1.498-4.642-2.867-9.324-4.294-13.988
			c0.356-0.188,0.713-0.374,1.069-0.561c1.513,1.779,2.937,3.644,4.578,5.292c0.687,0.688,2.024,1.445,2.722,1.198
			c0.682-0.241,1.319-1.728,1.304-2.656c-0.254-14.829-0.739-29.654-0.907-44.483c-0.104-9.106,0.246-18.217,0.376-27.327
			c0.033-2.338,0.006-4.677,0.006-7.166c-5.164-0.41-4.053,6.199-9.167,6.696c3.455-10.92,6.75-21.335,10.046-31.751
			c0.323,0.085,0.647,0.17,0.971,0.254c3.593,10.394,7.186,20.787,10.777,31.181c-0.373,0.265-0.746,0.529-1.118,0.795
			c-2.56-2.571-5.119-5.143-7.678-7.714c-0.304,0.179-0.606,0.357-0.908,0.536C442.048,70.917,442.048,98.158,442.048,126.599z"/>
		<path fill-rule="evenodd" clip-rule="evenodd" d="M484.681,102.845c1.188-5.133,2.375-10.267,3.563-15.4
			c-0.491-0.312-0.982-0.624-1.474-0.937c-1.821,2.001-4.017,3.779-5.373,6.057c-1.846,3.1-2.941,6.64-4.621,9.854
			c-0.354,0.677-1.883,1.081-2.805,0.984c-0.508-0.053-1.381-1.534-1.227-2.159c0.795-3.23,1.979-6.363,2.819-9.583
			c1.507-5.779,2.864-11.597,4.284-17.398c-0.408-0.204-0.818-0.409-1.227-0.614c1.222-0.477,2.491-1.412,3.65-1.291
			c0.986,0.104,2.737,1.637,2.609,2.167c-0.565,2.343-1.801,4.515-2.57,6.823c-0.644,1.93-0.978,3.963-1.675,6.904
			c2.739-1.763,4.624-3.25,6.743-4.231c1.196-0.554,3.343-0.881,4.044-0.225c0.906,0.848,1.281,2.877,1.019,4.228
			c-0.536,2.75-1.688,5.377-2.502,8.081c-0.163,0.542-0.085,1.246,0.114,1.791c0.438,1.201,1.622,3.269,1.458,3.375
			c-1.722,1.117-3.65,1.917-5.521,2.805C485.555,103.664,485.118,103.254,484.681,102.845z"/>
		<path fill-rule="evenodd" clip-rule="evenodd" d="M466.22,148.375c9.063,0,18.125,0,27.467,0c0.161,1.558,0.777,2.848-2.087,2.781
			c-7.881-0.182-15.771,0.067-23.655-0.003c-0.746-0.007-1.484-1.06-2.226-1.626C465.886,149.143,466.053,148.76,466.22,148.375z"/>
		<path fill-rule="evenodd" clip-rule="evenodd" d="M407.357,151.38c-5.969,0-11.938,0.041-17.905-0.068
			c-0.539-0.01-1.062-0.975-1.592-1.496c0.572-0.496,1.129-1.403,1.718-1.425c6.859-0.245,13.725-0.393,20.589-0.438
			c0.615-0.004,1.669,0.829,1.737,1.372c0.075,0.598-0.631,1.708-1.213,1.885c-1.024,0.313-2.214,0.088-3.334,0.088
			C407.357,151.326,407.357,151.354,407.357,151.38z"/>
		<path fill-rule="evenodd" clip-rule="evenodd" d="M436.749,150.084c-1.674,0.441-3.335,1.195-5.023,1.261
			c-4.123,0.162-8.265,0.116-12.385-0.102c-1.014-0.054-1.975-1.089-2.96-1.672c1.02-0.442,2.031-1.243,3.06-1.267
			c5.608-0.125,11.222-0.059,16.833-0.059C436.432,148.858,436.59,149.472,436.749,150.084z"/>
		<path fill-rule="evenodd" clip-rule="evenodd" d="M465.184,148.461c-0.091,0.998-0.172,1.883-0.235,2.573
			c-0.4,0.23-0.505,0.342-0.607,0.341c-4.619-0.04-9.239-0.05-13.854-0.213c-0.365-0.013-0.693-1.096-1.038-1.681
			c0.704-0.341,1.401-0.96,2.112-0.975C455.99,148.417,460.422,148.461,465.184,148.461z"/>
		<path fill-rule="evenodd" clip-rule="evenodd" d="M362.664,17.236c-5.916,0-10.411,0-15.267,0
			c-0.059-0.281-0.246-1.181-0.477-2.287c4.749-0.23,9.208-0.551,13.668-0.544C361.202,14.406,361.813,16.026,362.664,17.236z"/>
		<path fill-rule="evenodd" clip-rule="evenodd" d="M321.579,16.184c1.039-2.382,6.968-2.733,12.074-0.714
			C332.556,17.932,328.219,18.188,321.579,16.184z"/>
		<path fill-rule="evenodd" clip-rule="evenodd" d="M388.233,15.204c2.972-0.376,5.869-1.933,8.96-0.303
			c0.658,0.346,0.738,1.789,1.358,3.465c-4.017-0.706-7.095-1.246-10.173-1.787C388.33,16.12,388.281,15.662,388.233,15.204z"/>
		<path fill-rule="evenodd" clip-rule="evenodd" d="M301.158,16.103c2.093-1.733,4.578-2.051,7.187-1.049
			c0.075,0.505,0.15,1.01,0.226,1.514c-3.345,0.398-6.687,0.875-10.043,1.099c-0.454,0.03-1.112-1.166-1.417-1.901
			c-0.09-0.216,0.852-1.22,1.085-1.144C299.191,14.948,300.1,15.543,301.158,16.103z"/>
		<path fill-rule="evenodd" clip-rule="evenodd" d="M411.819,16.25c-1.721,0.542-3.42,1.353-5.173,1.489
			c-0.674,0.053-1.466-1.432-2.204-2.217c0.818-0.191,1.631-0.504,2.457-0.548c1.617-0.087,3.241-0.026,4.862-0.026
			C411.781,15.381,411.8,15.816,411.819,16.25z"/>
		<path fill-rule="evenodd" clip-rule="evenodd" d="M474.594,17.74c0.09-1.2,0.174-2.313,0.251-3.336c2.212,0,4.01,0,6.352,0
			c0,0.708,0,1.881,0,2.239C478.895,17.026,477.13,17.319,474.594,17.74z"/>
		<path fill-rule="evenodd" clip-rule="evenodd" d="M285.048,14.493c2.529,0,4.305,0,6.628,0c-0.261,0.839-0.526,2.459-0.803,2.462
			c-1.94,0.014-3.892-0.261-5.808-0.615C284.931,16.315,285.048,14.922,285.048,14.493z"/>
		<path fill-rule="evenodd" clip-rule="evenodd" d="M387.347,151.365c-2.729-0.214-4.649-0.364-7.01-0.549
			c0-0.489-0.062-1.962,0.009-1.968c2.13-0.191,4.277-0.315,6.408-0.194C386.979,148.667,387.115,150.252,387.347,151.365z"/>
		<path fill-rule="evenodd" clip-rule="evenodd" d="M420.122,16.151c-1.978,0.442-3.955,0.885-6.415,1.436
			c-0.173-0.71-0.381-1.565-0.589-2.42c0.826-0.104,1.65-0.271,2.479-0.298c1.481-0.049,2.965-0.014,4.447-0.014
			C420.07,15.287,420.096,15.719,420.122,16.151z"/>
		<path fill-rule="evenodd" clip-rule="evenodd" d="M318.316,16.103c-1.629,0.897-2.523,1.606-3.526,1.828
			c-0.363,0.081-1.507-1.343-1.402-1.502c0.6-0.926,1.364-1.862,2.303-2.381C315.978,13.888,316.986,15.031,318.316,16.103z"/>
		<path fill-rule="evenodd" clip-rule="evenodd" d="M487.572,68.213c1.727,0.47,3.479,0.872,5.161,1.466
			c0.354,0.125,0.747,1.071,0.603,1.433c-0.157,0.396-1.087,0.902-1.384,0.756c-1.655-0.813-3.221-1.809-4.817-2.742
			C487.28,68.822,487.426,68.518,487.572,68.213z"/>
		<path fill-rule="evenodd" clip-rule="evenodd" d="M387.009,14.596c-0.417,1.495-0.528,1.517-6.621,1.786
			c-0.037-0.36-0.075-0.721-0.112-1.082C382.375,15.08,384.476,14.861,387.009,14.596z"/>
		<path fill-rule="evenodd" clip-rule="evenodd" fill="#FFFFFF" d="M44.086,149.001c6.065,6.614,12.764,9.368,19.431,12.153
			c3.792,1.583,7.585,3.189,11.472,4.508c2.676,0.908,5.495,1.438,8.283,1.968c7.447,1.417,14.912,2.736,22.368,4.106
			c5.571,1.023,11.103,2.361,16.716,3.026c7.145,0.847,14.672,0.028,21.463,1.949c11.521,3.259,23.197,1.344,34.752,2.675
			c12.675,1.46,25.606,0.787,38.427,0.867c8.106,0.051,16.22-0.071,24.319-0.382c9.809-0.376,19.785-0.066,29.362-1.828
			c10.889-2.003,21.858-2.207,32.735-3.63c6.202-0.812,12.292-2.484,18.434-3.76c6.786-1.41,13.618-2.633,20.345-4.283
			c3.413-0.837,6.66-2.384,9.941-3.711c1.882-0.761,3.729-1.642,5.513-2.613c3.812-2.075,7.534-4.317,11.379-6.329
			c1.105-0.578,2.502-0.6,4.104-0.952c2.324,17.806,4.856,35.073,2.235,52.615c-0.846,5.661-0.909,11.457-2.015,17.057
			c-1.114,5.64-3.028,11.126-4.688,16.651c-1.385,4.613-2.67,9.279-4.438,13.75c-1.81,4.576-3.98,9.032-6.303,13.376
			c-3.463,6.476-6.94,12.973-10.916,19.135c-2.299,3.564-5.591,6.486-8.426,9.707c-0.652,0.741-1.342,1.471-1.876,2.295
			c-3.589,5.542-8.242,10.007-13.346,14.174c-4.109,3.354-7.668,7.383-11.471,11.111c-0.089,0.087-0.178,0.179-0.281,0.242
			c-5.845,3.497-11.731,6.926-17.523,10.509c-3.99,2.469-7.5,5.727-12.22,6.954c-2.387,0.619-4.776,1.35-7.024,2.347
			c-2.26,1.004-4.218,2.791-6.533,3.543c-4.937,1.604-10.364,2.058-14.937,4.309c-4.171,2.055-8.369,2.84-12.75,3.489
			c-20.992,3.11-41.981,3.034-63.04,0.428c-5.384-0.666-10.403-1.856-15.298-4.095c-1.87-0.854-4.146-0.784-6.087-1.526
			c-9.015-3.446-18.051-6.856-26.925-10.64c-4.374-1.864-8.478-4.404-12.587-6.836c-3.508-2.076-3.396-3.833,0.191-5.697
			c5.296-2.751,10.694-5.318,15.878-8.265c1.015-0.577,4.28-1.006,2.127-3.679c-3.126,0.427-6.131,0.838-9.136,1.248
			c-0.252-0.292-0.505-0.584-0.758-0.876c0.661-0.847,1.302-1.711,1.987-2.538c1.749-2.112,3.421-4.301,5.312-6.278
			c1.221-1.278,2.957-2.072,4.145-3.372c3.674-4.02,7.044-8.324,10.823-12.237c3.446-3.569,7.312-6.73,10.901-10.166
			c0.947-0.906,1.586-2.146,2.309-3.27c0.368-0.572,0.483-1.343,0.928-1.825c5.154-5.595,10.384-11.119,15.525-16.727
			c5.618-6.127,11.122-12.36,16.756-18.474c4.256-4.616,8.677-9.082,12.956-13.679c5.173-5.557,10.274-11.181,15.408-16.774
			c0.084-0.091,0.209-0.154,0.271-0.258c1.179-1.947,4.384-4.021,1.998-6.143c-2.444-2.173-3.644,1.562-4.978,2.936
			c-4.717,4.86-9.167,9.981-13.698,15.022c-5.474,6.09-10.945,12.183-16.386,18.303c-4.969,5.588-9.772,11.33-14.881,16.786
			c-3.6,3.845-7.749,7.175-11.354,11.016c-2.923,3.112-5.37,6.669-8.095,9.974c-0.772,0.938-1.831,1.635-2.667,2.527
			c-5.034,5.374-10.12,10.703-15.034,16.187c-4.134,4.612-8,9.464-12.117,14.092c-0.911,1.025-2.376,1.557-4.361,2.802
			c0-4.237,0-7.317,0-10.555c-2.97,0.051-3.206,1.922-3.775,3.872c-1.602,5.486-3.141,11.028-5.314,16.298
			c-1.756,4.259-4.993,4.144-8.334,0.604c-2.138-2.265-4.804-4.026-7.183-6.072c-0.887-0.763-1.618-1.704-2.445-2.539
			c-1.339-1.35-2.679-2.701-4.056-4.011c-0.954-0.908-2.093-1.646-2.941-2.638c-4.342-5.08-8.72-10.135-12.874-15.367
			c-2.318-2.92-4.232-6.162-6.313-9.269c-2.103-3.141-4.411-6.169-6.228-9.469c-3.092-5.616-6.103-11.301-8.712-17.152
			c-2.493-5.589-4.588-11.373-6.545-17.177c-0.954-2.829-1.126-5.914-1.777-8.854c-0.827-3.737-1.908-7.422-2.639-11.175
			c-0.62-3.184-1.002-6.424-1.303-9.655c-0.503-5.408-1.295-10.84-1.178-16.244c0.208-9.564,0.755-19.14,1.665-28.663
			C41.226,159.22,42.8,154.617,44.086,149.001z M216.524,289.038c-1.106-2.45-2.159-4.685-3.128-6.955
			c-0.804-1.885-2.384-4.02-1.998-5.661c0.341-1.444,2.918-2.376,4.526-3.508c3.856-2.72,4.307-5.775,1.277-8.773
			c-3.354-3.317-12.016-4.397-16.207-2.389c-0.551,9.883-2.639,18.93-7.492,27.377c2.76,0,5.461,0,8.868,0
			c-4.216-4.34-0.953-8-0.027-11.544c0.41-1.57,3.103-1.827,4.213,0.148c0.999,1.78,1.65,3.866,1.975,5.894
			C209.375,288.876,211.329,290.272,216.524,289.038z"/>
		<path fill-rule="evenodd" clip-rule="evenodd" fill="#FFFFFF" d="M350.278,107.963c3.007,3.415,5.999,6.843,9.033,10.236
			c0.727,0.813,1.589,1.504,2.146,2.025c-1.117,1.515-2.162,2.933-3.208,4.351c0.327,0.22,0.654,0.439,0.981,0.659
			c0.397-0.791,0.796-1.582,1.375-2.732c1.662,1.841,3.472,3.225,4.328,5.054c0.438,0.937-0.829,2.671-1.35,4.114
			c-4.903-3.125-9.411-6.048-14.95-6.641c-0.71-0.076-1.452-0.193-2.095-0.482c-2.999-1.349-6.029-4.027-8.934-3.886
			c-5.556,0.271-10.157-3.283-15.842-2.537c-4.306,0.565-9.225,0.008-13.243-1.611c-6.107-2.462-12.533-1.822-18.615-3.376
			c-7.983-2.042-16.038-1.534-24.104-1.8c-7.693-0.253-15.368-1.058-23.053-1.587c-7.894-0.543-15.783-1.254-23.686-1.512
			c-8.726-0.284-17.48-0.479-26.195-0.092c-12.636,0.561-25.246,1.703-37.87,2.546c-5.833,0.39-11.684,0.543-17.509,1.022
			c-4.349,0.358-8.667,1.091-13.003,1.611c-4.365,0.523-8.782,0.746-13.094,1.548c-4.211,0.784-8.303,2.197-12.48,3.197
			c-1.26,0.302-2.67-0.04-3.942,0.235c-5.756,1.243-11.482,2.627-17.231,3.901c-1.638,0.363-3.718-0.002-4.907,0.887
			c-4.048,3.027-9.968,1.229-13.458,5.471c-0.339,0.412-1.162,0.393-1.704,0.68c-1.978,1.051-5.077,0.079-5.908,3.365
			c-0.096,0.379-1.738,0.366-2.839,0.567c0.016-3.888,6.35-4.972,4.107-8.402c1.091-2.302,1.769-3.769,2.479-5.221
			c0.851-1.74,1.736-3.463,2.595-5.2c1.329-2.69,2.664-5.377,3.968-8.079c2.208-4.574,3.4-9.831,8.458-12.47
			c2.292,1.205,4.611,3.563,6.782-0.165c0.452,0.135,1.016,0.143,1.338,0.425c2.475,2.169,3.15,1.215,4.09-1.599
			c1.454-4.355-0.721-6.204-4.033-7.759l0.087,0.098c1.246-2.82,2.201-5.823,3.823-8.405c1.5-2.387,3.648-4.389,5.634-6.442
			c3.24-3.351,6.218-7.137,10.002-9.718c2.577-1.757,4.042-5.657,8.121-5.076c0.252,0.035,0.589-0.381,0.855-0.621
			c3.093-2.791,6.152-5.62,9.296-8.352c0.518-0.451,1.389-0.532,2.118-0.69c0.43-0.094,1.005,0.174,1.334-0.023
			c3.667-2.206,7.277-4.509,10.954-6.699c1.447-0.862,3.029-1.497,4.541-2.252c3.865-1.931,7.688-3.953,11.603-5.774
			c1.932-0.899,3.988-1.638,6.065-2.098c5.376-1.19,11.131-1.362,16.139-3.404c19.534-7.963,39.846-4.566,59.874-4.557
			c5.244,0.002,10.469,2.835,15.737,4.244c3.069,0.82,6.212,1.358,9.309,2.084c4.386,1.026,9.587,0.978,12.939,3.437
			c4.761,3.493,10.836,3.552,15.059,6.83c4.018,3.121,8.832,4.287,12.679,7.117c3.534,2.6,6.986,5.171,10.779,7.439
			c3.37,2.016,5.941,5.342,8.96,7.981c0.969,0.847,2.242,1.346,3.719,2.203c0.972,2.364,2.085,5.329,3.399,8.202
			c1.505,3.288,4.688,3.721,7.62,3.373c2.299-0.272,3.511,0.789,3.906,2.317c1.05,4.053,3.38,6.707,6.646,9.334
			c2.754,2.215,4.207,6.047,5.45,7.956c-1.067,1.627-2.169,3.307-3.271,4.986c-0.711,0.888-1.424,1.776-2.135,2.663
			c-0.538,0.246-1.074,0.492-1.612,0.739c-0.724-1.016-1.447-2.033-2.722-3.821c-0.686,2.122-1.279,3.958-1.873,5.794l0.056-0.118
			c0.298,2.688,0.571,5.379,0.921,8.061c0.056,0.424,0.366,0.939,0.718,1.18c2.489,1.704,5.02,3.347,7.757,5.154
			c1.773-0.846,4.06-1.938,6.346-3.029c0.281,0.757,0.563,1.515,0.843,2.273c0.614-0.483,1.228-0.966,1.842-1.449
			c-0.845-1.532-1.61-3.115-2.556-4.582c-0.858-1.331-2.682-2.705,0.684-3.012L350.278,107.963z M69.063,107.901
			c0.076,0.272,0.151,0.544,0.227,0.816c-0.087,1.785-0.174,3.571-0.24,4.923c1.463,0,2.559,0.241,3.474-0.062
			c1.136-0.375,2.395-0.993,3.087-1.898c0.538-0.702,0.288-2.007,0.371-2.875c1.316,0.548,2.422,1.009,3.527,1.47
			c0.262-0.231,0.523-0.462,0.785-0.693c-0.542-1.602-1.084-3.203-1.747-5.161c-1.074,1-1.689,1.574-2.479,2.31
			c-1.981-3.485-4.653-4.738-8.323-3.538C68.188,104.774,68.625,106.338,69.063,107.901z M336.057,96.132
			c0.496,0.146,0.991,0.293,1.486,0.44c0.511-2.546,1.021-5.091,1.612-8.037c-0.683-0.615-1.929-1.739-3.195-2.881
			c-0.926,0.576-1.932,1.203-2.938,1.83c0.239,0.102,0.479,0.203,0.719,0.304c-0.293,1.058-0.586,2.117-0.994,3.594
			c0.98,0.817,2.338,1.947,3.803,3.167C336.447,94.882,336.251,95.507,336.057,96.132z M315.609,89.509
			c2.448-1.982,4.502-3.646,6.986-5.658c-0.907-0.935-1.948-2.008-2.989-3.081C320.516,84.897,313.464,85.379,315.609,89.509z
			 M329.263,88.125c-0.37-0.36-0.739-0.72-1.108-1.08c1.324-0.497,2.647-0.995,4.433-1.667c-2.248-0.531-3.573-1.011-4.922-1.095
			c-0.704-0.044-1.452,0.608-2.18,0.945c0.458,0.549,0.834,1.209,1.394,1.621C327.597,87.379,328.462,87.709,329.263,88.125z
			 M325.962,91.913c-0.962,1.325-1.746,2.403-2.992,4.118c2.879-0.549,4.675-0.893,6.748-1.289
			C328.396,93.746,327.365,92.969,325.962,91.913z"/>
		<path fill-rule="evenodd" clip-rule="evenodd" fill="#FFFFFF" d="M77.138,129.456c0.111-0.927,0.223-1.854,0.414-3.438
			c0.963,1.055,1.467,1.607,1.896,2.077c5.336-2.129,10.372-5.717,15.664-4.209c3.861-0.974,6.867-1.905,9.942-2.458
			c3.219-0.58,6.469-1.582,9.474-2.072c3.17-0.519,6.772-1.003,10.246-1.042c9.422-0.108,18.997-0.092,28.215-1.758
			c13.845-2.501,27.757-1.888,41.606-2.255c19.867-0.527,39.78-0.034,59.65,0.672c10.192,0.362,20.332,2.146,30.501,3.25
			c1.976,0.215,3.973,0.237,5.958,0.379c3.164,0.227,6.207,0.325,9.323,1.731c2.636,1.189,6.025,0.639,9.062,1.019
			c4.814,0.602,9.594,1.612,14.422,1.934c4.124,0.275,7.749,1.869,11.527,3.14c0.436,0.146,1.021,0.164,1.438-0.003
			c2.606-1.047,3.822,0.273,4.659,2.98c0.536-0.93,0.919-1.595,1.477-2.563c1.781,1.535,3.512,3.027,5.437,4.687
			c0.35-0.509,0.836-1.217,0.836-1.217c4.793,2.314,9.495,4.289,13.872,6.827c2.083,1.208,3.601,3.436,5.265,5.3
			c0.852,0.953,1.462,2.121,2.397,3.516c-2.025-0.07-2.614,3.998-5.69,1.292c-0.783-0.689-2.97,0.197-4.508,0.396
			c-2.023,0.261-4.528,1.456-5.972,0.673c-4.364-2.367-8.809-0.825-13.175-1.113c-2.207-0.145-4.463,0.703-6.706,0.762
			c-3.224,0.086-6.456-0.125-9.684-0.248c-0.326-0.013-0.856-0.228-0.931-0.464c-1.339-4.224-3.292-2.456-5.374-0.233
			c-0.747-0.883-1.37-1.618-2.042-2.413c-2.667,3.045-5.634,3.617-9.423,2.961c-3.223-0.558-6.652,0.083-9.99,0.182
			c-1.801,0.054-3.608,0.19-5.403,0.104c-4.57-0.221-9.133-0.64-13.702-0.716c-0.591-0.011-1.651,1.525-1.668,2.363
			c-0.014,0.641,1.277,1.881,1.985,1.879c10.157-0.031,20.314-0.309,30.472-0.334c2.978-0.007,5.956,0.592,8.934,0.913
			c0.087-0.321,0.174-0.644,0.26-0.965c0.905,1.398,1.811,2.797,2.716,4.196c0.328-0.109,0.655-0.217,0.982-0.327
			c-0.376-1.138-0.753-2.275-1.044-3.156c14.134,0,28.361,0,42.867,0c-1.778,2.601-3.549,3.942-6.704,3.898
			c-1.912-0.026-3.789,1.885-5.79,2.641c-2.982,1.125-6.092,1.915-9.079,3.029c-0.91,0.339-1.598,1.277-2.607,2.125
			c-0.52-0.765-1.013-1.493-1.588-2.342c-0.352,0.292-0.597,0.516-0.861,0.71c-0.729,0.535-1.997,1.622-2.122,1.504
			c-3.881-3.658-6.013,1.048-8.954,1.72c-0.981,0.224-2.142-0.329-3.36-0.552c-0.806,0.494-1.986,1.687-3.353,1.964
			c-3.695,0.75-7.626,0.615-11.18,1.732c-6.651,2.091-13.506,2.046-20.284,2.786c-4.02,0.439-8.093,0.403-12.103,0.9
			c-4.39,0.545-8.709,1.791-13.106,2.134c-6.428,0.502-12.898,0.621-19.352,0.644c-20.985,0.075-41.977,0.319-62.955-0.083
			c-11.156-0.214-22.289-1.627-33.433-2.499c-7.268-0.567-14.568-0.871-21.793-1.777c-6.412-0.805-12.724-2.383-19.113-3.406
			c-3.063-0.491-6.254-0.218-9.298-0.777c-3.584-0.659-7.068-1.854-10.602-2.794c-0.971-0.259-1.989-0.698-2.941-0.603
			c-2.479,0.25-3.949-1.436-3.405-4.148c0.057-0.788,0.114-1.58,0.171-2.371c0.903-1.412,1.807-2.824,2.735-4.276
			c-0.629-1.472-4.763,1.498-3.434-2.604c1.222-0.726,2.443-1.45,3.666-2.174c1.511-0.109,3.021-0.218,4.532-0.328
			c0.503-0.229,1.007-0.458,1.51-0.688c-0.5-0.439-1-0.877-1.501-1.316c-0.281-1.427-0.563-2.854-0.844-4.281
			c0.53-2.177,1.059-4.354,1.589-6.531c0.148-0.584,0.298-1.169,0.447-1.753c-0.469,0.194-0.938,0.388-1.406,0.582
			c-2.909,0.483-5.818,0.966-8.727,1.448C77.764,132.629,77.451,131.042,77.138,129.456z M341.117,134.77
			c-3.416-2.399-6.83-4.798-10.646-7.478c-0.813,5.726,0.729,8.923,3.516,9.406c1.744,0.301,3.377,1.242,5.06,1.896
			c0.96,0.845,1.92,1.69,3.033,2.668c1.18-1.596,2.376-3.214,3.534-4.78c-0.939-1.057-2.477-2.785-4.664-5.244
			C341.04,133.133,341.078,133.952,341.117,134.77z M210.183,146.92c0.521,1.756,0.633,3.314,1.074,3.414
			c1.841,0.415,3.784,0.537,5.685,0.501c5.574-0.103,11.146-0.338,16.718-0.506c2.116-0.063,4.24-0.207,6.35-0.097
			c4.763,0.249,9.515,0.758,14.28,0.928c6.26,0.223,12.526,0.252,18.791,0.271c0.753,0.002,1.854-0.389,2.169-0.948
			c0.336-0.6,0.197-1.811-0.228-2.391c-0.391-0.532-1.447-0.822-2.199-0.803c-4.787,0.122-9.57,0.411-14.358,0.532
			c-2.125,0.054-4.259-0.274-6.382-0.209c-1.849,0.057-3.702,0.692-5.528,0.596c-3.455-0.183-6.892-1.002-10.337-1.006
			c-3.45-0.004-7.088,1.523-10.307,0.827c-4.34-0.938-8.318-0.484-12.469,0.282C212.788,148.431,211.981,147.719,210.183,146.92z
			 M208.225,150.167c0.259-0.402,0.519-0.804,0.778-1.205c-0.856-0.47-1.672-1.189-2.582-1.341
			c-0.988-0.165-2.089,0.105-3.094,0.368c-0.598,0.156-1.104,0.663-1.652,1.012c0.49,0.565,0.966,1.597,1.472,1.612
			C204.833,150.661,206.531,150.344,208.225,150.167z"/>
		<path fill-rule="evenodd" clip-rule="evenodd" fill="#FFFFFF" d="M53.283,148.346c-1.832-0.545-3.663-1.091-5.462-1.626
			c0.538-2.024,1.004-3.252,1.171-4.52c0.349-2.65,0.994-4.255,4.413-4.39c1.96-0.078,3.753-2.653,5.766-3.863
			c1.061-0.638,2.469-0.669,3.652-1.145c0.874-0.35,1.66-0.942,2.447-1.482c0.976-0.671,1.911-1.399,3.184-2.338
			c0.434,1.53,0.665,2.343,0.896,3.156c-0.728,0.362-1.538,0.621-2.162,1.115c-0.737,0.583-1.312,1.371-1.957,2.069
			c0.756,0.443,1.491,0.93,2.274,1.319c0.975,0.484,1.99,0.888,2.987,1.326c0.006,0.268,0.012,0.536,0.018,0.804
			c-0.755,0.528-1.579,0.981-2.252,1.599c-1.532,1.406-2.989,2.893-4.477,4.347c-0.98-0.482-1.96-0.964-2.939-1.446
			c-0.77-1.774-1.538-3.548-2.186-5.042c-5.254,1.522-4.456,5.322-4.614,8.699C53.789,147.4,53.536,147.873,53.283,148.346z"/>
		<path fill-rule="evenodd" clip-rule="evenodd" fill="#FFFFFF" d="M70.51,138.77c-0.006-0.268-0.012-0.536-0.018-0.804
			c-0.079-1.744-0.157-3.488-0.235-5.232c0.606-5.062,1.911-5.684,6.88-3.278c0.313,1.586,0.626,3.173,0.939,4.761
			c0.478,1.936,0.956,3.871,1.435,5.808c-0.227,0.099-0.46,0.174-0.699,0.229c-0.969,0-1.938,0-2.963,0c0,2.503,0,4.7,0,6.899
			c-1.778-0.05-3.557-0.1-5.335-0.149l0.005,0.01c0.608-1.431,1.364-2.819,1.786-4.304C72.787,141.012,73.325,139.065,70.51,138.77z
			"/>
		<path fill-rule="evenodd" clip-rule="evenodd" fill="#FFFFFF" d="M60.842,143.27c0.979,0.482,1.959,0.964,2.939,1.446
			c2.642-0.69,3.834,0.392,3.732,3.055c-0.813,0.996-1.888,1.883-2.363,3.021c-0.444,1.062-0.252,2.39-0.34,3.601
			c-2.195,0.513-4.381-2.749-6.582-0.015c-1.023-1.278-2.039-2.562-3.073-3.831c-0.608-0.747-1.247-1.468-1.872-2.201
			c0.253-0.473,0.506-0.946,0.759-1.419c0.609-0.019,1.246-0.162,1.824-0.038C60.173,147.811,60.522,147.573,60.842,143.27z"/>
		<path fill-rule="evenodd" clip-rule="evenodd" d="M64.81,154.393c0.088-1.211-0.104-2.539,0.34-3.601
			c0.476-1.138,1.55-2.025,2.363-3.021c1.001-0.252,2.003-0.504,3.005-0.756l-0.005-0.01c0.311,0.417,0.621,0.834,0.932,1.252
			c1.483,2.4,2.966,4.8,4.804,7.773c-2.824,0.328-4.495,0.522-6.165,0.717C68.326,155.962,66.568,155.177,64.81,154.393z"/>
		<path fill-rule="evenodd" clip-rule="evenodd" fill="#FFFFFF" d="M77.312,93.64c-2.171,3.728-4.491,1.369-6.782,0.165
			c1.013-1.613,1.957-3.274,3.056-4.826c1.042-1.469,2.245-2.821,3.64-4.55c-0.008-0.001,0.78,0.188,1.568,0.376l-0.087-0.098
			C81.426,88.182,78.326,90.748,77.312,93.64z"/>
		<path fill-rule="evenodd" clip-rule="evenodd" fill="#FFFFFF" d="M339.948,100.863c0.711-0.889,1.424-1.777,2.135-2.665
			c1.693-0.378,4.245-1.637,4.925-0.975c2.366,2.308,4.409,5.114,5.931,8.063c0.936,1.813-0.042,3.481-2.66,2.677l0.072,0.088
			c-1.363-3.042-2.727-6.085-3.886-8.67c-1.839,1.765-3.456,3.318-5.07,4.871c0.003,0.001-0.092-0.004-0.092-0.004
			C340.852,103.12,340.4,101.991,339.948,100.863z"/>
		<path fill-rule="evenodd" clip-rule="evenodd" fill="#FFFFFF" d="M70.084,156.747c1.67-0.195,3.341-0.389,6.165-0.717
			c-1.837-2.973-3.32-5.373-4.804-7.773c5.177,0.08,6.244,4.367,8.066,7.88c-0.057,0.791-0.115,1.583-0.171,2.371
			C76.68,160.268,72.778,159.526,70.084,156.747z"/>
		<path fill-rule="evenodd" clip-rule="evenodd" d="M70.257,132.734c0.079,1.744,0.157,3.488,0.235,5.232
			c-0.998-0.438-2.012-0.842-2.987-1.326c-0.783-0.389-1.518-0.875-2.274-1.319c0.645-0.699,1.22-1.486,1.957-2.069
			c0.624-0.494,1.434-0.752,2.162-1.115C69.652,132.336,69.955,132.536,70.257,132.734z"/>
		<path fill-rule="evenodd" clip-rule="evenodd" d="M216.524,289.038c-5.196,1.234-7.149-0.162-7.992-5.411
			c-0.325-2.027-0.976-4.113-1.975-5.894c-1.11-1.976-3.803-1.719-4.213-0.148c-0.926,3.544-4.189,7.204,0.027,11.544
			c-3.406,0-6.107,0-8.868,0c4.853-8.447,6.941-17.494,7.492-27.377c4.191-2.009,12.853-0.929,16.207,2.389
			c3.03,2.998,2.58,6.054-1.277,8.773c-1.607,1.132-4.185,2.063-4.526,3.508c-0.387,1.642,1.193,3.776,1.998,5.661
			C214.366,284.354,215.418,286.588,216.524,289.038z M204.256,273.301c2.804-0.534,5.14-0.675,7.235-1.46
			c2.371-0.889,2.959-3.329,1.937-5.271c-0.717-1.361-2.742-2.735-4.25-2.813c-2.252-0.116-3.654,1.636-3.819,4.135
			C205.271,269.229,204.836,270.543,204.256,273.301z"/>
		<path fill-rule="evenodd" clip-rule="evenodd" d="M341.392,104.252c1.617-1.553,3.234-3.106,5.073-4.871
			c1.159,2.585,2.522,5.628,3.886,8.67c-3.365,0.307-1.542,1.681-0.684,3.012c0.945,1.467,1.711,3.05,2.556,4.582
			c-0.614,0.483-1.228,0.966-1.842,1.449c-0.28-0.758-0.562-1.516-0.843-2.273c-0.226-0.446-0.453-0.891-0.68-1.337
			c-0.419-0.547-0.76-1.481-1.267-1.582C341.606,110.72,340.71,109.666,341.392,104.252z"/>
		<path fill-rule="evenodd" clip-rule="evenodd" d="M348.858,113.483c0.227,0.446,0.454,0.892,0.68,1.337
			c-2.286,1.092-4.572,2.183-6.346,3.029c-2.737-1.807-5.268-3.45-7.757-5.154c-0.352-0.241-0.662-0.756-0.718-1.18
			c-0.35-2.682-0.623-5.373-0.921-8.061c1.131,1.736,2.341,3.343,4.789,2.916c0.707,2.572-2.467,6.617,2.86,7.427
			c0.055-0.587,0.111-1.197,0.125-1.337C344.175,112.826,346.517,113.154,348.858,113.483z"/>
		<path fill-rule="evenodd" clip-rule="evenodd" d="M69.063,107.901c-0.438-1.563-0.875-3.127-1.317-4.708
			c3.67-1.2,6.342,0.053,8.323,3.538c0.789-0.735,1.405-1.309,2.479-2.31c0.663,1.958,1.205,3.559,1.747,5.161
			c-0.262,0.231-0.523,0.462-0.785,0.693c-1.105-0.46-2.211-0.921-3.527-1.47c-0.083,0.868,0.167,2.173-0.371,2.875
			c-0.692,0.905-1.951,1.523-3.087,1.898c-0.916,0.303-2.011,0.062-3.474,0.062c0.066-1.352,0.153-3.138,0.245-4.906
			c0.724,2.805,2.624,1.531,4.043,0.985c0.384-0.148,0.252-1.642,0.356-2.517C72.149,107.436,70.606,107.668,69.063,107.901z"/>
		<path fill-rule="evenodd" clip-rule="evenodd" d="M336.057,96.132c0.194-0.625,0.391-1.25,0.493-1.582
			c-1.465-1.22-2.822-2.351-3.803-3.167c0.408-1.478,0.701-2.536,0.994-3.594c-0.24-0.101-0.479-0.202-0.719-0.304
			c1.006-0.627,2.012-1.254,2.938-1.83c1.267,1.142,2.513,2.266,3.195,2.881c-0.592,2.945-1.102,5.491-1.612,8.037
			C337.048,96.425,336.553,96.278,336.057,96.132z"/>
		<path fill-rule="evenodd" clip-rule="evenodd" d="M77.312,93.64c1.014-2.892,4.114-5.458,1.395-8.933
			c3.313,1.555,5.487,3.403,4.033,7.759c-0.939,2.814-1.615,3.768-4.09,1.599C78.328,93.783,77.764,93.775,77.312,93.64z"/>
		<path fill-rule="evenodd" clip-rule="evenodd" d="M315.609,89.509c-2.146-4.129,4.906-4.611,3.997-8.739
			c1.041,1.073,2.082,2.146,2.989,3.081C320.111,85.863,318.058,87.526,315.609,89.509z"/>
		<path fill-rule="evenodd" clip-rule="evenodd" fill="#FFFFFF" d="M338.586,106.371c-2.448,0.427-3.658-1.18-4.789-2.916
			l-0.056,0.118c1.056-0.068,2.179,0.057,3.143-0.277c0.607-0.209,0.977-1.107,1.452-1.696c0.538-0.247,1.074-0.494,1.612-0.739
			c0.452,1.13,0.903,2.259,1.356,3.388C340.399,104.956,339.492,105.664,338.586,106.371z"/>
		<path fill-rule="evenodd" clip-rule="evenodd" fill="#FFFFFF" d="M69.063,107.901c1.543-0.233,3.087-0.466,4.63-0.699
			c-0.104,0.875,0.028,2.369-0.356,2.517c-1.419,0.546-3.319,1.819-4.043-0.985C69.214,108.445,69.138,108.173,69.063,107.901z"/>
		<path fill-rule="evenodd" clip-rule="evenodd" d="M329.263,88.125c-0.801-0.416-1.666-0.746-2.384-1.275
			c-0.56-0.412-0.936-1.072-1.394-1.621c0.728-0.337,1.476-0.989,2.18-0.945c1.349,0.084,2.674,0.564,4.922,1.095
			c-1.785,0.672-3.108,1.169-4.433,1.667C328.523,87.405,328.893,87.765,329.263,88.125z"/>
		<path fill-rule="evenodd" clip-rule="evenodd" d="M325.962,91.913c1.403,1.057,2.434,1.833,3.756,2.829
			c-2.073,0.396-3.869,0.74-6.748,1.289C324.216,94.316,325,93.238,325.962,91.913z"/>
		<path fill-rule="evenodd" clip-rule="evenodd" d="M338.336,101.6c-0.476,0.589-0.845,1.487-1.452,1.696
			c-0.964,0.334-2.087,0.209-3.143,0.277c0.594-1.836,1.188-3.673,1.873-5.794C336.889,99.567,337.612,100.583,338.336,101.6z"/>
		<path fill-rule="evenodd" clip-rule="evenodd" d="M210.183,146.92c1.799,0.799,2.605,1.511,3.258,1.391
			c4.151-0.766,8.129-1.221,12.469-0.282c3.219,0.696,6.857-0.831,10.307-0.827c3.445,0.004,6.882,0.824,10.337,1.006
			c1.826,0.097,3.679-0.539,5.528-0.596c2.123-0.065,4.257,0.263,6.382,0.209c4.788-0.122,9.571-0.411,14.358-0.532
			c0.752-0.019,1.809,0.271,2.199,0.803c0.425,0.581,0.563,1.791,0.228,2.391c-0.314,0.56-1.416,0.951-2.169,0.948
			c-6.265-0.019-12.531-0.049-18.791-0.271c-4.765-0.169-9.517-0.679-14.28-0.928c-2.109-0.11-4.233,0.033-6.35,0.097
			c-5.572,0.168-11.144,0.404-16.718,0.506c-1.901,0.035-3.844-0.086-5.685-0.501C210.816,150.234,210.703,148.676,210.183,146.92z"
			/>
		<path fill-rule="evenodd" clip-rule="evenodd" d="M339.047,138.594c-1.683-0.654-3.315-1.595-5.06-1.896
			c-2.787-0.483-4.328-3.68-3.516-9.406c3.815,2.68,7.229,5.079,10.646,7.477C340.427,136.043,339.736,137.319,339.047,138.594z"/>
		<path fill-rule="evenodd" clip-rule="evenodd" fill="#FFFFFF" d="M79.511,140.023c-0.479-1.936-0.957-3.871-1.435-5.807
			c2.91-0.483,5.819-0.966,8.728-1.449c0.32,0.391,0.64,0.781,0.959,1.171c-0.53,2.176-1.06,4.354-1.589,6.531
			c-2.006-0.078-4.013-0.155-6.019-0.232C79.934,140.186,79.719,140.115,79.511,140.023z"/>
		<path fill-rule="evenodd" clip-rule="evenodd" d="M80.156,140.237c2.006,0.078,4.013,0.155,6.019,0.232
			c0.281,1.427,0.563,2.854,0.844,4.281c-0.003,0.668-0.006,1.336-0.009,2.004c-1.511,0.109-3.021,0.218-4.532,0.328
			c-0.083-0.704-0.025-1.963-0.271-2.026C79.322,144.32,80.436,141.996,80.156,140.237z"/>
		<path fill-rule="evenodd" clip-rule="evenodd" d="M339.047,138.594c0.689-1.275,1.38-2.551,2.07-3.826
			c-0.039-0.817-0.077-1.635-0.167-3.53c2.188,2.459,3.725,4.187,4.664,5.244c-1.158,1.566-2.354,3.184-3.534,4.78
			C340.967,140.284,340.007,139.439,339.047,138.594z"/>
		<path fill-rule="evenodd" clip-rule="evenodd" d="M79.511,156.137c-1.822-3.513-2.889-7.801-8.066-7.88
			c-0.311-0.417-0.621-0.834-0.932-1.252c1.778,0.049,3.557,0.099,5.335,0.148c0.513,0.191,1.026,0.382,1.539,0.573
			c0.475,0.511,0.95,1.021,1.425,1.531c-1.329,4.102,2.805,1.132,3.434,2.604C81.318,153.313,80.414,154.725,79.511,156.137z"/>
		<path fill-rule="evenodd" clip-rule="evenodd" fill="#FFFFFF" d="M78.813,149.256c-0.475-0.511-0.95-1.021-1.425-1.531
			c0.475-2.491,0.95-4.98,1.424-7.471c0.239-0.055,0.473-0.13,0.699-0.229c0.208,0.09,0.423,0.161,0.645,0.212
			c0.28,1.758-0.833,4.083,2.051,4.818c0.247,0.063,0.188,1.322,0.271,2.026C81.256,147.807,80.035,148.531,78.813,149.256z"/>
		<path fill-rule="evenodd" clip-rule="evenodd" d="M208.225,150.167c-1.694,0.176-3.392,0.493-5.079,0.445
			c-0.506-0.015-0.982-1.046-1.472-1.612c0.548-0.349,1.055-0.855,1.652-1.012c1.005-0.262,2.106-0.532,3.094-0.368
			c0.91,0.152,1.725,0.872,2.582,1.341C208.743,149.364,208.484,149.765,208.225,150.167z"/>
		<path fill-rule="evenodd" clip-rule="evenodd" d="M87.01,146.754c0.003-0.668,0.006-1.336,0.009-2.004
			c0.5,0.439,1.001,0.877,1.501,1.316C88.017,146.296,87.513,146.525,87.01,146.754z"/>
		<path fill-rule="evenodd" clip-rule="evenodd" d="M87.764,133.939c-0.32-0.39-0.64-0.781-0.959-1.171
			c0.469-0.194,0.938-0.388,1.406-0.582C88.062,132.77,87.913,133.354,87.764,133.939z"/>
		<path fill-rule="evenodd" clip-rule="evenodd" d="M60.842,143.27c-0.319,4.303-0.668,4.541-4.975,3.619
			c-0.579-0.124-1.215,0.019-1.824,0.038c0.158-3.377-0.64-7.177,4.614-8.699C59.304,139.722,60.072,141.496,60.842,143.27z"/>
		<path fill-rule="evenodd" clip-rule="evenodd" d="M70.519,147.015c-1.002,0.252-2.004,0.504-3.005,0.756
			c0.103-2.663-1.09-3.745-3.732-3.055c1.488-1.454,2.945-2.941,4.477-4.347c0.673-0.618,1.497-1.07,2.252-1.599
			c2.814,0.295,2.277,2.242,1.794,3.941C71.883,144.195,71.126,145.584,70.519,147.015z"/>
		<path fill-rule="evenodd" clip-rule="evenodd" d="M78.812,140.254c-0.475,2.49-0.95,4.98-1.424,7.471
			c-0.513-0.191-1.026-0.381-1.539-0.573c0-2.198,0-4.395,0-6.898C76.875,140.254,77.843,140.254,78.812,140.254z"/>
		<path fill-rule="evenodd" clip-rule="evenodd" fill="#FFFFFF" d="M338.586,106.371c0.906-0.708,1.813-1.415,2.719-2.123
			c-0.002-0.001,0.093,0.004,0.09,0.003c-0.685,5.414,0.212,6.468,6.197,7.65c0.507,0.1,0.848,1.034,1.267,1.582
			c-2.342-0.329-4.684-0.657-7.287-1.022c-0.014,0.141-0.07,0.75-0.125,1.337C336.119,112.988,339.293,108.943,338.586,106.371z"/>
		<path fill-rule="evenodd" clip-rule="evenodd" fill="#FFFFFF" d="M204.256,273.301c0.58-2.758,1.015-4.071,1.103-5.408
			c0.165-2.499,1.567-4.251,3.819-4.135c1.507,0.077,3.532,1.451,4.25,2.813c1.022,1.941,0.434,4.382-1.937,5.271
			C209.396,272.626,207.061,272.767,204.256,273.301z"/>
	</g>
</g>
</svg>
