<?xml version="1.0" encoding="utf-8"?>
<!-- Generator: Adobe Illustrator 16.0.0, SVG Export Plug-In . SVG Version: 6.00 Build 0)  -->
<!DOCTYPE svg PUBLIC "-//W3C//DTD SVG 1.1//EN" "http://www.w3.org/Graphics/SVG/1.1/DTD/svg11.dtd">
<svg version="1.1" id="Layer_1" xmlns="http://www.w3.org/2000/svg" xmlns:xlink="http://www.w3.org/1999/xlink" x="0px" y="0px"
	 width="906.127px" height="350.299px" viewBox="0 0 906.127 350.299" enable-background="new 0 0 906.127 350.299"
	 xml:space="preserve">
<g>
	<g>
		<path fill-rule="evenodd" clip-rule="evenodd" fill="#FFFFFF" d="M0.75,351.049c0-116.766,0-233.532,0-350.298
			C302.792,0.75,604.834,0.75,906.876,0.75c0.001,116.766,0.001,233.532,0.001,350.298
			C604.835,351.048,302.792,351.048,0.75,351.049z M722.483,5.427c-0.002,0.135-0.005,0.269-0.008,0.403
			c-2.12,0-4.24,0.024-6.359-0.004c-13.019-0.175-25.729,1.689-38.041,5.944c-4.791,1.656-9.51,3.541-14.186,5.503
			c-6.794,2.852-13.868,5.271-20.182,8.969c-7.347,4.303-14.421,9.305-20.845,14.886c-7.169,6.228-13.875,13.108-20.029,20.344
			c-5.102,5.997-9.252,12.831-13.544,19.476c-2.397,3.713-4.378,7.723-6.262,11.733c-1.634,3.477-2.804,7.168-4.287,10.72
			c-2.882,6.9-6.23,13.637-8.611,20.703c-1.324,3.929-1.343,8.375-1.504,12.604c-0.402,10.601-0.836,21.215-0.688,31.816
			c0.084,6.019,1.216,12.032,2.024,18.028c0.323,2.387,1.073,4.715,1.583,7.078c0.9,4.169,1.319,8.506,2.744,12.483
			c2.515,7.021,5.334,13.972,8.58,20.684c3.776,7.812,7.538,15.752,12.404,22.887c7.546,11.064,16.702,20.935,26.714,29.835
			c5.552,4.936,12.024,8.825,17.98,13.322c4.816,3.637,10.603,5.525,15.502,9.116c3.183,2.332,7.348,3.473,11.218,4.684
			c8.283,2.591,16.638,4.963,25.014,7.235c2.127,0.576,4.468,0.31,6.672,0.666c5.048,0.814,10.041,2.226,15.114,2.576
			c9.153,0.632,18.264,0.804,27.453-1.062c8.426-1.71,16.982-1.887,25.364-4.973c6.124-2.256,12.563-3.984,18.846-6.103
			c5.688-1.919,10.354-5.353,15.578-7.862c5.9-2.837,11.215-6.935,16.646-10.685c3.881-2.679,7.522-5.535,10.546-9.4
			c2.882-3.685,7.41-6.04,10.565-9.563c4.842-5.405,9.359-11.146,13.581-17.054c3.691-5.165,7.197-10.55,10.039-16.212
			c3.633-7.242,6.761-14.769,9.644-22.348c2.088-5.492,3.792-11.193,5.002-16.94c1.55-7.359,3.265-14.842,3.406-22.3
			c0.218-11.485-0.368-23.042-1.532-34.476c-0.719-7.058-2.965-13.991-4.858-20.888c-1.449-5.283-3.332-10.454-5.194-15.613
			c-1.035-2.862-2.179-5.739-3.702-8.359c-3.626-6.237-7.178-12.561-11.366-18.415c-5.274-7.372-10.652-14.793-16.909-21.305
			c-6.33-6.588-13.479-12.507-20.839-17.95c-7.038-5.204-14.762-9.494-22.282-14.023c-2.484-1.496-5.212-2.648-7.938-3.67
			c-4.57-1.715-9.189-3.324-13.858-4.751c-7.146-2.184-14.235-4.97-21.562-6.048C741.02,5.782,731.704,5.924,722.483,5.427z
			 M166.615,298.541c0.003,0.32,0.006,0.641,0.009,0.96c15.072-0.599,30.177-0.034,45.088-3.684
			c9.189-2.248,18.718-3.12,28.099-4.576c1.72-0.268,3.501-0.209,5.19-0.589c6.901-1.554,13.765-3.27,20.667-4.824
			c3.811-0.859,7.688-1.43,11.499-2.291c4.996-1.131,9.958-2.41,14.93-3.647c2.589-0.645,5.172-1.318,7.747-2.019
			c1.139-0.31,2.235-0.966,3.377-1.041c5.752-0.379,6.17-0.779,6.026-6.751c-0.248-10.218-0.766-20.438-0.71-30.653
			c0.117-21.229-1.157-42.338-4.736-63.272c-0.664-3.883-1.866-7.679-2.923-11.486c-2.038-7.329-3.715-14.799-6.358-21.907
			c-2.493-6.7-5.653-13.231-9.24-19.418c-2.935-5.062-6.714-9.691-10.506-14.186c-6.305-7.475-12.699-14.904-19.481-21.942
			c-4.881-5.065-10.281-9.678-15.758-14.114c-10.055-8.145-20.238-16.141-30.563-23.939c-5.24-3.958-10.901-7.359-16.38-11
			c-4.496-2.988-5.869-2.649-9.755,1.133c-2.947,2.869-6.287,5.343-9.508,7.922c-6.1,4.883-12.556,9.374-18.29,14.65
			c-8.712,8.018-16.953,16.551-25.361,24.898c-4.689,4.655-9.601,9.13-13.883,14.139c-4.095,4.79-7.728,10.022-11.142,15.332
			c-2.542,3.954-4.625,8.245-6.534,12.553c-3.738,8.434-7.405,16.91-10.727,25.514c-2.188,5.669-4.081,11.506-5.465,17.419
			c-1.955,8.352-3.637,16.797-4.865,25.283c-2.406,16.631-4.462,33.313-6.572,49.984c-0.954,7.536-1.572,15.114-2.558,22.646
			c-0.714,5.454-0.64,5.794,4.656,7.156c0.476,0.122,0.981,0.188,1.418,0.396c4.973,2.359,9.786,5.15,14.935,7.02
			c7.663,2.781,15.165,6.103,23.191,7.834c1.649,0.355,3.274,0.829,4.899,1.287c3.733,1.052,7.444,2.188,11.194,3.176
			c2.921,0.769,5.875,1.871,8.836,1.944C146.908,298.693,156.764,298.541,166.615,298.541z M195.973,34.756
			c2.91,0,5.513,0.026,8.114-0.012c1.248-0.018,2.507-0.072,3.738-0.257c3.266-0.488,6.796-4.18,6.408-7.146
			c-0.217-1.655-1.417-3.182-2.16-4.738c3.698-2.712,4.708-7.152,1.976-8.722c-4.01-2.304-8.323-2.348-11.667-1.572
			C201.273,20.303,199.835,27.43,195.973,34.756z M169.783,318.037c0.379,1.792,1.13,3.196,0.838,4.332
			c-1.183,4.602-2.621,9.144-4.094,13.665c-1.185,3.636,0.266,5.634,4.056,6.067c4.474,0.512,9.567-4.546,10.478-9.822
			c0.744-4.312-0.684-5.928-5.072-5.995c-0.918-0.015-1.834-0.178-3.061-0.305c0.434-1.271,0.834-2.163,1.034-3.099
			c0.342-1.601,0.557-3.228,0.826-4.844C173.151,318.037,171.515,318.037,169.783,318.037z M42.005,288.928
			c-0.304-0.338-0.608-0.674-0.912-1.01c-0.962,0.646-2.01,1.196-2.869,1.959c-2.369,2.109-7.689,2.36-9.058,0.324
			c-4.028-5.995-0.765-13.838,3.548-16.695c2.885-1.912,6.842-1.346,7.873,0.847c0.439,0.934,1.325,1.657,2.007,2.478
			c0.611-1.017,1.344-1.982,1.795-3.066c0.346-0.83,0.339-1.808,0.524-2.934c-1.563-0.101-2.823-0.01-3.997-0.285
			c-6.219-1.457-11.526,0.435-15.287,5.561c-3.542,4.827-3.558,10.818-0.479,14.858c2.166,2.842,10.229,3.5,14.122,0.866
			C40.348,291.104,41.104,289.908,42.005,288.928z M341.708,271.011c-0.359-0.19-0.717-0.383-1.075-0.574
			c-5.537,7.439-11.074,14.879-16.937,22.755c2.095,0,3.723,0,5.352,0c-0.269-0.266-0.536-0.531-0.804-0.797
			c0.912-1.625,1.456-3.859,2.843-4.699c1.317-0.799,3.519-0.14,5.331-0.121c-0.393,1.862-0.786,3.725-1.175,5.567
			c1.975,0,4.353,0,6.177,0C339.831,285.577,342.616,278.257,341.708,271.011z M85.109,119.556
			c-8.303-1.777-13.32-0.609-15.257,8.055c-0.389,1.741-0.189,4.335,0.875,5.452c0.861,0.901,3.433,0.185,5.245,0.16
			c0.65-0.009,1.509-0.391,1.913-0.102c2.688,1.927,4.292,0.59,5.731-1.596C80.207,126.974,85.535,123.641,85.109,119.556z
			 M319.928,144.834c-1.659,0.662-2.895,0.917-3.847,1.581c-2.348,1.638-3.321-0.428-3.95-1.712
			c-1.18-2.408,1.543-6.881,4.212-7.243c0.686-0.093,1.469,0.442,2.192,0.727c0.963,0.379,1.913,0.795,2.868,1.195
			c0.392-0.954,1.288-2.068,1.049-2.822c-0.307-0.967-1.402-2.114-2.373-2.37c-5.95-1.571-13.62,6.676-11.703,12.501
			c0.908,2.757,3.415,3.994,5.342,3.564C316.031,149.741,320.029,150.046,319.928,144.834z"/>
		<path fill-rule="evenodd" clip-rule="evenodd" d="M722.483,5.427c9.221,0.497,18.536,0.355,27.634,1.693
			c7.326,1.078,14.415,3.864,21.562,6.048c4.669,1.427,9.288,3.037,13.858,4.751c2.726,1.022,5.453,2.175,7.938,3.67
			c7.521,4.529,15.244,8.819,22.282,14.023c7.359,5.442,14.509,11.362,20.839,17.95c6.257,6.512,11.635,13.933,16.909,21.305
			c4.188,5.854,7.74,12.178,11.366,18.415c1.523,2.62,2.667,5.497,3.702,8.359c1.862,5.159,3.745,10.33,5.194,15.613
			c1.894,6.897,4.14,13.83,4.858,20.888c1.164,11.433,1.75,22.99,1.532,34.476c-0.142,7.458-1.856,14.941-3.406,22.3
			c-1.21,5.747-2.914,11.448-5.002,16.94c-2.883,7.579-6.011,15.105-9.644,22.348c-2.842,5.662-6.348,11.047-10.039,16.212
			c-4.222,5.908-8.739,11.648-13.581,17.054c-3.155,3.522-7.684,5.878-10.565,9.563c-3.023,3.865-6.665,6.722-10.546,9.4
			c-5.432,3.75-10.746,7.848-16.646,10.685c-5.224,2.51-9.891,5.943-15.578,7.862c-6.282,2.118-12.722,3.847-18.846,6.103
			c-8.382,3.086-16.938,3.263-25.364,4.973c-9.189,1.865-18.3,1.693-27.453,1.062c-5.073-0.351-10.066-1.762-15.114-2.576
			c-2.204-0.356-4.545-0.09-6.672-0.666c-8.376-2.272-16.73-4.645-25.014-7.235c-3.87-1.211-8.035-2.352-11.218-4.684
			c-4.899-3.591-10.686-5.479-15.502-9.116c-5.956-4.497-12.429-8.387-17.98-13.322c-10.012-8.9-19.168-18.771-26.714-29.835
			c-4.866-7.135-8.628-15.075-12.404-22.887c-3.246-6.712-6.065-13.662-8.58-20.684c-1.425-3.978-1.844-8.314-2.744-12.483
			c-0.51-2.363-1.26-4.691-1.583-7.078c-0.809-5.996-1.94-12.009-2.024-18.028c-0.147-10.601,0.286-21.215,0.688-31.816
			c0.161-4.229,0.18-8.675,1.504-12.604c2.381-7.065,5.729-13.802,8.611-20.703c1.483-3.551,2.653-7.243,4.287-10.72
			c1.884-4.01,3.864-8.02,6.262-11.733c4.292-6.645,8.442-13.479,13.544-19.476c6.154-7.236,12.86-14.116,20.029-20.344
			c6.424-5.582,13.498-10.583,20.845-14.886c6.313-3.699,13.388-6.117,20.182-8.969c4.676-1.962,9.395-3.848,14.186-5.503
			c12.312-4.255,25.022-6.119,38.041-5.944c2.119,0.029,4.239,0.004,6.359,0.004C722.479,5.695,722.481,5.562,722.483,5.427z
			 M733.458,145.928c0.079-1.523,0.139-2.134,0.138-2.746c-0.028-21.991-0.077-43.982-0.092-65.973
			c-0.015-21.111,0.002-42.223,0.014-63.335c0.003-5.235,0.021-5.406-4.888-5.529c-13.104-0.331-26.084,0.627-38.829,3.989
			c-4.055,1.07-8.324,1.412-12.294,2.706c-5.234,1.706-10.301,3.948-15.378,6.106c-2.598,1.104-4.94,2.92-7.606,3.73
			c-8.459,2.572-15.165,8.192-22.012,13.192c-8.791,6.42-17.072,13.71-24.067,22.203c-3.57,4.335-6.865,8.901-10.191,13.431
			c-1.828,2.492-3.501,5.101-5.173,7.703c-1.945,3.031-4.074,5.985-5.652,9.202c-2.29,4.671-4.298,9.496-6.172,14.352
			c-2.23,5.781-4.191,11.665-6.185,17.266c5.441,1.394,9.98,2.958,14.649,3.669c9.993,1.524,20.063,2.539,30.084,3.893
			c8.313,1.123,16.568,2.771,24.908,3.565c8.386,0.799,16.646,1.741,24.928,3.611c9.96,2.25,20.278,2.901,30.44,4.261
			c6.486,0.868,12.972,1.748,19.453,2.656C724.047,144.515,728.555,145.205,733.458,145.928z M616.927,269.998
			c3.9,3.471,7.731,6.931,11.624,10.319c1.583,1.378,3.227,2.712,4.969,3.877c4.487,3.004,8.911,6.139,13.608,8.781
			c6.146,3.457,12.511,6.527,18.824,9.678c1.269,0.633,2.723,0.901,4.103,1.304c6.786,1.977,13.556,4.021,20.379,5.862
			c2.14,0.577,4.688,0.056,6.602,0.972c7.744,3.709,16.072,2.982,24.151,3.215c10.732,0.309,21.327-1.014,32.016-3.03
			c10.218-1.928,19.814-5.12,29.448-8.58c0.742-0.268,1.771-1.642,1.613-2.207c-1.126-4.032-2.508-7.995-3.844-11.969
			c-1.912-5.687-3.908-11.346-5.77-17.048c-1.688-5.17-3.136-10.42-4.881-15.568c-2.708-7.995-5.601-15.928-8.377-23.9
			c-1.794-5.154-3.524-10.331-5.273-15.501c-1.408-4.16-2.838-8.313-4.194-12.491c-1.975-6.085-3.891-12.188-5.835-18.284
			c-1.97-6.177-3.984-12.339-5.9-18.531c-1.367-4.422-2.534-8.907-3.964-13.308c-0.248-0.765-1.358-1.25-2.007-1.809
			C695.128,191.178,656.234,230.38,616.927,269.998z M737.34,145.641c1.349,0,2.574,0.002,3.799,0
			c11.621-0.023,23.243-0.159,34.863-0.048c32.498,0.308,64.996,0.674,97.49,1.163c3.131,0.047,3.357-0.983,2.671-3.498
			c-0.877-3.212-1.451-6.507-2.279-9.736c-2.039-7.947-3.68-16.039-6.367-23.764c-2.493-7.168-5.82-14.102-9.365-20.83
			c-3.221-6.112-6.891-12.06-10.99-17.617c-3.888-5.271-8.485-10.038-12.966-14.846c-4.036-4.332-8.031-8.791-12.598-12.515
			c-5.532-4.513-11.575-8.416-17.521-12.398c-12.491-8.37-26.336-13.716-40.79-17.472c-8.371-2.174-16.886-3.791-25.946-5.794
			C737.34,54.678,737.34,100.015,737.34,145.641z M737.563,149.455c0.548,1.29,0.978,2.117,1.261,2.993
			c2.064,6.373,4.001,12.789,6.173,19.125c2.072,6.046,4.573,11.95,6.541,18.028c3.006,9.286,5.579,18.714,8.588,27.998
			c2.763,8.522,5.95,16.905,8.779,25.407c2.212,6.648,4.06,13.418,6.253,20.074c3.529,10.72,7.276,21.368,10.793,32.092
			c1.301,3.971,3.102,5.228,6.615,3.223c6.553-3.738,13.115-7.54,19.244-11.917c5.755-4.11,11.182-8.756,16.335-13.609
			c5.422-5.106,10.718-10.439,15.385-16.226c4.518-5.601,8.429-11.746,12.12-17.941c3.548-5.955,6.905-12.103,9.549-18.496
			c2.686-6.491,4.644-13.318,6.477-20.117c3.371-12.506,5.475-25.223,5.226-38.248c-0.078-4.071-0.012-8.146-0.012-12.385
			C830.152,149.455,784.082,149.455,737.563,149.455z M573.641,126.382c-0.744,7.772-1.784,14.618-1.982,21.489
			c-0.471,16.323-1.035,32.69,3.786,48.628c1.636,5.405,2.58,11.072,4.713,16.261c3.14,7.639,6.856,15.063,10.695,22.386
			c5.936,11.321,13.508,21.528,22.314,30.788c0.577,0.605,2.674,0.78,3.183,0.272c3.519-3.512,6.729-7.33,10.178-10.913
			c6.024-6.257,12.126-12.439,18.239-18.609c8.301-8.376,16.659-16.695,24.962-25.07c6.802-6.859,13.514-13.811,20.349-20.638
			c8.126-8.117,16.348-16.138,24.514-24.215c3.621-3.583,7.22-7.19,10.802-10.812c2.102-2.125,4.153-4.302,6.018-6.238
			c-6.348-1.434-12.252-3.085-18.266-4.052c-9-1.448-18.085-2.362-27.119-3.603c-8.845-1.215-17.665-2.612-26.511-3.826
			c-10.668-1.465-21.347-2.864-32.031-4.216c-10.23-1.294-20.483-2.408-30.703-3.77c-4.413-0.587-8.76-1.65-13.152-2.407
			C580.549,127.308,577.444,126.93,573.641,126.382z"/>
		<path fill-rule="evenodd" clip-rule="evenodd" d="M166.615,298.541c-9.852,0-19.707,0.152-29.553-0.093
			c-2.961-0.073-5.915-1.176-8.836-1.944c-3.75-0.987-7.461-2.124-11.194-3.176c-1.625-0.458-3.25-0.932-4.899-1.287
			c-8.027-1.731-15.528-5.053-23.191-7.834c-5.149-1.869-9.962-4.66-14.935-7.02c-0.437-0.208-0.942-0.274-1.418-0.396
			c-5.296-1.362-5.37-1.702-4.656-7.156c0.986-7.532,1.604-15.11,2.558-22.646c2.109-16.672,4.166-33.354,6.572-49.984
			c1.228-8.486,2.91-16.932,4.865-25.283c1.384-5.913,3.276-11.75,5.465-17.419c3.322-8.604,6.988-17.08,10.727-25.514
			c1.909-4.308,3.993-8.599,6.534-12.553c3.414-5.309,7.047-10.542,11.142-15.332c4.282-5.009,9.193-9.484,13.883-14.139
			c8.408-8.347,16.648-16.88,25.361-24.898c5.734-5.276,12.19-9.767,18.29-14.65c3.221-2.579,6.561-5.053,9.508-7.922
			c3.886-3.783,5.26-4.121,9.755-1.133c5.479,3.641,11.14,7.041,16.38,11c10.325,7.798,20.508,15.794,30.563,23.939
			c5.477,4.436,10.876,9.049,15.758,14.114c6.783,7.038,13.176,14.467,19.481,21.942c3.792,4.495,7.571,9.125,10.506,14.186
			c3.587,6.187,6.748,12.718,9.24,19.418c2.644,7.107,4.32,14.578,6.358,21.907c1.058,3.807,2.26,7.604,2.923,11.486
			c3.579,20.935,4.853,42.044,4.736,63.272c-0.056,10.216,0.462,20.436,0.71,30.653c0.144,5.972-0.273,6.372-6.026,6.751
			c-1.143,0.075-2.239,0.731-3.377,1.041c-2.575,0.7-5.158,1.374-7.747,2.019c-4.971,1.237-9.934,2.517-14.93,3.647
			c-3.811,0.861-7.688,1.432-11.499,2.291c-6.901,1.555-13.766,3.271-20.667,4.824c-1.688,0.38-3.47,0.321-5.19,0.589
			c-9.381,1.456-18.91,2.328-28.099,4.576c-14.911,3.649-30.016,3.085-45.088,3.684
			C166.621,299.182,166.618,298.861,166.615,298.541z M304.732,216.941c-0.553-5.689-1.141-15.002-2.441-24.214
			c-1.323-9.379-3.379-18.653-5.055-27.982c-1.848-10.28-4.896-20.17-9.961-29.319c-4.417-7.979-8.43-16.346-13.969-23.497
			c-6.591-8.508-14.454-16.067-22.079-23.725c-5.978-6.003-12.195-11.821-18.749-17.18c-5.623-4.598-11.95-8.322-17.827-12.623
			c-7.796-5.707-15.423-11.644-23.201-17.377c-1.721-1.269-3.365-1.779-5.542,0.211c-4.404,4.028-9.296,7.525-14.003,11.22
			c-3.477,2.729-7.15,5.235-10.435,8.176c-5.968,5.341-11.532,11.143-17.593,16.37c-9.305,8.025-17.732,16.825-25.035,26.692
			c-5.328,7.2-11.207,13.999-14.939,22.321c-2.97,6.623-7.287,12.72-9.643,19.522c-4.336,12.521-8.311,25.244-11.236,38.153
			c-2.744,12.114-4.053,24.563-5.772,36.896c-1.187,8.512-1.891,17.089-3.032,25.608c-0.383,2.862,0.921,3.67,3.282,4.293
			c2.567,0.677,5.014,1.794,7.539,2.645c4.369,1.471,8.678,3.264,13.162,4.216c4.649,0.988,5.865,2.246,5.052,6.986
			c-0.946,5.519-1.864,11.044-2.588,16.594c-0.29,2.221-0.892,4.854,2.876,5.173c1.987,0.169,3.924,0.982,5.87,1.553
			c4.208,1.233,8.364,2.669,12.62,3.698c3.781,0.915,7.669,1.38,11.506,2.067c6.497,1.165,12.983,3.284,19.486,3.332
			c14.264,0.105,28.536-0.828,42.803-1.363c0.602-0.021,1.188-0.34,1.794-0.446c6.044-1.06,12.089-2.105,18.136-3.151
			c4.591-0.795,9.188-1.557,13.771-2.389c2.146-0.39,4.254-1.001,6.405-1.357c5.377-0.89,10.811-1.486,16.146-2.579
			c7.123-1.459,14.168-3.289,21.254-4.933c3.563-0.826,7.153-1.546,10.708-2.406c1.26-0.305,2.419-1.072,3.683-1.305
			c4.838-0.888,9.734-1.486,14.539-2.518c2.315-0.497,4.031-1.717,3.793-4.861c-0.642-8.538-1.056-17.1-1.283-25.659
			C304.57,236.053,304.732,228.313,304.732,216.941z M73.841,252.641c-0.934,6.563-1.902,11.959-2.336,17.396
			c-0.111,1.395,1.114,3.733,2.325,4.26c7.575,3.288,15.32,6.186,23.609,9.449c0.967-6.899,1.962-13.503,2.726-20.132
			c0.085-0.745-0.966-2.074-1.781-2.396c-4.826-1.905-9.725-3.629-14.625-5.341C80.611,254.777,77.421,253.804,73.841,252.641z"/>
		<path fill-rule="evenodd" clip-rule="evenodd" d="M195.973,34.756c3.862-7.326,5.301-14.453,6.408-22.446
			c3.345-0.776,7.657-0.732,11.667,1.572c2.732,1.569,1.722,6.01-1.976,8.722c0.743,1.556,1.943,3.083,2.16,4.738
			c0.388,2.966-3.142,6.658-6.408,7.146c-1.231,0.185-2.49,0.239-3.738,0.257C201.485,34.782,198.882,34.756,195.973,34.756z
			 M201.61,32.011c5.122,0.407,8.271-1.289,8.606-4.024c0.37-3.016-2.038-4.461-4.017-4.312
			C200.739,24.085,203.954,29.221,201.61,32.011z M210.879,16.145c-0.337-0.266-1.36-1.072-2.383-1.877
			c-1.165,1.938-2.369,3.854-3.397,5.861c-0.062,0.121,1.266,1.383,1.945,1.381C209.634,21.501,211.207,20.23,210.879,16.145z"/>
		<path fill-rule="evenodd" clip-rule="evenodd" d="M169.783,318.037c1.732,0,3.368,0,5.004,0c-0.269,1.616-0.484,3.243-0.826,4.844
			c-0.2,0.936-0.601,1.827-1.034,3.099c1.227,0.127,2.143,0.29,3.061,0.305c4.388,0.067,5.816,1.684,5.072,5.995
			c-0.91,5.276-6.004,10.334-10.478,9.822c-3.79-0.434-5.241-2.432-4.056-6.067c1.473-4.521,2.911-9.063,4.094-13.665
			C170.913,321.233,170.163,319.829,169.783,318.037z M175.919,329.937c-3.769,0.107-7.356,6.631-5.949,8.931
			c0.298,0.487,1.588,0.876,2.107,0.635c2.859-1.328,5.414-3.131,5.203-6.744C177.214,331.643,176.248,330.581,175.919,329.937z"/>
		<path fill-rule="evenodd" clip-rule="evenodd" d="M42.005,288.928c-0.901,0.98-1.657,2.177-2.73,2.902
			c-3.893,2.634-11.957,1.976-14.122-0.866c-3.08-4.04-3.064-10.031,0.479-14.858c3.761-5.126,9.068-7.018,15.287-5.561
			c1.174,0.275,2.435,0.185,3.997,0.285c-0.185,1.126-0.178,2.104-0.524,2.934c-0.452,1.084-1.184,2.05-1.795,3.066
			c-0.683-0.82-1.568-1.544-2.007-2.478c-1.031-2.192-4.988-2.759-7.873-0.847c-4.313,2.857-7.576,10.7-3.548,16.695
			c1.369,2.036,6.689,1.785,9.058-0.324c0.858-0.763,1.907-1.313,2.869-1.959C41.397,288.254,41.701,288.59,42.005,288.928z"/>
		<path fill-rule="evenodd" clip-rule="evenodd" d="M341.708,271.011c0.908,7.246-1.878,14.566-0.289,22.131
			c-1.824,0-4.202,0-6.177,0c0.389-1.843,0.782-3.705,1.175-5.567c-1.812-0.019-4.013-0.678-5.331,0.121
			c-1.387,0.84-1.931,3.074-2.843,4.699c0.268,0.266,0.535,0.531,0.804,0.797c-1.628,0-3.257,0-5.352,0
			c5.863-7.876,11.4-15.315,16.937-22.755C340.991,270.628,341.35,270.82,341.708,271.011z M337.573,280.184
			c-0.335-0.224-0.671-0.448-1.008-0.672c-1.01,1.36-2.02,2.72-3.569,4.805c2.148-0.126,3.191-0.188,4.345-0.255
			C337.429,282.594,337.501,281.389,337.573,280.184z"/>
		<path fill-rule="evenodd" clip-rule="evenodd" d="M85.111,119.556c0.424,4.084-4.904,7.417-1.495,11.968
			c-1.439,2.186-3.043,3.523-5.731,1.596c-0.404-0.289-1.263,0.093-1.913,0.102c-1.812,0.025-4.383,0.742-5.245-0.16
			c-1.064-1.117-1.264-3.711-0.875-5.452C71.789,118.947,76.806,117.779,85.111,119.556z M72.748,130.144
			c4.374,0.444,8.458-4.393,7.073-7.944c-0.227-0.58-2.336-1.123-2.977-0.724C73.791,123.379,73.208,126.611,72.748,130.144z"/>
		<path fill-rule="evenodd" clip-rule="evenodd" d="M319.928,144.834c0.101,5.211-3.897,4.907-6.209,5.421
			c-1.927,0.43-4.434-0.807-5.342-3.564c-1.917-5.825,5.752-14.072,11.703-12.501c0.971,0.255,2.066,1.403,2.373,2.37
			c0.239,0.754-0.657,1.869-1.049,2.822c-0.955-0.4-1.904-0.816-2.868-1.195c-0.723-0.285-1.506-0.82-2.192-0.727
			c-2.669,0.362-5.392,4.835-4.212,7.243c0.629,1.284,1.603,3.35,3.95,1.712C317.033,145.752,318.269,145.496,319.928,144.834z"/>
		<path fill-rule="evenodd" clip-rule="evenodd" fill="#FFFFFF" d="M733.458,145.928c-4.903-0.723-9.411-1.413-13.925-2.046
			c-6.481-0.908-12.967-1.788-19.453-2.656c-10.162-1.359-20.48-2.011-30.44-4.261c-8.281-1.87-16.542-2.813-24.928-3.611
			c-8.34-0.795-16.595-2.442-24.908-3.565c-10.021-1.354-20.091-2.368-30.084-3.893c-4.669-0.712-9.208-2.275-14.649-3.669
			c1.993-5.601,3.954-11.485,6.185-17.266c1.874-4.856,3.882-9.681,6.172-14.352c1.578-3.217,3.707-6.171,5.652-9.202
			c1.672-2.602,3.345-5.211,5.173-7.703c3.326-4.53,6.621-9.096,10.191-13.431c6.995-8.493,15.276-15.783,24.067-22.203
			c6.847-5,13.553-10.62,22.012-13.192c2.666-0.81,5.009-2.627,7.606-3.73c5.077-2.158,10.144-4.4,15.378-6.106
			c3.97-1.294,8.239-1.636,12.294-2.706c12.745-3.362,25.726-4.32,38.829-3.989c4.909,0.123,4.891,0.294,4.888,5.529
			c-0.012,21.112-0.028,42.224-0.014,63.335c0.015,21.991,0.063,43.982,0.092,65.973
			C733.597,143.794,733.537,144.405,733.458,145.928z M689.873,57.205c-0.802,4.809-1.134,8.646-2.136,12.3
			c-1.034,3.772-2.719,7.367-4.119,11.04c0.234,0.386,0.469,0.772,0.702,1.158c4.404-0.757,8.869-1.275,13.193-2.354
			c2.877-0.718,5.227-6.492,3.335-8.182c-2.796-2.499-1.175-3.51,0.688-5.07c2.457-2.057,2.131-6.128-0.794-6.981
			C696.933,58.005,692.887,57.702,689.873,57.205z M662.102,81.13c4.371,0.085,9.188-5.416,9.24-10.549
			c0.042-4.254-4.126-6.595-8.14-5.268c-3.772,1.247-5.124,4.341-6.571,7.208C655.025,75.705,657.675,82.001,662.102,81.13z
			 M650.328,66.948c0.895,1.185,1.585,2.29,2.497,3.163c0.205,0.196,1.68-0.354,1.724-0.675c0.157-1.172,0.178-2.469-0.197-3.566
			c-0.202-0.588-1.269-1.065-2.027-1.248c-6.499-1.558-11.998,7.798-10.886,12.149c0.91,3.562,4.611,5.629,7.589,3.964
			c1.957-1.094,3.447-3.024,5.147-4.58c-0.213-0.358-0.427-0.716-0.64-1.074c-1.003,0.481-2.097,0.834-2.991,1.468
			c-2.134,1.511-4.914,1.06-5.402-0.99C644.297,72.009,647.014,67.837,650.328,66.948z M681.083,70.904
			c-7.563-0.979-8.109-0.752-7.923,3.138C680.979,74.891,681.128,74.835,681.083,70.904z"/>
		<path fill-rule="evenodd" clip-rule="evenodd" fill="#FFFFFF" d="M616.927,269.998c39.308-39.618,78.201-78.82,117.292-118.22
			c0.648,0.559,1.759,1.044,2.007,1.809c1.43,4.401,2.597,8.886,3.964,13.308c1.916,6.192,3.931,12.354,5.9,18.531
			c1.944,6.096,3.86,12.199,5.835,18.284c1.356,4.178,2.786,8.331,4.194,12.491c1.749,5.17,3.479,10.347,5.273,15.501
			c2.776,7.973,5.669,15.905,8.377,23.9c1.745,5.148,3.192,10.398,4.881,15.568c1.861,5.702,3.857,11.361,5.77,17.048
			c1.336,3.974,2.718,7.937,3.844,11.969c0.158,0.565-0.871,1.939-1.613,2.207c-9.634,3.46-19.23,6.652-29.448,8.58
			c-10.688,2.017-21.283,3.339-32.016,3.03c-8.079-0.232-16.407,0.494-24.151-3.215c-1.913-0.916-4.462-0.395-6.602-0.972
			c-6.823-1.842-13.593-3.886-20.379-5.862c-1.38-0.402-2.834-0.671-4.103-1.304c-6.313-3.15-12.679-6.221-18.824-9.678
			c-4.697-2.643-9.121-5.777-13.608-8.781c-1.742-1.165-3.386-2.499-4.969-3.877C624.658,276.929,620.827,273.469,616.927,269.998z
			 M694.631,223.503c-1.621,6.034-3.139,11.503-4.537,17.002c-0.43,1.694-1.211,4.677-0.662,4.985
			c1.721,0.966,3.989,1.021,6.064,1.252c0.822,0.092,1.721-0.202,2.541-0.457c4.236-1.317,6.714-6.869,5.684-12.546
			c-0.914-5.031-4.66-1.829-7.079-2.48c-0.112-0.03-0.202-0.143-0.301-0.216c0.579-2.378,1.162-4.77,1.837-7.54
			C696.339,223.503,695.159,223.503,694.631,223.503z"/>
		<path fill-rule="evenodd" clip-rule="evenodd" fill="#FFFFFF" d="M737.34,145.641c0-45.626,0-90.963,0-137.354
			c9.061,2.003,17.575,3.62,25.946,5.794c14.454,3.755,28.299,9.102,40.79,17.472c5.946,3.983,11.989,7.886,17.521,12.398
			c4.566,3.724,8.562,8.184,12.598,12.515c4.48,4.808,9.078,9.575,12.966,14.846c4.1,5.557,7.77,11.504,10.99,17.617
			c3.545,6.728,6.872,13.662,9.365,20.83c2.688,7.725,4.328,15.816,6.367,23.764c0.828,3.229,1.402,6.523,2.279,9.736
			c0.687,2.515,0.46,3.545-2.671,3.498c-32.494-0.489-64.992-0.855-97.49-1.163c-11.62-0.111-23.242,0.025-34.863,0.048
			C739.914,145.643,738.688,145.641,737.34,145.641z M780.9,104.359c5.144,0.775,10.522-7.155,8.746-12.209
			c-0.784-2.228-1.842-3.164-4.06-3.5c-6.044-0.913-8.696,3.42-10.579,8.886C773.763,101.155,776.957,104.45,780.9,104.359z
			 M771.532,95.063c1.219-1.904,2.615-3.138,2.456-4.121c-0.144-0.892-1.905-1.973-3.086-2.168
			c-4.522-0.746-7.218,1.728-9.916,6.881c-1.572,3.005-1.183,5.801,0.687,7.36c1.521,1.269,4.726,1.183,6.965,0.693
			c1.459-0.319,2.526-2.433,3.911-3.894c-3.109,0.281-5.828,0.526-8.539,0.771c-0.495-5.188,2.231-9.153,6.16-9.693
			C770.492,91.88,770.817,92.876,771.532,95.063z M804.727,104.019c6.706,0.766,7.665,0.344,9.257-4.002
			c-2.429,0.156-4.902,0.316-7.307,0.47c-1.153-5.474,1.435-7.888,5.208-9.224c0.821,1.112,1.591,2.152,2.568,3.474
			c1.68-2.224,3.338-4.547,0.491-5.497c-2.061-0.689-5.315,0.12-7.219,1.442C803.085,93.905,801.152,98.35,804.727,104.019z
			 M791.545,98.363c2.44,0,4.774,0.15,7.07-0.081c0.798-0.081,1.5-1.106,2.247-1.7c-0.787-0.669-1.486-1.714-2.381-1.921
			c-1.403-0.326-2.938-0.062-4.415-0.093C791.784,94.519,790.902,95.576,791.545,98.363z"/>
		<path fill-rule="evenodd" clip-rule="evenodd" fill="#FFFFFF" d="M737.563,149.455c46.519,0,92.589,0,139.326,0
			c0,4.238-0.066,8.313,0.012,12.385c0.249,13.024-1.854,25.742-5.226,38.248c-1.833,6.799-3.791,13.626-6.477,20.117
			c-2.644,6.394-6.001,12.541-9.549,18.496c-3.691,6.195-7.603,12.341-12.12,17.941c-4.667,5.786-9.963,11.119-15.385,16.226
			c-5.153,4.854-10.58,9.499-16.335,13.609c-6.129,4.377-12.691,8.179-19.244,11.917c-3.514,2.005-5.314,0.748-6.615-3.223
			c-3.517-10.724-7.264-21.372-10.793-32.092c-2.193-6.656-4.041-13.426-6.253-20.074c-2.829-8.502-6.017-16.885-8.779-25.407
			c-3.009-9.284-5.582-18.712-8.588-27.998c-1.968-6.078-4.469-11.981-6.541-18.028c-2.172-6.335-4.108-12.752-6.173-19.125
			C738.541,151.572,738.111,150.744,737.563,149.455z M834.467,198.443c-0.699,2.42-1.313,4.548-1.979,6.853
			c2.009,0,3.923,0,5.779,0c0-7.604,0-14.94,0-22.278c-0.229-0.179-0.459-0.356-0.688-0.535
			c-5.518,7.413-11.035,14.827-17.158,23.052c2.75-0.135,4.282-0.209,5.775-0.281C826.416,198.971,828.006,197.563,834.467,198.443z
			 M800.399,205.533c4.922,0.029,9.599-4.795,9.694-9.786c0.066-3.53-1.684-6.229-6.057-6.091c-3.507,0.11-5.435,2.308-6.768,4.555
			c-1.282,2.163-1.696,5.195-1.508,7.773C795.937,204.381,797.662,206.316,800.399,205.533z M791.039,194.711
			c0.743-0.494,2.19-0.924,2.528-1.788c0.735-1.875-0.241-2.92-2.357-3.15c-5.449-0.591-11.488,5.19-11.033,10.702
			c0.304,3.678,2.116,5.195,6.032,5.053c3.202-0.116,6.032-2.669,5.987-5.565c-1.106,0.595-2.119,1.521-3.218,1.64
			c-1.529,0.165-3.122-0.276-4.688-0.459c0.219-1.459,0.082-3.105,0.734-4.334c1.164-2.194,2.806-4.137,4.247-6.185
			c0.366,0.107,0.731,0.215,1.097,0.322C790.547,191.953,790.727,192.959,791.039,194.711z M820.777,196.641
			c-5.827-2.113-8.975-1.105-8.848,3.368C814.743,198.31,819.003,201.811,820.777,196.641z"/>
		<path fill-rule="evenodd" clip-rule="evenodd" fill="#FFFFFF" d="M573.641,126.382c3.804,0.548,6.908,0.925,9.987,1.455
			c4.393,0.757,8.739,1.819,13.152,2.407c10.22,1.362,20.473,2.476,30.703,3.77c10.685,1.352,21.363,2.751,32.031,4.216
			c8.846,1.214,17.666,2.611,26.511,3.826c9.034,1.241,18.119,2.155,27.119,3.603c6.014,0.967,11.918,2.619,18.266,4.052
			c-1.864,1.937-3.916,4.113-6.018,6.238c-3.582,3.622-7.181,7.229-10.802,10.812c-8.166,8.077-16.388,16.098-24.514,24.215
			c-6.835,6.827-13.547,13.778-20.349,20.638c-8.303,8.375-16.661,16.694-24.962,25.07c-6.113,6.17-12.215,12.353-18.239,18.609
			c-3.449,3.583-6.659,7.401-10.178,10.913c-0.509,0.508-2.605,0.333-3.183-0.272c-8.807-9.26-16.379-19.467-22.314-30.788
			c-3.839-7.322-7.556-14.747-10.695-22.386c-2.133-5.188-3.077-10.855-4.713-16.261c-4.821-15.938-4.257-32.305-3.786-48.628
			C571.856,141,572.896,134.154,573.641,126.382z M633.296,183.1c-3.422,0.256-7.646-1.693-10.666,1.699
			c-2.196,2.469-3.811,5.589-5.139,8.654c-0.987,2.279,0.675,4.123,2.757,4.935c1.004,0.392,2.4-0.186,3.612-0.373
			c1.053-0.163,2.598-0.936,3.056-0.508c2.259,2.11,3.568,0.054,4.237-0.195C631.931,192.15,632.593,187.765,633.296,183.1z"/>
		<path fill-rule="evenodd" clip-rule="evenodd" fill="#FFFFFF" d="M304.732,216.941c0,11.371-0.162,19.111,0.043,26.843
			c0.227,8.56,0.641,17.121,1.283,25.659c0.237,3.145-1.479,4.364-3.793,4.861c-4.805,1.031-9.701,1.63-14.539,2.518
			c-1.264,0.232-2.423,1-3.683,1.305c-3.556,0.86-7.145,1.58-10.708,2.406c-7.086,1.644-14.132,3.474-21.254,4.933
			c-5.334,1.093-10.768,1.689-16.146,2.579c-2.151,0.356-4.259,0.968-6.405,1.357c-4.584,0.832-9.181,1.594-13.771,2.389
			c-6.046,1.046-12.092,2.092-18.136,3.151c-0.606,0.106-1.192,0.425-1.794,0.446c-14.268,0.535-28.54,1.469-42.803,1.363
			c-6.503-0.048-12.989-2.167-19.486-3.332c-3.837-0.688-7.726-1.152-11.506-2.067c-4.256-1.029-8.413-2.465-12.62-3.698
			c-1.945-0.57-3.883-1.384-5.87-1.553c-3.768-0.319-3.167-2.952-2.876-5.173c0.724-5.55,1.642-11.075,2.588-16.594
			c0.813-4.74-0.402-5.998-5.052-6.986c-4.483-0.952-8.792-2.745-13.162-4.216c-2.525-0.851-4.972-1.968-7.539-2.645
			c-2.361-0.623-3.665-1.431-3.282-4.293c1.142-8.52,1.846-17.097,3.032-25.608c1.719-12.333,3.028-24.782,5.772-36.896
			c2.925-12.91,6.899-25.632,11.236-38.153c2.356-6.802,6.673-12.9,9.643-19.522c3.732-8.323,9.611-15.122,14.939-22.321
			c7.302-9.867,15.73-18.667,25.035-26.692c6.061-5.227,11.625-11.028,17.593-16.37c3.285-2.94,6.958-5.446,10.435-8.176
			c4.707-3.695,9.599-7.192,14.003-11.22c2.176-1.99,3.82-1.479,5.542-0.211c7.778,5.733,15.405,11.67,23.201,17.377
			c5.876,4.301,12.204,8.025,17.827,12.623c6.553,5.358,12.771,11.177,18.749,17.18c7.625,7.658,15.488,15.217,22.079,23.725
			c5.539,7.151,9.552,15.517,13.969,23.497c5.065,9.149,8.114,19.04,9.961,29.319c1.676,9.329,3.732,18.603,5.055,27.982
			C303.592,201.939,304.179,211.252,304.732,216.941z"/>
		<path fill-rule="evenodd" clip-rule="evenodd" fill="#FFFFFF" d="M73.841,252.641c3.58,1.163,6.771,2.137,9.917,3.236
			c4.9,1.712,9.8,3.436,14.625,5.341c0.815,0.322,1.866,1.651,1.781,2.396c-0.764,6.629-1.758,13.232-2.726,20.132
			c-8.29-3.264-16.035-6.161-23.609-9.449c-1.211-0.526-2.436-2.865-2.325-4.26C71.938,264.6,72.907,259.204,73.841,252.641z"/>
		<path fill-rule="evenodd" clip-rule="evenodd" fill="#FFFFFF" d="M201.61,32.011c2.344-2.79-0.871-7.926,4.59-8.336
			c1.979-0.149,4.386,1.296,4.017,4.312C209.881,30.723,206.731,32.418,201.61,32.011z"/>
		<path fill-rule="evenodd" clip-rule="evenodd" fill="#FFFFFF" d="M210.879,16.145c0.328,4.085-1.245,5.356-3.835,5.364
			c-0.679,0.002-2.007-1.26-1.945-1.381c1.028-2.007,2.232-3.923,3.397-5.861C209.519,15.073,210.542,15.879,210.879,16.145z"/>
		<path fill-rule="evenodd" clip-rule="evenodd" fill="#FFFFFF" d="M175.919,329.937c0.329,0.645,1.295,1.706,1.36,2.821
			c0.211,3.613-2.344,5.416-5.203,6.744c-0.519,0.241-1.809-0.147-2.107-0.635C168.563,336.567,172.15,330.044,175.919,329.937z"/>
		<path fill-rule="evenodd" clip-rule="evenodd" fill="#FFFFFF" d="M337.573,280.184c-0.072,1.205-0.144,2.41-0.231,3.878
			c-1.154,0.067-2.197,0.129-4.345,0.255c1.549-2.085,2.559-3.444,3.569-4.805C336.902,279.735,337.238,279.96,337.573,280.184z"/>
		<path fill-rule="evenodd" clip-rule="evenodd" fill="#FFFFFF" d="M72.748,130.144c0.461-3.533,1.043-6.765,4.096-8.668
			c0.641-0.399,2.75,0.144,2.977,0.724C81.205,125.751,77.121,130.588,72.748,130.144z"/>
		<path fill-rule="evenodd" clip-rule="evenodd" d="M689.873,57.205c3.014,0.497,7.06,0.8,10.87,1.911
			c2.925,0.853,3.251,4.924,0.794,6.981c-1.863,1.56-3.484,2.571-0.688,5.07c1.892,1.69-0.458,7.464-3.335,8.182
			c-4.324,1.079-8.789,1.598-13.193,2.354c-0.233-0.386-0.468-0.772-0.702-1.158c1.4-3.673,3.085-7.268,4.119-11.04
			C688.739,65.851,689.071,62.014,689.873,57.205z M688.401,77.836c2.357-0.193,4.162-0.114,5.844-0.532
			c2.45-0.608,3.979-2.484,3.136-4.898c-0.418-1.198-2.365-2.317-3.796-2.605c-2.521-0.508-3.394,1.224-3.562,3.591
			C689.94,74.546,689.227,75.655,688.401,77.836z M691.947,67.228c0.505,0.319,1.009,0.639,1.514,0.958
			c1.688-1.124,3.756-1.961,4.911-3.489c0.601-0.796-0.073-3.027-0.827-4.181c-0.384-0.587-3.069-0.627-3.255-0.23
			C693.261,62.484,692.682,64.892,691.947,67.228z"/>
		<path fill-rule="evenodd" clip-rule="evenodd" d="M662.102,81.13c-4.427,0.871-7.076-5.425-5.471-8.608
			c1.447-2.867,2.799-5.961,6.571-7.208c4.014-1.328,8.182,1.014,8.14,5.268C671.29,75.714,666.473,81.215,662.102,81.13z
			 M659.283,73.967c0.836,1.911,1.071,3.666,1.882,3.992c0.994,0.402,3.086,0.035,3.624-0.744c1.674-2.424,3.565-4.938,2.866-8.283
			c-0.494-2.366-2.295-3.262-3.862-1.53C662.007,69.376,660.73,71.81,659.283,73.967z"/>
		<path fill-rule="evenodd" clip-rule="evenodd" d="M650.328,66.948c-3.314,0.889-6.031,5.061-5.187,8.611
			c0.488,2.05,3.269,2.501,5.402,0.99c0.895-0.634,1.988-0.987,2.991-1.468c0.213,0.358,0.427,0.716,0.64,1.074
			c-1.7,1.556-3.19,3.485-5.147,4.58c-2.978,1.665-6.679-0.403-7.589-3.964c-1.112-4.351,4.387-13.707,10.886-12.149
			c0.759,0.183,1.825,0.66,2.027,1.248c0.375,1.097,0.354,2.394,0.197,3.566c-0.044,0.321-1.519,0.871-1.724,0.675
			C651.913,69.237,651.223,68.133,650.328,66.948z"/>
		<path fill-rule="evenodd" clip-rule="evenodd" d="M681.083,70.904c0.045,3.932-0.104,3.987-7.923,3.138
			C672.974,70.152,673.52,69.925,681.083,70.904z"/>
		<path fill-rule="evenodd" clip-rule="evenodd" d="M694.631,223.503c0.528,0,1.708,0,3.547,0c-0.675,2.771-1.258,5.162-1.837,7.54
			c0.099,0.073,0.188,0.186,0.301,0.216c2.419,0.651,6.165-2.551,7.079,2.48c1.03,5.677-1.447,11.229-5.684,12.546
			c-0.82,0.255-1.719,0.549-2.541,0.457c-2.075-0.231-4.344-0.286-6.064-1.252c-0.549-0.309,0.232-3.291,0.662-4.985
			C691.492,235.006,693.01,229.537,694.631,223.503z M692.116,244.184c5.434,0.819,5.651,0.777,8.232-5.095
			c0.5-1.138,0.529-3.311-0.188-3.992c-1.698-1.612-3.951-0.949-4.972,0.967C693.85,238.576,693.128,241.416,692.116,244.184z"/>
		<path fill-rule="evenodd" clip-rule="evenodd" d="M780.9,104.359c-3.943,0.091-7.138-3.204-5.893-6.823
			c1.883-5.466,4.535-9.799,10.579-8.886c2.218,0.335,3.275,1.272,4.06,3.5C791.423,97.204,786.044,105.134,780.9,104.359z
			 M777.706,97.981c0.699,2.567,0.57,4.698,3.42,4.27c3.301-0.495,6.52-7.624,4.745-10.504c-0.383-0.621-2.352-1.122-2.623-0.817
			C781.262,93.157,779.522,95.603,777.706,97.981z"/>
		<path fill-rule="evenodd" clip-rule="evenodd" d="M771.532,95.063c-0.715-2.188-1.04-3.183-1.362-4.17
			c-3.929,0.54-6.655,4.505-6.16,9.693c2.711-0.245,5.43-0.49,8.539-0.771c-1.385,1.46-2.452,3.575-3.911,3.894
			c-2.239,0.489-5.443,0.576-6.965-0.693c-1.869-1.559-2.259-4.355-0.687-7.36c2.698-5.153,5.394-7.627,9.916-6.881
			c1.181,0.195,2.942,1.276,3.086,2.168C774.147,91.925,772.751,93.16,771.532,95.063z"/>
		<path fill-rule="evenodd" clip-rule="evenodd" d="M804.727,104.019c-3.574-5.669-1.642-10.114,2.999-13.336
			c1.903-1.322,5.158-2.131,7.219-1.442c2.847,0.95,1.188,3.273-0.491,5.497c-0.978-1.322-1.747-2.362-2.568-3.474
			c-3.773,1.335-6.361,3.75-5.208,9.224c2.404-0.154,4.878-0.314,7.307-0.47C812.392,104.363,811.433,104.785,804.727,104.019z"/>
		<path fill-rule="evenodd" clip-rule="evenodd" d="M791.545,98.363c-0.643-2.787,0.239-3.844,2.521-3.795
			c1.478,0.031,3.012-0.233,4.415,0.093c0.895,0.208,1.594,1.252,2.381,1.921c-0.747,0.593-1.449,1.619-2.247,1.7
			C796.319,98.514,793.985,98.363,791.545,98.363z"/>
		<path fill-rule="evenodd" clip-rule="evenodd" d="M834.467,198.443c-6.461-0.88-8.051,0.527-8.271,6.81
			c-1.493,0.072-3.025,0.146-5.775,0.281c6.123-8.225,11.641-15.639,17.158-23.052c0.229,0.179,0.459,0.356,0.688,0.535
			c0,7.338,0,14.675,0,22.278c-1.856,0-3.771,0-5.779,0C833.153,202.991,833.768,200.863,834.467,198.443z"/>
		<path fill-rule="evenodd" clip-rule="evenodd" d="M800.399,205.533c-2.737,0.783-4.463-1.152-4.638-3.549
			c-0.188-2.578,0.226-5.61,1.508-7.773c1.333-2.247,3.261-4.444,6.768-4.555c4.373-0.138,6.123,2.561,6.057,6.091
			C809.998,200.738,805.321,205.563,800.399,205.533z M807.36,195.984c-0.996-1.833-1.461-3.782-2.299-3.958
			c-1.113-0.235-3.155,0.571-3.67,1.533c-1.223,2.288-1.91,4.898-2.519,7.45c-0.152,0.64,0.649,1.939,1.315,2.221
			c0.677,0.285,2.096-0.013,2.547-0.573C804.385,200.604,805.767,198.335,807.36,195.984z"/>
		<path fill-rule="evenodd" clip-rule="evenodd" d="M791.039,194.711c-0.313-1.752-0.492-2.758-0.671-3.765
			c-0.365-0.107-0.73-0.215-1.097-0.322c-1.441,2.048-3.083,3.99-4.247,6.185c-0.652,1.229-0.516,2.875-0.734,4.334
			c1.566,0.183,3.159,0.624,4.688,0.459c1.099-0.118,2.111-1.045,3.218-1.64c0.045,2.896-2.785,5.449-5.987,5.565
			c-3.916,0.143-5.729-1.375-6.032-5.053c-0.455-5.512,5.584-11.293,11.033-10.702c2.116,0.23,3.093,1.275,2.357,3.15
			C793.229,193.787,791.782,194.217,791.039,194.711z"/>
		<path fill-rule="evenodd" clip-rule="evenodd" d="M820.777,196.641c-1.774,5.17-6.034,1.669-8.848,3.368
			C811.803,195.535,814.95,194.527,820.777,196.641z"/>
		<path fill-rule="evenodd" clip-rule="evenodd" d="M633.296,183.1c-0.703,4.665-1.365,9.051-2.143,14.212
			c-0.669,0.249-1.979,2.306-4.237,0.195c-0.458-0.428-2.003,0.345-3.056,0.508c-1.212,0.188-2.608,0.765-3.612,0.373
			c-2.082-0.812-3.744-2.655-2.757-4.935c1.328-3.065,2.942-6.186,5.139-8.654C625.65,181.406,629.874,183.355,633.296,183.1z
			 M627.501,184.279c-3.216,2.371-5.742,5.013-6.29,9.026c-0.281,2.051,1.085,2.903,2.754,2.063
			C628.439,193.112,629.617,189.836,627.501,184.279z"/>
		<path fill-rule="evenodd" clip-rule="evenodd" fill="#FFFFFF" d="M688.401,77.836c0.825-2.181,1.539-3.29,1.622-4.444
			c0.168-2.367,1.041-4.099,3.562-3.591c1.431,0.288,3.378,1.408,3.796,2.605c0.844,2.414-0.686,4.29-3.136,4.898
			C692.563,77.722,690.759,77.643,688.401,77.836z"/>
		<path fill-rule="evenodd" clip-rule="evenodd" fill="#FFFFFF" d="M691.947,67.228c0.734-2.336,1.313-4.744,2.343-6.942
			c0.186-0.396,2.871-0.357,3.255,0.23c0.754,1.154,1.428,3.384,0.827,4.181c-1.155,1.528-3.223,2.365-4.911,3.489
			C692.956,67.867,692.452,67.547,691.947,67.228z"/>
		<path fill-rule="evenodd" clip-rule="evenodd" fill="#FFFFFF" d="M659.283,73.967c1.447-2.157,2.724-4.591,4.51-6.565
			c1.567-1.732,3.368-0.836,3.862,1.53c0.699,3.345-1.192,5.859-2.866,8.283c-0.538,0.779-2.63,1.146-3.624,0.744
			C660.354,77.633,660.119,75.878,659.283,73.967z"/>
		<path fill-rule="evenodd" clip-rule="evenodd" fill="#FFFFFF" d="M692.116,244.184c1.012-2.768,1.733-5.607,3.072-8.12
			c1.021-1.916,3.273-2.579,4.972-0.967c0.718,0.682,0.688,2.854,0.188,3.992C697.768,244.961,697.55,245.003,692.116,244.184z"/>
		<path fill-rule="evenodd" clip-rule="evenodd" fill="#FFFFFF" d="M777.706,97.981c1.816-2.378,3.556-4.824,5.542-7.051
			c0.271-0.305,2.24,0.196,2.623,0.817c1.774,2.88-1.444,10.009-4.745,10.504C778.276,102.679,778.405,100.548,777.706,97.981z"/>
		<path fill-rule="evenodd" clip-rule="evenodd" fill="#FFFFFF" d="M807.36,195.984c-1.594,2.351-2.976,4.619-4.625,6.673
			c-0.451,0.561-1.87,0.858-2.547,0.573c-0.666-0.281-1.468-1.581-1.315-2.221c0.608-2.552,1.296-5.162,2.519-7.45
			c0.515-0.962,2.557-1.769,3.67-1.533C805.899,192.202,806.364,194.151,807.36,195.984z"/>
		<path fill-rule="evenodd" clip-rule="evenodd" fill="#FFFFFF" d="M627.501,184.279c2.116,5.557,0.938,8.833-3.536,11.089
			c-1.669,0.841-3.035-0.012-2.754-2.063C621.759,189.292,624.285,186.65,627.501,184.279z"/>
	</g>
</g>
</svg>
