<?xml version="1.0" encoding="utf-8"?>
<!-- Generator: Adobe Illustrator 16.0.0, SVG Export Plug-In . SVG Version: 6.00 Build 0)  -->
<!DOCTYPE svg PUBLIC "-//W3C//DTD SVG 1.1//EN" "http://www.w3.org/Graphics/SVG/1.1/DTD/svg11.dtd">
<svg version="1.1" id="Layer_1" xmlns="http://www.w3.org/2000/svg" xmlns:xlink="http://www.w3.org/1999/xlink" x="0px" y="0px"
	 width="896.375px" height="296.291px" viewBox="0 0 896.375 296.291" enable-background="new 0 0 896.375 296.291"
	 xml:space="preserve">
<g>
	<g>
		<path fill-rule="evenodd" clip-rule="evenodd" fill="#FFFFFF" d="M0.75,297.041c0-98.764,0-197.527,0-296.291
			c298.792,0,597.584,0,896.375,0c0,98.764,0,197.527,0,296.291C598.334,297.041,299.542,297.041,0.75,297.041z M511.498,41.754
			c0,0.153,0,0.306,0,0.459c-28.743,0-57.485-0.007-86.229,0.003c-11.739,0.005-23.479,0.035-35.219,0.093
			c-1.957,0.009-3.958-0.292-3.924,2.952c0.201,19.589,0.186,39.18,0.337,58.77c0.079,10.213,0.41,20.425,0.522,30.639
			c0.233,21.16,0.513,42.321,0.479,63.482c-0.006,3.641,1.601,3.869,4.255,3.79c5.486-0.167,10.973-0.378,16.46-0.399
			c18.59-0.072,37.181-0.046,55.771-0.104c16.859-0.053,33.719-0.209,50.578-0.246c25.109-0.055,50.219,0.003,75.327-0.082
			c16.345-0.055,32.688-0.313,49.034-0.411c9.1-0.056,18.202,0.145,27.301,0.023c9.81-0.129,19.613-0.645,29.423-0.733
			c18.402-0.168,36.807-0.16,55.211-0.207c20.218-0.053,40.436-0.094,60.652-0.121c6.622-0.01,13.243,0.082,19.864,0.034
			c1.805-0.013,3.957,0.228,3.894-2.72c-0.181-8.308-0.353-16.616-0.436-24.924c-0.217-21.532-0.408-43.064-0.566-64.596
			c-0.152-20.955-0.363-41.91-0.26-62.863c0.018-3.436-1.261-4.094-4.055-4.039c-4.747,0.094-9.495,0.174-14.243,0.185
			c-27.226,0.06-54.45,0.098-81.676,0.141c-24.091,0.038-48.183-0.012-72.272,0.138c-19.218,0.12-38.435,0.626-57.652,0.703
			C573.216,41.844,542.357,41.754,511.498,41.754z M131.879,203.198c0-0.073,0-0.146,0-0.22c5.348,0,10.696,0.022,16.043-0.004
			c18.738-0.091,37.475-0.249,56.212-0.267c5.093-0.004,5.154,0.181,5.118-5.063c-0.092-12.861-0.292-25.722-0.36-38.584
			c-0.082-15.142,0.008-30.285-0.133-45.426c-0.072-7.724-0.667-15.444-0.692-23.166c-0.023-7.076,0.603-14.155,0.574-21.231
			c-0.03-7.463-0.686-14.925-0.681-22.387c0.002-3.227-1.035-4.055-4.115-4.008c-12.417,0.186-24.836,0.149-37.254,0.179
			c-10.797,0.026-21.596-0.079-32.391,0.073c-15.024,0.212-30.043,0.692-45.067,0.902c-12.492,0.174-24.988,0.12-37.482,0.177
			c-4.533,0.021-4.964,0.417-4.865,4.956c0.302,13.901,0.733,27.801,0.956,41.703c0.172,10.737,0.114,21.479,0.145,32.218
			c0.073,25.355,0.192,50.711,0.142,76.066c-0.007,3.645,1.341,4.86,4.828,4.668c5.852-0.321,11.716-0.543,17.576-0.562
			C90.914,203.158,111.396,203.198,131.879,203.198z M581.544,227.504c0.419-1.511,1.087-3.768,1.666-6.046
			c0.436-1.718,0.107-3.173-2.05-2.962c-1.687,0.166-3.517-0.211-3.844,2.803c-0.633,5.829-1.634,11.689-3.241,17.32
			c-1.153,4.046,0.213,6.857,4.548,6.879c3.646,0.02,9.669-4.06,10.66-7.512c0.855-2.979,2.014-6.401-0.754-8.774
			C587.148,228.027,584.613,228.188,581.544,227.504z M859.987,110.493c0.038,4.627,2.078,6.068,6.344,4.721
			c1.192-0.375,2.597-0.021,3.888-0.159c1.415-0.151,3.3-0.029,4.075-0.864c0.761-0.821,0.408-2.694,0.498-4.107
			c0.06-0.956-0.14-1.963,0.092-2.866c0.522-2.044,1.435-4.005,1.79-6.068c0.156-0.903-0.524-2.758-1.061-2.852
			C867.238,96.815,859.541,101.039,859.987,110.493z M120.688,230.322c-0.964,0-2.12,0.248-3.121-0.04
			c-6.966-2.007-13.245,5.825-13.542,11.417c-0.089,1.679,0.415,4.623,1.264,4.87c2.004,0.585,4.383-0.066,6.6-0.313
			c0.386-0.044,0.718-0.561,1.075-0.858c0.023,0.308,0.047,0.615,0.071,0.922c1.638,0.212,3.338,0.772,4.887,0.494
			c0.851-0.153,1.976-1.673,2.067-2.66C120.393,239.769,120.467,235.353,120.688,230.322z M243.488,100.446
			c-0.764,0.307-2.744,0.481-3.553,1.546c-2.253,2.965-4.829,6.077-5.785,9.542c-1.345,4.876,0.991,6.568,6.009,5.603
			c1.479-0.284,3.084-0.158,4.6,0.037c3.149,0.404,4.39-1.026,4.013-4.026c-0.211-1.688,0.294-3.626,0.977-5.24
			c2.366-5.591,1.782-6.799-3.927-7.248C245.325,100.622,244.829,100.57,243.488,100.446z M741.573,255.833
			c0.188,0.593,0.376,1.186,0.564,1.779c2.561-0.788,5.12-1.574,7.682-2.361c-0.203-0.637-0.405-1.272-0.607-1.909
			C746.665,254.173,744.12,255.003,741.573,255.833z"/>
		<path fill-rule="evenodd" clip-rule="evenodd" d="M511.498,41.754c30.859,0,61.718,0.09,92.576-0.033
			c19.218-0.077,38.435-0.583,57.652-0.703c24.09-0.149,48.182-0.1,72.272-0.138c27.226-0.043,54.45-0.081,81.676-0.141
			c4.748-0.01,9.496-0.091,14.243-0.185c2.794-0.055,4.072,0.604,4.055,4.039c-0.104,20.953,0.107,41.909,0.26,62.863
			c0.158,21.532,0.35,43.063,0.566,64.596c0.083,8.308,0.255,16.616,0.436,24.924c0.063,2.947-2.089,2.707-3.894,2.72
			c-6.621,0.048-13.242-0.044-19.864-0.034c-20.217,0.027-40.435,0.068-60.652,0.121c-18.404,0.047-36.809,0.039-55.211,0.207
			c-9.81,0.089-19.613,0.604-29.423,0.733c-9.099,0.121-18.201-0.079-27.301-0.023c-16.346,0.098-32.689,0.356-49.034,0.411
			c-25.108,0.085-50.218,0.027-75.327,0.082c-16.859,0.037-33.719,0.193-50.578,0.246c-18.59,0.059-37.181,0.032-55.771,0.104
			c-5.487,0.021-10.974,0.232-16.46,0.399c-2.654,0.079-4.261-0.149-4.255-3.79c0.034-21.161-0.246-42.322-0.479-63.482
			c-0.113-10.214-0.443-20.426-0.522-30.639c-0.151-19.59-0.136-39.181-0.337-58.77c-0.034-3.244,1.967-2.942,3.924-2.952
			c11.74-0.058,23.48-0.088,35.219-0.093c28.744-0.011,57.486-0.003,86.229-0.003C511.498,42.06,511.498,41.907,511.498,41.754z
			 M830.591,196.04c0-8.724,0.033-16.8-0.007-24.876c-0.092-18.604-0.193-37.208-0.344-55.812
			c-0.108-13.441-0.318-26.883-0.448-40.326c-0.082-8.595-0.243-17.193-0.082-25.785c0.073-3.901-1.522-4.954-5.133-4.645
			c-3.475,0.297-6.99,0.138-10.488,0.144c-21.238,0.034-42.478,0.027-63.717,0.097c-18.48,0.061-36.961,0.257-55.441,0.297
			c-17.094,0.038-34.188-0.18-51.282-0.051c-20.565,0.155-41.13,0.684-61.695,0.821c-26.095,0.174-52.19,0.116-78.286,0.16
			c-22.603,0.038-45.206,0.077-67.809,0.119c-13.74,0.026-27.481,0.146-41.22,0.023c-3.178-0.028-4.028,1.014-3.986,4.097
			c0.191,14.098,0.128,28.2,0.211,42.3c0.127,21.344,0.284,42.687,0.457,64.03c0.102,12.568,0.343,25.136,0.332,37.704
			c-0.003,2.981,1.219,3.492,3.831,3.464c15.706-0.169,31.414-0.227,47.121-0.271c21.24-0.061,42.479-0.055,63.718-0.113
			c54.943-0.15,109.887-0.278,164.829-0.505c21.834-0.091,43.668-0.479,65.502-0.619c23.855-0.152,47.711-0.181,71.566-0.25
			C815.571,196.022,822.922,196.04,830.591,196.04z"/>
		<path fill-rule="evenodd" clip-rule="evenodd" d="M131.879,203.198c-20.483,0-40.965-0.04-61.448,0.025
			c-5.86,0.019-11.724,0.24-17.576,0.562c-3.487,0.192-4.835-1.023-4.828-4.668c0.05-25.355-0.069-50.711-0.142-76.066
			c-0.03-10.739,0.028-21.48-0.145-32.218c-0.223-13.902-0.653-27.802-0.956-41.703c-0.099-4.538,0.332-4.935,4.865-4.956
			c12.494-0.057,24.99-0.002,37.482-0.177c15.024-0.209,30.043-0.69,45.067-0.902c10.794-0.152,21.594-0.047,32.391-0.073
			c12.418-0.03,24.838,0.007,37.254-0.179c3.08-0.046,4.117,0.782,4.115,4.008c-0.004,7.462,0.651,14.924,0.681,22.387
			c0.029,7.076-0.597,14.155-0.574,21.231c0.025,7.722,0.62,15.442,0.692,23.166c0.141,15.141,0.052,30.284,0.133,45.426
			c0.069,12.862,0.269,25.723,0.36,38.584c0.037,5.243-0.024,5.059-5.118,5.063c-18.737,0.018-37.475,0.176-56.212,0.267
			c-5.348,0.026-10.696,0.004-16.043,0.004C131.879,203.052,131.879,203.125,131.879,203.198z M52.488,199.082
			c2.214,0.132,4.177,0.358,6.138,0.349c27.967-0.152,55.934-0.378,83.901-0.499c18.734-0.081,37.47,0.013,56.204-0.048
			c6.114-0.02,6.099-0.129,6.046-5.824c-0.173-18.981-0.401-37.963-0.483-56.945c-0.109-25.327-0.101-50.655-0.141-75.982
			c-0.006-4.067,0-8.135,0-12.087c-1.002-0.212-1.363-0.354-1.725-0.356c-15.221-0.083-30.442-0.218-45.663-0.207
			c-16.353,0.013-32.705,0.189-49.058,0.252c-17.357,0.067-34.715,0.136-52.071,0.083c-3.484-0.011-4.547,1.441-4.42,4.759
			c0.407,10.642,0.778,21.29,0.875,31.938c0.223,24.587,0.297,49.176,0.388,73.765C52.529,171.759,52.488,185.237,52.488,199.082z"
			/>
		<path fill-rule="evenodd" clip-rule="evenodd" d="M581.544,227.504c3.069,0.684,5.604,0.523,6.985,1.708
			c2.768,2.373,1.609,5.795,0.754,8.774c-0.991,3.452-7.014,7.531-10.66,7.512c-4.335-0.021-5.701-2.833-4.548-6.879
			c1.607-5.631,2.608-11.491,3.241-17.32c0.327-3.014,2.157-2.637,3.844-2.803c2.157-0.211,2.485,1.244,2.05,2.962
			C582.631,223.736,581.963,225.993,581.544,227.504z M577.059,241.895c6.343,0.889,10.119-3.154,8.613-8.653
			c-0.554-2.025-1.724-2.813-3.876-1.598C577.75,233.927,578.49,238.192,577.059,241.895z"/>
		<path fill-rule="evenodd" clip-rule="evenodd" d="M859.987,110.493c-0.446-9.454,7.251-13.678,15.626-12.196
			c0.536,0.094,1.217,1.949,1.061,2.852c-0.355,2.063-1.268,4.024-1.79,6.068c-0.231,0.903-0.032,1.91-0.092,2.866
			c-0.09,1.414,0.263,3.287-0.498,4.107c-0.775,0.835-2.66,0.713-4.075,0.864c-1.291,0.138-2.695-0.217-3.888,0.159
			C862.065,116.561,860.025,115.12,859.987,110.493z M864.475,111.298c4.267-1.15,7.315-4.43,7.08-8.165
			c-0.057-0.878-1.804-2.473-2.529-2.346C865.411,101.421,862.86,107.65,864.475,111.298z"/>
		<path fill-rule="evenodd" clip-rule="evenodd" d="M120.688,230.322c-0.221,5.03-0.296,9.446-0.7,13.831
			c-0.091,0.987-1.216,2.507-2.067,2.66c-1.549,0.278-3.25-0.282-4.887-0.494c-0.023-0.307-0.047-0.614-0.071-0.922
			c-0.357,0.298-0.689,0.814-1.075,0.858c-2.217,0.247-4.596,0.898-6.6,0.313c-0.85-0.247-1.354-3.191-1.264-4.87
			c0.298-5.592,6.577-13.424,13.542-11.417C118.568,230.57,119.725,230.322,120.688,230.322z M117.055,236.623
			c-1.102-1.816-1.516-3.349-2.373-3.659c-0.778-0.282-2.509,0.479-2.996,1.279c-1.314,2.164-2.356,4.544-3.097,6.963
			c-0.147,0.482,1.526,1.521,2.36,2.303C112.966,241.234,114.983,238.96,117.055,236.623z"/>
		<path fill-rule="evenodd" clip-rule="evenodd" d="M243.488,100.446c1.341,0.124,1.837,0.176,2.334,0.215
			c5.708,0.449,6.292,1.657,3.927,7.248c-0.683,1.614-1.188,3.551-0.977,5.24c0.377,3-0.864,4.43-4.013,4.026
			c-1.516-0.195-3.121-0.321-4.6-0.037c-5.018,0.965-7.354-0.727-6.009-5.603c0.956-3.466,3.532-6.577,5.785-9.542
			C240.744,100.927,242.724,100.753,243.488,100.446z M244.848,102.689c-4.448,1.81-7.341,5.537-7.27,9.023
			c0.05,2.444,1.063,3.081,3.312,2.093C244.937,112.026,246.485,107.945,244.848,102.689z"/>
		<path fill-rule="evenodd" clip-rule="evenodd" d="M741.573,255.833c2.547-0.83,5.092-1.66,7.639-2.491
			c0.202,0.637,0.404,1.272,0.607,1.909c-2.562,0.787-5.121,1.573-7.682,2.361C741.949,257.019,741.762,256.426,741.573,255.833z"/>
		<path fill-rule="evenodd" clip-rule="evenodd" fill="#FFFFFF" d="M830.591,196.04c-7.669,0-15.02-0.018-22.37,0.004
			c-23.855,0.069-47.711,0.098-71.566,0.25c-21.834,0.14-43.668,0.528-65.502,0.619c-54.942,0.227-109.886,0.354-164.829,0.505
			c-21.239,0.059-42.479,0.053-63.718,0.113c-15.708,0.044-31.415,0.102-47.121,0.271c-2.612,0.028-3.834-0.482-3.831-3.464
			c0.011-12.568-0.23-25.136-0.332-37.704c-0.173-21.343-0.33-42.687-0.457-64.03c-0.083-14.101-0.021-28.202-0.211-42.3
			c-0.042-3.083,0.809-4.125,3.986-4.097c13.738,0.123,27.48,0.002,41.22-0.023c22.603-0.042,45.206-0.081,67.809-0.119
			c26.096-0.043,52.191,0.015,78.286-0.16c20.565-0.137,41.13-0.666,61.695-0.821c17.094-0.129,34.188,0.089,51.282,0.051
			c18.48-0.041,36.961-0.237,55.441-0.297c21.239-0.07,42.479-0.063,63.717-0.097c3.498-0.006,7.014,0.154,10.488-0.144
			c3.61-0.309,5.206,0.744,5.133,4.645c-0.161,8.592,0,17.19,0.082,25.785c0.13,13.443,0.34,26.885,0.448,40.326
			c0.15,18.604,0.252,37.208,0.344,55.812C830.624,179.24,830.591,187.316,830.591,196.04z"/>
		<path fill-rule="evenodd" clip-rule="evenodd" fill="#FFFFFF" d="M52.488,199.082c0-13.845,0.041-27.323-0.009-40.802
			c-0.09-24.589-0.165-49.178-0.388-73.765c-0.096-10.648-0.468-21.296-0.875-31.938c-0.127-3.318,0.936-4.771,4.42-4.759
			c17.356,0.053,34.714-0.016,52.071-0.083c16.353-0.063,32.706-0.239,49.058-0.252c15.221-0.012,30.442,0.124,45.663,0.207
			c0.362,0.002,0.723,0.144,1.725,0.356c0,3.953-0.006,8.021,0,12.087c0.04,25.328,0.032,50.655,0.141,75.982
			c0.082,18.982,0.31,37.963,0.483,56.945c0.052,5.695,0.067,5.805-6.046,5.824c-18.734,0.061-37.47-0.033-56.204,0.048
			c-27.967,0.121-55.934,0.347-83.901,0.499C56.665,199.44,54.702,199.214,52.488,199.082z"/>
		<path fill-rule="evenodd" clip-rule="evenodd" fill="#FFFFFF" d="M577.059,241.895c1.432-3.702,0.691-7.968,4.737-10.251
			c2.152-1.216,3.322-0.428,3.876,1.598C587.178,238.74,583.401,242.783,577.059,241.895z"/>
		<path fill-rule="evenodd" clip-rule="evenodd" fill="#FFFFFF" d="M864.475,111.298c-1.614-3.648,0.937-9.877,4.551-10.51
			c0.726-0.127,2.473,1.467,2.529,2.346C871.79,106.869,868.741,110.148,864.475,111.298z"/>
		<path fill-rule="evenodd" clip-rule="evenodd" fill="#FFFFFF" d="M117.055,236.623c-2.071,2.337-4.088,4.611-6.106,6.886
			c-0.834-0.782-2.507-1.82-2.36-2.303c0.74-2.419,1.783-4.799,3.097-6.963c0.487-0.801,2.218-1.562,2.996-1.279
			C115.539,233.274,115.953,234.807,117.055,236.623z"/>
		<path fill-rule="evenodd" clip-rule="evenodd" fill="#FFFFFF" d="M244.848,102.689c1.638,5.256,0.089,9.337-3.958,11.116
			c-2.248,0.988-3.262,0.351-3.312-2.093C237.506,108.226,240.4,104.499,244.848,102.689z"/>
	</g>
</g>
</svg>
