<?xml version="1.0" encoding="utf-8"?>
<!-- Generator: Adobe Illustrator 16.0.0, SVG Export Plug-In . SVG Version: 6.00 Build 0)  -->
<!DOCTYPE svg PUBLIC "-//W3C//DTD SVG 1.1//EN" "http://www.w3.org/Graphics/SVG/1.1/DTD/svg11.dtd">
<svg version="1.1" id="Layer_1" xmlns="http://www.w3.org/2000/svg" xmlns:xlink="http://www.w3.org/1999/xlink" x="0px" y="0px"
	 width="568.579px" height="335.297px" viewBox="0 0 568.579 335.297" enable-background="new 0 0 568.579 335.297"
	 xml:space="preserve">
<g>
	<g>
		<path fill-rule="evenodd" clip-rule="evenodd" fill="#FFFFFF" d="M0.75,0.75c189.527,0,379.053,0,568.579,0
			c0,111.766,0,223.531,0,335.297c-189.526,0-379.052,0-568.579,0C0.75,224.281,0.75,112.516,0.75,0.75z M250.515,217.925
			c10.227,0,19.838,0.016,29.449-0.003c34.203-0.064,68.406-0.211,102.608-0.183c16.477,0.013,28.953-6.494,37.234-21.061
			c3.58-6.296,5.479-12.66,5.654-19.953c0.195-8.104-2.513-15.226-6.714-21.507c-7.804-11.664-18.357-19.57-33.249-19.564
			c-43.61,0.017-87.222,0.07-130.832,0.108c-1.337,0.001-2.674,0-4.801,0c1.357-16.304-0.444-32.205,0.284-48.188
			c8.398,2.461,15.874,4.651,23.35,6.843c0.173-0.335,0.346-0.67,0.519-1.004c-1.811-1.918-3.622-3.837-6.06-6.421
			c10.024,0,18.732,0.022,27.438-0.018c1.796-0.008,4.221,1.296,4.708-1.733c0.034-0.209-3.009-1.299-4.631-1.325
			c-8.717-0.135-17.438-0.064-26.993-0.064c1.058-1.531,1.706-2.755,2.624-3.723c0.998-1.052,2.245-1.866,3.384-2.783
			c-0.25-0.492-0.5-0.984-0.75-1.476c-9.131,3.083-18.263,6.167-27.567,9.308c-0.051,0.422-0.19,1.034-0.186,1.644
			c0.108,15.117,0.142,30.235,0.435,45.349c0.054,2.787-0.465,3.653-3.37,3.648c-35.62-0.061-71.24-0.116-106.858,0.109
			c-10.816,0.069-21.745-1.442-32.131,4.275c-7.292,4.014-12.914,9.456-18.323,15.415c-0.398,0.439-0.801,1.076-0.813,1.629
			c-0.082,3.598-1.658,5.538-5.511,4.91c-0.127,0.774-0.277,1.259-0.275,1.741c0.055,11.987,0.147,23.974,0.188,35.961
			c0.03,8.728-0.018,17.454-0.003,26.181c0.014,8.245,0.146,16.492-0.014,24.734c-0.019,0.966-1.74,2.828-2.355,2.705
			c-4.226-0.854-8.365-2.135-12.537-3.261c-3.186-0.86-5.987-3.575-9.564-2.565c-0.393,0.537-0.786,1.073-1.178,1.61
			c2.066,1.375,4.134,2.75,6.201,4.125c-4.073,0.895-7.64,0.848-11.206,0.909c-3.4,0.059-6.798,0.231-10.197,0.354
			c0.005,0.648,0.01,1.298,0.015,1.947c6.771,2.625,14.062-0.306,21.064,0.964c0.185,3.652-5.575,3.784-4.645,7.864
			c7.997-2.734,15.76-5.39,24.447-8.36c0,3.292-0.164,5.611,0.073,7.89c0.108,1.043,1.003,2.004,1.541,3.001
			c0.514-1.038,1.473-2.075,1.475-3.113c0.038-22.727-0.034-45.453-0.066-68.18c-0.001-1.129,0.17-2.257,0.306-3.937
			c0.833,0.774,1.204,0.961,1.319,1.249c3.034,7.578,8.256,13.05,14.951,17.774c4.446,3.138,9.011,5.104,14.11,5.677
			c3.306,0.373,4.037,1.403,4,4.568c-0.174,14.742-0.092,29.488-0.023,44.232c0.006,1.148,0.618,2.295,0.948,3.443
			c0.495-0.094,0.989-0.188,1.484-0.281c0-1.7,0.05-3.402-0.011-5.1c-0.099-2.743,1.038-4.144,3.832-3.299
			c3.629,1.096,7.182,2.439,10.784,3.628c3.221,1.063,6.465,2.059,9.699,3.084c0.253-0.439,0.508-0.879,0.762-1.318
			c-1.767-2.045-3.535-4.09-5.694-6.589c29.479,0,58.252,0,88.054,0c-2.293,2.872-4.103,5.141-5.914,7.409
			c0.204,0.295,0.407,0.59,0.611,0.886c1.863-0.493,3.785-0.833,5.58-1.507c5.274-1.982,10.48-4.145,15.747-6.146
			c3.305-1.256,4.254-0.59,4.502,2.972c0.061,0.867-0.277,1.807-0.049,2.604c0.326,1.145,1.002,2.19,1.529,3.277
			c0.544-1.017,1.554-2.029,1.562-3.051c0.102-12.372,0.056-24.746,0.049-37.119C250.513,225.532,250.515,221.939,250.515,217.925z
			 M515.171,85.946c-2.755-5.63-2.366-6.498,3.194-8.555c0.689-0.256,0.964-1.634,1.432-2.492c-0.919-0.449-1.967-1.413-2.728-1.224
			c-1.053,0.261-1.791,1.655-2.854,2.058c-0.769,0.292-2.475,0.032-2.683-0.449c-0.962-2.229-2.385-2.029-4.288-1.537
			c-1.361,0.352-2.869,0.199-4.31,0.177c-2.861-0.043-6.294-1.199-8.463-0.013c-4.405,2.408-7.635,6.349-7.793,11.946
			c-0.128,4.541,2.56,6.326,6.676,4.211c1.535-0.789,2.561-1.179,4.262,0.072c2.652,1.95,8.895,0.199,10.738-2.575
			c0.937-1.41,1.776-2.016,3.002-0.132c0.825,1.268,2.311,3.355,3.071,3.183c2.36-0.535,3.547-2.584,3.706-5.522
			C516.902,85.448,516.027,85.699,515.171,85.946z M171.734,281.541c1.163,2.324,2.475,4.185,3.052,6.25
			c1.434,5.129,3.054,6.188,7.466,4.314c-0.402-0.458-0.9-0.868-1.201-1.394c-1.371-2.396-3.064-4.698-3.925-7.274
			c-1.047-3.129,2.458-3.087,3.958-4.335c3.093-2.575,3.043-6.075,0.008-8.643c-3.669-3.104-7.908-2.411-12.06-2.309
			c-0.39,0.01-0.966,1.783-1.055,2.774c-0.198,2.195,0.355,4.571-0.287,6.593c-1.625,5.121-3.739,10.087-5.892,15.73
			c2.225-0.177,4.539-0.359,6.802-0.539C168.378,288.599,167.688,284.973,171.734,281.541z M336.96,74.935
			c-4.433-0.574-8.803-2.526-13.387-0.517c-3.233,1.418-4.964,5.156-3.308,7.96c2.205,3.731,0.451,5.984-1.563,8.927
			c-0.955,1.396-0.731,4.984,0.412,6.132c2.17,2.182,10.904,0.972,13.512-1.104c2.546-2.027,2.407-4.517-0.453-6.233
			c-1.351-0.811-2.928-1.249-4.25-2.096c-0.712-0.456-1.102-1.416-1.636-2.148c0.736-0.345,1.514-1.047,2.204-0.97
			c3.184,0.354,4.342-2.09,5.678-4.066C335.266,79.197,335.888,77.253,336.96,74.935z M464.888,85.897
			c1.716-0.61,2.42-1.122,3.048-1.041c3.313,0.425,4.965-1.401,6.234-4.101c0.744-1.581,1.979-2.935,2.68-4.529
			c0.199-0.453-0.581-1.891-1.117-2.018c-2.278-0.541-4.627-0.964-6.965-1.056c-5.545-0.218-10.204,4.868-8.041,9.141
			c1.861,3.675,0.799,5.897-1.668,8.466c-2.241,2.335-1.385,6.684,1.304,6.983c3.189,0.356,6.471,0.289,9.674-0.009
			c2.992-0.278,4.105-2.986,4.189-5.345c0.036-1.005-2.483-2.164-3.917-3.142C468.784,88.207,467.17,87.298,464.888,85.897z
			 M449.076,76.719c-1.634-3.609-2.578-3.819-6.459-1.959c0,1.883,0.237,3.536-0.053,5.089c-0.495,2.653-1.472,5.219-1.922,7.875
			c-0.154,0.917,0.658,1.996,1.027,3.001c0.813-0.712,1.822-1.294,2.401-2.162c2.349-3.516,4.536-7.139,6.875-10.661
			c0.229-0.345,1.091-0.27,1.862-0.433c0,0.928,0.161,1.677-0.028,2.323c-0.759,2.586-1.803,5.104-2.366,7.727
			c-0.222,1.032,0.336,2.412,0.963,3.349c0.216,0.324,1.945,0.078,2.583-0.42c1.081-0.845,2.778-2.84,2.601-3.063
			c-2.347-2.942,0.085-5.418,0.424-8.085c0.213-1.669-0.285-3.429-0.465-5.148c-1.898,0.226-3.828,0.315-5.678,0.748
			C450.177,75.055,449.706,76.038,449.076,76.719z M366.321,78.241c-0.91,2.797-1.969,5.557-2.66,8.407
			c-0.273,1.131-0.052,2.666,0.562,3.62c0.354,0.551,2.255,0.769,2.9,0.324c1.108-0.762,2.729-2.846,2.483-3.184
			c-2.083-2.885,0.159-5.455,0.164-8.126c0.003-1.688-0.671-3.378-1.042-5.067c-1.949,0.476-3.905,0.927-5.843,1.447
			c-0.413,0.111-0.761,0.467-1.145,0.714c-1.877-3.133-4.146-3.044-6.864-1.575c3.918,5.913-3.07,10.501-1.445,15.923
			c2.854-0.053,3.243-0.416,4.25-3.468C359.027,83.185,361.224,79.782,366.321,78.241z M419.286,73.924
			c-3.225,0-6.267-0.85-8.418,0.173c-4.796,2.283-8.756,5.997-8.374,12.242c0.272,4.467,2.507,5.892,6.572,4.085
			c1.01-0.449,2.372-0.148,3.569-0.116c1.295,0.035,3.106,0.711,3.755,0.105c0.876-0.818,0.971-2.575,1.201-3.962
			c0.532-3.204,0.951-6.425,1.401-9.642C419.105,76.002,419.16,75.186,419.286,73.924z M341.904,85.429
			c2.721-1.469,5.742-2.504,7.89-4.484c1.292-1.191,1.636-3.881,1.521-5.846c-0.036-0.618-3.049-1.719-4.516-1.48
			c-4.998,0.816-9.646,6.756-8.871,12.694c0.477,3.643,2.423,4.93,5.688,4.982c3.589,0.059,6.547-2.366,6.827-5.593
			C347.644,84.651,344.401,90.038,341.904,85.429z M376.29,86.739c-0.083-0.566-0.165-1.131-0.248-1.698
			c0.63-0.286,1.277-0.537,1.886-0.862c2.352-1.255,5.04-2.167,6.906-3.941c1.137-1.08,1-3.5,1.434-5.319
			c-1.586-0.379-3.272-1.307-4.742-1.04c-5.982,1.084-9.798,6.958-8.747,12.946c0.568,3.239,2.682,4.655,6.287,4.214
			c4.506-0.551,5.636-1.741,5.399-5.104C381.751,86.202,379.021,86.471,376.29,86.739z M543.186,79.36
			c0-2.359,0.323-5.039-0.054-5.141c-2.162-0.588-4.59-1.019-6.721-0.555c-1.043,0.227-2.419,2.6-2.27,3.833
			c0.282,2.321,1.65,4.493,2.389,6.785c0.344,1.069,0.271,2.274,0.388,3.417c-1.046-0.462-2.117-0.876-3.131-1.401
			c-0.823-0.427-1.913-1.582-2.294-1.366c-0.837,0.473-1.749,1.582-1.801,2.479c-0.06,1.049,0.459,2.614,1.261,3.139
			c2.218,1.452,7.676,0.679,9.087-0.946c2.44-2.81,2.23-5.61-0.565-9.406c-0.781-1.061-1.302-2.313-1.942-3.478
			c0.297-0.242,0.593-0.483,0.889-0.726C539.698,76.896,540.977,77.799,543.186,79.36z M390.322,74.165
			c-0.261,2.784-0.273,4.778-0.674,6.69c-0.398,1.901-1.467,3.685-1.712,5.588c-0.181,1.411,0.165,4.009,0.832,4.207
			c2.328,0.691,3.096-1.195,3.408-3.239c0.204-1.333,0.508-2.663,0.895-3.956c0.965-3.234,3.907-5.134,7.163-4.707
			c1.507-3.533,1.08-5.244-1.007-4.594c-2.39,0.744-4.307,0.576-6.524-0.29C391.775,73.503,390.457,74.143,390.322,74.165z
			 M91.173,252.365c-0.191,3.157-0.049,5.246-0.504,7.194c-0.55,2.351-1.744,4.546-2.37,6.886c-0.217,0.811,0.429,1.853,0.681,2.789
			c0.953-0.341,2.091-0.47,2.799-1.09c0.554-0.486,0.635-1.567,0.824-2.406c1.227-5.447,2.592-6.706,8.465-7.371
			c0.108-1.697,0.221-3.473,0.37-5.8c-2.154,0.686-3.725,1.622-5.252,1.554C94.549,254.049,92.954,253.032,91.173,252.365z
			 M428.64,68.653c-2.159,1.952-4.147,3.701-6.059,5.532c-0.279,0.268-0.422,1.186-0.225,1.369c2.175,2.018,0.242,3.875-0.174,5.759
			c-0.48,2.173-1.296,4.292-1.554,6.482c-0.112,0.957,0.648,2.764,1.28,2.895c1.096,0.227,2.521-0.346,3.575-0.973
			c0.77-0.458,1.166-1.541,1.7-2.306c-3.176-4.35-1.89-9.307,2.66-11.757C429.44,73.307,429.06,71.092,428.64,68.653z
			 M523.999,74.018c0.143,0.437,0.285,0.874,0.428,1.31c0,1.445,0.248,2.943-0.053,4.322c-0.58,2.662-1.655,5.223-2.137,7.896
			c-0.18,0.995,0.448,2.733,1.22,3.126c0.712,0.362,2.352-0.365,3.137-1.093c0.765-0.708,1.635-2.598,1.304-2.986
			c-2.714-3.189,0.129-5.818,0.581-8.662c0.229-1.441,0.36-2.898,0.535-4.348C527.342,73.729,525.67,73.874,523.999,74.018z
			 M431.233,89.064c0.663,0.525,2.173,1.99,2.366,1.833c1.394-1.132,3.782-3.461,3.539-3.814c-2.67-3.874-0.116-6.785,1.238-10.008
			c0.342-0.813,0.154-2.57-0.371-2.868c-0.927-0.525-2.385-0.537-3.45-0.211c-0.515,0.157-0.771,1.551-0.924,2.422
			c-0.459,2.625-0.765,5.277-1.219,7.902C432.183,85.658,431.765,86.964,431.233,89.064z M527.548,71.157
			c0.762,0,1.522,0.001,2.284,0.002c0.173-1.261,0.643-2.596,0.359-3.746c-0.1-0.406-2.036-0.36-3.134-0.521
			C527.221,68.313,527.385,69.735,527.548,71.157z M441.281,68.701c-1.443-0.81-2.227-1.62-2.836-1.504
			c-0.904,0.171-1.686,0.997-2.52,1.545c0.729,0.752,1.376,1.96,2.216,2.113C438.818,70.979,439.728,69.829,441.281,68.701z"/>
		<path fill-rule="evenodd" clip-rule="evenodd" d="M250.515,217.925c0,4.015-0.001,7.607,0,11.201
			c0.007,12.373,0.053,24.747-0.049,37.119c-0.008,1.021-1.018,2.034-1.562,3.051c-0.527-1.087-1.204-2.133-1.529-3.277
			c-0.228-0.798,0.11-1.737,0.049-2.604c-0.248-3.562-1.197-4.228-4.502-2.972c-5.267,2.001-10.473,4.163-15.747,6.146
			c-1.795,0.674-3.716,1.014-5.58,1.507c-0.204-0.296-0.407-0.591-0.611-0.886c1.811-2.269,3.621-4.537,5.914-7.409
			c-29.802,0-58.576,0-88.054,0c2.16,2.499,3.927,4.544,5.694,6.589c-0.254,0.439-0.508,0.879-0.762,1.318
			c-3.234-1.025-6.478-2.021-9.699-3.084c-3.602-1.188-7.155-2.532-10.784-3.628c-2.794-0.845-3.931,0.556-3.832,3.299
			c0.061,1.697,0.011,3.399,0.011,5.1c-0.495,0.093-0.989,0.188-1.484,0.281c-0.33-1.148-0.942-2.295-0.948-3.443
			c-0.069-14.744-0.151-29.49,0.023-44.232c0.038-3.165-0.694-4.195-4-4.568c-5.099-0.573-9.664-2.539-14.11-5.677
			c-6.695-4.725-11.917-10.196-14.951-17.774c-0.116-0.288-0.486-0.475-1.319-1.249c-0.136,1.68-0.307,2.808-0.306,3.937
			c0.032,22.727,0.104,45.453,0.066,68.18c-0.002,1.038-0.961,2.075-1.475,3.113c-0.538-0.997-1.433-1.958-1.541-3.001
			c-0.236-2.278-0.073-4.598-0.073-7.89c-8.687,2.971-16.451,5.626-24.447,8.36c-0.93-4.08,4.83-4.212,4.645-7.864
			c-7.003-1.27-14.293,1.661-21.064-0.964c-0.005-0.649-0.01-1.299-0.015-1.947c3.399-0.123,6.797-0.296,10.197-0.354
			c3.565-0.062,7.132-0.015,11.206-0.909c-2.067-1.375-4.134-2.75-6.201-4.125c0.393-0.537,0.786-1.073,1.178-1.61
			c3.577-1.01,6.378,1.705,9.564,2.565c4.172,1.126,8.311,2.406,12.537,3.261c0.615,0.123,2.336-1.739,2.355-2.705
			c0.159-8.242,0.027-16.489,0.014-24.734c-0.015-8.727,0.033-17.453,0.003-26.181c-0.042-11.987-0.133-23.975-0.188-35.961
			c-0.002-0.482,0.148-0.967,0.275-1.741c3.853,0.628,5.429-1.312,5.511-4.91c0.013-0.553,0.416-1.19,0.813-1.629
			c5.409-5.958,11.032-11.401,18.323-15.415c10.387-5.717,21.315-4.206,32.131-4.275c35.618-0.226,71.239-0.17,106.858-0.109
			c2.905,0.004,3.424-0.861,3.37-3.648c-0.293-15.114-0.327-30.232-0.435-45.349c-0.004-0.61,0.135-1.222,0.186-1.644
			c9.304-3.142,18.436-6.225,27.567-9.308c0.25,0.492,0.5,0.984,0.75,1.476c-1.139,0.917-2.386,1.731-3.384,2.783
			c-0.918,0.968-1.565,2.192-2.624,3.723c9.555,0,18.276-0.071,26.993,0.064c1.622,0.026,4.665,1.116,4.631,1.325
			c-0.487,3.029-2.912,1.725-4.708,1.733c-8.706,0.04-17.414,0.018-27.438,0.018c2.438,2.584,4.25,4.503,6.06,6.421
			c-0.173,0.334-0.346,0.669-0.519,1.004c-7.476-2.191-14.951-4.381-23.35-6.843c-0.729,15.983,1.073,31.883-0.284,48.188
			c2.127,0,3.464,0.001,4.801,0c43.61-0.038,87.221-0.092,130.832-0.108c14.892-0.006,25.445,7.9,33.249,19.564
			c4.201,6.281,6.909,13.402,6.714,21.507c-0.175,7.293-2.074,13.657-5.654,19.953c-8.281,14.566-20.758,21.073-37.234,21.061
			c-34.202-0.028-68.405,0.118-102.608,0.183C270.353,217.94,260.741,217.925,250.515,217.925z M365.461,214.354
			c0.226-0.271,0.451-0.544,0.676-0.816c-14.294-7.981-23.017-19.459-23.332-36.16c-0.316-16.713,8.703-28.179,22.438-37.555
			c-38.955,0-76.736,0-114.67,0c0,25.264,0,49.809,0,74.531C289.109,214.354,327.286,214.354,365.461,214.354z M140.167,213.467
			c0.126,0.409,0.252,0.819,0.378,1.229c4.667,0,9.334,0.006,14-0.002c29.605-0.044,59.21-0.13,88.815-0.082
			c3.027,0.006,4.03-1.206,3.952-3.955c-0.17-5.973-0.396-11.944-0.435-17.918c-0.098-14.799-0.28-29.601-0.077-44.396
			c0.111-8.032,0.004-8.477-7.848-8.116c-0.25,0.012-0.5,0.027-0.749,0.027c-31.208-0.028-62.417-0.063-93.624-0.072
			c-1.517,0-3.033,0.229-4.55,0.352c14.042,8.585,21.849,20.384,21.979,36.766C162.14,193.686,154.858,205.772,140.167,213.467z
			 M220.885,250.066c0.294-0.249,0.588-0.498,0.882-0.747c2.865,1.041,5.693,2.204,8.604,3.093c4.34,1.324,8.724,2.518,13.12,3.646
			c2.778,0.713,4.011-0.147,3.938-3.385c-0.241-10.711-0.196-21.43-0.178-32.145c0.003-2.049-0.938-2.599-2.757-2.536
			c-2.866,0.1-5.735,0.149-8.604,0.144c-34.987-0.073-69.975-0.162-104.962-0.244c-3.808-0.009-7.615-0.002-11.514-0.002
			c0,12.721-0.037,24.576,0.034,36.432c0.013,2.218,1.213,3.053,3.506,2.249c6.879-2.411,13.795-4.72,20.696-7.067
			c0.238,0.188,0.477,0.375,0.715,0.563c-1.508,2.266-3.017,4.531-4.565,6.856c28.953,0,57.336,0,86.655,0
			C224.314,254.285,222.6,252.176,220.885,250.066z M356.635,193.537c-2.615,3.423-2.139,6.076,0.009,8.189
			c1.891,1.859,4.617,2.923,6.329,4.897c5.675,6.546,14.192,4.843,21.12,7.663c0.637,0.26,1.51,0.187,2.207,0.009
			c3.936-1.006,7.883-1.99,11.762-3.187c2.29-0.707,4.772-1.39,6.613-2.805c2.485-1.91,4.479-4.477,6.604-6.833
			c1.961-2.176,4.314-4.195,5.586-6.738c1.494-2.986,2.381-6.41,2.854-9.741c0.614-4.322,1.975-8.521,0.469-13.186
			c-1.229-3.802-2.532-7.458-4.034-11.159c-1.796-4.422-3.634-7.263-7.426-7.103c-0.644-2.003-0.72-3.668-1.575-4.667
			c-4.556-5.319-11.534-5.788-17.481-8.327c-1.406-0.6-3.11-1.042-4.581-0.845c-4.442,0.596-8.897,1.311-13.231,2.43
			c-3.123,0.806-6.47,1.788-8.981,3.672c-3.509,2.634-6.344,6.171-9.436,9.353c-0.438,0.451-0.811,1.042-1.006,1.636
			c-0.394,1.201-0.312,2.701-1.015,3.634c-2.986,3.961-2.979,4.215,2.847,5.59c-1.338,0.656-1.946,1.118-2.62,1.257
			c-3.247,0.668-3.31,3.764-4.406,5.939c-1.064,2.11-0.292,3.788,2.381,4.092c0.438,0.05,0.838,0.419,2.086,1.081
			c-1.967,0.235-2.969,0.355-4.821,0.578c1.704,5.631,3.306,10.919,4.992,16.491C353.654,194.741,354.624,194.349,356.635,193.537z
			 M114.193,166.069c0.78-0.9,1.315-1.69,2.017-2.285c0.825-0.699,1.793-1.229,2.7-1.833c0.362,1.031,1.003,2.057,1.022,3.094
			c0.028,1.589-0.573,3.188-0.552,4.778c0.066,4.922,0.497,9.845,0.409,14.762c-0.076,4.253,1.022,8.353-0.084,12.847
			c-0.836,3.396-0.069,7.482-0.267,11.299c-0.292,5.627,1.216,6.529,7.059,5.828c3.776-0.454,6.926-3.088,10.161-3.757
			c6.554-1.354,9.48-6.377,13.403-10.319c3.955-3.975,6.321-9.199,7.029-14.831c0.616-4.902,0.995-9.9,0.747-14.818
			c-0.129-2.545-1.643-5.118-2.895-7.487c-1.784-3.379-3.474-6.966-5.987-9.762c-3.072-3.417-6.809-6.306-10.545-9.031
			c-1.911-1.393-4.376-2.362-6.719-2.748c-3.587-0.591-7.356-0.138-10.915-0.825c-3.451-0.667-6.202,1.639-9.752,1.299
			c-2.636-0.252-5.596,2.819-8.399,4.432c-0.768,0.442-1.466,1.004-2.236,1.44c-1.911,1.082-4.01,1.912-5.715,3.248
			c-1.312,1.028-2.228,2.616-3.153,4.061c-0.75,1.17-1.251,2.5-1.863,3.758c-0.977,2.014-2.173,3.849-3.251,5.751
			c-0.296,0.521-0.116,1.297-0.373,1.857c-0.456,0.994-1.416,1.857-1.579,2.87c-2.052,12.732,1.298,23.932,9.81,33.594
			c1.827,2.074,3.342,4.75,6.843,3.95c2.184,5.148,7.627,3.811,11.437,5.723c1.22,0.612,2.547,1.01,4.741,1.861
			c-1.672-5.364,1.763-10.544-2.115-13.953c0.527-2.382,1.318-4.585,1.432-6.824c0.14-2.743-0.443-5.519-0.432-8.278
			c0.016-4.291,0.385-8.582,0.347-12.872c-0.01-1.186-0.929-2.362-1.54-3.797c0.29-0.251,1.044-0.903,2.101-1.819
			C115.903,166.789,115.143,166.469,114.193,166.069z"/>
		<path fill-rule="evenodd" clip-rule="evenodd" d="M515.171,85.946c0.856-0.247,1.731-0.498,2.963-0.852
			c-0.159,2.938-1.346,4.988-3.706,5.522c-0.761,0.173-2.246-1.915-3.071-3.183c-1.226-1.884-2.065-1.278-3.002,0.132
			c-1.844,2.774-8.086,4.524-10.738,2.575c-1.701-1.25-2.727-0.861-4.262-0.072c-4.116,2.115-6.804,0.33-6.676-4.211
			c0.158-5.597,3.388-9.539,7.793-11.946c2.169-1.186,5.602-0.03,8.463,0.013c1.44,0.022,2.948,0.174,4.31-0.177
			c1.903-0.492,3.326-0.692,4.288,1.537c0.208,0.481,1.914,0.741,2.683,0.449c1.063-0.403,1.802-1.797,2.854-2.058
			c0.761-0.189,1.809,0.775,2.728,1.224c-0.468,0.858-0.742,2.236-1.432,2.492C512.805,79.448,512.416,80.316,515.171,85.946z
			 M503.789,75.503c-1.048,3.426-1.66,5.572-2.364,7.687c-0.618,1.857-0.088,3.132,1.917,2.93c1.666-0.167,4.178-0.542,4.688-1.604
			c0.817-1.703,0.79-4.228,0.149-6.065C507.761,77.255,505.62,76.66,503.789,75.503z M490.408,85.902
			c5.24,1.282,6.602-1.849,7.915-4.51c0.637-1.292,0.252-3.088,0.329-4.656c-1.762,0.349-4.358,0.107-5.109,1.17
			C492.019,80.061,491.493,82.922,490.408,85.902z"/>
		<path fill-rule="evenodd" clip-rule="evenodd" d="M171.734,281.541c-4.046,3.432-3.356,7.058-3.133,11.169
			c-2.263,0.18-4.577,0.362-6.802,0.539c2.153-5.644,4.267-10.609,5.892-15.73c0.642-2.021,0.088-4.397,0.287-6.593
			c0.089-0.991,0.665-2.765,1.055-2.774c4.152-0.103,8.391-0.796,12.06,2.309c3.035,2.567,3.085,6.067-0.008,8.643
			c-1.499,1.248-5.004,1.206-3.958,4.335c0.861,2.576,2.554,4.878,3.925,7.274c0.3,0.525,0.799,0.936,1.201,1.394
			c-4.413,1.874-6.033,0.814-7.466-4.314C174.209,285.726,172.897,283.865,171.734,281.541z M171.955,279.109
			c4.637,0.071,6.978-1.347,6.425-4.267c-0.268-1.415-1.919-3.15-3.32-3.62C173.29,270.629,171.65,274.734,171.955,279.109z"/>
		<path fill-rule="evenodd" clip-rule="evenodd" d="M336.96,74.935c-1.072,2.318-1.694,4.262-2.791,5.885
			c-1.336,1.976-2.494,4.42-5.678,4.066c-0.69-0.077-1.468,0.625-2.204,0.97c0.534,0.732,0.924,1.692,1.636,2.148
			c1.322,0.847,2.899,1.285,4.25,2.096c2.86,1.716,2.999,4.206,0.453,6.233c-2.607,2.076-11.342,3.286-13.512,1.104
			c-1.144-1.148-1.367-4.737-0.412-6.132c2.015-2.943,3.769-5.196,1.563-8.927c-1.656-2.804,0.074-6.542,3.308-7.96
			C328.157,72.409,332.527,74.361,336.96,74.935z M326.732,84.981c1.504-2.83,2.634-4.604,3.315-6.537
			c0.137-0.388-1.403-1.945-2.219-1.985c-2.738-0.137-3.498,2.114-3.581,4.216C324.207,81.713,325.415,82.8,326.732,84.981z
			 M325.232,97.246c2.009-1.374,3.352-2.291,4.694-3.209c-2.035-0.877-4.018-1.967-6.139-2.496
			c-0.591-0.147-1.595,1.367-2.408,2.119C322.516,94.718,323.652,95.774,325.232,97.246z"/>
		<path fill-rule="evenodd" clip-rule="evenodd" d="M464.888,85.897c2.282,1.4,3.896,2.31,5.421,3.351
			c1.434,0.979,3.953,2.137,3.917,3.142c-0.084,2.358-1.197,5.067-4.189,5.345c-3.203,0.297-6.484,0.365-9.674,0.009
			c-2.688-0.3-3.545-4.648-1.304-6.983c2.467-2.569,3.529-4.791,1.668-8.466c-2.163-4.273,2.496-9.359,8.041-9.141
			c2.338,0.092,4.687,0.515,6.965,1.056c0.536,0.127,1.316,1.565,1.117,2.018c-0.701,1.594-1.936,2.948-2.68,4.529
			c-1.27,2.7-2.922,4.525-6.234,4.101C467.308,84.776,466.604,85.287,464.888,85.897z M470.419,92.925
			c-2.15-0.707-4.141-1.672-6.212-1.9c-0.924-0.102-2.011,1.275-3.023,1.981c0.688,0.93,1.231,2.474,2.091,2.675
			C465.83,96.28,468.701,96.917,470.419,92.925z M471.908,79.305c-1.894-1.642-2.757-3.022-3.783-3.154
			c-2.488-0.322-3.545,1.718-3.712,3.733c-0.085,1.021,1.115,2.148,1.733,3.228C467.743,82.057,469.339,81.002,471.908,79.305z"/>
		<path fill-rule="evenodd" clip-rule="evenodd" d="M449.076,76.719c0.63-0.681,1.101-1.664,1.766-1.82
			c1.85-0.433,3.779-0.522,5.678-0.748c0.18,1.719,0.678,3.479,0.465,5.148c-0.339,2.667-2.771,5.143-0.424,8.085
			c0.178,0.223-1.52,2.219-2.601,3.063c-0.638,0.498-2.367,0.744-2.583,0.42c-0.627-0.938-1.185-2.317-0.963-3.349
			c0.563-2.623,1.607-5.14,2.366-7.727c0.189-0.646,0.028-1.395,0.028-2.323c-0.771,0.163-1.633,0.088-1.862,0.433
			c-2.339,3.522-4.526,7.145-6.875,10.661c-0.579,0.868-1.589,1.45-2.401,2.162c-0.369-1.005-1.182-2.084-1.027-3.001
			c0.45-2.657,1.427-5.222,1.922-7.875c0.29-1.554,0.053-3.206,0.053-5.089C446.498,72.899,447.442,73.109,449.076,76.719z"/>
		<path fill-rule="evenodd" clip-rule="evenodd" d="M366.321,78.241c-5.098,1.542-7.294,4.944-8.64,9.015
			c-1.007,3.052-1.396,3.415-4.25,3.468c-1.625-5.421,5.363-10.01,1.445-15.923c2.718-1.469,4.987-1.558,6.864,1.575
			c0.384-0.248,0.731-0.604,1.145-0.714c1.938-0.52,3.894-0.971,5.843-1.447c0.371,1.689,1.045,3.378,1.042,5.067
			c-0.005,2.671-2.247,5.241-0.164,8.126c0.245,0.338-1.375,2.422-2.483,3.184c-0.646,0.444-2.546,0.227-2.9-0.324
			c-0.613-0.955-0.835-2.489-0.562-3.62C364.353,83.798,365.411,81.038,366.321,78.241z"/>
		<path fill-rule="evenodd" clip-rule="evenodd" d="M419.286,73.924c-0.126,1.261-0.181,2.078-0.293,2.887
			c-0.45,3.216-0.869,6.438-1.401,9.642c-0.23,1.387-0.325,3.144-1.201,3.962c-0.648,0.606-2.46-0.071-3.755-0.105
			c-1.197-0.032-2.56-0.333-3.569,0.116c-4.065,1.807-6.3,0.382-6.572-4.085c-0.382-6.245,3.578-9.959,8.374-12.242
			C413.02,73.074,416.062,73.924,419.286,73.924z M414.361,78.132c-0.226-0.231-0.902-1.556-1.765-1.69
			c-2.648-0.413-5.875,3.994-5.892,8.057c-0.002,0.706,1.097,1.995,1.737,2.027C411.305,86.672,414.157,82.971,414.361,78.132z"/>
		<path fill-rule="evenodd" clip-rule="evenodd" d="M341.904,85.429c2.497,4.608,5.739-0.778,8.539,0.274
			c-0.28,3.227-3.238,5.651-6.827,5.593c-3.265-0.053-5.211-1.34-5.688-4.982c-0.775-5.938,3.873-11.878,8.871-12.694
			c1.467-0.239,4.479,0.862,4.516,1.48c0.114,1.964-0.229,4.654-1.521,5.846C347.646,82.925,344.625,83.96,341.904,85.429z
			 M342.631,80.556c0.297,0.338,0.594,0.678,0.89,1.016c1.653-1.306,3.305-2.611,4.957-3.916c-0.288-0.363-0.575-0.726-0.862-1.089
			C344.723,76.256,342.978,77.476,342.631,80.556z"/>
		<path fill-rule="evenodd" clip-rule="evenodd" d="M376.29,86.739c2.73-0.268,5.461-0.537,8.175-0.803
			c0.236,3.363-0.894,4.552-5.399,5.104c-3.605,0.441-5.719-0.975-6.287-4.214c-1.051-5.988,2.765-11.862,8.747-12.946
			c1.47-0.267,3.156,0.661,4.742,1.04c-0.434,1.819-0.297,4.239-1.434,5.319c-1.866,1.773-4.555,2.686-6.906,3.941
			c-0.608,0.325-1.256,0.577-1.886,0.862C376.125,85.607,376.207,86.173,376.29,86.739z M382.546,76.919
			c-0.268-0.329-0.535-0.659-0.804-0.988c-1.872,1.356-3.745,2.712-6.374,4.615C380.093,81.354,381.891,80.172,382.546,76.919z"/>
		<path fill-rule="evenodd" clip-rule="evenodd" d="M543.186,79.36c-2.209-1.561-3.487-2.464-4.765-3.367
			c-0.296,0.242-0.592,0.484-0.889,0.726c0.641,1.165,1.161,2.417,1.942,3.478c2.796,3.795,3.006,6.596,0.565,9.406
			c-1.411,1.625-6.869,2.398-9.087,0.946c-0.802-0.525-1.32-2.09-1.261-3.139c0.052-0.897,0.964-2.006,1.801-2.479
			c0.381-0.215,1.471,0.939,2.294,1.366c1.014,0.525,2.085,0.939,3.131,1.401c-0.116-1.143-0.044-2.347-0.388-3.417
			c-0.738-2.292-2.106-4.464-2.389-6.785c-0.149-1.234,1.227-3.606,2.27-3.833c2.131-0.464,4.559-0.033,6.721,0.555
			C543.509,74.322,543.186,77.001,543.186,79.36z"/>
		<path fill-rule="evenodd" clip-rule="evenodd" d="M390.322,74.165c0.135-0.022,1.453-0.662,2.381-0.3
			c2.218,0.866,4.135,1.034,6.524,0.29c2.087-0.65,2.514,1.061,1.007,4.594c-3.256-0.428-6.198,1.473-7.163,4.707
			c-0.387,1.293-0.69,2.622-0.895,3.956c-0.313,2.044-1.08,3.93-3.408,3.239c-0.667-0.198-1.013-2.796-0.832-4.207
			c0.245-1.904,1.313-3.687,1.712-5.588C390.049,78.943,390.062,76.949,390.322,74.165z"/>
		<path fill-rule="evenodd" clip-rule="evenodd" d="M91.173,252.365c1.78,0.667,3.375,1.684,5.013,1.756
			c1.527,0.068,3.098-0.868,5.252-1.554c-0.148,2.327-0.262,4.103-0.37,5.8c-5.874,0.665-7.238,1.924-8.465,7.371
			c-0.189,0.839-0.27,1.92-0.824,2.406c-0.708,0.62-1.847,0.749-2.799,1.09c-0.252-0.937-0.898-1.979-0.681-2.789
			c0.626-2.34,1.82-4.535,2.37-6.886C91.125,257.611,90.982,255.522,91.173,252.365z"/>
		<path fill-rule="evenodd" clip-rule="evenodd" d="M428.64,68.653c0.42,2.439,0.801,4.654,1.205,7.001
			c-4.55,2.45-5.836,7.407-2.66,11.757c-0.534,0.765-0.931,1.849-1.7,2.306c-1.055,0.627-2.479,1.2-3.575,0.973
			c-0.632-0.131-1.393-1.938-1.28-2.895c0.258-2.191,1.073-4.31,1.554-6.482c0.416-1.883,2.349-3.741,0.174-5.759
			c-0.197-0.183-0.055-1.101,0.225-1.369C424.492,72.354,426.48,70.605,428.64,68.653z"/>
		<path fill-rule="evenodd" clip-rule="evenodd" d="M523.999,74.018c1.671-0.145,3.343-0.29,5.015-0.434
			c-0.175,1.45-0.307,2.906-0.535,4.348c-0.452,2.843-3.295,5.472-0.581,8.662c0.331,0.388-0.539,2.278-1.304,2.986
			c-0.785,0.728-2.425,1.455-3.137,1.093c-0.771-0.393-1.399-2.131-1.22-3.126c0.481-2.673,1.557-5.233,2.137-7.896
			c0.301-1.379,0.053-2.877,0.053-4.322C524.284,74.892,524.142,74.455,523.999,74.018z"/>
		<path fill-rule="evenodd" clip-rule="evenodd" d="M431.233,89.064c0.531-2.101,0.949-3.406,1.18-4.744
			c0.454-2.625,0.76-5.277,1.219-7.902c0.152-0.872,0.409-2.265,0.924-2.422c1.065-0.326,2.523-0.314,3.45,0.211
			c0.525,0.298,0.713,2.055,0.371,2.868c-1.354,3.223-3.908,6.134-1.238,10.008c0.243,0.354-2.146,2.683-3.539,3.814
			C433.406,91.054,431.896,89.589,431.233,89.064z"/>
		<path fill-rule="evenodd" clip-rule="evenodd" d="M527.548,71.157c-0.163-1.422-0.327-2.844-0.49-4.266
			c1.098,0.161,3.034,0.116,3.134,0.521c0.283,1.15-0.187,2.485-0.359,3.746C529.07,71.158,528.31,71.157,527.548,71.157z"/>
		<path fill-rule="evenodd" clip-rule="evenodd" d="M441.281,68.701c-1.554,1.127-2.463,2.277-3.14,2.154
			c-0.84-0.153-1.486-1.361-2.216-2.113c0.834-0.548,1.615-1.374,2.52-1.545C439.055,67.081,439.838,67.891,441.281,68.701z"/>
		<path fill-rule="evenodd" clip-rule="evenodd" fill="#FFFFFF" d="M365.461,214.354c-38.175,0-76.352,0-114.888,0
			c0-24.723,0-49.268,0-74.531c37.934,0,75.715,0,114.67,0c-13.735,9.376-22.755,20.841-22.438,37.555
			c0.315,16.701,9.038,28.179,23.332,36.16C365.912,213.81,365.687,214.082,365.461,214.354z"/>
		<path fill-rule="evenodd" clip-rule="evenodd" fill="#FFFFFF" d="M140.167,213.467c14.691-7.694,21.973-19.781,21.842-36.168
			c-0.13-16.382-7.937-28.181-21.979-36.766c1.517-0.123,3.033-0.352,4.55-0.352c31.208,0.009,62.416,0.044,93.624,0.072
			c0.249,0,0.499-0.015,0.749-0.027c7.852-0.36,7.959,0.084,7.848,8.116c-0.203,14.795-0.021,29.598,0.077,44.396
			c0.04,5.974,0.265,11.945,0.435,17.918c0.078,2.749-0.925,3.961-3.952,3.955c-29.605-0.048-59.21,0.038-88.815,0.082
			c-4.667,0.008-9.333,0.002-14,0.002C140.419,214.286,140.293,213.876,140.167,213.467z"/>
		<path fill-rule="evenodd" clip-rule="evenodd" fill="#FFFFFF" d="M220.885,250.066c1.715,2.109,3.43,4.219,5.573,6.856
			c-29.319,0-57.702,0-86.655,0c1.548-2.325,3.057-4.591,4.565-6.856c-0.238-0.188-0.477-0.376-0.715-0.563
			c-6.901,2.348-13.817,4.656-20.696,7.067c-2.293,0.804-3.493-0.031-3.506-2.249c-0.071-11.855-0.034-23.711-0.034-36.432
			c3.898,0,7.706-0.007,11.514,0.002c34.987,0.082,69.975,0.171,104.962,0.244c2.868,0.006,5.737-0.044,8.604-0.144
			c1.818-0.063,2.76,0.487,2.757,2.536c-0.019,10.715-0.063,21.434,0.178,32.145c0.073,3.237-1.16,4.098-3.938,3.385
			c-4.396-1.128-8.78-2.321-13.12-3.646c-2.912-0.889-5.739-2.052-8.604-3.093C221.473,249.568,221.179,249.817,220.885,250.066z"/>
		<path fill-rule="evenodd" clip-rule="evenodd" fill="#FFFFFF" d="M356.635,193.537c-2.011,0.812-2.98,1.204-4.757,1.922
			c-1.687-5.572-3.288-10.86-4.992-16.491c1.853-0.223,2.854-0.343,4.821-0.578c-1.248-0.662-1.648-1.031-2.086-1.081
			c-2.673-0.304-3.445-1.981-2.381-4.092c1.097-2.175,1.159-5.271,4.406-5.939c0.674-0.139,1.282-0.602,2.62-1.257
			c-5.826-1.375-5.833-1.628-2.847-5.59c0.703-0.933,0.621-2.433,1.015-3.634c0.195-0.594,0.568-1.185,1.006-1.636
			c3.092-3.182,5.927-6.719,9.436-9.353c2.512-1.884,5.858-2.866,8.981-3.672c4.334-1.12,8.789-1.834,13.231-2.43
			c1.471-0.198,3.175,0.245,4.581,0.845c5.947,2.54,12.926,3.008,17.481,8.327c0.855,0.999,0.932,2.663,1.575,4.667
			c3.792-0.16,5.63,2.681,7.426,7.103c1.502,3.702,2.806,7.357,4.034,11.159c1.506,4.664,0.146,8.863-0.469,13.186
			c-0.473,3.331-1.359,6.755-2.854,9.741c-1.271,2.543-3.625,4.563-5.586,6.738c-2.125,2.356-4.118,4.923-6.604,6.833
			c-1.841,1.415-4.323,2.098-6.613,2.805c-3.879,1.196-7.826,2.181-11.762,3.187c-0.697,0.178-1.57,0.251-2.207-0.009
			c-6.928-2.82-15.445-1.117-21.12-7.663c-1.712-1.975-4.438-3.038-6.329-4.897C354.496,199.613,354.02,196.96,356.635,193.537z"/>
		<path fill-rule="evenodd" clip-rule="evenodd" fill="#FFFFFF" d="M114.193,166.069c0.95,0.4,1.71,0.72,2.885,1.214
			c-1.057,0.916-1.811,1.568-2.101,1.819c0.61,1.435,1.529,2.611,1.54,3.797c0.038,4.29-0.331,8.581-0.347,12.872
			c-0.011,2.76,0.572,5.535,0.432,8.278c-0.114,2.239-0.905,4.442-1.432,6.824c3.878,3.409,0.443,8.589,2.115,13.953
			c-2.194-0.852-3.521-1.249-4.741-1.861c-3.81-1.912-9.253-0.574-11.437-5.723c-3.501,0.8-5.017-1.876-6.843-3.95
			c-8.512-9.662-11.862-20.861-9.81-33.594c0.164-1.013,1.124-1.875,1.579-2.87c0.257-0.56,0.077-1.336,0.373-1.857
			c1.078-1.902,2.274-3.737,3.251-5.751c0.611-1.258,1.113-2.587,1.863-3.758c0.925-1.445,1.841-3.033,3.153-4.061
			c1.706-1.336,3.805-2.166,5.715-3.248c0.77-0.436,1.468-0.999,2.236-1.44c2.803-1.613,5.763-4.684,8.399-4.432
			c3.55,0.34,6.302-1.966,9.752-1.299c3.558,0.687,7.328,0.233,10.915,0.825c2.343,0.385,4.809,1.355,6.719,2.748
			c3.736,2.725,7.473,5.613,10.545,9.031c2.513,2.795,4.203,6.382,5.987,9.762c1.251,2.369,2.766,4.942,2.895,7.487
			c0.249,4.918-0.13,9.916-0.747,14.818c-0.708,5.632-3.074,10.856-7.029,14.831c-3.923,3.942-6.85,8.966-13.403,10.319
			c-3.235,0.669-6.385,3.303-10.161,3.757c-5.843,0.701-7.351-0.201-7.059-5.828c0.198-3.816-0.569-7.902,0.267-11.299
			c1.106-4.494,0.009-8.594,0.084-12.847c0.088-4.917-0.343-9.84-0.409-14.762c-0.021-1.591,0.581-3.189,0.552-4.778
			c-0.019-1.038-0.66-2.063-1.022-3.094c-0.906,0.604-1.875,1.134-2.7,1.833C115.508,164.379,114.973,165.169,114.193,166.069z
			 M124.359,152.953c-4.861,0.11-0.16,5.436-3.301,6.485C125.62,159.164,122.335,154.61,124.359,152.953z"/>
		<path fill-rule="evenodd" clip-rule="evenodd" fill="#FFFFFF" d="M503.789,75.503c1.831,1.157,3.972,1.751,4.39,2.948
			c0.641,1.838,0.668,4.362-0.149,6.065c-0.51,1.063-3.021,1.437-4.688,1.604c-2.005,0.202-2.535-1.073-1.917-2.93
			C502.129,81.076,502.741,78.93,503.789,75.503z"/>
		<path fill-rule="evenodd" clip-rule="evenodd" fill="#FFFFFF" d="M490.408,85.902c1.085-2.98,1.61-5.841,3.135-7.997
			c0.751-1.063,3.348-0.821,5.109-1.17c-0.077,1.568,0.308,3.364-0.329,4.656C497.01,84.053,495.648,87.184,490.408,85.902z"/>
		<path fill-rule="evenodd" clip-rule="evenodd" fill="#FFFFFF" d="M171.955,279.109c-0.305-4.375,1.334-8.48,3.104-7.887
			c1.401,0.47,3.052,2.205,3.32,3.62C178.933,277.763,176.592,279.181,171.955,279.109z"/>
		<path fill-rule="evenodd" clip-rule="evenodd" fill="#FFFFFF" d="M326.732,84.981c-1.317-2.181-2.525-3.269-2.484-4.306
			c0.083-2.102,0.843-4.353,3.581-4.216c0.815,0.04,2.355,1.597,2.219,1.985C329.366,80.377,328.236,82.152,326.732,84.981z"/>
		<path fill-rule="evenodd" clip-rule="evenodd" fill="#FFFFFF" d="M325.232,97.246c-1.58-1.472-2.717-2.528-3.853-3.585
			c0.813-0.752,1.817-2.267,2.408-2.119c2.121,0.529,4.104,1.618,6.139,2.496C328.584,94.955,327.241,95.873,325.232,97.246z"/>
		<path fill-rule="evenodd" clip-rule="evenodd" fill="#FFFFFF" d="M470.419,92.925c-1.718,3.991-4.589,3.355-7.145,2.756
			c-0.859-0.202-1.403-1.745-2.091-2.675c1.013-0.706,2.1-2.083,3.023-1.981C466.278,91.253,468.269,92.218,470.419,92.925z"/>
		<path fill-rule="evenodd" clip-rule="evenodd" fill="#FFFFFF" d="M471.908,79.305c-2.569,1.698-4.165,2.752-5.762,3.807
			c-0.618-1.08-1.818-2.207-1.733-3.228c0.167-2.015,1.224-4.055,3.712-3.733C469.151,76.283,470.015,77.663,471.908,79.305z"/>
		<path fill-rule="evenodd" clip-rule="evenodd" fill="#FFFFFF" d="M414.361,78.132c-0.204,4.839-3.057,8.541-5.919,8.395
			c-0.641-0.033-1.739-1.321-1.737-2.027c0.017-4.063,3.243-8.47,5.892-8.057C413.459,76.576,414.136,77.901,414.361,78.132z"/>
		<path fill-rule="evenodd" clip-rule="evenodd" fill="#FFFFFF" d="M342.631,80.556c0.347-3.08,2.092-4.299,4.984-3.989
			c0.287,0.363,0.574,0.726,0.862,1.089c-1.652,1.305-3.304,2.61-4.957,3.916C343.225,81.233,342.928,80.894,342.631,80.556z"/>
		<path fill-rule="evenodd" clip-rule="evenodd" fill="#FFFFFF" d="M382.546,76.919c-0.655,3.253-2.453,4.435-7.178,3.626
			c2.629-1.903,4.502-3.259,6.374-4.615C382.011,76.26,382.278,76.59,382.546,76.919z"/>
		<path fill-rule="evenodd" clip-rule="evenodd" d="M124.359,152.953c-2.024,1.658,1.26,6.211-3.301,6.485
			C124.199,158.389,119.498,153.063,124.359,152.953z"/>
	</g>
</g>
</svg>
