<?xml version="1.0" encoding="utf-8"?>
<!-- Generator: Adobe Illustrator 16.0.0, SVG Export Plug-In . SVG Version: 6.00 Build 0)  -->
<!DOCTYPE svg PUBLIC "-//W3C//DTD SVG 1.1//EN" "http://www.w3.org/Graphics/SVG/1.1/DTD/svg11.dtd">
<svg version="1.1" id="Layer_1" xmlns="http://www.w3.org/2000/svg" xmlns:xlink="http://www.w3.org/1999/xlink" x="0px" y="0px"
	 width="927.629px" height="319.545px" viewBox="0 0 927.629 319.545" enable-background="new 0 0 927.629 319.545"
	 xml:space="preserve">
<g>
	<g>
		<path fill-rule="evenodd" clip-rule="evenodd" fill="#FFFFFF" d="M5.75,320.295c0-106.515,0-213.03,0-319.545
			c307.543,0,615.086,0,922.629,0c0,106.515,0,213.03,0,319.545C620.836,320.295,313.293,320.295,5.75,320.295z M235.249,261.011
			c2.735-2.452,5.471-4.904,8.971-8.042c-3.656-0.178-6.121-0.469-8.569-0.369c-2.415,0.098-2.869,1.309-1.968,3.517
			c1.69-0.376,3.349-0.744,5.268-1.171c-1.479,2.506-2.553,4.326-3.626,6.146c-0.723,0.393-1.423,0.837-2.176,1.161
			c-0.665,0.286-1.388,0.438-2.085,0.648c-0.954,0.011-2-0.234-2.844,0.076c-3.114,1.146-4.501,0.215-4.24-3.277
			c3.682,0.164,6.845-0.753,7.953-4.952c-1.105-3.109-3.459-2.779-6.03-2.004c-2.449,0.738-5.977,5.257-5.85,8.394
			c0.06,1.485,1.022,3.501,2.219,4.254c2.462,1.552,6.76,0.039,8.815-2.514c-0.473,1.804-0.091,2.89,2.089,2.748
			c1.479-0.096,2.977-0.063,4.458,0.034c3.421,0.228,4.358-1.322,3.418-4.535C237.875,264.066,236.488,264.008,235.249,261.011z
			 M739.161,254.878c-2.694,2.623-5.39,5.246-8.352,8.128c3.08,2.337,6.207,1.722,8.942,1.005c1.11-0.29,1.646-2.775,2.444-4.263
			c-0.305-0.166-0.608-0.333-0.913-0.499c-1.739,0.632-3.478,1.263-5.756,2.09c1.649-2.546,2.816-4.349,3.984-6.151
			c1.501-1.241,3.002-2.482,4.701-3.889c-5.594-2.401-9.516-1.229-10.59,2.842C735.304,255.535,738.098,249.431,739.161,254.878z
			 M520.882,117.612c-0.19-0.832-0.665-1.715-0.523-2.486c0.579-3.13,1.348-6.227,2.047-9.336c-0.556-0.216-1.11-0.432-1.665-0.648
			c-0.63,1.127-1.455,2.191-1.847,3.396c-0.621,1.916-0.923,3.932-1.415,5.892c-0.835,3.336-1.782,6.647-2.506,10.005
			c-0.12,0.558,0.652,1.308,1.013,1.97c0.456-0.481,1.019-0.898,1.349-1.454c0.969-1.634,1.898-3.297,2.735-5.001
			c0.366-0.745,0.473-1.618,0.711-2.42c1.489-0.365,2.979-0.729,4.06-0.995c-0.683,3.371-1.338,6.604-1.994,9.836
			c0.511,0.255,1.021,0.51,1.53,0.765c0.865-1.158,1.976-2.211,2.524-3.503c0.513-1.205,0.539-2.661,0.576-4.012
			c0.054-1.932,0.041-3.886-0.254-5.783c-0.044-0.283-2.155-0.766-2.656-0.357C523.156,114.633,522.087,116.205,520.882,117.612z
			 M726.376,294.896c1.539,1.818,7.197,3.214,9.391,1.866c1.084-0.666,1.491-2.436,2.692-4.576c-2.736,1.013-4.183,1.549-5.63,2.084
			c-0.22-0.354-0.439-0.708-0.659-1.062c2.502-2.979,5.005-5.957,7.732-9.204c-8.262-1.262-10.751-0.262-10.581,3.869
			c1.685-0.647,3.365-1.293,5.046-1.938c0.176,0.347,0.353,0.694,0.528,1.04c-1.406,1.669-2.685,3.475-4.26,4.964
			c-1.278,1.21-2.914,2.042-4.392,3.042c0.03-0.222,0.061-0.442,0.091-0.662c-0.912,0.114-1.822,0.302-2.737,0.325
			c-1.854,0.049-4.178,0.861-4.375-2.434c2.05-0.735,4.324-1.085,5.976-2.29c1.325-0.969,1.896-2.972,2.801-4.516
			c-1.562-0.619-3.126-1.749-4.686-1.741c-2.635,0.015-5.954,4.228-6.511,7.347c-0.715,4.012,1.011,6.25,4.855,7.09
			C723.224,297.037,724.79,295.975,726.376,294.896z M452.899,47.835c-0.832-0.125-2.115-0.476-3.399-0.484
			c-9.239-0.062-18.478-0.077-27.716-0.067c-19.228,0.021-38.456,0.082-57.684,0.092c-6.344,0.003-12.765-0.738-19.009,0.023
			c-6.552,0.797-12.945,2.949-19.389,4.583c-7.747,1.964-15.47,4.017-23.208,6.012c-4.304,1.11-8.629,2.137-12.923,3.281
			c-6.785,1.807-13.521,3.796-20.332,5.497c-7.873,1.965-15.854,3.506-23.696,5.581c-11.28,2.985-22.435,6.439-33.719,9.405
			c-9.978,2.622-20.075,4.788-30.079,7.317c-1.416,0.358-3.145,1.337-3.796,2.536c-3.25,5.983-6.213,12.124-9.23,18.231
			c-3.565,7.217-7.095,14.452-10.619,21.689c-2.389,4.905-4.686,9.855-7.123,14.736c-4.263,8.538-8.628,17.025-12.875,25.571
			c-0.473,0.951-0.9,2.338-0.535,3.161c0.292,0.655,1.811,0.988,2.812,1.053c1.603,0.104,3.228-0.21,4.844-0.216
			c27.988-0.11,55.977-0.219,83.966-0.292c47.357-0.124,94.715-0.218,142.073-0.335c13.978-0.035,27.956-0.066,41.932-0.173
			c12.824-0.098,25.647-0.27,38.471-0.471c2.331-0.037,4.657-0.373,6.986-0.571c-0.051-0.404-0.103-0.811-0.153-1.217
			c-1.806-0.124-3.611-0.248-6.354-0.438c2.383-7.365,4.625-14.294,6.867-21.224c-0.34-0.125-0.68-0.25-1.02-0.375
			c-1.511,1.481-3.023,2.963-4.534,4.445c-0.407-0.167-0.815-0.333-1.222-0.5c0-29.249,0-58.499,0-88.238
			c2.137,1.62,4.144,3.142,6.152,4.664c0.256-1.284-0.021-2.17-0.35-3.038c-2.188-5.792-4.456-11.558-6.493-17.402
			C451.311,50.008,452.359,48.902,452.899,47.835z M871.807,173.095c-3.581-7.072-6.49-12.716-9.304-18.406
			c-2.347-4.747-4.455-9.614-6.898-14.309c-3.269-6.283-6.851-12.402-10.128-18.681c-2.85-5.461-5.415-11.069-8.193-16.569
			c-4.854-9.606-9.739-19.198-14.68-28.761c-3.112-6.023-6.359-11.978-9.523-17.975c-1.597-3.025-3.516-5.952-4.6-9.156
			c-0.905-2.677-2.41-3.987-4.964-4.097c-4.729-0.204-9.468-0.281-14.201-0.258c-20.845,0.098-41.69,0.261-62.535,0.377
			c-7.222,0.041-14.444-0.05-21.665,0.035c-7.186,0.084-14.386,0.646-21.548,0.315c-2.929-0.135-4.488,0.864-5.634,2.954
			c-2.851,5.2-5.605,10.459-8.213,15.785c-3.911,7.99-7.593,16.092-11.502,24.083c-4.503,9.206-9.212,18.311-13.714,27.517
			c-5.927,12.125-11.734,24.31-17.603,36.463c-2.783,5.765-5.622,11.503-8.375,17.283c-2.025,4.253-1.507,5.069,3.148,5.057
			c18.101-0.051,36.201-0.024,54.299-0.223c15.921-0.175,31.838-0.706,47.76-0.878c5.207-0.057,10.424,0.787,15.632,0.74
			c5.821-0.052,11.634-0.875,17.455-0.955c10.484-0.144,20.972,0.062,31.458,0.038c23.713-0.051,47.425-0.147,71.137-0.238
			C863.315,173.223,867.215,173.148,871.807,173.095z M318.805,204.931c3.159-0.241,6.392-0.249,9.537-0.779
			c6.061-1.023,6.713-2.285,5.151-8.05c-0.256-0.945-0.149-2.292,0.359-3.093c2.648-4.174,1.62-7.41-3.106-8.272
			c-2.446-0.445-5.04-0.079-7.391-0.079C324.644,192.2,321.182,197.907,318.805,204.931z M672.079,210.099
			c4.466,0.723,8.64,1.36,12.884-1.376c4.062-2.62,4.766-4.836,1.861-8.591c0.777-1.056,1.601-2.081,2.322-3.175
			c1.518-2.307,0.053-6.019-2.709-6.293c-3.004-0.297-6.059-0.067-8.727-0.067C677.889,197.876,676.406,204.092,672.079,210.099z
			 M265.69,193.299c0.398-0.178,0.797-0.355,1.196-0.533c0.737,1.148,1.475,2.297,2.645,4.118c0.456-1.93,0.758-3.205,1.15-4.867
			c-1.646,0-2.751-0.002-3.856,0.001c-4.339,0.012-5.282,1.735-3.218,5.768c0.843,1.646,1.565,3.355,2.712,5.836
			c-3.401-0.989-5.868-1.707-8.424-2.451c0.332-1.363,0.747-2.788,1.014-4.241c0.282-1.535,0.423-3.097,0.653-4.861
			c-1.372,0-2.352,0.044-3.327-0.006c-5.774-0.303-10.414,5.172-9.153,10.82c0.646,2.894,2.233,3.427,4.823,1.978
			c0.946-0.53,2.326-0.285,3.575-0.4c1.721,0.24,3.204,0.307,4.61,0.672c2.844,0.74,5.906,1.505,7.719-1.409
			c1.417-2.279,1.161-4.833-1.329-6.879C265.743,196.237,265.927,194.512,265.69,193.299z M279.943,265.06
			c0.513,0.412,1.025,0.825,1.538,1.237c1.306-1.108,3.381-2.01,3.75-3.371c0.644-2.382,0.369-5.056,0.211-7.59
			c-0.066-1.06-0.818-2.077-1.257-3.114c-3.266,2.128-6.792,0.77-10.219,0.779c-0.587,0.001-1.201,0.352-1.758,0.264
			c-1.437-0.226-2.848-0.607-3.437-0.74c-0.923,4.783-1.687,8.744-2.446,12.68c3.174,0.071,2.895-0.018,3.811-2.9
			c0.843-2.651,2.374-5.084,3.603-7.612c0.486,0.224,0.972,0.446,1.458,0.67c-0.883,3.303-1.765,6.605-2.647,9.907
			c0.474,0.243,0.947,0.486,1.42,0.729c0.933-1.323,1.913-2.614,2.787-3.976c1.557-2.424,3.049-4.891,4.567-7.339
			c0.261,0.156,0.522,0.313,0.783,0.47C281.384,258.455,280.664,261.757,279.943,265.06z M86.726,280.401
			c-3.225-0.168-5.183-0.773-6.272,2.409c-0.537,1.568-3.011,2.474-4.608,3.68c-0.195-0.181-0.391-0.361-0.586-0.541
			c0.624-1.826,1.248-3.651,1.885-5.517c-1.538,0-3.247,0-4.093,0c-1.766,6.788-3.437,13.214-5.147,19.789c1.359,0,3.313,0,4.684,0
			c0.363-3.124,0.68-5.845,0.996-8.566c0.519-0.109,1.038-0.219,1.556-0.327c1.123,2.776,2.246,5.554,3.465,8.566
			c1.6,0,3.873,0,6.003,0c-2.861-3.847-5.506-7.403-8.182-11.001C79.712,286.185,82.831,283.613,86.726,280.401z M769.004,296.132
			c2.24,1.365,3.362,0.372,3.968-2.048c1.009-4.034,2.861-6.179,5.17-6.675c-0.531,2.952-1.098,6.104-1.665,9.254
			c0.36,0.248,0.721,0.495,1.08,0.743c1.268-0.866,2.535-1.731,3.803-2.598c-2.98-3.24,0.662-5.593,0.984-8.38
			c0.101-0.875-1.427-2.646-2.364-2.761c-1.323-0.164-2.791,0.827-4.196,1.324c0.044-0.223,0.088-0.445,0.132-0.668
			c-2.142-0.138-4.282-0.275-6.424-0.413c0.013,0.168,0.025,0.335,0.038,0.503c-1.709-0.329-3.42-0.658-4.286-0.824
			c-0.756,4.722-1.422,8.888-2.088,13.055c0.294,0.148,0.59,0.297,0.884,0.446c2.353-3.796,4.704-7.592,7.057-11.388
			c0.342,0.196,0.683,0.395,1.024,0.592c-0.486,1.563-0.966,3.127-1.46,4.688C770.165,292.545,769.656,294.104,769.004,296.132z
			 M50.118,280.523c0.457,1.032,1.25,1.934,1.093,2.615c-0.796,3.458-2.429,6.833-2.582,10.29c-0.098,2.215,1.257,5.619,3.009,6.581
			c5.208,2.861,10.287-0.067,12-5.807c1.4-4.69,3.225-9.255,4.931-14.07c-1.583,0-3.17,0-3.977,0
			c-1.254,5.13-2.19,9.91-3.642,14.528c-0.849,2.7-2.995,4.771-6.149,3.755c-2.549-0.821-3.317-3.071-2.577-5.69
			c1.152-4.069,2.317-8.134,3.521-12.357c-0.721,0.047-1.57,0.126-2.421,0.149C52.339,280.545,51.35,280.523,50.118,280.523z
			 M278.568,278.442c0.441,5.528,0.441,5.528-4.695,6.922c-4.557,1.235-8.178,9.309-5.659,13.197
			c0.577,0.89,2.596,1.075,3.975,1.147c1.325,0.068,2.679-0.431,4.021-0.681c0.395,0.376,0.79,0.751,1.184,1.125
			c0.487-1.623,1.022-3.232,1.444-4.871c0.396-1.535,0.596-3.121,1.014-4.648c1.088-3.984,2.249-7.95,3.457-12.191
			C281.503,278.442,280.172,278.442,278.568,278.442z M506.18,124.199c3.015-2.961,6.03-5.925,9.046-8.888
			c-0.174-0.461-0.35-0.923-0.523-1.384c-3.384-0.587-6.92-1.47-10.247-0.011c-2.596,1.139-4.469,3.848-2.54,6.574
			c2.192,3.1,0.904,4.689-1.162,6.831c-0.815,0.846-1.374,3.109-0.836,3.89c2.205,3.194,5.563,2.76,8.686,1.616
			c1.84-0.674,4.104-1.566,3.606-4.254c-0.596-3.225-3.306-3.814-5.982-4.32C506.149,124.237,506.098,124.084,506.18,124.199z
			 M779.161,243.258c0,1.67,0.248,3.083-0.085,4.343c-0.23,0.867-1.128,1.792-1.967,2.217c-1.812,0.918-4.008,1.202-5.631,2.339
			c-3.146,2.203-4.245,5.525-3.63,9.303c0.469,2.879,2.199,3.461,4.84,2.054c0.706-0.377,1.864,0.079,2.812,0.179
			c1.076,0.112,2.784,0.722,3.1,0.293c0.839-1.14,1.309-2.694,1.483-4.138c0.153-1.271-0.716-2.73-0.393-3.903
			c1.146-4.165,2.608-8.244,4.059-12.686C781.991,243.258,780.685,243.258,779.161,243.258z M50.49,247.42
			c-0.753,3.572-1.611,6.604-1.975,9.692c-0.287,2.445-0.97,5.757,0.26,7.307c5.009,6.313,11.458,3.152,13.912-2.179
			c2.126-4.62,3.136-9.755,4.742-14.994c-1.429,0.065-2.711,0.125-3.154,0.146c-1.37,5.22-2.322,9.903-3.88,14.377
			c-0.913,2.623-3.301,3.761-6.285,3.152c-3.057-0.623-2.808-3.026-2.396-4.975c0.896-4.23,2.22-8.371,3.363-12.526
			C53.86,247.42,51.897,247.42,50.49,247.42z M580.02,115.637c0.484,0.165,0.97,0.33,1.453,0.494
			c-0.574,2.49-1.205,4.969-1.688,7.478c-0.147,0.769-0.181,2,0.258,2.337c0.621,0.478,1.832,0.622,2.6,0.357
			c0.845-0.292,1.473-1.211,2.195-1.857c-0.375-0.096-0.75-0.193-1.126-0.29c0.415-3.471,0.83-6.941,1.391-11.626
			c-3.317,1.207-5.705,2.076-7.604,2.767c0.598-3.295,1.188-6.551,1.79-9.868c-4.166-0.366-4.111-0.375-3.585,2.85
			c0.132,0.812-0.117,1.724-0.346,2.548c-1.205,4.351-2.537,8.669-3.631,13.048c-0.201,0.805,0.489,1.833,0.769,2.758
			c0.648-0.586,1.466-1.066,1.917-1.777C576.341,121.821,578.16,118.716,580.02,115.637z M464.646,126.222
			c1.712,1.133,2.975,0.832,3.63-1.968c0.848-3.625,3.617-5.737,6.486-7.767c-0.335,2.785-1.217,5.276-1.7,7.843
			c-0.153,0.814,0.757,1.828,1.18,2.75c1.025-0.879,2.595-1.581,2.951-2.676c0.564-1.74,0.484-3.752,0.369-5.631
			c-0.108-1.767-0.615-3.51-0.946-5.264c-1.495,0.632-2.981,1.283-4.492,1.876c-0.304,0.119-0.693,0.017-1.453,0.017
			c0.759-3.302,1.479-6.438,2.406-10.472c-2.45,0.774-3.575,1.13-4.699,1.485c0.312,0.164,0.624,0.329,0.937,0.494
			C467.789,113.22,466.264,119.53,464.646,126.222z M231.32,204.14c1.782,0.511,4.002,1.907,5.83,1.509
			c3.497-0.763,6.206-3.304,7.667-6.659c1.901-4.366-0.002-6.959-4.812-6.963c-0.777,0-1.555-0.111-2.274-0.167
			c0.744-2.448,1.402-4.617,2.16-7.113c-1.958,0-3.37,0-3.883,0C234.476,191.083,233.051,196.979,231.32,204.14z M66.441,266.56
			c2.429,0.323,4.816,1.304,6.73,0.725c2.288-0.693,4.548-2.398,6.13-4.254c1.861-2.184-0.295-4.112-1.637-5.771
			c-1.188-1.468-2.9-2.541-3.94-4.086c-0.612-0.908-0.627-2.45-0.387-3.6c0.113-0.54,1.665-1.336,2.2-1.118
			c1.104,0.448,2.055,1.417,2.894,2.331c0.58,0.632,0.866,1.532,1.284,2.313c0.287-0.096,0.573-0.192,0.859-0.288
			c0.229-1.732,0.458-3.465,0.674-5.101c-1.483-0.257-2.953-0.095-3.832-0.738c-3.289-2.411-5.923,0.084-7.405,1.822
			c-1.383,1.622-1.691,4.833,1.207,6.783c1.461,0.984,2.841,2.356,3.709,3.869c0.717,1.247,1.188,3.181,0.708,4.388
			c-0.34,0.856-2.558,1.553-3.737,1.318c-1.115-0.223-2.159-1.633-2.872-2.751c-0.458-0.718-0.26-1.854-0.441-3.651
			C65.53,261.4,66.585,264.149,66.441,266.56z M207.688,285.691c-0.05,7.465-2.736,13.411-4.517,19.496c1.241,0,2.884,0,4.634,0
			c-1.302-2.455-1.238-4.985,1.571-4.901c4.762,0.141,6.562-3.332,8.905-6.07c2.211-2.584,1.123-8.27-1.354-8.464
			C213.75,285.501,210.536,285.691,207.688,285.691z M182.168,279.254c-5.405,0-10.126,0-15.387,0
			c-0.326,1.657-0.688,3.495-1.139,5.793c2.195-1.729,3.697-2.911,5.2-4.095c0.311,0.285,0.623,0.57,0.933,0.855
			c-1.297,6.228-1.774,12.731-6.527,17.945c2.698,0,5.303,0,7.781,0c-0.478-1.766-1.51-3.417-1.168-4.702
			c1.204-4.514,2.879-8.903,4.458-13.585c3.304-1.816,2.918,2.101,4.644,4.299C181.428,283.253,181.747,281.528,182.168,279.254z
			 M743.736,26.948c7.353,0.378,11.84-5.287,11.385-10.217c-0.326-3.543-2.126-4.61-5.444-3.109
			c-0.481,0.218-1.448,0.302-1.658,0.033c-2.029-2.601-3.556-0.58-4.674-0.057c1.069,7.149-2.78,12.635-4.527,18.953
			c1.776-0.146,3.327-0.272,4.919-0.403C743.736,30.305,743.736,28.749,743.736,26.948z M680.229,249.684
			c0.341-0.054,0.681-0.107,1.021-0.161c0.246-1.807,0.492-3.612,0.782-5.738c-4.342,0-8.197,0.211-12.018-0.063
			c-3.525-0.253-4.178,1.773-4.833,5.352c2.51-1.354,4.309-2.324,6.107-3.294c0.28,0.25,0.56,0.5,0.84,0.75
			c-1.941,5.944-3.883,11.89-5.892,18.043c1.794,0,3.682,0,5.291,0c0.115-2.181-0.097-4.178,0.383-5.993
			c0.981-3.722,2.19-7.402,3.63-10.969c0.368-0.911,1.949-1.333,3.103-2.061C679.357,247.408,679.793,248.546,680.229,249.684z
			 M697.915,304.223c1.632,0,3.244,0,5.537,0c-2.735-4.918,0.679-6.286,3.835-6.93c3.694-0.755,5.743-3.244,6.98-6.08
			c0.749-1.72,0.141-4.479-0.745-6.349c-1.077-2.274-3.105-1.686-4.903-0.252c-0.342,0.272-1.243-0.115-1.874-0.25
			c-1.357-0.289-2.708-0.612-3.516-0.796C703.479,291.305,700.483,297.432,697.915,304.223z M684.584,14.281
			c0.648-3.153,1.206-5.865,1.764-8.577c-0.402-0.256-0.806-0.514-1.209-0.77c-0.99,0.897-2.598,1.64-2.867,2.716
			c-1.389,5.581-2.438,11.246-3.682,17.252c3.328,2.962,5.406,3.361,8.661,0.911c2.622-1.974,4.203-4.591,4.206-8.042
			C691.462,13.432,689.379,12.092,684.584,14.281z M207.775,252.685c-1.794,6.997-3.382,13.187-5.01,19.533c1.274,0,2.924,0,4.399,0
			c0.177-2.519-1.967-6.268,2.279-6.168c5.63,0.132,7.349-3.62,9.253-7.394c1.259-2.495-0.537-5.805-3.018-5.935
			C212.723,252.566,209.754,252.685,207.775,252.685z M707.388,269.945c-0.102-1.76-0.188-3.272-0.297-5.186
			c6.033,1.039,8.528-2.581,11.075-6.928c1.788-3.052,0.985-5.309-1.025-6.941c-1.031-0.836-3.479,0.073-5.969,0.238
			c-0.818-0.146-2.489-0.446-3.088-0.554c-1.699,6.958-3.217,13.175-4.73,19.37C704.242,269.945,705.841,269.945,707.388,269.945z
			 M758.732,13.142c-0.533,7.408-2.603,13.296-5.256,19.062c1.801,0,3.579,0,5.477,0c0-2.085,0-3.888,0-5.497
			c5.004-0.322,7.933-2.221,10.136-6.777c1.609-3.33,0.135-5.037-1.432-6.641c-0.821-0.841-3.211-0.148-4.892-0.148
			c-0.009,0-0.018,0.001-0.026,0.001C761.116,13.142,759.492,13.142,758.732,13.142z M165.28,252.354
			c3.387-3.862,3.387-3.862,6.535-3.621c-1.836,5.759-3.622,11.364-5.443,17.077c1.26,0,3.255,0,4.636,0
			c0.608-2.814,1.066-5.224,1.658-7.598c0.587-2.354,1.523-4.641,1.913-7.021c0.419-2.562,1.478-3.529,4.1-2.538
			c0.265,1.05,0.547,2.169,0.83,3.289c0.428,0.037,0.856,0.074,1.284,0.111c0.323-1.896,0.645-3.792,1.092-6.423
			c-4.355,0-8.058,0.056-11.759-0.015C166.008,245.538,164.477,247.455,165.28,252.354z M801.512,188.596
			c0.616,1.97,1.622,3.441,1.328,4.576c-0.779,3-2.606,5.775-3.081,8.788c-0.366,2.322-2.812,5.055,0.524,7.415
			c3.111,2.2,5.532,0.4,7.575-1.275c1.762-1.444,3.087-3.671,4.031-5.805c1.425-3.215-0.425-5.684-3.937-5.763
			c-1.204-0.026-2.41-0.004-3.316-0.004c0.603-2.668,1.193-5.287,1.892-8.376C804.392,188.341,803.095,188.456,801.512,188.596z
			 M806.466,5.496c-0.43,3.439-0.662,6.638-1.272,9.764c-0.459,2.344-1.556,4.558-2.091,6.893c-0.652,2.852,2.041,5.339,4.797,4.624
			c4.33-1.125,7.315-4.422,7.29-8.88c-0.009-1.671-1.041-3.707-2.274-4.868c-0.772-0.727-2.787-0.135-4.479-0.135
			c0.633-2.092,1.386-4.582,2.237-7.397C808.862,5.496,807.571,5.496,806.466,5.496z M764.604,196.188
			c-1.217,3.122-2.14,5.487-3.063,7.853c-0.455-0.082-0.91-0.163-1.366-0.244c-0.272-2.314-0.545-4.629-0.928-7.879
			c-2.193,2.852-3.903,5.071-5.94,7.72c-0.472-2.875-0.805-4.909-1.221-7.447c-1.77,0.488-3.115,0.859-4.93,1.36
			c5.052,3.575,2.181,8.812,4.166,13c1.871-2.666,3.522-5.02,5.174-7.372c0.231,0.188,0.464,0.376,0.695,0.564
			c0.123,2.145,0.247,4.289,0.384,6.664c3.778-2.19,8.972-9.451,8.594-11.91C766.048,197.698,765.189,197.013,764.604,196.188z
			 M204.89,286.104c-8.756-1.621-10.002,0.564-13.249,7.713c-0.648,1.427,0.115,3.807,0.895,5.425
			c0.33,0.686,2.459,0.897,3.634,0.657c0.95-0.193,1.697-1.388,2.042-1.698c1.542,0.722,2.799,1.819,3.651,1.564
			c0.835-0.25,1.899-2.674,1.767-2.78c-2.341-1.883-0.253-3.59,0.075-5.316C204.046,289.861,204.468,288.068,204.89,286.104z
			 M667.629,278.29c-1.34,7.569-2.105,14.142-7.178,19.235c0.138,0.328,0.276,0.657,0.415,0.985
			c2.571-0.324,5.143-0.648,6.904-0.871c-0.188-2.551-0.684-4.12-0.331-5.469c0.978-3.744,2.166-7.451,3.59-11.047
			c0.414-1.047,1.896-1.671,3.03-2.605c0.909,2.093,1.433,3.298,1.957,4.503c0.292-0.081,0.585-0.162,0.877-0.242
			c0.208-1.5,0.415-3.001,0.662-4.786c-4.237,0-8.082-0.001-11.927,0.003c-0.373,0-0.748,0.012-1.121,0.047
			c-2.591,0.246-3.832,2.182-3.08,4.77C663.199,281.521,664.989,280.216,667.629,278.29z M704.643,250.727
			c-1.142,0-2.224,0.073-3.293-0.012c-6.008-0.479-11.276,5.414-10.072,11.3c0.521,2.543,2.736,3.792,4.531,2.135
			c2.162-1.994,3.567-1.221,4.998,0.559c1.202-1.062,2.174-1.919,3.168-2.797C700.296,257.892,704.953,254.584,704.643,250.727z
			 M282.778,201.153c-1.894,0.31-3.672,0.725-5.468,0.833c-0.703,0.042-1.446-0.603-2.171-0.934c0.647-0.557,1.219-1.263,1.958-1.64
			c2.024-1.034,4.259-1.726,6.121-2.981c0.758-0.511,1.353-2.453,0.963-3.159c-0.445-0.805-2.04-1.214-3.188-1.35
			c-5.533-0.653-7.936,2.798-8.914,8.124c-0.592,3.226,1.552,4.75,4.051,5.619C277.976,206.31,282.131,203.381,282.778,201.153z
			 M853.26,22.077c-2.827-0.293-5.381,2.955-7.789-0.501c2.505-1.063,5.069-1.654,6.933-3.13c1.114-0.883,1.423-3.143,1.473-4.802
			c0.016-0.523-1.966-1.548-3.061-1.587c-4.968-0.177-10.141,8.454-7.273,12.47c0.854,1.198,3.77,1.604,5.535,1.273
			C850.662,25.503,853.989,25.826,853.26,22.077z M723.639,258.948c1.981-0.654,4.231-0.798,5.533-1.984
			c1.479-1.345,2.108-3.623,3.107-5.496c-1.77-0.468-4.128-1.888-5.196-1.226c-3.216,1.993-6.581,4.3-5.924,9.13
			c0.325,2.386,0.027,4.916,3.287,5.356c2.517,0.34,5.749-2.195,6.389-5.094C728.501,259.34,725.666,263.603,723.639,258.948z
			 M774.833,21.611c2.045-0.974,4.041-2.008,6.104-2.885c2.655-1.126,3.479-3.299,1.69-5.19c-0.942-0.996-3.804-1.025-5.364-0.403
			c-2.747,1.095-4.513,3.326-5.41,6.479c-0.873,3.067,0.444,6.601,3.553,7.23c2.348,0.476,5.93-2.406,5.479-4.41
			C775.748,23.999,775.748,23.999,774.833,21.611z M700.612,283.812c-7.909-0.271-11.893,1.9-13.572,7.464
			c-0.941,3.117-0.009,5.722,3.415,6.982c1.336-0.938,2.692-1.892,3.897-2.738c2.102,2.861,3.6,1.104,4.699-0.326
			c-0.326-1.858-0.353-3.508-0.057-5.098C699.372,288.074,700.01,286.102,700.612,283.812z M230.836,295.057
			c-2.078,0.52-3.67,1.029-5.303,1.252c-0.44,0.061-1-0.754-1.504-1.166c0.374-0.366,0.688-0.848,1.131-1.077
			c1.602-0.828,3.545-1.258,4.788-2.439c1.135-1.078,1.529-2.937,2.249-4.449c-1.304-0.592-2.616-1.698-3.912-1.681
			c-4.214,0.056-7.465,4.878-7.147,9.824c0.176,2.726,1.269,4.78,4.043,4.603C227.868,299.751,230.577,298.756,230.836,295.057z
			 M734.095,23.354c1.93,3.99,2.706,4.064,5.644,0.544c-4.79-3.422,2.535-7.132-0.592-11.167c-2.36,3.811-4.628,7.47-6.896,11.13
			c-0.313-0.144-0.627-0.289-0.94-0.433c-0.071-3.599,4.12-7.122,0.692-10.916c-4.935,2.644-4.935,2.644-2.262,4.622
			c-0.575,2.119-1.271,4.041-1.559,6.023c-0.14,0.961,0.249,2.707,0.819,2.909c0.986,0.348,2.41-0.001,3.44-0.496
			C733.163,25.225,733.535,24.15,734.095,23.354z M842.515,204.819c2.597-1.202,4.822-1.792,6.414-3.134
			c0.966-0.814,1.114-2.779,1.225-4.257c0.019-0.258-1.989-0.98-3.046-0.949c-5.254,0.152-8.036,3.348-8.038,8.7
			c-0.001,3.115,2.105,4.596,4.462,4.748c1.85,0.12,3.851-1.28,5.669-2.227c0.343-0.179,0.147-1.394,0.23-2.541
			c-2.159,0.901-3.813,1.594-5.701,2.382C843.307,206.594,842.884,205.646,842.515,204.819z M204.007,264.566
			c-4.252-4.401,0.904-7.84,0.306-11.604c-9.229-0.778-13.811,2.799-13.442,10.353c0.131,2.689,1.738,3.557,4.276,2.669
			c1.388-0.487,2.998-0.311,4.493-0.532C200.978,265.254,202.296,264.92,204.007,264.566z M253.064,265.412
			c2.862,0.884,5.761-1.878,8.694,0.053c0.101,0.066,1.741-1.544,1.999-2.544c0.347-1.344-0.171-2.894,0.075-4.284
			c0.345-1.947,1.053-3.829,1.642-5.862c-2.788,0.302-2.647,0.362-4.57,4.771c-0.879,2.017-2.435,3.737-3.684,5.592
			c-0.375-0.202-0.751-0.404-1.126-0.606c0.89-3.08,1.781-6.16,2.996-10.362c-2.813,0.543-4.694,0.906-7.587,1.465
			C258.104,257.876,250.42,261.582,253.064,265.412z M751.938,294.485c1.06-3.396,2.102-5.862,2.548-8.432
			c0.391-2.261-1.519-3.354-3.521-2.306c-1.24,0.648-2.478,1.301-3.717,1.951c0.419,0.507,0.838,1.014,1.258,1.521
			c0.96,0,1.921,0,2.411,0c-0.502,3.368-0.973,6.533-1.443,9.698c0.404,0.214,0.808,0.428,1.213,0.643
			c1.746-0.921,3.492-1.842,5.223-2.754c1.663,3.154,2,3.17,4.983,0.172c-4.001-3.892,2.214-7.213,0.077-11.75
			C757.063,285.979,757.518,292.331,751.938,294.485z M829.511,25.281c-0.342-0.413-0.685-0.826-1.026-1.239
			c0.606-3.784,1.213-7.567,1.792-11.181c-3.514-0.906-6.813-1.533-9.07,1.576c-1.449,1.997-2.668,4.268-3.456,6.597
			c-0.414,1.226-0.019,3.041,0.67,4.197c0.358,0.604,2.145,0.473,3.286,0.468c1.145-0.006,2.285-0.34,3.434-0.4
			C826.593,25.224,828.054,25.281,829.511,25.281z M824.433,208.75c0.939-4.761,1.665-8.441,2.356-11.951
			c-6.003-0.847-10.756-0.299-13.102,6.477c-0.925,2.673-0.396,3.9,0.995,5.625c1.519,1.88,2.712,1.251,4.275-0.065
			c0.62-0.522,2.048-0.085,3.107-0.085C823.184,208.751,824.301,208.75,824.433,208.75z M778.443,205.828
			c-7.495,1.1-7.495,1.1-7.947-0.669c2.621-1.416,5.18-2.589,7.467-4.154c0.729-0.499,1.195-2.174,0.938-3.067
			c-0.195-0.682-1.701-1.325-2.664-1.388c-4.508-0.296-8.13,1.396-8.48,8.087c-0.14,2.649,0.418,5.107,3.167,5.44
			C773.651,210.406,776.136,209.01,778.443,205.828z M249.757,300.058c3.494-0.006,6.955-3.421,7.547-8.303
			c0.228-1.875-0.513-4.572-1.833-5.712c-1.1-0.948-4.113-0.859-5.533,0.001c-2.545,1.543-4.614,3.903-4.917,7.287
			C244.652,297.439,246.417,300.063,249.757,300.058z M746.333,201.621c0.101-4.112-1.231-5.191-5.317-5.142
			c-3.896,0.048-8.27,5.505-7.843,9.31c0.313,2.794,3.211,5.315,5.8,4.81C742.813,209.849,746.234,205.675,746.333,201.621z
			 M757.392,255.727c0.26-4.189-1.367-6.05-5.067-5.792c-4.836,0.336-9.31,8.759-6.405,12.509c1.397,1.805,3.738,3.655,6.294,1.77
			C755.009,262.151,757.759,259.824,757.392,255.727z M237.025,296.348c-0.232-0.347-0.465-0.693-0.697-1.041
			c2.488-2.905,4.976-5.812,8.038-9.39c-3.781,0-6.566,0-9.484,0c-0.36,1.024-0.742,2.11-1.175,3.343
			c1.838-0.165,3.44-0.308,4.723-0.423c-1.217,4.575-6.697,5.732-6.135,10.852c8.337,1.016,9.611,0.322,9.123-4.753
			C239.98,295.397,238.502,295.873,237.025,296.348z M482.107,122.392c2.533-1.064,5.013-1.771,7.077-3.117
			c1.019-0.664,1.817-2.57,1.676-3.792c-0.098-0.845-1.944-2.047-3.067-2.114c-4.338-0.26-8.871,5.556-7.833,10.286
			c0.322,1.466,2.354,3.756,3.354,3.634c2.396-0.292,4.644-1.792,6.952-2.805c-0.13-0.417-0.259-0.834-0.389-1.251
			C487.144,124.327,484.358,125.729,482.107,122.392z M829.772,25.978c1.414-0.084,2.121-0.345,2.597-0.118
			c2.412,1.149,4.994,0.953,6.313-1.08c1.392-2.145,0.697-4.661-1.339-6.699c-0.684-0.685-0.566-2.168-0.815-3.287
			c0.885,0.521,1.757,1.065,2.661,1.55c0.308,0.164,0.695,0.177,1.437,0.351c0.241-1.434,0.468-2.777,0.814-4.83
			c-2.655,0.375-5.216-0.013-6.574,1.086c-2.759,2.231-1.192,4.951,0.299,7.527c0.626,1.081,0.431,2.638,0.608,3.979
			c-0.992-0.6-2.004-1.171-2.97-1.81c-0.44-0.291-0.793-0.712-1.805-1.645C830.518,22.954,830.203,24.229,829.772,25.978z
			 M732.646,188.376c-3.018,0.075-4.676,0.854-3.888,4.102c0.271,1.111-0.19,2.45-0.489,3.642c-0.77,3.073-1.84,6.087-2.381,9.195
			c-0.283,1.632,0.293,3.414,0.48,5.128c1.247-0.729,2.513-1.429,3.723-2.214c0.254-0.164,0.3-0.646,0.044-0.039
			C727.695,200.633,733.726,195.038,732.646,188.376z M181.222,252.987c-0.361,2.391-0.769,4.312-0.912,6.251
			c-0.158,2.139-0.072,4.295-0.092,6.444c1.124-1.522,2.199-3.084,3.384-4.557c1.25-1.553,2.51-4.171,3.936-4.29
			c2.985-0.248,2.79-1.701,2.743-3.849C186.874,252.987,183.599,252.987,181.222,252.987z M837.126,196.67
			c-0.9-0.05-1.778-0.249-2.601-0.111c-1.622,0.272-3.214,0.73-4.818,1.111c0.497,1.811,0.958,3.632,1.504,5.428
			c0.433,1.428,0.969,2.823,1.459,4.233c-0.363,0.281-0.727,0.562-1.09,0.842c-1.341-0.973-2.68-1.946-4.02-2.919
			c-0.287,0.216-0.575,0.433-0.862,0.648c0.614,1.051,0.989,2.42,1.887,3.092c2.798,2.098,5.488,0.676,7.112-1.509
			c1.474-1.984-0.202-4.032-1.644-5.818c-0.896-1.11-1.338-2.588-1.985-3.901c0.402-0.193,0.804-0.387,1.204-0.581
			c1.041,0.995,2.081,1.989,3.445,3.293C836.896,198.823,837.001,197.837,837.126,196.67z M790.591,196.861
			c-3.311,0-6.082,0-9.052,0c1.573,4.548-3.29,8.402-1.517,13.155c4.903-2,2.645-10.653,10.115-9.096
			C790.3,199.477,790.434,198.271,790.591,196.861z M182.478,286.293c-0.856,3.068-1.667,5.855-2.401,8.664
			c-0.25,0.953-0.474,1.972-0.396,2.935c0.058,0.722,0.619,1.403,0.956,2.102c0.594-0.467,1.429-0.814,1.734-1.426
			c0.768-1.541,1.078-3.34,1.983-4.774c0.954-1.51,2.311-3.755,3.625-3.852c3.243-0.236,2.836-1.913,2.749-3.648
			C187.542,286.293,184.624,286.293,182.478,286.293z M786.126,12.19c-0.869,5.093-1.603,9.396-2.337,13.698
			c0.469,0.185,0.937,0.369,1.404,0.553c0.741-1.373,1.456-2.762,2.228-4.117c1.325-2.328,1.32-6.025,5.627-5.352
			c0.475,0.074,1.573-1.019,1.611-1.619c0.062-0.997-0.502-2.033-0.803-3.052c-1.179,0.553-2.357,1.105-3.537,1.657
			c0.063-0.29,0.127-0.58,0.19-0.87C788.883,12.756,787.257,12.422,786.126,12.19z M681.166,265.258
			c2.465-4.706,1.692-11.488,9.158-11.218c0.456-3.023,0.022-4.579-3.172-2.781c-0.335,0.188-0.891,0.06-1.324-0.021
			c-1.333-0.249-2.656-0.547-3.496-0.725c-0.752,2.963-1.49,5.253-1.883,7.603C680.082,260.306,678.125,262.691,681.166,265.258z
			 M685.913,284.495c-3.274,0-5.928,0-7.856,0c-0.856,3.262-1.776,6.442-2.485,9.669c-0.193,0.881,0.243,1.901,0.39,2.857
			c0.7-0.639,1.521-1.186,2.078-1.931c2.17-2.901,2.335-7.854,7.874-7.224C685.913,286.379,685.913,285.079,685.913,284.495z
			 M536.324,109.861c-0.29-0.172-0.58-0.344-0.87-0.516c-1.299,1.898-3.076,3.635-3.784,5.733c-1.143,3.38-1.579,6.999-2.469,11.257
			c1.212,0,2.747,0.163,4.202-0.105c0.403-0.075,0.957-1.535,0.782-2.18c-0.899-3.304,0.31-7.816,2.736-9.571
			C536.72,112.913,536.521,111.387,536.324,109.861z M460.743,173.02c3.682,2.344,28.604,1.661,29.988,0
			C481.154,173.02,471.357,173.02,460.743,173.02z M264.941,285.588c-1.068,0.062-2.573,0.148-3.472,0.2
			c-0.299,2.822-0.437,5.101-0.822,7.337c-0.199,1.155-1.258,2.271-1.167,3.339c0.103,1.208,1.061,2.342,1.646,3.508
			c1.069-0.996,2.886-1.871,3.07-3.01C264.768,293.447,264.716,289.831,264.941,285.588z M760.23,250.412
			c4.493,5.103-2.873,9.486,0.598,14.726c1.867-1.71,3.33-3.051,4.793-4.392c-0.386-0.086-0.771-0.172-1.154-0.258
			c-0.105-1.689-0.502-3.426-0.237-5.055c0.277-1.711,1.187-3.317,2.074-5.632C763.905,250.043,762.606,250.173,760.23,250.412z
			 M490.541,48.703c0.005-0.311,0.01-0.622,0.015-0.933c-11.269,0-22.538,0-33.807,0c0,0.312,0.001,0.623,0.002,0.933
			C468.014,48.703,479.278,48.703,490.541,48.703z M742.89,283.753c-0.739,3.674-1.507,6.979-2.011,10.324
			c-0.132,0.872,0.435,2.585,0.893,2.663c1.096,0.187,2.382-0.231,3.441-0.727c0.263-0.122-0.02-1.472-0.103-2.251
			c-0.056-0.521-0.399-1.081-0.278-1.536c0.735-2.78,1.567-5.534,2.418-8.474C745.774,283.753,744.212,283.753,742.89,283.753z
			 M498.916,113.625c-0.31-0.243-0.62-0.484-0.93-0.727c-1.041,0.727-2.687,1.253-3.01,2.22c-0.939,2.816-1.406,5.798-1.934,8.737
			c-0.155,0.866-0.212,2.285,0.258,2.6c0.662,0.444,2.129,0.459,2.747-0.008c0.674-0.509,0.854-1.76,1.103-2.725
			c0.401-1.569,0.729-3.16,1.004-4.757C498.458,117.195,498.666,115.406,498.916,113.625z M250.914,252.601
			c-2.037,0.099-3.366,0.163-3.872,0.188c-0.804,4.555-1.5,8.504-2.206,12.503c4.762,0.399,5.279-0.219,3.925-3.826
			c-0.226-0.603-0.277-1.389-0.103-2.003C249.221,257.489,249.927,255.558,250.914,252.601z M717.887,19
			c-0.192-0.347-0.384-0.693-0.576-1.04c-4.313,0-8.628-0.042-12.939,0.042c-0.697,0.014-1.383,0.593-2.074,0.91
			c0.681,0.488,1.34,1.36,2.045,1.4c3.826,0.214,7.665,0.303,11.494,0.226C716.53,20.524,717.204,19.537,717.887,19z
			 M717.534,15.609c-1.08-1.951-1.081-1.971-12.382-1.854c-1.022,0.01-2.039,0.51-3.059,0.782c0.086,0.357,0.173,0.715,0.26,1.072
			C707.347,15.609,712.341,15.609,717.534,15.609z M294.501,192.372c1.061,2.349,10.896,2.886,14.98,1.016
			C307.952,191.783,302.48,191.39,294.501,192.372z M309.898,198.342c-1.849-1.671-11.687-2.602-14.597-1.683
			c-0.429,0.135-0.615,1.042-0.962,1.683C299.581,198.342,304.489,198.342,309.898,198.342z M546.948,119.814
			c5.121,0,9.931,0,14.861,0C560.346,117.07,549.149,116.914,546.948,119.814z M546.927,115.307c5.178,0,9.915,0,14.892,0
			C560.022,112.539,549.283,112.483,546.927,115.307z M715.597,203.226c0.021-0.377,0.04-0.752,0.061-1.128
			c-5.204,0-10.408,0-15.612,0c-0.001,0.376-0.003,0.751-0.003,1.128C705.228,203.226,710.412,203.226,715.597,203.226z
			 M700.175,197.351c-0.011,0.403-0.021,0.806-0.032,1.207c5.079,0,10.159,0,15.238,0c0-0.401-0.002-0.804-0.002-1.207
			C710.311,197.351,705.242,197.351,700.175,197.351z"/>
		<path fill-rule="evenodd" clip-rule="evenodd" d="M452.899,47.835c-0.54,1.066-1.588,2.172-1.358,2.834
			c2.037,5.845,4.304,11.61,6.493,17.402c0.329,0.868,0.606,1.754,0.35,3.038c-2.008-1.522-4.015-3.044-6.152-4.664
			c0,29.74,0,58.989,0,88.238c0.407,0.167,0.815,0.333,1.222,0.5c1.511-1.482,3.023-2.964,4.534-4.445
			c0.34,0.125,0.68,0.25,1.02,0.375c-2.242,6.93-4.484,13.859-6.867,21.224c2.743,0.189,4.548,0.313,6.354,0.438
			c0.05,0.406,0.102,0.813,0.153,1.217c-2.329,0.198-4.655,0.534-6.986,0.571c-12.823,0.201-25.646,0.373-38.471,0.471
			c-13.977,0.106-27.955,0.138-41.932,0.173c-47.357,0.117-94.715,0.211-142.073,0.335c-27.989,0.073-55.978,0.182-83.966,0.292
			c-1.616,0.006-3.241,0.319-4.844,0.216c-1-0.064-2.52-0.397-2.812-1.053c-0.366-0.823,0.062-2.21,0.535-3.161
			c4.248-8.546,8.612-17.033,12.875-25.571c2.438-4.881,4.734-9.832,7.123-14.736c3.524-7.237,7.054-14.473,10.619-21.689
			c3.018-6.107,5.98-12.249,9.23-18.231c0.651-1.199,2.38-2.178,3.796-2.536c10.003-2.529,20.101-4.695,30.079-7.317
			c11.284-2.965,22.439-6.42,33.719-9.405c7.842-2.075,15.823-3.616,23.696-5.581c6.811-1.7,13.547-3.69,20.332-5.497
			c4.294-1.145,8.62-2.171,12.923-3.281c7.738-1.995,15.462-4.047,23.208-6.012c6.444-1.634,12.837-3.785,19.389-4.583
			c6.244-0.761,12.666-0.02,19.009-0.023c19.228-0.01,38.456-0.071,57.684-0.092c9.238-0.01,18.478,0.005,27.716,0.067
			C450.784,47.36,452.067,47.711,452.899,47.835z M426.29,171.64c0.226-0.401,0.45-0.801,0.676-1.202
			c-1.167-1.727-2.333-3.454-3.5-5.182c-9.465-14.028-18.944-28.047-28.391-42.088c-5.06-7.519-9.982-15.133-15.118-22.6
			c-4.129-6.003-8.618-11.76-12.716-17.784c-6.146-9.032-12.047-18.229-18.144-27.296c-1.895-2.816-3.904-5.236-8.172-3.797
			c-5.361,1.809-10.919,3.053-16.421,4.423c-12.356,3.078-24.732,6.079-37.096,9.123c-4.423,1.089-8.868,2.104-13.25,3.34
			c-10.07,2.839-20.061,5.972-30.175,8.644c-7.867,2.078-15.862,3.671-23.815,5.415c-4.239,0.929-8.539,1.59-12.754,2.609
			c-5.133,1.241-10.274,2.527-15.289,4.169c-5.238,1.716-11.508,1.498-13.79,8.675c-1.447,4.549-4.603,8.534-6.769,12.883
			c-2.113,4.242-3.831,8.68-5.92,12.933c-4.038,8.22-8.274,16.341-12.316,24.559c-3.532,7.18-6.912,14.435-10.348,21.663
			c-0.346,0.728-0.608,1.494-0.909,2.243c0.885,0.264,1.771,0.762,2.655,0.756c27.21-0.167,54.419-0.49,81.63-0.568
			c43.981-0.126,87.964-0.086,131.946-0.137c12.1-0.014,24.201-0.036,36.299-0.171C405.167,172.131,415.729,171.849,426.29,171.64z
			 M450.71,172.524c-2.508-7.326-4.792-13.995-7.407-21.632c2.729,1.988,4.526,3.296,6.176,4.498c0-29.751,0-58.978,0-88.205
			c-0.408-0.11-0.816-0.22-1.224-0.33c-1.422,1.223-2.844,2.447-4.266,3.67c-0.213-0.14-0.427-0.28-0.641-0.42
			c2.012-6.848,4.025-13.697,6.137-20.886c-33.882,0-67.052,0-100.221,0c-0.181,0.342-0.362,0.684-0.542,1.025
			c1.421,1.691,3.008,3.271,4.235,5.093c6.143,9.121,12.169,18.32,18.283,27.461c3.518,5.261,7.11,10.471,10.691,15.69
			c5.185,7.557,10.493,15.031,15.555,22.668c4.956,7.476,9.544,15.195,14.524,22.653c4.608,6.9,9.982,13.328,14.155,20.469
			c3.465,5.929,7.097,9.846,14.616,8.345C443.821,172.018,447.083,172.524,450.71,172.524z"/>
		<path fill-rule="evenodd" clip-rule="evenodd" d="M871.807,173.095c-4.592,0.054-8.491,0.128-12.391,0.142
			c-23.712,0.091-47.424,0.188-71.137,0.238c-10.486,0.023-20.974-0.182-31.458-0.038c-5.821,0.08-11.634,0.903-17.455,0.955
			c-5.208,0.047-10.425-0.797-15.632-0.74c-15.922,0.172-31.839,0.703-47.76,0.878c-18.098,0.198-36.198,0.172-54.299,0.223
			c-4.655,0.013-5.174-0.804-3.148-5.057c2.753-5.779,5.592-11.518,8.375-17.283c5.868-12.153,11.676-24.337,17.603-36.463
			c4.502-9.207,9.211-18.311,13.714-27.517c3.909-7.991,7.591-16.094,11.502-24.083c2.607-5.326,5.362-10.585,8.213-15.785
			c1.146-2.09,2.705-3.088,5.634-2.954c7.162,0.331,14.362-0.231,21.548-0.315c7.221-0.085,14.443,0.006,21.665-0.035
			c20.845-0.116,41.69-0.279,62.535-0.377c4.733-0.023,9.473,0.054,14.201,0.258c2.554,0.11,4.059,1.42,4.964,4.097
			c1.084,3.205,3.003,6.131,4.6,9.156c3.164,5.997,6.411,11.951,9.523,17.975c4.94,9.563,9.826,19.154,14.68,28.761
			c2.778,5.5,5.344,11.108,8.193,16.569c3.277,6.278,6.859,12.398,10.128,18.681c2.443,4.695,4.552,9.563,6.898,14.309
			C865.316,160.379,868.226,166.022,871.807,173.095z M867.267,170.54c-3.853-7.298-7.236-13.734-10.646-20.157
			c-2.087-3.933-4.329-7.788-6.295-11.78c-2.716-5.518-5.104-11.199-7.872-16.689c-4.203-8.334-8.697-16.521-12.906-24.852
			c-4.019-7.955-7.703-16.081-11.771-24.009c-3.918-7.634-8.113-15.127-12.271-22.636c-0.442-0.799-1.385-1.703-2.212-1.835
			c-2.204-0.354-4.474-0.434-6.715-0.413c-19.585,0.183-39.169,0.484-58.754,0.606c-17.615,0.11-35.231,0.056-52.847,0.031
			c-2.503-0.004-4.19,0.694-5.128,3.313c-0.837,2.337-2.361,4.421-3.484,6.666c-2.391,4.775-4.74,9.571-7.064,14.379
			c-2.515,5.205-4.896,10.476-7.492,15.639c-2.693,5.358-5.651,10.582-8.348,15.937c-2.067,4.104-3.833,8.359-5.864,12.483
			c-4.457,9.044-9.03,18.03-13.486,27.074c-1.757,3.565-3.232,7.27-5.004,10.827c-2.549,5.115-5.253,10.152-7.989,15.415
			C703.354,170.54,784.958,170.54,867.267,170.54z"/>
		<path fill-rule="evenodd" clip-rule="evenodd" d="M318.805,204.931c2.377-7.023,5.839-12.73,4.55-20.273
			c2.351,0,4.944-0.366,7.391,0.079c4.726,0.862,5.754,4.099,3.106,8.272c-0.509,0.801-0.616,2.147-0.359,3.093
			c1.563,5.765,0.91,7.026-5.151,8.05C325.196,204.682,321.963,204.689,318.805,204.931z M324.793,203.144
			c2.09-1.784,6.663-0.611,6.164-4.955c-0.132-1.151-2.859-3.166-3.744-2.865C323.598,196.55,324.885,200.064,324.793,203.144z
			 M325.947,192.635c2.487,0,3.812,0,5.546,0c0-1.682,0.165-3.22-0.129-4.665c-0.064-0.319-2.293-0.746-2.595-0.372
			C327.711,188.904,327.061,190.541,325.947,192.635z"/>
		<path fill-rule="evenodd" clip-rule="evenodd" d="M672.079,210.099c4.327-6.007,5.81-12.223,5.632-19.502
			c2.668,0,5.723-0.229,8.727,0.067c2.762,0.274,4.227,3.986,2.709,6.293c-0.722,1.094-1.545,2.119-2.322,3.175
			c2.904,3.755,2.2,5.971-1.861,8.591C680.719,211.459,676.545,210.821,672.079,210.099z M684.253,201.292
			c-4.881-0.521-6.396,1.127-6.032,6.311C684.349,208.194,685.196,207.349,684.253,201.292z M680.439,198.081
			c0.154,0.365,0.309,0.731,0.463,1.097c1.61-0.68,3.492-1.056,4.723-2.159c0.681-0.612,0.521-2.502,0.23-3.69
			c-0.117-0.481-1.77-1.07-2.411-0.817c-0.788,0.312-1.384,1.383-1.821,2.248C681.097,195.799,680.823,196.969,680.439,198.081z"/>
		<path fill-rule="evenodd" clip-rule="evenodd" d="M265.69,193.299c0.237,1.213,0.053,2.938,0.79,3.544
			c2.49,2.046,2.746,4.6,1.329,6.879c-1.813,2.914-4.875,2.149-7.719,1.409c-1.406-0.365-2.889-0.432-4.61-0.672
			c-1.249,0.115-2.629-0.13-3.575,0.4c-2.589,1.449-4.177,0.916-4.823-1.978c-1.261-5.648,3.378-11.123,9.153-10.82
			c0.975,0.05,1.955,0.006,3.327,0.006c-0.23,1.765-0.371,3.326-0.653,4.861c-0.267,1.453-0.682,2.878-1.014,4.241
			c2.556,0.744,5.023,1.462,8.424,2.451c-1.147-2.48-1.869-4.189-2.712-5.836c-2.064-4.032-1.122-5.756,3.218-5.768
			c1.105-0.003,2.21-0.001,3.856-0.001c-0.393,1.662-0.694,2.938-1.15,4.867c-1.17-1.821-1.908-2.97-2.645-4.118
			C266.487,192.943,266.088,193.121,265.69,193.299z M254.407,193.062c-5.083,4.493-5.794,6.539-3.378,9.723
			C256.393,199.042,257.481,195.909,254.407,193.062z"/>
		<path fill-rule="evenodd" clip-rule="evenodd" d="M279.943,265.06c0.72-3.303,1.441-6.604,2.161-9.907
			c-0.261-0.156-0.521-0.313-0.783-0.47c-1.518,2.448-3.01,4.915-4.567,7.339c-0.874,1.361-1.854,2.652-2.787,3.976
			c-0.473-0.242-0.946-0.485-1.42-0.729c0.882-3.302,1.764-6.604,2.647-9.907c-0.486-0.224-0.972-0.446-1.458-0.67
			c-1.229,2.528-2.76,4.961-3.603,7.612c-0.916,2.883-0.637,2.972-3.811,2.9c0.759-3.936,1.523-7.896,2.446-12.68
			c0.589,0.133,2,0.515,3.437,0.74c0.558,0.088,1.171-0.263,1.758-0.264c3.427-0.01,6.953,1.349,10.219-0.779
			c0.439,1.037,1.191,2.055,1.257,3.114c0.158,2.534,0.433,5.208-0.211,7.59c-0.369,1.361-2.444,2.263-3.75,3.371
			C280.968,265.885,280.456,265.472,279.943,265.06z"/>
		<path fill-rule="evenodd" clip-rule="evenodd" d="M86.726,280.401c-3.896,3.212-7.014,5.783-10.299,8.492
			c2.675,3.598,5.32,7.154,8.182,11.001c-2.13,0-4.404,0-6.003,0c-1.219-3.013-2.342-5.79-3.465-8.566
			c-0.519,0.108-1.037,0.218-1.556,0.327c-0.316,2.722-0.633,5.442-0.996,8.566c-1.371,0-3.324,0-4.684,0
			c1.71-6.575,3.382-13.001,5.147-19.789c0.846,0,2.555,0,4.093,0c-0.638,1.865-1.261,3.69-1.885,5.517
			c0.196,0.18,0.391,0.36,0.586,0.541c1.598-1.206,4.072-2.111,4.608-3.68C81.543,279.628,83.501,280.233,86.726,280.401z"/>
		<path fill-rule="evenodd" clip-rule="evenodd" d="M769.004,296.132c0.652-2.027,1.161-3.587,1.656-5.149
			c0.494-1.561,0.974-3.125,1.46-4.688c-0.342-0.197-0.683-0.396-1.024-0.592c-2.353,3.796-4.704,7.592-7.057,11.388
			c-0.294-0.149-0.59-0.298-0.884-0.446c0.666-4.167,1.332-8.333,2.088-13.055c0.866,0.166,2.577,0.495,4.286,0.824
			c-0.013-0.168-0.025-0.335-0.038-0.503c2.142,0.138,4.282,0.275,6.424,0.413c-0.044,0.223-0.088,0.445-0.132,0.668
			c1.405-0.497,2.873-1.488,4.196-1.324c0.938,0.115,2.465,1.886,2.364,2.761c-0.322,2.787-3.965,5.14-0.984,8.38
			c-1.268,0.866-2.535,1.731-3.803,2.598c-0.359-0.248-0.72-0.495-1.08-0.743c0.567-3.15,1.134-6.302,1.665-9.254
			c-2.309,0.496-4.161,2.641-5.17,6.675C772.366,296.504,771.244,297.497,769.004,296.132z"/>
		<path fill-rule="evenodd" clip-rule="evenodd" d="M50.118,280.523c1.232,0,2.222,0.021,3.209-0.006
			c0.851-0.023,1.7-0.103,2.421-0.149c-1.205,4.224-2.37,8.288-3.521,12.357c-0.741,2.619,0.028,4.869,2.577,5.69
			c3.154,1.016,5.3-1.055,6.149-3.755c1.452-4.618,2.387-9.398,3.642-14.528c0.806,0,2.393,0,3.977,0
			c-1.706,4.815-3.531,9.38-4.931,14.07c-1.713,5.739-6.793,8.668-12,5.807c-1.752-0.962-3.107-4.366-3.009-6.581
			c0.153-3.457,1.786-6.832,2.582-10.29C51.368,282.457,50.575,281.556,50.118,280.523z"/>
		<path fill-rule="evenodd" clip-rule="evenodd" d="M278.568,278.442c1.604,0,2.935,0,4.74,0c-1.208,4.241-2.368,8.207-3.457,12.191
			c-0.418,1.527-0.619,3.113-1.014,4.648c-0.422,1.639-0.957,3.248-1.444,4.871c-0.395-0.374-0.79-0.749-1.184-1.125
			c-1.341,0.25-2.696,0.749-4.021,0.681c-1.378-0.072-3.397-0.258-3.975-1.147c-2.52-3.889,1.102-11.962,5.659-13.197
			C279.009,283.971,279.009,283.971,278.568,278.442z M276.161,287.537c-5.172,0.588-6.837,3.427-5.048,8.607
			C275.528,294.099,276.962,291.653,276.161,287.537z"/>
		<path fill-rule="evenodd" clip-rule="evenodd" d="M506.18,124.199c-0.082-0.114-0.03,0.038,0.047,0.053
			c2.677,0.506,5.387,1.096,5.982,4.32c0.497,2.688-1.767,3.581-3.606,4.254c-3.122,1.145-6.48,1.579-8.686-1.616
			c-0.538-0.78,0.021-3.043,0.836-3.89c2.066-2.142,3.354-3.731,1.162-6.831c-1.929-2.726-0.056-5.435,2.54-6.574
			c3.327-1.459,6.863-0.576,10.247,0.011c0.174,0.461,0.35,0.923,0.523,1.384C512.21,118.274,509.194,121.237,506.18,124.199z
			 M511.251,117.501c-1.895-1.251-3.111-2.457-3.491-2.234c-1.435,0.841-2.597,2.146-3.861,3.276c0.857,0.694,1.899,2.1,2.533,1.936
			C507.828,120.116,509.018,118.96,511.251,117.501z M509.264,130.594c0.057-0.397,0.113-0.793,0.169-1.19
			c-1.692-0.819-3.384-1.638-5.193-2.514c-0.904,0.97-1.771,1.902-3.452,3.704C504.303,130.594,506.783,130.594,509.264,130.594z"/>
		<path fill-rule="evenodd" clip-rule="evenodd" d="M779.161,243.258c1.523,0,2.83,0,4.588,0c-1.45,4.441-2.912,8.521-4.059,12.686
			c-0.323,1.173,0.546,2.633,0.393,3.903c-0.175,1.443-0.645,2.998-1.483,4.138c-0.315,0.429-2.023-0.181-3.1-0.293
			c-0.947-0.1-2.105-0.556-2.812-0.179c-2.641,1.407-4.371,0.825-4.84-2.054c-0.615-3.777,0.484-7.1,3.63-9.303
			c1.623-1.137,3.819-1.421,5.631-2.339c0.839-0.425,1.736-1.35,1.967-2.217C779.409,246.341,779.161,244.928,779.161,243.258z
			 M776.476,251.09c-2.157,1.777-4.309,2.874-5.351,4.63c-0.787,1.326-0.156,3.493-0.156,6.251
			C774.508,258.758,778.142,257.015,776.476,251.09z"/>
		<path fill-rule="evenodd" clip-rule="evenodd" d="M50.49,247.42c1.408,0,3.371,0,4.587,0c-1.143,4.155-2.468,8.296-3.363,12.526
			c-0.413,1.948-0.661,4.352,2.396,4.975c2.984,0.608,5.372-0.529,6.285-3.152c1.558-4.474,2.51-9.157,3.88-14.377
			c0.443-0.021,1.726-0.08,3.154-0.146c-1.606,5.239-2.616,10.374-4.742,14.994c-2.454,5.331-8.903,8.492-13.912,2.179
			c-1.229-1.55-0.547-4.861-0.26-7.307C48.878,254.023,49.737,250.992,50.49,247.42z"/>
		<path fill-rule="evenodd" clip-rule="evenodd" d="M580.02,115.637c-1.859,3.079-3.679,6.184-5.606,9.219
			c-0.451,0.711-1.269,1.191-1.917,1.777c-0.279-0.925-0.97-1.953-0.769-2.758c1.094-4.379,2.426-8.697,3.631-13.048
			c0.229-0.824,0.478-1.737,0.346-2.548c-0.526-3.225-0.581-3.216,3.585-2.85c-0.602,3.317-1.192,6.572-1.79,9.868
			c1.898-0.69,4.286-1.56,7.604-2.767c-0.561,4.685-0.976,8.155-1.391,11.626c0.376,0.097,0.751,0.193,1.126,0.29
			c-0.723,0.646-1.351,1.564-2.195,1.857c-0.768,0.265-1.979,0.121-2.6-0.357c-0.438-0.337-0.405-1.568-0.258-2.337
			c0.482-2.508,1.113-4.987,1.688-7.478C580.989,115.967,580.504,115.802,580.02,115.637z"/>
		<path fill-rule="evenodd" clip-rule="evenodd" d="M464.646,126.222c1.617-6.692,3.143-13.002,4.668-19.312
			c-0.313-0.165-0.625-0.33-0.937-0.494c1.124-0.355,2.249-0.71,4.699-1.485c-0.927,4.034-1.647,7.17-2.406,10.472
			c0.76,0,1.149,0.103,1.453-0.017c1.511-0.594,2.997-1.245,4.492-1.876c0.331,1.754,0.838,3.497,0.946,5.264
			c0.115,1.879,0.195,3.891-0.369,5.631c-0.356,1.095-1.926,1.797-2.951,2.676c-0.423-0.923-1.333-1.937-1.18-2.75
			c0.483-2.567,1.365-5.059,1.7-7.843c-2.869,2.029-5.639,4.141-6.486,7.767C467.621,127.054,466.358,127.355,464.646,126.222z"/>
		<path fill-rule="evenodd" clip-rule="evenodd" d="M231.32,204.14c1.731-7.16,3.156-13.057,4.688-19.394c0.514,0,1.926,0,3.883,0
			c-0.758,2.496-1.416,4.665-2.16,7.113c0.719,0.056,1.497,0.167,2.274,0.167c4.81,0.004,6.713,2.597,4.812,6.963
			c-1.461,3.355-4.17,5.896-7.667,6.659C235.322,206.047,233.102,204.65,231.32,204.14z M241.105,195.083
			c-4.548-0.419-5.53,0.885-5.963,7.924C240.171,203.931,242.47,200.877,241.105,195.083z"/>
		<path fill-rule="evenodd" clip-rule="evenodd" d="M66.441,266.56c0.144-2.41-0.912-5.159,2.144-7.809
			c0.182,1.798-0.016,2.934,0.441,3.651c0.713,1.118,1.756,2.528,2.872,2.751c1.18,0.234,3.397-0.462,3.737-1.318
			c0.48-1.207,0.009-3.141-0.708-4.388c-0.869-1.513-2.249-2.885-3.709-3.869c-2.898-1.95-2.59-5.161-1.207-6.783
			c1.482-1.738,4.116-4.233,7.405-1.822c0.879,0.644,2.349,0.481,3.832,0.738c-0.216,1.636-0.445,3.368-0.674,5.101
			c-0.286,0.096-0.572,0.192-0.859,0.288c-0.417-0.78-0.704-1.681-1.284-2.313c-0.839-0.914-1.789-1.883-2.894-2.331
			c-0.535-0.218-2.087,0.578-2.2,1.118c-0.24,1.149-0.225,2.691,0.387,3.6c1.04,1.545,2.753,2.618,3.94,4.086
			c1.342,1.658,3.499,3.587,1.637,5.771c-1.582,1.855-3.843,3.561-6.13,4.254C71.257,267.863,68.871,266.883,66.441,266.56z"/>
		<path fill-rule="evenodd" clip-rule="evenodd" d="M207.688,285.691c2.848,0,6.063-0.19,9.241,0.061
			c2.477,0.194,3.564,5.88,1.354,8.464c-2.343,2.738-4.144,6.211-8.905,6.07c-2.809-0.084-2.874,2.446-1.571,4.901
			c-1.75,0-3.394,0-4.634,0C204.952,299.103,207.638,293.156,207.688,285.691z M214.919,287.1c-1.816,1.707-3.645,2.672-4.191,4.12
			c-0.776,2.055-0.608,4.467-0.844,6.726c0.772,0.024,2.03,0.355,2.241,0.023c1.579-2.491,3.06-5.063,4.295-7.737
			C216.66,289.713,215.691,288.636,214.919,287.1z"/>
		<path fill-rule="evenodd" clip-rule="evenodd" d="M182.168,279.254c-0.421,2.274-0.74,3.999-1.206,6.511
			c-1.726-2.198-1.34-6.115-4.644-4.299c-1.579,4.682-3.254,9.071-4.458,13.585c-0.342,1.285,0.69,2.937,1.168,4.702
			c-2.478,0-5.083,0-7.781,0c4.753-5.214,5.23-11.718,6.527-17.945c-0.311-0.285-0.622-0.57-0.933-0.855
			c-1.503,1.184-3.005,2.366-5.2,4.095c0.452-2.298,0.813-4.136,1.139-5.793C172.042,279.254,176.763,279.254,182.168,279.254z"/>
		<path fill-rule="evenodd" clip-rule="evenodd" d="M743.736,26.948c0,1.8,0,3.357,0,5.201c-1.592,0.13-3.143,0.257-4.919,0.403
			c1.747-6.317,5.597-11.803,4.527-18.953c1.118-0.523,2.645-2.544,4.674,0.057c0.21,0.269,1.177,0.185,1.658-0.033
			c3.318-1.501,5.118-0.434,5.444,3.109C755.576,21.662,751.089,27.326,743.736,26.948z M744.49,24.845
			c4.668-0.094,7.179-2.313,7.61-5.925c0.125-1.047-0.411-2.172-0.644-3.261c-1.238,0.369-3.112,0.362-3.594,1.177
			C746.511,19.131,745.73,21.764,744.49,24.845z"/>
		<path fill-rule="evenodd" clip-rule="evenodd" d="M680.229,249.684c-0.437-1.138-0.872-2.275-1.585-4.134
			c-1.153,0.728-2.734,1.149-3.103,2.061c-1.439,3.566-2.648,7.247-3.63,10.969c-0.479,1.815-0.268,3.813-0.383,5.993
			c-1.609,0-3.497,0-5.291,0c2.009-6.153,3.95-12.099,5.892-18.043c-0.28-0.25-0.56-0.5-0.84-0.75
			c-1.799,0.97-3.598,1.94-6.107,3.294c0.655-3.578,1.308-5.604,4.833-5.352c3.82,0.273,7.676,0.063,12.018,0.063
			c-0.29,2.126-0.536,3.932-0.782,5.738C680.91,249.576,680.57,249.63,680.229,249.684z"/>
		<path fill-rule="evenodd" clip-rule="evenodd" d="M697.915,304.223c2.568-6.791,5.564-12.918,5.314-20.656
			c0.808,0.184,2.158,0.507,3.516,0.796c0.631,0.135,1.532,0.522,1.874,0.25c1.798-1.434,3.826-2.022,4.903,0.252
			c0.886,1.87,1.494,4.629,0.745,6.349c-1.237,2.836-3.286,5.325-6.98,6.08c-3.156,0.644-6.57,2.012-3.835,6.93
			C701.159,304.223,699.547,304.223,697.915,304.223z M712.61,285.351c-2.25,0.625-4.624,0.602-5.11,1.548
			c-1.408,2.741-4.482,5.405-2.129,9.104C710.861,294.778,711.461,290.503,712.61,285.351z"/>
		<path fill-rule="evenodd" clip-rule="evenodd" d="M684.584,14.281c4.795-2.189,6.878-0.85,6.873,3.491
			c-0.003,3.45-1.584,6.068-4.206,8.042c-3.255,2.45-5.333,2.052-8.661-0.911c1.244-6.007,2.293-11.672,3.682-17.252
			c0.27-1.077,1.877-1.819,2.867-2.716c0.403,0.256,0.807,0.514,1.209,0.77C685.79,8.416,685.232,11.128,684.584,14.281z
			 M688.788,17.053c-4.868-1.423-6.556,0.446-6.979,7.535C686.244,25.523,688.145,23.549,688.788,17.053z"/>
		<path fill-rule="evenodd" clip-rule="evenodd" d="M207.775,252.685c1.979,0,4.948-0.118,7.903,0.037
			c2.481,0.13,4.277,3.439,3.018,5.935c-1.904,3.773-3.623,7.525-9.253,7.394c-4.246-0.1-2.102,3.649-2.279,6.168
			c-1.475,0-3.125,0-4.399,0C204.393,265.871,205.98,259.682,207.775,252.685z M216.079,255.736
			c-0.506-0.384-1.012-0.769-1.519-1.152c-1.251,0.808-3.027,1.336-3.635,2.483c-1.032,1.948-1.327,4.288-1.931,6.463
			c1.259,0.088,3.373,0.651,3.635,0.183C214.034,261.196,214.977,258.422,216.079,255.736z"/>
		<path fill-rule="evenodd" clip-rule="evenodd" d="M707.388,269.945c-1.547,0-3.146,0-4.034,0c1.514-6.195,3.031-12.412,4.73-19.37
			c0.599,0.107,2.27,0.407,3.088,0.554c2.49-0.165,4.938-1.074,5.969-0.238c2.011,1.633,2.813,3.89,1.025,6.941
			c-2.547,4.347-5.042,7.967-11.075,6.928C707.2,266.673,707.286,268.186,707.388,269.945z M710.648,263.541
			c1.533-1.474,3.064-2.396,3.762-3.75c0.883-1.717,1.167-3.771,1.449-5.717c0.023-0.169-2.646-1.1-2.797-0.864
			c-1.615,2.526-3.051,5.182-4.314,7.905C708.591,261.455,709.72,262.391,710.648,263.541z"/>
		<path fill-rule="evenodd" clip-rule="evenodd" d="M758.732,13.142c0.76,0,2.384,0,4.007,0c0.009,0,0.018-0.001,0.026-0.001
			c1.681,0,4.07-0.692,4.892,0.148c1.566,1.604,3.041,3.311,1.432,6.641c-2.203,4.556-5.132,6.456-10.136,6.777
			c0,1.608,0,3.411,0,5.497c-1.897,0-3.676,0-5.477,0C756.13,26.438,758.199,20.549,758.732,13.142z M759.583,24.39
			c4.839,0.882,7.724-3.232,6.341-8.692C761.967,16.031,759.901,18.791,759.583,24.39z"/>
		<path fill-rule="evenodd" clip-rule="evenodd" d="M165.28,252.354c-0.803-4.899,0.729-6.816,4.845-6.737
			c3.701,0.07,7.403,0.015,11.759,0.015c-0.447,2.631-0.769,4.526-1.092,6.423c-0.428-0.037-0.856-0.074-1.284-0.111
			c-0.283-1.12-0.565-2.239-0.83-3.289c-2.622-0.991-3.68-0.023-4.1,2.538c-0.39,2.38-1.326,4.666-1.913,7.021
			c-0.592,2.374-1.05,4.783-1.658,7.598c-1.381,0-3.375,0-4.636,0c1.821-5.713,3.607-11.318,5.443-17.077
			C168.667,248.492,168.667,248.492,165.28,252.354z"/>
		<path fill-rule="evenodd" clip-rule="evenodd" d="M801.512,188.596c1.583-0.14,2.88-0.255,5.017-0.443
			c-0.698,3.089-1.289,5.708-1.892,8.376c0.906,0,2.112-0.022,3.316,0.004c3.512,0.079,5.361,2.548,3.937,5.763
			c-0.944,2.134-2.27,4.36-4.031,5.805c-2.043,1.676-4.464,3.476-7.575,1.275c-3.336-2.36-0.891-5.093-0.524-7.415
			c0.475-3.013,2.302-5.788,3.081-8.788C803.134,192.037,802.128,190.565,801.512,188.596z M801.599,207.58
			c5.472,0.863,7.909-2.66,6.182-8.585C804.124,198.947,802.138,201.631,801.599,207.58z"/>
		<path fill-rule="evenodd" clip-rule="evenodd" d="M806.466,5.496c1.105,0,2.396,0,4.208,0c-0.852,2.815-1.604,5.306-2.237,7.397
			c1.691,0,3.706-0.592,4.479,0.135c1.233,1.161,2.266,3.196,2.274,4.868c0.025,4.458-2.96,7.756-7.29,8.88
			c-2.756,0.716-5.449-1.772-4.797-4.624c0.535-2.335,1.632-4.549,2.091-6.893C805.804,12.133,806.036,8.935,806.466,5.496z
			 M805.161,24.248c3.792,0.682,6.925-1.383,7.461-4.787c0.185-1.163-0.514-2.464-0.81-3.702c-1.389,0.492-3.426,0.582-4.033,1.559
			C806.514,19.356,806.005,21.864,805.161,24.248z"/>
		<path fill-rule="evenodd" clip-rule="evenodd" d="M764.604,196.188c0.585,0.825,1.443,1.511,1.565,2.309
			c0.378,2.459-4.815,9.72-8.594,11.91c-0.137-2.375-0.261-4.52-0.384-6.664c-0.231-0.188-0.464-0.377-0.695-0.564
			c-1.651,2.353-3.303,4.706-5.174,7.372c-1.985-4.188,0.886-9.425-4.166-13c1.814-0.501,3.16-0.872,4.93-1.36
			c0.416,2.538,0.749,4.572,1.221,7.447c2.037-2.648,3.747-4.868,5.94-7.72c0.383,3.25,0.655,5.564,0.928,7.879
			c0.456,0.081,0.911,0.162,1.366,0.244C762.465,201.675,763.388,199.31,764.604,196.188z"/>
		<path fill-rule="evenodd" clip-rule="evenodd" d="M204.89,286.104c-0.422,1.964-0.843,3.757-1.185,5.564
			c-0.328,1.727-2.416,3.434-0.075,5.316c0.132,0.106-0.932,2.53-1.767,2.78c-0.853,0.255-2.109-0.843-3.651-1.564
			c-0.346,0.311-1.092,1.505-2.042,1.698c-1.175,0.24-3.304,0.028-3.634-0.657c-0.78-1.618-1.543-3.998-0.895-5.425
			C194.888,286.669,196.133,284.483,204.89,286.104z M194.263,293.768c0.526,1.137,0.693,2.227,1.237,2.469
			c0.574,0.257,1.856-0.044,2.221-0.543c1.108-1.524,2.055-3.207,2.792-4.942c0.322-0.756-0.018-1.791-0.058-2.7
			c-1.007,0.174-2.428-0.006-2.94,0.592C196.217,290.159,195.327,292.024,194.263,293.768z"/>
		<path fill-rule="evenodd" clip-rule="evenodd" d="M667.629,278.29c-2.64,1.926-4.43,3.23-6.201,4.522
			c-0.752-2.588,0.489-4.523,3.08-4.77c0.373-0.035,0.748-0.047,1.121-0.047c3.845-0.004,7.689-0.003,11.927-0.003
			c-0.247,1.785-0.454,3.286-0.662,4.786c-0.292,0.08-0.585,0.161-0.877,0.242c-0.524-1.205-1.048-2.41-1.957-4.503
			c-1.135,0.935-2.616,1.559-3.03,2.605c-1.424,3.596-2.612,7.303-3.59,11.047c-0.353,1.349,0.144,2.918,0.331,5.469
			c-1.762,0.223-4.333,0.547-6.904,0.871c-0.139-0.328-0.277-0.657-0.415-0.985C665.523,292.432,666.289,285.859,667.629,278.29z"/>
		<path fill-rule="evenodd" clip-rule="evenodd" d="M704.643,250.727c0.311,3.857-4.347,7.165-0.668,11.185
			c-0.994,0.878-1.966,1.735-3.168,2.797c-1.431-1.779-2.836-2.553-4.998-0.559c-1.795,1.657-4.01,0.408-4.531-2.135
			c-1.204-5.886,4.064-11.778,10.072-11.3C702.419,250.8,703.501,250.727,704.643,250.727z M694.905,260.757
			c4.381-0.214,5.93-2.843,5.104-8.354C695.773,253.132,694.924,254.467,694.905,260.757z"/>
		<path fill-rule="evenodd" clip-rule="evenodd" d="M282.778,201.153c-0.647,2.228-4.803,5.156-6.649,4.513
			c-2.499-0.869-4.643-2.394-4.051-5.619c0.978-5.326,3.381-8.777,8.914-8.124c1.148,0.136,2.743,0.545,3.188,1.35
			c0.39,0.706-0.205,2.648-0.963,3.159c-1.862,1.256-4.096,1.947-6.121,2.981c-0.738,0.377-1.31,1.083-1.958,1.64
			c0.725,0.331,1.469,0.976,2.171,0.934C279.106,201.878,280.885,201.463,282.778,201.153z"/>
		<path fill-rule="evenodd" clip-rule="evenodd" d="M853.26,22.077c0.729,3.749-2.598,3.427-4.183,3.724
			c-1.766,0.331-4.681-0.075-5.535-1.273c-2.867-4.017,2.306-12.647,7.273-12.47c1.095,0.039,3.076,1.064,3.061,1.587
			c-0.05,1.659-0.358,3.919-1.473,4.802c-1.863,1.476-4.428,2.067-6.933,3.13C847.879,25.032,850.433,21.783,853.26,22.077z"/>
		<path fill-rule="evenodd" clip-rule="evenodd" d="M723.639,258.948c2.027,4.654,4.862,0.392,7.196,0.687
			c-0.64,2.898-3.872,5.434-6.389,5.094c-3.26-0.44-2.962-2.971-3.287-5.356c-0.657-4.83,2.708-7.137,5.924-9.13
			c1.068-0.662,3.427,0.758,5.196,1.226c-0.999,1.873-1.629,4.151-3.107,5.496C727.87,258.15,725.62,258.294,723.639,258.948z"/>
		<path fill-rule="evenodd" clip-rule="evenodd" d="M774.833,21.611c0.915,2.388,0.915,2.388,6.053,0.821
			c0.45,2.003-3.132,4.886-5.479,4.41c-3.108-0.63-4.426-4.164-3.553-7.23c0.897-3.153,2.663-5.383,5.41-6.479
			c1.561-0.622,4.422-0.593,5.364,0.403c1.789,1.891,0.965,4.063-1.69,5.19C778.874,19.603,776.878,20.637,774.833,21.611z"/>
		<path fill-rule="evenodd" clip-rule="evenodd" d="M700.612,283.812c-0.603,2.29-1.24,4.263-1.617,6.284
			c-0.296,1.59-0.27,3.239,0.057,5.098c-1.1,1.43-2.598,3.188-4.699,0.326c-1.205,0.847-2.562,1.8-3.897,2.738
			c-3.424-1.261-4.356-3.865-3.415-6.982C688.72,285.712,692.703,283.54,700.612,283.812z M688.972,293.861
			c1.602,0.243,3.293,1.007,3.874,0.499c2.48-2.168,4.174-4.854,2.72-8.728C690.963,286.219,691.174,290.514,688.972,293.861z"/>
		<path fill-rule="evenodd" clip-rule="evenodd" d="M230.836,295.057c-0.259,3.699-2.968,4.694-5.654,4.866
			c-2.775,0.178-3.868-1.877-4.043-4.603c-0.318-4.946,2.933-9.769,7.147-9.824c1.296-0.018,2.607,1.089,3.912,1.681
			c-0.72,1.513-1.114,3.371-2.249,4.449c-1.243,1.182-3.187,1.611-4.788,2.439c-0.444,0.229-0.758,0.711-1.131,1.077
			c0.504,0.412,1.063,1.227,1.504,1.166C227.166,296.086,228.759,295.576,230.836,295.057z"/>
		<path fill-rule="evenodd" clip-rule="evenodd" d="M734.095,23.354c-0.56,0.796-0.932,1.871-1.652,2.216
			c-1.03,0.495-2.454,0.844-3.44,0.496c-0.57-0.202-0.959-1.947-0.819-2.909c0.287-1.982,0.983-3.904,1.559-6.023
			c-2.673-1.978-2.673-1.978,2.262-4.622c3.428,3.794-0.764,7.316-0.692,10.916c0.313,0.144,0.627,0.289,0.94,0.433
			c2.268-3.66,4.535-7.32,6.896-11.13c3.127,4.035-4.198,7.745,0.592,11.167C736.801,27.418,736.024,27.344,734.095,23.354z"/>
		<path fill-rule="evenodd" clip-rule="evenodd" d="M842.515,204.819c0.369,0.826,0.792,1.774,1.215,2.723
			c1.888-0.788,3.542-1.48,5.701-2.382c-0.083,1.147,0.112,2.362-0.23,2.541c-1.818,0.946-3.819,2.347-5.669,2.227
			c-2.356-0.152-4.463-1.633-4.462-4.748c0.002-5.353,2.784-8.548,8.038-8.7c1.057-0.031,3.064,0.691,3.046,0.949
			c-0.11,1.478-0.259,3.442-1.225,4.257C847.337,203.027,845.111,203.617,842.515,204.819z"/>
		<path fill-rule="evenodd" clip-rule="evenodd" d="M204.007,264.566c-1.71,0.354-3.029,0.688-4.368,0.886
			c-1.495,0.222-3.104,0.045-4.493,0.532c-2.538,0.888-4.145,0.021-4.276-2.669c-0.369-7.554,4.213-11.131,13.442-10.353
			C204.911,256.727,199.755,260.165,204.007,264.566z M200.788,255.123c-3.761-0.252-7.358,3.397-7.236,5.678
			c0.043,0.812,0.763,1.979,1.462,2.254c0.691,0.272,2.248-0.104,2.552-0.668C198.82,260.063,199.743,257.56,200.788,255.123z"/>
		<path fill-rule="evenodd" clip-rule="evenodd" d="M253.064,265.412c-2.644-3.83,5.041-7.536-1.562-11.779
			c2.894-0.559,4.774-0.922,7.587-1.465c-1.215,4.202-2.106,7.282-2.996,10.362c0.375,0.202,0.751,0.404,1.126,0.606
			c1.249-1.854,2.805-3.575,3.684-5.592c1.923-4.408,1.782-4.469,4.57-4.771c-0.589,2.033-1.296,3.915-1.642,5.862
			c-0.247,1.391,0.271,2.94-0.075,4.284c-0.258,1-1.898,2.61-1.999,2.544C258.825,263.534,255.926,266.296,253.064,265.412z"/>
		<path fill-rule="evenodd" clip-rule="evenodd" d="M751.938,294.485c5.58-2.154,5.126-8.507,9.032-11.257
			c2.137,4.537-4.078,7.858-0.077,11.75c-2.983,2.998-3.32,2.982-4.983-0.172c-1.73,0.912-3.477,1.833-5.223,2.754
			c-0.405-0.215-0.809-0.429-1.213-0.643c0.471-3.165,0.941-6.33,1.443-9.698c-0.49,0-1.451,0-2.411,0
			c-0.42-0.507-0.839-1.014-1.258-1.521c1.239-0.65,2.477-1.303,3.717-1.951c2.002-1.048,3.911,0.045,3.521,2.306
			C754.039,288.623,752.997,291.089,751.938,294.485z"/>
		<path fill-rule="evenodd" clip-rule="evenodd" d="M829.511,25.281c-1.457,0-2.918-0.057-4.371,0.018
			c-1.148,0.06-2.289,0.394-3.434,0.4c-1.142,0.005-2.928,0.136-3.286-0.468c-0.688-1.157-1.084-2.971-0.67-4.197
			c0.788-2.329,2.007-4.6,3.456-6.597c2.257-3.109,5.557-2.482,9.07-1.576c-0.579,3.614-1.186,7.397-1.792,11.181
			C828.826,24.455,829.169,24.868,829.511,25.281z M820.665,23.192c3.489-0.395,6.339-3.058,6.373-6.017
			c0.009-0.767-0.289-1.816-0.831-2.224c-0.438-0.331-1.548-0.082-2.198,0.239C820.596,16.872,819.925,19.732,820.665,23.192z"/>
		<path fill-rule="evenodd" clip-rule="evenodd" d="M824.433,208.75c-0.132,0-1.249,0.001-2.367,0c-1.06,0-2.487-0.438-3.107,0.085
			c-1.563,1.316-2.757,1.945-4.275,0.065c-1.392-1.725-1.92-2.952-0.995-5.625c2.346-6.775,7.099-7.323,13.102-6.477
			C826.098,200.309,825.372,203.989,824.433,208.75z M821.669,197.026c-2.83,3.087-6.503,5.321-4.598,10.189
			C822.583,205.088,824.241,201.662,821.669,197.026z"/>
		<path fill-rule="evenodd" clip-rule="evenodd" d="M231.101,262.856c-2.069,2.573-6.367,4.086-8.829,2.534
			c-1.197-0.753-2.159-2.769-2.219-4.254c-0.127-3.137,3.4-7.655,5.85-8.394c2.571-0.775,4.925-1.105,6.03,2.004
			c-1.108,4.199-4.271,5.116-7.953,4.952c-0.262,3.492,1.125,4.423,4.24,3.277c0.844-0.311,1.891-0.065,2.835-0.062
			C231.045,262.93,231.101,262.856,231.101,262.856z"/>
		<path fill-rule="evenodd" clip-rule="evenodd" d="M778.443,205.828c-2.308,3.182-4.792,4.578-7.52,4.249
			c-2.749-0.333-3.307-2.791-3.167-5.44c0.351-6.691,3.973-8.383,8.48-8.087c0.963,0.063,2.469,0.706,2.664,1.388
			c0.257,0.894-0.209,2.568-0.938,3.067c-2.287,1.565-4.846,2.738-7.467,4.154C770.948,206.928,770.948,206.928,778.443,205.828z"/>
		<path fill-rule="evenodd" clip-rule="evenodd" d="M249.757,300.058c-3.34,0.006-5.105-2.618-4.736-6.727
			c0.303-3.384,2.372-5.744,4.917-7.287c1.42-0.86,4.434-0.949,5.533-0.001c1.32,1.14,2.061,3.837,1.833,5.712
			C256.712,296.637,253.251,300.052,249.757,300.058z M254.771,289.129c-0.397-0.296-1.229-1.417-2.167-1.515
			c-2.179-0.229-4.846,3.4-4.67,6.426c0.062,1.067,0.873,2.784,1.657,2.986C251.885,297.619,254.615,293.789,254.771,289.129z"/>
		<path fill-rule="evenodd" clip-rule="evenodd" d="M746.333,201.621c-0.099,4.054-3.521,8.228-7.36,8.978
			c-2.589,0.506-5.487-2.016-5.8-4.81c-0.427-3.805,3.946-9.262,7.843-9.31C745.102,196.43,746.434,197.509,746.333,201.621z
			 M744.144,200.75c-0.527-0.585-0.995-1.466-1.718-1.807c-0.732-0.345-2.194-0.533-2.509-0.136
			c-1.369,1.732-2.688,3.604-3.497,5.635c-0.353,0.881,0.243,2.859,0.996,3.274c0.91,0.502,3.087,0.336,3.582-0.354
			C742.307,205.539,743.005,203.276,744.144,200.75z"/>
		<path fill-rule="evenodd" clip-rule="evenodd" d="M757.392,255.727c0.367,4.098-2.383,6.425-5.179,8.486
			c-2.556,1.886-4.896,0.035-6.294-1.77c-2.904-3.75,1.569-12.173,6.405-12.509C756.024,249.677,757.651,251.537,757.392,255.727z
			 M748.769,262.376c3.063-0.265,5.896-3.258,6.179-6.79c0.087-1.092-0.526-2.239-0.819-3.361c-1.359,0.362-3.197,0.293-3.99,1.169
			C747.816,255.961,747.023,259.054,748.769,262.376z"/>
		<path fill-rule="evenodd" clip-rule="evenodd" d="M237.025,296.348c1.477-0.475,2.955-0.95,4.393-1.412
			c0.488,5.075-0.786,5.769-9.123,4.753c-0.562-5.119,4.918-6.276,6.135-10.852c-1.283,0.115-2.885,0.258-4.723,0.423
			c0.434-1.232,0.815-2.318,1.175-3.343c2.917,0,5.703,0,9.484,0c-3.063,3.578-5.55,6.484-8.038,9.39
			C236.561,295.654,236.793,296.001,237.025,296.348z"/>
		<path fill-rule="evenodd" clip-rule="evenodd" d="M482.107,122.392c2.251,3.338,5.036,1.936,7.771,0.841
			c0.13,0.417,0.259,0.834,0.389,1.251c-2.309,1.012-4.557,2.513-6.952,2.805c-1.001,0.122-3.032-2.168-3.354-3.634
			c-1.038-4.73,3.495-10.546,7.833-10.286c1.123,0.067,2.97,1.269,3.067,2.114c0.142,1.223-0.657,3.128-1.676,3.792
			C487.12,120.62,484.641,121.327,482.107,122.392z M483.08,118.731c0.437,0.435,0.873,0.868,1.311,1.303
			c1.284-1.252,2.57-2.504,3.855-3.756c-0.525-0.387-1.409-1.191-1.52-1.096C485.443,116.286,484.277,117.526,483.08,118.731z"/>
		<path fill-rule="evenodd" clip-rule="evenodd" d="M726.355,294.911c-1.565,1.063-3.132,2.126-4.698,3.188
			c-3.844-0.84-5.569-3.078-4.854-7.09c0.557-3.119,3.876-7.332,6.511-7.347c1.56-0.008,3.124,1.122,4.686,1.741
			c-0.905,1.544-1.476,3.547-2.801,4.516c-1.651,1.205-3.926,1.555-5.976,2.29c0.197,3.295,2.521,2.482,4.375,2.434
			c0.915-0.023,1.825-0.211,2.737-0.325c-0.03,0.22-0.061,0.44-0.091,0.662L726.355,294.911z M724.103,284.352
			c-1.87,2.062-3.166,3.492-4.464,4.922C722.771,289.553,725.141,289.124,724.103,284.352z"/>
		<path fill-rule="evenodd" clip-rule="evenodd" d="M726.244,294.98c1.478-1,3.113-1.832,4.392-3.042
			c1.575-1.489,2.854-3.295,4.26-4.964c-0.176-0.346-0.353-0.693-0.528-1.04c-1.681,0.646-3.361,1.291-5.046,1.938
			c-0.17-4.131,2.319-5.131,10.581-3.869c-2.728,3.247-5.23,6.226-7.732,9.204c0.22,0.354,0.439,0.708,0.659,1.062
			c1.447-0.535,2.894-1.071,5.63-2.084c-1.201,2.141-1.608,3.91-2.692,4.576c-2.193,1.348-7.852-0.048-9.401-1.858
			C726.355,294.911,726.244,294.98,726.244,294.98z"/>
		<path fill-rule="evenodd" clip-rule="evenodd" d="M829.772,25.978c0.431-1.748,0.745-3.024,1.226-4.975
			c1.012,0.933,1.364,1.354,1.805,1.645c0.966,0.638,1.978,1.21,2.97,1.81c-0.178-1.341,0.018-2.897-0.608-3.979
			c-1.491-2.576-3.058-5.295-0.299-7.527c1.358-1.1,3.919-0.711,6.574-1.086c-0.347,2.053-0.573,3.396-0.814,4.83
			c-0.741-0.173-1.129-0.187-1.437-0.351c-0.904-0.485-1.776-1.029-2.661-1.55c0.249,1.119,0.132,2.603,0.815,3.287
			c2.036,2.038,2.73,4.554,1.339,6.699c-1.318,2.032-3.9,2.229-6.313,1.08C831.894,25.632,831.187,25.893,829.772,25.978z"/>
		<path fill-rule="evenodd" clip-rule="evenodd" d="M732.646,188.376c1.079,6.662-4.951,12.257-2.511,19.813
			c0.256-0.607,0.21-0.125-0.044,0.039c-1.21,0.785-2.476,1.484-3.723,2.214c-0.188-1.714-0.764-3.496-0.48-5.128
			c0.541-3.108,1.611-6.122,2.381-9.195c0.299-1.191,0.76-2.53,0.489-3.642C727.971,189.23,729.629,188.451,732.646,188.376z"/>
		<path fill-rule="evenodd" clip-rule="evenodd" d="M181.222,252.987c2.376,0,5.651,0,9.059,0c0.047,2.147,0.242,3.601-2.743,3.849
			c-1.425,0.119-2.685,2.737-3.936,4.29c-1.186,1.473-2.261,3.034-3.384,4.557c0.02-2.149-0.065-4.306,0.092-6.444
			C180.453,257.299,180.861,255.378,181.222,252.987z"/>
		<path fill-rule="evenodd" clip-rule="evenodd" d="M837.126,196.67c-0.125,1.167-0.23,2.153-0.408,3.808
			c-1.364-1.304-2.404-2.298-3.445-3.293c-0.4,0.194-0.802,0.388-1.204,0.581c0.647,1.313,1.089,2.791,1.985,3.901
			c1.441,1.786,3.117,3.834,1.644,5.818c-1.624,2.185-4.314,3.606-7.112,1.509c-0.897-0.672-1.272-2.041-1.887-3.092
			c0.287-0.216,0.575-0.433,0.862-0.648c1.34,0.973,2.679,1.946,4.02,2.919c0.363-0.28,0.727-0.561,1.09-0.842
			c-0.49-1.41-1.026-2.806-1.459-4.233c-0.546-1.796-1.007-3.617-1.504-5.428c1.604-0.381,3.196-0.839,4.818-1.111
			C835.348,196.421,836.226,196.62,837.126,196.67z"/>
		<path fill-rule="evenodd" clip-rule="evenodd" d="M790.591,196.861c-0.157,1.409-0.291,2.615-0.453,4.06
			c-7.471-1.558-5.212,7.096-10.115,9.096c-1.773-4.753,3.09-8.607,1.517-13.155C784.509,196.861,787.28,196.861,790.591,196.861z"
			/>
		<path fill-rule="evenodd" clip-rule="evenodd" d="M182.478,286.293c2.146,0,5.063,0,8.25,0c0.087,1.735,0.494,3.412-2.749,3.648
			c-1.314,0.097-2.671,2.342-3.625,3.852c-0.906,1.435-1.215,3.233-1.983,4.774c-0.305,0.611-1.14,0.959-1.734,1.426
			c-0.337-0.698-0.898-1.38-0.956-2.102c-0.078-0.963,0.147-1.981,0.396-2.935C180.811,292.148,181.622,289.361,182.478,286.293z"/>
		<path fill-rule="evenodd" clip-rule="evenodd" d="M786.126,12.19c1.131,0.232,2.757,0.566,4.384,0.899
			c-0.063,0.29-0.127,0.58-0.19,0.87c1.18-0.552,2.358-1.104,3.537-1.657c0.301,1.019,0.864,2.055,0.803,3.052
			c-0.038,0.6-1.137,1.693-1.611,1.619c-4.307-0.673-4.302,3.024-5.627,5.352c-0.771,1.355-1.486,2.744-2.228,4.117
			c-0.468-0.184-0.936-0.368-1.404-0.553C784.523,21.586,785.257,17.283,786.126,12.19z"/>
		<path fill-rule="evenodd" clip-rule="evenodd" d="M681.166,265.258c-3.041-2.566-1.084-4.952-0.717-7.143
			c0.393-2.35,1.131-4.64,1.883-7.603c0.84,0.178,2.163,0.476,3.496,0.725c0.434,0.081,0.989,0.21,1.324,0.021
			c3.194-1.798,3.628-0.242,3.172,2.781C682.858,253.77,683.631,260.552,681.166,265.258z"/>
		<path fill-rule="evenodd" clip-rule="evenodd" d="M685.913,284.495c0,0.584,0,1.884,0,3.372c-5.539-0.63-5.704,4.322-7.874,7.224
			c-0.557,0.745-1.378,1.292-2.078,1.931c-0.146-0.956-0.583-1.977-0.39-2.857c0.709-3.227,1.629-6.407,2.485-9.669
			C679.985,284.495,682.639,284.495,685.913,284.495z"/>
		<path fill-rule="evenodd" clip-rule="evenodd" d="M536.324,109.861c0.197,1.526,0.396,3.052,0.598,4.618
			c-2.427,1.754-3.636,6.267-2.736,9.571c0.175,0.645-0.379,2.105-0.782,2.18c-1.455,0.269-2.99,0.105-4.202,0.105
			c0.89-4.258,1.326-7.876,2.469-11.257c0.708-2.098,2.485-3.835,3.784-5.733C535.744,109.517,536.034,109.689,536.324,109.861z"/>
		<path fill-rule="evenodd" clip-rule="evenodd" d="M520.767,117.515c-0.225,0.814-0.331,1.687-0.697,2.432
			c-0.837,1.705-1.767,3.367-2.735,5.001c-0.33,0.556-0.893,0.973-1.349,1.454c-0.36-0.662-1.133-1.412-1.013-1.97
			c0.724-3.358,1.671-6.669,2.506-10.005c0.492-1.959,0.794-3.976,1.415-5.892c0.392-1.205,1.217-2.268,1.847-3.396
			c0.555,0.216,1.109,0.432,1.665,0.648c-0.699,3.109-1.468,6.206-2.047,9.336c-0.142,0.771,0.333,1.655,0.523,2.486
			L520.767,117.515z"/>
		<path fill-rule="evenodd" clip-rule="evenodd" d="M460.743,173.02c10.615,0,20.412,0,29.988,0
			C489.347,174.681,464.424,175.363,460.743,173.02z"/>
		<path fill-rule="evenodd" clip-rule="evenodd" d="M264.941,285.588c-0.226,4.243-0.174,7.859-0.744,11.374
			c-0.185,1.139-2.001,2.014-3.07,3.01c-0.586-1.166-1.544-2.3-1.646-3.508c-0.091-1.068,0.969-2.184,1.167-3.339
			c0.385-2.236,0.522-4.515,0.822-7.337C262.369,285.736,263.873,285.649,264.941,285.588z"/>
		<path fill-rule="evenodd" clip-rule="evenodd" d="M760.23,250.412c2.376-0.239,3.675-0.369,6.073-0.61
			c-0.888,2.314-1.797,3.921-2.074,5.632c-0.265,1.629,0.132,3.365,0.237,5.055c0.384,0.086,0.769,0.172,1.154,0.258
			c-1.463,1.341-2.926,2.682-4.793,4.392C757.357,259.898,764.724,255.515,760.23,250.412z"/>
		<path fill-rule="evenodd" clip-rule="evenodd" d="M490.541,48.703c-11.263,0-22.527,0-33.791,0c0-0.311-0.001-0.622-0.002-0.933
			c11.269,0,22.539,0,33.807,0C490.551,48.082,490.546,48.393,490.541,48.703z"/>
		<path fill-rule="evenodd" clip-rule="evenodd" d="M742.89,283.753c1.322,0,2.885,0,4.36,0c-0.851,2.939-1.683,5.693-2.418,8.474
			c-0.121,0.455,0.223,1.016,0.278,1.536c0.083,0.779,0.365,2.129,0.103,2.251c-1.06,0.495-2.346,0.913-3.441,0.727
			c-0.458-0.078-1.024-1.791-0.893-2.663C741.383,290.732,742.15,287.427,742.89,283.753z"/>
		<path fill-rule="evenodd" clip-rule="evenodd" d="M498.916,113.625c-0.25,1.781-0.458,3.57-0.762,5.341
			c-0.274,1.597-0.603,3.188-1.004,4.757c-0.248,0.965-0.429,2.215-1.103,2.725c-0.618,0.467-2.085,0.452-2.747,0.008
			c-0.47-0.315-0.413-1.734-0.258-2.6c0.527-2.939,0.994-5.921,1.934-8.737c0.323-0.967,1.969-1.493,3.01-2.22
			C498.296,113.141,498.606,113.383,498.916,113.625z"/>
		<path fill-rule="evenodd" clip-rule="evenodd" d="M520.882,117.612c1.205-1.407,2.274-2.979,3.685-4.134
			c0.501-0.409,2.612,0.074,2.656,0.357c0.295,1.897,0.308,3.852,0.254,5.783c-0.037,1.352-0.063,2.807-0.576,4.012
			c-0.549,1.292-1.659,2.345-2.524,3.503c-0.51-0.255-1.02-0.51-1.53-0.765c0.656-3.233,1.312-6.465,1.994-9.836
			c-1.081,0.265-2.57,0.63-4.066,0.989C520.767,117.515,520.882,117.612,520.882,117.612z"/>
		<path fill-rule="evenodd" clip-rule="evenodd" d="M739.512,255.188c-1.168,1.803-2.335,3.605-3.984,6.151
			c2.278-0.827,4.017-1.458,5.756-2.09c0.305,0.166,0.608,0.333,0.913,0.499c-0.798,1.487-1.334,3.973-2.444,4.263
			c-2.735,0.717-5.862,1.332-8.942-1.005c2.962-2.882,5.657-5.505,8.352-8.128C739.277,254.981,739.395,255.085,739.512,255.188z"/>
		<path fill-rule="evenodd" clip-rule="evenodd" d="M250.914,252.601c-0.987,2.957-1.693,4.889-2.255,6.861
			c-0.175,0.614-0.124,1.4,0.103,2.003c1.354,3.607,0.837,4.226-3.925,3.826c0.706-3.999,1.402-7.948,2.206-12.503
			C247.548,252.764,248.877,252.699,250.914,252.601z"/>
		<path fill-rule="evenodd" clip-rule="evenodd" d="M235.324,261.091c1.075-1.819,2.148-3.64,3.627-6.146
			c-1.919,0.427-3.578,0.795-5.268,1.171c-0.901-2.208-0.447-3.419,1.968-3.517c2.448-0.1,4.913,0.191,8.569,0.369
			c-3.5,3.138-6.236,5.59-8.971,8.042L235.324,261.091z"/>
		<path fill-rule="evenodd" clip-rule="evenodd" d="M717.887,19c-0.683,0.538-1.356,1.524-2.051,1.538
			c-3.829,0.077-7.668-0.012-11.494-0.226c-0.705-0.04-1.364-0.912-2.045-1.4c0.691-0.317,1.377-0.896,2.074-0.91
			c4.312-0.085,8.626-0.042,12.939-0.042C717.503,18.307,717.694,18.653,717.887,19z"/>
		<path fill-rule="evenodd" clip-rule="evenodd" d="M717.534,15.609c-5.193,0-10.188,0-15.181,0
			c-0.087-0.357-0.174-0.714-0.26-1.072c1.02-0.272,2.036-0.772,3.059-0.782C716.453,13.638,716.454,13.659,717.534,15.609z"/>
		<path fill-rule="evenodd" clip-rule="evenodd" d="M294.501,192.372c7.979-0.982,13.451-0.589,14.98,1.016
			C305.397,195.258,295.563,194.721,294.501,192.372z"/>
		<path fill-rule="evenodd" clip-rule="evenodd" d="M309.898,198.342c-5.409,0-10.317,0-15.559,0
			c0.347-0.641,0.533-1.548,0.962-1.683C298.211,195.74,308.049,196.671,309.898,198.342z"/>
		<path fill-rule="evenodd" clip-rule="evenodd" d="M546.948,119.814c2.201-2.9,13.397-2.744,14.861,0
			C556.879,119.814,552.069,119.814,546.948,119.814z"/>
		<path fill-rule="evenodd" clip-rule="evenodd" d="M235.249,261.011c1.239,2.997,2.626,3.056,5.804,0.113
			c0.939,3.213,0.003,4.763-3.418,4.535c-1.481-0.098-2.979-0.13-4.458-0.034c-2.18,0.142-2.563-0.944-2.083-2.759
			c0.007-0.01-0.048,0.063-0.04,0.049c0.707-0.226,1.43-0.377,2.095-0.663c0.752-0.324,1.453-0.769,2.176-1.161
			C235.324,261.091,235.249,261.011,235.249,261.011z"/>
		<path fill-rule="evenodd" clip-rule="evenodd" d="M546.927,115.307c2.356-2.824,13.096-2.769,14.892,0
			C556.842,115.307,552.104,115.307,546.927,115.307z"/>
		<path fill-rule="evenodd" clip-rule="evenodd" d="M715.597,203.226c-5.185,0-10.369,0-15.555,0c0-0.377,0.002-0.752,0.003-1.128
			c5.204,0,10.408,0,15.612,0C715.637,202.474,715.617,202.849,715.597,203.226z"/>
		<path fill-rule="evenodd" clip-rule="evenodd" d="M739.161,254.878c-1.063-5.447-3.857,0.657-5.538-0.737
			c1.074-4.071,4.996-5.243,10.59-2.842c-1.699,1.406-3.2,2.647-4.701,3.889C739.395,255.085,739.277,254.981,739.161,254.878z"/>
		<path fill-rule="evenodd" clip-rule="evenodd" d="M700.175,197.351c5.067,0,10.136,0,15.204,0c0,0.403,0.002,0.806,0.002,1.207
			c-5.079,0-10.159,0-15.238,0C700.153,198.156,700.164,197.754,700.175,197.351z"/>
		<path fill-rule="evenodd" clip-rule="evenodd" fill="#FFFFFF" d="M426.29,171.64c-10.562,0.209-21.123,0.491-31.686,0.609
			c-12.098,0.135-24.199,0.157-36.299,0.171c-43.982,0.051-87.965,0.011-131.946,0.137c-27.21,0.078-54.42,0.401-81.63,0.568
			c-0.884,0.006-1.77-0.492-2.655-0.756c0.301-0.749,0.563-1.516,0.909-2.243c3.436-7.228,6.816-14.482,10.348-21.663
			c4.042-8.217,8.278-16.339,12.316-24.559c2.09-4.253,3.808-8.691,5.92-12.933c2.166-4.349,5.321-8.333,6.769-12.883
			c2.282-7.177,8.552-6.958,13.79-8.675c5.014-1.642,10.155-2.928,15.289-4.169c4.216-1.019,8.516-1.68,12.754-2.609
			c7.953-1.744,15.948-3.337,23.815-5.415c10.114-2.671,20.105-5.805,30.175-8.644c4.382-1.236,8.827-2.25,13.25-3.34
			c12.364-3.043,24.74-6.045,37.096-9.123c5.502-1.371,11.06-2.615,16.421-4.423c4.269-1.439,6.278,0.98,8.172,3.797
			c6.097,9.066,11.998,18.264,18.144,27.296c4.098,6.023,8.586,11.781,12.716,17.784c5.136,7.466,10.059,15.081,15.118,22.6
			c9.447,14.041,18.926,28.06,28.391,42.088c1.166,1.728,2.333,3.455,3.5,5.182C426.74,170.839,426.516,171.238,426.29,171.64z"/>
		<path fill-rule="evenodd" clip-rule="evenodd" fill="#FFFFFF" d="M450.71,172.524c-3.627,0-6.889-0.507-9.928,0.1
			c-7.519,1.501-11.151-2.416-14.616-8.345c-4.173-7.141-9.547-13.568-14.155-20.469c-4.98-7.458-9.569-15.178-14.524-22.653
			c-5.063-7.637-10.37-15.112-15.555-22.668c-3.581-5.219-7.173-10.429-10.691-15.69c-6.114-9.141-12.14-18.34-18.283-27.461
			c-1.227-1.822-2.814-3.402-4.235-5.093c0.181-0.341,0.362-0.683,0.542-1.025c33.169,0,66.339,0,100.221,0
			c-2.112,7.189-4.125,14.038-6.137,20.886c0.214,0.141,0.428,0.281,0.641,0.42c1.422-1.223,2.844-2.447,4.266-3.67
			c0.408,0.11,0.816,0.22,1.224,0.33c0,29.227,0,58.453,0,88.205c-1.65-1.202-3.446-2.51-6.176-4.498
			C445.918,158.529,448.202,165.198,450.71,172.524z"/>
		<path fill-rule="evenodd" clip-rule="evenodd" fill="#FFFFFF" d="M867.267,170.54c-82.309,0-163.912,0-246.149,0
			c2.736-5.263,5.44-10.3,7.989-15.415c1.771-3.557,3.247-7.262,5.004-10.827c4.456-9.044,9.029-18.03,13.486-27.074
			c2.031-4.124,3.797-8.378,5.864-12.483c2.696-5.355,5.654-10.579,8.348-15.937c2.597-5.164,4.978-10.435,7.492-15.639
			c2.324-4.808,4.674-9.604,7.064-14.379c1.123-2.245,2.647-4.329,3.484-6.666c0.938-2.619,2.625-3.316,5.128-3.313
			c17.615,0.025,35.231,0.079,52.847-0.031c19.585-0.123,39.169-0.423,58.754-0.606c2.241-0.021,4.511,0.059,6.715,0.413
			c0.827,0.132,1.77,1.036,2.212,1.835c4.158,7.509,8.354,15.002,12.271,22.636c4.068,7.928,7.753,16.054,11.771,24.009
			c4.209,8.331,8.703,16.518,12.906,24.852c2.768,5.49,5.156,11.171,7.872,16.689c1.966,3.992,4.208,7.847,6.295,11.78
			C860.03,156.806,863.414,163.242,867.267,170.54z"/>
		<path fill-rule="evenodd" clip-rule="evenodd" fill="#FFFFFF" d="M324.793,203.144c0.092-3.079-1.195-6.594,2.42-7.82
			c0.885-0.301,3.611,1.714,3.744,2.865C331.456,202.532,326.883,201.359,324.793,203.144z"/>
		<path fill-rule="evenodd" clip-rule="evenodd" fill="#FFFFFF" d="M325.947,192.635c1.114-2.094,1.765-3.73,2.822-5.037
			c0.302-0.374,2.531,0.053,2.595,0.372c0.293,1.445,0.129,2.983,0.129,4.665C329.759,192.635,328.434,192.635,325.947,192.635z"/>
		<path fill-rule="evenodd" clip-rule="evenodd" fill="#FFFFFF" d="M684.253,201.292c0.943,6.057,0.096,6.902-6.032,6.311
			C677.857,202.419,679.372,200.771,684.253,201.292z"/>
		<path fill-rule="evenodd" clip-rule="evenodd" fill="#FFFFFF" d="M680.439,198.081c0.384-1.112,0.657-2.282,1.184-3.322
			c0.438-0.865,1.033-1.937,1.821-2.248c0.642-0.253,2.294,0.336,2.411,0.817c0.291,1.188,0.45,3.078-0.23,3.69
			c-1.23,1.104-3.112,1.479-4.723,2.159C680.748,198.813,680.594,198.446,680.439,198.081z"/>
		<path fill-rule="evenodd" clip-rule="evenodd" fill="#FFFFFF" d="M254.407,193.062c3.075,2.848,1.986,5.98-3.378,9.723
			C248.613,199.601,249.324,197.555,254.407,193.062z"/>
		<path fill-rule="evenodd" clip-rule="evenodd" fill="#FFFFFF" d="M276.161,287.537c0.801,4.116-0.632,6.562-5.048,8.607
			C269.323,290.964,270.988,288.125,276.161,287.537z"/>
		<path fill-rule="evenodd" clip-rule="evenodd" fill="#FFFFFF" d="M511.251,117.501c-2.233,1.458-3.423,2.615-4.819,2.978
			c-0.634,0.165-1.676-1.242-2.533-1.936c1.265-1.131,2.427-2.436,3.861-3.276C508.14,115.045,509.356,116.25,511.251,117.501z"/>
		<path fill-rule="evenodd" clip-rule="evenodd" fill="#FFFFFF" d="M509.264,130.594c-2.48,0-4.961,0-8.477,0
			c1.681-1.802,2.548-2.734,3.452-3.704c1.81,0.875,3.501,1.694,5.193,2.514C509.377,129.801,509.32,130.197,509.264,130.594z"/>
		<path fill-rule="evenodd" clip-rule="evenodd" fill="#FFFFFF" d="M776.476,251.09c1.666,5.925-1.968,7.668-5.507,10.881
			c0-2.758-0.631-4.925,0.156-6.251C772.167,253.964,774.318,252.867,776.476,251.09z"/>
		<path fill-rule="evenodd" clip-rule="evenodd" fill="#FFFFFF" d="M241.105,195.083c1.364,5.794-0.935,8.848-5.963,7.924
			C235.576,195.968,236.558,194.664,241.105,195.083z"/>
		<path fill-rule="evenodd" clip-rule="evenodd" fill="#FFFFFF" d="M214.919,287.1c0.772,1.536,1.741,2.613,1.501,3.132
			c-1.236,2.674-2.716,5.246-4.295,7.737c-0.211,0.332-1.468,0.001-2.241-0.023c0.236-2.259,0.068-4.671,0.844-6.726
			C211.274,289.771,213.103,288.807,214.919,287.1z"/>
		<path fill-rule="evenodd" clip-rule="evenodd" fill="#FFFFFF" d="M744.49,24.845c1.24-3.081,2.021-5.714,3.373-8.009
			c0.481-0.815,2.355-0.809,3.594-1.177c0.232,1.089,0.769,2.214,0.644,3.261C751.669,22.532,749.158,24.751,744.49,24.845z"/>
		<path fill-rule="evenodd" clip-rule="evenodd" fill="#FFFFFF" d="M712.61,285.351c-1.149,5.152-1.749,9.428-7.239,10.651
			c-2.354-3.698,0.721-6.362,2.129-9.104C707.986,285.952,710.36,285.976,712.61,285.351z"/>
		<path fill-rule="evenodd" clip-rule="evenodd" fill="#FFFFFF" d="M688.788,17.053c-0.644,6.496-2.544,8.47-6.979,7.535
			C682.232,17.499,683.92,15.63,688.788,17.053z"/>
		<path fill-rule="evenodd" clip-rule="evenodd" fill="#FFFFFF" d="M216.079,255.736c-1.103,2.686-2.045,5.46-3.45,7.977
			c-0.262,0.469-2.376-0.095-3.635-0.183c0.604-2.175,0.899-4.515,1.931-6.463c0.607-1.147,2.384-1.676,3.635-2.483
			C215.067,254.968,215.573,255.353,216.079,255.736z"/>
		<path fill-rule="evenodd" clip-rule="evenodd" fill="#FFFFFF" d="M710.648,263.541c-0.929-1.15-2.058-2.086-1.9-2.426
			c1.264-2.724,2.699-5.379,4.314-7.905c0.15-0.235,2.82,0.695,2.797,0.864c-0.282,1.946-0.566,4-1.449,5.717
			C713.713,261.145,712.182,262.067,710.648,263.541z"/>
		<path fill-rule="evenodd" clip-rule="evenodd" fill="#FFFFFF" d="M759.583,24.39c0.318-5.6,2.384-8.359,6.341-8.692
			C767.307,21.158,764.422,25.272,759.583,24.39z"/>
		<path fill-rule="evenodd" clip-rule="evenodd" fill="#FFFFFF" d="M801.599,207.58c0.539-5.949,2.525-8.633,6.182-8.585
			C809.508,204.92,807.07,208.443,801.599,207.58z"/>
		<path fill-rule="evenodd" clip-rule="evenodd" fill="#FFFFFF" d="M805.161,24.248c0.844-2.384,1.353-4.892,2.618-6.931
			c0.607-0.977,2.645-1.066,4.033-1.559c0.296,1.238,0.994,2.54,0.81,3.702C812.086,22.865,808.953,24.93,805.161,24.248z"/>
		<path fill-rule="evenodd" clip-rule="evenodd" fill="#FFFFFF" d="M194.263,293.768c1.064-1.743,1.954-3.608,3.251-5.125
			c0.512-0.598,1.933-0.418,2.94-0.592c0.04,0.909,0.379,1.944,0.058,2.7c-0.737,1.735-1.684,3.418-2.792,4.942
			c-0.364,0.499-1.647,0.8-2.221,0.543C194.956,295.994,194.789,294.904,194.263,293.768z"/>
		<path fill-rule="evenodd" clip-rule="evenodd" fill="#FFFFFF" d="M694.905,260.757c0.019-6.29,0.868-7.625,5.104-8.354
			C700.835,257.914,699.286,260.543,694.905,260.757z"/>
		<path fill-rule="evenodd" clip-rule="evenodd" fill="#FFFFFF" d="M688.972,293.861c2.202-3.348,1.991-7.643,6.594-8.229
			c1.454,3.873-0.239,6.56-2.72,8.728C692.265,294.868,690.573,294.104,688.972,293.861z"/>
		<path fill-rule="evenodd" clip-rule="evenodd" fill="#FFFFFF" d="M200.788,255.123c-1.045,2.437-1.968,4.939-3.223,7.264
			c-0.304,0.563-1.861,0.94-2.552,0.668c-0.699-0.275-1.419-1.442-1.462-2.254C193.43,258.521,197.027,254.871,200.788,255.123z"/>
		<path fill-rule="evenodd" clip-rule="evenodd" fill="#FFFFFF" d="M820.665,23.192c-0.74-3.46-0.069-6.32,3.344-8.001
			c0.65-0.321,1.761-0.569,2.198-0.239c0.542,0.408,0.84,1.457,0.831,2.224C827.004,20.134,824.154,22.797,820.665,23.192z"/>
		<path fill-rule="evenodd" clip-rule="evenodd" fill="#FFFFFF" d="M821.669,197.026c2.572,4.636,0.914,8.062-4.598,10.189
			C815.166,202.348,818.839,200.113,821.669,197.026z"/>
		<path fill-rule="evenodd" clip-rule="evenodd" fill="#FFFFFF" d="M254.771,289.129c-0.157,4.66-2.887,8.49-5.181,7.897
			c-0.784-0.202-1.595-1.919-1.657-2.986c-0.175-3.025,2.491-6.654,4.67-6.426C253.542,287.712,254.374,288.833,254.771,289.129z"/>
		<path fill-rule="evenodd" clip-rule="evenodd" fill="#FFFFFF" d="M744.144,200.75c-1.139,2.526-1.837,4.789-3.146,6.613
			c-0.495,0.689-2.672,0.855-3.582,0.354c-0.753-0.415-1.349-2.394-0.996-3.274c0.81-2.03,2.128-3.902,3.497-5.635
			c0.314-0.397,1.776-0.209,2.509,0.136C743.148,199.284,743.616,200.165,744.144,200.75z"/>
		<path fill-rule="evenodd" clip-rule="evenodd" fill="#FFFFFF" d="M748.769,262.376c-1.745-3.322-0.952-6.415,1.369-8.982
			c0.793-0.876,2.631-0.807,3.99-1.169c0.293,1.122,0.906,2.27,0.819,3.361C754.665,259.118,751.832,262.111,748.769,262.376z"/>
		<path fill-rule="evenodd" clip-rule="evenodd" fill="#FFFFFF" d="M483.08,118.731c1.197-1.205,2.363-2.445,3.646-3.55
			c0.11-0.095,0.994,0.709,1.52,1.096c-1.285,1.252-2.571,2.504-3.855,3.756C483.953,119.599,483.517,119.166,483.08,118.731z"/>
		<path fill-rule="evenodd" clip-rule="evenodd" fill="#FFFFFF" d="M724.103,284.352c1.038,4.772-1.332,5.201-4.464,4.922
			C720.937,287.844,722.232,286.413,724.103,284.352z"/>
	</g>
</g>
</svg>
