<?xml version="1.0" encoding="utf-8"?>
<!-- Generator: Adobe Illustrator 16.0.0, SVG Export Plug-In . SVG Version: 6.00 Build 0)  -->
<!DOCTYPE svg PUBLIC "-//W3C//DTD SVG 1.1//EN" "http://www.w3.org/Graphics/SVG/1.1/DTD/svg11.dtd">
<svg version="1.1" id="Layer_1" xmlns="http://www.w3.org/2000/svg" xmlns:xlink="http://www.w3.org/1999/xlink" x="0px" y="0px"
	 width="500px" height="294.041px" viewBox="0 0 500 294.041" enable-background="new 0 0 500 294.041" xml:space="preserve">
<g>
	<g>
		<path fill-rule="evenodd" clip-rule="evenodd" fill="#FFFFFF" d="M1.769,294.791c0-97.978,0-195.957,0-293.988
			c165.68,0,331.378,0,497.188,0c0,97.961,0,195.975,0,293.988C333.254,294.791,167.521,294.791,1.769,294.791z M290.775,183.548
			c-0.429,0.086-0.859,0.174-1.289,0.26c-1.368-1.84-2.817-3.627-4.091-5.532c-2.952-4.414-5.772-8.919-8.737-13.325
			c-2.318-3.447-4.738-6.827-7.177-10.192c-2.589-3.573-5.255-7.091-7.882-10.637c-1.824-2.463-3.954-4.765-5.382-7.44
			c-1.835-3.439-4.489-4.396-8.101-2.551c-3.552,1.814-7.232,3.382-10.883,4.997c-1.447,0.64-3.033,0.984-4.443,1.689
			c-4.523,2.261-8.935,4.75-13.503,6.913c-3.484,1.649-7.24,2.732-10.695,4.434c-5.792,2.854-11.353,6.183-17.175,8.973
			c-6.951,3.329-14.103,6.239-21.113,9.448c-6.564,3.005-13.09,6.099-19.572,9.275c-4.555,2.232-8.933,4.833-13.526,6.978
			c-7.45,3.477-15.06,6.61-22.513,10.082c-7.152,3.332-14.163,6.968-21.287,10.361c-7.602,3.622-15.256,7.137-22.907,10.654
			c-2.003,0.921-4.162,1.527-6.107,2.548c-3.819,2.005-7.449,4.384-11.322,6.271c-5.756,2.806-11.632,5.367-17.499,7.941
			c-5.038,2.21-10.22,4.113-15.148,6.539c-1.462,0.719-2.281,2.748-3.395,4.177c1.392,0.69,2.78,1.977,4.176,1.984
			c26.491,0.15,52.983,0.144,79.475,0.186c20.47,0.032,40.94,0.022,61.41,0.152c13.33,0.084,26.658,0.456,39.988,0.567
			c14.837,0.124,29.676,0.075,44.515,0.142c27.098,0.122,54.197,0.283,81.295,0.378c1.204,0.004,2.548-0.245,3.559-0.835
			c0.593-0.344,1.168-1.934,0.871-2.383c-1.416-2.144-3.191-4.047-4.729-6.116c-1.717-2.31-3.81-4.492-3.222-8.042
			c2.32,1.263,3.931,3.541,6.104,4.408c5.522,2.203,11.328,3.687,16.961,5.63c3.852,1.328,8.511,1.85,8.725,8.79
			c1.943-2.476,3.109-3.962,4.194-5.344c0.96,1.431,1.994,2.971,2.924,4.355c1.763-2.024,2.885-3.313,3.768-4.326
			c1.577,1.756,2.436,2.711,3.295,3.666c0.967-0.95,1.935-1.899,3.644-3.577c0.838,0.981,1.959,2.293,3.306,3.868
			c0.469-0.673,1.027-1.527,1.642-2.34c0.45-0.593,0.973-1.131,1.462-1.694c0.364,0.555,0.67,1.161,1.107,1.65
			c0.853,0.954,1.779,1.841,2.676,2.756c0.274-0.233,0.548-0.467,0.823-0.7c0-1.464,0-2.928,0-4.964
			c2.667-0.736,5.325-1.466,7.982-2.203c4.408-1.223,9.325-1.596,13.112-3.858c7.056-4.217,13.816-9.116,20.028-14.505
			c6.716-5.826,12.641-12.583,15.704-21.229c2.878-8.12,6.322-16.142,8.146-24.507c2.032-9.326-0.548-18.679-2.622-27.869
			c-0.377-1.667-0.418-3.495-1.155-4.979c-2.219-4.468-4.457-8.964-7.15-13.15c-3.123-4.853-6.342-9.759-10.254-13.957
			c-3.754-4.027-8.293-7.391-12.777-10.648c-3.795-2.756-7.932-5.081-12.068-7.316c-1.678-0.907-3.826-0.895-5.64-1.611
			c-3.707-1.462-7.212-4.022-11.015-4.535c-8.007-1.079-16.205-1.887-24.225-1.343c-5.647,0.384-12.205-1.052-16.935,4.045
			c-0.332,0.358-1.227,0.132-1.801,0.341c-1.8,0.654-3.569,1.938-5.355,1.946c-2.15,0.009-5.347,3.482-6.634-1.393
			c-0.079-0.3-1.972-0.247-2.97-0.07c-0.188,0.034-0.492,1.756-0.135,2.155c2.812,3.14-0.902,3.37-1.744,5.59
			c-1.703-5.372-1.703-5.372-4.293-5.058c0.472,1.87,0.929,3.685,1.419,5.627C297.554,124.085,284.836,149.707,290.775,183.548z
			 M130.873,136.409c1.156-2.898,2.262-5.381,3.14-7.943c1.073-3.134-0.306-4.96-3.568-4.483c-1.593,0.233-3.06,1.319-3.913,1.71
			c0.631,2.259,1.53,3.763,1.319,5.091c-0.406,2.552-1.562,4.973-2.186,7.503c-0.876,3.553-0.906,7.24-3.569,10.354
			c-1.066,1.247-1.143,4.093-0.569,5.852c1.808,5.546,11.284,4.764,15.061,0.955c3.119-3.145,5.933-6.655,6.112-11.765
			c0.146-4.171-1.656-7.179-5.836-7.268C135.028,136.376,133.19,136.409,130.873,136.409z M173.369,274.985
			c-0.506-0.225-1.013-0.448-1.52-0.673c-0.869,1.008-1.572,2.588-2.645,2.901c-2.017,0.591-4.619,1.2-6.274,0.381
			c-1.375-0.682-3.341-2.985-1.04-5.522c1.07-1.18,1.064-3.291,2.047-4.604c1.176-1.57,2.888-2.739,4.369-4.082
			c1.005,1.701,2.006,3.405,3.02,5.102c0.124,0.207,0.313,0.376,0.491,0.585c3.139,0.57,3.261-2.055,3.221-3.752
			c-0.032-1.373-1.304-3.747-2.282-3.886c-3.746-0.533-7.78-1.033-10.687,2.466c-1.903,2.29-3.94,4.506-5.552,6.991
			c-1.697,2.616-0.093,8.721,2.287,9.874c3.657,1.772,10.463,0.984,13.268-1.873C172.935,278.014,172.96,276.311,173.369,274.985z
			 M391.454,66.187c-0.407-0.084-0.814-0.169-1.222-0.253c-0.607,1.47-1.215,2.939-1.821,4.41c1.643,0.162,3.989,1.092,4.802,0.348
			C396.113,68.036,391.021,68.218,391.454,66.187z M287.129,114.929c-1.063,6.309-0.866,6.617,3.188,5.344
			C290.755,115.623,290.61,115.367,287.129,114.929z M268.966,129.213c3.074,0.962,3.628-0.549,3.671-2.911
			c0.052-2.817-1.553-2.793-3.671-2.428C268.966,125.752,268.966,127.521,268.966,129.213z M353.114,83.286
			c-2.153,4.154,0.429,4.437,2.086,5.01c0.347,0.12,1.308-1.537,1.985-2.375C355.855,85.059,354.525,84.199,353.114,83.286z
			 M300.767,108.31c-1.201,1.536-2.449,2.648-2.267,2.986c0.617,1.142,1.742,2.009,2.673,2.981c0.685-0.853,1.924-1.718,1.904-2.554
			C303.057,110.787,301.896,109.876,300.767,108.31z M415.146,60.906c0.786-1.435,1.441-2.632,2.098-3.828
			c-0.898-0.479-1.914-1.476-2.664-1.306c-0.955,0.218-1.694,1.379-2.695,2.286C412.893,58.938,413.614,59.569,415.146,60.906z
			 M445.401,47.558c1.116-1.86,2.39-3.036,2.295-4.087c-0.097-1.071-1.541-2.021-2.395-3.023c-0.769,1.241-1.878,2.408-2.169,3.753
			C442.979,44.913,444.247,45.932,445.401,47.558z M477.225,25.954c-1.465,0.552-2.901,0.662-3.392,1.399
			c-0.49,0.741-0.427,2.403,0.114,3.115c0.517,0.683,1.958,0.664,3.277,1.032C477.225,29.546,477.225,28.215,477.225,25.954z
			 M376.22,77.379c-2.085-0.831-3.609-1.438-5.135-2.046c-0.318,0.866-1.148,2.043-0.85,2.534c0.618,1.015,1.837,1.664,2.814,2.468
			C373.954,79.493,374.659,78.834,376.22,77.379z M279.706,123.758c-0.139-0.563-0.277-1.124-0.416-1.687c-1.715,0-3.429,0-6.404,0
			c1.325,1.895,2.12,3.669,2.593,3.587C276.953,125.403,278.306,124.444,279.706,123.758z M320.191,101.021
			c-0.727-0.205-1.453-0.409-2.18-0.613c-0.504,1.275-1.294,2.537-1.351,3.831c-0.018,0.425,1.864,0.933,2.878,1.402
			C319.757,104.101,319.974,102.561,320.191,101.021z M430.395,47.702c-0.051,0.64-0.103,1.279-0.153,1.92
			c1.278,0.459,2.556,0.918,3.834,1.378c0.014-1.1,0.026-2.199,0.039-3.298C432.874,47.702,431.635,47.702,430.395,47.702z
			 M463.292,31.073c-0.538,1-0.743,1.547-1.091,1.98c-0.366,0.455-0.867,0.801-1.291,1.178c2.596,3.848,2.596,3.848,5,0.157
			C465.189,33.476,464.468,32.563,463.292,31.073z M403.386,66.342c0.327-0.222,0.655-0.444,0.982-0.667c0-1.564,0-3.128,0-4.693
			c-0.28-0.226-0.561-0.452-0.841-0.678c-0.904,0.899-2.616,1.894-2.523,2.675C401.145,64.178,402.528,65.229,403.386,66.342z
			 M381.212,72.879c-1.436,0.241-3.041,0.057-3.538,0.713c-0.563,0.742-0.13,2.239-0.13,3.637c1.452-0.167,2.512-0.29,3.668-0.422
			C381.212,75.602,381.212,74.628,381.212,72.879z M339.21,94.549c-1.238-0.913-2.006-1.924-2.745-1.904
			c-0.813,0.022-1.6,0.995-2.397,1.553c0.785,0.881,1.46,1.952,2.427,2.524C336.774,96.888,337.898,95.627,339.21,94.549z
			 M383.085,74.38c0.408,0.196,0.816,0.391,1.225,0.587c0.753-1.177,1.801-2.288,2.087-3.569c0.093-0.414-1.815-1.274-3.312-2.264
			C383.085,71.621,383.085,73,383.085,74.38z M304.987,111.33c0.361,0.25,0.723,0.5,1.083,0.75c0.97-1.054,1.938-2.109,3.611-3.929
			c-2.532-0.248-3.767-0.37-5.353-0.525C304.614,109.229,304.801,110.279,304.987,111.33z M263.305,131.395
			c1.657-0.188,2.7-0.305,3.634-0.411c1.363-3.303-0.73-3.847-3.354-4.496C263.493,128.072,263.414,129.457,263.305,131.395z
			 M360.93,80.187c-0.573,0.233-1.146,0.466-1.719,0.7c0.479,1.454,0.957,2.908,1.436,4.361c0.811-0.311,1.622-0.623,2.433-0.935
			C362.363,82.938,361.646,81.562,360.93,80.187z M427.808,53.913c0.353-0.335,0.705-0.671,1.059-1.006
			c-0.146-1.268-0.29-2.535-0.434-3.801c-0.391-0.191-0.78-0.382-1.171-0.574c-0.798,0.956-2.365,2.076-2.205,2.828
			C425.27,52.361,426.827,53.076,427.808,53.913z M423.273,54.991c-0.93-1.227-1.516-2.001-2.103-2.776
			c-0.536,0.647-1.515,1.303-1.501,1.938c0.019,0.863,0.795,1.71,1.246,2.564C421.573,56.235,422.231,55.754,423.273,54.991z
			 M348.48,249.527c1.612-0.91,2.841-1.245,3.414-2.047c0.412-0.577-0.049-1.778-0.131-2.851c-1.289,0.219-2.237,0.381-3.283,0.558
			C348.48,246.348,348.48,247.402,348.48,249.527z M446.248,248.502c0.239-0.423,0.479-0.845,0.718-1.268
			c-1.175-0.85-2.35-1.698-4.115-2.974c0,2.252,0,3.394,0,4.772C444.162,248.828,445.205,248.665,446.248,248.502z M455.429,244.943
			c0.123,1.681,0.206,2.829,0.306,4.185c1.328-0.093,2.362-0.164,3.467-0.241c0-1.329,0-2.401,0-3.705
			C458.061,245.11,457.016,245.043,455.429,244.943z M460.563,248.769c2.669,0,3.982,0,5.297,0c0.222-0.31,0.443-0.62,0.665-0.931
			c-0.874-0.922-1.748-1.843-2.623-2.764C463.034,246.036,462.164,246.998,460.563,248.769z M350.838,87.39
			c-1.54,0.097-2.669,0.169-4.881,0.31c1.143,1.594,1.724,2.617,2.527,3.414c0.295,0.292,1.12,0.047,1.886,0.047
			C350.501,90.099,350.618,89.155,350.838,87.39z M339.3,246.959c-0.12-0.548-0.24-1.096-0.359-1.644
			c-1.191,0.066-2.382,0.132-3.572,0.198c0.209,1.114,0.417,2.228,0.626,3.341C337.096,248.223,338.197,247.591,339.3,246.959z
			 M422.294,248.544c0.331,0.319,0.661,0.64,0.991,0.959c0.955-0.771,1.911-1.543,2.867-2.314c-0.883-0.925-1.767-1.85-2.65-2.775
			c-0.328,0.213-0.657,0.426-0.986,0.639C422.441,246.216,422.368,247.38,422.294,248.544z M455.646,35.294
			c-0.585,3.411,0.38,4.675,3.758,3.479c-0.104-1.201-0.204-2.359-0.301-3.479C457.77,35.294,456.804,35.294,455.646,35.294z
			 M441.134,47.933c0-1.35,0-2.491,0-3.766c-1.258,0-2.28,0-3.415,0c0,1.365,0,2.518,0,3.766
			C438.958,47.933,439.979,47.933,441.134,47.933z M395.772,64.694c-0.957,3.625,0.613,4.08,3.33,3.335
			C399.816,65.056,398.841,63.919,395.772,64.694z M260.077,130.118c-0.573-0.199-1.146-0.397-1.718-0.596
			c-0.746,1.154-1.491,2.308-2.236,3.462c1.108,0.229,2.217,0.457,3.325,0.687C259.658,132.486,259.867,131.302,260.077,130.118z
			 M292.364,116.727c1.054,0.111,2.18,0.23,3.616,0.381c-0.079-1.505-0.135-2.57-0.193-3.676
			C292.847,112.673,291.499,113.356,292.364,116.727z M391.512,248.73c0-1.278,0-2.401,0-4.528
			c-1.575,1.112-2.631,1.644-3.349,2.468c-0.296,0.34,0.134,1.312,0.242,2.061C389.567,248.73,390.499,248.73,391.512,248.73z
			 M395.742,248.504c0.261,0.306,0.521,0.611,0.783,0.916c0.897-0.755,1.796-1.511,2.693-2.267
			c-0.902-0.831-1.806-1.661-2.709-2.492c-0.256,0.234-0.512,0.47-0.768,0.704C395.742,246.411,395.742,247.458,395.742,248.504z
			 M368.229,82.354c0.358-3.669,0.358-3.669-3.237-3.391C364.339,81.544,364.86,83.079,368.229,82.354z M419.271,245.012
			c-1.217,0.087-2.244,0.16-3.236,0.231c0,1.446,0,2.584,0,3.656C419.163,249.428,420.159,248.257,419.271,245.012z
			 M436.517,244.583c-0.337,0.239-0.673,0.479-1.009,0.718c0,1.158,0,2.316,0,3.803c1.243-0.06,2.383-0.113,3.522-0.168
			c0.228-0.374,0.453-0.747,0.681-1.12C438.646,246.737,437.581,245.661,436.517,244.583z M474.534,247.895
			c0.339,0.381,0.678,0.764,1.017,1.146c1.04-0.071,2.081-0.143,3.358-0.229c-0.131-1.321-0.234-2.365-0.339-3.41
			c-0.35-0.229-0.698-0.458-1.048-0.688C476.526,245.773,475.53,246.834,474.534,247.895z M482.701,248.874c1.299,0,2.333,0,3.616,0
			c-0.067-1.249-0.123-2.281-0.178-3.272C482.615,245.236,482.615,245.236,482.701,248.874z M408.646,245.433
			c-0.941,3.342,0.451,3.907,3.177,3.124C412.606,245.377,411.372,244.635,408.646,245.433z"/>
		<path fill-rule="evenodd" clip-rule="evenodd" d="M290.775,183.548c-5.939-33.841,6.778-59.463,33.84-78.453
			c-0.49-1.943-0.947-3.757-1.419-5.627c2.59-0.314,2.59-0.314,4.293,5.058c0.842-2.22,4.556-2.45,1.744-5.59
			c-0.357-0.399-0.054-2.122,0.135-2.155c0.998-0.177,2.891-0.23,2.97,0.07c1.287,4.875,4.483,1.402,6.634,1.393
			c1.786-0.007,3.556-1.292,5.355-1.946c0.574-0.209,1.469,0.018,1.801-0.341c4.729-5.098,11.287-3.662,16.935-4.045
			c8.02-0.544,16.218,0.264,24.225,1.343c3.803,0.513,7.308,3.073,11.015,4.535c1.813,0.716,3.962,0.704,5.64,1.611
			c4.137,2.235,8.273,4.56,12.068,7.316c4.484,3.257,9.023,6.621,12.777,10.648c3.912,4.197,7.131,9.104,10.254,13.957
			c2.693,4.187,4.932,8.682,7.15,13.15c0.737,1.485,0.778,3.313,1.155,4.979c2.074,9.19,4.654,18.543,2.622,27.869
			c-1.823,8.365-5.268,16.387-8.146,24.507c-3.063,8.646-8.988,15.402-15.704,21.229c-6.212,5.389-12.973,10.288-20.028,14.505
			c-3.787,2.263-8.704,2.636-13.112,3.858c-2.657,0.737-5.315,1.467-7.982,2.203c0,2.036,0,3.5,0,4.964
			c-0.275,0.233-0.549,0.467-0.823,0.7c-0.896-0.915-1.823-1.802-2.676-2.756c-0.438-0.489-0.743-1.096-1.107-1.65
			c-0.489,0.563-1.012,1.102-1.462,1.694c-0.614,0.813-1.173,1.667-1.642,2.34c-1.347-1.575-2.468-2.887-3.306-3.868
			c-1.709,1.678-2.677,2.627-3.644,3.577c-0.859-0.955-1.718-1.91-3.295-3.666c-0.883,1.014-2.005,2.302-3.768,4.326
			c-0.93-1.385-1.964-2.925-2.924-4.355c-1.085,1.382-2.251,2.868-4.194,5.344c-0.214-6.94-4.873-7.462-8.725-8.79
			c-5.633-1.943-11.438-3.427-16.961-5.63c-2.174-0.867-3.784-3.146-6.104-4.408c-0.588,3.55,1.505,5.732,3.222,8.042
			c1.538,2.069,3.313,3.973,4.729,6.116c0.297,0.449-0.278,2.039-0.871,2.383c-1.011,0.59-2.354,0.839-3.559,0.835
			c-27.098-0.095-54.197-0.256-81.295-0.378c-14.839-0.066-29.678-0.018-44.515-0.142c-13.33-0.111-26.658-0.483-39.988-0.567
			c-20.469-0.13-40.94-0.12-61.41-0.152c-26.492-0.042-52.984-0.035-79.475-0.186c-1.396-0.008-2.784-1.294-4.176-1.984
			c1.114-1.429,1.932-3.458,3.395-4.177c4.928-2.426,10.11-4.329,15.148-6.539c5.866-2.574,11.743-5.136,17.499-7.941
			c3.873-1.887,7.502-4.266,11.322-6.271c1.946-1.021,4.104-1.627,6.107-2.548c7.651-3.518,15.305-7.032,22.907-10.654
			c7.124-3.394,14.134-7.029,21.287-10.361c7.453-3.472,15.063-6.605,22.513-10.082c4.593-2.145,8.972-4.745,13.526-6.978
			c6.482-3.177,13.008-6.271,19.572-9.275c7.011-3.209,14.162-6.119,21.113-9.448c5.822-2.79,11.382-6.119,17.175-8.973
			c3.455-1.701,7.211-2.784,10.695-4.434c4.568-2.163,8.98-4.652,13.503-6.913c1.41-0.705,2.996-1.049,4.443-1.689
			c3.651-1.615,7.331-3.182,10.883-4.997c3.611-1.845,6.266-0.888,8.101,2.551c1.428,2.676,3.558,4.978,5.382,7.44
			c2.627,3.546,5.293,7.064,7.882,10.637c2.438,3.365,4.858,6.745,7.177,10.192c2.965,4.406,5.785,8.911,8.737,13.325
			c1.273,1.905,2.723,3.692,4.091,5.532C289.916,183.722,290.347,183.634,290.775,183.548z M304.133,204.729
			c0.914,1.581,1.526,3,2.455,4.166c1.742,2.189,4.266,3.957,5.391,6.396c2.243,4.858,6.793,7.293,10.553,10.159
			c5.351,4.081,11.665,7.055,17.883,9.786c4.104,1.805,8.717,2.598,13.181,3.42c18.598,3.427,36.563,1.896,53.447-7.334
			c0.754-0.413,1.528-0.803,2.234-1.289c3.141-2.161,6.473-4.107,9.335-6.593c4.34-3.771,8.604-7.697,12.407-11.993
			c2.484-2.805,4.31-6.272,6.045-9.641c2.1-4.075,4.46-8.202,5.492-12.592c1.284-5.466,1.832-11.229,1.78-16.854
			c-0.071-7.747-0.918-15.495-1.625-23.224c-0.179-1.956-0.79-4.006-1.721-5.733c-1.979-3.666-4.306-7.142-6.472-10.707
			c-1.765-2.904-3.047-6.266-5.354-8.637c-4.07-4.183-8.461-8.197-13.261-11.49c-6.166-4.232-12.597-8.306-19.424-11.274
			c-5.418-2.355-11.54-3.417-17.462-4.213c-10.251-1.376-20.445-0.119-30.509,2.13c-0.349,0.078-0.639,0.392-0.982,0.527
			c-4.002,1.562-8.065,2.981-11.996,4.704c-3.357,1.472-6.654,3.14-9.796,5.024c-1.339,0.804-1.978,2.885-3.339,3.52
			c-6.617,3.09-10.52,9.027-14.933,14.274c-2.596,3.086-3.258,7.813-5.887,10.855c-3.134,3.626-4.31,8.119-5.304,12.103
			c-1.746,6.996-1.362,14.509-2.043,21.789c-0.872,9.341,2.794,17.597,5.813,26.502c1.618-0.55,3.276-0.672,4.294-1.542
			c2.746-2.351,5.316-4.93,7.773-7.586c2.645-2.86,4.991-6,7.675-8.819c0.638-0.67,2.102-0.555,3.185-0.801
			c-0.178,0.927-0.244,1.894-0.556,2.772c-0.929,2.615-1.953,5.195-2.94,7.79c0.341,0.254,0.682,0.507,1.022,0.761
			c1.826-1.047,3.604-2.195,5.488-3.121c5.058-2.485,10.156-4.887,15.249-7.3c4.863-2.304,9.752-4.558,14.608-6.876
			c3.369-1.608,6.701-3.295,10.055-4.937c2.114-1.035,4.156-2.434,6.392-2.911c1.049-0.224,2.479,1.343,3.736,2.098
			c-0.688,0.89-1.189,2.115-2.093,2.61c-4.878,2.676-9.779,5.333-14.821,7.675c-4.128,1.917-8.523,3.253-12.685,5.103
			c-2.221,0.988-4.086,2.778-6.31,3.759c-6.17,2.721-12.444,5.208-18.678,7.787c0.098,0.368,0.194,0.736,0.292,1.105
			c2.762,0.643,5.496,1.515,8.295,1.859c2.394,0.296,2.984,1.271,2.318,3.42C323.225,202.446,314.156,203.53,304.133,204.729z
			 M296.355,203.795c-0.533-1.468-1.087-3.722-2.146-5.706c-1.261-2.364-2.928-4.517-4.468-6.727
			c-2.907-4.176-5.895-8.3-8.752-12.51c-0.776-1.146-1.01-2.673-1.831-3.771c-3.886-5.191-7.894-10.29-11.838-15.438
			c-0.341-0.445-0.476-1.047-0.804-1.507c-3.485-4.879-7.067-9.691-10.47-14.628c-3.217-4.668-3.885-6.18-9.113-3.444
			c-4.996,2.613-9.855,5.725-15.153,7.461c-7.064,2.316-13.413,5.927-19.979,9.172c-4.849,2.395-9.567,5.063-14.482,7.311
			c-4.665,2.132-9.579,3.206-14.083,6.319c-5.856,4.048-13.109,6.05-19.692,9.082c-6.103,2.813-12.121,5.81-18.162,8.755
			c-1.666,0.813-3.26,1.774-4.923,2.593c-2.933,1.443-5.846,2.946-8.857,4.209c-3.457,1.448-7.077,2.514-10.507,4.016
			c-4.479,1.961-8.047,5.771-13.158,6.517c-0.65,0.095-1.24,0.612-1.855,0.94c-4.048,2.161-8.013,4.503-12.169,6.433
			c-3.715,1.726-7.737,2.788-11.455,4.51c-7.68,3.556-15.246,7.358-22.863,11.049c-1.059,0.513-2.164,0.932-3.216,1.457
			c-4.121,2.058-8.179,4.249-12.357,6.181c-3.593,1.661-7.319,3.036-10.987,4.537c1.548,0.912,3.07,1.213,4.592,1.208
			c10.354-0.033,20.711-0.319,31.062-0.164c15.501,0.231,30.996,0.831,46.497,1.107c3.818,0.067,7.654-0.795,11.472-0.726
			c5.697,0.104,11.382,0.793,17.08,0.982c7.946,0.263,15.9,0.393,23.851,0.399c9.717,0.009,19.435-0.301,29.15-0.236
			c16.069,0.106,32.137,0.433,48.205,0.608c25.689,0.282,51.378,0.529,77.067,0.731c0.898,0.007,2.132-0.378,2.598-1.022
			c0.361-0.501,0.019-1.857-0.443-2.545c-2.108-3.144-4.332-6.213-6.591-9.251c-1.395-1.875-3.059-3.559-4.376-5.482
			c-3.813-5.567-7.41-11.285-11.312-16.788C300.474,207.434,298.438,205.88,296.355,203.795z"/>
		<path fill-rule="evenodd" clip-rule="evenodd" d="M130.873,136.409c2.317,0,4.155-0.033,5.991,0.007
			c4.18,0.089,5.982,3.097,5.836,7.268c-0.179,5.11-2.993,8.621-6.112,11.765c-3.777,3.809-13.253,4.591-15.061-0.955
			c-0.573-1.759-0.497-4.604,0.569-5.852c2.663-3.115,2.693-6.802,3.569-10.354c0.624-2.53,1.78-4.952,2.186-7.503
			c0.211-1.328-0.688-2.832-1.319-5.091c0.853-0.391,2.32-1.477,3.913-1.71c3.262-0.478,4.641,1.349,3.568,4.483
			C133.135,131.028,132.029,133.511,130.873,136.409z M138.569,144.524c-0.776-1.396-1.249-3.497-2.41-3.996
			c-1.286-0.553-3.837-0.21-4.707,0.758c-1.639,1.826-2.504,4.362-3.614,6.64c-0.465,0.955-0.734,2.004-1.094,3.01
			c-0.299,0.84-1.077,1.966-0.786,2.448c0.403,0.669,1.578,1.093,2.475,1.207C132.873,155.153,138.071,149.797,138.569,144.524z"/>
		<path fill-rule="evenodd" clip-rule="evenodd" d="M173.369,274.985c-0.409,1.325-0.434,3.028-1.297,3.908
			c-2.804,2.857-9.611,3.646-13.268,1.873c-2.38-1.153-3.984-7.258-2.287-9.874c1.612-2.485,3.649-4.701,5.552-6.991
			c2.907-3.499,6.941-2.999,10.687-2.466c0.978,0.139,2.25,2.513,2.282,3.886c0.04,1.697-0.082,4.322-3.221,3.752
			c-0.178-0.209-0.367-0.378-0.491-0.585c-1.013-1.696-2.015-3.4-3.02-5.102c-1.48,1.343-3.192,2.512-4.369,4.082
			c-0.983,1.313-0.977,3.424-2.047,4.604c-2.302,2.537-0.335,4.841,1.04,5.522c1.655,0.819,4.257,0.21,6.274-0.381
			c1.073-0.313,1.775-1.894,2.645-2.901C172.355,274.537,172.862,274.761,173.369,274.985z"/>
		<path fill-rule="evenodd" clip-rule="evenodd" d="M391.454,66.187c-0.433,2.031,4.659,1.85,1.759,4.504
			c-0.813,0.744-3.159-0.186-4.802-0.348c0.606-1.47,1.214-2.939,1.821-4.41C390.64,66.017,391.047,66.102,391.454,66.187z"/>
		<path fill-rule="evenodd" clip-rule="evenodd" d="M287.129,114.929c3.481,0.438,3.626,0.694,3.188,5.344
			C286.263,121.545,286.066,121.238,287.129,114.929z"/>
		<path fill-rule="evenodd" clip-rule="evenodd" d="M268.966,129.213c0-1.691,0-3.46,0-5.339c2.118-0.365,3.723-0.39,3.671,2.428
			C272.594,128.664,272.04,130.175,268.966,129.213z"/>
		<path fill-rule="evenodd" clip-rule="evenodd" d="M353.114,83.286c1.411,0.914,2.741,1.773,4.071,2.634
			c-0.678,0.839-1.639,2.496-1.985,2.375C353.543,87.723,350.961,87.44,353.114,83.286z"/>
		<path fill-rule="evenodd" clip-rule="evenodd" d="M300.767,108.31c1.129,1.567,2.29,2.478,2.311,3.414
			c0.02,0.836-1.22,1.701-1.904,2.554c-0.931-0.972-2.056-1.839-2.673-2.981C298.317,110.958,299.565,109.846,300.767,108.31z"/>
		<path fill-rule="evenodd" clip-rule="evenodd" d="M415.146,60.906c-1.531-1.337-2.253-1.968-3.262-2.848
			c1.001-0.906,1.74-2.068,2.695-2.286c0.75-0.17,1.766,0.827,2.664,1.306C416.587,58.274,415.932,59.471,415.146,60.906z"/>
		<path fill-rule="evenodd" clip-rule="evenodd" d="M445.401,47.558c-1.154-1.625-2.423-2.645-2.269-3.357
			c0.291-1.345,1.4-2.513,2.169-3.753c0.854,1.002,2.298,1.952,2.395,3.023C447.791,44.522,446.518,45.697,445.401,47.558z"/>
		<path fill-rule="evenodd" clip-rule="evenodd" d="M477.225,25.954c0,2.261,0,3.592,0,5.546c-1.319-0.369-2.761-0.35-3.277-1.032
			c-0.541-0.712-0.604-2.374-0.114-3.115C474.323,26.616,475.76,26.506,477.225,25.954z"/>
		<path fill-rule="evenodd" clip-rule="evenodd" d="M376.22,77.379c-1.561,1.455-2.266,2.113-3.17,2.956
			c-0.978-0.804-2.196-1.453-2.814-2.468c-0.299-0.49,0.531-1.668,0.85-2.534C372.61,75.941,374.135,76.549,376.22,77.379z"/>
		<path fill-rule="evenodd" clip-rule="evenodd" d="M279.706,123.758c-1.4,0.686-2.753,1.645-4.228,1.9
			c-0.473,0.082-1.268-1.693-2.593-3.587c2.976,0,4.689,0,6.404,0C279.429,122.634,279.567,123.196,279.706,123.758z"/>
		<path fill-rule="evenodd" clip-rule="evenodd" d="M320.191,101.021c-0.218,1.54-0.435,3.08-0.652,4.619
			c-1.014-0.469-2.896-0.977-2.878-1.402c0.057-1.294,0.847-2.556,1.351-3.831C318.738,100.612,319.465,100.816,320.191,101.021z"/>
		<path fill-rule="evenodd" clip-rule="evenodd" d="M430.395,47.702c1.24,0,2.479,0,3.72,0c-0.013,1.099-0.025,2.198-0.039,3.298
			c-1.278-0.459-2.556-0.919-3.834-1.378C430.292,48.981,430.344,48.342,430.395,47.702z"/>
		<path fill-rule="evenodd" clip-rule="evenodd" d="M463.292,31.073c1.176,1.49,1.897,2.403,2.616,3.32
			c-2.402,3.686-2.402,3.686-4.998-0.162c0.424-0.377,0.925-0.723,1.291-1.178C462.549,32.62,462.754,32.072,463.292,31.073z"/>
		<path fill-rule="evenodd" clip-rule="evenodd" d="M403.386,66.342c-0.857-1.113-2.241-2.165-2.382-3.363
			c-0.093-0.782,1.619-1.776,2.523-2.675c0.28,0.227,0.561,0.452,0.841,0.678c0,1.565,0,3.129,0,4.693
			C404.041,65.898,403.713,66.121,403.386,66.342z"/>
		<path fill-rule="evenodd" clip-rule="evenodd" d="M381.212,72.879c0,1.749,0,2.722,0,3.929c-1.156,0.132-2.216,0.255-3.668,0.422
			c0-1.398-0.433-2.895,0.13-3.637C378.171,72.937,379.776,73.121,381.212,72.879z"/>
		<path fill-rule="evenodd" clip-rule="evenodd" d="M339.21,94.549c-1.312,1.079-2.436,2.339-2.716,2.173
			c-0.967-0.573-1.642-1.643-2.427-2.524c0.798-0.558,1.585-1.53,2.397-1.553C337.204,92.625,337.972,93.636,339.21,94.549z"/>
		<path fill-rule="evenodd" clip-rule="evenodd" d="M383.085,74.38c0-1.38,0-2.759,0-5.246c1.496,0.989,3.404,1.85,3.312,2.264
			c-0.286,1.281-1.334,2.392-2.087,3.569C383.901,74.771,383.493,74.576,383.085,74.38z"/>
		<path fill-rule="evenodd" clip-rule="evenodd" d="M304.987,111.33c-0.187-1.05-0.373-2.101-0.658-3.704
			c1.586,0.155,2.82,0.277,5.353,0.525c-1.673,1.82-2.642,2.875-3.611,3.929C305.71,111.829,305.349,111.58,304.987,111.33z"/>
		<path fill-rule="evenodd" clip-rule="evenodd" d="M263.305,131.395c0.109-1.938,0.188-3.323,0.279-4.907
			c2.624,0.649,4.718,1.193,3.354,4.496C266.005,131.09,264.962,131.207,263.305,131.395z"/>
		<path fill-rule="evenodd" clip-rule="evenodd" d="M360.93,80.187c0.716,1.375,1.434,2.751,2.149,4.126
			c-0.811,0.312-1.622,0.624-2.433,0.935c-0.479-1.453-0.957-2.907-1.436-4.361C359.783,80.653,360.356,80.42,360.93,80.187z"/>
		<path fill-rule="evenodd" clip-rule="evenodd" d="M427.808,53.913c-0.98-0.837-2.538-1.552-2.751-2.554
			c-0.16-0.751,1.407-1.872,2.205-2.828c0.391,0.191,0.78,0.382,1.171,0.574c0.144,1.267,0.288,2.534,0.434,3.801
			C428.513,53.242,428.16,53.578,427.808,53.913z"/>
		<path fill-rule="evenodd" clip-rule="evenodd" d="M423.273,54.991c-1.042,0.763-1.7,1.244-2.357,1.725
			c-0.451-0.854-1.228-1.701-1.246-2.564c-0.014-0.635,0.965-1.291,1.501-1.938C421.758,52.99,422.344,53.764,423.273,54.991z"/>
		<path fill-rule="evenodd" clip-rule="evenodd" d="M348.48,249.527c0-2.125,0-3.18,0-4.34c1.046-0.177,1.994-0.339,3.283-0.558
			c0.082,1.072,0.543,2.273,0.131,2.851C351.321,248.282,350.093,248.617,348.48,249.527z"/>
		<path fill-rule="evenodd" clip-rule="evenodd" d="M446.248,248.502c-1.043,0.163-2.086,0.326-3.397,0.531c0-1.379,0-2.521,0-4.772
			c1.766,1.275,2.94,2.124,4.115,2.974C446.727,247.657,446.487,248.079,446.248,248.502z"/>
		<path fill-rule="evenodd" clip-rule="evenodd" d="M455.429,244.943c1.587,0.1,2.632,0.167,3.772,0.238c0,1.304,0,2.376,0,3.705
			c-1.104,0.077-2.139,0.148-3.467,0.241C455.635,247.772,455.552,246.624,455.429,244.943z"/>
		<path fill-rule="evenodd" clip-rule="evenodd" d="M460.563,248.769c1.601-1.771,2.471-2.732,3.339-3.694
			c0.875,0.921,1.749,1.842,2.623,2.764c-0.222,0.311-0.443,0.621-0.665,0.931C464.546,248.769,463.232,248.769,460.563,248.769z"/>
		<path fill-rule="evenodd" clip-rule="evenodd" d="M350.838,87.39c-0.22,1.765-0.337,2.709-0.468,3.771
			c-0.766,0-1.591,0.245-1.886-0.047c-0.804-0.797-1.385-1.82-2.527-3.414C348.169,87.559,349.298,87.487,350.838,87.39z"/>
		<path fill-rule="evenodd" clip-rule="evenodd" d="M339.3,246.959c-1.103,0.632-2.204,1.264-3.306,1.896
			c-0.209-1.113-0.417-2.227-0.626-3.341c1.19-0.066,2.381-0.132,3.572-0.198C339.06,245.863,339.18,246.411,339.3,246.959z"/>
		<path fill-rule="evenodd" clip-rule="evenodd" d="M422.294,248.544c0.074-1.164,0.147-2.328,0.222-3.492
			c0.329-0.213,0.658-0.426,0.986-0.639c0.884,0.926,1.768,1.851,2.65,2.775c-0.956,0.771-1.912,1.543-2.867,2.314
			C422.955,249.184,422.625,248.863,422.294,248.544z"/>
		<path fill-rule="evenodd" clip-rule="evenodd" d="M455.646,35.294c1.157,0,2.123,0,3.457,0c0.097,1.12,0.197,2.278,0.301,3.479
			C456.026,39.969,455.062,38.705,455.646,35.294z"/>
		<path fill-rule="evenodd" clip-rule="evenodd" d="M441.134,47.933c-1.155,0-2.176,0-3.415,0c0-1.248,0-2.4,0-3.766
			c1.135,0,2.157,0,3.415,0C441.134,45.441,441.134,46.583,441.134,47.933z"/>
		<path fill-rule="evenodd" clip-rule="evenodd" d="M395.772,64.694c3.068-0.775,4.044,0.362,3.33,3.335
			C396.386,68.774,394.815,68.319,395.772,64.694z"/>
		<path fill-rule="evenodd" clip-rule="evenodd" d="M260.077,130.118c-0.21,1.184-0.419,2.368-0.63,3.553
			c-1.107-0.229-2.216-0.458-3.324-0.687c0.745-1.154,1.49-2.308,2.236-3.462C258.932,129.721,259.504,129.919,260.077,130.118z"/>
		<path fill-rule="evenodd" clip-rule="evenodd" d="M292.364,116.727c-0.865-3.371,0.482-4.054,3.423-3.294
			c0.059,1.105,0.114,2.171,0.193,3.676C294.544,116.957,293.418,116.838,292.364,116.727z"/>
		<path fill-rule="evenodd" clip-rule="evenodd" d="M391.512,248.73c-1.013,0-1.944,0-3.106,0c-0.108-0.749-0.538-1.721-0.242-2.061
			c0.718-0.824,1.773-1.355,3.349-2.468C391.512,246.329,391.512,247.452,391.512,248.73z"/>
		<path fill-rule="evenodd" clip-rule="evenodd" d="M395.742,248.504c0-1.046,0-2.093,0-3.139c0.256-0.234,0.512-0.47,0.768-0.704
			c0.903,0.831,1.807,1.661,2.709,2.492c-0.897,0.756-1.796,1.512-2.693,2.267C396.264,249.115,396.003,248.81,395.742,248.504z"/>
		<path fill-rule="evenodd" clip-rule="evenodd" d="M368.229,82.354c-3.368,0.725-3.89-0.81-3.237-3.391
			C368.587,78.684,368.587,78.684,368.229,82.354z"/>
		<path fill-rule="evenodd" clip-rule="evenodd" d="M419.271,245.012c0.888,3.245-0.108,4.416-3.236,3.888c0-1.072,0-2.21,0-3.656
			C417.027,245.172,418.055,245.099,419.271,245.012z"/>
		<path fill-rule="evenodd" clip-rule="evenodd" d="M436.517,244.583c1.064,1.078,2.129,2.154,3.194,3.232
			c-0.228,0.373-0.453,0.746-0.681,1.12c-1.14,0.055-2.279,0.108-3.522,0.168c0-1.486,0-2.645,0-3.803
			C435.844,245.062,436.18,244.822,436.517,244.583z"/>
		<path fill-rule="evenodd" clip-rule="evenodd" d="M474.534,247.895c0.996-1.061,1.992-2.121,2.988-3.181
			c0.35,0.229,0.698,0.458,1.048,0.688c0.104,1.045,0.208,2.089,0.339,3.41c-1.277,0.087-2.318,0.158-3.358,0.229
			C475.212,248.658,474.873,248.275,474.534,247.895z"/>
		<path fill-rule="evenodd" clip-rule="evenodd" d="M482.701,248.874c-0.086-3.638-0.086-3.638,3.438-3.272
			c0.055,0.991,0.11,2.023,0.178,3.272C485.034,248.874,484,248.874,482.701,248.874z"/>
		<path fill-rule="evenodd" clip-rule="evenodd" d="M408.646,245.433c2.726-0.798,3.96-0.056,3.177,3.124
			C409.098,249.34,407.705,248.774,408.646,245.433z"/>
		<path fill-rule="evenodd" clip-rule="evenodd" fill="#FFFFFF" d="M304.133,204.729c10.023-1.198,19.092-2.282,28.212-3.372
			c0.666-2.148,0.075-3.124-2.318-3.42c-2.799-0.345-5.533-1.217-8.295-1.859c-0.098-0.369-0.194-0.737-0.292-1.105
			c6.233-2.579,12.508-5.066,18.678-7.787c2.224-0.98,4.089-2.771,6.31-3.759c4.161-1.85,8.557-3.186,12.685-5.103
			c5.042-2.342,9.943-4.999,14.821-7.675c0.903-0.495,1.405-1.721,2.093-2.61c-1.257-0.755-2.688-2.321-3.736-2.098
			c-2.235,0.478-4.277,1.876-6.392,2.911c-3.354,1.642-6.686,3.328-10.055,4.937c-4.856,2.318-9.745,4.572-14.608,6.876
			c-5.093,2.413-10.191,4.814-15.249,7.3c-1.885,0.926-3.662,2.074-5.488,3.121c-0.341-0.254-0.682-0.507-1.022-0.761
			c0.987-2.595,2.012-5.175,2.94-7.79c0.312-0.879,0.378-1.846,0.556-2.772c-1.083,0.246-2.547,0.131-3.185,0.801
			c-2.684,2.819-5.03,5.959-7.675,8.819c-2.457,2.656-5.027,5.235-7.773,7.586c-1.018,0.87-2.676,0.992-4.294,1.542
			c-3.02-8.905-6.686-17.161-5.813-26.502c0.681-7.28,0.297-14.793,2.043-21.789c0.994-3.983,2.17-8.477,5.304-12.103
			c2.629-3.042,3.291-7.769,5.887-10.855c4.413-5.247,8.315-11.184,14.933-14.274c1.361-0.635,2-2.716,3.339-3.52
			c3.142-1.885,6.438-3.552,9.796-5.024c3.931-1.723,7.994-3.142,11.996-4.704c0.344-0.135,0.634-0.449,0.982-0.527
			c10.063-2.249,20.258-3.507,30.509-2.13c5.922,0.796,12.044,1.858,17.462,4.213c6.827,2.968,13.258,7.042,19.424,11.274
			c4.8,3.293,9.19,7.308,13.261,11.49c2.307,2.371,3.589,5.733,5.354,8.637c2.166,3.565,4.493,7.041,6.472,10.707
			c0.931,1.727,1.542,3.777,1.721,5.733c0.707,7.729,1.554,15.477,1.625,23.224c0.052,5.625-0.496,11.388-1.78,16.854
			c-1.032,4.39-3.393,8.517-5.492,12.592c-1.735,3.368-3.561,6.836-6.045,9.641c-3.804,4.296-8.067,8.223-12.407,11.993
			c-2.862,2.485-6.194,4.432-9.335,6.593c-0.706,0.486-1.48,0.876-2.234,1.289c-16.884,9.23-34.85,10.761-53.447,7.334
			c-4.464-0.822-9.076-1.615-13.181-3.42c-6.218-2.731-12.532-5.705-17.883-9.786c-3.76-2.866-8.31-5.301-10.553-10.159
			c-1.125-2.438-3.648-4.206-5.391-6.396C305.659,207.729,305.047,206.31,304.133,204.729z M348.38,186.255
			c-0.453,2.401-0.669,4.215-1.147,5.954c-1.095,3.978-2.469,7.885-3.383,11.899c-0.226,0.99,0.875,2.282,1.365,3.436
			c1.01-0.657,2.453-1.084,2.946-2.015c1.44-2.716,1.89-6.224,3.89-8.3c1.893-1.965,1.668-6.607,6.301-5.763
			c0.817,0.149,2.352-0.727,2.675-1.499c0.412-0.98-0.074-2.337-0.174-3.531c-1.229,0.153-2.465,0.258-3.682,0.478
			c-0.894,0.16-2.435,0.845-2.537,0.658C352.772,184.213,350.101,186.337,348.38,186.255z"/>
		<path fill-rule="evenodd" clip-rule="evenodd" fill="#FFFFFF" d="M296.355,203.795c2.082,2.085,4.118,3.639,5.532,5.633
			c3.901,5.503,7.498,11.221,11.312,16.788c1.317,1.924,2.981,3.607,4.376,5.482c2.259,3.038,4.482,6.107,6.591,9.251
			c0.462,0.688,0.805,2.044,0.443,2.545c-0.466,0.645-1.699,1.029-2.598,1.022c-25.689-0.202-51.378-0.449-77.067-0.731
			c-16.068-0.176-32.136-0.502-48.205-0.608c-9.716-0.064-19.434,0.245-29.15,0.236c-7.951-0.007-15.905-0.137-23.851-0.399
			c-5.698-0.189-11.383-0.879-17.08-0.982c-3.818-0.069-7.654,0.793-11.472,0.726c-15.501-0.276-30.996-0.876-46.497-1.107
			c-10.351-0.155-20.708,0.131-31.062,0.164c-1.521,0.005-3.043-0.296-4.592-1.208c3.667-1.501,7.394-2.876,10.987-4.537
			c4.179-1.932,8.236-4.123,12.357-6.181c1.052-0.525,2.157-0.944,3.216-1.457c7.618-3.69,15.183-7.493,22.863-11.049
			c3.717-1.722,7.739-2.784,11.455-4.51c4.156-1.93,8.121-4.271,12.169-6.433c0.615-0.328,1.205-0.846,1.855-0.94
			c5.11-0.745,8.679-4.556,13.158-6.517c3.431-1.502,7.051-2.567,10.507-4.016c3.012-1.263,5.924-2.766,8.857-4.209
			c1.664-0.818,3.257-1.78,4.923-2.593c6.041-2.945,12.059-5.942,18.162-8.755c6.583-3.032,13.835-5.034,19.692-9.082
			c4.504-3.113,9.419-4.188,14.083-6.319c4.915-2.247,9.633-4.916,14.482-7.311c6.566-3.245,12.915-6.855,19.979-9.172
			c5.297-1.736,10.157-4.848,15.153-7.461c5.229-2.735,5.896-1.224,9.113,3.444c3.402,4.937,6.984,9.749,10.47,14.628
			c0.328,0.46,0.463,1.062,0.804,1.507c3.944,5.147,7.952,10.246,11.838,15.438c0.821,1.098,1.055,2.625,1.831,3.771
			c2.857,4.21,5.845,8.334,8.752,12.51c1.54,2.21,3.207,4.362,4.468,6.727C295.269,200.073,295.822,202.327,296.355,203.795z
			 M253.915,179.715c-0.17-0.244-0.341-0.489-0.512-0.733c-2.531,1.46-5.595,2.437-7.463,4.498
			c-2.493,2.749-4.288,6.226-5.953,9.603c-1.567,3.181,0.445,5.873,2.688,7.677c1.082,0.871,3.484,0.465,5.183,0.117
			c2.339-0.479,4.434-1.894,6.814,0.367c0.588,0.56,3.119-0.223,4.176-1.094c0.771-0.636,0.74-2.424,0.787-3.708
			c0.042-1.164-0.618-2.404-0.401-3.499c0.493-2.502,1.469-4.905,2.005-7.402c1.09-5.063,1.023-5.063-4.378-5.409
			C255.874,180.068,254.896,179.858,253.915,179.715z"/>
		<path fill-rule="evenodd" clip-rule="evenodd" fill="#FFFFFF" d="M138.569,144.524c-0.498,5.273-5.696,10.629-10.136,10.067
			c-0.897-0.114-2.072-0.538-2.475-1.207c-0.291-0.482,0.487-1.608,0.786-2.448c0.359-1.006,0.628-2.055,1.094-3.01
			c1.11-2.278,1.975-4.813,3.614-6.64c0.87-0.968,3.421-1.311,4.707-0.758C137.32,141.027,137.792,143.128,138.569,144.524z"/>
		<path fill-rule="evenodd" clip-rule="evenodd" d="M348.38,186.255c1.721,0.082,4.393-2.042,6.254,1.317
			c0.103,0.187,1.644-0.498,2.537-0.658c1.217-0.22,2.453-0.324,3.682-0.478c0.1,1.194,0.586,2.551,0.174,3.531
			c-0.323,0.772-1.857,1.648-2.675,1.499c-4.633-0.845-4.408,3.798-6.301,5.763c-2,2.076-2.449,5.584-3.89,8.3
			c-0.493,0.931-1.937,1.357-2.946,2.015c-0.49-1.153-1.591-2.445-1.365-3.436c0.914-4.015,2.288-7.922,3.383-11.899
			C347.711,190.47,347.927,188.656,348.38,186.255z"/>
		<path fill-rule="evenodd" clip-rule="evenodd" d="M253.915,179.715c0.981,0.144,1.959,0.354,2.945,0.416
			c5.401,0.346,5.468,0.347,4.378,5.409c-0.536,2.497-1.512,4.9-2.005,7.402c-0.217,1.095,0.443,2.335,0.401,3.499
			c-0.047,1.284-0.016,3.072-0.787,3.708c-1.057,0.871-3.588,1.653-4.176,1.094c-2.38-2.261-4.475-0.846-6.814-0.367
			c-1.698,0.348-4.101,0.754-5.183-0.117c-2.243-1.804-4.255-4.496-2.688-7.677c1.665-3.377,3.46-6.854,5.953-9.603
			c1.869-2.062,4.932-3.038,7.463-4.498C253.574,179.226,253.745,179.471,253.915,179.715z M245.534,194.251
			c-0.368,2.988,0.99,3.678,3.957,2.578c3.631-1.344,7.593-8.227,6.307-11.936c-0.3-0.867-2.473-1.846-3.459-1.578
			C248.838,184.268,245.538,189.796,245.534,194.251z"/>
		<path fill-rule="evenodd" clip-rule="evenodd" fill="#FFFFFF" d="M245.534,194.251c0.003-4.455,3.304-9.983,6.805-10.936
			c0.986-0.268,3.159,0.711,3.459,1.578c1.286,3.709-2.676,10.592-6.307,11.936C246.524,197.929,245.167,197.239,245.534,194.251z"
			/>
	</g>
</g>
</svg>
