<?xml version="1.0" encoding="utf-8"?>
<!-- Generator: Adobe Illustrator 16.0.0, SVG Export Plug-In . SVG Version: 6.00 Build 0)  -->
<!DOCTYPE svg PUBLIC "-//W3C//DTD SVG 1.1//EN" "http://www.w3.org/Graphics/SVG/1.1/DTD/svg11.dtd">
<svg version="1.1" id="Layer_1" xmlns="http://www.w3.org/2000/svg" xmlns:xlink="http://www.w3.org/1999/xlink" x="0px" y="0px"
	 width="531.074px" height="312.794px" viewBox="0 0 531.074 312.794" enable-background="new 0 0 531.074 312.794"
	 xml:space="preserve">
<g>
	<g>
		<path fill-rule="evenodd" clip-rule="evenodd" fill="#FFFFFF" d="M0.75,313.544c0-104.265,0-208.529,0-312.794
			c177.025,0,354.05,0,531.074,0c0,104.265,0,208.529,0,312.794C354.8,313.544,177.775,313.544,0.75,313.544z M483.382,252.069
			c-1.884-1.605-2.567-2.324-3.376-2.854c-4.156-2.73-8.509-5.192-12.483-8.162c-6.865-5.127-13.402-10.693-20.264-15.826
			c-7.439-5.566-15.146-10.776-22.637-16.277c-6.509-4.779-12.845-9.792-19.322-14.614c-3.514-2.615-7.208-4.984-10.743-7.573
			c-8.027-5.876-15.847-12.054-24.088-17.609c-2.987-2.015-6.254-3.115-4.801-9.039c-4.319,4.597-6.529,1.39-8.978-0.424
			c-1.844-1.366-3.477-3.018-5.32-4.382c-12.221-9.035-24.404-18.123-36.739-27c-8.623-6.206-18.142-11.349-26.02-18.359
			c-7.596-6.761-16.244-11.856-24.215-17.966c-2.459-1.886-4.385-3.006-1.623-7.146c-5.565,2.087-9.113-0.163-12.483-2.644
			c-4.83-3.555-9.434-7.421-14.299-10.923c-9.576-6.892-19.364-13.492-28.851-20.502c-2.977-2.2-4.91-1.61-6.854,0.866
			c-3.103,3.951-6.06,8.016-9.163,11.967c-8.598,10.948-17.233,21.868-25.867,32.79c-3.035,3.838-6.183,7.589-9.145,11.482
			c-6.315,8.297-12.438,16.744-18.835,24.976c-6.477,8.332-13.226,16.451-19.791,24.715c-6.477,8.151-12.882,16.36-19.3,24.559
			c-3.937,5.027-7.918,10.023-11.741,15.138c-5.719,7.649-11.153,15.517-17.01,23.058c-6.26,8.062-12.914,15.814-19.268,23.804
			c-0.803,1.011-0.835,2.633-1.225,3.972c1.238,0.326,2.474,0.926,3.715,0.937c15.243,0.137,30.487,0.094,45.729,0.294
			c9.828,0.129,19.651,0.8,29.477,0.824c9.451,0.023,18.905-0.734,28.355-0.669c10.302,0.071,20.597,0.926,30.9,1.037
			c34.44,0.371,68.884,0.532,103.326,0.838c15.471,0.137,30.94,0.511,46.411,0.626c27.234,0.2,54.472,0.152,81.705,0.461
			c19.842,0.226,39.679,0.89,59.521,1.244C479.536,253.71,481.008,252.82,483.382,252.069z M24.126,275.665
			c1.019-1.239,1.878-2.434,2.888-3.484c2.8-2.914,1.861-8.495-3.096-9.461c-3.781-0.737-7.822-0.146-11.784-0.146
			c0.341,1.745,0.963,3.012,0.724,4.086c-0.59,2.648-1.343,5.314-2.457,7.78c-1.88,4.158-0.666,9.541-4.988,12.801
			c-0.114,0.086,1.152,2.943,1.805,2.956c6.122,0.12,12.463,1.334,17.35-4.392c1.664-1.95,2.638-3.499,1.817-5.794
			C25.815,278.419,24.825,276.978,24.126,275.665z M210.413,29.729c-0.303-0.422-0.606-0.845-0.91-1.267
			c-1.688,0.795-3.395,1.555-5.063,2.391c-5.447,2.732-11.636-0.445-11.912-6.457c-0.221-4.818,1.474-9.382,4.685-12.923
			c4.249-4.685,9.852-3.632,12.388,1.808c0.324,0.696,1.461,1.293,2.28,1.377c0.507,0.053,1.48-0.866,1.624-1.491
			c0.435-1.892,0.566-3.852,0.911-6.525c-3.084,0-5.931,0.249-8.721-0.045c-10.479-1.103-16.747,6.021-17.799,15.063
			c-0.538,4.619,0.189,8.839,4.624,11.626c4.046,2.542,8.373,2.198,12.477,0.874C207.064,33.494,208.625,31.257,210.413,29.729z
			 M372.346,103.682c0.122,2.101,0.685,3.944,0.238,5.496c-1.552,5.388-3.571,10.641-5.135,16.025
			c-0.375,1.288-0.188,3.34,0.627,4.253c2.035,2.286,4.608,3.482,7.983,2.328c4.684-1.603,7.55-5.094,9.297-9.242
			c2.433-5.773-0.476-9.414-6.801-9.319c-0.97,0.015-1.938,0.002-2.629,0.002c-1.246-3.827,3.286-7.103,0.804-11.059
			C374.785,102.84,373.279,103.359,372.346,103.682z M517.611,275.335c-0.249-0.46-0.498-0.92-0.747-1.379
			c-0.363-2.414-1.143-4.852-1.005-7.236c0.299-5.195,1.128-10.357,1.591-15.547c0.103-1.146-0.42-2.349-0.655-3.525
			c-6.778,9.243-14.405,17.083-20.926,26.955c2.879,0,4.411,0,4.896,0c1.615-3.017,2.465-5.787,4.284-7.569
			c1.145-1.122,3.739-0.763,5.684-1.068c0.146,1.69,0.591,3.429,0.334,5.057c-0.177,1.127-1.323,2.101-2.545,3.887
			C512.13,275.077,514.871,275.206,517.611,275.335z M64.187,122.602c-0.047,5.537,2.734,7.099,7.903,4.643
			c0.77-0.366,2.047,0.515,3.074,0.472c1.562-0.066,3.211-0.199,4.616-0.792c0.559-0.236,0.757-1.773,0.781-2.727
			c0.033-1.388-0.58-2.853-0.311-4.161c0.516-2.509,1.624-4.898,2.105-7.41c0.119-0.623-1.098-1.729-1.932-2.225
			c-0.542-0.323-1.53,0.224-2.27,0.098C71.141,109.308,64.25,115.253,64.187,122.602z M240.855,289.171
			c1.594-2.06,2.787-3.163,3.323-4.526c0.193-0.491-1.178-2.297-1.861-2.311c-2.782-0.06-5.871-0.339-8.3,0.719
			c-4.798,2.09-7.551,9.21-6.138,14.284c0.61,2.188,1.967,4.12,4.458,3.573c3.332-0.73,6.532-2.058,9.789-3.129
			c-0.205-0.647-0.409-1.295-0.612-1.942c-1.439,0.461-2.936,0.795-4.304,1.413c-2.501,1.132-5.055,0.242-5.701-2.14
			c-1.193-4.402,3.142-10.635,7.857-11.241C239.749,285.235,240.135,286.61,240.855,289.171z"/>
		<path fill-rule="evenodd" clip-rule="evenodd" d="M483.382,252.069c-2.374,0.751-3.846,1.641-5.301,1.614
			c-19.842-0.354-39.679-1.019-59.521-1.244c-27.233-0.309-54.471-0.261-81.705-0.461c-15.471-0.115-30.94-0.489-46.411-0.626
			c-34.442-0.306-68.885-0.467-103.326-0.838c-10.303-0.111-20.598-0.966-30.9-1.037c-9.45-0.065-18.904,0.692-28.355,0.669
			c-9.826-0.024-19.649-0.695-29.477-0.824c-15.242-0.2-30.486-0.157-45.729-0.294c-1.241-0.011-2.477-0.61-3.715-0.937
			c0.389-1.339,0.421-2.961,1.225-3.972c6.354-7.989,13.008-15.742,19.268-23.804c5.857-7.541,11.292-15.408,17.01-23.058
			c3.823-5.114,7.805-10.11,11.741-15.138c6.418-8.198,12.823-16.407,19.3-24.559c6.565-8.264,13.314-16.383,19.791-24.715
			c6.398-8.232,12.52-16.678,18.835-24.976c2.962-3.893,6.11-7.644,9.145-11.482c8.633-10.921,17.269-21.841,25.867-32.79
			c3.103-3.951,6.06-8.017,9.163-11.967c1.943-2.476,3.876-3.065,6.854-0.866c9.487,7.01,19.275,13.61,28.851,20.502
			c4.865,3.502,9.469,7.368,14.299,10.923c3.37,2.481,6.918,4.73,12.483,2.644c-2.762,4.141-0.836,5.261,1.623,7.146
			c7.971,6.109,16.619,11.205,24.215,17.966c7.878,7.011,17.396,12.153,26.02,18.359c12.335,8.877,24.519,17.965,36.739,27
			c1.844,1.364,3.477,3.016,5.32,4.382c2.448,1.813,4.658,5.021,8.978,0.424c-1.453,5.924,1.813,7.024,4.801,9.039
			c8.241,5.556,16.061,11.733,24.088,17.609c3.535,2.589,7.229,4.958,10.743,7.573c6.478,4.822,12.813,9.835,19.322,14.614
			c7.491,5.501,15.197,10.711,22.637,16.277c6.861,5.133,13.398,10.699,20.264,15.826c3.975,2.97,8.327,5.432,12.483,8.162
			C480.814,249.745,481.498,250.464,483.382,252.069z M132.383,174.298c18.638,12.049,27.387,29.922,30.59,51.894
			c3.373-3.028,5.823-5.228,8.272-7.428c0.28,0.175,0.56,0.349,0.839,0.523c-3.065,8.807-6.13,17.615-9.292,26.704
			c3.756,0.457,6.574,1.111,9.384,1.083c7.723-0.077,15.441-0.578,23.165-0.63c3.585-0.023,7.175,0.873,10.765,0.894
			c27.87,0.163,55.741,0.12,83.61,0.343c12.06,0.097,24.116,0.7,36.176,0.977c1.103,0.025,2.222-0.669,3.333-1.028
			c-0.393-1.092-0.543-2.373-1.221-3.245c-4.18-5.38-8.5-10.652-12.715-16.006c-0.62-0.787-0.933-1.817-1.387-2.734
			c0.272-0.334,0.544-0.667,0.814-1c3.274,1.841,6.549,3.682,10.699,6.016c-2.518-23.523,6.663-41.265,21.663-56.842
			c-3.729-0.654-7.085-1.244-10.441-1.833c0.014-0.389,0.027-0.777,0.041-1.166c0.884-0.605,1.691-1.523,2.665-1.764
			c4.845-1.194,9.743-2.167,14.595-3.332c0.818-0.196,1.773-0.813,2.142-1.511c0.209-0.396-0.47-1.595-1.05-2.018
			c-3.838-2.804-7.729-5.538-11.657-8.212c-4.594-3.126-9.39-5.974-13.838-9.292c-7.079-5.281-13.833-10.999-20.935-16.25
			c-4.682-3.462-9.876-6.228-14.577-9.666c-6.979-5.104-13.72-10.529-20.567-15.811c-4.058-3.13-8.037-6.377-12.267-9.256
			c-0.779-0.53-3.414,0.045-3.788,0.804c-2.448,4.96-4.497,10.118-6.708,15.197c-0.557,1.278-1.234,2.504-1.856,3.755
			c-0.389-0.073-0.779-0.146-1.168-0.221c0-4.175,0-8.351,0-13.615c-2.301,1.085-3.646,1.667-4.938,2.347
			c-0.851,0.447-1.561,1.265-2.448,1.524c-4.247,1.24-8.495,2.523-12.814,3.467c-11.534,2.519-22.96,1.579-34.283-1.45
			c-2.358-0.63-4.736-1.182-7.537-1.877c1.18,4.514,2.165,8.284,3.15,12.055c-0.448,0.184-0.896,0.369-1.345,0.552
			c-4.382-5.268-8.821-10.489-13.126-15.819c-3.197-3.958-5.079-3.971-8.063,0.303c-2.54,3.638-4.861,7.438-7.545,10.961
			c-5.943,7.802-11.974,15.54-18.122,23.18c-5.239,6.51-10.76,12.791-16.025,19.279c-3.323,4.096-6.405,8.388-10.048,13.187
			c3.521,0.445,6.434,1.101,9.348,1.107c3.38,0.007,6.759-0.601,10.145-0.855c2.278-0.171,4.568-0.271,6.851-0.234
			c0.608,0.011,1.563,0.538,1.708,1.023c0.143,0.477-0.384,1.521-0.885,1.765C138.886,171.51,136,172.709,132.383,174.298z
			 M472.009,249.24c0.01-0.326,0.019-0.653,0.028-0.979c-4.197-3.154-8.324-6.408-12.606-9.443
			c-7.563-5.361-15.302-10.48-22.821-15.9c-9.338-6.731-18.516-13.684-27.795-20.497c-1.567-1.15-3.425-1.923-4.917-3.151
			c-3.75-3.088-7.214-6.539-11.08-9.464c-4.193-3.172-8.785-5.812-13.071-8.867c-4.948-3.529-9.81-7.188-14.589-10.942
			c-1.509-1.186-2.847-2.427-4.325-0.414c-2.113,2.876-3.994,5.925-5.936,8.925c-2.068,3.197-4.092,6.424-6.135,9.639
			c-0.416-0.149-0.831-0.299-1.246-0.447c0.494-3.234,0.988-6.468,1.539-10.067c-11.247,5.872-24.893,37.921-20.459,49.007
			c1.366-2.094,2.789-4.273,4.211-6.455c0.352,0.179,0.703,0.356,1.055,0.534c0,1.348,0.012,2.696-0.002,4.044
			c-0.073,7.074-0.152,14.149-0.229,21.225c-0.023,2.165,0.889,2.975,3.195,2.965c16.095-0.065,32.188,0.005,48.283,0.054
			c22.481,0.069,44.963,0.162,67.445,0.233C459.038,249.258,465.523,249.24,472.009,249.24z M136.594,187.219
			c-1.79-0.274-2.894-0.124-3.545-0.597c-3.4-2.472-6.709-5.069-10.002-7.686c-2.666-2.117-5.189-4.423-7.917-6.455
			c-1.948-1.452-3.785-1.355-5.394,0.896c-2.642,3.697-5.446,7.281-8.272,10.841c-1.911,2.407-4.106,4.594-5.944,7.051
			c-3.011,4.026-5.764,8.246-8.762,12.283c-2.19,2.948-4.653,5.69-6.899,8.598c-4.803,6.217-9.52,12.499-14.322,18.716
			c-1.649,2.135-3.488,4.122-5.167,6.234c-1.772,2.229-3.456,4.526-5.644,7.407c35.674,0.619,70.335,1.221,105.396,1.83
			c-1.246-9.852-6.826-17.843-8.374-28.026c3.348,2.055,4.27,5.735,7.884,5.106c-3.336-19.55-17.895-41.89-27.875-45.021
			C133.269,181.154,134.656,183.684,136.594,187.219z M173.211,92.135c0.031,0.473,0.062,0.945,0.093,1.417
			c7.945,1.341,15.891,2.683,23.835,4.025c-0.059,0.426-0.119,0.851-0.178,1.276c-1.454,0.159-2.944,0.169-4.348,0.523
			c-1.221,0.308-2.345,1.005-4.156,1.819c8.709,4.042,39.125,7.03,51.9-1.8c-2.081-0.258-3.906-0.484-6.511-0.807
			c7.139-3.612,13.468-6.814,20.007-10.122c-4.924-3.514-9.213-6.526-13.447-9.614c-2.317-1.688-4.459-3.626-6.824-5.24
			c-8.276-5.644-16.678-11.106-24.907-16.817c-5.077-3.524-4.976-3.672-8.757,1.057c-0.233,0.292-0.42,0.619-0.647,0.916
			c-5.456,7.097-10.886,14.213-16.383,21.278C179.719,84.119,176.441,88.108,173.211,92.135z"/>
		<path fill-rule="evenodd" clip-rule="evenodd" d="M24.126,275.665c0.698,1.313,1.688,2.754,2.258,4.346
			c0.821,2.295-0.153,3.844-1.817,5.794c-4.887,5.726-11.228,4.512-17.35,4.392c-0.653-0.013-1.919-2.87-1.805-2.956
			c4.323-3.26,3.108-8.643,4.988-12.801c1.114-2.466,1.867-5.132,2.457-7.78c0.239-1.074-0.383-2.341-0.724-4.086
			c3.962,0,8.002-0.591,11.784,0.146c4.957,0.966,5.896,6.547,3.096,9.461C26.005,273.231,25.146,274.426,24.126,275.665z
			 M11.939,286.14c3.946,1.255,7-0.272,9.177-3.146c0.826-1.092,1.01-3.783,0.241-4.7c-1.067-1.272-3.28-1.975-5.059-2.095
			c-0.896-0.06-2.377,1.537-2.782,2.674C12.702,281.162,12.444,283.648,11.939,286.14z M15.639,274.019
			c4.079,1.388,6.022-1.021,7.354-3.1c0.736-1.15,0.162-3.976-0.86-5.12c-0.679-0.762-4.331-0.407-4.673,0.347
			C16.353,268.584,16.161,271.437,15.639,274.019z"/>
		<path fill-rule="evenodd" clip-rule="evenodd" d="M210.413,29.729c-1.789,1.527-3.349,3.765-5.416,4.431
			c-4.104,1.324-8.431,1.668-12.477-0.874c-4.434-2.787-5.161-7.007-4.624-11.626c1.052-9.042,7.319-16.166,17.799-15.063
			c2.79,0.294,5.637,0.045,8.721,0.045c-0.345,2.674-0.477,4.634-0.911,6.525c-0.144,0.625-1.117,1.544-1.624,1.491
			c-0.818-0.084-1.956-0.681-2.28-1.377c-2.536-5.44-8.139-6.493-12.388-1.808c-3.211,3.541-4.906,8.105-4.685,12.923
			c0.275,6.012,6.464,9.189,11.912,6.457c1.668-0.836,3.374-1.596,5.063-2.391C209.807,28.885,210.11,29.308,210.413,29.729z"/>
		<path fill-rule="evenodd" clip-rule="evenodd" d="M372.346,103.682c0.934-0.323,2.439-0.842,4.385-1.515
			c2.482,3.956-2.05,7.231-0.804,11.059c0.691,0,1.659,0.013,2.629-0.002c6.325-0.095,9.233,3.545,6.801,9.319
			c-1.747,4.148-4.613,7.639-9.297,9.242c-3.375,1.155-5.948-0.042-7.983-2.328c-0.814-0.914-1.002-2.965-0.627-4.253
			c1.563-5.385,3.583-10.638,5.135-16.025C373.03,107.626,372.468,105.783,372.346,103.682z M370.775,127.767
			c4.005,2.196,6.755,0.484,8.378-1.9c1.322-1.943,1.469-4.817,1.624-7.31c0.029-0.468-2.546-1.794-3.603-1.517
			C371.6,118.507,373.092,124.134,370.775,127.767z"/>
		<path fill-rule="evenodd" clip-rule="evenodd" d="M517.611,275.335c-2.74-0.129-5.481-0.258-9.089-0.427
			c1.222-1.786,2.368-2.76,2.545-3.887c0.257-1.628-0.188-3.366-0.334-5.057c-1.944,0.306-4.539-0.054-5.684,1.068
			c-1.819,1.782-2.669,4.553-4.284,7.569c-0.485,0-2.018,0-4.896,0c6.521-9.872,14.147-17.712,20.926-26.955
			c0.235,1.177,0.758,2.379,0.655,3.525c-0.463,5.189-1.292,10.352-1.591,15.547c-0.138,2.385,0.642,4.822,1.005,7.236
			C517.113,274.415,517.362,274.875,517.611,275.335z M507.326,263.656c4.994,0.5,6.113-1.239,4.241-5.723
			C510.227,259.743,508.96,261.451,507.326,263.656z"/>
		<path fill-rule="evenodd" clip-rule="evenodd" d="M64.187,122.602c0.063-7.349,6.954-13.293,13.966-12.102
			c0.74,0.126,1.728-0.421,2.27-0.098c0.834,0.496,2.051,1.603,1.932,2.225c-0.481,2.512-1.589,4.901-2.105,7.41
			c-0.269,1.308,0.344,2.772,0.311,4.161c-0.023,0.953-0.222,2.491-0.781,2.727c-1.405,0.594-3.054,0.727-4.616,0.792
			c-1.027,0.043-2.305-0.838-3.074-0.472C66.921,129.7,64.14,128.138,64.187,122.602z M68.114,122.409
			c0.163,0.385,0.369,1.782,1.178,2.439c0.462,0.375,1.969-0.315,2.892-0.761c3.715-1.795,4.466-5.441,4.97-8.946
			c0.207-1.434-0.596-4.292-2.931-2.71C71.129,114.528,68.249,117.271,68.114,122.409z"/>
		<path fill-rule="evenodd" clip-rule="evenodd" d="M240.855,289.171c-0.72-2.561-1.106-3.936-1.489-5.3
			c-4.715,0.606-9.05,6.839-7.857,11.241c0.646,2.382,3.2,3.271,5.701,2.14c1.368-0.618,2.865-0.952,4.304-1.413
			c0.204,0.647,0.408,1.295,0.612,1.942c-3.257,1.071-6.458,2.398-9.789,3.129c-2.492,0.547-3.849-1.385-4.458-3.573
			c-1.413-5.074,1.34-12.194,6.138-14.284c2.429-1.058,5.518-0.778,8.3-0.719c0.683,0.014,2.054,1.819,1.861,2.311
			C243.643,286.008,242.449,287.111,240.855,289.171z"/>
		<path fill-rule="evenodd" clip-rule="evenodd" fill="#FFFFFF" d="M132.383,174.298c3.618-1.589,6.503-2.788,9.307-4.153
			c0.501-0.244,1.028-1.288,0.885-1.765c-0.146-0.485-1.1-1.013-1.708-1.023c-2.282-0.037-4.572,0.063-6.851,0.234
			c-3.386,0.255-6.764,0.862-10.145,0.855c-2.914-0.007-5.826-0.662-9.348-1.107c3.643-4.799,6.725-9.091,10.048-13.187
			c5.265-6.489,10.787-12.77,16.025-19.279c6.148-7.64,12.179-15.378,18.122-23.18c2.685-3.524,5.006-7.324,7.545-10.961
			c2.984-4.274,4.866-4.262,8.063-0.303c4.305,5.33,8.745,10.551,13.126,15.819c0.449-0.184,0.897-0.368,1.345-0.552
			c-0.985-3.771-1.97-7.542-3.15-12.055c2.801,0.695,5.179,1.247,7.537,1.877c11.322,3.028,22.749,3.968,34.283,1.45
			c4.319-0.943,8.567-2.227,12.814-3.467c0.888-0.26,1.598-1.077,2.448-1.524c1.293-0.68,2.637-1.262,4.938-2.347
			c0,5.265,0,9.44,0,13.615c0.39,0.074,0.78,0.147,1.168,0.221c0.623-1.25,1.299-2.477,1.856-3.755
			c2.212-5.079,4.26-10.236,6.708-15.197c0.374-0.758,3.009-1.334,3.788-0.804c4.229,2.879,8.209,6.126,12.267,9.256
			c6.848,5.282,13.589,10.708,20.567,15.811c4.701,3.438,9.896,6.204,14.577,9.666c7.102,5.251,13.855,10.968,20.935,16.25
			c4.448,3.318,9.244,6.165,13.838,9.292c3.929,2.674,7.819,5.408,11.657,8.212c0.58,0.423,1.259,1.621,1.05,2.018
			c-0.368,0.698-1.323,1.314-2.142,1.511c-4.852,1.165-9.75,2.138-14.595,3.332c-0.974,0.24-1.781,1.158-2.665,1.764
			c-0.014,0.389-0.027,0.777-0.041,1.166c3.356,0.589,6.713,1.179,10.441,1.833c-15,15.577-24.181,33.318-21.663,56.842
			c-4.15-2.334-7.425-4.175-10.699-6.016c-0.271,0.333-0.542,0.666-0.814,1c0.454,0.917,0.767,1.947,1.387,2.734
			c4.215,5.354,8.535,10.626,12.715,16.006c0.678,0.872,0.828,2.153,1.221,3.245c-1.111,0.359-2.23,1.054-3.333,1.028
			c-12.06-0.276-24.116-0.88-36.176-0.977c-27.869-0.223-55.74-0.18-83.61-0.343c-3.59-0.021-7.18-0.917-10.765-0.894
			c-7.723,0.052-15.442,0.553-23.165,0.63c-2.811,0.028-5.628-0.626-9.384-1.083c3.163-9.089,6.228-17.897,9.292-26.704
			c-0.279-0.175-0.559-0.349-0.839-0.523c-2.45,2.2-4.899,4.399-8.272,7.428C159.77,204.22,151.021,186.347,132.383,174.298z"/>
		<path fill-rule="evenodd" clip-rule="evenodd" fill="#FFFFFF" d="M472.009,249.24c-6.485,0-12.971,0.018-19.455-0.004
			c-22.482-0.071-44.964-0.164-67.445-0.233c-16.095-0.049-32.188-0.119-48.283-0.054c-2.307,0.01-3.219-0.8-3.195-2.965
			c0.077-7.075,0.156-14.15,0.229-21.225c0.014-1.348,0.002-2.696,0.002-4.044c-0.352-0.178-0.703-0.355-1.055-0.534
			c-1.422,2.182-2.845,4.361-4.211,6.455c-4.434-11.086,9.212-43.135,20.459-49.007c-0.551,3.6-1.045,6.833-1.539,10.067
			c0.415,0.148,0.83,0.298,1.246,0.447c2.043-3.215,4.066-6.441,6.135-9.639c1.941-3,3.822-6.049,5.936-8.925
			c1.479-2.013,2.816-0.771,4.325,0.414c4.779,3.755,9.641,7.413,14.589,10.942c4.286,3.056,8.878,5.695,13.071,8.867
			c3.866,2.925,7.33,6.376,11.08,9.464c1.492,1.229,3.35,2.001,4.917,3.151c9.279,6.813,18.457,13.766,27.795,20.497
			c7.52,5.42,15.258,10.539,22.821,15.9c4.282,3.035,8.409,6.289,12.606,9.443C472.027,248.587,472.019,248.914,472.009,249.24z"/>
		<path fill-rule="evenodd" clip-rule="evenodd" fill="#FFFFFF" d="M136.594,187.219c-1.938-3.535-3.325-6.064-4.837-8.821
			c9.979,3.131,24.539,25.471,27.875,45.021c-3.614,0.629-4.536-3.052-7.884-5.106c1.548,10.184,7.128,18.175,8.374,28.026
			c-35.061-0.609-69.722-1.211-105.396-1.83c2.188-2.881,3.872-5.179,5.644-7.407c1.679-2.112,3.518-4.1,5.167-6.234
			c4.803-6.217,9.52-12.499,14.322-18.716c2.246-2.907,4.709-5.649,6.899-8.598c2.998-4.037,5.75-8.257,8.762-12.283
			c1.837-2.457,4.033-4.644,5.944-7.051c2.826-3.56,5.631-7.144,8.272-10.841c1.609-2.252,3.446-2.349,5.394-0.896
			c2.728,2.032,5.251,4.338,7.917,6.455c3.292,2.616,6.602,5.214,10.002,7.686C133.7,187.095,134.804,186.944,136.594,187.219z"/>
		<path fill-rule="evenodd" clip-rule="evenodd" fill="#FFFFFF" d="M173.211,92.135c3.229-4.027,6.507-8.016,9.677-12.088
			c5.497-7.065,10.927-14.182,16.383-21.278c0.227-0.296,0.415-0.624,0.647-0.916c3.781-4.729,3.68-4.581,8.757-1.057
			c8.229,5.711,16.631,11.173,24.907,16.817c2.365,1.614,4.507,3.551,6.824,5.24c4.234,3.087,8.523,6.1,13.447,9.614
			c-6.539,3.308-12.868,6.51-20.007,10.122c2.604,0.323,4.43,0.549,6.511,0.807c-12.775,8.831-43.19,5.842-51.9,1.8
			c1.811-0.814,2.935-1.511,4.156-1.819c1.404-0.354,2.895-0.364,4.348-0.523c0.059-0.426,0.119-0.851,0.178-1.276
			c-7.945-1.342-15.891-2.684-23.835-4.025C173.273,93.08,173.242,92.607,173.211,92.135z"/>
		<path fill-rule="evenodd" clip-rule="evenodd" fill="#FFFFFF" d="M11.939,286.14c0.505-2.491,0.763-4.978,1.577-7.267
			c0.404-1.137,1.885-2.733,2.782-2.674c1.778,0.12,3.992,0.822,5.059,2.095c0.769,0.917,0.585,3.608-0.241,4.7
			C18.94,285.867,15.885,287.395,11.939,286.14z"/>
		<path fill-rule="evenodd" clip-rule="evenodd" fill="#FFFFFF" d="M15.639,274.019c0.522-2.582,0.714-5.435,1.821-7.873
			c0.342-0.754,3.994-1.108,4.673-0.347c1.021,1.145,1.596,3.97,0.86,5.12C21.661,272.998,19.718,275.406,15.639,274.019z"/>
		<path fill-rule="evenodd" clip-rule="evenodd" fill="#FFFFFF" d="M370.775,127.767c2.316-3.632,0.824-9.26,6.399-10.727
			c1.057-0.277,3.632,1.049,3.603,1.517c-0.155,2.493-0.302,5.367-1.624,7.31C377.53,128.25,374.78,129.962,370.775,127.767z"/>
		<path fill-rule="evenodd" clip-rule="evenodd" fill="#FFFFFF" d="M507.326,263.656c1.634-2.205,2.9-3.913,4.241-5.723
			C513.439,262.417,512.32,264.156,507.326,263.656z"/>
		<path fill-rule="evenodd" clip-rule="evenodd" fill="#FFFFFF" d="M68.114,122.409c0.135-5.139,3.015-7.881,6.109-9.978
			c2.335-1.583,3.137,1.276,2.931,2.71c-0.504,3.504-1.255,7.151-4.97,8.946c-0.923,0.446-2.43,1.137-2.892,0.761
			C68.483,124.191,68.276,122.794,68.114,122.409z"/>
	</g>
</g>
</svg>
