<?xml version="1.0" encoding="utf-8"?>
<!-- Generator: Adobe Illustrator 16.0.0, SVG Export Plug-In . SVG Version: 6.00 Build 0)  -->
<!DOCTYPE svg PUBLIC "-//W3C//DTD SVG 1.1//EN" "http://www.w3.org/Graphics/SVG/1.1/DTD/svg11.dtd">
<svg version="1.1" id="Layer_1" xmlns="http://www.w3.org/2000/svg" xmlns:xlink="http://www.w3.org/1999/xlink" x="0px" y="0px"
	 width="500px" height="351.799px" viewBox="0 0 500 351.799" enable-background="new 0 0 500 351.799" xml:space="preserve">
<g>
	<g>
		<path fill-rule="evenodd" clip-rule="evenodd" fill="#FFFFFF" d="M-1.234,352.549C-1.239,235.315-1.239,118.082-1.239,0.799
			c167.693,0,335.397,0,503.206,0c0,117.217,0,234.484,0,351.75C334.244,352.549,166.508,352.549-1.234,352.549z M65.445,268.359
			c0.434,0.367,0.869,0.734,1.303,1.102c0.784-0.505,1.545-1.051,2.357-1.504c1.201-0.669,2.443-1.804,3.662-1.797
			c3.149,0.017,6.292,0.803,9.443,0.84c74.167,0.875,148.354-1.55,222.512,1.449c17.188,0.695,34.411,0.555,51.618,0.69
			c15.623,0.124,31.246,0.112,46.869,0.136c7.874,0.012,15.77,0.317,23.614-0.169c5.66-0.35,11.125-0.602,16.529,1.485
			c0.74,0.285,2.126-0.441,2.864-1.094c0.356-0.315,0.212-1.817-0.23-2.321c-5.225-5.951-10.574-11.794-15.833-17.717
			c-1.729-1.946-3.259-4.066-4.931-6.064c-2.485-2.97-4.982-5.932-7.544-8.837c-1.272-1.442-3.207-2.517-3.965-4.161
			c-2.976-6.456-8.461-10.711-13.115-15.7c-0.384-0.41-0.937-0.687-1.25-1.137c-2.201-3.154-4.241-6.429-6.565-9.486
			c-2.359-3.104-4.968-6.021-7.502-8.99c-3.436-4.027-6.912-8.021-10.358-12.039c-2.146-2.503-4.343-4.969-6.386-7.554
			c-2.121-2.683-3.947-5.606-6.146-8.219c-3.805-4.521-7.833-8.851-11.701-13.32c-3.11-3.595-6.101-7.293-9.188-10.91
			c-1.015-1.188-2.244-2.197-3.233-3.405c-2.375-2.9-4.617-5.909-7.003-8.8c-3.315-4.017-6.748-7.936-10.061-11.954
			c-1.87-2.268-3.529-4.708-5.408-6.97c-2.825-3.403-5.78-6.697-8.64-10.073c-2.432-2.871-4.797-5.798-7.205-8.688
			c-3.306-3.97-6.654-7.904-9.931-11.898c-2.852-3.477-5.54-7.091-8.462-10.509c-3.2-3.742-6.779-7.08-9.618-11.225
			c-4.174-6.093-9.251-11.561-13.771-17.427c-1.442-1.87-2.342-2.493-4.16-0.441c-4.724,5.331-9.798,10.359-14.375,15.81
			c-5.203,6.194-9.989,12.737-15.026,19.073c-0.824,1.038-2.195,1.647-2.988,2.7c-2.617,3.478-4.416,8.011-7.769,10.39
			c-4.802,3.405-6.557,8.838-10.525,12.65c-1.965,1.887-3.356,4.358-5.234,6.352c-3.421,3.634-7.667,6.674-10.377,10.753
			c-4.118,6.201-9.29,11.35-14.17,16.828c-3.429,3.849-6.56,7.969-9.709,12.057c-2.028,2.633-3.624,5.625-5.813,8.103
			c-3.275,3.705-7.055,6.962-10.342,10.656c-4.89,5.493-9.584,11.163-14.274,16.831c-4.497,5.435-8.93,10.927-13.301,16.464
			c-3.273,4.146-6.298,8.492-9.633,12.586c-2.727,3.348-5.842,6.378-8.624,9.686c-6.981,8.3-13.838,16.704-20.811,25.012
			c-4.255,5.07-8.736,9.956-12.894,15.104C66.871,264.286,66.325,266.458,65.445,268.359z M389.816,136.472
			c-0.371,3.841-0.427,7.188-1.078,10.413c-0.694,3.432-1.934,6.755-2.971,10.115c-0.516,1.669-0.75,3.589-1.755,4.904
			c-1.621,2.123-1.759,3.485,0,5.78c1.734,2.262,3.754,1.901,5.812,1.957c3.754,0.102,7.669,0.613,9.968-3.649
			c1.164-2.157,3.676-3.921,4.019-6.108c0.505-3.21,0.4-7.047-1.021-9.803c-0.703-1.363-4.553-3.638-7.653-1.103
			c-0.638,0.521-2.065,0.076-2.435,0.076c1.14-4.154,2.252-8.215,3.449-12.581C393.164,136.472,391.213,136.472,389.816,136.472z
			 M267.989,305.358c1.164,1.107,2,2.176,3.085,2.837c0.694,0.422,2.242,0.65,2.568,0.262c1.521-1.813,4.15-2.971,2.801-6.473
			c-0.824-2.14-0.359-4.973,0.137-7.368c0.498-2.415,1.751-4.675,2.731-7.149c-0.489-0.467-1.396-1.33-2.33-2.221
			c-1.19,2.114-2.303,3.034-4.603,0.914c-0.853-0.786-3.142-0.294-4.682,0.044c-0.929,0.204-1.577,1.48-2.52,1.853
			c-6.433,2.544-6.143,9.258-8.543,14.193c-0.545,1.12,1.551,4.051,3.07,5.458c0.975,0.904,3.258,1.032,4.697,0.616
			C265.781,307.926,266.827,306.376,267.989,305.358z M142.107,146.038c-0.298-0.376-0.597-0.753-0.896-1.13
			c-1.068,0.85-2.317,1.55-3.167,2.58c-2.153,2.607-5.286,2.172-7.01-0.618c-2.176-3.521,0.578-5.786,1.504-8.557
			c0.997-2.981,2.945-3.927,5.794-3.192c-0.125,0.288-0.249,0.577-0.373,0.864c1.31,0.932,2.619,1.863,3.929,2.795
			c0.825-1.484,2.291-2.949,2.337-4.458c0.084-2.754-4.613-5.491-6.867-3.861c-3.62,2.617-7.924,4.08-10.346,8.811
			c-2.04,3.983-2.471,7.627-1.018,11.077c1.486,3.528,5.551,2.855,8.806,2.603C138.609,152.656,142.067,149.248,142.107,146.038z"/>
		<path fill-rule="evenodd" clip-rule="evenodd" d="M65.445,268.359c0.88-1.901,1.426-4.073,2.703-5.654
			c4.158-5.147,8.638-10.033,12.894-15.104c6.972-8.308,13.829-16.712,20.811-25.012c2.782-3.308,5.896-6.338,8.624-9.686
			c3.335-4.094,6.359-8.439,9.633-12.586c4.372-5.537,8.804-11.029,13.301-16.464c4.689-5.668,9.384-11.338,14.274-16.831
			c3.288-3.694,7.067-6.951,10.342-10.656c2.189-2.478,3.785-5.469,5.813-8.103c3.149-4.087,6.28-8.208,9.709-12.057
			c4.88-5.478,10.052-10.627,14.17-16.828c2.709-4.08,6.956-7.12,10.377-10.753c1.877-1.994,3.269-4.465,5.234-6.352
			c3.968-3.812,5.723-9.245,10.525-12.65c3.354-2.379,5.152-6.912,7.769-10.39c0.792-1.053,2.164-1.663,2.988-2.7
			c5.037-6.336,9.823-12.879,15.026-19.073c4.577-5.451,9.651-10.479,14.375-15.81c1.818-2.052,2.718-1.429,4.16,0.441
			c4.521,5.866,9.598,11.333,13.771,17.427c2.839,4.146,6.418,7.483,9.618,11.225c2.922,3.417,5.61,7.032,8.462,10.509
			c3.276,3.995,6.625,7.929,9.931,11.898c2.408,2.891,4.773,5.818,7.205,8.688c2.859,3.376,5.814,6.67,8.64,10.073
			c1.879,2.261,3.538,4.702,5.408,6.97c3.313,4.019,6.745,7.938,10.061,11.954c2.386,2.891,4.628,5.9,7.003,8.8
			c0.989,1.208,2.219,2.217,3.233,3.405c3.087,3.617,6.077,7.315,9.188,10.91c3.868,4.469,7.896,8.799,11.701,13.32
			c2.199,2.613,4.025,5.536,6.146,8.219c2.043,2.585,4.239,5.051,6.386,7.554c3.446,4.019,6.923,8.012,10.358,12.039
			c2.534,2.97,5.143,5.886,7.502,8.99c2.324,3.058,4.364,6.332,6.565,9.486c0.313,0.45,0.866,0.727,1.25,1.137
			c4.654,4.989,10.14,9.244,13.115,15.7c0.758,1.645,2.692,2.719,3.965,4.161c2.562,2.905,5.059,5.867,7.544,8.837
			c1.672,1.998,3.202,4.118,4.931,6.064c5.259,5.923,10.608,11.766,15.833,17.717c0.442,0.504,0.587,2.006,0.23,2.321
			c-0.738,0.652-2.124,1.379-2.864,1.094c-5.404-2.087-10.869-1.835-16.529-1.485c-7.845,0.486-15.74,0.181-23.614,0.169
			c-15.623-0.023-31.246-0.012-46.869-0.136c-17.207-0.136-34.431,0.005-51.618-0.69C230.564,265.45,156.377,267.875,82.21,267
			c-3.151-0.037-6.294-0.823-9.443-0.84c-1.219-0.007-2.461,1.128-3.662,1.797c-0.813,0.453-1.573,0.999-2.357,1.504
			C66.313,269.094,65.879,268.727,65.445,268.359z M325.454,138.431c-4.138,4.805-8.363,9.566-12.406,14.476
			c-1.78,2.161-3.011,4.783-4.841,6.892c-1.045,1.206-2.793,1.803-4.225,2.673c-0.321-0.342-0.643-0.685-0.964-1.027
			c1.165-3.901,2.329-7.801,3.745-12.544c-3.14,1.611-6.619,2.362-8.368,4.518c-3.269,4.029-8.005,4.943-12.04,7.289
			c-1.323,0.769-3.629,0.829-4.126,1.863c-2.121,4.429-7.304,3.968-10.253,6.959c-1.425,1.445-3.146,2.64-4.865,3.742
			c-2.075,1.33-4.227,2.583-6.468,3.604c-1.814,0.826-3.809,1.26-5.724,1.867c-0.298-0.38-0.595-0.76-0.893-1.14
			c0.731-1.369,1.119-3.26,2.258-4.012c4.018-2.652,8.316-4.875,12.466-7.332c4.423-2.619,8.721-5.453,13.21-7.949
			c6.059-3.369,12.292-6.424,18.344-9.807c1.23-0.687,1.982-2.229,3.225-3.694c-10.325-2.557-10.325-2.557-10.236-3.443
			c10.398-2.205,20.598-4.367,31.232-6.622c-6.739-10.82-15.751-18.979-26.161-24.923c-11.007-6.284-23.019-10.463-36.147-10.931
			c-12.999-0.462-25.803,0.719-37.673,5.638c-12.94,5.362-23.994,13.826-32.901,24.986c-11.161,13.984-15.708,30.566-16.609,47.61
			c-1.039,19.641,5.787,37.701,18.36,53.029c12.937,15.773,29.985,25.888,49.76,29.439c14.419,2.588,29.064,0.845,43.319-4.983
			c13.567-5.546,24.254-14.179,33.627-24.816c9.721-11.03,13.441-24.83,17.221-38.684
			C339.254,184.024,334.851,145.609,325.454,138.431z M184.133,133.11c-1.438,0.534-2.714,0.641-3.397,1.332
			c-1.836,1.857-3.402,3.978-5.104,5.969c-3.718,4.347-7.564,8.589-11.152,13.04c-3.451,4.283-6.621,8.792-9.954,13.172
			c-2.48,3.259-4.998,6.489-7.546,9.695c-1.851,2.329-3.393,5.176-5.764,6.752c-3.248,2.159-4.836,5.512-7.338,8.165
			c-2.609,2.767-4.557,6.148-7.077,9.013c-3.377,3.836-7.286,7.223-10.498,11.182c-5.043,6.216-9.599,12.825-14.553,19.117
			c-2.664,3.383-5.781,6.405-8.593,9.678c-2.068,2.406-3.908,5.009-5.962,7.427c-3.488,4.108-6.968,8.231-10.642,12.17
			c-2.282,2.446-1.154,3.095,1.358,3.355c0.742,0.078,1.499,0.017,2.249,0.016c20.244-0.021,40.487-0.073,60.73-0.057
			c29.998,0.024,59.996,0.104,89.993,0.137c1.568,0.001,3.135-0.208,4.703-0.32c0.045-0.389,0.089-0.776,0.134-1.165
			c-2.979-0.62-6.165-0.767-8.892-1.961c-5.333-2.336-10.429-5.225-15.585-7.957c-1.424-0.755-2.77-1.69-4.054-2.67
			c-2.229-1.7-4.454-3.418-6.548-5.277c-3.282-2.916-6.542-5.869-9.637-8.98c-1.543-1.551-2.856-3.392-3.996-5.27
			c-2.47-4.073-4.825-8.219-7.106-12.401c-1.955-3.582-4.261-7.093-5.471-10.932c-1.527-4.845-2.911-9.989-2.919-15.007
			c-0.019-11.068,0.764-22.143,1.446-33.201c0.17-2.763,0.814-5.64,1.917-8.17c1.836-4.216,4.196-8.208,6.385-12.267
			C181.94,136.431,182.781,135.254,184.133,133.11z M277.201,262.186c0.046,0.367,0.091,0.734,0.138,1.102
			c1.813,0,3.628-0.003,5.441,0c32.859,0.057,65.72,0.011,98.579,0.234c9.663,0.065,19.321,0.912,28.984,1.349
			c0.96,0.044,1.935-0.305,2.907-0.423c0.968-0.118,1.951-0.298,2.913-0.238c5.81,0.356,11.612,0.837,17.425,1.061
			c0.532,0.021,1.758-1.715,1.568-2.238c-0.616-1.703-1.526-3.409-2.714-4.773c-2.432-2.793-4.998-5.493-7.726-7.996
			c-3.514-3.224-4.99-7.824-8.688-11.149c-5.043-4.534-8.697-10.593-13.066-15.899c-4.615-5.607-9.355-11.11-14.081-16.625
			c-0.638-0.743-1.7-1.154-2.245-1.942c-2.059-2.98-3.747-6.245-6.012-9.051c-4.333-5.37-10.258-9.396-13.383-15.805
			c-0.159-0.325-0.223-0.83-0.477-0.957c-4.626-2.305-6.697-6.879-9.539-10.748c-1.359-1.85-2.033-4.509-3.771-5.719
			c-6.189-4.31-9.563-10.914-14.272-16.414c-2.038-2.38-4.149-4.698-6.227-7.044c-0.365,0.052-0.731,0.104-1.097,0.156
			c12.593,25.08,14.321,50.254,2.417,75.923C322.727,239.895,303.458,255.152,277.201,262.186z M198.238,114.235
			c0.169,0.268,0.339,0.536,0.508,0.804c1.072-0.339,2.413-0.38,3.172-1.065c4.349-3.921,8.651-7.821,14.206-10.079
			c5.461-2.22,10.702-5.038,16.266-6.927c5.079-1.725,10.419-2.793,15.718-3.731c9.667-1.712,19.022,1.35,28.517,2.305
			c0.336,0.034,0.629,0.379,0.966,0.528c4.865,2.151,9.637,4.566,14.634,6.347c3.808,1.357,7.705,2.156,10.494,5.517
			c0.773,0.933,2.48,1.091,3.76,1.605c0.272-0.325,0.544-0.649,0.816-0.974c-17.341-20.556-34.682-41.112-52.069-61.725
			C236.309,69.21,217.274,91.723,198.238,114.235z"/>
		<path fill-rule="evenodd" clip-rule="evenodd" d="M389.816,136.472c1.396,0,3.348,0,6.335,0c-1.197,4.366-2.31,8.427-3.449,12.581
			c0.369,0,1.797,0.445,2.435-0.076c3.101-2.535,6.95-0.261,7.653,1.103c1.421,2.756,1.525,6.593,1.021,9.803
			c-0.343,2.188-2.854,3.951-4.019,6.108c-2.299,4.263-6.214,3.751-9.968,3.649c-2.058-0.056-4.077,0.305-5.812-1.957
			c-1.759-2.294-1.621-3.657,0-5.78c1.005-1.315,1.239-3.235,1.755-4.904c1.037-3.36,2.276-6.683,2.971-10.115
			C389.39,143.659,389.445,140.313,389.816,136.472z M389.162,166.924c7.109,1.713,12.207-6.408,9.456-15.781
			c-2.23,0.749-5.8,0.927-6.373,2.33C390.523,157.686,387.352,161.834,389.162,166.924z"/>
		<path fill-rule="evenodd" clip-rule="evenodd" d="M267.989,305.358c-1.162,1.018-2.208,2.567-3.587,2.966
			c-1.439,0.416-3.723,0.288-4.697-0.616c-1.52-1.407-3.615-4.338-3.07-5.458c2.4-4.936,2.11-11.649,8.543-14.193
			c0.942-0.372,1.591-1.648,2.52-1.853c1.54-0.338,3.829-0.83,4.682-0.044c2.3,2.12,3.412,1.2,4.603-0.914
			c0.935,0.891,1.841,1.754,2.33,2.221c-0.98,2.475-2.233,4.734-2.731,7.149c-0.496,2.396-0.961,5.229-0.137,7.368
			c1.35,3.502-1.279,4.66-2.801,6.473c-0.326,0.389-1.874,0.16-2.568-0.262C269.989,307.534,269.153,306.466,267.989,305.358z
			 M261.321,303.531c4.724,1.064,10.87-3.84,11.108-8.97c0.085-1.837-1.154-3.734-1.789-5.604c-1.104,0.703-2.213,1.398-3.311,2.113
			C262.773,294.038,261.239,298.382,261.321,303.531z"/>
		<path fill-rule="evenodd" clip-rule="evenodd" d="M142.107,146.038c-0.04,3.21-3.498,6.618-7.307,6.914
			c-3.255,0.253-7.32,0.925-8.806-2.603c-1.454-3.45-1.022-7.094,1.018-11.077c2.422-4.731,6.726-6.194,10.346-8.811
			c2.254-1.63,6.952,1.107,6.867,3.861c-0.046,1.508-1.512,2.973-2.337,4.458c-1.31-0.932-2.619-1.863-3.929-2.795
			c0.124-0.288,0.249-0.576,0.373-0.864c-2.849-0.735-4.797,0.21-5.794,3.192c-0.926,2.771-3.68,5.036-1.504,8.557
			c1.724,2.79,4.856,3.225,7.01,0.618c0.85-1.029,2.1-1.729,3.167-2.58C141.51,145.284,141.809,145.661,142.107,146.038z"/>
		<path fill-rule="evenodd" clip-rule="evenodd" fill="#FFFFFF" d="M325.454,138.431c9.396,7.178,13.8,45.593,11.866,52.679
			c-3.779,13.854-7.5,27.653-17.221,38.684c-9.373,10.638-20.06,19.271-33.627,24.816c-14.255,5.828-28.899,7.571-43.319,4.983
			c-19.775-3.552-36.824-13.666-49.76-29.439c-12.573-15.328-19.399-33.389-18.36-53.029c0.901-17.044,5.448-33.626,16.609-47.61
			c8.907-11.16,19.961-19.625,32.901-24.986c11.871-4.919,24.675-6.101,37.673-5.638c13.129,0.468,25.141,4.646,36.147,10.931
			c10.41,5.944,19.422,14.103,26.161,24.923c-10.635,2.255-20.834,4.417-31.232,6.622c-0.089,0.886-0.089,0.886,10.236,3.443
			c-1.242,1.465-1.994,3.007-3.225,3.694c-6.052,3.383-12.285,6.438-18.344,9.807c-4.489,2.496-8.787,5.33-13.21,7.949
			c-4.149,2.457-8.448,4.68-12.466,7.332c-1.139,0.752-1.526,2.643-2.258,4.012c0.298,0.38,0.595,0.76,0.893,1.14
			c1.915-0.607,3.909-1.041,5.724-1.867c2.241-1.021,4.393-2.273,6.468-3.604c1.72-1.102,3.44-2.297,4.865-3.742
			c2.949-2.991,8.132-2.53,10.253-6.959c0.497-1.035,2.803-1.095,4.126-1.863c4.035-2.346,8.771-3.26,12.04-7.289
			c1.749-2.156,5.229-2.907,8.368-4.518c-1.416,4.744-2.58,8.644-3.745,12.544c0.321,0.343,0.643,0.686,0.964,1.027
			c1.432-0.871,3.18-1.467,4.225-2.673c1.83-2.109,3.061-4.731,4.841-6.892C317.091,147.997,321.316,143.236,325.454,138.431z
			 M282.92,136.229c0.259-1.139,0.841-2.369,0.71-3.518c-0.115-1.016-1.023-1.942-1.582-2.908c-0.756,0.591-1.527,1.163-2.263,1.778
			c-0.91,0.761-1.789,1.558-3.135,2.736c-0.294-2.095-0.459-3.271-0.624-4.446c-1.874,0-3.506-0.158-5.083,0.067
			c-0.772,0.111-1.8,0.803-2.045,1.476c-0.187,0.508,0.843,1.359,1.05,2.134c0.277,1.036,0.493,2.176,0.336,3.211
			c-0.115,0.756-1.093,1.353-1.31,2.126c-1.119,3.998-2.117,8.031-3.238,12.361c1.46,0.104,3.239,0.23,4.966,0.353
			C273.171,140.37,275.93,136.911,282.92,136.229z"/>
		<path fill-rule="evenodd" clip-rule="evenodd" fill="#FFFFFF" d="M184.133,133.11c-1.353,2.144-2.193,3.321-2.874,4.583
			c-2.189,4.059-4.549,8.051-6.385,12.267c-1.103,2.53-1.747,5.407-1.917,8.17c-0.682,11.058-1.465,22.133-1.446,33.201
			c0.009,5.018,1.392,10.162,2.919,15.007c1.21,3.839,3.517,7.35,5.471,10.932c2.281,4.183,4.636,8.328,7.106,12.401
			c1.139,1.878,2.453,3.719,3.996,5.27c3.094,3.111,6.354,6.064,9.637,8.98c2.094,1.859,4.32,3.577,6.548,5.277
			c1.285,0.979,2.63,1.915,4.054,2.67c5.156,2.732,10.252,5.621,15.585,7.957c2.727,1.194,5.913,1.341,8.892,1.961
			c-0.045,0.389-0.089,0.776-0.134,1.165c-1.567,0.112-3.135,0.321-4.703,0.32c-29.998-0.033-59.995-0.112-89.993-0.137
			c-20.243-0.017-40.486,0.035-60.73,0.057c-0.75,0.001-1.507,0.063-2.249-0.016c-2.512-0.261-3.64-0.909-1.358-3.355
			c3.673-3.938,7.153-8.062,10.642-12.17c2.055-2.418,3.895-5.021,5.962-7.427c2.812-3.272,5.93-6.295,8.593-9.678
			c4.954-6.292,9.51-12.901,14.553-19.117c3.212-3.959,7.121-7.346,10.498-11.182c2.52-2.864,4.467-6.246,7.077-9.013
			c2.502-2.653,4.09-6.006,7.338-8.165c2.371-1.576,3.914-4.423,5.764-6.752c2.548-3.206,5.066-6.437,7.546-9.695
			c3.333-4.38,6.503-8.889,9.954-13.172c3.587-4.451,7.434-8.693,11.152-13.04c1.703-1.991,3.269-4.112,5.104-5.969
			C181.419,133.751,182.695,133.645,184.133,133.11z"/>
		<path fill-rule="evenodd" clip-rule="evenodd" fill="#FFFFFF" d="M277.201,262.186c26.257-7.033,45.525-22.291,57.076-47.198
			c11.904-25.669,10.176-50.843-2.417-75.923c0.365-0.052,0.731-0.104,1.097-0.156c2.077,2.346,4.188,4.664,6.227,7.044
			c4.709,5.5,8.083,12.104,14.272,16.414c1.737,1.21,2.411,3.869,3.771,5.719c2.842,3.869,4.913,8.443,9.539,10.748
			c0.254,0.127,0.317,0.632,0.477,0.957c3.125,6.408,9.05,10.435,13.383,15.805c2.265,2.806,3.953,6.07,6.012,9.051
			c0.545,0.788,1.607,1.199,2.245,1.942c4.726,5.515,9.466,11.018,14.081,16.625c4.369,5.307,8.023,11.365,13.066,15.899
			c3.698,3.325,5.175,7.926,8.688,11.149c2.728,2.503,5.294,5.203,7.726,7.996c1.188,1.364,2.098,3.07,2.714,4.773
			c0.189,0.523-1.036,2.259-1.568,2.238c-5.813-0.224-11.615-0.704-17.425-1.061c-0.962-0.06-1.945,0.12-2.913,0.238
			c-0.973,0.118-1.947,0.467-2.907,0.423c-9.663-0.437-19.321-1.283-28.984-1.349c-32.859-0.224-65.72-0.178-98.579-0.234
			c-1.813-0.003-3.628,0-5.441,0C277.292,262.92,277.247,262.553,277.201,262.186z"/>
		<path fill-rule="evenodd" clip-rule="evenodd" fill="#FFFFFF" d="M198.238,114.235c19.036-22.512,38.071-45.024,56.988-67.395
			c17.388,20.612,34.729,41.168,52.069,61.725c-0.272,0.325-0.544,0.649-0.816,0.974c-1.279-0.514-2.986-0.672-3.76-1.605
			c-2.789-3.361-6.687-4.16-10.494-5.517c-4.997-1.781-9.769-4.196-14.634-6.347c-0.337-0.149-0.63-0.495-0.966-0.528
			c-9.494-0.956-18.85-4.017-28.517-2.305c-5.299,0.938-10.639,2.006-15.718,3.731c-5.564,1.889-10.805,4.707-16.266,6.927
			c-5.555,2.258-9.857,6.158-14.206,10.079c-0.759,0.685-2.1,0.726-3.172,1.065C198.577,114.771,198.407,114.503,198.238,114.235z"
			/>
		<path fill-rule="evenodd" clip-rule="evenodd" fill="#FFFFFF" d="M389.162,166.924c-1.811-5.089,1.361-9.238,3.083-13.451
			c0.573-1.403,4.143-1.581,6.373-2.33C401.369,160.516,396.271,168.637,389.162,166.924z"/>
		<path fill-rule="evenodd" clip-rule="evenodd" fill="#FFFFFF" d="M261.321,303.531c-0.082-5.149,1.452-9.493,6.009-12.461
			c1.098-0.715,2.206-1.41,3.311-2.113c0.635,1.87,1.874,3.768,1.789,5.604C272.191,299.691,266.045,304.596,261.321,303.531z"/>
		<path fill-rule="evenodd" clip-rule="evenodd" d="M282.92,136.229c-6.99,0.682-9.749,4.141-12.218,15.371
			c-1.727-0.123-3.506-0.249-4.966-0.353c1.121-4.331,2.119-8.363,3.238-12.361c0.217-0.774,1.194-1.371,1.31-2.126
			c0.157-1.035-0.059-2.175-0.336-3.211c-0.207-0.774-1.236-1.626-1.05-2.134c0.245-0.673,1.272-1.365,2.045-1.476
			c1.577-0.226,3.209-0.067,5.083-0.067c0.165,1.176,0.33,2.352,0.624,4.446c1.346-1.178,2.225-1.975,3.135-2.736
			c0.735-0.615,1.507-1.187,2.263-1.778c0.559,0.966,1.467,1.892,1.582,2.908C283.761,133.86,283.179,135.09,282.92,136.229z"/>
	</g>
</g>
</svg>
