<?xml version="1.0" encoding="utf-8"?>
<!-- Generator: Adobe Illustrator 16.0.0, SVG Export Plug-In . SVG Version: 6.00 Build 0)  -->
<!DOCTYPE svg PUBLIC "-//W3C//DTD SVG 1.1//EN" "http://www.w3.org/Graphics/SVG/1.1/DTD/svg11.dtd">
<svg version="1.1" id="Layer_1" xmlns="http://www.w3.org/2000/svg" xmlns:xlink="http://www.w3.org/1999/xlink" x="0px" y="0px"
	 width="437.311px" height="390.055px" viewBox="0 0 437.311 390.055" enable-background="new 0 0 437.311 390.055"
	 xml:space="preserve">
<g>
	<g>
		<path fill-rule="evenodd" clip-rule="evenodd" fill="#FFFFFF" d="M0.75,0.785c145.714,0,291.428,0,437.227,0
			c0,129.897,0,259.829,0,389.891c-145.686,0-291.456,0-437.227,0C0.75,260.798,0.75,130.809,0.75,0.785z M221.537,376.521
			c11.065,0.226,21.97-0.21,32.965-2.465c7.926-1.627,15.9-2.802,23.521-5.631c4.729-1.756,9.451-3.539,14.144-5.393
			c5.56-2.196,11.415-3.903,16.551-6.853c8.996-5.167,17.571-11.074,26.263-16.765c2.754-1.804,5.574-3.635,7.915-5.914
			c6.298-6.132,12.408-12.458,18.483-18.813c3.526-3.688,7.127-7.365,10.169-11.44c2.91-3.896,5.168-8.285,7.661-12.488
			c3.284-5.537,6.955-10.9,9.673-16.707c4.158-8.884,7.86-18.002,11.321-27.184c1.654-4.388,2.448-9.122,3.386-13.748
			c1.453-7.172,3.279-14.334,3.91-21.591c1.398-16.091,1.559-32.122-1.688-48.189c-2.989-14.795-5.662-29.483-12.807-43.068
			c-3.822-7.27-6.092-15.262-11.197-22.004c-4.502-5.945-7.721-12.86-12.201-18.825c-4.191-5.58-9.017-10.765-14.063-15.602
			c-7.267-6.964-14.76-13.735-22.592-20.048c-4.992-4.023-10.71-7.173-16.224-10.515c-3.851-2.334-7.851-4.446-11.888-6.448
			c-4.561-2.261-9.132-4.577-13.895-6.338c-5.147-1.903-10.494-3.297-15.807-4.71c-3.048-0.81-6.56-0.538-9.234-1.946
			c-5.981-3.149-11.968-5.154-18.858-4.921c-4.537,0.154-9.117-1.277-13.669-1.223c-10.551,0.127-21.102,0.609-31.641,1.174
			c-6.305,0.337-12.587,1.086-18.876,1.692c-0.714,0.069-1.41,0.386-2.101,0.626c-4.275,1.483-8.443,3.538-12.842,4.345
			c-7.827,1.437-14.885,4.727-21.975,7.978c-3.444,1.579-7.97,1.383-9.957,5.591c-7.468,1.852-13.525,6.445-19.69,10.623
			c-5.618,3.806-10.786,8.318-15.923,12.783c-5.428,4.719-11.403,8.794-15.667,14.883c-3.153,4.502-7.505,8.146-10.951,12.469
			c-2.751,3.453-4.925,7.365-7.384,11.054c-3.076,4.613-6.524,9.019-9.187,13.856c-3.162,5.745-6.052,11.709-8.348,17.844
			c-2.979,7.958-5.72,16.066-7.732,24.313c-3.559,14.578-5.175,29.426-4.889,44.492c0.308,16.231,1.034,32.349,6.631,47.839
			c2.965,8.205,5.42,16.607,8.692,24.683c3.048,7.521,6.443,14.974,10.488,21.993c3.641,6.316,8.265,12.084,12.658,17.942
			c3.36,4.481,6.925,8.822,10.602,13.05c3.149,3.621,6.337,7.278,9.951,10.409c5.851,5.068,11.77,10.159,18.197,14.435
			c8.323,5.536,16.993,10.625,25.854,15.253c6.548,3.42,13.62,5.85,20.504,8.605c2.03,0.812,4.239,1.163,6.328,1.842
			c4.595,1.494,9.096,3.334,13.765,4.518c4.063,1.03,8.444,0.896,12.435,2.102c5.179,1.564,10.309,2.623,15.725,2.462
			C212.538,376.413,217.041,376.521,221.537,376.521z"/>
		<path fill-rule="evenodd" clip-rule="evenodd" d="M221.539,376.521c-4.498,0-9.001-0.107-13.497,0.027
			c-5.416,0.161-10.546-0.897-15.725-2.462c-3.991-1.205-8.371-1.071-12.435-2.102c-4.669-1.184-9.17-3.023-13.765-4.518
			c-2.089-0.679-4.298-1.03-6.328-1.842c-6.885-2.756-13.957-5.186-20.504-8.605c-8.861-4.628-17.531-9.717-25.854-15.253
			c-6.427-4.275-12.346-9.366-18.197-14.435c-3.613-3.131-6.802-6.788-9.951-10.409c-3.677-4.228-7.242-8.568-10.602-13.05
			c-4.393-5.858-9.017-11.626-12.658-17.942c-4.045-7.02-7.44-14.473-10.488-21.993c-3.272-8.075-5.728-16.478-8.692-24.683
			c-5.597-15.49-6.323-31.607-6.631-47.839c-0.286-15.066,1.331-29.914,4.889-44.492c2.013-8.246,4.753-16.354,7.732-24.313
			c2.296-6.135,5.186-12.099,8.348-17.844c2.663-4.838,6.111-9.244,9.187-13.856c2.459-3.689,4.633-7.601,7.384-11.054
			c3.445-4.323,7.798-7.967,10.951-12.469c4.264-6.089,10.238-10.165,15.667-14.883c5.137-4.465,10.305-8.977,15.923-12.783
			c6.166-4.178,12.222-8.771,19.69-10.623c1.986-4.208,6.512-4.013,9.957-5.591c7.09-3.25,14.148-6.541,21.975-7.978
			c4.398-0.807,8.566-2.862,12.842-4.345c0.691-0.24,1.387-0.557,2.101-0.626c6.289-0.606,12.572-1.355,18.876-1.692
			c10.539-0.564,21.09-1.047,31.641-1.174c4.552-0.054,9.132,1.376,13.669,1.223c6.891-0.233,12.877,1.771,18.858,4.921
			c2.675,1.409,6.187,1.136,9.234,1.946c5.313,1.413,10.659,2.807,15.807,4.71c4.763,1.761,9.334,4.077,13.895,6.338
			c4.037,2.002,8.037,4.114,11.888,6.448c5.514,3.342,11.231,6.492,16.224,10.515c7.832,6.313,15.325,13.084,22.592,20.048
			c5.046,4.837,9.871,10.022,14.063,15.602c4.48,5.965,7.699,12.879,12.201,18.825c5.105,6.742,7.375,14.734,11.197,22.004
			c7.145,13.585,9.817,28.273,12.807,43.068c3.247,16.068,3.087,32.099,1.688,48.189c-0.631,7.257-2.457,14.419-3.91,21.591
			c-0.938,4.626-1.731,9.36-3.386,13.748c-3.461,9.182-7.163,18.3-11.321,27.184c-2.718,5.807-6.389,11.17-9.673,16.707
			c-2.493,4.203-4.751,8.592-7.661,12.488c-3.042,4.075-6.643,7.753-10.169,11.44c-6.075,6.355-12.186,12.682-18.483,18.813
			c-2.341,2.279-5.161,4.11-7.915,5.914c-8.691,5.69-17.267,11.598-26.263,16.765c-5.136,2.949-10.991,4.656-16.551,6.853
			c-4.692,1.854-9.414,3.637-14.144,5.393c-7.62,2.829-15.595,4.004-23.521,5.631C243.507,376.311,232.603,376.746,221.539,376.521z
			 M67.881,283.055c8.511,0.847,16.308,1.563,24.089,2.413c9.237,1.008,18.45,2.249,27.696,3.167
			c8.556,0.852,17.167,1.184,25.707,2.153c11.811,1.34,23.546,3.412,35.374,4.534c15.632,1.482,31.323,2.346,46.987,3.492
			c1.116,0.081,2.22,0.309,3.331,0.453c11.292,1.479,22.559,3.188,33.882,4.359c9.156,0.946,18.379,1.241,27.572,1.833
			c0.872,0.056,1.741,0.152,2.611,0.243c12.744,1.346,25.492,2.661,38.229,4.07c2.052,0.228,4.041,0.98,6.089,1.303
			c3.996,0.628,8.014,1.123,12.573,1.748c-0.278-1.854-0.248-3.117-0.668-4.206c-1.81-4.695-3.954-9.27-5.599-14.019
			c-2.943-8.497-5.583-17.099-8.408-25.637c-2.839-8.582-5.771-17.134-8.622-25.711c-2.238-6.731-4.428-13.479-6.619-20.226
			c-4.115-12.666-8.113-25.372-12.356-37.995c-3.491-10.385-7.286-20.667-10.902-31.01c-0.895-2.559-1.581-5.19-2.428-7.767
			c-2.066-6.288-4.126-12.579-6.272-18.84c-2.453-7.15-4.965-14.28-7.515-21.397c-1.834-5.119-3.949-10.144-5.619-15.315
			c-2.009-6.22-3.483-12.617-5.542-18.819c-3.123-9.407-6.638-18.683-9.823-28.069c-3.087-9.092-5.946-18.261-8.979-27.371
			c-0.27-0.81-1.056-1.998-1.64-2.021c-0.879-0.034-2.092,0.583-2.637,1.315c-2.362,3.176-4.536,6.493-6.775,9.76
			c-3.826,5.583-7.692,11.137-11.465,16.756c-6.063,9.031-12.012,18.138-18.107,27.147c-3.758,5.556-7.749,10.955-11.537,16.491
			c-3.072,4.487-6.051,9.041-8.965,13.632c-1.44,2.27-2.443,4.831-3.989,7.017c-3.151,4.456-6.69,8.64-9.786,13.131
			c-3.962,5.747-7.548,11.751-11.478,17.522c-3.234,4.75-6.834,9.249-10.084,13.988c-3.627,5.29-7.084,10.698-10.529,16.109
			c-1.296,2.035-2.16,4.359-3.552,6.317c-3.345,4.704-7.031,9.167-10.31,13.913c-4.164,6.029-7.973,12.302-12.098,18.359
			c-4.033,5.923-8.345,11.654-12.399,17.563c-4.743,6.912-9.245,13.991-14.028,20.874c-4.348,6.259-9.001,12.304-13.373,18.547
			c-1.393,1.988-2.313,4.307-3.449,6.475c0.379,0.259,0.758,0.519,1.137,0.777c2.381-3.096,4.636-6.302,7.185-9.252
			c1.813-2.1,2.229-5.915,6.962-5.753c-0.613,1.857-1.273,3.278-1.525,4.768c-0.31,1.839-0.281,3.736-0.398,5.608
			c1.317-0.745,2.634-1.491,3.953-2.232c0.107-0.06,0.245-0.067,0.35-0.13c11.556-6.895,23.155-13.716,34.645-20.72
			c6.25-3.811,12.212-8.098,18.484-11.87c7.938-4.774,16.095-9.184,24.092-13.862c7.454-4.36,14.77-8.956,22.251-13.267
			c3.196-1.842,7.167-2.631,9.869-4.962c3.128-2.699,9.214-2.672,8.509-9.54c-0.43-4.182,3.175-6.4,7.164-5.885
			c2.686,0.347,5.202,3.68,5.104,6.76c-0.101,3.169-2.447,5.138-6.373,5.476c-0.798,0.068-1.626,0.387-2.338,0.777
			c-4.4,2.412-8.757,4.902-13.154,7.318c-2.759,1.516-5.634,2.83-8.333,4.444c-3.18,1.902-6.201,4.068-9.339,6.045
			c-1.321,0.832-2.799,1.41-4.142,2.21c-6.426,3.829-12.804,7.738-19.255,11.523c-2.242,1.314-4.77,2.157-6.954,3.55
			c-5.713,3.644-11.158,7.727-16.992,11.155c-6.211,3.649-12.835,6.591-19.105,10.148c-3.656,2.073-6.892,4.875-10.462,7.118
			c-4.051,2.546-8.272,4.819-12.4,7.244c-0.916,0.538-1.752,1.211-2.625,1.822c1.083,0.475,2.129,1.199,3.259,1.372
			c2.218,0.339,4.756-0.09,5.475,3.521c-2.691,0.182-5.169,0.091-7.537,0.559c-6.627,1.308-13.247,2.698-19.789,4.369
			C71.751,279.056,69.019,279.897,67.881,283.055z M244.056,12.458c-8.606-0.605-16.486-1.194-24.372-1.689
			c-1.856-0.117-3.761-0.111-5.593,0.17c-6.775,1.039-13.527,2.232-20.294,3.329c-1.348,0.218-2.745,0.152-4.082,0.413
			c-4.104,0.799-8.207,1.619-12.277,2.571c-4.251,0.995-8.512,2-12.683,3.28c-4.969,1.525-9.862,3.306-14.753,5.072
			c-1.092,0.395-2.092,1.123-3.035,1.83c-0.626,0.47-0.96,1.475-1.622,1.73c-5.71,2.212-11.913,3.4-16.284,8.285
			c-0.603,0.673-1.564,1.044-2.395,1.49c-2.052,1.101-4.345,1.882-6.146,3.296c-5.322,4.178-11.557,7.154-16.135,12.322
			c-0.807,0.911-2.285,1.208-3.156,2.083c-4.027,4.048-7.966,8.187-11.907,12.32c-3.606,3.783-7.424,7.402-10.692,11.461
			c-3.258,4.047-6.014,8.508-8.859,12.874c-1.372,2.103-2.326,4.478-3.678,6.596c-2.68,4.196-6.16,8.012-8.126,12.504
			c-3.466,7.917-6.503,16.091-8.88,24.397c-3.02,10.556-5.737,21.26-7.569,32.072c-1.334,7.878-1.587,16.056-1.294,24.063
			c0.306,8.374,1.76,16.711,2.857,25.047c1.533,11.651,3.312,23.21,8.392,34.05c4.049,8.64,7.456,17.579,11.216,26.355
			c0.326,0.761,1.314,1.913,1.744,1.812c0.871-0.204,1.779-1.004,2.305-1.8c5.051-7.653,10.032-15.353,15.02-23.048
			c4.843-7.472,9.694-14.939,14.497-22.437c3.858-6.023,7.574-12.14,11.519-18.104c1.229-1.86,3.256-3.194,4.479-5.057
			c4.06-6.186,7.791-12.589,11.891-18.746c4.618-6.936,9.543-13.666,14.257-20.54c6.511-9.496,12.99-19.014,19.405-28.575
			c5.833-8.695,11.563-17.459,17.337-26.194c1.078-1.63,2.083-3.314,3.232-4.892c3.468-4.761,7.126-9.388,10.46-14.24
			c4.827-7.025,9.362-14.221,14.486-21.078c6.292-8.419,11.336-17.761,17.134-26.563c5.441-8.261,11.134-16.359,16.773-24.488
			c1.827-2.635,3.975-5.056,5.7-7.751C243.659,15.532,243.688,13.932,244.056,12.458z M257.486,15.511
			c0.419,1.982,0.532,3.225,0.947,4.355c1.857,5.051,3.91,10.031,5.688,15.109c2.417,6.906,4.625,13.884,6.967,20.815
			c2.755,8.156,5.569,16.292,8.336,24.444c2.275,6.704,4.561,13.404,6.769,20.13c3.063,9.327,6.099,18.664,9.065,28.022
			c1.536,4.844,2.712,9.808,4.382,14.602c3.17,9.101,6.64,18.097,9.858,27.18c1.446,4.081,2.493,8.303,3.891,12.402
			c3.732,10.948,7.545,21.869,11.351,32.792c2.021,5.798,4.169,11.552,6.129,17.368c2.923,8.677,5.788,17.374,8.569,26.097
			c1.693,5.311,3.086,10.717,4.793,16.023c1.502,4.668,3.321,9.232,4.879,13.883c2.401,7.172,4.765,14.357,6.999,21.582
			c0.692,2.236,1.797,2.894,3.295,1.082c3.518-4.255,6.967-8.589,10.124-13.114c3.74-5.361,7.272-10.88,10.646-16.479
			c2.209-3.668,4.088-7.548,5.911-11.428c1.628-3.467,3.141-7.008,4.418-10.617c2.99-8.451,6.244-16.846,8.56-25.487
			c1.824-6.812,2.494-13.945,3.521-20.959c1.986-13.547,1.965-27.188,0.202-40.691c-1.321-10.125-3.848-20.11-6.152-30.084
			c-1.107-4.793-2.894-9.434-4.468-14.112c-0.646-1.916-1.457-3.787-2.337-5.608c-2.372-4.907-4.728-9.828-7.27-14.648
			c-2.367-4.487-4.877-8.907-7.493-13.253c-1.923-3.195-3.933-6.374-6.24-9.293c-3.149-3.983-6.619-7.714-9.953-11.551
			c-2.952-3.397-5.614-7.114-8.924-10.115c-6.136-5.562-12.608-10.756-19.038-15.984c-1.61-1.31-3.667-2.056-5.389-3.248
			c-5.148-3.565-9.948-7.75-15.416-10.708c-6.473-3.502-13.479-6.026-20.3-8.862c-1.643-0.683-3.535-0.757-5.195-1.412
			c-4.843-1.911-9.523-4.29-14.464-5.874C266.352,16.651,262.26,16.359,257.486,15.511z M69.267,286.749
			c0.582,1.958,0.632,3.835,1.568,4.995c6.016,7.46,12.335,14.675,18.344,22.14c7.005,8.701,15.115,16.062,24.613,21.974
			c4.188,2.606,8.039,5.752,12.061,8.627c6.892,4.924,14.377,8.914,22.125,12.139c8.504,3.538,17.435,6.065,26.226,8.892
			c2.459,0.791,5.088,1.04,7.625,1.604c6.938,1.539,13.799,3.771,20.818,4.504c8.537,0.892,17.204,0.691,25.814,0.66
			c6.231-0.023,12.542-0.021,18.671-0.972c7.423-1.152,14.724-3.174,22.018-5.05c6.336-1.63,12.777-3.105,18.83-5.51
			c7.6-3.02,14.977-6.68,22.212-10.512c5.849-3.097,11.404-6.767,16.974-10.362c2.872-1.854,5.529-4.052,8.216-6.181
			c4.308-3.412,8.578-6.871,12.825-10.359c2.105-1.729,4.122-3.568,6.587-5.712c-9.604-1.424-17.988-3.039-26.449-3.832
			c-12.46-1.169-24.975-1.223-37.377-3.66c-8.235-1.618-16.843-1.357-25.285-1.912c-2.24-0.147-4.503-0.066-6.729-0.324
			c-6.989-0.809-13.963-1.742-20.948-2.595c-1.607-0.196-3.233-0.236-4.848-0.393c-12.188-1.185-24.375-2.381-36.562-3.57
			c-0.622-0.061-1.249-0.07-1.869-0.143c-7.762-0.901-15.522-1.818-23.286-2.704c-1.363-0.155-2.747-0.129-4.111-0.274
			c-8.265-0.877-16.521-1.849-24.793-2.654c-9.585-0.935-19.183-1.728-28.774-2.589c-0.371-0.034-0.731-0.164-1.102-0.216
			c-5.896-0.826-11.781-1.749-17.693-2.439c-7.04-0.823-14.106-1.411-21.151-2.186C72.64,288.005,71.512,287.45,69.267,286.749z"/>
		<path fill-rule="evenodd" clip-rule="evenodd" fill="#FFFFFF" d="M67.881,283.055c1.138-3.157,3.87-3.999,6.304-4.621
			c6.542-1.671,13.162-3.062,19.789-4.369c2.368-0.468,4.846-0.377,7.537-0.559c-0.718-3.61-3.257-3.182-5.475-3.521
			c-1.13-0.173-2.175-0.897-3.259-1.372c0.873-0.611,1.709-1.284,2.625-1.822c4.128-2.425,8.35-4.698,12.4-7.244
			c3.57-2.243,6.806-5.045,10.462-7.118c6.27-3.558,12.894-6.499,19.105-10.148c5.833-3.429,11.279-7.512,16.992-11.155
			c2.184-1.393,4.712-2.235,6.954-3.55c6.452-3.785,12.83-7.694,19.255-11.523c1.343-0.8,2.821-1.378,4.142-2.21
			c3.138-1.977,6.159-4.143,9.339-6.045c2.698-1.614,5.573-2.929,8.333-4.444c4.397-2.416,8.754-4.906,13.154-7.318
			c0.712-0.391,1.54-0.709,2.338-0.777c3.926-0.338,6.272-2.307,6.373-5.476c0.098-3.08-2.419-6.413-5.104-6.76
			c-3.988-0.516-7.593,1.703-7.164,5.885c0.705,6.868-5.381,6.841-8.509,9.54c-2.702,2.331-6.672,3.12-9.869,4.962
			c-7.482,4.311-14.798,8.906-22.251,13.267c-7.997,4.679-16.153,9.088-24.092,13.862c-6.272,3.772-12.234,8.06-18.484,11.87
			c-11.489,7.004-23.089,13.825-34.645,20.72c-0.105,0.063-0.243,0.07-0.35,0.13c-1.319,0.741-2.636,1.487-3.953,2.232
			c0.117-1.872,0.088-3.77,0.398-5.608c0.252-1.489,0.912-2.91,1.525-4.768c-4.733-0.162-5.148,3.653-6.962,5.753
			c-2.549,2.95-4.804,6.156-7.185,9.252c-0.379-0.259-0.758-0.519-1.137-0.777c1.136-2.168,2.057-4.486,3.449-6.475
			c4.372-6.243,9.025-12.288,13.373-18.547c4.783-6.883,9.285-13.962,14.028-20.874c4.054-5.908,8.366-11.64,12.399-17.563
			c4.125-6.058,7.934-12.33,12.098-18.359c3.278-4.746,6.965-9.209,10.31-13.913c1.392-1.958,2.256-4.282,3.552-6.317
			c3.445-5.412,6.902-10.82,10.529-16.109c3.25-4.739,6.851-9.238,10.084-13.988c3.929-5.771,7.516-11.775,11.478-17.522
			c3.096-4.491,6.635-8.675,9.786-13.131c1.546-2.186,2.549-4.747,3.989-7.017c2.914-4.591,5.893-9.145,8.965-13.632
			c3.789-5.536,7.779-10.935,11.537-16.491c6.095-9.009,12.044-18.117,18.107-27.147c3.772-5.619,7.639-11.174,11.465-16.756
			c2.239-3.267,4.413-6.584,6.775-9.76c0.545-0.732,1.758-1.349,2.637-1.315c0.584,0.023,1.37,1.211,1.64,2.021
			c3.033,9.11,5.893,18.279,8.979,27.371c3.186,9.386,6.7,18.662,9.823,28.069c2.059,6.202,3.533,12.599,5.542,18.819
			c1.67,5.171,3.785,10.196,5.619,15.315c2.55,7.117,5.062,14.247,7.515,21.397c2.146,6.261,4.206,12.552,6.272,18.84
			c0.847,2.576,1.533,5.208,2.428,7.767c3.616,10.343,7.411,20.625,10.902,31.01c4.243,12.623,8.241,25.329,12.356,37.995
			c2.191,6.747,4.381,13.494,6.619,20.226c2.852,8.577,5.783,17.129,8.622,25.711c2.825,8.538,5.465,17.14,8.408,25.637
			c1.645,4.749,3.789,9.323,5.599,14.019c0.42,1.089,0.39,2.353,0.668,4.206c-4.56-0.625-8.577-1.12-12.573-1.748
			c-2.048-0.322-4.037-1.075-6.089-1.303c-12.737-1.409-25.485-2.725-38.229-4.07c-0.87-0.091-1.739-0.188-2.611-0.243
			c-9.193-0.592-18.416-0.887-27.572-1.833c-11.323-1.171-22.59-2.881-33.882-4.359c-1.111-0.145-2.215-0.372-3.331-0.453
			c-15.664-1.146-31.354-2.01-46.987-3.492c-11.828-1.122-23.563-3.194-35.374-4.534c-8.54-0.97-17.151-1.302-25.707-2.153
			c-9.246-0.918-18.458-2.159-27.696-3.167C84.188,284.618,76.392,283.901,67.881,283.055z M171.885,250.253
			c1.507-3.784,2.577-7.175,4.216-10.264c0.706-1.33,2.522-2.147,3.958-2.987c1.23-0.719,3.518-0.885,3.765-1.746
			c0.409-1.428-0.444-3.218-0.809-5.07c-2.568,1.563-4.35,2.646-5.83,3.546c-0.847-1.404-1.401-3.186-2.037-3.216
			c-1.897-0.089-3.826,0.51-4.977,0.708c0.288,2.536,0.829,4.119,0.556,5.547c-0.606,3.162-1.689,6.229-2.451,9.366
			C167.264,250.305,167.917,250.925,171.885,250.253z"/>
		<path fill-rule="evenodd" clip-rule="evenodd" fill="#FFFFFF" d="M244.056,12.458c-0.368,1.474-0.396,3.074-1.132,4.222
			c-1.726,2.695-3.873,5.116-5.7,7.751c-5.64,8.129-11.332,16.227-16.773,24.488c-5.797,8.803-10.841,18.144-17.134,26.563
			c-5.124,6.856-9.66,14.052-14.486,21.078c-3.334,4.852-6.992,9.479-10.46,14.24c-1.149,1.578-2.154,3.261-3.232,4.892
			c-5.774,8.735-11.504,17.499-17.337,26.194c-6.415,9.561-12.894,19.079-19.405,28.575c-4.713,6.874-9.639,13.604-14.257,20.54
			c-4.1,6.157-7.831,12.56-11.891,18.746c-1.223,1.862-3.249,3.196-4.479,5.057c-3.945,5.964-7.661,12.08-11.519,18.104
			c-4.803,7.497-9.654,14.965-14.497,22.437c-4.988,7.695-9.968,15.395-15.02,23.048c-0.525,0.796-1.434,1.596-2.305,1.8
			c-0.429,0.102-1.417-1.051-1.744-1.812c-3.761-8.776-7.167-17.716-11.216-26.355c-5.08-10.84-6.858-22.398-8.392-34.05
			c-1.097-8.336-2.551-16.674-2.857-25.047c-0.293-8.006-0.04-16.184,1.294-24.063c1.832-10.812,4.549-21.517,7.569-32.072
			c2.377-8.307,5.414-16.481,8.88-24.397c1.966-4.492,5.446-8.308,8.126-12.504c1.353-2.118,2.307-4.493,3.678-6.596
			c2.846-4.365,5.602-8.826,8.859-12.874c3.268-4.059,7.086-7.678,10.692-11.461c3.941-4.134,7.879-8.272,11.907-12.32
			c0.871-0.875,2.349-1.173,3.156-2.083c4.579-5.168,10.813-8.144,16.135-12.322c1.801-1.414,4.094-2.195,6.146-3.296
			c0.831-0.446,1.792-0.817,2.395-1.49c4.372-4.885,10.574-6.073,16.284-8.285c0.662-0.255,0.996-1.26,1.622-1.73
			c0.943-0.708,1.943-1.435,3.035-1.83c4.891-1.766,9.784-3.547,14.753-5.072c4.171-1.28,8.432-2.285,12.683-3.28
			c4.07-0.952,8.173-1.772,12.277-2.571c1.337-0.26,2.734-0.194,4.082-0.413c6.767-1.097,13.52-2.29,20.294-3.329
			c1.832-0.281,3.737-0.287,5.593-0.17C227.569,11.264,235.449,11.853,244.056,12.458z M121.404,135.073
			c-2.45,0.286-4.583,1.096-5.104,0.499c-2.309-2.641-3.608-1.681-6.432-0.236c-5.237,2.682-8.128,6.448-8.946,11.903
			c-0.287,1.913,0.051,5.198,1.164,5.76c1.958,0.99,4.731,0.375,7.163,0.417c1.334,0.023,2.694,0.186,3.998-0.012
			c1.922-0.291,3.843-0.746,5.643-1.444c0.184-0.071-0.66-2.283-0.676-3.505c-0.018-1.441,0.209-2.922,0.573-4.322
			C119.58,141.081,120.528,138.069,121.404,135.073z"/>
		<path fill-rule="evenodd" clip-rule="evenodd" fill="#FFFFFF" d="M257.486,15.511c4.773,0.848,8.865,1.14,12.661,2.357
			c4.94,1.584,9.621,3.963,14.464,5.874c1.66,0.655,3.553,0.729,5.195,1.412c6.821,2.836,13.827,5.36,20.3,8.862
			c5.468,2.958,10.268,7.144,15.416,10.708c1.722,1.192,3.778,1.938,5.389,3.248c6.43,5.228,12.902,10.423,19.038,15.984
			c3.31,3.001,5.972,6.718,8.924,10.115c3.334,3.837,6.804,7.567,9.953,11.551c2.308,2.919,4.317,6.098,6.24,9.293
			c2.616,4.347,5.126,8.766,7.493,13.253c2.542,4.82,4.897,9.741,7.27,14.648c0.88,1.822,1.691,3.693,2.337,5.608
			c1.574,4.678,3.36,9.318,4.468,14.112c2.305,9.974,4.831,19.958,6.152,30.084c1.763,13.503,1.784,27.145-0.202,40.691
			c-1.027,7.014-1.697,14.147-3.521,20.959c-2.315,8.642-5.569,17.036-8.56,25.487c-1.277,3.609-2.79,7.15-4.418,10.617
			c-1.823,3.88-3.702,7.76-5.911,11.428c-3.374,5.6-6.906,11.118-10.646,16.479c-3.157,4.525-6.606,8.859-10.124,13.114
			c-1.498,1.812-2.603,1.154-3.295-1.082c-2.234-7.225-4.598-14.41-6.999-21.582c-1.558-4.65-3.377-9.215-4.879-13.883
			c-1.707-5.307-3.1-10.713-4.793-16.023c-2.781-8.723-5.646-17.42-8.569-26.097c-1.96-5.816-4.108-11.57-6.129-17.368
			c-3.806-10.923-7.618-21.844-11.351-32.792c-1.397-4.1-2.444-8.321-3.891-12.402c-3.219-9.083-6.688-18.079-9.858-27.18
			c-1.67-4.794-2.846-9.758-4.382-14.602c-2.967-9.358-6.002-18.695-9.065-28.022c-2.208-6.726-4.493-13.426-6.769-20.13
			c-2.767-8.151-5.581-16.288-8.336-24.444c-2.342-6.932-4.55-13.91-6.967-20.815c-1.777-5.078-3.83-10.058-5.688-15.109
			C258.019,18.736,257.905,17.493,257.486,15.511z M324.326,136.961c0.978-3.596,1.894-6.39,2.436-9.253
			c0.217-1.146-0.065-3.254-0.69-3.505c-1.226-0.492-3.012-0.332-4.243,0.246c-0.639,0.299-0.686,2.056-0.82,3.177
			c-0.157,1.306,0.108,2.691-0.202,3.944c-1.369,5.514-2.914,10.985-4.329,16.489c-1.354,5.27,0.184,7.187,5.736,7.298
			c5.458,0.109,10.211-3.87,12.243-10.297c0.825-2.613,1.833-5.357-0.627-7.613C331.263,135.092,328.28,135.27,324.326,136.961z"/>
		<path fill-rule="evenodd" clip-rule="evenodd" fill="#FFFFFF" d="M69.267,286.749c2.245,0.701,3.374,1.256,4.549,1.385
			c7.045,0.774,14.112,1.362,21.151,2.186c5.912,0.69,11.797,1.613,17.693,2.439c0.37,0.052,0.731,0.182,1.102,0.216
			c9.592,0.861,19.189,1.654,28.774,2.589c8.272,0.806,16.528,1.777,24.793,2.654c1.365,0.146,2.748,0.119,4.111,0.274
			c7.764,0.886,15.524,1.803,23.286,2.704c0.62,0.072,1.247,0.082,1.869,0.143c12.187,1.189,24.374,2.386,36.562,3.57
			c1.614,0.156,3.24,0.196,4.848,0.393c6.985,0.853,13.959,1.786,20.948,2.595c2.227,0.258,4.489,0.177,6.729,0.324
			c8.442,0.555,17.05,0.294,25.285,1.912c12.402,2.438,24.917,2.491,37.377,3.66c8.461,0.793,16.845,2.408,26.449,3.832
			c-2.465,2.144-4.481,3.982-6.587,5.712c-4.247,3.488-8.518,6.947-12.825,10.359c-2.687,2.129-5.344,4.326-8.216,6.181
			c-5.569,3.596-11.125,7.266-16.974,10.362c-7.235,3.832-14.612,7.492-22.212,10.512c-6.053,2.404-12.494,3.88-18.83,5.51
			c-7.294,1.876-14.595,3.897-22.018,5.05c-6.129,0.951-12.439,0.948-18.671,0.972c-8.61,0.031-17.277,0.231-25.814-0.66
			c-7.02-0.732-13.88-2.965-20.818-4.504c-2.537-0.563-5.166-0.813-7.625-1.604c-8.791-2.826-17.721-5.354-26.226-8.892
			c-7.748-3.225-15.234-7.215-22.125-12.139c-4.022-2.875-7.874-6.021-12.061-8.627c-9.498-5.912-17.608-13.272-24.613-21.974
			c-6.009-7.465-12.328-14.68-18.344-22.14C69.898,290.584,69.849,288.707,69.267,286.749z M205.384,318.917
			c0.173,0.482,0.247,0.711,0.335,0.934c0.45,1.129,0.905,2.257,1.357,3.385c1.192-0.518,3.024-0.757,3.401-1.627
			c0.41-0.946-0.223-2.705-0.954-3.707c-1.516-2.076-7.327-2.188-9.307-0.301c-1.748,1.666-3.318,3.518-5.024,5.229
			c-3.001,3.009-3.677,9.646-1.188,12.104c2.779,2.745,9.611,2.244,12.5-1.096c0.748-0.863,0.865-2.272,1.272-3.431
			c-1.735,0.196-2.522,0.813-3.415,1.16c-1.538,0.598-4.06,1.878-4.537,1.362c-1.252-1.353-2.264-3.535-2.223-5.359
			C197.71,322.821,200.578,320.009,205.384,318.917z"/>
		<path fill-rule="evenodd" clip-rule="evenodd" d="M171.885,250.253c-3.968,0.672-4.621,0.052-3.608-4.116
			c0.762-3.138,1.845-6.204,2.451-9.366c0.273-1.428-0.268-3.011-0.556-5.547c1.151-0.198,3.08-0.797,4.977-0.708
			c0.636,0.03,1.19,1.812,2.037,3.216c1.48-0.9,3.261-1.983,5.83-3.546c0.364,1.853,1.218,3.643,0.809,5.07
			c-0.248,0.861-2.535,1.027-3.765,1.746c-1.436,0.84-3.252,1.657-3.958,2.987C174.461,243.078,173.392,246.469,171.885,250.253z"/>
		<path fill-rule="evenodd" clip-rule="evenodd" d="M121.404,135.073c-0.876,2.996-1.824,6.007-2.618,9.059
			c-0.364,1.4-0.591,2.881-0.573,4.322c0.016,1.223,0.86,3.434,0.676,3.505c-1.8,0.699-3.721,1.154-5.643,1.444
			c-1.303,0.197-2.664,0.035-3.998,0.012c-2.432-0.043-5.205,0.572-7.163-0.417c-1.112-0.562-1.45-3.847-1.164-5.76
			c0.818-5.455,3.709-9.221,8.946-11.903c2.823-1.445,4.123-2.405,6.432,0.236C116.821,136.169,118.954,135.359,121.404,135.073z
			 M105.697,149.72c6.344,0.498,10.908-6.156,8.63-12.219C108.756,136.036,105.291,143.206,105.697,149.72z"/>
		<path fill-rule="evenodd" clip-rule="evenodd" d="M324.326,136.961c3.954-1.691,6.937-1.869,9.503,0.486
			c2.46,2.256,1.452,5,0.627,7.613c-2.032,6.427-6.785,10.406-12.243,10.297c-5.553-0.111-7.091-2.028-5.736-7.298
			c1.415-5.503,2.96-10.975,4.329-16.489c0.311-1.253,0.045-2.639,0.202-3.944c0.135-1.121,0.182-2.878,0.82-3.177
			c1.231-0.578,3.018-0.738,4.243-0.246c0.625,0.25,0.907,2.359,0.69,3.505C326.22,130.572,325.304,133.366,324.326,136.961z
			 M331.146,141.846c-0.232-0.474-0.738-2.666-1.45-2.735c-1.708-0.167-3.732,0.289-5.232,1.169
			c-3.532,2.072-3.578,6.115-4.645,9.53c-0.605,1.939,0.413,2.681,2.292,2.791C326,152.827,330.811,147.627,331.146,141.846z"/>
		<path fill-rule="evenodd" clip-rule="evenodd" d="M205.384,318.917c-4.806,1.092-7.674,3.904-7.782,8.654
			c-0.041,1.824,0.971,4.007,2.223,5.359c0.478,0.516,3-0.765,4.537-1.362c0.893-0.347,1.679-0.964,3.415-1.16
			c-0.407,1.158-0.524,2.567-1.272,3.431c-2.89,3.34-9.721,3.841-12.5,1.096c-2.489-2.459-1.813-9.096,1.188-12.104
			c1.707-1.712,3.276-3.563,5.024-5.229c1.98-1.887,7.791-1.775,9.307,0.301c0.73,1.002,1.363,2.761,0.954,3.707
			c-0.376,0.87-2.209,1.109-3.401,1.627c-0.453-1.128-0.907-2.256-1.357-3.385C205.63,319.628,205.557,319.399,205.384,318.917z"/>
		<path fill-rule="evenodd" clip-rule="evenodd" fill="#FFFFFF" d="M105.697,149.72c-0.406-6.514,3.06-13.684,8.63-12.219
			C116.604,143.563,112.041,150.218,105.697,149.72z"/>
		<path fill-rule="evenodd" clip-rule="evenodd" fill="#FFFFFF" d="M331.146,141.846c-0.336,5.781-5.146,10.981-9.035,10.755
			c-1.879-0.11-2.897-0.852-2.292-2.791c1.066-3.415,1.112-7.458,4.645-9.53c1.5-0.88,3.524-1.335,5.232-1.169
			C330.408,139.18,330.914,141.372,331.146,141.846z"/>
	</g>
</g>
</svg>
