<?xml version="1.0" encoding="utf-8"?>
<!-- Generator: Adobe Illustrator 16.0.0, SVG Export Plug-In . SVG Version: 6.00 Build 0)  -->
<!DOCTYPE svg PUBLIC "-//W3C//DTD SVG 1.1//EN" "http://www.w3.org/Graphics/SVG/1.1/DTD/svg11.dtd">
<svg version="1.1" id="Layer_1" xmlns="http://www.w3.org/2000/svg" xmlns:xlink="http://www.w3.org/1999/xlink" x="0px" y="0px"
	 width="527.323px" height="395.305px" viewBox="0 0 527.323 395.305" enable-background="new 0 0 527.323 395.305"
	 xml:space="preserve">
<g>
	<g>
		<path fill-rule="evenodd" clip-rule="evenodd" fill="#FFFFFF" d="M61.509,396.056c-18.003,0-36.005,0-54.008,0
			c0.921-0.781,1.722-1.844,2.783-2.297c5.431-2.319,10.935-4.469,16.403-6.702c3.058-1.249,6.095-2.547,9.909-4.145
			c-3.7-0.937-6.684-1.692-10.167-2.575c2.198-1.807,3.933-3.27,5.707-4.684c6.279-5.008,12.625-9.934,18.838-15.021
			c4.176-3.42,7.781-7.715,12.345-10.439c5.62-3.354,8.646-11.196,16.514-9.787c0.707-2.157,0.813-4.404,1.984-5.653
			c2.274-2.425,5.143-4.291,7.772-6.381c6.556-5.212,13.204-10.313,19.647-15.659c6.039-5.011,11.846-10.302,17.789-15.43
			c3.094-2.67,6.249-5.271,9.399-7.874c9.94-8.212,19.892-16.409,29.835-24.617c0.651-0.537,1.448-1.007,1.867-1.696
			c3.494-5.754,11.093-4.095,15.316-8.515c0.168-0.176,0.723,0.007,1.096,0.039c4.807,0.417,9.611,1.163,14.42,1.198
			c18.593,0.135,37.188-0.058,55.781,0.074c12.324,0.087,24.644,0.6,36.968,0.761c7.063,0.093,14.13-0.193,21.196-0.187
			c2.335,0.002,4.67,0.557,7.007,0.57c10.435,0.057,20.871-0.022,31.307,0.004c17.225,0.044,34.45,0.141,51.677,0.195
			c8.085,0.024,16.171,0.004,24.242,0.004c0.308,1.383,0.519,2.329,0.722,3.27c-4.207-0.33-4.349-0.175-3.738,4.081
			c4.273,1.288,2.499-2.711,3.637-4.162c1.543-0.662,3.088-1.324,4.631-1.986c-0.107-0.271-0.215-0.543-0.322-0.815
			c19.601,0,39.2,0,58.309,0c-1.643,2.347-3.3,4.716-5.167,7.384c0.107,0.061,1.065,1.053,1.696,0.876
			c2.856-0.803,5.905-1.484,8.359-3.039c5.299-3.358,11.35-3.977,17.135-5.602c0.788-0.223,1.418-1.009,2.122-1.533
			c-0.499-0.545-0.915-1.428-1.513-1.574c-2.605-0.639-5.373-0.751-7.879-1.632c-4.706-1.654-9.246-3.773-13.907-5.567
			c-2.002-0.771-4.13-1.217-6.201-1.81c-0.313,0.473-0.626,0.944-0.939,1.417c1.898,1.951,3.796,3.902,5.816,5.979
			c-0.446,0.507-0.901,1.48-1.379,1.491c-3.634,0.085-7.277,0.109-10.904-0.1c-3.317-0.192-6.612-0.993-9.922-1.02
			c-15.871-0.129-31.744-0.1-47.616-0.102c-77.003-0.009-154.006-0.008-231.009-0.02c-1.296-0.001-2.592-0.121-3.889-0.185
			c-0.076-0.415-0.151-0.83-0.227-1.245c2.014-0.705,4.15-1.178,6.018-2.16c5.124-2.696,10.074-5.725,15.212-8.393
			c3.672-1.908,7.628-3.271,11.296-5.187c6.047-3.158,11.916-6.661,17.961-9.824c2.54-1.329,5.48-1.906,7.994-3.273
			c5.949-3.235,11.668-6.894,17.635-10.093c6.054-3.246,12.308-6.119,18.45-9.202c7.599-3.813,15.184-7.653,22.754-11.521
			c9.933-5.074,19.868-10.143,29.751-15.313c2.666-1.395,5.175-3.101,7.699-4.751c3.274-2.14,6.202-0.147,7.684,6.277
			c2.641-2.216,4.936-4.058,7.133-6.01c2.454-2.181,3.426-5,2.105-8.023c-1.333-3.049-4.548-4.793-7.355-4.431
			c-3.06,0.396-6.704,1.688-7.178,6.06c-0.095,0.875-0.903,2.017-1.695,2.416c-5.843,2.938-11.804,5.641-17.651,8.57
			c-7.349,3.682-14.609,7.539-21.939,11.26c-3.722,1.889-7.53,3.608-11.267,5.471c-5.188,2.587-10.329,5.267-15.518,7.854
			c-3.753,1.871-7.659,3.463-11.301,5.524c-4.714,2.668-9.103,5.925-13.87,8.484c-6.811,3.657-13.879,6.831-20.76,10.362
			c-6.721,3.449-13.309,7.157-20.02,10.626c-6.953,3.594-13.965,7.074-20.994,10.517c-1.631,0.8-4.417,2.237-4.984,1.676
			c-2.129-2.104-5.362-3.351-5.066-7.672c0.613-8.955,0.51-17.966,0.508-26.954c-0.005-28.333-0.101-56.667-0.161-85
			c-0.045-22.083-0.09-44.166-0.133-66.249c-0.006-2.998-0.001-5.997-0.001-8.995c0.382-0.098,0.763-0.196,1.145-0.294
			c1.192,1.323,2.267,2.788,3.622,3.916c0.814,0.678,2.067,0.828,3.123,1.214c0.108-1.004,0.561-2.124,0.271-2.995
			c-2.628-7.885-5.36-15.736-8.135-23.571c-0.396-1.117-1.188-2.094-2.194-3.816c-3.44,11.002-6.583,21.056-9.813,31.383
			c4.559-0.23,4.139-6.441,8.902-5.842c-0.157,1.924-0.42,3.649-0.42,5.374c0.003,18.138,0.052,36.275,0.079,54.412
			c0.021,14.345,0.023,28.69,0.047,43.035c0.047,28.235,0.136,56.471,0.061,84.706c-0.004,1.372-1.069,3.313-2.228,4.008
			c-4.27,2.561-5.079,4.644-3.563,9.512c0.375,1.203-0.003,3.389-0.875,4.115c-8.186,6.827-16.603,13.376-24.854,20.126
			c-6.282,5.14-12.423,10.451-18.62,15.694c-0.825,0.697-1.605,1.445-2.408,2.168c-5.673,5.11-11.187,10.414-17.07,15.27
			c-4.807,3.967-10.266,7.146-15.066,11.121c-11.774,9.747-23.329,19.76-34.984,29.651c-8.021,6.808-16.044,13.613-24.107,20.372
			c-2.176,1.824-4.5,3.472-7.213,5.551c0.296-4.112,0.527-7.32,0.757-10.528c-1.66,0.628-2.448,1.387-3.032,2.277
			c-4.767,7.266-9.566,14.512-14.145,21.895c-0.564,0.909,0.112,2.588,0.214,3.91c-2,0-4,0-6,0c0-131.741,0-263.481,0-395.264
			c175.709,0,351.419,0,527.226,0c0,131.634,0,263.311,0,395.264c-154.925,0-309.946,0-464.968,0
			c1.126-0.845,2.433-1.53,3.348-2.563c3.679-4.15,7.478-8.232,10.74-12.7c1.675-2.296,2.449-5.307,3.314-8.093
			c0.201-0.646-0.708-1.928-1.439-2.474c-0.498-0.372-1.976-0.28-2.299,0.147c-0.562,0.743-1.015,2.06-0.735,2.866
			c1.435,4.134-1.205,6.217-4.371,9.343c-0.415-2.755-0.936-4.647-0.944-6.542c-0.029-6.692-1.983-7.938-8.41-4.637
			c1.431,1.354,3.625,2.434,3.875,3.854c0.725,4.134,0.78,8.403,0.833,12.623c0.011,0.884-0.915,2.206-1.748,2.593
			C62.693,391.623,62.016,393.732,61.509,396.056z M263.145,182.631c1.72-5.502,3.696-12.006,5.8-18.469
			c0.853-2.616,0.194-3.742-2.648-3.666c-2.656,0.071-3.887,0.579-2.87,3.756c1.021,3.19-0.809,6.897-2.825,6.526
			c-3.903-0.72-6.647,0.936-8.9,3.628c-2.208,2.639-3.846,5.562-3.909,9.273c-0.076,4.444,3.033,7.015,6.918,4.982
			c1.891-0.989,2.846-1.141,4.837-0.053c1.098,0.599,3.585-1.344,5.447-2.141C264.538,185.524,264.084,184.581,263.145,182.631z
			 M489.055,165.1c0.98,0.474,1.776,1.079,2.654,1.245c4.642,0.882,8.212-0.539,11.521-4.184c5.877-6.476,8.966-13.344,5.729-22.029
			c-0.677-1.817-1.398-3.617-2.099-5.425c-0.462,0.098-0.924,0.196-1.387,0.294c-0.092,0.855-0.426,1.766-0.241,2.556
			c1.697,7.251,0.572,14.07-2.686,20.702c-1.826,3.717-3.73,4.619-7.415,2.907c4.096-3.198,5.962-7.452,4.061-10.204
			c-0.709-1.027-2.798-1.974-3.868-1.653c-1.298,0.388-4.552,0.389-2.894,3.651c1.338,0.087,2.668,0.174,4.1,0.268
			c0,0.804,0.254,1.607-0.04,2.013C494.204,158.396,491.813,161.474,489.055,165.1z M442.025,300.888
			c-0.382-1.063-1.027-2.533-1.435-4.066c-0.914-3.433,1.147-6.059,4.696-6.301c1.05-0.071,2.07-0.57,3.105-0.872
			c-0.282-0.873-0.305-2.116-0.904-2.537c-0.971-0.682-2.559-1.42-3.459-1.063c-1.662,0.662-3.016,2.102-4.52,3.232
			c-0.596-0.754-1.149-2.104-2.107-2.519c-1.437-0.622-3.154-0.713-4.758-0.749c-0.419-0.009-1.237,1.047-1.205,1.572
			c0.053,0.857,0.521,2.303,1.047,2.415c3.544,0.759,3.803,3.428,3.291,6.006c-0.495,2.492-1.618,4.911-4.72,5.548
			c-0.682,0.14-1.559,1.185-1.642,1.896c-0.098,0.822,0.361,2.172,0.986,2.488c0.632,0.321,1.981-0.083,2.629-0.628
			c1.329-1.121,2.398-2.55,3.667-3.953c2.16,5.48,3.227,5.841,7.448,2.388c0.903-0.738,1.255-2.149,1.859-3.251
			C444.763,300.617,443.518,300.74,442.025,300.888z M135.323,251.441c-1.923,5.08-3.624,9.391-5.139,13.766
			c-0.23,0.665,0.351,2.324,0.633,2.342c2.338,0.153,5.01,0.742,6.99-0.135c9.384-4.16,14.369-18.52,9.919-27.886
			c-0.543-1.142-1.69-1.996-2.409-2.814c-0.344,5.532,0.158,10.96-1.168,15.896c-2.488,9.261-5.352,12.242-9.055,11.703
			c1.228-4.201,2.453-8.39,3.764-12.872C136.959,251.441,135.636,251.441,135.323,251.441z M437.556,154.665
			c-0.177-3.619-0.101-6.475-0.563-9.24c-0.172-1.028-1.688-2.661-2.448-2.585c-1.545,0.154-2.99,1.284-4.478,2.012
			c0.737,0.773,1.499,1.522,2.197,2.328c0.305,0.353,0.621,0.802,0.686,1.243c0.478,3.298,1.389,6.646,1.122,9.894
			c-0.134,1.638-2.298,3.257-3.808,4.582c-0.935,0.819-2.366,1.069-3.575,1.576c0.595,1.18,1.189,2.36,2.386,4.736
			c6.154-7.179,11.575-13.389,16.819-19.746c0.771-0.934,1.181-2.694,0.876-3.837c-0.3-1.123-1.723-1.945-2.651-2.899
			c-0.756,1.219-2.372,2.668-2.117,3.616C443.099,150.431,440.382,152.015,437.556,154.665z M69.71,245.392
			c1.034,4.254,2.345,8.307,2.939,12.461c0.629,4.396-1.069,6.068-5.531,6.856c-0.726,0.129-1.322,0.993-1.978,1.518
			c0.767,0.547,1.751,1.713,2.262,1.533c2.056-0.725,4.447-1.424,5.833-2.939c3.419-3.74,6.175-8.081,9.544-11.872
			c2.054-2.311,2.368-4.627,1.973-7.466c-1.445,0-2.618,0-3.988,0c0.745,4.032,0.088,7.287-3.727,9.38
			c-0.476-3.208-0.921-6.212-1.405-9.471C73.371,245.392,71.207,245.392,69.71,245.392z M212.086,8.491
			c0.11,0.331,0.219,0.662,0.328,0.993c-2.536,2.862-5.152,5.659-7.555,8.629c-0.669,0.828-1.076,2.234-0.89,3.244
			c0.1,0.545,1.684,1.057,2.641,1.151c1.727,0.171,3.487,0.032,5.231-0.004c4.332-0.09,5.435-1.383,5-6.021
			c-2.373,0.584-4.763,1.173-7.152,1.762c-0.16-0.354-0.318-0.709-0.478-1.064c3.633-3.969,7.267-7.939,10.899-11.909
			c-0.106-0.321-0.212-0.642-0.318-0.964c-3.213,0-6.425,0.004-9.637,0c-3.787-0.007-4.939,1.979-3.409,5.479
			C208.554,9.349,210.32,8.92,212.086,8.491z M386.688,144.84c0.442,0.598,0.768,0.974,1.023,1.394
			c1.134,1.866,3.418,3.997,3.082,5.555c-0.449,2.082-2.222,4.633-5.508,4.311c-0.568-0.057-1.715,0.798-1.738,1.275
			c-0.043,0.846,0.342,2.056,0.976,2.495c0.611,0.423,1.932,0.366,2.641-0.025c1.134-0.625,2.094-1.63,2.995-2.598
			c1.805-1.937,2.904-2.468,3.098,0.987c0.041,0.739,1.39,1.405,2.137,2.104c1.094-1.207,2.305-2.335,3.201-3.675
			c0.24-0.36-0.386-1.917-0.776-1.984c-3.21-0.556-2.392-2.97-2.384-4.934c0.01-2.601,1.824-2.769,3.865-2.837
			c0.617-0.021,1.441-0.882,1.714-1.546c0.164-0.399-0.564-1.679-0.877-1.673c-1.936,0.033-3.866,0.319-5.8,0.521
			C389.802,141.918,389.802,141.918,386.688,144.84z M129.366,245.982c-1.143-0.418-1.47-0.637-1.8-0.642
			c-2.87-0.043-5.742-0.104-8.611-0.047c-3.362,0.065-3.979,1.172-2.778,4.836c1.884,0,3.797,0,5.434,0
			c-2.516,2.729-5.005,5.319-7.339,8.044c-0.528,0.616-0.829,1.775-0.636,2.531c0.124,0.487,1.329,0.941,2.071,0.979
			c1.987,0.104,3.991,0.057,5.978-0.08c3.539-0.243,4.548-1.732,3.859-5.018c-1.98,0.305-3.95,0.608-5.919,0.911
			c-0.158-0.3-0.316-0.601-0.474-0.9c1.619-1.681,3.238-3.36,4.857-5.042C125.659,249.838,127.31,248.12,129.366,245.982z
			 M29.051,236.48c-6.437-0.044-15.536,11.422-15.745,18.379c-0.241,7.995,1.435,12.251,5.502,12.558
			C13.916,254.692,20.437,245.521,29.051,236.48z M39.82,246.138c-0.201-0.495-0.402-0.99-0.603-1.485
			c-4.455,2.697-9.003-0.123-14.185,1.688c0.614,1.097,2.211,1.359,2.636,2.208c0.815,1.627,1.573,3.725,1.204,5.368
			c-0.317,1.41-2.125,2.616-3.494,3.61c-0.831,0.604-2.079,0.632-3.139,0.918c0.598,1.13,1.195,2.26,1.947,3.682
			c2.464-1.783,4.542-3.289,6.326-4.58c1.17,1.33,2.16,3.396,3.238,3.442c1.333,0.059,2.74-1.559,4.115-2.452
			c-0.465-0.119-0.93-0.237-1.396-0.356c-0.866-2.081-2.376-4.169-2.352-6.24c0.014-1.217,2.498-2.373,3.812-3.618
			C38.625,247.663,39.194,246.87,39.82,246.138z M489.658,145.038c-0.281-0.34-0.563-0.68-0.845-1.021c-3.819,0-7.639,0-11.404,0
			c-0.371,1.508-0.684,2.779-1.124,4.564c2.302-0.477,4.368-0.905,7.057-1.46c-2.474,5.43-8.28,7.492-9.648,13.383
			c3.011,0,5.359,0.015,7.708-0.003c4.074-0.032,5.167-1.432,4.555-5.797c-1.675,0.474-3.387,0.958-5.099,1.442
			c-0.169-0.303-0.338-0.606-0.507-0.908C483.453,151.837,486.556,148.438,489.658,145.038z M380.837,166.546
			c-4.615-12.634,0.584-22.293,9.134-31.027c-4.623-0.746-10.194,4.984-13.575,13.195
			C374.088,154.316,375.932,163.381,380.837,166.546z M403.342,152.173c2.425,1.522,6.372-0.344,4.584,3.633
			c-0.995,2.216-3.138,3.913-4.744,5.859c-0.75,0.909-1.457,1.854-2.185,2.784c0.227,0.311,0.452,0.622,0.678,0.932
			c2.755-1.441,6.74,1.716,9.037-2.792c-1.298-0.507-2.218-0.867-3.368-1.317c1.421-1.861,3.085-3.263,3.673-5.024
			c0.602-1.803,0.625-4.134-0.03-5.887c-0.354-0.943-2.821-1.825-4.035-1.522C405.622,149.169,404.639,150.894,403.342,152.173z
			 M449.013,152.428c1.546,0.643,3.104,1.291,4.661,1.938c-1.044,1.892-2.004,3.837-3.169,5.651c-0.514,0.8-1.507,1.276-2.169,2.002
			c-0.669,0.734-1.2,1.596-1.894,2.541c6.155,1.821,8.573,1.153,9.389-2.369c-1.23-0.229-2.457-0.458-3.365-0.627
			c1.416-1.952,2.68-3.765,4.019-5.521c1.855-2.432,0.961-4.591-1.068-6.057C453.511,148.612,450.055,150.235,449.013,152.428z
			 M46.503,251.368c-1.738,5.2-3.288,9.835-5.073,15.174c0.504,0.179,1.818,0.835,3.199,1.037c0.539,0.079,1.634-0.76,1.785-1.356
			c1.233-4.858,2.303-9.759,3.47-14.854C48.594,251.368,47.275,251.368,46.503,251.368z M95.358,251.448c-1.905,0-3.446,0-3.925,0
			c-1.526,4.54-2.893,8.521-4.189,12.524c-0.34,1.051-0.46,2.173-0.681,3.262c1.082,0.146,2.374,0.72,3.187,0.319
			c0.846-0.418,1.421-1.709,1.767-2.736c0.461-1.371,0.466-2.891,0.882-4.283C93.273,257.598,94.288,254.701,95.358,251.448z
			 M355.241,336.289c-1.575-3.707-6.533-4.43-8.344-2.643c0.46,1.804,0.87,3.41,1.516,5.942c-2.128-1.034-3.084-1.498-4.709-2.288
			c0,1.894,0,3.253,0,4.599c2.777-0.628,5.053-1.142,7.573-1.711c-0.558-1.722-1.108-3.425-1.626-5.02
			C351.85,335.608,353.546,335.949,355.241,336.289z M325.492,343.582c1.569-1.22,3.233-2.513,4.637-3.603
			c-0.616-1.053-1.115-1.907-1.615-2.762c-0.128,0.39-0.257,0.779-0.386,1.169c-1.345,0-2.696,0.084-4.03-0.034
			c-0.719-0.063-1.612-0.866-2.057-0.633c-0.619,0.326-1.291,1.363-1.208,2c0.102,0.77,0.859,1.572,1.531,2.116
			C323.156,342.479,324.16,342.86,325.492,343.582z M346.479,216.649c1.699,0,2.984,0,4.61,0c-0.709-2.594-2.727-4.893-0.162-7.165
			c0.131-0.116-0.797-1.658-1.452-2.32c-0.263-0.267-1.396-0.168-1.648,0.149c-0.574,0.725-1.369,2.286-1.166,2.462
			C349.226,212.001,346.865,214.116,346.479,216.649z M462.104,156.321c-3.767-0.657-3.767-0.657-4.324,6.84
			C461.381,163.569,462.771,161.369,462.104,156.321z M414.16,155.012c-1,3.137-1.708,4.888-2.041,6.708
			c-0.088,0.486,0.97,1.183,1.501,1.783c1.319-1.75,2.858-3.396,3.777-5.336C417.589,157.765,415.49,156.274,414.16,155.012z
			 M100.35,257.422c-7.43-0.983-1.412,5.73-4.878,6.889C100.178,264.813,100.813,263.829,100.35,257.422z M51.226,264.658
			c3.119,0.125,5.618-3.172,4.233-5.938c-0.359-0.718-1.671-1.269-2.557-1.285c-0.458-0.008-1.22,1.271-1.355,2.055
			C51.27,261.093,51.322,262.754,51.226,264.658z M240.404,340.513c3.609,0,6.621,0,9.758,0c-0.086-2.615-0.549-3.996-3.232-2.324
			c-0.663,0.412-2.059,0.567-2.562,0.158C241.792,336.253,241.382,338.174,240.404,340.513z M348.229,314.839
			c1.271-1.747,2.446-2.658,2.357-3.423c-0.102-0.878-1.323-1.626-2.058-2.43c-0.654,0.7-1.748,1.346-1.844,2.115
			C346.579,311.959,347.383,312.929,348.229,314.839z M351.393,316.726c-1.045-0.776-1.928-1.829-2.354-1.669
			c-0.94,0.355-2.274,1.307-2.291,2.041c-0.019,0.826,1.235,1.68,1.937,2.521C349.456,318.795,350.228,317.971,351.393,316.726z
			 M347.536,184.062c-0.457,0.466-0.916,0.932-1.375,1.397c0.764,1.157,1.527,2.314,2.29,3.472c0.805-0.916,1.61-1.831,2.415-2.747
			C349.757,185.477,348.646,184.769,347.536,184.062z M349.76,218.121c-0.422-0.042-0.844-0.083-1.266-0.124
			c-0.766,1.368-1.532,2.736-2.298,4.104c0.261,0.309,0.522,0.616,0.783,0.924c1.296-0.339,2.591-0.677,3.887-1.017
			C350.498,220.713,350.129,219.417,349.76,218.121z M369.099,323.421c-1.427-1.044-2.306-2.144-3.269-2.225
			c-0.588-0.048-1.82,1.482-1.808,2.288c0.012,0.686,1.342,1.796,2.178,1.887C366.927,325.45,367.78,324.364,369.099,323.421z
			 M351.688,288.276c-1.14-1.189-1.838-1.92-2.536-2.649c-0.868,0.873-1.903,1.652-2.485,2.687c-0.142,0.25,1.245,1.939,1.87,1.905
			C349.465,290.167,350.341,289.169,351.688,288.276z M388.302,302.273c-0.446-0.449-0.892-0.897-1.339-1.346
			c-1.06,0.732-2.119,1.466-3.181,2.198c0.845,0.903,1.688,1.807,2.533,2.711C386.978,304.648,387.64,303.461,388.302,302.273z
			 M416.846,274.968c-1.571-1.151-2.495-1.969-3.566-2.473c-0.171-0.08-1.545,1.392-1.409,1.875c0.259,0.913,1.082,2.016,1.92,2.297
			C414.378,276.865,415.379,275.833,416.846,274.968z M377.442,313.668c0.486,0.015,0.974,0.029,1.46,0.044
			c0.354-1.211,1.32-2.757,0.894-3.544c-0.461-0.846-2.229-0.981-3.427-1.426c-0.294,0.328-0.587,0.657-0.881,0.986
			C376.14,311.041,376.791,312.354,377.442,313.668z M116.104,340.442c-1.37-1.946-2.191-3.114-3.013-4.282
			c-0.803,1.236-1.607,2.474-2.782,4.282C112.432,340.442,113.492,340.442,116.104,340.442z M352.008,249.545
			c-0.331-0.55-0.663-1.099-0.994-1.647c-0.628-0.377-1.587-1.219-1.825-1.049c-0.972,0.691-1.816,1.634-2.453,2.644
			c-0.097,0.154,1.254,1.737,1.757,1.648C349.72,250.924,350.843,250.115,352.008,249.545z M274.111,339.839
			c2.034,1.429,3.821,3.198,5.537,0.019C278.127,335.423,276.196,338.188,274.111,339.839z M346.155,283.563
			c0.358,0.38,0.717,0.761,1.075,1.141c1.092-0.449,2.921-0.7,3.106-1.393c0.293-1.091-0.518-2.48-0.86-3.743
			c-0.421-0.031-0.841-0.063-1.263-0.095C347.528,280.837,346.842,282.2,346.155,283.563z M388.926,301.46
			c0.492-0.017,0.983-0.033,1.476-0.049c1.448-1.242,2.787-2.578,0.449-4.197c-0.538-0.372-1.545-0.066-2.336-0.073
			C388.651,298.58,388.789,300.02,388.926,301.46z M357.674,334.173c0.887-1.671,1.767-2.568,1.629-3.267
			c-0.167-0.853-1.188-1.538-1.84-2.295c-0.643,0.856-1.617,1.647-1.808,2.595C355.534,331.808,356.58,332.644,357.674,334.173z
			 M165.99,338.859c0.368,0.496,0.736,0.991,1.104,1.486c1.344,0,2.688,0,4.415,0c-0.417-1.504-0.717-2.587-1.017-3.67
			c-0.51-0.321-1.021-0.643-1.531-0.964C167.971,336.761,166.98,337.811,165.99,338.859z M350.024,224.292
			c-0.683-0.088-1.364-0.176-2.046-0.264c-0.357,1.421-0.716,2.842-1.073,4.263c1.039,0.071,2.079,0.142,3.119,0.213
			C350.024,227.1,350.024,225.696,350.024,224.292z M105.277,339.942c0.191,0.286,0.381,0.572,0.572,0.858
			c1.231-0.391,2.463-0.78,3.694-1.171c-0.481-1.25-0.962-2.499-1.443-3.749c-0.364,0.095-0.729,0.189-1.094,0.283
			C106.431,337.424,105.854,338.684,105.277,339.942z M129.976,335.248c-1.12,2.177-1.786,3.474-2.754,5.355
			c2.047-0.098,3.324-0.158,5.262-0.251C131.593,338.541,131,337.332,129.976,335.248z M99.362,340.628
			c1.588-0.119,2.631-0.197,4.527-0.34c-0.949-1.828-1.619-3.12-2.289-4.411c-0.377,0.102-0.755,0.204-1.132,0.307
			C100.136,337.522,99.802,338.861,99.362,340.628z M349.81,201.049c-0.73-0.037-1.461-0.073-2.192-0.11
			c-0.095,1.251-0.335,2.521-0.168,3.735c0.037,0.264,1.535,0.326,2.36,0.481C349.81,203.786,349.81,202.418,349.81,201.049z
			 M405.625,285.221c1.01-1.159,2.096-1.953,1.966-2.347c-0.285-0.868-1.184-1.534-1.833-2.283
			c-0.672,0.694-1.632,1.296-1.904,2.122C403.706,283.164,404.721,283.999,405.625,285.221z M127.173,340.398
			c-1.121-1.839-1.907-3.128-3.022-4.957c-1.079,2.203-1.654,3.377-2.428,4.957C123.517,340.398,124.916,340.398,127.173,340.398z
			 M419.027,272.479c0.246-0.263,0.493-0.524,0.739-0.786c-0.642-1.313-1.283-2.627-1.924-3.94
			c-0.372,0.057-0.745,0.113-1.117,0.169c-0.265,1.204-0.9,2.498-0.638,3.573C416.22,272.031,417.995,272.163,419.027,272.479z
			 M138.747,340.711c2.2-0.177,3.243-0.26,4.774-0.383c-0.627-1.591-1.113-2.824-1.6-4.058c-0.331-0.028-0.662-0.058-0.993-0.086
			C140.325,337.437,139.722,338.688,138.747,340.711z M95.581,335.21c-0.913,2.257-1.446,3.575-2.089,5.164
			C97.97,340.46,98.168,340.061,95.581,335.21z M369.594,322.222c1.238-1.606,2.354-2.433,2.265-3.092
			c-0.125-0.91-1.161-1.695-1.807-2.535c-0.621,0.718-1.594,1.364-1.759,2.175C368.143,319.51,368.867,320.427,369.594,322.222z
			 M172.267,339.562c0.266,0.397,0.532,0.796,0.799,1.193c1.423-0.174,2.846-0.348,4.27-0.522c0.093-0.344,0.187-0.688,0.28-1.031
			c-0.963-0.714-1.943-2.002-2.883-1.972C173.887,337.256,173.087,338.728,172.267,339.562z M189.77,339.354
			c0.135,0.441,0.27,0.884,0.405,1.325c1.411-0.065,2.822-0.131,4.232-0.195c0.372-0.626,0.744-1.252,1.115-1.878
			c-1.071-0.509-2.191-1.494-3.197-1.388C191.408,337.314,190.617,338.595,189.77,339.354z M348.188,325.497
			c0.36-0.071,0.721-0.145,1.082-0.217c0.48-1.276,0.962-2.554,1.442-3.83c-0.229-0.261-0.459-0.521-0.689-0.782
			c-1.076,0.426-3.008,0.776-3.054,1.294C346.868,323.095,347.724,324.313,348.188,325.497z M349.857,263.416
			c-0.67-0.035-1.339-0.07-2.01-0.105c-0.282,1.277-0.564,2.555-0.847,3.832c0.952,0.005,1.904,0.011,2.856,0.017
			C349.857,265.911,349.857,264.664,349.857,263.416z M351.353,242.976c-1.114-0.92-1.831-1.513-2.547-2.104
			c-0.698,1.009-1.469,1.981-2.005,3.068c-0.069,0.142,1.291,1.383,1.602,1.244C349.389,244.745,350.19,243.895,351.353,242.976z
			 M85.324,336.219c-0.625-0.011-1.249-0.022-1.873-0.034c-0.205,1.344-0.411,2.688-0.616,4.032
			c0.924,0.002,1.847,0.004,2.771,0.006C85.512,338.888,85.418,337.554,85.324,336.219z M116.481,340.667
			c1.992-0.151,3.124-0.236,4.979-0.377c-1.09-1.747-1.844-2.956-3.102-4.971C117.591,337.506,117.148,338.766,116.481,340.667z
			 M346.117,300.331c0.52,0.567,1.039,1.137,1.56,1.705c0.96-0.806,1.92-1.61,2.882-2.415c-0.553-0.634-1.104-1.267-1.656-1.899
			C347.974,298.591,347.045,299.461,346.117,300.331z M149.507,340.385c2.156,0,3.417,0,5.169,0
			c-0.737-1.657-1.296-2.914-2.172-4.882C151.42,337.269,150.71,338.426,149.507,340.385z"/>
		<path fill-rule="evenodd" clip-rule="evenodd" d="M427.866,260.516c-0.211-0.946-0.422-1.893-0.729-3.275
			c-8.071,0-16.157,0.021-24.242-0.004c-17.227-0.055-34.452-0.151-51.677-0.195c-10.436-0.026-20.872,0.053-31.307-0.004
			c-2.337-0.014-4.672-0.568-7.007-0.57c-7.066-0.007-14.134,0.279-21.196,0.187c-12.324-0.161-24.644-0.674-36.968-0.761
			c-18.593-0.132-37.188,0.061-55.781-0.074c-4.809-0.035-9.614-0.781-14.42-1.198c-0.373-0.032-0.928-0.215-1.096-0.039
			c-4.224,4.42-11.823,2.761-15.316,8.515c-0.419,0.689-1.216,1.159-1.867,1.696c-9.943,8.208-19.895,16.405-29.835,24.617
			c-3.151,2.604-6.305,5.204-9.399,7.874c-5.943,5.128-11.75,10.419-17.789,15.43c-6.444,5.347-13.092,10.447-19.647,15.659
			c-2.629,2.09-5.498,3.956-7.772,6.381c-1.171,1.249-1.278,3.496-1.984,5.653c-7.868-1.409-10.894,6.433-16.514,9.787
			c-4.564,2.725-8.169,7.02-12.345,10.439c-6.213,5.087-12.559,10.013-18.838,15.021c-1.773,1.414-3.509,2.877-5.707,4.684
			c3.483,0.883,6.467,1.639,10.167,2.575c-3.814,1.598-6.852,2.896-9.909,4.145c-5.468,2.233-10.972,4.383-16.403,6.702
			c-1.061,0.453-1.862,1.516-2.783,2.297c-0.25,0-0.5,0-0.75,0c-0.102-1.322-0.778-3.001-0.214-3.91
			c4.579-7.383,9.378-14.629,14.145-21.895c0.584-0.891,1.372-1.649,3.032-2.277c-0.23,3.208-0.461,6.416-0.757,10.528
			c2.713-2.079,5.037-3.727,7.213-5.551c8.063-6.759,16.085-13.564,24.107-20.372c11.655-9.892,23.209-19.904,34.984-29.651
			c4.8-3.975,10.259-7.154,15.066-11.121c5.883-4.855,11.397-10.159,17.07-15.27c0.803-0.723,1.583-1.471,2.408-2.168
			c6.197-5.243,12.338-10.555,18.62-15.694c8.251-6.75,16.668-13.299,24.854-20.126c0.872-0.727,1.25-2.912,0.875-4.115
			c-1.515-4.868-0.706-6.951,3.563-9.512c1.159-0.694,2.224-2.636,2.228-4.008c0.075-28.235-0.013-56.471-0.061-84.706
			c-0.024-14.345-0.026-28.69-0.047-43.035c-0.027-18.137-0.076-36.274-0.079-54.412c0-1.724,0.263-3.449,0.42-5.374
			c-4.764-0.599-4.344,5.612-8.902,5.842c3.229-10.328,6.373-20.381,9.813-31.383c1.006,1.723,1.798,2.699,2.194,3.816
			c2.775,7.835,5.507,15.686,8.135,23.571c0.291,0.872-0.163,1.991-0.271,2.995c-1.056-0.387-2.309-0.537-3.123-1.214
			c-1.355-1.127-2.43-2.592-3.622-3.916c-0.382,0.098-0.763,0.196-1.145,0.294c0,2.998-0.005,5.997,0.001,8.995
			c0.043,22.083,0.087,44.166,0.133,66.249c0.06,28.334,0.155,56.667,0.161,85c0.002,8.988,0.105,17.999-0.508,26.954
			c-0.296,4.321,2.937,5.567,5.066,7.672c0.568,0.562,3.353-0.876,4.984-1.676c7.029-3.442,14.041-6.923,20.994-10.517
			c6.711-3.469,13.299-7.177,20.02-10.626c6.881-3.531,13.949-6.705,20.76-10.362c4.767-2.56,9.155-5.816,13.87-8.484
			c3.642-2.062,7.548-3.653,11.301-5.524c5.188-2.587,10.33-5.266,15.518-7.854c3.736-1.863,7.545-3.582,11.267-5.471
			c7.33-3.721,14.591-7.579,21.939-11.26c5.848-2.929,11.809-5.632,17.651-8.57c0.792-0.399,1.601-1.542,1.695-2.416
			c0.474-4.372,4.118-5.665,7.178-6.06c2.808-0.363,6.022,1.381,7.355,4.431c1.32,3.024,0.349,5.843-2.105,8.023
			c-2.197,1.952-4.492,3.794-7.133,6.01c-1.481-6.425-4.409-8.417-7.684-6.277c-2.524,1.65-5.033,3.356-7.699,4.751
			c-9.883,5.171-19.818,10.239-29.751,15.313c-7.57,3.868-15.155,7.708-22.754,11.521c-6.143,3.083-12.396,5.956-18.45,9.202
			c-5.967,3.199-11.686,6.857-17.635,10.093c-2.514,1.367-5.454,1.944-7.994,3.273c-6.045,3.163-11.914,6.666-17.961,9.824
			c-3.668,1.915-7.625,3.278-11.296,5.187c-5.138,2.668-10.088,5.696-15.212,8.393c-1.868,0.982-4.004,1.455-6.018,2.16
			c0.076,0.415,0.151,0.83,0.227,1.245c1.296,0.063,2.592,0.184,3.889,0.185c77.003,0.012,154.006,0.011,231.009,0.02
			c15.872,0.002,31.745-0.027,47.616,0.102c3.31,0.026,6.604,0.827,9.922,1.02c3.627,0.209,7.271,0.185,10.904,0.1
			c0.478-0.011,0.933-0.984,1.379-1.491c-2.021-2.077-3.918-4.028-5.816-5.979c0.313-0.473,0.627-0.944,0.939-1.417
			c2.071,0.593,4.199,1.038,6.201,1.81c4.661,1.794,9.201,3.913,13.907,5.567c2.506,0.881,5.273,0.993,7.879,1.632
			c0.598,0.146,1.014,1.029,1.513,1.574c-0.704,0.524-1.334,1.311-2.122,1.533c-5.785,1.625-11.836,2.243-17.135,5.602
			c-2.454,1.555-5.503,2.236-8.359,3.039c-0.631,0.177-1.589-0.815-1.696-0.876c1.867-2.668,3.524-5.037,5.167-7.384
			c-19.108,0-38.708,0-58.309,0c0.107,0.272,0.215,0.544,0.322,0.815c-1.543,0.662-3.088,1.324-4.631,1.986L427.866,260.516z"/>
		<path fill-rule="evenodd" clip-rule="evenodd" d="M61.509,396.056c0.507-2.323,1.184-4.433,3.665-5.581
			c0.833-0.387,1.759-1.709,1.748-2.593c-0.053-4.22-0.108-8.489-0.833-12.623c-0.249-1.421-2.444-2.501-3.875-3.854
			c6.426-3.301,8.381-2.056,8.41,4.637c0.008,1.895,0.529,3.787,0.944,6.542c3.166-3.126,5.806-5.209,4.371-9.343
			c-0.28-0.807,0.173-2.123,0.735-2.866c0.323-0.428,1.801-0.52,2.299-0.147c0.73,0.546,1.64,1.827,1.439,2.474
			c-0.866,2.786-1.639,5.797-3.314,8.093c-3.262,4.468-7.061,8.55-10.74,12.7c-0.915,1.032-2.222,1.718-3.348,2.563
			C62.509,396.056,62.008,396.056,61.509,396.056z"/>
		<path fill-rule="evenodd" clip-rule="evenodd" d="M263.145,182.631c0.939,1.949,1.394,2.893,1.849,3.836
			c-1.862,0.797-4.349,2.74-5.447,2.141c-1.992-1.088-2.947-0.936-4.837,0.053c-3.885,2.033-6.994-0.538-6.918-4.982
			c0.063-3.711,1.701-6.634,3.909-9.273c2.253-2.693,4.998-4.348,8.9-3.628c2.016,0.372,3.846-3.336,2.825-6.526
			c-1.017-3.178,0.214-3.686,2.87-3.756c2.843-0.076,3.501,1.05,2.648,3.666C266.841,170.625,264.864,177.129,263.145,182.631z
			 M259.306,173.424c-4.891,1.152-6.117,4.421-7.145,7.672c-0.294,0.929,0.411,2.174,0.658,3.273
			c1.101-0.255,2.664-0.141,3.216-0.833c1.768-2.215,3.33-4.646,4.578-7.186C260.923,175.718,259.752,174.358,259.306,173.424z"/>
		<path fill-rule="evenodd" clip-rule="evenodd" d="M489.055,165.1c2.759-3.626,5.149-6.704,7.436-9.859
			c0.294-0.406,0.04-1.208,0.04-2.013c-1.432-0.094-2.762-0.18-4.1-0.268c-1.658-3.263,1.596-3.263,2.894-3.651
			c1.07-0.32,3.159,0.626,3.868,1.653c1.901,2.752,0.035,7.006-4.061,10.204c3.685,1.712,5.589,0.81,7.415-2.907
			c3.258-6.632,4.383-13.451,2.686-20.702c-0.185-0.79,0.149-1.701,0.241-2.556c0.463-0.098,0.925-0.196,1.387-0.294
			c0.7,1.808,1.422,3.608,2.099,5.425c3.236,8.685,0.147,15.553-5.729,22.029c-3.309,3.645-6.879,5.065-11.521,4.184
			C490.831,166.179,490.035,165.574,489.055,165.1z"/>
		<path fill-rule="evenodd" clip-rule="evenodd" d="M442.025,300.888c1.492-0.147,2.737-0.271,3.98-0.394
			c-0.604,1.102-0.956,2.513-1.859,3.251c-4.222,3.453-5.288,3.093-7.448-2.388c-1.269,1.403-2.338,2.832-3.667,3.953
			c-0.647,0.545-1.997,0.949-2.629,0.628c-0.625-0.316-1.084-1.666-0.986-2.488c0.083-0.711,0.96-1.756,1.642-1.896
			c3.102-0.637,4.225-3.056,4.72-5.548c0.512-2.578,0.253-5.247-3.291-6.006c-0.525-0.112-0.994-1.558-1.047-2.415
			c-0.032-0.525,0.786-1.581,1.205-1.572c1.604,0.036,3.321,0.127,4.758,0.749c0.958,0.415,1.512,1.765,2.107,2.519
			c1.504-1.131,2.857-2.57,4.52-3.232c0.9-0.357,2.488,0.381,3.459,1.063c0.6,0.421,0.622,1.664,0.904,2.537
			c-1.035,0.302-2.056,0.801-3.105,0.872c-3.549,0.242-5.61,2.868-4.696,6.301C440.998,298.354,441.644,299.825,442.025,300.888z"/>
		<path fill-rule="evenodd" clip-rule="evenodd" d="M135.323,251.441c0.313,0,1.637,0,3.535,0
			c-1.311,4.482-2.536,8.671-3.764,12.872c3.703,0.539,6.567-2.442,9.055-11.703c1.326-4.937,0.825-10.364,1.168-15.896
			c0.719,0.818,1.866,1.673,2.409,2.814c4.45,9.366-0.535,23.726-9.919,27.886c-1.98,0.877-4.652,0.288-6.99,0.135
			c-0.282-0.018-0.863-1.677-0.633-2.342C131.699,260.832,133.399,256.521,135.323,251.441z"/>
		<path fill-rule="evenodd" clip-rule="evenodd" d="M437.556,154.665c2.826-2.65,5.543-4.233,4.445-8.321
			c-0.255-0.947,1.361-2.397,2.117-3.616c0.929,0.955,2.352,1.777,2.651,2.899c0.305,1.143-0.104,2.903-0.876,3.837
			c-5.244,6.357-10.665,12.566-16.819,19.746c-1.196-2.376-1.791-3.556-2.386-4.736c1.209-0.506,2.641-0.757,3.575-1.576
			c1.51-1.325,3.674-2.944,3.808-4.582c0.267-3.247-0.645-6.596-1.122-9.894c-0.064-0.441-0.381-0.89-0.686-1.243
			c-0.698-0.806-1.46-1.555-2.197-2.328c1.487-0.728,2.933-1.858,4.478-2.012c0.76-0.076,2.276,1.557,2.448,2.585
			C437.455,148.189,437.379,151.046,437.556,154.665z"/>
		<path fill-rule="evenodd" clip-rule="evenodd" d="M69.71,245.392c1.497,0,3.66,0,5.923,0c0.483,3.259,0.929,6.263,1.405,9.471
			c3.814-2.093,4.472-5.348,3.727-9.38c1.371,0,2.543,0,3.988,0c0.395,2.839,0.081,5.155-1.973,7.466
			c-3.369,3.791-6.125,8.132-9.544,11.872c-1.385,1.516-3.777,2.215-5.833,2.939c-0.51,0.18-1.495-0.986-2.262-1.533
			c0.656-0.524,1.252-1.389,1.978-1.518c4.461-0.788,6.16-2.46,5.531-6.856C72.056,253.698,70.745,249.646,69.71,245.392z"/>
		<path fill-rule="evenodd" clip-rule="evenodd" d="M212.086,8.491c-1.766,0.429-3.532,0.857-5.339,1.295
			c-1.53-3.5-0.377-5.485,3.409-5.479c3.212,0.005,6.424,0,9.637,0c0.105,0.322,0.212,0.643,0.318,0.964
			c-3.632,3.97-7.266,7.939-10.899,11.909c0.16,0.355,0.318,0.709,0.478,1.064c2.39-0.589,4.78-1.177,7.152-1.762
			c0.435,4.638-0.668,5.931-5,6.021c-1.745,0.036-3.504,0.175-5.231,0.004c-0.958-0.094-2.542-0.606-2.641-1.151
			c-0.186-1.01,0.221-2.417,0.89-3.244c2.403-2.971,5.019-5.768,7.555-8.629C212.305,9.153,212.196,8.822,212.086,8.491z"/>
		<path fill-rule="evenodd" clip-rule="evenodd" d="M386.688,144.84c3.114-2.922,3.114-2.922,7.648-0.63
			c1.934-0.202,3.864-0.488,5.8-0.521c0.313-0.006,1.041,1.274,0.877,1.673c-0.272,0.664-1.097,1.525-1.714,1.546
			c-2.041,0.068-3.855,0.236-3.865,2.837c-0.008,1.964-0.826,4.378,2.384,4.934c0.391,0.067,1.017,1.624,0.776,1.984
			c-0.896,1.34-2.107,2.468-3.201,3.675c-0.747-0.699-2.096-1.365-2.137-2.104c-0.193-3.455-1.293-2.923-3.098-0.987
			c-0.901,0.968-1.861,1.973-2.995,2.598c-0.709,0.391-2.029,0.448-2.641,0.025c-0.634-0.438-1.019-1.649-0.976-2.495
			c0.023-0.477,1.17-1.332,1.738-1.275c3.286,0.322,5.059-2.229,5.508-4.311c0.336-1.559-1.948-3.689-3.082-5.555
			C387.455,145.814,387.13,145.438,386.688,144.84z"/>
		<path fill-rule="evenodd" clip-rule="evenodd" d="M129.366,245.982c-2.056,2.138-3.707,3.855-5.359,5.573
			c-1.619,1.682-3.238,3.361-4.857,5.042c0.158,0.3,0.316,0.601,0.474,0.9c1.969-0.303,3.939-0.606,5.919-0.911
			c0.689,3.285-0.321,4.774-3.859,5.018c-1.987,0.137-3.991,0.184-5.978,0.08c-0.743-0.038-1.947-0.492-2.071-0.979
			c-0.193-0.756,0.108-1.915,0.636-2.531c2.334-2.725,4.824-5.315,7.339-8.044c-1.636,0-3.549,0-5.434,0
			c-1.201-3.664-0.583-4.771,2.778-4.836c2.869-0.057,5.741,0.004,8.611,0.047C127.896,245.346,128.223,245.564,129.366,245.982z"/>
		<path fill-rule="evenodd" clip-rule="evenodd" d="M29.051,236.48c-8.615,9.04-15.136,18.212-10.243,30.937
			c-4.067-0.307-5.743-4.563-5.502-12.558C13.515,247.902,22.615,236.437,29.051,236.48z"/>
		<path fill-rule="evenodd" clip-rule="evenodd" d="M39.82,246.138c-0.626,0.732-1.194,1.525-1.889,2.185
			c-1.314,1.245-3.798,2.401-3.812,3.618c-0.024,2.071,1.486,4.159,2.352,6.24c0.465,0.119,0.931,0.237,1.396,0.356
			c-1.375,0.894-2.782,2.511-4.115,2.452c-1.078-0.047-2.068-2.112-3.238-3.442c-1.784,1.291-3.862,2.797-6.326,4.58
			c-0.752-1.422-1.35-2.552-1.947-3.681c1.061-0.287,2.309-0.315,3.139-0.919c1.369-0.994,3.177-2.2,3.494-3.61
			c0.369-1.644-0.389-3.741-1.204-5.368c-0.425-0.849-2.022-1.111-2.636-2.208c5.181-1.812,9.73,1.009,14.185-1.688
			C39.418,245.147,39.619,245.643,39.82,246.138z"/>
		<path fill-rule="evenodd" clip-rule="evenodd" d="M489.658,145.038c-3.103,3.4-6.205,6.799-9.308,10.199
			c0.169,0.302,0.338,0.605,0.507,0.908c1.712-0.484,3.424-0.968,5.099-1.442c0.612,4.365-0.48,5.766-4.555,5.797
			c-2.349,0.018-4.697,0.003-7.708,0.003c1.368-5.891,7.175-7.953,9.648-13.383c-2.688,0.556-4.755,0.983-7.057,1.46
			c0.44-1.785,0.753-3.056,1.124-4.564c3.766,0,7.585,0,11.404,0C489.095,144.358,489.377,144.698,489.658,145.038z"/>
		<path fill-rule="evenodd" clip-rule="evenodd" d="M380.837,166.546c-4.905-3.165-6.749-12.23-4.441-17.833
			c3.381-8.211,8.952-13.941,13.575-13.195C381.421,144.253,376.222,153.912,380.837,166.546z"/>
		<path fill-rule="evenodd" clip-rule="evenodd" d="M403.342,152.173c1.297-1.279,2.28-3.004,3.609-3.334
			c1.214-0.302,3.682,0.579,4.035,1.522c0.655,1.752,0.632,4.084,0.03,5.887c-0.588,1.761-2.252,3.163-3.673,5.024
			c1.15,0.45,2.07,0.81,3.368,1.317c-2.297,4.508-6.282,1.35-9.037,2.792c-0.226-0.311-0.451-0.621-0.678-0.932
			c0.728-0.929,1.435-1.875,2.185-2.784c1.606-1.946,3.749-3.643,4.744-5.859C409.714,151.829,405.767,153.695,403.342,152.173z"/>
		<path fill-rule="evenodd" clip-rule="evenodd" d="M449.013,152.428c1.042-2.193,4.498-3.816,6.403-2.44
			c2.029,1.466,2.924,3.625,1.068,6.057c-1.339,1.755-2.603,3.569-4.019,5.521c0.908,0.169,2.135,0.397,3.365,0.627
			c-0.815,3.522-3.233,4.19-9.389,2.369c0.693-0.945,1.225-1.807,1.894-2.541c0.662-0.727,1.655-1.203,2.169-2.002
			c1.165-1.814,2.125-3.759,3.169-5.651C452.116,153.719,450.559,153.071,449.013,152.428z"/>
		<path fill-rule="evenodd" clip-rule="evenodd" d="M46.503,251.368c0.772,0,2.091,0,3.381,0c-1.167,5.096-2.237,9.996-3.47,14.854
			c-0.151,0.597-1.246,1.436-1.785,1.356c-1.381-0.202-2.695-0.858-3.199-1.037C43.215,261.203,44.765,256.568,46.503,251.368z"/>
		<path fill-rule="evenodd" clip-rule="evenodd" d="M95.358,251.448c-1.07,3.253-2.085,6.149-2.961,9.086
			c-0.416,1.393-0.42,2.912-0.882,4.283c-0.345,1.027-0.921,2.318-1.767,2.736c-0.813,0.4-2.104-0.174-3.187-0.319
			c0.221-1.089,0.341-2.211,0.681-3.262c1.296-4.004,2.664-7.984,4.189-12.524C91.912,251.448,93.454,251.448,95.358,251.448z"/>
		<path fill-rule="evenodd" clip-rule="evenodd" d="M355.241,336.289c-1.695-0.34-3.392-0.681-5.59-1.12
			c0.518,1.595,1.068,3.298,1.626,5.02c-2.521,0.569-4.796,1.083-7.573,1.711c0-1.346,0-2.705,0-4.599
			c1.625,0.79,2.581,1.254,4.709,2.288c-0.646-2.532-1.056-4.139-1.516-5.942C348.708,331.859,353.666,332.582,355.241,336.289z"/>
		<path fill-rule="evenodd" clip-rule="evenodd" d="M325.492,343.582c-1.332-0.722-2.336-1.104-3.128-1.746
			c-0.672-0.544-1.43-1.347-1.531-2.116c-0.083-0.637,0.589-1.674,1.208-2c0.444-0.233,1.338,0.569,2.057,0.633
			c1.334,0.118,2.686,0.034,4.03,0.034c0.129-0.39,0.258-0.779,0.386-1.169c0.5,0.854,0.999,1.709,1.615,2.762
			C328.726,341.069,327.062,342.362,325.492,343.582z"/>
		<path fill-rule="evenodd" clip-rule="evenodd" d="M346.479,216.649c0.387-2.533,2.747-4.648,0.182-6.874
			c-0.203-0.176,0.592-1.737,1.166-2.462c0.252-0.317,1.386-0.416,1.648-0.149c0.655,0.662,1.583,2.204,1.452,2.32
			c-2.564,2.272-0.547,4.571,0.162,7.165C349.463,216.649,348.178,216.649,346.479,216.649z"/>
		<path fill-rule="evenodd" clip-rule="evenodd" d="M462.104,156.321c0.667,5.048-0.724,7.248-4.324,6.84
			C458.338,155.664,458.338,155.664,462.104,156.321z"/>
		<path fill-rule="evenodd" clip-rule="evenodd" d="M414.16,155.012c1.33,1.262,3.429,2.752,3.237,3.156
			c-0.919,1.94-2.458,3.586-3.777,5.336c-0.531-0.6-1.589-1.297-1.501-1.783C412.452,159.9,413.16,158.149,414.16,155.012z"/>
		<path fill-rule="evenodd" clip-rule="evenodd" d="M100.35,257.422c0.463,6.407-0.172,7.391-4.878,6.889
			C98.938,263.152,92.92,256.438,100.35,257.422z"/>
		<path fill-rule="evenodd" clip-rule="evenodd" d="M51.226,264.658c0.097-1.904,0.044-3.565,0.321-5.169
			c0.136-0.783,0.897-2.063,1.355-2.055c0.886,0.017,2.197,0.567,2.557,1.285C56.843,261.486,54.345,264.783,51.226,264.658z"/>
		<path fill-rule="evenodd" clip-rule="evenodd" d="M240.404,340.513c0.978-2.339,1.387-4.26,3.963-2.166
			c0.503,0.409,1.899,0.254,2.562-0.158c2.683-1.672,3.146-0.291,3.232,2.324C247.025,340.513,244.013,340.513,240.404,340.513z"/>
		<path fill-rule="evenodd" clip-rule="evenodd" d="M348.229,314.839c-0.846-1.91-1.649-2.88-1.544-3.737
			c0.096-0.77,1.189-1.415,1.844-2.115c0.734,0.804,1.956,1.552,2.058,2.43C350.675,312.181,349.5,313.092,348.229,314.839z"/>
		<path fill-rule="evenodd" clip-rule="evenodd" d="M351.393,316.726c-1.165,1.245-1.937,2.069-2.708,2.894
			c-0.701-0.842-1.955-1.695-1.937-2.521c0.017-0.734,1.351-1.686,2.291-2.041C349.465,314.896,350.348,315.949,351.393,316.726z"/>
		<path fill-rule="evenodd" clip-rule="evenodd" d="M347.536,184.062c1.11,0.708,2.221,1.415,3.33,2.123
			c-0.805,0.916-1.61,1.831-2.415,2.747c-0.763-1.158-1.526-2.314-2.29-3.472C346.62,184.993,347.079,184.527,347.536,184.062z"/>
		<path fill-rule="evenodd" clip-rule="evenodd" d="M349.76,218.121c0.369,1.296,0.738,2.592,1.106,3.888
			c-1.296,0.34-2.591,0.678-3.887,1.017c-0.261-0.308-0.522-0.615-0.783-0.924c0.766-1.368,1.532-2.736,2.298-4.104
			C348.916,218.038,349.338,218.079,349.76,218.121z"/>
		<path fill-rule="evenodd" clip-rule="evenodd" d="M369.099,323.421c-1.318,0.943-2.172,2.029-2.898,1.95
			c-0.836-0.091-2.166-1.201-2.178-1.887c-0.013-0.806,1.22-2.336,1.808-2.288C366.793,321.277,367.672,322.377,369.099,323.421z"/>
		<path fill-rule="evenodd" clip-rule="evenodd" d="M351.688,288.276c-1.347,0.893-2.223,1.891-3.151,1.942
			c-0.625,0.034-2.012-1.655-1.87-1.905c0.582-1.034,1.617-1.813,2.485-2.687C349.85,286.356,350.548,287.087,351.688,288.276z"/>
		<path fill-rule="evenodd" clip-rule="evenodd" d="M388.302,302.273c-0.662,1.188-1.324,2.375-1.986,3.563
			c-0.845-0.904-1.688-1.808-2.533-2.711c1.062-0.732,2.121-1.466,3.181-2.198C387.41,301.376,387.855,301.824,388.302,302.273z"/>
		<path fill-rule="evenodd" clip-rule="evenodd" d="M416.846,274.968c-1.467,0.865-2.468,1.897-3.056,1.699
			c-0.838-0.281-1.661-1.384-1.92-2.297c-0.136-0.483,1.238-1.955,1.409-1.875C414.351,272.999,415.274,273.816,416.846,274.968z"/>
		<path fill-rule="evenodd" clip-rule="evenodd" d="M377.442,313.668c-0.651-1.313-1.303-2.627-1.954-3.939
			c0.294-0.329,0.587-0.658,0.881-0.986c1.197,0.444,2.966,0.58,3.427,1.426c0.427,0.787-0.54,2.333-0.894,3.544
			C378.416,313.697,377.929,313.683,377.442,313.668z"/>
		<path fill-rule="evenodd" clip-rule="evenodd" d="M116.104,340.442c-2.613,0-3.673,0-5.795,0c1.175-1.809,1.979-3.046,2.782-4.282
			C113.914,337.328,114.735,338.496,116.104,340.442z"/>
		<path fill-rule="evenodd" clip-rule="evenodd" d="M352.008,249.545c-1.165,0.57-2.288,1.379-3.516,1.596
			c-0.503,0.089-1.854-1.494-1.757-1.648c0.637-1.01,1.481-1.952,2.453-2.644c0.238-0.17,1.197,0.672,1.825,1.049
			C351.345,248.446,351.677,248.995,352.008,249.545z"/>
		<path fill-rule="evenodd" clip-rule="evenodd" d="M274.111,339.839c2.085-1.65,4.016-4.416,5.537,0.019
			C277.933,343.037,276.146,341.268,274.111,339.839z"/>
		<path fill-rule="evenodd" clip-rule="evenodd" d="M346.155,283.563c0.687-1.363,1.373-2.727,2.059-4.09
			c0.422,0.032,0.842,0.063,1.263,0.095c0.343,1.263,1.153,2.652,0.86,3.743c-0.186,0.692-2.015,0.943-3.106,1.393
			C346.872,284.324,346.514,283.943,346.155,283.563z"/>
		<path fill-rule="evenodd" clip-rule="evenodd" d="M388.926,301.46c-0.137-1.44-0.274-2.88-0.411-4.319
			c0.791,0.007,1.798-0.299,2.336,0.073c2.338,1.619,0.999,2.955-0.449,4.197C389.909,301.427,389.418,301.443,388.926,301.46z"/>
		<path fill-rule="evenodd" clip-rule="evenodd" d="M427.757,260.429c-1.138,1.451,0.637,5.45-3.637,4.162
			c-0.61-4.256-0.469-4.411,3.738-4.081C427.866,260.516,427.757,260.429,427.757,260.429z"/>
		<path fill-rule="evenodd" clip-rule="evenodd" d="M357.674,334.173c-1.094-1.529-2.14-2.365-2.019-2.967
			c0.19-0.947,1.165-1.738,1.808-2.595c0.652,0.757,1.673,1.442,1.84,2.295C359.44,331.604,358.561,332.502,357.674,334.173z"/>
		<path fill-rule="evenodd" clip-rule="evenodd" d="M165.99,338.859c0.99-1.049,1.981-2.099,2.971-3.147
			c0.51,0.321,1.021,0.643,1.531,0.964c0.3,1.083,0.6,2.166,1.017,3.67c-1.727,0-3.071,0-4.415,0
			C166.726,339.851,166.358,339.355,165.99,338.859z"/>
		<path fill-rule="evenodd" clip-rule="evenodd" d="M350.024,224.292c0,1.404,0,2.808,0,4.212c-1.04-0.071-2.08-0.142-3.119-0.213
			c0.357-1.421,0.716-2.842,1.073-4.263C348.66,224.116,349.342,224.204,350.024,224.292z"/>
		<path fill-rule="evenodd" clip-rule="evenodd" d="M105.277,339.942c0.577-1.259,1.154-2.519,1.73-3.778
			c0.365-0.094,0.729-0.188,1.094-0.283c0.481,1.25,0.962,2.499,1.443,3.749c-1.231,0.391-2.463,0.78-3.694,1.171
			C105.659,340.515,105.468,340.229,105.277,339.942z"/>
		<path fill-rule="evenodd" clip-rule="evenodd" d="M129.976,335.248c1.024,2.084,1.618,3.293,2.508,5.104
			c-1.938,0.093-3.215,0.153-5.262,0.251C128.189,338.722,128.856,337.425,129.976,335.248z"/>
		<path fill-rule="evenodd" clip-rule="evenodd" d="M99.362,340.628c0.44-1.767,0.773-3.105,1.106-4.444
			c0.377-0.103,0.755-0.205,1.132-0.307c0.67,1.291,1.34,2.583,2.289,4.411C101.993,340.431,100.95,340.509,99.362,340.628z"/>
		<path fill-rule="evenodd" clip-rule="evenodd" d="M349.81,201.049c0,1.369,0,2.737,0,4.106c-0.825-0.155-2.323-0.218-2.36-0.481
			c-0.167-1.215,0.073-2.484,0.168-3.735C348.349,200.976,349.079,201.012,349.81,201.049z"/>
		<path fill-rule="evenodd" clip-rule="evenodd" d="M405.625,285.221c-0.904-1.222-1.919-2.057-1.771-2.508
			c0.272-0.826,1.232-1.428,1.904-2.122c0.649,0.749,1.548,1.415,1.833,2.283C407.721,283.268,406.635,284.062,405.625,285.221z"/>
		<path fill-rule="evenodd" clip-rule="evenodd" d="M127.173,340.398c-2.257,0-3.657,0-5.45,0c0.773-1.58,1.349-2.754,2.428-4.957
			C125.267,337.271,126.052,338.56,127.173,340.398z"/>
		<path fill-rule="evenodd" clip-rule="evenodd" d="M419.027,272.479c-1.032-0.316-2.808-0.448-2.939-0.984
			c-0.263-1.075,0.373-2.369,0.638-3.573c0.372-0.056,0.745-0.112,1.117-0.169c0.641,1.313,1.282,2.627,1.924,3.94
			C419.521,271.955,419.273,272.217,419.027,272.479z"/>
		<path fill-rule="evenodd" clip-rule="evenodd" d="M138.747,340.711c0.975-2.022,1.578-3.274,2.181-4.526
			c0.331,0.028,0.662,0.058,0.993,0.086c0.487,1.233,0.973,2.467,1.6,4.058C141.99,340.451,140.947,340.534,138.747,340.711z"/>
		<path fill-rule="evenodd" clip-rule="evenodd" d="M95.581,335.21c2.587,4.851,2.389,5.25-2.089,5.164
			C94.135,338.785,94.668,337.467,95.581,335.21z"/>
		<path fill-rule="evenodd" clip-rule="evenodd" d="M369.594,322.222c-0.727-1.795-1.451-2.712-1.301-3.452
			c0.165-0.811,1.138-1.457,1.759-2.175c0.646,0.84,1.682,1.625,1.807,2.535C371.948,319.789,370.832,320.615,369.594,322.222z"/>
		<path fill-rule="evenodd" clip-rule="evenodd" d="M172.267,339.562c0.82-0.834,1.62-2.306,2.465-2.332
			c0.939-0.03,1.92,1.258,2.883,1.972c-0.093,0.344-0.187,0.688-0.28,1.031c-1.423,0.175-2.846,0.349-4.27,0.522
			C172.799,340.357,172.533,339.959,172.267,339.562z"/>
		<path fill-rule="evenodd" clip-rule="evenodd" d="M189.77,339.354c0.847-0.759,1.638-2.039,2.555-2.136
			c1.005-0.106,2.126,0.879,3.197,1.388c-0.371,0.626-0.743,1.252-1.115,1.878c-1.41,0.064-2.821,0.13-4.232,0.195
			C190.04,340.237,189.905,339.795,189.77,339.354z"/>
		<path fill-rule="evenodd" clip-rule="evenodd" d="M348.188,325.497c-0.464-1.184-1.319-2.402-1.219-3.535
			c0.046-0.518,1.978-0.868,3.054-1.294c0.23,0.261,0.46,0.521,0.689,0.782c-0.48,1.276-0.962,2.554-1.442,3.83
			C348.908,325.353,348.548,325.426,348.188,325.497z"/>
		<path fill-rule="evenodd" clip-rule="evenodd" d="M349.857,263.416c0,1.248,0,2.495,0,3.743c-0.952-0.006-1.904-0.012-2.856-0.017
			c0.282-1.277,0.564-2.555,0.847-3.832C348.519,263.346,349.188,263.381,349.857,263.416z"/>
		<path fill-rule="evenodd" clip-rule="evenodd" d="M351.353,242.976c-1.162,0.919-1.964,1.77-2.95,2.208
			c-0.311,0.139-1.671-1.103-1.602-1.244c0.536-1.087,1.307-2.06,2.005-3.068C349.521,241.463,350.238,242.056,351.353,242.976z"/>
		<path fill-rule="evenodd" clip-rule="evenodd" d="M85.324,336.219c0.094,1.335,0.188,2.669,0.282,4.004
			c-0.924-0.002-1.847-0.004-2.771-0.006c0.205-1.344,0.411-2.688,0.616-4.032C84.075,336.196,84.699,336.208,85.324,336.219z"/>
		<path fill-rule="evenodd" clip-rule="evenodd" d="M116.481,340.667c0.667-1.901,1.11-3.161,1.878-5.348
			c1.257,2.015,2.011,3.224,3.102,4.971C119.604,340.431,118.473,340.516,116.481,340.667z"/>
		<path fill-rule="evenodd" clip-rule="evenodd" d="M346.117,300.331c0.928-0.87,1.856-1.74,2.785-2.609
			c0.552,0.633,1.104,1.266,1.656,1.899c-0.962,0.805-1.922,1.609-2.882,2.415C347.156,301.468,346.637,300.898,346.117,300.331z"/>
		<path fill-rule="evenodd" clip-rule="evenodd" d="M149.507,340.385c1.203-1.959,1.913-3.116,2.997-4.882
			c0.876,1.968,1.435,3.225,2.172,4.882C152.925,340.385,151.663,340.385,149.507,340.385z"/>
		<path fill-rule="evenodd" clip-rule="evenodd" fill="#FFFFFF" d="M259.306,173.424c0.447,0.935,1.617,2.294,1.307,2.926
			c-1.248,2.541-2.81,4.971-4.578,7.186c-0.552,0.692-2.115,0.579-3.216,0.833c-0.247-1.1-0.952-2.345-0.658-3.273
			C253.189,177.845,254.415,174.576,259.306,173.424z"/>
	</g>
</g>
</svg>
