<?xml version="1.0" encoding="utf-8"?>
<!-- Generator: Adobe Illustrator 16.0.0, SVG Export Plug-In . SVG Version: 6.00 Build 0)  -->
<!DOCTYPE svg PUBLIC "-//W3C//DTD SVG 1.1//EN" "http://www.w3.org/Graphics/SVG/1.1/DTD/svg11.dtd">
<svg version="1.1" id="Layer_1" xmlns="http://www.w3.org/2000/svg" xmlns:xlink="http://www.w3.org/1999/xlink" x="0px" y="0px"
	 width="528.824px" height="318.795px" viewBox="0 0 528.824 318.795" enable-background="new 0 0 528.824 318.795"
	 xml:space="preserve">
<g>
	<g>
		<path fill-rule="evenodd" clip-rule="evenodd" d="M444.813,319.545c-147.271,0-294.542,0-441.812,0
			c-0.191-4.608-0.515-9.216-0.55-13.827c-0.199-25.971-0.289-51.942-0.495-77.914c-0.146-18.345-0.388-36.689-0.648-55.034
			c-0.097-6.834-0.366-13.665-0.557-20.498c0-50.507,0-101.015,0-151.521c175.274,0,350.549,0,525.823,0
			c0.391,23.058,0.846,46.115,1.152,69.174c0.257,19.317,0.345,38.637,0.499,57.956c0.267,33.55,0.512,67.1,0.811,100.649
			c0.034,3.836,0.352,7.67,0.539,11.504c0,26.254,0,52.508,0,78.762c-5.95,0.068-11.901,0.09-17.849,0.226
			c-3.055,0.069-6.104,0.343-9.155,0.524c-0.75,0-1.5,0-2.25,0c-8.501,0-17.003,0-25.504,0c-0.25,0-0.5,0-0.75,0
			C464.314,319.545,454.563,319.545,444.813,319.545z M2.256,3.099C2.153,4.066,2.003,4.781,2.013,5.493
			c0.258,18.964,0.569,37.928,0.796,56.893c0.224,18.734,0.348,37.47,0.55,56.204c0.182,16.861,0.383,33.721,0.624,50.581
			c0.357,24.958,0.864,49.915,1.108,74.874c0.229,23.488,0.243,46.979,0.235,70.469c-0.001,2.949,0.887,3.736,3.874,3.72
			c27.618-0.158,55.236-0.112,82.855-0.173c31.984-0.069,63.968-0.169,95.952-0.29c20.565-0.078,41.13-0.225,61.696-0.324
			c17.341-0.084,34.682-0.104,52.023-0.231c12.97-0.094,25.938-0.385,38.907-0.46c14.36-0.083,28.721,0.035,43.079-0.036
			c18.224-0.089,36.448-0.376,54.672-0.406c28.483-0.048,56.967,0.038,85.451,0.099c2.565,0.005,3.793-0.741,3.72-3.682
			c-0.375-14.97-0.615-29.946-0.778-44.921c-0.245-22.479-0.353-44.96-0.583-67.439c-0.236-23.107-0.602-46.213-0.821-69.32
			c-0.399-42.093-0.74-84.186-1.073-126.279c-0.018-2.224-0.432-3.325-3.145-3.272c-10.968,0.212-21.939,0.157-32.91,0.16
			c-27.079,0.009-54.158-0.051-81.238,0.004c-31.968,0.063-63.936,0.221-95.903,0.334c-35.234,0.125-70.467,0.26-105.701,0.364
			c-28.087,0.083-56.175,0.083-84.261,0.2c-31.98,0.133-63.959,0.363-95.938,0.533C17.614,3.133,10.026,3.099,2.256,3.099z"/>
		<path fill-rule="evenodd" clip-rule="evenodd" fill="#FFFFFF" d="M529.574,240.033c-0.188-3.834-0.505-7.668-0.539-11.504
			c-0.299-33.55-0.544-67.1-0.811-100.649c-0.154-19.319-0.242-38.639-0.499-57.956c-0.307-23.059-0.762-46.116-1.152-69.174
			c1,0,2.001,0,3.001,0C529.574,80.511,529.574,160.272,529.574,240.033z"/>
		<path fill-rule="evenodd" clip-rule="evenodd" fill="#FFFFFF" d="M0.75,152.271c0.191,6.833,0.46,13.664,0.557,20.498
			c0.26,18.345,0.502,36.689,0.648,55.034c0.207,25.972,0.296,51.943,0.495,77.914c0.035,4.611,0.359,9.219,0.55,13.827
			c-3.013,0.696-2.242-1.488-2.242-3.001C0.749,262.287,0.75,208.028,0.75,153.771C0.75,153.271,0.75,152.771,0.75,152.271z"/>
		<path fill-rule="evenodd" clip-rule="evenodd" fill="#FFFFFF" d="M444.813,319.545c9.751,0,19.502,0,29.254,0
			C464.314,319.545,454.563,319.545,444.813,319.545z"/>
		<path fill-rule="evenodd" clip-rule="evenodd" fill="#FFFFFF" d="M502.57,319.545c3.052-0.182,6.101-0.455,9.155-0.524
			c5.947-0.136,11.898-0.157,17.849-0.226c-0.625,0.249-1.249,0.714-1.876,0.718C519.322,319.561,510.946,319.545,502.57,319.545z"
			/>
		<path fill-rule="evenodd" clip-rule="evenodd" fill="#FFFFFF" d="M474.816,319.545c8.501,0,17.003,0,25.504,0
			C491.819,319.545,483.317,319.545,474.816,319.545z"/>
		<path fill-rule="evenodd" clip-rule="evenodd" fill="#FFFFFF" d="M2.256,3.099c7.77,0,15.357,0.034,22.946-0.006
			c31.979-0.169,63.958-0.4,95.938-0.533c28.086-0.117,56.174-0.117,84.261-0.2c35.234-0.104,70.466-0.24,105.701-0.364
			c31.968-0.113,63.936-0.271,95.903-0.334c27.08-0.055,54.159,0.005,81.238-0.004c10.971-0.003,21.942,0.052,32.91-0.16
			c2.713-0.053,3.127,1.048,3.145,3.272c0.333,42.093,0.674,84.186,1.073,126.279c0.22,23.107,0.585,46.212,0.821,69.32
			c0.23,22.479,0.338,44.961,0.583,67.439c0.163,14.975,0.403,29.951,0.778,44.921c0.073,2.94-1.154,3.687-3.72,3.682
			c-28.484-0.061-56.968-0.146-85.451-0.099c-18.224,0.03-36.448,0.317-54.672,0.406c-14.358,0.071-28.719-0.047-43.079,0.036
			c-12.969,0.075-25.938,0.366-38.907,0.46c-17.341,0.127-34.682,0.147-52.023,0.231c-20.565,0.1-41.13,0.246-61.696,0.324
			c-31.984,0.121-63.968,0.221-95.952,0.29c-27.619,0.061-55.238,0.015-82.855,0.173c-2.987,0.017-3.875-0.771-3.874-3.72
			c0.007-23.49-0.006-46.98-0.235-70.469c-0.244-24.959-0.751-49.916-1.108-74.874c-0.241-16.859-0.442-33.72-0.624-50.581
			c-0.202-18.734-0.326-37.47-0.55-56.204C2.582,43.421,2.271,24.458,2.013,5.493C2.003,4.781,2.153,4.066,2.256,3.099z
			 M69.706,221.275c-0.778-2.656-1.236-2.738-6.849-1.08c0,3.123-0.072,6.342,0.057,9.552c0.027,0.687,0.781,1.344,1.2,2.014
			c0.674-0.601,1.657-1.084,1.941-1.832c0.327-0.861,0.163-1.979-0.01-2.946c-0.562-3.135,0.426-5.193,3.733-5.8
			c0.072,2.224-0.124,4.497,0.282,6.658c0.536,2.856,3.741,4.979,6.057,4.131c2.554-0.935,4.928-2.617,4.625-5.598
			c-0.227-2.231-1.041-5.245-2.64-6.26c-1.582-1.005-4.483,0.009-6.793,0.256C70.748,220.431,70.238,220.96,69.706,221.275z
			 M301.913,263.369c5.032-0.745,10.063-1.5,15.097-2.236c11.486-1.68,21.509-6.666,30.62-13.647
			c20.004-15.329,29.935-35.692,30.579-60.819c0.777-30.292-18.044-60.174-45.907-71.833c-1.853-0.776-2.224-1.778-2.192-3.674
			c0.127-7.69,0.55-15.431-0.109-23.068c-1.027-11.913-5.996-22.649-12.7-32.311c-7.143-10.294-16.216-18.55-27.469-24.747
			c-11.188-6.163-23.076-9.323-35.373-9.391c-19.933-0.11-37.873,6.33-52.704,20.321c-8.47,7.991-15.136,17.16-19.377,28.001
			c-5.779,14.769-7.128,29.967-4.169,45.571c0.168,0.884-0.547,2.331-1.311,2.928c-2.926,2.286-6.052,4.317-9.082,6.471
			c-11.263,8.009-19.312,18.649-24.518,31.298c-12.788,31.07-7.836,59.743,13.208,85.459c10.565,12.911,24.564,21.416,40.877,25.165
			c22.463,5.164,43.918,2.52,63.416-10.602c2.954-1.987,5.371-2.186,8.552-0.572C279.53,260.848,290.51,262.731,301.913,263.369z
			 M443.988,268.86c-0.098,1.259,0.264,3.232-0.378,3.646c-2.203,1.413-4.738,2.33-7.21,3.271c-0.227,0.086-1.303-1.008-1.294-1.543
			c0.027-1.625-0.086-4.243,0.737-4.639c1.336-0.642,3.373,0.175,5.938,0.471c-0.418-0.949-0.629-2.738-1.512-3.177
			c-2.437-1.213-5.121-1.329-7.127,1.068c-1.873,2.241-1.676,7.112,0.231,9.099c2.339,2.438,5.457,2.195,9.513-0.996
			c2.606,5.481,7.094,0.806,11.057,2.504c-0.257-2.497-0.583-4.443-0.623-6.395c-0.045-2.252,0.472-4.892-2.338-5.66
			C448.188,265.746,445.214,265.661,443.988,268.86z M139.043,77.618c0.348,0.082,0.695,0.164,1.042,0.246
			c0,1.712-0.167,3.447,0.062,5.128c0.139,1.018,0.893,1.951,1.37,2.923c0.502-0.991,1.396-1.969,1.435-2.978
			c0.122-3.227,0.092-6.482-0.227-9.692c-0.127-1.278-1.163-2.467-1.785-3.696c-1.038,0.993-2.503,1.801-3.022,3.016
			c-1.034,2.418-1.547,5.06-2.275,7.608c-0.322,0.005-0.643,0.01-0.965,0.015c-0.505-1.319-1.064-2.62-1.503-3.961
			c-0.542-1.656-0.74-3.482-1.568-4.966c-0.455-0.815-1.971-1.566-2.876-1.435c-0.725,0.105-1.739,1.564-1.778,2.46
			c-0.169,3.857-0.125,7.734,0.087,11.59c0.042,0.766,1.164,1.472,1.788,2.207c0.431-0.743,1.163-1.457,1.235-2.233
			c0.18-1.926,0.059-3.88,0.059-5.824c0.308-0.022,0.616-0.044,0.924-0.066c0.583,1.862,1.038,3.78,1.803,5.564
			c0.392,0.914,1.341,1.589,2.038,2.372c0.826-0.777,1.994-1.407,2.405-2.362C138.1,81.656,138.484,79.6,139.043,77.618z
			 M116.552,227.492c-0.122,0.403-0.244,0.807-0.365,1.209c-0.969-0.275-2.106-0.318-2.877-0.871
			c-2.399-1.721-4.553-2.116-7.049-0.047c-0.806,0.667-2.355,0.437-3.565,0.616c-0.099-1.993-0.278-3.992-0.141-5.969
			c0.011-0.153,2.244-0.237,3.438-0.198c0.985,0.033,1.962,0.298,2.943,0.459c-0.529-0.996-1.024-2.82-1.594-2.844
			c-2.301-0.096-4.926-0.222-6.859,0.774c-2.166,1.114-2.273,6.304-0.755,8.593c1.59,2.396,3.843,3.103,6.467,2.118
			c1.336-0.5,2.5-1.459,3.634-2.146c1.207,0.823,2.273,1.707,3.473,2.335c2.116,1.105,5.899-0.33,6.506-2.536
			c0.75-2.725-0.741-4.164-3.215-4.968c-1.137-0.37-2.18-1.027-3.265-1.554c0.183-0.366,0.365-0.732,0.548-1.099
			c0.993,0.438,1.955,0.994,2.99,1.267c0.602,0.158,1.376-0.021,1.964-0.289c0.234-0.106,0.352-1.196,0.218-1.268
			c-1.436-0.767-2.888-1.833-4.424-1.999c-1.973-0.211-4.439,0.234-4.315,2.894c0.063,1.357,1.405,2.869,2.544,3.896
			C113.802,226.723,115.298,226.974,116.552,227.492z M59.546,215.084c-1.09,0.99-1.964,1.524-2.462,2.302
			c-0.611,0.951-0.908,2.104-1.4,3.315c-0.858-0.458-1.261-0.74-1.708-0.902c-3.856-1.402-6.955-0.326-8.151,2.811
			c-1.354,3.549,0.152,8.103,3.582,9.013c1.651,0.438,3.904-0.632,5.603-1.544c0.6-0.321,0.361-2.204,0.506-3.374
			c-0.379-0.053-0.758-0.105-1.137-0.158c-0.409,0.583-0.724,1.545-1.247,1.675c-1.215,0.302-3.533,0.529-3.635,0.213
			c-0.544-1.674-0.767-3.551-0.575-5.3c0.051-0.459,1.998-1.053,3.033-0.982c1.675,0.115,3.316,0.729,5.379,1.23
			c0,0.862-0.309,2.531,0.083,4.014c0.436,1.648,1.415,3.194,2.396,4.621c0.185,0.269,1.638-0.031,2.217-0.46
			c0.312-0.23,0.238-1.764-0.049-1.902c-2.878-1.386-2.065-4.322-1.546-5.922C61.361,220.88,60.581,218.585,59.546,215.084z
			 M14.395,223.206c0,1.997-0.307,4.063,0.116,5.966c0.249,1.117,1.549,2.654,2.567,2.818c2.549,0.41,5.216,0.271,7.815,0.072
			c0.718-0.055,1.36-1.089,2.037-1.674c-0.741-0.486-1.434-1.271-2.231-1.396c-1.464-0.229-3.067,0.217-4.461-0.168
			c-1.017-0.28-1.791-1.441-2.672-2.21c0.915-0.756,1.725-1.863,2.773-2.178c1.259-0.378,2.732,0.024,4.09-0.123
			c0.611-0.066,1.166-0.647,1.747-0.994c-0.569-0.498-1.083-1.323-1.719-1.433c-1.711-0.294-3.532-0.067-5.195-0.493
			c-0.748-0.191-1.473-1.381-1.7-2.25c-0.089-0.343,1.157-1.414,1.883-1.515c1.718-0.238,3.5,0.017,5.232-0.159
			c0.64-0.065,1.212-0.783,1.816-1.204c-0.629-0.428-1.209-0.995-1.903-1.239c-0.546-0.191-1.232,0.042-1.855,0.042
			C14.401,215.075,14.401,215.072,14.395,223.206z M366.88,278.826c0.752,0.025,1.504,0.05,2.255,0.076
			c0.208-1.806,0.41-3.611,0.627-5.415c0.202-1.676-0.927-4.233,1.978-4.2c0.622,0.008,1.424,2.786,1.759,4.37
			c0.344,1.631,0.218,3.362,0.298,5.05c0.506,0.055,1.012,0.109,1.518,0.163c0.369-1.14,0.905-2.257,1.067-3.427
			c0.185-1.343-0.238-2.812,0.125-4.074c0.276-0.961,1.369-1.687,2.098-2.517c0.505,0.85,1.329,1.657,1.447,2.558
			c0.24,1.838-0.001,3.734,0.183,5.585c0.055,0.553,0.866,1.029,1.331,1.541c0.497-0.467,1.416-0.927,1.423-1.399
			c0.041-2.723,0.142-5.498-0.321-8.16c-0.406-2.342-2.369-2.886-4.645-2.622c-1.523,0.177-3.106-0.15-4.625,0.042
			c-2.19,0.276-6.065,0.491-6.221,1.304C366.491,271.298,366.88,275.099,366.88,278.826z M398.967,279.016
			c0.478,0.004,0.956,0.01,1.435,0.014c2.259-2.485,0.765-5.585,0.919-8.368c0.168-3.023-2.111-4.69-5.004-4.321
			c-1.495,0.191-3.065,0.193-4.552-0.037c-4.258-0.664-6.827,0.473-6.828,3.343c-0.001,2.355,0.156,4.723,0.448,7.06
			c0.083,0.668,0.882,1.247,1.352,1.867c0.429-0.648,1.146-1.263,1.229-1.953c0.22-1.838-0.039-3.75,0.314-5.549
			c0.154-0.784,1.342-1.365,2.06-2.038c0.497,0.722,1.333,1.404,1.424,2.174c0.215,1.827-0.053,3.711,0.153,5.539
			c0.069,0.606,0.992,1.116,1.524,1.669c0.431-0.525,1.166-1.015,1.231-1.582c0.171-1.474-0.213-3.043,0.12-4.458
			c0.296-1.264,1.255-2.373,1.92-3.55c0.609,1.158,1.538,2.261,1.757,3.489C398.86,274.507,398.824,276.777,398.967,279.016z
			 M347.414,261.91c-7.388-0.216-10.721,5.826-8.219,12.438c2.127,5.621,8.317,6.845,12.088,2.231
			c0.751-0.918,0.524-2.634,0.749-3.982c-0.996,0.553-2.245,0.889-2.938,1.699c-1.77,2.071-4.416,2.464-6.044,0.63
			c-2.106-2.373-2.223-6.306-0.188-8.599c2.427-2.736,4.446-1.764,6.457,0.645c0.377,0.451,1.514,0.269,2.3,0.378
			c0.015-0.779,0.365-1.936-0.014-2.274C350.031,263.67,348.237,262.511,347.414,261.91z M151.856,76.464
			c-0.003,0.609-0.007,1.218-0.011,1.826c-1.417,0.218-3.158,0.005-4.171,0.764c-1.302,0.975-2.021,2.73-2.99,4.149
			c1.5,0.987,2.899,2.516,4.527,2.819c1.891,0.352,3.982-0.373,5.856-0.614c0-2.005,0.003-3.987-0.002-5.968
			c-0.001-0.375,0.079-0.803-0.071-1.114c-0.762-1.583-1.329-4.189-2.45-4.464c-1.898-0.468-4.205,0.4-6.238,1.033
			c-0.516,0.161-0.647,1.553-0.956,2.379c0.82-0.116,1.638-0.244,2.46-0.344C149.159,76.765,150.508,76.619,151.856,76.464z
			 M44.386,224.598c0.072-2.798-2.267-5.251-5.155-5.403c-3.421-0.181-6.004,2.456-6.026,6.153
			c-0.021,3.408,2.981,6.833,6.073,6.928C42.045,232.359,44.272,229.012,44.386,224.598z M166.648,73.232
			c-0.177-0.566-0.222-0.948-0.403-1.246c-0.56-0.919-1.173-1.804-1.766-2.703c-0.442,1.024-1.229,2.037-1.263,3.075
			c-0.113,3.479-0.051,6.973,0.154,10.448c0.06,1.025,0.816,2.009,1.253,3.011c0.567-1.02,1.423-1.984,1.634-3.073
			c0.3-1.551-0.072-3.234,0.243-4.779c0.147-0.721,1.233-1.25,1.894-1.867c0.646,0.741,1.712,1.413,1.85,2.239
			c0.305,1.822-0.017,3.744,0.249,5.577c0.103,0.708,1.106,1.286,1.7,1.923c0.492-0.702,1.302-1.361,1.406-2.117
			c0.183-1.334-0.096-2.727-0.126-4.096C173.346,73.944,172.534,73.143,166.648,73.232z M477.168,272.793
			c0.065-4.114-1.896-6.54-5.388-6.662c-3.831-0.133-5.658,1.795-5.789,6.11c-0.118,3.903,2.102,6.668,5.406,6.733
			C474.344,279.032,477.115,276.063,477.168,272.793z M490.657,273.491c-0.408,3.731,1.975,4.931,4.114,5.3
			c1.511,0.261,4.121-0.628,4.828-1.833c3.294-5.603-2.944-5.469-5.288-7.894c1.283,0.003,2.09,0.583,2.989,0.921
			c0.507,0.191,1.313,0.19,1.711-0.099c0.376-0.273,0.627-1.475,0.534-1.524c-1.525-0.817-3.148-2.145-4.679-2.062
			c-1.438,0.078-3.465,1.412-3.96,2.688c-0.354,0.911,1.149,2.926,2.288,3.915c0.982,0.854,2.619,0.955,3.966,1.39
			c-0.175,0.503-0.348,1.006-0.521,1.509C494.787,275.086,492.935,274.371,490.657,273.491z M365.235,272.607
			c0.089-3.992-1.961-6.306-5.624-6.344c-3.365-0.035-5.558,2.117-5.633,5.53c-0.096,4.329,2.068,7.147,5.626,7.322
			C362.749,279.271,365.147,276.498,365.235,272.607z M414.013,278.046c-1.191-3.846,0.97-8.143-2.145-11.589
			c-0.794,1.127-0.947,2.189-1.016,3.256c-0.071,1.115,0.229,2.354-0.164,3.321c-0.444,1.094-1.479,1.948-2.257,2.907
			c-0.646-0.994-1.599-1.913-1.865-3c-0.349-1.421-0.025-2.995-0.254-4.463c-0.106-0.684-0.831-1.272-1.275-1.902
			c-0.533,0.671-1.473,1.315-1.523,2.022c-0.149,2.103-0.094,4.247,0.146,6.347c0.4,3.512,2.718,4.796,6.078,3.697
			C410.835,278.284,412.055,278.304,414.013,278.046z M90.585,231.615c0.593-0.132,1.185-0.263,1.778-0.395
			c0-3.063,0.301-6.164-0.087-9.176c-0.364-2.824-7.394-4.431-9.462-2.321c-0.306,0.312-0.478,0.89-0.478,1.344
			c0.003,2.984,0.007,5.974,0.178,8.952c0.029,0.505,0.866,0.964,1.329,1.444c0.491-0.483,1.247-0.891,1.41-1.465
			c0.227-0.8-0.16-1.762,0.016-2.591c0.435-2.059-1.175-5.705,2.382-5.565c3.044,0.119,1.647,3.483,1.942,5.529
			C89.799,228.805,90.246,230.202,90.585,231.615z M416.088,278.639c0.387,0.085,0.774,0.17,1.161,0.256
			c0.417-0.88,1.075-1.729,1.196-2.648c0.195-1.469-0.234-3.05,0.108-4.461c0.266-1.096,1.306-2.002,2.002-2.993
			c0.679,0.851,1.731,1.615,1.951,2.572c0.353,1.538-0.021,3.234,0.259,4.802c0.162,0.911,1,1.701,1.533,2.546
			c0.528-0.865,1.471-1.706,1.52-2.598c0.482-8.748-0.14-9.386-8.794-9.635c-0.454-0.013-0.912,0.105-0.937,0.108
			C416.088,270.765,416.088,274.701,416.088,278.639z M478.546,266.26c0,3.61-0.096,6.824,0.074,10.024
			c0.038,0.721,1.007,1.393,1.547,2.088c0.481-0.738,1.275-1.435,1.381-2.223c0.211-1.587-0.21-3.28,0.132-4.818
			c0.21-0.949,1.345-1.692,2.064-2.528c0.715,0.83,1.847,1.567,2.053,2.509c0.366,1.667,0.033,3.476,0.278,5.185
			c0.092,0.645,0.979,1.175,1.502,1.758c0.478-0.619,1.267-1.185,1.385-1.866c1.296-7.503-0.482-9.661-8.037-9.948
			C480.321,266.417,479.719,266.351,478.546,266.26z M159.901,70.2c-0.435-0.143-0.871-0.287-1.306-0.43
			c-0.785,1.81-2.136,3.595-2.219,5.437c-0.117,2.587,0.755,5.211,1.115,7.831c0.41,2.981,1.969,3.732,4.069,2.58
			c-0.454-2.844-2.048-6.127-1.02-7.802C162.551,74.542,160.163,72.676,159.901,70.2z M457.928,261.943
			c-0.893,1.074-1.623,1.64-1.937,2.382c-1.799,4.259,0.798,8.465,0.255,12.728c-0.013,0.098,0.08,0.274,0.167,0.311
			c1.193,0.496,2.394,0.975,3.592,1.457c-0.173-0.998-0.435-1.99-0.503-2.996c-0.185-2.729-0.287-5.465-0.423-8.198
			c0.313-0.006,0.624-0.012,0.936-0.018C459.441,266.051,458.868,264.495,457.928,261.943z M29.851,231.972
			c0.374-0.051,0.747-0.102,1.121-0.152c0.286-0.756,0.815-1.513,0.816-2.269c0.007-4.089-0.049-8.181-0.256-12.262
			c-0.038-0.742-0.878-1.442-1.348-2.162c-0.511,0.814-1.434,1.613-1.464,2.446c-0.135,3.716-0.097,7.444,0.062,11.161
			C28.829,229.826,29.478,230.893,29.851,231.972z M97.529,225.754c-0.012,0-0.024,0-0.037,0c0-1.614,0.138-3.247-0.069-4.834
			c-0.082-0.63-0.931-1.16-1.431-1.734c-0.455,0.624-1.255,1.224-1.303,1.878c-0.181,2.47-0.251,4.967-0.077,7.434
			c0.065,0.924,0.912,1.792,1.402,2.686c0.504-0.941,1.162-1.836,1.465-2.838C97.721,227.549,97.529,226.622,97.529,225.754z
			 M428.468,278.577c0.63,0.003,1.261,0.004,1.891,0.006c0-3.772,0.034-7.547-0.065-11.318c-0.009-0.299-0.936-0.735-1.472-0.799
			c-0.326-0.038-1.046,0.529-1.037,0.808C427.896,271.05,426.717,274.977,428.468,278.577z M463.795,278.634
			c1.597-4.876,0.909-10.952-1.232-12.201C460.913,271.131,461.39,276.81,463.795,278.634z"/>
		<path fill-rule="evenodd" clip-rule="evenodd" d="M301.913,263.369c-11.403-0.638-22.383-2.521-32.563-7.686
			c-3.182-1.613-5.599-1.415-8.552,0.572c-19.498,13.121-40.953,15.766-63.416,10.602c-16.313-3.749-30.312-12.254-40.877-25.165
			c-21.043-25.717-25.995-54.39-13.208-85.459c5.206-12.649,13.255-23.289,24.518-31.298c3.03-2.154,6.156-4.185,9.082-6.471
			c0.764-0.597,1.479-2.044,1.311-2.928c-2.959-15.604-1.61-30.803,4.169-45.571c4.242-10.841,10.907-20.01,19.377-28.001
			c14.831-13.992,32.771-20.431,52.704-20.321c12.296,0.067,24.184,3.228,35.373,9.391c11.253,6.197,20.326,14.453,27.469,24.747
			c6.704,9.662,11.673,20.398,12.7,32.311c0.659,7.638,0.236,15.378,0.109,23.068c-0.031,1.896,0.34,2.898,2.192,3.674
			c27.863,11.658,46.685,41.541,45.907,71.833c-0.645,25.127-10.575,45.49-30.579,60.819c-9.111,6.981-19.134,11.968-30.62,13.647
			C311.977,261.869,306.945,262.624,301.913,263.369z M326.883,112.288c5.002-24.166-4.715-59.088-36.48-77.547
			c-25.66-14.911-61.078-15.103-89.143,11.822c-16.336,15.673-27.531,53.732-19.352,69.134c0.442-0.167,0.905-0.32,1.352-0.511
			c9.59-4.094,19.534-6.591,30.006-6.912c15.578-0.478,30.072,3.209,43.606,10.907c0.838,0.477,2.36,0.363,3.304-0.058
			c5.767-2.574,11.228-6.11,17.219-7.852C293.808,106.501,310.336,106.652,326.883,112.288z M261.293,251.604
			c-0.293-0.213-0.576-0.455-0.891-0.641c-9.485-5.607-17.171-13.224-23.189-22.3c-10.938-16.5-15.279-34.717-12.5-54.437
			c0.273-1.941,0.073-3.024-1.888-3.71c-8.738-3.052-16.037-8.448-22.488-14.859c-6.262-6.222-11.874-13.043-15.31-21.378
			c-1.824-4.427-3.866-8.763-5.813-13.146c-21.958,11.376-41.826,38.255-39.5,72.845c1.87,27.795,21.929,63.512,64.81,71.271
			C223.778,268.733,252.045,261.237,261.293,251.604z M267.303,251.813c25.253,11.242,49.534,11.156,72.899-2.847
			c26.294-15.758,39.574-46.145,33.769-77.118c-4.86-25.938-20.483-43.681-43.727-55.028c-2.684,6.735-4.783,13.123-7.706,19.108
			c-5.903,12.09-14.665,21.82-26.096,28.976c-2.048,1.282-2.778,2.42-2.135,4.739c2.701,9.737,3.279,19.644,2.003,29.652
			c-1.192,9.34-3.788,18.255-8.126,26.65C283.111,235.761,276.439,244.299,267.303,251.813z M227.42,172.615
			c0,7.311-0.582,13.9,0.104,20.354c2.581,24.323,14.964,42.755,35.098,56.18c0.836,0.557,3.042,0.237,3.825-0.503
			c3.591-3.403,7.155-6.896,10.269-10.73c12.287-15.14,17.822-32.628,17.057-52.027c-0.227-5.741-1.424-11.443-2.263-17.821
			C270.464,178.813,249.633,180.445,227.42,172.615z M182.122,119.219c7.199,23.014,21.098,39.567,43.516,49.584
			c4.262-19.254,14.093-34.641,30.168-46.588C231.318,108.707,207.262,107.674,182.122,119.219z M227.633,169.914
			c22.209,6.758,42.442,6.008,62.019-4.386c-0.067-1.018-0.069-1.766-0.182-2.496c-0.074-0.482-0.284-0.949-0.474-1.406
			c-5.943-14.31-14.759-26.379-27.317-35.666c-2.288-1.691-3.848-1.56-5.851,0.068c-8.59,6.985-16.012,14.988-20.73,25.091
			C232.338,157.03,230.25,163.256,227.633,169.914z M260.648,121.789c16.05,10.869,26.171,24.893,32.405,42.659
			c5.102-4.448,9.716-8.17,13.982-12.253c9.778-9.356,15.536-21.06,19.133-33.935c0.476-1.703,0.358-3.212-1.884-3.68
			c-4.729-0.986-9.409-2.25-14.167-3.055c-10.779-1.826-21.387-0.465-31.667,2.854C272.669,116.244,267.184,119.03,260.648,121.789z
			"/>
		<path fill-rule="evenodd" clip-rule="evenodd" d="M443.988,268.86c1.226-3.199,4.199-3.114,6.994-2.351
			c2.81,0.769,2.293,3.408,2.338,5.66c0.04,1.951,0.366,3.897,0.623,6.395c-3.963-1.698-8.45,2.978-11.057-2.504
			c-4.056,3.191-7.174,3.434-9.513,0.996c-1.907-1.986-2.104-6.857-0.231-9.099c2.006-2.397,4.69-2.281,7.127-1.068
			c0.883,0.438,1.094,2.228,1.512,3.177c-2.564-0.296-4.602-1.112-5.938-0.471c-0.823,0.396-0.71,3.014-0.737,4.639
			c-0.009,0.535,1.067,1.629,1.294,1.543c2.472-0.941,5.007-1.858,7.21-3.271C444.252,272.093,443.891,270.119,443.988,268.86z"/>
		<path fill-rule="evenodd" clip-rule="evenodd" d="M139.043,77.618c-0.559,1.981-0.944,4.038-1.75,5.913
			c-0.411,0.955-1.579,1.585-2.405,2.362c-0.697-0.783-1.646-1.458-2.038-2.372c-0.766-1.784-1.22-3.702-1.803-5.564
			c-0.308,0.022-0.616,0.044-0.924,0.066c0,1.943,0.121,3.898-0.059,5.824c-0.072,0.776-0.804,1.49-1.235,2.233
			c-0.625-0.734-1.746-1.44-1.788-2.207c-0.212-3.856-0.256-7.732-0.087-11.59c0.039-0.896,1.053-2.354,1.778-2.46
			c0.905-0.131,2.421,0.62,2.876,1.435c0.828,1.484,1.025,3.31,1.568,4.966c0.439,1.341,0.998,2.643,1.503,3.961
			c0.322-0.005,0.643-0.009,0.965-0.015c0.728-2.548,1.241-5.19,2.275-7.608c0.519-1.214,1.984-2.023,3.022-3.016
			c0.622,1.229,1.658,2.418,1.785,3.696c0.319,3.21,0.349,6.465,0.227,9.692c-0.039,1.009-0.933,1.987-1.435,2.978
			c-0.478-0.972-1.231-1.905-1.37-2.923c-0.229-1.681-0.062-3.416-0.062-5.128C139.738,77.782,139.391,77.7,139.043,77.618z"/>
		<path fill-rule="evenodd" clip-rule="evenodd" d="M116.552,227.492c-1.254-0.519-2.75-0.77-3.7-1.626
			c-1.139-1.026-2.481-2.538-2.544-3.896c-0.124-2.659,2.343-3.104,4.315-2.894c1.536,0.166,2.988,1.232,4.424,1.999
			c0.134,0.071,0.016,1.161-0.218,1.268c-0.588,0.268-1.362,0.447-1.964,0.289c-1.036-0.272-1.998-0.829-2.99-1.267
			c-0.183,0.366-0.365,0.732-0.548,1.099c1.085,0.526,2.128,1.184,3.265,1.554c2.474,0.804,3.965,2.243,3.215,4.968
			c-0.607,2.206-4.39,3.642-6.506,2.536c-1.2-0.628-2.266-1.512-3.473-2.335c-1.133,0.687-2.298,1.646-3.634,2.146
			c-2.624,0.984-4.876,0.278-6.467-2.118c-1.518-2.289-1.411-7.479,0.755-8.593c1.934-0.996,4.559-0.87,6.859-0.774
			c0.57,0.023,1.064,1.848,1.594,2.844c-0.981-0.161-1.958-0.426-2.943-0.459c-1.195-0.039-3.428,0.045-3.438,0.198
			c-0.137,1.977,0.042,3.976,0.141,5.969c1.209-0.18,2.759,0.051,3.565-0.616c2.496-2.069,4.65-1.674,7.049,0.047
			c0.771,0.553,1.908,0.596,2.877,0.871C116.309,228.299,116.43,227.896,116.552,227.492z"/>
		<path fill-rule="evenodd" clip-rule="evenodd" d="M59.546,215.084c1.035,3.501,1.815,5.796,0.889,8.648
			c-0.519,1.6-1.333,4.536,1.546,5.922c0.288,0.139,0.361,1.672,0.049,1.902c-0.579,0.429-2.033,0.729-2.217,0.46
			c-0.981-1.427-1.96-2.973-2.396-4.621c-0.392-1.482-0.083-3.151-0.083-4.014c-2.063-0.502-3.704-1.115-5.379-1.23
			c-1.035-0.07-2.982,0.523-3.033,0.982c-0.192,1.749,0.031,3.626,0.575,5.3c0.103,0.316,2.42,0.089,3.635-0.213
			c0.522-0.13,0.837-1.092,1.247-1.675c0.379,0.053,0.758,0.105,1.137,0.158c-0.145,1.17,0.094,3.053-0.506,3.374
			c-1.699,0.912-3.952,1.981-5.603,1.544c-3.43-0.91-4.935-5.464-3.582-9.013c1.196-3.137,4.294-4.213,8.151-2.811
			c0.447,0.162,0.85,0.444,1.708,0.902c0.492-1.212,0.789-2.364,1.4-3.315C57.582,216.608,58.456,216.074,59.546,215.084z"/>
		<path fill-rule="evenodd" clip-rule="evenodd" d="M14.395,223.206c0.006-8.134,0.006-8.131,8.339-8.137
			c0.624,0,1.31-0.233,1.855-0.042c0.694,0.244,1.274,0.812,1.903,1.239c-0.604,0.421-1.177,1.139-1.816,1.204
			c-1.732,0.176-3.514-0.079-5.232,0.159c-0.727,0.101-1.973,1.172-1.883,1.515c0.227,0.869,0.952,2.059,1.7,2.25
			c1.663,0.426,3.484,0.199,5.195,0.493c0.636,0.109,1.149,0.935,1.719,1.433c-0.581,0.347-1.136,0.928-1.747,0.994
			c-1.358,0.147-2.831-0.255-4.09,0.123c-1.048,0.314-1.858,1.422-2.773,2.178c0.882,0.769,1.656,1.93,2.672,2.21
			c1.394,0.385,2.997-0.061,4.461,0.168c0.797,0.125,1.491,0.909,2.231,1.396c-0.677,0.585-1.319,1.619-2.037,1.674
			c-2.599,0.198-5.266,0.338-7.815-0.072c-1.018-0.164-2.318-1.701-2.567-2.818C14.088,227.269,14.395,225.203,14.395,223.206z"/>
		<path fill-rule="evenodd" clip-rule="evenodd" d="M366.88,278.826c0-3.728-0.389-7.528,0.296-11.126
			c0.155-0.813,4.03-1.027,6.221-1.304c1.519-0.192,3.102,0.135,4.625-0.042c2.275-0.264,4.238,0.28,4.645,2.622
			c0.463,2.662,0.362,5.438,0.321,8.16c-0.007,0.473-0.926,0.933-1.423,1.399c-0.465-0.512-1.276-0.988-1.331-1.541
			c-0.184-1.851,0.058-3.747-0.183-5.585c-0.118-0.9-0.942-1.708-1.447-2.558c-0.729,0.83-1.821,1.556-2.098,2.517
			c-0.363,1.263,0.06,2.731-0.125,4.074c-0.162,1.17-0.698,2.287-1.067,3.427c-0.506-0.054-1.012-0.108-1.518-0.163
			c-0.08-1.688,0.046-3.419-0.298-5.05c-0.335-1.584-1.137-4.362-1.759-4.37c-2.904-0.033-1.775,2.524-1.978,4.2
			c-0.217,1.804-0.419,3.609-0.627,5.415C368.384,278.876,367.632,278.852,366.88,278.826z"/>
		<path fill-rule="evenodd" clip-rule="evenodd" d="M398.967,279.016c-0.143-2.238-0.106-4.509-0.498-6.702
			c-0.219-1.229-1.147-2.331-1.757-3.489c-0.665,1.177-1.624,2.286-1.92,3.55c-0.333,1.415,0.051,2.984-0.12,4.458
			c-0.065,0.567-0.801,1.057-1.231,1.582c-0.532-0.553-1.455-1.063-1.524-1.669c-0.206-1.828,0.062-3.712-0.153-5.539
			c-0.091-0.77-0.927-1.452-1.424-2.174c-0.718,0.673-1.905,1.254-2.06,2.038c-0.354,1.799-0.095,3.711-0.314,5.549
			c-0.082,0.69-0.8,1.305-1.229,1.953c-0.47-0.62-1.269-1.199-1.352-1.867c-0.292-2.337-0.449-4.704-0.448-7.06
			c0.001-2.87,2.57-4.007,6.828-3.343c1.486,0.23,3.057,0.229,4.552,0.037c2.893-0.369,5.172,1.298,5.004,4.321
			c-0.154,2.783,1.34,5.883-0.919,8.368C399.923,279.025,399.444,279.02,398.967,279.016z"/>
		<path fill-rule="evenodd" clip-rule="evenodd" d="M347.414,261.91c0.823,0.601,2.617,1.76,4.191,3.165
			c0.379,0.339,0.028,1.495,0.014,2.274c-0.786-0.109-1.923,0.073-2.3-0.378c-2.011-2.408-4.03-3.381-6.457-0.645
			c-2.035,2.293-1.919,6.226,0.188,8.599c1.628,1.834,4.274,1.441,6.044-0.63c0.693-0.811,1.942-1.146,2.938-1.699
			c-0.225,1.349,0.002,3.064-0.749,3.982c-3.771,4.613-9.961,3.39-12.088-2.231C336.693,267.736,340.026,261.694,347.414,261.91z"/>
		<path fill-rule="evenodd" clip-rule="evenodd" d="M151.856,76.464c-1.349,0.155-2.698,0.3-4.045,0.465
			c-0.822,0.101-1.64,0.229-2.46,0.344c0.308-0.826,0.44-2.219,0.956-2.379c2.033-0.633,4.34-1.501,6.238-1.033
			c1.121,0.275,1.688,2.881,2.45,4.464c0.15,0.311,0.07,0.739,0.071,1.114c0.005,1.981,0.002,3.963,0.002,5.968
			c-1.874,0.241-3.965,0.966-5.856,0.614c-1.627-0.303-3.027-1.832-4.527-2.819c0.969-1.419,1.688-3.174,2.99-4.149
			c1.013-0.759,2.753-0.546,4.171-0.764C151.849,77.682,151.853,77.073,151.856,76.464z"/>
		<path fill-rule="evenodd" clip-rule="evenodd" d="M44.386,224.598c-0.114,4.414-2.341,7.762-5.108,7.678
			c-3.092-0.095-6.094-3.52-6.073-6.928c0.022-3.697,2.605-6.334,6.026-6.153C42.12,219.347,44.458,221.8,44.386,224.598z
			 M36.216,226.34c2.275,3.656,3.956,3.468,6.006-0.314C40.253,226.129,38.53,226.219,36.216,226.34z"/>
		<path fill-rule="evenodd" clip-rule="evenodd" d="M166.648,73.232c5.886-0.09,6.698,0.711,6.825,6.392
			c0.03,1.369,0.309,2.762,0.126,4.096c-0.104,0.755-0.914,1.415-1.406,2.117c-0.593-0.637-1.597-1.215-1.7-1.923
			c-0.266-1.833,0.056-3.755-0.249-5.577c-0.138-0.826-1.205-1.498-1.85-2.239c-0.661,0.617-1.747,1.146-1.894,1.867
			c-0.315,1.545,0.057,3.229-0.243,4.779c-0.211,1.088-1.067,2.053-1.634,3.073c-0.437-1.002-1.193-1.986-1.253-3.011
			c-0.205-3.475-0.267-6.968-0.154-10.448c0.034-1.038,0.821-2.05,1.263-3.075c0.593,0.898,1.206,1.784,1.766,2.703
			C166.427,72.284,166.472,72.667,166.648,73.232z"/>
		<path fill-rule="evenodd" clip-rule="evenodd" d="M69.706,221.274c0.533-0.314,1.042-0.844,1.603-0.904
			c2.31-0.247,5.211-1.261,6.793-0.256c1.6,1.015,2.413,4.028,2.64,6.26c0.303,2.98-2.071,4.663-4.625,5.598
			c-2.315,0.848-5.521-1.274-6.057-4.131c-0.405-2.161-0.21-4.435-0.282-6.658L69.706,221.274z M71.439,225.033
			c1.627,1.673,2.653,2.727,3.679,3.78c0.892-1.075,2.554-2.203,2.486-3.214c-0.092-1.382-1.501-2.677-2.346-4.009
			C74.229,222.519,73.199,223.447,71.439,225.033z"/>
		<path fill-rule="evenodd" clip-rule="evenodd" d="M477.168,272.793c-0.053,3.271-2.824,6.239-5.771,6.182
			c-3.305-0.065-5.524-2.83-5.406-6.733c0.131-4.315,1.958-6.243,5.789-6.11C475.271,266.253,477.233,268.679,477.168,272.793z
			 M467.662,272.508c1.718,1.449,2.876,2.427,4.036,3.404c0.81-1.344,2.213-2.679,2.235-4.036c0.017-1.033-1.721-2.096-2.678-3.145
			C470.261,269.776,469.267,270.821,467.662,272.508z"/>
		<path fill-rule="evenodd" clip-rule="evenodd" d="M490.657,273.491c2.277,0.88,4.13,1.595,5.982,2.311
			c0.174-0.503,0.347-1.006,0.521-1.509c-1.347-0.435-2.983-0.536-3.966-1.39c-1.139-0.989-2.643-3.004-2.288-3.915
			c0.495-1.275,2.521-2.609,3.96-2.688c1.53-0.083,3.153,1.244,4.679,2.062c0.093,0.05-0.158,1.251-0.534,1.524
			c-0.398,0.289-1.204,0.29-1.711,0.099c-0.899-0.338-1.706-0.918-2.989-0.921c2.344,2.425,8.582,2.291,5.288,7.894
			c-0.707,1.205-3.317,2.094-4.828,1.833C492.632,278.422,490.249,277.223,490.657,273.491z"/>
		<path fill-rule="evenodd" clip-rule="evenodd" d="M365.235,272.607c-0.088,3.891-2.486,6.664-5.631,6.509
			c-3.558-0.175-5.722-2.993-5.626-7.322c0.075-3.413,2.268-5.565,5.633-5.53C363.274,266.302,365.324,268.615,365.235,272.607z
			 M363.51,272.552c-1.774-1.548-2.912-2.54-4.051-3.533c-0.842,1.143-2.435,2.356-2.335,3.409c0.119,1.264,1.683,2.39,2.62,3.575
			C360.769,275.065,361.792,274.126,363.51,272.552z"/>
		<path fill-rule="evenodd" clip-rule="evenodd" d="M414.013,278.046c-1.958,0.258-3.178,0.238-4.275,0.597
			c-3.36,1.099-5.678-0.186-6.078-3.697c-0.239-2.1-0.295-4.244-0.146-6.347c0.051-0.707,0.99-1.352,1.523-2.022
			c0.444,0.63,1.169,1.219,1.275,1.902c0.229,1.468-0.095,3.042,0.254,4.463c0.267,1.087,1.219,2.006,1.865,3
			c0.778-0.959,1.813-1.813,2.257-2.907c0.393-0.968,0.093-2.206,0.164-3.321c0.068-1.066,0.222-2.129,1.016-3.256
			C414.982,269.903,412.821,274.2,414.013,278.046z"/>
		<path fill-rule="evenodd" clip-rule="evenodd" d="M90.585,231.615c-0.339-1.413-0.786-2.811-0.993-4.243
			c-0.294-2.046,1.102-5.41-1.942-5.529c-3.557-0.14-1.947,3.507-2.382,5.565c-0.176,0.829,0.211,1.791-0.016,2.591
			c-0.163,0.574-0.919,0.981-1.41,1.465c-0.463-0.48-1.3-0.939-1.329-1.444c-0.171-2.979-0.175-5.968-0.178-8.952
			c0-0.454,0.172-1.032,0.478-1.344c2.068-2.109,9.099-0.503,9.462,2.321c0.388,3.012,0.087,6.113,0.087,9.176
			C91.77,231.353,91.178,231.483,90.585,231.615z"/>
		<path fill-rule="evenodd" clip-rule="evenodd" d="M416.088,278.639c0-3.938,0-7.874,0-12.051c0.024-0.003,0.482-0.121,0.937-0.108
			c8.654,0.249,9.276,0.887,8.794,9.635c-0.049,0.892-0.991,1.732-1.52,2.598c-0.533-0.845-1.371-1.635-1.533-2.546
			c-0.279-1.567,0.094-3.264-0.259-4.802c-0.22-0.957-1.272-1.722-1.951-2.572c-0.696,0.991-1.736,1.897-2.002,2.993
			c-0.343,1.411,0.087,2.992-0.108,4.461c-0.121,0.92-0.779,1.769-1.196,2.648C416.862,278.809,416.475,278.724,416.088,278.639z"/>
		<path fill-rule="evenodd" clip-rule="evenodd" d="M478.546,266.26c1.173,0.091,1.775,0.157,2.379,0.18
			c7.555,0.287,9.333,2.445,8.037,9.948c-0.118,0.682-0.907,1.247-1.385,1.866c-0.523-0.583-1.41-1.113-1.502-1.758
			c-0.245-1.709,0.088-3.518-0.278-5.185c-0.206-0.941-1.338-1.679-2.053-2.509c-0.72,0.836-1.854,1.579-2.064,2.528
			c-0.342,1.538,0.079,3.231-0.132,4.818c-0.105,0.788-0.899,1.484-1.381,2.223c-0.54-0.695-1.509-1.367-1.547-2.088
			C478.45,273.084,478.546,269.87,478.546,266.26z"/>
		<path fill-rule="evenodd" clip-rule="evenodd" d="M159.901,70.2c0.261,2.476,2.649,4.342,0.639,7.616
			c-1.028,1.675,0.566,4.958,1.02,7.802c-2.1,1.152-3.659,0.401-4.069-2.58c-0.36-2.62-1.232-5.244-1.115-7.831
			c0.083-1.842,1.434-3.626,2.219-5.437C159.031,69.914,159.466,70.057,159.901,70.2z"/>
		<path fill-rule="evenodd" clip-rule="evenodd" d="M457.928,261.943c0.94,2.552,1.514,4.107,2.087,5.665
			c-0.312,0.006-0.623,0.012-0.936,0.018c0.136,2.733,0.238,5.469,0.423,8.198c0.068,1.006,0.33,1.998,0.503,2.996
			c-1.198-0.482-2.398-0.961-3.592-1.457c-0.087-0.036-0.18-0.213-0.167-0.311c0.543-4.263-2.054-8.469-0.255-12.728
			C456.305,263.583,457.035,263.018,457.928,261.943z"/>
		<path fill-rule="evenodd" clip-rule="evenodd" d="M29.851,231.972c-0.373-1.079-1.021-2.146-1.068-3.237
			c-0.159-3.717-0.197-7.445-0.062-11.161c0.03-0.833,0.953-1.632,1.464-2.446c0.47,0.72,1.31,1.42,1.348,2.162
			c0.207,4.081,0.264,8.173,0.256,12.262c-0.001,0.756-0.531,1.513-0.816,2.269C30.598,231.87,30.224,231.921,29.851,231.972z"/>
		<path fill-rule="evenodd" clip-rule="evenodd" d="M69.778,221.183c-3.308,0.606-4.295,2.665-3.733,5.8
			c0.173,0.967,0.337,2.085,0.01,2.946c-0.284,0.748-1.267,1.231-1.941,1.832c-0.419-0.67-1.172-1.327-1.2-2.014
			c-0.129-3.21-0.057-6.429-0.057-9.552c5.613-1.658,6.071-1.576,6.849,1.08C69.706,221.274,69.778,221.183,69.778,221.183z"/>
		<path fill-rule="evenodd" clip-rule="evenodd" d="M97.529,225.754c0,0.868,0.192,1.795-0.048,2.591
			c-0.303,1.002-0.96,1.896-1.465,2.838c-0.49-0.894-1.337-1.762-1.402-2.686c-0.174-2.467-0.104-4.964,0.077-7.434
			c0.048-0.654,0.848-1.254,1.303-1.878c0.5,0.574,1.349,1.104,1.431,1.734c0.207,1.587,0.069,3.22,0.069,4.834
			C97.504,225.754,97.517,225.754,97.529,225.754z"/>
		<path fill-rule="evenodd" clip-rule="evenodd" d="M428.468,278.577c-1.751-3.601-0.572-7.527-0.684-11.304
			c-0.009-0.278,0.711-0.846,1.037-0.808c0.536,0.063,1.463,0.5,1.472,0.799c0.1,3.771,0.065,7.546,0.065,11.318
			C429.729,278.581,429.098,278.58,428.468,278.577z"/>
		<path fill-rule="evenodd" clip-rule="evenodd" d="M463.795,278.634c-2.405-1.824-2.882-7.503-1.232-12.201
			C464.704,267.682,465.392,273.758,463.795,278.634z"/>
		<path fill-rule="evenodd" clip-rule="evenodd" fill="#FFFFFF" d="M326.883,112.288c-16.547-5.636-33.075-5.787-49.487-1.016
			c-5.991,1.741-11.452,5.277-17.219,7.852c-0.944,0.421-2.466,0.535-3.304,0.058c-13.535-7.697-28.029-11.384-43.606-10.907
			c-10.472,0.321-20.416,2.817-30.006,6.912c-0.447,0.191-0.91,0.345-1.352,0.511c-8.179-15.402,3.016-53.461,19.352-69.134
			c28.064-26.925,63.482-26.733,89.143-11.822C322.168,53.2,331.885,88.122,326.883,112.288z M246.874,73.951
			c-0.087-0.317-0.174-0.635-0.26-0.953c1.164-0.289,2.356-0.497,3.483-0.891c0.921-0.324,1.763-0.871,2.641-1.319
			c-0.911-0.658-1.75-1.731-2.744-1.904c-4.471-0.775-5.718,0.347-7.086,6.306c-0.246,1.069,0.212,2.3,0.346,3.456
			c0.997-0.29,1.981-0.746,2.995-0.826c1.163-0.091,2.352,0.152,3.53,0.249c-0.232,1.571-0.465,3.141-0.697,4.712
			c-1.124-0.375-2.242-0.765-3.372-1.12c-0.971-0.304-1.954-0.568-2.931-0.85c0.174,1.12,0.059,3.032,0.573,3.221
			c2.198,0.803,4.808,1.89,6.824,1.315c1.516-0.432,3.073-3.128,3.353-5.004C254.149,76.19,252.225,74.631,246.874,73.951z"/>
		<path fill-rule="evenodd" clip-rule="evenodd" fill="#FFFFFF" d="M261.293,251.604c-9.248,9.633-37.516,17.129-56.769,13.645
			c-42.881-7.759-62.94-43.476-64.81-71.271c-2.326-34.59,17.542-61.469,39.5-72.845c1.946,4.383,3.988,8.719,5.813,13.146
			c3.437,8.335,9.048,15.157,15.31,21.378c6.451,6.411,13.75,11.808,22.488,14.859c1.961,0.686,2.162,1.769,1.888,3.71
			c-2.778,19.72,1.562,37.937,12.5,54.437c6.018,9.076,13.704,16.692,23.189,22.3C260.718,251.149,261,251.392,261.293,251.604z
			 M173.301,207.938c1.052,1.378,1.845,3.492,3.071,3.783c2.084,0.494,4.772,0.446,6.569-0.538c1.246-0.682,2.088-3.391,1.904-5.061
			c-0.219-1.989-1.71-3.657-0.818-6.086c0.354-0.966-1.044-3.563-2.069-3.837c-1.967-0.528-4.337-0.249-6.327,0.375
			c-0.704,0.221-0.787,2.423-1.153,3.72c0.977-0.326,1.933-0.768,2.937-0.948c0.995-0.179,2.038-0.097,3.059-0.129
			c-0.364,0.93-0.601,1.942-1.132,2.765c-0.408,0.633-1.186,1.027-1.383,1.188c1.386,1.652,3.792,3.64,3.475,4.281
			C179.134,212.102,176.912,205.646,173.301,207.938z"/>
		<path fill-rule="evenodd" clip-rule="evenodd" fill="#FFFFFF" d="M267.303,251.813c9.137-7.514,15.809-16.052,20.882-25.867
			c4.338-8.396,6.934-17.311,8.126-26.65c1.276-10.009,0.698-19.915-2.003-29.652c-0.644-2.319,0.087-3.457,2.135-4.739
			c11.431-7.156,20.192-16.886,26.096-28.976c2.923-5.985,5.022-12.373,7.706-19.108c23.243,11.348,38.866,29.09,43.727,55.028
			c5.806,30.974-7.475,61.36-33.769,77.118C316.837,262.969,292.556,263.055,267.303,251.813z M342.743,204.067
			c-0.437-0.167-0.874-0.335-1.312-0.502c0-2.575,0.168-5.163-0.046-7.72c-0.228-2.729-2.775-4.441-5.696-3.951
			c-2.833,0.476-4.306,2.094-4.122,5.167c0.096,1.593-0.545,3.237-0.396,4.815c0.188,1.983,0.228,4.824,1.45,5.659
			c1.636,1.117,4.518,1.268,6.533,0.686C340.628,207.796,341.566,205.52,342.743,204.067z"/>
		<path fill-rule="evenodd" clip-rule="evenodd" fill="#FFFFFF" d="M227.42,172.615c22.213,7.83,43.044,6.197,64.09-4.548
			c0.839,6.378,2.036,12.08,2.263,17.821c0.766,19.399-4.77,36.888-17.057,52.027c-3.113,3.835-6.678,7.327-10.269,10.73
			c-0.782,0.74-2.988,1.06-3.825,0.503c-20.134-13.425-32.517-31.856-35.098-56.18C226.838,186.516,227.42,179.926,227.42,172.615z
			 M259.708,203.412c0.002-0.216,0.005-0.432,0.008-0.647c0.641-0.168,1.273-0.408,1.925-0.485c0.74-0.089,1.572,0.162,2.226-0.091
			c0.692-0.268,1.222-0.954,1.824-1.457c-0.61-0.608-1.138-1.61-1.846-1.763c-5.342-1.147-6.617-0.221-7.818,5.645
			c-0.204,0.998,0.149,2.111,0.246,3.17c0.927-0.121,1.86-0.376,2.779-0.332c1.336,0.064,3.428-0.07,3.81,0.632
			c0.54,0.995-0.186,2.677-0.371,4.064c-1.304-0.293-2.609-0.58-3.912-0.881c-0.863-0.2-1.721-0.421-2.581-0.632
			c0.103,0.975-0.111,2.16,0.369,2.885c1.554,2.345,3.856,3.238,6.503,2.022c2.777-1.277,4.047-3.547,3.667-6.692
			c-0.337-2.797-1.422-4.754-4.591-4.878C261.195,203.941,260.454,203.606,259.708,203.412z M251.3,199.013
			c-0.497-0.222-0.995-0.443-1.493-0.666c-1.938,1.853-3.876,3.705-5.814,5.557c0.217,0.284,0.434,0.567,0.649,0.852
			c1.06,0,2.118,0,3.512,0c0,2.973-0.103,5.813,0.071,8.636c0.044,0.72,0.966,1.386,1.485,2.075c0.53-0.579,1.504-1.147,1.519-1.74
			C251.354,208.823,251.3,203.918,251.3,199.013z"/>
		<path fill-rule="evenodd" clip-rule="evenodd" fill="#FFFFFF" d="M182.122,119.219c25.14-11.545,49.196-10.513,73.684,2.997
			c-16.075,11.947-25.907,27.334-30.168,46.588C203.219,158.786,189.32,142.233,182.122,119.219z M208.733,139.794
			c-0.315-0.46-0.63-0.92-0.945-1.38c1.395-1.023,2.874-1.952,4.168-3.091c2.452-2.158,2.527-4.818,0.817-7.355
			c-1.439-2.136-5.722-2.556-7.779-0.694c-0.908,0.821-1.029,2.51-1.508,3.805c1.089-0.283,2.171-0.599,3.27-0.837
			c1.08-0.234,2.176-0.388,3.265-0.578c-0.002,1.124,0.325,2.397-0.096,3.332c-0.474,1.053-1.635,1.791-2.478,2.685
			c-1.264,1.343-2.708,2.57-3.712,4.086c-1.268,1.917-0.739,3.387,1.8,3.466c2.36,0.075,4.734,0.093,7.084-0.083
			c0.673-0.051,1.29-0.865,1.932-1.329c-0.601-0.676-1.1-1.752-1.826-1.938C211.469,139.563,210.072,139.794,208.733,139.794z
			 M221.447,138.6c1.15-1.467,2.767-3.182,3.966-5.152c1.38-2.266,1.283-5.125-1.171-6.124c-2.098-0.854-4.9-0.321-7.286,0.139
			c-0.533,0.104-0.628,2.472-0.925,3.797c0.955-0.427,1.886-0.924,2.872-1.261c0.954-0.325,2.302-0.975,2.86-0.59
			c0.637,0.44,1.119,2.19,0.743,2.8c-0.937,1.519-2.548,2.605-3.613,4.065c-1.342,1.839-2.411,3.879-3.597,5.832
			c1.853,0.372,3.733,1.133,5.552,1.009c1.955-0.135,3.852-1.102,5.774-1.706C224.987,140.521,223.353,139.634,221.447,138.6z"/>
		<path fill-rule="evenodd" clip-rule="evenodd" fill="#FFFFFF" d="M227.633,169.914c2.617-6.658,4.705-12.884,7.466-18.795
			c4.718-10.103,12.14-18.106,20.73-25.091c2.002-1.628,3.563-1.759,5.851-0.068c12.559,9.286,21.374,21.356,27.317,35.666
			c0.189,0.457,0.399,0.924,0.474,1.406c0.112,0.73,0.114,1.479,0.182,2.496C270.075,175.922,249.843,176.672,227.633,169.914z
			 M252.88,157.191c-0.135,5.182,1.417,8.269,4.426,8.796c3.958,0.693,6.239-1.054,6.863-5.255
			c0.997-6.716-0.844-11.396-4.676-11.861c-0.362-0.044-0.74,0.029-1.11,0.06C254.671,149.23,253.024,151.705,252.88,157.191z
			 M245.967,155.384c0,3.128-0.085,5.971,0.071,8.801c0.031,0.583,0.965,1.115,1.482,1.672c0.518-0.575,1.47-1.14,1.483-1.728
			c0.121-4.899,0.069-9.803,0.069-14.705c-0.476-0.227-0.952-0.454-1.428-0.681c-2.05,1.959-4.099,3.918-6.149,5.877
			c0.251,0.354,0.502,0.709,0.752,1.063C243.26,155.601,244.271,155.52,245.967,155.384z"/>
		<path fill-rule="evenodd" clip-rule="evenodd" fill="#FFFFFF" d="M260.648,121.789c6.535-2.758,12.021-5.544,17.803-7.411
			c10.28-3.319,20.888-4.68,31.667-2.854c4.758,0.806,9.438,2.069,14.167,3.055c2.242,0.468,2.359,1.977,1.884,3.68
			c-3.597,12.875-9.354,24.579-19.133,33.935c-4.267,4.083-8.881,7.805-13.982,12.253
			C286.819,146.681,276.698,132.657,260.648,121.789z M300.477,143.812c4.549,0.037,7.018-3.952,5.039-7.928
			c-0.442-0.887-0.104-2.131-0.316-3.172c-0.346-1.696-0.376-4.331-1.389-4.823c-1.76-0.856-4.405-0.967-6.212-0.236
			c-1.04,0.421-1.265,3.084-1.664,4.784c-0.274,1.164,0.03,2.492-0.354,3.597C294.269,139.815,296.689,143.782,300.477,143.812z
			 M291.097,127.823c-0.396-0.391-0.795-0.782-1.192-1.173c-2.05,1.682-4.102,3.364-6.152,5.046c0.234,0.384,0.469,0.77,0.703,1.154
			c1.102,0,2.202,0,3.509,0c0,2.889-0.118,5.492,0.065,8.075c0.063,0.879,0.881,1.707,1.354,2.557
			c0.571-0.768,1.608-1.519,1.638-2.307C291.18,136.729,291.097,132.275,291.097,127.823z"/>
		<path fill-rule="evenodd" clip-rule="evenodd" fill="#FFFFFF" d="M36.216,226.34c2.314-0.121,4.038-0.211,6.006-0.314
			C40.172,229.808,38.491,229.996,36.216,226.34z"/>
		<path fill-rule="evenodd" clip-rule="evenodd" fill="#FFFFFF" d="M71.439,225.033c1.759-1.586,2.79-2.515,3.819-3.442
			c0.845,1.332,2.253,2.627,2.346,4.009c0.068,1.011-1.595,2.139-2.486,3.214C74.093,227.76,73.067,226.706,71.439,225.033z"/>
		<path fill-rule="evenodd" clip-rule="evenodd" fill="#FFFFFF" d="M467.662,272.508c1.604-1.687,2.599-2.731,3.594-3.776
			c0.957,1.049,2.694,2.111,2.678,3.145c-0.022,1.357-1.426,2.692-2.235,4.036C470.538,274.935,469.38,273.957,467.662,272.508z"/>
		<path fill-rule="evenodd" clip-rule="evenodd" fill="#FFFFFF" d="M363.51,272.552c-1.718,1.574-2.741,2.514-3.766,3.451
			c-0.938-1.186-2.501-2.312-2.62-3.575c-0.1-1.053,1.493-2.267,2.335-3.409C360.598,270.012,361.735,271.004,363.51,272.552z"/>
		<path fill-rule="evenodd" clip-rule="evenodd" d="M246.874,73.951c5.351,0.68,7.275,2.239,6.654,6.393
			c-0.28,1.876-1.837,4.572-3.353,5.004c-2.016,0.575-4.626-0.513-6.824-1.315c-0.515-0.188-0.399-2.101-0.573-3.221
			c0.978,0.282,1.96,0.546,2.931,0.85c1.129,0.354,2.248,0.745,3.372,1.12c0.232-1.571,0.465-3.141,0.697-4.712
			c-1.178-0.097-2.367-0.34-3.53-0.249c-1.013,0.08-1.998,0.536-2.995,0.826c-0.133-1.156-0.591-2.387-0.346-3.456
			c1.368-5.959,2.615-7.081,7.086-6.306c0.995,0.172,1.833,1.246,2.744,1.904c-0.878,0.448-1.72,0.995-2.641,1.319
			c-1.126,0.395-2.319,0.603-3.483,0.891C246.7,73.316,246.787,73.634,246.874,73.951z"/>
		<path fill-rule="evenodd" clip-rule="evenodd" d="M173.301,207.938c3.61-2.291,5.833,4.164,8.133-0.486
			c0.317-0.642-2.089-2.629-3.475-4.281c0.198-0.161,0.975-0.556,1.383-1.188c0.531-0.822,0.769-1.835,1.132-2.765
			c-1.021,0.032-2.064-0.05-3.059,0.129c-1.003,0.181-1.959,0.622-2.936,0.948c0.366-1.297,0.449-3.499,1.152-3.72
			c1.99-0.624,4.36-0.903,6.327-0.375c1.024,0.274,2.423,2.871,2.069,3.837c-0.892,2.429,0.599,4.097,0.818,6.086
			c0.184,1.67-0.658,4.379-1.904,5.061c-1.797,0.984-4.485,1.032-6.569,0.538C175.146,211.43,174.353,209.315,173.301,207.938z"/>
		<path fill-rule="evenodd" clip-rule="evenodd" d="M342.743,204.067c-1.177,1.452-2.115,3.729-3.588,4.154
			c-2.016,0.582-4.897,0.432-6.533-0.686c-1.223-0.835-1.262-3.676-1.45-5.659c-0.149-1.578,0.491-3.223,0.396-4.815
			c-0.184-3.073,1.289-4.691,4.122-5.167c2.921-0.49,5.469,1.223,5.696,3.951c0.214,2.557,0.046,5.145,0.046,7.72
			C341.869,203.732,342.307,203.9,342.743,204.067z M336.324,206.541c1.137-1.354,2.301-2.145,2.408-3.06
			c0.083-0.722-1.135-1.595-1.774-2.4c-0.92,0.835-2.078,1.541-2.636,2.572C334.119,204.029,335.343,205.178,336.324,206.541z"/>
		<path fill-rule="evenodd" clip-rule="evenodd" d="M259.708,203.412c0.746,0.194,1.486,0.529,2.238,0.56
			c3.169,0.124,4.254,2.081,4.591,4.878c0.381,3.146-0.89,5.415-3.667,6.692c-2.647,1.216-4.949,0.322-6.503-2.022
			c-0.48-0.725-0.266-1.91-0.369-2.885c0.86,0.211,1.718,0.432,2.581,0.632c1.303,0.301,2.608,0.588,3.912,0.881
			c0.185-1.388,0.91-3.069,0.371-4.064c-0.382-0.702-2.474-0.567-3.81-0.632c-0.919-0.044-1.853,0.211-2.779,0.332
			c-0.097-1.059-0.45-2.172-0.246-3.17c1.201-5.865,2.477-6.792,7.818-5.645c0.708,0.152,1.235,1.154,1.846,1.763
			c-0.602,0.503-1.132,1.189-1.824,1.457c-0.654,0.253-1.486,0.002-2.226,0.091c-0.652,0.077-1.284,0.317-1.925,0.485
			C259.713,202.98,259.71,203.196,259.708,203.412z"/>
		<path fill-rule="evenodd" clip-rule="evenodd" d="M251.3,199.013c0,4.905,0.054,9.811-0.07,14.713
			c-0.015,0.593-0.989,1.161-1.519,1.74c-0.519-0.689-1.441-1.355-1.485-2.075c-0.174-2.823-0.071-5.663-0.071-8.636
			c-1.394,0-2.452,0-3.512,0c-0.216-0.284-0.433-0.567-0.649-0.852c1.938-1.852,3.875-3.704,5.814-5.557
			C250.305,198.569,250.803,198.791,251.3,199.013z"/>
		<path fill-rule="evenodd" clip-rule="evenodd" d="M208.733,139.794c1.338,0,2.736-0.231,3.992,0.09
			c0.726,0.185,1.225,1.262,1.826,1.938c-0.642,0.464-1.259,1.278-1.932,1.329c-2.351,0.177-4.724,0.158-7.084,0.083
			c-2.539-0.08-3.068-1.55-1.8-3.466c1.004-1.517,2.449-2.744,3.712-4.086c0.843-0.895,2.003-1.632,2.478-2.685
			c0.421-0.935,0.094-2.208,0.096-3.332c-1.089,0.19-2.186,0.344-3.265,0.578c-1.099,0.238-2.181,0.554-3.27,0.837
			c0.479-1.295,0.601-2.984,1.508-3.805c2.057-1.862,6.339-1.442,7.779,0.694c1.71,2.537,1.635,5.197-0.817,7.355
			c-1.294,1.139-2.773,2.068-4.168,3.091C208.104,138.874,208.418,139.334,208.733,139.794z"/>
		<path fill-rule="evenodd" clip-rule="evenodd" d="M221.447,138.6c1.905,1.034,3.54,1.921,5.176,2.809
			c-1.923,0.604-3.82,1.571-5.774,1.706c-1.819,0.125-3.699-0.637-5.552-1.009c1.186-1.953,2.255-3.992,3.597-5.832
			c1.065-1.46,2.676-2.546,3.613-4.065c0.376-0.61-0.105-2.36-0.743-2.8c-0.558-0.385-1.906,0.265-2.86,0.59
			c-0.986,0.337-1.917,0.834-2.872,1.261c0.297-1.325,0.392-3.693,0.925-3.797c2.386-0.46,5.188-0.993,7.286-0.139
			c2.454,1,2.551,3.858,1.171,6.124C224.214,135.418,222.597,137.133,221.447,138.6z"/>
		<path fill-rule="evenodd" clip-rule="evenodd" d="M252.88,157.191c0.144-5.486,1.791-7.961,5.503-8.26
			c0.37-0.03,0.748-0.104,1.11-0.06c3.833,0.464,5.673,5.145,4.676,11.861c-0.624,4.201-2.906,5.948-6.863,5.255
			C254.298,165.46,252.745,162.373,252.88,157.191z M258.829,163.481c2.488-2.468,3.262-6.961,1.797-9.637
			c-1.012-1.849-3.093-2.05-4.167-0.404C254.826,155.946,256.001,161.318,258.829,163.481z"/>
		<path fill-rule="evenodd" clip-rule="evenodd" d="M245.967,155.384c-1.696,0.136-2.707,0.217-3.719,0.299
			c-0.25-0.354-0.501-0.708-0.752-1.063c2.05-1.958,4.099-3.918,6.149-5.877c0.476,0.227,0.952,0.454,1.428,0.681
			c0,4.902,0.052,9.806-0.069,14.705c-0.014,0.588-0.965,1.152-1.483,1.728c-0.518-0.557-1.451-1.089-1.482-1.672
			C245.882,161.354,245.967,158.512,245.967,155.384z"/>
		<path fill-rule="evenodd" clip-rule="evenodd" d="M300.477,143.812c-3.787-0.03-6.208-3.997-4.896-7.779
			c0.384-1.105,0.079-2.433,0.354-3.597c0.399-1.7,0.624-4.363,1.664-4.784c1.807-0.731,4.452-0.62,6.212,0.236
			c1.013,0.493,1.043,3.127,1.389,4.823c0.212,1.041-0.126,2.285,0.316,3.172C307.494,139.86,305.025,143.849,300.477,143.812z
			 M300.973,135.005c-1.257,1.356-2.713,2.271-2.621,2.988c0.125,0.966,1.44,1.779,2.245,2.657c0.798-0.743,2.132-1.413,2.245-2.248
			C302.957,137.549,301.875,136.534,300.973,135.005z"/>
		<path fill-rule="evenodd" clip-rule="evenodd" d="M291.097,127.823c0,4.452,0.083,8.906-0.076,13.353
			c-0.029,0.788-1.066,1.539-1.638,2.307c-0.473-0.851-1.291-1.678-1.354-2.557c-0.184-2.583-0.065-5.186-0.065-8.075
			c-1.307,0-2.407,0-3.509,0c-0.234-0.385-0.469-0.77-0.703-1.154c2.051-1.682,4.103-3.365,6.152-5.046
			C290.302,127.041,290.7,127.432,291.097,127.823z"/>
		<path fill-rule="evenodd" clip-rule="evenodd" fill="#FFFFFF" d="M336.324,206.541c-0.981-1.363-2.205-2.512-2.002-2.888
			c0.558-1.031,1.716-1.737,2.636-2.572c0.64,0.806,1.857,1.679,1.774,2.4C338.625,204.396,337.461,205.188,336.324,206.541z"/>
		<path fill-rule="evenodd" clip-rule="evenodd" fill="#FFFFFF" d="M258.829,163.481c-2.828-2.163-4.002-7.536-2.37-10.041
			c1.074-1.646,3.154-1.445,4.167,0.404C262.09,156.52,261.316,161.014,258.829,163.481z"/>
		<path fill-rule="evenodd" clip-rule="evenodd" fill="#FFFFFF" d="M300.973,135.005c0.902,1.529,1.984,2.544,1.869,3.397
			c-0.113,0.835-1.447,1.505-2.245,2.248c-0.805-0.878-2.12-1.691-2.245-2.657C298.26,137.276,299.716,136.361,300.973,135.005z"/>
	</g>
</g>
</svg>
